# .PCD v0.7 - Point Cloud Data file format
VERSION 0.7
FIELDS x y z intensity
SIZE 4 4 4 4
TYPE F F F F
COUNT 1 1 1 1
WIDTH 198
HEIGHT 1
VIEWPOINT 0 0 0 1 0 0 0
POINTS 198
DATA ascii
1.5477766 2.4381924 -0.98910099 6
1.8038852 2.5443294 -0.99545449 0
1.0910357 2.6919098 -0.98441887 6
1.4984382 2.6991444 -0.93061137 68
1.8408682 2.6020982 -0.90692079 0
0.36001539 2.7028739 -0.93570858 12
0.71695429 2.7957885 -0.96052212 9
0.90878969 2.7335334 -0.96635801 6
2.2675395 2.7049088 -0.98316747 37
2.6547346 2.7140088 -0.92019469 61
0.44307637 2.9638352 -0.95707095 10
0.93630344 2.8858376 -0.97695756 8
3.4936066 2.9349561 -0.90280569 84
0.89197618 3.0868106 -0.97584009 7
0.94721276 3.0110776 -0.97829247 7
1.4505005 3.1198716 -0.95193875 68
2.2569554 3.0560603 -0.91030252 56
3.4762604 3.0703564 -0.91508633 86
0.60052717 3.2754939 -0.97393346 5
0.92495698 3.2026789 -0.98143148 7
3.4654078 3.1995254 -0.93953222 47
1.0007026 3.5188723 -0.99606931 10
2.2194908 3.5002663 -0.92259681 67
4.9320574 3.4820349 -0.98225528 112
0.78629905 3.6596699 -0.99281287 10
1.4055848 3.6818278 -0.97035956 52
0.98725277 5.2359791 -0.9836548 38
0.950535 5.2916131 -0.90335387 42
1.1826836 5.3065934 -0.9873206 0
1.9055083 5.3384809 -0.92740536 96
1.6361809 6.4417663 -0.97263038 13
1.6233335 -1.5997078 -0.77774644 37
1.5111194 2.6463411 -0.85759997 65
2.3039479 2.6872523 -0.78979689 75
1.4900696 2.797667 -0.83557713 65.5
2.2895825 2.7061443 -0.88696617 72
3.5003669 2.847347 -0.86533689 84
1.4788578 2.9270561 -0.79994369 63
4.6955566 2.9798229 -0.8622734 88
1.4649028 3.0552104 -0.8072626 68
2.2686124 3.0302069 -0.80993879 81
6.1845417 3.1317613 -0.79295689 83
1.450024 3.1977339 -0.76301724 72
3.4847851 3.2291577 -0.76676142 2
1.4319333 3.4192204 -0.79840904 69
5.9420385 3.3521979 -0.86609286 85
1.4192338 3.5496643 -0.8799082 61
2.2515979 3.4638033 -0.8217513 68
3.791877 3.5926564 -0.87836075 30
1.3727968 5.1538329 -0.77569461 1
0.92146987 5.3898559 -0.84267247 1
2.0356307 5.3642874 -0.84755415 106
0.71162719 -1.6960622 -0.61967838 73.75
0.85331994 -1.6839061 -0.60873896 72
1.2339454 -1.6370587 -0.61407548 71
1.4187343 -1.6203475 -0.69750488 66
1.5533262 -1.6072402 -0.7214058 76
1.0905265 -1.4484253 -0.60187459 152
1.2916373 -1.3057767 -0.61913782 159
1.6380644 -1.067122 -0.65333825 14
1.8352766 -1.1349432 -0.62024724 150
1.9621863 -1.1163728 -0.63894689 74
1.8621252 -1.0102276 -0.73509139 150
1.5704567 -0.85474527 -0.62111026 157
1.9124205 -0.82910448 -0.68960416 69.5
1.9140968 -0.69965726 -0.67521018 59.333332
1.6341496 -0.53938437 -0.60123068 46
1.889377 -0.46544933 -0.6568566 60
1.8752213 -0.33727333 -0.63928658 64
1.8519883 -0.074747682 -0.64597875 66
1.7973552 0.4272857 -0.62001866 75
1.8094163 0.30312064 -0.63088512 74
1.7445095 0.89981687 -0.61175662 52
2.3776596 2.6892912 -0.712906 70
2.40908 2.6880026 -0.63916743 73
1.5101855 2.7938793 -0.60505408 57
2.3052499 2.7096727 -0.61798304 67
2.5132315 2.7046056 -0.72137797 69
2.6450601 2.7108891 -0.72829068 84
3.896632 2.8466032 -0.69867963 21
1.4953388 2.8544769 -0.67874044 65
3.5047445 2.8786163 -0.72237843 78
4.9822416 2.9549441 -0.62332875 27
4.7065959 3.052417 -0.67900592 101
1.4369347 3.3650079 -0.71351528 66
1.427462 3.5401433 -0.67136985 71
2.3005764 3.4645274 -0.72604942 20
3.7617543 3.4761024 -0.64232659 11
1.4179598 3.6625569 -0.68808776 65
1.3954482 3.7597468 -0.63390064 23
1.5038402 5.2124457 -0.70371342 27
0.95066839 5.2813058 -0.62891889 29
1.8755023 5.3451085 -0.63751709 106
2.0260022 5.3578968 -0.69150728 91
1.7223847 5.489222 -0.65249431 21
1.3704745 6.3972144 -0.61700964 40
0.42751065 -1.7243644 -0.51798087 76
0.52708703 -1.714731 -0.52389377 76.111115
0.64331472 -1.7000034 -0.54226625 71.599998
0.82321173 -1.6812854 -0.46173516 72
0.94869173 -1.6711643 -0.48452836 74
1.1905941 -1.6544952 -0.53605545 3
0.96739912 -1.5517173 -0.51107204 150
1.1760675 -1.6459991 -0.56981534 20
1.2042825 -1.6408621 -0.58322001 17
1.4563769 -1.6102717 -0.59873599 65
1.7489748 -1.5876334 -0.45484108 64
1.8140392 -1.5347091 -0.57060289 150
0.88904876 -1.4689784 -0.49194086 151
1.9270546 -1.4049897 -0.50386018 150
2.0069165 -1.4768338 -0.4866395 68.5
1.1992716 -1.2457086 -0.45281431 53
1.4955006 -1.2343621 -0.49556568 77
1.5366297 -1.2918665 -0.47492215 119.5
1.6834878 -1.2357926 -0.51604617 155
1.9173679 -1.2354045 -0.51534361 150
1.9778436 -1.2396666 -0.54462028 68
0.75065011 -1.0912472 -0.45983383 16
1.4521161 -1.1185555 -0.58059222 26
1.6066594 -1.1590517 -0.55238998 63
1.7664075 -1.1741598 -0.52778578 151
1.964045 -1.1163487 -0.5951755 58
1.7726438 -1.0025734 -0.53606725 151
1.8775051 -1.0389184 -0.57989532 150
1.5487527 -0.80449969 -0.55112648 111.33334
1.4830198 -0.73342776 -0.52860212 33.5
1.6342659 -0.66987187 -0.56730151 154
1.7918935 -0.71230102 -0.59359491 150
1.6369097 -0.54422522 -0.58363247 46
1.9004023 -0.56720501 -0.4895508 57
1.8901747 -0.40608433 -0.4754177 61.333332
1.3304554 -0.10227697 -0.45167476 38.5
1.6329644 -0.124127 -0.52980423 151
1.8473506 -0.010170276 -0.49988386 64
1.3410994 0.11107042 -0.46049231 27
1.7327733 0.016513331 -0.48750389 150
1.8404 0.0029433027 -0.56119245 67
1.8171673 0.2696009 -0.5221771 72.333336
1.8069966 0.38991469 -0.50006485 67
1.421032 0.54978669 -0.47779495 110.5
1.544686 0.47234917 -0.48537043 94.666664
1.5611671 0.71773362 -0.49897832 150
1.7518988 0.82730675 -0.50774759 74
1.5285405 2.6802263 -0.4661991 66
1.7789457 2.6818476 -0.52338779 42.5
1.9136465 2.6560717 -0.50347471 2.5
2.0404556 2.6377306 -0.56308907 11.5
2.121063 2.627723 -0.59845102 11
1.5150454 2.7340717 -0.5321666 59
2.5100513 2.7105422 -0.51351738 68
3.8372004 2.8441589 -0.53867096 47
3.5090103 2.9158821 -0.57959497 77
1.472102 3.1303151 -0.50461483 60
5.9959149 3.1432824 -0.47810578 86
1.4567078 3.216002 -0.57543129 60
3.413451 3.1933272 -0.47450319 74
4.6933322 3.1999454 -0.50913888 96
5.9669256 3.3180287 -0.57585686 106
6.7827158 3.4048865 -0.53840983 42
1.426053 3.6703813 -0.45022717 57
1.4195758 5.2480135 -0.46204767 11
1.1967474 5.2996483 -0.50270265 10
1.755455 5.3965597 -0.56162077 64
1.7166281 5.512002 -0.48833773 13
-0.34159514 -11.438853 -0.42168447 115
0.38803568 -1.7307497 -0.4458476 46
0.82458526 -1.677704 -0.4032197 76
0.78352976 -1.5312406 -0.43238014 150
0.88785893 -1.485489 -0.44556028 151
1.7648659 -1.4783118 -0.44397971 150
1.294395 -1.2604227 -0.42537642 150
0.69909483 -1.1579994 -0.41609144 20
1.6384335 -1.1895717 -0.42339054 49
1.5654672 -0.67306542 -0.42015356 52.5
1.910996 -0.53956974 -0.43045649 58.5
1.3989706 -0.20985332 -0.44458187 17.5
1.3279085 -0.07149221 -0.40625954 20
1.3737977 -0.072754651 -0.41046041 98
1.3424 0.07062988 -0.42199588 47
1.3552128 0.073713906 -0.41220874 52
1.5237664 0.19022775 -0.42697847 40
1.8126609 0.35300279 -0.42518434 67
1.3725123 0.55080295 -0.42966834 57
1.5499396 0.53366572 -0.42682892 150
1.7965353 0.47468209 -0.4470616 64
1.8082814 0.48133701 -0.41341695 74
1.4152497 0.6056779 -0.40943348 132
1.7595586 0.84882367 -0.41636422 69.5
1.7467091 0.92112517 -0.44308484 10
1.8053138 2.6711299 -0.44834462 1
2.1265016 2.6488249 -0.44494927 1
3.5130386 2.9371223 -0.43718821 85
1.4823439 3.0535178 -0.43444711 68
4.7138 3.0431271 -0.44344985 93
2.2539389 3.3902619 -0.43889666 62
2.2278879 3.5015926 -0.4126693 34
7.4948001 3.6308634 -0.40423092 1
1.3107674 5.2915039 -0.4444032 22
