# .PCD v0.7 - Point Cloud Data file format
VERSION 0.7
FIELDS x y z intensity
SIZE 4 4 4 4
TYPE F F F F
COUNT 1 1 1 1
WIDTH 1349
HEIGHT 1
VIEWPOINT 0 0 0 1 0 0 0
POINTS 1349
DATA ascii
0.016961392 -1.5339651 -0.17880023 0
0.029179435 -1.4968959 -0.17352077 8
0.013415631 -1.2717887 -0.17737581 4
1.2162062 -1.2569358 -0.18707561 40
-0.0018930912 -0.93398792 -0.1530484 2
0.83996874 -0.97676617 -0.19379519 41
-0.006951225 -0.82622182 -0.17610109 3.8
-0.51151329 -0.67311382 -0.18038405 2.3333333
-0.357896 -0.66689831 -0.17954625 2.5555556
-0.27647135 -0.6719175 -0.18479492 3
0.11911193 -0.67530209 -0.16512282 10.285714
0.19232941 -0.67022204 -0.18306984 8.909091
0.7767542 -0.64568859 -0.19140255 0
1.3397856 -0.61071867 -0.17736489 1
1.3578335 -0.61145872 -0.19310229 19
-0.34236917 -0.53621364 -0.18404847 1.5
0.67254955 -0.55912489 -0.17197721 0
0.88863158 -0.59757304 -0.17626005 0
1.5958657 -0.59017271 -0.18269365 38
1.9142642 -0.55598551 -0.18617912 30
2.4322834 -0.52351052 -0.18018205 58
3.2698109 -0.47459668 -0.16131003 35
3.7226121 -0.30787075 -0.16327482 97
3.6627724 -0.096999913 -0.16548494 63.5
3.685463 0.11738236 -0.17792021 101
3.6741264 0.33355215 -0.18400541 100.5
3.6626883 0.55137455 -0.18179035 101.5
-0.65998864 0.66834778 -0.18001954 0.40000001
-0.56729764 0.72222185 -0.18344325 0
0.27054802 0.72293544 -0.18307398 0.33333334
0.35530809 0.68202621 -0.18730128 0
0.52672279 0.69314134 -0.15316829 0
3.6504426 0.7417469 -0.19273542 99
-0.70699203 0.75106412 -0.19729693 1
-0.37412322 0.81377441 -0.19065785 17
-0.23396949 0.8086915 -0.17647682 13.25
-0.037847158 0.82126784 -0.16761231 17
0.00033311249 0.82780039 -0.1635837 10
0.28283119 0.80614334 -0.16046014 0
0.83343905 0.8696661 -0.19152686 9
0.90483433 0.8685742 -0.18006819 9
1.0763633 0.8787778 -0.17647061 43.5
1.8783901 0.82198727 -0.16226503 5
-0.52877283 1.0399159 -0.18853106 0
3.6252108 0.96148539 -0.18503669 68
-0.6228174 1.1390314 -0.16396965 14
-0.45653912 1.1557827 -0.16399655 21
-0.43671271 1.1597037 -0.17522505 20
0.14661135 1.1615996 -0.17114209 14
0.25219533 1.1822402 -0.16244622 10.333333
0.35738042 1.194121 -0.17523317 13.142858
0.018985223 -1.5065479 -0.14189941 8
-0.054459751 -0.96042806 -0.093203023 6
0.0062327608 -0.99400491 -0.099116422 6.3333335
0.73761588 -0.91534352 -0.088600643 1
0.95960492 -0.98758537 -0.10044832 11
1.1324928 -0.97041106 -0.11285649 46.5
-0.082983539 -0.8380006 -0.10188329 3.7142856
0.50350481 -0.75261545 -0.089067943 2
0.66768742 -0.78899586 -0.095063709 1.5
0.81288493 -0.79093218 -0.096894361 1
0.90475041 -0.89546454 -0.086758502 1
-0.62088466 -0.63918829 -0.068250127 2.5555556
-0.54606068 -0.62739915 -0.055610973 2.4166667
-0.34958944 -0.61688203 -0.029362701 2.6842105
-0.24893114 -0.63203728 -0.064802058 2.652174
-0.085355245 -0.66959792 -0.070940346 3.6666667
0.063724659 -0.67471868 -0.12885413 11.928572
0.25514016 -0.66539955 -0.087980799 8
0.36884403 -0.65492088 -0.093188979 6.3333335
0.51983273 -0.67678154 -0.093261532 4.5
0.66175216 -0.67864507 -0.10047564 2.3333333
0.78727257 -0.69367903 -0.11641609 0.5
1.3347286 -0.60927218 -0.13648146 2
1.3918037 -0.61371917 -0.11167419 81
-0.62135988 -0.58421338 -0.026507145 0
0.68805045 -0.56508124 -0.057612926 0.14285715
0.82674968 -0.57716525 -0.07590197 0
0.94455111 -0.56071126 -0.031700063 7.5
1.6054629 -0.58796734 -0.091296315 29.75
1.7322571 -0.57443166 -0.0025333213 25
1.891608 -0.55331862 -0.09713085 30
1.9670038 -0.55319911 -0.13764073 22
2.3283448 -0.51518619 -0.072812058 18.5
2.4664142 -0.52058738 -0.1298866 60
3.5178158 -0.50371534 -0.093877234 11
3.7293155 -0.33162183 -0.077976175 58.5
3.6874812 -0.13018973 -0.054472599 41
3.6760533 0.078535795 -0.059397284 59
3.6618459 0.28733787 -0.055941615 56
3.675931 0.49896595 -0.042703096 15
-0.95215476 0.71525943 -0.018503342 0.80000001
-0.80953568 0.69198453 -0.053697258 0.60000002
-0.68904245 0.71614301 -0.076786071 1.0571429
-0.57290733 0.71522546 -0.059972323 0.60000002
0.20204246 0.74359226 -0.089130953 0
0.4084219 0.65412295 -0.11321031 0
0.52670109 0.73640364 -0.024606353 0
0.63131052 0.74158186 -0.06759879 0
3.7557747 0.72649896 -0.014502143 53
-0.63210398 0.75401133 -0.13549468 2
-0.51441747 0.8101753 -0.11558889 8.3999996
-0.33419362 0.80857158 -0.1125913 12.272727
-0.28047863 0.81029892 -0.13237023 16.25
-0.074101642 0.81668389 -0.1227961 12.230769
0.022742134 0.85277939 -0.14482635 10
0.23429322 0.79051095 -0.1009155 1.6363636
0.35133484 0.77789968 -0.088060535 0.61538464
0.47695565 0.75047719 -0.038028482 0
0.98088896 0.86984718 -0.12450685 9.5
1.2506328 0.88843369 -0.11655877 3
1.4189253 0.81186879 -0.056880765 17.200001
1.6251365 0.8456344 -0.14935346 4
1.6787564 0.82407683 -0.00052860857 3
1.8242595 0.84280765 -0.040843748 3.5
3.6500716 0.80293417 -0.14880733 94
-0.49945244 0.92986661 -0.12379672 3.5999999
-0.43865442 0.96721625 -0.12124179 6
-0.078598097 1.0083628 -0.031213885 5
0.092171863 0.99802083 -0.12443454 3
1.108853 1.0177617 -0.049171362 6
2.7229261 0.96423948 -0.13531844 6
3.6233966 1.0257765 -0.11743567 55
-0.64113432 1.1404842 -0.14104715 11.4
-0.4770503 1.1304388 -0.12539473 6.3333335
-0.43120176 1.1436977 -0.12596005 6
0.076622024 1.1215614 -0.062686302 3.5
0.21955526 1.159493 -0.12927176 6.1666665
1.6976044 1.1317478 -0.14084111 8
1.9462883 1.2705144 -0.14189754 67
0.53045571 -1.0750262 0.14803725 0
-1.0734677 -0.99812859 0.081056617 7
-1.0420947 -0.97480071 0.10464113 9
-0.61427647 -0.60703051 0.05983457 2
-0.53654015 -0.60837924 0.034987472 2.2
-0.40721682 -0.60464299 0.029862156 2.4285715
-0.25107667 -0.6063202 0.025020892 2.5
1.5981419 -0.63222462 0.063924238 66
-0.6192984 -0.58862346 0.086520746 1.2
-0.51243567 -0.5864082 0.10674562 2.1666667
-0.36616179 -0.57988185 0.097266577 2.5517242
-0.2763586 -0.59516156 0.050475162 2.8
0.59804732 -0.53981245 0.070439003 0
0.66902977 -0.5490014 0.039936244 0
0.82504815 -0.54979926 0.046492685 0.89999998
0.97207749 -0.53286058 0.068447784 3.5555556
1.1070112 -0.52225351 0.051458839 2
1.619596 -0.58972985 0.12989876 39.5
1.8397614 -0.56015134 0.079323143 28.25
2.1962278 -0.53570759 0.093565859 21.333334
2.3268037 -0.52432823 0.033044513 21
3.9876175 -0.59393024 0.065645516 110.5
2.7900651 -0.34235799 0.043548342 6
4.3124681 -0.40332773 0.1472947 0
3.7669125 -0.18588358 0.10615072 5.5
-0.97136486 0.015132349 0.14286417 4
3.6861372 0.062407412 0.092694081 19.5
3.7817719 0.0056329118 0.11218365 37
-0.87404424 0.17519675 0.029045308 0
-0.96537817 0.69311994 0.064812593 0.33333334
-0.82873285 0.69482863 0.085889079 1.16
-0.67250472 0.697451 0.09219972 1.5
-0.57084465 0.70621866 0.0614537 1.375
0.23653096 0.73926091 0.08538612 0.25
0.37643689 0.72501349 0.093593612 0
0.52389574 0.7198683 0.073884867 0
0.62608945 0.70849919 0.078352615 0
0.23181178 0.75735855 0.057006687 0.33333334
0.32444468 0.75160515 0.040590163 0
1.4142402 0.79277635 0.097870633 2.5999999
1.584771 0.79991156 0.061151005 4
1.670691 0.79538435 0.07988932 3.6666667
1.8583376 0.80098665 0.062963419 2
3.707701 0.93569547 0.010626311 18
0.0081744017 1.1806872 0.019393647 4
3.6439798 1.1396074 0.044544276 14
-0.18655838 1.3251295 0.13851285 34
-0.05531165 1.3014399 0.10115004 5.5
-0.69711244 1.4330685 0.1158778 0
-0.46435955 1.3907772 0.12420919 1.6666666
-0.40868446 1.3950102 0.11571653 0
-0.07846839 1.36961 0.10146032 8.25
0.4013983 1.437598 0.10794821 3
0.53209853 1.450722 0.089642845 1
-1.2271662 -1.3109251 0.21814919 1
-1.0745538 -1.3080608 0.20874143 2
0.48168075 -1.2148808 0.27155617 4
0.74489206 -1.210073 0.18113503 1.5
0.7703405 -1.2151029 0.19505078 1
0.36434874 -1.1319612 0.24087095 4.3333335
0.5181703 -1.1356659 0.1933094 11
0.83058149 -1.1981283 0.1618008 1
1.5977831 -0.64072657 0.21561751 59.599998
3.9987216 -0.65427101 0.22919351 71.5
-0.49908161 -0.55560082 0.16032514 1
-0.41289479 -0.55498552 0.16355792 1.25
1.6069503 -0.58297908 0.17730564 23
1.7458744 -0.56629068 0.24759503 26.666666
1.8550726 -0.55431706 0.19579883 24.333334
1.9595542 -0.55198443 0.1624251 22
2.1798832 -0.5291149 0.23252787 22.666666
2.3151753 -0.52574795 0.25721681 19
-1.1205794 -0.024982749 0.27077717 0
3.9429271 -0.0024953226 0.29980069 46
-1.0758049 0.14375694 0.2759527 0
-0.97919172 0.037632592 0.17737956 3
-1.0662172 0.22818618 0.28197542 0
-1.0155206 0.22907348 0.25333327 0
3.9745572 0.21827254 0.29223251 37
3.9280131 0.43610466 0.28374922 19
-0.82663924 0.56159657 0.29031312 0.33333334
-0.81721729 0.64746588 0.22785616 0
-0.69676733 0.6512292 0.16949399 0
0.37739921 0.70237696 0.16589659 0
0.48378932 0.68122131 0.15127254 0
1.6102763 0.72302032 0.18134582 2
3.8993256 0.65466142 0.28885984 32
0.27654552 0.79989469 0.25684422 0
0.3292723 0.79143351 0.24940801 0.66666669
1.4677961 0.85014641 0.21553898 3
1.5979414 0.80229092 0.28140649 2.5
1.6908587 0.85626411 0.23059237 3.3333333
-0.16490509 1.3243399 0.20503929 3.5
0.048022445 1.2896265 0.28053126 13.25
3.8747933 1.2845681 0.24887115 32.5
-0.15202311 1.3659868 0.17737269 7
-0.12403114 1.3933672 0.16806518 7
0.10421087 1.3729903 0.24614799 6
1.6489936 -1.404072 0.43727827 6
1.6490035 -1.2698562 0.34317356 67
1.6555179 -1.2969837 0.3986299 69
-0.51446295 -0.61713499 0.33689988 0
1.6009425 -0.62618339 0.3505713 61.666668
3.9987774 -0.65980482 0.40295592 67.5
1.615124 -0.58042002 0.4203583 8
1.7014446 -0.56487244 0.35218486 24.666666
1.9937891 -0.54476953 0.36229673 20.333334
2.1884847 -0.52990389 0.30891624 21.5
2.3751802 -0.51845461 0.39397764 19
3.9775865 -0.40697852 0.38849545 30.666666
3.9677801 -0.21421404 0.36324087 60.666668
-1.215454 -0.010218028 0.38074082 3
3.9619114 -0.12383088 0.41617608 70
-1.2172143 0.026674706 0.4124611 5.5
-1.1342751 0.092968792 0.391359 0.66666669
3.9450741 0.036936693 0.3737762 68.333336
-1.070047 0.21403775 0.35900462 0
-1.0470926 0.24604876 0.32585111 0
3.9302554 0.22425598 0.3541691 73
-1.0823417 0.34974316 0.39227903 2.25
3.9159307 0.37936035 0.38431272 71.666664
-0.87798911 0.55785733 0.32136282 0.33333334
-0.69019759 0.5697459 0.32151437 0.25
3.9071708 0.49374413 0.39941081 80.5
-0.9235636 0.68624306 0.35853481 0
-0.87842739 0.68063438 0.36364612 0.75
-0.66841906 0.69219875 0.35582843 0.86666667
3.9033985 0.6596055 0.37330905 77.5
3.8895326 0.84903252 0.38099194 75
3.8802092 0.98203796 0.4474681 92
3.8689718 1.0928013 0.36287862 35.5
3.8618348 1.3210549 0.40862811 30
1.6540008 -1.3978477 0.56031412 4
1.6448047 -1.2331579 0.50377965 60
1.653805 -1.2996564 0.51592827 62.25
4.0147634 -0.79856592 0.54768419 57
1.6050863 -0.66119552 0.45152777 58
3.999382 -0.65309101 0.5538854 68.333336
1.8471687 -0.55555409 0.47817427 22
2.0053458 -0.53555596 0.49448091 22
2.169569 -0.53089905 0.56590348 21
2.3696661 -0.50251585 0.50873297 11.333333
3.9865108 -0.51740116 0.50976789 65.5
3.9960427 -0.42790979 0.50460136 24.5
3.9743423 -0.24087101 0.50579691 63.5
3.9539719 -0.036156204 0.48351538 63.5
-1.223248 0.0091258176 0.49698508 4
-1.160604 0.062930852 0.53711337 2.3333333
3.9392943 0.1342327 0.53716302 64.5
-1.0856054 0.22055408 0.51891607 0
-1.0424764 0.267932 0.48279566 0
3.9307435 0.18767782 0.45819747 66
-1.076787 0.38109356 0.52678066 3.2
-1.0438888 0.3480573 0.5002237 0
3.9247735 0.32700512 0.55575174 66.333336
-1.056602 0.45337781 0.49576437 2
3.9078476 0.54120266 0.54358041 71.5
3.9033759 0.6011892 0.45188743 73
3.8924434 0.77996278 0.49167749 72
3.8778446 0.98816681 0.51741409 73.5
3.8681848 1.13978 0.53851259 70.5
3.8550408 1.2639918 0.514265 75.666664
3.8427799 1.4480734 0.55249745 80.5
3.8426511 1.5364465 0.4988845 87
3.8163793 2.0555084 0.57518822 59
3.8261445 2.2294469 0.52469355 7
3.8111885 2.2680707 0.57455039 50
1.6544451 -1.3810648 0.66998053 27.6
1.648374 -1.2585607 0.62057734 59
1.6533314 -1.2518483 0.66944754 54.799999
4.0047145 -0.7004686 0.73141026 65.333336
-2.2858481 -0.47918281 0.72446609 28
3.9852955 -0.49320498 0.6879878 63.666668
3.9842968 -0.36977494 0.69200057 62.5
3.9758713 -0.26897448 0.67595607 62.333332
3.960655 -0.079933271 0.64400446 61.75
-1.097078 0.12761296 0.70753181 7
3.9421501 0.11499815 0.64025348 62
-1.1130857 0.2173512 0.65734869 5.5714288
-1.0216562 0.20524174 0.71586978 7
3.929034 0.28930432 0.67701709 66
3.9168031 0.33109495 0.62993956 62
3.9096186 0.50332308 0.63775927 66.333336
3.8976994 0.70902014 0.64628392 71.333336
3.9042795 0.71819168 0.6202935 74
3.8868864 0.84745926 0.73342502 66
3.8828523 0.9334228 0.63868022 78
3.8641951 1.1412258 0.67005128 78
3.8461955 1.3414252 0.71042806 74.5
3.8474605 1.3731382 0.67995793 76.5
3.836581 1.5682771 0.66687524 36.5
3.8064134 2.3155215 0.67178631 69
3.8187726 2.4807317 0.62339258 7
1.6486044 -1.3672823 0.75624382 22
1.6539364 -1.3658699 0.838449 34.333332
1.6482555 -1.2524856 0.80635965 50
-2.2568817 -0.60687405 0.85316133 5
3.9922798 -0.62379074 0.78340232 62
-2.2610428 -0.53277546 0.79983687 22
-2.2282269 -0.53465444 0.83000946 22
3.9920743 -0.57289058 0.89553368 61
-2.3068628 -0.44049188 0.87127495 5.3333335
3.9882431 -0.40401769 0.86736929 59.5
3.9709332 -0.21140179 0.83493382 63.5
3.9563653 -0.043305147 0.81132245 59
-1.0831906 0.071569018 0.78727454 3.4285715
-1.0214487 0.1003207 0.7845645 2
3.9482663 0.073642433 0.80459112 64.5
-1.0783129 0.26513001 0.81003314 18.5
-1.0216018 0.21159983 0.79220849 6.3333335
3.9365418 0.18961519 0.80393267 63
3.9216943 0.3574416 0.79566836 62.5
3.8991764 0.56692511 0.81071723 64
3.9062765 0.5272916 0.7897743 64
3.8846533 0.71898282 0.79931617 67
3.8904674 0.75808781 0.83020341 65
3.8756609 0.96740812 0.81670636 69.666664
3.8660629 1.1300983 0.87681454 67
3.8577254 1.2715663 0.85456508 69.5
3.8480937 1.4195595 0.8610096 74
3.8433497 1.5678028 0.80213273 51
3.8095343 2.1686127 0.78575754 73.5
3.8123868 2.2697973 0.7671653 67
3.7967756 2.4817617 0.87302297 40.5
-0.84493148 3.3695779 0.84735405 40.5
-0.6936779 3.3792596 0.84843612 21.5
1.6111294 3.5257893 0.87949711 21.333334
1.719557 3.5372043 0.84964001 32
3.9986885 -0.62171191 0.91681218 67
-2.2205901 -0.53784966 0.91451597 1
3.9527118 -0.020526215 1.0412008 60
3.946439 0.098470084 1.0408525 59
3.9350069 0.21150197 1.0304773 60
3.9125209 0.38439864 1.0242364 59
3.8978369 0.5017615 1.0088857 59
3.8962591 0.64723921 1.0329893 60.5
3.8801186 0.86083323 1.030584 61
3.8527157 1.345155 0.94578016 71
12.148787 1.4469151 1.0075891 1
3.8452234 1.5661244 0.96232843 67.333336
3.8036568 2.2870216 0.9328329 66
3.7967281 2.4773827 0.97690535 66
3.7958777 2.5888455 1.0481575 66
3.7896845 2.8070493 1.0303856 1
-1.1028013 3.3503802 1.0205696 43
-0.96216559 3.3634052 0.99417078 39.5
-0.83973163 3.3647346 0.96847355 41.5
-0.65892184 3.3731315 0.96148348 44
-0.18820564 3.4207184 1.0419405 39
-0.076158777 3.4276283 1.0201057 26.666666
0.03628869 3.4331574 1.0190647 2
4.0050907 -0.66557485 1.1571774 62
3.9868195 -0.5453245 1.1347442 62
3.9844627 -0.39792696 1.0972962 60.5
3.9721837 -0.22212252 1.0687485 61
3.9667108 -0.07489074 1.0536509 60
3.8866141 0.78765637 1.0672258 61
3.8757057 1.0060133 1.0749049 61.5
3.8655751 1.1441954 1.1277946 64
3.8618405 1.2826748 1.130687 63.5
3.8454535 1.4278222 1.1279188 67
3.8371437 1.6296335 1.181772 68
3.8311942 1.7588519 1.0793282 49
3.8184903 2.0040491 1.1205726 69.5
12.113663 2.0641026 1.070367 1
3.8045104 2.185267 1.1931663 63
3.805301 2.2729287 1.104795 65.666664
3.7996647 2.515898 1.0835807 63
3.7828372 2.6157997 1.1283 62
3.7690103 2.8090336 1.1318094 17
-1.2112316 3.3584263 1.1979251 41
-1.0817807 3.3560336 1.1489638 39.5
-0.98709905 3.3664622 1.0957797 43
-0.84958303 3.367779 1.1216333 47
-0.24239093 3.4160447 1.165413 40.25
-0.087693073 3.4169688 1.110692 37.5
3.849839 1.5174826 1.2260501 66
3.8356082 1.7091607 1.2877972 68
3.8334339 1.8407973 1.2489367 69
3.8155057 2.0557392 1.3236059 70
3.802552 2.1931489 1.262555 62
3.7937281 2.4705677 1.2635815 64
3.7783298 2.7918019 1.2727175 66
3.767771 2.9045188 1.2181604 59
-1.2345061 3.3513174 1.2869792 28
-1.0443592 3.3554943 1.2882625 47
-0.49997267 3.3963408 1.2887341 44
-0.38063177 3.4140685 1.2861339 32
-0.28073025 3.4071038 1.256919 41
-0.091979995 3.4233189 1.23131 42
1.740875 3.5346408 1.2831086 2
4.1362357 -3.2259355 1.4099612 52
-2.3145335 1.0656738 1.4326785 0
3.8241036 1.9091029 1.3617167 70
3.8163531 2.1183624 1.4494914 69
3.7969272 2.2779195 1.4125561 72
3.7932565 2.4268191 1.3787788 64
3.7712452 2.6657178 1.4274817 61
-4.1549764 2.8129792 1.479805 78
3.7789917 2.7405374 1.3763824 61
-4.18436 3.2848847 1.4500438 27
-0.71271664 3.3834176 1.4536166 45
-0.50997794 3.4070792 1.4117935 33.799999
-0.27072015 3.410852 1.3803793 42
0.37232628 3.4615111 1.4334018 36
0.47469935 3.4603546 1.4349905 25
1.5897292 3.527386 1.4749354 2
4.1867752 -4.1462836 1.5401907 16
-3.7610927 -3.8523865 1.580304 1
4.1670103 -3.5589836 1.6490935 41
-3.7886348 -3.3664179 1.5930854 18
4.1451235 -3.1848407 1.5804347 36
-3.8004591 -2.9186933 1.5958446 75
-3.8209391 -2.5187631 1.601474 72
-3.8456039 -2.1509454 1.607489 90
-3.8718894 -1.8071628 1.6143014 94
-3.8930113 -1.4773823 1.6159707 97
-3.9159789 -1.1626422 1.6182245 98
-3.9529254 -0.55315459 1.6141658 51
-3.9750431 -0.25753695 1.611833 7
3.7995427 2.3325498 1.547443 66
3.7749841 2.5304551 1.5853963 39
3.4491162 2.5707581 1.6244513 46
3.7767007 2.6654902 1.5097554 63
-4.1446676 2.8290808 1.5659407 81
3.7597649 2.7601478 1.6410228 60
-4.1537828 2.898993 1.6420463 68
3.7638388 2.9484012 1.5573409 54.5
-0.93148166 3.3799119 1.6385874 47
-0.7675336 3.4027715 1.5959159 42
-0.67590475 3.3979473 1.5720584 42.400002
-0.45098051 3.4128058 1.5476661 43
0.14925523 3.4548614 1.6083493 38
0.26535225 3.4575877 1.580552 39.75
0.36304086 3.4687858 1.5691618 39
0.45932862 3.4644871 1.5856826 39.5
1.7020042 3.5256157 1.5710971 12.5
-4.2212434 3.8566728 1.5140857 2
4.1647954 -4.5099053 1.794855 28
-3.7283149 -4.1988187 1.7500254 71
-3.7490959 -3.9230173 1.7056521 86
-3.7524948 -3.8958807 1.7510549 84
-3.7571476 -3.6828973 1.7612721 74
3.835779 -3.6022992 1.7406203 55
3.8267787 -3.5586767 1.7894269 65
4.1584282 -3.5086579 1.7177753 30.5
-3.7749333 -3.4086316 1.7308562 81.5
-3.7790978 -3.2159479 1.7676519 74
3.8261383 -3.2540104 1.738372 46.333332
4.1303315 -3.2355523 1.7067555 12
3.7999246 -3.0499148 1.7941118 68
-3.8025303 -2.9648886 1.7354116 74.5
-3.802748 -2.7963724 1.7755402 74
-3.8187675 -2.5664899 1.7127823 76
-3.8273702 -2.4771125 1.7701775 77.5
-3.8413517 -2.1751711 1.7344339 83
-3.8502889 -2.0527444 1.7849246 84
-3.8640842 -1.8234363 1.7358333 87.5
-3.8744371 -1.7149634 1.7894148 82
-3.8862455 -1.5052396 1.7138375 101
-3.8945189 -1.4342465 1.7763122 92.5
-3.905781 -1.1674857 1.7344962 100
-3.9519186 -0.52648646 1.749421 18
-1.541103 1.4137839 1.7976204 94
-0.058051068 1.8214722 1.7954134 74
0.0039236071 1.8050759 1.7997481 76
-0.81744027 2.006424 1.7992378 63
0.11043793 2.0178709 1.7958156 68.5
0.23238052 2.0920384 1.799503 64
0.45246601 2.075995 1.7998532 62
-0.77823806 2.1909537 1.7959447 58.5
-0.74305451 2.1609554 1.7983516 59
-0.21354491 2.1696451 1.7967906 57.333332
0.2407639 2.1457601 1.7955577 68
0.34062225 2.2173862 1.7941439 63.5
0.57074177 2.1594257 1.7914857 58
0.63803762 2.2398362 1.7995492 61
-0.67718136 2.3115978 1.7949766 57.5
-0.084375642 2.3327181 1.7963347 60.666668
0.38563475 2.275022 1.7950249 68
0.49766803 2.3635902 1.7912105 62.666668
0.69064897 2.2846627 1.7972591 63
0.81631219 2.3568172 1.7905407 61
-1.2429622 2.5381103 1.7849997 43
-0.62235624 2.482636 1.7934426 56.333332
-0.56038612 2.5416794 1.7848302 51
0.058858566 2.4945114 1.791423 59.75
0.57401836 2.4209421 1.7873741 61
0.6658932 2.4929936 1.7860451 58
0.97629827 2.4447727 1.7883019 56
1.1077352 2.5334363 1.7835574 52.666668
-1.9500164 2.6342123 1.7991463 75
-1.4013031 2.6896758 1.7995421 70
-1.2188649 2.6408584 1.7900869 58
-0.50743157 2.6434357 1.7865287 54.333332
-0.40284237 2.6144958 1.7851619 56
0.19644116 2.6344917 1.7753593 58.666668
0.74884731 2.5583899 1.7802824 62
0.82939076 2.5779877 1.779542 57.5
0.96945912 2.6945486 1.7747263 53.5
1.0544395 2.6983225 1.7787718 58
1.2662311 2.6235342 1.781974 51.666668
1.4028358 2.6309476 1.7850155 47
-2.6819873 2.8118298 1.799513 1
-1.1620426 2.7622392 1.7875713 65.75
-0.49511898 2.8025794 1.788731 57.5
-0.39554691 2.7913618 1.7602814 41
-0.2460041 2.7293947 1.7524654 33
0.27689189 2.7283292 1.7787732 58
0.36349353 2.7865813 1.7782402 61
0.88861662 2.7069628 1.7758631 59
1.1586969 2.8428783 1.7683307 51
1.2368566 2.8070016 1.7754748 50.5
1.4944016 2.8117907 1.7807254 54
1.569461 2.7447045 1.7803792 23.5
3.169167 2.8399553 1.7722787 41
3.4320462 2.799562 1.7621354 67
-4.1621532 2.9359953 1.6743745 77
-1.2814963 2.97844 1.7936012 68
-1.1505342 2.8935714 1.7871921 68
-0.92853308 2.9495935 1.7960449 68
-0.31635961 2.9462612 1.7769181 50.5
-0.27250832 2.9252625 1.7745055 56.5
-0.09115237 2.9867742 1.782638 63
0.400419 2.8935204 1.7731036 58
0.52629048 2.9434662 1.7737876 56.666668
1.109689 2.8766658 1.7719487 50
1.4496846 2.9505444 1.7765087 49
1.7306619 2.9837155 1.7703859 2
3.7496369 2.9071436 1.6544324 18
-3.9048164 3.1475687 1.7817038 18
-3.6830432 3.1295867 1.7990292 3
-1.0782464 3.0069866 1.7780513 66.5
-1.0120242 3.0834317 1.7847269 68
-0.34735367 3.0879931 1.7819499 60
-0.21981382 3.0854745 1.7703061 60.5
-0.10763481 3.100414 1.7804688 62
0.67502671 3.1179497 1.7666215 54.333332
0.8041169 3.1350133 1.7701794 52
1.3645959 3.0623286 1.773554 50
1.6864693 3.1040888 1.7689675 25
-3.5134499 3.2000771 1.7987303 1
-1.1023121 3.2341585 1.7919966 55.5
-0.97820151 3.1980717 1.772487 60
-0.79625875 3.2166033 1.7889432 71
-0.15687039 3.1711116 1.766374 58
-0.079235606 3.2475197 1.7709342 58
0.084002778 3.2127545 1.777335 63
1.6490167 3.2426441 1.7675117 50
-4.2055492 3.4417377 1.6618189 19
-4.167253 3.4358344 1.7564071 1
-0.94529635 3.3194976 1.77318 54
-0.85835493 3.3720863 1.732482 29
-0.632837 3.3906426 1.7121733 40
-0.093162388 3.3674068 1.7685341 48
0.074543022 3.4159169 1.7362192 24.200001
0.28048664 3.4379551 1.7608343 6
0.86151725 3.3695588 1.7685441 49
0.98145849 3.321965 1.7684106 49.666668
1.5214725 3.39449 1.7991961 50
0.22617435 3.4510236 1.695524 34
1.3045429 3.4760189 1.7662984 1
1.5499065 3.723429 1.7632278 50
1.5127633 3.8063693 1.7533084 51
1.4767851 3.9065099 1.7551278 48
0.85965675 4.2223506 1.7871283 9
1.0834669 4.314661 1.7523907 51
1.8662665 4.2146664 1.7519816 11
1.009389 4.3796329 1.7385753 25
1.1758282 4.4757338 1.7465972 46
1.2837093 4.7055683 1.7372483 47
1.4096239 4.6936512 1.742924 51.5
1.2189063 4.8330336 1.7186567 43
1.3874595 4.8597999 1.7463132 42
1.5678915 4.8347821 1.742602 43
1.7400666 5.0318069 1.730894 35
1.8669283 5.044549 1.7360729 38
1.7165573 5.1601105 1.7176496 34
1.8470218 5.2222152 1.7347299 34
2.0207465 5.2120261 1.7299896 36
1.6664343 5.2927198 1.7071382 34
1.6079465 5.4350886 1.7069212 32
2.1952324 5.4021912 1.7323962 35
2.3108883 5.4509134 1.7174045 46.5
2.2153096 5.5948524 1.701332 36
2.3831239 5.6194777 1.7263924 29
2.5493045 5.6198854 1.7118264 3
2.205086 5.8125629 1.6925691 28
2.1866345 6.0501928 1.6918992 31
2.8196542 6.0995784 1.6866256 8
0.98808342 -4.9662228 1.9046675 30
1.4619956 -4.9718413 1.9132887 13
1.595538 -5.0791855 1.9099585 13
-3.6639395 -4.8263273 1.8795949 29.5
1.1160234 -4.9188123 1.9099129 36
1.2557008 -4.89358 1.9101943 36.5
1.4599451 -4.802453 1.8979002 13
3.5229254 -4.8247328 1.8854029 2.5
3.6865761 -4.9051657 1.8722245 28
3.9374979 -4.8693905 1.8175186 20
-3.659081 -4.5448256 1.9258093 35
-3.2367065 -4.552938 1.9464308 15
-2.9168777 -4.5034342 1.9493655 11
0.74930638 -4.5808859 1.9258138 11
1.1613768 -4.6261964 1.8988222 38
1.3513771 -4.5829787 1.8921806 12
-3.3977678 -4.4431276 1.9420067 33
0.87207091 -4.4822693 1.9067456 31.5
0.96013182 -4.4637237 1.9048682 52
1.0701013 -4.4184422 1.8884557 37
3.7619879 -4.4911795 1.8777498 27
-3.7064128 -4.2407274 1.8900064 65
-3.0633166 -4.2721095 1.9422599 19
0.99415666 -4.253242 1.8830112 2
3.2500176 -4.3027644 1.879043 31
-3.1614821 -4.1383305 1.9425195 19
2.5933976 -4.1836648 1.881467 28
2.7848861 -4.1064243 1.8738962 34
-3.7230139 -4.0163231 1.9296113 75
-3.2865357 -3.9905 1.9381825 18.5
-2.983815 -3.9642539 1.9349805 18
-2.7139971 -3.9646678 1.9300205 17
1.5989594 -3.9215724 1.8657812 42
1.7160773 -3.9103918 1.8894361 38
1.943471 -3.9372773 1.886654 30
2.1656165 -3.9464598 1.875867 23
2.3751395 -3.919754 1.8717674 27
-3.444025 -3.8901079 1.9326533 51
1.7184989 -3.868978 1.8675765 55.5
1.8196347 -3.8588293 1.8727947 52
-3.7577202 -3.7422659 1.8572477 77
-3.7316158 -3.7071941 1.9409331 76
-3.4124069 -3.71645 1.9328874 51
-3.173099 -3.6117611 1.9239281 52
-3.099911 -3.7239974 1.9255735 27
-2.4475358 -3.6387129 1.9002451 22
1.3494349 -3.6858037 1.873511 18
1.4276217 -3.6414135 1.878512 39.333332
1.5803224 -3.6943955 1.8894595 43
1.7990334 -3.734678 1.8784834 54
2.0133548 -3.7468936 1.8739878 50
3.5425656 -3.6474736 1.8438393 32
-3.6997366 -3.4919963 1.9344949 65
-3.4788482 -3.5684817 1.9413691 54.5
-3.3198376 -3.4858463 1.9233692 48
-3.0432153 -3.4946277 1.92586 45
-2.7856519 -3.5173082 1.9235607 60
-2.5624237 -3.5406306 1.932525 61
-2.5263009 -3.5423684 1.9061743 55
1.1444269 -3.4619288 1.8784505 6
1.2604678 -3.4596405 1.8875109 12
1.4694802 -3.5222142 1.8740727 48
1.6913916 -3.5840199 1.8808588 55
3.1057925 -3.518625 1.8487805 37
3.3994513 -3.4912519 1.8387041 33
3.8369467 -3.5709517 1.8356477 58
-3.4875917 -3.4049711 1.9268392 38
-2.6094582 -3.4404087 1.9016081 47
-2.4416451 -3.3223453 1.9094095 57
1.1811768 -3.3319876 1.8768433 15
1.2093165 -3.4382908 1.8770884 27
1.3909758 -3.4078965 1.8770455 53
2.7150364 -3.3856101 1.8519739 43
2.9484437 -3.3526907 1.8368068 37.666668
3.2606316 -3.3652248 1.8364099 29.5
3.6577559 -3.4040146 1.8346927 31
-3.76493 -3.2479291 1.8970642 72.5
-3.4484575 -3.2670887 1.9310025 49
-3.1915698 -3.2338207 1.9272393 58.5
-3.0819376 -3.2714601 1.9210037 58
-2.6289551 -3.1541507 1.9272708 60
-2.5131493 -3.2310348 1.899995 51
1.1215982 -3.240344 1.8757375 16
2.2092531 -3.1815367 1.8541354 44
2.3101995 -3.2089357 1.855188 44.333332
2.5288117 -3.2182875 1.8384839 44.5
2.6032524 -3.2750254 1.845974 37.5
2.8679724 -3.2997501 1.8422061 37
3.0235229 -3.1756616 1.829497 36
3.433444 -3.2695129 1.8285609 32
-3.7580795 -3.0677083 1.933549 69
-3.6637893 -3.0155656 1.9312831 63
-3.4853573 -3.1193917 1.937628 49.5
-3.3654518 -3.0551717 1.9234916 60.5
-3.0983245 -3.076848 1.9205364 58
-2.8428733 -3.1106889 1.9128507 55
-2.6382031 -3.0914767 1.8980839 54
1.6193452 -3.0016892 1.8555371 52
1.9021788 -3.0944712 1.8525332 54
2.0100424 -3.1035221 1.8635381 36
2.186902 -3.0584741 1.841184 50
2.6528535 -3.0738668 1.8293835 41
3.1005971 -3.0107534 1.824253 36
3.3117523 -3.01896 1.8546232 18
3.4535272 -3.0500875 1.8178583 36
3.7057076 -3.073076 1.8402228 40.5
-3.5043206 -2.9157109 1.9252976 53
-3.2174101 -2.9021103 1.9310859 60
-3.0953441 -2.8646126 1.9169873 56
-2.5672691 -2.8621373 1.8987833 48
-2.5037284 -2.9393427 1.9018162 53.5
-2.2894433 -2.9817352 1.9031523 63
0.8730976 -2.9028533 1.8547288 33
0.99645978 -2.8902926 1.841195 51
1.1787381 -2.9648721 1.8419522 54
1.3834757 -2.8802423 1.8542876 52
1.7212187 -2.973362 1.8562366 50
1.8622692 -2.9006958 1.8330556 49
2.0140054 -2.8569939 1.8282181 46
2.3344045 -2.9857647 1.841499 45
2.4626398 -2.8957105 1.8319672 46
2.7598493 -2.9482796 1.8222905 38
2.9167247 -2.9202323 1.8446902 42.5
3.4568775 -2.869513 1.8495878 36
-3.7840214 -2.8171339 1.8943088 72.5
-3.5147285 -2.7293766 1.9363495 53
-3.2147937 -2.7635643 1.9097134 55
-2.8974559 -2.7478945 1.9090894 52
-2.6671271 -2.7843218 1.905755 54
-2.17851 -2.7129176 1.897143 62
0.70086688 -2.7097921 1.8496765 24
0.80141264 -2.7709608 1.8440959 36
0.95337278 -2.832433 1.8406576 65
1.1421654 -2.7674441 1.8525705 54.5
1.2580466 -2.7169251 1.853529 54.5
1.4677814 -2.8405652 1.8534912 49
1.5463465 -2.8010564 1.8447657 53
1.7473803 -2.7535005 1.83664 49
1.9008775 -2.7288618 1.8266586 47
2.162816 -2.8063774 1.8225986 47
2.281286 -2.7347782 1.8410597 49.333332
2.5179558 -2.7417521 1.833482 46.5
2.5688694 -2.8217449 1.8396401 42
2.8181498 -2.7943649 1.840574 43
3.0885639 -2.8004711 1.8392386 39
3.2736962 -2.7072785 1.8452986 38
3.4022536 -2.8038211 1.8302684 35.5
-3.768996 -2.655741 1.9301943 64
-3.6746135 -2.6125681 1.9288837 61
-3.5120866 -2.6339879 1.9220995 50
-3.3937392 -2.6508317 1.9141014 59
-3.1469395 -2.6978893 1.917152 56
-2.7457476 -2.6825366 1.8889924 55
-2.571146 -2.5857055 1.8995351 57
-2.5471082 -2.6035407 1.8974818 57
-2.3731768 -2.6566739 1.9017607 47
-1.9144512 -2.5739946 1.869916 38
0.57498264 -2.5939827 1.8491679 18.5
0.64929748 -2.6048689 1.8584753 27
0.88250893 -2.6706057 1.8521913 61
0.99254549 -2.6192343 1.8532271 56
1.0753361 -2.5885599 1.8554071 76
1.3312045 -2.6119909 1.8304583 62
1.4949042 -2.6328988 1.832193 52
1.586025 -2.5608363 1.8249511 50
1.7096782 -2.6021457 1.8423342 46.5
1.8605641 -2.5913014 1.8419201 47
2.000572 -2.638447 1.8480233 48.5
2.149018 -2.6001418 1.8505007 46.25
2.3489969 -2.5913115 1.8498303 46
2.4061432 -2.6422782 1.8466057 46
2.6557989 -2.6550844 1.8423251 43
2.808485 -2.5705984 1.8338953 42
2.9146061 -2.6446326 1.8432925 39.5
3.1207275 -2.5823803 1.8415165 35.5
-3.8049569 -2.4248645 1.8936197 74
-3.5040314 -2.4811008 1.923174 56
-3.2420549 -2.4722824 1.9173154 56.5
-3.1041622 -2.4967501 1.9104918 64
-2.9501395 -2.4180248 1.9076248 76
-2.713613 -2.4509604 1.8965094 60
-2.6100895 -2.5211246 1.892706 58
-2.2513561 -2.4187806 1.8897129 72
-2.0414414 -2.4870596 1.8826396 69
0.41298571 -2.4716175 1.8548361 4.3333335
0.47390288 -2.4901609 1.8611609 6
0.82826829 -2.490881 1.8559746 57.333332
1.1197158 -2.4336834 1.8318815 59.333332
1.2435217 -2.4862938 1.8290642 52
1.4354134 -2.4607806 1.8405561 53.599998
1.5882926 -2.4733717 1.8547868 50.5
1.6899875 -2.4750504 1.8469505 48.25
1.8514627 -2.477885 1.8427582 45
2.0420041 -2.4699063 1.839851 45
2.1958795 -2.4209535 1.8405727 48
2.2789159 -2.5100713 1.8352839 44
2.4759772 -2.4850662 1.8329815 46
2.6506872 -2.4236 1.8315881 42
2.895772 -2.4133255 1.8323818 41
-3.7685094 -2.2717121 1.918245 63
-3.4897075 -2.3418827 1.9238853 53.5
-3.4184484 -2.2798829 1.9060884 59
-3.1868331 -2.3427913 1.9102062 57
-2.7997763 -2.3478143 1.8820578 63
-2.5962958 -2.2666512 1.8854672 63
-2.4336674 -2.3413255 1.8881303 64
-1.9884291 -2.3002808 1.8716394 65
-1.8891799 -2.3384128 1.8831862 62
-1.4668385 -2.253695 1.8791779 10
0.26325259 -2.3294518 1.8536787 0
0.40427256 -2.2777667 1.8528663 26
0.53658038 -2.3268256 1.8565254 53
0.68918216 -2.3574066 1.8563846 57
0.85643268 -2.2814362 1.8416899 42.333332
0.99134004 -2.3355858 1.8363408 54.75
1.1132011 -2.2598054 1.8594199 59
1.2791778 -2.3395672 1.8533208 57.599998
1.4228497 -2.3201652 1.8403149 52.25
1.5739858 -2.3334184 1.83415 52
1.7578046 -2.3592045 1.8358113 49
1.974297 -2.3966053 1.8405677 47
-3.675271 -2.2345085 1.9197694 57
-3.5588672 -2.1666865 1.9126817 58
-3.2590632 -2.1960976 1.9101819 61
-3.1122231 -2.160866 1.9048699 58
-2.9945319 -2.1070006 1.9038874 70
-2.7575366 -2.145494 1.8908361 63.5
-2.6375661 -2.2009754 1.8788728 56
-2.3162482 -2.1443257 1.8851355 68
-2.1461751 -2.2110574 1.8882188 74
-2.0297754 -2.1662047 1.8706464 61
-1.7721514 -2.1263654 1.8825969 58
-1.6189151 -2.2054529 1.8851668 64
-1.4011669 -2.193773 1.8742402 55.5
-1.2851601 -2.1861427 1.8704385 21
0.12697677 -2.1774414 1.8465384 0
0.24877162 -2.1557517 1.8509208 18
0.38732794 -2.1225896 1.8564693 60.5
0.5665015 -2.2255042 1.8572022 73
0.69512105 -2.1733403 1.8385203 50.400002
0.87460828 -2.2083783 1.8608395 44.5
0.99235582 -2.1537161 1.8497217 59.25
1.1170892 -2.1850569 1.8435887 55
1.2300239 -2.2305288 1.8427447 51
-3.8215656 -2.0589371 1.8901852 72.5
-3.4912047 -1.9998556 1.9152298 55
-3.4164169 -1.9601082 1.8978323 59
-3.2351906 -2.0403688 1.9019061 58.5
-2.8501785 -2.0368855 1.878672 61
-2.6390648 -1.974071 1.884475 57.5
-2.4946947 -2.0557547 1.884281 65
-2.1811581 -1.9662893 1.8776451 58
-2.0494399 -2.040596 1.8709745 55.5
-1.9320372 -2.0393977 1.8828031 63
-1.6984433 -1.9814408 1.8809053 44
-1.5305107 -2.0040262 1.8747094 45
-1.4195849 -1.9961662 1.8708974 42
-1.1649172 -1.9887835 1.8853317 15
-0.015339185 -2.047848 1.853943 1.5
0.060040817 -2.0415988 1.8549751 8.5
0.25517467 -2.0054936 1.8530446 57
0.39082122 -1.9647403 1.8376515 66.5
0.54578394 -2.0554652 1.837492 62.333332
0.69514859 -2.0153081 1.8459595 62.5
0.81005532 -2.0350072 1.8468212 61.666668
0.92208046 -2.0742443 1.849067 61.5
-3.779217 -1.9208348 1.9124085 66
-3.6478596 -1.8705742 1.907267 60
-3.4682801 -1.9146556 1.9018935 59
-3.2907023 -1.889392 1.911074 62
-3.0725586 -1.8293753 1.8965489 62.5
-2.7953739 -1.8603482 1.8851 61.5
-2.6743877 -1.9156277 1.8797432 51
-2.3715847 -1.883673 1.8784944 47
-2.0469885 -1.8423709 1.8732331 41
-1.8514311 -1.8942714 1.8826548 38
-1.6278571 -1.8465627 1.8815192 27
-1.4521755 -1.8017319 1.8741473 17
-1.2853038 -1.858862 1.887192 14.5
-0.099314854 -1.9073275 1.852268 9.25
0.088747755 -1.903722 1.8526741 46
0.24060228 -1.8692001 1.8437338 70
0.38974795 -1.8669137 1.844546 66.833336
0.54504442 -1.8905252 1.8461999 69.25
0.64603519 -1.8960332 1.8452387 67
-3.8463876 -1.7172593 1.8909495 77.5
-3.5126259 -1.7234659 1.9093238 55.666668
-3.2609611 -1.7308571 1.8987222 59.5
-2.8902533 -1.740832 1.8727599 61
-2.7313502 -1.6744888 1.8822898 64
-2.5815938 -1.7515714 1.8802528 48.5
-2.265636 -1.7338299 1.8843645 35
-2.1744401 -1.7444584 1.8681595 35.5
-2.004132 -1.7941366 1.8814338 40
-1.9224348 -1.6739146 1.8861431 17
-1.768025 -1.7651992 1.8753334 24
-1.5582429 -1.7623302 1.8684542 17
-1.4407732 -1.7516716 1.8763129 7.5
-0.37942025 -1.6718675 1.8523998 21
-0.23609875 -1.7446083 1.8513759 24.5
-0.057900414 -1.7129904 1.8489755 62
0.092867635 -1.7472827 1.8394991 75
0.21022302 -1.7174177 1.8411247 75
0.37693164 -1.7138764 1.8481647 76.833336
0.50405157 -1.7769771 1.8437929 65.5
-3.7849634 -1.5879329 1.9029044 70
-3.6645546 -1.5438964 1.9014627 60.5
-3.4966831 -1.5892032 1.8993057 55
-3.3777146 -1.6192123 1.900545 62.5
-3.0897496 -1.5437963 1.8887521 50.5
-2.8523967 -1.6244521 1.8890496 52
-2.8034191 -1.5518252 1.8673276 40
-2.64886 -1.5856667 1.8775977 34.5
-2.4335518 -1.6459655 1.8851336 29
-2.3201196 -1.5130363 1.885619 14
-2.1496301 -1.564237 1.8699136 17
-2.0662262 -1.5966293 1.8788071 15
-1.840497 -1.5687853 1.8852695 0
-0.73022634 -1.5256838 1.8624805 6
-0.52582943 -1.5537381 1.8536482 31.333334
-0.38134092 -1.5564735 1.8513231 57.25
-0.26192066 -1.5893841 1.8535651 57
-0.077026546 -1.5533781 1.845451 77.333336
0.078301825 -1.5826055 1.8436691 76
0.20979197 -1.5814559 1.8464419 75.800003
0.30229825 -1.5666921 1.839682 91
-3.8645153 -1.3910182 1.8880024 85
-3.5241864 -1.4216528 1.9032865 50
-3.278893 -1.433795 1.891693 53
-2.9159756 -1.4205408 1.8826936 39
-2.7483072 -1.394084 1.8758475 33.5
-2.6372027 -1.4684788 1.8808936 33
-2.4847572 -1.4120851 1.886238 10
-2.2698295 -1.4844637 1.8722504 11
-0.83638608 -1.4259067 1.8588018 9.5
-0.67385304 -1.4382318 1.8586298 37
-0.54140526 -1.4068482 1.8502109 59.75
-0.35864621 -1.4394486 1.849533 60
-0.20844026 -1.4222088 1.845237 61
-0.076615401 -1.4161066 1.8442426 62.166668
0.073368184 -1.4310603 1.8426911 77.833336
0.21122016 -1.4720055 1.8412997 90
-3.7916646 -1.2720627 1.8934921 64
-3.6814003 -1.2331913 1.8962842 50
-3.5200784 -1.2715373 1.8935971 49.333332
-3.3422258 -1.3184068 1.9037508 49
-3.1081171 -1.2725017 1.884535 36
-2.8366234 -1.2924533 1.8680831 21
-2.6467228 -1.2830983 1.8842221 7
-1.0770339 -1.2375038 1.857772 8
-0.94431978 -1.3220206 1.8655633 7
-0.87543297 -1.2552733 1.8603925 18
-0.66612554 -1.2982944 1.8554231 31.25
-0.51693559 -1.2645489 1.8527564 35
-0.36012471 -1.2847775 1.85071 27
-0.21717337 -1.2681166 1.8452604 23.142857
-0.067558952 -1.2754768 1.8487822 22.666666
0.053809773 -1.2889471 1.8482362 25
-3.511374 -1.1000354 1.897245 33
-3.310122 -1.1270202 1.8907903 33
-3.2834678 -1.175886 1.882574 34
-2.9511809 -1.1636016 1.8807749 12.5
-1.5192151 -1.0777934 1.8678178 5
-1.3842504 -1.1836132 1.8522407 0
-1.2762313 -1.1171646 1.8588171 13.666667
-1.1454222 -1.0968986 1.8593397 31
-0.97221255 -1.1472623 1.8558791 55.5
-0.82014912 -1.1077796 1.8552495 84.666664
-0.68075657 -1.1418147 1.8490031 84
-0.50481135 -1.1073518 1.8457924 77.5
-0.35788846 -1.126773 1.8375741 51.42857
-0.2378937 -1.1340595 1.8370062 46
-0.093654096 -1.1395901 1.8460209 46.75
-3.5326118 -0.97686154 1.8836135 18.666666
-3.3290117 -0.9774648 1.8873798 8
-3.1310804 -1.0055676 1.887343 5
-1.8995318 -0.92617726 1.8710386 4
-1.6041566 -0.92947698 1.8634536 21.5
-1.4033484 -1.0093375 1.8628467 31.5
-1.2741801 -0.95753795 1.8591908 51.666668
-1.1432068 -0.97209793 1.8588514 69
-0.95305908 -0.97217596 1.8590602 87.5
-0.80875224 -0.959225 1.8514675 98.333336
-0.67477643 -0.98219472 1.8485454 87.199997
-0.5290255 -0.96791267 1.8379688 71.571426
-0.37801906 -0.98749769 1.8361369 53.875
-0.21967128 -0.97818184 1.8352213 45.599998
-0.13222744 -1.0129352 1.8323156 41
-3.5266988 -0.80941701 1.8986601 3.6666667
-2.0188093 -0.79130322 1.8617231 11
-1.885782 -0.76834643 1.8584658 23.5
-1.713425 -0.81939942 1.8557649 29.333334
-1.6417949 -0.88096917 1.8592185 25
-1.4255813 -0.83750111 1.8598323 59.333332
-1.2675714 -0.80273479 1.8586892 78.333336
-1.1598434 -0.81779146 1.8590789 85.333336
-0.96952397 -0.82058567 1.8559297 88.333336
-0.81975478 -0.82383811 1.8426386 81.400002
-0.65984291 -0.82661492 1.8451375 77.125
-0.52206397 -0.81653541 1.8396763 72
-0.37326714 -0.82904011 1.8393372 61.142857
-0.26050749 -0.81850433 1.8371991 55.333332
-3.8367889 -0.68169171 1.8930777 7
-3.7414026 -0.67611837 1.9077443 5
-2.177758 -0.64429635 1.8606662 18
-2.0557837 -0.60811609 1.8638116 40
-1.8669958 -0.60324335 1.8519377 57
-1.7265953 -0.68787003 1.8582314 54
-1.5663096 -0.72892404 1.8609179 63.5
-1.4347274 -0.67162609 1.8620826 77.5
-1.2662919 -0.65054291 1.8596464 81
-1.0850805 -0.73053241 1.8565515 90
-0.96256822 -0.67695111 1.846414 84.333336
-0.83252418 -0.66981381 1.8440548 82.75
-0.68125492 -0.66097385 1.8386854 80.333336
-0.54325587 -0.68813896 1.8372335 81.166664
-0.39360264 -0.65666229 1.8373977 72.5
-3.9440563 -0.48695478 1.8648444 6
-2.6115856 -0.52029723 1.8612167 3
-2.5043497 -0.47350749 1.8649613 12
-2.2893503 -0.46849096 1.853276 37
-2.2347183 -0.54964632 1.8499759 26
-1.9690354 -0.57993007 1.8612069 60
-1.8139402 -0.4788835 1.8546845 71
-1.7143399 -0.5595898 1.8586994 75.666664
-1.6028987 -0.5692932 1.862244 72.5
-1.4340798 -0.52032262 1.8601667 76
-1.2726855 -0.50589323 1.856115 86
-1.113506 -0.51456559 1.847712 70.333336
-0.99893838 -0.55319339 1.8445104 75.666664
-0.81515872 -0.5344308 1.8417608 80.714287
-0.69218808 -0.51829952 1.8371078 78.428574
-0.53152263 -0.53078777 1.8366884 77.75
-0.37679568 -0.54182667 1.8371462 72.666664
-2.8952868 -0.31415686 1.8380359 0
-2.7543857 -0.34171686 1.8643159 10
-2.6500425 -0.32211483 1.8527849 23.5
-2.4217434 -0.3750113 1.8472852 43
-2.2521443 -0.35885471 1.8545443 58
-2.1688075 -0.43644327 1.8577155 57.5
-2.037802 -0.41619 1.8556538 77.5
-1.8612952 -0.36497945 1.85252 78
-1.7252185 -0.4002367 1.8719673 51.25
-1.5547366 -0.41100812 1.8609771 78.5
-1.4268328 -0.35205224 1.8518786 89
-1.2934819 -0.3653602 1.854044 92.25
-1.1377926 -0.34824789 1.846647 76.5
-0.97223967 -0.37613812 1.840202 79.5
-0.80855185 -0.38408077 1.8361303 80.875
-0.68249828 -0.36818078 1.8350443 77.333336
-0.51626384 -0.38068286 1.8450072 64.714287
-0.3947987 -0.39247781 1.8381594 77.5
-3.0460205 -0.18389226 1.855432 4.5
-2.7937412 -0.22227278 1.8546304 27
-2.4815035 -0.21672291 1.8501198 49
-2.2906983 -0.23223972 1.8513414 70
-2.1565692 -0.2462521 1.855903 82.333336
-2.0232823 -0.23623736 1.8548189 85
-1.910543 -0.24209265 1.8512112 86
-1.7295721 -0.23320103 1.8532958 86.75
-1.5809981 -0.26109225 1.8615088 88
-1.4165357 -0.19666998 1.8544517 93.666664
-1.2920789 -0.24139993 1.8544728 98.333336
-1.1589935 -0.22276188 1.842526 73
-0.99675965 -0.22290799 1.8405502 77.25
-0.81252515 -0.22984451 1.837222 76.111115
-0.66749287 -0.22856894 1.8351883 77.14286
-0.53731048 -0.2171745 1.8463751 50.599998
-0.4296298 -0.2313983 1.8316734 75.5
-3.1444874 -0.05340036 1.8617214 1
-2.9091671 -0.11330713 1.8551927 30.5
-2.7820544 -0.057130076 1.853229 25
-2.6297073 -0.097163476 1.8543606 62.333332
-2.3174434 -0.060599081 1.8479553 78.5
-2.1678531 -0.059526026 1.8517623 79.333336
-2.0440123 -0.063745752 1.8505124 79
-1.8813074 -0.09888982 1.8494284 82
-1.7402489 -0.069643535 1.8530341 83.75
-1.6002557 -0.11005653 1.8581723 89
-1.4264082 -0.047214493 1.8513712 98
-1.2746923 -0.082350798 1.8421634 78.199997
-1.097895 -0.083294183 1.8378057 80.5
-0.98795027 -0.089746892 1.8353274 73.75
-0.81741434 -0.073280469 1.8368009 79.214287
-0.65824521 -0.091677502 1.8362819 80.25
-0.53673357 -0.068181954 1.8342322 78.5
-0.44847137 -0.11192051 1.8289646 75
-2.452729 0.050428707 1.846254 16
-2.2605355 0.020881731 1.8456546 82
-2.1739261 0.12562777 1.8470935 84
-2.0635183 0.10978851 1.8500193 90
-1.8479801 0.033464324 1.8502094 85
-1.7004031 0.058916442 1.8511063 79
-1.612484 0.041099235 1.8509831 54
-1.4311637 0.10175088 1.8513736 96.333336
-1.2938823 0.082098641 1.8427244 86.400002
-1.0998558 0.070969939 1.8371748 75
-0.97593373 0.093067765 1.8345026 78.333336
-0.82012826 0.079711206 1.834704 77.916664
-0.66892266 0.070103981 1.8345165 78.666664
-0.53597927 0.076470651 1.8338007 82.571426
-2.2598023 0.21192019 1.8433639 79
-2.1675968 0.28815332 1.8454214 86
-2.0811903 0.28844267 1.8506802 16
-1.5892421 0.1747337 1.847993 2
-1.4277986 0.25193593 1.8466645 93.333336
-1.2834151 0.23460916 1.8457713 92.5
-1.0965245 0.24205725 1.8368726 77
-0.97329682 0.24553818 1.8317195 77.5
-0.82158732 0.221662 1.8313015 79.63636
-0.66693753 0.21828194 1.8319002 80.666664
-0.53233129 0.23225918 1.8334764 82.428574
-2.1870615 0.32722789 1.8490051 47
-1.4168047 0.4024736 1.8397607 90
-1.2762227 0.36975664 1.8415108 88
-1.11201 0.36141178 1.8342559 73
-0.99244767 0.37571692 1.8314396 77.333336
-0.82548469 0.36792624 1.8305494 76.545456
-0.68220967 0.37686715 1.8303552 77
-0.53869361 0.37570786 1.8288454 79.833336
-1.70866 0.5907014 1.8378237 70
-1.4030824 0.55587202 1.8397042 90.333336
-1.2553632 0.52484894 1.8375162 93.400002
-1.1687405 0.52841485 1.8386477 93
-0.9887225 0.52494299 1.829816 78.833336
-0.81705785 0.52619958 1.8288165 73
-0.68584824 0.5386495 1.8325051 66.428574
-0.52609521 0.52583069 1.8287712 64.800003
-0.43305486 0.5080955 1.824983 84.5
-1.8543943 0.70044374 1.8282708 88.5
-1.7523322 0.62244105 1.8340266 95
-1.6324455 0.67290449 1.8390002 90.333336
-1.371102 0.65281737 1.8372654 86
-1.260758 0.68874776 1.8358085 91.800003
-1.1706834 0.70636749 1.8312373 87
-0.95699203 0.68021977 1.8220485 69.5
-0.80560732 0.67319 1.8273227 73.800003
-0.67452902 0.64792866 1.8373209 56.333332
-0.5326308 0.69418383 1.825418 67.222221
-0.39444873 0.6860646 1.8224664 81
-1.8832777 0.86534417 1.827752 84
-1.7204351 0.78565758 1.831333 88
-1.6151749 0.83526468 1.8303417 91
-1.4372804 0.75720662 1.8315362 87
-1.286924 0.83118051 1.8298272 89.5
-1.1607677 0.85760707 1.8303088 87.333336
-0.96943587 0.82773435 1.8362857 53
-0.82611853 0.82434696 1.8608123 48.875
-0.67499667 0.83131677 1.857597 65.85714
-0.51858962 0.82866174 1.830199 68.400002
-0.40396401 0.84116596 1.8231398 75
-1.7181151 0.94904047 1.8255206 83.75
-1.5858436 0.97858703 1.8274791 89
-1.4056127 0.92069197 1.8261985 78
-1.2526263 0.98123395 1.8232939 83.75
-1.1313806 0.99896926 1.8243256 85
-0.93838394 0.9774344 1.8656061 51
-0.83408946 0.98270577 1.8667673 50
-0.67866355 0.97140491 1.8630781 47.57143
-0.52621102 0.98531115 1.8277851 60.875
-0.39013138 0.96971369 1.8228426 73.166664
-0.28290778 1.0206751 1.826774 79
-1.855077 1.060954 1.8222109 77
-1.7007109 1.1333205 1.8208345 84.666664
-1.5933073 1.1167071 1.8208991 86.5
-1.3643993 1.0855249 1.8184606 81
-1.2453499 1.1504641 1.8200095 79
-1.130674 1.1357332 1.8216718 82
-0.90613693 1.076092 1.8601211 50
-0.81670821 1.1374209 1.853412 43.799999
-0.67962551 1.1389316 1.8777863 48.400002
-0.5239948 1.1225579 1.8263773 74.400002
-0.37807289 1.1298746 1.8227175 79.571426
-0.26362088 1.1576525 1.8234103 80
-2.1983507 1.2074738 1.8337702 11
-2.0791187 1.2362603 1.8231431 75.5
-1.8192687 1.2627631 1.8175062 76
-1.720821 1.2851388 1.8214103 79
-1.5725029 1.2948649 1.8141568 86
-1.2704177 1.2647755 1.8192266 84.5
-1.0991859 1.2869247 1.8134028 82
-1.0349126 1.2811089 1.816682 74
-0.77932149 1.2842962 1.8199414 76
-0.65553498 1.2710583 1.8197873 68.199997
-0.50975078 1.2497095 1.822579 71.714287
-0.3644475 1.2963692 1.8172007 73.285713
-0.21899575 1.2562017 1.8237156 71
-0.12865029 1.3245116 1.8156182 66
-1.7262558 1.4774787 1.8161221 43
-1.6147525 1.4348426 1.8179412 62.5
-1.4809706 1.4806843 1.8183981 41
-1.2576056 1.4268267 1.8059884 75
-1.1236376 1.409824 1.8096174 77.75
-0.99821508 1.4209764 1.8129826 73.5
-0.67951822 1.4167387 1.812656 71.800003
-0.51944911 1.4229656 1.8189322 68.25
-0.36079746 1.4380158 1.8140265 69.714287
-0.21851528 1.4182159 1.8157376 71
-0.10129999 1.4183527 1.8181767 66.5
-2.1306357 1.6468941 1.8202308 78
-2.0145757 1.6306028 1.821467 78
-1.5607481 1.5742549 1.8123226 43.333332
-1.4990649 1.5322195 1.8145939 41
-1.1350771 1.5770341 1.8088192 34.666668
-0.99019909 1.5724086 1.8100914 31.799999
-0.63830799 1.563789 1.8131752 35
-0.53410554 1.5814353 1.8137511 27.666666
-0.35391849 1.5843161 1.8200668 32
-0.21605891 1.5586373 1.8087912 43.666668
-0.090345867 1.5493773 1.816262 49.25
0.0090436861 1.5974668 1.816517 42
-2.1924596 1.7149621 1.8286096 34
-2.0578539 1.7173665 1.8204101 78
-1.7273307 1.6940159 1.8142246 73
-1.5561663 1.6878592 1.8102764 71
-1.444098 1.6986051 1.8130738 69
-0.97284555 1.7430763 1.8086461 60.166668
-0.85897738 1.7211602 1.8097063 68
-0.52396566 1.7026783 1.8127331 46.799999
-0.37664151 1.7786375 1.815092 63.666668
-0.19924514 1.7073327 1.8157555 43.5
-0.061604861 1.7259389 1.8133885 50.333332
0.073604733 1.7080252 1.8148147 42
0.19083379 1.767589 1.8011187 76
-2.3405862 1.9490839 1.8164684 72
-2.0308194 1.8317105 1.8232903 6.5
-1.5434567 1.8000947 1.8090776 75
-1.4378735 1.8589441 1.819797 8.666667
-1.1193765 1.8002074 1.8078424 62
-0.96173137 1.8680592 1.8022417 70
-0.8469395 1.890339 1.8076149 62
-0.45910242 1.8563342 1.8112615 64.666664
-0.38242638 1.8833042 1.8077248 62
-0.23777695 1.8778909 1.821329 62.333332
-0.075139023 1.9032178 1.8182874 66
0.076274373 1.8605839 1.8158051 65.400002
0.22255173 1.8911324 1.8149235 62.599998
-0.98688412 1.9777915 1.806666 59.5
-0.84239143 2.0360134 1.8039899 61.333332
-0.70126313 2.0428948 1.8058926 61
-0.34203702 1.9938071 1.8078209 60
-0.22706613 2.0635066 1.8110168 58
-0.13384724 2.017035 1.823094 61
0.053465188 1.9873794 1.8121977 66.25
0.19110242 2.0451829 1.8141215 63.75
0.35723552 2.0317912 1.8104875 63.714287
-2.7387073 2.1997318 1.819656 52.666668
-2.5503702 2.1657231 1.8107828 78
-2.3013718 2.2452209 1.8198441 6
-0.92705917 2.195694 1.8016375 57
-0.84675539 2.1455388 1.8021992 53
-0.60701877 2.2140663 1.8032583 59
-0.21475166 2.1459322 1.8115827 57.5
-0.031222466 2.1956303 1.8212574 61.5
0.12987493 2.2137952 1.819775 61
0.35943723 2.1697872 1.8210689 64
0.5080297 2.2009051 1.8114672 60.25
-2.8855886 2.3189461 1.8100482 78
-2.8362391 2.2909238 1.8178548 82
-2.6748028 2.3811347 1.8200477 44
-0.73623556 2.3431375 1.8012174 55
-0.50111604 2.3955498 1.8022867 58
-0.083167352 2.312552 1.8101921 60
0.10482845 2.3372412 1.8164192 58.5
0.26049459 2.3599052 1.8205019 68
0.53459203 2.3104959 1.8202946 62
0.66658986 2.3521838 1.8159958 57.5
-3.0827625 2.4054527 1.8127662 17
-2.7092729 2.4641964 1.8142914 68
-2.5267413 2.4725142 1.8136274 85
-1.2257657 2.5386753 1.8013817 36
-1.1441042 2.4706705 1.8076888 60
-0.8107788 2.4094965 1.8023115 56
-0.55676657 2.4743049 1.801531 53
0.072789088 2.4686141 1.8170897 63
0.25624049 2.4893708 1.8175719 58
0.40496182 2.5042129 1.815091 59
0.64953846 2.4353242 1.8149709 59
0.81512052 2.4741211 1.8126196 58.5
0.9292689 2.5291569 1.8092262 55
-2.8591876 2.6666067 1.8046383 65
-2.7803864 2.5964766 1.815378 62
-2.6808746 2.5566418 1.801926 54
-1.8035666 2.6005886 1.8078123 81
-1.3107023 2.619854 1.8049599 59
-0.6792109 2.6540039 1.818143 35
0.24466003 2.6236527 1.8142847 62
0.4221189 2.6341655 1.8106477 41
0.56607199 2.6569853 1.812013 58
1.008983 2.6087117 1.8095651 57
1.1236179 2.6480038 1.8072848 53
-3.1580253 2.7177603 1.8113731 70
-3.0583115 2.7799599 1.8027204 63
-2.6623945 2.7224367 1.8078336 5
-1.9537349 2.7463598 1.8108689 4
-1.9271188 2.7030022 1.8162147 5
-1.0444421 2.7050154 1.8048791 65
0.43412703 2.7709827 1.8055977 57
0.59009129 2.7384894 1.8045911 62
0.68235588 2.817184 1.8039563 62.5
1.2864124 2.7514284 1.8065683 51.333332
1.4505153 2.8158636 1.8139615 49
-3.3878968 2.8523269 1.808241 68
0.64540505 2.9310987 1.8076485 64
0.81080413 2.9403331 1.8045053 58.5
0.94930857 2.9779897 1.8040138 58
1.5406551 2.8930621 1.8073249 49
1.6530192 2.8974073 1.8123189 3
-3.6409605 3.0043857 1.8061825 58
-3.3927665 3.0683293 1.8140981 3.5
0.87615758 3.0845797 1.8049668 53
1.0058576 3.0594442 1.8035115 48
1.1288902 3.1865435 1.810092 52.333332
1.2899216 3.2633533 1.8041557 48.5
-4.0186415 3.3716509 1.8184694 36.333332
1.4237723 3.3664885 1.8058236 52.5
1.6132804 3.4518213 1.8000971 42
-3.6434481 -5.2269144 1.9517688 37
-3.2080247 -5.2387547 1.9561445 13
-3.343467 -5.0769935 1.9520096 35
-3.3696659 -4.8693767 1.9659981 35
-3.0693712 -4.8815794 1.9621841 16
-3.4939044 -4.7019043 1.9669259 35
-3.1314573 -4.7317538 1.9521252 13
-3.4001639 -4.2590218 1.9534229 36
-3.1272349 -4.2691536 1.9583958 20
-3.4846165 -4.0905771 1.9530553 43
-3.6706104 -3.9939003 1.9542633 55
-0.72159547 0.86179131 2.0231683 17
