# .PCD v0.7 - Point Cloud Data file format
VERSION 0.7
FIELDS x y z intensity
SIZE 4 4 4 4
TYPE F F F F
COUNT 1 1 1 1
WIDTH 110
HEIGHT 1
VIEWPOINT 0 0 0 1 0 0 0
POINTS 110
DATA ascii
0.86354989 2.8898728 -0.90998977 8
1.0656621 3.2170253 -0.91342688 8
1.2565551 3.5407872 -0.91248989 10.5
1.2597862 3.746835 -0.9063316 12
2.9249496 -0.3100642 -0.83973557 0
2.4060445 -0.26684982 -0.83421934 5
3.6917684 -0.15768915 -0.77255118 5
2.8048627 -0.097742744 -0.84138465 4
3.4804745 -0.12342153 -0.85029054 5
2.753994 0.1000842 -0.84630042 4
3.3578184 0.10384659 -0.85207444 4
3.6814775 0.075661704 -0.79526418 1
2.7386255 0.2987251 -0.8513599 4
3.6636288 0.17378698 -0.85309082 150
3.2852387 0.32527128 -0.85355181 5
3.6560426 0.36933237 -0.8305496 2.5
2.7486012 0.50301546 -0.85383028 4
3.2872443 0.5523209 -0.85894674 8
2.4205027 0.68993914 -0.8633911 6
2.7951584 0.72115213 -0.85645694 4
3.3188565 0.79310668 -0.86241513 6
2.0408173 0.91996205 -0.75651592 39
2.52458 0.90489966 -0.86182559 6
2.5504766 0.9287191 -0.87468547 6
2.912029 0.97381324 -0.86377716 7
3.1883528 0.9958415 -0.83563787 18
3.6323166 0.95291388 -0.81902444 7
1.8973014 1.1409887 -0.75688279 12
0.94118768 2.4878442 -0.89722788 8
1.023885 2.6152573 -0.88170755 6
1.0605477 2.7820127 -0.88951886 6
1.0581179 2.932987 -0.89195341 7
1.1363941 3.2138689 -0.89670253 8
1.265026 -1.42239 -0.63077152 12
1.3628579 -1.4076785 -0.61314368 64
1.5686667 -1.3959301 -0.66695297 63.5
1.6302205 -1.3458089 -0.66776162 55
1.8631055 -0.50460279 -0.63383865 68
1.9460969 -0.37350136 -0.66939151 22
1.952381 -0.35742527 -0.60590857 28.5
3.7122834 -0.40192765 -0.73330474 22.5
3.698875 -0.19640127 -0.68863738 101.5
3.6808214 0.042164564 -0.69427687 100.5
3.6723721 0.23838851 -0.64079535 101
3.6691685 0.32173949 -0.7430625 108
3.6546788 0.51892245 -0.68225563 111
3.6439164 0.70431417 -0.61395937 106
3.6375027 0.81361365 -0.71503288 116
1.5750237 0.99871153 -0.62994373 14
2.0160081 0.97781426 -0.64522856 79
2.17466 0.92305261 -0.72933286 29
2.325032 0.92518127 -0.70196271 15
2.8011177 1.0189606 -0.71160764 1
3.4112546 1.0045551 -0.66952163 11
1.8497059 1.1319752 -0.63568878 150
1.9993502 1.098708 -0.69011253 80
3.1831505 1.0816042 -0.73867112 113
1.9920871 1.2709703 -0.69164646 81
0.053096388 -1.4496711 -0.48041615 10.666667
1.4654169 -1.394814 -0.59371465 1
1.4220444 -0.6164999 -0.48059386 3.5
1.5870908 -0.57151192 -0.57254773 10
1.6894618 -0.57668316 -0.50418431 22.25
1.8811891 -0.49177521 -0.54612964 50.5
1.978497 -0.55130982 -0.47250211 31
1.9478172 -0.38736159 -0.5166862 35
1.9557743 -0.38393825 -0.54180926 42
1.9666228 -0.27596363 -0.50125557 25
3.7063468 -0.26322001 -0.52464753 95
3.687408 -0.026793011 -0.53514969 104
3.6752057 0.20546323 -0.53792238 110.5
3.6623275 0.39499763 -0.52713561 108
3.6621509 0.48270899 -0.5380137 110
1.5539492 0.7384178 -0.4660185 1
3.6479454 0.67291021 -0.51809514 120
1.0846421 0.86344361 -0.46204349 46
1.2132081 0.87229276 -0.50766754 13
1.4416103 0.86415946 -0.50049293 47
1.5695485 0.84218037 -0.50986421 93
1.6960924 0.75182903 -0.54776454 3
3.6382542 0.8372727 -0.48456588 109
1.5368686 0.99843603 -0.52335727 0
2.3136723 0.94438148 -0.45597777 19
2.7303648 0.90541285 -0.50686097 58
3.6305075 0.95925146 -0.54761392 80.5
2.8464162 1.0571457 -0.59078753 10
-0.66793573 3.3654785 -0.51012379 18.857143
0.061854951 -1.472236 -0.41048288 29.25
0.072290137 -1.3309371 -0.40625206 13
1.1846905 -0.63846391 -0.43414459 2
1.3896428 -0.61213666 -0.42284882 21.333334
1.6042348 -0.584427 -0.43307602 37
1.9403362 -0.55251598 -0.4224478 31
1.9667592 -0.3633211 -0.42743111 38.5
1.957767 -0.29430696 -0.44632831 59
3.6948202 -0.034686856 -0.40383974 106
3.6805236 0.19879502 -0.41786093 112
3.6695838 0.43360829 -0.42102554 110
3.6540296 0.66949803 -0.41654614 108
0.91416699 0.86435139 -0.42802837 9
1.1414082 0.87753016 -0.4172537 41
1.4304488 0.81276155 -0.43307424 1
2.7274637 0.94783419 -0.44493723 119
3.4175982 1.0032108 -0.44768763 6
3.6390288 0.90864253 -0.40186885 109
1.9946198 1.2587743 -0.42324048 88
0.54622889 2.0618706 -0.41419914 22
0.744008 1.995735 -0.42146397 46
-0.66112363 3.3724017 -0.42504084 21
2.1614559 5.2828679 -0.44836259 3
