# .PCD v0.7 - Point Cloud Data file format
VERSION 0.7
FIELDS x y z intensity
SIZE 4 4 4 4
TYPE F F F F
COUNT 1 1 1 1
WIDTH 1302
HEIGHT 1
VIEWPOINT 0 0 0 1 0 0 0
POINTS 1302
DATA ascii
-0.56065387 -1.012089 -0.15432283 14
-0.46586108 -0.6871689 -0.16691166 11.4
-0.40051436 -0.68054456 -0.17235197 10.571428
-0.22341868 -0.65530801 -0.17813532 6.4444447
-0.045347542 -0.63406515 -0.1706086 6.75
0.043549176 -0.62178433 -0.18252824 10.4
0.19636697 -0.60703146 -0.16335776 10.8
0.26960418 -0.59495848 -0.18510504 10.285714
0.36873397 -0.55964541 -0.17907302 7.5
0.48736519 -0.57147026 -0.18306327 7.5
0.67869806 -0.55018288 -0.19373709 8
0.81409472 -0.5511871 -0.15026768 11
1.1869758 -0.33475378 -0.15907672 1
1.2899512 -0.30741829 -0.17921989 0
1.5755011 -0.42516592 -0.18430586 11
2.0516326 -0.38302627 -0.17680985 86
2.0138516 -0.16697069 -0.15083225 63
1.9917178 -0.035602465 -0.16177422 66
1.9941163 0.094460361 -0.16560851 83
1.9818947 0.22423543 -0.16264442 77
1.9705796 0.3560943 -0.15440138 79
1.9426563 0.56037563 -0.19664255 80
-0.22846681 0.71941411 -0.17298132 0.75
-0.074365556 0.71021199 -0.1681242 0.25
0.0075253667 0.73306936 -0.15931654 0
1.9486868 0.70178193 -0.17319202 112
-0.64736617 0.80730599 -0.17139038 14.2
-0.5488019 0.81699592 -0.17311764 15.777778
-0.31209421 0.76996303 -0.15706311 0
-0.20688327 0.81144208 -0.18794386 2.8
-0.073262066 0.87303424 -0.19682884 3
0.069799952 0.83517963 -0.18367186 0
1.0134139 0.85577488 -0.15980813 4.5
1.2791386 0.89709264 -0.15860143 3
-0.52462035 0.99319446 -0.18782192 1
-0.37224448 0.93103474 -0.18442747 0
0.2968331 0.93174851 -0.18728226 9
0.53519309 0.92082572 -0.17004782 7
0.63459021 0.92627406 -0.18175754 11.25
0.82791841 1.0002629 -0.17604843 1.5
1.0459 0.95717138 -0.16772313 52
1.1086136 1.033322 -0.1740052 155
1.2839231 0.96879542 -0.17872548 5.5
1.7309468 1.0144756 -0.15545842 25
1.9165529 1.0002978 -0.18529528 97
-0.50017267 1.1657116 -0.16578516 12.5
0.26888394 1.1294694 -0.17547168 5.5
1.4260067 1.3257748 -0.15201737 10
1.4405091 1.4181889 -0.15027457 17
-0.54132038 1.615608 -0.16258602 23.5
-0.5660373 1.6910851 -0.15000507 15
-0.59756243 1.9229612 -0.18406618 1
-0.87778521 6.8553224 -0.18838254 6
-0.68541723 6.8004432 -0.19622687 95
-0.54647541 6.8352375 -0.16070679 3
-0.61154014 -1.0553231 -0.11665861 8
-0.62286198 -0.9954325 -0.11974821 4.75
-0.58782852 -1.014894 -0.13039377 7
-0.62403017 -0.84164602 -0.11935259 3.5999999
-0.53936237 -0.80522907 -0.12206633 4.4000001
-0.083227068 -0.76070791 -0.038180057 5
1.5911623 -0.77795392 -0.077998765 53
-0.79066539 -0.63508493 -0.018726872 1
-0.67286676 -0.64076406 -0.059342053 1.3666667
-0.53062212 -0.69029921 -0.11340925 5.909091
-0.39399892 -0.68498451 -0.10385299 10.538462
-0.22323772 -0.65978467 -0.12503769 6.8000002
-0.076733075 -0.6438098 -0.088104345 8.0526314
0.080678269 -0.61942536 -0.092089176 10.833333
0.19555449 -0.60550749 -0.053242683 9.090909
1.2083428 -0.65045965 -0.083420463 11
1.6194402 -0.66853726 -0.11612809 15
-0.58272874 -0.5820905 -0.085865512 0
0.26408258 -0.59323061 -0.05320375 8.8666668
0.37476188 -0.58353758 -0.063134015 8.6470585
0.53005356 -0.56998825 -0.057389561 6.5625
0.67089117 -0.55427957 -0.056507848 6.1538463
0.8436287 -0.5497787 -0.090971783 4
0.97259068 -0.51815712 -0.085386641 39.75
1.1215152 -0.5517143 -0.084719919 0.5
1.265589 -0.49987125 -0.06229084 11
1.4554868 -0.58927369 -0.072004355 33
1.6008623 -0.57978547 -0.097296841 76
1.0344477 -0.36067742 -0.051056419 0
1.103345 -0.37490392 -0.085771494 23.4
1.2454915 -0.3138873 -0.12409721 2
2.0357709 -0.34199035 -0.067474112 77.5
2.0235093 -0.22971477 -0.066823468 80
1.9439957 -0.12256054 -0.052046005 20
2.0014219 -0.063725933 -0.065750644 65.75
1.991317 0.074980117 -0.087489001 73.199997
-0.81289518 0.22115341 -0.028991956 0
1.9792573 0.2296346 -0.074025027 78.199997
1.96627 0.36804491 -0.066524349 75.75
1.9551446 0.50578916 -0.09098272 78.75
-0.30702692 0.72944051 -0.052562777 0
-0.15775286 0.68824834 -0.12600271 0.66666669
-0.087534167 0.68995214 -0.11612832 0.16666667
1.9415359 0.68071121 -0.049145158 90.666664
1.9530438 0.61209863 -0.078853123 96.5
-0.78313607 0.79233193 -0.080443092 10.625
-0.67358524 0.80122149 -0.10263231 9.6499996
-0.53774023 0.8227123 -0.096519932 11.470589
-0.3634105 0.81678396 -0.085627019 6.6666665
-0.21631789 0.77784902 -0.059039913 2.909091
-0.08525686 0.78076321 -0.030827668 2
0.056219887 0.80239904 -0.054692816 0.80000001
0.18839397 0.87496036 -0.066769943 6.5
0.37145695 0.8966527 -0.055601168 7.5
0.48867542 0.89483136 -0.11711106 0
1.0174116 0.83708841 -0.055029057 5
1.1552018 0.82131982 -0.073544078 2.6666667
1.9326023 0.8181383 -0.10622195 93.5
-0.65160191 0.93533772 -0.0089665102 3.5
-0.49818769 1.0318688 -0.072488628 3
-0.36649904 0.93806529 -0.081755348 3
0.28760713 0.96284574 -0.089766733 8.25
0.37624538 0.91041428 -0.11185196 9.8888893
0.50388497 0.90967816 -0.11196275 7.4000001
0.61673003 0.91824824 -0.10034857 7.6666665
0.83793181 0.95287019 -0.049131449 14
1.0045941 0.94974011 -0.055284534 33
1.3169591 0.93719471 -0.039326869 5.5
1.36013 0.96071458 -0.08693815 6
1.7139012 1.0076436 -0.064331561 25.333334
1.9098418 0.98266828 -0.064331047 93.75
-0.49101833 1.1560844 -0.10123725 11.875
-0.39172846 1.1540189 -0.10454712 10.375
1.0734622 1.1022875 -0.055661771 9
1.1576606 1.301728 -0.075630732 41.5
1.413179 1.306581 -0.080459781 60
-0.33572674 1.6733017 -0.13217115 17
-0.89492559 6.8532333 -0.080621727 13
-0.40964976 -1.2477813 0.14995784 1
-0.02206618 -1.1076177 0.13207579 3.5
-0.05379064 -0.80833131 0.084877059 4.4000001
-0.95475352 -0.6363979 0.094718195 0.125
-0.82496226 -0.62117606 0.071975924 0.36000001
-0.6766119 -0.61391205 0.057532541 1.0526316
-0.56941694 -0.60350251 0.0026292754 0
-0.040475607 -0.65511465 0.077866316 6.1999998
0.084864169 -0.61818898 0.076453254 8.1621618
0.20759481 -0.60843122 0.089147218 7.2800002
0.32023516 -0.60228151 0.079419717 6.8000002
-0.83435005 -0.58945233 0.14054401 0.33333334
-0.70069396 -0.59318203 0.12537514 1.1428572
-0.58032846 -0.58195102 0.026691521 0
0.24929626 -0.59589356 0.058152657 6.8333335
0.38798109 -0.59254146 0.061912201 7.3809524
0.51964748 -0.57398856 0.055080771 6.5882354
0.68054438 -0.55268645 0.057389539 4.8000002
2.0478966 -0.49237773 0.026529247 12
2.3255074 -0.48674309 0.11897576 18
1.0483251 -0.3461253 0.059016403 3
1.0709895 -0.34806922 0.084302194 5.6666665
2.1904595 -0.3462317 0.06177599 11
2.3463829 -0.4186956 0.14929062 5
-1.1024756 -0.17000234 0.14175826 4
2.0197577 -0.2168245 0.06361194 28.714285
2.1073999 -0.26497406 0.13871321 6
-1.0645206 -0.14291878 0.11231282 6
-1.0368608 -0.062900349 0.11089142 2
1.9421269 -0.028097769 0.088527285 31.5
1.9774805 -0.089375846 0.061956555 24.714285
-1.0210139 0.083917551 0.09225899 0
1.9371376 0.074744798 0.080388978 45
1.9747777 0.07721471 0.051496547 41.333332
-0.95475703 0.16861312 0.10579646 0
-0.8642475 0.21644083 0.0647901 0
1.9472036 0.17491297 0.081425093 44
1.9686625 0.21258135 0.039580066 51.25
1.9464717 0.44942203 0.046109732 7
1.9594657 0.36882862 0.018865736 51
-1.072197 0.57676792 0.13735902 0
1.9424953 0.523435 0.029281363 37.666668
-1.1071901 0.60852128 0.1189172 0
-0.32487166 0.7178365 0.070664614 0.22222222
-0.23837689 0.7400524 0.10645428 2.0999999
-0.092294507 0.74148518 0.13165602 1
0.12554888 0.74836433 0.13414353 0
1.9368987 0.65731752 0.038275238 21
2.0553856 0.65111983 0.079689212 24
-0.22755903 0.75536054 0.054405846 2.1111112
-0.070947938 0.76921445 0.065755822 1.4285715
0.073087975 0.78282303 0.076599255 0.40000001
0.9883908 0.8012827 0.10367651 2.4285715
1.1441077 0.84859371 0.094659306 4.3333335
1.2663676 0.88025111 0.11750113 5
1.9284166 0.82498145 0.0078519238 89
2.0468338 0.79283255 0.1024005 54.75
-0.63816595 0.95816153 0.030989373 2.5
-0.59491956 0.98169953 0.012667055 4
1.4000882 0.92948598 0.077863343 4.25
1.9229298 0.95684981 0.071308456 22.333334
2.0138397 0.94988644 0.098579518 10
0.59205705 1.0834016 0.075046055 7.3333335
1.768786 1.0572906 0.05003887 33
1.9363096 1.0743898 0.097741358 23
1.9689119 1.0730151 0.12491166 14
-0.6302762 1.2847229 0.14595902 5
-0.54970795 1.3407817 0.13891417 6
-0.39729413 1.2839279 0.12330835 3.5
1.6944662 1.3810436 0.11113726 153
-0.94588596 5.6600585 0.023759717 21
-0.91585672 6.8630695 0.032836076 19
-0.94859672 6.9171801 0.12621599 4
-0.0049941419 -1.3988566 0.26970059 16
-0.021062512 -1.1447856 0.17950541 6
-0.035905797 -0.98123157 0.23733261 3.5
2.0736411 -0.96755439 0.2900809 36
2.1312461 -0.98208088 0.27682662 41
-0.052330632 -0.80144417 0.20152302 4.4000001
2.1516747 -0.84409064 0.23343499 34.166668
2.2988348 -0.77913213 0.20987852 58.5
-0.80456352 -0.63935196 0.28272283 0
-0.047175687 -0.65334523 0.21898006 4.5333333
0.052302718 -0.62243038 0.18691914 7.1428571
2.3306575 -0.70588696 0.24690419 75
-0.81246769 -0.55015051 0.1577071 0
-0.72002697 -0.57896358 0.20318574 0
2.3187473 -0.48277131 0.22576405 18
1.1468217 -0.36466011 0.15361124 5
1.2803046 -0.34530964 0.21190162 1.6
2.5815837 -0.40897644 0.25595474 8
-1.216042 -0.23659757 0.2684595 2
-1.1268662 -0.20516935 0.18734664 3
1.2596796 -0.27423865 0.23758632 0
-1.2115911 -0.074367329 0.28188676 0
-1.1700577 -0.052041139 0.24884081 0.16666667
2.0955291 -0.074401982 0.22488868 2
2.2590265 -0.053574052 0.26136774 1
-1.1713459 0.045386344 0.26168409 0
2.0396695 0.048720695 0.20486924 3
-0.98214632 0.17433849 0.15115613 0
-0.83435142 0.22778954 0.15816849 0
1.9833548 0.15771052 0.19073531 14
-1.2359871 0.59478867 0.21923012 0
-1.0961205 0.58238161 0.1610899 0
2.2753026 0.56479979 0.17270428 0
-1.4209762 0.66149127 0.2973361 3
-1.2863693 0.63993728 0.27585977 1.8
-1.1714463 0.64464486 0.2326346 0
-0.31645921 0.70526582 0.15782028 0
-0.19712968 0.70714831 0.16996124 0.40000001
-0.092992693 0.69546199 0.18333392 0.36363637
0.052290037 0.723611 0.16476047 0
2.0616138 0.64733779 0.15806293 8
2.2276793 0.66614181 0.18234056 18
-0.22018467 0.78470153 0.28150821 0.33333334
-0.077606581 0.77609015 0.28825158 0.33333334
0.051058188 0.77954978 0.22547784 0
1.1572754 0.87499255 0.23684622 3
1.225525 0.82411355 0.18445344 3.3333333
2.1014001 0.79382193 0.20139676 17
2.2504005 0.88430369 0.23455364 7
1.0548285 0.90262043 0.27769756 0
1.3014323 0.91991544 0.28634697 0
1.4337252 0.90604901 0.16370273 2
2.1542306 0.91883945 0.17134756 54
-1.6431143 1.2619603 0.29162297 21
-1.3554289 1.3287238 0.16901451 3
-1.2846208 1.3361143 0.19459146 0.66666669
-1.1223414 1.3475534 0.17564824 0.5
-0.70891237 1.2732598 0.24406815 1
-0.53789908 1.3163608 0.23222478 6.8571429
-0.36062035 1.2666599 0.23291844 0.66666669
2.1738367 1.2208897 0.26446703 9.333333
-1.1261394 1.3564682 0.19435239 1.5
-0.97205889 1.3759103 0.16576958 3
-0.7546609 1.3951968 0.2582776 21
-0.63884348 1.3681771 0.25181383 6
-0.46791026 1.3688259 0.19547218 8.666667
-0.41501841 1.3959031 0.18564254 21
0.99989033 1.4257773 0.21378835 2.6666667
1.0798709 1.4337589 0.25471944 2
1.2478564 1.4495728 0.23554401 2
1.4060193 1.4527092 0.25680551 0
1.5079473 1.4662304 0.21539158 0
0.83538431 1.527921 0.22417563 2
1.4503568 1.5855966 0.18951225 9
1.9138286 1.6139081 0.25364792 46
1.9692671 1.5575219 0.23897019 31
1.8637559 1.671411 0.22458917 3
-0.0071441708 -1.426038 0.32655615 5
-0.01619925 -1.2019433 0.33706194 2
-0.018854786 -1.1670198 0.37499267 2
2.2182508 -1.0557358 0.41985828 59
-0.035917688 -0.97993255 0.35824677 4
2.0915749 -0.94289517 0.37878299 37
2.1210222 -0.93147522 0.3536877 49
-0.052800652 -0.81834394 0.35899189 3.8571429
2.0935807 -0.84505141 0.32397136 33
2.1453865 -0.8092829 0.30581075 55
2.3109312 -0.79870105 0.44970793 101
-0.70097554 -0.60837448 0.30604684 0
-0.065281935 -0.70402598 0.3604041 3
2.3138809 -0.71651578 0.36380911 73.5
-0.72243577 -0.59293652 0.30260843 0
2.3067186 -0.48074949 0.357521 11.5
2.33307 -0.40106073 0.38594994 46.333332
-1.2673907 -0.20190462 0.38452643 7.2222223
2.2698214 -0.20812395 0.42017382 59.200001
-1.2291585 -0.085291371 0.37703305 0
-1.1847022 -0.036456168 0.37127638 0
2.2611377 -0.041924972 0.38062093 40.75
-1.2197105 0.10570234 0.38666812 0
-1.1856612 0.046429541 0.34978655 0
2.2429707 0.066824555 0.40449241 45.5
2.2512374 0.048424374 0.37812209 25
-1.2629869 0.19677277 0.37395602 2.4000001
2.2326581 0.21213141 0.39604598 35.599998
2.2155087 0.3728832 0.3946926 36.25
-1.2375033 0.58136064 0.34269309 0
2.2008533 0.51824248 0.38756579 34
-1.256183 0.62807924 0.30807132 0.33333334
-1.1711149 0.63258064 0.31581467 0.25
-0.19284973 0.72404486 0.32492775 0
-0.10185595 0.71657795 0.32801974 0.30000001
0.00059230329 0.72283304 0.33933175 0
2.1838882 0.6737448 0.39206487 39.5
-0.20048997 0.76922083 0.30757484 0.5
0.017972868 0.78205436 0.31681299 0
1.1234823 0.8480534 0.33621979 2.75
1.2195742 0.84459877 0.32144859 2.5
2.1608493 0.81003284 0.41857874 61
2.154129 0.9267987 0.39603275 39
2.1322761 1.1261902 0.4025411 53.25
2.1350605 1.2290745 0.37483308 27
1.0868102 1.4162745 0.3901647 2
1.2581959 1.4286509 0.38946372 1
1.4166849 1.4343994 0.40881556 0
1.928524 1.5469954 0.39449954 1
2.013166 1.5885887 0.3697443 3
1.8825849 1.6665266 0.34593439 32.5
0.0033620417 -1.4227511 0.52826011 20
-0.017622767 -1.2517924 0.549007 19
-0.038695503 -1.0667927 0.50874794 0
2.3404431 -1.0708708 0.57152373 24
2.4095969 -1.1848229 0.50515914 7
-0.047665033 -0.93214524 0.54774201 14.5
2.3400996 -0.98625851 0.53357524 71.666664
-0.056251917 -0.82713538 0.51174903 1.25
2.32636 -0.81371415 0.49578151 71.25
2.3299069 -0.74938947 0.57245612 60
2.2875319 -0.36865366 0.50449222 59.666668
-1.2520981 -0.17973641 0.50636792 5.25
2.2745891 -0.24344805 0.50719535 57.5
-1.2196984 -0.078439191 0.53732336 0
-1.1894051 -0.040858187 0.46801734 0
2.2497838 -0.0044919066 0.5277586 65
2.25927 -0.10917009 0.53983569 63
-1.2267332 0.066954061 0.53626156 1.5
-1.1941401 0.043990016 0.46817046 0
2.2404335 0.099247783 0.5215221 61
-1.2615051 0.2027597 0.51617116 2.3333333
2.2277064 0.20292364 0.51740623 66
2.2111645 0.36011004 0.52198052 65
2.1921523 0.53245163 0.48894003 66.666664
2.1723101 0.68705201 0.53880823 65
2.1579075 0.85037309 0.53380221 72.666664
2.140028 0.98889714 0.53054011 71
2.1286473 1.1344036 0.50121832 74.199997
2.0980833 1.3058869 0.57237154 11
1.0310364 1.3976839 0.47795957 2
1.1378887 1.404035 0.47147816 1.75
1.2493303 1.4076207 0.47694954 0
1.4197927 1.4233952 0.47724837 0
2.0722551 1.6151979 0.55625069 1
2.0594027 1.7160848 0.57261276 48
-0.032480229 -1.1217077 0.6999799 12.5
2.3521006 -1.1335644 0.69602042 22.666666
2.4027817 -1.180908 0.68704498 5.5
-0.046301235 -0.99013299 0.60264438 3
2.3535745 -1.0081732 0.67438167 52.333332
-0.05419473 -0.87235463 0.64589059 12.5
2.3338284 -0.84935898 0.64061391 57.75
-1.261905 -0.034083683 0.63398385 6
-1.1866654 -0.078567863 0.72300756 1
-1.2602383 0.033105113 0.63244224 5
-1.1515568 0.010752913 0.70997572 5.5
-1.2925913 0.15358984 0.61857569 0
2.135814 0.95799202 0.6264832 77
2.1218607 1.1446267 0.6732977 64.333336
2.1151342 1.2685657 0.62099802 22
2.0712454 1.6199037 0.63698131 50.333332
2.0600953 1.738497 0.6756596 41
-0.017031807 -1.2340862 0.78178453 24
2.3343594 -1.2418373 0.8015641 36
-0.037345555 -1.1064849 0.8251487 11.5
2.3206723 -1.1287493 0.86385429 39
-0.050735746 -0.94367999 0.88009727 16
2.3485525 -1.0144781 0.81751025 49
2.3403592 -0.89118862 0.76283813 53
-1.2149816 -0.10269287 0.79647613 1
-1.1448071 -0.065857552 0.77985859 4.5714288
-1.2347043 0.11522043 0.80128896 2.5
-1.150454 0.06938494 0.78591371 2.3333333
2.0699995 1.5615516 0.85804254 48.5
2.0625129 1.7116578 0.83171797 43.5
2.041357 1.9019269 0.83809537 33.333332
-0.017985303 -1.2884015 0.93655431 21.5
2.3396974 -1.2645643 0.93921018 33
-0.04836892 -0.9983778 0.97611082 10.4
2.0548148 1.7388399 0.983114 52
2.0452302 1.8424526 0.94389921 40.333332
2.0239763 2.0311553 0.99511373 34.75
2.008497 2.1602433 0.97796506 18.333334
1.9853513 2.5195117 1.0086023 31
1.9786587 2.5764725 0.92982352 36
1.9497983 2.883189 1.0469944 42
-3.0930202 3.13938 1.0487362 44
-2.7370999 3.1859677 0.98481733 42.666668
-2.640208 3.1825867 0.98891771 37.5
-2.3811648 3.2285845 1.0108244 42
-2.1300952 3.2386999 1.0063086 38
-1.8261131 3.2877352 0.94694531 32
-1.7965769 3.2759047 1.0384823 38
-1.5523663 3.2869046 1.0183216 38
-1.5474864 3.3020949 0.96384275 39
-1.4812374 3.3013115 0.99081254 2
-0.015171665 -1.381305 1.1653951 19
-0.03150006 -1.2324377 1.1967688 16
-0.037337739 -1.1431119 1.1737936 11
2.0388348 1.8914499 1.0789144 37
2.0282106 2.0125065 1.1399305 37.5
2.0029566 2.1776309 1.1591494 36
1.9957854 2.2967031 1.1196014 34.666668
1.9840015 2.4919899 1.1442747 37.333332
1.9610053 2.7715099 1.1427228 38
-3.0676162 3.1464174 1.1294004 46.333332
-2.9601705 3.1460412 1.1345097 44
-3.0956683 3.152422 1.1893824 40
-2.705353 3.1883402 1.0989342 43
-2.6692171 3.1851954 1.0684006 44.5
-2.3468027 3.2155929 1.1327144 33
-2.0741775 3.2509933 1.1203727 37
-1.7357385 3.2738805 1.1532196 38.5
-1.6106772 3.2784727 1.116204 39
1.8805718 3.5790901 1.1437966 47
-0.01510248 -1.4123837 1.3023839 15.5
-0.037199054 -1.1411443 1.3009298 8
-0.051648948 -1.0102485 1.321346 4
2.0050874 2.1747108 1.2587131 38.5
1.9927458 2.3414843 1.3182548 36.333332
1.9822422 2.4901693 1.2902539 37.333332
1.9762031 2.6302335 1.2501446 37
1.9587243 2.7515221 1.2549893 42
-3.4662771 3.1101179 1.2883381 38
-3.3395648 3.1131523 1.3247545 42
-3.0236199 3.1496091 1.2093256 45
-2.9382203 3.1409571 1.2504053 44.5
1.9353335 3.0609672 1.3191435 30
-3.0297227 3.1524978 1.3088237 45
-2.9985089 3.1542704 1.2836276 45
-2.6312366 3.1836777 1.2904177 44.25
-2.4195249 3.2016556 1.2253059 44
-2.3732514 3.2272847 1.2630076 20
-2.0254869 3.2519338 1.2728455 39.5
-1.8539302 3.2602017 1.3059824 41
-1.7768445 3.2664936 1.2129104 38
1.9488962 3.183022 1.2896477 51
-1.558579 3.3061271 1.2804515 40
1.9311843 3.3685315 1.2649088 53
1.9200497 3.5093398 1.2696488 45
-0.023819456 -1.2986385 1.4117199 13
-0.034286309 -1.1770644 1.4425775 12
1.9798077 2.4766877 1.4813205 35.666668
1.9665117 2.6371346 1.4698225 34.666668
1.9613742 2.7717421 1.3983971 38
1.9410907 2.9175951 1.4113052 37.5
-3.480303 3.1170769 1.4218596 39
-3.3727336 3.1130676 1.4027979 33
-3.2894707 3.1128533 1.4600307 44
-2.9751124 3.1523032 1.4198042 45
-2.7003102 3.1777353 1.433399 41.5
-2.6607549 3.169143 1.3944893 44
-2.3081052 3.2241786 1.421754 43
-2.0501308 3.2380943 1.4517682 46.5
-1.8832364 3.2627842 1.3953773 39
-1.513111 3.2991431 1.4173709 40
1.8895206 3.5782554 1.4075084 60
-2.0571935 -5.2768588 1.616606 1
1.969209 2.6266041 1.6453484 34
1.9616249 2.7561238 1.5110332 37
1.9419118 2.9318707 1.548705 35.5
-3.7017214 3.064153 1.6482671 35
-3.3705239 3.1167707 1.5340757 42
-3.2709763 3.10953 1.526552 44
-2.9424927 3.136941 1.5649759 41.25
1.9338341 3.1116884 1.6477329 38
-2.6184607 3.1882486 1.5835602 44
-2.164865 3.2210183 1.5608974 44.5
-2.0953848 3.2483306 1.6281914 38
-1.7665483 3.2814102 1.5670278 41
1.9421515 3.207056 1.6177809 47
-1.4266859 3.3053665 1.5627656 27.666666
1.9298413 3.3669 1.5810292 51
1.9140451 3.4671872 1.549253 49
-2.404964 -5.1541023 1.6995262 4
-0.93385917 -5.1292071 1.6769305 2
-1.4106904 -4.9955854 1.7362005 42
-0.58775151 -5.0666451 1.6979209 37
-0.38601696 -4.9776182 1.7536124 13
-1.4481124 -4.8264828 1.7336341 45
-0.39874437 -4.8017931 1.7658876 9
0.41331512 -4.8583021 1.7381424 9
0.52593666 -4.8121047 1.7420357 27
-2.2393491 -4.7788877 1.6701819 46
-1.997519 -4.7395663 1.6706873 47
-1.7916404 -4.715055 1.68125 51
-1.5518709 -4.7801747 1.7410718 42
-1.5510542 -4.6010585 1.7414232 45
-0.82321459 -4.5873947 1.7091016 51
-0.42852524 -4.6165667 1.7532254 1
-1.581038 -4.4527597 1.7405349 50
-0.62931365 -4.4606586 1.7623731 19
-0.46308255 -4.4834108 1.7518276 0
0.22024514 -4.4068894 1.7407166 10
-2.1362848 -4.2558608 1.6914493 3
-1.9306951 -4.2374086 1.697594 54
-1.6876395 -4.249424 1.7511071 48
-1.5922852 -4.2739134 1.7239451 51
-1.366799 -4.205791 1.7135941 56
-0.64840508 -4.2635255 1.7681184 7
0.45687777 -4.3339972 1.7648345 47
0.60786539 -4.2371135 1.7623225 54
-1.6912694 -4.1114426 1.7504128 52
-1.0181708 -4.1503124 1.7106084 44
-0.69095927 -4.0871072 1.7583567 9
-0.46129394 -4.1323051 1.7410117 8
0.41302162 -4.1670351 1.768458 21
-1.7268064 -3.9943025 1.7489587 54
-0.82860327 -4.0096054 1.7674304 26
-0.040321726 -4.0483227 1.7429577 1
0.17365755 -3.9540467 1.774459 54
0.34491068 -3.9737611 1.7607161 55
-1.7644058 -3.8261392 1.7403394 39.333332
-1.5321327 -3.8028686 1.7201375 55
-1.3522719 -3.808043 1.7246112 53
-1.1930593 -3.801681 1.7321872 55
-0.84391916 -3.8544326 1.7664381 16.5
-0.692267 -3.7868721 1.7489704 25
-0.53779519 -3.799541 1.7639757 0
0.14467539 -3.8177645 1.7706295 50
-0.99520671 -3.6246996 1.7770799 21
-0.88683248 -3.7389777 1.7671381 12
-0.064940214 -3.6070127 1.7769076 48
0.094866678 -3.6825104 1.7674857 53
0.45837462 -3.7008743 1.7520252 55
-1.4978108 -3.4616382 1.7313966 55
-1.3386083 -3.463321 1.7368749 61
-1.0120697 -3.5120769 1.7768397 13
-0.89256889 -3.4676893 1.7565275 35
-0.73720551 -3.4903991 1.7689902 6
-0.082455039 -3.5084364 1.7750074 56
0.19490127 -3.4531851 1.7559296 55
-1.675804 -3.4463501 1.7301465 5
-1.0553911 -3.4101863 1.7698332 11
-0.12323867 -3.4089756 1.7699685 58.5
0.31833357 -3.4339917 1.759786 57
-1.4639446 -3.1524997 1.7393597 59
-1.1267623 -3.2053039 1.7747446 17
-0.91104573 -3.1987288 1.7693642 6
-0.30123886 -3.1709363 1.7711278 59
-0.27244455 -3.2576995 1.776316 60
-0.037460167 -3.2157636 1.7586154 56
0.090343639 -3.2015271 1.7599496 56
0.20956583 -3.1875186 1.7607385 59
0.31096685 -3.1964543 1.7817804 30
-1.2018484 -3.1078415 1.771058 9
-0.38300455 -3.0729778 1.7747818 63.5
-1.2344892 -2.9277925 1.775314 17
-1.066812 -2.9423618 1.7810892 5
-0.48328647 -2.9150071 1.7727224 67.5
-0.44666865 -2.961549 1.7761272 66
-0.24333476 -2.9897671 1.7617704 61
-0.11143163 -2.9873712 1.7622617 59
0.064236224 -2.9802907 1.7695022 64.5
0.28506356 -2.8828609 1.7973727 66
-4.1282682 -2.79807 1.7269063 56
-0.61753738 -2.7097974 1.7831932 61
-0.58942038 -2.7435932 1.7834661 59
-0.42791939 -2.7810714 1.7689835 43
-0.2273868 -2.7904978 1.7714288 61.5
-0.055989135 -2.7845321 1.7749261 64
0.23524392 -2.7917206 1.7958075 65.666664
-3.6275573 -2.5932145 1.7417606 63
-3.5836565 -2.5737371 1.7468437 62
-1.3527131 -2.6356308 1.7743186 14
-0.64680976 -2.6905668 1.7786714 64
-0.521213 -2.5832 1.7723528 57.5
-0.32106543 -2.6070933 1.7767953 64
-0.20904535 -2.6062303 1.7790319 62
0.049450453 -2.6041677 1.7945856 63.5
-3.8391275 -2.4788783 1.7444471 62.5
-3.705981 -2.512454 1.7286104 66
-3.5481424 -2.5417876 1.742915 64
-3.2790406 -2.4319668 1.752973 54
-0.78049189 -2.4858778 1.7834755 64
-0.72773671 -2.5098503 1.7875561 58.666668
-0.53039783 -2.414711 1.7770859 61.5
-0.34676707 -2.4354646 1.7834133 74
-0.10501086 -2.4419684 1.7984999 66.5
0.24748988 -2.5119727 1.7959014 64
-4.1553898 -2.3971248 1.7415742 62.5
-3.45152 -2.3274741 1.7461082 58
-3.3494902 -2.2850003 1.7560439 59
-3.1897099 -2.2961915 1.7385038 71
-3.0016994 -2.3111484 1.7340113 63
-2.9561043 -2.3501964 1.7410301 47
-1.4705331 -2.3914387 1.7805589 0
-0.86701816 -2.2976303 1.7925369 30.666666
-0.73575532 -2.3734047 1.7740082 51
-0.5310446 -2.2590342 1.7811599 66
-0.24504223 -2.2784488 1.7962798 67
0.072270736 -2.3712399 1.7990178 62
-3.8539009 -2.1121454 1.7501994 62.5
-3.6958981 -2.18648 1.7420043 62
-3.5836463 -2.2066038 1.7528168 62
-3.4477029 -2.2247858 1.7392193 62
-3.1414864 -2.194237 1.7608544 52
-2.8654571 -2.1536388 1.7555748 43
-2.7499342 -2.2356901 1.7519194 43
-2.627785 -2.1574278 1.7390808 72
-1.230968 -2.1132252 1.7781831 5
-0.93416089 -2.1035993 1.7944204 69
-0.86535507 -2.1795192 1.7747902 54
-0.72679031 -2.2229149 1.781159 59
-0.58353871 -2.1091905 1.784113 72
-0.37136766 -2.1240487 1.7986611 74.5
-0.088190451 -2.2271914 1.797526 68
-4.17346 -2.0174699 1.7491593 62
-3.4778061 -1.9940028 1.7548536 50
-3.3732619 -1.9724994 1.7679447 49
-3.2639327 -2.046735 1.7538363 54.5
-3.030848 -2.0324302 1.7502658 67.5
-2.9988022 -2.0710454 1.7609795 47
-2.8089335 -2.015588 1.7510109 34
-2.6962311 -2.0331531 1.7659732 21
-2.5071042 -1.9711208 1.7598094 26
-0.96732116 -2.0718007 1.7862296 64.75
-0.84151626 -2.0427387 1.7791489 66
-0.69643879 -2.0219109 1.7865123 67
-0.4676705 -1.9634112 1.799179 79
-0.23336746 -2.0837622 1.7959245 66
-0.11102973 -2.0817049 1.7971979 64
-3.7624447 -1.8033407 1.7451361 60
-3.6533151 -1.8874266 1.7594509 53
-3.5406485 -1.8865395 1.7548436 52
-3.1577866 -1.8935103 1.7710489 27
-2.9081173 -1.8426236 1.7678008 10
-2.6964469 -1.9020689 1.7579008 23
-1.4532496 -1.8718363 1.7813693 18
-1.3194033 -1.9323107 1.7850655 27
-1.081292 -1.8799953 1.7887658 66
-0.98868328 -1.900983 1.7931212 64.666664
-0.79553211 -1.8696935 1.7912433 69.5
-0.6077168 -1.8310233 1.7964913 85
-0.56739318 -1.8139998 1.7991344 74
0.10404493 -1.9496773 1.7954289 150
-4.220942 -1.6620282 1.7609383 58
-4.1830359 -1.6601431 1.7607425 43
-3.8749828 -1.7715796 1.758078 50.5
-3.5194473 -1.6879117 1.7738174 6
-3.3804417 -1.7491384 1.7838879 7
-3.2844663 -1.7090263 1.7687219 5
-1.7172161 -1.6923317 1.7852737 46.75
-1.5824965 -1.738959 1.7873932 41.333332
-1.3965302 -1.754217 1.7873706 60
-1.121605 -1.7334926 1.795504 76.25
-0.9731245 -1.7386117 1.789673 70
-0.86351287 -1.665755 1.7928039 75
-0.70167106 -1.6863225 1.7965051 82
-0.59243768 -1.6641474 1.7990299 79
-3.5486348 -1.6097317 1.7775084 0
-2.331449 -1.5375745 1.7823287 10
-2.2164102 -1.6191938 1.7762238 21.5
-2.0469356 -1.5255195 1.7769891 9
-1.8165162 -1.5018363 1.793389 24
-1.6797 -1.5489697 1.7904181 51
-1.5981377 -1.5004436 1.7843024 28
-1.4665623 -1.5799905 1.7877704 70
-1.2328761 -1.5609931 1.7939399 75
-1.1557355 -1.5833864 1.7939934 75
-0.96604615 -1.5712223 1.7949659 70.5
-3.8291042 -1.4928916 1.7761372 0
-2.8297877 -1.4154556 1.766523 8
-2.4200442 -1.4718304 1.7810255 13
-2.2766359 -1.3671139 1.7760314 48
-2.2054493 -1.4290054 1.7793492 17
-1.8302526 -1.4580007 1.7923249 27
-1.7481022 -1.4455464 1.7890117 26.5
-1.533457 -1.4165376 1.7949036 29
-1.2635177 -1.4158677 1.7959909 36
-0.016869474 -1.4096628 1.7515396 16
-3.3316705 -1.2156481 1.7661597 9
-3.1037204 -1.2369543 1.7681634 24.5
-2.9662938 -1.2970316 1.7664044 12
-2.7419963 -1.2600609 1.7766296 50
-2.6473422 -1.26685 1.7706758 39
-2.4601612 -1.2357415 1.7821263 61
-2.31936 -1.2848058 1.7797445 54.666668
-2.1693292 -1.2704557 1.7827018 62
-1.8524404 -1.279971 1.78935 66
-1.7249706 -1.3006926 1.7901847 52.75
-1.5856929 -1.2460318 1.787901 71
-1.3006753 -1.2617595 1.7965089 69.5
-3.5422409 -1.088106 1.7709934 26
-3.3832214 -1.1248747 1.7718707 28
-3.1757107 -1.1074692 1.772266 39
-2.9210296 -1.1166564 1.7746681 58.5
-2.8288686 -1.1585594 1.7711865 53
-2.695646 -1.0500735 1.7813433 64
-2.5038652 -1.1964192 1.7810737 61
-2.3661387 -1.1134588 1.7832371 56
-2.1530447 -1.140215 1.7880589 62
-1.8998303 -1.0870861 1.7939352 65.666664
-1.7460617 -1.150458 1.7957538 69.333336
-1.6427696 -1.0892814 1.7974495 71
-3.7756829 -0.94216973 1.7721406 3
-3.6620271 -0.98674768 1.7779982 43
-3.5756304 -1.0114642 1.7692281 36
-3.3567607 -0.95115882 1.7778605 70
-3.0986977 -0.99575287 1.7758125 74.333336
-2.8765516 -0.92920303 1.7836062 69
-2.7605507 -1.0293952 1.7859274 67
-2.5185332 -0.98494244 1.7839378 61
-2.2970812 -0.99424201 1.7893125 60.333332
-2.1965754 -0.95140076 1.7889699 70
-1.8642213 -0.97363871 1.7948948 68
-1.7653675 -0.98251235 1.7994304 68.5
-3.8739557 -0.8639881 1.7856613 2
-3.3817782 -0.89145803 1.7861687 5
-3.1952765 -0.82494545 1.7832856 55.666668
-3.0364389 -0.79630756 1.7848614 67
-2.753571 -0.8189714 1.7893193 71
-2.4625912 -0.84646899 1.7882978 64.666664
-2.3079076 -0.81889129 1.7942461 69
-2.2384341 -0.76550156 1.7925035 71
-1.9680647 -0.88521814 1.7978215 69
-1.8897843 -0.84713799 1.7973336 66
-4.2599983 -0.65329564 1.7725825 61
-3.1784906 -0.69009626 1.7902323 6
-2.9090457 -0.69844234 1.7934086 37.5
-2.7817614 -0.62157267 1.7986737 8
-2.5867262 -0.73743194 1.7953159 65
-2.4636033 -0.66687679 1.7945175 65.5
-2.3405747 -0.66356206 1.7967907 71.666664
-1.9121319 -0.73683965 1.7977527 73
-2.7851503 -0.58476341 1.7993413 9
-2.5525661 -0.56172746 1.7910122 73
-2.3250101 -0.56225705 1.7973561 70
-3.3978803 -0.43296731 1.794577 5
-2.468863 -0.44865403 1.7963058 62
-2.3839395 -0.34637994 1.7997485 73
-2.4821579 -0.24087574 1.7976941 57
10.34122 2.0314441 1.6680137 1
-2.0853853 2.5030413 1.7568277 29
1.9604599 2.6921837 1.6669894 33
1.628027 2.720278 1.7852654 36
1.94875 2.8487945 1.7079223 34
1.9558383 2.7674098 1.6761197 35
1.9357289 2.9316549 1.6950963 35
-3.6538043 3.0627232 1.7594763 35.5
-3.3223004 3.1101642 1.7206676 3
-3.2646358 3.1259823 1.7905089 29
-2.9999914 3.1225276 1.6959471 41
1.5898354 3.0762849 1.7851096 38
1.9313014 3.0174239 1.6508063 35
-3.04773 3.1518204 1.6559669 38
-2.9770231 3.1541724 1.7721163 36
-2.4759893 3.1923764 1.7574741 45.5
-2.3188136 3.2100711 1.6773292 27.5
-2.0443776 3.253274 1.7283033 42
-1.7076256 3.2818294 1.7124559 43
-1.5428028 3.2890592 1.7385358 42
1.5708414 3.1982412 1.7961789 24
1.9378706 3.2137322 1.7429564 51
-1.444326 3.3077025 1.6501876 46
0.095160127 -2.6555171 1.8025198 67
-0.062162042 -2.4663947 1.8046479 71
-0.82686108 -2.3308208 1.8126043 20
-0.200489 -2.2843142 1.8038781 68.5
0.18509032 -2.3573918 1.8023795 62
-0.32250541 -2.1138003 1.8061329 73
0.085568279 -2.2158046 1.8029444 65.5
-0.5029009 -1.9814199 1.8004204 75
-0.43863365 -1.9566309 1.807959 74
-0.23795061 -1.9557316 1.8035313 69
-0.11805521 -1.9577174 1.8064448 68
0.058781672 -2.0303004 1.8057986 69.75
-0.48460323 -1.8048382 1.8003129 68
-0.38115168 -1.9055891 1.804562 72.666664
-0.2313914 -1.8325052 1.8042978 73
-0.052196853 -1.8704897 1.8071209 79.400002
0.0094160559 -1.8298521 1.8139366 75
-0.63931435 -1.6612171 1.8034418 84.5
-0.50382143 -1.7584726 1.8031539 80.666664
-0.33386883 -1.7090181 1.8024815 82
-0.23261517 -1.7107869 1.8050809 80
-0.095236443 -1.717225 1.8074383 80.166664
-1.1320275 -1.5554111 1.800938 76
-0.7884171 -1.5493835 1.8039826 86
-0.70820451 -1.5209063 1.8022174 80.333336
-0.57800245 -1.5999151 1.8073953 83.5
-0.36499906 -1.5625638 1.8106819 77
-0.22351596 -1.5929804 1.8115128 82.5
-0.066064268 -1.571173 1.8104029 79.400002
-1.2458596 -1.3992167 1.8013449 36
-1.128543 -1.4311044 1.8040612 44.5
-1.0114055 -1.3899674 1.801592 33
-0.80564111 -1.3938315 1.8106596 39.5
-0.68283993 -1.4281522 1.8135308 61.666668
-0.51205748 -1.4133157 1.8140594 56.25
-0.38560331 -1.4082826 1.8152628 51
-0.23868744 -1.4315114 1.8158112 69.166664
-0.089789644 -1.4315047 1.8130319 74
-1.3858715 -1.2266922 1.8000921 70
-1.276356 -1.2355441 1.8048209 72.666664
-1.1071634 -1.2863164 1.8015262 57
-0.9356904 -1.2728925 1.8118664 45
-0.83592749 -1.2420187 1.8114376 55.75
-0.69360113 -1.2788002 1.8132929 36
-0.52817583 -1.2804687 1.8169148 32.75
-0.36616197 -1.2744242 1.8185154 26.714285
-0.21114752 -1.2725662 1.8202664 36.200001
-0.073462516 -1.2819153 1.8167809 61.333332
-1.4044132 -1.0912439 1.8065372 72.333336
-1.280248 -1.1036948 1.8081281 75.25
-1.1335757 -1.1188434 1.8040808 89
-0.95295733 -1.1277242 1.8135166 90.333336
-0.84137654 -1.1104333 1.8135315 92.75
-0.65354651 -1.1094373 1.8147665 88.333336
-0.49958357 -1.1341431 1.8098774 62.42857
-0.36256447 -1.1331714 1.8098202 43.833332
-0.24234009 -1.1259165 1.8147241 47.25
-0.093683839 -1.1312566 1.8215939 62
-1.8182011 -0.96144098 1.8005222 72
-1.6912093 -0.93002164 1.800335 69
-1.4185343 -0.92871541 1.809418 74.800003
-1.282954 -0.98116219 1.8118078 77
-1.1199741 -0.994268 1.8147546 83
-0.95364571 -0.97589242 1.8177921 94.5
-0.83085251 -0.98534113 1.8185434 84.5
-0.66733223 -0.95727903 1.8134469 73.5
-0.52311265 -0.98313546 1.8130516 61.75
-0.3741748 -0.97251505 1.8142843 51.833332
-0.21483532 -0.99182642 1.8140869 43.25
-1.8311875 -0.79862154 1.8056567 74
-1.7617393 -0.79534107 1.8060747 71.5
-1.5049316 -0.80082077 1.8099533 73
-1.4228462 -0.77378684 1.8157295 77
-1.2950906 -0.84470135 1.8180629 82
-1.09939 -0.86332864 1.8196429 95
-0.97922885 -0.84019393 1.810907 83.800003
-0.81038088 -0.82136911 1.8172846 81.166664
-0.66983992 -0.82889026 1.8162738 79.333336
-0.54082245 -0.83884794 1.8160119 69.5
-0.38841757 -0.82801437 1.8191704 62.714287
-0.26911438 -0.83752072 1.8199364 54
-2.0050678 -0.69506454 1.8021314 73
-1.8659726 -0.64417529 1.8087595 73.75
-1.7790575 -0.61701262 1.8124665 70
-1.535809 -0.69125354 1.8162074 71
-1.4125937 -0.64431196 1.8191837 80
-1.2780137 -0.724042 1.8142549 84
-1.0951622 -0.69317132 1.8117558 77
-0.97823572 -0.67995751 1.8165886 79.400002
-0.82401681 -0.66650862 1.8167785 80.5
-0.66493726 -0.66253406 1.8181255 81.300003
-0.51921988 -0.6727457 1.819917 78.428574
-0.38087663 -0.68541551 1.8203539 70.5
-2.5189974 -0.46553344 1.8099049 7
-2.0136003 -0.49912047 1.8076011 73
-1.8664994 -0.49510661 1.812505 76.5
-1.5360991 -0.49717921 1.8193201 77.75
-1.3991899 -0.48092473 1.8251317 84
-1.3213332 -0.59382689 1.824138 80
-1.1559401 -0.51154518 1.8170894 75.400002
-0.98456889 -0.52757949 1.8189014 78.833336
-0.80903083 -0.51070297 1.8188308 79.333336
-0.6784538 -0.53676522 1.8222111 81.666664
-0.55109316 -0.50596625 1.8260094 80.599998
-0.4189989 -0.53090465 1.8247169 74
-2.41431 -0.42996487 1.8044041 72
-2.320905 -0.41699445 1.8183047 48.5
-2.0190394 -0.33046716 1.8103687 79.25
-1.8798872 -0.35894215 1.8176966 62.666668
-1.56234 -0.3409448 1.8245453 84.75
-1.4209328 -0.34147644 1.8276358 94
-1.2223233 -0.32108799 1.8222927 83
-1.1181743 -0.35878056 1.8315279 56.799999
-0.95268345 -0.37918779 1.8260564 65.125
-0.79689628 -0.38758984 1.8233887 79.400002
-0.67711651 -0.3705444 1.8247912 77.85714
-0.5241583 -0.36536005 1.8285376 74.5
-0.44292822 -0.39660153 1.8288375 76
-2.444109 -0.22900863 1.8068823 70
-2.3500459 -0.20175885 1.8083569 79
-1.8728995 -0.2883954 1.8184512 82
-1.5632857 -0.19602956 1.8270901 93
-1.4388626 -0.20180053 1.8311514 95.75
-1.2215376 -0.18496348 1.8228284 83
-1.1191697 -0.21807803 1.8241701 82
-0.98093241 -0.22815195 1.8234478 78.199997
-0.82005942 -0.23155205 1.8252859 74.900002
-0.66912448 -0.22635968 1.8297815 78.300003
-0.51429766 -0.21852534 1.8311383 76.800003
-1.5738506 -0.059511095 1.8307918 88.800003
-1.4333016 -0.073610015 1.8340292 97.333336
-1.2338896 -0.04964973 1.8270421 91.5
-1.1084136 -0.075215176 1.8280895 83
-0.98503119 -0.07594084 1.8244692 80.85714
-0.830082 -0.076906562 1.8279995 77.14286
-0.69371873 -0.061763693 1.8317623 77
-0.51395732 -0.058282275 1.8335668 74.333336
-1.652374 0.016178312 1.8347777 83
-1.5603086 0.10359782 1.8340949 88.333336
-1.4394093 0.063654378 1.8362428 99.333336
-1.238995 0.086321831 1.8296511 83
-1.1111236 0.076636553 1.8307272 80.400002
-0.98953134 0.081802115 1.8285848 80.25
-0.8332023 0.066361532 1.8304335 74.555557
-0.67507863 0.075247779 1.8342587 75.25
-0.51842815 0.055167574 1.8308274 83.666664
-2.4097118 0.17289975 1.8204283 78
-2.3977628 0.2416455 1.8083676 83
-2.123049 0.25935531 1.815683 82
-1.6597036 0.18306571 1.8349711 80
-1.5662098 0.23295337 1.8324339 87.5
-1.4269059 0.22736713 1.8398752 89.25
-1.2375717 0.22345099 1.8304899 81.5
-1.1284263 0.23009412 1.831612 79.800003
-0.98393095 0.21542487 1.8326921 79.599998
-0.84160399 0.22039358 1.8321978 80.375
-0.68301129 0.21917211 1.834422 78.666664
-0.51917964 0.20623836 1.8350689 79.5
-2.4226375 0.4079124 1.826063 29.5
-2.2975168 0.30930907 1.8123888 82
-2.0241547 0.40015763 1.8200577 86.75
-1.8841662 0.35270903 1.8269186 84.333336
-1.6615771 0.35212132 1.8363994 84
-1.5659246 0.39136136 1.8372638 84.25
-1.4337616 0.38939491 1.8419838 86.333336
-1.2277355 0.36173546 1.8278109 79
-1.1159949 0.38788658 1.8321974 76.400002
-0.98020601 0.36230955 1.835808 75.199997
-0.81119794 0.37467203 1.8328283 76.222221
-0.67726541 0.36056548 1.8364576 75.333336
-0.50626349 0.37793845 1.8402293 77
-2.4729085 0.58151811 1.8443686 60
-2.2915266 0.49760297 1.8174196 77
-2.1355548 0.46030962 1.8276407 78
-1.9866264 0.54615057 1.8223335 86.5
-1.8789324 0.52120048 1.8267974 87
-1.6579949 0.52334529 1.8390628 87
-1.5744087 0.53648436 1.8390499 84
-1.4240271 0.53337926 1.8438975 88
-1.2129858 0.50168169 1.8291287 64
-1.0996665 0.53902328 1.8509663 50.75
-0.96314168 0.5247153 1.8366696 72.5
-0.80506665 0.52779543 1.8372265 76.285713
-0.6664899 0.5082826 1.8374491 76
-0.52236956 0.53513181 1.8387911 78.599998
-2.7933218 0.71411836 1.8172399 80
-2.6010351 0.62039292 1.8490976 65.5
-2.5175941 0.60784888 1.828252 67
-2.3372698 0.66702247 1.8193449 61
-2.1334741 0.6638906 1.8288699 76
-2.0062327 0.67023152 1.8243053 84.25
-1.8679748 0.74006927 1.8271178 85
-1.794192 0.62294263 1.8295521 86
-1.5805657 0.66396677 1.8409938 83.25
-1.4501332 0.66780126 1.8463798 84.5
-1.2652435 0.67908394 1.8431759 89
-1.1140914 0.67637324 1.8422252 91.25
-0.97403175 0.66505849 1.8384237 71.400002
-0.80903643 0.67685348 1.8375427 72.166664
-0.67971087 0.67849004 1.8403914 71.699997
-0.53286391 0.67567366 1.844502 75
-0.44050196 0.67249191 1.8462352 79
-2.7317209 0.89496881 1.8441991 47
-2.6247251 0.83392817 1.8495612 59
-2.4998865 0.81259948 1.8373929 53
-2.3250518 0.8684727 1.8225219 59
-2.1235604 0.87112331 1.8277494 78
-2.0386407 0.81546491 1.832006 80.666664
-1.9361349 0.88131523 1.8194226 86
-1.7726601 0.78556812 1.8300153 84
-1.5685964 0.8310343 1.8407485 88
-1.4507103 0.80124778 1.8442951 86.666664
-1.3023876 0.84271824 1.8478023 87
-1.122612 0.81854677 1.8459703 88.75
-0.97202706 0.80935091 1.8454038 83
-0.83082086 0.83737361 1.8427045 78.400002
-0.67552143 0.83104354 1.8430891 75.25
-0.53863561 0.82574672 1.8428926 72.400002
-0.40792823 0.80994123 1.8479577 71.333336
-3.095192 0.91427636 1.8033115 2
-2.9492607 0.93116498 1.8198448 5
-2.7882607 0.94136906 1.818765 76
-2.611382 1.0295676 1.8163458 79
-2.4946365 1.0157157 1.8391839 80
-2.006942 0.97319728 1.8375868 77
-1.8457922 0.91872799 1.8291687 78
-1.7464398 0.95130354 1.8286465 77
-1.5326846 0.95483261 1.8444278 87.5
-1.4270488 0.9632892 1.8475863 82.666664
-1.2728316 0.98648119 1.8544189 85
-1.1334885 0.941149 1.8516681 90
-0.99463785 0.97125494 1.8516958 88.199997
-0.8226732 0.97966528 1.8529912 85.75
-0.65982407 0.97148287 1.8492849 82.428574
-0.52356172 0.95994991 1.8497101 83
-0.38133886 0.97149402 1.8520555 73
-2.5646214 1.0609629 1.8379112 7
-2.4837754 1.051908 1.8171653 74
-2.3617887 1.0661004 1.818153 78
-2.1769578 1.0843933 1.8263956 75.5
-1.9886798 1.1130971 1.8329877 81
-1.8649292 1.0897895 1.8272177 78.5
-1.7209632 1.1260791 1.8358043 83
-1.5470833 1.0944864 1.8409057 89.333336
-1.449443 1.1227216 1.8462176 81
-1.2784749 1.1163497 1.8461081 81
-1.0880395 1.0883287 1.8476877 80.5
-0.96894479 1.1090833 1.8511708 79.75
-0.82031626 1.116973 1.8564624 78.333336
-0.67780101 1.1164553 1.852898 80.5
-0.52787942 1.1102929 1.8579977 77.888885
-0.38077763 1.1192313 1.8608772 77
-0.25618541 1.151454 1.8612543 74
-2.5870697 1.2963812 1.8315006 55
-2.4892395 1.2710717 1.8326632 70.5
-2.3466692 1.2910128 1.8243464 81
-2.2272246 1.2931522 1.8283859 85
-2.0396597 1.274601 1.8341438 74.666664
-1.9137388 1.2988372 1.833553 73
-1.7367911 1.2987553 1.8382348 79
-1.569972 1.2461748 1.8457078 90
-1.4357704 1.2567464 1.8424977 81.666664
-1.2827017 1.2663329 1.8482538 88
-1.187834 1.2757822 1.8510894 77
-0.97838783 1.2461607 1.8481758 74.599998
-0.82180363 1.2519163 1.8557099 72
-0.65670508 1.2390957 1.852743 71
-0.52222896 1.2841723 1.8565608 73.428574
-0.37896061 1.2651588 1.8597156 70.166664
-0.25188231 1.2842073 1.861436 68.5
-2.7566705 1.4279518 1.8458298 37
-2.6457243 1.3681186 1.8516845 35
-1.990384 1.458715 1.8459063 36.666668
-1.8513937 1.498913 1.8441762 35
-1.7493665 1.4935378 1.8428427 42
-1.5891193 1.466248 1.8481338 40
-1.438798 1.4057758 1.8479768 63.25
-1.2760355 1.4295659 1.8456215 62
-1.1369987 1.4261427 1.8487822 75
-0.97417539 1.3947982 1.849309 78
-0.85231173 1.4012721 1.8535044 71
-0.64055318 1.4136058 1.8529093 66.25
-0.49097458 1.437256 1.8552228 69
-0.36449856 1.4132265 1.8597332 70.375
-0.21515313 1.4252189 1.8613098 71
-0.11433905 1.4320484 1.8651814 66
-2.6087844 1.5927166 1.849085 70.666664
-2.4920125 1.5275712 1.8441284 72
-2.3287966 1.5286677 1.8349258 70
-2.2079506 1.5178496 1.8407358 43
-2.0244598 1.5972739 1.8562635 73.5
-1.9414203 1.547155 1.8524042 55
-1.3997154 1.5871507 1.8588929 48.666668
-1.2641219 1.6210449 1.8579398 43
-1.1306243 1.5999805 1.8620273 30
-0.91731769 1.5357882 1.8543481 29
-0.82288569 1.5665359 1.8583444 27.4
-0.71919918 1.524971 1.856495 26
-0.54666787 1.567366 1.8595811 34.333332
-0.38380718 1.5626107 1.8591757 35.599998
-0.23499727 1.5606829 1.8646355 44
-0.1144457 1.5892315 1.8668396 36.599998
0.0067961933 1.5812845 1.8684157 29
-3.3037331 1.7375591 1.8382629 83
-3.1283286 1.7899659 1.8377897 83
-2.9424019 1.7387965 1.8364767 84
-2.7440362 1.6998467 1.848914 81.5
-2.5398979 1.7855853 1.8644356 75
-2.3020222 1.7785448 1.8431758 74
-2.1761096 1.747828 1.845066 81
-2.0039992 1.7229178 1.861132 70
-1.8849983 1.7514381 1.8575026 71.666664
-1.7024385 1.6998624 1.8476251 75
-1.6040055 1.6864384 1.8534545 67
-1.4285187 1.6962894 1.8621768 71
-1.342645 1.78259 1.8689882 73
-1.1074183 1.7821527 1.8609766 67
-1.0184976 1.7544278 1.8624893 62
-0.79017901 1.7224867 1.8600407 60
-0.6868329 1.709879 1.8598183 59.333332
-0.47252542 1.7169429 1.8686274 44.5
-0.36967814 1.7191148 1.8652506 50.25
-0.23179929 1.7191485 1.865393 50.333332
-0.063838646 1.7250444 1.8706266 46.5
0.068125904 1.7510514 1.8767638 45.75
-3.3287134 1.8377306 1.8329095 72
-3.2326736 1.9044185 1.8703915 3
-3.1334417 1.8428879 1.8720402 72
-2.5994499 1.8797263 1.8557177 75
-2.4304028 1.8101859 1.8392729 68
-2.042274 1.806036 1.8617824 71
-1.9460827 1.8853707 1.8625118 74
-1.6520886 1.9263352 1.8604282 78
-1.5520706 1.8938833 1.8622466 76
-1.4268833 1.8635603 1.8673481 75
-1.3149134 1.8590767 1.8626251 68.5
-1.1918639 1.8089883 1.8590387 63
-0.94561493 1.926397 1.8659199 64
-0.75500661 1.8621773 1.8613914 61
-0.65955484 1.8994653 1.8633511 59
-0.56051189 1.8252788 1.8689097 61
-0.37003633 1.8730365 1.8695185 62.5
-0.20016082 1.895483 1.8694718 59
-0.03800403 1.85859 1.8728182 65.75
0.086951017 1.8790445 1.8743749 65.5
0.18382998 1.8784446 1.8742647 65
0.30437839 1.9440103 1.8816153 61
10.390776 1.8240125 1.8606478 1
-2.9425154 2.0479832 1.8478113 85
-2.733748 1.9961476 1.8570887 79.5
-2.5467122 2.0814953 1.8721474 73
-2.3277893 2.0625091 1.8423311 75
-2.1400175 1.9939327 1.8510824 74
-1.9829373 2.0231218 1.8654796 70
-1.8816016 2.0177002 1.8629849 67.5
-1.7519578 1.9587555 1.8586084 70
-1.3600907 2.0925965 1.8778454 77
-1.2804494 2.0128915 1.8695149 70.333336
-1.1112365 2.0101924 1.8663865 59
-1.0300622 1.9702687 1.8683153 65
-0.65761936 2.0327358 1.8653075 61
-0.54436338 2.0335004 1.8683859 58.75
-0.30362695 2.0700078 1.8742052 54
-0.22864233 1.9645171 1.8700563 65
-0.08430697 2.0425019 1.8737643 60.200001
0.083668329 1.996832 1.8752729 67
0.22337689 2.0244424 1.8807937 62.833332
0.36159086 2.0614989 1.8829041 60.333332
-2.5882292 2.1705475 1.8739699 71
-2.5393269 2.140517 1.8412129 71
-1.9175439 2.1987267 1.8707306 72.5
-1.6839558 2.2045937 1.8623444 69
-1.5864295 2.1561046 1.863639 69
-1.4887125 2.1086354 1.8671523 74
-1.2623054 2.1933296 1.8762678 62.666668
-0.97868907 2.191699 1.8711225 62
-0.8623172 2.1056204 1.8673707 63
-0.53002417 2.1632872 1.8688178 56.25
-0.38250512 2.1725135 1.8722039 53
-0.19411284 2.2238832 1.8749732 55
-0.056046285 2.1339703 1.8754429 63
0.041786749 2.1968546 1.8773286 62.25
0.21233611 2.1560981 1.8829741 65
0.36762464 2.1620641 1.8872302 61.799999
0.49493191 2.201117 1.888767 61
-2.9275084 2.3734746 1.8517805 70
-2.748764 2.2851224 1.8545736 82
-2.6664596 2.3068454 1.8842661 70
-2.3518486 2.3915713 1.8476647 64
-2.2174375 2.3150399 1.8464211 68
-2.0921171 2.2503164 1.8518063 76
-1.9049928 2.3366432 1.8711793 75
-1.7922395 2.250802 1.8607687 76
-1.413857 2.3336618 1.8681501 65
-1.2417635 2.3396177 1.8768023 62
-1.1025202 2.2705529 1.8702744 61
-0.80463636 2.3392258 1.8796114 63
-0.46196544 2.2909739 1.8766513 56.5
-0.41684854 2.3630834 1.8794436 56.5
-0.25615939 2.3488884 1.8807639 51.5
-0.071134567 2.3930175 1.882501 61
0.11246094 2.2843246 1.8803601 65.5
0.1892471 2.3479366 1.8822075 18.75
0.34966415 2.295161 1.886042 33
0.5325309 2.2984502 1.8898801 61
0.65201759 2.3263831 1.8922232 55
0.77182728 2.3929746 1.8913585 56
-3.1210983 2.4744577 1.8521596 69
-2.5781717 2.4715848 1.8946214 56
-2.5027838 2.4716864 1.8509415 70
-2.0139081 2.4923053 1.8231753 24
-1.8672327 2.4886632 1.8756404 63.5
-1.6957572 2.5072727 1.84275 75
-1.5547054 2.4295263 1.8634456 63
-1.1695013 2.4809613 1.8787053 57.5
-0.94665277 2.4666333 1.8712587 56.5
-0.66206414 2.5069234 1.8837839 59
-0.3388145 2.4594948 1.8802147 54
-0.28188458 2.5455842 1.8824984 52
-0.10041015 2.4794366 1.8820232 55
0.85973155 2.4622416 1.8953093 56
0.9547146 2.5196407 1.8951322 54
-3.2553177 2.6079226 1.8956461 61.5
-2.7288013 2.6168196 1.8610772 70
-2.6199107 2.6101134 1.8925582 58
-1.8503289 2.6411788 1.8782597 73.5
-1.4203447 2.6626487 1.8729619 65
-1.330866 2.5809462 1.875343 54
-1.1498942 2.5971556 1.8835858 58
-0.78287619 2.6668532 1.8791965 53
-0.72351289 2.5883703 1.8827006 55
-0.21314572 2.6424198 1.8848896 48.75
-0.12770057 2.5738232 1.8885986 27
1.0036715 2.5772061 1.8966857 49
1.0925441 2.6258483 1.8993087 51.5
1.2177775 2.6673448 1.9012755 50
-3.5087094 2.8488014 1.9092723 65
-3.3701582 2.7737408 1.8794769 61.5
-2.9092617 2.7301283 1.8564831 63
-2.6134543 2.7458134 1.8977883 55.5
-2.4528601 2.8261867 1.8564576 61
-2.3031702 2.72506 1.8579773 89
-1.9842329 2.8465269 1.8697559 80
-1.8113469 2.7512102 1.8805 71
-1.5597556 2.7890587 1.8678379 65
-1.2312711 2.8376153 1.8754429 70
-1.0698298 2.7762029 1.8815304 63.333332
-0.85293484 2.7490778 1.8775939 66
-0.56519431 2.7675238 1.886077 57.5
-0.12986551 2.767921 1.8797854 61
1.1371739 2.766232 1.9250358 19
1.271497 2.7368557 1.9098469 44.25
1.4220983 2.8014834 1.9111191 46
1.5649818 2.8161659 1.8777367 46.75
1.9349546 2.8357193 1.8361145 25
-3.5959167 2.9484117 1.852729 64
-3.2619331 2.9958367 1.9137012 62
-3.1086152 2.8609698 1.8563234 63
-2.702997 2.9806767 1.866778 65
-2.5835562 2.9386048 1.8993864 56
-2.1076512 2.9563096 1.8633474 77
-1.8046666 2.9282875 1.8925842 71.5
-1.7719917 2.9844768 1.893309 65
-1.3168792 2.9464617 1.8782784 63
-1.0123541 2.8987033 1.8849546 55
-0.63884509 2.909668 1.8835911 59
-0.40037644 2.9498637 1.8923842 64
-0.068025991 2.8521268 1.8913041 4
1.0439786 2.865571 1.905816 39
1.1398045 2.9575 1.9042577 50
1.3357726 2.9191616 1.9141299 51
1.3866316 2.8783612 1.9093267 45
1.589543 2.9211903 1.8912901 47.333332
1.7562919 2.9703279 1.8394898 24
1.8712922 2.9107857 1.8439857 47.5
-3.3202584 3.0582047 1.8640285 31.333334
-2.8702786 3.1032705 1.8477906 21
-2.6246684 3.0941811 1.8987273 44
-2.2406571 3.084898 1.864904 61
-1.7439555 3.1032443 1.8913089 69
-1.4038043 3.0612888 1.882985 65
-1.1223186 3.1356351 1.8899821 75
-0.95119876 3.0741613 1.891261 59.333332
-0.6991725 3.0181847 1.8870889 67
-0.43736896 3.0619488 1.8917853 65
1.2875983 3.0604877 1.908774 49.666668
1.430518 3.1324956 1.9130191 48
1.5883763 3.0643978 1.8997151 52
1.8381987 3.0965514 1.8398283 48
-2.4992828 3.171458 1.8580687 21
-2.3763108 3.1953022 1.8484536 9
-1.991284 3.2422035 1.818014 22
-1.9059142 3.1727152 1.8686816 53
-1.6825875 3.2444153 1.8550922 33.333332
-1.4993794 3.1738498 1.881364 60
-1.1951439 3.2537527 1.8834018 55
-0.88709313 3.2101796 1.8922573 54
-0.47362795 3.1830919 1.8964235 57
-0.23989676 3.2051423 1.9026977 4
1.5423802 3.1925614 1.9000136 52.666668
1.7423079 3.2362537 1.8430827 29.5
1.8831719 3.2732816 1.8382781 52
-0.9893958 3.449223 1.8962067 11
-0.80149889 3.3389814 1.8620564 8
-0.52045715 3.3069544 1.8993658 52
1.9102914 3.413517 1.8563865 63
-0.73924613 3.5634136 1.9062032 50
1.8945324 3.5262222 1.8608309 37
-1.0552429 3.6015778 1.8962735 55
-0.67350519 3.6643021 1.9130398 4
-1.1194128 3.7629855 1.8974427 60
-0.83542633 3.8023989 1.9072121 61
-0.62631696 3.7999139 1.907678 3
-1.197571 3.9320138 1.895409 61
-0.88476413 3.9761539 1.9023331 62
-0.93779987 4.1748891 1.9074703 58
-0.65191853 4.1953912 1.916284 64
-1.0072482 4.4233184 1.9276787 33
-0.68406534 4.4005585 1.9130868 63
-1.3498781 4.5545573 1.926983 11
-0.71720505 4.6207676 1.9111506 59
-0.76484174 4.9027224 1.9239887 4
-1.2942712 4.7366347 1.9513754 18
