# .PCD v0.7 - Point Cloud Data file format
VERSION 0.7
FIELDS x y z intensity
SIZE 4 4 4 4
TYPE F F F F
COUNT 1 1 1 1
WIDTH 63
HEIGHT 1
VIEWPOINT 0 0 0 1 0 0 0
POINTS 63
DATA ascii
-0.18205871 2.6252697 -0.77091497 5
-0.14757945 2.6741929 -0.76879495 5
-0.092648208 2.7570009 -0.76422769 3.3333333
2.093261 -0.89036542 -0.69820267 2
1.9969392 -0.66439039 -0.65460294 9
2.0473053 -0.52526522 -0.68819106 5
2.0421665 -0.39294958 -0.68102318 59.666668
2.0272222 -0.25965816 -0.6783005 75
2.0120599 -0.081405312 -0.68990427 76
1.9951707 0.089161813 -0.68937707 64
1.9796568 0.22690585 -0.68807733 103
1.9679447 0.36528826 -0.6844511 47.5
1.9571419 0.50523102 -0.67733604 44
1.9337907 0.67163295 -0.64270157 90
1.9591994 0.62390006 -0.6897673 4
1.9201678 0.77734566 -0.663912 43.333332
1.6020691 1.0094299 -0.6353057 39.5
1.774215 1.0187147 -0.62870419 46
1.8999325 0.97655505 -0.67752802 55.25
1.4793363 1.1557333 -0.62153339 90.5
1.4594343 1.24248 -0.62319624 75
1.8400593 1.7380391 -0.63629794 84
-0.13401081 2.7473109 -0.74958605 5
1.7569072 -0.45602521 -0.58782548 11
2.0333641 -0.41263837 -0.48306704 57
2.0376377 -0.28083086 -0.49900633 83.5
2.0122612 -0.097476505 -0.49261272 82.666664
2.0002904 0.065339863 -0.48718482 86.25
1.9824998 0.22394855 -0.4931151 90
1.9646555 0.39905131 -0.51225656 86.333336
1.9611191 0.59621447 -0.49490455 98
1.935691 0.74199545 -0.47365737 98
1.1037492 0.84391493 -0.47506338 2.5
0.95636636 0.9572466 -0.45544833 16.5
1.4899936 1.0102069 -0.56633568 66
1.747937 1.0263731 -0.55147833 33
1.9180999 0.9595077 -0.59717584 104
1.124254 1.0945017 -0.48582843 0.5
1.2745057 1.1331068 -0.54130685 88
1.4726013 1.1137774 -0.57552618 69.333336
1.4600348 1.2805941 -0.57565004 77
1.6125727 1.764415 -0.55089933 4
1.6553856 1.7527641 -0.50122344 5
1.821758 1.7585498 -0.57856518 87
1.7871218 1.809608 -0.58869809 63
-0.92194778 5.1874809 -0.52814245 5.5
-1.0571464 6.9471259 -0.47894898 5
-0.95591426 6.9537683 -0.45911026 3
1.8893769 -0.66578501 -0.42084631 5
2.0601068 -0.60392004 -0.4472031 6
2.0341048 -0.37263736 -0.42631638 77
2.0252249 -0.20395565 -0.43643785 80.333336
2.0080078 -0.011047769 -0.44838899 87
1.9671391 0.39358181 -0.44737506 89.5
1.9579006 0.54534322 -0.42811176 97.666664
1.9397999 0.67300057 -0.41843992 91
1.0834378 0.89238799 -0.4360182 54
1.9258593 0.89575613 -0.44707811 109.5
0.89366263 1.0143622 -0.43616521 1
0.95571291 0.96539402 -0.40819302 11.5
1.8773668 1.0367098 -0.4118652 59
0.27282393 1.1467799 -0.40433034 6
0.91467565 1.1085215 -0.42546153 68
