# .PCD v0.7 - Point Cloud Data file format
VERSION 0.7
FIELDS x y z intensity
SIZE 4 4 4 4
TYPE F F F F
COUNT 1 1 1 1
WIDTH 36
HEIGHT 1
VIEWPOINT 0 0 0 1 0 0 0
POINTS 36
DATA ascii
0.68035501 2.2192516 -0.7733795 16
0.77701563 1.6185521 -0.60089135 152
0.73591405 1.9072962 -0.62850755 72
0.81798548 1.9006605 -0.65611309 77.75
0.93116766 1.8953733 -0.70698339 64.666664
0.72297531 1.9758115 -0.70435435 58
0.68441743 2.2374444 -0.64891642 62
1.5322027 -0.18448791 -0.48886549 70.5
1.5093627 -0.064837299 -0.4732883 79
1.487034 0.075921081 -0.49677086 80.666664
1.4553025 0.22304749 -0.47696418 79.199997
1.4309713 0.37701106 -0.4820801 83
1.4094296 0.51365721 -0.48970348 88.5
1.3863163 0.64337772 -0.4813194 90.666664
1.3605449 0.77490747 -0.46578598 87
0.86588389 1.1378362 -0.47233403 17
1.0147669 1.1442056 -0.5223484 38
1.1173192 1.1593653 -0.56213325 52
1.2103853 1.1704848 -0.58208352 46
0.25127745 1.3284882 -0.45702222 9
0.34087342 1.4084049 -0.47889957 62
0.70559114 2.0340047 -0.58887917 88
0.69516665 2.1469858 -0.59661984 59
1.5419743 -0.23272701 -0.42658207 42.5
1.5112801 -0.076985918 -0.41868925 75.333336
1.4835804 0.07298778 -0.421875 77.199997
1.4607637 0.21636912 -0.42587829 80
1.4295565 0.37005132 -0.42266965 84
1.401278 0.53823996 -0.42889822 90.75
1.372735 0.70528883 -0.42649713 85
1.3380301 0.86630046 -0.43307954 85
1.3290992 0.95913577 -0.42009205 80.5
-0.44366154 1.33278 -0.41903991 1
0.23510985 1.301887 -0.43536964 15.25
-0.43084264 1.7035124 -0.41166288 24
-0.76537091 3.4826343 -0.44291133 38
