# .PCD v0.7 - Point Cloud Data file format
VERSION 0.7
FIELDS x y z intensity
SIZE 4 4 4 4
TYPE F F F F
COUNT 1 1 1 1
WIDTH 1235
HEIGHT 1
VIEWPOINT 0 0 0 1 0 0 0
POINTS 1235
DATA ascii
-0.63220382 -0.64874721 -0.15088956 13
-0.51279515 -0.62285709 -0.17217107 8.8888893
-0.39410543 -0.60394895 -0.17170863 8.5
-0.36557427 -0.59160227 -0.17138621 9.125
-0.24555074 -0.55422604 -0.17098504 6.8888888
-0.082791962 -0.52731639 -0.17930488 8
0.083763517 -0.49872023 -0.17181419 9.7142859
0.1975615 -0.47928029 -0.16469321 9.8571424
0.31207585 -0.46993223 -0.16834787 9
0.6566599 -0.33763361 -0.18696767 0
0.93100154 -0.35687435 -0.18172124 0
1.1301943 -0.32649958 -0.17612897 8.5
0.57889378 -0.29025638 -0.16885814 0
1.5179148 -0.20349607 -0.16595259 74
1.4903431 -0.0063492628 -0.18358228 70
1.5059946 -0.10439378 -0.17649597 73.5
1.4701579 0.088609189 -0.18668352 69.5
1.4436094 0.23147045 -0.18341108 72.5
1.4205236 0.37349921 -0.17282864 81
1.394627 0.52022123 -0.17798531 82.333336
-0.63737357 0.71767074 -0.17380439 0.33333334
-0.58946776 0.73248899 -0.19840328 0
1.3683766 0.68595076 -0.1696424 80.666664
-0.65321904 0.83639997 -0.19204368 0
-0.52853495 0.7973941 -0.17199475 0.33333334
1.3378673 0.84509385 -0.16893908 84
1.352626 0.80478168 -0.19154352 82
-0.30237696 0.93028039 -0.17484307 16.333334
-0.26345649 0.93735677 -0.18530931 18.4
-0.042733032 0.97885501 -0.16663581 13.75
0.045384128 0.99428397 -0.18694298 14
0.41647014 0.98849559 -0.16456959 0.5
0.51402813 0.95945662 -0.17451155 0
1.3292632 0.91641349 -0.15431944 43
-0.35518545 1.1423529 -0.15408877 1
0.56683612 1.0578543 -0.18761817 2.5
0.66062832 1.1031342 -0.19071704 3
0.90129429 1.1304712 -0.15801808 41
1.0799801 1.1603955 -0.18578407 35
1.2852061 1.1342146 -0.17289293 83
-0.48881859 1.2511847 -0.16673879 16.714285
0.24581929 1.3261304 -0.18572742 0
0.30236864 1.3942252 -0.15997368 16
-0.50014991 1.6471614 -0.19011825 27
0.41018099 1.8241819 -0.15842596 65
0.50361139 1.899974 -0.16696417 83.666664
0.68585253 2.1417229 -0.18549639 75
-0.95524967 3.4493158 -0.18601488 3
-0.89559025 -0.7451604 -0.0062226402 7
-0.63783133 -0.65098679 -0.11490214 11.5
-0.5174107 -0.62056249 -0.10173856 9.304348
-0.42080611 -0.60407054 -0.089817889 9.3999996
0.67265677 -0.64360428 -0.055665407 1
0.85283989 -0.69556606 -0.060999788 3.5
0.91942984 -0.73922193 -0.063490458 9
1.1343895 -0.66613662 -0.078796297 38.333332
-0.35812968 -0.58056784 -0.062337149 8
-0.22891708 -0.5593248 -0.069402874 9.4399996
-0.067118563 -0.52272844 -0.072108425 10.190476
0.07777968 -0.4974049 -0.060859937 9.4285717
0.21291457 -0.47477886 -0.061681349 7.8518519
0.3106384 -0.47100776 -0.10171682 8.8888893
0.52837336 -0.51950759 -0.061133433 2.5999999
0.65974408 -0.54736334 -0.056693181 1.6666666
0.83671707 -0.49736935 -0.051204447 1
0.98498476 -0.55758947 -0.044619519 0.5
1.1135714 -0.54241854 -0.084169947 28.5
0.38830981 -0.42942101 -0.067153201 4.1999998
0.5188548 -0.42014581 -0.063694321 4.5454545
0.65804487 -0.393902 -0.052688904 3.9000001
0.82430458 -0.39719039 -0.048483897 2
0.5655365 -0.26317328 -0.094538413 0
0.94636911 -0.29238296 -0.017233437 0
1.5226852 -0.22373961 -0.063262098 64.166664
1.4934484 -0.041591 -0.084049754 70.833336
1.5069323 -0.13175137 -0.085289687 74.199997
1.4662971 0.069199063 -0.069097668 66.444443
-0.80224103 0.21903579 -0.051044688 0
1.4480313 0.21365227 -0.09345796 74.272728
1.4173741 0.37847599 -0.079858683 75.900002
1.3943766 0.52221125 -0.080756493 79.666664
-0.91802293 0.70021802 -0.021043008 0
-0.82878482 0.74676102 -0.041653015 1
-0.68370736 0.69886118 -0.12776439 0
1.3481585 0.73250079 -0.014087354 86
1.3634953 0.67966539 -0.069718331 79.444443
-0.83634818 0.76452589 -0.045768894 1.5
-0.66080225 0.79800433 -0.056426525 1.6
-0.53167295 0.8177045 -0.079003349 1.8095238
1.3383994 0.8174153 -0.075042076 76.833336
-0.4791553 0.99411261 -0.071038105 3.5
-0.37113029 0.942191 -0.10831735 9.2222223
-0.19923708 0.94649762 -0.093000337 13.8
-0.082594 0.96539778 -0.11450609 11.941176
0.056253735 0.99082828 -0.11080845 14
0.23379669 1.0224783 -0.068955302 6
0.39812195 0.94454396 -0.079613835 1.8
0.56546986 0.9884032 -0.083020493 3.25
0.67373687 1.0376339 -0.019365406 0
1.3094304 0.98166656 -0.071058914 75.099998
-0.56239665 1.176181 -0.11434174 1
-0.38830477 1.1250918 -0.10771374 2.2
-0.040418822 1.1325318 -0.00013155222 0
0.13590734 1.1783417 -0.14692478 13
0.27796108 1.0829855 -0.080882765 1
0.37503523 1.1063144 -0.076413952 1
0.73710287 1.0567409 -0.0021946328 5.5
0.81735808 1.0721085 -0.036070649 2
0.96735764 1.1376349 -0.075878717 34
1.0977086 1.1531605 -0.060481846 63
1.2749832 1.1341981 -0.057354849 73.199997
-0.53915721 1.2397877 -0.11970759 11.25
0.25734794 1.3238329 -0.075034238 20
0.40333557 1.2003043 -0.074395277 1
0.50434464 1.2889071 -0.069634266 16.666666
0.25449151 1.380739 -0.085016407 11
0.5610646 1.3524197 -0.070426859 20
0.67719215 1.4275843 -0.080674946 10
-1.0777817 -0.62007868 0.11044522 0
-1.0481977 -0.62636542 0.092563264 1
-0.50363398 -0.61337996 0.05725199 8.8823528
-0.4177092 -0.60148275 0.1064172 9
-0.47180808 -0.59551185 0.12311212 4
-0.373245 -0.58397228 0.080592103 8.1578951
-0.2284876 -0.55574191 0.091670044 11.923077
-0.084655672 -0.52623862 0.073373899 8.9354839
0.083996572 -0.49551007 0.033629857 8.3076925
0.19674656 -0.47620001 0.011292827 5.5999999
-1.079649 -0.16646643 0.13439816 3.5
0.97119194 -0.27853259 0.05978395 2
1.5160625 -0.21317092 0.034143727 47.599998
-1.0524696 -0.12458141 0.074998073 5
-1.0273017 -0.086734347 0.10333334 2.7
1.4835112 -0.038160175 0.027520055 60.75
1.5106773 -0.087428786 0.084889658 37.57143
-1.0045813 0.078062065 0.078660019 0
1.4472769 0.074314401 0.068083659 39.307693
-0.98740727 0.16263971 0.12210163 0
-0.87531769 0.22233385 0.11867559 0
1.4144082 0.22650018 0.06024266 46.866665
1.4065365 0.37308308 0.066143811 44.833332
1.3837172 0.52079028 0.047134679 27.75
-0.92492247 0.71790934 0.051988285 0.33333334
-0.8441152 0.72977191 0.074758545 1.2105263
-0.70327479 0.70502394 0.133229 0.5
-0.55744672 0.73642778 0.13761953 0
1.3639611 0.64068079 0.042142868 36.5
-0.77921391 0.76017642 0.031776279 2
-0.66351724 0.77015758 0.068681508 1.9090909
-0.53454995 0.79980618 0.062610157 1.6666666
0.3983762 0.89372516 0.0041202409 0
0.45616418 0.89853477 0.14280093 1
1.3279052 0.84754276 0.028956776 58
1.4566592 0.81320453 0.11394798 26.666666
0.39438286 0.91426516 0.052322183 0.33333334
0.54462606 0.97801971 0.054674923 3
0.72059804 1.0378637 0.067894556 4.75
1.2893977 1.0465065 0.032709923 45
1.3988509 0.98067325 0.099208541 36.25
-0.057368953 1.1610616 0.00014009594 0
0.74290377 1.0554794 0.046896216 5
0.8129335 1.0686438 0.01234668 3
1.2765174 1.1459069 0.018197367 73
1.4244318 1.1449815 0.14403886 14
-0.53412753 1.344581 0.08797285 12.666667
1.0853652 1.2482564 0.069556758 10
1.2533244 1.2415713 0.052230671 30.666666
-0.4793683 1.3672065 0.064206608 1.3333334
-0.17579657 1.557803 0.12750086 2
-0.10698449 1.5688181 0.13166535 3.5
0.3403174 1.5194011 0.12442327 33.333332
0.72352153 -0.76441264 0.2089237 1
0.82387167 -0.76276773 0.23904122 0.8888889
0.92861301 -0.7540319 0.24294358 1
-1.2580251 -0.66521513 0.26846042 1
-1.1471298 -0.6873889 0.21529406 0
-0.51564211 -0.61251765 0.20569746 6.3571429
0.87722319 -0.74732322 0.26705575 0
0.94558668 -0.74395823 0.26001358 0
1.6652571 -0.65732563 0.26243517 19.25
-1.2002784 -0.59972751 0.28886062 0
-0.3790985 -0.58702558 0.22602201 8.916667
-0.22853391 -0.55588114 0.23023213 7.9310346
-0.1167338 -0.53514004 0.18491131 7.2222223
1.7307529 -0.59811866 0.25049591 39
1.7939622 -0.35108486 0.26389748 71
1.8084157 -0.36105597 0.22180057 1
-1.2311264 -0.19734751 0.28175926 2.3333333
-1.1874409 -0.23001301 0.23821282 1.5
1.7780488 -0.29373941 0.194821 0
1.8303574 -0.21864322 0.23556034 14.428572
-1.2175721 -0.026483508 0.26507893 0
-1.0652903 -0.085062109 0.16383839 0
1.557623 -0.063448071 0.15115386 4
-1.2347243 0.085373551 0.27135646 0
1.4108763 0.084440306 0.16000222 21.25
1.4231019 0.24669491 0.17304561 47.5
1.4095575 0.367504 0.18606949 36
-0.78772837 0.72186148 0.24679971 0
-0.66879892 0.7144056 0.239401 0.33333334
-0.83753455 0.78174239 0.25459933 0.5
-0.62966675 0.80471158 0.27524561 1.2307693
-0.58203846 0.82807606 0.25622514 1
0.42779005 0.8846423 0.16974238 1
0.49585521 0.88867038 0.17135531 1
0.60169661 0.88600534 0.21504694 1
1.4512451 0.82140094 0.15728295 20
1.6047761 0.79803753 0.16225103 25.5
1.6741539 0.79136115 0.19081864 0.5
0.42369825 0.97358328 0.23895082 1
0.5500598 0.95917583 0.23923929 1.875
0.65903193 0.9544366 0.19320798 2.1428571
1.5509526 0.94167596 0.19445141 23.333334
1.3187599 1.0980673 0.2485247 6.5
1.4764086 1.1560656 0.15843457 15
1.586833 1.1356289 0.23166043 28.5
-0.52230018 1.2776371 0.24051487 0
-0.4526228 1.3725183 0.18243712 9
-0.43186229 1.3950958 0.23740239 4.4000001
1.4751098 1.443635 0.24147964 17.5
-0.24039343 1.5399702 0.15617344 5
-0.09842886 1.5671425 0.15888655 3
0.12236102 1.6137252 0.22888017 24
0.26032388 1.6275328 0.18222567 3
0.36214939 1.5521077 0.21700194 4.5999999
0.52473098 1.5592737 0.2051338 3.3333333
0.82202703 1.5958434 0.29104626 3
0.13678525 1.7221481 0.29998088 6
0.23466115 1.7325552 0.26020104 2
0.3263346 1.7413261 0.26599681 0.5
0.57060546 1.6687756 0.16776145 2
0.73812526 1.7014729 0.16417938 16
0.73688865 -0.77024209 0.32659546 1
0.81832153 -0.76265001 0.33509028 0.5
1.5959109 -0.75860906 0.37916115 32
1.7511725 -0.81116706 0.35842019 68
-0.50229663 -0.61349297 0.39529666 7.1999998
-0.44221601 -0.60637832 0.35081717 6.3333335
1.600333 -0.68748206 0.35368937 35.400002
1.6681517 -0.6028921 0.31308085 33
-0.47169513 -0.59761047 0.34343845 8
-0.34243035 -0.57815295 0.38400188 6.6111112
-0.26490477 -0.56289518 0.35812163 6.6999998
1.636791 -0.5713762 0.33951589 28.5
1.7875836 -0.31910282 0.30736834 30
-1.2865349 -0.18982245 0.38518071 5.3333335
1.7719177 -0.2374022 0.40622285 27
-1.2471191 -0.086612888 0.38444042 1.2857143
1.7442682 -0.10203895 0.3813473 2
-1.2279748 0.065747514 0.37923548 0
-1.2889111 0.19879389 0.37889981 3.625
1.7166153 0.19018696 0.36017105 17.333334
1.7419581 0.44944584 0.40613639 2
1.6298778 0.5533337 0.39547944 22.5
-0.65911198 0.72387278 0.30777454 0
1.5912393 0.69485849 0.40879259 42.666668
1.7115669 0.60168117 0.40994018 2
1.5690354 0.82678533 0.42369285 50.666668
1.8036706 0.87835324 0.4271186 0
0.44871223 0.91915268 0.31849021 4
0.53195775 0.95813334 0.32115534 2.6363637
0.64140958 1.0121119 0.31163895 3
1.5359519 0.98024368 0.41554338 54.5
1.5118585 1.118497 0.41035092 49.75
-0.52819854 1.3404713 0.30182064 0
1.477795 1.2906808 0.40616831 48
1.5008649 1.2116412 0.4499681 64
-0.49617663 1.3677611 0.34746221 5.8333335
-0.43002045 1.3632013 0.30223858 0
1.4648691 1.4396504 0.3712551 32.799999
1.5561512 1.4135659 0.34973651 0
0.40775383 1.5213695 0.40401086 3.1666667
0.55014062 1.5492811 0.36835298 3
0.69293308 1.5713012 0.3459346 2.8571429
0.82421273 1.5956063 0.30308062 3
1.461955 1.5676397 0.38613987 3
0.090374134 1.7279258 0.34316441 2
0.20242848 1.7298641 0.30439407 2
0.21418144 2.4575849 0.33841419 0
1.9369736 -0.95242298 0.47250342 12
1.8651247 -0.79701978 0.59401035 44.5
-0.515347 -0.61586624 0.51678431 6.375
-0.41965517 -0.60186064 0.48154831 7
1.7178953 -0.68982464 0.49122596 40
1.848346 -0.65182835 0.55232924 64
-0.38093483 -0.58727109 0.52465212 6.1764708
-0.28449729 -0.57405239 0.48022109 6
1.7005684 -0.59159845 0.45250016 141
-1.275413 -0.17318647 0.46264797 6
1.9924817 -0.17158027 0.4606564 14
-1.2500523 -0.073868483 0.49355888 0
-1.2700377 0.05885838 0.52045822 2
-1.2946501 0.20192778 0.50194138 3.5999999
1.5583509 0.84825867 0.47460616 61
1.5340779 0.98261017 0.51044548 62
1.4934715 1.1932762 0.50906241 58
1.5088081 1.1163653 0.51952487 60
1.4807097 1.2834337 0.52862048 60.599998
1.4686857 1.4038564 0.50620359 56
0.34593624 1.5035719 0.48402876 3
0.49757263 1.5247382 0.47962499 2.5
0.64287484 1.545759 0.48022267 2.5
0.78829426 1.5777832 0.4805007 2
1.444326 1.5404838 0.54754454 28.799999
1.8633206 -0.85162956 0.64191437 27
-0.50181186 -0.61009294 0.6744051 4.5
-0.39002597 -0.58676833 0.67236167 4.75
-1.256175 -0.026699994 0.71964526 3.5
-1.232375 0.064475134 0.66101736 6.8571429
-1.1959251 0.050528318 0.66403317 6
-1.2793562 0.15062073 0.74549723 11
1.478263 1.2837745 0.65981555 61
1.4531611 1.4540168 0.66221923 43.714287
1.42047 1.5741584 0.68925542 40.799999
1.8927634 -1.1851331 0.82798684 16
-0.52037585 -0.61165625 0.82739055 4.2857141
-0.47449648 -0.5946219 0.81708902 2
-0.41549265 -0.58871436 0.81270903 2
-1.2774985 -0.064382963 0.79219139 2
-1.2014714 0.024463654 0.7549684 6
-1.1639675 0.063602552 0.79074335 2
-1.2466698 0.16241653 0.75931942 2
1.4500887 1.4354277 0.78133142 38
1.4121206 1.5936049 0.8260088 37.25
1.3982108 1.6651196 0.77886784 3
-2.9653549 3.1157529 0.89172864 2
-0.22589928 3.5877361 0.86847848 23.333334
-0.065046564 3.6182768 0.87267143 40.5
0.39579856 3.6866188 0.84210747 20.5
-0.53654522 -0.61100602 0.98062873 20.666666
-0.46092352 -0.59557223 0.95180798 8.666667
-0.42075256 -0.58766669 1.031006 24
1.3857886 1.6931432 0.92202872 25.333334
1.3655939 1.8542724 1.0304313 30.5
1.3023909 2.2214415 0.98593283 36
1.2879872 2.2776804 0.99485213 32.5
-3.3333602 3.0393636 0.94165075 42
-3.2709954 3.0502086 1.0230889 42
-0.46797067 3.5576541 1.0383546 41
-0.38722965 3.5566254 0.98649395 39
-0.23556513 3.5810323 0.97129422 18.5
-0.019629885 3.6186044 0.93857646 40
0.10431266 3.6392055 0.95513457 39
0.22193922 3.6586225 0.97085297 46
-0.53929389 -0.61013407 1.1519606 18.200001
-0.46112838 -0.59203416 1.1686882 22
-0.40803111 -0.58379948 1.1115453 20
1.3745052 1.7900455 1.0507754 32
1.3394096 1.9161862 1.1611875 31
1.3252785 2.0375307 1.1420655 23.6
1.3001851 2.1518507 1.1575831 31.25
1.273676 2.3253598 1.0915118 31
1.2602899 2.4308023 1.1359643 34
1.2215174 2.6967018 1.1638269 36
-3.7208638 2.9849277 1.1482491 37
-3.236022 3.0587854 1.1145359 44.25
-0.54554307 3.5422707 1.174778 39
-0.43572217 3.555069 1.113627 43
-0.22756073 3.5962567 1.0982416 10
-0.14287989 3.5926354 1.0893327 39
-0.064187542 3.6139202 1.0986937 38
0.01245184 3.6281016 1.0965948 45
0.23303343 3.6700907 1.1864598 40
0.44640082 3.7089114 1.1460106 30
-0.53468072 -0.6102972 1.3243856 20
-0.46521586 -0.59432751 1.2123264 20
-0.39135292 -0.57886887 1.2593672 20
1.3112833 2.0617588 1.2972875 30
1.2914927 2.1850448 1.2945466 29.200001
1.266646 2.3200295 1.3116888 30.333334
1.2421256 2.4861276 1.2615957 31
1.2257862 2.6096056 1.3052363 33.333332
-3.6548836 2.9916232 1.2553519 39.666668
-3.5848687 2.9969316 1.2946777 41
-3.186841 3.0654316 1.2481743 32.5
-0.38921523 3.5601978 1.2507448 40.5
-0.23169835 3.5821228 1.2312163 33
0.0060499134 3.630146 1.3124181 42
0.21572851 3.6688581 1.3063803 41.5
0.40787277 3.703481 1.2549434 40.5
0.79068708 3.70715 1.3127419 65
-0.55284953 -0.61259151 1.4151344 19.5
-0.45044413 -0.58773124 1.4392369 21
-0.36240974 -0.57336599 1.466624 18
1.2831098 2.2235322 1.4575328 33
1.265311 2.3194802 1.4282061 30.75
1.2346122 2.4696403 1.4698117 34
1.2134144 2.6234112 1.4465261 31.5
1.1871635 2.7526276 1.4618318 34
-4.063118 2.9203382 1.4715235 29
1.1772569 2.9319396 1.368466 39
-3.6057494 3.0055718 1.4296856 36
-3.5358701 3.0087166 1.4216245 41.25
-3.3789527 3.0369101 1.436215 42
-3.2478917 3.0600524 1.4638661 41
-3.1333466 3.0905998 1.4400074 1
1.1424189 3.0560422 1.3737895 30.5
-0.91678232 3.4925234 1.4993066 39
-0.51130986 3.5362329 1.3942082 32.5
-0.39935088 3.5553205 1.3637203 44
1.088744 3.4803925 1.4374927 40.5
0.0052657099 3.6349225 1.43852 41
0.19609408 3.6715686 1.4264265 39
0.51006889 3.7208734 1.4483263 36
0.66041589 3.719219 1.4756658 18.5
0.91196364 3.7342851 1.3628385 69
-3.4397042 -4.5942392 1.5832806 67
-3.499722 -4.2888851 1.5735366 74.5
-3.5345109 -4.0972376 1.575006 80
-0.55882508 -0.61157078 1.5735608 17
-0.45366937 -0.59316981 1.540894 18.5
1.2498444 2.3836071 1.5520779 32
1.2296824 2.4898028 1.5906286 32.75
1.2057543 2.638176 1.5018011 32
-4.6484299 2.8199005 1.6424414 12
1.1826594 2.7766063 1.5283871 34.5
-4.1108556 2.9172068 1.5424682 32
-3.9600942 2.9382038 1.6248848 25
-3.788208 2.9677191 1.6475028 24
1.1621373 2.9042273 1.5937476 33.5
-3.5344367 3.0127542 1.5488119 38
-3.3655632 3.0448694 1.5720441 42
-3.1934109 3.0829813 1.5962142 2
1.1043657 3.2266808 1.614128 33.5
-0.75284243 3.4959848 1.5709888 40
-0.64137077 3.5255327 1.5324023 29
-0.43883172 3.5639718 1.5970314 44
-0.20500807 3.5970039 1.5361519 38
1.0614523 3.5760331 1.5717409 47
-0.19901063 3.6003695 1.6213294 41
0.00098152156 3.6356068 1.5645256 41
0.256185 3.6788828 1.595835 35
0.37721744 3.7023478 1.6076174 36.5
0.4921726 3.7156098 1.6127688 37
1.0259429 3.7585642 1.59733 77
-3.3058951 -5.1507435 1.7387494 15
-3.0333135 -5.1399069 1.7417649 2
-2.9380023 -5.1293707 1.776987 25
-3.2502735 -4.978416 1.7507137 36
-2.7734299 -5.0099735 1.7863759 34
-3.3787069 -4.9008732 1.7437624 66
-3.2879953 -4.8206115 1.7645291 40
-2.937892 -4.9343128 1.7652916 35
-2.8230538 -4.817184 1.784012 35
-2.6606812 -4.9121418 1.7776335 41
-3.40958 -4.6559176 1.7471951 55
-3.3708954 -4.5516324 1.758489 49
-3.0680842 -4.5415258 1.7743287 47.5
-2.9085355 -4.6464114 1.7761308 41
-3.4898052 -4.3962159 1.676711 70
-3.3110132 -4.3604841 1.7481169 50
-2.812979 -4.3816996 1.784901 52
-3.4084473 -4.3109846 1.7606565 50
-3.2936108 -4.208415 1.7661427 46
-3.0118484 -4.3409166 1.7617315 50
-2.8677628 -4.2180882 1.7752913 44
-2.7377932 -4.3259969 1.7668954 53
-2.5065024 -4.3258963 1.7824241 57
-4.2060823 -4.1246033 1.7188543 36
-3.9002509 -4.1776471 1.737002 41
-3.5293794 -4.1144476 1.6855322 78
-3.436882 -4.0871286 1.756524 47
-2.9624438 -4.077569 1.767038 49
-2.3623879 -4.1924081 1.7872339 53
-2.1170266 -4.0750084 1.79519 55
-4.0361371 -3.9614682 1.7303759 45
-3.6573009 -3.9722552 1.7463703 48.5
-3.3921599 -3.983047 1.751448 53
-3.1087594 -3.9805131 1.7629867 50.5
-2.1764855 -3.9635391 1.7923933 61
-3.8415964 -3.8864622 1.7404448 52
-3.3754911 -3.7835681 1.744572 52.5
-3.0674143 -3.8180661 1.7525564 51
-2.8205469 -3.8307543 1.7676241 53
-2.5826111 -3.8416522 1.777373 57
-2.1433434 -3.8525321 1.7956165 55
-3.9018438 -3.6364999 1.7337869 53
-3.6196747 -3.687413 1.7381624 51
-3.2891657 -3.6721704 1.7596334 52
-2.9115951 -3.7139857 1.7737294 48
-2.4675722 -3.7179234 1.7798637 58
-2.2032247 -3.6878827 1.7847477 53
-2.0314875 -3.7418194 1.7935003 56
-4.2136993 -3.5815303 1.7192458 52
-3.6737909 -3.4670014 1.7427328 57.5
-3.4313526 -3.5333366 1.7506948 57
-3.1698816 -3.529072 1.762807 51
-3.079138 -3.5417976 1.764766 51
-2.2898719 -3.5482044 1.7946454 62
-4.0486336 -3.4405653 1.7291454 61
-3.8562446 -3.3756914 1.734748 56
-3.4064426 -3.3484902 1.7413758 54
-3.1280725 -3.3732917 1.7548054 58
-2.866621 -3.384198 1.7669789 54
-2.606838 -3.362535 1.7772923 59.5
-2.3460329 -3.3364959 1.7884053 60
-2.195822 -3.3631554 1.787892 57
-3.9021864 -3.1533725 1.7295443 60
-3.635046 -3.2255142 1.7415012 60
-3.4118385 -3.2967253 1.7544409 57
-3.2968359 -3.2190869 1.762272 59
-3.0604537 -3.163666 1.7641517 55
-2.9465742 -3.2697334 1.7700521 55
-2.2957232 -3.2234876 1.779153 53
-3.6954393 -3.0223064 1.7438616 61
-3.4616611 -3.1273041 1.7551082 60
-3.4486845 -3.0680509 1.7506927 62
-3.193284 -3.082314 1.7585362 58.5
-2.7079663 -3.0403144 1.7718812 59
-2.3208728 -3.0919733 1.7841825 53.5
-2.2302043 -3.0134506 1.7887141 62
-2.0490458 -3.0417454 1.7983154 65
-3.4303358 -2.8994949 1.745046 61
-3.1695466 -2.9592838 1.7476667 62
-2.9287987 -2.9488099 1.7650847 53.666668
-2.6393168 -2.9219229 1.7722138 56
-2.4273925 -2.9675162 1.780038 57
-2.3426828 -2.9174466 1.7851301 51.5
-1.6338291 -2.9119492 1.7963442 32
-3.4737647 -2.7244079 1.7551967 4
-3.2569818 -2.7650309 1.7557902 62
-3.094887 -2.7694671 1.7583884 56
-2.4506178 -2.7973113 1.776949 57
-2.1292827 -2.7317026 1.7928082 65
-3.4700353 -2.6764703 1.7479628 3
-3.2242866 -2.6321568 1.7492899 61
-2.9363651 -2.6257234 1.7604498 59.5
-2.7310729 -2.6315393 1.76631 60
-2.5069129 -2.641268 1.7816621 52
-2.330127 -2.6706893 1.782557 48.333332
-3.0636523 -2.4645431 1.7585603 47.5
-2.5194702 -2.4759727 1.7752134 40
-2.2052643 -2.4534614 1.7918416 36
-3.0192189 -2.3231387 1.7527956 63
-2.9271111 -2.2837033 1.7751576 27
-2.809957 -2.3836303 1.767722 55
-2.5647755 -2.3268325 1.7725972 40
-2.3779979 -2.3970873 1.7792588 37
-4.1050391 -2.1687443 1.731572 42
-3.0290439 -2.1904545 1.763615 14
-2.761924 -2.2479117 1.7625662 46
-1.8731337 -2.1217661 1.7846084 0
-1.793752 -2.1786826 1.7886099 0
-3.935885 -1.9736229 1.7268661 44
-3.0748913 -2.0301535 1.7625991 10
-2.8622162 -2.0986626 1.7733921 8
-1.8220924 -1.9781797 1.7971517 31
-1.3311381 -2.0786626 1.7991937 64
-4.2706428 -1.876968 1.7236477 33
-3.7926424 -1.8948003 1.7356485 25
-2.4187534 -1.8351344 1.7769116 4
-1.9756516 -1.8672662 1.7860914 33
-1.8822947 -1.9243629 1.7880499 29.5
-1.4266398 -1.8752897 1.798802 68
-4.1144094 -1.797919 1.72706 14
-2.5671964 -1.6949251 1.7631325 12
-2.4835837 -1.7696954 1.7698969 5
-2.3704627 -1.6947956 1.7697054 6
-1.9643164 -1.6779603 1.7826227 57
-1.8855021 -1.7323577 1.7886357 61
-1.5095176 -1.6755643 1.7978832 67
-2.7101045 -1.5024067 1.7569431 5
-2.6696372 -1.6205285 1.7619687 8
-2.4990203 -1.57433 1.7699481 16
-2.1996737 -1.59111 1.7949249 43
-1.9819651 -1.5734631 1.7885537 50.333332
-1.9015559 -1.5322447 1.7856296 35
-1.4448066 -1.5796934 1.7989322 66
-3.4786134 -1.3845249 1.7234145 0
-3.3668981 -1.3764347 1.738515 7
-3.1814678 -1.4776286 1.7306176 1
-2.9131007 -1.399534 1.7494892 33.5
-2.70507 -1.3604531 1.7560343 52
-2.5906944 -1.4069449 1.7588084 53
-2.4399304 -1.4119387 1.7697814 41.5
-2.1757894 -1.4134943 1.7912713 41.5
-2.0387373 -1.4182081 1.785699 25.666666
-1.5466912 -1.4420352 1.7967422 36.5
-1.4244767 -1.4811801 1.7989225 64
-3.7232823 -1.2654459 1.7299291 5
-3.5099716 -1.2310271 1.7251635 12
-3.3187206 -1.2535912 1.7320641 30.333334
-3.2185488 -1.2096182 1.739652 49
-3.0689964 -1.321779 1.7462906 42
-2.9489629 -1.2991341 1.7449561 54
-2.7508786 -1.2543314 1.7555331 58
-2.6389251 -1.2055721 1.76452 53
-2.5036504 -1.2715113 1.7686148 63.5
-2.1385746 -1.2284861 1.7799865 58
-2.0188048 -1.2747827 1.7783922 66
-1.9288949 -1.3036149 1.7872638 64.5
-1.5786817 -1.2681592 1.7917761 58.75
-3.9674017 -1.1198145 1.7129117 7
-3.6961763 -1.1392882 1.7276307 25
-3.5372803 -1.0985168 1.7292475 46.5
-3.3794546 -1.0737972 1.7318282 59
-3.151376 -1.1901282 1.7360657 62
-3.090776 -1.0681369 1.7506748 73
-2.9565182 -1.117397 1.7510291 67.666664
-2.742321 -1.1153178 1.7563936 54
-2.5994439 -1.1058513 1.768048 63.5
-2.4784014 -1.1323278 1.7722784 64
-2.2908754 -1.1273443 1.783096 64
-2.0239186 -1.1141596 1.7882694 63.599998
-1.6950175 -1.1076461 1.7880806 68
-1.6098113 -1.089836 1.7965628 71.333336
-1.4977475 -1.1720536 1.7966572 72
-3.9707479 -0.99527854 1.7164797 29
-3.8406823 -0.94889033 1.7228974 46
-3.6789236 -0.94172329 1.7290248 31
-3.470243 -0.99039751 1.7379981 80
-3.340102 -0.95828384 1.7421424 77.5
-3.2144768 -0.94098389 1.7387165 76
-2.9689171 -0.93084723 1.7595869 69
-2.7907379 -1.0141567 1.7574066 59
-2.6626472 -0.94705266 1.7594559 66
-2.4996524 -0.98228532 1.7687809 64.5
-2.330929 -0.90821791 1.7823347 62
-2.1580169 -1.008514 1.7843384 62.333332
-2.0149338 -0.9264369 1.7832249 76.666664
-1.7121166 -0.92691123 1.7943691 74.5
-4.2918077 -0.83147085 1.7025076 26
-4.1523495 -0.78875756 1.7128516 56
-4.0441356 -0.81996787 1.7410151 35
-3.5372155 -0.83829957 1.7422384 5
-3.4192419 -0.80301589 1.7391088 5.5
-3.0658112 -0.82348788 1.7502593 74
-2.9557672 -0.8664093 1.747188 71
-2.7968047 -0.8254658 1.7542512 70
-2.5790308 -0.83996159 1.7638797 64
-2.5461698 -0.83987874 1.7644292 68
-2.1772742 -0.82147491 1.7822974 67.5
-2.002687 -0.77164394 1.7831978 72
-1.7285781 -0.8229636 1.7971162 69
-1.6451508 -0.78492117 1.7985004 66
-3.2458763 -0.68808359 1.7421343 3.5
-2.9796972 -0.6559633 1.7525332 45.5
-2.7659979 -0.67487395 1.7703216 52
-2.619688 -0.66855174 1.7623345 68.333336
-2.5012505 -0.71184784 1.7697064 72
-2.3156099 -0.6667304 1.7811456 70.5
-2.1620951 -0.63280177 1.7801216 69.5
-2.0651929 -0.73527527 1.7879764 72.5
-1.6972009 -0.69869727 1.7947049 67.666664
-1.6322064 -0.70564783 1.7991339 73
-0.58565688 -0.61645633 1.7521069 21
-3.0531931 -0.59723741 1.7454833 3
-2.8757689 -0.54964685 1.7732948 3
-2.7196016 -0.50469548 1.7611511 39.5
-2.5047059 -0.50897193 1.7650057 71
-2.3924785 -0.47852874 1.7802852 74
-2.1935492 -0.53247136 1.7716284 76.5
-2.0654395 -0.56951761 1.7845517 75.666664
-1.8131224 -0.57676166 1.7875377 70
-1.7099714 -0.53839678 1.7960756 70
-0.49842668 -0.59752822 1.7515129 25
-0.39542976 -0.57955515 1.7497929 17
-2.6168497 -0.42645505 1.7687922 9
-2.5185416 -0.31311816 1.7738756 10
-2.2738361 -0.4175238 1.7764903 74
-2.1680555 -0.40435755 1.7850252 75
-2.0610304 -0.39392358 1.7804908 81
-1.8418937 -0.40349993 1.7919217 77
-1.7657853 -0.4046593 1.7937838 76
-1.3455033 -0.36775321 1.796784 68
-2.4116468 -0.26700622 1.7751688 67
-2.2922006 -0.21946627 1.7734995 69.5
-2.1708233 -0.22923963 1.7827063 64.75
-2.0324724 -0.25410885 1.7839214 81
-1.8559783 -0.22886786 1.7839221 79
-1.7479855 -0.25537139 1.7947559 82.75
-1.6460763 -0.19480306 1.7977368 84
-1.3863561 -0.22168988 1.7987903 77
-2.4703226 -0.085710548 1.7689464 43
-2.3417773 -0.044057369 1.7792634 12
-1.8356259 -0.063710637 1.7909783 81
-1.723938 -0.087118194 1.7948816 87
-1.3883908 -0.085302599 1.7974964 79
-1.0566969 -0.0066719498 1.7968878 80
-1.8063246 0.093664929 1.7892987 67
-1.7057619 0.062940732 1.7954029 83.333336
-1.3955133 0.055471368 1.7975727 74
-1.3198372 0.14607467 1.7956611 70
-2.504519 0.27172685 1.7595693 77
-1.8408198 0.27423108 1.7835491 74
-1.7385647 0.21156767 1.7908819 82
-1.6424665 0.25544649 1.7926806 83
-1.3978229 0.2090735 1.7942933 77
-2.4407418 0.36926806 1.7627252 79
-2.3080835 0.36733714 1.7664728 81
-2.0127356 0.41344133 1.7778763 87
-1.803296 0.42583704 1.7817024 80
-1.7381662 0.37363166 1.7914571 73.75
-1.6343234 0.40771851 1.794876 87
-1.326111 0.41676575 1.7983674 77
-0.90401959 0.40307808 1.7986437 86
-2.4752345 0.52856994 1.763768 79
-2.3299522 0.55164737 1.7649833 78
-2.2050548 0.48839039 1.7684115 86.5
-2.0465968 0.55408502 1.7758735 87
-1.8677355 0.46602851 1.7811712 86
-1.7299193 0.52857208 1.7851429 79.666664
-1.6179699 0.56014282 1.7932597 86
-1.2386183 0.48271555 1.7988108 70
-1.0474385 0.58050245 1.7996393 75
-2.6110218 0.62700135 1.7527786 82
-2.4898624 0.66716748 1.7586159 83
-2.2870407 0.67531329 1.7634687 83
-2.2069316 0.68290788 1.768399 83
-2.0790765 0.70774961 1.7726296 80
-1.8565536 0.64541215 1.7823626 81
-1.7220438 0.66000181 1.7860894 86
-1.5639102 0.66755605 1.7946949 81
-1.3557727 0.65543002 1.7991189 95
-1.2608463 0.69986475 1.7987636 91
-1.1941351 0.6074515 1.7983695 76
-3.1573527 0.87683612 1.7375182 5
-3.0588078 0.88946843 1.7247759 6
-2.9109554 0.85020167 1.7357585 75
-2.7477612 0.82700926 1.7455741 77.5
-2.6065915 0.84521848 1.7557362 88
-2.4559212 0.83897197 1.7548834 75.5
-2.312016 0.79767752 1.7602408 75
-2.1624434 0.86265135 1.770389 82
-2.0227425 0.8251034 1.7762829 82.5
-1.8352202 0.82589376 1.7782151 86
-1.7222462 0.81984407 1.7866135 86
-1.5397999 0.8186934 1.7942665 84.5
-1.3995174 0.83082616 1.7986974 92
-1.0527115 0.79065925 1.7917622 75
-0.97980362 0.84122753 1.7957264 74
-0.88201636 0.85479331 1.7992517 68
-2.8656387 1.0384803 1.7404889 13
-2.4262426 1.036746 1.7521785 74
-2.3291817 0.97271264 1.7571719 80.5
-2.2425561 0.96931362 1.7607514 82.5
-1.9597363 0.92854309 1.775159 84
-1.807041 1.0097483 1.774896 79
-1.7181376 0.96835309 1.7814584 79
-1.5841546 1.0195082 1.7864989 81.5
-1.4224653 0.95027137 1.7969782 79
-1.2894274 0.96319622 1.7978593 86
-2.7526913 1.0644112 1.7422763 42
-2.5955033 1.0705315 1.7544237 85
-2.4669547 1.0828701 1.7602061 94
-2.3003538 1.1710619 1.758248 83
-2.1906905 1.0881827 1.7614181 80
-2.037868 1.0865641 1.7720107 77
-1.9347786 1.1082386 1.7766563 81
-1.7260427 1.138651 1.7802449 81.25
-1.6189268 1.1705606 1.7798322 79
-1.4727695 1.1293972 1.7899486 86
-1.2842834 1.1356866 1.7976543 76
-2.7183611 1.3074044 1.7486569 33
-2.578403 1.3019726 1.7516075 35
-2.4319649 1.2882732 1.7557563 75
-2.3541427 1.2247591 1.7575289 82
-2.1914406 1.2893335 1.7600588 76
-2.0047667 1.2823865 1.7680708 84
-1.8992785 1.2900805 1.7705265 78
-1.6865556 1.2822715 1.7765423 86
-1.6401709 1.347483 1.7726563 85
-1.4068218 1.2146262 1.7930306 78
-1.2595481 1.2724565 1.7982972 82
-1.1847682 1.2964885 1.7977724 81.5
-2.3207822 1.4347486 1.7594509 35
-2.1950226 1.4996434 1.7667619 34
-1.974372 1.4922947 1.773532 39
-1.8704948 1.4900192 1.7807857 39
-1.7335846 1.397983 1.7762066 79
-1.6044532 1.3838936 1.7819325 75
-1.4082915 1.3690584 1.7881413 78.5
-1.2144862 1.4782462 1.7935725 82
-1.1489922 1.4386396 1.7954102 76.666664
-1.0342765 1.439836 1.7965361 68
-2.8787985 1.617265 1.7390245 82.5
-2.7648399 1.5817018 1.744704 78
-2.5668046 1.5504386 1.7574285 79
-2.4150381 1.5293701 1.7592996 68.5
-2.286869 1.648681 1.7585222 76
-2.2490258 1.5746419 1.761681 74
-2.0831892 1.5015661 1.7737385 37
-1.6752141 1.5642252 1.7824951 40
-1.5974655 1.5845551 1.7858371 42.666668
-1.4526901 1.5508642 1.7908615 30
-1.3136066 1.539971 1.7980837 29
-1.0866097 1.5770134 1.7967715 35.333332
-0.96496683 1.599673 1.7978159 25
-3.3649778 1.7177013 1.733472 57.5
-3.1662498 1.7018532 1.7353157 83
-3.0716221 1.7522972 1.725751 86
-2.9792743 1.6791484 1.7367396 79.5
-2.4082429 1.7744985 1.7660936 76
-2.3533568 1.7571555 1.7598892 74.5
-2.157712 1.7476953 1.7691883 71
-2.044127 1.7346644 1.7767376 72
-1.8790638 1.698787 1.7759967 72
-1.5652089 1.7510751 1.7836318 67.333336
-1.4331926 1.7478459 1.786043 71
-1.3012178 1.7197847 1.7945776 63
-1.1497827 1.6541191 1.7998379 29
-3.4686913 1.9485396 1.7304567 73
-2.9408717 1.9446695 1.735558 78
-2.8407431 1.8828185 1.7395457 80.5
-2.6857071 1.8484465 1.751947 77
-2.5473011 1.8119394 1.7615372 79
-2.270256 1.9101782 1.7572428 78
-2.2446005 1.8309141 1.7634331 74
-1.88564 1.9387136 1.777228 78
-1.7818859 1.9074371 1.7854577 86
-1.5779027 1.8736063 1.7821655 72.333336
-1.2791246 1.9239277 1.7961656 65
-1.190064 1.8892049 1.799338 66
-3.758873 2.0991874 1.7185732 62
-3.7054448 2.0213852 1.7162639 86
-3.5259831 2.0644348 1.7209178 66
-3.3831365 2.0457683 1.7284795 73.5
-3.1699662 2.0138812 1.7361058 87
-3.0746682 2.0804806 1.7297601 77
-2.9879894 2.0166752 1.7342123 79
-2.5133345 2.0817895 1.7566282 81
-2.3404224 2.0294597 1.7595592 74.666664
-2.1066136 2.0060363 1.7676188 68
-1.9931182 1.9759865 1.7745816 67
-1.5327833 2.0144751 1.7865177 75.5
-1.4382747 2.0090549 1.7878842 68.333336
-0.87478304 1.9762009 1.798906 58
-3.9828701 2.1571324 1.7107717 70
-3.8462815 2.1975517 1.7173682 63
-3.6703777 2.1320989 1.7181029 64.333336
-2.8629923 2.1998992 1.7380995 83
-2.8202806 2.203897 1.7435743 67
-2.6602254 2.1440315 1.7513317 67
-2.236609 2.1456146 1.7562023 72.5
-1.880501 2.2069147 1.776332 71.5
-1.7207128 2.1259565 1.7801911 78
-1.4330579 2.2085743 1.7895511 67.333336
-1.2829185 2.174926 1.796857 61
-1.1991023 2.1230159 1.7967016 65
-4.3141475 2.2820895 1.7013634 16
-4.1871624 2.257448 1.7086028 67
-3.7376659 2.3977475 1.7154907 75
-3.4891617 2.2931287 1.7271682 78
-3.4359112 2.3648853 1.7257389 65
-3.1628466 2.3440959 1.7320272 77
-3.0313404 2.3990188 1.7021364 13
-2.9585254 2.2944324 1.7351786 73.666664
-2.4457972 2.3410299 1.7258376 45
-2.300498 2.3124614 1.7553071 67
-2.2022293 2.3909636 1.7507826 67
-2.0431511 2.2766263 1.7616869 78
-1.6557893 2.3677173 1.783636 4
-1.4505813 2.3014226 1.7852739 65
-1.1461982 2.3669391 1.7971482 55
0.91534066 2.3614802 1.7408879 21
-4.0149593 2.5157156 1.7068151 68
-3.8130169 2.4976034 1.7238256 69.5
-3.708514 2.5251451 1.7200719 67
-3.5626762 2.4386168 1.7173046 62
-3.3738208 2.4436803 1.722243 71
-2.877048 2.5466239 1.7340661 55
-2.62868 2.4639635 1.7532829 75
-2.2151716 2.49475 1.7522098 71
-1.5297912 2.4177384 1.7669128 4
-1.4042187 2.4298332 1.7920712 3
-1.2718239 2.4602389 1.7921833 61
0.88923246 2.4713242 1.7461447 37
0.96478266 2.4822838 1.763939 19.666666
1.1105071 2.5074899 1.790958 54.666668
1.22104 2.5007734 1.7043687 32
-4.2954564 2.672667 1.6980256 63
-4.0784917 2.6012702 1.7080959 66
-4.0123844 2.5919495 1.7114471 65
-3.8768947 2.6119754 1.7166959 67
-3.623997 2.5613565 1.7157696 69
-3.5174627 2.6776104 1.7272366 62
-2.9399166 2.6094031 1.7324345 55
-2.7956061 2.5516851 1.7464424 63
-2.2947943 2.5985835 1.7649821 72
-2.2425447 2.6437869 1.7565922 5
-1.0737709 2.6393719 1.7977821 55
0.86039579 2.6348147 1.7410177 25.5
1.1455623 2.6122255 1.7576714 36.333332
1.2130849 2.5693853 1.7147669 34
-4.500782 2.7913632 1.6814383 20
-4.3650098 2.7228973 1.6921803 62
-3.7730398 2.8110392 1.7141594 71
-3.4861596 2.7677805 1.7234823 62
-3.3774433 2.8407183 1.7212232 61
-3.1551321 2.7053359 1.7276953 67
-3.052871 2.8123143 1.7270564 64
-2.9750423 2.7140906 1.724228 65
-2.5867839 2.8081062 1.7516795 64
-2.4424541 2.7058916 1.7633554 78
0.85133094 2.7560027 1.7025846 9
0.98379242 2.7355423 1.7825676 32.5
1.1308385 2.7642145 1.7430363 34.333332
-3.9995046 2.9175832 1.6714238 1
-3.8443103 2.9081874 1.7035537 19
-3.6503098 2.9278984 1.7080579 31
-2.9151998 2.9447763 1.7330129 68
-2.7549357 2.9237869 1.7434951 68
-0.97833943 2.9373298 1.7936558 60
0.81597787 2.9066038 1.745555 42
0.95439917 2.9306557 1.7755691 40
1.1343813 2.9479547 1.7343016 24
-3.4498553 3.0091541 1.6625837 20
-3.1067529 3.062274 1.6952361 1
-2.9298582 3.0334477 1.7283303 4
1.0192894 3.0103233 1.7832371 48
1.0976167 3.0543337 1.7766145 37
-1.0626663 3.2879214 1.7994732 57
-1.263873 3.3636007 1.7573942 2
-1.0383976 3.4135976 1.7833477 10
0.83089077 3.3390725 1.7509009 22
0.96584892 3.3375957 1.7903417 51
1.0857238 3.4226222 1.6751837 47
-0.959499 3.460757 1.7535094 27
-0.84908122 3.4897037 1.6957194 43
-0.66016585 3.514425 1.7479624 35
-0.40758854 3.5575752 1.7245142 33.5
0.69773287 3.5411205 1.7499324 35
1.0637621 3.5503016 1.7135359 48
-0.19062166 3.6129415 1.7164825 42
0.091950789 3.6570005 1.7601084 29
0.24541327 3.6782594 1.7442085 37.5
0.74577636 3.6392024 1.735514 12
0.77798158 3.7075028 1.6941286 68
0.91626376 3.7061458 1.7776195 58
0.98095489 3.7558191 1.7024628 67
-2.0745764 -4.2118421 1.8021477 49
-1.9548094 -3.3774731 1.8032988 55
-1.795539 -2.9603555 1.8203868 64
-1.5929575 -2.9717579 1.8062369 35
-1.7381122 -2.7205713 1.8292042 32
-1.6051266 -2.7755172 1.8241673 11
-2.473367 -2.5931048 1.8155521 10
-1.9060222 -2.6588717 1.8209625 42
-1.2307106 -2.3118706 1.8182083 19
-1.1861845 -2.1495557 1.8079036 56
-1.8321689 -2.0149755 1.8089138 0
-1.6812912 -2.0723073 1.8086826 3
-1.2570324 -2.0290127 1.8115402 63.599998
-1.1436259 -2.0222869 1.8123111 65
-1.7568725 -1.8660276 1.80923 43
-1.3907834 -1.8326102 1.8033844 71
-1.2873456 -1.8491644 1.8111209 67.5
-1.0985905 -1.8979628 1.8129512 71
-2.0510972 -1.6983504 1.8016907 39
-1.8640478 -1.7325642 1.8099259 52
-1.383505 -1.6941561 1.8074692 65
-1.3226471 -1.6649096 1.8081459 74.5
-1.1775689 -1.7331491 1.80924 67
-1.466306 -1.6414596 1.8036541 70
-1.2500348 -1.5741513 1.806394 71
-0.98981571 -1.5450492 1.8187879 73.333336
-1.883005 -1.4749094 1.8086723 27
-1.5319116 -1.4560784 1.8027643 35
-1.4036381 -1.4782604 1.8052512 69
-1.3152678 -1.4219381 1.8075029 39
-1.0843261 -1.4104742 1.8173244 63
-0.990816 -1.3652165 1.8252734 47.25
-1.4296868 -1.3029808 1.8034441 31.75
-1.1210924 -1.2401888 1.8176818 39.5
-0.97174913 -1.2395194 1.8281893 37.75
-1.5174092 -1.138484 1.8101894 73
-1.4489594 -1.131659 1.8066795 68
-1.2297421 -1.1194779 1.8100785 75
-1.1409847 -1.0835173 1.8191453 81.75
-1.0063983 -1.1111864 1.8241271 82.333336
-0.834562 -1.144569 1.830321 92
-1.5545583 -0.97953397 1.8044333 72.5
-1.475311 -0.97732478 1.8035978 72
-1.2481347 -0.94801521 1.8160934 82.666664
-1.1126271 -0.96193856 1.8213259 88
-1.0087969 -0.9892472 1.823469 88
-0.8465386 -0.97906566 1.8235326 87.333336
-0.74343008 -0.90607536 1.8220814 79
-1.5554707 -0.83204079 1.8039165 69
-1.274128 -0.80348581 1.8160456 87.5
-1.1236705 -0.82659417 1.8186586 89.400002
-0.96615344 -0.81011289 1.8151659 82.333336
-0.81956542 -0.81838024 1.8218702 78.800003
-0.71495235 -0.80795425 1.8217744 75.5
-1.571175 -0.67186517 1.8054711 71
-1.3734015 -0.66749877 1.8096851 80
-1.2700111 -0.65184283 1.812373 81.5
-1.1308764 -0.677387 1.8103753 69
-0.96414399 -0.6726855 1.8170319 77.25
-0.79757881 -0.66863781 1.8213687 82.166664
-0.70958102 -0.68304366 1.8215564 79
-0.50991303 -0.60097891 1.8149227 52
-1.5935968 -0.52243572 1.8048457 72.333336
-1.3806756 -0.51556563 1.8143276 86.5
-1.2623457 -0.52145094 1.8093417 83
-1.1272601 -0.51507181 1.8131323 76
-0.9764064 -0.54626215 1.8146912 79
-0.81858397 -0.51537323 1.8174204 81.599998
-0.66958261 -0.53724855 1.819129 82.875
-0.52543265 -0.53020793 1.8258048 75.5
-0.42517421 -0.5205943 1.8282253 77
-1.6785417 -0.37546524 1.8208121 46.5
-1.6170151 -0.39425719 1.8378855 22.5
-1.4013155 -0.36816654 1.8066605 98
-1.2631747 -0.39445391 1.8067327 74.666664
-1.130908 -0.36913323 1.8125924 78
-0.97346401 -0.37424502 1.8118273 78.5
-0.82781172 -0.3771238 1.8168949 77.800003
-0.68875301 -0.39716163 1.8211075 77.400002
-0.55501133 -0.37965006 1.8270439 76.714287
-0.449292 -0.44007301 1.8315018 81
-1.6126794 -0.24492753 1.8039848 84
-1.4092686 -0.22597653 1.8035452 85
-1.2605422 -0.24313664 1.808152 79
-1.1388035 -0.22031154 1.812673 76.5
-0.96207571 -0.22014411 1.8120136 79.599998
-0.84156692 -0.2284646 1.8170621 76.666664
-0.67706215 -0.21025704 1.8229942 77.222221
-0.55196512 -0.233778 1.8262231 72.199997
-1.6631386 -0.11431786 1.8007556 88
-1.5856001 -0.088120364 1.8058361 85
-1.4632063 -0.0739346 1.8076657 106
-1.2730776 -0.088897929 1.8064455 80.400002
-1.1144105 -0.085997909 1.8083768 78.5
-0.95463252 -0.075429194 1.8121849 84.666664
-0.84206724 -0.075972624 1.8180137 78.333336
-0.67364687 -0.06262999 1.8223047 80.666664
-0.54357803 -0.085337959 1.8237389 77.666664
-1.6784749 0.032299057 1.8010956 84
-1.5828533 0.05296123 1.8046178 84
-1.4709313 0.073759034 1.8090388 95
-1.2975223 0.073017336 1.8046567 81.400002
-1.1260608 0.081075259 1.8087387 83.199997
-0.94315785 0.081059776 1.8131065 83.222221
-0.83171046 0.070687838 1.8175782 79.75
-0.68775105 0.06815403 1.8230189 78.727272
-0.52741539 0.079284757 1.8209444 88
-1.5761703 0.19412473 1.8021818 84
-1.4343392 0.2052851 1.8074828 96
-1.2889111 0.253135 1.8026208 74.75
-1.1163847 0.22144583 1.8053756 78.5
-0.94604808 0.22807507 1.81143 80.5
-0.83313888 0.22056454 1.8158133 79.25
-0.67989862 0.23426399 1.8211538 79.14286
-0.56087756 0.2232375 1.8257964 81
-1.5672655 0.33652434 1.8031424 88
-1.416737 0.35309258 1.8040587 95.666664
-1.2689599 0.37651905 1.8054624 80.666664
-1.1144983 0.36072057 1.8061466 78
-0.95541465 0.35607815 1.8089911 76.199997
-0.83427018 0.37674978 1.8120877 78.85714
-0.69449157 0.37120935 1.8182782 77.75
-0.55631852 0.37283921 1.8249663 80
-1.755223 0.54914051 1.8000077 28
-1.551152 0.47792789 1.8008288 77
-1.4042077 0.50077873 1.8026587 97.333336
-1.3044708 0.55954957 1.8056879 92.5
-1.1020116 0.507388 1.8048134 78.666664
-0.97133642 0.49752286 1.8063914 73.75
-0.82412434 0.53060728 1.8092206 75.090912
-0.66383243 0.53582895 1.8162984 78.25
-0.53336471 0.53480124 1.8215418 79.400002
-1.398458 0.64732671 1.801419 97.5
-1.283082 0.66403699 1.8085461 94
-1.1194415 0.68660313 1.8036809 79.333336
-0.97690225 0.67705441 1.8061291 75.333336
-0.81874847 0.67416888 1.8095093 75.333336
-0.66981953 0.67998791 1.829428 52.714287
-0.51390201 0.66614205 1.8276778 59
-0.44691828 0.72374082 1.8245245 79
-1.351096 0.7681731 1.8047065 94
-1.2724209 0.81776297 1.8049215 89.75
-1.1074579 0.82745326 1.8084958 95.5
-0.94662428 0.82514185 1.809217 88
-0.80729389 0.81813222 1.8092111 70.833336
-0.67917532 0.81484783 1.8137556 72
-0.53212279 0.80060685 1.818702 69.800003
-0.43378752 0.83975482 1.8230367 69.5
-1.2685219 0.94353896 1.8056594 87
-1.1488097 0.99989748 1.8051232 83.5
-0.98832417 0.96793652 1.8111817 88.199997
-0.85410619 0.9760772 1.811502 85.25
-0.67985624 0.97206944 1.8117701 76.625
-0.53763849 0.97536463 1.8455299 48
-0.38114145 0.97461653 1.854732 33
-1.2546659 1.1134818 1.802817 82.5
-1.1351892 1.1159226 1.8041202 81.333336
-0.96911561 1.111829 1.8101778 78
-0.8340131 1.1258194 1.814292 80.400002
-0.66600287 1.0945059 1.8209372 82.75
-0.51783353 1.1345991 1.8608787 36.125
-0.3647531 1.1182433 1.8651994 28
-0.29998535 1.1239616 1.8493754 39
-1.1302832 1.2534193 1.8019207 75
-0.94763726 1.2586626 1.8070799 74
-0.81937689 1.2933109 1.8092529 77.25
-0.67227662 1.225323 1.8224255 63.400002
-0.52387679 1.2768255 1.8444984 38.875
-0.39380932 1.2859089 1.8590386 38.285713
-0.24605235 1.2892851 1.8565792 37.25
-1.1227162 1.3847624 1.8044544 68
-0.94835931 1.4280831 1.8009406 74
-0.79450321 1.4235804 1.8089981 72.5
-0.68727446 1.3965591 1.8131952 67
-0.50783151 1.439467 1.8201089 71.833336
-0.3633489 1.4161168 1.8290082 67.428574
-0.24145064 1.4320253 1.8315783 67.599998
-0.12841594 1.451437 1.8345569 74
-0.84038407 1.5654297 1.8045845 59.5
-0.67070234 1.563869 1.8119023 62
-0.50993174 1.626789 1.8093704 58
-0.38885963 1.560475 1.8229055 72
-0.24245763 1.5878705 1.8289171 72.5
-0.086981647 1.5739657 1.8365864 72.400002
-1.0697563 1.6983445 1.8037682 41
-0.99362099 1.7707429 1.806767 53.5
-0.84795934 1.75032 1.8061274 34.5
-0.65848565 1.7240943 1.8154889 26.666666
-0.56612521 1.7021651 1.8188405 28.333334
-0.38844472 1.7425811 1.8213971 27
-0.23256978 1.7098092 1.825821 52.857143
-0.089532338 1.7202923 1.8302244 49.599998
0.053765435 1.7315681 1.8383987 52.599998
-1.0733722 1.8343052 1.8024603 65
-0.97791594 1.8962803 1.8046898 62
-0.79677576 1.9393102 1.8088375 56
-0.68848765 1.8705841 1.8118657 57
-0.49668059 1.8696423 1.8215955 49.400002
-0.31225339 1.9100916 1.8219887 58
-0.20066734 1.8371677 1.8325521 28.333334
-0.061783392 1.8829039 1.8358597 39.833332
0.090266608 1.8569443 1.8442945 30.5
0.20625471 1.9135604 1.8486388 31.25
-1.1159285 2.0771618 1.8014354 62
-0.953376 2.0251994 1.8071887 64
-0.6296944 2.0596795 1.8139938 59
-0.56366456 1.9993266 1.8131527 62
-0.39118263 2.023504 1.8191068 57.799999
-0.17704976 2.0183072 1.8270618 59
-0.03877154 2.008652 1.830104 69.5
0.077067487 2.0306964 1.8350722 63.142857
0.23713106 2.0180898 1.8421443 62.25
0.34439954 2.0445354 1.8452706 61.333332
-0.9005335 2.1161954 1.8066672 54
-0.83415979 2.1845946 1.8056563 59
-0.69285101 2.1140342 1.8097588 54
-0.49424824 2.1957021 1.8156502 56
-0.31969795 2.1513915 1.8206335 58
-0.26921079 2.1793225 1.8234668 58.333332
-0.053042568 2.1615865 1.8315289 62.5
0.10353036 2.1821291 1.8349336 71
0.22183232 2.1911089 1.8370616 61.599998
0.37484476 2.1350315 1.8460916 63.75
0.50304848 2.2033191 1.8523593 62.833332
-1.0316058 2.276406 1.8052121 59
-0.77944958 2.3390415 1.8129897 56.5
-0.64101344 2.3674812 1.8118948 57
-0.57731807 2.2980878 1.8127321 58
-0.35597685 2.3369179 1.8259727 55
-0.19293664 2.3246281 1.8284844 60.666668
-0.12358893 2.3230257 1.829349 60
0.08444874 2.3071928 1.8341991 62.5
0.23593022 2.3296576 1.8418077 65
0.37507895 2.3309493 1.8453945 64
0.55915529 2.3573895 1.8536422 60
0.66177481 2.3247244 1.8560853 57.166668
0.77923912 2.3840182 1.8624245 55
-0.93380845 2.4849584 1.8063942 56
-0.77189052 2.4169226 1.8137764 58
-0.69956434 2.490427 1.8129811 56.5
-0.42312452 2.4496429 1.8177811 54
-0.23096748 2.5121846 1.8269712 57
-0.072901174 2.4642997 1.8326257 58
0.057724994 2.4360735 1.8344766 63
0.23772936 2.4562345 1.8389068 60
0.38320041 2.4785171 1.8443187 59
0.53677481 2.486659 1.8491327 59.25
0.71783179 2.4320261 1.8556081 56
0.837605 2.466948 1.8493086 54.714287
-1.0038301 2.5601478 1.8010029 58
-0.64431155 2.6059093 1.8140025 54.5
-0.54619288 2.6209655 1.8131831 55.5
-0.28020787 2.6429033 1.8208538 52
-0.03055005 2.6101682 1.8326105 58.333332
0.084081262 2.6451728 1.8347303 55.5
0.23217173 2.588619 1.83562 60
0.40724012 2.6076832 1.842491 57.5
0.54718018 2.6307704 1.8436335 64
0.69777793 2.6079905 1.8500973 57
0.8142882 2.6799622 1.8460776 63
-0.85237324 2.7495503 1.8023875 62
-0.51691037 2.8112767 1.8151754 57.666668
-0.33747685 2.7794514 1.8170937 53
-0.10985164 2.7923286 1.8226064 60
0.18807416 2.7705448 1.8323412 61
0.42563277 2.7426882 1.8392404 61
0.57727367 2.7145689 1.8417555 54
0.67140019 2.796571 1.8461777 59
-0.69407713 2.9401517 1.8054432 66
-0.41806176 2.9537485 1.8150378 60
-0.1546586 2.9952154 1.8181378 58
-0.12776232 2.8888659 1.818961 58
0.065957308 2.9434133 1.8256872 64
0.29541045 2.8696764 1.8520838 23
0.36061841 2.9265828 1.8616163 29
0.63844532 2.8982718 1.8439649 60
0.79567713 2.8976753 1.8353039 55.5
-0.74534386 3.054903 1.8050529 63
-0.34065884 3.0959804 1.8196605 58.5
0.063061491 3.107913 1.8255876 56
0.24811997 3.1025567 1.8328186 64
0.39812469 3.0186653 1.8407919 54
0.527605 3.0631042 1.8476421 55
-0.8262558 3.2329221 1.8037997 65
-0.54902709 3.2020895 1.8103076 66
-0.24462244 3.2157049 1.8193682 53.5
0.052852165 3.2256794 1.823675 54
0.2617901 3.218092 1.8305882 53
0.59545821 3.2642429 1.8532661 53
0.69288957 3.2564626 1.8535974 54.5
0.76351911 3.1825914 1.8050538 47
-1.0138384 3.3933654 1.8017215 51
-0.58709234 3.3382285 1.8129717 60
-0.16082069 3.4311419 1.8291045 55
-0.14382547 3.3306413 1.8314806 62
0.28070301 3.3457131 1.8364714 53
0.45541441 3.3350732 1.8419589 58
-0.62180084 3.4612725 1.803459 38
-0.37944797 3.4905908 1.8182396 47
-0.043164566 3.5099964 1.8318201 50.5
0.070919469 3.5877495 1.834376 47
0.29049867 3.4800334 1.8371581 53
0.50687015 3.5204558 1.8404859 50
0.68643564 3.5630217 1.8380235 53
0.54712713 3.6832321 1.8160437 2
