# .PCD v0.7 - Point Cloud Data file format
VERSION 0.7
FIELDS x y z intensity
SIZE 4 4 4 4
TYPE F F F F
COUNT 1 1 1 1
WIDTH 1559
HEIGHT 1
VIEWPOINT 0 0 0 1 0 0 0
POINTS 1559
DATA ascii
4.556788 -1.3232523 -0.16612203 79
-0.48055664 -0.60229039 -0.15391895 9.25
-0.35612205 -0.61770397 -0.17127872 9.4285717
-0.22053774 -0.60335904 -0.18431474 10.2
-0.12514767 -0.60235077 -0.17811629 10
0.11483542 -0.60549343 -0.1668217 9.5714283
0.21509612 -0.60465902 -0.17457128 11.083333
0.35754472 -0.60735953 -0.17314219 9.25
0.53941888 -0.61135584 -0.17041212 6
0.67936438 -0.61182684 -0.17035621 5
0.82956153 -0.6169644 -0.18282092 6
1.0312359 -0.62803024 -0.19512144 6
1.0649931 -0.61482066 -0.1518988 6
-0.51486093 -0.59715408 -0.17412533 9.833333
-0.39128384 -0.59719205 -0.17537606 10
-0.20649436 -0.59672064 -0.15300316 10
-0.09134762 -0.59731179 -0.18329003 9.75
0.062997356 -0.59860963 -0.19497263 9
0.40852553 -0.59958869 -0.19841383 10
1.2281419 -0.58973831 -0.16564268 2
4.6113029 -0.1422286 -0.19354115 0
1.2720022 0.25697535 -0.18339163 5.5
1.4143997 0.26484412 -0.18820539 10
1.2577797 0.38431457 -0.18129049 4.6666665
-0.79023564 1.0016742 -0.16169362 13
-0.67616183 1.0026581 -0.17882499 12.090909
-0.51186097 1.0086024 -0.17379025 18.428572
-0.39187214 1.0169322 -0.17787504 19.714285
-0.22841185 1.014215 -0.17725846 21
1.2824278 1.3135029 -0.16142312 7
1.2744665 1.4443814 -0.17349057 26
4.5983233 1.5627488 -0.19824025 87
1.2843709 1.9488273 -0.17005135 21
4.6050906 1.8775061 -0.15854773 87
1.2807571 2.2364643 -0.18674251 21
2.9420407 2.1523669 -0.1710241 2
4.6033988 2.1583304 -0.19906749 87
1.2833539 2.3329637 -0.15902056 22.666666
1.2897857 2.6321168 -0.15043761 18
1.2926804 2.8184745 -0.1506829 15
0.8498649 4.1006575 -0.17529352 79
4.5560846 -1.5568967 -0.055931661 26
4.5597281 -1.2614043 -0.13925464 23
4.3043518 -0.90223873 -0.069105454 19
-0.73053682 -0.60122424 -0.041547719 10
-0.52760959 -0.60190499 -0.043276954 9.5
-0.37371024 -0.60669416 -0.11782236 9
-0.22803301 -0.60268706 -0.11934511 9.666667
-0.076946981 -0.60372323 -0.079255275 9.375
0.082030252 -0.60659385 -0.11483654 9.5555553
0.2523216 -0.61082965 -0.077780612 7.5
0.38192043 -0.61272091 -0.077698879 6.5454545
0.50860095 -0.60807103 -0.080951564 6.4444447
0.65788972 -0.60793459 -0.086516626 5.625
0.78630537 -0.60907274 -0.09693224 5.5999999
0.91437435 -0.61141241 -0.079543695 4.4000001
1.0993825 -0.60999691 -0.078487143 15.4
4.5694928 -0.68077189 -0.11167044 60
-0.77933526 -0.58017623 -0.034935396 10.5
-0.66607159 -0.58775395 -0.051023919 10.612904
-0.52499729 -0.59264344 -0.073361948 10.148149
-0.36919099 -0.5914852 -0.05314339 9.3888893
-0.21833883 -0.59006387 -0.048636664 9.6875
-0.075881779 -0.59236586 -0.078314848 9.0769234
0.092618048 -0.58950514 -0.034337856 7.375
0.21236365 -0.59226251 -0.049239554 6.4705882
0.38257012 -0.5957557 -0.03937991 7.4000001
0.51651144 -0.59295893 -0.017566962 4.6666665
0.68406469 -0.59550828 -0.027454302 4.3333335
0.84222054 -0.59270132 -0.017645022 3.5
1.2221256 -0.56202161 -0.067668751 2.7142856
4.5831847 -0.57353753 -0.0097607719 16
-0.7683239 -0.2117002 -0.0062643187 1
2.8149428 -0.21656863 -0.047404025 0
2.8923953 -0.20287244 -0.14370547 82
3.3824933 -0.15283407 -0.10678712 15
-0.79093254 -0.10567343 -0.023471421 1.8
2.7699327 -0.054799221 -0.062561281 3.5
3.8649518 -0.016745433 -0.10926387 150
2.8054397 0.1173688 -0.069548227 25.5
3.6550531 0.046894096 -0.11642856 11
1.260837 0.26227343 -0.077081345 4.6666665
1.4221116 0.26857471 -0.041543785 9
4.0519776 0.23443481 -0.11008031 15
1.2291293 0.35437691 -0.066491842 2.6923077
1.3245677 0.45359081 -0.073650979 7
-0.92484152 1.0001074 -0.11165211 14
-0.83533168 1.0070697 -0.11907718 8.833333
-0.68823946 1.004427 -0.12871972 11.3
-0.51031291 1.0067695 -0.11749674 13.1
-0.32168791 1.0099508 -0.10712779 16
-0.25765219 1.0093321 -0.12678452 15.285714
-0.85400391 1.2721187 -0.021298235 0
1.2836086 1.3189257 -0.072066978 4.6666665
1.2733402 1.4466108 -0.067742802 19.666666
1.2745099 1.6031809 -0.055350896 20.666666
1.2725098 1.6509112 -0.023942357 20
4.5998363 1.6978698 -0.094841793 83
1.2862788 1.8341798 -0.0119094 20
4.6044087 2.0003314 -0.045969941 87.5
1.2819896 2.1952474 -0.11522678 23
2.8617284 2.119633 -0.023409968 5
3.0364301 2.1817963 -0.045723978 5
4.606348 2.2035522 -0.10645244 88
1.2646905 2.3945527 -0.1196031 0
1.2840674 2.5158854 -0.061984695 14
4.3066525 2.4631906 -0.094787054 61
4.4442911 2.4094667 -0.12708426 41
1.2866396 2.6232285 -0.062871449 15.75
4.2686353 2.6434481 -0.047681753 82
1.2878854 2.7460632 -0.051209353 15
4.2709832 2.8689888 -0.043772284 74
1.2966604 3.0241642 -0.0081606256 12
1.2926793 3.2308302 -0.004352455 12
1.2878674 3.354491 -0.051226173 13
0.68769038 3.9357712 -0.027571833 35
0.86644489 4.034204 -0.012415682 40
0.95207125 4.145153 -0.097495951 139
1.2755388 4.4600019 -0.1381311 3
1.1390914 4.5353346 -0.13249925 62
1.2396744 4.5538273 -0.06500826 45
1.2458994 4.7838736 -0.041220758 50
4.0853777 -1.3591766 0.05374315 45
4.1635456 -1.3012251 0.13712317 45
4.556705 -1.224237 0.013779665 133
4.5577245 -1.1288469 0.1009407 77
4.5648856 -0.95340306 0.1146866 76
-0.96597022 -0.78562886 0.14032716 10
0.91512328 -0.77605265 0.13545096 41
4.5665135 -0.85048938 0.039170083 76
-0.57505673 -0.68339735 0.074109785 2
-0.26057395 -0.72576374 0.12092412 5.1999998
0.055512261 -0.60280263 0.013861175 4
0.97432876 -0.70029628 0.094639808 6.25
1.1665701 -0.67805117 0.068655185 26.75
1.2067537 -0.6623497 0.12013294 57.799999
4.5742269 -0.700993 0.055760708 74
-0.7446208 -0.57266378 0.0069519235 7
-0.54852462 -0.58047318 0.0083003892 7.75
-0.38627788 -0.59009892 0.0051540388 9
-0.21668822 -0.59763312 0.010870065 10
0.21700312 -0.58423221 0.0034761382 5
0.39786589 -0.59614652 0.0089349998 3
1.2160188 -0.58181912 0.098641865 2.3333333
-1.1126202 -0.37873477 0.12914051 0
-1.0032914 -0.32873297 0.12916201 4.5
4.5767426 -0.35986239 0.12860721 76
-1.0895373 -0.24800919 0.12512352 0
-1.0039184 -0.28393805 0.13986421 4
-1.098683 -0.12794797 0.10843446 0
-0.99765635 -0.058179766 0.10889059 1.4
1.2823682 0.26115677 0.079082496 2.25
1.4172404 0.27244511 0.0048740758 7
1.2300487 0.35721922 0.083066538 1.6
4.6811953 0.44510499 0.10104551 10
4.6879616 0.51935673 0.067885183 2
-1.4746104 1.2687988 0.13932139 3
-0.82028925 1.2400088 0.08983203 1.6
1.2485285 1.3097025 0.12469613 2
-1.4725771 1.4543459 0.1308713 1
-0.95220202 1.443652 0.034561198 1
-0.81682789 1.4262763 0.13023126 2
1.2794924 1.4374657 0.077251345 1.5
4.6009912 1.4399629 0.0041730357 96
-0.81247169 1.5144663 0.11512669 7
1.272612 1.591486 0.046542618 19
-1.4677902 1.6688594 0.11929765 4
1.2782209 1.7470338 0.07459373 18.75
4.6097531 1.7543558 0.062841021 82
1.2828326 1.8432373 0.078864999 18
1.2846501 2.0094495 0.11857511 18
4.6147256 2.0802226 0.13863933 90
4.6154389 2.321393 0.016265567 90
4.2911401 2.4770753 0.062930502 52
1.2905798 2.7922597 0.11234812 17.5
4.2694721 2.707839 0.080731973 84.5
1.2918257 2.9372272 0.053912714 17
4.2757401 2.8736374 0.14831084 59
1.2854848 3.0465765 0.06784267 12.666667
1.2888868 3.1666324 0.14046824 11
4.6257391 3.524826 0.05381491 72
4.6303701 3.689472 0.045842584 86
0.7360056 3.9527419 0.045589771 47
0.80975991 4.0181842 0.051784571 49
0.67470217 4.059844 0.043423049 6.5
0.6570307 4.8715701 0.0046203388 88
0.76952559 4.8660221 0.04653215 64
4.5529165 -1.4661343 0.26052082 53
4.5614066 -1.2093672 0.18309718 77
4.558064 -1.1558397 0.27786541 74.5
-1.2278323 -0.9652158 0.28467414 31.5
-1.1195835 -0.96657449 0.28586975 9.333333
-0.95629102 -0.97089469 0.28143585 10.75
-0.67608184 -0.97776008 0.28099111 9.666667
-0.48849544 -0.96466982 0.27743632 10.857142
-0.42854783 -0.96818203 0.24246091 12
-0.17406391 -0.97948676 0.26042435 9.333333
-0.1231549 -0.97308493 0.25419351 10.5
0.12609275 -0.98218888 0.27965346 10
0.18945588 -0.97693467 0.27570233 6
0.31085056 -0.97018564 0.23819315 5
0.53176183 -0.97882545 0.26772594 9
0.70345217 -0.99166977 0.28122687 8
0.87263554 -0.94724113 0.26583001 63
0.91111463 -0.92311037 0.27073723 46
-1.0517274 -0.80485135 0.15625656 12
-0.80106604 -0.86325777 0.18488348 10.5
-0.64906031 -0.88989383 0.2923674 1
-0.21626773 -0.81142414 0.17990491 5
0.84121734 -0.80163622 0.16294768 9
0.919662 -0.81142837 0.23999242 29.142857
1.13885 -0.75529814 0.21537414 37.5
4.5695171 -0.88355541 0.21281677 69
-0.34940916 -0.71074992 0.20940061 5.0500002
-0.26631558 -0.71945518 0.18459338 4.5555553
0.95448703 -0.72233772 0.22421685 20.4
1.145709 -0.73024935 0.23369066 39.714287
1.2072613 -0.66305977 0.22204252 57.727272
4.5686927 -0.62412912 0.16352487 72
-1.1120964 -0.4821887 0.24007638 0
1.2149394 -0.56540996 0.21202755 1
4.5700383 -0.59812975 0.15578437 80
-1.0992196 -0.40203947 0.2161676 0.80000001
-1.0014242 -0.32252294 0.19724962 0.5
4.5755167 -0.35969293 0.29683441 74
-1.1112869 -0.24786831 0.23399989 0
-1.0697711 -0.019773889 0.19119859 0
-1.0379218 -0.11166034 0.1740256 0
4.5796499 -0.10373803 0.27108416 77.5
-0.85066164 0.067727961 0.20312649 0
4.5877995 0.10431077 0.26580751 76
1.3313364 0.25259277 0.24251974 5
4.003643 0.26332688 0.29323488 6
4.5878601 0.20003192 0.24817109 82
1.2284075 0.35718507 0.18814135 1
1.3145373 0.46529463 0.26879323 1
4.6886811 0.47355583 0.25184828 10
-1.4405169 1.2840403 0.20863342 1
-0.92653775 1.3417742 0.28808296 65
1.2739276 1.32047 0.21793002 2
-1.4322164 1.4444449 0.20151049 1.1111112
-0.9528001 1.3736053 0.23157184 18.166666
-0.84275329 1.3895712 0.18786061 28
1.2768487 1.4380128 0.22726116 12.5
-1.0389699 1.5233809 0.16794527 2
-0.81002414 1.5516236 0.19422618 6
1.2769756 1.5802065 0.27215761 16.75
4.5996022 1.5519531 0.21235323 85
1.2842256 1.7680919 0.17198694 17
4.6056142 1.6744783 0.18531597 81
4.607265 1.8504905 0.27719969 82
-0.82898128 2.0261178 0.20222513 11.5
1.285621 2.0198843 0.20122123 18.166666
4.6086774 1.9851 0.25341338 83
-0.71501219 2.1142383 0.21102005 34
1.2869203 2.218452 0.27729538 18
1.2857832 2.2867851 0.26118696 18.333334
4.6067843 2.4144049 0.23129827 63
4.2730179 2.5766566 0.29941756 80
1.2922825 3.1106324 0.2852093 13
1.2881372 3.2621913 0.22687867 13
1.2820054 3.3879042 0.23834527 8.666667
1.294636 3.5039601 0.20814005 0
4.6236477 3.4903991 0.28759968 65
1.2962244 3.6745486 0.20521417 6.5
4.6315432 3.6644144 0.24458057 83
1.2938818 3.934725 0.15421528 8
4.6325655 3.928251 0.2378248 76
0.7571885 4.613606 0.19842118 22
0.37204784 4.8868823 0.20906442 87
0.53838152 4.8836498 0.2596449 88
0.62164509 4.8723602 0.21122444 95
4.5529881 -1.4334835 0.35803974 73
4.5577345 -1.1633276 0.4183985 74
-1.2469059 -0.95987445 0.35824442 31
-1.1364164 -0.96301442 0.37593958 9
-0.9903236 -0.96414393 0.35105163 14.625
-0.82067227 -0.97088796 0.36866966 10.583333
-0.66711533 -0.97101921 0.3727594 9.2857141
-0.55743432 -0.97656631 0.36358845 9.5555553
-0.15730451 -0.98565722 0.30562818 9
-0.050302368 -0.97655344 0.41617733 7.4000001
0.066309333 -0.98002446 0.3504402 9.1052628
0.38650569 -0.97618532 0.40671143 7.5625
0.53174341 -0.98463666 0.38526961 7.9230771
0.65204883 -0.98477739 0.3685784 17.545454
0.8183189 -0.98409003 0.37233016 30.764706
0.91456419 -0.93327504 0.35333523 41.714287
4.5627489 -0.90476251 0.36573654 73
-0.40113962 -0.80851638 0.37424883 3.5
-0.24278671 -0.77995473 0.42243591 1.1111112
0.91556293 -0.824898 0.37186182 36.111111
4.5672498 -0.84111047 0.40061355 71
-0.52257401 -0.73155588 0.44410169 2
-0.33649468 -0.69603091 0.41195077 2.75
-0.26788145 -0.70271087 0.41049176 0
1.0086445 -0.69876862 0.32014132 24
1.087122 -0.69698942 0.36752129 21
1.2037468 -0.66593975 0.36487299 53.5
4.5715837 -0.65072203 0.3250286 64
-1.2024069 -0.45890024 0.41239965 0
-1.1631255 -0.4994041 0.41289616 4.1999998
1.199978 -0.592637 0.32369745 21
4.5810504 -0.47973821 0.44775242 67
-1.1161289 -0.34401974 0.38332629 0
3.3028991 -0.42802224 0.31305492 0
-1.124313 -0.22823766 0.33885422 0
4.5774159 -0.21988241 0.40966666 76
-1.6860527 0.10898185 0.38995022 25
-1.5854108 0.12288115 0.37965214 6.5
4.5878048 0.055521373 0.41614756 75
-1.7145469 0.22864339 0.38252193 11
4.19732 0.2801162 0.38689643 3
4.3455048 0.25619414 0.42275429 8
4.5851779 0.1633009 0.43615586 72
-1.562391 0.33908972 0.36480165 26
4.667109 0.41926831 0.4358505 1
-1.7756497 0.5005601 0.41988409 62
-0.85968715 1.3486782 0.35213166 75
1.3057798 1.3356396 0.377992 0.66666669
-0.79358071 1.4600623 0.32318282 35
1.277594 1.4294374 0.41743585 8
1.2743955 1.55019 0.37089393 16.25
4.6044626 1.5674522 0.33569378 81
1.2795781 1.7246543 0.3832528 14.75
4.5980706 1.6672535 0.42986178 79
1.282649 1.8013371 0.4039045 17
4.606883 1.8616891 0.39320278 82
1.2881042 1.9642653 0.44897372 15
1.2826123 2.1842008 0.34995443 18
4.6147709 2.1615491 0.3567571 79
1.2874593 2.3474343 0.34672785 14
4.6213193 2.3085933 0.34086484 86
1.2883245 2.5058787 0.41630507 0.66666669
4.2805405 2.4581003 0.39228493 64
4.4879074 2.4165869 0.43331599 45
1.285998 2.5800486 0.40666988 20.5
4.2903748 2.9336455 0.42950439 41
1.2966266 3.6837308 0.32992989 10
4.6338649 3.6444888 0.42555708 81
1.3007402 3.8695517 0.42477551 7
1.0775158 4.043469 0.32909244 47
4.637506 3.932462 0.41686863 69
1.1679715 4.0566559 0.37937164 49
1.2749617 4.073266 0.42496189 24
0.32129294 4.8807778 0.38187969 91
0.55527484 4.8805799 0.36036763 92.5
0.69312072 4.8710237 0.30489993 104
0.76577753 4.8770146 0.31476837 65
4.555109 -1.3975103 0.51896274 73
4.5606384 -1.1232294 0.51793808 72.5
-1.2369982 -0.95512354 0.51253384 24.6
-1.1106638 -0.95876598 0.5383389 18.571428
-0.9643079 -0.96047091 0.51239723 14.333333
-0.82546902 -0.96004122 0.51924306 8.666667
-0.69663346 -0.96433133 0.50286084 8.1000004
-0.5059824 -0.95607048 0.54684091 6.4444447
-0.44284636 -0.96685469 0.5366357 8.5
-0.17884374 -0.95420247 0.53338546 5.8333335
-0.11283154 -0.97339481 0.49580541 8
0.22651343 -0.95782846 0.48139602 1
0.33769855 -0.97323716 0.46962148 7.8000002
0.5489493 -0.97725648 0.5263558 29.333334
0.68050045 -0.97282624 0.50002873 36.777779
0.84507847 -0.97760767 0.5108887 37.57143
0.98501968 -0.97065908 0.51907921 22.799999
4.5641322 -0.99672693 0.56097537 71
-0.51641405 -0.79164165 0.50551033 3.5
-0.34239882 -0.81041312 0.47055912 5
-0.28552458 -0.87977183 0.48468888 2
4.5657778 -0.85209823 0.5562191 73
-0.64765894 -0.7274642 0.50635093 4
-0.54718924 -0.7227695 0.49697176 3.3333333
-0.33403242 -0.64251524 0.59042537 0
-0.25629443 -0.64944929 0.52641332 1.2857143
4.5673752 -0.69253695 0.49118131 72.5
-1.1541176 -0.46453422 0.51936686 4.5
4.5660472 -0.50461787 0.54372621 11
4.5811653 -0.36597699 0.47873074 49
4.581604 -0.20769396 0.47675857 72.5
-1.2147855 -0.12368566 0.59500128 1
4.5796986 -0.07913734 0.5282315 72.5
-1.8377136 0.050273739 0.55101764 28.4
4.5873394 0.010986019 0.47579962 73
-1.7589798 0.29243943 0.54801196 8
4.5892105 0.18032306 0.58660376 73
-1.7651018 0.3810502 0.56200224 33.5
-1.781563 0.49487859 0.50856256 37.5
4.699523 0.55106568 0.47913906 5.5
1.288039 1.3303416 0.56870902 0
1.2753757 1.4584211 0.5158028 14.333333
4.6022644 1.4544699 0.48817492 68
1.2813679 1.5562345 0.54725963 13.333333
1.2851551 1.6821405 0.50995213 14
4.603168 1.7089571 0.53831136 80
1.2889665 1.8815292 0.52045763 14.4
1.2869039 1.9909413 0.56227589 14.5
4.6087322 1.9878991 0.54887873 79.5
1.2853926 2.1752708 0.59583223 15
4.6154118 2.2069511 0.52682805 85
1.2808411 2.3913095 0.50237405 6
1.2894197 2.4724541 0.46874434 3
4.4980159 2.4256678 0.53717858 47
1.2879746 2.6387727 0.49612236 17
4.2689123 2.6171951 0.55162168 76
1.2833414 2.7466438 0.55151886 13
4.2732034 2.77706 0.50638753 82
1.2919888 2.9462948 0.57341236 17
1.3056434 3.5786507 0.48226017 2
1.2962971 3.7188883 0.46165204 7
0.80961138 3.9774125 0.47954822 31
0.992212 4.03054 0.56970358 37
1.2988095 3.9977212 0.48230755 7.5
0.98673898 4.0752764 0.56416458 33
1.2456592 4.1092997 0.49948514 19.5
0.28627425 4.8766966 0.48859888 90
0.36296138 4.8848381 0.47216082 94.5
0.48755151 4.8793602 0.49784505 98
4.5524263 -1.5196626 0.73235178 76
4.5608172 -1.400753 0.62010193 78
4.5558777 -1.2784139 0.68827254 73.5
4.5584793 -1.0537503 0.6581831 71
-1.2223092 -0.94833988 0.70743257 34.333332
-1.1128823 -0.95403719 0.67270297 22.6
-0.97751361 -0.95195371 0.70418727 25.5
-0.83941036 -0.95590609 0.64930427 9.1428576
-0.65191472 -0.91894764 0.6728943 5
-0.51733023 -0.94864893 0.61542618 4.25
-0.27092785 -0.95969236 0.6267606 7
4.5668125 -1.0237082 0.67226815 72
-0.78679603 -0.85904753 0.73733151 6
-0.68742597 -0.80068821 0.69286072 5
-0.51841009 -0.87776005 0.64096677 5.5
4.5649118 -0.79526109 0.68283176 70.333336
-0.3455219 -0.6260305 0.65375149 2.1428571
-0.28393734 -0.65201366 0.6522724 0.60000002
-0.32407027 -0.59061837 0.62981498 2
4.567852 -0.5639677 0.66974533 70
4.5779281 -0.3283242 0.65473241 70.333336
-1.117605 -0.2788136 0.70287085 1
4.5779781 -0.2061763 0.71978188 68
4.5827432 -0.091645129 0.63601488 72
4.5808716 0.070117563 0.66640306 72.5
-1.7453686 0.24282278 0.68426043 19
3.9708188 0.2870909 0.66584897 0
4.2427425 0.25631297 0.61059165 0
-1.7652941 0.33834177 0.63976735 25.6
4.7073531 0.56231225 0.66811061 10
1.2799692 1.4463605 0.64638942 13.5
4.6077776 1.4804804 0.71306121 44.5
1.2789811 1.573741 0.67955792 12
4.6046529 1.5774488 0.63073182 83.333336
1.284039 1.7055998 0.68463922 12.5
4.6018353 1.7762681 0.66554797 86
1.2870409 1.8262745 0.65405673 13.5
4.6090269 1.8890021 0.70441574 84.5
1.2886302 2.0540409 0.68029422 10.666667
4.6141348 2.0150833 0.68391889 85.5
1.2897246 2.1633627 0.68663764 11.5
4.6269517 2.316973 0.70255423 83.5
4.2794785 2.4621978 0.69138205 65
4.3960156 2.4344871 0.6391784 41
1.2878551 2.6739519 0.66355169 20
4.2733479 2.6648223 0.72253144 75
1.289476 2.7642713 0.63963807 16
1.2901597 2.8979437 0.62925273 13.5
4.2858791 2.9525976 0.67880684 80.5
4.2838159 3.1222835 0.64580929 83
4.6349974 3.5488474 0.64968514 78
0.69867575 4.1246815 0.7060945 21
0.94684511 4.0808864 0.66169155 46
1.3027682 4.1250701 0.73147011 3
1.296581 4.3302145 0.73531592 3
1.2465988 4.4382348 0.69183034 16.666666
4.5557113 -1.5511837 0.84585977 72.5
4.55439 -1.3014348 0.83555555 75.333336
4.5609736 -1.0861725 0.80965841 74
-1.2228917 -0.94697958 0.80623722 41.666668
-1.0875731 -0.9467358 0.84890765 44.333332
-0.98043984 -0.94919854 0.82700485 32.333332
-0.89946884 -0.95684421 0.75356102 8
-0.68656051 -0.93210542 0.81123143 5.5
-0.46412551 -0.95755541 0.85138893 0
-0.15704422 -0.95050919 0.83650184 1
0.044094276 -0.94551665 0.85938251 51
4.5616326 -0.99667352 0.84043998 72.333336
-0.70820069 -0.87782538 0.7850951 5
4.5687795 -0.80130529 0.80696177 75
-0.62614095 -0.67134279 0.8570925 15
-0.37543374 -0.64353663 0.81436175 0.40000001
4.5692635 -0.68772966 0.81009138 65
4.5666718 -0.53731465 0.8367092 69.666664
-1.0870637 -0.34405875 0.77365088 5
-1.034941 -0.38565198 0.84083605 0
4.5722761 -0.40039 0.80119902 69.5
-1.1463856 -0.25760221 0.82232732 1.6666666
4.574769 -0.21993244 0.84651875 68
4.5809021 -0.1249326 0.82241595 71
4.5823059 0.058741547 0.81622821 71.5
-1.6912876 0.20112345 0.8175838 14.25
-1.649098 0.26557314 0.85500669 4
3.9834611 0.28309888 0.88589871 8
4.5840302 0.25145614 0.81059372 70
-1.6982148 0.33655804 0.79781449 14.5
-1.6416245 0.31341174 0.81477785 12.333333
4.6892233 0.53809953 0.83678603 10.5
1.2850362 1.5776626 0.7971015 9.333333
4.5989561 1.5496198 0.8052336 75
1.2855266 1.7283598 0.83029348 9.666667
4.6078887 1.7570202 0.78231931 80.5
1.285539 1.8587093 0.81706494 9.1428576
4.6066995 1.8233153 0.87337148 77
1.2886963 1.9963641 0.85022819 11
4.6207275 2.046504 0.87134403 82
1.2856954 2.1971073 0.86002159 9
4.6220713 2.1872163 0.78399533 89.5
1.2917918 2.3296087 0.82255089 8.75
4.6219916 2.320503 0.82753909 91
1.2815229 2.4043751 0.83481359 4
4.3024793 2.4424367 0.80959636 23.5
4.4519887 2.439955 0.85732138 44
4.5704494 2.4316461 0.8449446 60
4.2799549 2.5840683 0.86169589 84
4.2845168 2.7751312 0.7969625 78
1.2869347 2.9906101 0.85485065 15
4.2768555 2.9773636 0.84909415 78
1.284029 3.1021101 0.80053008 12.5
1.2903268 3.232517 0.83469349 11.5
1.2966136 3.3344142 0.82735884 12
4.6412597 3.557395 0.87206852 71
4.6384587 3.7478275 0.89376318 80
4.6414976 3.9728093 0.84437859 53
0.8323279 4.2458935 0.78891498 28.75
0.96950221 4.2706642 0.82306385 23
0.93858868 4.3719344 0.82808352 28
1.2284486 4.5036211 0.75791049 17
0.74236959 4.7282863 0.82669759 44
-3.1047673 4.9027853 0.86795866 4.5
-2.6969187 4.8972635 0.85088933 4.5
-0.46277311 4.8707237 0.84303522 6
-0.34608883 4.8790221 0.84275413 6
-0.26386347 4.8781118 0.85058975 5.5
-0.095915578 4.8668027 0.85558581 60.5
4.5569801 -1.5658275 0.97457552 36.5
4.5564804 -1.4515737 1.0387737 76
4.5619535 -1.2698846 0.99784303 75
4.5598564 -1.1725407 0.95268071 70
-1.2367336 -0.94121569 0.97506976 32.5
-1.1173247 -0.94078892 1.0032734 37.5
-0.94031602 -0.9462679 0.98801398 39
-0.81696022 -0.93980151 1.0097623 13
-0.71241128 -0.93164229 0.9028489 2
-0.2571471 -0.94145739 0.99060917 23
-0.057633698 -0.94853401 0.94174039 35.599998
4.5606136 -0.98486328 0.98693401 70
4.5660844 -0.8144145 0.92360604 73
4.5646458 -0.6520493 0.98015952 67.5
4.5692096 -0.39269021 0.98193526 67
4.5704503 -0.16968377 0.9459976 66
4.5787921 0.053793147 0.98502749 71
-1.6973069 0.20760223 0.92154348 0
4.579277 0.2717275 0.97745043 50.5
4.6760302 0.51855022 0.92734301 12
4.6080871 1.4800346 0.97689909 72.5
4.5999546 1.5254467 0.96154058 73
4.608799 1.7670412 1.0215273 76
1.2848439 1.8678045 0.9661172 9
1.2908686 2.0254071 0.98035139 7.6666665
1.2928889 2.1590772 0.97294778 7
4.6248374 2.1108804 0.96031189 81
4.6279488 2.3439655 0.97813892 85.5
1.2975084 2.5272491 1.0288265 1
4.2929201 2.4698124 1.00611 49
-3.3483858 2.5563438 1.0047626 58
1.2899406 2.6378443 1.0107125 17.200001
4.2913446 2.655591 0.94371963 84
4.2883625 2.7292619 0.92645919 86
-3.2766705 2.8749621 0.96496004 75.5
4.2816119 2.9018764 0.96560597 83
4.2832861 3.1035647 0.92096639 81
-3.2920053 3.3814328 1.0103576 14
1.2921444 3.4150651 0.92379105 10
4.6273375 3.5383766 0.95165026 70
1.2555381 4.7050047 1.0251206 38
-3.0991595 4.9076533 0.960859 73.75
-2.6587088 4.9016562 0.9919287 69
-1.7007746 4.8975854 0.987167 78
-1.4136603 4.8891597 0.91594172 79
-0.55370384 4.8678145 1.0070511 81
-0.36058921 4.8656225 0.99506998 86
-3.6463916 4.9581342 1.0281481 82
4.5545421 -1.5243407 1.1294516 65
4.5519238 -1.3988906 1.1611233 72
4.5579004 -1.1121334 1.112788 70
-1.2317104 -0.93483013 1.1365759 25
-1.0598384 -0.93576151 1.1430498 16
-0.93019176 -0.94326097 1.1038308 12
-0.8133437 -0.94085801 1.0707468 3
4.5739675 -1.0305605 1.1884339 78
4.5647917 -0.80330032 1.1395518 70.666664
4.5700769 -0.56727111 1.1231543 71.5
4.5719585 -0.35115713 1.0901783 72
4.5761046 -0.16021259 1.0572258 75
4.5714731 -0.11124432 1.0761001 67
4.578599 0.080561563 1.1199787 70.5
4.5780449 0.26009259 1.1608453 76
4.6819177 0.50856137 1.1173519 13.666667
4.6060739 1.4755818 1.1898872 73
4.6043873 1.723616 1.0639993 75
1.2934901 2.0399754 1.1432762 6.3333335
4.6204166 2.0235064 1.1183434 79.333336
1.2959305 2.1606121 1.1257122 6.25
1.2942605 2.294739 1.134998 6.6666665
4.2733111 2.5114982 1.0744251 77
4.6229978 2.4014676 1.0605838 85
-3.3455641 2.5575011 1.070272 59
-3.281002 2.5879288 1.1384939 37.333332
1.2881993 2.7444408 1.1204026 19
4.286263 2.7629371 1.1403804 81.5
-3.2758942 2.9485312 1.0995834 74
1.2886539 2.8501399 1.197455 16
4.2791653 2.9745684 1.0775996 80
-3.2803476 3.0259514 1.152393 71.666664
4.2818971 3.0751767 1.0612288 80
1.2958261 3.3892715 1.1034319 11
4.5051818 3.3986993 1.1590582 36
4.6349602 3.5618162 1.0988311 72
4.6384039 3.7183199 1.173509 75
1.3020353 3.8593035 1.1349316 0
4.6412249 3.9481053 1.097236 63
-3.0905402 4.9103823 1.1086631 59.5
-2.7528715 4.9221015 1.1351907 66.5
-2.654079 4.9149046 1.0955366 70
-1.818373 4.9044476 1.1816015 79
-1.7361175 4.9059515 1.1452347 86
-1.502592 4.885428 1.1406883 80
-0.87376457 4.8780007 1.1316315 80
-0.68101364 4.8768015 1.064456 81
-0.58201903 4.8721533 1.1581938 76
-0.31824124 4.8626037 1.0656724 82
0.50085437 4.9017262 1.0784494 85
0.6522876 4.8947153 1.1323936 79.75
0.85313141 4.9134045 1.149545 2
-3.6137714 4.9592562 1.1406112 56.5
-3.5208035 4.9619465 1.1024907 78.5
4.5565619 -1.5220823 1.3319149 72
4.555234 -1.4881215 1.3140932 69
4.5591331 -1.2510763 1.269713 73.333336
-1.2078305 -0.92641526 1.3436786 2
-1.0551574 -0.93674433 1.2329552 3
-0.77562577 -0.93405652 1.3463227 1
-0.59098506 -0.93709499 1.2314479 12
4.5666013 -0.98506266 1.2561556 69
4.5710721 -0.76505548 1.3356028 79
4.5738645 -0.55958676 1.2830857 74
4.5752563 -0.35584113 1.2397361 76
4.5788074 -0.15173787 1.2056159 77
4.5796294 -0.010929258 1.3471987 74
4.5877056 0.18809235 1.3376418 73
4.6076727 1.592541 1.2488163 84
4.6199446 1.7253181 1.2566352 77
4.6188698 1.8371071 1.3121235 86.5
4.620317 1.9781183 1.3338902 78
1.2950391 2.1721616 1.3091357 7
1.2938697 2.3251605 1.258961 7.4000001
4.6235886 2.3003488 1.21427 82
1.2827168 2.4006426 1.2967968 3
4.326849 2.444416 1.2260385 26.5
4.4182281 2.4489005 1.2619798 30
-3.8475344 2.5775948 1.3071591 64
-3.2815659 2.6582935 1.2764387 77
1.2905481 2.6260805 1.2895583 18.5
4.2802391 2.6752467 1.3318005 78
-3.2790966 2.7033234 1.3168153 74
1.2884566 2.7873662 1.2418786 16
4.283555 2.756742 1.2751518 79.5
-3.2865124 2.9413841 1.3176209 73
1.287383 2.9226661 1.2596407 16.5
-3.2853653 3.0683975 1.2865028 71
1.2922873 3.0123067 1.2735741 14
4.2844505 3.0724561 1.2991501 76.5
4.6361661 3.5524113 1.3263272 69
1.3060877 3.9778454 1.2473114 1
4.6365066 3.9393015 1.2834615 62
-3.0710311 4.9168682 1.287701 63
-2.8409183 4.9220901 1.201782 66
-0.96512532 4.891223 1.3039742 75
-0.83280736 4.8779593 1.2608284 85.5
-0.69982219 4.8837047 1.2402639 87
-0.58704501 4.8770823 1.2753189 87
0.35211354 4.9015431 1.2685267 86
0.58171409 4.9012375 1.2899877 83
0.81380087 4.9084144 1.2071588 23
-3.5399647 4.9618788 1.2562089 86
4.5576491 -1.4323987 1.4129343 72
4.5570159 -1.1753079 1.4645889 74
-0.66476595 -0.93259329 1.4056019 23
-0.49459687 -0.93107301 1.4563763 29.5
-0.35572889 -0.93302292 1.497252 22
-0.14264916 -0.93162519 1.429073 40
4.5610957 -0.96849221 1.3936205 77
4.5707307 -0.81045961 1.476921 73
4.5733533 -0.6077407 1.4317793 71
4.5762963 -0.4077448 1.3947906 75
4.5745606 -0.20959511 1.3654629 73
4.7014003 0.60513389 1.3763391 12
4.6188645 2.0612764 1.3806881 85
4.6171651 2.1752319 1.4063832 83
1.2954141 2.3131061 1.3786891 6
4.628417 2.3537135 1.4753132 88
1.2979139 2.5217729 1.3769373 5
4.2838449 2.4883792 1.4448749 61
4.3832183 2.4500134 1.4850389 31
4.5013423 2.4492543 1.4895236 32
-3.682869 2.5733414 1.4157898 55.200001
-3.3099494 2.5649095 1.3544134 52
-3.2783513 2.6166434 1.4937567 74
1.2898486 2.597157 1.4506404 21
-3.2789998 2.7287569 1.4394133 74.5
1.2894509 2.9792528 1.4730759 14
4.2840209 2.9775951 1.4798064 76.666664
-3.2836058 3.0857935 1.4267887 69.666664
1.2910253 3.0876372 1.3823693 14
4.2830496 3.1190231 1.3604137 80
1.2905298 3.1897752 1.4731114 14
4.6153021 3.5249739 1.3741062 59
4.6461177 3.6907949 1.3702029 73
1.3071393 3.8853326 1.4211819 0
4.6461287 3.8931079 1.3650945 67
1.3079185 4.0841842 1.4726187 0
1.4009542 4.3564463 1.4601479 1
-3.1769586 4.9374161 1.4432938 67
-3.0714216 4.9286594 1.3936813 63.5
-1.1779692 4.8917675 1.415116 82
-0.99195433 4.8973751 1.4634168 85
-0.86242127 4.886682 1.4345193 87
0.054450076 4.8792148 1.4468284 83
0.32210192 4.9063749 1.4281158 82.5
0.52492899 4.9028583 1.3742493 81.333336
0.66354436 4.8954053 1.3934091 80
0.76399904 4.8978844 1.4045051 79
-3.5474405 4.9632015 1.404236 65
-3.9123726 -2.9790525 1.6490999 66
-3.5654843 -2.9834404 1.6334852 62
4.5601974 -1.3866192 1.5477829 68
4.5661349 -1.22284 1.5988444 72
-1.1361659 -0.92817402 1.6210766 3
-0.84123939 -0.9285059 1.5723691 24.75
-0.6985774 -0.92431468 1.6035945 30.799999
-0.51644444 -0.93106472 1.5394558 29
-0.39177042 -0.92806798 1.5372409 21.200001
-0.22283891 -0.93024212 1.5483285 21
4.5718975 -1.0157025 1.5339468 72
4.6123261 1.6695638 1.5094737 77
4.6165648 1.9040682 1.5758055 79
1.3007122 2.4530816 1.5129972 2.5
-3.6246068 2.568464 1.5515959 56
-3.5411322 2.5749643 1.5476254 59.333332
-3.3116617 2.5803845 1.5428252 57
-3.2993193 2.5891607 1.6150301 24
1.2918715 2.6164751 1.5732569 16.333334
4.2811165 2.6261561 1.5422962 77.5
1.2907996 2.7678509 1.6065089 15
4.2896991 2.7726195 1.5595059 79
-3.2789733 2.9613302 1.578065 65.333336
-3.291374 3.108176 1.6439103 64
1.2948612 3.118988 1.5184462 14
1.3080572 3.2777555 1.5593265 11
4.3083534 3.2788978 1.6322924 40
1.3029964 3.3678761 1.5881786 12
1.3069106 3.4504306 1.6235982 12
4.6419134 3.6155574 1.5771536 63
4.636611 3.9063611 1.5477564 65
1.3833675 4.4704781 1.5816048 5
-4.3234029 4.6180201 1.6213005 66
-3.698972 4.608027 1.5901572 51
-3.3761234 4.6201067 1.5918021 66
-3.2579949 4.644712 1.5732671 31
-2.8521497 4.599484 1.6274911 76
-1.4055377 4.5688562 1.581187 69
-1.2746978 4.5776711 1.5887918 80
-1.0863484 4.5659628 1.5893819 84
-0.23806377 4.5617661 1.6246003 80
-0.0014717758 4.5601082 1.6472827 79
0.037747249 4.5634923 1.6041809 67
0.1852233 4.553185 1.6188474 80
1.2909857 4.5347118 1.56752 14
-0.24408799 4.6654992 1.5598211 52
-3.2323208 4.9373035 1.5017549 71
-2.9640028 4.9160113 1.5415528 66
-1.5112171 4.8920035 1.5853677 50
-1.3154742 4.8942451 1.5742992 37
-1.1465248 4.8909855 1.5436559 69.666664
0.048190426 4.8646984 1.552619 66
0.25265113 4.8700242 1.5678605 69.666664
0.39590025 4.9099717 1.5885015 95
0.49704313 4.9120312 1.5851003 101
-3.5334671 4.958014 1.5877025 65
-3.837014 -2.9850104 1.7065405 69
-3.5136342 -2.9829292 1.7257582 59
4.56427 -1.4364915 1.6757454 65
-1.00516 -0.91955286 1.7518097 24.333334
-0.79669344 -0.92653775 1.7404295 31
-0.65764177 -0.91870439 1.7606114 25
-0.52037472 -0.92455244 1.6934723 26.4
-0.37450311 -0.9269495 1.703635 18.6
-0.21343327 -0.92495269 1.6929653 16
-3.0585687 -0.21402092 1.739617 17
-2.7280331 -0.00072680105 1.7250918 10
-2.6471148 0.1365924 1.7179428 7
-2.4064307 0.26505765 1.7202817 18
-0.52326238 1.1762179 1.7995423 79
-3.1724901 1.4351832 1.7978622 82
-2.9926376 1.4229876 1.7973379 83
-2.4643245 1.4384516 1.7998565 70
-1.8614855 1.3570377 1.7966446 76
-1.5100682 1.4573402 1.7954515 86
-1.0843514 1.4728277 1.7990762 83
-0.765679 1.477984 1.7962631 69
-0.50827247 1.4575018 1.7927305 60
-0.36676854 1.4587772 1.7963386 73
-0.26871687 1.4488754 1.7963887 70.5
-0.13297679 1.4283562 1.799378 68
-3.352247 1.642287 1.7930158 81
-2.7620544 1.6045947 1.7952248 79.5
-2.6599071 1.6452036 1.7963461 89
-1.8156732 1.5700033 1.7910322 78
-1.7122616 1.572295 1.7927924 73
-1.5289143 1.5537486 1.7978362 77.5
-1.443139 1.5555396 1.7863213 89
-1.2917969 1.5195093 1.7934481 76
-1.1527697 1.5141521 1.7977556 70
-0.96470433 1.5909703 1.7936218 71.599998
-0.77407807 1.6496753 1.7886261 69
-0.62980747 1.5841774 1.795095 25.25
-0.49665585 1.5949017 1.788401 64.199997
-0.3412787 1.5522556 1.793396 74.25
-0.20892198 1.5691481 1.7941476 74.333336
-0.10120985 1.5971142 1.7942344 69.75
0.019281041 1.6424555 1.7896806 71
-3.8972051 1.6970054 1.7977582 76
-3.6358418 1.7322887 1.7909161 62
-3.4851058 1.6885463 1.793969 32
-3.4266143 1.7744688 1.7884599 55
-3.172699 1.7442603 1.7935458 83
-2.9306159 1.6984391 1.7922673 77
-2.8183692 1.6737465 1.7933718 88
-2.6644175 1.7859117 1.7890021 87
-2.4344873 1.6971165 1.7926491 71
-2.3043404 1.6839285 1.7937566 78
-2.1857333 1.6973383 1.7965503 73.5
-2.0617919 1.6934562 1.7978544 77.5
-1.7068617 1.7843001 1.7845955 73
-1.5611229 1.7626145 1.7901243 74
-1.437494 1.7069134 1.7887064 75.199997
-1.2242609 1.7071481 1.7945291 71
-1.1276649 1.6839002 1.7853285 74
-0.97070724 1.7229729 1.7905413 67.666664
-0.86330754 1.7329381 1.7888883 67.5
-0.60394597 1.761354 1.7865306 24
-0.5073871 1.7070255 1.7861166 53.666668
-0.39835989 1.7539597 1.7831888 70.800003
-0.22545496 1.705858 1.7865756 71.800003
-0.092497848 1.7329788 1.7855738 68.428574
0.041155856 1.758602 1.787244 73
-4.7223334 1.9140348 1.7975715 61
-4.5393095 1.8265119 1.7931079 72
-3.95351 1.9086825 1.795688 73
-3.6752489 1.8404616 1.7940913 68
-3.2555227 1.9073923 1.786867 73
-2.7520447 1.8862233 1.7849619 73
-2.6340635 1.9016031 1.7866415 86
-2.2664039 1.9387552 1.7885748 66
-2.1243768 1.9020355 1.7902343 72.5
-2.0532451 1.8471158 1.793739 74
-1.4042215 1.9043261 1.7836281 70
-1.3403364 1.8578924 1.7846278 68
-1.0951701 1.8751364 1.7820218 63
-0.96906579 1.8325015 1.7872669 65
-0.84514397 1.8436359 1.7875457 62.333332
-0.68416911 1.8119073 1.7936751 25
-0.5069176 1.9022106 1.7764372 56
-0.39289436 1.8752359 1.7809521 69.5
-0.27535334 1.8992409 1.7821574 63.666668
-0.060339767 1.8764516 1.7829895 66.333336
0.076751865 1.8755302 1.7856346 66.800003
0.21679576 1.9081385 1.7820524 64.5
-3.9128566 2.0746427 1.7880272 73
-3.853137 2.0799246 1.7912341 72
-3.6671751 2.0308297 1.7880572 68
-3.4995377 2.0262842 1.7856883 32
-3.397747 2.0295327 1.7779547 64
-3.19309 2.0512643 1.7886219 80.5
-2.9153218 2.0002842 1.7855798 78
-2.8010221 1.9551703 1.788916 83
-2.6653888 2.0738733 1.7800633 76
-2.3919361 1.9648507 1.7816256 76
-2.1430345 1.9839928 1.7912818 74
-2.0380557 2.0290663 1.7866863 68
-1.6941113 2.0235684 1.7787858 71
-1.591429 1.9958445 1.7812542 71
-1.4948286 1.9608419 1.7795969 69
-1.3148179 2.0277126 1.778859 68.333336
-1.0042305 2.0630484 1.7762749 56
-0.81711614 1.9828537 1.7801431 63.400002
-0.71472949 2.0404358 1.777522 28
-0.57914537 1.9649984 1.7851259 26
-0.3570132 2.0174701 1.7752739 60.666668
-0.21433602 2.0487471 1.7754509 62.75
-0.13114132 1.9781474 1.7785541 67
0.084842019 1.9968988 1.7800752 67.666664
0.19842555 2.0410984 1.7770971 66.199997
0.33539048 2.024183 1.7794541 68.5
-4.5865502 2.2453907 1.7803482 62
-4.3768873 2.2411048 1.7876114 70
-4.2321644 2.1460364 1.788926 72
-4.1218181 2.164978 1.791577 63.5
-3.6848857 2.1961617 1.7836586 72
-3.2805617 2.2397728 1.7748579 74
-2.7426519 2.1917944 1.7784054 76.5
-2.6099749 2.1801503 1.781675 78
-2.2135077 2.2036955 1.7771586 76
-2.0546188 2.1674662 1.7822062 72.25
-1.5157452 2.2244945 1.7764093 60
-1.4258122 2.1795642 1.7807082 69
-1.3079044 2.1492815 1.7746471 66
-0.8253516 2.201869 1.7720301 57
-0.68749332 2.1693292 1.7753489 34.799999
-0.462432 2.1141527 1.7707096 58
-0.24148674 2.1643069 1.7724167 59.666668
-0.079131164 2.1813335 1.7723732 64.599998
0.14281331 2.2300131 1.7718772 68
0.23957007 2.1369426 1.7732598 63.5
0.38013592 2.1749258 1.7739862 61.833332
0.5315423 2.2130387 1.7741284 61
4.625515 2.1511962 1.6574491 78
-4.7765465 2.3518028 1.7846426 63
-4.4201479 2.2513032 1.7902864 67
-3.9755046 2.2971132 1.7842687 70
-3.6854265 2.3304858 1.7811939 71
-3.511641 2.3889582 1.7735549 31
-3.3850372 2.3063235 1.76645 70
-3.2195265 2.3600471 1.7811962 81
-2.9495823 2.3308768 1.7770363 68
-2.8068075 2.2825084 1.7792025 73
-2.666213 2.3909278 1.7732371 77
-2.3454797 2.2527719 1.7731041 74
-2.0002527 2.3007176 1.7788477 67
-1.9188231 2.3501351 1.7779874 76
-1.6144786 2.2662082 1.7708269 62
-1.2371486 2.3203986 1.7723496 60
-0.93980914 2.281781 1.766637 57
-0.64904422 2.3238347 1.7728626 26.666666
-0.58189702 2.3262668 1.77095 26
-0.33198944 2.2769768 1.7671815 59
-0.088349342 2.3112168 1.7692966 62.5
0.033169981 2.3599148 1.7706467 64
0.29954311 2.3103528 1.7691028 65.5
0.4075155 2.2830346 1.7721797 64
0.51646608 2.3530142 1.7695709 60.142857
0.6957109 2.3453813 1.7707407 56.25
-3.934762 2.4642107 1.7786638 69.333336
-3.7502265 2.4081764 1.7820121 64
-3.6468821 2.4619927 1.7688164 67
-3.4392357 2.4571009 1.7707747 72
-3.1424508 2.4116466 1.7717143 67
-2.7048976 2.4780757 1.7699882 66
-2.5855081 2.4848795 1.7810992 81
-2.156018 2.4909432 1.7712499 74
-2.0047545 2.4829528 1.7717122 75.25
-1.52272 2.52315 1.7630991 66
-1.4239162 2.4592922 1.7649823 60
-1.3395725 2.4013042 1.77201 57
-1.1510835 2.4861796 1.7671652 55
-0.81675941 2.4923942 1.760558 61
-0.74526572 2.4219301 1.7620617 53
-0.51742893 2.4806979 1.7644787 43.5
-0.18567094 2.4452457 1.7665375 61
0.059264611 2.4551647 1.7660837 63.400002
0.17661284 2.5135112 1.7673999 57.5
0.53101087 2.4557858 1.7636708 59
0.67647928 2.4852047 1.7637564 56.333332
0.82561892 2.4217162 1.7695307 53.5
0.95880389 2.5056987 1.7638679 54.5
4.2871366 2.4860713 1.7100102 52
4.628593 2.4057276 1.7516693 90
-4.4367523 2.6821666 1.77159 64
-4.2649355 2.5592499 1.7725362 70
-4.1587133 2.5719233 1.7736441 67
-3.8178353 2.5844886 1.6680835 66
-3.6792519 2.5667868 1.7617854 73
-3.5267358 2.5682635 1.653268 59
-3.2910614 2.6273003 1.6952001 43.666668
-2.91924 2.674365 1.7650315 64
-2.7656519 2.5974958 1.769425 63.333332
-2.2889888 2.5619607 1.7655839 71
-1.8989067 2.6269748 1.7664845 77.5
-1.2410841 2.6352806 1.7622064 66
-1.1259212 2.6035011 1.7635112 60.333332
-0.61614078 2.6339123 1.7616531 27
-0.38858715 2.6472998 1.757225 55
-0.023091275 2.6127257 1.761779 58
0.21750657 2.6163173 1.7608626 58.400002
0.3351202 2.6652546 1.7590902 53.5
0.65623134 2.5930953 1.7629489 61
0.83365393 2.5893297 1.7605858 53.5
0.97189504 2.682117 1.7527899 55.25
1.1170483 2.6218441 1.7577943 53.75
1.2637497 2.636215 1.7277282 19
-4.8331232 2.8264091 1.7677983 62
-4.6426415 2.7043111 1.7680255 64
-3.217871 2.71803 1.7718803 71
-3.1211896 2.7879865 1.7602268 68
-2.6323745 2.794347 1.7657094 55.666668
-2.0252845 2.747118 1.7620038 72
-1.927268 2.8074501 1.7571945 69.333336
-1.4112178 2.7883065 1.749632 67
-1.3195767 2.7073395 1.7532374 57
-1.053434 2.7810938 1.7520047 67
-1.0238398 2.7966816 1.7528981 62
-0.6790663 2.7205622 1.7610692 29
-0.46765074 2.8367858 1.7472752 53
-0.37517887 2.7396262 1.7528368 56.5
-0.2684361 2.8017883 1.7552332 52
0.15712924 2.7825904 1.7566947 60
0.37752795 2.7846167 1.7623763 50.5
0.49676466 2.8130741 1.7478247 60.333332
0.85519725 2.7022398 1.7563146 56
1.0123045 2.740571 1.7541188 53
1.1346731 2.8118579 1.7501526 52.799999
1.260781 2.756794 1.7402771 20.5
-3.2838802 2.9591665 1.7104999 67
-2.7117445 2.9228215 1.758541 61.5
-2.221194 2.8974531 1.759214 73
-1.8777852 2.9576511 1.7498118 72
-1.7693053 2.8879063 1.7535757 72
-1.1639798 2.9276376 1.7463858 62.5
-0.9643805 2.9095566 1.7480952 62
-0.51767355 2.9387574 1.7462977 34
-0.22553834 2.905952 1.7475185 60.799999
0.35559392 2.9446175 1.7453364 63
0.55565453 2.8842819 1.7476591 62.5
0.67642927 2.9855103 1.7447357 54.5
0.79305488 2.9967325 1.7464336 56
1.2658072 2.8584621 1.7248508 19
4.283658 2.8994217 1.6765869 72.5
-3.2164938 3.1140215 1.7620488 72
-2.8875632 3.0539844 1.7551626 60
-2.7559278 3.0187786 1.749153 62
-2.641968 3.1141491 1.7463449 64
-2.00459 3.1310768 1.7536989 70
-1.8759776 3.0388434 1.7554702 73
-1.2861542 3.0820105 1.7428871 65
-0.92563349 3.0165911 1.7452341 65
-0.88220257 3.0967569 1.7420151 64
-0.3013477 3.0623329 1.7408143 60
-0.070634156 3.0760026 1.7440108 59
0.56554323 3.0636637 1.7430316 57.5
0.7317 3.0856011 1.7382261 57
1.0207776 3.1467993 1.7487999 55
4.2787461 3.0649996 1.6888047 71
-3.0964744 3.2054942 1.7504913 66
-2.6542394 3.2157543 1.7400209 56
-2.4956183 3.1545205 1.7586523 69
-2.1342227 3.2541316 1.7458202 63
-1.8462281 3.1904125 1.7480648 57
-1.686231 3.2119796 1.7547745 60
-1.0649111 3.2758861 1.7413725 64
-0.99879318 3.1502209 1.7417294 64
-0.79967779 3.2354724 1.737343 58
-0.33654773 3.1755435 1.7371992 60
-0.10623293 3.2399938 1.7352924 56.5
0.06626489 3.2395642 1.7365276 54.666668
0.15666457 3.2938027 1.7395171 57
0.81817585 3.2275555 1.7416044 53.333332
0.93419951 3.1939449 1.7413133 49.75
1.262658 3.2787764 1.7397977 18
-3.2883892 3.3812909 1.6765093 51
-2.7105753 3.4357536 1.7406913 65
-2.6670256 3.310096 1.7442164 62.5
-1.7868252 3.3591816 1.741293 55.666668
-1.1387755 3.3981478 1.7342035 62
-0.8243522 3.3764658 1.7358792 65.5
-0.73008764 3.3995543 1.7365106 59.5
-0.12959687 3.4371665 1.7356704 61
0.096796587 3.4280117 1.73498 57
0.15731089 3.4319336 1.7410074 48
1.0323709 3.3623161 1.7383732 49
1.1419569 3.3872688 1.7346535 50
1.2180464 3.3844962 1.7354125 48
4.4024277 3.3824439 1.7090856 29.5
-3.3470595 3.4714854 1.6582619 52
-3.210412 3.5530112 1.7483467 62
-2.8514912 3.4808545 1.7485322 66
-2.6269321 3.550452 1.7347075 62
-2.4422531 3.5465779 1.7476791 62
-1.9029286 3.4900389 1.7393302 58
-1.7527256 3.5677183 1.7362454 55.5
-1.5795586 3.5457954 1.7404858 52
-0.90287173 3.5862358 1.7297748 58
-0.63583624 3.5520635 1.7328272 29.5
0.10506119 3.5520396 1.7275141 53
0.26508522 3.4972777 1.7313946 55
0.34168491 3.5012717 1.7356673 52.5
1.0994828 3.4748669 1.7386953 54
1.2892528 3.4908497 1.7054979 6
-3.551995 3.7252836 1.6993498 34.5
-3.0619483 3.670208 1.7394494 61
-2.6170111 3.6961145 1.7336012 61
-2.0324838 3.653264 1.7353667 58
-1.6919494 3.7129426 1.7311835 53
-0.96563894 3.7347221 1.7215439 57
-0.64029247 3.61307 1.7341758 32
-0.53437668 3.6828167 1.7321774 31
0.10523836 3.6960468 1.7240988 55
0.35978353 3.7002568 1.7254792 51.5
0.51177764 3.7297027 1.7247545 50.5
4.6382933 3.7091513 1.6761054 76.5
-3.4559236 3.7616127 1.7378958 62
-2.6358118 3.8281422 1.7254012 62.5
-1.7244619 3.8618033 1.7309653 54.5
-0.67895842 3.7650456 1.7249783 28
-0.52584779 3.8162756 1.7226253 37
0.35230744 3.8193612 1.7208184 54
0.5364393 3.8074245 1.7240394 55
0.62663966 3.7518065 1.7284178 58
4.4442811 3.8259964 1.7122768 26
-3.7400646 4.0117159 1.7353452 56
-3.4174685 4.0227332 1.7221631 57
-2.7915933 3.9398096 1.7290703 60
-2.5985448 4.0429077 1.7180086 53
-2.3775861 3.9899588 1.7378062 56
-1.6257458 3.9467595 1.7288023 56
-1.4563315 3.9263961 1.7306002 59
-0.71378392 3.9210598 1.7143875 56
-0.45455682 3.9267497 1.7171694 61
-0.36251646 3.9618516 1.721524 60
0.3749516 3.9788094 1.7157243 59
0.58151639 3.9502189 1.7152828 54
0.79495114 4.0202608 1.7185272 53.5
0.90628964 3.9988155 1.7240049 60
-3.4976108 4.1692238 1.7241825 20
-3.2072992 4.0601974 1.7368535 60
-3.0143917 4.1901169 1.7247087 59
-2.5821836 4.165194 1.7140242 42
-1.6557828 4.0511084 1.7205876 44
-1.5507855 4.1333966 1.7263066 35
-0.76241964 4.1110816 1.7119037 62
-0.47572771 4.1031146 1.7077454 56
-0.3565532 4.1752491 1.7099084 53
0.65901744 4.0852041 1.7171158 53
0.8076753 4.0891085 1.7124335 54
-3.8593814 4.2357664 1.7364901 48
-3.5099301 4.3020964 1.7199609 50
-2.559768 4.2558846 1.7223365 48
-1.5917166 4.2768693 1.7237939 46.666668
-0.49424505 4.3069034 1.7083188 54
-0.22203712 4.2723475 1.708552 58
0.68392527 4.2794609 1.7081226 51
0.87926525 4.2455883 1.7066408 58
1.1511197 4.2988877 1.7126931 50
1.2241971 4.2616324 1.7188867 51
-4.1286664 4.3624568 1.7540814 16
-3.6538823 4.4295735 1.7083465 51
-2.7349277 4.4891863 1.7213925 51
-2.5670385 4.4033456 1.7044004 49
-1.4759927 4.3967109 1.7163635 60
-1.3094217 4.3544874 1.7190677 60
-0.077428475 4.3543782 1.7102522 62
0.98765051 4.416111 1.7050304 51.5
1.1069071 4.3841529 1.7064497 50
-4.2129745 4.5791206 1.7382903 30.5
-4.198875 4.6291308 1.7093595 13
-3.7228 4.5882683 1.6996247 84
-3.4339089 4.6130815 1.6832844 92
-3.1658194 4.5900593 1.6965793 85
-2.5479069 4.5903659 1.6859728 35
-1.5284319 4.5604401 1.700796 71
-1.4016774 4.5733051 1.6769695 87
-0.52341837 4.5333462 1.7049927 73
-0.23876537 4.5012794 1.7005504 65
-0.10495931 4.5624976 1.6660036 80
1.021315 4.5417986 1.6741925 83
1.2138398 4.542326 1.6881462 75
-4.4665947 -2.9425318 1.94355 69
-4.250493 -2.856318 1.9294976 58
-4.0608482 -2.9640026 1.9201843 70
-3.9611099 -2.9422245 1.9321221 67
-3.863461 -2.9697316 1.8012391 70
-3.6820912 -2.9810438 1.8935028 64
-3.5505819 -2.9857042 1.8937656 70
-3.3871255 -2.986002 1.8499272 48
-4.1352301 -2.7299294 1.9451257 57
-3.4906065 -2.7224677 1.9326129 55.5
-3.2950246 -2.8259346 1.926875 57
-4.1115246 -2.5691409 1.9355704 57
-3.8160176 -2.6537035 1.9456722 54
-3.6765985 -2.6207156 1.92162 54.5
-3.4356723 -2.6168869 1.9458755 56
-4.4786091 -2.4995263 1.9374846 58
-4.2630329 -2.4275956 1.9192618 55
-3.9756846 -2.527396 1.9262255 58
-3.5184853 -2.4552131 1.9346377 66
-3.3061588 -2.4483407 1.9138199 54
-3.2225981 -2.5320449 1.9331944 58
-2.8880348 -2.4024835 1.9113511 55
-4.1496449 -2.3151586 1.9360079 54
-3.8179071 -2.329072 1.9355162 59.5
-3.511205 -2.3403533 1.9208053 57.333332
-3.2054224 -2.3192484 1.9323157 60
-2.9707129 -2.3933513 1.9336172 60
-4.1265936 -2.1782129 1.9304777 60
-3.9839563 -2.1406426 1.9154283 59
-3.6920779 -2.2411587 1.9098961 59
-3.5002532 -2.171752 1.9253725 62
-3.3249927 -2.1077006 1.9074124 57
-3.2362537 -2.1904385 1.9218353 57.5
-2.7802496 -2.1872714 1.9124404 55.666668
-2.6593347 -2.2461812 1.9312311 31
-3.8300431 -2.0186298 1.9246699 64
-3.5209572 -1.9966087 1.9109346 41.666668
-3.2365599 -1.9861432 1.9183904 57
-3.0078654 -2.0753198 1.9194106 48
-2.9386125 -2.0825922 1.9035858 60
-2.6688817 -2.0248237 1.9015456 54
-2.5141754 -2.0305812 1.9143254 62
-3.8240697 -1.9101671 1.9182602 62
-3.7071209 -1.8900566 1.8999064 58.5
-3.4931777 -1.8933234 1.9216815 3
-3.1916673 -1.8857707 1.9051534 4
-2.8521295 -1.8630151 1.8909022 54
-2.7935688 -1.9067413 1.9053959 61
-2.6968312 -1.929679 1.9072741 51
-2.3944421 -1.8611479 1.9095453 62
-3.0538688 -1.7852095 1.9156934 4
-2.9821286 -1.7805657 1.8958365 4
-2.7750504 -1.6703243 1.8877422 58
-2.62816 -1.7531221 1.9001774 65
-2.2827444 -1.7220006 1.8997791 60
-2.2043524 -1.7902057 1.893962 51
-2.8801537 -1.6015825 1.9100074 3
-2.7513218 -1.6485922 1.9054455 63
-2.4497933 -1.6174225 1.9060105 59
-2.2523713 -1.5512367 1.8886932 38
-2.1540642 -1.626477 1.8943542 55.5
-2.0828631 -1.5359728 1.9025947 31
-2.6142023 -1.4998387 1.900133 44
-2.4999609 -1.3822993 1.9034933 4
-2.3325624 -1.4865654 1.8928462 55
-2.1839309 -1.3977966 1.8841999 60
-1.9852327 -1.4233035 1.8910352 58
-2.3518469 -1.282015 1.8883152 21
-2.1542993 -1.253912 1.8843858 55.5
-2.039685 -1.2152737 1.8894747 48
-1.8583467 -1.293308 1.8875771 43.5
-1.7514567 -1.2998903 1.8791764 35
-2.207761 -1.1186135 1.8783575 44
-1.9121308 -1.1106427 1.890776 13
-2.2734327 -0.95161593 1.8775922 6
-2.2063098 -1.0050114 1.8832854 16
-2.0817096 -1.0091892 1.8813735 16
-1.388177 -0.95096153 1.8779248 7
-1.3063012 -0.90949911 1.8680898 35
-0.92869693 -0.91455877 1.8367337 71.5
-0.82160664 -0.91303587 1.863587 78
-0.71113473 -0.91306955 1.8532873 70
-0.50711989 -0.9129712 1.8555552 53
-0.40966469 -0.91590625 1.8380698 42.5
-0.24796206 -0.91927844 1.8418983 34
-2.2270265 -0.87167364 1.8946546 4
-1.5083706 -0.82871592 1.869718 17
-1.3971106 -0.82150602 1.8707792 52.666668
-1.2803519 -0.83898753 1.8710724 67.400002
-1.1243674 -0.84020913 1.871078 88.5
-0.98119158 -0.79743004 1.8642422 86.5
-0.8484413 -0.81141913 1.8674707 90
-0.6483447 -0.82421982 1.860028 78.25
-0.52864474 -0.85055727 1.8630657 68.714287
-0.3716985 -0.80932969 1.8617166 57.799999
-0.27590418 -0.86867309 1.8597391 52
-1.5458131 -0.66969824 1.8607448 48
-1.421131 -0.69262677 1.8679093 74
-1.2761554 -0.64695388 1.868924 84
-1.1049948 -0.68985116 1.8629006 94.5
-0.97032154 -0.67151642 1.8619785 86.400002
-0.82193702 -0.6797356 1.8617241 83.25
-0.6683979 -0.66931719 1.8572441 85.285713
-0.53226924 -0.69969904 1.8605498 77.875
-0.36723599 -0.68403715 1.8573729 66
-1.6593261 -0.52918899 1.8558265 1
-1.5428848 -0.5100736 1.8592731 70.5
-1.4169428 -0.53650832 1.8625295 77
-1.2738498 -0.52430737 1.86496 82.5
-1.120833 -0.55169249 1.8561921 82.333336
-0.98575443 -0.55352587 1.8579208 80.25
-0.81161356 -0.51313245 1.8530252 85.5
-0.67292053 -0.5387463 1.8534189 81.888885
-0.55059785 -0.5307008 1.85252 81.800003
-0.42440832 -0.53384107 1.8522727 74.75
-2.3115966 -0.35086605 1.8522872 30
-2.1998506 -0.41818428 1.8560811 24
-2.0134804 -0.37471747 1.8536657 57
-1.7176341 -0.34831935 1.8539737 71.5
-1.5486478 -0.37927303 1.8556205 80.333336
-1.4254345 -0.36229196 1.8556814 85.5
-1.2924085 -0.38503391 1.8522116 84
-1.1092868 -0.38979784 1.851117 77.666664
-0.97138172 -0.37729481 1.8523604 79.625
-0.82256281 -0.37266561 1.8458344 85.400002
-0.67540711 -0.36849231 1.8486171 77.888885
-0.50886005 -0.37034336 1.8490225 80
-4.5287766 -0.27245626 1.8631221 62
-4.3528495 -0.28597972 1.8549057 72
-4.2104373 -0.22094293 1.863125 70
-4.1845803 -0.16843279 1.8578373 79
-4.0422249 -0.18452863 1.8512572 71
-3.2055359 -0.29805031 1.8537556 12
-2.2981815 -0.19626924 1.8489929 62
-2.1793568 -0.22396491 1.8534546 72
-1.9980626 -0.18768018 1.8480452 76.5
-1.8486505 -0.26431245 1.845634 74
-1.7296256 -0.18711953 1.8490981 76.5
-1.5699291 -0.22683461 1.8509251 93
-1.4400698 -0.19328038 1.848599 92.666664
-1.2701614 -0.23547164 1.8459449 81.5
-1.1376051 -0.2202038 1.8439699 82.666664
-0.9628424 -0.21495573 1.8456146 78.166664
-0.82066387 -0.2181426 1.8440946 82
-0.68681896 -0.22558585 1.8447371 78.199997
-0.51294285 -0.20605387 1.8431581 79.75
-3.9212794 -0.10728493 1.8626353 67.5
-3.8272345 -0.033220921 1.8487262 62
-2.5627813 -0.038584128 1.8501266 48
-2.4079578 -0.053096175 1.8390664 76
-2.2955248 -0.029718148 1.8498091 79
-2.1910689 -0.037510362 1.848822 74.333336
-2.0457122 -0.036953244 1.8434078 53
-1.8579381 -0.096998632 1.8421885 73.5
-1.7381878 -0.027324419 1.846198 74
-1.5851904 -0.074208871 1.8461784 85
-1.4488271 -0.052691024 1.8391179 82
-1.3066685 -0.063875176 1.83893 85.5
-1.1445519 -0.058512878 1.8409559 80.5
-0.98308575 -0.08431834 1.8391918 81
-0.82707441 -0.076502725 1.8391061 80
-0.66279089 -0.092359215 1.8421926 81.400002
-0.52918375 -0.057936069 1.8418339 78
-4.5526538 0.06798549 1.8537589 65
-4.3740077 0.042451423 1.8444902 72
-2.464551 0.10623798 1.8370641 71
-2.3195186 0.033941202 1.8412288 77
-2.2307997 0.12293623 1.841946 76
-2.0218921 0.075282037 1.8397062 80.5
-1.8628238 0.069958203 1.8401531 68.5
-1.7388229 0.12747389 1.8835645 52
-1.5664397 0.05790304 1.8751503 70
-1.4335976 0.10779314 1.8506608 63
-1.2803037 0.097792298 1.8368603 85.25
-1.1369895 0.053686935 1.8362969 79.666664
-0.98607528 0.065182611 1.8367636 82.375
-0.81867278 0.071584038 1.8361244 80.818184
-0.68224496 0.061747018 1.8378539 85.875
-0.5536921 0.055581924 1.8387333 82.666664
-3.7867546 0.17753604 1.8359233 11
-3.737535 0.21939301 1.8639559 5
-3.0570312 0.22821073 1.8396723 22.5
-2.8656235 0.22538839 1.8350364 64
-2.7393394 0.29328078 1.8391694 79
-2.5824399 0.1639432 1.8415388 65
-2.3125353 0.2005316 1.8415697 79
-2.1805046 0.16152364 1.8435924 78
-1.9808561 0.19676544 1.8329967 81
-1.8649284 0.23759711 1.8416598 64.5
-1.7300017 0.28128088 1.8820356 49
-1.5861629 0.21184891 1.8930537 69.666664
-1.4422035 0.25338256 1.8702112 99
-1.3052686 0.23135234 1.8311204 81.333336
-1.1337914 0.2048208 1.833186 78.5
-0.97051346 0.23256238 1.832292 78.599998
-0.8341347 0.22716165 1.8306204 80.777779
-0.67831546 0.23108496 1.8340487 84
-0.55117691 0.20634809 1.832711 88.25
-3.3852723 0.36940345 1.8194789 0
-3.1597304 0.33800977 1.8298615 37
-2.6082301 0.3715781 1.8401035 73
-2.3136387 0.40208477 1.8391711 17.5
-2.204011 0.33728233 1.8414315 82.333336
-2.0296903 0.34812969 1.8332723 82
-1.8330028 0.35991719 1.8572294 51
-1.7321239 0.39550075 1.8740009 58
-1.5843266 0.36563849 1.8824091 59.333332
-1.4227319 0.39410734 1.8467486 73.5
-1.2979978 0.38340282 1.8312889 86
-1.1431282 0.36460227 1.8302429 75.400002
-0.97868025 0.37702495 1.8287477 76.714287
-0.81676996 0.37011224 1.8261814 80.699997
-0.68593627 0.37846708 1.8438616 56.285713
-0.54375339 0.37805802 1.8303676 72.75
-2.6308582 0.58532333 1.839934 76
-2.4676118 0.53219056 1.8284488 62
-2.3006403 0.59411454 1.8319932 84
-2.1880922 0.50859183 1.8346024 83
-2.0273058 0.53101933 1.8242044 85
-1.8474832 0.48771223 1.8282807 82.5
-1.7213409 0.52899653 1.832576 68
-1.5763745 0.53064495 1.826769 80.25
-1.4006003 0.53353536 1.8275876 84.5
-1.2837167 0.54737109 1.8297244 92.333336
-1.148466 0.52489918 1.8222456 78.800003
-0.97530252 0.53027928 1.8261589 75
-0.84166163 0.52575815 1.8233539 74.428574
-0.66904759 0.52078182 1.8273656 72.125
-0.53254986 0.54623121 1.8198432 83.25
-2.7291131 0.72228932 1.8313707 80
-2.5153258 0.72551614 1.8198954 73
-2.3027644 0.61409169 1.8228837 79
-2.1806259 0.69766021 1.8279762 80
-2.0983799 0.68107158 1.8290478 79
-1.8763777 0.63097459 1.8216475 81
-1.7310753 0.68916899 1.8238621 85
-1.5432531 0.66718411 1.8251467 83
-1.4156092 0.72831506 1.8263956 93
-1.2856954 0.67251009 1.8269378 90.25
-1.1196668 0.67349625 1.8163927 77
-0.94554412 0.66372114 1.8209575 75.75
-0.81061482 0.68831813 1.8188211 74.090912
-0.68238169 0.68101037 1.8196954 75.85714
-0.54343981 0.68006426 1.8177174 79.166664
-0.44268507 0.7478289 1.8173953 84
-3.4342217 0.78669679 1.8157319 54
-3.2067807 0.81332898 1.8187298 82.333336
-3.0141916 0.89893061 1.8198007 80
-2.9241257 0.87920594 1.8301364 71
-2.772006 0.84319592 1.825972 74
-2.6416416 0.80395371 1.8285359 79
-2.4056504 0.77611321 1.825941 75
-2.2923768 0.8108443 1.8247443 75.5
-2.2021053 0.81222236 1.8248959 80
-2.0255122 0.81663454 1.8190395 81
-1.8547072 0.80930221 1.8128039 76
-1.7093019 0.85561299 1.8194222 83.666664
-1.5792012 0.80127507 1.822392 87.333336
-1.4336782 0.85880947 1.8201635 83
-1.2601247 0.81174052 1.8219994 88
-1.1237329 0.81102461 1.8211597 95.333336
-0.96995974 0.82135361 1.8149916 80.666664
-0.83691502 0.82505059 1.8157202 77.166664
-0.68755627 0.84461075 1.8140901 74.166664
-0.54030609 0.83630735 1.8172307 76.666664
-0.41413549 0.83840448 1.8143777 82
-3.6060288 1.0495528 1.8239642 46
-3.4081206 0.90005779 1.8120927 73
-3.1957862 0.97734672 1.8156171 83
-2.8651733 0.92022508 1.8226868 82
-2.7151918 0.94139457 1.8214437 82
-2.6544058 1.0316904 1.8214988 73
-2.5089331 0.95779192 1.8188776 83
-2.311403 1.0111877 1.8163558 79.333336
-2.1742833 0.98363495 1.8184605 80.666664
-1.8792665 0.97225201 1.8084331 85
-1.7012178 1.007133 1.8127221 84
-1.5620438 0.96762252 1.8183559 82.666664
-1.4473962 1.0034553 1.8152765 81
-1.2935071 0.98639798 1.8162328 86.666664
-1.1348091 0.94917166 1.8195398 86.199997
-0.95680165 0.94765043 1.8176478 90.5
-0.81837809 0.96822059 1.8157905 90.599998
-0.67712265 0.9624415 1.8137866 83.85714
-0.51421344 0.98521763 1.8112419 77.125
-0.38689956 0.99836367 1.8181982 79.333336
-3.6409764 1.1420207 1.8148046 53.5
-3.5259089 1.0785732 1.8199197 42
-3.3631268 1.1176095 1.8071684 72
-3.1981869 1.1602645 1.8108072 83.5
-3.0055337 1.155923 1.808951 84
-2.8789279 1.148772 1.8119506 75.5
-2.7511978 1.1153076 1.8180918 76.666664
-2.4895382 1.1930242 1.8084708 77
-2.1688824 1.1661005 1.8148239 76.5
-2.096715 1.074062 1.8176538 80
-1.8519813 1.1684827 1.8080306 73
-1.5953301 1.1305487 1.8090215 82.5
-1.4520713 1.145221 1.8149605 81
-1.2817636 1.1255107 1.8112526 80.5
-1.1289594 1.1097045 1.8123426 82.199997
-0.99401796 1.0698582 1.815282 84.5
-0.83715367 1.0976534 1.8120507 86.666664
-0.69186491 1.1113371 1.8105145 77.222221
-0.5307709 1.1359122 1.8098186 76.800003
-0.37930146 1.1331023 1.8102102 74
-3.6202543 1.3400954 1.8134998 52
-3.3300283 1.3409331 1.8005062 80
-3.2015009 1.3115294 1.803892 73
-2.7314537 1.3168626 1.8061606 83
-2.6580458 1.2684222 1.8083004 78
-2.2890174 1.2302643 1.8096584 76
-2.133709 1.2396988 1.8091303 82
-2.0900574 1.284178 1.8118621 76
-1.701921 1.2006527 1.8053659 79
-1.5800209 1.2492526 1.8078481 80
-1.4119928 1.3164263 1.8058412 78
-1.2131741 1.2054653 1.8080415 82
-1.1234615 1.2565256 1.8066257 81.666664
-1.0168098 1.2408434 1.8082542 76.333336
-0.82371104 1.2619333 1.8079786 78
-0.67424774 1.2869766 1.8088151 40.285713
-0.51198167 1.275674 1.8069857 59.166668
-0.36607036 1.2706693 1.8067034 72.14286
-0.22368155 1.2766573 1.8100063 67
-4.0452909 1.4341781 1.812673 73
-3.824857 1.3913347 1.8103205 76.666664
-3.6283474 1.3893461 1.8094791 53.5
-3.4709594 1.3730882 1.8036634 38
-3.4276235 1.47065 1.8006171 62
-3.2170248 1.4432032 1.80384 85
-2.8930292 1.4044032 1.8009454 80
-2.8216951 1.387409 1.804337 87
-2.682426 1.4018743 1.8057112 79
-2.3405535 1.4452479 1.8039685 75
-2.1707737 1.4295058 1.806756 80.400002
-1.712891 1.3794776 1.8030053 75
-1.5777339 1.3727694 1.8040415 88
-1.4649018 1.4255841 1.8049994 79
-1.2555091 1.3524737 1.8025013 78
-1.0984689 1.3692365 1.8065262 76
-0.96636868 1.3943348 1.8065338 75
-0.68285561 1.4415913 1.8024954 27
-0.56821489 1.3974421 1.8040898 40.25
-0.37429377 1.4165188 1.8019674 71.199997
-0.24778621 1.4116532 1.8036073 69.666664
-3.9269354 1.5442244 1.8030714 71
-3.65047 1.5776823 1.8030591 62
-3.2344375 1.6019917 1.8000599 82
-2.6658182 1.5212436 1.8017267 76
-2.1107023 1.5827478 1.8041714 78
-2.0769036 1.5034019 1.8051533 79
-1.6305271 1.5870141 1.8203341 24
-1.0155145 1.5027187 1.8010942 65
-0.8569147 1.5041906 1.8007694 70
-4.2046661 1.7638594 1.8039392 74
-4.0839043 1.787395 1.804435 67
-3.8380666 1.73387 1.8020247 71.5
-3.6550751 1.6911236 1.800423 68
-3.2242906 1.7321746 1.801123 80
-2.1431997 1.6550655 1.8014835 73
-4.3682847 1.8461151 1.8065943 69
4.2837377 2.7441263 1.8269309 22
3.4824498 2.9910653 1.8546931 36
3.7910383 2.9549677 1.8639711 34
4.0764351 2.881973 1.8622159 32
3.9633248 3.2469974 1.8461332 32
4.2864504 3.1884212 1.8323125 58
3.9020317 3.4202371 1.8382245 21
4.2800713 3.3846002 1.8456959 4
4.1699772 3.5422444 1.8243512 34
4.3039446 3.6161408 1.8265225 66.5
-3.8055205 -2.7917833 1.9546493 62
-3.5328355 -2.7838583 1.9545707 60.5
-3.1738026 -2.6812804 1.9509069 52
