# .PCD v0.7 - Point Cloud Data file format
VERSION 0.7
FIELDS x y z intensity
SIZE 4 4 4 4
TYPE F F F F
COUNT 1 1 1 1
WIDTH 1635
HEIGHT 1
VIEWPOINT 0 0 0 1 0 0 0
POINTS 1635
DATA ascii
-0.4947986 -0.60706598 -0.16954857 8.5
-0.48840678 -0.59679663 -0.18369386 8.75
-0.36721262 -0.58495641 -0.17478567 9.25
-0.21387541 -0.56938654 -0.16849479 9.25
-0.07198251 -0.55118835 -0.17075092 10
0.075397357 -0.53519797 -0.17786764 8.5714283
0.1873851 -0.52996182 -0.19134313 11
0.38341451 -0.50721252 -0.17145994 10.8
0.53031695 -0.49562356 -0.16782895 7
0.67829144 -0.48514709 -0.17347617 6
0.74150544 -0.41791973 -0.17522761 0
4.0901155 -0.40693551 -0.15944642 23
4.069376 -0.15510914 -0.1918997 81
4.0746322 -0.13274859 -0.17182757 54
4.051115 0.12236203 -0.18742555 99
2.4689484 0.18088549 -0.17409614 5
0.65037 0.42438591 -0.16937092 0
0.82026339 0.42935163 -0.16222003 2.5
1.4738346 0.36760208 -0.17541412 0
2.3236756 0.3162553 -0.18538682 5
0.64647555 0.48970962 -0.17746447 0
1.1112636 0.45466495 -0.19350392 2
1.3262175 0.47595361 -0.18596278 1
1.5770279 0.49746084 -0.16049562 2
1.9931047 0.53746253 -0.19313569 2
2.2944937 0.45972109 -0.18481047 8
0.55416548 1.4568715 -0.17108756 2
-0.97233015 1.7580017 -0.17130831 83
0.55039102 1.7930917 -0.16835107 18
0.52097261 2.1455913 -0.17703122 16.5
-0.99710345 2.394413 -0.16514775 4
0.50476944 2.3470769 -0.19836019 19
-0.88965201 2.5406289 -0.18854675 3
1.8898575 2.4244843 -0.1849135 3
2.0808988 2.5129519 -0.18247615 5
3.8399675 2.4658034 -0.18221991 6
3.5296195 2.8562953 -0.16175754 56
-1.0831876 3.1677003 -0.1891816 11.5
0.34187514 3.8892894 -0.16988051 1
-1.2778888 4.1344261 -0.16588329 50
-1.0642065 4.5778642 -0.18449458 107
-0.95683897 4.5838699 -0.19480431 107
-0.81724739 4.5935392 -0.17641905 108.5
-0.67421359 4.6095638 -0.18817674 110
-0.40851116 4.6384563 -0.1720885 103
4.1997485 -1.5300888 -0.057109002 3
4.1709433 -1.2347064 -0.14039259 74
4.1362028 -0.91804492 -0.058726002 78
-0.7829687 -0.61160809 -0.043272667 10
-0.68236852 -0.60885566 -0.067843132 9.6153851
-0.55183733 -0.60601628 -0.10071163 10.090909
-0.42460215 -0.61187625 -0.040647868 9.5
4.1044626 -0.65458953 -0.11188883 20.5
-0.62900436 -0.59671116 -0.021393558 10.25
-0.51818907 -0.59213465 -0.063623786 9.7894735
-0.36752781 -0.57920426 -0.074147843 9.375
-0.22475789 -0.56479585 -0.069064543 9.0357141
-0.064763889 -0.53965765 -0.078777336 9.727273
0.07589151 -0.5322594 -0.073680811 8.4736843
0.21952251 -0.5195657 -0.07603395 8.7142859
0.36239925 -0.50542611 -0.07013116 7.2800002
0.5174399 -0.49737412 -0.070275009 6.2380953
0.66838586 -0.47695699 -0.05707274 4.7857141
0.73453754 -0.41876367 -0.042046163 0
4.0844727 -0.40217209 -0.079019852 33.5
-0.75992906 -0.17776829 -0.015376752 1.5
-0.7461381 -0.17936248 -0.011305396 2
4.0667782 -0.18871447 -0.034430075 98
-0.77107364 -0.09288802 -0.014324392 2
2.6023903 -0.028885901 -0.022119705 1.5
2.3437014 0.11917903 -0.067842163 14.666667
4.0486469 0.050423786 -0.055022798 57.5
2.522661 0.1765034 -0.14183813 3
0.66858101 0.40458748 -0.077344246 0.083333336
0.77542841 0.40427575 -0.082116276 1.2
1.043466 0.43914658 -0.14671461 1
1.4624968 0.36771539 -0.12566417 0
2.3787909 0.3186523 -0.14759597 5
2.4867504 0.42996198 -0.02390269 23
3.5062716 0.39459753 -0.0031575309 10
0.64134616 0.47277033 -0.068979479 0
1.1410171 0.46038434 -0.13880894 2
1.2452366 0.47137341 -0.037776254 2
1.3630428 0.48136014 -0.058928408 1.5
1.5891309 0.50242513 -0.098733671 1
1.7531068 0.51690537 -0.00331295 2
2.3061571 0.45982182 -0.14270443 11
3.2441161 0.55598813 -0.028166717 10
-0.90359229 0.9636569 -0.087946989 1
-0.8920505 0.97322798 -0.085046493 7
-0.86698645 1.0753366 -0.099177234 3.5
-0.88664585 1.3107117 -0.096801586 3.3333333
-0.9328056 1.4083648 -0.10981289 14.666667
0.55837262 1.4457434 -0.090186097 3.6666667
0.61277372 1.454602 -0.10719339 3
-0.94271183 1.5731041 -0.10565706 11
0.56456196 1.619789 -0.039749742 17.75
-1.0617532 1.6682994 -0.1100365 25
-0.95075428 1.7458212 -0.11980603 55.125
0.56084633 1.7210262 -0.12419298 19
0.54120278 1.8636539 -0.011783248 18
0.53107351 1.9987432 -0.057145335 16.5
-0.97271746 2.3280458 -0.096772075 4
0.49958232 2.3283198 -0.098997824 16.333334
-1.0781268 2.5157943 -0.13560098 6
-1.046038 2.4043045 -0.1206213 6
0.47189754 2.5027654 -0.085136957 0
3.8180406 2.5138397 -0.014524912 75
-1.0900937 2.6774383 -0.12546223 7
-0.89352113 2.5564222 -0.14541081 2
0.46729219 2.5990882 -0.024676805 3
-1.120553 2.7331095 -0.11723983 6.5
0.46676004 2.7083187 -0.087690152 16
3.8001101 2.7614398 -0.090485699 76
-1.1984953 2.931426 -0.13744622 59
0.45086473 2.8585575 -0.10348532 8
1.9530171 2.897644 -0.03773338 7.5
3.4820483 2.8612256 -0.0082675563 43
0.43695575 3.02965 -0.12722918 6
1.8551154 3.1259229 -0.054679994 1
2.1863768 3.0867803 -0.049225513 5
3.4197524 3.1225588 -0.051060889 65
0.41611969 3.2336473 -0.14827697 7
1.8778191 3.2326958 -0.12553674 40
2.5981088 3.2659726 -0.066343494 15
2.5297801 3.3511531 -0.036891464 12
2.5612986 3.3126619 -0.12760457 35
2.4553633 3.5548179 -0.12364972 29
3.386301 3.4694939 -0.065896071 76
-1.0770265 3.9857249 -0.042657617 1
0.32808083 4.02073 -0.095492877 1
-0.1262164 4.119864 -0.1193502 76
-0.042885471 4.2895846 -0.010802095 20
-1.0680053 4.5796566 -0.057878681 66.5
-0.68283844 4.6055398 -0.088466652 95
-0.44414976 4.630506 -0.10003556 108
-0.19256252 4.590971 -0.11429182 150
0.22855099 4.61378 -0.052922938 47
-0.28523526 4.6505413 -0.13772935 99
0.26907831 4.6665506 -0.14820422 14
-0.99319261 4.8587952 -0.00094324828 30
4.1919327 -1.4695657 0.089641891 2
3.5800846 -1.0531021 0.089965247 29
4.1608939 -1.1867098 0.0074438406 73
3.5650847 -1.0053383 0.090102516 10
4.1495099 -0.94801867 0.092041694 7
-0.780092 -0.76168889 0.12845689 5
-0.71980917 -0.77890545 0.12175437 5.1999998
4.077076 -0.89244652 0.082579844 15
-0.85539997 -0.66892695 0.022892023 2
-0.66266656 -0.65077394 0.027067745 10
-0.42117888 -0.6072644 0.0162664 11
0.24257518 -0.60615098 0.081498824 6
0.43911424 -0.63641137 0.13321491 5.3333335
0.47861874 -0.61134911 0.13621102 5
0.66008258 -0.6182754 0.13748884 7
4.1043825 -0.67419171 0.036682885 37
-0.45470449 -0.58852762 0.0034845723 6
-0.21827015 -0.55855858 0.0063099219 8
-0.078865625 -0.54137325 0.0035155592 7.75
0.11299095 -0.52258474 0.0093491329 4.6666665
0.22163928 -0.51112592 0.012139894 5.4444447
0.37632513 -0.50817043 0.022229711 6.7142859
0.49185574 -0.48923779 0.015044298 7.5
0.70158762 -0.51261556 0.06854067 5.5333333
4.0770974 -0.47424084 0.14208281 150
-1.1209493 -0.36581913 0.1189327 0
-0.97413695 -0.33901995 0.10714193 4.4000001
4.0828447 -0.44471228 0.074342474 45.5
-1.1408947 -0.23200682 0.13064134 0
-0.96001828 -0.26441887 0.10773225 4.6666665
3.7448394 -0.20815936 0.073841684 16
3.9836614 -0.23740503 0.11106467 77
-1.0714638 -0.044768862 0.14779165 2.5
-0.99196613 -0.083129808 0.094412602 4.1428571
-0.8159439 -0.040697012 0.02581571 1.6666666
2.3179832 -0.032403532 0.024863744 5
2.5692971 -0.047085769 0.10434514 3
2.2676883 0.067604378 0.030338848 8.333333
2.2259359 0.22341797 0.021313252 17
0.69145012 0.40839317 0.01747722 0
0.81822568 0.42710084 0.043056365 0
1.4591186 0.38090107 0.047418736 1
2.2228122 0.39293501 0.025695184 20.5
3.0835962 0.33369622 0.032523002 150
3.1886714 0.35664859 0.023112262 150
0.62538433 0.50238311 0.0054416908 0
1.1615913 0.46453509 0.049195331 2
1.2247096 0.47012657 0.068514079 2
1.3912915 0.48263669 0.014111574 2
1.5758663 0.50380898 0.10408648 1
1.6611221 0.50823194 0.13539618 0
1.8079507 0.52448183 0.081239663 0
2.2445326 0.48151222 0.044569101 10
3.0603063 0.52334869 0.022114212 1
0.55478835 1.4286051 0.094396077 2
0.60057271 1.4600428 0.13787103 1
0.55463815 1.5052576 0.043231931 0
0.55332994 1.7251177 0.03151476 14
0.53914368 1.8553935 0.090004303 13.666667
0.52261531 2.0607727 0.099453501 16
0.50892711 2.1809793 0.078974925 14.5
0.49902231 2.3312638 0.058500495 17
1.8706419 2.2924385 0.057920583 3
3.8348167 2.4595621 0.081495129 4
0.45960236 2.6922257 0.030749077 15
3.8129318 2.5895293 0.01703837 80
0.44742477 2.7723033 0.088248454 9
3.7855604 2.7966223 0.075661294 81
0.43477303 2.9995565 0.063070558 7
3.4540706 2.864614 0.14282513 16
3.7568476 2.8830264 0.12444597 71
0.42050457 3.074939 0.13614523 7
1.9489622 3.1388361 0.052566018 14
3.4078259 3.1354277 0.10162731 65
0.41290736 3.1641667 0.058637735 7
1.894734 3.2202101 0.10603145 33
0.39916629 3.4029996 0.059799548 8
0.36139238 3.5686584 0.044771429 0
3.3839135 3.4644902 0.082981221 69
-0.36257884 3.8868012 0.012696142 31
-0.083108187 4.0271258 0.059119519 70
0.33999383 3.9153862 0.046914186 0
-0.30480984 4.053576 0.11772432 7
-0.10287999 4.0776234 0.14367938 43
-1.1247742 4.5921512 0.0049160076 14
0.20045145 4.680232 0.037394311 47
-1.3961488 4.8206625 0.10300373 2
-0.70655054 4.8819094 0.06191716 95.333336
-0.51790458 4.9007816 0.082984336 93.5
0.18160526 4.834209 0.13998771 28
4.1853085 -1.4425009 0.22816703 34.5
4.162302 -1.2108756 0.27681881 72
-1.3709548 -1.065358 0.26830631 49
-1.3079115 -1.0615318 0.26705787 29
-1.2451032 -1.0459641 0.24685395 46
-1.1025506 -1.0027615 0.2505489 2.4285715
-1.0379595 -1.0334048 0.27128673 9
-0.66416752 -0.9921543 0.26644355 8.3999996
-0.54596359 -0.9812234 0.27338058 10.25
-0.39771491 -0.96743286 0.27151197 10.8
-0.21405384 -0.94416249 0.27883288 10.571428
-0.076253839 -0.93660593 0.26885021 12.5
0.080580622 -0.92369986 0.28356311 9
-0.81106079 -0.75634253 0.17107204 3.8
-0.66839653 -0.79146522 0.20542495 5.1111112
0.40325171 -0.79495037 0.23457912 6.8571429
3.6812668 -0.83865315 0.17867759 29.5
4.1073747 -0.79214209 0.27641004 48
-0.80025041 -0.73402673 0.19649869 4.5999999
-0.70337701 -0.73595554 0.22462182 6
0.41479674 -0.67718655 0.18106762 7
0.45747831 -0.70538098 0.20374864 5.75
0.63892591 -0.64125496 0.16273156 5.4000001
4.1041937 -0.69286352 0.18403813 68
-1.1021532 -0.48785415 0.21487045 1.1666666
4.0938363 -0.51182473 0.25245574 72
-1.1257198 -0.35011926 0.19392836 0
-1.0038705 -0.37899312 0.1665054 3.3333333
-1.1247622 -0.24154302 0.18667549 0
4.0651245 -0.24806471 0.24166264 86
-1.1497772 -0.027193017 0.25139359 3
2.5379131 -0.054940801 0.21768624 0
2.6460681 -0.035173599 0.19973415 4
2.7749376 -0.034888867 0.26233268 4
1.4781314 0.36517239 0.20051928 11
1.2320737 0.47310352 0.21034542 1.5
1.4344683 0.49226758 0.23346925 1
1.6386549 0.50909203 0.27198613 0
1.7061367 0.51312375 0.22114983 0.5
3.0575843 0.48352233 0.16433257 8
2.8339288 0.63267374 0.28967482 9
2.9492502 0.64194274 0.21665919 9.5
-1.552321 1.2758191 0.25667024 72.444443
-1.496214 1.3304087 0.25836316 66.666664
0.56432217 1.4468913 0.20502885 1
0.56061995 1.5860015 0.23184504 4.6666665
0.55221128 1.6810733 0.16208154 10.5
-1.5982594 1.8943095 0.22920394 17
0.53220439 1.8795238 0.28412101 12
-1.5046619 2.0401378 0.2259866 1
-1.4929069 2.0100358 0.24181397 10
0.51918983 2.0331678 0.18140398 12.666667
0.50415993 2.198765 0.2678881 9.5
-0.90436685 2.3578041 0.17665339 0
0.49400479 2.3326809 0.227386 16
2.0845208 2.3607988 0.21675491 0
0.47071946 2.4744351 0.21942061 7
3.8275418 2.4989631 0.24460316 66
-0.85397798 2.5638161 0.20886135 2
0.45895767 2.6847942 0.22020793 13
3.8054974 2.6005261 0.22659737 79
3.7983096 2.7542186 0.17684329 80
3.4239056 2.9653144 0.20813751 71
3.505147 2.8702281 0.25123471 46
0.40262634 3.147105 0.20333523 7
3.406198 3.1415014 0.25190866 73
0.39118314 3.2516356 0.27947593 8
3.3685994 3.4561429 0.23162913 69
0.3463136 3.8125103 0.26710641 1
-0.33994508 3.9655082 0.28390032 11
-0.12701726 4.0909648 0.22640622 46
0.31224591 4.0973439 0.28775573 0
3.088789 4.5089211 0.19231868 24
-1.6758984 4.7498608 0.21284497 63
-1.2827206 4.7918892 0.29572678 76
-0.97145706 4.8190055 0.23317692 61.5
-0.79710233 4.8507051 0.27633703 84
-0.66369838 4.8839555 0.28825587 104
4.178484 -1.4225097 0.3680394 36.5
4.1594548 -1.3101344 0.43329704 73
-1.5742234 -1.0832722 0.3797971 44.75
-1.4063236 -1.0657789 0.39152074 41.700001
-1.2804887 -1.05862 0.35294086 15.8
4.1522093 -1.1634147 0.35524103 66
-1.2215792 -1.0437597 0.34452209 47.666668
-1.1056939 -1.0307754 0.38418809 8
-0.65721375 -0.99791026 0.37667146 8.5
-0.51425886 -0.98359877 0.38752061 8.272727
-0.37126476 -0.97212064 0.37731916 9.3999996
-0.24914062 -0.96157283 0.37232479 9.3000002
-0.060079493 -0.93949491 0.38538459 9
0.055159651 -0.92621726 0.35538384 9.363636
0.21204658 -0.90776139 0.40259391 7.090909
4.1036325 -0.96301609 0.36893734 49.666668
-1.098786 -0.78157359 0.4219979 16
-0.92370933 -0.86051625 0.34980267 4
-0.84756619 -0.80317706 0.39903092 4.5
-0.70552433 -0.81544888 0.38956693 2
0.25594038 -0.89266372 0.36975443 5.25
0.40981627 -0.88440138 0.3504107 3
0.45697379 -0.8582201 0.34241426 6.3333335
-0.83557326 -0.71660191 0.41470513 4.6666665
-0.70366526 -0.74699819 0.44361097 2
4.0910196 -0.68681729 0.33468655 84
-1.1748594 -0.49992767 0.38816097 6
4.0889716 -0.51934183 0.39740241 74
-1.148689 -0.35351634 0.39600176 0
4.0831194 -0.42847228 0.31663328 74
-1.2433883 -0.16126175 0.40395799 0
-1.1637865 -0.24303259 0.37558138 0
4.0645981 -0.2879011 0.35483474 75
-1.2553343 -0.095614195 0.40947732 4.6666665
2.7866173 -0.11372195 0.38588589 0
-1.8268642 0.10350671 0.43774635 19
-1.0469115 0.0026328545 0.31363809 0
2.6310987 0.029393958 0.36929816 3
2.8750951 0.039752349 0.3913393 3
-1.5758604 0.22607636 0.34865379 7.3333335
4.0213404 0.2208569 0.43568373 78.5
-1.7716035 0.33690828 0.39552331 69
-1.6089321 0.35705024 0.35159329 15.5
4.0103874 0.40125057 0.43044847 84
-1.7720996 0.4607752 0.3870675 56
3.9949858 0.48768458 0.43777263 91
3.4862034 0.69451606 0.38273007 11
3.9820168 0.66932571 0.44367078 94.5
4.0521145 1.0561082 0.33587378 7
-1.5405406 1.2422363 0.3526586 53
-1.497192 1.3471377 0.33287585 60
-1.4805784 1.4136057 0.34935275 42.333332
0.56048578 1.4374205 0.35586512 0
0.60617954 1.4630249 0.4066509 1
0.55261892 1.6334515 0.32213569 11.5
0.54029483 1.7467552 0.36488351 11
0.52701199 1.8769841 0.43951771 10.5
0.51096934 2.0246425 0.43318716 10.5
0.50197369 2.1490428 0.43494028 10
0.48856258 2.2918122 0.34683412 9
1.9460795 2.3580947 0.3617354 0
-0.94481826 2.5155222 0.42196894 3
0.47594202 2.4416318 0.37019438 7.5
2.0128176 2.4194162 0.30895323 0
-0.97543162 2.6078906 0.37757593 3
0.45943719 2.6745131 0.3932144 8
3.8090127 2.5784605 0.40158504 76
0.43436813 2.7820978 0.40007848 10
3.7912838 2.7364497 0.35090399 76
0.42105025 2.937171 0.41181123 9
3.4234848 2.9494119 0.39960253 68.5
3.5187974 2.8684144 0.40374792 45
3.7392199 2.8805425 0.31966662 75
3.7906597 2.8604958 0.34082609 89
0.39841294 3.1071682 0.42966294 8
3.4046731 3.1238811 0.36278015 69
3.3877027 3.2771339 0.34486467 70
3.3693326 3.4441531 0.37777179 78
-1.0438522 3.8457136 0.31576133 0
0.35952806 3.7642884 0.37200171 0
0.081149712 4.1442871 0.4476288 46
-0.10171904 4.2155299 0.4222554 38
0.27546912 4.4420547 0.30504513 0
3.6110449 4.6452675 0.33391434 74
-1.8380631 4.7315297 0.43239659 43.5
-1.7071136 4.7489734 0.36835289 76.333336
-1.5961322 4.7745566 0.36526966 78
-1.2833731 4.7961569 0.40078831 91
0.19923629 4.6762071 0.308878 28
-1.0033851 4.8172178 0.30596358 86
-0.60000074 4.9017234 0.39467025 84
-0.31982195 4.9063892 0.32675284 79
4.1713085 -1.4284326 0.52140981 34.5
4.1456017 -1.2351632 0.59941196 65
-1.6876049 -1.0944072 0.56652433 43.333332
-1.5716749 -1.0818045 0.51708835 45.714287
-1.4464617 -1.0696672 0.52258146 40.5
-1.3119167 -1.0580516 0.51480019 45
-1.1896117 -1.0500891 0.45393109 10
4.1468225 -1.1588873 0.49966943 75
-1.2470554 -1.0238172 0.52750689 38.833332
-1.1287771 -1.0327522 0.53032202 15.2
-0.93454701 -1.0165153 0.53069502 8.5
-0.80811769 -0.97018135 0.47631353 4
-0.66243517 -0.98031366 0.53950912 7.375
-0.53782916 -0.98412812 0.51114279 8.2857141
-0.36653426 -0.96654034 0.52120489 8.666667
-0.20188467 -0.94832772 0.52883238 8.25
-0.090263665 -0.93714076 0.51967514 8.25
0.081194818 -0.9169392 0.52290893 7.6086955
0.19631571 -0.90835494 0.46979487 7.3333335
4.1248641 -0.99060267 0.51889563 72
-1.2458514 -0.83878398 0.52982575 104.66666
-1.123253 -0.78644699 0.50293732 42.5
-0.98465157 -0.82119733 0.51567572 4
-0.84228075 -0.87178349 0.46796077 2
-0.70291638 -0.8227483 0.51817089 4.5
0.25885963 -0.87152404 0.48830998 1
4.1040606 -0.75270802 0.45159352 75
-0.95475739 -0.71064657 0.51972008 3.8333333
-0.8160488 -0.71449691 0.50625628 4.4000001
4.0976257 -0.68575549 0.56060648 73
-1.2007873 -0.46777004 0.54347301 0
-1.1778703 -0.49473915 0.46704453 3.75
4.0805488 -0.49350438 0.5518654 72
4.0782619 -0.42778611 0.51716274 76
-1.2343662 -0.19101575 0.47977829 0.25
-1.1719887 -0.19630691 0.47006494 0
4.0584831 -0.25176486 0.50298429 71.75
-1.2604814 -0.10591074 0.49193943 5.75
-1.8357735 0.12273121 0.52418983 38.5
4.0256109 0.087075226 0.46582896 70.5
-1.8218195 0.28990531 0.57915872 65
-1.7153137 0.2404021 0.4797878 75.5
4.0228667 0.18553537 0.48518544 83
-1.8235495 0.37919512 0.54217052 32
-1.7218822 0.36622104 0.47106135 104
4.00107 0.3834345 0.47408113 82.5
-1.8235631 0.50276452 0.46999183 63
3.9839375 0.56950766 0.46457118 80
3.9773796 0.63770282 0.48790801 83
4.0496864 1.028457 0.50898457 13
0.59232754 1.4560293 0.4849146 1
0.55060923 1.5795791 0.50341004 6
0.51910889 1.9016176 0.51657385 8
0.51047146 1.9828972 0.59439909 7
0.50201619 2.1542299 0.58779997 8
3.8242614 2.4418671 0.55333328 2
3.8023069 2.6144719 0.59000897 73
0.43243963 2.8002868 0.53732508 6
3.4291439 2.9318104 0.58325481 64
3.7791741 2.8722613 0.52155942 83
0.40284091 3.0718791 0.59906101 10
3.4033022 3.1141565 0.49784374 73
3.3877187 3.261353 0.53853333 69
3.3661892 3.442621 0.50301516 69
0.33746356 3.8347681 0.45712578 0
-0.16282541 4.003808 0.57316911 38
0.19047596 4.1714444 0.52292186 40.333332
0.0086594643 4.33076 0.46066487 37
3.606504 4.587213 0.48407733 64
-1.9904749 4.7269773 0.55140007 58.5
-1.9096508 4.7368188 0.55919081 83
-1.5827084 4.7685294 0.48903704 82
-1.2823347 4.7955179 0.50850481 50
-1.1218746 4.7990417 0.47171241 68
-0.99019241 4.8126497 0.47193751 58.5
-0.89629734 4.8361521 0.57246917 81
-0.61104244 4.8971591 0.51347429 90
-0.36206138 4.9211893 0.53596359 84
3.5549047 5.1437488 0.57623851 63
4.1736898 -1.4871467 0.69567406 5
-1.6734531 -1.0804257 0.7014643 38.5
-1.5903325 -1.0807921 0.62589306 40
-1.362963 -1.0549281 0.62675607 10
4.1373911 -1.1578245 0.69920331 69.5
-1.2665217 -1.0459554 0.62044513 10
-1.0254954 -0.92142886 0.62165987 4
-0.66478646 -0.99421084 0.65682828 7.8000002
-0.5058403 -0.97289085 0.67335176 9
-0.37874538 -0.96290886 0.66222179 7.6666665
-0.24488883 -0.94652337 0.6793623 8
-0.056861501 -0.92954272 0.67889386 8.0666666
0.022575827 -0.91725969 0.64103979 7.6666665
4.1153274 -0.94634539 0.66744614 69
-1.1365865 -0.81319761 0.69456559 80
-0.80224645 -0.77264297 0.63665587 15
-0.69232976 -0.81335747 0.66586345 2
4.1157479 -0.89802063 0.6355871 69
-0.83786446 -0.68679321 0.65380639 4
-0.72215831 -0.72209948 0.63145047 4.5
4.0989137 -0.72437239 0.66298532 67.666664
4.0760646 -0.51421946 0.68565691 67
-1.2086263 -0.31932664 0.64505374 7
-1.1643517 -0.3618713 0.68550491 4.5555553
4.059166 -0.32279542 0.69844317 69.666664
-1.1858602 -0.29338992 0.67894363 28
4.0456548 -0.15678564 0.71999216 67
4.0437908 -0.098604061 0.66472167 40.5
4.0237627 0.10352917 0.64452583 63.5
-1.8194138 0.25818688 0.65971291 35.75
-1.7518368 0.26004183 0.69436026 43.333332
4.0074849 0.27743384 0.65759009 77.333336
-1.8117247 0.31970978 0.61825228 34
-1.7620147 0.33042085 0.66018182 20.799999
4.0089197 0.31916785 0.61391824 82
3.9866059 0.49437997 0.64395702 77.25
3.9678817 0.70297587 0.65162998 76.75
0.5860551 1.4683079 0.70349437 0.66666669
0.54398197 1.5957252 0.66013372 5
0.53145546 1.7220879 0.67972046 7.4000001
0.52707213 1.8150325 0.6193698 8
0.50645518 2.0771141 0.60616839 6
0.49301782 2.1697252 0.65935069 5.6666665
0.4840582 2.3406994 0.61737651 7
0.46706903 2.4316459 0.62949908 6
3.8043587 2.5178649 0.74454069 75
3.796149 2.5692363 0.74836791 74
3.7809308 2.709955 0.66990268 81
0.41811779 2.8936167 0.64963228 6
3.4162321 2.9260135 0.74917459 67
3.7605836 2.8828187 0.70540309 82
0.38196152 3.2605565 0.63956153 8
3.3868694 3.2218683 0.72839046 68
3.3658516 3.4426353 0.62650692 73
0.35679758 3.4549296 0.67304742 8
3.327147 3.5963526 0.64774084 18
0.33171195 3.7361567 0.73538363 0
-0.064190194 4.1501231 0.67956948 39
-0.038424242 4.206233 0.66399372 31
-0.23822692 4.3618336 0.64102447 19
-0.34184933 4.5449777 0.67403269 20
3.6027019 4.5402246 0.63565087 70
-2.2808299 4.7023153 0.68118119 74
-2.1350949 4.6987286 0.64881563 72.5
-2.0558884 4.713038 0.61515999 69
-1.8891025 4.7371655 0.68898118 73
-1.5704205 4.7684498 0.65745741 80.5
-1.2389106 4.7870293 0.65938771 81
-0.8994031 4.8318377 0.69458532 82
-0.63189089 4.8948522 0.67533857 109.5
3.5622914 5.0687919 0.71877897 59
4.1582932 -1.4099293 0.83047068 65.25
-1.6842102 -1.095747 0.75091052 39
-1.6005955 -1.073849 0.82514644 35
4.1398702 -1.179933 0.80088097 67
-1.5342884 -1.0467334 0.75860655 150
-0.92751092 -0.98752689 0.81851506 1
-0.85399616 -0.99774015 0.82739806 5.5
-0.659015 -0.98491317 0.83827621 29.333334
-0.54232448 -0.9795292 0.81840324 8.333333
-0.35975927 -0.95554698 0.81881756 8.25
-0.21052007 -0.94507015 0.81481045 16.799999
-0.10490616 -0.93409026 0.80497998 11.5
4.1154366 -0.9594698 0.85570484 65.666664
-0.64073557 -0.75034934 0.80396473 4
4.0949039 -0.79857147 0.83639514 71.5
-1.0650618 -0.74198335 0.75589776 1
-0.79729784 -0.70612049 0.8644172 156
-0.69155216 -0.71631587 0.77356958 40.5
4.0883975 -0.70133245 0.83088374 65
-1.2082984 -0.52308434 0.78197873 5
-1.1573954 -0.49091756 0.77217686 7
4.0757594 -0.5447346 0.80174404 66.75
-1.084006 -0.36119068 0.80774951 1.25
4.0598812 -0.34218323 0.7992025 70
-1.1393239 -0.25614646 0.89342296 0
4.0383148 -0.11335897 0.85216159 66
4.0200863 0.081905529 0.83576334 66.5
-1.7473276 0.26672518 0.80679297 13.5
4.0001712 0.27477506 0.82687598 70.5
-1.7709033 0.39233246 0.82636487 2
3.9970834 0.33898324 0.89721036 72
3.9824698 0.49023417 0.85189486 69.666664
3.9669349 0.66191959 0.83724147 74.5
0.54361951 1.5954981 0.84568214 3.25
0.52508521 1.7342163 0.82910997 5
0.51586056 1.8740972 0.80601615 5
0.50253522 2.0094788 0.80005944 6
0.48623896 2.2109783 0.77766323 5
0.46975634 2.3811939 0.83990395 5
0.44651967 2.5027542 0.79775047 3
0.46731806 2.4155574 0.77264953 5
3.8189523 2.4288201 0.83156407 2
0.44469917 2.6591382 0.84578717 6
3.7836645 2.6281872 0.77959955 77
0.41738337 2.7591991 0.87192023 12
3.7673335 2.8192568 0.87396193 76
0.39852792 2.9767921 0.76087308 7
3.6013477 2.8851893 0.7656672 49
3.7567337 2.8878407 0.8922689 81
3.4023216 3.0350046 0.86380327 70
3.3789425 3.2020934 0.89073372 66
0.36863029 3.3245022 0.81076109 5
3.3528018 3.5368593 0.8990649 70
-0.58519936 4.1777883 0.78024244 3
-0.48465195 4.2087612 0.78510523 44
-0.3055144 4.239953 0.7906872 42
-0.29368383 4.2222815 0.82933927 29
-0.069038808 4.3427243 0.88838351 25
3.6413515 4.3213878 0.77745306 24
3.599411 4.4729314 0.7761147 67
0.1913377 4.5933642 0.83006251 12.5
-2.6195233 4.6683893 0.8472544 73
-2.4527063 4.6793699 0.88072896 75
-2.3628483 4.689096 0.81220794 75
-2.2412927 4.7119989 0.76407361 80
-1.8763303 4.7420273 0.80805719 73
-1.5752509 4.7558894 0.87180692 79.5
-1.1957524 4.8052444 0.82629764 79
-0.90620708 4.8332262 0.8070159 85
3.5550034 4.9864717 0.85886621 59
3.2416012 5.3253293 0.78649414 15
4.1574159 -1.4090626 0.92648995 60
4.1420574 -1.2725462 1.0129104 65.333336
-1.6819352 -1.076911 0.96312839 32
-1.5832229 -1.071229 0.95634109 32
4.132103 -1.1305773 0.99000657 68.5
-1.3301889 -1.0414479 1.0157819 39
-0.97800457 -0.99564415 0.94985664 1
-0.7778672 -1.0068527 0.94085121 6
-0.67895603 -0.9812867 0.99877757 12.5
-0.51002455 -0.96750927 0.97667944 31.200001
-0.39037839 -0.95339233 0.97034234 29.714285
-0.20238468 -0.93959653 0.95915234 25.571428
-0.10126295 -0.92373461 1.0045104 45.666668
4.1127586 -0.97462118 0.94186598 65
4.0864005 -0.68894482 0.98098427 65.666664
4.0688372 -0.5046699 0.95384717 67
4.0449724 -0.30430797 0.90973961 66
4.0572157 -0.44085822 0.978894 70
4.0435553 -0.24404493 0.94375622 66
4.02736 -0.047872074 0.91856122 69
4.0099602 0.14534767 0.90224063 69
3.9583838 0.7285459 0.91015983 77
0.53466648 1.6153361 0.9837144 3.6666667
0.52851677 1.7223346 0.99622071 4.4000001
0.51210523 1.9348097 0.93246752 4
0.50039554 2.0058138 0.95580143 4.6666665
0.48043883 2.1930614 1.0019703 3
0.45463663 2.4479446 0.96336067 3
3.7940331 2.5248461 0.99024028 71.333336
3.777986 2.6642709 0.98444343 72.5
0.41989732 2.7217355 0.99939847 15
3.417892 2.9015055 0.91206241 62.5
3.459686 2.874645 0.9429884 24
3.6394274 2.8855541 1.019171 43
3.3811803 3.1734517 1.0484846 74
0.35326669 3.3997576 0.94133103 5
3.3675063 3.3185976 1.0308666 73
-0.092003882 4.2678151 0.960572 12
3.6214969 4.3235254 0.92459416 75
-3.4827948 4.5953679 0.98191381 63
3.601691 4.5201106 0.96189535 72
-2.6271532 4.6757102 0.98700809 77.666664
-2.1997619 4.7137127 0.96432626 71
-1.85877 4.7410321 0.92907453 79
-1.7444832 4.7386041 0.91057587 71.5
3.5758672 4.7105904 1.0007801 75
-1.1904312 4.803432 1.0066487 76
-0.9091621 4.8327537 0.92183638 80
-0.39873689 4.9168634 0.97296834 56
3.5638967 4.9052453 0.99025047 62
3.2933493 5.2843876 0.92183673 16
4.1561418 -1.4429746 1.0909557 25
-1.7019541 -1.0851957 1.0624373 33
-1.545599 -1.0633135 1.1492491 33
4.1188297 -1.0863431 1.1495664 59.5
-1.4209863 -1.0480849 1.0718942 3
-0.77700239 -0.96214402 1.0938671 5
-0.6173594 -0.97691607 1.1492391 36
-0.53047675 -0.96507102 1.1431792 40
-0.39147353 -0.95004165 1.1437095 38.75
-0.2264844 -0.93430197 1.1357222 44.5
-0.13506323 -0.92395031 1.1189659 39.5
4.1058064 -0.91187102 1.0723369 66
4.1025214 -0.84509742 1.0843654 68
4.0376463 -0.30459693 1.1911489 64
4.0547829 -0.44105393 1.1812922 66
4.0357218 -0.26049006 1.1409311 64
4.0254698 -0.10280111 1.139163 64
4.0107522 0.07636518 1.1183794 63.5
3.9926114 0.25363046 1.1044526 64
3.9799201 0.40595484 1.1355059 68
3.9704375 0.52112347 1.101473 66.5
3.8846414 0.74856365 1.1297892 13
3.9564512 0.64105016 1.0619905 69
4.0289779 1.0395538 1.1208993 10
0.52181393 1.7356468 1.1305298 3
0.50867194 1.8756951 1.1318403 2.3333333
0.50190711 2.0132389 1.0739645 4
0.48263654 2.1767566 1.1392442 3
0.46893162 2.3032 1.179617 3
3.7900283 2.5021377 1.1434438 37
0.41693744 2.7222443 1.1274983 4.6666665
3.7683287 2.7937279 1.1177028 74.666664
0.40489995 2.8722758 1.0661517 11
3.4936604 2.8765392 1.1220644 35.5
3.7367551 2.898828 1.1793978 72
0.38723302 3.0255566 1.1262729 11
3.3930864 3.0633316 1.0887413 67.5
3.3809566 3.15837 1.0525485 68
3.3423131 3.4456787 1.1970193 72
0.33542961 3.4800463 1.0755831 6
3.3486998 3.5009677 1.0539476 70
3.6207647 4.261878 1.0635008 69
-3.9430282 4.5453358 1.1658564 74
-3.4633243 4.6024771 1.0545135 71
-3.3867886 4.5954709 1.1426295 78.666664
-2.7591276 4.6454692 1.1002157 76
3.6002107 4.5588846 1.0763744 64
-2.9775162 4.6505051 1.0855594 78
-2.7677004 4.6559477 1.1063966 77.5
-2.5538027 4.6899838 1.1265848 72
-2.1657262 4.7241359 1.1583312 79
-2.0466733 4.7152891 1.1455426 72.5
-1.8653718 4.73698 1.1167766 77
3.5796106 4.7602777 1.146848 65
-1.1860709 4.811307 1.1295798 84
-0.90038085 4.8464718 1.1812257 74
-0.7855373 4.8815432 1.1750031 83
-0.68031013 4.8862925 1.16772 88
-0.58061898 4.8987508 1.1552469 95
-0.29882407 4.9366627 1.1426708 23
3.3644309 5.2853608 1.0705717 56
4.1378126 -1.2987578 1.2335762 60.5
-1.654712 -1.0723902 1.3325192 31
-1.5549285 -1.0624542 1.2584321 28.5
-0.97643304 -1.0115596 1.2217396 33
-0.6617223 -0.97520369 1.3034455 39
-0.53695792 -0.96122384 1.286621 33.75
-0.36538008 -0.94769198 1.2904489 30.125
-0.23297934 -0.93189198 1.2735951 26.142857
-0.12446545 -0.90607148 1.2799596 1
4.0922275 -0.83629167 1.3035517 67
4.0754375 -0.64854288 1.2496971 66.5
4.0622501 -0.48609883 1.2271889 65
4.0347352 1.15351 1.2416505 10
0.51214749 1.7986051 1.260751 2
0.50378287 1.8955208 1.2681592 2.5999999
0.49289483 2.0160344 1.3031886 3
0.47228631 2.1827922 1.2565811 3
0.44982982 2.383944 1.2227532 6
0.43587506 2.4944606 1.2883855 0
3.788264 2.4640691 1.2740659 37
0.40392125 2.7613084 1.2622894 11
3.7601583 2.7408094 1.2954812 70.666664
3.4029565 2.934768 1.2221316 68
3.5263233 2.8827908 1.3107631 31.333334
3.383368 3.0885077 1.2372684 70
0.367028 3.1783218 1.2609208 9.5
3.3645713 3.2856236 1.2322314 69
3.3473165 3.4318511 1.2560782 69.5
3.3284388 3.6166596 1.2198985 68
3.6248074 4.2031703 1.2179558 66
-3.8727958 4.5576606 1.2921973 72
-3.3714001 4.6019707 1.2611181 80.5
-3.08689 4.6353359 1.2820098 78.5
-2.9534616 4.6563854 1.2146232 81.5
-2.5189927 4.6855702 1.2582065 75
-2.2090728 4.7095695 1.3182311 77
-1.8036878 4.7537155 1.3109722 73
-1.4769464 4.7883139 1.2824984 76
3.579602 4.6863451 1.3284612 62
-0.86218441 4.8438311 1.3387717 83
-0.58893776 4.899087 1.2720459 87.5
-0.31269005 4.9388738 1.2534525 23
3.5501001 4.993474 1.2585495 53
3.5236294 5.15416 1.2655139 60
3.4510853 5.2804961 1.2101711 80
4.134222 -1.258526 1.4561576 66
-1.5690589 -1.0678129 1.4100618 26
4.1184025 -1.1246097 1.4050612 66.5
-1.4140217 -1.0440609 1.4447428 31
-1.2914888 -1.0330298 1.4014314 31
-1.10719 -1.0226598 1.4212203 33
-0.95003527 -0.99984914 1.4200369 56.333332
-0.84577972 -0.99244076 1.4033977 30
-0.73853844 -0.9740445 1.4813359 40
-0.51195383 -0.95655805 1.4134052 31.5
-0.37563396 -0.94415998 1.4489681 22.166666
-0.24138007 -0.9270891 1.4106756 10.75
4.1084957 -1.0005422 1.3521166 68
-4.1454492 2.3215156 1.4842491 80
0.44156772 2.4428196 1.3769927 0
3.7640083 2.6583502 1.4173343 73.5
-4.1922317 2.7584646 1.4721532 78
3.3858051 2.999445 1.4037699 64
3.6054914 2.8864331 1.4428341 34
3.3764451 3.0729985 1.4293535 69
0.36343732 3.1768377 1.4559159 9
3.3645344 3.1915038 1.396805 69
0.34593183 3.3347163 1.4193176 10
3.3529549 3.3798923 1.4065742 67.5
3.3246775 3.5842865 1.4065028 68
3.6213889 4.1412969 1.373551 58
-3.8103216 4.5649786 1.4245943 81.5
-3.3401043 4.6234035 1.4738663 75.5
-3.1646991 4.6208973 1.4187258 87
-3.1253917 4.6243606 1.3608842 82
3.5849667 4.6012774 1.469226 58
-2.9182215 4.6632614 1.3696196 77
-2.4506516 4.6968117 1.409974 75.5
-2.3199315 4.6949539 1.3758298 74
-2.168164 4.7317934 1.4059235 86
-1.7855923 4.7580466 1.4408208 81
0.18472977 4.7328939 1.4318565 1
-1.1248201 4.8195677 1.3964137 81
-0.96109605 4.8277469 1.3632452 84
-0.89068288 4.8452849 1.4033072 82
-0.59251314 4.9050288 1.4487468 86
-0.32319009 4.9371953 1.3658248 23
3.5222633 5.2295866 1.4055051 62
3.2462652 5.311625 1.4636426 17
3.3945739 5.2904744 1.4392076 60
4.1388516 -1.4261158 1.5229915 51.5
-1.2892536 -1.0363147 1.5781162 24
-1.089034 -1.0063004 1.636547 32
-1.0030022 -1.0039483 1.6126276 30
-0.77576017 -0.98720747 1.5312116 30
-0.66194916 -0.9682374 1.5562881 30.799999
-0.50344247 -0.95465279 1.5322832 28
-0.37087116 -0.93781805 1.5954554 9.3999996
-4.1526327 2.3722143 1.6227219 80
0.41055256 2.6846941 1.5352468 1
3.762079 2.6258748 1.5060263 68
-4.1978416 2.8174171 1.6145186 84
0.39284259 2.8201888 1.6394926 12
3.7536194 2.726053 1.601637 78
-4.2031898 2.8546762 1.648183 78
3.3907607 2.9250042 1.5574483 53.75
3.7207296 2.881604 1.5719763 66.333336
0.37282008 3.2380722 1.5962503 12
3.3480251 3.2530568 1.5668192 66
3.3465631 3.3435633 1.6226441 67.5
0.31700158 3.5216744 1.5139211 6
3.3320763 3.4661047 1.5987641 67
3.3206367 3.6314538 1.6351558 61
3.6233387 4.0756207 1.5451047 61
-3.5316122 4.2745571 1.6164486 91.5
-3.056246 4.3107853 1.6352023 79
3.6014948 4.2709985 1.588364 66
-1.3790658 4.4780045 1.6265687 73
-3.7624218 4.5612235 1.5585245 59
-3.5002677 4.5964465 1.5775546 68.333336
-3.2746792 4.5735698 1.6075662 22
-2.7985866 4.60742 1.6293207 21
-1.1259805 4.541863 1.6232911 48
-0.8273946 4.5387731 1.6329337 74
3.5831826 4.5140147 1.6097313 54
-2.8798618 4.6701765 1.5127735 79
-2.620671 4.6729097 1.6168644 54
-2.5184283 4.6831064 1.5910745 53.5
-2.1341577 4.7387552 1.5481793 74
-1.7627056 4.7655754 1.5746458 80
-1.4087167 4.7819414 1.6278961 60.5
-1.2496908 4.8107128 1.584366 90
-1.1755605 4.8202991 1.5811456 83
-0.8741194 4.8432732 1.5842204 78.5
-0.59259027 4.9097562 1.5685577 96
0.10794844 4.9540458 1.5080593 10
3.5240965 5.134562 1.6338199 49
3.1987789 5.3571677 1.5720781 14
3.3061733 5.2909794 1.5052521 28
-4.2081614 -2.8434551 1.748 57
-3.9616976 -2.7140341 1.7548742 60.5
-4.2179227 -2.4235208 1.7475878 63
-3.9050469 -2.5088451 1.7598394 60
-3.7015033 -2.4258647 1.7651232 58
-3.9754262 -2.3141828 1.7532697 65
-3.6909626 -2.3748748 1.7563733 61
-3.383013 -2.2850568 1.7751079 61.666668
-3.9110858 -2.1308899 1.7572702 62
-3.6401181 -2.2251413 1.7665442 58
-3.4987798 -2.1723425 1.7705063 60
-3.4008107 -2.1289253 1.7681798 63.5
-3.2058499 -2.1837411 1.7754165 67
-3.9700501 -1.9574488 1.7592715 3
-3.7090645 -2.0420258 1.7581823 60.5
-3.2021592 -2.0241532 1.7704321 62
-3.0834782 -2.0289366 1.7814368 60
-4.0027976 -1.9242935 1.738782 3
-3.6410768 -1.883201 1.7584151 50
-3.3860953 -1.940233 1.7721372 4
-3.2255819 -1.9260663 1.7742587 5
-3.0210979 -1.8213606 1.7783631 4
-2.9733005 -1.8204089 1.7833947 44
-2.8146522 -1.8981313 1.7853216 31
-3.727035 -1.7291175 1.762725 4
-2.7159097 -1.7300755 1.7834183 63
-2.6861188 -1.6778406 1.7818848 59
-2.5959036 -1.5723664 1.7917506 37
-2.4841352 -1.4364822 1.7950499 4.5
-2.3580141 -1.3087097 1.7998713 5
-2.1378143 -1.2940946 1.7975316 58
-2.0899811 -1.3167657 1.7928406 35
-2.1662114 -1.0919574 1.7957028 60.333332
-1.6771597 -1.0688753 1.7970225 61
-1.5571342 -1.0593498 1.7187893 27.5
-1.4886435 -1.0551467 1.6874362 32
-2.1828072 -0.90761375 1.7978098 8
-2.0650465 -1.0355217 1.7950016 65
-1.4281284 -1.0444592 1.6579958 31
-1.2695178 -1.0361384 1.6748451 25
-1.151768 -1.0165964 1.708038 24
-0.96903455 -1.0000733 1.6696144 30
-0.83270562 -0.985057 1.7493645 31.25
-0.65240908 -0.96917957 1.7608676 32.333332
-0.51099098 -0.95428258 1.6960692 18.5
-0.39157838 -0.9361285 1.6829234 3
-2.2479026 -0.84800643 1.7946151 4
-2.2580776 -0.49581635 1.783096 67
-2.1887631 -0.49220029 1.7864999 71.5
-2.0686076 -0.46776402 1.796857 67
-4.2812624 -0.32548711 1.7241603 63
-4.0358872 -0.32872108 1.7301368 51
-3.0096588 -0.33361113 1.7702924 9
-2.2929001 -0.43808338 1.7826296 71
-2.1783857 -0.36540812 1.7862275 72
-2.0527787 -0.43886703 1.7909734 72
-4.1183429 -0.29706767 1.7485315 1
-3.9541397 -0.22577195 1.7202815 11
-3.8314795 -0.20309688 1.7475759 81
-2.668051 -0.150566 1.7668024 68
-2.2972565 -0.26690382 1.7821223 71
-2.1552982 -0.25808787 1.7859936 71.333336
-2.0565143 -0.2796492 1.7905986 72.5
-1.8294318 -0.20577976 1.7985717 57
-0.85105473 -0.29723582 1.7952586 7
-0.69137049 -0.27117306 1.7787348 92
-0.59122133 -0.26289815 1.7598598 82
-4.3187642 -0.0060648005 1.7289864 43
-4.0374541 -0.02390201 1.7150656 45
-2.9269247 -0.0028455411 1.7822222 11
-2.6199484 -0.095437802 1.7758521 44.5
-2.1597705 -0.069919765 1.7993618 29.5
-4.1068587 0.015095619 1.7289089 33
-4.0055122 0.067539878 1.7346383 82
-3.8043544 0.086358726 1.7449547 89
-3.6133156 0.12769227 1.7501713 83.5
-3.5830278 0.10858011 1.7535638 5
-3.0099192 0.11648018 1.7628373 78
-2.9092999 0.023625176 1.7646023 71
-2.8053043 0.061923079 1.7805247 22.5
-2.6146224 0.07404796 1.7505046 11
-1.8222851 0.080859922 1.7978746 77
-3.4980016 0.18016778 1.7401298 37
-3.3829238 0.18917429 1.7523731 91.75
-3.2141409 0.24501033 1.7572846 82.5
-3.1130071 0.23236048 1.7744955 83
-2.9157541 0.24822316 1.7592002 75.5
-2.7642975 0.26940927 1.7635398 74.5
-2.622623 0.26705366 1.7674621 80
-2.3081317 0.29975182 1.7594312 16
-2.21666 0.27699679 1.786043 32
-1.8280219 0.2518023 1.7973045 36
-3.799818 0.40836784 1.7587987 30
-3.6369977 0.40574461 1.7489476 78.5
-3.5218666 0.41933313 1.7495155 95.333336
-3.4015703 0.42263272 1.7511667 85.5
-3.0078745 0.34143636 1.7575551 82
-2.7848322 0.30201128 1.7630595 70
-2.6647437 0.35979486 1.7677323 73
-2.5413935 0.41455305 1.7681395 34
-2.1230564 0.41564175 1.7843732 81
-1.4152573 0.40609396 1.7978607 43
-3.5411212 0.45733958 1.7293948 82
-2.759578 0.50796193 1.7605089 59
-2.6543317 0.52370763 1.7660397 53.5
-2.2885396 0.49439594 1.7763852 80
-2.162291 0.52410221 1.783282 28.5
-2.0519214 0.55892259 1.7886444 19
-1.8358281 0.48828679 1.7919527 54
-1.7513008 0.55439758 1.7984992 82
-2.9356775 0.74913549 1.7547551 72
-2.7923915 0.7203536 1.7585691 72.5
-2.6647918 0.68509972 1.763636 86
-2.2855639 0.69701993 1.7726204 58.5
-2.163625 0.66283548 1.7802665 34
-2.0372844 0.73327053 1.7868479 78
-1.822957 0.66870022 1.7925166 91
-1.741097 0.72454154 1.7958623 56
-3.1813359 0.78567976 1.7461246 74
-3.0185802 0.80756122 1.7619156 34
-2.7982769 0.76807362 1.7684904 12
-2.3137681 0.79256642 1.7626418 0
-2.1670418 0.85723686 1.7783692 63.5
-1.8020654 0.81440854 1.7884916 55
-1.7099911 0.87737566 1.794295 86.666664
-1.6436689 0.76856816 1.7980236 85.5
-3.6693437 0.97059375 1.747363 75
-3.5484002 1.00122 1.748533 57.5
-3.3765547 0.98617226 1.7370065 69
-3.1831956 1.043713 1.74289 19
-2.9141059 1.0199383 1.7580571 47.5
-2.7844558 0.97670525 1.7659187 58.5
-2.6838722 0.90666324 1.7615899 74
-2.5151374 1.0343957 1.7656871 34
-2.3078642 1.0159656 1.7695733 74
-2.1994042 1.047514 1.7742978 75
-2.0201895 0.9127779 1.7884737 79
-1.7441744 1.003558 1.7915812 83
-1.6268883 0.93305826 1.7974521 88
-2.7660432 1.1812249 1.7506288 64
-2.6932068 1.1353724 1.7545532 67
-2.137923 1.1813707 1.7737132 29
-2.0469756 1.0836749 1.7846071 78
-1.7138153 1.0989043 1.7890824 81.333336
-1.6174012 1.130489 1.7924633 80.333336
-3.9810879 1.3131324 1.7434207 48
-3.8631589 1.2701277 1.7259171 67
-3.627912 1.2186137 1.7296792 49
-3.3923907 1.3392714 1.7400838 0
-3.2353857 1.2452791 1.7673181 5
-2.9551749 1.2993299 1.7526292 58.5
-2.7914529 1.2401034 1.7598342 61.75
-2.6337733 1.2527478 1.7594451 63
-2.4990494 1.2528299 1.7642053 88
-2.2870665 1.2435142 1.7683245 82
-2.1939313 1.2760891 1.7719927 56.333332
-2.0179143 1.2768177 1.7801026 82
-1.7142096 1.2797608 1.7885519 78
-1.5959616 1.2710723 1.7924547 81.333336
-1.4534826 1.2847095 1.7973047 33
-1.2428945 1.3247072 1.798824 78
-3.6080587 1.3563548 1.7287475 31
-2.7564495 1.4803588 1.7722389 80
-2.613312 1.4941765 1.7535819 79
-2.474287 1.4773235 1.7574598 73
-2.2661238 1.4284132 1.7650468 67.5
-2.1455424 1.4497333 1.7687176 81
-2.0387342 1.4814004 1.777783 78
-1.9302179 1.4778816 1.7802321 79
-1.696007 1.4360281 1.7870778 74
-1.5876569 1.4405583 1.7912371 74.599998
-1.408192 1.4477891 1.7949713 33
-1.133538 1.4918289 1.79672 69.5
-0.34595194 1.3535907 1.7994729 48
-4.1804142 1.6163617 1.694717 37
-3.9084039 1.5776675 1.7218806 8
-3.6124263 1.5869071 1.7642676 6
-3.5381739 1.6081702 1.7537888 39
-3.394093 1.6046078 1.7438028 33
-3.2237647 1.5632331 1.7481154 65
-3.0027568 1.6335411 1.7652417 80
-2.9350398 1.5535831 1.7467648 76
-2.7939847 1.5223657 1.7580576 79.5
-2.190881 1.5974344 1.7699428 75.333336
-1.6762586 1.5375016 1.7860905 89
-1.5890535 1.6163236 1.7850188 76
-1.4060047 1.6264778 1.7962813 30
-1.1857666 1.5008643 1.7939547 77
-4.4794745 1.7347354 1.7056392 23
-4.1665096 1.6824697 1.722448 7
-3.7131031 1.6518445 1.7554861 11
-3.4383104 1.7970624 1.7357906 59
-2.7797985 1.7542785 1.7509212 43.75
-2.5960219 1.7537128 1.7545735 76
-2.4547193 1.7199371 1.7600085 76
-2.1614909 1.7352325 1.7664237 70
-1.9994011 1.7003478 1.775983 85
-1.8896762 1.6808447 1.7782716 77
-1.5724138 1.7113991 1.7837719 76.25
-1.2969371 1.792419 1.7897979 68
-1.1147265 1.6729059 1.7964748 74.5
-0.99838746 1.6999295 1.7988551 69.5
-3.9334736 1.9301724 1.7151457 0
-3.6670601 1.8965803 1.7372593 54
-3.5622036 1.9477152 1.7519418 67
-3.4340146 1.8983228 1.7584683 78
-3.2446251 1.8703954 1.7472706 84
-2.9433327 1.864248 1.7509285 65.800003
-2.7788956 1.8677642 1.7535123 77
-2.2085965 1.866604 1.7624398 72
-2.0274224 1.900641 1.7729012 72
-1.846342 1.8999864 1.7810498 74
-1.5603669 1.8615645 1.7816743 69
-1.4531226 1.8514825 1.788466 28.666666
-1.0360653 1.8529595 1.7974911 63.5
-4.2684078 2.0824213 1.7254765 12
-4.0567784 2.0316489 1.7367467 41
-3.927376 1.9825137 1.7222553 24
-3.833477 1.9660853 1.7381943 66
-3.6737535 2.0172591 1.7297635 66.5
-3.3949535 1.963239 1.725536 80
-2.7726443 2.0480173 1.7466575 71.5
-2.563591 2.0203695 1.7459203 72
-2.4222367 1.969627 1.7531165 81
-2.1437151 1.9987689 1.7642103 67.333336
-2.0595546 1.9609033 1.7659341 66
-1.5321637 2.0242648 1.7823713 53.5
-1.458086 2.0463848 1.7850633 29
-1.2760923 1.9990306 1.7903168 66
-0.9316383 2.0453737 1.7992812 56
-3.6944315 2.2114346 1.7168096 76
-3.4601555 2.1877236 1.7426836 73.5
-3.3373549 2.1812196 1.7586867 68
-3.1872609 2.2219834 1.7297169 82
-2.9213998 2.1584978 1.746798 76.5
-2.7841282 2.1747351 1.7523888 73
-2.3875868 2.2404599 1.7499982 81
-2.1656888 2.1340215 1.7633389 66
-2.0548108 2.1961329 1.7673162 65.666664
-1.8997302 2.1747813 1.7745322 70
-1.7910353 2.1252799 1.7785584 67
-1.4473491 2.1798851 1.786157 29.666666
-1.2393123 2.2279608 1.7884074 63
-1.1571951 2.1810176 1.7971512 67
-0.82182151 2.2420731 1.79927 58
0.5815267 2.2494509 1.783079 7
-3.9700198 2.3410742 1.7136549 72
-3.8830454 2.3514266 1.7367071 71
-3.7195663 2.3151853 1.7412201 70.333336
-3.5884964 2.3162384 1.7504936 68
-3.3979697 2.313235 1.7197627 70
-2.9889715 2.2789145 1.7648259 69
-2.7937565 2.3625798 1.7493491 70.666664
-2.6888688 2.394671 1.7404948 75
-2.5336757 2.3131568 1.7449385 77
-2.123157 2.2704675 1.7585727 73
-2.0885715 2.3182499 1.7613775 69
-1.7273239 2.3647368 1.7749058 70
-1.3977871 2.3439531 1.7869606 39
-1.3225021 2.2789764 1.7836982 58
-1.069995 2.3881245 1.796723 59
0.44840479 2.3118691 1.7987822 17
-4.1329527 2.4273198 1.6972498 75
-3.6395795 2.411772 1.7075685 68
-3.4912009 2.496263 1.7348157 57
-2.9025514 2.4734125 1.7338576 67.333336
-2.84883 2.4695766 1.7653226 67
-2.3470247 2.5314412 1.7471911 78
-2.1060901 2.4117224 1.7572712 70
-2.0329642 2.4613028 1.7577915 72
-1.887676 2.4680402 1.7678961 71.5
-1.4037501 2.4316297 1.7874671 33
-1.282639 2.4973216 1.7842766 54
-1.1473254 2.4522388 1.7902623 51
3.7714179 2.5202186 1.6640431 79
-3.7748923 2.678998 1.7267958 65
-3.7360325 2.642127 1.7289861 67.5
-3.4922252 2.6350915 1.7485095 60
-3.3885937 2.6233139 1.7351444 63.5
-3.1810091 2.5720685 1.723477 69
-2.93928 2.5979347 1.7652383 63.5
-2.7409945 2.6040969 1.7357588 62.5
-2.4979815 2.6320889 1.7441329 81
-2.0437124 2.5905023 1.7563554 75
-1.652285 2.6184013 1.7685956 72
-1.3034309 2.6156197 1.7807529 56.5
-1.0064659 2.6522093 1.7958193 58.5
-3.9866273 2.7679546 1.7151209 66.666664
-3.7700703 2.8187714 1.7470189 68
-3.6415625 2.7805986 1.7290601 66
-2.9689913 2.8219264 1.7288052 69
-2.820785 2.8039594 1.7439352 59.599998
-2.659281 2.7445698 1.7435259 61
-2.0007088 2.7548487 1.7550095 68
-1.8613772 2.800657 1.7617623 71
-1.754256 2.7040253 1.7626132 74
-1.2295772 2.788388 1.7790862 62
-1.1105406 2.7701108 1.7838467 64
-0.85552925 2.8422103 1.7945179 70
0.39998302 2.7777216 1.7514772 12.333333
3.7413967 2.7476366 1.7794005 78
-4.1589251 2.8879762 1.73044 70
-3.5067439 2.8888919 1.7231263 64
-3.4324353 2.9811838 1.7606543 63
-3.1722553 2.9563057 1.7162627 67
-2.8881171 2.9338472 1.7605492 60
-2.4582033 2.9862027 1.7465798 78
-2.3040347 2.8555913 1.748736 72
-1.973814 2.9205236 1.7594193 67.5
-1.5695671 2.9014151 1.7694043 30
-1.1878343 2.9095485 1.7801561 63
-0.91658044 2.9366705 1.786296 68
3.5935187 2.8858757 1.6657974 32
-3.7969408 3.0974655 1.7216867 63.666668
-3.5342131 3.0730469 1.7514638 61
-3.4041221 3.1182368 1.7111264 61
-2.9513192 3.0377371 1.7615613 62
-2.6074259 3.1106706 1.7333435 68
-1.9624565 3.0502336 1.7583088 68
-1.9349816 3.0689416 1.756056 66
-1.7190922 3.0700002 1.7627188 64.5
-1.1146433 3.0853004 1.781587 63.5
-0.97990149 3.0463581 1.7881459 63
-0.72515422 3.0983806 1.7962104 66
3.3683844 3.0594428 1.7546266 68.5
-4.082829 3.2753768 1.7030798 64
-4.0197754 3.226614 1.7102331 59
-3.7868381 3.2854137 1.740857 59
-3.6563928 3.233067 1.7217479 59.5
-2.958797 3.2222986 1.7260135 61
-2.8099282 3.2188854 1.7462178 62
-2.2472713 3.2049246 1.7443606 74
-1.8909305 3.2432041 1.7553372 59
-1.471278 3.2087653 1.769112 42
-1.0580233 3.2181921 1.7840496 62
-0.77642697 3.2181888 1.7927657 69
0.36997622 3.2388844 1.6719095 11
3.357681 3.1909978 1.6947736 67.333336
-4.390646 3.4044406 1.6801835 61
-4.2268462 3.3997138 1.7280172 57
-3.53158 3.3344016 1.7142926 60
-3.1707768 3.3965423 1.7151383 63
-2.8788898 3.3732903 1.7654988 56
-2.3948033 3.3575559 1.7361137 65
-1.8622788 3.4041049 1.7513708 57
-1.5700809 3.3587158 1.7729255 27
-1.0089401 3.3680565 1.7879182 60
-0.82801241 3.3460746 1.7927369 61
-4.4373407 3.5052519 1.7094336 52.5
-3.79653 3.5246041 1.7024487 60
-3.5290051 3.5127525 1.7522575 54.5
-3.3982067 3.5843756 1.7004412 66
-2.9285955 3.4863675 1.7636048 62
-2.551939 3.527024 1.729678 62
-1.8415495 3.5142937 1.7517533 52
-1.6672118 3.5065467 1.769905 23
-1.3594255 3.5575645 1.774213 59
-0.95056361 3.4617653 1.789595 54
-0.89219654 3.5219831 1.7885075 60
-0.61213297 3.524261 1.7987221 61
3.3160393 3.5275686 1.7570685 65
-4.7465973 3.6634212 1.6847342 39
-4.0921717 3.7371316 1.6889828 55
-3.6961832 3.7051995 1.7562462 56
-2.9473677 3.6777411 1.7240475 61
-2.7988851 3.6963482 1.7502457 62
-2.1846941 3.6065547 1.7462534 58
-1.7776175 3.6718478 1.7571875 55
-1.4429709 3.7155588 1.7647773 57
-0.92860085 3.6203346 1.7845587 54
-0.85207236 3.721524 1.7855011 55
-0.64792436 3.6633577 1.7920707 54
-4.159205 3.8298612 1.6962436 43
-3.6866789 3.8240533 1.6924506 59
-3.5976279 3.884712 1.7261351 36
-3.1579082 3.8838856 1.7064453 60
-2.8554158 3.8592556 1.7643791 62
-2.3265498 3.7861955 1.7323297 58
-1.7534293 3.8165913 1.7570759 60
-1.5267398 3.8835478 1.7551149 40
-0.78174609 3.8176796 1.7915615 55
-0.69583213 3.8253174 1.79085 60
-0.41917396 3.8488448 1.7980818 56
0.31194884 3.783252 1.7884225 2
-3.5397246 4.013164 1.7526549 60
-2.8874991 3.9822059 1.7593881 58
-2.4858313 3.9996586 1.726802 55
-1.7483528 3.9678123 1.7545199 37.5
-1.2251556 3.9468594 1.7780973 62
-0.75588435 4.0354543 1.7876281 56
-0.71285087 3.915628 1.7913965 61
-0.43857592 4.016427 1.7955431 58
3.6274257 4.0475035 1.6689194 54
-3.6210399 4.1374197 1.7424859 55
-3.4047842 4.1364865 1.6992184 59
-2.9177337 4.1793485 1.7103077 58
-2.8141651 4.1517453 1.754387 57
-2.1051795 4.053453 1.7434269 49
-1.6643474 4.1494727 1.7608994 21
-1.637081 4.0983005 1.7601546 21
-1.2993735 4.1421332 1.7709411 58
-0.66558063 4.1351099 1.7920269 55
3.626662 4.0702066 1.7323657 50
-2.7685356 4.3172517 1.7108307 82
-2.6690183 4.2354689 1.7152716 51
-2.2451372 4.2812023 1.7313021 50
-1.6176709 4.2789435 1.7633761 22
-0.52419639 4.212728 1.7957587 59
3.6088133 4.2601233 1.783753 58
-3.4856532 4.4994349 1.6699005 23
-2.3329608 4.3865643 1.653639 69
-1.9519911 4.4204307 1.6727675 84
-1.6663308 4.4183531 1.7512721 69
-1.5651836 4.4582024 1.7145354 89
-1.4254647 4.4259353 1.7117137 75.333336
-1.0620342 4.3787313 1.777891 61
-0.19095244 4.4063859 1.7987379 57
3.5899134 4.4206109 1.737168 60
-2.7298095 4.6355686 1.6837391 28
-1.1016862 4.5005674 1.7191466 95
-0.54388493 4.5065808 1.7877783 62
-0.38993946 4.5678434 1.7701803 90.5
-0.22289225 4.5799427 1.7522893 83.5
0.076252833 4.6024127 1.7472005 79
0.31355613 4.6414142 1.7269996 14
-2.0826216 4.6823235 1.6571523 27
-0.2260204 4.8974972 1.7131764 37
-0.067052931 4.9003406 1.6951126 33
0.070457995 4.9035735 1.6969677 32.5
0.36791193 4.9080691 1.7387711 0
0.40038168 4.9831543 1.6666354 10
3.5316453 5.0219831 1.7545761 42
-2.0119834 -1.2188749 1.8031026 60.5
-2.0616186 -1.1658325 1.8027092 71
-1.9003258 -1.1306906 1.8071382 68
-1.5349153 -1.0583982 1.8192145 37
-2.0597463 -0.99118936 1.8033662 64
-1.6843076 -0.92348379 1.8147978 51.666668
-1.5762981 -0.96046329 1.8219492 73
-1.4266292 -0.99327093 1.8247509 76.5
-1.2415346 -0.94008666 1.8325995 80
-1.1221628 -0.966093 1.8375198 88.333336
-0.97332007 -0.92784476 1.8389353 96
-0.80943596 -0.92974186 1.8469778 101.5
-0.67158866 -0.92406762 1.84067 60
-0.50609863 -0.93545055 1.8387436 21
-0.3870697 -0.93903315 1.8104326 2
-1.5756115 -0.8389045 1.8188426 69
-1.4366542 -0.83355385 1.8244506 80
-1.2871331 -0.79408789 1.8330445 88.333336
-1.141638 -0.82855201 1.8329259 93
-0.95586509 -0.78271508 1.8357418 77.5
-0.8314482 -0.84474081 1.8402523 64
-0.70711315 -0.80436534 1.8477128 32
-0.58526373 -0.86311477 1.8506584 19.666666
-1.6064495 -0.68170613 1.8144618 51.25
-1.418946 -0.67713022 1.825779 76.5
-1.2584605 -0.67249405 1.8286037 83
-1.1449327 -0.6880309 1.833524 76.5
-0.99775165 -0.66122031 1.8341759 42.5
-0.82722235 -0.69197607 1.8415056 25.5
-0.71232545 -0.68427932 1.8473392 7.5
-0.38174278 -0.61625904 1.8499542 13
-1.6670942 -0.5234915 1.8106408 69
-1.5730234 -0.53897184 1.8194355 72.333336
-1.3687315 -0.48690444 1.8154756 65
-1.2672642 -0.52978802 1.8207889 56.5
-1.146412 -0.51865041 1.8255736 45.400002
-0.97872186 -0.50820887 1.8320777 15.5
-0.8148104 -0.58714187 1.845663 5
-0.63343811 -0.48366845 1.8423945 3.5
-0.53346956 -0.50480634 1.8464146 24.4
-0.42439681 -0.49287203 1.8450819 58
-1.8158301 -0.37742779 1.8048602 74
-1.7167058 -0.38629672 1.8079411 66.666664
-1.5962356 -0.39229086 1.8144633 70.333336
-1.3969698 -0.34193185 1.8184719 37
-1.2614427 -0.32229435 1.8179724 34.5
-1.095907 -0.36658818 1.8236406 7
-0.77244776 -0.3576481 1.8310224 9.333333
-0.66868001 -0.36881605 1.838699 37.200001
-0.53356373 -0.3829053 1.8449548 66
-1.7568393 -0.25991616 1.805859 72
-1.6113107 -0.27020258 1.8142309 86
-1.4008595 -0.17455833 1.812085 32
-1.2864305 -0.19223949 1.8221809 9.5
-0.96906924 -0.17889018 1.8253841 35.666668
-0.83614177 -0.22929759 1.8281592 40.090908
-0.66895235 -0.19891743 1.8393507 76.599998
-0.52696258 -0.24697948 1.8438377 72
-2.3421841 -0.066660538 1.811446 74.5
-2.2488909 -0.11489762 1.8101341 42
-2.0927968 -0.11184236 1.8163817 28.5
-1.8332262 -0.060885537 1.8087256 40
-1.7253205 -0.10454464 1.8085194 56.333332
-1.5974721 -0.13473104 1.8145257 76
-1.2560604 -0.03106916 1.8169 35
-1.1196694 -0.063660927 1.8202053 32.333332
-0.96484357 -0.06713669 1.8261312 62.125
-0.84164304 -0.084595762 1.8298512 72.714287
-0.6773349 -0.069251694 1.836656 78.444443
-0.53970468 -0.099111706 1.8434854 77
-2.2943428 0.085239567 1.8147262 56
-2.1385155 0.084139556 1.807898 19.75
-1.7209842 0.049403809 1.8095198 64.5
-1.6185336 0.0068060602 1.8151218 45
-1.4039158 0.048848491 1.8076876 11
-1.2321832 0.085479081 1.8177556 44.25
-1.1248798 0.10586984 1.8193119 73
-0.97101635 0.077555463 1.824445 80.85714
-0.85369194 0.062866084 1.8285282 77.285713
-0.67597187 0.069127351 1.8369604 81.222221
-0.52615404 0.069885939 1.8385352 80
-2.3085356 0.20987594 1.8042881 32.5
-2.1274545 0.24306186 1.8086728 31
-1.7157832 0.23801768 1.803933 24.333334
-1.6287084 0.19243936 1.81309 23.5
-1.3956003 0.21747552 1.8076748 41.5
-1.2522768 0.22171378 1.8151546 50.5
-1.1233165 0.23393467 1.8170873 83
-0.97825199 0.22367565 1.821499 82.875
-0.84119475 0.21930841 1.8285596 76.875
-0.68291539 0.21835859 1.8366623 79.900002
-0.52702165 0.23342519 1.8382477 88
-1.8307514 0.42596689 1.8017908 0
-1.7637693 0.3880643 1.8006848 41
-1.6087154 0.37765795 1.8042709 78
-1.3831092 0.37213898 1.8104471 89
-1.2734728 0.35466701 1.8235207 44.400002
-1.140397 0.38937676 1.8154324 78.333336
-0.97259122 0.3701764 1.821822 78.571426
-0.85104513 0.38548031 1.8249969 77
-0.67208552 0.36114284 1.8342491 79.375
-0.5435788 0.40959707 1.8387376 76.333336
-1.6828891 0.45608902 1.8070577 88
-1.5955721 0.52305937 1.8048023 90
-1.4158492 0.54138947 1.8076084 94
-1.2879292 0.52572447 1.8103923 81.666664
-1.1257817 0.51680565 1.8161844 76
-0.95228076 0.52111965 1.822349 75.666664
-0.82969767 0.53315127 1.8257443 74.625
-0.66914022 0.52522171 1.8324676 78.333336
-0.54108042 0.52181745 1.8334767 76.5
-1.6828378 0.64106476 1.8017263 56
-1.6127104 0.63830036 1.8031743 56
-1.397836 0.69445223 1.8078587 85
-1.2739793 0.68039769 1.8124678 89.800003
-1.1050227 0.64604694 1.815475 79.666664
-0.96771789 0.66245079 1.8187231 77
-0.81911165 0.66759974 1.8269598 72.444443
-0.69785327 0.69802278 1.8288746 73.400002
-0.54378563 0.65749514 1.8350413 78
-1.5531399 0.81813371 1.8016247 88
-1.3710449 0.8496834 1.8061988 93.5
-1.2525015 0.82239711 1.8106076 87
-1.0888462 0.78573871 1.8118891 81
-0.97937715 0.80003321 1.8175697 83.400002
-0.82121521 0.82833624 1.8215903 73.571426
-0.66831112 0.82069683 1.827926 74
-0.52578557 0.81842995 1.8346974 74.199997
-0.42011935 0.84922242 1.8378214 77.5
-1.526602 0.97086447 1.8030225 86
-1.2835662 1.0005728 1.8040078 88.199997
-1.155652 0.9588486 1.815267 84.75
-0.9656893 0.96562564 1.8196707 85.599998
-0.81445915 0.98880845 1.8239262 79
-0.68686813 0.98132771 1.8290664 83.428574
-0.54533195 0.96639085 1.8324316 74.5
-0.40928546 0.98936212 1.8446184 82.5
-1.4927775 1.1256834 1.801025 79
-1.2799498 1.1445158 1.8023936 48.333332
-1.1427796 1.1397713 1.8110647 77
-0.92810941 1.1694715 1.8196821 84
-0.8423717 1.1303129 1.8214946 82.666664
-0.68149412 1.1296749 1.8307357 82.125
-0.53030914 1.1455566 1.8347076 80.571426
-0.38477793 1.1170079 1.8424629 76
-0.28140724 1.1998268 1.8460735 70
-1.2278907 1.2973222 1.8019718 82
-1.1199145 1.310532 1.8073219 74
-0.99114454 1.2694967 1.8171687 70
-0.82224607 1.2813905 1.8191831 74.599998
-0.66759366 1.2884728 1.8265976 72.333336
-0.53492838 1.2799507 1.8308471 72.166664
-0.38834232 1.2867801 1.8372916 64.25
-0.22642399 1.3042741 1.8457037 62
-1.1159739 1.4399837 1.8054724 73
-0.95632172 1.477788 1.809916 68
-0.79547453 1.4165678 1.8164161 72.666664
-0.67934561 1.441164 1.822098 69.599998
-0.53655976 1.4025921 1.82877 69.666664
-0.38253841 1.4324241 1.8345796 69
-0.21042986 1.4337517 1.8420715 66
-1.1060638 1.5852501 1.8017389 64
-0.9865458 1.6041595 1.8056252 68.5
-0.8482374 1.6143134 1.8106569 66
-0.67389143 1.5897115 1.8181212 70.400002
-0.51979661 1.5384361 1.8260989 69.5
-0.37981603 1.5375519 1.8332152 58.25
-0.25071362 1.5877323 1.8343748 71.428574
-0.081042185 1.5932083 1.8427866 70.75
-1.0395885 1.7151637 1.8038434 64.5
-0.81985092 1.7769697 1.8056403 66.5
-0.63751566 1.7414627 1.8147875 66
-0.53147137 1.7240858 1.8221676 68
-0.36388081 1.6863191 1.8450336 45.25
-0.2307705 1.7324359 1.8296852 71.599998
-0.082279019 1.7386694 1.8383732 68.25
0.07574673 1.7509114 1.8388535 76
-0.9464128 1.8900907 1.8043424 63.25
-0.70199609 1.9179902 1.8122443 58
-0.50981116 1.8914239 1.8208405 64.75
-0.41599992 1.8622546 1.8227655 55.666668
-0.21855932 1.8570633 1.8286238 69.666664
-0.072288394 1.892488 1.8358059 67.166664
0.073845826 1.8753216 1.8430835 64.75
0.17826845 1.8767005 1.8438064 68
-0.95976633 2.0344172 1.800198 66
-0.83914804 2.0002451 1.803347 59.666668
-0.61380482 2.0781815 1.8128461 62
-0.46026969 2.0171916 1.8174182 69
-0.36226955 2.051585 1.822311 58.400002
-0.23332101 2.0208189 1.8294013 60
-0.10372505 2.0080543 1.8310871 67.5
0.04625364 2.0215971 1.8381451 67.166664
0.22288932 2.0120053 1.845675 64.833336
0.32132566 2.0775537 1.8490914 68
-0.84125757 2.1824851 1.8032399 59.5
-0.71382022 2.1617169 1.8058912 53.5
-0.51464379 2.2456059 1.8122977 57
-0.34501883 2.1755211 1.8250278 65
-0.25396469 2.2023396 1.824198 59.5
-0.04301754 2.1954799 1.8295743 65
0.093394682 2.1198723 1.8372836 66
0.18720159 2.1585445 1.8405809 63.799999
0.37431955 2.1829352 1.8428119 40
0.51630604 2.2261429 1.8149709 8
-0.77269161 2.3298037 1.807608 58
-0.68164551 2.3703699 1.8082561 52.5
-0.57336575 2.3141952 1.8093177 58
-0.19207089 2.3163798 1.8284802 62.666668
-0.10170616 2.3566041 1.8268026 57.5
0.086628348 2.3498547 1.8366413 63
0.23215625 2.2541337 1.8415643 67.5
0.36458221 2.3366082 1.8386301 43.833332
0.51468533 2.3511429 1.8303218 8.333333
0.65830177 2.3692954 1.8531975 8
-0.69943917 2.4689531 1.8077997 55.25
-0.45103866 2.5052636 1.8124057 51
-0.40211499 2.4213691 1.812606 54
-0.068263739 2.4759219 1.8325311 59.25
0.065906033 2.4753444 1.8331636 55
0.23093261 2.4584169 1.8383285 57
0.53749216 2.4697263 1.8329399 7.5999999
0.70277297 2.4624627 1.8596138 8
-0.62060291 2.6110649 1.8090056 53
-0.54075766 2.641089 1.806862 51
-0.2764937 2.6115532 1.8172263 54
0.06154874 2.6181173 1.8335129 58.75
0.2317255 2.5924685 1.8365842 57.5
0.38653669 2.6418595 1.8230644 4.5
0.68212402 2.6144326 1.8528725 8.25
-0.49548337 2.8128517 1.8078862 56.333332
-0.32984918 2.7482569 1.8124192 52.5
-0.13418722 2.8029048 1.8127254 61
0.14501052 2.7159193 1.8325633 61
0.22780132 2.769242 1.8338479 61
0.54948533 2.7598739 1.8246948 8
-0.3960577 2.9290283 1.806376 58.666668
-0.1566596 2.9074123 1.8119138 61
0.26283675 2.8781862 1.8349265 59
0.35024083 2.89942 1.8144926 24.5
0.58681858 2.8701499 1.8373092 5
0.62149507 2.9661403 1.8415655 6
3.3710306 2.9884355 1.8845395 69
3.5754678 2.8852863 1.8382663 32
-0.32212833 3.0898936 1.8096352 60
-0.19163635 3.0666189 1.8096211 61
0.024204757 3.0757184 1.8173416 59
-0.22646064 3.2100868 1.8115394 56.5
0.018202882 3.2457774 1.8145941 55
0.21455134 3.2540736 1.8278569 58
3.349052 3.2646606 1.8756002 63
-0.57380998 3.3861854 1.8037776 63
-0.13592122 3.3652451 1.8161831 59
0.0061478438 3.3755913 1.8157943 55
0.22508051 3.3762786 1.8236822 54
3.3298845 3.427568 1.8711882 64
-0.064941213 3.4646697 1.8145965 52
0.0461137 3.5549841 1.8249162 53.5
0.24035801 3.5026951 1.8234729 52
3.3183281 3.555254 1.8783261 68
-0.39796379 3.6853321 1.8017052 56
0.077769682 3.7459388 1.8237427 52
0.24745788 3.6398365 1.8196474 55
3.3172195 3.6663129 1.8386148 51
0.20047607 3.7835765 1.8176448 43
-0.19048874 4.0314183 1.8077699 58
3.3791552 4.0451708 1.9284273 31
3.4657295 3.9283359 1.9284431 29
0.33817971 4.0898862 1.8141128 1
-0.49826625 4.3110118 1.8003157 64
-0.19244204 4.2153616 1.8032712 58
0.053093415 4.4204025 1.8158416 55
3.2347636 4.4556804 1.9132491 24
3.3871865 4.4328856 1.935861 24
3.562042 4.4104886 1.8982276 39.666668
3.0070465 4.5410872 1.9441012 2
3.5673738 4.6484647 1.8650349 61
3.0780692 4.7816844 1.9281653 34
3.4815366 4.7177696 1.9488932 28
3.070796 4.9010329 1.8350142 59
3.532198 4.9082732 1.8772732 67
3.1994975 5.2345805 1.8328031 26
1.5906007 2.9551663 1.992355 39.5
1.7521212 3.1075456 1.9838032 50
1.8452082 3.0461967 1.9982592 49.5
2.146847 3.1001215 2.0109923 47
1.719254 3.1940057 1.9880887 32.666668
1.8666978 3.2463379 1.9930726 51
2.0312812 3.2224884 1.9978366 48.333332
2.3939736 3.259558 2.0155897 41
2.4351854 3.1647925 2.0261014 45
2.7228036 3.2001324 2.0299952 41
3.0258045 3.2249587 2.0378606 36
1.9309188 3.3730316 1.9969295 48
2.0275562 3.3758163 1.9906813 48
2.2008078 3.3866649 1.999903 44
2.3179083 3.3651805 2.0071321 45
2.5847735 3.4196529 2.016711 41
2.7201524 3.3471158 2.0278122 37
3.0603948 3.412905 2.0359089 29
2.2364972 3.5556681 2.0057147 40
2.3440194 3.5442903 2.0007806 46
2.4572196 3.4968572 2.0075521 38.5
2.5591855 3.5151882 2.0165215 39
2.7180264 3.4967296 2.0111444 35
2.8905518 3.5453618 2.0279682 33
3.2985189 3.534193 2.0536294 4
2.2358038 3.6944137 1.9931885 45
2.5813267 3.6817317 2.0111973 40
2.7565899 3.6628203 2.0098701 36
3.1151292 3.6242363 2.0289242 31
3.2513578 3.6643739 2.0455122 18
2.2341034 3.8403053 1.9868196 46
2.6214285 3.8696184 2.0010912 37
2.7239544 3.7620969 2.0080068 38
2.9709511 3.8162813 2.0289495 30
3.1828771 3.8189306 2.02667 31.5
3.1606555 3.9433286 2.0236833 32
2.3162827 4.1407361 2.0035715 12
2.6787467 4.0924392 2.0083106 39
3.0585816 4.0503087 2.0149677 31
2.4465048 4.2176757 1.9934791 52
2.5855231 4.2492967 2.0045052 45
2.7307439 4.290843 2.0066428 38
3.1805608 4.3419242 2.0256796 3
2.752496 4.4331884 1.9946047 34
2.8881781 4.4295564 1.9997081 34
3.0353084 4.4314365 2.0140066 33
3.2024558 4.4567728 2.0268414 43
2.6772964 4.5155954 2.0194235 40
