# .PCD v0.7 - Point Cloud Data file format
VERSION 0.7
FIELDS x y z intensity
SIZE 4 4 4 4
TYPE F F F F
COUNT 1 1 1 1
WIDTH 1469
HEIGHT 1
VIEWPOINT 0 0 0 1 0 0 0
POINTS 1469
DATA ascii
3.6922088 -1.4685187 -0.17301573 74
3.660845 -1.0804341 -0.1766427 75
0.19781704 -0.82222903 -0.16553186 19
0.21477188 -0.71602368 -0.18823463 7
-0.48438296 -0.55401081 -0.18058373 8.5714283
-0.38656527 -0.54663301 -0.16887218 8.2222223
-0.25507671 -0.53190398 -0.17826924 8
-0.099079788 -0.50770271 -0.17983188 7.75
0.041739136 -0.4880996 -0.17733684 7.5
0.19589452 -0.4827309 -0.17165014 10.285714
0.23367245 -0.42776096 -0.17945364 0.5
3.5842152 -0.41359958 -0.17570294 44
3.5641203 -0.19340034 -0.19707595 118
2.1210327 -0.026141809 -0.1778352 4
2.373198 -0.046067808 -0.19406213 3
0.26752377 0.41776317 -0.17990059 6.25
0.50128585 0.44632649 -0.18052964 0.66666669
0.57386422 0.45414096 -0.16189466 1
0.68154186 0.4629035 -0.17823815 0
0.7715531 0.47117326 -0.1973445 0
0.96310312 0.48743558 -0.17774418 2
1.0704137 0.50220972 -0.19075546 6
1.3788854 0.53768075 -0.17330705 2
0.045472842 1.7349099 -0.16748679 2.5
0.026865523 1.9239466 -0.17524566 4
0.0084937634 2.037539 -0.18378583 4.5
-0.027103532 2.4136369 -0.16603465 3
1.0958509 3.0185802 -0.15079175 22
1.2250905 3.0889256 -0.15798932 8
1.3459823 3.1944537 -0.19193812 36
1.947608 4.1163902 -0.19824313 43
2.0249224 4.1148643 -0.15594609 0
-1.4286976 4.5804577 -0.17873801 101.66666
-0.99716914 4.6275711 -0.17157406 111.5
-0.88565814 4.6347117 -0.1535666 100
-0.4217428 4.6817031 -0.16672066 107
-0.19156352 4.7088733 -0.17847344 25
3.2074881 -2.1452041 -0.13224207 3
3.1960626 -2.0313857 -0.052964572 47
3.7351387 -1.9747672 -0.0056615816 92
3.5065107 -1.9442784 -0.13021268 46
3.7178247 -1.7182014 -0.094965972 7
3.6750779 -1.2817732 -0.07677301 41
3.0642483 -1.1450224 -0.045397345 15
3.6658995 -1.1074252 -0.054244999 33
3.6436281 -0.9809857 -0.11027873 82
3.0485752 -0.7581358 -0.044931803 31
3.1531439 -0.83612221 -0.018698996 150
3.6342893 -0.86915863 -0.10559995 84
3.0774775 -0.62476879 -0.071409471 8
3.6096504 -0.63849044 -0.14570068 37
-0.79535085 -0.57277858 -0.030422684 7.9000001
-0.67084724 -0.57025886 -0.059993133 9.8461542
-0.5199405 -0.55498612 -0.078786805 8.9259262
-0.36931992 -0.5371629 -0.06860403 8.2666664
-0.22508879 -0.52235371 -0.082029752 8.208333
-0.057225171 -0.5015015 -0.081874445 8.521739
0.073530369 -0.4864369 -0.067287184 7.7857141
0.20256567 -0.47433436 -0.082454346 3.909091
3.1913748 -0.59470499 -0.063548423 5
3.6012883 -0.49468845 -0.07483656 96
0.26736599 -0.41839042 -0.041979145 0
3.600127 -0.44650725 -0.058605228 40
-0.73893613 -0.18019772 -0.025610154 5
3.540267 -0.25186619 -0.09554971 85.5
-0.7659235 -0.074765868 -0.01410004 3.3333333
2.3482528 -0.054336816 -0.091838725 3.5
1.7558399 0.076665454 -0.081822746 30.5
1.8830092 0.084362872 -0.080867894 27.5
1.9775252 0.068299234 -0.080897756 5
2.4004855 0.091904715 -0.072205611 6
2.950434 0.1012734 -0.067625679 7
1.7172418 0.24392231 -0.085219808 35
1.9839001 0.21731389 -0.088357337 87
2.8759124 0.26960045 -0.080692865 25
3.5260789 0.17048186 -0.11969993 74.5
0.24331544 0.40665215 -0.088583477 2.7857144
0.47107527 0.44400048 -0.071993239 0.14285715
0.98628205 0.3724314 -0.14573175 0
1.7104065 0.37849072 -0.085430644 44.5
1.9058867 0.3668994 -0.08681003 24.333334
1.9930854 0.30943197 -0.096963622 10
2.6257088 0.4073562 -0.10063545 8
0.14294778 0.5460434 -0.10769639 0
0.15146382 0.51186281 -0.045025114 0
0.57015949 0.45636708 -0.069892377 0.33333334
0.67553711 0.46481284 -0.069602683 0.1
0.80436641 0.47632059 -0.078495808 2.2857144
0.95662051 0.49330875 -0.077227727 0.66666669
1.1561817 0.51212049 -0.077905364 2
1.2818507 0.52354407 -0.03162225 1.5
1.3762984 0.53141683 -0.096182682 2
1.7097828 0.50743729 -0.082474507 22
1.8483274 0.47972271 -0.087994196 3
1.9561963 0.59573776 -0.1432526 17
2.5144482 0.54822582 -0.10296489 5
2.1537466 0.61585063 -0.12152902 37
3.0226085 0.69710869 -0.08349175 18
0.066934302 1.4388016 -0.070702188 3.1666667
0.0093103023 2.0495787 -0.10248964 3.5
-0.0026610375 2.1995564 -0.049585167 2
-0.022579659 2.3994396 -0.042242859 2
1.4510943 2.3650775 -0.0038483785 4
-0.053924084 2.4979804 -0.05813913 1.3333334
0.66536659 2.4785151 -0.062274132 7.5
1.5831074 2.4339671 -0.0088602947 4
-1.4734702 2.5667527 -0.00096136809 4
-0.06279093 2.5547881 -0.039576057 0
0.54105014 2.6093223 -0.0067576813 8
1.0969374 2.9671822 -0.13795668 31.5
1.3579277 2.8683543 -0.14610973 29
1.3093266 3.2320802 -0.043043263 39.5
-0.6516242 4.1047702 -0.078832708 73.5
-0.43975633 4.060504 -0.037107561 11
2.724771 4.4643078 -0.09453968 27
-1.7147701 4.548099 -0.11075825 83
-1.4017959 4.5826263 -0.12119666 101
-1.0815599 4.6111684 -0.13670492 103
-0.81795734 4.6341176 -0.14844149 99
-0.3033576 4.6116972 -0.082511313 66
-0.42462176 4.6974335 -0.091645233 72.5
-1.7585264 4.8394551 -0.031041885 16
-1.4182901 4.8590703 -0.016636884 26
-1.1255369 4.8379817 -0.045505885 93
-0.19672221 5.0101647 -0.031952146 10
-0.098814264 5.0176005 -0.010283445 1
3.7665417 -2.250742 0.09682288 67
3.7305949 -1.8598739 0.056296762 100
3.7171848 -1.7657951 0.14094174 76
3.7052739 -1.5996768 0.080169104 83
3.6801085 -1.4201086 0.07438866 107
3.2183368 -1.0574 0.045534875 0
3.6434155 -1.0979942 0.14959478 48
3.2213578 -0.99458057 0.0087029887 9
3.2265251 -0.81027633 0.088069566 30
-0.038147368 -0.61577457 0.12229779 7
0.055102412 -0.64187974 0.11825451 4.5714288
0.22168002 -0.61431724 0.14012522 6.1999998
3.6210222 -0.68590176 0.094254844 74.5
0.060310245 -0.52820754 0.029669877 7.5
0.218569 -0.56489491 0.091142751 5.2727275
3.595237 -0.47564256 0.059646826 85
-1.1299207 -0.35605863 0.13500193 0
-1.0190679 -0.31349915 0.13265397 5
-1.0903583 -0.23229486 0.11790542 0.77777779
-0.99532455 -0.25929412 0.12569179 5.3333335
3.5645916 -0.27584919 0.06307815 105.66666
-1.1254382 -0.1157153 0.11795013 0
-0.98433864 -0.069627903 0.10071994 3.375
-0.83826953 -0.029810334 0.033713453 1
2.0653281 -0.043992188 0.10316768 4
3.5531921 -0.10140629 0.1191425 58.5
0.95648146 0.35957742 0.12088516 17.666666
0.51450258 0.4518629 0.0015606685 0
0.66142398 0.46579102 0.017499274 0
0.81650209 0.48020065 0.047539219 1.6666666
0.96483725 0.49511519 0.055395246 2
1.1530116 0.51060832 0.063286327 3.2
1.2399625 0.52167201 0.056998115 2.3333333
1.8288813 0.58852524 0.044337075 13
0.055138201 1.4299421 0.016905287 1
0.053043481 1.6047046 0.026263218 3.5
0.042687107 1.7290983 0.068294615 2.6666667
0.02747516 1.8447013 0.079270653 1.5
1.3008412 2.2801416 0.058226224 0
1.4422259 2.3417017 0.044206169 3.3333333
0.59044516 2.5300355 0.058252182 10
0.63729769 2.4603543 0.096571051 5
-1.4578972 2.6054597 0.086740561 3
0.52856404 2.5962884 0.049285594 9
-0.073208928 2.7737706 0.12806773 0
-0.13261132 3.4231422 0.10189068 0
-0.87804878 3.9272332 0.012412543 10
-0.45958918 3.9375708 0.056594934 28
-0.38327733 3.9262395 0.064034991 11
-0.08179222 3.9648528 0.080356143 2
-0.66298908 4.1436419 0.078040935 90.666664
-0.54591864 4.0889091 0.055047896 50
-1.7548779 4.8949385 0.070639275 1
-1.3871012 4.8578053 0.05642698 45
-1.2415855 4.8674746 0.046739038 92
-1.142711 4.8814001 0.045266297 93
2.8819108 5.2849603 0.11717134 84
3.7906559 -2.4424438 0.28822255 5
3.7569244 -2.1416848 0.21590585 74.5
3.7465255 -2.0504756 0.25898784 72
3.729353 -1.8606908 0.21158844 72.5
3.7063606 -1.6808745 0.2667827 71
3.7043722 -1.5883753 0.21895239 71.5
3.6887915 -1.4303809 0.17328417 68
3.6886051 -1.3369699 0.20201111 67
3.6567376 -1.1415586 0.2260378 64
-1.1408889 -0.98034108 0.27409947 6.75
-0.99097496 -0.98128754 0.26950073 11.5
-0.83814299 -0.96255493 0.26590276 11
-0.65413964 -0.96192634 0.28956816 9.5
-0.57532078 -0.94582123 0.27565494 11
-0.38539219 -0.91927093 0.28520307 10.166667
-0.12770432 -0.91304922 0.2870411 10.5
3.6455889 -0.94440252 0.26053315 49
-1.2064329 -0.75186831 0.21644491 6
-1.1622738 -0.8200652 0.22717117 5.4166665
-0.93505597 -0.85228711 0.17149436 11
-0.16675095 -0.89335364 0.28314182 10.666667
-0.034919433 -0.79875547 0.27150691 3.75
3.6348245 -0.80568051 0.28312784 44
-1.2662686 -0.73572528 0.21734655 6
-1.1902637 -0.74160069 0.24253798 6
-0.046209451 -0.63081908 0.2406587 5
0.062928759 -0.64782941 0.21446587 5.8571429
0.17263511 -0.63498867 0.17726471 5.8000002
3.5848892 -0.71598202 0.19804269 116
3.6140335 -0.71140993 0.25670314 72
-1.1251522 -0.46213061 0.24135846 1
3.5989418 -0.51473153 0.21065122 76
3.6059387 -0.54445374 0.19288567 85.5
-1.1053135 -0.39492503 0.18435252 1.6
-1.0165081 -0.33755863 0.17031749 2.3333333
3.5804148 -0.3432461 0.21281095 81
-1.0995752 -0.20411064 0.21640681 0
-1.0290927 -0.23662564 0.18615681 0
3.5667427 -0.15180597 0.15451342 90
-1.1150731 -0.11808775 0.18857333 0
2.3642242 -0.0059550609 0.17824864 3
3.5597143 -0.14374819 0.2587164 77
2.3298254 0.017771656 0.20933104 4
3.5395255 0.052869126 0.268637 79.5
3.5240197 0.25048053 0.2610687 86
3.5024819 0.44768113 0.26191759 87
1.0021926 0.50263244 0.17790145 2
1.1353754 0.51577103 0.20489532 2
1.2803538 0.52363008 0.16577727 2
1.8401439 0.60395801 0.22324413 5
2.0547504 0.61541814 0.2308574 19.5
2.1952224 0.624264 0.16238147 18
2.3217199 0.64455205 0.2209242 17
2.5361323 0.66027844 0.2093066 17
2.7340329 0.6782527 0.17367142 15
3.4832423 0.646173 0.27307129 92
0.064628892 1.4428679 0.22742975 1.1666666
0.026521649 1.8671832 0.16104296 1.5
0.015433129 2.0221307 0.20956513 2
-0.012222516 2.2998152 0.24083322 0
1.6076176 2.4426615 0.22597992 0
0.53591561 2.6066718 0.20953444 4.5
-1.5323708 3.8229623 0.28947741 0.5
-0.75605261 3.8197763 0.18827444 6
-0.60832459 3.8158879 0.19727713 33
-0.68801212 3.9166651 0.20988899 16
-2.0610454 4.7544389 0.21387076 58.799999
-1.7077891 4.7929468 0.21919933 51
-1.6316562 4.7925358 0.24994117 72
-1.5605466 4.8017898 0.24340868 80
-1.4466478 4.8193321 0.20841391 67.666664
-1.3175008 4.8564582 0.28119588 79
-1.0157032 4.8915334 0.21416306 88
3.7835834 -2.4332094 0.38741153 4
3.7780116 -2.3536227 0.39753711 64
3.7564552 -2.1205597 0.38876551 68.5
3.7323225 -1.8909774 0.35660842 68.5
3.6990752 -1.6029359 0.39069438 67
3.6804161 -1.3848275 0.3568987 64
3.6656659 -1.2617186 0.43104571 65
3.6601887 -1.14319 0.35240531 67
-1.4585787 -0.94397241 0.44366777 1
-1.2465732 -0.98289913 0.39632258 29.571428
-1.117649 -1.0016112 0.37230512 8.7777777
-0.96408325 -0.9849788 0.37687862 7.5555553
-0.80754197 -0.97102118 0.38785511 9.2857141
-0.69258225 -0.96094608 0.36066318 9
-0.50037491 -0.94312358 0.39215499 8.6153851
-0.38356003 -0.93237722 0.36843711 8.8571424
-0.2340119 -0.91469502 0.38979343 8.8000002
-0.12483899 -0.90671855 0.34733048 8.666667
3.6473188 -0.99877089 0.38355339 68
-1.6201833 -0.80044049 0.43175888 3
-1.4337429 -0.82191801 0.41833892 152.66667
-1.2674915 -0.79848641 0.37686372 4.3333335
-1.170766 -0.78313601 0.39307728 5.5
-0.19864498 -0.89611059 0.31780216 10.333333
-0.035104617 -0.84762084 0.37791133 3.7
0.0021947443 -0.82283407 0.31038886 8
3.5823157 -0.89997816 0.30312115 42
3.630718 -0.75751746 0.40212664 70.5
-1.2640061 -0.73128915 0.41604868 29.5
-0.050422858 -0.67000061 0.353728 0
-1.2082628 -0.48082241 0.37000901 6
-1.1795276 -0.47203702 0.36333615 3.5
3.5958021 -0.46256736 0.43718481 73
3.6062853 -0.54407763 0.37945279 80.666664
-1.2205446 -0.41829255 0.41839764 4
-1.1242865 -0.34555569 0.41203237 0
3.5874443 -0.35071743 0.39229885 78.666664
-1.1170771 -0.22202589 0.38312227 0
3.573575 -0.22126889 0.40750837 75
-1.2199929 -0.066985048 0.40002999 2
-1.1463788 -0.11085029 0.38798511 0.125
2.3185203 -0.0035269868 0.32990807 3
3.5612869 -0.13573945 0.33829877 77.5
-1.8472759 0.096867628 0.44700098 72
-1.2338313 0.0087790387 0.42421496 3
3.5404737 0.11078364 0.35178789 91
-1.6082534 0.22889195 0.38277793 14.666667
3.5301244 0.2294677 0.39298865 86.333336
-1.8083917 0.33775637 0.41176283 23
-1.7380092 0.38786557 0.38536072 51
-1.6183724 0.41979373 0.37474409 23.75
3.5170929 0.37624916 0.39738441 92
-1.6342182 0.45268142 0.39519262 10
3.502521 0.54523581 0.3894535 93.5
1.8250365 0.60158873 0.30675036 0
2.3197961 0.64227915 0.36866176 18
2.4739051 0.65689337 0.35121843 16.5
3.4878204 0.72513109 0.3907322 94.333336
3.3178625 0.75129336 0.41987544 17
0.05703963 1.4301559 0.32811445 1
0.044633698 1.7069116 0.39444348 0.33333334
0.011237902 2.0294213 0.30914688 3
-0.0031800747 2.2166016 0.36380225 0
-0.026419142 2.3793719 0.35746479 2.3333333
-1.3272885 2.4694345 0.372352 5
-0.35682055 4.1490068 0.4387756 47
-0.58870041 4.2995219 0.43526751 42
-0.33997127 4.2786484 0.37162721 39
-0.014450121 4.2801304 0.35308433 1
-0.11570434 4.379487 0.35552803 13
0.17861955 4.3712616 0.40588653 0
-0.32437229 4.5584607 0.30892986 4
-2.0470262 4.7496972 0.34239152 84
-1.7199001 4.7927418 0.39055216 32.5
-1.3116165 4.8569055 0.40465122 87
-1.008019 4.8988314 0.35728517 102
3.7885537 -2.4149709 0.49765256 4.5
3.7597144 -2.2223003 0.50396287 62
3.7245266 -1.8470545 0.49320221 64
3.6948922 -1.5600725 0.5232529 71.333336
3.6881752 -1.406538 0.56239784 63
3.675905 -1.3257825 0.45015085 70
-2.0111296 -1.0839479 0.58074737 40
-1.7696209 -1.0546136 0.5570479 54.333332
3.6635511 -1.1834378 0.5324111 70.5
-1.421427 -0.9751448 0.47938377 100
-1.2414998 -0.95632619 0.46311367 6
-1.136914 -0.9769178 0.50513721 38.857143
-0.94902486 -0.97804517 0.55612487 8.666667
-0.8391276 -0.96952319 0.49984553 9
-0.66265202 -0.94969457 0.56250548 8.375
-0.56180227 -0.94301814 0.49733135 7.375
-0.36410028 -0.91966051 0.53442305 7.1333332
-0.22761321 -0.90791053 0.52781129 8.1999998
-0.14948882 -0.90085924 0.55365109 7
3.6442387 -0.96270615 0.5384236 70
-1.6746547 -0.79518366 0.47988105 78.5
-1.6032776 -0.77238524 0.50998813 34
-1.4405357 -0.7903955 0.5103699 9.666667
-1.2808013 -0.76924253 0.53204829 18.666666
-1.1833057 -0.80936944 0.51374519 7.5
-0.16206054 -0.89632082 0.5447681 10
-0.085385621 -0.89126039 0.50874448 7.6666665
0.0077958079 -0.85865867 0.55582857 5
3.6322291 -0.82444966 0.53061581 74.5
-1.540444 -0.73814678 0.49082607 111
-1.4103979 -0.69944793 0.51321042 17.25
-1.3182064 -0.68455791 0.58768803 24
3.6219106 -0.70476079 0.48667884 71.5
-1.1882491 -0.46922135 0.49480185 3
3.5988855 -0.52368981 0.55249393 67
3.6036453 -0.56905705 0.46789902 72
-1.1548918 -0.38878012 0.50051689 2.6666667
3.5904572 -0.37414244 0.56599492 75.666664
-1.1424564 -0.22625181 0.51706773 0
3.5726211 -0.20733279 0.56987965 69.333336
-1.2278824 -0.061241396 0.46184552 4
-1.1751497 -0.084560193 0.53062415 3.4285715
3.5580573 -0.054002248 0.53343499 54.75
-1.8313137 0.11710428 0.51895809 35.599998
-1.2292866 0.037864938 0.48876539 1.6666666
3.5384121 0.14835516 0.56564963 79
-1.8245445 0.22970773 0.57256305 37.666668
-1.6684406 0.24710618 0.46982086 150
3.5281963 0.16478717 0.52663827 70.5
-1.8538046 0.39459988 0.57395494 8.5
3.5123539 0.34098768 0.53830093 76.666664
3.5011938 0.52374935 0.54759955 87
2.2671547 0.64457971 0.56367701 14
2.5248625 0.66550422 0.48776537 15
2.9241431 0.7116769 0.48426443 12
3.4868486 0.70662004 0.56435692 91.333336
0.083016887 1.453429 0.54491097 0.2
0.040552896 1.7358496 0.49062124 0
-0.097495705 2.9645255 0.5155859 0
-0.10741849 3.0183847 0.59496742 0
-0.58336169 4.1032605 0.50182325 42
-0.366817 4.1835966 0.51989794 49
-0.21618855 4.1846004 0.51667857 28
-0.073334396 4.3531222 0.56293553 13
-2.7367101 4.704699 0.55207634 46.5
-2.6969616 4.6920886 0.58850157 75
-1.9960644 4.756752 0.52255821 77
-1.9281107 4.7828336 0.46834272 26
-1.6136065 4.7959185 0.53108585 81.5
-1.2851925 4.8652821 0.52849162 83
-1.1084893 4.8851438 0.54211998 87.5
-0.97421479 4.8981695 0.53706914 100
3.0584447 4.851593 0.46509999 62
3.054076 5.0271101 0.55909908 62
3.7873275 -2.5142965 0.65154576 2
3.7808983 -2.3740149 0.74679792 60
3.7469141 -2.100893 0.6097098 61
3.7354357 -1.9989533 0.7365104 65
3.7280896 -1.8866091 0.61974251 64
3.7149923 -1.7578675 0.63586664 64
3.7084248 -1.6360363 0.65454602 64
3.6836472 -1.3943728 0.69506145 58.666668
3.6763632 -1.3156416 0.71798146 67
-2.0106494 -1.0731381 0.61027139 43
-1.9034984 -1.058093 0.61020577 50
3.6589203 -1.1364442 0.65196908 65.5
-1.8266511 -1.0318604 0.66711831 150
-1.3573852 -0.95423752 0.72312927 145
-1.2671208 -1.0051359 0.64288431 35
-1.1261929 -0.99183571 0.69196558 41.25
-0.99989516 -0.98170239 0.66604978 23.714285
-0.78626633 -0.96249866 0.71203345 8
-0.69730145 -0.95120162 0.66182029 7.5714288
-0.50378156 -0.93083501 0.70106018 8.1111107
-0.39552623 -0.91784155 0.6789912 7.625
-0.2250336 -0.90371394 0.65165657 8.2222223
3.6433201 -0.95071012 0.70466709 66
-1.5891153 -0.75253159 0.61797947 2
-1.3094835 -0.84958476 0.69737172 118.5
-1.1850702 -0.7705729 0.67248571 1
-0.18055281 -0.89659512 0.6711849 7.8000002
-0.072987229 -0.88644964 0.67924726 7.9000001
0.0046421411 -0.87731475 0.63110471 6
3.6259615 -0.77581376 0.68402559 69.666664
-1.3775043 -0.69499928 0.68730956 73
-1.2878002 -0.70812094 0.6535421 22.5
-1.1470525 -0.71073532 0.71770954 14.5
3.6151161 -0.71526247 0.60230374 71
3.5972612 -0.51320595 0.73879147 63
3.6078322 -0.58290291 0.6357401 69
-1.1534432 -0.31895927 0.66388649 5
3.5845621 -0.36598504 0.65324903 74
-1.162562 -0.24695592 0.66269916 12.5
3.567692 -0.16640458 0.66456294 63
3.5588403 -0.1057423 0.72535419 68
3.5488324 0.04491799 0.72506976 53
-1.8480299 0.23645082 0.67076814 34.200001
-1.7627521 0.26658267 0.70793945 36.5
3.5333538 0.20429282 0.68260318 73.333336
-1.8262094 0.31331477 0.64612091 29.25
-1.7859821 0.33230641 0.69578248 33
3.5163419 0.37826297 0.67780685 78
3.4997118 0.55209088 0.68061513 77.333336
2.8392553 0.70160782 0.7369374 9
3.4859047 0.71155471 0.67107815 84.5
3.4797521 0.76232463 0.73465753 72
0.083581612 1.4657028 0.66079748 1
-0.070224598 2.790534 0.65363216 3
-0.11435908 3.0956345 0.68691838 0
-0.60391492 4.1774745 0.69821984 40
-0.59591323 4.1426945 0.60338897 33
-0.84519798 4.213316 0.69489229 38
-0.87061477 4.4112349 0.6301049 33
-0.50865179 4.4099751 0.74328172 8
0.30689049 4.4632115 0.67645466 0
-3.1697395 4.6616082 0.68958592 38
-3.0821083 4.6678495 0.73424435 87
-2.7170494 4.687448 0.67724913 81
-2.6932247 4.682817 0.6455121 76
-2.3234816 4.7358465 0.68415666 22
-2.1639531 4.7458186 0.66605389 36.666668
-2.0580354 4.7556267 0.61182088 81
-1.9406471 4.7676573 0.66470242 80
-1.5987451 4.8005896 0.71178508 84
-1.4392116 4.823904 0.74637628 81
-1.3094002 4.8558154 0.70027512 82.666664
3.0600095 4.9656954 0.65891242 52
3.0330338 5.174747 0.64279556 63
2.9875979 5.3106318 0.70988506 87
3.781338 -2.414119 0.8985368 6
3.7665346 -2.1772444 0.83404827 65
3.7439368 -2.0101616 0.77772439 62
3.7268879 -1.8657211 0.84532404 61.666668
3.7034163 -1.5968176 0.82042676 64
3.6869493 -1.3623451 0.82005322 58
3.6736321 -1.3132179 0.81703305 63
3.6641414 -1.1758293 0.81283283 61.666668
-1.2748312 -1.0071888 0.82117653 26.333334
-1.1528153 -0.99371642 0.83154833 41
-0.99050462 -0.97190624 0.79963964 36
-0.82114077 -0.96126479 0.80411899 17.428572
-0.62846631 -0.94434774 0.84087628 9
-0.54288101 -0.93428141 0.83179665 12.714286
-0.33369878 -0.91329765 0.85028118 8
-0.27552563 -0.90606606 0.79391211 7.25
3.6436093 -0.97867352 0.77774286 66
-1.6389624 -0.76392287 0.76678193 1
-0.19785786 -0.89379787 0.82313681 8.333333
-0.13416578 -0.89821655 0.8290087 8
3.6304812 -0.84560061 0.86075413 66.5
-1.5406461 -0.73215437 0.81967354 0
-1.2836078 -0.70513844 0.80235225 50.333332
-1.1596003 -0.69907278 0.77474266 48.5
3.6134164 -0.67067808 0.82975298 64.666664
3.5919785 -0.45888644 0.78228354 63
3.6032712 -0.50495577 0.83014917 67
-1.2371451 -0.43208987 0.80973244 0
-1.1086988 -0.36449102 0.79658741 2.3333333
-1.0418186 -0.37137842 0.82809305 2
3.5808938 -0.32729003 0.78936386 65
-1.0815018 -0.25150651 0.81777686 2
-1.0185521 -0.27475187 0.85304081 0
3.5709677 -0.21706609 0.75435209 68.5
-1.748793 0.26453629 0.83089054 17.6
-1.8266183 0.38331658 0.79791212 3
-1.7279987 0.34733617 0.85010576 10
3.3126626 0.75691861 0.8942368 10
0.047945451 1.6611327 0.78341699 2
-0.1053836 3.0924988 0.75712895 0
-0.84193403 4.157568 0.77971947 27
-0.65859175 4.2856803 0.8953954 20
-0.41473967 4.490387 0.76473892 14
-0.32038951 4.5917935 0.78516018 17
-3.085253 4.6652207 0.84299314 77.25
-2.7074695 4.691895 0.76838958 80
-2.6814208 4.6865554 0.78223801 80
-2.437541 4.7320461 0.86307812 1
-2.3235376 4.7357421 0.83171445 33.333332
-1.9188703 4.7717528 0.80053234 74
3.0760972 4.7719927 0.87218475 5
-1.5639226 4.8065963 0.79407209 73
3.0658772 4.8744678 0.7725631 60
2.7702084 5.3217812 0.80567074 19
2.8711193 5.3014145 0.83584166 65
2.6835916 5.4763474 0.88969982 2
3.8002326 -2.5104573 1.001972 2
3.7825522 -2.3388405 0.98203135 34.5
3.7575657 -2.1123519 1.0174652 60
3.7321804 -1.8296736 0.97049195 61.5
3.7141068 -1.7556667 0.98320347 60
3.6996503 -1.5715674 0.96595097 59
3.6806111 -1.3956888 0.93317878 54
3.6669836 -1.2207222 0.99928367 60.5
3.6497898 -1.0511121 1.0045265 59
-1.8218732 -1.0463954 0.94604075 150
-1.6245431 -1.0198445 0.97334301 43
-1.2970486 -1.0020895 0.9657439 32.5
-1.1228954 -0.98374718 0.95383835 34.5
-0.94508266 -0.96844655 0.94501793 39.799999
-0.86289388 -0.95701146 0.91950756 35.5
-0.66659003 -0.93930358 0.97056663 29.125
-0.51083708 -0.92343378 0.99501705 27.333334
-0.39175507 -0.90852153 0.94509643 35.142857
3.6408696 -1.0285037 0.92206341 64
-0.20126906 -0.88698852 0.99162501 41
3.6268778 -0.86416155 0.93435538 64
3.6162529 -0.65649045 1.0317976 58
3.5959265 -0.4877581 0.9924165 62
3.5818315 -0.37758458 0.99669558 62.5
3.5677915 -0.21596518 0.96838897 55.5
3.5498309 -0.056278035 0.94609392 64
3.539242 0.045892388 0.94733369 68
3.5312185 0.18048865 0.9261288 62
3.5175405 0.33817792 0.92124516 66.5
3.5031397 0.49803305 0.92378008 71
3.4858913 0.6569733 0.93220872 73
0.065814838 1.4513229 0.92709994 1
0.016497117 2.035655 1.0242512 0
-0.033460308 2.3889585 0.96281481 0
-0.13164321 3.3554432 0.9776535 0
3.1308565 4.2215543 1.0322191 64
-0.57730436 4.3846831 0.90985072 13
-3.5279868 4.6295719 0.9750517 55.666668
-3.0620122 4.6675453 0.97266829 80
-2.6393924 4.704092 0.96858758 40
-1.8690982 4.7825947 0.95643395 67.5
-1.733888 4.7932358 0.96552789 71
-1.6456926 4.7995734 0.94856405 73
-1.5697474 4.8155684 0.92705441 84
-1.2398852 4.8782625 0.93494403 89
2.2271771 5.3068752 1.0248647 6.5
2.982944 5.3221478 1.0284928 85
2.6901851 5.4771948 0.91729724 10
3.7834728 -2.3729482 1.1647732 61.5
3.7455776 -1.9938805 1.1193047 60
3.7637634 -2.077605 1.0980433 64.5
3.7223833 -1.8320696 1.1617162 57
3.7035367 -1.6128678 1.1407924 60
3.6848099 -1.4230999 1.1149319 54.666668
3.6668897 -1.2419449 1.0842956 61
3.6629779 -1.1899118 1.195029 59
-1.3031923 -1.000317 1.1171999 23.666666
-1.0828965 -0.97733033 1.1201975 32.75
-0.98997831 -0.96903372 1.0889959 34.333332
-0.80911767 -0.94975781 1.1128497 33
-0.69375116 -0.93891972 1.1224735 35.666668
-0.50822628 -0.91965437 1.1476539 35.166668
-0.3872261 -0.90642065 1.1159011 35.5
3.6389635 -0.96693146 1.1555161 57.5
-0.2351716 -0.88816667 1.1293446 39.375
-0.13205187 -0.87153018 1.0695359 40
3.6198857 -0.79360473 1.0981615 61
3.6017306 -0.59416699 1.0728731 61
3.1476474 4.1588621 1.1580895 2
3.1608181 4.2680497 1.176196 2
-3.4807787 4.633451 1.1070596 35
-3.4389255 4.6436605 1.1370815 51
-3.0146525 4.6771913 1.1460012 79
-2.6319067 4.7099552 1.0998025 5
-2.2191486 4.7412238 1.1454155 74
-1.9588368 4.7786956 1.1740471 25
-1.885112 4.784255 1.0950179 67.5
-1.5468874 4.8134561 1.1320388 82
-1.2278771 4.8815327 1.1261801 85.5
-0.93260646 4.9150667 1.0993657 89.5
-0.8121534 4.9386992 1.0895915 46
3.0347369 5.2514834 1.1272126 62
3.7793405 -2.3107154 1.2449558 62.666668
3.7644112 -2.2055738 1.2867926 59
3.7549362 -2.0675864 1.3052638 60
3.7344329 -1.8320353 1.2959094 59
3.7053201 -1.6405928 1.2829707 55
3.6876736 -1.3826238 1.2737153 59
3.669126 -1.2791315 1.3239908 59
3.6493778 -1.1002771 1.2474613 59
-1.5267162 -1.0176271 1.3209004 30
-1.2270364 -0.98448354 1.3083836 32
-1.1219465 -0.97632855 1.2870698 30.666666
-0.96468341 -0.96035862 1.3200537 30
-0.8256405 -0.94773221 1.2824773 32.333332
-0.65199959 -0.93011999 1.3339672 32
-0.5062952 -0.91486919 1.2683132 31
-0.42349839 -0.90615821 1.2810513 30.666666
-0.34418181 -0.89598727 1.2591703 26.25
-0.23288949 -0.88355678 1.2878045 29.888889
-0.072470784 2.8126407 1.3088814 3
3.108402 4.4409499 1.2703943 65
-3.452266 4.6388965 1.2636627 14
-3.4260476 4.6413345 1.2476107 40
3.0876045 4.6124592 1.2954375 64
-3.1644423 4.6810584 1.3471442 29
-3.0761194 4.6821184 1.3148792 48.5
-2.9758747 4.6847143 1.2806027 79
-2.5972669 4.725719 1.250746 75
-2.1956449 4.7543826 1.2821741 80
-2.0443814 4.7746458 1.2010478 10
-1.5275885 4.81633 1.2658856 83
-1.2164437 4.8901854 1.3237152 86
-1.0986487 4.9104409 1.3105901 84
-0.99379814 4.9161067 1.2939528 89
-0.89482009 4.9223657 1.2681247 93
0.21465082 5.074224 1.2253252 1
2.2451725 5.2749796 1.3366487 14
2.7346392 5.3526754 1.2967094 16
2.6829007 5.4449487 1.2230318 1
3.7831757 -2.4514964 1.4451188 4
3.7684708 -2.3017042 1.4598938 62
3.749182 -2.0438936 1.4033295 61
3.7565696 -2.0566461 1.4377077 59
3.7343872 -1.8551438 1.4067535 56
3.730253 -1.7933617 1.4655796 60
3.7093871 -1.5831484 1.3627479 63
3.6910462 -1.4646336 1.4135237 59
-2.0303802 -1.072938 1.3927579 21
-1.4457254 -1.0039145 1.4640951 26
-1.2440704 -0.98885041 1.4014205 31
-0.92899227 -0.95657033 1.4495082 27
-0.77095175 -0.94068462 1.3562934 28
-0.63691854 -0.92423195 1.4214985 31
-0.52536923 -0.91333973 1.4066801 31.200001
-0.39786926 -0.90142775 1.3940349 23
-0.32671693 -0.89190966 1.412621 21
-0.24147329 -0.87926352 1.4680548 19
-4.5364208 4.5525022 1.4454455 27
-4.432457 4.5709562 1.4972568 18
-3.4008734 4.6458111 1.4034133 12
3.0932565 4.5969267 1.4129616 55.5
-3.2228963 4.6747637 1.4256767 74.5
-2.962086 4.6862736 1.4970852 56
-2.5583525 4.7211227 1.3857152 76
-1.8574264 4.7849951 1.4205363 81.5
-1.515164 4.8249331 1.3943543 82
-1.1908033 4.8996863 1.4794891 98
3.067446 4.8342528 1.4893615 61
0.25927675 5.067287 1.4442085 3
2.3585057 5.2922945 1.4236144 3
3.771668 -2.2791257 1.5622518 58
3.7518096 -2.0424304 1.5624602 59
3.7362864 -1.858743 1.628992 56
3.709944 -1.6559482 1.5133556 59
-2.1379409 -1.0776583 1.5097866 24
-2.0787284 -1.0680481 1.6275674 23
-1.8350282 -1.0471826 1.6381098 26
-1.7660936 -1.0398111 1.5664057 24.333334
-1.4064754 -1.0003814 1.6021657 29.666666
-1.2995437 -0.98522562 1.577461 28
-1.1188947 -0.97022176 1.5787202 26
-0.96596414 -0.95484686 1.5204226 34
-0.84449881 -0.94223857 1.5511147 29.333334
-0.69042367 -0.92732221 1.5931537 31.25
-0.53234267 -0.91116059 1.5793874 27
-0.43662009 -0.90118015 1.5255919 21
-0.3572807 -0.89183015 1.5761813 15.5
-0.29511768 -0.8889448 1.6395653 17
-2.3415165 0.21029067 1.6102349 30
-2.1045027 0.32530919 1.6399933 45
-2.0167334 0.39103043 1.6397268 41
-1.9321923 0.44774437 1.6417946 33
-4.7670307 4.1854339 1.6075053 42
-4.0829053 4.2711802 1.5878236 10.5
-3.414541 4.3261271 1.6092314 73
3.1115475 4.3421817 1.615559 63
-2.6330647 4.3879089 1.6281711 57
-2.0623631 4.4687448 1.6064576 40
-1.6971149 4.4841781 1.6211034 68
3.1056097 4.4509478 1.5248219 52
-4.388413 4.5466404 1.5942755 11
-3.5570502 4.6372724 1.5788648 61.5
-1.5003566 4.5134282 1.6031927 11
-1.0895513 4.5426898 1.6315802 79
-3.3507919 4.6538534 1.5486425 15
-2.9188092 4.695065 1.6429509 21
-2.5265474 4.7366533 1.5301849 82
-2.215946 4.7585392 1.5915765 65
-0.80725646 4.7872529 1.6314453 54
-0.51877052 4.7760696 1.6417865 37
0.41686618 4.7166348 1.6199734 10
-1.8238639 4.802 1.6250254 59
-1.5018276 4.8417492 1.5710263 49
-1.4406785 4.8378887 1.5277579 79
-1.2862277 4.8886666 1.515192 86
-0.83525711 4.9099097 1.5582914 79
-0.52777499 4.93156 1.586243 73
-0.35469767 4.8884792 1.6244818 20
3.057688 4.9396195 1.5902609 39
-0.24623424 5.0022497 1.5820906 5
-0.13185088 4.9557538 1.618736 2
2.9309096 4.9523134 1.6362818 60
3.0486615 5.0231242 1.5763412 60
1.4599285 5.1411719 1.5748758 65
1.5461977 5.1079082 1.6192858 15
3.0510948 5.1190419 1.6436421 18
3.7683256 -2.2997053 1.6954793 57
3.7735016 -2.2456648 1.717292 53
3.7551711 -2.0684268 1.7553483 52
-2.1174793 -1.0691998 1.7760891 22
-1.9863849 -1.0603834 1.7450651 24
-1.5170385 -1.0115775 1.6915182 30
-1.4220393 -1.0048838 1.7151003 22.5
-1.0709729 -0.96503758 1.7146913 25
-0.68327421 -0.92897236 1.7616688 29
-0.53645116 -0.90820664 1.7343456 24.666666
-0.416614 -0.8978641 1.7377417 22
-0.25368267 -0.87906319 1.6663022 19
-1.257597 -0.28561825 1.7995027 62
-2.289973 0.2827411 1.6801769 18
-2.0846391 0.40584618 1.6794423 47
-1.951014 0.54194736 1.7792574 1
-3.9476016 1.3321812 1.7946303 72
-3.7052836 1.2937993 1.7933201 37
-3.0464191 1.3406509 1.7961563 77
-2.9058626 1.2798942 1.7969112 76
-0.78019476 1.3307259 1.7816753 30
-2.7916381 1.4676136 1.7932667 77
-2.3635674 1.4227697 1.7988602 81
-1.7054496 1.4702981 1.7961477 81
-4.2969112 1.6346887 1.792796 70
-3.9721644 1.5800109 1.7924269 75
-3.6864858 1.6098692 1.7956699 73.599998
-3.4865701 1.5836679 1.7931026 73
-3.3635397 1.568712 1.7965108 77.5
-3.1704454 1.5549595 1.7951394 88
-3.0354629 1.6288296 1.7896882 74
-2.9046626 1.5493773 1.79066 78
-2.2838936 1.6013601 1.7961174 65
-2.2473447 1.5321403 1.7996234 77
-1.7392426 1.5496482 1.7952868 81
-1.6020169 1.5759747 1.7961042 78
-1.3672025 1.5521408 1.7983986 76
-4.5813694 1.7780995 1.7779411 62.5
-4.2661037 1.7270403 1.7893218 69.5
-3.9874945 1.6724563 1.7900869 72.5
-3.7968407 1.6674838 1.7897798 67
-2.9739683 1.7998837 1.7943801 89
-2.8157511 1.7277808 1.7899137 79.5
-2.6718848 1.6903784 1.7909354 80
-2.5360236 1.6692172 1.7994491 75
-2.3324449 1.6713896 1.7940995 68
-2.1858394 1.7169901 1.7962254 70
-2.0210259 1.6725339 1.7986108 75
-1.6727796 1.7184484 1.7910744 76.5
-1.5943567 1.7086084 1.7953728 75
-1.447288 1.7606478 1.7965825 50.5
-1.3082384 1.7343991 1.7998878 23
-1.0707558 1.7171741 1.7976035 78
-0.68201917 1.722096 1.7989398 23
-3.9965193 1.9375129 1.7848507 74
-3.7271152 1.8658966 1.79008 85
-3.4983363 1.8570318 1.79318 74
-3.3808823 1.8849304 1.7923501 73
-3.1716242 1.8560681 1.7945811 84
-3.0227425 1.9341221 1.7862283 74
-2.9009895 1.8357506 1.785288 73
-2.5038598 1.9277595 1.7920014 79
-2.3038559 1.8902268 1.7924446 72.666664
-2.1716042 1.9425154 1.7885212 67
-2.0293593 1.9203514 1.793263 47
-1.8635861 1.8775978 1.7959195 28
-1.7552965 1.8476746 1.7959832 65
-1.5863796 1.8757616 1.7918235 74
-1.0750486 1.9031392 1.7959212 69
-1.0014914 1.9025643 1.795262 59
0.060697615 1.8912591 1.7826827 2.5
-4.3248129 2.0220346 1.7815052 70
-4.0278845 2.0356324 1.7819682 74
-3.7905159 1.9868363 1.7875347 71.333336
-3.628118 1.9719634 1.7866454 73
-2.9666884 2.0971127 1.7922741 82
-2.8070645 2.0249333 1.7841377 78.5
-2.6469502 1.9708878 1.7871195 71
-2.1926 2.0341284 1.7875367 68
-1.7027231 2.0688605 1.7986926 17
-1.5846884 2.0062792 1.7885863 75.5
-0.95916259 2.0438774 1.7917167 35
0.13029827 2.0932391 1.7905535 6
0.36085695 2.0569384 1.7971169 54
-4.5939512 2.1793356 1.752124 53.5
-4.306716 2.1152186 1.7808994 65.5
-3.7509286 2.2242827 1.7840453 73
-3.497283 2.1343765 1.7903925 76
-3.4096761 2.1893148 1.7838944 66
-3.1658072 2.1742187 1.790202 74
-2.8980556 2.1474075 1.7841407 73.5
-2.4656506 2.2024367 1.7849089 78
-2.3258531 2.1432438 1.7900902 80
-2.1975181 2.1752641 1.7799286 66
-2.0300748 2.2013614 1.7890214 39
-1.8581501 2.1316719 1.7900646 23.5
-1.5475911 2.1700356 1.786211 71
-1.4959449 2.1656821 1.7909375 69
-0.55934083 2.1837969 1.7956775 20
-0.36509597 2.246479 1.7951516 44
-0.13999583 2.2019436 1.7957653 52
0.38839704 2.1438026 1.7963631 58.5
-4.0319209 2.3279068 1.7804564 71
-3.8186784 2.3342299 1.7772043 52
-3.6393142 2.34023 1.7785079 69
-3.530829 2.2588191 1.7785181 66
-3.375731 2.2570045 1.7840079 72
-3.00775 2.2633426 1.7853235 64
-2.8016138 2.352721 1.7857041 69
-2.6126072 2.2695413 1.7815019 76
-2.155432 2.3512354 1.7747999 71.5
-1.4761231 2.3175261 1.7861426 65
-0.65801775 2.2810187 1.7960271 19
-0.46468514 2.3966274 1.7946779 45
-0.4157801 2.3235488 1.7953907 42
-0.18672204 2.3620956 1.7997526 9
0.0076022269 2.3477688 1.7923003 10
0.38824964 2.2556379 1.795843 65
-4.3808804 2.4891977 1.7689463 67.5
-4.3053269 2.5403099 1.772391 68
-4.0753422 2.4321933 1.7739363 65.5
-3.841486 2.4260724 1.7924284 28
-3.5118814 2.4920325 1.7815045 67
-3.1492903 2.5103884 1.7784921 73
-2.9071498 2.4262509 1.782977 65.5
-2.425473 2.5033939 1.7826968 52
-2.2835093 2.4202197 1.7874552 40
-2.1415887 2.4939427 1.7698725 69.5
-1.4316506 2.4671834 1.7807041 59.666668
-0.96232933 2.5422246 1.7902845 28
-0.89229822 2.4717004 1.7966958 29
-0.52395034 2.4735174 1.79434 49
-0.26692641 2.4605031 1.796683 56
-0.098303042 2.4803929 1.7897884 23
-4.6571546 2.5983672 1.7040156 90
-4.6090388 2.6483333 1.7675513 79
-3.7754014 2.6148002 1.77643 65
-3.551964 2.6403689 1.7684354 58
-3.4072018 2.5943899 1.7771417 61.5
-2.9774039 2.611876 1.7765533 60
-2.7402945 2.6901035 1.775009 59
-2.5756509 2.5963752 1.7802566 58
-2.1006536 2.6512456 1.7659259 69.5
-1.3782593 2.6138074 1.7738136 36
-1.3457767 2.6854446 1.7736138 33
-1.11401 2.6952538 1.7853659 24
-1.0345275 2.6239138 1.7918514 26
-0.77919322 2.6756856 1.7851256 58
-0.34842527 2.623292 1.7875226 51.5
-0.1296999 2.6360769 1.7908072 64
0.037411541 2.6402915 1.7863983 7.3333335
-4.0664577 2.7520695 1.7725531 67
-3.8620205 2.7764866 1.773368 65.333336
-3.6550679 2.7475338 1.7746567 63
-2.8983316 2.7850339 1.7805636 57.5
-2.8144319 2.7060504 1.7750345 59
-2.1128614 2.802542 1.764403 66
-2.0664482 2.836679 1.7733456 33
-1.4175055 2.7612126 1.7786471 18
-0.84275466 2.7715197 1.7855383 56
-0.16744103 2.7651501 1.7799808 53
0.07278575 2.7510438 1.7889192 8.5
0.20070526 2.8092368 1.7935076 7.5
-4.4218817 2.9170597 1.7674695 64
-4.1248717 2.8671436 1.7626746 68
-3.510705 2.9353318 1.7754158 64
-3.1443148 2.8926322 1.7768363 71
-2.89449 2.8996093 1.7763435 58
-2.5320668 2.9555314 1.7819375 11
-2.0486448 2.9409261 1.7667929 32
-1.5693678 2.9064462 1.7836148 5
-0.93820572 2.899466 1.7744648 64.5
-0.65263796 2.8960109 1.7764057 68
-0.49942148 2.9444065 1.7951198 6.5
-0.20122121 2.8624833 1.7772762 57
0.015108433 2.9217989 1.7826903 9
0.24174178 2.9320657 1.7876126 6.6666665
-4.6692123 3.1491444 1.7571431 56
-4.4132895 3.0085759 1.7614858 61.5
-3.7954428 3.0393095 1.7647043 67
-3.5808396 3.0688608 1.7614297 62
-3.3669233 3.0382249 1.771319 64
-2.9329827 3.0698285 1.7745959 41
-2.8123457 3.0991457 1.7703561 64
-2.6967671 3.0751226 1.7710279 19
-2.035346 3.0411823 1.7643362 35
-1.6657476 3.0115583 1.7804247 1
-1.3691829 3.0791872 1.7757386 54
-0.75422752 3.1120305 1.7711445 62
-0.70446575 3.0050311 1.7749633 67
-0.50932997 3.1418319 1.774036 63
-0.41228971 3.0407805 1.7791016 29.5
-0.0069914041 3.0884714 1.7831722 10
0.20284082 3.0744698 1.7823504 6
-4.855741 3.1912429 1.7538007 49
-4.1157408 3.2333181 1.7708038 58
-3.9277 3.2021155 1.7593391 57.5
-3.8296857 3.2839456 1.7578617 58
-3.6606905 3.1888533 1.7626767 59
-2.8257647 3.1916614 1.7588767 55
-2.0230379 3.1760027 1.7653576 33.5
-1.4594526 3.2074912 1.7749597 51
-0.81576401 3.2248058 1.7673258 65
-0.54770321 3.263046 1.7697133 63
-0.3341437 3.1747241 1.772573 45
-0.27085394 3.2608602 1.7663375 51
-4.4687037 3.4310656 1.7546307 55
-4.2076879 3.3480856 1.7544857 55
-4.1733751 3.3737805 1.753265 59
-3.5347834 3.3837523 1.7620555 57
-3.1226418 3.3009713 1.7661725 30
-2.8837988 3.3632808 1.7661983 61
-2.1110082 3.4259515 1.7846266 0
-1.962793 3.3535333 1.7558479 30
-1.5492525 3.334677 1.7692279 48
-1.2532486 3.3936062 1.7746702 57
-0.58437282 3.3984671 1.7720422 59
-0.34467578 3.4131508 1.774002 62
-0.2023311 3.3324049 1.7732607 58
-0.13542514 3.3955767 1.7661711 11
0.21301289 3.3199098 1.7870761 10
-4.5451274 3.5505199 1.7543927 47
-4.4342899 3.5378561 1.7547737 54
-3.8469746 3.5426397 1.7670053 61
-3.6134171 3.5553119 1.7546147 61
-3.3562279 3.4924159 1.7621211 42
-2.8007498 3.5383284 1.7605358 61
-2.2467718 3.5841105 1.7731634 1
-1.9320549 3.5505605 1.7491202 30
-1.6538398 3.4746547 1.7662731 54
-1.3322439 3.5379732 1.7674969 59
-0.63171977 3.5294354 1.7646667 60
-0.36764917 3.5546811 1.7699982 55
-0.15439034 3.4982212 1.7647756 11
-0.077618375 3.4846909 1.7214967 12
-4.738667 3.712769 1.7452108 43
-3.9807842 3.6946054 1.75111 30
-3.6773891 3.6976657 1.7579422 50.5
-2.8081002 3.6491168 1.7552432 60
-1.4134979 3.6943567 1.7624441 59
-1.1155524 3.7322438 1.767433 60
-0.38808227 3.6962051 1.7644337 58
-0.15280543 3.6988747 1.7684237 19
0.082490847 3.6863005 1.7789603 6
-4.9500656 3.7815037 1.7459008 39
-4.1481895 3.7555165 1.754614 54
-4.0404983 3.7867694 1.7593232 22
-3.8532078 3.8197305 1.7566258 58
-3.5923762 3.8497329 1.765035 18
-2.855669 3.8933771 1.7582289 55
-2.827209 3.77195 1.7614685 61
-2.3954701 3.7681856 1.7675358 0
-2.0091338 3.7944334 1.7592889 26
-1.5133201 3.8744555 1.7620586 61
-0.91673285 3.794081 1.7579926 12
-0.84425974 3.8775005 1.7561518 29
-0.41883093 3.8606658 1.7632047 62
-0.15685688 3.8689365 1.7704915 16
0.073763564 3.8681853 1.7777771 0
-4.5350809 4.0278177 1.7447222 45
-4.2669907 3.9259262 1.7422568 47.5
-3.5721426 3.9883678 1.7547034 59
-2.7849667 4.0446191 1.7504581 58
-2.1562622 4.020833 1.7640153 16
-1.1837944 3.9068458 1.7607127 58
-0.7760902 3.9798639 1.7550985 54
-0.15930842 4.0338302 1.7658657 9
0.071816668 4.0446758 1.7803415 6
0.24522413 3.9366417 1.7801555 7
0.33661592 4.0118856 1.7975341 1
-4.5674086 4.1471405 1.7399571 59
-3.8691318 4.0809836 1.7485009 21
-3.6452928 4.1087136 1.7437762 55
-2.7732055 4.1597528 1.7438098 55
-1.2552036 4.0964599 1.7565628 56
-0.95411938 4.1144276 1.7627176 61
-0.82369047 4.1119204 1.7513527 43
-0.73048156 4.1936383 1.7450253 57
3.0384355 4.0904574 1.7747699 0
-4.6686506 4.20998 1.6619908 82
-4.0945954 4.2499557 1.687332 49
-4.0171022 4.2651711 1.699144 18
-3.7644603 4.2910948 1.6873142 97
-3.7379508 4.251977 1.7452263 76
-2.7660267 4.2748909 1.74116 52
-2.2982905 4.2389436 1.7541367 38
-1.9107915 4.2575064 1.7572404 51
-1.3396056 4.3108368 1.7524551 60
-1.0090753 4.3202729 1.7548488 60
-0.64521402 4.2865424 1.7525839 57
-0.17042425 4.2054219 1.7546009 7
0.088429585 4.22293 1.7740506 1
-2.7357759 4.3884916 1.6911812 70
-2.429168 4.4102182 1.7050272 81
-2.0166678 4.4385343 1.7181755 86
-0.56168509 4.374156 1.7496556 62
0.33024788 4.3814893 1.7670208 7
-4.4418745 4.5282779 1.6502591 17
-3.574919 4.6063757 1.6639704 23
-1.0605228 4.5270405 1.741249 80
-0.76886863 4.5607681 1.7056025 86
-0.61363941 4.583962 1.7375344 72
-0.50422865 4.6176338 1.7170984 95
-0.35809261 4.6276312 1.6807804 83
0.369017 4.561974 1.7528478 8
1.7988093 4.5303698 1.7600521 32
2.0173566 4.5695066 1.7617112 32
2.9203374 4.5144835 1.7812015 32
-1.4668077 4.752439 1.6537079 10
0.40818524 4.7100306 1.7219945 12
0.62782294 4.7267561 1.7409793 10
1.154977 4.7891908 1.6661204 54
1.2524019 4.7876902 1.6907657 87
2.0976517 4.6652694 1.7635349 33
2.2539835 4.7582841 1.7624382 38
2.5611401 4.7351508 1.7642158 33
3.0051053 4.7761421 1.7759691 35
2.2646809 4.8256969 1.7686387 42
2.4119616 4.8573232 1.7600902 39
2.6123688 4.9190235 1.7123905 75
2.7954073 4.9503403 1.6623584 72
3.045995 4.967648 1.7180363 80
1.6652223 5.1456475 1.6773931 43
3.7741826 -2.2886636 1.8994719 57
-4.3910093 -2.149806 1.851266 62
-4.3109765 -2.0822699 1.8769509 61
-4.0548558 -1.8722508 1.8451768 55
-3.9702821 -1.8076915 1.8698887 67
-3.7885375 -1.8065251 1.8542272 57
-4.046545 -1.6866324 1.8505203 4
-2.7797296 -1.361716 1.8613316 4
-3.0447111 -1.1895728 1.8480355 66
-2.1466892 -1.0589248 1.8452357 63
-2.1031373 -0.91193748 1.8480664 60
-2.0243967 -0.99639702 1.8527699 67.25
-1.6810862 -0.97209686 1.8480405 62.333332
-1.5497622 -0.93353641 1.8537627 73.5
-1.4748719 -0.96449649 1.8589598 72
-1.2510771 -0.93165481 1.8573265 79.5
-1.1229765 -0.97109276 1.8346082 58.333332
-1.0131176 -0.95969737 1.8536834 58.5
-0.8351689 -0.92999351 1.8276435 57.5
-0.66189915 -0.91600639 1.8469223 63.333332
-0.55756086 -0.9050436 1.8465019 56
-2.1785882 -0.86754066 1.8461944 64
-1.7433028 -0.82679993 1.8518895 10
-1.5708101 -0.78216535 1.8542694 60.799999
-1.2797854 -0.80206484 1.8568474 82.666664
-1.1050684 -0.84538728 1.8567715 89.400002
-0.93278933 -0.83432674 1.8596498 99
-0.80261075 -0.81818885 1.8531809 85.5
-0.67229444 -0.81569403 1.8535178 79.285713
-0.51776284 -0.83103943 1.8541518 71.833336
-0.38258782 -0.84927833 1.8475239 48.714287
-0.27016383 -0.82476145 1.8539628 53
-2.2621584 -0.70199257 1.852976 1
-1.5604109 -0.63202757 1.8496952 42
-1.3786558 -0.64561456 1.8538846 77
-1.2505636 -0.65774077 1.8521034 86.25
-1.1275561 -0.69412893 1.8565161 92.199997
-0.95891649 -0.6910615 1.8492247 81
-0.81052208 -0.69625694 1.8510071 84
-0.68587619 -0.67916781 1.8508061 80.333336
-0.52243483 -0.65346396 1.8502313 78.375
-0.39829582 -0.68904883 1.8541073 67.800003
-1.576195 -0.48070294 1.847833 67.5
-1.4116801 -0.49325824 1.851112 79
-1.2815067 -0.51789904 1.8472745 82
-1.1438046 -0.53797668 1.8450742 69.333336
-0.98613006 -0.52590913 1.8464448 78.599998
-0.82449013 -0.5240078 1.8474685 82.777779
-0.69291455 -0.52977699 1.8482981 81.714287
-0.53401798 -0.52922386 1.8469582 80
-0.40437099 -0.49438548 1.8465452 72.5
-2.1611691 -0.33016831 1.8337213 64
-2.0780575 -0.40456721 1.8345777 70
-1.8742205 -0.30779016 1.8437494 77
-1.7562652 -0.30400264 1.8426389 76
-1.6003551 -0.33246171 1.8440691 77.333336
-1.3972995 -0.34102386 1.8461667 89
-1.2907451 -0.39279544 1.8441682 86.666664
-1.1439648 -0.37254462 1.839409 82.714287
-0.97154003 -0.3568702 1.8405751 78.5
-0.81214678 -0.363998 1.8416739 79.400002
-0.67308593 -0.37401086 1.8445809 80.5
-0.54182637 -0.38799363 1.8475949 80.599998
-0.43951201 -0.37357545 1.8438431 75
-2.2017553 -0.27099189 1.834528 52.333332
-2.0518758 -0.2564331 1.8369178 76
-1.7039495 -0.22714996 1.8414131 80
-1.5879495 -0.19417447 1.8442307 84
-1.3955659 -0.21612376 1.8407072 91.666664
-1.253311 -0.19695571 1.8372616 78.25
-1.1066965 -0.19517827 1.838798 78
-0.98413688 -0.20502137 1.8349938 83.333336
-0.82789445 -0.22257379 1.8395772 78.222221
-0.68179953 -0.20792934 1.8422174 79.25
-0.55003256 -0.23172003 1.8461492 77.25
-4.4752393 -0.030578578 1.8070599 66
-4.1467652 -0.057512552 1.8199121 74
-2.2615864 -0.045057256 1.8286954 75
-2.189116 -0.11510319 1.8300196 78
-2.0542431 -0.082472436 1.8330555 77
-1.8505888 -0.13186297 1.8386689 79.5
-1.7225529 -0.087342277 1.8386714 80
-1.5936667 -0.047165707 1.8463804 83
-1.4103513 -0.070664696 1.8406521 98.666664
-1.2658143 -0.067422032 1.8350005 78.75
-1.0994906 -0.068024106 1.8358214 80.5
-0.95077717 -0.065435849 1.8349279 83.800003
-0.83819485 -0.072843306 1.8387556 76.583336
-0.67529911 -0.066025406 1.8408902 74.75
-0.51929313 -0.088961005 1.8427014 78
-4.3739948 0.0089710774 1.8236607 65
-4.1139383 0.067503914 1.8224962 65
-3.9147449 0.021841068 1.8469566 6
-3.8367405 0.12884989 1.8193578 67.5
-2.4165077 0.093568511 1.8202816 75
-2.2947245 0.088087268 1.8253554 72.5
-2.1749554 0.06001924 1.825961 81
-2.0533037 0.090090841 1.8307287 74
-1.8635511 0.039461255 1.8380693 77
-1.7334186 0.0719947 1.8374338 77.5
-1.5906401 0.099316329 1.8407999 81
-1.4177109 0.074542962 1.8387395 98
-1.2712082 0.077633016 1.8321501 79.400002
-1.1048983 0.055141881 1.8335515 81.25
-0.95332402 0.099592581 1.8311889 81.599998
-0.84498817 0.077892236 1.8367339 80.714287
-0.67253399 0.072016291 1.8398165 78.14286
-0.54138726 0.056636054 1.8393432 82
-3.6256349 0.17354821 1.8215243 46
-3.5688903 0.19774115 1.8240827 82
-3.1681418 0.25190711 1.8179926 75
-3.0525088 0.29161847 1.8174499 70
-2.2678595 0.21423578 1.8240962 76
-2.182457 0.24483256 1.8207777 81
-2.0061967 0.21595889 1.8268541 82
-1.8690643 0.21333432 1.8333738 77
-1.747051 0.23608974 1.8488909 54
-1.5847156 0.24547268 1.8399103 77
-1.418161 0.2214871 1.8340732 94.333336
-1.2781173 0.22615576 1.8324901 79
-1.1027352 0.21498413 1.8337892 76.666664
-0.94830775 0.23218179 1.8313113 77.75
-0.82899237 0.22790842 1.8315439 79.5
-0.67918915 0.22820885 1.8346465 78.888885
-0.5394544 0.22422926 1.8385384 83.25
-3.7633605 0.4082717 1.8200721 85
-3.6494057 0.40181702 1.819339 91
-3.5558577 0.42177024 1.8138499 86
-3.4349577 0.40588361 1.8267795 52
-3.0067749 0.31015199 1.8204609 78
-2.9331539 0.30299371 1.8187011 66
-2.775907 0.30661744 1.8203816 78
-2.043298 0.34729034 1.8265889 83.5
-1.8684173 0.38886398 1.8301092 86
-1.7335223 0.38079622 1.842917 50
-1.572094 0.39212403 1.8336923 84.5
-1.4141035 0.369939 1.8328611 91.666664
-1.274858 0.36001751 1.8320769 82.25
-1.0838964 0.37855196 1.8294519 79.599998
-0.93542612 0.36440983 1.8291504 76.199997
-0.81180626 0.38953388 1.8307097 70.875
-0.66542959 0.3840771 1.8435391 57.857143
-0.52431053 0.39448902 1.8339106 79
-3.6094663 0.4651992 1.8276242 91
-2.7420292 0.49396706 1.818819 77
-2.6146734 0.51668745 1.8182143 83
-2.459259 0.54330468 1.8179781 76.5
-2.2959671 0.50884622 1.8190478 63.666668
-1.8609655 0.56649649 1.8255119 46.5
-1.7376165 0.48979566 1.825398 83
-1.5546169 0.53884816 1.8279233 83
-1.403447 0.52053434 1.8322054 90.333336
-1.2906915 0.51036006 1.8308231 89.333336
-1.1456802 0.50468588 1.8244177 74.25
-0.98758286 0.53071404 1.8282964 74
-0.83770418 0.52431315 1.8277512 74.375
-0.68467712 0.52228338 1.8253107 77.666664
-0.54587144 0.5224241 1.8277642 77.75
-2.7475033 0.72036463 1.8132687 75
-2.6082344 0.7338593 1.8164748 79
-2.418972 0.7356649 1.8122844 80
-2.312964 0.68429852 1.815236 81
-2.1881976 0.62381339 1.8171978 79
-2.0164578 0.70031524 1.8207828 84
-1.8145031 0.71925265 1.8154088 84
-1.722945 0.6468544 1.8234855 85
-1.5671732 0.7334463 1.8195144 82
-1.4367851 0.67846268 1.824102 84
-1.2926164 0.64320421 1.8283049 88.5
-1.1010754 0.67243421 1.82065 77.25
-0.96629667 0.68585932 1.8251203 74.599998
-0.81504828 0.66557765 1.8258278 75.5
-0.67811954 0.67194408 1.8266596 74.599998
-0.5324865 0.67249709 1.8297005 75.5
-0.44051826 0.71151185 1.8284291 82
-3.0307879 0.78786421 1.8107692 73
-2.9026802 0.77709591 1.8111596 69.5
-2.4792821 0.77031016 1.8141114 73
-2.2656651 0.82129711 1.8130311 83.5
-2.1848292 0.8209278 1.8154324 83.5
-2.048238 0.86119741 1.817886 82
-1.9074681 0.83412087 1.8137391 86.5
-1.7468207 0.82898819 1.8163218 86.5
-1.589397 0.8736307 1.82154 81.5
-1.4143572 0.83062458 1.8235373 82
-1.2716653 0.78912365 1.8262298 86.25
-1.0862447 0.79886389 1.8272799 85.5
-0.9886443 0.84838247 1.8203875 81.599998
-0.81502628 0.82274455 1.8207419 71.599998
-0.67301476 0.82886457 1.8231701 75
-0.52007753 0.81299973 1.8252481 73.800003
-0.40845111 0.85915297 1.8234495 71
-3.7817552 1.0148883 1.8049661 67
-3.6581371 0.98844028 1.8081869 78.75
-3.5838716 0.99486268 1.8072857 81
-3.4153392 0.97372824 1.8052678 79.333336
-3.2340078 0.99267989 1.8056221 80.5
-2.9222813 0.99197119 1.8080628 75.75
-2.7521524 0.95376992 1.8092374 72
-2.5988154 0.95606899 1.8138796 82
-2.4383943 0.96876848 1.812014 82
-2.3391404 0.91631281 1.8117205 76
-2.1938164 1.0122319 1.8103795 80.333336
-2.019871 1.0486206 1.8097507 80
-1.8514718 0.95853484 1.8106724 92
-1.7083397 0.98104721 1.8088684 83.666664
-1.5982157 1.0207139 1.8091544 75
-1.4106696 0.98864609 1.8193902 84
-1.2809162 0.94295985 1.821508 84
-1.1306748 0.96344507 1.8210425 84
-0.97106212 0.97641051 1.8236122 84.25
-0.82723057 0.96996784 1.8210766 81.800003
-0.6579355 0.95293373 1.8163787 75.285713
-0.52585 0.9827314 1.8211931 66.25
-0.36942628 0.98195177 1.8214684 48.5
-3.0554233 1.0665048 1.8021005 76
-2.8615978 1.1617806 1.8026971 74
-2.7194488 1.1776841 1.8082525 77
-2.5825083 1.1843593 1.8091477 81
-2.4524477 1.195011 1.8141485 80
-2.3309929 1.1347986 1.806939 80
-1.8730603 1.1164579 1.8144422 51.5
-1.7053994 1.1433833 1.8042849 71.25
-1.5352426 1.1250694 1.8128285 81.5
-1.4129728 1.0815482 1.8183252 87
-1.2476118 1.0983729 1.8185787 84
-1.1357998 1.0988848 1.8192521 79
-0.96585697 1.1174855 1.8200245 76.25
-0.82205373 1.1173024 1.8228222 77
-0.66424394 1.1169235 1.8218584 74.833336
-0.53186882 1.1183531 1.8254553 55
-0.37140411 1.1224872 1.8202947 30.142857
-3.8189654 1.3455954 1.8160332 44
-3.6681859 1.2833673 1.8024206 62.333332
-3.5064528 1.2640136 1.8034477 79
-3.3472571 1.2719486 1.8011239 78.5
-3.1749165 1.2759211 1.8018669 86
-2.9912748 1.2635497 1.803912 89
-2.7876649 1.2168303 1.8033003 73
-2.2614939 1.2997847 1.801561 81
-2.1764872 1.2269449 1.8081225 76.333336
-1.9919468 1.2462182 1.808566 76
-1.8841442 1.2582445 1.8061744 36
-1.7302524 1.3099051 1.803558 54
-1.4201634 1.2227736 1.8104451 80
-1.2703439 1.2397846 1.8144611 80.333336
-1.1442792 1.2543577 1.812019 78
-0.9490931 1.2733076 1.8169544 73
-0.84712517 1.2367539 1.817295 70.75
-0.70995188 1.2826861 1.8191838 51.333332
-0.53055561 1.2776788 1.8204677 32.5
-0.40497929 1.260645 1.8226651 16
-0.27496716 1.2444994 1.8293869 7
-3.4672623 1.4951106 1.8015579 78
-2.8740525 1.4470776 1.8182894 39
-2.7031193 1.4319932 1.8036915 76
-2.5630965 1.4217477 1.8056818 76
-2.4258842 1.4144303 1.8069464 76
-2.3109279 1.3648977 1.8037914 75
-2.1938133 1.4497305 1.8023528 80
-2.0109921 1.4487869 1.8049467 66
-1.8490458 1.4479258 1.8054532 28
-1.6829604 1.3928366 1.8015536 77
-1.5652027 1.3708789 1.8039435 75.5
-1.4219981 1.3821892 1.8056384 76
-1.3029635 1.3811207 1.8072982 83.5
-1.157243 1.42053 1.8081909 76.25
-0.98278427 1.3932776 1.8121547 47.5
-0.84086978 1.4073021 1.8105587 43
-0.71130168 1.4617571 1.8109608 45.5
-0.56139535 1.4460436 1.8167683 12.5
-0.39685339 1.4063889 1.8147608 5
-2.9857435 1.5256956 1.8007258 89
-2.3996761 1.6459352 1.8030366 77
-1.8048459 1.6437324 1.8001701 34
-1.6311011 1.5029066 1.8008312 77
-1.4618726 1.5623912 1.8012086 73
-1.2472039 1.5461707 1.8027196 72.5
-1.0989188 1.5896091 1.8028054 64
-0.96024209 1.5511254 1.8059591 17
-0.76546657 1.5815991 1.8072385 26
-0.6528396 1.5960737 1.8046832 31
-0.44189766 1.5553609 1.8124808 3
-1.9142021 1.6576289 1.8001918 31
-1.2192135 1.7223357 1.8088619 12
-1.1543323 1.7226286 1.8008188 69
-0.60022908 1.695703 1.8000139 13
-0.1118921 1.7282209 1.8152643 3
0.015428913 1.7738594 1.8220941 0
-1.0723891 1.8143256 1.8033468 64
-1.0139952 1.8084536 1.8028184 67
-0.36317813 1.8919375 1.8136106 1
-0.20316021 1.8428007 1.8127733 9.333333
-0.058069754 1.8693113 1.807655 17.333334
-1.3277981 1.9591324 1.8000773 0
-0.46893036 2.0946546 1.8048338 19
-0.24752906 2.0275152 1.8049455 24
-0.04123567 2.0172226 1.8103114 26
0.059579439 2.0292277 1.8046625 3.25
0.33758384 2.013644 1.8021039 51.5
-0.099601999 2.1288307 1.8017129 45
0.081203796 2.1659207 1.8109926 6.6666665
0.49538964 2.2210205 1.8963679 56
-0.24380827 2.3449893 1.800301 0
0.036105853 2.2765491 1.8065003 8
0.19053714 2.332438 1.8020879 7
0.36377609 2.3613267 1.8074099 5
0.54970455 2.3188214 1.8981779 56.799999
0.64568716 2.3824196 1.8983188 59.333332
0.18101035 2.4674315 1.8066032 8
0.42663559 2.4527102 1.832942 87
0.59735072 2.4792101 1.8963486 61
0.71632242 2.4564421 1.8953689 56
0.81409341 2.4964745 1.8933961 58
-2.9395661 2.5511651 1.8012322 18
0.53132874 2.6009235 1.8916107 61.666668
0.62446636 2.6644659 1.8867455 62.5
0.83146936 2.5781164 1.8900763 60
0.97709006 2.6264684 1.8917894 56.166668
1.1138769 2.6715972 1.8903615 51.75
0.55751145 2.7747526 1.885928 63
0.7114256 2.7432983 1.8836216 58
0.80699033 2.758038 1.8854517 62
1.1384778 2.7376547 1.8919336 52
1.2613668 2.7933891 1.8921143 51.166668
1.406315 2.7699413 1.8956844 48
1.603928 2.8009822 1.86208 28
0.58985919 2.91945 1.8860155 60
0.73897094 2.8872926 1.8857239 60
0.85174459 2.9176722 1.8829788 54.75
0.9837755 2.875608 1.88808 53.5
1.4317801 2.9094701 1.8949332 50.25
1.556627 2.9195762 1.8921427 44.5
1.6873393 2.9785428 1.8998624 53
1.8558177 2.9474308 1.9030925 49
2.1387367 2.9825547 1.9078499 7
0.81947094 3.0769937 1.8879894 65
0.98511493 3.0916891 1.8881516 56
1.125028 3.0653253 1.888886 51.5
1.2398642 3.0027573 1.8919743 53
1.4824213 3.1196356 1.8957621 54
1.7547309 3.0729375 1.8902485 49.5
1.86917 3.0580919 1.900081 49
2.0359421 3.0863016 1.896293 48.333332
2.1449509 3.1433816 1.8972327 49
1.1299522 3.2169573 1.8848076 52.5
1.2990198 3.2685289 1.8837041 52
1.4038153 3.1779156 1.8868541 47
1.7197613 3.2582684 1.8931653 52
2.0357888 3.2237799 1.887499 50.666668
2.3825102 3.2874832 1.8917772 7.5
0.68059015 3.3366451 1.8884019 26
1.3427889 3.374191 1.8871564 58
1.4153974 3.3434613 1.8828613 52
1.5467284 3.4350901 1.8849572 51
1.6653646 3.371994 1.8820287 52
2.0072074 3.3764648 1.8945158 48
2.3359087 3.4001427 1.8895073 46.333332
0.81713134 3.5070066 1.8721755 49.5
0.92270392 3.5122316 1.8786377 57
1.6353402 3.4861314 1.8830069 53.5
1.7005236 3.5118942 1.8766783 53.5
1.8525531 3.5820057 1.8826567 51
1.9823148 3.5411904 1.8792251 50
2.3185444 3.5560462 1.8912696 41
1.1603574 3.7149408 1.8771074 56.5
1.9995778 3.6808276 1.8827113 48.5
2.1909292 3.7296193 1.8837556 44
2.3337948 3.707031 1.8752462 41
2.6739311 3.6830902 1.8933362 28
0.89903039 3.7853825 1.8698932 57
1.002274 3.8057499 1.8707854 53
1.0641801 3.7598267 1.8660334 53
1.4927548 3.8944812 1.8744949 50
2.3314273 3.8401546 1.8761925 48.666668
2.4358809 3.8651216 1.8723773 40
2.6229393 3.874022 1.8842442 37.5
2.7407799 3.893255 1.8833405 35
1.0008826 3.9793396 1.8657852 54.5
1.412995 3.9933755 1.8707111 52.5
2.8374076 4.0268569 1.8692924 19
1.1917145 4.0531459 1.8699538 55
1.3068831 4.1379576 1.8627577 51
1.7824099 4.1850967 1.8665556 49
1.8254383 4.0930429 1.8727421 52
2.7794521 4.1070361 1.8799011 58
0.35657626 4.3216209 1.8058108 1
1.1092728 4.2015152 1.8648399 51
1.3765509 4.3056111 1.8607014 45
1.52336 4.3213868 1.858893 52
1.751996 4.29526 1.8542963 43
2.2034707 4.3117175 1.8799335 58
0.55249244 4.4074235 1.8442031 1
1.4856429 4.4840131 1.8691534 74
1.6405809 4.4547243 1.8592769 52
1.7305393 4.4441543 1.8645028 47
2.1854725 4.4472127 1.8708659 37
1.7522092 4.5576167 1.8465902 37
1.8864739 4.5737906 1.8301748 13
2.1792486 4.5966749 1.8505174 62
2.6189735 4.5240264 1.8830744 36
2.6089532 4.6660795 1.8488809 0
