# .PCD v0.7 - Point Cloud Data file format
VERSION 0.7
FIELDS x y z intensity
SIZE 4 4 4 4
TYPE F F F F
COUNT 1 1 1 1
WIDTH 184
HEIGHT 1
VIEWPOINT 0 0 0 1 0 0 0
POINTS 184
DATA ascii
-0.37939894 4.2562008 -0.90966171 2
-0.32815063 4.3741941 -0.9123041 2
-0.34227178 4.6141624 -0.90826905 13
-0.27741656 4.5022149 -0.91386163 6
1.3555425 4.7651501 -0.90230232 10
3.1948419 -1.8459892 -0.76464164 5
2.6354277 -1.6477144 -0.76519203 7
2.1871605 -1.4527534 -0.77473128 0
2.7671905 -1.3981913 -0.77121502 8
1.9835196 -1.3037291 -0.77670765 6
2.2131798 -1.294222 -0.77753347 6
2.3452451 -1.2784107 -0.77612996 6
2.9755852 -1.2040213 -0.7695899 8
2.0467713 -1.1377816 -0.78248912 4.6666665
2.504952 -1.0813451 -0.78099281 8
2.1273439 -0.9906435 -0.78280753 3
2.7388613 -0.9227677 -0.78204054 7
2.2984772 -0.82534313 -0.78648776 5
3.530859 -0.80897051 -0.77505994 8
2.5304499 -0.68179631 -0.7869553 4
2.3761067 -0.47880504 -0.79209822 4
3.3085091 -0.52634561 -0.78103036 9
2.254812 -0.30013588 -0.79555076 5
3.1827502 -0.28088301 -0.78876036 8
3.5117328 -0.031320296 -0.77428925 1
3.5385265 0.097124539 -0.75359803 0
3.502157 0.46743289 -0.786798 5
3.4701693 0.71520537 -0.77620763 0
1.1596347 2.2137752 -0.86134112 8
1.2190967 2.103724 -0.85067314 8
-0.0090867756 2.3754945 -0.79621023 4
0.016287904 2.3197262 -0.80634254 5
0.63919121 2.3814056 -0.85860336 7
0.80040783 2.3991175 -0.86033893 11
1.3213218 2.3117113 -0.85356277 7
1.4941097 2.2614682 -0.85763448 7
-0.027769703 2.4369566 -0.84009904 2.5
0.56876063 2.4830322 -0.85309124 4
1.1840199 2.5265248 -0.76268721 0
1.3863248 2.486146 -0.86037064 6.5
0.95161802 2.5943413 -0.85352564 6
1.3865216 2.6309853 -0.85951179 7.5
0.68373406 2.7525747 -0.86599666 6
1.2578648 2.7253971 -0.84289002 5
-0.11879675 2.8887789 -0.82846826 0
0.68461496 2.9192789 -0.86999327 6
1.4612882 2.8855033 -0.86192411 7
1.701165 2.8627689 -0.86013126 5
-0.1840021 3.05212 -0.88033307 11
0.70455426 3.0867267 -0.87121433 7
0.89530331 3.0730174 -0.87226725 7
1.4529122 3.0893586 -0.82681537 1
1.5641078 3.1364985 -0.84789985 0
-0.16784935 3.2898154 -0.8720324 11
-0.097675823 3.1907756 -0.87268633 1.3333334
1.4038112 3.1746421 -0.80028814 66
1.6850363 4.0201778 -0.89454645 3
2.1083083 3.9177737 -0.8813436 9
-0.28840867 4.1374712 -0.88935685 2
0.077103809 4.1407914 -0.85407048 11
-0.23496516 4.2599258 -0.87844014 1
1.0617306 4.2013083 -0.89390957 8
3.1383319 4.2076311 -0.78062624 3
-0.31244409 4.4009428 -0.89692533 7
-0.37624109 4.6688695 -0.8964355 14
-0.23042664 4.6915674 -0.78911698 6.5
1.7595944 4.8994155 -0.79731554 8
1.8139875 4.8836699 -0.77361977 73
2.0558634 4.810081 -0.89801514 1
3.1919138 -2.005022 -0.60284901 51
3.7186296 -1.670229 -0.63068432 62
3.6622815 -1.1141044 -0.64640617 76.5
3.6389303 -0.84801531 -0.69042265 10
3.619122 -0.68350387 -0.62126648 46
3.6045673 -0.53695697 -0.62128061 99
3.5943666 -0.44333562 -0.64050192 39
3.5730977 -0.24953747 -0.65101844 96.5
2.2818186 -0.04696662 -0.68398756 5
3.5443339 -0.051097814 -0.67022741 85
1.8533909 0.097954519 -0.63089871 2
3.5457468 0.022544308 -0.65666735 87
2.2121525 0.28691787 -0.68007857 0
3.5015597 0.37926018 -0.71799266 115
1.9902461 0.57480407 -0.63367659 50
3.484704 0.52524656 -0.69175172 52.5
3.4754727 0.66263205 -0.68230218 86
0.034569215 1.9026697 -0.61174655 5
0.020617347 2.0225673 -0.64863116 4
-0.0068454174 2.1954253 -0.70661813 4
0.0044686915 2.1601651 -0.69655585 3
-0.020337034 2.3336806 -0.69083345 4
-0.049338121 2.471101 -0.61933929 2
1.4695963 2.4692988 -0.72433215 3
0.76928836 2.6162179 -0.74896598 5
-0.095753469 3.0273814 -0.69894671 6
1.330328 3.2160792 -0.7487824 46
1.3815598 3.2148938 -0.68422222 37
1.9104538 3.4860206 -0.74260044 7
-0.60071409 4.0491071 -0.65143549 85
-0.6068657 4.0524745 -0.70986885 96
-0.54069746 4.0723119 -0.68628317 41.5
-0.019551773 4.1753182 -0.62756115 0
3.1378849 4.2754049 -0.63373995 3
-0.85110933 4.6314402 -0.62077993 46
-0.28988594 4.6169133 -0.63046724 75
-0.25402901 4.685781 -0.71548742 37.5
-0.14264984 4.7106075 -0.73326713 28
1.7363281 4.8887477 -0.71282452 88
1.8636544 4.8865509 -0.71055549 83
2.4661016 4.9581218 -0.72357458 99
3.6837306 -1.9585748 -0.50653714 64.5
3.7224865 -1.7209487 -0.49610108 85
3.7032073 -1.647929 -0.51415288 45
3.6908438 -1.4118322 -0.56509858 82.666664
3.673058 -1.2557774 -0.47563219 84
3.6695004 -1.1872185 -0.55792457 82
3.650542 -0.97593373 -0.54589534 87
3.6249261 -0.7772795 -0.5250417 91
3.6310432 -0.7141875 -0.53350776 41
3.6037221 -0.5070709 -0.52888203 91.5
3.5670257 -0.30052388 -0.53981417 77
3.5728245 -0.2536909 -0.55767471 83
2.2067387 -0.056253653 -0.48399669 2
2.2668736 -0.030503366 -0.48502949 3
1.867327 0.10431153 -0.56259638 2.5
2.2205167 0.10277693 -0.48803824 12.5
2.2117119 0.25017667 -0.48797432 10.5
2.2610993 0.1599645 -0.54822844 25
1.7924461 0.44481075 -0.55174118 2
2.018055 0.36956114 -0.45302838 15
1.7860243 0.45621791 -0.47235551 2
1.9689827 0.5768007 -0.59212428 49
2.7446814 0.56512457 -0.57042986 0
3.4108541 0.59682935 -0.58467841 26
2.1956427 0.61571842 -0.51367277 19
2.2970252 0.61878777 -0.56691092 33
0.053814244 1.632337 -0.52565414 9
0.040782601 1.7255064 -0.51323497 7.3333335
0.016213866 2.0193217 -0.49238288 5.6666665
0.0029567152 2.1431155 -0.48324364 3.5
-0.016997654 2.3883941 -0.59043378 4
1.433479 2.3477032 -0.46805239 41.333332
-0.059954692 2.4961476 -0.47716591 2
0.57808822 2.4425263 -0.46359912 3
0.65282303 2.4670033 -0.50133127 22.5
0.82335836 2.4685087 -0.47890258 61
0.58490968 2.5831716 -0.46658608 87
-0.13754186 3.4373717 -0.59633273 0
-0.73765934 4.108377 -0.55868769 5
-0.4927898 4.1041088 -0.53912264 7
3.1543999 4.1214614 -0.51122618 3
-0.51766491 4.2221694 -0.48858482 28
0.1041436 4.3921208 -0.48676762 15
-1.1335534 4.6017237 -0.45212674 117
-0.91062069 4.6288762 -0.53450334 125
-0.84490526 4.6037636 -0.54439223 75.599998
-0.26308724 4.6300254 -0.48910266 86
-0.37777483 4.6763678 -0.52706516 88
3.2186303 -1.9868147 -0.44755593 46
3.7380216 -1.9591956 -0.42539924 80
3.695982 -1.5792218 -0.40170768 81
3.6975844 -1.466928 -0.43823078 87
3.6436999 -1.0094069 -0.41989931 80
3.5825641 -0.32842258 -0.42727154 84
2.2139642 -0.081361525 -0.41345471 2
2.0591664 0.053516142 -0.4216409 71
2.0257063 0.18574515 -0.42937979 37
2.0108974 0.31944048 -0.43444946 61
1.1569949 0.50448543 -0.41737822 6
1.7977788 0.51756138 -0.42137218 4.5
1.9957671 0.52381402 -0.43208364 36
0.067190304 1.415869 -0.44980493 7
0.049390476 1.7315699 -0.41126558 7
0.038775276 1.8568627 -0.43504053 5
-0.00534268 2.1880984 -0.43773019 3
1.3851242 2.3632283 -0.42309177 27.333334
-0.0726787 2.5141509 -0.43114567 3
0.58030009 2.4807537 -0.42736083 3
0.89713198 2.510946 -0.43894058 5
0.49526352 2.5970216 -0.42674202 0
1.7228391 2.9912555 -0.40301663 6
-0.1703736 3.5153844 -0.40979055 0
-0.53535485 4.2663856 -0.43345648 79
-1.0725076 4.6023226 -0.41626519 104
