# .PCD v0.7 - Point Cloud Data file format
VERSION 0.7
FIELDS x y z intensity
SIZE 4 4 4 4
TYPE F F F F
COUNT 1 1 1 1
WIDTH 1276
HEIGHT 1
VIEWPOINT 0 0 0 1 0 0 0
POINTS 1276
DATA ascii
1.0200948 -2.6528141 -0.16337706 19
2.1490657 -2.4729125 -0.16622315 86.333336
2.3135004 -2.3448632 -0.17602496 102
0.65834278 -2.1718473 -0.16596013 11
0.86895615 -2.2303498 -0.17726849 33
1.4552509 -2.1870081 -0.18252882 152
1.6360945 -2.1431375 -0.1539472 156
1.5195265 -2.0991886 -0.16984902 69
2.8238695 -1.7350268 -0.16209805 41
3.0636587 -1.589833 -0.15599835 35
3.3533828 -1.5014762 -0.19661185 59
3.2798634 -1.2316828 -0.17706448 24
3.1963401 -0.81000632 -0.16274738 73.5
3.1605954 -0.61633843 -0.19636288 69
-0.49905059 -0.51301146 -0.17006209 7.7142859
-0.42345348 -0.50211775 -0.16798055 7.5
3.02442 -0.0042607281 -0.16213034 34
1.2277231 0.2902616 -0.1635015 8
1.4911761 0.25835085 -0.18655995 7
1.5992754 0.15592973 -0.15031153 0
2.9941483 0.17582516 -0.17344671 86
1.3009499 0.40636989 -0.18783189 0
2.9598691 0.35695425 -0.17623338 81
-0.18655112 0.47363597 -0.15903586 6
-0.089605138 0.494553 -0.18077056 5.0999999
0.08088845 0.52348983 -0.16572294 3.8
0.23613115 0.55877465 -0.16751401 3.8333333
0.36766127 0.57416081 -0.16243038 3
0.47244096 0.58167362 -0.17458622 0
1.3526257 0.51601148 -0.17011391 1
0.42074823 0.60571378 -0.15627703 3
0.46163419 0.61047262 -0.18133914 4.5
0.83462089 0.68905973 -0.17226648 13.666667
1.0873076 0.73743415 -0.16621009 35
1.4516838 0.8158614 -0.15605828 40
2.5644395 0.80609167 -0.15410164 7
1.7525675 -2.5758138 -0.02570585 62.5
1.8536844 -2.5563536 -0.016290998 58
1.8688431 -2.4821672 -0.073392399 150
2.1936498 -2.4796422 -0.081447281 74
0.89820629 -2.3308344 -0.093758948 12
1.7402992 -2.3114879 -0.098439105 150
2.7915418 -2.3533735 -0.0208256 150
3.2353349 -2.2617471 -0.034164432 75
0.57915258 -2.2123871 -0.044837378 14.5
0.67035168 -2.1895168 -0.099965878 13
1.2691345 -2.1974525 -0.087696888 150
1.5814915 -2.105828 -0.13315018 84
1.7428551 -2.1854215 -0.14371377 162
2.9098334 -2.1695001 -0.13435757 42
3.3628414 -2.2429402 -0.023617541 60
2.8174014 -1.6893141 -0.087390982 95.5
3.3113852 -1.7154045 -0.052235905 150
3.0340624 -1.5883255 -0.14273499 36
3.359385 -1.5060296 -0.11529646 58
2.7135525 -1.373049 -0.087262429 7
3.3578246 -1.4898309 -0.042652402 33
3.3148246 -1.255273 -0.09523923 24
2.6521945 -1.0445504 -0.075876184 9
3.2423398 -1.0266876 -0.11626512 45.5
2.565011 -0.64053273 -0.081039764 16
-0.78868359 -0.56114787 -0.038430322 5.8333335
-0.68183917 -0.54653072 -0.062524304 7.8400002
-0.52808189 -0.51696062 -0.077412926 8.416667
-0.37808475 -0.48256689 -0.075798728 7.2758622
2.6793363 -0.49150285 -0.0030937241 35
3.1529222 -0.5756976 -0.076468833 13
-0.20237041 -0.43753716 -0.059143011 7
2.5173221 -0.31937763 -0.050265554 16
2.6001751 -0.35676306 -0.023595041 6
3.0892749 -0.37532642 -0.10855963 7.5
2.5012386 -0.18632768 -0.062294908 38
3.0741959 -0.187346 -0.13300943 75
2.4379508 -0.051512379 -0.068320788 72
2.8124521 -0.028003795 -0.063028552 9
1.1820418 0.14102396 -0.067432292 5
1.6980413 0.14703508 -0.10011721 3
2.4272132 0.090002961 -0.072041132 15
2.9249852 0.1398866 -0.064092942 7
3.0128074 0.0019667496 -0.14001086 12
1.1509303 0.23149522 -0.058971442 4.8000002
1.2456867 0.26804462 -0.087275006 21
1.4276927 0.20644295 -0.085156448 8.5
1.5028975 0.24011934 -0.073989019 6
1.7804434 0.17802572 -0.10652 4
2.994374 0.18446454 -0.14447534 88
-0.40070906 0.41471148 -0.094173104 5
1.1257658 0.37372315 -0.06797602 8.8000002
1.3090503 0.41271368 -0.088630639 15.75
1.3847247 0.36376774 -0.081239723 36.5
1.9191918 0.39296097 -0.07342843 4
2.0655499 0.33623958 -0.068371661 6
2.3412094 0.35064358 -0.047811978 20.5
2.9657187 0.34031317 -0.10310717 44
-0.20727681 0.46588376 -0.080166459 4.9285712
-0.067541413 0.49325085 -0.074125029 3.4000001
0.070514031 0.52128053 -0.064701326 3.4545455
0.22327854 0.55703872 -0.060197722 3.0625
0.36267546 0.5784989 -0.061794333 1.6875
0.48453075 0.58901179 -0.036997203 0
1.1071994 0.51827741 -0.065126583 12
1.3223815 0.58880782 -0.095639758 3.5
1.5141611 0.56253308 -0.084345736 3
1.7886584 0.59473896 -0.0716585 7
1.9293725 0.5133757 -0.066101857 14
2.9201019 0.54450107 -0.12864044 115
0.42716584 0.60237437 -0.047804553 1.5
0.48339155 0.61222893 -0.088824995 1.5714285
0.71462405 0.65920693 -0.02264527 0
0.82684267 0.68655789 -0.073917292 9.4285717
0.98834801 0.72140998 -0.059173383 18.25
1.1159209 0.67770648 -0.089759566 16.333334
1.3095918 0.66932559 -0.1191721 2
1.6309246 0.65768242 -0.076295651 6
1.8100011 0.63794732 -0.066931374 7
1.1420375 0.75392503 -0.14766903 26
1.2563754 0.77556819 -0.11617223 33
1.417544 0.79945773 -0.10623744 19.333334
2.1013553 0.83044583 -0.10488043 3
2.0143692 0.93890858 -0.11020362 29.333334
2.790452 0.91227752 -0.13153102 17
-1.6037997 3.9703839 -0.083725579 89
-1.6968092 4.27772 -0.0014163303 49
1.5442636 -2.589663 0.086013518 106
1.7396431 -2.5751061 0.010597065 61
1.8026459 -2.5652437 0.096369855 53
1.9932301 -2.525562 0.0071570231 63
2.52123 -2.4071622 0.079293214 70
2.6704035 -2.385272 0.14656383 69
2.9413731 -2.3302803 0.056703147 63
3.0650578 -2.3022549 0.10865629 62
0.50965238 -2.2307091 0.032750245 7
1.2945577 -2.1938505 0.045815542 153.66667
3.3706191 -2.2378318 0.080366328 57
2.2406952 -1.9549536 0.10313471 10.333333
3.4616222 -2.0264244 0.070917167 64
3.4297409 -1.9180576 0.059281047 62
3.4024377 -1.7413135 0.022463674 63
3.3428543 -1.5106442 0.069526695 71
3.2751875 -1.2027475 0.10092574 70
3.2680426 -1.1883016 0.098360531 68
3.2249613 -0.97904611 0.030587178 94
3.1017616 -0.7723 0.09685149 8
-0.52260095 -0.6470176 0.11935148 5.5
-0.39462516 -0.6485219 0.1292762 6.1999998
3.1714818 -0.74936682 0.094892405 66
-0.4854382 -0.53318119 0.013078357 8
-0.34623906 -0.56022477 0.048132714 10
2.6472623 -0.51724875 0.0069141937 24
2.7198598 -0.54813087 0.087134622 21
2.8965497 -0.56899709 0.14802992 24
-1.1078383 -0.36433092 0.13114917 0
2.8297923 -0.3965334 0.065364771 7
3.0983601 -0.39736083 0.14281106 73
3.0821345 -0.24614201 0.10420474 69.333336
3.0508921 -0.090921283 0.095254213 78.25
2.9915776 0.11727083 0.027657205 150
3.013792 0.065574072 0.096639246 70.333336
1.4736797 0.17191902 0.023445422 9
1.545467 0.18197943 0.088947974 4
2.9858809 0.21681854 0.10906179 50
-0.39716983 0.4178035 0.045868266 6
-0.25559103 0.4386031 0.067277946 3
-0.19585854 0.46357358 0.089068323 3.3225806
-0.077651069 0.48749012 0.071357198 3.0746269
0.067083783 0.52157426 0.048747797 3.1515152
0.22536173 0.56001598 0.035095528 2
0.37496448 0.58228099 0.031780198 0.875
0.4301407 0.6020022 0.034362759 0.5
0.48713207 0.61219889 0.0192711 0.33333334
0.73536879 0.66558373 0.052986171 1
0.82266629 0.68428648 0.06029639 11.714286
0.99869728 0.72080141 0.063839056 19.142857
1.1292627 0.74844939 0.065264158 30.5
1.1759682 0.7590217 0.076645643 26
1.2808675 0.77878982 0.081195436 26.4
1.4580983 0.81641752 0.057330247 33
1.5380834 0.8317517 0.058515009 24
1.7747152 0.88512123 0.12797433 22
-1.815962 3.8259556 0.095143721 6.5
-1.7467074 3.8115544 0.12041502 16
-1.6220764 4.023066 0.058733281 36
-1.6095952 4.0703998 0.038166132 7
-1.6634474 4.3982463 0.0090246154 19
-1.8387326 4.819356 0.088707514 39
1.1685641 -2.7032356 0.28628111 35.5
1.2821097 -2.6676166 0.21717012 59.333332
1.4179314 -2.6362023 0.18263045 45.75
2.0698371 -2.512481 0.28497601 54
2.2867665 -2.4640474 0.1813851 74
2.4988711 -2.4177473 0.24465829 73.333336
2.5635853 -2.4002166 0.29222077 61
2.8140726 -2.3544965 0.21470672 69
3.0627551 -2.3002253 0.20457575 59.5
3.2253897 -2.2710309 0.23571736 55
0.64109874 -2.1757007 0.25723886 10.5
3.3821962 -2.232645 0.1781261 58
3.4797153 -2.1820896 0.16500056 71
2.2468393 -1.9542856 0.17219919 10
3.3821394 -1.6993389 0.24521995 64
3.3233633 -1.4237001 0.18239787 67
3.2689514 -1.1716602 0.22367305 65
-1.0116501 -1.0246994 0.29074425 13
-0.82178777 -0.98447388 0.29566407 10
3.2227299 -0.97282827 0.23039675 61.400002
3.1973746 -0.80955064 0.2162554 71.5
-0.51100761 -0.67238146 0.20352036 3.6666667
-0.41291833 -0.65237522 0.19186552 3.5555556
2.7336948 -0.65139645 0.16132265 33
3.1665847 -0.68577158 0.2469157 51
-0.36104453 -0.58728379 0.28051493 2
-0.29491901 -0.55096394 0.24983016 2
3.0607121 -0.52889383 0.21105106 55
3.1504838 -0.57945341 0.28867084 20
3.0965354 -0.39065653 0.21516128 53
-1.2404259 -0.19408345 0.28383729 0
3.0767748 -0.22571309 0.24445365 67.75
-1.2639222 -0.14507252 0.26911288 0
-1.1109984 -0.061087646 0.23265672 0
3.0443969 -0.059079722 0.22444601 70.75
-0.97267932 0.028295845 0.29388434 0
1.7263479 0.12689464 0.28512323 1
3.009248 0.10362291 0.21191424 72.25
1.6253251 0.22774218 0.21343529 4
1.7334476 0.20946972 0.17607921 3
1.8187625 0.2287122 0.17476451 0
2.9800241 0.24667011 0.22093515 53.333332
-0.39638913 0.41526923 0.22215462 5
-0.26274809 0.44487089 0.21985537 3
2.9384408 0.40846583 0.29721332 40
-0.20570715 0.45950884 0.1857942 3.3333333
-0.14938994 0.47178546 0.16223258 3
0.99626034 0.71980166 0.15474194 24
1.0977612 0.74002254 0.23664686 23.5
1.2834787 0.78090781 0.22883141 21.333334
1.4555671 0.81783497 0.16840589 25
1.5901649 0.84459001 0.21539013 23.4
1.6860286 0.86523646 0.16624856 31
1.9348743 0.91853148 0.25634217 24
2.1732554 0.96823227 0.26067019 20
2.3024688 0.9924621 0.27948833 21
-1.7741139 3.8549213 0.16299415 11
-1.8379185 3.9749355 0.2086522 6
-1.7355906 3.9506238 0.17120361 36
-2.1370211 4.6992044 0.29790562 59
1.0438855 -2.7249458 0.30736452 64
0.9727006 -2.5692899 0.34160247 75
1.0522139 -2.5996652 0.34970921 22
0.72851217 -2.4485245 0.42008206 94.5
0.88624424 -2.4601138 0.32896703 12
1.1174469 -2.5072331 0.32542154 34.5
2.1939297 -2.4706936 0.32488567 54
2.3016348 -2.4454165 0.32609603 63.5
2.5297382 -2.4097075 0.32244131 67
0.69250095 -2.3309035 0.36887813 80
0.82164717 -2.3914204 0.41250452 23.5
1.7187588 -2.3820276 0.33933592 34
1.9615023 -2.3479686 0.34866381 52
2.1644919 -2.3185062 0.34154329 40.333332
2.7030525 -2.3714273 0.36671609 59
2.9525177 -2.3245256 0.30054528 60
0.66911578 -2.2113061 0.32186717 20
0.8759343 -2.2324295 0.32028747 70
1.3306957 -2.1452436 0.34967536 13
1.4803351 -2.1679652 0.38360262 16
1.5305872 -2.1003771 0.33786339 65
1.7466855 -2.19944 0.3371377 36
1.8240759 -2.2122083 0.33932668 17
2.119915 -2.1101511 0.33544701 42
3.3501978 -2.2498651 0.41606671 53
1.7066542 -2.0917282 0.3268311 76
1.8533602 -2.0640633 0.36784178 21
2.2304504 -1.9524542 0.41443563 7
3.4503658 -2.0491719 0.30142027 60
3.4266207 -1.9140636 0.39394888 58
3.3675628 -1.6126025 0.39491734 62
3.319339 -1.391584 0.33812055 63
3.2843535 -1.2687926 0.39478707 65.5
-1.7299402 -1.0662633 0.43917835 151
-1.5878958 -1.1444072 0.40706944 42.666668
-1.4170656 -1.1061099 0.38528857 21.799999
-1.2827213 -1.0822669 0.37257758 29.428572
-1.1491498 -1.0560694 0.36913165 14.5
3.2590156 -1.1320204 0.37822956 66
-1.6985947 -0.96711373 0.43766662 123
-1.0758371 -1.0364462 0.34594342 8.666667
-0.96231973 -1.0152053 0.40395179 8.4285717
-0.83790356 -0.9875192 0.36180973 8.5714283
-0.71645623 -0.95879519 0.38430977 8.5
3.2188938 -0.94861239 0.40098426 63.666668
3.1889088 -0.80537081 0.33041456 68.666664
-0.49343449 -0.62616801 0.37025887 2
-0.39826268 -0.60850924 0.36187586 3.5999999
3.1470895 -0.60338497 0.30827338 41
3.1742201 -0.73252004 0.3769401 70
-0.39736888 -0.59471786 0.36743 3.7142856
3.1340621 -0.5199669 0.40849224 66.666664
-1.2258466 -0.32647592 0.44272071 0
3.1054604 -0.35259214 0.36966166 65.333336
-1.2283213 -0.21099506 0.38962078 0
-1.1853981 -0.2071718 0.37618726 0
3.0731709 -0.2123033 0.35681915 62
-1.261218 -0.12387424 0.36471581 0
3.0493214 -0.099799216 0.37492093 62
3.0196075 0.055835441 0.35712528 64.666664
2.9857292 0.20912819 0.34681368 67
-0.40955079 0.4177472 0.4049184 2.5
2.9264231 0.49446365 0.39580122 65.666664
2.8914933 0.66039801 0.38211736 69.75
1.4106779 0.80596292 0.32761288 21
1.6868694 0.86390287 0.38354236 20
1.8175128 0.89104444 0.44327277 20
2.8482053 0.86874467 0.33130211 69
2.8627019 0.79987299 0.36008286 77
2.0104651 0.93227166 0.3155356 20
2.151576 0.9636327 0.39710176 20
2.8334494 0.94916821 0.35009935 68.5
2.7913218 1.0694956 0.38026986 72
-1.6166246 3.7398005 0.31965107 12
-1.5883137 3.8770187 0.32224768 12
-1.5914445 4.0160251 0.32441628 13
-2.4450803 4.6123815 0.38488355 87.5
-2.3917987 4.6626339 0.42378873 86
-2.1386616 4.7149682 0.36039582 57
1.746271 -2.5796504 0.58296853 65
1.8752749 -2.5511584 0.5317418 62
0.67009962 -2.4917223 0.4783482 42.5
1.851109 -2.4815311 0.49568999 112
2.0183315 -2.5187263 0.55952239 55.5
3.0504382 -2.3122098 0.49472463 58
3.2610555 -2.2690048 0.59333336 58
1.2738773 -2.1897259 0.52040184 141.33333
1.3599211 -2.2371566 0.48189837 162
3.4818192 -2.1816578 0.52669764 64.5
3.4157467 -1.8531584 0.53230494 56.666668
3.3840141 -1.7005073 0.57888037 57
3.358165 -1.572598 0.53300411 59
3.3241906 -1.4200244 0.52779788 60
3.286917 -1.278102 0.46442461 67
3.3079755 -1.3379204 0.58666885 70
-1.7250782 -1.1725422 0.53590125 38.666668
-1.5687634 -1.1418797 0.52527207 39.833332
-1.4049895 -1.1069005 0.51248723 29.4
-1.2773703 -1.0792873 0.48793682 39.400002
-1.135571 -1.0544653 0.53853863 17.333334
3.2559812 -1.1234097 0.50681621 65.333336
-1.6982844 -0.95428348 0.51551801 117.5
-1.6464142 -0.96157122 0.45726913 65
-1.0788901 -1.0414643 0.54165941 11
-0.96948546 -1.0138211 0.53004909 14.333333
-0.81822544 -0.97991186 0.52386224 4.25
-0.72745419 -0.9680382 0.46171471 5.5
3.2078211 -0.90610957 0.47300667 66
-1.8731428 -0.86587435 0.56269008 24.666666
-1.7483658 -0.88403559 0.53584552 30.5
3.1986246 -0.84892249 0.54050326 65
-0.45524141 -0.61240757 0.54793775 0
-0.36836132 -0.61639255 0.5684638 0
3.169836 -0.69839019 0.51117444 67
-1.2438555 -0.4545444 0.55763149 0
-0.39610207 -0.59879607 0.50374085 0
3.1367848 -0.54558468 0.56092596 69.5
-1.2687917 -0.36426699 0.5452311 0.60000002
3.1034887 -0.38956168 0.53875583 67.666664
-1.2377143 -0.23077938 0.52654099 1.25
3.0723803 -0.23684311 0.50603366 60.666668
-1.2649714 -0.090946689 0.50935274 7.7142859
3.0359735 -0.053545509 0.53415483 64
-1.4385102 0.032974191 0.46260417 0
2.9989927 0.13165198 0.58621907 60
3.0095754 0.067801088 0.483922 62.5
-2.0615461 0.23469298 0.57173145 49
2.9796331 0.23029809 0.50836831 45.666668
-2.0603311 0.37573478 0.56083828 57
-0.39921397 0.41875106 0.51217014 3.5999999
2.9213486 0.51301038 0.53948689 62.5
2.899508 0.63789469 0.49561131 66
2.8677037 0.78408164 0.47365737 71.666664
2.216969 0.97492796 0.52820855 17
2.834594 0.9285304 0.49590102 71
2.7989521 1.0726734 0.52458477 71.666664
-2.2148154 2.2697737 0.47194612 3
-2.7787302 4.5432458 0.53797108 85
-2.4249136 4.6389108 0.55465472 78.333336
-2.4095075 4.6578989 0.52264863 75
-2.3797388 4.6639252 0.50466341 85
0.70611274 -2.8044901 0.67459226 54
0.83139604 -2.7786436 0.66592908 74
1.3306336 -2.6537688 0.71741819 7
1.5126781 -2.6201668 0.68223917 110
1.7273501 -2.5837455 0.6431163 60.25
1.9095745 -2.5436635 0.65498435 61
2.3074367 -2.448081 0.74710882 51
2.5344255 -2.4117365 0.66051769 64
2.6905372 -2.3813102 0.74539232 54
2.7561631 -2.3732743 0.72661889 150
2.9664359 -2.3298564 0.66697729 60.5
3.0191054 -2.3172774 0.74935198 59
3.2439208 -2.2680402 0.65197963 53
1.2412598 -2.1566381 0.61287415 28
3.3692002 -2.2421186 0.72791624 50
3.4700165 -2.1262693 0.66742432 57.5
2.2535801 -1.9737439 0.61308432 10
3.4572785 -2.0625379 0.62540412 54
3.4248447 -1.9034373 0.70719242 56
3.3838322 -1.7162044 0.65120649 56
3.3495193 -1.5594103 0.69168645 56.5
3.3411825 -1.4956106 0.72907543 56
-1.8939441 -1.2090964 0.7219981 37
3.2929289 -1.270436 0.66528678 58
-1.7328299 -1.1761109 0.64577436 37.75
-1.5629263 -1.1414349 0.67853558 30.799999
-1.4509573 -1.116569 0.63714552 35
-1.2616986 -1.0775211 0.66842204 23.4
-1.1831592 -1.0621387 0.67554748 8
3.2543786 -1.1147621 0.66758662 59.333332
-1.6842229 -0.92629725 0.61901718 14.5
-1.6473247 -0.92924243 0.67631614 9
-1.1301475 -1.0412415 0.68318784 19
-1.0236872 -1.0225403 0.66585898 12.5
3.223774 -0.95846546 0.61837238 63
-1.8211722 -0.83775306 0.67750496 1
-1.7396317 -0.86215121 0.63623482 22.5
-1.6337774 -0.89153957 0.67362487 2
3.1989942 -0.8486383 0.71712571 58.5
-0.41867629 -0.60482186 0.65065575 0
3.1686695 -0.70495683 0.68355036 63.666668
-0.4145453 -0.59384161 0.70168167 0
3.1360939 -0.56536579 0.65336001 64.5
-1.2394953 -0.34092239 0.69628876 3.3333333
3.0984259 -0.37604851 0.70197517 63
-1.2488266 -0.25596392 0.66798288 6.8000002
-1.1736963 -0.29960874 0.73765016 5
3.0691788 -0.23419371 0.67366272 65
3.0409374 -0.094732516 0.65134037 61.5
3.0031621 0.087239221 0.67696297 57
-2.1010516 0.25465462 0.63628232 13
-2.027611 0.28324077 0.70132333 32.833332
-1.9410869 0.28165784 0.74588442 36
-2.0150487 0.36998776 0.67356217 27.5
2.948189 0.35162315 0.65852606 37
2.9245443 0.48301217 0.65895331 59
2.8847866 0.67539382 0.64910376 64.333336
2.8397136 0.88028151 0.69194686 68
2.8597486 0.79547006 0.62551343 72
2.433213 1.0190107 0.62493563 17
2.8244042 0.97206414 0.68428117 74
2.8024418 1.0596322 0.68153358 73
-1.9625088 3.91487 0.69420195 18
-3.1180437 4.4704413 0.74263108 89
-2.7400856 4.5498586 0.67726749 78.5
-2.6906824 4.5594697 0.68870091 79.75
-2.3053322 4.688364 0.69650561 74.5
-2.1722181 4.7086234 0.67821884 73.666664
0.68629831 -2.8188701 0.77594686 28
1.1658831 -2.6737621 0.83043265 58
1.2948968 -2.6428614 0.81511533 24
1.3999878 -2.6451921 0.76699495 52
0.87510592 -2.4653311 0.83457488 29.5
0.96883422 -2.4602258 0.83616143 16
1.1817997 -2.4982882 0.83080065 24
2.1025536 -2.4827864 0.83838296 49
2.5054302 -2.4234719 0.81065446 63
2.5596018 -2.4153171 0.86810017 59
0.70141989 -2.264235 0.82219213 123.5
0.78202218 -2.2682157 0.81917369 63
0.93692511 -2.334228 0.83091807 40
1.0589732 -2.325475 0.81727612 18
1.7668893 -2.3500791 0.85157025 25
1.9436245 -2.2817864 0.84462345 23
2.1608326 -2.3236756 0.84639776 27
2.2755997 -2.3979175 0.84541452 29
2.6295605 -2.3972788 0.89882457 61
2.7954712 -2.369272 0.86581147 150
2.8552048 -2.3525381 0.83788741 54
3.0697758 -2.30848 0.82838064 53.333332
3.3314338 -2.2535133 0.82074022 55
0.57624149 -2.202008 0.87241244 59
0.76319784 -2.2483103 0.8228817 66
1.4575434 -2.1989336 0.85063338 26
1.5182709 -2.1046114 0.83427465 51
1.6544909 -2.1693909 0.84321785 26
1.8442389 -2.1824241 0.8447659 34.25
2.0527601 -2.1855388 0.83653545 34
2.19226 -2.2360988 0.85538638 22
2.3691869 -2.2439613 0.86225736 150
3.4855604 -2.1955159 0.86873448 62.5
1.6094475 -2.0848751 0.84522796 30
1.7456441 -2.0996852 0.82822418 30
1.9115803 -2.0222518 0.85042119 150
2.1935065 -2.0279639 0.85083991 36
3.4635003 -2.0767143 0.78540075 57
3.432112 -1.9491916 0.81937516 60
3.3938463 -1.7588438 0.82666701 50.333332
3.3248768 -1.4354655 0.81752652 51.333332
-2.1159537 -1.2556268 0.88897443 54
-1.987293 -1.2223619 0.88737237 26
-1.8783499 -1.2060597 0.75363386 38
3.2844083 -1.2250434 0.88546038 55
3.3007433 -1.2871151 0.77812171 60
-1.8243147 -1.1963934 0.79966038 28.333334
-1.7324793 -1.1729501 0.84214729 28
-1.5679586 -1.1409018 0.80335128 19.5
-1.3829129 -1.0990813 0.82353842 9
-1.1602948 -1.0517401 0.77876449 2
3.2608199 -1.1168845 0.84605038 53.5
-1.8724141 -0.90862739 0.81208897 0
-0.78343314 -0.98527408 0.84511274 2
-0.70821482 -0.96786815 0.83257169 2.6666667
3.22367 -0.977588 0.78444004 55.333332
-1.8388273 -0.86052531 0.76805413 1
3.1781347 -0.75411445 0.87809932 54
3.1451807 -0.60475999 0.82662761 56
3.1150849 -0.46021053 0.78301001 61
-1.2109035 -0.33909303 0.76355624 6
-1.1570513 -0.38582826 0.80370378 0.40000001
-1.2316918 -0.22443366 0.81984138 2.3333333
-1.1631169 -0.24929902 0.82213151 3.5
-1.9747047 0.35738847 0.76954812 19.333334
-1.9235309 0.32788005 0.82607824 22.200001
-2.0055802 4.0521512 0.83972371 36
-1.6035206 4.0619287 0.75013983 32
-3.0462096 4.4873848 0.858473 87
-2.7104478 4.5592799 0.80119061 80.5
-2.6347244 4.5694208 0.85746765 75
-2.4484262 4.6208124 0.87076473 75.5
-2.3097908 4.6796503 0.77599204 85
2.5726187 -2.4206395 0.91829562 57
1.5941032 -2.2854354 0.97262931 15
2.8032165 -2.365416 0.95762795 70.5
2.958117 -2.3310502 1.0115945 52
3.0189242 -2.3193798 0.95471275 54
3.2417214 -2.2724206 0.9654727 55
1.2611719 -2.1471012 0.90011537 131
3.4802809 -2.1931908 0.97337723 64
3.4457366 -2.0191934 0.96493077 53
3.4189985 -1.8960764 0.99972999 50
3.3822327 -1.7114533 0.96983218 49.666668
3.3499475 -1.5510983 0.96358812 49
3.3271074 -1.4287019 0.99165452 50
-2.3214016 -1.3067749 0.98491597 20
-1.9669826 -1.2263863 0.99597991 6
3.295857 -1.2596341 0.9205364 52
3.3098121 -1.3336265 0.93161273 50
-1.8261895 -1.1967348 0.94841266 16
-1.7882147 -1.1918728 0.96984196 8
-1.5629865 -1.1400862 0.91186535 6
3.2475569 -1.0692167 1.0049692 48
-0.96718973 -1.0189736 1.016341 9
-0.84536099 -0.99346161 0.97866088 14.833333
-0.63529617 -0.94895726 0.96951795 32.666668
3.2139478 -0.90827405 0.93742454 51
-0.37733448 0.3747001 1.0262678 1
-1.7163082 4.1681805 0.93516964 28.5
-3.4892106 4.4055104 0.96296299 92
-3.3974299 4.4175925 1.0469117 90
-3.0286965 4.4906073 0.99490297 79.75
-3.0251083 4.5028038 0.9344753 86
-2.606246 4.5794201 0.98212409 72
-2.5251839 4.5949078 0.9367196 73
0.87371492 -2.7648973 1.1623074 99.333336
0.99781686 -2.7424188 1.1341668 68
1.1109084 -2.6846302 1.0781844 150
1.7574927 -2.5791819 1.1812887 61
1.8034091 -2.5751436 1.1797007 75
1.7728713 -2.5033092 1.127382 60
1.881351 -2.5465102 1.1917135 61
1.9619061 -2.5353093 1.106438 64.5
2.2003942 -2.4798377 1.1611828 56
2.5217555 -2.4260826 1.1728481 56
2.7900362 -2.3741288 1.1718011 150
2.9065304 -2.3295462 1.1885375 48
3.0056446 -2.3245964 1.1027356 53
3.2035799 -2.2771704 1.1683741 52
3.4325595 -2.2309036 1.1078639 56
3.4754479 -2.1676903 1.1193905 56
3.4472914 -2.0244386 1.1781834 53
3.4645047 -2.0908048 1.1748196 52
3.4275107 -1.9081771 1.0987993 51
3.3852944 -1.6813164 1.1197464 54.5
3.3622246 -1.6039577 1.089709 46
3.3243425 -1.4126711 1.1740239 50
3.2889438 -1.2379242 1.0850397 50
-1.1899408 -1.0592492 1.1513584 8
-0.98218578 -1.0202504 1.1620336 24
-0.8804267 -1.0025737 1.1953498 25
-0.68115085 -0.95832747 1.1456314 31
-0.59805739 -0.92993861 1.1728958 68
-0.30132434 -0.86527008 1.1989006 0
-3.3991292 4.4161925 1.1365564 83.75
-2.9715655 4.5007234 1.0746151 75
-2.7856805 4.5427032 1.1101737 77.666664
-2.5747361 4.5865574 1.1097198 78
-2.1755068 4.709856 1.1731741 83
-2.0269604 4.7467008 1.1557684 73
0.73723733 -2.8035352 1.2897184 68.5
0.85048926 -2.7793438 1.2847552 65
0.98573858 -2.7505035 1.2017571 64
1.4295552 -2.6564682 1.3469007 68
1.5771663 -2.6179671 1.2969706 72.199997
1.6937059 -2.5930226 1.2555841 62
1.8689325 -2.5520222 1.2989591 51
2.0325639 -2.5200081 1.2285838 53
2.3195539 -2.4551549 1.2556208 51
2.4513931 -2.4364595 1.3262451 51
2.5975595 -2.4074349 1.2927668 49.5
2.6905551 -2.3752434 1.2532934 46
2.7722502 -2.3678536 1.3036582 48
2.9472253 -2.3324571 1.2531018 51
3.0738494 -2.3078191 1.2925133 49.333332
3.3162775 -2.2612984 1.307012 52
3.4034348 -2.2357078 1.298562 52.5
3.4717937 -2.1394696 1.2381995 54
3.4714022 -2.0972784 1.3460563 56
3.417804 -1.8621435 1.2287163 52.666668
3.3593466 -1.5952849 1.2730989 52
-1.4082533 -1.1157138 1.3249922 6
-1.1875178 -1.0585752 1.2857516 19
-1.0238199 -1.0313373 1.2165854 25.5
-0.84634632 -0.99517888 1.3087437 23
-0.69989306 -0.965734 1.2105467 28
-0.29554796 -0.86913925 1.2837968 21
-0.40047771 0.39304805 1.3246025 2
-3.8059931 4.3384895 1.3038702 89.5
-3.3503304 4.4261847 1.2701589 84
-3.1111381 4.485455 1.2962078 91
-2.8983679 4.5283217 1.2520374 81.333336
-2.5869374 4.5844612 1.2300868 82
-2.1978087 4.7019811 1.3085324 80.5
0.79775721 -2.7924404 1.3519996 70
1.3282348 -2.6779237 1.4502999 38
1.4321777 -2.6559188 1.4283044 38.799999
1.5688654 -2.6142654 1.4179907 41.5
1.7127221 -2.5837517 1.375249 62
1.9823451 -2.5269308 1.4578331 55
2.1911185 -2.4857709 1.4318062 48.75
2.3364754 -2.4546614 1.4492527 48.5
2.4733055 -2.4325781 1.4373257 46.75
2.6379421 -2.4011045 1.4483145 49
2.6827698 -2.3839777 1.4055835 45
2.7882152 -2.3608363 1.4210207 47.5
2.9035444 -2.3393416 1.4064409 49.333332
3.1091943 -2.3045697 1.4630914 51
3.1874721 -2.2800291 1.3653461 50
3.3547587 -2.2529306 1.4470948 47
3.4693336 -2.1815753 1.4497361 55
3.4468658 -2.0218143 1.3541842 53
3.4052019 -1.7933115 1.391889 51
-1.5369048 -1.1425877 1.4194559 7
-1.4110016 -1.102452 1.44815 19
-1.1491026 -1.0564451 1.4491013 27.666666
-1.0713936 -1.0391123 1.4389997 28
-1.0284963 -1.0326455 1.4559345 30
-0.79110527 -0.98450595 1.3907143 30.666666
-0.70873022 -0.9665451 1.4038094 30.333334
-0.52173787 -0.92607307 1.4579976 30
-0.36523205 -0.89177054 1.4323665 20.799999
-0.2818805 -0.86650044 1.4874889 11
-2.6578453 0.13378185 1.4559218 17
-2.5795093 0.19537693 1.4714899 13.5
-2.4869194 0.23037156 1.488476 13.5
-2.2980733 0.42984509 1.4492722 3
-4.3113322 4.2338223 1.4476082 87
-3.7689111 4.3414412 1.4029905 85.333336
-3.7178895 4.3358274 1.4538056 88
-3.2055981 4.4592009 1.4359975 84
-3.1258278 4.4793668 1.3538029 80
-2.9408724 4.5191913 1.4649274 89
-2.5447209 4.5910969 1.3759311 73
-2.412281 4.6683955 1.4325579 76
-2.2875166 4.6841111 1.3754246 73.5
-2.1844921 4.7111416 1.4366097 6
1.2654408 -2.6951504 1.5641423 22.5
1.8324063 -2.5591278 1.5711356 55
1.9289341 -2.5463371 1.5996243 56
2.0593932 -2.5201917 1.5742626 50.599998
2.1771703 -2.4966564 1.6008652 52.5
2.3066649 -2.4711826 1.5810223 47.599998
2.4729128 -2.4373817 1.560065 50
2.5550408 -2.4062452 1.5391768 46
2.6811893 -2.3836513 1.5511305 52
2.7702699 -2.3692846 1.6001436 46
2.9336934 -2.3353395 1.5373461 50
3.2021554 -2.2762983 1.5206378 48
3.4425938 -1.9984249 1.5212538 49
-1.949118 -1.2205268 1.635516 0
-1.6638205 -1.171684 1.5188229 7.5
-1.4111549 -1.1039865 1.5549411 19
-1.2374918 -1.0792958 1.522248 28
-0.98470271 -1.0264101 1.5803187 24.5
-0.64086235 -0.96148717 1.5646002 26.5
-0.48363993 -0.9104985 1.5001519 26
-0.43628001 -0.90674734 1.5743858 22
-0.32600117 -0.88272029 1.5686779 17
-0.26818421 -0.87797493 1.6134037 7
-2.5642188 0.026540248 1.5668902 15
-2.4299359 0.25727287 1.5063251 18
-2.3630114 0.26169425 1.5283408 13
-2.2617807 0.31779867 1.5297741 8
-0.42555892 0.39418951 1.5652354 2
-4.2268648 4.2526169 1.5641928 51.5
-4.1604939 4.2580667 1.6429402 88
-3.7078586 4.347805 1.5502092 92
-3.7197871 4.3504405 1.5569054 92
-3.4885995 4.4078188 1.5758808 90.5
-3.2296987 4.4477935 1.5889932 94
-2.8887668 4.5251489 1.6152128 79
-2.5898113 4.5910668 1.6102333 75.5
-2.5027814 4.6022081 1.5265567 78
1.038874 -2.7255147 1.708191 4
1.162722 -2.7235382 1.6913837 6
1.74433 -2.5867496 1.7464404 55.166668
1.8717356 -2.5590911 1.7067164 48.5
1.9350951 -2.5466738 1.6505784 49
2.0248139 -2.5264988 1.7368137 50.75
2.2001057 -2.4895117 1.7287074 45.666668
2.3958583 -2.4471891 1.7106818 44
2.4170451 -2.4503138 1.7973403 51
2.5883231 -2.4084005 1.7015902 47.5
2.7951407 -2.362855 1.7163643 49
2.9977858 -2.3116019 1.6858634 45
3.2361925 -2.2700212 1.6763092 46
3.4729092 -2.2115293 1.6650988 57
-1.9922556 -1.2350996 1.7948295 16
-1.737308 -1.1890546 1.736698 20
-1.6339377 -1.1625507 1.6518642 19
-1.3937026 -1.1072164 1.7082784 22
-0.93514353 -1.0187962 1.6794028 26
-0.83740449 -0.99561369 1.6767194 27.5
-0.65101105 -0.95142221 1.7387409 29.5
-0.54233748 -0.9357751 1.7168612 26.5
-0.38264424 -0.90751559 1.707641 22
-0.36599827 -0.88972569 1.7099514 19.5
-0.44010535 0.33401245 1.7738875 3
-4.4062152 3.8760622 1.7353901 77
-4.3305221 3.8844209 1.7842187 90
-3.8545458 3.9888177 1.6971736 65.5
-3.6488478 4.0312672 1.7376941 86
-4.7832856 4.1293192 1.7219473 27
-3.9792995 4.0859399 1.737311 27
-3.7100449 4.1016684 1.6989306 24
-3.4042096 4.1210785 1.7289392 45
-3.0722108 4.1763411 1.7359399 58
-4.2216253 4.2500472 1.6581146 66
-4.1422472 4.2536316 1.7203382 36
-2.7508578 4.2186937 1.7265694 75
-2.6257014 4.233995 1.7530111 75
-3.6510377 4.3545046 1.6993805 84
-3.5174117 4.3932419 1.7009404 58.5
-3.307266 4.4269271 1.7098218 68
-2.0324399 4.3586564 1.7793392 77
-1.7803556 4.4304395 1.785174 84
-2.7904644 4.5394878 1.7383457 48.666668
-2.4761577 4.6168265 1.6593972 84
-2.2067742 4.677444 1.7973229 4
1.0426126 -2.7504461 1.8240484 0
0.84313637 -2.6014328 1.820063 5
1.5799317 -2.5947437 1.8269256 69.25
1.6650681 -2.5810575 1.831636 63
1.8739254 -2.5579824 1.8276206 65.5
1.1325854 -2.4184856 1.8270767 54.5
1.311358 -2.4802477 1.8367335 59.333332
1.4114529 -2.472017 1.8314492 56
1.5852426 -2.4805405 1.8435473 51.666668
1.7367686 -2.4437802 1.8426075 51.5
1.84886 -2.4696138 1.8441107 49
2.031168 -2.4809585 1.8462983 54
2.2374151 -2.4856491 1.846939 50
0.72539502 -2.251544 1.8307883 57
0.98156297 -2.3035593 1.8326548 55.75
1.0837548 -2.31371 1.8432623 56
1.2330467 -2.3506801 1.8360865 52.799999
1.4153128 -2.3193235 1.8403629 53.5
1.579164 -2.3612578 1.8379502 49.5
0.55084509 -2.1447847 1.8239499 68
0.62861341 -2.1103725 1.8268915 56
0.82905275 -2.1786413 1.8378599 59.599998
0.95399362 -2.1832194 1.8416214 58.200001
1.1097946 -2.1725976 1.8423053 53
1.2219748 -2.2221518 1.8405458 37
0.54659611 -1.9953654 1.8357893 64.199997
0.6880033 -2.0362368 1.8361928 64.444443
0.84253317 -2.0678697 1.8360831 58
0.91707224 -2.045085 1.8456768 60.5
0.41579697 -1.8955892 1.8339876 47
0.50264728 -1.8768806 1.8365047 69
0.63077706 -1.8407385 1.8389332 69.5
0.76690131 -1.9418341 1.8420669 62
-3.749217 -1.7685943 1.8182532 2
0.37696037 -1.7437561 1.8374729 67
0.50849259 -1.7452197 1.8412316 73
-3.3173287 -1.5354744 1.8317658 0
0.36473551 -1.5789268 1.8318839 77
0.22816201 -1.4392682 1.8372453 86
-2.3261266 -1.2431629 1.8236475 14
-2.2409925 -1.2066942 1.8223256 19
-1.8637888 -1.2039752 1.8263716 48
-2.4626575 -1.134877 1.8254977 25
-2.3145597 -1.0637079 1.8297123 41
-2.1457069 -1.1232749 1.8218471 42
-2.058733 -1.056152 1.8225237 63
-1.8987789 -1.1294911 1.8250986 58.666668
-1.7375212 -1.110112 1.8284929 73.5
-1.6152894 -1.0808246 1.8256892 73
-1.407295 -1.0903153 1.8263695 72
-1.2691753 -1.0892154 1.8133496 49.666668
-2.4891899 -0.91622525 1.8184592 48.5
-2.3327498 -0.99113178 1.8211591 51.5
-2.1840763 -0.91849363 1.8207041 61
-1.9749976 -0.97998351 1.8264579 69
-1.8557868 -0.95813286 1.8300139 64.5
-1.6999558 -0.9300667 1.8271862 70
-1.5430362 -1.0353332 1.8283261 69
-1.434459 -0.95086211 1.8314956 72
-1.2998056 -0.93925977 1.8357661 69.5
-1.100597 -0.99737507 1.8313922 85
-0.95963126 -0.94752985 1.8342454 95.25
-0.82917321 -0.96187341 1.8322908 75.5
-0.66138113 -0.924483 1.8223941 83
-0.51034826 -0.92308319 1.8210429 61.5
-2.4202876 -0.79183829 1.8357018 12
-2.3216639 -0.81351244 1.8252927 34.5
-2.0540576 -0.84083146 1.8226813 7.5
-1.8662455 -0.87280625 1.8323823 67
-1.7782754 -0.77009457 1.8278328 78
-1.5419115 -0.8243081 1.8310498 70.333336
-1.4244332 -0.79004437 1.8333888 69.5
-1.2951144 -0.82069629 1.8367695 73.666664
-1.0987616 -0.84078163 1.8358027 90.333336
-0.96594572 -0.80687636 1.8317105 85.5
-0.78592587 -0.83931851 1.8311597 86
-0.65979588 -0.81438178 1.8310912 83.14286
-0.52205676 -0.82161772 1.8310384 79
-0.3742184 -0.84173191 1.8282726 65.285713
-0.29640689 -0.79936659 1.8305289 58
-1.702265 -0.7374751 1.8319253 71
-1.5895019 -0.70411897 1.832715 72.5
-1.4103957 -0.63691908 1.8371009 72.5
-1.2536248 -0.74172509 1.8341609 83
-1.1211187 -0.70482361 1.8368924 92.5
-0.96425408 -0.66168791 1.8322811 77
-0.8223502 -0.67399395 1.8302038 83.400002
-0.65585726 -0.66783738 1.8322637 83.333336
-0.5199157 -0.66703397 1.8322757 78.666664
-0.38736206 -0.67968464 1.8323065 75.285713
-0.28801033 -0.63057554 1.8322359 44
-1.6955661 -0.56012094 1.8287156 72
-1.5524601 -0.53725523 1.8356643 71.666664
-1.4088712 -0.49247789 1.8397822 77.666664
-1.2649783 -0.52349401 1.8307253 77.25
-1.14035 -0.53885043 1.8307459 69.5
-0.99412829 -0.53637528 1.8335342 77.75
-0.81827831 -0.51859063 1.831455 82.800003
-0.67488581 -0.52318937 1.8315108 82
-0.52646548 -0.50824976 1.8330008 82.333336
-0.37404877 -0.52417558 1.8334696 76.25
-2.4474037 -0.37840888 1.8327147 68
-2.3152294 -0.33365875 1.8192816 72
-2.1874611 -0.30609664 1.820022 85
-1.7250435 -0.39697856 1.8317713 79.5
-1.5770451 -0.38221005 1.8362683 80
-1.4253534 -0.34562424 1.837993 86
-1.3072469 -0.31570894 1.8378855 91
-1.1293141 -0.36395922 1.8328605 79.5
-0.98208582 -0.39735046 1.8349144 79.400002
-0.82179701 -0.36493453 1.8317138 79.14286
-0.68290341 -0.37074095 1.8340687 79.699997
-0.53604937 -0.3775202 1.8357176 76.75
-0.40169019 -0.37851143 1.8366023 74.75
-2.459384 -0.17631625 1.8347119 75
-2.3618183 -0.27219576 1.8344363 73
-2.1072328 -0.29220951 1.8243035 75
-2.0457621 -0.23774233 1.8342556 77
-1.8862408 -0.2129622 1.8365043 81.666664
-1.7469211 -0.23259515 1.8309648 78.5
-1.5956483 -0.22774959 1.8350345 82.333336
-1.4198656 -0.19142826 1.8402064 93
-1.2393082 -0.22273771 1.8310164 75.333336
-1.1049865 -0.20779037 1.8340312 79.333336
-0.95628744 -0.22331707 1.8333683 83
-0.81239784 -0.2096623 1.8351232 77.285713
-0.68054008 -0.24197643 1.8356904 78.714287
-0.53605491 -0.22548413 1.8415679 76.85714
-0.42669544 -0.22066796 1.8422871 74.666664
-2.5677302 -0.057660736 1.8350462 71
-2.347044 -0.11423975 1.8273593 75.333336
-2.1504936 -0.081789918 1.8299018 81
-2.0132108 -0.096487567 1.8332273 75
-1.8727767 -0.047663972 1.8395274 76.75
-1.6954722 -0.087220013 1.8313978 78.5
-1.5843959 -0.060946867 1.8388249 78
-1.4289242 -0.047292959 1.8414158 94.25
-1.2575393 -0.089879327 1.8361806 80.333336
-1.1164895 -0.079735108 1.8376498 82
-0.99349928 -0.064271159 1.8358752 83.400002
-0.80894256 -0.070057809 1.8362929 81.875
-0.68431997 -0.086424664 1.8383055 78
-0.54334539 -0.061826903 1.8396684 77.714287
-0.43395761 -0.070029862 1.8389565 76
-2.7678828 0.084001303 1.8232726 64
-2.6765144 0.087274879 1.8323985 48
-2.467489 0.024607223 1.8370889 74
-2.3695991 0.085150264 1.8421293 54.333332
-2.197175 0.063378125 1.8285234 83
-2.0210474 0.084429547 1.8364028 77
-1.8544096 0.10858247 1.8384886 75.333336
-1.711401 0.06887079 1.832857 74.5
-1.5892842 0.096437484 1.8395143 77.5
-1.4254023 0.0792218 1.8440338 85.666664
-1.2617828 0.069622584 1.835629 83.5
-1.1196562 0.071184881 1.8383818 83.5
-0.99481905 0.085748687 1.8385834 82.599998
-0.82563895 0.07849279 1.8372604 80.181816
-0.67215228 0.071075469 1.8391342 79.5
-0.5397228 0.076001324 1.8403276 82
-0.44448027 0.049933821 1.8361037 83.5
-4.1220531 0.2376661 1.8228487 72
-3.803201 0.26581621 1.8400344 82
-2.4357576 0.25515392 1.8302695 75.5
-2.3117387 0.27722892 1.8301595 81
-2.1382508 0.21269719 1.8280092 88
-2.024791 0.26746073 1.8404511 82
-1.8745089 0.23270899 1.8394513 78.333336
-1.7232218 0.22820015 1.8336902 76
-1.5901306 0.2569719 1.8428539 70.5
-1.4323061 0.20475131 1.8460892 78.5
-1.2775593 0.2306118 1.8479457 54.666668
-1.1091251 0.23941284 1.8405465 82.25
-0.99012876 0.22122888 1.8403063 81.25
-0.81900984 0.23572482 1.8389852 81.222221
-0.66286755 0.22242467 1.8410988 77.222221
-0.55295861 0.23166196 1.8430645 79.400002
-0.44884747 0.21724901 1.8408093 50
-4.0506558 0.30785835 1.8145493 81
-3.9222102 0.31911075 1.8192137 79
-3.7875836 0.34966755 1.8171276 94
-3.6802731 0.34387273 1.8210648 91
-3.5144439 0.36346203 1.8221275 88.75
-3.3494384 0.35754701 1.8301316 90
-3.1869102 0.39462286 1.8311372 54.5
-3.0535653 0.43201688 1.8435334 52
-2.4661741 0.43165404 1.8340935 48
-2.1478386 0.40289313 1.8291866 88
-1.8926846 0.35403553 1.8392301 78.333336
-1.730659 0.39108139 1.8347157 84.5
-1.6267599 0.3840929 1.8436295 75
-1.4185954 0.37056461 1.8471155 86.599998
-1.2727182 0.39055037 1.8465151 94.5
-1.1076483 0.39332542 1.8422593 75.333336
-0.97885895 0.36214322 1.8423313 76.400002
-0.81280053 0.36897254 1.8417196 77.428574
-0.67269355 0.37891844 1.8403393 78.85714
-0.51142097 0.36136726 1.8355473 52
-4.098753 0.52508873 1.8398517 83
-3.0220828 0.54095483 1.8213421 79
-2.9124358 0.51216739 1.8419356 51
-2.832649 0.53908235 1.8454319 11
-2.4070539 0.49969801 1.8254091 82
-2.3171694 0.47486588 1.8320636 81
-2.1091783 0.58286792 1.8409358 80
-2.0193181 0.45257217 1.8385357 90
-1.8670878 0.51046485 1.8372287 85.25
-1.7341022 0.55860531 1.8365639 86.5
-1.578169 0.50327706 1.8445215 81.5
-1.4131582 0.53562665 1.8500794 83.5
-1.2651567 0.56021124 1.8452163 89.333336
-1.1134526 0.51725566 1.8427926 80.5
-0.97009546 0.52891433 1.8426868 73.14286
-0.81889284 0.4888007 1.8447447 75.199997
-0.68164855 0.53185153 1.8428634 74.800003
-0.56798327 0.49820971 1.8433894 78.5
-3.0610199 0.67693973 1.8446826 74
-2.8996706 0.70931995 1.845888 82
-2.7335227 0.7497673 1.8278466 79
-2.6016731 0.601246 1.8556725 7
-2.4336104 0.6799041 1.8307137 81.5
-2.3157527 0.67696089 1.8306082 83
-2.2051811 0.61700535 1.8303174 83
-2.0100076 0.64107156 1.8371707 85
-1.8552858 0.68746412 1.8366387 83.5
-1.7073711 0.69963849 1.8365816 84
-1.5622168 0.66968751 1.8463771 82.5
-1.4086529 0.67288846 1.8455482 83.666664
-1.3036336 0.7080698 1.8473579 86.666664
-1.1268018 0.67912585 1.8510203 92.666664
-0.97127056 0.6732856 1.8426214 71.25
-0.84128052 0.67305285 1.8443109 73.666664
-0.66656822 0.66702574 1.8438631 75.444443
-3.4043097 0.88737899 1.8404886 76
-3.0306227 0.80086613 1.8226422 73
-2.9233339 0.78782231 1.8268114 70
-2.7667351 0.77596277 1.8305604 78.5
-2.584435 0.82535762 1.8422943 54
-2.4590282 0.8550176 1.8386425 33
-2.3019788 0.87381685 1.8299665 83
-2.2111804 0.81491375 1.8271044 93
-2.0482965 0.81132495 1.8417956 77.5
-1.8753624 0.87127447 1.8343105 82
-1.7503672 0.81589252 1.8326187 86
-1.5055918 0.7770831 1.8484584 79
-1.4112082 0.80266333 1.8442696 82.5
-1.2972755 0.86438954 1.8485972 85
-1.1267862 0.81784856 1.849785 87
-0.96338224 0.82382756 1.8527989 88.833336
-0.79723781 0.84375745 1.8516546 86.400002
-0.66091454 0.80181324 1.8489422 63.400002
-4.1190085 0.93553776 1.8139149 78
-3.9875798 0.93297321 1.8182291 83
-3.8045554 0.93280411 1.8181456 80.5
-3.6598678 0.93036819 1.8214768 79
-3.5435293 0.92915952 1.8248651 79.5
-3.3687806 0.91526151 1.817448 78
-3.2276242 0.91061234 1.8297613 83.5
-3.0641966 0.92993903 1.8451957 84
-2.9178629 0.99551392 1.8383849 77.5
-2.7712195 1.0118467 1.8336035 76.333336
-2.3590043 0.92318583 1.8223706 79
-2.2156506 1.0208691 1.8264199 79
-2.0291507 1.0157871 1.8411173 79.5
-1.8053871 0.9160316 1.8471774 82
-1.7612634 0.97246325 1.8323077 84
-1.5720969 0.90242106 1.845348 83
-1.4145674 0.95559579 1.8462586 81.666664
-1.27021 1.0187201 1.8476866 84.5
-1.0906587 0.96527731 1.8506781 83
-0.97600031 0.99581814 1.8534731 81
-0.84225887 0.97321731 1.8538084 86
-0.70769632 0.99259782 1.8500501 47
-3.8849003 1.1847613 1.8454696 77
-3.635973 1.1697103 1.8473026 72
-3.4520257 1.196972 1.8449641 77
-3.4013138 1.1788692 1.8327832 78.5
-3.2503972 1.1859729 1.8309863 79
-3.0501289 1.1293991 1.833596 81.5
-2.8960581 1.1895314 1.8475584 93
-2.5797572 1.0615786 1.844726 33
-2.4461761 1.0753583 1.8388528 62
-2.3265321 1.1208043 1.832365 86.5
-1.8533576 1.0630767 1.8365132 83
-1.7355027 1.115943 1.8322879 83
-1.5390092 1.0832341 1.8463928 82
-1.3962204 1.1233687 1.8480489 73.5
-1.2809029 1.1374761 1.8487502 81.666664
-1.071165 1.1838167 1.8522252 79
-0.95232773 1.1223904 1.8533121 78.666664
-0.82686973 1.135007 1.8569483 76.333336
-4.4968829 1.3003937 1.8158599 67
-4.2998438 1.2798358 1.8172003 66
-4.1744213 1.2371467 1.8317723 72
-4.0191989 1.2589244 1.8139478 62
-3.8401728 1.2418659 1.815704 80
-3.6899424 1.2352122 1.8226032 72
-3.5734036 1.2236984 1.8233666 73
-3.0308304 1.3461988 1.8199433 88
-2.8940783 1.2902091 1.8240591 78
-2.7370653 1.2623001 1.8342538 75
-2.5668998 1.3059373 1.8452164 32
-2.4364927 1.3067864 1.8453976 76
-2.2859251 1.307162 1.8365059 80.5
-2.2145405 1.2370474 1.8239654 85
-2.0560842 1.2151827 1.8397945 75
-1.8998101 1.2463408 1.843273 79
-1.7299109 1.2752084 1.8346364 79.75
-1.4485321 1.2772584 1.8452998 81
-1.2586482 1.2830642 1.8475485 78.599998
-1.1870028 1.2124604 1.8509821 80
-0.94523907 1.3160063 1.8544918 73.333336
-0.80767035 1.277995 1.8607972 39.75
-3.6613319 1.4833648 1.8495396 80
-3.4207861 1.4470797 1.8491985 73
-3.2763119 1.4793791 1.8353004 81.5
-3.0684319 1.4659945 1.846105 80
-2.8869624 1.4427098 1.8450774 86
-2.786432 1.4882898 1.8236922 91
-2.3365996 1.3923104 1.826043 77
-2.2174625 1.4711528 1.8308002 75
-2.0235291 1.4399416 1.8381156 77
-1.8646309 1.452196 1.8435771 75
-1.7112586 1.4420387 1.8330548 84.75
-1.447008 1.4608268 1.8463339 71
-1.2687751 1.4453814 1.8444289 78.5
-1.1585227 1.4429584 1.849565 75.666664
-0.84391332 1.4169618 1.8650697 15
-4.2298226 1.6022933 1.8381139 71.5
-4.0713596 1.6101799 1.8197607 67
-3.9276676 1.5516772 1.8331012 73.5
-3.8483753 1.5720289 1.822508 74
-3.6912086 1.5486788 1.8227592 78
-3.5265474 1.5297128 1.8358713 71.5
-3.4370387 1.5051422 1.8231987 79
-3.0347013 1.644291 1.8250417 79
-2.9040327 1.5695394 1.825361 80
-2.6948595 1.5725102 1.8460163 38
-2.4804327 1.5536231 1.8440231 65.5
-2.2791507 1.564243 1.8366785 74.333336
-1.6789706 1.5692165 1.8291728 78
-1.2029788 1.6458179 1.8554007 63
-1.1285979 1.5864716 1.8499632 73.666664
-0.9450224 1.5018876 1.8457543 68
-4.5476222 1.6860445 1.8140546 66
-4.3481879 1.6542369 1.8208855 71
-3.3875542 1.7665644 1.8381519 76
-3.0668797 1.7561208 1.8469464 84
-2.8848164 1.7149103 1.8486041 78
-2.8004084 1.7679502 1.8216304 75
-2.3026023 1.7269526 1.8413173 75.5
-2.2249863 1.7575872 1.8313212 72
-1.9881853 1.6809574 1.8447448 74
-1.8759419 1.674539 1.845677 78
-1.7182087 1.6684303 1.8404073 75
-1.6241837 1.6965458 1.8270836 71
-1.3877451 1.660284 1.8477236 67
-1.2895877 1.6525944 1.8466693 63
-1.1132512 1.7035794 1.8451613 71.75
-1.0448686 1.7985601 1.8542644 63
-3.9706302 1.9110613 1.8347362 75
-3.8321853 1.928148 1.8206136 70.5
-3.6792548 1.8590858 1.8310837 77.5
-3.4758284 1.8408449 1.8348645 73.5
-3.2670434 1.8070934 1.8503929 77
-2.9076204 1.8645986 1.824376 71.5
-2.67782 1.8640189 1.8479995 36
-2.5191951 1.8272669 1.8400043 78
-2.3312545 1.8384101 1.8405868 71.5
-1.8832568 1.9214885 1.8478829 68.5
-1.6954799 1.9065801 1.8442007 76
-1.613891 1.8545698 1.8359914 69.333336
-1.2702509 1.8601642 1.8508768 64
-1.1254241 1.8322213 1.8479185 71.5
-1.0210499 1.9161659 1.8444204 46
-4.3975825 2.0555794 1.8206869 71
-4.2806158 1.9919679 1.8393971 71
-4.127017 1.9894228 1.8249983 66
-3.4606187 2.0855772 1.8523213 80
-3.0548384 2.018898 1.8434409 78
-2.8814733 2.0061989 1.8541898 80
-2.8276889 2.0822339 1.8319885 32
-2.3365693 2.0105374 1.8405883 77
-2.2130954 2.0246201 1.8382502 69.666664
-1.5784268 2.0409951 1.8395008 75.666664
-1.2347025 2.0880558 1.851082 57
-1.1442037 2.0593297 1.8580681 10
-1.0365113 2.0467548 1.852357 6
-4.6067767 2.1019289 1.8129202 61
-3.7800832 2.2370923 1.8221442 68
-3.6935968 2.2152646 1.8302625 67.333336
-3.4964294 2.1973395 1.8334745 69.5
-3.3767474 2.1149099 1.8253568 74
-3.2652123 2.1391687 1.848255 69
-2.9135435 2.1881223 1.82761 64.5
-2.6430504 2.1657004 1.8407198 76
-2.4941926 2.1190298 1.8452171 75
-2.2710128 2.2377574 1.8298813 78
-2.2382765 2.1518722 1.8300408 74
-1.8796124 2.1986835 1.8490981 73
-1.7156581 2.1354055 1.8493423 68
-1.5552837 2.1720994 1.8338308 70.666664
-4.3211441 2.3816524 1.8489896 71
-4.1808639 2.3985913 1.8238679 64
-4.0035267 2.310549 1.8365551 70.333336
-3.8106356 2.3275692 1.8309482 67
-3.0241284 2.3011527 1.8296641 62
-2.8780556 2.3239222 1.8615957 34
-2.3197942 2.357018 1.8501099 70
-2.1818526 2.3057082 1.8366874 75
-1.5591969 2.3430662 1.8444442 68
-1.489204 2.3454473 1.8452389 66
-4.4381027 2.4833539 1.8131551 60
-4.3287601 2.4376612 1.8172947 66
-3.4854021 2.4493058 1.8557469 67
-3.4235272 2.4894457 1.8271974 63
-3.2667072 2.5043058 1.8504812 66
-3.0640604 2.4065537 1.8543783 67
-2.89153 2.5021744 1.8319296 31
-2.8435805 2.4199033 1.8353258 33
-2.6202462 2.5115967 1.8523988 68
-2.4590068 2.4289687 1.8480228 64
-2.2104316 2.5006046 1.829965 68
-1.8218758 2.5054162 1.8713888 28
-1.6975235 2.4238222 1.8530642 74
-1.5225842 2.4250417 1.8365501 76
-1.4405966 2.5207388 1.8455722 64.5
-4.6904874 2.5659215 1.8187841 63
-4.0292726 2.6935654 1.8511029 66
-3.8110025 2.6269286 1.8434442 69.666664
-3.6729479 2.6550708 1.8272003 59
-3.5260444 2.5937276 1.8384963 64
-3.0057294 2.6660526 1.8263999 62
-2.9054086 2.625293 1.8488613 31
-2.2800577 2.6792397 1.8602253 78
-2.1459506 2.6159546 1.8391652 72.333336
-1.5619071 2.6609406 1.8503461 67.5
-1.4274999 2.6528082 1.8328954 67
-4.2322655 2.8448343 1.8174042 63
-4.0974317 2.7624054 1.8154656 66
-4.0081859 2.7376456 1.818312 66
-3.8243203 2.74229 1.8235637 67
-3.5117569 2.8490102 1.8587214 65
-3.0485847 2.7702844 1.8511692 66
-2.8561821 2.7915819 1.8339118 27
-2.4203103 2.7741444 1.8567513 61
-2.1553061 2.7903254 1.8376077 77
-1.7204224 2.7864091 1.8520879 66
-1.3780078 2.7822781 1.8329431 67
-4.5228195 2.9814863 1.824186 61
-4.3990788 2.8847384 1.8395044 61.5
-3.7780738 2.9977019 1.8541881 66
-3.4763498 2.9097662 1.8297278 63
-3.2674656 2.9058919 1.8536235 63
-2.9135046 2.9301615 1.8322406 25
-2.5782213 2.8766727 1.8535279 65
-2.1434584 2.9158113 1.8361828 66.5
-2.0831983 2.8966217 1.8611068 78
-1.3322982 2.9542835 1.8328271 49.333332
-4.7801275 3.0796828 1.821839 56
-3.9076021 3.100595 1.8258158 56
-3.8778005 3.097156 1.8240813 58
-3.7048261 3.102165 1.8246955 62
-3.5538087 3.0321875 1.8402773 63.5
-2.9988933 3.0856683 1.8373688 23
-2.8343487 3.0248864 1.8554717 64
-2.3613679 3.1405644 1.8565682 68
-2.1614778 3.0294311 1.8454039 70.5
-1.5647528 3.0641017 1.8534617 60
-4.1271639 3.2285833 1.838922 59
-3.850817 3.2116852 1.8245884 59
-3.5424855 3.2976768 1.86248 60
-3.0458128 3.1867263 1.8605193 22
-2.8630128 3.2055964 1.8311726 61
-2.5246203 3.2800689 1.8565291 63
-2.0673087 3.2182696 1.844123 65.666664
-4.4670238 3.3945498 1.8634297 52
-4.3240132 3.372714 1.8283514 55
-3.5312164 3.3840153 1.8281914 54
-3.2696221 3.3601997 1.8610584 62
-2.9056683 3.3651359 1.8314191 58.5
-2.1476266 3.3853066 1.8563682 64
-2.0566187 3.3841825 1.832197 59
-4.5522943 3.4916191 1.8268241 50
-3.8306231 3.499151 1.8647784 59
-3.6374414 3.4990435 1.8269764 55
-3.531323 3.55585 1.8597625 57
-2.9735026 3.536783 1.8358353 51
-2.8204913 3.4535885 1.8656429 64
-2.2959509 3.5573218 1.8634106 60
-2.0205586 3.557622 1.8372101 55
-4.889246 3.6677241 1.8263994 53
-4.1497588 3.7240129 1.8666528 55
-3.9892197 3.6389999 1.8332117 60.5
-3.7619841 3.633482 1.8371068 58
-3.0241008 3.6382978 1.8589445 29
-2.8753042 3.6905043 1.8345419 60
-2.458842 3.7327847 1.8606046 64
-2.0095403 3.6841264 1.8417777 62
-1.9376959 3.6355124 1.8685454 58
-4.2797356 3.8339121 1.8266231 73
-4.1785116 3.7867618 1.8234645 54
-3.8893702 3.7516532 1.8293165 57
-3.5799832 3.8143578 1.8688632 60
-3.2575901 3.8596418 1.8613564 52
-2.8882728 3.8091018 1.8333465 64
-2.0145547 3.8270552 1.8422805 48
-3.8125205 3.9896889 1.8280343 90
-3.6300287 3.9856205 1.8188915 72.5
-2.9047592 3.924593 1.8357533 65
-2.7921329 3.927397 1.8672971 60
-2.2094316 4.0154352 1.8647758 54
-1.9314253 4.0231256 1.8417445 54
-3.4932423 4.0621586 1.8339323 95
-2.9634287 4.094696 1.8431174 76.5
-2.848516 4.197639 1.8055807 97
-1.9001529 4.1433058 1.8403875 52
-2.3761454 4.245934 1.8658801 71
-1.957355 4.266016 1.8537174 3
-1.940039 4.3060145 1.8387173 51
-1.8658261 4.3996177 1.823089 75
