# .PCD v0.7 - Point Cloud Data file format
VERSION 0.7
FIELDS x y z intensity
SIZE 4 4 4 4
TYPE F F F F
COUNT 1 1 1 1
WIDTH 140
HEIGHT 1
VIEWPOINT 0 0 0 1 0 0 0
POINTS 140
DATA ascii
2.1458743 -2.4546671 -0.82902205 1
2.3192852 -2.431396 -0.8134315 1
2.2201688 -2.3407054 -0.79356927 7
2.358469 -2.2953436 -0.76513773 11
1.3003242 -2.1397703 -0.8254894 43
1.4972998 -2.1868844 -0.83818901 5
2.0104952 -2.1058996 -0.79518616 7
2.1830249 -2.1258917 -0.8015337 7
2.0536957 -1.9833186 -0.79833937 6
2.2409079 -1.9549541 -0.81309593 37
1.6256965 -1.853174 -0.83184427 5
1.8506508 -1.8443527 -0.81042802 5
2.0475008 -1.9387218 -0.83165884 6
1.9414542 -1.701075 -0.80074644 6
2.7539604 -1.7935764 -0.80595404 0
1.730762 -1.6444006 -0.79783583 7
1.8353105 -1.5937375 -0.80221987 6
2.0260539 -1.5879669 -0.82734758 6
2.9458208 -1.5523772 -0.82343465 8
3.1010268 -1.5570478 -0.77090889 43.5
2.4521983 -1.3908319 -0.82164794 6
3.0803695 -1.2970568 -0.81891817 5
2.1700196 -1.0542692 -0.8190257 8
2.54409 -1.1514759 -0.81536251 6
2.7583656 -1.1966683 -0.78679264 6
2.979044 -1.0902791 -0.78546965 4
2.4973676 -0.90023535 -0.78862411 9
2.7258537 -0.95896786 -0.81462604 5
3.2307065 -0.97284847 -0.78212082 5
2.2946625 -0.86604106 -0.81471616 8
2.7399528 -0.81012475 -0.7857722 9
3.0199761 -0.8060481 -0.81492132 5
2.3180335 -0.66411674 -0.79129857 12
2.5012133 -0.70519155 -0.81618571 8
3.0834994 -0.71768409 -0.78974408 5
2.3249321 -0.49124318 -0.81526887 8
2.5771377 -0.57845968 -0.78725785 9
2.7506545 -0.55619091 -0.81026745 7
2.9197063 -0.48204058 -0.78708798 7
2.4734323 -0.37984833 -0.78977376 8
2.5748892 -0.35126039 -0.81055361 9
2.3949246 -0.19639595 -0.78935605 9
2.4861703 -0.1724544 -0.81821418 3
2.8660851 -0.27877712 -0.79164529 5
2.3176339 -0.013402072 -0.79506338 5.5
2.7891037 -0.08325845 -0.78654921 7
2.2760429 0.14037752 -0.77844733 25
2.7648947 0.10299947 -0.78370368 9
2.7871733 0.29328471 -0.7820344 9
2.8678682 0.49799919 -0.78295517 7
2.4651461 0.88789034 -0.75904769 0
2.2143703 0.95269287 -0.79422104 7
1.3839567 -2.6077845 -0.68672657 52
1.8756356 -2.5115016 -0.61489087 7
1.2645358 -2.1490231 -0.72324318 40
1.4165479 -2.1238558 -0.65190089 36
1.5881603 -2.1439331 -0.64898723 5
1.7012179 -2.1503947 -0.62058216 3
1.8239503 -2.2207744 -0.65401387 0
1.6670945 -2.069638 -0.63402587 75
2.8150952 -1.7065449 -0.67806673 31
2.8077259 -1.636274 -0.66417187 41
3.0214448 -1.5817127 -0.66547233 37
3.3674545 -1.549486 -0.67925036 68
3.2917416 -1.2415354 -0.6895538 1
3.2016408 -0.84051663 -0.60732168 85
3.1642075 -0.60507095 -0.64584845 72
3.1062047 -0.37490457 -0.67210829 80
3.0669334 -0.15512884 -0.68987209 69
3.022162 0.047535755 -0.65106374 59.5
2.9794745 0.25149328 -0.65418828 50.5
2.949348 0.43391088 -0.71170294 0
2.9297698 0.47363788 -0.69272387 66
2.8496516 0.88048238 -0.65592635 95
2.8744724 0.79968047 -0.66295344 81
2.1884654 0.97499961 -0.69098502 1
2.7994232 0.96935511 -0.62715083 11
2.8035102 1.0819758 -0.62580752 89
1.2264547 -2.6856542 -0.58300978 9
1.3610816 -2.6380498 -0.46471974 64
1.5156928 -2.6155713 -0.46561831 78
1.7497061 -2.5700564 -0.56698829 77
1.8170259 -2.554847 -0.50883669 68
1.6504182 -2.5327089 -0.49946758 150
1.8647016 -2.5424862 -0.57975483 43
2.0243869 -2.5112519 -0.56104785 34
2.4686518 -2.4132042 -0.50713015 81
2.6204293 -2.3867033 -0.46279958 72
2.9410031 -2.3022776 -0.5301345 62.666668
1.317445 -2.2116537 -0.50252056 155.5
2.9223211 -2.1966918 -0.51694959 40
2.2402446 -1.9609801 -0.58351439 76
2.8920715 -2.0136893 -0.50742906 42
2.8524742 -1.8978986 -0.59684128 39
2.8379431 -1.7612022 -0.53617948 46.333332
2.947248 -1.5985506 -0.58815885 39
3.3168797 -1.3558887 -0.50006258 6
3.2472014 -1.0696189 -0.50636619 78
3.1946592 -0.79286206 -0.47881961 80
3.1491332 -0.54943395 -0.48773545 78
3.158021 -0.59429502 -0.54096085 73
3.1038027 -0.36442199 -0.51624882 49.333332
3.0697954 -0.17585954 -0.54209012 78
3.0667617 -0.12901887 -0.52442551 82
3.0258396 0.042461816 -0.5194031 50.5
1.6187894 0.24717046 -0.49821988 3
2.9875004 0.20216662 -0.51831019 43
1.6273516 0.40057367 -0.54467624 36
1.6019009 0.48808044 -0.48471686 10
1.165249 0.60696995 -0.45806417 0
1.3441856 0.79871106 -0.49050054 23
1.4767852 0.82485938 -0.56803459 23
1.9304054 0.92882711 -0.57557184 23
2.8086023 1.0153472 -0.5565294 69
2.5054162 1.0528513 -0.56913221 23
2.6959918 -2.3651001 -0.42800695 77
2.9416244 -2.3158755 -0.4296369 76
1.3103292 -2.2295289 -0.43926179 162
1.3924608 -2.2327495 -0.44756711 163
2.2406151 -1.9541787 -0.40338278 150
2.8948171 -2.0607634 -0.44471726 44
3.222831 -1.5698092 -0.42142117 6
3.2369642 -0.99568951 -0.4131968 83
3.1507976 -0.58557457 -0.4377161 73
3.1176567 -0.38514349 -0.40473509 58
3.0795577 -0.18533021 -0.41888466 79
3.0340831 -0.027811093 -0.41198331 68
1.5989201 0.14735593 -0.44927409 3
3.0322034 0.0082101291 -0.42557493 22
1.4952554 0.25016567 -0.43820783 51
1.5915762 0.21747281 -0.44508019 3
2.9957604 0.17507529 -0.42522925 93.5
1.2948914 0.32097012 -0.41877848 7
1.439029 0.35650921 -0.43342417 65
1.413232 0.48460242 -0.41550374 86
0.98545152 0.72751492 -0.40264371 7
1.149648 0.63240206 -0.44050655 1
1.3783169 0.63378692 -0.42443508 79
1.292892 0.79215443 -0.43583775 18
1.4808083 0.82332087 -0.42619631 40
