# .PCD v0.7 - Point Cloud Data file format
VERSION 0.7
FIELDS x y z intensity
SIZE 4 4 4 4
TYPE F F F F
COUNT 1 1 1 1
WIDTH 1133
HEIGHT 1
VIEWPOINT 0 0 0 1 0 0 0
POINTS 1133
DATA ascii
1.6383744 -1.7130904 -0.16443172 116
0.80755746 -1.5373123 -0.15321028 15.5
1.7381926 -1.6312016 -0.18714507 97
0.39673674 -1.3540534 -0.19291222 3
0.45448333 -1.4175557 -0.19032452 26
1.0151817 -1.3508382 -0.19371909 56
1.8903322 -1.4685233 -0.19739176 97
1.0382867 -1.3305192 -0.16970508 18
0.18736777 -1.1226771 -0.18129596 3.5
2.2401724 -1.1833555 -0.19781566 75
0.062683426 -0.98086166 -0.17950507 5
2.4461083 -1.0058057 -0.18098263 76
-0.070449166 -0.82939702 -0.16822532 5.2727275
2.6247807 -0.84297282 -0.15126877 70
-0.1966103 -0.68939894 -0.1634711 7.875
-0.14683691 -0.74965388 -0.15947746 5
2.7758553 -0.70453078 -0.18217209 64
-0.35312304 -0.52019715 -0.190539 7.1999998
2.9663589 -0.21517242 -0.15645704 32
2.8029559 -0.036899947 -0.1754007 36
2.6608002 0.12337478 -0.18547292 37
2.7419395 0.021566572 -0.15372901 39
2.7326593 0.19009176 -0.16329528 29
2.8710806 0.30737641 -0.17135912 29
3.0516768 0.51003206 -0.15158656 68
-0.77509576 0.65512699 -0.16414121 6.3333335
-0.71475863 0.71622348 -0.17404564 5.1999998
-0.50187647 0.72329533 -0.18798734 0
-0.64432365 0.77709776 -0.17737044 5.5714288
-0.32395154 1.0473894 -0.16250169 15
0.62451875 1.0450923 -0.18949692 1.5
2.5875814 1.029076 -0.19559141 85
-0.32368177 1.0565506 -0.16908643 11
-0.23902705 1.1377318 -0.1737839 10.375
0.59610265 1.0845066 -0.19325425 0
0.67623037 1.077669 -0.18674725 3.5
0.78341633 1.0979035 -0.179304 1
2.5046988 1.1239018 -0.17389773 89
-0.16994061 1.209585 -0.17396817 11
-0.12760089 1.2495953 -0.19399227 11
0.1554005 1.3074788 -0.16609104 1
0.25655144 1.4033314 -0.1705966 2.75
0.31229144 1.4217901 -0.1811161 2
0.2733179 1.5927618 -0.16686997 37.5
0.45588231 1.5928276 -0.15750107 3
1.4524885 1.5906692 -0.15082218 25
1.3953847 1.6650313 -0.16320223 5
1.90941 1.7994673 -0.17317075 91
0.54362959 1.8358816 -0.17031108 33.666668
1.6456753 1.8118175 -0.15027796 16
1.7827816 1.9192791 -0.19864127 110
1.8487002 1.8683786 -0.1929161 90.666664
0.78904587 -1.7780492 -0.05717418 12
1.6282766 -1.7328411 -0.13035375 67
0.84495467 -1.5857904 -0.047255777 7.5
0.91507882 -1.5235755 -0.047651075 12.4
1.7917368 -1.5842953 -0.1231745 91
0.42015463 -1.3804615 -0.014752303 2
0.46940869 -1.4373286 -0.053666774 1
0.89848083 -1.4714885 -0.14815775 15
0.99261862 -1.4295987 -0.1120543 11.666667
1.7065806 -1.4377003 -0.092782237 150
1.9598927 -1.4373243 -0.14175025 83
1.0314209 -1.3448734 -0.14724556 11
1.3234904 -1.3071133 -0.07223431 56
1.3886161 -1.2461038 -0.020359147 59
1.5065838 -1.2285872 -0.083145387 158
2.1177862 -1.2882446 -0.14461125 86
0.23667388 -1.1718636 -0.041070674 2.5
1.6018181 -1.1522801 -0.13127428 158
1.7145343 -1.0975821 -0.059664138 156.75
2.2143688 -1.1950183 -0.10060305 77
2.3118181 -1.1187623 -0.13551912 85.5
-0.0038879693 -0.90852898 -0.025906986 7
0.071623683 -0.99161828 -0.026982512 4.5999999
1.609686 -1.04602 -0.10647926 75
1.7109237 -0.96369022 -0.094834663 79
1.9877951 -0.94498336 -0.059810106 133
2.2005026 -1.0306658 -0.091109969 150
2.4767048 -0.96922314 -0.11687572 82
-0.088463172 -0.80711156 -0.034353796 5.6999998
1.9210663 -0.78281212 -0.10635308 82
1.9958231 -0.80261511 -0.11161292 154
2.6029465 -0.81871957 -0.042602375 98
-0.21109118 -0.67039543 -0.048148341 7.9200001
-0.14520073 -0.73783004 -0.027464097 6
2.1725941 -0.72204494 -0.11690766 155
2.6299021 -0.6818381 -0.1109959 150
2.772656 -0.69808066 -0.084563181 106
-0.35750857 -0.50766939 -0.092438653 7.2352943
-0.28811058 -0.58545893 -0.10776377 8.6000004
2.3028688 -0.51473916 -0.087352939 90.5
2.9191942 -0.54011714 -0.093026854 150
-0.45370069 -0.38904199 -0.017165398 6
-0.41428706 -0.44421437 -0.060131315 6.6666665
2.3273914 -0.41702709 -0.022784507 5
3.0883949 -0.39129093 -0.085894205 48.333332
2.9472666 -0.19268869 -0.092303559 38
2.7902732 -0.02878887 -0.06231866 20
2.6949978 0.098649465 -0.08910016 39
2.8592699 0.26659495 -0.070681609 64
3.3051951 0.19350919 -0.0088967727 150
-1.0249617 0.43739313 -0.010204767 0
2.3853638 0.42828831 -0.09552417 7
3.0992415 0.40841889 -0.14449055 74
3.170428 0.37126002 -0.026939487 45
-0.92228806 0.5299232 -0.03988627 3.5999999
-0.86619169 0.57852262 -0.058783211 6.9565215
2.190655 0.59829009 -0.086307801 78
2.2884536 0.52042776 -0.095804803 7
2.9716213 0.57979363 -0.14549269 36
3.0966873 0.46404481 -0.038604531 80
-0.79725468 0.64432907 -0.093095459 5.9310346
-0.72042501 0.71319914 -0.089193963 5.0952382
-0.50762993 0.73628277 -0.063536629 0
2.1253624 0.68538702 -0.084616952 26
2.8328106 0.73800462 -0.14016265 27
2.9109292 0.66672873 -0.1423972 46
-0.63620389 0.78854984 -0.094946764 5.3333335
-0.55693734 0.82419187 -0.084275045 3.5
2.1147962 0.79698223 -0.081981398 165
2.7438376 0.85040444 -0.12674466 57.5
-0.4834474 0.92990857 -0.042378578 5.75
-0.40593436 0.98744076 -0.087684453 12.529411
0.2638329 0.95506757 -0.12188992 4.1666665
0.3633666 1.0108993 -0.12968755 3.2
0.61974669 1.0311291 -0.028000548 2.6666667
1.8419051 0.99360657 -0.10777768 53
1.9985859 0.98661613 -0.032541577 27
2.1915967 0.9750334 -0.047604952 150
2.6585116 0.95360458 -0.10666064 26
-0.3266055 1.0529189 -0.11398922 12
-0.2441687 1.1356304 -0.10677838 10.25
0.067327276 1.1780137 -0.13583192 11.4
0.42299917 1.131022 -0.13398118 3.5
0.52549553 1.1102628 -0.13039827 4.25
1.7345798 1.1674517 -0.12300479 75.5
1.8643501 1.1133199 -0.04447455 8.5
-0.16686746 1.2155505 -0.012850558 8.5
-0.065579094 1.2987802 -0.041847732 7.2857141
0.07974831 1.2572781 -0.13427523 2
0.21503015 1.3352475 -0.14272267 8
0.53577995 1.2104049 -0.1412718 0
0.67238939 1.2500999 -0.13569264 6.75
1.5724075 1.3235878 -0.12911102 14
1.7120097 1.2779783 -0.083755113 162
2.3378317 1.2897229 -0.12625626 44
2.4179745 1.2161227 -0.14999753 72
-0.011003111 1.3550692 -0.055643536 8.5
0.064031057 1.4148207 -0.053766552 9.8571424
0.70063418 1.4705104 -0.14140543 5
2.2496946 1.415717 -0.011430536 96
0.87217289 1.5006315 -0.14366199 2
2.0982289 1.595252 -0.0095445262 94
2.1521258 1.5275621 -0.13642897 96
1.9347231 1.7775931 -0.011324381 93
0.72067243 -1.7121508 0.00033109903 26
0.80490494 -1.7591959 0.097954363 23
1.5141294 -1.7249202 0.024369324 148
0.58496958 -1.5542829 0.0897054 24.5
0.64877623 -1.6279712 0.082203574 25
0.8474291 -1.5927516 0.01911132 9
0.97484523 -1.5133556 0.086768799 24
1.4744542 -1.5846231 0.035014208 55
0.43884695 -1.3960958 0.053536531 1
0.51561654 -1.4823912 0.084203027 1
1.0351371 -1.4490042 0.056110941 23
1.1061621 -1.3843954 0.10046935 18.5
1.323085 -1.398724 0.11919554 69
1.93139 -1.4328905 0.026535893 80
1.9590985 -1.3852416 0.053042635 150
0.26598871 -1.2004658 0.038313087 4
0.35270348 -1.297232 0.048206128 9.5
1.3057609 -1.3130739 0.027945023 62.5
1.3533226 -1.2751691 0.080662601 61
1.5206159 -1.2587382 0.069872983 158.2
1.8348675 -1.2990414 0.10450902 152
2.0821743 -1.2895814 0.093768217 115.5
0.19017348 -1.1184452 0.025870349 4
1.6055219 -1.1184736 0.12527633 152
2.2238047 -1.1834483 0.059332021 77.75
2.3670325 -1.0641272 0.055648021 71.5
-0.0014318407 -0.90613419 0.00044023513 7
0.07137619 -0.98795378 0.021801915 5.75
2.5057573 -0.93176562 0.058507651 64
-0.070033364 -0.82776636 0.033553187 5.6666665
2.6124537 -0.82127702 0.11486176 55.5
-0.20978138 -0.66371548 0.094504684 6.8888888
2.7756643 -0.69692814 0.089715548 61
-1.0658509 -0.47694194 0.11144701 0
-1.0398515 -0.47068733 0.049948987 0
-0.3539041 -0.50657713 0.040502854 7.75
-0.2866621 -0.58268917 0.054372646 8.5
2.8875203 -0.59861892 0.080916725 58
-0.97161043 -0.3890948 0.13157949 3
-0.49595082 -0.34888777 0.07495974 5.8000002
-0.43151748 -0.4171254 0.066648431 7.2727275
2.3217304 -0.42069989 0.079815857 16
3.0560951 -0.44455943 0.063066773 58
3.1565883 -0.36005744 0.03952026 52
-1.01293 -0.19898419 0.11941439 0
3.2478821 -0.27441746 0.054877814 55
3.3417497 -0.18702962 0.030349815 53
-0.93475801 -0.12207464 0.0090692891 0
3.4649575 -0.084117942 0.056064513 51
3.3835306 0.13131876 0.082228839 102
3.4785168 0.034079105 0.14801812 59
3.3015425 0.2278503 0.11620744 67
-1.070421 0.40031564 0.079976842 1.6923077
-1.0443814 0.33693719 0.046988901 0
3.142926 0.40652728 0.09840446 65
3.1991832 0.34241867 0.087760895 62.666668
-0.93830085 0.52277803 0.066736177 3.4347825
-0.89327908 0.5724113 0.046747781 6.25
3.0391452 0.52352834 0.078753352 85.25
-0.81425923 0.65132207 0.06023325 6.1111112
-0.72248775 0.7310313 0.11143176 5.25
-0.49827456 0.73132038 0.061545487 0.71428573
2.8976159 0.67668861 0.075596996 87.25
-0.65430087 0.79047209 0.06834124 5.0625
-0.5652597 0.82620239 0.035324968 2.5999999
2.7831376 0.81336194 0.059029665 99.333336
-0.47435585 0.93897152 0.092931822 8.5
-0.40984282 1.0027286 0.11397863 9.5384617
0.58927816 1.0102066 0.023950661 4
2.0034709 0.99420482 0.017140055 35.5
2.1927886 1.0120357 0.095726423 155
2.3093135 0.99190962 0.027986998 0
2.6306443 0.98087919 0.057996958 78.800003
-0.33186045 1.0768998 0.07881622 9.25
-0.24325064 1.1496665 0.042999692 8.3846149
0.79920626 1.155845 0.1182281 3
1.9704623 1.0745238 0.018719727 18
-0.16969244 1.2129411 0.044233706 11
-0.10228261 1.2752891 0.014023115 8.6000004
0.86352152 1.2532789 0.074318193 2
2.2412763 1.3342923 0.094512813 150
2.3184001 1.3387109 0.13393307 81
2.2115784 1.447531 0.090665787 92.25
2.0938036 1.5911596 0.11946117 82
2.1312804 1.549964 0.0540758 83
0.36098796 1.691869 0.13752311 40
1.9390807 1.7755024 0.11331551 85.5
2.0234802 1.6763749 0.07125634 87.25
0.55467761 1.8656592 0.11525758 38
1.8620051 1.861246 0.087772764 86.5
1.7247844 2.0175011 0.14254248 80
1.5850937 -1.7464926 0.16846311 73
1.670909 -1.6774107 0.28073293 84
0.89798015 -1.5844785 0.16451097 9
0.93613112 -1.5325764 0.19934791 21.5
1.7620354 -1.5919546 0.29675949 81
0.41146892 -1.3579627 0.29125893 1
0.45453531 -1.4124781 0.26675653 1
0.98283237 -1.4710032 0.24316035 27.285715
1.0971441 -1.4088293 0.1919183 18.285715
1.3557782 -1.4179634 0.16825813 158
1.8967547 -1.4344988 0.27828306 60
1.9722297 -1.4043567 0.15595335 88
2.0751929 -1.278268 0.29531986 150
2.1571355 -1.2372251 0.20897219 75
0.20687203 -1.1277618 0.25234824 3.3333333
1.6054285 -1.1098061 0.25686002 128.2
2.2112446 -1.1949813 0.25247598 72
2.315623 -1.099661 0.23736207 67.333336
0.061137285 -0.96800262 0.21441759 4.8333335
2.3841648 -1.0254735 0.27991116 65
2.4529977 -0.97606641 0.22271828 65.800003
-0.070165522 -0.82015949 0.18839771 5.5384617
2.6106124 -0.82532567 0.22559729 55
-0.21833371 -0.65263951 0.18765861 5.4166665
-0.13690944 -0.74095541 0.17134435 5
2.7820017 -0.68457168 0.19914491 59.333332
2.8648298 -0.61693293 0.20151782 59
-1.0548371 -0.53021842 0.23624741 1.6666666
-1.02356 -0.47591639 0.22365087 2
-0.35709158 -0.49983171 0.18562147 7.5263157
-0.28015187 -0.58377111 0.15657766 6.4000001
2.9731269 -0.50783855 0.16326922 65
3.0154445 -0.47141179 0.19041592 55
-1.1130241 -0.33797607 0.2691634 0
-0.98028159 -0.38454929 0.1579774 6
-0.49375036 -0.34755298 0.23424911 6.7368422
-0.4277052 -0.41947192 0.21704563 7.8000002
3.1287165 -0.37567863 0.17054433 52
3.173717 -0.33056796 0.17072529 51
-1.207111 -0.24920174 0.29329997 0
-1.1571696 -0.27216315 0.27361271 0
3.3381844 -0.19223619 0.15879983 49
-0.96926242 -0.019348713 0.17490643 0
3.391427 -0.14096731 0.19561005 54
3.5086741 -0.04104495 0.1655522 59
3.466079 0.051886357 0.19277251 58
-1.1707969 0.28458095 0.17535171 0
3.2867053 0.24472842 0.21722057 61.5
3.3185968 0.21602179 0.26859987 58
-1.0795605 0.40226167 0.16207093 0
3.131218 0.4258787 0.24876159 62
3.202307 0.34956434 0.27844813 60
-0.95554298 0.52094924 0.23090138 3
-0.88713527 0.58851057 0.26810828 6.3333335
2.9875522 0.58462691 0.23872942 66
3.0639331 0.50890452 0.26327464 60.333332
-0.81643057 0.65414095 0.20197678 5.6666665
-0.71388268 0.74525571 0.19914016 5.5
2.9143558 0.67689729 0.25175124 65.75
-0.6491614 0.80419058 0.26037294 4.2857141
-0.59394372 0.84603184 0.22997552 3
2.7838225 0.8247236 0.23466146 69.800003
-0.48872843 0.93147421 0.17541672 7.3333335
-0.44310984 0.98651642 0.17432916 9
2.6356165 0.98674577 0.22141618 80.333336
2.709166 0.91264224 0.28637484 70.5
-0.36363384 1.0538412 0.28473109 10
-0.25888681 1.1462214 0.27405357 7.4000001
0.6741814 1.1364836 0.25467154 1.6
0.79668593 1.1295304 0.24044691 1
2.5162299 1.1101018 0.24153084 102.66666
-0.17044714 1.2279184 0.27314264 7.5
-0.092842437 1.2991098 0.25929633 8.090909
0.83845878 1.2444447 0.26444393 3.3333333
2.3793402 1.2383162 0.19678912 61
2.4334586 1.20983 0.27234501 62
-0.010636974 1.3712409 0.25249836 8
0.063654922 1.4334741 0.23617265 33.299999
2.2031243 1.4791805 0.22635907 84
2.297859 1.3660598 0.23919269 58
0.1357878 1.5024894 0.23367429 44
0.22034539 1.5737638 0.2149976 37
0.30510491 1.6482679 0.23141092 35
2.0545893 1.6447239 0.18991232 82
2.1232493 1.5596195 0.19035095 86.333336
0.37816572 1.7123178 0.21082158 36.599998
0.464046 1.7849512 0.20709848 37.5
1.9327799 1.7749573 0.2339036 80
2.007297 1.693071 0.23238026 85
0.5313158 1.8500153 0.21753712 38
0.61468709 1.9246099 0.18285769 39.5
1.7976152 1.9352341 0.23314425 79
1.8508333 1.8720481 0.22197464 80.199997
0.70278162 2.001729 0.22659345 35
0.76510733 2.0602121 0.18947288 44.5
1.7267348 2.0155232 0.25475869 76.666664
0.86763245 2.1556013 0.19787949 41
0.96018451 2.2337918 0.20670786 16.5
1.034952 2.2961524 0.28250813 34
1.1469646 -2.1190896 0.41345018 8
0.68235999 -1.655997 0.37319946 25
0.80879098 -1.7329267 0.36497894 58.333332
1.5101813 -1.7137163 0.43825155 36
1.6587915 -1.6770091 0.37506461 80
0.58766311 -1.5493065 0.42174929 28
0.6294136 -1.5967053 0.39893281 26
0.8966049 -1.523942 0.31726071 8.5
1.470673 -1.5680407 0.42713439 51
1.7111385 -1.6134838 0.41524726 70
1.8156095 -1.5351241 0.34824282 83
0.50876606 -1.4575255 0.41068533 31.5
1.0313765 -1.4009842 0.33578318 9
1.193748 -1.4595852 0.408261 78
1.2090614 -1.3758856 0.40821445 73
1.3988012 -1.3970739 0.4080489 58.5
1.6406161 -1.4342085 0.41711503 79
1.6510749 -1.4691459 0.41459215 59
1.8598763 -1.4584059 0.40030682 73.5
1.967541 -1.3947972 0.34572172 72
0.37651074 -1.3161347 0.34041056 1.25
1.3180983 -1.2839103 0.40069136 71.5
1.4353005 -1.2540321 0.39832035 68.333336
1.5644642 -1.2739184 0.40321481 35
1.7506911 -1.3251404 0.41838288 50
2.077466 -1.260435 0.40068752 81
2.1337142 -1.247703 0.37821978 67
0.2312983 -1.1513793 0.30525461 3
1.459323 -1.1465847 0.38455176 69
1.5750132 -1.0917001 0.38347968 97.599998
1.7894926 -1.0909355 0.40790242 38
1.8618358 -1.1304454 0.4200286 27
2.0415308 -1.0852823 0.41448331 48
2.2116258 -1.1776562 0.35987911 63
2.3054261 -1.0838811 0.36966127 56.799999
0.065491214 -0.96029037 0.44533494 2.3333333
1.7330778 -0.96188104 0.40494251 76.25
2.0210128 -1.0281372 0.41873652 26
2.2009192 -0.98519814 0.40633583 50.5
2.3983555 -0.93418789 0.41954243 29
2.4484453 -0.9566049 0.38467735 57.75
-0.077163711 -0.80789161 0.40394878 4.3076925
0.0066102268 -0.89608687 0.43149254 3
1.8822813 -0.8428604 0.40411544 83.666664
2.0143929 -0.85584426 0.40059853 50.5
2.1643267 -0.81914914 0.40712869 81
2.3247924 -0.76836562 0.41412535 44.5
2.5348742 -0.83209181 0.41436106 29
2.5826461 -0.84777957 0.35899007 62.75
-0.2089978 -0.65658969 0.37621108 4.3684211
-0.14163448 -0.7351445 0.3746658 4
2.0927052 -0.71318442 0.39235419 91
2.1398425 -0.62847513 0.43900096 95
2.2587743 -0.63356984 0.39322424 61
2.505203 -0.68081278 0.41455656 53
2.6563058 -0.72734803 0.36601919 75.5
2.7784114 -0.67946285 0.35082483 59.599998
2.8621457 -0.61205792 0.31777453 58
-1.0970074 -0.53541273 0.40430608 4.8000002
-0.34460604 -0.50372052 0.38346535 4.4000001
-0.28180337 -0.57127827 0.36987776 4.375
2.1634421 -0.54455739 0.42988038 3
2.4708383 -0.54809791 0.40774745 150
2.9658318 -0.50322872 0.36261058 69.333336
3.0177658 -0.4629344 0.35340059 49
-1.0993421 -0.35340214 0.37982243 0
-0.50397921 -0.33486357 0.36802971 4.9166665
-0.42278153 -0.41933292 0.39055187 5
2.3011327 -0.42508152 0.41967171 150
3.1130004 -0.36861494 0.393545 46.5
3.1634593 -0.32990253 0.30701575 51
-1.2353586 -0.16898303 0.4007349 4
-1.1466268 -0.26332334 0.39139393 0
-0.59188521 -0.29727224 0.30124456 0
3.2394261 -0.26890817 0.3247053 53.5
3.3527789 -0.16411051 0.31802121 47
-1.2388053 -0.09948685 0.40392607 0
3.4112055 -0.1229398 0.31544226 50
3.4806442 -0.054873634 0.35919714 47
3.4193969 0.10435463 0.31695783 59
3.4972878 0.019954249 0.32775447 58.5
3.3417373 0.19123846 0.37168819 50.5
-1.0443239 0.43415904 0.38533086 0
3.2042956 0.34044343 0.4077881 57
-0.97386897 0.51001221 0.35567302 3.4375
-0.89276397 0.59388089 0.42533249 5
2.9968936 0.58849257 0.42879099 55
3.085649 0.48199117 0.4113012 57.75
-0.8044793 0.66860634 0.38718966 4.875
-0.73048389 0.73468536 0.33575583 4.7142859
2.9327924 0.65628773 0.39829415 60
-0.67764699 0.78476191 0.34672409 4.5
2.784399 0.82426405 0.39964309 65
-0.47395921 0.96177155 0.39758492 7
-0.41193283 1.0146813 0.38077542 7.8333335
2.6142049 1.018186 0.37339985 76.833336
2.7044947 0.91597414 0.34907109 67
-0.33745518 1.0808765 0.34841204 7.4285712
-0.25000101 1.1552968 0.32341009 7.3333335
2.4923637 1.1519806 0.36288393 76
2.5714099 1.0636784 0.44750661 71
-0.17517857 1.2215 0.31455529 8
-0.12074825 1.279448 0.31028011 8.5
2.368844 1.2980174 0.35453081 80.666664
2.4016757 1.2593906 0.33896357 80.5
2.2146785 1.467518 0.37064666 79.25
2.2923231 1.3832014 0.3952077 75
2.0923002 1.6076599 0.32404727 87
2.1288667 1.5637698 0.36848181 84
2.023865 1.6874342 0.41107175 83.666664
1.8559704 1.8673328 0.38569614 77
1.7322788 2.0041499 0.3537541 65.5
1.5377811 2.234539 0.38888565 79.666664
1.4149072 2.3703504 0.43637419 72
1.514281 2.2690682 0.44291508 80
0.8515107 -1.8031262 0.54114395 143
0.70309001 -1.675331 0.46818608 27
0.82325554 -1.7653627 0.50610715 107.66666
1.2230808 -1.7541 0.56273961 150
-1.8377986 -1.5659351 0.48699921 49
-1.7921988 -1.5683345 0.51486588 66
0.62039775 -1.5834017 0.47740221 31
1.2913879 -1.6097566 0.56487292 24
-1.833582 -1.4979039 0.59473038 15
-1.6911241 -1.4249082 0.59159636 57.5
1.2940271 -1.4262724 0.51239669 28.200001
1.4655826 -1.4311166 0.52252281 2.5
0.37848353 -1.3095902 0.57931328 30
1.4656434 -1.2572505 0.52416503 4.5
1.5599591 -1.2438719 0.53953826 3
0.19559343 -1.1053336 0.52661645 15
1.5701492 -1.0925193 0.51438272 102.4
1.6873914 -1.0843434 0.48691219 160
0.070920475 -0.96621466 0.48965317 2.2857144
1.8745077 -0.98619604 0.49691713 158
-0.080616117 -0.79653728 0.52148938 2.875
-0.20774548 -0.6583395 0.52745658 4.125
-0.14010528 -0.72931665 0.56347805 3
2.7821002 -0.63225543 0.52341402 150
-1.0984222 -0.50701749 0.49819785 3.4000001
-0.34620264 -0.50096369 0.46411774 3.8333333
-0.27427578 -0.57323444 0.45278132 4
2.9432399 -0.5230487 0.47046497 84.333336
-1.0948343 -0.3363488 0.47522479 0
-0.49141178 -0.3389723 0.5153718 2.8181818
-0.41800037 -0.4113819 0.50115323 2.6666667
3.1395092 -0.34842226 0.4817965 49.5
3.1780317 -0.3064948 0.45133972 44
-1.2334358 -0.17063087 0.54555076 2.3333333
-1.1602398 -0.24016957 0.50513816 0
-0.52144647 -0.29484072 0.52893889 0.5
3.3161414 -0.18752201 0.48729357 45.333332
-1.2056911 -0.14882813 0.46237719 6
3.3637216 -0.14795694 0.46483165 46
3.5128686 -0.015160992 0.51537937 56.666668
3.4878237 0.028124312 0.47210532 50
3.3741977 0.15915652 0.47727576 53.666668
-1.0657787 0.4290958 0.5677501 0.5
3.2140548 0.33671492 0.5147928 57
-0.9517836 0.53968275 0.53553033 4.8461537
-0.89472324 0.58595824 0.53311837 5
2.9887586 0.59841615 0.50340116 57
3.0724063 0.49467331 0.54434252 55
-0.84480184 0.63921756 0.50126183 4.875
-0.73750484 0.7356075 0.53127074 4.5
2.9228547 0.67245048 0.54000098 57
-0.65335786 0.80657429 0.54071361 3
-0.59646505 0.85361874 0.51122761 2
2.7727165 0.83904696 0.52945822 61.333332
2.8527498 0.75532007 0.57448018 58
-0.49348605 0.94718862 0.4699136 7
-0.40709871 1.0241879 0.58501554 7
2.6347008 0.9975248 0.53372812 65
2.7112617 0.90817374 0.54683232 61
-0.34309876 1.0763259 0.55838054 8
-0.26529831 1.1532676 0.56866419 22
2.5080571 1.136705 0.51890993 71
2.5514526 1.0922022 0.4727419 69
-0.19287953 1.2163731 0.5510658 18.5
-0.091148615 1.3056298 0.57019293 30
2.3679047 1.2956965 0.49430597 73
2.4221547 1.2378894 0.50343007 78
-0.019722084 1.3695483 0.54937011 35.666668
0.066338859 1.4468247 0.56129128 32.857143
2.2097421 1.4752554 0.52308333 74.5
2.2945926 1.3811506 0.51126039 77
0.14319341 1.5141605 0.57059389 31
0.20957148 1.5738454 0.55839604 31.166666
2.0770736 1.6294827 0.55141693 69
2.1314847 1.5664055 0.51706612 74.714287
0.35463133 1.7039392 0.55642784 30
1.9353937 1.784647 0.52379847 71
2.0005879 1.7142729 0.53566062 75
0.52619737 1.8580072 0.57217622 30.4
1.8717333 1.8642561 0.53857273 69.599998
0.74330717 2.0546894 0.54282922 35
1.5576748 2.2124393 0.50651544 51
1.0236025 2.3014123 0.5662601 25
1.4453512 2.3462794 0.54475862 77
1.5058205 2.2766225 0.51138365 64
1.3110327 2.4906828 0.55493426 80
1.1420321 -2.1140106 0.63228035 24
0.80276841 -1.706231 0.71914089 77
1.2792495 -1.717913 0.66532254 151
-1.8402766 -1.5398006 0.60301828 25
0.58501261 -1.5370692 0.73051167 23
0.60922736 -1.5643309 0.69308329 32
1.3158116 -1.5636548 0.61121935 51
1.7169316 -1.6087884 0.64699376 62
-1.7158903 -1.427338 0.67845047 41
0.42625946 -1.3639625 0.66732407 19
1.4361192 -1.4715527 0.60287523 4
1.9632671 -1.3794496 0.67536783 65
0.35067192 -1.2776663 0.6388613 11.8
1.5094262 -1.2624686 0.61449546 5
2.1293726 -1.2358153 0.69090551 44.75
0.23768748 -1.1531341 0.60847872 1
1.575084 -1.0545013 0.60607016 116.5
2.2265527 -1.1472106 0.69694471 55.5
2.3240817 -1.0605503 0.68887091 54.666668
0.083513722 -0.97359115 0.70559275 1
1.5599506 -1.0434544 0.68813396 59
2.4283707 -0.96924692 0.66505307 52.666668
-0.035911363 -0.84173608 0.63012171 1.5
0.015007836 -0.89811021 0.67445815 1
2.5269351 -0.8687892 0.64240682 94
2.6198692 -0.78556907 0.69328219 63.75
2.780983 -0.65225738 0.70511168 49.5
-1.1118033 -0.50016129 0.61337882 1
-0.36657333 -0.47793165 0.60144168 0
2.8897378 -0.54056293 0.67218894 115.33334
-1.1441835 -0.35570833 0.67972279 4.625
-0.46965152 -0.35283425 0.62410098 0.5
-0.42347246 -0.40613592 0.62063706 0.25
3.0517988 -0.41405478 0.62992692 49
3.1731935 -0.30159077 0.62010252 45
-1.1376619 -0.2781904 0.71359712 11.333333
3.2170079 -0.26258764 0.65359151 47
3.3356187 -0.1557482 0.63560534 44
3.3924065 -0.10834278 0.68068999 46
3.446542 0.080111608 0.655128 49
3.5020967 0.022118479 0.68959063 51
3.3403409 0.2015989 0.63024539 50.666668
-1.0719237 0.41527081 0.6813367 0.75
3.2034373 0.34923968 0.63064444 52
-0.99800426 0.49621397 0.65475434 2.3333333
3.04217 0.53150427 0.67071998 54.5
-0.80537874 0.67399055 0.68749708 3
-0.72807986 0.73828065 0.64872617 2.25
-0.54192233 0.74230653 0.69527459 1
2.8904066 0.70988142 0.73615062 55
-0.67289799 0.78890276 0.65096128 1.75
2.7908878 0.82498419 0.72667903 57.5
-0.47766891 0.96802902 0.68696767 5
-0.4250032 1.0236045 0.70664519 7
2.6463037 0.98743081 0.72359252 60.5
2.7056558 0.9147498 0.71470463 57
-0.34616488 1.0909616 0.68839574 11.2
-0.25846916 1.1620982 0.66215038 19.875
2.5077448 1.1449344 0.73177165 67
2.5868964 1.0622358 0.73019075 63
-0.17773545 1.2362772 0.64241022 22
-0.099058896 1.3005838 0.62211519 29.75
2.3369656 1.3311653 0.62442613 74.5
2.4256959 1.2346224 0.69785112 70
-0.014132161 1.3779104 0.61654007 32
0.068436541 1.4487734 0.61398584 33
2.2377005 1.4450625 0.65687001 72
2.2597396 1.4217982 0.65917695 73
0.20287287 1.5704695 0.61563617 32.5
2.0750909 1.6307826 0.7432633 67.5
2.1511891 1.5470129 0.66642797 69.666664
0.29346579 1.6585594 0.60473382 29
0.36992082 1.7185558 0.61824399 30.666666
1.9959733 1.7247003 0.66782856 70.571426
0.49895635 1.8309103 0.64611149 31.5
0.60501361 1.940904 0.62319112 29
1.8657852 1.8681436 0.67585498 64.375
0.69787496 2.0178924 0.65500009 28.5
0.78441352 2.092828 0.6173836 27
1.7655637 1.982626 0.68903273 60.200001
0.82143617 2.1299603 0.63147509 29
0.90448505 2.2037325 0.67692828 25
0.99532527 2.2822187 0.6727922 22
1.1055132 2.3820164 0.6760025 25.666666
1.4420928 2.3449168 0.61977112 71.5
1.3081629 2.4890609 0.67521399 71.400002
1.3696159 2.425142 0.67687368 70
1.1928324 -2.0804603 0.87452447 4
1.3351835 -1.9400852 0.84144902 40
1.4236568 -1.8656588 0.81679666 70.625
0.73591262 -1.7042131 0.87707365 34
0.8127284 -1.717312 0.86131489 59.75
1.5407276 -1.7552181 0.78283817 79.666664
1.6500084 -1.6652743 0.84017408 69
0.55965877 -1.5092574 0.75095713 20
0.63869745 -1.5891207 0.8613826 21
0.99935371 -1.5053905 0.89932501 33
1.729337 -1.5760877 0.82100898 75.875
0.5346154 -1.4802558 0.76599693 22
1.1054094 -1.4240125 0.89335418 55.5
1.8960195 -1.4252597 0.83357364 66.166664
1.9569662 -1.3819425 0.84522891 58
0.29725462 -1.213436 0.84719503 17
2.1321907 -1.2254329 0.80099213 54
0.22407539 -1.1249762 0.8351323 15.666667
2.2244496 -1.1419879 0.81087548 53
2.3101389 -1.0620141 0.86735511 51
0.1429099 -1.0365911 0.83568478 19
2.3374333 -1.0422761 0.76472545 51
2.4256415 -0.96290052 0.80206567 53.5
0.013618839 -0.88902956 0.78558183 16
2.505811 -0.88507861 0.83740997 50
2.6086237 -0.79077744 0.82969415 57
2.7254663 -0.69183046 0.82957089 50
2.8452656 -0.58666945 0.83440685 46
2.9669037 -0.47337097 0.84245634 45
-1.0824023 -0.37675673 0.77500713 2.5
-1.012723 -0.36233103 0.827847 0
3.0749769 -0.37841335 0.81833458 49
-1.0807315 -0.28492385 0.82460833 5.4000001
-1.019164 -0.28851286 0.8632623 0
3.2252369 -0.24794897 0.84493399 44.5
3.358007 -0.13194594 0.83928299 46
3.5113645 0.022433659 0.87762129 54
3.351563 0.19422406 0.84966481 47
-1.0600314 0.41457087 0.79932612 3.5
3.1168511 0.44593689 0.76025331 52
3.2238026 0.33342075 0.80839074 45.5
-0.96607608 0.53477073 0.83419091 1.6666666
-0.89197552 0.59967721 0.81934065 2
3.0885413 0.48412144 0.79113352 54
-0.83455348 0.65018827 0.80116791 7.8333335
-0.74382401 0.72904563 0.84059536 20
2.9780428 0.60784149 0.76465154 52
-0.64406979 0.82122338 0.81975734 8.75
-0.55457264 0.75745952 0.77642322 1
-0.4807153 0.97541243 0.82905501 9.666667
-0.42341304 1.0251255 0.78725743 20.25
-0.35613751 1.0939945 0.81399828 14.333333
-0.25967401 1.1638885 0.85868526 15
-0.18341613 1.2421519 0.85404098 34
-0.10078484 1.310367 0.84102404 33
2.3529284 1.3224651 0.76285267 68
-0.0087467907 1.3922149 0.84160185 29
0.096801177 1.4857002 0.85096169 29
2.2197864 1.4644978 0.7914865 71
2.2830186 1.3892136 0.77465898 67
0.21659417 1.5877776 0.86642492 39
2.099746 1.6022682 0.85415959 70
2.1585743 1.5365798 0.82045507 68.5
2.0119154 1.7015136 0.83794725 68.5
1.7941215 1.9488642 0.80052626 70
1.8897069 1.8478056 0.82091075 61.5
1.7437683 2.0102417 0.83466053 57.5
1.5865594 2.1863215 0.88872629 59
1.6602205 2.1077335 0.88113308 53
1.0065572 2.2950196 0.78385377 26
1.4547496 2.3487957 0.85803211 67
1.2639828 2.5066333 0.79822797 55
1.1380601 -2.0285239 0.93341315 20
1.3283185 -1.9521118 0.92867541 24
0.85106367 -1.8140459 0.96965301 10
0.98670506 -1.8513758 0.92895246 18.25
1.3332725 -1.9184296 0.91633713 79.5
1.426456 -1.8603945 0.90606284 73
0.72595626 -1.6883347 0.93776834 38
0.81089205 -1.766781 0.92986679 14
1.3143129 -1.7740492 0.94093668 25
1.3874587 -1.7096869 0.94110179 25
1.5583591 -1.7092218 0.9191401 70.5
0.78849965 -1.5513198 0.94725323 21
1.1641067 -1.5630192 0.92737097 32
1.2982841 -1.5641078 0.9300561 28.75
1.4135325 -1.5698233 0.9265818 36.714287
1.583699 -1.60917 0.9317506 35.799999
1.7314663 -1.5514607 0.91957974 53.666668
0.50984341 -1.4449571 1.0285058 15
0.99433261 -1.4706285 0.9251402 25.4
1.093081 -1.465529 0.91107422 47
1.2653342 -1.439929 0.91294557 46
1.3964664 -1.3569682 0.91007042 51
1.5300468 -1.4365104 0.92028815 32.666668
1.6639292 -1.4517899 0.92296028 25
1.841484 -1.4495294 0.91298133 52
0.37401721 -1.28997 0.94966412 16.5
1.6961682 -1.3386502 0.92158163 42
1.8465879 -1.3145466 0.92397523 23
2.1117249 -1.2179824 0.90871608 50
0.24591503 -1.1423148 0.99286056 11.75
0.16356172 -1.0491847 0.95408285 11
3.4139814 -0.081175737 0.9193188 46
3.472996 0.071972668 0.92435181 48
-1.0651833 0.44253099 0.93640649 6
-0.97012711 0.53494459 0.9754948 17.444445
-0.82652748 0.6656158 0.95118105 11
-0.73192221 0.74507624 0.99670947 29
-0.66732526 0.80876178 0.97232246 13.222222
-0.57575595 0.82814443 1.0341196 3.5
-0.45413443 0.99623919 0.95249069 28
-0.36346975 1.0832744 0.98524672 29
-0.28558093 1.1547062 0.98792416 27.5
-0.20010257 1.2317269 0.98396635 26
-0.10688701 1.3136548 0.98329538 26.5
-0.037449252 1.3788347 0.98923719 27.25
0.037613332 1.4436709 0.97531414 27.142857
0.12465194 1.5204434 0.96889991 26
0.22514915 1.6114414 0.97531468 27.714285
0.29250658 1.6736611 0.98056602 25
0.36819145 1.7388076 0.98083597 25
1.935523 1.7856518 0.94639671 65
1.9680159 1.7573962 0.90895486 67
0.5119853 1.8711309 0.99363261 23
1.8474472 1.8921642 0.95483458 60.25
0.59677958 1.9533173 1.0332497 24
0.70857435 2.0517895 0.99755049 23
1.7383705 2.0219655 0.98728216 60
0.76889938 2.1023304 1.0467482 23
1.5912117 2.1928387 1.0107735 60.400002
1.6600091 2.1168015 0.92377782 66
0.94149143 2.2595904 1.0422035 23
1.4654908 2.3366337 0.96379447 64.75
1.5145582 2.2775521 0.95556039 61.666668
1.3813578 2.4319141 1.0204924 66
0.58205777 -1.5171993 1.1579676 17
0.62422252 -1.5661916 1.1365126 16
0.50696629 -1.4356581 1.1099695 13.666667
0.37208763 -1.2790133 1.1162421 9
-1.0912699 0.42957488 1.1046942 6.6666665
-1.0506599 0.46383351 1.0926347 9
-0.98246092 0.52791482 1.1199697 20
-0.82604837 0.67127395 1.1174233 22.799999
-0.73602164 0.74997699 1.0988995 20
-0.67734277 0.80661041 1.1293371 16.4
-0.46641046 0.9985528 1.109786 30.5
-0.41491425 1.0428727 1.0509521 27
-0.35647869 1.1002076 1.1425517 27.142857
-0.26878208 1.1764872 1.108345 23
-0.18666714 1.2492287 1.1236064 26.625
-0.094085798 1.3295039 1.1068882 27.5
-0.021840308 1.3920907 1.0852394 28.5
0.052769721 1.4590738 1.1513219 26.5
0.11751007 1.5158529 1.1837593 27
0.19994806 1.5913495 1.1500539 25
0.33296877 1.7096688 1.1861182 22
0.52541363 1.8884494 1.0719204 23
0.67901707 2.0275764 1.0693877 21.75
1.7300358 2.0301626 1.1047767 57.666668
0.798985 2.139138 1.1195475 23.333334
0.90200245 2.2295783 1.1480701 22.5
1.6030588 2.1803257 1.1514568 55
1.6623061 2.1110752 1.0900328 53
0.9787522 2.2920623 1.1404463 23
1.0646745 2.3733635 1.1585029 23.333334
1.4598477 2.3449762 1.1136163 60.400002
1.5413485 2.2611856 1.1605985 57
1.3042756 2.5178401 1.1593688 60.599998
1.3780923 2.4356222 1.1126381 58
1.4622277 -1.8057853 1.3174455 56.5
0.74976474 -1.6933552 1.3066086 39
0.81266648 -1.7594267 1.2937169 7.5
1.5396186 -1.7324494 1.2604723 65
0.52022421 -1.441939 1.2410386 7
-2.3158488 0.1718169 1.3389063 0
-2.2403572 0.33326313 1.25956 0
-1.0917102 0.41006467 1.2478127 1
-1.0586607 0.47294965 1.2740149 7
-0.98015875 0.54292679 1.2477146 23.5
-0.9126147 0.60885847 1.3235099 21.5
-0.81621015 0.69121081 1.2713803 19
-0.74191803 0.74885315 1.2036361 20
-0.75508112 0.75513458 1.3226825 19
-0.67799622 0.81781054 1.25831 14.666667
-0.57184327 0.8417576 1.3218902 1
-0.46219382 1.0105543 1.2645789 28.333334
-0.43202856 1.0391349 1.2962285 27.333334
-0.36366716 1.0968741 1.2771479 26.5
-0.28328824 1.1656477 1.2438036 27.5
-0.21410137 1.2256389 1.265429 25.666666
-0.13975123 1.2930412 1.2635738 24.5
-0.054097112 1.3728447 1.2891245 24.75
0.026159663 1.4444451 1.27046 22.25
0.11314897 1.5214531 1.2772589 22.200001
0.21450229 1.6105653 1.2623032 22.666666
0.29008156 1.683857 1.3071494 19
0.34772104 1.7336699 1.2879509 19.857143
0.44801062 1.8266388 1.3125687 20
0.50092614 1.8710254 1.3024033 21
0.66800141 2.0253959 1.3452572 21.666666
1.5769825 2.2048993 1.2493446 57
1.0089589 2.3249402 1.2657489 22
1.4551556 2.353956 1.2863343 55.25
1.5192894 2.2822118 1.3039672 55.5
1.1898648 2.4882317 1.245198 23.5
1.3125099 2.5155573 1.2235497 59.5
1.3958521 2.4239178 1.2454305 59
1.1671975 -2.0704677 1.4603716 20
0.88839442 -1.8512404 1.3715618 6
0.93968934 -1.9123913 1.3624864 6.5
1.376279 -1.8657798 1.4008923 93
0.78627783 -1.7314323 1.3907521 8
0.6641283 -1.5976198 1.3753884 4.5
-2.3880394 -0.0014709064 1.4190955 3
-2.2746522 0.18133307 1.377769 0
-1.0961581 0.45670238 1.3899137 9
-1.0114659 0.53829491 1.4605422 18
-0.85042703 0.67191124 1.402802 12
-0.70348257 0.80849689 1.4355478 11
-0.48390719 0.99662298 1.4428512 27.666666
-0.43203783 1.0463344 1.4475383 26
-0.36886817 1.0954254 1.4179227 27.200001
-0.26509184 1.1833056 1.3634452 23
-0.20827943 1.2450879 1.4551818 24
-0.11445849 1.3249764 1.3747708 24
-0.022815753 1.4082328 1.4438219 21.5
0.046448778 1.4695965 1.3989036 21.5
0.13835768 1.5514719 1.3722873 22
0.22617967 1.6319863 1.3532426 21
0.44516671 1.8313019 1.3502063 21
0.58432102 1.9584156 1.3679687 22
0.6682291 2.0252275 1.376554 21
0.82128394 2.1661346 1.4272408 22
0.9081282 2.2409744 1.3919859 20
0.97296196 2.3028953 1.4659086 20.333334
1.437492 2.3693607 1.4004661 57
1.173329 2.4834454 1.4772474 22
1.316856 2.5124605 1.3935455 61.666668
1.3803377 2.4444625 1.4368414 54.25
1.0199984 -2.002044 1.5251368 8
1.1498445 -2.0824075 1.5641004 12.8
0.86353272 -1.8187412 1.5412284 3
0.95479578 -1.9134291 1.6419135 0
-1.1159947 0.43384451 1.5810611 2
-1.0609937 0.60135329 1.6498393 14
-0.94784677 0.65595847 1.6381661 11
-0.82185197 0.78754079 1.595598 12.5
-0.67175311 0.88295245 1.5873765 10.666667
-0.66787231 0.9642024 1.526491 14
-0.47219056 1.0116241 1.558502 24
-0.44258526 1.0358512 1.5773364 28
-0.35042578 1.1277884 1.616762 27
-0.29540366 1.1714306 1.5570618 23.5
-0.16841224 1.2855905 1.611111 21.5
-0.11367917 1.3301777 1.5329087 20.5
-0.070726067 1.3714868 1.5023966 20
0.9663505 2.2930517 1.5255072 20
1.0551159 2.3826773 1.5123292 17
1.1542008 2.4668994 1.5839174 18
1.2899673 2.5200005 1.546162 50.25
1.359749 2.4574904 1.545535 55
1.2698164 2.5520046 1.5863152 53.5
0.99120325 -1.953884 1.6576542 0
-4.6050229 0.19460051 1.7977499 68
-4.3766174 0.22302859 1.7940251 72
-4.2853689 0.20730864 1.79598 73.5
-4.0786872 0.27743512 1.7916254 79
-4.0185084 0.22005452 1.7982928 73
-1.0663314 0.25047719 1.7993621 2
-3.9644213 0.30073696 1.7937402 84
-3.7168484 0.34108979 1.7942442 33
-2.461931 0.44357929 1.7969669 59
-2.3814895 0.42615086 1.7988111 50
-4.6133604 0.53731793 1.7788786 70
-4.3836746 0.55191725 1.7774829 79
-4.2976155 0.52734613 1.7802862 73.5
-4.099823 0.58355695 1.7825054 62
-4.0083132 0.55721784 1.7854134 45.5
-3.7574649 0.54580581 1.779611 84
-3.5265071 0.57278919 1.7842857 93
-2.3199148 0.59997755 1.7979101 14
-1.0743413 0.48473987 1.7147542 9
-0.98172885 0.54660219 1.7416921 8.833333
-0.86147249 0.59358156 1.7159594 8
-3.8166473 0.60133284 1.7757307 68
-3.673162 0.62227887 1.782994 87.5
-3.4995122 0.66137546 1.7775801 79
-3.3705752 0.65358925 1.7792284 85
-3.2884605 0.63078386 1.7859129 61
-3.1281261 0.70814383 1.7864119 72
-2.7822881 0.66323203 1.7810553 9
-2.4579546 0.66081929 1.7907838 2
-2.3837445 0.63311625 1.7933871 21
-0.94538915 0.68001699 1.6855615 12
-0.8214283 0.66779721 1.7576597 14.428572
-0.69561911 0.70864582 1.7926861 25.666666
-4.6383295 0.89024788 1.7662269 68
-4.3982329 0.88935471 1.7640735 68
-4.3144736 0.85465074 1.7653166 50.5
-4.101234 0.89351046 1.7599121 57
-4.0071001 0.85688531 1.7623844 74
-3.828573 0.86499894 1.7719691 82
-3.7468188 0.89577436 1.7746874 79
-3.4930859 0.86480892 1.7697717 80
-3.3097363 0.88609093 1.7735318 82
-0.7815606 0.81541848 1.6810187 12
-0.7018441 0.8373186 1.7303826 11.8
-0.53962922 0.85566717 1.7895322 23.5
-3.7989564 0.90278882 1.766703 75
-3.6735661 0.91198474 1.7721291 77.333336
-3.5029228 0.93843722 1.7661122 71
-3.3204689 0.94723773 1.7802864 5
-0.6278621 0.95260727 1.6695324 11
-0.48508143 0.9820115 1.7639569 39.666668
-0.39637053 1.0014408 1.7968504 71.5
-4.3557043 1.1578143 1.7459677 48
-4.060925 1.1454477 1.7614282 5
-3.7930813 1.126388 1.7632278 3
-0.38542625 1.1003319 1.7284179 39.333332
-0.28364176 1.1742471 1.7981592 81
-4.6776462 1.258497 1.758155 39
-4.403481 1.2341812 1.7434293 4
-4.1488457 1.2254531 1.7611851 5
-0.23126967 1.2395787 1.7382606 34.333332
1.2685684 2.5582902 1.6751117 57
-4.3704147 -3.6382952 1.9461128 47
-4.6092505 -3.3145957 1.9369084 42
-4.2269206 -3.3583255 1.9340993 31
-3.9283671 -3.433661 1.9490961 59
-3.7440748 -3.3307595 1.9462725 54
-3.9931283 -3.2025409 1.940407 59.5
-3.6775718 -3.2065074 1.9366165 62
-4.3610735 -3.1194842 1.9263161 46
-4.248909 -3.1408479 1.9318107 59
-3.6578426 -3.0213447 1.9311693 57.5
-3.3847847 -3.0723333 1.9435321 48
-3.90591 -2.9558811 1.9214996 60
-3.7369835 -2.879962 1.9275872 60
-3.544924 -2.9772198 1.9397501 58
-3.9861634 -2.7483845 1.9180244 58.5
-3.6967452 -2.7871604 1.9247428 64
-3.5310686 -2.8434474 1.924606 61
-3.4310789 -2.8454635 1.9379677 61
-3.1347466 -2.7395692 1.9274551 56
-3.6701965 -2.6090021 1.9165589 61
-3.5347631 -2.5723016 1.9225239 58
-3.4083972 -2.6633883 1.9198745 59
-3.2359335 -2.6540661 1.9205483 54
-3.7281976 -2.4418166 1.9143931 3
-3.5602593 -2.4477313 1.9091891 62
-3.411715 -2.5071592 1.9151208 58
-2.9589162 -2.4393015 1.918008 60
-3.4287155 -2.2902842 1.8993055 65
-3.2127309 -2.3312421 1.9034199 61.5
-3.1204817 -2.3880615 1.9117273 51
-2.6847522 -2.3422229 1.9101356 69
-3.489908 -2.1629133 1.9035702 3.5
-3.3988826 -2.1841486 1.8945421 3
-2.9412031 -2.1898437 1.9027172 33.5
-2.5432134 -2.1285932 1.8971575 66
-2.7283335 -2.0332639 1.8903893 60
-2.5864456 -1.862931 1.8883367 62
-2.4507663 -1.9383626 1.8912879 61.5
-2.3809135 -1.8048974 1.8982123 48
-2.4811075 -1.7048036 1.8886853 54.333332
-2.1611066 -1.7188678 1.8867978 57
-2.9572396 -1.6279405 1.8674761 2
-2.4020622 -1.5534836 1.8894795 55
-2.2668288 -1.5375522 1.8797075 54
-2.0232632 -1.5436499 1.8818537 62
-2.1717005 -1.4288939 1.8800036 58
-2.007802 -1.4054809 1.8721532 66
-1.9349127 -1.4422226 1.8751029 55.5
-0.28723398 -1.3672363 1.8839527 6
-2.0126338 -1.2726743 1.8706356 63.666668
-1.8875704 -1.293664 1.8741964 66
-1.7062637 -1.3143413 1.8814489 63
-1.6236987 -1.2359668 1.8706752 65
-2.0412989 -1.1260669 1.8639044 62
-1.9136982 -1.0949686 1.8641373 45
-1.716418 -1.0848889 1.8651316 73.5
-1.5521865 -1.1797692 1.8770777 35
-2.1662846 -0.93659186 1.8607305 6
-2.0490043 -1.0076778 1.8575321 64.5
-1.8563924 -0.92495418 1.8618898 34.5
-1.5537171 -0.99017602 1.8682196 73
-1.4426019 -1.0094157 1.8575283 19
-2.0231867 -0.88514286 1.8612628 5
-1.721706 -0.87909716 1.857447 6
-1.5922669 -0.82504225 1.8591725 58.5
-1.4551315 -0.85494375 1.8661219 74.5
-1.3064989 -0.850757 1.8682016 71.5
-1.1864405 -0.80199689 1.8603514 22
-3.4761403 -0.69322515 1.8280058 28.5
-3.3401124 -0.65534699 1.8317784 83
-1.5416881 -0.6829806 1.8600318 35.5
-1.4192135 -0.70713496 1.8611671 68.5
-1.252744 -0.68938828 1.8608962 77
-1.1478323 -0.65726966 1.8630809 63
-3.233161 -0.56653714 1.8342561 47
-3.0764618 -0.55694526 1.8417541 4
-2.3164229 -0.58033341 1.8408848 69
-2.186008 -0.53596735 1.8433512 72.5
-2.0750377 -0.45370975 1.8365611 77
-1.5282375 -0.54021329 1.8553125 48
-1.4473909 -0.55512261 1.8573956 69.5
-1.2867742 -0.54769009 1.8530079 61
-1.1321063 -0.54000664 1.8526214 37.200001
-0.97722059 -0.53513682 1.8593751 17.666666
-2.2969637 -0.36943659 1.8336806 78
-2.1605606 -0.36089528 1.829476 78
-2.0113666 -0.34118888 1.8395396 72
-1.8865203 -0.37731799 1.8409246 71.666664
-1.6986228 -0.34296343 1.8388554 71.333336
-1.5792043 -0.36809406 1.8487636 54
-1.4375601 -0.40211716 1.8532881 53.333332
-1.2610459 -0.4109365 1.8465509 30.333334
-1.1516727 -0.42820734 1.8487966 13.5
-1.0168197 -0.39770979 1.850087 2
-0.42542401 -0.35659578 1.836172 3
-2.7734971 -0.20190068 1.8256195 71
-2.4730723 -0.20614441 1.8281426 70.666664
-2.3164816 -0.17430252 1.8252872 70
-2.1820984 -0.17467144 1.8260763 83.5
-2.0523181 -0.21542153 1.8324324 67
-1.9132885 -0.20567459 1.8527743 30.666666
-1.7300422 -0.20968473 1.8368956 64.5
-1.5895932 -0.21397939 1.8418896 25
-1.4546894 -0.25510833 1.8461499 25
-1.2714919 -0.23412059 1.8380985 9.666667
-0.60178131 -0.17616838 1.8414398 16
-0.53676623 -0.20549729 1.8420918 21.25
-0.44657171 -0.27628902 1.8350903 19
-2.7517781 -0.13249186 1.8237742 75
-2.6386783 -0.038368244 1.8202966 74
-2.4299741 -0.06824863 1.8224055 74
-2.0964861 -0.081004791 1.827943 53
-1.9081006 -0.033196282 1.8276266 52
-1.7328364 -0.080642052 1.8315969 36.666668
-1.4550414 -0.10122648 1.8416978 9.5
-1.3421847 -0.13010702 1.8452336 4
-0.9444437 -0.066455357 1.8309166 3.5
-0.78783995 -0.00890473 1.8318843 9
-0.66943234 -0.082158096 1.831479 25.428572
-0.50970948 -0.087980241 1.8345419 51.5
-2.4710886 0.060918938 1.816244 70
-2.3320575 0.019014917 1.8174907 76
-2.1946323 0.011743421 1.8182729 76
-2.0549839 0.056221206 1.8201308 30.5
-1.8622158 0.14518879 1.8206838 21
-1.7644755 0.10238513 1.8265241 17
-1.4961345 0.057379361 1.8235084 0
-1.1225891 0.10627943 1.8295646 6
-0.92466325 0.13277949 1.8239955 34
-0.80779576 0.081630722 1.8256577 39.125
-0.67347276 0.062027853 1.8303795 58.666668
-0.52220178 0.076140292 1.8323538 77
-3.8027368 0.27150035 1.8240734 10
-2.4939313 0.23889846 1.8078173 61.5
-2.3411987 0.21593812 1.8086096 77.5
-2.2096763 0.20083901 1.8178176 46.5
-1.935552 0.16607709 1.819023 28
-0.95537835 0.22835837 1.8175638 39.142857
-0.81614929 0.22078796 1.8213198 69.571426
-0.67912245 0.22376855 1.8265151 77.625
-0.52206957 0.24271157 1.8250021 81
-3.8325515 0.31416461 1.8049052 31.5
-3.7272201 0.34559202 1.8079594 28
-2.4190667 0.31535599 1.8130327 40
-2.3119071 0.40225074 1.8017403 48
-2.238414 0.37446395 1.8012644 40
-1.9062457 0.33298624 1.8217584 4
-1.0690167 0.35448101 1.8152465 58.5
-0.95831633 0.37608641 1.8144572 70.800003
-0.82236463 0.37774563 1.8139939 79
-0.68725187 0.37177858 1.8204527 79
-0.51621878 0.39523682 1.8197445 79.333336
-2.4700737 0.48236254 1.81213 18
-2.2571747 0.56482106 1.8043662 10
-0.94758397 0.47818267 1.8113685 52.666668
-0.81746483 0.52506703 1.8093247 78.666664
-0.67875481 0.52498019 1.8124751 75
-0.52565044 0.52622426 1.8143032 83.400002
-3.1225278 0.71577471 1.8021961 9
-2.6347744 0.61985129 1.8006958 23
-2.5149863 0.66324025 1.8021606 3
-0.6631996 0.66060716 1.8066539 74.333336
-0.52001822 0.67104459 1.8173391 69.5
-0.43792397 0.73102009 1.8080591 79
-0.76006889 0.75377202 1.8058182 22.5
-0.65476626 0.83450848 1.8036883 20.25
-0.55055618 0.79594547 1.8045791 52
-0.41860649 0.83816147 1.8091868 74.666664
-0.37646234 0.95224965 1.8056874 68.5
-0.31659472 1.1008863 1.8045095 82.5
-4.2620711 -3.9128907 1.965988 41
-4.6330891 -3.8706932 1.9584132 40
-4.2556472 -3.655648 1.9556681 38
