# .PCD v0.7 - Point Cloud Data file format
VERSION 0.7
FIELDS x y z intensity
SIZE 4 4 4 4
TYPE F F F F
COUNT 1 1 1 1
WIDTH 152
HEIGHT 1
VIEWPOINT 0 0 0 1 0 0 0
POINTS 152
DATA ascii
1.4854861 -1.6166353 -0.75481468 4
1.7191453 -1.3980044 -0.76412767 4
2.1874008 -1.2856069 -0.76582229 0
1.9215887 -1.0689858 -0.76537848 4
2.2639346 -1.0626295 -0.76109147 8
2.1063392 -0.82359421 -0.77288812 7
2.4615295 -0.8950932 -0.76693237 7
2.2986784 -0.67112321 -0.77603227 7
2.6089644 -0.72420341 -0.75115699 0
2.5568285 -0.53503513 -0.77583271 6
2.3389194 -0.17351317 -0.79039693 5
2.829819 -0.15141015 -0.78737962 11
2.6921053 0.05113142 -0.77985555 29
2.826637 0.2614018 -0.80493325 12
2.8246806 0.47148523 -0.8036648 4
2.2609725 0.8138873 -0.82641309 10
2.3335812 1.0254267 -0.83410668 4
2.238831 1.1824384 -0.83813405 10
2.2515364 1.2533213 -0.84410703 8
2.0821402 1.4941077 -0.85805339 15
2.1245503 1.4745592 -0.84429097 7
1.9805348 1.6464483 -0.79982215 2
2.1334095 1.5198286 -0.75483179 31.5
1.9370797 1.7555591 -0.81661278 0
1.8051212 1.8797334 -0.82794768 48
1.5569488 2.1686895 -0.86848164 0
1.3161138 2.4543071 -0.79647332 3
1.1478913 -1.8258095 -0.60569018 56
1.4761448 -1.8880382 -0.60484487 115
0.93154901 -1.6969559 -0.64474517 10.5
1.5730822 -1.7067401 -0.66016459 96.5
1.6899056 -1.6994485 -0.60803497 116.5
1.1342826 -1.5329103 -0.64379954 117
1.5371252 -1.5427547 -0.7262935 15
1.722293 -1.6062727 -0.65436375 44.5
1.8330063 -1.5284184 -0.64230281 79
1.8480432 -1.4792958 -0.74662989 4
1.4007232 -1.2710896 -0.64412344 80.5
1.5324847 -1.1540419 -0.63872313 65.666664
1.7056892 -0.98946184 -0.63149679 3
2.0127735 -0.72630304 -0.63617617 12
2.4594402 -0.68516773 -0.66517758 103
2.2919683 -0.49186483 -0.6395691 36
2.3345408 -0.30450109 -0.70050818 0
2.9393401 -0.22248378 -0.71411371 57
2.6541152 -0.018820027 -0.69232053 24
2.8146775 -0.075048685 -0.6346435 25
2.8516324 -0.10857011 -0.6565358 1
2.6700139 0.097021475 -0.63805354 44.5
2.7288406 0.1711445 -0.70675039 34
2.8825152 0.30483896 -0.66052711 37.5
3.0438316 0.51990837 -0.65017599 40
2.8485544 0.7143501 -0.66324973 30
2.9482923 0.60123545 -0.72448671 1
2.7552996 0.83322322 -0.66287673 87.5
2.60484 0.99003339 -0.68806213 77.5
2.4730873 1.148097 -0.64525151 87.5
2.2900677 1.3455575 -0.62197387 98
1.9251683 1.5721688 -0.68721831 0
1.9167798 1.7733827 -0.68894362 93.5
1.9890244 1.6874056 -0.70836276 76
1.777859 1.9370012 -0.63540208 92.5
1.8351883 1.867116 -0.69348955 92.800003
0.73132521 1.9787151 -0.70167476 44
0.81326574 2.0510147 -0.66945487 47
0.89713281 2.1314988 -0.63173193 38
0.90969151 2.1139274 -0.6451723 4
1.0923338 2.306798 -0.71777236 1.5
1.0393133 -1.9157684 -0.5215016 61
1.1184144 -1.8508725 -0.51325428 11
1.5413737 -1.8296658 -0.55345219 100.5
1.2157944 -1.7529626 -0.59079105 65
1.6104957 -1.768416 -0.5483833 100.33334
1.7110243 -1.6776816 -0.59263861 92
0.55897081 -1.5514845 -0.47928172 2
1.7631192 -1.6299084 -0.52832359 89
1.8496422 -1.5483586 -0.47051316 91.5
1.9283881 -1.4568081 -0.56142056 84
2.0112498 -1.3870754 -0.49261251 113.5
2.1382411 -1.2866679 -0.52443767 78
1.5966594 -1.0866179 -0.57514948 74
2.2499428 -1.1903923 -0.4634777 92
2.3214746 -1.1125212 -0.52208674 24.5
1.7538688 -0.95924902 -0.58961242 42
2.1160827 -0.93554664 -0.55578309 0
2.5006938 -0.9574995 -0.49655321 60.25
1.8947206 -0.83183974 -0.58684218 31
2.6442287 -0.82720751 -0.5179354 67.333336
2.0325608 -0.74242663 -0.58467275 6
2.6702554 -0.61562175 -0.57702547 32
2.8144758 -0.69197971 -0.52260065 70.666664
3.0207701 -0.50950032 -0.55404204 30
2.340395 -0.43301445 -0.52490598 22
2.4759619 -0.40563348 -0.58086514 13
2.947432 -0.32253319 -0.54950649 25
3.0584996 -0.33650136 -0.46008015 34
2.6662209 -0.282592 -0.54240632 21
2.8479416 -0.11627588 -0.56164324 36
2.8709054 -0.12778829 -0.52165985 35.5
2.692117 0.067493975 -0.56931108 44
2.7134094 0.054143943 -0.52006233 44.5
2.8114359 0.24529956 -0.54854894 29
3.077148 0.45609069 -0.54366374 66
2.9243815 0.6446535 -0.54804569 69.666664
2.7690148 0.82030129 -0.54172862 80.25
2.6171272 0.98589498 -0.52883053 87.599998
0.90627569 1.1702853 -0.48971224 0
2.4788451 1.1482129 -0.50534374 90
-0.035604019 1.3105168 -0.4577471 8
0.32887471 1.3265796 -0.46479169 14
2.3508501 1.2893207 -0.50372297 92.25
0.29164183 1.3590927 -0.4538148 15
1.6639665 1.365124 -0.47993404 4
2.175446 1.4812359 -0.51177251 75
2.2605717 1.381216 -0.52319938 81
0.27794552 1.5862136 -0.48569912 47
0.3340531 1.6351752 -0.46242025 50
2.1479306 1.5186063 -0.47062564 92
1.8139174 1.8974285 -0.583947 94
1.9265513 -1.4688543 -0.40546709 67
2.0960121 -1.2958192 -0.40764898 150
0.6914283 -1.0737113 -0.42157009 6.5
2.232775 -1.1982056 -0.41734877 83
2.3631792 -1.0816935 -0.41928193 51
2.6380177 -0.84260756 -0.4270125 70
2.3482842 -0.42446673 -0.40882644 6
2.7521429 0.011097287 -0.40169278 42
2.7290108 0.17918842 -0.41533941 31
2.9976182 0.38367835 -0.43261892 25
2.9852998 0.57230347 -0.43613896 35
2.8391325 0.73312241 -0.42973033 51
2.705966 0.88600916 -0.4179911 76
2.5797529 1.0322094 -0.40087155 84
-0.23472007 1.1459577 -0.40719026 9
0.59751713 1.1846642 -0.42960799 6
0.67951995 1.075315 -0.42948008 3.5
2.5459201 1.070311 -0.44870463 88
-0.16160913 1.2010512 -0.4154368 10
-0.13111085 1.2277174 -0.40245774 10
0.00043488742 1.3434497 -0.4449245 12
0.32899612 1.3237343 -0.44408327 15
0.7137292 1.2132874 -0.43533108 1
2.4155836 1.2182615 -0.41547698 91
0.12637652 1.4534016 -0.41138458 51
0.84711093 1.4861766 -0.40727723 0
2.215508 1.4103322 -0.42180622 39.5
0.28025508 1.5960172 -0.41615513 52
0.35260475 1.6232553 -0.42639866 33
0.85956806 1.5034611 -0.40806311 0
2.0472064 1.623491 -0.40633565 65.5
0.40841186 1.7118584 -0.42593381 34.666668
1.9314413 1.7673442 -0.44020203 150
