# .PCD v0.7 - Point Cloud Data file format
VERSION 0.7
FIELDS x y z intensity
SIZE 4 4 4 4
TYPE F F F F
COUNT 1 1 1 1
WIDTH 1113
HEIGHT 1
VIEWPOINT 0 0 0 1 0 0 0
POINTS 1113
DATA ascii
0.20734854 -1.0709537 -0.17754571 5.6666665
0.72597998 -1.1687847 -0.19980472 9
0.79417896 -1.0939724 -0.17443626 10
1.5421488 -1.1129754 -0.17669192 87
-0.039925445 -0.9393841 -0.17393431 8.5
0.081896335 -1.0036448 -0.17339651 6.5
0.86784017 -0.97483319 -0.18192811 6.5
1.6067151 -0.97539377 -0.17189544 83
-0.33745733 -0.7708813 -0.17330614 12.875
-0.22860393 -0.82813746 -0.17605697 12.875
-0.11647427 -0.88867551 -0.1766727 10.333333
1.6900282 -0.82968837 -0.16429611 86.5
-0.49022833 -0.68635136 -0.16651353 11.625
-0.41206124 -0.72884846 -0.1838077 12.142858
1.2242496 -0.7021507 -0.15220939 151
1.7627056 -0.67344844 -0.18699472 87.5
1.2884794 -0.50479233 -0.16664763 70
1.3557366 -0.45081049 -0.1995205 151
1.8887687 -0.46357816 -0.18032928 62
1.3175329 -0.43514231 -0.16164465 70
1.8992691 -0.4354344 -0.17237091 76
1.9606737 -0.33634269 -0.19447564 66.5
1.5101154 -0.25865024 -0.15900752 154
2.2387559 0.18393005 -0.15090744 52
1.8694472 0.3924042 -0.17732862 161
2.4055753 0.45312896 -0.18968067 56
2.496352 0.62400931 -0.16867504 58
2.2915568 0.83030653 -0.18999377 45
2.4277551 0.76186788 -0.15017387 35
1.9858323 1.0098739 -0.1699298 53.5
2.1225636 0.92773885 -0.17352802 45
-0.89533156 1.2981337 -0.16413344 1
-0.21495819 1.2803135 -0.16959672 1.6666666
2.0797036 1.3336699 -0.19163236 33
-0.94216043 1.3784069 -0.18016705 57.599998
-0.89043361 1.4838496 -0.18353991 41
-0.11906242 1.4148173 -0.17571706 0
-0.82127494 1.6099198 -0.17679022 31.5
-0.77246773 1.6914456 -0.18542412 15
1.8208637 1.724527 -0.17585033 89
1.4491707 1.9340063 -0.17288743 92
1.5637894 1.8699527 -0.17802693 84
0.6336661 2.2013149 -0.19390714 150
0.8874442 2.2437415 -0.18914443 95
0.38128799 2.5200424 -0.18552905 97
0.26130497 2.5904143 -0.18326308 96
0.31069422 2.5679173 -0.15992925 100
0.80551845 -1.3754377 -0.092615783 53
0.52607918 -1.241973 -0.037369195 16
0.6894362 -1.2992954 -0.06919758 20.875
0.78035706 -1.2650722 -0.028695786 21
0.24365498 -1.0926185 -0.087031804 6.1666665
0.34741816 -1.1414822 -0.054248389 4.6666665
0.8072837 -1.1432322 -0.091733038 12.5
1.3548805 -1.1242229 -0.14072183 103
-0.039788276 -0.9393937 -0.086889513 8.166667
0.070409611 -0.99895108 -0.08738257 6.9000001
0.16165365 -1.0474253 -0.030782852 6
0.8770228 -1.0318707 -0.08643809 12.666667
0.94984657 -0.94989109 -0.056160435 18.333334
1.1528776 -0.96574795 -0.032328714 17.5
1.2769442 -0.97292125 -0.042616524 73.5
1.3911365 -0.99355245 -0.087248959 107
1.5621963 -0.95883328 -0.13319054 117
-0.33672625 -0.76781386 -0.066230118 13.285714
-0.22377546 -0.8313331 -0.084271125 12.68
-0.11409283 -0.88833153 -0.094263814 10.4
1.1494555 -0.79709649 -0.098129518 73
1.2327451 -0.89329994 -0.059073839 150
1.5384811 -0.82689267 -0.13366842 124
1.6693676 -0.77104068 -0.14972146 72
-0.6169852 -0.61756784 -0.044005111 11.888889
-0.52718592 -0.66514844 -0.078001566 11.894737
-0.41260186 -0.72658336 -0.080618918 12.55
1.1785197 -0.70638663 -0.087224022 56.799999
1.2279254 -0.64421904 -0.076581545 80
1.3970319 -0.65905225 -0.14501077 150
1.7011819 -0.68542874 -0.079626039 102.5
-0.81558633 -0.5058434 -0.022555264 12.818182
-0.69535041 -0.57346433 -0.043105811 11.909091
1.2995784 -0.52866864 -0.10749454 111
1.3629881 -0.46981111 -0.052278623 155.66667
1.7998788 -0.53748751 -0.1482117 98
1.8623514 -0.46448642 -0.051097695 150
1.4028656 -0.38046789 -0.13736022 153.5
1.772604 -0.43671495 -0.13361904 124
1.9177754 -0.38105559 -0.048492283 82.5
1.9544692 -0.32439893 -0.029164379 81
1.48032 -0.24109162 -0.13367242 144.5
1.6258159 -0.17738518 -0.095585801 154.5
1.8926451 -0.1929723 -0.14242357 150
2.0331166 -0.19628587 -0.07027135 74.5
1.6016358 -0.084351204 -0.12303436 157
2.0522692 -0.10234678 -0.1439984 94
2.1386247 -0.018305702 -0.070750572 72
1.6438513 0.0045267073 -0.13351862 156
1.69371 0.087842904 -0.12749754 157.33333
2.1706939 0.084206916 -0.14248893 89.5
1.7630868 0.20219858 -0.12254935 157
2.1479301 0.2450362 -0.13227601 144
1.8398905 0.36778054 -0.10166858 107.6
2.3200755 0.34261686 -0.095130868 149.5
2.4628944 0.5763191 -0.061521508 105
2.5246303 0.68109769 -0.070066474 59.333332
2.2205665 0.87369239 -0.12115718 42
2.3613687 0.79003662 -0.11510009 42
2.5989783 0.83661646 -0.012869969 90.333336
-1.1548628 1.0103924 -0.0075742351 12
-0.63309038 1.0304372 -0.090709783 3
-0.57189935 0.99884176 -0.095134854 3.5
1.9463627 1.0271862 -0.092742629 52
2.0641088 0.96280086 -0.10551051 46.5
-1.0819833 1.141856 -0.031903449 10.25
-0.93867767 1.1714476 -0.10397763 33
-0.81834805 1.1509621 -0.092891023 4.4000001
-0.67128968 1.1300356 -0.10030978 3.5
-0.5438692 1.0967705 -0.10595333 1
-0.35377586 1.1801748 -0.063724943 1
1.6386167 1.1394141 -0.045159195 5
1.6935792 1.0979898 -0.066317774 0
2.0032852 1.1539015 -0.10683326 32
-1.0010892 1.2543623 -0.070862606 13.769231
-0.82605428 1.2819084 -0.1060733 3.6666667
-0.72547483 1.325021 -0.1187755 1
-0.31748873 1.2221138 -0.086153992 0.5
-0.23037951 1.2798651 -0.12005492 0.25
1.3420187 1.3301431 -0.082973607 13
1.5178392 1.2612455 -0.058299549 131
2.0770781 1.3032672 -0.14787723 36
-0.95218253 1.3761383 -0.11212913 15.333333
-0.88136172 1.4806297 -0.12442285 37.5
-0.22761768 1.4118809 -0.085097961 2.3333333
1.03703 1.4829956 -0.082171537 18
2.2324905 1.4892993 -0.034623418 79
2.2696133 1.4759712 -0.067563601 77
-0.81707335 1.5865734 -0.12611651 35.799999
-0.61537588 1.5651939 -0.10534541 8
-0.54577869 1.560167 -0.10188437 8.166667
0.85715705 1.6015921 -0.083529823 52.333332
0.97984791 1.5945172 -0.069121078 17.333334
2.0161107 1.5840592 -0.049631052 85
2.1489317 1.5448668 -0.10460576 78
-0.73546243 1.7438866 -0.145482 35
0.8742736 1.7186624 -0.068988077 3
0.93255621 1.6970364 -0.047970828 70.333336
1.6882193 1.7949611 -0.12203584 77
-0.5013901 1.8250171 -0.10735513 6
-0.41399235 1.8326163 -0.10500584 0
0.0043747546 1.8800282 -0.089571215 11
0.42052695 1.874804 -0.097084202 23
0.57715571 1.9111074 -0.14354268 6
1.2903085 1.8962234 -0.08427006 0
1.4467096 1.9330505 -0.13123213 86.333336
1.5620939 1.8728145 -0.13920397 80
-0.50782132 1.9733994 -0.12506795 2
0.060356271 2.0442896 -0.10248477 0
1.302711 2.0139723 -0.118727 46
1.3750595 1.9770817 -0.10828216 53
-0.52063745 2.1545544 -0.11749882 23
0.75183338 2.1911001 -0.07860703 13
0.92291397 2.2314928 -0.1457673 94
0.51635957 2.2818663 -0.0962447 4
0.73243314 2.3262181 -0.14475122 102
0.22120723 2.4836149 -0.099587761 1.5
0.23720653 2.6005135 -0.13348396 98
0.31491029 2.5541384 -0.13681152 114
0.71863359 -1.3525019 0.05958074 29
0.78133792 -1.362008 0.13523245 34
0.53430247 -1.254986 0.10223494 1
0.704162 -1.3012104 0.081243791 20.5
0.80090332 -1.2468756 0.10894618 13
0.23352793 -1.0831739 0.054622743 6.5714288
0.34876624 -1.1422969 0.053148463 4
0.86477017 -1.1144521 0.073888786 34.909092
0.91670352 -1.0551188 0.13742512 32
1.3430349 -1.0614899 0.031542506 150
1.4700975 -1.058103 0.13881153 148
1.514483 -1.1476701 0.11007636 80
-0.04762879 -0.93608749 0.060079582 8.3000002
0.063715488 -0.99340314 0.04101881 8.6000004
0.15577661 -1.0434595 0.032497104 6
0.94674343 -0.97088623 0.046568148 34.42857
1.090901 -0.92960119 0.090053014 155
-0.32375383 -0.77624029 0.079978392 12.125
-0.22119218 -0.82912803 0.089475095 10.409091
-0.11525352 -0.88482398 0.072465822 9
0.9875046 -0.89772975 0.13065779 9.5
1.1597204 -0.81372631 0.068910345 131.25
1.7115866 -0.77941197 0.085699908 74
-0.62441999 -0.61198884 0.085690975 12.5
-0.52766544 -0.66368681 0.069407538 12.354838
-0.41531408 -0.72481948 0.048034694 12.818182
1.1674156 -0.7241317 0.043379787 59.200001
1.2151568 -0.67053747 0.064063355 84.5
1.596017 -0.61712563 0.11217248 151
1.7386798 -0.69580483 0.05732353 91.5
-0.91441709 -0.45502678 0.092173882 10.5
-0.82169026 -0.50244635 0.067654766 12.8
-0.70324588 -0.56895298 0.058655974 12.653846
1.3415591 -0.487674 0.10747808 139.66667
1.3856108 -0.47542539 0.067672461 155.71428
1.8721169 -0.49769497 0.074108779 65
-1.1256895 -0.37442231 0.12643774 0
-0.93395901 -0.44362748 0.095037639 2
1.9368944 -0.38748887 0.073814943 65.75
1.9664624 -0.32736853 0.08353173 61.5
-1.1098866 -0.21963713 0.12293282 0.5
-0.79361784 -0.19559893 0.024204055 2.5
2.026875 -0.22538877 0.068565242 63.857143
-1.1048863 -0.091875076 0.093538918 4.25
-0.93450052 -0.087749913 0.025855819 0
-0.83576155 -0.13489154 0.01194572 3
2.0877988 -0.12449317 0.083484374 72
2.1249166 -0.058673024 0.087664761 69.25
-0.89674473 0.11587805 0.11866965 0
2.1964607 0.069518484 0.076122232 64.571426
2.2481196 0.18454424 0.11025002 57
2.2847898 0.23233634 0.060704373 62.25
1.8919685 0.38878712 0.0021575047 161
2.3582463 0.36843798 0.088702634 60
-1.2445105 0.5658884 0.12929727 0
2.4603207 0.54839653 0.12998271 57
-1.3166369 0.70848763 0.13105986 16.5
2.5294135 0.69053507 0.071805023 59.666668
-1.2481704 0.84353417 0.10588364 13.9
-1.215295 0.92022049 0.087351993 13
-1.1624312 1.0061283 0.080364048 11.894737
2.6685793 0.92987847 0.067490131 60.333332
-1.0893908 1.1346241 0.07514216 10.307693
-0.30352998 1.1912948 0.10150694 2
2.7669034 1.1235296 0.062307354 59
-1.0207651 1.2607272 0.052491281 9.3846149
-0.24313186 1.3012689 0.1375962 2
2.5140877 1.3365802 0.11044795 68
2.6442564 1.2721659 0.090349138 68.333336
2.7050409 1.2302594 0.093882613 65
-0.93572015 1.4157497 0.059439715 22.666666
-0.1886636 1.4050299 0.1139736 4
2.245991 1.4846814 0.088337325 75
2.3676333 1.4126797 0.065053195 89.5
2.4088414 1.3924894 0.068038456 70
-0.8604812 1.5549492 0.11004886 52.833332
-0.10572567 1.5592937 0.11707184 4
2.0631914 1.5882627 0.094955035 73
2.1569047 1.5343713 0.048741903 71
-0.79575062 1.6682479 0.12441169 52
0.98894674 1.7555287 0.055115726 37
1.7262434 1.7759627 0.094214857 78.5
1.8886379 1.6879208 0.085818239 87.199997
1.9530821 1.6518611 0.12994611 76
1.5790193 1.8588712 0.1325728 80
0.98496151 2.190865 0.10484874 85.333336
1.0719676 2.1353798 0.08423052 82.75
0.67988479 2.3544841 0.016624535 94
0.43566072 2.489238 0.025928313 90
0.520208 2.4453413 0.079767503 92
0.30396724 2.5632043 0.1414237 87
0.73768359 -1.3573089 0.27583432 31
0.82098997 -1.3782192 0.24249603 63.5
0.56086767 -1.256724 0.24778889 11.25
0.66971821 -1.3194441 0.24046083 31.5
0.80829865 -1.2463071 0.18291865 26.5
0.23111907 -1.0810598 0.22244911 6.5999999
0.34747681 -1.1396607 0.2334343 4
0.74730307 -1.1805224 0.22433412 11
0.83980352 -1.1060091 0.23477836 11.666667
1.5221877 -1.1312966 0.26820907 80.25
-0.05657886 -0.92741412 0.25131086 7.4545455
0.077110849 -0.99989474 0.22823811 6.5384617
0.16334997 -1.0399776 0.25572422 7
0.86191726 -1.047374 0.22227049 9
0.93826014 -0.98821712 0.23044784 35.076923
1.1162677 -0.97214121 0.2140817 154
1.6052299 -0.97734529 0.27503276 70.666664
-0.33768499 -0.76551545 0.18928869 9.75
-0.21929744 -0.83345854 0.21626815 8.625
-0.14103863 -0.88162518 0.27600187 7.75
0.99758023 -0.89619404 0.16286141 37
1.6958295 -0.81187409 0.22772758 67.166664
-0.62412983 -0.61200029 0.20598666 11
-0.50667685 -0.67122149 0.23863977 9.5
-0.4051756 -0.72836143 0.20684853 9.9333334
1.7380273 -0.70499575 0.23081189 69.75
-1.1282563 -0.50942576 0.2403799 4.1999998
-0.91075951 -0.45084643 0.23533463 8.5
-0.82292563 -0.50084162 0.22376384 10.423077
-0.69575238 -0.57203001 0.21288067 11.777778
1.31678 -0.48034215 0.21975763 99.666664
1.3565652 -0.47773179 0.19379467 155
1.8780998 -0.48567158 0.22900844 63.599998
-1.0929189 -0.38574439 0.18600312 4.875
-0.94476032 -0.41192257 0.20408069 3.75
1.9293106 -0.39045802 0.212467 62.599998
1.9770979 -0.31473243 0.23011589 66
-1.2325331 -0.21966013 0.17465892 0
-1.1105008 -0.27728429 0.17160539 3.5
2.0265095 -0.22477089 0.20889349 66.111115
2.087014 -0.12980331 0.29163516 64
2.1181083 -0.071483843 0.22448388 63.599998
2.1871538 0.06780155 0.21755518 59.166668
-1.5448166 0.29432973 0.29497844 0
2.224314 0.15822525 0.18404454 49
2.3058717 0.27670473 0.23612784 56.75
-1.5202122 0.35050327 0.28228429 4.5
-1.4915472 0.40586177 0.26903439 7
1.7981062 0.40628222 0.16315079 11
2.3719404 0.4008311 0.23099697 57.166668
-1.421747 0.53494352 0.2375865 9.6000004
-1.2224921 0.49741566 0.17173064 0
-1.1999327 0.51679981 0.16219592 0
2.4522102 0.55078375 0.22993517 75.400002
-1.3128326 0.70968497 0.22513491 12.454545
2.482111 0.60870665 0.20123029 54
2.5525753 0.72393489 0.16908228 57
-1.2600808 0.83084631 0.21930785 13.45
2.5886323 0.79265219 0.20874436 53.75
-1.2210515 0.90843427 0.2892434 13
-1.1755017 0.98228073 0.20180558 12.166667
2.676075 0.95304883 0.26540923 53.5
2.7365396 1.0497981 0.20822191 63
-1.0938239 1.1309233 0.25582677 11.222222
2.7754729 1.1227065 0.24457058 53
-1.051214 1.2231786 0.25293088 11
-1.0096045 1.2865155 0.22690724 19.583334
-0.32901075 1.2792441 0.18910095 0.5
-0.28728306 1.318877 0.19609028 0
2.4976106 1.3439732 0.25356489 62
2.6158009 1.2878902 0.24933693 73.5
2.7286499 1.2236146 0.25042254 68
-0.93488944 1.4205582 0.18620415 51.75
-0.8958748 1.4949841 0.15673524 56
-0.14498658 1.3678721 0.26826084 1
2.3437355 1.4318478 0.23452199 73.75
2.466058 1.3604985 0.17078733 70
-0.86304933 1.5526953 0.18847498 57
2.0459409 1.6000546 0.2446738 71.666664
2.1848304 1.5197517 0.2015381 75.333336
-0.79615986 1.6783545 0.16997075 48
1.1384856 1.7084693 0.1931352 4
1.7124588 1.7813046 0.20102841 69
1.8483665 1.706993 0.21652482 75.75
-0.71626264 1.8047104 0.29387546 47
1.4387341 1.9156189 0.2417039 92
1.5634209 1.8646015 0.24004154 76.400002
1.6666727 1.8082254 0.18977261 76.5
-0.62596166 1.9848747 0.26786044 49.333332
-0.57030284 2.093467 0.29276264 47
1.0863118 2.0971305 0.18532372 104
1.272123 1.9643521 0.26626307 4
-0.52285039 2.1659415 0.23756324 50
0.88171607 2.2457509 0.19309878 86
0.95282704 2.2062111 0.20695959 83.5
-0.45939201 2.2862718 0.24959207 45
-0.40879476 2.3848038 0.27078125 50.666668
0.70608813 2.3455772 0.29161632 81
0.80869943 2.2899544 0.24344653 85.833336
-0.3861506 2.4245574 0.18771034 2.5
0.3954297 2.5165148 0.1823159 87.333336
0.21819033 2.6098521 0.27826181 81
0.82975996 -1.4084173 0.41516191 30.5
0.52944517 -1.2543535 0.39143455 3
0.65414941 -1.3134737 0.40727946 31.5
0.81252843 -1.2768306 0.33759344 63
0.2500926 -1.0880206 0.40544176 3.5
0.81550407 -1.1499143 0.30898303 11.5
0.97895736 -1.1385494 0.38766351 124.25
1.1568031 -1.0843641 0.33780497 71
1.2984817 -1.0949712 0.36083186 34
1.4630063 -1.1556648 0.37627593 42
1.5332073 -1.0912148 0.34385934 67.666664
-0.053917758 -0.9279663 0.33780512 6.5999999
0.080121711 -0.99621314 0.34468362 6.5
1.0326254 -0.96173477 0.3486703 61.5
1.1178585 -0.94048196 0.36580399 61.5
1.2296247 -0.98915631 0.36115369 28.666666
1.3858006 -0.98898637 0.36204851 46.75
1.5870837 -0.97184855 0.34914067 58.142857
-0.34595099 -0.77215034 0.40368912 7.5
-0.23285222 -0.83230436 0.35501468 7.25
-0.12572892 -0.88333344 0.36806673 6.5
1.1323265 -0.82937497 0.36465073 53.599998
1.2729304 -0.84010267 0.35939795 44.5
1.4429265 -0.81199026 0.36359775 34.166668
1.6462765 -0.85031205 0.36518389 63
1.6876301 -0.79662055 0.34043252 54.5
-0.62767774 -0.61839122 0.3990005 7.5714288
-0.54881775 -0.65604526 0.3518315 8
-0.4257215 -0.7298097 0.39407682 8.333333
1.1823825 -0.66402119 0.35870951 53
1.2823399 -0.68858701 0.358459 42.666668
1.4486909 -0.6587553 0.36729461 23
1.5703496 -0.6914922 0.3639178 34.5
1.7286586 -0.69065094 0.35312629 44.5
-1.2118917 -0.49927092 0.43574175 0
-1.1616762 -0.53557372 0.38286653 6.3333335
-0.91520149 -0.46296763 0.40574491 7.5
-0.85107189 -0.49808586 0.37440577 7.4545455
-0.68827963 -0.57360142 0.382438 9.8000002
1.2833961 -0.49169967 0.30005056 55
1.362929 -0.58837819 0.36426413 45
1.5126644 -0.59632045 0.35711163 25
1.6842681 -0.47093153 0.36211538 49
1.8461117 -0.53279167 0.32976127 60
-1.1543349 -0.36285517 0.39161214 0
-0.9263733 -0.44274008 0.34955391 4
1.3587466 -0.44296235 0.30111122 150
1.6313673 -0.42915338 0.37651968 44
1.7283082 -0.3788178 0.36944398 48.5
1.894206 -0.38735119 0.33348614 61.5
-1.3642009 -0.17636009 0.40299144 4
-1.2427793 -0.22701819 0.37777433 0
-1.1875334 -0.28298774 0.40079576 0
1.7566161 -0.28568819 0.37368762 43
1.8475649 -0.2206504 0.37148917 52
2.0327208 -0.21510953 0.31486064 69.5
-1.3605771 -0.10719687 0.36609468 2.75
-1.3388262 -0.12313098 0.34421921 3
1.8962282 -0.10138687 0.37311518 48
1.9573324 -0.05554986 0.37070137 53
2.1170306 -0.060100514 0.31310272 64
-1.6726123 0.070168138 0.39966664 18.5
-1.640829 0.10014711 0.38155985 11.5
1.9432514 0.056223687 0.38102937 39
1.9819008 0.10695222 0.37765312 32
2.1920514 0.069785401 0.31197444 59
-1.5811363 0.22695433 0.39461666 4.8888888
1.9888915 0.23669606 0.38275918 41.5
2.2136023 0.16263552 0.3235904 42
2.2838159 0.24721538 0.33350414 57
-1.5243076 0.36313868 0.40109849 7
-1.4837301 0.42571145 0.34434068 7.1999998
1.7791498 0.37944677 0.32830143 47
1.8042519 0.40564564 0.34153318 11
1.9872931 0.33270538 0.38777408 152
2.3521185 0.37653503 0.35654801 58.5
-1.4346431 0.5177933 0.36659718 11.944445
2.4298868 0.5152396 0.38927653 51.5
-1.3241884 0.71585941 0.36750877 12.833333
2.5198183 0.67798996 0.386774 52
2.563556 0.74641961 0.31605273 55.5
-1.2642797 0.82704908 0.38902944 11.9
2.6178327 0.8565383 0.38930985 50.5
-1.2218192 0.90714264 0.39741647 10.5
-1.1686015 0.99679923 0.35898134 11.222222
2.6612606 0.92788357 0.37152466 49.5
-1.1129602 1.1004823 0.34413692 10.333333
2.7786798 1.1390172 0.39423743 58.833332
-1.0121124 1.2792645 0.37298203 50
-0.22960633 1.3123056 0.3144581 2.5
2.6362176 1.2728752 0.35073107 62.75
-0.92724574 1.4438949 0.42994082 48
-0.14359525 1.3799111 0.30462474 1
2.2338438 1.4979959 0.3192547 75
2.3137372 1.4494449 0.39633971 68.75
2.4711008 1.3654394 0.37047571 68.75
-0.86184603 1.5625925 0.40758705 47.57143
2.051939 1.5905681 0.3864986 71.333336
2.1732807 1.5261577 0.40673661 67.800003
-0.79337376 1.6832026 0.37561318 49.666668
-0.74629623 1.7656174 0.36656511 54
1.7443579 1.7634734 0.35964394 73.666664
1.8882046 1.6923678 0.37424824 72.25
1.95894 1.654826 0.39520937 72
-0.70661277 1.8384594 0.35901362 48.42857
1.4482898 1.923493 0.36530006 77.666664
1.5891685 1.8464729 0.36847126 74
1.6519566 1.8189638 0.42988682 65
-0.62812173 1.9797748 0.3554545 46.5
1.1845473 2.0812118 0.41144475 80.666664
1.2834623 2.0233035 0.38202381 75.714287
1.3573753 1.9810529 0.33733404 79
-0.5307591 2.1593778 0.33644208 49.666668
0.88048357 2.2422767 0.34378898 80
1.1434106 2.1019385 0.43090218 81
-0.41985747 2.3740931 0.34509921 51
0.68129569 2.3582304 0.36506429 76.571426
0.8098644 2.2853134 0.37010235 82.5
0.56291503 2.4216628 0.40730944 86
0.13616161 2.6537919 0.41105574 71
0.18608145 2.6277089 0.4127543 87
0.31492949 2.5565958 0.30240166 94
0.73315448 -1.3554822 0.59360993 33
0.82390535 -1.3670808 0.52588439 100
0.90763527 -1.4048946 0.4677332 150
1.1966285 -1.4779322 0.54452288 151
0.52275544 -1.2424196 0.53566945 14.5
0.63821876 -1.3017124 0.53342682 35.25
0.81400871 -1.3403287 0.55388165 93
0.21146496 -1.0704659 0.46879753 6
1.1751984 -1.1219677 0.50214523 45.42857
1.2266655 -1.1228415 0.5705741 116
-0.052984014 -0.92583084 0.52117389 5.4444447
0.067708708 -0.98974097 0.49893075 5.5333333
1.1606621 -0.94576585 0.46918428 24
1.2407738 -0.9640193 0.49647397 25.25
-0.33256516 -0.77216572 0.49033657 6.5
-0.18841015 -0.84455889 0.53952777 2.5999999
-0.11443742 -0.89229363 0.54816127 5.25
-0.62037438 -0.61890817 0.49854398 5.3333335
-0.50268233 -0.67949641 0.5402841 5.3333335
-0.41501847 -0.72843963 0.50308871 6
-1.1609094 -0.52154207 0.48508912 5.1999998
-0.82241702 -0.50721258 0.54703987 5.875
-0.71256071 -0.55935198 0.49662989 3.6363637
-1.1511505 -0.4329457 0.50307709 1
-1.3070713 -0.20005293 0.50556916 2.6666667
-1.3519421 -0.12598233 0.50710011 2
-1.3252271 -0.14049669 0.49225056 33
-1.6763802 0.060834233 0.50207871 13.5
-1.6301457 0.13807991 0.59245193 7
-1.5772676 0.25370577 0.50889802 14.666667
-1.534404 0.34858921 0.52535564 9.375
-1.4867572 0.43302679 0.50864261 7.6666665
-1.4332305 0.5297603 0.54051304 15.454545
-1.2711256 0.5293529 0.51322228 0
-1.3213013 0.7240541 0.49951002 11
2.5051074 0.65412211 0.57766014 48.5
-1.2703813 0.81007862 0.51311451 13.2
2.6027033 0.82686794 0.48132706 49.5
-1.2142671 0.92310095 0.5171057 14
-1.1533405 1.0250764 0.56243801 35
2.6678965 0.94036174 0.52008492 47
2.7083271 1.0237628 0.45199054 49
-1.098483 1.135554 0.55655521 55
2.7543881 1.1288854 0.55695921 49
-1.0556771 1.206355 0.50945896 57.666668
-1.01186 1.2908345 0.51011986 57
2.5079489 1.3470243 0.48471054 65.5
2.6271071 1.2753898 0.48210567 61.5
2.7315228 1.2172627 0.47604287 58
-0.94312805 1.4159509 0.50298953 47
2.3338509 1.4336188 0.50301552 67.800003
2.4681659 1.3638673 0.53010255 61
-0.85512662 1.5714238 0.48094624 50.5
2.0443227 1.5974739 0.52576798 70.285713
2.1796353 1.5203753 0.53462213 69
-0.78508437 1.6995353 0.47417867 48
1.7481104 1.7649277 0.53596097 66.571426
1.8829728 1.6895419 0.52791423 68.5
1.4203696 1.9457629 0.58690476 68.5
1.5846828 1.8547144 0.53034216 68.666664
1.2529259 2.0337474 0.51521432 68.5
1.3712842 1.966138 0.4807328 69
1.0046071 2.1757374 0.54507494 75.599998
1.1039385 2.1219344 0.50054848 75.400002
0.63876712 2.3724241 0.51062202 72
0.42304128 2.498836 0.5466252 78.75
0.52361709 2.4422383 0.50437129 79.599998
0.30602813 2.5633285 0.59598833 77
1.1526847 -1.5712299 0.67752248 33.666668
1.2626468 -1.583919 0.6573773 62.666668
0.78539383 -1.3625212 0.65472668 67
1.3213869 -1.4751043 0.68905687 59
1.364686 -1.4219896 0.7141574 73
0.50889778 -1.2278578 0.73215127 24
0.63007295 -1.2943776 0.71733594 33.5
0.84178919 -1.3425041 0.72091979 150
1.4233383 -1.3093947 0.73089629 67.333336
0.23256215 -1.0769079 0.73168224 3.5999999
0.34903392 -1.1402862 0.72609788 10.285714
1.4928405 -1.1667672 0.7447598 54
0.14709292 -1.0101261 0.72265875 2
1.571946 -0.96758902 0.61993295 28
-0.78796184 -0.52010715 0.60734522 1.5
-1.1858497 -0.37486425 0.73753703 1
-1.1983641 -0.28917038 0.63389111 3
-1.5945048 0.24132681 0.65117252 11
-1.5227834 0.37024471 0.67668819 15.875
-1.4833237 0.4293074 0.71204674 8
-1.438004 0.51853758 0.65408164 22.666666
-1.2460312 0.57163799 0.66717035 0
-1.3270005 0.71760958 0.68901199 38
-1.2677584 0.83033991 0.70214814 37.444443
2.584003 0.80169928 0.62645054 45
-1.2165475 0.91952628 0.68156278 58
-1.1822257 0.98553848 0.65116107 34.5
2.6752696 0.96401179 0.68686712 48
-1.1197172 1.0933919 0.62847126 56.799999
-1.0228333 1.2705308 0.6040585 54
2.5093734 1.3404744 0.6872794 59
2.6196642 1.2771378 0.61487097 54.5
2.7255599 1.221419 0.61190838 59
2.2408714 1.4839555 0.65705383 63
2.3267419 1.4404796 0.63928819 64.5
2.4213953 1.3958583 0.6269896 63
1.9485993 1.6485434 0.6123156 70
1.9864931 1.6261059 0.67718363 61.333332
2.1285682 1.5506194 0.67464888 61
1.7178044 1.7784268 0.68369824 57.5
1.8500048 1.7048851 0.67636335 65.25
1.9513717 1.6516706 0.610636 73
1.4627202 1.917134 0.6691823 62
1.5778087 1.85601 0.68320745 59.333332
1.6674871 1.8128324 0.64622444 64.5
-0.62712312 2.0160906 0.72557056 44
-0.58543593 2.0838056 0.73466825 42
1.1624787 2.0805593 0.61238444 71
1.3228045 1.9989502 0.70235348 65.5
1.3680924 1.9728527 0.70900625 65
-0.5272274 2.1998661 0.69373679 51
0.89241523 2.2360616 0.66879094 74.5
0.95988178 2.1968894 0.63827431 73.400002
1.0600342 2.1374888 0.68588185 67
-0.47950992 2.2800906 0.71138763 51
-0.43313172 2.3623209 0.73453164 47
0.82690859 2.2767982 0.69310725 75.599998
-0.41017467 2.4036837 0.66059387 45
0.38686383 2.5161285 0.70231676 79.75
0.5259496 2.4372306 0.61446357 71
0.24454659 2.5946238 0.69085002 79.666664
0.30130482 2.5711002 0.71846771 67
1.1532849 -1.5632802 0.8178876 23
1.2827333 -1.5328227 0.8424055 63.285713
0.74055737 -1.3571653 0.86814618 46
0.76355827 -1.3573861 0.84562474 52.599998
0.99741638 -1.4154855 0.862459 33
1.1124609 -1.4439105 0.86370093 41.625
1.2883422 -1.4439181 0.85005873 54.57143
1.3700707 -1.4177108 0.80249006 67.800003
0.52059841 -1.2385404 0.81956875 27.125
0.64744461 -1.3053844 0.83546621 33.400002
0.8233059 -1.3164694 0.82383096 77.5
0.97144866 -1.3160431 0.85937345 42
1.1503234 -1.3247572 0.86678505 36
1.2817301 -1.3289087 0.86673427 25
1.4282219 -1.3102307 0.81259274 66
0.23799811 -1.0839398 0.82215041 24.142857
0.37902009 -1.161027 0.83005172 24.5
-0.037278932 -0.92969346 0.83040857 15.75
0.075124577 -0.99254453 0.83263171 24.799999
0.1752903 -1.046028 0.84786558 30
-0.35390908 -0.76594549 0.8112312 0.5
-0.24891785 -0.80524617 0.82742167 0.25
-0.13193361 -0.88064772 0.85230905 11.333333
-0.61452132 -0.61639786 0.84830666 1
-0.4920581 -0.68625748 0.83962584 3.5999999
-0.40989771 -0.72640729 0.82709235 1.6666666
-0.77763867 -0.52839988 0.85119218 2.3333333
-0.68561137 -0.57807362 0.84636462 1.5
-1.2560269 -0.21008162 0.79499227 2
-1.0837065 -0.24734923 0.83447301 0.75
-1.0476583 -0.27606943 0.82103908 0
-1.6808903 0.068583123 0.8095724 18
-1.6429955 0.13934737 0.87240362 29
-1.6037209 0.20784971 0.7918703 29.200001
-1.5354347 0.33646441 0.79497576 32.333332
-1.4977913 0.40832737 0.8914994 29
-1.4407043 0.517564 0.8417201 29.833334
-1.3267727 0.72787118 0.78517938 63
-1.2853404 0.79556435 0.79333407 62
2.7674949 1.13957 0.75673366 53
-0.98948026 1.3427405 0.87551749 47
2.5985546 1.287722 0.76555103 57
2.7008593 1.2307557 0.78019667 60
-0.9401406 1.4362319 0.86960447 44.5
2.2175949 1.4995902 0.76068187 66
2.3198047 1.4423034 0.77048963 61
2.4223909 1.3886011 0.78200126 54
-0.90062505 1.5059408 0.85287046 43
-0.85859895 1.5869651 0.82924503 44.5
2.032799 1.5997463 0.79951191 60.666668
2.1608829 1.5256665 0.80315077 60
-0.78567064 1.7160261 0.79842323 45.5
1.7578464 1.751534 0.80877465 56
1.8685235 1.6916951 0.82889551 60.75
-0.7051686 1.8583541 0.76997888 48.25
1.4443612 1.9335747 0.81268293 59.666668
1.5531188 1.8707614 0.81486374 55.5
1.6656243 1.80821 0.83427179 53.5
-0.62770778 2.0016334 0.76783526 44.5
1.1499428 2.0940163 0.86890823 69
1.2388115 2.0431008 0.79346848 66.428574
1.3644906 1.9784619 0.84822488 58
-0.52769643 2.1932278 0.75629032 49.5
0.95754951 2.1925251 0.76661539 76
1.1101568 2.1138358 0.84891385 76
0.6922164 2.3479621 0.81779432 69.400002
0.80338234 2.284663 0.81694829 72
-0.38691139 2.4484925 0.75401127 7
0.56232631 2.4249132 0.89746535 67
0.14329393 2.6537583 0.86474097 79.5
0.21786931 2.6132944 0.8240881 72.599998
0.31492406 2.5605094 0.84819865 72
0.77029258 -1.3596615 0.95293522 39.666668
0.5369224 -1.2431666 0.91214925 24.666666
0.63858992 -1.2983246 0.93163109 23.666666
0.25169295 -1.0845796 0.94637424 31
0.38750824 -1.1595817 0.91723013 26.333334
0.45097029 -1.192813 0.90544176 36
-0.024612177 -0.93718779 0.96390593 27
0.075465217 -0.98881662 0.96800727 29.4
0.16524856 -1.0455009 0.90423882 28
-0.34396887 -0.76335907 0.9834078 12.333333
-0.25209621 -0.81055337 0.97172016 19.833334
-0.11425471 -0.88356823 0.98726797 33
-0.62382692 -0.60618109 1.0426962 30
-0.53357887 -0.66388845 0.9756524 11.428572
-0.40359998 -0.73211855 0.96814007 7.6666665
-0.81532139 -0.50860149 0.96234626 12.5
-0.70223415 -0.57137382 0.98832953 14.4
-0.93139803 -0.44044894 1.033667 17
-1.6840911 0.060954425 0.92099261 25.5
-1.6393875 0.14324117 0.99180758 25
-1.5925592 0.23374639 0.98051482 22.666666
-1.5309013 0.35239658 0.98968261 25.833334
-1.4819462 0.44478375 0.97451556 25.5
-1.4474705 0.51292253 0.94051105 23.666666
-1.2206683 0.92769855 1.0301069 54
-1.1686122 1.0175867 1.005599 45
-1.1074541 1.1306731 0.98553407 49.400002
-1.0577554 1.224293 0.92762369 49
-1.0159098 1.2950165 0.95744407 44.25
-0.95322609 1.4005415 0.95972413 45
-0.84785485 1.5856458 0.99463105 38
-0.76844937 1.7367868 0.98612833 44
1.7107918 1.7773095 0.91981506 53
-0.67744434 1.8975503 0.97826135 40
1.438805 1.9292355 0.96814108 52
1.56121 1.8621247 0.94768941 55
1.1804389 2.0712309 0.940992 58
1.2810106 2.0235188 0.96896678 57.333332
1.3801029 1.9651104 0.9643116 56.25
-0.57603455 2.1010902 0.989272 21
0.99279648 2.1871197 0.99718302 65
1.0872332 2.1329625 0.95293838 62.333332
-0.45530015 2.3078127 0.99163663 38
0.66445923 2.3658645 0.92672175 63
0.75663394 2.3121922 0.95356321 62
0.43619263 2.4958012 1.0172356 73
0.53278685 2.4387128 1.0096003 68.25
-0.31197658 2.5624912 1.0097866 32
0.12027916 2.664686 1.0034201 72
0.19153796 2.6246152 0.97722864 73
0.022109114 2.7198012 1.0169781 57.666668
-0.044376329 -0.92276573 1.1096177 29.5
-0.34253579 -0.76288563 1.1347218 20.75
-0.23035148 -0.82176816 1.129035 18.6
-0.62450111 -0.61360347 1.1473287 25
-0.51184845 -0.66780126 1.128041 28.5
-0.41276106 -0.72398263 1.1490489 29.5
-0.90720671 -0.45301524 1.1638066 31
-0.80042517 -0.51600313 1.1006016 15
-0.70107257 -0.56928205 1.1590319 27.5
-0.92957163 -0.44266981 1.1228858 12
-1.6664368 0.097914279 1.1216699 20.5
-1.5925465 0.24001913 1.1147146 22.333334
-1.5437571 0.3414124 1.091145 25
-1.3364398 0.71913743 1.1700073 53.5
-1.2665516 0.84538192 1.1537226 52
-1.2187881 0.93747509 1.1040074 53
-1.1847148 0.98803073 1.1073142 52.5
-1.1207639 1.1016458 1.1123348 49.333332
-1.0550967 1.2071834 1.0624629 49
-1.0290036 1.2629166 1.1406058 48
-0.95120639 1.4023566 1.1519145 43
-0.86379808 1.5634764 1.1123358 39
-0.80148751 1.6878798 1.1596191 35
-0.74161929 1.7774018 1.0597101 35
-0.72065645 1.8292164 1.1447437 37
1.4046099 1.9485437 1.0719738 54
-0.64431643 1.9757793 1.1047404 39.5
1.1735656 2.0820198 1.1071534 62.75
1.2567235 2.0298908 1.0904059 56
-0.54367846 2.1585188 1.1058795 34.5
0.89547187 2.2358406 1.0875013 68
0.9660297 2.1881757 1.1092436 60.75
1.102869 2.1202316 1.1492846 60.799999
-0.42729235 2.3601627 1.1088023 34.5
0.62975836 2.3768973 1.0571266 64.5
0.82596433 2.2740047 1.1552637 71
0.42139563 2.4999018 1.1243116 67.666664
0.52165675 2.441174 1.151089 63.25
-0.29037696 2.6117854 1.1298904 31.5
0.065455154 2.6941218 1.1199987 72
0.30421412 2.5638967 1.1502261 66
-0.08348579 2.7801287 1.1608624 72
0.013060194 2.7194109 1.1505218 65
-0.049723376 -0.91571736 1.3057681 25
-0.32499361 -0.76963633 1.319773 15
-0.22224481 -0.82633436 1.2788457 16.799999
-0.11307327 -0.88902664 1.2158971 24
-0.61458439 -0.61068636 1.324212 28
-0.52033228 -0.6688388 1.2939187 25.5
-0.41604105 -0.7244854 1.2766072 23
-0.84034795 -0.49198937 1.2642173 26.5
-0.6703912 -0.58819985 1.2654231 27.5
-1.6753386 0.08951667 1.2672874 21
-1.4496212 0.51122856 1.2749913 26
-1.3497406 0.69320685 1.2634394 47
-1.2926332 0.7908085 1.2692828 48.666668
-1.2110012 0.93747276 1.2588694 45
-1.1640902 1.0162843 1.2712588 48
-1.1227691 1.0982095 1.291716 48
-1.0651586 1.2054042 1.2562132 47
-1.0174289 1.2891512 1.2832074 45
-0.94153631 1.4307289 1.3009218 38.5
-0.8438971 1.6092976 1.2658609 36
-0.77487147 1.7431126 1.2964016 35
-0.69364583 1.8922124 1.2876049 36.5
-0.60939115 2.0441177 1.2340405 35
-0.5970127 2.0733984 1.3376153 31
1.1647006 2.0848463 1.2014338 56
1.2091914 2.0587156 1.208755 60
-0.5119285 2.2191703 1.2309867 36
0.88936037 2.2268631 1.2252135 63
0.98892593 2.1820793 1.2886823 58.857143
1.0859547 2.1276813 1.2636051 55.5
-0.49915838 2.2661648 1.3487524 30
0.71069723 2.3362815 1.3001711 63.25
0.80192012 2.281266 1.2791885 62.833332
-0.39061376 2.444716 1.2852203 31
0.40151864 2.5062699 1.2939678 59.5
-0.27083206 2.6530423 1.2504251 32
0.16709088 2.6393571 1.3014709 66
0.30565017 2.563978 1.2661953 64
-0.24061434 2.7276962 1.3383889 31
-0.10220343 2.7924948 1.2603023 68.25
-0.33093774 -0.77540874 1.385303 19
-0.22814581 -0.82160074 1.4116312 12
-0.087245867 -0.89514822 1.3984816 19
-0.65535027 -0.60101098 1.4287215 25
-0.53877354 -0.65840763 1.4329301 25.571428
-0.3718735 -0.74340647 1.4358058 20
-0.82682115 -0.50042385 1.4773239 24.666666
-0.69475108 -0.56604648 1.4370486 27
-0.95094514 -0.43344954 1.4740442 3
-1.5826141 0.26979935 1.4589428 20
-1.520586 0.39086732 1.4083453 23.5
-1.4893596 0.42899501 1.4563838 25
-1.439278 0.53939074 1.3929026 21.6
-1.3280585 0.72416627 1.3686566 53
-1.2678684 0.83874881 1.4167147 48.5
-1.1987567 0.95249134 1.4639658 51
-1.1177027 1.1085819 1.4301876 46.666668
-1.0566289 1.225955 1.4433434 43
-0.99909329 1.3346745 1.4417326 37
-0.93241882 1.4559572 1.4069958 38
-0.86602718 1.5863881 1.4212199 33.75
-0.79816461 1.7218117 1.4154974 33.666668
-0.71744257 1.8646264 1.3859955 30.666666
-0.62877828 2.0260489 1.3671445 29
-0.54400784 2.1782432 1.3603613 32
0.88746309 2.2383299 1.4311091 58.666668
0.94678497 2.2039587 1.4075354 58.666668
-0.47133398 2.3097811 1.3551683 34.5
0.67346686 2.3526046 1.4447428 54
-0.38769758 2.4551892 1.3690256 31
0.5794155 2.4132898 1.4157603 59
-0.32633263 2.5640244 1.3559573 31
-0.27276564 2.6624682 1.3871527 32
0.21053068 2.6168966 1.4397864 61.75
0.31618619 2.5529041 1.4065731 62.5
-0.19786561 2.7912123 1.387166 47
0.023161303 2.7253213 1.4777809 62
-0.31500289 -0.76702994 1.5609322 17
-0.23644443 -0.82101256 1.5930722 15.25
-0.12226026 -0.87424713 1.502627 11
-0.62404996 -0.61872315 1.5583978 25
-0.54894334 -0.65183741 1.5995932 28
-0.40686905 -0.72740746 1.5536051 22.666666
-0.78896493 -0.51307708 1.578439 27
-0.68285465 -0.57544649 1.6072888 26
-1.6622704 0.1327589 1.582076 19
-1.5952736 0.25961736 1.5647966 19
-1.5417892 0.3496995 1.5733638 20.666666
-1.4522673 0.50992996 1.5479037 20
-1.3541659 0.67823792 1.5082805 17
-1.3141662 0.74919862 1.5842224 44
-1.2523808 0.87238109 1.5735705 45
-1.1832218 1.0023561 1.5526561 46
-1.1077008 1.1452421 1.600215 41.5
-1.0686301 1.2114396 1.5276184 39
-1.0255324 1.3030386 1.6048063 41.333332
-0.9575913 1.421893 1.5531021 37.666668
-0.91776073 1.5098523 1.5205439 35
-0.85317343 1.5989717 1.5656657 39
-0.76827657 1.7550178 1.5602547 33
-0.67499357 1.9276023 1.5665971 32
-0.56702572 2.1147506 1.5796517 27
0.88195318 2.2341826 1.5079455 55
-0.44460061 2.3389192 1.6163216 28
0.61747694 2.3832836 1.5907512 55.5
0.80846465 2.2868814 1.5704385 57.333332
0.52820396 2.4447875 1.5670537 58.599998
0.21435477 2.612746 1.5610546 61
0.052839871 2.7069678 1.5691699 53.5
-0.33187661 -0.76949102 1.7550393 25
-0.60273248 -0.63024867 1.7664305 28
-0.51442307 -0.66794348 1.768273 41
-0.39199972 -0.73480594 1.6965498 23
-0.8493638 -0.49010172 1.6519712 22
-0.70067918 -0.57020468 1.7156554 28
-1.2411977 -0.36029992 1.773254 2
-1.1792068 -0.38229915 1.7870346 2
-0.9350704 -0.4329415 1.7262708 30
-1.6752676 0.12068085 1.6965495 17
-1.6238704 0.095892474 1.7137769 2
-1.6161048 0.21670499 1.7120875 15.5
-1.5515363 0.33622393 1.7153809 16.5
-1.4626939 0.49425524 1.7123373 17.5
-1.3369292 0.47722468 1.6898605 2
-1.2841913 0.82854581 1.723297 48.5
-1.2131296 0.96593893 1.7762879 48
-1.1904259 0.9862932 1.6517507 44
-1.1180246 1.1291518 1.6894035 45.5
-1.029016 1.2780993 1.7777485 41
-0.96029598 1.4069105 1.7423149 39
-0.88760126 1.5421017 1.7171024 32
-0.80617273 1.6795909 1.6945814 31
-0.72127819 1.8356385 1.6891702 28
-0.6274423 2.0072613 1.6963857 27
-0.52123863 2.2015488 1.7161449 28
0.70329154 2.3455024 1.7263153 54.42857
0.76317471 2.3110433 1.6746124 56
-0.39879131 2.4247191 1.7528411 27
0.34693468 2.5453849 1.7251413 54.5
0.50196773 2.4534011 1.70648 56.200001
-0.2994602 2.6001182 1.6690737 31
0.090406343 2.6818297 1.7316525 60
0.16584803 2.6350489 1.6591033 59
-0.099859931 2.793644 1.7361821 58
-3.9389534 -2.2607982 1.8200618 63
-3.9470673 -2.1826029 1.8168226 4
-3.5823352 -2.1411171 1.823125 61
-3.6990995 -2.005204 1.8210455 3
-3.6716096 -1.9209452 1.8234819 4
-2.9636998 -1.5074431 1.8219808 5
-2.1969066 -1.211291 1.8283991 7
-2.1514881 -1.0580801 1.8232034 47
-2.067986 -1.1119405 1.824047 47
-2.1488576 -0.98179913 1.8313359 5
-2.0519948 -0.95572764 1.8363003 37.333332
-2.2520659 -0.83952123 1.8583349 1
-2.132004 -0.77608722 1.8247558 2
-1.9283454 -0.86959541 1.8346983 15
-0.31246001 -0.79065323 1.8023442 31
-0.21049243 -0.81327325 1.8228828 40
-1.6644354 -0.66538835 1.8360347 20
-1.580397 -0.69693023 1.8370651 24.5
-1.4757202 -0.69283408 1.8325374 38
-0.50836778 -0.6436767 1.8341008 78.333336
-0.38032141 -0.65674603 1.8412026 76.14286
-0.26977217 -0.69712263 1.846259 62
-3.3945119 -0.54000324 1.8134803 4
-2.2577703 -0.46709809 1.8156544 14
-1.5729873 -0.53443921 1.8356677 70.25
-1.4903769 -0.58459002 1.8398398 68
-1.2643852 -0.51722211 1.8394049 84.5
-1.1477133 -0.51904237 1.8323324 59
-0.81510997 -0.48002547 1.8263617 75.25
-0.68214464 -0.53331131 1.8304813 80.714287
-0.50820929 -0.52372307 1.8365875 79
-0.37544203 -0.51303941 1.8396655 73.333336
-2.3560095 -0.37969011 1.8092571 27
-2.1889014 -0.3596555 1.8151146 72
-1.7015574 -0.36270371 1.826389 73
-1.5802082 -0.39302438 1.8358269 74.199997
-1.3584266 -0.39106134 1.842353 86
-1.11528 -0.39186344 1.8269963 19.666666
-0.97660446 -0.36453694 1.8304724 80.800003
-0.80128074 -0.3603543 1.830513 83.833336
-0.68547481 -0.37923887 1.8345573 80.545456
-0.5251112 -0.39188898 1.8388504 81
-0.3870745 -0.37468007 1.8430957 81
-2.3299205 -0.21989508 1.8156757 44
-2.1792688 -0.20452428 1.8212243 49.5
-2.0675955 -0.1880362 1.8204366 79
-1.8027433 -0.1973107 1.8275548 75
-1.6943153 -0.19697523 1.83444 30.25
-1.5507029 -0.2786119 1.8408113 63.5
-1.3819358 -0.24115533 1.8383454 89
-1.271745 -0.23829561 1.8321128 82.25
-1.129051 -0.22785529 1.8356886 76.400002
-0.96749771 -0.22827362 1.8306808 78.5
-0.82053006 -0.22447267 1.834324 80.875
-0.67457831 -0.22531088 1.8362901 80.428574
-0.5262934 -0.22824293 1.8406396 76
-0.41616493 -0.25483733 1.8418611 75.5
-1.6914902 -0.04937518 1.822772 55.333332
-1.5623006 -0.086974785 1.8373249 76.5
-1.3996606 -0.091898002 1.8377877 102
-1.2874417 -0.10138362 1.8303053 85.75
-1.1408931 -0.067100614 1.8354192 79.666664
-0.9671253 -0.067761049 1.8459384 63
-0.81223005 -0.075996883 1.8366395 77.5
-0.68284196 -0.072036512 1.8378638 79.428574
-0.53270644 -0.077749908 1.8426564 75.599998
-0.43913642 -0.13479766 1.8391145 78
-1.5809132 0.079354659 1.8330436 83.666664
-1.4097711 0.056696612 1.8323938 90
-1.2791282 0.061756283 1.8314613 82.666664
-1.1277541 0.095908515 1.8369684 80.333336
-0.96815479 0.080024235 1.8324053 82.199997
-0.82359469 0.080175564 1.834896 80.625
-0.67927545 0.07837458 1.8387697 81.599998
-0.53894949 0.06430079 1.8407822 80.125
-1.5124017 0.27314439 1.8329307 0
-1.4145077 0.20664421 1.8318039 94
-1.2889559 0.21162787 1.8335577 84.599998
-1.1259719 0.2214071 1.8379579 79.333336
-0.99150246 0.22843103 1.8343384 78.400002
-0.81083959 0.22728696 1.8340515 79.909088
-0.6941638 0.22912744 1.8352176 77.14286
-0.53501189 0.22760622 1.8391485 83.14286
-1.4515655 0.38489139 1.82034 52
-1.2823114 0.36576232 1.8350285 85.666664
-1.1090281 0.37137097 1.838094 74.25
-0.98177451 0.38046789 1.8378165 77
-0.8214528 0.38465965 1.8357072 75.888885
-0.66737282 0.37873691 1.8342779 79
-0.54818851 0.36800894 1.8527063 77.199997
-1.2825532 0.5225035 1.8397808 94.400002
-1.0990416 0.51310664 1.8361963 70
-0.94953805 0.53486222 1.8343397 78
-0.81713247 0.53040856 1.8436995 75.800003
-0.70043153 0.5106191 1.8805063 93
-0.52606672 0.53419501 1.9224341 82.25
-1.2513676 0.68025339 1.8367091 91
-1.0997268 0.62324071 1.8395735 85.5
-0.97769582 0.6709969 1.8393975 78
-0.8098253 0.6809122 1.8375962 76.14286
-0.68433714 0.67719316 1.8812386 71
-0.53659421 0.68122095 1.8890287 68.571426
-0.41920668 0.68064106 1.8838569 61.5
-1.2650483 0.80177003 1.8326498 87.25
-1.1275889 0.84196568 1.8400602 87
-0.99246919 0.81989324 1.8467544 91
-0.84435833 0.81559485 1.8410203 79
-0.67158192 0.83520627 1.8458395 67.375
-0.52103245 0.82797277 1.8651803 56.799999
-0.40442407 0.83367556 1.8489299 58
-1.1295556 0.98653251 1.8342247 80.333336
-0.94651598 0.97049773 1.8477896 82.5
-0.81938601 0.97013205 1.8454467 81.666664
-0.66635102 0.96543169 1.8455194 87.166664
-0.52469903 0.96665883 1.8434199 76.625
-0.36512363 0.96777821 1.8447888 80
-1.1301589 1.1056452 1.8137064 62.5
-0.94707614 1.1457893 1.8427323 76
-0.8168484 1.0991173 1.8445256 79.599998
-0.67448056 1.1226377 1.8468161 81
-0.52988261 1.112483 1.8469185 79.25
-0.38433179 1.1354479 1.8485905 79.5
-0.27692905 1.1495085 1.8504868 69.5
-0.95786726 1.3145008 1.8391126 68
-0.82515001 1.2785815 1.8440386 70.599998
-0.66823345 1.2793648 1.8440834 68.25
-0.52546293 1.2834555 1.8464589 71.125
-0.40263009 1.2811637 1.8475357 63.5
-0.22556409 1.2819586 1.8487614 69.5
-0.82184553 1.4361149 1.8399471 70.75
-0.69507712 1.4334341 1.8419129 67.333336
-0.52847451 1.4534928 1.8427482 68.333336
-0.37167543 1.4232037 1.8455673 70
-0.22513118 1.42 1.8457668 69.199997
-0.11211751 1.4377794 1.8497647 73
-0.83324438 1.6034476 1.8292402 72
-0.6991787 1.5619085 1.8375355 69.400002
-0.53834015 1.6299851 1.8378102 67
-0.36543503 1.5592184 1.8432692 70.5
-0.23727846 1.5970175 1.8439842 69.14286
-0.082165077 1.5679914 1.8461307 67.833336
-0.7588343 1.7552778 1.8258542 62
-0.65580088 1.7170321 1.8346831 66
-0.54360598 1.7307906 1.831892 70
-0.36617687 1.7134848 1.8408686 65
-0.19705398 1.7283586 1.8452764 67.5
-0.071593218 1.7419629 1.8430653 72
0.068448842 1.7382454 1.8461102 69.75
-0.67514795 1.9175009 1.8280209 59
-0.54090631 1.8650748 1.837504 64.800003
-0.31151143 1.8947209 1.8370394 61
-0.24958251 1.8223569 1.8401651 71.5
-0.10779867 1.884231 1.8470631 64.333336
0.069900602 1.8731943 1.8423781 66.5
0.18188584 1.9067413 1.8447865 62.666668
-0.50388592 2.0403905 1.8317039 61.75
-0.39353499 1.9977571 1.8328925 61.666668
-0.17846888 2.0011797 1.8349382 61.5
-0.017606476 2.0159881 1.8438078 67.5
0.083664946 2.0357375 1.8441132 65
0.24427304 2.0227334 1.84338 64.199997
0.36427367 2.0755973 1.8430814 62
-0.35773844 2.1816189 1.8341432 58
-0.26600063 2.1902173 1.8499073 45.5
-0.061268121 2.1432576 1.8347178 60.5
0.11216161 2.1609497 1.8465755 64.25
0.25138664 2.1704597 1.8405433 60
0.39808312 2.1606855 1.8447949 64.666664
0.49619025 2.2116086 1.8451644 60.5
-0.47490487 2.2526519 1.8266464 65
-0.30692908 2.3580818 1.8327061 51
-0.22192091 2.3415966 1.8419573 58
-0.11945161 2.2554746 1.8291291 60
0.0696951 2.2913184 1.8367975 62.5
0.24063711 2.3236089 1.845512 62.400002
0.39971247 2.3010287 1.8449248 61.25
0.54767632 2.3045506 1.8417854 58
0.64150953 2.3534813 1.8387021 66.25
-0.35486346 2.4348273 1.8287958 59
-0.18295105 2.4537032 1.8330956 58.333332
-0.11036143 2.499799 1.8403057 52
0.031343531 2.4182477 1.8358203 61
0.21066548 2.4744689 1.8292555 56
0.39032611 2.4683948 1.8426975 63
0.52116418 2.4405341 1.8074261 59.5
-0.23793307 2.6555374 1.8196925 49.5
-0.047887057 2.5841601 1.8353525 56.333332
0.039369624 2.6783047 1.8352157 66
0.19680481 2.5670903 1.8279818 62
-0.044742215 2.7239199 1.8344694 67
-0.54811931 0.48103011 1.9707978 150
-0.45806223 0.60242999 2.123596 18
