# .PCD v0.7 - Point Cloud Data file format
VERSION 0.7
FIELDS x y z intensity
SIZE 4 4 4 4
TYPE F F F F
COUNT 1 1 1 1
WIDTH 143
HEIGHT 1
VIEWPOINT 0 0 0 1 0 0 0
POINTS 143
DATA ascii
2.0618658 1.3098218 -0.77825677 44
1.9023981 1.3668554 -0.79856122 6
1.6845993 1.7941887 -0.79931408 5
1.8338165 1.7001965 -0.79424804 3
1.1870238 2.0671325 -0.7992081 0
1.3417158 1.9697771 -0.81240737 7
1.0088483 2.1321468 -0.77160442 2
-0.24404211 2.374629 -0.83388662 4
0.23925449 2.3683121 -0.82489049 5
0.38017523 2.3986995 -0.82368451 13
0.68786091 2.2977588 -0.80904597 6.6666665
-0.20726299 2.4368172 -0.83211809 4.25
0.064295068 2.4211414 -0.83021259 5
-0.15448485 2.5916159 -0.83247405 6
-0.11251165 2.6563296 -0.82686108 3
0.14156921 2.5794842 -0.82553267 6
0.19646822 2.5520701 -0.82696062 12
-0.1620861 2.7337263 -0.82708508 4
1.1065588 -1.4952449 -0.61784452 55
1.4795624 -1.2361004 -0.61170727 87
1.5515147 -1.1004528 -0.64104068 87
1.6145481 -0.98290646 -0.63884658 87
1.6546531 -0.90232944 -0.61059552 89
1.7113491 -0.8033464 -0.6299634 87.333336
1.9039018 -0.38497588 -0.62560779 30
1.9335489 -0.14274906 -0.60071003 2
1.9485877 0.13708223 -0.61461365 2
2.1497257 0.084438354 -0.63438821 4
2.2728519 0.25682217 -0.65275478 1
2.0869172 0.39532241 -0.62843508 17
2.3107045 0.32660252 -0.65880281 13
2.1424205 0.89320052 -0.66733885 3
2.3749878 0.78526813 -0.71999717 2
1.9860432 1.0082463 -0.62320012 55
1.9787765 1.6404628 -0.69459647 4
1.829177 1.7223189 -0.67147863 43
1.5361969 1.8895985 -0.68216395 46
1.6768578 1.8011212 -0.64171189 80
1.1677687 2.093049 -0.64643592 92
1.2327539 2.0554984 -0.69346517 33.666668
1.3823446 1.9746039 -0.6357246 83
-0.50048268 2.1745374 -0.60628694 13
0.89123315 2.2410471 -0.69006848 103
0.98488426 2.1812012 -0.67672586 57
1.091978 2.1254768 -0.64174771 92
0.66403008 2.3654113 -0.689385 52.5
0.8555811 2.2589145 -0.74438441 6
-0.31747019 2.5164752 -0.71109855 52
0.40399885 2.5093627 -0.62990165 108.75
0.53065473 2.4452572 -0.68653268 87.599998
-0.27684787 2.5680468 -0.71415108 1
0.047672849 2.6958101 -0.71187317 7
0.1753213 2.6286557 -0.60090256 107
0.32302797 2.5651186 -0.70265329 24
-0.15637846 2.8010926 -0.64159316 1
1.1151769 -1.3832797 -0.59507817 11
1.3148494 -1.2268152 -0.59712315 63
1.4800603 -1.2424753 -0.59235203 55.5
1.5042585 -1.2013773 -0.5994584 90
1.2264782 -1.1846598 -0.55572468 8
1.5414097 -1.1216329 -0.52925509 73.400002
1.6106424 -0.98801905 -0.55617422 85.333336
1.7014047 -0.82517481 -0.50913197 87.25
1.7351949 -0.70416653 -0.46137589 112
1.3474814 -0.49301407 -0.46514675 156
1.3679221 -0.53748202 -0.47360435 155
1.8786016 -0.48775652 -0.51849627 80
1.4081833 -0.44525117 -0.48009908 155.5
1.9311905 -0.39502066 -0.53930271 70.5
1.9713967 -0.32243043 -0.51265931 62.5
2.0173922 -0.22417901 -0.53929937 33.666668
1.7687594 -0.034901552 -0.5848667 6.5
2.1144795 -0.072599694 -0.52985775 76
2.1972799 0.073536746 -0.54365367 64
2.2830601 0.22982669 -0.55329496 71.75
1.7909546 0.39343074 -0.5897646 62
1.8870561 0.43592167 -0.48426735 165
2.1766944 0.39053902 -0.57424408 86.5
2.3508921 0.35690549 -0.5012902 67.666664
1.8780167 0.52943361 -0.59337115 21
2.1090961 0.54071778 -0.55521911 5
2.3643832 0.57950449 -0.58845413 5
1.8977814 0.68509609 -0.58183879 3
2.4937034 0.71245986 -0.49684444 52.333332
2.2069747 0.88144016 -0.53680795 48.5
2.3176227 0.79674685 -0.5106796 42.400002
1.932183 1.0365356 -0.53450173 57
2.0326974 0.98089147 -0.50518125 54.25
2.1104195 0.92221975 -0.58432746 69.5
1.9722968 1.1176536 -0.46671772 35.5
-0.42002955 1.3012302 -0.47630328 31.5
2.0421386 1.2378937 -0.54314512 30.666666
-0.44468889 1.4575789 -0.51629621 0.5
-0.23787834 1.3629879 -0.47012278 6.6666665
-0.089236706 1.4388701 -0.50020152 3
2.1616662 1.4115554 -0.4555518 59
2.0300782 1.6158895 -0.50532341 19
2.1863735 1.5171543 -0.51219618 81
1.6743152 1.7991385 -0.56405336 86
1.5392194 1.8829954 -0.53482032 86.5
1.2411444 2.0434206 -0.51872516 92
1.3936837 1.9623226 -0.53251398 83.5
0.7167936 2.1459749 -0.53817189 9
0.83652335 2.2408454 -0.48151007 115
0.96631098 2.1974764 -0.55939233 91.199997
1.0796309 2.1285052 -0.52941775 71.5
0.67533326 2.3516145 -0.52440357 105
0.83804929 2.2722931 -0.49559957 97
0.3770473 2.5253875 -0.5290032 106.66666
0.57746446 2.4133296 -0.55159879 108
0.22905059 2.6028521 -0.51764423 103.8
0.30301887 2.5629659 -0.52103037 98
1.6093266 -0.99449331 -0.43392599 92
1.6844858 -0.84904677 -0.42901292 85
1.7502795 -0.69796312 -0.41433135 80.5
1.4511428 -0.50551778 -0.42199588 154
1.8816051 -0.47250894 -0.41011944 70
1.3664438 -0.44867939 -0.42484176 156
1.9484689 -0.35377464 -0.43781334 65
2.077071 -0.11334302 -0.41458952 69
2.1702149 0.019383714 -0.43390748 77
2.2295227 0.16230325 -0.44721469 63
1.894979 0.39197966 -0.44117096 163
1.9341946 1.0428286 -0.4413127 57
1.994235 0.99795216 -0.40967971 54
2.1456337 0.91398072 -0.43269473 48.5
-0.48301435 1.267215 -0.42591652 3
-0.3550671 1.287045 -0.43083256 12.222222
-0.20696589 1.3488711 -0.42905325 5.5
2.0744414 1.3100603 -0.41872835 36.5
-0.10879394 1.4540812 -0.40681291 6
2.0200484 1.6204338 -0.42261517 40.5
2.10237 1.5760379 -0.40914434 54
1.8660877 1.7114382 -0.43665326 19
-0.66038227 1.9115173 -0.40353885 7.3333335
0.62156343 1.9447684 -0.43996567 15
1.4073801 1.9491208 -0.43312466 81
1.2646738 2.0327275 -0.42512724 89
1.1156708 2.1130514 -0.40693861 87
0.71908277 2.327019 -0.41859195 120.33334
0.485632 2.4619663 -0.41340768 107
0.13184161 2.6545489 -0.43884572 102
0.16117264 2.6421103 -0.42116725 111
