# .PCD v0.7 - Point Cloud Data file format
VERSION 0.7
FIELDS x y z intensity
SIZE 4 4 4 4
TYPE F F F F
COUNT 1 1 1 1
WIDTH 970
HEIGHT 1
VIEWPOINT 0 0 0 1 0 0 0
POINTS 970
DATA ascii
-0.51667833 -0.65719074 -0.17062202 11.4
-0.37489283 -0.65898824 -0.17973274 11
-0.20554204 -0.65808654 -0.16517398 10.888889
-0.056283396 -0.65339816 -0.16656409 11.714286
0.04281339 -0.64944375 -0.17629944 9.6000004
0.22241506 -0.64843702 -0.16760686 8.5
0.37764025 -0.65721387 -0.16922191 7.4000001
0.49658775 -0.63523906 -0.17416048 4.5999999
0.72236353 -0.64847845 -0.15753435 7
0.84982359 -0.6460222 -0.17500725 7
0.82481879 -0.55314428 -0.19534142 0
0.81764936 -0.37028173 -0.17344533 0.25
0.822559 -0.22531033 -0.17018604 0.40000001
0.81641835 -0.14272042 -0.1728048 0.5
0.95898753 -0.11279788 -0.16011436 3
1.2506483 -0.023053454 -0.15850177 10
1.428097 -0.096060961 -0.16687378 61
0.97934264 0.054102782 -0.15690316 11.333333
1.0782346 0.090247951 -0.16490787 8
1.2836044 0.10154475 -0.16058616 9
1.4479671 0.09182594 -0.18015158 78.5
0.99786949 0.25593525 -0.17103808 9.5
1.0943017 0.22092584 -0.16843253 11
1.239767 0.22354944 -0.16327085 9
1.4493067 0.23722674 -0.18070789 69
0.95830917 0.3728649 -0.1670855 13
1.4122533 0.38348269 -0.18181033 53
0.98213893 0.51748705 -0.17998825 12.666667
1.4215946 0.50382453 -0.18315932 83
0.95345706 0.63325375 -0.17121568 13
1.0896009 0.74413115 -0.17516693 11
1.2668488 0.71902394 -0.16701071 82
1.4443249 0.70464098 -0.18435878 44
0.97653532 0.80704999 -0.17603257 83
1.3259976 0.77025312 -0.17689371 150
0.95517796 1.0277249 -0.17067948 10
1.3795331 0.98761356 -0.18192892 118
0.95182747 1.1455272 -0.1759868 60
1.3093532 1.1764988 -0.17607653 150
1.393208 1.3793817 -0.18548706 88
1.460191 1.8604757 -0.18656875 63.5
0.95606905 2.0274975 -0.15184115 59
1.151808 2.0274858 -0.17270282 51
1.3496366 2.0261869 -0.17708509 43
1.4223168 2.0039055 -0.17399168 102
-0.50923574 2.3561645 -0.1944783 151
-0.94326556 2.4907708 -0.15154029 4
0.78752726 2.5176923 -0.1701055 51
-1.2630574 2.5685794 -0.15597622 90
-1.0873495 2.5707407 -0.17302096 88
-0.9316259 2.5604506 -0.15372203 44
-0.89019161 2.5661263 -0.1644007 84
-0.39739066 2.573652 -0.18865769 110
-0.030873816 2.5751338 -0.17408949 99.5
0.071261495 2.5754471 -0.16726223 97
0.61623353 2.5753353 -0.1757949 97
-0.78267258 -0.65585822 -0.041060522 13.6
-0.6651184 -0.65639132 -0.06411244 12.756757
-0.53631449 -0.655509 -0.077870175 11.885715
-0.37803799 -0.65596259 -0.073854417 11.366667
-0.22024992 -0.65525156 -0.061496619 11.518518
-0.083857305 -0.6524331 -0.091214418 11
0.066428788 -0.64922851 -0.051635832 9.333333
0.22146323 -0.64650172 -0.10396214 9.4499998
0.37748984 -0.64781958 -0.11061738 8.818182
0.54656082 -0.65144885 -0.052695677 7.625
0.67694777 -0.64729923 -0.050610911 7
0.81964827 -0.64357674 -0.041954618 6.5
0.94560838 -0.64319414 -0.050484404 9.333333
0.84494889 -0.49773079 -0.076467685 0.53846157
0.84650224 -0.37045133 -0.066020682 0.41666666
0.85433096 -0.22531743 -0.077315778 0.75999999
0.85077775 -0.13557777 -0.076906703 0.2857143
0.95296216 0.08520788 -0.091088988 9.3157892
1.2633085 0.0045801187 -0.076914765 4
0.95279568 0.18773027 -0.088486239 8.5333338
0.96985304 0.41306368 -0.066645369 38
1.4481769 0.39656326 -0.054900903 48.666668
1.4582328 0.51835722 -0.025212333 52
1.4501765 0.66426426 -0.043977864 29.25
1.4540974 0.81597787 -0.037181534 61.400002
1.2141173 0.9063912 -0.1043917 14
1.4466497 0.96218282 -0.035097368 86
1.4517879 1.1558119 -0.029290205 69.666664
1.4501175 1.3064603 -0.0099542486 68
1.4319248 1.4279894 -0.03338382 70
-1.2411532 1.5337632 -0.024476295 0
1.4528722 1.6017457 -0.038436178 54
1.4518805 1.7952468 -0.031109428 44
-1.2166502 2.0492952 -0.087401919 82.5
-1.1935093 2.0413182 -0.071445145 157
-0.94676149 2.0237377 -0.09475036 34.400002
-0.67806691 2.0278037 -0.089780666 139.16667
-0.32343787 2.0862865 -0.038899366 39
-0.23170041 2.0666757 -0.10268605 47.42857
-0.14080761 2.0738513 -0.10992653 10
0.36348695 2.0331378 -0.093361899 73.400002
1.2755338 2.0820532 -0.10563997 151
1.4065536 2.0301008 -0.11619703 54.666668
-0.93969935 2.1689165 -0.13910395 0
-0.50727892 2.1429937 -0.12394459 2
-0.39603963 2.1082997 -0.044084553 114
-0.2225948 2.1916964 -0.018498724 123
-0.080559611 2.1042736 -0.11859719 2
1.2877878 2.1176901 -0.093792506 154
1.4582878 2.3410094 -0.018401161 58
-1.2056327 2.4424636 -0.10775832 0
-1.199289 2.50986 -0.001779263 150
-0.66723913 2.4883842 -0.087538041 30
-0.55022401 2.5313327 -0.12371237 6
0.3664372 2.458442 -0.1165281 2
-1.2404498 2.5621128 -0.1231367 53.333332
-1.0100317 2.5600984 -0.14326841 26
-0.89180934 2.5649076 -0.11916036 25
-0.67590433 2.5689633 -0.13512237 83.333336
-0.56613517 2.5645447 -0.1283163 73
-0.059610076 2.5605798 -0.12061388 47
0.051763278 2.5783002 -0.14838064 111
0.68417448 2.57165 -0.10867461 94.599998
0.76217395 2.5714109 -0.13240848 91
1.0998573 2.5734129 -0.0065279352 80
1.3335978 2.5694036 -0.040263269 120
-0.94927531 -0.65274161 0.082410045 12.222222
-0.82844031 -0.65520722 0.064665362 11.466666
-0.67740011 -0.65357071 0.061404016 13.037037
-0.52760351 -0.65424496 0.074253492 12.269231
-0.37548959 -0.65249604 0.07583376 12.033334
-0.22470668 -0.64853555 0.085969888 10.964286
-0.080682583 -0.6474008 0.055431474 10.931818
0.09327434 -0.64282686 0.098896831 7.2352943
0.22156559 -0.64668953 0.069939427 7.5
0.38256136 -0.6504392 0.066813543 7.5384617
0.52717561 -0.64645147 0.079798147 6.8235292
0.66052091 -0.64420789 0.070087746 6.6153846
0.81816071 -0.6426779 0.086424701 6.4615383
0.93683356 -0.63652432 0.055584557 5.1999998
-1.0840355 -0.46670192 0.099309258 0
0.86749399 -0.52591175 0.066217721 2.5294118
-1.1001718 -0.3877728 0.12520546 0
0.86293387 -0.39015371 0.044236034 1.2727273
-1.0699798 -0.16381533 0.1343599 5
-0.9969275 -0.19467729 0.12765023 4.25
-0.85954601 -0.29718035 0.12623608 0
0.858904 -0.27789032 0.0059274687 1
-0.90327519 -0.14583927 0.10980921 1
1.3094475 -0.011440451 0.087738201 148.5
1.4305589 -0.068127394 0.076185815 43.400002
1.0491477 0.010223608 0.0038277162 0
0.94509596 0.19568707 0.016858423 11
0.94870573 0.42481887 0.05520235 27.75
1.4431081 0.39286941 0.051195096 44.200001
1.1134818 0.46866935 0.04022881 8
1.4550463 0.49893221 0.087985612 71.599998
1.457222 0.69731468 0.075100541 54.857143
1.4546387 0.82009041 0.075026855 72
1.4550203 0.98067623 0.087804288 71.666664
-1.2521302 1.0959016 0.12277148 2.3333333
1.4519293 1.1115229 0.056936096 72.199997
-1.2692131 1.2422091 0.10032192 6
1.450285 1.2660093 0.091117136 67.666664
-1.2634637 1.4303781 0.092860959 4.25
0.95365709 1.4031138 0.05154613 33.666668
1.4437923 1.417017 0.096358538 65
-1.2568907 1.5393646 0.12712026 1
1.4572468 1.6029404 0.073724963 62.5
1.4573658 1.7833737 0.078826003 54.5
-0.30243778 2.0895269 0.0049587144 55
1.4510937 2.00541 0.065816812 76
-0.39975291 2.1798658 0.075942859 118.71429
-0.49292508 2.5039961 0.12298089 139
0.46742249 2.5406868 0.0062971367 150
1.4619507 2.5052986 0.022727961 61
-1.6176878 2.571162 0.10550743 73.800003
-1.4097147 2.5678232 0.068331048 83.285713
-1.2637841 2.5712712 0.080687329 75.800003
-0.97345179 2.571939 0.098308548 83
-0.8440873 2.5742898 0.084163882 88
-0.6889537 2.5751152 0.029071921 96
-0.55947047 2.5775008 0.13682741 87
0.093960151 2.5836945 0.10769018 87
0.21623082 2.5770218 0.11027463 87.400002
0.36757892 2.5728989 0.061547812 94.285713
0.94288164 2.5767179 0.11388549 74
1.1641363 2.5745893 0.077226959 70.5
1.2727808 2.5804672 0.12881513 72.666664
1.4128994 2.5728545 0.064418957 72.400002
-1.1326786 -0.61491901 0.27891064 1.6666666
-0.95469856 -0.65972865 0.20365301 9
-0.82520175 -0.65419108 0.21734582 9.2352943
-0.66903698 -0.65338796 0.21047787 10.8125
-0.51620448 -0.65134025 0.22095504 10.263158
-0.38117301 -0.64731675 0.21517561 9.8000002
-0.22947289 -0.64483863 0.21963803 8.333333
-0.064094082 -0.64099115 0.22523487 5.2105265
0.084316656 -0.64477283 0.22574681 6.7368422
0.22490655 -0.64605904 0.19614294 6.8333335
0.37091252 -0.64469475 0.17189661 6.5714288
0.53646767 -0.6432218 0.17117047 6.1428571
0.68044478 -0.64317369 0.17714402 6
0.81328559 -0.64101791 0.18070918 6
0.92303735 -0.63167113 0.20194982 17.75
-1.0939566 -0.51068884 0.20970666 2.5
-1.0413364 -0.47172001 0.20875391 7
0.95018572 -0.58167619 0.20706099 76
-1.0855449 -0.38888872 0.17844486 2.25
-1.0299081 -0.40727848 0.20097621 5.25
-1.1213022 -0.27344719 0.16909188 0
-1.0490578 -0.16054417 0.18184954 6
-1.0521713 -0.14432743 0.15387505 3
1.4428829 -0.056419212 0.20179474 78
1.4492042 0.024402333 0.26240355 66
1.4367219 0.4006485 0.20020843 61.333332
1.4543866 0.47488132 0.24070951 66
1.457379 0.69116467 0.222195 44.400002
1.4557121 0.82822406 0.22096875 66.555557
1.4534739 0.972884 0.21113129 69
-1.3036724 1.1630449 0.22029591 4
1.453692 1.125175 0.23220879 66.125
-1.2771651 1.2791752 0.21704762 5.125
-1.1839402 1.3253205 0.23461804 0.5
1.4510188 1.2412218 0.24639428 65.5
0.94194776 1.4055825 0.21346378 11
1.4495318 1.3865608 0.23040032 64
1.4557153 1.5689937 0.23299868 62.5
1.4547262 1.7463202 0.26129615 56
1.4547405 2.226932 0.21644515 50.5
-1.8149972 2.5712812 0.24335937 72
-1.5809389 2.5737512 0.20503366 69.85714
-1.4263812 2.5729041 0.1994644 69.75
-1.1385752 2.5731335 0.21653648 75.400002
-1.0045826 2.5724146 0.21708465 82.333336
-0.69737917 2.5780394 0.26363635 86.666664
-0.57660931 2.5782197 0.24117756 86.199997
-0.053286973 2.5821784 0.21708065 88
0.070445128 2.5773594 0.25268164 88.714287
0.22891237 2.5763457 0.18059134 87.333336
0.58855921 2.5813777 0.29026031 81
0.74489254 2.5686507 0.1874069 92
0.84313536 2.5782275 0.26231837 77.666664
0.99016309 2.5784502 0.23774312 79.333336
1.1026253 2.5800023 0.20623417 75.199997
1.2301079 2.5757926 0.15992206 73
-1.2114545 -0.60805476 0.40143758 6
-1.1525351 -0.63226455 0.37814012 1.3333334
-0.94807369 -0.65642858 0.35048652 7.5
-0.82151616 -0.66080695 0.38072175 7.3000002
-0.68246627 -0.65987438 0.364052 7.909091
-0.54035938 -0.65369135 0.35451832 7.75
-0.3976979 -0.6478768 0.34112266 7.1666665
-0.18480329 -0.64525372 0.40163672 7.181818
-0.089894049 -0.64562309 0.35488439 6.8571429
0.020904286 -0.64769781 0.31815809 6.3333335
0.9280327 -0.63090605 0.31171095 30
-1.1646168 -0.58059365 0.33693844 2
-1.0869 -0.42508468 0.42195082 0
-1.2613665 -0.17202669 0.35382071 5
1.4258852 0.70289922 0.33684731 49
-1.9132484 0.83153248 0.43361366 78
1.1409686 0.85688961 0.3338246 33
1.2753173 0.83736056 0.32824868 52
1.4237299 0.81321126 0.32629913 48.75
-1.9213092 1.0050757 0.43159264 77
1.0004923 0.97869235 0.34645575 66.25
1.0876533 0.96654713 0.33050877 42.5
1.2332886 0.95347387 0.33244964 34.333332
1.4344015 0.97595763 0.31929889 56.333332
-1.9164627 1.1717372 0.4108161 78
0.96914625 1.1156685 0.32691041 35.400002
1.1000842 1.1380099 0.32878307 30.166666
1.257894 1.1147947 0.33316574 34.75
1.4088131 1.1076746 0.33694229 32.75
-1.9160545 1.3411633 0.37792289 74
-1.2355419 1.2686839 0.32110259 1.25
0.96522737 1.2583263 0.32525033 36.5
1.1333495 1.3004639 0.3273831 26.5
1.253185 1.2540742 0.32939491 36.75
1.4234266 1.2647227 0.32793492 35.25
-1.9176912 1.3708705 0.40338689 75
0.97204924 1.399292 0.37838182 85.25
1.2701908 1.4082863 0.32752982 63.5
1.3975515 1.4093686 0.32456204 86
-1.920998 1.5817536 0.40070909 65.25
1.4552549 1.7303743 0.35767782 55.666668
-1.9264616 1.8108647 0.44074303 55
1.4503058 1.8900446 0.40649104 58.666668
1.4498389 2.1489432 0.34210986 49
1.4505373 2.4540384 0.38279971 46.333332
-1.8133664 2.5734806 0.30678877 69.666664
-1.729823 2.5732586 0.36247367 65.428574
-1.5607198 2.573642 0.37038779 68
-1.3727269 2.57797 0.37049797 67
-1.2900473 2.5756187 0.36149475 69.5
-1.1549525 2.5794404 0.35031036 77
-0.90286344 2.5720632 0.39658159 83
-0.82900643 2.580081 0.37724692 87
-0.72766209 2.5749688 0.36862427 86.25
-0.59099865 2.5704322 0.35642064 83
-0.22994325 2.5807269 0.41916972 86.599998
-0.082632676 2.5785382 0.36355656 89.5
0.43417704 2.5842814 0.39487219 84
0.5222168 2.5760174 0.43554273 82.666664
0.68983114 2.5807865 0.38363686 76
0.85503155 2.5806258 0.32565665 80.75
1.3127592 2.591305 0.43301845 72
-1.8704982 -1.2977459 0.56103039 71
-0.95684242 -0.65605646 0.51640999 13.4
-0.84070337 -0.65477693 0.51708668 4.7142859
-0.65774405 -0.65633231 0.46196592 7
-0.49300787 -0.64520478 0.53790265 6.25
-0.38431558 -0.64195675 0.52346432 5.0833335
-0.23719385 -0.64069307 0.515055 6.8571429
-0.11511174 -0.64546591 0.45530933 7
-1.1158143 -0.53835535 0.55890614 4
-1.1382849 -0.36284649 0.53450036 0
-1.9111246 -0.22644097 0.55404615 38.666668
-1.2005738 -0.26136521 0.5452736 0
-1.1550196 -0.2836062 0.46672833 0
-1.9057482 -0.095901899 0.54246944 17.333334
-1.9153464 0.075736508 0.54631531 54.25
-1.7766346 0.059144523 0.54811305 0.83333331
-1.9160236 0.22768404 0.54000479 81.5
-1.9156355 0.38511875 0.53570378 80.5
-1.9143564 0.54524809 0.52270693 80.5
-1.9165961 0.70615625 0.50294638 80.199997
-1.9163984 0.8205719 0.5399195 80
-1.9164774 0.98040164 0.54577923 81.285713
-1.9183581 1.123783 0.53031701 80
-1.9190738 1.2563125 0.55461937 72.571426
-1.9200953 1.4128325 0.51801938 69.25
0.95714951 1.4032865 0.52646726 77.25
-1.9242338 1.573527 0.52533609 74.800003
-1.9276891 1.7211298 0.54725462 64.333336
1.4538738 1.8566349 0.46319228 52
1.4530338 2.0748804 0.53870648 49.666668
1.4455773 2.1580651 0.55973959 47.333332
1.4478493 2.3441458 0.49082577 49
-1.7577863 2.576354 0.54388094 62.5
-1.5342863 2.573468 0.54123998 66.25
-1.4423442 2.5750034 0.47079331 62.5
-1.3175479 2.5766776 0.51378632 71
-1.0677867 2.5682478 0.55465221 82
-0.97139305 2.5802865 0.52281082 82.25
-0.87961394 2.5745676 0.48791447 86
-0.73678303 2.5735931 0.47372323 93
-0.48724782 2.5779617 0.57337803 83
-0.37589937 2.5796137 0.53004998 83.199997
-0.23944522 2.5751927 0.51318878 85.666664
0.28539813 2.5803649 0.49994773 79
0.3841981 2.5770783 0.54365313 82.800003
0.52773869 2.5825999 0.51440483 83
1.1525443 2.5887418 0.54920352 65
1.3742864 2.5865054 0.53186977 58
-1.8799766 -1.3792855 0.66678309 2
-2.0239961 -1.2201593 0.6427505 12.5
-1.8635427 -1.2550598 0.68479079 35.833332
-1.8498172 -1.1907356 0.72426343 41.666668
-0.99907714 -0.64562452 0.66249382 21
-0.82061917 -0.65284467 0.65823156 6.25
-0.66052115 -0.64474976 0.68410873 4.75
-0.5137499 -0.64125299 0.65629822 6.1111112
-0.35719824 -0.63748926 0.68542647 6.1538463
-0.27716652 -0.6341328 0.66071039 5.6666665
-1.1057346 -0.50322545 0.67135346 3
-1.9113575 -0.33939037 0.60623628 37
-1.0993274 -0.3608458 0.69542444 8.2857141
-1.0488969 -0.3578333 0.72828829 3
-1.9124993 -0.19290864 0.66113216 36.666668
-1.9131927 -0.068154216 0.68032348 34
-1.9108267 0.12222238 0.73049033 70
-1.7805125 0.087089695 0.63200009 0.33333334
-1.9108788 0.21729024 0.67649615 82.125
-1.9157242 0.36389208 0.67158079 79.099998
-1.9153109 0.50731015 0.67052042 63.200001
-1.9163567 0.64886093 0.65846694 77.5
-1.9172084 0.81402743 0.67792082 78.125
-1.9183394 0.96142209 0.67421144 77.428574
-1.9198105 1.1285255 0.65946549 74.428574
-1.9202589 1.2949344 0.66532958 68
1.4373604 1.3142335 0.61661798 129
-1.9232854 1.4340323 0.69326735 66.333336
0.94410276 1.4072399 0.63815165 10.5
1.4495077 1.449435 0.70001459 59
-1.9291722 1.5612785 0.66598034 72.666664
1.4592283 1.5688509 0.67570436 33.25
-1.9330889 1.7225415 0.64754069 64
1.451946 1.7370582 0.67528439 48
-1.9295425 1.8526427 0.70023847 65
1.450634 1.8551213 0.70609444 47
1.449055 2.2447135 0.72992635 43
1.4446853 2.3360453 0.67211223 49.5
-1.7208016 2.5767951 0.67924851 65.199997
-1.6163949 2.5778303 0.60604352 59
-1.4960805 2.5771012 0.65577888 71
-1.2473469 2.5729966 0.69085974 76
-1.1197609 2.5760484 0.65728486 79.400002
-1.0436214 2.5762658 0.73039138 81
-0.88839895 2.5795264 0.60063654 79
-0.63401318 2.5823903 0.70810246 74
-0.54149389 2.5769925 0.67755967 81.800003
-0.42816755 2.5744307 0.66298288 87.666664
-0.29280499 2.5736413 0.60669482 89
0.078091398 2.5807643 0.70527685 77.199997
0.22172169 2.5770836 0.66380578 77.714287
0.32823277 2.5838599 0.65738243 88
0.82617193 2.5913968 0.73050094 68
0.98372436 2.5877171 0.63643217 67
1.0535612 2.5831473 0.70888782 60
1.2473485 2.5898201 0.66474521 62
1.4460781 2.5881431 0.63219368 66
-1.8071927 -1.3050952 0.80256975 9
-1.7799988 -1.2687131 0.80077076 15
-1.810583 -1.1875321 0.752684 69
-0.96886992 -0.65186703 0.80085403 4.5
-0.81320596 -0.64939052 0.81211209 5.5
-0.66326815 -0.6433726 0.83458096 6.25
-0.5366233 -0.6384117 0.81074989 6.125
-0.38235456 -0.63287824 0.82849598 4.9000001
-0.29765552 -0.62948304 0.76093757 6
-1.2082762 -0.30606255 0.834023 2
-1.019896 -0.3700012 0.81144112 1.8333334
-1.9108136 -0.17393851 0.81073427 26
-1.1066861 -0.28791061 0.78316623 5.6666665
-1.0419176 -0.27567479 0.80756426 0
-1.9115568 -0.078749545 0.82036418 33.444443
-1.9111099 0.12877902 0.80340397 66
-1.9142064 0.23224029 0.80855429 77
-1.9145434 0.38002875 0.80571234 75
-1.9152861 0.5185824 0.82501191 71.599998
-1.9164823 0.6793654 0.82926697 75.5
-1.9183258 0.81479359 0.82234502 73
-1.9174837 0.964122 0.83012521 73
-1.9195426 1.1207229 0.83037841 69.5
-1.9227375 1.302633 0.8523463 65.400002
-1.9295073 1.4504924 0.85017192 68.5
-1.9272261 1.5586387 0.85105199 63
1.4561464 1.5908459 0.79356456 50
-1.9293864 1.735581 0.8621195 59.400002
1.4512036 1.7104228 0.79834402 47.400002
-1.9254872 1.8832655 0.83311111 61.333332
1.4493965 1.8558093 0.85194069 42.333332
-1.9295573 2.0361011 0.86147815 53.666668
1.4478781 2.0412612 0.82256413 45
-1.9309546 2.2378187 0.89259505 53
1.4477154 2.1475556 0.81892586 42
-1.9255078 2.2768266 0.85832191 42
1.4456376 2.4932067 0.77598983 49
-1.8822873 2.5762951 0.81892991 76.25
-1.6895587 2.5788279 0.80977046 69
-1.4000354 2.5765157 0.84016824 66
-1.2382234 2.5751729 0.80103767 76
-0.7748794 2.5812135 0.87433916 76.5
-0.69428617 2.5777707 0.80338943 86.599998
-0.57155412 2.5787716 0.81615251 83.5
-0.076934576 2.5871472 0.85485381 71.199997
0.054296218 2.5863903 0.83638132 71.75
0.18563707 2.5886106 0.7854569 71
0.67559516 2.5909815 0.82814622 65
0.81744701 2.5891967 0.85237402 64.666664
0.95267862 2.5881708 0.82309425 70
1.1062475 2.5848584 0.75387347 63
1.3056276 2.6025112 0.89468431 61
1.4132329 2.5853338 0.85872173 56.75
-1.7928458 -1.2599486 0.92286289 3
-0.96940291 -0.64532638 0.94518107 21.5
-0.83991259 -0.63977391 0.99772567 19.5
-0.67338264 -0.63592267 0.97594416 18
-0.50671506 -0.63119566 0.97114486 18.125
-0.37594143 -0.62346774 0.93576008 7.75
-1.9078124 -0.19834334 1.0115156 6.5
-1.9116552 -0.076442868 0.96950769 35.75
-1.9127651 0.2072645 0.96564788 71.800003
-1.9149709 0.36445427 0.94804549 71.166664
-1.9157832 0.52631587 0.95804989 63
-1.9168316 0.65059084 0.96644098 68.333336
-1.9201006 0.80502337 0.95847434 69.333336
-1.9186326 0.96532553 0.94710094 65.333336
-1.9208549 1.1379075 0.93931627 63
-1.9259906 1.3212076 0.95589638 66
-1.9307978 1.5271183 0.9521395 58.5
-1.9278101 1.7424326 0.9894129 48
1.450097 1.8544583 0.95818084 88.5
-1.9321578 2.0020719 0.99509883 59
1.4487747 2.0626974 0.99058789 41.333332
1.4471979 2.1877987 0.97942829 39.75
-1.9279898 2.2878463 0.99642718 52
1.4471149 2.3527982 0.97716361 39
1.4514184 2.4791093 0.90380263 40
-1.899766 2.5787864 0.97828603 69
-1.6629982 2.5774636 0.96507049 64
-1.5776793 2.5759337 1.0171971 69.666664
-1.4192023 2.5763621 0.95600474 70
-0.92521739 2.5750206 0.98379946 80
-0.86449921 2.5736921 0.98126853 79.25
-0.71685195 2.5761452 0.94562185 81.5
-0.2256031 2.5868759 0.98754412 74.166664
-0.087966681 2.5866578 0.96439433 75
0.39391193 2.5942149 1.0434717 65.5
0.53118742 2.591053 0.93193799 67.5
0.6330002 2.5901425 0.96780992 62.5
0.88587278 2.5884964 1.0425429 54
1.0028505 2.6000323 1.0312771 59.5
1.1188334 2.5985255 0.97033435 58.5
1.2626915 2.5993392 0.93271333 59.333332
1.3655323 2.6041775 1.0384612 52
-1.0130358 -0.63846993 1.1242563 10
-0.78888792 -0.63705635 1.1229988 25.5
-0.65384072 -0.63271409 1.0930269 19
-0.56281066 -0.62706947 1.1438166 26.25
-0.42044759 -0.62367326 1.0901995 13
-1.9067651 -0.040600613 1.066612 30
-1.9026698 0.026714364 1.077917 1
-1.9146909 0.2146697 1.1433768 67
-1.9100885 0.36868498 1.1323342 69
-1.9136019 0.52799487 1.1306661 68
-1.9146305 0.69348234 1.1302299 64.333336
-1.9117138 0.84647393 1.1027322 63
-1.913475 0.95202172 1.122818 62
-1.9189833 1.0787663 1.1765082 65.5
-1.9216089 1.231689 1.1235178 60.5
-1.923075 1.4485888 1.1354222 54
-1.9226969 1.6599869 1.0976865 52
-1.9241964 1.934608 1.1172086 51
1.44829 2.0733061 1.1590641 41
-1.9223655 2.24756 1.1396627 54
1.4484087 2.1859546 1.1494695 37
1.4485711 2.3214595 1.1240587 37
1.4485251 2.4821072 1.1622878 38.333332
-1.8948581 2.5780158 1.1480622 73
-1.7048068 2.5802574 1.145599 76.5
-1.5958263 2.5795586 1.1308502 71.666664
-1.0870333 2.5763698 1.1399627 75.5
-1.0067904 2.5817633 1.1007115 64.5
-0.85827595 2.5741265 1.118544 84
-0.36605126 2.5856473 1.1275803 75.428574
-0.20685512 2.5863574 1.0988908 74.5
0.25812969 2.5957441 1.1636218 55.5
0.35812181 2.591958 1.154824 62.5
0.49368483 2.5897975 1.0566537 63
0.71684611 2.5958428 1.149353 59.5
0.83206123 2.5998502 1.1330124 61.333332
0.96688014 2.6050053 1.1240706 59
1.1412269 2.6019325 1.0654342 56
1.2285328 2.5998921 1.1428879 50
1.4196498 2.5985403 1.1030844 50
-0.9708572 -0.63948637 1.2663071 19
-0.81761926 -0.62906569 1.2625346 26.666666
-0.6925478 -0.62790042 1.2796986 22.5
-0.48997191 -0.62364751 1.2550174 25.833334
-0.36704788 -0.62205034 1.2845293 23
-0.25182906 -0.61645013 1.2964731 19
-1.920957 -0.39419067 1.3459698 2
-1.9112995 -0.010640813 1.2372518 33
-1.9152535 0.13653417 1.2368289 63
-1.911046 0.24000159 1.2802656 65.5
-1.9135909 0.39304787 1.2755513 59.5
-1.9143368 0.54834682 1.2880399 59.200001
-1.9139125 0.69772911 1.2960248 62
-1.9196537 0.84750426 1.2867295 65.199997
-1.9228191 0.99198014 1.3087803 62.333332
-1.9242853 1.0934819 1.2638549 62.666668
-1.923568 1.2829965 1.26717 56.599998
-1.9252181 1.4586457 1.3046466 52
-1.9224958 1.526227 1.2559198 53.666668
-1.9261951 1.7401385 1.2774708 47
-1.9326428 1.9231688 1.3324068 46
-1.9255447 2.0317788 1.2900058 45.799999
-1.9327306 2.2108483 1.3418471 40
-1.9267052 2.3212855 1.3063177 43.333332
1.4514525 2.3206136 1.2878428 35.5
-1.9251523 2.4164586 1.3075973 43
1.4541445 2.5170212 1.2663927 37
-1.8497037 2.5816712 1.2808098 73.25
-1.7903392 2.5826981 1.21314 80
-1.2422271 2.5763094 1.2756974 67
-1.1457226 2.575247 1.2399932 66
-1.0259821 2.5754857 1.2379098 77
-0.52275872 2.5882516 1.2787184 70.666664
-0.39113808 2.5873661 1.2376984 68.5
0.099534944 2.5972099 1.3014657 61
0.19979174 2.5943856 1.266904 55.666668
0.41145539 2.5951712 1.3041631 62
0.55987602 2.5982301 1.2658848 60.666668
0.67922497 2.6025865 1.2482306 60.5
0.84634823 2.6056175 1.2710952 54
0.98039973 2.6033001 1.2920096 52.25
1.1349199 2.6031404 1.2624252 49
1.3192846 2.6002054 1.2789938 54.5
1.4237672 2.5858457 1.2987965 50
-0.85138845 -0.62840348 1.4238029 20
-0.64701957 -0.62754279 1.3733002 23
-0.52968591 -0.62181336 1.4505059 23.166666
-0.39554322 -0.61945355 1.4714159 21.666666
-0.27959591 -0.61546206 1.4781885 18
-1.9000041 -0.53922528 1.4388068 21
-1.9042954 -0.37180507 1.4524915 22.5
-1.9131846 0.23972364 1.3903631 61
-1.9118968 0.39019871 1.3683823 55
-1.9228781 1.1810997 1.364156 58
-1.9224187 1.3826317 1.3804181 52
-1.9245131 1.6077298 1.4050632 48
-1.9273418 1.8583316 1.4351188 45
-1.9276462 2.1422257 1.4700978 42
-1.9273878 2.3925612 1.3823189 41
1.448383 2.3700109 1.3782691 35
-1.9349935 2.5467656 1.3591378 59
1.4509201 2.4691122 1.3976948 36
-1.7699221 2.5748672 1.3811383 73
-1.4382662 2.580493 1.4672562 61
-1.2734921 2.5827413 1.3790419 67.75
-1.1761718 2.5776839 1.4426126 71
-0.67340475 2.5888925 1.434096 67.333336
-0.53000784 2.5891948 1.3825688 68.5
-0.026609156 2.6014283 1.4649291 64
0.067005597 2.5962958 1.3884883 60.666668
0.26800644 2.6000123 1.4446747 57
0.41732106 2.6050985 1.4314862 58
0.54194117 2.605773 1.3796979 61
0.72031558 2.6049161 1.4427046 53.5
0.8173092 2.6052616 1.4103986 52.666668
0.9893474 2.5961425 1.494383 51
1.1330203 2.6025267 1.4548355 48.25
1.281381 2.6020708 1.4230322 47.799999
1.4319812 2.5809367 1.4037323 48.666668
-0.96969509 -0.62300354 1.5376371 25.5
-0.82485682 -0.62348926 1.5866174 24
-0.7169525 -0.62319666 1.5846651 20.5
-0.54987919 -0.61850369 1.5354673 23
-0.33592129 -0.61425728 1.5471683 21
-1.9116905 -0.53941 1.5745959 22
-1.922479 -0.36920261 1.5907935 22
-1.9221065 -0.19512869 1.5671508 29
-1.9215791 0.14514881 1.5371712 65
-1.9153103 0.2234717 1.6234063 60
-1.9223189 0.35581961 1.5810831 64
-1.9221618 0.53112102 1.5838416 65
-1.9258953 0.67471308 1.5412028 58
-1.9183232 0.86153698 1.5445207 52
-1.9210393 1.0657986 1.5659313 55
-1.9219662 1.28835 1.5945196 58
-1.9263449 1.5398493 1.6370209 53
-1.9291619 2.4732833 1.516457 41
1.4519796 2.5060525 1.5358065 40
-1.7114601 2.5789697 1.6372019 66
-1.5251334 2.5814083 1.6269332 65
-1.4199302 2.5794575 1.5746002 64.25
-0.83592349 2.5934372 1.5846047 64.5
-0.67412758 2.5935228 1.5431268 66.5
-0.15973815 2.604708 1.6115698 57.5
-0.088190719 2.6035135 1.5448542 58
0.12267673 2.6052709 1.5669349 58.5
0.28984085 2.6059709 1.5797319 61
0.55731922 2.6097484 1.5879086 50.75
0.65806162 2.6096354 1.5103347 48.5
0.82950205 2.6020222 1.604677 54
0.96413976 2.6037474 1.571084 51.25
1.1439221 2.6094809 1.5681957 48
1.283699 2.6046078 1.5991617 49.666668
1.415397 2.5943394 1.5649354 49.25
-1.2339303 -0.7096737 1.7926775 2
-1.0410345 -0.6384483 1.7676188 26
-0.6635114 -0.61858857 1.6879401 24.25
-0.51790422 -0.61622155 1.7351027 26.6
-0.36612535 -0.61537659 1.7055889 21
-1.9195054 -0.45681337 1.6877946 20
-1.9112223 -0.36901519 1.7651606 20
-1.8927455 -0.21286793 1.7186818 16
-1.8999207 -0.053625822 1.728245 11.8
-1.9207779 0.13598801 1.7330683 48
-1.9136803 0.15936035 1.7480371 55.5
-1.9171563 0.32476524 1.7352419 55
-1.9176917 0.50047845 1.7328583 52
-1.9183429 0.68238878 1.7381096 56.666668
-1.9234241 0.82529682 1.7334375 54.666668
-1.9223948 0.96040201 1.7213045 55
-1.9200295 1.1171414 1.7363948 52.666668
-1.9154564 1.3329287 1.7493688 51
-1.9220358 1.3805841 1.7236432 49
-1.9241092 1.6113756 1.784986 50
-1.9288741 1.8206089 1.6887711 43
-0.2325027 2.0373893 1.7993406 69
-1.9287167 2.1427305 1.7521874 41
-0.057147037 2.1924322 1.7976521 63.666668
0.19840045 2.1263618 1.7993628 64
0.35350156 2.2112138 1.7969807 61.666668
0.065857291 2.3179445 1.7956008 63.5
0.52386743 2.3448799 1.7987357 61.333332
-0.15432096 2.5015223 1.7953795 55
0.040755969 2.5024765 1.799111 69
0.21010102 2.4760652 1.7945297 63.5
0.66798645 2.455183 1.7964284 58.5
0.8128379 2.5214639 1.7986999 55
0.92689997 2.5285347 1.7987393 51
-1.6667029 2.5798419 1.7539746 75.666664
-1.5940233 2.5829778 1.7382269 70.5
-0.97536147 2.5937316 1.7462831 58
-0.82357132 2.5958064 1.6612223 57.5
-0.74482828 2.5939689 1.7285343 67
-0.24595825 2.5984251 1.7434404 58
-0.023635495 2.6073303 1.6999472 55.5
0.020717751 2.5920751 1.7972373 69
0.16499369 2.6109242 1.7122705 59.5
0.36322659 2.6063595 1.7688802 68
0.48322704 2.609657 1.703415 57.333332
0.68069643 2.603965 1.730292 57
0.8206104 2.5950511 1.7517136 57.25
0.98378074 2.6026611 1.7483212 58.857143
1.1282785 2.6068723 1.7227757 53.142857
1.2927324 2.6041918 1.6667891 48.333332
-3.5962379 -2.9157567 1.882784 62
-3.4752858 -2.802043 1.8753709 58
-3.8905652 -2.4423904 1.8753637 60
-3.804163 -2.3665574 1.8752235 63
-3.6126459 -2.3205805 1.8690401 64
-3.5649214 -2.322912 1.8643726 60
-2.8644695 -2.2465553 1.8592452 40
-2.7024438 -2.1643767 1.8713554 46
-3.5398364 -2.0957446 1.8712066 3
-2.9073458 -2.0764942 1.8644756 2
-2.7887166 -2.0334373 1.8635274 5
-2.5645325 -1.9675288 1.8675147 71
-2.4699357 -1.8675423 1.8565506 3
-2.2977319 -1.7202423 1.8577337 36.5
-2.299727 -1.564998 1.8604025 5
-2.1688237 -1.5686224 1.8633145 53
-2.0312281 -1.405322 1.8604038 62
-1.935998 -1.4190488 1.8466548 40
-2.0383334 -1.1652888 1.8578285 66
-1.8633662 -1.1106669 1.8505278 24.5
-1.5111525 -1.0511011 1.8489372 76
-2.0616055 -0.9953984 1.8528341 14
-1.6060089 -0.99501556 1.8513994 50.5
-1.4268837 -0.9195022 1.8522158 76
-1.5567323 -0.88090032 1.8473486 73
-1.4252342 -0.77948993 1.8574505 21.666666
-1.4353592 -0.61996377 1.8522965 71.75
-1.1624647 -0.69438869 1.8073612 0
-0.94190252 -0.61627936 1.8338172 57
-0.81384295 -0.60033894 1.843099 92
-0.63242841 -0.61386335 1.8349339 47.5
-0.37306955 -0.61317444 1.8146104 48
-1.5069538 -0.46459687 1.8511673 82
-1.4499203 -0.47115338 1.8502936 73.666664
-1.2784605 -0.52003276 1.8499286 84.25
-1.1078007 -0.5415467 1.8402796 78.75
-0.9830938 -0.51657289 1.8443073 80.833336
-0.83036667 -0.52427542 1.8424679 85.5
-0.67402029 -0.52117985 1.8426476 84.444443
-0.51948404 -0.52415413 1.8436759 81.428574
-0.38839078 -0.51302129 1.8427366 77.5
-1.8109039 -0.36219829 1.8509415 78
-1.6945765 -0.36982423 1.8500457 78.5
-1.5417608 -0.35165158 1.8497567 85
-1.423582 -0.32281035 1.850491 88
-1.2468854 -0.31899917 1.8467103 75.5
-1.1264484 -0.38899308 1.8417145 80.75
-0.9817524 -0.34978515 1.8435578 82
-0.83437061 -0.37899977 1.8389432 77.14286
-0.67718154 -0.3784661 1.8403167 79.181816
-0.53368002 -0.36512864 1.84399 79.400002
-0.41710615 -0.37434751 1.8439778 79
-1.8366489 -0.19733638 1.8451697 61
-1.720659 -0.20992476 1.8506265 81
-1.5611023 -0.19714625 1.850129 85.333336
-1.4422485 -0.17952512 1.8471292 88.666664
-1.2702239 -0.18666013 1.8474531 87.5
-1.1146494 -0.23662981 1.8409246 76.5
-0.95058817 -0.23065637 1.8397774 74
-0.79928118 -0.23364456 1.8371221 79.333336
-0.6822775 -0.22355777 1.8380361 78.833336
-0.51750052 -0.22695646 1.8445008 77.714287
-1.8298513 -0.030461555 1.801078 0
-1.7413375 -0.048792884 1.8494643 83.5
-1.5776269 -0.065711752 1.849589 88
-1.4594392 -0.03635535 1.849153 90.666664
-1.2851853 -0.051765911 1.8410112 87
-1.1299512 -0.087756298 1.8404375 78.800003
-0.98330361 -0.071127765 1.8390534 78.125
-0.82125008 -0.072774015 1.8372076 79.666664
-0.67149788 -0.077647872 1.8393817 79.818184
-0.51382601 -0.074392855 1.8423798 74.599998
-1.8489325 0.12407667 1.8497201 77.5
-1.700492 0.11718508 1.851169 89
-1.5655675 0.07861869 1.860768 75
-1.4226418 0.084114224 1.849614 93.333336
-1.2233729 0.055673767 1.8390166 85
-1.0994476 0.082388982 1.8391488 78.400002
-0.97422463 0.076243244 1.8371867 77.75
-0.825203 0.070628755 1.8351753 81
-0.68301308 0.080234028 1.836249 80.375
-0.50686502 0.082863756 1.8397685 84.333336
-1.8738759 0.24942248 1.8407277 78
-1.6998591 0.28786644 1.8469297 92
-1.5641279 0.23369576 1.8488349 85
-1.4303366 0.22422761 1.848015 87.666664
-1.2228519 0.22484928 1.8340911 83.333336
-1.1070541 0.22499494 1.8356811 77.75
-0.9781372 0.22134709 1.8347055 78
-0.81678462 0.21907729 1.833849 81.222221
-0.67133117 0.21736208 1.8350903 77.599998
-0.50835621 0.22571409 1.8391812 81.75
-1.8821416 0.37913814 1.8378183 84.333336
-1.5638924 0.39098498 1.8488989 85.75
-1.4327621 0.3667728 1.8458792 84.333336
-1.2295067 0.40641171 1.8552037 47.5
-1.122808 0.37478986 1.8693285 72.199997
-0.97835314 0.38986596 1.8610483 73.599998
-0.83013058 0.37679988 1.8312968 78.625
-0.6657353 0.38036209 1.8327147 77.555557
-0.50429863 0.37272528 1.8308105 83
-1.9042289 0.51992041 1.8377055 91.5
-1.695834 0.45946956 1.8463727 90
-1.5719165 0.53154016 1.8468002 86.666664
-1.4330486 0.51210111 1.8485402 79.666664
-1.2188282 0.55048668 1.8593831 54
-1.1026316 0.52042079 1.866859 60.5
-0.96148372 0.52282506 1.8478371 63.5
-0.80075318 0.51578999 1.8316469 75.571426
-0.69115674 0.53179604 1.8293849 74.85714
-0.53009576 0.52595252 1.8281386 76.85714
-1.8856636 0.66743374 1.8395604 90
-1.6841147 0.63258898 1.84311 92
-1.5454676 0.67100692 1.844234 82.75
-1.4255091 0.65960819 1.8449436 84.333336
-1.2098867 0.67699796 1.881318 31
-1.1113217 0.68602675 1.8558241 56
-0.95643032 0.66588485 1.8367699 66.428574
-0.7879383 0.65212971 1.8308132 74.400002
-0.6784187 0.68306613 1.8281657 74.375
-0.52219892 0.67502451 1.8273957 75.199997
-0.42900059 0.72874975 1.8310896 79
-1.8863969 0.8208766 1.8422687 99
-1.6649399 0.81023699 1.8407298 87
-1.5642283 0.83961916 1.8405993 89.5
-1.4430206 0.81754524 1.8403555 84.400002
-1.1232504 0.82503533 1.8329978 90.25
-0.99413151 0.8372156 1.8363348 87
-0.85086513 0.81244415 1.8270602 74.5
-0.67093784 0.82318664 1.8268179 74.222221
-0.54441684 0.84069997 1.8283691 72.333336
-0.4243654 0.82830524 1.8269472 76.333336
-1.8817307 0.97394395 1.8390571 88.666664
-1.662642 1.0100011 1.8769234 34
-1.5378401 1.010745 1.8366104 85.5
-1.4156271 0.95669138 1.8384161 85
-1.1117334 0.96530718 1.8310819 86.333336
-0.98197484 0.97239232 1.8327678 87.5
-0.81804717 0.9695859 1.8297777 90.199997
-0.67508149 0.98369789 1.8253291 79.333336
-0.52619416 0.97231668 1.8278192 82.333336
-0.36658868 0.96805567 1.8268422 69.333336
-1.8575196 1.1242995 1.8397419 80
-1.5378147 1.182803 1.8320136 80.333336
-1.4038274 1.1057379 1.8357872 74.199997
-1.0863926 1.1305821 1.8287702 80.5
-0.97045505 1.1181778 1.8314431 76.599998
-0.80661619 1.1398144 1.8419476 66.25
-0.6574173 1.1282688 1.8433727 68.5
-0.53542316 1.1341298 1.8271791 81.428574
-0.38370001 1.1241691 1.8248115 76.166664
-0.29631212 1.1078769 1.8306035 73
-1.8935784 1.2650182 1.829942 75.5
-1.4212275 1.2457676 1.8347403 78.5
-1.3307029 1.2551473 1.8358773 80
-0.98808116 1.2679211 1.8267355 74
-0.85501236 1.3020198 1.8298064 72
-0.68153238 1.2574184 1.8243395 70.800003
-0.53450483 1.2783983 1.8218741 74.166664
-0.38727957 1.2673652 1.8269217 72
-0.23371659 1.2727333 1.8227018 71.666664
-1.8734193 1.4265399 1.8333179 84.333336
-1.799702 1.4527125 1.834952 77
-1.5668806 1.3750679 1.8366064 86
-1.4103951 1.3892657 1.8316381 79
-1.2940539 1.4217359 1.8319293 80.5
-0.97047144 1.4183506 1.8255259 73.333336
-0.84570009 1.4127564 1.8263637 71.333336
-0.65891761 1.3918749 1.8235035 71
-0.5065465 1.3992821 1.820241 71.400002
-0.36620823 1.4257672 1.8202307 69
-0.22795831 1.420469 1.822149 71.25
-0.13444217 1.4142641 1.8247162 68
-1.8702955 1.5635728 1.8369539 84
-1.5125548 1.5711559 1.8294841 77
-1.4172146 1.5554194 1.8303579 75.5
-1.296895 1.5896517 1.8291419 76.199997
-0.91076887 1.5742464 1.8189763 68
-0.83581251 1.5541899 1.8199649 68.5
-0.65001935 1.5100826 1.8210626 71.333336
-0.51603377 1.5753334 1.8140866 70.400002
-0.36982322 1.5757234 1.8152338 69.428574
-0.22493762 1.574778 1.818827 69.833336
-0.10855813 1.5682762 1.8169727 68.75
0.0094555439 1.627947 1.8157252 68
-1.8649217 1.7038674 1.8331276 80.333336
-1.7630979 1.6534766 1.8366297 82
-1.3906465 1.758799 1.8277987 75
-1.2714217 1.7433805 1.827477 70.5
-1.1810814 1.7215089 1.8314148 67
-0.80393106 1.7253634 1.8176649 66.800003
-0.68147564 1.6796629 1.8140476 62.5
-0.48701134 1.7641761 1.8206197 65
-0.41428909 1.7175475 1.809036 69.25
-0.22687547 1.7426496 1.8118578 69.333336
-0.072500743 1.7154025 1.8122957 68.571426
0.065593734 1.762008 1.8138 69.5
-1.8571432 1.880471 1.8328683 79.400002
-1.7192601 1.8627199 1.8355547 82
-1.2422172 1.8990858 1.8254874 69.199997
-1.1186595 1.8991804 1.8295051 63
-0.7614423 1.9019034 1.816453 62
-0.68231857 1.8781126 1.8134158 60.5
-0.56028616 1.8065543 1.812493 63
-0.35629275 1.861239 1.8086038 67
-0.20587315 1.9022703 1.8085612 70.666664
-0.071828976 1.8518665 1.8090453 70.25
0.068668194 1.8826823 1.8091002 67.833336
0.19414322 1.899518 1.8138448 68
-1.8342092 2.0079179 1.8306042 67
-1.7209332 2.0744779 1.8334035 68.5
-1.3803701 1.9943417 1.8233508 71
-1.2497542 2.0033059 1.8228545 63
-1.1597407 2.0568357 1.8237284 62
-1.0455823 2.0836022 1.8262786 57
-0.63270479 2.0321658 1.809711 63
-0.50087845 1.9818028 1.8100789 60
-0.31064194 2.0333524 1.8023044 63
-0.20935164 1.9780108 1.8049068 62
-0.075404242 2.0411925 1.8065852 64
0.081269845 2.0174525 1.8064336 70.75
0.19547985 2.0357094 1.805431 65.800003
0.30796665 2.0164702 1.8106471 67.5
-1.8648365 2.1381431 1.8285501 70
-1.776232 2.1515696 1.8331422 71
-1.2394338 2.1806495 1.8210114 62.666668
-1.1362344 2.1462443 1.8222485 65
-0.66490942 2.1173596 1.8095521 62
-0.54565585 2.1869156 1.807642 58
-0.39287549 2.137414 1.8054179 55
-0.20586099 2.189698 1.8085064 61
-0.098685846 2.1010327 1.806049 63
0.054081902 2.1980836 1.806554 62.5
0.2369585 2.1473277 1.8053614 65
0.38150573 2.1553626 1.8050621 62.599998
0.5152396 2.2349374 1.8082229 61
-1.7553389 2.3357432 1.8282824 71.5
-1.6058316 2.3159797 1.8303879 69
-1.1032314 2.3234787 1.8186874 58.75
-1.002226 2.3115907 1.8241067 61
-0.50396872 2.3234463 1.8055149 57.333332
-0.27321178 2.3105893 1.8128828 36
-0.089351162 2.3439918 1.8051676 64
0.20106505 2.3334591 1.8054146 63.5
0.35067511 2.3039658 1.8088782 65
0.50808084 2.3249516 1.8058195 62.75
0.66832769 2.3559294 1.8058701 50.5
-1.8613162 2.4723682 1.8221831 84
-1.721541 2.4884145 1.8224057 73.5
-1.1556166 2.4337883 1.8206073 55
-1.0218832 2.505903 1.8147055 52
-0.86923313 2.4856293 1.8199595 56
-0.39469746 2.4463143 1.8023198 54.25
-0.12281483 2.426306 1.802497 61
0.36229512 2.467103 1.802605 62.5
0.50816792 2.4779615 1.8030299 56
0.65456939 2.4788795 1.8022906 59.5
0.80781126 2.45316 1.801931 52.666668
-1.5308743 2.5593171 1.821638 78
-0.97951984 2.5736938 1.8135718 65.5
-0.33513618 2.5701978 1.8003443 58
0.53083956 2.5564649 1.8019675 63
