# .PCD v0.7 - Point Cloud Data file format
VERSION 0.7
FIELDS x y z intensity
SIZE 4 4 4 4
TYPE F F F F
COUNT 1 1 1 1
WIDTH 97
HEIGHT 1
VIEWPOINT 0 0 0 1 0 0 0
POINTS 97
DATA ascii
0.75223976 2.1939559 -0.75386453 56
-0.22171013 2.3866403 -0.83146816 4
0.077882096 2.3682857 -0.82697159 5
0.74045449 2.2765388 -0.81558704 34
-0.18361902 2.4658854 -0.83212537 4
-0.14800915 2.5390549 -0.829633 7
0.15017842 2.5252397 -0.83167768 6
0.50060427 2.413995 -0.83281612 3
-0.36229095 2.5559857 -0.75100785 76
-0.17983608 2.5729005 -0.82724446 4
-0.13232449 2.5611413 -0.82409358 4.3333335
0.051890235 2.5572612 -0.83531857 11
0.38401961 2.5711992 -0.7541436 3
0.47472966 2.5556006 -0.84008461 6
0.99865991 1.5510833 -0.62460244 62
1.1748346 1.544171 -0.6417315 55
1.2623893 1.5358016 -0.64218855 54
1.4557285 1.5917042 -0.66035587 57
0.9366129 1.7116214 -0.62382847 10
1.4011985 1.7640489 -0.62045652 11
0.85702246 1.9188468 -0.7271077 33
1.300536 1.8896984 -0.62394828 6
0.74319637 2.0487363 -0.66316605 45.5
0.79260653 2.0199826 -0.6870842 39.200001
1.1815846 2.0079653 -0.61546314 45
0.75781685 2.1910162 -0.64502317 36
0.76361734 2.3317499 -0.63442469 55.5
0.76944953 2.4957089 -0.63069665 84
-0.48468009 2.5700157 -0.62398463 108
-0.3774977 2.5653965 -0.68609923 107.14286
-0.24502662 2.5665553 -0.67957127 81.599998
-0.1229372 2.5682075 -0.71250486 75
0.082179919 2.57426 -0.65833956 102.66666
0.21546596 2.5717037 -0.64816743 102.83334
0.34536132 2.5730302 -0.7219426 70.333336
0.53928554 2.5708961 -0.61976349 60.5
0.74547523 2.5696249 -0.71012181 109
1.4655447 -0.0079748537 -0.47324398 77
1.4631749 0.098028101 -0.48071206 80
1.464118 0.20427115 -0.48676401 75
1.4609284 0.36686692 -0.48702347 72.5
1.4551373 0.47511432 -0.5263353 80.5
1.461899 0.69952184 -0.51524448 55.400002
1.4550838 0.83458728 -0.50984824 76.833336
1.4477578 0.98091078 -0.50768524 35.5
1.4541509 1.1464124 -0.51560509 77
1.4484782 1.2728208 -0.50197107 72.5
0.95558089 1.4080511 -0.53716868 54.666668
1.4517257 1.3517219 -0.48349935 70
1.2818456 1.5744588 -0.59354872 22
1.4533199 1.5211012 -0.506832 64
1.3254694 1.695616 -0.59950769 4
1.4578959 1.7285419 -0.45289716 67
0.80803758 2.0250278 -0.49113634 56
1.0112139 2.026511 -0.53011471 58
1.1212915 2.0266232 -0.46898338 61
1.2616464 2.0200698 -0.52755588 51.333332
1.4251252 2.0197759 -0.57324374 62
-0.58788615 2.1263537 -0.46520522 3
0.74734503 2.3381121 -0.59368241 43
-0.57116008 2.510417 -0.49135181 4.5
-0.76361316 2.5734315 -0.45329016 102
-0.62016761 2.5593956 -0.52835763 66.166664
-0.5405882 2.568891 -0.46770707 74.666664
-0.38496262 2.5701356 -0.54479527 105.25
-0.25206995 2.5748565 -0.50156945 103.66666
-0.058759041 2.5710676 -0.53253257 106.4
0.06051195 2.5741096 -0.53327978 102.25
0.37117133 2.5690658 -0.51067209 59.5
0.5248003 2.5663073 -0.47738111 72.666664
0.66086304 2.5685294 -0.54538167 103
0.76202542 2.5747669 -0.58737594 100
1.4641786 -0.022841992 -0.42021638 76
1.4673405 0.079439931 -0.42591652 87.666664
1.4623938 0.23353203 -0.43544301 78
1.4577098 0.37052634 -0.43156755 72.5
1.4610219 0.47245893 -0.41204783 84
1.4636952 0.7249878 -0.42461348 75
1.4605598 0.84809345 -0.40970135 80
1.4532331 0.97016281 -0.43291435 60
1.4531521 1.0975225 -0.42964876 78.5
1.4584737 1.2874163 -0.41511422 78
1.4426966 1.3629454 -0.41475597 71
1.4551736 1.530769 -0.43771255 65
0.86009532 2.0230947 -0.42378023 56.5
1.0322055 2.0230131 -0.41552693 58
1.085095 2.0228653 -0.4341473 57
0.75138718 2.2315381 -0.41130266 32
-0.57036322 2.4792104 -0.4091413 4
-0.77671957 2.5719886 -0.42040324 105.2
-0.73834473 2.5744267 -0.43857679 111
-0.45726761 2.5754514 -0.44817227 108.5
-0.18087623 2.5736642 -0.4281016 110
-0.099366046 2.5739803 -0.41687617 113.33334
0.1827078 2.5727944 -0.41750219 95
0.36533523 2.5744414 -0.40111485 108
0.48897552 2.5698235 -0.42904282 66.333336
