# .PCD v0.7 - Point Cloud Data file format
VERSION 0.7
FIELDS x y z intensity
SIZE 4 4 4 4
TYPE F F F F
COUNT 1 1 1 1
WIDTH 1045
HEIGHT 1
VIEWPOINT 0 0 0 1 0 0 0
POINTS 1045
DATA ascii
0.034358602 -0.9155733 -0.16417344 8
-0.35637015 -0.76158673 -0.17493227 12.5
-0.27117771 -0.79029071 -0.15822998 8
-0.064746127 -0.87275302 -0.16593234 5.75
0.034142297 -0.8067255 -0.17525004 0
-0.61040902 -0.65464193 -0.15490213 13
-0.51447499 -0.69950598 -0.17890435 11.933333
-0.42685845 -0.73352516 -0.17460884 11.714286
0.089774683 -0.6546762 -0.1864123 0
0.79686087 -0.64507848 -0.17294221 34.333332
0.13368411 -0.54167241 -0.17577378 1
0.17380616 -0.48551196 -0.1648137 2
0.47874668 -0.4847852 -0.1513574 9.5
0.67591268 -0.51653033 -0.15227926 8
0.8486883 -0.52187496 -0.17212971 14.428572
0.1533504 -0.4131642 -0.19519062 3
0.35967508 -0.36837709 -0.15853451 12.888889
0.51954943 -0.36367452 -0.15331407 8
0.68877381 -0.39650822 -0.15415737 11
0.86092687 -0.37450948 -0.16480412 10
0.92052543 -0.35040134 -0.17420372 11.4
0.41884103 -0.218298 -0.1562935 12
0.52488625 -0.20980561 -0.15834467 10.428572
0.78733581 -0.24076442 -0.15258732 9
0.96444517 -0.20968179 -0.17178108 8.666667
0.44865429 -0.14685263 -0.15382794 10
0.50313693 -0.063558094 -0.16129421 10.636364
0.65147966 -0.068835855 -0.15899979 5.1666665
0.84466529 -0.049105063 -0.16331159 8
1.0072308 -0.073636696 -0.17121895 10.571428
1.0508714 -0.022326251 -0.19395548 12
0.54644859 0.065083496 -0.17738481 11.666667
0.65349978 0.079850674 -0.16691089 10
0.93461698 0.14984851 -0.15262835 7
1.060921 0.1461933 -0.1508595 8
0.58038908 0.18111503 -0.16108297 13.5
0.64297098 0.27780357 -0.16275117 10.666667
0.7759586 0.26460218 -0.15715264 6
0.9803564 0.20685929 -0.15616719 10
1.144428 0.23183219 -0.17238688 9.6000004
0.66581976 0.369084 -0.16217813 9.5
0.82163143 0.38888562 -0.15922374 5
1.0220743 0.4008674 -0.15375611 8
1.1666181 0.36599812 -0.15117829 8
1.2167702 0.40126276 -0.18558639 57
0.73381764 0.5467149 -0.16440798 6
0.84563583 0.49324125 -0.15375723 10
0.90579528 0.55990702 -0.16379973 150
1.1617384 0.58910716 -0.15678152 8
1.249573 0.50455409 -0.16260466 10.5
0.82059771 0.66736495 -0.17021513 8
1.3441299 0.74916977 -0.17579427 48
0.87266117 0.89018291 -0.15195112 6
0.96287084 0.87847471 -0.16141872 69.5
1.1802422 0.77765173 -0.15812884 49
1.4160355 0.89661926 -0.17888148 58
0.96764702 0.946127 -0.16837996 39.333332
1.2200352 0.9075309 -0.16449213 153
1.439045 0.96184754 -0.19343507 57
1.4816468 1.093375 -0.15684268 67
1.5605869 1.2999027 -0.168623 51
1.2464404 1.473684 -0.16348852 61
1.3740489 1.4203919 -0.15344754 51
1.0105189 1.7683437 -0.18333033 36
1.0534164 1.8602233 -0.18498017 26
1.0989249 1.9657629 -0.15093797 120
1.0259082 2.1662779 -0.18816559 86
0.53820044 2.355798 -0.16956936 105
0.61969101 2.327615 -0.16193186 111
-0.5854122 2.4191484 -0.15338154 0
-0.055747904 2.5847011 -0.16542751 79.5
0.039798509 2.5606751 -0.15666853 98
-0.98552924 2.9644103 -0.16194709 57.25
-0.78780204 2.8862634 -0.19930103 83
-0.70946878 2.855135 -0.17268702 78
0.053697798 -0.93121707 -0.067562066 7.5714288
-0.33658829 -0.76776332 -0.087109692 13.058824
-0.22974084 -0.80969554 -0.063021496 12.615385
-0.04389789 -0.88112128 -0.086103037 7.6363635
0.079095893 -0.7970106 -0.077892825 0
-0.66415739 -0.6344986 -0.063122354 12.351352
-0.52738029 -0.69147027 -0.078496158 12.071428
-0.41121534 -0.73700005 -0.082958288 12.666667
0.12232053 -0.6779893 -0.079081528 0.64285713
0.16092688 -0.6208666 -0.025757316 1
0.75348836 -0.65340185 -0.13863117 11
-0.79632115 -0.58325654 -0.023313705 13.333333
-0.74538112 -0.59849703 -0.061703511 12.5
0.13936348 -0.57115257 -0.1326831 1
0.18748471 -0.53804463 -0.089000531 2.1904762
0.44663984 -0.50328815 -0.14893326 14
0.59277171 -0.59784567 -0.13716908 2
0.65421647 -0.51344156 -0.081973448 5.1999998
0.83235782 -0.49973905 -0.14449838 11
0.38515162 -0.34170398 -0.11564609 9.25
0.54524398 -0.32793751 -0.14868668 7
0.72576392 -0.41336417 -0.14174399 6.5
0.40728712 -0.24500732 -0.12514144 9.6499996
0.54409713 -0.23252176 -0.14918193 9
0.69991404 -0.25068334 -0.13961977 4
0.80454481 -0.230589 -0.12882237 8.1428576
0.90555686 -0.27452463 -0.14544556 7
0.48321491 -0.046578813 -0.14930132 10
0.62786078 -0.1102025 -0.14672637 6.5
0.82258624 -0.1092632 -0.12274563 8
0.98052728 -0.053315878 -0.13936566 6.5
0.54043484 0.059176791 -0.1320498 9
0.71853453 0.028573431 -0.06727428 9
0.90203589 0.12457623 -0.067273773 13
1.0843176 0.13748343 -0.01702646 15
0.59312642 0.23957488 -0.14385208 10
0.93875134 0.22549097 -0.14216276 5.75
1.1343426 0.222873 -0.009587978 16
0.65282679 0.35036168 -0.14271274 8.5
1.0224366 0.37728617 -0.10247942 13
1.1689273 0.33011499 -0.14034121 8
1.2141593 0.42337874 -0.018540686 21
0.70622122 0.48765388 -0.1477229 8.5
1.0729896 0.50712699 -0.14853747 11
1.2532971 0.47484052 -0.0029213475 13
1.3531063 0.78051865 -0.0099721001 12
0.87990803 0.95392263 -0.13221934 6
0.92108279 0.9319526 -0.13167305 3
1.5190278 1.1642044 -0.14050268 58
1.5687778 1.2713504 -0.075152948 34.5
1.4870617 1.3623803 -0.13076109 58
1.1698083 1.5738798 -0.098758407 154
1.3058331 1.5238642 -0.094678409 160
0.70955729 1.7520332 -0.10049876 83
0.9997471 1.7451586 -0.14890023 20
1.6629677 1.6726941 -0.044029031 150
-1.1507579 1.897045 -0.028785601 6.6666665
0.089478835 1.9025183 -0.10147258 55
0.23812369 1.9058292 -0.12113335 6.5
0.33468628 1.9196423 -0.12535843 3
-0.18091084 2.0303621 -0.11760395 13
-0.0057154326 2.0511918 -0.0053104954 39
0.19538893 1.9706954 -0.077711858 159
0.33367449 2.0515254 -0.13136198 2
0.88679069 2.0793388 -0.028492426 151
-0.62811643 2.2470529 -0.11127401 2
-0.26484346 2.1339352 -0.11465412 83.5
0.1245503 2.1270874 -0.021054959 10
0.85778004 2.1676052 -0.10259277 14
0.99373925 2.1521459 -0.039449565 117.5
1.0904654 2.1358931 -0.087593764 88.666664
-1.0062833 2.3486152 -0.12014663 7
-0.80220234 2.2727168 -0.1234121 1.5
-0.28263244 2.250051 -0.1251561 3
0.37466231 2.3093641 -0.1267862 3.3333333
0.75258404 2.279135 -0.0019647228 86
0.25258696 2.4387393 -0.027482396 105
0.32726654 2.4460726 -0.075584628 90.5
-0.28094265 2.6380079 -0.11261038 23
-0.45098701 2.7515681 -0.0024138438 69
-1.1225432 2.9935937 -0.031415049 150
-0.71682107 2.8547325 -0.0045400904 77
-1.2420061 3.0744867 -0.013590102 66
-1.1522639 3.0296702 -0.0090829181 148
0.045012664 -0.92092985 0.06517119 8.2857141
-0.35207522 -0.75967836 0.031882688 12.888889
-0.21778174 -0.81328529 0.07610444 8.6428576
-0.082702801 -0.8626889 0.067298159 9.3999996
0.086966105 -0.81921363 0.068741456 0.07692308
-0.67982608 -0.62797517 0.071734205 13.176471
-0.52638954 -0.69003916 0.076838233 12.964286
-0.41661954 -0.73278266 0.069371454 12.857142
0.13666096 -0.69125402 0.070099279 0.125
0.16671576 -0.62925053 0.080875874 0
0.80319577 -0.6307146 0.10166282 8.7142859
-1.0845457 -0.46074605 0.1328138 11.666667
-0.95971519 -0.51480532 0.095766492 13.526316
-0.82702899 -0.56895047 0.073101595 13.472222
0.17862882 -0.59373677 0.062098369 0
0.65072483 -0.4834834 0.024857843 7.6666665
0.81284285 -0.59744453 0.070769407 9.5
0.95928383 -0.181095 0.0086721582 9
1.019058 -0.079617187 0.012515046 9.8000002
-0.95113254 0.14136757 0.046476301 4
1.0175797 0.0001236245 0.016411508 6
-1.1424724 0.17947119 0.12661332 0
-0.94770271 0.20981458 0.086075343 5.1333332
1.1554958 0.23946963 0.055408012 16.142857
-0.97051716 0.30190286 0.12683636 0
1.1834375 0.31230086 0.069729969 27.799999
1.2156165 0.39405131 0.079055883 45.285713
1.2657872 0.52594882 0.071275562 58.833332
1.3280098 0.67869127 0.067137092 54.375
1.3402174 0.76041132 0.071664557 52.75
1.3769122 0.83013684 0.080199733 62.666668
0.88289714 0.94540811 0.080313034 8.5
0.91874224 0.92073095 0.089887865 1
1.4373262 0.95699328 0.076981328 54.285713
1.4898354 1.0896538 0.11412779 51.666668
1.5122705 1.1402413 0.054342635 32
1.5645907 1.2758557 0.077191196 46
-1.2503898 1.5737448 0.10072862 4.75
1.6592548 1.5010784 0.086518757 43
-1.2084787 1.7286432 0.039692245 5.4000001
-1.1751014 1.7255713 0.10604248 4
1.7620256 1.7615981 0.03118391 47.5
-1.1304502 1.9186447 0.052652366 4.0999999
1.571331 1.9369272 0.088883094 76.75
1.7161007 1.8709669 0.077353731 79.14286
0.049029689 2.0944085 0.013105567 43
1.2401316 2.0784972 0.11614873 79
1.3891268 2.0162237 0.067523874 77.5
1.5329334 1.9599816 0.14790165 81
-0.10918741 2.2449236 0.11946734 157
0.00019843578 2.1600075 0.06067377 58
0.8457194 2.2366533 0.073871918 88.25
0.93799186 2.1987059 0.018879369 92.666664
0.092726111 2.3026955 0.081606984 151
0.67179245 2.3100312 0.11640918 85.666664
0.78316885 2.2621634 0.075731188 93.666664
-0.094356507 2.4612041 0.14642709 150
0.2219073 2.4571683 0.08333651 113.66666
0.35741884 2.4352131 0.013054664 94
-0.3110742 2.6927862 0.056185015 87.5
-0.27940065 2.6846657 0.028732356 91.5
-0.63240284 2.8306398 0.11497461 68
-0.45714313 2.7528973 0.095739797 68
-0.40224308 2.7349296 0.038974848 82
-1.400242 2.9785604 0.057879299 55.25
-1.0631061 2.9979548 0.14745563 57
-0.93780982 2.9515452 0.09516409 70.599998
-0.83473307 2.9067228 0.035645191 71.25
-0.7110585 2.8547947 0.0030152453 77
-1.3731636 3.0397823 0.11596631 55.200001
-1.21702 3.0665751 0.022968674 66
-1.1613678 3.0427995 0.060208641 71
-0.0056225089 -0.90581143 0.21496499 7.5
0.060402095 -0.92741656 0.22842711 7.181818
-0.33751133 -0.75923514 0.24207175 5.75
-0.2076551 -0.81991255 0.23177795 8.8000002
-0.078128584 -0.87634397 0.24495673 8
0.088296577 -0.81856048 0.20612498 1.2
-0.6963191 -0.6212374 0.24767432 10.363636
-0.51855117 -0.69108039 0.20776379 9.5
-0.41603756 -0.73325264 0.25945118 5.6666665
0.094053201 -0.70642096 0.23550189 0.5
0.16032015 -0.67362928 0.16843078 0.5
0.79107374 -0.6687119 0.17781806 8
-1.0965114 -0.46185184 0.22278705 9.5
-0.98110634 -0.50329798 0.19802427 9.2666664
-0.80876225 -0.57344586 0.20049536 8.583333
-1.264377 -0.39977533 0.24049664 9
-1.1622641 -0.43771034 0.23395553 7.4000001
-1.07901 0.00018964251 0.16095811 3
-0.98028773 0.2892215 0.15505582 2
-1.0635169 0.3820059 0.2938211 4
-1.0050555 0.32392383 0.18750802 3.5
1.2104485 0.38742107 0.18221205 57
1.2664033 0.53395373 0.20201388 53.42857
1.3221194 0.67776263 0.23073547 52.57143
1.3390396 0.76500726 0.21271189 51.25
1.3968248 0.86121523 0.19914031 58.5
0.88518429 0.94515961 0.22355162 34.666668
0.91889775 0.93831074 0.25050095 6
1.4299555 0.94560045 0.22870278 49.5
1.4859405 1.0850223 0.21201822 47.25
1.5171263 1.1712611 0.19435644 48
1.5558131 1.2648895 0.21803741 46.599998
1.6202599 1.4149423 0.24422906 48.666668
1.6549774 1.4933912 0.16930771 45
-1.2481591 1.6230996 0.22866671 2
-1.2743373 1.6669807 0.21590829 9.5
-1.176107 1.6725699 0.26782176 1
1.7588172 1.7559987 0.24163592 39.5
-1.1873735 1.8319683 0.2604081 3
1.5650741 1.9383321 0.17189032 77
1.686129 1.893247 0.28474253 81
-1.7655022 2.0762873 0.28363979 69.5
1.292722 2.0540359 0.24609812 82.166664
1.4197954 2.001802 0.20147747 77.833336
1.5045197 1.9624825 0.18393916 77
0.97566229 2.1863837 0.29309446 82
1.1186291 2.1261206 0.22697777 81.5
0.54217881 2.3605144 0.24099563 89.14286
0.67459464 2.3072827 0.18938453 91
-0.02733143 2.4871578 0.17615622 64
0.050693288 2.5087633 0.21276522 55.5
-0.24116129 2.6767199 0.28676456 80
-0.099013075 2.5951309 0.26125628 110
0.035456877 2.5575969 0.20166105 7
-0.62858927 2.8276093 0.22634682 72
-0.51742303 2.7833965 0.20115706 73.5
-0.42165086 2.7457125 0.16095889 87
-0.82676113 2.9053407 0.24032557 71
-1.375493 3.0449817 0.18623847 51.666668
-1.2881444 3.0963125 0.29023868 63.5
-1.1295582 3.0330486 0.25770488 64.5
0.05138772 -0.92136192 0.37668991 6.5
-0.3407509 -0.77315772 0.41403803 7.5555553
-0.23143438 -0.81233341 0.35997826 7.0999999
-0.068617865 -0.87350392 0.37688616 6.7692308
0.045890063 -0.86516929 0.33255807 6.5
-0.75981307 -0.60174912 0.30155861 7
-0.6679123 -0.63152421 0.3738586 9.2857141
-0.53088546 -0.68983626 0.36532998 8.3157892
-0.41049084 -0.7365678 0.3702569 8
-1.0827878 -0.46598858 0.38361591 5.25
-0.97495836 -0.51361626 0.36667255 6.818182
-0.81128174 -0.5778144 0.39015493 8.5714283
-0.74145848 -0.5989657 0.34343916 10
-1.404449 -0.3345989 0.38146886 3.4444444
-1.2780672 -0.39020512 0.35763195 5.4285712
-1.1786982 -0.42969447 0.38387769 6.1999998
-1.5651087 -0.26601726 0.41471702 23.25
-1.4968895 -0.29549196 0.39204568 7
-1.3566083 -0.0079805283 0.38178766 4.3333335
-1.3528156 0.021278592 0.37527514 9.5
-1.2977444 0.044123277 0.410593 3.8333333
-1.189122 0.096034482 0.34691179 0
-1.1010191 0.37505221 0.3783915 7
1.3281078 0.71612275 0.33065593 57
0.97622955 0.88122165 0.3441022 29.5
1.1524463 0.83062994 0.34300628 48
1.2924312 0.78216594 0.34891927 39
1.3930407 0.86232615 0.31799203 53.5
0.89217573 0.94117618 0.34226456 93.5
0.94041097 0.93300724 0.32607719 30.5
1.4534708 1.0108346 0.36210236 47
1.4980752 1.1150501 0.36989623 47
1.5214573 1.1873807 0.37920731 39
1.540616 1.2243919 0.35743654 45.25
1.6301867 1.4403844 0.35767105 42.666668
-1.9765038 1.5589767 0.43739912 98
-1.9075543 1.7306013 0.40655673 86.333336
1.7325662 1.7106515 0.4082655 29
-1.8294884 1.9199225 0.39224645 78.5
1.568731 1.9425632 0.43293452 68
1.7426769 1.8736339 0.40386119 69
-1.7579473 2.0913417 0.32905287 69
1.1901236 2.0970383 0.35530788 76
1.2137556 2.089438 0.30572936 83
1.4137415 2.0113187 0.43210649 62
1.5515805 1.9592702 0.35717779 69
-1.7439185 2.1319242 0.40565163 74
0.86723679 2.2311347 0.40712011 79.5
1.0063179 2.1726341 0.40404281 78.199997
1.1148807 2.1268761 0.36422834 77
0.44594681 2.3965867 0.34261006 80
0.47896531 2.3869424 0.3295677 84.5
0.23533429 2.487083 0.43916765 81.333336
0.37469357 2.4296594 0.36933407 82.285713
-0.22365882 2.6672132 0.37820351 84.833336
-0.091326751 2.6119452 0.32722634 84.666664
-1.4569881 2.8298028 0.35984886 48
-0.63441437 2.8261738 0.31909949 76
-0.36232728 2.7254922 0.42823204 78.5
-1.4268101 2.9288349 0.42566189 46
-1.041648 2.9941297 0.38281071 69
-0.80717051 2.9039643 0.37737045 69
-0.70862496 2.8587556 0.30278647 75
-1.3653924 3.0579386 0.405705 43.5
-1.3130168 3.1039112 0.37071607 57.666668
0.07769575 -0.92287791 0.52124584 5.75
-0.32823801 -0.76613235 0.51152027 6.3333335
-0.21111029 -0.81512696 0.53034759 6.5
-0.085705817 -0.86533594 0.50317913 5.9166665
0.07356336 -0.89105934 0.5110786 6.25
-0.66984272 -0.63475049 0.51277655 7.1333332
-0.50700015 -0.69868988 0.54121596 7.090909
-0.41135216 -0.73721546 0.50458449 7.3636365
-1.0869823 -0.46380419 0.51060677 6.5
-0.96062791 -0.51659757 0.52915657 7.181818
-0.85559279 -0.55941445 0.50079626 7.5714288
-0.74555123 -0.5984447 0.58308208 6
-1.4219533 -0.32808197 0.53262109 4.75
-1.2846396 -0.3819564 0.52659023 6.8571429
-1.1638741 -0.43135026 0.52711123 6.3333335
-1.5867188 -0.26367167 0.5470342 18.4
-1.827804 -0.14688295 0.51830542 0
-1.32022 -0.0010562794 0.53359932 4
-1.2732134 0.051032394 0.52989095 2.8571429
-2.2148821 0.93283802 0.59091991 90
-2.158989 1.0902102 0.56485343 89
1.4788215 1.0812354 0.47149569 44
1.5098079 1.1588386 0.46563134 40.666668
-2.0897036 1.2477821 0.54091585 82.666664
1.5649158 1.2888134 0.53903246 60.5
-2.0280209 1.4183009 0.52672088 94.199997
1.61033 1.395115 0.50659734 44
-1.9581242 1.6025257 0.53714138 93
-1.9493408 1.62656 0.5730496 86
-1.8881562 1.7800862 0.52434486 85.375
1.7339233 1.7032267 0.47600171 41
-1.8219352 1.9458643 0.50782204 72
1.6130536 1.9264534 0.55186504 63.799999
1.7343735 1.8750682 0.53403813 63.666668
-1.8128814 1.9702482 0.52385563 79.285713
1.2995148 2.0567329 0.54326236 65
1.4501283 1.9883912 0.53471613 66.5
1.5155582 1.9727341 0.57346481 69
-1.7362449 2.1521235 0.49428806 73.75
0.84227759 2.2386837 0.54742366 81
0.93673849 2.2018409 0.48012304 75.5
1.1615645 2.1146901 0.59985077 74
0.72567898 2.289897 0.49179512 71
0.7828241 2.2650332 0.54907829 74.666664
0.1176136 2.5368848 0.55741882 81.5
0.21966405 2.4887605 0.53541118 82.599998
0.34039062 2.4470959 0.45297241 82.5
-1.5216196 2.689013 0.49861795 36
-0.25974643 2.6815548 0.47638631 85
0.05722804 2.5545261 0.56112492 84
-1.5016441 2.732538 0.4890995 46
-1.4757624 2.7878351 0.47339556 43
-0.53193092 2.7934041 0.56688929 73
-0.39381003 2.7387004 0.52278423 78.400002
-1.446659 2.8909862 0.52767211 51
-1.0012194 2.983484 0.51320654 71.75
-0.85675251 2.9250734 0.45888013 73
-1.2793772 3.0941052 0.54270279 56
-1.0409576 3.0031049 0.59946316 69
0.046555918 -0.91048855 0.66942275 7
-0.31297955 -0.77074313 0.67309362 6.4000001
-0.2413407 -0.8001129 0.65999937 6.0833335
-0.077266641 -0.85880494 0.67815757 6.3333335
-0.70069182 -0.61734569 0.66724139 6.8571429
-0.54248887 -0.6809094 0.67472446 6.1538463
-0.38982281 -0.73918039 0.67295814 6.75
-1.0635319 -0.47157562 0.67784423 6.75
-0.99721336 -0.49889559 0.64806962 6.75
-0.81090647 -0.5728454 0.67437476 6.3333335
-1.4287856 -0.32464594 0.68878281 16.4
-1.2844542 -0.38352191 0.66253263 7
-1.1583239 -0.42896989 0.70440185 7.5
-1.6804515 -0.22060585 0.62532645 39
-1.5750368 -0.26215568 0.67255658 33.5
-1.4919107 -0.2965447 0.67810762 35
-2.0707781 -0.087402247 0.7274974 20.666666
-1.2287115 0.11714658 0.66771805 2
-1.1583189 0.12083966 0.68937713 6.1999998
-1.2321374 0.16425496 0.62737548 6
-1.1491971 0.18988019 0.69013035 20.5
-2.2041581 0.97140962 0.68185151 83.199997
-2.1409383 1.1348001 0.68589878 94.85714
-2.0781517 1.3003199 0.66950184 96.625
-2.0142257 1.4704742 0.66987675 94.333336
1.6408633 1.4901185 0.65413272 36
-1.9583013 1.6152585 0.60934448 86
-1.9462155 1.6391563 0.65555042 83
-1.9063145 1.735948 0.67911357 82.666664
1.7331858 1.7201819 0.69672853 36.666668
-1.8509598 1.8760313 0.67958432 78.666664
1.5895103 1.9381115 0.64092785 63.5
1.722481 1.8849511 0.70626247 61
-1.7823303 2.0457277 0.68974251 76
1.1926849 2.0954113 0.6506362 71
1.2896855 2.0583456 0.70487911 70.199997
1.4302613 2.0045245 0.67646313 65.428574
1.5017606 1.9767709 0.64283037 61
-1.7356285 2.1535113 0.65873206 73.800003
1.0401065 2.1582904 0.69199312 70
1.0801843 2.1479652 0.73812962 64
-1.6825434 2.3032229 0.62509632 65.666664
0.52870846 2.3658073 0.72653246 72
0.66873831 2.3098044 0.64686775 71.125
0.75552732 2.2756493 0.6142931 78
-1.6349225 2.4149718 0.68907982 65.5
0.10990973 2.5353105 0.6636014 81
0.16706379 2.5102818 0.61605382 81
-1.5426878 2.6419594 0.67898381 52
-0.079582326 2.6149209 0.71025926 76.666664
0.040147074 2.5638664 0.67963368 80.199997
-0.64396483 2.839802 0.74757969 75
-0.56198055 2.8077316 0.66712964 73.599998
-0.41406149 2.7439973 0.61026299 77
-1.4287965 2.921535 0.6777553 46
-1.0108272 2.9884932 0.6196093 75
-0.7872473 2.8983326 0.69699228 81
-1.236643 3.0784619 0.69432688 60.333332
-1.1444788 3.0469446 0.63740301 64
-0.33757573 -0.75632632 0.81009591 5.5999999
-0.22882578 -0.79567349 0.81354684 10
-0.0051146923 -0.88043833 0.79095256 34
-0.65847498 -0.63132834 0.8310771 6.625
-0.51360089 -0.68975735 0.83218682 6.2857141
-0.40297243 -0.7357412 0.82116169 6.3333335
-1.0739812 -0.46359318 0.75517577 6.5
-0.9547227 -0.51368958 0.82043141 7.3333335
-0.85835022 -0.55194277 0.80460751 6.1428571
-1.4190716 -0.32300398 0.80274695 31.666666
-1.2916987 -0.37632906 0.84596622 16.5
-1.1640358 -0.43296003 0.80600643 12.75
-2.1122694 -0.16339011 0.81778479 7
-1.6844944 -0.21999587 0.84456766 30
-1.6011087 -0.25056088 0.85833007 28
-1.495343 -0.29429841 0.87131774 31
-2.1128759 -0.13125624 0.75698423 11
-2.0523427 -0.097428367 0.82531738 16
-1.2139153 0.043622684 0.78362757 2.5
-1.1536863 0.064510942 0.78686798 4
-1.0380508 0.10916089 0.83318019 0
-1.1182182 0.2185367 0.80143869 14.25
-2.2531772 0.86944985 0.84427166 93
-2.246011 0.88648528 0.86498892 79
-2.1971467 1.0098429 0.80953401 101.14286
-2.1432462 1.1511362 0.81033182 98.800003
-2.1157689 1.2290885 0.84409279 89.5
-2.0713875 1.3347027 0.79514307 92.5
-2.0234075 1.4455409 0.82754582 85.333336
-1.9673961 1.5933746 0.84338075 75.599998
-1.9096704 1.7337331 0.8107872 78.333336
1.7205483 1.688711 0.81486911 32.666668
-1.8489636 1.8869095 0.78841519 76.5
1.6050904 1.936137 0.8466925 57.5
1.7353137 1.8654993 0.82985711 51.875
-1.8080615 1.9803391 0.81418014 73
-1.785802 2.0355425 0.75806117 78
1.1969961 2.0928299 0.78634119 73
1.2552751 2.0725863 0.80736214 67.666664
1.3997629 2.0259924 0.84318113 60
1.5239527 1.9688771 0.8455869 56.5
-1.7222755 2.2059975 0.81935966 67
0.99270344 2.180795 0.85512984 67.800003
1.1305472 2.1239555 0.82423311 68.333336
0.51019031 2.3785496 0.82579648 73.5
0.61032182 2.3334064 0.75331289 75.5
-1.6261171 2.4392426 0.82166898 61
0.40612125 2.4202018 0.84974593 72
-1.5282575 2.6710539 0.77312958 45
-0.23297651 2.6742346 0.85044986 76.333336
-0.0853706 2.6185348 0.82040852 74.800003
-1.524093 2.7156272 0.87227511 52
-1.4867311 2.7958324 0.88149822 48
-0.57698548 2.8110931 0.75645232 77
-1.4231459 2.9428735 0.86205626 42.25
-1.0017911 2.9849284 0.86645615 67
-0.76583338 2.8884134 0.83441615 72.333336
-0.70768404 2.8648098 0.81418294 77.5
-1.3811431 3.0543718 0.81387949 44
-1.2758282 3.0958545 0.79473704 68.666664
-0.32491225 -0.75330919 0.94338393 36
-0.25200737 -0.77934778 0.95456833 15
-0.1473787 -0.81953728 0.91877317 36
-0.67409754 -0.62503916 0.96002603 12.25
-0.53435647 -0.67609024 0.98581433 18.111111
-0.40742359 -0.72605377 0.95803088 8.8000002
-1.07604 -0.45784301 0.97240204 15
-0.95236588 -0.51199812 0.93328381 18.166666
-0.79139155 -0.57376122 0.97772908 17.5
-0.74253714 -0.59925574 0.9845233 6
-1.4510274 -0.30767435 0.98487771 27
-1.2673109 -0.38407654 0.93539715 23.799999
-1.1708112 -0.43200383 0.90575874 6
-1.6796066 -0.22025424 0.97563469 27
-1.5926727 -0.25340676 0.97276807 28.333334
-2.1939549 1.0277375 0.9432466 95
-2.1602755 1.1104842 0.96927404 83.5
-2.1178916 1.2190832 0.98874152 68
-2.0992255 1.2721465 0.96218532 79.5
-2.0346403 1.4312474 0.95276415 80.800003
-1.9915951 1.5316749 0.90043104 79
-1.9430524 1.6508982 0.98812342 80
-1.864765 1.850275 0.9927839 74
1.6207032 1.9271939 0.97643268 54.75
1.7355831 1.8638585 0.95425236 49.599998
-1.7882897 2.0461702 0.98185706 68.666664
1.3280565 2.047575 0.97506756 59.5
1.4433895 2.0030425 0.99730569 55
1.5474259 1.9586678 0.96983314 56.25
-1.7211249 2.2118073 1.032336 66
0.87640786 2.2296581 0.96822232 65.666664
0.96586794 2.1946726 0.9573853 67.833336
1.173315 2.1112442 1.0123844 60
-1.6894668 2.2890131 0.98527431 64.333336
0.72694451 2.2988935 1.0352286 64.5
0.81356305 2.2554121 0.90463269 74
-1.6195116 2.4627221 0.96890628 62.599998
0.26629657 2.478544 0.97574794 69
0.37067175 2.4352868 0.96080482 70.75
-1.5550404 2.6216664 0.9358604 54.666668
-0.22950248 2.6758461 0.96321189 78.400002
-1.508034 2.7347217 0.94003898 49.5
-0.39488807 2.7409134 1.0084692 72.666664
-0.95021415 2.9662101 0.9781642 65.333336
-0.82512003 2.9178228 0.95761824 73.666664
-1.4061787 3.0012383 0.92219293 50
-0.31495249 -0.75747097 1.0783973 22
-0.23297384 -0.7853688 1.1229026 23.4
-0.1407169 -0.8205896 1.0511813 28
-0.68060678 -0.61985099 1.1089629 17
-0.52048796 -0.67523521 1.146323 22.333334
-0.38625458 -0.73041797 1.1283715 21.75
-1.0555985 -0.46447742 1.060521 25
-1.0173181 -0.47891757 1.094504 27
-0.81487268 -0.55990374 1.1142488 27.5
-1.4431648 -0.31192416 1.1206877 23.5
-1.2588742 -0.38513166 1.1122103 24.75
-1.0967407 -0.44930121 1.0524048 29
-1.6954271 -0.21004157 1.0566708 26
-1.4864042 -0.29433718 1.1465074 28
-2.1475034 1.1541722 1.124351 82.666664
-2.0823772 1.3113017 1.0710945 79
-2.038033 1.4235094 1.1622006 71.5
-2.0015159 1.5201126 1.1197503 82
-1.922806 1.707865 1.1415112 71.599998
-1.86236 1.8552746 1.1172318 69.25
1.5775688 1.9497685 1.1053169 56
1.6965655 1.9004191 1.0619746 54
-1.8173401 1.9843807 1.1089694 61.5
-1.7810855 2.0644374 1.0811131 64.5
1.2724229 2.0702965 1.1400001 58.099998
1.4076148 2.0153553 1.1052618 54.285713
1.5145417 1.9714458 1.062281 49
-1.745617 2.1466932 1.0598882 64
0.84520668 2.2427745 1.0806646 68.5
1.0477459 2.1686919 1.0989283 62
1.1497836 2.1212211 1.1524575 58.75
-1.6886321 2.297292 1.0531417 64
0.59693629 2.3527417 1.158161 61
0.68345922 2.3070655 1.1614044 62.799999
0.7864359 2.2662077 1.0760313 66.5
0.12804894 2.5294814 1.1284491 73.25
0.23162159 2.4912152 1.0913067 68.199997
-1.5406634 2.6703072 1.1973259 50
-0.61781758 2.838223 1.1492103 71
-0.38236243 2.7375479 1.1219802 72.800003
-1.4266518 2.9517438 1.1709059 43
-0.9498933 2.964308 1.0862913 65.5
-1.2267251 3.0772381 1.1038003 63
-1.1142762 3.0299861 1.1781242 55
-1.0315772 3.0042467 1.1244529 72
-0.31348822 -0.75642395 1.2718832 13
-0.21054815 -0.79286379 1.279317 18
-0.6718502 -0.61647427 1.285367 27
-0.52026159 -0.67677468 1.2649056 28.166666
-0.40057382 -0.722408 1.2762552 22.6
-0.9395625 -0.51085705 1.2563792 24.333334
-0.81785566 -0.55854827 1.2693226 28
-1.4444875 -0.30925202 1.2873751 25
-1.2297685 -0.39445546 1.2592468 24
-1.1499554 -0.42632818 1.2769092 22.4
-1.6751068 -0.21212822 1.2632055 26.5
-1.5155847 -0.28242093 1.3202459 27
-2.264034 0.86324751 1.2873497 10
-2.157901 1.1214812 1.3002793 78.333336
-2.1151392 1.2361493 1.2921205 77
-2.0824823 1.3113761 1.2587771 74
-2.0273802 1.4503834 1.2516879 72.75
-1.9671154 1.6073705 1.2169161 68.666664
-1.9055141 1.7702709 1.3256118 66
-1.8219378 1.9694972 1.287616 59
1.1937214 2.0985687 1.2310941 55
1.2907495 2.0636215 1.243329 54.5
-1.7347027 2.1827257 1.2543578 63
0.88826853 2.2326233 1.3371798 58
0.97136831 2.1935523 1.2706317 60.400002
1.1217371 2.13223 1.282043 55.888889
0.52513885 2.3756604 1.3006822 63.200001
0.65014505 2.3238864 1.2645211 65.599998
0.84512907 2.2509551 1.3337692 63
-1.635159 2.4486761 1.2807387 57
0.13667019 2.527863 1.2263105 71.5
-0.015050042 2.5908725 1.265586 63
0.042060252 2.5730588 1.2859372 66.333336
-1.5213228 2.723582 1.3048393 49
-0.54561871 2.8087976 1.275954 66.571426
-1.4067471 2.9969797 1.2781147 45
-0.82108009 2.9190331 1.3448064 65
-1.2553856 3.0930314 1.3498942 66
-1.1556269 3.0497589 1.2600747 63.5
-0.30975962 -0.75483376 1.405576 18.5
-0.21107054 -0.78816533 1.4405887 14.5
-0.64189982 -0.62495929 1.4241928 27.333334
-0.51146388 -0.67779654 1.3940744 25.5
-0.40197593 -0.71878707 1.4442623 21.25
-1.0748968 -0.45213106 1.428833 22
-0.97374207 -0.49411878 1.4506689 23
-0.81596893 -0.55535835 1.4493027 24.75
-1.3730636 -0.33391011 1.3922834 20.5
-1.6921525 -0.2089417 1.4253445 8.666667
-1.6113673 -0.24199605 1.372875 33
-2.1554112 1.1320367 1.3909595 73
-2.1270864 1.2056462 1.4439334 75
-2.0956576 1.2903807 1.3580347 74
-2.042335 1.4179641 1.446157 74
-1.9683977 1.6035092 1.4070728 71
-1.880651 1.8239785 1.4191704 65
-1.7917514 2.0546417 1.4399042 57
-1.7147819 2.2398529 1.3567901 55
0.86511451 2.2351866 1.450269 62.5
0.9829694 2.1902354 1.4233897 57.099998
1.0697147 2.1546865 1.3586458 56
-1.7014799 2.3014922 1.4691116 59
0.51534885 2.3782413 1.4167784 64.666664
0.74749333 2.2885637 1.466689 56
0.80796063 2.2649634 1.4525288 60.5
-1.6065177 2.5281281 1.4398676 58
0.39589182 2.4278157 1.4460335 61.25
0.46053243 2.4054866 1.4086626 58
-0.16559908 2.657378 1.4084246 65
-0.050138753 2.6100767 1.4036602 65
0.021738511 2.571589 1.3940908 66
-1.5083857 2.783268 1.4185861 53
-1.4831481 2.8033447 1.4875553 50.5
-1.4451411 2.9195476 1.4785993 50.5
-0.76953709 2.8996277 1.4452301 65
-0.67852885 2.8652318 1.4478413 64.666664
-1.3904437 3.0516949 1.432848 46.5
-1.3476897 3.1232071 1.4386044 72
-0.24552381 -0.77412963 1.5836549 16.5
-0.64316863 -0.62262917 1.5753707 27.333334
-0.53777081 -0.6635623 1.5609026 27.166666
-0.37728736 -0.7240718 1.6020001 22.666666
-0.97845435 -0.48881769 1.5843259 22
-0.76284868 -0.57213145 1.6181918 27
-0.72297567 -0.59195292 1.5133846 28
-1.4058332 -0.32151327 1.5416652 29
-1.3001009 -0.36555067 1.5345799 22
-1.6563034 -0.21717255 1.5925605 27
-2.1751466 1.0908893 1.580569 75
-2.1046262 1.2694299 1.5365586 72
-2.0868955 1.3335896 1.6367654 70
-2.0091922 1.5067716 1.5895723 70
-1.9336275 1.7017851 1.5987951 64
-1.8497733 1.9129585 1.5859151 64
-1.7822858 2.0863669 1.6124282 56
-1.7585367 2.152787 1.6040192 56.333332
0.86348969 2.2367437 1.5565592 52.666668
0.91967648 2.2138247 1.5160604 58
-1.6914786 2.3124688 1.5725546 47.25
0.70529759 2.3091993 1.5912039 55.75
0.81642354 2.2642653 1.6070811 58.400002
-1.661427 2.4014053 1.5848404 50
-1.6185803 2.5044079 1.5519459 51.5
0.2655606 2.4855645 1.6124986 57.333332
0.37509927 2.4402976 1.5610554 60.799999
-1.576569 2.5977993 1.5306751 54.666668
-0.19215219 2.6722777 1.5787982 58
-0.125434 2.6425724 1.5300984 64.666664
-1.5336846 2.7103372 1.5190625 49
-1.4844271 2.8304808 1.5303378 56
-0.32871839 2.7220798 1.5920169 58.5
-0.99637139 2.9851983 1.6335334 65
-0.82639837 2.923876 1.6215824 65.333336
-0.71953398 2.8762734 1.545431 61
-1.3756053 3.1083467 1.5129806 53
-1.0466611 3.0065687 1.5704477 71
-0.30156088 -0.75406361 1.7472285 18
-0.26184481 -0.76742303 1.7672077 23
-0.64964372 -0.6194331 1.71043 29.333334
-0.55034143 -0.65792722 1.7365141 27
-0.41059819 -0.71409857 1.7715143 30
-0.93258917 -0.50664496 1.7150342 24.5
-0.83714139 -0.54727721 1.7259046 33.5
-0.69901907 -0.59810126 1.7692617 34
-3.8305244 -0.37020025 1.7723428 35
-1.2302681 -0.38590175 1.7209412 20
-1.1785362 -0.41347542 1.771345 35
-1.6069138 -0.23883358 1.7382375 22
-2.1558547 1.1495844 1.7355489 72
-0.33474624 1.121488 1.7809755 38
-2.1285737 1.2237262 1.7776743 56
-2.0824714 1.3191013 1.7689621 75.5
-2.0315764 1.4512743 1.7624353 71
-1.9833323 1.5625592 1.7251506 71
-1.9591022 1.6545658 1.7570626 61
-1.919432 1.7458709 1.7046618 62.333332
-1.8712506 1.8602518 1.6765243 57.5
-1.5962235 1.9478891 1.7995015 70
-1.8150687 2.014019 1.6712704 55
-1.3339553 2.0005641 1.7990386 69
-1.6171668 2.213906 1.7918478 70
-0.62795836 2.240638 1.7949816 58
-1.2497004 2.325201 1.7977208 63.5
0.56555587 2.3688126 1.7665435 62.333332
0.68412387 2.3157465 1.7331717 58.5
0.76609278 2.2842495 1.6875901 55
-1.5211743 2.4702895 1.7900842 73
-1.422856 2.4133825 1.7969018 73
-1.163309 2.4786003 1.7975345 55.666668
-0.62314904 2.5286508 1.7998682 54
-0.51978189 2.4710186 1.7988825 56
0.12826894 2.5326929 1.7680802 62
0.2487399 2.4952216 1.7073154 59.75
0.31690425 2.4686193 1.7742471 59
-1.2737252 2.6255128 1.7949902 66
-1.115075 2.6138835 1.7924269 59
-0.69039953 2.6047578 1.7953547 57
-0.42057812 2.626272 1.7949044 55.5
-0.24065854 2.6938725 1.7550439 58
-1.406798 2.7357724 1.7829334 70
-1.1138778 2.8310957 1.7900685 66
-1.0332781 2.7743919 1.787922 62
-0.50211865 2.770987 1.7853923 62.5
-0.33289385 2.7228498 1.7819473 64
-0.28556457 2.7093096 1.7030268 55
-1.1904203 2.9282529 1.7862588 65
-0.94974518 2.9330466 1.7520339 67.599998
-1.2776414 3.0288374 1.7819389 69
-0.64774102 -0.62135929 1.8093086 51
-0.51327091 -0.66253352 1.8308591 68.666664
-0.38622522 -0.6604144 1.8353266 70
-0.29798761 -0.70897669 1.8401204 62
-3.8355289 -0.45649937 1.8072355 14.5
-0.990888 -0.4520193 1.8290769 79.5
-0.79574484 -0.4987998 1.8354295 85.599998
-0.68016416 -0.52487046 1.8320643 77.75
-0.51933068 -0.52716446 1.8376617 82.111115
-0.39828852 -0.49956998 1.8351805 76
-3.6169467 -0.39200261 1.8156689 83
-3.5732152 -0.35215864 1.8138417 84
-3.3915186 -0.33320865 1.8134557 85
-3.2766159 -0.35899821 1.8124403 78.5
-3.1024902 -0.32858729 1.8157626 67.5
-1.3785158 -0.30672896 1.8379894 98
-1.1253893 -0.37702531 1.8249481 71.400002
-0.98561412 -0.38789016 1.8342472 80.800003
-0.81618726 -0.38283879 1.8324502 83.599998
-0.67329729 -0.37435541 1.8324946 75.125
-0.5241676 -0.36412039 1.836336 69
-0.4086732 -0.37820378 1.8292478 63
-3.2206426 -0.19526526 1.8087016 79
-2.9610543 -0.25139958 1.8185834 71
-2.8077726 -0.17207965 1.818135 67.5
-2.6291108 -0.15668143 1.8137242 69.5
-2.4790812 -0.26641086 1.8179265 60
-2.3460369 -0.21064004 1.8177266 76.5
-1.8779099 -0.18900056 1.8147987 17
-1.548317 -0.23952377 1.8307838 93.333336
-1.4306936 -0.24376445 1.8312029 93.666664
-1.2402376 -0.24296999 1.8273253 78.5
-1.1070542 -0.21603043 1.8259945 78.833336
-0.96490312 -0.22801398 1.8297375 72.666664
-0.81193423 -0.22428153 1.8341647 74.875
-0.68905574 -0.23590443 1.8337088 67.428574
-0.52462149 -0.24469817 1.8330313 70
-0.43554398 -0.25799179 1.8345255 70
-3.2844214 -0.10818599 1.8113186 80
-3.0737388 -0.066134535 1.8121868 49.333332
-2.9483137 -0.019046236 1.8224937 5
-2.5804131 -0.13410592 1.8169035 71
-2.4804134 -0.086392261 1.8169206 64.5
-2.1258137 -0.08156883 1.8194228 18
-2.0010266 -0.084429443 1.8188171 78.5
-1.8495288 -0.053634487 1.8264273 78.5
-1.7145807 -0.079129487 1.8227826 83
-1.5763999 -0.088264458 1.8263249 89.25
-1.4383197 -0.081826419 1.8311881 94
-1.2593826 -0.089687191 1.8238589 81
-1.1218953 -0.060739808 1.8280551 81.5
-0.98072803 -0.077698745 1.8266666 83.5
-0.82582647 -0.077817082 1.8332613 77.85714
-0.68492419 -0.091983214 1.8293842 71.285713
-0.52186483 -0.079789229 1.8291816 82.5
-2.4908149 0.11427705 1.8171645 44.5
-2.3336139 0.07074216 1.8139602 67
-2.1735659 0.10954332 1.8140839 70
-1.8127135 0.074299268 1.8352627 16
-1.7195433 0.087783419 1.8163933 18
-1.568871 0.054015614 1.8280952 90.199997
-1.400227 0.10986774 1.8328474 95.5
-1.2622789 0.069764331 1.822575 81
-1.1129888 0.076897904 1.8280586 83.199997
-0.98037332 0.06773252 1.8303353 80.833336
-0.81456012 0.074140899 1.8295429 79.199997
-0.68623257 0.071597591 1.8334736 77
-0.52474773 0.074781746 1.8307295 80.599998
-2.3721321 0.22128467 1.8109709 84
-1.5473055 0.22073898 1.8295282 86.199997
-1.3865479 0.24438703 1.8298849 94.5
-1.2647681 0.23031585 1.8202907 78.333336
-1.1466208 0.19997597 1.8253239 80.666664
-0.98204035 0.23375119 1.8278524 81.333336
-0.8228668 0.22629942 1.8281097 81.285713
-0.69430739 0.2242959 1.8303118 79.285713
-0.53455943 0.22007862 1.8280909 81.800003
-1.6533948 0.39120427 1.8211449 75
-1.5640193 0.4069345 1.8261579 86
-1.4484646 0.37499428 1.8303896 86.5
-1.3051637 0.35997042 1.8281132 93.333336
-1.140487 0.37260589 1.8229121 76.666664
-0.96734667 0.37499204 1.8268223 78.166664
-0.8087849 0.36172011 1.8261002 77.25
-0.67853481 0.39008042 1.8300457 78.333336
-0.51850361 0.36857718 1.827829 80.800003
-2.0117803 0.59710771 1.8101789 77
-1.9155846 0.58251256 1.8149556 76
-1.7596989 0.53937906 1.8263644 82
-1.593245 0.54926872 1.8237109 81.333336
-1.4275434 0.52025211 1.8294756 87
-1.2901303 0.49805918 1.8253597 90
-1.1347299 0.53576714 1.8211004 75.75
-0.95810533 0.51688355 1.8250579 78.166664
-0.80688477 0.51616627 1.8222284 77.166664
-0.67683822 0.52860463 1.8228232 77
-0.55199468 0.52561224 1.8254322 78.599998
-0.44255528 0.52057213 1.8269345 81
-2.0466213 0.68260431 1.8291482 53
-1.825209 0.63802832 1.8193332 90
-1.7226553 0.64940608 1.822904 82
-1.5830069 0.66367453 1.8195429 82.333336
-1.407284 0.67089391 1.841292 82
-1.2673435 0.66393387 1.8251599 83.75
-1.1388294 0.66365534 1.825483 84.666664
-0.98544073 0.68615127 1.8253245 77.75
-0.82882637 0.6600548 1.8246406 74.875
-0.66479355 0.69181782 1.8230337 76
-0.5327301 0.70069426 1.8247375 77.166664
-0.41518903 0.65098643 1.8218478 87
-2.0409753 0.80824286 1.8076513 50
-1.8916433 0.76379949 1.8139821 83
-1.7282634 0.81175786 1.8152429 77.333336
-1.5485878 0.78895855 1.8440863 67.666664
-1.422047 0.80129635 1.8411087 48
-1.28097 0.82700372 1.8387971 62
-1.1346307 0.81231713 1.8230532 88.25
-0.95130366 0.83992821 1.8262897 88
-0.81007773 0.8076269 1.8229853 74
-0.69724566 0.82747263 1.8216876 73.333336
-0.52059084 0.83829135 1.8238434 74.5
-0.36402541 0.83352977 1.8229146 76.5
-2.0122912 0.97292632 1.8107454 72.666664
-1.864058 0.94903952 1.8166434 79
-1.6974994 0.98217434 1.8125529 77.333336
-1.5803725 0.95691037 1.8544955 98.333336
-1.436951 0.94215953 1.8455749 70
-1.2707934 0.95109618 1.8365058 58
-1.1213795 0.96854532 1.8274832 83.199997
-0.96276861 0.95851243 1.8274843 84
-0.82084793 0.96878058 1.8231016 83.833336
-0.6630221 0.96488208 1.8247107 85.5
-0.54077339 0.99711722 1.8240293 82.599998
-0.3997843 0.98404932 1.8257397 72.5
-2.0015411 1.1722888 1.8050588 90
-1.8790343 1.1228293 1.813136 79.5
-1.7283951 1.1577861 1.8152901 71
-1.5763695 1.1356518 1.8211718 74.199997
-1.446367 1.1011181 1.8550395 109
-1.2628564 1.1038333 1.8298033 65.666664
-1.1185645 1.1145862 1.8182875 77.666664
-0.98349518 1.0999976 1.8238282 83.666664
-0.80581981 1.1221147 1.825194 83
-0.67632842 1.1036848 1.8271611 83.199997
-0.50539994 1.105618 1.8271819 84.5
-0.39480826 1.1430579 1.8233898 67.5
-0.24909775 1.1269557 1.8282863 78
-2.041822 1.2423484 1.8022381 90
-1.8842965 1.3121116 1.8048342 77
-1.732002 1.3341105 1.8118683 75.5
-1.5733773 1.3071414 1.8085475 84.666664
-1.419143 1.2594376 1.8121911 87
-1.2764419 1.2675446 1.8181282 77
-1.1130614 1.2564526 1.8166167 77.800003
-0.97104251 1.2530935 1.8208244 75.5
-0.80067015 1.2285057 1.8233281 72.666664
-0.63966048 1.2703989 1.8306504 66.714287
-0.50638574 1.2624594 1.8250957 80
-0.38159686 1.2703587 1.8222007 78.285713
-0.24848464 1.282766 1.8278704 70.800003
-1.9882977 1.3833606 1.8046967 79
-1.5108328 1.4378996 1.8067943 77
-1.459583 1.4044709 1.8079457 80
-1.2630213 1.428515 1.8118887 71.5
-1.1162261 1.4035621 1.8152056 76.5
-1.0023617 1.419618 1.8147905 71
-0.83018994 1.3733482 1.8280419 61.5
-0.67748135 1.4258955 1.8232384 64.199997
-0.54335225 1.4173391 1.8231807 69
-0.38151658 1.4400134 1.819321 71.5
-0.23427725 1.4225551 1.8248037 71.285713
-0.098476112 1.4460779 1.8202748 71.333336
-1.833769 1.5243449 1.8039867 75
-1.7388867 1.540012 1.8232929 44
-1.5667244 1.5220164 1.809065 76.333336
-1.4337128 1.6097121 1.8067933 77.666664
-1.2366282 1.6028157 1.8024276 83
-1.0996127 1.5912607 1.81357 70.5
-0.98121417 1.5649453 1.8131998 71.5
-0.84401858 1.5631102 1.8167262 70.5
-0.63726878 1.5780153 1.8175045 71
-0.50815547 1.5740825 1.8180948 68.199997
-0.32355753 1.5608578 1.8136164 71.333336
-0.2186794 1.5704105 1.8180252 72.599998
-0.096947029 1.5861862 1.8218225 70.599998
0.022822376 1.620173 1.8214817 69
-1.7203977 1.7404945 1.8028067 76.5
-1.5705163 1.7177378 1.80769 77
-1.4497319 1.7211648 1.8044831 81.666664
-1.1102269 1.7828988 1.8080174 65
-0.97634763 1.728287 1.8108603 70.5
-0.87435216 1.7451047 1.8112952 65.75
-0.70401216 1.6791396 1.8204297 64
-0.50297356 1.7313681 1.812116 67.800003
-0.39985013 1.7059528 1.8151754 65.333336
-0.21464533 1.6963934 1.815725 71
-0.078881316 1.7278739 1.8168 69.85714
0.079952583 1.7397763 1.815973 72.400002
-1.5014439 1.9180996 1.8037337 72
-1.4083656 1.8854789 1.8051966 71.666664
-1.3417209 1.8551862 1.8054584 71
-0.85247362 1.8857481 1.8107163 64
-0.59994012 1.8267832 1.8126487 62
-0.36349764 1.8838681 1.8099804 66.666664
-0.24238372 1.8748553 1.816462 65
-0.069847271 1.8673105 1.8137579 69.75
0.062633485 1.8639954 1.8174086 68
0.21661733 1.8849201 1.8164467 66.25
-1.7031651 1.9773129 1.8003644 72
-1.3053811 2.0787711 1.8035191 70.5
-1.061892 1.9874262 1.8062938 64
-0.97357237 1.9513355 1.8085073 68
-0.78743863 2.0169301 1.8073654 62.75
-0.72565269 2.0456052 1.8090748 61
-0.48510945 1.9820096 1.8100578 57
-0.25599596 2.0324419 1.8081905 62
-0.081617415 2.0771191 1.8164085 60
0.086172417 1.9915023 1.8127773 71
0.19799511 2.0264254 1.8124684 65.833336
0.34586373 2.0200999 1.8143692 63.599998
0.45926729 2.0866652 1.816453 65
-1.5172741 2.1780348 1.8011731 65
-1.4239452 2.1302063 1.8028158 74
-1.3032143 2.1656959 1.8019373 70
-0.95347911 2.1856222 1.8035864 60
-0.87073612 2.1367631 1.8056799 56
-0.6697529 2.1837263 1.8039923 60.25
-0.3559393 2.1415346 1.8092784 60
-0.16755405 2.1832874 1.8088115 58
-0.11840051 2.1881499 1.807285 59.75
0.04086579 2.2188997 1.8161651 39
0.24705477 2.1278007 1.8108406 67
0.34317914 2.1811049 1.8109659 65.199997
0.51372981 2.1947398 1.8128986 62.400002
0.60711324 2.2155869 1.8216265 69
-1.2632897 2.3201172 1.8032235 56
-0.79337347 2.3649802 1.8064219 55
-0.68903983 2.265486 1.8058175 59
-0.5543229 2.3595431 1.8053312 54.333332
-0.212552 2.3002598 1.8068444 58
-0.021708744 2.3491964 1.8066145 61.666668
0.022474758 2.3406675 1.8072954 62.333332
0.17812423 2.3669126 1.8163053 64
0.40424263 2.2713194 1.8091943 67.5
0.50412989 2.3155704 1.8108673 65.5
0.65044004 2.2881215 1.8119839 65
-0.56584585 2.4529784 1.8034321 60
-0.051988352 2.4669931 1.8073934 58
0.13143118 2.4969089 1.8022472 63
0.16243185 2.4517241 1.8099228 61
-0.3807359 2.5636144 1.8064879 57
