# .PCD v0.7 - Point Cloud Data file format
VERSION 0.7
FIELDS x y z intensity
SIZE 4 4 4 4
TYPE F F F F
COUNT 1 1 1 1
WIDTH 71
HEIGHT 1
VIEWPOINT 0 0 0 1 0 0 0
POINTS 71
DATA ascii
0.77978343 2.2336154 -0.76865399 3
0.97650939 2.1721361 -0.83256543 3
0.41771144 2.3812287 -0.81242818 0
0.50321978 2.3532414 -0.78924394 1
0.74211437 2.2726126 -0.82024628 2
0.20704921 2.4587495 -0.83032334 7
0.36073655 2.4213941 -0.75327051 0
0.014390391 2.554605 -0.75030649 22
1.0887833 1.4485662 -0.61639261 45
1.0338669 1.547735 -0.61320251 66.5
1.0706466 1.5313666 -0.62281138 72
0.60945624 1.7985307 -0.65828222 2
1.0212703 1.7764056 -0.6201601 16
1.0583177 1.8755044 -0.6874339 30
0.87289625 2.2188804 -0.67969012 112
1.0517654 2.143137 -0.63227886 89
0.54809403 2.3480871 -0.64938784 100.66666
0.68319154 2.2921226 -0.65960371 108.33334
0.77564412 2.2608519 -0.72451866 107
0.10862726 2.5247869 -0.67090815 77.25
0.22179747 2.4776933 -0.67468214 98.5
0.36541077 2.4245808 -0.7029658 93
-0.32989791 2.6956298 -0.62574786 94
-0.23541959 2.6580994 -0.65397829 65.333336
-0.10151637 2.6014285 -0.67965233 41
1.3294188 0.68116575 -0.50834054 62
1.3504492 0.73873913 -0.52946907 67
1.3826929 0.81978911 -0.53377134 62.333332
1.447703 0.98036569 -0.5285964 62
1.4925802 1.0886775 -0.49496412 59
1.5206517 1.1705675 -0.5157181 67
1.3315601 1.2326674 -0.59093934 11
1.5570039 1.2747942 -0.50566745 55.285713
1.3024254 1.4440488 -0.50956315 55.666668
1.4862759 1.3667555 -0.51647019 49.5
0.97498596 1.5777123 -0.55617177 64.75
1.0524826 1.5396359 -0.56331789 62
0.98202771 1.6998701 -0.55442953 19.666666
1.0851378 1.9345642 -0.54438585 99
0.97552425 2.1786797 -0.49358153 102.25
1.1171869 2.1181812 -0.52700686 96.5
0.43124098 2.3956239 -0.48671544 107
0.52867645 2.3562927 -0.55047876 108.85714
0.7328921 2.2742918 -0.59627098 115
0.078366309 2.5364821 -0.54459476 100
0.24443831 2.4732931 -0.59992647 96
0.36519581 2.4258637 -0.47983223 103.8
-0.31368518 2.6928639 -0.59631622 95
-0.23945828 2.659265 -0.54232609 60.5
-0.066318654 2.5930119 -0.50998396 93.333336
0.0046150209 2.5664296 -0.55914128 108
-0.4762018 2.7577741 -0.50883913 87.666664
-0.41721588 2.7303751 -0.49332228 74.625
1.2051977 0.35333973 -0.41301662 10
1.2592098 0.50204539 -0.42197287 68
1.3320122 0.68098491 -0.42579943 55
1.395856 0.83703768 -0.4016692 52
0.94331485 0.95216888 -0.43662265 6
1.2783417 1.4572868 -0.42646635 60
1.4307139 1.3937793 -0.42346314 43
1.0771703 1.5335752 -0.42064849 60
0.96116018 2.1864879 -0.4250204 100.6
0.46067613 2.3930273 -0.42850006 114
0.76118654 2.2654674 -0.44416276 99
0.16688241 2.5048115 -0.41850525 95
0.31258005 2.4470029 -0.43331653 97
-0.19802973 2.6431642 -0.42472073 93
-0.074010625 2.5973146 -0.42722452 62.5
-0.63963038 2.8262682 -0.41490278 85.333336
-0.59032559 2.8116517 -0.42589757 84
-0.44472644 2.7459643 -0.43318406 85
