# .PCD v0.7 - Point Cloud Data file format
VERSION 0.7
FIELDS x y z intensity
SIZE 4 4 4 4
TYPE F F F F
COUNT 1 1 1 1
WIDTH 1514
HEIGHT 1
VIEWPOINT 0 0 0 1 0 0 0
POINTS 1514
DATA ascii
-0.52383333 -1.8024677 -0.168327 79.599998
-0.41290176 -1.8025298 -0.18059275 77.25
-0.2334193 -1.8048476 -0.16302876 61.5
-0.65406895 -1.7765765 -0.15687101 43
-0.54884344 -1.795887 -0.17351981 76.666664
-0.12957528 -1.7976245 -0.19785118 74
-0.18680403 -1.3969195 -0.19900495 42
-0.015558737 -1.367552 -0.1939548 1
0.99988192 -1.4193853 -0.15759233 56
1.3161449 -1.4088826 -0.16068636 58.333332
-0.032767672 -1.3163189 -0.18155229 1
0.034280278 -1.3271083 -0.18654439 6
0.28176242 -1.2090739 -0.17045619 7.6666665
0.49328667 -1.3206567 -0.19282916 34
0.60700154 -1.2044063 -0.15571456 5
-0.10957155 -1.1535554 -0.17109247 2.8333333
0.12847376 -1.1185167 -0.15855268 2
0.18934539 -1.1360041 -0.16473942 2.5999999
0.31840953 -1.1910477 -0.17540108 3
1.3283715 -0.98630637 -0.19876863 55
0.9849562 -0.88928342 -0.18381287 39
1.1797584 -0.85987419 -0.16960096 80
1.3313868 -0.79707736 -0.16679986 52.333332
1.3337141 -0.67933524 -0.18667328 53
1.0278774 -0.4718923 -0.15272793 1
0.88339674 -0.35987553 -0.17310128 0.5
0.94449055 -0.35662186 -0.17028508 0.5
0.85597402 -0.2243579 -0.17700581 3.3333333
0.96158856 -0.10267961 -0.16635674 1.6666666
1.0563089 -0.056713611 -0.17001519 3
1.3462319 0.026247671 -0.17151822 61
1.3507892 0.11433125 -0.16891932 60
0.72861665 0.20728098 -0.1720425 3
0.77585077 0.19653948 -0.1805193 3.6666667
1.3532133 0.20299494 -0.16320576 62.5
0.93185037 0.35049605 -0.1768586 7.5
1.3421617 0.37486082 -0.15022869 10
0.88980979 0.5369364 -0.16541947 12
0.90397859 0.50194907 -0.16950524 81.5
1.1004596 0.45946586 -0.18799114 8
-0.5769766 0.61900496 -0.17390433 4
1.3554889 0.6137284 -0.15699548 56
-0.61638355 1.7796979 -0.1869753 60
-0.59774363 1.9193026 -0.17683914 30
-0.59707159 2.0418382 -0.17283818 28.5
-0.81060833 2.2373314 -0.16550831 2
-0.74317396 2.2112737 -0.15204316 5
-0.2252167 2.2251196 -0.18096103 47.333332
1.7569063 2.2362564 -0.17901707 0
-0.16458377 2.2588279 -0.18307307 36
-0.05336367 2.3489511 -0.18485463 0
1.3448876 2.3907347 -0.19470431 9
1.6141292 2.3664985 -0.15990226 3
3.4682119 2.2985933 -0.19959687 53
4.6586585 2.2944655 -0.18390934 28
4.5534725 2.4414427 -0.18802512 90
1.7800145 2.7293131 -0.191209 84
1.8047166 2.7238455 -0.17256394 87
-0.57698369 3.3861406 -0.16823892 18
1.5242014 4.8808265 -0.19905306 9
1.9113524 5.2737947 -0.17751005 31
-0.78858662 -1.8025711 -0.058292333 3
-0.5373053 -1.8025576 -0.078914918 82.571426
-0.33949658 -1.8023659 -0.072419636 66.666664
-0.24117906 -1.8051033 -0.10200991 81.333336
1.3011606 -1.8278539 -0.072807953 32.5
-0.78859121 -1.7893095 -0.046235409 3
-0.67154038 -1.7922368 -0.078991115 37.64706
-0.56315684 -1.7987355 -0.084663458 73
-0.44837111 -1.7952051 -0.024632519 63
-0.29296637 -1.7988346 -0.088141389 73
-0.15090717 -1.3861302 -0.025720274 153
-0.086372852 -1.3736278 -0.092958428 2.6666667
0.87287098 -1.3819607 -0.019144749 160
1.0089856 -1.3955945 -0.059390303 73
1.1537799 -1.4338591 -0.11828449 88.5
1.2579107 -1.4261107 -0.098407306 101.4
-0.17700963 -1.3367931 -0.10407708 48
-0.062810317 -1.2625694 -0.056224957 0.5
0.036168206 -1.2112342 -0.018762294 1.3333334
0.26518679 -1.2205135 -0.12257431 8
0.53427964 -1.2639306 -0.068597369 9.5
1.2993912 -1.3460449 -0.13249074 113
-0.04835074 -1.1616499 -0.079308905 1.6666666
0.088884182 -1.1519021 -0.090649679 2.5
0.15489776 -1.1183445 -0.13568203 3
0.50276786 -1.1063368 -0.057605192 2.1111112
0.64125192 -1.1776381 -0.12067315 21.5
0.89483863 -0.98366976 -0.11812061 32
0.9696849 -0.9480288 -0.040117834 22.666666
1.0850173 -0.93609333 -0.084900998 13.666667
1.0305727 -0.89114529 -0.032359112 25.5
1.1171883 -0.82427877 -0.089755535 36.125
1.3201929 -0.79139465 -0.053712651 57.625
1.3349963 -0.66301155 -0.075839631 50.714287
1.0667663 -0.45098796 -0.025578683 151
1.3311027 -0.59703207 -0.026385492 55
0.93876421 -0.36291867 -0.084184773 4
0.88247436 -0.21574712 -0.097757407 3.8
0.91447902 -0.23307379 -0.065605886 3.3333333
0.86846322 -0.1153511 -0.080533363 2
0.97971749 -0.11870319 -0.11540598 2.6666667
1.1215868 -0.081574626 -0.090434596 3
1.3473767 -0.027977429 -0.064911723 52.5
1.3480364 0.051273048 -0.070050038 58.599998
1.3523188 0.089829691 -0.087072007 59.125
0.73651588 0.20734583 -0.10365403 3.5
0.76988906 0.17434084 -0.11367452 4.6666665
1.0387962 0.29373184 -0.060583208 7
1.3321941 0.20005402 -0.08043585 92.5
1.3541034 0.19044383 -0.069013797 59.857143
0.77421468 0.42417845 -0.018612787 5.6666665
0.94808275 0.33576211 -0.079390086 39.916668
1.0867765 0.43131381 -0.069647729 9.75
1.343061 0.3839584 -0.033606861 11
1.365492 0.39595953 -0.092836075 12.666667
0.86579102 0.52247679 -0.071235269 13.235294
0.90822893 0.4861722 -0.13179274 16
1.3636192 0.58054864 -0.048985995 29.4
-0.57799131 0.626818 -0.082720466 2
1.3598928 0.62653619 -0.058477413 35
-0.61152393 1.7546468 -0.0030181156 32
-0.59874886 2.0442147 -0.11064339 26
-0.80361426 2.2374301 -0.096443497 2
-0.38795388 2.2166898 -0.073429704 62.333332
-0.186947 2.2332542 -0.12569647 53
4.4501829 2.2394388 -0.11436144 6
-0.8056919 2.2702453 -0.053608082 2.5999999
-0.34928992 2.2639296 -0.057741437 89.666664
-0.29476899 2.2541871 -0.09738896 69
1.3722954 2.3693063 -0.13734762 50
1.616998 2.3217814 -0.098616995 4
3.0477104 2.3103046 -0.12510765 46
3.2008016 2.3366921 -0.12557936 32
3.670404 2.2863891 -0.13836992 46
3.8651302 2.2553635 -0.073165931 10
3.9928477 2.2752898 -0.1194267 11
0.042356655 2.4855342 -0.033159662 103.5
1.3429048 2.4191556 -0.11957287 50.5
1.4204534 2.4340088 -0.14086175 150
3.2529206 2.6621146 -0.14919813 53
1.7169728 2.7313547 -0.13935132 83
3.8354824 2.7004409 -0.03272957 24
1.53416 3.020848 -0.030840551 38
1.6602504 3.0002842 -0.024751401 8
1.87992 3.01454 -0.0035637366 6
-0.58011472 3.3309093 -0.10863269 18
1.5257037 4.9399962 -0.076562859 11
1.3529723 4.9727559 -0.073060878 12
1.3448778 5.6698399 -0.026889151 1
1.135448 5.8449597 -0.14246649 14
1.4431192 6.4782372 -0.055518124 53
0.98798746 7.6319938 -0.14418428 38
-0.84000903 -1.8024845 0.08348579 0
-0.609653 -1.803766 0.099161796 71
-0.51785278 -1.8052759 0.039537761 69.333336
-0.33245641 -1.8041079 0.1258449 74.5
-0.2307432 -1.8043045 0.10023299 75
-0.14147125 -1.8035396 0.075805329 72
1.2863691 -1.8212582 0.055299051 88
-0.90127587 -1.7840027 0.052768704 1
-0.78952187 -1.7904942 0.080694243 5.5
-0.70875168 -1.7945169 0.05391736 10.666667
-0.5384571 -1.7956161 0.097468011 35.25
1.2137271 -1.7332075 0.04558697 150
-0.055754907 -1.3887094 0.12014315 5.25
0.42558116 -1.39439 0.11658809 31
0.46423015 -1.3709297 0.11706513 21
1.3171337 -1.4051144 0.11538199 53
-0.037343383 -1.2617865 0.041203324 1.7142857
0.04853354 -1.223871 0.0012321424 1
0.27387255 -1.3046262 0.10322971 11
0.36412489 -1.341619 0.10422888 16
0.4953323 -1.2994676 0.041665033 24.555555
0.8474586 -1.3087885 0.12079999 35
0.9619453 -1.2599154 0.081119135 108.66666
1.0803466 -1.274933 0.097434364 129
1.286147 -1.303848 0.10874324 150
0.99471778 -0.96040207 0.082560219 36.125
1.0685086 -0.90891767 0.032025155 31.5
1.3080971 -0.97366428 0.096692801 60.5
1.0268978 -0.87338513 0.14109492 69
1.1515313 -0.83863449 0.059804592 97.666664
1.3198025 -0.81357032 0.079642341 57.125
-1.1144935 -0.70407861 0.14669377 6
1.1441997 -0.60164446 0.14039117 151
1.3309356 -0.65838164 0.090386689 53.916668
1.0361624 -0.49084291 0.086835958 27
1.1844152 -0.49591911 0.059640732 75.666664
1.3349978 -0.58562362 0.04408646 55
1.0087297 -0.39326954 0.039870981 9.25
-0.96027344 -0.22242364 0.093040675 1.4
-0.89086372 -0.18085222 0.061826654 2.5
0.92846805 -0.27761474 0.0043311669 1
-0.961263 -0.076416954 0.074466005 1.9
-0.71323472 -0.098550104 0.14121883 0
1.342252 -0.084947467 0.074189663 51.285713
1.3509542 -0.045360442 0.011878098 57
-0.96465564 0.041203026 0.12418122 0
-0.87691104 0.0093747815 0.12143563 0
1.3449572 0.039279699 0.095056362 55.666668
1.3527491 0.066634275 0.060517378 52.555557
1.3494661 0.16253422 0.06273865 57
1.3537598 0.18054859 0.081008948 49.5
0.77849847 0.40557364 0.023447091 6
0.99532151 0.378167 0.029271014 8.25
0.69791043 0.5371173 0.11876517 1
0.8580215 0.54325557 0.072451897 5.3333335
1.1781065 0.52800214 0.019237245 19.5
1.3612543 0.59980661 0.041398909 59
1.3587867 0.62325746 0.047451999 62
-0.60753548 1.7294239 0.058554199 29
-0.59778661 1.9287896 0.026701981 33
-0.69978207 2.1726742 0.094520442 3
-0.59163874 2.1813459 0.073823892 31
-0.44245207 2.2130129 0.076113723 26
-0.2213691 2.2197866 0.12704302 24.333334
-0.11762474 2.2196689 0.086799942 49
1.8405628 2.2399297 0.14429629 0
-0.93839872 2.279664 0.043558475 1.5
-0.76140183 2.2636354 0.0116125 4
-0.44081524 2.2597733 0.034488287 113
-0.14476059 2.2628572 0.031224394 45
1.8461308 2.2887955 0.10741375 5
2.0343604 2.2528474 0.071567677 1
-0.56343192 2.476372 0.058222007 42.833332
-0.02510025 2.4082763 0.074361198 124
0.033118803 2.4709451 0.085484453 75
4.992373 2.6696458 0.057942476 62
5.2585835 2.6614597 0.060621914 27
5.6819315 2.6138413 0.030018175 2
3.7461622 2.8112252 0.099828266 63
3.8709016 2.7691622 0.10648738 37
1.6044105 2.9577286 0.090770088 0
1.9040577 2.9703963 0.063124977 0
2.7208965 2.8593047 0.07280802 1
3.0817509 2.9309955 0.10870563 0
3.4773722 2.9295959 0.020639354 0
3.6633854 2.9454484 0.047489814 17.5
4.9890637 2.8712292 0.14819252 2
1.5496203 3.0171731 0.026983054 17.75
1.4561816 4.948566 0.0019707931 26
1.4692118 5.6725802 0.02716046 8
1.513172 5.6720281 0.0756649 5
0.60252875 7.6322341 0.020011598 36
-0.65240043 -1.8022752 0.21250743 68
-0.48575717 -1.8012618 0.23102516 73.5
-0.36604214 -1.8026668 0.2197089 74.85714
-0.27239957 -1.8038688 0.19137621 79
-0.78469706 -1.7916254 0.2590389 8.833333
-0.68950498 -1.7954677 0.1910557 22.4
-0.57350278 -1.7993377 0.26280379 13
-0.43492627 -1.7994037 0.27342507 72
-0.043023612 -1.7546539 0.26117229 29.75
-0.16798741 -1.6348331 0.27923322 6
-0.13757534 -1.5000868 0.16200489 153
0.95348543 -1.5153832 0.25661594 82
1.3169634 -1.6009425 0.28788465 56
-0.21424134 -1.3985424 0.23424685 12.4
-0.12166937 -1.4094142 0.19738007 27.666666
0.11710336 -1.3607851 0.26656374 12.5
0.23640585 -1.3801743 0.23063335 21.625
0.35731539 -1.3779675 0.17831041 32.666668
0.73123282 -1.4965692 0.27544284 22
0.82370961 -1.4131082 0.26192054 57
1.0303836 -1.3987103 0.27174479 83
1.1657783 -1.4969716 0.24099678 150
-0.020271678 -1.2948401 0.28470856 5.5
0.060238834 -1.3121215 0.28110749 5.75
0.20920841 -1.3267692 0.19378237 7.1999998
0.52718258 -1.2951231 0.28591239 30.75
0.98014736 -1.2347895 0.18297398 39
1.1160582 -1.320091 0.19675475 152
1.3242723 -1.3116213 0.17887357 53.25
0.87044817 -1.0888799 0.24640691 12
0.96960032 -1.1471033 0.17635027 52.5
0.87617886 -0.98424965 0.24935991 17.777779
0.93601972 -0.94123363 0.21509743 21.799999
1.1225014 -1.0234513 0.23328876 67
1.3267044 -0.98253381 0.15325004 53
0.8610608 -0.86300921 0.28642619 18.5
0.96603811 -0.81581771 0.20764385 13.047619
1.1451161 -0.84276521 0.17315961 12.75
1.3103175 -0.81435943 0.19793727 43.454544
-1.2239873 -0.74232143 0.28001553 1
-1.1418245 -0.69754422 0.20937198 5
0.96557063 -0.72368836 0.25001085 17
1.1296166 -0.73710012 0.22457404 50.333332
1.3279295 -0.70347786 0.21044719 55.5
-1.1762508 -0.51487935 0.23162767 0
-1.2177596 -0.38259244 0.24648634 0
-1.180715 -0.42708787 0.26320413 0
1.3441602 -0.016039433 0.19152761 49
-0.91648787 0.1213892 0.15277028 0
-0.86277246 0.10713086 0.15278935 0
1.3338776 0.085240975 0.18876535 62
1.2182186 0.17283504 0.15726995 143
-0.57086682 0.64233571 0.2942999 2
1.0068352 0.6698882 0.17415172 1
-0.60137182 1.2406914 0.21044427 0
-0.59806311 1.2443285 0.21828127 1
-0.60268176 1.3593725 0.22031504 0
-0.60286015 1.7131442 0.28470111 30
-0.66382134 2.0112457 0.2152862 11
-0.90228713 2.1924007 0.28412575 0
-0.85937333 2.1887589 0.27316236 0
-0.70654154 2.1905479 0.17895617 4.6666665
-0.3811312 2.1789052 0.22986008 21
-0.23633336 2.1933115 0.22735631 31.666666
-0.14004548 2.2349846 0.15157408 30
1.7839098 2.1202726 0.27855486 4
-0.80957413 2.2770567 0.20056483 3.5
-0.26635382 2.2625718 0.19229287 42
1.6397773 2.2991071 0.15342981 0
-0.59197277 2.4327302 0.1929419 22
-0.0156384 2.4029846 0.1956749 55
0.0022566735 2.4265831 0.1503678 32
3.6531422 2.9042232 0.20310646 33
3.6897898 3.0123019 0.19239891 26
4.9934154 3.2261591 0.27112734 87
1.1809467 5.8148999 0.26797488 7
1.2516798 5.7958479 0.171197 14
1.429198 5.7538424 0.22663426 7.5
1.1184372 7.6302929 0.24182618 37
1.2973444 7.6190972 0.29921383 37
-0.52189481 -1.8009772 0.33809745 68
-0.20145366 -1.803787 0.33803111 15
-0.9160102 -1.7953997 0.36045691 2
-0.85771132 -1.7900232 0.33590388 6.6666665
-0.65330553 -1.7967827 0.41014367 44.200001
-0.51893121 -1.7967877 0.35041001 70
-0.30914828 -1.7993915 0.40897995 72
1.3000097 -1.7863022 0.39965105 57
0.92265707 -1.5718023 0.41597217 92.5
1.1044285 -1.5284078 0.31045467 153
-0.27144873 -1.4351982 0.32675958 153
0.45760798 -1.3772596 0.32842201 133
0.68656272 -1.4637314 0.3268466 26
0.84935516 -1.4486061 0.33577242 66.666664
0.97810817 -1.428154 0.36721888 96.5
1.0720639 -1.4980962 0.33509314 155
-0.16925111 -1.2891691 0.39335218 8
-0.067327194 -1.28491 0.35977426 17.928572
0.030069437 -1.319299 0.31468526 8
0.22840245 -1.2531115 0.42048424 7.1999998
0.36962679 -1.2861528 0.37774256 33.5
0.51033771 -1.2752056 0.3182987 28.5
0.61489296 -1.2786075 0.30110174 58
1.0098151 -1.3218831 0.40576249 76
0.57419056 -1.1608086 0.37593323 20.5
0.65359503 -1.1742313 0.40122849 100
0.8468045 -1.0968009 0.37035018 71.428574
0.9051345 -1.1535053 0.36402756 153
0.86717314 -0.99530256 0.37338367 47.357143
0.90680993 -0.98465812 0.34333518 75.5
-1.384274 -0.75415874 0.3738803 14.5
-1.3148608 -0.77375329 0.39489901 4.75
0.89537078 -0.86933088 0.37128502 25
0.93386793 -0.83939731 0.35045478 29.5
-1.3794537 -0.73321056 0.41677642 33
-1.2898394 -0.68806791 0.42965513 13.5
1.3146204 -0.72179407 0.34454337 58
-1.1825337 -0.4853389 0.40309379 0
-1.2225628 -0.38164616 0.33054119 0
-1.1802334 -0.42947048 0.37943941 0
-0.58405781 0.63009518 0.31346065 0
-0.59949237 0.96954298 0.41868806 1
-0.60181677 1.7379843 0.3431536 26
-0.59940076 1.7648118 0.37299451 20.5
-0.59588253 1.8885825 0.3578248 32.5
-0.95583618 2.2130945 0.30251431 0
-0.83399576 2.2168622 0.34574431 3
-0.58993834 2.1502075 0.40746701 33
-0.40175152 2.1951804 0.34593397 22.799999
1.7047517 2.2492778 0.36617756 6
-0.99880302 2.3001742 0.39971876 3
-0.28222111 2.2714484 0.35156369 142
4.9985976 2.7491539 0.34080505 6
1.4593045 7.6168976 0.36722642 25
-0.33688518 -1.8001584 0.51108247 70
-0.78821981 -1.7894696 0.55768931 14.25
-0.67976731 -1.7916108 0.48601735 30
-0.49589932 -1.7939111 0.57179624 68.5
-0.3676371 -1.7955309 0.54807913 70.714287
-0.29672292 -1.7968171 0.49715304 68
0.97353339 -1.6865134 0.4698 137.5
0.92837054 -1.6302538 0.45438606 150
1.3023329 -1.5746175 0.45631039 45
-0.18235648 -1.4004407 0.52577323 98
-0.13492885 -1.3801419 0.50557542 26.5
0.23225415 -1.3723645 0.5663538 71.5
0.88964194 -1.3523426 0.50691849 14
0.99327952 -1.3923624 0.53805256 54.857143
1.0623065 -1.4048939 0.54381132 74.666664
0.14093213 -1.3408841 0.52930611 11
0.19684322 -1.3100176 0.50771606 65.599998
0.67732871 -1.2968225 0.49331921 109
0.87647074 -1.2087206 0.57523274 150
0.86369562 -1.1573486 0.56062162 40.75
0.91172749 -1.1706252 0.49857676 150
0.86390501 -1.0192983 0.48357785 59
-1.2513183 -0.6548658 0.51774639 1.3333334
-1.2147675 -0.51959246 0.52931631 1
-1.2200966 -0.40902066 0.57584155 0
-0.57591069 0.62337846 0.57167959 0
-0.59828162 1.8267053 0.46842551 14
-0.73423183 2.2427106 0.55452132 10
-1.0015972 2.3122559 0.48736966 3
-0.14578381 2.309006 0.57428384 92
-0.58140349 2.5116668 0.52005124 22
0.021210652 2.5023007 0.54948801 22
-0.58077723 2.6601665 0.53940862 18.5
4.9942431 2.6818054 0.45887715 4
-0.57655609 2.7672424 0.49614727 10
4.9916773 2.7811985 0.57167315 89
4.9966373 3.084672 0.54412699 76.5
1.2650236 7.6205196 0.59769785 38
-0.47136799 -1.8004363 0.68198872 71
-0.92132151 -1.7904019 0.68076295 2.5
-0.84966928 -1.791999 0.63255352 6
-0.64745575 -1.7938967 0.66358435 24
-0.52165812 -1.7957551 0.68596911 64.400002
-0.4385089 -1.794778 0.6349141 68
-0.21372525 -1.5624481 0.68580699 51.799999
0.11432217 -1.5116283 0.7004509 155
0.16987653 -1.5086079 0.74194074 156
0.56965607 -1.5050499 0.73102129 157
0.82461852 -1.5315419 0.7046271 65
0.99234676 -1.5160333 0.68617696 119.5
1.0538298 -1.5124228 0.69483101 105
1.2730126 -1.5029465 0.65253222 43
0.10611098 -1.4201677 0.69469595 82.199997
0.17147797 -1.3939099 0.62994891 70.666664
0.57185471 -1.3832873 0.64110529 72
0.6466186 -1.3777504 0.64096928 91
0.81472534 -1.3994526 0.70381671 26.666666
0.98251981 -1.4420803 0.68104684 56.799999
0.89123815 -1.2104636 0.6487447 9
0.96197891 -1.2983177 0.67858464 73.428574
-1.2338204 -0.62491536 0.62886107 0
-1.2251564 -0.51364684 0.66648775 3.75
-1.1691842 -0.48315293 0.6960513 5.75
-1.2321894 -0.40968364 0.70103508 6.75
-1.1570418 -0.42289659 0.7038663 7
-2.1040168 0.14099698 0.62578487 62.5
-2.1517882 0.29571995 0.623245 150
-2.0262561 0.18026368 0.69184214 37.5
-2.6101985 1.9203836 0.74115229 78
-2.6032526 2.2067251 0.71009278 68
-2.5990508 2.5299714 0.67596686 77
-0.87345397 2.4103978 0.65476739 4
-0.13530102 2.4108284 0.67055953 35
0.081344441 2.4510012 0.6300298 7
-2.5967629 2.5598745 0.73338151 82
-0.58326066 2.759249 0.6734724 23
-0.56142014 2.8620019 0.62088633 5
4.9945407 2.8611648 0.69366133 90
5.0024366 3.1464176 0.72389472 84
-0.55066413 3.3444319 0.65577078 109
7.4318376 6.0336699 0.7223233 52
7.4523482 6.3830452 0.70413435 32
7.4180131 6.4899068 0.67172742 3
1.0191524 7.6179552 0.65966988 38
1.1859046 7.631074 0.70013428 38
1.5829681 7.625268 0.62517786 25
3.7775195 7.5978966 0.74956131 34
4.0568714 7.5506783 0.6894356 11
-0.82415539 -1.7902173 0.83626986 10.333333
-0.66240036 -1.7916293 0.82790554 29
-0.558357 -1.7936043 0.76217127 66.666664
-0.34616238 -1.7496145 0.83405566 119
-0.23014462 -1.7653527 0.82827759 94.666664
-0.13956231 -1.7891254 0.86627078 64
0.85470432 -1.6701328 0.87891579 150
0.57468373 -1.5282778 0.84840363 116.33334
0.85638064 -1.6036038 0.81498075 84
0.99268496 -1.6161299 0.78461486 71.5
0.036230393 -1.4237156 0.77464885 120.5
0.27058062 -1.3623972 0.81636423 64.5
0.36538336 -1.3841425 0.80582523 92.400002
0.50228816 -1.484494 0.81652081 68.199997
0.86620337 -1.445804 0.83589602 28.428572
0.95029485 -1.4212009 0.83632141 54
0.262514 -1.3449798 0.80735683 44
-1.1833141 -0.60372037 0.81229556 0
-1.2219349 -0.5760895 0.78181183 1
-1.1165183 -0.52250367 0.79485673 3.375
-1.1498872 -0.39630747 0.79567748 6.5
-2.0309343 0.22846688 0.79358488 9.5
-2.6330309 0.57403809 0.86319423 119
-0.55579245 0.62711042 0.84374827 2.5
-2.6244254 0.77253354 0.86978233 110.5
-2.6224484 0.97818935 0.85399675 109
-2.6175015 1.1870966 0.81043983 111
-2.6227496 1.2016312 0.86316526 98
-2.6120648 1.443195 0.85382187 86.25
-2.6090312 1.6889974 0.831716 80.25
-0.59225959 1.7751691 0.80256438 15
-2.6104007 1.9432462 0.79597592 81
-2.6076031 1.9854831 0.84861881 76
-2.6080291 2.2386649 0.76915181 68
-2.6033723 2.2873363 0.8421874 71.333336
-2.5974081 2.6335433 0.83985454 63
-0.58212423 2.8028457 0.7593267 21
4.9894361 2.8193233 0.81138062 86
5.0138197 3.2320275 0.83949757 80
4.9970794 3.4181654 0.75797617 41
7.3861651 5.2276416 0.75408614 58
1.2007104 7.6236091 0.76087642 38
1.5044522 7.6306753 0.76412833 39
3.7082353 7.5854521 0.84362233 31
3.9140165 7.5887623 0.83492792 28
-2.6918659 -3.1013923 0.98299015 8
-2.6787095 -2.6792095 0.97639799 89
-2.6742396 -2.3388276 1.0091383 82
0.2004844 -1.8014536 0.96894568 69
0.83960027 -1.8221033 1.0359732 55.799999
0.90932065 -1.8200431 0.99104333 66
-2.6688781 -1.7323387 0.9980827 90
-0.78905743 -1.787273 0.96571887 7.1999998
-0.74690688 -1.7929014 0.96379328 13
-0.45857593 -1.7889386 0.961743 64
-0.36343089 -1.7920121 1.0049849 57.333332
-0.27116314 -1.7947617 0.95124942 60.400002
0.096451357 -1.7972952 0.97947955 58
0.165289 -1.7986635 0.99248874 55
0.87512618 -1.7295556 0.9268806 150
0.30794102 -1.4514911 0.93423784 158
-2.6468463 -0.5792284 0.95506108 111
-2.6497719 -0.37821364 0.97401363 76.666664
-2.6437776 -0.18335415 0.96170825 116
-2.6381474 0.00091785355 0.92473018 71
-2.6298604 0.41180569 0.97653896 120.75
-2.6303282 0.57662833 0.91112721 117
-2.6250942 0.6162405 0.98002452 118.33334
-2.6230798 0.83298904 0.99639547 110.2
-2.6181624 1.0233274 0.94880152 110.33334
-2.621676 1.0657227 1.0260519 103.5
-2.6171808 1.258257 0.9622348 104.2
-2.6094432 1.4795002 0.94999003 86
-2.6114361 1.5112587 0.98285538 86
-2.6102467 1.7469742 0.98866099 45.400002
-0.59794903 1.7750891 0.93817365 15
-2.6135201 1.8017211 1.0384184 89
-0.58938539 1.9102558 0.93960631 15
-2.6077933 2.0339708 0.98178434 76.428574
-2.6040857 2.3458867 0.97820711 73.85714
-0.57762516 2.3426523 0.91509342 15
-2.5930579 2.6288898 0.99606514 89
5.0016627 2.815861 0.98494709 82
5.0048461 2.9269116 1.0280247 81
4.9968739 3.0261686 0.91553688 72
4.9975333 3.1625299 0.96069396 84
7.3958306 5.8091464 0.99069822 60
7.4422975 6.3845086 0.95309889 45
7.4138031 6.4778123 0.97464514 45
1.1331531 7.6241665 0.90602493 25
3.1442528 7.6001801 1.0462188 31
3.3852611 7.6002655 1.0388979 26
3.5260282 7.5823064 0.9329747 31
4.062799 7.5868139 1.0302081 32
-2.6939967 -3.1637013 1.1000988 52.5
-2.6869345 -2.9711123 1.1354804 53.5
-2.6782694 -2.724957 1.0830884 65
-2.6783245 -2.5760469 1.1270542 73.5
-2.6741273 -2.3582685 1.1027247 81
-0.88887554 -1.8008212 1.1024688 4
0.044951424 -1.8042097 1.1542146 61.799999
0.67872936 -1.8123518 1.1667907 77
0.85512418 -1.8267111 1.0666866 53
0.97467273 -1.8210216 1.1631526 53
1.103308 -1.817184 1.1732233 48
-2.6685767 -1.7004746 1.1068683 85.5
-0.91097051 -1.7904713 1.1102924 3
-0.86728752 -1.7924597 1.0803804 2
-0.69802141 -1.7806225 1.1962441 11
-0.50540674 -1.792637 1.1432798 55.625
-0.37965965 -1.790673 1.0766566 60.599998
-0.051921334 -1.7922311 1.1255991 55.666668
0.074180596 -1.7978716 1.1436019 55.333332
0.73805469 -1.799361 1.0565208 141
-2.6644375 -1.6406064 1.0811949 92
-0.66099739 -0.13750196 1.1921166 0
-2.6301057 0.35659018 1.1239172 114
-2.628659 0.49627304 1.1240714 114.66666
-2.6241343 0.67740524 1.1098454 113
-2.6219528 0.84248656 1.1108378 110
-2.6216135 0.96680528 1.1592633 98.75
-2.6182032 1.1205926 1.1425358 99.400002
-2.615762 1.2832793 1.1063883 101.6
-2.6125627 1.4103321 1.1548479 91.599998
-2.6112442 1.5626149 1.1050979 90.800003
-2.611047 1.712572 1.1692877 84.5
-0.58429742 1.7613211 1.14979 16
-2.6066449 1.8537329 1.1215479 77.25
-2.6054399 2.0416043 1.1562213 76
-0.58843631 2.0128143 1.0647247 19
-2.6030309 2.1527174 1.1218808 69.333336
-2.5996063 2.3521423 1.1433629 73
-2.6008363 2.4120774 1.1131901 81
-2.5941637 2.5909915 1.1622524 40
-0.57515287 2.5550199 1.0917555 15
4.9953666 2.8454187 1.0589962 81
5.0028358 2.8605237 1.080465 79
5.013762 3.1773 1.1106085 79
5.0008092 3.3922403 1.0617127 41
7.4221272 5.1433349 1.1330996 52
1.0724535 7.6338539 1.0560337 39
3.0155785 7.5998573 1.1793005 31
3.2466235 7.607758 1.1000319 22.5
3.4087331 7.6077638 1.1699048 28
4.2071133 7.5647335 1.159138 4
-2.6890419 -3.0207801 1.2771711 67
-2.6876163 -2.9769185 1.3494442 57
-2.6839392 -2.8312409 1.2465812 70.5
-2.6744914 -2.6327283 1.3159809 71
-2.6722174 -2.4557502 1.2350311 81
-2.6701481 -2.3104594 1.3058804 84.333336
-2.6733971 -2.2060187 1.295102 81
-2.6648886 -2.0291533 1.3336489 77.5
-0.61231303 -1.8058523 1.3125908 65
-0.57334197 -1.8019714 1.3008627 59.5
-0.06749668 -1.8088801 1.2799096 67.25
0.027665984 -1.8039832 1.2868508 64
0.39687413 -1.8154277 1.2983769 77
0.48168263 -1.815907 1.311502 51
0.85245341 -1.8175309 1.3092766 50
0.97035599 -1.8180869 1.2571971 51.111111
1.0965562 -1.8208688 1.2275722 46.25
-0.66056681 -1.7916257 1.3058727 32
-0.53926075 -1.788156 1.2842267 48.5
-0.22136673 -1.7915565 1.2606786 54
-0.082896866 -1.7932795 1.273548 50.666668
-0.60860622 -1.1356621 1.3174784 5
-0.6289888 -1.0424985 1.3127978 1
-0.58457685 -0.97835577 1.3180583 4.5
-0.62125295 -0.81856805 1.2891749 12
-0.5987224 -0.8742637 1.2559444 1
-0.60642374 -0.70740461 1.3047295 30.5
-0.60937321 -0.51678944 1.3057436 37.75
-0.59986115 -0.48219228 1.3124273 64
-0.61163104 -0.35156474 1.2942761 31.5
-0.58665442 -0.35838637 1.330303 102.66666
-0.61007822 -0.2060357 1.2894861 31.6
-0.56940806 -0.22992679 1.2966923 77
-0.82423741 -0.053818643 1.2416705 16
-0.65848833 -0.064942099 1.2372832 29.5625
-0.51210248 -0.077493459 1.2845229 41
-0.77921575 0.0092001697 1.2229401 1.5
-0.64221364 0.064391643 1.234457 8.75
-0.52793044 0.13220619 1.3177738 1
-0.81019562 0.19645354 1.2438625 1
-0.60882461 0.24187371 1.2670774 5
-0.59379047 0.23444602 1.3003783 48
-2.6306131 0.4114604 1.2273273 107
-0.83167744 0.36974433 1.2221563 7
-0.58649004 0.38131702 1.3066959 46.25
-2.6227856 0.51651233 1.2697107 106
-0.60225737 0.52700227 1.296304 7
-0.57872242 0.50143665 1.3214331 32
-2.6235423 0.69038141 1.2442335 99.199997
-0.81356406 0.64063781 1.2322594 9
-0.60080564 0.63344735 1.2199931 0
-0.57024521 0.65465206 1.2956413 14.857142
-2.622339 0.81592816 1.2716823 93.333336
-0.54433984 0.82495558 1.2935643 1.5
-2.6186998 0.94082642 1.2372938 93.333336
-0.55644101 0.92109311 1.3494492 18
-2.6187747 1.1393638 1.261182 94.666664
-0.54777366 1.1831071 1.2762791 4
-2.6193032 1.2676449 1.3210413 92
-0.54050988 1.316805 1.2667814 3
-2.6136634 1.4404328 1.2828965 98
-2.6152041 1.5595119 1.2980179 98
-2.6100497 1.6907141 1.2670009 88
-2.6118124 1.8204968 1.2910112 83
-2.6067746 1.9661552 1.2791857 84
-2.5989108 2.1766953 1.2413256 84.5
-2.5966039 2.2537007 1.2801099 86.5
-0.58632374 2.317975 1.2228708 15
-2.6018653 2.4171078 1.2734519 86
-2.5945725 2.5766912 1.2565932 7.5
-0.57606941 2.7849298 1.2880646 11
5.0119915 2.7100358 1.2309109 5
5.0092154 2.9425015 1.2952704 81.5
5.0110888 3.2226686 1.2242751 80
7.4110632 6.4353828 1.2649659 46
7.4459419 7.2130566 1.3097405 38
2.6216476 7.5849786 1.2831541 30
2.8914809 7.6089993 1.2949896 27
3.5500367 7.5988011 1.2897136 31
-2.6914887 -3.222419 1.4383667 40
-2.631655 -3.0690079 1.4220254 50.5
-2.6752574 -2.9392519 1.448483 58.5
-2.6594052 -2.7679584 1.4616009 61
-2.4754767 -2.8265088 1.4929523 55
-2.6412635 -2.6426713 1.4831605 61.5
-2.1922767 -2.5887637 1.4627781 5
-2.6767201 -2.4552388 1.387718 73
-2.5203083 -2.4890497 1.4876852 56
-2.2943039 -2.5189786 1.4760798 53
-2.1384764 -2.4453626 1.4739115 44
-2.6464906 -2.3466394 1.4675821 72
-2.2081268 -2.3114011 1.4763068 52.333332
-2.6175449 -2.176446 1.4265584 77
-2.3518593 -2.2340271 1.4812824 57.5
-2.1710801 -2.1298501 1.4859691 50.333332
-1.945089 -2.1642103 1.4887922 63
-2.6556182 -2.0420175 1.4372932 74.800003
-2.4244266 -1.9741802 1.4942833 68
-2.3386116 -1.9959803 1.4774473 55
-2.2492812 -2.0157969 1.4945797 67
-2.6185489 -1.8583077 1.4896996 67
-2.2692337 -1.8564665 1.4917636 0
-2.2094676 -1.9174955 1.4922886 20
-1.8038136 -1.8609282 1.4816293 63
-1.74182 -1.8829371 1.481897 46.333332
-0.33137172 -1.8020928 1.3903089 62
-0.17542607 -1.811264 1.428229 60.75
-0.095654421 -1.8028272 1.387531 60
0.13628949 -1.8154976 1.4538653 56
0.2647742 -1.8147526 1.451923 52
0.36370808 -1.8161042 1.3927717 50.857143
0.53509641 -1.8179158 1.4826245 47
0.69645548 -1.8148439 1.4214919 47.599998
0.78477931 -1.8165751 1.3706328 44.75
-2.4480262 -1.7180786 1.4897044 4.5
-2.3255591 -1.7680337 1.4716127 4
-2.2193217 -1.6666307 1.4825206 57
-2.0651503 -1.6936651 1.4934912 58
-1.9160926 -1.7604278 1.4901464 68
-1.7582107 -1.7255849 1.4834629 62.333332
-0.83821905 -1.7927295 1.4126563 4
-0.23009533 -1.7997233 1.3813953 58
-2.3280978 -1.5725597 1.4832408 33
-2.2217908 -1.6219838 1.4979827 10
-1.9742446 -1.5580072 1.4973186 66
-1.8457861 -1.628824 1.4872253 63
-1.7740157 -1.5397606 1.484175 57
-1.595567 -1.5380191 1.4761064 68
-1.4448601 -1.564091 1.4768251 43.5
-2.1082139 -1.4713155 1.4889327 45
-1.8708016 -1.44077 1.477057 57
-1.7783746 -1.3568684 1.4768803 57
-1.5285614 -1.431862 1.4720815 65
-1.3828943 -1.4491504 1.4916453 69
-0.59573144 -1.3588749 1.4221802 4
-2.0078123 -1.3487728 1.4835411 59
-1.8896947 -1.2680371 1.4773637 58.25
-1.6200801 -1.2673917 1.4760906 64.666664
-1.4182721 -1.3131059 1.484382 68.599998
-1.3321497 -1.3438067 1.4900582 76
-1.9662752 -1.0696129 1.4935194 61
-1.8577803 -1.1377724 1.48037 57.666668
-1.7241888 -1.1342067 1.4799682 62.5
-1.5532067 -1.115555 1.4805032 74
-1.4289036 -1.1489359 1.4797107 69.599998
-1.2322242 -1.1126548 1.4652921 74
-1.1081491 -1.115652 1.4586169 18.75
-1.0083119 -1.086229 1.4582338 0.66666669
-1.9795073 -1.0422481 1.4749048 63
-1.828619 -1.0033468 1.4831806 65
-1.7090874 -1.0108144 1.4830866 67
-1.5420463 -0.9980371 1.4718516 62.5
-1.4459796 -1.0012654 1.4770448 61.75
-1.249518 -0.94159758 1.4657351 75
-1.0936716 -0.97636902 1.4679679 73.25
-1.0154797 -0.96419942 1.4685159 57
-1.4389343 -0.87277347 1.4815476 63
-1.2923465 -0.80528051 1.4720175 66
-1.1323538 -0.83404809 1.4668074 72.666664
-1.0294074 -0.83648616 1.4702328 76
-0.58662319 -0.82175034 1.4142132 13
-2.0336595 -0.67295277 1.4726009 40
-1.9158618 -0.62590438 1.4827247 13
-1.432272 -0.68438995 1.4771993 70.5
-1.2404246 -0.66442174 1.4682864 72
-1.1166382 -0.68303806 1.4643092 76.166664
-1.0111161 -0.67563045 1.4628496 78.5
-0.57702494 -0.68001604 1.4154028 11.333333
-1.8271037 -0.52546209 1.4680109 39.5
-1.7501973 -0.50394136 1.4847225 29
-1.602387 -0.5110603 1.4720653 105
-1.4502872 -0.52871943 1.4760193 82.333336
-1.2656081 -0.51569134 1.4689727 69.75
-1.1306617 -0.51896864 1.4658762 76.285713
-0.97257835 -0.53461319 1.4544951 48.5
-0.58299184 -0.53213906 1.4023987 35.5
-1.6641959 -0.43583903 1.4620283 77
-1.5541919 -0.39230335 1.4756844 67
-1.4441361 -0.36903071 1.480438 68
-1.2649596 -0.36970919 1.4708984 72.599998
-1.1134938 -0.37454808 1.468051 77.666664
-0.99463975 -0.37734467 1.4649324 70.5
-0.5763911 -0.39024371 1.4119225 30
-1.6028049 -0.21412452 1.4692569 74
-1.4222442 -0.24377358 1.4755207 70.666664
-1.2601851 -0.22778063 1.4732035 83.199997
-1.1244894 -0.2349928 1.4714204 79.5
-1.0041782 -0.21582879 1.4680866 70.5
-0.55710489 -0.19898395 1.4057411 19.333334
-1.8589073 -0.057800762 1.4624895 4
-1.7196194 -0.095217206 1.4676067 62.200001
-1.5586908 -0.074622504 1.4672921 75
-1.4161514 -0.084962271 1.4720074 72.25
-1.2869577 -0.079650834 1.4740239 85
-1.125988 -0.072172888 1.4703137 81.666664
-1.0015235 -0.059218552 1.4656235 83
-0.55412692 -0.10875581 1.3517474 23
-1.8787446 0.096463107 1.4724334 66.666664
-1.7226223 0.086759917 1.4675061 71.666664
-1.5607361 0.063525505 1.4690897 78
-1.4316815 0.083938703 1.4662818 61.75
-1.2750366 0.073339187 1.4728634 80.599998
-1.1173974 0.074675165 1.4702923 80
-0.97445953 0.073997296 1.4499817 52.799999
-0.55861109 0.077503249 1.3799144 83.800003
-2.0174212 0.2801699 1.4720587 83
-1.8826065 0.23845112 1.4789627 83.199997
-1.7038707 0.23555073 1.4748901 73
-1.5584261 0.20173362 1.4685521 74
-1.4256324 0.23979914 1.466143 61
-1.2835163 0.21256399 1.4719739 80.5
-1.1010271 0.21793884 1.4721007 76.833336
-1.0050884 0.23213096 1.468686 74
-0.55649734 0.2328276 1.412961 27.75
-2.1569629 0.42312726 1.4833387 75.5
-1.8714162 0.38858414 1.4793892 86.5
-1.7068789 0.38854325 1.4747994 76.5
-1.5533531 0.34186593 1.4711409 76
-1.4249747 0.38748127 1.4696618 64.5
-1.2765611 0.35570091 1.4697849 75
-1.1186554 0.37809962 1.4711626 79.800003
-1.0059379 0.38452807 1.4658638 80.333336
-0.56350595 0.44900373 1.3686005 57
-2.6296494 0.57763213 1.3906115 99
-2.3062987 0.5273779 1.4749207 36.333332
-2.1005752 0.58662754 1.4724683 72
-2.0123582 0.45227847 1.4722238 77
-1.8837092 0.53083771 1.4821151 87.599998
-1.7751857 0.52973825 1.4873312 97
-1.5727321 0.50828511 1.4668907 76.333336
-1.3995528 0.5516634 1.4683439 69.333336
-1.2640853 0.51389992 1.4695674 84.599998
-1.0898885 0.53142017 1.4716697 84
-0.99482954 0.53138351 1.4642342 79.400002
-0.55585015 0.54310036 1.3536788 28
-2.6232369 0.67481852 1.4586598 92.333336
-2.4831276 0.70423448 1.4845781 74
-2.344775 0.6849981 1.4805803 79.333336
-2.2177234 0.62649733 1.4859793 74
-2.0030603 0.62729251 1.4696128 75
-1.8758887 0.679658 1.4788432 84.25
-1.7784677 0.6897285 1.4843025 91
-1.5925715 0.66316158 1.4670019 72.5
-1.4282688 0.68418509 1.4711376 76
-1.2858133 0.68718129 1.4696465 85
-1.1407936 0.64187479 1.4676113 85.5
-1.0030758 0.66117632 1.4649665 67.25
-0.54236948 0.72638559 1.3577515 0
-2.6209874 0.79548001 1.4095759 90
-2.315654 0.82910728 1.485836 76.333336
-2.2352729 0.81742781 1.4875946 75
-2.0422568 0.7925092 1.4721828 78.5
-1.878715 0.81825292 1.4800713 77
-1.7845414 0.85990787 1.4898359 81
-1.5713689 0.82213771 1.4671495 66.5
-1.4037298 0.82458115 1.470189 80.666664
-1.2564576 0.8441627 1.4673195 81.25
-1.117641 0.80649918 1.4712772 66.666664
-0.99460864 0.79367787 1.4679607 61.333332
-0.55434012 0.88127148 1.3512609 20
-2.6202695 0.96715486 1.4191157 89
-2.4878497 0.9245218 1.4883034 63.5
-2.3007336 0.9764244 1.4874185 84.333336
-2.030076 0.98608088 1.4743857 85
-1.8750502 0.97025907 1.4853435 81
-1.7832158 1.0264657 1.4790957 83
-1.5195173 0.91501915 1.4714265 71
-1.4051585 0.95377326 1.484715 69
-1.2714659 0.99411476 1.4731808 76
-1.1273804 1.0152009 1.4785067 16
-0.99601233 0.94832867 1.4694574 2
-0.57486022 0.94683236 1.354466 1
-2.6162872 1.1531804 1.4411201 96
-2.4787223 1.1485558 1.4830265 70.5
-2.3497784 1.1003187 1.4813032 79
-2.2362666 1.1468445 1.4723363 81
-2.0476637 1.1742851 1.4588994 78
-1.8699138 1.1577282 1.4722698 81.800003
-1.7551137 1.1826881 1.4654145 83
-1.575958 1.0605036 1.4739783 80
-1.4507618 1.0838526 1.4760158 67.5
-1.2899638 1.1235739 1.4692322 61.333332
-1.1238737 1.157288 1.4807907 0
-0.99913466 1.1554105 1.4719608 1.5
-0.54904395 1.1142542 1.3556688 10
-2.6184573 1.2378849 1.4097785 98
-2.3125827 1.2731136 1.4812695 74
-1.8171186 1.3128716 1.4804926 76
-1.7663624 1.214151 1.4759506 78
-1.5389415 1.2373627 1.4730942 85
-1.4171705 1.2509878 1.4840927 44
-0.98025298 1.2874138 1.4587638 0
-2.6162415 1.4193884 1.4230179 98
-2.4749708 1.3891983 1.4848366 70
-2.3140564 1.419125 1.4828577 71
-2.2203174 1.3519927 1.472497 76
-2.0352044 1.3977475 1.4707122 68
-1.8732594 1.3869039 1.4707063 76
-1.7609679 1.4247879 1.4812417 69.333336
-2.6118004 1.620309 1.422232 90
-2.3382697 1.5693264 1.4878379 64
-2.2139816 1.5792657 1.483047 73
-2.0030191 1.625737 1.4686372 72
-1.8517389 1.5970954 1.4808835 72.666664
-1.7474855 1.5870613 1.4774271 30.666666
-2.6080012 1.6937799 1.4065609 94.5
-2.4985147 1.6704668 1.490064 74
-2.3066452 1.7424359 1.4935082 75.5
-0.58771485 1.7926607 1.4968566 15
-2.6076295 1.8813887 1.4182887 89
-2.455261 1.9206933 1.4889977 68
-2.3520441 1.8546288 1.4880177 70
-2.1908245 1.8124062 1.4824985 80
-1.9689871 1.8749609 1.474287 12
-2.6023593 1.9736022 1.4558022 90
-2.3041573 2.0130775 1.4898233 64.5
-2.1612172 2.0594504 1.4786009 74
-0.57550275 2.0393417 1.433213 13
-2.60267 2.1664431 1.4130812 91
-2.4244609 2.2038233 1.4784467 70
-2.3304715 2.1293216 1.4836881 57.5
-2.5920668 2.2928908 1.4584929 88
-2.2727754 2.2563725 1.475631 24
-2.5981293 2.4842587 1.409134 86
-2.5911653 2.6645527 1.4727353 7
5.0124464 3.0360742 1.3835392 72
5.0154662 3.2302825 1.4384745 73
7.4142179 5.1303968 1.4598097 35
7.4263377 5.7600541 1.4374249 60
6.6168761 7.4866118 1.4646552 19
2.5194042 7.5933146 1.4266417 30
2.7629044 7.6125903 1.3869042 33
2.9138968 7.6079841 1.4509699 27
3.7123411 7.6011081 1.4008036 33
6.025476 7.5191884 1.4671255 29
6.3309011 7.5253763 1.4681025 26
7.0368838 7.5567598 1.4659828 1
-1.8889149 -2.0181832 1.5254403 6
-2.318244 -1.8008848 1.5191103 7
-2.1813638 -1.8732481 1.5077499 21
-2.0245979 -1.9397601 1.5089411 24
-0.78489316 -1.8013624 1.6299413 3
-0.3053298 -1.8061016 1.5441769 59
-0.2516883 -1.8046502 1.5485129 53.5
0.07892409 -1.8138549 1.5687172 54
0.21490318 -1.8132178 1.5798715 49.666668
0.39227331 -1.8133984 1.5795316 49.5
0.54614395 -1.8116748 1.5760216 46.099998
0.63348264 -1.8119692 1.5192771 50.666668
-0.83206958 -1.7945776 1.610323 3.75
-0.38691068 -1.7977607 1.5788471 54.5
-0.22561722 -1.7974104 1.6300572 55
-0.1398385 -1.799224 1.5041121 54
-1.6243467 -0.97816569 1.5007538 16
-2.459065 1.6376331 1.503309 73
-2.3892899 1.579658 1.5008702 72
-0.58011657 1.9142786 1.5729198 14
-0.57827592 2.825855 1.5041325 9
4.9967403 2.8429475 1.5013311 74
5.0029731 2.8660464 1.5161498 76
-0.57192028 3.0386879 1.5137447 9
5.0139122 3.3578424 1.5413437 67.5
7.4136248 5.2485757 1.6122152 32
7.4139199 5.5554953 1.5295776 57
7.4451647 7.1306648 1.5863562 49
2.1310787 7.6045547 1.5345519 29
2.42448 7.618741 1.5577167 24
3.0664289 7.6123667 1.5540479 32
3.2268329 7.6071658 1.640299 28
5.4455771 7.5743642 1.5546513 25
5.9307857 7.511488 1.6468159 30
6.2338161 7.5446529 1.5716317 11.5
7.0336332 7.5590377 1.5851129 3
7.3370838 11.412279 1.5725679 72
-0.38063434 -1.8034519 1.7258441 58.799999
-0.049245231 -1.8081319 1.7246959 57.5
0.088040195 -1.8078231 1.7026905 56.285713
0.23240085 -1.8089552 1.7544905 57.666668
0.37978727 -1.808604 1.7170445 49.799999
0.4783282 -1.810798 1.7287484 50
-0.84349239 -1.7921193 1.7244147 3
-0.31411421 -1.7934339 1.7660774 54
-0.56010789 -0.40057954 1.7781399 3
-0.47121814 -0.20110661 1.7511814 91
-0.44580331 -0.28372559 1.7604133 113
-0.46801734 -0.087930068 1.7797914 73
-0.54609668 0.45581317 1.7997342 2
-0.63840085 1.9802539 1.7818767 16
3.8479993 2.7542477 1.799265 28
0.052727591 2.9800398 1.7993766 62
2.3480344 2.9994922 1.791958 35
4.8029904 2.9450216 1.7953457 2
0.10792966 3.1037459 1.7964343 52
2.328016 3.1110008 1.7975694 43
2.6814311 3.1034126 1.7977251 41
3.3212483 3.0303147 1.7963377 31
3.6739423 3.0446873 1.7978939 30
4.0370612 3.0337706 1.796631 30
4.7167883 3.125577 1.7966501 27
0.21791515 3.1846268 1.797469 55.5
2.1853721 3.1646564 1.7987577 48
2.4185855 3.2860096 1.7996165 41
2.6820905 3.2464063 1.7969233 40
3.0334773 3.1868026 1.7965735 32
3.4055324 3.2486436 1.7888304 28
5.0092797 3.1829093 1.6787901 70
0.40760207 3.4307301 1.7998053 49
2.7727666 3.4014797 1.7990104 32
3.0693243 3.3701022 1.7930566 33
3.8292849 3.3137853 1.793152 31
4.2662058 3.3444333 1.7882639 30
4.7304435 3.3505268 1.782823 27
4.8573685 3.4086237 1.7901863 27.5
3.1537321 3.5024168 1.7946147 30
3.5434008 3.5468132 1.7930944 30.5
3.999347 3.4571869 1.7990025 31
4.4201202 3.4533658 1.7933224 31
-0.43657684 3.6082423 1.7981354 52
0.58271599 3.6955957 1.7976633 53
0.70152915 3.707648 1.7953098 51.5
3.111223 3.6291299 1.796111 30
3.781595 3.651541 1.7982999 31
4.013464 3.6401362 1.790779 27.5
4.2779946 3.737946 1.7939245 26
4.5146646 3.7042451 1.78203 27
5.0640435 3.7488408 1.7743095 29.5
3.5199666 3.797102 1.7969555 30.5
4.8049655 3.7935407 1.783306 28
5.3964849 3.8389304 1.7813681 21
-0.22464997 3.9770045 1.7983376 49
0.88507134 4.0374212 1.796826 35
1.0015337 4.0035062 1.7945068 53.5
2.4049916 3.9773715 1.7976967 38
4.0054288 3.9798543 1.7928578 27
4.6284342 4.0169153 1.7782048 28
4.6058459 4.1280174 1.7844712 29
5.2426815 4.1086454 1.7678527 28
5.9296169 4.1815853 1.7611841 26
1.3830512 4.300477 1.7986106 44
5.1158066 4.315259 1.7999157 32
5.2858891 4.2645311 1.77871 29
0.028501164 4.3815513 1.7934824 57
1.2785604 4.3804212 1.7917861 43.5
3.3673677 4.4737902 1.7945123 32
5.7133837 4.3674092 1.7975787 24
6.052669 4.3811655 1.7722794 27
6.3287406 4.3759232 1.7865337 25
4.2755175 4.5611939 1.7997545 28.5
1.7328656 4.7320023 1.7907175 38
3.5446267 4.7824097 1.7944058 27
3.7815421 4.7821679 1.7938601 28
3.9523001 4.7129016 1.7918718 27.5
4.6556559 4.7901139 1.7925376 28
4.8071275 4.6873889 1.7987543 23
4.9585972 4.6839304 1.7912234 24
5.425621 4.7412829 1.7921375 23
6.074594 4.7534175 1.7848486 24
6.7675328 4.7313671 1.7832087 25
0.21795215 4.8128905 1.7934705 47
0.38658038 4.8666201 1.7958833 41
0.54805243 4.9225345 1.798103 51
2.2779751 4.8448915 1.7954673 35
4.54002 4.9183855 1.7855917 20
5.3129301 4.9132242 1.7839154 25
5.6649575 4.8325877 1.7864269 27
7.0733523 4.8993063 1.7051109 54
2.2384686 4.9737797 1.7889489 34
4.4298162 5.0457153 1.783507 25
4.6682882 4.9565592 1.7803489 20
6.0402236 5.0177307 1.7783233 25
6.4530959 4.9643068 1.7805256 28
6.8295069 5.0864024 1.7730633 27
2.2157676 5.1281605 1.77746 33
2.7828817 5.1737461 1.794721 37
4.2444487 5.1164961 1.7842859 32
5.231216 5.1029086 1.7697173 22
5.4687929 5.2221932 1.7787534 41
0.70502228 5.387486 1.7877938 33
0.81393307 5.3747587 1.7919241 34
0.93016011 5.3868289 1.7947999 24
2.1954834 5.3148332 1.7808174 34
2.3183084 5.3849349 1.7986001 34
2.7923684 5.3845363 1.7931644 40
5.1766438 5.3166647 1.7710165 26
6.0509472 5.3114071 1.7686747 25
3.3472695 5.4988027 1.7834128 31
5.0679622 5.4694195 1.7709998 27
6.3872075 5.4809499 1.7707089 26
6.9566813 5.4835796 1.7610046 28
7.0851927 5.464572 1.6655101 55
2.501667 5.5631838 1.794114 28
2.8050909 5.5948224 1.7705702 29
6.0635777 5.6101813 1.7636544 27
2.6991718 5.745348 1.7912029 19
3.4378901 5.8218694 1.7886277 16
1.2688327 5.9502039 1.7878064 36
1.3882412 5.9252095 1.7924267 19
2.8615389 5.9160271 1.789307 16
4.0341573 5.8982992 1.7883266 20
6.0761328 5.8712525 1.7652358 16
7.0772905 5.888854 1.7494291 53
1.0419445 6.0841537 1.7882568 28
1.160319 6.0078564 1.7796029 27
3.1453724 6.0591965 1.7970151 21
7.0999284 6.1414628 1.7040459 62
3.5386646 6.1592832 1.7754012 22
4.1982293 6.2982926 1.7793525 26
4.8114591 6.2962813 1.7806269 26
3.6414375 6.4353309 1.7946688 27
1.9430265 6.544107 1.7895855 33
3.6720631 6.5289764 1.7867637 26.5
3.9014637 6.5857468 1.7870411 24
1.8404763 6.6568089 1.7891198 29
1.7497683 6.8061323 1.784444 17
4.2098036 6.7842278 1.7974027 24
4.4212193 6.7767267 1.7630838 26
5.1356373 6.8615532 1.7762932 27
1.6332463 6.936193 1.7833012 26
4.5411081 6.9939866 1.789337 25
4.5147576 7.0555091 1.7791299 26
4.8224978 7.192688 1.7781373 27
2.6275551 7.2777085 1.7875413 27
1.9363296 7.4961705 1.7896589 21
2.5490363 7.4797235 1.781902 27
5.1715984 7.3567672 1.7869748 26
5.5111132 7.4835296 1.7548758 3.5
1.6355522 7.5417995 1.7758013 15
2.0514004 7.6014538 1.6851043 29
2.3032055 7.6176701 1.6798587 27.5
2.4415085 7.602622 1.7394813 5
5.4193611 7.5426183 1.6968142 19
5.6719422 7.5325694 1.6713163 28
6.2837191 7.5056276 1.7710921 2
0.30779809 -1.8005637 1.8100413 73
-0.90946341 -1.7927781 1.8251938 3
-0.51894611 -1.7529116 1.8123842 84.5
-0.42590523 -1.7249178 1.8171524 90
-0.21459688 -1.7210283 1.8061939 79.333336
-0.075026169 -1.7032305 1.8096076 81.166664
0.070844121 -1.7428244 1.8088297 80.625
0.23284528 -1.6942412 1.8101498 71.400002
0.36814371 -1.7562221 1.8107092 87.800003
-0.52351075 -1.5966824 1.8175012 64.25
-0.36106133 -1.5324417 1.8105221 93
-0.21361259 -1.5855303 1.8127002 70.25
-0.074970663 -1.5465752 1.8127862 75.428574
0.083672538 -1.5958478 1.8096211 76.800003
0.18638772 -1.5769864 1.8101209 77
-0.52300298 -1.4540406 1.8178048 45.5
-0.38031739 -1.3862399 1.8195251 66.400002
-0.22697251 -1.4143778 1.8152812 58.5
-0.077692673 -1.4252276 1.8142751 54.400002
0.067152284 -1.4307923 1.8150761 64
-0.52701372 -1.2777635 1.817246 52
-0.36882448 -1.2645599 1.8198086 72.166664
-0.2354591 -1.2673957 1.8191957 45
-0.070207044 -1.2767726 1.8185349 24.200001
-0.47578305 -1.1496887 1.8211497 73.5
-0.37748739 -1.1329161 1.8163768 59
-0.20784992 -1.1238124 1.8160449 17
-0.12802729 -1.1387799 1.8170171 17.5
-0.52224505 -0.98314315 1.8125982 42
-0.3869251 -0.97631466 1.8114072 49
-0.23452863 -0.99995363 1.8159623 23.5
-0.50914735 -0.82562447 1.8110045 51.142857
-0.36976358 -0.80417824 1.8113467 61.200001
-0.27384415 -0.86909389 1.809755 50.5
-0.51379263 -0.69221503 1.8107344 55.799999
-0.37646744 -0.671399 1.811093 69
-0.51782763 -0.52111965 1.8138398 66
-0.40746391 -0.50780541 1.8176599 60.666668
-0.5015142 -0.36488086 1.8107606 46.5
-0.43560094 -0.41057661 1.816174 76
-0.47550187 -0.28539413 1.8097812 82
-0.49580115 0.08020512 1.8133506 69.5
-0.48304164 0.22900546 1.8141524 71.666664
-0.48830715 0.35280633 1.8147889 67.333336
-0.4381496 0.44325933 1.8152968 80
-0.49539247 0.53860527 1.8123823 61.666668
-0.42029727 0.5279147 1.8147641 75
-0.51374274 0.67942649 1.8132836 35
-0.40702391 0.66257852 1.8108565 85
-0.49215522 0.84213549 1.8168049 62
-0.38921046 0.84248453 1.8179889 74.333336
-0.49972954 0.98575675 1.8216928 57.25
-0.38471797 0.98030055 1.8202003 77.800003
-0.26807526 0.97603881 1.8109137 41
-0.50439841 1.1614773 1.826732 42
-0.37449738 1.1201875 1.8277557 78.125
-0.23250309 1.152171 1.827873 63.25
-0.770401 1.316424 1.8301519 4
-0.48011491 1.263791 1.8280753 76.333336
-0.37514797 1.2751243 1.8270435 74.666664
-0.24223895 1.2935092 1.830005 51
-0.11084245 1.2797714 1.8244294 66
-0.80826223 1.4881518 1.8326337 3
-0.49866468 1.4294744 1.8276087 41.25
-0.35617092 1.4056637 1.8251072 71.400002
-0.20086296 1.4190649 1.8267188 68.833336
-0.081180267 1.4229183 1.8227443 70
0.030536395 1.490189 1.823222 70
-0.82217646 1.588284 1.8223971 3
-0.48956037 1.5493433 1.8318748 38.5
-0.37827381 1.5751743 1.8273293 68.5
-0.21666028 1.5663131 1.8233213 71.25
-0.082924604 1.5751256 1.8217782 71.444443
0.061829567 1.5814867 1.8164431 67.5
-0.81852669 1.6987052 1.8262787 6.25
-0.46168274 1.6947662 1.8270622 67
-0.34998003 1.7239437 1.8254439 70.75
-0.27264535 1.7121696 1.8297096 40.5
-0.073955797 1.7206799 1.8195586 74
0.07545983 1.7354691 1.819049 63.142857
0.20867641 1.7457776 1.8140817 49.5
-0.95729738 1.9138956 1.8297507 5
-0.83493614 1.8649254 1.8359485 3
-0.73633349 1.886251 1.8154213 4.5
-0.5071401 1.943367 1.8264214 58
-0.37602887 1.855896 1.8272794 62.666668
-0.20485201 1.860199 1.8240662 62.599998
-0.0050803302 1.872916 1.8222214 61
0.093889281 1.8686846 1.8171923 56.75
0.20095772 1.8992082 1.822385 33.666668
0.321408 1.8648562 1.8191569 36
-0.78704911 2.0576096 1.8342143 3
-0.70899707 2.010978 1.8377453 8
-0.59237981 2.0007927 1.8080479 27
-0.32212168 2.0443034 1.8313628 56
-0.24000299 1.9818435 1.8302224 47
-0.093975738 2.0021994 1.8231947 60.200001
0.10348986 2.034234 1.818292 52
0.25716344 2.0027416 1.8218755 32.5
0.37183166 2.031811 1.8224286 35
0.49981204 2.0518792 1.8143128 46.333332
-0.9497658 2.1530359 1.8350214 6
-0.86436558 2.1094191 1.8372124 6
-0.68439811 2.234551 1.8277687 17
-0.53055769 2.1621501 1.8121915 62
-0.38657683 2.1080573 1.8296624 60
-0.17587847 2.1578875 1.8263664 55
-0.055421874 2.1083119 1.8185111 64.5
0.027483568 2.1829824 1.8198894 60.666668
0.24532884 2.1587143 1.8173767 58.5
0.39233589 2.1592021 1.8153125 61.25
0.5285629 2.191438 1.8162197 61.285713
0.6724211 2.1913357 1.8173648 59.5
0.75419539 2.2452888 1.8144518 57
-1.0455265 2.3696043 1.8180369 7
-0.79372048 2.331254 1.8335314 8.5
-0.49024215 2.3068507 1.8151966 59.333332
-0.41484714 2.3788748 1.8143686 55
-0.25075513 2.2847402 1.8395792 28
-0.04238354 2.313787 1.8269633 58.5
0.097551256 2.2835295 1.8198768 63.333332
0.18758287 2.362921 1.8198534 60.666668
0.40282845 2.3352034 1.8246483 59
0.55273235 2.3252478 1.8184038 60
0.67865509 2.3258131 1.81749 59
0.83833569 2.3227959 1.8140755 45.666668
0.94985139 2.3751755 1.8104272 53
-1.0142341 2.4768522 1.8175949 4
-0.5688827 2.4163051 1.8189665 50
-0.36641067 2.4786177 1.8168203 56
-0.099644959 2.4411125 1.8290242 56
0.10519879 2.4729733 1.8262556 56.5
0.26961371 2.465359 1.8269625 41.5
0.34933552 2.5219676 1.8199285 54.666668
0.57783639 2.452445 1.8182522 57
0.72315532 2.4486628 1.8166096 53.5
0.84800738 2.4697659 1.8149837 45.599998
0.99337113 2.5007269 1.8101078 56.5
1.1102635 2.4686973 1.8087645 51.666668
1.2282654 2.526614 1.8067523 55
-1.2147198 2.5697575 1.8335053 5
-0.96339411 2.6270015 1.8190507 7.3333335
-0.43988797 2.6284499 1.8281866 56
-0.2485223 2.6212695 1.812488 46.666668
0.068910137 2.6089756 1.8254887 58
0.26786384 2.6288083 1.8195834 54
0.43232128 2.6228409 1.8191797 59
0.51494324 2.6524575 1.8143674 58
0.76805252 2.5654461 1.8117326 61
0.97735381 2.6275578 1.8108739 56.666668
1.1163774 2.6406879 1.8084433 50.75
1.2721133 2.5999012 1.8095306 51.666668
1.4118586 2.5998106 1.8099269 48.5
1.5736661 2.6892567 1.8078362 48
1.6780262 2.6886413 1.8171905 49
4.1459308 2.6865671 1.8010348 33
-0.9636398 2.7309003 1.8249776 7.5
-0.85974014 2.8219893 1.813033 11
-0.51848406 2.7510443 1.8215137 57.5
-0.24117728 2.7587841 1.8199362 44.666668
-0.094729215 2.8131492 1.8063173 59.5
0.25501442 2.7745078 1.8179578 65
0.44374979 2.7450237 1.8159119 56
0.50645208 2.7892494 1.8153466 56
0.66250682 2.7960024 1.8131173 59.5
1.1701999 2.7543545 1.8103518 55
1.2753203 2.7715969 1.8045894 56.333332
1.4146894 2.7559769 1.8086188 48.799999
1.7399149 2.8198586 1.8059071 43.333332
1.880167 2.7542315 1.8098202 47.5
2.1348248 2.8149233 1.8073361 34
2.4260969 2.8244269 1.8081456 24
3.2790668 2.8484159 1.8121811 17
3.565243 2.8128397 1.806883 19
-1.1810935 2.9135602 1.8281621 6
-0.90684253 2.9819882 1.8296083 9
-0.82460219 2.909605 1.8114398 13
-0.32914945 2.9292734 1.8197495 60
-0.062767632 2.9059579 1.8078079 59.333332
0.46303034 2.9499211 1.8164719 52
0.6397717 2.9176142 1.8161877 54
0.82582599 2.9548197 1.8106281 49.25
0.95731002 2.9654047 1.8116077 57
1.4598997 2.9005842 1.8159516 27
1.5883007 2.9407859 1.8131802 22.5
1.6544639 2.8612566 1.818447 21
1.9161217 2.9636815 1.8155459 18
2.0125897 2.9306288 1.8089322 18
2.216578 2.9593341 1.8159574 18
2.389698 2.9130895 1.8078479 17
2.6818497 2.964519 1.8037268 18
2.7090518 2.8552647 1.8148586 15
2.9900644 2.8599007 1.8124224 16
4.8094368 2.9674461 1.8141016 25
-1.2695916 3.0080426 1.8251859 6
-0.97761774 3.1016247 1.8348564 9
-0.3768115 3.0367887 1.8203987 58
-0.12605061 3.0544128 1.8205673 55
0.11691113 3.0545406 1.8006216 68
0.68316817 3.0742121 1.8177109 52
0.85588652 3.0887971 1.8108336 42
1.1351974 3.1248252 1.8136779 49.666668
1.7191035 3.0186388 1.8125898 40
1.8599768 3.065218 1.8056179 47.5
1.9819469 3.0750113 1.8072189 42
2.1942444 3.0536733 1.8093466 46
2.279736 3.1494529 1.8081058 44
2.500545 3.081512 1.8127362 40.5
2.781357 3.0497267 1.8091494 40
2.9996247 3.0115736 1.8046626 28
3.0917337 3.0821579 1.8100799 36
3.4030905 3.0884063 1.8046502 31
3.7408125 3.0892553 1.8073364 31
4.0758438 3.0609963 1.803651 31
4.4340572 3.0188766 1.8056411 24.5
-1.046301 3.2129655 1.8306805 10
-0.17953323 3.290014 1.8196718 54
-0.14756025 3.1696892 1.8209962 60
0.067134395 3.2230055 1.816063 60
0.32582492 3.2746453 1.8021401 62
0.99020243 3.1841443 1.8193216 49
1.1044917 3.2818573 1.8164333 47
1.429378 3.2804208 1.8183792 51.5
2.0579038 3.1756945 1.8036993 48.5
2.187434 3.2247939 1.8061512 45.5
2.5040524 3.2438989 1.8074788 37
2.5981398 3.2135236 1.8096834 39
2.8372386 3.2306032 1.8088592 35
2.9251661 3.2543361 1.8073019 33
3.2271862 3.2844892 1.8042092 29.5
3.6199558 3.2762468 1.8023793 30
3.9823472 3.2524509 1.8009537 30
4.3615746 3.2114866 1.8044688 25
-1.1272075 3.3324661 1.8293389 7
-0.55300283 3.3813384 1.8085221 62
0.059693765 3.421829 1.8210784 56
0.27001005 3.4097507 1.8204204 56
0.32730442 3.3937345 1.8026623 50
0.95624775 3.3189888 1.8221928 54
1.1735275 3.3832014 1.821633 48
1.3146461 3.3697846 1.8137733 50.666668
1.7392814 3.4048173 1.8160042 54
2.3460028 3.338275 1.8059288 45
2.5313365 3.3019521 1.8019036 41
2.8440881 3.3225727 1.8069307 32
2.9099946 3.4300053 1.8023976 32
3.2044799 3.3827975 1.8019985 29
3.5849376 3.3942971 1.8042738 30
3.9908102 3.3991117 1.806682 32
4.4146357 3.4089513 1.8005816 32
-1.5229998 3.5984528 1.838806 6
-0.88770282 3.5341234 1.8304945 15
-0.50500512 3.506165 1.8079979 61
0.046169054 3.5630529 1.8217736 55
0.279293 3.5365279 1.812852 46
0.52058971 3.4820633 1.8026836 52.5
1.2403468 3.4974248 1.8208958 55
1.4242208 3.5229001 1.8193477 51.5
1.5882096 3.5901768 1.8159016 52
1.677452 3.5082049 1.8127227 52
2.0485547 3.5447407 1.8145288 49
2.5636582 3.4713347 1.8025109 41
2.7099125 3.4875319 1.8021933 39
3.3279033 3.5491886 1.8016249 30
-0.95909411 3.6846879 1.8318173 12
-0.36127031 3.6934638 1.8029584 54
0.29679233 3.6896765 1.8208066 55
0.49748296 3.6735733 1.8218619 53
0.82319313 3.7418385 1.8016635 59
1.5907729 3.6569924 1.8165989 46.5
1.6846044 3.6649253 1.8112854 50
2.0244832 3.6453185 1.8138453 46
2.3838112 3.6800554 1.8130993 45
2.9871373 3.6444099 1.8001403 33
-1.764315 3.7969949 1.849425 0
-1.6243162 3.7616251 1.8323799 1
-0.42872187 3.8884451 1.8264769 62
-0.28678861 3.7855892 1.8023347 57
0.30588639 3.8547847 1.8243583 59
0.52716333 3.8070626 1.8106564 52
1.7950728 3.7558227 1.8187581 51
1.912462 3.8312707 1.8162818 48
2.0150158 3.8416519 1.8090221 46.666668
2.3893027 3.8219206 1.8098844 39
2.7523048 3.8125958 1.8118173 35
-1.7117746 3.9952703 1.8407836 0.5
-0.31841934 3.9044755 1.8028454 56
0.56756276 3.9719529 1.8168288 53
0.75730568 3.9469557 1.8141836 54
1.1234751 3.9987106 1.8027288 57
2.1572492 3.9392173 1.815132 41
2.290215 4.0269351 1.8114237 39.5
2.8061697 4.0124936 1.8141226 31
3.1564693 3.9413478 1.812694 31
4.106051 3.9347687 1.8035594 8
-1.7193223 4.1540718 1.8491181 0
-0.45791754 4.0635247 1.8203927 57
-0.094341107 4.0933628 1.8046542 58.5
0.60299665 4.1570163 1.8219026 55
0.81310791 4.1013966 1.8096017 55
2.4276185 4.1197367 1.8045427 39
2.5638251 4.1271076 1.8140153 40
2.7165875 4.1953387 1.8163351 34
3.259486 4.1870179 1.8094207 32
3.5931716 4.0603199 1.8130227 25
4.0623813 4.1616926 1.8081151 27
-1.6545637 4.2812452 1.8462476 1
-0.48417422 4.2679768 1.8270959 58
-0.21300267 4.2602997 1.8265876 53
-0.075453639 4.3394532 1.8043031 52
0.87804049 4.2729855 1.8130537 42
1.0589572 4.2540746 1.8111733 50
1.4589696 4.2646933 1.802605 48
2.7245798 4.2727718 1.806522 38
2.8679986 4.2569461 1.8039969 32
3.0158782 4.3134265 1.8136479 32
3.1805151 4.3494372 1.8137392 31
4.5708461 4.2489409 1.8055187 30
-1.5936809 4.4171891 1.8425903 1
-1.2416875 4.4368911 1.8339604 8
-0.52125549 4.4721012 1.8205401 64
-0.22104609 4.4825425 1.8295335 27
0.12586625 4.4412403 1.8009959 54
0.94433409 4.4755988 1.8173226 33
1.1439703 4.423315 1.8090152 45
2.9493794 4.4681153 1.8004655 33
3.503958 4.478014 1.803809 32
3.6895101 4.4940038 1.8134791 27
3.7689259 4.3635149 1.8056322 26
-1.5455302 4.5293555 1.8456749 1
0.2246563 4.5068135 1.8015279 54
1.2367345 4.6016107 1.8112043 45
1.4116832 4.5906715 1.8070456 50
1.784457 4.6359243 1.8011609 37
1.8469176 4.5563626 1.8032414 45
3.2205296 4.5274668 1.8030943 26
4.0571423 4.646945 1.8010918 27
-1.7089635 4.6863294 1.8330239 0
-1.6018167 4.7140007 1.844282 0
-1.3222286 4.6729398 1.8240937 3
-0.22588576 4.6904292 1.8213152 23
0.040575426 4.6565809 1.8161677 53
1.5286585 4.7737041 1.807953 42
-1.5162076 4.8405495 1.8422533 1
-0.23755613 4.9486098 1.8208975 41
0.057505112 4.8863473 1.8077425 52
1.3367544 4.8178701 1.8138622 47
1.7019789 4.9014497 1.8175732 10
1.6562037 4.9636812 1.8102742 34
1.8327301 4.9798007 1.8092905 39
-1.3723768 5.1050305 1.8502797 2
0.34760875 5.1409707 1.8193291 49
1.7916017 5.1814418 1.806981 35
1.9750273 5.1473112 1.8003496 35
2.1425703 5.3489919 1.805411 36
0.39743906 5.4197111 1.8159634 37
0.71813911 5.6817222 1.8138279 37
2.3202379 5.5753279 1.8011094 29
0.45679981 5.7274857 1.8152622 32
0.80540913 5.9991832 1.8081497 37
2.9274039 5.8953609 1.8042468 21
2.9541075 6.031487 1.8051766 32
3.4016831 6.2630739 1.8036226 26
0.9099856 6.362761 1.8092316 29
1.1774127 6.3411932 1.8163816 32
1.3135431 6.7083316 1.809137 32
1.0299484 6.8224535 1.8158275 32
1.4819776 7.1527281 1.8160888 36
1.7468309 7.1067066 1.8089439 35
