# .PCD v0.7 - Point Cloud Data file format
VERSION 0.7
FIELDS x y z intensity
SIZE 4 4 4 4
TYPE F F F F
COUNT 1 1 1 1
WIDTH 1146
HEIGHT 1
VIEWPOINT 0 0 0 1 0 0 0
POINTS 1146
DATA ascii
0.26846093 -1.3685472 -0.16483451 8.75
-0.51432413 -1.251947 -0.18747039 13.333333
-0.38888517 -1.2521793 -0.18003763 8.5
-0.18387525 -1.3296506 -0.16773042 12
-0.08553046 -1.3369831 -0.17494856 11.222222
0.13867055 -1.3452278 -0.17934009 9
0.29177597 -1.3351359 -0.18033803 6
0.30995089 -1.3079714 -0.17171377 5
-0.52311319 -1.0755298 -0.17864968 9.625
-0.38318837 -1.1092788 -0.17888123 4.3333335
0.32193673 -1.058139 -0.16955949 6
-0.41731888 -0.93986273 -0.1794381 7
0.34060329 -0.95794463 -0.17866053 5
-0.51700407 -0.79533601 -0.17866474 12.611111
-0.39440611 -0.79227597 -0.18390633 12.125
-0.28581479 -0.78509885 -0.18096726 11.333333
0.35907817 -0.85879815 -0.1794294 7.5999999
0.91472024 -0.77423465 -0.18318762 10
-0.59978223 -0.74181956 -0.17272371 14
0.38804537 -0.68238956 -0.18062654 6
0.54124248 -0.6998474 -0.17598224 4.5
0.70889384 -0.72701687 -0.17495768 6
0.92828786 -0.69711691 -0.17053273 13.4
0.95047599 -0.54523671 -0.17014006 12.2
0.65254378 -0.22999381 -0.15913215 0
0.98535633 -0.24134472 -0.17481332 11.142858
1.0157269 -0.077449359 -0.17890948 12
1.0309709 0.077313513 -0.18761212 12.6
1.0449599 0.22053485 -0.18061632 12.833333
1.0622637 0.3744953 -0.1620466 13
0.86624116 0.52952659 -0.17768012 2
1.078573 0.51704544 -0.18378834 9.75
1.0891434 0.71412635 -0.17871352 27
0.73085314 0.92479724 -0.19615029 1
1.1608458 1.1823829 -0.18857685 57
1.1744581 1.3362086 -0.19291048 53
-0.17563571 1.4919175 -0.15037559 28
-0.086580627 1.398008 -0.17701297 8.333333
1.1753671 1.3568697 -0.17140733 47
-0.1572488 1.5840781 -0.1754144 1
-0.097948097 1.5555941 -0.18285835 50.333332
1.2038767 1.5334671 -0.17020968 34
0.39213204 1.6699338 -0.15709613 5
1.2267048 1.7691565 -0.16742516 44
-0.43343365 1.8769574 -0.19453198 29.5
0.91252273 1.941589 -0.19331145 24
-0.35147107 2.0727973 -0.17166673 115
0.51695883 1.955869 -0.15991037 13
0.6945411 1.9861568 -0.17206576 63
-0.9626829 2.1910751 -0.17558567 77.666664
-0.77406681 2.1623726 -0.17145357 89.5
-0.34744251 2.1108255 -0.1682952 83
0.1064461 -1.3545097 -0.073189743 8.625
0.20561211 -1.3642646 -0.11502758 9.166667
0.37100908 -1.3928719 -0.0091648148 9.5
0.53333527 -1.4056146 -0.0063850628 52.5
-0.81610376 -1.2418283 -0.013517556 12.25
-0.66360539 -1.2559463 -0.025194947 12.6
-0.58153081 -1.2735615 -0.025237141 14
-0.34277803 -1.3002472 -0.022656644 10.2
-0.21214323 -1.3176038 -0.097724505 14.333333
-0.070026822 -1.3341676 -0.044188481 10.833333
0.034127332 -1.343208 -0.060429811 9.166667
0.36497152 -1.2771512 -0.084546454 4
0.31961137 -1.0843315 -0.12166376 5
0.34290504 -0.94831204 -0.13809305 5.3333335
0.90211803 -0.90301788 -0.017185217 12
-0.27930358 -0.79257619 -0.062806249 13.571428
0.36932898 -0.76153231 -0.14663127 8
0.85029072 -0.78529954 -0.11279728 6.75
0.91063595 -0.81300169 -0.04361764 10.333333
0.39651462 -0.6858409 -0.11953991 5.6666665
0.49900419 -0.69471395 -0.1232115 4.8000002
0.62401772 -0.71281117 -0.12331603 5.25
0.92999119 -0.68127483 -0.086649515 11.636364
0.68510163 -0.47971958 -0.059495963 4
0.75693029 -0.48593485 -0.061474118 4
0.9491356 -0.54133821 -0.092624076 11.571428
0.38970771 -0.3519989 -0.085199662 5.2666669
0.51982135 -0.36304462 -0.086873442 2.8888888
0.68125272 -0.38746223 -0.082886599 1.75
0.76069909 -0.38202694 -0.082970671 1
0.94840658 -0.35296384 -0.11085022 6.25
0.408667 -0.24244602 -0.086671583 4
0.46971226 -0.22649457 -0.092840426 1.3333334
0.66658437 -0.22170261 -0.088490658 0.2857143
0.79633194 -0.25815192 -0.090455644 0.66666669
0.99127334 -0.2051214 -0.12212925 13
0.72136647 -0.087105572 -0.075921021 1.1666666
0.78518295 -0.048965484 -0.075310536 1.4
1.0015174 -0.057466138 -0.10252935 7.2857141
0.52666247 0.093904547 -0.084853262 0.25
0.74741894 0.094907999 -0.071349621 1.6666666
0.79446691 0.074943177 -0.07301525 1.3
1.0218946 0.07629922 -0.10683709 8.4615383
0.43794644 0.27203593 -0.071039937 7
0.49831107 0.20149188 -0.077235498 2.5714285
0.72585326 0.21298859 -0.06570591 0.60000002
0.83323002 0.23677285 -0.07170894 2.5999999
1.0348606 0.2068245 -0.098570444 8.090909
1.0520821 0.29412571 -0.1211601 13
0.51279515 0.37324384 -0.065091692 4.1904764
0.74019808 0.35426632 -0.059970889 0
0.8147254 0.36541063 -0.066853538 0.89999998
0.92292422 0.34658879 -0.077090763 2.5
1.0616969 0.38004228 -0.11203804 12
0.4999119 0.50681049 -0.062248245 5.3333335
0.7764945 0.51180673 -0.068341337 0
0.94250572 0.52968109 -0.078111291 0.25
1.0771898 0.51722676 -0.11502416 13.571428
0.53631139 0.66536784 -0.06195128 3.25
0.6531024 0.70502424 -0.061420832 1
0.89799887 0.67021757 -0.05714852 24
1.0939653 0.69959575 -0.099196732 45
0.52081418 0.80097854 -0.058279388 2.8
0.66866112 0.84509742 -0.063755266 1.5714285
0.85500544 0.86220181 -0.051438842 10.5
1.0080127 0.77705795 -0.07278958 13.333333
1.1201942 0.84268922 -0.081976317 41.799999
0.61847246 0.95788777 -0.056880478 8
0.87281376 0.96276039 -0.052619044 8
0.5506891 1.1725928 -0.04488394 25
1.1441727 1.073633 -0.080830239 18.5
0.56434888 1.3417585 -0.034817461 7
0.62339699 1.3058085 -0.046517853 6
1.1511856 1.2124375 -0.052170012 31
-0.31643257 1.4963906 -0.058171306 49
-0.23557705 1.4539711 -0.083497256 5.1111112
-0.13958168 1.3984827 -0.11882783 0
0.069881491 1.4486961 -0.04155742 17.166666
0.18930966 1.4575566 -0.048849899 26.5
0.54304343 1.4178952 -0.045629326 19
0.6108315 1.361078 -0.047631685 7.5
1.0423255 1.4944243 -0.041478548 2
-0.61073703 1.5553515 -0.055598233 88
-0.35411602 1.5445596 -0.066617198 18
-0.19345587 1.5060922 -0.087509789 1
0.18312185 1.5304366 -0.068283685 1
0.94302648 1.5709405 -0.034978811 0
1.1973697 1.5771229 -0.13108949 68.5
1.2053614 1.5586076 -0.10081375 25.666666
-0.54420131 1.7459593 -0.056769494 9.5
0.3757287 1.7334174 -0.092268191 102.33334
0.51182431 1.6960914 -0.10339791 3
0.8406232 1.6863543 -0.053691331 0
1.0135143 1.7025166 -0.087099902 2
1.0834036 1.6926292 -0.046256665 2
1.2230703 1.7458813 -0.07236366 50.75
-0.61068457 1.8662087 -0.037219409 150
-0.56142491 1.8986121 -0.031484339 10
0.36406508 1.8656086 -0.052642819 3.3333333
1.2347752 1.8393679 -0.063069411 71
-0.45424166 1.9856851 -0.12032652 5.5
-0.43807492 2.0850449 -0.086290278 57
0.39995363 2.0133982 -0.066584133 62.5
0.56834596 1.9980187 -0.11045477 95
0.60639244 1.9989295 -0.10824957 93
0.78694731 1.9769175 -0.12871349 75
-1.1040026 2.2049255 -0.069191687 76.5
-0.95035768 2.1865132 -0.075353533 70.375
-0.83979726 2.1744792 -0.12038144 76.666664
-0.72422343 2.1500518 -0.028390918 85
-0.5546903 2.1299152 -0.088308536 65.833336
0.14034194 -1.3553388 0.10870917 9
0.25687489 -1.3808333 0.096335508 9.2857141
0.36303562 -1.3915372 0.08077433 14
0.51392752 -1.4073461 0.034383807 34.714287
0.61138648 -1.4160068 0.0099093271 57
0.78909534 -1.4326651 0.13423431 45
-1.074894 -1.2065917 0.1163457 14
-0.95293838 -1.2256345 0.097755045 11.25
-0.815687 -1.2445155 0.070216477 11.473684
-0.68957955 -1.2610481 0.044045743 11.7
-0.53611004 -1.2793677 0.10260329 6
-0.39866939 -1.2946457 0.054493904 10.5
-0.19804837 -1.3124405 0.079849616 12.428572
-0.090101451 -1.336412 0.044784658 10.7
0.034150258 -1.3475895 0.079114154 11
0.84735519 -1.3020595 0.13981809 47.666668
0.86637181 -1.1661202 0.10463665 60
0.88652861 -0.95986378 0.10651696 51.400002
-0.2834377 -0.79500514 0.099515505 13.666667
0.89051098 -0.88807988 0.060582545 10
0.91057378 -0.80200857 0.093592338 9.909091
0.91951257 -0.68695617 0.039359529 11.125
-1.1023347 -0.0098873703 0.14271641 0
-1.0165238 -0.08941251 0.10276884 3.8888888
0.57641 0.42712331 0.014757777 1
0.59495604 0.54841471 0.021812269 0
0.61456764 0.53040206 0.020320887 0
0.80758995 0.59587258 0.12734258 1
-0.19041979 1.4694905 0.10617594 14.8
-0.067720048 1.4529406 0.060344066 43.833332
0.067116931 1.4407625 0.026629698 30.5
-0.29271773 2.0960081 0.14033645 62
0.72946841 1.9771034 0.13637769 73
0.87125564 1.9591026 0.12168527 72
0.92029798 1.9591582 0.13297884 79
-1.4395393 2.2484329 0.13536686 34
-1.2376795 2.2066257 0.077694468 52.42857
-1.1233835 2.2086985 0.064776212 69.75
-1.0276846 2.1848805 0.12776023 69
-0.8432228 2.1616576 0.095395721 68.599998
-0.71728027 2.1449888 0.072946407 76.75
-0.50062579 2.1239734 0.11329498 83
-0.38091913 2.1095419 0.12896918 64.5
-1.467793 2.2554801 0.098336101 34.333332
0.078144342 -1.3578002 0.21096736 9.2222223
0.19536971 -1.3763642 0.16738147 9.833333
0.41487598 -1.3969488 0.26159865 58
0.53085583 -1.4111084 0.2542004 54.666668
0.68697238 -1.4310324 0.25143537 48.375
0.81435394 -1.4200479 0.24526367 52.75
-1.1035024 -1.2077401 0.2244525 6.75
-0.99098778 -1.2211936 0.23900273 16.571428
-0.81946927 -1.2443883 0.24299537 14
-0.68777019 -1.2630367 0.21331032 8.75
-0.51294112 -1.2873847 0.26694003 12.428572
-0.37812269 -1.3016039 0.21755427 11.769231
-0.28681207 -1.3168105 0.20342994 13
-0.047874924 -1.3422042 0.2548129 10.5
0.047708035 -1.3458973 0.22769327 10.333333
0.84898198 -1.2821136 0.19685026 54
-1.4491242 -1.1396585 0.28322297 50.5
-1.2719872 -1.1588854 0.2594766 25.888889
-1.1281712 -1.188589 0.22526944 32.799999
-0.99335521 -1.1936312 0.24754512 27
-0.25452965 -1.1191126 0.2815201 13.333333
0.86855477 -1.1040817 0.23601861 59.833332
-1.4582057 -0.99756294 0.29288828 57
-1.3402925 -0.99208361 0.28601635 57
-1.1324587 -1.0193298 0.29842633 8
0.88604516 -0.98684812 0.23401721 55.888889
0.90137124 -0.9224329 0.20671144 10.5
-1.3022022 -0.80187762 0.2967253 10
-0.67490035 -0.86200309 0.2970413 12
-0.27680901 -0.79220957 0.25754547 9
0.89675927 -0.88274086 0.21929814 22.75
0.9071002 -0.80917233 0.22771697 33.299999
-1.4984663 -0.63437128 0.29293674 48
-1.3164747 -0.66758412 0.26153183 8
-0.82311416 -0.72498804 0.29512149 15
0.9246828 -0.69313759 0.19306962 9.5
0.9406032 -0.54413718 0.15940511 9
-1.2131971 -0.037196692 0.24850698 0
-1.1826696 -0.054354638 0.2533375 0
-1.1216573 0.028953014 0.22201417 4.125
1.1097419 0.83007646 0.28051895 30
1.128777 0.9658711 0.23420075 35.444443
1.1422498 1.1110799 0.2594412 51.285713
-0.06400802 1.3339148 0.2550385 3.3333333
0.049089622 1.3461751 0.20100313 2
1.1726072 1.3238387 0.22647464 29
-0.22558078 1.4354391 0.16461866 20.428572
-0.14219335 1.4468443 0.15577781 1
0.082349613 1.3942581 0.20031866 15.571428
0.17148466 1.3794461 0.16975814 0
1.1905969 1.4860344 0.24429557 28.5
1.2038641 1.5837393 0.23895831 22.666666
1.2243178 1.743551 0.27116987 42.5
0.96450263 1.9486669 0.1903742 83
0.550861 1.9946876 0.25535879 78
0.67039073 1.9848689 0.23215063 77.571426
0.79495728 1.9664265 0.19126949 73.599998
-1.4082419 2.2406118 0.20148627 21.571428
-1.2162902 2.2203236 0.19813442 70
-1.1917403 2.2157855 0.26733038 70
-0.9843415 2.1735601 0.22694668 63.799999
-0.86433101 2.1633453 0.1918745 71
-0.63767141 2.137373 0.23136348 77
-0.50728863 2.1200411 0.23103137 81.199997
-0.40134317 2.1088014 0.20121947 85.5
-1.9072673 2.2989898 0.28684491 28.5
-1.6656446 2.2715557 0.20199165 30.200001
-1.6161655 2.2631936 0.26780474 31
0.24807031 -1.3794837 0.41762915 45.5
0.3725355 -1.3906251 0.36992684 60.909092
0.51849866 -1.411029 0.33909312 55.875
0.62941664 -1.4247378 0.31961092 50.666668
0.82170725 -1.3965656 0.42582649 56
-0.82483453 -1.2290009 0.31490815 8
-0.63929051 -1.2249074 0.3142944 7
-0.53416485 -1.2344401 0.31767389 7.8571429
-0.3115527 -1.2767299 0.4208146 8.5
-0.19620705 -1.3261665 0.366788 11.111111
-0.1095256 -1.3376218 0.33629501 11.333333
0.84332293 -1.2813909 0.38702378 53.200001
-1.2800763 -1.1484457 0.30778685 24.333334
-1.1237166 -1.1496533 0.3100484 6.8571429
-0.98332816 -1.1683706 0.31494093 6.6666665
-0.84201038 -1.1303524 0.31411633 8.125
-0.6427691 -1.0923308 0.311362 9
-0.57605547 -1.1237265 0.31641886 8.833333
-0.34781909 -1.0830134 0.32435539 7.1666665
0.86163169 -1.1488847 0.35890985 53.900002
-1.4185444 -0.98393965 0.30624592 28
-1.2547176 -0.97433662 0.31065217 7.2727275
-1.1136403 -0.95736569 0.31029367 7.25
-0.97856712 -0.98301804 0.31072596 8.2857141
-0.86549765 -0.975811 0.31489766 7.375
-0.66804242 -0.98423058 0.32312486 6.6363635
-0.52919221 -1.0123047 0.32515821 8.5
-0.39597189 -0.9720462 0.32637691 8.333333
0.88442552 -0.96242589 0.3832837 59.823528
-1.420478 -0.82952577 0.3071107 8.333333
-1.2584126 -0.80987006 0.30889618 8.166667
-1.1222566 -0.81105912 0.31210101 7.8888888
-0.94885725 -0.81797367 0.31875986 8.181818
-0.81473231 -0.83191752 0.32037041 8.5
-0.7065987 -0.83351004 0.32547238 8.2222223
-0.49890485 -0.83169001 0.32287663 9.1999998
-0.35894927 -0.83368558 0.3339842 8.8000002
-0.28602752 -0.82118279 0.32589161 7
0.89825898 -0.83405995 0.37143949 52.666668
0.90467465 -0.82124227 0.35302609 45.625
-1.522413 -0.69790429 0.41914165 4
-1.4216578 -0.69232738 0.38423491 21.4
-1.2607732 -0.68376684 0.33626601 14.5
-1.1262903 -0.71357799 0.31114191 7.4000001
-0.92090064 -0.72843158 0.31436566 8.5
-0.72187829 -0.73642671 0.30963629 9
-1.2289841 -0.024853483 0.38153362 1.5
-1.2291464 0.017889721 0.40106088 3.5999999
-1.1819754 0.066083215 0.32095349 3
-1.7509621 0.22503312 0.4097735 12.333333
-1.9022428 0.37141287 0.44979256 56
-1.6863803 0.40795252 0.37731993 25
-1.6405654 0.3350338 0.38721979 47.5
-1.6712375 0.51283216 0.39053708 24
-1.6395087 0.58515531 0.41169235 61
1.1094089 0.86276674 0.34704661 52.5
1.1290004 0.99505156 0.37172261 47
1.1420429 1.1271653 0.37519956 47.125
-0.075722277 1.344673 0.31996876 1
1.1597881 1.2607207 0.36024746 48
-0.077699326 1.3995543 0.33391422 12.5
0.048759177 1.4498374 0.31144214 25.25
1.1818578 1.4422787 0.39528528 46.75
1.2194879 1.7203354 0.34694263 49.333332
1.0283973 1.9405824 0.39099807 76
1.1233568 1.9280357 0.41345191 73.400002
1.2227157 1.9038099 0.3981691 68.800003
0.41788596 2.0082793 0.36780947 66.199997
0.52193242 1.9966594 0.34817174 74
0.70621139 1.9714452 0.30085945 70
-1.3803937 2.2320476 0.33032697 1.5
-1.2379009 2.2068059 0.4359858 57
-1.1491644 2.2026074 0.37421036 69.666664
-0.99328786 2.185338 0.33963823 84.333336
-0.77501029 2.1502993 0.37990737 71.75
-0.6663186 2.1376138 0.37007865 79.833336
-0.56748849 2.1201801 0.32166591 85
-0.37273565 2.1071105 0.40412885 83
-1.8573236 2.2866225 0.38584217 30.142857
-1.7562919 2.2775106 0.41612864 27
-1.582613 2.2570744 0.34628135 30.857143
-0.0088856695 -1.3533796 0.57379842 34
0.085463211 -1.362614 0.51748085 39.090908
0.21457253 -1.3775067 0.47036892 38.5
0.55951291 -1.417326 0.55646771 54
0.68982357 -1.4354795 0.54160142 46.333332
0.81596255 -1.401132 0.54407734 51.666668
-0.27897394 -1.3171357 0.49199468 18
-0.049483448 -1.3456652 0.57531035 54.5
0.066286102 -1.3497388 0.49959219 61
0.84314543 -1.258394 0.50392246 52
0.86368674 -1.1090201 0.52476823 50.285713
0.87912887 -0.99900508 0.50812095 51.333332
-1.3500732 -0.79135811 0.48947823 0
-0.29182482 -0.81380451 0.53638518 9
0.88955432 -0.89207399 0.48798251 60
-1.7512448 -0.72477627 0.50266016 58.5
-1.5309122 -0.74586713 0.49267995 11
-1.300838 -0.6813215 0.53545129 95.5
-1.3574464 -0.30150595 0.57996857 0
-1.3033476 -0.22510231 0.58594036 17
-1.2059323 0.021694409 0.51468271 6
-1.8979548 0.37521708 0.46653515 58
-1.7069695 0.37018448 0.48284218 145
-1.7137574 0.52308512 0.51809412 62.909092
-1.6736947 0.62818992 0.50328422 48
-2.1306691 0.91554713 0.53739393 92.5
-2.114181 1.1038671 0.5529927 50.75
1.1425323 1.1303055 0.50702929 47
-2.0949645 1.2810189 0.53784066 85.400002
1.1626173 1.2883668 0.50738335 43.875
1.1800878 1.4369026 0.53992879 42.375
1.1944311 1.5605177 0.53980827 43
1.2022949 1.6317978 0.46839947 38
1.2089489 1.6584282 0.53729868 55
0.96860301 1.9427863 0.51900828 72.714287
1.1039096 1.9247481 0.49934998 66
1.2402759 1.87745 0.49049681 52
-0.32218564 2.0889952 0.51646918 72.666664
-0.22599392 2.0770621 0.45193374 90
0.27327746 2.0234959 0.47927618 53
0.3360315 2.0123775 0.48923418 68.5
0.8209824 1.9636948 0.54424983 74.285713
0.94410437 1.952378 0.49971431 80
-1.5495516 2.2473159 0.54459554 30
-1.4136424 2.2243936 0.56919473 21.333334
-1.0934377 2.1938026 0.55471343 71
-0.92492419 2.1717713 0.54837805 87.199997
-0.81923515 2.1557734 0.50175947 84
-0.50330538 2.1208141 0.52719265 77
-0.38864115 2.1041255 0.53151262 76.199997
-0.26119754 2.1062741 0.46631446 14.5
-1.77705 2.2749963 0.5117377 29.75
-1.580862 2.2568228 0.4754796 26
-0.035653073 -1.356274 0.62704134 37.5
0.24782743 -1.3835951 0.73247898 62
0.37288296 -1.3980235 0.70446092 53.18182
0.52756751 -1.4158601 0.67007995 54.454544
0.66572487 -1.4303482 0.64021051 55.200001
0.78241426 -1.4344679 0.63583517 48.799999
-0.16543378 -1.3406694 0.68505979 46.25
-0.082957514 -1.3448774 0.66002494 64.571426
0.84196562 -1.2541119 0.68616658 49.75
0.85730922 -1.144363 0.63732016 50.400002
0.87454921 -1.0390959 0.61276668 51
-1.3934269 -0.78883719 0.70383829 9
-0.31111822 -0.80852431 0.63171959 7
-0.2906476 -0.81788176 0.64384389 6.3333335
-1.3613856 -0.69881099 0.66834092 150
-1.2523476 -0.67251104 0.67755783 34
-1.2659813 -0.22173709 0.67804182 5.4444447
-1.2809936 -0.14613277 0.68997484 16.5
-2.2367268 0.14028223 0.67610496 88.666664
-2.2205608 0.21750106 0.72045296 95.333336
-1.8435047 0.44165093 0.63457882 45.200001
-1.7552886 0.42909598 0.69707322 38
-1.8117175 0.45923948 0.65178251 43
-1.7655585 0.46601585 0.67840296 39.5
-2.133456 0.97018141 0.66476393 84.714287
-2.1142786 1.1608269 0.68315047 90.285713
-2.1139915 1.2035904 0.73176754 99
-2.0957098 1.3319116 0.64773041 97.666664
1.1594175 1.2950637 0.64086986 45
-2.0932798 1.3763604 0.69175339 89.666664
1.1728978 1.4013902 0.67643774 40.25
1.1873188 1.5180149 0.70855486 36.5
1.2083515 1.6213427 0.70967287 44.666668
1.2185124 1.7206165 0.66755939 43.5
0.87703627 1.9489208 0.64071906 69
1.1466234 1.9169611 0.70783842 62
1.2312224 1.8421378 0.64507693 45.5
-0.42380297 2.0979054 0.62674606 80
-0.17082681 2.0723314 0.71494186 70
-0.04252407 2.0548377 0.7417919 67.333336
0.022954416 2.0455072 0.72301269 68
0.43054986 2.0061095 0.73537326 79
0.55085945 1.9937085 0.70531744 77.333336
0.67402506 1.9770873 0.64604449 76.777779
0.79891741 1.9603052 0.65258372 65
-1.949428 2.2352741 0.71338916 3
-1.5733006 2.2386501 0.68044883 32.599998
-1.4967734 2.2360954 0.67798555 29
-1.2464967 2.163347 0.66293973 33.5
-1.083782 2.1844323 0.69022512 69.666664
-1.0115532 2.1742432 0.66907722 72.666664
-0.79654455 2.1614878 0.72620547 82
-0.63477594 2.1355352 0.65971404 88.666664
-0.51404816 2.1144679 0.67009157 80.5
-1.78071 2.2677011 0.65103626 29
0.11362901 -1.3720765 0.85681421 50.833332
0.21807006 -1.3817983 0.82030004 53
0.34481525 -1.3964034 0.76954931 52.333332
0.57695055 -1.4227307 0.87328947 56
0.66627181 -1.4314249 0.85072654 59.5
0.80708414 -1.4013171 0.82400841 54.833332
-1.0901347 -1.2009739 0.79692817 44
-0.78683358 -1.2134204 0.81190515 42
-0.69637913 -1.2332925 0.81366897 45.666668
-0.48223457 -1.2133563 0.81628036 52
-0.36858889 -1.2507834 0.82043689 48.875
-0.2220289 -1.3319156 0.78227317 23.4
-0.14817493 -1.3370955 0.77266061 70
0.83689201 -1.2945795 0.81340587 49.5
-1.6806959 -1.0852585 0.78734094 62.333332
-1.568235 -1.1169429 0.79395545 41
-1.4413803 -1.1039275 0.79675567 45.799999
-1.2605941 -1.1286577 0.79974139 38
-1.0981376 -1.1390694 0.80588371 44.714287
-0.91247165 -1.0623577 0.79890287 45
-0.80062306 -1.1234788 0.80310571 34
-0.73082626 -1.1142988 0.8114928 19.75
-0.49945062 -1.1007475 0.81733859 9.8000002
-0.40904069 -1.1257118 0.82352638 9.5
0.84875542 -1.198386 0.76685739 52
-2.1480074 -0.97187918 0.78875226 56.666668
-2.0182638 -0.96474463 0.78981858 52
-1.879385 -0.96901429 0.79065073 46
-1.7242442 -0.92007625 0.79496568 50
-1.5536823 -1.0013516 0.79823679 32
-1.4462082 -0.9749651 0.8023724 44.25
-1.2558786 -0.98762131 0.79941398 47.333332
-1.125788 -0.97543132 0.80703676 54.900002
-0.95026946 -0.93480295 0.81055808 10
-0.82910305 -0.97494012 0.81760257 16.454546
-0.64080632 -0.98930109 0.81784236 9
-0.52231145 -0.98247427 0.82033575 9.6153851
-0.36638248 -0.9519887 0.82048655 28
-2.3120284 -0.83510792 0.7723363 11
-2.1597538 -0.81608397 0.79335672 29.25
-2.0262506 -0.81790555 0.79570973 52.25
-1.886288 -0.84922224 0.79393226 51.666668
-1.736964 -0.79517567 0.79746735 46.75
-1.5715522 -0.81207609 0.80314809 35.5
-1.4222341 -0.8582738 0.80815852 42
-1.2605793 -0.81604588 0.80554402 35.799999
-1.1482854 -0.81457037 0.81295633 29.5
-0.95084238 -0.82529783 0.81817323 9.8000002
-0.84183866 -0.82767582 0.82117689 10
-0.65091079 -0.82898003 0.82157189 9.1111107
-0.55581671 -0.83674353 0.82211065 8.875
-0.36875001 -0.84465122 0.81701636 14.636364
-1.9951282 -0.69917709 0.79504013 49
-1.8908626 -0.67779273 0.79379666 46
-1.738292 -0.67050314 0.80370367 45
-1.5469253 -0.65950668 0.80397213 40
-1.4555345 -0.71973395 0.80799705 47.5
-1.2679479 -0.67836547 0.81520116 17.75
-1.1727463 -0.70928997 0.80772835 33
-0.95436978 -0.71934801 0.80731583 10.333333
-0.885432 -0.7274065 0.81063271 8.666667
-1.975401 -0.59880775 0.79733419 53
-1.9319338 -0.58873492 0.80682576 7
-1.2637633 -0.33866853 0.76802844 3.25
-1.1856672 -0.32617503 0.79659605 0
-1.2188766 -0.20572238 0.78410739 6.75
-1.1828976 -0.22620504 0.81286335 2
-1.2869688 -0.12992023 0.79650712 2.6666667
-2.2253017 0.21767639 0.84664857 87
-2.2069926 0.37173727 0.82546055 89.25
-1.9597657 0.40035918 0.82947552 153
-1.7337179 0.42041329 0.80923915 40.5
-1.7618011 0.56856763 0.80016315 20.799999
-2.150722 0.8817125 0.83800483 76
-2.1319044 1.0143358 0.80617458 82.428574
-2.1261933 1.119707 0.8314684 96.333336
-2.1138306 1.2476513 0.83132005 87.5
-2.0962965 1.4017991 0.79384017 32.25
1.1973757 1.5303081 0.78427982 47
1.2060142 1.6055092 0.83676153 44
1.2196236 1.7341868 0.85260165 39.5
0.89721078 1.9436646 0.84862304 60
0.97740757 1.9318578 0.85665464 63.875
1.127867 1.9139366 0.80929977 58.142857
1.2252681 1.8655106 0.80881423 51.799999
-0.30252337 2.0821805 0.78763402 67
-0.2124203 2.0797589 0.84974545 80.5
-0.1078297 2.0642581 0.80596763 78.333336
0.24350351 2.0255919 0.89052659 77.5
0.37220189 2.0099823 0.84347868 66.699997
0.49496377 1.9956331 0.80026329 73
0.64634156 1.9773771 0.75416243 70
-1.6901711 2.2460647 0.82565725 29
-1.457159 2.2252984 0.8266359 26.5
-1.2340426 2.1936052 0.83009094 52.5
-1.1547724 2.1882467 0.78371757 70.5
-0.95283514 2.1682224 0.8504324 71
-0.76688397 2.1523862 0.80500525 80.5
-0.68414825 2.1349113 0.83674145 81.833336
-0.59543699 2.1229882 0.76706719 87
-1.8126956 2.2579219 0.87702942 28
-1.7511605 2.2550759 0.7988286 30.333334
-0.037899736 -1.357113 1.0022333 48.142857
0.062645271 -1.3677572 0.9576205 44.900002
0.40283826 -1.4069066 1.0276248 42.166668
0.52923959 -1.4212571 0.97816128 46.23077
0.67319667 -1.4373078 0.94956112 51.111111
0.79833496 -1.4302202 0.95155299 50
-0.18502723 -1.3380049 1.0370477 54
-0.10206248 -1.3479439 0.96577001 51
-0.29746917 -0.8133288 0.93221712 7
-2.0136769 -0.63423055 0.91609597 157
-1.2709161 -0.66836941 0.93160135 2.5
-2.2224631 0.26812243 0.97997904 79.199997
-2.2038951 0.41676068 0.9460597 78.75
-2.1646309 0.73302519 0.92747414 71
-2.159431 0.84159887 0.94008178 104
-2.1440775 0.95348656 0.97997653 88.75
-2.1220298 1.1531378 0.99212533 79.666664
-2.1008732 1.3413855 0.91427588 77
-2.0876861 1.2977809 1.0235642 67.5
-2.0955968 1.3855671 1.0066042 58
1.2200775 1.7520704 0.95597667 37.333332
0.85794991 1.9429914 0.95052737 55.666668
0.98890674 1.9244117 0.97748929 61
1.1323152 1.9069872 0.98122865 55.200001
1.222361 1.8791348 1.0026163 51.333332
-0.32730103 2.0875411 1.0130709 70.5
-0.24994832 2.0829518 0.94503772 78.75
0.075112239 2.0467355 1.0036185 67
0.22635461 2.0253391 0.98403919 68.25
0.31925261 2.0150068 0.96328807 69
0.691423 1.9655262 1.0217681 61.333332
0.7909773 1.9540448 0.96635836 60.5
-1.6930377 2.2494426 0.95969737 27
-1.6475381 2.2427704 1.023609 25
-1.407629 2.2154179 0.98134321 8.75
-1.1022944 2.1780825 1.0188981 71.5
-0.91202193 2.1611862 0.9312008 78.5
-0.83613414 2.1457524 0.98201007 72.199997
-0.57297951 2.1246393 1.0273716 76
-0.41453972 2.104495 0.95341539 80
-1.9594086 2.2779994 0.92498195 26
-1.8842913 2.2654653 0.95895731 27.5
-0.078615479 -1.3563037 1.1210246 46.75
0.093086936 -1.3736095 1.154191 52.333332
0.25151712 -1.3911577 1.1263783 46.857143
0.35133886 -1.4039353 1.1188582 44
0.50634778 -1.4210745 1.1249626 42.900002
0.65693605 -1.4398478 1.0733899 42.400002
0.77759105 -1.4523567 1.0598028 47
-0.20720431 -1.3395472 1.163635 48.5
-0.12328996 -1.3477093 1.1215097 45.5
-2.2067184 0.39131865 1.1292319 84.25
-2.1528869 0.71512806 1.1412823 92
-2.1604118 0.86789149 1.1009526 85.5
-2.137068 0.93248177 1.1368335 71
-2.1212986 1.0984092 1.1192505 74
-2.1134906 1.2440753 1.1175725 81
-2.0973594 1.3032068 1.1433196 69.666664
0.84689355 1.9378346 1.1618632 54.833332
0.96806103 1.9231051 1.1249185 54.285713
1.1136163 1.903898 1.0987386 52.42857
1.2286987 1.888602 1.0651566 58
-0.48126683 2.0982938 1.1868978 63
-0.39355206 2.0951259 1.0851483 73
-0.17561041 2.0649948 1.1811756 67
-0.034722596 2.0525866 1.1262494 65.333336
0.089195736 2.0365326 1.1246874 63.714287
0.174843 2.0259361 1.0642771 57
0.43150619 1.9944837 1.1731942 62.5
0.54668683 1.9791347 1.1463366 60.42857
0.63882697 1.9699423 1.1077108 60.400002
-1.5630885 2.2258382 1.120497 29
-1.0518787 2.1695213 1.0991954 70
-0.98276252 2.1587617 1.1298193 67.800003
-0.71787649 2.1372852 1.1630821 66
-0.50088036 2.1075041 1.1294613 67.25
-0.40368104 2.1007466 1.1019685 67
-1.9432088 2.2746806 1.1522135 30
-0.079323798 -1.3608608 1.2935133 48.5
0.085843824 -1.3769835 1.3015404 40.777779
0.20881619 -1.3897169 1.258783 42.666668
0.34718952 -1.4080926 1.2785443 39.333332
-0.19701132 -1.3410699 1.2500594 38
-2.3550622 -0.80065471 1.3231189 66
-2.3368471 -0.68192977 1.2553471 21.75
-2.2286305 0.26098603 1.2597436 77
-2.2060745 0.4188033 1.2568434 75.333336
-2.1795554 0.68226516 1.2904975 73
-2.1630547 0.80210799 1.3246595 76
-2.1429863 0.9557507 1.2659758 71
-2.1192813 1.1485035 1.2546217 69.5
-2.0826383 1.3763336 1.2867796 23
0.72537565 1.9466304 1.2846057 55.666668
0.80021125 1.9388984 1.2492905 55.200001
0.92557216 1.9233837 1.2019882 51.5
-0.30247399 2.0756521 1.3019443 58
-0.068001665 2.0487261 1.2746034 59.222221
0.20008548 2.0164928 1.3230404 60
0.38057289 1.9969029 1.2907739 59.333332
0.48858905 1.98534 1.2208022 58.333332
0.67988133 1.9562294 1.3204247 55
0.75982565 1.951236 1.2614862 58
-1.7142607 2.2376473 1.2716872 27.666666
-1.239857 2.1912329 1.2361367 67
-1.1419032 2.1730442 1.2960445 63.799999
-0.87252784 2.1446159 1.3115 63
-0.63554209 2.114881 1.2733644 60.75
-0.55653 2.1072483 1.2665385 62.333332
-1.8583257 2.2616236 1.2457285 26
-1.7785866 2.2526622 1.3422067 27
-0.059639223 -1.3643886 1.4473624 44
0.073615238 -1.3775266 1.4193537 37.142857
0.21877217 -1.3959396 1.4155741 41
-0.20654356 -1.342355 1.3584778 48
-2.3496397 -0.80630785 1.4372824 57
-2.3270457 -0.60837209 1.4185892 9
-2.229794 0.27036345 1.379828 72
-2.214524 0.39106715 1.4100211 71
-2.1985497 0.50888216 1.4434009 65
-2.175494 0.68057179 1.4604952 67.5
-2.1533923 0.86511588 1.4476602 73.5
-2.1311579 1.056824 1.4385786 66
-2.1102786 1.2401716 1.402017 68
-2.0901644 1.2622664 1.4488387 66
-0.40982866 2.0844398 1.4653225 49.5
-0.22115521 2.0642223 1.4293426 53.599998
-0.12789673 2.0511081 1.3746574 57
0.098262846 2.0202394 1.4540427 58
0.24874476 2.0063291 1.430676 56.799999
0.34868628 1.9933515 1.4096885 56.5
0.54413772 1.9666083 1.4423516 59.222221
0.63013405 1.9621456 1.3708552 56.75
-1.8170966 2.2459769 1.38317 27
-1.5187368 2.2261977 1.3514392 28
-1.4316285 2.2148566 1.4249265 13.5
-1.2416607 2.1826913 1.4198742 62
-1.0398668 2.1600516 1.4870534 52
-0.80180299 2.1341596 1.3814719 48
-0.70664668 2.1166387 1.4402161 58.599998
-1.9644856 2.2514222 1.4677662 7
-1.8807485 2.2519975 1.4595991 26
-0.153474 -1.3536942 1.5265975 44
-0.082289502 -1.3650665 1.5894432 41.200001
0.060822487 -1.3806943 1.5485116 38
0.19811 -1.3946648 1.518873 41.5
-0.22218695 -1.349431 1.5778872 45.5
-2.3663023 -0.98204046 1.614562 50
-2.3561325 -0.81237197 1.5911299 49.333332
-2.340384 -0.66620833 1.5322522 60
-2.3234229 -0.57440686 1.5492959 58
-2.2328293 0.23577544 1.5653735 63
-2.2155025 0.33963898 1.5657402 67
-2.192127 0.51901191 1.5426775 65.333336
-2.1736755 0.66897106 1.5962433 65
-2.1565182 0.81958538 1.557107 65
-2.138031 0.99373341 1.5834303 63
-2.1253333 1.0833879 1.5193589 66
-2.1074803 1.2491215 1.5676947 62
-2.0972595 1.2520279 1.5116864 56
-0.51328415 2.0928686 1.6450337 46
-0.3310262 2.0729377 1.5851868 49.333332
-0.25291979 2.0621548 1.5417436 51
-0.030930389 2.034307 1.5404106 56
0.093762115 2.0219026 1.6079912 54.200001
0.211834 2.0096769 1.552361 56.166668
0.38403085 1.9862794 1.5996763 49.142857
0.48750636 1.9784156 1.5404102 52.333332
-1.7137208 2.2383947 1.5919724 23
-1.3994777 2.2005239 1.5935478 13.5
-0.95344365 2.1504302 1.5540001 51.5
-0.83421654 2.1301241 1.5877991 51
-0.57072461 2.1011431 1.595116 52
-0.18153591 -1.3627256 1.7047056 43.333332
-0.061400842 -1.3782597 1.7387244 48.333332
0.069839075 -1.392552 1.7252487 44.666668
0.16485439 -1.4017071 1.6611828 47
-1.5106891 -1.2134122 1.7835952 62
-1.1997826 -1.2354121 1.7925225 89
-0.98076868 -1.2662312 1.7519814 58.799999
-0.87954497 -1.2776284 1.7842964 59.5
-0.66177917 -1.264677 1.7895756 70.5
-0.51383108 -1.322499 1.735597 47
-0.38634872 -1.3453746 1.7783303 50
-2.3170393 -1.1059628 1.741268 40
-2.2041924 -1.0525817 1.7787949 63
-1.9868039 -1.1000398 1.7866348 66
-1.7128031 -1.1759357 1.7842783 81
-1.5818219 -1.1035051 1.7903515 75.666664
-1.4329398 -1.1608088 1.7960424 77.25
-1.1357828 -1.1709158 1.7962326 85
-2.3638821 -0.96158564 1.7297753 56
-2.1205537 -0.98827934 1.7859439 68
-2.0264523 -0.9659673 1.7878551 67.5
-1.917493 -0.93374979 1.7933542 62
-1.730772 -0.97012591 1.7929736 64.5
-1.522805 -0.99341458 1.7954353 73
-1.1234202 -0.9847368 1.7995948 94
-0.95444983 -0.90587121 1.7973858 77
-2.3727238 -0.88664883 1.7307473 46
-2.1773806 -0.81708235 1.7855635 68
-2.0594997 -0.80276501 1.7899677 70
-1.8798307 -0.78799725 1.7987399 70.5
-1.6315219 -0.80968344 1.7987827 75
-2.3217561 -0.6743353 1.7376499 56.666668
-2.0024061 -0.72065663 1.7972299 68
-1.8559787 -0.63801455 1.7995499 72
-1.7167466 -0.67727953 1.7980808 76
-2.2750804 -0.059753161 1.7427208 32.5
-2.2436686 0.12514408 1.733863 58
-2.2221451 0.29997653 1.7802655 63
-2.2216067 0.34193319 1.7426218 67
-2.1980186 0.51156163 1.7219863 69.333336
-2.173362 0.65027541 1.6993376 67
-2.1643848 0.8020938 1.7119591 66.5
-2.1455226 0.97677886 1.7371196 62
-2.1207597 1.1919357 1.7353007 62
-0.46374142 2.0826335 1.7248598 51.5
-0.37525094 2.0716119 1.7147177 47.25
-0.099001817 2.0428278 1.7310802 52.333332
0.054492127 2.0206676 1.7248576 51.599998
0.23817885 1.9995022 1.7418137 52.400002
0.3603324 1.9862931 1.7116406 50.799999
-1.5607526 2.2140386 1.7053186 24.75
-1.4964434 2.2092941 1.7369889 26
-1.2231772 2.1745458 1.6885535 48
-1.1158342 2.1604412 1.7448792 46
-0.96742725 2.1404099 1.7649037 53.5
-0.86189723 2.1305532 1.6591415 47
-0.71727324 2.1173673 1.7763747 48
-0.05212608 -1.3591512 1.8127636 87.5
-0.75636584 -1.2931718 1.8016282 95
-0.65324157 -1.2769219 1.8036288 94
-0.51649505 -1.2614876 1.8085936 83.833336
-0.35653573 -1.2446617 1.813341 76.75
-0.20669086 -1.2826852 1.8149959 76.666664
-0.069979317 -1.2751398 1.8165349 83.333336
0.036803138 -1.3219864 1.8111972 107
-1.2669133 -1.0861219 1.801602 76
-1.0761795 -1.1456227 1.8006928 85.5
-0.97671568 -1.1412404 1.8055108 90.400002
-0.79671651 -1.1043197 1.8102001 85.333336
-0.65821028 -1.1382833 1.8060881 81.25
-0.53419793 -1.1269745 1.8126866 79.428574
-0.37226686 -1.1204699 1.8109728 60.857143
-0.22714949 -1.1200804 1.8152848 64.25
-0.097129092 -1.1511157 1.8204554 77
-1.6067739 -0.94144356 1.8014904 68
-1.4629475 -1.0098354 1.8023301 75.333336
-1.3236924 -0.93422967 1.8044335 75
-1.1172929 -1.0106651 1.8053875 88.75
-1.0033596 -1.0106694 1.8117416 89.5
-0.81965637 -0.95534068 1.8064194 84.800003
-0.65411991 -0.98780662 1.8089874 65.625
-0.51419151 -0.98774576 1.8074937 56.5
-0.38918638 -0.96145618 1.8127265 45.375
-0.25081593 -0.99187398 1.8138841 43
-1.7382643 -0.77750427 1.800527 73
-1.538312 -0.85179156 1.8050551 77.666664
-1.4117162 -0.8188796 1.8045784 68
-1.263412 -0.80117196 1.8143188 80.333336
-1.132147 -0.84049362 1.8095953 80
-1.014257 -0.82654113 1.8108569 73.5
-0.84933287 -0.81956148 1.8066475 81
-0.68231094 -0.82725823 1.8115218 75.599998
-0.51904213 -0.82836628 1.8125429 62.799999
-0.39585549 -0.83387387 1.8129812 57.200001
-0.27779251 -0.85337311 1.8171144 49
-1.6676698 -0.64526343 1.8013786 72
-1.5734653 -0.69928366 1.807613 71
-1.4476044 -0.67012042 1.8117981 80.5
-1.2758359 -0.65119416 1.8100768 67.333336
-1.1192455 -0.64639837 1.8097292 59.599998
-0.97156709 -0.69772816 1.8090334 71.25
-0.7992115 -0.67972517 1.8124219 83.166664
-0.68071085 -0.68792105 1.8131763 77.625
-0.51834106 -0.67241198 1.8148544 69.400002
-0.38372222 -0.70739585 1.8146567 63.333332
-1.700648 -0.53661454 1.8071593 76.5
-1.5775459 -0.55141199 1.8115505 71.25
-1.4098169 -0.4749147 1.8142402 79
-1.2551383 -0.49896041 1.8070627 58
-1.131416 -0.52772057 1.8169136 61.25
-0.95534843 -0.50482583 1.8110619 68.75
-0.83892906 -0.53751326 1.8128554 86.777779
-0.68713439 -0.52908373 1.8146956 84.875
-0.54155773 -0.51964951 1.8207321 82.333336
-0.41676855 -0.52960646 1.8206395 76
-1.8066652 -0.44235018 1.8015686 60
-1.7056274 -0.39425245 1.8118182 73.333336
-1.581647 -0.39367965 1.8165307 76.666664
-1.4371674 -0.32889625 1.8159866 87
-1.2824984 -0.34419346 1.8126997 75.5
-1.1377753 -0.38234064 1.8172485 81
-0.99384153 -0.37700862 1.8151085 80.199997
-0.81800139 -0.37128773 1.8174922 83.63636
-0.68956953 -0.37696889 1.822343 80.571426
-0.53620154 -0.37072691 1.826216 78.285713
-1.834707 -0.27565485 1.8066033 75
-1.7143991 -0.22958814 1.8154885 84.25
-1.5618877 -0.26386434 1.8221216 89
-1.4587489 -0.18134381 1.8194753 94.5
-1.3034599 -0.21247411 1.8156635 77.75
-1.1150687 -0.24832387 1.8172522 78.800003
-0.95156813 -0.21458772 1.8188679 83.199997
-0.83446902 -0.23174648 1.8223178 77.85714
-0.67005795 -0.2211597 1.8261952 78.375
-0.5315845 -0.21380836 1.8268703 76.25
-2.1870253 -0.06160143 1.8030158 84.666664
-2.023258 -0.049892239 1.8107839 81.5
-1.8965726 -0.10506039 1.8113389 79.5
-1.7228907 -0.10057806 1.8154883 85
-1.5513996 -0.08718013 1.8241239 91.333336
-1.3847327 -0.055080216 1.8202087 87.666664
-1.2428694 -0.080439053 1.8210781 76.5
-1.1214582 -0.076819323 1.8215979 77.428574
-0.96228009 -0.061090436 1.8211198 79.833336
-0.83053952 -0.076294564 1.8257267 77.818184
-0.67750376 -0.079440482 1.8308891 79
-0.55025119 -0.049395189 1.8349169 78.75
-2.1900172 0.098580599 1.8116716 84.5
-1.9854245 0.079836622 1.8135847 78
-1.8729725 0.059682641 1.8125597 77
-1.7219759 0.046735901 1.820037 74
-1.5524633 0.081400529 1.830412 89.5
-1.3955883 0.085300624 1.8238649 90.666664
-1.2635629 0.06350062 1.8232216 78.333336
-1.1233954 0.09258417 1.8277067 82
-0.96827489 0.094287865 1.8288729 77.800003
-0.83540833 0.084080175 1.827626 80.800003
-0.68012857 0.085725307 1.8338395 79
-0.55588198 0.073256075 1.8302972 77.5
-2.1917665 0.22196412 1.8087935 83.5
-2.0017259 0.22195281 1.8157554 75.666664
-1.8507906 0.21907155 1.8208472 69
-1.7279614 0.20671232 1.8215532 73
-1.5561733 0.25548062 1.8341541 85.666664
-1.4041351 0.23002814 1.8356978 97
-1.2817477 0.21858372 1.832478 89.75
-1.1120341 0.23227498 1.8304813 82.199997
-0.9778375 0.2250651 1.8315699 77.75
-0.82591575 0.2274819 1.8320895 80.63636
-0.68822587 0.23674487 1.835776 78.75
-0.55460054 0.19937368 1.836381 86.25
-2.0003982 0.39898431 1.820188 77.333336
-1.8557026 0.3904193 1.8223374 74.5
-1.7303027 0.37044606 1.8250083 68.666664
-1.546937 0.40562525 1.8342768 79
-1.4020666 0.37555763 1.837276 95
-1.2951304 0.39477575 1.840198 93
-1.1253953 0.38823056 1.8352367 74.666664
-0.98417872 0.36058632 1.8355843 75.800003
-0.81942999 0.3830941 1.8357936 76.555557
-0.66962242 0.37369362 1.8398663 79.14286
-0.54142988 0.37068596 1.8426956 76.75
-2.1491723 0.45549119 1.8165785 80
-2.0134752 0.55230296 1.8241338 80.5
-1.8311714 0.54313999 1.8313993 83
-1.7284943 0.53788888 1.8313051 82.666664
-1.546479 0.53431028 1.8358524 82
-1.3943881 0.52442998 1.8396282 87.666664
-1.2921987 0.57992661 1.8477148 84
-1.1313238 0.52394402 1.8403554 77.75
-0.96319038 0.53008062 1.8428948 75.14286
-0.82148647 0.51671684 1.8410047 77.166664
-0.69135177 0.51939148 1.8424805 77.14286
-0.51405323 0.54625285 1.846217 76.75
-2.1403286 0.64929473 1.8161513 84
-1.9987535 0.66745114 1.8224362 85.5
-1.8679767 0.65870321 1.8434987 58.5
-1.7545846 0.68251872 1.8327434 83.5
-1.5440277 0.62957335 1.8406197 83.5
-1.4322468 0.68901938 1.8448211 84.333336
-1.2941494 0.70870727 1.8472672 86.333336
-1.1139064 0.65581167 1.8495424 92.75
-0.95588064 0.68157262 1.8429533 74.199997
-0.82163638 0.68004262 1.8450814 76
-0.68006748 0.6736843 1.8472023 72.727272
-0.52947652 0.68190557 1.8495961 75.25
-2.1294765 0.84969079 1.8209161 78
-1.992785 0.82440007 1.828851 83.5
-1.8793813 0.83356214 1.8293625 86.666664
-1.7428292 0.86129105 1.836048 87
-1.6000898 0.78843403 1.8402368 83.5
-1.4317467 0.82272625 1.8441975 86.75
-1.2698154 0.85882765 1.8500466 83
-1.1059405 0.78192586 1.8553649 88.333336
-0.98598146 0.84028798 1.8565357 88
-0.81039202 0.82876617 1.8500754 77.599998
-0.66830856 0.83477408 1.8551601 80.5
-0.5413118 0.82042599 1.8536409 73
-0.43347371 0.83895236 1.8561915 62.666668
-1.906258 0.97354656 1.8310174 84.333336
-1.7651612 1.0162835 1.8439568 83
-1.574424 0.95517242 1.8435978 76.5
-1.4265419 0.99113673 1.8458322 87.666664
-1.2977287 0.9911111 1.8509849 81.333336
-1.1071104 0.98199809 1.8558571 83
-0.97248828 0.96840101 1.8592006 82.25
-0.84166598 0.97652036 1.8618425 87.333336
-0.68893027 0.95635957 1.8610659 87.75
-0.52929276 0.96980667 1.8614756 81.800003
-0.41043982 0.99905556 1.8678794 81.333336
-2.1131206 1.0561301 1.826816 77
-2.0076456 1.0831141 1.8265117 85
-1.8519722 1.1216121 1.8347783 80
-1.6858953 1.0758803 1.8370019 80
-1.5866762 1.1107966 1.8415314 78
-1.4402276 1.1367501 1.8491236 85.333336
-1.2856841 1.1638123 1.8523697 84.25
-1.1231586 1.1711535 1.8597869 76
-0.98005563 1.1250175 1.8648964 68.599998
-0.82151026 1.1039995 1.86318 76.5
-0.65139461 1.1079177 1.8652374 82.166664
-0.55191731 1.1330314 1.8694156 77.25
-0.37096995 1.1235602 1.8756046 76
-0.29192972 1.1846917 1.8772627 70
-2.0372381 1.2780765 1.8330719 74.5
-1.8875721 1.2667727 1.83781 79
-1.7677147 1.2470138 1.8437361 72.5
-1.598042 1.2814627 1.8431625 80.5
-1.3991613 1.3053887 1.8533815 78.666664
-1.2816843 1.2856282 1.8564981 84
-1.1261326 1.3330305 1.8769883 55
-0.9667778 1.266034 1.8782705 37
-0.8587991 1.2870969 1.8822531 41.400002
-0.68070799 1.2533249 1.8661592 69.25
-0.51228654 1.2870475 1.8724961 72
-0.37108988 1.3082584 1.875864 73
-0.24731725 1.2856534 1.8782885 65.5
-2.009268 1.4981704 1.8431562 80.5
-1.8427403 1.4060392 1.8427612 76
-1.7421339 1.4494212 1.8445957 73.5
-1.5536938 1.4798048 1.8529334 76.5
-1.4059398 1.4870847 1.8579811 73
-1.2814804 1.4270487 1.8553938 80.599998
-0.93650568 1.4281323 1.8940717 57
-0.8027283 1.4373357 1.8914798 54.400002
-0.61759067 1.418804 1.8689367 70.5
-0.51638418 1.4498608 1.8735644 72.5
-0.39284876 1.4339005 1.8746902 63.666668
-0.21939209 1.4268554 1.882416 70.199997
-0.12718371 1.4944075 1.8848699 67
-2.3083463 1.5890968 1.8470153 51
-1.8234317 1.5503139 1.8586028 61
-1.7057922 1.6205597 1.8547047 75
-1.2698971 1.6015561 1.8625296 73.5
-1.1616397 1.5680856 1.8755935 80
-0.96186256 1.5527377 1.8951269 76.333336
-0.79766148 1.5894815 1.8742666 60.799999
-0.68961656 1.5514607 1.8694123 63
-0.48183429 1.5889574 1.8768538 70
-0.36753798 1.5554785 1.8784515 68.666664
-0.23837772 1.6095291 1.8818547 67.800003
-0.072212331 1.5973245 1.8874972 66.25
-2.3815966 1.7361927 1.846589 74.666664
-2.0262132 1.7336226 1.8487929 67
-1.8487409 1.6993867 1.8511618 78
-1.7233226 1.7177736 1.8524185 77
-1.5471934 1.6835617 1.85473 74
-1.397512 1.6753211 1.8597921 72
-1.2538482 1.6632414 1.8686069 73
-1.1615052 1.7376188 1.8668655 71
-1.034479 1.6665068 1.8684984 63
-0.77645946 1.7548466 1.8800088 63.5
-0.65574479 1.7287678 1.8790014 62.799999
-0.38522717 1.7234933 1.887766 49
-0.24748571 1.7342016 1.884006 67.5
-0.100615 1.7361183 1.8882862 70.599998
0.054042846 1.746516 1.8933494 64.5
-2.495542 1.8230985 1.8447074 77
-2.3139522 1.8915217 1.8487271 71.5
-1.7396305 1.8763468 1.8627692 78.25
-1.4376602 1.9089476 1.8796822 47
-1.2501694 1.8552881 1.8701926 66
-1.1265588 1.8907951 1.8733839 65
-0.94947296 1.8494049 1.8750211 62
-0.85532963 1.8137708 1.8725995 54
-0.64624161 1.893705 1.8807114 65.75
-0.54453456 1.8969911 1.8819189 68
-0.32693899 1.8997015 1.8838133 63
-0.21099846 1.8680573 1.8857578 66.800003
-0.057087414 1.8792776 1.8884363 65.599998
0.087723128 1.8720204 1.8906155 68
0.17575197 1.8945436 1.8935302 73
-2.3701315 2.0402386 1.8519088 77
-2.0290935 1.9830976 1.8413566 33
-1.8703692 1.9541688 1.8589023 73
-1.687067 2.0043042 1.8629111 71
-1.6275815 2.0932806 1.8661832 71
-1.2103125 2.0636687 1.8728384 65
-1.1012264 2.03983 1.8755503 66.333336
-0.80653429 2.0119548 1.8790905 59
-0.53692132 2.0577152 1.871672 64.199997
-0.41446543 2.0203264 1.8673978 59.5
-0.20266587 2.0204787 1.8696654 63.5
-0.049869172 2.0072002 1.8650364 63.400002
0.072121143 2.0127361 1.8576627 62.25
0.22989157 1.984699 1.8646828 60.599998
-3.0231256 2.2051988 1.861008 70
-2.8406835 2.2253156 1.8560187 77
-2.6684027 2.1644645 1.8510417 68
-2.4662051 2.1078825 1.8508487 80.5
-2.2947395 2.1762254 1.8530967 74.5
-1.8630998 2.2178512 1.8570989 13
-1.7066381 2.154006 1.8640782 11.5
-1.6154758 2.1844366 1.8475531 7
-1.3973776 2.1278131 1.8612484 3
-1.3027945 2.1050289 1.8742288 57
-1.0105883 2.1382277 1.8437303 60
-0.64645982 2.1047454 1.8196386 44
-3.0329778 2.3479071 1.8521835 65
-2.968549 2.2661257 1.8559591 66
-2.3387854 2.333735 1.8617806 68.5
-3.1946564 2.5202851 1.8535239 65
-3.0594463 2.4865713 1.8586663 63
-2.6428981 2.4982355 1.8632225 65
-2.4853179 2.413388 1.8598262 66
-2.3183227 2.4275184 1.8591676 35
-3.2302961 2.6560986 1.8653523 65
-2.9849577 2.6299336 1.8617455 58
-2.8190103 2.5849857 1.8648993 61
-3.4624498 2.783006 1.8671943 66
-3.0746739 2.7772903 1.8621786 60.5
-3.7250972 2.9191647 1.8621441 62
-3.1983054 2.9415512 1.8730539 65
-3.0128531 2.9218669 1.8754765 65
-2.7839932 2.9726255 1.8717209 60
-2.6114242 2.8650739 1.8764516 4
-3.6558306 3.0740895 1.8721236 63
-3.231389 3.0667615 1.8742257 64
-3.0054972 3.0440719 1.8729872 59
-3.9323511 3.23648 1.861533 69
-3.812999 3.2300057 1.8633498 63
-3.4666419 3.2265446 1.8720545 62
-3.0813665 3.2138991 1.8766069 59
-4.1330485 3.420718 1.8788797 57
-3.9751098 3.3571827 1.8653978 51
-3.7344217 3.3999076 1.8622302 52
-3.1844885 3.398278 1.8844186 60
-3.0095184 3.3497202 1.8892258 63
-4.2394834 3.4577799 1.8744739 58.5
-4.146657 3.4883533 1.8731087 57
-3.6994975 3.5674524 1.8817409 59
-3.2242839 3.5213885 1.8800107 64
-4.680614 3.6996524 1.8712505 40
-4.4543676 3.6158366 1.870176 48.5
-4.3497152 3.6324728 1.8724493 53
-4.831707 3.8538945 1.8801419 27
-4.7446795 3.790669 1.8656763 33
-3.9661813 3.8005266 1.8826984 41
-3.4908371 3.7505364 1.8919681 56
-5.1242895 4.0195913 1.8728818 31
-4.2310338 4.0113955 1.8899065 43
-4.0659566 3.9414129 1.8779107 43
-3.7696872 3.975807 1.8799337 22
-5.3045235 4.1396365 1.8822809 29
-4.3586941 4.0622253 1.8851317 40
-4.27843 4.0866785 1.886333 43.5
-3.7523646 4.1401505 1.8933223 23
-4.5847092 4.2731247 1.8847402 40
-4.4289055 4.2721748 1.8840121 39
-4.7931738 4.381721 1.8855075 31
-4.0832319 4.4355779 1.8969787 38
-4.026351 4.4569836 1.8902982 39
-4.9815154 4.5752482 1.896926 33
-4.9092231 4.5176754 1.8906258 39
-4.1744423 4.6354494 1.8922082 38
-4.4104691 4.7528343 1.9049742 39.5
-5.4712739 4.9286265 1.8916684 34
-5.2987528 4.8044105 1.8946525 35
-4.4821453 4.8174944 1.9031874 41
-4.331192 4.821908 1.8991386 39
-4.7598047 5.0802536 1.9099654 31.5
-4.528801 5.0354924 1.900797 34
-4.9260893 5.1907206 1.9004914 35
-5.0988827 5.3903666 1.9136888 36
-5.1646333 5.4464068 1.916833 37
-5.4879913 5.7268739 1.9084929 28
-5.7005353 5.9103909 1.913432 29
-5.8641491 6.9875431 1.8879451 56
