# .PCD v0.7 - Point Cloud Data file format
VERSION 0.7
FIELDS x y z intensity
SIZE 4 4 4 4
TYPE F F F F
COUNT 1 1 1 1
WIDTH 65
HEIGHT 1
VIEWPOINT 0 0 0 1 0 0 0
POINTS 65
DATA ascii
1.1328993 1.9282163 -0.74916583 5
-0.20519559 2.0968373 -0.66507334 25
-0.088631794 2.0803413 -0.66148412 31.200001
0.24234238 2.054441 -0.61835235 94
0.36010537 2.047039 -0.65125823 37.333332
0.45802444 2.0246968 -0.6172449 98
0.73993331 1.9924096 -0.64881355 21
0.84434646 1.9821857 -0.62279481 61.333332
0.95975745 1.9758799 -0.65129274 50
-0.3230516 2.1247582 -0.62002856 92
-0.22013584 2.1124792 -0.65020931 51.857143
-0.087678172 2.1029131 -0.61852199 91
-0.11619464 -1.3181524 -0.45354918 11
0.078040801 -1.3356985 -0.46129498 10.666667
0.28867549 -1.3432226 -0.45474446 8
1.1117096 0.73589873 -0.45793524 72
1.1575885 1.1635585 -0.5455035 61
1.1731842 1.3043761 -0.52755362 58.400002
-0.037080195 1.4242368 -0.46003944 0
1.1770489 1.3693949 -0.52361256 59
0.14213566 1.5758375 -0.51416147 7
1.1983795 1.5424502 -0.4861697 52
1.2033858 1.5467467 -0.53254986 48.75
0.57128543 1.7909164 -0.46968672 3
1.2221096 1.7245911 -0.47100732 56.666668
0.099926442 1.8122334 -0.49637955 4
0.57017773 1.8018371 -0.50262213 3
1.1528434 1.9453604 -0.48188844 83
1.2413405 1.8258843 -0.50463355 65.5
-0.45493373 2.0830791 -0.5291242 5
-0.25651079 2.0941672 -0.48891917 103
0.14817591 2.0504036 -0.48585895 83
0.22164088 2.0408711 -0.58230513 107
0.38622251 2.0321584 -0.50684589 93
0.57273531 2.0099185 -0.52045727 60
0.67006248 1.9985741 -0.50753582 89.5
0.81649214 1.9787275 -0.56368661 42.25
1.0154351 1.9608926 -0.59942979 103
-0.39116815 2.1305637 -0.50938928 80.07692
-0.24089961 2.1169612 -0.54529136 91.833336
-0.13055271 2.1020954 -0.5727098 88.333336
0.24676993 -1.3539891 -0.42895782 11
-0.17512004 -1.3041617 -0.41600859 14.75
-0.096045218 -1.3189209 -0.42005557 10
0.017492335 -1.3346299 -0.4243921 12.5
0.29916257 -1.2385157 -0.40759879 7
0.30744615 -1.2432148 -0.42202848 7
0.3164835 -1.1904655 -0.42688116 6
1.0933163 0.5853585 -0.42316666 15
1.1014154 0.6950627 -0.4029465 13
1.1193681 0.81258148 -0.4186331 38
-0.11305195 1.4719057 -0.41217104 13
0.023302119 1.3790486 -0.42342785 3
1.1970581 1.4986179 -0.42854065 54
-0.2785227 1.6055235 -0.43292436 9
-0.041367073 1.520753 -0.44373724 9
-0.48465735 1.6619281 -0.43544286 1
1.225072 1.7422972 -0.4340435 51
-0.50990433 1.8175682 -0.4310396 3
1.1755865 1.9333847 -0.42745414 52
1.2465074 1.8796387 -0.42123538 70.5
0.41738248 2.0309772 -0.41269091 86
0.5108124 2.0140693 -0.42882383 62.75
-0.56097299 2.1383805 -0.44253257 54.25
-0.37717038 2.1174119 -0.42200017 66
