# .PCD v0.7 - Point Cloud Data file format
VERSION 0.7
FIELDS x y z intensity
SIZE 4 4 4 4
TYPE F F F F
COUNT 1 1 1 1
WIDTH 1207
HEIGHT 1
VIEWPOINT 0 0 0 1 0 0 0
POINTS 1207
DATA ascii
-0.65886438 -1.3864241 -0.18750569 5
0.038781226 -1.3698447 -0.17566565 7.5
-0.6022411 -1.3135945 -0.19285119 6
-0.54640204 -1.2575369 -0.17544268 5.8571429
0.087612271 -1.3275554 -0.15864986 8
-0.46870637 -1.1653402 -0.16720819 5
-0.42473319 -1.1078184 -0.17703497 5.75
-0.20790911 -1.0992149 -0.17934734 5.5
-0.13214667 -1.1610202 -0.17936909 6
0.26189157 -1.1253332 -0.16642399 5.3333335
-0.32459483 -1.0078176 -0.17334798 7.75
-0.27164796 -1.0447272 -0.17587875 7.3333335
0.44088399 -0.92299712 -0.15913437 12.75
0.4510296 -0.90955859 -0.18193991 16
0.50523531 -0.83711004 -0.18255951 13.285714
0.10087569 -0.67970604 -0.15772201 4
0.67297 -0.64145094 -0.1672955 13.666667
0.72371799 -0.573843 -0.17282224 13
0.78230363 -0.50602919 -0.18149637 12.166667
0.86748028 -0.40498322 -0.17327271 10.4
0.92457932 -0.33114573 -0.16945113 11
1.0230774 -0.20162709 -0.17489536 12.333333
1.1131408 -0.086262964 -0.17639673 7
0.98416966 0.13006105 -0.15219508 1
1.2645674 0.10899627 -0.1805799 17
1.3628869 0.21288162 -0.17440632 47.5
1.5566797 0.44821164 -0.16001216 54
1.6248239 0.529998 -0.15695281 50
1.5478404 0.71003634 -0.18452734 2
1.7409868 0.67998362 -0.17221396 54
0.57374811 0.88899744 -0.1620581 1
1.6724463 0.80979669 -0.17269284 61.5
0.3793042 0.98938715 -0.17540731 0.40000001
0.57486576 0.90089869 -0.19436096 1
1.3227408 0.93227762 -0.18698277 2
1.4319446 1.0398523 -0.16346219 66
1.5265769 0.93062305 -0.18464994 65.5
0.328814 1.1498958 -0.1748503 1.3333334
1.1179988 1.2976582 -0.18379755 82
0.19830786 1.4626787 -0.16320264 3
0.38387799 1.6721709 -0.19654298 6
0.411623 1.8613316 -0.16518764 57
0.25216708 1.9968338 -0.15845118 85.5
-0.039048512 2.2275202 -0.18960531 78
0.0039752247 2.1965337 -0.17589973 87
-0.088490307 2.2821681 -0.17248975 82
-0.45462129 2.5763679 -0.16723518 34
-0.6156553 2.7065332 -0.16876076 28
-1.5371642 4.3555245 -0.17185524 57
-1.4238472 4.9872832 -0.17802463 75
-0.77841711 -1.5187449 -0.040194876 32.333332
-0.71712005 -1.5650102 -0.026710238 25.25
-0.91647881 -1.3800606 -0.029095862 10.5
-0.84511304 -1.465433 -0.036106888 10.333333
-0.6793133 -1.4082193 -0.11668101 12.25
0.045782935 -1.3882079 -0.017811282 9.25
-0.61147135 -1.3245106 -0.11625565 6
-0.54613453 -1.2583556 -0.11543237 23.75
-0.038150851 -1.2407455 -0.13504481 6
0.10340552 -1.3127239 -0.083798125 9
0.16414967 -1.2556878 -0.081782289 5.25
-0.48705819 -1.1782558 -0.11997168 6
-0.39071399 -1.0597236 -0.1000353 7
-0.19129817 -1.1108609 -0.11355984 5.3333335
-0.10438578 -1.1703713 -0.11413299 5.25
0.25653568 -1.1505315 -0.10783204 10.5
-0.34246764 -1.0091236 -0.11921202 7.1428571
-0.2790257 -1.0360472 -0.12341818 7
0.2209069 -0.91935295 -0.092516311 0
0.39431137 -0.97120053 -0.11517784 9
0.45392996 -0.90991867 -0.14572415 9
-0.097624443 -0.79977399 -0.095069394 2.8
0.11842889 -0.83772033 -0.090708323 2.75
0.19749276 -0.78453434 -0.091926239 2
0.52205628 -0.82581276 -0.1274517 12
-0.16592243 -0.71752262 -0.097596534 4
-0.080953211 -0.658005 -0.094013378 5.181818
0.24533413 -0.62957239 -0.094833866 2.75
0.3788254 -0.66547877 -0.096826799 3
0.50742656 -0.67124283 -0.10316776 0.5714286
0.64444005 -0.66841543 -0.12537442 11
-0.024737373 -0.54948455 -0.095367171 7.8000002
0.056515291 -0.52194291 -0.098774217 3.75
0.16333686 -0.46063036 -0.10336817 5
0.35916063 -0.51859206 -0.098437063 3.7142856
0.52398819 -0.53257072 -0.096954271 1.8
0.72426009 -0.56965256 -0.1260166 10.75
0.79660171 -0.49252665 -0.12586844 10
0.10722191 -0.40037885 -0.097995631 5.1176472
0.21015498 -0.37697968 -0.10222018 3.0769231
0.42963499 -0.41110069 -0.098933294 2.5999999
0.51986855 -0.37706792 -0.1016379 2.6666667
0.65141749 -0.36433545 -0.10077166 1
0.85918146 -0.41117904 -0.13230671 12.25
0.91721964 -0.3251237 -0.12230773 6
0.55688643 -0.25621247 -0.096959509 0
0.61820459 -0.2647917 -0.10592861 1
0.79951018 -0.22122461 -0.10637137 0
1.0037133 -0.22265375 -0.11897577 7
0.4917101 -0.044059929 -0.11073991 3
0.70483714 -0.10547414 -0.1027173 0.40000001
0.83197862 -0.080722027 -0.10474396 0.66666669
0.95251876 -0.074462108 -0.1045853 1
1.1140156 -0.091563888 -0.13602453 19.200001
0.49994776 0.080821708 -0.10645369 4.4545455
0.66934693 0.092800274 -0.10743969 2.3333333
0.871786 0.11693959 -0.11090219 1
0.95130014 0.087759852 -0.11572631 1
1.1856632 0.078662299 -0.11627615 3
1.253334 0.10789883 -0.12516764 33.5
0.58088613 0.18957329 -0.10871986 4.3333335
0.67147321 0.22617154 -0.10943001 2.75
0.86255985 0.17754601 -0.11215428 1
1.166926 0.20134842 -0.12882993 2
1.3560991 0.20213994 -0.14862941 11
0.69781399 0.32422715 -0.10556922 2.5
0.77786285 0.4123131 -0.11335431 1.75
1.0409722 0.33653149 -0.11699987 6
1.1999944 0.4437415 -0.12319014 11
1.4255563 0.3111892 -0.13035549 6
0.87829351 0.52023995 -0.11664308 2
0.92846245 0.50107181 -0.12436498 6
1.1492895 0.50849932 -0.11505053 5
1.2857414 0.46614185 -0.11964891 13
1.6784061 0.59588295 -0.1360136 46
0.86556894 0.7364372 -0.12476522 35
0.97082883 0.71327406 -0.11090613 28.666666
1.0624026 0.62706167 -0.13515647 1
1.335228 0.65006119 -0.13069041 3
1.7181711 0.68136245 -0.11964545 4
0.58186734 0.87909716 -0.070705913 1.6666666
0.71454948 0.85875225 -0.1207855 21
0.87775856 0.83249444 -0.1275122 4.25
1.0166663 0.78676063 -0.12666482 16
1.1088074 0.84524411 -0.12476606 17
1.6217008 0.8798914 -0.13414678 66.5
0.3395727 1.0239596 -0.14191771 0
0.5431999 0.97610831 -0.059964512 1.0769231
0.80285054 0.9404552 -0.13356206 2.5
0.98373747 1.0004381 -0.05931564 17.6
1.1844388 0.94789064 -0.12930939 18
1.4599814 0.9950099 -0.1367196 1
0.26696461 1.1823392 -0.063416071 0.5
0.36485571 1.1362503 -0.072490595 1.2
0.45350027 1.0547287 -0.002702211 1
1.1111428 1.1422632 -0.13482089 5
1.2820666 1.104362 -0.069412664 10
1.3797336 1.0873244 -0.14004965 89
0.11762367 1.3377662 -0.13193282 13
0.26614213 1.2516295 -0.13361655 0
1.1149083 1.2855091 -0.1315698 13
0.076147497 1.4095074 -0.1318126 30
0.16141625 1.4132605 -0.14525501 6
0.26012057 1.6916769 -0.14234437 3
0.37028778 1.7797121 -0.13258731 8
0.30612689 1.9498348 -0.13169271 87
-1.3225571 2.0206389 -0.012953763 72
0.12414674 2.0971675 -0.072465993 77
0.16602902 2.05689 -0.061743353 55
-0.0098406253 2.2091503 -0.12763089 82
-0.16454491 2.3172927 -0.095884897 43
-0.11635924 2.2991986 -0.078570262 75.75
-0.26272038 2.4297678 -0.10605068 1
-0.51738852 2.6318369 -0.13251884 28
-0.65002465 2.7286754 -0.068308353 22.799999
-1.243116 4.6443486 -0.12744939 1
-1.7102073 5.0659418 -0.040256612 16.799999
-1.6722993 5.1140494 -0.012320225 19
-1.4071714 5.4591131 -0.0023208307 0
-0.53804928 -1.7128671 0.12241443 61.142857
-0.20856293 -1.705034 0.12410306 63
-0.77153051 -1.5220106 0.063118905 41.285713
-0.69521338 -1.5889665 0.042155419 30.799999
-0.10021875 -1.5686144 0.088225849 39.857143
-0.94451207 -1.3824654 0.083888374 15.5
-0.8520245 -1.4589006 0.067760207 21.631578
-0.025145708 -1.4775869 0.072186761 22.666666
0.039399549 -1.3907422 0.03872725 9.5
-1.1094772 -1.2530725 0.11361308 13
-1.0177519 -1.3246177 0.09872777 11.25
0.11612086 -1.3085226 0.0065112067 8
-1.2409378 -1.1468908 0.13824886 15
-0.93928903 -0.72873831 0.072770074 15.125
-1.0698216 0.12681475 0.085519828 6.25
-1.038711 0.047252204 0.070583284 3.75
-1.1513472 0.2160746 0.13301599 3.3333333
1.0621234 0.57136047 0.0038217558 5
0.58364838 0.89981282 0.090290539 6
1.6134592 0.8743366 0.090672903 150
1.6656955 0.87048966 0.093196653 17
0.4127281 0.99582362 0.093920909 11.625
0.50836062 0.96950531 0.052734051 1.1666666
1.4759731 1.0128804 0.1102562 72.5
1.5518271 0.95340413 0.097001523 65.333336
0.24121673 1.1141083 0.10819653 1
0.35324359 1.0885237 0.077565156 1
1.3153398 1.1354516 0.1014944 85
1.4174712 1.0588905 0.096265398 79
1.1295245 1.2962114 0.074882016 63.142857
-1.5165204 1.7833146 0.12125241 80
0.51518708 1.7948706 0.087092124 53
-1.4073035 1.9195091 0.10657895 70.833336
0.37442169 1.908679 0.099542446 79.333336
0.47122192 1.826333 0.060696267 84
-1.3067909 2.047991 0.069868401 63.333332
0.14075677 2.092495 0.065452717 81
0.20676525 2.0407054 0.0192909 57.666668
-0.0099770604 2.2227137 0.1446389 72
0.058546823 2.1590965 0.090816088 78.428574
-0.25757724 2.344856 0.069677852 1
-0.079808511 2.2830882 0.14506319 82
-0.38446155 2.5299826 0.0700657 30.166666
-0.27646369 2.4523158 0.013857151 17
-0.50798231 2.6272247 0.13953842 24
-0.62662524 2.7126217 0.0050675226 28
-1.7542222 5.058001 0.030712258 14
-1.6589463 5.10673 0.093987338 41
-2.229028 5.4970636 0.081632785 0
-0.35366565 -1.8247865 0.23951177 55
-0.29558101 -1.8093425 0.18969911 50
-0.6096893 -1.6529992 0.16395259 64
-0.55049026 -1.7031009 0.22663403 61.5
-0.44403648 -1.7943677 0.16662246 62
-0.20618252 -1.6986935 0.21649294 53.599998
-0.76391584 -1.5260944 0.26232406 48
-0.68053401 -1.5941564 0.21578364 66.36364
-0.097020939 -1.5657284 0.23202543 44.75
-0.94539171 -1.3787104 0.19016132 33.57143
-0.84995812 -1.4567791 0.24134777 38.5
-0.012985039 -1.4567965 0.21734458 59
0.039255109 -1.404476 0.26140499 9.5
-1.1113979 -1.2469673 0.22703381 17.75
-1.0164803 -1.324206 0.21573912 16.363636
0.11802959 -1.299636 0.25064242 11
0.18683071 -1.2139179 0.21170169 13.5
-1.2599986 -1.1249166 0.24864282 30.76923
-1.1835154 -1.1903404 0.23238973 12.25
0.26534531 -1.1223227 0.25344002 10.555555
0.31632611 -1.0643085 0.2515775 10.333333
-1.3964614 -1.0084224 0.27520227 54
-1.1541245 -0.96651012 0.2313472 15.5
0.40883037 -0.95051974 0.24535611 9.4666662
0.45150244 -0.90418029 0.21019584 11
-0.98334813 -0.76508915 0.22726515 10
0.50586736 -0.83028811 0.23544206 9.2105265
-0.94745284 -0.73060262 0.21933544 11.5
0.56958169 -0.74537683 0.19123453 12
1.2636763 0.10438456 0.20233667 49
-1.2179397 0.22497818 0.23531345 0
-1.1483762 0.23484619 0.19703119 4.6999998
1.3210659 0.17271121 0.21209735 46
1.3876684 0.25463527 0.24150673 45
-1.1628687 0.31260651 0.23819533 4.5
1.4665684 0.34793982 0.2532647 40
1.5036943 0.38309017 0.18682134 12
1.5669479 0.47102866 0.2318247 42.666668
1.6627536 0.58519763 0.24107283 44.5
1.7434576 0.68622828 0.24006066 52
-1.5044419 0.87876308 0.25912797 50
-1.4794183 0.88238317 0.26403946 46.5
1.641651 0.87020463 0.24592477 72.5
1.7169545 0.81781912 0.22191611 61.900002
-1.4464741 0.99820352 0.25406003 55
0.3895494 0.98025888 0.25692979 0.16666667
0.51735622 0.9972645 0.24090362 14.9
1.4677155 1.02469 0.2284655 74
1.5571878 0.9463073 0.23273888 74.599998
0.35991362 1.085336 0.26738992 6.5999999
1.299415 1.160211 0.2331692 73.5
1.3981838 1.0791079 0.21684818 69.833336
1.1381565 1.292115 0.23507483 63.799999
1.2255555 1.2230256 0.25168705 74.75
-1.6914886 1.5729378 0.27658632 87.666664
-1.5811654 1.706527 0.23701444 83.125
-1.4605769 1.8534204 0.20166762 69.416664
0.38934869 1.898087 0.22343625 83.777779
0.48165032 1.8223953 0.17808202 80.5
-1.3780574 1.9643043 0.27422228 62.333332
-1.2847949 2.0814731 0.18851861 47.5
0.25095516 2.0110404 0.23175642 72.5
0.30444229 1.9698819 0.24193436 81
-1.2728596 2.103502 0.23616934 8
0.018200021 2.1977201 0.21951437 72.5
-0.18201458 2.3298979 0.25393569 7
-0.0918203 2.2954051 0.2408915 82.5
-0.39761019 2.540113 0.2058875 30
-0.23437771 2.4250407 0.27665842 3
-0.55191463 2.6619675 0.22455689 26.5
-0.65000558 2.7431881 0.27530044 22.5
-1.6437964 5.0763874 0.2315892 75.5
-0.3673369 -1.823357 0.35719869 56.714287
-0.53188598 -1.7097654 0.38738507 55.57143
-0.43110275 -1.7892721 0.35810274 56
-0.24307418 -1.7423803 0.36300886 48.5
-0.79073119 -1.5026164 0.34217691 68
-0.65857399 -1.6043799 0.40071502 59.599998
-0.15195285 -1.6345046 0.40990281 52
-0.10410842 -1.5712523 0.35939154 57.833332
-0.94435614 -1.3773859 0.3720693 49.42857
-0.86060119 -1.4460829 0.34751964 57
-0.027742296 -1.4719882 0.3794488 62.666668
0.045290064 -1.3940549 0.41811523 9.5
-1.1126809 -1.2452463 0.35760099 27
-1.0168574 -1.319113 0.41692376 58.799999
0.10901713 -1.3152061 0.3785646 9.6000004
0.17157452 -1.2298989 0.37128842 9.333333
-1.23755 -1.137132 0.35761651 37
-1.193257 -1.1851716 0.3559064 11.333333
0.24596529 -1.1411176 0.36350727 10
0.31046018 -1.0592899 0.41672215 9.666667
-1.4023522 -0.97460669 0.34174654 26.636364
-1.2824199 -0.97456235 0.35265121 11.5
-1.1668785 -0.94533992 0.32684922 8
0.38024303 -0.97863734 0.36394969 9.227273
-1.5445067 -0.82121849 0.35295081 28.5
-1.3935908 -0.81350118 0.35043311 13.5
-1.2737322 -0.82475799 0.35258618 7.5555553
-1.1361156 -0.81171131 0.35423452 8
-1.0449709 -0.76206779 0.35454923 6
0.45077115 -0.89563996 0.318452 11
-1.5296545 -0.62691385 0.35180429 8
-1.4232037 -0.68168747 0.35162225 7.5999999
-1.2681111 -0.67208874 0.34956312 7.3076925
-1.1171241 -0.67182988 0.34896931 8.75
-0.99207735 -0.6981352 0.33083403 9.333333
-1.5209467 -0.50752056 0.34267616 9
-1.3888201 -0.52042758 0.34552991 8.1999998
-1.2938687 -0.52662104 0.3463521 20.5
-1.1524396 -0.56030416 0.33779776 10
-1.5192797 -0.39752233 0.33757606 13.5
-1.4212554 -0.40312633 0.34137675 9
-1.34778 -0.38737899 0.33816847 10
-1.5567921 -0.24684323 0.351713 10.5
-1.4379214 -0.018932849 0.43541986 4
-1.2667089 0.088972069 0.42377752 0
-1.2305269 0.24186474 0.37507486 0.75
-1.1947019 0.27612686 0.38493642 6.5
-1.1892941 0.32018691 0.39056194 6.8000002
1.5460043 0.44784617 0.32278121 44.5
1.6386218 0.56263971 0.37575901 42.5
1.6536168 0.5820536 0.30426717 44
-1.6940068 0.68046337 0.39103591 42
-1.5547487 0.67424208 0.41332722 24
-1.4614366 0.74294299 0.40855676 6.5
1.7594734 0.710352 0.37465382 42.666668
-1.6817781 0.82982516 0.34015399 50.75
-1.6141453 0.85561019 0.37201175 57.200001
-1.4753132 0.82470465 0.3729054 26.5
1.6243737 0.88834149 0.36556464 70
1.721796 0.8149032 0.38119194 64
-1.5055194 0.96176332 0.42713869 70
-1.4309934 0.9759829 0.35760215 50.166668
1.4723849 1.0172677 0.3700856 69
1.5558771 0.94540167 0.38532609 70
1.3045827 1.1623483 0.37824443 66.166664
1.39263 1.0872731 0.36988208 69.375
1.123934 1.3041855 0.35757178 57.700001
1.2317321 1.2219312 0.3949323 65.599998
-1.7719926 1.4738375 0.38169277 89.125
1.0026947 1.3942565 0.40398824 46.666668
1.0729408 1.3529881 0.356951 59
-1.6697564 1.5974206 0.36870337 89.25
-1.5706658 1.7201904 0.36499688 84.166664
0.62631267 1.736864 0.43404424 11
-1.4489317 1.8748627 0.38873366 47.714287
0.44074833 1.8628249 0.42588335 77
0.48359498 1.8256358 0.44084582 70.5
-1.3549423 2.0000777 0.39906573 68
-1.3204557 2.0329626 0.35639036 71.333336
0.14402388 2.0992789 0.43518084 70
0.23117979 2.0274098 0.36486977 76.285713
0.31653553 1.9643207 0.33551443 78
0.12442851 2.1156988 0.41183004 68
-0.096353553 2.3025312 0.33535665 89
-0.34672016 2.5022593 0.40623289 29
-0.26325312 2.4453819 0.3853054 2
-0.55336404 2.6603386 0.34305751 25
-0.71925449 2.7238846 0.4101606 3
-2.8335977 7.575181 0.43561095 7
-0.36262307 -1.8181285 0.51845366 53.666668
-0.6017369 -1.6538942 0.56338316 54
-0.51305711 -1.7263825 0.52236032 55.400002
-0.21576577 -1.7054594 0.51630867 49.25
-0.76302546 -1.5173898 0.52355289 57
-0.69436139 -1.5760607 0.50399822 55.75
-0.11199322 -1.5797005 0.5237028 54.599998
-0.97192734 -1.351233 0.50244945 71
-0.84636104 -1.4519753 0.55608457 59.125
-0.014333855 -1.4588612 0.51359308 49.25
0.052539643 -1.3728541 0.51802689 59.333332
-1.1066822 -1.2423333 0.48485911 59.625
-1.0351998 -1.3025961 0.5151366 41
0.11531736 -1.3025575 0.54012823 20
0.16745806 -1.2361031 0.51335818 35.5
-1.2221184 -1.1448535 0.53813308 41.799999
-1.1767136 -1.1816689 0.54897201 64.333336
0.25006101 -1.1371193 0.5205912 13.666667
0.30852336 -1.0618385 0.51033831 9
-0.94279474 -0.73364753 0.51935333 9
-1.7024843 -0.077742018 0.54517019 46
-1.3864689 0.014052503 0.53761744 2
-1.3228642 0.09787783 0.52863789 2
-1.2172593 0.16519079 0.450665 0
-1.1842773 0.252572 0.49821359 7
-1.1914049 0.32199842 0.45583797 8
1.7368765 0.6870603 0.46588731 38
-1.5617354 0.87181532 0.48194778 101
1.6904246 0.83924693 0.4883028 64.666664
-1.5154798 0.97252876 0.50301421 47.400002
-1.4101051 1.0216638 0.46233487 49
1.4700361 1.0173918 0.49345765 61.666668
1.5581743 0.94582778 0.50486046 61.333332
-1.4306418 1.0579895 0.46680307 51
1.3009149 1.1626159 0.50835478 62.714287
1.3874096 1.088714 0.50341815 65
1.14829 1.2915165 0.51703429 57.166668
1.2198882 1.2299371 0.53441787 59
-1.7643878 1.4890177 0.55383307 85
1.0124453 1.3993528 0.50750351 58.25
1.0590582 1.3637146 0.57602865 55.666668
-1.7149408 1.5450325 0.51889658 87.85714
-1.6464909 1.6357391 0.49831843 86
-1.5603106 1.7405593 0.52076566 80.555557
0.55614662 1.7706401 0.47592884 72.400002
-1.4432297 1.8909487 0.51193804 70.333336
0.40785256 1.8866295 0.54924673 69.199997
0.49277723 1.8252411 0.56084448 72.666664
-1.3442301 2.0224798 0.50385785 76
0.20835574 2.0507097 0.47866511 63
-0.0021987439 2.2329874 0.57194382 74
0.07441818 2.1680999 0.52689421 76.714287
-0.045422215 2.2699592 0.58886337 76
-0.35703531 2.5143924 0.50946879 27.5
-0.50143105 2.6300826 0.56456876 25
-0.41051394 2.5622008 0.52740359 27
-0.71769828 2.7305465 0.48083872 0
-2.9076195 7.4961758 0.55589026 67
-2.8798947 7.5009837 0.46650976 4
-0.34190008 -1.8270845 0.64403737 54.5
-0.50021964 -1.7232243 0.7268644 53.5
-0.42186633 -1.7889199 0.70186692 51
-0.22492169 -1.7146578 0.66357273 48.25
-0.77128112 -1.5129277 0.64876926 58
-0.67983508 -1.5854622 0.63730985 57
-0.10010739 -1.5561714 0.68959457 56.333332
-0.92589426 -1.386845 0.6563521 54.666668
-0.82640529 -1.4669132 0.68028468 53.666668
-0.015747625 -1.4519299 0.66408634 55
0.036151275 -1.3921436 0.67550635 62
-1.0809724 -1.2596623 0.70840847 62
-0.99977374 -1.3261161 0.68695354 56.333332
0.10021618 -1.311092 0.68058032 62
0.1665424 -1.2271951 0.67184615 51.666668
-1.2534875 -1.1213284 0.6304394 11
-1.1966941 -1.167366 0.65319133 71
0.23679794 -1.1463873 0.67115474 36.81818
0.3018595 -1.0562801 0.60810721 49
0.32368135 -1.0325511 0.61011523 52
-1.6853104 -0.76274425 0.74658608 53
-1.7436109 -0.67533875 0.72596258 150
-1.7454038 -0.087077349 0.68858963 82
-1.2633815 0.10177457 0.69312888 5.5
-1.2693263 0.20258801 0.7107147 14.75
-2.4009151 0.72191119 0.68389475 98
-2.3860915 0.73808724 0.73471308 97
-2.2691431 0.86824858 0.66165477 84.5
-1.5657663 0.89700937 0.69614893 33.5
-2.1355832 1.0179385 0.65891325 106.25
-2.0885353 1.0231892 0.68764031 150
-1.6817265 0.96422839 0.62912607 60.25
-1.543014 0.91722769 0.70251578 33.666668
1.3007802 1.1580296 0.60664517 62
1.1140282 1.3168026 0.64122283 54.857143
1.2327281 1.2142909 0.63857007 59
0.89538604 1.4949598 0.65685451 55
0.97408062 1.4320506 0.6832965 57.07143
1.060483 1.3604717 0.6812427 54
-1.7235924 1.5435692 0.64966142 80.199997
-1.6374381 1.6486875 0.63089514 79
0.71588796 1.642627 0.66856539 34.5
0.81899148 1.5660998 0.71310425 49.5
-1.5836363 1.7169585 0.67147958 83.75
0.57067484 1.7635739 0.70820141 63
0.65553814 1.6904987 0.7030912 54.833332
-1.4652503 1.8722796 0.71585572 86.5
0.38367069 1.9134678 0.67573768 66
-1.3761272 1.9842805 0.68958026 80
-1.3209009 2.0512953 0.67782813 73.666664
0.27652699 2.0006759 0.68265849 63.666668
0.32954574 1.9607329 0.64665592 67
-1.2651123 2.1174531 0.64076257 20
0.017210137 2.2202117 0.67219806 75.333336
-0.16939035 2.3554807 0.72961903 20
-0.098097034 2.3119195 0.6756022 69.5
-0.36030945 2.5143144 0.63327336 28
-0.529356 2.6549268 0.67089522 24.200001
-0.63798463 2.7417817 0.72412562 24
-2.8131151 7.6079154 0.61261863 63
-3.5088131 7.916111 0.710603 41
-0.34143856 -1.8271089 0.80545282 56
-0.51974642 -1.7092258 0.80317813 53.75
-0.44798583 -1.7680552 0.79636157 55
-0.23550546 -1.7244859 0.83836341 51
-0.7535181 -1.5108833 0.89527619 50
-0.66215807 -1.5908507 0.83632439 52.57143
-0.58897662 -1.6477759 0.78113443 52
-0.15540113 -1.6216016 0.81960279 52.666668
-0.095456719 -1.5503258 0.84059656 43
-0.95251787 -1.3652943 0.82424557 27
-0.83558917 -1.451118 0.83495474 51.5
-0.031714145 -1.4722697 0.78924572 57.5
0.027704125 -1.3966198 0.83481771 56.200001
-1.1156301 -1.231797 0.79014808 56
-1.0206716 -1.3077486 0.83697689 53.5
0.11603725 -1.2941335 0.80882889 55.25
0.16789414 -1.2262936 0.83145285 57.666668
-1.2243447 -1.1427543 0.85113978 35
-1.1640301 -1.1883323 0.81989282 55.666668
0.22284493 -1.1584314 0.82584709 56.5
-1.5125096 -0.90651774 0.78702641 54
-1.4212763 -0.97854626 0.77765763 56
-1.2699578 -0.96484423 0.84870893 48.400002
-1.670687 -0.77469039 0.81405538 58
-1.5620058 -0.83713824 0.82039386 51.57143
-1.4202987 -0.81726497 0.85282618 45
-1.2661278 -0.83396864 0.84881365 49.444443
-1.1601729 -0.83795232 0.85447347 56
-1.834633 -0.62657022 0.82779133 60.5
-1.7142663 -0.67606688 0.83202797 47.166668
-1.5654153 -0.67388731 0.84418517 45.42857
-1.3633549 -0.6624912 0.84439313 53
-1.2719586 -0.66451967 0.84022212 43
-1.0983434 -0.67751616 0.84245425 10
-0.99354237 -0.7070893 0.83760822 7.7777777
-2.0064325 -0.47045678 0.78137898 63.5
-1.8966819 -0.53745735 0.82424688 55.285713
-1.7116219 -0.49815753 0.84002906 47
-1.5853651 -0.52522337 0.84203207 47.200001
-1.3687067 -0.53807336 0.82888961 50
-1.2956296 -0.52484989 0.84441388 18.375
-2.1452658 -0.36982217 0.80368942 65.666664
-2.0169609 -0.38409498 0.8305831 41.799999
-1.8701266 -0.39384484 0.8392837 51.25
-1.7074548 -0.38096794 0.83999896 47.5
-1.5800689 -0.38177738 0.83579159 54.200001
-1.3888923 -0.39268625 0.831774 31
-1.3118571 -0.39613861 0.82945204 15
-2.2717679 -0.24910241 0.82773602 40.5
-2.1771588 -0.21136963 0.83883131 59.25
-2.0284717 -0.22617738 0.83360082 65
-1.8740922 -0.22766614 0.83576316 52.833332
-1.6997764 -0.23505726 0.83263981 50.400002
-1.5809807 -0.23154783 0.84308952 37.166668
-1.3944056 -0.296902 0.81999135 0
-1.9975313 -0.075825669 0.82681197 68
-1.8482968 -0.055331025 0.84073853 24.333334
-1.7068704 -0.090057231 0.84113944 37.799999
-1.275443 -0.0050291112 0.7825191 7
-1.2593223 0.055890013 0.77735561 2.8333333
-1.2637981 0.21898043 0.77377284 3.5
-2.3942118 0.72954196 0.76090932 92
-2.3554497 0.77260023 0.82118797 95.199997
-1.5703964 0.87548316 0.81828499 12.8
-2.2117856 0.95121974 0.84866524 105.6
-1.5340195 1.0074397 0.78483176 6
-2.109144 1.0775458 0.84667856 91
-1.8051585 1.4455622 0.8380276 94
0.95141983 1.4510717 0.80606854 53.285713
-1.7072752 1.577096 0.83542109 91.5
0.73589939 1.6329073 0.8133831 59
0.83773524 1.5482831 0.8343122 56.599998
-1.5889196 1.7203722 0.84524155 88.599998
0.57040828 1.7662668 0.83690858 61.5
0.6306538 1.7149643 0.79548764 65
-1.5164919 1.8126191 0.83917856 82.333336
-1.4439609 1.8998384 0.77739847 82.75
0.34305537 1.9464421 0.78617275 62
0.50462842 1.8192912 0.84511346 65
-1.3162706 2.0609758 0.79918629 69
0.22944069 2.0492051 0.8081454 70.85714
0.14302783 2.1204245 0.89418352 71
-0.097403072 2.3128307 0.81054145 67.666664
-0.24917474 2.4455624 0.86927259 1
-0.50956136 2.6419551 0.8007158 25
-0.70459867 2.7779179 0.80312788 13.5
-2.8038492 7.636023 0.76965714 61
-3.5254536 7.9083924 0.81663924 29
-0.37671089 -1.8216228 0.92750943 56.5
-0.53667974 -1.6935101 0.96327549 51.333332
-0.43875435 -1.7742692 0.98971152 51
-0.2351131 -1.714388 0.93238926 57.666668
-0.76057273 -1.5076051 0.9522329 49.5
-0.70019263 -1.5643498 0.973113 48
-0.59581387 -1.6477035 0.99250305 50
-0.17243984 -1.6381822 0.9896431 50
-0.10562935 -1.5599852 0.96354991 53.666668
-0.92747593 -1.3667741 1.0285224 47.5
-0.83969241 -1.4415517 0.95275259 49.666668
-0.029615492 -1.4648969 0.97162706 55
0.050849527 -1.3702457 1.0029526 53
-1.1067178 -1.2343642 0.93422234 56
-0.96706158 -1.3325016 1.0121874 55
0.11196123 -1.2937529 0.95048267 57
0.17101127 -1.2183856 0.96487033 50.75
-1.2306689 -1.0883009 0.90469247 11
-1.1801547 -1.1737478 0.954256 53.5
0.20309858 -1.1756105 0.94100142 58.5
-0.95526755 -0.710253 0.95160806 8
-1.6821105 -0.074577935 0.95218551 23.5
-2.3081386 0.83468157 0.91712236 86.333336
-2.2558222 0.90000194 0.98127937 78
-2.1936705 0.9796375 0.9428941 89.5
-2.1140943 1.0810001 0.95192122 96
-2.0950825 1.1071662 0.97354233 100
-1.9015028 1.3336581 0.91019666 100
-1.751116 1.2326 0.92709637 151
-1.865095 1.3812391 0.99323988 97.666664
-1.7881171 1.4794465 0.9776662 84.333336
-1.7130007 1.5719883 0.96180105 86.199997
0.72814304 1.6383922 0.94932771 54
0.77731544 1.598712 0.9591853 56.555557
-1.6142939 1.6943201 0.9643752 80
0.56721056 1.7685078 0.91192734 59
0.67246109 1.6901288 0.99969059 65.888885
-1.5054146 1.8283546 0.96794844 79
-1.4086982 1.9489433 0.90282643 75
0.42446315 1.8977959 0.98257756 73.25
0.49984398 1.8346329 0.96067601 72.800003
0.19910771 2.0790806 0.97680783 65.25
0.070204929 2.1841164 0.9923625 67
0.17180948 2.1028125 0.90164208 65
-0.33453462 2.5051935 0.94772625 26
-0.39413372 2.558208 1.0441234 26
-0.68457603 2.7779527 0.95475292 24.5
-2.7892644 7.6512556 0.92969429 63
-3.5786831 7.9250054 0.97335637 9
-3.4297683 7.8326607 0.97535682 39
-0.32854113 -1.8249332 1.1218079 50.333332
-0.39903203 -1.7797587 1.1670196 46.799999
-0.22865921 -1.7078323 1.1109248 46.333332
-0.76884043 -1.5002637 1.0872036 51
-0.65628445 -1.5943363 1.1028858 48
-0.092849873 -1.5416028 1.1337711 49.599998
-0.93433672 -1.3635015 1.1115061 46
-0.82673907 -1.4538254 1.1273831 47.666668
-0.02077936 -1.4527329 1.110976 45
0.034556359 -1.3880984 1.1148229 54
-1.0908859 -1.2346131 1.1606386 51.599998
-1.0158989 -1.2985803 1.1187131 49.799999
0.11131521 -1.2900555 1.1082547 51.400002
0.17080426 -1.2164838 1.0609367 59.5
-1.1457442 -1.1907145 1.1577826 58
-2.2046072 0.9643594 1.1102798 81.5
-2.1031041 1.1004239 1.1563004 76
-2.09073 1.1048923 1.0829086 84.5
-1.8148282 1.4492106 1.0769446 77.5
-1.7939453 1.4728101 1.1751596 81
-1.699052 1.5943148 1.1052358 72
0.74798781 1.6316297 1.066559 64
0.58259463 1.7759957 1.1414434 61.5
0.6626758 1.7095517 1.1328279 64.727272
-1.4647633 1.8776697 1.1634105 72.5
0.41357058 1.9092119 1.111203 64.199997
0.53892416 1.8039079 1.1662539 61
-1.3736776 1.9866749 1.1367511 71.333336
-1.3199852 2.0513248 1.1286498 66.75
0.33301336 1.9750255 1.1277554 63.799999
-1.2554649 2.136513 1.0892659 0
0.060457096 2.193455 1.128678 62.5
-0.038102124 2.2683196 1.1369784 67
-0.36873913 2.5330589 1.1215067 24.5
-0.48836091 2.6326895 1.1487471 26
-3.371877 7.772337 1.1356844 28
-2.6831877 7.7729511 1.0532316 64
-2.0955968 9.8340111 1.1211934 40
-2.2370186 9.9446268 1.1780834 41
-2.7679374 10.349177 1.0876458 42
-5.3964381 12.134645 1.064091 62
-0.34542128 -1.8379059 1.2598398 54
-0.51448548 -1.7002767 1.2704688 43.333332
-0.2215445 -1.6988983 1.2846082 43.666668
-0.6594494 -1.5822021 1.3087276 46
-0.59147573 -1.635762 1.3255001 40.5
-0.16337393 -1.6231238 1.3127421 42
-0.11615098 -1.5626581 1.2810452 41
-0.93824601 -1.3567158 1.2519313 39.5
-0.85885316 -1.4234532 1.2388926 46
-0.017157493 -1.451611 1.2712108 49
0.032343898 -1.3890619 1.244918 46.25
-1.1123004 -1.2162772 1.251024 50
-1.0249093 -1.2922198 1.2764124 48
0.092627458 -1.3117857 1.2608393 49.833332
-1.2153356 -1.1348926 1.2702397 43.25
-1.1689564 -1.1637385 1.2817166 47
-2.1942952 0.97910738 1.2639039 77
-2.1122973 1.0826135 1.3026341 79.333336
-2.096601 1.0986936 1.2060885 85
-1.8911724 1.3513836 1.2488904 82
-1.6814852 1.6100924 1.3024979 74.5
-1.5748969 1.7380556 1.2736211 69.599998
0.57754475 1.777367 1.2924609 58
0.62310994 1.7420669 1.2628903 56.75
-1.5143219 1.8234017 1.2772967 67.5
-1.4402475 1.9054888 1.2376493 69.25
0.51487815 1.8304238 1.281652 59.555557
-1.2974375 2.0781121 1.2736446 63.5
0.24962796 2.0424778 1.2837999 58.333332
0.36545581 1.9524224 1.263322 63
-0.15718076 2.3576005 1.3187248 34.5
-0.062607117 2.2920368 1.2499914 62
-0.34425709 2.5223258 1.2118278 25
-0.54827034 2.6869411 1.2844075 23.5
-0.61774421 2.7410572 1.3261614 26
-0.57221818 2.7046292 1.2568454 23
-3.3270526 7.7420654 1.3031492 41
-2.6194515 7.8680224 1.2686723 54.5
-2.4908769 8.0281658 1.250213 47
-2.3985801 8.0768709 1.2288411 14
-2.3976395 10.060904 1.2138945 38
-2.7393341 10.317579 1.348627 43
-2.583251 10.20951 1.2615061 37
-5.3634443 12.168111 1.2862031 68
-0.36491784 -1.8293244 1.4233422 56
-0.51668298 -1.7071543 1.4357448 51.5
-0.28058293 -1.7784293 1.430949 47
-0.68081886 -1.5621423 1.3897798 43.25
-0.15754038 -1.6160282 1.4238448 37
-0.082160071 -1.5336801 1.4008275 39
-0.90697956 -1.3739737 1.4780521 48
-0.77963388 -1.4803636 1.4528931 42.799999
-0.037440091 -1.4677294 1.4288628 43.5
0.023145843 -1.3941011 1.390608 45
-1.108561 -1.2185256 1.4031861 44.5
-1.0207274 -1.2862756 1.3733137 45
0.072169289 -1.3360864 1.4030119 48.666668
-1.2517945 -1.1013837 1.399484 7
-1.1994584 -1.1406006 1.432577 52
-2.2733984 0.87043566 1.3513099 75
-2.2223678 0.94779015 1.3967994 74
-2.0912414 1.0977749 1.408354 80
-1.9161984 1.3215171 1.4565945 75
-1.8456855 1.4074354 1.4204724 74.5
-1.7818754 1.4819748 1.4179568 74
-1.7076899 1.5760565 1.4102824 70.599998
-1.629317 1.6807835 1.4129303 68.5
0.5807429 1.7772715 1.3546249 56
-1.5243473 1.8050596 1.3685533 67
-1.4880725 1.8397946 1.4489064 75
0.41263938 1.9144447 1.4450139 60.200001
0.50963193 1.8361355 1.4250814 56.5
-1.3850476 1.9628143 1.3778903 79
0.25289807 2.0411854 1.4003963 59.333332
0.14897324 2.1276109 1.4409294 57.5
0.1699729 2.1080599 1.467261 60
-0.007090318 2.2531579 1.3664459 53
-0.50260979 2.6479583 1.3923502 23
-0.684183 2.7910461 1.4115226 20
-3.1785309 7.6348715 1.3591908 30
-2.8561881 7.543519 1.4976684 56
-2.793473 7.6253982 1.4745255 57
-2.7503884 7.7035155 1.4364352 47
-2.6486385 7.8391705 1.4703224 62
-5.3350663 12.149478 1.4706625 50
-0.37135497 -1.814109 1.5940863 51
-0.51321828 -1.7066054 1.5530739 46.5
-0.24635848 -1.727628 1.5593804 47.200001
-0.75895023 -1.5068425 1.5820531 58
-0.65879095 -1.5882485 1.5798666 50.5
-0.10595988 -1.5619742 1.5910901 41.333332
-0.85901225 -1.4131603 1.5481486 44.75
-0.047334652 -1.4809419 1.6032805 41
0.024925271 -1.392444 1.5396107 38.333332
-0.97543734 -1.3184558 1.5937012 48
0.077764168 -1.3258568 1.5062989 46
-1.1937575 -1.1462539 1.5449412 42
-1.4303422 -0.95294929 1.6115491 43.75
-1.5318996 -0.87293273 1.5722126 47.333332
-1.7799222 -0.6864475 1.5513997 37
-1.9072993 -0.57465494 1.5820593 42
-2.0593572 -0.4463039 1.6452521 43
-2.3900137 -0.1780325 1.5422007 42
-2.6704977 0.053327236 1.5839965 4
-2.2054119 0.96618879 1.5045466 78
-2.0311191 1.1790398 1.5507095 57
-1.9999415 1.2198141 1.6071161 64.333336
-1.9088798 1.3351297 1.5701981 76
-1.8367276 1.4179243 1.5488391 73.25
-1.7105398 1.5707461 1.5599885 70.5
-1.5916053 1.721076 1.5262061 65
0.39578393 1.9265552 1.5738349 58.75
0.48556584 1.854784 1.5367707 52.75
-1.2991459 2.0751617 1.647595 54
0.20881814 2.0809078 1.5775702 53.5
0.33288094 1.9875309 1.6083055 56.5
0.072861955 2.1934152 1.5982172 53.200001
-0.12519294 2.3487127 1.5299449 47.5
-0.32637376 2.5195515 1.6297356 23
-0.28679582 2.4855311 1.5501156 24
-0.69351107 2.80686 1.6159827 14
-2.9345772 7.4802547 1.5327278 35
-3.1207044 7.5997491 1.5690507 42
-2.7672946 9.9734573 1.5369687 26
-2.644551 9.9711475 1.521841 26
-5.2601299 11.962904 1.5886079 35
-0.38425785 -1.8055036 1.7543086 50
-0.50694281 -1.7043315 1.6815664 49
-0.30228543 -1.7871373 1.7941202 48
-0.24168147 -1.7203106 1.7382635 38
-0.69128573 -1.558262 1.7506108 48
-0.12731926 -1.5857209 1.6996928 39.666668
-0.92727363 -1.3575867 1.7068075 39
-0.85311317 -1.4278762 1.6578795 53
-0.038552005 -1.4780869 1.7712187 39.5
0.02594305 -1.3964421 1.7119213 48
-1.0749693 -1.2451881 1.7036362 51
-0.97548968 -1.3217732 1.728404 42
-1.199985 -1.1446996 1.7934104 49
-1.3916141 -0.99403113 1.7726084 45
-1.6559168 -0.77704817 1.708861 44
-1.5664213 -0.84763741 1.7422563 44.25
-1.6900053 -0.74784982 1.7201391 50
-2.0078564 -0.48938808 1.6558527 46
-1.9250199 -0.5569644 1.6701932 45
-2.1854932 -0.34616777 1.6745871 48
-2.0768614 -0.43370736 1.7050679 45
-2.2356408 -0.29883811 1.727852 45
-2.6591487 0.046839751 1.7254441 43
-2.2830889 0.87402904 1.7778102 69
-2.2018275 0.97635722 1.7194393 71.5
-0.56957054 0.99198467 1.7984627 70
-2.1174917 1.0760375 1.7099019 67.333336
-2.0438302 1.1696554 1.7617936 73.666664
-1.9287862 1.3111188 1.7160403 71.333336
-1.6498733 1.2953596 1.79992 86
-1.7955121 1.4704505 1.6870168 64
-1.1339853 1.4176114 1.7991809 79
-0.61508155 1.4669173 1.7956575 63
-0.57443279 1.4807339 1.7977952 48
-1.5386591 1.5786403 1.797012 76.666664
-1.4330035 1.6140962 1.7958583 75
-1.311865 1.5484653 1.7992736 83
-1.0660732 1.5603991 1.7965378 75
-0.97719479 1.5663451 1.7966148 71
-0.8821255 1.5507305 1.7991709 70
-0.64342654 1.5386903 1.7986704 72
-0.51137269 1.6067998 1.7937707 54.5
-0.036462624 1.5982466 1.7935554 67
0.048535138 1.608639 1.7969112 67.5
-1.5333601 1.7291193 1.790825 82.5
-1.4363123 1.7340417 1.7918718 76
-1.2958562 1.7257183 1.791775 70.5
-0.94689584 1.731106 1.7948189 72
-0.84582609 1.7293254 1.793389 67.666664
-0.72382408 1.6694341 1.7984933 66
-0.50581515 1.702631 1.7948582 62.25
-0.39958343 1.7611622 1.7915301 62.666668
-0.18306816 1.7237203 1.7932035 60
-0.035348777 1.7086092 1.7925164 72
0.072785951 1.7369747 1.7942671 69.800003
0.20126343 1.7204365 1.7944976 69
-1.4161952 1.8695666 1.7763531 74
-1.2697719 1.9259697 1.7882613 74
-1.1801975 1.891143 1.7898675 72
-0.90805131 1.8729246 1.7947651 69
-0.81683445 1.9159529 1.791065 61.799999
-0.68170941 1.8307703 1.7915044 65.5
-0.37614465 1.8835243 1.789024 66.333336
-0.26753363 1.8779101 1.7919954 60.25
-0.098874167 1.880208 1.7913572 70.5
0.074245594 1.8644212 1.7964306 69.800003
0.20773469 1.8604654 1.7940435 70.166664
0.37296262 1.9111391 1.7492243 64
0.46209973 1.8819029 1.6659838 55
-1.3615905 1.9766552 1.7796857 70
-1.3266875 2.0261731 1.7478305 69
-1.1006556 2.0743589 1.7859184 65
-0.80820984 2.0431874 1.787392 73
-0.68503171 2.0361989 1.7852226 58
-0.55535758 1.9609913 1.7927738 62
-0.32633206 1.9712486 1.7892803 66
-0.20079786 2.0362887 1.7871783 60
-0.011086154 2.0780916 1.786599 66
0.051459476 1.9781878 1.7902898 67.5
0.23111142 2.0072107 1.7691249 70.428574
0.32133576 1.9889969 1.7126606 64.400002
-1.2770884 2.132391 1.7661448 41
-1.1861877 2.1211228 1.7827903 67
-0.76879096 2.115 1.7827388 58
-0.67862147 2.1755421 1.7851179 60.75
-0.51715535 2.1770029 1.7846876 58
-0.20424211 2.1111898 1.7867483 66
-0.072677433 2.1901364 1.7816989 63.714287
0.087595455 2.1791148 1.7283776 54
-1.0946871 2.3374212 1.7873808 63
-1.0133559 2.2705936 1.7863809 61
-0.62344027 2.31039 1.7837937 59.5
-0.55840522 2.3354836 1.7855541 56
-0.37233827 2.3076243 1.780236 57
-1.2618731 2.459913 1.780598 48
-0.94812727 2.5088487 1.7780654 42
-0.51577866 2.4594884 1.7802432 60.5
-0.37966287 2.5077152 1.7179779 24.6
-0.26488093 2.4501033 1.7160331 7
-1.117447 2.6130285 1.7878036 24.666666
-0.79924548 2.6904786 1.7785238 63
-0.4304873 2.5501149 1.7387036 0
-1.1080182 2.7061105 1.7745818 59
-1.0435951 2.7878304 1.7740879 64
-0.65159118 2.7644815 1.6625036 12
-1.4573029 2.9685662 1.7726334 66
-0.96510321 2.922646 1.770384 59.5
-1.555213 3.0940261 1.7742015 57
-0.90951103 3.0634565 1.768922 61.5
-0.84898072 3.1414032 1.7556556 1
-1.6538477 3.221415 1.7726468 60
-1.3490814 3.280282 1.774582 68
-1.6658707 3.3136234 1.7711642 57.5
-1.6101006 3.4377437 1.7659451 59
-1.4396667 3.4337175 1.7757453 27
-1.5510159 3.5644064 1.7688566 56
-1.57399 3.7134941 1.7657872 57.333332
-1.2194971 3.6188042 1.7721876 59
-1.4825547 3.8338642 1.7593669 52
-1.2966371 3.7819419 1.7624732 57
-1.4047878 3.9571881 1.7606701 56.5
-1.0642041 3.9769688 1.7593781 59
-1.4217249 4.135304 1.755874 54
-1.134272 4.1933241 1.7594901 60
-2.0012805 4.2044458 1.7659167 49
-1.3282648 4.2793732 1.7496892 54
-2.1368906 4.4411077 1.7525223 44
-1.2587163 4.3844123 1.7501069 52
-1.1998781 4.4034333 1.749904 56
-1.1953362 4.5068388 1.7496489 53
-2.3020921 4.7472167 1.7581652 36
-1.8800646 4.7154322 1.7540714 56
-1.2609942 4.6677608 1.7437397 50.5
-1.1392045 4.7735829 1.7308906 3
-2.2852359 4.8812771 1.7485358 41
-2.4862268 5.0719461 1.7480301 24
-2.2344613 5.0050378 1.7431718 33
-2.0159416 5.0212536 1.7462622 45
-2.1922352 5.1345973 1.7441643 33
-2.1679623 5.3333173 1.7452388 29.5
-1.7354289 5.3225188 1.7454695 42
-2.179934 5.5960264 1.736091 26
-1.8586916 5.6862378 1.7320021 36
-2.3550501 5.8000655 1.7378048 28
-2.101953 5.7128816 1.7282897 26
-2.037317 5.846024 1.7309691 27
-2.8353748 5.8765202 1.7520088 29
-1.9953393 6.0657063 1.7304323 28.5
-1.5534388 6.0364733 1.7300514 30
-3.1023166 6.3952727 1.753872 7
-2.0432365 6.4740467 1.7209059 30
-1.9354495 6.5868964 1.7126201 30
-1.6649845 6.5003104 1.7198986 32
-2.1795208 6.6550093 1.7183071 32
-1.8436344 6.715261 1.7163953 23
-3.1998076 6.8691216 1.728772 12
-2.7672777 6.8184767 1.7350978 30
-1.7629369 6.8601642 1.7129601 33
-3.1852376 7.0361686 1.7177173 22
-1.7929304 7.0532966 1.7154363 25
-3.1839428 7.2316217 1.7172023 25
-3.2091205 7.4537859 1.7094806 18
-3.0209489 7.4218626 1.7192782 25
-1.852168 7.5504479 1.6893462 27
-1.9545083 7.7280302 1.6995038 26
-1.7139145 7.6665306 1.6883961 23
-2.6325235 7.8732042 1.6760317 48
-2.5421603 9.5993671 1.6792525 34
-0.3418285 -1.8188438 1.8250102 64.333336
-0.47597221 -1.7014339 1.8308746 76
-0.39843521 -1.7067508 1.855196 86.75
-0.22521573 -1.6896306 1.8487469 85
-0.72281528 -1.5209761 1.8528236 74
-0.53027129 -1.5815294 1.856362 85.599998
-0.35408309 -1.5601193 1.8550557 78.333336
-0.19828153 -1.5965695 1.852369 80.75
-0.10768554 -1.5538759 1.8447505 60.5
-0.8130219 -1.4198499 1.8278015 68
-0.67003065 -1.4350709 1.8527889 84.5
-0.52829874 -1.4160261 1.8543863 75.75
-0.36560729 -1.4128567 1.8554357 74.5
-0.23731904 -1.437656 1.8529494 77.625
-0.063115098 -1.4110427 1.8519503 74.199997
-0.98883498 -1.2747991 1.8441373 74.5
-0.83198774 -1.2522871 1.8550615 85.5
-0.67365813 -1.2755977 1.8627275 68.875
-0.50013846 -1.2685308 1.8545318 75
-0.36952531 -1.2538713 1.856697 70.166664
-0.22654583 -1.2845656 1.8528937 67.375
-0.09999606 -1.3004259 1.8544642 73.333336
-1.1215217 -1.1559465 1.8436693 70.800003
-0.9709239 -1.1120884 1.8515307 85.5
-0.82703668 -1.1165465 1.8528422 91.333336
-0.67125195 -1.1068828 1.8549755 73.599998
-0.52041924 -1.1215079 1.8521861 67
-0.38518667 -1.1281564 1.851056 55.285713
-0.22436957 -1.1130033 1.8503295 51.666668
-0.13623504 -1.1788952 1.8535239 69
-1.2379342 -1.0247469 1.8477207 80.666664
-1.1238267 -0.98829371 1.8513296 85.25
-0.95090014 -0.95233864 1.8507137 93
-0.82408661 -0.97394943 1.8453937 91.5
-0.68056071 -0.96732658 1.8410441 70.285713
-0.52910417 -0.96739548 1.841843 58
-0.37703237 -0.98265511 1.8406149 46
-0.26499566 -0.97783142 1.8393278 44.333332
-1.5974054 -0.7974773 1.8238498 58
-1.4674237 -0.88000882 1.842429 76
-1.2616804 -0.86668676 1.8479251 85.75
-1.1490597 -0.85291362 1.8525304 89
-0.99153095 -0.79943186 1.8428448 92.666664
-0.81624699 -0.8204174 1.8420204 84.800003
-0.65749532 -0.82810795 1.8389866 74.714287
-0.51029903 -0.81777346 1.8400338 63.400002
-0.38921672 -0.83938617 1.8397515 56.400002
-1.7295746 -0.64530385 1.8420299 72
-1.5734516 -0.68367028 1.8445053 69
-1.3522418 -0.71851277 1.8492485 84
-1.2645224 -0.72494423 1.8473603 89.5
-1.1284142 -0.6912275 1.8396363 78.666664
-0.96355927 -0.66811454 1.8347254 83.25
-0.80784088 -0.69386768 1.8357679 84.14286
-0.66815287 -0.6682657 1.8331517 81.555557
-0.51923901 -0.69192696 1.8346719 74.285713
-0.3932749 -0.69129401 1.837875 66
-1.732163 -0.48553038 1.8399913 72
-1.5864642 -0.51213855 1.8421099 73.75
-1.3698654 -0.57478666 1.8510902 60.5
-1.2661593 -0.5523991 1.841251 83.75
-1.143981 -0.52329034 1.8377243 74.199997
-0.97714615 -0.52026093 1.8331132 79.5
-0.82691145 -0.52127177 1.8334688 83.888885
-0.68972635 -0.52628189 1.8307508 82.571426
-0.54085588 -0.54160744 1.8330245 78.333336
-0.4239547 -0.52005339 1.8333704 73.5
-2.1593618 -0.34286079 1.8230635 81
-2.0693851 -0.42483085 1.8324616 78.5
-1.8216318 -0.437745 1.8421322 75
-1.7224092 -0.34415787 1.8403083 79
-1.5991787 -0.35286427 1.8368838 64
-1.3891881 -0.42419872 1.8405281 92.5
-1.2858725 -0.38503999 1.8351145 90.400002
-1.1234947 -0.35816574 1.8321701 73.800003
-0.96208644 -0.36085239 1.8279072 79
-0.81032026 -0.36571783 1.8285173 79.444443
-0.67944509 -0.3922222 1.8295684 78.5
-0.52908015 -0.37773487 1.8315105 76.714287
-2.3387926 -0.16400324 1.8245305 81
-2.2025089 -0.24641207 1.8302087 76
-2.0802691 -0.25114164 1.8313043 79
-1.8232625 -0.27998632 1.8369759 80.5
-1.7095765 -0.23945664 1.8346456 73.25
-1.6144767 -0.20676836 1.8437494 66.5
-1.4053849 -0.27549189 1.8380452 101.5
-1.28186 -0.22158948 1.8323996 87.599998
-1.1350336 -0.21522862 1.8277438 80.75
-0.96055967 -0.22187355 1.8253876 78.75
-0.83483905 -0.23197785 1.8261834 78.909088
-0.66806471 -0.23451415 1.8294876 79.800003
-0.54646617 -0.23091649 1.826187 77.5
-2.2940068 -0.084287055 1.8255543 77
-2.2055268 -0.095950611 1.8276443 82.5
-2.0897951 -0.078781158 1.8337935 52
-1.8273425 -0.10524778 1.829151 74.5
-1.7046499 -0.11049362 1.8390932 69.333336
-1.6171291 -0.059897583 1.8375907 70.5
-1.4191942 -0.12774673 1.8423432 80.5
-1.2866101 -0.06171393 1.8247027 71.666664
-1.116845 -0.069852017 1.8259938 86
-0.97091836 -0.079375483 1.8252994 78.333336
-0.84028596 -0.089408316 1.8237075 78.75
-0.68052888 -0.075968988 1.8229849 79.625
-0.57301629 -0.082355425 1.8237902 82.599998
-2.7296846 0.10238067 1.82436 64
-2.6083627 0.10417755 1.827734 75.5
-2.3420196 0.070703723 1.824532 76
-1.8331738 0.068253912 1.8318473 83.5
-1.7192167 0.037729416 1.8314276 80.5
-1.6200476 0.085867018 1.8375784 69
-1.419488 0.020370405 1.8342079 79
-1.3025126 0.099455886 1.8281406 91.75
-1.1454686 0.064781472 1.8242457 79.75
-0.98193532 0.075691871 1.8228344 82.800003
-0.83596325 0.064534068 1.8210565 82.166664
-0.68536192 0.067244336 1.831248 70
-0.55795932 0.057991635 1.827877 77.800003
-2.7065203 0.23046312 1.8260428 4
-1.8274411 0.24167657 1.8256857 71.5
-1.717813 0.19690585 1.8298056 81.5
-1.6135454 0.23243752 1.8317573 84.5
-1.416343 0.16789624 1.8316399 99.5
-1.2965001 0.23437393 1.8245026 89.25
-1.1544298 0.22225709 1.8215375 80.166664
-0.95709264 0.22374253 1.8179152 84.199997
-0.83890313 0.22407556 1.8189979 79.444443
-0.67597753 0.21179768 1.8216771 77
-0.55591607 0.21413785 1.8192083 77.5
-2.6395855 0.3185558 1.8307136 11
-1.8196416 0.41821942 1.8264567 83.5
-1.7107568 0.3581543 1.8285497 81
-1.6048054 0.38028008 1.8275288 82
-1.4069051 0.3162474 1.8287209 99.5
-1.2863984 0.37052426 1.824513 92
-1.1146343 0.38976246 1.8176434 79.199997
-0.9522388 0.35136741 1.8162369 77.5
-0.81518686 0.37722614 1.8145626 77.909088
-0.67466927 0.37981156 1.8132452 79.5
-0.54746813 0.37905595 1.8153112 79.428574
-2.1477377 0.57850534 1.8283709 51
-1.734128 0.52216774 1.8263063 83.5
-1.6104356 0.54210275 1.8247076 81.333336
-1.3902888 0.46629477 1.8249168 101
-1.2565629 0.52212536 1.8184284 85
-1.121129 0.52725118 1.8210759 79
-0.9888407 0.52240223 1.8149819 76.75
-0.82440025 0.51656532 1.8142509 77.555557
-0.68276334 0.5328297 1.8117889 76.375
-0.52541912 0.50838917 1.8119262 78.800003
-0.43027884 0.58377624 1.810263 81
-2.3150792 0.69575858 1.8131876 85
-2.2041786 0.68501478 1.8143711 83.666664
-2.0685663 0.61756098 1.8164288 88.5
-1.8071346 0.61724299 1.8189069 85
-1.6944846 0.67148465 1.8207237 87.333336
-1.5905789 0.69642705 1.8213725 77.666664
-1.3695281 0.61797357 1.8267534 94
-1.2602278 0.66738588 1.8211147 94.666664
-1.1532127 0.68416816 1.8251939 94
-0.966169 0.67402422 1.8128831 75.800003
-0.82132882 0.66911983 1.8135821 76.666664
-0.67152935 0.67855406 1.8105662 77.666664
-0.51634014 0.67919171 1.8092719 76.428574
-0.40565801 0.67004162 1.8073217 80
-2.1608834 0.83220005 1.8129644 87
-2.0567358 0.80030084 1.8170143 83.5
-1.7287979 0.81493878 1.8142519 84.75
-1.5844804 0.81961131 1.8138674 81.666664
-1.2751973 0.79502684 1.8213501 91
-1.1056706 0.83251512 1.8207614 90.5
-0.97371072 0.83412647 1.8177944 88.666664
-0.82108557 0.81544238 1.8120658 76.571426
-0.6839062 0.83202142 1.8096796 73.85714
-0.52972585 0.8266415 1.8093579 76.14286
-0.38823825 0.8295837 1.8081141 74.5
-2.1647353 0.98324239 1.8059684 86.5
-2.0539854 0.97430348 1.8093101 82.666664
-1.7096864 0.98334408 1.806928 76.333336
-1.5981083 0.98520511 1.8115897 74.75
-1.4954586 0.92238182 1.8150426 73
-1.2543523 0.95107132 1.8170698 89.75
-1.1311319 0.95891231 1.8183089 89.666664
-0.94898432 1.0040268 1.8163075 92
-0.81977564 0.97648317 1.8127794 90.333336
-0.67990977 0.96955222 1.8086029 77.125
-0.51499534 0.96722019 1.8037193 72.25
-0.3919856 0.97840363 1.8080702 71.714287
-0.25804347 1.0443605 1.8155116 79
-1.9579307 1.1706879 1.8079003 79
-1.7026896 1.1415269 1.8050873 76
-1.578495 1.1368318 1.8060141 73.666664
-1.4588069 1.0740744 1.8134004 77
-1.2549107 1.0795819 1.813677 92.5
-1.119694 1.112097 1.8138816 85.800003
-0.96620893 1.1372889 1.8156356 79
-0.82778567 1.1137995 1.813961 88.25
-0.67022288 1.1234148 1.8117677 84.5
-0.52658498 1.1380875 1.8118036 85.25
-0.37222147 1.1228944 1.8103763 82.571426
-0.23059615 1.1606252 1.8074481 75.5
-1.5510535 1.257545 1.8138974 66.75
-1.4169533 1.2295624 1.8107151 84
-1.2031025 1.2193563 1.8110904 90
-1.1276176 1.2558132 1.8088031 83.25
-0.98521429 1.2679185 1.8114882 76.333336
-0.78241843 1.2496643 1.8099312 77.666664
-0.67739725 1.259491 1.8109326 78.25
-0.53000271 1.2937074 1.8073701 76.833336
-0.3649351 1.2750365 1.8128899 66.428574
-0.23184043 1.2808793 1.8126037 59.25
-0.11614192 1.2904013 1.8079566 68
-1.6628162 1.3707917 1.8052908 79
-1.5788447 1.4306372 1.8082935 68.333336
-1.4372234 1.397861 1.8029398 82.666664
-1.0984926 1.4130222 1.8042229 85
-1.0014631 1.4032173 1.8045828 78
-0.85720366 1.3956075 1.8047189 74
-0.67752546 1.38719 1.8049773 73.5
-0.52029324 1.4584576 1.8332642 97
-0.37209606 1.414824 1.8160963 42.5
-0.23078328 1.4236225 1.820176 37.5
-0.081624202 1.4206859 1.8098623 59.666668
-1.4533399 1.5390959 1.8013641 78
-0.91577268 1.5900371 1.8001813 75
-0.79485637 1.5315477 1.804268 73
-0.50240815 1.5674136 1.8306704 55.5
-0.37398326 1.5571333 1.8385068 73.666664
-0.21283336 1.5746138 1.8306208 65
-0.083675921 1.5663611 1.8239616 65.833336
0.072667047 1.5509315 1.8008507 72
-0.35795522 1.7218115 1.8201618 49.5
-0.19157322 1.6819162 1.8136786 66.666664
-0.064124361 1.6863238 1.8007773 75
-0.062890477 1.8662751 1.8016832 67.5
