# .PCD v0.7 - Point Cloud Data file format
VERSION 0.7
FIELDS x y z intensity
SIZE 4 4 4 4
TYPE F F F F
COUNT 1 1 1 1
WIDTH 1228
HEIGHT 1
VIEWPOINT 0 0 0 1 0 0 0
POINTS 1228
DATA ascii
-0.61419129 -1.304383 -0.18443574 11
-0.5015173 -1.2628133 -0.18434106 14
-0.38665295 -1.2244608 -0.18428634 13.5
-0.19717197 -1.1564416 -0.1799006 12.333333
-0.064335905 -1.1002947 -0.17429692 11.5
0.093048126 -1.06073 -0.17846128 12.25
0.18084256 -1.0508285 -0.16967328 9
0.24406126 -1.0104673 -0.17972466 11
0.40038562 -0.94375205 -0.15627034 1
0.48673344 -0.93122375 -0.17237975 12.2
0.50831223 -0.76038069 -0.16624278 0
0.66859382 -0.8764779 -0.17069606 11.333333
0.77403277 -0.81628299 -0.19472465 51
1.0484512 -0.75395316 -0.17400739 8
1.1351818 -0.71810657 -0.18030171 29.333334
1.2687531 -0.67288947 -0.16580153 53.5
1.413692 -0.6246503 -0.18320304 44
1.5826908 -0.55851203 -0.19412452 62
0.40389359 -0.43104574 -0.15469858 0
1.3530004 -0.40567362 -0.18566714 2
1.5234357 -0.37829551 -0.17710702 37
1.4877944 -0.24067634 -0.1887227 60
1.4398631 -0.09142334 -0.17702264 52
1.1014781 0.097595915 -0.18021253 4
1.3342458 0.10076177 -0.1986867 0
0.59700412 0.2953743 -0.17220563 0
0.63494724 0.24999432 -0.18197115 0
1.3183206 0.26349288 -0.191724 72
1.3578444 0.20425895 -0.17933524 46.5
0.54542124 0.37878144 -0.16881396 0.1
0.68699956 0.33352894 -0.18812585 2
1.247153 0.37491962 -0.17323309 0
0.56934774 0.54409838 -0.18452102 0
0.60534871 0.54774839 -0.18432607 1
0.73373801 0.8343516 -0.17243584 4
0.92946345 0.99838179 -0.18845683 2
1.0075518 1.1920667 -0.1769274 68
0.97297722 1.3157068 -0.16645998 63
0.93525749 1.4237999 -0.18494098 66.333336
0.88194162 1.564925 -0.19677451 78
0.90031976 1.5161664 -0.15869607 71
0.8229928 1.7456312 -0.18023232 70
-0.96950394 1.9718962 -0.16165239 88.5
-0.831155 2.0296857 -0.18342775 82
-0.72215378 2.0717905 -0.1885127 85.25
-0.51913035 2.1347046 -0.1820671 81
-0.43556774 2.1633253 -0.17791024 82.5
0.67709661 2.2229762 -0.18572101 36.5
0.64619315 2.3020501 -0.17436144 34
0.63263911 4.5064039 -0.19717607 57
0.50302023 4.9154119 -0.1946739 52
-0.79006827 -1.3389308 -0.076910533 1
-0.68283969 -1.314528 -0.11682635 6.3333335
-0.50981802 -1.2556448 -0.1059808 10
-0.36429444 -1.2172105 -0.11732197 12.6
-0.29672191 -1.2022271 -0.14961998 14
-0.66686642 -1.0776932 -0.084111124 1.25
-0.55642581 -1.0828377 -0.08474049 1
-0.37961692 -1.0918585 -0.086958721 4
-0.24282347 -1.1663955 -0.1211955 10.555555
-0.053727455 -1.106156 -0.10801253 10.4
0.04739131 -1.0729408 -0.12459162 12.25
0.16995953 -1.0516099 -0.13294716 9
-0.76199126 -1.0465046 -0.089349188 0
-0.50941879 -0.98976022 -0.11404553 2
-0.36916173 -1.0134228 -0.083900936 1.8
-0.20282376 -0.96716827 -0.085596822 1
-0.12883759 -0.98421973 -0.080608882 0.5
0.010517937 -0.96223062 -0.079430915 2
0.23651613 -1.0135413 -0.10584559 8.7142859
0.38840598 -0.95042181 -0.099747524 3.875
0.49394447 -0.92517722 -0.12412588 8
-0.64402586 -0.77431631 -0.092238374 2.5
-0.57828259 -0.76210308 -0.092855692 1.5
-0.40443137 -0.88763165 -0.086163282 3.5
-0.22339341 -0.85906708 -0.085368209 3.4285715
-0.071403377 -0.80814642 -0.086901076 2.5
0.075847343 -0.82670867 -0.084991075 2
0.24064098 -0.84198993 -0.070014089 2
0.53578824 -0.82004857 -0.059830893 0.5
0.69679344 -0.86185026 -0.073526777 11.5
0.82535011 -0.81917769 -0.095903449 10.142858
0.95874256 -0.77006257 -0.094926663 5
-0.67614645 -0.71805149 -0.094359994 3.25
-0.51997739 -0.6643244 -0.091820598 4.5333333
-0.35932654 -0.6470145 -0.092816956 3.9000001
-0.18269056 -0.63046426 -0.097683616 5
-0.025945727 -0.74135888 -0.0806401 3.5
0.074258372 -0.70967913 -0.092792533 0
0.23537706 -0.70800894 -0.074262947 3.3333333
0.40900803 -0.67843837 -0.065277554 2.8
0.51177889 -0.70283365 -0.062745959 2
0.64338309 -0.70862174 -0.073669136 0.33333334
0.89818019 -0.63204277 -0.064516045 0
1.0396365 -0.74085462 -0.086571731 44.5
1.1301243 -0.71265614 -0.10098816 42.799999
1.2858267 -0.66005051 -0.0920038 42
1.4255345 -0.61430454 -0.10016247 43.75
-0.37745789 -0.58503598 -0.081985965 7
-0.22131722 -0.56102133 -0.090388477 5.5555553
-0.075475581 -0.5133428 -0.08059033 5.7272725
0.06774348 -0.51737285 -0.084234245 3.4545455
0.22228609 -0.49574241 -0.079592526 4.0833335
0.36065882 -0.51399529 -0.072323278 4
0.5100863 -0.55037838 -0.068210363 1.3333334
0.71715575 -0.50120181 -0.061281893 0
0.83583373 -0.54103601 -0.06360504 0.75
0.95883626 -0.50460297 -0.062102869 2.3333333
1.1557505 -0.55120093 -0.068137385 2
1.2148076 -0.58071321 -0.063877709 2
1.3837475 -0.53358406 -0.059167866 2
1.5581079 -0.51982045 -0.090553246 49.666668
-0.0050552366 -0.44875351 -0.090366311 8
0.087207779 -0.43099281 -0.077014677 6.4545455
0.23168725 -0.40600872 -0.077206552 4.1578946
0.38355353 -0.39525416 -0.075032964 3.3333333
0.5118708 -0.35805836 -0.071621828 2.1666667
0.61947298 -0.31478798 -0.070113711 1.6666666
1.016642 -0.43469822 -0.061032239 16
1.1264142 -0.3983759 -0.063236572 0.66666669
1.4701272 -0.34874111 -0.038644377 14
1.5257101 -0.36062679 -0.10793206 73
0.54353207 -0.29738352 -0.077159442 3
0.68333316 -0.24914326 -0.070925906 1.7777778
0.80314428 -0.20182486 -0.068528317 2.5
0.98199826 -0.20917414 -0.076734476 0.33333334
1.1444108 -0.17361444 -0.072814159 4.5
1.3084835 -0.1504508 -0.095102705 11
1.4765871 -0.25200433 -0.09366037 49.714287
0.83322823 -0.075456433 -0.068508893 3.3
0.98343676 -0.059200484 -0.069474965 7.6666665
1.1309079 -0.10228031 -0.064967401 8
1.2914429 -0.1086756 -0.095970169 15.6
1.4293048 -0.06314303 -0.097281933 63.799999
0.81980669 0.086078539 -0.073169447 1.5384616
1.1097455 0.14555365 -0.080988146 8.5
1.2500242 0.093949273 -0.070112221 2.2
1.3764677 0.095689587 -0.1026384 61.333332
0.68835443 0.26236677 -0.090949357 2.3333333
0.80913734 0.19555461 -0.082887106 1.2
1.0273178 0.2832287 -0.0754591 0
1.115744 0.24241382 -0.08104641 8.833333
1.2977419 0.23523459 -0.11120798 59.714287
0.52823639 0.3959651 -0.11001439 0
0.66245699 0.34237832 -0.06454616 2.652174
1.2855185 0.34009913 -0.11557738 82
0.58261126 0.55248451 -0.051048953 1.5789474
0.61358118 0.49033719 -0.0276039 1.75
0.53746676 0.61023843 -0.056522265 0.66666669
0.62098968 0.70296067 -0.096821733 0
0.53839809 0.81073105 -0.10297414 2
0.60491025 0.82457864 -0.12891537 1
0.76745313 0.82771331 -0.13583386 0
0.46558571 0.9821384 -0.10540495 1
0.9353556 1.0138131 -0.11053554 2
-1.0898341 1.1671871 -0.04753891 58
0.66674662 1.0883245 -0.080906577 153
1.0030316 1.1755738 -0.10557783 50.5
-1.0990417 1.2021792 -0.0091745304 28
0.97343946 1.2923284 -0.097613387 34
0.92498153 1.4446083 -0.10121728 66
0.87565768 1.5912291 -0.08564759 71.800003
0.82949048 1.7273916 -0.048948422 71.199997
-1.2372088 1.8979506 -0.031788636 79.5
-1.1040114 1.9404117 -0.070178941 82.166664
0.74947613 1.8218703 -0.089572139 5
0.79299623 1.8275787 -0.05667052 71
-1.0759745 1.9529536 -0.025032615 71
-0.96081328 1.9899527 -0.063389674 79.333336
-0.81149977 2.0406704 -0.080996767 77.900002
-0.6769349 2.0850961 -0.063619152 79.285713
0.70920366 2.0778539 -0.016434794 31
0.7590192 1.9756625 -0.14057048 1
-0.62087345 2.1062493 -0.098430119 76.5
-0.55285865 2.1270487 -0.10838947 83
-0.35477266 2.1887672 -0.044673089 81
-0.26857537 2.2311254 -0.091113716 24.5
0.68959314 2.1342969 -0.038439844 27
0.62208188 2.3639154 -0.092069469 31
0.56986779 2.4772139 -0.083776303 19.666666
0.60078704 4.5599432 -0.11765987 14
1.1030867 4.9988308 -0.0050560283 0
0.55367881 5.4643078 -0.042561807 7
0.35827065 7.0370383 -0.048898492 1
0.52389073 7.041522 -0.0096474933 1
-1.1300281 -1.455713 0.017525489 50
-0.17519017 -0.68066549 0.054905165 1.75
-0.13310938 -0.63578898 0.045408621 2.5
0.051234227 -0.65852785 0.056557979 2
-0.04718313 -0.57119435 0.023023391 2
1.4642541 -0.21826968 0.12258805 29
1.435192 -0.070688456 0.13370685 41.666668
-1.0664976 0.12727247 0.09885218 0
-1.0146463 0.1087238 0.068145163 3.3333333
1.0298499 0.066306829 0.016542563 5
1.0768838 0.075504184 0.040926244 9
-1.0674119 0.22750926 0.10160924 5.4285712
-1.0433151 0.20143077 0.090324104 5.5
1.3082786 0.27847558 0.11214288 55
-1.1394649 0.30356395 0.1386131 3
0.61909246 0.42258805 0.0060845045 2
0.5686723 0.54005504 0.043968588 1.2941177
0.52047426 0.62022913 0.072474033 0.53846157
-1.2199589 1.0714524 0.10924308 12
-1.1316133 1.1505778 0.087106965 10.428572
1.0325775 1.1286474 0.090183847 36.5
-1.1013216 1.2261862 0.081550173 67.333336
0.98412871 1.2809165 0.10383869 38.75
0.93489701 1.4052973 0.1043143 56.166668
0.85627067 1.6288381 0.11226185 67
0.8368209 1.6679747 0.061148312 68
-1.3653314 1.8577812 0.079736598 76.25
-1.247901 1.8978502 0.087276749 77.666664
-1.1492014 1.9300098 0.047693875 76
0.68661284 1.860068 0.08436837 1
0.78268403 1.8277621 0.031882178 40
-1.0784389 1.9574814 0.050244946 75.285713
-0.95165265 1.9964941 0.094731256 70.125
-0.82253265 2.0375743 0.058250446 69.800003
-0.61333179 2.0985827 0.12079417 77
0.73446769 2.0120828 0.062105816 21
-0.62513471 2.1046443 0.1261903 80
-0.50614244 2.1424291 0.092052333 81.625
-0.37743741 2.1828179 0.057554442 79.599998
0.68216467 2.1832814 0.12291692 35.5
-0.24639219 2.2652876 0.040918704 0
0.63804287 2.3014145 0.090221219 28
0.50534052 5.456306 0.035199013 2
0.77395457 7.7549081 0.070993952 0
-1.5948882 -1.5782863 0.29348564 34.5
-1.4296979 -1.5484053 0.24909109 35
-1.3185691 -1.5149403 0.26168033 49
-1.2263169 -1.4883385 0.26251942 44
-1.1417612 -1.4574419 0.26173118 54.666668
-0.99474698 -1.4101818 0.25723219 47.200001
-0.88002747 -1.3697439 0.2912963 11
-0.78588104 -1.3417269 0.27038696 23.666666
-0.72668123 -1.3215135 0.26397654 11.666667
-0.51674825 -1.2587309 0.27427429 10.285714
-0.42852736 -1.2232126 0.28199095 12
-0.22685184 -1.154526 0.26123869 11.444445
-0.092836961 -1.0632447 0.2775678 9
0.41287366 -0.93750316 0.26740322 7.1999998
0.50289029 -0.91546077 0.26731032 8.666667
0.1277243 -0.76723623 0.20394421 3
0.57007235 -0.89083081 0.27914244 8.666667
0.66482413 -0.85671955 0.266009 9.4285717
-0.051591426 -0.67701763 0.2111593 0
0.011149478 -0.60687512 0.16663051 1
1.5125926 -0.34494823 0.24384569 65.25
1.4716351 -0.22661839 0.21686341 65
1.4238296 -0.073484086 0.2242339 63.5
1.3417447 0.11707799 0.18388879 71
1.3821478 0.05009095 0.20905453 62.333332
-1.2165414 0.25708234 0.25699794 0
-1.1310521 0.28924507 0.21151046 1.3333334
1.3280839 0.22008935 0.19971573 63.799999
-1.2221726 0.35921228 0.28334367 0
-1.1247871 0.34588689 0.21431188 4.4000001
-1.5173254 1.1015342 0.24441417 39.333332
-1.4307585 1.1269813 0.22122273 21
-1.2477423 1.1130658 0.22871526 18.083334
-1.1630498 1.1678431 0.20565696 16.6
1.0223259 1.1478087 0.23004925 62.5
1.0601189 1.1075771 0.18671387 9
-1.5066698 1.2093945 0.29475743 79
-1.1539636 1.2361714 0.23630171 35.833332
0.9834342 1.2598704 0.24250995 63.42857
0.91432655 1.4569414 0.20509064 67.5
0.87167907 1.5806785 0.22278376 69.5
0.81913263 1.7387995 0.21425317 63.333332
-1.4403442 1.827576 0.21706457 91
-1.2979654 1.8857375 0.21661103 79.416664
-1.1430379 1.935907 0.22159807 68.14286
0.79536492 1.8125255 0.16195428 64
-1.0853769 1.956479 0.21118695 65
-1.0122079 1.9811811 0.19251056 68.25
-0.82755125 2.0398521 0.25401622 81.25
-0.71841192 2.0751112 0.21885438 78.199997
0.72100782 2.0428908 0.20985389 17
-0.61657417 2.105423 0.22139488 82.25
-0.49260688 2.142642 0.19787979 82
-0.35281986 2.2071116 0.29445136 69
-0.29925245 2.2174888 0.2916398 50
0.68297458 2.1722989 0.23785311 28
0.5996778 2.3901973 0.2354967 25
0.63315874 2.3119123 0.26310012 27.5
0.55316919 2.4796126 0.22084615 14.5
0.9542011 4.9250846 0.24788538 102
0.79631573 5.0035529 0.20409447 18
-1.6608096 -1.5174873 0.36596239 73
-1.591375 -1.5970776 0.38982221 62
-1.4232349 -1.5446103 0.38835049 54.285713
-1.303601 -1.5170352 0.34683484 45
-1.6985458 -1.4181925 0.37532994 73
-1.234143 -1.4870985 0.35871753 48.25
-1.1218874 -1.4517597 0.35108864 55.833332
-0.96161139 -1.3967527 0.40033823 54.75
-0.85569859 -1.3626087 0.34182501 41.400002
-1.7435007 -1.2761912 0.4049615 77
-0.78375047 -1.3309355 0.35406899 59
-0.65158743 -1.2994158 0.40191546 9.8571424
-0.56438875 -1.267378 0.35796782 9.833333
-0.39283949 -1.2153709 0.3975963 9.8571424
-1.7877657 -1.1508142 0.38585794 80
-0.32759997 -1.1930078 0.37155029 10.2
-0.23828068 -1.1614517 0.37257552 11.125
-0.11035656 -1.1219295 0.37643614 9.7142859
-1.8315505 -1.0202609 0.41395289 84
0.28104913 -0.98009622 0.35597765 6
0.36735046 -0.95504314 0.36681601 8.5625
0.48173642 -0.91839594 0.3414748 9
-1.8756056 -0.89069343 0.44005662 82
0.55875999 -0.89192533 0.31819126 8.333333
0.62042117 -0.87450713 0.30497816 8
0.95542675 -0.75265431 0.3192192 44.5
1.0300744 -0.7313109 0.33231974 49
1.107635 -0.70996886 0.31969699 46
1.2521521 -0.65890938 0.3335841 43.666668
1.3831428 -0.61479104 0.34346795 45.5
1.4710553 -0.58572167 0.348239 51
1.5591865 -0.52764493 0.36130044 64
1.5359973 -0.42274392 0.32062533 68.5
-1.7007954 -0.28091437 0.42445958 154
-1.4156722 0.14368491 0.3988733 1.5
-1.258468 0.24527532 0.35434446 0
-1.1911453 0.27598712 0.35188571 0
-1.2159454 0.36547279 0.35285807 0
-1.1697686 0.34371138 0.39436111 5.5
-1.4127865 0.88538122 0.36350971 14.75
-1.4368953 0.98362684 0.35352463 17.625
-1.2804105 0.97696126 0.35702056 8.6999998
-1.5373216 1.1355076 0.36525989 59.200001
-1.4362346 1.1695975 0.33174744 55.666668
-1.3047136 1.1341197 0.34719631 53.799999
-1.159831 1.1570665 0.32750779 20.25
1.0230327 1.1473175 0.38820544 49.166668
-1.1002245 1.2291087 0.41677663 48.75
0.98092377 1.2623236 0.37780109 60.299999
0.89773148 1.4923663 0.38217431 57
0.93128324 1.3988581 0.3856011 58.875
0.87481022 1.5711969 0.37115607 64.333336
0.82650834 1.7081159 0.35100445 64
-1.3937956 1.8555609 0.38956091 75.14286
-1.2560201 1.9001808 0.35130656 74.333336
-1.1297874 1.9369838 0.3362546 72
0.77761847 1.8330419 0.38047168 44.599998
-0.97290021 1.9930166 0.40087906 70.166664
-0.85750502 2.0325465 0.34131378 76
-0.72947955 2.0643523 0.33687964 85
0.7287814 2.0266733 0.42967942 19.666666
-0.47067729 2.1612186 0.42191878 37
-0.36246297 2.1974292 0.37767476 72
0.67422736 2.1828334 0.35685962 27
0.61353278 2.3513923 0.36216462 21
0.5634172 2.4710844 0.4085218 16
1.1363882 4.9870043 0.3062638 0
0.87473625 8.3577633 0.38633806 12
-1.660409 -1.5172185 0.48681006 70
-1.6132967 -1.5812266 0.53261006 65.428574
-1.4265009 -1.5451773 0.53630286 46.5
-1.2991396 -1.5044667 0.4804019 49.666668
-1.6951643 -1.422665 0.53880793 70.199997
-1.2042371 -1.4703318 0.46641558 47
-1.1074129 -1.4421204 0.53916001 48.333332
-0.99678695 -1.4065883 0.49269605 53.5
-0.86659867 -1.3622823 0.53676826 56
-1.7368289 -1.2774941 0.52997363 78.285713
-0.7784887 -1.3336083 0.5200063 42.400002
-0.69752383 -1.3084524 0.4936868 20.5
-0.49842781 -1.2442527 0.54322118 14.875
-0.41753703 -1.2170215 0.51023751 9
-1.8053467 -1.0643489 0.53909183 78.5
-1.7815762 -1.1504451 0.52226561 79.166664
-0.34160712 -1.186334 0.48820752 11
-0.22227228 -1.1486738 0.53646994 9.583333
-0.095113389 -1.1063546 0.52713853 10
-1.8477631 -0.96382946 0.5307045 79.333336
0.15479104 -1.0158007 0.59153557 8
-1.8982849 -0.81223255 0.54922253 69
-1.9621878 -0.62956506 0.5416308 81
-1.9316585 -0.69270658 0.57131797 79
-2.0134711 -0.51883286 0.59477359 16
-1.5566504 -0.33184841 0.51113331 125.2
-1.4529827 0.086857565 0.56540644 4
-1.3623248 0.22165599 0.5665825 13
-1.2633809 0.22948676 0.52606082 3.5
-1.1804271 0.27248147 0.51150769 0
-1.1683561 0.33771166 0.47103274 6.6666665
-1.9758877 0.73887736 0.46104544 4
-1.299528 1.1620977 0.51537532 38
1.0127571 1.1532576 0.49487168 56.714287
-1.2855082 1.2314794 0.5707736 44.200001
-1.1587118 1.2257302 0.47889775 63.75
0.97072953 1.2853621 0.53173441 54.333332
0.89495212 1.4922415 0.46122187 69
0.92247581 1.4195884 0.52993035 56.799999
-2.3484974 1.5280582 0.58241111 76
-2.1241164 1.5688689 0.49953943 56.5
0.87775248 1.5568231 0.53196824 59.714287
0.81678033 1.7293901 0.56182992 57.25
-1.3927778 1.8582354 0.49466932 73.5
-1.2712113 1.898488 0.55181652 66
-1.1440066 1.9421906 0.53798503 71.666664
-1.0866976 1.9628789 0.49136409 73
-0.99344516 1.9887558 0.49731097 72.333336
-0.84619826 2.0368347 0.45385063 83
-0.72186708 2.0863247 0.57676697 69
0.73239434 2.0022979 0.55623561 11.5
-0.62705755 2.1177094 0.52655089 55.5
-0.51730275 2.1472371 0.52246273 56.142857
-0.33743036 2.2079685 0.48743853 83
0.6718834 2.1832011 0.55976588 25.666666
0.62748253 2.2981722 0.55995005 23
0.51750803 2.4589052 0.45496327 0
1.0138822 12.741045 0.48059851 43
-1.6557136 -1.5382915 0.73847246 72
-1.603043 -1.5800676 0.66969955 56
-1.4970478 -1.5679594 0.66008377 47
-1.3194648 -1.5042051 0.67264044 47.5
-1.6857458 -1.4310964 0.65556175 66.666664
-1.246878 -1.4814141 0.68171 46.75
-1.1600823 -1.4562585 0.65518683 47.5
-0.95105463 -1.3869705 0.69059992 45.75
-0.8723318 -1.3649282 0.66969633 47.666668
-1.7331434 -1.2909915 0.67225224 67.85714
-0.82235593 -1.3422147 0.64222646 51
-0.65476555 -1.2871571 0.68517512 48.333332
-0.55206984 -1.2566229 0.64414996 25.4
-0.40805742 -1.201715 0.74095738 48
-1.8129412 -1.0659244 0.67259985 73
-1.7790928 -1.1608232 0.68653011 70
-0.34798607 -1.1887069 0.68060613 19
-0.22776659 -1.1519519 0.70112801 8.833333
-0.08683297 -1.0981926 0.67426121 13.8
0.037627172 -1.0623087 0.67814076 8.8000002
-1.8435957 -0.97447383 0.67650443 74.444443
0.11195197 -1.0287375 0.6627993 13.090909
-1.894999 -0.81074619 0.67818952 76.666664
-1.956851 -0.62787336 0.67695665 79.666664
-1.9310144 -0.71197188 0.67003286 76.5
-1.995242 -0.52815682 0.68725008 46.833332
-2.0502305 -0.35434237 0.67596304 70.599998
-1.5674162 -0.3220211 0.68547034 119
-2.1080544 -0.1969154 0.70588905 83.333336
-2.0900655 -0.2335608 0.68031693 86
-2.1413832 -0.09136489 0.67397928 62
-2.190896 0.062647395 0.6972847 83.5
-1.5851675 0.066034749 0.61073756 3
-1.2851059 0.1326886 0.69750249 4.25
-1.3599339 0.22789778 0.60166007 6
-1.2848473 0.21604878 0.68924457 6.3333335
-1.3521827 1.1357831 0.61310333 18
-1.2990365 1.1356186 0.64526099 33.666668
-2.5756648 1.2274237 0.72801614 80
0.95921499 1.3122168 0.64712954 54
-2.5636685 1.4481946 0.70214546 80
0.89647537 1.4817091 0.71331596 53
0.92129499 1.4246343 0.6684345 52.454544
-2.3082767 1.5457029 0.70118773 86.428574
-2.1257844 1.6186237 0.6289894 85.5
0.87239039 1.564368 0.67970145 55.599998
0.82399654 1.711079 0.67686987 57.200001
-1.3882872 1.8667369 0.69489056 91.666664
-1.2619914 1.9058386 0.65684211 78.85714
0.77302998 1.8485491 0.68129474 36
-1.0858753 1.9590539 0.63697231 66
-0.83128399 2.0497987 0.68408012 72.166664
-0.71898884 2.0808954 0.64747351 74.75
0.71017128 2.0751314 0.62509745 23.5
-0.58012617 2.1271293 0.6550042 87.5
0.66908383 2.1761825 0.7088955 21.666666
0.61845326 2.3178277 0.70291072 22.5
0.57285333 2.4602089 0.73204231 21.5
0.47583956 12.569718 0.74900091 37
-1.5754979 -1.5660924 0.81160188 49.25
-1.4061172 -1.5308657 0.81856525 45.75
-1.3133651 -1.500581 0.85091627 48
-1.6868813 -1.4337341 0.78906775 61.75
-1.11584 -1.4396168 0.85069174 48
-0.99466819 -1.3978888 0.80230629 43
-1.742753 -1.2717719 0.82957232 63
-0.78247935 -1.3281428 0.88586253 41.333332
-0.67489654 -1.2945813 0.80011731 46.333332
-0.48791519 -1.2263525 0.82505441 52.5
-0.43164915 -1.2058836 0.85106784 52.5
-1.8048208 -1.1081693 0.81643867 63
-1.7845896 -1.1223185 0.8156932 60.333332
-0.36926413 -1.1850543 0.79053593 36
-0.20910551 -1.1346589 0.82476979 25
-0.055349216 -1.0853642 0.83173341 23
0.028393496 -1.0540477 0.80858141 27.25
-1.8397425 -0.97759455 0.81377298 66.5
0.052181356 -1.0389676 0.84512103 55
-1.8898593 -0.8290329 0.81497103 67.125
-1.9658012 -0.63546568 0.79509145 71.666664
-1.9327462 -0.70072013 0.82493812 70.599998
-1.9871291 -0.54654318 0.81007475 63.833332
-2.0226262 -0.36140069 0.79468018 72.833336
-1.8961903 -0.32374686 0.80746961 58.666668
-1.7680981 -0.3418237 0.81575978 47
-1.5931824 -0.31910351 0.79954988 71.666664
-2.0363834 -0.23121507 0.80330914 62.285713
-1.8874638 -0.20547068 0.80420101 64.25
-1.729221 -0.22269838 0.81593359 54
-1.594112 -0.22464958 0.82295072 48.200001
-2.1404095 -0.047074981 0.77122509 80
-2.0295374 -0.084175877 0.80231351 59.666668
-1.8899103 -0.076350644 0.80474246 64
-1.7239708 -0.070237659 0.81797022 74
-1.6167548 -0.10861908 0.80578572 59
-2.1667759 0.1060259 0.78943419 71
-2.0226719 0.057381775 0.79799926 67.285713
-1.8871179 0.10813347 0.80367744 36
-1.7243134 0.036409307 0.80867797 55
-1.6434478 0.051717997 0.81666601 2
-1.2566836 0.096832938 0.77526838 3.1666667
-1.6890776 0.17126229 0.80304056 33
-1.2532356 0.23064096 0.79183424 2.8
-2.0284991 0.83942783 0.78014767 58.5
-2.4384289 0.98602057 0.77466857 62.5
-2.2657647 0.94447845 0.77252287 78
-2.1744816 0.91316402 0.78070247 56.25
-2.0203965 1.0232986 0.77754444 53.5
-1.9363754 0.94907099 0.77025032 89
-2.4976964 1.1936685 0.76913273 65.5
-2.3238232 1.142792 0.77365285 64
-2.166723 1.0892599 0.77570122 63.200001
-2.0847828 1.1218837 0.77839875 50
-1.3869791 1.0930566 0.77561212 9
-1.2470698 1.1189976 0.80343419 3.5
-2.4624469 1.2128843 0.7704097 48
-2.1671638 1.2859131 0.77643108 59.833332
-2.0361633 1.2541099 0.81239539 85.5
-2.5560799 1.4364756 0.77198279 64
-2.4792333 1.4339476 0.75978571 73.5
-2.3439796 1.3650339 0.773476 56.75
-2.10777 1.4484918 0.76225412 74
-2.0627675 1.4311675 0.77650529 46
0.89966875 1.4716797 0.80190444 53
0.91405278 1.4287603 0.79109383 52
-2.2345943 1.523729 0.77398884 59.5
-2.099777 1.6371483 0.76899254 76
0.87010986 1.5664212 0.82417011 52.599998
0.82119101 1.7154249 0.79095888 54.666668
-1.3693564 1.8747404 0.7804054 92
-1.3437922 1.8860201 0.84548378 89
0.77985853 1.8406689 0.82632154 50.75
-1.0969503 1.9735985 0.8849389 84
-0.97668964 2.0091507 0.80574626 83.166664
-0.82968253 2.0497673 0.8106057 89
-0.6935159 2.0959804 0.77551532 87
0.7176668 2.0473387 0.83252072 21.5
-0.46401078 2.191205 0.87436342 71
-0.37406194 2.2163363 0.83968908 73.833336
-0.28366312 2.2480474 0.7578826 6
0.64242333 2.2449961 0.79306126 20
0.59985447 2.3874316 0.85632086 23
0.63207847 2.278765 0.84983397 21
0.54680729 2.4949794 0.86671656 14.5
1.1409813 7.7122588 0.8489182 40
1.3053244 7.6909318 0.88996971 83
1.9586539 7.8866272 0.82957268 7
1.0091759 8.0354376 0.86126542 43
0.74407393 12.669951 0.810817 32
0.9671371 12.728023 0.80448008 42
-1.5871041 -1.5780387 0.99840569 47
-1.4884883 -1.5605265 0.92022491 40
-1.6813177 -1.4633417 0.99339092 54.400002
-1.2461323 -1.4797617 1.013831 43.666668
-1.1250596 -1.4373354 0.9612819 44
-0.92133003 -1.3600612 1.0381233 37
-0.88325995 -1.354534 1.0444758 42
-1.7394497 -1.2999842 1.0012411 53.75
-0.81765872 -1.3366691 0.93452269 40
-0.71543205 -1.3013008 0.96041137 39.5
-0.53506464 -1.2366683 0.97547328 39.857143
-0.41770768 -1.2000755 0.94413829 55
-1.8216425 -1.0730823 0.91087031 64
-1.7838949 -1.1580707 1.0039135 60.666668
-0.36008504 -1.1779493 0.99391013 56.333332
-0.24846134 -1.1401021 0.97048885 55.400002
-0.076338328 -1.0829957 0.97432876 57.46154
0.01199041 -1.0517828 0.97444212 50
-1.8427272 -0.99265844 0.98293072 62.666668
0.032160845 -1.0444539 0.96043485 61.5
-1.8873777 -0.84607404 0.98649079 56
-1.9532887 -0.64748418 0.94884753 66
-1.9275734 -0.71342504 0.99661326 61.5
-1.9900339 -0.54150176 0.96710998 54
-2.1647198 1.6039572 1.0248424 82.666664
0.85985112 1.604149 0.9455387 55
-1.9094274 1.6985644 1.0194674 76
-1.6625897 1.7813536 1.0140845 76
0.82885039 1.7084099 0.96725196 60.299999
-1.478431 1.8381726 0.95605195 78
-1.2552937 1.9228231 1.0193539 80
0.79044306 1.8154624 1.002939 57.5
-1.1222262 1.9664539 0.95348573 84
-0.94263411 2.0143433 0.93981886 79.5
0.72224444 2.0196581 0.98948461 20.333334
-0.62674129 2.1319714 1.036448 69.5
-0.52785665 2.1654701 0.96884161 70.833336
-0.33197328 2.2256689 0.97812968 50
0.67161363 2.1601822 0.99131554 21
0.58118075 2.4222615 0.96881104 20.666666
1.4899205 7.7585506 0.93151832 84
1.5132529 7.7483644 0.91523659 76
1.8639336 7.8747921 0.96659827 67
2.7713501 10.297844 0.97561622 46
0.22732945 12.480647 0.91159451 39
0.85096747 12.700763 1.0035028 40
-1.6638261 -1.5520378 1.1143805 62.333332
-1.3687937 -1.5154337 1.1303256 40.5
-1.3191137 -1.5035665 1.1389542 41
-1.7112947 -1.4017856 1.1026965 59.5
-1.2445891 -1.4731274 1.1126041 40
-0.93669635 -1.3734157 1.0959529 40.5
-1.7471789 -1.271704 1.1081871 51.333332
-0.8200742 -1.329031 1.109745 36
-0.62996018 -1.2645453 1.1282315 44.75
-0.52021247 -1.228142 1.1206926 37.666668
-1.8046366 -1.0981008 1.1223941 49.666668
-1.7764608 -1.1735079 1.1028689 50
-0.3575916 -1.1689348 1.1536487 53.333332
-0.19676805 -1.1179212 1.1381284 54.666668
-0.086281106 -1.0806339 1.1184756 51.5
-1.8448629 -0.97308767 1.1283062 52.400002
0.015688788 -1.0445426 1.0830989 56
-1.89268 -0.8337428 1.139369 53
-1.9359226 -0.70150757 1.1344657 56.75
-1.9882145 -0.54885459 1.1252346 59.5
-2.4583604 1.4984362 1.1212394 149
-2.3450751 1.5456086 1.1684229 73
-2.1290627 1.6185851 1.1422782 68
-1.933478 1.7006617 1.1444974 74.333336
-1.6236672 1.7906543 1.0779554 81
0.81132829 1.758268 1.1071962 55
-1.4051815 1.8727653 1.1649238 74.199997
-1.2675267 1.9167496 1.0938505 80.75
-1.1805784 1.9363756 1.1918036 76
0.74583334 1.8639859 1.0729349 2
0.78176576 1.8410025 1.1286247 52.25
-1.0524001 1.9745899 1.0748265 72
-0.79832345 2.0800693 1.1739665 66
-0.74324906 2.0986035 1.1328915 60
0.71195334 2.0400438 1.0833913 23
-0.67080146 2.1210778 1.0879298 65
-0.51933295 2.1687398 1.1192541 69.5
-0.43527246 2.1963475 1.1330816 61
0.67594004 2.1550405 1.1198627 22.333334
0.6263175 2.2868152 1.1635158 21.5
1.4409232 7.7327361 1.077482 75
1.7703221 7.8489027 1.1021104 73
0.17374097 12.479997 1.1991676 40
-1.5774281 -1.5808847 1.3218532 41.5
-1.4269433 -1.5322392 1.2225649 43.5
-1.7288474 -1.3788141 1.2036812 62
-1.271664 -1.473689 1.2321148 38
-1.099924 -1.42161 1.2833695 40.333332
-0.9865303 -1.3831153 1.2745476 38.25
-1.7772652 -1.226159 1.2204181 61
-0.77690005 -1.3101512 1.3168985 44
-0.70448339 -1.2821457 1.2849802 42.200001
-0.54068941 -1.2293695 1.2817228 47
-1.8188097 -1.0754334 1.2343782 51
-0.45150954 -1.1943332 1.3216387 46
-0.38507313 -1.1769278 1.2805259 47.25
-0.21634987 -1.1204034 1.2739468 55.142857
-0.10037018 -1.0791614 1.2630446 53.599998
-1.8678262 -0.93252587 1.2573335 49
-1.9066775 -0.79755402 1.2551277 50
-1.9591579 -0.65983927 1.2619059 54.5
-1.9454873 -0.66458744 1.2647065 52
-1.9994915 -0.53666306 1.2819097 62.75
-2.2007885 0.14261101 1.3185316 150
-2.5601096 1.1495382 1.3127314 91
-2.6051154 1.474156 1.2943033 75.5
-2.4193223 1.5237049 1.2043732 80
-2.3450913 1.5531988 1.3106467 67.5
-2.1216006 1.6385998 1.2736742 73.5
-2.0054843 1.6682277 1.255499 73.333336
-1.6003087 1.7960725 1.2772206 75
-1.549705 1.8279836 1.3110861 80.25
-1.4112937 1.8723354 1.2507658 70
-1.3114144 1.8903161 1.3142091 68
0.73953718 1.8581784 1.2117034 3
0.7728337 1.8488681 1.2572455 42
-0.93150061 2.0350337 1.29105 65.333336
-0.85840368 2.0591085 1.2632232 64
-0.73695815 2.0981662 1.2142887 68
0.70966154 2.0375218 1.2820799 21
-0.68659246 2.1106033 1.3047029 67
-0.55161971 2.1539378 1.2298645 65
0.67107433 2.1616328 1.2305045 22
0.5950886 2.3725114 1.256794 22
0.62744021 2.303493 1.3204422 21.5
1.3630213 7.7099185 1.2171994 71
1.0629489 7.9167538 1.2300013 43.5
0.94382399 8.2312574 1.2875679 45
0.2436706 12.554106 1.2982795 4
0.77336234 12.684676 1.251191 37
-1.6675997 -1.5527 1.4583617 51
-1.578228 -1.5878918 1.4353304 44
-1.4655416 -1.5385157 1.420429 36.5
-1.7176249 -1.417094 1.442385 50.5
-1.0905119 -1.4103798 1.4113935 31.5
-1.7576327 -1.2937584 1.4274169 55
-0.81508321 -1.3149142 1.4094312 38
-0.65736818 -1.2651579 1.4436218 36.5
-0.48696697 -1.2064576 1.4334259 35
-1.817926 -1.1256278 1.4515357 53.5
-0.36034316 -1.1638613 1.419277 46
-0.22163431 -1.1169652 1.4029088 45.25
-0.095191568 -1.0720454 1.425697 44
-1.8704076 -0.95638841 1.4719505 54
-1.9387503 -0.75906497 1.4947811 55
-2.0615354 -0.36696434 1.3677242 69
-2.1162691 -0.21417788 1.4111838 62
-2.1625342 -0.075777858 1.4080462 60.5
-2.2178807 0.08883547 1.435542 60
-2.2813511 0.28231883 1.4162924 56.5
-2.2491808 0.2118742 1.4488403 65
-2.2898335 0.33482659 1.3918475 10
-2.5875382 1.226138 1.4528161 59
-2.6187766 1.4707223 1.4146587 75.333336
-2.31459 1.5731715 1.4328433 65.333336
-2.1643119 1.622892 1.4108577 64.666664
-1.7374581 1.7641495 1.4927363 75.5
-1.6624501 1.8024607 1.4620708 70
-1.5623744 1.8210535 1.3933103 69
-1.4537488 1.8467318 1.45206 29
-1.0849022 1.9853417 1.4427725 66.333336
-1.0041909 2.0138316 1.4018344 61.5
-0.80905902 2.0722258 1.4206517 56
0.70891196 2.0530038 1.4274009 18.166666
-0.38205186 2.2293289 1.4560438 44.666668
0.67290348 2.1414702 1.4571823 22
0.61794037 2.3025005 1.4263823 20.5
0.5507254 2.4811513 1.4187121 15.333333
1.2924808 7.6942406 1.362733 75
1.0260104 8.0236273 1.4164872 44
0.1139041 12.505415 1.4590442 5
-1.6751595 -1.53441 1.5726893 50.5
-1.3454492 -1.505994 1.6073802 39
-1.7166481 -1.4198278 1.5446724 51.333332
-1.2628825 -1.4730977 1.5612035 36.25
-1.1384034 -1.4338511 1.549154 38.5
-1.7680709 -1.2636817 1.5566026 48
-0.90520215 -1.3434137 1.5370584 40
-0.81321132 -1.3129708 1.5425342 37.599998
-0.54967368 -1.2226105 1.5296328 38.25
-1.8318992 -1.0810771 1.5768269 48.25
-1.7951266 -1.181404 1.6217903 45
-0.47174439 -1.1923058 1.5425454 41
-0.37220985 -1.1666254 1.588933 33.25
-0.22838835 -1.1156106 1.5599004 32.333332
-0.117313 -1.0768566 1.5693202 38
-1.8754821 -0.93630981 1.587574 50
-1.8994409 -0.8602559 1.5348713 49.5
-1.966468 -0.65843403 1.5392258 62
-1.9427409 -0.74030852 1.5969901 50.5
-2.0039604 -0.55940938 1.5964999 53.75
-2.0649548 -0.37086996 1.5986946 57.5
-2.1088808 -0.24860597 1.6264247 56
-2.2125287 0.10594197 1.5065297 61
-2.2940614 0.30446485 1.5469199 4
-2.5896859 1.229074 1.5462289 59
-2.5880516 1.4842904 1.5809461 67.5
-2.4989464 1.5064405 1.5988687 62
-2.3617973 1.5668179 1.5768216 69
-2.139034 1.6226168 1.5279379 58
-1.9752759 1.6759866 1.6189356 66
-1.8759898 1.732981 1.6218394 67.5
-1.7272317 1.7698269 1.5556331 69
-1.6039139 1.7955146 1.6021361 68
-1.230926 1.9400796 1.5602421 68
-1.1576253 1.9647841 1.5611334 65
-0.93540108 2.0331516 1.5473452 56
0.7037884 2.0504327 1.5565109 20.75
-0.52521127 2.1835544 1.5895923 52.599998
-0.36338437 2.2334976 1.5661631 51
0.65911013 2.182045 1.5957795 20.333334
0.55917633 2.4806168 1.5728931 17.666666
0.98449987 8.1209545 1.5986773 45
-1.6803057 -1.545483 1.7185196 53
-1.7350701 -1.372117 1.7256798 53
-1.279088 -1.469667 1.7567242 29
-0.95339072 -1.3580017 1.7300971 36
-1.7931697 -1.2111102 1.7443603 52
-0.68380278 -1.2641954 1.7261888 38.666668
-0.56487137 -1.2235676 1.7462324 40
-1.8495718 -1.0520182 1.767886 53
-0.37204653 -1.162311 1.7093912 29.4
-0.24005547 -1.1153202 1.7443956 26.4
-1.871525 -0.96111405 1.6661397 47
-1.9047474 -0.85453081 1.7125036 48.666668
-1.9614432 -0.69403052 1.7001452 54.5
-1.9498793 -0.70822626 1.7476722 53
-2.0103226 -0.53689599 1.7601714 60.333332
-2.0610671 -0.38597852 1.7340358 61.5
-2.1114886 -0.23471178 1.7316778 55.5
-2.0491562 -0.23211582 1.7972243 83
-2.1507664 -0.073218718 1.7465093 73
-2.0389588 -0.078830935 1.7952428 85
-2.1760409 0.12773848 1.7795205 32
-2.0614467 0.074633501 1.7956095 48.5
-1.7635599 0.26362073 1.7981642 83
-1.3598363 0.22884002 1.797448 81
-0.96379542 0.25162691 1.7964963 83
-1.6793764 0.33987427 1.7954258 64
-1.3603752 0.32259706 1.7945894 80
-1.2755691 0.30266488 1.7960228 80
-1.029712 0.44551805 1.7986673 86
-2.0628037 0.57869989 1.7875293 87
-1.7476947 0.59202838 1.7975506 68
-2.1780663 0.70250511 1.7823929 80.199997
-2.0035913 0.63276136 1.7863998 78
-1.7407435 0.61265951 1.7978216 74
-1.5648397 0.60138005 1.7974714 63
-1.195176 0.64464223 1.7978309 77
-0.97585332 0.70375991 1.7965516 84
-0.70442015 0.66732347 1.7998155 85
-2.2371271 0.88209116 1.7858833 69
-2.0567474 0.81482428 1.783308 85.666664
-1.9499094 0.80868602 1.7904428 90
-1.719241 0.77848291 1.792231 82
-1.5989897 0.85659361 1.7931702 87
-1.1833746 0.8651529 1.7991699 92
-0.93944222 0.83623785 1.79714 78
-0.8400867 0.85228497 1.7980155 72
-2.1633022 0.9292236 1.7818006 58
-2.0281284 0.9805553 1.7864699 83
-1.9217203 0.98252076 1.7844397 93
-1.6905808 0.95939767 1.7910564 89
-1.551742 0.99197096 1.7959255 83.5
-1.2393948 0.98507541 1.7979764 92
-0.64531898 0.99458152 1.796204 72
-2.446089 1.1412761 1.7746209 88
-2.1546094 1.1278425 1.7769043 77.75
-2.0250056 1.1365482 1.7771207 82.666664
-1.89622 1.1656142 1.7869891 75
-1.6545072 1.1256118 1.7841879 86
-1.5733099 1.1320029 1.7887361 84.800003
-1.1430507 1.1483123 1.7943946 82.5
-2.6200051 1.3250245 1.6951238 56
-2.184535 1.3259103 1.7759627 80
-2.0451 1.3204045 1.7757385 79
-1.5735819 1.3140911 1.7849467 82
-1.4357635 1.2292466 1.7934321 81.333336
-1.1543642 1.2664843 1.7908885 93.5
-0.99504673 1.307404 1.7948325 79
-2.5832326 1.447286 1.7368903 78.666664
-2.4814029 1.4005146 1.7693057 83.5
-2.1449666 1.3896344 1.7686254 85
-2.0007267 1.4455092 1.7688185 80
-1.8636895 1.3546271 1.7873474 83
-1.5166904 1.396153 1.7858742 88
-1.4279084 1.4068933 1.7855252 82
-1.3157591 1.375092 1.7901717 69
-1.0920463 1.4292433 1.7892525 76
-1.0067085 1.4372482 1.7918533 70
-0.84372759 1.4449351 1.7959548 68.5
-0.50695544 1.4705758 1.7994002 71.5
-2.4312603 1.5318921 1.6630462 65
-2.3571072 1.5572698 1.7243608 68
-2.127954 1.59281 1.7715518 85.5
-2.0134447 1.5782977 1.7684727 78
-1.8724347 1.5478337 1.7792479 79.5
-1.5546522 1.5289934 1.7830001 85
-1.4258387 1.5743748 1.7786204 74.400002
-1.2647042 1.5387641 1.7912656 65
-0.97200108 1.5965455 1.7878201 74.199997
-0.85669881 1.6064694 1.7928238 71
-0.65802377 1.5613712 1.7961301 71.666664
-0.46031606 1.6211967 1.7961737 68
-1.9728577 1.696823 1.751274 82
-1.8979441 1.7124113 1.6915702 62.333332
-1.7690735 1.7419509 1.773533 74
-1.4416826 1.7320645 1.7767994 84.25
-1.2513075 1.7181809 1.7892169 66
-0.84287524 1.7568623 1.7849107 72
-0.70203567 1.7299981 1.7891226 62.5
-0.52867264 1.6931138 1.7928166 70.5
-0.38306743 1.7312163 1.7967834 67
-0.15377992 1.7672398 1.7999502 70
-1.3962668 1.8662516 1.7391658 71.666664
-1.2855432 1.9090859 1.7305547 71.666664
-1.1346861 1.8795625 1.7826835 72
-0.90650058 1.8061808 1.7790731 72
-0.85861778 1.8632742 1.7879448 70.333336
-0.68978691 1.9206901 1.7789457 60
-0.58043402 1.858855 1.7884978 62
-0.38061154 1.8594491 1.7952121 67.5
-0.23477551 1.8597419 1.7931782 61
-1.0953788 1.983871 1.6558582 59
-1.0368088 2.0010095 1.7178994 52
-0.79534435 2.0111217 1.780315 69.333336
-0.72833145 2.0212045 1.7851591 69
-0.52280116 2.0334415 1.7807066 64.5
-0.3150495 1.984489 1.7945058 68
-0.20045218 2.0576637 1.7933983 67.5
-0.12266126 1.9960771 1.7932861 65
0.049069684 2.0212245 1.7974433 66
-0.65975511 2.1347673 1.7424984 54.799999
-0.54604793 2.1786346 1.685287 49
-0.417431 2.1907077 1.7738538 60
-0.18307114 2.1577327 1.7922488 67
-0.060652852 2.2054729 1.7901497 61.400002
0.14844821 2.2382493 1.7946571 64
0.16688041 2.1547678 1.7963139 64
0.59797508 2.201 1.7988578 19
0.65233207 2.178782 1.7302998 12
-0.32291481 2.2613308 1.651271 3
-0.2756488 2.3159761 1.7682527 16
-0.046757895 2.3045454 1.7893144 62
0.069136493 2.341459 1.7950283 61.333332
0.29415798 2.3843131 1.7957913 65
0.59543234 2.3124301 1.740157 6
0.62332743 2.2841723 1.6839448 19
-0.14655165 2.5220041 1.7951564 17
0.10581145 2.4239967 1.7876233 40.333332
0.22709501 2.4699569 1.7867254 28.5
0.44662273 2.4433296 1.7990726 64
0.50897545 2.492723 1.7399259 41
-0.19934219 2.6378274 1.77782 54
-0.004742193 2.6886392 1.7804657 59
-0.025249828 2.7879255 1.7785333 59
0.39716828 2.7154369 1.7937399 56
0.46200922 2.800544 1.7949039 59
-0.23178156 2.8828461 1.7824615 41
-0.083500259 2.9517233 1.7710137 60.666668
0.15430373 2.9343235 1.7758701 62.5
0.53341937 2.8652809 1.795652 4
-0.074722283 3.0956159 1.7780783 60
0.14748015 3.0933285 1.7700752 56
0.34110075 3.0876966 1.7767831 60
-0.0069049178 3.1744606 1.7726535 57
0.099672154 3.2288218 1.7740639 57
0.3530497 3.2024639 1.7729768 56
0.13173546 3.3678651 1.7836802 60
0.36913484 3.3293974 1.7769731 56
0.56837296 3.381083 1.7802358 55
0.21013595 3.461601 1.7787403 32
0.37251893 3.5189319 1.7797973 54.5
0.61740756 3.5668049 1.7753125 54
0.37103629 3.7255056 1.7794 51
0.64804161 3.7113657 1.7733308 58
-0.11880828 3.7569585 1.7780482 62
0.50227654 3.7796283 1.7812033 51
0.63211221 3.8470755 1.7885419 61
-0.12595804 3.9219737 1.7732128 54
-0.12975627 4.0939941 1.7696604 57
0.11335592 4.0913281 1.7780372 56
0.66329968 4.0885553 1.7810205 50
0.79756159 4.1034746 1.7840656 54
0.92939311 4.1245112 1.7862431 4
-0.14201553 4.3002577 1.7719311 60
0.12788342 4.2831836 1.7744254 58
-0.13390829 4.4238544 1.7623705 38
0.14718424 4.4769444 1.7689351 54
0.38455975 4.4717731 1.7790433 51
1.0099493 4.4885259 1.7779034 46
1.0999799 4.4625382 1.7758397 0
-0.036008824 4.5368013 1.7751857 43
-0.065202326 4.7542381 1.7532562 51
0.16043113 4.7084322 1.7654704 53
0.42431468 4.6762443 1.7698823 53
0.051207315 4.8143024 1.7498566 48
0.15998597 4.8782988 1.758304 49
0.47547197 4.913908 1.771777 52
0.70732981 4.8956199 1.7773765 49
0.27182716 4.9650974 1.7647949 50
0.52563256 5.1915622 1.7723137 41
0.78339452 5.1439342 1.7751542 44
0.26768816 5.3478203 1.752916 37
0.39899784 5.3890858 1.753194 34
1.0962166 5.38381 1.7764434 36
0.51858044 5.4243751 1.7620002 35
0.64246452 5.4782605 1.7657236 38
0.86761314 5.4031582 1.7722851 34
1.2055959 5.6476445 1.7682348 35
0.95619243 5.7082944 1.7669228 34
1.3401036 5.9686456 1.7749447 35
0.68939942 6.0592389 1.7499367 28
0.82969803 6.048707 1.7470235 35
0.95694417 6.0455284 1.7581669 35
1.0914104 6.0688586 1.7659281 30
-0.036487896 6.2199173 1.7731422 29
1.4882699 6.3444066 1.7766553 32
-0.003118831 6.6397386 1.7632459 32
1.3779871 6.8733282 1.7485863 22
1.5724963 6.7818422 1.7624935 30.5
1.2330581 6.9339671 1.7448882 31
0.041060638 7.1217175 1.7590493 35
0.38143802 7.0515022 1.7663072 34
-0.030400712 7.4386353 1.7231125 4
0.12407382 7.4772182 1.7150294 24
0.46294308 7.5399556 1.7479364 23
0.087462351 7.7347732 1.7558433 25
2.0873203 7.8679104 1.7361583 4
1.9461119 8.0061989 1.7241179 32
0.57599789 8.2102652 1.7604021 30
0.9263013 8.1026983 1.7601544 44
0.11783437 8.6432705 1.6946322 27
0.3255744 8.6364412 1.6932613 25
0.5124225 8.6497183 1.7085201 29
0.69819808 8.6785879 1.7103287 26
0.69253963 8.9185762 1.7377113 27
1.0496442 10.348386 1.664425 26
0.80728394 10.420311 1.6557385 36
-1.5097334 -1.5254575 1.8340396 83
-1.3990822 -1.5054303 1.821133 71
-1.5224411 -1.4798615 1.8226827 78
-1.4252511 -1.4265095 1.8258238 78.333336
-1.251938 -1.4379978 1.837546 82
-1.0680472 -1.3941417 1.8326324 72
-0.98524153 -1.3683717 1.8123667 56
-1.5552212 -1.3137158 1.8246665 76
-1.4644327 -1.3058597 1.8276963 77
-1.3086381 -1.2884787 1.8398894 80
-1.0996674 -1.2662362 1.8397951 80.333336
-0.99283379 -1.2604645 1.8375643 73.5
-0.83263081 -1.2554034 1.845767 88.666664
-0.70991778 -1.2734424 1.8473016 78
-0.52170616 -1.2139623 1.8183473 31
-1.5713977 -1.1263794 1.8218205 75
-1.4164091 -1.163743 1.8315601 76.333336
-1.1300375 -1.1134698 1.8557686 64.400002
-0.99688977 -1.13203 1.8541199 62.5
-0.81417978 -1.1007315 1.8475188 93
-0.66669905 -1.1488415 1.8525261 84
-0.51658076 -1.1143414 1.8514161 74.375
-0.37301287 -1.1101683 1.8492917 56.42857
-0.20876223 -1.0970318 1.8575681 60
-0.14284633 -1.0792487 1.8108672 29
-1.6642296 -0.95016712 1.8191906 72
-1.5768442 -0.9557212 1.8240199 70.333336
-1.4572533 -1.0079292 1.8316659 74.666664
-1.2206115 -0.97328287 1.8356278 84
-1.1077105 -0.93831396 1.8386309 90.199997
-0.97412211 -1.0268574 1.8413279 90
-0.82576919 -0.96250206 1.8461254 99.75
-0.66320443 -0.98036808 1.8433069 76.5
-0.51369959 -0.96075934 1.8383259 57.833332
-0.37545818 -0.95946437 1.8435782 48.285713
-0.2400526 -0.99156696 1.8465286 43.25
-1.6982106 -0.77279472 1.8159423 75
-1.5575172 -0.83239907 1.8225049 68
-1.4369206 -0.8443439 1.826713 75
-1.2445704 -0.81518871 1.8344703 93
-1.1277316 -0.79941964 1.8356987 97
-0.96456724 -0.80264521 1.8322214 83.5
-0.83491182 -0.82843959 1.8331009 78.5
-0.6776619 -0.8289268 1.8376131 76
-0.53437144 -0.82438403 1.8378652 66.25
-0.39507288 -0.81840944 1.8433106 56.799999
-0.27790549 -0.83138686 1.8471965 51
-1.9453247 -0.73062444 1.8069352 75
-1.6925151 -0.62022853 1.8177042 72
-1.5742919 -0.70413893 1.8223165 72.25
-1.470257 -0.70108098 1.8247117 81
-1.2604969 -0.66956067 1.8283163 90.75
-1.1149609 -0.65477496 1.8262048 80.25
-0.96999717 -0.65711498 1.8298001 86.5
-0.80835789 -0.66678423 1.8333592 84.666664
-0.6799525 -0.68591583 1.8324087 80.555557
-0.53509575 -0.66544461 1.8331457 80
-0.38361877 -0.69417989 1.8383662 66.800003
-1.9723029 -0.56234258 1.8061875 76
-1.6822996 -0.54593414 1.8147649 72.333336
-1.5580158 -0.540842 1.8214101 75.25
-1.2883881 -0.52606833 1.8259948 91.75
-1.1390011 -0.52766526 1.824011 74.25
-0.95543927 -0.5109458 1.8256547 84
-0.82327574 -0.52572036 1.8272412 87.375
-0.68155915 -0.50868106 1.8279539 84.5
-0.51355249 -0.53658962 1.8325669 82.375
-0.3856115 -0.53394699 1.8369957 79
-2.0018435 -0.3864373 1.8031039 83
-1.7125361 -0.39489055 1.8115793 75.5
-1.5750597 -0.39120483 1.8193524 78.5
-1.2851371 -0.38537994 1.8148762 75.199997
-1.1426307 -0.4022527 1.8202672 72.666664
-0.9991625 -0.36171114 1.8215688 84.199997
-0.80928993 -0.36665702 1.8235425 84.625
-0.66700423 -0.38366976 1.8293855 83.125
-0.5325194 -0.35703528 1.833398 79.833336
-0.42657101 -0.37100714 1.8341979 77
-2.0139096 -0.2073378 1.8006619 90
-1.7368046 -0.25826815 1.8090097 80
-1.5873343 -0.24295893 1.8178761 86
-1.3574951 -0.23092836 1.8078347 77
-1.2454805 -0.2606113 1.8137561 79.25
-1.1227118 -0.21519677 1.8163166 79.400002
-0.9928475 -0.23122887 1.8116835 84.666664
-0.8185091 -0.21516615 1.8204246 83.333336
-0.68504685 -0.23027457 1.825115 80.85714
-0.53519207 -0.19910824 1.8302028 79.400002
-0.44907141 -0.24967837 1.8322684 81
-1.7342807 -0.10322058 1.8089767 82.5
-1.5935712 -0.09462864 1.8129323 86
-1.3666087 -0.085959621 1.8052852 82
-1.2444493 -0.089631863 1.8110689 82
-1.1055614 -0.064835496 1.8118317 84.5
-0.95888919 -0.06296853 1.8149772 83.5
-0.83190233 -0.076276459 1.8187714 82.272728
-0.6732142 -0.068654187 1.8227558 81.75
-0.54209423 -0.072818317 1.8261082 80.14286
-2.0101569 0.12884532 1.8014082 3
-1.7373172 0.062418319 1.8061676 83.25
-1.5968411 0.05236432 1.8115009 81.5
-1.36923 0.05886469 1.8027711 85.5
-1.2670181 0.083955526 1.8059542 85
-1.0997531 0.074071527 1.810087 84
-0.95953351 0.086730197 1.8087271 85
-0.81371236 0.070907801 1.8162708 81.545456
-0.68081075 0.081463702 1.8208706 82.599998
-0.55992275 0.079577282 1.824823 82.85714
-1.7230424 0.21612485 1.8035933 86
-1.5940449 0.19984253 1.8074372 88.25
-1.3710554 0.17801876 1.8009158 86
-1.2543036 0.23497722 1.803344 78.75
-1.1041369 0.21304125 1.8086401 84.25
-0.94519085 0.21281427 1.8220966 66
-0.81717157 0.22438812 1.8197485 71.5
-0.66936976 0.22210582 1.8193325 84.25
-0.53724843 0.22938928 1.8202822 82.714287
-1.7416815 0.41415367 1.8039004 66.333336
-1.5894645 0.34910753 1.8078686 82.25
-1.3538764 0.37715891 1.8050398 102
-1.2593719 0.4148469 1.8061024 91
-1.14833 0.38011521 1.8083357 79.199997
-1.0044396 0.35846671 1.8059071 82.75
-0.82268888 0.37629795 1.8104775 82.181816
-0.6798262 0.37850744 1.8141496 81.14286
-0.53521132 0.36383384 1.8149122 75.599998
-0.44857338 0.39979157 1.8219396 81
-1.6805043 0.52838659 1.8042207 69
-1.5791887 0.50047278 1.8076699 69
-1.3524343 0.47307909 1.807665 96
-1.2657011 0.54621857 1.8038392 95.5
-1.1344782 0.54465812 1.8017364 78.666664
-0.97137308 0.53036773 1.8039242 77.199997
-0.81232494 0.51642197 1.8075914 77.85714
-0.67748481 0.53259408 1.8108599 77.333336
-0.52495295 0.51455998 1.8144945 79.800003
-0.42429549 0.52626145 1.8158818 79.5
-1.6635135 0.6960417 1.804512 69
-1.591297 0.69154 1.8017335 73.5
-1.4978429 0.62580669 1.8072857 80
-1.2777591 0.68365002 1.8054819 99.5
-1.1140288 0.67389101 1.8043246 80.666664
-0.93857843 0.65915459 1.8031615 77.666664
-0.80505055 0.67601109 1.8076401 77.85714
-0.65251935 0.6564883 1.8089098 77.199997
-0.53127366 0.68737358 1.8135663 78.5
-0.39916906 0.71108657 1.8142152 81.666664
-1.5570269 0.7615695 1.8017067 86
-1.472694 0.77148962 1.8058769 85
-1.267982 0.82007664 1.8040165 96.333336
-1.1260195 0.82367915 1.8052047 94.75
-0.9977051 0.7908864 1.8039316 88.5
-0.81867945 0.81548142 1.8076552 75
-0.67624992 0.82703191 1.8078622 74.333336
-0.49561453 0.82961923 1.8128428 74.333336
-0.3702693 0.83018744 1.8158977 80
-1.4425592 0.91824389 1.8027366 79
-1.2695092 0.92547065 1.8051392 98
-1.1224051 0.9949953 1.8047689 92
-0.96198112 0.92069554 1.8086182 97
-0.8331992 0.9991414 1.8092718 95.599998
-0.67108476 0.94919604 1.8066345 72.75
-0.53115994 0.97576159 1.8075491 76
-0.38478759 0.97483587 1.8154001 75
-0.27432549 0.9825325 1.8199371 80
-1.4071639 1.0690176 1.8021182 87
-1.2261664 1.078414 1.8007404 89
-1.1265905 1.118946 1.8036025 88.5
-0.9788928 1.1345787 1.8051006 84.5
-0.81966943 1.1316401 1.8097314 86
-0.67210102 1.117551 1.8131293 87.833336
-0.51537913 1.1161076 1.8118378 85.428574
-0.38421103 1.13503 1.8141288 86.85714
-0.24226207 1.1189481 1.82233 76
-1.0800517 1.2733595 1.8031137 85
-1.0052015 1.2935503 1.8038989 76
-0.80046797 1.2896183 1.8033371 78.666664
-0.69100684 1.2481475 1.8077232 79.666664
-0.52984732 1.2819377 1.8112313 78.571426
-0.35703218 1.2722203 1.8149514 80.25
-0.21968105 1.2683494 1.8184712 76.199997
-0.11578333 1.2863486 1.8274281 62
-0.95481098 1.4540726 1.8044161 79
-0.67321813 1.3907776 1.8038604 74.5
-0.56891888 1.4571613 1.8057599 67.333336
-0.3896485 1.4161079 1.8092773 76
-0.24084023 1.4282939 1.8122609 74.375
-0.09273608 1.4364066 1.8130809 70.75
-0.51707029 1.5935155 1.8011824 72
-0.36456087 1.5709773 1.8061877 72.75
-0.21307401 1.5788997 1.8068829 72.166664
-0.073520377 1.5795354 1.8109699 71
0.059914965 1.5974855 1.8129786 73.333336
-0.98025244 1.7487527 1.8177189 29
-0.36436561 1.7518469 1.8032249 69
-0.18276483 1.702781 1.8028321 74
-0.042851027 1.7207512 1.8063707 73.199997
0.07726609 1.7417953 1.8062824 75
0.19159186 1.7270117 1.8163606 69
-0.26878697 1.9086576 1.8021508 68
-0.066476949 1.8465867 1.8021854 70.333336
0.062785879 1.8708 1.808116 66.599998
0.22361739 1.8848732 1.8089138 68.571426
0.36962569 1.8898548 1.80996 66
0.1045212 1.9595532 1.8035409 69
0.23115472 2.0367742 1.8048319 68.5
0.371941 2.0146687 1.8081887 66.199997
0.50494075 2.0556056 1.8095514 64.333336
0.018385034 2.1102109 1.806892 39
0.29187804 2.1602783 1.8059822 74
0.39071733 2.1542144 1.8055403 66
0.51654029 2.1919682 1.8112233 67.5
0.37367511 2.2917981 1.8070022 67.5
0.53810519 2.3113887 1.8074063 35
0.34165949 2.687489 1.8063937 21
0.47677153 2.7300711 1.8043522 22
0.29283649 3.5411804 1.8008343 37
