# .PCD v0.7 - Point Cloud Data file format
VERSION 0.7
FIELDS x y z intensity
SIZE 4 4 4 4
TYPE F F F F
COUNT 1 1 1 1
WIDTH 117
HEIGHT 1
VIEWPOINT 0 0 0 1 0 0 0
POINTS 117
DATA ascii
0.088430688 3.4077377 -0.90207332 5
0.096313044 3.668838 -0.90710253 6
0.099000499 3.9167116 -0.91660857 10
0.69638193 3.9757807 -0.90046912 7
0.093300715 4.1487598 -0.91673267 11
0.5938828 4.380012 -0.90596044 9
-0.062657401 4.5598507 -0.9250257 9
-0.056349132 5.0898294 -0.93087834 1
-0.059650976 5.6686592 -0.94556361 4
-0.0013264001 6.0980325 -0.90993887 1
-0.072204962 6.1939602 -0.94054025 2
0.6290037 2.3224952 -0.75328416 8
0.2800625 2.4532368 -0.8584289 12
0.34084117 2.5315051 -0.85618317 11
0.55778241 2.4156787 -0.8500042 4
0.17663054 2.693006 -0.88620251 13
0.17924385 2.8170805 -0.88704312 12
0.36840165 2.735395 -0.86530209 12
-0.052264027 2.9328442 -0.89248681 13
0.11290075 2.8788419 -0.87071943 14
0.17796633 2.9592874 -0.88005733 9.5
0.4849335 2.9228957 -0.86510062 6
0.6440205 2.9821098 -0.88586891 4
0.20981763 3.0785937 -0.88125753 7
0.60566038 3.11923 -0.86152756 7
0.31703097 3.226145 -0.86762309 5
0.58064884 3.2688429 -0.88503772 5
0.38682407 3.7040744 -0.88268965 9
0.64302105 3.6273749 -0.8922267 9
0.044368755 3.9056032 -0.88476741 10
0.52945834 3.9768867 -0.88132161 7
0.12308948 4.0735869 -0.88646299 7
0.2320123 4.250392 -0.87914538 8
0.69750714 4.2447338 -0.88150156 29
0.75090212 4.2271042 -0.83507085 60
0.60218096 4.6027503 -0.86109436 57
0.56472659 4.7091436 -0.78249317 58
0.51899499 4.8700585 -0.75569761 45
0.45508069 5.055552 -0.8151294 36
0.39150786 5.134738 -0.84117496 27
1.1742569 5.4022222 -0.81023514 61
0.085610852 6.2336817 -0.89841223 1
0.1684031 6.3451281 -0.89880061 1
0.28690892 7.9981294 -0.81978506 0
0.88521534 1.56452 -0.62376022 76
0.82416111 1.7557156 -0.6111877 75
0.77143282 1.9052633 -0.67652512 4.6666665
0.72555381 2.0603657 -0.63556302 35
0.75490379 1.9989858 -0.68668413 5
-0.2513108 2.2168646 -0.66752243 23.666666
0.6972816 2.1457469 -0.62647843 36
-0.23860234 2.2662301 -0.67544472 2
0.66352421 2.258589 -0.70689285 26
0.58096337 2.4694285 -0.62942016 20
0.57704943 4.7106066 -0.70999807 50
0.31396645 4.8340144 -0.6356262 3
0.39249426 5.1677375 -0.72970694 25
1.2558566 5.224637 -0.73502618 78
1.3818798 5.2489858 -0.67329288 41
0.27034354 7.693541 -0.63358694 19
1.2500327 -0.68612254 -0.45531249 59
1.4238024 -0.63102931 -0.48257098 49.666668
1.5930446 -0.56212699 -0.5108977 57.5
1.5453914 -0.39265275 -0.51301795 71.285713
1.4822916 -0.20492922 -0.47949049 67.333336
1.5141046 -0.29999232 -0.47613007 70
1.4398497 -0.075750202 -0.47492477 54.5
1.3820487 0.09910515 -0.45712101 32
1.3025941 0.28432751 -0.45422891 70
1.3553281 0.19450228 -0.45863053 82
1.035499 1.1362376 -0.49203137 16
0.97725028 1.3194932 -0.54497951 76.666664
0.94256526 1.4233063 -0.52285552 72
0.88637078 1.5768418 -0.4962754 78.75
0.90635806 1.5125656 -0.50602853 77
0.71498662 1.7557561 -0.49236616 2
0.84108049 1.6935545 -0.54468727 82
0.79631358 1.8277938 -0.46168154 69
-0.48474064 2.0686386 -0.50453317 7
-0.49690914 2.1273627 -0.47354254 77.5
-0.3622233 2.1762483 -0.52639121 90.777779
-0.2549715 2.2204251 -0.54978174 9
0.68785685 2.1784708 -0.54828042 34.666668
0.63505298 2.3378487 -0.5380668 35
0.55109406 2.4577296 -0.49264327 17.333334
0.61177742 2.4026446 -0.58662587 28
0.70562392 4.3164539 -0.48493654 53
0.63900375 4.4980278 -0.53294826 51
0.21585484 4.7983327 -0.55980456 16
0.13302504 4.8376884 -0.59493804 1
0.32491863 5.2031817 -0.58177096 1
1.1526856 5.1818695 -0.4542304 72
0.36421591 5.2916064 -0.55728525 12
1.2331986 5.2508397 -0.5555473 84
1.3791399 5.2565656 -0.49687049 1
0.22807576 7.7222886 -0.51293033 24
-0.24668498 -1.1836815 -0.40745232 11
1.1089826 -0.73372996 -0.41678047 40
1.2488339 -0.68098658 -0.41220444 61
1.428318 -0.62456203 -0.42369789 46.5
1.5684296 -0.52839071 -0.43526092 46.666668
1.5308887 -0.35734147 -0.42006055 72.75
1.4879543 -0.22454874 -0.42170677 73.5
1.445322 -0.095155098 -0.41979715 51.333332
1.3860445 0.083110958 -0.44463694 75
1.3248982 0.27439162 -0.42481574 94
1.353828 0.180531 -0.43667942 85
1.0296017 1.1274996 -0.44352087 9
0.94739896 1.3815097 -0.43954423 60
0.87550706 1.6085439 -0.43641773 81
0.84057313 1.7111037 -0.41495648 77
-0.61989546 2.0931463 -0.41963083 88
0.7255494 2.0464988 -0.42885989 34
-0.46176863 2.1475716 -0.42427909 90
-0.32994097 2.1885679 -0.44650316 89.333336
0.77408761 4.2139473 -0.43875653 17
1.1710986 5.2773919 -0.42173925 59
