# .PCD v0.7 - Point Cloud Data file format
VERSION 0.7
FIELDS x y z intensity
SIZE 4 4 4 4
TYPE F F F F
COUNT 1 1 1 1
WIDTH 1267
HEIGHT 1
VIEWPOINT 0 0 0 1 0 0 0
POINTS 1267
DATA ascii
0.40321109 -1.5223112 -0.18857372 26
0.45482439 -1.5334504 -0.19429693 59
0.70933592 -1.581099 -0.17315081 42.5
-0.19378069 -1.3612776 -0.17054731 12
-0.056878109 -1.3748581 -0.19048747 63
0.10988311 -1.449542 -0.17556813 9
0.25158286 -1.4851354 -0.17857535 9.333333
0.78683174 -1.4367442 -0.17536338 54
-0.65583497 -1.223757 -0.17567505 15
-0.47273383 -1.2492535 -0.17670174 1.5
-0.38237038 -1.3055042 -0.17841718 13.6
-0.1861414 -1.3376173 -0.15462092 1
0.82948351 -1.2319907 -0.17140751 15.333333
-0.54266942 -1.1229793 -0.1728321 0
0.86345285 -1.1555643 -0.16578375 69
-0.56347638 -0.94867849 -0.17594652 1
0.91622192 -0.9914766 -0.18667458 41.5
-0.50495726 -0.86751169 -0.16832437 0
-0.43985146 -0.79423898 -0.17763412 0
0.9446438 -0.8366518 -0.17071119 15
0.57097787 -0.54821008 -0.16224438 0
0.406717 -0.40496367 -0.16031727 0.2
0.49621576 -0.39079195 -0.17679799 2.1428571
0.39749649 -0.22774445 -0.17612284 15
0.50951469 -0.18699744 -0.18556082 0.75
0.55166227 -0.11671267 -0.18266541 1.25
0.66972256 -0.034196455 -0.18978301 0
1.1780629 -0.029565684 -0.18240784 9.333333
0.80093306 0.043973953 -0.16942857 0
1.1278894 0.058143884 -0.18632136 3.5
1.2294983 0.14221564 -0.16850673 14
1.2420495 0.24577069 -0.1887812 29
1.2805841 0.38203183 -0.18190403 68.333336
1.3167896 0.51195234 -0.18104431 70
1.3431698 0.60446256 -0.18941367 66
1.364671 0.68921077 -0.16598423 62.5
1.4003712 0.83500755 -0.18208146 49.5
1.4715306 1.0928266 -0.17498589 27.5
0.7672258 1.7694092 -0.17430225 3
-0.0085857091 1.9393218 -0.17341772 99
0.18882844 1.8906196 -0.17057243 90.5
0.41088855 1.8259443 -0.17805445 90.666664
0.47585487 1.8054616 -0.19553603 89
-0.50939769 2.0828896 -0.17363653 83.75
-0.38643903 2.0445693 -0.1923801 84
-0.07476256 1.9621382 -0.18292385 91.5
-0.93990046 2.2055168 -0.15620853 73
-0.77582783 2.1563597 -0.17275356 74.833336
-0.66317362 2.1250153 -0.17823543 80
-0.58073062 2.1026475 -0.17010735 79
2.7704926 2.9189813 -0.1877169 150
2.7209334 3.0109627 -0.18640381 52
3.1278846 3.1067936 -0.17208426 93
3.2654986 3.0647743 -0.17876679 52
3.3641288 5.490274 -0.17658198 29
0.37325826 -1.5109694 -0.10203397 33.5
0.51998526 -1.5546579 -0.086047836 48.5
0.68462914 -1.563007 -0.049244966 42.200001
0.7650978 -1.5037893 -0.11409575 52
-0.18589872 -1.3546362 -0.12154623 8.666667
-0.13455921 -1.3653052 -0.1416669 3
0.069168314 -1.4287819 -0.077122442 9.8000002
0.21107994 -1.4706323 -0.11721382 14.5
0.35125446 -1.4267788 -0.094712667 5.5
0.57047343 -1.3550695 -0.042325143 0
0.77849346 -1.4293932 -0.061707836 59.799999
-0.70414275 -1.2119085 -0.10261161 13
-0.52126098 -1.259683 -0.10586006 11.75
-0.37134987 -1.3011552 -0.091694631 12.428572
-0.2501277 -1.3348912 -0.097185083 5.6666665
0.22947766 -1.2051156 -0.040392641 0
0.39902663 -1.2572591 -0.031648573 5.5
0.46330118 -1.2750258 -0.034494493 1
0.80252951 -1.3042836 -0.10904466 42.666668
-0.79997557 -1.1780369 -0.088043489 14
-0.73590744 -1.1305138 -0.099086657 9.5
-0.55025876 -1.0964969 -0.083190575 0.40000001
-0.40358081 -1.1415694 -0.051870875 1.8
-0.18380134 -1.1064445 -0.052325789 0
-0.11966056 -1.0840975 -0.04997373 0
0.14883326 -1.1624862 -0.042243931 0
0.27787971 -1.1243353 -0.03428993 0
0.7304706 -1.1127549 -0.054851357 18
0.86117983 -1.1420364 -0.064063244 7.25
-0.79421765 -1.0322694 -0.073729388 0.33333334
-0.6432004 -0.95585334 -0.079751924 0.40000001
-0.55023861 -0.95734584 -0.070015356 1.75
-0.40996808 -0.92888546 -0.066909678 4.5
-0.22093935 -0.95953315 -0.067361996 2
0.40867183 -0.9495675 -0.041929808 1
0.59773183 -1.0051968 -0.036299083 1
0.69296831 -0.95535892 -0.03629579 1.5
0.85411018 -0.96996278 -0.065272324 28
0.90835589 -0.97300833 -0.06720911 33.200001
-0.80785972 -0.87194002 -0.076893292 1.5
-0.7298826 -0.87859762 -0.071277641 0.5
-0.51693815 -0.76968694 -0.09002506 1
-0.33634448 -0.81835628 -0.0689281 4.5
-0.26516011 -0.82116258 -0.067344442 4.5999999
-0.070203178 -0.80027163 -0.062822245 3.3636363
0.021537058 -0.85172862 -0.057918165 2.6666667
0.23532324 -0.87257099 -0.046851929 3
0.378304 -0.79156822 -0.049801987 2.75
0.50094068 -0.83314145 -0.046160802 1.4
0.66539598 -0.88021445 -0.039360363 12
0.83281016 -0.85187215 -0.079173207 3
0.94935787 -0.8382228 -0.096189037 23.200001
-0.79034889 -0.61131448 -0.094925113 4
-0.6699248 -0.67633921 -0.069082171 4.1999998
-0.54060322 -0.67010111 -0.081476897 5.25
-0.34107852 -0.70363498 -0.073016211 6
-0.21009772 -0.73065871 -0.059947912 5.3333335
-0.14430013 -0.74337292 -0.059181221 5
0.39031804 -0.68131393 -0.040697921 6.25
0.50256026 -0.65099937 -0.054123942 2
0.68534774 -0.66339111 -0.065996721 1.6666666
0.77183378 -0.72218603 -0.072194241 1
-0.78966635 -0.55940199 -0.081095628 6.5
-0.69676012 -0.5905965 -0.085664995 11
0.40719494 -0.53257257 -0.055318426 4.8333335
0.48394051 -0.55048037 -0.053869959 2
0.41751838 -0.40229869 -0.082844876 1.25
0.45842814 -0.36863732 -0.099887736 1.5
0.38083467 -0.22523728 -0.13957262 4
0.53540951 -0.085731126 -0.10558992 0.66666669
0.65267068 -0.017791316 -0.079315342 0
0.653117 0.086590707 -0.079023711 2.25
0.84831244 0.035865515 -0.10714766 0.66666669
0.92451322 0.075158402 -0.066831842 0.2
1.1649804 0.06572298 -0.07933329 26.75
1.2194352 0.126018 -0.092327096 11.5
0.59211618 0.18830884 -0.08032123 8
0.63925594 0.2228737 -0.077449307 5
0.79408044 0.21374735 -0.07739564 1.4
1.1346462 0.21533933 -0.041885976 37.5
1.2452716 0.24549818 -0.084159121 37.75
1.2729981 0.3817454 -0.062278125 63.307693
1.3179854 0.52919775 -0.084430479 66.333336
1.3442941 0.63395804 -0.073833562 62
1.3671541 0.70468628 -0.07282389 59.75
1.27654 0.80299288 -0.05987886 2
1.3849258 0.79532242 -0.078702681 49.799999
1.4449589 0.98471773 -0.097298138 12.75
-0.91471016 1.191725 -0.060832299 9
1.4789304 1.1198387 -0.060753286 23.75
-0.94542515 1.2091432 -0.02143484 8.25
-0.83671117 1.2405132 -0.066186592 9.7777777
1.4973469 1.2205513 -0.016926562 21
1.5197203 1.2879158 -0.066949278 21
1.5642449 1.4568896 -0.082084596 18
0.55675328 1.7930726 -0.0072775232 81
0.65007961 1.7679932 -0.090223201 76.75
0.10029185 1.9168086 -0.081848912 91.666664
0.23514417 1.8770107 -0.080628216 90.714287
0.3604871 1.8426673 -0.10989218 96.25
0.50664902 1.8068743 -0.044743706 87
-0.50576603 2.0771794 -0.1258112 85.5
-0.35329577 2.0412755 -0.039443187 82.800003
-0.23059998 2.0094471 -0.093511552 86.888885
-0.091159463 1.9679998 -0.077359267 91.333336
-0.92106122 2.2012951 -0.082445353 67.111115
-0.78909934 2.1600401 -0.082223006 72.199997
-0.65004456 2.1231654 -0.069456078 75.428574
-1.0894549 2.2584229 -0.03122028 78.75
2.6838281 2.8803895 -0.11263639 49
3.1256118 3.0683024 -0.10587976 74
3.0086501 3.3640339 -0.062053774 1
3.2532721 3.9705896 -0.0041952776 5
3.3916082 3.9367502 -0.01103798 4
3.9119022 5.3299012 -0.12675166 2
3.7905757 5.956893 -0.02549628 42
0.7213493 -1.5509037 0.00076642155 10
-0.65575647 -0.79881471 0.082232945 2.2857144
-0.58637661 -0.85146832 0.064718626 2
0.6613248 -0.79658097 0.10258553 14.333333
-0.7885251 -0.72690213 0.10561249 1.5
-0.6618188 -0.70963341 0.030832112 2.8
0.66595572 -0.74801731 0.078552298 7
-1.1528071 0.046990201 0.11724979 5.3333335
-0.96490675 0.24739879 0.043769542 6
-1.0664072 0.36522681 0.071630031 0
-0.98262769 0.34991696 0.11662863 4.8571429
1.2819432 0.43653885 0.10111314 30
1.3193774 0.54130256 0.061028734 38.444443
1.3428417 0.6383462 0.083286025 60.833332
1.361933 0.70808136 0.081496581 57.599998
1.2962559 0.83520424 0.075944617 5.1999998
1.3869227 0.80523199 0.086685471 58.666668
1.4242417 0.9836486 0.072206289 13
-1.0260701 1.1975472 0.096420787 10
1.477249 1.1499307 0.072229795 19
-1.2052964 1.3326257 0.12980235 67.333336
-1.1940318 1.3304534 0.13779849 60
-0.97108912 1.2257631 0.068516999 9.166667
-0.85046363 1.2661405 0.050594553 15.125
1.5207473 1.3081615 0.088848598 16.666666
-1.2495553 1.3731413 0.11338081 153.5
-0.82095659 1.3627902 0.018878872 5
1.5558403 1.4514639 0.080530398 17
1.5715398 1.5111206 0.067666225 13.5
0.57558471 1.7896947 0.087679908 83
0.67994088 1.7640994 0.053204227 65.800003
0.77886122 1.7530347 0.0095043732 0
-0.0068199215 1.9492961 0.00082695007 90
0.074234813 1.9251165 0.05001574 89.25
0.24370649 1.8831955 0.057218902 85.5
0.36460823 1.8497125 0.081595287 84.75
0.47003382 1.8192654 0.072892897 82.5
-0.46346405 2.077384 0.075472645 69.75
-0.38390261 2.0517654 0.044131864 77.25
-0.16266175 2.0047932 0.088639162 80
-0.071856692 1.97071 0.097965278 84.75
-1.0704172 2.2471721 0.020767326 76
-0.9434787 2.2120609 0.10878333 63.42857
-0.80707264 2.1679935 0.029752119 68.285713
-0.5559994 2.1043375 0.10309604 76.666664
-1.08206 2.2572403 0.058725018 73.125
3.3807328 3.2792785 0.047720935 1
3.0586164 3.3794172 0.047866996 0
3.2179997 4.0118413 0.10410907 1
3.3591633 3.97418 0.072717957 1
4.0367436 5.3615136 0.014661218 1
3.8509948 5.8968048 0.1108522 50
0.5083515 -1.5376967 0.28504542 50
0.71257001 -1.5684154 0.25107542 36
-0.15295325 -1.3512884 0.27756721 9
-0.076074541 -1.3755767 0.25625736 11.125
0.08024919 -1.4189308 0.25128826 23
0.36871099 -1.4992905 0.27723527 59
0.76495385 -1.4299314 0.2467999 61.25
-0.51447511 -1.2591567 0.26325136 12.333333
-0.40512717 -1.2898092 0.22516155 12.833333
0.80517131 -1.286299 0.23905021 52.5
-1.225288 -1.0541493 0.26992506 4
-1.1222241 -1.0790915 0.28124374 13
0.85944313 -1.1026223 0.25551748 66.333336
-1.4156009 -0.98547173 0.27558097 9
-1.2884007 -1.0178102 0.2166862 14.4
-0.79445755 -0.92137307 0.21208918 0
-0.61389816 -0.93368059 0.23459649 0
0.88196099 -0.97875708 0.24953361 52.200001
0.91242468 -0.92214906 0.26073062 64
-0.80067217 -0.83194506 0.20045204 0
-0.64282072 -0.79772866 0.19247119 0.42857143
-0.59811473 -0.86538124 0.21706158 0
0.92858613 -0.84824413 0.23248667 28.777779
-0.79820424 -0.7340101 0.18280563 1
-1.1580526 0.10237034 0.1654231 1
-1.2692626 0.16998428 0.2570743 5
-1.01763 0.26967019 0.15150136 0
1.2297404 0.24718279 0.17631191 63.5
-1.0740831 0.34474921 0.22345924 0
-0.99275351 0.39683565 0.18423629 3.25
1.2613378 0.37529966 0.20060886 62.25
-1.022979 0.47626233 0.27202579 5.5
1.3021816 0.53098971 0.22359037 56.666668
1.3304522 0.62984681 0.21643987 58
1.3588744 0.72389376 0.22277331 58
1.3187681 0.83359647 0.2065329 35
1.38344 0.8164801 0.21810555 55.166668
-1.5853964 1.0399808 0.27439785 157
1.4367381 1.0052303 0.24101008 17.666666
-1.5152009 1.1355903 0.23218691 72
-1.235883 1.1827363 0.2877816 45
1.4618108 1.1032742 0.21234505 12.571428
-1.4716671 1.2929465 0.25261265 68.800003
-1.2397918 1.2748395 0.24094276 45.333332
-1.1436826 1.2991506 0.20345055 48.909092
-0.94032264 1.2477001 0.24079758 13.75
-0.84228981 1.3130594 0.24164537 23.125
1.498493 1.2343777 0.2380693 17
1.5098739 1.2982421 0.23066734 17
-1.4369206 1.4489893 0.22674479 62.666668
-1.2938704 1.3652016 0.28384408 109
-0.82614809 1.4000148 0.21182555 0
1.5679622 1.4902111 0.23919058 16
-1.5322108 1.538608 0.2196455 60
1.5683315 1.500832 0.16215616 15
0.56617087 1.7986981 0.27862519 68
0.68629795 1.7600338 0.2128121 50.5
0.75618142 1.7902108 0.27470231 2
-1.5485475 1.8062857 0.21282959 26
0.078717023 1.9302986 0.25938746 82
0.22144727 1.893906 0.23916881 78
0.3746179 1.8470261 0.22752754 80
0.48944378 1.8155476 0.16394998 84.333336
-0.45907757 2.0712605 0.16896933 62
-0.33766806 2.0519221 0.28489703 78.5
-0.21804044 2.0095961 0.22040841 82.14286
-0.10100587 1.9768525 0.19623697 86
-0.91424066 2.1956215 0.19371367 63
-0.78779352 2.1805019 0.27366582 66
-0.69074798 2.1432631 0.21525581 72.166664
-0.58256185 2.1101894 0.20056662 78.75
-1.0932703 2.26369 0.22699882 67.75
3.1782763 3.4636736 0.18683577 2
0.42806828 -1.509055 0.39141542 59
0.52068752 -1.5380546 0.40527654 59.666668
0.69291532 -1.5528972 0.35829341 54.900002
-0.16602696 -1.3521013 0.32468596 9.5
-0.078276202 -1.3749456 0.33364809 9.8000002
0.087660208 -1.4164487 0.4237572 12
0.22181414 -1.4542875 0.38825968 58.166668
0.34693754 -1.488363 0.37566364 62
0.77015144 -1.3943144 0.39052978 60.5
-0.64558566 -1.216815 0.36835399 10.125
-0.54689288 -1.2451719 0.33575174 12
-0.34948736 -1.294955 0.42669946 10.857142
-0.2386979 -1.3280996 0.3676081 10.538462
0.8077122 -1.2552152 0.37072867 60.099998
-1.2263656 -1.0533353 0.43178442 11
-1.14463 -1.0780404 0.349379 9.625
-0.99335837 -1.0816684 0.3126716 2
0.84524691 -1.1204114 0.3771452 60.400002
-1.6673176 -0.92448598 0.40871993 59
-1.5643933 -0.94942325 0.36366269 59.333332
-1.4213991 -0.9913947 0.37679669 54.285713
-1.2891064 -1.0317035 0.36767516 26.888889
0.88325369 -0.9872126 0.37795052 61.642857
0.90513992 -0.92627674 0.36192828 61
-1.7720581 -0.89408892 0.42234305 58
0.92075849 -0.8647545 0.35299566 59
-1.3528575 0.12895833 0.39118105 1
-1.3737571 0.20796716 0.37950239 8.8000002
-1.3340648 0.15020926 0.42343909 6
-1.1345639 0.25119451 0.37505674 0
-1.0754893 0.40537438 0.35150376 0.42857143
-1.0280231 0.43197516 0.33691835 5.6666665
-1.0326445 0.47814643 0.31764609 7.5
1.3421558 0.68242311 0.32730079 58
1.3723797 0.81531525 0.35760942 41.400002
-1.6986904 0.97583199 0.33805251 157
-1.1588576 1.0274014 0.36802265 1.5
1.4301348 1.0000317 0.38864008 8.666667
-1.2249624 1.1228337 0.32753086 10.75
-0.99588627 1.1230749 0.33024457 17.777779
1.4519035 1.0951396 0.35964704 17.5
-1.5876349 1.2258149 0.30258977 161
-1.46816 1.2964251 0.35859841 70
-1.14271 1.2815969 0.33348083 59
-0.97083783 1.2466441 0.33453751 27
-0.89354509 1.2778997 0.36892921 54
1.4847331 1.2199727 0.34246901 15.5
1.5060121 1.2978482 0.36830017 16.5
-1.5621884 1.4608864 0.41669691 2
-1.26502 1.3717483 0.34043384 63.666668
1.5387555 1.4197832 0.38041553 16
-1.505929 1.5327375 0.35457805 5.5
-1.4971185 1.5616446 0.31187624 4
1.5733417 1.5088972 0.32309955 18
-1.5997198 1.7267954 0.41777983 153
0.58264017 1.7949705 0.35859397 76.5
0.67060202 1.7717766 0.39482903 57.400002
0.75253958 1.7857301 0.41981763 0
0.092648655 1.9323785 0.38723183 75.75
0.23191498 1.8908476 0.3614791 82.5
0.49681857 1.8183976 0.3806766 67
-0.46779227 2.086586 0.38854599 72
-0.37217739 2.0571921 0.38806915 81.14286
-0.20409323 2.0102921 0.33689618 83
-0.022894789 1.9663872 0.38840452 71.5
-0.94004869 2.231545 0.39921999 69.5
-0.86448038 2.1973903 0.37245697 77
-0.71718526 2.1496553 0.34990337 76.5
-0.52124846 2.107285 0.40699154 66
-1.0668354 2.2567062 0.38026017 68.5
3.1437914 3.3987558 0.30746895 65
0.43975204 -1.5048298 0.59864306 66
0.54699922 -1.5374433 0.55616444 54
0.68966168 -1.5523884 0.53926063 54.75
-0.045846015 -1.3761667 0.5487479 49.125
0.079006873 -1.410336 0.52001333 66.800003
0.21689974 -1.4496199 0.51266038 66.428574
0.33624634 -1.4832687 0.47685182 65.666664
0.74682641 -1.4504514 0.49655983 59.5
0.76303893 -1.3959529 0.54498446 62.5
-0.66494673 -1.2037908 0.47099072 12
-0.49766147 -1.2542641 0.54031008 10.888889
-0.38850206 -1.2809855 0.50576454 10.25
-0.23413527 -1.3304796 0.46109074 11
-0.14551778 -1.3460246 0.59268183 63
0.79649401 -1.2699783 0.52674329 58.099998
-1.2182763 -1.0528799 0.57293344 60
-1.1358408 -1.0732363 0.52277607 28.857143
-0.91426075 -1.1359267 0.56427646 12
-0.84227681 -1.1542257 0.53669459 10.166667
-0.73964673 -1.190469 0.53929937 7
0.8403309 -1.1160762 0.50360405 56.642857
-1.6998316 -0.90900725 0.50832981 60.666668
-1.5915897 -0.9392693 0.52443695 58.75
-1.426546 -0.98976129 0.50503349 58.625
-1.279865 -1.0283648 0.52887028 54.333332
0.86678499 -1.0129426 0.51932782 58
-2.172256 -0.77427578 0.59971923 51
-1.9802362 -0.8269546 0.53825301 56
-1.8755333 -0.85606539 0.52817321 54
-1.7621708 -0.88782156 0.57728016 54.75
-1.3501009 0.22704606 0.45136136 9
-1.3053088 0.18274409 0.52042919 10
-1.0200493 0.42696226 0.47385803 7
-1.036831 0.46181557 0.49908686 6.6666665
1.4140511 0.98635292 0.48249763 13
1.4609227 1.1523302 0.50077915 15.6
-2.0270517 1.2543125 0.56924272 60.333332
-1.5012145 1.2976178 0.53915685 150
-1.489328 1.2852052 0.47499588 126.66666
-1.2123526 1.3299862 0.45953941 9
-0.99448234 1.2792292 0.45482463 46
-0.85035974 1.3271953 0.50871545 21.666666
1.4895611 1.2538358 0.50094813 15.666667
1.5071633 1.3333552 0.55948424 15.5
-1.9648215 1.4055599 0.52929884 100.66666
-1.9465584 1.4270309 0.59169412 72.333336
-0.82895029 1.3688109 0.50025505 4.5
1.5280918 1.4120575 0.53000283 15.25
-1.9354273 1.6231339 0.55338234 92.400002
1.5515503 1.5322933 0.54324055 8
0.58042949 1.793993 0.47830355 67
0.6633991 1.78939 0.51246768 49.333332
0.10536788 1.9271696 0.47404951 76
0.26132774 1.8888599 0.54843885 70
0.36530611 1.8573669 0.50946218 53.833332
0.50106508 1.8174071 0.53891748 62.666668
-0.43038273 2.0742121 0.51242101 78
-0.1839733 2.0124614 0.55787832 74.666664
-0.088696264 1.985196 0.52289486 77.333336
0.010456245 1.9555627 0.52067077 78.5
-1.0340993 2.2485819 0.53823674 74
-0.85887396 2.1993568 0.49870872 84
-0.64716667 2.1419349 0.55667567 70.5
-0.55875146 2.115984 0.51822621 75.333336
-1.0791745 2.2758932 0.52472681 60
-1.0143681 2.2544088 0.48796499 63.5
5.618927 5.2610464 0.50274771 5
5.0968876 6.091722 0.5796814 28
0.42286634 -1.5024958 0.68471527 51
0.52461511 -1.5283446 0.67251074 51
0.67935777 -1.5507845 0.68449891 68.75
-0.077467903 -1.3635893 0.66692239 60.333332
0.02375957 -1.3894463 0.63820004 73
0.25226784 -1.4502888 0.71558708 55
0.36185184 -1.4826676 0.69276506 55.666668
0.73645931 -1.4537563 0.67614621 65.5
0.7587086 -1.3819387 0.67799097 64
-0.62504441 -1.2124549 0.66398543 22.5
-0.54865187 -1.2331325 0.650365 28.428572
-0.35193542 -1.2840148 0.6975401 57.666668
-0.21818987 -1.3254 0.67649865 46.555557
-0.14327566 -1.3409524 0.72693443 66
0.78832972 -1.2747833 0.66641051 55.46154
-1.1174322 -1.0728706 0.67257208 63.666668
-0.97986108 -1.1147543 0.65741861 37.799999
-0.83982372 -1.1524341 0.65540785 19
-0.68768913 -1.1911893 0.70441496 39.799999
0.81822973 -1.1685449 0.63250309 55
-1.6882386 -0.91390133 0.69296664 50
-1.5768056 -0.94762385 0.66500479 50.5
-1.426684 -0.98763388 0.69260454 47.333332
-1.2979851 -1.0234774 0.66378433 55.57143
-2.1812339 -0.76701784 0.67512971 53.333332
-2.0307307 -0.81178039 0.67877436 49.75
-1.8963541 -0.84712332 0.67259067 53.599998
-1.7505774 -0.88424808 0.66861814 53.5
-2.4481273 -0.69848436 0.74440145 60
-2.4306152 -0.17017174 0.7395134 81
-2.3827436 -0.0013857005 0.71464062 87
-1.2190243 0.27818692 0.64574564 3
-1.1638747 0.25334117 0.67377001 5.1666665
-1.2018002 0.44653851 0.74514914 2
-1.1513237 0.33478227 0.64310491 7.125
-2.0147252 0.98646998 0.740219 53
-1.5523152 1.038138 0.73736882 66
-2.0491912 1.1315454 0.68419224 76.777779
-1.9020436 1.1008292 0.7278415 66.599998
-1.7396048 1.1104898 0.74236822 60
-1.5144553 1.176123 0.73668534 43.5
-2.0053861 1.2984413 0.68186247 80.714287
-1.8869336 1.2850393 0.72496992 55
-1.7491249 1.2327911 0.73608571 57.666668
-1.5955474 1.2006963 0.74456334 57
-1.4762551 1.3124818 0.70804304 84.75
-1.098101 1.2707366 0.72690302 16
-1.0170785 1.271574 0.66043514 34.142857
1.4926651 1.278677 0.62127948 16
-1.9655839 1.4330198 0.68552536 94.666664
-1.9007952 1.4565231 0.69617724 56.25
-1.7355051 1.3989567 0.72478664 52.75
-1.4379187 1.4766401 0.72305077 47.666668
-0.97954392 1.3673187 0.64270842 6
1.5312847 1.4360163 0.69283497 13.5
-1.9504192 1.5432447 0.68038487 89
-1.8902708 1.5144573 0.72214681 45.5
-1.4308008 1.5684464 0.72218567 56
1.5532961 1.528252 0.68176341 9.5
-1.921896 1.6682804 0.66659534 83.800003
-1.6444772 1.7994366 0.72955167 58
0.66459364 1.7770586 0.65684879 45.666668
-1.8347414 1.8883379 0.67465734 98
0.11973736 1.9297421 0.7435202 66
0.22382824 1.8989955 0.6779418 69.285713
0.3794609 1.8552246 0.66317242 72.666664
0.55208105 1.8074915 0.73139226 60
-0.36002639 2.0678313 0.72969049 68.5
-0.23991211 2.0300705 0.67718339 73
-0.097052671 1.9868454 0.66161126 75
-1.0126839 2.2434134 0.62990189 64
-0.79418612 2.1993134 0.69622511 75
-0.70961034 2.1675575 0.65519649 88.400002
-0.55041659 2.1108656 0.65328014 69
5.6519036 5.2464333 0.71942043 5
6.9318829 9.9864578 0.64441109 42
0.51500082 -1.5233753 0.78721428 50.25
0.63559437 -1.552052 0.79740876 69.333336
-0.012369591 -1.3749158 0.89973712 57
0.079190813 -1.4000547 0.8489036 50.875
0.205294 -1.4386318 0.80394506 48.875
0.36258504 -1.479795 0.82478446 51.5
0.73042309 -1.4429276 0.85120773 66.5
0.76057184 -1.3640275 0.78744715 59
-0.46523231 -1.2477412 0.86780763 66
-0.39553151 -1.2712716 0.83006847 54.777779
-0.23210378 -1.3176625 0.81247234 50.200001
0.76891667 -1.3201969 0.79083085 63.200001
-1.1167812 -1.0704271 0.80452842 53.900002
-0.81614166 -1.1538743 0.8475244 53.111111
-0.70819598 -1.1828854 0.8163951 52.599998
-1.5647079 -0.94074011 0.8293578 46.333332
-1.4421291 -0.97742081 0.80418426 43.666668
-1.2472651 -1.0319881 0.86403155 49.75
-2.1654596 -0.76637709 0.81579053 45
-2.0210898 -0.80654562 0.84456682 46.75
-1.870595 -0.85567266 0.79863179 48
-1.7477919 -0.88883179 0.81617874 45
-2.4570823 -0.6879158 0.82886392 55.333332
-2.300293 -0.73188061 0.86613786 47
-2.5501375 -0.54393524 0.88997495 74
-2.5352857 -0.52376217 0.84333825 84.666664
-2.4884019 -0.33815759 0.82849717 93.75
-2.4392381 -0.16975923 0.81198126 92.5
-2.4257512 -0.12546703 0.85627455 101.5
-2.3849366 -0.0014217122 0.76358819 85
-2.3746624 0.042581096 0.84607852 80.400002
-1.2139385 0.18711855 0.7743836 2.5
-1.0692121 0.25290883 0.79821032 0.33333334
-1.0644554 0.34165001 0.81087267 0
-1.6146666 1.0365628 0.75154126 53
-1.4839778 1.2984662 0.76774162 80
-1.0974833 1.2437017 0.80308944 4.3333335
-0.97212404 1.2759331 0.75869429 9
1.5371242 1.5437202 0.80905163 4.5
0.5993281 1.7959889 0.88963854 51
0.64589804 1.7855599 0.80745536 48
0.074764982 1.9424877 0.81971323 68
0.19569734 1.913599 0.82603091 66
0.44330043 1.8428053 0.82406652 59
0.5122757 1.8200468 0.83175898 59
0.6568495 1.8002465 0.88323236 79
-0.35351807 2.0637784 0.80549639 72.800003
-0.19927838 2.0206382 0.79300797 65
-0.041450609 1.9793487 0.88608432 59
0.03563695 1.9573905 0.84031832 65.5
-0.95010066 2.240205 0.84358984 66
-0.86186969 2.2126975 0.79483986 69
-0.6814819 2.1606972 0.7846638 81
-0.48136482 2.113229 0.87971693 72.666664
5.2208743 5.3806806 0.87829554 75
5.0361581 5.9304662 0.7517581 40
7.8428202 9.7419357 0.76034367 35
7.5455184 9.8168211 0.80655861 46
0.53848404 -1.5204645 0.97531497 44.5
0.68922776 -1.5437565 0.97171396 56
-0.056727547 -1.3612612 0.97004223 46.400002
0.063553505 -1.3958074 0.9584505 49.666668
0.221367 -1.4393877 0.94508696 52
0.38406658 -1.4749119 1.0296509 48.5
0.46004272 -1.4999955 1.0197475 44
0.72066855 -1.4629153 0.97055763 62.333332
-0.62123787 -1.2024542 1.0307084 47
-0.53308618 -1.2300588 0.96830165 48.25
-0.3900139 -1.2732203 0.95069957 56
-0.2258137 -1.314271 0.96769673 52.5
-0.12193751 -1.3383105 1.0037838 47.799999
-1.1189709 -1.0620265 0.99510211 44.5
-0.95076388 -1.1119435 0.97527868 47.599998
-0.86052358 -1.1376002 0.9669373 45.5
-1.6928438 -0.90591264 0.95169878 44
-1.5976424 -0.92720968 0.9499622 43.666668
-1.3721756 -0.98971713 0.98156959 42.5
-1.2782882 -1.020439 0.97685319 45.666668
-2.1375847 -0.78232306 0.92101765 44
-2.0403016 -0.80205917 0.97668666 47
-1.898968 -0.84323472 0.94508445 46
-1.7887609 -0.87162971 1.0127959 42
-2.5711577 -0.63646716 1.0163785 88
-2.505939 -0.6701802 0.94383949 46
-2.3475468 -0.71676224 0.98088998 44.666668
-2.196826 -0.74642694 0.98796976 44
-2.5367265 -0.49163127 0.96332878 78
-2.5024567 -0.37170261 0.97010416 82
-2.4700954 -0.24540749 1.0127077 87.75
-2.4222028 -0.081960127 0.96878445 95.400002
-2.3748245 0.086654864 0.99643081 92.333336
-2.3286598 0.2540262 0.97389024 81.14286
0.69428539 1.7889946 1.020932 8
0.054406326 1.9489769 0.93654716 56
0.23013344 1.9083652 0.98223978 65.5
0.37814584 1.8631793 0.96882921 62.833332
0.52238208 1.8289323 0.95488405 65.666664
0.65777451 1.8007146 1.0166793 67
-0.3864204 2.083708 0.98392898 74
-0.090194963 2.0023949 0.99461651 73.5
0.066934764 1.9571168 1.0143784 68.5
-1.0007322 2.2482979 1.0219517 71
-0.82026678 2.2007046 0.92465627 68
-0.62057835 2.151624 1.0382278 70
-0.51863199 2.1257238 0.95423877 74.5
-1.0767552 2.2749004 0.95321602 64.666664
-1.0138122 2.256778 0.93702364 68
4.9914579 5.8007007 0.92454743 39
7.3950171 9.8617363 1.0172845 36
7.6849728 9.7704487 0.91601849 34
0.54892528 -1.5151451 1.1182151 39.875
0.66496617 -1.5414033 1.092232 46.75
-0.058515701 -1.3580664 1.1249827 52
0.073045366 -1.3889347 1.1426945 46
0.23349908 -1.4288141 1.130435 45.599998
0.374488 -1.4665658 1.1270297 45.625
0.48138583 -1.4952521 1.1770769 39.666668
-0.54806036 -1.2216984 1.0949917 48
-0.36496162 -1.2695141 1.1069838 59
-0.23218393 -1.3055346 1.1223439 48.222221
-0.13031596 -1.3379099 1.1440501 42.5
-1.0732863 -1.0737288 1.1115785 46.5
-0.99219638 -1.0950508 1.1107507 45.200001
-0.81818473 -1.1435587 1.1262203 44
-0.67040849 -1.1845613 1.1400374 45.5
-1.5297648 -0.94244933 1.1223034 43
-1.4191973 -0.97373283 1.1293008 42.400002
-1.2704591 -1.0149837 1.0503715 43
-1.1907754 -1.0331868 1.1825038 44
-2.202599 -0.76754951 1.1058788 46.5
-2.0053711 -0.80275774 1.1246183 40
-1.8660582 -0.85101682 1.1093731 40.666668
-1.7309239 -0.88795686 1.0918558 41.5
-2.5757589 -0.64051521 1.0855823 68.5
-2.452605 -0.6821478 1.1183397 44
-2.3154383 -0.72371787 1.1329879 45
-2.5620749 -0.56167763 1.133708 71.333336
-2.5325463 -0.52649581 1.1621622 74
-2.5085461 -0.37690914 1.112393 73.833336
-2.4692664 -0.23901734 1.1492177 75.25
-2.4232867 -0.082409926 1.0937411 82.166664
-2.373507 0.10797803 1.1103556 81.25
-2.3371975 0.23124157 1.1267155 90.333336
-2.0034444 1.4236265 1.1786629 116.5
-1.9620647 1.6141658 1.1957545 64
-1.9382675 1.6099107 1.1418301 150
0.65916407 1.7976538 1.1380861 50.5
0.23166366 1.9134995 1.1241276 64.599998
0.3762168 1.8822323 1.1268971 63.599998
0.55164516 1.8301809 1.1397915 59.5
0.65494126 1.807018 1.1434299 30
-1.8463161 2.0273445 1.1756697 65.5
-0.20454325 2.0378759 1.1492287 64.166664
-0.034868389 1.9929217 1.1099883 69
-0.97119439 2.2400267 1.0792481 65
-0.77645159 2.1925333 1.1997247 67
-0.66988999 2.1733499 1.0986421 65
-0.56340319 2.1345146 1.1353712 65
-1.3054984 2.3454134 1.1995966 66
5.3444223 5.3630829 1.0523864 68
5.5708604 5.3013334 1.096581 63
4.9419479 5.6437488 1.0765811 39
6.8479705 10.01176 1.1578749 37
7.1150293 9.9401903 1.0856162 40
8.1630993 13.529325 1.1669209 86
-0.035221469 -1.3564721 1.2768319 45.666668
0.064974725 -1.3804204 1.284132 42.125
0.21470179 -1.4177669 1.281859 41.444443
0.36293581 -1.4577093 1.2574716 43
0.49616116 -1.4982845 1.2096782 37
-0.49051109 -1.2317158 1.2963492 49.666668
-0.35278693 -1.265295 1.2693161 54.666668
-0.24270053 -1.2990674 1.2371272 50.333332
-0.098860376 -1.3369652 1.3248576 49
-1.0949377 -1.0628808 1.2403977 44.400002
-0.79176605 -1.1466838 1.2656577 43.75
-0.70323056 -1.1688699 1.2756672 48.333332
-1.6614438 -0.90376705 1.3131409 38
-1.5442412 -0.93204516 1.2816075 43.25
-1.3262423 -0.99062449 1.3437313 38
-1.1879756 -1.0354757 1.2453537 48.5
-2.1454723 -0.77753425 1.2598485 41
-2.0198064 -0.80602181 1.3092849 40
-1.8571334 -0.84203237 1.2204474 36
-1.702148 -0.88588411 1.2931026 38.666668
-2.5369122 -0.66283709 1.2619162 48
-2.3263807 -0.71115535 1.2735746 39
-2.2244391 -0.7381044 1.2678119 40
-2.5768857 -0.59343272 1.2254901 70
-2.5277684 -0.46606392 1.2287178 71.5
-2.5205362 -0.41476604 1.3157506 69
-2.4694333 -0.22045329 1.2696371 70.5
-2.4262352 -0.071886636 1.2910608 72.666664
-2.3930557 -0.019150861 1.2173808 83
-2.3799162 0.092987888 1.28407 75.5
-2.337991 0.20530504 1.2640455 81
-2.3204815 0.3302156 1.2898295 57
-2.0457563 1.2883835 1.3010598 74
-2.0127633 1.4393045 1.2610118 68.666664
-1.9717923 1.5984793 1.2382634 70
-1.9407654 1.6863372 1.2981575 62
-1.8862795 1.8848639 1.2728342 66
0.13083571 1.9414661 1.2632551 60.5
0.21333745 1.926651 1.2595431 61
0.36634469 1.8845726 1.2710623 58
0.51906961 1.8417289 1.27384 55.875
0.64069265 1.8118739 1.2851009 45
-0.34184527 2.0793114 1.308313 59.75
-0.2787855 2.0593038 1.2784092 54.5
-0.12617536 2.0191851 1.2627075 59
0.087764941 1.9562303 1.3282689 60.666668
-1.8196242 2.1204739 1.2981156 61
-0.79751807 2.2066329 1.24541 63
-0.70008951 2.1724901 1.2953696 63
-1.7606802 2.3577724 1.2804712 61
-1.4395046 2.3823905 1.299428 63.5
-1.3375182 2.3560853 1.2233312 68
-1.1596614 2.2970648 1.2318201 59
5.3314328 5.3640494 1.2746816 61
5.5430012 5.303648 1.2717665 62
5.5643816 5.2945256 1.2879064 59
4.9321918 5.5064359 1.2301905 41
5.1197324 5.4311972 1.2482371 62
6.9476953 9.9967556 1.2063826 30
6.6774235 10.060537 1.326755 42
0.061882243 -1.3719712 1.4026159 40.833332
0.22504105 -1.4133843 1.4245464 40.333332
-0.52775294 -1.2163105 1.4442641 42.333332
-0.39542225 -1.2518367 1.4145206 44.200001
-0.21834426 -1.2996817 1.4269221 48.400002
-0.078718081 -1.3332996 1.4410617 44
-0.96741885 -1.0957696 1.4514077 40
-0.84481943 -1.1271442 1.4011241 45.200001
-0.69022399 -1.1783988 1.4096856 43.333332
-1.2854645 -1.0057218 1.3916748 41.75
-1.1829568 -1.0320197 1.4015021 40.333332
-2.1077793 -0.784168 1.3626611 39
-2.0827875 -0.77899647 1.4275953 32
-1.8877133 -0.83328921 1.4354569 38
-1.7271887 -0.8829183 1.4633417 41
-2.5688028 -0.62150478 1.3602977 54.5
-2.4404693 -0.68633741 1.4299159 39
-2.2636805 -0.72829932 1.4098642 37.5
-2.5867715 -0.59739566 1.4721373 68
-2.5469131 -0.52860057 1.4451786 63
-2.5090673 -0.3595922 1.4047444 68
-2.4794123 -0.22633444 1.4387956 63.666668
-2.4191604 -0.035227079 1.4173195 71.5
-2.4055569 0.012490488 1.4925563 62.5
-2.3665133 0.12478355 1.3722688 71
-2.3569877 0.19403847 1.4161247 70.333336
-2.3145521 0.3913843 1.4385409 68.5
-2.0342839 1.3464986 1.4025699 62
-1.9878074 1.5284274 1.3768783 64
0.20224199 1.9358954 1.4255028 57
0.37168235 1.8848171 1.4353361 54.625
0.52052897 1.8477484 1.4300988 53.900002
-0.39989078 2.0957332 1.4387472 54.5
-0.22859158 2.0516007 1.4068685 56.5
-0.013605931 1.9858993 1.4695135 58.666668
0.067625187 1.9661098 1.4016055 58
-0.94920522 2.2462151 1.3925365 58
-0.87673235 2.2305019 1.425281 54.333332
-0.49155763 2.1126969 1.4823426 55
-0.44329095 2.1099315 1.4494252 52.5
-1.408053 2.3703279 1.3880451 57.5
-1.3292115 2.3484819 1.4681857 54
-0.96123046 2.2583981 1.446159 56.666668
4.9137864 5.5156555 1.4226571 38
5.0883846 5.4265909 1.4338686 62
6.4488392 10.161833 1.4261421 25
8.4651346 13.563251 1.4319018 83
0.072241418 -1.3675569 1.5686409 38.200001
0.1697901 -1.3886395 1.5635782 42
-0.49171922 -1.2222681 1.5366757 38
-0.39841318 -1.2456037 1.5872313 38.666668
-0.2419018 -1.2860261 1.5927013 40.166668
-0.08048296 -1.3285542 1.5699127 39.142857
-1.0866907 -1.0581658 1.6295015 36
-0.95457399 -1.0930359 1.5433574 43.75
-0.83650416 -1.1278474 1.5791625 40.333332
-0.62500066 -1.1849341 1.5522714 44
-0.58201128 -1.1914036 1.6006081 37
-1.4436016 -0.95594692 1.5755408 37.200001
-1.3099647 -0.99221796 1.5792217 36.333332
-1.9796987 -0.81170952 1.5766755 40
-1.8825462 -0.83307576 1.5357656 35.5
-1.7129588 -0.88493174 1.5389301 38
-2.5500979 -0.63604146 1.5322284 34
-2.352931 -0.7020359 1.5741985 34
-2.2376442 -0.74339557 1.5497214 36
-2.5428202 -0.49256617 1.5599529 67
-2.5328624 -0.40284923 1.5844666 59.333332
-2.4746683 -0.17567809 1.587463 59
-2.4437723 -0.11395907 1.633231 57
-2.4180939 0.036308218 1.5798259 64
-2.3912656 0.076337367 1.5798787 67
-2.3528185 0.23669191 1.551403 68.666664
-2.3159518 0.36787027 1.5821195 72.5
-2.2707219 0.53934717 1.5377228 12
-2.0575762 1.2826546 1.6294144 45
-2.0028815 1.4863862 1.6021606 64
-1.9715617 1.6461325 1.6456093 59
-1.9477619 1.703392 1.5848378 59
-1.8949735 1.8961184 1.5960865 60
0.24981502 1.9207598 1.5576681 57
0.39269233 1.8838154 1.5957903 56.333332
0.50124305 1.8561121 1.5386416 52
-0.33582062 2.0839188 1.5669768 47
-0.092093587 2.0133467 1.5873313 53.5
0.045914423 1.9806485 1.5685356 52
-1.8309991 2.1420674 1.5894506 60.5
-0.8028875 2.2101278 1.5323411 54
-0.53570139 2.1360388 1.5786229 48.666668
-1.1108593 2.3048151 1.6130853 52.666668
5.6034822 5.2891841 1.5113249 6
4.9780602 5.861495 1.5057597 40
5.0437622 6.2235627 1.5982209 28
7.4784298 9.8387175 1.5021373 32
6.6442738 10.912808 1.6466783 8
6.7275519 10.969604 1.6481005 10
0.09069252 -1.3682916 1.7332046 46.5
-0.51292092 -1.2116191 1.6911277 36.333332
-0.38828874 -1.2450417 1.7258595 32.666668
-0.25318265 -1.2759238 1.720305 33.25
-0.09493275 -1.3209982 1.7309638 34.5
0.0015274107 -1.3433722 1.7131554 31
-1.0659568 -1.0610449 1.7345637 36
-0.9733274 -1.0871279 1.7145325 37
-0.70049399 -1.1583802 1.7209452 38.666668
-0.59698904 -1.1961166 1.7021924 36
-1.559371 -0.92535979 1.7975674 53.5
-1.4708707 -0.94539356 1.7724537 43
-1.1148437 -1.0449657 1.6923758 42
-2.1147158 -0.76368976 1.7929031 69
-1.9986572 -0.80226052 1.7434541 41
-1.9103422 -0.82282472 1.7096432 33.666668
-1.6779027 -0.88249314 1.7916535 42
-2.5919914 -0.62189448 1.6879678 56.5
-2.4846613 -0.62672019 1.7805966 81
-2.3532643 -0.69393969 1.6760913 31
-2.1603549 -0.72717935 1.7627569 59
-2.0179379 -0.66903889 1.7973595 75.25
-2.5741234 -0.55827832 1.7666593 74.5
-2.4745817 -0.52946377 1.7754787 76
-2.1831462 -0.54364794 1.7834921 77.75
-2.0298543 -0.49050719 1.7891737 76
-2.5007615 -0.35952097 1.7348802 67.25
-2.1846037 -0.36451373 1.7789608 74
-2.0283887 -0.32959643 1.7851306 79.333336
-1.7505528 -0.3688435 1.7979991 81
-2.4743233 -0.22683643 1.759724 73
-2.1966972 -0.20259666 1.7698852 80.5
-2.042913 -0.18613313 1.7776085 80.5
-1.7246788 -0.21394451 1.7961059 83.5
-1.6212518 -0.18302152 1.7984424 93
-1.3514764 -0.23450191 1.7966665 86
-2.4493222 -0.083858252 1.7241864 67.5
-2.1975043 -0.051156841 1.7712941 68.5
-2.0371618 -0.048359562 1.7766135 85.5
-1.7285132 -0.048650634 1.7894514 89
-1.5911934 -0.048383992 1.7954909 94.5
-1.3644485 -0.098462969 1.7978696 85.5
-1.2435809 -0.058228787 1.7981324 92
-2.4199095 0.053237196 1.6732265 63
-2.2133846 0.0547374 1.7581724 86
-2.0618293 0.040925696 1.7699429 83.666664
-1.7151302 0.10274494 1.7848935 87.333336
-1.5903472 0.097708255 1.7896894 93
-1.366209 0.045564536 1.7928693 86
-1.2610723 0.070846617 1.7932012 86.800003
-1.0925654 0.052231636 1.7980841 86.666664
-0.93973768 0.081003308 1.7998704 85
-2.3704498 0.15186322 1.6584326 62
-2.195014 0.23247167 1.7544099 85.25
-2.0432737 0.20254329 1.7652987 83.5
-1.7221301 0.23748267 1.7791889 69
-1.5843869 0.24490446 1.7830194 90.75
-1.3602792 0.18988079 1.785991 83.5
-1.2567661 0.23433527 1.788071 84
-1.1053729 0.20077547 1.7953389 85.199997
-0.98873389 0.23162988 1.791672 84.75
-0.85511398 0.26873598 1.7967373 86.800003
-2.1712615 0.40250435 1.7482232 94.666664
-2.0600457 0.37190285 1.7616905 20.5
-1.7116416 0.34625238 1.7735684 78
-1.5763288 0.39342794 1.7800816 89
-1.2885674 0.3759349 1.7794659 81
-1.1500863 0.37817866 1.7863638 76.75
-1.0102024 0.35039952 1.791838 82.333336
-0.79359502 0.37699458 1.7967237 77.833336
-0.70044833 0.39163461 1.7947025 79.400002
-0.56083262 0.32922882 1.7733542 49
-2.2285824 0.49680087 1.7465719 83
-1.6722156 0.45280752 1.7663246 79
-1.5616765 0.54317951 1.7748355 89.75
-1.271739 0.51645768 1.7771686 87
-1.137567 0.54134685 1.7834376 78.75
-0.95964539 0.5265317 1.7872221 76.199997
-0.82765424 0.51876026 1.7883122 81.571426
-0.67467737 0.53163511 1.7943914 78.85714
-0.52323043 0.56814802 1.7976983 80.5
-0.41546348 0.55032426 1.799311 89
-1.5603358 0.71002585 1.7641228 87.666664
-1.483637 0.64742023 1.7759398 89
-1.2682154 0.66373444 1.78 102.5
-1.1225381 0.68114251 1.7806586 82.75
-0.95537156 0.66508299 1.7840253 79
-0.79858595 0.6665554 1.7841803 77.14286
-0.68455487 0.67985988 1.7882442 79.222221
-0.53511369 0.67875731 1.7928371 76.888885
-0.38042909 0.68124104 1.7974201 82.5
-1.9354993 0.83997619 1.767609 38
-1.6894491 0.82434142 1.754216 89.5
-1.5698353 0.84921217 1.7588415 88
-1.4558346 0.78840011 1.770147 87
-1.2815787 0.77865338 1.7759172 99.5
-1.1479141 0.83318263 1.7771683 102
-0.97723788 0.81590331 1.7792765 84.5
-0.82532138 0.81649286 1.7822058 74.400002
-0.66033834 0.83300608 1.7852122 74.75
-0.5149433 0.82374936 1.7901951 75.666664
-0.38218188 0.84604079 1.7942899 76.25
-2.0555015 0.96436954 1.733947 31
-1.8922457 1.003648 1.7416006 94
-1.6650233 0.99251735 1.7508205 90
-1.5803787 0.9922359 1.7500173 78
-1.4247466 0.93342251 1.7657474 87
-1.2432094 0.92897332 1.7705423 99.5
-1.1126642 0.97391355 1.7740151 94
-0.93112433 0.96154463 1.7759199 88
-0.80473632 0.97606194 1.78029 86.199997
-0.66412967 0.96592492 1.7805357 71.333336
-0.51852214 0.97176611 1.7861663 76.625
-0.37824178 0.97849536 1.7881137 70.5
-0.25940862 1.0046488 1.7945119 64
-1.9726901 1.123208 1.7332776 87
-1.855348 1.1766682 1.7298428 93
-1.5726608 1.1498729 1.747431 66.800003
-1.4512582 1.0970265 1.7610694 67
-1.1414694 1.0990114 1.7678258 89.400002
-0.9864623 1.1290488 1.7734302 83.333336
-0.81034315 1.1163619 1.7786925 91
-0.66278654 1.1260408 1.783724 83.166664
-0.52476275 1.1147962 1.7865976 89.833336
-0.37254235 1.1268266 1.790085 80.14286
-0.2352411 1.1533965 1.795082 82
-1.9893532 1.321745 1.7159023 85.333336
-1.5116634 1.266809 1.7434274 66.5
-1.4404702 1.2684759 1.7471026 67.5
-1.3476014 1.2305226 1.7580951 71
-1.1182996 1.2589532 1.7628535 87.333336
-1.0106989 1.2548442 1.7668777 80.75
-0.82491827 1.2392405 1.7755841 79
-0.65641999 1.2899994 1.7801622 80.199997
-0.50495625 1.2606881 1.7859519 83.5
-0.37456605 1.2699362 1.7866845 81.444443
-0.2072324 1.2773743 1.7945595 73.199997
-0.095968857 1.305782 1.7943043 67
-2.0285783 1.4200066 1.689298 74
-1.8925816 1.3996763 1.7231836 83
-1.5670359 1.3707495 1.7410865 72.5
-1.4474411 1.4084542 1.7356819 76.25
-1.2979782 1.3803813 1.7477015 84
-1.0828595 1.3946793 1.7572062 82
-0.96467865 1.4162174 1.7628618 78.599998
-0.8120054 1.3839455 1.7650357 75
-0.6580146 1.4263275 1.7745329 76.5
-0.53853822 1.4095706 1.7773422 73.5
-0.37695554 1.420012 1.778366 72.25
-0.24312454 1.4136118 1.7837511 74
-0.082437977 1.4308017 1.7865406 71.666664
-1.9701382 1.577329 1.7039356 77.333336
-1.8829225 1.5573889 1.7186495 83
-1.7780087 1.547133 1.7210659 89
-1.5202971 1.5555365 1.7325631 78
-1.4297764 1.5538044 1.7315593 84.5
-1.2910845 1.5438565 1.7437003 78.5
-0.96147281 1.5638055 1.7540051 76.599998
-0.81915998 1.5522555 1.7590337 70
-0.68043256 1.6495008 1.7569956 60
-0.51794767 1.5656182 1.7697558 61
-0.36598188 1.5789026 1.7727497 64
-0.22503431 1.5626444 1.7750217 73.333336
-0.090292439 1.5885704 1.7789505 74.714287
0.067910388 1.5770698 1.7822231 71.75
-1.8921522 1.7552561 1.7026592 80.5
-1.7318221 1.7454512 1.7181085 75
-1.4134243 1.7334459 1.7278368 79.25
-1.3225158 1.7384305 1.7310132 75.666664
-1.1824788 1.7014824 1.7367965 82
-0.9308477 1.7190149 1.7457536 74.5
-0.82294786 1.7298886 1.7506024 68.400002
-0.60324168 1.7861139 1.7482694 55
-0.46410051 1.7179216 1.7620655 59
-0.36606523 1.7346915 1.7646365 59
-0.19975047 1.7090549 1.7686683 73.333336
-0.054302931 1.7433858 1.7720226 70.166664
0.0825179 1.7170202 1.7737185 73.375
0.22972752 1.7605953 1.7721984 72.5
-1.8910117 1.8884686 1.6947767 75
-1.2787994 1.9034209 1.72404 78
-1.1163272 1.8756933 1.7369584 70
-0.81963605 1.8813256 1.7414336 72.666664
-0.71403646 1.8524468 1.7490608 57.5
-0.51818806 1.9391003 1.755484 61
-0.36099657 1.8585008 1.7610173 63
-0.25764516 1.8764409 1.7600836 63.333332
-0.12108044 1.8471937 1.7652532 68.5
0.072343931 1.8772728 1.7665908 74.571426
0.22291395 1.9062424 1.7342069 63.299999
0.36004722 1.8904082 1.7260538 59.833332
-1.8655878 2.0361712 1.685623 72
-1.7299099 1.9734459 1.7134198 83.5
-1.3749659 1.9626701 1.7184643 72
-1.2950951 2.009697 1.7139397 76
-1.119572 2.0964446 1.7247607 68
-1.038267 2.0517304 1.7296909 68
-0.76446211 1.9577175 1.7469081 63
-0.70500529 2.0329514 1.739597 67.599998
-0.58505791 1.9891309 1.7487794 67
-0.42175895 2.0836101 1.7452289 73
-0.22633381 2.0000627 1.7632774 66.599998
-0.09066499 2.0175576 1.7006224 52.75
0.10990372 1.9677052 1.7055436 58
-1.8067164 2.1772516 1.6888889 74
-1.2534451 2.1535017 1.7106472 71.666664
-1.1950545 2.1728373 1.7123392 74
-0.95089614 2.2388706 1.7257735 72
-0.63724142 2.1462383 1.7181101 62
-0.52670789 2.1402075 1.6856426 51.333332
-1.8041713 2.2661126 1.6834222 77
-1.7986048 2.2551043 1.6754814 59
-1.1247798 2.3004868 1.6820148 59.666668
-1.0201415 2.2750866 1.7006384 53
1.1378022 2.471009 1.7770219 36
1.2711406 2.5017934 1.7761616 52.5
1.177376 2.5807855 1.7843138 5
1.2957686 2.6329513 1.7735429 48.25
1.4129276 2.6249943 1.7753 44.333332
1.520242 2.5899611 1.7834319 49
1.7269022 2.6793749 1.7925597 47
1.3160985 2.7829013 1.7861501 15
1.4136527 2.7338395 1.7800872 52
1.5899018 2.7695417 1.7802519 50
1.7505084 2.824466 1.7910427 49
1.9046745 2.842555 1.7865797 45
1.9507532 2.7820122 1.7973922 44
1.5648814 2.9110792 1.7875743 50.666668
1.8630539 2.9292848 1.7856458 48
1.9780266 2.9121108 1.7960228 47
2.193573 2.952374 1.7892655 48
1.4798417 3.0179174 1.7845031 39
1.8190371 3.0705867 1.7887841 47.5
2.1611621 3.0606072 1.7878286 48.666668
1.776891 3.1968913 1.7819997 51
2.1264253 3.2088959 1.7932022 47.5
2.4973199 3.1951103 1.7940607 44
2.8609285 3.1564157 1.7988435 40
1.6489143 3.3184488 1.7745689 20
1.7365553 3.3565402 1.7663232 52
1.8402159 3.4108756 1.7737151 52
2.1189101 3.3888266 1.7832583 45
2.4881546 3.4294779 1.7965242 41
2.8278093 3.3698857 1.7940701 32
1.9485657 3.4800737 1.7767271 48
2.0159345 3.5197577 1.7759981 36.5
2.1859734 3.5730736 1.7850183 48
2.5170188 3.5947206 1.7913963 43
1.8604724 3.6579838 1.7939888 9
2.3117471 3.6568198 1.7811209 47.5
2.4297395 3.6985791 1.7757803 41
2.6202445 3.7227964 1.7884866 37
2.2107611 3.8350525 1.7980939 50
2.7813826 3.8834586 1.7794844 35.5
2.9692388 3.8297875 1.7954657 30.5
2.186322 3.9415338 1.786389 41
3.3055038 4.0499907 1.790258 32
2.1810033 4.0754666 1.77328 37
3.1963029 4.1138334 1.7865018 32
3.7342885 4.3350477 1.7934943 26
2.6596935 4.3730388 1.7840072 33
2.6993668 4.5848827 1.779224 32
3.2164791 4.6933627 1.7952102 32
2.8158507 5.0875459 1.7458121 33
3.3267303 4.9852061 1.7885455 28
3.0207603 5.2410669 1.7453932 29
3.2042253 5.3227391 1.7393802 28
5.6763277 5.2936401 1.7655607 5
3.4338386 5.4412379 1.7529012 30
4.0800581 5.4277759 1.7978903 30
5.1605897 5.410285 1.6813978 60
3.6772022 5.6200733 1.7491817 32
3.8940051 5.73 1.7446736 21
4.1360664 5.8004293 1.7549938 26
3.3257153 5.903172 1.7540435 32
4.4271622 5.9156432 1.76325 16
4.9958801 5.9289656 1.7336105 35.5
4.4791708 6.1556339 1.7458917 27
4.7148986 6.1728978 1.7495574 24
4.981081 6.2063651 1.7657167 28
4.0953021 6.4215674 1.7637709 26
4.2323351 6.831984 1.7517802 28
5.0119023 6.9958482 1.7663022 24
4.42488 7.3194633 1.7324139 26
5.3021231 7.5761418 1.7509116 28
6.1753902 7.7070141 1.7830685 32
4.6292443 7.8706021 1.7142259 28
5.6689057 8.2576466 1.7185639 31
6.7190542 8.5418577 1.7654022 19
6.1565943 9.1615992 1.7105314 19
7.4597521 9.6170635 1.7395505 9
-0.50916076 -1.2180054 1.8584735 62
-0.36277258 -1.2438612 1.8545027 52.200001
-0.22252767 -1.261482 1.8659152 54.833332
-0.086916924 -1.274822 1.8788445 59.799999
0.0085543813 -1.3260635 1.8949915 76
-1.0147882 -1.0713109 1.8297192 73.5
-0.83661407 -1.1143471 1.8376232 81
-0.66980231 -1.1229076 1.8550081 85
-0.51745045 -1.1210495 1.8709804 67.285713
-0.37048763 -1.123486 1.8775909 54.799999
-0.24345228 -1.1407123 1.8793452 50.200001
-0.11828776 -1.13596 1.8939594 53
-1.4304085 -0.94396424 1.83034 87
-1.2213268 -0.98874146 1.834991 89.5
-1.1056354 -0.95859832 1.8433135 90.400002
-0.9486807 -1.0247235 1.8515595 82
-0.83130324 -0.96168447 1.852156 98.5
-0.66797465 -0.98589718 1.8564484 82.571426
-0.52135253 -0.96491879 1.8562129 67.571426
-0.37493172 -0.98977882 1.8603879 47.833332
-0.23175225 -0.99285269 1.8704941 47.75
-1.664644 -0.89281225 1.8084024 70
-1.5759435 -0.80297452 1.8209604 76.400002
-1.4617835 -0.79478198 1.8203818 78
-1.2642425 -0.83843112 1.8338164 89
-1.1420823 -0.8188597 1.8390398 94.800003
-0.962614 -0.84275925 1.8417473 91.75
-0.80074644 -0.80977094 1.8487794 63.75
-0.6729908 -0.82501113 1.8477333 78.85714
-0.52527744 -0.83694804 1.8538059 65.571426
-0.37077647 -0.81833154 1.8587205 55.142857
-0.26327851 -0.85333627 1.8615278 50
-1.712763 -0.71698117 1.8123853 75.5
-1.585263 -0.65355253 1.8165494 73.5
-1.4941939 -0.65046227 1.8199486 75
-1.2611725 -0.68476325 1.8284343 87.25
-1.1162087 -0.67290795 1.8304073 84.75
-0.949965 -0.65998352 1.8326424 86.5
-0.82174414 -0.66304588 1.8374466 84.166664
-0.68129867 -0.67469496 1.8406293 79.900002
-0.52745509 -0.68358499 1.8471699 77.833336
-0.40676793 -0.66391271 1.8508412 70
-1.7001269 -0.54835081 1.8101151 74.75
-1.5671643 -0.49437284 1.815371 76.25
-1.2877876 -0.53983653 1.8224225 91.25
-1.1384614 -0.54284209 1.8208673 73.5
-0.96007133 -0.52120656 1.8227856 83
-0.79728514 -0.52027637 1.8335205 85
-0.67154723 -0.51498991 1.8354083 83.166664
-0.52478135 -0.53854382 1.8408481 80.75
-0.37454927 -0.55328995 1.8461243 70.5
-1.6772839 -0.39052582 1.8041804 78.5
-1.5815845 -0.34447855 1.811048 82.25
-1.3516473 -0.40291393 1.8206061 95
-1.2913285 -0.39415458 1.8107377 83.666664
-1.1567557 -0.41575161 1.8153957 77.75
-0.98832577 -0.37075368 1.8180434 80.5
-0.81059057 -0.36953905 1.823445 84.800003
-0.6783483 -0.37984154 1.8301612 82
-0.52513665 -0.3732779 1.8361834 80.166664
-0.41768163 -0.38873637 1.8377947 76.5
-1.5559607 -0.20852831 1.8075885 91
-1.3592511 -0.25283512 1.8023435 77
-1.2378368 -0.25189379 1.8069379 82.599998
-1.1224988 -0.2268149 1.811299 81
-0.99304944 -0.22325128 1.8132211 86.333336
-0.82126838 -0.21031928 1.8197751 81.833336
-0.67013329 -0.23626672 1.8255223 79.333336
-0.52964407 -0.21624847 1.8311205 78.400002
-0.44100696 -0.26695967 1.8312093 80
-1.2535648 -0.13930395 1.8042737 83
-1.1030896 -0.067798235 1.8029801 83
-0.97353095 -0.075471014 1.805522 81.666664
-0.81951678 -0.070920341 1.8147907 81.727272
-0.66795892 -0.081459768 1.8171928 80.25
-0.53707463 -0.087957777 1.8247225 78.85714
-1.1408437 0.060231123 1.8012544 83
-0.97313517 0.098439053 1.8003939 82
-0.81725949 0.073315538 1.808785 78.769234
-0.67594111 0.065921366 1.8137281 82.599998
-0.54477125 0.072568908 1.8179768 85
-0.80485427 0.2037805 1.8032173 84
-0.66513252 0.20761435 1.8081042 80.75
-0.53247237 0.23586321 1.8089436 82.285713
-0.99708068 0.42371774 1.807055 65.5
-0.87598395 0.36549109 1.8022705 58
-0.66858453 0.3594276 1.8035991 79.400002
-0.53998291 0.38445097 1.8043973 75.5
-0.44738311 0.38095194 1.8062674 89
-0.72894913 0.45271516 1.8000962 73
-0.52155024 0.48483366 1.8060371 78.75
-0.4334864 0.46577775 1.807031 84
-0.43918931 0.71316552 1.8012022 78
-0.28558949 1.0823869 1.8005966 87
2.0038025 2.7322419 1.8036882 50
2.2591226 2.7786469 1.807026 47
2.5264404 2.813828 1.8112413 46
2.820935 2.8497694 1.8267206 41
1.8751662 2.9701388 1.8031317 51
2.0632715 2.9081628 1.8005611 49
2.2235193 2.8611605 1.802339 46
2.3058224 2.981019 1.8028594 45.5
2.521385 2.9379373 1.8116335 44
2.1533339 3.0606716 1.8095912 52
2.4840617 3.102736 1.8072431 44.5
2.6130068 3.0441709 1.8108821 40.5
2.8376565 3.0003011 1.8190058 39
2.9344921 3.0895355 1.8161347 40
2.4602051 3.2753594 1.8080908 42
2.7657301 3.2104111 1.8220435 43
2.8768654 3.264576 1.8075219 16
3.1162403 3.2824268 1.8374654 19
3.2642684 3.2654924 1.8182565 18
2.8157172 3.3861091 1.8141819 37
2.9119256 3.3486187 1.8021375 17
3.2582164 3.3515666 1.8094596 29
2.8893547 3.5852029 1.8030897 35
3.2317371 3.5037251 1.812933 30
3.3466961 3.4847631 1.8061975 34
3.6491625 3.5979342 1.8392185 31
3.3502734 3.7496426 1.815744 30
3.7273991 3.6504242 1.8120681 23
3.1153417 3.8582551 1.8049668 30
2.6019385 4.0169744 1.804824 39
3.4280148 3.9943135 1.805602 31
3.5331428 3.9897513 1.8118936 27
3.8601191 3.9018426 1.8260678 30
4.0565338 4.0301685 1.8290855 26
2.6237488 4.1863112 1.8006376 32
3.9325287 4.1209588 1.8175648 25
3.0452049 4.2094698 1.816579 32
3.8279474 4.2254715 1.8006982 26
4.1058378 4.2541237 1.8202478 27
3.1169796 4.4353609 1.8093032 32
3.5440235 4.4074316 1.8335406 27
4.4156232 4.3942647 1.8118483 18
4.086884 4.5887747 1.840614 28
4.3637466 4.5726047 1.8067716 29
3.6824477 4.6952453 1.821066 27
4.7080016 4.7821355 1.8585681 24
3.8644183 5.02987 1.8035208 29
4.3342223 4.9677401 1.8339175 27
5.0853691 5.2503505 1.8480128 26
4.6401353 5.4048505 1.8151678 22
