# .PCD v0.7 - Point Cloud Data file format
VERSION 0.7
FIELDS x y z intensity
SIZE 4 4 4 4
TYPE F F F F
COUNT 1 1 1 1
WIDTH 121
HEIGHT 1
VIEWPOINT 0 0 0 1 0 0 0
POINTS 121
DATA ascii
1.803771 1.9205176 -0.84336716 6
1.4324569 2.1621127 -0.87226576 8
1.7538552 2.1578555 -0.85921967 4
2.2473462 2.2342668 -0.84973365 8
2.3364491 2.2178197 -0.84799278 4
1.3185388 2.2981577 -0.87848103 13
1.3614341 2.4475164 -0.88312435 8
1.7287512 2.4661465 -0.87576509 4
2.1337953 2.5072038 -0.86164558 8
1.3963212 2.5846386 -0.89297426 4
2.716908 2.6444373 -0.84149104 7
2.7317607 2.7843921 -0.84668988 15
1.7406909 2.9158759 -0.89461696 5
2.101789 2.8559096 -0.87581438 9
2.6706791 2.9626572 -0.86127079 7
2.7034428 2.8740306 -0.85419786 34
2.75753 3.040343 -0.79052848 57
2.7973318 3.2236972 -0.78662223 53
3.2042768 3.1786473 -0.84872788 3
2.1378875 3.371768 -0.89746952 7
2.5546174 3.3146362 -0.86926931 2
2.848912 3.4147558 -0.79613155 56
2.8979087 3.612839 -0.80424851 48
3.7333643 3.6359487 -0.77644593 48
2.6647182 3.9921424 -0.89862412 1
3.3387651 4.7593646 -0.88923109 0
3.3015409 5.5024886 -0.86321169 61
1.4882972 1.092996 -0.60340321 27
1.5421687 1.276534 -0.6393618 24
1.5730152 1.4753675 -0.67747754 13
-0.035161722 1.7732012 -0.60922021 2.5
0.66336024 1.7455318 -0.62574768 88.599998
-0.017725717 1.873958 -0.63752872 41.200001
-0.17352603 1.9797573 -0.60683244 98.666664
-0.13899606 1.9740199 -0.61301351 95.5
2.7769008 3.1670053 -0.67912436 50
2.6139593 3.5751612 -0.66726476 8
2.5534225 3.645997 -0.62844861 11.5
2.905118 3.6129827 -0.73714685 48
3.7131608 3.6021519 -0.62930816 56
2.9325905 3.8087554 -0.71538609 23
3.7221701 5.3721957 -0.66888839 1
3.3959944 5.4584217 -0.74469733 128
3.5892413 5.409626 -0.62406963 8
0.37697762 -1.5228691 -0.49917144 42
0.51773566 -1.5621724 -0.50916535 59
0.67320281 -1.6043792 -0.5587123 49.333332
0.77925926 -1.5172232 -0.53432035 60.5
-0.16149598 -1.3760192 -0.46578524 7
-0.068926819 -1.4016988 -0.46892333 12.5
0.076479807 -1.4401417 -0.47447631 11.571428
0.18204543 -1.4732444 -0.48772147 10.5
0.80661106 -1.4215474 -0.5209077 63.5
-0.19627921 -1.3485813 -0.4507817 0
0.83415675 -1.308683 -0.49220908 62
0.86978281 -1.1578966 -0.47526067 42.5
0.90616375 -1.0845144 -0.4738681 13
1.2999709 0.40796161 -0.46582085 78.5
1.3386722 0.54056323 -0.46595135 74
1.3707141 0.65901673 -0.48436913 70.5
1.3965197 0.78175974 -0.47718605 55
1.4857213 1.0909698 -0.49894935 32
1.5310085 1.2824428 -0.53857982 27
1.5829616 1.4916124 -0.53107768 16
0.058440011 1.6436266 -0.55543089 151
0.40724051 1.6133629 -0.53676963 10
-0.027906973 1.7497004 -0.57933009 2
0.066269152 1.6892804 -0.54367596 7.1428571
0.25831985 1.7417545 -0.53902102 24.333334
0.39093238 1.7272055 -0.48156905 25.799999
0.56894964 1.7701482 -0.56268102 80
0.67594337 1.7452825 -0.51629204 66
0.80405635 1.7523723 -0.54708505 1
-0.021536995 1.9347496 -0.49022678 101
0.066441379 1.8808829 -0.48517132 115.33334
0.22777876 1.8621315 -0.50662172 72.5
0.36297798 1.8323047 -0.45005026 97
-0.38732436 2.043602 -0.46147379 91.333336
-0.25631416 2.0058341 -0.51315027 93.36364
-0.11674553 1.9643481 -0.5449186 96.800003
2.750176 3.0862739 -0.5105288 49.5
3.7051742 3.5637741 -0.48871455 62
2.9339833 3.7716165 -0.56065154 41
3.3773994 5.4631424 -0.5164541 108
3.461283 5.4490995 -0.57886171 119
0.28975779 -1.5013584 -0.42383111 10
0.36928046 -1.5180873 -0.43081734 36.75
0.5714407 -1.5732399 -0.42922011 54
0.69070065 -1.6043128 -0.43374678 55
0.7641297 -1.562624 -0.43351501 54
-0.034489632 -1.3980904 -0.41016257 8.333333
0.036632698 -1.4231031 -0.41060942 14
0.19960199 -1.4801332 -0.41004518 9
0.80048531 -1.418267 -0.42103958 69
-0.21373481 -1.3409647 -0.42679051 0
0.83182949 -1.2906237 -0.43245849 70.666664
0.86947399 -1.187466 -0.42463768 80
0.9308973 -0.9774012 -0.42598939 7.3333335
0.9628467 -0.84003824 -0.43481278 14
1.1900702 -0.0087770484 -0.41541681 1
1.1887925 0.02230389 -0.41172543 48
1.2051768 0.093069538 -0.41424656 7
1.250157 0.2187047 -0.42855132 40
1.2944359 0.3882474 -0.42410597 72.666664
1.3176547 0.47927982 -0.42486763 79
1.3686389 0.65829712 -0.42557541 68.25
1.4001067 0.787763 -0.4172723 71
1.4619035 0.98087347 -0.42093414 21
1.5061268 1.1855876 -0.40017211 32
1.5296624 1.2651176 -0.41921422 28
0.50475103 1.7980105 -0.42124969 98
0.69238687 1.743433 -0.43218765 81
-0.044083137 1.9456923 -0.43536055 90
0.25982699 1.8631064 -0.42031917 102.33334
0.33877164 1.8367596 -0.42462555 104
-0.373144 2.0403845 -0.43084759 91.428574
-0.22053792 1.994812 -0.43683806 91
-0.13214414 1.9709166 -0.40948477 95
2.9109404 3.6773419 -0.44528326 44
3.3374019 5.7498789 -0.42678821 19
4.5324855 6.3800702 -0.42643851 6
