# .PCD v0.7 - Point Cloud Data file format
VERSION 0.7
FIELDS x y z intensity
SIZE 4 4 4 4
TYPE F F F F
COUNT 1 1 1 1
WIDTH 1265
HEIGHT 1
VIEWPOINT 0 0 0 1 0 0 0
POINTS 1265
DATA ascii
-0.49250528 -1.9548011 -0.16540261 36
-0.62588346 -1.8886802 -0.18384339 69
-0.55884826 -1.8990968 -0.18974191 49.25
-0.41662109 -1.8849384 -0.18494706 46.666668
-0.22185741 -1.6806221 -0.17424321 68
-0.18615545 -1.611873 -0.19079255 7
-0.12858126 -1.6011469 -0.19042 55
0.58338469 -0.88167238 -0.16765469 14.5
0.6208837 -0.83768678 -0.18083133 14.75
-0.00024326444 -0.6936354 -0.19989586 2
0.0039226236 -0.66712749 -0.19846246 2
0.21640773 -0.62237251 -0.19136027 0
0.54398257 -0.74430573 -0.1788384 5
0.78920132 -0.66680473 -0.18027394 14
-0.025443902 -0.51370567 -0.16526635 1
0.2007065 -0.58761108 -0.19337307 0
0.32842922 -0.4517898 -0.15682901 0
0.87561524 -0.59085143 -0.1724768 11.5
0.94409776 -0.51067549 -0.17772256 9.666667
0.32245958 -0.44533649 -0.16395801 0
1.0352437 -0.41080856 -0.17254347 9.75
1.1097351 -0.33601746 -0.15883432 11
1.161973 -0.28871658 -0.17123917 9.5
1.2217897 -0.22509931 -0.17242427 10.333333
1.0892863 -0.13379613 -0.19158566 1
1.3689772 -0.066385902 -0.18082744 24.333334
1.4646094 0.027558615 -0.16676269 20.5
1.5615573 0.13117045 -0.15834138 16.5
1.6582448 0.23085685 -0.19860382 18
3.957639 0.86378479 -0.15595995 3
1.0494177 0.9924109 -0.17352509 81.5
1.1112581 0.95588088 -0.17885305 44.5
3.3585613 0.95358109 -0.16576678 59
3.843611 0.98934859 -0.17320035 86
0.85675472 1.1845918 -0.19543208 85
0.95787907 1.083786 -0.18750528 82
0.69272226 1.3332582 -0.19236277 78
0.58870029 1.4357213 -0.18360423 75
0.6387763 1.390766 -0.16349109 81
0.49545822 1.5345447 -0.16690035 73
-0.9221921 1.7069019 -0.17213015 40.75
-0.82529557 1.7967145 -0.17465845 44.5
0.26126537 1.7552611 -0.16733612 84.333336
0.30606091 1.7140859 -0.19067848 86
-0.80952781 1.8169729 -0.18516034 42.25
-0.62232542 1.93663 -0.17527385 11
-0.58732164 1.9390737 -0.17611963 10
0.11698799 1.8972592 -0.17642866 72
0.15527265 1.871974 -0.16160677 71
-0.68369442 1.9667975 -0.17509672 48.5
-0.56402642 1.9659398 -0.17131616 9
-0.42222518 2.1744428 -0.15514489 11
-0.21003079 2.1892505 -0.18666624 56.25
-0.11453567 2.1249847 -0.17799544 77
-0.50906032 -1.9629576 -0.11940011 35.5
-0.65759873 -1.8540813 -0.10029367 67.36364
-0.55571067 -1.8761823 -0.090728775 51.285713
-0.40143362 -1.8601925 -0.063558683 45
-0.78789955 -1.7252632 -0.068379804 55.599998
-0.7012105 -1.7689147 -0.087152608 47.5
-0.51877719 -1.6966342 -0.1416374 4
-0.21309257 -1.6761073 -0.12048434 65.5
-0.75552505 -1.5234617 -0.051619086 3
-0.6884281 -1.5404841 -0.044919066 3.8
-0.52281934 -1.5423959 -0.048202951 4
-0.80190861 -1.4526062 -0.050336432 3.75
-0.68701315 -1.4562066 -0.049060944 8
-0.38789365 -1.3797826 -0.053906161 0
-0.83352101 -1.3037055 -0.04181065 3.5
-0.48820156 -1.2743405 -0.057152171 1
-0.21770714 -1.3225482 -0.056753341 1
-0.63634485 -1.1231635 -0.057240929 2.25
-0.51196921 -1.1679313 -0.057794053 3.2
-0.36413765 -1.116042 -0.061726607 1.5
-0.27293321 -1.0729669 -0.064560391 0
-0.76691246 -0.98293382 -0.054144982 5
-0.68885088 -1.0077493 -0.059386384 5
-0.33546767 -0.9481492 -0.062080566 2.6666667
-0.2650573 -0.98011976 -0.06624011 2.6666667
0.44221848 -0.98557436 -0.11738405 1
0.49941656 -0.95297992 -0.089835182 7
-0.2214648 -0.8079893 -0.052144669 1.4
0.37820992 -0.84915918 -0.087575138 0.66666669
0.57106823 -0.89041805 -0.1431628 12
0.60491979 -0.87595862 -0.12810197 11
-0.034121856 -0.62342805 -0.081920773 2.2307692
0.0052098455 -0.60990733 -0.11387036 3
0.29432946 -0.64070404 -0.095823683 0
0.3948164 -0.62758917 -0.087526023 3
0.5355382 -0.68073046 -0.089664869 1.6666666
0.81384814 -0.64929438 -0.088757448 11.875
-0.020300264 -0.54957044 -0.086354479 2.25
0.059324127 -0.53791296 -0.074224994 3.4736843
0.20536834 -0.5247938 -0.091119088 3.4000001
0.37445655 -0.45435557 -0.10393769 3
0.50960195 -0.54342401 -0.081872143 2.75
0.87949866 -0.57648891 -0.084073909 11.285714
0.95208412 -0.49616033 -0.072998054 10.333333
0.23712631 -0.3895244 -0.085002512 5.7333331
0.3497313 -0.37407291 -0.090901934 3.5384614
0.52064383 -0.43338403 -0.05830333 1
1.0190917 -0.42292958 -0.055164278 11
1.0860776 -0.3529852 -0.064900815 10.545455
1.170079 -0.27657053 -0.068391405 9.2857141
1.2305831 -0.2072601 -0.073292747 12.285714
1.0969777 -0.13724297 -0.09200225 1
1.3372256 -0.1001014 -0.11647535 3
1.3821367 -0.051434223 -0.070065275 22.142857
1.4535904 0.019715346 -0.062860087 17.799999
1.532931 0.10691165 -0.053056087 14.571428
1.6215156 0.20297229 -0.056506012 13
1.6605372 0.23889378 -0.093158633 12.75
1.7173223 0.32912576 -0.060604233 8
-0.93338513 0.95096236 -0.044109747 9.7777777
1.0266266 1.0166585 -0.11390927 78.666664
1.1209641 0.9577508 -0.075393856 34.714287
4.134778 1.0445616 -0.018174713 19
-0.91817123 1.0775505 -0.072259493 2
0.86756915 1.1718832 -0.067127362 77.714287
0.95333689 1.0870732 -0.09627749 81.099998
3.5310073 1.1518224 -0.14948568 32
0.73040622 1.3073163 -0.048926231 71
0.80244607 1.2366242 -0.058351662 79
3.674309 1.2771485 -0.12508222 16
3.9099429 1.2319779 -0.016386276 0
0.56212246 1.4667864 -0.1028259 76
0.63161618 1.4014879 -0.10656472 76
-1.0725374 1.6023598 -0.013746923 152.5
0.42134216 1.6096671 -0.098181643 74
0.48680991 1.5443177 -0.052037898 74.125
-0.91356736 1.7163823 -0.11994002 40.799999
-0.88081902 1.7466712 -0.076522484 48.666668
0.22134949 1.7945148 -0.12026141 70
0.34447962 1.6860089 -0.022480611 78
4.3578568 1.7040337 -0.050491009 7
-1.1040865 1.8757623 -0.056460559 23
-1.0341775 1.8090754 -0.053817727 30
-0.79827768 1.8297421 -0.051039424 43.166668
-0.64664304 1.8774413 -0.035063509 9
0.11387212 1.9001927 -0.048497017 76.166664
0.1924305 1.8259107 -0.12122644 77
-1.3211575 2.0021563 -0.0069804089 46
-0.77386057 2.0159593 -0.082284205 34.5
-0.70311034 1.9721403 -0.10262441 42.25
-0.524625 2.0253224 -0.057938073 8.333333
0.039076459 1.9749317 -0.081250347 69
-0.45024493 2.1627419 -0.020227736 10
-0.37786222 2.206893 -0.069450937 9.4444447
-0.23289827 2.2385473 -0.087397166 68
-0.27776438 2.266247 -0.089966096 41
5.5138025 2.6812727 -0.10045383 4
6.3055973 2.7315459 -0.066678204 1
5.0783477 3.1153493 -0.13864809 1
5.8150282 3.1263101 -0.11385123 32
-0.69219637 -1.8234251 0.14881808 13
-0.76079619 -1.748691 0.13929659 21
-0.97821611 -1.5346457 0.14560717 72
-0.66329652 -1.4325578 0.090896241 153
-0.23363331 -0.79812348 0.041171029 0.60000002
-0.18189079 -0.72771531 0.09038046 0.81818181
-0.10456797 -0.65206099 0.078670725 1.9
0.83279985 -0.62276334 0.012738402 7
-0.028894745 -0.55550671 0.091240004 2.7368422
0.010798533 -0.52012032 0.068725243 2.75
0.87598467 -0.56333721 0.04716659 18.200001
0.93250322 -0.50979733 0.053056505 9.2857141
1.013224 -0.42163751 0.04823605 9.8571424
1.0972369 -0.34197021 0.047258679 9.125
1.1761109 -0.25808382 0.055507321 27
1.2379198 -0.20262656 0.042601924 10
-1.0762014 -0.098747805 0.12626821 3
1.1303971 -0.12425303 0.098027185 0
1.3335721 -0.082093589 0.06128905 12.5
1.3874582 -0.039035209 0.070471697 22.857143
-0.99228114 0.075785503 0.073030166 2.1428571
1.4654622 0.039520204 0.072936259 15.333333
1.5379252 0.11299352 0.082524143 13.25
-0.99036133 0.18956628 0.082521573 5.3333335
1.6156094 0.19705781 0.064898215 12.6
1.6763413 0.2613183 0.043692835 12.5
1.715818 0.31724006 0.077000178 9.6000004
-1.1175042 0.93578273 0.092466734 8.5
-0.97239935 0.94951785 0.072567388 9.6999998
1.0139136 1.0363525 0.098733269 66.25
1.1005164 0.97096664 0.081946909 39.5
-0.9105289 1.0787096 0.095835291 37
0.87298506 1.1755956 0.078380324 67.5
0.9528175 1.0966027 0.077534117 70.428574
4.0817871 1.1289299 0.070456415 31.5
0.70762175 1.3297983 0.074435875 72.199997
0.78077149 1.2600788 0.04425009 71.166664
0.58721393 1.4524152 0.039276656 62
0.64734435 1.392977 0.088412173 70.125
-1.075294 1.5875239 0.052742124 119.625
0.41329098 1.6225759 0.028230505 75.75
0.52966541 1.5140264 0.12473379 66
4.5351763 1.5673343 0.099841945 1
0.27536795 1.7510729 0.08386457 70
0.34448171 1.6863422 0.077047966 76.714287
4.4022307 1.6612779 0.051027711 2
-1.0855672 1.9098825 0.008098389 151
-0.64793617 1.8985214 0.040826194 6
-0.58696663 1.9029688 0.1001695 0
0.16354384 1.8621293 0.14911598 70
-1.3160225 2.0180531 0.055424932 80.5
-1.1473697 2.0271103 0.044604536 150
-0.60157037 1.9829565 0.04034486 3
-0.53433526 2.0595593 0.045737818 3.8
-0.050099246 2.0681159 0.066409655 69.714287
0.036860932 1.9812089 0.04049645 74.25
-1.1811913 2.1888285 0.11828782 80
-0.17846563 2.1887321 0.13843882 62.5
-0.1283602 2.1471472 0.12498674 70.5
-1.0519978 2.318625 0.14125764 64
6.4603992 2.6111183 0.084317409 0
5.8811846 2.9755542 0.0061092032 12
5.8201613 3.2160723 0.01443785 34
5.7185802 3.3236814 0.10462108 1
5.5998292 3.4529636 0.00040059804 2
-0.65039551 -1.8519168 0.22133456 68.333336
-0.3566983 -1.8259246 0.27827933 54.75
-0.82121998 -1.6879759 0.22619195 62.142857
-0.72237378 -1.7814294 0.19156791 49.666668
-0.26864678 -1.743145 0.23389786 53.5
-0.95248914 -1.5594219 0.21519938 66
-0.88029736 -1.6277475 0.26211086 62.333332
-1.1038893 -1.4079372 0.22091787 73.428574
-1.0239823 -1.4887584 0.22561954 68.333336
-1.2504493 -1.266152 0.24245057 72.818184
-1.1734756 -1.3373005 0.21668127 71.599998
-1.4062182 -1.1162157 0.27761301 80.199997
-1.3188521 -1.1969129 0.25539404 75.5
0.5277307 -0.92446595 0.2530928 9.2857141
-0.24312381 -0.77525556 0.15559325 0
0.58176273 -0.8682124 0.25532037 9.375
0.64315438 -0.80660528 0.23318794 10.5
-0.19470945 -0.70800108 0.204849 0.40000001
-0.12804091 -0.6243307 0.19904126 1
0.72101915 -0.72166908 0.19983636 10
-0.074463643 -0.56320995 0.16952817 1.8333334
1.1757344 -0.23894833 0.18818766 54
1.2409128 -0.16619873 0.1753608 16
-1.2273918 -0.037843496 0.27941465 1
-1.1441013 -0.026534375 0.24070664 0.60000002
1.3636227 -0.049618378 0.20823625 24
-1.1061125 0.07826589 0.2543925 0
1.4607332 0.044136807 0.21648054 13.25
1.5403324 0.12533244 0.20468777 13
-1.0763688 0.20109169 0.20492394 0
-1.0251375 0.23905022 0.22717959 2.375
1.6029415 0.19555563 0.21399543 11.8
1.6888614 0.27895343 0.24093714 13
1.645118 0.34171703 0.19440538 1
1.7227612 0.33182326 0.21591595 7
-1.6918857 1.0036781 0.29703775 79
-1.2881744 0.99805057 0.29056415 24
-1.1495346 0.97265619 0.22832529 8.7142859
-0.98741764 0.9825424 0.23071662 9.363636
1.0233918 1.03365 0.23002535 63.5
1.1129236 0.96630597 0.22268289 33.166668
4.1186252 1.0380875 0.22050339 62.5
4.2350593 1.0051903 0.29406536 33
-1.7148216 1.1863077 0.29920769 64
-1.5556589 1.0906601 0.29050389 82
-1.4697214 1.1786975 0.28952977 63.666668
-1.349274 1.0861405 0.26667881 7
-0.93361628 1.0756338 0.22921415 17.4
-0.89265156 1.0839458 0.21884865 4
0.8787244 1.1698924 0.21618633 61.833332
0.95787436 1.0962192 0.2146259 61.090908
-1.5675665 1.26895 0.28973797 107
0.72304416 1.3226333 0.21700621 64
0.80378431 1.2434425 0.24047951 62.916668
-1.737856 1.3882045 0.2862418 75
0.56703395 1.4713119 0.19483338 66.833336
0.63923711 1.4009293 0.18242867 70.666664
-1.0929618 1.6080637 0.1707032 151
-1.0440553 1.59515 0.20903458 47.666668
0.42553541 1.6121602 0.24080047 71.5
0.49723455 1.5403107 0.2538386 66.85714
-1.2211884 1.6989632 0.28192985 65
-0.95038927 1.7151307 0.2620694 70
-0.87652349 1.7606815 0.25470924 63
0.257415 1.7701652 0.17674206 71
0.3791346 1.6619306 0.27906185 62
-1.2408081 1.8451881 0.26862133 62
-1.0134952 1.8666735 0.26264668 47
-0.84417444 1.8580456 0.26366428 59.666668
0.12996401 1.898441 0.25750685 73
0.19933282 1.828694 0.22114395 69.5
-1.1390833 2.0369496 0.23810491 103.5
-0.91199797 1.9890112 0.25897831 47
-0.86827046 2.0921857 0.26217961 20
-0.077070057 2.090668 0.18680435 64
0.073680148 1.9528127 0.25478047 74
-1.2034011 2.1503103 0.23431528 58
-1.1636738 2.2054744 0.20307679 72.800003
-0.96807545 2.1551855 0.25115281 48
-0.79976428 2.1545146 0.26009655 24
-0.18635999 2.2026141 0.22903782 66
-1.075676 2.2975566 0.15339637 70
-1.0320728 2.3350306 0.23361284 74
-0.85784948 2.3186002 0.25000948 103
-0.32529899 2.335866 0.26058972 79
-0.27995917 2.295398 0.2567302 59.5
-0.90642488 2.4774702 0.16136795 68
-0.8290267 2.5020535 0.24563713 44.666668
-0.75180322 2.551522 0.25951421 44
-0.72349566 2.5629947 0.25745928 20
6.7607412 3.1862569 0.18762368 1
-0.52067232 -1.9756298 0.36165628 70.5
-0.65589261 -1.8414048 0.38959655 62
-0.47925371 -1.9194018 0.37471563 53.799999
-0.37184411 -1.8435766 0.34344196 57
-0.80904555 -1.6971896 0.37673688 64.5
-0.73740107 -1.7685498 0.39694005 57
-0.9709093 -1.5396852 0.34065634 61.75
-0.86978835 -1.6384242 0.36080176 64
-1.099687 -1.4096837 0.38401499 65.36364
-1.0232587 -1.4849648 0.35765129 67
-1.2603379 -1.2489563 0.36342433 73.416664
-1.1770192 -1.3351234 0.36240992 72.666664
-1.4018241 -1.1091691 0.38863638 73.599998
-1.332603 -1.1807104 0.34821299 75.599998
-1.5458525 -0.96802521 0.36793053 64.5
-1.4792522 -1.0323964 0.38786021 71.166664
0.51886636 -0.92757756 0.33679661 9.7777777
0.57073379 -0.87407273 0.33026472 9.5
-1.7980908 -0.73097003 0.44421893 6
-0.18133458 -0.72381878 0.32331973 0
-0.074687958 -0.63592649 0.30306005 1
-0.14325272 -0.59760112 0.33477467 0
-1.2887511 -0.067174472 0.37692288 3.7777777
-1.1129061 0.078023292 0.36832631 0
-1.0465331 0.12514979 0.42622596 0
-1.084015 0.20984264 0.3828961 0.75
-1.0466914 0.2475328 0.30879438 0
1.6669132 0.2565482 0.32352978 13
1.6602727 0.33760944 0.32944113 2
-1.2314174 0.81611532 0.36253732 4
-1.1171527 0.77944988 0.37053156 2.5999999
-1.0342458 0.84687322 0.33443248 7
-1.7420402 0.94710684 0.34645417 151
-1.2714151 0.95926303 0.32982227 26.833334
-1.1031533 0.97132879 0.3508065 7.8333335
-0.99507588 0.95837212 0.3547194 9.333333
-0.86879724 1.0058711 0.40737545 9.5
1.0239319 1.0305231 0.33920836 59
1.0879676 0.97249609 0.35903797 35
-1.7836052 1.1108286 0.41746914 23
-1.605885 1.1290655 0.31402248 110.5
-1.3274237 1.05216 0.44270217 5
-0.85321736 1.0651623 0.4318862 8
0.87559617 1.1836162 0.41136533 35.400002
0.94091356 1.1136411 0.3696219 54.125
4.027389 1.1417545 0.33967304 69
-1.7632362 1.2696621 0.37805632 97.5
-1.5331093 1.2655874 0.30947751 11
0.72016877 1.3251406 0.3369104 64
0.81128484 1.241732 0.39144194 57.5
4.0224962 1.2051753 0.30837882 61
-1.6821014 1.3611568 0.30927271 67
0.57533443 1.4769332 0.39708084 61
0.64559722 1.4012275 0.39396697 64.545456
-1.0745778 1.6175919 0.40307236 155
-1.0267757 1.6180967 0.35354409 39.666668
0.42306188 1.61472 0.34820056 69.5
0.46312439 1.5752432 0.31479764 67
-1.0548197 1.7084032 0.39972723 5
-1.0101423 1.7625185 0.36910686 4
0.3452743 1.6907223 0.40072498 66.333336
-0.96665192 1.8150961 0.34744415 3
0.10794312 1.9215897 0.34881538 68.25
-0.022180188 2.0478578 0.37344736 68
0.03590237 1.9952408 0.3754971 66
-0.18611458 2.2028954 0.30159849 63
-0.31591713 2.3333049 0.38153344 83
-0.29546914 2.3195534 0.32472306 65
-0.46700925 2.4849968 0.41396302 56
-0.42260391 2.4479058 0.39825436 63.5
-0.5025878 -1.9758899 0.49379134 65
-0.64988464 -1.8426795 0.53188699 56.666668
-0.55333972 -1.9274318 0.48967719 57.799999
-0.77758449 -1.7218717 0.53330004 59
-0.72396404 -1.7699656 0.55746824 58
-0.32198793 -1.7718192 0.55308449 33
-0.26766855 -1.7310498 0.53876352 28.25
-0.93839204 -1.5639008 0.51965189 57
-0.87893021 -1.6185746 0.55126399 62.5
-1.1218536 -1.3864378 0.51309973 58
-1.0208414 -1.4845978 0.48994026 63.5
-1.2484728 -1.2590849 0.49232861 46.857143
-1.1792421 -1.3269811 0.50148463 49
-1.4031817 -1.0898384 0.50668222 23
-1.3322582 -1.168377 0.47748074 33
-1.5639498 -0.95149243 0.54800475 30.222221
-1.7003231 -0.81560689 0.53858286 48.714287
-1.6330533 -0.88211167 0.54766035 38
-1.8657559 -0.6481002 0.53682524 71
-1.7894189 -0.73068559 0.49092004 46.5
-1.9930749 -0.5238893 0.5501647 72
-1.9114209 -0.59895992 0.5755372 69
-2.1152189 -0.40677926 0.59829742 71
-1.2876855 -0.047741681 0.48122033 3.6666667
-1.1965437 -0.027450094 0.45918834 0
-1.1287369 0.075664699 0.50498873 0
-1.0702008 0.22597344 0.52030569 1.6666666
-1.7663352 0.9217127 0.47085607 154
-1.263871 1.037411 0.50199467 56
-1.1189877 0.97549552 0.53684181 20.333334
-0.94445795 1.005273 0.51742542 8.1428576
-0.88208544 1.0339384 0.46338561 20.5
-1.8398948 1.1748875 0.45385516 151
-1.2691953 1.0547518 0.51599455 9
-0.88394421 1.1858386 0.48780751 155
0.87801307 1.1704735 0.47288448 5.5
0.95539641 1.099885 0.48516575 39.333332
-2.0181637 1.3318357 0.58914423 84.5
0.73155713 1.3245813 0.53329206 57.125
0.80121773 1.2540548 0.52048725 48.923077
-1.9144306 1.4405372 0.55444229 83
0.57163137 1.4764897 0.51282096 65.400002
0.66653848 1.3861508 0.52456987 61.75
-1.7913837 1.5249908 0.53381795 150
0.43886018 1.6080565 0.56805038 62
0.50893319 1.5377047 0.55021209 63.444443
0.26958001 1.767436 0.51365036 66.5
0.32296395 1.712759 0.48296812 64.25
0.21903224 1.8223575 0.56366837 57.799999
-1.3605086 2.0262792 0.59124839 83
-0.048414268 2.0757933 0.48574275 64.25
0.018732902 2.0071492 0.47841236 63.5
6.6814232 2.0409424 0.51037425 48
-1.0629916 2.2214601 0.47625065 106
-0.099107787 2.1312337 0.54089659 60.25
-0.49947926 2.5264235 0.52573574 67
-0.44288754 2.4609823 0.51571316 64.5
-0.6201703 2.6240249 0.57481563 62
-0.55802059 2.5708494 0.54991168 68
10.822721 4.8326697 0.52248931 30
10.188462 5.4574938 0.59895509 26
-0.38468951 -1.838562 0.68008882 32.857143
-0.80255157 -1.6901842 0.62313116 51.799999
-0.24581814 -1.6937727 0.74964285 25
-0.98090887 -1.5215101 0.67884803 7
-0.87126797 -1.6287584 0.66860455 11.333333
-1.1445811 -1.3584379 0.72684216 37
-1.0374314 -1.4601636 0.60036975 28
-1.2546662 -1.2454756 0.70160514 41
-1.4069513 -1.1011716 0.648781 47.857143
-1.336138 -1.1682101 0.63924623 41
-1.5612627 -0.94873947 0.67111021 61.875
-1.487334 -1.0197092 0.67056024 61
-1.7049984 -0.80346799 0.68067807 65.875
-1.6227124 -0.88436788 0.70418996 61
-1.8461195 -0.66617078 0.6612944 67.444443
-1.7780174 -0.73229015 0.6715799 64.400002
-2.0154912 -0.49428031 0.68248928 68
-1.9296843 -0.57977182 0.66913128 66
-2.1254044 -0.38636771 0.67953873 69.25
-2.0753887 -0.43607274 0.73471594 64
-1.1456389 0.08948686 0.66799074 5.375
-1.1465825 0.16811675 0.67427242 16.75
-2.4333253 0.9270618 0.69474036 89.5
-1.818078 0.97874826 0.73404431 159
-1.7643195 0.92314696 0.65502882 132.66667
-1.0727618 0.97136164 0.6512658 18.75
-1.0336752 1.0438719 0.6156491 39
-2.2799425 1.0781344 0.67626047 102.5
-2.1611485 1.1990323 0.60016286 108
-2.1337614 1.2254288 0.67723948 102.28571
-2.0341866 1.3230413 0.64486665 76
0.72732824 1.3227905 0.64514285 59
0.78608447 1.2680775 0.60980892 55.5
-2.0053179 1.3590972 0.66865671 100
-1.9078407 1.4511721 0.64986193 86.400002
0.58929294 1.4643567 0.71348667 58.5
0.64913619 1.4026395 0.67748046 58.421051
-1.0914931 1.6273469 0.68431687 150
-1.0371598 1.5903991 0.7152124 60.333332
0.42967311 1.6180182 0.69423932 62.200001
0.49749592 1.5544696 0.66398269 62.25
0.38808864 1.6627157 0.67606318 57.5
0.12444562 1.9181347 0.67661911 63.333332
0.18145038 1.8598686 0.67272252 59.166668
-1.3360404 2.0484178 0.65957075 76
0.06301336 1.982332 0.7447449 59
6.6779184 2.0358946 0.70015037 74
-0.18940213 2.2289784 0.66553909 67.5
-0.11546557 2.1496391 0.6205222 68
-0.84905118 2.265136 0.74570906 50
-0.32687512 2.2899668 0.74989569 48
-0.23275392 2.2775617 0.70130473 66
-0.91691506 2.4415615 0.73838127 84
-0.75189477 2.5430374 0.74810076 50
6.9079685 2.511116 0.62435472 26
-0.77613926 2.6053269 0.71337271 76.333336
-0.63989174 2.6256251 0.67397147 65
-0.59285164 2.5636384 0.73790538 63
7.1159234 2.7651672 0.6254307 2
10.950978 4.7047439 0.69220686 34
10.309508 5.3425932 0.69416428 37
12.755836 7.7542882 0.66493177 74
-0.67226231 -1.821815 0.8017174 7
-0.51459795 -1.9238389 0.82500142 36.142857
-0.80718315 -1.6866529 0.82124263 22
-0.69855881 -1.7855196 0.87801933 52
-0.24354513 -1.6905481 0.83650684 44
-0.93679869 -1.5533097 0.84218502 50
-0.86520791 -1.621659 0.87910998 49
-0.18478169 -1.6360403 0.86010838 38.333332
-1.0904621 -1.4047525 0.79708165 54.799999
-1.0206611 -1.4697307 0.79291332 38
-1.2290624 -1.2678784 0.8456651 62.5
-1.1634787 -1.3305479 0.84536028 57.5
-1.4034542 -1.0967332 0.81654614 60.333332
-1.3057078 -1.1900728 0.82323134 62
-1.558659 -0.94461048 0.81439209 61
-1.4623117 -1.0367566 0.85367191 58
-1.7032937 -0.79846019 0.83287317 57.166668
-1.6299725 -0.87202859 0.8204183 59.666668
-1.847937 -0.65386951 0.81916946 61.714287
-1.765039 -0.73817307 0.77842438 59
-1.9933783 -0.51472282 0.81461531 64.25
-1.9258119 -0.57921171 0.79760283 62.333332
-2.1663566 -0.34530589 0.82263637 60.333332
-2.0822415 -0.42765644 0.83668423 65
-1.2077483 -0.0064077186 0.81677818 8
-1.0981385 -0.027137632 0.81781316 7
-1.030813 -0.0074379477 0.83539331 2
-1.0667167 0.057238556 0.7966243 2
-1.0219353 0.091486618 0.80920815 1
-1.0820711 0.2021087 0.82856685 8.75
-1.0190423 0.15155357 0.8243711 0
-2.5672488 0.78775984 0.7756151 79.5
-2.5332077 0.82252246 0.86115742 90
-2.4155993 0.94544053 0.81330377 88.5
-2.3813233 0.97565717 0.81995326 86.199997
-1.8292955 0.99576014 0.80242294 60.5
-1.7342908 0.97571152 0.82164669 150
-1.6144845 1.0482543 0.79021931 71
-1.1737931 0.92291778 0.80996251 5
-0.98632199 0.9404254 0.82359749 9.333333
-2.2750254 1.0932193 0.80767536 95.333336
-2.2318063 1.134289 0.82298338 93.599998
-1.8977803 1.1738418 0.79986173 55.333332
-1.7536647 1.1382898 0.80300313 33.5
-1.5843755 1.1259528 0.81911349 85.666664
-2.124655 1.2320285 0.76972324 97
-2.0460327 1.2586908 0.79615122 83.5
-1.9136906 1.2705069 0.79369611 61
-2.0096102 1.3557322 0.76905632 105
-1.9059091 1.4040565 0.78288817 63.25
0.58031136 1.4765223 0.81541985 57.166668
0.62944853 1.4278915 0.80892563 54.5
-1.0286465 1.6055951 0.75917208 58
0.40569317 1.6476398 0.78260958 58
0.52400345 1.5302966 0.83650714 58.777779
-0.99894267 1.7505127 0.76950473 66.666664
0.29234481 1.761343 0.8867178 56
0.34911212 1.7041255 0.81287122 60.666668
-1.0059905 1.8740895 0.76793724 49
-0.86860597 1.91609 0.77152514 51
0.15011998 1.8894 0.77617836 59
-1.092255 1.9716846 0.76175821 49
-0.93929988 2.0226853 0.76576167 45.666668
-0.4742642 2.0562415 0.80982131 97
-0.43606955 2.0599256 0.78107357 57.5
0.054888874 1.9892372 0.82808334 57.166668
-0.9659307 2.1571729 0.76485425 48.5
-0.8368997 2.1887825 0.76197165 61.666668
-0.45692763 2.1079679 0.76557446 27
-0.3548272 2.160629 0.7751987 53.25
-0.18586491 2.225188 0.77804744 66
6.5616174 2.174602 0.80637109 12
-0.88032568 2.3650613 0.75839627 37
-0.70399952 2.3450975 0.76110876 53
-0.3166281 2.2934287 0.79122794 48
-0.2677249 2.3102889 0.76793516 73
-0.81608492 2.4656634 0.75380331 32.5
-0.73662114 2.4744272 0.75619471 44
6.8256607 2.4162812 0.81768107 39
6.9370055 2.5294778 0.81924498 38
11.218596 4.4596457 0.85652578 40
10.461062 5.2046423 0.7748276 30
-0.50637889 -1.9561411 0.90114927 62
-0.63755774 -1.8368994 0.9450677 55
-0.5820536 -1.895929 0.93353862 51.666668
-0.38448152 -1.8214165 1.0268819 46
-0.78925222 -1.6876402 1.0097228 52.166668
-0.702007 -1.7738488 0.98050022 54.25
-0.32840058 -1.7736052 0.94011962 49
-0.26245564 -1.7064869 0.99016225 54.599998
-0.94265842 -1.5385064 0.99218941 51
-0.88231903 -1.5952488 0.95712984 58
-0.11137378 -1.5423071 0.95237195 54
-1.1201459 -1.3653986 0.93755531 61
-1.0464967 -1.4398134 0.97224581 56
-1.2366285 -1.2510811 0.95824909 57.666668
-1.134872 -1.3477811 1.0214828 55
-1.3996606 -1.092095 0.98462385 54
-1.3218422 -1.1716311 0.96016961 58
-1.5593637 -0.93578231 0.95563453 53.5
-1.4861114 -1.0106299 0.98059398 55.5
-1.7336494 -0.76415318 0.96753263 59
-1.6469164 -0.84734398 0.9802953 50
-1.8611969 -0.63561702 0.99847627 55.75
-1.7775328 -0.72250956 0.93131429 58.5
-1.9963576 -0.50663871 0.97336596 56.400002
-1.9117589 -0.58512521 0.92941022 64
-2.169569 -0.33380604 0.9627977 62.857143
-2.0713952 -0.43225738 0.96765345 52.666668
-2.2845635 -0.24229719 0.97171801 11
-2.2093177 -0.29538676 1.0023739 65
-2.4962423 0.86351395 0.98242247 82.428574
-2.358032 1.0072967 0.94816953 81.166664
-2.2959681 1.0710316 1.0015879 85
-2.2258079 1.1408894 0.97524571 91
0.56623763 1.4931394 0.90485752 53
0.43303785 1.6257951 0.99471301 55
0.49504739 1.5635043 0.95541286 57.545456
7.1125088 1.6124123 0.95935977 4
0.283564 1.7704916 0.95379901 54.5
0.39294589 1.6668249 1.0423822 56
7.0044737 1.7401742 0.9930898 63.5
0.22411084 1.8311546 0.99820507 53.400002
6.8086705 1.9227046 0.95285547 70
-0.025864631 2.0821364 0.95663518 60.200001
0.070322677 1.9665837 0.90753508 55
6.6831555 2.0443797 1.0093236 74.5
-0.069667377 2.1279664 1.0177252 57.5
-0.30237219 2.3264151 0.93577409 58
6.6625481 2.2633252 0.9897157 34
7.1064119 2.7394354 0.99332583 24
10.715935 4.9606233 0.99091876 38
-0.60547996 -1.8624713 1.1836667 49
-0.48228171 -1.9159086 1.1042069 44
-0.40777403 -1.8487718 1.1508199 46
-0.34503451 -1.7851728 1.1471211 47.666668
-0.93919235 -1.5376492 1.1363287 48.5
-0.86354417 -1.6141974 1.0944558 47.666668
-0.19971673 -1.6301515 1.1202123 45
-0.12583926 -1.5592571 1.1384794 44.333332
-1.0716786 -1.4086512 1.1318055 57.666668
-0.99048793 -1.4894384 1.1151798 51
-1.2282454 -1.254081 1.1232567 56
-1.1420554 -1.3321451 1.1043248 57
-1.4113148 -1.0764862 1.0962231 53
-1.3107347 -1.1763588 1.0998355 58.5
-1.5362933 -0.95560777 1.1321576 52.200001
-1.4802685 -1.0097071 1.1208816 48.5
-1.6696042 -0.82305121 1.1118934 54
-1.6116893 -0.88506287 1.1406922 54
-1.8640511 -0.63399464 1.1392177 51
-1.7567221 -0.7364136 1.0974761 50
-1.9803214 -0.51496458 1.1047055 55.333332
-2.1670735 -0.33308825 1.1109829 53
-2.0872808 -0.41126484 1.1278647 55
-2.2570176 -0.23789324 1.099601 50
-2.2046106 -0.2967768 1.126897 61
-2.4302933 0.9308483 1.1110876 78.5
-2.3376076 1.034933 1.1093948 81
-2.2901449 1.0834448 1.1191621 81
-1.9820223 1.3447696 1.1538591 150
0.42755422 1.6355699 1.1345948 52.333332
0.4666895 1.5935178 1.079495 51
0.37608373 1.6895896 1.1456879 56.666668
0.12278865 1.9437019 1.1685473 56
0.19364427 1.8716536 1.117026 55.5
6.8379002 1.90851 1.0820733 72
-0.011833715 2.064436 1.0654699 60
-1.2334603 2.1550076 1.1877831 73
-0.15536302 2.2097273 1.1368942 55.5
-0.12647647 2.1808541 1.1335051 55
6.6461024 2.2436306 1.1353966 35
-0.441688 2.451757 1.0937557 69
6.8941064 2.5024691 1.1304247 39
6.9095259 2.5225146 1.1729382 38
-0.55403256 2.5802784 1.1567101 150
10.236291 5.4354153 1.1488726 44
12.759945 7.738338 1.0699378 84
-0.51270354 -1.9557385 1.2471853 57
-0.62431788 -1.8504449 1.2857062 50
-0.53019112 -1.9406927 1.3494519 55
-0.40008679 -1.839385 1.2410461 49
-0.7231884 -1.7491424 1.2728302 47
-0.30215827 -1.7223285 1.3146719 44
-0.92178506 -1.5450691 1.3100204 46
-0.82047087 -1.6477441 1.2624973 44
-0.21217173 -1.6358708 1.2819864 42.5
-0.14438619 -1.5709689 1.3051834 48.5
-1.0945315 -1.3785782 1.2671512 51.666668
-1.0282118 -1.4460545 1.2249806 51.5
-0.078248486 -1.491811 1.3228483 53
0.055013876 -1.366933 1.3296154 57
-1.2480828 -1.227901 1.3110161 54.666668
-1.1584835 -1.3179139 1.2427952 55
0.11512351 -1.3070792 1.3109707 50.666668
0.16909868 -1.2518724 1.2907721 51.666668
-1.4121981 -1.0718921 1.2575005 51
-1.3262143 -1.1570637 1.2819682 53.5
-1.5419745 -0.93866444 1.2688951 51.5
-1.6997622 -0.78846842 1.2666011 53.333332
-1.6096041 -0.87554526 1.2614057 51
-1.8646954 -0.62605685 1.288673 51.333332
-1.7738693 -0.71306467 1.2813778 47.5
-1.9907064 -0.50247073 1.2761284 49.5
-2.1224146 -0.37696078 1.2731876 58.333332
-2.32759 -0.18228975 1.2282364 8
-2.2324634 -0.27494821 1.2358077 63.5
-2.3998439 0.96749067 1.2441652 74
-2.2608304 1.1103927 1.3345212 80
-2.225843 1.1460621 1.2757034 83
-2.1340492 1.2418517 1.2819816 82
-2.0608444 1.3178895 1.2474122 78
-2.0236421 1.3610865 1.2285995 72
-1.7807369 1.5893836 1.2921163 73
0.28622991 1.7912815 1.3405002 52
0.3538996 1.7257745 1.2789172 61.333332
6.9698863 1.7764828 1.2243704 56
7.0888662 1.6757414 1.3028978 60
0.13681996 1.9315115 1.228624 56.666668
0.23425967 1.8401879 1.3133403 55
6.8969312 1.8618952 1.3460295 57
-1.3416067 2.0379663 1.2617385 64
0.072195709 1.9996217 1.3064226 55.5
6.6641994 2.0620158 1.2032902 64
6.7755957 1.9719545 1.2995403 66
-0.10504249 2.1553946 1.234043 53
-0.24260426 2.2990956 1.2981761 45
6.920166 2.5255458 1.3230704 38
-0.82536912 2.5696125 1.2844896 62
-0.62367284 2.6599703 1.2710689 52.666668
-0.67832416 2.7156818 1.2916071 62
11.069158 4.6277051 1.3429706 25
10.857701 4.8695278 1.2963172 20
12.910324 7.6112452 1.2628648 83
13.408069 7.5829058 1.2860489 83
-0.64032251 -1.8277427 1.4403934 49.5
-0.49746433 -1.923847 1.4397032 49.799999
-0.73537117 -1.7329193 1.4271429 52
-0.30851027 -1.7335087 1.4427919 48
-0.92671824 -1.5349265 1.4117202 43
-0.83098519 -1.6344795 1.4176471 48
-0.1870095 -1.6136147 1.3877331 44
-1.0231283 -1.4419969 1.4192345 45
-0.029455176 -1.4477316 1.3974291 45.666668
0.0378896 -1.3809311 1.4135691 47.285713
-1.2101812 -1.2657887 1.371268 53
-1.1571382 -1.3131835 1.4098587 44.5
0.10821217 -1.3111094 1.450112 44.666668
0.15133108 -1.2611272 1.4258881 58
-1.3908559 -1.0869614 1.4021339 48.5
-1.3032826 -1.1717745 1.4566661 47
-1.5117646 -0.96786183 1.4296229 45.5
-1.4644643 -1.0129573 1.4930621 49
-1.7045659 -0.77833742 1.3999887 45.666668
-1.6113511 -0.87124676 1.4208483 44.5
-1.8355902 -0.64942396 1.4688628 49.5
-1.7940469 -0.70199847 1.4755833 59
-1.9935026 -0.50657535 1.4350419 56.5
-1.897638 -0.59569168 1.447173 57
-2.1446636 -0.35871187 1.4411656 54
-2.2716942 -0.22431993 1.393916 51.666668
-2.3399737 1.0394849 1.4218632 76
-2.2669411 1.1107165 1.4261413 78.5
-2.148674 1.2277128 1.3889591 78
-1.9065858 1.4647599 1.3925018 75
-1.863673 1.5065179 1.4619681 75
-1.7500683 1.633942 1.4188676 70
7.1494417 1.6238195 1.4273262 39
0.29026452 1.7890882 1.3984076 50.666668
0.33952084 1.7422476 1.4111848 50
-1.5577532 1.8123072 1.4231027 76
0.23549488 1.8426731 1.458359 52.599998
6.8390193 1.9197793 1.4226984 59
0.04493773 2.0241396 1.4335572 51.166668
-1.2350402 2.1568985 1.4996457 58
6.6103253 2.1768603 1.4054852 42.5
-1.1027448 2.2872052 1.4210331 58
-0.31558833 2.379761 1.4610569 45
-0.23668587 2.2923825 1.400745 44.333332
6.7339416 2.3356848 1.3772618 35
-0.94070047 2.4665294 1.438463 54.75
-0.80859309 2.609412 1.4204631 59.333332
-0.72319502 2.694845 1.3768821 57
-0.58420461 2.6149678 1.3606062 49
10.610796 5.0918403 1.4676318 39
10.346863 5.3337317 1.4396818 33
12.485504 8.0122795 1.4171016 58
-0.61476433 -1.8522661 1.514466 44
-0.57660943 -1.8841716 1.5503123 44
-0.42282471 -1.8458191 1.5711333 40
-0.8013497 -1.6596012 1.6369852 42
-0.70510554 -1.7577932 1.5792142 45
-0.30416596 -1.7318608 1.5614229 42
-0.25437254 -1.6852674 1.5891931 50.75
-0.93023008 -1.5460497 1.536887 48
-0.83201993 -1.6357391 1.5983305 49
-0.15974098 -1.5833622 1.5430816 47
-1.0247048 -1.4494375 1.596683 53
-0.041743763 -1.4600382 1.5537696 44.799999
0.035079237 -1.3828081 1.6048285 43.666668
-1.2242429 -1.2503163 1.5698129 53
-1.1249555 -1.3486979 1.5493265 56
0.10424123 -1.3071173 1.6008859 40.333332
-1.3834503 -1.0929544 1.5695603 48.5
-1.3302505 -1.1486744 1.6002566 56
-1.5557805 -0.92957997 1.6211538 57
-1.424192 -1.0465144 1.5200264 42
-1.7287211 -0.76189172 1.5764273 51
-1.6202515 -0.86916101 1.5788903 50
-1.8449428 -0.64121884 1.5877194 46
-1.9904312 -0.49989891 1.5918421 50.666668
-1.9059767 -0.58168334 1.5953044 50
-2.1313183 -0.36384243 1.5531669 51
-2.2953007 -0.20021573 1.5643054 50
-2.5715256 0.81231952 1.5963048 4
-2.2803609 1.1053516 1.5212529 67
-2.1715672 1.1940284 1.6211671 68
-2.0388646 1.3353586 1.5052906 68
-1.9948056 1.3895354 1.6063805 72.5
-1.9481921 1.4259778 1.644473 72
-1.8530042 1.5439471 1.5668806 67.25
-1.7923909 1.6110699 1.5404798 68
0.33159685 1.7541277 1.5034648 50
0.22737378 1.8515319 1.5717385 48.75
6.8636146 1.9000146 1.6290599 58
-1.3655442 2.0309081 1.5887551 62
-0.017139468 2.0923979 1.5822768 46.5
0.11054592 1.9565212 1.6260768 57
-1.2089485 2.2019708 1.644384 60
-1.1935719 2.2020307 1.5875865 50
-0.056162566 2.1330807 1.584878 43
6.5974631 2.1723521 1.6281031 45
-1.0867635 2.3238499 1.5742301 50.75
-1.0345207 2.3817511 1.5864053 49.5
-0.95097977 2.4629562 1.5226387 50
-0.87151903 2.5449667 1.6258596 51
-0.38756776 2.4451547 1.5802479 40
-0.74181831 2.6713617 1.5525399 56
6.9925852 2.6304562 1.5533843 28
10.74851 4.4242439 1.6370991 9
7.5150862 4.6465425 1.6445967 27
9.6511116 4.6033559 1.6456455 19
11.003359 4.6347027 1.6301774 7
8.5258427 4.6526589 1.6408745 22
7.9601727 4.9726014 1.6338023 20
9.0147152 4.984457 1.6490589 25
10.11337 5.5076771 1.6034604 13
9.0780773 5.5675464 1.6389908 17
9.8224182 5.7491193 1.599149 5
11.388843 6.8350687 1.5927999 13
-0.55809939 -1.8995665 1.7881538 50
-0.42264649 -1.8380266 1.694476 40
-0.77170575 -1.6877339 1.6885456 44.5
-0.27748892 -1.6928313 1.7321453 40.5
-0.92723584 -1.5404378 1.6591336 48.5
-0.8765626 -1.5845098 1.7498385 42.333332
-0.15044725 -1.5716127 1.6676849 40
-0.11901303 -1.5414307 1.7865752 39.5
-1.1128629 -1.355953 1.728864 49.5
-1.0137054 -1.4559544 1.7503623 46.333332
-0.044251263 -1.4654216 1.7265033 46.333332
-1.2137868 -1.257255 1.7438749 50
0.079686001 -1.33338 1.7736579 31
-1.3232412 -1.1490426 1.71376 47
-1.4678179 -1.0118619 1.6891915 51.333332
-1.7087226 -0.77566165 1.6994015 45
-1.6229596 -0.85812396 1.7730037 48
-1.8447627 -0.63976711 1.739545 44
-1.9757357 -0.50390106 1.7135035 44
-2.1344645 -0.3483716 1.7352382 49.666668
-2.0341532 -0.44807032 1.7363151 48
-2.2881007 -0.20040086 1.6923758 53
-0.74125487 0.28494728 1.7970475 59
-0.67755353 0.33425805 1.7926375 45
-0.96257991 0.79825753 1.7979523 75.666664
-0.81633472 0.87168324 1.7992522 72
-0.6755321 0.8789857 1.7972642 72.5
-2.3247755 1.0490319 1.7627643 70
-2.1165414 1.0028907 1.7974778 83
-2.0633857 0.94922096 1.7970132 86
-1.704137 0.99495071 1.7978219 84
-1.2262689 0.99695903 1.7997447 95
-0.78657943 0.95259023 1.7983643 72
-0.67991799 0.98252314 1.792305 68.5
-0.54037672 0.967179 1.7967911 74.199997
-0.39432681 1.0159762 1.7971333 62.5
-2.1812818 1.0861789 1.7944016 84
-2.0266294 1.1239008 1.7946244 82.666664
-1.7167584 1.161624 1.7910711 83
-1.5676614 1.1166312 1.7966837 80.199997
-1.492331 1.075606 1.7962323 57
-1.1297545 1.1240995 1.7966583 82.75
-1.0195378 1.1393938 1.7984265 77
-0.81071115 1.1172925 1.7975234 84.333336
-0.65138787 1.1336496 1.7980144 90.5
-0.47250035 1.1027735 1.7936498 75.666664
-0.37862778 1.1464627 1.7950253 81.75
-2.1310279 1.2565134 1.7324463 70
-2.0374007 1.2801615 1.7817054 79
-1.7259121 1.3474189 1.786157 79
-1.5754116 1.2683115 1.7908111 84
-1.4788054 1.2661191 1.7914866 83
-1.2558348 1.2512234 1.7912153 86
-1.1150444 1.2645811 1.7912598 65.25
-1.0058889 1.2586099 1.7941065 68
-0.80728418 1.2417327 1.7942853 77
-0.68347186 1.2898551 1.7949426 75.75
-0.54039407 1.2657368 1.7964547 79
-0.36763126 1.2989671 1.7963213 76.800003
-0.24946883 1.299925 1.7965727 76.5
-0.12213151 1.3404305 1.7909123 58
-2.0191417 1.369212 1.7463528 78.5
-1.9182605 1.4782567 1.7057492 69.666664
-1.5321997 1.4274594 1.7876731 85
-1.4353192 1.4029198 1.7894206 79.5
-1.2029264 1.4284258 1.798916 54
-1.0765961 1.4231218 1.7891906 56
-0.97310776 1.4120836 1.7935913 52.25
-0.81356877 1.3510735 1.7886256 70
-0.68753487 1.4403523 1.786046 72.5
-0.53537041 1.4172012 1.7887846 70.85714
-0.36942348 1.4502356 1.7884779 75.400002
-0.22640136 1.4425654 1.7878797 68
-0.054952178 1.4443007 1.7866813 63
-1.6707247 1.5472026 1.7750036 63
-1.5708758 1.5480314 1.7766937 70
-1.4355824 1.5666234 1.7812494 79.400002
-1.1292347 1.5922999 1.7812878 60
-0.97213155 1.5763074 1.7849249 56.666668
-0.86061329 1.5439249 1.7837623 52
-0.63482249 1.608248 1.7806919 73
-0.51480114 1.5862242 1.7835623 69.800003
-0.35363865 1.5908972 1.7844597 73.75
-0.22453998 1.5707588 1.7851974 72.25
-0.088619076 1.5793146 1.7824535 63
0.015076455 1.5917158 1.7820823 59
5.764884 1.6164999 1.7954341 28
7.0553212 1.6370906 1.7776526 39
-1.4129939 1.7245233 1.777594 77
-1.3274212 1.7146126 1.7807435 69
-1.0509402 1.7696078 1.7767884 68
-0.93641043 1.7422508 1.7703477 74.333336
-0.84658217 1.7180101 1.7770104 68.25
-0.52441418 1.7415808 1.7714486 67.666664
-0.41991585 1.7168944 1.7746762 69.5
-0.22273624 1.7139497 1.7748544 70
-0.069375716 1.7239892 1.7720093 72.875
0.071519122 1.7110543 1.773231 69.5
0.19902919 1.774648 1.7748681 74
7.0964742 1.6938533 1.7192935 54
-1.4223303 1.8919863 1.7484754 70.800003
-1.3164688 1.8745309 1.7677035 76.333336
-0.95832998 1.9480151 1.766909 63
-0.8267507 1.8801278 1.7710409 60.75
-0.71907288 1.8311503 1.7712966 76
-0.45375314 1.9295702 1.7667035 63
-0.37027708 1.8511086 1.7674259 67.599998
-0.23502265 1.8821399 1.7637109 76.5
-0.078383885 1.8366953 1.7695632 83.333336
0.072019301 1.875428 1.7584313 70
0.19448529 1.8786781 1.7247002 59.714287
5.5766444 1.8280213 1.7908148 28
6.1868172 1.9016343 1.7904767 32
6.7821059 1.9103073 1.7648164 39
-1.3209141 2.0505462 1.7349062 69.5
-1.1884944 2.0758297 1.7645754 64
-0.78580022 2.0101213 1.7620949 62.75
-0.68347198 2.0205605 1.7631041 62.333332
-0.33118773 2.0372858 1.7665035 52
-0.23796299 2.0045784 1.7626736 62.200001
-0.10225648 2.0465858 1.759956 64.5
0.059450932 1.9916794 1.7250181 58.5
5.3475986 2.0158007 1.779431 28
6.8153763 1.9533303 1.7081298 56
-1.2471635 2.1589844 1.7338884 63
-0.85467148 2.1367352 1.7615722 58
-0.65870172 2.1887908 1.7572155 58.799999
-0.54244596 2.143054 1.7621785 62
-0.1902243 2.1685631 1.7547255 63.333332
-0.10805915 2.1541429 1.7137126 54
5.1119547 2.1886055 1.7726797 27
5.9718323 2.1405613 1.7848192 31
6.5080738 2.1761482 1.7313278 24
-1.14072 2.2641988 1.7036077 60.333332
-0.67789608 2.3023329 1.753107 61
-0.53202426 2.35287 1.7484499 59
-0.378728 2.3430409 1.710391 49
4.872983 2.3475187 1.7720226 26
5.7201018 2.3548791 1.7769502 31
6.1770239 2.3833907 1.7570132 33
-0.99365288 2.4166756 1.6980978 50
-0.60359615 2.5308669 1.7492033 65
-0.50813943 2.4671438 1.7446957 58
4.6032481 2.4768467 1.7656282 31
5.4210644 2.5353298 1.7631644 28
6.3881974 2.4658351 1.7552749 23
4.0402694 2.6721048 1.7531697 46
4.3200774 2.5828583 1.7565957 33
5.8281999 2.5687482 1.7519017 32
6.0598927 2.6560035 1.7560176 32
6.731894 2.577096 1.7598339 24
4.8197961 2.8417149 1.7571641 27
5.0863786 2.8408444 1.743184 27
5.1312952 2.7032013 1.7605489 28
5.4544201 2.7176929 1.7447494 29
5.7161326 2.8179634 1.7567981 32
6.313365 2.7737603 1.7431678 23
7.2015715 2.8113172 1.7241706 25
4.3148255 2.9771969 1.727079 15
4.482038 2.9447954 1.7478181 33
4.7094684 2.92978 1.7389158 33
5.3344288 2.9371092 1.7462133 29
5.8999853 2.9426999 1.7348803 31
4.6098075 3.1145546 1.7438544 27
4.9821281 3.0452785 1.7502214 28
5.5114589 3.0913434 1.7401341 31
6.7228985 3.0181577 1.7260414 24
7.2131634 3.110652 1.7369999 26
7.6700969 3.085048 1.7276143 26
5.0843835 3.1881061 1.7346717 28
5.6495566 3.2455595 1.7071973 20
6.2025352 3.1642382 1.721826 21
6.6896663 3.2773075 1.7328347 28
7.0937371 3.2786341 1.7184356 25
5.1750412 3.3225098 1.7145973 29
6.1468158 3.3885181 1.7226866 25
6.5265226 3.4254603 1.7146541 25
8.5387459 3.3672025 1.681985 28
5.3926954 3.5618963 1.7028779 19
5.6421509 3.4758918 1.7245599 23
5.9480777 3.5140104 1.7081429 22
7.7905245 3.5562677 1.676639 28
8.2280035 3.4642661 1.7206653 23
7.1255875 3.713016 1.6936635 28
7.7127142 3.7231984 1.7129921 25
8.6817884 3.6574728 1.693931 30
8.8193254 3.7077034 1.6803101 26
5.7183013 3.7802405 1.6879519 32
6.400506 3.7723484 1.6902789 30
7.8963346 3.8167858 1.6834079 27
7.9875765 3.864641 1.6733028 28
9.7813921 3.8561287 1.7009529 25
6.4907808 4.0131435 1.6909585 26.5
7.1998701 3.9454517 1.71691 26
7.2410154 3.9754121 1.6941792 27
6.6076269 4.0829768 1.7048937 25
9.030386 4.1122751 1.6889247 15
8.3089333 4.3201585 1.6885749 30
7.5709615 4.4527292 1.6882714 26
10.099666 4.4154801 1.688085 14
6.8372331 4.5182509 1.6854273 24
8.2849979 4.6262116 1.6686932 20
9.227088 4.578012 1.6895956 18
7.51511 4.6850715 1.6745328 27
10.064061 4.8847799 1.6504186 16
-0.5487296 -1.8691893 1.8955299 75
-0.40639132 -1.822051 1.8410941 58
-0.78884059 -1.6640469 1.8760501 71
-0.66364408 -1.7464645 1.855919 63.5
-0.49400973 -1.7064584 1.8851663 84.666664
-0.36418471 -1.7383038 1.8635685 66.800003
-0.94753885 -1.5016575 1.875863 69
-0.88306868 -1.5127754 1.8796731 87
-0.67768741 -1.5925862 1.8861228 74
-0.54029834 -1.5548272 1.8850771 81
-0.36757436 -1.5873488 1.8889111 81
-0.21384037 -1.5617253 1.8648146 76.75
-0.10537802 -1.5056527 1.8870751 79
-1.0879213 -1.3681711 1.8696252 72
-0.99181324 -1.4064935 1.8672205 65.666664
-0.8294751 -1.4260757 1.8831881 77
-0.66033512 -1.4278985 1.8824847 78.75
-0.52685916 -1.4177144 1.8857616 81.599998
-0.35650885 -1.4085455 1.8883972 69.333336
-0.21000688 -1.4078946 1.8862354 75.375
-0.092172854 -1.4399838 1.8802217 75.833336
0.02684338 -1.3942641 1.8344122 39.5
-1.2101357 -1.2190716 1.8738528 83
-1.1418484 -1.2576216 1.8584551 70.75
-0.98365998 -1.2798196 1.8794799 76.666664
-0.78818893 -1.2882074 1.8799992 73
-0.66046935 -1.2526371 1.8813311 78.400002
-0.50929344 -1.2761356 1.885059 71
-0.36944336 -1.2738565 1.8857062 68
-0.24460496 -1.2733061 1.8907518 53.857143
-0.078682408 -1.271121 1.8816067 62.400002
0.04101387 -1.3086871 1.8578429 58.333332
-1.2767562 -1.111946 1.8556145 72.333336
-1.1243991 -1.092762 1.8717774 79.5
-0.93665683 -1.1174917 1.8808484 77.5
-0.78428078 -1.1552259 1.8754498 82.666664
-0.69322473 -1.1106912 1.8775452 82.666664
-0.51768577 -1.1180364 1.8788942 75
-0.37683302 -1.1242955 1.8815949 58
-0.23228452 -1.1273448 1.8789377 50.5
-0.089333199 -1.1396379 1.8842216 56.666668
-1.540134 -0.91078454 1.8312325 58.333332
-1.4043255 -1.0311925 1.8388724 60
-1.2865891 -0.93247181 1.8665334 80.333336
-1.1416702 -0.94166613 1.8701229 82.25
-0.97401577 -0.95578212 1.8717957 95.666664
-0.82272196 -0.99994975 1.8748564 94.5
-0.67258233 -0.9750585 1.8717036 91.75
-0.51621681 -0.9445979 1.8638548 67.85714
-0.39177001 -0.98769462 1.8655838 53.599998
-0.21856664 -0.97918415 1.8662332 44.833332
-1.6194715 -0.7651087 1.8600849 70.5
-1.3769964 -0.81959409 1.8635359 77.333336
-1.2328025 -0.76484329 1.8634305 88
-1.1209042 -0.81395531 1.8685093 88.5
-0.95218384 -0.79362017 1.8652728 97.75
-0.81728113 -0.83545578 1.8600647 85.599998
-0.66168123 -0.81920224 1.8632132 84.5
-0.52894372 -0.82118005 1.860926 69.375
-0.39100286 -0.81439054 1.8620636 60.285713
-0.26338047 -0.84362608 1.8629001 50.5
-1.8047287 -0.65847123 1.8408035 76
-1.6875172 -0.67990607 1.8526272 73.666664
-1.5442894 -0.74001318 1.8587373 72
-1.4148622 -0.67229176 1.8616039 75
-1.264208 -0.62005085 1.8571368 86
-1.1546912 -0.67739719 1.8644289 91
-0.97617388 -0.6538288 1.8512137 78.199997
-0.81721658 -0.67022705 1.8559823 80.833336
-0.6734165 -0.66517454 1.8550954 82.555557
-0.53948623 -0.68019956 1.856153 78.333336
-0.37618059 -0.65667856 1.8557417 70.5
-0.29761323 -0.7346856 1.860587 56
-1.9785047 -0.50548118 1.8189677 47
-1.8744934 -0.48652354 1.8432389 75
-1.7259028 -0.55270338 1.8514965 72
-1.5789801 -0.58485216 1.8710986 53.333332
-1.4263775 -0.55898172 1.8612226 72
-1.2675166 -0.48130217 1.85483 89.25
-1.1193675 -0.5168407 1.8520453 84
-0.98725963 -0.50482446 1.849902 75.25
-0.82127219 -0.51296276 1.8489715 84.14286
-0.65585083 -0.51875299 1.8476006 81.666664
-0.52253556 -0.54071373 1.8483101 78.571426
-0.38914469 -0.52465886 1.8486146 72.666664
-2.1035933 -0.34559056 1.8378659 87
-2.0226984 -0.33398274 1.8389527 81
-1.8991063 -0.31527689 1.8408854 78.5
-1.7229873 -0.40083337 1.8479466 74.666664
-1.5940876 -0.42564294 1.851819 72.666664
-1.4323707 -0.43390405 1.8554096 85.5
-1.2711656 -0.33742625 1.8470558 91.599998
-1.0888902 -0.34862527 1.8454889 79.333336
-0.96497798 -0.38477436 1.8456883 80.666664
-0.80895543 -0.363469 1.8416648 82.75
-0.67836934 -0.37931675 1.8430641 79.599998
-0.54096788 -0.36214271 1.8466302 79.166664
-0.42844757 -0.38751033 1.8454151 78
-2.1657977 -0.20830145 1.8360628 79.25
-2.00369 -0.15786698 1.8335859 84
-1.7354485 -0.23478198 1.8403816 84
-1.6108528 -0.27120486 1.8458848 83.666664
-1.4239582 -0.25550148 1.8482033 96
-1.2633483 -0.2029056 1.8384577 76
-1.1104168 -0.224208 1.8425159 79
-0.97205418 -0.22421716 1.8368921 80.833336
-0.8299371 -0.22679029 1.8363609 78
-0.68271917 -0.22266966 1.8412186 78.666664
-0.5218547 -0.2131145 1.8411376 78.400002
-0.44432279 -0.23654126 1.844541 81
-2.3421502 -0.069575951 1.82885 39.5
-2.1697874 -0.072178446 1.8346968 80
-1.8680258 -0.12741038 1.8384768 81
-1.718575 -0.091333464 1.836282 52
-1.591104 -0.12274872 1.8397065 88.25
-1.4033624 -0.097269043 1.8375508 98
-1.272283 -0.068557322 1.834038 80
-1.1250815 -0.099477895 1.83605 83.333336
-0.98411804 -0.076531969 1.8331831 81
-0.82312238 -0.08171609 1.8343138 78.699997
-0.69210911 -0.072795793 1.8342394 81.85714
-0.5540899 -0.076836117 1.8353426 80.14286
-2.2965546 0.073751703 1.8249794 78
-2.1598408 0.041010428 1.8305923 57.666668
-2.0648348 0.020915093 1.8355881 12
-1.5425395 0.061411615 1.8352917 89.333336
-1.4078264 0.048148025 1.8343029 101
-1.2619168 0.079719923 1.8268408 80
-1.1276529 0.069384225 1.8293473 81.800003
-0.99116135 0.073543616 1.8288697 80.166664
-0.8217026 0.071439378 1.8268288 81.181816
-0.68615323 0.077637538 1.8299143 80
-0.54664057 0.07561855 1.8279488 82.14286
-1.5375019 0.29295915 1.8342379 84
-1.4054546 0.19414735 1.8297422 101.5
-1.2699814 0.22956723 1.8221701 75.75
-1.140564 0.23511566 1.8231903 82.333336
-0.97696751 0.23061883 1.8188343 80
-0.82451552 0.21651343 1.8219101 83.599998
-0.67731011 0.21982479 1.8207731 73
-0.54510462 0.21042649 1.8223414 89.166664
-1.5678432 0.39099467 1.8253658 84
-1.3970976 0.34072822 1.8243961 95.5
-1.2799048 0.37781313 1.8175426 82.25
-1.1563145 0.38365728 1.8161579 75.599998
-0.98046654 0.38390899 1.8137143 79.400002
-0.81608051 0.38180265 1.813393 79.666664
-0.6820752 0.38967055 1.8161451 80.75
-0.53928506 0.36870402 1.8202235 81.375
-2.0636008 0.56064016 1.8167747 61.666668
-1.8481069 0.58648819 1.8095313 85
-1.7253431 0.5348649 1.8173181 86.333336
-1.599844 0.52234799 1.8209443 84.25
-1.4306227 0.45874947 1.8254727 95
-1.2864857 0.53681958 1.8192589 98.75
-1.1354442 0.53085506 1.8109444 74.5
-0.95847636 0.52165097 1.8221246 56.25
-0.80787235 0.53573853 1.8095556 75.166664
-0.67718768 0.52426505 1.8122467 78.5
-0.54209113 0.52050799 1.8130628 78.75
-0.43685311 0.54174161 1.812305 83.5
-2.0165739 0.70570123 1.8074957 83
-1.7153311 0.67406338 1.8151836 81.5
-1.5872617 0.67969763 1.8149506 83.5
-1.4098191 0.61297482 1.8174297 90
-1.2647213 0.6782763 1.8125819 96.75
-1.1182405 0.66239071 1.8092479 82.25
-0.94838589 0.65019661 1.80608 75
-0.81550908 0.67826438 1.8056899 75.111115
-0.67294544 0.65884274 1.805338 76.333336
-0.53521216 0.67148536 1.8070341 76.571426
-0.40801668 0.67266101 1.8097576 81
-2.0549228 0.80533618 1.8073252 78
-1.8318293 0.7718218 1.8077019 83
-1.7145891 0.79290962 1.8094944 84
-1.6010482 0.82759303 1.8072472 87.75
-1.3833379 0.76939005 1.8128513 84
-1.2536427 0.81472081 1.8113813 87.333336
-1.1312425 0.82461512 1.8106234 90.800003
-0.80609816 0.79447347 1.8046521 75
-0.69735074 0.82404667 1.8027118 74.75
-0.52079606 0.81305766 1.8058171 75.777779
-0.39434099 0.83676404 1.802169 76.333336
-2.1538305 0.91422838 1.8011683 76
-2.0523174 0.94932687 1.8075851 83
-1.8034796 0.95923215 1.8006769 81
-1.6662958 0.94009614 1.8011392 92
-1.5570186 0.95664704 1.8053675 86.25
-1.3007554 0.94417906 1.8057652 86.5
-1.1177551 0.96892893 1.8069382 88.800003
-0.94895691 0.92550647 1.806069 98.5
-0.85894984 0.99044067 1.8042884 91.666664
-0.54960608 1.0498593 1.8021544 89
-0.39033684 0.95129299 1.8040867 70.75
-0.27915475 1.0467012 1.810603 86
-1.2585785 1.1003537 1.800885 87.5
-0.99340123 1.0688021 1.807948 85.5
-0.6605832 1.1297331 1.8028604 81.14286
-0.51341754 1.0980258 1.802292 86
-0.37354666 1.1532273 1.8024868 80
-0.2328738 1.1421162 1.8032011 79
-0.52122909 1.2468317 1.8011211 83
-0.38637614 1.280061 1.8007119 78.5
-0.23127426 1.2370055 1.8026655 74
-1.6449136 1.3817483 1.8182527 35
5.9362292 1.3908818 1.8051707 28
6.3851271 1.6486497 1.8034543 23
