# .PCD v0.7 - Point Cloud Data file format
VERSION 0.7
FIELDS x y z intensity
SIZE 4 4 4 4
TYPE F F F F
COUNT 1 1 1 1
WIDTH 116
HEIGHT 1
VIEWPOINT 0 0 0 1 0 0 0
POINTS 116
DATA ascii
3.0488076 2.0323668 -0.90739036 10
3.4651601 2.0367477 -0.90275639 6
4.1148553 2.1327698 -0.90532672 3
4.4249911 2.388411 -0.91985595 10
5.2845182 2.6795068 -0.93127781 1
4.0710778 2.7192686 -0.92437303 1
4.6933661 2.7796063 -0.9097507 1
5.3940482 3.3482609 -0.95262456 1
10.550321 5.107193 -0.97718346 6
2.4867752 0.69939268 -0.86327624 5
2.888598 0.68955624 -0.86085159 7
2.6634724 0.94650406 -0.87746423 7
3.0681007 0.94289708 -0.86876649 8
3.2736189 0.99788922 -0.87822938 9
3.3467188 0.95604759 -0.80776799 52
4.6086674 1.1081845 -0.7604512 51
2.4791493 1.2270983 -0.8838073 4
2.8457057 1.2279459 -0.88339669 8
3.2760055 1.2355911 -0.8734172 10
3.5150166 1.3425071 -0.88867646 5
3.7123935 1.3324729 -0.8340106 46
2.4201381 1.6124452 -0.89893609 6
2.7264323 1.5798829 -0.89632094 7
3.1045554 1.5789338 -0.89243966 10
3.5563288 1.5918846 -0.87834674 1
3.7315385 1.6267408 -0.80637562 2
4.0011683 1.6388209 -0.75845957 40
3.6858616 1.7000873 -0.87619048 7
5.2187376 2.9217234 -0.77493799 99
5.2326851 3.0899055 -0.85467249 26
3.3500876 0.89563817 -0.72844326 9
3.3386757 0.92131001 -0.67202806 56
3.4746273 1.0849206 -0.65618849 47
4.5753374 1.0653234 -0.65189362 49
3.5943353 1.2148527 -0.73995876 47
3.6618114 1.2784234 -0.66944551 41
3.8339221 1.4631009 -0.67175835 41
3.7475827 1.5945795 -0.63309181 2
0.27159399 1.7370079 -0.60991764 86
3.6280205 1.7174032 -0.66093433 11
0.085864484 1.9085251 -0.64419788 80.666664
-0.088316001 2.0749598 -0.64484864 76
0.020570729 1.9777896 -0.64249754 78.25
-0.19902879 2.1849563 -0.69579297 65.666664
-0.13535686 2.1262631 -0.70396584 72.666664
-0.31707698 2.2846453 -0.66504538 25
-0.28438324 2.2607875 -0.65971267 33
5.3480377 2.8045404 -0.7164197 109
5.7589121 3.4752517 -0.67851955 72
5.8411775 3.7441652 -0.74082929 3
-0.19440094 -1.6760087 -0.46840829 68
-0.15996008 -1.647519 -0.45758331 62.5
-0.12537533 -1.6070167 -0.47553241 55
1.3982697 -0.048453309 -0.4601658 27.5
1.4935397 0.045170214 -0.46554673 24
1.523415 0.082939386 -0.51161563 22.666666
1.6237507 0.18978673 -0.50638628 21.333334
1.6558948 0.22570477 -0.53319228 20
1.7129052 0.30844572 -0.49276698 12.5
0.99490899 1.0338885 -0.45830125 83
1.1184001 0.94294477 -0.48042849 54
3.4313202 1.0499644 -0.55175358 39
0.75771779 1.081144 -0.45614564 12
0.92822844 1.1031563 -0.46646991 90
4.1789546 1.119117 -0.47772703 77
0.71536791 1.3016206 -0.48917723 92
0.56036621 1.460656 -0.49468684 34.333332
0.66167498 1.355517 -0.46361169 95
3.8023355 1.4279819 -0.53496861 35
-0.36914176 1.5579867 -0.47863752 23.545454
-0.21695715 1.5480026 -0.49124458 37.111111
-0.093447775 1.6453669 -0.53787905 57
0.44089091 1.5799091 -0.573919 89
0.46153325 1.5566139 -0.46894515 77
-0.48140594 1.6801246 -0.45669723 54
-0.062256522 1.7061189 -0.53367555 103.25
0.24100877 1.7661191 -0.51278228 85.285713
0.32621741 1.6878952 -0.56435418 89.166664
-0.27194476 1.8442376 -0.57162297 0
0.10531463 1.8993953 -0.49397418 82
0.16742958 1.8400556 -0.51265663 80
-0.2281792 2.1620386 -0.45826843 150
5.3806243 2.7751706 -0.45587832 100
6.4645848 2.8254845 -0.58121854 35
5.1633339 2.9889612 -0.56411815 91
-0.19501759 -1.6757747 -0.43165353 64.166664
-0.11204923 -1.6130154 -0.4277671 7.5
1.1352676 -0.31964666 -0.41057682 9
1.1670196 -0.28828204 -0.4088147 10
1.2261326 -0.22694761 -0.42791277 9.5
1.3532068 -0.0854619 -0.40873301 25
1.4526188 0.01231676 -0.41529042 23
1.5535029 0.12218589 -0.41967261 19
1.6668682 0.24532527 -0.41934979 18
1.0117872 1.0201128 -0.41726363 90
1.0931519 0.95482635 -0.42774427 72.75
0.75844687 1.073455 -0.41506752 16
0.92592067 1.1026499 -0.41905102 86
0.53803313 1.263238 -0.4200151 29
0.77855796 1.2506771 -0.41641107 93
3.5853927 1.2063696 -0.42596453 41
0.59215575 1.4386536 -0.40919548 52
0.60486233 1.4397548 -0.42890587 20
-0.33881572 1.5487682 -0.4146935 0
-0.2084951 1.5607083 -0.44663867 20.5
0.37977219 1.6363097 -0.40334511 83
0.49452233 1.5268552 -0.42179942 87
-0.49525946 1.6700332 -0.43661746 17.4
-0.12794113 1.6595362 -0.44395569 28
-0.4983809 1.8962368 -0.42431962 3.6666667
0.099325776 1.9051243 -0.42970946 82.666664
0.15461226 1.8549407 -0.42020068 79
-0.46229291 1.966145 -0.42009258 4.5
-0.33340573 2.1445928 -0.420975 11.5
-0.24955927 2.1817448 -0.4197928 36.666668
-0.72786182 2.6230948 -0.41649818 86
