# .PCD v0.7 - Point Cloud Data file format
VERSION 0.7
FIELDS x y z intensity
SIZE 4 4 4 4
TYPE F F F F
COUNT 1 1 1 1
WIDTH 1283
HEIGHT 1
VIEWPOINT 0 0 0 1 0 0 0
POINTS 1283
DATA ascii
-0.46103126 -1.1735122 -0.19166832 12.5
-0.37969965 -1.1295308 -0.18150991 8.875
-0.26220042 -1.0860981 -0.17594266 9
-0.1661502 -1.0449364 -0.15384893 8
-0.10080957 -1.0145594 -0.17991333 12.333333
0.080049567 -0.93187207 -0.17397173 10.7
0.16002792 -0.89655089 -0.18329206 13
0.36986417 -0.80523044 -0.17251894 12.5
0.46195287 -0.75147599 -0.17596304 11
0.69017988 -0.67898321 -0.16247727 5.5
0.82309198 -0.62447345 -0.17570728 5
3.3382158 -0.6319887 -0.15956774 70
0.88742924 -0.58767319 -0.17923252 3.3333333
0.95886159 -0.55192375 -0.17424944 2.25
1.0784719 -0.49850422 -0.18663856 10
1.0751563 -0.41677031 -0.19785881 1
3.062906 -0.40705228 -0.19437501 30
5.6305661 0.25605637 -0.1907188 52
0.79591435 0.38279766 -0.17346208 11.125
5.6014252 0.31342882 -0.16183174 25
0.72464842 0.53908992 -0.17387611 14
0.75927997 0.46413848 -0.16906546 15
0.66271323 0.67049176 -0.18078427 13.833333
5.3740177 0.62063348 -0.16327375 20
0.58304125 0.85516334 -0.1749633 12.5
0.61691022 0.78504586 -0.16189307 12.5
0.51741374 1.0102868 -0.16209541 9.5
0.43830535 1.1946836 -0.18863998 13.5
0.49366826 1.0637734 -0.18484969 12
5.2737222 1.1849585 -0.1999065 66
0.40744153 1.2581238 -0.16747777 11.333333
0.31531966 1.4594328 -0.16073063 51
0.30440497 1.5077777 -0.17714722 11
-0.98780847 1.7635641 -0.1804094 152
0.20326056 1.7270473 -0.17461915 60.666668
-0.89029694 1.8443041 -0.19894606 157
-0.68123841 1.8614286 -0.18718858 55.333332
-0.41621611 1.8883291 -0.15070055 12
-0.27833652 1.9173018 -0.18466969 11
-0.93542993 2.0909567 -0.15148529 38
-0.89227539 1.9531546 -0.1846146 150
-0.17820734 1.9698042 -0.17086555 11
0.084084392 2.000679 -0.15731791 56
-0.98167223 2.2080641 -0.15410452 44
-0.58608443 2.1318688 -0.1551947 27
0.034101468 2.1132553 -0.17250603 52
-0.61973947 -1.2390028 -0.098693103 6
-0.5062319 -1.2068627 -0.1395641 10
-0.75167125 -1.1104314 -0.068378009 1
-0.64346308 -1.0821773 -0.070366047 0.75
-0.49108937 -1.1568317 -0.12360155 8.333333
-0.38011515 -1.1380353 -0.11189101 11.727273
-0.25562146 -1.076997 -0.097290739 5.5
-0.75192708 -0.93142945 -0.0720172 1
-0.63466454 -0.95687962 -0.07331828 1.25
-0.45664287 -0.95637745 -0.092819639 2
-0.39276782 -0.96849757 -0.089861326 1.8333334
-0.20460007 -0.99786204 -0.096111104 6.5999999
-0.073289432 -0.99631548 -0.062142696 12.058824
0.063724928 -0.93652862 -0.081841923 11.833333
0.15223975 -0.90054965 -0.034624878 11
-0.73476803 -0.76265281 -0.085068472 0
-0.50584137 -0.77259552 -0.10967829 0.5
-0.37016916 -0.82281166 -0.084506206 3.6666667
0.14587872 -0.88868135 -0.022805607 12
0.22745216 -0.86371219 -0.085167386 11.714286
0.39855465 -0.78941649 -0.040122177 10.5
0.47629583 -0.76502609 -0.066385947 8
2.9934146 -0.77463806 -0.11393584 23
3.2665539 -0.8229723 -0.12497742 40
-0.84873217 -0.64862484 -0.01399155 0
-0.65437984 -0.65772378 -0.085817404 4
-0.53132838 -0.64754993 -0.088397734 3.1428571
-0.39429221 -0.67305034 -0.089863174 3.75
0.41774821 -0.68015343 -0.05667967 0
0.4653883 -0.73378801 -0.060527168 1.75
0.66636133 -0.68893492 -0.10396125 5.1428571
0.80053586 -0.62845415 -0.094595164 4
3.2865572 -0.64144939 -0.14114204 150
3.6430013 -0.70394963 -0.030639445 19
-0.69762719 -0.57352185 -0.061418205 1.125
-0.5122934 -0.55298114 -0.083003335 4.8333335
-0.42809802 -0.52354705 -0.10191403 4.5
0.88206834 -0.58868372 -0.018327897 3
0.95278138 -0.55241752 -0.077809989 6.1111112
1.0863887 -0.49695939 -0.088439666 4.8000002
3.5139012 -0.48461476 -0.051225208 0
1.0741656 -0.41996428 -0.047352001 2
4.1507945 -0.32757676 -0.03658456 6.5
5.5987029 0.16125271 -0.0029011415 1
0.79660141 0.38256261 -0.078666396 9.967742
0.7264815 0.53390235 -0.075606532 13.961538
0.75274038 0.47298309 -0.071519792 14
6.0077415 0.50718158 -0.0043056058 51
0.67356712 0.66332787 -0.063769236 12.769231
0.59054178 0.85646212 -0.10962635 11.714286
0.62530941 0.78106213 -0.03933759 11.222222
5.9489574 0.83632541 -0.018807685 1
0.53948486 0.97057301 -0.085945413 11.538462
5.2734418 0.92902517 -0.14826189 1
0.44210505 1.1848826 -0.014882615 9.5
0.47950929 1.100587 -0.064994693 10.142858
5.8316665 1.1561995 -0.024120038 3
0.40191212 1.2793266 -0.084829085 11
0.34746143 1.4059848 -0.084485851 26.714285
5.6794033 1.4647318 -0.018558091 9
5.7364535 1.3590518 -0.097825952 12
0.26609191 1.5889158 -0.085725911 64
0.3043434 1.516098 -0.036805797 65
-0.97987962 1.7750427 -0.12122246 143.16667
0.18034327 1.7857985 -0.064445086 57.5
-0.97007322 1.8389223 -0.076743059 157
-0.77759802 1.8391573 -0.085617647 63.799999
-0.68536127 1.8631077 -0.10418122 57.75
-0.45725325 1.9432225 -0.061027471 29
-0.38328111 1.9037167 -0.09816359 19.799999
-0.28894937 1.9435813 -0.11742571 15.5
0.12310801 1.9109377 -0.11080375 61
0.16079371 1.8255323 -0.087236442 57
-0.93115735 2.0914433 -0.11280326 54
-0.86399913 2.0146344 -0.084032543 12
-0.46482736 1.9771177 -0.14746211 34
-0.30110097 1.9506284 -0.055541042 23
-0.19100277 1.99366 -0.049084317 12.333333
-0.071355373 2.0563228 -0.083468042 14
0.049028963 2.0608554 -0.04052626 47.5
-1.273881 2.1652689 -0.021996466 91.5
-1.0772032 2.1157053 -0.017017668 150
-0.93370587 2.1120603 -0.070621766 79
-0.54972279 2.1402879 -0.071621515 90.5
-1.0226228 2.2820487 -0.13643092 96.5
-0.61980659 2.2917745 -0.015830224 151
-0.22935899 -1.0678142 0.089435242 12.714286
-0.18848562 -1.0413851 0.046349101 11.4
-0.071106352 -0.99001241 0.080946349 12.833333
0.052953862 -0.93423247 0.051501587 11.277778
3.7245514 -0.93863344 0.014000262 0
0.13130067 -0.89326072 0.032888558 16
0.23805405 -0.85476059 0.088518426 11.588235
0.36234453 -0.81244397 0.058988493 10.705882
0.48425135 -0.76145905 0.087409861 6.3333335
-0.94953614 -0.66975796 0.086621121 0
-0.83696204 -0.61813229 0.092359684 0
0.42452198 -0.60927212 0.10613381 0
0.59390432 -0.7139172 0.072810479 1.3333334
0.68812323 -0.67943513 0.085629836 4.5238094
0.80063885 -0.62484139 0.072293811 3.3846154
3.6448174 -0.70859623 0.050693609 9
-0.79248399 -0.59273189 0.11998073 0
-0.7117219 -0.54751015 0.092424966 0
0.86281639 -0.59354293 0.084082246 2.1428571
0.96881551 -0.54494363 0.072428659 7.1176472
1.1030363 -0.49061638 0.066948161 5.8000002
3.5276246 -0.48285663 0.046519395 0
1.0494387 -0.41019192 0.053508576 1
1.0731146 -0.41965637 0.12397563 1
-1.1288216 -0.15440114 0.11280163 6
-1.1064218 -0.01317658 0.10689729 0
-1.0951744 0.052620228 0.10289436 0
-1.0329295 0.10294884 0.058730885 4.6666665
5.5842209 0.22299111 0.023384506 1
0.80514306 0.36941418 0.010043641 8
0.72577375 0.53824228 0.030081812 12.538462
0.75425607 0.45802936 0.027442509 13
5.9480739 0.57195389 0.051599678 35
0.67127043 0.68308318 0.065670207 10.821428
0.58260041 0.87291408 0.080748558 9.75
0.61743605 0.79993844 0.070482716 10.777778
0.54320854 0.96325165 0.093141042 10
0.4775143 1.1101825 0.062463887 10.571428
0.41209221 1.2734017 0.080592543 10.888889
5.8662486 1.2308904 0.098721735 0
0.35054812 1.4037675 0.091480754 24.666666
0.26838863 1.5975718 0.047207348 61.599998
5.7863479 1.5523788 0.13920778 1
-0.98195285 1.7807575 0.064078271 153
0.22008231 1.7080386 0.071550123 57
-1.0330108 1.8527856 0.063077532 156
-0.78346086 1.8937238 0.028703982 159
-0.36062598 1.9101789 0.078440353 17
-0.22752333 1.9422222 0.14498198 11
0.13161437 1.9093897 0.10372726 53
0.16981579 1.8222613 0.10409328 59
-1.5776597 2.0509031 0.11801194 100
-1.0969672 2.0299087 0.13973105 151
-0.65680283 1.9963163 0.032429788 157.66667
-0.33109596 1.9762383 0.072450094 6
-0.23529279 1.9831522 0.085978501 10.75
-0.10122319 2.0429738 0.058806103 16.4
0.090807542 1.9898795 0.0098400367 54
-1.4074167 2.119854 0.095050462 92.25
-1.2611554 2.1757905 0.059623409 81.75
-1.1819606 2.2172041 0.11973309 90
-0.98877078 2.1939235 0.024827296 150
0.020270687 2.1530259 0.078081481 49.666668
-1.022588 2.2618587 0.047172647 87.25
-0.67591506 2.4336925 0.12234615 95
-0.57347614 2.4689007 0.055775646 102.33334
-0.36091781 -1.1275895 0.24629761 10.142858
-0.24677077 -1.0785855 0.21711525 10.7
-0.16378373 -1.0331867 0.23058861 11
-0.089634836 -1.0022707 0.22133102 11.25
0.076662175 -0.9300099 0.24734855 9.75
0.12858464 -0.89511108 0.15401074 11
0.2172728 -0.86806113 0.21521664 9.583333
0.38630709 -0.80335021 0.22616519 8.521739
0.46870741 -0.76801747 0.22596996 8.166667
3.6409729 -0.7562443 0.26232964 71
-1.0507915 -0.67551684 0.17380029 0
-0.96858579 -0.63755274 0.20203495 0
-0.81177843 -0.62210596 0.22364374 0
-0.73967266 -0.65111858 0.24345821 0
0.41807312 -0.68355304 0.19928777 4
0.52147841 -0.71189582 0.17822883 0
0.66628385 -0.68357813 0.17685823 4.4545455
0.79982847 -0.6179623 0.16426396 3
3.6135516 -0.68168211 0.18183368 59
-0.92687786 -0.57270443 0.25266492 0
-0.84079349 -0.56727624 0.1720745 0
0.86153001 -0.59012854 0.15563136 2
0.99608582 -0.52512074 0.18048941 17.333334
1.1298746 -0.45640534 0.21152431 10.5
3.5748992 -0.5086115 0.29438138 40
3.6204379 -0.53592736 0.21003973 48
-1.2273719 -0.05534653 0.26801139 0
-1.1727899 -0.072444692 0.18614967 0.66666669
-1.2012265 0.099792227 0.26802778 0
-1.190901 0.047899265 0.24578527 0
-1.1481054 0.17001036 0.24859977 2
0.65666234 0.71548629 0.15339404 11
-1.5909221 0.88195688 0.25268543 70
0.58406091 0.87322676 0.22221175 8.545455
0.61821645 0.79698086 0.19497025 8.5555553
-1.5902812 0.90301853 0.29816082 43
0.53880382 0.97702891 0.23368326 9.043478
0.44872665 1.1913236 0.18857008 9
0.48430005 1.1090209 0.23238595 9.7857141
0.41090617 1.2685946 0.22518429 32.285713
-1.6763136 1.4888967 0.29854691 118
0.34476784 1.4285696 0.22428513 58.142857
-1.5114651 1.5465641 0.29765564 97
-1.4407077 1.5831637 0.29722658 98.5
-1.3184402 1.6096984 0.28905842 77.333336
0.28020006 1.5825471 0.252617 52.5
0.31225514 1.509746 0.23315659 55.5
-1.7453895 1.7876399 0.29755902 68
-1.3941897 1.7486843 0.29408014 53
-1.2106848 1.6910733 0.28180116 100
-0.9618156 1.766673 0.24525666 99.666664
0.21325506 1.729341 0.20635377 53
-1.8651488 1.9063004 0.29304498 74
-1.5774815 1.8665893 0.29534671 61
-1.3885345 1.9222672 0.29374963 50.5
-1.3470939 1.9358103 0.28299457 57
-1.1257093 1.8232845 0.28205264 60
-0.92390412 1.860397 0.24922329 146
-0.86129081 1.8760225 0.27384317 71
-0.73808628 1.9052099 0.26806778 111
-0.3403089 1.8815086 0.18282822 6
-0.23433752 1.9460407 0.18825585 10
0.12907909 1.9335132 0.20875353 57
0.16706549 1.8402032 0.24650253 53.333332
-1.696236 1.9978263 0.25599217 89.599998
-1.5392804 2.0666785 0.21723661 88.900002
-1.4135722 2.0503235 0.2928938 35
-1.215371 1.9953967 0.28335589 47
-0.50437063 2.0315132 0.27016217 53.75
-0.43302009 2.0871031 0.26757264 61
-0.12947956 1.9918501 0.16492784 19
0.095381141 2.0087023 0.24187839 54.666668
-1.393255 2.1239941 0.20752434 77.800003
-1.3013142 2.1647041 0.23430645 74.166664
-1.1979555 2.2092299 0.15208173 79
-0.96095943 2.137357 0.26634341 39
-0.78624344 2.1017134 0.27528542 41
-0.67302549 2.2162564 0.2641173 55
-0.35696959 2.2030895 0.21521646 75
-0.23257937 2.108947 0.27897012 154
0.037361186 2.1326482 0.23781192 47
-0.96017772 2.2959504 0.22627735 65.400002
-0.82951677 2.3567414 0.22118416 87.800003
-0.4664987 2.33444 0.2524963 54
-0.40959996 2.3247285 0.2455923 54
-0.7071119 2.4119816 0.22811335 82
-0.57182813 2.4872415 0.19921535 88
-1.3042176 -1.5292825 0.44645613 9
-1.2307014 -1.4875851 0.37977821 45.5
-1.0758551 -1.423419 0.44067764 47
-0.98454487 -1.382561 0.41116685 43.200001
-0.84727061 -1.3160181 0.41315567 0
-0.66310489 -1.2456778 0.41195774 3
-0.59626436 -1.2186255 0.3938145 8
-0.48913527 -1.1744233 0.38722739 9.833333
-0.37425458 -1.1271259 0.3661896 9.2222223
-0.24283957 -1.0728273 0.38286409 10.75
-0.18164967 -1.0463225 0.35183251 10
-0.060547855 -0.9908303 0.39319146 9.8888893
0.05969356 -0.93555218 0.37400112 9.583333
0.15265356 -0.9056626 0.35857582 10
0.23076665 -0.86291987 0.36993659 8.4210529
0.36160377 -0.80852729 0.3221153 8.666667
-0.90638149 -0.64773929 0.31974712 0
-0.81327617 -0.6274848 0.314726 0.25
3.6046617 -0.71397531 0.33827108 52
-0.83196998 -0.58267879 0.3226378 0
-1.3567598 -0.16047974 0.37859058 7
-1.3357509 -0.18649982 0.35008824 3
11.497847 -0.21059285 0.39366931 4
-1.3655615 -0.13455619 0.38736197 3.6666667
-1.2378625 -0.058743905 0.39443725 0
-1.1952811 -0.031831745 0.30734789 0
-1.2065524 0.098717153 0.37804428 0
-1.1886091 0.067319289 0.37853566 0
-1.2136748 0.18481162 0.41648597 1.6
-1.182717 0.22934771 0.37884107 4.6666665
-1.6990023 0.44478059 0.39337075 20
-1.6396664 0.44736841 0.41893864 11
-1.6704119 0.45237419 0.39343458 33
-1.5654284 0.52813202 0.41962576 6
-1.8741027 0.6278879 0.42473203 62
-1.6661381 0.67945009 0.34991616 59.5
-1.589594 0.67933053 0.40303448 60.666668
-1.5621688 0.82328165 0.36651701 58.333332
-1.5362613 0.91222656 0.36358732 32.599998
0.53625315 0.99941474 0.3647978 9
0.48261905 1.121177 0.37284383 11.823529
0.42346492 1.2530819 0.38447037 44.5
-1.8552542 1.4366716 0.33883995 163
-1.6666416 1.4991056 0.30000287 114
-1.6458579 1.4964617 0.33313942 150
0.36539763 1.3848934 0.39627892 51.75
-1.7176371 1.5520669 0.35389161 140
-1.5567554 1.6036206 0.30792695 95.666664
-1.4611826 1.6060659 0.34281361 135.33333
0.2778523 1.5946068 0.39104563 52.25
0.30835646 1.5231739 0.32248288 52
-1.8728919 1.6692427 0.32402247 45
-1.7024301 1.7650758 0.30710939 61.666668
-1.6276507 1.6704651 0.30434227 100
-1.2271223 1.7561091 0.35824758 158
-1.1086998 1.7755382 0.35054106 158
-0.98023045 1.7787608 0.36063859 138.5
0.22269487 1.7145537 0.38686237 54
-1.5440018 1.8314905 0.31026915 50.5
-1.3383418 1.9019247 0.30201972 35
-0.97073275 1.8418074 0.38250345 157
-0.82230461 1.9270792 0.40637413 5
0.18122019 1.8192053 0.40961385 54
-1.6661961 1.9753197 0.30367517 72.5
-0.5769338 2.0207529 0.35126662 31.333334
0.098412611 2.0008602 0.37077498 51.666668
-0.68452829 2.1755395 0.41913557 4
-0.47125775 2.1900916 0.41173667 50
-0.028992642 2.1716981 0.34613091 150
0.03257535 2.1570332 0.37040043 50.333332
-0.057064805 2.3766344 0.40713423 56
-1.3155544 -1.5283008 0.49387836 9
-1.2303936 -1.4709711 0.56448311 2
-1.1434239 -1.4474463 0.48864341 26.666666
-1.042766 -1.4107845 0.46863812 21
-0.83572519 -1.3167284 0.52048886 31.142857
-0.67304152 -1.2502419 0.52197528 9
-0.57487607 -1.2072743 0.51579362 9.666667
-0.51672816 -1.1746556 0.53757358 8.5
-0.3737233 -1.12032 0.53625989 9.7777777
-0.27714416 -1.0748005 0.50696015 8.666667
-0.1781029 -1.0367184 0.52295935 8.8000002
-0.090839386 -0.99498945 0.526761 9.4615383
0.07650613 -0.92645204 0.52148795 7.6153846
0.13561237 -0.89521766 0.53802717 8
0.18239109 -0.88247192 0.49011683 8.375
6.5333834 -0.54106659 0.54796702 2
-1.3508368 -0.15801671 0.49960619 5
-1.3253844 -0.17118087 0.5665639 2
-1.3119128 -0.12557262 0.54767931 15
-1.2237929 0.0026069295 0.4636752 0
-1.1860186 0.07112094 0.45980379 0
-1.2088492 0.19633889 0.52186006 6.4000001
-1.5195311 0.56414545 0.45569354 1
-1.837319 0.63350153 0.46240994 61.666668
-1.7564707 0.62379777 0.47671959 75.5
-1.6195377 0.73490465 0.49127644 59.599998
-1.5640364 0.82573861 0.5020476 67.125
0.47242641 1.1459219 0.52165979 41.692307
0.41512743 1.2778434 0.52528936 53
0.45039463 1.2067041 0.58535486 55
0.35557601 1.4195256 0.52917248 49.636364
0.28885266 1.573984 0.57045197 48
0.31386465 1.5173099 0.55538619 47
-2.1804926 1.7919332 0.55814803 92
-0.93161058 1.7823222 0.56848061 105.5
0.22081549 1.7327497 0.52481741 51.200001
-1.9647312 1.8891544 0.57360148 91.75
-1.8657678 1.9318765 0.59483486 92
-0.92074144 1.8511813 0.58264977 159
0.1424738 1.9160199 0.53715795 51
0.17747872 1.8339076 0.50749236 51
-1.7481349 1.9871527 0.56259203 91.75
-1.5682931 2.0528946 0.53360349 106
-0.6858297 2.0982587 0.45734948 21
0.11321001 1.9755013 0.56122392 54
-1.3654977 2.1502581 0.59465224 75
-1.2735286 2.1778541 0.53093052 88.599998
-0.59900135 2.145654 0.46729851 150
0.018311422 2.1961374 0.52387834 54.333332
-0.79729772 2.3319407 0.57431602 107.5
-0.61045235 2.2863021 0.57557577 150
-0.038441379 2.3478792 0.49583513 62
-0.34809768 2.5488849 0.4543224 150
-0.093348466 2.4568732 0.56410646 50
-0.35021102 2.5818253 0.52425802 83
-0.17834258 2.593926 0.59434509 58
-1.2811276 -1.5054495 0.73637903 5
-1.9545245 -1.3675309 0.69791585 35.5
-1.1447917 -1.4520619 0.68538797 38
-0.99252832 -1.3827823 0.67099029 42
-2.0061905 -1.247817 0.69139653 64.5
-0.90668714 -1.3458754 0.65235877 43
-0.79876161 -1.3015379 0.65933836 45.333332
-0.66147184 -1.2370763 0.67678094 31.833334
-0.59665179 -1.2076476 0.65451813 41
-2.0679946 -1.098711 0.66340768 81.25
-0.51062256 -1.1770114 0.66399801 19
-0.38588476 -1.1187069 0.68808097 16.4
-0.27047807 -1.0765276 0.6629144 8
-2.1293211 -0.95125431 0.69279265 83.5
-0.17743742 -1.0276264 0.65970105 8.8000002
-0.052002974 -0.97845733 0.68178922 8.7142859
0.060050748 -0.93039644 0.6531319 7.9000001
-2.188468 -0.81603408 0.70943666 83.666664
-2.2524352 -0.66254956 0.69396663 93
-2.3205976 -0.51155543 0.7236656 88
6.538507 -0.52992135 0.72044241 30
-1.2437431 0.062939353 0.67432207 7.875
-1.1842492 0.019765571 0.69068938 6.5
11.233387 0.3521331 0.74180782 16
-1.7135731 0.69303274 0.67572075 32
-1.6417042 0.68628508 0.70437503 34
-1.6543905 0.78380418 0.61216152 42
-1.6323278 0.79478812 0.6035164 35
10.998295 0.91240424 0.73859906 27
0.4235884 1.2693363 0.67409772 47.666668
-1.8465805 1.3960234 0.65726912 132
0.35572398 1.4250063 0.68374765 44
0.28538352 1.5901444 0.68191254 48.5
0.32541561 1.5034307 0.6718955 38
-2.4071164 1.7009395 0.60831374 76
-2.3566389 1.7237762 0.70033598 83.400002
0.22625704 1.7247089 0.68482304 49.666668
-2.1362338 1.8126196 0.659531 91.571426
-2.0245237 1.8518474 0.72029871 84
-1.897759 1.9199629 0.6546753 89.166664
-0.95117211 1.80708 0.61995173 152.5
0.14033101 1.934866 0.70379609 46.666668
-1.7072568 2.00489 0.67889953 91
-1.544651 2.0722578 0.68625379 90
-1.4868302 2.0996482 0.67409265 87
0.097603999 2.0267456 0.67423862 50
-1.4102577 2.1289263 0.65508956 77.199997
-1.2399845 2.2032051 0.67525983 70.5
0.036165338 2.1649013 0.74895108 66
14.154909 2.1296172 0.60404593 64
-0.96201873 2.3236802 0.70752943 80.25
-0.83578813 2.3715744 0.63913018 93
-0.083974868 2.380749 0.74644983 44
-0.77547324 2.4084277 0.71150237 92
-0.62330782 2.471137 0.71141362 84
-0.48898506 2.5259988 0.61808401 90
-0.078917056 2.4088478 0.67749417 40.5
-0.3236514 2.6028297 0.72383845 88
-0.20717727 2.6032751 0.7001462 78
-1.946741 -1.3958112 0.8552748 78
-1.119455 -1.4320885 0.818308 43.200001
-0.95742714 -1.3656716 0.80356753 34.5
-1.991003 -1.2830836 0.82752371 84.14286
-0.80720049 -1.2990063 0.79675084 40
-0.68420511 -1.2455916 0.83153647 38.666668
-2.0547769 -1.1279401 0.82167655 79.777779
-0.50245935 -1.1590658 0.80735379 42
-0.36088982 -1.1043898 0.8089487 27
-0.26212451 -1.0595942 0.79887885 26
-2.1249979 -0.95134145 0.85057527 72.599998
-2.0959191 -1.0244704 0.83421898 80
-0.19090861 -1.0358845 0.83621234 15.8
-0.071984254 -0.99074459 0.83295518 8.6000004
0.010670197 -0.94896877 0.83041614 26.5
-2.1852961 -0.81566173 0.82247794 76.800003
6.4012337 -0.84952545 0.86862957 62
-2.2642453 -0.63271153 0.81752908 79.75
-2.2339056 -0.70213896 0.80769074 79.5
-2.3212681 -0.50268292 0.84655231 71.833336
6.5748014 -0.51823503 0.83556521 29
11.503304 -0.23191462 0.769099 17
-1.293339 -0.056228582 0.81699008 2.5
-1.1429193 -0.059411284 0.86212599 1
-1.2623715 0.11679283 0.7722739 12
-1.1246872 0.052543387 0.84427136 1.1111112
11.139769 0.53560585 0.87418568 32
-1.7294163 0.63197654 0.84496272 10
-1.637694 0.66027117 0.80541849 20.799999
-1.6719158 0.80811715 0.77471596 27.5
-1.623171 0.78018337 0.83628273 7.5
10.908905 1.1400958 0.85220671 1
0.39915591 1.3321644 0.77671868 45
-1.8224962 1.4601303 0.81112051 95
-1.739537 1.4677744 0.7977562 71
0.36663803 1.4095813 0.83045983 46.333332
-1.6850647 1.5428282 0.81471282 85
-1.5879217 1.5930268 0.79685384 76.333336
-1.2065471 1.6452371 0.78419542 78
0.28869924 1.5913796 0.77798843 47.5
0.31757203 1.5268189 0.87640917 49
-2.3077266 1.7458156 0.80771017 82
-2.2150762 1.7621557 0.85559446 126.66666
-1.8827775 1.7182422 0.80880624 66
-1.7005941 1.7309923 0.80713326 53.5
-1.634331 1.6844193 0.79643738 44
-1.4586123 1.7068114 0.79685819 55
-1.2024254 1.7652071 0.79186809 48
-1.1670547 1.7212569 0.78865147 69.25
0.23011196 1.7298603 0.83076012 47.200001
-2.0523465 1.8444022 0.78914034 79.75
-1.8433802 1.9200969 0.77947307 74.5
-1.7015053 1.8824182 0.8045342 56
-1.6156145 1.8805151 0.79740578 59
-1.387216 1.8810055 0.79855931 54
-1.1285496 1.8878365 0.78248757 52
-0.97194391 1.8455807 0.8051421 94
-0.62920451 1.8965569 0.76394588 96
0.13872747 1.9345464 0.78947198 43
0.17908315 1.8505926 0.89937496 41
-1.5976539 2.0359895 0.77727461 80.25
-1.4652083 1.9646918 0.78773713 72
-1.1153029 2.0115077 0.78007793 83.333336
-0.95248717 2.0023615 0.78138876 43
-0.61493027 1.9799173 0.77239716 42
-0.50637996 2.0296953 0.76765829 45.799999
-0.33188143 2.0090542 0.76231182 72
-0.057184163 2.0363886 0.79388404 98.5
-1.3448993 2.1089365 0.79223752 51
-0.85156155 2.1676104 0.77711231 56
-0.51973361 2.1990852 0.77186441 48.333332
-0.3475962 2.1613898 0.76567757 45
-0.21721321 2.1956885 0.76025581 62
0.061250929 2.1395595 0.8538329 52
-0.96480787 2.2992506 0.76124996 80.5
-0.74522156 2.3561742 0.78031588 49
-0.45716879 2.3915896 0.7629509 36
-0.39946842 2.3062749 0.76590961 50
-0.21691862 2.311887 0.76258016 45
10.394651 2.2886078 0.89258564 33
-0.37523487 2.4499164 0.76004058 33.5
-0.24391048 2.4898794 0.75607258 46.666668
10.321691 2.4740009 0.84083915 31
8.9286566 -2.0759761 1.0055654 35
-1.9531908 -1.3762167 0.91169035 84
-1.2436126 -1.4817506 0.97283167 31.666666
-1.121541 -1.4324877 0.98752648 38.5
-1.0023625 -1.3820896 0.96399093 37
-1.9927365 -1.288038 0.95967788 83.599998
-0.9212693 -1.3414627 0.97226524 44
-0.85467249 -1.3143559 0.93565047 38
-0.65579039 -1.2299203 0.94190282 37
6.5884166 -1.2262601 0.98510504 51
-2.0581424 -1.1286938 0.98260611 78.5
-0.53438872 -1.1752243 0.98299599 41
-0.36802059 -1.101281 0.9624449 51.25
-0.27754289 -1.0666617 0.98083675 49
-2.1283035 -0.95302051 0.96547043 77.75
-2.0958145 -1.0329388 1.0013831 80
-0.17781255 -1.0246999 1.007743 61
-0.077150002 -0.97636676 0.98510951 51.125
6.4617362 -0.90693855 1.0223975 60
-2.1810579 -0.82634628 0.96833789 66.111115
6.4047155 -0.82569289 0.94217801 68
-2.2682838 -0.63254011 1.0011026 85.5
-2.2336919 -0.70329529 0.96530908 84.5
6.3441191 -0.70142961 0.94255292 66
-2.3062809 -0.54120731 0.99033564 90.666664
6.4145813 -0.57409221 0.96655512 23
6.6093698 -0.49408004 0.91718161 32
-2.3665032 -0.43184134 0.99857813 16.5
6.8776464 -0.38427553 0.9843297 31
7.017097 -0.27166772 1.0487436 3
11.405036 -0.086296149 0.9308033 25
11.218653 0.36076912 1.0309628 26
-2.7862365 0.5842905 0.9051013 84
-2.8037901 0.64177096 1.023796 69
-1.6551384 0.68636483 0.92839658 0
-2.891068 0.82745826 0.94117415 74
10.954267 0.96839321 0.98741496 32
0.35476875 1.44631 0.95639706 44.333332
0.28093797 1.6153549 1.0106678 48.666668
0.32293406 1.5231171 0.97242624 44.333332
-2.4269524 1.6960665 1.0021464 70.333336
-2.201288 1.784264 0.951509 101
0.24574815 1.6940203 0.92191261 44
-1.3848736 1.9136215 1.012457 150
0.18138462 1.8507199 0.99302512 42.75
0.073595077 2.1057057 0.95598876 45.5
10.476145 2.1262624 0.99947011 16
10.243926 2.6800427 1.0498934 36
10.183511 2.8481767 0.96144891 33
8.6659403 -2.1840017 1.1623486 35
-1.3055296 -1.5007699 1.1491675 32
-1.1239643 -1.4255055 1.1735086 40
-0.99659503 -1.3708115 1.1345514 36
-1.9972637 -1.2652409 1.1576364 66
-0.85086894 -1.3117086 1.1026204 31.5
-0.67929 -1.2307827 1.0929742 38.200001
6.5841675 -1.2035849 1.0591975 62
6.6187954 -1.2660234 1.1169873 51
-2.0475593 -1.1418781 1.1545779 69
-0.52103585 -1.1658912 1.1204004 37.5
-0.38459834 -1.1036423 1.1216093 49.666668
-0.25707248 -1.0587431 1.1121417 49
6.5311551 -1.0741079 1.0559044 62
-2.115761 -0.98067969 1.1522626 70
-2.0980172 -1.0250342 1.0709709 84
-0.17231596 -1.0186597 1.1405516 43.666668
-0.086463243 -0.97799921 1.1231107 52.375
-2.1771202 -0.85145503 1.1180534 79.5
6.4024768 -0.80749243 1.1520872 52
-2.2330515 -0.70847148 1.1292995 79.666664
6.3278418 -0.61093372 1.1943765 18
-2.3008513 -0.54771382 1.0999873 85.199997
6.5781078 -0.49992818 1.1280792 30
-2.3621931 -0.42640549 1.1412449 15
-2.4400225 -0.22451058 1.0733798 56
11.503666 -0.27252203 1.1098155 26
-2.8214607 0.68444651 1.1275759 78.5
0.28785464 1.6130748 1.1484485 43
0.31985453 1.5339235 1.1050373 43
-2.4243844 1.6955104 1.0985305 74
-2.3936133 1.7145026 1.0812674 74.5
0.2564759 1.6791492 1.120875 43
-2.1565502 1.8170917 1.1656535 79
-2.0369368 1.8648932 1.1554568 88
0.14464612 1.947987 1.0512949 50
0.20024312 1.8123906 1.0935638 41.5
14.26935 1.9145581 1.0964718 70
-1.8026234 1.9673773 1.169381 80
-1.5335242 2.0767374 1.1666815 91.5
0.12206614 2.0086708 1.1289332 47.5
-1.3200586 2.173357 1.1653417 77
-0.83300769 2.3863215 1.1633662 86.800003
-0.02008931 2.2962596 1.1218451 37.5
-0.64927852 2.4678767 1.145231 70
-0.10047688 2.474926 1.1269495 87.5
-0.46590382 2.5519347 1.1853706 73
13.967093 2.5986102 1.1431574 54
-1.34644 -1.5234014 1.2878499 32
-1.9556963 -1.3557147 1.2523277 65
-1.9416234 -1.3785318 1.2515216 60
-1.1283464 -1.4184207 1.3404366 35
-0.99874866 -1.3683562 1.2686986 32
-1.9875572 -1.265973 1.2612972 56.5
-0.8041994 -1.2818828 1.2928221 36.75
-0.70365328 -1.2390233 1.2756759 36
-2.0579453 -1.1077015 1.2683613 60.799999
-0.51466852 -1.1573786 1.2742016 43.400002
-0.40118071 -1.1111623 1.282243 38.75
-0.27875477 -1.0574141 1.3183627 50.5
6.5642505 -1.1547323 1.2654818 54
-2.1438639 -0.90881729 1.2755218 65
-2.0970089 -1.0085132 1.3108749 57.5
-0.19932799 -1.024455 1.2885048 44.666668
-0.11179564 -0.98596144 1.2467054 42.333332
6.4753804 -0.92725444 1.3079543 54
-2.1676524 -0.84914875 1.2576427 53.25
-2.2323933 -0.69950211 1.2782936 63.5
-2.3091853 -0.51668626 1.2819923 71.75
6.3724899 -0.58769941 1.2382917 19.5
-2.3780501 -0.37260461 1.2622386 12
6.9809275 -0.31173307 1.3218162 20.5
-2.8382399 0.73091972 1.2451388 69.5
-2.8548069 0.76659107 1.3060142 71.5
11.015846 0.87572223 1.3123182 33
-2.9498563 0.98227894 1.3031449 68.199997
0.29041404 1.6130095 1.2624849 40.333332
0.30012399 1.5983599 1.2340939 42
-2.3361604 1.7383271 1.2587806 73.333336
-2.2279198 1.769511 1.2949343 150
0.23665702 1.741016 1.2677977 41.599998
-2.1836307 1.8057194 1.2645746 77.333336
-1.9868617 1.8893955 1.2678113 73
0.15480776 1.9360075 1.3171899 39
-1.7012973 2.0207667 1.3160814 75
-1.610516 2.0520327 1.2480909 78.666664
0.12300086 2.0087893 1.2380652 40.5
10.617715 1.982038 1.3257847 1
-1.5075173 2.1032956 1.2277973 75
-1.4707847 2.1200733 1.2962518 80
-1.2876188 2.1954005 1.2398633 72
0.077470735 2.1205473 1.2842308 45
-0.97470033 2.3303182 1.2845478 63.599998
14.134699 2.2777884 1.2358862 82
-0.77753544 2.4131927 1.2846886 67.5
-0.62609535 2.4838011 1.2164211 72
-0.59877849 2.4977496 1.288618 68
-0.15910614 2.6584065 1.2951779 50
8.8138084 -2.1029084 1.351379 31
-1.3843417 -1.5387068 1.4349753 34
-1.9089081 -1.4459891 1.4344895 59
-1.251683 -1.4768963 1.4383303 45
-1.1749442 -1.4429121 1.4029624 35
-1.0035007 -1.3718495 1.4310995 30
-1.9705154 -1.2999182 1.4046056 61
-0.82782453 -1.2908206 1.4570055 33
-0.65162456 -1.2198298 1.4486451 31.5
6.6285911 -1.2796928 1.4197487 48.666668
-2.0409155 -1.1392531 1.4357338 60
-0.54867029 -1.1687505 1.4654419 38.5
-0.34242287 -1.0854558 1.4254297 37.666668
-0.28125137 -1.0543141 1.4856776 32
-2.1231403 -0.95686167 1.4074674 57.5
-0.20788823 -1.0244843 1.4211683 34.5
-0.094342954 -0.97377378 1.3860973 36.666668
-2.1812313 -0.80941987 1.4173063 46.333332
6.4046926 -0.79445267 1.4713583 49
-2.2390366 -0.67674679 1.4248179 66
-2.2958083 -0.53520519 1.413119 67
6.5399866 -0.50982505 1.4446836 21
-2.3629632 -0.38780183 1.3919191 40.5
7.0668378 -0.29622415 1.3521034 18
11.530813 -0.29525498 1.4264693 26
11.287124 0.30257455 1.3573538 6
-2.8608377 0.79149961 1.4258385 66
-2.961235 1.0225481 1.4145387 62.333332
11.005126 0.90312183 1.4443561 32
-2.9750972 1.0644473 1.4370719 56
-3.0702071 1.3015316 1.4976884 58
-2.568275 1.6440476 1.3861138 78
-2.4574375 1.6967386 1.4597181 69.666664
-2.3762307 1.7297443 1.408465 78.5
0.25698036 1.713781 1.4140443 41.200001
-2.166945 1.8145299 1.4185462 72
-1.8932474 1.9360778 1.4471407 70
0.19032709 1.866396 1.4130383 42
-1.8289925 1.9638567 1.4603155 74.5
-1.7242376 2.0062149 1.3727207 79
-1.6203974 2.0497158 1.4259503 76
14.235228 2.0612903 1.3975445 76
-1.4282246 2.1358321 1.3646053 71
-1.1740518 2.2420447 1.4556875 64.5
0.039024878 2.2094448 1.4222076 36.25
-1.1031086 2.2757878 1.4249487 63.400002
-0.92058283 2.3591554 1.4026902 62
-0.7289837 2.4407277 1.3962041 65
-0.099162549 2.5197744 1.4515131 30.5
10.313727 2.5292747 1.4443278 36
10.373627 2.5081842 1.364642 33
-0.34136373 2.6107042 1.4683521 59.5
-0.22600266 2.6498041 1.3886341 56.75
-0.12814164 2.6011989 1.4092395 32
8.597662 -2.062825 1.6341022 11
8.7763176 -2.0483289 1.6383349 15
8.861413 -2.0975151 1.554561 31
8.5931101 -1.8547453 1.6031942 19
-1.8794222 -1.5047323 1.6470937 50
-1.6235595 -1.6368051 1.6182498 27
-1.916366 -1.4255476 1.6032254 52
-1.1995316 -1.455557 1.5641288 29
-0.94312656 -1.3334007 1.5676637 34.5
-0.84825057 -1.2949495 1.5486898 33.333332
-2.0127273 -1.1869036 1.6039238 57
-0.61436987 -1.1956818 1.5009007 45
-0.50211096 -1.1492312 1.5524778 34.75
-0.34509405 -1.0830898 1.5568465 30
6.5583482 -1.1147016 1.5887239 52
-2.1094992 -0.96036732 1.5145829 59
-2.0859118 -1.0109484 1.6432537 61
-0.19232567 -1.0161753 1.5627451 26.4
-0.089608029 -0.96698606 1.5343463 38
6.5290241 -1.0331407 1.6425866 52
-2.1797156 -0.80055076 1.5497628 61
6.4226689 -0.78780514 1.6261297 58
-2.2514329 -0.63762927 1.5881188 65
6.3832955 -0.71052432 1.5384552 58
-2.2987449 -0.51949185 1.5477376 67.666664
6.5353022 -0.49567732 1.5998653 30
-2.3590078 -0.38641974 1.538839 37
6.6960201 -0.4282952 1.577917 32
11.033916 -0.21127957 1.6464812 6
11.481977 -0.26833579 1.5900939 13
10.671305 -0.005337032 1.61919 9
11.129061 0.37890893 1.6236864 12
11.265283 0.32695183 1.5057673 6
10.803068 0.57104665 1.6136115 9
10.356202 0.63850039 1.6470941 8
-2.8838587 0.86076188 1.6050278 59.5
8.6427183 0.94814181 1.6495057 19
10.947587 0.95936668 1.5857424 11
-3.00611 1.1397059 1.6378142 55
-2.9853392 1.0856423 1.5540423 60
10.175675 1.1328045 1.631256 9
10.598804 1.1311163 1.5802916 5
9.6919651 1.2094237 1.648033 13
8.4878654 1.3666034 1.6394488 22
8.66294 1.3562257 1.6417934 17
-2.7842746 1.5590284 1.5835955 65
-2.5984514 1.64037 1.5675236 67.666664
9.9238873 1.6043655 1.624066 18
10.606987 1.5044613 1.5514344 2
11.872939 1.6087031 1.5910519 7
-2.4007604 1.7242866 1.5530286 72
-2.3370507 1.7492529 1.626568 76
0.25849003 1.7160535 1.5059992 38
8.3279305 1.7555587 1.6335555 23
9.4943409 1.6707798 1.6288818 20
10.369859 1.6705585 1.5736834 5
12.576481 1.6656225 1.5662793 6
-2.016391 1.8901615 1.5866591 73.333336
-1.8887025 1.9375569 1.5548576 70
0.19488393 1.8616707 1.555756 38.799999
-1.8370075 1.962685 1.5123075 68
-1.787222 1.9864298 1.5804981 72
-1.5757567 2.0757523 1.500867 69
0.10006578 2.0767434 1.5532131 35
0.15136211 1.9638487 1.6041439 40
9.5775099 2.0363092 1.6181854 15
10.316459 2.0325186 1.5562203 4
-1.2854298 2.2031739 1.5919219 61.166668
0.069432244 2.1498523 1.5141563 31.5
8.024684 2.1180387 1.6335543 25
9.2705975 2.1171429 1.6264631 25
10.058597 2.1770308 1.5805455 13
11.182636 2.121145 1.5204505 2
-1.0174861 2.3213303 1.6009791 58
-0.8604911 2.3860872 1.5128198 60
-0.0027395368 2.3175471 1.5679103 34
-0.56031466 2.5231314 1.6334265 56
9.1389303 2.4191182 1.6105191 22
9.63657 2.4422164 1.5167127 15
-0.46976194 2.5603609 1.5750452 57.666668
-0.44161227 2.5681694 1.5292547 67
-0.27298257 2.6381249 1.5748656 54
9.459137 2.5828941 1.5592614 20
7.4448066 -1.8108598 1.7926041 23
7.6090927 -1.8758352 1.77995 22
7.8399048 -1.8476074 1.762024 21
8.1839743 -1.8292704 1.7594758 29
-1.6663038 -1.6533029 1.7896839 29
-1.8383056 -1.5902742 1.6889358 54
-1.4156201 -1.5365198 1.7215097 39
-1.3329605 -1.5024416 1.6587287 36
6.3110271 -1.6076419 1.7480725 2
-1.9144409 -1.4139748 1.7268069 52.5
-1.1928761 -1.4505812 1.7361639 28
-1.0002098 -1.3607556 1.7712773 29
5.4644012 -1.3989613 1.766966 1
6.423286 -1.3923842 1.7885751 31
6.7096457 -1.3794669 1.7764453 24
6.9359131 -1.4937894 1.7887458 22
-1.9771341 -1.2725192 1.7062956 49.400002
-0.7678411 -1.2661381 1.6986492 33
-0.67943078 -1.2221031 1.7393199 42.333332
5.749979 -1.2034923 1.7973381 26
-2.0461605 -1.1085697 1.7290856 51.25
-0.62638456 -1.1943682 1.7613271 37
-0.59368122 -1.1721817 1.7704722 30
-0.37950918 -1.0946139 1.7237594 24
-0.28372625 -1.0546618 1.6949316 22
5.5544143 -1.0670314 1.7996041 25
6.5425243 -1.1068307 1.7351741 50
-2.1281183 -0.91714275 1.7343006 50.5
-2.0943248 -0.99386489 1.7900549 51
-0.22660992 -1.0270866 1.7439694 18.25
-0.12143785 -0.9798032 1.7241215 18
5.8969102 -0.96741229 1.7861227 26
-2.1660185 -0.83550096 1.6941048 52
5.7160311 -0.84847432 1.7920521 26
-2.2154286 -0.70832205 1.769793 60.666668
5.8466506 -0.61558598 1.7817425 27
6.0331402 -0.72238892 1.7821709 27
-2.3176672 -0.46446159 1.7990583 64
6.1302404 -0.46596909 1.773976 28
5.9496531 -0.37107521 1.7706314 26
-2.3942387 -0.29296485 1.6671442 4
6.1694756 -0.20267771 1.7578522 19
7.1874418 -0.20580177 1.7363826 23
7.8581142 -0.24396621 1.7263962 20
9.471446 -0.23457436 1.6755038 12
6.0368133 -0.11867383 1.7643193 28
7.4216185 -0.12496308 1.7382854 24
6.0414543 0.1398716 1.7406276 19
6.1945381 0.063630462 1.7492307 18
7.2806377 0.13075873 1.7300628 23
7.9958887 0.12134137 1.7153205 18
8.5463905 0.033635475 1.6973623 16
8.7487583 0.079543792 1.6923217 19
8.9622202 0.046488263 1.6936952 19
10.424249 0.12859477 1.6640304 5
7.3872304 0.21885818 1.7092665 22
9.6998415 0.23869717 1.6759757 10
6.0794406 0.40260261 1.7384871 19
6.2390428 0.33073825 1.7567757 18
8.5084 0.4281778 1.6899146 17
6.2046108 0.59721744 1.7509304 19
7.2997832 0.47100487 1.7200466 24
7.4422145 0.56828493 1.7199417 24
8.065011 0.49639732 1.7016166 19
8.7603941 0.51748174 1.6736697 18
8.943717 0.4928163 1.6707038 16
6.0925417 0.66903377 1.7398533 19
9.7519693 0.72551233 1.6613952 14
6.1416306 0.85829788 1.7465395 18
7.319901 0.8187682 1.7267905 24
8.0880613 0.87976056 1.6913794 21
8.383872 0.81030661 1.6779052 21
-2.9513757 1.0318391 1.7867032 59
-0.4889622 1.0084031 1.7921489 69
6.0646267 0.93474633 1.7395905 19
7.3487687 0.90871316 1.7077056 24
8.8523207 0.93425864 1.6554738 19
-3.0052948 1.1504884 1.7301 63
-2.994895 1.1362318 1.7797388 62
-0.39482263 1.0738316 1.7962389 70
-0.22736675 1.1859723 1.7993268 80
5.9717159 1.1900958 1.7293977 20
6.027946 1.1084111 1.7363805 19
7.1819415 1.1471318 1.7063037 25
8.2100544 1.1758842 1.6700681 19
-0.64381373 1.3199264 1.7994682 78
-0.37538895 1.2730128 1.7977153 80
-0.20500481 1.2981787 1.7950497 70
5.893713 1.348392 1.7312227 20
7.2260866 1.2389292 1.7034329 25
8.0433588 1.2629732 1.6818696 18
-1.2122993 1.4125247 1.79454 85
-1.1121241 1.4291931 1.7953444 73.666664
-0.77717257 1.4238129 1.7958636 77.5
-0.65017867 1.4642347 1.7935286 73.666664
-0.52226239 1.4251095 1.7961966 75.666664
-0.37004426 1.4177424 1.7945186 76.833336
-0.25021899 1.4193829 1.7915519 70.400002
-0.11672745 1.4385554 1.790012 71.333336
5.8507781 1.4381225 1.7217642 19
7.0144739 1.462281 1.6952091 25
-2.6464682 1.6223731 1.7050143 69
-1.6973671 1.5323521 1.7965108 81
-1.5922887 1.578236 1.7989517 89
-1.1172434 1.5799265 1.7954787 52.75
-1.0247924 1.6051325 1.7979623 40
-0.87176502 1.5538372 1.7950202 46
-0.66727853 1.5893422 1.7926342 72.25
-0.54600531 1.6025424 1.7873048 68.666664
-0.37417674 1.5431157 1.7894071 74
-0.20784697 1.575292 1.7873952 75.25
-0.049599599 1.564013 1.7837324 72.25
0.037610006 1.6119188 1.7802516 73
5.7109342 1.5693214 1.7180248 26
7.0434904 1.5492164 1.6994711 25
7.9195747 1.6337434 1.6699783 24
7.9651871 1.5160869 1.6577443 20
-1.5930164 1.7173274 1.7949749 73.400002
-1.4448364 1.72761 1.7966014 74
-1.3469394 1.7132239 1.7965814 79
-1.0700516 1.7678182 1.7872413 47
-0.99929529 1.7596278 1.7936822 43.25
-0.84950787 1.7090988 1.7883918 47
-0.6133492 1.7071522 1.7845306 72.5
-0.51945102 1.761242 1.7816164 70
-0.36956784 1.6687084 1.7856187 72.666664
-0.22052252 1.72326 1.7807902 71
-0.098745503 1.7287087 1.7771047 76.166664
0.076860599 1.7303431 1.772019 75.14286
6.8233285 1.7643076 1.693422 26
-2.1752486 1.82248 1.751919 76
-2.0232077 1.8921412 1.713894 72.75
-1.8858148 1.9245197 1.7959825 90
-1.5555406 1.8725142 1.7885724 73
-1.4471599 1.9225788 1.786417 71
-1.2829797 1.8907636 1.7879969 70
-0.98790544 1.9028221 1.7805229 56.666668
-0.85198951 1.8978829 1.7784179 55
-0.73084837 1.8469508 1.7850724 62
-0.50657845 1.8826342 1.778411 64.666664
-0.39163685 1.8812553 1.7723719 69.25
-0.18522975 1.8961259 1.7729887 61
-0.068360984 1.8777273 1.7740381 63.799999
0.075940259 1.8649201 1.7694496 75.166664
0.20275161 1.8447065 1.7007576 46
6.7934699 1.8313693 1.6914841 25
7.6987658 1.833369 1.6529082 24
-1.733063 2.0132926 1.6517142 77
-1.5698556 1.9639348 1.7816619 76
-1.4917302 2.0502253 1.7838032 80
-1.2094988 2.0762985 1.7789994 70
-0.94295061 2.0136404 1.7744458 69.5
-0.85347337 2.040252 1.7718843 62
-0.68524015 2.0204096 1.7741171 65.5
-0.3882291 2.0298018 1.7693757 61.75
-0.26566747 1.991539 1.7672149 59
-0.073672086 2.0433769 1.7626772 65.333336
0.10103144 2.0196161 1.7375677 59.200001
7.7305613 1.9874007 1.6590861 22
-1.428612 2.144717 1.7403088 74.199997
-1.3006145 2.1186068 1.7771593 71
-0.84782857 2.1552341 1.7714353 59.333332
-0.62118971 2.2168505 1.767064 61
-0.55469424 2.1596441 1.7720157 58
-0.31224746 2.1524835 1.7660499 62.5
-0.2274484 2.1787329 1.7603571 59
-0.0079453764 2.2373984 1.7548031 62
0.023684692 2.1571717 1.7567042 66
7.4078817 2.1254456 1.6524612 23
-1.155897 2.2603917 1.7340821 65.5
-0.78354859 2.2987013 1.7629352 60.75
-0.69963121 2.3282793 1.7631341 61
-0.50725049 2.3950942 1.7598268 54
-0.44965449 2.3238339 1.7626971 57
-0.17901886 2.2987528 1.7562114 59.666668
-0.065432549 2.3675506 1.7352666 55.25
-0.66315758 2.4764068 1.733911 65.5
-0.57634175 2.491416 1.7198327 56
-0.3330231 2.5022371 1.759668 61
-0.055010661 2.4195309 1.714829 50.5
-0.40114778 2.5788832 1.7176157 61
-0.21970578 2.6662145 1.6999885 62.5
-1.8330708 -1.6075175 1.8296596 58
-1.7961615 -1.5409757 1.8911983 74
-1.5535697 -1.5963153 1.8346757 45
-1.4374597 -1.5336554 1.8452337 50.5
-1.8818779 -1.3884159 1.8701762 61.5
-1.5830309 -1.4463471 1.8861375 73
-1.4300694 -1.4582015 1.8887661 73
-1.2915801 -1.3534855 1.8852926 74
-1.111243 -1.3844707 1.8737123 77.5
-1.0189841 -1.3617902 1.86742 60.5
-1.9797214 -1.2413789 1.8711754 69
-1.6993952 -1.2434595 1.8813523 67
-1.5956209 -1.2682352 1.882152 74.5
-1.4221735 -1.2672783 1.8831182 74.666664
-1.2046725 -1.2330168 1.8804203 78
-1.1032437 -1.2352363 1.8831868 78.5
-0.9759348 -1.2765671 1.8773313 74
-0.84280467 -1.2112573 1.8746301 80
5.3719831 -1.2708998 1.8077039 25
-2.0474644 -1.052047 1.8509593 60.5
-1.901479 -1.1671839 1.8817331 65
-1.7101779 -1.0680172 1.874728 74
-1.5820274 -1.1269952 1.8804921 71.333336
-1.4411237 -1.0765442 1.8812073 72.5
-1.2597085 -1.075686 1.8772675 74
-1.1458074 -1.0773976 1.8806778 77
-0.93814093 -1.1182363 1.8784175 80
-0.79506832 -1.1264772 1.8730441 87.666664
-0.67728347 -1.1441309 1.8576248 79.599998
-0.49821934 -1.1166558 1.8568355 73.5
-0.37968341 -1.0617504 1.8600124 58
-1.9457924 -0.9866184 1.8773054 64
-1.6817417 -0.95737296 1.8743014 71.666664
-1.5788294 -0.95781159 1.8798876 70
-1.450107 -0.90111053 1.8772384 76
-1.2616675 -0.93470049 1.8747793 73.333336
-1.1604563 -0.91873556 1.8778933 81
-0.97323734 -0.96365446 1.8754077 92.666664
-0.82890415 -0.99964774 1.8720853 94
-0.66692352 -0.97350061 1.8649127 83.800003
-0.50940865 -0.98041546 1.8612759 69.85714
-0.37041077 -0.97086513 1.8556607 49.799999
-0.23457979 -0.97348201 1.8509518 44.5
-2.138314 -0.86677247 1.8513702 59.333332
-2.0318894 -0.83639979 1.8755069 70.5
-1.7297101 -0.828089 1.8721586 71
-1.6141987 -0.79079944 1.8736399 74.666664
-1.4946856 -0.75540584 1.8790387 70
-1.2666992 -0.77942383 1.8709173 84
-1.12446 -0.8260963 1.874838 91
-0.95255709 -0.79842025 1.8686445 100.5
-0.82212275 -0.85311985 1.8672968 93
-0.67422438 -0.82026154 1.8613061 84.5
-0.53243512 -0.82313192 1.860016 65.714287
-0.36504939 -0.84568566 1.8582312 50.857143
-0.25197527 -0.84298849 1.8522778 52.333332
-2.1605849 -0.67690641 1.8689334 73.25
-2.0158079 -0.63257349 1.8606745 82
-1.8161111 -0.68821692 1.8670594 79
-1.7315842 -0.68125945 1.8711933 72
-1.5915542 -0.61586517 1.868899 72.666664
-1.3841095 -0.61377871 1.870756 81
-1.2813742 -0.63714302 1.8677636 83.75
-1.1398416 -0.64830339 1.8664061 94.25
-0.99140549 -0.66987556 1.858146 85.5
-0.82030475 -0.66881454 1.8569021 80.285713
-0.66282982 -0.6730299 1.8543288 82.5
-0.52769476 -0.69058371 1.8512582 78
-0.39985737 -0.66009575 1.8510034 73.714287
-0.29018044 -0.69957632 1.8493019 61
-2.2781937 -0.54849106 1.8364214 74.5
-2.1703079 -0.50097358 1.8662057 76.666664
-2.0533445 -0.46062878 1.8653661 83
-1.8424869 -0.50806391 1.8636464 75
-1.7273948 -0.51570624 1.8678825 69.599998
-1.5991678 -0.46348208 1.8655484 71.5
-1.3858984 -0.48015177 1.8660325 83
-1.2707372 -0.49265322 1.8624667 86.25
-1.1529634 -0.47837692 1.8519652 69.5
-0.98711336 -0.52026981 1.8522532 78.5
-0.80981833 -0.51985753 1.8488287 85.5
-0.69038445 -0.53850412 1.8489131 68
-0.5242424 -0.51696181 1.8462538 79.444443
-0.36695158 -0.49387521 1.8404 72.5
-2.3216062 -0.34899873 1.8598831 84
-2.2058766 -0.35981607 1.8635942 76
-1.8411651 -0.32223135 1.8609987 77.5
-1.7142426 -0.34784672 1.8635861 78.599998
-1.5890357 -0.3137551 1.8642644 74
-1.3895139 -0.33228621 1.8586448 90.666664
-1.2577057 -0.35609239 1.8581969 90.25
-1.1066945 -0.37292463 1.8486987 78.5
-0.97475374 -0.39947554 1.8477378 80.75
-0.81597519 -0.37843868 1.8459769 79.166664
-0.66730607 -0.37227845 1.8435405 81.5
-0.50477886 -0.39176083 1.8440907 80
-0.40367004 -0.3733716 1.8395053 82
-2.350044 -0.21232286 1.8547418 72.5
-2.1942604 -0.27512717 1.8596044 74.5
-2.0821018 -0.28682858 1.8633054 85
-1.8763653 -0.1518238 1.8568493 16
-1.7183771 -0.19727588 1.8581151 82.75
-1.6124179 -0.16694103 1.8622106 92
-1.4059788 -0.18471573 1.8556581 102.33334
-1.271327 -0.22068544 1.8491948 79.25
-1.1081227 -0.2557126 1.8467011 79.666664
-0.96437788 -0.22295779 1.8397001 80.833336
-0.81808364 -0.22889814 1.8409284 77.800003
-0.66209048 -0.22000816 1.8423246 78.199997
-0.54006976 -0.22696976 1.8419728 77.833336
-0.43107837 -0.25384134 1.8393431 76.5
-2.4058573 -0.055098169 1.8530422 79
-2.3166647 -0.12321024 1.8577098 72.5
-2.1701417 -0.12765917 1.8607564 10.5
-1.7177011 -0.084267259 1.8550934 82
-1.6315892 -0.017171385 1.8574024 87
-1.416265 -0.036355037 1.8530989 103.33334
-1.2823608 -0.087297544 1.8457562 88.25
-1.1170728 -0.078990713 1.8399069 85.199997
-0.9834196 -0.064807549 1.8460653 72
-0.82823503 -0.068034157 1.8375537 73.375
-0.69432914 -0.072397351 1.8354337 80.571426
-0.53119487 -0.071551576 1.8345999 78.285713
-1.6789471 0.076106682 1.8502182 77
-1.6440783 0.13265201 1.8519548 90
-1.4168404 0.11103412 1.8428516 100
-1.2633392 0.076091222 1.8385075 82.333336
-1.1381967 0.086231589 1.8346438 83.333336
-0.98852426 0.072737314 1.8542457 69
-0.83480608 0.081187651 1.8325819 77.199997
-0.67229366 0.076036669 1.8304439 82.25
-0.54140621 0.063297659 1.8286985 82.166664
-2.3352633 0.28554329 1.8485754 79.5
-1.8002325 0.28877598 1.8420027 78
-1.6907288 0.24554783 1.8467875 78
-1.6456788 0.29315794 1.8408026 77
-1.3986971 0.25054115 1.838045 100.5
-1.2516884 0.22053656 1.8343496 74.75
-1.1056675 0.25432399 1.8310283 85
-0.96750146 0.22021718 1.8266596 85.166664
-0.81987721 0.22288604 1.8267936 81.25
-0.69374919 0.23758809 1.8270713 82
-0.5486185 0.21781567 1.8257521 82.75
-2.3092179 0.43966132 1.8394932 87
-2.1659369 0.37529898 1.8425455 84.333336
-1.8606951 0.39047632 1.8362348 84
-1.7175204 0.37459803 1.8403414 86.25
-1.6327057 0.44313911 1.8372957 79
-1.4066558 0.40966406 1.8363696 92.333336
-1.268531 0.36863375 1.8302876 82
-1.0969467 0.38641667 1.8303573 84
-0.99351263 0.38074085 1.8255011 81.25
-0.8199802 0.37164286 1.8218488 78.875
-0.67366403 0.37321261 1.8212893 79.199997
-0.53302699 0.3854506 1.8216789 79.714287
-2.2966049 0.48282129 1.843486 79
-2.1846676 0.5085268 1.8426298 84.666664
-1.8494449 0.57164872 1.8284683 85
-1.7460241 0.50367576 1.8363422 83.25
-1.6133728 0.59248096 1.832395 82
-1.408404 0.56462115 1.8356394 97
-1.2890528 0.51873171 1.8303795 98.199997
-1.1126484 0.51381427 1.8198547 74.333336
-0.96204293 0.53035867 1.8205938 75.400002
-0.8141458 0.52614343 1.8192588 79.111115
-0.66397369 0.5349806 1.8138086 78.714287
-0.54390174 0.54273427 1.8150334 77.833336
-0.44478357 0.52521372 1.8089153 88
-2.3223658 0.68485332 1.8370336 77.333336
-2.1966197 0.65440124 1.8380696 78.666664
-2.0942495 0.74530405 1.8342983 80
-1.7175477 0.65796226 1.8302453 88.800003
-1.5917665 0.74344438 1.8292953 88
-1.4023955 0.6613338 1.8283846 97
-1.2756678 0.66197181 1.8306463 85.400002
-1.0919236 0.64499843 1.8201491 82.666664
-0.94373268 0.68721241 1.8148178 76.666664
-0.82389683 0.68085283 1.8149614 76.333336
-0.67844892 0.68211985 1.8119837 76.666664
-0.53167039 0.67893136 1.8105733 76
-0.41817266 0.65877509 1.8094066 85.5
-2.6314869 0.75203097 1.840988 81
-2.4021318 0.80608284 1.8351921 81
-2.2848253 0.85056454 1.8277353 73
-2.1901083 0.85129946 1.8310941 80
-1.83498 0.75681251 1.8266522 88
-1.7016337 0.82863808 1.824475 86.400002
-1.5627867 0.89408249 1.8191491 88
-1.3764491 0.81787944 1.8223429 85.5
-1.2669071 0.82512218 1.8343096 77.599998
-1.1473 0.81988841 1.8220521 91
-0.97932547 0.80854046 1.812304 84
-0.81924319 0.81693453 1.8096882 73.833336
-0.67509967 0.82520533 1.8105251 76
-0.51502091 0.82249135 1.8078769 75.5
-0.39252371 0.82972604 1.8074691 78.5
-2.9035764 1.027958 1.8348428 76
-2.7656004 0.97015858 1.836418 54.666668
-2.614131 0.9669494 1.8332518 79
-2.3425953 0.95861465 1.8289775 76
-2.1658714 1.0080571 1.8276061 81
-2.0725079 0.9282192 1.8286005 79
-1.8122636 0.94489133 1.8218791 87.5
-1.7028883 0.99457037 1.8184528 80.5
-1.6361507 0.97620654 1.8208398 84.5
-1.3618207 0.92057121 1.8200108 79
-1.2691351 0.99939942 1.8145491 90.75
-1.1398882 0.9878943 1.8187214 85.333336
-0.96327215 0.94322795 1.817773 94.666664
-0.82435787 0.97091246 1.8115127 85.25
-0.66993171 0.95840818 1.8090852 84.800003
-0.53246224 0.96180815 1.8052156 75
-0.36933926 0.96515864 1.8046778 70.666664
-2.2964289 1.1197085 1.8275422 79.666664
-2.1894135 1.0779548 1.8259937 78
-2.0486081 1.1162647 1.8260695 85
-1.7253002 1.1394116 1.8121271 87.599998
-1.5841156 1.1161404 1.8158212 82.666664
-1.2676997 1.1269702 1.8112434 90
-1.1507167 1.1448334 1.8094043 89
-0.95747572 1.1152302 1.8115969 89.25
-0.79926163 1.1011883 1.8094418 87.199997
-0.64034206 1.1139818 1.8104868 89.800003
-0.52154875 1.1271255 1.8077247 87.85714
-0.37565961 1.126393 1.8049735 84.5
-0.27803442 1.11707 1.8051302 81.5
-2.3125079 1.3081117 1.8229647 80.5
-2.1866961 1.2717186 1.8221875 78
-2.0148587 1.3070911 1.8183759 77
-1.7270651 1.3119751 1.8111048 77.666664
-1.6039259 1.2952532 1.8096818 86
-1.4948012 1.2088858 1.8121039 75
-1.236398 1.2635708 1.8051662 80.5
-1.1229614 1.2665458 1.8056973 79.333336
-0.98433012 1.279683 1.8075074 81
-0.83429515 1.248821 1.8058939 80.5
-0.71060646 1.2795494 1.8062592 75.199997
-0.52190769 1.2918266 1.8041484 81.599998
-0.39423022 1.2615083 1.804208 78
-0.26219618 1.2761177 1.8006446 70.5
-2.3158545 1.4065187 1.8179301 73
-2.1530223 1.4401946 1.8173167 83
-1.6571885 1.4616417 1.8065811 80
-1.6015515 1.3955307 1.807447 74.75
-1.4502752 1.3695358 1.8035342 78
-1.2342705 1.3625786 1.804294 84
-1.132351 1.3596152 1.8008071 81
-0.97867537 1.4165237 1.8009129 75
-2.3301637 1.5077413 1.8124591 77
-2.212738 1.5369047 1.8148352 75.333336
-2.0342112 1.5049816 1.8097076 76
-1.6925265 1.5412471 1.8053132 78
-1.5502927 1.5420711 1.8028054 75.5
-1.4045581 1.5416375 1.8056103 77
-1.084962 1.5313653 1.8007823 51
-0.96645278 1.5747416 1.8035313 46
-2.5444989 1.6546339 1.8078521 97
-2.2871604 1.7056707 1.8068204 75
-2.1575356 1.7241582 1.8068575 79.666664
-2.0525115 1.7290678 1.8052486 84
-1.9357344 1.7108005 1.8053781 86
-1.1139977 1.7172856 1.8065854 43
-1.5643946 1.8115647 1.8225983 34
