# .PCD v0.7 - Point Cloud Data file format
VERSION 0.7
FIELDS x y z intensity
SIZE 4 4 4 4
TYPE F F F F
COUNT 1 1 1 1
WIDTH 1319
HEIGHT 1
VIEWPOINT 0 0 0 1 0 0 0
POINTS 1319
DATA ascii
2.7288022 -1.3972216 -0.18867601 67
2.8998003 -1.2623842 -0.16969222 45.5
-0.61741489 -1.0313073 -0.16945222 11
-0.51860148 -0.99785852 -0.16722369 13.428572
-0.38526922 -0.95038283 -0.17671022 16.1
-0.27398467 -0.90808952 -0.1787454 16.142857
2.4064684 -0.92197907 -0.17027991 50
-0.15158886 -0.86509556 -0.15354697 16
-0.14404258 -0.85764515 -0.16733985 14.5
0.10777292 -0.77139068 -0.17576535 5.75
0.1525339 -0.75576293 -0.17723557 5
2.7708323 -0.86011904 -0.18813485 129
-0.14443094 -0.71890277 -0.18648115 1.5
0.19917335 -0.73634547 -0.1874311 6
0.3984707 -0.66964805 -0.16867514 5
0.51744241 -0.62242252 -0.17862153 5.1111112
2.3363147 -0.71709567 -0.16781414 17
2.4877424 -0.62210536 -0.161314 13
2.5760868 -0.60255307 -0.19419132 32
0.541556 -0.54225248 -0.16619176 0
2.7443197 -0.50977468 -0.16645308 3
0.29505906 0.28999913 -0.16777317 11.333333
0.33413777 0.24788301 -0.18031535 3.5625
0.26556137 0.37497255 -0.17792393 12.3125
0.21180083 0.51514018 -0.17388588 12.133333
0.13936234 0.70871943 -0.18311834 14.333333
0.17367466 0.61386752 -0.15849705 12
0.11707465 0.77906704 -0.16678028 12.428572
0.031553019 0.99035972 -0.19364843 10.75
-0.015963648 1.1479301 -0.16016276 9.5
0.012451317 1.0862551 -0.15940884 9
5.1868987 1.2558856 -0.17724368 21
-0.13577408 1.4691339 -0.17939791 8
5.1005139 1.4976149 -0.16240947 12
-0.19033471 1.6124253 -0.17172635 48
-0.79588884 1.8487003 -0.17035511 19.799999
-0.72067541 1.8894838 -0.17462809 24.666666
-0.55234361 1.923959 -0.17572457 21
-0.40267539 2.0114381 -0.18053567 31
3.2834089 -1.6575624 -0.070645727 16
3.1935263 -1.6192535 -0.0048950659 39
3.2594883 -1.4226527 -0.063747831 0
2.545356 -1.2865078 -0.13710101 10
-0.77381378 -1.0934796 -0.044608936 5.3333335
-0.70558894 -1.0782148 -0.050183613 8.6999998
3.1307354 -1.136577 -0.056804333 0
3.1635702 -1.1647669 -0.049746487 0
-0.7877388 -0.97084075 -0.05299367 4
-0.65608883 -1.0294908 -0.069763049 9.0666666
-0.52307963 -0.99663794 -0.068071097 11.923077
-0.37450758 -0.94349527 -0.092185512 14.368421
-0.29607347 -0.90972954 -0.069991224 11
3.0871325 -0.94211817 -0.094499417 20
-0.8109467 -0.8188259 -0.05183306 5.6666665
-0.20340726 -0.87721568 -0.092012532 12.352942
-0.067911349 -0.82708949 -0.099844314 7.8571429
0.070689552 -0.78727621 -0.1000032 5.590909
0.17147559 -0.75842363 -0.024277262 6.1666665
3.082931 -0.88017011 -0.003282194 14
0.14877941 -0.74765158 -0.060246591 3
0.23639427 -0.72142684 -0.079269141 5.7142859
0.37456715 -0.6726132 -0.086665958 5.6363635
0.52258611 -0.61911213 -0.05067753 4.3571429
2.9461195 -0.6586237 -0.063000031 0
0.57867837 -0.5701254 -0.051332034 1.4444444
0.68704104 -0.5259192 -0.098744929 0
3.6139159 -0.56514239 -0.054137204 6
3.5375097 -0.42840534 -0.14183514 1
5.1224828 -0.30634928 -0.079594083 0
5.0799289 -0.16083217 -0.033460829 1
0.29171431 0.29857546 -0.13253623 13
0.32656571 0.25090557 -0.13142566 3.2222223
5.5014353 0.21816179 -0.049298353 33
0.26308978 0.38615495 -0.10484184 12.119047
0.21484135 0.51818484 -0.064277418 11.781818
5.4627128 0.52968597 -0.049125705 0
0.13825874 0.72223067 -0.034417991 9.7777777
0.16685133 0.64887977 -0.075638689 11.375
0.095364019 0.8326261 -0.095383644 10.733334
5.3791742 0.83368558 -0.038533527 1.5
0.057782602 0.9697997 -0.038714103 8.6999998
-0.021740701 1.176404 -0.10626344 8.5
0.0097058425 1.0906247 -0.138916 9.333333
5.3317003 1.1391712 -0.01554366 6
-0.061289959 1.2776092 -0.054787297 8.4444447
-0.12282847 1.4432495 -0.077332929 8
5.0906248 1.385559 -0.010316526 40
-0.18578953 1.6068081 -0.12754019 20.666666
5.0979662 1.5487093 -0.13482052 14
-0.22306666 1.7109232 -0.077126026 45.75
-1.0869253 1.8454936 -0.067867517 64.222221
-1.0052779 1.8777523 -0.013558781 55
-0.80711251 1.8679851 -0.076943003 18.666666
-0.66574275 1.9214792 -0.057093974 26.333334
-0.56654841 1.9379297 -0.10033444 21.666666
-0.27903971 1.8636587 -0.061118945 38
-1.0544078 2.0905161 -0.10171924 140
-0.90667194 2.0112855 -0.080955692 17
-0.47963372 1.9687862 -0.12820953 16.333334
-0.3230173 1.9876212 -0.0057800757 44
-1.0718852 2.1739478 -0.10769353 46.799999
-1.0044116 2.1439171 -0.0722607 67.5
-1.0780642 2.3501804 -0.015007322 113.66666
3.2101254 -1.6165429 0.086770333 24.5
3.2436595 -1.4025146 0.01629656 13.5
-1.0756347 -1.2075272 0.13153642 9
-0.95444793 -1.161556 0.11060704 8.7142859
-0.81932354 -1.1113616 0.082721032 8.583333
-0.69143379 -1.0701286 0.082568258 9.3000002
3.1287115 -1.093188 0.059664097 0
-0.84997845 -1.0224695 0.016767884 1
-0.61252779 -1.0258373 0.080158584 9.666667
-0.53652918 -0.99705219 0.058422931 10.1
-0.37402225 -0.93741244 0.075666964 12
-0.27068222 -0.90583843 0.090695277 12
-0.20545587 -0.88178295 0.082415976 13.888889
-0.1394144 -0.85830003 0.02637887 14.4
0.070770271 -0.78867131 0.049109966 5.4166665
0.1542014 -0.75936395 0.099728666 5
3.0618947 -0.85347092 0.088764377 51
-0.11266257 -0.72133696 0.10683226 0
0.22721729 -0.7253108 0.096077129 5.04
0.36858401 -0.6725812 0.069699503 5.0645161
0.50192821 -0.62663877 0.079672292 4.5384617
2.9536889 -0.64665341 0.029696058 0
0.59127134 -0.5873853 0.080394685 3.6666667
0.60197031 -0.58404344 0.06825082 3
3.6598928 -0.56111765 0.035978373 0
-1.0775464 -0.17938188 0.1012704 0
-1.0996891 -0.054301951 0.12643315 0
5.5226016 0.15752977 0.10804953 1
0.20672826 0.54865599 0.043348074 8.9310341
0.14460017 0.73825967 0.13062939 9.5
0.17428415 0.64863038 0.077172436 8.78125
0.1109634 0.82565767 0.066343568 8.8823528
0.067882381 0.95766711 0.092013545 8.666667
-0.011287842 1.1610096 0.11877234 7.25
0.014283827 1.0919832 0.056143902 8.375
-0.052599084 1.2698601 0.095364302 8.333333
-0.12530971 1.4691137 0.048397575 13.5
5.1208916 1.4105694 0.028024906 21
-0.17685902 1.6088998 0.10613962 42
-0.14019543 1.500986 0.11672898 38
-1.3341725 1.77001 0.069397114 101
-0.19401941 1.6556925 0.116921 42
-1.3606784 1.8058732 0.043491747 157.5
-1.3465825 1.8134029 0.11292385 158.39999
-1.1012778 1.894352 0.043095019 124.33334
-1.037957 1.8661798 0.0058519496 56.5
-0.80041784 1.8866614 0.061295662 31.285715
-0.70582491 1.9120599 0.022923177 51.666668
-0.4950901 1.9385092 0.13767922 17.5
-0.30721042 1.9398905 0.058962759 41
-0.29894528 1.9199631 0.013338472 40
-0.50628752 1.9955029 0.085462786 12.5
-0.40555942 2.0311816 0.042152934 21.5
-1.3859363 2.1796381 0.044284787 141
-0.39139795 2.1093943 0.11317911 86.333336
-1.4291798 2.2748814 0.097263485 81.833336
-1.1046989 2.3878114 0.070703588 95
-1.275709 -1.2753973 0.25896394 46.666668
-1.1452051 -1.2283524 0.23891908 23.333334
-1.0636302 -1.1994356 0.278552 8
-0.99143285 -1.1724638 0.22013965 9.3000002
-0.82650852 -1.1132081 0.22714242 8.8000002
-0.71186894 -1.075972 0.18375163 9.5
-0.60588765 -1.0213022 0.27784646 3
-0.54953927 -1.0035688 0.21687572 3.3333333
-0.35798305 -0.93040496 0.2306437 10.5
-0.28232798 -0.90684259 0.17405729 12.5
-0.18404484 -0.86256379 0.25835434 10.3
-0.11830108 -0.83841312 0.21772662 9.875
0.079425849 -0.77784961 0.21273886 5.375
0.16170393 -0.75131601 0.15974969 5
3.0376298 -0.85937315 0.23851088 67.5
-1.3901067 -0.66869146 0.29672343 0
0.13588978 -0.74235708 0.19689243 5
0.22850113 -0.717269 0.23880623 4.2413793
0.34836152 -0.677899 0.17880838 4
-1.2463503 -0.3128264 0.29502475 0
-1.2289257 -0.19766007 0.29389584 1
-1.1419411 -0.20582385 0.19525349 2
-1.2037446 -0.025922388 0.25575575 0
-1.1910596 -0.096424334 0.25632057 0
-1.241508 0.041249201 0.25622413 0
0.17133255 0.70248342 0.19553798 7.6399999
0.12758492 0.81413096 0.2394436 7.818182
0.15076426 0.75856519 0.1514858 8.5
0.059409793 0.98997748 0.21116172 7.2142859
0.027915116 1.0702215 0.27589154 7.5
-0.044306014 1.2674109 0.20221341 8
-0.080899701 1.3790761 0.26535848 8.5
-0.18058741 1.6326836 0.18241191 42
-1.3853178 1.7707726 0.23752154 129
-0.20335153 1.6919909 0.20382108 36.25
-1.3910869 1.830869 0.23587063 154.5
-1.348637 1.8372329 0.16409254 160
-0.65201497 1.9097821 0.21280324 11.4
-0.5430277 1.9349831 0.15821475 17.25
-0.27062765 1.8826303 0.25947079 37.333332
-0.78700238 2.0082858 0.26450032 89
-0.65105522 2.0019598 0.27697498 107
-0.55773419 1.9592769 0.23031119 25.5
-1.745602 2.1631517 0.24739905 77
-1.4813225 2.2366884 0.27730373 67.5
-1.1664343 2.1972733 0.29937077 47
-1.006906 2.2472465 0.29807496 67
-0.42320251 2.1147532 0.18017811 150
-1.4023714 2.2841673 0.20464921 76.333336
-1.2681296 2.3334577 0.20578283 77
-1.059492 2.3979394 0.27841461 95
-1.0786065 2.4066999 0.20263423 77.666664
-1.044462 2.4195855 0.22882628 92
-1.5552872 -1.3743718 0.38371611 39
-1.40613 -1.3197941 0.38992202 35.333332
-1.2853367 -1.2770345 0.36943302 30.428572
-1.1348385 -1.2214764 0.34485599 26
-1.0102887 -1.1658823 0.36126161 8
-0.79337794 -1.0975603 0.4181726 7.3333335
-0.7038396 -1.0639107 0.39160326 8.333333
-0.64142174 -1.0435649 0.33383584 7.6666665
-0.50111187 -0.9893899 0.39472926 7.5999999
-0.39877772 -0.95582569 0.35580453 9.1111107
-0.26696521 -0.90892565 0.3880839 8.875
3.0860031 -1.0148963 0.30039412 0
10.946495 -0.93802917 0.36223006 24
-0.21827401 -0.87731266 0.33350393 9.7142859
-0.11866462 -0.84963554 0.43270805 9.333333
0.083018921 -0.77509999 0.37899432 3.7916667
0.16251235 -0.75383973 0.32073092 5.3333335
-1.4324057 -0.63750327 0.35274518 2.75
-1.302146 -0.62750232 0.33674434 0
0.12012954 -0.74568921 0.36502999 4
0.15183182 -0.74013096 0.32877755 4
-1.3976903 -0.5853231 0.34807745 1.6666666
-1.3445042 -0.57453555 0.34984219 1
-1.2894158 -0.3184908 0.40457439 1.5
-1.24128 -0.17257427 0.36523667 0
-1.2091025 -0.086895719 0.36825722 0
-1.1953679 -0.058268268 0.34652686 0
-1.2429188 0.06011327 0.37812009 2.2307692
-1.8370101 0.27817369 0.44416326 16
-1.264115 0.1770505 0.36651129 0
-1.162879 0.16379485 0.31376386 0
-1.841478 0.3975248 0.41649616 27
0.12346777 0.83613479 0.36496049 6.7222223
0.078021564 0.95639998 0.37978578 7
-0.0070097772 1.1849314 0.39147139 8.5
0.012970426 1.1285183 0.34138307 7.4285712
-0.019361783 1.2450554 0.43858516 8
-0.098359063 1.4209106 0.3307671 30
-1.921267 1.5905297 0.37122449 128
-1.7261788 1.6126198 0.34441841 67
-0.14029634 1.553545 0.41253859 36
-1.7516145 1.6712967 0.35072684 123
-1.5623398 1.7287551 0.35029456 109
-1.4389921 1.7950394 0.36531001 160
-1.9808104 1.8812855 0.35676235 63
-1.8992245 1.816578 0.35474545 48
-1.7593482 1.9211407 0.3510204 50.5
-1.576141 1.8182834 0.33201104 63
-1.4189377 1.8235388 0.38456547 113
-1.2845652 1.8738432 0.38002205 22.200001
-1.159566 1.8786528 0.33275223 43.5
-1.0347914 1.9146912 0.3007797 119
-0.28139678 1.9203142 0.33644888 38.333332
-1.888062 2.0621483 0.32505378 95.333336
-1.7977165 1.9759457 0.336797 75
-1.6206906 2.0245385 0.33101302 66.5
-1.4132708 2.0228412 0.33550102 24
-1.2185744 1.9666989 0.30801076 56
-1.1433041 1.9857759 0.30700389 39
-0.92451382 2.0243931 0.3938677 31.5
-0.78526676 2.028764 0.32627046 150
-0.35713083 2.0467036 0.39382777 79.5
-0.29485956 1.9563125 0.41021562 36
-1.7168688 2.1515565 0.31906083 68.5
-1.5131918 2.2109842 0.31897941 47.5
-1.3395935 2.1988587 0.31497163 90
-1.1249647 2.1335227 0.31381792 45
-0.818205 2.1746898 0.41651097 56
-0.37619889 2.1230304 0.43685904 96
-1.3814039 2.2886415 0.30055815 70
-1.2074275 2.3280566 0.30879498 77
-1.1375462 2.3354552 0.3101196 62
9.5136309 3.1118722 0.41616642 35
-1.9174988 -1.5027571 0.53332752 38
-1.801491 -1.4615284 0.56073034 1
-1.7219 -1.4333686 0.51879644 25.666666
-1.5682993 -1.3789029 0.49061674 22
-1.4268445 -1.3291919 0.59946102 25
-1.2243024 -1.2512906 0.59522003 36
-1.142996 -1.220389 0.53594625 29
5.8637233 -1.2464064 0.53809148 54
-1.0704606 -1.1928797 0.49059987 29
-0.98351121 -1.1650567 0.53867871 29.666666
-0.83426589 -1.1102504 0.51912677 16.75
-0.68356216 -1.0571351 0.55615437 8
-0.61460906 -1.030614 0.54641896 7.3333335
-0.54771549 -1.0043083 0.51365149 7.7142859
-0.34985712 -0.93269569 0.50851661 7.7142859
6.0468111 -0.91799766 0.57723373 20
-0.18782759 -0.87049031 0.54548383 8.090909
-0.1311128 -0.85208058 0.49507487 8.125
0.040240046 -0.79608047 0.47497824 2.5
-1.2745875 -0.2283247 0.50119734 3
10.710564 -0.29097348 0.53620076 30
-1.2248352 -0.08050058 0.52175081 0
-1.2367616 0.075345159 0.5272606 2.4000001
-1.9258981 0.28834069 0.46793312 15
10.528868 0.21106561 0.58805156 33
-1.9947951 0.3851645 0.57821572 68
-1.8748896 0.41588247 0.4554835 48
-1.9728012 0.53609151 0.53104919 69.199997
0.10627274 0.89122975 0.46472895 7
0.079062454 0.97033769 0.51334172 7
0.037901107 1.0939367 0.5524075 7.25
-0.035418682 1.2865565 0.51010215 16.142857
-2.2678292 1.4431261 0.55128413 78
-0.07182733 1.3865336 0.57863092 37
-0.1565806 1.6023849 0.47705936 36
-0.14463989 1.5601643 0.48490226 36
-1.3752655 1.7905604 0.46968564 155
-0.20993263 1.7558568 0.56345099 33.5
-1.4062488 1.8076868 0.57778972 164
-1.3035094 1.896751 0.5029493 5
9.9909544 1.8667086 0.53034276 2
-2.2652957 1.9714923 0.59279227 83
-2.0028453 2.0593834 0.58099341 95.25
-0.40649092 2.0935471 0.50427961 113
9.911005 2.0396297 0.50772834 4
-1.7029706 2.1729646 0.54656613 75
-1.4724027 2.1614928 0.51208013 112
-0.95873666 2.1794143 0.52729893 152.5
-0.89219224 2.1686084 0.4924683 100
-0.40511334 2.1449342 0.52437329 123.5
-0.82259798 2.2536228 0.51588029 153
9.7858105 2.3949475 0.55407178 29
-0.73214078 2.5370069 0.50192928 90
9.7146473 2.5922446 0.57017159 37
9.5800896 2.9156239 0.59958196 38
7.5506806 -2.9237735 0.7170639 28
-2.0476506 -1.550334 0.67376411 3
-1.6780256 -1.415573 0.72721648 33
-1.5472056 -1.3712596 0.66710591 26.25
-1.3731403 -1.3013716 0.64904857 33
-1.2589605 -1.2613332 0.6718154 36.200001
-1.1504353 -1.2202386 0.69215858 37
5.8666801 -1.2472754 0.68393213 65
-1.056156 -1.1896729 0.72689962 42
-0.96966124 -1.1535016 0.66675425 41.666668
-0.78936791 -1.0925889 0.67979544 19.5
-0.71839488 -1.06516 0.72260499 14.8
5.848999 -1.1955968 0.62810564 63
-0.64526224 -1.0365306 0.61793369 8
-0.49134448 -0.98157394 0.7146641 7.4285712
-0.39562076 -0.94312215 0.65536201 8
-0.2898849 -0.90425068 0.69025546 7.3333335
5.9212103 -0.95388591 0.69597077 26
10.952016 -0.92079043 0.62061822 27
-0.22004712 -0.87663329 0.67672092 8
-0.12610148 -0.84294254 0.68040997 8
6.5049214 -0.69931597 0.74320972 2
10.773068 -0.36950195 0.66293991 8
-1.2787703 -0.25776604 0.62712091 3.6666667
-1.2401578 -0.052820038 0.70698899 6.8000002
-1.254276 0.071188539 0.63553697 5.5
-2.0253992 0.35465762 0.6474387 61
-1.9897113 0.49815392 0.64559925 42
0.072725296 1.0157671 0.65394485 7.1999998
0.037980203 1.1075833 0.64933228 10.125
-0.0081098853 1.2277091 0.70073301 33
0.00032652618 1.2071521 0.73226452 20.5
13.826255 1.2121396 0.72860479 76
-2.2556231 1.4492438 0.65875328 91
-0.077643141 1.4117937 0.65845615 34.799999
-0.20966244 1.7612537 0.63771856 32
-2.4760165 1.8922033 0.6858834 64
-0.23437242 1.8337731 0.67844689 36
-2.2800453 1.9664135 0.63432801 87
-2.2061806 1.9924942 0.67916632 85.833336
-1.9871458 2.0669894 0.65197498 90.666664
-1.8537515 2.121784 0.67624491 88.333336
-1.6880839 2.183398 0.68664449 79.75
-1.358351 2.305716 0.70712006 79
-1.2005254 2.3650482 0.60142529 81
-1.15405 2.37994 0.70472568 79.833336
-1.0163195 2.4258463 0.66826957 113.5
-0.50249112 2.5438375 0.70284295 42
-0.57835549 2.583755 0.71239519 86
9.5066547 3.1313472 0.65798771 36
6.9349136 -3.1394362 0.80450034 40
7.5956421 -2.8835013 0.89082611 45
8.2489223 -2.6249557 0.82197392 36
-2.3860455 -1.6707343 0.77078438 8
-2.4122565 -1.6162747 0.88259697 8
-2.1844893 -1.6058788 0.86483103 11
-2.044121 -1.5505621 0.8546679 28
-1.9242519 -1.5151203 0.75383329 3
-2.465275 -1.4882207 0.82347941 16.5
-1.8582246 -1.4826115 0.81195581 30
-1.7097447 -1.4313773 0.78014117 36.5
-1.6375359 -1.3962482 0.86037505 32
-1.4199375 -1.3187206 0.8323158 34.599998
-1.1369975 -1.2145399 0.82959127 35.333332
-2.5848546 -1.1046994 0.87808305 82.5
-1.078908 -1.1910892 0.82368994 39
-0.96080041 -1.1511207 0.82155466 36.333332
-0.81061774 -1.0934535 0.84623557 37.5
5.829216 -1.1380053 0.84489232 68
-2.6504271 -0.91880131 0.89257407 92
-0.64705586 -1.0315552 0.86351788 31
-0.5410955 -0.9975282 0.83155078 21.142857
-0.34744224 -0.92320669 0.84931439 8
-0.28040481 -0.90214473 0.76180518 7
10.975019 -0.96935761 0.75875831 27
-0.22372241 -0.88016939 0.82041293 7.8000002
-0.14637002 -0.84730828 0.75649524 7
6.1327462 -0.87869596 0.8469224 36
6.2269664 -0.84957933 0.82027102 30
-1.2556597 -0.16575462 0.86648452 5
-1.227501 -0.12327041 0.77930176 1
-1.166252 -0.065323025 0.82401615 5.1111112
-1.2505939 0.042565458 0.84102678 6.25
-1.1364257 0.054857865 0.85278392 0
13.891465 1.0392355 0.83599544 72
0.035586745 1.13025 0.81788987 25.333334
-0.02238426 1.2819316 0.82409835 32.5
-0.053488854 1.378019 0.87024856 31
-2.2795935 1.6010351 0.86803669 60.5
-2.1812005 1.6011974 0.8640036 52
-2.0363002 1.5493633 0.86588848 150
-1.882313 1.6053933 0.84516472 65
-1.7967205 1.6248149 0.87503803 30
-0.11914179 1.5399513 0.79198617 31.666666
10.024626 1.6387889 0.84856772 33
-2.69643 1.7949696 0.78790891 150
-2.4106452 1.6886387 0.89521611 156
-2.3710148 1.7046465 0.8747462 150
-2.1417634 1.7164249 0.86471629 56
-2.0200036 1.7765405 0.85507143 47
-1.8813548 1.7136515 0.85003519 54
-1.7446169 1.798969 0.84038615 68
-1.5726788 1.7294002 0.84429944 44.5
-1.3959557 1.7790551 0.83550262 129.5
-1.3359003 1.7475375 0.7757048 67
10.03221 1.7570052 0.88470876 34
13.621492 1.7683928 0.8077867 33
-2.6818805 1.8210634 0.85857195 81.5
-2.4406428 1.8977832 0.79167962 76.75
-2.3450525 1.904788 0.84412211 69.833336
-2.1816039 1.8469648 0.85093027 60.5
-1.8744317 1.8921762 0.84399414 52.5
-1.4176672 1.8419595 0.85680598 113
-1.2942894 1.8658378 0.79966319 107.5
-1.0662726 1.9433706 0.86435699 165
-0.85284042 1.9380115 0.78476852 73
-0.26938623 1.9412481 0.75119913 38
-2.1636631 1.9994116 0.80076253 79
-2.0234053 2.0503347 0.79295987 74.666664
-1.8976433 2.0467458 0.84177667 48.5
-1.7199256 2.0312428 0.83012676 60
-1.5725785 1.9906977 0.83060133 53
-1.3412986 2.0230215 0.82164574 45.5
-0.9492805 2.0428572 0.79548275 81
-0.7912299 2.0421042 0.81639576 96.400002
-0.45317048 1.9523854 0.82247806 64
-0.31787178 2.0695586 0.83930707 42
-0.29817379 2.0348568 0.86059761 39
-1.8162988 2.129106 0.8151226 91.5
-1.7796638 2.1510172 0.77512693 91
-1.5056547 2.2163725 0.80496478 57
-1.4166473 2.1030333 0.81135893 47
-1.27821 2.1546237 0.81054574 50.666668
-0.79604304 2.1442604 0.7916683 50
-0.69604063 2.1999931 0.79329294 51
9.8841429 2.1586828 0.85126734 31
-1.2816942 2.2979634 0.79335296 59.200001
-1.1411216 2.3495948 0.79585755 83
-0.85583544 2.2704506 0.78983021 65
-0.68348682 2.329612 0.7844578 47
-0.54692143 2.373651 0.78196776 69
-0.68896008 2.4699342 0.77851212 62.5
-0.56556129 2.5067267 0.78195494 45.666668
-0.57809347 2.5855041 0.75170934 95
9.6733141 2.6606622 0.86756599 34
7.0090704 -3.1036181 0.96874642 42
7.6868224 -2.8476546 0.9975431 33
8.3229294 -2.5920668 0.9374485 35
-2.3596871 -1.6588439 0.99365163 50.333332
-2.4187403 -1.5663104 0.96430427 69.25
-2.1252398 -1.5786016 1.0299007 30
-2.0438516 -1.5456568 0.99447238 30
5.9725308 -1.509652 0.98727751 66
6.023582 -1.5867356 1.04633 56
-2.4576797 -1.4588461 0.99387985 11.666667
-1.8746884 -1.4880562 0.95224154 33.5
-1.723191 -1.428075 1.0285867 33.5
-1.5838141 -1.3752065 0.95236635 33
5.9471426 -1.4199176 0.98642182 64.5
-1.5024879 -1.3495318 0.91168761 31
-1.4137744 -1.312798 1.021467 32
-1.23965 -1.2493948 0.99026823 35
-1.1920838 -1.2352034 0.90476215 36
5.8872395 -1.242449 0.95501196 61
-2.6016278 -1.0524633 0.99472654 85
-1.0669662 -1.1872054 0.97923493 31
-0.9368009 -1.1433544 0.96547186 32
-0.82108104 -1.0962301 0.95644164 34.5
-2.6419482 -0.93983716 0.96706235 88
-0.63724273 -1.0270816 0.99468517 42.75
-0.54591447 -0.99123544 0.96087807 42
-0.39061204 -0.93373394 0.96947241 31.333334
5.7693415 -1.0127262 0.9078747 6
5.916285 -0.94296539 0.91262615 26
-2.6734164 -0.83341336 1.0280901 80.666664
-0.23146355 -0.87534964 0.97243035 33.5
-0.14213762 -0.83294225 0.99147391 45
6.4604855 -0.77215725 0.97121716 29
-2.7426367 -0.68436319 1.0444834 8
6.4756746 -0.70006341 0.98709118 9
10.795066 -0.4658066 0.96230376 29
-1.1495633 -0.063098744 0.90971637 2
10.58947 0.088250145 0.94298643 30
10.539637 0.22850795 0.98328888 24
0.016000342 1.1960266 0.97821879 30.25
-0.024081405 1.2967862 0.91966081 31.25
0.0087876441 1.2173347 0.97778916 29
-2.2491677 1.4477378 0.91283298 78
-0.055993024 1.3891274 0.99841213 31
10.200887 1.3769712 0.94875085 1
-2.1958587 1.5365955 0.91160154 169
-0.151981 1.6340961 0.90702659 34
-3.0013697 1.7098525 0.91135097 82
-2.9437637 1.7261163 0.98634344 76.666664
-0.17527857 1.7151239 1.0217414 28
-2.6251669 1.8366308 0.9532274 97.400002
-0.21053024 1.8202926 1.0102415 29
9.9810228 1.9209759 0.96942854 34
-0.29765821 2.0270476 0.91433597 27
-0.33942205 2.1204093 0.94038665 51
9.8275671 2.2758884 0.92650223 35
9.7842436 2.4549749 1.0196543 33
9.6488953 2.7919254 0.99473178 35
7.1020818 -3.0632911 1.0610136 41
7.5661502 -2.8757334 1.1533613 44
8.1878719 -2.6269965 1.1114317 29
6.0697236 -1.7345487 1.1735165 48
-2.4113331 -1.5551934 1.1181601 80.5
-2.3251367 -1.6363795 1.0940146 45.5
-2.009244 -1.5304099 1.1159507 28
-2.4435279 -1.4733416 1.144522 59.75
-1.8085207 -1.4604105 1.1869221 30
-1.7119966 -1.4236873 1.1685835 30
-1.6403042 -1.3955207 1.0680518 30
-1.4367392 -1.3217278 1.1505847 33
-1.3248843 -1.2783525 1.0850853 34
-1.0957714 -1.2001911 1.1820574 30
-2.5788255 -1.104735 1.1109076 79.333336
-1.0825384 -1.1888446 1.0758951 30
-0.96239156 -1.1471157 1.0791404 34.400002
-0.76009154 -1.0704368 1.1329992 31
-0.73592293 -1.0643847 1.1731129 31.5
5.8216743 -1.0891528 1.122002 64
5.863317 -1.1929318 1.1181347 65
11.031057 -1.0624819 1.1233361 27.5
-2.6137805 -0.99546975 1.1420237 82.199997
-0.66846371 -1.03438 1.1389674 39.666668
-0.49254879 -0.97054452 1.1144398 36.400002
-0.37560314 -0.92850512 1.123216 40.200001
6.0251341 -0.91195649 1.0814682 27
10.996797 -0.991741 1.1590215 26
-2.671458 -0.84504098 1.1305693 80.666664
-0.2296076 -0.87039113 1.1023831 41.125
6.1958246 -0.84256583 1.1363358 29
-2.7285335 -0.70083046 1.1236544 12.666667
10.811509 -0.48837477 1.0748764 26
10.793718 -0.36998048 1.0573099 4
-0.020708036 1.3160112 1.1535701 27
0.015942674 1.2066089 1.0684947 31
-3.4837189 1.4095123 1.1872481 78
-0.068198696 1.436962 1.1222757 29
-3.2445724 1.6178448 1.1338651 77
-0.10741237 1.546963 1.1010039 28
-2.9194646 1.7366312 1.0948751 77.75
-2.8267195 1.7700268 1.1411419 74
-0.19688077 1.7851379 1.0941187 30
-2.3168559 1.9397331 1.1666923 150
-0.22702883 1.8856189 1.1994019 25
-1.7356765 2.173981 1.1801348 80
-1.1890513 2.3739154 1.1883768 78
-0.38771671 2.2607155 1.0506449 22
-1.0164405 2.4384444 1.147771 90
-0.4597947 2.4835396 1.1943524 21
9.5947294 2.9806886 1.0986006 35
7.0069866 -3.0920391 1.2071522 42
7.5210733 -2.8913717 1.3311592 42
7.7902031 -2.7903464 1.3142447 33
8.1912785 -2.6433053 1.2781761 35
-2.4156861 -1.5261065 1.2982121 72
-2.3205712 -1.6209177 1.2587692 49.5
5.9999089 -1.5323292 1.2419746 58
-2.471252 -1.3834701 1.2677197 74.5
-1.9295274 -1.4980128 1.2670903 26
-1.7222897 -1.4235753 1.3346605 25
5.9503527 -1.414713 1.2383015 55
-2.511308 -1.271953 1.2529219 47.666668
-1.5060347 -1.3469405 1.2947786 26
-1.4532113 -1.3234258 1.2868345 30.5
-1.2800269 -1.2579324 1.2890794 28
-1.1438674 -1.2078578 1.3399518 34
-2.5734899 -1.1069479 1.2409075 76
-2.5462537 -1.1661792 1.2644017 74
-1.0855123 -1.1892127 1.2950424 32
-0.88918734 -1.1158366 1.2548265 25.5
-0.72664553 -1.0633558 1.2430352 32
5.8684058 -1.1994525 1.2726291 66
-2.6199753 -0.96482956 1.2642169 75.5
-0.52285916 -0.97751456 1.2947212 33.5
-0.37612921 -0.92468393 1.2286235 29.6
5.9202471 -0.94665337 1.3416783 27
6.008574 -0.9180153 1.2285318 27
-2.6697905 -0.83385068 1.2840831 51
-0.25259683 -0.87794656 1.2492305 30.333334
10.666699 -0.017999928 1.3160137 25
10.505912 0.51861399 1.2841502 3
14.330755 0.93290877 1.3132681 49
-3.3902121 1.1658361 1.31697 77.5
-0.0088104485 1.2901602 1.234259 28.333334
-3.4974632 1.4609253 1.2895722 79
10.128545 1.3956724 1.3259033 1
-3.2417741 1.6147358 1.278517 79
-0.10393807 1.5496773 1.2520002 28
10.102069 1.5389153 1.2756382 18
13.693291 1.5680938 1.2650056 64
-3.1627395 1.6500887 1.2625794 80
-3.1064286 1.6677027 1.2977602 80.75
-2.8701794 1.7532814 1.2420363 82
-2.7854517 1.7855558 1.267445 76
-2.59269 1.860788 1.3161983 71.333336
-2.3760848 1.9393916 1.2536077 78
-0.22828293 1.8954947 1.2794858 25.5
9.9242744 1.9208921 1.3437759 22
-2.3473706 1.9527546 1.2724528 78.5
-2.0151899 2.0734522 1.2858416 71.666664
-0.25521839 1.9735365 1.3322167 22.5
9.9128275 2.0296845 1.3042903 28
-1.8362579 2.1372321 1.2790701 76
-1.7795095 2.1584463 1.2695725 71.5
9.0318565 2.1284697 1.2638457 2
-1.3907639 2.3067932 1.2498271 76
-1.3496448 2.319097 1.3180842 65
-1.1643803 2.3889701 1.2682163 70.75
-0.41616735 2.3774619 1.250785 22
-1.1115289 2.4069071 1.2715094 72.5
-0.98760331 2.452049 1.2138274 77
-0.45085263 2.4489748 1.2034968 23
-0.43567395 2.4223917 1.2123752 28
9.6952772 2.5034225 1.3499106 29
-0.65418917 2.5741293 1.3272994 71
6.7202115 -3.1737208 1.402675 4
7.0068188 -3.0997586 1.4121315 42
7.2679172 -3.0102448 1.3626339 45
7.5736117 -2.856189 1.3843895 36
8.2168694 -2.6250727 1.3792278 33
6.1121058 -1.7641369 1.3830897 0
-2.3836102 -1.5993972 1.4126017 65
-2.1331553 -1.5723943 1.3823971 25
-1.9903843 -1.5206646 1.4138325 23
5.9961782 -1.5337733 1.4026591 56
-2.4521363 -1.4122486 1.4219232 67.666664
-1.7512281 -1.4349598 1.4973342 24.5
-1.5951854 -1.3787557 1.4020417 26
-2.5034902 -1.2739413 1.4017076 69.5
-1.255373 -1.2515435 1.4240427 31
5.9033074 -1.2323561 1.4054364 55
-2.5551438 -1.1274806 1.4068714 69
-1.0687068 -1.1792152 1.4961901 27
-0.83748269 -1.0945493 1.4174768 32.166668
-2.6105556 -0.97631824 1.4178305 72
-0.67226666 -1.03141 1.4091368 29.5
-0.49584609 -0.9693839 1.4254363 29.5
-0.3912341 -0.92786586 1.4069114 23.200001
5.8235059 -1.0489547 1.415172 55
-2.6774983 -0.81621629 1.4348227 11.5
-0.3231023 -0.89875323 1.4084625 21
-0.24201401 -0.87029797 1.4082992 20
6.2340631 -0.82914639 1.4595469 30
10.408258 -0.81895655 1.4614545 7
6.5309277 -0.72195309 1.4473246 22
9.5656633 -0.60024881 1.4826496 12
-2.7655222 -0.5610435 1.4986899 10
10.868667 -0.57206464 1.378395 12
10.490766 -0.34940538 1.4661639 6
10.662138 -0.26593879 1.4350868 9
9.7291965 -0.089529954 1.4588679 11
10.495196 0.20295474 1.4214659 12
9.3279629 0.37180892 1.4892672 14
9.77812 0.43411946 1.4415921 15
10.52746 0.30238554 1.375373 12
9.1901093 0.80842257 1.48119 15
10.921626 0.79060447 1.4709219 4
14.359513 0.82723367 1.3762709 17
8.752696 0.92311746 1.4979635 20
9.6859922 0.95358092 1.4285181 12
11.060387 0.91710532 1.4505908 4
-3.3804364 1.1517725 1.462482 82
11.152461 1.1212491 1.3967645 7
13.748255 1.0731822 1.3555607 23
-3.4139431 1.2366474 1.459325 80
9.0150938 1.2276134 1.4814522 19
-3.4777427 1.4094621 1.3535022 80
-0.052020904 1.4310222 1.4194098 24.833334
8.6330318 1.3983814 1.4987788 19
9.4576225 1.4469233 1.419695 16
10.742217 1.3504319 1.4506789 4
-3.4862983 1.529954 1.4374861 81
-3.4406922 1.5514743 1.4639585 71
-0.10967223 1.5829964 1.3962029 25.5
8.7645254 1.6204658 1.4811776 18
-3.0738184 1.6789063 1.4057103 80.5
-2.9601493 1.7235796 1.4498138 77
-2.8078647 1.7785033 1.473258 78
-0.17556681 1.7836636 1.4267936 23
-0.14515917 1.6884915 1.3955672 19
8.3146954 1.7446525 1.4877763 24
9.9656324 1.793854 1.3609321 25
-2.5790017 1.8658946 1.4357016 74.25
8.4219332 1.8439933 1.4912751 21
9.0793562 1.89381 1.4101108 24
-2.2849443 1.9791708 1.3876204 75
-2.2307005 2.0009062 1.4638968 67
-1.9968835 2.0884297 1.4083204 73.666664
-0.28496242 2.0656054 1.406143 20.5
7.882966 2.0787177 1.4665337 24
8.4591494 1.9814752 1.485406 17
-1.9389569 2.1048586 1.4549661 76
-1.5634407 2.2429645 1.3885226 75
-0.31708306 2.156184 1.375497 23
8.1146212 2.2129247 1.4857494 23
-1.5147909 2.256377 1.4555904 70
-1.2993582 2.3403566 1.4061831 70
8.0322704 2.2858908 1.4751669 18
8.7001133 2.3061512 1.4234122 24
-0.81509608 2.5148702 1.4431313 75
7.5800695 2.4172702 1.4901783 24
7.6859965 2.5216105 1.4702884 20
9.6428652 2.4151855 1.3775697 21
-0.61436611 2.5924449 1.4315766 68
-0.55690694 2.6087337 1.4347055 65
7.6072068 2.5575728 1.4721061 24
8.2219982 2.6568646 1.4365003 23
9.1623249 2.8296733 1.4010463 21
9.3835478 2.7385812 1.4091902 22
9.3490925 2.9247682 1.3923661 17
6.513968 -3.1935546 1.606138 3
6.2503099 -2.9827523 1.6244583 41.5
6.9249783 -2.9673433 1.5693767 21
6.7231646 -2.8201251 1.5877391 24
6.7908735 -2.8103542 1.564317 33
7.2465439 -2.6466932 1.5327163 22.5
7.3511868 -2.6115196 1.5256646 29
7.3560691 -2.4883294 1.6362876 30
7.7669268 -2.4326861 1.5262514 27
7.8892794 -2.3928213 1.5344177 27
7.983345 -2.3789854 1.502479 29
-2.4068174 -1.5162814 1.6150528 59
-2.3959751 -1.5361977 1.569792 61
-2.2102823 -1.6000652 1.5656891 24
-2.0840206 -1.5527898 1.5920365 24
6.0173488 -1.5533564 1.5213346 55
-1.7039022 -1.4115751 1.6212336 24
-1.5668116 -1.3657072 1.6070086 22
-2.4708393 -1.336607 1.5990781 62
-1.2848032 -1.2627641 1.6143144 30.333334
5.9285851 -1.3428752 1.5826554 48
-2.5402856 -1.1594384 1.5723789 67
-1.050184 -1.1703055 1.5890514 23
-2.5908678 -1.0120218 1.5258615 66
-0.62953496 -1.0154666 1.5230842 30
-0.52564859 -0.97376984 1.5700525 26.6
-0.39615062 -0.92462164 1.6077251 15.666667
5.8330369 -1.0425038 1.5288742 63
5.8513098 -0.94425285 1.6182401 27
-2.6647515 -0.81811237 1.5704145 37.5
-0.31671259 -0.89276624 1.6231951 13
-0.26886937 -0.8817668 1.5970496 16.333334
6.2455096 -0.81661063 1.5833936 30
7.7544708 -0.77346081 1.5766087 23
8.5038309 -0.8296051 1.5542716 22
10.27095 -0.88351572 1.5015578 9
7.1137314 -0.61089408 1.6318809 22
8.4494991 -0.70729202 1.5625976 23
-2.7735031 -0.54804999 1.5514196 6
6.5767412 -0.54736203 1.6211175 27
7.2770557 -0.45174927 1.5933698 22
9.3942146 -0.53170544 1.5183624 11
6.1914444 -0.43731937 1.6438495 20
7.9020758 -0.39047205 1.5506409 22
8.6313496 -0.40410101 1.5215186 17
6.2192435 -0.16409653 1.6303128 22
6.6885967 -0.24368192 1.609254 24
7.2085323 -0.28685248 1.6005994 19
8.5444069 -0.29239535 1.5225266 17
5.6368985 -0.14958787 1.6459292 22
7.3669829 -0.10731091 1.5834156 25
9.4022608 -0.075757541 1.5029185 13
5.682168 0.094091706 1.6384758 18
6.2426648 0.11036351 1.6264914 27
6.7597265 0.070655145 1.600547 23
7.3116879 0.046855524 1.5865557 20
8.0207405 0.0076655997 1.5393007 24
8.7607746 0.082774773 1.5175889 15
-3.0617409 0.28057212 1.6298603 5
7.3993597 0.24327688 1.5770195 25
5.7352724 0.34316838 1.6436521 23
6.2163134 0.38283101 1.6182175 21
6.7889185 0.39016989 1.5960147 22
7.3774776 0.38984376 1.5750744 20
8.0333071 0.41271114 1.5235921 24
5.7185426 0.59186482 1.6368996 23
7.3297644 0.58978128 1.5596945 23
8.8155365 0.52734298 1.5095923 14.5
6.1657186 0.65199775 1.6144651 25
6.7337966 0.70613772 1.5827662 24
7.3824053 0.73979819 1.5623089 21
5.6718135 0.84009773 1.6311446 26
7.9681158 0.81357956 1.5116024 24
-3.3196616 1.0011845 1.5828246 80.599998
-3.2943797 0.91749048 1.5611968 82
6.0742559 0.91240579 1.6092505 28
6.6567569 1.0189667 1.5797099 24
7.2755651 0.93513459 1.5634785 26
8.7809706 1.0149529 1.5072589 17
5.5924125 1.0828103 1.6258513 26
5.9575872 1.1644504 1.6069952 27
7.4076028 1.0975368 1.570865 22
-3.4224117 1.279958 1.5990173 73.75
5.4711189 1.3137766 1.6175236 26
6.5118146 1.3156239 1.5734372 32
7.1188231 1.2604122 1.5573004 24
7.8308039 1.2023885 1.5047822 24
-3.5108576 1.4951409 1.5226729 89
-0.035708178 1.3934202 1.5178484 22
5.803268 1.399774 1.6027716 28
7.2891521 1.4394469 1.5584228 23
-3.4740827 1.5419371 1.6488363 84
-3.3734918 1.5787888 1.5779617 72
5.3476539 1.539912 1.6189399 25
5.6384058 1.6240655 1.6043104 28
6.3104067 1.5903195 1.5652645 31
6.9168096 1.5669661 1.5539415 26
7.663579 1.5770125 1.5122905 25
-3.0773561 1.6757239 1.5246363 75
-2.8672793 1.7598815 1.5858165 79
-2.8070924 1.7830334 1.5678474 77
-0.17325288 1.788519 1.5648235 25
-0.13882689 1.6835543 1.5463693 24
5.1406507 1.7362007 1.6011796 15
7.2107892 1.7885811 1.5726757 25
-2.48559 1.9062365 1.6073669 73
5.4379363 1.8287306 1.6027055 27
6.1021996 1.8511477 1.5688179 31
6.6704783 1.8487998 1.5530404 34
7.4378014 1.9267694 1.5239985 44
-2.1721895 2.0222766 1.572654 72.800003
-2.0584309 2.0613174 1.5063442 76
6.9377012 2.0847268 1.5516998 25
-1.7228932 2.1926618 1.5827014 73
-0.3313112 2.2183383 1.6224916 22.5
6.3879566 2.1020482 1.5544302 33
7.0382237 2.2101789 1.511554 24
-1.5166196 2.2658892 1.6011853 71
-1.44821 2.2908299 1.54857 75.599998
-0.97912043 2.4619205 1.5748155 71
-0.77201796 2.5396364 1.5917705 62.666668
-0.74359614 2.5496347 1.5860415 68
-0.69197935 2.5702541 1.5568978 63.333332
-0.56416696 2.6176603 1.5561091 67
5.7629871 -2.7330487 1.7178282 19
6.2127104 -2.8405383 1.6917609 32
5.8265529 -2.6212907 1.7108251 30
6.1991529 -2.5791261 1.6894017 20
6.799284 -2.6976566 1.6698359 37
5.168252 -2.4413445 1.7165829 25
5.2792397 -2.5046964 1.7281123 26
6.2588592 -2.4615321 1.6893939 24
6.6937599 -2.4076645 1.6794664 20
5.504828 -2.2868619 1.697951 27
5.6927805 -2.3715034 1.70814 18
6.6968303 -2.2696087 1.6716481 24
4.7119341 -2.1891282 1.7183725 22
4.8759599 -2.1012416 1.7177562 24
5.2408767 -2.2183969 1.731027 25
5.8434882 -2.1082587 1.6829616 28
6.1110125 -2.2040904 1.6902088 20
7.1234412 -2.1747837 1.6520146 22
4.9812555 -2.0355201 1.7107574 23
5.1902022 -1.9584079 1.7085994 25
5.5428681 -2.0607147 1.7140087 27
6.4973426 -1.9903293 1.6647578 21
4.268168 -1.8735193 1.7375792 26
5.2320561 -1.8602831 1.7019686 24
5.8414307 -1.8790622 1.6972257 28
6.1464663 -1.894434 1.6616176 30
4.4789414 -1.7383004 1.724836 27
5.474966 -1.7250991 1.694733 26.5
-2.4052792 -1.5131146 1.7504827 56
-2.3737869 -1.6110927 1.7296025 59.5
-2.1716423 -1.5817523 1.7964817 22
4.7073779 -1.5956656 1.7254413 22
5.7433357 -1.581055 1.675634 28
6.037075 -1.6496594 1.6533686 45
-2.429842 -1.4523945 1.7026825 60
-1.825388 -1.4598622 1.6929154 23.5
-1.5825615 -1.3693237 1.7414716 20
4.8923454 -1.426923 1.7111808 23
5.6609716 -1.4451358 1.6809524 27
-2.4925809 -1.2793729 1.7297306 62.75
-1.4149832 -1.305624 1.72377 28.5
5.073081 -1.2461442 1.7015361 24
5.8264465 -1.209488 1.6672903 29
-2.5569797 -1.0959487 1.7196106 60
-1.0587924 -1.1776845 1.7543334 35
-0.96757334 -1.1402829 1.7148196 28.4
-0.79963213 -1.0750314 1.6987612 25
-2.6122348 -0.94691557 1.7435707 62.666668
-0.70601302 -1.0370222 1.7921757 31
-0.53807902 -0.9768039 1.7077484 23.5
-0.41230667 -0.94053322 1.6938125 17
5.2245083 -1.0489026 1.6884021 24
-2.6343117 -0.88545042 1.7239023 65
5.3750172 -0.84154022 1.6814159 25
-2.6926987 -0.73952067 1.697106 7
5.5028458 -0.6215452 1.6740061 26
6.1160536 -0.70648563 1.6548842 19
5.5956173 -0.39017853 1.6633068 26
-3.0702887 0.31217194 1.692083 6
-3.3143864 0.99010199 1.7192012 82
-0.34882411 1.0332409 1.7995251 57
-3.3451924 1.0724446 1.7585572 71
-3.442651 1.327116 1.7432941 72
-0.37465674 1.3489007 1.7974516 66
-0.1919823 1.328887 1.7976197 71
-3.4510279 1.3608162 1.7218097 76
-0.36950144 1.4528006 1.7966899 70
-0.24030614 1.4198313 1.7937979 72.199997
-0.11311344 1.4333935 1.7934246 71.333336
-3.3540964 1.5880828 1.7180659 72.5
-3.2301884 1.6284883 1.7113208 70
-0.36233929 1.5734967 1.7948791 73
-0.23985882 1.5680439 1.7898886 77
-0.088199653 1.5759224 1.7365351 27.4
-3.1022353 1.680236 1.7273065 72
-2.7983754 1.7873794 1.7063497 77.666664
-0.77155077 1.7688596 1.7964443 70
-0.69237971 1.7492871 1.7989155 70
-0.49589172 1.7266525 1.7901033 67
-0.37280229 1.7159525 1.7880899 68.5
-0.23782258 1.7318177 1.7823359 74.333336
-0.13094532 1.6931574 1.7311113 32
-2.4028494 1.9404776 1.7668971 74
-2.3956106 1.9430287 1.7233647 73
-0.64843386 1.8556892 1.7940532 68.333336
-0.52244949 1.9473952 1.7979084 54
-0.38966483 1.8551619 1.7743148 68
-0.20915422 1.8535048 1.7499897 52.599998
-2.3204589 1.9730657 1.6995506 72
-0.65279555 2.0520523 1.7895786 60
-0.5624637 2.0262787 1.7833102 62
-0.42583975 2.0847473 1.7819303 64
-0.27285382 1.9963051 1.7737726 67
-1.9152479 2.1212702 1.7550316 66.5
-1.6707644 2.2108989 1.7352973 70
-1.6182312 2.2301855 1.7304612 59
-0.72677118 2.1068318 1.7902099 62
-0.49325815 2.1909285 1.7766738 57.75
-0.38935867 2.2072458 1.7642292 45.666668
-1.565999 2.2539082 1.6697122 74
-0.99080133 2.3425248 1.7975603 61.400002
-0.603764 2.2807455 1.7790774 61
-0.38266835 2.3344452 1.7646586 53.333332
-1.1171228 2.4129343 1.7532157 64
-0.93412566 2.4791026 1.7175174 59.5
-0.8720805 2.5031686 1.7424198 60.200001
-0.46681696 2.469053 1.7753283 62
-0.70282942 2.5648565 1.675613 63
-2.3951037 -1.5215603 1.8685557 52
-2.1543267 -1.5468879 1.9364854 65.5
-1.9686699 -1.5070993 1.8427821 26
-2.4381993 -1.3957303 1.8327712 53
-2.3530614 -1.4498963 1.9386612 56
-2.0215011 -1.4194371 1.9302937 63
-1.8338196 -1.3727585 1.9189373 67
-1.5950443 -1.3797448 1.8812279 27
-2.4642913 -1.2400812 1.9091331 60.333332
-2.2526989 -1.3491617 1.9376081 65
-2.1510289 -1.2739699 1.9263756 62
-2.0323091 -1.2806768 1.9263078 60
-1.7118311 -1.2547698 1.9138844 63.5
-1.5558792 -1.2653729 1.9067026 73.333336
-1.4534416 -1.257211 1.9067428 69.5
-1.306022 -1.2611712 1.8962077 55
-2.551405 -1.0923191 1.8865064 63.5
-2.2940359 -1.132013 1.927862 56
-2.1694105 -1.0903431 1.9242768 63.333332
-2.047056 -1.1843411 1.928634 62
-1.8583949 -1.1407362 1.930644 43
-1.650004 -1.0529529 1.9078189 71
-1.5630426 -1.1050787 1.9071302 68.666664
-1.4215696 -1.0934649 1.9059677 69
-1.2358541 -1.195874 1.8983012 81
-1.1296604 -1.1092525 1.8954821 81
-0.99537557 -1.0748211 1.8915445 86.666664
-0.77599978 -1.0648626 1.8082198 35
-0.73005712 -1.0540239 1.8343111 30
-2.5965946 -0.95246732 1.9116814 64
-2.4429772 -0.99335593 1.9321998 61
-2.1463206 -0.92822206 1.9178818 60
-2.0393105 -0.9993459 1.9192897 63.5
-1.8959473 -0.93975425 1.9127307 67
-1.7224761 -1.0440214 1.9072164 69
-1.5790832 -0.9363659 1.9081312 73.5
-1.4309175 -0.93274438 1.9097725 71
-1.2448512 -0.99954247 1.898604 77.666664
-1.1249077 -0.95453078 1.8943992 84
-1.0245614 -0.93311536 1.8991355 82
-0.82324553 -0.9761591 1.8824348 95.5
-0.66721344 -0.9641065 1.8631388 77.714287
-0.5363521 -0.9535327 1.853705 55.799999
-0.39026523 -0.91822314 1.8386616 40.25
-2.6149933 -0.80331582 1.8997117 66
-2.4816725 -0.7728883 1.9324521 59
-2.2320518 -0.86387801 1.9182498 63
-2.0348947 -0.79514498 1.9170347 66.666664
-1.7145559 -0.8596037 1.9044138 70.333336
-1.5509204 -0.76179767 1.9003658 70
-1.474177 -0.76465732 1.9006039 71
-1.293506 -0.8513034 1.8982263 75.666664
-1.1267922 -0.80923146 1.8954964 87.199997
-0.93744749 -0.83054233 1.8894454 92.666664
-0.8111856 -0.83081371 1.8851527 97.333336
-0.66901124 -0.81624657 1.8706237 78.888885
-0.51634562 -0.83898646 1.864338 70.75
-0.39814883 -0.82687408 1.8587013 60
-0.26616818 -0.83502209 1.8412617 40.5
-2.7000477 -0.70242381 1.8166355 3
-2.6807644 -0.69537508 1.9309467 8
-2.3023005 -0.68302935 1.9189891 68.333336
-2.1749375 -0.72762418 1.9181916 67
-2.0441182 -0.64529014 1.9190286 70
-1.8504128 -0.71500301 1.907156 68
-1.723482 -0.68666935 1.9000696 72.5
-1.5680438 -0.64878029 1.9008602 70
-1.3918872 -0.73434502 1.8968581 73
-1.2661507 -0.68694258 1.8940141 82.5
-1.1166798 -0.66442686 1.8887907 85.333336
-0.96866518 -0.63834196 1.8752412 84
-0.83817071 -0.69483167 1.8747143 84.333336
-0.68645531 -0.65841907 1.8679184 79.85714
-0.52522856 -0.67567891 1.8628403 77.375
-0.38795012 -0.69744676 1.8563197 65.75
-2.4033561 -0.51484168 1.9167107 74
-2.2919011 -0.46639502 1.9109951 71.5
-2.1519628 -0.56228757 1.9124357 66
-2.0333533 -0.5195303 1.9125721 68.5
-1.885042 -0.53854549 1.9054044 68.5
-1.7298831 -0.53622943 1.9015664 73.666664
-1.5811023 -0.53024828 1.9014487 68
-1.430485 -0.58193207 1.8971673 71
-1.2979143 -0.54677624 1.8896744 83
-1.119437 -0.52101612 1.8789234 76
-0.96795988 -0.48254514 1.8717607 78.333336
-0.8227421 -0.52104318 1.8699164 75.888885
-0.68953156 -0.51730394 1.8625467 76.5
-0.53174895 -0.52793592 1.8585495 77.666664
-0.40159172 -0.50936437 1.8523016 75
-2.4296315 -0.31229794 1.9123274 66
-2.1651797 -0.37103775 1.908226 73.5
-1.9951433 -0.37185878 1.9041481 52
-1.8720571 -0.35932991 1.9017991 77
-1.751976 -0.3703289 1.8969733 78.333336
-1.5747805 -0.39666307 1.8936658 75
-1.3977894 -0.40977442 1.8902687 88
-1.2979932 -0.37681594 1.8868512 90
-1.1408259 -0.38950899 1.8713697 70.5
-0.97043818 -0.36468333 1.8672422 76
-0.81799316 -0.36806518 1.8812751 69.875
-0.66925877 -0.37039438 1.9086396 106.33334
-0.53237194 -0.38077247 1.8922269 67
-0.43793571 -0.38847196 1.8493475 75
-2.3179777 -0.26925254 1.911226 40
-1.708493 -0.23802668 1.8960878 85
-1.5893064 -0.24254887 1.892965 79.666664
-1.4202534 -0.26316178 1.8878735 86.666664
-1.2646718 -0.21480437 1.8783439 86.25
-1.1251267 -0.22956546 1.8700756 76.599998
-0.95596182 -0.23103747 1.8618309 76.199997
-0.84416825 -0.21032095 1.8922123 73.714287
-0.67590803 -0.22343612 1.9422241 148
-0.5742169 -0.2832365 1.9452169 150
-1.7142981 -0.074235231 1.8896016 82
-1.5727954 -0.097374387 1.8878509 82
-1.399861 -0.085358299 1.902156 67
-1.2404996 -0.080729902 1.870133 86.666664
-1.0950445 -0.06526304 1.863222 78
-0.96640986 -0.08095213 1.8654128 88.333336
-0.81632519 -0.071949214 1.900728 95.333336
-0.67876536 -0.062544912 1.9280281 143.66667
-0.54020429 -0.038968768 1.9282085 151.5
-2.3799689 0.090605311 1.9039756 79
-1.7117901 0.08674103 1.8792742 78
-1.5758896 0.054758716 1.882285 82.25
-1.4168825 0.078596383 1.8859102 83
-1.2436761 0.052175451 1.8656216 88
-1.1081266 0.075787686 1.8597193 81
-0.96481341 0.074832439 1.8547958 78.75
-0.8320334 0.078630961 1.8477435 79
-0.67792773 0.069845527 1.8576825 84.199997
-0.52907771 0.061345894 1.8603643 106.66666
-2.3568416 0.22558548 1.9001663 77.5
-2.2140827 0.24744746 1.8904012 76
-2.0344942 0.20173502 1.8887159 78.333336
-1.8617753 0.29066437 1.8826774 82
-1.7503067 0.20708364 1.8786105 82.5
-1.5755241 0.20784113 1.8798518 85.5
-1.406382 0.24857326 1.8713026 94
-1.2546592 0.21220988 1.8642449 89.25
-1.0931852 0.22763562 1.8545828 79
-0.97062236 0.21607447 1.8520055 74.333336
-0.82133883 0.23004375 1.8428952 80
-0.67429572 0.21637861 1.8405625 78.285713
-0.53603035 0.20967951 1.8333582 80.75
-2.3081698 0.37082586 1.8892127 84
-2.1641364 0.38280189 1.8871942 80
-2.0331194 0.38545939 1.8862275 78.666664
-1.9293245 0.32951364 1.881745 82
-1.7441301 0.37617591 1.8762941 80
-1.5671579 0.36084318 1.8724381 83.25
-1.4040908 0.39457783 1.8677521 92.333336
-1.2446337 0.37170243 1.856264 84
-1.1106919 0.37859774 1.8512319 74
-0.97117496 0.35633764 1.8496078 75
-0.81024098 0.38591105 1.8381724 78.666664
-0.66510051 0.37414706 1.833384 76.166664
-0.52201575 0.37945038 1.8325982 77
-2.8201261 0.57128268 1.9083499 68
-2.6049619 0.5165506 1.900239 77
-2.4499536 0.49930006 1.8916973 81
-2.2978284 0.57988805 1.8803905 76
-2.1107008 0.5062533 1.8857602 81
-2.0222197 0.5698638 1.8782257 83.333336
-1.8993068 0.48345298 1.8762227 80.5
-1.7272373 0.54583216 1.8684951 83
-1.550293 0.51339465 1.8597611 78.5
-1.396759 0.54333985 1.864118 89.666664
-1.2310133 0.51150173 1.8558812 91
-1.126438 0.53228551 1.8513921 80
-0.9628042 0.51882905 1.8418678 73
-0.81526881 0.53453153 1.8355014 77
-0.68453902 0.5408631 1.8298851 75.125
-0.53681302 0.52283806 1.8251677 79.599998
-3.1025453 0.63657695 1.901247 1
-2.996037 0.62036073 1.9099027 75
-2.617403 0.64116406 1.899848 79.5
-2.4588723 0.70963162 1.8868796 79.5
-2.1917055 0.64069533 1.8772613 83
-2.0224438 0.72541696 1.8756032 83.333336
-1.8975821 0.66039699 1.8696411 85.5
-1.7538694 0.69081324 1.8643745 86
-1.5506314 0.6642487 1.8640194 86.333336
-1.4374739 0.7044279 1.8608694 83.666664
-1.2804615 0.68330932 1.8552674 88.5
-1.1252931 0.68959749 1.8512375 93.599998
-0.97344285 0.66635305 1.8397464 77.666664
-0.80512106 0.69171655 1.8329083 74.199997
-0.69515437 0.68615842 1.8275536 75.625
-0.52323151 0.67215168 1.8181881 80.800003
-0.44103575 0.69205886 1.8153163 88
-3.1614711 0.89413559 1.9277388 9
-3.0707307 0.88455278 1.9145099 48.5
-2.935909 0.76286006 1.887632 1
-2.8037994 0.80838805 1.8960418 71
-2.6391096 0.79964858 1.895853 74.333336
-2.5359862 0.87405449 1.893849 85
-2.2873032 0.79513985 1.8794852 75
-2.1765895 0.8419975 1.8764073 74
-2.0583415 0.83307272 1.8694806 78
-1.8919606 0.84294975 1.8645737 86
-1.7155421 0.82173705 1.8975315 71.5
-1.5521752 0.8339572 1.8609072 83
-1.4407716 0.82568151 1.8577129 83
-1.2978717 0.81196678 1.8508486 86
-1.1271482 0.85567135 1.8446521 91.25
-0.98893714 0.81368589 1.8399639 84
-0.80987459 0.82244521 1.8270773 74.75
-0.65877056 0.82444334 1.825206 73.375
-0.50705832 0.82125247 1.8178474 79.25
-0.40797615 0.83890229 1.8138723 78
-2.9417877 1.0289953 1.892794 80
-2.6156468 1.0176792 1.8890449 74
-2.4662638 0.92858738 1.8854945 80
-2.2624695 1.0124131 1.8697201 74
-2.1471372 1.0443118 1.8642141 70
-1.987188 0.94800216 1.8666583 79.333336
-1.8593472 0.99646986 1.8604037 80
-1.554263 0.96849519 1.8515075 82.333336
-1.4133217 0.96142429 1.8495657 86
-1.2610755 0.96656066 1.8467125 84
-1.1060181 1.0093879 1.8420383 82.333336
-0.97321111 0.96105939 1.84 89.666664
-0.81126833 0.96262598 1.8324243 87
-0.67521679 0.95995933 1.8227937 78.666664
-0.5334819 0.98402488 1.8157148 75.428574
-0.38242331 0.98758858 1.8082887 64.333336
-3.3512368 1.102471 1.8077074 72
-3.2733517 1.1673808 1.9031503 77
-3.0889595 1.1384864 1.8977361 78.666664
-2.7914412 1.052588 1.8906554 69
-2.652122 1.0700121 1.8896731 78
-2.4811726 1.1318241 1.8812715 78.666664
-2.0188918 1.1336255 1.8587978 76.5
-1.9084227 1.1226405 1.860791 79
-1.6923141 1.054684 1.8519648 82
-1.5896381 1.083304 1.8450252 77
-1.4257294 1.1128243 1.8458618 82.5
-1.2702876 1.1337404 1.841424 77.5
-1.1141355 1.1348976 1.8361977 77
-0.970074 1.1313561 1.8340917 81.5
-0.82624251 1.104628 1.8285197 87.333336
-0.66838568 1.1282147 1.8256254 87.666664
-0.53564858 1.1316121 1.8153899 76.714287
-0.35447541 1.1265544 1.8063596 71.599998
-0.25828159 1.1728941 1.8045324 70
-3.3914752 1.2127261 1.9038099 89
-2.927335 1.299192 1.8852221 84
-2.7739379 1.3058554 1.8841239 79
-2.6115367 1.2776872 1.8824587 74.666664
-2.4870193 1.3047432 1.8782543 78
-2.1739635 1.2443262 1.8599246 73
-2.0066297 1.2666796 1.8566338 76
-1.8988451 1.2949978 1.8531395 76.666664
-1.5980959 1.2501285 1.841882 84
-1.4007194 1.2649148 1.839448 80.199997
-1.2941201 1.3125757 1.834365 80
-1.1083277 1.2794268 1.8304162 76.5
-0.97110057 1.2787148 1.8263955 75.666664
-0.84308541 1.2777363 1.8250657 74.25
-0.67354131 1.2697206 1.8148848 68.5
-0.52287596 1.2675605 1.8127682 67.25
-0.3725383 1.2788388 1.802687 67.166664
-0.22684333 1.2554252 1.8049455 63.5
-3.4685946 1.4221604 1.851071 76.5
-3.2378762 1.4491549 1.8988606 84.333336
-3.0645795 1.3962847 1.8906673 81
-2.4892848 1.4233021 1.8735062 73
-2.2011583 1.4704665 1.8608626 78
-2.0045178 1.4517971 1.8523508 69.333336
-1.8454069 1.4435209 1.8480703 78.333336
-1.6011864 1.4371207 1.8418187 80
-1.4369704 1.4247025 1.8343736 71.333336
-1.3005059 1.4559835 1.8297954 73.75
-1.0931373 1.4391612 1.8265785 78
-0.93392992 1.4251654 1.8215414 71.75
-0.8206768 1.3991426 1.8183975 75.333336
-0.64819956 1.412122 1.8108394 70
-0.54334009 1.4286357 1.8097308 73.25
-0.41262189 1.4212548 1.8046318 66
-3.399107 1.5257621 1.9051281 85
-2.9051695 1.5774643 1.8749486 82
-2.7449458 1.5641837 1.871478 83
-2.6083622 1.5486683 1.8744494 76.5
-2.4392009 1.5648737 1.8656987 76
-1.8701984 1.598248 1.8475419 76.333336
-1.5439068 1.6398387 1.8410524 42
-1.4001262 1.6055316 1.8338573 43.5
-1.289216 1.6063372 1.8362373 37.333332
-0.97199231 1.5910536 1.816106 68
-0.80309027 1.5568801 1.8129448 70.166664
-0.5224207 1.5878936 1.801734 71.333336
-0.4460991 1.5174085 1.8023367 78
-3.1545994 1.6549118 1.8012937 75
-3.0757649 1.6775236 1.8669128 81.666664
-2.5631936 1.7982153 1.8603565 85
-2.4718406 1.7305127 1.8634257 76
-2.1537907 1.7091228 1.8492759 73
-2.0342238 1.6981863 1.8484856 70
-1.8474933 1.7031527 1.841524 77.75
-1.2464345 1.7235372 1.8235816 45.25
-1.1819868 1.7605145 1.8163217 60
-0.93335485 1.768672 1.8112887 65
-0.79258984 1.7062107 1.8071851 64
-0.6925137 1.6599689 1.8044667 66.5
-2.6383166 1.8207791 1.8544157 81.5
-2.4218404 1.8932812 1.8456339 79
-1.9796985 1.9330567 1.8408302 69
-1.8742511 1.888654 1.8458982 65.5
-1.7670174 1.8717833 1.8368791 78
-1.4201236 1.8307502 1.829311 43
-1.2439456 1.830457 1.8226675 54.5
-1.1292472 1.8991752 1.8117638 63
-0.79580176 1.9163382 1.8019203 61.5
-2.334693 1.9700019 1.8047429 66
-2.0974874 1.9579667 1.8388656 74
-1.7359501 2.0522637 1.8311034 74
-1.383613 2.0481346 1.8155187 67
-1.2343444 1.9815331 1.8137069 67.333336
-1.1162286 2.0332005 1.8079028 66.666664
-1.8049036 2.1150007 1.8284216 77.5
-1.7211574 2.1614316 1.8240789 78
-1.1256917 2.1812387 1.8069345 58.5
-1.0399514 2.1383662 1.831369 25
-1.2883242 2.2706912 1.8092531 66
-1.0428532 2.2714529 1.8036686 64
-2.3611896 -0.93537951 1.9524459 33
-0.7934643 -0.26094085 1.9581184 150.5
-0.51626873 -0.19517684 1.987624 151.33333
-0.66106457 -0.13521731 1.9564222 156
-0.58538568 -0.10073987 2.0514975 150
