# .PCD v0.7 - Point Cloud Data file format
VERSION 0.7
FIELDS x y z intensity
SIZE 4 4 4 4
TYPE F F F F
COUNT 1 1 1 1
WIDTH 1977
HEIGHT 1
VIEWPOINT 0 0 0 1 0 0 0
POINTS 1977
DATA ascii
-0.75174242 -4.5049 -0.16018564 77
-0.63692319 -4.606463 -0.19185458 72
-0.13027844 -3.9472606 -0.15700378 26
2.4508379 -3.3679307 -0.1799856 88
2.599488 -3.2908247 -0.16969736 98
-0.33394086 -3.0296011 -0.19365038 4
-0.30482951 -2.9622681 -0.15138647 3
-0.40318751 -2.8175907 -0.18481244 3
-0.22495943 -2.7586048 -0.15480489 5
0.16092481 -2.5712245 -0.15924162 3
3.278234 -2.5544009 -0.19740511 107
0.26345861 -2.4638119 -0.19544677 4
3.4016836 -2.4157488 -0.16006549 109
2.9824476 -1.8640604 -0.16578992 5
2.5321887 -1.4565164 -0.19291948 7
1.5896103 -0.60872644 -0.17304839 32
1.4370028 -0.46678853 -0.15786807 35
1.5246714 -0.55027807 -0.1690757 30
1.4719677 -0.37346098 -0.17666425 63
1.5003158 -0.32650504 -0.16178016 56
1.5853529 -0.23508316 -0.18792824 63.333332
1.7146536 -0.086073086 -0.18770142 60.5
0.83681017 0.10977616 -0.18275662 9.5
1.5626137 0.022570813 -0.15381028 152
1.8670957 0.084406994 -0.19303568 59
0.87933463 0.16175999 -0.17404966 8.333333
0.95682162 0.24972109 -0.17110658 7.5999999
1.0777792 0.37924978 -0.17567031 8
1.1603053 0.48450539 -0.15227945 31
1.2306476 0.55320853 -0.17942214 20.5
-0.75009936 0.73637861 -0.15515634 17
1.2805243 0.6119346 -0.19545354 36
1.3921034 0.73341036 -0.15062329 26
-0.662211 0.84695971 -0.17403148 13
1.4307325 0.78537005 -0.16024108 33
1.53128 0.88796687 -0.18435657 28
-0.61602163 0.90476483 -0.16648397 17
-0.51416516 1.0068011 -0.17063665 12.222222
-0.45667481 1.079113 -0.19349882 10.5
-0.40712759 1.1423572 -0.17597049 9.666667
-0.30485523 1.249653 -0.16616829 10
-0.25795317 1.300495 -0.17566824 9
-0.16051033 1.4034083 -0.18706389 10
-0.12634617 1.4361279 -0.16360931 9
0.048520654 1.6124978 -0.18337913 47
2.6424091 2.107486 -0.16860858 97
2.8062513 2.4657083 -0.19986957 90
2.5505323 2.6863992 -0.19006568 150
2.4419794 2.7883024 -0.17734545 150
1.7670953 2.9338877 -0.15149307 102
2.3430874 2.8842068 -0.17382833 150
1.5396937 3.0969141 -0.18874745 0
1.3124515 3.3800387 -0.18633391 5
1.2525154 3.4805353 -0.1508078 5
1.4576234 3.7711103 -0.19873811 24
-0.57634842 -4.6660786 -0.13493709 55
-0.69112557 -4.5579743 -0.086003773 75
-0.59553277 -4.6403513 -0.07370133 74
-0.82365739 -4.4321337 -0.053335749 73
0.24396022 -4.4315505 -0.11696602 31
0.31626403 -4.4373341 -0.093125619 36
-0.99268407 -4.2800274 -0.017784035 86
-0.1189809 -3.9365609 -0.13979335 32
0.10050504 -4.0331478 -0.12363652 23
-0.017608363 -3.8824515 -0.13157135 14
2.3342714 -3.5540488 -0.06106418 13.666667
2.4358642 -3.4694164 -0.031428549 18
1.9241645 -3.3605022 -0.067056395 0
2.1298046 -3.3877456 -0.061570082 13
2.5510182 -3.3394105 -0.013926809 95
2.6986074 -3.159903 -0.14006992 150
-0.47013736 -2.9300995 -0.038028363 3
-0.41396755 -2.9381654 -0.069910355 5
-0.26253694 -2.7482936 -0.093250073 5
3.0966215 -2.7376227 -0.071257778 105
1.6402162 -2.6071877 -0.13650514 0
3.208457 -2.6229768 -0.026585255 115.5
0.31718385 -2.4105546 -0.032699827 6
3.3725853 -2.4398258 -0.077191792 102
0.23036833 -2.3473992 -0.0073067592 0
0.33934653 -2.3991699 -0.09385515 4
1.2484467 -2.3070414 -0.093485124 5
3.4194071 -2.379313 -0.03702018 89
1.0448232 -2.1138325 -0.086843617 2
1.1421372 -2.1995006 -0.091126986 0
0.91856027 -1.9709716 -0.069181018 2
3.1488752 -2.0167606 -0.13789274 11
3.167851 -2.0264606 -0.089167334 12
0.71010661 -1.8171922 -0.058291115 3
0.78585362 -1.8774281 -0.081475943 3
2.8067939 -1.8984354 -0.012561743 0
0.55791074 -1.6736696 -0.040986631 2
0.63477039 -1.7445614 -0.085999079 3
2.8250513 -1.6980947 -0.093781747 0
0.40066475 -1.5326124 -0.070465453 3
0.48652276 -1.6076895 -0.049666524 3.75
0.2191207 -1.3555793 -0.059134725 3
0.35630172 -1.4848677 -0.023972785 3
0.046769302 -1.2220309 -0.13113064 5
0.20375176 -1.3438896 -0.0071486579 4
2.1636307 -1.0806847 -0.086967804 5
1.8743594 -0.91633689 -0.048150335 4
2.0601821 -0.97384524 -0.024484653 4.5
2.4953098 -1.0151608 -0.07452894 57.5
1.8662436 -0.82686514 -0.10742322 0
-0.61074793 -0.67648399 -0.096876577 0
1.6027827 -0.61679983 -0.061230466 26
1.6938678 -0.69148713 -0.051129881 22
-0.77168846 -0.53174174 -0.050498322 1
1.4536724 -0.48182261 -0.071678951 33.666668
1.5224118 -0.54549313 -0.057749324 16.5
1.4456038 -0.38009599 -0.087954119 61.25
1.1400599 -0.19789816 -0.036407899 10.25
1.2301342 -0.27754271 -0.038198594 19.5
1.363553 -0.21771741 -0.045558933 31
1.5779183 -0.22902778 -0.094782129 63.299999
0.98476756 -0.051659126 -0.05170729 2.8
1.093909 -0.069341995 -0.054761816 10.2
1.2378141 -0.072895736 -0.057379652 11.5
1.481807 -0.047364164 -0.074194849 43.5
1.5795059 -0.080119953 -0.11309242 77.800003
0.84619939 0.093135178 -0.077844128 5
0.92122966 0.0067064175 -0.058184482 6
1.1108699 0.057871625 -0.064955398 5.5
1.2927585 0.047549289 -0.056663159 1
1.4148679 0.067183338 -0.10759667 53.75
1.7511394 0.11693776 -0.14209567 150
0.88253802 0.17260958 -0.080756553 6.2857141
0.95114654 0.24535581 -0.09006948 6.1428571
1.0202441 0.32245281 -0.099429786 6.75
1.0968069 0.40186611 -0.079044275 4.8333335
-0.90660787 0.56553912 -0.05272365 16
-0.89902741 0.57786989 -0.052986272 12.5
1.1783751 0.50258344 -0.099633045 14.666667
1.2326345 0.55051959 -0.049120609 0
-0.81087923 0.67801833 -0.081162505 12.777778
-0.74573928 0.73923707 -0.085622914 8.5
1.300011 0.63702828 -0.1157544 32
-0.7584852 0.76116645 -0.10597251 10
-0.68725967 0.81861132 -0.10188138 11
1.4196608 0.78093123 -0.070201315 16
1.5221953 0.88312465 -0.095597304 34
-0.6140362 0.91338205 -0.10488448 9
-0.55081934 0.97344667 -0.10745867 9.909091
1.5753028 0.9604128 -0.10646231 13
-0.50629616 1.0782692 -0.03188074 5
-0.40898821 1.1395848 -0.084890932 8.4444447
-0.31894621 1.233357 -0.11672068 9.333333
-0.2570281 1.2906283 -0.098295093 7.4000001
-0.169121 1.3938975 -0.10310907 6
-0.10240243 1.4623575 -0.093492374 7.5
-0.024242273 1.5413979 -0.081516825 28.333334
0.11208359 1.6919699 -0.074239224 25
0.20075788 1.7886482 -0.058898393 29
0.26015636 1.8626841 -0.094954275 52.5
0.3401109 1.9273478 -0.1233595 20.5
2.9080322 1.846534 -0.044156842 37
2.7673476 1.9896746 -0.10943026 106
3.248522 2.045182 -0.14863476 113
2.6377542 2.1308453 -0.048804734 6
2.5272865 2.2694964 -0.09559352 150
2.0663397 2.6382515 -0.11035193 93
2.5604117 2.5528502 -0.11517081 150
2.0350761 2.7289097 -0.09696243 11
2.3005445 2.7575014 -0.11487407 86
2.4456875 2.7527859 -0.12629005 150
2.3372149 3.1460176 -0.0037241327 101
1.3493379 3.2927697 -0.12613645 4
1.4048411 3.2341731 -0.033677272 11.5
2.3043079 3.186317 -0.051044349 23
1.8630304 3.4481125 -0.014917706 11
2.2737126 6.9519181 -0.12962016 36
0.049351107 -5.2359405 0.12710059 12
-0.66318494 -4.5793376 0.072143205 65
-1.2799124 -4.3596983 0.14470226 59
-0.9184441 -4.3529224 0.071257077 79
-0.86411071 -4.3979416 0.049057994 78.5
0.29810923 -4.4679184 0.031779196 21
-0.97561342 -4.2923617 0.087621517 83
-1.1081511 -4.1831546 0.1064209 38
-0.13449112 -3.929569 0.017746354 14
2.4029281 -3.523737 0.12090813 1
0.091969654 -3.1793442 0.0020985557 10
2.0089316 -3.281482 0.070602797 7
-0.43739972 -3.0519114 0.045278486 4
-0.34647492 -2.8556192 0.027435983 3
2.926405 -2.9214139 0.062021758 109
2.3755677 -2.7190347 0.13780683 94
3.0454724 -2.7893238 0.10228696 112.66666
3.2227194 -2.5931873 0.061128832 106.5
0.35121572 -2.4137397 0.0086098565 7
3.3730416 -2.4268706 0.014767493 101
0.28012326 -2.3785217 0.079731621 5.6666665
0.30212271 -2.398365 0.034750964 6
0.64030385 -1.7475076 0.028246742 3
2.6978323 -1.7258525 0.14448589 0
0.43040973 -1.5563083 0.039534207 3.5
0.27441829 -1.4058828 0.031032527 0
2.4624832 -1.3962864 0.018480117 10
0.034703564 -1.2357064 0.0015485239 2
1.8849783 -1.0607173 0.0096394373 2
1.9902344 -1.1104844 0.055966921 2
1.7726749 -0.91440845 0.10325532 1.5
1.9118892 -0.98075938 0.037669253 3
1.8762481 -0.87755895 0.020678991 0
1.6277339 -0.65148062 0.0099354042 0
-0.78116071 -0.53489953 0.028628374 0
-0.94705743 -0.31193757 0.091973998 3
-1.0594037 -0.16323999 0.14384347 0
-1.0043898 -0.20391056 0.10615625 0.40000001
-1.0764273 -0.092791893 0.144728 0
-1.0110667 -0.044725958 0.10209005 0
-0.95262772 0.027145011 0.088259242 0
-1.2371404 0.39220756 0.13886383 10
1.3454046 0.42352027 0.070004083 2.75
1.4374975 0.367939 0.10155058 2.75
1.3217857 0.45703822 0.14034623 2
-1.2292256 0.66835737 0.11385623 10.5
-1.2347661 0.79186541 0.11696637 15
-1.1771088 0.87869477 0.1298998 13
-1.0112621 0.88777465 0.063247554 14
1.7902963 0.87422299 0.066839375 8
1.8440198 0.84171301 0.10867345 5.6666665
-1.0950011 0.97225267 0.12631772 13
-0.99665153 0.98161888 0.083541565 14
-0.96904659 1.1033313 0.11385583 10
-0.87704819 1.1935935 0.12494962 11
-0.6758706 1.1480747 0.030926311 12
-0.84455222 1.2448443 0.12078738 10.8
-0.60508567 1.2035234 0.026595319 12
-0.51169103 1.3144913 0.099060513 10.625
-0.4354319 1.3273262 0.042774659 7
-0.69604367 1.4021087 0.13514158 33.5
-0.39719069 1.4455321 0.070430033 120
-0.34341496 1.6215873 0.057312515 1
-0.30703056 1.7346575 0.082860462 1
2.9428275 1.8519145 0.096379824 20
-0.16296542 1.9871351 0.14044017 51
-0.036629815 2.1250465 0.14380056 48
3.2425168 2.2930574 0.088204168 59.666668
3.0773423 2.5466638 0.13186204 8
2.9750693 2.6422133 0.073729865 8
2.8282518 2.8021982 0.032637354 12
2.6564124 2.9508545 0.066982165 15.5
2.4815452 3.1215968 0.064558364 24.5
1.4546694 3.1682115 0.053252604 9
2.2315307 3.2102697 0.12597185 44
2.2758701 3.2265217 0.029445315 15
2.1981142 3.3948092 0.094307996 11.5
2.2532885 3.3487339 0.05746397 7
2.515717 7.1115942 0.1478408 6
0.13536407 -5.2366676 0.16834474 18
-0.75420785 -4.5001259 0.20830232 68
-0.65717888 -4.5840969 0.24370061 72.333336
-1.4141762 -4.3597269 0.29087359 77
-0.82326055 -4.4322062 0.26000401 73.5
-1.5346711 -4.2510767 0.29051906 89
-1.24042 -4.3077488 0.25572649 52.666668
-1.0975095 -4.2185555 0.19771652 69
-0.95526975 -4.3183146 0.22660172 82
-1.1108059 -4.1896 0.20763078 36
0.24026245 -3.3821115 0.24448314 7.5
2.0198803 -3.3781028 0.21168232 12
-0.41439283 -2.9310868 0.17072693 4
2.8701463 -2.9095643 0.18081063 150
3.2556913 -2.905529 0.21268207 109
-0.40752649 -2.8325124 0.23632181 3
2.1318333 -2.762959 0.24859488 9
2.3012288 -2.7131729 0.28093529 52.333332
3.0349405 -2.7780464 0.16191715 33
3.3957329 -2.7903924 0.28498226 40
2.2442729 -2.6725919 0.29121649 43
2.2774847 -2.6405931 0.2166546 61
2.4552062 -2.5824621 0.1844383 23
2.4046264 -2.4139977 0.18943989 14
3.3396125 -2.4746997 0.15139019 48
0.79264539 -1.8739043 0.28678071 0
0.584001 -1.6862482 0.27687097 1
2.7057302 -1.716785 0.21605027 1
0.42235079 -1.5437464 0.27328396 2.3333333
0.50046146 -1.6109433 0.27142289 2
0.28432775 -1.4184047 0.28230381 2
0.18422072 -1.3266329 0.24515085 2.6666667
2.1307993 -1.2102326 0.23418185 1.5
0.074419022 -1.1674227 0.25339347 0.5
-1.3062946 -1.0088738 0.29401499 2
1.7585047 -0.91060543 0.23126525 1.5
1.8363962 -0.97265148 0.28232491 2
-1.0433023 -0.46608284 0.26318026 2
-0.784118 -0.53128982 0.28645322 0
-1.0903453 -0.36054432 0.25093016 0
-1.0098737 -0.4066025 0.18156624 0.66666669
2.0146296 -0.37197733 0.23221631 34
-1.1019517 -0.22946908 0.23545271 0
-1.0267251 -0.26028144 0.15779603 0
1.9354655 -0.22615254 0.20494959 34.5
1.988996 -0.2189091 0.24965622 39.5
-1.1824478 -0.092527658 0.25629783 4.6666665
-1.0269248 -0.013989102 0.15271062 0
1.9055009 -0.069513336 0.20526308 1
1.9824553 -0.08781831 0.24373475 2.5
-1.0310514 0.0036905224 0.18631655 0
1.6996114 0.11324596 0.20538047 1
1.8129528 0.020343389 0.22019398 0
-1.3752292 0.27578104 0.23404467 9.666667
-1.330165 0.29287595 0.28445083 6
1.5780817 0.23997989 0.21371333 19
-1.3628176 0.34550714 0.21478915 10
-1.2783285 0.37406683 0.24899749 8.3529415
1.4291812 0.37560254 0.19668117 28.200001
1.5219587 0.37110785 0.2434804 30.333334
-1.3854423 0.55034602 0.23988865 6.3333335
-1.3003494 0.4645364 0.24052465 2
-1.3882383 0.65833867 0.25164676 13.333333
-1.3204206 0.7276507 0.25119716 13.333333
1.9807383 0.71323478 0.22748898 2
-1.2559441 0.80014163 0.23097137 12.9375
-1.1878109 0.87216264 0.2192418 11.125
1.7968559 0.89320827 0.19240987 2
1.8750184 0.81251925 0.21358635 2.4285715
1.9755231 0.75809979 0.15591693 4.5
-1.1056974 0.96857214 0.20874485 13.5
-1.0446504 1.0358602 0.24747074 12.5
-0.968665 1.1159722 0.2023215 11.866667
-0.83483881 1.2581013 0.21838348 9.833333
-0.50765091 1.2850341 0.17414522 6
-0.38264251 1.3357058 0.17203611 6
-0.68999887 1.4164166 0.2328591 30.333334
-0.56659275 1.45955 0.29865038 9
-0.38506567 1.4344087 0.15886921 92
-0.3946645 1.6630911 0.19415206 100
-0.28910655 1.7957886 0.16349548 56
-0.29569089 1.8479207 0.24250364 50.5
-0.18341477 1.9712046 0.22429633 52.333332
-0.069276884 2.0970569 0.22225893 51
-0.05325504 2.108511 0.18154532 51
3.2404592 2.2998912 0.25199336 26
3.1230288 2.4517326 0.19316235 35
2.8304033 2.8008935 0.15780288 8
1.3558234 3.0078101 0.26032495 4
2.7317114 3.0042822 0.25618267 1
2.2775488 3.2213051 0.23095673 29
2.5410271 3.1531384 0.24107546 1
2.3769426 7.0582786 0.27099437 1
3.7083104 9.3298769 0.28165054 5
0.41077894 -6.0230899 0.43932503 65
0.15399809 -5.7959614 0.37163925 58
-0.24031183 -5.4341364 0.35624951 73
-0.14739187 -5.5260353 0.42487293 71
0.89368826 -5.5290914 0.40989345 5
-0.63413042 -4.592061 0.42484695 58
-1.3883709 -4.3849788 0.3997004 75.5
-0.84439421 -4.4123869 0.36775169 79.666664
-1.5147076 -4.2647953 0.39951038 75.5
-1.4624915 -4.3183303 0.38946205 81
-1.2027317 -4.2588763 0.38760006 51
-1.0624648 -4.2046132 0.36956549 79
-0.98423439 -4.2858739 0.41058323 79
-1.6350764 -4.1546178 0.42752886 73
-1.7551644 -4.0472302 0.41639543 79
-0.4415493 -2.9315443 0.31352568 0
3.2357013 -2.9554861 0.39492118 90
2.0846291 -2.752028 0.36209807 15
2.1716743 -2.7570429 0.37611008 10
2.46856 -2.7351229 0.33957452 32
0.34905058 -2.4138446 0.31312442 7
2.1624861 -2.5183034 0.40943527 28
3.6157105 -2.5327616 0.43415213 15
0.35376704 -2.3836219 0.41743827 4
1.2635117 -2.2954512 0.3941876 0
1.3572263 -2.3754404 0.39480889 0
1.1825258 -2.2223909 0.34633386 0
3.8411653 -2.249337 0.43662262 21
0.8955763 -1.9373747 0.31551182 0
0.56933296 -1.6762252 0.39991149 0.5
0.66573721 -1.7708967 0.32015148 0.75
0.41266206 -1.5389938 0.34681508 1
0.24339022 -1.3800018 0.35689434 2
0.37512994 -1.4968756 0.38576049 2
3.3669031 -1.3531929 0.33437872 2
0.072648138 -1.2376169 0.34385762 1.3333334
0.048817884 -1.1622486 0.44823903 1
1.9996433 -1.1513864 0.32253653 0
-1.0939734 -0.50521654 0.38782215 4.5
-0.7846508 -0.52773345 0.34902841 0
-1.0963244 -0.36736891 0.39409077 0
-1.1338487 -0.23035704 0.37492603 0
2.011744 -0.24834172 0.33658871 17.75
-1.2295616 -0.12054061 0.37649485 4.25
2.0050273 -0.10661508 0.33121583 4
-1.3583199 0.26116914 0.37112677 0
-1.3162827 0.28097382 0.41448116 0.75
1.5427917 0.23996708 0.30341488 43
1.662589 0.17396006 0.3401491 23
-1.2914748 0.34855023 0.36415955 8
1.5054877 0.39026242 0.30882716 40
-1.400792 0.55629063 0.35957718 2
-1.3416368 0.50236183 0.30334979 2
-1.3967589 0.65180606 0.36370566 13.181818
-1.3281983 0.72263938 0.33241814 13.333333
-1.2458248 0.81883246 0.38542369 11.846154
-1.1879073 0.8840242 0.43110847 10
-1.1185838 0.95731515 0.34547907 11.769231
-1.0383888 1.0431792 0.42639172 14
-0.94982594 1.1434672 0.37496006 11.111111
-0.83296847 1.2711402 0.36694786 17.153847
-0.5012008 1.3134153 0.39260212 13.333333
-0.41105884 1.3276666 0.38925385 29
-0.691122 1.414813 0.37499338 39.42857
-0.55235553 1.4403396 0.3656882 116
-0.37324208 1.422055 0.37857476 52.200001
-0.52522892 1.5362 0.35320196 46.5
-0.39573333 1.5396821 0.35238254 151
-0.22946052 1.5717417 0.41106501 88
-0.36159158 1.7773346 0.44413108 60
-0.12851472 1.6842085 0.43076152 155
-0.30211127 1.8488743 0.350797 50.5
-0.23395522 1.9266834 0.4178611 51.5
-0.17769395 1.9877828 0.39510822 50.5
-0.11234292 2.0539358 0.38062114 17
-0.047096614 2.126287 0.35825536 48.5
0.026836779 2.2026925 0.34445286 26
1.2967838 3.1093616 0.31850365 6.5
2.2795386 7.102602 0.38064128 48
3.4022496 8.9942417 0.38242 2
0.10089587 -5.7483082 0.49407429 70
-0.17889191 -5.4838243 0.55185241 75
-1.3614675 -4.4018002 0.58851701 88
-0.81848538 -4.4337502 0.57677048 73
-1.5817881 -4.200151 0.49620682 78
-1.4825754 -4.3006954 0.51970828 74.5
-1.2206441 -4.2600074 0.54632258 50
-1.1982478 -4.2408905 0.5753206 56
-1.0055526 -4.2701278 0.5207774 76
-1.7177597 -4.0823736 0.52642345 78
-1.6122847 -4.1762261 0.55780274 76.333336
-1.1179333 -4.1851335 0.48729685 36.5
-1.8474072 -3.9625299 0.55703777 68
2.6946328 -3.4999788 0.56850398 9
2.7030265 -3.5213103 0.58597904 8
2.2253194 -3.2647953 0.58328211 0
1.9182649 -3.1475501 0.56139296 10
2.104439 -3.1455882 0.59176052 6
3.0766909 -3.1173763 0.51232708 132
2.1718976 -2.9933112 0.57761091 33
3.4077306 -2.6917083 0.55210322 87
3.6408186 -2.4618757 0.5261752 81.5
3.7898371 -2.3032937 0.55871797 67
1.1360383 -2.1838212 0.49548396 1.5
3.9294534 -2.1388168 0.54151696 60
2.7143958 -1.8937821 0.49602818 1
0.25491524 -1.387274 0.56530046 2
0.03515948 -1.2114275 0.53741783 1
0.18962418 -1.3268996 0.54855824 4.5
0.038367689 -1.1437796 0.54555625 1
1.8720305 -1.0845459 0.45536548 0
-1.3107477 -0.99233669 0.52494842 1
1.7727653 -1.0368471 0.51537561 2
1.8175566 -0.95059258 0.57160825 2
1.9719871 -1.0138717 0.52802849 2.6666667
-1.0909803 -0.47385794 0.51512313 5.5
-1.0955024 -0.40250334 0.54231465 1.5
-1.1525282 -0.23612209 0.49743161 0
-1.2429687 -0.12755457 0.47540611 5
-1.3585132 0.072145581 0.57498789 1.6666666
-1.3315951 0.08109431 0.56605291 1
-1.4602665 0.23200709 0.56587523 17.333334
-1.3484004 0.28666851 0.49100554 6
-1.3106697 0.35533231 0.5279249 2.9000001
-1.4276586 0.56396872 0.53766 10
-1.3260537 0.48381731 0.47257656 0
-1.4071732 0.65051275 0.53141707 12.142858
-1.3342502 0.72485673 0.49284002 12
-1.2606407 0.80538136 0.50970221 10.166667
-1.1742669 0.89925665 0.47266024 9
-1.1039488 0.98468781 0.54670155 11.7
-0.9897356 1.1068547 0.51081604 20.799999
-0.8357563 1.2730576 0.52696836 47.200001
-0.47906148 1.2960198 0.47308028 38
-0.34268919 1.3406154 0.59184098 43
-0.68694144 1.4381965 0.5325315 54.5
-0.34436825 1.3826617 0.50112343 66
-0.25099835 1.4294956 0.5650456 114
-0.62323654 1.5156114 0.57695746 52
-0.53824347 1.5428472 0.50118154 20
-0.39826041 1.5241013 0.58824563 2
-0.23002931 1.5366821 0.46778893 27
-0.13137946 1.690098 0.4721576 156
-0.32524136 1.8273848 0.51254189 48.5
-0.28351083 1.870119 0.4632616 54
-0.079354778 2.0603309 0.55464643 146
-0.071928576 2.1008401 0.52518296 40
0.042253714 -5.689096 0.60188973 71
-0.23178284 -5.4455118 0.65922785 74
-0.68847555 -4.5522971 0.68110037 67
-1.4081973 -4.3670316 0.71933591 73
-1.3145252 -4.370656 0.65017343 54
-1.5790805 -4.2091832 0.7319386 77
-1.4690616 -4.3111095 0.71058929 74
-1.2872005 -4.3253875 0.70396399 51
-0.98770809 -4.2792263 0.72654378 79
-1.6956701 -4.1024761 0.65645289 75.5
-1.1022427 -4.1693788 0.6860323 60
-1.8518305 -3.958837 0.69369781 71.599998
-1.7962292 -4.0102663 0.62832391 74
-1.9522086 -3.8693349 0.61626822 6
2.0240188 -3.2543144 0.64919412 0
2.0403292 -3.1409914 0.71539402 0
2.1025143 -2.982996 0.69822466 47
2.347229 -2.9772782 0.62110829 27
3.2801948 -2.8989127 0.69821632 101
2.2748766 -2.5762584 0.7293613 30
3.4477816 -2.6551323 0.66606903 90.5
3.4971702 -2.6011443 0.64985943 85
3.5854707 -2.5125604 0.74956131 67
3.6131561 -2.4751983 0.64461136 68.5
3.7399628 -2.3413987 0.64970934 82
3.8044703 -2.2763157 0.67381144 76
0.72320777 -1.8136077 0.739582 2
0.61257011 -1.7090926 0.67148113 1
4.3132257 -1.7325952 0.7135359 2
0.42251796 -1.5512938 0.6230129 0
0.50380319 -1.6075041 0.63335967 1.5
4.4972515 -1.5312253 0.64601815 108
0.2523486 -1.3869492 0.65664971 1
0.33927995 -1.4548099 0.62115306 1.5
0.14653824 -1.2734913 0.62644672 1
0.033269048 -1.1699481 0.64263648 1.3333334
-1.1414216 -0.34087905 0.66343611 3.8
-2.0137661 -0.20445997 0.7349385 8
-1.161684 -0.28086311 0.65321559 5.5999999
-1.311273 0.078769572 0.68105167 0.33333334
-1.5045564 0.26687962 0.72239113 6
-1.4343319 0.24302988 0.65495914 20.285715
-1.3396022 0.29695171 0.73976088 7
-1.3006154 0.37500396 0.69919795 7.3333335
-1.4638159 0.58300292 0.63273972 34.5
-1.322899 0.48118582 0.69182318 2.6666667
-1.400354 0.66319638 0.66363108 34.599998
-1.3362864 0.7401253 0.73749506 64
-1.2471776 0.83357096 0.68979973 34.444443
-1.1989151 0.88811201 0.61917961 15
-1.1299542 0.95919949 0.65476769 29.857143
-0.98385173 1.1190372 0.65880263 50
-0.83102852 1.291111 0.71293372 49.375
-0.51917762 1.2611481 0.73766214 104
-0.38853019 1.299385 0.61827034 21
-0.77069741 1.3592905 0.6688956 54
-0.70840222 1.4216913 0.65421855 47.42857
-0.47116122 1.4663955 0.65316081 151
-0.38567415 1.404213 0.68132329 154.33333
-0.29063529 1.4656429 0.62231016 156
-0.61230588 1.5203078 0.67896146 48
-0.5048241 1.6444088 0.72707021 45
-0.19364154 1.5731432 0.6508981 94
-0.20024717 1.6532149 0.63913035 156
4.8597121 7.2620177 0.68118763 29
4.7213111 7.3925223 0.7480377 30
3.8277094 9.4583979 0.62343955 7
0.24485143 -5.877913 0.8591392 53
0.56456745 -5.8812127 0.89208984 23
-0.29052031 -5.4185038 0.75885344 2
-0.56942552 -4.6804338 0.78749883 10
-0.71855581 -4.5229197 0.77009916 69
-0.76827574 -4.4813271 0.84254146 67
-1.5490108 -4.2359014 0.83467722 74.5
-1.4898868 -4.292747 0.76102948 77
-0.91984552 -4.3447981 0.82855904 64
-1.6971844 -4.1014934 0.85810447 74.333336
-1.6311767 -4.1635633 0.85150397 71
-1.9030887 -3.9098573 0.8308661 75
-1.7848026 -4.016665 0.86775589 80
1.7000012 -3.2639971 0.76296711 0
1.9569716 -3.0964122 0.81745243 0
3.1126759 -3.0691726 0.84584582 95
3.1652615 -3.0147684 0.88251984 91
3.3253398 -2.8556652 0.75444841 106
2.6224136 -2.7641828 0.8959794 32.5
3.327986 -2.8156509 0.82858497 85.666664
2.4621925 -2.6555343 0.79895329 25
3.4236662 -2.6695611 0.85364509 80
3.4598861 -2.6381431 0.80032665 87.5
2.5804155 -2.5114727 0.83585906 28.5
3.6485486 -2.4181511 0.86559916 73
1.2654144 -2.2936742 0.89873183 4
3.8047273 -2.2625618 0.781739 73
1.1550725 -2.1945491 0.84927869 3.5
3.8327587 -2.2297323 0.86060667 70
4.2705221 -1.7457614 0.86449784 67
4.4500809 -1.5526426 0.80356514 69
0.19236253 -1.3230852 0.89454365 2
4.7333779 -1.2908862 0.86499095 20
4.8790412 -1.1153202 0.88353735 29
4.9606919 -1.0684075 0.82741737 1
-0.78883201 -0.49204937 0.83302134 1
-1.0638604 -0.36592144 0.78158808 5
-1.0377947 -0.37413847 0.80402678 0
-1.8682078 -0.22267738 0.80747628 0
-1.0773659 -0.22026949 0.79840326 2.4285715
-1.0282874 -0.2773349 0.80614442 2.8
-1.3579724 0.13508576 0.81302071 4
-1.3995557 0.18891662 0.82526422 28
-1.4725221 0.59758347 0.89253795 58
-1.3900379 0.6849184 0.8439368 60.42857
-1.3406779 0.73047602 0.77462232 60
-1.2793812 0.80319005 0.80785525 61.200001
-1.1942044 0.89416081 0.77478945 61
-1.1157588 0.98218781 0.82045978 59.333332
-0.97961795 1.1368878 0.83289564 50.900002
-0.90809286 1.2115214 0.82205206 46.5
-0.83808392 1.2856704 0.82632083 44.333332
-0.76284802 1.3647556 0.78245032 42
-0.69490314 1.4448006 0.84857082 42.25
-0.49447265 1.3628666 0.78332531 153
-0.38815165 1.3874154 0.77683276 23
-0.5374285 1.5581069 0.80978942 110
-0.31296775 1.5007596 0.75757849 152
-0.19863817 1.5940078 0.78277421 84
-0.055373289 2.1533434 0.85906833 48.5
0.015851479 2.2268343 0.84955966 33
6.5188518 5.7487154 0.84546709 33
4.6245079 7.4872937 0.83441925 23
4.5861278 7.5192189 0.8200953 25
0.41719037 -6.0098901 0.92712021 83
0.54878515 -5.8882899 0.98435032 33
0.68536514 -5.9070959 0.94717681 7
-0.12896727 -5.5449109 0.98943615 66
-1.413725 -4.3609548 0.91759348 79
-0.82087022 -4.4241056 0.90093207 65
-1.2436107 -4.27003 0.90780973 53
-1.0569187 -4.2124271 1.0159379 69
-0.97693497 -4.2860632 0.93603081 66
-1.6359603 -4.157546 1.0435314 80
-1.1400535 -4.163105 0.97477746 39
-1.8819996 -3.9348516 0.97756815 75.666664
-1.7652864 -4.0363531 0.96349049 73.5
-1.984614 -3.8320746 0.99813044 4
-1.935246 -3.8912108 1.0052941 6
3.1640589 -3.0024199 0.94823027 150
3.1002705 -2.9500294 0.97260153 150
3.2084696 -2.9602289 0.91203535 86
3.3006387 -2.8503737 0.97805679 76
2.3279674 -2.7851689 0.95910579 24.666666
2.5221982 -2.7162936 0.95195216 27.666666
3.3292072 -2.8279052 0.92837226 88
2.3102207 -2.6884961 0.92790365 31
2.5595367 -2.5649607 1.0346346 39
3.5042822 -2.5742631 0.95745075 78
1.431407 -2.4453785 0.96724105 3
2.7015765 -2.4598486 0.94614613 11
3.6717687 -2.4057076 0.97282743 72
1.3536471 -2.3652225 0.93779075 3
3.7947032 -2.2661421 0.96611357 67
1.0882819 -2.132827 0.91441464 3
3.9108632 -2.1271737 1.0034111 1
1.0271435 -2.0771139 0.98167855 3.5
3.9607022 -2.0799839 1.0249977 45
4.3057132 -1.7040745 1.0183966 68.5
4.4753385 -1.5211563 0.97847295 69.333336
4.5096502 -1.4939747 0.91249061 72
4.6445041 -1.3386347 0.90837693 56
4.6637945 -1.3146429 0.94667435 68.5
4.8523731 -1.1172161 0.9467808 65
-1.3666713 0.13373037 0.94042099 2
-1.5120771 0.28163013 0.98440075 29
-1.3988631 0.18183103 0.92278218 29.5
-1.5357693 0.37381712 0.97676176 79.666664
-1.511179 0.55690491 1.0120378 54.5
-1.4842572 0.52397615 0.96806443 91
-1.4167695 0.6592434 0.96622652 55.5
-1.3355826 0.74783957 0.90182829 57
-1.2601788 0.83386046 0.97636229 47.5
-1.1285871 0.9793393 0.98136055 54.333332
-1.0568049 1.056839 0.96115768 49.5
-0.98677993 1.1310546 0.98086882 47
-0.92545241 1.2029442 1.0450819 45
-0.84454435 1.2857828 0.95498347 43
4.0860558 1.3351617 0.97512245 14
-0.58803838 1.4399353 0.95543766 150
4.0262985 1.4015311 0.99384147 33.5
-0.64029378 1.5114319 1.0276998 42
-0.50167769 1.5956764 0.97701496 150
4.1096945 1.568496 1.0378268 15
-0.4718695 1.685632 0.97058928 39
-0.15459061 2.0333412 0.90323234 41
-0.034181926 2.177228 0.96159405 39.5
6.6719813 5.593051 0.97208935 8.5
0.82354647 6.2166815 0.9472934 42
1.2203273 6.6499863 0.91757047 41
4.8457069 7.2995014 0.95377696 32
1.9862428 7.4918008 1.0022084 40
4.4822125 7.6086655 0.94268918 33
4.3485618 7.7267575 1.0305492 30
3.1023641 8.7392712 1.0068303 5
0.23237498 -5.8708992 1.138656 62
0.36289686 -5.9895821 1.1906221 62
0.51122642 -5.9081268 1.1721014 51
0.20613016 -5.8279057 1.1290958 53
0.036029678 -5.6967368 1.0664902 68
-0.30500224 -5.3782096 1.1874379 75
-0.46460947 -5.2234297 1.1057757 47
-0.73262018 -4.5074515 1.0816846 67
-0.59308088 -4.6428905 1.1592132 60
-1.5086727 -4.2607946 1.0970825 73
-1.2714018 -4.2777133 1.1627455 50
-0.98884857 -4.2755952 1.1841813 65
-1.1884351 -4.1990957 1.0656353 49
-1.849077 -3.9590945 1.1652 80
-1.9763179 -3.84797 1.0908194 3.5
2.4082887 -2.9027126 1.0584847 23
-3.1937873 -2.7257183 1.1984994 107
2.4052672 -2.848 1.1411098 16
3.3622348 -2.7268848 1.0575085 75
3.5005665 -2.5779533 1.1383235 74.5
1.4309468 -2.4430716 1.1512517 0
1.5302589 -2.5289619 1.0670562 0
3.6364222 -2.4266202 1.0688083 73
3.7569788 -2.2963667 1.1004819 64
3.7956555 -2.2423868 1.1049587 64
3.9913568 -2.0504844 1.1531081 47.666668
4.1358166 -1.8838618 1.0850549 66.75
0.69543236 -1.7813166 1.1290282 0
4.3181705 -1.6712857 1.1946303 65
0.46753299 -1.5611519 1.08452 0
4.4208555 -1.5646486 1.1824946 69
4.480958 -1.4841821 1.1652602 58
4.5802274 -1.3964767 1.1543157 63.666668
0.019348007 -1.2007191 1.1188449 0
0.18862136 -1.3319504 1.0959522 0
4.6887388 -1.2749226 1.156424 58
4.7895021 -1.174103 1.0986782 66
4.8777256 -1.0801826 1.1418116 59.5
-1.3295989 -0.97976077 1.1275916 0.5
4.997963 -0.9607017 1.0749962 55.5
5.0595365 -0.88411409 1.1528696 53
-1.366544 0.14049964 1.1368518 2
-1.4924772 0.2686058 1.100631 26
-1.5785295 0.36416131 1.1007395 33.5
-1.5732671 0.4942489 1.1577114 54
-1.4895184 0.58071327 1.05021 50
-1.414088 0.67457986 1.1375759 53
-1.2702154 0.82938254 1.1200352 51.714287
-1.1635298 0.94581008 1.1234651 48
-1.0583667 1.0584735 1.1610589 48
-0.99035078 1.1276038 1.0969535 46
-0.82564688 1.3159529 1.1551946 44.333332
4.1295567 1.2639291 1.191734 69
-0.77198625 1.3772359 1.1734823 41.5
-0.7021386 1.448074 1.1078535 40.166668
4.0125098 1.4362679 1.1938295 25
-0.6251955 1.5349092 1.0930345 39.5
-0.57690096 1.5828131 1.172442 39
4.1633182 1.6228113 1.1296521 36
-0.48649129 1.6822209 1.141488 38
4.2884822 1.7610844 1.1039819 10
-0.36329365 1.8254962 1.1954875 36
-0.2712428 1.9217273 1.1355209 37.5
-0.14519136 2.0708475 1.1643288 39
-0.022942323 2.1992166 1.1216106 35
8.4620934 3.9686379 1.1504637 34
8.0672417 4.3403087 1.0820091 33
7.6930423 4.6724544 1.19757 33
6.6989474 5.5712729 1.1842321 3
6.5163836 5.7553821 1.152523 33
0.75482327 6.1464567 1.0504801 42
5.666182 6.5188718 1.0837018 14
1.365912 6.8306217 1.155617 35
5.2938738 6.8732901 1.0918592 25
4.9014359 7.2390008 1.1479053 29
2.2287631 7.7532806 1.1350367 28
4.2253661 7.8458719 1.1115273 34
3.3600645 8.9765224 1.176246 2
0.47467053 -5.9391303 1.2976677 78
0.20989795 -5.8444681 1.2688023 57
-0.10852242 -5.5564847 1.3022767 66
0.0064732851 -5.6510444 1.3209361 67
-0.14227772 -5.516387 1.2569098 72
0.8937642 -5.4806895 1.3267238 13
-0.71248162 -4.5287786 1.3328693 61
-1.3712051 -4.3845544 1.2664919 71
-0.85231054 -4.4011412 1.2606356 60
-1.4593413 -4.3167048 1.2747337 67.5
-1.7232476 -4.0711789 1.2258728 72
2.1708705 -4.094842 1.2862369 1
-3.186348 -2.7295375 1.2826393 103
3.350625 -2.7328608 1.2656451 74
3.4817865 -2.5889654 1.3112197 65
-3.4058616 -2.525157 1.3075687 102
3.6306312 -2.4334922 1.2032728 64
3.6812229 -2.3665178 1.3131928 62
3.8229053 -2.2140031 1.2652327 65.800003
1.0067688 -2.0485809 1.3050998 4
3.9790976 -2.017123 1.2719697 23
4.143795 -1.8465226 1.2281206 3
4.2416377 -1.7543569 1.2537184 68.666664
4.3907118 -1.6156535 1.2376522 71
4.7089839 -1.261241 1.3483481 57
0.017829578 -1.1979502 1.2046828 2
4.8874621 -1.0655258 1.3263881 50
4.9384646 -1.0028849 1.3432581 53
5.0782628 -0.85821742 1.3151923 52
5.1320419 -0.79121852 1.3401049 46
-1.4066964 0.19787255 1.2903327 20.6
-1.6325415 0.43773255 1.2837307 50
-1.4014882 0.69633216 1.2828897 53.200001
-1.2967293 0.80892122 1.2645544 50
-1.1629982 0.95001864 1.2701323 46.5
-0.96631837 1.1709232 1.2890618 44.5
4.2129803 1.1976019 1.2882185 63
-0.90435857 1.2450536 1.3126259 41
-0.85153401 1.2926786 1.2632201 40.200001
4.0476942 1.3491428 1.2718177 69
-0.78467929 1.3698956 1.2230698 38
-0.70316684 1.451901 1.2382517 38
-0.62807333 1.5438316 1.3048778 40
-0.54508138 1.6338112 1.2635769 36
4.1064582 1.5722961 1.3478037 31
-0.45706755 1.721918 1.2227974 37
-0.42243353 1.7721422 1.3204484 39
4.2826567 1.7541065 1.3453691 30
-0.33216819 1.8694944 1.2873137 35
4.4639063 1.9469423 1.2201368 25
-0.2340098 1.9761657 1.2595494 37
-0.12577306 2.0961814 1.2405785 37
4.4957676 1.9930614 1.3184687 19
-0.0047394512 2.2266605 1.2237189 35
8.0753145 4.3367333 1.2660899 27
6.6619964 5.6045976 1.3343197 7
6.3341899 5.9319258 1.2961431 32.5
6.1648045 6.0777974 1.3312168 33
0.86069697 6.2775173 1.2890282 43
5.9982867 6.2384801 1.308206 27
5.8358135 6.3883157 1.2878357 34
5.3486223 6.8272958 1.2998657 34
1.5704628 7.0481005 1.2623014 36
4.9543486 7.1896977 1.3490064 33
4.4774384 7.6488533 1.2782894 35
2.4742634 8.0366468 1.2882882 34
5.0219603 10.802035 1.3036882 44
0.12218957 -5.7600026 1.463571 62
0.16917555 -5.8070192 1.3731226 58
-0.12838969 -5.5364094 1.4155359 66
-0.36446112 -5.3206921 1.4535503 67.5
-0.45818171 -5.2154298 1.3729795 74
-0.66390753 -4.5810776 1.4385124 64
-0.58272684 -4.6458688 1.4000763 65
-1.5386684 -4.2361426 1.3510306 65
-1.2771056 -4.2714257 1.3703959 47
-0.95544356 -4.2997103 1.4321684 59
-1.6750226 -4.116539 1.4151685 65.5
-1.6048977 -4.177712 1.3872204 69
-1.0926569 -4.1740689 1.3584578 66
2.1443372 -4.1210775 1.4266169 10
-1.7608289 -4.0358963 1.479001 69
-1.931329 -3.8825271 1.3518618 77
2.6400967 -3.4503548 1.372854 9
2.7020917 -3.4809859 1.3707058 1
2.9792917 -3.2057068 1.4261578 16
3.2286978 -2.901943 1.4157788 71.5
-3.2121899 -2.7053237 1.4702582 94
3.339463 -2.7414408 1.430864 65
-3.3547032 -2.5771387 1.4287722 96
-3.2559083 -2.6685362 1.4295018 97
3.3654521 -2.6971276 1.4922251 62
-3.4731936 -2.4658046 1.496085 91
-3.4047346 -2.5315516 1.3983142 99
3.5322621 -2.5232034 1.4400982 66
-3.6318166 -2.3217235 1.4227362 98
1.3420722 -2.3525579 1.4737985 4
3.6702783 -2.3798451 1.3853639 68.666664
1.1111984 -2.1356778 1.36452 0
1.2051326 -2.2264204 1.3646543 5
3.7915604 -2.2344267 1.4746939 66
0.98403907 -2.0334103 1.4267111 3.6666667
3.9300148 -2.087487 1.4002895 70
4.2244244 -1.7594954 1.4625335 60
4.3838754 -1.5918869 1.415673 63.5
4.5569315 -1.4170344 1.3807726 47.5
4.7455921 -1.1993059 1.353496 64
5.8005776 -0.063523404 1.4125173 36
6.0388446 0.13969848 1.4139043 27
-1.3670671 0.15720387 1.3654227 7
6.101244 0.21973887 1.478863 40
-1.5270902 0.30722451 1.3673357 30
-1.5512024 0.53657597 1.4162202 53.333332
-1.4457673 0.65252769 1.4198782 48.799999
-1.3531295 0.75324827 1.4932007 45
-1.2735395 0.83586365 1.3945545 45
-1.1197057 1.0105755 1.4549243 47.75
-1.0097709 1.1335083 1.434597 42.166668
-0.9133724 1.2337209 1.3843889 37
-0.85975802 1.2994237 1.4746778 39
-0.78320658 1.376613 1.4073241 41
-0.70772439 1.4611624 1.3555796 39
-0.66259021 1.5085262 1.4492764 34
-0.58599776 1.5901434 1.3993098 37
-0.50672764 1.6769807 1.3557127 36
-0.36056992 1.8446674 1.4889166 33
-0.21069573 2.0074031 1.4853609 29.5
-0.13655169 2.0866392 1.4663426 33
-0.01716694 2.2201891 1.4814163 29.333334
8.3432083 4.0886002 1.3688371 30.5
7.9637742 4.4271564 1.4742492 32
7.6912866 4.6802812 1.3974361 34
5.9678278 6.2757554 1.4949954 27
1.0386103 6.465486 1.3748161 42
1.2155935 6.6730671 1.4764948 44
1.7750351 7.2741137 1.3825581 39
1.9977038 7.509326 1.4960432 41
4.5482163 7.5717807 1.4489299 30
9.6241989 7.5056458 1.4980476 67
2.7479169 8.3367033 1.4358547 35
3.6979635 9.344574 1.3626078 9
0.61224061 -5.8398256 1.6409396 15
-0.19105278 -5.4813709 1.5446227 68.5
0.95204109 -5.4439368 1.5889536 5
-0.47389722 -5.2179685 1.6310579 70
-0.43537998 -5.2409005 1.5519832 72
-0.70005006 -4.5385475 1.5418217 61
-1.4160969 -4.353354 1.6348442 68
-0.90071523 -4.3671184 1.5735832 63
-0.79482639 -4.4533625 1.5630699 66.5
-1.5658183 -4.2233996 1.5520804 69
-1.0574898 -4.2001805 1.6054901 61
-0.91880095 -4.3301845 1.6326014 58
-1.2038398 -4.1850929 1.5763105 48
-1.8434391 -3.9557505 1.5174356 70
-1.9798375 -3.8455207 1.6100788 3
-1.9073594 -3.898798 1.5745716 68
3.0894277 -3.0523763 1.5691698 70
-3.0994852 -2.8500018 1.516589 41
3.2276971 -2.893193 1.5867615 66.333336
-3.1789017 -2.7365503 1.6110716 96.5
-3.3195662 -2.6062291 1.5594524 93
-3.2843685 -2.6389372 1.6321021 86
3.3972905 -2.6699488 1.5669199 67.333336
-3.4658005 -2.4694893 1.6005681 88
-3.4295893 -2.5096865 1.5957683 88
1.4490515 -2.4396553 1.5453751 0
3.5136662 -2.5345311 1.5796719 69.5
-3.6635756 -2.2904735 1.5672604 89.5
-3.579308 -2.3688259 1.5465143 92
3.6526146 -2.3841641 1.5679981 66.666664
-3.8660727 -2.1027746 1.5886753 86.5
3.7983034 -2.2097144 1.6461769 63
3.9286172 -2.0780478 1.5879512 63.5
4.4015613 -1.5449682 1.6357805 55
4.46558 -1.4827667 1.6499788 53
4.5722542 -1.3772014 1.6215554 31
4.6311226 -1.3193299 1.6313373 53
4.7383342 -1.2003933 1.6132473 56
4.7996979 -1.1456212 1.6198003 43
4.9093833 -1.0142038 1.6132116 51
4.9656401 -0.95983768 1.6117449 43
5.0878377 -0.81951129 1.6235241 38
5.1398325 -0.76458585 1.6135068 41
5.2758522 -0.61327136 1.6439084 35
5.335134 -0.55845541 1.6289154 34
-1.4769299 0.26650634 1.5961922 28
-1.5830662 0.36653921 1.5877067 23.200001
-1.5527251 0.54457235 1.5535169 48.25
6.3358111 0.52738798 1.5403109 16
-1.4670482 0.63364965 1.5831289 42
-1.2559408 0.87142807 1.6010967 46
-1.1599612 0.97606182 1.5999566 43.25
-1.0628538 1.0792727 1.5701743 38
-1.0102497 1.1415986 1.6326574 42
-0.93388009 1.2203615 1.5477703 38
-0.80843484 1.3560895 1.5747899 37
-0.73541689 1.4301955 1.507367 32
-0.63769078 1.5483128 1.599062 37
-0.56158519 1.6331993 1.6126078 35.666668
-0.46860436 1.7297797 1.5680782 34.333332
-0.35725451 1.854463 1.5807279 26.799999
-0.27778244 1.937947 1.5218588 29
4.391881 1.8986382 1.523991 27
-0.22938959 1.9918936 1.5467134 29
-0.11091515 2.1208162 1.525782 29
8.2477732 4.1721191 1.5179145 32
7.8670321 4.511941 1.6181099 31
7.6137719 4.7591147 1.6001906 32
5.4174104 5.6633096 1.5675471 1
6.6617646 5.6073594 1.6445087 1
6.3293428 5.9257817 1.5377154 30
0.90168101 6.2862053 1.617358 31
5.9944077 6.2433248 1.5109396 27
5.8199677 6.3978748 1.5305187 33
5.6510587 6.5430093 1.5283298 150
5.5030704 6.6999154 1.5375274 34
1.4060836 6.880578 1.5676596 37
5.0231142 7.1292882 1.53641 34
9.903986 7.255343 1.5829344 71
4.6091738 7.4977231 1.6265308 10
4.09903 7.9875889 1.6258241 25
3.5344214 8.2916145 1.6390852 8
3.9075153 8.7200823 1.6320745 2
-0.52007288 -5.1794696 1.6978434 65
-0.98153925 -4.2889042 1.7058998 64.5
-1.6549746 -4.13484 1.7427889 74
-1.1345248 -4.1535006 1.7355585 50
-1.8048004 -4.0008922 1.6598595 67
2.6715212 -3.4731615 1.6960486 9
2.9619222 -3.2079244 1.7419972 8.5
3.0931005 -3.0357108 1.7400678 67.75
-3.1027212 -2.855166 1.7470084 3
3.2148435 -2.9032464 1.7305012 68
-3.1741321 -2.7398682 1.7091781 75.666664
3.2667143 -2.8368003 1.7653447 70
3.3070617 -2.8069475 1.656453 66
-3.3151259 -2.6175754 1.6801738 102
3.3825722 -2.6774273 1.6937143 70
-3.5178862 -2.4256673 1.7273495 82
-3.3943424 -2.5383039 1.7399896 88.5
3.5106182 -2.5293474 1.686358 64.5
-3.6747017 -2.2808714 1.7250048 79.5
3.6476626 -2.3746495 1.7496542 64.5
-3.8131771 -2.1496029 1.6683921 86
1.0545073 -2.1549833 1.799673 8
3.768945 -2.24505 1.679442 64
-3.9309566 -2.0375819 1.7456905 55
4.0010138 -1.9897044 1.7609204 56.5
4.1404591 -1.8352249 1.7126516 57
4.2513084 -1.7099183 1.6642114 55
4.3239498 -1.6465975 1.6842097 58
-0.55432105 -0.62914574 1.7979239 4
-0.60880595 -0.55227214 1.7904822 3
-0.84037852 -0.36275423 1.7855263 8.25
5.5108967 -0.36648941 1.6664684 30.5
-0.93771636 -0.28292036 1.7783467 4.5
5.7020006 -0.16331677 1.7251662 27
-3.0543895 -0.066914856 1.7936777 83
-2.9212868 -0.13536157 1.7969314 65
-2.8038096 -0.10668252 1.7973162 71
-2.6890488 -0.053041454 1.7949144 72.5
-2.3339591 -0.0083507849 1.7983743 75
-1.0866604 -0.13752678 1.7673956 3
5.7719159 -0.10004384 1.6976632 28
-3.1577649 0.064442024 1.7876226 7
-2.9295197 0.068114959 1.7853086 41.5
-2.2463593 0.081613265 1.7989975 43
-1.6789682 0.087859116 1.7943016 0
-1.28517 0.038536243 1.7600946 1.75
5.9710932 0.087190501 1.7969202 30
-1.3930291 0.19749852 1.7481829 23
6.0475264 0.15733241 1.7613209 31
-1.6562083 0.43116829 1.6657883 51
-1.5864663 0.52242398 1.736087 49.333332
-1.2821196 0.56335688 1.7988628 84.333336
-1.3715503 0.74296272 1.7972776 100
-1.0495025 0.7392801 1.798396 80
-1.3514439 0.78516465 1.7441539 61
-1.2677685 0.84520698 1.7355548 67.333336
-1.1903737 0.88622594 1.7981964 96
-0.99527633 0.78442341 1.7956165 74
-0.80729914 0.79610223 1.7989999 77
-1.2198851 0.9317044 1.7549537 52.5
-1.150048 0.98232085 1.7710098 74
-0.96547115 1.0208488 1.7969217 94
-0.81005621 0.95247847 1.7985963 78
-0.66052645 0.96584201 1.7955176 69
-1.092716 1.068296 1.7421602 49
-0.93392885 1.140394 1.7928087 92
-0.84928119 1.1449311 1.7965431 86.800003
-0.69080603 1.1560545 1.7989079 87
-0.56241769 1.198359 1.7989599 80
-0.95503253 1.2126557 1.7450827 45
-0.8314023 1.2928501 1.7666289 71
-0.67727846 1.2864259 1.7981954 80.5
-0.48713818 1.2763371 1.7993109 73.5
-0.78166986 1.4060415 1.745868 44
-0.6970852 1.4338334 1.7627779 65
-0.54455537 1.4043689 1.795164 74.333336
-0.38593405 1.434886 1.7960093 70.5
-0.23386168 1.460723 1.7990243 77
-0.64083028 1.5389757 1.7438672 55
-0.53708971 1.5626892 1.7794977 62.75
-0.38365999 1.5813431 1.790956 75.666664
-0.2396449 1.5855824 1.7939415 74
-0.0065350113 1.6198902 1.796779 66
-0.50544423 1.7013344 1.7318391 40.666668
-0.36587375 1.7459815 1.7540112 55.799999
-0.2160939 1.735449 1.7857833 72.833336
-0.062288336 1.7258219 1.7923976 70.14286
0.079145923 1.767025 1.7959414 71
-0.31492236 1.8954605 1.7005149 31
-0.21823597 1.8742527 1.7837954 73.666664
-0.059421916 1.8748293 1.7889146 72.333336
0.073908374 1.8813877 1.7934201 67
0.18696411 1.8997669 1.7946841 66.666664
-0.18147492 2.0310278 1.7338359 55.5
-0.088444449 1.9800872 1.780748 68.5
0.057988387 2.0045695 1.7821621 71
0.23029999 2.0217109 1.7900605 67
0.36930043 2.0703163 1.7882184 64.5
-0.04411827 2.147197 1.748355 56.666668
0.104565 2.1508539 1.7790672 69.666664
0.20909397 2.1892111 1.7784824 67
0.36527339 2.158787 1.7878375 64
0.50303 2.2010281 1.7881392 60.666668
0.090636209 2.3201146 1.7737325 61
0.23983039 2.389905 1.7830671 67
0.35698137 2.3234262 1.7807786 62
0.52554584 2.3209395 1.7902542 61.799999
0.6669426 2.3352866 1.7872093 56
0.08007665 2.4069915 1.7767271 64
0.23856749 2.4727962 1.7782065 61
0.38765049 2.5373793 1.7796119 61
0.52897751 2.4749789 1.7795206 58.5
0.66082621 2.4678538 1.7866384 57.25
0.83107579 2.4796278 1.7884847 54.142857
0.97592771 2.5235193 1.7867591 50
0.10750295 2.6512823 1.7659668 52
0.21238883 2.6343729 1.77142 60.666668
0.40101033 2.6175354 1.771803 63
0.55402917 2.691247 1.7776357 64
0.7051602 2.6145308 1.7745295 59
0.83354437 2.6539969 1.7779915 56.75
0.97207701 2.6169105 1.7863481 56.5
1.0939289 2.6255946 1.7839109 54.25
1.2365215 2.6380119 1.7901617 48
0.23810498 2.7965162 1.761053 58.333332
0.42497277 2.7582402 1.7744631 59
0.58278984 2.7738211 1.7720605 61
0.73881859 2.8495736 1.7734731 64
0.97599357 2.8091705 1.7731462 49
1.099336 2.7408035 1.7864746 54.666668
1.2754784 2.7858391 1.7864287 49
1.410135 2.7599726 1.7880641 47.5
1.6585218 2.8256297 1.7951251 44
0.3706696 2.8943477 1.7635685 63
0.62952447 2.9074707 1.7698249 57
0.78638774 2.9367416 1.7738248 57
1.2555584 2.9275558 1.7765646 45.666668
1.4479932 2.8621564 1.7950355 50
1.5712095 2.9262161 1.7903967 46.799999
1.7005956 2.9673791 1.7996627 45
1.8896544 2.9488268 1.7925173 46
0.41265559 3.0168741 1.7583102 59
0.50883853 3.0447428 1.7589358 55
0.60462207 3.0827222 1.7628187 58
0.85818344 3.065922 1.7712163 53.5
0.94708747 3.0175593 1.7733599 52
1.1592175 3.0066237 1.7758461 56
1.4630744 3.1179724 1.7720817 46
1.5248103 3.0293088 1.784593 47.5
1.7992604 3.0946844 1.7880615 52
1.8474759 3.0909567 1.7900438 49
2.1597724 3.0990124 1.7907766 49
0.29307139 3.2080762 1.7530509 60
0.67348266 3.2621622 1.763628 52.5
0.79898125 3.2563386 1.7680465 55
1.1358737 3.2201974 1.7775401 51.666668
1.2628481 3.2711689 1.7757939 48
1.4266548 3.191237 1.774284 50
1.756549 3.2229295 1.7774061 48
2.0619907 3.2347112 1.7863506 47
2.1495025 3.2246525 1.7902722 49.333332
2.4768133 3.2039232 1.7935835 19
0.31287581 3.3325834 1.7525822 59
0.50772369 3.4442375 1.7546464 58
1.014738 3.4441791 1.7642795 47
1.0776447 3.42573 1.7656952 54
1.3436559 3.3381126 1.7766048 49
1.4393678 3.4038863 1.7759578 55
1.5432705 3.4418256 1.7749392 51
1.7257943 3.375632 1.771207 50
2.0683675 3.4332545 1.777094 18
2.3786356 3.4092183 1.7889105 38
2.4877534 3.3602836 1.7929754 41.333332
2.8242056 3.3026173 1.7981318 35
0.34419924 3.5273833 1.7517556 44.5
0.54444659 3.5609136 1.7453202 52
0.8972531 3.5040469 1.7540981 51
0.95833129 3.4766393 1.7582339 48
1.641273 3.5012958 1.7807974 53
1.7445855 3.5706282 1.7753742 55.5
2.0757689 3.5805037 1.7749339 16
2.4169066 3.5828919 1.7761246 38
2.786984 3.5386114 1.797207 34.5
2.8749802 3.5008075 1.7911969 36
0.58792722 3.6929832 1.7453421 53
0.75183529 3.6879523 1.7508539 54
1.2752373 3.6831808 1.761297 52
1.3550905 3.6078739 1.7710491 55
1.8565562 3.616307 1.7761599 27
2.0243628 3.6838934 1.7813265 35
2.8128631 3.7378492 1.7800747 35
3.3095689 3.6406827 1.7971281 32
0.62677413 3.8388665 1.7417997 54
0.81159598 3.8192983 1.7468227 53
1.1982589 3.7746048 1.752519 53
1.6190296 3.8715553 1.7700192 21
1.6532421 3.7762227 1.768037 21
2.0909698 3.7728705 1.7746116 49
2.2042966 3.7915676 1.7762645 42
2.325721 3.8105969 1.7835139 39
2.4581571 3.8093596 1.7790946 41
0.40186092 3.9303632 1.7319888 55.5
0.87635618 3.9497709 1.7432903 54
1.0305049 3.95046 1.7463328 56
1.5891027 3.9715769 1.7598079 21
1.9913154 3.962904 1.775031 47
2.4789288 3.9821208 1.7757956 40
2.5965824 3.9699244 1.7783841 37
2.7321606 3.9735193 1.7951964 34
2.8941908 3.985734 1.7894082 32.5
3.26406 3.9004061 1.7923018 30
3.7472899 4.0353565 1.7934474 31
8.4166594 3.9876938 1.7809108 31
0.94402391 4.1124558 1.7449459 54
1.1140803 4.0833716 1.7429391 58
1.5513237 4.0704913 1.7520691 26
1.9732101 4.0853109 1.7670833 41
2.3597641 4.141181 1.7780663 38
3.0408723 4.1565108 1.7849525 32
3.1645234 4.1106725 1.7969385 32
4.2766876 4.1554437 1.795386 27
8.3110476 4.1198897 1.773579 24
0.51843017 4.2379503 1.7201222 51.5
0.68795097 4.2395945 1.7307243 52.5
1.2049092 4.2225127 1.7419106 54
1.3518124 4.2309413 1.7408699 50
1.967674 4.2258267 1.7529641 39
2.3811426 4.3220496 1.7718495 35
2.773838 4.3301039 1.7849911 33
2.9304812 4.210927 1.7832905 34
3.4248621 4.2001724 1.7799298 32
3.5343597 4.3363028 1.7897633 32
1.2999948 4.3847075 1.7385648 50
1.4628766 4.3705626 1.7403611 45
1.9690201 4.3970671 1.7542259 39
3.4431748 4.4432359 1.7895349 26
3.9948771 4.3991866 1.7780384 28
4.0695038 4.4928808 1.7876788 27
0.89312476 4.6092339 1.7109476 46
0.97253877 4.5776267 1.7242023 50
1.054994 4.5456409 1.7251035 50
1.5816655 4.5103898 1.7409903 47
1.7353194 4.5631466 1.7458359 53
2.4178772 4.5236673 1.7583236 32
2.8435526 4.5667768 1.7778293 32
3.2296505 4.5146976 1.7932616 26
4.6550288 4.6035933 1.7820712 30
0.46675199 4.7707863 1.7244292 38
0.8091566 4.6542468 1.7114598 49
1.7123005 4.6875291 1.742323 43
1.871496 4.6912632 1.7421614 41
2.4592071 4.7496867 1.7525088 33
3.3527069 4.7993598 1.7759677 32
3.7189019 4.6767845 1.7929081 29
4.0343714 4.6864429 1.7978734 57
4.6792808 4.6513901 1.79275 31
1.4335495 4.8903756 1.7260524 41
2.0219653 4.8349214 1.746744 34
2.1767254 4.9087782 1.7425367 36
2.93471 4.8296213 1.759885 33
4.2610497 4.8373089 1.7968513 33
4.6552939 4.8757277 1.783204 28
5.4390736 4.8242574 1.7994958 26
7.5232329 4.8499327 1.7453057 29
0.52681798 4.9889655 1.712572 52
1.2941637 5.0515771 1.7107915 39
1.3606848 4.9645176 1.7218465 40
2.1825693 4.9976249 1.7432307 32
2.3400254 5.0285254 1.7390341 35
3.9659445 5.0801301 1.7917298 49
7.1382418 5.0662737 1.7811185 5
0.59727675 5.2365718 1.7085294 43
0.81631213 5.2181411 1.7122122 47
1.2182087 5.1396122 1.7053968 35
2.5185864 5.1588244 1.7433895 34
3.0410087 5.1352115 1.7517148 28
3.5254416 5.1431937 1.7560643 28
1.8430839 5.324235 1.7205763 29.5
2.693845 5.2817969 1.7346653 35
2.7212315 5.3253379 1.7450722 29
2.8842428 5.3882589 1.7350639 28
4.6226459 5.3193231 1.7902228 23
0.67017144 5.519134 1.6993736 34
0.91049856 5.4681678 1.7029015 36
1.7699406 5.5294414 1.7009712 33
3.0928636 5.5022702 1.740456 30
3.7264283 5.5481267 1.7464417 32
4.2453766 5.5154753 1.7669915 18
1.7201493 5.6982374 1.6966215 33
2.3763044 5.6612148 1.7201191 29
3.3346586 5.658052 1.7450761 32
5.3917103 5.5815492 1.7967137 27
1.02169 5.7507601 1.7007593 35
1.2393488 5.7408152 1.7038723 36
3.3135433 5.7093616 1.7323881 32
3.5224288 5.7791605 1.729957 32
6.1968617 5.7799373 1.7832764 23
2.35378 5.8575234 1.7107066 28
3.7660601 5.8801527 1.7426161 20
5.0607376 5.8767061 1.7674354 24
1.141932 6.0738773 1.6906408 28
1.3782396 6.0248847 1.6952878 36
2.354553 6.0962343 1.6955272 30
2.9701071 6.1052332 1.7177862 33
4.0471282 6.0148959 1.7498666 25
4.5717959 6.0313306 1.7507502 26
4.0717983 6.2083063 1.735361 27
4.2955647 6.2354445 1.733709 23
4.5590987 6.291904 1.7476701 26
1.5407366 6.3537068 1.695249 31
1.7609868 6.3567586 1.6951135 32
2.3451357 6.3529477 1.6867536 32
3.004909 6.3979206 1.7049493 24
4.8667521 6.3822556 1.7556537 26
5.5457096 6.507915 1.7336417 16
5.6193166 6.5474091 1.6988686 25
1.7161355 6.7134919 1.680319 23
1.9485512 6.6648817 1.6840235 33
3.6876478 6.625659 1.723152 26
5.2266803 6.7454758 1.739746 26
5.4430256 6.6773877 1.7381171 5
3.0787926 6.7615376 1.6893526 23
4.98069 6.7566228 1.7323753 28
2.1771462 7.0463009 1.6873616 36
2.4138167 7.0967274 1.6859776 32
3.1419792 7.1489787 1.6754864 24
3.8194692 7.0618949 1.7108377 27
4.5401778 7.2023678 1.7257587 25
9.8388147 7.3202672 1.7226418 63
2.4281135 7.4718666 1.6742235 25
2.6656103 7.4392753 1.6730427 25
3.992285 7.5586433 1.6834377 25
2.9699667 7.8694291 1.6763371 28
3.2542458 8.0160484 1.6774544 27
3.298161 8.3205318 1.6537329 24
4.4943085 9.4419384 1.7236415 4
0.25629485 -5.8995581 1.8774 51
0.43298721 -5.9311872 1.9277171 71
0.57351196 -5.7608929 1.8917838 25
0.68822992 -5.6525712 1.874864 24
0.81546611 -5.5751791 1.8455108 6
0.77340025 -5.5221071 1.9327084 22
0.49217236 -5.3705306 1.8776125 22
0.67036599 -5.1594982 1.874792 64
-0.74252051 -4.4944396 1.9136509 72
-1.5051246 -4.2697897 1.8257571 64
-1.350634 -4.3308649 1.8760012 51
-1.27329 -4.2324133 1.9224502 62
-1.3848342 -4.1632657 1.9461201 48
-1.2025307 -4.1766844 1.8396021 33
2.1410789 -4.0644617 1.94424 1
-1.8816239 -3.912127 1.8477641 2
-1.7297244 -4.0471201 1.9283262 64
-1.5517573 -4.046998 1.9421729 55
-1.3962494 -3.979254 1.9318562 52
-1.4446518 -3.830055 1.9180239 3
-1.6888809 -3.6458092 1.9231483 53
2.5293219 -3.6214762 1.8566719 25
2.7671225 -3.3180895 1.8806826 29
2.4392829 -3.2062356 1.9163125 72
2.7741127 -3.2650871 1.9177268 39.5
2.915216 -3.1684036 1.8513631 30.5
2.5296047 -3.0891185 1.8956026 60
2.5716319 -3.0793033 1.8634158 45
2.9172044 -3.1351039 1.8691598 56
3.0080702 -3.0626364 1.9063851 69
2.6506803 -2.9783616 1.8900179 64
2.7525418 -2.8672562 1.9215671 67.333336
3.129792 -2.9541445 1.9368774 57
-3.081701 -2.7612963 1.8529032 31
1.5899887 -2.7038214 1.9349757 11
2.8598273 -2.72475 1.9037746 60
3.2645614 -2.8245506 1.8889177 68.75
-3.3650787 -2.5684621 1.8049237 90
-3.2596989 -2.6480026 1.8312619 80.5
1.5062335 -2.6003399 1.9104029 12
2.9913042 -2.5951982 1.8989516 61
3.2552197 -2.5869687 1.9071676 11
3.3744953 -2.6579785 1.843757 51
-3.5293045 -2.413434 1.8045522 94
-3.3771596 -2.5120025 1.8448198 72
-3.0751622 -2.4554873 1.860335 45.5
0.94508976 -2.4080858 1.9423817 9
1.1205395 -2.4883971 1.9476389 10
3.1373491 -2.4337869 1.8683196 67
3.5156977 -2.499172 1.877324 52.666668
-3.5761976 -2.2994943 1.8454915 59.5
-3.369766 -2.3083258 1.8564323 31.333334
-3.1710663 -2.3738546 1.8588647 17
0.61597347 -2.2601318 1.9437784 7
0.79713851 -2.336462 1.9441459 8.25
1.1853594 -2.2763824 1.9338014 18.5
1.2918551 -2.3288767 1.9420469 15.2
3.2362337 -2.3419573 1.8826445 68
3.5953739 -2.3558557 1.9433509 17
3.6771226 -2.3266411 1.8715681 53
-3.7544355 -2.1953964 1.8155683 56
-3.6288333 -2.1458883 1.8480256 16.5
-3.5090356 -2.1874678 1.8686565 0
0.58350378 -2.2120399 1.9369546 7
0.66275573 -2.2061915 1.9377036 8.5
0.82039678 -2.1262324 1.9468011 11
0.9365561 -2.1543946 1.9366937 9
1.1074353 -2.2016311 1.9084936 12
3.789494 -2.2068291 1.8469467 45.5
-3.9052048 -2.0196679 1.8392853 20
-3.8673244 -2.0675209 1.8444182 13
-3.4017103 -2.0557203 1.8668858 0
-2.5164857 -1.9595971 1.8522006 12
0.40902698 -1.98657 1.9250911 3
0.58309913 -2.0461607 1.9332439 9.5
0.67414922 -1.9914879 1.9351315 11
0.80255061 -2.0687792 1.9358809 11
3.8958781 -2.093998 1.8242661 59
-2.6360016 -1.8551762 1.8489928 26.5
-2.3931077 -1.843191 1.8589386 31
0.19232413 -1.8862271 1.9166616 84.5
0.43022898 -1.8698885 1.9251529 8.5
0.53210235 -1.8916159 1.9285101 11
-2.7865739 -1.7354697 1.8431627 2
-2.5570743 -1.7398351 1.8470093 37
-2.5419426 -1.6980687 1.850263 52
-2.2893858 -1.6922652 1.8623661 60
-2.033298 -1.7540728 1.8600467 5
-0.0093555935 -1.6762987 1.896185 77
0.09574949 -1.7323152 1.9005028 75.833336
0.28514373 -1.6594846 1.909505 3
0.39402747 -1.72885 1.9187026 11
0.46066821 -1.7863066 1.9231206 13
-2.6211128 -1.6307752 1.8482865 5
-2.4488764 -1.6026745 1.8521408 58
-2.1108732 -1.5416887 1.8794692 26.5
-2.0259318 -1.5860881 1.8549248 60
-1.94142 -1.6144485 1.861879 25
-0.072685324 -1.5720675 1.8901731 78.85714
0.068189122 -1.586062 1.8988147 63.25
0.32103413 -1.6365355 1.9147779 11
-2.8016489 -1.3794417 1.8531905 8
-2.3429067 -1.4726508 1.8555123 5
-2.1669834 -1.4932464 1.8499674 60
-2.0244362 -1.3912205 1.8519114 59.333332
-0.35878175 -1.3634872 1.8887324 74.5
-0.21594371 -1.4144984 1.8882966 80.777779
-0.06627503 -1.4384117 1.895502 71.666664
0.054545578 -1.4563655 1.8999861 66.666664
-2.1605728 -1.2891622 1.8441883 27
-1.879033 -1.2733214 1.8527899 66.5
-1.5590138 -1.2279131 1.8583835 13.5
-0.93543851 -1.3430109 1.8529388 1
-0.84438944 -1.2442427 1.8647468 53
-0.47022533 -1.2448045 1.8756751 69
-0.36769024 -1.2730052 1.8806456 66.333336
-0.23298194 -1.268654 1.88573 61.142857
-0.065112337 -1.2724822 1.8930435 64.800003
0.047194999 -1.3330672 1.8976761 47
-2.0386124 -1.1701182 1.8469187 48.25
-1.8904786 -1.0579247 1.8508331 66
-1.6728104 -1.1929002 1.8513166 73
-1.5877566 -1.0699059 1.8554388 70.333336
-0.81055808 -1.1079164 1.8685181 82
-0.69946533 -1.1250979 1.870751 76.800003
-0.50390959 -1.1185906 1.876696 73.199997
-0.37592092 -1.142772 1.8925023 42.333332
-0.20684476 -1.1225158 1.8881187 49
-0.094133943 -1.1433131 1.8904089 61
-2.1029241 -1.0294496 1.9032997 150
-2.0321782 -0.94700342 1.8603493 64
-1.6993828 -0.95674235 1.8456072 77.5
-1.5914102 -0.98834372 1.8517514 71.666664
-1.4461128 -0.96142137 1.8549299 70
-0.80566871 -1.0189886 1.8688036 37
-0.66811866 -0.96761531 1.8635478 85.25
-0.51736361 -0.98047119 1.8688933 68.14286
-0.3875418 -0.99068612 1.8710842 49.57143
-0.25709102 -0.99306971 1.8800764 34
-2.159929 -0.80722493 1.8563198 2
-2.0786278 -0.81500167 1.8480502 2
-1.9423791 -0.88989937 1.8543223 35
-1.7186296 -0.84592772 1.8426597 46.5
-1.5860325 -0.85986525 1.8500934 71.333336
-1.4640794 -0.80500156 1.8721217 23
-1.2728628 -0.82822102 1.8539854 71
-1.1891758 -0.77522564 1.8501576 64.5
-0.66596824 -0.80539578 1.854266 67.333336
-0.53699857 -0.82973784 1.8608749 65.714287
-0.38170242 -0.83305639 1.8505026 25.666666
-0.27728325 -0.82448387 1.8616781 20
-1.5806499 -0.70771945 1.8467047 7
-1.4936454 -0.65549642 1.8469619 81
-1.2775772 -0.66434753 1.8509562 86.599998
-1.1272296 -0.65471458 1.8475797 73.25
-0.92895466 -0.64449346 1.8330506 2
-0.65203869 -0.6822443 1.8406947 44
-0.51581484 -0.67237222 1.8451828 32.400002
-0.3976852 -0.66281646 1.8526771 52.200001
-2.2259943 -0.49879006 1.8166817 63
-1.369622 -0.59958887 1.851251 87
-1.2909963 -0.50149822 1.8409579 84.25
-1.1508013 -0.49772194 1.8373019 73.666664
-0.98701572 -0.52634466 1.8432215 81.75
-0.83549678 -0.48817715 1.8315071 32.599998
-0.62465864 -0.49087295 1.8467708 57.666668
-0.52710134 -0.52551603 1.8494751 64.199997
-0.40035042 -0.53071415 1.8524383 75
-2.2984207 -0.42775837 1.8094212 69.5
-2.1779046 -0.37374929 1.8154941 77.5
-2.0594134 -0.41230738 1.8209399 76
-1.5587382 -0.37219051 1.8350028 76
-1.3928208 -0.3780407 1.8364042 95.666664
-1.2745726 -0.36082378 1.8361305 88
-1.1308346 -0.37909257 1.8362999 74.333336
-0.97460932 -0.40763509 1.8391428 79.75
-0.76559544 -0.3631838 1.838594 47
-0.67396593 -0.38597935 1.8428242 68.800003
-0.54294366 -0.39144582 1.8503281 76.800003
-0.43774286 -0.40793324 1.8511288 75
-2.3190622 -0.22421758 1.8068966 73
-2.1759226 -0.21143745 1.81144 74
-2.0728583 -0.23974235 1.8136855 80
-1.8121219 -0.20764828 1.8263506 79
-1.7079053 -0.21595182 1.8229429 84.5
-1.6017667 -0.25534418 1.8276016 85.5
-1.4112422 -0.19530904 1.8305616 101.5
-1.2735016 -0.22769073 1.8292526 82.800003
-1.1060143 -0.27356085 1.832455 78.666664
-0.9751581 -0.19613349 1.826679 57.400002
-0.82878757 -0.23139258 1.8356537 69.833336
-0.67298347 -0.22445025 1.8424987 79.166664
-0.55004483 -0.23893735 1.8467821 77.571426
-2.5850792 -0.10193992 1.8004433 72
-2.3288515 -0.034690097 1.8050092 74
-2.2003968 -0.047946461 1.8024924 73
-2.0837121 -0.068535566 1.8078064 76
-1.8285327 -0.082492851 1.8141387 84
-1.7188323 -0.057526261 1.8169142 86.75
-1.615176 -0.11009012 1.8251182 86
-1.399644 -0.049761385 1.8238269 106
-1.26671 -0.10636225 1.8226138 71.75
-1.1322489 -0.06452366 1.8251725 68
-0.94730461 -0.052441932 1.8258073 81.714287
-0.83205658 -0.075284161 1.8283062 77.571426
-0.67526466 -0.066082411 1.8377686 79.875
-0.54784197 -0.071791701 1.8381518 78.5
-2.5770504 0.051875237 1.801181 13
-2.0806508 0.070406102 1.8070306 59
-1.840921 0.043094426 1.8105623 75
-1.6872585 0.061547183 1.8109156 75
-1.6218531 0.034174569 1.8191798 85.5
-1.4230295 0.057238102 1.821551 111
-1.2229216 0.093823157 1.8184143 69.75
-1.1138115 0.10337934 1.8169457 85
-0.95868903 0.081147194 1.8214996 82.85714
-0.84238642 0.067060277 1.8259264 79.571426
-0.67080641 0.067507356 1.8315541 80.875
-0.51516986 0.075281739 1.8303975 83.5
-1.3781805 0.22851694 1.8172827 104
-1.2598404 0.23715147 1.811133 80.75
-1.1385251 0.23800619 1.812645 80.666664
-0.95859098 0.21465063 1.8166095 83
-0.83234769 0.2154627 1.8233645 77.714287
-0.66625255 0.22062631 1.8293575 79.63636
-0.51589465 0.2382399 1.8261288 85
-1.5896771 0.44282463 1.805298 88
-1.3980659 0.36873314 1.8110247 99.666664
-1.2748051 0.38357261 1.8085575 82.25
-1.1296388 0.36425456 1.8100528 81
-0.99182326 0.36992681 1.8116096 78.333336
-0.846295 0.37326062 1.8135968 76.181816
-0.66906887 0.37359062 1.8209463 80.14286
-0.54641467 0.39280063 1.8232082 78.25
6.1487951 0.35314611 1.8491088 30
6.2436142 0.43538314 1.8096632 21
-1.4054742 0.54542589 1.8036025 101.5
-1.2981749 0.47749588 1.8066746 89.666664
-1.1158422 0.4913424 1.810335 79.333336
-0.9621135 0.51847327 1.8091511 78
-0.82976437 0.53456128 1.8113756 75
-0.66465765 0.52886575 1.8133019 80.875
-0.54753995 0.55179566 1.8165793 78.5
-1.4005667 0.65300369 1.8053118 96
-1.2564582 0.68603849 1.8057923 95.166664
-1.10031 0.64784771 1.8043818 79.75
-0.94586509 0.67689097 1.8048254 79.25
-0.80982393 0.66448033 1.8069668 74.875
-0.69342488 0.70649385 1.8069702 75.166664
-0.54397291 0.66283685 1.810725 79.599998
-0.44900423 0.70972747 1.8115813 88
-1.2792158 0.78721839 1.8013099 103
-1.1385875 0.84153867 1.8030057 96
-0.97774667 0.83154583 1.8025664 87
-0.83651489 0.81669575 1.8040639 76.25
-0.67188025 0.81562424 1.8056895 76.285713
-0.52034187 0.83183354 1.8115187 73.833336
-0.40859157 0.84804368 1.8110257 78.5
-1.0561539 0.98554474 1.8027662 88
-0.96389019 0.91952479 1.8033137 94.5
-0.80762392 0.97249699 1.8040143 87
-0.66055936 0.97217453 1.8059996 82.571426
-0.52638978 0.97992474 1.8078746 78.714287
-0.39471066 0.97831702 1.8095907 64
-1.0164247 1.1135061 1.8005038 83
-0.65610796 1.1161418 1.8058425 84.666664
-0.51954836 1.1337535 1.8050085 86
-0.38184166 1.1154686 1.8106817 78
-0.26945481 1.1935046 1.8136538 75
-0.53193271 1.2789074 1.8066875 79.25
-0.38038516 1.2715212 1.8052044 75.833336
-0.25375944 1.2811911 1.8139794 70.5
-0.51201081 1.3680576 1.8006989 79
-0.40595666 1.4124258 1.8012327 71.25
-0.2200212 1.4083861 1.8079706 70.800003
-0.21839355 1.5371153 1.8027636 74
-0.093191184 1.5588719 1.802166 71.666664
-0.13443355 1.6508696 1.8023647 77
5.0941772 2.4520025 1.8934473 28
4.8184214 2.5910437 1.8838726 27
5.5805626 2.5573068 1.9055744 30
1.721863 2.7983978 1.8047143 49
4.2232504 2.792872 1.8595744 32
4.5218635 2.7024553 1.8706228 32
5.2714348 2.7226026 1.8902053 28
1.7860928 2.9815543 1.8056132 52
1.9603653 2.8512909 1.8048707 50
2.199235 2.9462986 1.8070145 44
2.4711187 2.9239707 1.8084038 44
2.7579072 2.9554329 1.8223375 16
3.0391684 2.9574625 1.8268951 40
3.3308761 2.9468458 1.8350443 36
3.629164 2.9159429 1.8440367 35
3.9354255 2.8717828 1.8565482 37
4.6346312 2.9850681 1.8724307 27
4.9573708 2.8659074 1.8799313 28
5.4017525 2.9931374 1.8733047 30
5.7944875 2.8619299 1.8828808 33
6.5075841 2.960407 1.9046689 25
2.009119 3.0503349 1.8016207 44.5
2.2958086 3.1208162 1.8050778 44.5
2.4744399 3.0642121 1.8094774 18
2.6365335 3.1421852 1.8139788 37
2.7827134 3.1198933 1.8127853 36
3.9568932 3.1344185 1.8514744 31
4.2974911 3.0737946 1.8620747 30
4.9874911 3.0836496 1.8587369 28
5.723547 3.1371691 1.8743068 31
6.0960069 3.116015 1.8906299 35
6.1903214 3.0119386 1.9009844 34
1.033466 3.1515646 1.8091244 16
2.3630006 3.2640848 1.8006486 16
2.5743222 3.2256999 1.8109192 38
2.9354911 3.23562 1.8224891 33.5
3.1098251 3.1630828 1.8180877 35
3.2739005 3.175812 1.8285338 35
3.4573114 3.1903176 1.8239058 32
3.6197495 3.1732063 1.8443626 31
3.830054 3.2068098 1.8366309 32
4.2033782 3.1900849 1.8422939 33
4.5940504 3.1518657 1.8512663 33
5.3012624 3.2509613 1.8667132 31
5.6656609 3.2309945 1.8723685 33
7.298501 3.21331 1.904147 26
2.6658061 3.3267019 1.8046533 37
2.930522 3.3987689 1.8058448 34.5
3.2326427 3.364141 1.8125046 29
3.3298554 3.4184165 1.8162948 32
3.6699944 3.4122026 1.8304498 31
4.041296 3.3863211 1.8412539 32
4.4495478 3.4003434 1.8448946 29.5
4.8646774 3.3621716 1.8565106 28.5
5.2643843 3.3310361 1.865285 30
6.0833173 3.4441893 1.8476998 22
6.7053537 3.3642669 1.8807689 23
7.5125499 3.3652539 1.9015175 26
3.2601187 3.5088522 1.8059193 29
3.6536374 3.5302262 1.8137342 31
4.0649776 3.4876356 1.8273644 32
4.5316911 3.5518067 1.8257245 26
5.0254278 3.5500033 1.8313335 28
5.5597243 3.5253711 1.8437759 32
6.9018302 3.5196164 1.881456 25
7.7604389 3.4515886 1.8831507 27
8.1513691 3.5729506 1.9263853 18
3.1052029 3.6185579 1.8002959 30
3.2724512 3.6982164 1.8034974 30
3.5292633 3.7205045 1.8155075 31
4.14569 3.6534591 1.8217455 31
4.6323767 3.6892209 1.8272818 35
5.1644979 3.7062407 1.8399044 30
5.7047372 3.6752539 1.8460568 21
6.3213115 3.635596 1.8717011 21
7.2274003 3.646868 1.8870641 27
3.7475736 3.8317456 1.8085281 31
3.7912524 3.7661796 1.8013967 31
3.9592388 3.7800467 1.8151065 31
4.321588 3.8763232 1.8066849 27
4.4325242 3.8317297 1.8242472 27
4.9402761 3.8625019 1.8341819 30
5.456892 3.8501942 1.8373224 32
6.0277939 3.82461 1.852646 24
6.6326571 3.7650087 1.8735782 27
7.6314387 3.8181057 1.9114417 27
4.2727642 3.9514384 1.8129297 27
4.9103627 3.9679177 1.8135978 30
5.5294895 4.0149708 1.8122615 27
7.0647359 4.0014052 1.8910757 25
7.7513599 3.9459379 1.8456944 27
8.4303312 3.9354899 1.8311526 19
3.3057458 4.0822797 1.8055726 31
3.7751949 4.1684279 1.8136796 26
4.8522882 4.0514245 1.817865 30
5.4602647 4.1058044 1.8132163 29
6.2353859 4.125412 1.8367602 26.5
6.4785862 4.1282201 1.8707613 24
6.9996548 4.1226912 1.8510073 26.5
7.7399311 4.120132 1.8536521 27
3.6411715 4.2400546 1.8023039 31
4.1516542 4.3441033 1.8032845 27
4.2586942 4.2158413 1.8157884 28
4.7859669 4.2505307 1.8280464 30
4.8760824 4.2702551 1.804618 30
5.3223085 4.2402821 1.8353966 26
5.9095039 4.2165766 1.8568143 24
8.0241833 4.3193455 1.8463982 13
4.7231641 4.4458289 1.814027 30
5.5574503 4.3795967 1.8237034 20
6.2520337 4.4226956 1.827423 25
7.0600567 4.4611816 1.8503383 25
7.7644634 4.3626966 1.8326246 17
5.3579988 4.534224 1.8323978 21
6.0017147 4.5615077 1.8395883 26
6.7159538 4.5697308 1.8584522 28
7.4654832 4.5287914 1.8788587 27
5.3955083 4.8257918 1.8131489 23
6.1367598 4.9363003 1.8161505 24
4.8968077 5.0246782 1.8164612 21
6.2866502 4.9952002 1.8037659 29
7.0024867 5.0481782 1.8369614 27
5.4445052 5.1348319 1.8014334 26
5.5516515 5.1568937 1.8190087 26
6.3060799 5.3240995 1.8193755 27
6.9916625 5.3129096 1.809009 3
7.9829102 5.4630032 1.853506 22
7.3260174 5.574614 1.8191258 18
8.4456282 5.7410803 1.8247739 27
8.3308792 6.2756476 1.81068 20
9.679491 6.5247469 1.8375367 11
0.054819506 -5.6096311 2.0222392 42
-0.12567106 -5.5386014 1.9580244 66
0.22083934 -5.5463958 2.022351 57
0.35224736 -5.4594307 2.0117023 71
0.47148168 -5.3525295 1.9858342 82
-0.46610975 -5.1113005 1.9934818 47
0.17704563 -5.2054877 2.0527864 15
0.4223569 -5.2187576 2.020479 21
-0.28793001 -5.0665197 2.000113 44
-0.12136787 -5.0369706 2.0087612 25
0.36093307 -5.0073781 2.0035453 21
0.1051708 -4.9100461 2.0908468 44
-0.41037673 -4.7521005 2.0805304 68
-0.26432693 -4.7191825 2.086206 53
-0.13066994 -4.7653184 2.0868106 42
0.059475821 -4.7492561 2.0778382 45
-0.5771926 -4.6142783 1.9932541 22
-0.1510451 -4.5977626 2.082695 44
-0.84062064 -4.3635125 2.0724175 67
-0.18462376 -4.4636269 2.0737872 52
-1.004915 -4.2435808 1.9945203 15
-0.66486889 -4.3274074 2.0634351 57
-0.51547486 -4.3174486 2.0759933 54
-0.39061737 -4.2941532 2.0728805 48
-0.22109628 -4.3465891 2.0637469 51
0.27366918 -4.3102303 2.0953906 59
0.41532332 -4.2667642 2.0938458 15
-0.41530085 -4.1074381 2.0572219 54
0.73145252 -4.073276 2.0902431 15
-1.2382495 -3.9530938 2.0462475 64
-1.0534046 -3.9494319 2.0464118 58
-0.87941915 -3.9499209 2.0498703 57
-0.7280941 -3.9359186 2.0545566 58
-0.46139786 -3.9810455 2.049803 60
-0.024973441 -3.9621837 2.0705898 55
0.12345688 -3.9482298 2.0782161 45
0.26437819 -3.9481442 2.0946355 7
0.48985904 -3.9095175 2.0979869 0
0.67721766 -3.9577041 2.0871069 37
-0.6098752 -3.8272038 2.0535526 53
0.44926828 -3.776721 2.0905693 7
0.62762696 -3.8549514 2.0783889 47
1.4464982 -3.8018789 2.005517 0
1.7343278 -3.7631521 2.0165963 6
1.9450853 -3.7683682 2.0124459 9
-1.6511399 -3.6222267 2.0182991 71
-1.564546 -3.7282741 1.9929413 42.333332
-1.0652838 -3.6018565 2.0334072 53
-0.91337371 -3.6037433 2.0409532 60
-0.65247333 -3.6739807 2.037673 56.5
-0.2816298 -3.6586406 2.058991 57
-0.1309415 -3.6468563 2.0606892 48
0.012163353 -3.6459432 2.0710676 16
0.4035762 -3.6622221 2.0672944 16
1.6693177 -3.7332036 2.0142996 1
-1.6816593 -3.4687147 2.0221856 55
-1.4179728 -3.5641143 2.0226448 58
-1.239918 -3.5951924 2.0346816 59
-0.78644544 -3.5032053 2.0425675 53
0.199091 -3.4727426 2.0689876 6
0.36710083 -3.5980134 2.0660851 19
1.3846896 -3.5063176 2.0077031 6
1.597653 -3.5533805 2.0085449 7
1.8054664 -3.5807576 2.0012043 8
-1.7074177 -3.3475685 2.0066481 27
-1.076586 -3.3087614 2.034739 59
-0.81923079 -3.3878133 2.0326176 47.666668
-0.50729787 -3.3733132 2.0483055 52
-0.35323614 -3.3793254 2.0535929 40
-0.20602684 -3.3912122 2.0668514 11
0.13518493 -3.3544168 2.0543804 11
0.16644005 -3.3997023 2.0568957 8
0.58231932 -3.3252828 2.0639157 59
1.2934779 -3.3533096 2.0081306 6
1.4928045 -3.4010098 1.9962224 7
1.6968652 -3.4342959 1.9960946 7
-1.5777941 -3.2270839 2.0144036 54
-1.396543 -3.2574804 2.0162776 45
-1.227396 -3.2899845 2.0232575 58
-0.93794918 -3.1766768 2.0331175 15
-0.014271426 -3.2007506 2.0554228 6
0.0022103309 -3.2614603 2.0546539 0
1.0885098 -3.2810473 2.0072756 6
1.214397 -3.2323704 1.9953831 7
1.4160513 -3.2946918 1.9966975 6
2.2040427 -3.1956253 2.0096989 14
2.4296744 -3.1996176 1.9889244 72.666664
-1.3756622 -3.0212183 2.0281432 24
-1.2144036 -3.016696 2.0144658 31
-0.9752118 -3.0959244 2.0264285 5.3333335
-0.70358592 -3.0916188 2.0282021 29
-0.5494206 -3.1329267 2.0528612 9
-0.057072945 -3.1290731 2.0372818 14.5
0.32882148 -3.1139302 2.0441535 55
0.50649273 -3.0837853 2.0537043 60
0.96579415 -3.0690227 1.9953128 7
1.1541567 -3.1448267 1.9900342 7
1.873394 -3.0289371 1.9903117 13
2.0810056 -3.134511 2.0022483 7
2.1531456 -3.1327696 2.003417 11
2.3208811 -3.1183057 2.0005691 49
2.4677782 -3.0409729 1.9946467 49
-0.21692497 -2.9342394 2.0320044 31
0.10447125 -2.9146078 2.0319071 63
0.23385049 -2.9061615 2.0408311 59
0.39610189 -2.8746471 2.0432768 63.5
0.91319162 -2.9896228 1.9774157 5
1.4944116 -2.9401455 1.9834934 6
1.9968123 -2.9831333 1.987625 12
2.1631219 -2.949208 1.9880146 49
2.314625 -2.8825328 1.9914302 49
2.5141566 -2.8771892 2.0063443 44.5
2.5972543 -2.9348173 1.9970161 47
3.1178586 -2.9698882 1.9585747 61
-0.35689574 -2.7234392 2.0268705 61
-0.095214754 -2.7287693 2.0250545 65
0.037744027 -2.7204404 2.0283086 68
0.16055249 -2.7091143 2.0307734 71
0.41551131 -2.715369 2.0428617 69
1.0034152 -2.7426922 1.9873513 6
1.2303596 -2.8287694 1.9732395 6
1.3733695 -2.7761521 1.9786919 6.5
1.7478011 -2.7966437 1.9755038 11.5
1.8736682 -2.8422735 1.9738489 11
2.0420756 -2.8151178 1.9814347 52
2.1975517 -2.7659278 1.9961131 48
2.3592577 -2.7081139 1.9935116 48
2.4041448 -2.7406356 2.006639 47
2.6372571 -2.7457032 2.004154 43
2.7146528 -2.814873 2.0181315 49
2.8734679 -2.7128427 1.9896041 73
-1.1773387 -2.5749698 1.9971823 5
-0.58870322 -2.6747162 2.0183854 6
-0.40230155 -2.6896441 2.0164449 62.5
0.26018196 -2.6915557 2.0350246 74
0.36138797 -2.6431386 2.0320394 68.333336
0.82347399 -2.6187303 1.9933405 7
1.1127971 -2.6489265 1.9605016 6.3333335
1.2405614 -2.6333981 1.9582206 6
1.9008069 -2.6333692 1.9918576 48.333332
2.0517988 -2.6044476 1.9890069 47.333332
2.177433 -2.6195421 1.9867989 46
2.2949643 -2.6349661 1.9955746 45
2.5150704 -2.6258523 1.9913542 43.5
2.7970452 -2.6489396 1.9994357 41.5
3.0135324 -2.5708556 1.9638993 68
-1.2413342 -2.5389519 1.9928125 10
-1.0070213 -2.410624 2.0001104 26
-0.85661304 -2.4499197 2.0012026 31
-0.72164363 -2.4760885 2.0099607 42
-0.52267194 -2.4977767 2.0167513 61
-0.27611893 -2.5441813 2.0188365 70
-0.07387504 -2.5446043 2.0244358 64
0.095954195 -2.5295658 2.0292039 69
0.20094872 -2.4947791 2.0297062 65.5
0.73604578 -2.4303904 1.9728481 7
0.98897976 -2.5091808 1.9566059 8.333333
1.161871 -2.5293205 1.9533783 8
1.4251256 -2.4213669 1.9665147 13
1.5907958 -2.4789104 1.9692103 45.799999
1.7206025 -2.4846296 1.9730411 49
1.8517097 -2.5126855 1.9785743 46
1.9850233 -2.5242755 1.9735864 43
2.150223 -2.4862182 1.9780294 49
2.3874757 -2.5056067 1.980786 40
2.6286426 -2.5099769 1.9805251 43
2.8932202 -2.5144773 1.9917866 44
3.1155429 -2.4674225 1.9696602 69
-1.2905999 -2.324949 1.9925427 35.666668
-1.1631944 -2.3605287 1.9972526 29
-0.97860438 -2.2557774 1.9992651 65
-0.84078777 -2.2911448 2.0066051 67
-0.64859664 -2.2957015 2.0086465 70.25
-0.43858337 -2.3631637 2.01215 69
-0.23064274 -2.3760371 2.015523 64.5
-0.05133735 -2.3744235 2.0238016 65
0.044618949 -2.3322301 2.0228558 66.5
0.21844395 -2.3101771 2.0245609 63
0.32811481 -2.2882807 2.0318809 50
0.57160443 -2.3329136 1.9893273 5
0.78184658 -2.3839693 1.9521617 8
0.92339462 -2.2625957 1.9543406 9
1.1166532 -2.340559 1.9601806 8
1.4124655 -2.3599598 1.9549776 25.666666
1.5243394 -2.3844612 1.9553889 48
-1.128974 -2.2045395 1.9963402 53
-0.9468711 -2.1040111 1.994233 69
-0.81043035 -2.108855 1.9892853 71
-0.58483654 -2.1857634 2.0051768 66
-0.37166864 -2.2125249 2.0084372 72
-0.18443954 -2.2227094 2.0172031 72
-0.095855258 -2.1745532 2.0164843 73
0.05286957 -2.1773047 2.0167251 71
0.22204831 -2.1469793 2.0238268 65.5
0.88020986 -2.1053736 1.952406 11
1.0000753 -2.1977649 1.9536572 8.75
1.0514613 -2.2170255 1.9635743 8
-1.0849123 -2.0596542 1.9865466 68
-0.76848274 -2.0969257 1.9889861 66
-0.72266024 -2.0614889 1.9957241 68.333336
-0.56888312 -2.0394957 1.9974571 62
-0.36782515 -2.0655429 2.0010004 73.5
-0.22231682 -2.0171657 2.0047994 75
-0.098266348 -2.0391836 2.005724 69
0.079266295 -2.0177197 2.0111194 66.5
0.16442131 -1.9738923 2.0058737 61
-0.97872472 -1.9294176 1.9836799 68.5
-0.83579981 -1.8902628 1.9882754 70.75
-0.6854673 -1.8764993 1.987271 70
-0.54404759 -1.911852 1.9946636 74
-0.36583948 -1.8909149 1.9976995 79.5
-0.26348379 -1.8733083 2.0038943 72.5
-0.10953224 -1.9004008 2.0034883 65
0.021794911 -1.8746412 2.0015428 73
-0.95413011 -1.7236571 1.9776796 73.5
-0.83959347 -1.7187889 1.9839984 70
-0.64692062 -1.7625539 1.9838847 78
-0.50681341 -1.7785957 1.9933308 83
-0.40216228 -1.727016 1.9958017 77.5
-0.22099817 -1.7136317 1.9964936 69
-0.095285401 -1.7643089 2.0016546 72.5
-0.99588466 -1.5646234 1.9803184 33.666668
-0.88215452 -1.5614758 1.9710728 83
-0.67950577 -1.5979341 1.9804503 81.666664
-0.51659739 -1.5945348 1.9889174 83.400002
-0.36344707 -1.5638098 1.980832 78.333336
-0.19786753 -1.6209781 1.9627744 102
-0.79487932 -1.4331617 1.9719565 84.5
-0.66041154 -1.4360085 1.9752513 82.666664
-0.55730402 -1.4325759 1.9821523 76.75
-0.76372516 -1.3495839 1.9734954 88
-0.64217025 -1.2897899 1.9750732 76.5
0.033069711 -5.2042031 2.112735 55
0.15289079 -5.1126208 2.1123321 42
0.61820894 -4.6704278 2.1129229 25
0.79694337 -4.261529 2.1065621 11
