# .PCD v0.7 - Point Cloud Data file format
VERSION 0.7
FIELDS x y z intensity
SIZE 4 4 4 4
TYPE F F F F
COUNT 1 1 1 1
WIDTH 251
HEIGHT 1
VIEWPOINT 0 0 0 1 0 0 0
POINTS 251
DATA ascii
1.8494258 4.1448226 -0.90708464 8
1.4851282 4.9522281 -0.93430144 6
2.3616207 6.8987937 -0.91934609 21
1.832571 1.5045009 -0.82153511 12
1.9572141 1.5451375 -0.82371008 8
1.9211154 1.8714489 -0.82899362 9
2.0472069 1.8588526 -0.82244051 9
2.1513243 1.8147167 -0.81773335 10
2.4315193 1.8984102 -0.82336706 4
2.1978283 1.9683367 -0.83071792 7
2.6550405 2.0908678 -0.75493342 101
1.1583283 2.1981075 -0.85540771 5
1.2435212 2.2401545 -0.85927343 5
1.6989807 2.1144452 -0.83917773 10
2.3553903 2.2433527 -0.82312286 4
1.2331125 2.3947885 -0.85546094 6
1.5856105 2.2953818 -0.84839422 9
2.3029883 2.3495274 -0.82993162 4
0.59431851 2.4150467 -0.86463886 13
0.60813129 2.5312412 -0.87136614 13
0.85635179 2.4394448 -0.87221372 6
1.272233 2.5466774 -0.85669786 4
2.2013702 2.4007089 -0.83524799 4
2.8515112 2.5019696 -0.83871591 6
0.61157548 2.6000609 -0.87722391 12.5
1.0431876 2.6974556 -0.87611145 6
1.5178221 2.5653565 -0.86324579 6
1.9471068 2.6799247 -0.8511371 9
2.593003 2.6043696 -0.84448814 2
0.7696498 2.8120832 -0.88537604 10
1.3197873 2.7621126 -0.86537129 4.5
3.1202638 2.7412629 -0.75338256 120
1.4650775 2.9458389 -0.87812549 6
1.8376592 2.9148674 -0.81420761 67.5
2.6993415 2.8768988 -0.83691108 1
0.95909542 3.1223249 -0.88680947 5
1.3735783 3.0218444 -0.86888427 5
2.7333841 3.0446596 -0.8402859 2
1.7431796 3.2105591 -0.76981431 5
2.699923 3.2667484 -0.85355383 2
2.7426524 3.1806748 -0.85199583 2
1.4822294 3.3360908 -0.87747061 9
1.8179057 3.4152286 -0.88148564 7
3.4757352 3.399035 -0.85195154 2
1.1912029 3.4935532 -0.89300179 6
1.5627302 3.6117601 -0.88619459 11
3.3114958 3.6954703 -0.87143284 3
1.3762933 3.8087471 -0.75896382 41
1.5891985 3.8876066 -0.88057089 5.5
1.495476 3.9290473 -0.817545 31
4.3494225 4.1970396 -0.79325765 103
3.4974027 4.3183126 -0.87364322 1
5.5007529 6.6543174 -0.7737329 28
0.29579848 -5.2916799 -0.61667484 11
0.41838413 -5.2163572 -0.65752894 2
0.2672013 -4.9381485 -0.67854249 7
0.1000347 -4.5622573 -0.6828565 7
0.3289699 -4.2884045 -0.68915784 7
0.86143738 -4.3239064 -0.6827209 2
0.1014647 -3.9529486 -0.65087116 7
0.21929748 -3.9531467 -0.69982225 6
0.54569459 -3.6854239 -0.69671869 5
0.24161521 -3.4043097 -0.66272473 34.5
0.33178952 -3.3853998 -0.65458024 53
0.18262319 -3.2474625 -0.71887732 26.333334
0.077576771 -3.0744612 -0.62991655 0
0.37438309 -3.1240458 -0.71710402 6
0.26017502 -2.9003878 -0.72889757 7.5
0.37804478 -2.9005754 -0.71184158 3
2.9014924 -2.9696703 -0.64866483 150
0.18940873 -2.7149494 -0.7050699 3
0.36603919 -2.7361922 -0.73126978 5
1.8147368 -2.7548394 -0.68940765 4
2.1439393 -2.716079 -0.69996828 4
0.25661883 -2.6055896 -0.67445368 6
0.39198375 -2.5654542 -0.73439878 5
1.5616906 -2.5814865 -0.62419713 4
1.6786993 -2.6423345 -0.67386377 2
1.908818 -2.6732371 -0.70409006 4
3.2505493 -2.5890591 -0.67164612 4.5
0.1993653 -2.505693 -0.74048525 9
0.39469779 -2.5140002 -0.60879177 2
1.6926543 -2.481297 -0.70511878 8.5
2.8792062 -2.4408422 -0.68931943 6
0.26118651 -2.3094363 -0.74345553 7.5
0.30436718 -2.3264678 -0.74447715 6
1.6537547 -2.3264406 -0.71306652 9
2.4759572 -2.2780323 -0.70411944 8
0.3187924 -2.2442355 -0.69462842 0
1.5582064 -2.151742 -0.7141484 12
2.7532542 -2.2225649 -0.69343424 10
3.0208189 -2.2068131 -0.69364607 7
3.3704247 -2.1976221 -0.67851287 7
1.2929811 -2.0517797 -0.72668904 13
1.442703 -2.0086265 -0.72230375 13.5
1.5673176 -2.0203753 -0.72465014 11.5
1.798924 -2.0885956 -0.71507585 6
2.6877558 -1.9512768 -0.70248091 8
2.8456931 -1.9987118 -0.70354539 6
0.75265306 -1.850665 -0.65703529 11
1.4649113 -1.8663979 -0.72864598 14
2.4349558 -1.8530091 -0.71548849 7
2.7987266 -1.8318886 -0.69074667 0
1.4047358 -1.6966953 -0.73392516 13.5
1.6041789 -1.6940328 -0.73300135 14
2.0945833 -1.7306799 -0.7239058 6
2.3445168 -1.6941217 -0.71459937 5
2.6584985 -1.7232029 -0.71356535 10
2.9409397 -1.7045548 -0.7067728 7
1.4018878 -1.6371975 -0.73960525 14
2.3605533 -1.5196878 -0.71859157 10
2.4829655 -1.549986 -0.72296667 9
1.8508613 -1.3562646 -0.73957592 4
2.131223 -1.4409034 -0.73098326 3
2.5892136 -1.4836124 -0.71156752 7
2.0884056 -1.3338389 -0.73125356 5
2.1474452 -1.2386879 -0.69143277 0
2.4506855 -1.2085041 -0.72925228 7
1.8525161 -1.0667611 -0.73252308 3
2.0569153 -1.1629748 -0.71913916 5
2.1892593 -1.1353096 -0.73217463 4
1.9189596 -1.0211933 -0.63147014 2
2.0058079 -0.95392805 -0.74435246 4.5
2.3579519 -1.0074892 -0.73877358 5.5
1.9202044 -0.79899448 -0.71816975 13
2.6338673 -0.17142957 -0.63327038 2
2.8841369 -0.17641976 -0.74736744 7
2.0762339 0.019582961 -0.65481269 74
1.5323551 0.87609035 -0.60996068 28
0.18633072 1.7578177 -0.61551237 47
0.25192577 1.8245987 -0.61453122 43
2.6376834 2.1057258 -0.64456803 109
3.9296582 2.3603983 -0.62841123 0
3.8491671 2.4393203 -0.68417531 1
1.9422227 2.7668192 -0.62812388 125
3.1112275 2.749002 -0.62543327 119
1.6759542 3.0185101 -0.67275405 21
5.6374593 3.1407702 -0.66009367 0
1.4824731 3.3198915 -0.72322959 1
1.538908 3.3142745 -0.64940095 4
2.5016677 3.3191233 -0.73049939 76
2.5562344 3.3251719 -0.66585708 0
1.1147772 3.5394521 -0.69347459 57
1.272867 3.7116921 -0.70500422 41
1.3811522 3.818054 -0.6944716 34
1.5406138 3.9815879 -0.6374436 29
4.3558102 4.199892 -0.62054479 136
2.3081436 6.9841189 -0.69797498 19
0.027603131 -5.7285314 -0.51789492 12
0.15534355 -5.691658 -0.46551359 0
0.16142567 -5.3134923 -0.58703035 4
0.93093055 -5.1384792 -0.49074233 77
0.9993493 -5.0550628 -0.48450851 55
0.080853388 -3.9568937 -0.52997011 26
0.091214582 -3.8438594 -0.46282196 41
0.26400891 -3.4384837 -0.56089914 17
1.8549731 -3.2772543 -0.58725065 0
2.8967762 -2.9859037 -0.47955254 86
3.0079293 -2.8601668 -0.54812825 55
2.3048236 -2.7370839 -0.48426697 80
3.0681808 -2.803323 -0.54827482 75
1.5716025 -2.5918097 -0.51737773 0
2.4398739 -2.6783056 -0.4505676 5
3.190773 -2.6544187 -0.48402169 103
3.3703225 -2.4847703 -0.59065825 14
1.2371192 -2.3180544 -0.54569834 3
0.95643073 -2.009587 -0.4815048 2
0.70088321 -1.8049158 -0.57641709 9
0.84482723 -1.9264938 -0.50700998 3
0.47808677 -1.6035876 -0.51258057 12.5
0.31808048 -1.4583377 -0.48763222 9
2.3149676 -1.2400988 -0.46169007 86
2.4417393 -1.0956395 -0.52466494 93
2.4963479 -1.019207 -0.46680436 111
1.6342565 -0.64423269 -0.50294834 31
1.4384519 -0.4608047 -0.51206899 58
1.535701 -0.55693227 -0.45118535 35
1.4318868 -0.42886123 -0.46444863 66.5
1.5138799 -0.33768502 -0.50785547 67.666664
1.6074584 -0.22984433 -0.49026698 67
2.4215546 -0.15573601 -0.53345311 6
2.146843 -0.041599508 -0.51055467 60.75
1.9440855 0.13920455 -0.53936332 58
2.0248508 0.054511081 -0.52177513 58
1.2572578 0.5771414 -0.4639816 38
1.1734672 0.73842955 -0.48263383 4
1.3261667 0.65074581 -0.48713237 41
1.3742541 0.70999616 -0.52459794 34
1.4305686 0.76395637 -0.47175679 29
1.5184982 0.86522657 -0.48601085 38
-0.20897873 1.3378664 -0.46724856 8
-0.18488528 1.3575065 -0.46053073 9
-0.078456454 1.4777876 -0.46063536 28
-0.042963263 1.512027 -0.49884945 49
0.056193996 1.6106039 -0.53435749 51
0.13376434 1.6951221 -0.49913931 40
0.19023241 1.7593191 -0.48310238 40
0.31720418 1.8975096 -0.52650553 40.5
2.8532159 1.9136043 -0.46265692 32
2.7542272 2.0042198 -0.51399958 112.5
2.5658605 2.1934474 -0.45335123 89
3.6067915 2.2309785 -0.45667037 26
1.8476837 2.8495076 -0.49543706 120
1.7644711 2.9368217 -0.51497167 119.66666
1.8747441 2.8616335 -0.57141364 137.5
1.6877198 3.0350904 -0.45897305 73
1.3466927 3.2938461 -0.46297374 42
2.9339144 3.2905059 -0.56356597 0
5.2598071 3.3536899 -0.5910905 51
1.0868658 3.5555124 -0.4628627 21
1.6862267 4.1252198 -0.56857693 10
0.73157376 -5.3479357 -0.44305396 8
0.57515669 -4.0417128 -0.42833725 1
0.25864112 -3.4409771 -0.42190349 35
-0.21527718 -2.9422841 -0.43327528 5
2.8252127 -2.996757 -0.41633415 8
2.9307075 -2.9349983 -0.42615086 101
3.27619 -1.9576445 -0.4196302 21
0.72637266 -1.8311628 -0.40366834 7
0.81858391 -1.9028419 -0.42436734 4.3333335
0.56581819 -1.6872001 -0.40794435 9
2.3729343 -1.1602783 -0.41041237 88
2.460422 -1.0584395 -0.44953507 22
1.5971117 -0.61073494 -0.44631904 28
1.5738722 -0.58723396 -0.40366784 36
1.424726 -0.43159091 -0.41655314 63.5
1.5047264 -0.33784226 -0.44015199 65.5
1.5825653 -0.25006399 -0.41059357 62
1.6695905 -0.1453785 -0.42723435 26.5
1.1612569 0.46861643 -0.42904574 8
1.2025181 0.52241594 -0.4208405 40
1.3042583 0.62755704 -0.42210743 32
1.3645946 0.69525915 -0.41970083 41
1.4604429 0.80342758 -0.42923605 31
1.5635384 0.91501552 -0.41344634 36
-0.35317373 1.1919562 -0.40028831 10
-0.33508039 1.2107329 -0.4215506 10.25
-0.2829937 1.2608207 -0.41908753 10.666667
-0.16192454 1.3914379 -0.41212904 8.5
-0.11260851 1.4442228 -0.4466728 11.5
-0.024280716 1.5399919 -0.43416947 34.5
0.038320761 1.5920993 -0.41185525 51
0.28361022 1.8688211 -0.42473793 46
2.6879025 2.0670209 -0.40475559 108
2.6258245 2.1303341 -0.4290176 109
3.6565895 2.1355543 -0.43780226 54
1.8740847 2.8384156 -0.4113344 124
1.6419541 3.1138411 -0.42549556 57
1.6646838 3.1261868 -0.43405336 42
2.7213175 3.0549257 -0.43642738 58
1.1793175 3.608254 -0.40473109 39
