# .PCD v0.7 - Point Cloud Data file format
VERSION 0.7
FIELDS x y z intensity
SIZE 4 4 4 4
TYPE F F F F
COUNT 1 1 1 1
WIDTH 1542
HEIGHT 1
VIEWPOINT 0 0 0 1 0 0 0
POINTS 1542
DATA ascii
-0.49515909 -1.8853221 -0.18427557 106.5
-0.53543723 -1.7665343 -0.17268774 54.5
-0.35853323 -1.7792377 -0.18212755 18.666666
-0.22639641 -1.376533 -0.16850434 6.25
-0.11082153 -1.3680861 -0.18089047 7
0.068603024 -1.3917308 -0.15556543 7
-0.17684588 -1.3283707 -0.18082801 2
-0.013216036 -0.93764889 -0.18806742 16
0.55076653 -0.76552773 -0.17539375 11
-0.018127609 -0.70547241 -0.17347471 3.6666667
0.069549948 -0.66274172 -0.16605738 4
0.18983448 -0.61545461 -0.1734789 3.3333333
0.31175885 -0.62671053 -0.160942 7.5
0.57629228 -0.72157496 -0.17433393 9.666667
0.62561178 -0.64295352 -0.17780408 9.3999996
0.21310224 -0.58019572 -0.17798071 4.8571429
0.65272105 -0.56304872 -0.17294976 10
0.44944972 -0.35399023 -0.18366213 14
0.4702104 -0.33916333 -0.1772337 8.25
0.76391375 -0.38713261 -0.17899528 9
0.1439978 -0.2919665 -0.19247416 1
0.36416948 -0.22567838 -0.17837891 7.8888888
0.55036789 -0.20107777 -0.17637138 7.8000002
0.84836161 -0.19485322 -0.18331882 8
4.4818864 -0.20262106 -0.18021546 56
4.6005859 -0.26368561 -0.15709686 22
0.41676274 -0.038773853 -0.17436375 7
4.571774 -0.00071897899 -0.15391764 73
0.41181356 0.0071143839 -0.16433141 5
4.6144185 0.068183064 -0.18980539 69
3.7631738 0.21116899 -0.17124456 52
3.4236608 0.39247072 -0.16508378 53
3.5824611 0.71270531 -0.19795842 99
2.578464 0.87419009 -0.19131756 54.5
3.2768097 0.86495602 -0.18298864 72
-0.74661273 0.98319966 -0.15905668 0
2.3801448 0.98931271 -0.16323012 60
2.4022985 0.97696507 -0.16026722 68
-0.67552304 1.1138984 -0.17258278 0
2.0051062 1.1309205 -0.18256563 4
-0.59570539 1.2470117 -0.19763082 4
-0.50797653 1.416186 -0.16556022 2
1.6842211 1.3885183 -0.17688377 55
-0.43446615 1.5602738 -0.17908597 47
1.842526 1.6812969 -0.1730393 29
-0.29051629 1.8259 -0.1518598 41
0.049678456 2.0228183 -0.18029524 49
0.22547702 1.9964184 -0.17367935 59
0.73767287 2.2365177 -0.17428412 36
2.0857778 2.1091137 -0.1728951 29
-0.044026244 2.2612174 -0.18536709 41
0.011156376 2.36889 -0.1654776 45.5
2.2077551 2.3333511 -0.18284428 23
2.8373544 3.8107264 -0.17511044 77
-0.65968907 -2.1122584 -0.072231628 45.857143
-0.43635881 -2.1904507 -0.046590991 70.5
-0.52473801 -1.9256499 -0.097872958 83.714287
-0.33369955 -1.908884 -0.096933901 154
-0.26730064 -1.8288171 -0.089330412 30
-0.53513306 -1.7733909 -0.063933603 52.25
-0.36622554 -1.7925019 -0.070039339 53
-0.83001202 -1.5042074 -0.012101595 20
-0.58649808 -1.5123473 -0.1208678 7
-0.33576623 -1.5532554 -0.033216599 151
-0.040792037 -1.5228208 -0.030461675 1
0.053417664 -1.6242816 -0.077441566 25
-0.75719219 -1.4618208 -0.033773519 5
-0.66966254 -1.4441762 -0.06444782 14.764706
-0.31749451 -1.4317188 -0.067376353 76.5
-0.22359514 -1.4102052 -0.10361345 2.5
-0.10478909 -1.4110322 -0.030488051 9.5
0.032882415 -1.4024481 -0.094455026 9
-0.6686241 -1.3031336 -0.0098075913 13.333333
-0.23084737 -1.3361574 -0.084224336 4.3333335
-0.058938529 -1.3364116 -0.039230976 2.7142856
0.044128072 -1.32494 -0.078234293 1
-0.0059694527 -0.92822272 -0.068188973 2
-0.017390072 -0.81548226 -0.10261301 5.1999998
0.033833247 -0.80682248 -0.080580279 6.4285712
0.53980392 -0.77805567 -0.068714634 9
-0.021624554 -0.73386747 -0.14621449 4
0.090543434 -0.67113596 -0.081273973 4.6176472
0.19683449 -0.63198501 -0.074349277 5.5833335
0.30898368 -0.62860715 -0.11773814 4
0.58423072 -0.71281433 -0.062687427 9.2222223
0.62176001 -0.64149195 -0.054203629 8.9285717
0.075846829 -0.58552951 -0.024271674 3.125
0.66969591 -0.54617262 -0.081093967 9.8235292
0.29054838 -0.37037823 -0.11740942 4
0.44682547 -0.36498529 -0.13948423 8
0.48033708 -0.35997042 -0.11079888 8.0666666
0.71537948 -0.36562052 -0.10258151 9
0.76065356 -0.38311505 -0.052065864 9
0.14785017 -0.29331669 -0.14700197 2
0.36484221 -0.21169579 -0.14079748 9.5
0.55574101 -0.19449034 -0.12655437 7
0.86665356 -0.1862866 -0.093876071 7.1538463
0.41519421 -0.014971914 -0.14721632 10
0.41989762 0.019119518 -0.14536788 3
3.8145542 0.1881756 -0.058187313 26.5
3.416379 0.40358567 -0.1065274 42
3.1316946 0.55943429 -0.11474041 35
-0.82558531 0.7447964 -0.058604185 3
2.8873518 0.69711494 -0.11446057 30
3.5047076 0.60867965 -0.13382502 90
-0.81799597 0.86633587 -0.0499673 0
2.6732879 0.80999684 -0.11016015 25.5
3.2906981 0.77102375 -0.11037118 47
-0.77989894 0.93246812 -0.0803096 0
-0.7354036 1.0043269 -0.098615766 0
2.0610104 1.0210406 -0.13606375 3
2.2451453 1.0049746 -0.081025966 5
2.4855723 0.92011094 -0.08977624 6
-0.67527807 1.1129464 -0.084945574 0.60000002
2.0118034 1.1677157 -0.072036646 6
2.15341 1.0739177 -0.057160072 5
-0.62591255 1.2071402 -0.041234259 1.5
-0.57235527 1.303709 -0.10945391 1.5
1.8715311 1.2258347 -0.080800377 2.6666667
1.9966679 1.2027642 -0.14533944 8
-0.51319277 1.4285618 -0.057620801 1.2
-0.41318586 1.6021477 -0.061067984 43.666668
-0.33747342 1.7361743 -0.079083167 40.5
2.4946449 1.66995 -0.032878343 7
-0.27961218 1.838331 -0.072492622 43.25
0.32449645 1.922471 -0.065532573 15
2.1196268 1.8888541 -0.066779681 61
-0.17507616 2.0251861 -0.086309753 44.400002
0.093504012 2.0681305 -0.098659635 65.666664
0.23014432 1.9985209 -0.089576095 64.333336
0.35826051 2.0032694 -0.052735504 58.333332
0.49664748 2.0617685 -0.07999748 79.5
-0.034953002 2.2919271 -0.070771419 44
0.69419926 2.2703886 -0.079101287 54
2.2838418 2.2660172 -0.041175459 11
3.1868563 3.4750555 -0.014236188 12.5
3.8313777 4.0345531 -0.075120635 1
1.7399573 5.1249738 -0.0087397741 69
3.9643004 6.1183734 -0.13010025 35
3.3840816 6.4206972 -0.12623125 21
-0.42562357 -2.1155162 0.1327135 150
-0.69299537 -2.0687621 0.10801272 83.5
-0.43497795 -2.032584 0.097616434 80
-0.60663295 -1.8734013 0.045413997 152
-0.53158176 -1.8987118 0.062426753 107.8
-0.35350227 -1.8077775 0.058904808 51.666668
-0.61362433 -1.7619053 0.097479485 152
-0.51176476 -1.7434646 0.097515762 65
-0.91114432 -1.5038018 0.13727307 42.5
-0.87063169 -1.5149484 0.052440513 37.200001
-0.6504072 -1.5743117 0.064956017 79
-0.52383435 -1.5313168 0.10638471 9
-0.23271742 -1.5176883 0.10015893 152
0.12547411 -1.506265 0.12213897 45
-0.918284 -1.4001497 0.10399064 17.166666
-0.83131963 -1.4438728 0.052728105 22.166666
-0.66835654 -1.4091392 0.083651334 78.5
-0.57516116 -1.4457465 0.0529713 5
-0.42117178 -1.4574027 0.058307342 17.5
-0.20124415 -1.3855647 0.047196813 12.5
-0.14457999 -1.4100585 0.0039760722 2
0.17604636 -1.45918 0.1288197 7
-1.0788903 -1.2417333 0.11898544 2
-0.97185731 -1.2941939 0.086048782 26.666666
-0.75307727 -1.275735 0.015682811 64
-0.69622803 -1.3183085 0.055405315 6.9166665
-0.16348206 -1.3450707 0.047809903 5.6666665
-0.042087313 -1.3161818 0.1039112 11
0.029358339 -1.3191626 0.1200297 1.5
0.083250277 -0.96275902 0.11669505 4.2222223
0.058972698 -0.78915095 0.078695163 4
0.42542541 -0.79985672 0.03819498 10
0.52540344 -0.80829585 0.077271454 8.8000002
-0.039109401 -0.66560334 0.11737289 4.6999998
0.061668936 -0.67549914 0.082583308 3.8235295
0.20698582 -0.67076665 0.094909906 4.9411764
0.57500136 -0.72038305 0.0705318 8.2142859
0.62002462 -0.64231539 0.045737918 7.75
0.63900959 -0.57435548 0.025253722 8.5
-0.90514702 -0.1877867 0.1144531 0
5.2757006 -0.21469851 0.13089347 30
5.4240236 -0.28006342 0.045154508 30
-0.97361529 -0.064225994 0.09050326 2.4000001
-0.84756476 -0.071746148 0.072268717 1.6666666
-0.68917972 -0.062425956 0.11609104 0
5.0375237 -0.063221723 0.037932213 33
-0.94142735 0.06951084 0.072649889 0
-0.88063502 0.12445515 0.13099641 0
5.0656071 0.019578328 0.001490767 76
5.1121335 0.08885444 0.11729353 2
-0.89003456 0.18175589 0.14268047 0
3.8244417 0.21899877 0.079477929 0
3.901067 0.15466709 0.061030265 6
4.0291104 0.38202 0.066583447 1
4.151309 0.56237286 0.075385891 56
4.0085368 0.70636636 0.13626033 68
4.0922213 0.6124227 0.056783088 38.5
-0.81974584 0.85085899 0.10150631 0.40000001
4.0241413 0.81588221 0.083513148 36
-0.77460152 0.94570082 0.10067759 0
-0.72669774 1.0282853 0.08113382 0
2.2172644 1.0139611 0.070007712 5
3.6625297 0.96221668 0.084703796 0
-0.66788149 1.1357703 0.073831968 1.2222222
1.9334819 1.1516016 0.13996941 0
2.0373869 1.1291742 0.070762582 5.1666665
3.027096 1.1510071 0.10475167 19
3.4078474 1.1071711 0.082779147 0
-0.61214715 1.2454369 0.078414634 0.40000001
-0.56971049 1.3152394 0.033679429 1.3333334
1.8540874 1.2250954 0.069112778 2.3333333
2.9460149 1.2563514 0.0089447154 24
3.0553746 1.2170135 0.06076115 20
-0.51231325 1.4264967 0.070430383 2.5555556
-0.39847133 1.6384888 0.053338263 45
2.4053895 1.6150357 0.093482785 0
2.1874595 1.7865305 0.092549957 3.5
2.3451357 1.7151988 0.047701247 4.25
-0.30554861 1.8080308 0.037629779 41
-0.27637097 1.8499961 0.13780034 43
0.29452413 1.9417216 0.10877749 16
2.1283374 1.8275038 0.086946212 3
-0.1946511 2.007453 0.017599965 43
-0.1468704 2.0863807 0.10116412 40
0.085949562 2.0432322 0.08484868 61.666668
0.21325043 2.0118814 0.075440332 46.799999
0.30593723 2.0140107 0.024631882 47
0.51423264 2.0688334 0.070842467 58.5
-0.0822763 2.1960027 0.12727392 44
0.12504508 2.1157136 0.038390335 150
0.53085792 2.1032803 0.075909071 49
0.67789918 2.166425 0.065929241 57.5
0.055032119 2.4176545 0.066096075 98.5
3.1808157 3.4350867 0.091790073 0
2.9506328 3.576884 0.067848124 14
3.0566697 3.5237925 0.044901244 18.5
3.8883569 3.9526536 0.024592424 2
2.057771 4.8993998 0.073467515 6
4.0482292 6.0709095 0.0060128821 35
4.1449633 6.0211573 0.12901831 35
3.5402908 6.3492632 0.07679607 35
4.9336176 9.6438646 0.029268706 82
5.0047178 9.6021471 0.099606059 76
-0.18247347 -1.9960818 0.29712111 72
-0.53022277 -1.863519 0.1902101 27
-0.23474573 -1.8625641 0.24900001 27
-0.65763766 -1.7149397 0.21456139 55.5
-0.55162799 -1.7324777 0.22311592 91
-0.35886449 -1.6616994 0.23356724 65.5
-0.20508602 -1.7913249 0.25291264 150
-0.87066984 -1.5037462 0.18318921 56
-0.58566928 -1.6486565 0.18075037 28
-0.30191708 -1.5081165 0.19926524 7
-0.2931475 -1.6197196 0.20043407 31.666666
0.12002477 -1.5264803 0.20586511 24.5
-1.0773361 -1.4448919 0.28651154 154
-0.9618116 -1.4380302 0.23626167 29.916666
-0.8384496 -1.4658794 0.22810397 46.599998
-0.32139778 -1.4456183 0.19748615 35.666668
-0.21169877 -1.409463 0.21052444 9
-0.044884749 -1.3797569 0.21481495 8.75
0.072693564 -1.4592032 0.1684738 31.200001
0.1654572 -1.4528718 0.16177642 9
-1.3578715 -1.2544488 0.26397222 37
-1.2552732 -1.2728151 0.26963586 42.875
-1.1356587 -1.2945755 0.22511593 29.299999
-1.0261213 -1.3236713 0.18429878 24.571428
-0.18736877 -1.2551172 0.25018656 1.8888888
-0.086468764 -1.3121891 0.21586733 3.1666667
-0.047787506 -0.90857375 0.1817584 7
0.06687852 -0.9841736 0.15484242 5.6666665
0.45769143 -0.91368598 0.24679323 7.6666665
-0.061052609 -0.79488671 0.23658173 6.5
0.087580308 -0.78865576 0.1610857 3.5
0.25191861 -0.81215674 0.2667926 5
0.32088077 -0.83116758 0.18878496 3
0.50154221 -0.83494949 0.19649088 7.2857141
-0.037642766 -0.71100032 0.23785664 5.4545455
0.054388668 -0.65724188 0.17110528 2.909091
0.20702602 -0.68628526 0.15140453 3.5
0.55581653 -0.74490422 0.16341621 6
-1.3551434 -0.48658782 0.25914025 6
-1.2430776 -0.33655134 0.24733587 0
5.4879446 -0.31101507 0.2593677 29
5.579556 -0.36061439 0.26911467 23
-1.2244983 -0.20458756 0.24469344 0
-1.151348 -0.20508388 0.24625739 0
-1.2583215 -0.1299687 0.25514635 0
5.0394359 -0.064987235 0.18498796 39
5.0469594 0.0020673943 0.20046324 46
4.0500865 0.64015412 0.2563951 8
5.405899 0.63056791 0.25424093 39
-0.83013254 0.82545435 0.20129387 2.2222223
-0.78100502 0.94348991 0.21575752 0.2
-0.74477834 0.99927658 0.24286044 0
1.9740677 0.99132037 0.25622559 1.5
-0.6667825 1.1249683 0.22616942 1.1
-0.59186411 1.1969422 0.24727261 3
-0.60435057 1.2701899 0.17703521 0
-0.5774802 1.2861186 0.2488129 1
3.0540016 1.2028555 0.1530537 9
-0.51770836 1.4059315 0.23794641 1.5
-0.46626833 1.5143653 0.24932514 12
-0.41746238 1.6005112 0.21843544 42
-0.36801723 1.6889129 0.21928571 40.5
-0.2649169 1.8674302 0.21305743 40
0.23639071 1.9192543 0.2011258 38
-0.17554279 2.024224 0.18067807 38
-0.14126629 2.0895629 0.26499295 35
0.069030702 2.0395405 0.20215777 22.5
0.25623789 1.9798207 0.21850762 28.5
0.40070742 2.0475063 0.15607336 50.5
0.46829683 2.0432668 0.17782646 15
-0.12337019 2.121927 0.20176417 42
-0.014663029 2.3266017 0.16044712 43
0.04524849 2.4391057 0.22760603 37
2.9625766 3.5939255 0.24092931 21
3.4036241 4.3064928 0.22260386 1
3.695142 6.2786984 0.25272369 35
4.7694044 9.7170334 0.19937968 105
-0.83308208 -1.9898673 0.38622415 89
-0.686382 -1.8791116 0.35617208 151
-0.49977136 -1.9238694 0.42229885 150
-0.41904551 -1.8700091 0.37037241 101.25
-0.70140398 -1.7227287 0.33447447 23
-0.55163157 -1.7290459 0.39478895 120.66666
-0.39761481 -1.7766861 0.39307681 81.666664
-0.90775245 -1.5031422 0.35720569 61
-0.78522307 -1.5402825 0.32839051 33
-0.73330098 -1.5984776 0.32776302 23
-0.50491017 -1.6375048 0.44760293 150
-1.0670012 -1.420278 0.33615565 14.666667
-0.9814254 -1.3984846 0.36978206 34.25
-0.84361237 -1.4449754 0.38643754 47.111111
-0.64855796 -1.4202118 0.40903547 20.857143
-0.34693041 -1.3801489 0.42308843 8.666667
-0.29612523 -1.3871239 0.38495791 10
0.17871995 -1.4229711 0.41351843 25.666666
-1.3750447 -1.2232916 0.33850464 24
-1.2520006 -1.2525667 0.35240287 36
-1.1273682 -1.300303 0.35766789 48.307693
-1.0332885 -1.3191955 0.42823696 1
-0.30555037 -1.3081779 0.42637473 8
-0.25634813 -1.2661602 0.33712953 4.5
-0.029736351 -1.2418466 0.42353475 9.5
0.050345324 -1.2577524 0.35551482 12.2
-1.4156847 -1.1865273 0.37282833 41.833332
-1.2682629 -1.1510973 0.37789211 37.142857
-1.1880648 -1.1325841 0.4066799 11.5
-0.18303557 -1.1150985 0.38545001 1
-0.050947879 -1.163152 0.35204661 2.5
-0.012913588 -0.76439524 0.36815739 5
-0.035404656 -0.72084856 0.3237648 1
-1.4270471 -0.47145617 0.40342832 17.333334
-1.2447749 -0.32506958 0.34879732 0
5.5499611 -0.34449756 0.38866621 2
-1.2242744 -0.23943734 0.31025192 0
5.0400066 -0.031794734 0.36892045 71.5
5.2028151 0.25197268 0.39316627 56.5
5.3616319 0.54608399 0.39482832 78
4.0486784 0.65315402 0.30221701 1
-0.81925428 0.84325677 0.37007517 1.5714285
2.0844622 0.88709092 0.33423623 4
-0.77123028 0.95190251 0.34922752 0.85714287
-0.72989911 1.0286704 0.32842907 1.3333334
1.8993078 1.0293089 0.34298143 4.3333335
2.0096576 0.94935304 0.32337013 4.6666665
-0.68858898 1.1072938 0.35923886 1.125
1.866781 1.101374 0.3919127 2
1.964123 1.1192112 0.3136881 1.5
-0.60901451 1.2571067 0.34426337 2.5
-0.58573854 1.2774069 0.42178699 1.5
-0.53336966 1.3833803 0.37053502 2
-0.45795909 1.5322984 0.38599637 29.333334
-1.6339827 1.7135519 0.40155631 0
-0.37395492 1.6830286 0.37494695 37
-0.27353874 1.8591228 0.36420169 37.333332
-0.15377235 2.0782866 0.38033122 36
-0.14552058 2.0812709 0.31215662 34
0.098493159 2.0547705 0.3611041 60
0.22867171 2.0118425 0.35082307 88.333336
0.38516277 1.9897125 0.36772338 90.800003
0.567132 2.1314087 0.42461452 77
0.64393085 2.229032 0.35163105 99.5
-0.0055433391 2.361917 0.40597963 37
0.0084371688 2.3871331 0.36165214 35
0.65484613 2.2531006 0.3620618 59
0.02198432 2.4032841 0.31541723 35
3.8032825 6.2297168 0.36003423 36
4.6176991 9.8040104 0.34193993 103
-0.64245093 -1.8302957 0.55763632 2
-0.49472198 -1.9001945 0.50325972 113
-0.60932904 -1.7790236 0.58378315 154
-0.5527764 -1.7620808 0.50991303 67
-0.7259984 -1.5312675 0.58079743 71.5
-1.886102 -1.4166186 0.57230699 80
-1.7639043 -1.4455538 0.58017492 119
-0.95584726 -1.3681035 0.45425817 20
-0.78348696 -1.4247787 0.5104776 47
-0.64525819 -1.4095311 0.47700042 104.5
-0.57850188 -1.4900547 0.45230329 6
-0.37558421 -1.4230818 0.54485542 145
-1.5250785 -1.2324644 0.48978293 153
-1.4087111 -1.2105702 0.52557951 80
-1.2766734 -1.2485391 0.50868833 67.166664
-1.1153471 -1.2947073 0.52338034 64.5
-0.99692076 -1.2955003 0.49097332 51
-0.85667247 -1.3366301 0.46619534 30
-0.35871607 -1.345947 0.47626388 37.5
-0.087107338 -1.27562 0.51465744 8.125
-1.3959471 -1.1384157 0.48010936 82
-1.8918735 -1.0408255 0.5576815 2
-1.7982155 -0.93425393 0.57452995 2
-0.064708322 -0.92008799 0.48144013 6
-1.7474351 -0.81677926 0.55957919 2
-0.060036879 -0.79675585 0.47392759 4.5714288
-1.6897266 -0.71800208 0.58486921 2
-1.4051031 -0.46168441 0.48291999 7
-1.3513391 -0.43359166 0.5478307 0
5.4581728 -0.31593975 0.49336916 0
-1.3160462 -0.26354989 0.55793464 0
5.2497182 0.37624931 0.54312974 4
5.3042068 0.43641329 0.52433294 5
5.3722072 0.56418407 0.46947116 78
-2.1474712 0.89666116 0.58786309 64
-0.82548696 0.80701149 0.52728778 0.75
-2.0716319 1.0345829 0.54698521 45
-0.77583152 0.94193286 0.52488607 2
-0.72997332 1.0261431 0.53017139 0.75
-0.66721475 1.1286736 0.55087954 1.375
-0.60964787 1.244755 0.56943655 1
-0.58790886 1.281074 0.56284767 1
-0.5222019 1.4036857 0.5597747 1
-0.46009547 1.5329804 0.55989951 19
-0.41260311 1.6105008 0.56086898 36.5
-0.35820422 1.7033935 0.55104405 29.666666
-0.27458215 1.8495276 0.5756948 39.5
-0.19672655 1.9967959 0.56690991 38.5
-0.14469653 2.0946176 0.5252983 38
0.18760936 2.0343075 0.50928742 43.666668
0.36314571 2.0519958 0.49696288 84
0.583965 2.0928087 0.57196063 2
-2.3783753 2.2046783 0.58524621 121
-0.081196442 2.2038999 0.55978501 37
0.33249629 2.2141037 0.58902872 76
0.5481233 2.1204035 0.57192439 4
0.020262878 2.3990459 0.53170401 36
0.095051125 2.495353 0.56330884 107
5.6926336 5.1976728 0.53892201 28
5.2648735 5.4268494 0.53442806 27
4.5885143 5.8097467 0.50461811 3
4.4376001 5.8899679 0.5731352 36
4.5314593 5.8709884 0.45206767 0
3.3248541 6.4488053 0.50594318 1
-0.60609335 -1.8674285 0.60315061 151
-0.45193616 -1.8481319 0.71883428 55
-0.97881991 -1.5605866 0.69925511 60
-0.83059967 -1.5725549 0.68966347 55.400002
-0.74867857 -1.5521011 0.62572658 41
-0.47595534 -1.540463 0.70664209 138
-0.39136377 -1.6449629 0.71052206 148
-0.10424581 -1.5134487 0.73613322 11
-2.0160511 -1.3510299 0.7446779 101
-1.8685964 -1.4233019 0.70088315 74.125
-1.6590946 -1.3914205 0.72885013 150
-1.3628705 -1.4452411 0.72346997 152
-1.2287854 -1.37925 0.67042047 154.5
-1.1067263 -1.3787769 0.69903481 57
-0.98149693 -1.3986623 0.68371391 67.5
-0.44392902 -1.4875113 0.65359348 79
-0.19361381 -1.4098634 0.65219718 60.5
-0.12123593 -1.4405861 0.6962536 86.666664
-2.0095243 -1.2847795 0.68155885 31
-1.4444828 -1.2599744 0.64906627 60
-1.1557494 -1.3354981 0.62240422 69
-1.9508301 -1.0855145 0.61027586 3
-1.9223287 -1.0890647 0.67641973 2
-1.8285284 -0.96561837 0.64793575 2
-1.7661984 -0.86625826 0.64801097 1
-1.6837326 -0.70873976 0.67379862 1.6666666
-1.6425714 -0.63799119 0.74484706 1
-1.4105513 -0.39403373 0.62506974 0
-1.2750316 -0.24473006 0.67358649 8.4444447
-1.196646 -0.25216794 0.71661437 7
5.2855225 0.40416458 0.60170394 4
5.3313222 0.49215245 0.68700695 73
-2.2250605 0.802773 0.73802412 7
-0.81719142 0.87299508 0.6206516 0
-2.1569684 0.90967262 0.61844128 60
-0.77777296 0.94321758 0.66360545 1.6
-0.73770958 1.0210987 0.67735004 1.3333334
-0.66348284 1.1427988 0.67744333 1.6666666
-0.61022055 1.2418268 0.71499705 1
-0.56753075 1.3227897 0.65367234 1
-0.50348097 1.4356364 0.69568473 1.3333334
-0.39700836 1.6291043 0.6964578 34.5
-2.5876985 1.8335767 0.7417872 109
-0.30362266 1.8004963 0.68542206 35
-0.28624564 1.8361943 0.74992931 33
-2.480056 2.024498 0.6817292 118
-0.17726305 2.0253475 0.71294284 30
8.8372488 2.0453758 0.74097061 20
-2.3689237 2.2341223 0.6483674 111.5
-0.11897351 2.1316836 0.60594189 39
0.37449354 2.1776803 0.66517413 10.5
-2.3587928 2.257462 0.70298004 107
-0.014375317 2.3332584 0.6057604 36
0.055260848 2.454165 0.64253771 39
5.330411 5.4048491 0.72138798 28
4.9060845 5.6374617 0.74569595 27
4.2959914 5.968401 0.62488222 23
4.4086437 5.913415 0.65509355 36
4.1753941 6.022356 0.68748647 21
3.4579797 6.4256897 0.60017723 37
4.7645974 9.7420435 0.62202227 80
-0.5293346 -1.7499275 0.80663455 67.25
-0.44209203 -1.6914182 0.80079865 134
-1.5477295 -1.5328044 0.81352711 121
-1.3653558 -1.5836109 0.88046837 150
-0.92729998 -1.5788188 0.79423881 64
-0.88144308 -1.5898986 0.76876259 59.5
-0.29531071 -1.6265513 0.89415729 37
-0.11807756 -1.5297329 0.82277536 150
0.12018694 -1.5096921 0.85413373 5
-1.9752892 -1.3632443 0.80498409 76.25
-1.8654349 -1.4240067 0.83509445 88.199997
-1.7376223 -1.4193316 0.80987155 130
-1.6264364 -1.3724316 0.78336716 32
-1.0862974 -1.3658123 0.83272344 67.333336
-0.9883796 -1.4307363 0.80968875 66.777779
0.13822754 -1.4773395 0.87991226 27
-2.0231314 -1.2650151 0.85449147 26.5
-1.2196659 -1.3193464 0.82395238 55
-1.1395072 -1.3426028 0.8570466 73
-2.0173993 -1.1668909 0.82268602 1.3333334
-1.8504965 -0.99652541 0.76777923 0
-1.671047 -0.69121075 0.82599497 1
-1.6287863 -0.60495323 0.79784548 1
-1.6096591 -0.57551569 0.84488463 0
-1.1876442 -0.33833393 0.8036052 5
-1.2153029 -0.23813909 0.76924562 8.5
-1.1568723 -0.2285239 0.78288287 3.6666667
-1.1758111 -0.12878835 0.87124264 1
5.3462858 0.53710276 0.8397702 72.5
-2.1305416 0.79087329 0.76779175 30.5
-2.0886617 0.8238793 0.83687621 25.166666
-0.82608604 0.81719053 0.83101606 1.5
-2.1527438 0.9716441 0.76873922 5
-0.77308446 0.95370322 0.84857994 2
-0.72582877 1.0390096 0.88206863 2
-0.67548007 1.1276221 0.81605005 1.6666666
-0.62406778 1.2177197 0.85328543 1
-0.58010972 1.3054848 0.81728262 1
-0.51537836 1.4162369 0.8115496 1
-2.6890996 1.6483954 0.81673276 115
-0.4559103 1.542647 0.7910893 33
-0.43365398 1.5742397 0.85605884 32
-2.6801369 1.6568414 0.84900653 120
-0.36091849 1.7071811 0.83164465 34
-2.5686588 1.8692174 0.83431351 119.75
-0.26254466 1.8848667 0.84890896 31.5
-2.4588857 2.075439 0.80188799 120.2
-0.15639792 2.0710683 0.8114379 26.5
-2.4320986 2.11607 0.88830006 106.5
-2.3287201 2.3040044 0.81086773 109.5
-0.0086180447 2.3466434 0.80032104 25
0.0022313416 2.3790457 0.89721167 26
0.2006935 2.7151437 0.83301115 22
4.4861217 5.8726649 0.8077184 24
4.0689306 6.0900426 0.7836529 36
3.9440939 6.1686335 0.85190594 35
4.9334178 9.641943 0.7601192 98
-0.57370347 -1.8371415 1.0012808 152
-0.2097023 -1.8044622 1.0307271 148
-0.13492334 -1.8163241 1.0405463 150
-0.54277921 -1.793238 0.97299075 88
-0.15775594 -1.6867778 0.93531299 150
-1.7152911 -1.5054696 0.94762659 7
-1.553287 -1.5959933 0.9756701 64.75
-1.4588469 -1.6493688 0.96613061 69
-0.17443836 -1.6307132 0.92207778 152
0.088553086 -1.5684655 1.0048176 39.25
-1.9761502 -1.3733329 1.0036222 73
-1.8718967 -1.422134 0.95602638 86.199997
-1.7988384 -1.4285097 0.91966534 114
0.12728481 -1.4918553 0.91465247 76.5
-2.0149882 -1.3169873 0.93653536 61.75
-2.0765772 -1.1977524 0.96607041 3
-1.8636667 -1.0197713 0.94711888 0
-1.7582738 -0.84806573 0.91416872 0
-1.6386913 -0.64980823 0.95816565 0
5.4085684 0.66603488 0.94627035 14
-0.81915879 0.86707962 0.9540354 2
-0.77716291 0.93834484 0.99246377 2
-0.72578716 1.0321712 0.97722811 2
-3.0052583 1.0796496 1.0415879 114
-0.66437691 1.1477754 1.005759 1.4
8.380785 1.1537346 1.0411136 50
-0.6095221 1.2424397 0.96604306 1
-0.57093936 1.304396 0.99775982 0.33333334
-2.7723446 1.498279 1.0263231 131
-0.50278634 1.4257439 0.97605234 0.33333334
-2.7691092 1.5099037 1.0036304 130.5
-0.45570654 1.5487256 1.0143015 18
-0.42325881 1.6049205 1.0272657 27
-2.655545 1.7118555 0.97453189 126.33334
-0.36324313 1.7034163 1.0250514 29.25
-2.5507574 1.908546 0.92596412 121
-2.5353854 1.9324242 0.9825502 114.33334
-0.27081147 1.8670596 1.0465301 30.333334
8.7770615 1.8526871 0.97589087 53
-2.4234035 2.1366708 0.96476918 111.83334
-0.13683857 2.123045 0.91665053 30
-2.3145175 2.3384471 0.97471994 75.5
0.0096590938 2.3939941 0.96258307 25
0.20131819 2.7357118 0.96391803 17
6.6231065 4.6669145 0.94324493 19
6.3703251 4.823226 1.0044097 25
5.9371309 5.0672607 0.94895816 28
6.0164542 5.0274463 1.0219994 25
5.829226 5.1432528 0.97227275 22
4.9718456 5.5948749 0.9118216 27
4.5572896 5.8385768 0.96814191 34
4.0468521 6.1216416 0.92657959 35
3.7162879 6.2982674 1.0085299 36
3.8275664 6.2360535 0.91570342 35.5
-0.80500591 -2.0133514 1.166876 68
-0.69445217 -2.0735416 1.1363683 63.5
-0.59741396 -1.9550385 1.110739 150
-0.0044235466 -1.7310585 1.1992363 6
-1.689854 -1.5289128 1.1363652 67.75
-1.5876753 -1.5845454 1.1029382 72.75
0.071271099 -1.6012441 1.1213629 28.333334
-1.9687203 -1.3688973 1.0736083 43.666668
-1.8780196 -1.4249951 1.121551 49
-1.7671466 -1.4827214 1.1259885 50.5
-2.1195362 -1.2590253 1.1647398 3
-2.0611856 -1.2866565 1.1734051 24
5.3693562 0.58776581 1.0815949 69
-3.2340095 0.66292864 1.1969301 100
5.4123225 0.65634793 1.1224912 30
-3.1181102 0.88040221 1.1367965 114.5
-0.81913668 0.81362295 1.1122209 0.66666669
-0.78047162 0.9311983 1.0953442 1.6666666
-0.74171889 1.0043335 1.0739208 1.5
-3.0087349 1.0864488 1.0787501 111
-2.9883139 1.1074609 1.1841186 122
-0.67757154 1.1160494 1.116015 1.6666666
8.3310261 1.0616305 1.1114957 58
-2.8714383 1.3155516 1.08779 134.33333
-0.61860287 1.2152779 1.0810983 1
-0.56386989 1.3061826 1.1323018 1
-2.8521919 1.3637732 1.1766065 119.5
-0.50976825 1.4074521 1.1945553 0
-2.7408371 1.5611916 1.1403958 119.85714
8.6223764 1.5677229 1.1800301 54
-2.6308386 1.7629303 1.1119019 118.83334
-0.37972605 1.6673838 1.1588112 29
8.6785917 1.67356 1.1660618 55
-2.5538876 1.9120469 1.1916147 109
8.7956543 1.8821391 1.0558071 54
-2.5125337 1.9714816 1.1142132 112.25
-0.19299631 2.0182867 1.0853517 29
-2.440666 2.1083679 1.1083642 101
-2.3994372 2.1841154 1.1019232 102
-0.11323617 2.1628852 1.1053144 29.333334
-2.316788 2.3664122 1.146329 11
-0.017481554 2.3377335 1.1637712 26
0.023288231 2.4234533 1.1393114 29
9.1047182 2.439456 1.1653657 38.5
0.10116671 2.5577269 1.1953559 27
0.45617181 3.2102332 1.1268662 25
6.4558654 4.7887568 1.1246102 29
6.2182446 4.909337 1.0777855 29
5.9728661 5.0459538 1.1910602 25
5.6344247 5.240943 1.1921089 25
5.4544773 5.3452578 1.163888 30
5.5524592 5.2956758 1.1695209 29
4.6376281 5.7934241 1.1128691 37
4.1323824 6.0728488 1.059509 36
4.2140241 6.0335054 1.199971 20
3.5182736 6.4121194 1.1344882 36.333332
-0.79612815 -2.0108073 1.3011277 59
-0.68816626 -2.0678611 1.2831647 66.800003
-0.15918969 -2.0222545 1.2514197 150
-0.14150114 -1.9921986 1.2891421 33
-1.1019286 -1.8444693 1.3467511 53
-0.97714531 -1.9183109 1.2488363 62
-1.3874313 -1.6845837 1.305604 89.333336
-1.32113 -1.7227553 1.2919719 70
-0.015243637 -1.7473959 1.3227125 27
0.032606039 -1.6749972 1.249927 15
-1.7147944 -1.5114744 1.3086524 68
-1.5961381 -1.5753183 1.3015995 59
-1.4853741 -1.6393863 1.3008379 67
0.10364507 -1.5222245 1.2575026 1
-1.8774192 -1.4195876 1.2912805 63.799999
-1.7845761 -1.4727499 1.2021891 61
0.16825686 -1.4176604 1.3118496 38.5
-2.1612737 -1.2395791 1.2983555 3
-2.0290928 -1.3340225 1.3200456 53.5
-1.9381319 -1.2067785 1.2959687 0
-2.3287964 -1.1711357 1.3303006 0
-1.7592064 -0.90411705 1.3385671 2
-1.6041794 -0.64758575 1.2732627 2.5
7.4421391 -0.57933903 1.2694697 4
-1.3923432 -0.22883043 1.3197024 10.5
-1.3217186 -0.065076001 1.3210044 25
-1.2468536 0.089656204 1.3196101 17
-1.0829494 0.10813637 1.3121048 2.5
-1.1686571 0.19883521 1.3142903 40
-3.3534038 0.44094697 1.296279 111
-1.081995 0.38066676 1.2653849 16.25
-1.0092093 0.37430632 1.2530123 22
-1.2386494 0.48512635 1.2312815 13
-0.97920436 0.55275571 1.3002264 15
-3.2172441 0.70428222 1.2985188 117
-0.94205338 0.64497799 1.2974927 26
-0.89827836 0.69243467 1.3004874 34
-1.0023235 0.86696535 1.2200127 1
-0.8335458 0.8348949 1.2647274 5
-0.73498195 0.87012035 1.2271225 0
-3.0855303 0.93525445 1.274142 115.25
-0.75488108 0.96747655 1.2127029 1
-0.70834237 1.0124799 1.2917339 10
-0.67958868 1.0911041 1.242439 5.5
-2.8465722 1.3491226 1.2110221 150
-0.60215855 1.2261317 1.2873892 8
-0.53293097 1.2984865 1.2392994 1
8.4126778 1.208479 1.2683959 50
-2.8304982 1.3982416 1.2940446 117.8
-2.7180049 1.5950837 1.2662176 117.33334
-2.6958599 1.6291646 1.3489234 119
-0.43120298 1.5713445 1.2361341 28
8.5983286 1.5335865 1.2717448 52
-2.6381249 1.7534261 1.246942 105.5
-0.33845121 1.7426389 1.2732055 22
-2.5962126 1.8133547 1.2657926 114
-0.24849564 1.9057117 1.2680464 22.5
-2.525759 1.9571067 1.2983636 101
-2.420331 2.1577139 1.2212601 107
-2.3991621 2.2008958 1.3302416 109
-0.13504969 2.1139975 1.2848737 22
8.9443092 2.1724527 1.3247292 51
0.045814466 2.4556301 1.2050765 28
0.20799917 2.7604642 1.2436135 27
0.2705673 2.8710437 1.3317107 30
0.33870435 2.9929163 1.3044398 26
9.4996643 3.070189 1.3436685 2
0.528018 3.3444674 1.3443246 23
6.4000974 4.828166 1.2782303 28
6.0282073 5.013196 1.2419738 27
5.8282943 5.1354179 1.2254993 24
4.305491 5.9787369 1.3244232 37
3.7862236 6.2625456 1.324368 37
3.6922221 6.3215842 1.2138062 36
3.3551359 6.4840059 1.2440338 1
4.5700374 9.847434 1.3048655 108
-0.40904817 -2.2068954 1.4781097 65
-0.2248619 -2.1351798 1.4325126 31.75
-0.8580305 -1.975433 1.4130678 55
-1.1167508 -1.8346077 1.4625751 50
-0.96941251 -1.9140391 1.4400781 56.666668
-0.066264652 -1.8486264 1.4675623 32
-1.4298486 -1.6586212 1.4090009 66
-1.2320764 -1.7728883 1.4588094 56
-0.018101823 -1.7689575 1.4521192 33
0.035213899 -1.6681973 1.3687636 31
-1.5426625 -1.6017282 1.4231474 65.75
-1.4592261 -1.6447546 1.4181681 64
0.087241687 -1.5614767 1.4417827 30.200001
-1.9560225 -1.3728384 1.4376121 58
-1.86894 -1.4228752 1.445376 63
-1.7384675 -1.4968821 1.4303737 60
0.13366574 -1.4789166 1.4129524 34
0.16747932 -1.4198261 1.4698186 36
-2.1988792 -1.2319148 1.4573321 1.5
-3.6310124 -0.059727542 1.4783202 51
-3.4007289 0.0084334724 1.4929584 28.5
-3.48542 0.20029119 1.3833623 47.5
-3.4176309 0.24344915 1.4911395 91
-1.7130053 0.21352986 1.4768795 52
-1.6443819 0.27935797 1.4807699 55
-3.2374434 0.30368122 1.499787 72
-1.7053298 0.36035603 1.4756014 79
-1.5955489 0.41593975 1.4715265 58
-3.3310134 0.48673689 1.4242101 112.66666
-3.2712986 0.48439163 1.4977776 66
-1.827282 0.52425748 1.4755538 70
-1.731822 0.48539641 1.4737988 79
-1.5783637 0.56088674 1.4701904 81
-1.4904855 0.52476257 1.4630067 22
-3.2057076 0.70509815 1.3930174 59
-1.8524309 0.65989369 1.4712752 74.666664
-1.7178116 0.64178944 1.47352 88
-1.5569789 0.7075789 1.4696784 80
-1.4469502 0.64372444 1.4563501 47.5
5.3883753 0.6288054 1.4065343 54
-3.0704236 0.80042052 1.495841 33.5
-1.8462321 0.8160128 1.4680392 79
-1.7298988 0.79562378 1.4709779 81.666664
-1.5688211 0.84001267 1.4660668 76
-1.4168918 0.82119101 1.4636023 85.599998
-3.0550256 0.98659354 1.4168596 107
-2.9734085 0.98794723 1.4760852 68
-2.8312063 0.9781248 1.4751554 73.5
-2.567764 1.0392449 1.4524435 76
-2.4179988 1.0378239 1.4489264 71
-2.3280923 0.95046997 1.4668086 23
-1.9970871 0.98283148 1.4671692 83
-1.8485836 0.97106498 1.4629085 80.5
-1.7448891 0.95242161 1.4669204 71
-1.5887563 0.98316145 1.4703681 92.5
-1.4164033 0.96992856 1.4614382 80.666664
-1.3128381 0.97159117 1.456107 71.333336
8.3347502 1.0385668 1.4557214 29
-2.8986347 1.0573782 1.4590034 71
-2.7261219 1.0503013 1.4564034 74
-2.2802739 1.1775771 1.4520249 73.5
-2.1865835 1.1554337 1.4506073 82.5
-2.0207977 1.1587844 1.4540288 85.5
-1.8943278 1.0909659 1.4570962 75
-1.7471405 1.1339108 1.4583232 79.5
-1.5579908 1.1406673 1.4681635 77
-1.3783001 1.1265167 1.4595022 81
-1.2777044 1.1258718 1.4582871 52.333332
-2.8014538 1.2401705 1.4602667 65
-2.5659215 1.2664883 1.4516027 76
-2.4265583 1.2499701 1.4590675 23
-2.3560054 1.2506824 1.4494942 71
-1.8683113 1.2836201 1.4502088 78.666664
-1.7296922 1.3004811 1.45158 77.5
-1.6021953 1.3026624 1.4550433 79.5
-1.4757916 1.3016583 1.4640124 82
-1.3025475 1.2596884 1.4571438 12.666667
-1.1773229 1.2714403 1.4561791 6
8.4302816 1.2422403 1.4613926 51
-2.8062849 1.4368093 1.422924 117
-2.4054935 1.4656103 1.4460961 79
-2.3088887 1.4464582 1.4428476 69.666664
-2.1879551 1.376799 1.4429663 71.333336
-2.0484588 1.3570119 1.446396 86
-1.8058155 1.4780374 1.4443053 77
-1.7365336 1.422974 1.4466671 78.666664
-1.5605404 1.4844682 1.4523797 17.5
-1.3977457 1.4168208 1.4657316 7
-1.2754037 1.3902625 1.4614928 1
-2.7507606 1.5344838 1.4034791 98.5
-2.5667474 1.5108535 1.4531269 82
-2.2630746 1.6324959 1.4407961 75
-2.1623938 1.5978347 1.4362636 71.333336
-2.0260553 1.5719932 1.4468195 74
-1.9134952 1.5407029 1.4471753 78
-1.7116599 1.5625248 1.4468709 71
-2.5974874 1.7653377 1.4147129 89.5
-2.4015911 1.7090036 1.4493757 75
-2.2864754 1.7139368 1.4381384 72.5
-1.9904342 1.793537 1.4396408 77
-1.877499 1.7472755 1.4414011 77
-1.692276 1.7177635 1.4437219 30.333334
-1.6016123 1.7020978 1.4463279 8
-1.4701655 1.6623671 1.4517317 1
-0.39156735 1.6520224 1.3622726 26
8.6787882 1.6947066 1.3635703 53
-2.1802297 1.8765068 1.4410383 72.400002
-1.680028 1.8655581 1.4325416 4.5
-0.29782516 1.8304834 1.4057945 23
-2.5056984 2.0043724 1.4091164 113
-2.3303156 1.9844632 1.4392313 76
-2.1038053 2.0575283 1.4247122 72
-1.8896501 1.9947164 1.4300034 6
-0.18602361 2.0285535 1.4552957 20
8.8641815 2.0357454 1.4129201 41
-2.3630142 2.2347465 1.4333408 90
-2.1670303 2.1654012 1.424684 65
-2.0686867 2.1004536 1.4325519 4
-0.089624867 2.202529 1.4119419 21
8.9635077 2.2201576 1.4894177 57
-2.2179344 2.2771325 1.4251735 64
-2.0832419 2.3511274 1.4305711 0
-2.1195025 2.4946156 1.4186951 0
-2.066165 2.4083631 1.4295727 0.5
0.040931385 2.4473605 1.4057883 26
9.4216118 3.0697625 1.3692987 5
0.45151502 3.1980319 1.4048724 23
8.9454823 3.4323359 1.4235741 6
0.68118501 3.6237743 1.4785802 19
6.0211401 5.0401168 1.4431871 27
5.6303349 5.2343488 1.3780135 27
5.4469557 5.344686 1.3842857 27
5.604547 5.2647476 1.3901508 24
5.1392994 5.523766 1.3852037 29
5.2718072 5.4462595 1.3745461 24
3.8731511 6.2112403 1.4432472 29
4.7545862 9.772521 1.4120347 84
-0.30849651 -2.2638197 1.5823495 51.5
-0.54251027 -2.1413927 1.568027 56
-0.42836928 -2.2023993 1.6062238 54
-0.24535945 -2.1741943 1.5318062 28.5
-1.1350152 -1.8188367 1.6126981 54
-0.98820382 -1.8973786 1.5475596 55.400002
-0.086846814 -1.881216 1.5694042 28
-1.364288 -1.6939137 1.579543 60
-1.2424345 -1.7622856 1.5777217 49
-0.017597813 -1.761911 1.5824815 29
-1.6954234 -1.5113914 1.559113 60
-1.6048414 -1.5604707 1.5478747 62
0.081768289 -1.5769417 1.5852875 30.5
-1.8916495 -1.4092475 1.5724031 54
-1.7545254 -1.484964 1.5494744 64
0.12041165 -1.4943891 1.5182915 29
-2.2472658 -1.2130255 1.5894059 3
-2.0447862 -1.3299744 1.6069872 4
-2.4016702 -1.1244957 1.606059 0
5.6186123 -0.34398064 1.5006615 16
-3.4025564 -0.050607808 1.506932 46
-3.2218814 0.25858501 1.5163447 12
8.4413958 1.2812296 1.6044586 36
8.2982674 1.6492342 1.646335 31
8.5859528 1.5091158 1.565809 52
-0.36478052 1.7134892 1.578004 20.333334
8.7030001 1.731595 1.5951619 33
-0.254444 1.9098814 1.5931075 23
8.4325409 1.9208745 1.6139251 29
-0.13749847 2.1229105 1.6036848 23
-0.048742015 2.28933 1.5431772 23
0.085313275 2.5278223 1.5300471 25
9.1535625 2.5773923 1.5858369 37
9.2695055 2.7147315 1.5200967 63
0.27319378 2.8711782 1.565591 24
9.3641233 2.8569281 1.5374992 63
0.58336884 3.4421251 1.5178461 24
8.4378366 3.7552257 1.5003976 2
0.85844511 3.960458 1.6496681 19
7.8861828 4.0013728 1.5832289 24.5
6.4431558 4.816391 1.5487088 27
8.5685196 4.9135332 1.6370081 3
5.654295 5.2381988 1.6195184 25
5.0818629 5.5477977 1.5575882 24
5.2448196 5.4692259 1.6024771 23
5.254952 5.4541965 1.530432 26
4.7990751 5.6849275 1.6419827 10
4.9263496 5.6474032 1.5708803 24
4.7659292 5.7331915 1.5850981 31
3.9768465 6.1624303 1.5489489 37
3.457675 6.471776 1.6101068 20
10.251501 6.6731834 1.648137 12
-0.33147088 -2.253644 1.6873194 54
-0.51567453 -2.1522572 1.7546339 52.666668
-0.3711006 -2.2299285 1.7168133 52.799999
-0.80235851 -1.9933778 1.7638835 53
-0.6738866 -2.0638018 1.7259166 53
-0.17372923 -2.0392635 1.7291223 26
-0.13205463 -1.9625909 1.7717479 28
-1.0968347 -1.8329566 1.6712974 51.75
-0.087017253 -1.8819749 1.7066904 29.5
-1.3698879 -1.6826251 1.7001613 53
-1.2547872 -1.7508655 1.7541016 56
-0.016806055 -1.7482778 1.7235531 26
0.016696911 -1.6954483 1.7156857 33
-1.6932706 -1.5056773 1.6938628 56
-1.5030364 -1.6071128 1.7130493 62
0.08207684 -1.5815835 1.6998905 29
-1.88551 -1.413305 1.70869 57
-1.7681538 -1.4734535 1.698104 55.666668
0.1508394 -1.4551257 1.6549402 40
-2.0565724 -1.3092916 1.7295483 3
-1.9294872 -1.1108425 1.7884046 14
-1.6342406 -0.51384318 1.7990106 2
-1.5442647 -0.41877803 1.7630104 14
-1.3889816 -0.11957603 1.7738818 20
-1.1878651 -0.059579764 1.7997807 70
-1.3168211 0.0037734138 1.7713274 19
-1.1269872 0.059258576 1.7922572 58
-1.0256886 0.14324014 1.730244 20
-1.1267314 0.19125009 1.7713555 50.5
-0.99089044 0.2428977 1.7909089 69
-1.0804212 0.42008433 1.7581755 19
-1.0237724 0.53868097 1.7885147 37
-0.95643646 0.65642917 1.7758927 22.5
-0.85341477 0.84961933 1.7772288 32.5
-0.79247952 0.96294588 1.7582678 17
-0.74274665 1.0401899 1.7950052 52
-0.71000493 1.1165993 1.7494408 16
-0.64736605 1.2393394 1.7381762 8
-0.5980674 1.3455365 1.7460388 3
7.997117 1.2559729 1.7861646 46
-0.52394491 1.4510878 1.7514776 17.333334
8.5341015 1.4632809 1.6692654 20
-0.48416138 1.5310178 1.7240766 4
-0.42073995 1.6208192 1.7637831 28
-0.19775614 1.6419789 1.7998127 72
-0.038212229 1.6036087 1.7994074 64
0.11565806 1.5594856 1.7997309 70
7.7595329 1.5920508 1.7939872 27
-0.34958971 1.7437745 1.7609243 36.666668
-0.2255944 1.7052114 1.7987037 68
-0.089307517 1.7031716 1.7975758 73
0.072381109 1.7373633 1.7962009 74.333336
0.2373661 1.7334893 1.7984294 70
0.32108232 1.7746842 1.7992955 71
5.9616828 1.7936019 1.7983795 30
7.6422944 1.6626564 1.7944111 27
-0.3027685 1.8344723 1.7393759 22
-0.24055837 1.8986073 1.7418973 44.5
-0.14467597 1.8672403 1.7985417 61
0.079779059 1.8967768 1.7979608 67.5
0.20947 1.865963 1.7975286 69.400002
0.38225132 1.8884974 1.7914349 66.199997
0.48238075 1.9497685 1.7903904 63
6.0792179 1.8102922 1.797701 31
7.4100814 1.884603 1.786878 27
8.3919735 1.8574042 1.6792845 51
-0.19100569 2.0260804 1.7803479 50
-0.048694514 2.0319655 1.7909793 59.5
0.13080855 2.0514624 1.7906426 62
0.21525054 2.0143874 1.7926538 55.200001
0.37919998 2.0078034 1.7904112 67
0.55344307 2.0347762 1.7890629 63
0.62337804 2.0573761 1.7845358 66
5.6837397 1.9839481 1.7893094 29
5.8416982 2.0311284 1.7960898 31
7.307405 1.9540693 1.7846659 26
8.4514027 2.0806904 1.7748729 35
-0.099899352 2.1545579 1.7684795 49.333332
0.090121597 2.1665812 1.7867448 64
0.27983701 2.1435966 1.7874041 58
0.40636352 2.1777151 1.7891794 65.75
0.50539923 2.1702383 1.787484 67.75
0.69070983 2.1607049 1.7890754 64.333336
0.83795476 2.21942 1.7846419 59.75
5.4164934 2.1658595 1.7898151 28
5.5567169 2.2208915 1.7870225 29
6.9510937 2.1667986 1.7694393 27
8.5561533 2.1505821 1.6640371 35
-0.010912631 2.3208137 1.7332649 42
0.041753769 2.3330789 1.7784275 63.666668
0.24487031 2.309258 1.7888349 68
0.41375902 2.3580651 1.7851518 60.5
0.55982131 2.3203468 1.7841111 59.5
0.66190821 2.3569484 1.7819532 60
0.83077931 2.284343 1.7831819 58.25
0.97802931 2.3262782 1.7806863 54.25
1.0940027 2.3756688 1.7786674 51.666668
5.12006 2.3149993 1.7863108 28
5.285337 2.3976734 1.7924143 26
6.5838485 2.3469205 1.7646304 27
7.9324436 2.3404639 1.7546407 25
8.4950838 2.3149793 1.7670575 31
0.12934287 2.4249516 1.7773451 58
0.20023246 2.5075605 1.7774025 60
0.41232073 2.4958785 1.7872618 35
0.5824331 2.4897575 1.7771844 59.5
0.72171015 2.5006714 1.7744447 59
0.82111245 2.4767859 1.7779331 60.333332
0.96138459 2.4942 1.7766089 60.666668
1.1451049 2.4417286 1.775043 57
1.2828981 2.4962857 1.7728882 55.833332
1.4327352 2.5024307 1.7757735 49.5
4.4981031 2.5405052 1.7772812 33
4.828794 2.447958 1.7888499 26
4.9649715 2.5370204 1.783517 27
6.1729422 2.5379632 1.7638828 33
6.5369716 2.4293776 1.7681118 35
8.3436527 2.5441737 1.7394291 28
8.6580324 2.4280689 1.7728659 33
0.12481619 2.6157601 1.6645654 26
0.23031539 2.6272111 1.7763823 65.5
0.35551518 2.6632185 1.7709911 62
0.60128838 2.6236103 1.7732514 64
0.768067 2.6239536 1.7705815 57.5
0.95919681 2.6428361 1.7703586 61
1.1288425 2.6418185 1.7704114 55.333332
1.4388288 2.6065691 1.7695638 52
1.5822512 2.6288922 1.7706512 50
1.6891277 2.5766613 1.7783347 47
1.9019793 2.6590724 1.7800215 46.5
2.1808188 2.6920364 1.7838324 49
3.8849466 2.6874917 1.7773949 34
4.202096 2.6316319 1.7825443 37
4.6370134 2.6517448 1.7782758 32
5.7547522 2.6866448 1.764167 31
6.126997 2.6141396 1.7638055 32
7.4604087 2.5830421 1.749575 25
8.0694542 2.664968 1.7537074 26.5
0.37553704 2.7799797 1.7677252 65.5
0.51430345 2.7816222 1.7661787 64.5
0.81153113 2.7594173 1.7685419 61
0.97260797 2.7583847 1.7636331 57.5
1.1084982 2.789464 1.7630371 56
1.2728599 2.7950854 1.7645869 50.5
1.3821256 2.7550445 1.7697769 50.5
1.7276525 2.7516043 1.770197 47.666668
1.84412 2.7370403 1.7746996 42.666668
2.0374391 2.8266504 1.7688597 45.5
2.1304398 2.7960615 1.7730554 47.666668
2.4262104 2.7954018 1.7744474 45.333332
2.7128668 2.7528892 1.7818638 45
3.0011723 2.7666728 1.7847925 43
3.2843106 2.7555811 1.7795004 39
3.5791981 2.7288053 1.7766596 29
3.984257 2.8139853 1.773892 32
4.2996902 2.7377548 1.7706827 32
5.3231978 2.7968121 1.7608765 29
5.7140365 2.7642424 1.7633158 31
7.8026829 2.8093579 1.7512094 25
9.3467035 2.8161602 1.6631187 41
0.32511699 2.9501357 1.7309227 49
0.55623281 2.8799798 1.7629272 56
0.65780461 2.9189816 1.7609655 44
0.75920421 2.969121 1.7628795 59
1.0416183 2.8903625 1.7617069 57
1.1687199 2.86114 1.7593473 55
1.2891817 2.9476948 1.7660503 55
1.5630893 2.9389207 1.7684838 48.333332
1.6587881 2.856415 1.775283 51
1.925966 2.9070153 1.7701135 44.5
2.0654919 2.9076757 1.7614158 49
2.2313175 2.9960725 1.7627972 50
2.3258212 2.9153461 1.7674176 48
2.400197 2.9270983 1.7616931 46
2.664993 2.9532771 1.7710623 42
2.7221487 2.8810878 1.7756028 42
3.0358663 2.9109449 1.7758503 39.5
3.3545756 2.9188728 1.770535 35.5
3.6979136 2.9161019 1.7716287 34
4.108933 2.9638741 1.7655216 33
4.4957042 2.9301534 1.7614993 33
4.8892775 2.9194164 1.7617097 29
5.289011 2.8766665 1.7614247 28
6.5557346 2.9614725 1.7622648 21
7.7232504 2.9447441 1.7606989 25
0.52882874 3.0859795 1.7595415 62
0.82307714 3.1070454 1.756251 47
0.96177542 3.1313291 1.7627537 55.5
1.3024615 3.0385339 1.7694155 45
1.4551607 3.0451689 1.7610019 49
1.6003195 3.1103449 1.7596434 51
1.8636212 3.044347 1.7644306 47.5
2.1861243 3.0750222 1.7682039 51
2.3983331 3.0514104 1.7639002 48
2.4975529 3.1082964 1.7720543 46
2.5884075 3.0791745 1.7603896 45
2.7368603 3.0265086 1.7637511 43
2.9754629 3.0607238 1.764557 39
3.101959 3.1143656 1.7620646 34
3.3299482 3.0320671 1.7671071 37
3.695014 3.0508213 1.7665154 34
4.069128 3.0419679 1.7623752 36
4.460269 3.0112627 1.7590567 32
6.1016755 3.098088 1.768401 22
9.0099354 3.0163209 1.6980239 42
0.56552315 3.2661309 1.7630619 57
0.73722345 3.2464354 1.7639989 58
1.5746303 3.1577065 1.7603608 54
1.732245 3.1847548 1.7558389 50
1.8643583 3.2418253 1.7577052 53.333332
2.168189 3.2274377 1.7532667 51
2.5101116 3.2406485 1.7668844 44
2.7897696 3.1783743 1.7657334 42.5
2.9344213 3.244524 1.7547487 41
3.1572652 3.2648723 1.7588587 37
3.3295629 3.1867957 1.751099 33
3.4983387 3.2206397 1.7588826 31
3.7354119 3.2456055 1.7468079 31
3.886935 3.2848802 1.7606655 31
3.9078114 3.2286005 1.7475966 32
4.3871508 3.2784438 1.75218 32
4.7057247 3.276371 1.7578987 27
4.8577709 3.2731006 1.7381612 27
5.1358652 3.2607679 1.7424091 28.5
5.3854966 3.2579966 1.735926 18
5.5725355 3.1612546 1.7482957 21
5.7196174 3.2766111 1.7466651 19
8.3767672 3.2769752 1.715953 26
8.9988422 3.2106886 1.7112886 22
9.0951576 3.2448616 1.652181 29
0.58251762 3.3906157 1.7590834 66
0.77530974 3.3611822 1.7583388 51
1.1237468 3.3289852 1.7538208 48.666668
1.2578894 3.3084373 1.7595164 55
2.0382562 3.3216672 1.7503916 52.5
2.1970923 3.3955126 1.7523829 34
2.5304749 3.3802876 1.7508038 42
2.8676102 3.3446429 1.7645038 38
3.2561924 3.4376876 1.7597369 31
3.3390813 3.3543687 1.7453903 36
3.6103818 3.4185693 1.7438146 33
4.2647057 3.3131881 1.7662205 29.5
4.6417565 3.3015413 1.7374955 32
0.81866306 3.4768391 1.7552043 52
1.0087242 3.5179651 1.7519568 51
1.4558272 3.5352969 1.7504647 51.5
1.5449347 3.4800856 1.7567211 57
2.3224788 3.453855 1.7448529 46
2.4321065 3.4627194 1.7474715 43
2.6049302 3.5447855 1.7467057 45
2.811219 3.5813506 1.7460552 37
2.9303203 3.5492206 1.7445669 37.5
3.6756809 3.5167816 1.7526573 31
3.7908857 3.4570024 1.7376322 32
4.1298685 3.5601583 1.7452465 24.5
4.2998462 3.5529675 1.732133 33
6.2475157 3.53266 1.7472898 10
8.3691177 3.5089126 1.704663 17.5
8.4625454 3.4636261 1.6923622 19
0.85786515 3.6095788 1.7498275 57
1.1064467 3.7034862 1.749741 48
1.2565747 3.6923366 1.7479721 54
1.3707696 3.6063471 1.7466282 52
1.8398129 3.6876967 1.7512983 51.5
2.5880809 3.612951 1.739581 47
3.0561919 3.7338419 1.7350528 36
3.2181511 3.6869104 1.7414707 33
3.3648481 3.6630673 1.7439116 32
3.7748888 3.7015715 1.742365 31
4.2260656 3.7251611 1.737939 26
4.6219897 3.629791 1.739194 26
4.6953917 3.6744604 1.736077 20
4.8703709 3.636091 1.7307841 16
5.2084055 3.6949291 1.7458733 29.5
5.3176856 3.6965003 1.731903 31
5.5043006 3.6971612 1.7299827 32
5.7612238 3.6674273 1.7470541 24.5
5.994451 3.7304883 1.7240788 32
6.1852894 3.7177668 1.7247831 27
6.4343243 3.6766403 1.7524215 23
1.17325 3.8504939 1.7489434 20
1.3406745 3.8146756 1.7445272 55
1.7557142 3.8421664 1.7393765 49
2.2153559 3.8279114 1.7460946 48
3.0064335 3.7890944 1.7333151 41
3.5676837 3.8734574 1.7274827 32
3.6669571 3.7848163 1.7395331 32
3.8769071 3.8019936 1.7334253 31
4.1319675 3.8466702 1.7271956 31
6.878715 3.8016059 1.7560946 3
7.1465397 3.8512197 1.7375406 23
7.7918682 3.7946079 1.7747439 1
1.4300737 3.9389246 1.7435776 54
1.5780042 3.940984 1.7419537 49
2.1882613 3.933435 1.7422673 42
2.5992503 3.9967191 1.735998 36
3.5005336 3.9490869 1.727638 33.5
4.0722508 3.9959192 1.7190732 15
4.4639091 3.9519355 1.738402 16
4.6730347 3.9209764 1.7333905 26
5.2435756 3.9598527 1.7348658 23
5.8451819 3.9622986 1.7341665 25
6.4502296 3.9092255 1.7254378 27
1.0043144 4.1549144 1.7380141 64
1.5229844 4.0849719 1.7389361 51
1.73991 4.122117 1.7350198 50.5
1.9404638 4.1996002 1.7272578 52
2.1638231 4.1165152 1.7267449 42.5
2.6060057 4.1464353 1.7294818 26
3.0371063 4.1785216 1.7323028 34
4.0306563 4.1578116 1.7229913 15
4.1342273 4.1524873 1.7323624 21
4.6512218 4.1205659 1.7183825 28
5.080822 4.0564222 1.7289523 31
5.7930269 4.1574144 1.7268735 23
7.2865744 4.1715698 1.677878 8
1.9202693 4.3309493 1.7313269 43
2.0694993 4.3093348 1.7222294 43
2.6401813 4.3334861 1.7237371 32
4.6488633 4.3387938 1.7169193 30
5.2822742 4.2199068 1.7137629 21
5.9290552 4.2630343 1.6943394 23
6.5581017 4.2149386 1.7174047 25
6.7317476 4.3337097 1.704729 26
1.2666942 4.4738588 1.7252399 28
1.3569609 4.4574518 1.7248205 49
2.2204995 4.4417272 1.7289537 40
3.0862541 4.3764749 1.7206372 33
3.541754 4.3801951 1.7369684 15
4.823895 4.3602686 1.7251865 31
7.6066508 4.3636231 1.7137316 0
2.3733692 4.5434766 1.7242401 37
2.5293655 4.6050897 1.720246 33
2.6657519 4.5251255 1.7188789 33
3.1785684 4.6278253 1.7117466 33
4.091897 4.5656414 1.7345611 29
5.3423047 4.5034924 1.7049719 27
5.5847754 4.5342026 1.7068614 26
6.1210799 4.6485648 1.6901382 18
2.6990197 4.7116551 1.7210349 34
3.6687531 4.6563606 1.7287031 33
4.7033029 4.7429204 1.7281226 32
6.4244795 4.6700349 1.6763364 20
1.6132954 4.9331684 1.7109929 37
2.8789582 4.8339815 1.7158563 35
3.055191 4.9114189 1.7122988 25
3.2845566 4.916646 1.7137204 27
4.310564 4.916914 1.7218996 28
5.3931394 4.9210973 1.7245682 24
7.5091076 4.8633294 1.6798304 25
8.0474281 4.8932691 1.6714398 28
3.2575166 5.0090399 1.718165 27
3.8354185 4.9768848 1.7134119 29
6.04284 4.9894843 1.6783739 11
2.2424374 5.1692209 1.7092556 33
3.4722733 5.1546178 1.710445 30
3.6687307 5.2417431 1.7032126 30
5.0581698 5.1925721 1.7160119 25
2.1509666 5.3388243 1.6982468 34.5
3.896312 5.3156176 1.7131408 31
4.0173616 5.3366027 1.7020246 31
4.1341619 5.3916311 1.7056328 27
4.5874853 5.3243036 1.6999205 21
7.9555273 5.338244 1.6911167 23
2.8210661 5.6173553 1.7115234 26
4.1692824 5.5746241 1.6925703 31
4.3797684 5.5886269 1.6902739 22
4.6163368 5.6151304 1.6995364 25
4.8378081 5.6112618 1.6807042 7
2.7744548 5.7635684 1.6936313 64
2.760895 5.9686694 1.6782383 31
3.4706535 6.0527897 1.6903242 34
2.7488096 6.2091155 1.6769408 29
9.4008026 6.2926059 1.6540238 13
3.5025094 6.3310356 1.6816577 26
2.7489238 6.620441 1.6770316 27
3.011286 6.9435563 1.6695243 8
3.8034422 7.3360043 1.7467242 3
3.4758384 7.6337457 1.7587546 29
3.7512677 7.7456899 1.7491933 27
3.8100097 8.0324526 1.7331618 27
4.0588484 8.0268211 1.7188414 27
-0.50612217 -2.1512523 1.8145638 50.5
-0.44480538 -2.18279 1.8345965 56
-0.79390848 -1.9680941 1.8768219 76
-0.64775687 -2.0469661 1.8749523 73
-0.56787395 -2.0667324 1.8811671 78
-0.23426321 -2.032012 1.8708111 56.5
-0.9289676 -1.9098151 1.8711799 70
-0.75461853 -1.8524911 1.8762821 69
-0.6780802 -1.9117539 1.8909042 52.599998
-0.41470689 -1.8864534 1.8718313 74
-0.20554399 -1.9023561 1.8775455 75.833336
-0.074335456 -1.8761935 1.8460628 29
-1.3741764 -1.6881254 1.8361892 54
-1.2262967 -1.7638147 1.8179671 54
-1.1852164 -1.7818933 1.810949 46
-1.022272 -1.7348582 1.8741575 71
-0.83340061 -1.744493 1.8693917 77.25
-0.72820121 -1.7253431 1.8698469 79.333336
-0.52104646 -1.7376692 1.8653659 77
-0.37269846 -1.742221 1.8671867 67
-0.24239364 -1.7385981 1.8735769 79
-0.052041639 -1.7200139 1.8676326 74.5
0.023124408 -1.6632714 1.8511299 51.5
-1.5791616 -1.5599327 1.854539 71.5
-1.4221309 -1.5766295 1.8678554 75
-1.3098172 -1.6330988 1.8736253 71.25
-1.1026253 -1.5589205 1.8711644 71
-0.92845768 -1.5870384 1.8665375 80.666664
-0.81522352 -1.573469 1.8691779 76.25
-0.61791009 -1.5953139 1.8647186 33
-0.49964535 -1.5523485 1.8656482 33.333332
-0.36417982 -1.5798188 1.8655778 66.428574
-0.19807602 -1.5848994 1.8660507 83.666664
-0.064933375 -1.5654372 1.8670045 79.625
0.061456069 -1.5815854 1.8665881 75.666664
-1.9502714 -1.3547852 1.8658971 65
-1.8859749 -1.4024714 1.8562922 61.666668
-1.5390003 -1.3901842 1.8643138 62
-1.3960633 -1.4439286 1.864844 80.25
-1.3214813 -1.4584062 1.8752099 70
-1.1687642 -1.3840925 1.8625463 79
-0.98149657 -1.4319974 1.8666737 46.5
-0.86308247 -1.4237851 1.8702797 32.333332
-0.65411001 -1.4074157 1.8661585 33
-0.53868681 -1.4070331 1.8663957 28
-0.39983541 -1.4290693 1.866781 29.200001
-0.22868611 -1.4190549 1.8628582 60
-0.077176623 -1.4323474 1.8659291 74.333336
0.079691887 -1.4508493 1.8628469 83
-2.0049438 -1.2613043 1.8384687 50
-1.8713011 -1.2221457 1.8650426 71
-1.7029395 -1.314653 1.8637978 68
-1.5640705 -1.2444873 1.8596063 72.5
-1.4079806 -1.2755888 1.8635876 74.5
-1.2319928 -1.2211556 1.8673095 31
-1.1033019 -1.3123168 1.8656698 28
-0.96985573 -1.2742661 1.8659329 30.833334
-0.77955782 -1.317486 1.8675996 33
-0.67260885 -1.2535747 1.86523 31
-0.51636523 -1.2749295 1.8663588 29.666666
-0.37270671 -1.2749442 1.8648839 25.25
-0.21381822 -1.2730172 1.8641367 44.142857
-0.069529891 -1.2829982 1.8642777 67
-2.0634503 -1.1025883 1.868322 0
-1.9213219 -1.1912552 1.8634084 70
-1.7058939 -1.0907896 1.864452 52
-1.5470624 -1.1243153 1.8549774 75.5
-1.4489667 -1.11048 1.8657221 41.5
-1.2800441 -1.0545448 1.8599559 31
-1.1145586 -1.133518 1.8627881 31.666666
-0.98890525 -1.1216503 1.8655403 32.599998
-0.81117237 -1.1422259 1.8622011 34.5
-0.67192638 -1.1349635 1.8621815 31.5
-0.52964902 -1.117399 1.8574227 24.857143
-0.37635854 -1.1371781 1.8541389 17.125
-0.24375944 -1.1377501 1.8624796 19.200001
-0.14376944 -1.1136082 1.8595294 18
-2.0200512 -1.0341429 1.8712894 0
-1.9137225 -1.0097189 1.8539251 14
-1.7743773 -0.92542106 1.8520697 74
-1.5523319 -0.95068711 1.8581296 72.25
-1.443428 -0.94503939 1.8594202 68.5
-1.207536 -1.0092503 1.8663415 32
-1.1042845 -0.96925658 1.8619106 33.75
-0.97148484 -0.99464893 1.8649102 34.666668
-0.81123161 -0.99376011 1.8463711 29.5
-0.66406 -0.97651893 1.8473791 29.888889
-0.52940398 -0.98085034 1.8480558 22.6
-0.37908375 -0.95947385 1.8472894 17.5
-0.23750889 -0.99709386 1.851665 15.666667
-1.6949044 -0.88118309 1.8541664 63
-1.5709443 -0.8073554 1.8571724 75
-1.4700128 -0.78764749 1.8626004 77
-1.2856989 -0.87807792 1.8623018 33.5
-1.1237882 -0.83076966 1.8524348 32.799999
-0.98260826 -0.82701081 1.8459872 32.333332
-0.82858229 -0.82505387 1.844061 33.5
-0.67090362 -0.83570915 1.8468641 32.57143
-0.52174723 -0.82217032 1.8465738 27.285715
-0.37879023 -0.80535102 1.8456907 22.666666
-0.27670175 -0.83914495 1.8456436 19
-1.8024731 -0.7387358 1.851035 0
-1.7078905 -0.70116812 1.8312835 41
-1.5872971 -0.67652118 1.8557614 75.5
-1.4088169 -0.68759084 1.8578227 75
-1.2500808 -0.70126802 1.8507283 44
-1.1391009 -0.69596469 1.8521494 35.25
-0.96604282 -0.65860438 1.8437169 33.400002
-0.79943717 -0.66707498 1.8443494 34
-0.67526537 -0.68471199 1.8433989 32.909092
-0.51561028 -0.6618436 1.8443176 33.666668
-0.40069327 -0.69367772 1.8447051 27.666666
-1.5775462 -0.53236574 1.8393613 64
-1.4295456 -0.53614795 1.8583935 74.5
-1.2593416 -0.55725521 1.8483273 78.666664
-1.1202886 -0.54782909 1.8449824 32.25
-0.98965281 -0.52049613 1.843576 33.333332
-0.81482869 -0.51984262 1.8411154 35.333332
-0.68227005 -0.51535755 1.8407968 34.142857
-0.51913643 -0.53666729 1.8402146 32.666668
-0.37781107 -0.54373252 1.8413258 30.5
-1.5295743 -0.31666625 1.8352455 2
-1.4417515 -0.38579389 1.8528544 84
-1.2810739 -0.41785064 1.8479127 86.333336
-1.1264117 -0.38170969 1.8429136 63.5
-0.95470572 -0.37207329 1.8416085 34
-0.81635666 -0.36112219 1.8392397 33.857143
-0.6786046 -0.37578398 1.8368874 32.25
-0.53157765 -0.36941648 1.838425 31.833334
-0.41571838 -0.37930462 1.8369087 32.5
-1.4476957 -0.23735444 1.8475946 45.5
-1.2646676 -0.24125475 1.8441191 71
-1.1251944 -0.2012469 1.8388267 77.5
-0.94542247 -0.24485914 1.8384384 36.599998
-0.80589163 -0.22574234 1.8360699 32.125
-0.68915367 -0.22629394 1.8321112 31.125
-0.54565126 -0.2377671 1.8364114 30
-0.4408859 -0.21706426 1.8302178 30.5
-1.2821293 -0.077274852 1.8327214 85
-1.104659 -0.082230516 1.8360215 69.333336
-0.96493149 -0.084052615 1.8331012 71.666664
-0.81973231 -0.088546358 1.8340423 32.857143
-0.68705046 -0.064510979 1.833305 32.375
-0.5288319 -0.078051746 1.8316556 31.375
-1.2451231 0.074541442 1.8245971 62.5
-1.0809789 0.032073468 1.8304287 80
-0.97477245 0.075045176 1.8288631 80.400002
-0.81661713 0.068361305 1.8294251 46.400002
-0.6938138 0.071369506 1.8304132 31.666666
-0.5242402 0.086054094 1.82599 33.142857
-1.2026404 0.19073454 1.8214854 62
-1.1055081 0.23534757 1.8262331 85.5
-0.96883565 0.21640974 1.8231915 72.75
-0.82628274 0.22798097 1.8262804 80.125
-0.67229402 0.22020097 1.8267123 33.777779
-0.5396387 0.21935275 1.8269066 32.200001
-0.44591942 0.22807595 1.8204888 35
-1.0915167 0.36409199 1.8283081 81
-0.96413565 0.3723653 1.8245432 77
-0.81020826 0.36858571 1.8250175 72.75
-0.69145095 0.38217282 1.8202969 60.857143
-0.53806406 0.38811442 1.8224686 33
-0.43028915 0.3529309 1.8206075 34.5
-0.97785598 0.48935652 1.8198696 80.666664
-0.81173909 0.52684432 1.8178978 77
-0.66190743 0.5245685 1.8157518 73.444443
-0.54709917 0.53288245 1.8161901 43
-0.41053653 0.52605528 1.8214645 36
-0.92568874 0.65333813 1.8135175 72
-0.81717533 0.686436 1.8168663 76.14286
-0.66976708 0.6589269 1.8136377 76.5
-0.52791256 0.67482984 1.811193 63.5
-0.38686225 0.68354201 1.8104159 71.199997
-0.77796286 0.83201653 1.8110785 76
-0.65297741 0.81478423 1.811898 79.125
-0.52693272 0.81889343 1.8090152 73.285713
-0.38023692 0.82500166 1.8128873 71.5
-0.29681945 0.83510244 1.810223 61
-0.79012311 0.92030662 1.8105205 77
-0.6738168 0.96797514 1.8137695 85.5
-0.51909918 0.96931154 1.8080509 76.125
-0.38083985 0.97073156 1.813303 47.285713
-0.24555032 0.97621346 1.8122839 72.666664
6.6439438 1.046874 1.820526 23
-0.64385456 1.0869645 1.8167176 94.333336
-0.51574486 1.1116732 1.8163799 90.400002
-0.38186145 1.1395153 1.8182682 71.5
-0.22142561 1.1180054 1.8157351 81
6.6254435 1.0859876 1.8176669 24
-0.62609798 1.2236818 1.8178459 81
-0.51930118 1.2463849 1.8144364 83.333336
-0.37865749 1.2775583 1.8138752 80.333336
-0.21938138 1.2648638 1.8155981 61.599998
-0.091039866 1.2838565 1.8135309 68.5
6.429287 1.3402125 1.8098623 23
6.4978361 1.3194727 1.814669 24
7.9855223 1.347245 1.8212954 31
-0.54197979 1.3566129 1.8085096 68
-0.3969475 1.4445964 1.8078228 72
-0.23575349 1.4129868 1.8102663 70.599998
-0.061803494 1.4247425 1.8084608 70.25
0.039429244 1.4493432 1.8080534 74.5
-0.35180759 1.6091552 1.8041581 72
-0.2356824 1.5438831 1.8063538 74.400002
-0.087246604 1.569796 1.8080771 57.142857
0.083469652 1.5855682 1.8029835 69.400002
6.203228 1.5759759 1.8021742 31
6.3017154 1.573271 1.8054138 31
-0.026919145 1.7293444 1.8047361 50.5
0.2093752 1.6911836 1.8005635 70.333336
-0.097442776 1.8034215 1.8015352 69
0.050849505 1.8594202 1.8037831 54.5
0.31123728 1.8619341 1.800929 67
