# .PCD v0.7 - Point Cloud Data file format
VERSION 0.7
FIELDS x y z intensity
SIZE 4 4 4 4
TYPE F F F F
COUNT 1 1 1 1
WIDTH 205
HEIGHT 1
VIEWPOINT 0 0 0 1 0 0 0
POINTS 205
DATA ascii
0.24771889 2.749717 -0.91139317 15
0.33518809 2.9141166 -0.91536772 12
1.5333998 2.9299707 -0.90067238 8
0.77802318 3.244844 -0.90880388 5
1.4723947 3.2896118 -0.90364504 10
1.6441116 3.223448 -0.90715307 10
0.69020599 3.321764 -0.90577483 8
1.7596014 3.5355604 -0.92204803 11
2.3954148 3.5659885 -0.90809119 2
3.2421253 3.4731851 -0.92653292 1
0.76453286 3.6943281 -0.91099668 1
1.2458807 3.7110982 -0.92053783 5
1.8542523 3.8302796 -0.92761654 12
2.0216572 3.754519 -0.91659528 8
1.8276117 3.9269733 -0.92778927 9
1.5438951 4.1765075 -0.92909402 9
2.0903413 4.5741124 -0.95038551 1
2.6624174 4.5938463 -0.95195395 9
1.9195235 4.7533827 -0.94436181 1
2.4029536 5.3551774 -0.98662883 1
3.490478 5.6708064 -0.97555697 1
2.4108922 5.8280635 -0.98264444 3
3.9402292 6.1177893 -0.90389192 34
3.0746114 6.2621889 -0.98905295 1
4.4496498 -0.16393156 -0.83948195 8
3.3578649 -0.016962109 -0.83253151 5
3.4546638 -0.11188802 -0.84046674 6
4.234695 -0.11387205 -0.8349669 1
2.7796371 0.07249596 -0.83878148 7
3.4377367 0.13287573 -0.84611678 6
4.4173894 0.12880456 -0.85009098 1
2.87607 0.28933129 -0.84286362 7
3.4841611 0.22666436 -0.83858049 6
4.4760537 0.16849676 -0.84776384 1
3.5016212 0.359891 -0.8031944 28.5
3.0083332 0.52570242 -0.8459065 7
3.4711034 0.4650012 -0.81902021 40
3.6267524 0.69813228 -0.83423567 22
3.2574244 0.81277317 -0.85438055 8
2.1413941 0.93606406 -0.8036949 0
3.7906005 0.99989235 -0.82502484 40
4.0261707 0.93916124 -0.78853333 69
2.1782782 1.2117158 -0.86025363 9
2.5809252 1.3134726 -0.84534729 16
1.7300985 1.4718711 -0.75880593 50
1.9571614 1.4868543 -0.77227569 5
2.1618741 1.4663543 -0.85854894 9
2.3280587 1.4357197 -0.8601023 6
1.7918267 1.5845596 -0.7906639 47
2.0866289 1.5055865 -0.87004691 10
2.2023134 1.5083727 -0.86674345 9
1.8637266 1.7043253 -0.7749421 33
1.9438536 1.8569869 -0.75840002 39
1.5926614 1.9602655 -0.86443037 5
2.0297446 2.0132594 -0.78902894 35
2.9111235 1.9516352 -0.79026008 45
0.096120402 2.2362614 -0.76922816 10
1.5579853 2.2330363 -0.87366903 6
2.1380298 2.1922867 -0.7569139 29
0.026412766 2.3942249 -0.76048678 49
0.51913756 2.3917675 -0.7855289 26
1.3473072 2.2955844 -0.88048255 5
1.9307916 2.2541771 -0.87203252 9
2.2198808 2.3662016 -0.75114924 12
0.55162138 2.4044962 -0.81321615 40
0.67900598 2.446718 -0.88578671 17
0.81677479 2.4414687 -0.88433927 13
1.2219043 2.466805 -0.87819219 6
1.4073681 2.4696662 -0.88634896 6
0.21864654 2.5746038 -0.89484817 12
0.99996179 2.6731262 -0.88928014 6
1.4510669 2.6208816 -0.8940227 4
1.5628783 2.6369059 -0.88753855 7
1.8850865 2.5590391 -0.87906611 11
0.22536899 2.7065959 -0.89718407 12
1.4767233 2.7545576 -0.89539236 5
1.2057058 2.9400072 -0.89081663 5
2.3247764 2.9870138 -0.88838243 6
1.9130197 3.0191705 -0.89528459 9
3.5876331 3.7802422 -0.88430655 3
2.81499 3.9893622 -0.88315594 16
3.8217542 4.13906 -0.75326812 80
3.7517974 4.4555178 -0.80297858 45
2.0887039 4.9072366 -0.87143523 21
1.7020991 5.0434737 -0.76967323 20
4.6735487 5.7275648 -0.83408046 35.5
3.3865612 6.3992281 -0.83372617 18.5
4.4773693 -0.19958086 -0.72406805 62
4.6127391 0.058661431 -0.69439834 73.333336
3.5792339 0.29432938 -0.66245937 48
3.6223607 0.27373618 -0.63749337 46
3.4707618 0.35387176 -0.72351271 46
3.4923229 0.53932643 -0.67729503 78.25
2.5199957 0.89559555 -0.6185503 68
2.5964062 0.8477388 -0.67854005 73.666664
4.1007843 0.87510574 -0.69658101 49
2.370852 0.9887327 -0.64572304 63.5
4.03477 0.93900114 -0.7160666 59
2.0219693 1.2266848 -0.71026862 3
2.5176826 1.2538222 -0.62025714 58.5
1.6882976 1.3699927 -0.69898397 75.333336
2.0188739 1.3967667 -0.74655235 7
1.7869537 1.5726739 -0.71101052 52
1.8496819 1.6894578 -0.68000007 39
-0.23491363 1.9127526 -0.64612204 48.333332
0.43043637 1.9229507 -0.66962039 4
-0.18649025 1.9937124 -0.64409846 47.400002
2.024442 1.9932123 -0.71494204 37
-0.08583428 2.1724224 -0.74496228 50
0.043509673 2.2343428 -0.69055307 151
0.28928435 2.2203202 -0.6294418 1
2.1259651 2.1702037 -0.69804674 31
-0.0253613 2.2907038 -0.70508868 46.666668
0.015772026 2.3686147 -0.73029947 50
0.39492854 3.0604753 -0.71640211 37.5
2.7716184 3.8349149 -0.62821007 15
3.8581474 4.1214862 -0.61177045 89
3.4945607 4.5466385 -0.71826136 72
1.7379372 4.8979201 -0.65932089 4
1.6433859 4.9583898 -0.69881827 5
1.8625953 5.7208724 -0.64838058 16
3.5710473 6.32447 -0.66121727 36
-0.16186874 -2.0469089 -0.45592162 12
-0.12369457 -1.9886284 -0.4868145 37
-0.080209292 -1.8902218 -0.51816422 54.200001
-0.031825561 -1.6810071 -0.56738144 65
0.027303126 -1.6955349 -0.57716364 25.5
-0.038351852 -1.6230181 -0.52712381 35
0.11113955 -1.5591992 -0.48984814 9
-0.086828068 -1.4736087 -0.48788786 7
0.22724779 -1.3604116 -0.45921201 8
-0.093506157 -1.3189431 -0.4572618 7
0.23161472 -1.3423994 -0.46579689 8
4.7601185 -0.38508993 -0.46860906 2
4.5641093 -0.25360405 -0.57976168 27
4.5342369 -0.080010451 -0.46699324 69
3.7061718 0.23580538 -0.57123291 47
5.1906662 0.2445091 -0.47609124 83
3.4355927 0.43396658 -0.56144261 77
3.5810199 0.68025637 -0.56901616 85
3.6005216 0.71644235 -0.58164394 73
2.6114228 0.84452814 -0.50451368 63.333332
2.7099438 0.78017455 -0.57025158 20
2.3941057 0.97178811 -0.46421495 70
2.4559736 0.96264964 -0.55149931 84.75
3.9162154 1.0092461 -0.56987047 66.5
1.9432225 1.0995241 -0.48404312 6
2.0934074 1.1033299 -0.45897731 89
2.4261467 1.1046036 -0.51040959 50
1.912764 1.333281 -0.47046757 44.5
2.5308928 1.2995478 -0.52890867 18
1.6902467 1.3701167 -0.57654524 77
-0.41478997 1.5834947 -0.47586039 42.75
2.8036525 1.6275312 -0.59838098 18
-0.3314586 1.7399998 -0.54336137 50.400002
1.8337138 1.6579393 -0.54007274 35
-0.27458495 1.8427961 -0.49345413 46.599998
-0.17289859 2.023345 -0.56899709 23.666666
-0.14350393 2.0682766 -0.59712046 44
0.34261227 2.0305908 -0.50548029 44.5
2.0608413 2.0589139 -0.49391863 31
-0.087124802 2.1767793 -0.52755439 51
0.21217534 2.2225268 -0.53585535 43
0.30154419 2.198375 -0.48353142 55
2.0914295 2.1117778 -0.57774872 27
0.090541109 2.3586149 -0.55960673 152
0.17531897 2.3316259 -0.54216123 161
0.74425048 2.2962117 -0.46725345 19
0.092528909 2.5211544 -0.50970691 48
2.9429705 3.6687243 -0.53043991 8
2.7805121 3.8343141 -0.59386635 17
2.8656633 4.1150923 -0.55500352 6
3.9105947 4.1024528 -0.47596776 23
2.9629059 4.2664342 -0.4795422 4
3.1970017 4.7332339 -0.54172027 1
4.017787 6.0885868 -0.5328142 35
4.4509249 9.2441177 -0.57951182 28
4.821557 9.5151682 -0.45055547 9
-0.16893934 -1.7262156 -0.4056071 9.5
-0.16444822 -1.5267029 -0.42916077 150
0.097190544 -1.5842532 -0.44885644 7
-0.15887776 -1.3515658 -0.41951269 21
-0.14682543 -1.3527684 -0.40958375 8
-0.079569519 -1.3177738 -0.42470062 10.125
0.36324549 -1.1125636 -0.40630373 11
3.4223499 0.37845004 -0.41584438 55
2.401288 0.96844268 -0.41155094 66
2.0484092 1.1112981 -0.40899253 5
2.1616647 1.0533911 -0.43109754 36
1.929029 1.2637841 -0.44474721 113
1.9587736 1.2059767 -0.4311493 74
-0.49569979 1.4418327 -0.40823969 3
1.7683849 1.4144317 -0.41281864 155
2.0105131 1.4993593 -0.40105873 18
-0.40430146 1.6056067 -0.42870975 48.200001
-0.36145538 1.6846201 -0.41083771 50
-0.30235437 1.8038882 -0.44707298 47
0.069685891 2.0076723 -0.40013438 80
0.4243421 2.0138569 -0.41699135 98
-0.087849662 2.1812027 -0.41778335 43
0.38272741 2.1356001 -0.4248336 150
0.77894312 2.2479472 -0.43053025 6
0.055574398 2.4622326 -0.44819316 56
2.9936073 3.660305 -0.42172381 16
3.8804247 6.1535368 -0.43418229 34
