# .PCD v0.7 - Point Cloud Data file format
VERSION 0.7
FIELDS x y z intensity
SIZE 4 4 4 4
TYPE F F F F
COUNT 1 1 1 1
WIDTH 222
HEIGHT 1
VIEWPOINT 0 0 0 1 0 0 0
POINTS 222
DATA ascii
0.61456335 9.6747255 -0.90503728 1
2.5776582 -2.385273 -0.78130633 0.5
2.4726195 -2.1858001 -0.80721366 4.5
1.9317942 -2.0049601 -0.81078154 6
2.200408 -2.0856936 -0.81145126 4
2.4588165 -2.0394616 -0.80914551 5
1.4814844 -1.8465344 -0.81058502 13
2.1596644 -1.9308369 -0.80101526 5
2.2901666 -1.8781152 -0.8070119 5
2.5400488 -1.8202487 -0.81998551 8
2.0760162 -1.6842496 -0.80028474 3
2.1792772 -1.6992816 -0.81730217 4
1.8906569 -1.5640486 -0.80824858 5
2.206861 -1.6296586 -0.81132007 4
3.2596803 -1.6283458 -0.81686586 16
2.0528264 -1.4975334 -0.8103078 4
2.2242255 -1.421762 -0.81771415 4
1.9263809 -1.3389074 -0.81677055 4
2.0276191 -1.3187226 -0.81268692 5
2.8551652 -1.2058834 -0.82073164 8
3.4123368 -1.3488415 -0.80881286 10
3.0392749 -0.9833613 -0.81286955 5
2.5485749 -0.88102555 -0.81909543 6
-0.032210175 2.4635653 -0.84365827 6
0.012813014 2.5117855 -0.84120274 5
0.24909176 2.4549322 -0.84626579 5
0.31155246 2.4729171 -0.84276325 8
0.60277516 2.5200915 -0.83949447 14
-0.010952222 2.6984305 -0.84347612 7
0.01895725 2.6162412 -0.83996606 6.3333335
0.33502769 2.610271 -0.84399456 8.5
0.80501598 2.5905962 -0.8456772 1
1.6211487 2.6930852 -0.7767837 85
-0.029602516 2.7370856 -0.84292519 5
0.10759495 2.7660766 -0.83818364 5
0.25310212 2.7706554 -0.84264356 10
0.85796988 2.7721081 -0.84503508 11.5
-0.2054337 2.9292338 -0.84499735 5
0.2643708 2.9451408 -0.83929908 12
0.48237967 2.8861656 -0.84161031 11
0.87449592 2.9527404 -0.84663773 4
-0.18820515 3.0446227 -0.84935278 6
-0.12539005 3.1088355 -0.84481007 5.3333335
0.24505615 3.1417828 -0.84824765 9.5
0.90029782 3.1286099 -0.84549999 7
-0.1082212 3.197726 -0.84209007 5
0.62608618 3.1560264 -0.84375346 11
0.83220595 3.2018661 -0.84071112 6
-0.06282378 3.3450327 -0.83486193 5.6666665
0.28126776 3.3146472 -0.8452822 11
0.36700717 3.3706779 -0.81622976 54.5
0.68237036 3.448308 -0.75194687 13
-0.13355803 3.4911969 -0.848809 4
0.17549278 3.5001545 -0.84530658 9
0.92349166 3.5874405 -0.84788358 6
-0.15366912 3.6098697 -0.84821147 6
-0.40127775 3.8981497 -0.83069992 46
0.2016889 3.8719766 -0.84769779 10
1.047575 3.8045635 -0.86780411 6
-0.34058222 3.9951315 -0.82418656 27.166666
-0.29267299 4.0078702 -0.84323281 6
0.99118721 4.0053482 -0.83840495 9
1.2887104 4.0002809 -0.75279665 1
-0.32391554 4.0501189 -0.79227453 42
0.22494943 4.2695751 -0.85641742 12
1.3570747 4.3847747 -0.87256664 1
2.3841562 5.3134089 -0.75597191 147
2.4445243 5.2764683 -0.75168747 145
-0.7608428 6.0573425 -0.87813735 1
-0.65009081 6.0073948 -0.87856925 1
-0.71081322 6.2773561 -0.88094336 1
-0.68636167 6.3215742 -0.88019764 1
-0.80949575 6.5398102 -0.89427674 1.5
1.8603714 6.4837699 -0.76453853 21
-0.68482918 6.6377907 -0.88608795 2
-0.78606379 7.285851 -0.85192883 10
-0.85022813 7.4798999 -0.76893556 34
2.5768023 8.094739 -0.75633264 31
0.57117772 -5.1513467 -0.64222515 35
0.13356946 -4.5429635 -0.67643958 20
0.22261299 -4.591495 -0.68484032 18
2.6020858 -3.0736845 -0.69265896 6
2.7800193 -2.5052125 -0.70836413 5
2.236531 -2.2530489 -0.73959631 5
2.3178377 -2.2893043 -0.70400786 5
1.9778477 -2.1369328 -0.66724408 6
2.1120989 -2.1934443 -0.68013358 4
1.6544363 -1.9972129 -0.68503189 5
1.8998036 -2.0926528 -0.61179358 4
2.4623885 -2.0026872 -0.74266458 11
3.187989 -1.8384005 -0.67525721 65
1.0076505 -1.6771091 -0.67651767 7
3.1941257 -1.7820779 -0.64357519 98
0.79591268 -1.5704861 -0.61046648 19
3.288178 -1.6215876 -0.62508363 124
3.3223021 -1.5576743 -0.69423622 64.333336
3.3872867 -1.42278 -0.66354084 104
3.4336636 -1.2926391 -0.71532279 39
3.471782 -1.2370849 -0.64169258 112
3.141608 -0.93750429 -0.64534199 105
3.1533029 -0.91610014 -0.63020784 97
2.8095555 -0.84148216 -0.67951715 2
2.3147366 -0.65311438 -0.66240305 1
2.059649 -0.49459073 -0.62237334 67
2.163136 -0.57303536 -0.7123636 13
2.0842822 -0.40451038 -0.66109961 86.666664
2.1133792 -0.35300139 -0.65093362 87
1.6500826 2.679852 -0.67347169 36
1.4034339 2.8064404 -0.66857916 86.75
1.3035445 2.8535833 -0.62163943 93
0.41927463 3.2957261 -0.61368835 99
0.52854943 3.2531683 -0.68144244 80.666664
0.23026371 3.3794785 -0.64376032 61.5
-0.22903837 3.566268 -0.73073983 0
-0.03498869 3.5851645 -0.72664076 0
1.6279722 3.5660551 -0.65488267 43
-0.47753251 3.7468717 -0.61904776 51
-0.052739311 3.6262267 -0.67679459 0
0.11616434 3.6226537 -0.73981577 9
0.15782116 3.6144047 -0.72845721 5
-0.42200238 3.8411529 -0.60920966 45
0.80412537 3.8585193 -0.70811856 39
-0.36916098 3.9748204 -0.73076206 50
0.91741067 3.9382224 -0.65607607 7
1.379828 4.0178723 -0.68764138 1
-0.24620739 4.2107053 -0.64471251 51
-0.088873059 4.536922 -0.69174403 35
-0.018504474 4.6828241 -0.69289708 39
2.2958612 5.3539443 -0.67523926 142
0.40643805 6.29533 -0.65278518 15
-1.2366316 6.69204 -0.62007511 55
-1.1738282 6.8131518 -0.66402483 51
-1.1167018 6.933219 -0.67328227 53
-1.01613 7.1271276 -0.60871595 49
-0.088990152 -4.4419565 -0.5398376 84
-0.14371902 -2.9493074 -0.45344907 0
0.10305056 -2.8509555 -0.46705323 4
-0.092183217 -2.812325 -0.49307585 3
0.020541336 -2.8166027 -0.46797472 3
2.0903492 -2.1862435 -0.55220455 4
1.6202933 -1.9790725 -0.54668057 3
1.7256231 -2.0189519 -0.57099628 2.5
2.4581878 -1.9672854 -0.49368948 31
3.0934484 -2.0204742 -0.51568943 89.333336
1.2959605 -1.8196911 -0.47119892 3
1.4373767 -1.8772507 -0.50114906 2
1.5018046 -1.9039906 -0.51658958 0
2.6491749 -1.8372083 -0.59372038 0
3.1440752 -1.915544 -0.4807713 101
3.182199 -1.8452848 -0.52023828 115.5
0.96084052 -1.6634749 -0.45086083 4
1.1566207 -1.7584989 -0.45187825 4
3.2524543 -1.6833992 -0.53784305 109
0.71485609 -1.5308281 -0.54834598 20
0.77338773 -1.5619116 -0.57601899 17
0.93489224 -1.6307393 -0.58787405 2
3.2682252 -1.6448603 -0.51950687 105
0.34233922 -1.3520195 -0.46892917 27
0.51119286 -1.43459 -0.48723823 22.6
0.61679894 -1.4881035 -0.54243034 21.666666
3.3698511 -1.4522016 -0.55927944 113.5
2.0477264 -0.49646142 -0.56485522 88
2.1161599 -0.3528221 -0.57516229 99
1.5780613 0.57260054 -0.56384736 60
1.2969282 0.70905799 -0.50229686 64
1.4013746 0.65791041 -0.50087845 62.5
1.5109882 0.60713834 -0.49677801 63
2.0725851 0.64955002 -0.56334019 2
1.2647457 0.81107193 -0.4796516 124
1.3978277 0.98569185 -0.55342031 79
0.71894556 1.3954638 -0.46803501 5
1.4939268 2.7845325 -0.53400451 130
1.2975353 2.8727767 -0.46277609 150
0.42467439 3.2937193 -0.51461875 103
0.50624645 3.262105 -0.53073019 130.5
0.2232153 3.3894546 -0.5015586 78
0.36317483 3.3286839 -0.50965172 117.66666
1.6260017 3.5632143 -0.57504839 35
-0.48150128 3.7323091 -0.47590008 71
-0.055664945 3.6580012 -0.58541465 5
1.3114455 3.6774442 -0.48778248 76
1.4033837 3.6588273 -0.52186286 6
-0.35214424 4.0048676 -0.48186538 40
-0.30386278 4.1063662 -0.45549798 3
-0.26879129 4.1407752 -0.51391047 38.333332
-1.1615007 6.8299251 -0.55625618 52
-0.92968881 7.3097806 -0.59704471 37
-0.22561114 -4.3757329 -0.41849664 85
-0.29616946 -4.3366022 -0.40115482 95
-0.056230567 -2.7593775 -0.42924798 20
0.035120379 -2.6965711 -0.41817492 62
2.7605298 -2.4690425 -0.4044418 62
1.6268246 -1.9745944 -0.44339669 3
3.0565743 -2.0520234 -0.41381529 15
1.3516771 -1.8344504 -0.4497962 6
2.4917548 -1.8883245 -0.42653394 65.5
3.1694834 -1.8652132 -0.44587108 118
1.1289141 -1.7313645 -0.42274234 4.5
1.2183682 -1.7713101 -0.44325989 3
0.38173285 -1.378521 -0.42739725 9.333333
0.55128747 -1.4462848 -0.43483591 19
0.07577543 -1.2316068 -0.41522408 3.5
0.22728659 -1.3035873 -0.40491706 3
-0.037634153 -1.1619958 -0.40111396 1
0.00015513301 -1.1917796 -0.4069199 5
2.0316076 -0.42279294 -0.43246642 62
1.6860797 -0.23738727 -0.43816239 2
1.0871822 0.74799573 -0.41124058 73
1.2998517 0.74896729 -0.44553581 50
1.3791069 0.67794943 -0.40880978 68
1.5189588 0.60735655 -0.43381482 63
0.99004132 0.76988149 -0.4340691 12
0.70586902 1.3518778 -0.42537749 16
1.5251384 2.7359817 -0.42651686 104
0.5519951 3.2300761 -0.42499584 84
0.20187344 3.4265954 -0.43830934 25
-0.20350863 3.4944243 -0.40477815 0
-0.49030831 3.7339256 -0.40823156 53
1.2315532 3.7188725 -0.43746457 75
1.3971899 3.6557217 -0.42929992 47
-1.4560499 6.2304564 -0.41346979 71.5
-1.1915284 6.7962565 -0.44701502 54
