# .PCD v0.7 - Point Cloud Data file format
VERSION 0.7
FIELDS x y z intensity
SIZE 4 4 4 4
TYPE F F F F
COUNT 1 1 1 1
WIDTH 210
HEIGHT 1
VIEWPOINT 0 0 0 1 0 0 0
POINTS 210
DATA ascii
3.2601664 -0.41567636 -0.90292674 9
2.9718819 0.2377051 -0.90643936 7
3.1423192 0.22590481 -0.90552938 9
3.1962306 0.44303051 -0.91072845 13
2.9606624 0.4600206 -0.9074415 8
2.9906018 0.69211543 -0.90833509 8
3.2364373 0.66634411 -0.90898204 13
3.069144 0.94794238 -0.9099102 6
0.93831915 -4.0735312 -0.75133318 33
1.2214016 -4.0574784 -0.75637579 21
0.67375129 -3.9912603 -0.85811138 10
1.6164358 -3.9892502 -0.78680533 26
0.57007968 -3.8556252 -0.8558113 10
0.62585318 -3.7330096 -0.8493607 5
1.1126436 -3.7031589 -0.85937303 0
1.5876079 -3.7445667 -0.77356428 20
0.64702755 -3.5875857 -0.85388243 1
1.0193874 -3.5877209 -0.85510033 0
1.2687055 -3.5535343 -0.86181349 1
0.527291 -3.4305351 -0.83764482 5
0.6115067 -3.4210227 -0.86204755 4
1.4167989 -3.4252007 -0.867899 6
0.47079504 -3.2059431 -0.85440558 4
0.63019007 -3.209527 -0.84404206 4
0.63858497 -3.0681071 -0.85838556 4
0.52903581 -2.9173768 -0.85694778 4
0.86304563 -2.924021 -0.84736657 10
0.56067759 -2.8081012 -0.85134697 5
0.60119957 -2.7713397 -0.85185158 5
0.87974995 -2.7233059 -0.85335016 4
0.93525273 -2.7527196 -0.85632199 9
0.53154391 -2.6431208 -0.84953767 6.5
1.0768315 -2.6905289 -0.860484 9
0.44084436 -2.4826031 -0.85512036 12
0.56797361 -2.4951847 -0.85099751 8
0.64568764 -2.4670172 -0.85621184 6.6666665
0.83294839 -2.4953327 -0.85535061 12.5
0.81254226 -2.3578148 -0.85291237 12.5
2.3364384 -0.57980329 -0.8297376 3
2.5590513 -0.56669235 -0.76020867 0
2.7053683 -0.54194909 -0.8009367 4
3.2604995 -0.45233017 -0.84961993 6
2.4899504 -0.42478696 -0.88339567 5
2.7887607 -0.31966037 -0.89440781 4
2.7693746 -0.1856903 -0.81434029 25.666666
2.7018518 -0.12035866 -0.8922627 4
2.6730826 0.069527857 -0.89608425 8
2.8319383 0.0095492024 -0.82097793 3
2.8924921 0.017408071 -0.882375 5
2.6372428 0.25441816 -0.89291489 8
3.3113534 0.22659241 -0.82548189 48
2.6417093 0.44511059 -0.89276952 9
3.2852676 0.4353289 -0.78654599 80
3.2830005 0.47127223 -0.87402737 4
2.6813681 0.64628673 -0.89395308 9
3.2603033 0.65745544 -0.78698587 83
2.7429292 0.86406213 -0.89449626 9
3.2425709 0.88679457 -0.83850157 53
2.760757 0.99454403 -0.7894839 44
2.7869391 1.089833 -0.88463926 4
-0.26558223 2.5430126 -0.83239084 5
0.3711502 2.4967952 -0.84191263 6
-0.22811711 2.6433134 -0.83359998 5
0.4382894 2.5964081 -0.84016198 7
-0.2058267 2.8048465 -0.83564925 5
0.076250687 2.7180476 -0.84290415 5
0.44088891 2.7967508 -0.84161401 10
0.45293832 2.7416818 -0.84550667 8
-0.24333563 2.8843291 -0.83533216 3
-0.13189088 2.9758284 -0.83461952 4
0.38193488 2.9983976 -0.83864886 10
-0.072638229 3.1265507 -0.83467185 4
0.6476028 3.0475347 -0.84627974 10
0.28227305 3.1827207 -0.83936054 9
0.41004705 3.2502129 -0.83649164 11
0.54112893 3.4259944 -0.75718963 107
-0.017811764 3.5131652 -0.83762157 11
0.41935602 3.5109196 -0.83025664 14.333333
0.097733691 3.848846 -0.83884782 6
-0.24231303 4.0424557 -0.82956564 0
0.22546811 4.2377667 -0.83709776 1
-0.17633547 5.0915627 -0.84338742 2
-1.2509706 5.9634805 -0.76731908 120.5
-1.168174 5.9784641 -0.77418792 107
0.25905317 -4.1504364 -0.62471616 102
0.38865325 -4.1395102 -0.67340726 95.400002
0.47345626 -4.1314745 -0.72237229 99
0.67046714 -4.106483 -0.68994266 92.5
0.80788869 -4.0914569 -0.69081682 91
0.99090105 -4.0701709 -0.72617394 34
1.1823189 -4.0589924 -0.62034577 18
1.4171667 -4.0232964 -0.64585876 80.5
1.5692544 -3.9967353 -0.67937809 77.5
1.7665994 -0.64674807 -0.62552977 3
1.8196065 -0.64200032 -0.67060226 2
2.1567652 -0.60267812 -0.69999313 2
3.4111259 -0.68264568 -0.68297625 6
2.6302838 -0.56151551 -0.68925732 0
3.3599503 -0.48369685 -0.60392779 17
3.2862263 -0.44599351 -0.65783906 52.5
2.769932 -0.19531085 -0.6796788 21
2.7969103 -0.022741308 -0.64385384 10
3.3183179 0.18696049 -0.67751646 100
3.2948985 0.40631521 -0.68490458 101.5
3.2761502 0.5978021 -0.70687616 106
3.265619 0.65538847 -0.66406661 97
1.6328555 0.86664289 -0.60185224 88
1.6674086 0.83799142 -0.64395541 49
1.8128679 0.85457397 -0.62561917 25
2.0139356 0.88227546 -0.64215475 13.5
3.2457411 0.849733 -0.67842555 102
1.6241703 0.96611452 -0.63165194 88.5
2.8252332 0.98552984 -0.7196005 82
3.1968849 1.0242574 -0.69690764 60
1.5852907 1.0897932 -0.61745107 28
2.8004723 1.1122682 -0.64740711 109
1.5897717 1.2165073 -0.65912229 71
0.30853742 1.8514191 -0.61547083 45
-0.63129646 3.3280506 -0.67323607 53
-0.59066987 3.3328011 -0.69775993 3
-1.2030494 5.9699144 -0.65112275 150
-1.1723413 5.9693165 -0.69579625 135.5
-2.0020039 8.5038261 -0.68692154 25
0.20999546 -4.1555448 -0.54748148 89.400002
0.36602688 -4.1405535 -0.52202439 102
0.5429256 -4.1226254 -0.53562742 100.25
0.72076088 -4.1049633 -0.56781024 95.5
0.95004404 -4.0795169 -0.52107877 44
1.1256489 -4.0579758 -0.48729342 33
0.12637211 -3.9441884 -0.542023 13
1.3595847 -4.0473847 -0.52732056 13
0.090648636 -3.6240404 -0.4727931 5
1.5886233 -3.6940992 -0.52552664 50.5
0.0042216005 -3.5595281 -0.46147141 7
2.8356228 -0.75891387 -0.50276244 8
1.1500419 -0.71884602 -0.45508036 14
1.4341818 -0.69202703 -0.51552284 2.3333333
1.7137346 -0.66059238 -0.52438992 4.6666665
2.117995 -0.6206767 -0.52880287 2.6666667
3.4091306 -0.67729932 -0.5782302 9
2.5930536 -0.56770396 -0.51731378 3
3.3800762 -0.53316784 -0.50242281 13
2.7993727 -0.23329921 -0.56255788 8.333333
2.7563407 -0.07998167 -0.51527566 44
3.3290472 0.097804286 -0.5127691 93
3.3159146 0.24056499 -0.46363699 102.5
3.3024092 0.38289782 -0.5138011 106.5
3.2840719 0.51901007 -0.51244438 99
1.1548803 0.7207126 -0.46440977 1
1.2412064 0.6513254 -0.48320836 2
3.2691875 0.66664696 -0.45438707 99
1.2200549 0.83807164 -0.47210491 1.5
1.6353918 0.8789404 -0.55036938 83
1.7488236 0.79474932 -0.48892042 6
3.2603459 0.77576143 -0.5491941 102
1.2592118 0.9325527 -0.50835973 77
1.6225688 0.96129239 -0.58012444 90
2.3139749 0.90508759 -0.45976901 83
2.7472305 0.96914929 -0.5885821 7
3.2342248 0.99582696 -0.52906972 15
1.6033573 1.0995247 -0.55333221 49.5
1.5883913 1.2170019 -0.52579576 44
-0.21131693 1.4178739 -0.46845314 5.5
-0.10592392 1.3684886 -0.47008801 28
0.10652448 1.3848505 -0.46329999 16.5
0.19207183 1.4341536 -0.46605891 83.5
0.41832021 1.4898801 -0.47000292 84
0.64010936 1.4749016 -0.45392922 12
-0.09237209 1.5776894 -0.50897586 12
0.34798208 1.5724599 -0.54406083 56
0.55750012 1.5039259 -0.51785421 69.666664
-0.034422282 1.6847904 -0.54375184 13
0.33024573 1.7272216 -0.5460211 49.5
-0.78028595 3.3141215 -0.59504879 20
-0.70255065 3.3152742 -0.5100401 133.33333
-1.2043897 4.0047045 -0.45374867 68
-1.1775445 4.0219831 -0.46915787 44
-1.1633162 4.1130409 -0.48650134 12
-1.2303849 5.9620948 -0.59729487 145
0.23399641 -4.1551881 -0.40324795 99
0.32706901 -4.1429996 -0.41562176 104.5
0.45116705 -4.1331978 -0.42486757 103
0.72427553 -4.1027384 -0.41514078 89
1.4941757 -4.0249414 -0.44307116 64
-0.08146935 -3.6663499 -0.41354913 97.5
0.00061545969 -3.6627033 -0.43940598 35
-0.053355221 -3.5897841 -0.449727 8
0.98885161 -0.74362123 -0.41015631 2
1.2078485 -0.71095151 -0.42070252 1
1.4919204 -0.68185693 -0.4265891 4
1.7042787 -0.65723211 -0.40515783 3
1.8213623 -0.64696968 -0.41871783 2
2.7686162 -0.63354534 -0.44435439 9
3.403914 -0.56660259 -0.41249782 13
3.3677714 -0.34916601 -0.43674004 83
2.9834125 -0.21703699 -0.41746727 66
2.8177493 -0.12123289 -0.43765676 62
3.3162787 -0.016273335 -0.44833073 150
1.0914844 0.749897 -0.40337792 63
1.4087505 0.78813589 -0.44417086 152
1.7486715 0.84747475 -0.41308698 5
3.2457447 0.88142145 -0.4368332 102
2.6622357 0.91470122 -0.40303278 4
-0.2074862 1.3729728 -0.42858657 13.5
-0.03569153 1.3683189 -0.43087983 13.333333
0.085588299 1.3789169 -0.42673218 15.25
0.32971209 1.5754517 -0.42593527 88
0.518062 1.5044184 -0.41860235 70
0.62223148 1.5200891 -0.44305566 32.333332
-1.1384318 4.0159574 -0.41868854 72
