# .PCD v0.7 - Point Cloud Data file format
VERSION 0.7
FIELDS x y z intensity
SIZE 4 4 4 4
TYPE F F F F
COUNT 1 1 1 1
WIDTH 1785
HEIGHT 1
VIEWPOINT 0 0 0 1 0 0 0
POINTS 1785
DATA ascii
1.7821641 -3.4214792 -0.15573972 142
2.0648286 -3.252295 -0.17859301 88
2.1247845 -3.2099848 -0.18480252 103
0.91830903 -2.9711063 -0.15401174 21
0.77090138 -2.7583852 -0.15936312 11
2.8398385 -2.7217886 -0.17191654 100
0.038119506 -1.6713545 -0.18482146 3
-0.065411955 -1.5405574 -0.17552879 1
0.12511759 -1.5956454 -0.18370204 3
-0.17256346 -1.3716772 -0.16330388 2
-0.10749984 -1.4687541 -0.19582075 9
-0.25298396 -1.2621794 -0.17880012 3.5
-0.31363577 -1.1806716 -0.17962521 3
-0.4687995 -0.92628413 -0.17226 0.66666669
-0.42022213 -1.0107147 -0.17476583 6
0.26105362 -0.39702606 -0.18024002 0
0.41255379 -0.35526282 -0.17485707 4.8000002
0.47475553 -0.31109962 -0.16957645 5
0.53577423 -0.26968232 -0.17103083 3.6666667
0.64840734 -0.19608593 -0.17354929 2.5
0.73381388 -0.13790029 -0.17593524 1.5
0.8225348 -0.073953964 -0.17835808 0.5
0.92434233 -0.0058007604 -0.17955898 0
0.99010998 0.040996592 -0.16992728 3.6666667
1.0853617 0.10212243 -0.1589196 4
1.1586499 0.17178518 -0.15944651 0.5
1.2961376 0.23853517 -0.19276252 6.5
1.4733605 0.36670458 -0.17252725 7
1.5855891 0.44817412 -0.17886548 4
2.1716437 0.86297691 -0.15872708 0
-0.88286209 1.0307401 -0.16739231 14.4
-0.78686279 1.0924238 -0.17328313 14.363636
-0.69157374 1.1555244 -0.1851095 15
-0.20904557 1.1409122 -0.18132178 12.333333
-0.056918673 1.1227987 -0.17889515 10.5
0.02821609 1.1858397 -0.17183205 10
-0.63226235 1.201092 -0.19339894 15
-0.52116817 1.2655493 -0.18026491 13.375
-0.35428929 1.3088499 -0.16552393 6
-0.28316733 1.2446452 -0.15975963 11
0.12592322 1.252894 -0.17431796 10.333333
0.18388925 1.3129951 -0.17379773 26.5
3.0877826 1.2677246 -0.18558268 13
0.26341268 1.4351149 -0.17584775 13
0.32425648 1.4928101 -0.18083248 13
0.57784116 1.3637831 -0.17223334 0.5
2.3049681 1.4257536 -0.15676808 92
1.9408236 1.5419506 -0.17750841 7
2.9062865 1.5316595 -0.17164007 61
0.42545843 1.6595079 -0.18620996 10
0.45865917 1.7408952 -0.17859131 9
0.51303202 1.9412265 -0.19229059 33
2.7138364 1.8265467 -0.19868383 86
1.3857874 2.0397928 -0.19861305 4
2.3667719 2.3233216 -0.19812021 94
1.4872 -3.6491959 -0.11685995 73
1.614653 -3.5282102 -0.083037317 115.5
1.8942643 -3.3720996 -0.050561938 92.5
1.9626052 -3.3234677 -0.056408826 93
1.0756705 -3.1993008 -0.12662745 16
1.9999297 -3.2966301 -0.076571263 103
0.98211974 -3.0419729 -0.032000039 18
2.2790766 -3.1038079 -0.14107138 90
2.4061537 -3.014349 -0.12037153 94
2.5348032 -2.9298289 -0.099228896 96
2.6520021 -2.8414245 -0.06413088 98
2.9789402 -2.6254928 -0.052068129 99.333336
0.61415786 -2.5171998 -0.065982945 25
3.0660982 -2.4306092 -0.10723849 9.5
0.34102297 -2.1366172 -0.019407099 6
0.18620898 -1.8858271 -0.072018005 6
0.080977395 -1.7384309 -0.076762922 9
-0.05701172 -1.5362779 -0.070748009 6.3333335
0.02035686 -1.6423028 -0.096576072 5
-0.16646184 -1.3798914 -0.097651787 2
-0.095798291 -1.4825081 -0.073916279 4.6666665
-0.24088144 -1.2715623 -0.073365957 3.0999999
-0.31621975 -1.1642803 -0.07508783 3
-0.51152647 -0.94765204 -0.10916708 0
-0.41822898 -0.98092675 -0.088690728 2
0.28638497 -0.38825235 -0.063623071 0
0.38533846 -0.36482859 -0.0796763 3.5
0.46767062 -0.31383023 -0.09504386 4.8000002
0.53962195 -0.2639558 -0.098371357 3.7727273
0.66563737 -0.18971033 -0.090658888 1.7894737
0.72281116 -0.13480699 -0.10716329 0.5
0.81505632 -0.077012658 -0.088738248 0.30000001
0.92127734 -0.0062912516 -0.082584217 0
0.98395044 0.03916708 -0.07018213 0.69999999
1.1193457 0.12289252 -0.063622229 4.75
-0.8719424 0.2418008 -0.035512809 0
1.1548489 0.1911484 -0.048439309 2.25
1.2953176 0.24844979 -0.070091598 6
1.3675852 0.29710791 -0.11125419 7
1.4299462 0.33786824 -0.0548684 7
1.5640856 0.43094945 -0.062045407 5.6666665
-0.80522871 0.59235406 -0.11227665 4
1.6075888 0.4552381 -0.10412756 9
1.7164029 0.53614271 -0.14054722 3.5
1.8067627 0.5926609 -0.05014557 4
-0.78576374 0.65691769 -0.11598635 4.5714288
-0.67819262 0.69795609 -0.11214843 8
1.8361924 0.62242866 -0.14354305 2
2.1950283 0.73918909 -0.023785179 7
-0.93260813 0.8503415 -0.11592913 2.3333333
-0.81225175 0.81340444 -0.11978681 2
-0.65064257 0.80871439 -0.1280732 3.6666667
-0.55751228 0.79120731 -0.11807606 8.166667
-0.41062894 0.87856102 -0.13159183 10.666667
2.0488343 0.78851366 -0.10334764 0.5
-0.93531102 0.98010397 -0.1261248 10.4
-0.83833671 0.98987728 -0.12625423 4.1111112
-0.63949072 0.97484243 -0.12991014 2.4000001
-0.56426203 0.9481405 -0.12535243 2.25
-0.35628334 0.99684608 -0.13756453 5
-0.29770121 1.044539 -0.14034945 2
2.7363036 0.99601191 -0.0020281421 6
-0.81591654 1.0713029 -0.13316123 11
-0.67300117 1.1514769 -0.13891482 7
-0.56221569 1.1460838 -0.1328027 2.25
-0.35437936 1.0889403 -0.14007674 2
-0.23092897 1.126369 -0.13477319 5
-0.039060611 1.1373223 -0.13752067 9.333333
-0.60140735 1.2041818 -0.14337306 16
-0.49587995 1.2744935 -0.13437951 11
-0.28315097 1.2385737 -0.14975449 5
0.087591253 1.2270136 -0.14407791 8.333333
0.40435016 1.3212546 -0.027598124 5.5
2.3338084 1.2638953 -0.07910464 8
0.44300461 1.3531756 -0.025269186 3
0.55400866 1.4717526 -0.061173964 4.1999998
0.60036916 1.4893056 -0.014754449 4
2.2340932 1.43739 -0.048875127 150
2.2722397 1.4118989 -0.039514575 143
2.508265 1.4316096 -0.12487269 37
2.8981376 1.4040341 -0.11681582 39
3.3772717 1.3835653 -0.091659136 0
0.68651152 1.559049 -0.030761147 4
0.76301229 1.5669098 -0.043471519 0.5
2.0319257 1.5338478 -0.053656314 23
2.1498764 1.535638 -0.040673919 37.333332
2.3056285 1.5175822 -0.086152323 55
3.1105723 1.7067301 -0.013324772 10
1.3863024 2.0325947 -0.084075011 2.6666667
1.5649137 2.1559312 -0.087854929 3.5
1.7217226 2.240802 -0.055448715 4
1.778173 2.2712734 -0.10510854 3
2.6972778 2.324331 -0.034976665 100
2.5235403 2.4854016 -0.14068204 11
2.5032663 2.6570189 -0.12008049 24.5
2.3925264 2.7611501 -0.14784259 10
2.4677744 2.7202539 -0.09975671 10.5
2.3618953 2.8638887 -0.12725782 10
2.4553587 2.8712475 -0.040169094 0
1.4383738 -3.6616356 0.059182577 66.5
1.7750101 -3.4414291 0.082291774 110
1.8195729 -3.4193084 0.067767791 85
2.0881693 -3.2317708 0.003174956 78
1.4433439 -3.0561781 0.029770371 54
2.2227724 -3.1412561 0.013280923 84
2.350702 -3.0509911 0.023996944 83
0.90697986 -2.9265213 0.043636765 19
2.473527 -2.961633 0.047327723 87
2.6180656 -2.8756466 0.14693648 89
0.84117621 -2.8230095 0.10931226 21
2.77528 -2.7635748 0.071753398 91.75
2.9673171 -2.6323223 0.053044222 97.5
0.57268137 -2.448849 0.003806646 24
0.50923014 -2.345454 0.0827531 24.5
0.13225321 -1.8095018 0.0061661555 2
0.09980581 -1.7515373 0.081226341 8
0.1441 -1.5717154 0.080188379 1
-0.15655895 -1.3856617 0.018880779 1
-0.080835372 -1.478964 0.14563465 0
-0.21577857 -1.2838764 0.084863909 1
-0.83610135 -1.0625496 0.071761511 6
-0.31122136 -1.1471226 0.091688603 1
-0.28614491 -1.1839631 0.096469417 1.4
-0.96701306 -0.91729146 0.12211549 9
-0.86135197 -0.96707398 0.090244532 8.75
-0.45412123 -0.91030818 0.043351915 0
-0.41677395 -0.99146682 0.098781683 2.5714285
-0.8976084 -0.8917107 0.054012951 11
-1.0900418 -0.044829205 0.12677494 0
-1.0437689 -0.098656431 0.085809328 3
-1.0806683 0.063043192 0.09340734 0
1.0279232 0.068128169 0.027950549 6
1.0829177 0.10645306 0.018368656 7
-1.0696112 0.15758941 0.12348172 0
-0.99017823 0.2066551 0.074914888 0
-0.88734818 0.27804616 0.011962677 0
1.1465795 0.20735969 0.059209581 1
1.3124733 0.26485378 0.08673396 0
1.3525916 0.29337886 0.078535341 10
1.4230604 0.33902845 0.069916926 6.6666665
1.5567892 0.4314431 0.11067727 5
1.6248484 0.47675228 0.072873816 5.25
1.6979377 0.52528137 0.022278944 4
1.8803513 0.65113467 0.10068987 3.5
2.0211489 0.74972689 0.087417983 4
2.1535847 0.71234655 0.022488678 6
2.0539427 0.80471438 0.0093874885 0
2.2129841 0.87296867 0.057346221 3
-1.0211585 1.1793127 0.10632541 0
2.2670848 1.166481 0.02068978 8
-0.95284587 1.232856 0.12392136 2.5999999
-0.88073879 1.2861712 0.12138843 4
0.48867995 1.3094709 0.14427328 0
2.2236028 1.2608398 0.057561781 29
2.2659156 1.3368239 0.025382752 148
-0.81776381 1.3854249 0.1232109 1
-0.64867961 1.4537632 0.10579117 3
0.50247312 1.3713748 0.13069296 3
0.64535403 1.4027747 0.13630879 0
2.2358871 1.4826634 0.06167645 129.5
2.2537301 1.3919541 0.092263184 67
2.4227128 1.403955 0.03130373 150
2.9870298 1.4805094 0.055943098 30
-0.53355306 1.5401224 0.10190168 1
-0.20801347 1.6024201 0.13257518 26
-0.043949388 1.6394669 0.046438735 35
0.018207025 1.6108532 0.023310417 3
0.69364566 1.5096353 0.12704533 2
2.297776 1.5362506 0.1404658 25
3.1275163 1.5787772 0.089070998 21
-0.1753822 1.6704929 0.10050687 48
-0.074957073 1.6894786 0.093464017 40.57143
0.0021818399 1.7178345 0.060486324 52
0.17169292 2.0387564 0.087691508 1
0.28597093 2.1054568 0.062144365 2
2.8054056 2.170965 0.020070309 101
2.6934748 2.3429489 0.098765992 96
2.7531998 2.2583532 0.12317847 106
2.6085246 2.529737 0.060847964 30
2.1462822 3.0934668 0.097214691 53.5
2.0876796 3.192337 0.084419332 10
1.4804144 -3.6469283 0.21862924 66
1.535351 -3.6055653 0.22757906 65
1.6151173 -3.5518541 0.22202706 74.5
1.8811681 -3.3714743 0.2262558 75.5
1.1300139 -3.2570384 0.28622097 13
2.0184095 -3.2762682 0.21802279 75.5
2.1523476 -3.1840365 0.21668336 75.5
1.454354 -3.0335879 0.22933805 43
2.3021095 -3.0804977 0.16261488 83
0.94091707 -2.9848745 0.21882886 16
2.4336407 -2.9889665 0.27213258 70
2.5766318 -2.8982027 0.19765495 79
0.77805513 -2.7314949 0.29073602 21
2.7813494 -2.751003 0.22332758 89
2.8958921 -2.6784534 0.28042573 88
0.64281058 -2.545414 0.23817968 20
3.0937872 -2.5494814 0.16746998 97
0.52052337 -2.3732243 0.18571889 20
0.39454818 -2.1848295 0.23808169 10
-0.13683924 -1.4017235 0.18265873 0
-0.22647329 -1.2656413 0.20365046 2.3333333
-0.84879625 -1.0694435 0.18120208 5.5
-0.30908042 -1.1512002 0.18365449 1
-0.29713354 -1.1513546 0.24496436 5
-1.1141014 -0.9351356 0.21962857 39.5
-0.97659731 -0.93028319 0.22387339 8.7368422
-0.86660224 -0.98234904 0.20196243 6.9000001
-0.412177 -1.0056506 0.15813804 8
-1.216102 -0.18593217 0.24777961 0
-1.1533332 -0.19725351 0.22581382 2.5
-1.206148 -0.014893425 0.2671876 0
-1.1719736 -0.071431033 0.2538372 0
-1.2889123 0.11837739 0.26882625 0.5
-1.1598114 0.034773622 0.19479662 0
-1.0802432 0.18802801 0.18377885 0
-1.0092089 0.26102382 0.19193108 0
1.3670995 0.30740559 0.20470151 8
1.5257642 0.41742942 0.26389 7
1.5802227 0.45248738 0.19104671 5
1.7326183 0.55878383 0.18262874 4
3.8840148 0.54149914 0.21051121 0
1.8732598 0.65317494 0.22859205 3
2.0175374 0.76206499 0.27666205 0
2.2336981 0.79506648 0.15420628 7
2.267221 0.78464729 0.16232121 8
2.5362182 1.1974027 0.29783857 38
2.5580387 1.1776638 0.25663656 33
2.8398778 1.1992594 0.27354032 4
-0.81241614 1.3391681 0.25681648 17.666666
2.199708 1.3263645 0.17324358 85.5
2.4246366 1.2905515 0.28287238 83
2.6169848 1.2604897 0.28951064 91
-0.91899329 1.3680333 0.24128622 12
-0.76196975 1.3690462 0.22516875 15.333333
-0.71436131 1.4247067 0.20126835 68.125
0.55323589 1.4926997 0.29590166 0
0.64180827 1.3751875 0.18238568 0
2.3997827 1.3550619 0.28160083 150
-0.66963547 1.5702643 0.2122134 7.25
2.0562298 1.5683076 0.16604489 18
2.3320343 1.5760154 0.25883716 9
3.1639605 1.6178976 0.28022933 18
-0.21560371 1.6908752 0.17752562 44.666668
-0.13329214 1.6676481 0.16223577 34.5
2.3793266 1.6510582 0.16388094 13
1.5336617 1.9937019 0.26209852 3
2.8647306 2.0729375 0.23011363 150
1.690271 2.1432619 0.21151078 3
2.8021913 2.1891806 0.16621447 98
2.6816418 2.3569822 0.2343834 91
2.730742 2.3035727 0.26622465 97.5
2.5485518 2.4843709 0.18055809 90
2.6279035 2.4163308 0.2065627 106
2.4566605 2.6258368 0.2432154 91.333336
2.3187237 2.83903 0.26978326 51
2.0631237 3.223151 0.19486547 96
2.1076157 3.1521339 0.15303737 98
2.0034814 3.3092647 0.20474923 93
1.4172803 -3.6393883 0.36907595 45.5
1.8215382 -3.4010732 0.4200297 73
1.9600694 -3.3059361 0.40628749 80
2.1751857 -3.1654062 0.43773693 74
1.4314842 -3.0984654 0.40763006 80.5
1.5335445 -3.0035033 0.4321053 150
2.2246673 -3.1348615 0.43227208 73
2.3374941 -3.0560122 0.34662759 72
2.4178066 -3.0044093 0.30127877 74
0.928222 -2.9563432 0.34548825 18
2.592922 -2.8811235 0.35523379 69
2.7649179 -2.7622566 0.42080352 74.5
0.66274983 -2.5588517 0.44996959 22
3.0024433 -2.600287 0.33629656 83
3.1029842 -2.5239818 0.40894365 91
0.54373008 -2.3968585 0.30481488 19
0.16131739 -1.817266 0.39476284 10
0.13767309 -1.7795755 0.43768442 9
-0.0073926924 -1.5678968 0.41968074 10.5
0.017014559 -1.6109765 0.38064748 11.5
-0.10723923 -1.425649 0.39599487 10
-0.20670699 -1.2826222 0.39667058 3.5
-1.2710793 -1.0519049 0.34040046 21
-0.82178837 -1.0683331 0.32259941 3.6666667
-0.27724808 -1.1782292 0.37904757 2.2
-1.2418172 -0.98484433 0.36672491 20.5
-1.1356838 -0.95526963 0.36149734 15.8
-0.9487201 -0.93876511 0.35324886 7
-0.84714437 -0.99363112 0.35261834 5.8333335
-0.39166582 -0.99082839 0.37789357 3.5
-1.1638122 -0.8728503 0.41008195 1
-1.0158824 -0.75684762 0.42481437 0
-1.0782927 -0.71990681 0.43183345 1.5
-0.94456655 -0.73335564 0.42645419 0
-1.2072835 -0.31111994 0.33276594 0.5
-1.191908 -0.30422404 0.30534092 1.5
-1.2194409 -0.23673996 0.38781372 3.5
-1.1898794 -0.28115201 0.34218872 4
-1.1796118 -0.078319736 0.37373757 0
-1.2875961 0.075881362 0.38870594 2.1111112
-1.1939774 0.06501285 0.42788321 0
-1.3140506 0.15953551 0.33894894 4.3333335
1.7148745 0.55134213 0.33845285 4
1.9539194 0.71082354 0.42735082 4
2.6345744 1.0437084 0.36879435 2.5
2.7948656 1.0402659 0.42318577 0
2.5350454 1.1674372 0.38668385 32.666668
2.6239667 1.0862315 0.39343667 5.5
2.8426957 1.1497457 0.3101663 7
-0.85508376 1.3279288 0.32328701 44.5
0.52924174 1.3224837 0.36858106 1.3333334
2.4740081 1.2988429 0.36584258 59.25
-0.90018028 1.3608661 0.34323418 6
0.553078 1.4810086 0.31907934 1
2.4457591 1.4792094 0.39270735 90.666664
2.3926852 1.6200832 0.42272139 23
2.473629 1.5340806 0.36978021 120
3.1555147 1.6155845 0.30769014 25
3.0016556 1.9695721 0.42663658 33
2.8030353 2.1922913 0.31082547 97.5
2.6836407 2.3711784 0.37310481 95
2.7315552 2.3004589 0.39830217 91.5
2.5477519 2.4940863 0.31073135 83
2.5775619 2.4676056 0.38971645 86
2.4646313 2.6237156 0.41694915 78.666664
2.3956697 2.741024 0.40506947 55
2.2062707 3.0303655 0.39870054 82
1.6259993 3.8672059 0.35156459 67
1.6651106 3.8224199 0.423105 5
1.5306575 -3.5991435 0.47997218 62
1.1210945 -3.2230756 0.52406102 17
2.0447855 -3.2551479 0.55727798 73.75
1.0352027 -3.0877247 0.5861243 20
1.6711339 -3.019197 0.59413892 28
2.4084785 -3.0057926 0.49331331 68
2.5287194 -2.9236403 0.52401286 65
2.6424339 -2.8377981 0.5538559 68
2.9314768 -2.6462102 0.50402504 88
0.57881409 -2.4227774 0.53791279 26
0.61795837 -2.4842718 0.50008321 26
3.0876489 -2.5427294 0.54724813 92
0.54189062 -2.3633432 0.56975722 26
0.3569479 -2.1199536 0.45942861 0
0.33686131 -2.0987546 0.49797648 0
0.11056161 -1.7376972 0.49900019 10
-0.030506749 -1.5309114 0.54573411 9
0.027371448 -1.6161077 0.51858842 9.5
-1.7715063 -1.4492698 0.57397771 83.5
-1.6219672 -1.3595765 0.56901807 1
-0.12089077 -1.3988906 0.51913005 6.6666665
-1.8559561 -1.3198283 0.58668923 89
-0.19763032 -1.2913245 0.5258913 1
-0.27555794 -1.168222 0.5014379 7.5
-1.2181296 -0.97007567 0.53488588 1.5
-1.1466488 -0.94691497 0.50382996 9.333333
-0.82874376 -0.97916901 0.53861278 8.625
-0.39894736 -0.99649638 0.49112698 6
-1.1204208 -0.7318368 0.4776178 4
-1.209672 -0.23314592 0.47577295 3
-1.1854252 -0.18584144 0.51102126 5.7142859
-1.2051759 -0.00097699906 0.56445652 0
-1.1669668 -0.066024616 0.48247951 0
-1.2766593 0.11760032 0.47811565 9.6000004
-1.1796606 0.013139005 0.45760721 0
-1.3146937 0.18219995 0.56434155 16
2.0059574 0.7474165 0.4642297 5
2.6930079 1.0227387 0.55380535 0
2.5994711 1.1111408 0.45714986 7
2.509676 1.2314863 0.46829909 40
2.2214832 1.4851112 0.4939397 36
2.3288634 1.4301952 0.47840154 47.333332
2.4967813 1.426409 0.51557243 49.5
2.6088874 1.3833166 0.48819518 40.666668
2.3116493 1.7180643 0.59319764 60
2.4791107 1.6888678 0.54128194 82
2.564734 1.7114713 0.52595329 150
2.2622955 1.8874253 0.59100282 25
2.5169868 1.8735403 0.58986485 42
2.6966681 1.8088484 0.4993217 36
2.9145324 2.039161 0.55856836 104
2.8690314 2.1172955 0.48188347 101
2.7664614 2.2755389 0.56176859 95.5
2.6455755 2.4349186 0.51286787 106
2.4524629 2.6460564 0.52183211 74
2.4027371 2.7451248 0.52795202 82
2.2239327 3.009764 0.50655955 79
2.0864632 3.21773 0.54284245 72
1.4782978 4.1177316 0.54888475 6
1.4694843 -3.6243308 0.71735787 106
1.5021985 -3.6216717 0.61097825 62
1.5281953 -3.3649068 0.62865782 43
1.2169656 -3.1686268 0.67301857 32
1.6476405 -3.1698322 0.62291884 45
1.9000039 -3.2935221 0.67271268 150
1.4044623 -3.1004553 0.70237178 92
1.6822248 -3.1267874 0.62228549 51
2.2319117 -3.1269832 0.64095056 68
2.3555205 -3.0410392 0.65640461 67
0.93016559 -2.9269614 0.6523847 21.5
2.4740679 -2.9533348 0.67137313 66
2.5956516 -2.873024 0.70604515 68
1.3374915 -2.7842054 0.61077201 61.5
2.7479181 -2.7701268 0.67386734 74.5
0.77363449 -2.6984401 0.73358023 20
2.900116 -2.6632366 0.68956375 76.25
3.0446522 -2.5730741 0.74042964 84
3.0854692 -2.5394597 0.63506913 87
0.5526672 -2.375973 0.70052958 21
0.39960259 -2.1484475 0.68939614 2
0.18653695 -1.8347588 0.60817593 5
0.10620163 -1.7215731 0.62821174 9
-1.8172425 -1.3713253 0.73057628 77
-1.7547336 -1.4043387 0.69185203 61.25
-1.8686401 -1.2873919 0.6864419 78.5
-0.18428166 -1.2785515 0.73816252 7.4000001
-2.0065091 -1.0886854 0.7036798 51.25
-1.9410411 -1.1903234 0.64792597 84.5
-0.27022871 -1.1580369 0.71311033 10
-0.97127664 -0.9496215 0.66086686 13.4
-0.39375201 -0.94488496 0.6832689 2.4000001
-0.9976272 -0.86906415 0.72226381 8.666667
-0.47843695 -0.89692777 0.74116611 0
-0.42587838 -0.88360989 0.63599265 1
-1.1606222 -0.18071626 0.61442775 1
-1.2244148 -0.042269304 0.66959369 6
-1.1724694 -0.033604797 0.68856454 6.4000001
-1.1540841 0.030188536 0.70237333 11
2.2878501 1.4468092 0.62153113 28
2.4166992 1.4191676 0.60657996 47
2.8529971 1.4077793 0.69443321 17
2.2946017 1.5570073 0.66210079 30.5
2.7181425 1.5149161 0.70926976 31
2.9304769 1.5101063 0.71522045 19
2.2015734 1.7117633 0.7381196 8
2.3002288 1.6961437 0.63992739 36.333332
2.4309106 1.6998436 0.60550261 36
2.2431901 1.8270664 0.68083835 84
2.2733376 1.8650329 0.64700878 37.5
2.8309872 2.0889461 0.63328397 150
2.8391483 2.1544673 0.66095334 150
2.7531297 2.3029716 0.72263592 87.333336
2.6654618 2.4342704 0.65359396 90.5
2.5317247 2.5726578 0.70131087 82.333336
2.3540664 2.8207054 0.61778414 80.5
2.4135051 2.7447124 0.73245513 72
2.2386782 2.9900241 0.61737776 71
2.2768326 2.9445176 0.67843211 80.5
2.2004158 3.0472925 0.69012702 76.75
2.1169498 3.1696959 0.6915977 67
1.6524185 3.8632879 0.61987382 4
1.5722555 3.9836242 0.67846459 56.333332
-1.7473203 -5.205997 0.85203373 74
-1.8896898 -4.9970975 0.80859959 79
2.0550485 -3.2390573 0.79420316 81
2.1864181 -3.1551065 0.795524 72
1.1072865 -3.0134983 0.7598505 36
2.3094742 -3.0655198 0.79699469 66
0.95849949 -2.9631522 0.85584486 18
1.1699259 -2.9947963 0.77078176 39
1.2254617 -2.9209995 0.7556017 32.5
1.3747798 -2.889297 0.89033055 31
1.6325644 -2.9729435 0.81256974 30
2.4330945 -2.9824862 0.81612396 62
2.5665011 -2.8849094 0.86705899 71
0.83313447 -2.7698576 0.89766371 21
1.498407 -2.8252993 0.86686718 52
1.6600118 -2.822001 0.87133253 46
2.7210166 -2.7860749 0.81328601 66.666664
0.6934095 -2.568871 0.79843676 23
2.8588674 -2.6924319 0.8627094 70
3.0578539 -2.422972 0.79095268 29
0.50425506 -2.2967267 0.7708205 23
0.20138471 -1.8322859 0.87591338 5
0.16772981 -1.7858331 0.89640248 6
0.041192714 -1.6044989 0.83935064 8.833333
0.16132982 -1.5534614 0.83552885 1
-1.8077836 -1.379108 0.78288692 77
-1.7716564 -1.4248241 0.82992887 49.166668
-0.083593823 -1.4270895 0.80534881 10
-1.8639081 -1.2952415 0.83421338 31
-0.21002768 -1.235198 0.81822294 11
-1.9625154 -1.1521996 0.77328563 13
-1.9426138 -1.1695911 0.77421904 26
-0.28816971 -1.1181604 0.82061005 16.666666
-2.1266448 -0.9116348 0.86095488 14
-0.93340141 -0.98188204 0.75824404 1
-0.40578786 -0.9296065 0.80994135 1.5
-2.1993656 -0.80431414 0.8546508 47.714287
-1.0730407 -0.86339432 0.8545512 2
-0.95367467 -0.79327929 0.87481487 2.5
-0.88664263 -0.86866921 0.85661674 4.25
-2.3073072 -0.64572293 0.83142138 78.5
-2.3470652 -0.50887746 0.85858011 17
-1.2334057 -0.11627736 0.80007041 5
-1.09559 -0.057089988 0.8123045 1.125
-1.1215717 0.064857885 0.83839619 3.2
2.8928921 1.1918856 0.80290127 0
2.5921111 1.4778535 0.81408894 16
2.4062843 1.5865372 0.82375634 23
2.5888486 1.5792561 0.85637873 16.5
2.7410436 2.3308465 0.89579308 150
2.6396565 2.4608738 0.84365815 79.5
2.491879 2.6445773 0.89445782 71
2.4354177 2.720705 0.85723823 72.5
2.305686 2.9078569 0.86429989 64
2.1550851 3.1241829 0.8376925 66
2.0587611 3.2682486 0.83853197 71
2.1120806 3.1888802 0.80629915 77
1.4609214 4.1696906 0.87848318 60
1.5017215 4.0884271 0.80206645 62
1.4029552 4.2460513 0.83949882 60.333332
1.315744 4.3752203 0.77004421 60
0.82883972 5.0707021 0.79799092 57
-1.6871328 -5.289619 0.96282971 57
-1.8138341 -5.1062837 0.95901346 80
-1.7178016 -5.2362151 1.0188909 75
-1.8549689 -5.0247946 0.96264076 76.5
-1.9779444 -4.8389263 0.97525358 69
-2.0211363 -4.6756363 1.0483104 80
-2.1124134 -4.6395578 0.92055559 64
-2.0874662 -4.629571 1.0106776 67
-2.1316626 -4.3607373 1.0408279 33
-1.7633305 -4.3569369 1.016161 63
-1.9266291 -4.3370471 1.02727 27
-1.7362211 -4.3450227 1.0366036 52
-2.1403809 -3.9596653 0.99408948 2
-2.0550838 -3.9375336 1.0082067 56
-1.920866 -4.023231 1.012248 81
1.958822 -3.1812727 0.91096234 150
2.1470735 -3.1744862 0.92817259 75
1.138239 -3.1259131 0.94021529 41
2.350852 -3.0378411 1.0019106 74.333336
1.2152958 -2.9478836 1.0323944 28
2.4935582 -2.9373667 0.95394468 68
2.5667968 -2.8936307 0.90560973 74
1.2782511 -2.77407 0.94302368 47
1.4760058 -2.8397653 0.96638477 55
2.6788182 -2.8033173 0.99275219 71
2.8038771 -2.7245176 1.0484667 65
2.9727464 -2.6088905 0.93100846 71
3.0917413 -2.5299981 1.0034641 73
3.0597553 -2.353714 0.99632049 1
0.40279993 -2.1307354 0.97722119 8.666667
0.2191474 -1.8561611 0.96002603 7
0.10948713 -1.6818109 1.0116795 10
0.15537469 -1.7583631 0.97937787 8
-0.020258207 -1.5026582 0.94283986 11
-0.043467153 -1.4646883 0.99951494 11
-1.923154 -1.222851 1.0249568 12.5
-0.21890649 -1.2133297 0.91815042 16
-0.1383623 -1.3301688 0.95494735 14
-1.9910674 -1.1059747 0.96950078 20.75
-2.1017797 -0.95469058 1.0262345 85
-2.0683734 -0.99474764 0.96833706 56
-0.36680233 -0.91878283 0.93921059 1
-2.1466393 -0.87109077 0.97513753 73.199997
-2.2895703 -0.66772407 0.95644736 39.5
-2.2432659 -0.74290878 1.0102897 64
3.0849953 1.556987 0.94495344 16
3.1842196 1.6548272 1.0075251 10
2.8316584 2.2100925 1.0224154 73
2.7156367 2.3931456 0.97177511 77.5
2.597424 2.4871645 0.98455197 65.5
2.705909 2.4004581 0.96740973 78
2.5202417 2.6042447 0.9780491 67
2.3944864 2.8032305 1.0107915 61
2.4474587 2.7113819 1.0292978 60
2.3391972 2.8821361 0.98495221 64.5
2.1985047 3.0725081 1.0122137 68
2.0503528 3.2911422 0.96444142 63
1.9706243 3.4252374 0.96905911 44.5
1.9169762 3.4906499 1.0350163 62.5
-1.1183193 4.1382122 0.97602111 74
1.4661553 4.1689372 0.90446556 65
1.388135 4.2707 0.92821383 59
1.3504131 4.351305 1.0133548 59
1.1421841 4.6483335 1.0221946 52
1.2018749 4.5587411 1.0488462 57
-1.6972662 -5.2782311 1.0817064 70
-1.8028927 -5.1045966 1.0936332 73
-1.8053552 -5.0732636 1.1853367 75
-1.9305193 -4.8667345 1.0897801 89.5
-1.9881654 -4.6570778 1.1860088 150
1.9076524 -3.2214196 1.1522321 47
2.142735 -3.1744986 1.1155169 78
1.3883569 -3.0114307 1.1428776 18
2.2231371 -3.1234097 1.166558 72
2.3021932 -3.0692973 1.0940816 74
1.4660282 -2.8637199 1.0645927 29
2.516207 -2.9209969 1.1371101 66
2.6389925 -2.8347907 1.1725938 67
0.70974272 -2.5776994 1.0792058 22
2.9217565 -2.64012 1.1024375 70
3.0446148 -2.5652094 1.1736349 70
0.63938159 -2.4616139 1.1315271 23.333334
0.45961952 -2.2034426 1.1144624 23
0.21249361 -1.8251907 1.1407807 9
0.06868811 -1.618642 1.0525252 10
-1.8710829 -1.2907575 1.0933208 22.333334
-0.20827499 -1.2191873 1.1521895 5
-0.13450059 -1.3275492 1.1621258 7.5
-1.9916458 -1.0969213 1.1146996 69.199997
-1.9263639 -1.1973912 1.1225619 69
-0.27217397 -1.1171044 1.1100287 5.75
-2.1076984 -0.93373495 1.1212916 79
-2.0666246 -0.99048746 1.1308758 79.5
-0.37074813 -0.95516378 1.1285948 4.3333335
-2.1843238 -0.82130653 1.1051848 83.800003
-2.2660012 -0.71282881 1.0992715 15
-2.3679268 -0.53663933 1.1762425 75
2.9400187 2.0546117 1.1223292 50.5
2.8270607 2.224165 1.1864108 71
2.8748393 2.1619914 1.1714138 72
2.7550023 2.3298206 1.0961012 69
2.6168725 2.4868228 1.1207154 64.5
2.4948671 2.6579959 1.152321 61.333332
2.3660579 2.8361409 1.0897329 58
2.4326437 2.7486975 1.1109642 63
2.319489 2.9153361 1.1401542 62
2.2360728 3.0368764 1.12277 62
2.0952957 3.2459126 1.1804574 47
1.9107924 3.5044689 1.0923012 55
1.7313199 3.7872784 1.1149268 56.5
-0.99771416 4.2352557 1.0691581 81
1.2925409 4.4329886 1.0961949 63.333332
1.2358598 4.5231662 1.1041847 62.5
-1.666503 -5.2782845 1.2550904 58
-1.828555 -5.0595541 1.304198 78
-2.0325282 -4.7374225 1.3032591 72
-2.1578784 -4.5459089 1.2595817 64
-2.2678685 -4.3938093 1.2569534 67
-2.2295287 -4.4401011 1.3346218 72
1.1554722 -3.2144265 1.2908475 15
2.051152 -3.2323844 1.2995834 81
1.0887375 -3.112134 1.3340095 16
2.3534071 -3.0284982 1.2892809 72
2.4803033 -2.941515 1.306832 64
2.6066623 -2.8564968 1.3271885 66
0.814964 -2.7060497 1.3464001 23
2.7611899 -2.7495513 1.2108579 65
2.888974 -2.6679313 1.3008808 67
3.0606863 -2.5520625 1.2792425 66.5
0.63087654 -2.4374943 1.2882149 23
3.0690303 -2.5469975 1.3219771 65
3.0541925 -2.3518033 1.3274454 8
0.50126487 -2.2419064 1.2619381 22
-0.0043663261 -1.5097046 1.2963724 4
0.053145334 -1.5856067 1.3285387 0
-1.7956899 -1.3865423 1.257567 53
-0.053213283 -1.4352542 1.2743411 4.3333335
-1.880944 -1.2609574 1.262006 61
-0.19351967 -1.2282705 1.261721 8.666667
-0.13751107 -1.3116977 1.2780304 4.5
-1.9944717 -1.0902499 1.2754651 58.333332
-1.9172455 -1.193578 1.3330595 61
-0.23085281 -1.1694386 1.2465031 8.5
-2.112361 -0.92086792 1.2673639 64.5
-2.0841184 -0.94479471 1.2789776 66
-0.35670301 -0.91298693 1.3441957 0
-2.1701665 -0.82481831 1.2503619 69
-0.38879791 -0.89345884 1.2466351 2
-2.2843649 -0.64640504 1.3438179 9
-2.2359586 -0.74086863 1.276103 14
2.7612045 2.3322353 1.2447684 70.5
2.6550248 2.4599519 1.3127952 61.5
2.5335445 2.6126468 1.2750685 61
2.5544596 2.5717237 1.2564713 59
2.3969948 2.8204486 1.2942401 55
2.4069052 2.8002901 1.2577729 58
2.3153744 2.9283373 1.2498882 59.799999
2.2147205 3.0755448 1.27399 63
2.133697 3.1975522 1.2773583 61
1.790112 3.7094045 1.2149482 48
1.7364669 3.8111928 1.3066217 44
1.5810838 4.0422425 1.3162925 63
1.1775376 4.6088114 1.2465216 59
1.1252756 4.6920943 1.3369795 54.333332
0.98887694 4.8906727 1.3121552 49
1.0571556 4.8000755 1.3011879 53
-1.7409326 -5.1789374 1.4507046 69
-1.8169769 -5.0728197 1.428538 76
-1.8973947 -4.9295382 1.3800714 82
-2.0664403 -4.6989837 1.4031107 80
-2.1223114 -4.6073956 1.4235797 76
-2.2892129 -4.3652225 1.4961792 78
-2.2416179 -4.4151015 1.4085544 78
-2.3305221 -4.3125072 1.4740528 7
1.5867014 -3.5535913 1.4712497 75
1.8695863 -3.3590777 1.4573584 76
1.9497323 -3.2986753 1.4359919 83
1.0282792 -3.0182235 1.3559792 18
2.1976609 -3.1360271 1.4543874 76
2.32531 -3.0465069 1.4524802 68
0.97970301 -2.9467154 1.377697 19
2.4513171 -2.9580488 1.4516569 57
2.5819862 -2.8719628 1.4754972 64
2.7335994 -2.7689083 1.4118029 61.666668
0.82357007 -2.6974056 1.4801234 21
2.8962977 -2.6603658 1.4224223 62.666668
0.64780694 -2.4461811 1.4240067 24
0.2379597 -1.8512582 1.4443437 3
0.13636129 -1.7094175 1.3937694 4.3333335
0.16624792 -1.7470131 1.4357949 0
-1.6296748 -1.6013607 1.4555907 63
0.041702639 -1.5745261 1.3762273 0
-1.747072 -1.4368765 1.3509854 64
-0.006840962 -1.4784608 1.4522103 8
-1.8367907 -1.2994659 1.3914936 60
-0.10930268 -1.3377901 1.386184 8
-1.990577 -1.0923502 1.3847396 54
-1.9284126 -1.1623611 1.4360189 61
-2.1072397 -0.91260165 1.4391646 57
-2.0371587 -1.0111831 1.4196756 57.5
-0.36095607 -0.95212668 1.4258413 14
-2.1946084 -0.78156924 1.4192827 62.75
-2.2602305 -0.68199468 1.4921494 63
-2.3343968 -0.59259379 1.4707923 10
-2.8731918 0.21538904 1.4365662 6
2.5829005 2.5485737 1.3763629 59
2.5048454 2.659308 1.4384596 61.5
2.4526033 2.7374849 1.375412 54
2.3301561 2.9313886 1.4578024 57
2.19084 3.1195881 1.3911928 59.666668
2.2561836 3.033411 1.3886538 56.5
2.0874836 3.2864161 1.4382741 61
2.13503 3.2001646 1.4126292 61
2.032896 3.364475 1.4507167 61
1.4300104 3.7141044 1.4863217 0
1.6955974 3.8723588 1.4243721 40.5
1.6321172 3.9729457 1.416743 51
1.6696641 3.915406 1.4138023 57
-0.79132342 4.3940692 1.4128987 74
-0.6343888 4.4911571 1.392984 54
0.66122562 4.8387418 1.4818902 12
1.0270967 4.8455439 1.4104292 52
-1.7599639 -5.1314712 1.63177 78
-1.8502916 -5.0043616 1.5149168 73
-1.9516298 -4.8613763 1.5268517 73
-1.9145277 -4.9037838 1.5177625 73
-2.0395434 -4.7246475 1.5896915 78
-2.1571031 -4.5434384 1.6211517 70
-2.2796538 -4.3829942 1.6200994 5
-2.3137479 -4.3054357 1.6034833 6
1.4847423 -3.6141667 1.6496991 76
1.502378 -3.6037869 1.5556635 76
1.6349455 -3.5154746 1.6244861 81
1.7005472 -3.4672911 1.6205133 72
1.7801814 -3.4122908 1.6076581 78
2.0386426 -3.2327774 1.6283556 80
1.0532967 -3.0344725 1.5754337 18
2.1706176 -3.1445611 1.6049626 67
2.3043172 -3.0611141 1.5878427 65
2.4352806 -2.9742999 1.5910988 63
2.5758109 -2.8788838 1.5934477 63.5
2.7333555 -2.7705631 1.5363027 60
2.8783388 -2.6623311 1.6251565 58
3.034838 -2.5595107 1.5069125 63
3.1172168 -2.4616926 1.558846 46.333332
0.44631881 -2.1524498 1.6347247 20
-1.6700573 -1.531842 1.5866512 61
-1.6408323 -1.5741684 1.5636901 60
-1.7376869 -1.4340734 1.5799837 54.75
-1.8204138 -1.3107052 1.5842731 54.5
-0.16239055 -1.2767825 1.5525718 7
-1.9401169 -1.1373578 1.6126112 51
-0.24722329 -1.1620632 1.5157433 7
-0.36282068 -0.91709918 1.5617449 1.5
-2.1539595 -0.82763809 1.5325462 56.333332
-2.3022113 -0.60944551 1.6044722 66
-2.2286968 -0.70730877 1.6086521 68
2.0431299 2.7697732 1.551366 40
2.4167795 2.8113563 1.5473151 47.5
1.9197493 2.9597075 1.5972317 54.666668
1.9776454 2.8761582 1.6195102 58.5
2.1803212 2.9349895 1.571434 24
2.3037186 2.8802381 1.5437534 47.5
1.844305 3.0729082 1.5643243 55.333332
2.1582253 3.0871027 1.5638919 48
1.7541122 3.2196929 1.5305293 34.25
2.0604813 3.2846684 1.51921 19
2.1236067 3.2027087 1.5440624 35
1.6832522 3.3167562 1.6274296 70
1.9300206 3.378118 1.571278 38
2.0477333 3.3393168 1.5432389 52.5
1.5847969 3.4607735 1.6250707 71
1.2809869 3.8452084 1.6036818 57.75
1.17176 3.9644344 1.6406304 55
1.2356817 3.9390574 1.6179433 61
1.4867375 4.0129542 1.572594 13
1.5764941 3.9945014 1.5286947 46
1.124218 4.0521197 1.6412309 53
1.4447658 4.0895152 1.5518723 41
1.5654291 4.0647793 1.5273029 16
-1.0433537 4.218102 1.5447441 76
-0.8665936 4.340929 1.5651882 67
1.4165405 4.2157273 1.5491092 50
-0.7721923 4.408566 1.5735952 77
-0.67884797 4.4657617 1.5541943 71
0.42720538 4.5845656 1.6493543 52
0.63410914 4.5957003 1.6431388 52
-0.60507601 4.7651973 1.6445099 54
0.38240063 4.7079177 1.6456765 47
0.50326949 4.7077832 1.6405554 49.333332
0.70222425 4.7241874 1.5783873 66.5
0.89168495 4.6783404 1.5190048 19
0.81757188 4.8907914 1.5429356 10.5
0.96725434 4.8610148 1.5340941 32.5
0.82061476 5.0595841 1.5607455 21
-0.25484556 5.5251322 1.6412078 41
-0.57384521 5.6171222 1.6487013 38
0.042292457 5.6998315 1.5977896 69
-0.02758019 5.8498483 1.6017877 72
-0.40419084 5.9018607 1.6402639 33
-0.25226185 5.8842554 1.6316252 36.5
-0.14442238 5.9299145 1.6381665 42
-0.22203219 6.1202297 1.5735105 51
-1.990934 -4.7693582 1.7249244 75
-2.2830243 -4.3600101 1.7414113 6
-2.1980712 -4.4837208 1.7330526 76
0.87959605 -4.3219666 1.6824549 0
1.4245291 -3.582952 1.7737905 28
1.6021677 -3.5342793 1.7913018 70
1.6514634 -3.4996369 1.7809383 80
2.0225182 -3.2449062 1.7735327 69
2.1531544 -3.1572268 1.7309567 62
2.3371921 -3.0377157 1.7339568 67
1.0121846 -2.9595885 1.6747729 17
2.4339709 -2.9738233 1.7137461 66
2.5925663 -2.8579764 1.730672 60
2.7289352 -2.7625108 1.7529961 57
2.9494884 -2.6225903 1.7290858 63.333332
3.0114589 -2.5798359 1.7288319 59
3.1370444 -2.4615357 1.7282883 49.75
0.54400527 -2.2851331 1.6924709 19
0.61362004 -2.3781343 1.7994701 23
0.50074363 -2.2197137 1.6806307 17.5
0.19382648 -1.9516734 1.7442306 8
0.16085716 -1.8149676 1.734506 7
-1.6455312 -1.5495436 1.6667207 65
-0.045566101 -1.5025901 1.7589043 11
0.037046742 -1.6069576 1.7542444 9
-1.7278763 -1.4413313 1.7014548 52
-0.08913926 -1.4383094 1.718707 12
-1.8459957 -1.2668281 1.7275255 53
-1.7957989 -1.3384624 1.7829334 47
-0.19531119 -1.2901988 1.7280105 10
-1.9645801 -1.0904702 1.7981404 50
-1.9273617 -1.1490408 1.7022853 47
-0.24969481 -1.180087 1.7985393 6
-2.033788 -0.98592454 1.7370623 55
-0.62971497 -1.0337961 1.7927564 0
-2.1536479 -0.80967385 1.7452832 56
-0.3761656 -0.84911251 1.7802902 0
-2.3595276 -0.53080559 1.7377673 8
-0.47631338 0.67099714 1.7985963 83
-0.44335824 0.69744831 1.7952279 90
-0.51172441 0.83657998 1.7970368 75.666664
-0.4159089 0.84307957 1.794202 76.666664
-0.6387701 1.0008141 1.7944404 70
-0.51579523 0.98913765 1.7919054 71.5
-0.37466601 0.98866326 1.7893764 67.666664
-0.62298691 1.1566184 1.7971535 67.5
-0.51886421 1.145281 1.7941124 84.599998
-0.38401559 1.1188837 1.7890691 79
-0.2886892 1.1907674 1.7893089 79
-0.93048221 1.3306757 1.798077 80
-0.82752401 1.2884505 1.7971367 72
-0.50230664 1.2643983 1.7927393 49.599998
-0.39448357 1.2932705 1.7869891 61.666668
-0.24368763 1.2891269 1.7826873 71.333336
-0.81457442 1.4148332 1.7958921 71
-0.65082449 1.4269054 1.7907416 61.5
-0.49583814 1.427219 1.7907815 37.333332
-0.37180129 1.4252547 1.7844515 29.5
-0.21962222 1.4165127 1.7723255 59.599998
-1.2482581 1.5765232 1.7967166 78
-1.150928 1.6201353 1.7979213 70
-0.97712016 1.5634425 1.7923002 64.5
-0.80013299 1.5549715 1.7929907 66.75
-0.68496579 1.5859075 1.7874203 69.25
-0.51802814 1.5412576 1.7820789 69
-0.35505614 1.57244 1.7784617 48.666668
-0.23492822 1.5694506 1.7720764 37
-0.10304351 1.5784009 1.7665972 33.400002
-1.4053617 1.7821238 1.7925354 70.5
-1.2513572 1.7331532 1.7945466 69.5
-1.1635389 1.7213461 1.7906214 73
-0.94341087 1.736576 1.7836856 67
-0.81647426 1.6935933 1.7838125 63.5
-0.67410243 1.7309361 1.776078 68
-0.4885177 1.6885872 1.772873 69
-0.34735674 1.7408651 1.7702099 67.599998
-0.20568871 1.7275283 1.7638305 65.14286
-0.059999198 1.7209133 1.7601587 39
0.052733734 1.7554619 1.7590629 29.5
-1.1375812 1.8742595 1.7855963 66
-0.81329274 1.8878391 1.7764884 58.5
-0.66041356 1.8634909 1.7718853 64.666664
-0.5660823 1.8862158 1.7680625 66.666664
-0.42440158 1.8505775 1.7635831 66
-0.20929395 1.8740911 1.7600127 66.5
-0.076387137 1.8796502 1.7522649 67
0.079569191 1.8726763 1.7478313 50.666668
0.16018584 1.9121939 1.7450421 46
-1.3782823 2.0022964 1.7859389 66
-1.282766 1.9701829 1.7849153 61
-1.0898387 2.0416682 1.7764834 49.5
-1.0358229 2.0362654 1.7745273 61.5
-0.75086135 2.0829234 1.7688464 62
-0.6432814 2.0044603 1.7681948 63
-0.50698388 2.0415351 1.7587045 60.200001
-0.31329736 1.9947308 1.761427 60
-0.093190692 2.0213923 1.754986 66.428574
0.034808051 1.9974775 1.7468233 65
0.21262749 2.0308824 1.7358904 63.25
-1.6817087 2.194515 1.796683 69
-1.6135129 2.1954303 1.7951496 68
-1.2890978 2.2251282 1.7819563 65
-1.195891 2.1717243 1.774938 66
-1.0007029 2.1677892 1.7679685 57.666668
-0.51174563 2.1585453 1.7548631 56
-0.39354241 2.219229 1.7497882 57.75
-0.1900249 2.133357 1.7519971 60
-0.012855876 2.1542654 1.7452898 62.5
0.076441832 2.1812513 1.7428961 66.5
0.29190382 2.1471007 1.7314452 59.666668
0.3848615 2.1678424 1.7260746 61.57143
0.49696332 2.2321951 1.7187675 59
-1.8141176 2.3713508 1.7930945 65
-1.7100531 2.3089216 1.7939173 74
-1.6128814 2.3002896 1.7932721 67.5
-1.09782 2.3838313 1.7659327 51
-0.97772336 2.2927585 1.763803 55.5
-0.63419271 2.258503 1.7574474 65
-0.36116394 2.3451905 1.7432566 55.599998
-0.23993398 2.3823855 1.7462403 65
-0.053372893 2.267622 1.739189 64
0.12465696 2.3075209 1.7351358 62
0.22046976 2.3222618 1.7331015 64.800003
0.44707114 2.3162572 1.7227086 67
0.53751677 2.3024564 1.7177026 57.200001
0.63694972 2.3712184 1.7175184 58.333332
-2.2778602 2.4630353 1.7985603 73
-1.9264225 2.4274006 1.7882332 78
-1.5663401 2.4608889 1.7851751 66.75
-1.1833464 2.4483774 1.7673959 57
-0.91904384 2.4678097 1.7611377 56
-0.87003839 2.483814 1.7586744 58
-0.50406873 2.4448905 1.7512249 62
-0.31163859 2.546052 1.7417725 53
-0.25109905 2.4602885 1.7382964 58
-0.11458114 2.5444105 1.7348708 61
0.0971082 2.4129021 1.7359804 69
0.27466565 2.4632416 1.7293615 60
0.39490288 2.4912124 1.7253554 61.400002
0.69336194 2.4201932 1.7092521 54.400002
0.8164556 2.4998612 1.7018734 54.333332
0.90780872 2.532511 1.7048601 48
-2.2873757 2.6162605 1.7940897 72
-1.7233889 2.6292477 1.7737917 70
-1.5550537 2.6120012 1.7741355 65.333336
-1.0628413 2.6843462 1.7538835 50
-0.98535132 2.6085927 1.7579533 57
-0.79804122 2.6549957 1.7510374 53
-0.74017644 2.6567171 1.7495943 64
-0.35655159 2.6309738 1.7402831 54
-0.1773131 2.5606039 1.732446 60
-0.11368387 2.6387994 1.7272377 59.333332
0.43888476 2.6216547 1.716174 58.666668
0.54401654 2.6163402 1.7134987 59.5
0.60739654 2.6526031 1.7110854 61
0.98633474 2.6015146 1.6914406 51.857143
1.1296505 2.6475706 1.6879476 52.25
-2.2874177 2.7874942 1.7940527 70
-1.8399711 2.7183809 1.7783419 75
-1.529233 2.7621193 1.7683995 64.5
-1.455672 2.7500191 1.7640433 61.5
-0.81145757 2.7638638 1.743426 61.333332
-0.73528534 2.7744091 1.7422546 63
-0.1749703 2.7869265 1.7385131 33
-0.030971009 2.7436166 1.717515 63.5
0.023011366 2.7800808 1.7198893 45
0.66554302 2.7517109 1.7006063 56.666668
0.77356261 2.7778673 1.6978461 56.5
1.1892635 2.7596607 1.6799505 54
1.2745926 2.7398834 1.6781918 49
1.4007527 2.7717783 1.674914 42
1.5596578 2.8209472 1.6782185 25.75
1.792505 2.8443356 1.6800731 20
-2.2884943 2.9172401 1.793309 68
-1.6412618 2.9486361 1.7864443 35
-1.435894 2.9581821 1.7622706 59
-1.3373014 2.9815273 1.7547148 65
-0.92441881 2.9300692 1.7393602 70
-0.65507305 2.9158344 1.7346987 63.599998
0.0918286 2.9197598 1.7169439 35.75
0.18643339 2.9062233 1.7211956 36
0.83975971 2.9090304 1.6905702 53.5
0.96145898 2.9135716 1.6899786 52.400002
1.2014565 2.9973993 1.6885892 47
1.4336277 2.8917837 1.6714392 47
1.7435911 2.9506423 1.6683613 27.25
1.8474698 2.8911889 1.6633986 48
-3.0622072 3.0742412 1.7902561 38.5
-2.4716916 3.0493824 1.7963492 64
-2.2511306 3.1190743 1.7793685 60
-2.1765738 3.0664415 1.7839916 69
-1.7340187 3.0218859 1.760528 54
-1.4051639 3.0957994 1.7519702 61
-0.65584594 3.0504293 1.7272832 61
-0.51136148 3.0946603 1.7222902 64
-0.0048317192 3.0311792 1.7248741 46
0.21378939 3.0491688 1.7107577 40.75
0.34149471 3.0850749 1.7018402 47
1.1168866 3.0663044 1.6822453 50
1.2624108 3.130995 1.6773823 50
1.4341868 3.1093676 1.6841692 51
1.6695104 3.0416207 1.6617793 48.5
-3.1225767 3.2373052 1.794325 57
-2.6435883 3.1856937 1.7954637 61
-2.2237608 3.2355607 1.7741038 61.333332
-1.5139751 3.2285335 1.752941 58
-1.3508576 3.2049079 1.758598 62
-1.2251116 3.2816188 1.7507712 67
-0.76546323 3.1937325 1.726503 64
-0.49387047 3.2315218 1.7187706 62
0.20347513 3.2302189 1.7106022 46
0.3673583 3.2004349 1.6829633 52.333332
0.51347357 3.2571898 1.6858683 55.333332
1.3400817 3.2002857 1.6756417 51
1.3838322 3.2009356 1.6714896 47
1.5852808 3.2761216 1.6664937 49.5
1.6780334 3.2079537 1.6737136 53
-3.1800487 3.3522847 1.7951404 59
-2.3884251 3.4140978 1.7736937 57
-2.1842952 3.3861597 1.7664756 58
-1.6172751 3.3630261 1.7519883 57
-1.309783 3.3768687 1.7484001 57.75
-0.54044729 3.3472378 1.7205981 62
-0.34088007 3.3842306 1.7127689 59.333332
0.42309082 3.3626153 1.6911608 56
0.6776827 3.4285219 1.678248 52.666668
1.3233931 3.3229132 1.6755015 50
1.6197516 3.3489068 1.6578232 57.666668
-3.0873442 3.5393252 1.7793431 60.5
-2.1784403 3.5387087 1.7592191 58
-2.0249774 3.4756811 1.7726222 67
-1.3805075 3.5641582 1.7389866 57
-1.2287186 3.5386393 1.7427748 55
-1.0873255 3.5832617 1.7317301 65
-0.58339512 3.4794681 1.7158588 63
-0.34069276 3.5130837 1.7073514 59
-0.27309465 3.5966163 1.6990079 53
0.55662924 3.4796731 1.6777159 49
0.63536561 3.4855361 1.6773518 48
0.81960028 3.5493407 1.6723943 49.5
-3.4177358 3.6116636 1.7979606 59
-3.1193597 3.7095783 1.7783281 62
-2.5682003 3.6035275 1.77939 51
-2.1454086 3.659512 1.751876 31
-1.4741514 3.7259474 1.7355646 59
-1.2217 3.7086415 1.7319678 53
-1.1660812 3.6905377 1.7282996 63
-0.34742272 3.6172149 1.7004029 57
-0.20013976 3.6498978 1.6994227 53
-0.12695646 3.6582513 1.6952356 57.5
0.69327003 3.6388192 1.6772181 54
0.87688607 3.7077336 1.657792 50
0.97313643 3.6837401 1.6640258 52.5
-3.6771915 3.8268831 1.7931398 29
-3.1624334 3.8369856 1.7771097 57
-2.3046987 3.8422036 1.76465 53
-2.1110919 3.8084922 1.7500466 21
-1.9256662 3.8610439 1.7556885 24
-1.1507039 3.813256 1.7278835 52
-0.37354568 3.7752635 1.6992532 56
-0.13883102 3.8251488 1.6912467 54
0.086445108 3.8891218 1.678681 57
0.81614286 3.7502651 1.6595868 52
0.98169404 3.8518238 1.6618558 57
1.1276286 3.8223298 1.6534239 54
-3.1010723 3.9992909 1.7615687 56
-2.0881324 3.9300983 1.746121 48
-1.2206962 3.9206266 1.7192711 63
-1.0843995 3.9074864 1.726477 54
-0.97508764 3.9624968 1.7163609 64.5
-0.095320888 3.9150903 1.6819416 53.5
0.056842744 3.9780085 1.6819994 55
-3.4639633 4.1670022 1.7906255 50
-3.1011193 4.1207981 1.7560645 48
-2.481318 4.0716448 1.7667819 50
-2.1246064 4.0510569 1.7391697 47
-1.2942287 4.0816636 1.6966997 45
-1.079621 4.1395659 1.7153233 59
-0.98281908 4.1137853 1.7059206 58
-0.13107829 4.0893989 1.6791569 59
0.10528134 4.0538893 1.6705762 55
-3.11747 4.2581978 1.764218 48
-0.97342634 4.2563472 1.689539 67
-0.74585831 4.3100986 1.6988412 63
0.11155941 4.2579803 1.6704683 53
0.22602752 4.2888622 1.6669726 54
0.34484002 4.2652273 1.6667255 52
-4.3544059 4.398241 1.798612 38
-4.2251344 4.4526711 1.7976776 43
-3.7369013 4.4378853 1.7832488 36
-3.1471457 4.4020395 1.7636052 47
-0.82766885 4.3618288 1.6814235 89
0.14892022 4.4332118 1.6601945 52
0.37601364 4.3873043 1.6532184 56
-4.0519953 4.5573382 1.7938236 45
-3.1375949 4.6296225 1.7498719 35
-4.1362381 4.7062154 1.7865726 39
-4.0485048 4.7534122 1.7788714 36
-3.4988978 4.7971134 1.7698804 27
-3.1164107 4.7592444 1.7431439 33
-0.52808428 4.7326078 1.6759516 54
-4.7391791 4.9434366 1.7889065 50
-4.2306924 4.863359 1.7886118 36
-3.1018293 4.8873363 1.7407769 33
-2.7837994 4.8926072 1.7931062 33
-4.9634991 5.092133 1.7780977 33
-4.3530483 5.0374403 1.7830049 3
-3.115562 5.0469236 1.7427801 26
-0.54111236 4.9749699 1.6591908 50
-5.0807271 5.2432323 1.7786406 21
-4.9093256 5.151454 1.7918893 32
-4.4263639 5.1281075 1.7663261 3
-3.7832284 5.1339383 1.7574199 3
-3.0116978 5.2432728 1.7849065 26
-0.26754752 5.2277861 1.6563092 51
-4.1669874 5.3285246 1.7604464 3
-3.6330638 5.3241568 1.7951061 3
-0.52247471 5.2867637 1.6626064 44
-0.34361994 5.3785653 1.6635088 45
-5.5190201 5.6097269 1.7891368 28
-6.0359454 6.0833492 1.7870134 28
-1.8343813 -5.0132842 1.8704923 68.5
-2.0701594 -4.6461258 1.9373688 78
-2.2076125 -4.440062 1.8157309 74
1.4468937 -3.4951086 1.9053324 62
1.5310593 -3.5847354 1.8013157 76
1.339609 -3.4359326 1.8523194 19
1.8906369 -3.3394892 1.8231698 77
1.6099881 -3.223016 1.8803874 51
1.7949259 -3.2228363 1.8726391 51
1.9814587 -3.2206054 1.8637854 52
2.1440208 -3.1706576 1.8494602 67
1.3185661 -3.0362298 1.88846 48
1.4944439 -3.0537682 1.8708395 47
1.6760811 -3.0719323 1.8567475 3
1.8835871 -3.1069036 1.8793923 13
2.2064376 -3.0618515 1.8545514 55.5
2.2930303 -3.0540221 1.8417535 71
1.2895637 -2.8783617 1.8676109 52.5
1.4110031 -2.9419632 1.8622521 50
1.9012977 -2.9725957 1.8579607 49.5
2.0044494 -2.9580662 1.859683 49.5
2.4012039 -2.9035466 1.8554105 51
0.99618512 -2.7413373 1.8755513 56
1.1150651 -2.8008373 1.8706025 55.333332
1.3226844 -2.7869132 1.8602587 51
2.211628 -2.7090881 1.8984982 58.5
2.5260618 -2.8005061 1.8466734 51
2.8401985 -2.7045524 1.8066465 63
0.74867362 -2.5509226 1.87227 60
0.82220221 -2.6103985 1.8762733 62.333332
0.93078274 -2.6576614 1.8667972 64.5
1.1181564 -2.6655898 1.8664228 56
1.2182381 -2.6071985 1.8614887 57
2.2145066 -2.5578015 1.9399072 53
2.3140283 -2.6127803 1.9129622 64.25
2.4720922 -2.5685456 1.8825972 62
2.594615 -2.6732931 1.833593 46.5
2.7833781 -2.6292899 1.8356776 49.5
2.9938776 -2.5553334 1.8239523 59
-1.3871953 -2.4520555 1.9372865 40
-0.97893792 -2.4424024 1.9234041 36.799999
0.72989297 -2.4779868 1.8744017 53
0.97425663 -2.5158453 1.8670765 60
1.0615572 -2.470438 1.8623096 62
1.4977639 -2.4233425 1.9454993 54
1.5772579 -2.4069719 1.9457372 53
1.7405782 -2.4689837 1.9404335 45
1.8051553 -2.4706118 1.9436578 43
2.0068967 -2.5339096 1.9436531 47.333332
2.1300828 -2.4052224 1.9461225 43
2.3699138 -2.4384446 1.9399315 46
2.4619486 -2.5381091 1.8645133 55.333332
2.6195419 -2.4732866 1.849066 42.25
2.7192273 -2.546675 1.8249854 42
2.9079859 -2.498306 1.8224603 45.666668
3.108891 -2.4104197 1.8002568 39
-1.106927 -2.3051784 1.9157552 57
-0.95151651 -2.3548336 1.9175318 59
0.53448409 -2.2598779 1.8274008 24
0.64588183 -2.282182 1.8795706 68
0.85073876 -2.3759642 1.8727981 63.5
1.3075559 -2.346108 1.9495146 57.5
1.6124907 -2.3401964 1.9491313 49
1.6791755 -2.3047454 1.9496998 35
1.8934031 -2.3546453 1.9429444 37
2.2924867 -2.3610153 1.9406801 49
2.5273783 -2.3663974 1.9380656 50
2.7443204 -2.3522699 1.8708993 55
3.0150554 -2.3634467 1.8178641 47
-1.488572 -2.2324624 1.9339722 67
-1.0949928 -2.1932778 1.924252 61
-0.98259604 -2.2059977 1.9177547 56.5
0.51748013 -2.1445642 1.8708103 66
0.71174794 -2.2483587 1.8744494 66
0.84633785 -2.1176052 1.8579878 61
0.90648431 -2.1619208 1.8624607 64
1.4743309 -2.2424345 1.9497417 54
2.8494101 -2.224364 1.8200415 28
-1.233001 -2.0384324 1.9111202 60.5
-1.1623235 -1.986834 1.9148589 62
-1.0325737 -2.0128207 1.906885 61
-0.89273173 -2.0488923 1.9043323 63
0.41341507 -2.0188999 1.8712941 67
0.51091796 -1.9562501 1.8623523 65.5
0.701783 -2.0262725 1.8592552 64
0.78798884 -1.9537257 1.8457838 59
-1.3315287 -1.8813384 1.9049572 65
-1.1278694 -1.8267267 1.8946613 69
-0.9913581 -1.8808719 1.9016813 66
0.27931952 -1.8949752 1.8541628 8
0.40317503 -1.8440182 1.8630568 69.400002
0.54839593 -1.8908105 1.8639455 63.833332
0.68858886 -1.8687645 1.8510083 60.25
-1.2643957 -1.7612301 1.9049225 70.400002
-1.1393273 -1.7566674 1.9036158 67.5
-0.78791285 -1.744804 1.8981609 73.5
-0.7441119 -1.6770221 1.8921441 44
0.11597301 -1.672231 1.8480455 11
0.19410613 -1.7240309 1.8593433 16.6
0.36656496 -1.7106854 1.8596307 66.333336
0.52646756 -1.7413235 1.8549109 64.800003
0.64429975 -1.7491921 1.8543319 35.5
-1.1610013 -1.5576535 1.8918167 82
-0.84498453 -1.5499673 1.8952776 69.599998
-0.69843471 -1.5880617 1.9044505 10
-0.0018783391 -1.5525764 1.8128215 13
0.071100466 -1.5552461 1.8603008 16.799999
0.21699052 -1.5591799 1.8571771 39.333332
0.37473178 -1.5873595 1.8594567 73.25
0.53709471 -1.6496361 1.8574368 75
-1.7586648 -1.3931799 1.8438801 56
-1.400437 -1.4169673 1.8974482 63.333332
-1.2729362 -1.4232196 1.869815 53.333332
-0.94250661 -1.4064749 1.8918488 76.5
-0.79885864 -1.4330875 1.8918624 76
-0.72743231 -1.3619761 1.8902134 82
-0.047478169 -1.42848 1.8480949 11.333333
0.062220603 -1.4365934 1.8643014 14.5
0.20539767 -1.4198641 1.8621393 74.5
0.32621127 -1.4657158 1.8575224 89
-1.8501072 -1.2397758 1.8839263 60
-1.542449 -1.2523912 1.8965851 70.333336
-1.4006284 -1.2698394 1.8950959 69.75
-1.3036582 -1.2538571 1.8889593 73
-0.97764957 -1.231863 1.8813285 43
-0.8287037 -1.2979399 1.893931 55.666668
-0.67104149 -1.2125249 1.8819233 82.5
-0.17949568 -1.244897 1.8339008 10.666667
-0.079427771 -1.2911332 1.843017 16.714285
0.059608664 -1.2939056 1.8619847 68.666664
0.1513757 -1.2853396 1.8556222 60
-1.9186578 -1.1303371 1.8556982 57.5
-1.5801687 -1.0806299 1.8925014 67
-1.414027 -1.1104808 1.8908434 69
-1.1016291 -1.1143104 1.8871156 75.666664
-0.9653759 -1.1032778 1.8891817 78
-0.82080734 -1.0960618 1.884334 88
-0.639166 -1.1287042 1.8791748 84
-0.19381745 -1.12414 1.854722 7
-0.10560071 -1.1145607 1.8546356 44.200001
0.041801766 -1.1568475 1.8588752 68.5
-2.0367911 -0.95499545 1.8859979 67
-1.9436067 -1.0252408 1.9046198 66
-1.7094313 -0.9287886 1.8933061 66
-1.562544 -0.9777388 1.8895428 70
-1.4605596 -0.95243371 1.8881271 74.75
-1.2082922 -0.99776101 1.8885101 75
-1.1045854 -0.94149935 1.8829571 81.5
-0.97701907 -0.97587121 1.8844094 84.5
-0.80836892 -0.96086431 1.8761604 88
-0.66781455 -0.95921755 1.8687989 86.5
-0.57047653 -0.99522859 1.8302507 27
-0.34777722 -0.92417294 1.852945 33
-0.21043445 -0.97349244 1.8523728 42
-0.084088042 -0.98503315 1.853459 46
-2.125767 -0.80613184 1.8605595 62.333332
-1.9884077 -0.84480333 1.8982095 66.666664
-1.581701 -0.84310508 1.8881683 73.25
-1.4692295 -0.79181015 1.8869752 66
-1.2665086 -0.84399015 1.8867196 69
-1.1350911 -0.80380505 1.8814573 88.599998
-0.97935283 -0.80802488 1.8787694 93.25
-0.80655986 -0.83562499 1.8679132 89.333336
-0.65812099 -0.80882251 1.8626388 83.14286
-0.5410372 -0.83646888 1.8583595 73
-0.38790351 -0.82001704 1.8417536 40.200001
-0.23956463 -0.87696719 1.8490318 52
-2.2655907 -0.63309723 1.8212241 67
-2.1799655 -0.67588162 1.8935357 74
-2.0137532 -0.6628074 1.8918616 75.333336
-1.6978356 -0.72172189 1.8841844 67.666664
-1.5643874 -0.67534125 1.8858651 68.25
-1.4826239 -0.6180352 1.8845454 65
-1.2632383 -0.67407089 1.8799763 81
-1.1199167 -0.65683281 1.8737874 89.75
-0.96762609 -0.65096241 1.8677806 82.333336
-0.83216506 -0.66433114 1.8611462 80.199997
-0.68061757 -0.67067033 1.8584867 82.222221
-0.52139652 -0.67141342 1.851765 80.166664
-0.38794416 -0.67539883 1.8487608 71
-0.27111661 -0.65503776 1.847033 63
-2.1664503 -0.53245783 1.8899218 71.666664
-2.0269256 -0.51363474 1.890941 76
-1.7361565 -0.54875171 1.8814973 68
-1.5967031 -0.51930106 1.8813252 73.25
-1.4290286 -0.50364447 1.879527 76.5
-1.2735749 -0.52252436 1.8735402 85.5
-1.1339104 -0.52758849 1.8682562 81.800003
-0.95558149 -0.52197284 1.8583711 76
-0.80177993 -0.51335245 1.8557043 82.400002
-0.68298763 -0.52477932 1.8524352 80.333336
-0.53174466 -0.5145424 1.8467339 81
-0.39658976 -0.51883876 1.8433752 74.400002
-2.1473014 -0.37211561 1.8865581 74.333336
-2.0285816 -0.3659395 1.8861489 47.5
-1.8371583 -0.38710397 1.8834609 81
-1.7174743 -0.37194252 1.8792166 80.666664
-1.5828127 -0.36964312 1.8762528 80.333336
-1.3953465 -0.38608682 1.8749193 86
-1.2642298 -0.38555348 1.8681386 85.25
-1.119144 -0.40406826 1.8629924 72
-0.99024314 -0.39776441 1.8553147 79
-0.81350958 -0.3841745 1.8515742 81.428574
-0.68500912 -0.36087421 1.8447827 81.714287
-0.52350271 -0.39550015 1.8437157 78.25
-0.38218653 -0.3752147 1.8378466 77
-2.3182778 -0.21311657 1.8952111 8
-2.2383235 -0.27070567 1.8856398 77
-1.6996956 -0.22172298 1.8751701 60
-1.5761951 -0.23393206 1.8733354 81.333336
-1.422763 -0.2339392 1.8691679 88
-1.2887912 -0.24751823 1.8633063 94.75
-1.1201864 -0.23296908 1.8547723 75.714287
-0.96843749 -0.22673169 1.8599752 53.799999
-0.81792885 -0.2320964 1.8441048 79.111115
-0.68346876 -0.22915779 1.8435762 76.25
-0.5277546 -0.23280418 1.8404893 75.333336
-0.41624561 -0.2571632 1.8357457 77
-1.6610278 -0.092043288 1.8669075 81
-1.5519874 -0.090617225 1.8682321 82
-1.4069988 -0.088213772 1.866266 98.5
-1.2589766 -0.098421298 1.8514798 82.599998
-1.1275784 -0.040070582 1.8490351 80.333336
-0.97110766 -0.079275005 1.8447104 73.400002
-0.82085854 -0.077098288 1.8404032 80.333336
-0.68942887 -0.081462212 1.8389482 76.85714
-0.54610479 -0.058677949 1.8337499 76.571426
-0.44399032 -0.13869163 1.8343648 80
-1.7208802 0.090961233 1.8618779 76
-1.5536864 0.054879922 1.865752 81.5
-1.4214594 0.058896095 1.8580366 100
-1.2819374 0.064341642 1.8523209 88.800003
-1.1331788 0.083780952 1.8468537 79.666664
-1.0006794 0.071275026 1.838101 82.400002
-0.8305847 0.070234559 1.8354282 79.800003
-0.66470671 0.0752955 1.8329874 77.285713
-0.51835579 0.071325935 1.8260556 79.75
-2.4785681 0.21662652 1.8770442 76
-2.320118 0.18533224 1.8745106 81.5
-2.1817429 0.19077855 1.870618 76.5
-2.070879 0.29507881 1.8668915 83
-1.7156649 0.24341755 1.858675 80.666664
-1.5501854 0.2000376 1.8612325 86.5
-1.4346673 0.20885503 1.8576621 94
-1.3058424 0.23311517 1.8532572 96.599998
-1.1211277 0.23118788 1.8423744 75.25
-0.97783309 0.21947335 1.8349012 82.166664
-0.8260476 0.21706875 1.8321406 76.625
-0.69269371 0.22949709 1.8268239 79.888885
-0.53860718 0.21657948 1.8202066 81.333336
-2.6157234 0.37271848 1.8662537 1
-2.4805088 0.42481422 1.8701133 75
-2.3106859 0.3701348 1.8672428 79.666664
-2.1916261 0.3804132 1.8645251 78.5
-1.9787743 0.37120628 1.8643337 78
-1.875056 0.31993061 1.8601601 83
-1.7283492 0.38294661 1.8559914 81.25
-1.5825118 0.30615771 1.8542811 79
-1.4583699 0.36849585 1.8527948 86.666664
-1.2995589 0.39178476 1.8460587 95.75
-1.1221143 0.37220517 1.8342886 75.666664
-0.96874923 0.36871681 1.8284416 76
-0.83717203 0.36878458 1.8233398 79.428574
-0.68935537 0.37847736 1.8223637 78.625
-0.52212143 0.37863058 1.8195137 81
-3.3736901 0.58769435 1.8902925 81
-2.6215887 0.59158224 1.8727506 75
-2.2848334 0.55783558 1.8615149 83.5
-2.2444732 0.54388291 1.8549253 87
-2.0097942 0.50696629 1.8557643 85.5
-1.8782972 0.49956369 1.8511951 85
-1.7349763 0.5198136 1.8499564 85.5
-1.6085035 0.5051775 1.8500369 81
-1.4511557 0.51779002 1.846289 89
-1.2926916 0.53273517 1.8393364 92.5
-1.1167675 0.5223645 1.8304245 76.5
-0.96832359 0.5223003 1.8250982 73.85714
-0.81565529 0.52694684 1.8186017 79
-0.67465913 0.53111494 1.8136946 78.300003
-0.52666247 0.52389783 1.8103701 79.199997
-3.1816642 0.62157661 1.8846718 87
-3.0764127 0.6621722 1.8778073 70
-2.9010973 0.69025546 1.8736852 71.5
-2.8170114 0.62885666 1.873762 75
-2.4771333 0.63651812 1.8625051 79
-2.3284378 0.67274773 1.8589091 77.5
-2.1465268 0.60632563 1.8575846 81
-2.0460868 0.65871799 1.8544396 81
-1.9010973 0.69245106 1.8490125 86
-1.7516946 0.66434067 1.8469167 87.666664
-1.5982895 0.66777635 1.8574407 56.5
-1.4399691 0.66883129 1.8430706 74
-1.2821299 0.67778933 1.8364935 88.75
-1.1096396 0.67812234 1.8255841 84.5
-1.0024302 0.66218781 1.8225318 78.75
-0.81812751 0.66897815 1.8143469 76.285713
-0.67520583 0.67884159 1.8101257 76
-0.54484147 0.68483484 1.8046364 77.800003
-2.8971198 0.87698787 1.8669587 76.5
-2.7426205 0.77929521 1.8683187 69
-2.6085203 0.81177557 1.865388 81
-2.4729023 0.85374206 1.8582479 85.5
-2.3637347 0.80344236 1.8543842 77
-2.1791625 0.77749288 1.8466741 80.5
-2.0266178 0.84329224 1.8484036 84
-1.8886975 0.87513131 1.8423538 80
-1.7436067 0.83982092 1.8389355 86
-1.5660698 0.8235929 1.8356115 83
-1.4200287 0.82019025 1.8334341 87
-1.2928228 0.82508069 1.8336796 88
-1.1174598 0.81709981 1.8257841 93.333336
-0.97213 0.8239525 1.8178549 82.833336
-0.81366742 0.794613 1.8126968 71.800003
-0.67763215 0.81752044 1.8052946 76.571426
-0.5528205 0.83522588 1.8050007 75.333336
-3.0500813 0.91949421 1.8772198 5
-2.87939 0.99549985 1.8663439 72
-2.7250071 1.0163504 1.8560716 74
-2.5898147 1.0349441 1.8565544 82
-2.3394306 0.99549025 1.8463221 79
-2.1597352 0.98559362 1.8413819 74
-1.9982173 1.03008 1.8379143 78
-1.8287264 1.0308179 1.8317901 87
-1.7258856 0.99339354 1.832181 82.5
-1.5048623 0.92008674 1.8312081 82
-1.3963889 0.97636813 1.8286496 87
-1.2703241 0.97700548 1.823885 84
-1.0850878 0.95398003 1.8191518 88.333336
-0.95420867 0.99500573 1.813832 90
-0.82541704 0.97365677 1.8102105 75.199997
-0.68258065 0.95107597 1.8039609 80.14286
-0.56931293 0.98434675 1.804208 80.5
-2.4616451 1.0754218 1.850876 74.5
-2.3083181 1.1657976 1.8577994 34
-2.2028961 1.1973921 1.8510224 31
-1.8894758 1.0780088 1.8363749 81
-1.7578533 1.116534 1.8306613 87.5
-1.5655066 1.0525638 1.8244797 84
-1.4094003 1.1236944 1.8227373 83
-1.2659969 1.128194 1.8176136 82.25
-1.1040406 1.1108975 1.8162977 80
-0.96085131 1.1388638 1.8109154 65.5
-0.84416002 1.1460091 1.8126019 34.333332
-0.67104191 1.1263337 1.8039399 61.25
-0.54173553 1.1033084 1.8011109 88
-2.7064559 1.2635286 1.8475362 76
-2.5718703 1.268214 1.8524817 85
-2.4359491 1.3004953 1.849299 55
-2.3531392 1.2266755 1.8488518 40
-2.0176458 1.2147229 1.82704 72.5
-1.8436264 1.2536117 1.8267077 80.666664
-1.73085 1.2683693 1.8279811 80
-1.5743494 1.2146809 1.817173 78
-1.4306765 1.2390918 1.8165077 79
-1.287021 1.267327 1.8132261 78.333336
-1.1025352 1.2529466 1.8081949 79
-0.96243787 1.2555567 1.8053359 76
-0.83600581 1.2397091 1.8069092 53
-0.65729958 1.2966175 1.8049452 31
-0.57635587 1.2778038 1.8026406 31.333334
-3.2350347 1.3984382 1.8482076 22
-3.0779457 1.4676634 1.8515769 73
-2.9436803 1.3886857 1.8429906 79.5
-2.4102795 1.49628 1.846985 64
-2.3437681 1.4362116 1.8564048 52
-2.1826408 1.4373678 1.8596498 61
-2.0537465 1.4354558 1.8436388 31
-1.8749838 1.422617 1.8214566 78
-1.7529664 1.4151163 1.8185037 81.333336
-1.5812465 1.3980447 1.8158315 74
-1.4312745 1.4050891 1.8103589 75.5
-1.2836431 1.3927326 1.8059255 79.25
-1.1409853 1.425441 1.8027886 76
-0.95425653 1.4015939 1.8034619 68.5
-3.1750166 1.5133364 1.8508846 76
-2.9346688 1.6421175 1.8364729 77
-2.8404183 1.5307324 1.8417624 81
-2.6811032 1.5168496 1.8369039 71
-2.4972482 1.551358 1.8392777 79.5
-2.3479104 1.5767515 1.8311368 68.5
-2.1130304 1.6499491 1.8178056 77
-1.9974021 1.6452051 1.819755 75
-1.8576765 1.5687902 1.8177435 78
-1.757615 1.6051499 1.815105 76
-1.5208834 1.589385 1.8018786 75
-1.4218706 1.5854622 1.8019994 73
-1.2641703 1.5496949 1.8018854 74
-3.5028887 1.7513075 1.8615428 80
-3.2487221 1.7102368 1.8632727 84.5
-3.033838 1.7115903 1.8431368 74.333336
-2.6553056 1.786316 1.8312196 77
-2.515029 1.7571353 1.8351973 75
-2.3649695 1.7404562 1.8301188 71.666664
-1.7286596 1.7265977 1.8115129 73
-3.1884212 1.8294104 1.8450254 74
-2.9663184 1.9410926 1.8282794 67
-2.8158548 1.81908 1.8325497 76
-2.4270082 1.8621175 1.8265024 74
-2.3008051 1.8826379 1.8179432 70
-2.0610282 1.8968961 1.8090826 68
-1.8923306 1.8612225 1.8117483 74.5
-1.7036567 1.8625803 1.8086222 75.666664
-5.0642157 1.9775702 1.9075972 40
-3.8145304 1.9965616 1.8611377 67
-3.6110494 2.0525482 1.8566419 66
-3.5282786 2.085269 1.8464214 71
-3.3619885 2.0557725 1.8534334 75.5
-3.1975372 2.0221512 1.8552336 76
-3.0717859 2.053421 1.8320029 74.5
-2.9996438 1.9598402 1.8576761 92
-2.6233094 2.0719447 1.8245817 71
-2.4760728 2.0178449 1.8240968 77
-2.3419018 2.0013003 1.8216834 74.666664
-1.7141699 2.0154331 1.8038212 74
-4.4195843 2.205647 1.8740208 35
-4.275878 2.2081354 1.8757535 32
-4.1738195 2.1771088 1.8995503 1
-3.8399615 2.18014 1.8593504 66
-3.7062759 2.1467412 1.8585765 68
-3.1892967 2.1605494 1.8309084 63
-2.7892332 2.1265919 1.8271674 72
-2.324398 2.1753712 1.8112952 74
-2.0019495 2.1589477 1.8032891 69
-1.8843404 2.1159437 1.8019515 68
-1.6728073 2.1041238 1.8046201 64
-1.1274598 2.1553688 1.8087178 19
-4.822896 2.3312454 1.8843689 62.5
-4.7405434 2.3318367 1.8772558 64
-4.5214643 2.2857122 1.8786694 61
-4.0650301 2.2573631 1.858887 60
-3.8779116 2.3775144 1.8527094 71
-3.3298309 2.3527224 1.8346611 68
-3.182004 2.3490386 1.8456317 79
-3.0290825 2.3136144 1.8223025 64
-2.984345 2.2648208 1.851436 77
-2.5917749 2.3827598 1.8254362 72
-2.4333546 2.2977433 1.815775 71
-2.3178434 2.3011236 1.8041284 72.5
-5.1487298 2.4473085 1.8849555 39
-4.1527767 2.5189219 1.8568177 54
-3.7877462 2.4988115 1.8327409 51
-3.6784666 2.4312472 1.8469294 60
-3.5636709 2.4534359 1.8361508 70
-3.4133813 2.4580264 1.8538147 64
-3.1888149 2.5198867 1.8190538 61
-3.1131957 2.4349277 1.8204809 61
-2.756115 2.4582958 1.821498 66
-2.3580644 2.4435515 1.8034743 72
-2.2375393 2.5017211 1.8065852 78
-4.5176058 2.6881764 1.8635567 60
-4.4302888 2.6313491 1.8589946 62
-4.1542902 2.621089 1.851427 58.5
-3.9523387 2.6018946 1.8540028 39
-3.8218074 2.569314 1.8395811 35
-3.6620498 2.5653431 1.8492275 54
-3.0265732 2.6301005 1.8108746 55
-2.9587264 2.5888484 1.8392376 67
-2.3822439 2.5948644 1.8062793 66
-4.8802986 2.7973237 1.8651178 55
-4.6325703 2.7632923 1.8764144 60
-4.1266961 2.7034886 1.8423146 59
-3.9360905 2.7900207 1.8350309 62
-3.7478464 2.8498192 1.8321458 58
-3.3785334 2.7849822 1.8327488 46.5
-3.168129 2.7090065 1.8392748 65
-3.0940018 2.7675653 1.8064002 57.5
-2.7043467 2.8053532 1.8084015 65
-2.5363343 2.7008607 1.8100692 62
-2.1796734 2.8031192 1.8001043 82
-5.2691441 2.9775846 1.8693773 43
-4.9299021 2.8773148 1.8766176 55
-4.2437191 2.9417672 1.8382126 61
-3.8680336 2.9477613 1.8290862 61
-3.6078222 2.8659813 1.8287519 45
-3.1809959 2.9081578 1.8034059 59
-2.9351327 2.9479878 1.8316067 66
-4.5987449 3.1202545 1.8462368 45
-4.4795499 3.1487389 1.8536464 53
-4.2741909 3.0257742 1.8465456 60
-4.0055761 3.0552967 1.8373724 58
-3.8594499 3.0064628 1.8203701 60
-3.672013 3.000957 1.8463885 59
-3.3859537 3.1402764 1.811823 63
-3.1560156 3.1070514 1.8360292 37
-4.755013 3.2998965 1.870643 34
-4.6063418 3.1802959 1.8383728 35
-4.2023587 3.2017319 1.8333465 60
-4.1719165 3.1717863 1.8429469 59
-4.0099816 3.2581718 1.8200787 56
-3.387948 3.2747402 1.8340045 60
-5.0162578 3.3795614 1.8557452 41.666668
-3.832058 3.331274 1.8194414 56
-3.6296163 3.3059967 1.8049513 63
-2.9111745 3.3502398 1.8267499 52
-5.4032745 3.5706441 1.8511487 30
-4.4020309 3.5675855 1.8355236 54
-4.3362598 3.4580739 1.823975 53
-4.0872116 3.5875876 1.8334934 51
-3.9389589 3.4863386 1.818364 56
-3.667769 3.4736114 1.8344761 58
-3.1244373 3.5341585 1.8207754 64
-4.7133899 3.6924083 1.8340877 41
-4.6065273 3.7188387 1.840197 42
-4.2303748 3.7132149 1.828107 50
-4.8696532 3.8953042 1.8502992 40
-4.7540317 3.7721705 1.8302673 39
-4.2731762 3.7568092 1.8170432 52
-4.1157389 3.813473 1.8135613 56
-3.3767447 3.76072 1.8278462 60
-2.8759861 3.7945657 1.8156387 60
-5.1423707 3.9794931 1.8335781 33.5
-3.9912391 3.9679213 1.8101844 48.5
-3.6687596 4.0143504 1.827813 54
-3.0919087 4.017375 1.8074201 56
-5.1767268 4.0867147 1.8500994 31
-4.5702033 4.1984072 1.81275 40
-4.4560227 4.0649981 1.8148011 36
-4.149281 4.1716194 1.809594 42
-3.9896469 4.0953913 1.801936 48
-5.5726738 4.2643976 1.8340839 34
-4.8331642 4.3401599 1.8108693 40
-4.5325098 4.2022085 1.8304135 41
-4.2951674 4.3324065 1.8120116 38
-3.3565736 4.3108511 1.8194886 51
-2.8394403 4.3110905 1.8090683 59
-4.8893652 4.4302616 1.8012263 39
-4.7497392 4.3770995 1.8207871 39
-5.00172 4.5817485 1.8244561 39
-3.6580477 4.6262097 1.8158082 42
-3.0603833 4.5898075 1.8005697 43
-5.2939191 4.7020388 1.8057959 33.5
-4.5977249 4.7820139 1.8015498 65
-5.3167543 4.8270807 1.8241359 34
-3.3209231 4.9290853 1.8023974 36
-5.7909184 5.0975809 1.8171903 36
-4.7121119 4.9595737 1.8124901 56
-5.2074013 5.4541883 1.813954 26
-5.531919 5.7542529 1.8115171 28
-1.8596596 -4.9780769 1.9550728 71
-1.7912003 -5.0713096 1.9826144 72
-1.9243889 -4.8958859 1.991743 74
-2.0126059 -4.7053604 2.017381 61.333332
-2.0282013 -4.5101514 1.9968642 47
-1.7719003 -4.5956187 2.0272803 47
-1.543961 -4.5624242 2.0226572 50
-2.0691464 -4.3664422 1.9893385 47
-2.2779384 -4.3270555 2.0258708 6
-2.1284778 -4.2530203 1.9896685 52
-2.1572542 -4.1548944 2.0156701 44.5
-1.9380699 -4.1216812 2.0168204 55
-1.7131085 -4.1029148 2.0095017 56
-1.5168262 -4.0865788 2.0147431 55
-2.1633191 -3.9552288 1.9874816 30
-1.6649591 -3.694304 2.003931 58
-1.3147334 -3.6277664 1.97448 8
-1.3602369 -3.4894145 1.9703823 31.5
-1.3284035 -3.5666916 1.984327 7
-1.4014117 -3.442193 1.9796408 6
-1.5279301 -3.1704831 1.9709362 46
-1.3422718 -3.1936965 1.9665512 25
-1.1704997 -3.2288971 1.9744147 6
1.7018995 -3.04337 1.9643397 81.666664
1.4714479 -2.8821783 1.9666401 55
1.5610248 -2.8523984 1.9705447 55.5
1.8228048 -2.9730008 1.9660534 86
1.345155 -2.7190142 1.9711086 69
1.8938665 -2.7877657 1.9698154 52
2.0583513 -2.7574768 1.9667851 56
1.6180232 -2.6501055 1.966082 54
1.7471696 -2.6067915 1.9601649 47.5
1.9087185 -2.5957973 1.9530644 48
2.1086068 -2.608331 1.9516169 52
2.3235826 -2.6164706 1.9549617 66
1.3161395 -2.4337525 1.9597124 57
1.4296703 -2.4757621 1.9579037 54
1.5921053 -2.5183816 1.9566336 51.5
1.7904525 -2.4224601 1.9555618 43
1.8540354 -2.5182362 1.951794 57
2.0044746 -2.4710875 1.9559621 46
2.211535 -2.4872298 1.9514335 46
1.1062568 -2.3126507 1.9611605 59
1.2532985 -2.3776388 1.9561104 61
1.3929424 -2.3167024 1.9516332 60.5
1.5386692 -2.2949657 1.9554664 58
1.7345288 -2.3501823 1.9594179 39
1.8633773 -2.333899 1.9603993 39
2.0753119 -2.3533182 1.9509591 49
1.003455 -2.1486416 1.9573606 60.666668
1.1358792 -2.1407604 1.9583132 57.200001
1.2710418 -2.1967514 1.9573598 54.25
1.39907 -2.2325172 1.9548451 59
0.88955015 -2.0327017 1.9626869 96
0.95477533 -2.0377698 1.9618449 62.5
0.83449399 -1.9310389 1.9649495 77
