# .PCD v0.7 - Point Cloud Data file format
VERSION 0.7
FIELDS x y z intensity
SIZE 4 4 4 4
TYPE F F F F
COUNT 1 1 1 1
WIDTH 210
HEIGHT 1
VIEWPOINT 0 0 0 1 0 0 0
POINTS 210
DATA ascii
2.6606886 0.83003348 -0.90781289 7
2.3068419 1.3387979 -0.91256416 14
2.5783391 1.3450662 -0.97673935 4
2.2414596 1.4608527 -0.92208773 25
2.8488822 1.4079429 -0.98203832 10
2.1250145 1.7962986 -0.96721548 8
2.4172027 1.7972103 -0.9770959 9
2.602211 1.9184805 -0.93536568 44.333332
2.4844279 2.1019831 -0.95557112 4
2.1395373 2.3410766 -0.98855436 8
2.3697467 2.2582824 -0.99110413 15
1.617192 2.4261763 -0.98275042 4
1.6820121 2.4826438 -0.97006828 2.5
0.75795597 2.6922076 -0.92984629 7
1.6415802 2.5625784 -0.96962124 1
2.0526822 2.5773551 -0.91437525 1
1.1836574 -3.2177348 -0.76963258 9
1.2178203 -3.1747441 -0.78710258 11
2.0724669 -3.2106643 -0.78036207 7.5
1.1965051 -3.0777812 -0.77247876 11
1.3261559 -3.003839 -0.77851361 28
1.7668486 -3.076184 -0.81369138 9
1.1701066 -2.8734248 -0.77435374 10
1.4769484 -2.93629 -0.78259391 21
2.0210726 -2.9914458 -0.79007035 6
2.1125596 -2.8571405 -0.8190009 7
2.3714306 -2.9049532 -0.81797791 6
0.92577475 -2.7033241 -0.78135937 4
1.8945534 -2.7502003 -0.7977494 8
1.01625 -2.5714228 -0.78767663 4
1.0951011 -2.6125145 -0.78809226 7
1.8532844 -2.6183171 -0.81152934 4
1.0695791 -2.4637632 -0.80298162 4
1.217549 -2.4501972 -0.81477618 3
1.3737164 -2.4366505 -0.82236618 4
1.547105 -2.4386308 -0.82703286 4
1.8092484 -2.490984 -0.81079739 4
2.6765344 -2.4639273 -0.84744674 1
0.54744792 -2.3557835 -0.783324 4
0.7438851 -2.2563093 -0.79040456 3
1.0406678 -2.2900722 -0.79719037 4
1.7234039 -2.3188183 -0.81031191 4
2.3237455 -2.3419099 -0.84422851 4
0.66865999 -2.2131572 -0.80057925 4
0.82336229 -2.1529603 -0.79595089 5
1.6064391 -2.1242046 -0.81316423 4
1.7853401 -2.1834946 -0.83031487 4
2.0063455 -2.2275293 -0.82960033 4
0.98109627 -2.097703 -0.80221593 4
1.3930242 -1.9874638 -0.83581644 5
1.6180348 -2.0413282 -0.82150155 4.5
1.5191561 -1.8514675 -0.8217845 12
2.0451643 -1.8567854 -0.8528282 9
2.3255875 -1.934994 -0.85205054 4
1.7887709 -1.7856014 -0.84344357 12
2.3818085 0.99288744 -0.89825678 0
2.3507509 1.3218137 -0.82666957 0
3.0176239 1.3328215 -0.84216142 25
2.23595 1.4704214 -0.78833443 24
2.2675815 1.381474 -0.86571521 50
2.2435119 1.5308554 -0.84607881 5
2.6051812 1.9423032 -0.82851416 97
1.1422781 1.9505291 -0.77405447 0
2.5162027 2.0683291 -0.86880648 104
2.5608361 2.0124283 -0.84436911 99
2.4680696 2.1432481 -0.82502663 97.5
2.3666887 2.2855525 -0.82014829 86.75
0.70743376 2.5180969 -0.87604296 18
1.7166989 2.5200255 -0.77682161 85
2.2459404 2.462126 -0.81109273 103
0.66192144 2.5714872 -0.83121973 82
2.0851429 2.6029863 -0.821953 36
0.76971918 2.7640347 -0.89367163 22
0.91704041 3.0204179 -0.81817979 0
1.1600728 3.435374 -0.81755179 166
1.424777 -3.6769507 -0.70895326 6
1.8936827 -3.371784 -0.65374386 99.5
1.9749537 -3.3130248 -0.67846411 44
2.0192418 -3.2707551 -0.71548188 1
2.1038671 -3.2250576 -0.71093553 8
0.96720469 -3.0809889 -0.63476658 13.5
1.3277012 -3.0789418 -0.66707999 4
2.3228626 -3.0809863 -0.68699121 92.5
1.4527533 -2.9658623 -0.66649783 8
2.5235786 -2.9342287 -0.65070313 109
0.77215558 -2.7762051 -0.66452646 11
2.7662055 -2.7830734 -0.62247449 108
2.8690772 -2.7026229 -0.63893002 101
2.918982 -2.6718996 -0.68165553 99
0.51250917 -2.4006891 -0.67159951 12
3.0401125 -2.5006576 -0.70961237 54.5
0.46544576 -2.3415272 -0.65633887 34
0.36959177 -2.2058821 -0.62564588 14
2.6487856 0.84892935 -0.72256762 17
2.6273413 0.941302 -0.62769151 4
2.3359437 1.3281908 -0.61886376 8
2.4318714 1.3098747 -0.72911793 3
3.0397949 1.3158633 -0.64382875 20.5
2.2361162 1.4255381 -0.67051548 57
2.9236097 1.4277595 -0.65881509 76
0.80733931 1.7658542 -0.65115392 74.400002
0.69397324 1.889908 -0.64987713 83.666664
1.0044932 1.8635309 -0.72614789 39.5
2.6433241 1.9101101 -0.67800784 104
2.5140507 2.0899515 -0.6075142 106
1.5075715 2.2397316 -0.65327233 0
2.3361452 2.343049 -0.71506631 104
1.9593246 2.5325744 -0.61971819 7
2.2350667 2.4852216 -0.69616336 106.33334
2.2685101 2.4405813 -0.72192663 110
2.093689 2.6085458 -0.72450495 8
2.1613338 2.5890155 -0.6381923 108
1.3861921 -3.6791837 -0.57702327 71
1.5590571 -3.5895641 -0.58954245 82
1.9062364 -3.3630621 -0.56312257 101
2.0546999 -3.2601109 -0.55564189 97
2.1992011 -3.1623156 -0.54902279 99
1.6449245 -3.1148577 -0.54712373 11
2.3373256 -3.0653298 -0.5301317 113
0.85865909 -2.9055011 -0.50332958 33
1.4138002 -2.9590609 -0.49766818 8.333333
2.5645278 -2.9179451 -0.48854113 105
2.6769199 -2.8366308 -0.53726518 102.5
2.7291932 -2.8010046 -0.57480377 102
0.69811189 -2.6752131 -0.56975752 24
2.8921432 -2.6869771 -0.55312079 98
3.0063381 -2.6073108 -0.5004366 97
0.52995396 -2.4244363 -0.46658611 25
0.42068717 -2.2656446 -0.48249394 36.5
0.48088229 -2.3638806 -0.58382863 43
0.11949469 -1.8264108 -0.53637433 12
0.17023998 -1.8838865 -0.51779419 10.25
0.069919556 -1.7209181 -0.48627242 11.5
-0.028917629 -1.5983839 -0.46008411 15.5
0.12757422 -1.5915148 -0.48160115 1
1.3462932 0.28260309 -0.47202444 5
1.5757244 0.43374181 -0.48341537 2
1.6298788 0.47545168 -0.51748216 4
1.6858078 0.50939888 -0.54520333 0
1.8091085 0.6018424 -0.45063856 2
2.0284324 0.75975913 -0.56990993 0
2.2017615 0.88187551 -0.45970508 2
2.6451535 0.85993731 -0.55034691 21
2.6560245 0.91035652 -0.56483328 16
-0.34451106 1.3155776 -0.45745191 10.333333
3.0874736 1.2378263 -0.56701744 12
-0.3877694 1.4100488 -0.47905391 8
0.38837853 1.4260279 -0.48577517 17
2.2335007 1.4763677 -0.57459933 21
2.3381629 1.4549966 -0.50987417 150
2.5243006 1.494065 -0.53600532 157
2.5622084 1.4955542 -0.47524387 152
2.9641132 1.4011205 -0.50983745 66.666664
0.42578882 1.5140953 -0.49756992 0
0.54947549 1.6114328 -0.56090599 2
2.8977261 1.5302006 -0.53788769 65
-0.60253048 1.6985893 -0.50030661 86.5
-0.52349126 1.7523626 -0.5329417 79.199997
0.70136398 1.7912691 -0.59421617 59
-0.70705891 1.8310499 -0.46250924 39.5
-0.43850753 1.829461 -0.5368585 15
1.0007145 1.8489454 -0.54616821 31.5
1.0552124 1.8862215 -0.46635365 30
2.640995 1.9124146 -0.51973581 103.5
2.7025089 1.8160397 -0.50358844 101
1.3488264 2.0878789 -0.48213762 4
1.4044644 2.0975292 -0.56254697 67
1.4453144 2.1572242 -0.47742853 1.5
1.6926205 2.163074 -0.57895589 3
2.5014811 2.1193945 -0.49401554 97
2.3923233 2.2746589 -0.53033537 93
1.6730661 2.600306 -0.45219851 125
1.2662947 -3.4975421 -0.44555998 22
2.0107634 -3.289254 -0.41667879 91
2.1503196 -3.1865661 -0.40839726 105
1.3338145 -2.9827704 -0.40376142 5
1.5697329 -2.935766 -0.40294167 4
2.4910221 -2.959882 -0.43020567 103.66666
0.79088503 -2.800508 -0.4045186 31
2.6788568 -2.8319898 -0.41900513 101
3.0372672 -2.4677327 -0.44500813 38
0.45711833 -2.3099298 -0.40315014 22
0.37160832 -2.198931 -0.43778044 2
0.080342315 -1.7064291 -0.4274036 10.333333
-0.043141499 -1.5787311 -0.41813698 13.75
1.3041259 0.25221679 -0.42847335 6
1.5358191 0.40508074 -0.44086277 3
1.6815578 0.51637816 -0.40019795 0
2.8051145 1.0149795 -0.42809737 8
0.028857838 1.1947463 -0.40459284 10
-0.35136214 1.3273748 -0.42109314 8.666667
-0.29987171 1.2521911 -0.4041782 10
0.161101 1.277634 -0.43922055 70
0.51385581 1.3326683 -0.43093836 1.5
3.0477128 1.3148896 -0.41819781 16
0.27101892 1.4555821 -0.42750475 12
0.31769928 1.4237194 -0.43965173 18.5
2.3059382 1.4380069 -0.42033136 59
2.7174954 1.4892741 -0.43212703 151
-0.6819284 1.7758642 -0.43051633 62.666668
-0.51789981 1.7563612 -0.43157488 76.800003
2.6630743 1.7820556 -0.43453011 150
-0.81419659 1.8130925 -0.40004075 2
-0.71036881 1.8343925 -0.43014544 43
-0.44485325 1.8167112 -0.43525121 17
1.1022875 1.9223952 -0.41111171 29
2.5467649 2.0547843 -0.41051173 107
2.5937502 1.9831818 -0.44502831 92
2.3824656 2.2891879 -0.41968369 96
2.2698202 2.4562745 -0.44444153 103
