# .PCD v0.7 - Point Cloud Data file format
VERSION 0.7
FIELDS x y z intensity
SIZE 4 4 4 4
TYPE F F F F
COUNT 1 1 1 1
WIDTH 1719
HEIGHT 1
VIEWPOINT 0 0 0 1 0 0 0
POINTS 1719
DATA ascii
-0.010085988 -4.8304887 -0.19149981 10
-0.075651407 -4.7970514 -0.1524591 84
1.8210158 -1.8385179 -0.15151712 27
1.5416847 -1.7058865 -0.19988526 33
2.5124056 -1.7225876 -0.19187871 66
1.1700432 -1.5174887 -0.19033647 43
1.1149696 -1.4895827 -0.17328678 38
3.2383156 -1.3959129 -0.17917301 94
0.74611014 -1.2610763 -0.16531666 8
0.27882504 -1.0769356 -0.17833124 2
0.36367422 -1.1133345 -0.17494857 2
0.62819004 -1.0982084 -0.17434704 4
3.3440015 -1.1695495 -0.19467451 82
0.077060424 -0.98005021 -0.17884646 2.5714285
0.19856818 -1.0383466 -0.17995694 3
3.4447312 -0.97395635 -0.16926207 83
3.6789207 -0.53534454 -0.17715472 83
0.28000078 0.095274501 -0.19650799 4
0.3029241 0.14955314 -0.18202434 3
0.34363502 0.22551154 -0.17838594 3.5714285
0.40769973 0.35052809 -0.17626806 3.2857144
0.450822 0.42399988 -0.16236424 2
0.49291617 0.51790339 -0.17569646 2
0.57236189 0.67418748 -0.17128316 0
0.65431857 0.85494661 -0.18385944 0.5
0.65615827 0.92425758 -0.18151391 1
-0.90131283 1.0807304 -0.15663104 7
-0.87452143 1.1222669 -0.18153894 9.833333
0.82052368 1.1874089 -0.16426969 0
-0.80207539 1.27633 -0.17295723 9.8000002
-0.74066591 1.391066 -0.15458873 9
-0.77256018 1.6240652 -0.15913628 15
-0.65997052 1.5553144 -0.15819994 33
-0.76913011 1.7634172 -0.17804123 10.5
-0.72813308 1.7772039 -0.17700355 12
-0.71483195 1.8355281 -0.16407706 12
-0.38853043 1.9474661 -0.19081731 143
-0.7734586 2.135772 -0.18556498 60
-0.34984934 2.1605597 -0.16226692 3
-0.076985732 2.7744601 -0.18283309 7
1.5917827 2.8791869 -0.15436959 114
1.7313938 2.8893044 -0.17538139 19
0.73670787 3.3693578 -0.19119447 99
0.82190222 3.3308837 -0.18684737 100
-0.037160832 -4.8171921 -0.13339186 50
-0.17607957 -4.7475176 -0.0955972 83.5
-0.097518124 -4.7865448 -0.079880029 81
-0.29425147 -4.6141844 -0.02607519 150
-0.20143434 -4.2075377 -0.027025318 150
-0.088914737 -4.2117777 -0.02624861 76
-0.38318771 -4.0865421 -0.0096719461 114
2.809371 -2.2516379 -0.14364442 92
2.8538973 -2.1589818 -0.080900617 100
2.1880352 -2.0186574 -0.090157755 26
2.9813364 -1.9050055 -0.034066472 113
-0.66037887 -1.6941491 -0.024778007 30.5
-0.57947177 -1.7091157 -0.045798145 7.1999998
1.6073852 -1.7271845 -0.066280551 24
3.0648839 -1.7459666 -0.061390202 103.33334
1.2192281 -1.5330933 -0.045762036 28
1.3536488 -1.6046267 -0.11348573 29
3.1378295 -1.5904487 -0.095823713 98
3.1644185 -1.5417506 -0.073746055 96.333336
1.0379977 -1.4516323 -0.081511326 3
3.2547991 -1.3574727 -0.10630761 91.5
0.6641736 -1.2630974 -0.091223352 4.2857141
0.78628916 -1.3156952 -0.058822606 8
3.262392 -1.3433764 -0.072316565 89
-0.59636885 -1.1187243 -0.04103497 3
0.26219788 -1.0617046 -0.06327574 1.2
0.37673712 -1.1194373 -0.076429956 3.3333333
0.49503851 -1.1744913 -0.074929401 8.1999998
0.62959445 -1.07977 -0.051077846 1
3.3614216 -1.1433332 -0.098552622 85.333336
-0.63911784 -0.98935497 -0.032181837 9.2222223
0.077208675 -0.97076964 -0.068878673 3.5
0.18383802 -1.0233922 -0.081131451 2
3.4682462 -0.92714494 -0.084520109 76
-0.17637593 -0.8343333 -0.02246074 0
-0.12389106 -0.83722907 -0.054629788 0.16666667
3.5782695 -0.73500097 -0.067541145 86.5
3.6491542 -0.60068709 -0.016725635 83
3.6729181 -0.54527962 -0.043217484 77
3.4140687 -0.33897573 -0.09032663 35.5
3.4294152 -0.24907678 -0.05565127 83.5
0.36764032 0.27551612 -0.12810425 3.2
0.42302835 0.38004008 -0.11015006 2.125
0.45750108 0.44060442 -0.11029402 1.6666666
0.49979192 0.5292266 -0.077052146 0.54545456
0.56588328 0.67350996 -0.061247412 0.15384616
0.6285848 0.80117321 -0.064223811 0.16666667
-0.93485063 0.98562288 -0.12355583 9.5
0.67742592 0.90514505 -0.0042247819 0
-0.92628425 1.0740438 -0.14379168 6.6666665
-0.87665993 1.1107603 -0.1291863 6
0.79112959 1.1389695 -0.10514115 5
-0.80492073 1.2568979 -0.14053664 8.5
0.83407098 1.2326339 -0.097375147 5
-0.72058451 1.4326847 -0.14491747 2
0.92731375 1.4232306 -0.028467858 4
-0.66100538 1.5474896 -0.12569991 7
-0.54219931 1.566892 -0.057884537 7
0.975806 1.5206509 -0.075075418 1
-0.49708027 1.761236 -0.089713335 4.5
-0.42506886 1.6965613 -0.13400456 2
-0.46734738 1.8183202 -0.083606489 5
1.1212047 1.8939563 -0.016658163 2
-0.37826991 1.9816829 -0.030734694 3
1.0434873 2.508651 -0.01552624 77
1.1487894 2.4989376 -0.051564042 56.666668
0.78511208 2.6389327 -0.014758234 6
1.0031056 2.6310558 -0.059768572 63.666668
1.0862889 2.5989048 -0.017039662 150
1.250488 2.6983099 -0.11364906 35
0.13612907 2.9830043 -0.051037852 4
1.6068215 2.856287 -0.099683471 27
1.7171094 2.8974135 -0.14838398 14
1.7053115 3.1529038 -0.068620212 18
0.79704148 3.3473504 -0.14954264 71
0.42853564 3.5248656 -0.14032596 0
0.70333308 3.5195155 -0.12538049 28
0.82958931 3.5060804 -0.12437234 92
0.71753246 3.7335682 -0.040459905 0
0.81459779 3.6176326 -0.061426494 76
0.56964433 3.7991314 -0.083041854 33
0.64185411 3.7954295 -0.037520025 1
-0.25468898 -4.704442 0.10331752 81
-0.1445794 -4.7584858 0.10181694 80
-0.56186128 -4.5220909 0.13705903 150
-0.42833024 -4.571692 0.055498503 150
-0.14073595 -4.6018267 0.079923563 70
-0.34244806 -4.3028359 0.0050760163 44
-0.67962497 -3.9099958 0.1185933 57
2.6289718 -2.2332706 0.00026747107 24
2.8820183 -2.0841708 0.095362395 138.5
-0.72862273 -1.8471379 0.14821613 6
1.9116173 -1.8752661 0.0028272225 26
2.9718597 -1.9043444 0.076889187 123.33334
-0.64972395 -1.703649 0.060880799 16
-0.58020514 -1.7272462 0.047811326 15
2.5163977 -1.7139865 0.040414121 53
3.0724869 -1.7201586 0.045478787 95.333336
-0.62038422 -1.6498302 0.035350647 1
1.2092209 -1.5207058 0.14409894 30
1.4438748 -1.64045 0.0080570234 24
3.171792 -1.5306973 0.0044665588 93
1.1155622 -1.4757297 0.014260407 27
3.1951509 -1.4684501 0.10294264 85
0.57561266 -1.2168064 0.0099665178 0
0.69778335 -1.2663534 0.12252216 9
3.2832339 -1.2920266 0.033083346 80
-0.61708713 -1.086689 0.040483188 7.5
0.3666372 -1.1050578 0.06953346 1.1428572
0.51647007 -1.1796544 0.0913807 0
0.65876532 -1.09341 0.080040939 2.6666667
3.3656669 -1.1304507 0.12172551 83
-0.90742654 -0.9900586 0.14238107 7
-0.81390363 -0.97241133 0.087390937 9.1999998
-0.67798418 -0.97925729 0.072959028 9.3999996
0.074408889 -0.96381301 0.077232718 3.090909
0.20886497 -1.0290014 0.065136895 1.6666666
3.4411619 -0.99180299 0.085516147 82
3.4696374 -0.91093189 0.043282505 76
-0.17733085 -0.8247056 0.094333529 0
-0.12273416 -0.8477993 0.084947146 0.33333334
3.5282423 -0.83088291 0.081522107 88
3.6239033 -0.64158881 0.10092609 88.5
3.5331273 -0.40252987 0.064686887 30
3.6027937 -0.4368313 0.03230479 31
-1.0574591 -0.23664758 0.1203088 6
3.4387646 -0.21029854 0.13462761 54.5
-1.1107677 -0.066295803 0.11730725 0
-1.0000784 0.11715648 0.11422303 0
0.5057112 0.55199832 0.017542686 0
0.5536294 0.65399188 0.043882366 0
0.62826657 0.80860496 0.070307523 1.9090909
0.67652589 0.91485304 0.072056003 0.66666669
-1.5467377 1.1431012 0.11694725 19
0.78038156 1.1224086 0.08469677 6
-1.505318 1.2046541 0.11369895 4
-1.4605238 1.2911648 0.12110808 2.5999999
0.81452578 1.201703 0.10539889 7
-1.3893648 1.4326839 0.098692112 4.8571429
-1.3482469 1.4628583 0.062785052 8
0.91502005 1.4093381 0.01391759 6
-1.2663385 1.56925 0.080512315 22.375
-1.1204549 1.6342912 0.067618802 24
-0.54104942 1.5459924 0.034654375 7
1.0147359 1.6016403 0.036084052 3
-1.1330749 1.6620594 0.090975344 43
-0.45959902 1.7484847 0.096187592 4
1.1020015 1.7939048 0.08032959 2
-1.1201677 1.8640859 0.073072009 3
-0.37996879 1.8514886 0.13880181 1.3333334
1.1350085 1.8660643 0.10414322 2
-1.1210903 1.9576013 0.10515725 0
-0.35767776 1.9677267 0.099642687 3
-1.0453829 2.133352 0.072114982 1
-0.96183056 2.3272631 0.060911901 2
0.88942629 2.6304493 0.071531512 45.5
0.99427223 2.5976629 0.05019306 62.25
0.86254483 2.709995 0.040498074 3
0.48851055 3.7462387 0.12201982 62
0.43910915 3.8869703 0.10801076 10
0.50524229 3.8219635 0.10003235 6
0.36492407 3.9029608 0.071931355 6
-0.22533202 4.120883 0.12816381 3
-0.33081013 -4.6542706 0.17270297 82.5
-0.25842002 -4.6942611 0.22234535 82
-0.13460937 -4.749866 0.28643066 79
-0.54703969 -4.526341 0.18941052 104.66666
-0.42074105 -4.6048837 0.2527748 83.5
-0.81890911 -4.4040546 0.29051644 98
-0.68097663 -4.4561229 0.16750079 150
-0.65937364 -3.9724882 0.19243115 150
-0.49187186 -4.0116463 0.22415778 142
2.7922869 -2.2721882 0.23979649 95
2.5412643 -2.182179 0.28500271 22
2.8519249 -2.1596403 0.20979321 104
2.1034932 -1.9635612 0.16618288 25
2.886914 -2.0826294 0.21685266 101.33334
-0.76193047 -1.8113909 0.17233407 9
-0.74241036 -1.8106415 0.26632905 46
1.832202 -1.8310319 0.24239582 23
2.0370376 -1.92458 0.21301465 25.333334
2.9868176 -1.890772 0.18076503 94
3.024112 -1.811453 0.26250297 85
-0.65646672 -1.7086625 0.21201134 8.25
-0.57935548 -1.7174994 0.19415547 6.4000001
1.4899313 -1.6590527 0.18480521 28
1.551164 -1.6911224 0.1693113 29.666666
2.5057943 -1.7180761 0.26174569 44
1.1859497 -1.5058908 0.15722883 30
1.252074 -1.5371987 0.28441811 22
1.3720559 -1.6004287 0.2195465 20
3.1215215 -1.6103346 0.23132229 85.5
3.1689203 -1.52722 0.29772097 95
1.1140081 -1.4736338 0.17762516 18.666666
3.236599 -1.3866249 0.21734285 89.5
0.57904631 -1.2072661 0.1541298 12
0.68560469 -1.2276783 0.19114533 5
0.7774846 -1.3054065 0.26600695 0
3.2992194 -1.2544273 0.15291673 83
3.3092129 -1.2375118 0.25810075 88
-0.66773665 -1.0859638 0.26433054 6
0.28070688 -1.0602205 0.15571517 1
0.35851684 -1.0907109 0.19872731 0.60000002
0.51565123 -1.1748961 0.2098249 7.8333335
0.63211572 -1.0707636 0.21859735 1
3.3760591 -1.1138674 0.22659948 87
-0.93140233 -1.0191165 0.2532481 18.25
-0.81724179 -0.97347587 0.20679364 8.3076925
-0.70897514 -0.99839205 0.22518046 7.5
0.071106806 -0.94979477 0.21425454 2.2222223
0.19626725 -1.0082326 0.22781833 0.83333331
3.435427 -0.99588561 0.20638233 79
-0.16048579 -0.83382207 0.1641342 0
-0.11750988 -0.85213226 0.20354374 5
3.5277853 -0.81505948 0.23535158 71.666664
3.6295805 -0.62950665 0.23636636 80
-1.1829021 -0.34643883 0.24403872 3
3.5666974 -0.41568646 0.17591196 30
3.6149552 -0.42539743 0.19987214 31
-1.2565 -0.18869969 0.29544431 0
-1.1115482 -0.25437307 0.17887732 1.5
3.4309018 -0.22178626 0.26396063 60.333332
-1.2291169 -0.09640117 0.23217118 0
-1.1479808 -0.079279602 0.17114136 0
-1.0816299 0.11118478 0.22945938 0
-1.0303354 0.12680468 0.16223505 0
0.64779192 0.84957069 0.1848215 1.5
-1.683974 0.95158565 0.28648171 38
-1.5956799 1.0036607 0.23068564 111
0.67669022 0.95426583 0.25204411 0.5
-1.5567279 1.12972 0.23289588 77.846153
0.74042183 1.0630994 0.23415208 2
0.78347468 1.1347119 0.21438773 4
0.87594503 1.3260212 0.23299897 3.75
0.93891674 1.4590498 0.2238266 1
-1.2551104 1.5767055 0.19144137 23.5
-1.1074282 1.6478169 0.16083586 18
-0.49326336 1.5862175 0.15694129 1
-0.43762451 1.6370856 0.16333893 0.5
1.3712257 2.1346881 0.23760587 8
1.1445521 2.4378946 0.23475486 31
0.7629236 2.6383057 0.19203705 6
1.5155128 2.6624093 0.27804363 1
1.650813 2.6194918 0.27148557 0
1.6077061 2.8487689 0.23773092 1
1.2460827 3.4170713 0.25053033 150
0.97590554 3.5642118 0.25974977 94.5
1.1671785 3.4753571 0.29567569 102
0.28982237 3.8760877 0.25630793 79
0.42311078 3.8027446 0.2351653 124
0.45580441 3.7754421 0.16211027 102
0.10410509 3.9729147 0.22053236 50
0.22099419 3.9087734 0.25213587 69
-0.02851652 -4.8017159 0.43470931 61
-0.58845061 -4.5188475 0.3397204 76
-0.4100543 -4.59688 0.44200265 84
-0.81527305 -4.4046168 0.38685822 80
-0.69444317 -4.4434962 0.37626353 68
-0.53152984 -4.123991 0.3504042 165
2.8058014 -2.2435758 0.39193797 96
2.1794217 -1.9955835 0.36305958 23
-0.73415822 -1.8372951 0.33448613 14.666667
1.9402723 -1.8729885 0.42858571 22
2.9754145 -1.8976244 0.44047159 90
-1.5224936 -1.7092853 0.43930945 88.5
-0.77517867 -1.7937121 0.43769926 13
-0.67075777 -1.7277508 0.43403721 12.5
-0.56317532 -1.729666 0.36882672 5.8000002
1.4891868 -1.6514148 0.37379456 22
1.6317654 -1.727537 0.31451076 20
3.0667949 -1.7174623 0.37172326 91.5
-0.62203187 -1.6453619 0.38412583 0
1.3821522 -1.5928957 0.43090934 21
3.1260514 -1.5950253 0.42173648 91
3.171365 -1.5181155 0.39693153 86
1.1309716 -1.4714825 0.36457998 24.5
3.2191997 -1.4204758 0.33490241 93
0.58876801 -1.2007333 0.43566495 10
0.705163 -1.261914 0.40233502 10.833333
0.78550547 -1.2689143 0.42218304 3
3.2603211 -1.343147 0.37031129 85.5
-1.0032308 -1.0713847 0.35045019 13
-0.64243853 -1.0935518 0.30757189 7
-0.58786803 -1.0865771 0.30508065 0
0.36538866 -1.0920056 0.35961905 2.5
0.50916368 -1.1592911 0.38315094 8.166667
0.63744873 -1.0824981 0.30957574 1
3.3447361 -1.1720655 0.37355033 78
-0.84386265 -0.9864409 0.39626193 3.5
-0.69369555 -0.98579359 0.36641073 4.75
0.080702133 -0.94857049 0.37338144 1.0909091
0.2029877 -1.0094974 0.37975714 0.8888889
3.4334154 -0.99585068 0.31968069 77.5
3.4527898 -0.97037005 0.41411513 77
-0.9387598 -0.83808476 0.41171595 4.5
-0.8292926 -0.8289187 0.41040823 2
-0.12638161 -0.84623367 0.40286198 4.5999999
3.5336368 -0.8082481 0.41039523 81.666664
3.5663908 -0.74163401 0.44776577 84
3.6257989 -0.62778407 0.37458387 78
3.6737075 -0.50980586 0.3708663 60.5
-1.2635541 -0.35207033 0.39742729 4
3.4117708 -0.32290983 0.31207281 9
3.5037866 -0.37679774 0.37494853 28
3.6168551 -0.41730842 0.32657379 33
-1.2650769 -0.214701 0.37051126 0
3.4165578 -0.25559679 0.41979191 61
-1.3887733 -0.018710185 0.39026725 2.5
-1.3056476 -0.097868763 0.37742823 0
-1.3773348 0.011168279 0.40471816 8
-1.6734146 0.94401085 0.34208697 45
-1.6043472 0.9873966 0.3301816 70
-1.5421851 1.0777336 0.31423238 85
0.78295881 1.1415359 0.36238736 4.5
0.84837866 1.2782308 0.39022392 3.2
0.91498995 1.4182935 0.39189458 3
0.98861128 1.5689613 0.41078174 2
-0.54979688 1.696174 0.34179223 1
1.0461662 1.6798193 0.38607907 1
1.0808108 1.7472341 0.40370971 3
-0.4671075 1.8598238 0.32120001 1
1.1282299 1.8678789 0.43770128 0
1.2831708 2.4998248 0.37320209 34
1.4205067 2.4907298 0.33222428 19.4
1.1036353 2.6833298 0.38500166 36
1.2866982 2.6293144 0.40522099 65.666664
1.6219513 2.6210523 0.33072525 7
1.6677479 2.5587633 0.30003941 7
1.006153 3.5572672 0.40083507 101.5
1.0653269 3.5231118 0.31957099 98.5
0.74888104 3.6382725 0.38618529 91
0.84470302 3.6159887 0.43022716 94
0.25291187 3.8946471 0.32009745 110
0.062967286 3.9849017 0.38942164 99.25
-0.15959224 4.1042085 0.39910662 82
-0.068661317 4.0552878 0.40570199 88
-0.2797913 -4.6751547 0.45442253 91
-0.25836152 -4.6402388 0.49791998 51
-0.10456511 -4.5510898 0.4841786 67
-0.80834007 -4.3933697 0.47301537 78.5
-0.33793184 -4.2722692 0.5731315 45
-0.18203434 -4.2053733 0.49646521 43
-0.79849708 -4.1586876 0.49174324 100
-0.30623418 -4.1168222 0.49188012 54
-0.63588184 -4.0128198 0.49733543 150
-0.50397885 -3.9831457 0.5233568 104.5
2.6401105 -2.2180862 0.52396703 18
2.8549201 -2.1473844 0.45354342 87
2.3210912 -2.0522673 0.58492321 26
2.895206 -2.0561161 0.52917379 91
1.8429716 -1.8230239 0.59851766 24
2.9978008 -1.8636215 0.48016441 97
-1.5537366 -1.687863 0.53699332 75.666664
-1.4501728 -1.7393392 0.52288824 78.666664
-0.79849321 -1.7756848 0.59327841 10
-0.67723227 -1.7324845 0.493871 13.666667
-0.57922882 -1.6948721 0.49176913 2
1.776052 -1.7895218 0.49498129 24
2.4791856 -1.7213718 0.5104695 49.75
2.89047 -1.7803469 0.5634014 150
3.0718248 -1.7080566 0.51386267 85.666664
-1.8169746 -1.562273 0.57853067 81
-1.7174436 -1.6097555 0.56158525 81
-1.6490812 -1.6494839 0.5083884 84
-0.60881573 -1.6368264 0.54892558 0
1.2339165 -1.5171014 0.58650661 23
1.418488 -1.6119163 0.55920517 28.5
3.1722288 -1.5112371 0.50608182 80.5
1.109059 -1.4577538 0.50041306 29.25
3.1887815 -1.4815767 0.55070347 76
0.62661719 -1.2134012 0.54769892 9.5
0.75364989 -1.2643907 0.57354009 2
3.2636595 -1.3110651 0.51030308 77.666664
-0.59920347 -1.0621378 0.47726327 1
0.29639834 -1.050584 0.59011996 10
0.38476974 -1.0870686 0.57060611 0
0.49534985 -1.1458223 0.55644697 8.5
0.64478576 -1.0862489 0.56525338 1
3.3631158 -1.1391718 0.51998729 81.75
-0.94838655 -1.0192063 0.50483626 13.6
-0.87141597 -0.98541105 0.47596878 4
-0.66178674 -1.0163419 0.52566189 9.8000002
0.074041024 -0.93054491 0.52479172 0.25
0.21541634 -1.0053393 0.58939755 5.4000001
0.30079043 -1.0472299 0.56708944 13
0.62534285 -1.0486807 0.53033066 0
3.4244723 -1.0258741 0.48046291 83
3.4663897 -0.93942034 0.48461384 82.5
-0.06975732 -0.86091053 0.52737159 3
3.5381649 -0.79166871 0.5785048 81
3.59549 -0.68935108 0.54609263 79
3.6635883 -0.54004753 0.54084456 74.75
-1.2662315 -0.33907184 0.4820435 6.3333335
3.4069948 -0.31504318 0.57449007 23
3.5859525 -0.40688869 0.49693614 25
-1.2766192 -0.23004301 0.52082223 3.5
3.408999 -0.26161385 0.52234882 66
-1.3617752 -0.031075817 0.48775291 0
-1.3144529 -0.10300982 0.51155794 1.5
-1.3944324 0.032945111 0.49452087 1.6666666
0.79856688 1.1763434 0.46887362 5
0.87069631 1.3244728 0.51629966 3
0.92225796 1.4363413 0.52820885 2.6666667
0.99399781 1.5864701 0.55803144 2
1.0834748 1.7607893 0.5833925 2
1.3041888 2.5148482 0.45013452 41
1.6103029 2.489475 0.57201958 7
0.99596781 2.635783 0.54743004 38.5
1.0938135 2.6214037 0.50308853 49.5
1.2298687 2.6729224 0.56382394 31
1.1600649 2.7074075 0.45298254 96
1.2631375 2.7735193 0.52529651 37.333332
2.6295393 2.7708986 0.59914386 1
1.0735986 2.9974318 0.57562292 150
0.93668717 3.5905211 0.5071429 99
0.56165272 3.7491457 0.55763507 100
0.64700919 3.7039728 0.57643354 93
0.83034158 3.6186819 0.51298702 89.666664
0.94082218 3.603111 0.49300182 113
0.027735423 4.0078125 0.530375 96
-0.22225006 4.1404266 0.59276158 73.666664
-0.13606927 4.0942345 0.53782284 92.5
-1.0780753 4.5753245 0.58377653 65
2.3641036 9.7697372 0.54064345 1
-0.19428506 -4.6859674 0.69720924 150
-0.04723813 -4.7820926 0.74285829 29
-0.40630388 -4.5992999 0.71270043 117.5
-0.74527299 -3.9641426 0.6533823 6
2.8085306 -2.1787231 0.68936449 132.33333
2.3076708 -1.9804612 0.68352461 32
2.7586753 -2.0349295 0.70913744 150
-0.79251367 -1.8841994 0.60773051 12
1.8358968 -1.8130069 0.6584447 23.333334
2.0598001 -1.9254274 0.73403883 22
-1.5735805 -1.6772395 0.64721346 72.125
-1.4681898 -1.7301282 0.64739025 71.25
-0.82671529 -1.7707664 0.61411643 6
-0.71178079 -1.774022 0.61908042 21
-0.5596233 -1.7449135 0.61668915 6
1.5806425 -1.6922245 0.6462369 22
2.1803782 -1.7115719 0.67231071 35
2.4580517 -1.7082548 0.62958682 99.5
2.7914276 -1.7110314 0.63222891 51
3.0839033 -1.6811625 0.62089849 88
-1.8365445 -1.5442199 0.68705672 68
-1.7091261 -1.6083906 0.68536264 63.285713
-1.6467339 -1.6385798 0.70905793 55
1.4891121 -1.6380128 0.71727037 22
2.1635804 -1.5863301 0.69816542 17
2.284606 -1.5339082 0.70501572 35.333332
3.118763 -1.6239204 0.66994929 75
3.1712403 -1.5193943 0.70105219 88
-1.9719356 -1.4852744 0.65430617 90
-1.9384875 -1.4928321 0.65015614 55
1.1667784 -1.4773202 0.6828388 24.5
2.3323882 -1.4573337 0.64167249 29
2.4534271 -1.4453537 0.68679178 26
3.2215605 -1.4102917 0.66020238 83
-1.9944718 -1.2462146 0.73719007 42
0.65965223 -1.224691 0.6837436 9.4285717
0.77696359 -1.278218 0.67915696 7.5
3.2984538 -1.2698095 0.63327646 95
3.3117118 -1.2445779 0.73807335 82.5
-2.0262749 -1.1314566 0.65678817 17
-0.80183291 -1.0595481 0.66643965 6
0.37754044 -1.0854839 0.65343237 9
0.51723373 -1.153761 0.67589867 9.3999996
0.62750202 -1.0611362 0.70662034 1
3.3712342 -1.1220464 0.68148756 79.333336
-2.1589694 -1.0365156 0.72199714 66
-0.83219421 -0.96970266 0.69505399 9.7857141
-0.73386723 -1.023973 0.61544514 11.5
0.066250719 -0.92857212 0.65540051 5.25
0.22739385 -1.0119514 0.65978247 6.1666665
3.4231822 -1.0199845 0.67206615 79.5
3.4693422 -0.92399538 0.62115806 84.5
-0.21046071 -0.77204692 0.71165884 0.5
-0.12972668 -0.83154309 0.72350997 3
3.507226 -0.85172415 0.69627285 70.5
3.5908976 -0.68142962 0.6575067 76
3.6112592 -0.63399559 0.71818984 76
3.6766956 -0.4894011 0.68069512 60
3.6647928 -0.42386085 0.74710584 28
-1.2898775 -0.20543377 0.68460214 3.4000001
3.4161973 -0.23044434 0.63993263 63
-1.2959262 -0.10596279 0.67702597 15.285714
0.91124517 1.4159456 0.64061511 3
0.99814546 1.5965955 0.66657388 2
1.0818939 1.7708924 0.68653637 2.5
0.9473539 2.6519797 0.60146815 87
0.89586943 2.7903514 0.7045095 51
0.94349378 2.8091717 0.71381474 51
1.1122385 2.7679162 0.66500986 54
1.584269 2.7253625 0.73760104 0
0.84977049 2.9016764 0.699278 46
1.0359682 2.8906095 0.66009772 147
0.68444985 3.6898727 0.65136528 97.599998
0.36809456 3.858007 0.74144816 90
0.45865124 3.8066938 0.72711825 93
-0.18491818 4.126308 0.67153871 85
-1.1773647 4.6270847 0.60423356 59
-1.4109603 4.7422228 0.6415807 58
-1.2981569 4.6875329 0.66328847 59.666668
2.2622516 9.8325119 0.60262895 1
-0.1318635 -4.7274885 0.84902215 33
-0.47280693 -4.534965 0.83506083 150
-0.32688612 -4.6358805 0.88782895 78
-0.76133621 -4.4174695 0.84346092 73
-0.65466225 -4.4607062 0.83282286 72.333336
-0.56332976 -4.4992433 0.75813305 150
2.472327 -2.1195221 0.83862138 21
2.7852168 -2.1325295 0.79614449 150
2.4397833 -2.099618 0.79569113 22
1.906626 -1.8409853 0.80955327 23
2.2081752 -1.9053766 0.81625974 60
2.2834938 -1.826875 0.86694455 37
-1.554787 -1.6805493 0.77977467 62.333332
-0.65733075 -1.693387 0.84343374 5
-0.56358325 -1.7230479 0.76381087 8.666667
1.8144794 -1.7936435 0.88496172 21
2.3383017 -1.7422144 0.88763314 33
3.0541143 -1.7029257 0.79563129 104.5
-1.9056216 -1.5284044 0.87667006 18.333334
-1.6700612 -1.6063578 0.76140237 0
1.3380116 -1.5588262 0.86893201 25
1.4181654 -1.5989946 0.81826377 22
2.3517392 -1.5701507 0.84114474 41
2.6039767 -1.5807958 0.83773071 31
3.1333263 -1.5978197 0.80745757 85
3.1688547 -1.5102017 0.84218204 70
-2.0481377 -1.4480089 0.87126607 31.666666
1.0330333 -1.4084821 0.81494033 22
1.102844 -1.4406717 0.81378281 25.6
2.4869542 -1.4964828 0.86750865 36.5
3.2313328 -1.3971734 0.8073923 82
-2.0356348 -1.2428334 0.83779764 121
0.68931609 -1.2268643 0.86996484 8.333333
0.7694295 -1.2608364 0.85148001 7.25
3.2585952 -1.3372006 0.82546401 74.666664
-2.3255022 -1.0987343 0.80388343 151
-2.1580229 -1.1375175 0.85683954 124.5
0.39221156 -1.0815203 0.8196857 9.333333
0.52329892 -1.1477346 0.84752369 7.6666665
0.62578952 -1.1934969 0.84329176 8.25
3.3505919 -1.1588397 0.81909961 70.666664
-0.9466446 -0.92347395 0.84352791 2
-0.81535244 -0.97409678 0.7691294 18
0.086582817 -0.93114662 0.83246213 12
0.22368562 -0.99674273 0.83241206 10.625
0.32165983 -1.0431714 0.82500935 10.333333
3.435791 -0.99523985 0.79245239 73.5
3.4610329 -0.91904807 0.85963762 67
-0.87179703 -0.89794517 0.82134211 7
-0.73759013 -0.89795351 0.83392084 6
-0.15775611 -0.81127661 0.8900044 1
-0.12099085 -0.78953505 0.84895152 0.33333334
0.0080249133 -0.89149034 0.89014196 6
3.5253747 -0.80075604 0.8212719 70
3.5831013 -0.67597967 0.86397588 64
3.6550806 -0.54127663 0.84213847 63.666668
3.4288981 -0.31772459 0.76263809 16.5
-1.3588891 -0.25340185 0.81482279 2
-1.2428224 -0.2462315 0.83276898 1
-1.1852446 -0.18560588 0.83183205 0
3.4308805 -0.19932126 0.83729422 62
-1.2538348 -0.087893508 0.81432736 6.7142859
-1.1844389 -0.13747108 0.87497336 0
1.0923654 1.7847797 0.80499363 2
1.1085242 1.8208586 0.78256929 2
0.86873847 2.8331327 0.75891042 42
0.42892691 3.8338282 0.82069731 84
0.54932982 3.7669914 0.78534007 90
0.24477793 3.922035 0.89866531 88
-0.20145661 4.1295443 0.76276135 85
-0.38728011 4.2228932 0.82479835 54
-1.4458603 4.7669659 0.83423096 61.5
-1.2948992 4.6900105 0.86221313 58
-1.6728733 4.876965 0.86886156 47
-1.6120681 4.8380408 0.87839413 60
-1.9905689 5.019002 0.82258952 57
-0.19359 -4.7035265 0.92593682 73
-0.14996794 -4.7238712 0.95438623 60
-0.39245173 -4.5679507 1.0105817 49
-0.19006048 -4.5535054 0.99549675 42
-0.81772345 -4.3928752 0.92145991 73
-0.73837578 -4.3869252 0.96877003 57
-0.52235043 -4.3984518 1.0106177 55.5
-0.23486547 -4.2479148 0.98085988 67
-0.40419853 -4.1599641 0.9781301 49
-0.79451239 -3.8859079 1.0028869 150
2.3418822 -2.045471 1.032437 27
-0.73431706 -1.8138441 0.97172093 31
2.2960949 -1.8763641 1.0155754 36.333332
-1.6051297 -1.6633457 0.96072787 15.666667
-0.6934306 -1.7302572 0.90363884 10.5
1.7015314 -1.7321364 0.99515271 20.666666
2.3183305 -1.7081257 0.98907894 27.5
2.9946935 -1.6925551 0.99079835 150
3.0934284 -1.6600668 0.92484343 82
-1.8783453 -1.5275439 0.97494471 42
-1.7466266 -1.5911063 0.9914012 41
-1.6414834 -1.6488971 1.0230496 70
1.3129755 -1.5445713 0.9428708 22.666666
1.4120656 -1.5787439 0.96836543 23
2.386704 -1.5982177 0.93387097 33
2.4151764 -1.5679541 1.0000246 51.5
2.6277945 -1.5449356 0.99837506 27
2.8864894 -1.5279995 0.91798508 129
3.0773919 -1.6055055 0.93614823 89
-2.1083694 -1.4039896 1.0133519 73
-2.037441 -1.4472665 0.95975828 57.833332
1.1023892 -1.4265649 0.99493963 22.571428
2.4777389 -1.4642181 0.96535099 26.5
3.2058849 -1.441927 0.97470868 70.5
-2.3166971 -1.2299438 0.9856385 150
-2.10973 -1.2185764 0.93566358 151
0.72825503 -1.2470868 0.91249579 6.5
3.2823725 -1.2908607 0.96467364 69.5
3.3135743 -1.2222154 0.96835303 71
-2.7226114 -1.0965471 1.0165361 71
-2.5391066 -1.1872903 1.0435863 67
-2.2211959 -1.1544605 0.98442173 151
3.3641636 -1.1179872 0.96804494 62.333332
-0.77838981 -0.90832013 0.93882453 0
-0.74502718 -0.91754246 0.93576562 0
0.11225505 -0.93559748 0.9210155 7
0.18215604 -0.97342008 0.9016608 10
3.4317427 -0.98918277 0.95483625 64
-0.17079781 -0.750108 0.91015267 1
0.012193752 -0.88559759 0.98614383 7
3.504333 -0.83323616 0.99704432 60.5
3.579603 -0.68053842 0.96380925 67.5
3.6468265 -0.53593946 0.98678803 64
3.5587287 -0.36853552 0.97617429 24
3.4329753 -0.20894262 0.96283984 68
1.0908946 1.7783742 0.90790844 2
1.2313697 2.7524738 0.92531419 23
-3.4535153 3.1346126 1.0227617 37
-3.3256283 3.1263604 0.98772442 88
-3.2698336 3.2533159 0.97743958 90.333336
-3.1979628 3.3876619 0.97658092 82
-3.1508973 3.5367627 0.95708096 89
-3.1390834 3.53424 0.90176058 82
1.1522429 3.4911139 0.90868497 150
-3.0606484 3.7053139 0.9982394 68
0.93089455 3.628515 1.0420239 72
0.36277875 3.8673058 0.95472318 84
0.21460755 3.9385221 0.95621872 83
-0.43167707 4.253581 0.97159576 2
-1.2887741 4.6914182 0.98063791 57
-1.7000313 4.8881359 0.95998567 49.5
-2.4216578 5.2488441 0.99635303 38
-0.45085087 -4.5563955 1.1855255 150
-0.64589226 -4.4728298 1.1906387 49
-0.47036642 -3.9741778 1.0548714 150
2.2389624 -1.9930319 1.1248204 24
2.2769539 -1.999523 1.1668054 25
-0.7518363 -1.8342365 1.0975894 1
2.1266022 -1.943259 1.0962842 22
2.2757413 -1.8568624 1.1084406 16.5
1.5948918 -1.6704292 1.1264277 20.5
1.7500348 -1.7357543 1.1177353 21
2.3317389 -1.7256602 1.094465 20
-1.8632615 -1.5251831 1.1035776 69
-1.7641635 -1.571195 1.1093811 68
1.3171862 -1.5348543 1.1112758 21.666666
1.4154844 -1.5731113 1.1161191 21
2.4035876 -1.6128573 1.0896525 23
3.0859358 -1.5981627 1.1161584 87.333336
3.1675406 -1.514442 1.1069089 68
-2.1592779 -1.3730948 1.1380625 65.25
-2.012027 -1.4474126 1.0973915 69.400002
-1.9250281 -1.4886394 1.1629183 66.5
3.20398 -1.4395944 1.1079602 64
-2.4664354 -1.2249151 1.1626769 60
-2.2891891 -1.3113856 1.1246896 69.666664
-2.2413805 -1.3265313 1.1265285 72
3.2854295 -1.2679455 1.1373961 59.5
-2.7702394 -1.0624526 1.1755292 63
-2.6041043 -1.1518983 1.1467118 68.25
-2.5429354 -1.1803044 1.0731648 60
3.3608687 -1.1185114 1.1272606 53
-2.8016951 -1.0493232 1.1706696 59
3.4297087 -0.97993517 1.1338046 57.5
-0.12004137 -0.80767155 1.1711841 16
3.4971931 -0.83652681 1.1509674 56
3.5747569 -0.69157761 1.1272433 62
3.6432257 -0.54007137 1.106315 58
1.6040231 2.879297 1.0508404 0
-3.3304048 3.1209421 1.1071873 60.5
1.6751157 3.0796649 1.0998403 13
-3.2746661 3.2649269 1.0981731 96
1.6934893 3.1717606 1.14784 11
-3.1939569 3.4159665 1.1268861 80
1.034916 3.5767918 1.1123879 80
1.0838544 3.5507455 1.0946546 82.5
-3.0417056 3.7437541 1.1274521 70
0.96404433 3.6163528 1.1294237 80
0.048746746 4.024734 1.136776 77.25
0.19873661 3.9524543 1.1169128 84.333336
-0.039646376 4.0710864 1.1588283 67
-0.6778394 4.3796973 1.0937783 62
-0.97918117 4.5578318 1.1254938 46
-1.7458255 4.9218292 1.0833015 55
-1.6382157 4.8617711 1.1266853 52
-1.9875048 5.0510125 1.1831965 54
-1.8625891 4.9915657 1.1384645 51
-2.3990533 5.2405548 1.1327907 38
-2.092469 5.1010251 1.1584283 33
-0.29522589 -4.6415634 1.3108367 72
-0.69540185 -4.4344745 1.2745811 62.333332
-0.8508001 -2.0175655 1.2033647 5
2.2050502 -1.9703908 1.2469159 18.666666
-0.8051244 -1.941783 1.3009945 1
2.0039058 -1.8706782 1.2676237 17
-1.5931219 -1.6502361 1.2871661 60
-0.56969213 -1.6906956 1.3179967 11.5
1.6381791 -1.687551 1.2617602 19
1.7655135 -1.7411478 1.2576919 19.5
3.0613444 -1.7038528 1.3182997 84
-1.7392701 -1.580959 1.2714876 64.666664
-1.6431533 -1.627601 1.3047714 55
3.1360233 -1.5652378 1.236676 60
3.1561155 -1.5296326 1.3014674 56
-2.1137648 -1.3928077 1.2419219 56
-2.0444765 -1.4259996 1.271981 62
-1.9370046 -1.4788144 1.2792016 63.5
3.2188058 -1.3986266 1.2789261 58.5
-2.454129 -1.222785 1.2241911 64.666664
-2.3490229 -1.2670141 1.2799684 65
-2.2195926 -1.3332975 1.2652042 61
3.2865613 -1.263298 1.2692236 53
-2.6444478 -1.1259985 1.2528121 37
-2.5270061 -1.1873519 1.2918553 65
3.359271 -1.1244318 1.2241786 53
-0.11121395 -0.76852447 1.211637 1
2.6093025 2.8225772 1.2519587 1
-3.322531 3.1402063 1.2520516 85
-3.2193773 3.3726494 1.3489022 86
-3.1790488 3.4673193 1.262947 85
-3.1235478 3.592221 1.3394427 81
-3.0924275 3.6468902 1.2593441 74.5
0.72522771 3.6956699 1.2470121 75
0.84634924 3.659306 1.2627131 73.400002
0.9362697 3.629988 1.2830439 85
-3.0249236 3.8010778 1.2719409 68
-2.9991865 3.8494124 1.2391082 16
0.00025282503 4.0497508 1.2697545 68
-0.22177672 4.1795783 1.3068348 66
-0.046651088 4.0778246 1.3285979 71.5
-1.0713363 4.6050491 1.3215158 61
-0.96338916 4.5482955 1.2893482 60
-0.86348182 4.5031433 1.2319256 69
-1.6212759 4.8606558 1.2549914 53
-2.0612469 5.0916533 1.3041093 41
-2.1342833 5.1249886 1.2398829 38
-0.13925081 -4.7169404 1.3719274 68
-0.75147456 -4.4064035 1.3959827 77
-0.58333492 -4.4917107 1.44144 70
2.575448 -2.1575906 1.4147875 12
2.8047504 -2.2322097 1.4394696 63
-0.85132974 -2.0080743 1.4913689 65
2.2379265 -1.9694548 1.4024886 13
2.8798382 -2.0722687 1.4876094 61
2.0702972 -1.9001389 1.4233199 15
2.9888098 -1.8409978 1.4091043 38
-1.501753 -1.6900698 1.4223164 62
-0.67510384 -1.6968205 1.4815832 9
3.0595055 -1.7130456 1.4268965 59.333332
-1.8607439 -1.5072132 1.4330655 65
-1.7403741 -1.5713296 1.412769 60
-1.6217088 -1.6356744 1.4058223 64
3.1444843 -1.540936 1.3840967 53
-2.1115928 -1.3769053 1.4358158 57
-2.0913892 -1.4029263 1.3573104 61
-1.8855554 -1.4982229 1.3905345 59
-2.4253993 -1.2264115 1.3934681 59.5
-2.279562 -1.3040694 1.4289581 54.666668
-2.1804886 -1.348194 1.3552788 64
-2.6164143 -1.1309981 1.4056779 60
-2.488431 -1.1916758 1.3865787 61
-0.1323936 -0.806041 1.4233508 4
2.6204755 2.7958279 1.4013612 1
-3.4064546 3.1292138 1.498342 34
-3.2965028 3.1837726 1.3856925 83
-3.2392757 3.3491535 1.4569297 85
1.4171152 3.4349694 1.4142199 15
-3.1660237 3.5232787 1.4189367 79
-3.1454477 3.5616784 1.3785754 87
-3.0532146 3.7286134 1.3730712 67
0.68610954 3.7266033 1.4094648 80.666664
0.75822157 3.6850984 1.4245782 83
0.54041076 3.8052549 1.443499 76
0.63626558 3.7556083 1.4235743 73
-0.20153785 4.1662698 1.4228209 63.333332
-0.008461195 4.0645509 1.3661513 75
-0.25789511 4.2007594 1.409053 64
-1.1536955 4.6492405 1.4943999 53
-1.3117697 4.7270246 1.3956286 56
-1.1967031 4.6645651 1.3763127 58
-2.0362656 5.0889387 1.4416206 47
-2.2753372 5.2102127 1.4692067 37
-2.157815 5.1540756 1.4015747 44
-0.26694998 -4.6510496 1.5641295 67
-0.12574047 -4.7081537 1.6147888 62
-0.4245154 -4.5677772 1.503219 69
-0.86127526 -4.3508215 1.576098 72
-0.70023137 -4.4335713 1.6407281 67
2.6770723 -2.2066085 1.5937296 17
2.8281779 -2.1763279 1.5649019 63
2.8508718 -2.1224933 1.6281334 60
2.2471204 -1.9655108 1.515695 14
2.9135921 -2.0034354 1.594492 59.333332
-1.090783 -1.8856349 1.554145 56
-0.978118 -1.941942 1.5820285 54
2.1048217 -1.9128783 1.5043349 15
2.95295 -1.9328481 1.5441726 60
3.0033498 -1.8181816 1.5340087 58
-0.71482074 -1.75788 1.5427296 24
-1.8180425 -1.5258121 1.5983177 53
-1.7772322 -1.5528224 1.5191152 59
-1.6451308 -1.6115062 1.5262214 61
-2.0431604 -1.4133652 1.5814813 53
-1.9167042 -1.4774561 1.57293 55.333332
-2.4700215 -1.2011257 1.6452886 51
-2.3426037 -1.2654064 1.5323137 57.5
-2.720015 -1.078312 1.5287136 4
-2.6618142 -1.1066866 1.5416501 27.5
-2.4910831 -1.1907446 1.5323898 57
-3.0278018 -0.9330197 1.5992085 1
1.7393248 2.8493981 1.5484908 0
1.8060384 2.8113658 1.5795349 7
2.5914626 2.8314226 1.5822183 1
1.4834316 2.9740067 1.5923145 81.5
1.5838273 2.9139965 1.5647608 27.5
-3.3369923 3.141573 1.6182209 85
1.1052656 3.14465 1.556656 40
1.3314222 3.0389571 1.6399597 74
1.60097 3.0706258 1.6095439 5
1.7218678 3.0540838 1.5658994 4.5
1.9038678 3.1011 1.6044607 9.5
1.9967519 3.0850863 1.5689552 3
-3.2898507 3.2644339 1.5361331 84.5
0.97787762 3.2170455 1.56968 48.599998
1.054522 3.2482929 1.5618142 16
1.6084725 3.2160647 1.6375817 52
1.8519849 3.1585648 1.5869877 9.5
1.9850597 3.2040577 1.5166808 0
1.0190588 3.4229796 1.6237785 12
1.1807992 3.4486375 1.6289982 50
1.2945795 3.409904 1.5588914 50.5
1.3685718 3.3676353 1.5404114 57
1.6085398 3.4060869 1.5394254 1
-3.1777506 3.4805574 1.6403295 85
0.27001277 3.5760217 1.606355 73
0.37922579 3.5186198 1.5700909 61
1.2323478 3.4871979 1.5546739 78
1.4867436 3.4965861 1.5156548 18
0.64755118 3.7409797 1.5122498 80
-3.0340607 3.772577 1.5145584 66
0.28237194 3.8083394 1.6058842 18
0.41007972 3.7947512 1.5991656 50
0.5209201 3.7845774 1.5847003 50.25
1.8709006 3.8218169 1.5655079 0
-0.49872136 3.9586737 1.5799119 49.5
-0.44299245 3.9270377 1.5780014 71
-0.72615188 4.0750623 1.6348039 86
-0.46144822 4.1967559 1.595978 22
-0.39032036 4.172576 1.5797681 40
-0.22112474 4.1557322 1.553521 45.5
-1.1634489 4.2826457 1.568682 68
-0.48108906 4.3166962 1.5478323 34
-0.30528444 4.212667 1.5779027 53
-1.5459385 4.475214 1.5863416 59
-1.3949952 4.4038973 1.5690238 61
-1.3507197 4.6381364 1.5729955 25
-1.249801 4.6173887 1.5951523 36
-1.2709126 4.6959791 1.5335488 33
-2.4736195 4.928369 1.6151134 54.5
-2.2949376 4.8495598 1.611338 61
-3.7000918 4.9608641 1.6352197 36
-2.42522 5.0827408 1.5591609 21
-1.9917119 5.0381336 1.5630677 22
-3.7762609 5.1537156 1.6409336 17
-2.5248289 5.2402525 1.5722934 19
-2.4089291 5.2675376 1.5301006 14
-3.9052734 5.5183134 1.649839 20
-3.7251399 5.4538941 1.6064256 29
-2.8924382 5.5385342 1.5091106 63
-2.60853 5.4173317 1.5204481 47
-0.3930299 -4.575047 1.7543167 69
-0.53740275 -4.4986138 1.6930434 64
2.775871 -2.2183158 1.7392117 46
2.8655298 -2.1026094 1.7284321 57
-0.80396169 -1.9272118 1.7183608 24
-1.508626 -1.6741962 1.7134316 59
-1.4613581 -1.7027301 1.6737188 60
-1.6698943 -1.5936372 1.7872905 56
-2.1365242 -1.3618345 1.7581282 48.5
-2.0082581 -1.4261408 1.7340508 51
-2.2706063 -1.2900568 1.6677305 47
-2.2365212 -1.3105198 1.7417544 53
-2.7011447 -1.0767167 1.7150267 54
-2.6108942 -1.1391954 1.664117 51
-2.511291 -1.1705891 1.7098924 48
-1.6438268 -0.85178876 1.7707509 20
-0.53559095 0.3887246 1.7752753 61
-0.67859554 0.55563873 1.7998017 79
-0.59193361 0.59249371 1.7999684 82
-0.99955523 0.69127387 1.7985178 74
-0.78161633 0.69302309 1.7971394 78.25
-0.6516282 0.65401715 1.7976297 78.333336
-0.56663626 0.70434147 1.7966446 78
-0.44028592 0.70649272 1.7880615 90
-2.7123675 0.89293933 1.799554 71
-2.3786592 0.87136632 1.7998952 74
-1.8860197 0.80894303 1.7994889 86
-1.7051051 0.84370732 1.7977878 85
-1.5038333 0.78915715 1.7993828 35
-1.3713578 0.85332829 1.7991103 89
-0.9253906 0.83315015 1.7950189 77
-0.80719 0.81973183 1.7958834 77.571426
-0.68043351 0.83091772 1.7943618 75.375
-0.53282106 0.8344925 1.795936 75.714287
-0.40582174 0.8445071 1.7917464 84.5
-3.2111201 1.0171471 1.7879902 82
-2.5882351 1.0470327 1.7958263 83
-2.1723139 0.91613919 1.7926248 84
-2.0372167 0.98378265 1.7958605 77.5
-1.8594695 0.99718922 1.7903602 85
-1.7165546 1.0464382 1.7922794 79
-1.586766 0.96224707 1.793857 68.400002
-1.4365076 0.97694868 1.798355 36
-1.292136 1.0208356 1.7922713 66.5
-1.1175421 0.94710875 1.7976524 94
-0.97264498 0.98242933 1.7945694 89.333336
-0.81437457 0.97469729 1.7931259 78.599998
-0.66633701 0.97485781 1.7900944 78
-0.52734262 0.97679877 1.7892288 73.333336
-0.41751739 0.99884981 1.7900496 71
-3.5423844 1.0688176 1.7962013 73
-3.3971062 1.0510212 1.7925326 74
-2.7689874 1.159709 1.7931193 77.5
-2.6540525 1.0929748 1.791608 81
-2.489754 1.0675613 1.799724 85
-2.3660715 1.0937283 1.7984978 85
-2.1629572 1.1105394 1.7917941 78.5
-2.0135496 1.1459239 1.7844502 70
-1.8831718 1.1820269 1.7883824 78
-1.6066895 1.1145658 1.7866889 83.666664
-1.4434116 1.1323961 1.790493 46
-1.2376742 1.1412257 1.7891215 70.333336
-1.1189665 1.1212703 1.7895514 86
-0.98650342 1.1267853 1.7913402 82.666664
-0.83422357 1.1455472 1.7936598 81.800003
-0.68643022 1.1249611 1.7942017 86.5
-0.52211034 1.1124035 1.7907052 85
-0.37724346 1.1466715 1.7887057 79.75
-0.28396392 1.1827946 1.7878181 82
-3.9024088 1.3338858 1.7837361 70
-3.7188933 1.3134749 1.7877504 70
-3.3724506 1.3295667 1.7815462 79.5
-3.1980302 1.27556 1.7798287 79
-2.6397834 1.3111157 1.7859261 78
-2.4654315 1.3079662 1.7890545 76
-2.342864 1.3192099 1.7915398 70
-2.156224 1.3320888 1.7841915 77.333336
-2.0748923 1.2497915 1.7785857 76
-1.7309177 1.2134368 1.7860157 78
-1.5507288 1.2380075 1.7801219 80.666664
-1.4687852 1.2912992 1.7771405 75
-1.2992806 1.3205259 1.7802304 34
-1.1068914 1.2844974 1.7814722 79
-0.96551144 1.3101118 1.7844595 79
-0.82458436 1.2869022 1.7870463 72.5
-0.67809153 1.2872473 1.7879772 77.14286
-0.52374119 1.2407383 1.7882801 83
-0.39259943 1.2965215 1.7860624 79
-0.23642996 1.2847431 1.7848972 79
-4.3271213 1.3727533 1.7795407 67
-4.102416 1.357882 1.7858998 66
-3.566385 1.3785238 1.7816669 71
-3.1816587 1.4230082 1.794351 86
-3.0071983 1.4089453 1.7983125 92
-2.7712846 1.4207771 1.7814997 77
-2.0286121 1.3918033 1.7744727 77.5
-1.8401669 1.3831886 1.7748131 79
-1.73765 1.3965607 1.7753476 76
-1.5730927 1.4067292 1.7754537 81
-1.4695375 1.4275906 1.7714686 83
-1.2901491 1.4903313 1.7725362 55
-1.1395339 1.4528507 1.7736109 52.666668
-1.0082818 1.4383621 1.7753053 77.75
-0.79663134 1.4412956 1.7768215 70.666664
-0.65227294 1.431428 1.782558 73.666664
-0.53958911 1.4038922 1.7813439 74.333336
-0.37253174 1.4331533 1.7768373 74.14286
-0.24293785 1.4224126 1.7803828 74.199997
-0.1192887 1.493749 1.7732154 71
-4.2428336 1.6245117 1.7955133 56
-3.7869532 1.6362562 1.7740294 72
-3.3520181 1.6115971 1.7680081 83
-3.2417166 1.5612546 1.7669982 70
-2.8078725 1.5341073 1.7842714 91
-2.6548855 1.5500998 1.7820557 75
-2.4342959 1.5544949 1.7762183 72
-2.1582499 1.5612078 1.7763184 81.5
-2.0510409 1.5353917 1.772594 80
-1.7404435 1.5954556 1.7667873 75
-1.5710369 1.5662644 1.7675678 79
-1.4753299 1.5715977 1.7641833 82
-1.0594989 1.5406562 1.7627455 57
-0.97300702 1.6013172 1.7644383 64.400002
-0.78724116 1.6346225 1.7688738 71
-0.65756822 1.5854682 1.7738336 71.5
-0.54162085 1.5551554 1.7760408 70.800003
-0.34284902 1.5712467 1.7708029 72.400002
-0.21387707 1.5708563 1.7730628 73
-0.048779685 1.6051502 1.7718261 71
-4.9795098 1.7979106 1.7949375 62
-4.6259022 1.7462753 1.795508 65
-4.3986993 1.7570885 1.7702681 48
-4.3343997 1.6985738 1.7937778 37
-4.1177969 1.6852291 1.783736 67.5
-3.9646745 1.6733271 1.7680389 72
-3.851418 1.7703716 1.7971932 75
-3.6004257 1.7183334 1.7986668 79
-3.5282836 1.6839852 1.7688526 68
-3.4116795 1.7637103 1.7910134 68
-3.2040203 1.7162957 1.7854966 74
-3.0192974 1.6802787 1.786985 85
-2.7682984 1.6938376 1.7683291 78.5
-2.6308577 1.7795392 1.7708514 85
-2.2686336 1.7947052 1.7698179 70
-2.1507881 1.7709183 1.7756256 76
-2.0411568 1.7145325 1.7687777 74.333336
-1.5377079 1.7831039 1.7638527 74
-1.4482654 1.7162113 1.7579615 73.199997
-1.2202657 1.6646903 1.7557181 79
-1.1267427 1.6512976 1.756148 32
-0.94231254 1.72679 1.7573665 59.666668
-0.87426972 1.7734206 1.7611501 69
-0.65967309 1.7674018 1.7616056 65
-0.50742543 1.7053902 1.7688318 68.800003
-0.39170137 1.7281811 1.7651436 71.599998
-0.23875017 1.7130493 1.7652181 76.199997
-0.1062203 1.7279941 1.7648779 71.14286
0.025849845 1.751423 1.758219 67.5
-4.4476361 1.8947281 1.7912954 70
-4.113183 1.8227357 1.7881788 59
-4.0383549 1.9386055 1.79029 61
-3.6252387 1.800707 1.7837414 65
-3.3920815 1.9349095 1.7558538 72
-3.2951565 1.874447 1.7606367 76
-3.144249 1.8964881 1.7719804 84
-2.9526217 1.8480831 1.7718681 80
-2.7832971 1.8013133 1.7737156 93
-2.6860714 1.8765932 1.7620574 78
-2.3991084 1.8182909 1.7683033 75
-2.033731 1.8430234 1.7607147 75.333336
-1.7351252 1.8165464 1.757332 73
-1.6316741 1.8009212 1.7587754 73
-1.412663 1.8914133 1.7517809 71
-1.1009188 1.844545 1.7561655 47.5
-0.95036864 1.8423265 1.7600188 28
-0.83234853 1.8940871 1.749362 70
-0.531102 1.8953708 1.7583081 62.333332
-0.38846397 1.8828615 1.7623217 66.800003
-0.21040937 1.86958 1.7495303 74
-0.075790152 1.8633558 1.7586515 72.85714
0.060968351 1.9007295 1.7554978 72.333336
-4.6752257 2.0988598 1.792168 65
-4.4254003 2.0943429 1.7801505 69
-4.3377538 2.013911 1.79065 65
-4.1659589 2.0293629 1.7872797 35
-4.0236616 2.0331957 1.7456399 59
-3.8576689 1.9841183 1.7578827 67
-3.6248326 2.0525064 1.7662268 73
-3.4909256 1.994294 1.7535502 63
-3.4296796 2.0965576 1.7732121 71
-3.2302058 2.0333858 1.7783822 80
-3.0401638 1.9760021 1.7827989 44
-2.7641475 2.0212801 1.7622181 79
-2.6213927 2.0551095 1.7596703 76.5
-2.3550174 2.0932612 1.7578727 80
-2.1614764 2.0293465 1.7610123 69.5
-2.0096595 2.0202246 1.7553052 70.5
-1.6702812 2.0527484 1.7531527 75
-1.5673341 2.0200615 1.7534279 80
-1.396058 1.9915676 1.7497847 67.25
-1.318702 2.0896549 1.7430042 66
-1.0559838 2.0461526 1.7430536 61
-0.97239017 2.0126052 1.7496175 24
-0.8278842 1.9958969 1.7504027 49
-0.73413903 2.0888867 1.7432965 68
-0.37065411 2.0195038 1.7543585 62.75
-0.26193953 2.0309169 1.7551326 62.666668
-0.072356202 2.0037627 1.7500454 67.666664
0.08902961 2.0305035 1.748394 68.714287
0.21993743 2.0278459 1.7465619 64.25
0.33010203 2.0684981 1.7441148 69
-5.0925975 2.1995778 1.7952126 60
-4.7205758 2.1697121 1.7796572 66
-4.4579358 2.1651945 1.750573 67
-4.2367616 2.1056318 1.7572576 51
-4.1959429 2.2287686 1.7845994 58
-3.8984332 2.1307688 1.7793344 73
-3.6640832 2.169353 1.7709221 68
-3.3371634 2.209723 1.7421051 61
-3.12709 2.2275572 1.7611014 73
-2.9334474 2.1562798 1.7641751 83
-2.6875174 2.1744421 1.7502118 72
-1.9826026 2.1993022 1.7439175 66.5
-1.9290118 2.2013574 1.756303 76
-1.4197917 2.1998324 1.7428322 62.666668
-1.3080442 2.1692047 1.7442816 67.5
-0.95446342 2.2451265 1.734507 58
-0.8119778 2.1576364 1.7414991 37
-0.71327895 2.2039001 1.7423844 48
-0.48837256 2.1033325 1.7476481 59
-0.31202778 2.2013454 1.7472171 52
-0.21738073 2.161716 1.7487295 63
-0.11635488 2.2095819 1.7499493 64
0.056651473 2.1470509 1.7449905 71
0.22013539 2.1755805 1.7415583 66.125
0.34604922 2.1914799 1.7399918 64
0.45657176 2.1972005 1.7408975 69
-5.0868864 2.256223 1.7803935 62
-4.5414371 2.3331692 1.7825338 63
-4.1341081 2.3390243 1.7857689 57
-3.9365926 2.366272 1.7403833 43
-3.5207582 2.3571732 1.7387146 60
-3.4262068 2.2831135 1.7381629 67
-3.2465823 2.3717487 1.7659634 65
-3.0543957 2.2936172 1.7740346 64
-2.7481928 2.3331203 1.75281 72
-2.5629625 2.3061867 1.7595807 80
-2.2973273 2.3824794 1.7430562 76
-2.1660097 2.3220439 1.7492465 68
-2.0261655 2.3017821 1.7459906 70.5
-1.9414628 2.3217237 1.738294 68
-1.587625 2.289192 1.7378904 70
-1.2675071 2.3373547 1.7353083 58.75
-0.76631904 2.3947649 1.7350572 26
-0.65503591 2.3112454 1.734359 49
-0.365749 2.2677643 1.7411357 53
-0.16715917 2.3180146 1.7388837 56
-0.084115617 2.3248987 1.7420251 65
0.00062136055 2.3570955 1.7434684 74
0.22698277 2.2715633 1.7291456 67
0.39397171 2.3375299 1.7389182 65.375
0.54494143 2.3164701 1.7353042 62.5
0.64435124 2.3796115 1.7369448 62
-4.5219841 2.5274746 1.7607545 64
-4.4333835 2.4381564 1.7784311 67
-4.2790661 2.480186 1.7523915 63.5
-4.1124749 2.4428024 1.7345451 61
-3.9735231 2.538506 1.7745558 41
-3.6637082 2.426538 1.7537314 69
-3.4599791 2.4674819 1.7630297 61
-2.9037302 2.4825897 1.75274 71
-2.6802063 2.4603946 1.7465111 64.5
-1.9790475 2.5249653 1.7377857 85
-1.912347 2.4660966 1.7354237 77
-1.4465231 2.5132527 1.7293881 62.5
-1.2538723 2.4574995 1.7322913 55.333332
-0.83750576 2.4527507 1.7264625 58
-0.6333614 2.4114611 1.7337507 31
-0.56305814 2.4758768 1.7293189 52
-0.22510228 2.4405379 1.7396308 61
-0.030656505 2.4790592 1.735943 61
0.067789547 2.4950714 1.7390274 66.599998
0.31262904 2.4193842 1.7282223 67
0.51586789 2.471266 1.7310103 60.333332
0.65494001 2.4929957 1.7295043 55.599998
0.80708283 2.4932368 1.7280593 54.666668
-4.8434448 2.6446178 1.7691237 58
-4.7896061 2.5622857 1.7821022 59
-4.5289335 2.6135199 1.7310766 59
-4.2668262 2.6627164 1.7680265 64
-3.7012854 2.5694568 1.7566282 66
-3.4633882 2.6647983 1.7202164 62
-3.3889654 2.5830903 1.72816 60
-3.0827422 2.6089168 1.7540998 61.5
-2.7428041 2.6462746 1.7396775 59.5
-2.5283937 2.6137748 1.7540866 74
-2.0983255 2.6085711 1.7353953 73
-1.9173945 2.6114171 1.7188354 76
-1.2167205 2.6523004 1.7255801 62
-1.1646173 2.6117454 1.7229545 57.25
-0.6735242 2.6379442 1.7252336 34
-0.49422172 2.6011422 1.7238301 59.333332
-0.41693246 2.6224244 1.719195 58
-0.069746777 2.6026299 1.7272788 60
0.12182164 2.6397059 1.728394 59
0.20781104 2.6430712 1.7299176 59.75
0.69290745 2.6099064 1.7226318 56.799999
0.81833947 2.6667404 1.7207792 55.400002
0.96609098 2.599946 1.7215433 54.75
1.1006887 2.6545978 1.7174238 55
-5.2166147 2.7361546 1.7725791 53.5
-4.6447868 2.8200257 1.769946 60
-4.031888 2.7980556 1.7235681 59
-3.7501733 2.8301055 1.7614053 30
-3.654705 2.8446157 1.7156817 49
-3.5508981 2.7546453 1.7206086 56
-3.2664323 2.7480628 1.7544552 60
-2.8679199 2.8369999 1.7399145 66
-2.6824098 2.739954 1.7401108 63
-2.2356837 2.700031 1.7350641 75
-1.8847885 2.7812722 1.7170693 65.666664
-1.7885736 2.70976 1.7290598 59
-1.3805678 2.8055255 1.7074074 56
-1.2939148 2.7285664 1.716524 60
-1.0992134 2.8044989 1.7091459 58.5
-1.0325876 2.8002403 1.7166291 72
-0.48065755 2.7599497 1.7155515 41.5
-0.39090315 2.7661278 1.715876 60
-0.28294247 2.8238719 1.713823 56
0.10476415 2.781008 1.725578 61
0.28021684 2.7723255 1.7216077 59
0.3739756 2.7873375 1.7220688 61.666668
0.86526304 2.7729671 1.7044674 61
0.96783215 2.7810488 1.7133627 55.5
1.1300783 2.7473164 1.7184072 54.666668
1.2757199 2.7337317 1.716615 54.5
1.4286515 2.8323574 1.7079982 49.5
1.5265713 2.8152978 1.7146062 50
-3.4937544 2.8804238 1.7544304 67
-3.0701249 2.9680028 1.7327079 65
-2.7013271 2.9602561 1.7249402 62
-2.6894827 2.8661489 1.7319516 59
-2.475044 2.9323719 1.7353333 71
-2.0271409 2.9307532 1.7302307 80
-1.8589578 2.9297023 1.709437 63
-1.1196014 2.9183471 1.7057605 65.333336
-1.0398647 2.9386005 1.6995205 66
-0.55338758 2.9052241 1.7147008 30
-0.31888798 2.8896122 1.7070675 61
-0.24509373 2.9606304 1.7070063 67
0.29703796 2.9447505 1.7102023 60
0.4053427 2.8811095 1.717044 61
0.50201368 2.9204667 1.714501 61.333332
1.136974 2.9090753 1.7043009 54.400002
1.2805563 2.8985558 1.7144395 51.25
1.4507825 2.9895415 1.6756898 75
1.5526568 2.9359539 1.6781001 66.666664
1.7057937 2.867573 1.6901441 21
-4.9096575 3.0760934 1.7646865 50
-3.7578917 3.0289795 1.7517012 40
-3.5047011 3.0922873 1.7009097 62
-3.4457457 3.0021994 1.7133812 62
-3.0666306 3.0092084 1.743205 65
-2.7302992 3.0667968 1.7208618 62
-2.6548018 3.1059704 1.7221218 67.5
-2.1578419 3.0412531 1.7237629 70
-1.8202655 3.0870931 1.7102236 62.5
-1.7170525 3.0250053 1.7350742 47
-1.2555293 3.1006792 1.699237 62
-0.96058154 3.0890362 1.6979349 62
-0.36011767 3.0786843 1.7006236 30.5
-0.19874255 3.065434 1.698993 59
-0.1393463 3.0839238 1.6973393 68
0.525868 3.0726528 1.7075378 55
0.65546429 3.0659046 1.708632 55.75
0.75096041 3.0805368 1.7072414 58
1.327865 3.009491 1.7002823 65.5
1.3969465 3.0189493 1.6762069 82
1.933629 3.0233068 1.6527127 1
-5.3703718 3.2752407 1.7637616 39
-3.8028679 3.2813342 1.7407645 65
-3.6434917 3.2693715 1.6761817 52
-3.5860231 3.1999757 1.7037977 62
-3.2818184 3.1601543 1.7391509 74
-2.8183095 3.2165303 1.7210473 61
-2.6657395 3.2533665 1.7081598 58
-2.4188221 3.2901905 1.7214378 73
-1.8665386 3.2114153 1.7103541 61
-1.7858083 3.2814746 1.6998951 53.5
-0.97634888 3.2325106 1.6954271 64.333336
-0.1598715 3.2545781 1.6902972 59
-0.074803874 3.1824136 1.6995585 62
0.040268671 3.2547467 1.6915785 63
0.71127802 3.1913314 1.7012872 53
0.86164707 3.2434082 1.6970712 77.333336
0.94133109 3.2386038 1.7036732 92
-5.3527107 3.3370793 1.7465645 45
-3.0563343 3.4186668 1.7258841 66
-2.673969 3.3652487 1.7088901 59
-2.0595782 3.4034908 1.7052141 60
-1.743355 3.4054039 1.6890863 52
-1.6120996 3.3222065 1.7094182 58
-1.1100997 3.4225881 1.6923085 60
-0.81831056 3.3664417 1.6948558 68
-0.18117525 3.3940358 1.6943589 30
-0.055271018 3.304642 1.6888763 54
0.047412414 3.3767087 1.6906615 57.333332
0.15294962 3.4432936 1.6920935 61
0.77659547 3.3045459 1.7004981 87
-2.6494582 3.5127504 1.7075601 63.333332
-1.7125106 3.4972744 1.6982555 54.5
-0.81522804 3.50436 1.6861778 58.666668
0.04707868 3.5100076 1.6848012 57
0.24498859 3.5466275 1.6694558 70
-2.769022 3.6512985 1.7095462 65
-2.6476259 3.70684 1.6939653 60
-2.3566699 3.6941695 1.7078751 61
-1.8242826 3.6376004 1.6993893 56
-1.6948678 3.6682963 1.6861746 55.5
-1.5012535 3.6770904 1.699818 62
-0.87534624 3.6082458 1.6857091 63
-0.65613908 3.6700418 1.6807127 57
0.044578414 3.6519072 1.6793894 70
0.18881015 3.6061876 1.6742353 73.5
-3.0123954 3.8221326 1.6608855 69
-2.9788167 3.8620481 1.6979736 63
-2.6431031 3.8301094 1.6974698 58
-2.5205259 3.8967876 1.6964446 59
-1.9515749 3.8233042 1.6956371 54
-1.650587 3.8150258 1.6767665 44
-1.5940307 3.8494132 1.6870719 55
-0.93624181 3.766222 1.6799995 63
-0.6677531 3.808476 1.6706772 59.5
-2.6457813 3.9532728 1.6912762 53
-1.6005275 3.9301276 1.6795861 53
-0.68642342 3.9422793 1.6676339 61
-0.59868544 3.917594 1.6626073 52
-0.43119201 3.9163344 1.6540595 92
-2.674017 4.1101294 1.6838473 50.5
-2.2769797 4.1457701 1.6907524 51
-1.6960949 4.0548153 1.6844579 54
-1.5833955 4.1107779 1.6742947 57.5
-1.3692533 4.0724888 1.6870114 59
-2.5990558 4.2738996 1.6700014 45
-1.8172677 4.281673 1.6797529 53
-1.5346228 4.2768431 1.6615471 59
-1.4509 4.27705 1.6717917 61
-3.0900118 4.4897776 1.6985086 36
-2.9237077 4.4078927 1.6830958 45
-2.5755141 4.4726286 1.6676623 41
-2.4367778 4.3884435 1.6764406 43
-1.4645797 4.3815346 1.6613287 62
-3.3225024 4.7803106 1.6828831 32
-2.6297126 4.6933541 1.6678579 34
-2.1792145 4.6552644 1.6686217 43
-2.5767941 4.8257937 1.6553987 32
-2.8450258 5.0199957 1.6591724 32
-3.5917501 5.1309428 1.6755775 27
-3.0861833 5.1453662 1.6734742 38
-0.17212972 -4.6878877 1.8858364 18
-0.80052996 -4.3682351 1.8314353 67
-0.65080714 -4.4460425 1.8954586 68
2.5680304 -3.3574219 1.9362308 0
-0.70154774 -2.9234955 1.93919 46
-0.27330902 -2.9197092 1.9454579 65.333336
-0.46007699 -2.7100954 1.9418055 60
-0.41092756 -2.7445805 1.9452051 55
-0.44207379 -2.6743045 1.9337159 62
-0.29588538 -2.68839 1.9400765 58
-0.6069001 -2.4876838 1.9332578 38
-0.52982372 -2.5114098 1.9356111 55.75
-0.31965476 -2.4989908 1.928295 62
-0.19762088 -2.4942269 1.9278406 62
-0.60668391 -2.2965524 1.91895 57
-0.46475351 -2.3220978 1.9231049 65
-0.33863842 -2.3269546 1.9245464 69
-0.53007478 -2.147234 1.9076639 64.5
2.773371 -2.2325802 1.829712 42
-0.8639949 -1.9833754 1.8124038 62
-0.58027864 -1.9911579 1.8939997 63
-0.23215586 -2.0720289 1.9021767 62
-0.95584488 -1.9068712 1.9031664 75
-0.85158145 -1.8927931 1.9055967 75.75
-0.34667182 -1.9208721 1.8941373 78
-0.26511955 -1.9063807 1.9001203 70
-1.5106416 -1.6645772 1.8246995 57
-0.96928596 -1.7281593 1.9006656 70.166664
-0.78105593 -1.700366 1.8913518 84
-0.50007176 -1.7155402 1.885831 63.75
-0.37683573 -1.7430642 1.8911264 79.400002
-0.22704306 -1.7388113 1.8905945 54.5
-1.6614324 -1.5567427 1.8822418 67
-1.5708969 -1.5888776 1.8581028 70.800003
-1.4531775 -1.5453575 1.888383 73
-1.2024615 -1.5217416 1.8857185 77
-1.0755056 -1.5682325 1.8953606 77
-1.0121948 -1.5388222 1.8941379 76.666664
-0.86818069 -1.5598658 1.8889462 73
-0.65472817 -1.5168718 1.8801488 86
-0.48502639 -1.6076514 1.8866534 79.666664
-0.37868387 -1.5575601 1.8873039 75
-1.8115934 -1.458372 1.8816382 62
-1.706674 -1.4426626 1.8825527 68.333336
-1.5589883 -1.4202482 1.8820636 67
-1.1207863 -1.3942891 1.8867434 78.666664
-0.94899029 -1.4227884 1.8888215 78
-0.68374038 -1.4224844 1.8839461 83
-0.54336172 -1.4444852 1.8807539 16.666666
-0.36010787 -1.4542933 1.8853134 77
-0.27258712 -1.4279096 1.8860176 49.5
-2.2989655 -1.2391578 1.855199 61.666668
-2.1723197 -1.3126279 1.8778286 65
-1.8794752 -1.2516726 1.8741564 62
-1.7017283 -1.2943736 1.8794862 65.25
-1.5985198 -1.2738141 1.8807539 69
-1.2443281 -1.2745063 1.8814698 77.75
-1.1399732 -1.2231151 1.8847455 76
-1.0238446 -1.2872466 1.8886734 72
-0.78334212 -1.2689199 1.8793452 85
-0.6395458 -1.2889143 1.8805325 82
-0.51261312 -1.2248091 1.8789219 80
-0.35993618 -1.3204708 1.887755 78
-0.2709969 -1.2886339 1.882937 59.333332
-2.7065377 -1.0850611 1.8288215 54
-2.4485078 -1.1410657 1.8663689 57.333332
-2.2619607 -1.0732108 1.8741843 62
-2.1841969 -1.1243839 1.8756591 62.5
-1.8556285 -1.0997484 1.8708296 67
-1.7237964 -1.1183176 1.8737054 70
-1.6430395 -1.1515197 1.8795432 73
-1.3601255 -1.1774468 1.8754431 74
-1.2723064 -1.0837792 1.8755702 75.5
-1.1472297 -1.0990742 1.8789678 82.333336
-0.96901125 -1.0579803 1.8755339 78
-0.82376629 -1.1142906 1.876316 85.833336
-0.66115922 -1.1617647 1.881385 82.333336
-0.51712215 -1.10849 1.8767325 80.75
-0.36347324 -1.0924388 1.8799858 56.200001
-2.7429607 -1.0424809 1.8678619 65
-2.5874538 -0.94881165 1.8680924 64
-2.4371126 -0.9326151 1.8674351 65
-2.3326659 -1.0060563 1.8662796 61.5
-2.2210212 -0.92818028 1.8712994 62.5
-1.8591499 -0.98800385 1.8681327 63
-1.7389766 -0.94603568 1.8639424 66
-1.6487204 -1.0498853 1.8705701 73
-1.3844475 -0.96328849 1.8738803 75
-1.2740923 -0.92477274 1.8721009 77
-1.1721156 -0.96958113 1.8792392 76
-0.98713672 -0.94975328 1.8714434 93
-0.83338773 -0.95749462 1.8724945 91
-0.68611032 -0.98894978 1.8740097 91.599998
-0.50347656 -0.95721734 1.8639666 73.14286
-0.37085947 -0.96907544 1.866778 57.5
-0.27235404 -1.0405227 1.836022 0
-2.480762 -0.87152493 1.8677036 65
-2.3409309 -0.81974411 1.8632383 66.333336
-1.9647994 -0.83937013 1.8246382 122
-1.8593788 -0.81335855 1.8490738 64
-1.7234101 -0.7921629 1.8649461 72
-1.4339575 -0.80248994 1.8654803 73.333336
-1.2725385 -0.79090387 1.8702068 73.833336
-1.0906121 -0.77648842 1.8645257 95
-0.95749706 -0.85212511 1.8658694 96
-0.8311041 -0.80799735 1.8568567 77.5
-0.68443716 -0.81333959 1.8564039 81.400002
-0.52641588 -0.81945354 1.8603715 71
-0.38059568 -0.82727635 1.856969 62.857143
-0.24278745 -0.77149653 1.8600447 56
-2.4425948 -0.65688837 1.8561984 73
-2.2871397 -0.70327312 1.8593743 71
-2.2181506 -0.72305924 1.8626736 77
-1.9948179 -0.63993037 1.8528019 72.5
-1.8603441 -0.71954805 1.8608333 76.5
-1.7445704 -0.65946561 1.8577772 71.333336
-1.5321245 -0.6789096 1.8599387 69
-1.4131687 -0.62759256 1.861081 75
-1.2855486 -0.63134211 1.8663355 80.666664
-1.1008475 -0.62376583 1.8626527 93.5
-0.98505867 -0.71832305 1.8595059 93.25
-0.82746011 -0.68171245 1.8558105 82
-0.64314049 -0.66159201 1.8518887 84.571426
-0.52161807 -0.69131619 1.8542982 76.125
-0.38057643 -0.66426337 1.854009 72.75
-0.28583491 -0.68706173 1.8544885 63
-2.4868453 -0.48910734 1.8549761 74
-2.3524284 -0.56830812 1.8518888 73
-2.223707 -0.53039116 1.8540343 74
-1.8806213 -0.55668026 1.8514842 75
-1.7600797 -0.5242393 1.853879 71
-1.5734487 -0.51484287 1.8539473 69
-1.4384842 -0.48794022 1.8569773 77.333336
-1.3122687 -0.49289861 1.8585672 83.666664
-1.1150719 -0.51755333 1.8431969 72.333336
-0.97718704 -0.51888496 1.8629417 54.57143
-0.83092052 -0.53925437 1.8478519 79
-0.66851544 -0.52287769 1.8469478 87.833336
-0.52787507 -0.52675301 1.8472036 80.800003
-0.34783006 -0.54608208 1.847814 74.666664
-2.5613518 -0.43875077 1.8487419 6
-1.869404 -0.40936884 1.8458658 79.666664
-1.7642255 -0.37992951 1.853668 79
-1.5726733 -0.34907722 1.854206 75.5
-1.4320804 -0.3688108 1.8533868 88.5
-1.2808112 -0.35814193 1.8493339 87.333336
-1.104708 -0.36306319 1.8412443 79
-0.97424734 -0.35874724 1.8419688 77.75
-0.82989877 -0.36629763 1.8407623 79.375
-0.68222904 -0.38132903 1.8425046 81.818184
-0.55535108 -0.36281833 1.840794 79.800003
-0.4022038 -0.39975187 1.8429461 75
-1.8007777 -0.27575958 1.8451661 88
-1.7386326 -0.16174571 1.8432971 88
-1.5649787 -0.22365831 1.8463391 87.666664
-1.4212153 -0.20425072 1.8439915 96
-1.2672639 -0.2246263 1.8428082 94.5
-1.1148295 -0.21189548 1.8374648 78
-0.94776666 -0.23114987 1.8392019 79
-0.79756838 -0.22392663 1.8354406 77.199997
-0.67112082 -0.21698114 1.8356508 78.285713
-0.54061639 -0.22191517 1.8393934 81.5
-0.44211015 -0.25268677 1.8401393 76.333336
-3.7952783 -0.086914144 1.8506762 48
-2.7294245 -0.029107975 1.8328241 74
-2.6289694 -0.010568503 1.8351322 78
-2.5206535 -0.026400177 1.8331419 75.5
-1.8669239 -0.082195736 1.8392383 79
-1.69856 -0.016665347 1.837342 83.5
-1.5352474 -0.076794535 1.841118 90.666664
-1.4162656 -0.065208398 1.8427172 101
-1.2812963 -0.089893281 1.8383688 90.5
-1.1322734 -0.08438386 1.8304889 83.75
-0.97137117 -0.078411415 1.8306249 79.25
-0.82843506 -0.091723047 1.831476 79.714287
-0.67452079 -0.081829786 1.8312318 79.400002
-0.51904988 -0.067675851 1.8320004 80
-2.4232435 0.023129165 1.8288656 75
-2.314754 0.12078057 1.8307065 87
-2.1883264 0.067469865 1.8291094 77
-2.0015659 0.075074717 1.838817 57.25
-1.8503032 0.090049826 1.8343687 81.5
-1.7049189 0.14146097 1.8333765 82.5
-1.550016 0.074306034 1.8330647 94
-1.4242748 0.074490361 1.834228 95.333336
-1.2601519 0.043089479 1.8327585 89.666664
-1.1147236 0.072737254 1.8253412 84.400002
-0.96107292 0.073656894 1.8231674 82
-0.82394296 0.065974899 1.8254791 83.14286
-0.68679023 0.091427088 1.8256326 81.666664
-0.5057078 0.087447628 1.8224621 82
-3.1575336 0.25871488 1.8216523 67
-3.0471694 0.27952418 1.8364166 42
-2.9431105 0.22247691 1.858735 60
-2.7872217 0.20456108 1.8540784 34
-2.6060228 0.20651639 1.8213512 79
-2.4665151 0.20365238 1.8251143 77.333336
-2.2217407 0.20222831 1.8318807 77
-2.0089085 0.25294667 1.8205838 79.5
-1.8091305 0.21285638 1.8302497 80
-1.7257371 0.29748914 1.8260635 80
-1.5604721 0.22812362 1.8283843 88.333336
-1.4297143 0.2157703 1.8287271 97
-1.269269 0.2030188 1.8237804 81.75
-1.1123316 0.22680838 1.8185905 79.800003
-0.9507429 0.21681328 1.8198997 82.333336
-0.83136004 0.22938597 1.8179309 81.599998
-0.68570644 0.23157269 1.8184973 80.444443
-0.50670296 0.23515193 1.8160599 87.666664
-3.0954669 0.39202169 1.8343803 5
-2.9639423 0.44838828 1.8516732 49
-2.7948732 0.44015524 1.8348342 41
-2.6406989 0.42488363 1.8222448 51
-2.5085757 0.39225844 1.8161443 79.5
-2.3131528 0.31380138 1.8281125 79
-2.1867771 0.34567133 1.8188449 80.5
-1.9922019 0.41869083 1.8146195 83.333336
-1.8814979 0.30327743 1.8198086 91
-1.7413762 0.3402262 1.8235394 81.5
-1.5642109 0.38399664 1.8213712 87.666664
-1.4294912 0.35803083 1.8235687 92.666664
-1.2490281 0.37486839 1.8137332 80.25
-1.119257 0.3712759 1.815771 76.25
-0.94533515 0.35890827 1.8169562 78.5
-0.81512207 0.38865674 1.8122694 79
-0.6641202 0.36661988 1.8138822 79.5
-0.51500851 0.33728507 1.8166224 81.5
-2.4049711 0.45014346 1.8164147 80
-2.2981756 0.50685775 1.8148664 79
-2.1606462 0.5181002 1.8152137 83.666664
-1.9719837 0.58745909 1.8089155 85
-1.8736101 0.47854629 1.8153325 86
-1.7286094 0.4876515 1.8173579 86.333336
-1.546562 0.52763724 1.8147513 87.5
-1.4210638 0.55362779 1.8185557 94
-1.2785016 0.51917791 1.816864 98.25
-1.1068226 0.5166949 1.8075628 74.800003
-0.95736605 0.5308603 1.8092922 76.5
-0.81212294 0.53691578 1.8071871 75.571426
-0.68624306 0.50770813 1.8081963 77.428574
-0.53189617 0.50852668 1.8062143 85.333336
-2.9549077 0.67212158 1.8202189 82
-2.7910118 0.67656898 1.8095771 76
-2.6556516 0.64634383 1.8073946 78
-2.5206194 0.60643721 1.8081623 79.5
-2.3407707 0.68210417 1.8091656 80.5
-2.1555929 0.71057004 1.8056084 79.666664
-2.0476561 0.62705624 1.8015047 90
-1.8601552 0.65492469 1.8085014 92
-1.7159796 0.65091234 1.811011 88.333336
-1.5323665 0.66762543 1.8076435 65
-1.4450231 0.67563212 1.8089446 90.5
-1.2724012 0.6752885 1.8101826 95.800003
-1.1207596 0.66422415 1.8050565 82.666664
-0.94477946 0.69908923 1.8023487 80
-0.86199439 0.658409 1.8054955 73
-0.72180253 0.66601253 1.8053658 77.5
-0.51624686 0.66385639 1.8138771 54.666668
-3.315125 0.86966747 1.8145844 76
-3.1398118 0.88762575 1.8140131 88
-2.6025591 0.84155238 1.8037665 79
-2.5021608 0.83331877 1.80507 81
-2.117218 0.87215889 1.8029801 83
-2.0314116 0.79070371 1.8021545 86.5
-1.6744492 0.75891399 1.8046583 89
-1.5827067 0.81138736 1.8024808 38.5
-1.4688858 0.81283116 1.8077327 39
-1.2533196 0.82248586 1.8052768 96.333336
-1.125608 0.81743407 1.8046426 92.5
-1.0138937 0.79318726 1.8029367 100
-0.67242563 0.78402162 1.8034037 81
-4.8015456 0.93472922 1.8364693 47
-4.7986779 0.98252064 1.820418 51
-4.4775743 0.97477019 1.8429569 31
-2.9773328 0.90907103 1.8162974 79
-2.8038065 0.92471313 1.8019308 68
-2.2679589 0.90325177 1.800563 80
-2.1593366 0.93715769 1.8036014 82
-1.2392232 0.92823827 1.801351 94
-1.12096 0.96151936 1.8019478 87
-0.78459299 0.95856649 1.8028532 89
-0.68955904 1.0076587 1.8000902 85
-4.3041749 1.1307558 1.8187751 77
-4.063777 1.1432831 1.8508862 7
-3.7543583 1.1192858 1.8195318 78
-3.5395014 1.131896 1.816565 83.5
-3.3471744 1.1484196 1.8070484 74
-3.1631656 1.1474936 1.805739 94
-2.9929636 1.1509444 1.8077844 92
-0.41621476 1.0853646 1.8038162 86
-4.8668509 1.3197116 1.8138098 59
-4.5004959 1.2999325 1.8184196 38
-4.2453399 1.3325708 1.8026618 69
-4.1877403 1.2764994 1.8165048 75
-3.954489 1.2878143 1.8143381 70
-4.8751655 1.3742225 1.8036484 60
-4.5477943 1.3593001 1.8124779 40
-4.3667183 1.4971645 1.8030161 45
-4.0676441 1.4664778 1.8085803 74
-3.7997444 1.4335978 1.8077992 86
-3.5792341 1.4362779 1.8071002 81.5
-3.3829005 1.4471641 1.8023452 82
-3.9797165 1.5898904 1.809188 73
-2.3301599 1.5690067 1.8040768 34
-4.9814353 1.7430135 1.8087827 63
-4.5787983 1.6817183 1.8030063 66
-0.20922065 -4.6637464 1.9892336 57
-0.42628571 -4.5584378 2.0170329 8
-0.24678895 -4.5732322 2.005933 41
-0.43620652 -4.3869834 2.0020216 15
-0.46346197 -4.2638836 1.9942282 23
-0.64947253 -4.0892615 1.999384 9
-0.49696895 -4.1698065 1.9929045 32
-0.18457535 -4.1250367 1.9930972 25
-0.65366811 -3.9606574 1.9852618 19
-0.69336402 -3.8304842 1.9754782 35.5
-0.43427995 -3.7866018 1.9819566 16
-0.27563313 -3.7502103 1.9684924 34
-0.14191234 -3.7410512 1.981764 54
-0.64918745 -3.4634562 1.9633273 37
-0.49133834 -3.4607954 1.9635493 56
-0.35394761 -3.4505172 1.9703392 58
-0.67820674 -3.184092 1.9532899 61
-0.53937668 -3.1779737 1.9554785 57
-0.23310967 -3.0345821 1.9599019 55
-0.24422997 -2.9820678 1.9545833 60
