# .PCD v0.7 - Point Cloud Data file format
VERSION 0.7
FIELDS x y z intensity
SIZE 4 4 4 4
TYPE F F F F
COUNT 1 1 1 1
WIDTH 173
HEIGHT 1
VIEWPOINT 0 0 0 1 0 0 0
POINTS 173
DATA ascii
1.1190916 2.4992886 -0.92453653 11.666667
0.69395471 2.6914611 -0.94585693 11
0.97948188 2.6387587 -0.93818891 8
-0.0060597835 2.7106156 -0.9301365 13
0.34651989 2.8032727 -0.95708156 13
-0.088255584 2.930995 -0.93211043 6
0.068478659 2.9620168 -0.95702916 6
0.46907187 3.055866 -0.96614993 10
0.88858193 3.0292094 -0.96014386 11
-0.091372952 3.1632011 -0.9436869 6
1.020431 3.2009978 -0.93044901 0
-0.11809304 3.3369408 -0.9459514 21.666666
0.19380899 3.3286355 -0.98638141 4
2.2485225 -1.9580202 -0.76303387 10
2.5931206 -2.0741286 -0.76129591 5
1.9099844 -1.8471727 -0.76018393 1
2.0286369 -1.8824625 -0.76739031 6.5
1.9795127 -1.7697772 -0.76937717 14
1.7781374 -1.5031633 -0.78913373 4
1.875392 -1.5826991 -0.7769872 9
2.0155365 -1.5652596 -0.78482527 8
2.3026569 -1.6449926 -0.78220361 12
1.7034307 -1.4770976 -0.7807312 4
1.8190811 -1.4467136 -0.78889197 6
2.4177437 -1.4109982 -0.79172301 7
2.0937347 -1.3203636 -0.7967484 5
2.9133482 -1.2859063 -0.78127605 8
2.2155497 -1.1271271 -0.80373746 5
3.0484869 -1.1439853 -0.78370178 8
3.1515412 -1.1255556 -0.79987955 8
2.6098471 -0.9577983 -0.79260486 4
3.2412155 -1.0084993 -0.79272729 5
2.7889526 -0.84732634 -0.79558182 4
2.9216013 -0.82319576 -0.81741053 4
3.4919453 -0.86587757 -0.79692471 1
2.3907435 -0.69900507 -0.80203384 7
2.625891 -0.60701257 -0.80952537 6
3.0465684 -0.73656732 -0.80690366 4
3.332901 -0.62725794 -0.81595057 2.5
2.7263567 -0.56533027 -0.82574528 6
2.9159563 -0.50144935 -0.82032508 4
2.4809771 -0.39479044 -0.81572741 9
2.6112187 -0.34573478 -0.8368935 9
3.0984886 -0.39126113 -0.82677114 5
3.2640781 -0.37453762 -0.82296008 5
2.3624058 -0.20432283 -0.81958878 3
2.785852 -0.28692573 -0.8252604 9
1.2929733 2.1364927 -0.79165441 0
-0.26170069 2.3458381 -0.82396621 43
1.375389 2.2802436 -0.89298993 0
1.6701226 2.3002539 -0.8548919 6
-0.21771184 2.4415958 -0.8174578 41
1.0492742 2.5392389 -0.88889056 67
1.6852599 2.41468 -0.76610082 7
0.98304701 2.6129644 -0.84774184 15.5
-0.11673923 2.8885112 -0.81589633 3
0.19213809 2.9377077 -0.86748987 3
1.6102351 2.919883 -0.82649243 101
1.0981772 3.0846667 -0.86451906 0
-0.016507883 3.2609844 -0.83752078 97
0.075998038 3.2181106 -0.77454686 95.5
0.87922394 3.2841644 -0.75750881 112.5
0.98405331 3.2387569 -0.78553408 120.33334
1.0680461 3.1853509 -0.86477065 22.5
0.58434737 3.4323285 -0.7550962 108
0.83410269 3.3047371 -0.81682462 114
0.51263219 3.4592383 -0.81048244 116
-1.1332062 4.2782712 -0.77871972 48
2.771302 -2.3233712 -0.63945675 70
2.2551439 -2.0701203 -0.64044267 26
1.748081 -1.803723 -0.67299175 5
1.8442612 -1.8685293 -0.6299718 28
3.0255275 -1.8287991 -0.64692718 87
1.4933025 -1.6982578 -0.62220687 47
1.5236272 -1.7104598 -0.62267125 32
1.6860838 -1.7891186 -0.64801258 39
3.1039917 -1.6789384 -0.61275965 105
2.4727545 -1.6470184 -0.74499339 15
3.124131 -1.6339117 -0.68944389 34
1.025916 -1.4686732 -0.61753726 1
3.2293181 -1.4241958 -0.64504647 99
3.390578 -1.1018817 -0.63607037 89
3.4942977 -0.89323562 -0.69874448 52
3.6173179 -0.67140961 -0.65039182 97
3.564132 -0.4388344 -0.68647236 33
3.4543891 -0.21046142 -0.70963639 75
1.100316 1.7666212 -0.63990766 5
1.1240849 1.8721184 -0.62783867 2.6666667
1.17186 1.953035 -0.69208211 2
-0.61304528 2.2267251 -0.63003117 80
-0.5273369 2.1844552 -0.67277592 84
-0.3946588 2.1570368 -0.68695682 70.666664
-0.31366515 2.2612829 -0.66390514 47
-0.2795561 2.3252199 -0.66171551 42
-0.18670361 2.5475874 -0.60022116 5
1.1053631 2.5094986 -0.68350685 33.5
0.95681101 2.660588 -0.62090898 4
1.5971689 2.8440335 -0.70584947 98.5
1.5821126 2.9140434 -0.64158988 126.5
1.7012235 2.8615143 -0.69718403 19.333334
0.67435718 3.3896046 -0.66455555 116.66666
0.79355025 3.3354533 -0.66366738 113.66666
0.35046521 3.5465722 -0.65123188 95
1.9419808 -1.9075093 -0.4919689 27
3.013442 -1.8438902 -0.57691097 87.5
1.611587 -1.7472576 -0.50227708 28
2.3954468 -1.7236239 -0.45888597 8
2.406152 -1.7091656 -0.51683688 9
3.0776677 -1.7284124 -0.53056955 101.5
1.2801545 -1.5821515 -0.52856213 41.333332
1.3824048 -1.6350362 -0.57787454 41
2.5151191 -1.6127024 -0.48991412 7
3.1707845 -1.5658542 -0.57935715 96
1.0384382 -1.4692272 -0.48046347 6
1.1004984 -1.4965072 -0.50467366 41.5
3.1933994 -1.4993426 -0.49570534 94
0.57527781 -1.2322545 -0.45828816 2
0.75235599 -1.3141588 -0.52433628 15
3.2920573 -1.3041977 -0.56869298 93
3.3064795 -1.2615416 -0.47041261 97
3.4106841 -1.0729431 -0.53467619 102
3.5024643 -0.87463272 -0.5940941 89
3.591625 -0.73097342 -0.49160185 100
3.6805317 -0.50341892 -0.54304612 68
3.4770639 -0.40116477 -0.54651374 34
3.4081695 -0.2847372 -0.45988899 89
0.855488 1.2521094 -0.47801507 2
-0.70271629 1.6110576 -0.45371792 2
-0.49667257 1.6317316 -0.49541697 1
-0.54976445 1.7247494 -0.47366002 35.25
-0.43231931 1.7497989 -0.50229651 0
-0.6507951 1.8155942 -0.5308286 13.5
-0.37212002 1.8645738 -0.47582316 22
-0.67539799 2.023021 -0.55296457 9
-0.50069201 2.1557162 -0.56341028 79
-0.4076634 2.1559582 -0.53599489 64.75
-0.69776231 2.2577639 -0.58389449 58
-0.29370642 2.2994618 -0.47216746 40
1.1717776 2.5362575 -0.55251473 7
1.2161953 2.5347562 -0.53497332 3
1.7052097 2.4455359 -0.50690836 7
1.0021005 2.6145983 -0.53287756 46
1.0885253 2.6386027 -0.45918596 118.5
0.040022075 2.8182335 -0.4736793 1.5
1.0700265 2.7666068 -0.45044416 159
1.2459517 2.8069825 -0.50727659 155
1.5125039 2.9790068 -0.5980798 15
1.0223372 3.2224531 -0.5168677 105
0.56692755 3.4488912 -0.49039918 123
0.61860168 3.4243879 -0.56302297 114.5
0.43919837 3.5158973 -0.46324977 116
0.48038539 3.4847717 -0.54668528 115
2.8254621 -2.2337892 -0.44622585 102
2.3821123 -1.753474 -0.41869545 7.5
3.0924492 -1.6893871 -0.41683754 100
1.1981155 -1.5382469 -0.4104715 39
1.012713 -1.459729 -0.41598657 1
3.2159896 -1.4475591 -0.40299094 101
0.76409954 -1.2994452 -0.41306743 16.333334
0.42244804 -1.1520991 -0.40246341 3
3.4671857 -0.94191611 -0.43141511 92
3.6772037 -0.54835892 -0.42978144 97.5
0.85926157 1.2554206 -0.42995769 3
-0.68281823 1.6051774 -0.42589414 63.125
-0.56324548 1.6265453 -0.41589507 49
-0.52527565 1.70277 -0.42831695 55
1.0298215 2.6180332 -0.43545318 83
1.771148 2.8643587 -0.42055497 12
1.1931243 3.1473784 -0.41487756 106
1.0928947 3.1884272 -0.42492938 103
0.22550611 3.3751335 -0.42219937 15.5
0.80873936 3.3310819 -0.41824698 99
0.36735421 3.5437672 -0.41130096 109.5
