# .PCD v0.7 - Point Cloud Data file format
VERSION 0.7
FIELDS x y z intensity
SIZE 4 4 4 4
TYPE F F F F
COUNT 1 1 1 1
WIDTH 1561
HEIGHT 1
VIEWPOINT 0 0 0 1 0 0 0
POINTS 1561
DATA ascii
-0.48100442 -1.6578639 -0.1774496 18
-0.35350442 -1.6616329 -0.19399214 18
-0.26316318 -1.6567559 -0.19271027 153
-0.35063761 -1.6342129 -0.17194477 47.799999
-0.17140257 -1.6183254 -0.15949085 18
-0.096429765 -1.6093464 -0.16701831 70
0.029571902 -1.5818835 -0.19132939 14
-0.49410179 -1.0926555 -0.17686941 10
-0.61441183 -0.94807607 -0.16278827 10.5
-0.55274659 -0.98504514 -0.17179796 8.8999996
0.01825821 -0.56882977 -0.17981419 4.5
0.23748326 -0.5695169 -0.16657443 4.3333335
0.36225072 -0.56211549 -0.18322052 4.3333335
0.5046258 -0.55073762 -0.18433201 3
0.6652295 -0.54273593 -0.18765625 2.5
0.78522962 -0.52871746 -0.15331492 1
0.94013041 -0.52066135 -0.16206525 1
1.3822383 -0.48773438 -0.1733885 29
1.7212381 -0.46056104 -0.17409249 21
2.2526867 -0.42474365 -0.16708677 20
3.2810769 -0.22662736 -0.17487869 90
3.2708943 -0.09438546 -0.19130296 90
3.2470808 0.25897315 -0.18826434 101
3.2325225 0.44678509 -0.19233985 101
-0.10276078 0.5077101 -0.1721482 2.5
3.2293169 0.46031857 -0.17066102 97
-0.11177615 0.69222772 -0.18544205 0.60000002
3.2180309 0.64791727 -0.16675937 103.5
-0.11901359 0.80108982 -0.17968334 0
3.1962278 0.85802764 -0.16216719 95
1.1997344 1.1865416 -0.17344514 5
3.1787262 1.1102226 -0.19874406 94
-0.15915556 1.2229853 -0.17565735 4
3.1634412 1.315043 -0.15710196 92
-0.21038128 1.4107298 -0.1814056 1
1.7908583 1.7330617 -0.15332231 27
3.149657 1.6814125 -0.18830545 109
2.7821016 1.9058999 -0.1968423 90
-0.2906372 2.426851 -0.18840934 3
1.9857283 2.8067403 -0.19435148 32
-1.2330457 3.5135696 -0.17173404 103.66666
-1.1900849 3.5080633 -0.1925841 101
-0.48271385 3.5704045 -0.17911386 107
-0.35785538 3.5731406 -0.17601964 101.5
-0.46803266 -1.6527375 -0.085264839 18
-0.36661023 -1.6500033 -0.038273994 19
-0.49418101 -1.6154308 -0.095188916 14.666667
-0.38808107 -1.627266 -0.094375812 71.375
-0.22717804 -1.6168048 -0.063795917 71.181816
-0.099614628 -1.6096644 -0.12574758 28.5
0.1012353 -1.5626855 -0.050458159 12.666667
-0.76851773 -1.112602 -0.024724934 7
-0.71774799 -1.0763946 -0.057277873 10.333333
-0.48179334 -1.0900865 -0.084959865 8.8999996
-0.43964043 -1.1135731 -0.021042919 0
-0.63641798 -0.98806614 -0.080393232 7.75
-0.55448151 -0.98259419 -0.081922084 10.388889
0.040015817 -0.58197051 -0.093171954 10
0.22848378 -0.56477559 -0.052742824 4.3333335
0.36938071 -0.5570724 -0.063553646 4.5263157
0.51278543 -0.55050337 -0.058938693 3.5294118
0.67720491 -0.53835344 -0.062558733 1.5882353
0.83905196 -0.52274793 -0.053601447 0.81818181
0.99110079 -0.50908762 -0.061593369 5
1.0556829 -0.50649023 -0.00049219013 9
1.4391912 -0.47922966 -0.059394609 28.5
1.7708974 -0.45463851 -0.070380531 25
1.8213341 -0.45318094 -0.11603487 26
0.87902731 -0.40078068 -0.13314073 0
1.8091006 -0.44798037 -0.014753227 20
2.2423337 -0.41728097 -0.0079344558 26
2.3351941 -0.41720873 -0.080280326 20.5
3.1289668 -0.35992309 -0.083809838 16.5
3.2757678 -0.34744969 -0.041393761 73
3.2748358 -0.1771263 -0.036020491 87
3.2727821 -0.14984483 -0.064951815 95
2.7672949 0.025166132 -0.10577052 52.5
3.2498071 0.2282346 -0.076895393 91.5
-0.10130288 0.44776022 -0.12760821 1.5
3.2326779 0.42468607 -0.077161334 96.5
-0.10493917 0.54053736 -0.089758076 1.3636364
-0.11121441 0.6792469 -0.072616003 0.2857143
3.2178717 0.62246138 -0.067134269 97.5
-0.12003845 0.83003551 -0.10969267 0
3.2041309 0.8246479 -0.074481852 95.333336
-0.13138343 0.96457559 -0.11731107 0
3.1903224 1.0069044 -0.061935045 94.5
3.1843424 1.0602401 -0.071587831 97.5
-0.14962092 1.2494869 -0.0026400434 0
1.5467309 1.3224955 -0.052482869 3.6666667
3.1644082 1.2409875 -0.075001277 100
-0.21502048 1.4179703 -0.0978911 2
3.1574345 1.3950626 -0.010529314 93
3.1491156 1.5240066 -0.10440544 90
3.1551936 1.5032814 -0.041612748 98
-0.20565391 1.6889164 -0.10534368 1
2.7922654 1.7511618 -0.073948346 85.5
3.037436 1.690927 -0.052702341 36
-0.22105841 1.8637962 -0.030568516 0
1.2417151 1.8498282 -0.12044645 5
1.4455204 1.85764 -0.11221952 11
2.0773711 2.0798576 -0.1359152 38
2.7797151 1.9503427 -0.065880395 86
2.0229263 2.1372702 -0.14691663 29
-0.24405056 2.2555468 -0.082278498 0
-0.98948193 2.749831 -0.10884994 9.666667
2.0139124 2.8060257 -0.10331363 32
-0.92383522 2.9351487 -0.10726652 20
-0.89660156 2.980721 -0.10675318 23
-0.64138466 2.9954817 -0.032325689 150
-0.89192641 3.0465453 -0.12498043 9
-0.55091256 3.0949116 -0.047715608 37
-0.65227151 3.215627 -0.091386259 74.333336
2.8062444 3.3427575 -0.056173686 8
-1.46131 3.5347323 -0.11748124 17
-1.2415977 3.5090423 -0.13045333 48
-1.1863456 3.5177987 -0.13858296 74
-0.97240257 3.5334466 -0.14901225 97
-0.34221584 3.5564456 -0.13646385 88
-0.49047452 3.6039016 -0.11285634 150
-1.5270891 3.8027446 -0.026346847 19.333334
-1.4851383 3.787113 -0.058330569 30
-1.1488585 3.7907858 -0.046148364 107
-0.52120048 3.8905225 -0.024843996 8
-0.37090006 -1.8799887 0.11215532 73.5
-0.46783933 -1.6595547 0.025580907 152
-0.36504182 -1.6865047 0.051840082 151.33333
-0.057279039 -1.741676 0.12316547 48
-0.35161066 -1.6126831 0.018214667 69.5
-0.032225844 -1.6288655 0.022659803 105.5
0.065125898 -1.5537179 0.052499332 11.666667
-0.79528731 -1.1225123 0.073333874 7.4000001
-0.72413188 -1.0642196 0.048535433 8.833333
-0.48349175 -1.0867559 0.037665792 8.8000002
-0.64881861 -1.0299699 0.094853476 8.8000002
-0.54282391 -0.99900138 0.046398617 9.1999998
0.034771677 -0.57374728 0.080057025 6
0.23742217 -0.55875528 0.065127641 3.7037036
0.37349784 -0.55219489 0.048950359 4
0.53296006 -0.5491966 0.049519934 3.0714285
0.67081249 -0.53462428 0.056303274 1.5
0.81643021 -0.52100903 0.053875141 1
0.97452915 -0.50744504 0.068252154 5.875
1.0752513 -0.49893975 0.053856365 4.5
1.4230759 -0.47708797 0.091101214 18.4
1.554464 -0.46776327 0.058859084 25.666666
1.731674 -0.45535609 0.022117609 25
-0.96636647 -0.33410001 0.11344193 4
0.83639938 -0.39655286 0.021995271 0
1.7509949 -0.44479081 0.0876114 25
1.8391519 -0.44484696 0.092442125 21.333334
2.1922731 -0.42120016 0.071491458 21.5
2.3224936 -0.4088372 0.096488684 19.666666
2.9971962 -0.35971254 0.060201462 17
3.0792105 -0.35303247 0.098756634 15
-1.0031701 -0.20217746 0.077465512 0
3.2738106 -0.19476983 0.08251632 83
-1.0532323 -0.071689166 0.12912636 0
-1.0196341 -0.038252924 0.10018846 0
2.7595961 -0.014920036 0.032699089 52.333332
-0.98952889 0.023649609 0.11557169 0
2.7526097 0.021542612 0.13192201 51
3.2485402 0.17249613 0.08182165 89.333336
3.2350569 0.35937056 0.079003863 91.666664
-0.10516721 0.52409536 0.083570421 0
3.2257128 0.54737735 0.085277058 91.333336
-0.10670614 0.68750083 0.076212235 0
3.2102175 0.73413622 0.068571217 90
-0.12273572 0.84534532 0.036839895 0
3.1912651 0.92349195 0.090407886 87.5
1.2146573 1.140602 0.045056112 2.5
1.3849542 1.1905811 0.13730061 3
3.1766951 1.117583 0.12111245 92.5
-0.15639906 1.2634567 0.060797926 0
1.4700147 1.2741787 0.055528693 4
1.5724101 1.3003187 0.067314439 2
3.1722643 1.2613307 0.056773156 94
3.1606305 1.4460752 0.068666287 99
3.1452429 1.610883 0.071039967 92.5
2.8031859 1.7235632 0.084749334 65.5
2.9186757 1.686136 0.079239689 40
3.0802531 1.6977545 0.013398315 58
2.7824116 1.8110222 0.12895727 82
1.3133645 2.0476489 0.074093603 4
2.7679644 1.9817435 0.099319518 86.5
2.7420614 2.4274266 0.12104397 71
-0.78997958 2.8442299 0.0079053594 25
-0.81857049 2.9676304 0.11605346 49.5
-0.68862981 2.924886 0.044700757 64.666664
3.0566835 2.9636257 0.051467832 70
-0.82226449 3.0535686 0.065169923 7
-0.64397883 3.0548441 0.080488645 100
3.0396812 3.1146812 0.063777052 77
3.0280366 3.2635796 0.065760396 67
3.0245674 3.4247935 0.071546786 67
-1.7498645 3.7221467 0.14854771 59
-1.7485166 3.7643597 0.12631887 6
-1.5273284 3.8027506 0.01280489 17.5
-1.4379221 3.7862816 0.11482758 62.666668
-1.2940184 3.7902727 0.10198227 102.33334
-0.93747741 3.8065419 0.033014949 150
1.1017556 -3.9984529 0.26239002 62
0.76180893 -3.4631822 0.20319355 6
-1.3530505 -2.0681729 0.26483649 64
-1.2637538 -2.0679452 0.21497092 67.5
-0.50665683 -2.0019581 0.19252324 12
-1.3665212 -1.9057477 0.22929648 23.5
-0.4782066 -1.9012907 0.17783064 37
-0.4305701 -1.8913536 0.17344008 44.666668
-1.4657279 -1.7914764 0.27204806 41
-0.2122453 -1.7437789 0.23358659 50
-0.077741481 -1.7432613 0.22367018 47
-0.79700363 -1.1178136 0.22093868 19.875
-0.66523653 -1.0511438 0.20979066 8.333333
-0.50984025 -1.1082747 0.24532017 8
-0.68087912 -1.0469986 0.20815895 7.6666665
-0.56610596 -1.0272479 0.21646091 5.5
-1.0683606 -0.55576444 0.27395344 0
-1.0441759 -0.49506223 0.23381922 1.5
0.031169305 -0.5728547 0.17399608 3
1.0426887 -0.49332777 0.16906634 10
1.052983 -0.49371192 0.16630816 7
1.4378871 -0.46753559 0.22751349 27.333334
1.5530026 -0.46355116 0.1797657 24
-1.1214463 -0.35633418 0.28410605 0
-1.0102515 -0.42171702 0.17141095 1.5
1.7463523 -0.44603536 0.19107035 24.5
1.886791 -0.43738279 0.23783004 19.5
2.0498703 -0.43049923 0.15459794 18
2.2057858 -0.41292673 0.19116837 21.5
2.3164902 -0.41061601 0.20142305 19
2.6605895 -0.38282108 0.24364704 20
2.8305817 -0.36041534 0.26473624 16
2.919323 -0.36283135 0.17572814 16.666666
3.2699301 -0.34342656 0.25350475 49
-1.2656151 -0.15584639 0.28110278 0.5
-1.1170583 -0.22902596 0.21132398 0
-1.0344539 -0.29449573 0.17836729 1.5
3.2748892 -0.20478955 0.20991167 82.5
-1.0679895 -0.041811485 0.19217686 0
2.7526977 -0.01523306 0.21356016 55
3.2211559 -0.049173787 0.19232884 150
-1.0306978 0.036837634 0.22292213 0
3.2522678 0.11358596 0.21957143 85.666664
3.2406013 0.25018349 0.22614069 87.800003
3.2325304 0.37155408 0.24347177 86
-0.098830923 0.52765363 0.18178385 0
3.2229018 0.50306427 0.23002052 85.199997
-0.098644622 0.61873883 0.21809614 0
3.2122376 0.68068695 0.18091638 90.666664
-0.13351072 0.89656895 0.27101207 0
3.2054417 0.81305093 0.21635328 88
-0.1317542 1.0387647 0.19654417 0
3.1880367 0.98169881 0.22938037 88
3.1749511 1.1304033 0.22856855 100
-0.16065927 1.2373618 0.29267037 1
1.2821659 1.2348466 0.2154931 1.6666666
1.4131303 1.2300724 0.24919251 1.75
3.1676626 1.2866379 0.22948426 89.333336
-1.5391369 1.4416229 0.16456515 2
3.1609712 1.4089543 0.25053358 91
3.1496158 1.5237722 0.17590463 92
3.1523483 1.5692992 0.27243868 93
-0.20389469 1.7272314 0.26973927 1
2.7867522 1.7525965 0.21095312 86
2.8626385 1.6860399 0.29302257 33
3.099474 1.6986897 0.18922877 68
-0.21577704 1.8359816 0.22613978 0
2.788892 1.8833383 0.18418336 85
2.769609 1.9813776 0.23988375 84
2.7427559 2.4407265 0.25379932 76
-0.95710921 2.8396959 0.16703516 2
-0.83098543 2.767252 0.15614945 7
-1.6191114 2.873471 0.24958473 0
-0.80111092 2.8788841 0.17215228 10
-0.58452654 2.9562526 0.28509146 86
3.0457706 2.9826405 0.15800905 72
-0.59414202 3.1860735 0.25488847 27
3.0370502 3.3015213 0.16474622 70
-0.40497464 3.5650642 0.18994546 2
3.0186234 3.45996 0.19180036 68
-1.9852695 3.6997328 0.25877589 83
-1.7341881 3.7264798 0.2213759 87
-1.567252 3.7380791 0.26576629 91.333336
-1.4757378 3.7363441 0.20812139 90
-0.42273191 3.6031146 0.28004682 28
3.0061932 3.6433897 0.25367394 69
-1.1799803 3.803916 0.22701111 106
2.9845085 3.8286784 0.23231772 68.5
1.0763305 -3.998493 0.3864246 67
-1.4290361 -2.0624087 0.39865348 87.375
-1.2935035 -2.0654547 0.35207731 70.5
-0.50967717 -2.0159357 0.35782757 45.5
-0.36653438 -2.0020294 0.39091492 75
-0.28471059 -1.9961007 0.38438901 78.5
-1.5724674 -1.8988787 0.39620605 117.33334
-1.4418225 -1.8914008 0.33695951 76
-0.21487848 -1.7103139 0.34468436 45.333332
-0.09238527 -1.7068869 0.37408781 30.333334
0.0028602898 -1.7142498 0.38406229 12
0.10581563 -1.5367069 0.35097551 1.3333334
-0.86460418 -1.2033932 0.32576913 7
-0.90119272 -1.1517376 0.35418248 6
-0.84976679 -1.1441356 0.35809669 14.5
-0.68316478 -1.0623828 0.34805489 6.3333335
-0.53199512 -1.0930703 0.34153828 7.875
-0.43491924 -1.0819827 0.35718238 4
-0.85880685 -1.0383836 0.3969419 6
-0.61981237 -1.0402529 0.37958771 7
-0.65520221 -0.89139676 0.41899514 5
-1.105305 -0.52710247 0.37520626 2.375
-1.120788 -0.37087426 0.37843418 0
1.619437 -0.44774371 0.38825256 23
1.7022318 -0.44529316 0.30979529 25
2.0542555 -0.41980553 0.38710412 18.5
2.1131845 -0.41383731 0.36782762 21
2.3083632 -0.40680557 0.3160919 19
2.4346213 -0.39576393 0.34286481 20
2.6826675 -0.36694574 0.43524307 19
2.8949354 -0.36110342 0.34266102 14
3.0870669 -0.35285774 0.32036161 13
-1.2814804 -0.19810942 0.3925423 2.2857144
-1.1753476 -0.26638445 0.36222243 0
3.2767847 -0.23266365 0.34752351 78.5
-1.2980243 -0.13898361 0.34851345 4.6666665
2.7459216 -0.012277171 0.3476401 41
2.9587264 -0.032907009 0.39771861 154
3.2670333 -0.070601992 0.33495045 78.666664
2.7546482 0.042558495 0.40770841 40
3.2304807 0.10795744 0.33832794 115
3.2454579 0.23642249 0.37784401 81
3.2354279 0.35043815 0.40807638 79
3.2224991 0.51491159 0.38568696 79.333336
3.2112122 0.6804896 0.36134696 88.199997
3.1996231 0.84695238 0.35177031 88.666664
3.1845682 0.9776594 0.39939323 88.333336
1.4047685 1.1898503 0.30344069 0
3.1781385 1.1261084 0.35389671 90
-0.16316462 1.2556843 0.360154 1
3.1725807 1.2377 0.40459642 93
-1.5849067 1.4157466 0.38795319 3.0999999
-1.4597081 1.3915862 0.36621112 6
3.1609895 1.3685491 0.36178702 87
-1.5574824 1.5657793 0.3564682 2
-1.4755499 1.5520616 0.31857684 3.5
3.1443844 1.5647652 0.4253321 87.5
3.1505208 1.5364672 0.34015042 95
-1.4937689 1.6729531 0.31897432 2
2.7907321 1.7633939 0.37679499 88
3.0686035 1.7029531 0.3534348 44
2.7831776 1.8554715 0.33873075 81
-0.23006211 1.95788 0.35288203 0
2.7673225 2.0008085 0.37656578 66.666664
2.7397428 2.4456882 0.35877919 83.5
3.045229 2.9756494 0.37091222 64
-0.78463119 3.1158478 0.36546344 45
-0.61032724 3.1291003 0.39050663 24
-0.53984928 3.0758023 0.41337729 32.5
-0.44088879 3.0306652 0.40119982 34
-0.66093725 3.2058363 0.44451475 57
-0.39084521 3.2453926 0.32930213 52.333332
-0.48390353 3.3934531 0.33407426 34
-0.43556091 3.4078307 0.3177588 57
-0.25967136 3.3742921 0.35170019 20
3.0304644 3.3178062 0.31652576 66
-2.2999129 3.6846135 0.39199498 84.333336
-2.0126624 3.7034519 0.34108889 51.400002
-1.8139079 3.7212706 0.43344456 75
-1.7390062 3.7268765 0.38572344 88
-1.4177198 3.7494795 0.32395923 92
-1.4134675 3.7598064 0.42540926 93
-1.1386567 3.8146124 0.39314824 99.5
2.9862895 3.8305004 0.34240466 66
2.9702005 3.9972131 0.37707919 69
2.9096317 4.1095953 0.4040826 0
0.98164016 -3.8054008 0.45264417 44
0.87605351 -3.5662479 0.49199015 43
-1.8717827 -2.1008508 0.4911474 83
-1.830261 -2.0463195 0.49844062 150
-1.783143 -2.0874779 0.55724829 31
-1.6039612 -2.0639887 0.53883082 104.5
-1.4051956 -2.0379949 0.52920318 110
-1.2887883 -2.0655317 0.51711762 76.5
-0.49058992 -2.0052137 0.51121736 71
-0.35746387 -1.9945152 0.55425 68.5
-0.29372659 -1.9900622 0.49480489 71
-1.9541346 -1.9195911 0.53584254 154
-1.9378394 -1.9014152 0.55720878 155
-1.717186 -1.8680894 0.54192001 150.25
-1.5454336 -1.8674629 0.50718153 117.8
-1.4127302 -1.9075655 0.46352056 45
0.031275611 -1.8444778 0.57215011 51
-1.5844395 -1.7765329 0.52784836 54.25
-0.17239718 -1.7307609 0.49121451 6
-0.11022298 -1.7195734 0.56209624 5
0.081084564 -1.5230476 0.55188465 2
-0.83497339 -1.1377441 0.45639908 21
-0.69911891 -1.0694145 0.50842893 5.5999999
-0.55391192 -1.0632238 0.53141022 5.5
-0.65989566 -0.87774318 0.46304476 4
-1.091632 -0.5134275 0.50597626 4.25
-1.1272162 -0.37501326 0.4936803 0
1.9355898 -0.42463356 0.47803992 18
2.5126827 -0.38370758 0.50129777 19
2.6049993 -0.37178135 0.53673398 19
3.017422 -0.35088748 0.4564203 14
3.2207599 -0.33760461 0.50163907 18
-1.2737743 -0.20654517 0.52010924 2.1666667
-1.1957223 -0.29668811 0.55071455 0
2.4265363 -0.17841828 0.58595741 31
2.8286994 -0.28977534 0.56488472 33
2.9011877 -0.26923904 0.57471174 111
3.2739639 -0.21796371 0.51222962 77.333336
2.7179306 -0.022742877 0.49087292 39
3.2424569 -0.10825113 0.53575683 97
2.7635117 0.04255046 0.52004319 45.666668
3.2470767 0.1359622 0.45161736 82
2.4609482 0.15366699 0.5684604 93
3.048147 0.16490936 0.57207769 104
3.2425044 0.21401867 0.52391487 75
3.2278175 0.37455529 0.52555984 75
3.2175684 0.5067175 0.49272633 79.5
3.2118907 0.67539239 0.51019526 83
3.1952155 0.83934516 0.51054269 84
-0.13431713 0.91801947 0.55343866 0
3.1868269 1.0037531 0.50640923 83.5
3.1758606 1.183569 0.52355176 85
3.1605911 1.2473161 0.48105192 77
3.1452785 1.4185299 0.53010714 83
3.1616735 1.401113 0.50658822 85.75
-0.1988667 1.6445186 0.57145578 1
3.1411896 1.6003788 0.5917688 81
3.1513288 1.6101085 0.54067385 105
2.7948654 1.7521048 0.50419641 66.333336
2.9423966 1.6942562 0.52040017 38
3.0831447 1.6791856 0.48960826 65.5
2.7811654 1.8686744 0.58729637 83
2.7701504 1.9652433 0.53871536 79
2.7442198 2.4299588 0.49670488 75
3.0560477 2.8483059 0.5592978 65
-0.78004318 2.9288976 0.50879669 34.333332
-0.73528713 2.9494178 0.51675749 31
3.0443661 2.9756663 0.56288898 68.5
-0.98562741 3.1303279 0.58309609 92
-0.79114801 3.1426408 0.45153898 150
-0.68666792 3.0807414 0.55031139 80
-0.62854958 3.1734166 0.51954174 38
3.0210342 3.2753625 0.52090865 61
-2.6026793 3.669044 0.54452288 76.5
-2.2779338 3.6872613 0.52280408 74.333336
-1.9981394 3.7134769 0.55787814 63
-1.8774467 3.7211649 0.4612523 73
-1.6675639 3.7384019 0.53487289 80
2.9924333 3.6592975 0.49739671 67
-1.4066772 3.7804267 0.51589572 94.5
-1.2911994 3.8087621 0.50753176 90
-1.1934062 3.8119526 0.49401838 98
-1.9150592 -1.9706171 0.67703176 150
-1.5727377 -2.0498283 0.68823636 103.5
-1.4191372 -2.0484753 0.65512764 93
-0.53226459 -2.0029893 0.67303675 57.400002
-0.42576465 -1.9938835 0.63920122 71
-1.8598061 -1.9265774 0.66978902 151
-1.5522177 -1.8604522 0.66996264 153
-1.417457 -1.8853606 0.67527658 113.33334
-0.25047791 -1.8821306 0.60189229 2
0.018285891 -1.8652238 0.65186363 24.666666
-1.6757842 -1.7961777 0.66060817 155
-1.5510032 -1.7559748 0.65400106 42.599998
-1.409948 -1.7916924 0.67654943 39
-0.1859117 -1.7254114 0.71418327 6
-0.10370431 -1.7012428 0.63960278 8.666667
0.063698143 -1.5533596 0.69218445 15.5
-0.64798784 -1.0937783 0.66120011 5
-0.69045627 -1.0056884 0.72503966 34.200001
-1.2334094 -0.30104986 0.63494515 8
-1.1201469 -0.34484076 0.68860769 5.8333335
2.3531835 -0.38953641 0.60163456 18
-1.2874668 -0.21464686 0.60626823 1
-1.1191477 -0.2725077 0.67690921 6
3.2007289 -0.22967985 0.68128026 129.5
2.8173635 -0.074349105 0.70113099 34
3.2183285 -0.1393051 0.6756584 62
2.5657353 0.044595592 0.60756618 150
2.9275799 0.13842346 0.61421102 42
2.698658 0.29202509 0.64617181 19
3.2050376 0.29120511 0.64944768 115
3.2258358 0.40801653 0.6464265 71.666664
3.2129071 0.56241697 0.65257937 76.333336
3.2029371 0.69905138 0.69284517 74.5
-0.13179161 0.89070421 0.65790027 0.66666669
3.2029552 0.78701031 0.63705206 80.5
-0.12234513 0.91321826 0.73720026 1
3.1840851 0.97717547 0.64312774 78
3.1707439 1.144815 0.6777541 78
-0.16712174 1.2671939 0.63868165 1
3.1646478 1.2658473 0.68534958 86
3.1584232 1.3951726 0.68497449 85
3.1512291 1.5584399 0.63630432 94
-0.20552552 1.7353296 0.67912638 0.5
2.7822609 1.7631698 0.67113 80
2.9829504 1.706709 0.61756206 36
3.0503113 1.7078862 0.68337411 41.333332
-0.2205061 1.8829653 0.71213651 2
2.7817543 1.8240892 0.62137341 81
2.7665467 1.9973733 0.69625854 67
3.0576904 2.8238177 0.69515955 63
-0.79113877 2.9569397 0.63474894 31
3.0407159 2.9766872 0.70265555 65
-1.1951641 3.1208246 0.63695848 10
-0.99601316 3.0883703 0.72456402 31.5
-0.8742224 3.0956523 0.69672489 50
3.0319221 3.1325786 0.70254266 62
-0.9753896 3.1672416 0.70236582 108.5
3.0258565 3.2635665 0.71430272 66.5
-2.5778794 3.6725433 0.66872865 64.166664
-2.1739168 3.704319 0.66003698 64.333336
-2.0817153 3.7098689 0.60820681 69
-1.9432127 3.7246461 0.65029347 62
-1.6546522 3.7437646 0.68492186 79
2.9999268 3.6228561 0.62878633 63
-1.5918605 3.7545245 0.68641692 69
-1.4430923 3.7674263 0.64307427 87.666664
-1.1292747 3.8171937 0.68026721 150
2.9625797 4.0445476 0.71408868 61
-2.4144638 -2.1338568 0.80035937 58.5
-2.3125854 -2.1302848 0.860057 62
-2.1654696 -2.1201477 0.82606506 60
-2.0816131 -2.1054647 0.83128226 79
-0.53167021 -2.009172 0.81626552 36.5
-0.36852905 -1.9976622 0.81962425 41
-0.29010648 -1.9963548 0.75537741 55
-1.8648872 -1.8522112 0.78423542 94.5
-1.7960306 -1.925674 0.84382451 150
-1.6028398 -1.8017783 0.78976154 158
-1.4545224 -1.8885231 0.85835725 151.5
-1.3475486 -1.931447 0.85570467 150
-0.20561293 -1.7492884 0.77110589 3
0.075904042 -1.5889372 0.80597156 11.5
-0.6221599 -1.0754033 0.76042414 3
-0.58837974 -1.0560803 0.8576932 2
-0.7942211 -0.97985113 0.83123654 3
-0.69480562 -0.95816004 0.81707644 2.75
-1.1272937 -0.45492995 0.80543423 3
-1.0890175 -0.38125682 0.77249604 3.3333333
-1.0212567 -0.36510122 0.81972682 0.75
2.9458871 -0.33858478 0.78227544 18
-1.2005014 -0.2422432 0.81913006 2
-1.1143117 -0.26124975 0.8014639 1.25
3.2141671 0.49239951 0.81964576 68
3.209872 0.63951623 0.83057117 67
3.1893682 0.84192204 0.80854189 65.5
3.1794229 0.99414688 0.83645391 70.5
3.1743591 1.0938351 0.8971349 74
3.1632524 1.2610948 0.80923378 79
3.1572423 1.4313276 0.86399043 80
3.1517458 1.5965695 0.77860719 91
2.807097 1.7164795 0.83531749 46.5
2.8790011 1.6944722 0.75775099 28
3.11412 1.7257909 0.83746827 48
2.7756119 1.8937703 0.84030348 72.333336
2.7686863 1.9911984 0.81760454 74
2.7550378 2.150825 0.85159683 23.5
2.7414651 2.4276166 0.87855768 64
3.0475214 2.9321361 0.82012385 60.5
3.0390453 3.120991 0.82850993 65
3.0281646 3.2845466 0.85533631 60
-0.23693106 3.404722 0.85581028 5
-0.10205937 3.4132113 0.81249678 6.5
3.0095487 3.4395552 0.86966813 63
2.9964323 3.5515361 0.82038689 65.5
-2.9046257 3.6560204 0.83680582 59
-2.5630078 3.6729851 0.77134585 62.5
-2.4839888 3.684314 0.87106377 64.5
-2.3668392 3.6891499 0.79092985 61.333332
-2.2264972 3.6983366 0.80417877 63
-1.879773 3.7358766 0.84711254 63.5
-1.711493 3.743495 0.83342123 69.5
2.9988477 3.6039233 0.88926494 67
-1.6462793 3.7513578 0.78512442 83
2.9673445 3.9798729 0.83400428 66
1.0938902 -3.9602084 0.91261035 30
1.1993002 -3.8739772 0.91065574 43
0.80730081 -3.5178719 0.90811044 7.5
0.91742653 -3.5060301 0.92223251 37
-2.423667 -2.1375079 1.0089177 51
-2.3209503 -2.1278734 0.96913791 62.333332
-2.1976833 -2.1190062 0.98291755 55.5
-2.065208 -2.1068063 0.99094379 68
-1.9330133 -2.0773995 0.99623334 111.5
-1.7632366 -2.0226548 0.95772421 150
-1.6282887 -1.9711945 1.0487783 150
-1.4480689 -1.9842348 0.91112256 150
-0.30483639 -1.9690708 1.0106936 54
-0.27660996 -1.968863 0.9710533 57.333332
-1.4141512 -1.9058425 0.93182492 150.5
-0.043965716 -1.9337158 0.96092057 16
0.030467581 -1.9095281 0.95108056 24
0.014756453 -1.6957701 1.0119348 33
0.013542515 -1.629583 0.94493377 23
-0.15882726 1.2854192 1.0469936 0
3.1574514 1.2510695 0.93330383 72
3.1604304 1.4195582 0.98476136 82
3.1473227 1.5893227 1.0404899 82
3.1505272 1.5340626 0.95349312 87
2.7930048 1.7271096 0.99686933 42.5
3.1413107 1.6896459 0.9594 82
2.7733004 1.8520789 0.98119426 68.5
2.7688222 2.0697732 1.0154096 71
2.7581968 2.1830783 0.95649636 67.5
2.7438495 2.3551214 0.95150656 54
2.7440305 2.4712019 0.95403987 86.5
3.0453925 2.8852997 1.0242023 61.5
-0.12945123 3.2950788 0.95732808 0
3.0329456 3.2526827 0.93561244 63
3.0204821 3.4479105 0.98884058 67
-3.3009474 3.6450691 1.0195165 55
-3.2735081 3.6631889 1.0108502 17.5
-2.877754 3.6626146 0.97217935 58.666668
-2.7011483 3.6761434 1.0398651 56
-2.6693792 3.6806788 0.97397822 60
-2.5285096 3.6906047 1.0060115 59
-2.2006633 3.7045565 0.94589996 62
-1.9811869 3.7329059 1.023061 66.5
-1.8934283 3.7349508 0.97033679 76
3.0012102 3.6086316 1.0304813 65
-1.6350452 3.7585423 1.0153857 86
-1.3727596 3.8087842 0.95432663 125
2.9690177 3.9211113 0.956846 61
-2.3661101 -2.1285837 1.1324784 58.5
-2.2138715 -2.1122446 1.1487374 49.5
-2.0428963 -2.1023505 1.082765 58
-2.0545352 -2.0986488 1.1642445 57.5
-1.8711634 -2.083375 1.1511531 51
-1.6769066 -2.0629153 1.1544781 76
-1.5787784 -2.0659852 1.0987993 60.5
-0.39620697 -1.9737343 1.0989915 31
-0.17096598 -1.9802821 1.142538 51
-0.080601186 -1.9774042 1.1434022 68
0.012471688 -1.9696382 1.0909623 84
0.028486829 -1.8400379 1.1394 50
0.12648977 -1.539964 1.1029059 3
-0.20693997 1.6842805 1.0509815 0
3.0349171 1.7141964 1.0647663 34
2.7696581 1.9266741 1.1154491 72
2.7696853 2.0327144 1.1238157 73
2.7533407 2.2258656 1.1418873 58
2.7428994 2.3083105 1.0853319 62
2.7384315 2.4535406 1.0889975 55
3.0515733 2.8196528 1.1739403 60
3.0540419 2.9464417 1.1834905 62
3.0287259 3.1303763 1.1985598 59
3.0305333 3.180366 1.130199 61.5
2.9958048 3.5525775 1.1411613 63
-3.7686505 3.6144938 1.1364092 65
-3.6910999 3.6260617 1.1965611 64
-3.31848 3.6482341 1.0721229 70
-3.2457626 3.6530671 1.117743 22.5
-2.7273743 3.6735075 1.0845698 60
-2.5065172 3.6963065 1.1510419 56
-2.1576967 3.7149212 1.1082329 63.333332
-2.067122 3.723165 1.0670971 62
-1.6182286 3.7649488 1.1256268 86
-1.3789548 3.8099575 1.1281791 85.333336
-1.2813387 3.814846 1.1346649 87.5
-1.1649975 3.8188019 1.0931869 150
-0.44000366 3.7834096 1.1643473 7
2.9774237 3.7993653 1.099529 59.666668
2.9730895 3.9441109 1.104273 62
0.87492567 -3.9991107 1.2631724 14.5
-2.3206835 -2.1187575 1.3193339 39.5
-2.1750426 -2.1111045 1.233779 47
-1.8997389 -2.0807669 1.2991015 24.666666
-1.7440262 -2.0724092 1.2524767 35
-0.50131202 -1.9855235 1.230353 2
-0.35478491 -1.9937898 1.325249 57.5
-0.241124 -1.9891734 1.2593238 53.5
-0.062760152 -1.9664921 1.279236 69
-0.027660808 -1.942718 1.3035913 81.333336
0.012057823 -1.7276859 1.2532316 17
0.10918818 -1.5288111 1.2362357 16
2.7541225 2.1601069 1.2173135 62
2.7459111 2.304301 1.3218806 58
2.7353365 2.4398024 1.2844268 53.333332
3.0518467 2.8893712 1.2765112 58.666668
3.0395312 3.0437212 1.2691169 62
3.0028999 3.4796021 1.2613816 63
-3.6940753 3.6240089 1.2842389 65.666664
-3.0615792 3.669215 1.3312783 66
-2.8928781 3.688765 1.2506845 55
-2.822571 3.672436 1.2022362 61
-2.4494054 3.7057598 1.299539 60.5
-2.3220229 3.7118073 1.2670088 58.5
-2.2425334 3.7163012 1.2047271 63
-1.897468 3.7447701 1.2637854 77.5
-1.5825863 3.7675874 1.3004113 83.666664
-1.4423943 3.782474 1.2898692 83.5
2.9747081 3.9645939 1.237002 64
2.8263099 4.1551633 1.289642 13
2.9486041 4.1233382 1.2865434 76
-2.3756344 -2.1117883 1.4108701 35
-2.1386611 -2.0992939 1.3562058 34
-0.5440982 -2.0028038 1.4751487 54
-0.36746791 -1.9927891 1.4426618 58
-0.21668412 -1.9748205 1.4203458 63
-0.14425731 -1.9502311 1.4443785 63
-0.16576867 -1.9489175 1.440061 56
-0.12272622 -1.945122 1.4271684 69
0.017727386 -1.8049829 1.4418913 20
0.047682717 -1.5505084 1.3908424 3
3.0482137 2.809356 1.36523 55
3.0541658 2.9874468 1.3915561 65
3.0341313 3.1195617 1.4374764 60
3.0241685 3.2494872 1.3880728 61.5
3.0050132 3.3876441 1.4232159 60.333332
-4.2520828 3.5917091 1.3956921 57
-4.1664 3.6039376 1.4577004 59
-3.6461737 3.6214559 1.3626602 27
-3.1704433 3.6650627 1.4479405 67
-2.8404548 3.6852031 1.3771157 57
-2.5884366 3.7109277 1.4579644 67.5
-2.4457653 3.7083268 1.3879611 62
-2.2120421 3.7351592 1.4211264 63
-1.8647993 3.7564011 1.4309496 75
-1.661258 3.7570574 1.4651945 86
-1.648244 3.7593436 1.3746232 73
2.9745703 3.8424892 1.4387779 55
-0.79425621 3.9057856 1.4413798 21
2.9210806 4.1378989 1.3763776 68
-1.6954737 -2.0754862 1.6196288 22
-1.5195897 -2.0667062 1.5651039 21
-1.2892454 -2.0557749 1.6224962 51
-0.783189 -2.0008318 1.5501798 4.3333335
-0.71339065 -1.9994528 1.5825394 28.5
-0.55163282 -1.9985775 1.5980829 53
-0.3737148 -1.987013 1.5611811 58
-0.26471996 -1.9538214 1.5740478 59.5
-0.062497858 -1.9505033 1.5773213 64
-0.22563507 -1.9478346 1.5717863 57
0.02091844 -1.8130898 1.573848 17
0.066430882 -1.561951 1.5860457 4
2.8470073 2.606755 1.5178331 53
3.0460405 2.9626796 1.5922176 59
3.0419824 3.0651236 1.5525887 61
-4.4730368 3.2905712 1.5411402 23
-4.3320608 3.2585497 1.5771079 67
-3.8054786 3.2938566 1.5609332 42
-3.6974356 3.2937508 1.5750657 71
3.0281711 3.2312999 1.5302844 59.5
-3.5304074 3.3129969 1.6068496 72.5
-3.4084828 3.3269432 1.5889167 72
-2.9110985 3.3498006 1.5753529 68
-2.7521138 3.3677521 1.5884595 71
-2.2998276 3.3996019 1.5945234 67
-1.9528377 3.4187751 1.584618 66
-1.904213 3.4264631 1.5952792 59.5
3.0067091 3.4119601 1.5851947 58
-4.1490293 3.5879314 1.5507058 32.333332
-3.9981585 3.530273 1.6058005 29
-3.7128639 3.4863396 1.6000967 18
-2.8248479 3.5711377 1.6128144 16
-1.2062037 3.4757977 1.6203872 87
-1.130114 3.4646444 1.6493374 83
-0.97971141 3.490782 1.6091368 69
-0.12656957 3.5748549 1.6118509 44
2.999598 3.4833217 1.6042492 56
3.0012114 3.5814886 1.6086112 61
-3.1721897 3.620141 1.6028684 46
-2.7577007 3.6860998 1.5659832 49.666668
-2.6599321 3.6938 1.5262035 58
-2.4884293 3.6401119 1.61485 22
-2.1384587 3.7000399 1.5731896 44.5
-1.869422 3.710408 1.5969507 40.666668
-0.98300093 3.7314155 1.648065 36
-0.71242231 3.726918 1.6404549 38
0.29017931 3.6086128 1.5626991 1
2.9852564 3.7244554 1.615643 62
-1.8361775 3.7536023 1.5402361 60
-1.7319567 3.7544131 1.5129616 80
-1.0075684 3.8312035 1.612026 96.5
-0.81500721 3.840133 1.5451345 43.666668
-0.74347293 3.8138912 1.5890573 49
-0.51513237 3.883215 1.5327991 55
0.10759702 3.8876157 1.6156977 7.5
-0.73436856 3.9904072 1.5789211 1
0.25666112 3.9314559 1.618522 12
0.36631197 3.9741886 1.5809903 13
-0.71277583 4.4284549 1.6394776 0
1.2294891 -3.9724059 1.7191237 68
-2.4111068 -2.1196797 1.7629625 5
-1.9071627 -2.0871673 1.7015649 24
-1.7315942 -2.0752633 1.7796739 53
-1.3089435 -2.0561433 1.7651659 47
-0.68892431 -2.0047908 1.7677437 48
-0.55019444 -1.9999534 1.7273566 47
-0.39564982 -1.9635042 1.7108043 62
-0.18363489 -1.9545507 1.7129742 64
-0.33253205 -1.9477386 1.7317567 56.5
-0.066467598 -1.941977 1.7025059 63
0.018823098 -1.7744412 1.721339 16.5
-1.459309 -1.3805423 1.7401906 3
-3.1106768 -0.067149565 1.7917987 7
-2.9256153 -0.021135412 1.7995224 72
-2.7344682 -0.030050796 1.7995738 76
-2.9295259 0.070689768 1.7939308 8
-2.6191847 0.045085575 1.7983352 72
-2.7555351 0.20783153 1.7946181 77
-2.6210115 0.25342903 1.7936698 86
-0.95978242 0.24339622 1.7876071 56.333332
-2.8764839 0.39991558 1.7819197 77
-2.7624054 0.42793185 1.786432 78.5
-2.4679594 0.36585176 1.7947298 75.333336
-2.3370175 0.36336872 1.7982677 86
-2.9324307 0.53562903 1.7815031 77.5
-2.6105344 0.46172097 1.7818738 80
-2.4501255 0.55158246 1.787937 77
-2.3044014 0.54615533 1.7902831 81
-3.3252628 0.65374273 1.7605184 41
-3.1553848 0.67798215 1.771294 84
-3.107585 0.69804108 1.7643036 75
-2.9593058 0.68924826 1.7730047 75.666664
-2.7671146 0.65164411 1.7784144 77.5
-2.6084032 0.67534578 1.7804033 80
-2.4842596 0.66426682 1.7852296 77
-2.2767222 0.72568113 1.7854825 88
-1.9100431 0.67693877 1.7969121 77.5
-1.108748 0.62779629 1.7993284 71
-4.2064681 0.84163463 1.7761205 27
-3.6162136 0.83509672 1.7521273 5
-3.4095945 0.84304804 1.7688257 84
-2.8688636 0.84472907 1.7717112 78
-2.7687852 0.88163555 1.7709318 73.5
-2.5974028 0.89158255 1.7745386 89
-2.4367652 0.8240782 1.7830287 80
-2.3395507 0.76769596 1.7851044 78
-2.0085499 0.81834435 1.793575 46
-1.8839322 0.83802575 1.7965899 85.333336
-0.98910636 0.79295766 1.7988337 76
-0.86135387 0.79256457 1.7987692 72.5
-4.5147247 0.92869997 1.7505034 69
-4.3493762 0.92734748 1.7467977 68
-4.137392 0.93192887 1.7628504 58.5
-3.6290894 0.92177457 1.7646176 64
-3.5432999 0.91589713 1.7559282 73
-3.391691 0.91698265 1.7582653 78.5
-3.2248974 0.91559923 1.7637959 82
-3.1053278 0.96249229 1.7592019 76
-2.9602985 0.93238139 1.7663378 76.333336
-2.4683957 0.91253948 1.7743164 83
-2.3335748 0.97755593 1.7784804 81
-2.0376072 0.9986946 1.7895762 36
-1.873135 0.9922511 1.7944317 83.25
-1.7656845 0.91849673 1.7949115 83
-1.5436555 0.90530264 1.7955364 93
-1.4508884 0.94558132 1.7973317 88
-1.2642871 1.0080937 1.7986649 89
-1.1076354 1.0189588 1.7993835 84
-1.0087945 1.0343852 1.7935928 91
-0.69938654 0.93544668 1.795978 70
-0.5971663 0.99887979 1.7980322 78
-4.1886129 1.1677667 1.7451156 74
-3.8991275 1.148883 1.7539648 81
-3.6517515 1.1293612 1.7594506 94
-3.4658244 1.1928056 1.7504455 72
-3.3663974 1.1399965 1.7569442 81
-3.1489 1.1874322 1.7546545 83
-2.9121797 1.1470882 1.7593082 81
-2.7676671 1.1192222 1.7623073 78.5
-2.5841565 1.1149946 1.7693118 81
-2.4548268 1.0962424 1.7739424 87
-2.2971296 1.1667145 1.7696664 80
-1.831144 1.1169848 1.7920023 78.5
-1.7631161 1.0958012 1.7917492 84.5
-1.5107447 1.0811204 1.7934874 87
-1.4118905 1.1063843 1.7897688 86
-1.2730298 1.1387894 1.7926502 83.5
-1.0609485 1.1712261 1.799009 84
-0.96166176 1.17357 1.7899665 75
-0.70390195 1.132424 1.7992455 87
-0.37947842 1.0902879 1.797927 65
-4.53724 1.2869141 1.73864 70
-4.3684134 1.2757794 1.7363425 68
-4.2006488 1.2571931 1.7441369 72
-4.0893292 1.2557993 1.7448441 71
-3.9265957 1.2306936 1.7517856 83
-3.8338127 1.2366126 1.7496488 74.5
-3.6498649 1.2130097 1.7560554 75.333336
-3.5614314 1.2192993 1.7534868 84
-3.339576 1.2038943 1.7526807 82
-3.0930235 1.233709 1.7494794 84
-2.9885716 1.2000157 1.7508959 80
-2.5636835 1.3437803 1.7598914 80
-2.4346461 1.3232148 1.769075 81
-2.3753147 1.2545154 1.7731467 80
-2.0075343 1.2082089 1.7824498 35
-1.8572203 1.2380949 1.7869118 78.333336
-1.7360698 1.2592908 1.7889336 88.666664
-1.4148695 1.2641819 1.7819537 81.5
-1.2793419 1.2877412 1.7925903 79
-1.1827908 1.2939373 1.7887584 83
-0.9544549 1.3187828 1.7886051 72.5
-0.81946868 1.3104199 1.7931179 76
-0.72620225 1.2998472 1.7931155 76
-3.9168644 1.4733422 1.7456194 86
-3.658319 1.4284853 1.7475082 88
-3.4858096 1.4901435 1.7420985 77
-3.3733556 1.4475387 1.750656 90.666664
-3.1651366 1.4689356 1.7624851 38
-2.948581 1.4405807 1.7448915 83.666664
-2.8368011 1.369978 1.7516997 75.5
-2.6988137 1.3534342 1.7554511 73
-2.3133559 1.4281411 1.7693688 79.666664
-1.9686948 1.4238858 1.774335 72
-1.846611 1.4405479 1.783619 79
-1.7360837 1.4175286 1.7873602 79.75
-1.4123639 1.4412925 1.7793235 84
-1.2740493 1.4404361 1.7895349 79.800003
-1.1611309 1.4708778 1.7906204 78
-0.92976564 1.4166784 1.7907414 75
-0.79619849 1.4428413 1.7936373 74.800003
-0.64575756 1.4066787 1.7958311 70
-0.50807643 1.4302511 1.7978228 72.666664
-0.37042227 1.4552286 1.7976633 73.25
-0.22882797 1.4944304 1.7950034 27.666666
-0.11436245 1.4495134 1.7985376 22
-4.3930712 1.6439183 1.7263478 69
-4.2226133 1.5644414 1.7361609 70.5
-4.1091347 1.5951911 1.7304336 73
-3.9432867 1.5523893 1.7378672 82
-3.8480015 1.5607891 1.7375031 76
-3.6663806 1.517588 1.7429146 76
-3.5647573 1.5337151 1.7438124 85
-3.119107 1.538609 1.7705427 26
-2.8229203 1.6353247 1.7354871 81
-2.6725473 1.6078159 1.7443172 76
-2.4481897 1.5636768 1.7549833 75.333336
-2.2597194 1.5955985 1.7616383 79
-1.8694749 1.6459305 1.7697115 77
-1.7252121 1.5869198 1.7842271 77
-1.6147143 1.6204048 1.7752272 89
-1.2919506 1.6100378 1.778852 82
-1.1797669 1.6008791 1.7854812 77
-0.81512642 1.5786494 1.7848496 68.75
-0.67893815 1.5816665 1.7911193 69.5
-0.52235276 1.5159578 1.7956352 77.5
-0.36492705 1.576003 1.7923084 70.333336
-0.23004995 1.5850824 1.7975677 58.666668
-0.10431333 1.5866287 1.7939866 21
-4.5634146 1.6649466 1.7247902 72
-3.6737995 1.7470807 1.7403289 87
-3.4006252 1.719005 1.7396841 80
-3.1496413 1.7495371 1.7472812 56
-2.9487629 1.7203501 1.7420329 55.666668
-2.3284218 1.7316889 1.7529997 74
-1.7415397 1.6900113 1.7852212 78
-1.2080628 1.7692187 1.7909483 74
-1.1423863 1.7302618 1.7867959 73.5
-1.0102698 1.7477474 1.7679833 78
-0.77700382 1.7226905 1.7778707 72.5
-0.65470874 1.740514 1.7823769 67.400002
-0.49518842 1.667524 1.7872144 70.5
-0.33437753 1.7424949 1.7858104 72.333336
-0.22801447 1.7104874 1.789971 40.666668
-0.078874446 1.7135531 1.7895519 18.666666
0.069925264 1.7612197 1.7904466 10.5
-4.2440434 1.8955714 1.7271959 74
-3.935972 1.8689022 1.7276312 75.333336
-3.8101249 1.9081154 1.7209181 68
-3.6890361 1.8421048 1.7320312 73.333336
-3.5310733 1.8317103 1.7286447 69.5
-3.3420453 1.803955 1.7389518 62
-3.0792668 1.8241531 1.7424475 45
-2.8145833 1.9224832 1.7264395 76
-2.6436059 1.8754181 1.7332851 80
-2.510782 1.8355534 1.7440084 68
-2.3158092 1.8657538 1.7526051 69.5
-2.2398384 1.8408828 1.7500755 67
-1.8703068 1.8858975 1.765174 72
-1.6950966 1.8655119 1.7784971 74.666664
-1.5637189 1.815513 1.7733327 78
-1.2757328 1.8224102 1.766342 75
-1.1301786 1.8483919 1.7809983 64.666664
-0.94066066 1.9165215 1.7680794 63
-0.65732205 1.8471118 1.7848856 72.5
-0.53802097 1.8695682 1.7795426 63
-0.221295 1.8646262 1.7786257 28
-0.072310068 1.87577 1.7894844 18.285715
0.076966539 1.8398215 1.7945091 8
-4.5983334 2.0667026 1.7122744 65
-4.4124818 2.029402 1.7113103 69
-4.2661691 1.9815954 1.7260104 69
-4.1487546 1.9644639 1.7249695 72
-3.6749165 2.0776219 1.7214657 79
-3.4179177 2.0380387 1.7289484 68.5
-3.1419573 2.0556793 1.7393454 54
-2.9375162 2.0121543 1.7308863 65.666664
-2.4695375 2.0959933 1.7292629 77
-2.3149049 2.037406 1.7428923 70.666664
-1.6757042 2.0650992 1.7714489 75
-1.5710438 2.0560355 1.7729834 77.666664
-1.1077871 2.0025854 1.7758944 65.599998
-1.0155437 2.0193102 1.7752495 65.5
-0.85938901 2.089474 1.7642573 62
-0.63820291 1.9630914 1.7735269 65.5
-0.50622797 2.0324683 1.7768662 58.5
-0.40399474 1.9882836 1.7749225 60.5
-0.070233442 2.0437846 1.7814931 16.5
0.06945847 2.0516868 1.7948753 1
-3.9553885 2.1851997 1.7248851 76
-3.7528739 2.178905 1.7255744 66
-3.6934695 2.1975346 1.7165555 66
-3.5382886 2.1764512 1.7154924 71
-3.3235259 2.120831 1.7192129 63
-3.0472705 2.1322691 1.724562 65
-2.805367 2.2337723 1.7201936 73.5
-2.6080828 2.1595221 1.723334 78
-2.2291498 2.1567607 1.7467359 33
-1.8017585 2.1291397 1.7539583 69
-1.6655641 2.1267343 1.7831763 75
-1.5981086 2.1912611 1.7814516 73
-1.4325433 2.2293091 1.7633873 77
-1.0933758 2.2315555 1.749565 61
-0.99212348 2.1641653 1.7678589 62.25
-0.5292443 2.1286597 1.769449 64.5
-0.38449559 2.2004621 1.7739347 57.599998
-0.27593622 2.105227 1.7741565 62
0.040353112 2.1581717 1.7814306 8.5
0.19313176 2.1792328 1.7898701 0
-4.2824183 2.3370981 1.7117543 68.5
-4.180552 2.3605466 1.7132884 62
-3.9725139 2.2675414 1.7127675 66
-3.8265793 2.2857413 1.7161711 66
-3.4510713 2.3351371 1.7215806 69
-3.1132054 2.367382 1.7178458 69
-2.9236481 2.327502 1.7203196 72
-2.4243999 2.3747563 1.7171656 79
-2.2788253 2.3280747 1.7293891 73.5
-2.2484279 2.2820129 1.7434856 34
-1.7249794 2.3927341 1.7485687 72
-1.5747321 2.3242896 1.7680376 67.800003
-0.9332689 2.3358772 1.7759091 61
-0.83060771 2.3308742 1.7630059 60.666668
-0.38027933 2.3056526 1.7690387 60.333332
-0.2263737 2.341207 1.7634394 23.25
0.1862476 2.2550108 1.7862297 1
-4.6392999 2.5009446 1.6973315 62
-4.4439378 2.4482381 1.6990913 66
-3.6947584 2.4480488 1.7126583 72
-3.5420322 2.5116041 1.704827 58
-3.3707805 2.4540253 1.7118512 65
-3.0202672 2.469136 1.7125643 66
-2.5681512 2.4639847 1.7132758 65
-2.1912947 2.4459834 1.7345625 32.5
-1.5178316 2.4921227 1.7711588 68.5
-1.3978435 2.4889038 1.7536548 64
-0.98169112 2.4532723 1.745922 58
-0.84061587 2.5177999 1.7804579 57.5
-0.69437158 2.4968631 1.7518244 63.5
-0.24606197 2.4782908 1.7710776 25.5
-0.058567874 2.4554474 1.7634575 14.5
-4.0030446 2.6462824 1.7047342 66
-3.8050063 2.6114984 1.7117504 64.666664
-3.6748331 2.5974762 1.7061962 56
-3.5580318 2.5943298 1.7031039 64
-2.8975458 2.6328244 1.7127396 64.5
-2.7897553 2.5714755 1.711827 63
-2.3764641 2.682797 1.7090696 71
-2.2192729 2.6155643 1.7298526 35
-1.5821195 2.6323061 1.7420152 68.5
-1.4864409 2.6251326 1.7663639 70
-1.2601975 2.69175 1.7483021 66
-0.81094134 2.6298923 1.7601438 58.75
-0.54699653 2.655839 1.7458442 56
-0.10079154 2.6374981 1.7747313 9.666667
0.085577577 2.6283665 1.7619878 6
-4.2773795 2.7739038 1.6940268 60.666668
-3.4672198 2.7755685 1.7102178 62
-3.0948939 2.7173221 1.7051257 66
-2.9607911 2.793138 1.7041032 61
-2.5205812 2.7970555 1.7054549 65
-2.150049 2.7678812 1.7277154 34
-1.4296987 2.7677953 1.7630463 70
-1.3430443 2.7757921 1.7385732 70
-0.69699335 2.7924166 1.7671788 63
-0.5981127 2.7496312 1.7442259 62
-0.046776611 2.7199314 1.7741493 10
0.06620048 2.798924 1.7633575 12
-4.6919088 2.9795601 1.6832918 58
-4.4818206 2.9081082 1.6856018 63
-3.8288395 2.9826746 1.6989712 63
-3.7236078 2.8579826 1.7067398 63
-3.5746241 2.928664 1.6980191 61
-3.3065584 2.8556602 1.6993884 64
-2.8848889 2.9566777 1.7069348 69
-2.8490081 2.9595838 1.7011703 62
-2.6839545 2.9209988 1.7002989 66
-2.1640639 2.9037154 1.7193269 34.5
-1.525524 2.9688981 1.7320398 62
-1.4044461 2.9023559 1.7523986 64.666664
-1.153592 2.9438412 1.7378107 43
-0.67839241 2.9076133 1.7529148 64
-0.52472198 2.9663944 1.7522763 69
-0.41351515 2.8659523 1.7373503 68
0.076653801 2.894027 1.7627183 10.666667
0.25767189 2.9688187 1.7664362 1
3.0494189 2.8878117 1.6701177 62
-4.0816951 3.1276665 1.6821965 66
-4.0067291 3.0651736 1.6861072 66
-3.8336296 3.0670724 1.6919168 64.5
-3.6970642 3.0291414 1.698402 61
-3.5261025 3.0756569 1.7005336 66.5
-3.0735588 3.1015391 1.6914746 68
-2.8893275 3.0947385 1.6939876 60.5
-2.324173 3.0222273 1.7039229 46
-2.1250906 3.0414586 1.7217984 48.5
-1.2964134 3.0705111 1.7523923 56.333332
-0.53481203 3.0686409 1.757285 64.333336
-0.26278397 3.0987017 1.7359897 43
0.25127178 3.0483694 1.786101 6
2.6673183 3.0305157 1.7892567 41
2.7217541 3.0642221 1.7913182 38
2.9631915 3.0631294 1.796647 45
-4.2959886 3.2349253 1.6658821 75.333336
-3.7126467 3.2764819 1.674723 79
-3.5013914 3.2821593 1.6909963 68
-3.2952511 3.2802949 1.6890854 74
-2.9563394 3.2435029 1.6925677 62
-2.4607828 3.1560359 1.6936568 63
-2.1214998 3.2308064 1.699288 64
-2.0722222 3.2182846 1.7136045 61
-1.3997911 3.2935047 1.7243932 68
-1.2924463 3.2225981 1.7501158 62
-1.0313346 3.2172503 1.7261437 72
-0.51856387 3.1723318 1.7461861 64.5
-0.43854678 3.2316618 1.7709726 66
-0.28680989 3.2211149 1.7327725 10
2.689168 3.2574642 1.7737857 37
2.7085958 3.2070312 1.7845329 36
3.0225332 3.2091656 1.7773424 54
-2.8395443 3.3492932 1.6798381 89
-2.6266599 3.315886 1.688424 66
-2.2461913 3.3754544 1.6847476 80
-2.0389779 3.39272 1.694782 75
-1.2348254 3.3655109 1.7546648 61
-1.1405976 3.4070861 1.7401625 75
-0.36405125 3.348582 1.7545816 55
2.4258926 3.4368668 1.763018 41
2.6772797 3.4011292 1.7706727 37
2.7591898 3.394685 1.768761 35
3.0128078 3.3408766 1.7195901 62
-1.1364872 3.468394 1.7029514 85.5
-0.88712889 3.5009112 1.7063123 99
-0.33437985 3.4650197 1.7437284 43
-0.21768278 3.5360746 1.7203813 45.333332
0.732786 3.4713619 1.7460452 5
2.3299413 3.4556866 1.7798852 10
2.4382291 3.5710921 1.7673641 13.5
2.6069522 3.5357034 1.7698873 38
2.991307 3.5782008 1.7213141 56
3.0010376 3.4615319 1.7229146 60
-1.0045285 3.6955187 1.67778 36
1.1651857 3.6620002 1.7411071 0
1.269423 3.6783218 1.684633 3.5
2.8074093 3.6642683 1.7662001 39.666668
2.9261158 3.653271 1.7696549 36
-0.94326913 3.7914255 1.6768805 39
2.7370605 3.766192 1.7221258 58
2.8496082 4.0076766 1.6919643 11
0.98377305 -3.9861166 1.8627306 70
1.1076566 -3.9816592 1.8851031 76
1.2209228 -3.9726751 1.9022077 74
-4.1695366 -3.7513175 1.9126791 48
0.82227355 -3.8094232 1.9306709 55
0.97758579 -3.767138 1.9350187 51.5
-4.5061836 -3.6824021 1.8976938 44
-4.3754387 -3.5631921 1.8972703 51
-4.0089989 -3.5963514 1.9082762 55
0.75031585 -3.5031228 1.92387 59
-4.0524015 -3.4436314 1.890843 50
-4.4931989 -3.1597717 1.8865694 55
-4.1465092 -3.229059 1.8930026 57
-3.8434343 -3.2969635 1.8958148 43
-3.678066 -3.1507452 1.8905517 63
-3.5875952 -3.1598785 1.8847994 55
-4.3559079 -3.0480406 1.8802029 59
-3.9909101 -3.0961747 1.8856174 60
-3.8039601 -3.0593016 1.8806335 59
-3.7317784 -3.0252776 1.881013 57
-3.4389744 -3.0804188 1.8908414 41
-4.049891 -2.9595838 1.8724107 55
-3.8383281 -2.8519254 1.8852457 47
-3.59077 -2.9291906 1.894564 59
0.76154298 -2.8898294 1.9255637 62
-4.1199341 -2.7556663 1.8704652 56
-3.6915207 -2.7364514 1.8831643 61
-3.5994868 -2.7468841 1.8814453 42
-3.3943186 -2.7792275 1.8873898 36.333332
-3.1931067 -2.7670937 1.8830155 39.5
0.53632176 -2.7316732 1.9160644 46
0.6401037 -2.7006042 1.9167589 42
-4.4583249 -2.6708586 1.8618563 56
-4.3311706 -2.5808797 1.8601083 58
-3.9896972 -2.6594262 1.8741046 60
-3.8188629 -2.6424932 1.8766323 39
-3.744596 -2.5993547 1.8692573 64
-3.4648199 -2.6762364 1.8808111 59
0.44412303 -2.5542393 1.9117457 46
0.73205715 -2.666925 1.9142934 45
-4.0702152 -2.536109 1.8679675 34
-3.852062 -2.4601316 1.8846775 21
-3.5953071 -2.5398333 1.8895689 22
0.56623179 -2.4458859 1.912273 48
0.6307525 -2.4742746 1.9195075 40.666668
-4.1386604 -2.3571765 1.8739198 20
-4.0192542 -2.2775815 1.8799695 13
-3.7188935 -2.366482 1.8857208 9
-3.5164266 -2.3256242 1.8907951 7
0.41149041 -2.2833424 1.9125712 48
0.46555665 -2.3378718 1.9281039 47.333332
-2.6202171 -2.1590188 1.8717874 10
-2.1532738 -2.1046538 1.8053726 33
0.51629925 -2.1799695 1.9128186 70
-2.4460115 -2.0236399 1.8634478 40.666668
-2.1045918 -1.9953635 1.8632687 58
-1.9405874 -2.0837953 1.8586448 62
-1.6996758 -2.027523 1.8802531 28
-1.5634693 -2.059073 1.8566146 34
-1.2952573 -2.0108023 1.8535973 69
-0.84396696 -2.0152457 1.8269066 37
-0.67645723 -1.9768115 1.8713728 78
-0.53043187 -1.9761262 1.8692627 68
-0.3083016 -1.9596553 1.871034 76
-0.17857599 -1.9515845 1.8540713 53
0.39620116 -2.045012 1.8985289 63
-2.6214428 -1.901112 1.8544506 45.333332
-2.4395182 -1.8137401 1.8690342 52
-2.261523 -1.8856957 1.8545095 58
-2.0117714 -1.8547776 1.8604547 62
-1.8618404 -1.9389262 1.8657998 64
-1.6909227 -1.8393149 1.8772649 66.666664
-1.5873798 -1.8398874 1.8482441 68
-1.4081213 -1.8718147 1.8492723 67.5
-0.77470279 -1.8180685 1.8679918 73
-0.63370848 -1.8369801 1.8792299 75.5
-0.50476056 -1.8957124 1.8905765 76.666664
-0.43347543 -1.8804324 1.8900342 79
-0.23184353 -1.8502991 1.8860451 76
-0.045521747 -1.9040524 1.8762621 72.666664
0.0083650472 -1.8886057 1.8873719 69
0.28970256 -1.8773832 1.8896124 73.5
0.36835656 -1.8713263 1.8902196 70.666664
-2.5123744 -1.7437451 1.8584285 56
-2.1639829 -1.7479216 1.8570586 54
-1.9211053 -1.7223116 1.8591927 69
-1.7973047 -1.7826076 1.8727394 70
-1.5191232 -1.7267551 1.8483552 66
-1.3161516 -1.7095985 1.8520731 74
-0.86416292 -1.6639605 1.8651477 69
-0.72472107 -1.6871531 1.8734227 82.5
-0.53981322 -1.7414643 1.8846544 84.666664
-0.405965 -1.709434 1.8802627 80
-0.22733982 -1.7088442 1.8798581 82.666664
-0.087011479 -1.7498739 1.8848927 82.800003
0.22681606 -1.6909952 1.8786734 64
0.35312104 -1.7681805 1.8879697 58.200001
-3.0792861 -1.5613525 1.8475648 5
-2.4635575 -1.5638295 1.8633653 2
-2.3131423 -1.6258657 1.8466321 54
-2.2134454 -1.5110219 1.8507231 60
-2.0209827 -1.5728998 1.8530713 61
-1.8539791 -1.5590112 1.860098 63
-1.7215431 -1.6218904 1.8634726 64
-1.4114408 -1.5762978 1.8367764 86.5
-1.2505038 -1.5891919 1.8770341 73
-1.1557995 -1.5636677 1.8739815 76.333336
-0.97188985 -1.5526483 1.859843 76.5
-0.80684942 -1.5429976 1.8693423 81.5
-0.64010978 -1.6049584 1.8820224 80.5
-0.50502878 -1.5735548 1.8723549 76
-0.33952382 -1.547747 1.8805013 77.5
-0.20159274 -1.6207578 1.8813485 78.5
-0.066332214 -1.5490175 1.8818486 84.400002
0.13425033 -1.548245 1.8607651 12.666667
0.21756063 -1.5730845 1.8855834 76
0.31430352 -1.6252517 1.8835117 73
-2.1136684 -1.4101204 1.8444449 68
-1.8423952 -1.3876195 1.862528 62
-1.7445005 -1.4225847 1.8535 67.333336
-1.562099 -1.4984347 1.8011121 56
-1.4443519 -1.3732556 1.846531 73
-1.2592031 -1.4008769 1.8553715 81.5
-1.0780895 -1.4322617 1.8556761 74
-1.0142692 -1.3635391 1.8585826 80
-0.83560026 -1.4145206 1.8716924 80.5
-0.70817828 -1.444543 1.8778793 80.333336
-0.53083777 -1.4258267 1.8706242 78
-0.39164981 -1.3979566 1.8777037 77
-0.2259685 -1.4626646 1.8812867 75.833336
-0.079961367 -1.398141 1.8806044 66.285713
0.095537052 -1.4226886 1.8609651 38.5
0.22154367 -1.4498069 1.8810004 94.5
-2.024477 -1.3198023 1.848653 63
-1.8625128 -1.284163 1.8561554 68.5
-1.7746681 -1.2306869 1.8502195 64.5
-1.6100199 -1.3046803 1.8407257 65.5
-1.4507811 -1.2234477 1.8542854 76
-1.2731352 -1.2690539 1.8654392 73.25
-1.1132476 -1.2468412 1.8552715 83.5
-0.9494344 -1.2640035 1.8664768 81
-0.8268314 -1.2704602 1.8732041 83
-0.65773797 -1.2669644 1.8739333 84
-0.48389563 -1.2868084 1.8730437 78
-0.34892824 -1.2565321 1.8765982 69.333336
-0.23196872 -1.2875063 1.8783795 63.200001
-0.096428365 -1.2617551 1.8801968 62.799999
0.098786637 -1.3083065 1.8751591 75
-2.0098388 -1.1353226 1.8465168 69.5
-1.8821486 -1.1845725 1.8543454 71
-1.7475175 -1.1042354 1.8461081 71
-1.5857661 -1.0770388 1.8397353 70
-1.4218607 -1.0707425 1.8604002 78.5
-1.2772245 -1.1157727 1.858609 79.25
-1.1371062 -1.0769646 1.8560637 87
-0.98848683 -1.110117 1.8656698 81.666664
-0.84380722 -1.1212423 1.8696934 80.599998
-0.67391533 -1.1127501 1.8690207 85
-0.52967352 -1.1258285 1.872981 80.833336
-0.39172795 -1.1144896 1.8729553 62.333332
-0.23016517 -1.1278447 1.871724 50.75
-0.097188734 -1.1424675 1.8787637 55
-2.106055 -0.93929696 1.839007 8
-1.9949334 -0.94491464 1.8499619 66
-1.8634033 -1.0135212 1.8441011 70.666664
-1.7128422 -0.95570815 1.8454878 14
-1.4010104 -0.92214745 1.8612115 77.5
-1.3071525 -0.96968502 1.8560095 76.666664
-1.1056576 -0.95581627 1.8565086 84.75
-0.95807391 -0.95000315 1.8648343 89.666664
-0.86549878 -0.95714301 1.8662558 85
-0.67672062 -0.96574169 1.8632861 91.333336
-0.51982987 -0.97307414 1.8645685 75.85714
-0.36381826 -0.96511471 1.8573217 52
-0.2243481 -0.97514594 1.8607515 47
-0.096865371 -1.0428656 1.871683 50
-1.818581 -0.87818795 1.8521096 2
-1.5947077 -0.89889771 1.8444506 71
-1.4382608 -0.82051325 1.8559904 76.25
-1.2956618 -0.79649633 1.8521672 80.333336
-1.1306825 -0.79122132 1.8548397 93
-0.96879148 -0.80534351 1.8599708 97.800003
-0.79960775 -0.82885379 1.8485155 79
-0.67137349 -0.82032347 1.8529356 78.199997
-0.5218699 -0.827021 1.857448 71.5
-0.37230873 -0.83917695 1.8554288 61
-0.24177898 -0.83051538 1.8596168 51.333332
-2.2559009 -0.60406351 1.8226525 71
-1.5347774 -0.7314716 1.8505055 81
-1.4083792 -0.64851975 1.8545833 74
-1.3092961 -0.66362274 1.845368 83
-1.1369083 -0.66228414 1.8520722 94.666664
-0.98917192 -0.67640436 1.8559558 55
-0.81789947 -0.67103148 1.8542448 66.25
-0.68246371 -0.69542021 1.8501494 83.571426
-0.53753108 -0.67475569 1.8502409 78.199997
-0.38740343 -0.67934179 1.851449 72.571426
-0.28168553 -0.70139366 1.8524154 65
-3.1722896 -0.5579589 1.8154215 6
-2.4645493 -0.4658705 1.8150645 65
-2.1711957 -0.57303524 1.8299121 74
-1.9210645 -0.45537698 1.8243872 72
-1.4322045 -0.52268201 1.8465021 79
-1.2639773 -0.51988447 1.8435837 89
-1.1181613 -0.54321307 1.8386832 73
-0.97515357 -0.53907257 1.8433045 79.25
-0.83028525 -0.54146463 1.8456302 78.833336
-0.66849482 -0.52774566 1.8452741 82.909088
-0.53050679 -0.53796613 1.8447688 81.25
-0.38156152 -0.51244318 1.8471895 76
-2.6130323 -0.37041652 1.8118972 68
-2.3255084 -0.42220843 1.8184519 73
-2.1995773 -0.39222708 1.8280793 76
-2.0674801 -0.36333096 1.8301467 72
-1.8897171 -0.34437668 1.8380197 78.5
-1.6947107 -0.43631631 1.8333303 78
-1.5517348 -0.42538917 1.8440963 83.5
-1.4361978 -0.35551852 1.8406073 92.75
-1.2617116 -0.38720813 1.8379622 91.333336
-1.1166873 -0.41967762 1.8348315 77
-0.98218805 -0.3894169 1.8388315 79.333336
-0.82946759 -0.37703499 1.8391885 77.571426
-0.68450803 -0.38725659 1.8409246 82.14286
-0.5251956 -0.36421096 1.8431867 81.333336
-0.41809368 -0.38774532 1.8423164 77
-3.1556103 -0.28815854 1.804617 72
-3.0074706 -0.20121074 1.8097926 83
-2.9109435 -0.25167924 1.8054246 71.5
-2.7307982 -0.22407022 1.8083435 74.5
-2.6180966 -0.16230103 1.805741 80
-2.4972639 -0.25938097 1.8126378 68.5
-2.3449597 -0.22463125 1.8142571 76.5
-2.2226319 -0.2107598 1.8206612 78
-2.0395381 -0.21178442 1.8267274 86
-1.8883072 -0.24858837 1.8288676 78.333336
-1.7549124 -0.27797312 1.827799 83.5
-1.5461674 -0.25097698 1.8368407 93
-1.4308268 -0.20540772 1.8367327 96.333336
-1.2820592 -0.25170895 1.8314633 87.666664
-1.0996171 -0.23955344 1.8319829 79
-0.96478307 -0.22213903 1.8291643 78.800003
-0.80845439 -0.225676 1.8340077 78.222221
-0.67056036 -0.23085965 1.8378978 79.222221
-0.55036837 -0.23034701 1.8401254 75.800003
-0.43110329 -0.25722367 1.843964 76
-2.8585379 -0.11681343 1.8043643 75
-2.4686069 -0.045497645 1.8078828 77.666664
-2.3224652 -0.027367413 1.8129333 80
-2.2390304 -0.030349255 1.8135508 80
-1.9777284 -0.079424568 1.819605 86.5
-1.8661804 -0.099948347 1.8227228 85
-1.7412781 -0.12837099 1.8278388 87
-1.5583123 -0.09399271 1.8336897 92
-1.4204916 -0.072671518 1.8306825 92.5
-1.2797652 -0.082786061 1.8265624 85.666664
-1.1293914 -0.059604011 1.8262622 82.800003
-0.95969045 -0.086927846 1.8277416 81.800003
-0.80540222 -0.071720757 1.8297613 83
-0.66624749 -0.069897532 1.8335164 78.714287
-0.5100618 -0.10076702 1.8354703 78.666664
-2.7545016 0.011162378 1.8045617 75
-2.5121436 0.12066253 1.8009554 77
-2.0196769 0.073611885 1.8196074 48
-1.8719064 0.066563733 1.8200284 68
-1.7556467 0.026013192 1.8224107 84
-1.5627123 0.06198056 1.8290172 94.666664
-1.4258105 0.067406259 1.8287419 98.5
-1.2819922 0.076691382 1.8246069 90.5
-1.1271045 0.08925128 1.8212833 82
-0.96488661 0.054109316 1.8238719 81
-0.81599581 0.083721824 1.8252131 79.85714
-0.68448311 0.071586423 1.8293221 80.909088
-0.52044195 0.062998585 1.8278946 82.666664
-2.4511559 0.17967376 1.8027393 76
-2.2938354 0.15971208 1.8073817 78
-2.0193367 0.25888348 1.8148383 40.333332
-1.8714964 0.2343758 1.81496 69.5
-1.7634106 0.18371527 1.8127278 83
-1.5616974 0.21881032 1.8236476 91.333336
-1.4250952 0.20868865 1.8238448 98.25
-1.2872488 0.21342692 1.8234518 90
-1.126057 0.21691611 1.8187138 78.5
-0.97610235 0.20870247 1.8161833 76.400002
-0.82184738 0.23784733 1.8195889 82.14286
-0.67765713 0.23087165 1.8249773 80.5
-0.52174622 0.23643024 1.8260121 82
-2.2665718 0.33971328 1.802853 80
-2.0824873 0.40086865 1.8027655 43
-1.8654908 0.4023563 1.8087606 79
-1.7773026 0.34575585 1.8175865 81
-1.5536653 0.37694311 1.817654 89.333336
-1.420488 0.35145545 1.8219988 93.75
-1.2643476 0.38122237 1.81558 88.666664
-1.106454 0.36127213 1.8136823 80
-0.96283132 0.37862116 1.8172741 77.599998
-0.79161137 0.38995403 1.8148383 82.14286
-0.69297373 0.37407628 1.8201699 77.125
-0.52303714 0.39318517 1.8226408 81.714287
-4.5710659 0.59368402 1.8009735 1
-2.0094578 0.51079899 1.8069066 34.333332
-1.8475052 0.56132483 1.8050493 85.666664
-1.7779068 0.50977683 1.8103157 92
-1.5399626 0.53657895 1.8119954 86.666664
-1.4092262 0.49495107 1.8162388 96.5
-1.2958164 0.57500124 1.8146981 93.666664
-1.1078475 0.51454872 1.8095353 79.75
-0.97832155 0.52035671 1.8249778 42.333332
-0.81912267 0.52663636 1.8124421 77.199997
-0.67645937 0.53254932 1.8119918 79.333336
-0.51974303 0.53113705 1.8167397 82
-1.9802868 0.65508139 1.8021075 34
-1.8505569 0.67218435 1.8013536 88
-1.7786065 0.67877811 1.8089079 86
-1.5380408 0.68050754 1.8021799 89
-1.4276911 0.67356336 1.8135237 93.75
-1.3257682 0.71309698 1.8166835 92.5
-1.1546326 0.68527973 1.8056647 89
-0.96687943 0.66987449 1.809709 75.285713
-0.83188254 0.67959082 1.8060281 77.25
-0.65944898 0.66779584 1.8085582 76.099998
-0.52980089 0.67318076 1.8106672 78.333336
-0.42934686 0.66154212 1.8107306 81.75
-1.7821624 0.80414367 1.8033183 83
-1.4213884 0.81998241 1.8089113 91
-1.3049605 0.85660672 1.8119099 88.5
-1.0970635 0.83006942 1.8042465 91.5
-0.96904129 0.82677507 1.8087338 79
-0.80968398 0.83427954 1.8038906 74
-0.685987 0.82269752 1.804899 77.699997
-0.54047084 0.82436943 1.8085691 73.5
-0.38231161 0.82521194 1.8117323 77.666664
-1.7610338 1.0346738 1.8019518 77
-1.3718281 0.984936 1.8069637 87.5
-1.3193873 0.95952207 1.8129723 90
-1.0712528 0.92656511 1.807604 98
-0.95298648 0.97118735 1.8037589 94.75
-0.82591593 0.98039651 1.8075765 92.75
-0.63855577 0.98504192 1.8040166 78
-0.52313817 0.94998246 1.8066812 75
-0.37020338 0.97999251 1.8057945 67.199997
-1.421597 1.0584754 1.8032805 91
-1.3102578 1.131873 1.8069102 86.333336
-0.9649384 1.0879318 1.807301 92
-0.82548827 1.1429302 1.8050905 81.333336
-0.64099503 1.1179789 1.8050917 88.666664
-0.52436948 1.0937548 1.8086611 87.5
-0.4106065 1.1580707 1.8085451 84.75
-0.26969874 1.1189874 1.8159868 81
-1.3821267 1.2300898 1.8011104 84
-1.2740542 1.298308 1.8031015 86
-0.98182327 1.2139664 1.8034922 84
-0.84695703 1.289374 1.8033708 77.666664
-0.66858327 1.2592256 1.8035728 78.5
-0.50643611 1.2622466 1.8059025 77.888885
-0.36883926 1.2788422 1.8060046 78
-0.22235093 1.2943968 1.8068491 59
-0.53515369 1.3544971 1.8006226 71
-0.35732043 1.3861114 1.8013676 70.5
-0.24110748 1.4089187 1.8037063 47.25
-0.094766468 1.4152688 1.8041534 20.5
-1.0893655 1.6231027 1.8155297 20
-0.038752902 1.5693576 1.8004915 17
0.014276755 1.579917 1.8056198 14
0.072186723 1.6919632 1.8030877 12
0.22381699 1.9895658 1.8124117 0
0.35976824 2.1344457 1.8560075 4
0.5822674 2.2597501 1.8816069 7
0.73650259 2.3977337 1.8829952 7
0.48912197 2.4395027 1.8519019 6
0.68480426 2.4495516 1.8708415 6
0.80568951 2.5032902 1.8670996 5
0.50008959 2.6715822 1.8285121 6
0.88080949 2.5969639 1.86803 0
0.5453856 2.7023709 1.8514746 6
0.88333887 2.828548 1.8585905 0
1.11595 3.0777526 1.8665527 0
2.0281324 3.0162454 1.8909293 31
2.2262459 3.0920355 1.8784603 41.5
2.28649 3.0584137 1.8803879 44
2.5155509 3.1329978 1.8878652 45
2.5815701 3.1152303 1.8910273 43
3.0330524 3.0179768 1.8000892 51
0.64889717 3.2471087 1.8271376 6
2.1804407 3.1723578 1.8667992 34.5
2.5235238 3.2382808 1.8828453 40
2.2075884 3.3100758 1.8749233 0
2.4919026 3.3868697 1.8728861 46.333332
1.052873 -3.7501559 1.977136 55
0.75770408 -3.4578023 1.967081 52
0.94793236 -3.529583 1.9628859 53
0.70618433 -3.3313439 1.9560066 51
0.86739248 -3.3882821 1.9545389 54
0.6626212 -3.2505383 1.9513856 47
