# .PCD v0.7 - Point Cloud Data file format
VERSION 0.7
FIELDS x y z intensity
SIZE 4 4 4 4
TYPE F F F F
COUNT 1 1 1 1
WIDTH 1321
HEIGHT 1
VIEWPOINT 0 0 0 1 0 0 0
POINTS 1321
DATA ascii
-0.35995638 -0.53896785 -0.18218336 1.5
-0.21462047 -0.54104722 -0.17311317 6
-0.06545499 -0.52519917 -0.17406119 5.6666665
0.090522729 -0.49380809 -0.1746113 5.4000001
0.23753919 -0.4736059 -0.17041375 3.8181818
0.33049014 -0.45745564 -0.17257994 3.5
0.40741292 -0.44385093 -0.17071831 4.1428571
0.5142771 -0.42637017 -0.17101057 4.375
0.82286882 -0.37898827 -0.17769469 5
0.91035563 -0.36120215 -0.16393435 6
1.0811443 -0.33136025 -0.16114812 4
1.3235238 -0.29421008 -0.15160923 3
2.2516401 -0.13655648 -0.18369474 25
2.8368583 0.016365724 -0.16649282 96
2.7986748 0.19371279 -0.17679423 91
-0.61378253 0.52576566 -0.17513962 1.25
2.7423582 0.54800498 -0.17202714 93
-0.64261752 0.70041746 -0.17332979 0
2.7137227 0.72510445 -0.15649079 91
-0.65260881 0.75492817 -0.15338023 0
-0.016495246 1.3364319 -0.17076178 3
2.6228435 1.266969 -0.18148251 91
-0.72428083 1.3708177 -0.18311304 6.5
-0.20445348 1.4192539 -0.18776689 2.6666667
-0.086483002 1.3919312 -0.18190569 3.25
2.5724242 1.590714 -0.1970069 85
2.540283 1.773116 -0.15733224 84.5
0.58301747 1.8477228 -0.16636941 24
2.2100492 1.9311748 -0.15230508 38
2.2511327 1.9337257 -0.15268058 50
2.5226038 1.8957648 -0.19291061 82
0.27008957 2.052814 -0.15993242 11
0.69233125 1.9706769 -0.17176946 10
0.78993922 2.0249939 -0.17089321 11
2.1499243 2.0326498 -0.18122432 79
0.85265118 2.174933 -0.17676976 5
-0.50907987 2.3557272 -0.1914431 8
0.2968874 2.3083041 -0.16733082 7
-0.79086268 2.9972863 -0.16184983 14
-1.1750158 3.1093278 -0.17550585 13
-1.0037274 3.0778873 -0.15763384 30
-0.82157218 3.0380964 -0.17151572 20
-1.1505352 3.1917028 -0.18463494 61
-0.87930804 3.1667624 -0.16030844 55
1.7531741 3.5021408 -0.16432841 10
-0.39754605 3.6565735 -0.16752723 120
-0.22691174 3.6829975 -0.17341006 106
-0.78126234 -1.6613884 -0.044714067 66.5
-0.71875006 -1.6387744 -0.017614698 2
-0.4133206 -0.55481243 -0.10558272 1
-0.23920371 -0.54792732 -0.068422593 5.5294118
-0.05493791 -0.51841944 -0.083592936 6.6842103
0.086035177 -0.49513415 -0.079256997 4.0697675
0.22764018 -0.46908048 -0.075098097 3.9615386
0.33442086 -0.45342922 -0.081058696 4.7333331
0.39582336 -0.42805701 -0.05590494 4
0.51664114 -0.42139605 -0.065616906 3.125
0.8162421 -0.37548873 -0.063657328 5
0.9539665 -0.35298526 -0.062440135 5.875
1.1089518 -0.32250404 -0.069688536 14.25
1.2675772 -0.30119696 -0.14413415 2
1.2943037 -0.29057032 -0.06353467 21.25
1.4569412 -0.26300603 -0.030249661 28
1.5841185 -0.24285209 -0.085460484 26.200001
2.0238152 -0.16804276 -0.066922575 22.25
2.8239393 -0.040473513 -0.049422938 55
2.8143072 0.13044688 -0.059618466 85
2.2986643 0.24160826 -0.071522512 84.333336
-0.61762702 0.55963027 -0.081074819 0.77777779
2.7570083 0.47006857 -0.059505485 89.5
-0.63527346 0.67264736 -0.041446902 0.40000001
2.7289948 0.63891536 -0.047834564 88
-0.65558177 0.79810137 -0.087522425 0
2.6988688 0.81160843 -0.02068386 86
2.7072942 0.80505949 -0.035494659 89
2.6806858 0.93842262 -0.071339041 94.5
2.6563704 1.0850934 -0.10112206 99
-0.72693408 1.2746154 -0.12193823 1.5
-0.023206133 1.3163296 -0.04032648 2
0.64331514 1.2633175 -0.06255842 5.3333335
0.82440513 1.2785196 -0.13848718 0
2.6292794 1.2706101 -0.060072903 85
-0.72098446 1.3840615 -0.13587208 3.5
-0.17697215 1.438061 -0.09260612 3
-0.09089265 1.4325446 -0.084481359 3.6666667
0.84563714 1.4039035 -0.07543236 4.5
0.94998044 1.4595336 -0.095598809 4
2.592576 1.4466788 -0.074436396 86.5
-0.3465291 1.6157497 -0.070759632 3
-0.24212405 1.5598841 -0.053274833 5
2.5633612 1.6133268 -0.09213955 85
2.5372086 1.7962505 -0.036661241 76
0.56739402 1.9084978 -0.13685863 150
2.1844523 1.9365778 -0.04948369 19
0.28683895 1.9669203 -0.14601468 14
2.1557536 2.0333662 -0.091739081 83.5
2.4812396 1.9598767 -0.1040981 72.5
0.56466228 2.1437654 -0.064343698 63
0.62199229 2.120836 -0.091191985 70
2.1358151 2.1625071 -0.072028346 81.333336
-0.51694262 2.2909741 -0.11988623 3.5
2.107173 2.2993746 -0.082187302 77.333336
-0.89306229 2.4104691 -0.096078999 2
-0.51193243 2.4353302 -0.046925519 3
2.0878649 2.4638367 -0.037804324 80.5
-0.94163889 3.1024542 -0.022420919 10
-0.88936168 3.0862129 -0.026039517 49
-1.0539104 3.2737908 -0.0229092 121
-1.0418074 3.2326195 -0.089373834 125
-0.77566367 3.277519 -0.13528401 11
1.914192 3.4215286 -0.019240564 40
1.9030266 3.4723606 -0.10326702 44
-0.40443587 3.6481872 -0.081468187 71
-0.82232219 -2.0618951 0.13841259 26
-0.92646635 -1.7509851 0.037052598 154.5
-0.80685008 -1.7000586 0.022596002 136
-0.22482014 -0.5388878 0.078382842 3.5416667
-0.06407503 -0.51029146 0.088457055 3.75
0.092717893 -0.48194528 0.027797811 3.5294118
0.21913704 -0.46500576 0.014538903 3.8461537
0.38612252 -0.43867549 0.009931691 4.1999998
0.53072995 -0.42173016 0.014919971 2
0.84369409 -0.36779207 0.031482756 5
0.96216309 -0.34461999 0.051384442 5.4000001
1.1025066 -0.31947941 0.064056925 19
1.2459999 -0.30237541 0.059578236 3
-1.0638363 -0.18249381 0.12941991 1.3333334
-1.0280783 -0.17649838 0.1031445 0
1.3092841 -0.28684023 0.085524932 22
1.4269838 -0.26580834 0.074114434 26.4
1.6185772 -0.23239858 0.088690959 23.25
1.723622 -0.21598552 0.063732319 26
1.8881154 -0.18669547 0.019762853 24.5
2.0501571 -0.16142568 0.1132793 18
-1.0613745 -0.084643029 0.13393468 0
-1.0250171 -0.044680376 0.08408159 0
2.3288341 -0.11638969 0.10120156 19.5
2.5286546 -0.073168926 0.11217471 17
2.636826 -0.063232884 0.026476735 19
2.7724988 -0.053655114 0.071644925 26
-1.040565 0.00037732284 0.10840141 0
2.8271468 0.085207619 0.08046072 82.666664
2.2888474 0.27820736 0.10546305 54
2.7659495 0.231543 0.075939052 116
2.3046157 0.31177518 0.08190342 122
2.6227884 0.36102229 0.097111516 150
2.7648191 0.422692 0.049470466 82.5
-0.60915524 0.53456897 0.057408381 0.42857143
-0.59993565 0.49464941 0.057068106 0
2.7438974 0.57062727 0.081036627 83.666664
-0.62992394 0.66965294 0.10166556 0
2.7250364 0.71913671 0.10542379 86
-0.65722573 0.8145923 0.075989537 0
2.6986527 0.88513899 0.091507815 90
2.7160077 0.76184309 0.081270687 86
-0.6776821 0.95773351 0.0086665107 0
2.6796095 0.98472899 0.078488313 89
-0.69830036 1.0769706 0.04283398 0
2.6548679 1.1313295 0.069866084 93.666664
-0.7194975 1.2251892 0.045040663 1
-0.015695903 1.3138354 0.034284901 1
0.70040721 1.3002454 0.054636892 3
0.83467478 1.2828695 0.12756282 1
2.6256487 1.3281406 0.082573153 86
-0.21717758 1.4490883 0.11751107 2.25
-0.095422566 1.4047744 0.063344277 3.75
0.88904619 1.4071405 0.031771313 4
2.599062 1.4998387 0.12190949 82
-0.34397718 1.6177744 0.060672641 3.4000001
-0.25132209 1.5559752 0.04346684 6.5
2.5697103 1.6525542 0.053925689 79
2.1652634 1.9361922 0.052147802 10
2.5381217 1.8530728 0.12844956 79
-0.59761894 2.0766015 0.090847544 4
2.5052552 1.9832307 0.02674892 92
-0.56224459 2.1159596 0.010763164 8
0.57884449 2.2129359 0.010845925 13
0.63532144 2.2025764 0.062195264 3.5
2.1377077 2.1200452 0.076267838 71
2.103704 2.3223989 0.062282376 65
-0.5462262 2.4281132 0.065592758 0
2.0828447 2.4754076 0.053027552 67.5
2.0642309 2.5582561 0.068366699 65
-1.0603476 3.4142919 0.0034397496 93
1.676096 3.54564 0.024677301 37
2.2092493 3.7820816 0.10400938 65
-1.4107023 -2.1681352 0.29934633 79
-1.2494071 -2.1333766 0.24578854 68
-1.1415085 -2.1114163 0.25490361 65.333336
-1.0939837 -2.0988808 0.2986272 63
-0.97482681 -2.0809026 0.1995521 72.599998
-0.85911041 -2.0650895 0.22466461 41
-1.2436147 -0.98889911 0.26309657 5
-1.2721796 -0.84644103 0.26354548 12.666667
-0.42768174 -0.54565799 0.17671061 0
-0.21389911 -0.53054643 0.22820409 3.1923077
-0.12238155 -0.51534146 0.18691857 2.7
-1.2119666 -0.31419367 0.26554388 3
1.1800774 -0.30070081 0.15509486 25
-1.1296523 -0.22281417 0.19936129 1
1.3428868 -0.26941979 0.22245166 30
1.3922421 -0.26635596 0.22981146 25.5
1.5936084 -0.23081246 0.21552807 25
1.6879312 -0.21602893 0.27576411 21
1.8655106 -0.18960936 0.21558006 18.666666
1.9983765 -0.16581112 0.2004545 18.5
-1.2046118 -0.038513042 0.29228544 0
-1.1192087 -0.050403651 0.2162817 0
2.175256 -0.13776255 0.15709269 20
2.359354 -0.1101236 0.25737071 19
2.5044775 -0.085025862 0.2693072 17
2.65323 -0.063423991 0.17349952 18
2.8489544 -0.021432251 0.27561793 63.5
-1.2022974 0.0038960769 0.29311812 0
2.8305042 0.089129858 0.21459079 75.800003
2.2843461 0.26270875 0.2020081 52.599998
2.799825 0.21312343 0.17382382 96
2.322557 0.32353574 0.28407574 150
2.7405519 0.39176917 0.16647524 150
-0.60452104 0.5281508 0.24174963 0.5
2.7605438 0.49298239 0.22294904 79.166664
-0.62479174 0.65005541 0.23542468 0
2.7357075 0.64676172 0.23296674 79.5
-0.65206516 0.82276082 0.19301136 0
2.6947565 0.87690318 0.16619474 96
2.7135384 0.80601013 0.24146266 88
2.6817083 1.0027046 0.22970293 90
-0.70252973 1.1477505 0.27621257 1
2.6553173 1.144999 0.25881827 77.5
0.81589872 1.298317 0.24279647 0.75
2.6383538 1.2576604 0.23471002 81.599998
-0.19884264 1.4561305 0.25744838 2.75
-0.093016595 1.4405998 0.23114367 8
0.81907582 1.3898013 0.22808617 1.5
2.6136024 1.3958095 0.24138117 80.666664
-0.15827826 1.5173241 0.21407151 7
-0.12518188 1.5066941 0.21228969 1
2.5889723 1.5530189 0.23074193 78.666664
2.5653491 1.688194 0.20241821 82.5
2.5384336 1.8714556 0.25702822 84
2.1590667 2.0218625 0.24470139 75
2.3738399 1.9632545 0.18987387 39
-0.49808154 2.3833222 0.2110588 6
2.103395 2.3112731 0.20928079 68
-0.4921304 2.4063506 0.15769488 0
2.0657406 2.5381529 0.21420568 61
-1.0897322 3.8021269 0.17815101 7
2.153506 4.1594501 0.26607066 69
2.1337056 4.2512531 0.19065326 62
1.8291695 4.3782406 0.25812626 15
1.8180413 4.5198426 0.19321626 7
-1.5999492 -2.1919203 0.41401324 68
-1.4053917 -2.1637256 0.38775334 72.5
-1.2589583 -2.1366529 0.38149992 80
-1.1515433 -2.1139042 0.37028727 65
-1.6661323 -1.9655136 0.42959726 19
-1.0561144 -2.0976379 0.35862687 66.5
-0.94216102 -2.0749252 0.38080209 68.14286
-0.83770823 -2.0582757 0.35665166 45.5
-1.2508765 -1.0690591 0.34615695 15
-1.1979554 -1.0588684 0.4249751 4
-1.238672 -0.9790923 0.3594321 10.5
-1.391636 -0.75204623 0.31288272 0
-1.2908162 -0.81445593 0.33396527 4.6363635
-1.1192843 -0.7761122 0.41446954 1
-1.3740901 -0.68322337 0.39222234 1
-1.261462 -0.65744025 0.39859435 16.444445
-1.1461064 -0.73261511 0.39154565 0.5
-0.22371621 -0.52974719 0.35342243 3.1052632
-1.258834 -0.31106913 0.36992604 4.25
-1.2521293 -0.2176728 0.40058699 1.9
-1.1911881 -0.16873814 0.43347961 0
1.6066365 -0.22519314 0.33627275 24
1.988649 -0.16151792 0.37321752 18.5
-1.2057135 -0.08696413 0.33695799 0
-1.1908758 -0.068925694 0.38412312 0
2.0851436 -0.14817294 0.3778078 16
2.3497112 -0.10552173 0.31688565 19
2.4405181 -0.089698933 0.40385896 18
2.6471255 -0.050149906 0.36316383 16
-1.245586 0.052529931 0.3941603 1.3333334
2.8416731 0.051786914 0.37336999 69.75
2.2483923 0.29924443 0.40255713 76
2.2778316 0.27083111 0.36846665 50.5
2.4057779 0.19719927 0.44444263 17
2.8166914 0.19983369 0.36042827 76.25
2.3557794 0.40149304 0.36384219 163
-0.60270512 0.5354228 0.36297315 0
2.7679355 0.49753299 0.37839007 80.666664
-0.62479621 0.67316675 0.35080042 0
2.7444057 0.64590186 0.38999987 79.666664
2.7202854 0.79213023 0.38222414 80
2.6950173 0.93196905 0.33220989 86.75
-0.68773305 1.0779548 0.38957769 1
2.6683834 1.1011958 0.35355714 85
2.6401129 1.2634411 0.37889799 82
-2.080327 1.4638915 0.39801252 4
2.6125081 1.427525 0.4018147 78.75
2.5897582 1.5498143 0.3679955 75.333336
2.5614743 1.7344952 0.37899858 80.5
2.2068107 1.9467418 0.43806022 28
2.5366397 1.8875803 0.34526494 78
2.1675215 2.0234835 0.38129064 71
2.3615866 1.9669509 0.36457667 35.333332
2.5226984 1.9756438 0.43295884 81
2.1307974 2.2286384 0.35195398 63
2.069447 2.518357 0.30666614 62
2.256865 3.5853903 0.38047421 64
2.2263596 3.7202816 0.41210675 66
-1.0934491 3.7780514 0.40062389 4
1.8791301 4.3349504 0.33701056 21
1.9638269 4.345315 0.41746479 74
-1.5965523 -2.172235 0.51575577 97
-1.4290277 -2.1666846 0.52146703 36.285713
-1.279369 -2.1416655 0.50259823 78.666664
-1.1478137 -2.1112289 0.55374962 68
-1.6762705 -1.999856 0.53371638 32.5
-1.0635358 -2.0971014 0.51575738 63
-0.98421097 -2.0829608 0.49727759 64.5
-0.87652314 -2.0666111 0.52155215 67
-1.8254536 -1.9173255 0.52525026 47
-1.2112825 -0.99791914 0.45091194 6
-1.1856126 -1.0304626 0.46618959 4.5
-1.381562 -0.78680134 0.54225087 14.5
-1.3448806 -0.85314834 0.59289545 6
-1.5389038 -0.69311363 0.50961065 39
-0.42132708 -0.54604608 0.47101504 0
-1.2365648 -0.23691718 0.53427947 8.8571424
-1.1884702 -0.15850566 0.46746218 0
1.9038544 -0.17199391 0.45277238 19
-1.2204419 -0.085154921 0.55607349 0.16666667
-1.192735 -0.078738816 0.47142732 0
2.3541932 -0.084822327 0.55986392 17
2.461844 -0.055131026 0.46219182 30
-1.2434074 0.07766708 0.52831537 3
-1.1932486 0.0063737952 0.4857029 0
2.8439696 0.067307316 0.54071236 64.666664
-1.4174669 0.22207096 0.57321763 1
2.2563827 0.23407215 0.5067836 89
2.7805781 0.18965043 0.50210029 119
-0.57533079 0.32437247 0.46747798 0
2.1208642 0.40899405 0.5119592 150
2.3894408 0.34458205 0.59685278 61
2.4584582 0.402484 0.494077 57.5
-0.60509574 0.57455051 0.51375902 0
-0.59362364 0.5126406 0.50571454 0
2.2225988 0.53446537 0.55985683 45
2.6722412 0.52069283 0.56807232 150
2.7517755 0.59806389 0.55847031 73
-0.60904068 0.61274713 0.49290627 0
2.7424393 0.66131598 0.54173684 76
-0.6416595 0.81551033 0.51878828 0
2.7162826 0.82412583 0.54832387 76
-0.66600853 0.98743153 0.48777038 1
2.6844022 1.0016713 0.50010943 76
2.7044144 0.92847168 0.46316928 85
-0.69949263 1.1668961 0.59786111 1
2.6647491 1.1253523 0.52263647 76.333336
-2.1889589 1.3373754 0.47359741 4
2.6445291 1.2475988 0.51388729 76
-2.2046928 1.3624123 0.46995306 4
-0.70852536 1.3978364 0.47639126 7
2.6187778 1.4076039 0.54109669 77
-2.1115487 1.5326827 0.47219706 3
2.5912912 1.5800415 0.51845419 75.25
2.5657139 1.7211114 0.50830102 80
2.5329349 1.9130744 0.52717763 79
2.5502415 1.8293575 0.57702518 82
2.1680768 2.0099876 0.52985501 61.666668
2.3221207 1.9641002 0.55206513 35.25
2.138886 2.1809082 0.51473486 63.5
2.0958831 2.4406688 0.47345603 61
2.1016297 2.4152138 0.57314926 56
-1.0624927 3.4991844 0.53331602 1
2.2535515 3.6441684 0.45194674 63
2.2193718 3.8274536 0.53963935 62.5
2.2053962 3.9421647 0.55449033 61
1.7720852 4.5446076 0.58334154 7
-1.8636441 -2.1570854 0.69786221 150
-1.6854635 -2.1928806 0.65879565 52.5
-1.5815897 -2.1857219 0.64329201 64.599998
-1.3776616 -2.1532869 0.63843536 69.5
-1.2650256 -2.1340148 0.66759568 74.199997
-1.1226906 -2.1124964 0.63224208 81
-1.845823 -1.9843187 0.67262304 148.5
-1.6896317 -2.0649507 0.67676353 3
-1.0050876 -2.0810552 0.67793435 59
-0.86366314 -2.0562501 0.70144773 56.75
-1.9029584 -1.9201816 0.6478982 107
-1.7409127 -1.9293175 0.7222662 44.5
-1.2259521 -0.9530381 0.60549515 31
-1.4104036 -0.7884106 0.67289668 13.666667
-1.2981796 -0.82795721 0.7053293 12.125
-1.3215601 -0.73282468 0.71328294 23
-1.2459192 -0.22939897 0.61205691 0
-1.1852347 -0.16985984 0.72536922 7
-1.2357571 -0.066866182 0.68770808 11.4
-1.1773217 -0.10021119 0.72825587 6
-1.2669232 0.068085641 0.65429461 0
2.5772288 0.017335303 0.66438806 151
2.8343506 0.095440403 0.70328236 71.5
2.7254567 0.16835928 0.61536741 150
-0.5927577 0.52266175 0.69400388 0
2.7332978 0.70201355 0.63557303 79
-0.64746428 0.85661924 0.70196342 2
2.7134852 0.83686543 0.64861298 72
-0.66401935 0.98672456 0.64414394 1
2.6881621 0.98483533 0.64479548 77.5
2.7013969 0.92216426 0.61402637 73
2.6696899 1.103282 0.66460747 71
2.6433346 1.2705377 0.68320215 69.25
2.624114 1.3805643 0.7365486 68
2.5985906 1.5371841 0.66107625 71.333336
2.5703053 1.7212521 0.69397223 72.800003
2.5323133 1.9210892 0.70497423 75.666664
2.1740038 2.0400307 0.67120588 54
2.3144634 1.9635793 0.71448022 32.5
2.5013831 1.9948008 0.66747928 68
2.142658 2.1863875 0.65509284 63
2.0982382 2.3814235 0.67297566 58
2.1292291 2.2956297 0.68785328 63
2.1017883 2.4001219 0.63277721 67
2.2299449 3.7301457 0.74537063 56
2.2209125 3.7929301 0.65713334 56
2.2004285 4.0318885 0.62459612 63
2.1758752 4.1385593 0.65062928 63.5
1.3206742 4.3335843 0.61691076 1
1.3786521 4.2642207 0.65391898 15
1.7572613 6.1686807 0.66597915 0
-0.7828691 8.7076893 0.70268071 0
-0.60036278 8.7002516 0.73685026 0
-1.9574453 -2.1913137 0.7718302 139
-1.8661518 -2.2136786 0.77989912 46.666668
-1.7353512 -2.1765764 0.79674375 54
-1.5711039 -2.1800258 0.80967551 66.333336
-1.4164473 -2.1575358 0.81162965 68.199997
-1.3006214 -2.1471608 0.76308024 69
-1.1762683 -2.1179025 0.81120986 64.5
-1.8474754 -2.0008185 0.83574772 150
-1.6662388 -1.9883516 0.81660163 151
-1.093099 -2.0996773 0.89182031 70
-0.98978615 -2.083473 0.82366157 71.166664
-0.84370446 -2.052017 0.84010613 37
-1.8736013 -1.9269022 0.76472479 74
-1.2546357 -0.75930393 0.75925696 26
-1.3942856 -0.72681189 0.7998181 3
-1.3043658 -0.70602769 0.80562508 9.5
-1.2410023 -0.23635325 0.82339847 2.5
-1.146283 -0.21088171 0.81273407 2.2857144
-1.2277157 -0.025295522 0.8662371 4
-1.1463484 -0.088253841 0.80335963 5.5999999
-0.56258416 0.32877654 0.86517143 1
-0.58893716 0.5231297 0.78541541 4
-0.62644929 0.75550485 0.88880062 2
2.7241921 0.77738476 0.75726175 70
-0.64958131 0.91537327 0.84362018 0
2.6781342 1.0339442 0.80054939 66
2.7050762 0.90644848 0.77767801 65
2.6591952 1.1684535 0.83474112 65
2.6402142 1.3061453 0.87467384 67
2.6203139 1.4095871 0.77123308 78
2.6010225 1.540677 0.80282754 66.666664
2.5712698 1.6924659 0.86504823 72.333336
2.5450306 1.8637372 0.81041926 74.333336
2.1842151 2.0041995 0.84602261 52.200001
2.3314745 1.9633976 0.77040732 36
2.4477057 1.9844493 0.87311536 44.333332
2.1487646 2.1640294 0.81506604 61
2.1143389 2.3312695 0.76000834 62
2.0862699 2.4935312 0.8489182 62
2.0655835 2.5930779 0.81593829 52.333332
2.2477787 3.6654191 0.82490516 64
2.1643121 4.1665215 0.8789978 61
1.9589808 4.3454514 0.84821939 53
2.143712 4.2936716 0.78237426 65
1.8635931 4.3609052 0.88976145 16
2.0566263 4.3541069 0.79871231 74.5
-2.2750711 -2.2655799 0.97581524 150
-2.2294855 -2.2884655 0.96447718 58
-2.1085801 -2.1974185 1.0148156 150
-1.7288903 -2.1898484 0.9512592 75.5
-1.6085417 -2.181988 0.95657647 64.25
-1.4270822 -2.1550303 0.95805347 67.5
-1.2372861 -2.1190403 1.0125648 66.666664
-1.1316322 -2.1074927 0.96497375 63.333332
-1.6631575 -2.0308397 0.93398476 151
-0.99361312 -2.0863795 0.97494662 65
-0.54781061 0.35452911 0.90424037 1
-0.59070528 0.5370878 0.96169055 1
-0.61382973 0.6898073 0.96066791 2
-0.67160285 1.0425705 0.92909455 0
-0.68876946 1.1583536 0.99709988 0
2.6159401 1.4448981 0.92130136 68
2.5849707 1.585662 0.97425878 70
2.5647826 1.7371819 1.0412383 71
2.5412521 1.8717798 0.94139558 75
2.5537014 1.8125229 0.93184614 70
2.1912041 1.9792833 0.96799082 36
2.3223469 1.9654157 0.98852843 33
2.5137117 1.9896747 1.0113554 56.5
2.1524832 2.1573303 0.97077721 56.666668
2.1149917 2.3411508 0.94291449 60.5
2.0921373 2.4776309 1.0473808 57
2.0549068 2.7209635 0.98938143 53
-3.7780542 3.3547783 1.0393232 72
-3.3560648 3.4203753 0.94877493 38.5
2.2000194 4.0004616 1.0214568 62
2.1821132 4.0897622 0.95808065 58
1.4523767 4.2834015 1.0242951 10.5
1.8947814 4.3432789 0.97991955 17
1.8163629 4.469131 0.95242488 11
-2.0853477 -2.2571058 1.1210748 61.5
-1.8785375 -2.2216301 1.1243873 64.75
-1.7134907 -2.2033069 1.0665625 60
-1.587679 -2.1756403 1.1907239 60
-1.4138455 -2.1448064 1.1640043 56.5
-1.3056413 -2.1285 1.1209683 58.333332
-1.1547738 -2.1080754 1.1169611 52
-0.83752412 -2.057457 1.1089627 17
-0.4224796 -0.52047408 1.0630562 0
-0.55863148 0.33666661 1.0994562 1
-0.57910305 0.51256961 1.1700301 1
-0.60076296 0.61586577 1.061053 2
-0.59620762 0.60631168 1.1146241 2
2.5444758 1.8960636 1.1196618 69
2.1758442 2.0269175 1.0982785 49
2.4165735 1.9843581 1.1509924 35
2.1419623 2.2009354 1.1321108 55.5
2.1221759 2.3118904 1.0964838 56
2.1044776 2.4050987 1.0798674 54
2.0719547 2.621078 1.0987701 51.5
2.2480965 2.9861231 1.1370382 50
-3.8007846 3.3484149 1.0679063 73
-3.7243614 3.3608961 1.1665105 63.5
-3.5825982 3.3881695 1.1857928 73
-3.3692465 3.4153295 1.1131649 6
2.277597 3.5950511 1.1413754 40
-1.061649 3.7328262 1.1967626 0
1.3658344 4.2841868 1.0703236 9
1.9762335 4.3495021 1.0684299 67
2.0588994 4.3691335 1.1671239 69
-2.1898711 -2.2791572 1.3008654 4
-2.0534217 -2.2537751 1.248696 38
-1.970279 -2.2414224 1.2581582 53
-1.7203695 -2.196573 1.2900229 28
-1.483078 -2.1576352 1.267189 19
-0.95228457 -2.0865412 1.3490676 3
-0.40200138 -0.52585429 1.2531011 3
-0.5596621 0.34349382 1.2162715 1
2.1561303 2.1439548 1.2299426 55
2.1238914 2.3352876 1.2747765 52.5
2.0926075 2.5096402 1.2449 51.5
2.1056547 2.4373281 1.2680742 50.666668
2.080807 2.6015894 1.2543168 54
2.3328309 3.1873546 1.2054845 57
-3.76476 3.3644512 1.3481954 71
-3.6587708 3.3742332 1.2892019 65.666664
-3.5478163 3.3899455 1.293376 63
-3.3205719 3.4346373 1.2486202 1
2.3042026 3.3888533 1.2960494 58.25
-1.077026 3.4718602 1.2011884 1
2.2852502 3.5097866 1.2175407 56
1.3444126 4.3397903 1.2981588 2
1.4041868 4.2781873 1.3311753 1
1.8103008 4.4271808 1.316106 11
2.1407008 4.3661695 1.2501093 81
-2.0760679 -2.2544029 1.3538204 26
-1.8492323 -2.2162681 1.4015803 3
-1.1510178 -2.1095324 1.4612257 5.5
-1.084155 -2.0977504 1.4249994 3
-0.98194152 -2.0728602 1.4725776 49
2.1032927 2.5006282 1.488456 49
2.0821192 2.6358986 1.4231434 50.666668
2.0704787 2.714097 1.4159733 48
2.3359282 3.2510867 1.4550104 56
-4.1144819 3.3035021 1.4627571 56.5
-4.0158691 3.3409915 1.434648 27
-3.6527481 3.3764403 1.4569814 67.5
-3.5363343 3.3993759 1.4016678 65
2.308445 3.3534892 1.3678232 61
2.2975249 3.4774549 1.4090697 56
2.2811508 3.6109779 1.4711548 59
2.2425132 3.8246486 1.4561781 58
2.2212341 3.9127808 1.3904117 58
1.49615 4.3124423 1.4070494 0
1.8657658 4.3628054 1.3612361 16
-1.4564546 -2.1478035 1.6373197 35
-1.2683754 -2.1143491 1.6057462 40.75
-1.1180764 -2.097945 1.513027 37
-0.38850281 -0.51506585 1.6124529 3
2.339911 3.110029 1.5909116 42
2.3447709 3.2079067 1.5736363 54
-4.2172689 3.3055475 1.6159699 67
-4.0744109 3.3056912 1.5656598 68
-3.9701376 3.3279896 1.5624167 64.333336
-3.6239834 3.378849 1.6132659 67
-3.3545282 3.4443142 1.6465534 72
-1.0404505 3.5791068 1.5158857 10
-0.65238792 3.5542729 1.6154143 44
-0.14926663 3.6311688 1.6406547 72
0.053648215 3.6987095 1.5976915 17
0.55987233 3.7481711 1.5555382 1
2.2651949 3.6966302 1.5488645 60.5
-1.4621235 3.7653768 1.5828965 17
-0.83623993 3.8514948 1.6003516 49
-0.5538727 3.8772931 1.6231788 53
0.67821229 3.7782598 1.5856681 32
2.2543726 3.7933431 1.6458105 63
-0.46474877 3.9197383 1.6078347 57
-0.34279352 3.9404471 1.5734055 44.5
0.094960496 4.002748 1.5821095 69
0.30064785 4.0209966 1.5998644 45
0.51758242 3.9102297 1.6301121 3
2.009587 4.0030322 1.562279 57
0.32745582 4.0596423 1.5383919 9
0.49911517 4.0810113 1.5507869 3
0.83310086 4.1346221 1.5700276 9
0.9473117 4.1137543 1.6035317 14
1.2987795 4.2178507 1.5410068 58
-0.66858703 4.4832587 1.6480931 0
0.93084759 4.7609272 1.6008521 0
-1.981575 -2.239264 1.7641113 28.5
-1.7809259 -2.2102818 1.6980461 29
-1.4349055 -2.1429853 1.7355083 48.5
-1.3076205 -2.1232693 1.7143959 43
-1.1469319 -2.0927069 1.652943 45
-0.82885742 -2.0391994 1.7450552 42
-0.38869187 -0.49453366 1.7890359 4
-0.41246852 -0.4124437 1.7762288 3
-0.48561221 -0.019472653 1.7869803 13
-0.49055356 0.097076625 1.7745949 15
-0.49333188 0.2186776 1.7946414 18
-0.57536328 0.36282268 1.7735173 4.5
-0.63040549 0.7068457 1.7884804 60
-0.67140257 0.84270507 1.7920108 79
-0.67089045 0.98092675 1.7970446 51
-0.70201701 1.0729655 1.7891966 50
-0.35105836 1.4365797 1.7981651 72
-0.28989032 1.3679879 1.7986177 70
-0.66933459 1.5959942 1.7984346 55
-0.53822374 1.6077456 1.799951 69
-0.34320146 1.5711358 1.7946107 70.400002
-0.61899787 1.787974 1.794299 69
-0.50417286 1.7190739 1.7949686 68.5
-0.48251075 1.885422 1.7903087 70.5
-0.40723485 1.8627846 1.785277 63.799999
-0.82736617 2.0531952 1.7996455 26
-0.39714286 2.089345 1.778257 51
-0.78544426 2.14836 1.7952814 48
-0.72872174 2.234122 1.7918919 56
-0.6830101 2.3089359 1.79108 58
-1.2454231 2.4938684 1.7977287 1
-0.83995396 2.4119685 1.797521 79
-0.61900592 2.431608 1.79032 55
-0.56786633 2.5088031 1.7834439 55.333332
-1.2732086 2.5538445 1.7981538 1
-1.0113354 2.6012816 1.7974746 36
-0.73483199 2.6120281 1.7909645 57
-0.49341658 2.6397917 1.7902445 64
-1.160298 2.7874031 1.7943748 27
-0.81998795 2.7455842 1.7896863 60.5
-0.61482233 2.8212936 1.7828559 58
2.0772402 2.7020154 1.6503702 51
-4.7520351 2.8686907 1.7814747 70
-4.3605418 2.9540126 1.7312917 38
-3.9948084 2.9917974 1.7751676 74
-1.0925803 2.9193523 1.7889005 22
-0.9146713 2.8752337 1.7839447 91
-0.6603536 2.9198427 1.7783509 61
2.1218867 2.9461794 1.7178887 44
-4.2047038 3.0505009 1.7515572 22
-4.1344743 3.0709312 1.7490588 20
-3.7117195 3.0511584 1.7411561 56
-3.4663959 3.0925426 1.7306057 69
-3.3521247 3.1087716 1.707116 48
-1.2779907 3.087162 1.7854263 83
-1.0414302 3.0631366 1.7845272 36
-0.76062375 3.131402 1.7750031 58
-0.70623136 3.0367806 1.7867199 37
2.0194581 3.085897 1.722425 32
2.2210021 3.0478618 1.7203077 45
2.2940097 3.1219263 1.7177036 44
-4.5895686 3.2263145 1.7159802 39
-4.4349804 3.2483482 1.7423197 48
-4.1035938 3.2971978 1.7479903 30
-0.96362621 3.1994255 1.7756269 56.5
-0.5411306 3.2673473 1.7624608 55
-0.32242578 3.2740431 1.7592527 54
1.9419851 3.2104597 1.702679 30
2.1772554 3.2126663 1.7136382 46.666668
2.3470795 3.1586556 1.6606659 54
-3.9555221 3.3282533 1.6808666 55.5
-3.5566168 3.3780081 1.7368057 42.25
-1.1627729 3.3983481 1.786779 39
-0.91595763 3.378859 1.7755634 63
-0.89107293 3.3579211 1.7779878 65
-0.58278763 3.4107258 1.7709266 61
-0.33930033 3.4397898 1.7779146 32
-0.0025582195 3.309407 1.7735265 7
0.061559003 3.3321216 1.7487735 50
1.9443264 3.3457379 1.7034265 45
2.2633278 3.3460393 1.7034189 48
-1.2121516 3.4632692 1.7356414 51
-0.98253715 3.5062704 1.6550463 84
-0.81347072 3.5044868 1.7626786 81
-0.72330147 3.5443103 1.6808903 87
-0.36506605 3.5760069 1.7338847 72.5
-0.14287469 3.5476003 1.7592689 61
0.094484821 3.4852417 1.7515426 52.5
0.24180919 3.5509996 1.7478138 52
1.0913349 3.4914801 1.7184662 38
1.4519545 3.5531075 1.7297311 21
1.6343901 3.5807693 1.7144176 32
2.292387 3.5139635 1.6967999 48
-1.6221137 3.6940553 1.6592685 1
-1.3498375 3.7274792 1.7042521 12
-1.0511142 3.7427077 1.691646 44
-0.58864301 3.7240336 1.6674405 16
-0.14526463 3.641927 1.7288653 89
0.046323251 3.6708481 1.6652578 80
0.27865243 3.7139025 1.7090639 74
0.39459828 3.728447 1.7079061 77.5
0.50669098 3.7447557 1.7042934 85
1.419309 3.6948187 1.7126087 50.5
1.608539 3.6525185 1.7931305 0
1.7642784 3.6670446 1.7127216 48
1.8461251 3.6820633 1.7008177 52
1.9646919 3.7448251 1.7086846 49
-0.51983976 3.8498857 1.6874565 58
-0.14756982 3.8804231 1.6850153 34
1.7638741 3.8555031 1.7002839 50
2.0823262 3.8227272 1.7011526 50.5
2.1520903 3.8082745 1.7007684 53
0.091996834 3.9815295 1.6594146 50
0.27829367 3.9919715 1.6696192 56
1.7382271 3.9651852 1.6838969 67
2.1088884 3.9619775 1.6825229 55
1.0494163 4.1754799 1.650658 60
-2.2502594 -2.2809544 1.8654951 34
-2.1818764 -2.2593563 1.8770036 38
-2.2958858 -2.2419562 1.9109129 48
-2.1721721 -2.1384323 1.9135692 64
-2.0403519 -2.2237134 1.8637323 54.5
-1.7155242 -2.18645 1.8990134 65
-1.5583026 -2.1460371 1.8911887 65.5
-1.4617935 -2.1272819 1.862462 61
-1.3416594 -2.1334028 1.8817712 59
-2.3453867 -2.025665 1.9133329 60.333332
-2.2053056 -2.0836079 1.9110488 59
-2.0993025 -1.9713541 1.9105142 63
-1.8137867 -1.9543147 1.9019066 65
-1.6543263 -2.0359364 1.9030076 63
-1.5540718 -1.9767278 1.9045391 70
-1.4377142 -1.9523358 1.8913127 67
-1.0533934 -2.0685103 1.8761786 62
-0.95026058 -1.9693344 1.8856595 69.25
-0.87990421 -2.0182409 1.8422204 59
-2.270484 -1.8721724 1.915556 56.5
-2.2018042 -1.8826625 1.9128338 50
-1.7113588 -1.8707441 1.8988249 67.5
-1.6028709 -1.9203699 1.8954993 67.5
-1.1666722 -1.8867843 1.8847359 66
-0.99649304 -1.8856337 1.8831443 67.5
-0.84014076 -1.8621989 1.8768889 65
-3.7580445 -1.7288707 1.9443432 62
-3.5996692 -1.728606 1.9406854 62
-3.0076268 -1.6606609 1.9207543 64
-2.9424675 -1.6976414 1.9173158 56
-2.1693282 -1.7506691 1.908573 61
-1.8982446 -1.7279667 1.9016925 61
-1.7076634 -1.7129437 1.8927031 67.666664
-1.5873556 -1.7651 1.8964499 65
-1.2624702 -1.6977637 1.879974 68
-1.0869697 -1.7578733 1.8817341 73.25
-0.97980428 -1.7618279 1.8829383 72.666664
-3.9006755 -1.6238672 1.9472922 61
-3.5579953 -1.5288424 1.9355601 57
-3.3681459 -1.5788608 1.936373 58.5
-3.2391453 -1.5303735 1.9222429 58.5
-3.084939 -1.607691 1.9186889 54
-2.8511088 -1.5106282 1.9128786 59
-1.9667182 -1.5031575 1.8930849 36
-1.8342983 -1.5033039 1.8929361 54
-1.729442 -1.5473664 1.884835 36.400002
-1.5941987 -1.5889866 1.8886524 71
-1.3523227 -1.5192636 1.8827618 72
-1.2077214 -1.5992141 1.8832506 62
-1.1302 -1.5982012 1.8822746 75
-1.0118543 -1.5680585 1.8778523 70
-0.72657454 -1.5868729 1.8727082 60.5
-3.790231 -1.4085149 1.9377104 66
-3.6809323 -1.4112226 1.9444681 64.666664
-3.4869573 -1.4332799 1.934918 60
-3.3967431 -1.3530562 1.9437844 59
-3.0807898 -1.4078761 1.9347037 39
-2.9811695 -1.432706 1.9181405 38
-2.8448133 -1.4946643 1.9134952 67
-2.6857984 -1.4415524 1.9098541 60
-1.8872106 -1.4072382 1.8953952 57
-1.7079502 -1.3828262 1.8904448 70.666664
-1.2513795 -1.4272465 1.8813257 76
-1.1294516 -1.4409857 1.8816994 74.666664
-0.81890702 -1.4452522 1.8718324 79
-4.0590801 -1.2756107 1.942403 4
-3.94679 -1.304 1.9482924 6
-3.5938067 -1.2375522 1.9378568 4
-3.352977 -1.2600394 1.9414291 58
-3.1607006 -1.3487433 1.9447435 46
-2.8868814 -1.2580428 1.9118423 69
-2.5601192 -1.2782259 1.905763 55.5
-2.455574 -1.2651243 1.9082201 57.5
-2.3162487 -1.2027335 1.9052135 61
-1.8666135 -1.2904207 1.8889581 65.25
-1.724311 -1.2446618 1.8877581 67
-1.3945603 -1.3043442 1.8815737 73.5
-1.2895594 -1.2737949 1.8819772 77.75
-1.174073 -1.2842789 1.8810835 76
-0.93199342 -1.3448695 1.8741201 75
-0.8158381 -1.2755548 1.8750978 80.666664
-0.70174623 -1.2976667 1.8733249 85.666664
-4.2760816 -1.1600249 1.9495136 4
-3.5225446 -1.1319791 1.9288794 4
-3.4062717 -1.0753869 1.9322945 1
-3.1939299 -1.0761924 1.9380528 51
-3.0722766 -1.1623397 1.9250302 45
-2.7437184 -1.1912926 1.9139835 54
-2.6187284 -1.0899154 1.9093393 52
-2.4482074 -1.1139392 1.9060444 58
-2.3463004 -1.1291759 1.9051944 62
-2.0198052 -1.0913887 1.8880476 66
-1.8494016 -1.1531634 1.8921639 64
-1.7656082 -1.1334052 1.8896499 63
-1.4445883 -1.1346854 1.8811022 76
-1.2889465 -1.1219957 1.8810673 76.599998
-1.0789908 -1.05557 1.872764 80
-0.97591555 -1.1662486 1.8718679 77.5
-0.82911748 -1.1230347 1.8731089 89.599998
-0.69224751 -1.1529849 1.8768286 83
-0.59568942 -1.0828999 1.8731638 69
-3.0407453 -0.92341948 1.9126846 4
-2.9238017 -1.0208174 1.910369 70.5
-2.7817659 -0.94019461 1.9048201 62
-2.6028309 -0.9989385 1.9010998 66
-2.4642596 -0.96829855 1.8991671 63
-2.3643203 -0.95969576 1.897015 67
-2.0014281 -0.9620111 1.888213 63
-1.8795695 -0.95421147 1.8887795 69.25
-1.7868477 -1.0120527 1.8891705 68
-1.5578856 -0.99316937 1.8810171 75
-1.4388576 -0.95099056 1.8805388 75.25
-1.299395 -0.99198651 1.8813643 75.333336
-1.1409123 -0.91273159 1.8750616 82
-0.95998925 -0.96798044 1.8725749 87.666664
-0.81295395 -0.95861894 1.8706895 97.166664
-0.67585683 -0.99369192 1.8650291 86
-0.58403563 -0.90109873 1.8579245 79
-2.6551993 -0.81431198 1.9040811 32
-2.5390325 -0.82314825 1.8991882 67
-2.3642249 -0.79037601 1.8967832 69
-2.1374607 -0.87346905 1.8899437 64
-1.9852289 -0.78875846 1.8803563 68.666664
-1.848452 -0.82491136 1.8848976 67.5
-1.5540823 -0.80582362 1.8815255 73.333336
-1.4255689 -0.80741692 1.879539 75
-1.2838904 -0.826814 1.8847051 62
-1.063519 -0.86770934 1.8749238 85
-0.96322995 -0.81971288 1.8689623 101.33334
-0.82734746 -0.81000394 1.8657982 86.800003
-0.67054194 -0.80905735 1.8585329 79.599998
-0.55029869 -0.82544863 1.8534367 54.599998
-3.4975686 -0.72683376 1.9241711 6
-3.376147 -0.73242503 1.9258851 5
-2.4452534 -0.72632784 1.8947511 69
-2.1768777 -0.66919708 1.8860694 72
-2.0445685 -0.65083927 1.8842039 68.666664
-1.8765632 -0.68285912 1.882874 71.333336
-1.6556576 -0.65189457 1.8824996 71
-1.5665653 -0.63741124 1.8770992 70.5
-1.4249197 -0.67961961 1.8787149 73.599998
-1.2378122 -0.62434584 1.8702511 88
-1.1337166 -0.66687977 1.8701209 88.5
-0.9893896 -0.69027168 1.8628145 86.5
-0.82429391 -0.6769473 1.8581067 80.833336
-0.66102147 -0.67574704 1.8517479 83.599998
-0.54148537 -0.66467392 1.8491704 77.333336
-2.3778491 -0.59006739 1.8878776 70
-2.2071974 -0.46564344 1.8779093 74
-2.0395103 -0.55702174 1.886289 41
-1.9184611 -0.57813001 1.8824435 71
-1.6898661 -0.48035949 1.8766626 65
-1.5627049 -0.48469594 1.8741753 76
-1.4235911 -0.53851861 1.8789563 74.25
-1.2766415 -0.48070654 1.8702508 82
-1.1082156 -0.5158338 1.8607246 78.5
-0.96652097 -0.53925717 1.8568894 77.199997
-0.81356239 -0.50789124 1.8533751 81
-0.6801312 -0.53241158 1.8496556 83.666664
-0.5315488 -0.51848477 1.8473942 78.75
-0.4292765 -0.49272546 1.8443373 27
-2.4008963 -0.39808843 1.8935004 14
-1.5927343 -0.32969585 1.8733672 85.25
-1.4530401 -0.3775011 1.8772136 86
-1.2631637 -0.33479226 1.8631237 87
-1.116694 -0.38057342 1.8599046 77.5
-0.99394196 -0.36964756 1.8550349 79.428574
-0.82694066 -0.37175444 1.850081 80
-0.67885637 -0.36428764 1.843577 76.5
-0.53745061 -0.38289055 1.8449773 72.14286
-0.43434292 -0.33805922 1.8047942 5
-1.5779657 -0.18296909 1.8714432 86.25
-1.4548075 -0.2644875 1.8743861 93.5
-1.2848201 -0.19532077 1.8547434 85.5
-1.1230862 -0.22414845 1.8544425 80.5
-0.97780848 -0.2073389 1.8494308 78
-0.82983679 -0.22818303 1.8450724 80.875
-0.68318653 -0.21877785 1.8443977 79
-0.53015047 -0.21661039 1.8338068 57.285713
-1.6625392 -0.078396246 1.8685861 77
-1.5562286 -0.057086855 1.8694887 85.5
-1.4323865 -0.071182854 1.8688557 97
-1.3032091 -0.055978615 1.853743 88
-1.1214221 -0.074515335 1.8522898 83
-0.96870363 -0.07948184 1.8450251 81.25
-0.82502568 -0.071415454 1.8411944 77.777779
-0.67879975 -0.076302789 1.8388703 82.428574
-0.50853539 -0.090380639 1.818481 43
-2.2678077 0.13918412 1.8646621 76
-2.1479971 0.095982581 1.8669968 79.666664
-2.0244205 0.092943601 1.8663214 80.666664
-1.9009038 0.1438861 1.868749 78
-1.7176998 0.019655013 1.8674766 77.5
-1.5682163 0.089465678 1.8656336 84.25
-1.3978541 0.11260178 1.8612772 96.5
-1.2778653 0.07126195 1.8580443 99
-1.1176134 0.065598458 1.8468004 81.5
-0.94987279 0.066306978 1.8404535 78.800003
-0.83861458 0.073450506 1.8385489 79
-0.66313666 0.065132014 1.8391435 84.222221
-0.55566132 0.043745551 1.8320652 77
-2.1409278 0.26890725 1.8628016 82.5
-2.0198369 0.24395013 1.865468 78
-1.7094532 0.17550409 1.8636347 80
-1.5761065 0.23929295 1.8625685 86.25
-1.3982346 0.25280717 1.8574427 92
-1.2341931 0.22473204 1.8474387 84.333336
-1.09883 0.21370254 1.8392807 76.5
-0.9551422 0.23801222 1.8365381 79.25
-0.83061057 0.22313711 1.8336329 77.777779
-0.66755056 0.23268113 1.8346338 82.125
-0.56715667 0.21587798 1.8284311 51
-2.4180686 0.36950591 1.8716365 32
-2.2791257 0.3439002 1.8648289 77
-2.1796532 0.38034981 1.8615739 71.5
-2.0386927 0.38629356 1.859538 82.333336
-1.897061 0.30451706 1.8624653 78
-1.7139959 0.34163225 1.8610293 82.666664
-1.5579132 0.36978421 1.8558369 84.666664
-1.4030423 0.39622509 1.8719217 55.5
-1.2487185 0.38876718 1.8455971 88
-1.0958196 0.34131807 1.8382037 78
-0.96688503 0.38892242 1.8337064 79.5
-0.82343286 0.37581331 1.8308082 76
-0.6650539 0.36533067 1.828487 77.5
-0.48810226 0.3463037 1.8205345 55.5
-2.7302001 0.49693504 1.8780631 10
-2.6402881 0.4645853 1.8739486 72
-2.4690781 0.53493917 1.8645265 43
-2.2820029 0.55084413 1.8597568 80
-2.1731246 0.50236952 1.8607455 81
-2.0207496 0.53787291 1.8565804 84
-1.8917525 0.4663386 1.8587145 80
-1.7109776 0.51095003 1.85638 87
-1.5771697 0.50560582 1.8582984 86
-1.4191036 0.53396881 1.8538254 87
-1.278704 0.52992475 1.8458195 95.666664
-1.1303062 0.50042248 1.8340058 74.5
-0.9842059 0.53093863 1.8305281 76.5
-0.83789504 0.53002828 1.8273863 78
-0.74012005 0.52623403 1.8227664 61
-0.52479619 0.53750765 1.8191496 53.799999
-2.5207868 0.7163803 1.8578211 8
-2.1723268 0.67975587 1.8579593 80.333336
-2.0377409 0.69101888 1.8570747 77.666664
-1.8812366 0.62954891 1.8540379 80
-1.7011653 0.68273276 1.8521367 85.333336
-1.5937461 0.67851323 1.8522601 85.666664
-1.4493463 0.64030409 1.851159 84.5
-1.2999272 0.65753138 1.8446535 87.5
-1.1433142 0.6576277 1.8335282 87.333336
-0.97558594 0.67945939 1.8236804 78.333336
-0.61643332 0.68453425 1.8003613 53
-0.53608149 0.67695636 1.8175573 70.800003
-0.43118072 0.69018495 1.8145139 81
-4.9750624 0.85841882 1.9211737 60
-4.9190745 0.82124537 1.9272214 57
-4.6500578 0.88200247 1.9440659 30
-2.7794812 0.86947984 1.8639179 59
-2.4068637 0.76118505 1.8603977 78
-2.2821307 0.76508999 1.8595871 74
-2.1475506 0.8596521 1.8502704 82
-2.0714724 0.85498214 1.8550705 72.5
-1.870237 0.79796022 1.8545312 76
-1.6767104 0.84266573 1.8487862 86
-1.5980573 0.83926141 1.849074 87.25
-1.4284153 0.78224963 1.8428029 70.5
-1.2794179 0.80534649 1.8407241 86
-1.1257116 0.7978003 1.8356123 94.666664
-0.6515975 0.82905161 1.8128066 66
-0.53522843 0.83011514 1.8160105 64
-0.39604279 0.82883036 1.816275 83
-4.3617482 1.0216992 1.911517 66
-4.0899324 1.0300146 1.9254957 23
-3.1506231 1.0346193 1.8669058 16
-2.9623766 1.0412254 1.8700054 85
-2.8027432 0.98309594 1.8690386 67
-2.6667395 0.91589218 1.8671539 58.5
-2.4625678 0.95056784 1.8613786 61
-2.2728341 0.9826684 1.8558549 76
-2.2046132 0.9297092 1.8541721 76
-2.0949631 1.0136535 1.85155 81
-1.8961453 0.94561374 1.8444167 82.5
-1.6957237 0.96190667 1.846145 87
-1.5759069 1.0075808 1.8399847 84.5
-1.4073099 0.93052077 1.8449942 89.5
-1.2501116 0.95501244 1.833778 82
-1.1327326 0.94747281 1.8295076 7
-0.67796701 0.96586394 1.8082702 58.75
-0.51837558 0.96665752 1.8138705 74.14286
-0.39127237 0.98116148 1.8145235 58.75
-4.5895443 1.1976109 1.9193212 75
-4.2437449 1.1730298 1.9060599 69
-3.9538596 1.1580951 1.9037308 70
-3.8059165 1.1862832 1.8921305 65
-3.376462 1.1717443 1.883602 45.5
-2.7428713 1.1443729 1.8648765 60.5
-2.6472087 1.1482216 1.8614348 32
-2.5113025 1.1583109 1.8544203 56
-2.3894548 1.1756537 1.8577393 80
-2.1590745 1.0937225 1.849669 74.333336
-2.0273807 1.0884807 1.8435546 73
-1.8783345 1.1293808 1.8466879 77
-1.705883 1.0863879 1.8390199 83
-1.588378 1.1548438 1.8379556 84
-1.4246525 1.0648737 1.8376108 86
-1.3301592 1.0947868 1.8435532 81
-0.75831527 1.0736982 1.807916 94
-0.67439699 1.1382428 1.8149232 64
-0.52549332 1.1353115 1.815647 85.714287
-0.39267623 1.1138464 1.8193213 60
-0.28571844 1.1130692 1.8078707 79
-5.0095387 1.2357144 1.9189095 63.5
-4.6673813 1.2418092 1.9171871 66
-4.5459337 1.2439253 1.9168283 67
-4.352829 1.2233709 1.9130646 69
-4.2648716 1.2280514 1.9082574 64
-4.0605431 1.2034163 1.9049581 69
-4.0267835 1.2066001 1.8979503 61
-3.8018923 1.322579 1.8848335 87
-3.6795444 1.2347803 1.9018574 37
-3.5665643 1.3167205 1.8819284 73.5
-3.361455 1.3233582 1.8764833 81
-3.1648459 1.3073738 1.8686036 80
-2.9627686 1.3031046 1.8659942 81.5
-2.8078532 1.2354318 1.8614882 78.5
-2.2550154 1.2045555 1.8490447 75
-2.1249001 1.2861578 1.8445936 76
-2.0490134 1.2584269 1.845269 70
-1.8982718 1.3051045 1.836686 79
-1.7362559 1.2990851 1.8397027 78
-1.5797151 1.2425932 1.8381492 78.666664
-1.436016 1.2148441 1.8330165 81.5
-0.77088207 1.3267162 1.8037297 70
-0.67837018 1.2822951 1.8171953 66
-0.53010488 1.2890295 1.8132734 76.285713
-0.38552678 1.2549411 1.8086147 77.166664
-0.26977643 1.2858467 1.8369803 60.333332
-4.4131021 1.3898946 1.9070719 69
-4.0817556 1.3554661 1.893886 68
-3.9945147 1.4819287 1.8975867 69
-3.4865401 1.495822 1.8876897 52
-3.3449793 1.4441693 1.8768348 82
-2.7534845 1.4235741 1.8550205 63.333332
-2.6388631 1.3985285 1.8588766 31
-2.4973371 1.3909304 1.8497642 72
-2.3733985 1.3944494 1.8551825 76
-2.2101464 1.4037408 1.8502866 81.5
-2.0810413 1.4344207 1.8382586 70
-1.5938301 1.4148763 1.8390079 62.666668
-0.78606737 1.4324299 1.8083659 63.5
-0.65488601 1.4511648 1.8091279 52
-0.53473175 1.4112922 1.8109392 73.25
-0.37822026 1.3874254 1.8045745 72.75
-0.2058547 1.4384619 1.9048902 70
-0.11220157 1.4841552 1.8950073 70
-5.0602388 1.6364164 1.9184567 63
-4.7271676 1.6305834 1.9093403 67
-4.6158171 1.6037256 1.9094932 67
-4.4073796 1.5833803 1.904004 65
-4.3059893 1.5567268 1.9024143 66.5
-4.0964251 1.542159 1.8953927 68.5
-3.8297491 1.5484321 1.8981359 61
-3.611042 1.5775769 1.892936 48
-3.3723104 1.6292609 1.8713821 76
-3.1717699 1.5925804 1.8661352 81
-2.9591622 1.5762128 1.8617198 77
-2.8414779 1.5278778 1.8534197 73
-2.6079638 1.6491251 1.8414353 38
-2.4800017 1.6359282 1.8479964 73
-2.3469131 1.6178962 1.8471185 71
-2.1434293 1.5649914 1.8474246 77.5
-2.0245872 1.5032861 1.8344653 70
-1.8652065 1.5052778 1.834267 76
-1.7607332 1.5044624 1.834205 79
-0.9819895 1.6160855 1.8140498 0
-0.61579651 1.5582403 1.8074852 69
-0.52047527 1.5378603 1.8046421 71.333336
-0.42131299 1.5443053 1.8009433 72.5
-0.22009349 1.5766186 1.8857297 65.333336
-0.091202803 1.5812488 1.8915676 71.5
-5.1231179 1.6840887 1.91702 61
-4.4537234 1.7756636 1.8948652 70
-4.1264429 1.7141798 1.89192 71
-3.8587525 1.664786 1.896098 64
-3.6129322 1.6743901 1.8885931 54
-3.3799405 1.7514707 1.8687686 73
-2.7547798 1.6976476 1.8503429 38
-2.1529913 1.7210829 1.8418208 74
-2.059664 1.706072 1.8379699 73
-1.8800997 1.7238444 1.8349482 41.5
-0.98644543 1.7038789 1.8093628 1
-0.32002991 1.7838395 1.8872923 40
-0.22647749 1.7064734 1.8913944 76
-0.10143355 1.7250923 1.8875879 68.333336
0.039190125 1.7504126 1.8835642 71
-4.3516512 1.9001545 1.8949677 67
-4.1634321 1.9091816 1.8931226 63.5
-3.9829168 1.8408034 1.8877735 66
-3.7741797 1.9283532 1.8756715 63
-3.6131358 1.897755 1.8731418 66
-3.4940884 1.8061932 1.8651975 54
-3.1755049 1.895049 1.8628131 83
-2.9464068 1.861789 1.8522265 75.5
-2.8366961 1.8143413 1.8476719 70
-2.5836444 1.9215952 1.8345557 76
-2.4533942 1.8895146 1.8411292 75
-2.3163126 1.852699 1.8392228 75
-2.1439714 1.8870518 1.8355035 70.5
-2.0516601 1.9153323 1.8341175 5
-0.85710651 1.8701351 1.8105484 24
-0.32125065 1.8539668 1.8905078 66
-0.20300692 1.8595704 1.8889722 70.333336
-0.081099093 1.8702103 1.882906 70.333336
0.078397222 1.8817927 1.8816699 68.166664
0.23880996 1.9461079 1.8754262 62
-5.140873 2.0858958 1.9125408 63
-4.8021646 2.0505443 1.9038793 62
-4.7014508 1.9843798 1.9006461 66
-4.6369796 2.0420163 1.9000641 60
-4.4198895 1.9747431 1.8957959 66
-4.1708927 2.0995286 1.8880297 68
-3.8611624 2.0023277 1.8724817 72
-3.5997772 2.0095198 1.8621207 69
-3.3999016 2.0198381 1.8642961 68
-2.750747 1.9894346 1.8439997 34
-2.0280812 1.9975967 1.8266002 12.5
-0.91426784 1.9707881 1.801901 28
-0.81032455 2.0119886 1.8040774 37
-0.35505557 2.0666339 1.8861128 51
-0.27123383 2.0319664 1.8826824 62
-0.043717716 2.0083764 1.8788928 69.5
0.089709982 2.0300701 1.8752356 66.571426
0.22460313 2.0637352 1.8736494 62.25
0.35460109 2.0694349 1.8715388 64
-5.2075772 2.1425557 1.9123253 60
-4.5163064 2.1982775 1.8921577 65
-4.1048579 2.2090194 1.8902897 65
-4.0006123 2.237355 1.8837751 66
-3.6494677 2.2320518 1.8674401 60
-3.5260546 2.1544287 1.8598622 63
-3.1713824 2.2140062 1.8546916 72
-2.9393156 2.1737466 1.8508011 74
-2.8379226 2.1278319 1.8508598 34
-2.5551245 2.2121699 1.8294317 70
-2.4189401 2.1584377 1.8340157 70
-2.2821922 2.1036079 1.8336517 83
-0.93155718 2.2209928 1.802195 39
-0.33905327 2.1398354 1.8820647 60.5
-0.21826246 2.1937802 1.8762269 59
-0.12730365 2.1259716 1.8795222 62
0.080964327 2.1682696 1.8684551 69.5
0.23214872 2.1860442 1.8695518 67.166664
0.37621903 2.1746445 1.8701836 67.333336
0.48431093 2.1982238 1.8694595 63
-4.5435061 2.3929331 1.8867384 71
-4.4192195 2.3105092 1.8920473 70
-4.2322311 2.3090701 1.8873714 63.5
-3.9096835 2.3920448 1.8764924 67
-3.7992325 2.3145802 1.8752419 66
-3.627346 2.3388968 1.8663543 66
-3.3765628 2.2973294 1.854679 65
-2.7424405 2.3055713 1.8392934 36
-1.0079772 2.2830503 1.8028463 38
-0.21143685 2.3093195 1.8750868 61
-0.057198793 2.3334291 1.8756188 65.666664
0.22512621 2.2944865 1.8688459 70
0.37476611 2.3154233 1.8673424 61.833332
0.52788079 2.3306935 1.8660879 60.599998
0.65024364 2.3492818 1.8589278 53.5
-4.8581562 2.4837823 1.9099084 46.5
-4.7048535 2.4957569 1.898157 64
-4.4290462 2.4006255 1.8909785 65
-4.2126498 2.5144405 1.880298 64
-3.515842 2.4979854 1.8590094 59
-2.9630539 2.4555709 1.8455585 70
-2.8236809 2.4598923 1.8458632 30
-2.5256522 2.5344756 1.8320798 5
-0.90808392 2.4908082 1.8000556 36
-0.069777921 2.4553251 1.869887 60.400002
0.078667685 2.4818048 1.865357 63.333332
0.38121191 2.4118149 1.8618087 66
0.53168315 2.486366 1.8570961 59.333332
0.66423273 2.4540131 1.8596587 59
0.82034373 2.4860134 1.8515829 57.5
-5.2951608 2.638788 1.9034227 52
-5.2261305 2.5730312 1.902104 53
-4.5852537 2.6622164 1.8893405 64
-4.1176786 2.6377623 1.8793933 63.5
-3.6776445 2.6550136 1.8703005 62.5
-3.3850276 2.6807437 1.8530077 62
-3.1637695 2.5603201 1.8471414 65
-2.8826292 2.5550787 1.8462309 30
-2.7338121 2.6074073 1.8322533 59
-2.6817052 2.6168725 1.8303863 66
0.082759462 2.6187263 1.860768 61.599998
0.22951429 2.639039 1.8592335 63.666668
0.6961264 2.59886 1.8526449 57.799999
0.83903992 2.6623414 1.8538971 58
0.97384155 2.6131122 1.8447723 59
1.1087697 2.6360817 1.8418593 58.5
-4.476707 2.7512674 1.8773803 69
-4.300395 2.742389 1.8754675 63
-3.9425063 2.806567 1.8680488 67
-3.8190088 2.7326922 1.8709372 64
-3.6370077 2.8118722 1.8556293 66
-2.9549837 2.8101587 1.845318 34
-2.7753153 2.7564623 1.8286188 28
-0.46013021 2.8221118 1.8724711 59
0.25215727 2.7834058 1.8494844 62.799999
0.39611316 2.7956572 1.8483425 65
0.77684802 2.7163765 1.8732775 62
0.96904528 2.7765954 1.8367637 56.599998
1.1191162 2.7914841 1.8339422 54
1.2830129 2.7208984 1.8370699 52.666668
1.440195 2.8274097 1.8280772 48
1.5369811 2.8068571 1.8376279 51.5
-5.1442189 2.9987428 1.8111116 26
-4.7819204 2.8675213 1.8491505 83
-4.6280947 2.8779626 1.848652 81.5
-4.4980769 2.8671937 1.8842102 78
-4.2206736 2.9410911 1.8501159 81
-4.100574 2.9760342 1.8000923 76
-3.6033411 2.9652848 1.8530599 63
-3.5138407 2.8650751 1.8557302 63
-3.1525526 2.9369667 1.8387042 63
-1.4342682 2.9616895 1.9027604 1
-0.37819296 2.9252896 1.8673666 58.5
0.42504787 2.9271221 1.8441054 58.333332
0.53625894 2.9413829 1.8412161 60
0.61441648 2.9802935 1.839485 59
1.1383272 2.8693016 1.8405308 48
1.2731122 2.9334936 1.8418618 42.75
1.3832026 2.9437416 1.845512 50.5
1.6020193 2.9914424 1.8271054 49.5
1.7107036 2.9187493 1.8288975 44.5
1.8011379 2.8638856 1.835194 51
2.0193019 2.9472284 1.83365 26.5
-5.2211952 3.0777454 1.8170229 34
-3.6578269 3.0439901 1.8331118 79
-3.365957 3.0807459 1.8345982 75
-0.31050789 3.0580411 1.8649982 55
-0.27198499 3.0859509 1.8606942 58.5
0.44739056 3.0178332 1.84454 61
0.54741287 3.0165107 1.8419122 56
0.62808502 3.0593057 1.8380238 57.5
0.78313428 3.0587189 1.8384243 56
1.2047902 3.0307686 1.8490807 57
1.4848905 3.067024 1.8349376 45
1.5892123 3.069478 1.8352717 47.75
1.7506669 3.1336343 1.8220929 47.5
1.8716167 3.1017437 1.8244797 51.400002
-4.4612832 3.1761305 1.8183516 29
-0.50023246 3.2373428 1.8637346 47
-0.18292096 3.188988 1.8577267 55
-0.1199971 3.2798619 1.8660156 77
0.67040604 3.1900795 1.8350898 52.333332
0.82476115 3.1988072 1.8358783 57.75
1.0024989 3.2362995 1.8298939 53
1.4528823 3.180825 1.8283092 46
1.7558215 3.2360389 1.810527 50
1.9242296 3.2724762 1.8228418 54
1.9980965 3.2400525 1.8166691 23
-0.097014621 3.3528581 1.8507537 45.5
0.8826465 3.4256637 1.8294414 54
0.9547143 3.371968 1.8292896 49.666668
1.0857748 3.3614609 1.8266832 51.666668
1.2481625 3.4184246 1.8202661 53
1.7331319 3.3384976 1.8117772 51
1.278867 3.5226336 1.8261362 61
1.4176513 3.5881307 1.8217567 69
1.5298686 3.6184924 1.815914 69
-3.9813452 -1.960483 1.9565536 39
-4.2439795 -1.8452107 1.9636563 49.333332
-3.9211898 -1.9333882 1.9542321 49.5
-4.6871166 -1.7191623 1.9660326 50
-4.5956626 -1.7207568 1.9641374 50
-3.6712232 -1.7039614 1.9511428 58.5
-4.2486577 -1.5087376 1.9582111 67
-3.9782112 -1.6066628 1.9521604 63
-4.6407471 -1.3509545 1.9634608 67
-4.2951422 -1.4843887 1.9618496 65
-4.5614042 0.88756788 1.9543713 1
