# .PCD v0.7 - Point Cloud Data file format
VERSION 0.7
FIELDS x y z intensity
SIZE 4 4 4 4
TYPE F F F F
COUNT 1 1 1 1
WIDTH 1065
HEIGHT 1
VIEWPOINT 0 0 0 1 0 0 0
POINTS 1065
DATA ascii
-0.49893746 -0.5025776 -0.17798276 6
-0.42824134 -0.49810672 -0.16387081 5.5
-0.17212448 -0.48365191 -0.16191819 5
0.07698594 -0.45742282 -0.18254593 8.6000004
0.21266975 -0.45293 -0.16510162 8
0.25958154 -0.44398788 -0.1764129 8
0.38783297 -0.43588769 -0.1694531 7
0.52110964 -0.4313992 -0.17668183 6
0.63475347 -0.41989678 -0.16939373 6.5
0.76919049 -0.41111261 -0.16943169 5.5
0.93563026 -0.39733607 -0.16837099 5
1.143064 -0.37584895 -0.16415247 26
1.4739357 -0.3548516 -0.15124466 19
1.7776747 0.04582487 -0.17504676 53
2.251755 0.35078964 -0.19702314 90
2.2465127 0.4861778 -0.18236527 87
2.232069 0.6470449 -0.17798349 91
2.2207625 0.82681108 -0.16714206 99
2.2036371 1.0140798 -0.18797967 89.5
-0.42755961 1.3442166 -0.17371899 3
0.20422381 1.2301861 -0.18793245 4
0.48131305 1.2530308 -0.16735679 5
-0.49160451 1.3613038 -0.17416838 1
-0.41688636 1.387888 -0.19374515 0
-0.12778428 1.4527177 -0.19042851 1
2.1813843 1.4263965 -0.15028924 77
-0.64004505 1.5073824 -0.18522358 1
-0.52889293 1.5403552 -0.17369683 3
2.1607778 1.5790024 -0.19269633 80
0.92901832 1.7400172 -0.17054856 30
1.7979407 1.9202977 -0.15553805 73
-0.78257895 2.3909576 -0.1905217 1
-0.33871016 2.6214156 -0.17746113 25
0.15682785 2.8684714 -0.17911616 17
2.0570557 2.9593384 -0.1710759 57
-1.1821693 3.1084244 -0.15202287 20
0.45516586 3.7631536 -0.18924037 111
0.61669731 3.7761233 -0.18613832 109
-0.78493923 -0.5179742 -0.047839686 2.3333333
-0.65446019 -0.5093528 -0.064204805 3.6153846
-0.52224803 -0.5032382 -0.085185893 5.4400001
-0.37510067 -0.49436831 -0.066217832 5.5555553
-0.22827342 -0.48068991 -0.070723228 5.4736843
-0.13693742 -0.46820986 -0.056691013 4.5
0.083548971 -0.45694208 -0.080982514 8.3529415
0.1910931 -0.45221967 -0.07261645 8.636364
-0.27738312 -0.44967738 -0.029728865 6
0.077800393 -0.43882906 -0.0050335424 6
0.24204828 -0.4435949 -0.065272011 7.6666665
0.36623001 -0.43772411 -0.07908605 7.1111112
0.51969028 -0.43007687 -0.073891521 6.318182
0.66808689 -0.41811186 -0.079051673 6
0.80954218 -0.4057864 -0.079245321 5.3333335
0.93714827 -0.39330846 -0.07714121 4
1.1331583 -0.37842438 -0.069926858 11.142858
1.2269081 -0.37241673 -0.021743631 1
1.4357601 -0.35639787 -0.089323908 26
1.5109549 -0.35484105 -0.0044498788 19
1.8948412 -0.32419387 -0.047733232 20.333334
1.9661303 -0.31775895 -0.1232295 18.5
2.302422 -0.23115751 -0.055375464 82.400002
2.2897635 -0.091740556 -0.071619682 84
1.7783784 0.052758772 -0.032631662 49.5
1.8331339 0.011067667 -0.093242072 133.5
2.018894 0.12988423 -0.084780402 153
2.2684574 0.22489975 -0.076422401 92.333336
2.2578557 0.37753305 -0.078613713 88.599998
2.2488201 0.57061779 -0.0099149691 89
2.252429 0.50699049 -0.080927804 83.75
2.2396719 0.65604562 -0.086559258 87.666664
2.2239442 0.81121904 -0.089330807 85.599998
2.2123489 0.97335804 -0.08088506 85
-1.1236854 1.159031 -0.013385658 21
0.20744844 1.1862669 -0.021085495 0.66666669
2.1985548 1.1308064 -0.080625176 84.75
-0.42334741 1.3316429 -0.037935812 3.5
0.36475375 1.2897848 -0.041508239 5
0.47474018 1.3139139 -0.062243521 5.4000001
2.1885657 1.2606786 -0.073964216 86.75
-1.1455438 1.398 -0.014219379 18.5
-0.53814757 1.4446321 -0.084930129 3
0.51958579 1.3573118 -0.024337446 5.6666665
0.61964786 1.3853709 -0.058555327 2.8
2.1777334 1.4233234 -0.068256833 79
-1.162339 1.6490308 -0.043156747 2
-0.62243181 1.5944521 -0.0033208476 6
-0.54686201 1.5363619 -0.094548114 5
2.1680207 1.5870979 -0.057555236 83.5
-1.166863 1.6898376 -0.010464942 0.5
-0.66885942 1.6554025 -0.0082581388 4
0.34309471 1.7539015 -0.1104713 21
0.95358497 1.7386428 -0.12334172 27
1.8207822 1.7351899 -0.072826721 18
2.077774 1.7351928 -0.076590277 50
0.38924685 1.8836892 -0.12419944 7
-1.1968499 2.0341623 -0.066485979 0
-0.85432106 2.0912454 -0.11762852 12
-0.039539866 2.0189478 -0.10888434 13.5
0.22743537 2.0657966 -0.042111192 64
0.31976882 2.0111597 -0.069868922 31
1.7836641 2.0184975 -0.14518952 66
-0.85646552 2.1599233 -0.082044192 9.333333
0.28403145 2.1003869 -0.017236298 75
1.7735226 2.1841896 -0.094170816 69
0.089530066 2.3187499 -0.11141051 9
1.7654265 2.3006427 -0.090992726 64.5
-1.2076067 2.4933248 -0.064966828 2
1.7557921 2.4764316 -0.032150615 59.5
-1.2375269 2.6223094 -0.041567389 4
-0.3496781 2.6381049 -0.12723753 23
2.0415521 2.8961835 -0.086207069 136
-1.2351443 3.1935294 -0.10073332 29.799999
-1.2457999 3.3050878 -0.035988826 24.5
0.21732821 3.7414582 -0.056538139 135
0.39621052 3.7600415 -0.085158937 102.33334
0.52082002 3.7740891 -0.096756555 120
-0.91347384 -0.52742988 0.08542233 2.75
-0.82694143 -0.51419806 0.076102287 3.4000001
-0.67020214 -0.51178044 0.07462737 3.9310346
-0.51425695 -0.50116903 0.077719413 3.48
-0.36845556 -0.48915431 0.08658772 3.652174
-0.23615167 -0.47990265 0.086093687 4
-0.14193909 -0.47604689 0.10992657 5
0.095669404 -0.45591655 0.01246667 7
0.16619726 -0.45037836 0.0048869802 6
-0.17481786 -0.43451336 0.089850627 3
-0.078140453 -0.43521565 0.054031543 2
0.050937247 -0.43961412 0.0027925624 9
0.59619319 -0.41998503 0.003975655 5
0.6740793 -0.41639644 0.014540801 5
0.82529128 -0.40414652 0.028067613 4.5
0.99383318 -0.39131954 0.025164993 3.5
1.1314224 -0.37684238 0.07072407 19.666666
1.2648678 -0.37391922 0.075461097 17.666666
1.4240204 -0.35530862 0.038492184 27
1.5591278 -0.34880042 0.07379847 21.666666
1.7835141 -0.32342181 0.050516196 25
1.8601217 -0.33048081 0.071088694 17
2.0338624 -0.31585664 0.072287433 17
2.3070862 -0.23638375 0.10191571 76
-1.1348902 -0.12130975 0.12574847 3.3333333
2.2967944 -0.083037749 0.081387423 80
-1.121056 0.040529195 0.11811014 0
1.7802856 0.031218985 0.071269177 49.75
1.8500228 0.1024095 0.10361301 150
2.2759101 0.21655186 0.083386995 81.400002
-1.0725505 0.37472191 0.090616815 0
-1.0391591 0.40123081 0.099800467 0
2.2635221 0.36495838 0.085327722 82.5
-1.0878524 0.53542197 0.11382852 5.7142859
2.2482932 0.57820046 0.122339 83
2.2559412 0.47738853 0.084445238 81.666664
-1.0955181 0.67843342 0.11374128 5.5
2.240839 0.67619032 0.060454845 85.75
2.257127 0.61690485 0.11155181 85
-1.1035682 0.82498509 0.11420196 5.7142859
2.2332661 0.78824997 0.085801244 89.5
-1.1141993 0.97589153 0.11395387 5.3333335
2.2160449 0.96909827 0.052261993 80.666664
-1.121822 1.1212631 0.11880376 16.5
0.21074514 1.1761835 0.014202544 0.5
2.207793 1.1215713 0.072960481 83.75
-1.1293309 1.2716954 0.11668543 17.857143
-0.40991956 1.3112504 0.0096749915 3.5
0.25273809 1.2233359 0.031875845 0
0.37069878 1.2526972 0.059858918 3.4000001
0.51156783 1.2776351 0.12119021 2.5
2.1951005 1.3070937 0.050454352 81.666664
-1.1381278 1.4219817 0.055306345 9.125
-0.5101577 1.4387864 0.07871592 3.7777777
0.64824635 1.3511196 0.083829634 1
2.1813352 1.4579594 0.074603602 82.400002
-1.169276 1.6157532 0.12172407 2.5
-0.60052633 1.5201154 0.14243478 6
-0.58024836 1.5109916 0.097005256 5.5
2.1703033 1.6015778 0.060885899 74
-0.72609669 1.6700197 0.034091827 2
1.8308345 1.7315704 0.068466105 33.333332
2.0193057 1.7326072 0.09728191 52
2.1587684 1.6863686 0.083104573 76
1.8029972 1.924953 0.057517715 66
0.33529752 2.0495963 3.3254622e-05 26
-0.8868469 2.1964254 0.081372268 5
0.25411016 2.1346357 0.073648579 37
0.33234954 2.1283126 0.049872961 53
1.7878373 2.1429243 0.11809554 59
-0.88622153 2.262296 0.12272423 5
1.7664294 2.3873377 0.0089640869 64
-1.2224005 2.4056256 0.11908769 2
1.7570996 2.4818363 0.036850926 66
-1.2335231 2.5945694 0.025746876 3
-1.2620232 2.7710464 0.055078454 5.5
-1.5665611 2.9861505 0.11921024 0
-1.2965512 2.958509 0.11205494 4
2.061866 2.9989946 0.1294651 70
-1.2758675 3.064337 0.11063904 2
2.0513318 3.2112722 0.14117545 60
0.0083053531 3.998647 0.10580017 28
-0.91055995 -0.52931476 0.22446521 1.3333334
-0.8274166 -0.51964772 0.22057381 2.2857144
-0.68725675 -0.51243329 0.22637922 3.4666667
-0.53540528 -0.50177163 0.21656527 3.6190476
-0.38406143 -0.48667502 0.22148181 2.6956522
-0.24505165 -0.47498387 0.20093645 2.7142856
-0.14623801 -0.4692305 0.15618211 3
1.2621821 -0.37068859 0.23576218 24
1.4041253 -0.35575593 0.18410145 25.666666
1.5995053 -0.34600025 0.18558884 19
1.7610259 -0.3305499 0.24248385 19
1.8748825 -0.32088667 0.15571356 19
2.0710232 -0.31521896 0.22479492 16.333334
-1.283022 -0.16011928 0.26174134 4
2.3089304 -0.23845601 0.21502717 75
-1.2496673 -0.062672772 0.26194689 0.66666669
-1.1582891 -0.063725032 0.17909324 3
2.3004754 -0.094680399 0.19291878 75.599998
-1.2069558 0.064420335 0.27119064 0
-1.1744125 0.055202045 0.20977126 0
1.770516 0.038721159 0.23185752 46.666668
1.8758862 0.099942073 0.19182891 158
2.1778171 0.0060988208 0.26836181 150
2.2898693 0.0034234109 0.19685996 79
-1.0958909 0.17096642 0.22194213 0
-0.97475994 0.21515259 0.22626215 0
2.2774923 0.23183152 0.20647343 77.285713
-1.0663766 0.36935437 0.18882695 0
-1.0328667 0.39078507 0.23070164 0
2.2657945 0.38360858 0.21654801 82.199997
-1.0852318 0.52472198 0.22398315 5.6875
2.247484 0.54296511 0.19171226 78
2.258182 0.51516926 0.23239884 77.400002
-1.0919402 0.66229391 0.22575636 5.5714288
2.2429199 0.67907846 0.22746496 85.199997
-1.1014503 0.81685555 0.22935808 5.4000001
2.2296169 0.8348856 0.21587165 85
-1.1098642 0.96234733 0.24007137 5.1111112
2.2232506 0.97312802 0.23657033 80.5
-1.1153511 1.1102794 0.26019582 18.333334
0.44425786 1.1821632 0.18103576 1
2.2075253 1.1786138 0.25381476 80.666664
-1.1252198 1.2543073 0.23411044 16.5
0.29097816 1.2475108 0.28581938 3.5
0.38293958 1.2827371 0.26358581 1.3
0.47322065 1.2834479 0.23761535 1.25
2.2006385 1.2883091 0.2184907 72.666664
-1.1194392 1.4202627 0.23746683 1
-0.63702953 1.4661171 0.18450099 1.5
-0.5222168 1.4536736 0.22451597 5
-0.42104423 1.425765 0.2676934 3.6666667
2.1921239 1.4303057 0.24368969 76.5
-0.64506316 1.5568528 0.16182721 5
2.1782618 1.636162 0.20701164 71
1.8289185 1.7519249 0.20107479 51.25
2.0318463 1.7325 0.21811086 51
2.1572199 1.6953279 0.17821696 69.5
1.8065593 1.8901614 0.22240776 65
1.7983561 2.0133598 0.26710981 70.5
-0.91664577 2.1669545 0.18375301 5
1.7910984 2.1167946 0.24296281 56
1.7751169 2.3790989 0.24059546 60
-1.2540702 2.803956 0.1844852 3
-1.6021495 3.0574784 0.16062623 0
2.0580978 3.0981009 0.17424676 66
2.0598724 3.1814213 0.22729108 64.5
2.0460868 3.3369992 0.28301197 62
-0.05186791 3.9975979 0.22336221 24.75
1.1994555 4.1111212 0.25166535 12
1.2653922 4.089788 0.22088414 23
-1.7456175 -0.60005766 0.44308501 7
-1.6861954 -0.51669091 0.39984393 42
-1.5104467 -0.47791892 0.37260824 36
-1.4879518 -0.49038106 0.39864936 7.5
-0.91116261 -0.53000152 0.41549417 0
-0.83923608 -0.52543241 0.37860382 0.8888889
-0.67753077 -0.51621431 0.38067701 1.75
-0.52238834 -0.50383824 0.35924399 1.9230769
-0.38117421 -0.48945612 0.36983839 2.25
-0.2769717 -0.47813067 0.34238529 1.6666666
-1.7024996 -0.33993918 0.41312987 15
-1.5564779 -0.36365438 0.4179298 45.666668
1.5347488 -0.34921691 0.31234628 21
1.7543015 -0.32461303 0.3220768 25
1.9400902 -0.32251048 0.4301061 17
-1.526866 -0.28226951 0.39024493 31.25
-1.4427761 -0.2063798 0.31365168 2
2.3091118 -0.22905616 0.35596901 66.400002
-1.353792 -0.1466662 0.36309522 8.5
-1.2736348 -0.054734915 0.37234804 3.6666667
1.9715459 -0.044949092 0.40311927 92
2.286902 -0.070116453 0.35807362 92.25
-1.2116486 0.08362814 0.37469575 0
-1.1966591 0.063921109 0.32949114 0
1.7680516 0.041128185 0.33451837 40
1.8101971 0.13157386 0.34679037 150
2.2678118 0.14491494 0.4412626 149
-1.2195786 0.20748061 0.40304247 2.8333333
2.2781036 0.22785228 0.36815149 73.5
-1.0600289 0.37137675 0.42038801 0
-1.0227119 0.40999112 0.31213933 0
2.2661877 0.38343975 0.33604881 77
-1.0749825 0.51383054 0.40344527 4.3333335
2.2535491 0.5395807 0.36210617 78
-1.0880816 0.66831517 0.3765437 4.875
2.2432392 0.67096281 0.32966086 79.333336
2.2515259 0.65224606 0.40756655 72
-1.0944803 0.81767142 0.38518071 4.25
2.2349744 0.81142104 0.37423587 78.75
-1.1066027 0.96770412 0.38575551 3
2.2248306 0.97932839 0.37690574 72
-1.1204879 1.1143489 0.32402772 10.5
2.2144864 1.1180152 0.36394599 76.833336
-1.1286249 1.2919453 0.3521719 14.25
2.2031152 1.2743772 0.36906448 75.199997
-1.1201613 1.3970313 0.37138441 7.5
-0.49459115 1.4216509 0.31999436 2.8333333
2.193352 1.4209232 0.37270939 75.25
-1.1573644 1.6175725 0.32508007 2
2.1833053 1.5961521 0.38753647 70.800003
1.860692 1.7336138 0.37684298 40.333332
2.0629172 1.7346888 0.37441629 44
2.1626856 1.7210345 0.40592563 69
1.8155787 1.9302589 0.41018611 62
1.7959481 2.0745568 0.36119765 59.5
1.8053553 1.9643576 0.33695406 60
1.7902271 2.1696167 0.40493169 64
1.7805072 2.3118124 0.36884519 60.666668
-1.229162 2.652442 0.41928011 0
-1.2576478 2.9302976 0.39328873 2
-1.2628392 3.0791721 0.42533523 0
-0.059979904 3.9998877 0.35933739 32
-1.7427104 -0.63106352 0.50155699 12
-1.6934569 -0.51002818 0.55794537 38.75
-1.6381733 -0.49606463 0.50966543 1
-0.81923139 -0.52331519 0.54213035 0.22222222
-0.64404488 -0.51357734 0.54652083 0.40000001
-0.51934201 -0.50320256 0.53275788 0.2
-0.39082035 -0.48980135 0.52581799 0.2857143
-1.68885 -0.38963369 0.54003829 51.142857
-1.6142796 -0.42472735 0.4756158 5
-1.7119796 -0.28808719 0.56597108 9.5
-1.3330036 -0.15462239 0.56818795 1
2.19716 -0.25070584 0.49720788 150
2.3032887 -0.20847069 0.48682109 62.333332
-1.2816133 -0.070880063 0.50229537 6.875
-1.2309973 0.064758681 0.51324332 0
-1.2339342 0.23485658 0.53600436 8.875
2.272552 0.27708945 0.49659181 67
2.268425 0.37484539 0.47968495 68.5
-1.0771004 0.53824621 0.50061882 5
2.258271 0.51676321 0.48810318 70.333336
-1.0825484 0.6686511 0.50325519 3.75
2.2425623 0.70872033 0.52833712 76
2.2523513 0.61026859 0.53197509 69
-1.090269 0.8072018 0.48310837 5
2.2374611 0.82475209 0.5561744 74.5
-1.0990516 0.96163613 0.50028437 10.666667
2.2275438 0.97601998 0.5037936 62.75
-1.1074929 1.1081858 0.51506847 12.5
2.2130578 1.1723187 0.54046595 69
-1.1223671 1.2848361 0.54423857 10.2
2.2050807 1.2921226 0.49172699 75.25
-1.1150845 1.417431 0.56203771 5
2.1940048 1.4441407 0.50773263 72.599998
2.1853004 1.5937316 0.54687363 69.75
1.8496985 1.7361078 0.54921079 35.25
2.025912 1.7301008 0.52861118 42.5
2.1815472 1.6968119 0.53730655 70
1.8195411 1.8618321 0.52664441 60.666668
1.8047957 2.12466 0.53385091 59
1.7831794 2.3178523 0.48039186 60.333332
1.7719342 2.4643402 0.56009436 51.666668
2.0819671 2.9919562 0.57817429 49
-1.2632178 3.0514016 0.53205991 2.5
2.0767834 3.0446935 0.49585593 58
-2.211904 3.8509834 0.49132049 0
-2.0696301 3.8609848 0.59548378 6
-1.7205518 -0.49184808 0.63067591 25
-0.86868083 -0.52432936 0.68928403 1.6
-0.68317103 -0.5122726 0.69688869 0
-0.50466037 -0.49784181 0.69098645 0
-0.40844914 -0.489108 0.64976662 0
-1.714516 -0.3801218 0.65008491 44.833332
-1.6300856 -0.35894996 0.69628584 37.200001
-1.7538414 -0.26011598 0.63873863 2
-1.2799684 -0.094514862 0.60505027 14
-1.2603916 0.068130128 0.6808936 4.8571429
-1.2660484 0.19698709 0.62013137 2.5
-1.0562063 0.37025124 0.66094077 2
-1.0336407 0.37286517 0.69680893 1
-1.066666 0.52327055 0.6847747 3.625
-1.0721995 0.65278649 0.70038271 16.333334
-1.0831683 0.79761064 0.68449831 15.25
-1.0949432 0.98796535 0.69765007 11
2.2291532 1.0049179 0.60940963 68
-1.1085073 1.1597077 0.72251582 10
2.2158031 1.127116 0.65049267 72.5
2.2070022 1.271438 0.67665416 67.333336
-1.1310987 1.3711683 0.64014924 10
2.1950269 1.4516392 0.66757512 64.5
-1.148263 1.6164953 0.65108919 2.6666667
2.1898286 1.5930481 0.64948338 70
-1.1490793 1.6728325 0.62545669 0
1.8572488 1.7386909 0.64475524 33.5
2.041748 1.7285706 0.70320708 39
2.1378264 1.7227054 0.65312171 50.25
1.821249 1.86933 0.68944615 58
-1.2000908 2.0191154 0.74273157 0
1.8087223 2.0264835 0.6790508 55.400002
1.7999911 2.163475 0.74919915 55
1.7910988 2.3335798 0.67755628 54
1.7731595 2.5166116 0.60647947 132
2.0818474 2.9391494 0.66142523 69
-1.7149135 3.0425501 0.70885086 0
-2.1066182 3.8600657 0.62688291 1
0.029881399 4.0053401 0.73325205 11
-0.78108913 -0.5178206 0.8368479 1.75
-0.65594411 -0.50878263 0.85500586 0
-0.52574813 -0.49901432 0.82987618 0
-0.41162911 -0.47737092 0.75322652 0
-1.5816262 -0.37390298 0.81806296 20.5
-1.6637994 -0.29738998 0.76327145 11
-1.6128383 -0.28955907 0.85325956 6.5
-1.2530793 -0.050631572 0.81283551 1
-1.1430455 -0.013044007 0.83242863 1
-1.2242364 0.076345198 0.79012436 5.5
-1.1810445 0.068470888 0.80691832 11
-1.1718447 0.17440048 0.85428894 2
-1.0620446 0.57566357 0.812011 28.5
-1.0780147 0.72318983 0.77622414 6.5
-1.0813339 0.82206875 0.78747272 10.75
-1.0898974 0.95904446 0.81045121 8.166667
-1.0997114 1.0994354 0.83291906 8.333333
-1.1108582 1.2260022 0.80887663 8
-1.1263199 1.4148258 0.80736089 0
2.2031441 1.3922125 0.76167101 64
2.1925468 1.5539154 0.81296414 64
1.8853248 1.7268676 0.79740256 37
1.9982164 1.7258141 0.89665675 36
2.1562328 1.7407243 0.8274743 46
1.8278245 1.8638943 0.83442354 52.666668
1.8167286 2.0226655 0.84308439 51.25
1.8076997 2.1700234 0.85248673 48.25
1.7990297 2.2703114 0.81479979 52.5
-1.2294375 2.7185745 0.82110441 0
-1.2444217 2.9792857 0.89804959 0
-1.7226191 3.069798 0.78721684 0
2.0863299 3.0587294 0.82975137 61
2.0702467 3.1975656 0.84097916 52
2.0684254 3.309968 0.76988733 48
-2.3500915 3.8407185 0.79002702 6
-2.1173325 3.8508854 0.79565394 6
0.0078987302 4.0008888 0.84495628 13
1.2196999 4.1350179 0.88446021 7
0.75518841 8.8002195 0.83525491 0
-0.80221671 -0.52293265 0.91822803 1
-0.66144317 -0.51136512 1.0070453 3
-0.52749395 -0.49736166 0.9936738 2.2
-0.43123159 -0.49172065 0.94120908 4
-1.0527867 0.35879347 0.95696318 1
-1.0581332 0.52350795 0.99268138 11.25
-1.0645692 0.66902328 0.9475776 25.5
-1.0767705 0.82436574 1.0184748 10.5
-1.1035728 1.1624229 0.9123292 9
-1.1112589 1.2812833 0.90936464 8
-1.1174122 1.3809494 0.96630591 5
-1.1464008 1.6074674 1.0374248 0
-1.1435685 1.6809313 1.0394065 0
1.8421962 1.7380056 0.91784573 39
2.0429091 1.7153412 0.9372896 32
2.190954 1.6848919 0.91136056 63
1.8316387 1.8645535 0.98659945 52
1.8235782 2.0077646 1.0084889 48.666668
1.8059466 2.191098 1.0306823 42.5
1.7939991 2.3239188 0.97655505 47.400002
1.7858568 2.4628232 0.97068089 43.333332
2.103931 2.9656878 1.0308541 49
-1.2671429 3.2716677 1.0077896 0
2.0765307 3.1855054 0.91772431 53.5
2.0625124 3.3309934 0.98966742 52
-1.2726146 3.5425069 0.96633661 2
2.0414679 3.553056 1.0479766 38
-1.2505308 3.801528 1.0309184 16
-0.045111179 3.99669 0.93243861 17
1.2659909 4.0903945 0.95551652 5.6666665
-0.54735976 -0.50290173 1.0989754 2
-0.41737825 -0.4864099 1.0773435 3.5
-1.034743 0.35770804 1.1589606 0
-1.053604 0.5193007 1.1035862 26.666666
-1.0488747 0.47141767 1.195381 33
-1.0614166 0.66216767 1.1196251 26.6
-1.0685023 0.82376647 1.1504596 38.333332
-1.0785544 0.94865316 1.1141717 41
-1.0877476 1.0541215 1.0812039 10
-1.1505302 1.6878487 1.1537077 0
-1.1741128 1.97719 1.1844498 0
1.8211381 2.0571694 1.1438128 46
1.8104266 2.1775646 1.1492219 43.333332
1.7952733 2.3434765 1.1910094 49
1.7824464 2.4827847 1.1459965 42.5
-1.2818179 3.3841879 1.166571 0
2.0689087 3.4261315 1.06907 59
2.0475442 3.4810886 1.0960472 38.666668
-0.031006712 3.9928687 1.0653049 26
-0.38738924 8.7234907 1.1862741 0
-0.15407145 8.7344084 1.1462008 0
-0.80056953 -0.52544725 1.3288893 2
-0.31199181 -0.47466117 1.2113845 5
-1.0536226 0.5900529 1.2222795 37
-1.0475872 0.526214 1.3060375 28
-1.0619695 0.72306204 1.2661926 39
-1.066969 0.81115818 1.2544559 35.333332
-2.7279689 0.91058564 1.2218983 0
-1.0770314 0.97621948 1.2600117 33.400002
-1.0904595 1.1550684 1.2192522 31
-1.0977607 1.2559264 1.2622386 14.5
1.8107179 2.2367883 1.2847977 43
1.7986534 2.3228123 1.2360542 41
1.8012526 2.3290818 1.3366239 43
1.7934666 2.4108956 1.2051591 43
2.1035006 2.964175 1.2918791 48
2.0900145 3.206223 1.2845771 49.5
-0.65267372 8.7204523 1.2704506 0
-0.19740307 8.7250357 1.2700517 0.5
-0.7565124 -0.5439415 1.3596505 2
-1.04132 0.48481542 1.4164814 30
-1.0547111 0.67416131 1.3847599 34
-1.0493574 0.62563008 1.4959128 31
-2.4632022 0.83963907 1.4579351 3
-1.0634958 0.8474201 1.4889303 23
-1.0873463 1.127274 1.3921378 45.25
-1.0981424 1.2712643 1.3850995 18
-1.1132566 1.4320219 1.3784431 0
-1.1301802 1.6370616 1.3933512 3
1.7927933 2.4605823 1.3959283 33.333332
1.8000743 2.4366198 1.480314 42
2.112612 2.9837031 1.4114382 49
2.0969923 3.0831375 1.4134709 48.5
-2.2979186 3.8229547 1.4169569 5
-2.0557065 3.8519239 1.4725244 0
-1.0422437 0.51928651 1.5951705 23.5
-1.0522498 0.66947883 1.5935698 39
-1.0616564 0.794976 1.6094817 36
-1.1261269 1.458814 1.5887469 3
2.0937879 3.2465563 1.5959283 52.666668
2.1018286 3.1505203 1.5620604 54
2.0857675 3.3565912 1.5994105 49
2.0764036 3.5210655 1.5475149 51
0.85781115 3.6916549 1.6363126 2
1.1849324 3.7037537 1.6474229 38
1.3179768 3.7198949 1.6481551 52
-2.018486 3.8653626 1.5953643 0
-1.0069745 3.9040561 1.6468896 3
0.065145254 3.9694324 1.6352816 35.5
0.22269751 3.9782212 1.6339734 20
1.6347035 4.0747228 1.6422724 22
-0.22572978 8.7225227 1.518059 0
-0.94056267 -0.45054054 1.7922703 5
-0.69082224 -0.45333579 1.7933046 3
-0.48474765 -0.56250632 1.7909243 38.5
-0.34621742 -0.56054616 1.7816464 19
-0.96649933 -0.33708456 1.7886473 3
-0.60099864 -0.41397962 1.6932431 2
-0.3958945 -0.38807175 1.6866595 2
-0.99371392 -0.22411515 1.7999674 2
-1.1653395 0.43399119 1.6747209 4
-1.0278769 0.52846605 1.7906734 16
-1.0539681 0.74670464 1.7392749 26
-1.0442256 0.65816021 1.7243475 23
-1.0604475 0.83903164 1.6909713 30
-1.0463874 0.81722319 1.7972063 18
-1.0680313 0.9855203 1.7343019 23
-1.0845677 1.0753983 1.6578838 33
-1.1686157 1.3958945 1.6750981 18
-1.205286 1.5379605 1.7397462 23
-1.1715572 1.6648775 1.790783 6
1.7456847 2.8282218 1.7803878 35
1.8612275 2.8057029 1.7856402 47
1.9434392 2.9609742 1.7715114 46
2.0056884 2.9156439 1.7729968 45.25
2.1172111 2.9383428 1.6533371 39
1.9222612 3.0584083 1.7642349 48
2.1137168 3.0395625 1.672583 50
1.713532 3.2934756 1.7834297 34
1.9034479 3.1631057 1.7646166 50
2.1046042 3.1560471 1.6582683 50
1.7066472 3.3443761 1.7857008 29.5
1.884196 3.3509459 1.7801235 51
2.0387294 3.404002 1.7607145 53
-1.3516645 3.527354 1.770698 25
-1.2475326 3.5398793 1.7513064 36.5
-1.0572729 3.5474854 1.7631351 95
-0.46557182 3.5902092 1.7827221 96
1.6257203 3.5081429 1.7759593 50
2.0117402 3.4976044 1.7765253 52.5
-1.4575207 3.7315483 1.7927359 2
-1.1869229 3.6388729 1.727878 12
-0.22404785 3.610019 1.7223997 62.400002
-0.00060428976 3.6179845 1.7116166 77
0.65455383 3.6733406 1.7980522 86
0.96977758 3.6906915 1.6985581 64.75
1.1158985 3.7051468 1.7297837 71
1.9705503 3.6505201 1.7730657 48
-2.1349704 3.8168135 1.7707664 7
-2.0168242 3.8539791 1.6947846 4
-1.9145107 3.8087561 1.7901264 7
-1.2302264 3.8970513 1.6586612 18
-1.1273972 3.8378568 1.7454226 52
-0.89349777 3.8649352 1.7367502 54
-0.23571371 3.8944573 1.7671412 59
-0.05891788 3.8710089 1.7552764 40.5
0.015030694 3.8708351 1.7593874 39
1.9592249 3.7761278 1.7645198 70
-0.92461854 3.9134331 1.6594857 4
-0.047623772 3.9486172 1.6731569 67
0.028986957 3.9469595 1.6788504 28
0.23154272 3.9413793 1.7145838 45
1.2983458 3.999964 1.6942743 35
1.4186106 4.0052819 1.7261902 43
1.1952401 4.052258 1.6503769 73
1.5771346 4.0579619 1.7027293 31
0.38459256 4.5694332 1.7371551 0
0.55448353 4.5815735 1.7451926 0
1.145467 8.8102131 1.6618751 0
1.332202 8.8237362 1.7161754 1
1.5242307 8.8460035 1.7562827 0
-4.5841951 -2.5654054 1.9498283 59
-4.2097869 -2.6372652 1.9368688 58
-4.0897202 -2.56163 1.9343373 59
-4.4666433 -2.4951565 1.9392396 57
-4.1250587 -2.4022634 1.928676 53
-3.9184783 -2.3359885 1.9357408 61
-3.7795 -2.2531221 1.9223045 60
-4.5882192 -2.141439 1.9449002 58
-4.2269669 -2.241322 1.9409782 59
-4.1116161 -2.1767833 1.9366449 60
-3.8821554 -2.1388934 1.9258217 59
-3.6414914 -2.2308044 1.9134685 55
-3.5686057 -2.2202976 1.9126748 54
-4.4863768 -2.0882719 1.9429792 57
-4.1573334 -2.0225105 1.9351152 63
-3.9238465 -1.9730366 1.9322201 60
-3.6542392 -2.0622969 1.9252173 59
-3.4909842 -1.9932098 1.9179268 59
-3.3328488 -1.9747211 1.9041706 60
-3.2615976 -1.9694604 1.8996662 56
-4.2465515 -1.869424 1.9449362 61
-4.1331167 -1.8149552 1.9392914 66
-3.8043044 -1.911338 1.9252616 57
-3.6337624 -1.8917953 1.9184054 60
-3.4318335 -1.8715303 1.9073881 55
-3.0082846 -1.8522353 1.8934022 55
-3.9062567 -1.7871773 1.9248825 64
-3.8960965 -1.7800256 1.9252356 60
-3.66697 -1.739329 1.928641 63
-3.507185 -1.6843255 1.9204631 59.5
-3.3746991 -1.678203 1.9081539 61
-3.294142 -1.6667256 1.9054803 57
-3.1361747 -1.766165 1.9027373 61.5
-2.9114888 -1.7354866 1.8912951 55
-3.9319501 -1.6331074 1.9299048 61
-3.8232136 -1.5845658 1.9226977 64
-3.6502717 -1.5700183 1.9158685 61.5
-3.4649935 -1.5548779 1.9085227 60
-3.0724335 -1.5990486 1.8959048 60
-2.7429724 -1.5438489 1.888046 48.5
-2.6167045 -1.5843459 1.8856751 53
-3.5199292 -1.3889477 1.9200809 67.5
-3.3660102 -1.3832865 1.9102701 66.5
-3.1606781 -1.4869866 1.9014419 65.5
-2.958607 -1.465114 1.8940569 59
-2.5693104 -1.4021451 1.8344926 16
-2.5027142 -1.4376006 1.8747633 26
-3.4940193 -1.2521665 1.9085151 73
-3.1804636 -1.2596253 1.9017731 69
-3.0273597 -1.3063483 1.8953089 65
-2.9960635 -1.2016661 1.8933982 71
-2.7863054 -1.2913666 1.8903254 61.5
-2.6641612 -1.2735763 1.8913451 58.5
-2.4639292 -1.2880256 1.8869319 59.5
-2.3273573 -1.2305262 1.8847798 54
-3.4799719 -1.1072162 1.9211007 76
-3.3909523 -1.1015537 1.9090978 70
-3.2033043 -1.05975 1.9035243 73
-3.0388687 -1.054354 1.8985554 68
-2.8558855 -1.0923204 1.8955778 62
-2.6333718 -1.1368392 1.8925902 58.5
-2.4816692 -1.0949613 1.8888909 62
-2.1642647 -1.1062559 1.876545 62.666668
-2.0231788 -1.17827 1.8685284 38
-3.2135196 -0.9620105 1.9056565 71.5
-3.0411057 -0.94814807 1.9013413 66
-2.759995 -0.99666619 1.8967077 63
-2.6069691 -0.95289648 1.8975731 64
-2.5101748 -1.0248314 1.8914839 64
-2.3202081 -0.97737205 1.8827844 63
-2.0247016 -1.0021738 1.8743891 64
-1.9007914 -0.91753191 1.8704098 66
-2.7073689 -0.85818219 1.8923877 63
-2.4843338 -0.82338667 1.889511 66
-2.1587756 -0.84667206 1.8791183 66.666664
-2.0144079 -0.83845711 1.8795779 67.5
-1.8143805 -0.86814398 1.8656696 64
-1.683226 -0.82570714 1.8648915 71
-1.5565172 -0.8854121 1.8616302 45.5
-1.2450241 -0.81909311 1.8501791 0
-1.1666974 -0.7946701 1.8513623 56
-1.0487522 -0.75306439 1.8485299 61
-2.31197 -0.74512231 1.8843766 64
-2.208966 -0.69385815 1.8779604 73
-2.0248652 -0.65267342 1.8719424 80
-1.9055567 -0.71126068 1.8813984 47
-1.7258931 -0.6634385 1.8744491 53
-1.5863488 -0.72417337 1.8653831 71.5
-1.4379805 -0.726197 1.8627886 72
-1.2379364 -0.6553483 1.8590631 75.333336
-1.1017855 -0.7012859 1.8463989 47
-0.96807069 -0.71859831 1.8478748 29
-0.80141473 -0.67903757 1.8309392 38.75
-0.68734992 -0.64508879 1.8224123 48
-0.52262372 -0.63629049 1.8063145 55.400002
-0.42975432 -0.64473951 1.8001631 77
-3.5102243 -0.57266474 1.9239103 4.5
-3.3525286 -0.5150786 1.9182682 5.5
-3.2710433 -0.51746565 1.9137944 9
-2.4821448 -0.59109843 1.88543 64
-2.3462729 -0.54562414 1.8847002 72
-2.2076948 -0.52260953 1.8797475 75
-1.9908869 -0.51920533 1.8768975 70.5
-1.8494825 -0.50545806 1.8698969 71
-1.7245629 -0.49747777 1.8686897 76.5
-1.5647398 -0.54465753 1.8681929 71.5
-1.4481117 -0.5617339 1.8658873 73
-1.282779 -0.5234791 1.8601347 88.400002
-1.1273451 -0.48545662 1.8490664 77
-1.0407689 -0.46698657 1.8431355 68
-0.81980652 -0.53291959 1.8330871 32.42857
-0.69575906 -0.53503138 1.8293521 26.6
-0.53882265 -0.50304097 1.8202293 22
-0.3762441 -0.49101028 1.8209165 16
-3.2201147 -0.44135293 1.9133683 5
-3.119103 -0.44695157 1.9158212 5
-2.9647965 -0.38859633 1.902572 5
-2.7454798 -0.39846548 1.8971893 62
-2.5832028 -0.4082979 1.8942069 72
-2.5000362 -0.3837851 1.8876013 69.5
-2.3264008 -0.33628905 1.8822176 79
-2.1609502 -0.37353769 1.8800071 70
-2.0286903 -0.37380397 1.8755455 77.666664
-1.8775868 -0.33335429 1.8706719 79.5
-1.7215347 -0.35150144 1.8705087 82.333336
-1.5484171 -0.38073078 1.8690988 79.666664
-1.3974864 -0.40441692 1.8616935 81.5
-1.2889177 -0.35467669 1.860963 100
-1.127095 -0.35287976 1.8489845 74.75
-0.96732402 -0.37562495 1.8398161 27
-0.82068384 -0.37527132 1.837292 80.111115
-0.68256789 -0.36972353 1.8330444 86
-0.5522185 -0.36939123 1.8310064 79.25
-0.42400458 -0.33277884 1.8241054 83
-2.6421912 -0.29616961 1.8982278 7
-2.5143127 -0.17741731 1.8898883 70
-2.2128425 -0.23557526 1.8824539 46.5
-2.0569818 -0.21139014 1.880603 48
-1.9002935 -0.16065323 1.8716112 74.5
-1.7390442 -0.18902571 1.8718947 82
-1.561396 -0.22890002 1.8701216 83
-1.4228282 -0.25932658 1.8620615 93.5
-1.3110193 -0.20121461 1.859849 92
-1.1435455 -0.22550935 1.8511462 80
-0.95229733 -0.22046082 1.8400695 47.25
-0.80704468 -0.22805707 1.8380328 82.166664
-0.68177348 -0.22410502 1.8322529 81.285713
-0.52971876 -0.23138547 1.8275493 78.199997
-0.44373706 -0.25410199 1.8248979 77
-2.3552346 -0.14365074 1.8846915 77
-1.6823013 -0.064093255 1.8724936 85
-1.5697803 -0.077646077 1.8722068 84
-1.4136597 -0.083205186 1.863474 96.333336
-1.3072237 -0.04360082 1.8548996 85
-1.1472552 -0.079335287 1.8531164 79.199997
-0.96852809 -0.079625584 1.8394015 36.142857
-0.81323177 -0.067967579 1.839134 79.199997
-0.67775089 -0.096922159 1.8337584 82
-0.54154569 -0.064888209 1.867732 84.833336
-2.49844 0.036484726 1.8971783 7.6666665
-1.7220392 0.048980586 1.8716905 80.5
-1.5708421 0.073298275 1.8708977 83.666664
-1.4080604 0.075196207 1.8644376 95
-1.238488 0.062940292 1.8547822 91
-1.1344639 0.08946161 1.8538039 66.400002
-0.98515487 0.071497969 1.843067 34.666668
-0.81737089 0.069678247 1.8420728 72.5
-0.65837759 0.069250666 1.8302208 80.666664
-0.53235006 0.091505684 1.8943225 89.333336
-1.7169092 0.21551032 1.8680446 76
-1.5505641 0.21860525 1.8692533 84
-1.4018707 0.20712093 1.8644904 93.5
-1.274581 0.22356166 1.8594646 89.333336
-1.1338109 0.24195328 1.8507535 76
-0.98972905 0.22557826 1.8360415 34.799999
-0.79800755 0.21180432 1.8355618 80.699997
-0.66569722 0.2277973 1.8290744 77
-0.517272 0.21490222 1.9269756 75.666664
-2.3220339 0.379807 1.8828887 77.5
-2.1715539 0.39339161 1.8801819 80
-2.0019965 0.3836298 1.8740373 78.666664
-1.8370277 0.30804285 1.868836 76
-1.7108654 0.38464558 1.8714613 81
-1.5446793 0.37159503 1.8697437 83.75
-1.4086919 0.35163152 1.868189 88.5
-1.2661444 0.36534619 1.8600191 87
-1.1290385 0.37465489 1.8552728 65
-0.97456908 0.3730619 1.8323474 39
-0.82213795 0.37203074 1.8371325 78.571426
-0.68900418 0.3756505 1.8307343 76.333336
-0.5292697 0.37175253 1.9101607 72.199997
-2.4543355 0.46397907 1.8841206 75
-2.2641208 0.52835423 1.8800265 76
-2.1590135 0.58848232 1.8762079 86
-2.0097008 0.5169819 1.8775769 81.666664
-1.8871322 0.50612545 1.8835382 39
-1.7451693 0.52434647 1.8755721 89
-1.5986018 0.54359126 1.8708373 84.666664
-1.4748554 0.50569749 1.8678098 78.666664
-0.9495284 0.52639693 1.8437097 72.5
-0.80195349 0.52434957 1.8374193 79.599998
-0.6861816 0.51521385 1.8300928 73.555557
-0.53903025 0.54091281 1.9162383 76.5
-2.4661868 0.67790771 1.8865024 78
-2.3215184 0.69180876 1.8826166 77.5
-2.0229447 0.64973897 1.8786521 80
-1.8776876 0.68047357 1.8680108 84.5
-1.7233502 0.70250577 1.8712307 47
-0.97517568 0.6665765 1.8458414 51.599998
-0.81741399 0.68695456 1.842248 74.714287
-0.68972373 0.66844368 1.8296747 75.75
-0.51335543 0.67280173 1.9331844 83
-0.44933885 0.71945745 1.9363111 97
-2.4515991 0.8373847 1.8913493 81
-2.1429994 0.78766793 1.8758723 81
-2.0151532 0.80340642 1.8794798 40.333332
-0.96838593 0.8127737 1.850884 71.5
-0.8111555 0.83229405 1.8435651 85.333336
-0.65855378 0.81861115 1.8510718 74.111115
-0.5233655 0.82810849 1.937281 94.333336
-0.41383466 0.82856792 1.9383024 88.333336
-2.598088 0.98087627 1.8938289 75.666664
-2.4830818 0.96947896 1.8969316 50
-2.2438891 0.96277487 1.8907346 10
-1.0665667 1.0353142 1.8107322 23
-0.98471332 0.9564926 1.8470902 58.5
-0.81660694 0.97830087 1.8480946 86.333336
-0.6680283 0.95119816 1.8467026 73.428574
-0.54765475 0.97879773 1.9429288 87.666664
-0.38723117 0.99063671 1.9418344 81.5
-1.0630271 1.1982076 1.862166 12
-0.96356249 1.1295935 1.8562458 76
-0.8563388 1.1031609 1.8515472 79
-0.66814786 1.1193465 1.8870665 75.333336
-0.52668947 1.1303192 1.9401914 77.714287
-0.35798928 1.1138139 1.9359658 77
-0.25574702 1.1799834 1.9380883 66
-3.028909 1.3279703 1.9111985 2
-2.8874905 1.2361128 1.894569 70
-1.0864866 1.3254364 1.8178586 15
-0.97498608 1.2917327 1.8550795 75
-0.83464843 1.2703292 1.8528044 71
-0.65354604 1.2667755 1.8725804 74
-0.54020119 1.2522752 1.9386007 76
-0.37488529 1.2889193 1.9346933 71.833336
-0.2328514 1.2636981 1.9310143 71.5
-3.7722535 1.4362381 1.9466003 16
-3.7004786 1.4241284 1.932655 19
-3.5202777 1.3985367 1.9302511 68
-3.3708076 1.458759 1.9207188 7
-3.2496924 1.3967249 1.9203212 41.5
-3.0965285 1.3642582 1.9150754 3.5
-0.95690453 1.4281747 1.851243 73.5
-0.82434666 1.4470627 1.8484987 73.199997
-0.64431256 1.4092005 1.9081055 73.333336
-0.50458896 1.3950031 1.9386928 73.199997
-0.37567189 1.4462591 1.9329253 73
-0.22556783 1.4045303 1.9290781 70.5
-0.11441258 1.4520737 1.9269247 71.666664
-3.5953057 1.6286967 1.9364442 5
-0.97188902 1.5107775 1.8486001 76.5
-0.77593422 1.5942638 1.8414938 69.25
-0.65228534 1.5919027 1.8920654 65.5
-0.49139133 1.5491978 1.9357483 71.199997
-0.34806299 1.5953468 1.9315361 70.333336
-0.23973161 1.5757681 1.9240891 72.5
-0.10818676 1.6034194 1.9247605 73.666664
0.0178308 1.6065814 1.928811 74
-1.1614814 1.7797118 1.8264282 13
-0.94946718 1.6861441 1.8534905 66
-0.81702238 1.6848062 1.8447851 66.333336
-0.69104528 1.741173 1.8422781 24.5
-0.49787784 1.7213631 1.9380703 69.5
-0.39661273 1.6964911 1.9344705 67
-0.24707222 1.7347655 1.9276133 71.333336
-0.054021701 1.7243053 1.9218916 70.5
0.068911768 1.7479604 1.924426 69.333336
-1.2579312 1.8074422 1.8487659 7
-1.1633943 1.9064195 1.8417121 10
-0.79486322 1.8328301 1.8442219 60.666668
-0.66216516 1.8555412 1.9450413 47
-0.37719217 1.8475761 1.9325236 68
-0.21607785 1.8903961 1.9254373 66.75
-0.082697704 1.8668919 1.9264041 68
0.06887731 1.8685392 1.9153607 67.800003
0.20236561 1.8746799 1.9219017 69.5
-1.2442113 2.0380988 1.8444411 11
-1.1398954 1.9965169 1.8474311 23.5
-0.75099653 2.0318124 1.8421954 55
-0.64931685 2.0331581 1.9401317 63.166668
-0.54129797 1.9669409 1.9414419 61
-0.24163297 1.9961151 1.9266337 62.25
-0.088289179 2.0402896 1.924126 61.666668
0.073082164 2.0052614 1.9193932 65.25
0.19767359 2.0403841 1.9155118 65
0.36017582 2.0214708 1.9195477 67.333336
-1.0976455 2.1815515 1.861986 44
-1.0214046 2.2018557 1.856351 58
-0.54181945 2.1673224 1.9365517 56.333332
-0.44401234 2.1258223 1.9420341 60
-0.15624668 2.1428204 1.9227093 63.5
-0.080591522 2.1319997 1.9240742 56.5
0.030862074 2.2042603 1.9229518 62.75
0.25560954 2.1843646 1.9162297 64.333336
0.35634905 2.1701579 1.9124115 65.400002
0.50561339 2.1953828 1.917923 62.333332
-1.246001 2.3182437 1.8553916 11
-1.1565454 2.2701993 1.8601381 11
-1.0079865 2.3576696 1.8556445 56.5
-0.8995744 2.3547401 1.8569103 55
-0.64686894 2.326103 1.9472419 60
-0.52824664 2.2793903 1.939186 58
-0.38318452 2.3383071 1.938629 52.666668
-0.0162316 2.2947466 1.9269801 66
0.10746165 2.3460059 1.9179817 65.666664
0.1818108 2.3631358 1.9198928 62
0.39017963 2.3360243 1.9124962 65
0.51089948 2.3087978 1.9062668 62.75
0.65015972 2.3335772 1.9088163 57.75
0.77194268 2.3916388 1.9095603 57
-0.99822176 2.4618692 1.856082 52.25
-0.50647122 2.5202923 1.9411944 52
-0.40331537 2.4650843 1.9344641 52.5
-0.23530965 2.5000956 1.9338299 52.5
0.23232931 2.4942729 1.9164933 63
0.34052873 2.4885709 1.9192392 60.5
0.49374884 2.5173504 1.9312202 39
0.66831183 2.437974 1.9007461 60.5
0.82589853 2.494411 1.897795 61.599998
0.946284 2.5016026 1.8968471 59
-1.1352701 2.5704551 1.8608292 53
-0.92329532 2.5721743 1.8524808 51
-0.85798776 2.6215308 1.8489836 55
-0.30513865 2.6220458 1.929504 58
-0.28027415 2.6150351 1.9300084 51.666668
-0.077113599 2.6309249 1.9277462 56
0.38702863 2.6281269 1.9097798 60.599998
0.51594371 2.6374066 1.918674 65.5
0.6539799 2.6422672 1.9057518 63
0.84822267 2.5615411 1.8865961 57
0.97740495 2.6247356 1.8872392 60.799999
1.0931662 2.6269736 1.8922423 55
1.2044612 2.6552262 1.893051 52
-1.4559977 2.7856071 1.8695425 11
-0.96177977 2.7725849 1.8512392 62.5
-0.82117319 2.7618189 1.8441589 56.5
-0.34725606 2.7206461 1.9349583 58
-0.16755591 2.7706826 1.9223013 60.666668
-0.11921784 2.7750635 1.9268953 59
0.075785741 2.8172498 1.9245902 67
0.5320912 2.7471344 1.9041548 60.666668
0.67506647 2.7813122 1.9036936 59
0.83830673 2.7915764 1.8977596 56
1.1559993 2.7084868 1.8811179 48
1.2820331 2.7659631 1.8889806 43
1.3851614 2.7658157 1.8872877 48.333332
1.503885 2.7991869 1.8963779 50
-1.5854683 2.8929863 1.8990086 7
-0.78229415 2.9775722 1.8807697 58.5
-0.68424535 2.901129 1.9441992 66
-0.17027538 2.925133 1.9268698 57
-0.064756364 2.8922 1.9205525 58.5
0.063183382 2.922143 1.9235374 61
0.69434673 2.8943412 1.9010612 57.333332
0.82069784 2.9040985 1.8970661 54
0.94518632 2.9776387 1.9133118 50
1.0607562 2.9797029 1.9144796 48
1.2053173 2.8558395 1.89298 44
1.4885099 2.95189 1.8741425 45
1.5642804 2.8784518 1.8847039 47
1.7322019 2.907119 1.887797 36.666668
-1.7808207 3.1413157 1.8954731 0
-1.53636 3.0187364 1.8722986 10
-1.488449 3.1269763 1.8682657 11
-0.8129952 3.0463309 1.8801432 60
-0.73727179 3.0642853 1.9442121 63.5
-0.53965938 3.1465569 1.9413832 64
0.05782624 3.0696926 1.9194131 58.833332
0.24905446 3.0641992 1.9163009 58.5
0.85441297 3.0780549 1.8985833 48
0.98328173 3.0784049 1.9060612 46.25
1.1510694 3.0831156 1.9066081 45
1.2860528 3.129236 1.8982745 49
1.439618 3.0000908 1.8788983 50
1.7666354 3.0468907 1.8737712 26.5
-1.450202 3.2202682 1.8727808 8.5
-0.62667745 3.2784584 1.8972254 23.666666
-0.57380837 3.2683105 1.8898226 50
-0.37293041 3.2629824 1.8405155 45
0.23708376 3.2311914 1.9244798 64
0.44334072 3.2225792 1.9186875 60
1.1286409 3.2690477 1.8909034 49.5
1.2412701 3.2063549 1.8944112 50.333332
1.3978955 3.2155428 1.8898522 48.5
1.5430963 3.289053 1.8854576 54
1.7137961 3.1655829 1.878153 60
-1.5402447 3.3388448 1.8761221 11
-1.4293718 3.3636794 1.8721502 11
-1.2334204 3.3851395 1.8695887 11
-0.67254275 3.3840029 1.8478826 60
-0.49863347 3.3548174 1.8433729 55
-0.41971543 3.425766 1.8426887 60
0.2519336 3.3333714 1.9213076 35.333332
0.38060912 3.3879528 1.8661715 47
0.484963 3.393481 1.8366492 50
0.64625299 3.3692272 1.8271673 28.5
1.4535815 3.4116204 1.8890846 31.5
1.5629234 3.3381672 1.8918167 57.333332
1.7272885 3.3895476 1.8865815 37
-1.6506661 3.4897511 1.8833009 12
-1.3712668 3.4627411 1.8532199 12
-1.3106254 3.5221624 1.843004 23
-0.46378928 3.5024009 1.8412193 55
-0.40736246 3.5641189 1.8412622 74.5
-0.19122748 3.5388014 1.8384618 63
0.66266078 3.4957285 1.8104318 53
0.85679799 3.5048172 1.8056091 52
-0.31010708 3.6063895 1.8104478 96
0.73827124 3.6708989 1.8057473 74
0.83859664 3.677388 1.808175 78.5
0.91761214 3.6253486 1.802754 52
-4.5359263 1.4489503 1.9965233 8
-4.9280519 1.5911566 1.9678081 62
-4.7937546 1.5717424 1.963271 62
-4.5308137 1.5377104 1.9612063 69
-4.4595652 1.5337088 1.9618548 65
-4.2131472 1.5059729 1.9698386 19.666666
-4.1821146 1.7603054 1.9670185 74
-3.8763227 1.6921605 1.951728 4
-4.5409088 1.8784449 1.9588735 70
-4.4996729 1.9261556 1.9576787 66
-4.2243061 1.8887198 1.9626168 7
-4.0231729 1.8459557 1.9692765 3
-4.9955096 2.0314114 1.9728357 60
-4.8643761 2.0060611 1.9745842 63
-1.711566 2.6103103 1.9623734 0
-1.8220952 2.8261487 1.9828898 5
-1.6677437 2.8194993 1.9786071 7
-1.717836 3.1483281 1.9821371 8
-0.67819327 3.2313516 1.9557475 80
