# .PCD v0.7 - Point Cloud Data file format
VERSION 0.7
FIELDS x y z intensity
SIZE 4 4 4 4
TYPE F F F F
COUNT 1 1 1 1
WIDTH 1057
HEIGHT 1
VIEWPOINT 0 0 0 1 0 0 0
POINTS 1057
DATA ascii
-0.50813127 -0.51750839 -0.16501379 7.818182
-0.39634797 -0.52092236 -0.1807218 7
-0.23925287 -0.51793224 -0.17684256 7.5
-0.054403756 -0.51696628 -0.17634964 8.5
0.055679161 -0.51590931 -0.18336813 9.25
0.2363883 -0.51629174 -0.16328157 10.3
0.36090338 -0.51716286 -0.17649187 9
0.52716154 -0.52489716 -0.18013245 5.6666665
0.69146872 -0.52233195 -0.18158567 6.25
0.88523978 -0.52399373 -0.18558078 6
1.0968667 -0.52499956 -0.18455486 2.6666667
1.381992 -0.52452534 -0.17985511 26.666666
1.7428555 -0.50841856 -0.19056433 69.5
1.7489698 -0.4068937 -0.15412939 78
1.7468653 -0.27962297 -0.16778222 84
1.2515892 -0.13810173 -0.16550463 50
1.7131563 -0.060260251 -0.19110948 46.5
1.7583977 0.072887994 -0.17876622 80.5
1.7579253 0.23120907 -0.17134476 78
1.7624421 0.38075513 -0.17974985 79.5
1.7584603 0.54405636 -0.18838616 79
1.7612958 0.67206669 -0.17813508 74
1.7649727 0.86013472 -0.19541495 85
1.7689397 0.97923976 -0.17611912 77
-0.18743302 1.1274719 -0.16166049 0
-0.033166621 1.1319888 -0.16518635 0.5
0.065525107 1.1621478 -0.17887291 0
1.7700815 1.0987432 -0.15034053 70
-0.79736328 1.3405067 -0.18720053 5.8000002
1.7789782 1.2311804 -0.17099348 87.5
-0.92529464 1.3777379 -0.17445403 1
-0.59102875 1.3516837 -0.19624925 0
0.49575976 1.6275003 -0.17374705 33.5
1.4327204 1.5384766 -0.16538569 34
0.361435 1.6567292 -0.19231914 37
1.4378219 1.7525523 -0.18140787 69
1.4384809 1.9079835 -0.16839391 62.5
1.4341035 2.0066628 -0.16552877 67.5
-0.50419396 2.4743953 -0.16517998 44
-0.66797453 2.6439552 -0.16520408 22
-0.37676835 2.9708478 -0.19328521 2
-1.2236161 3.2818027 -0.16209789 8
1.7838054 3.24032 -0.19931203 68
-0.88959438 3.6722357 -0.19321032 66
-0.63246316 -0.51421762 -0.077163555 8.8888893
-0.50835711 -0.51522583 -0.081991203 8.217391
-0.36436376 -0.51279366 -0.082945511 7.409091
-0.23019427 -0.51416677 -0.084184922 8.5384617
-0.082856134 -0.51160842 -0.077209555 9.0588236
0.079302758 -0.51700002 -0.070969634 8.5666666
0.21937841 -0.51786345 -0.060289513 7.6060605
0.39146245 -0.52405137 -0.057097722 6.875
0.51577508 -0.5251779 -0.059357807 6.0833335
0.64913708 -0.52540141 -0.059567112 5.375
0.79085606 -0.52527171 -0.074141532 5.5
0.94239551 -0.52598357 -0.064107522 4.5999999
1.1238204 -0.52433223 -0.084114842 27.666666
1.2098998 -0.52794904 -0.072677977 1
1.4362516 -0.52783066 -0.063837714 23.333334
1.5139056 -0.52945846 -0.050894711 24
1.7529085 -0.50074184 -0.064337239 70.800003
1.7537141 -0.38357326 -0.073384352 74.75
1.2683479 -0.1550857 -0.043090913 10
1.7554332 -0.27530444 -0.070843779 77
1.2567222 -0.13182651 -0.095694102 47.25
1.7541957 -0.05281873 -0.07912337 67.5
1.7559319 0.075879455 -0.09657 84.400002
1.7618881 0.21327877 -0.073660642 81.800003
1.7650787 0.37828931 -0.086110167 78.714287
1.7658494 0.53170955 -0.090645455 81.75
1.7640598 0.66815823 -0.077340156 82.199997
1.7647207 0.82091129 -0.092866294 77
1.7679352 0.97319221 -0.068548188 70
-0.17943695 1.1223294 -0.058332004 0
-0.08126606 1.1664443 -0.063445032 0.625
1.7773652 1.1331533 -0.072061077 89.25
-0.81010598 1.3229296 -0.085843295 3.6666667
-0.055254754 1.2136765 -0.090926401 0.83333331
0.077423215 1.258608 -0.083048061 3.5
0.20546222 1.2804146 -0.060663991 4
1.7795043 1.272898 -0.05592756 84
-0.93079734 1.4775343 -0.015256112 3
1.7811437 1.4253393 -0.070650585 79.5
-1.0017648 1.6027009 -0.083259627 3.5
1.4786266 1.5145808 -0.030597961 54
1.5036891 1.5222981 -0.0041692005 73
1.7038407 1.5178168 -0.057078518 60.5
-0.21900982 1.7312412 -0.12810504 40
1.4418033 1.717631 -0.10066555 72
-0.30282789 1.8310202 -0.12729901 25
1.4371617 1.9133902 -0.058133684 55.5
-0.1887341 2.0126872 -0.13418582 4
1.4343696 2.0503273 -0.11611234 60
1.436275 2.1947539 -0.090271302 62.333332
1.4320536 2.2768359 -0.052986417 63
-1.0670615 2.5350254 -0.14338611 0
-0.51647943 2.9809628 -0.099590279 25.666666
-1.2311157 3.2766085 -0.055023227 49
-0.93456978 3.5791798 -0.11764736 86
-0.89869273 3.6397865 -0.11856601 150
-0.053003613 3.6596336 -0.052038912 4
-1.0905408 -0.50660777 0.11812761 1.6666666
-0.9681195 -0.50925207 0.090054616 2.3125
-0.88025254 -0.50418103 0.073744215 4.1999998
-0.66180307 -0.51089454 0.083362944 9.8888893
-0.52294248 -0.51218301 0.076509289 9.454545
-0.3748275 -0.51114577 0.068631589 9.208333
-0.21822135 -0.51109684 0.078656308 8.4814816
-0.074761368 -0.51176059 0.060699549 8.1379309
0.072622262 -0.51583868 0.026756093 7.9285712
0.23293822 -0.51789868 0.024747433 6.3846154
0.37037095 -0.52580559 0.025466146 6.181818
0.52250808 -0.52317071 0.02917546 5.6666665
0.67095047 -0.52477556 0.028981073 5.25
0.81764436 -0.52503759 0.046827465 4.8888888
0.95594263 -0.52196479 0.062626861 2.5
1.117505 -0.52183187 0.063515171 21.875
1.2563754 -0.524809 0.11231011 25
1.4132546 -0.5252229 0.06999664 24.4
1.5883085 -0.52759087 0.13805538 21
1.7547716 -0.50034004 0.11228921 73.199997
-0.66990662 -0.3343707 0.10031756 2
1.7551003 -0.38325009 0.097855821 70
1.2560214 -0.16901095 0.0035311533 58
1.3625914 -0.20006001 0.073047899 155
1.7572311 -0.28543824 0.061070699 75.400002
-1.1706872 -0.08286684 0.12260169 5
1.2634825 -0.124406 0.070419289 48.666668
1.3523961 -0.095932908 0.016293311 155
1.7566005 -0.058981363 0.079022042 72.428574
-1.1265868 0.084610723 0.11191055 0.125
1.7642167 0.085715286 0.073271737 73.384613
1.7638897 0.2324508 0.089440122 69.777779
1.7651337 0.35494226 0.089595236 69.571426
1.7641563 0.5209291 0.077300414 79.800003
1.7693223 0.69591886 0.092339836 75.333336
1.7704093 0.82174969 0.098799035 70.5
1.769441 0.95097548 0.076778919 72.333336
-0.19146226 1.1153123 0.049787126 0.25
-0.077399105 1.1585643 0.092114054 0.625
0.039872412 1.1713034 0.11759502 1.3333334
1.7795824 1.0995713 0.078968734 85.666664
-0.83419603 1.2938217 0.073484175 1.5
0.097093813 1.228377 0.062300511 2.5
0.1988674 1.2720834 0.044479098 2.7142856
1.7827498 1.2751187 0.080285408 78.333336
-0.99936014 1.4408513 0.1497137 1
1.7811714 1.4386923 0.067724161 75.75
-1.0166544 1.5945494 0.0327955 3
1.4572892 1.5703088 0.091783307 58.75
1.5998943 1.5157773 0.059182711 64.5
1.693635 1.518714 0.053794447 57.666668
-1.5372273 1.7615839 0.11366486 3
-1.0847452 1.6736891 0.075628407 3
1.4405787 1.6937997 0.093110651 65
1.4452753 1.8550136 0.14328122 54
-1.5444925 2.0670667 0.11143398 3
-1.5398704 2.1177654 0.13651556 3
1.4379666 2.1291134 0.031372782 59.5
-1.5428114 2.3877773 0.043311205 10
-1.5411541 2.4541674 0.11457592 1.25
-1.1424735 2.4893823 0.060729969 6.5999999
1.7858911 2.8423197 0.058110978 97
1.7874066 2.9702251 0.094220586 55
1.7813423 3.0826576 0.13679746 55
-1.2340013 3.2984011 0.0092400564 51
-1.2850263 3.4227176 0.11201444 26
-1.1718565 3.3216393 0.048639223 22.666666
-1.3698266 -0.52627611 0.29645529 0
-1.2335917 -0.50109786 0.25162011 0.33333334
-1.114853 -0.504421 0.21291068 0.69230771
-0.97147375 -0.50973439 0.21753314 2.1428571
-0.87057698 -0.49245688 0.22316232 2.25
-0.65192616 -0.5071488 0.22440568 8.6923075
-0.53046459 -0.51049936 0.22338681 8.26087
-0.38193288 -0.50955588 0.21848629 7.9565215
-0.24436219 -0.51561058 0.25112191 6.3846154
-0.12543514 -0.51464665 0.15108719 9
1.109022 -0.51817781 0.21646777 28.5
1.3190019 -0.5215773 0.1851842 24.333334
1.4204881 -0.52048147 0.21444553 25
1.5673386 -0.52679563 0.19687235 23
1.7326969 -0.50005388 0.22486997 56.166668
-0.61564589 -0.37578422 0.20859581 2
1.7557456 -0.36427271 0.22744319 71.5
1.3825566 -0.19872461 0.15450352 154
1.7590942 -0.26677322 0.21242799 69.333336
-1.3273718 -0.12745911 0.29342878 5
-1.1851671 -0.0017608473 0.1680553 2
1.2450715 -0.099577636 0.19275996 49
1.7612367 -0.057640832 0.21159944 68
-1.2177823 0.071842253 0.24523844 0
1.7618165 0.065209605 0.21704066 64.166664
-1.2191219 0.18258953 0.23643087 0
1.7639346 0.23669459 0.21644171 66.666664
1.7626722 0.39288417 0.21995591 70.85714
-1.5553877 0.5176369 0.29140317 9
1.7658066 0.52510744 0.21459857 76.375
-1.5515492 0.66465503 0.28245962 26
1.7668564 0.67162651 0.22295789 69.375
-1.5439327 0.85734826 0.25040823 32.799999
1.7707067 0.8308782 0.22150064 70.166664
-1.5472296 1.0057366 0.24878216 38.799999
1.7777421 0.95349842 0.23389922 82.571426
-1.5443274 1.14906 0.23470865 32.5
-0.12401014 1.1902498 0.26030606 2
0.045095518 1.1383373 0.27857178 1.25
1.7820284 1.0969634 0.23815136 81.199997
-1.5419782 1.2353016 0.24758485 35.599998
-0.037258513 1.2330313 0.22775336 1.6666666
0.10735394 1.2007009 0.28044486 1
1.7827057 1.2285782 0.24749136 76.75
-1.5403425 1.3825513 0.24638619 31.714285
-0.99276322 1.4205862 0.27110028 1
-0.86819535 1.4175248 0.2333899 3
1.7812589 1.3629777 0.22956035 75.5
-1.5404686 1.5940609 0.2421658 2.3333333
1.4397559 1.6254607 0.22181699 58.5
1.5396445 1.5204242 0.25029716 57.5
1.7304375 1.5184159 0.22944209 61.5
-1.541195 1.798933 0.17505777 2
1.4448946 1.7369325 0.19959718 65
-1.5428798 1.8436174 0.23078306 1.7142857
1.4406971 1.8558806 0.23076326 58
-1.5388384 2.0879579 0.16945761 2
1.4395758 2.0402474 0.25606155 56.5
-1.5423119 2.1297126 0.21503744 0.40000001
-1.5489701 2.4885826 0.18717952 0
-1.1176856 2.4567189 0.21326363 12
1.7910781 2.8256521 0.26667041 107
1.7860918 2.8817227 0.20162368 53
1.7828178 3.2056463 0.19808495 51
1.7914724 3.3389821 0.2751753 49.5
1.8005135 3.4173722 0.23797494 53
-1.4565164 3.8120153 0.20919144 29
-0.30904931 3.9393551 0.28452557 14
-0.28957215 3.9335396 0.20129687 32
-0.13856268 3.9407706 0.21005744 1
1.5146724 4.1948266 0.24388409 15
1.4540925 4.2573061 0.19522518 9
-1.7168002 -0.58714795 0.42842925 1
-1.5324104 -0.51675189 0.39241695 75
-1.40728 -0.49998182 0.39944014 2.5999999
-1.3146266 -0.50047082 0.36304608 0
-1.1267959 -0.50205815 0.37406179 0.2
-0.98343784 -0.50570709 0.36900774 0.83333331
-0.89243639 -0.5053364 0.44811857 1
-0.66397268 -0.50599784 0.37597057 5.3636365
-0.52729529 -0.51012921 0.37106049 6.090909
-0.38316959 -0.51254028 0.37525722 5.9200001
-0.27795798 -0.51193523 0.32445362 6.5
1.2995937 -0.51693034 0.31160134 23
1.609786 -0.52148473 0.36984134 23.333334
1.755199 -0.47874612 0.37999666 66.75
-1.4141738 -0.43070504 0.40313381 2
1.7561628 -0.39400831 0.37572733 67.666664
-1.8346901 -0.24477427 0.43790078 70
-1.6750848 -0.23375466 0.40846765 35
-1.4505402 -0.16165034 0.32221651 1
1.7545125 -0.29170769 0.39080659 68
-1.3547698 -0.11203355 0.36680183 7.3333335
-1.2976954 -0.049932133 0.37109041 1.7
1.759714 -0.033701498 0.35757738 67
-1.2213908 0.066695414 0.37423345 0
1.7618289 0.095035329 0.35357636 65.5
-1.2367921 0.22415951 0.39372575 1.8461539
-1.198705 0.17879492 0.43399626 0
1.7582858 0.22627756 0.35471076 64
-1.2029492 0.31227764 0.36262435 4
-1.1239324 0.30246511 0.30553532 0
1.7634079 0.36169842 0.36916488 63
-1.5542128 0.54938012 0.33315295 8
1.7667482 0.5465095 0.38046044 63
-1.5486993 0.69437051 0.38378802 35.5
1.7691352 0.68824893 0.36625588 63.75
-1.5450847 0.81653804 0.36970127 42.799999
1.7716751 0.82089752 0.35629457 74.5
-1.5452641 0.96200329 0.38082811 40.454544
1.7816585 0.97362196 0.37876457 78.599998
-1.5433514 1.1102147 0.36866748 35.272728
-0.049567092 1.1335801 0.30345172 6
0.008743328 1.1296511 0.30665594 2
1.7823269 1.104111 0.37167144 75.400002
-1.5405858 1.28158 0.37477165 32.777779
1.7832377 1.2281268 0.37608305 69
-1.5257106 1.4459602 0.36311671 18.555555
-0.83840156 1.3907675 0.30328244 3
1.784304 1.4026917 0.38324553 68.285713
-1.5444674 1.6164801 0.35924935 2
1.455561 1.5663344 0.40234786 51.200001
1.5802395 1.5172147 0.38980114 54.5
1.7476918 1.5133253 0.37672305 66
-1.5410138 1.7249626 0.38381147 3
1.4427757 1.7483263 0.39254415 54
-1.538689 1.8706254 0.35667548 0
-1.5449129 2.0390501 0.35407916 1.6666666
1.4403647 2.0222375 0.3773967 49.400002
1.4400982 2.1785936 0.3759428 60
1.4395826 2.2829318 0.42046556 47
1.792402 3.1939647 0.39080623 48
1.7923568 3.5073841 0.30482727 51.5
1.7939074 3.6581345 0.3768748 51
1.7936306 3.8188331 0.44794607 52
-0.22785646 3.9475214 0.39402005 24
-1.7737663 -0.59166175 0.54129702 0
-1.4259331 -0.49995059 0.50892651 1.5
-1.2525678 -0.4982518 0.51938289 1.6666666
-1.1146889 -0.4973098 0.58670235 4
-0.94281149 -0.49608445 0.53755635 0.33333334
-0.86627156 -0.50749683 0.56165773 0
-0.65153468 -0.50905806 0.55039346 5.3333335
-0.52770823 -0.50843358 0.50667226 4.2857141
-0.3987208 -0.50114274 0.54976189 1.2
-1.8836066 -0.37838414 0.52554846 48.5
-1.416082 -0.42971164 0.57790565 1
-1.8452451 -0.23214862 0.52567196 33.5
-1.6713203 -0.29842883 0.45602924 2
-1.6281404 -0.26795441 0.45548505 43
-1.359852 -0.13759106 0.46518832 4
-1.3131605 -0.080115132 0.51075661 3.8571429
-1.2256467 0.072183564 0.46890697 0
-1.2283642 0.20025235 0.51966041 1.75
-1.445302 0.43925443 0.5941847 0
-1.2328449 0.30282182 0.58268279 5
-1.5437151 0.69925994 0.48572993 38.400002
1.7687414 0.68601644 0.45432371 50
-1.5450892 0.83510327 0.50014561 40.666668
1.7793207 0.83193868 0.48854256 74.666664
-1.5452739 0.95586944 0.49349496 34
1.7820761 1.0020612 0.51482898 71
-1.5389634 1.1241403 0.51331615 31
1.7818189 1.1573298 0.5171724 66.5
-1.5394623 1.2419902 0.49488279 29
1.7838918 1.3056322 0.51874763 67.5
-1.5337847 1.4260321 0.4904429 30.5
1.7837338 1.4466901 0.5685268 64.25
-1.5396055 1.6341258 0.45755273 2
1.4492556 1.5548065 0.53792882 36.400002
1.5824236 1.5185094 0.50363648 48.200001
1.7301288 1.5172087 0.51708722 56.75
-1.5346816 1.6619855 0.52736968 5
1.4421666 1.7285322 0.54762352 54.75
1.4430841 1.8885225 0.55950713 55
1.4372975 2.0126278 0.53969598 47.333332
1.4426882 2.1797109 0.53415585 49.5
1.4462752 2.2571068 0.45471436 50
-2.0116501 3.0041265 0.53807968 5
-1.9964148 3.2059019 0.59987342 0
1.8045776 3.6649866 0.56521225 49
1.8040193 3.8342991 0.48577276 57
1.5839761 3.9298425 0.59226942 49
1.7215061 3.9201987 0.51249093 89.666664
-1.429703 -0.5062201 0.64421242 3.2
-1.2459224 -0.49223277 0.71338212 3
-1.1534833 -0.49785495 0.67409074 0.75
-0.93860668 -0.49511424 0.6974023 1.5
-0.66135758 -0.50691605 0.66747749 5
-0.51633203 -0.50996971 0.67469823 5
-0.42873329 -0.51191652 0.66856635 4.5999999
-1.4188868 -0.44552672 0.66344357 1
-1.8783249 -0.2440758 0.69044584 5.5
-1.7774322 -0.2208685 0.72939193 5
-1.8961045 -0.06685105 0.64165133 6.5
-1.242018 0.066121206 0.68200481 8.4615383
-1.5515554 0.48974773 0.70303226 14
-1.5473249 0.71248877 0.65739864 38
-1.5434419 0.86189747 0.65583736 32.166668
-1.5401491 1.0107106 0.64694101 31.428572
-1.5372269 1.1605355 0.63996327 30
1.7848248 1.1145822 0.62052679 63
-1.534011 1.2936519 0.6578126 27.75
1.7827637 1.2619197 0.65912259 64.5
-1.532822 1.4017217 0.64680451 20
1.7826903 1.4131961 0.68761152 58.25
-1.538386 1.5957412 0.62749845 0
1.4580441 1.5807369 0.67003578 42.857143
1.5667324 1.5174936 0.68450755 44.400002
1.7277333 1.5139557 0.68640327 49.333332
1.4433006 1.7298642 0.65825528 53.666668
1.4426666 1.8791558 0.6700983 49.333332
-1.5436251 2.0478282 0.65984589 0
1.4449072 2.0122108 0.70189959 51.666668
1.4359972 2.1908712 0.70079714 43.5
1.4396173 2.2790666 0.62621307 43
-1.5326914 2.4006441 0.65741074 3
-1.5331018 2.6562014 0.62804961 0
1.7449219 2.7420115 0.72950864 83
1.7901381 2.9144394 0.68354505 53
1.7997603 3.1029377 0.74911797 43
-2.0883338 3.1920216 0.67864227 0
-1.5341048 3.3899782 0.68507421 5
-1.5186167 3.5208783 0.70445168 1
-1.4887192 3.5952997 0.69956958 5
1.8057976 3.5481346 0.60683686 51
-1.4795148 3.6851625 0.61671919 25
-1.464699 3.9244912 0.65067065 16
1.5515361 3.961751 0.64075083 27.5
1.6896627 3.9211783 0.74917197 78
-1.4533539 -0.49234033 0.82759368 1
-1.318426 -0.49316052 0.81819278 1.3333334
-1.0562679 -0.49414405 0.87051821 2
-1.0343828 -0.490502 0.8111887 3
-0.63504767 -0.50800622 0.81452817 4.8000002
-0.51180345 -0.50850487 0.82131785 4.625
-1.4131863 -0.42519629 0.85968375 0.5
-1.7429075 -0.23597789 0.83265036 8.333333
-1.2837542 -0.061593905 0.79177338 3.3333333
-1.1337571 -0.025981447 0.82123452 0
-1.1361631 0.072501346 0.82639825 1.2
-1.1666369 0.16175292 0.83477074 4
-1.5489464 0.54899001 0.83195108 28.333334
-1.5436244 0.67851973 0.83362716 39.666668
-1.5434452 0.80822659 0.80926883 43
-1.5396193 0.9520058 0.81648898 26
-1.537348 1.1103995 0.82883745 27
-1.5359871 1.2880282 0.84518266 22
-1.5393877 1.4695373 0.82617724 2
1.7889795 1.4927579 0.82457316 59
1.4509664 1.5761292 0.81595623 42.5
1.6322074 1.5118816 0.8213402 40
1.7045982 1.5159973 0.75041687 44
-1.543162 1.6610913 0.77011704 2
1.4414794 1.7443768 0.82440126 47
1.4447163 1.8626318 0.81234819 47.5
1.4415607 2.0409575 0.83131289 43.25
1.4447443 2.1881449 0.84877563 49
1.442559 2.2776999 0.85263312 45
-1.5301714 2.6612253 0.86989963 0
1.7950068 2.9398081 0.85861766 43
1.7969235 3.0331898 0.79038268 45.5
-2.297255 3.2284629 0.82845545 0
-2.0675695 3.1748321 0.79952109 0
1.7961738 3.1854925 0.84230947 47
-1.4726974 3.7007394 0.8391639 31
-0.27236843 3.9409509 0.81791061 22
1.7672946 3.9235497 0.81405222 93
-1.4419014 -0.49570528 0.9889214 0
-1.2880657 -0.49180716 0.96897721 0.5
-1.1244287 -0.49616477 0.92174327 2
-0.96544772 -0.49582759 0.98542953 2
-0.86288774 -0.49716955 0.99328613 2
-0.66906297 -0.50198185 0.98265624 23.5
-0.53160006 -0.50801313 0.93883687 4.4000001
-1.5459899 0.53439873 0.99386221 35.5
-1.5427328 0.65684849 0.98608941 34
-1.5373664 0.8052035 0.97455209 35.166668
-1.5354636 0.95807016 0.96849954 35.400002
-1.532974 1.1277546 0.98148918 34
-1.530681 1.3029718 1.0089842 24.75
-1.530581 1.4200275 0.99420315 14
1.4435391 1.779299 1.0117862 46
1.4433817 1.9007498 0.966506 42.666668
1.442013 2.0321162 0.96479368 42.5
1.4442155 2.1916113 1.0321379 37.5
1.447294 2.3077507 0.96527833 39
-1.5343444 2.7229719 0.97814167 9
1.7951913 2.8570375 0.90418875 44
1.794439 3.0827198 1.002285 44
1.798676 3.3311303 0.91230965 50
1.8084755 3.374728 0.98616219 47.666668
1.8066688 3.4873142 0.99986815 46
-1.4716294 3.7670832 0.96749675 2
-0.27317241 3.9434092 1.0151826 20.666666
1.5342718 3.9524713 0.93540776 19
1.5135608 4.0868511 0.92508137 13
-1.2527801 -0.48789138 1.1406822 0
-1.1969755 -0.49614868 1.1464795 0
-0.99173838 -0.48838952 1.0846254 0
-0.61694425 -0.50473833 1.0904148 7.5
-0.54430896 -0.50310117 1.1363908 18.5
-0.44519147 -0.49921837 1.1573193 24
-1.5432502 0.54859877 1.1373868 36
-1.5411676 0.68602574 1.152567 31
-1.538131 0.87567121 1.1349127 32
-1.536602 1.0092845 1.1165724 29
-1.5339345 1.1579216 1.0982053 27
-1.5353694 1.2243112 1.197657 25
-1.5290613 1.3558061 1.1295856 20
-1.5538678 1.7281826 1.0766383 0
1.4446909 1.9460728 1.1477236 42
1.4441142 2.0407107 1.094093 39.666668
1.4478283 2.1641335 1.1459352 38.799999
-1.5359721 2.4117565 1.1403149 0
-1.5354694 2.6917863 1.1698573 8
-1.528952 2.8063331 1.1421726 7.5
1.7905297 2.9038191 1.0944484 44.5
1.8098266 3.2324438 1.097012 47
1.8023353 3.5750258 1.080417 48
1.8063619 3.7336514 1.1701523 46.5
-1.4778751 3.8403034 1.0953668 2
-0.19616742 3.9571187 1.1881154 21
-1.2135088 -0.48415107 1.209172 0
-0.66585004 -0.49592817 1.2909303 18.25
-0.53133965 -0.50087279 1.3142557 22.75
-0.39926898 -0.49921745 1.3348322 21.5
-1.4040246 -0.41635242 1.2909254 0
-1.5382055 0.53744811 1.3170451 38
-1.534101 0.68988234 1.3259059 34
-1.5344899 0.82101035 1.2762225 37
-1.5320102 0.93801516 1.2275403 31
-1.5347402 1.10993 1.2656063 27
-1.5318458 1.2949291 1.3033162 19
-1.5386398 1.436491 1.2464256 1
-1.5409657 1.6819671 1.3063956 2
1.4499098 2.1945562 1.2946788 36
1.4473377 2.2927799 1.2504776 36
-1.52178 2.9728463 1.2265 8
1.8072561 2.9212294 1.2962878 45.5
-1.5155219 3.1055567 1.2443328 9
1.8022711 3.0165546 1.3157556 51
-1.5271062 3.1869562 1.2293884 8
1.798147 3.2218933 1.3231602 45.5
1.8034539 3.3917983 1.283127 47
-1.508359 3.5773537 1.3266972 0
1.8010681 3.5052021 1.2518442 45
-1.4749732 3.6990831 1.2941873 14
1.8152893 3.6693637 1.349478 46
-1.4770305 3.8996782 1.2252555 2
1.8228903 3.811111 1.3320007 43
-3.0396128 3.957099 1.2312521 11
-2.8321342 3.9450433 1.3016624 9
-2.4509158 3.9855545 1.2677102 8
-1.444934 3.9241514 1.3077633 1
-0.27823308 3.9419637 1.2016971 15
1.637939 3.9313626 1.3440531 65
1.7592931 3.9411728 1.3376111 73
1.8151331 3.9165897 1.2948675 65.5
0.14968358 8.7182055 1.2932016 0
-0.66495186 -0.50068837 1.4042946 13
-0.51039064 -0.49864247 1.4084961 20.5
-1.5357265 0.52852285 1.4411665 28
-1.5367273 0.65306306 1.4173673 40.333332
-1.5341684 0.81430197 1.4346676 36
-1.5315623 0.99947667 1.4397416 33.25
-1.5313114 1.2176704 1.4437358 29.5
-1.5347973 1.4648266 1.4804518 1
1.4436568 2.3242416 1.3548663 24
-1.5228525 3.058696 1.4307328 2
1.8087234 3.0668724 1.4204332 44
1.805042 3.1903598 1.4939078 48
1.811188 3.5312638 1.3517084 43
-2.7894697 3.9501939 1.4290094 8
-2.572928 3.9595294 1.4943616 9
-2.5394516 3.9898934 1.4514261 10
1.5592285 3.951627 1.4463296 16.333334
1.6804252 3.9398358 1.3811677 68
-0.64359516 -0.49658355 1.616518 13.75
-0.48538119 -0.49721324 1.5919132 19
-0.4021368 -0.49609658 1.5952201 18
-1.540566 0.49641833 1.6035682 16
-1.5364294 0.66338342 1.5563806 32
-1.5351231 0.83262336 1.5421828 30
-1.5339098 0.93491381 1.5285816 22
-1.5384262 1.1406232 1.5580962 32.25
-1.5422342 1.3198465 1.5920212 25
-1.5369352 1.408568 1.5620617 31.333334
-1.5697941 2.8239753 1.6431247 9
1.8057039 2.8416035 1.541355 33
1.8052456 2.9523394 1.5264763 44
1.8022084 3.0640581 1.5131423 43
1.8087304 3.312458 1.5898666 43
-0.98728025 3.5994375 1.6479844 50
-0.068977073 3.5929928 1.6324891 46
1.0943117 3.5832469 1.6337893 36
1.8018301 3.5146646 1.5931064 44
-1.469282 3.640506 1.5402282 8
0.013887149 3.6344993 1.6278881 11
1.8078668 3.6610508 1.6048824 47
-0.25639144 3.8946443 1.6459032 56
1.3939674 3.8889928 1.6350621 13
1.8109674 3.8009973 1.5963877 46
-2.7360313 3.9454651 1.5548265 10
-2.5027344 3.990195 1.5848849 8
-1.2521297 3.9470432 1.5836896 1
-0.96342844 3.9415464 1.5845679 1
-0.81510842 3.9408145 1.6114064 82
-0.7287389 3.9382992 1.572384 2
-0.27145839 3.93066 1.5695183 35
-0.028610248 3.9499927 1.5893688 6
0.16588981 3.9261422 1.6103872 4
1.2768726 3.9272392 1.6093494 28.333334
1.4808921 4.0061769 1.5419796 3
1.6462455 3.9348404 1.5184928 60
1.7600008 3.9288664 1.5832267 67.5
1.8069606 3.9325082 1.6415995 81
-0.60448056 -0.49670312 1.7581695 17
-0.5349158 -0.4986012 1.722016 26
-1.131381 -0.40054429 1.7022108 0
-0.81765044 -0.40241593 1.7695062 2.5
-1.6915772 0.4695586 1.7130817 1
-1.5367405 0.59366387 1.7386698 36
-1.5307372 0.7474364 1.7662395 29
-1.5379194 0.81399983 1.6664361 35
-1.5229166 0.94456446 1.7432047 21.5
-1.5261973 1.1773158 1.7539049 27
-1.5312388 1.2934676 1.6769444 26
-1.5809771 1.5996115 1.7705133 0
-1.5856571 1.7723011 1.7869295 7
-1.6937429 1.9543169 1.7970613 7
-1.5475078 2.1802323 1.7793441 16
-1.5392535 2.3330421 1.7815496 19
-1.5425471 2.4381123 1.7840017 12
1.4688325 2.6506052 1.7797672 46
1.7069912 2.6800473 1.7622684 37
1.4441285 2.8261373 1.7816247 37.5
1.5930357 2.8226268 1.783469 45.5
1.6753724 2.7509372 1.7841014 48
1.8193665 2.8304589 1.7216507 38
-1.5570154 2.9146574 1.7870075 10
1.577666 2.9072778 1.7836504 49.25
1.6970131 2.9524839 1.7809577 47.5
1.804068 2.9378879 1.7330997 47.5
-1.3258221 3.0731552 1.7993534 58
1.4691132 3.0824986 1.770512 47
1.7847512 3.0909517 1.7761489 49
-0.373734 3.2762489 1.785122 51
0.70776016 3.2182617 1.7860489 27
0.83788675 3.218997 1.7987071 10.5
1.1138492 3.2224979 1.7978252 20
1.3047535 3.2654316 1.7865278 46
1.4089893 3.2997704 1.7841274 51
1.7650604 3.1853809 1.7641453 50
-1.5864149 3.4034081 1.7645104 11.5
-1.2348288 3.3565197 1.798722 57.5
-0.30711284 3.3588014 1.7924031 58
-0.24100582 3.4472153 1.7950603 59
0.09239696 3.3468797 1.7961544 56
0.31058198 3.3777585 1.7890607 51
0.4958806 3.4192302 1.7876545 55
0.9979865 3.4318948 1.7831258 49
1.0827086 3.384078 1.7891937 46.5
1.4385884 3.3494234 1.7813756 52.5
1.5880295 3.4100866 1.7812697 51
1.7550323 3.3033528 1.7701243 53
1.8131821 3.4147849 1.6965193 46
-1.3834963 3.5918336 1.7075087 73
-1.1544585 3.5249982 1.7940341 70.5
-0.7070266 3.5533981 1.7787977 79
-0.4655146 3.5880172 1.7034253 76
-0.43292397 3.5222116 1.798808 70
-0.23036145 3.5639236 1.7448307 68.333336
-0.075713098 3.5948591 1.7377392 87
0.33422154 3.5746772 1.7864398 72
0.54261756 3.5704832 1.7612532 34.5
0.71524149 3.5809205 1.7385975 83
0.94145316 3.4738984 1.7870024 50
1.1727825 3.563421 1.685511 64
1.2838513 3.5596805 1.7456367 70
1.3865889 3.5364397 1.7880048 61
1.5670469 3.5553055 1.6780821 62.5
1.724082 3.4897473 1.7771058 56.333332
-2.826946 3.6170561 1.7076086 3
-2.5812614 3.6205997 1.7690212 10
-1.9958072 3.6264625 1.7365896 0
-1.4621146 3.7443502 1.6941291 13
-1.0700319 3.6052172 1.7281456 88.5
1.5447901 3.7366459 1.6890439 0
-3.0303283 3.8518348 1.7733151 1
-2.9100225 3.8362277 1.7594773 0
-2.7357476 3.7653394 1.7328445 0
-2.3488023 3.8853903 1.7735916 1
-1.1778306 3.8478992 1.7397543 49
-0.94432431 3.8173573 1.716072 27
-0.51154578 3.8642142 1.7171601 58
-0.24953771 3.8391356 1.7068459 44
-0.032293905 3.8893564 1.6522268 54
0.10777543 3.8197351 1.7082306 41
0.19088416 3.8794334 1.7097937 5
1.5344439 3.866837 1.7073305 55
-2.900558 3.9458847 1.7223152 8
-2.4435866 3.9771423 1.7028061 9
-1.2198085 3.9075327 1.6672632 54
-0.91075796 3.9282627 1.654411 55
-0.87995535 3.9134505 1.710101 58
1.4766686 3.9012764 1.692861 33
-4.6049252 -1.3566279 1.8821636 70
-4.4051499 -1.2869658 1.8846003 70
-4.2855926 -1.3053495 1.8795377 67
-4.2416978 -1.1519351 1.8734599 71
-4.0712342 -1.0965968 1.8776692 69
-3.9978015 -1.120908 1.8723656 68
-3.7912126 -1.0522799 1.8698913 62
-3.6714573 -1.122745 1.873968 73
-3.5063591 -1.0861272 1.8737284 72.666664
-3.952822 -0.99014372 1.8755943 75
-3.7747331 -0.95457834 1.8717974 77
-3.6544168 -0.9452067 1.8649608 73
-3.5608177 -0.91036117 1.8683723 83
-3.2953413 -0.93754828 1.8656648 74
-3.1349411 -0.93138695 1.8623585 77
-3.6927309 -0.8429085 1.8748075 80
-3.5237865 -0.8113113 1.8707598 79.333336
-3.3528664 -0.79409391 1.8607031 75
-3.1417563 -0.80019367 1.8616482 80
-2.9056478 -0.87846947 1.8631009 62
-2.8021855 -0.81746858 1.8576093 66.5
-2.6282625 -0.79656541 1.8546602 71
-3.8066533 -0.69308215 1.8720225 73.333336
-3.6877553 -0.65254384 1.8673776 83
-3.5966489 -0.63075548 1.8725556 83
-3.3020296 -0.67570841 1.8599733 77
-3.1718805 -0.6909188 1.862873 82
-3.0832756 -0.71650696 1.8625685 77
-2.9198682 -0.65655977 1.8595399 66.666664
-2.7376132 -0.71113104 1.8597988 67
-2.6456294 -0.72090083 1.8600963 69
-2.3331752 -0.65805781 1.8470072 76
-2.180989 -0.60253876 1.8506747 75
-1.8055177 -0.6236791 1.8399776 2
-1.6949172 -0.67989022 1.8405526 25
-1.3670751 -0.6295191 1.834298 26
-1.2647203 -0.66773868 1.8349887 38.333332
-1.1599003 -0.66702867 1.8350815 39
-3.7110329 -0.56810862 1.8728524 82
-3.5703406 -0.55047148 1.8751589 92.5
-3.3833025 -0.53450197 1.8586339 38
-3.1637442 -0.56012934 1.8731567 41
-2.7816782 -0.53046906 1.8614148 65.5
-2.6616797 -0.54805094 1.858148 69
-2.4652302 -0.56504256 1.8915635 28
-2.3161652 -0.49834689 1.8480482 71
-2.1684515 -0.47296718 1.8514595 73
-1.7047043 -0.5199638 1.8318305 25
-1.6225095 -0.54194164 1.8476794 10.5
-1.3989155 -0.53238899 1.8436009 31
-1.2754284 -0.53303802 1.8272862 24.5
-1.1657157 -0.53004813 1.8258097 24.5
-0.97190934 -0.53541207 1.8158305 30.200001
-0.53084266 -0.46693674 1.8256465 83
-0.43416882 -0.47017616 1.8249899 85
-2.7170722 -0.30290473 1.8603634 70
-2.6450784 -0.37470165 1.8557523 77
-2.4506066 -0.33888477 1.8487226 71
-2.3181424 -0.32311714 1.848771 74
-2.1949115 -0.4147642 1.8492907 77
-1.8440753 -0.40640536 1.8463675 75
-1.713732 -0.3648144 1.8437358 79
-1.6351095 -0.40769777 1.8471643 72
-1.4221056 -0.38090926 1.8370355 54
-1.2857003 -0.37795389 1.833519 51.799999
-1.1020129 -0.37877071 1.8287108 54.599998
-0.96552205 -0.36124435 1.8287411 58.333332
-0.82198024 -0.3682597 1.8399042 40.625
-0.66931194 -0.35766476 1.8223875 61.5
-0.53614235 -0.36283413 1.828831 76
-2.7641878 -0.26842627 1.8602625 5
-2.3205199 -0.26796657 1.8476317 73.5
-2.1696074 -0.26870647 1.8501641 78.666664
-1.8664331 -0.23073049 1.8471813 80
-1.7340882 -0.20655988 1.8462988 81.25
-1.6402696 -0.25784647 1.8429924 82
-1.4065405 -0.2416766 1.8428905 97.75
-1.2660171 -0.22576337 1.832599 76.199997
-1.1062393 -0.18534496 1.8247427 85.5
-0.97466296 -0.20900802 1.8236957 78.25
-0.84148055 -0.22539303 1.8269391 73.555557
-0.67007303 -0.20787859 1.826013 79.5
-0.56448823 -0.24691617 1.8248899 73.5
-3.81445 -0.11439256 1.8740987 5
-3.6938121 -0.069800258 1.8662119 3
-2.471143 -0.12314939 1.8479408 70
-2.3352997 -0.095521219 1.8453367 74.75
-1.8656079 -0.10045041 1.842889 8
-1.7321218 -0.063609771 1.8452455 82
-1.6465248 -0.11083196 1.8466173 76
-1.4206451 -0.094919354 1.8420484 98.5
-1.2594005 -0.069008157 1.8294258 79.599998
-1.0897968 -0.07125549 1.874772 80.75
-0.95410478 -0.069877341 1.9090713 81
-0.837529 -0.072635368 1.8852339 72.5
-0.67619193 -0.078569077 1.8982744 76.125
-0.53738469 -0.11741795 1.851698 75.333336
-2.4927878 0.092790991 1.8548878 11
-1.7176974 0.084951751 1.8412814 79.5
-1.6430604 0.036171861 1.8431371 82
-1.4287666 0.051218063 1.8413821 99.5
-1.2835255 0.089618817 1.8385875 65
-1.0967737 0.054226257 1.8783807 90.25
-0.96515 0.075017303 1.9254081 78.800003
-0.84683895 0.072694577 1.9249181 74.5
-0.67102879 0.074821316 1.9228153 74.125
-0.52637488 0.054665916 1.9169444 81
-1.7493848 0.25346434 1.8421341 80.666664
-1.6380185 0.18226087 1.8422421 77
-1.4149449 0.21185878 1.8399675 92
-1.2564797 0.23396437 1.8326889 83
-1.0897924 0.20084839 1.888273 94.400002
-0.94607478 0.21799885 1.9250779 78.833336
-0.83154255 0.22616249 1.9236336 74.111115
-0.67068923 0.22706422 1.9216487 76.125
-0.52565563 0.22571889 1.9159664 83.5
-2.360908 0.37883586 1.8031787 54
-2.1563911 0.36352253 1.8434926 84
-1.8345155 0.4385339 1.8381313 82.5
-1.7432944 0.37723842 1.8394299 81.666664
-1.6300403 0.3284643 1.8442405 67
-1.4104232 0.35976127 1.8369735 90.599998
-1.2799746 0.37248152 1.8339826 81
-1.0990442 0.35628077 1.8768282 79.666664
-0.93512279 0.36592913 1.9232922 76.833336
-0.8434568 0.3934238 1.9218642 72.5
-0.67341614 0.3786732 1.9208448 75.75
-0.51210529 0.40056115 1.9180181 76.5
-2.4079006 0.51211375 1.8385233 74
-2.2965767 0.46637753 1.8410134 84
-2.193614 0.51538104 1.8393728 85
-2.0982974 0.57704622 1.8458918 76
-1.8992631 0.50666386 1.8365186 87
-1.4398861 0.50955957 1.8406323 89
-1.3092933 0.51052821 1.8350437 92.25
-1.1328452 0.492755 1.8251452 57.5
-0.97074944 0.52318722 1.9260534 85.833336
-0.84021425 0.53176612 1.9217535 77.5
-0.679407 0.52826548 1.9193106 74
-0.56225604 0.53023648 1.9213295 72.25
-2.4282715 0.61264628 1.8774196 22
-2.2991097 0.66766626 1.838398 19
-1.4227619 0.66521573 1.8378977 88.333336
-1.2957199 0.65281779 1.8352855 88
-1.1191033 0.65083057 1.8916532 62.666668
-0.97226828 0.66743028 1.9279805 89.5
-0.81533879 0.66793805 1.927918 90.888885
-0.65185475 0.67030388 1.9186982 77.5
-0.52461362 0.69059068 1.921446 82
-1.3983263 0.82329464 1.8337055 83.666664
-1.2761896 0.79849225 1.836151 86.5
-1.0822079 0.81384778 1.9046388 81.75
-0.95399112 0.8129524 1.9287636 88.5
-0.81586665 0.81233454 1.9280262 90.428574
-0.68356341 0.82555956 1.9258693 88.714287
-0.53934467 0.83964986 1.9246187 92
-0.42352128 0.81934196 1.920643 101
-1.3900805 0.9582293 1.8331581 91.5
-1.2875866 0.97186244 1.832998 78.75
-1.1350256 0.9724589 1.8747903 61
-0.98612255 0.95663357 1.9262233 84.5
-0.8319245 0.95372331 1.9265032 82.25
-0.68085843 0.97791702 1.9255022 83.166664
-0.52942431 0.98105526 1.9252059 82.85714
-0.38568652 0.99171633 1.9246787 82.666664
-1.5075564 1.0793732 1.8301653 9
-1.3772223 1.1605241 1.8299121 93
-1.2663859 1.0995603 1.8298594 78.75
-1.0954158 1.1106439 1.8759954 87
-0.95125115 1.1296302 1.9223404 83.5
-0.81823522 1.1160971 1.9241738 77
-0.67470962 1.1274321 1.9219699 77.25
-0.50863105 1.1274651 1.9228463 76
-0.38033611 1.1461402 1.9198033 74.599998
-1.4697865 1.2390343 1.8311149 78
-1.2684437 1.2733865 1.8268076 82.599998
-1.1386724 1.2324309 1.8527522 51.5
-0.95689189 1.3000774 1.920117 77
-0.82332188 1.2977219 1.920784 75
-0.65637827 1.306607 1.9183686 74.5
-0.52217036 1.2749277 1.9163371 74.285713
-0.36375898 1.2835805 1.9181936 71.599998
-0.23762007 1.301622 1.9166569 69.666664
-1.5120679 1.3828199 1.8064574 3
-1.4247013 1.400735 1.828704 78
-1.2335386 1.3944778 1.8218479 76
-1.1160136 1.4022907 1.8543361 73.666664
-0.95866984 1.419372 1.919005 74
-0.81112576 1.4416388 1.9147525 73
-0.67503071 1.4495102 1.9163899 72.5
-0.52625144 1.3986409 1.9156717 75.5
-0.3738254 1.4316202 1.9142414 71.14286
-0.23257287 1.4546852 1.9135995 68.666664
-0.13229567 1.4446021 1.9123348 70
-1.4222432 1.5732462 1.8255947 73.5
-1.2790641 1.5095291 1.8244671 83
-1.147916 1.56663 1.8385435 73.400002
-0.99373668 1.5797194 1.9141337 77
-0.82749331 1.587333 1.9158906 71
-0.68255389 1.5813174 1.9119254 70.25
-0.51380163 1.5570009 1.9134682 72.25
-0.35451257 1.5788856 1.9079446 70.666664
-0.20967354 1.5805339 1.9076406 71.166664
-0.082949869 1.5876694 1.911091 69.666664
-1.6648765 1.7830662 1.8073984 6
-1.5018805 1.7833763 1.818628 9
-1.4085708 1.7618804 1.8197943 70
-1.264117 1.7156005 1.8203804 74
-1.1198034 1.7494637 1.8427696 50.333332
-0.96606147 1.7562469 1.9161264 61
-0.83140349 1.7144941 1.9196101 63
-0.64841598 1.7379037 1.911417 69.333336
-0.52255809 1.7372003 1.9123204 65.75
-0.34395161 1.7037945 1.9108511 73.333336
-0.21046589 1.7265682 1.9060665 71.5
-0.065302357 1.715425 1.9082438 69.333336
0.05555762 1.7512343 1.9036913 70.5
-1.8721623 1.9466109 1.8350435 0
-1.6819768 1.8769914 1.8141145 9
-1.6148106 1.9131458 1.8088194 7
-1.2476472 1.9242072 1.8215817 63
-1.1237528 1.8705668 1.8678783 44
-0.92150438 1.946946 1.9132103 60
-0.7974453 1.886488 1.9155693 59
-0.53644556 1.8868133 1.9085627 64
-0.40518075 1.8561339 1.9110646 61
-0.23656356 1.8532724 1.9056468 68
-0.11132184 1.8645697 1.9033867 68.571426
0.058102462 1.8982611 1.9025842 67
0.19010715 1.9130172 1.9051254 67.5
-1.57096 2.0149741 1.8079193 7
-1.4321448 1.9973196 1.8228303 74
-1.34101 1.9607476 1.8223006 64
-1.096333 2.0200901 1.9165878 43
-1.0237889 2.0258238 1.9117039 62.5
-0.70706451 2.0478792 1.9108124 61.5
-0.46941572 2.0126705 1.9045682 62.5
-0.37886992 2.0094814 1.9081798 60.666668
-0.27332735 1.9653243 1.9109071 63
-0.0483445 2.0229702 1.9009771 65.5
0.101692 2.0169137 1.900308 64.800003
0.25984862 2.0249755 1.8989254 65.333336
0.34556109 2.041106 1.8985993 68
-1.8098754 2.1714776 1.8281144 8
-1.6278865 2.1595178 1.8080207 7.5
-1.3050997 2.1928716 1.8214276 60.5
-1.1319015 2.1402543 1.8642669 47
-0.96315563 2.1809402 1.9137086 61
-0.8200022 2.1255052 1.9075502 54
-0.57258898 2.1801212 1.9047552 54
-0.35333115 2.1415133 1.9054257 58
-0.21468545 2.1636288 1.9046487 57.666668
-0.0079753278 2.1627536 1.9031953 58
0.11717479 2.1359696 1.8970075 68
0.2477221 2.1701517 1.8992163 66.599998
0.40384382 2.1842561 1.8992008 63.400002
0.49910912 2.1993403 1.8961929 61.5
-2.0654294 2.3213332 1.860763 8
-1.4467525 2.2681713 1.8228127 66
-1.1311393 2.3598623 1.8286548 32.5
-0.9850316 2.3200665 1.9144515 58.666668
-0.78451854 2.3811901 1.909254 59
-0.67492461 2.2863064 1.9110572 59
-0.46539479 2.364116 1.9142219 59
-0.22592613 2.3094268 1.9069341 63.75
-0.084579229 2.3233373 1.9054403 62.666668
0.10688476 2.3501704 1.9016129 61
0.27131388 2.2807028 1.8967586 65.666664
0.39083523 2.3444118 1.8958248 60.5
0.56158346 2.3180208 1.896257 57.5
0.67531067 2.3442585 1.8899788 57.666668
-1.8569386 2.4948516 1.8283967 9
-1.7378228 2.4053793 1.8160926 8
-1.5079521 2.4174023 1.8058034 0
-1.4988735 2.5480855 1.8207427 12
-1.2953463 2.475955 1.8143368 55.5
-0.92723209 2.401515 1.9118954 56
-0.8793332 2.5134382 1.9089317 56
-0.55151653 2.473103 1.9070561 54
-0.34390813 2.5349216 1.9048318 54
-0.083402447 2.4760063 1.9024924 59.25
0.085494414 2.4834039 1.902917 55
0.25161976 2.4985435 1.8988191 60
0.42460662 2.4147668 1.8882977 61
0.54912168 2.4739711 1.8878928 58.5
0.67351741 2.4639199 1.8923436 61.666668
0.80575943 2.4834015 1.88771 61.400002
0.92815709 2.5123949 1.8841017 56.5
-2.3143163 2.6272118 1.8607602 3.5
-2.0077124 2.6317234 1.8771976 10
-1.6534785 2.6534579 1.8031248 8
-1.4752584 2.6362615 1.8096477 47
-1.1337161 2.6758444 1.8033959 54
-1.0152694 2.6351163 1.9070593 63
-0.84835267 2.6185217 1.9061314 58.5
-0.6467573 2.5860374 1.9041623 58
-0.39083394 2.627248 1.9070805 56
-0.0057519255 2.5574903 1.8930253 55
0.075198144 2.6438804 1.8955257 61.75
0.25168085 2.6361296 1.899774 57
0.41208807 2.6486392 1.8939805 63.5
0.65731186 2.589709 1.880627 54.666668
0.79150939 2.6368308 1.8914709 45.5
0.98349893 2.6150787 1.8849541 51
1.1229306 2.6069095 1.883504 50.5
1.2689834 2.6944764 1.878879 49
-2.1899467 2.761879 1.8671042 7.5
-1.7733372 2.7720857 1.821936 9
-1.4356602 2.7539637 1.8042394 67.666664
-1.2208685 2.7655661 1.806774 60
-1.0942966 2.717829 1.9045347 44
-0.77999604 2.7191405 1.8962947 59
-0.74448359 2.7994082 1.8969646 63
-0.49105644 2.7954721 1.897241 57
-0.43509892 2.7104552 1.902135 52
-0.22494437 2.7672577 1.8973473 58
0.22207633 2.7780097 1.890591 62.5
0.43438286 2.7819741 1.8891 60
0.5757159 2.7582932 1.8902327 54
0.82756156 2.7443027 1.8845413 43.5
0.96601105 2.7435772 1.8867873 45
1.1497653 2.7254572 1.8807983 53.333332
1.2694429 2.8224304 1.8820161 48.666668
1.3987813 2.7511575 1.8377913 24.666666
-2.2560959 2.9291654 1.8685888 7
-1.8977928 2.8996494 1.8409094 10
-1.3772018 2.9211152 1.8033954 62
-0.96855044 2.974956 1.9060043 64
-0.8984744 2.8710172 1.9053169 65
-0.66758132 2.919384 1.8934141 60.5
-0.27239278 2.9089148 1.8912901 57
-0.055332679 2.9145105 1.8956608 68
0.27757031 2.9038815 1.8878723 56
0.39619911 2.9291561 1.8856493 56.333332
0.62421751 2.9037666 1.8947515 49.5
0.76859885 2.9275913 1.8925461 45
1.0114187 2.9055667 1.875645 44
1.1222135 2.8712931 1.8762412 49
1.3968339 2.9250283 1.8847879 54.25
-2.4021983 3.0355208 1.8608361 8
-2.2610109 3.0227334 1.8549224 8
-2.1997449 3.0578237 1.8533674 7
-2.0574567 3.0652752 1.8847955 7
-1.3552802 3.0335827 1.8029326 64
-1.0842441 3.050894 1.8088757 29
-1.0362226 3.0768464 1.9029461 66
-0.76471269 3.1160843 1.8987738 63
-0.60815084 3.0475967 1.892047 58
-0.57197976 3.1022596 1.8898838 60.5
-0.31462029 3.0183265 1.893634 60
-0.082133681 3.0735192 1.8899108 58.5
0.11675157 3.1192575 1.8906125 62
0.50167841 3.0961773 1.8852602 54.333332
0.66313827 3.0407882 1.8854572 54
0.83812922 3.0572267 1.8882229 53.5
0.98250872 3.0981224 1.8890098 55
1.283753 3.0636258 1.8743528 49.5
-2.5516868 3.1579361 1.8481909 7
-2.1867218 3.2342529 1.8564591 6.5
-1.4732876 3.2699943 1.8188854 59
-1.2651018 3.2456105 1.8066279 60
-0.842049 3.2415004 1.8598158 53.5
-0.6008479 3.2465713 1.8049475 37
-0.48770848 3.2402589 1.8992783 80
-0.44806865 3.2896042 1.8494002 6
-0.11464451 3.2658389 1.901817 86
0.108281 3.2413106 1.8514051 54.5
0.29679358 3.2630355 1.8369445 10
0.6521641 3.1772091 1.8920437 63.5
0.97802019 3.1961389 1.8898624 61.5
1.1131886 3.2684731 1.8929425 64
1.2303908 3.2468417 1.8431138 5
-2.3253641 3.3813515 1.8427173 7
-2.1446934 3.3922393 1.8265601 6
-1.9126594 3.3522868 1.828914 0
-0.92342961 3.3413756 1.8007253 66
-0.64378691 3.3788767 1.8021942 63
-0.42965621 3.3170257 1.8850399 27
-2.9141493 3.4702964 1.8417176 8
-2.4837387 3.5508685 1.8385273 8
-1.3431499 3.581686 1.8004328 94
-2.0619955 3.6222351 1.804556 1
