# .PCD v0.7 - Point Cloud Data file format
VERSION 0.7
FIELDS x y z intensity
SIZE 4 4 4 4
TYPE F F F F
COUNT 1 1 1 1
WIDTH 117
HEIGHT 1
VIEWPOINT 0 0 0 1 0 0 0
POINTS 117
DATA ascii
1.7711942 1.3422267 -0.76153636 46
1.6778603 1.5146815 -0.76784277 24
1.3749762 2.0933583 -0.86992162 7
1.2161909 2.2249763 -0.86863708 7
0.87584525 2.3746755 -0.86075747 15
1.243544 2.2977815 -0.87082148 5
0.5706206 2.4604173 -0.85316551 10
0.62616724 2.460376 -0.86209208 14
1.2864836 2.4961376 -0.8706888 6
0.073381349 2.5724299 -0.80451298 8
0.38334364 2.5691872 -0.85728669 5
0.58503294 2.59056 -0.85854304 12
0.77320522 2.6910608 -0.86177307 13
1.3202541 2.6438198 -0.86716586 9
1.5277758 2.6023622 -0.87159264 7
-0.15546714 2.8024871 -0.8559345 5
-0.090597041 2.8103795 -0.84163392 5.5
0.54209417 2.7469816 -0.85790342 6
1.3532529 2.792263 -0.872576 10
-0.11098398 2.9051137 -0.8503722 4.75
0.93552715 2.9320717 -0.8595165 7
1.4484497 2.9339552 -0.87833488 8
-0.012370336 3.1209159 -0.85878485 10
1.4115815 3.1162505 -0.8750487 8
1.3164203 3.282685 -0.82454145 8
1.3928926 3.1987801 -0.84422833 35
-0.011906761 3.4478571 -0.86608857 9
0.010198099 3.4212995 -0.86039084 9
1.7571678 3.3488371 -0.8747189 4
-0.31723538 3.6539855 -0.84193957 27.5
-0.24338208 3.6508684 -0.83562326 84.5
0.0095239701 3.6236212 -0.85243422 8
1.229439 3.6670616 -0.75523609 48
1.3522468 3.6522152 -0.7708165 5
1.7469144 -0.38303351 -0.61621916 92
1.7596686 0.10003438 -0.60025561 16
1.7569528 0.24326549 -0.61874682 86
1.7580314 0.38343045 -0.61459839 91
1.765164 0.55710185 -0.62227857 96.5
1.7620816 0.73396301 -0.62165385 85
1.7711787 1.2460229 -0.70629835 90
1.7705659 1.4124978 -0.71092594 74.5
1.4480549 1.5302787 -0.66658902 49.833332
1.6039581 1.5154952 -0.72614908 78
1.6852612 1.5162162 -0.68148011 63.666668
1.4334354 1.7078081 -0.65179944 75.599998
1.4292632 1.856777 -0.62500536 72
-0.05331156 2.0414588 -0.6543569 33
0.73759216 2.0412085 -0.64134723 10
0.75462967 2.0494456 -0.62249017 4
1.4319999 1.9677439 -0.65354729 60
-0.095580272 2.7753811 -0.69899297 5.5
-0.47491464 3.6654093 -0.70982665 108.66666
-0.44573101 3.6664081 -0.68136168 123
1.1459836 3.6569529 -0.69425678 124
1.2683035 3.6675181 -0.70773017 95.5
1.5844058 -0.53250217 -0.4934043 28
1.730134 -0.5037632 -0.53511924 74.666664
1.7456608 -0.43407887 -0.53761119 83
1.6443303 -0.28820232 -0.4634636 143
1.7453521 0.089001417 -0.50259209 88
1.7580911 0.21898802 -0.52004814 86.714287
1.7554997 0.36657542 -0.52685505 87.85714
1.7605903 0.52064103 -0.51504648 85.14286
1.7579432 0.6748848 -0.52580291 58.5
1.7601985 0.83228445 -0.53470844 87.166664
1.7608665 0.97292149 -0.49727041 79.800003
1.7642816 1.1001238 -0.51612717 83.25
-0.29130414 1.2938169 -0.46017736 4
1.7746607 1.2801744 -0.49054328 85.333336
1.7730353 1.4214091 -0.49177667 77
-0.37826857 1.5534039 -0.47609746 9
0.56952816 1.6245589 -0.53026676 4
1.4350787 1.513519 -0.54998934 18
0.38778988 1.6905987 -0.48755062 4.5
0.46711183 1.6675749 -0.46774715 31
1.43312 1.7034731 -0.53770101 71.5
1.4331062 1.917855 -0.5346185 63.75
1.4292102 2.0215778 -0.57304281 70.5
1.4310132 2.1940877 -0.53140908 64.166664
1.424632 2.3341801 -0.50802797 9
-0.45981613 2.411552 -0.57638609 6
-0.44269899 2.4243898 -0.57292062 4
1.7727878 2.9261985 -0.51658595 69
1.7803402 3.0495033 -0.49415946 61.333332
1.1798544 -0.52209681 -0.41013309 35
1.2102606 -0.52937317 -0.43091032 17.5
1.5481983 -0.52800435 -0.44543484 33
1.668443 -0.53293473 -0.42099777 25
1.7481751 -0.36728564 -0.42994827 76.5
1.2906555 -0.21033368 -0.42884248 3.5
1.2621084 -0.065278456 -0.41893402 55
1.7591214 0.62276524 -0.44954526 86
1.7617954 0.8171289 -0.42559728 86.666664
1.7605102 0.96302909 -0.42494607 76
0.096470162 1.1669248 -0.40194374 0
1.7644181 1.1274109 -0.41079152 79.5
-0.30909619 1.2989502 -0.40807867 0
-0.25864974 1.2744871 -0.42081437 4.6666665
0.08226265 1.2174371 -0.41379383 0
1.7709618 1.2335329 -0.43669596 98
-0.34666264 1.4617422 -0.43129972 16
0.24151303 1.4688541 -0.4183923 6
1.7752554 1.4482949 -0.41038465 77
-0.45586216 1.5322194 -0.41589516 51
-0.37665904 1.5420169 -0.42214528 23
1.6429552 1.5186907 -0.43194765 62
1.7565665 1.5131179 -0.42770988 80
0.365327 1.7046272 -0.40420198 20
0.49903369 1.6569841 -0.43880191 37
-0.53620034 2.5400431 -0.40164629 1
1.7779336 3.1955357 -0.44784644 64
1.7852786 3.3553829 -0.4196195 66.5
1.7919362 3.5431364 -0.42585993 56
-0.93871385 3.6761312 -0.40260541 114
-0.88885289 3.6734345 -0.40160432 106
1.2139355 3.664263 -0.42951456 81
