# .PCD v0.7 - Point Cloud Data file format
VERSION 0.7
FIELDS x y z intensity
SIZE 4 4 4 4
TYPE F F F F
COUNT 1 1 1 1
WIDTH 1059
HEIGHT 1
VIEWPOINT 0 0 0 1 0 0 0
POINTS 1059
DATA ascii
0.59653687 -0.7781682 -0.16451496 7.5
0.73132187 -0.79830915 -0.17617248 7
0.87023187 -0.81971574 -0.16044448 7.3333335
0.96056938 -0.8385855 -0.18693109 7
1.1428226 -0.81354606 -0.17523888 66.199997
-0.47684938 -0.6051532 -0.17763089 10.5
-0.38151142 -0.6213333 -0.17795044 9.454545
-0.2005904 -0.64631414 -0.17676871 9
-0.041390847 -0.67181587 -0.17327817 9
0.067394853 -0.69041032 -0.18158227 9.090909
0.18615852 -0.70825452 -0.17162971 7
0.30314118 -0.7397083 -0.19143823 8
1.1774549 -0.6812135 -0.17661023 77.5
-0.5431546 -0.59208632 -0.16553956 10.5
1.199995 -0.4647935 -0.16091847 16
0.72475779 -0.40721163 -0.17710274 8
1.2290226 -0.36684442 -0.17985694 54.666668
1.2595546 -0.22812346 -0.16853172 10
1.2711283 -0.11663543 -0.18032517 30.666666
1.3018495 0.077903003 -0.17210175 55
1.3237358 0.22656743 -0.16682638 74
1.3561475 0.39865297 -0.17438233 69.5
1.3755554 0.53657317 -0.18451135 66
1.3973835 0.6505003 -0.16023731 68
1.4147197 0.80717683 -0.17791444 71.666664
-0.37268957 1.0405747 -0.18742591 0
-0.38347507 1.0682656 -0.17865546 0
-0.16129875 1.1869227 -0.16466354 0
1.2140859 1.1923199 -0.17774238 63.5
1.4196399 1.1407212 -0.18142268 62.5
1.1457847 1.2552768 -0.1768245 44.333332
-0.80439103 1.3965392 -0.19988522 3.5
0.13447134 1.4936715 -0.17941892 30
0.16415919 1.4856619 -0.16567865 36
0.38791817 1.4212226 -0.17607525 28.25
0.10765614 1.5117177 -0.19417015 35
1.2194343 1.7474952 -0.17406613 48
1.7224844 2.6681941 -0.16307268 41
1.4599392 2.8726037 -0.16957133 62
-1.2333734 3.2645736 -0.18821125 29
-1.2525647 3.3310478 -0.15580051 44.5
0.521963 -0.7641806 -0.11271863 6.3333335
0.69171053 -0.79005927 -0.11273513 6.3333335
0.82239836 -0.81295311 -0.067423172 7
0.93928528 -0.8309958 -0.082135089 17.5
1.1470559 -0.82068044 -0.08028008 66.14286
-0.48875856 -0.60614312 -0.10049407 10.1
-0.37596872 -0.62266988 -0.07369417 10.2
-0.21627924 -0.64481598 -0.068167426 10.521739
-0.083552964 -0.66376823 -0.079426683 10.409091
0.071735844 -0.6882171 -0.061722614 9.913043
0.21360128 -0.71337008 -0.060182288 7.5333333
0.35698861 -0.74028248 -0.089811012 6.9375
1.1703436 -0.7072531 -0.046388026 76.75
-0.76909721 -0.55748737 -0.025222695 12.25
-0.66622734 -0.57221484 -0.055010792 11.52
-0.54610515 -0.5896976 -0.06395486 9.5
-0.37847686 -0.56378394 -0.10489118 3
1.2154028 -0.4653798 -0.060876265 12.166667
0.72183883 -0.39896461 -0.07423152 7.3809524
1.2321442 -0.35959476 -0.069583245 43.714287
1.2517847 -0.22067221 -0.061222315 50.529411
1.2785224 -0.076017149 -0.079964064 44.5625
1.3025695 0.070489146 -0.082422383 65.3125
1.3255574 0.22603461 -0.07530085 71.428574
1.3453292 0.34298813 -0.068127774 64.888885
1.3579314 0.41595531 -0.06732522 63
1.3737006 0.51534355 -0.075644165 66.199997
1.3976285 0.68085521 -0.049487684 66.199997
1.4204315 0.82457 -0.068525791 70.199997
-0.32885331 1.0308545 -0.10977944 0
-0.29635906 1.0468351 -0.12676772 0
1.4409337 0.95075125 -0.073861435 69.833336
-0.49028122 1.1035306 -0.079988986 0.90909094
-0.3859899 1.1223913 -0.068782739 0.77777779
-0.22732735 1.1510345 -0.082870595 0.80000001
-0.13377292 1.1621615 -0.076038256 0.66666669
1.2625641 1.1892656 -0.052176353 60.5
1.4417573 1.1232589 -0.064863048 65.333336
1.1467097 1.2693858 -0.087396093 47.5
-1.1136019 1.371554 -0.051150415 7
0.27882031 1.4503032 -0.1216244 22
0.36143592 1.4172093 -0.11841758 23.25
0.46457171 1.4395908 -0.060521457 12
1.1719843 1.4392475 -0.10844884 54.599998
1.1867213 1.553746 -0.1088829 54.5
-0.0013340593 1.7374955 -0.12066228 19
0.013302487 1.6878434 -0.12536162 25
1.2102786 1.6923475 -0.042844817 49.75
0.067395881 2.0137331 -0.12413437 11
1.259596 1.9939299 -0.092618294 57
-1.3151448 2.3848743 -0.058660004 11.5
-1.2602689 2.4773219 -0.085838385 7.5
-1.2133896 2.5635295 -0.10019745 4
1.7125831 2.6153967 -0.089754112 50
1.2921839 2.8118336 -0.085139401 29
1.5574086 2.8246007 -0.12133501 37
1.3762121 2.8571815 -0.14103955 50
1.7876871 3.0965915 -0.024043983 43
-1.2190738 3.2596579 -0.055792693 25
-1.1666523 3.2358241 -0.096955396 2
-1.2419065 3.3685002 -0.08745829 37.25
-1.1564132 3.3814769 -0.10137749 13
0.38382781 3.4841342 -0.035011057 63
0.51667339 -0.76051468 0.080865577 6
0.66717952 -0.78410321 0.059298169 6.4166665
0.83943516 -0.81454659 0.053150684 6.6666665
0.93346447 -0.82401544 0.096610434 21.666666
1.1316757 -0.82098144 0.074204825 51.25
-0.46712318 -0.60299587 0.076118335 10.666667
-0.37264732 -0.61699736 0.08481361 11.230769
-0.22502171 -0.63933015 0.066106647 10.84
-0.076773256 -0.66066551 0.067451715 9.3703699
0.069551736 -0.68410915 0.080877371 7.681818
0.22775848 -0.71731991 0.096811712 7
0.38112399 -0.73904699 0.075002454 6.5999999
1.1719871 -0.69570911 0.084255897 70.888885
-1.0734478 -0.49994683 0.14812344 7
-0.95633012 -0.5213027 0.11735375 5.5999999
-0.82524186 -0.54392219 0.057193741 8.166667
-0.68433094 -0.56703258 0.067930035 9.454545
-0.52382243 -0.59142977 0.092554793 10.428572
1.2232463 -0.47204649 0.08621347 13.5
0.71843475 -0.4122878 0.011804665 6.6666665
0.9123252 -0.4030948 0.037632909 7
1.2251143 -0.38713676 0.05902119 55.923077
1.2468761 -0.23516317 0.081181459 64.833336
1.2749406 -0.067678019 0.07197018 66.416664
-1.1143638 0.12329489 0.13259977 0
1.300933 0.077086985 0.067721881 62.333332
-1.0895555 0.16969597 0.12440754 0
1.3251891 0.22979207 0.077145085 63.75
1.3461208 0.35477877 0.090662107 58.5
1.358567 0.42143497 0.077799454 61.599998
1.374429 0.52394962 0.06158049 64.090912
1.4000726 0.6837669 0.076156579 66.444443
1.4228184 0.82943279 0.08511433 68.333336
-0.51679176 1.0412754 0.1125545 0
-0.37059021 1.0354607 0.14871484 0
1.4441702 0.96105528 0.087438047 65.400002
-0.49166468 1.0815403 0.075020172 2
-0.37595764 1.104919 0.061122976 1.4666667
-0.23116131 1.1286556 0.072029807 1.1818181
-0.11335136 1.1416481 0.062982671 1.2857143
1.2599341 1.1896442 0.064384609 58.166668
1.4358298 1.1234565 0.072609566 59.444443
-1.1482394 1.3282452 0.082666077 0.75
1.1445185 1.2407386 0.079687722 33.714287
1.1654636 1.4005769 0.056089062 49.666668
1.1936733 1.5822471 0.14614362 47
1.2023466 1.624245 0.064729072 42.5
1.2459879 1.8724794 0.064206585 52.25
1.2533872 1.9773439 0.05506628 100
-1.4150696 2.2289851 0.035219725 12
-1.4075543 2.2971056 0.12067197 7.5714288
-1.3117464 2.4728251 0.055034153 9
1.345216 2.7636724 0.040415164 10
1.7531621 2.9485278 0.07301975 56
-1.4069211 3.29211 0.058171771 26.5
-1.4224516 3.3659172 0.059415873 17.333334
-1.1258563 3.3860416 0.094314359 6
-1.5054446 3.5013912 0.1210218 16
0.54459989 -0.76239002 0.21565168 6.375
0.66405982 -0.78285229 0.21300797 6.3000002
0.81598639 -0.80723524 0.23627579 7.8333335
0.97120571 -0.83368999 0.20827515 19.666666
1.1384354 -0.82647926 0.22839737 49.333332
-0.46373644 -0.60243189 0.18660833 10.75
-0.3701126 -0.61365962 0.22120337 9.545455
-0.22840132 -0.63526952 0.21834362 8.5
-0.072078258 -0.65976661 0.22604957 7.2758622
0.076785363 -0.69047004 0.23558292 6.6190476
0.21026063 -0.70748562 0.22427714 6.1999998
0.3640669 -0.7343784 0.21394525 5.5
0.46210161 -0.74716663 0.21727034 5.8000002
1.1655515 -0.71152067 0.21490732 67.222221
-1.2591358 -0.47390446 0.26960263 7
-1.1205786 -0.50015968 0.24433595 7.8333335
-0.97551078 -0.523745 0.21160151 8.25
-0.82618207 -0.54164863 0.214136 9.1764708
-0.6641804 -0.56745106 0.21986777 10.722222
-0.52921301 -0.58827633 0.21718147 9.7222223
-0.42487553 -0.59793425 0.27416816 7
-1.2407124 -0.32781011 0.23811561 0
-1.1908517 -0.34210104 0.22978228 0
1.2205213 -0.38405821 0.19384928 73.099998
1.2443167 -0.22211109 0.20990846 70.5
-1.2607908 -0.050540231 0.23491985 4
1.264146 -0.095868684 0.19234028 72.5
-1.2360784 0.086019993 0.25507495 0
-1.1774948 0.11761266 0.24763624 0.5
1.2915012 0.06598758 0.18698132 65.666664
-1.1812309 0.19655064 0.25198141 0
1.3247247 0.23762071 0.19910622 60.5
1.3398272 0.35315922 0.17913781 57.666668
1.3539405 0.42292652 0.22896641 60
1.3753233 0.53965253 0.20927699 63.833332
1.4002291 0.68982172 0.20209864 62.875
1.4248916 0.84150714 0.22400634 63.666668
-0.27845877 1.0215013 0.1796523 0
1.4462627 0.9808901 0.20972998 65.714287
-0.37742436 1.100319 0.2596612 1
-0.22463231 1.1273528 0.24521768 1.5
1.2751575 1.1905391 0.22764201 52.599998
1.4276204 1.1432077 0.23254897 58.916668
1.1540768 1.2438517 0.25347939 31.6
1.2001725 1.2056152 0.2732178 49
-1.2455264 1.4899523 0.299191 0
-1.0996315 1.4365778 0.21052229 2
1.1642438 1.395261 0.18459001 48
-1.250038 1.5195732 0.29068679 2
-1.1692199 1.5120081 0.24961627 2
1.1872307 1.5414037 0.22758119 48
1.201003 1.6248212 0.26314688 46
-1.8112456 1.6956623 0.29778469 4
-1.2546176 1.7244501 0.19915089 3.5
1.2291238 1.7612519 0.26615065 53.5
-1.7754927 1.9006395 0.25629541 5
1.2395204 1.8323053 0.19648433 46
-1.738709 2.1495147 0.24083537 4.75
-1.6834385 2.4565079 0.26101205 3.4285715
-1.2814466 2.4837296 0.21395732 8.333333
1.7155902 2.6492274 0.22466975 51
-1.6280355 2.7686994 0.27524137 15
1.7359867 2.8022034 0.26879549 41
1.8411322 3.3911228 0.27346134 47
1.8561974 3.5170863 0.22272652 78
-1.496825 3.6542583 0.2191003 12
1.0885267 3.6534791 0.28393632 1
-1.3698757 4.1404901 0.29453957 1
0.73238689 -0.78017712 0.31881303 35
0.9871406 -0.82956332 0.35134801 24.833334
1.1482087 -0.81293178 0.35882744 50.111111
-0.46550184 -0.60498953 0.3807691 6.5
-0.36763102 -0.61389995 0.37127289 7.4000001
-0.21810894 -0.64228487 0.38894731 6.6999998
-0.095858164 -0.66224998 0.36012703 5.9333334
0.024603913 -0.67939448 0.31621507 6
1.1728092 -0.70264357 0.33507419 55.333332
-1.362849 -0.45170921 0.44908273 7
-1.2744579 -0.4708837 0.3744579 6.8000002
-1.1154112 -0.49840471 0.36867112 5.8888888
-0.9647935 -0.52462715 0.35294756 6.75
-0.81516224 -0.5531317 0.36692417 7.125
-0.68824458 -0.56738448 0.36190984 8.083333
-0.5430721 -0.58663917 0.35667196 7.6153846
-0.42425963 -0.59753335 0.33733773 8
-1.63778 -0.42460108 0.37811449 17
-1.37995 -0.44088346 0.37066674 1
-1.4874247 -0.1005764 0.37069619 1
-1.3277277 -0.033267766 0.3918575 7.6666665
-1.2430456 0.06999962 0.36555704 0
-1.194201 0.13544227 0.36055747 0
-1.2103451 0.2787815 0.30851501 0
-1.1846151 0.20778088 0.36836535 0
-1.2193813 0.32382968 0.40241003 3
-1.185891 0.34457728 0.41356593 7
1.3950361 0.674649 0.30077702 63
-1.9316313 0.85960758 0.44612584 48
1.4194279 0.82093614 0.34144941 63
-1.9092089 1.0063086 0.42029303 47.5
-0.33331656 1.0425746 0.30744642 1
1.447749 0.98515815 0.36344203 58.666668
-1.8776431 1.1549695 0.38924804 45
-0.35888052 1.0779166 0.30374423 0
-0.25586116 1.0591489 0.31581682 0
1.1820784 1.1988088 0.40047342 48
1.2744687 1.1887957 0.36668003 50.888889
1.4441586 1.1357628 0.35337016 57.857143
-1.8539196 1.3306779 0.38621458 40
1.1531333 1.2674699 0.3644813 35.666668
-1.836092 1.4457554 0.3583256 40.666668
1.1696968 1.4158837 0.39005896 43.166668
-1.8180757 1.5416573 0.41128248 39
1.1863003 1.5212311 0.37010199 43
1.2024618 1.6296649 0.314156 48
-1.8070838 1.7356224 0.43709517 4
-1.7931648 1.7389549 0.38794526 5.8000002
1.2269443 1.744429 0.39228344 48.333332
-1.7723461 1.9086415 0.36524001 4.5999999
1.243261 1.8818868 0.40859318 48.666668
-1.7626429 1.9980748 0.399995 3.8
1.2587241 2.0028527 0.35595095 51
-1.7336692 2.1740632 0.30294937 5
-1.6817921 2.4908781 0.33699632 4.75
-1.6252209 2.8271406 0.38980019 16
1.7356287 2.7569828 0.40729511 36
1.7529663 2.9258463 0.31999141 46.5
1.7785718 3.065371 0.39224494 45
-1.533576 3.5135033 0.42843449 10
1.7011311 3.5600529 0.40785378 90
-1.5055331 3.6122785 0.4339394 10
-1.4682606 3.6972475 0.38906443 5
-1.407032 3.8598766 0.31625277 35
-1.3784107 4.0090084 0.33223915 2
-1.3508226 4.1511788 0.35034066 1
1.1521367 -0.84378183 0.46667957 53
-0.47259453 -0.60149908 0.51248503 7
-0.36433798 -0.61446363 0.51811916 6.4666667
-0.24369717 -0.6333074 0.50606716 6.8000002
-0.12794441 -0.65153509 0.45457476 7
-1.3549813 -0.4582673 0.53158462 5.5
-1.2409985 -0.47489777 0.50211078 6.1999998
-1.1180038 -0.49635068 0.52187741 5.5
-0.94563979 -0.52385765 0.57092857 3
-0.8417986 -0.54120934 0.49995154 6
-0.65459245 -0.56981641 0.50276238 6.5
-0.52062047 -0.58845413 0.55333614 6.3000002
-0.44794297 -0.59446132 0.51898915 7
-1.892655 -0.37554646 0.54841614 12.333333
-1.7508037 -0.42112249 0.550641 30.142857
-1.3807008 -0.44617707 0.53875005 28.5
-1.2996604 -0.036042921 0.53112739 5.25
-1.2517774 0.050464235 0.50012499 0.625
-1.2199491 0.16693753 0.55827892 0
-1.1845542 0.20255581 0.4876973 0
-1.2099098 0.3325052 0.52571297 5.6666665
-1.1975987 0.32394707 0.487791 6
-1.9547292 0.71843362 0.51221031 43.333332
-1.9475496 0.74928725 0.53886569 45.5
-1.9346936 0.83900344 0.55093479 45.400002
-1.9127426 0.96899641 0.54344714 47
-1.8889467 1.1209682 0.51646936 46.714287
1.2902246 1.1837627 0.48489681 50.666668
1.4471208 1.1327435 0.48562655 55.333332
-1.8670865 1.2449017 0.53618592 44.125
1.1535385 1.2610637 0.49635994 35.666668
-1.8418596 1.4022001 0.52630866 41.333332
1.1720513 1.4281739 0.54235333 40.42857
-1.8139964 1.575017 0.50442207 38.142857
1.1938065 1.5725564 0.53847992 39.400002
-1.8021197 1.7719278 0.48644677 4
-1.798035 1.7925283 0.5079394 4
1.2175012 1.6836979 0.51738077 42.5
-1.79096 1.8052505 0.5259847 10.333333
1.2582825 1.9353782 0.57796901 38
-1.7613852 2.0045133 0.49274227 3
1.2585375 1.9812565 0.50895095 46
1.7186644 2.6503115 0.4997645 35
-1.6399417 2.777081 0.55156171 11.5
-1.6161631 2.8836825 0.53027725 17.333334
-1.5876235 3.0760512 0.49227798 13
-1.5599747 3.2303994 0.52009994 12
1.806005 3.2471871 0.45666271 42
-1.5460241 3.3209879 0.49145263 9
1.8421447 3.429862 0.52743483 44
1.8293445 3.5376832 0.59811598 88
-1.4431611 3.6990633 0.51231927 1
1.1173158 3.6787038 0.53863037 15
1.5854936 3.7914469 0.56733865 8
-0.36646777 -0.60990661 0.68341786 5.4285712
-0.28077754 -0.62323785 0.62514448 5.5
-1.7062771 -0.46677595 0.61286807 8
-1.278707 -0.46841717 0.68157685 10.6
-1.116962 -0.4939557 0.67705411 6.3333335
-0.98562682 -0.51556629 0.6714747 5.5999999
-0.81092358 -0.54089767 0.69368422 6.125
-0.69647151 -0.5570572 0.65855408 5.75
-0.54193127 -0.58217746 0.67866069 6.1428571
-0.42591798 -0.59878457 0.6953724 5.5
-1.9890078 -0.34280598 0.66661495 2
-1.8614566 -0.37406489 0.67788458 3.4000001
-1.7339239 -0.43162426 0.69680524 8.5
-1.560827 -0.42254061 0.70518386 2
-1.3793902 -0.44354612 0.68513173 14
-1.2730269 -0.0110863 0.6001668 3
-1.8891797 0.0051885624 0.60478604 124
-1.2711525 0.10596992 0.63765895 4.5
-1.1775 0.12241117 0.72313851 6.8000002
-1.2531636 0.19314992 0.65370405 7.5
-1.1542088 0.19219561 0.70366073 11
-1.2313453 0.30259588 0.60967994 0
-1.936552 0.81990677 0.65945572 43.42857
-1.9148964 0.97054881 0.68058664 45.666668
-1.8940133 1.0940582 0.63714099 47.666668
-1.8671929 1.2394314 0.67171305 44.200001
-1.8433462 1.3982371 0.70586717 37.400002
1.177434 1.4671279 0.67615551 39.5
-1.8143229 1.580207 0.68893689 24.833334
1.1829165 1.5194485 0.68095839 36
1.2047336 1.6009636 0.68422794 40.5
-1.8026243 1.7685791 0.7173968 2.6666667
-1.7942681 1.7943592 0.66712177 2.5
1.2250607 1.7359602 0.66608894 40
-1.7948564 1.8472664 0.68187892 2
1.244042 1.8751664 0.65487069 38
-1.7572447 2.0116155 0.65451211 1.8
-1.7287893 2.1873033 0.64815402 3
-1.6156714 2.9013906 0.65567529 15.5
1.7626619 2.9166169 0.73462701 43
1.7871586 3.0737731 0.67213184 39.5
1.8164468 3.2395706 0.60018158 40
-1.5434471 3.3237593 0.6785866 13
1.6086545 3.5971725 0.71448171 21
1.6987696 3.564893 0.65514606 69.666664
-1.4323566 3.7200315 0.62156653 10
1.2265866 3.6837358 0.61278421 6
-1.4309651 3.757781 0.7288717 34
-0.36437541 -0.6073153 0.79799062 5
-1.2667109 -0.46470752 0.84465289 27
-1.1263013 -0.48617044 0.81776464 22.555555
-0.93586421 -0.51603413 0.84441435 16
-0.83779162 -0.53102648 0.84826916 10.75
-0.66088313 -0.56214654 0.82870388 6.3333335
-0.5249567 -0.5823105 0.80682921 6.25
-0.40780661 -0.59459007 0.84321749 2.75
-2.0265496 -0.34315708 0.85426104 2
-1.8608971 -0.37277833 0.83322477 2.75
-1.7305967 -0.39562932 0.80624574 3.3333333
-1.5920391 -0.41042414 0.83641976 3.3333333
-1.9736156 -0.28896439 0.88949919 3
-1.9093018 -0.15773188 0.78708506 7
-1.8296551 -0.12568559 0.80344331 1.8
-1.2316431 0.024631448 0.82377827 1.5
-1.1582317 0.08898133 0.79312092 1.625
-1.2242913 0.24802625 0.80262673 7
-1.1483017 0.20824452 0.79024291 2.8
-1.9241681 0.89291692 0.77754235 21.5
-1.9093944 0.99038982 0.79361886 47.5
-1.8930607 1.0882295 0.80968398 42
-1.8693811 1.2338082 0.80255044 38.25
-1.841877 1.3852273 0.79071873 37
-1.8238606 1.5783662 0.78905433 21
1.2052988 1.6064029 0.7952652 40
1.223689 1.728544 0.81975639 35
-1.8003719 1.8133801 0.80217016 3
-1.7772298 1.8333628 0.87653565 0
1.2469444 1.8879621 0.81014866 36.25
-1.7446206 2.0163131 0.76739609 0
1.2589908 1.9970239 0.83049065 20.666666
1.7136958 2.6594396 0.75723267 37
1.7338588 2.7703142 0.82644933 41.5
-1.6085852 2.9647651 0.80668688 16
-1.5423706 3.3959165 0.84065425 12.5
1.764025 3.5488932 0.8148278 88
1.8305464 3.5460811 0.89126933 77
1.0841101 3.6855199 0.77057481 1
1.2244074 3.6913865 0.89930856 1
1.5758641 3.6809709 0.77986419 15
-1.4252781 3.7866523 0.83744597 44
1.5640949 3.8067667 0.86323011 0
1.6388526 8.395196 0.83125114 0
-1.2302114 -0.468678 1.0041372 25.5
-1.1282458 -0.48678404 0.93145454 13
-0.90019786 -0.51722085 0.93497491 4
-0.80088884 -0.53790551 0.99567771 4.5
-0.67069924 -0.55697364 0.95487309 4.75
-0.52952093 -0.57996577 0.96941531 13.75
-0.41606361 -0.58760244 0.99626917 12.5
-1.8693674 -0.36480758 0.97086322 2
-1.6810601 -0.39457211 1.0490154 0
-1.6047689 -0.40882933 0.96524417 0
-1.3851795 -0.44123957 0.98267138 24
-1.975369 -0.28236842 0.91350436 2
-1.9172602 0.95720863 1.0078843 43
-1.8919938 1.1161845 0.99069089 43
-1.8669336 1.2842146 0.97498876 42
-1.8402843 1.462292 0.95900315 29.5
-1.8277951 1.5743409 0.97091389 22
1.2332351 1.7907037 0.93916762 36
1.2433496 1.8670547 0.96556044 34.5
1.2592131 1.9699526 0.99249601 30
-1.6264908 2.7918539 1.0041434 12.5
-1.6126369 2.9171913 0.97917044 11
1.7575636 2.8894832 0.9668169 39.5
-1.5881943 3.053606 0.96601152 12.333333
1.7764194 3.0348847 0.98572099 41
-1.5555376 3.2249587 1.0005081 9
-1.5534481 3.3099222 0.95444167 9
1.8346672 3.3403535 0.96830642 39
-1.515965 3.5227466 0.98713422 10
1.6214067 3.5916655 1.0247459 18
1.8627081 3.4942136 0.95421767 48
-1.4622817 3.695833 0.94901937 0.5
1.1429548 3.6714897 0.98404509 19
1.582474 3.6533346 0.98133457 17
-1.4075274 3.8360791 0.91630888 41
-1.3733732 3.9987581 0.94725728 34
2.5584192 8.21276 1.0440602 0
-1.2017568 -0.47222084 1.0954359 20
-1.0927474 -0.4883441 1.0866454 29
-1.0056913 -0.49720684 1.0971967 23.333334
-0.82439369 -0.52601695 1.0775177 24
-0.66621178 -0.55408895 1.1252483 16.6
-0.4979291 -0.57993299 1.1303746 19.285715
-0.38572416 -0.59384549 1.1756868 23.5
-1.9719527 -0.34188747 1.1366471 1
-1.7072654 -0.38969555 1.1322511 2.6666667
-1.3830372 -0.44264686 1.1172935 7.5
-1.9466337 0.77938133 1.1841235 27
-1.9153385 0.94916123 1.1332641 41.75
-1.888418 1.1135763 1.1271892 37.200001
-1.8672129 1.295874 1.1134011 43.200001
-1.8372735 1.4633193 1.1004589 39
-1.8198279 1.5677909 1.1135921 26
1.2605028 1.9960692 1.1097159 21
1.7215075 2.6717131 1.0757807 34
1.7453887 2.7901049 1.0510776 36
-1.6075214 2.9078066 1.1300794 13
1.8047234 3.1836631 1.0758773 36
-1.5455112 3.3600287 1.1562396 10
1.8309574 3.3198881 1.1797543 37
1.7110145 3.5641613 1.1138613 63.5
1.0776955 3.6952462 1.0790896 6
-1.4178387 3.7585447 1.12921 37
2.4441433 8.203043 1.1967691 0
-0.3075895 -0.60113949 1.2957381 24
-0.25760636 -0.61369896 1.2672422 24
-1.1560107 -0.47181278 1.3254212 20.5
-0.93407011 -0.50620508 1.3010721 20
-0.8157199 -0.52799714 1.2534311 24.6
-0.69948763 -0.54877949 1.3022237 24
-0.53688878 -0.57073969 1.28153 27.5
-0.36441517 -0.59164023 1.2021277 25
-1.8814528 -0.36425704 1.3032187 1
-1.6578815 -0.3893204 1.285478 2
-1.9455867 0.78147519 1.2244451 36
-1.9225464 0.97550786 1.2413325 44
-1.8962128 1.1302302 1.2939239 39
-1.8771904 1.2470287 1.3346508 34
-1.847998 1.4021244 1.2756994 32
-1.8287426 1.582486 1.2289519 2
1.7216367 2.6604509 1.2781507 33
1.7298887 2.7153661 1.3172535 36
-1.599125 2.9740179 1.2482985 12
1.7670286 2.8930252 1.3289977 35
1.7839823 3.026587 1.3340626 34
1.8122628 3.174026 1.332406 31
-1.5317582 3.4174161 1.2774047 10
1.8370934 3.3275058 1.3326433 36
1.8228749 3.5337379 1.3138503 65.666664
1.148211 3.677573 1.2777265 17
1.5805637 3.6607928 1.2825735 13
-1.4098816 3.8282275 1.2617416 38
-2.9680958 4.2947307 1.2877544 1
2.3407917 8.2361603 1.338343 0
2.0581956 8.3143444 1.331791 0
-0.28368324 -0.60480851 1.4220427 17
-1.2741331 -0.45636275 1.3745061 21
-1.15903 -0.46579635 1.4403088 16
-0.87066692 -0.51273084 1.4393739 17
-0.66121894 -0.55007607 1.4272387 24.4
-0.51014125 -0.57698298 1.3674403 23
-0.38045001 -0.59327716 1.4004444 22.5
-1.3850433 -0.4350397 1.3550984 0
-1.9694577 0.69182682 1.4304531 30
-1.9473894 0.80195022 1.4648404 39
-1.926594 0.93282044 1.4039714 39.5
-1.8927084 1.1332926 1.440479 31
-1.8623083 1.3086169 1.4312674 33
-1.8354141 1.4981468 1.4295343 29
1.7239182 2.694715 1.4391203 36
-1.6472096 2.7659957 1.4815909 9
1.7416301 2.7669427 1.3646169 35
1.7482893 2.857564 1.3912147 37
-1.5960611 3.0493662 1.3730043 9
1.776757 3.0205951 1.4826854 35
-1.5269744 3.4858742 1.4048922 10
1.6158091 3.5907376 1.4618496 14
1.7088449 3.5659769 1.3974645 61.5
1.0914962 3.6844738 1.4919084 7
1.5953223 3.6181757 1.4532492 18
-1.4061912 3.8927331 1.3912759 37
1.9578032 8.2800217 1.4898608 0
2.2527974 8.297864 1.4890883 0
-1.1041156 -0.47675663 1.5376585 17
-0.96296531 -0.50111723 1.5217518 23
-0.8063758 -0.52356291 1.5813626 21.5
-0.61976159 -0.55416763 1.5602823 24.5
-0.5271523 -0.56863451 1.5738117 24.200001
-0.39158535 -0.58792895 1.6092921 23.666666
-1.9483739 0.77932072 1.6081781 37.5
-1.9171138 0.9579289 1.5845222 40
-1.8835801 1.1411899 1.5645609 34.5
-1.8553567 1.3213501 1.5803574 33.333332
-1.8328966 1.4920806 1.6206869 27
-1.8216035 1.5454197 1.5527023 29
1.7293829 2.6769335 1.5685456 33.5
-1.6293293 2.8278651 1.6484724 14
1.7460256 2.7891533 1.5896012 32
1.7758077 2.9504523 1.5709882 34
-1.589779 3.1310873 1.5085936 10
1.8010881 3.09284 1.6120434 36
1.5269598 3.2356172 1.6264306 1
1.8285413 3.2750511 1.6150324 37
0.51914108 3.4010196 1.6160328 26.5
0.6219728 3.4081829 1.6152856 7
0.82271212 3.3610423 1.6335734 21
0.9692201 3.3342609 1.629779 27
-1.5254827 3.5830061 1.5532594 11
1.1189389 3.5935125 1.6488377 37
1.2572677 3.5746071 1.6451043 29
1.758487 3.5557158 1.5732008 69
1.8366315 3.546334 1.6366557 70
0.82328963 3.6947081 1.6193 28.333334
0.96072227 3.6676517 1.6204046 8
1.1645311 3.6779497 1.5061653 18
1.3142883 3.6041963 1.6077527 49
1.4272655 3.617667 1.5972353 24
1.558705 3.649091 1.5222851 8
0.32914799 3.8223555 1.6326925 138
-1.3988146 3.9666953 1.5322546 2
-1.2465346 4.0377331 1.6211599 5
-0.89332885 3.9720891 1.5839655 2
-3.059917 4.3564115 1.5508446 0
1.8759191 8.3189535 1.6448642 0
-1.2773279 -0.45096278 1.6790379 18
-1.0519465 -0.47968531 1.6768731 19
-1.0130982 -0.48708886 1.7937778 20
-0.78861123 -0.52680719 1.7033931 27
-0.71284986 -0.54143703 1.7516562 20
-0.5050208 -0.57387292 1.797772 31
-0.36748549 -0.58461213 1.7167805 25
-2.1012313 -0.30929512 1.7878493 0
-1.3410803 -0.44546407 1.6941162 1
-1.9828253 -0.28802374 1.7455932 0
-1.9798839 0.58994073 1.7112433 1.5
-1.9575343 0.68952084 1.7529693 32.333332
-1.9528602 0.75264484 1.7120355 34
-1.9263175 0.83772218 1.7528559 23.4
-1.9045004 0.99394512 1.7292694 29.6
-1.8899816 1.103659 1.7164221 27.333334
-1.8645842 1.2555439 1.7236454 27.799999
-1.8369948 1.4387132 1.7000756 29
-1.8027946 1.579743 1.765309 19.5
-1.8211091 1.6735649 1.6977152 3
-1.7722697 1.7762439 1.7979184 6
-1.7707686 1.8607067 1.7660595 26
-1.7466433 2.2855711 1.784063 13
-1.8600844 2.4091012 1.7999805 8
-1.6571136 2.5497563 1.7703856 12
1.4056973 2.7765772 1.7804102 46.5
1.5170306 2.8086815 1.7912236 51
-1.6105055 2.9364872 1.654745 14
0.83536357 2.9926379 1.7858201 42
1.1420672 2.9531431 1.7920027 27.5
1.3484287 2.9389858 1.7909256 50
1.4252619 2.8844566 1.7898687 44.5
1.5601907 2.8938248 1.7883873 49
1.7285204 2.9074411 1.7658468 45.599998
-1.6018784 3.076149 1.6684099 11
0.099586114 3.1115315 1.7900897 13
0.16616251 3.1404786 1.7709831 50
0.38318282 3.0761182 1.7834302 44
0.54526854 3.0577412 1.7836317 48
0.95829457 3.0088725 1.7862571 52
1.2840096 3.045311 1.7881527 51.333332
1.4206702 3.1114469 1.7869498 50
1.6156392 3.1097937 1.7906276 51
1.718541 3.0280623 1.7656045 42
1.8041153 3.1169968 1.6823944 37
-1.579308 3.2505972 1.6990882 11
-0.56023449 3.2597728 1.789909 45
-0.28804177 3.2391982 1.7877311 53
0.23354806 3.1966507 1.7784523 52
0.3458195 3.2258883 1.7806525 55
0.57549763 3.1713648 1.7853876 55
0.61138523 3.2902007 1.7904345 55
0.76211065 3.2725999 1.7894808 58
1.0190481 3.2140694 1.7893826 50
1.135468 3.1752579 1.7919651 49.666668
1.2525548 3.2737536 1.6988953 70.5
1.38469 3.2500184 1.747466 70
1.554872 3.1956758 1.7525034 61.75
1.7214975 3.1961768 1.7117279 64.25
-1.5524224 3.3826623 1.7147118 12
-0.53001487 3.4134831 1.7847421 4.5
-0.31350726 3.3730595 1.7930421 5
-0.085043922 3.3808963 1.7953392 62
0.37865314 3.4031551 1.7758617 71.333336
0.50788105 3.4060421 1.7323366 84
0.6292662 3.3797858 1.7691344 89
0.80553085 3.3482847 1.7319816 77.5
0.94134265 3.3248565 1.6868604 75
-1.5340095 3.5312002 1.7166675 12
0.73961169 3.5826092 1.7020754 18
1.0939988 3.5813866 1.7124726 57
1.2222012 3.58636 1.7093059 55
1.5626206 3.5087504 1.7081494 51.5
1.8623042 3.4575527 1.6603552 39
-1.4526196 3.6994796 1.6988792 30
-1.0287706 3.6363904 1.7543838 86
0.31218851 3.7333899 1.6722091 51
-2.4341173 3.895323 1.7493149 9
-1.3954376 3.8968868 1.6848642 26
-1.1102074 3.7556176 1.6803266 19
-3.2737646 4.0240669 1.7555488 13
-2.6286244 3.9379902 1.7154201 5
-1.3317033 4.016027 1.6582323 37
-0.85600621 3.9282725 1.6605567 21
-2.9217784 4.29355 1.6983873 1
0.6454035 4.321692 1.7137052 0
-4.4522576 -0.56794804 1.8622853 66.5
-4.0855737 -0.47529209 1.8641402 79
-3.5689013 -0.55437946 1.864864 6
-3.4132717 -0.55968654 1.8615705 1
-3.0942152 -0.49196643 1.8517529 32
-2.5815747 -0.4948681 1.8421398 20
-2.0378458 -0.48644307 1.8476259 20
-1.9179758 -0.47104135 1.8346486 20.333334
-1.096849 -0.45613351 1.8357438 81
-0.97404695 -0.46674502 1.8363576 83.333336
-0.82212502 -0.47334298 1.8314881 82.666664
-0.66813856 -0.52819741 1.8225111 76.400002
-0.52831811 -0.52018535 1.8302535 78
-0.37176147 -0.53559774 1.833959 76.333336
-4.1249914 -0.44228631 1.8609494 77.5
-3.8209832 -0.36913285 1.8631982 81
-3.6903522 -0.44433424 1.856963 83
-3.4756711 -0.34452546 1.8525282 83
-3.2495749 -0.3459028 1.8421942 78
-3.0773194 -0.40714994 1.8548685 31
-2.9433007 -0.36492133 1.8508362 73
-2.6119165 -0.43816769 1.8514084 1
-2.5007153 -0.38968259 1.8454607 22
-2.3558438 -0.36170009 1.840451 22.5
-1.9903343 -0.37417716 1.8364335 15
-1.8734691 -0.41309166 1.8305527 21.75
-1.7514396 -0.40255833 1.8342667 21
-1.5636328 -0.41577408 1.8471755 7
-1.4191667 -0.32947284 1.8149964 5
-1.3004458 -0.4222911 1.843559 93.5
-1.1379206 -0.36610702 1.8355539 76.400002
-0.97811836 -0.34313908 1.8372393 82.75
-0.83548021 -0.37751484 1.831929 83.714287
-0.67817563 -0.39487207 1.8317214 83.25
-0.55883741 -0.35720661 1.8327391 79
-0.42305273 -0.39265865 1.8432679 59.5
-3.6029391 -0.28479838 1.8651015 5
-2.9699745 -0.15364233 1.8481463 3
-2.7915716 -0.26806325 1.8500869 68.5
-2.6170642 -0.24438044 1.842206 71.5
-2.4671144 -0.20238133 1.8405883 72.75
-2.3201716 -0.17124687 1.8406769 73
-2.0085866 -0.24993843 1.8362156 82.5
-1.8680077 -0.24972865 1.8397472 66.400002
-1.7432181 -0.24522783 1.8357311 83
-1.5364109 -0.27797219 1.8433056 78
-1.4095826 -0.24076635 1.8446474 78
-1.2732582 -0.21073912 1.8386393 90.666664
-1.1097326 -0.22838576 1.8334805 79.5
-0.94402415 -0.22553353 1.8274556 79
-0.79085159 -0.23181848 1.826296 79.5
-0.67933136 -0.21366183 1.8440723 65.571426
-0.52157503 -0.2210647 1.8434076 70.5
-0.44330263 -0.257467 1.8250924 70
-2.6240962 -0.048250735 1.8428704 16
-2.4105468 -0.075901158 1.8352538 80
-2.1700125 -0.11896708 1.8449646 12
-1.9888834 -0.10878778 1.8359499 82.333336
-1.8838022 -0.083030716 1.8388916 85.599998
-1.7697821 -0.091206379 1.837695 84
-1.5499178 -0.12143457 1.838935 95.333336
-1.4196917 -0.072582595 1.8716779 89.666664
-1.2719383 -0.035828073 1.9401404 111
-1.1178851 -0.085160688 1.8657846 83
-0.97765535 -0.088045277 1.8819577 79.166664
-0.82483542 -0.080122262 1.9180018 71.400002
-0.6715169 -0.075642958 1.9249843 75.75
-0.51300132 -0.077894501 1.9264402 74.199997
-3.7247281 0.1212486 1.8482922 5
-2.4615543 0.06147046 1.8362993 74.333336
-2.3178368 0.014750485 1.8355926 72
-2.1782045 0.07882943 1.8384649 71
-1.8881205 0.047993332 1.8381202 7.5
-1.7220504 0.065496571 1.8815805 47
-1.5565257 0.041569807 1.9393425 93.25
-1.4315659 0.10223199 1.9383491 86
-1.2571276 0.067226484 1.9367234 103.5
-1.131362 0.079673044 1.9312639 91
-0.99888724 0.066900536 1.9264934 74.599998
-0.83743936 0.074876413 1.926554 79
-0.67648387 0.074633926 1.9243932 75.222221
-0.5037449 0.087108009 1.9232584 78.333336
-2.3262105 0.20307562 1.8454062 4
-1.5677139 0.20344539 1.9154873 75.400002
-1.4368857 0.24596745 1.9373275 89.333336
-1.2605276 0.21087712 1.9372525 96
-1.1344602 0.2427614 1.9319831 90.5
-0.9938885 0.22137633 1.9242795 76.800003
-0.82782865 0.22855014 1.927038 78.888885
-0.67920303 0.2271173 1.9236145 76.800003
-0.50618988 0.20874286 1.9217087 79.666664
-1.5726607 0.35134882 1.8887292 69.75
-1.4510009 0.39367408 1.9361709 79.25
-1.2558506 0.35670209 1.9355159 98
-1.1303139 0.37502807 1.9324187 92
-0.99493551 0.37457556 1.9305012 86.400002
-0.83025241 0.37132409 1.9247772 77.5
-0.67354047 0.37713876 1.9232444 73.285713
-0.49917138 0.36792305 1.9220076 73.75
-2.3040104 0.57923108 1.8311521 83
-2.0638812 0.51656467 1.8302227 8
-1.8152387 0.54482186 1.832482 85
-1.5619376 0.51307464 1.8811412 75.25
-1.4327627 0.52166128 1.9348117 83.333336
-1.2445679 0.50401318 1.9348295 88.5
-1.1195033 0.50903547 1.9314913 90.25
-0.97868955 0.53111273 1.9346603 90.800003
-0.8222394 0.52030164 1.9233748 80.777779
-0.6754173 0.5134896 1.9206831 73
-0.53370321 0.53869355 1.9224291 73.833336
-1.8828452 0.65468866 1.8272547 65.5
-1.7870668 0.69633031 1.8314136 86
-1.5476742 0.67783457 1.8785858 76
-1.432719 0.65351403 1.9310368 87.75
-1.2257383 0.65164244 1.9299444 86.5
-1.1077222 0.66390276 1.9291607 86.400002
-0.95589393 0.67488301 1.9317921 85
-0.79283452 0.67843115 1.9226652 88.599998
-0.67332619 0.67620158 1.924716 85.375
-0.51586527 0.67223829 1.9232775 80
-0.44349325 0.67135805 1.9212497 70
-1.8724301 0.80017406 1.8282245 85
-1.7660303 0.86074769 1.8298155 87
-1.5248849 0.84408492 1.8726214 68.5
-1.4160655 0.80732709 1.9286681 86
-1.2021143 0.75739008 1.932279 88
-1.1154037 0.83399743 1.9267248 83
-0.95005572 0.79989272 1.93177 85.800003
-0.80801606 0.82461995 1.9285637 90.5
-0.68679333 0.8293556 1.9257228 90.5
-0.54232186 0.82274961 1.924144 84.75
-0.41600296 0.81455618 1.9280716 94.333336
-1.8450398 0.95710343 1.822307 63.666668
-1.7400762 1.0292585 1.8284894 84
-1.454205 0.9930141 1.906509 70.666664
-1.3182031 0.97658348 1.9294497 83
-1.1186941 0.98123133 1.9273739 85
-0.98732525 0.95680332 1.926598 78.5
-0.82388365 0.9629876 1.9284292 82
-0.66336495 0.96597975 1.9256573 83.199997
-0.53094345 0.9756363 1.924795 84.5
-0.37928852 0.96717495 1.9265794 82.666664
-1.8159308 1.1370022 1.8242607 84
-1.7053574 1.1986861 1.820428 84
-1.5051433 1.0637875 1.8185929 87
-1.4219483 1.1607733 1.8994732 73.333336
-1.2606125 1.196365 1.9223453 76
-1.1242406 1.1088275 1.9220454 84.5
-0.97925657 1.1406006 1.9226049 81.5
-0.81519842 1.1237149 1.9285458 77.25
-0.65732819 1.0920563 1.9223245 79.5
-0.52107137 1.1344332 1.922103 76.14286
-0.37358478 1.102492 1.9242455 77.75
-0.27658349 1.161696 1.9263507 71
-1.8115646 1.2933314 1.8239216 67
-1.4252964 1.2802101 1.8830938 91
-1.2668049 1.342801 1.9196702 77
-1.0740124 1.2655838 1.9180681 82
-0.9768945 1.301446 1.9161757 75.5
-0.81935775 1.2777729 1.9236045 75
-0.67231286 1.2583528 1.918484 77.75
-0.54857665 1.2805945 1.9187907 76.285713
-0.38908836 1.2682072 1.9211863 70.166664
-0.26840281 1.2788134 1.9170321 72
-1.8333038 1.3633149 1.8045155 0
-1.724351 1.3746438 1.8245806 80.5
-1.4058411 1.4067806 1.8653286 67.5
-1.3393732 1.3622231 1.9182898 87
-0.97512341 1.4114522 1.9154819 78.75
-0.84951419 1.4447197 1.9151777 70.666664
-0.66775882 1.4295197 1.9155769 72.75
-0.51306909 1.4215062 1.9164015 72.199997
-0.39341283 1.4257599 1.9173136 72.166664
-0.22457196 1.4281346 1.9130944 66.333336
-0.10821156 1.4620147 1.8901972 46
-1.8110923 1.5798597 1.8064471 3
-1.7638452 1.5345834 1.8220124 46.5
-1.6284289 1.5622069 1.8197795 89
-1.3757432 1.5293667 1.9190094 84.5
-1.2952622 1.5685387 1.9154149 74
-1.1668339 1.5070975 1.9202625 71
-0.94667619 1.5916522 1.9149224 72.5
-0.84407854 1.5740819 1.9086443 72.5
-0.68604726 1.5879726 1.914955 69
-0.51811141 1.580501 1.9107901 71.5
-0.37623093 1.5770425 1.9109535 70.199997
-0.2210675 1.5621072 1.9054796 69
-0.063461281 1.5923771 1.909892 66.5
-1.7257295 1.7466002 1.8172992 41.5
-1.5830833 1.7582033 1.8227712 75
-1.3762004 1.6556723 1.8586332 11
-1.2737802 1.7157676 1.9136467 76.5
-1.1066824 1.666968 1.9130229 66
-0.9055258 1.6984193 1.9111062 72
-0.80956733 1.7160505 1.9041854 66
-0.71187592 1.7583138 1.9112321 63.666668
-0.5362134 1.705099 1.9108398 70.5
-0.38279 1.7204278 1.9083036 69.400002
-0.23560409 1.7103155 1.9100761 71.199997
-0.089139737 1.7213765 1.9094235 66
0.036730032 1.7471648 1.9068924 66
-1.9604946 1.8924427 1.823207 4
-1.776625 1.8042034 1.801299 4
-1.3507131 1.8370345 1.9052936 52
-1.2714896 1.8980149 1.9107146 69.75
-1.1361159 1.8616618 1.9133576 69
-1.0410197 1.8351693 1.9125777 66
-0.8259722 1.8395678 1.9058468 63.5
-0.69473702 1.9096352 1.9039735 61.75
-0.53147495 1.8755352 1.9094876 63
-0.33884543 1.8626397 1.9071623 65.75
-0.23879081 1.8872623 1.907578 66.666664
-0.073678441 1.8597425 1.9060093 70.333336
0.090974726 1.878315 1.9042479 66.199997
0.24141808 1.9484054 1.9052211 59
-2.1437199 2.0971644 1.835097 12
-1.9936174 2.0232625 1.8206841 11
-1.8646356 2.0391476 1.8235879 10.666667
-1.722145 2.018662 1.8100337 7
-1.5784402 1.9789126 1.8218954 75
-1.2416782 2.0030856 1.9093761 78.5
-1.1331948 2.0678923 1.9099501 63.333332
-0.96592176 2.0084076 1.9082743 57
-0.70407653 2.0154369 1.903041 64
-0.4738943 2.0549664 1.9051336 56
-0.35374877 1.9914172 1.9081959 66
-0.18726946 2.0295458 1.9042801 62.333332
-0.055350948 1.9843367 1.9043388 66
0.086167432 2.0335624 1.90286 64.666664
0.21500601 2.0269756 1.9009714 65.333336
0.35483491 2.0699196 1.8972231 61
-1.9253891 2.19677 1.819664 11
-1.5644591 2.2308884 1.8243626 69
-1.4632795 2.1764522 1.8222486 44
-1.2421629 2.1250904 1.9115232 66
-1.1647614 2.1715252 1.9077357 65
-0.96789533 2.2496493 1.9105002 55
-0.88348395 2.196034 1.9117554 60
-0.62708026 2.1652069 1.9000446 60.666668
-0.55874854 2.1394866 1.8996686 57.666668
-0.33624762 2.1843433 1.9063524 58
-0.18742672 2.1250625 1.9016336 65
-0.065410815 2.1580806 1.9008223 61.400002
0.12134054 2.143188 1.9001238 69.5
0.25163293 2.182641 1.9009517 69
0.35277712 2.1764798 1.8981787 64.5
0.48322701 2.1999278 1.8958992 61
-2.0959177 2.3610635 1.8322822 10
-1.9126241 2.3320575 1.8191595 8.5
-1.6548555 2.2659531 1.809954 41
-1.3838947 2.395627 1.8134416 60
-1.139482 2.3242688 1.9044365 62
-1.0483246 2.2992873 1.9080964 55
-0.78753972 2.385582 1.9066344 51
-0.50061369 2.3229063 1.9030348 58
-0.42353657 2.29106 1.9074794 56
-0.22079842 2.3493233 1.9057524 57.5
-0.058495615 2.2729926 1.9034716 58
0.069408283 2.3263659 1.9127563 55
0.25585234 2.3238766 1.8994893 62
0.40537992 2.3136411 1.8971941 64.800003
0.51685536 2.3358519 1.8949417 58.25
0.62700385 2.3372374 1.8963081 62
-2.367023 2.5136364 1.8338293 10
-2.2281811 2.4338584 1.8317369 10
-1.8697906 2.5263987 1.8153006 9
-1.5739522 2.5284224 1.8088738 67
-1.4817348 2.4661152 1.8151094 64
-1.0756304 2.4570684 1.9018397 58.5
-0.98322701 2.521565 1.9018804 55
-0.86324638 2.451304 1.9040817 56
-0.50917065 2.4023407 1.9003099 66
-0.3909778 2.4886956 1.8974195 53
-0.29076594 2.4610274 1.8986727 53
-0.073453039 2.4706616 1.9017941 61
0.11612143 2.4237239 1.9029429 65
0.23194888 2.4815829 1.8975459 61.25
0.40696856 2.502131 1.8918781 54
0.57278049 2.4655867 1.90229 42.75
0.6945107 2.4852495 1.8986431 42.200001
0.81218719 2.5024154 1.8917078 41
-2.5153472 2.5890567 1.830254 10
-2.0366087 2.6400194 1.8251179 10
-1.8491342 2.6187763 1.8111155 9
-1.2966641 2.635108 1.8094386 62
-0.99449354 2.6245337 1.8969312 54.333332
-0.71237952 2.6278117 1.9028513 57.5
-0.34623504 2.5934758 1.8883436 53.5
-0.27147818 2.6901102 1.8913502 54
-0.12605298 2.6012635 1.8976759 55.5
0.064031526 2.6438341 1.9006697 57
0.23884369 2.565768 1.898995 70
0.35678449 2.6246545 1.893428 61
0.58064848 2.6511221 1.8950455 44
0.71316606 2.6689348 1.8922573 47
0.82352746 2.5998578 1.8962057 42.599998
0.96326452 2.6448011 1.88442 55
1.0794805 2.6906981 1.8837124 53
-2.6211333 2.7821434 1.8300238 9
-2.3098564 2.8447227 1.8304068 10
-2.1781492 2.749069 1.835869 11
-1.8016541 2.7125347 1.8008794 9
-1.7933546 2.8228908 1.8053523 9
-1.4339416 2.7664156 1.8089806 62
-0.9494679 2.7541761 1.8898307 60.5
-0.8497436 2.7813826 1.8925588 59.5
-0.55582249 2.7983439 1.8994433 59
-0.20276232 2.7656643 1.8861238 59.75
0.032102939 2.7786665 1.8896457 59
0.21663643 2.8119669 1.8877009 67
0.4101544 2.7087269 1.8882687 65
0.50531203 2.7852263 1.8926399 51.5
0.60918707 2.7864928 1.8907257 50
0.81035352 2.7976456 1.8858427 50
0.98806489 2.7371724 1.8856989 53
1.1290257 2.7590957 1.8851256 52.5
1.2591504 2.7904072 1.8815738 50.5
1.3646049 2.8492844 1.8882791 43
-2.5794036 2.9219899 1.8266414 7
-2.4670601 2.9572344 1.8331136 8
-1.9713097 2.9482865 1.8235224 10
-1.789724 2.9299371 1.80226 1
-1.5817323 2.8984919 1.806825 10
-1.280897 2.997431 1.8035613 61
-1.1963288 2.8897543 1.8036131 64
-0.85861319 2.9337018 1.8864681 57.666668
-0.64013201 2.9399042 1.8947706 62
-0.063768044 2.9414825 1.8812985 59
0.21124889 2.9179442 1.8874446 59
0.59178025 2.8511114 1.8865269 55
0.67018414 2.9436719 1.8876303 58.333332
0.82097477 2.9225216 1.8855098 64
0.98932904 2.9474056 1.8637575 51.666668
1.147066 2.9507253 1.8944446 36
1.274956 2.9013653 1.899932 69.5
1.3751841 2.8984241 1.8885701 38
-2.7255237 3.1325858 1.828792 8
-2.618331 3.0793602 1.8289484 8
-2.1131589 3.0883942 1.8354434 11
-1.3651679 3.1060648 1.8020972 54
-0.79402703 3.0514317 1.8849 59
-0.73853612 3.1151166 1.8859484 60
-0.45980999 3.133888 1.8912727 62
-0.41668373 3.0246453 1.8950177 60
-0.0023637891 3.0481181 1.8776253 60
0.061240505 3.1192288 1.8843573 79
0.20296343 3.0799305 1.8876443 58.5
0.39575168 3.0564084 1.8840846 53
0.8015781 3.0164664 1.8976606 68
-2.5425336 3.2088282 1.8225523 9
-2.2435954 3.2090235 1.8280669 8
-1.4667163 3.2357655 1.810567 60
-0.68345046 3.2640526 1.8682923 58.666668
-0.50225401 3.2554438 1.8960074 57
-0.25869828 3.2027338 1.8477551 10
0.12096722 3.1773622 1.8704859 22
-2.5569606 3.4387851 1.8266817 9
-2.4748855 3.3406839 1.8272499 7
-1.2348878 3.443584 1.8056828 58
-1.1384977 3.3198476 1.8575304 63.5
-2.6309018 3.5473242 1.8213516 9
-1.3229436 3.5820928 1.8017291 61
-0.94772363 3.4842291 1.8017725 71
-2.877918 3.7308493 1.813393 8
-2.5186329 3.6595697 1.8208889 9
-2.4937351 3.8243577 1.8104032 8
2.0318091 5.3444958 2.1251938 0
