# .PCD v0.7 - Point Cloud Data file format
VERSION 0.7
FIELDS x y z intensity
SIZE 4 4 4 4
TYPE F F F F
COUNT 1 1 1 1
WIDTH 94
HEIGHT 1
VIEWPOINT 0 0 0 1 0 0 0
POINTS 94
DATA ascii
1.156595 2.2238395 -0.85736662 14
0.11348651 2.5043287 -0.85038543 6
0.272385 2.4294231 -0.85292411 5
0.37374496 2.4886863 -0.86185956 15
1.055702 2.4709682 -0.85798538 15
1.5973825 2.5320408 -0.85415798 7
-0.12081441 2.668402 -0.8519395 5
0.28508559 2.6262407 -0.85449433 5.5
0.48140574 2.6750047 -0.85894495 5
0.80557859 2.5920453 -0.85935509 15
-0.072724953 2.724915 -0.84967911 4.5
0.28580076 2.7938821 -0.8543092 5
0.78308719 2.7270429 -0.85313618 9
1.2818749 2.7715454 -0.86240518 13
1.6917731 2.7031028 -0.84425902 0
0.8445136 2.9871137 -0.85860372 6
1.7413478 2.9088583 -0.81427133 0.5
0.21517093 3.0156353 -0.85898411 6
0.24064924 3.2920866 -0.86509389 6
0.9032492 3.2489908 -0.86837149 5
1.7895939 3.2470422 -0.81640542 4
0.099102274 3.3312979 -0.86067814 1
0.73737603 3.4271259 -0.75576246 100
0.90853482 3.3993824 -0.86479431 6
0.13320471 3.5211041 -0.81345874 4
0.24614181 3.4833949 -0.86306846 34
0.48854429 3.4624114 -0.86715817 8
1.4494451 1.0362921 -0.60577577 71
1.4575608 1.0951624 -0.62431598 76
1.1872411 1.5818552 -0.65080023 54.5
0.55374116 1.8079126 -0.63908917 1
1.2468247 1.8913475 -0.6832391 59
-0.28143463 1.9719278 -0.61021626 0
0.19794773 2.0131364 -0.62264526 2
0.37022555 2.1177027 -0.66720194 3
0.64328068 2.3592696 -0.63153148 1
0.073499069 2.5352964 -0.69634211 6
1.7296861 2.7618928 -0.64276272 49
1.313622 2.905344 -0.64366645 46
1.4176247 2.8678284 -0.69905388 4
1.7558702 3.2606866 -0.64463395 73.5
0.69186455 3.4369659 -0.71995145 128
1.4160813 3.3102093 -0.61323142 68.5
0.34830749 3.4967544 -0.69874752 103
1.0053923 -0.84989101 -0.45265478 8
1.1428041 -0.83113533 -0.46679565 85
1.3235847 0.23188956 -0.469421 82
1.3294137 0.34022558 -0.46493801 8
1.360527 0.45906621 -0.45794064 79
1.3877454 0.63321853 -0.51622456 77
1.4188757 0.82994682 -0.50559914 71
1.4442165 0.98906571 -0.5338788 68.75
1.1585804 1.1989458 -0.50709862 57
1.2980567 1.1773573 -0.54973859 67
1.4488624 1.142789 -0.54660374 75.25
1.1497525 1.2396542 -0.49721256 46
0.30967981 1.4440134 -0.49489197 7
1.162479 1.4056726 -0.46802038 58.25
0.030778226 1.5735842 -0.46196401 7.5
0.18683404 1.516643 -0.47643256 12.5
0.48644179 1.5963905 -0.45032087 5
1.1897795 1.5880671 -0.45477515 59
1.2257553 1.8156147 -0.58649254 48
-0.2483796 1.9620324 -0.59501994 15
0.21661957 2.0205755 -0.56583512 9
0.37383229 2.7267077 -0.59851742 3
1.2990394 2.9029329 -0.4932704 44.5
1.8024645 3.1949096 -0.52778602 54
0.96041197 -0.83998263 -0.41188592 8.5
1.133341 -0.85028464 -0.43059963 68.75
1.151548 -0.73064548 -0.4351708 91
1.2392303 -0.37481743 -0.40802044 16
1.250724 -0.22348595 -0.42788839 63
1.282308 -0.078820221 -0.42385077 42.666668
1.303679 0.063837565 -0.42720613 62
1.3304548 0.22364604 -0.43665004 64
1.3371059 0.31481391 -0.42249322 82
1.3571761 0.41112322 -0.42508644 70.5
1.3757378 0.54489821 -0.42461982 76
1.3971376 0.67388254 -0.41624644 79
1.4198214 0.84417427 -0.40492862 73
1.2932371 1.1774043 -0.4389253 60
1.4412607 1.1538062 -0.41845813 58
0.22795279 1.4889356 -0.44249082 41
0.37882274 1.4884858 -0.42164591 27
1.1577444 1.3597872 -0.40556645 54
-0.0087051271 1.6219928 -0.43111077 24
0.070094608 1.5497164 -0.43021372 27
0.38937712 1.5192522 -0.41713038 12.333333
1.193609 1.5904802 -0.41566843 59
1.214843 1.7432384 -0.4058128 56
0.11259745 2.3734009 -0.43856379 108
1.2825115 2.7255995 -0.40105751 150
1.2645067 3.3471427 -0.41770062 113
