# .PCD v0.7 - Point Cloud Data file format
VERSION 0.7
FIELDS x y z intensity
SIZE 4 4 4 4
TYPE F F F F
COUNT 1 1 1 1
WIDTH 960
HEIGHT 1
VIEWPOINT 0 0 0 1 0 0 0
POINTS 960
DATA ascii
-0.2001987 -0.90251625 -0.17122374 6
-0.060213227 -0.92623031 -0.16909607 9
0.079668261 -0.96720517 -0.17332262 8.2222223
0.16281374 -0.9876889 -0.18999466 9
0.41967714 -1.0471729 -0.15563463 6
-0.61983961 -0.77757615 -0.16002785 16
-0.52337283 -0.80836725 -0.17197074 14.588235
-0.40049982 -0.83852446 -0.17362498 15.1
-0.24135113 -0.877361 -0.1774729 13.1
0.60880762 -0.75999719 -0.18658079 13
0.11917321 -0.60144556 -0.1948472 7
0.63283443 -0.65553486 -0.16208842 13
0.11811028 -0.57580191 -0.18857519 7.3333335
0.16624376 -0.51938432 -0.18477184 6.5
0.67402333 -0.51304877 -0.17385189 14.857142
0.70850259 -0.38555709 -0.18243557 14.833333
0.73230106 -0.26824063 -0.17774248 12.5
0.75702018 -0.19799244 -0.17439638 12.666667
0.78688473 -0.069556288 -0.17322329 13.090909
0.8151626 0.072054245 -0.16784845 12
0.85550147 0.22246213 -0.17228571 12.571428
0.88889438 0.35935885 -0.17615455 11.4
0.90167969 0.42086029 -0.15854087 12
0.92529255 0.53469574 -0.17378405 11.25
0.95781547 0.67946815 -0.17562021 9
1.0002458 0.83387458 -0.15718624 10
-0.68214673 0.9829073 -0.17337696 0
-0.58303565 1.0278431 -0.19871916 0
0.85859996 0.95510161 -0.15726294 64
0.97776443 0.93256533 -0.18477894 69
0.72010434 1.1419945 -0.18205903 15.8
-0.20257846 1.3271941 -0.16995324 7.25
-0.14937133 1.3042225 -0.19156216 6
-0.31315017 1.4035618 -0.16724174 6
-0.26833528 1.367105 -0.15920138 6.5
0.10550891 1.3827746 -0.1732344 9
0.77414006 1.370562 -0.18231502 38
-0.67825037 1.8478664 -0.17288089 0
1.1171935 2.531399 -0.19417445 29
-0.53301531 2.6053958 -0.19845821 14
0.97921324 2.6115096 -0.15768 37.333332
1.1007962 2.6061304 -0.19350505 35
-0.87863398 2.8385816 -0.19464877 30.5
-0.16881445 -0.91299611 -0.096756198 6
-0.085271984 -0.91446418 -0.11077227 11.352942
0.072832897 -0.96648264 -0.04839794 8.125
0.22585522 -0.99905205 -0.051315058 8.1428576
0.36267012 -1.0290802 -0.077896826 7
-0.75070143 -0.75059211 -0.059461389 15
-0.66302359 -0.77399498 -0.063846104 15.114285
-0.52139735 -0.81032342 -0.083556138 15.078947
-0.37770709 -0.84473193 -0.091720298 14.8
-0.22272076 -0.87983245 -0.06582088 10.333333
0.58852953 -0.82225424 -0.060835168 11.111111
0.60483527 -0.79097319 -0.045011379 11
-0.78589219 -0.7426213 -0.028494563 15.714286
0.11196401 -0.60906112 -0.076428905 7
0.62725043 -0.66947758 -0.088382229 13.4375
0.12776394 -0.56224591 -0.082734078 8.1111107
0.15846111 -0.52610785 -0.083167687 5.8571429
0.66444838 -0.51241916 -0.059007607 12.5
0.7034629 -0.36575875 -0.066531494 12.933333
0.73131365 -0.23933192 -0.065295696 12.826087
0.75694764 -0.17967278 -0.083345734 13.625
0.74038607 -0.10872164 -0.065970331 12
0.77082455 -0.074326903 -0.077164747 12.148149
0.81078708 0.074286014 -0.072842449 11.038462
0.85273856 0.22257741 -0.067392141 10.73913
0.88359386 0.35857797 -0.064889848 11.411765
0.90355015 0.4278504 -0.10248804 12
0.91936171 0.52092612 -0.072448142 11.133333
0.9538675 0.65938056 -0.071978554 10.111111
0.9905594 0.81653678 -0.07390631 31.9
-0.95875931 1.0173922 -0.0072313743 1
-0.82818258 1.0185733 -0.053523783 0.80000001
-0.69730365 0.96566117 -0.14105304 0
-0.56892085 1.0324806 -0.090562485 0
0.69514853 1.0165118 -0.045174424 4.5
0.81412584 0.96674651 -0.054008123 25.333334
0.95118201 0.93433809 -0.063384183 47.42857
-0.76280606 1.053491 -0.043163989 1
-0.6801784 1.0668607 -0.086555116 1.1666666
0.72375876 1.1906216 -0.02134884 44
-0.22762877 1.3391583 -0.12450624 5
-0.045371868 1.2717557 -0.080183409 6.5
0.043101151 1.3015362 -0.10115104 5
0.76283056 1.3221016 -0.12192169 31.75
-0.28741285 1.380978 -0.14049825 7
0.12137158 1.3660918 -0.10428927 19
0.16733874 1.4443057 -0.12554118 6
0.7802797 1.3979392 -0.10476796 40.5
-0.61165512 1.5054507 -0.12686568 16
-0.55760497 1.5238947 -0.11756536 63
0.81684166 1.5704051 -0.055815499 38.5
-0.62656701 1.7502112 -0.086088799 35.5
-0.51109546 1.661931 -0.12726793 8
0.84123105 1.6604308 -0.14851928 39
-0.52767748 1.8430998 -0.14452657 7
-0.53159982 1.9602015 -0.14210771 5
-0.43718672 1.9852706 -0.12615868 0
0.96505994 2.6260078 -0.11643928 50
0.88927746 2.8048449 -0.014289549 23.5
0.93173212 2.7733886 -0.060596261 38
0.94001848 2.9986694 -0.033564184 24
0.85603601 3.1401594 -0.12128768 150
0.93445039 3.1146412 -0.047278009 126.5
-0.71406919 3.5433247 -0.056596283 26
-0.52198863 3.5053837 -0.13580687 9
-0.067332044 -0.91659504 0.058549348 10.428572
0.054310381 -0.95626599 0.023917587 8.727273
0.22187734 -0.99707395 0.10882535 8
0.37193623 -1.0312754 0.098332852 7
-0.75334883 -0.75282443 0.036412176 15
-0.67384529 -0.77078581 0.066315748 14.041667
-0.54283595 -0.80214494 0.049132861 12.833333
-0.37430456 -0.83475161 0.026638454 10
-0.21442278 -0.88026482 0.11130765 12.083333
-0.13646762 -0.89684117 0.093414873 11.2
0.57995081 -0.83586419 0.069045521 10.4
0.6020664 -0.76061183 0.092005394 10
-1.092043 -0.67683822 0.14486879 9
-0.96210319 -0.69672316 0.10308794 13.5
-0.827654 -0.73366028 0.066532925 14.096774
-0.73987758 -0.74726713 0.14095002 8
0.10664187 -0.60841852 0.030487621 4
0.62454683 -0.66988641 0.083452486 10.833333
0.12532467 -0.5534845 0.066217773 7.2083335
0.15758213 -0.5238353 0.0064419908 4.5
0.65971309 -0.5284043 0.070197098 10.230769
0.68898821 -0.38443303 0.033833165 10.833333
0.73356009 -0.23046157 0.010932351 12
0.85280216 0.23759571 0.01770273 10.5
0.88362646 0.37936327 0.02812277 11.111111
0.89961803 0.46186805 0.076608397 9
0.91691625 0.5308494 0.045761466 9.727273
0.94988966 0.66783375 0.07749854 9.9411764
0.98791718 0.82309449 0.088668436 30
-0.94584262 1.003657 0.069615498 0.64285713
-0.81975317 1.0130851 0.063443057 0.875
-0.68239748 1.023999 0.095232718 1.375
-0.55253428 1.0222458 0.030823374 0
0.70701003 1.0079836 0.052927684 6
0.8233583 0.96720332 0.06857568 27.375
0.98250121 0.92615259 0.10017903 66.285713
-0.6319325 1.0554441 0.034782246 1.6666666
-0.59308296 1.0615404 0.025897199 2
0.70849645 1.1311276 0.071472213 25.5
0.74111778 1.2751099 0.12396041 36.666668
0.7672686 1.373595 0.088419236 32
-0.63265353 1.7798121 0.0012111914 71
0.84881073 1.7440863 0.032265689 19.666666
1.0210576 2.4744508 0.11001473 38
1.4692764 2.8236837 0.14577073 31
1.4948807 2.928057 0.087857001 34
0.88880259 3.4403164 0.11707561 38
1.0414459 3.3872054 0.063294671 24
-0.15418041 -0.90276438 0.29102236 10
-0.041563001 -0.93014932 0.26942885 8.818182
0.072860867 -0.95772898 0.22909087 8.5294113
0.20813055 -0.98709655 0.18952662 7.5833335
0.36516842 -1.0264467 0.16743691 7.7142859
-0.6598013 -0.77301455 0.23690705 9.25
-0.53539157 -0.80085903 0.22952859 8.625
-0.36654809 -0.84011471 0.23434792 10.666667
-0.25947058 -0.87097609 0.17990518 10.555555
0.57428837 -0.82776201 0.20947769 9.9375
-1.2518752 -0.62991858 0.26296726 1.8
-1.0938879 -0.67297131 0.25955132 6.7777777
-0.97414553 -0.70087785 0.19999187 7.6999998
-0.84629285 -0.73059368 0.26594451 8
-0.72560936 -0.74350065 0.2594741 9
0.59467471 -0.74176264 0.24431546 8.1999998
0.61787248 -0.67016596 0.19557945 9.666667
0.11126673 -0.57825047 0.1756641 5.5555553
0.64288157 -0.58729225 0.16755188 10
-1.2548352 -0.39003015 0.23324315 1.3333334
-1.1281443 -0.35276267 0.22166437 5
-1.0380933 -0.35663611 0.18682581 7
-1.291676 -0.20321003 0.25881547 0
-1.265604 -0.097396962 0.24938583 0
0.95333821 0.70826453 0.20037836 23
0.98538506 0.83229685 0.20238651 47.111111
-0.9101882 1.0176038 0.2702927 1.5
-0.82523263 0.97247875 0.20537305 0
-0.69262606 0.99443692 0.24570604 0
0.7077508 1.0055242 0.22552875 19.5
0.82850885 0.96464974 0.20724209 41.714287
0.95305973 0.93292409 0.21767183 57.727272
-0.81921721 1.0513444 0.2442331 0
-0.63216883 1.0662564 0.24799579 6
0.71085727 1.1422809 0.27024338 18
0.73406959 1.2589049 0.20794892 35
0.75757045 1.3446268 0.16202915 39
-1.6031159 1.4436326 0.26252335 2
0.77689874 1.4335576 0.2254961 36
-1.6824555 1.5032718 0.24184006 1
0.80775833 1.5708842 0.23121308 35.5
-1.655742 1.6793242 0.19735527 6
1.4615008 2.7907498 0.24331488 33.666668
-0.45870888 3.7464247 0.25260639 15
-0.36979228 3.7434144 0.26318169 1
-0.1825192 -0.90124387 0.37204093 8
-0.11132982 -0.9120177 0.32468346 8.6999998
0.11152415 -0.95949113 0.42966747 7
0.22739057 -0.98857516 0.41660628 7.1428571
0.3532587 -1.0220679 0.38086891 7.4545455
0.54918325 -0.905128 0.41180125 8.1999998
-0.77392781 -0.75377727 0.39985216 8.5
-0.67792207 -0.76690257 0.35385099 9.8571424
-0.52449715 -0.81308872 0.37503043 8.6000004
-0.39974895 -0.83505493 0.35675177 9.4285717
-0.2273422 -0.88222349 0.38877237 8.1499996
0.56623751 -0.83567882 0.33785495 8.090909
-1.3612045 -0.60292125 0.37065202 9.5
-1.2735996 -0.62272936 0.37144855 8
-1.1427571 -0.65768325 0.3517409 8.6923075
-0.97576851 -0.70195442 0.37221721 8.636364
-0.83014315 -0.73321146 0.38286868 9.272727
-0.73697978 -0.74689341 0.34023574 9.666667
-1.4404572 -0.58062804 0.38626084 12.142858
-1.3841724 -0.39015773 0.39312837 4.75
-1.3403754 -0.34619272 0.3913146 4.5
-1.3674177 -0.26758346 0.37732518 0
-1.3097306 -0.21829346 0.3789292 0
-1.358904 -0.0006966691 0.4236213 3
-1.2984966 -0.090275608 0.37380728 0
-1.381273 0.017121898 0.42911965 6
-1.3176568 0.01296156 0.39408916 3.5
0.98436648 0.83802426 0.31002444 53.5
-0.68708146 0.97195989 0.30773401 0
0.69917393 0.9973954 0.35706359 18.571428
0.83079475 0.96508414 0.33412224 54
0.95924217 0.93060136 0.35415527 53
0.70030683 1.1207594 0.36628395 27.875
0.73155743 1.2677209 0.39223447 32.857143
0.76009864 1.3908659 0.38700941 31
0.82313734 1.6143415 0.3208468 39
0.83493137 1.7239399 0.37380102 24
-2.0968208 2.2743986 0.39877343 6
1.5256867 3.0721309 0.38959041 36.5
1.5316763 3.2503219 0.39393622 81.5
1.3005657 3.3665853 0.41743851 22.5
-0.47019792 3.7485113 0.41103983 6
-0.42956188 3.7463272 0.42520928 29
-0.46086457 3.7609735 0.32272458 10
-0.064893596 -0.91496539 0.54760927 6.7222223
0.062286489 -0.94650888 0.4845531 6.9375
0.17692889 -0.96330166 0.49043933 7.75
0.34933445 -1.01757 0.58985388 7
-0.7596209 -0.75173557 0.50743663 8
-0.66163462 -0.77698457 0.51535261 7.4000001
-0.54750556 -0.80230647 0.52255642 7.1999998
-0.38266033 -0.84386879 0.52594602 7
-0.21550149 -0.8667841 0.54264408 7.3333335
0.10383356 -0.87763304 0.57024926 4.75
-1.367342 -0.60059905 0.54632014 8
-1.2787044 -0.62041199 0.52028745 7.625
-1.1324384 -0.65675634 0.51587671 7.25
-0.98224241 -0.69357872 0.53184468 7.7272725
-0.8484121 -0.72883576 0.51859289 7.8333335
-0.25023636 -0.73180544 0.58886576 3
-1.8321741 -0.47667295 0.562271 52.599998
-1.5811794 -0.5441153 0.5567072 40
-1.4269565 -0.58588266 0.51973683 12.625
-1.3806206 -0.35428599 0.48743573 15.5
-1.3323578 -0.32800302 0.4650808 2
-1.3655266 -0.21704745 0.56614107 2.3333333
-1.3218149 -0.24078584 0.47961947 0.33333334
-1.3260202 -0.063881852 0.50254679 1.6666666
-2.0147326 0.13423695 0.53338385 31
-1.3594486 0.037194729 0.48588943 8
-1.3333238 0.041486144 0.54276538 8
0.70148331 1.1508967 0.48073101 31.333334
0.72838718 1.2745241 0.53060323 29.5
-2.3008513 1.4262844 0.57851934 47.5
0.74876016 1.3744875 0.55214506 29
0.76420981 1.4278703 0.51067102 29.666666
0.79735494 1.5648415 0.54135495 32.599998
-2.2008553 1.8496749 0.5403105 8.6000004
-2.1437106 2.0894909 0.5873794 5
-2.1387293 2.1112583 0.55660665 4
-2.0864878 2.3198624 0.50145131 4.3333335
-2.0532691 2.4263256 0.55697834 4
1.4223208 3.2825494 0.52429295 83
1.5097746 3.2724729 0.45483363 98
1.3138767 3.3306646 0.55925608 28.5
1.3656594 3.3041482 0.51614594 50.5
-0.071045153 -0.91125298 0.65567541 7
0.029415857 -0.902417 0.62441385 6
0.2478296 -0.99076825 0.67152041 16.700001
0.34653991 -1.0169699 0.63298732 17.888889
-0.6878584 -0.76458597 0.64424866 7.4285712
-0.51206046 -0.80670232 0.67202067 7.3000002
-0.40589666 -0.83065844 0.66172397 7
-0.20869827 -0.85637397 0.67774701 6.3888888
-0.098452829 -0.87682247 0.63345188 5
0.050649818 -0.89062721 0.63668054 5
-1.252061 -0.6237281 0.65648758 21.25
-1.103982 -0.66181469 0.67719549 8
-0.96223825 -0.69633168 0.68580794 7.3333335
-0.80315214 -0.7342633 0.67650044 7.625
-0.22187799 -0.73122483 0.64393848 2.3333333
-1.8864709 -0.47105089 0.67238683 8
-1.5863072 -0.54286063 0.67157376 32.400002
-1.4087099 -0.58266032 0.70245504 35
-1.3434187 -0.59937477 0.6336627 38
-1.296909 -0.2092385 0.67692578 6.25
-1.3534859 -0.094760314 0.64220607 3.5
-1.3085731 -0.13642389 0.67719173 6.25
-2.4881179 0.72266316 0.73645186 52.5
-2.4446354 0.88871604 0.68977582 57
-2.444119 0.9037146 0.71080112 50
-2.4000654 1.0627403 0.65126121 50
-2.3890502 1.0971999 0.71959835 50
-2.3415532 1.2730744 0.67192876 47.599998
0.74213582 1.3424041 0.60741347 25
-2.2905066 1.4801824 0.68231583 48.25
0.74924856 1.3676802 0.63083792 28
0.76426888 1.4449828 0.68681765 30.25
-2.2807946 1.5212436 0.7358104 46.5
-2.2429073 1.6404617 0.60692048 43
0.79623848 1.576664 0.66547489 29
-2.2507234 1.6638261 0.61915076 5
-2.2331409 1.7457646 0.71731514 5
0.83010364 1.734169 0.6873495 22
-2.1917701 1.9110582 0.67587459 4.5999999
-2.1804109 1.9730358 0.68602693 3.5
-2.1273172 2.1774859 0.67134678 4
1.4422283 2.7662022 0.6599412 31.5
0.86185938 3.4403918 0.65346861 28
0.93179661 3.4503856 0.70104277 5
1.3092678 3.5051475 0.67842877 13.5
-0.044835173 -0.92614299 0.78510058 7.25
0.1408277 -0.95426136 0.77819288 36
0.22445323 -0.97144693 0.76529586 43
-0.63857263 -0.7766754 0.81674147 7.1666665
-0.53273118 -0.79819196 0.81588572 7.2222223
-0.35064045 -0.84210354 0.83326387 6.3333335
-0.28342861 -0.86386806 0.7972514 7
-1.2512144 -0.62349778 0.8053841 25.666666
-1.1328037 -0.65610647 0.8029983 15.5
-0.95873654 -0.69868094 0.81239092 8
-0.81723577 -0.73090965 0.81654376 7.5999999
-1.6761621 -0.52036738 0.86423522 24
-1.571875 -0.54470003 0.84695452 31.666666
-1.4182823 -0.5822283 0.80733663 36
-1.2716632 -0.3088159 0.76916146 6.5
-1.2126026 -0.19590037 0.78917843 0
-1.1847961 -0.24504139 0.79366469 1.5
-1.2407758 -0.11908821 0.80147588 3.25
-2.1192608 0.11011907 0.83936417 1
-2.117089 0.22853732 0.79356325 1
-2.4730511 0.78498727 0.84676015 49.200001
-2.4255006 0.96329415 0.83637685 51.142857
-2.3769655 1.1583896 0.82861704 49.666668
-2.3394637 1.3217278 0.78299093 48
-2.3232734 1.3631781 0.84272647 47.666668
-2.2759273 1.5548172 0.81812549 43.333332
0.79275852 1.582234 0.8074578 28.75
-2.2328074 1.7613969 0.79544622 4
0.82465607 1.723465 0.80860239 20.666666
-2.1920962 1.9307365 0.87196147 3
-2.1763129 1.9993752 0.8005234 3
-2.1339557 2.1621497 0.83003426 3
-2.1197891 2.2551968 0.82655478 3
-2.0558629 2.5353673 0.87335205 3
1.4614906 2.8352249 0.86160779 31
1.4544004 2.8658791 0.85481215 31
0.83937478 3.4438865 0.87125176 23.666666
0.84591454 3.4570084 0.82048935 5.5
-0.69076991 -0.76505357 0.9493944 7.3333335
-0.53239805 -0.79812622 0.97519493 17.333334
-0.37155625 -0.83575767 0.94935095 16.181818
-0.26435724 -0.846627 0.98005736 2
-1.254014 -0.621324 0.93831331 37.25
-1.1083113 -0.65663105 0.97346467 28.666666
-0.95960784 -0.69291288 0.93529367 15.666667
-0.81401777 -0.72644216 0.99590099 24.75
-0.72572541 -0.74968141 1.0177243 31
-1.7570685 -0.49858692 1.0252949 34
-1.5769186 -0.54352832 0.96014422 30
-1.3959072 -0.58760095 0.97485441 35
-2.5133979 0.66440141 0.98920459 23.5
-2.4653199 0.84405655 0.97544855 50.090908
-2.4153209 1.0223935 0.96343642 49.799999
-2.3804903 1.1598996 0.9494791 54
-2.3600788 1.2461969 0.98843682 49.200001
-2.3176482 1.4158956 0.95710868 49
-2.2785304 1.5750351 0.97831315 33.799999
-2.2378237 1.7608203 1.0135952 3
0.82560456 1.7422764 0.93889952 21
-2.2334673 1.8156716 0.98253965 2
-2.1866167 2.0092866 0.9846831 0
-2.1339614 2.2174122 0.98317766 0
-2.1237006 2.2627792 0.92893654 0
-2.0810547 2.4671824 0.95254165 0
1.4623607 2.904392 0.97165978 28
1.4972949 3.008961 0.961622 31
1.5031475 3.0686083 0.97464633 29
1.530879 3.2598438 0.93538666 72
1.3186471 3.3237469 1.0350171 21
-0.39942831 3.7471099 0.96845907 22.5
-0.48067987 3.766577 1.007193 15
-0.40695938 3.756897 1.0403577 22
-0.65208423 -0.76254541 1.1179649 32.5
-0.51221597 -0.80061495 1.114467 28.125
-0.38699153 -0.82937682 1.115435 30.25
-0.27226239 -0.85512447 1.1473422 33.75
-1.2394202 -0.62503374 1.0934461 27
-1.0782881 -0.66170734 1.0994924 32.666668
-0.96928263 -0.6875391 1.1078539 32.25
-0.83792895 -0.72134852 1.1679783 32.333332
-0.71973002 -0.74632156 1.0989559 34.5
-1.8960146 -0.4623684 1.1231874 32.333332
-1.7587677 -0.49170604 1.138961 33
-1.575051 -0.54012972 1.1295749 29.333334
-1.4289917 -0.57661086 1.1317252 29.666666
-1.3492459 -0.59617072 1.0781168 33
-2.4968257 0.72199011 1.123162 43.200001
-2.4633791 0.86304492 1.1508013 44
-2.4334581 0.95703149 1.1235912 48.25
-2.4035792 1.0706906 1.0720484 53.5
-2.3831263 1.1659969 1.1250156 49
-2.3778477 1.2101068 1.1306627 44.5
-2.3283758 1.3885622 1.1194528 45.400002
-2.2853408 1.5869617 1.1198294 39.5
-2.2571793 1.7728484 1.1058042 0
-2.2476978 1.789942 1.0676606 0
-2.2402437 1.815174 1.1215366 3
-2.1994038 2.0066988 1.0693264 0
1.4279824 2.7809525 1.1726912 27
1.4362332 3.2955008 1.1617074 82
1.5185971 3.264075 1.1057976 78.333336
1.3761953 3.3123837 1.0958797 72
-0.42914027 3.757513 1.126869 24.5
-0.61947995 -0.77474654 1.2534425 31.5
-0.50676453 -0.79833114 1.2842172 29
-0.36392939 -0.83410412 1.2551805 25.5
-0.23892535 -0.86272401 1.2819611 26.5
-1.2408731 -0.62454772 1.2252662 30
-1.1553699 -0.64107126 1.2388602 30
-1.0076289 -0.67709047 1.3110225 25.5
-0.82643896 -0.72151035 1.261067 29.333334
-0.73200417 -0.74329078 1.2581586 28
-1.7948843 -0.48185343 1.2839952 59
-1.5590122 -0.54204774 1.3077037 31.5
-1.3955885 -0.58325815 1.2850159 23.5
-2.0206337 -0.41648358 1.2569194 1
-2.4718375 0.83389652 1.2646531 45
-2.4255219 1.0289545 1.2580533 45.25
-2.3780384 1.2248724 1.2548267 43.5
-2.3291206 1.4201995 1.2477555 41
-2.2688243 1.6494544 1.2548405 41
1.4174145 2.725337 1.2768229 26
1.486362 3.2812574 1.2128925 77
1.2975154 3.3506806 1.274817 19
1.3866253 3.3105152 1.202873 79
-0.41276848 3.7542505 1.2137735 25
1.7060652 5.2921276 1.3221622 0
1.8151646 5.2977843 1.2935743 0
-0.65583009 -0.7620706 1.4418657 30.200001
-0.50890952 -0.79749817 1.4398842 25.5
-0.38929486 -0.82621157 1.4195728 19
-1.2750145 -0.60865211 1.4655448 27.5
-1.1803899 -0.63237083 1.4413924 22
-0.97783726 -0.68514729 1.3942084 27.666666
-0.85292 -0.71131492 1.4312454 28.75
-1.6889932 -0.50208151 1.3641727 65
-1.6051605 -0.52694941 1.4519724 25.5
-1.3871533 -0.58388454 1.4514345 27.666666
-2.5050261 0.71930242 1.4392846 48
-2.478024 0.85830873 1.3741463 43
-2.4414937 0.97202075 1.4365168 45
-2.4085119 1.0806146 1.3604193 45
-2.3720121 1.2489897 1.4324843 43
-2.3207622 1.4584578 1.3967632 38
-2.2626445 1.6730604 1.3589485 0
-2.0103233 2.7748344 1.4132209 11
1.4212354 2.7562237 1.3953254 26.5
-1.9867855 2.8794935 1.4069631 1
1.4456095 2.883244 1.4534384 23
0.77794391 3.4736195 1.4998549 10
1.2540561 3.4567978 1.3733248 1
1.7287817 5.2934213 1.3671246 1
1.804858 5.2829533 1.3841243 0
-0.64329642 -0.76649874 1.5650716 29
-0.56674308 -0.78035122 1.5803789 28.333334
-0.41646686 -0.81851524 1.5814093 21.666666
-1.1243615 -0.64909434 1.5764745 27.5
-0.99994451 -0.6747424 1.6012807 30
-0.77853358 -0.73196846 1.5836787 30
-0.73243606 -0.73958105 1.6132352 31
-1.7445517 -0.49206659 1.5731556 20
-1.595157 -0.53472519 1.5850492 21
-2.476532 0.84340662 1.5162148 43
-2.4625492 0.91394758 1.6132077 41
-2.4075861 1.1448398 1.5938792 39.5
-2.3580146 1.3136474 1.53327 35
-2.3494785 1.3731896 1.6148094 37
-2.3055274 1.5654634 1.5779214 33.599998
1.4041816 2.7292478 1.619675 24
-1.9837132 2.9075546 1.625235 26
1.4742014 2.9770992 1.5034873 27
1.5009654 3.0907428 1.5072155 24
0.37728885 3.1801579 1.6356007 42.5
1.5234076 3.2188072 1.5883701 48
-0.34498093 3.3657448 1.6417063 41
-1.1530622 3.5735896 1.6125679 33
-1.002887 3.5336907 1.6361803 48
0.85761613 3.4690986 1.5666361 9
0.90087241 3.4738541 1.5515645 11
-0.11747044 3.6705294 1.6162844 10
-1.0964621 3.8827138 1.6201005 46.5
-0.98260683 3.8769674 1.5674547 48
-0.83767182 3.825784 1.5995461 78
-1.163029 3.9163921 1.5468416 2
-0.65596324 -0.76067656 1.7600814 36.666668
-0.52958435 -0.79308009 1.6753312 25.666666
-0.37122244 -0.82703817 1.7302051 19.25
-1.1038361 -0.652632 1.6621414 26
-0.94289416 -0.68596041 1.7017777 29
-0.89256138 -0.70422965 1.794156 53
-0.7169944 -0.74613178 1.7171227 27
-1.89625 -0.45422077 1.7557315 1
-1.5712461 -0.53879797 1.7279885 37
-1.4330293 -0.57277614 1.7442986 39
-1.3411452 -0.59278315 1.7710687 24
-1.8481778 -0.44427368 1.7999476 79
-1.8744714 -0.27651456 1.7929701 52
-1.4103994 -0.18591964 1.796959 43
-2.4647264 -0.079929143 1.7755179 78.25
-2.2985954 -0.06612432 1.7773169 81.5
-2.0274282 -0.090650275 1.7848973 75.5
-1.8637414 -0.11429244 1.7927225 77
-1.7530458 -0.1343803 1.7930917 82
-2.4620464 0.10340314 1.7721287 80.333336
-2.320682 0.11732422 1.769823 88
-2.7473254 0.24110885 1.7706238 32
-2.4627099 0.20610806 1.7729467 88.5
-2.3130121 0.29632935 1.7770289 82
-2.1917601 0.2093731 1.7947358 4
-2.8712468 0.37839586 1.7582892 62
-2.4842029 0.37087339 1.7707492 78.25
-2.1740253 0.40325591 1.7695438 84
-3.9314728 0.47147915 1.7424403 35
-2.9332485 0.58388829 1.7532825 80
-2.7573895 0.47320077 1.7665707 84
-2.5761113 0.51669812 1.7149252 3
-2.4584601 0.54338092 1.7617608 59
-2.3341508 0.48551673 1.7743837 83
-4.3853865 0.69156742 1.717272 76
-4.0838552 0.71533364 1.7304965 83.5
-4.0390368 0.70971298 1.7298459 83
-3.8210433 0.7265048 1.7347611 81.75
-3.6609731 0.73109537 1.7355555 95
-3.5486393 0.74363589 1.7424023 89
-3.3024893 0.74267399 1.7394811 92
-2.9016478 0.62382257 1.7613143 86
-2.444701 0.68726331 1.7318696 68.333336
-2.3474383 0.67898786 1.7671243 91
-2.1719131 0.60245842 1.7688023 73
-2.081162 0.66251212 1.7785698 25
-3.9454222 0.77773213 1.7260436 78
-3.751606 0.787835 1.732246 80
-3.5783465 0.78853852 1.7326173 86
-3.3431435 0.76846522 1.7126268 68
-3.2382278 0.81586319 1.7537776 5
-2.488714 0.76684052 1.7363524 20.333334
-2.3741937 0.85222554 1.7640096 80
-2.1677577 0.80890101 1.7734801 78
-2.0656705 0.85500866 1.7747113 73
-4.434082 1.0417694 1.7182448 41
-4.0827751 1.0384946 1.724478 41.5
-2.4405093 0.95899725 1.7119566 36.25
-2.3747141 1.0252799 1.762807 69
-2.1458824 1.0164529 1.7649857 75
-2.4024549 1.1493222 1.7056122 19
-2.3841703 1.1356171 1.7170429 54.5
-2.0432868 1.0516495 1.7687947 67
-2.3565917 1.2857468 1.721918 24
-2.1486745 1.2534751 1.793429 32
-1.9897172 1.234314 1.7702177 59.5
-1.9344569 1.2838811 1.7940453 9
-2.3190978 1.4404724 1.741201 6
-2.0399661 1.4660918 1.7656132 74.5
-1.9080276 1.4463581 1.7707081 54
-2.2969947 1.5781406 1.7043537 27.5
-1.8842601 1.6052927 1.7782028 40
-2.0587828 1.7027429 1.7657615 75
-1.870818 1.7174072 1.7692114 52
-2.4162335 1.8973374 1.7532412 15
-2.3936603 1.8208108 1.765982 4
-2.2435174 1.888162 1.7163726 28
-1.8710973 1.8946488 1.7633123 74.5
-1.7962266 1.9008926 1.7718791 45
-2.5508003 2.0135407 1.7462326 15
-2.4554801 2.0042562 1.7530832 14.333333
-2.3737464 2.0836871 1.7480356 13
-2.0098236 1.9522959 1.7621261 70
-1.7772331 2.0134602 1.7684201 67
-2.389981 2.2136536 1.7495841 13
-2.2241273 2.1605771 1.7324475 24
-1.9508535 2.2172055 1.7598335 66
-1.8398113 2.1756163 1.7646817 61
-1.7564353 2.143698 1.7757193 39
-2.6894078 2.3961546 1.753188 12
-2.4695833 2.3163004 1.7479396 12.333333
-2.3537512 2.3738968 1.7374898 10
-1.7047653 2.3320305 1.7652382 56
-2.8664913 2.4947276 1.7485548 13
-2.3634157 2.4723945 1.7319309 10
-2.1984839 2.458106 1.7501782 13
-1.8786091 2.4964337 1.7546097 76
-1.7203288 2.4403679 1.7706982 34.5
-1.6491528 2.5224783 1.7616934 55
-2.4508767 2.6653337 1.7462112 10.5
-2.3631353 2.5645018 1.7458205 11.5
-1.6213217 2.6407027 1.7672879 41
-2.8471558 2.8423231 1.7423702 12
-2.6537626 2.7526114 1.7529236 12
-2.3124254 2.7853739 1.7290916 10.333333
-2.1569531 2.77384 1.7596761 1
-1.7400653 2.7593355 1.7561591 72
-1.5822279 2.7659121 1.7666298 18.5
1.4217315 2.7935157 1.7573205 29
-2.3410368 2.9184005 1.7332889 11
-1.5509473 2.9158504 1.7558311 58
-0.0097246943 2.9242516 1.7958709 45
0.054615688 2.9752336 1.7964686 53
1.1495868 2.9952269 1.6908559 24.5
1.2169769 2.9717288 1.6976694 35
1.4436313 2.9180851 1.707606 47
-2.599694 3.1301458 1.7435368 11
-2.4409225 3.0068018 1.7524801 12
-2.3130803 3.0771761 1.7337359 1
-1.5864943 3.0175529 1.7534913 56
-0.66990441 3.1297188 1.7766743 54.666668
0.89287633 3.0497732 1.7801889 68
1.0050371 3.0242288 1.7563215 72.666664
1.1118696 3.0300491 1.7137617 41.5
-2.830745 3.2370503 1.7415794 9
-1.7004864 3.1506412 1.7646006 1
-0.77469128 3.2419236 1.7778677 61
-0.52515095 3.2233031 1.7821888 61.666668
0.26053706 3.2083125 1.7333101 75.5
0.38172626 3.1782823 1.7408241 78
1.1362358 3.2289779 1.765494 48
1.3103406 3.2055137 1.7758646 31
1.4154955 3.2645717 1.7513447 58.5
1.5262351 3.2218266 1.7342817 57.666668
-1.1950815 3.4485397 1.7842058 50
-0.52290404 3.3934169 1.7611777 86.400002
-0.35018292 3.3665049 1.6976833 79.333336
0.52714044 3.3678324 1.7424207 37
0.67752194 3.4178095 1.7095824 52.333332
0.80379373 3.42823 1.6549895 54
1.4304192 3.30478 1.7383007 82
-1.250041 3.5766923 1.7153143 71
-0.27586526 3.5679719 1.7160193 35
0.55013204 3.4814637 1.6920555 58
0.67839479 3.4590755 1.6593547 30
-1.3059442 3.6043286 1.6891886 55
-0.35813701 3.6476521 1.7009324 47
-0.2591598 3.6625164 1.678291 45
-0.12643728 3.618238 1.6880018 55.5
-1.1278098 3.8411236 1.6806988 52.333332
0.19201423 4.1851435 1.7176553 0
0.13242723 4.2042851 1.6887933 0
-0.91238928 4.4731731 1.6672043 0
0.94371146 8.2751131 1.73057 0
-0.64448345 -0.75988799 1.8126713 44
-0.54308987 -0.77627057 1.8352543 65.666664
-0.39480194 -0.79678303 1.846449 62.333332
-0.27129471 -0.81219196 1.8403949 45
-1.1169419 -0.62240875 1.8298659 98
-0.99244875 -0.61679107 1.82912 78
-0.81469244 -0.69373488 1.831743 85.5
-0.67980236 -0.6690293 1.8373263 86.25
-0.51558506 -0.67587727 1.8411677 76.714287
-0.40178356 -0.66931903 1.8460233 68.599998
-1.6572948 -0.50793904 1.810583 71
-1.4407539 -0.47058102 1.8183808 82.5
-1.2627003 -0.52499384 1.8188564 82
-1.1293253 -0.48974705 1.8327962 69
-0.97399205 -0.54011071 1.8272744 80.5
-0.8184675 -0.52579981 1.8286793 85.545456
-0.67311794 -0.51899058 1.8335756 82.111115
-0.53293979 -0.52229071 1.8357623 79
-0.41722187 -0.49209839 1.8381212 73.5
-1.7180053 -0.40458658 1.8067244 76.666664
-1.5505792 -0.3782697 1.8129467 83.666664
-1.4537978 -0.38086772 1.8191671 85
-1.2849412 -0.33164775 1.8104315 79.75
-1.108271 -0.36843279 1.8180954 76.5
-0.95074832 -0.35990158 1.8167248 85.5
-0.81458384 -0.3763926 1.8365315 67.5
-0.68429095 -0.36659288 1.8760453 73
-0.52196044 -0.38790488 1.9026943 75.666664
-1.8038292 -0.27880478 1.8001767 75
-1.7148595 -0.23308805 1.8049369 90
-1.5527031 -0.20987463 1.8167404 90.75
-1.4253778 -0.24293758 1.8646005 88.5
-1.2838058 -0.21661779 1.8480878 53
-1.1201274 -0.23402633 1.8911556 63.166668
-0.97409475 -0.24709554 1.9242786 78.599998
-0.82974756 -0.22016864 1.9270744 79.818184
-0.66151297 -0.23749761 1.9300641 78
-0.54131913 -0.23642464 1.9320654 71.666664
-1.9503943 -0.054079983 1.8135587 56
-1.734472 -0.049394511 1.9038047 90
-1.5737784 -0.052824114 1.9059047 83.25
-1.4018569 -0.065494545 1.9155741 97
-1.2497059 -0.11008733 1.9206918 102
-1.1240536 -0.07186874 1.919982 90.166664
-0.95968628 -0.071081512 1.9203444 76.666664
-0.82116878 -0.072335266 1.9227488 77.444443
-0.68032539 -0.079200298 1.9292127 78
-0.55602497 -0.083264723 1.9304575 70.75
-2.2074747 0.062783502 1.8731383 70.5
-2.0390394 0.067370348 1.8873729 82.5
-1.8845927 0.029621044 1.8957542 88
-1.6997085 0.079310931 1.9029897 83
-1.5820231 0.097750261 1.9053379 86.5
-1.4155833 0.07461787 1.9114485 98
-1.2514827 0.071498863 1.9155142 100
-1.1177876 0.093382135 1.9155712 89
-0.95503569 0.067447558 1.9191526 76.125
-0.81759447 0.07918492 1.9203869 75
-0.69181567 0.056721278 1.9261 80.599998
-0.57201177 0.087798715 1.9288164 80.75
-2.0431335 0.24674529 1.8834839 82.5
-1.8984141 0.19439235 1.8861977 82
-1.7393125 0.19801803 1.8979849 86
-1.571165 0.23331714 1.9031087 84.666664
-1.4248791 0.21802755 1.9103097 94
-1.2621709 0.2485965 1.9134469 93.666664
-1.1264939 0.24008039 1.9135607 91.75
-0.96027768 0.22295643 1.916751 78.25
-0.81960768 0.20709622 1.919058 76.5
-0.70047212 0.23731667 1.9227425 76.666664
-0.57030731 0.23985296 1.9262642 78.333336
-2.4169295 0.32101625 1.8030082 35
-2.1783459 0.3026838 1.8838171 99
-2.0458055 0.40026268 1.8786237 85
-1.9148979 0.36337817 1.8860819 86
-1.736412 0.36720723 1.8956255 85.5
-1.5814649 0.36346763 1.9023715 88
-1.4287771 0.3633019 1.9085389 90.333336
-1.2557312 0.38495699 1.9120132 92.666664
-1.1238308 0.36733776 1.9152637 89
-0.96998221 0.37275016 1.9122258 70.166664
-0.82351047 0.37008983 1.9220511 70.699997
-0.69642824 0.38580742 1.9216384 77.666664
-0.57310754 0.37060499 1.9232678 73
-2.1637285 0.49379742 1.8688539 37
-2.0299001 0.50894248 1.8838516 88.25
-1.8945888 0.51017529 1.8871528 86
-1.7274952 0.5386005 1.8935959 91.5
-1.5735917 0.51811534 1.8995466 90.5
-1.4250044 0.51080376 1.9037765 85.666664
-1.2680346 0.51904088 1.9109396 92.5
-1.1206369 0.52821171 1.913175 89.285713
-0.97082549 0.51257265 1.915074 84
-0.83044302 0.53496021 1.9190242 71.900002
-0.68117458 0.53863651 1.9215169 76.833336
-0.55218846 0.53057742 1.9242748 73.75
-2.0197735 0.67605841 1.8790385 90.800003
-1.9012374 0.68505919 1.8843096 82
-1.7096896 0.71120101 1.8893608 93.5
-1.5607382 0.67603576 1.8988112 86.5
-1.4526775 0.63919711 1.9021997 82.5
-1.2827033 0.67737508 1.9075927 88.666664
-1.1234771 0.68914771 1.9129566 87.75
-0.99656904 0.65937632 1.9176039 92.5
-0.84172773 0.67403388 1.9194492 90
-0.70536923 0.69448453 1.9208462 81.875
-0.52873099 0.66884577 1.9218292 78
-2.0181465 0.81851363 1.8795189 85
-1.9015161 0.86316198 1.8786432 86
-1.7348328 0.86338252 1.8838054 88
-1.5850023 0.79644215 1.8969706 88
-1.4562315 0.81118399 1.9005872 84.333336
-1.2829175 0.80959821 1.9024136 87.5
-1.1381358 0.82518429 1.9077681 83.75
-0.97527641 0.81330663 1.9165765 85.833336
-0.80986738 0.80746377 1.9202719 94
-0.69047278 0.83520764 1.9237052 90.5
-0.51568425 0.81357765 1.9269987 91.199997
-2.0069344 0.97666568 1.865083 63
-1.9469919 0.97703367 1.8815213 77
-1.5675189 0.93387139 1.890401 86.75
-1.4363719 0.96675175 1.8972815 82
-1.248734 0.9612909 1.8987314 81.5
-1.1327192 0.95476866 1.9038477 86
-0.99808484 0.97166187 1.9125639 81.599998
-0.81312472 0.95478588 1.9190685 86.5
-0.67368573 0.97532713 1.9224665 86
-0.53579998 0.96508884 1.9284893 89
-0.447207 0.9814564 1.9354519 82
-2.0165997 1.126597 1.8659421 21
-1.9194585 1.1129931 1.8759671 82.333336
-1.7071906 1.0504267 1.8830775 83
-1.5529656 1.1165277 1.8875412 84.666664
-1.4307647 1.1121947 1.8916855 83.5
-1.2369219 1.1843904 1.8968109 88
-1.1168978 1.0869315 1.9026806 82.75
-0.96233016 1.1246524 1.9095886 81
-0.80838138 1.0960965 1.9147786 81
-0.68454647 1.1168311 1.9202071 81.375
-0.5561254 1.1411022 1.9235727 78.5
-0.39341497 1.1218069 1.9306296 74
-1.984688 1.200449 1.8721167 82
-1.9085466 1.2904561 1.8742117 87.5
-1.6736218 1.2458036 1.8865136 82
-1.5331737 1.2929597 1.8804833 90.5
-1.4138463 1.2812396 1.8895792 83.199997
-1.1067798 1.253598 1.901123 77
-0.99307954 1.2336431 1.9036967 78.5
-0.83154577 1.2602364 1.9114933 77
-0.64696175 1.2916558 1.9157761 77.714287
-0.52670342 1.2756084 1.9226055 74
-0.38144523 1.2618352 1.9268715 71.5
-1.9626523 1.4129459 1.872095 0
-1.8820734 1.4017099 1.8758323 84
-1.5758618 1.4500706 1.8851113 76
-1.422806 1.4383831 1.8837184 77
-1.3334503 1.4426497 1.8928453 76.5
-1.1327851 1.3530563 1.8961626 78.5
-0.97667897 1.4040546 1.9002235 74.25
-0.84688723 1.423887 1.9066508 74
-0.67875659 1.4383945 1.9090943 72
-0.53066772 1.4171746 1.9171489 73
-0.36065567 1.4169651 1.9226067 74.599998
-0.266985 1.3938172 1.9296594 69.5
-1.8782239 1.5466969 1.8752962 91.5
-1.571081 1.6482865 1.8806728 70
-1.4050292 1.582713 1.8847978 76.400002
-1.2877507 1.6180658 1.8902498 73
-1.1194831 1.5185508 1.8920757 77
-0.95801598 1.538373 1.8978672 72.25
-0.81389463 1.6118041 1.9052353 71
-0.68780804 1.5218661 1.9068828 73.5
-0.51652753 1.5544794 1.9135494 72.199997
-0.39738327 1.580201 1.9161975 73.25
-0.22116652 1.5461299 1.923564 72.5
-0.1307278 1.6233482 1.9253334 71.5
-1.8445607 1.7314628 1.8715916 72
-1.3968651 1.6974005 1.880752 75
-1.2893821 1.7629323 1.8809161 74.666664
-1.0005801 1.6900251 1.9004812 68.5
-0.83554471 1.7039436 1.900184 68.199997
-0.68358928 1.7157986 1.9093684 68.5
-0.52035904 1.7099397 1.9089615 69
-0.38827413 1.7161143 1.9120598 72.599998
-0.23047541 1.7318085 1.9202979 70.714287
-0.082309611 1.7358536 1.9251709 70.666664
-1.8255934 1.9085225 1.870176 81
-1.5035865 1.8595247 1.8767587 73
-1.4032689 1.8447992 1.879928 63
-1.2762344 1.8566329 1.8834726 68
-0.96019423 1.8732895 1.8913614 61
-0.80832559 1.8597281 1.897897 64.25
-0.68439561 1.8890052 1.9018865 64.333336
-0.51286721 1.8056414 1.9084264 71.5
-0.35993287 1.879651 1.911082 67.25
-0.23039237 1.8717124 1.9142199 70.800003
-0.067331694 1.8657452 1.919346 68.5
0.039905 1.8925309 1.9234029 67.333336
-1.7586892 1.9644084 1.8770558 93
-1.4291742 2.0862575 1.8807188 70
-1.2671411 2.0428896 1.8810508 66.5
-1.1686075 1.994557 1.8855883 64
-0.82108229 2.0372686 1.8943945 59.5
-0.66520363 2.0214715 1.9005648 61.75
-0.5000214 2.014425 1.905779 61.5
-0.22861564 2.0196958 1.9129825 65.166664
-0.090802811 2.0022652 1.9177638 69.333336
0.0962753 2.0140641 1.9226279 66
0.16654335 2.0923378 1.923004 69
-1.6986885 2.188287 1.8738431 78
-1.1395597 2.191484 1.8858535 62.200001
-0.65730053 2.1459663 1.8966075 59
-0.57161748 2.185236 1.8960738 58.5
-0.34450808 2.1020679 1.9083742 63
-0.16585816 2.1797712 1.9145836 59
-0.08711236 2.1727536 1.910234 64.666664
0.076249242 2.1522818 1.9183729 65.599998
0.25830093 2.1698043 1.9255995 63.799999
-1.287535 2.2922769 1.8758763 58.5
-1.1310303 2.3220162 1.8791677 63
-0.98151487 2.3811126 1.891724 55
-0.75311285 2.25596 1.8988742 64
-0.5196026 2.3136554 1.9012409 59.75
-0.43820313 2.3270965 1.9144543 46.5
-0.2121321 2.2601709 1.9135109 65
-0.022675786 2.3014846 1.9115034 58.5
0.073826097 2.3466165 1.9264281 55
0.26830861 2.3012969 1.9341265 46
0.39398503 2.3234968 1.9373151 38.666668
0.53520882 2.3825915 1.9319054 65
-1.6312994 2.4294951 1.8734685 75
-1.0853069 2.478955 1.8823221 55
-1.0364535 2.463937 1.8843731 51
-0.62485188 2.4483936 1.8952445 54
-0.45683748 2.4608896 1.897812 59
-0.36580613 2.4612024 1.9039408 55
-0.066185579 2.4125397 1.9119667 63
0.12594567 2.4463835 1.9282861 43.666668
0.21732531 2.5012462 1.9264171 43.25
0.44519979 2.4034595 1.9366666 33
0.52008951 2.4556606 1.9295108 52.200001
0.63999015 2.5180216 1.9311959 60.25
-1.5472873 2.6749141 1.8639489 73
-1.2278701 2.5588505 1.8726825 61
-0.97470349 2.6336586 1.8814487 54.333332
-0.88045228 2.5946052 1.893098 61
-0.47994989 2.6514833 1.8953635 56
-0.35152623 2.5897245 1.8970782 51.75
-0.23285942 2.6480622 1.9022766 53.333332
0.098731384 2.5820951 1.9249436 50
0.28198063 2.592082 1.9249806 47
0.38760146 2.6556699 1.9151586 58.400002
0.70241773 2.5910528 1.9289979 63.75
0.82017612 2.6499114 1.9341793 66.5
0.98998213 2.6776028 1.8431982 38.200001
-1.1040697 2.8180363 1.8719598 61
-0.96517199 2.735698 1.8736811 61.666668
-0.82589161 2.8112555 1.8796355 61.5
-0.20218821 2.7885056 1.8958781 60.5
-0.060446087 2.7711172 1.9044281 65
0.27576923 2.723223 1.9136928 67
0.50260568 2.7932532 1.9157667 58.166668
0.64362818 2.7897441 1.8336903 43.400002
0.86992723 2.7126698 1.9402727 81
0.92305177 2.7375891 1.9337445 42
1.1176969 2.7656217 1.8412621 51.400002
1.2256438 2.8061075 1.8470093 53.333332
-1.456975 2.9529026 1.8653659 78
-0.84331727 2.947732 1.8761885 62.25
-0.31746703 2.8571141 1.8925842 57
-0.079897381 2.9246864 1.8701974 50.5
0.084230348 2.9417548 1.845297 35
0.67022395 2.9121814 1.824651 55.5
0.81149781 2.9327073 1.8368276 42
0.93888801 2.9789295 1.838219 61
1.2997005 2.9082971 1.8453929 70.5
1.4030248 2.9054177 1.8457658 69.400002
-1.5426913 3.0337222 1.8431638 25
-0.96181512 3.0958948 1.8731292 70
-0.78204608 3.0506868 1.8756187 66.5
-0.67112225 3.1142414 1.8715196 37.333332
0.093919739 3.0339212 1.8032736 58
0.21560001 3.0626266 1.8089064 62.5
0.87847787 3.0565615 1.830669 95
0.99945509 3.0243063 1.8106625 79.5
1.0669308 3.0109429 1.8046647 80
-1.3567038 3.2643323 1.8729671 79
0.059208374 3.1602035 1.8019687 60
0.23223585 3.182889 1.8052763 68.333336
1.7584128 5.0452728 2.2388492 0
