# .PCD v0.7 - Point Cloud Data file format
VERSION 0.7
FIELDS x y z intensity
SIZE 4 4 4 4
TYPE F F F F
COUNT 1 1 1 1
WIDTH 72
HEIGHT 1
VIEWPOINT 0 0 0 1 0 0 0
POINTS 72
DATA ascii
0.89414459 2.188803 -0.81338495 15
0.56080121 2.3431904 -0.82423341 17
0.60502434 2.2698634 -0.81751525 15
0.010131461 2.4055636 -0.84100044 7
0.32863766 2.4763908 -0.83649206 14
0.66268563 2.4818258 -0.81938422 16
1.0898082 2.4475536 -0.8115117 12
0.65515345 2.5672843 -0.82372069 15
1.3744968 2.5844982 -0.79822332 10
-0.17450774 2.7451568 -0.84607685 5
-0.13436975 2.8230817 -0.84705293 5
0.64875948 2.7696779 -0.82526386 9
1.0043225 2.7905853 -0.81695098 7
1.3322761 2.7799673 -0.80737323 11
1.4522356 2.8128192 -0.80172968 10
-0.090442948 2.9271367 -0.84733599 4.6666665
0.59663332 2.9660888 -0.83461481 4
1.4892032 2.9790266 -0.80196023 8
1.5164975 2.991262 -0.7722531 1
-0.12509325 3.0617688 -0.85204309 12
0.68538272 3.1262732 -0.83256775 9
-0.081234649 3.1566293 -0.85685742 7
0.4067722 3.2575018 -0.80618197 12
0.50181186 3.2299638 -0.7642349 92
0.67975849 3.193331 -0.80225509 1.3333334
-0.26205975 3.4278405 -0.75413179 82
0.06953539 3.3407979 -0.83696592 5
0.87247062 1.7409776 -0.66464162 39.5
-0.13709056 1.8690959 -0.62797248 3
-0.24294657 2.4021258 -0.63707495 5
1.0235163 2.6613767 -0.6769945 43.666668
1.10783 2.626811 -0.65761667 39.25
1.0060672 2.7167702 -0.61901742 6
1.0222577 3.113893 -0.64880884 113.5
1.1228313 3.0797698 -0.60838687 76
0.48881069 3.2410753 -0.70510256 111
0.72926515 3.1887038 -0.61182451 120
-0.12632088 3.4011252 -0.70090073 88.333336
0.071299255 3.3471889 -0.73011059 10.5
-0.46553853 3.4855137 -0.69835365 67
-0.44116718 3.4793203 -0.68244565 99
0.72670835 1.1609405 -0.45884818 38
-0.10024334 1.33629 -0.45348129 4
-0.38786319 1.4368187 -0.46777895 7.1428571
-0.25180227 1.3769114 -0.46494547 0.5
0.00061727763 1.3529046 -0.464284 2
0.79340309 1.4156892 -0.5009861 37
0.11129223 1.6916715 -0.52868748 3
0.86842126 1.7368495 -0.49069422 40
-0.6139524 2.4506342 -0.47717938 3
-0.58306146 2.4507546 -0.46660593 12
1.479807 2.999938 -0.48370773 88
0.95938635 3.1338573 -0.51037085 111.5
1.0918901 3.0982733 -0.56699699 114
0.84127277 3.1615446 -0.50684053 117.66666
-0.68629158 3.5351562 -0.55837882 80.5
1.0049807 0.84015328 -0.42452598 10.5
0.9175418 0.94990128 -0.40236026 11
0.72345424 1.1222734 -0.42359233 9.666667
-0.24071454 1.3464704 -0.43312496 51
-0.087994903 1.3233721 -0.42715782 6
0.73923939 1.205466 -0.42460418 44
0.7626968 1.2815528 -0.41455883 48
-0.32955948 1.4262853 -0.42931795 9.666667
-0.21729632 1.3734659 -0.42271647 7
0.77771598 1.3728876 -0.42954049 39
0.85609156 1.68698 -0.43939614 42
-0.56142664 2.481493 -0.42784646 33.333332
-0.49719504 2.5886276 -0.41936246 4.6666665
1.5173026 2.985429 -0.40949631 82
0.5981586 3.2245469 -0.43829352 118
0.8013593 3.1733699 -0.4294942 120.5
