# .PCD v0.7 - Point Cloud Data file format
VERSION 0.7
FIELDS x y z intensity
SIZE 4 4 4 4
TYPE F F F F
COUNT 1 1 1 1
WIDTH 1530
HEIGHT 1
VIEWPOINT 0 0 0 1 0 0 0
POINTS 1530
DATA ascii
2.869025 -1.7957262 -0.17337562 24
2.6649559 -1.4457903 -0.17067599 58.5
-0.63169724 -1.2513554 -0.16327766 7.5
-0.56095439 -1.207229 -0.172084 6
2.8957543 -1.2383952 -0.15408222 81
-0.49934569 -1.1715142 -0.16673402 8.5
-0.42600745 -1.1224395 -0.15472545 9
2.9072597 -1.1988697 -0.1948766 75
-0.66696316 -1.0321009 -0.15479472 2
-0.59861219 -0.91931826 -0.1738057 9
-0.22619545 -0.97353923 -0.17786054 9.6000004
2.751749 -0.96107531 -0.17743216 54
-0.65696245 -0.8142181 -0.1617993 5
-0.19665757 -0.83203614 -0.15281112 6
-0.038994804 -0.84648287 -0.17496207 8.3999996
0.083088197 -0.76779306 -0.16960283 9.3999996
-0.20729825 -0.65285814 -0.17643988 9.5
0.11356445 -0.74002695 -0.18002103 7.3333335
2.1214159 -0.62400401 -0.18138143 53
-0.35688108 -0.55921555 -0.16882698 7.5
-0.23472786 -0.59617561 -0.17852046 3
2.0118747 -0.49014553 -0.15485966 47
2.032793 -0.35565186 -0.1830706 12
1.7102618 -0.24967898 -0.1600121 1
1.6741618 -0.078637756 -0.1791337 3.6666667
1.6397012 0.026956698 -0.17941441 4
2.0771971 0.11087693 -0.16790116 85
1.6041924 0.23833828 -0.18722185 154
2.0074339 0.200775 -0.16451141 53.5
1.6048524 0.30545181 -0.1969402 24
1.6940407 0.36427173 -0.17548645 24
1.8671963 0.47752604 -0.16610087 19
2.2181942 0.71230733 -0.18212758 16
2.4731975 0.89689147 -0.1569811 6
-0.7075088 1.0899258 -0.16566628 1
-0.58172441 1.1727524 -0.18261765 0.66666669
-0.51751924 1.2153279 -0.17737053 0.5
-0.41247699 1.2872791 -0.16993351 1
-0.218628 1.4187918 -0.17621763 11.6
0.53085089 1.441659 -0.16093905 55
0.65554023 1.4196649 -0.18200718 42
-0.072978929 1.5055052 -0.17047097 55
0.0089440756 1.5713773 -0.17904203 70
0.40469921 1.6481519 -0.1994177 152
0.46887842 1.5514785 -0.17253047 43.333332
1.0507903 1.5391086 -0.17662337 9
0.23733512 1.7230792 -0.18529575 62.5
3.2600937 3.2437708 -0.18760242 42
5.6217084 3.5719771 -0.16820435 37
3.2683597 3.6429431 -0.19489579 42
5.5961266 3.6376371 -0.15397175 32
4.2938294 -4.8164167 -0.11748166 111
4.4514794 -4.7072811 -0.030982707 57
4.6807737 -4.5456576 -0.089384951 110.5
4.1196918 -3.416836 -0.12854049 93
2.8663259 -1.8137125 -0.058146629 57
2.7804687 -1.6648294 -0.096834309 31
-0.62108451 -1.2441943 -0.10576855 7.5
-0.56765872 -1.2146322 -0.084533066 7.1666665
2.5090363 -1.2357111 -0.096202858 34
2.6492064 -1.32991 -0.10424794 137
2.7478416 -1.3370327 -0.14349243 76
2.8992016 -1.2016605 -0.1216032 61
-0.6133936 -1.096414 -0.019649273 6
-0.50631982 -1.1686648 -0.062385328 7.9000001
-0.42660385 -1.1221352 -0.061262958 7
-0.90787083 -0.90638751 -0.014904235 5
-0.65000808 -0.92681241 -0.086798765 4.25
-0.58491129 -0.98303753 -0.11534228 2.4285715
-0.43189001 -1.0220151 -0.12736961 9
-0.22135167 -0.96665049 -0.073168717 8.333333
2.3529496 -0.99810767 -0.10103057 31
2.6534505 -0.92506707 -0.11540449 7
2.7513001 -0.97558481 -0.1220052 51
-0.81623858 -0.76444989 -0.020126605 6
-0.68224233 -0.86880022 -0.068979934 5.3846154
-0.2811141 -0.84215426 -0.14313139 5
-0.031071061 -0.83981997 -0.055856775 9.333333
0.0515952 -0.78788579 -0.10072178 8.9499998
-0.54840255 -0.61025077 -0.048849933 4
-0.30334097 -0.71177006 -0.067588754 11
-0.28420645 -0.73379272 -0.084702231 6
0.11438267 -0.74350452 -0.006300603 9
2.1280136 -0.65800619 -0.10723019 40
-0.60226637 -0.52260333 -0.016896849 3
-0.57123518 -0.51794642 -0.070197091 3.6842105
-0.36361414 -0.55953449 -0.064204045 6.8666668
-0.25086665 -0.52215505 -0.020379474 2.5
1.9953961 -0.47067493 -0.07213033 9
-0.24270622 -0.4082346 -0.024757493 2.5
1.8727897 -0.34657004 -0.088953637 18
1.7762947 -0.18322554 -0.013498102 5
1.8319168 -0.27622801 -0.034202121 5
1.7152683 -0.073306501 -0.045434635 6.25
1.6174122 0.04772152 -0.079987556 13.5
1.6501136 0.047966704 -0.12224529 22
1.5881363 0.19429095 -0.11445001 38.25
1.6075294 0.31474641 -0.11918221 25
1.7926061 0.39396307 -0.096042611 150
1.9674456 0.54756379 -0.14191611 23
2.2583325 0.71976048 -0.11470012 19
2.4923892 0.62164342 -0.011200552 137
-0.92397946 0.94521636 -0.025151925 1.4285715
-0.8150751 1.0183285 -0.072624177 0.94117647
-0.7659719 1.0558743 -0.0072034942 1
-0.67651761 1.1113132 -0.077405289 0.89473683
-0.57379627 1.1797659 -0.098951496 0.83333331
-0.49827799 1.2297902 -0.082494989 0.60000002
-0.38479662 1.3067278 -0.07422252 5.0769229
0.57387257 1.3234215 -0.019672681 43
-0.23876429 1.4052097 -0.088645533 11.333333
-0.11325353 1.4909308 -0.071445711 36.5
0.54941255 1.4525101 -0.069920644 49.200001
0.68714988 1.4068749 -0.061171852 55
0.79660261 1.3994522 -0.044144057 53.200001
0.94969279 1.4428108 -0.063820638 0
1.0704049 1.454239 -0.10670464 34.333332
3.8343656 1.4046403 -0.042836342 7
-0.063149706 1.5278116 -0.059947416 35.25
0.074106827 1.6122853 -0.081539966 58.799999
0.42398736 1.5976524 -0.13280477 106.5
0.48988262 1.5392307 -0.076427616 36
1.039157 1.5248607 -0.079542078 23
1.0529531 1.5204099 -0.020179069 29
3.6818452 1.5638986 -0.017060092 4
0.20765975 1.7005303 -0.046895068 54.75
0.36310533 1.7166672 -0.071164548 105.5
3.6744468 1.7344298 -0.11599085 27
0.38511437 1.8204851 -0.053054709 56.75
0.47767007 1.8806356 -0.082321472 57
4.2917361 2.3011618 -0.0063740062 9
1.9517753 2.877754 -0.038054291 34
3.3754435 3.1425192 -0.10422928 16
2.6125646 3.3236649 -0.098703988 26
5.7623606 3.3884368 -0.070368476 31.5
3.2497137 3.5925305 -0.065620996 53
5.5337181 3.7469358 -0.015378808 32
5.3379493 3.9519582 -0.0099822329 15
5.4128442 3.9058971 -0.057667527 31
8.0259104 6.3354964 -0.078042753 4
4.733851 -4.6003518 0.008629079 3
3.924783 -2.7120197 0.020193988 33
1.5713443 -2.4862485 0.056316461 0
3.8661654 -2.5401206 0.11412447 49
2.9453955 -1.8616252 0.086729452 5.25
3.3415513 -1.5760827 0.052497737 38
-0.75491768 -1.3474201 0.13878286 7
-0.66685593 -1.2801787 0.080823146 7.375
-0.58218354 -1.2188387 0.064087354 6.5
-0.70398718 -1.1701342 0.056104507 9
-0.50310552 -1.168982 0.085453905 6.6999998
-0.44062319 -1.1152098 0.13702255 10
-1.0350292 -0.98671567 0.14268774 6
-0.75737745 -0.93655419 0.10592061 5.5
-0.69046557 -0.95105827 0.087437429 7.7142859
-0.58767414 -0.90425253 0.10758393 4
-0.43313307 -0.99524015 0.0015577626 9
-0.21662934 -0.98148209 0.063421696 8.5555553
3.0343819 -0.96254265 0.091857783 0
-0.94721061 -0.82077688 0.12593889 10
-0.84599888 -0.8361975 0.091276601 9.6999998
-0.51064616 -0.80789614 0.10187707 5
-0.2392731 -0.80745411 0.10920928 6.5
-0.010438282 -0.82344759 0.12237284 9.5
0.053598315 -0.78127497 0.064883582 8.958333
2.9637265 -0.84141707 0.088710599 0
-0.7526257 -0.72593415 0.066796504 7
-0.52351832 -0.63546675 0.086488627 5.5
-0.36876261 -0.64495623 0.099366441 6.5384617
-0.29062325 -0.71877903 0.08359728 7.3333335
0.12302041 -0.74270135 0.073970728 5.3333335
2.9194221 -0.74645519 0.024013037 0
-0.60876667 -0.5242821 0.037654825 2
-0.52070999 -0.53601724 0.075850144 5.4000001
-0.36547893 -0.53270584 0.085335806 6.1428571
-0.26380312 -0.5237065 0.13236283 3.5
-0.11119126 -0.54603851 0.10305651 4.1999998
2.6776228 -0.56707293 0.093087517 6
-0.50268131 -0.40621611 0.10495589 3.3333333
-0.38270566 -0.39612904 0.089681543 3.7142856
-0.25239393 -0.37122521 0.05864026 2.3333333
1.8337498 -0.32477906 0.10253797 3.25
-0.80157048 -0.15048258 0.037900474 0
-0.39783844 -0.28567991 0.094623275 2.5
1.7698203 -0.20050542 0.057207484 4.6666665
1.8324432 -0.29196721 0.046269253 4
-0.97758222 -0.069627255 0.082399249 1.3333334
-0.84606516 -0.062467013 0.048235521 3.3636363
1.6401997 -0.03406119 0.14998162 3
1.6916511 -0.077162951 0.082250364 4.3000002
-0.88403922 0.046289604 0.070187323 2.6666667
1.6015707 0.038313057 0.071113013 2.4000001
2.184525 0.092930131 0.11368152 0
2.356108 0.11145715 0.046931215 3
2.2938948 0.21878511 0.076391675 3.1666667
2.1947141 0.36500436 0.078786381 3.625
2.1458166 0.4883143 0.053108998 19.799999
2.4750395 0.68102825 0.00059681654 65
-0.99600762 0.84115714 0.06132289 2
-0.94730133 0.92871624 0.078620978 1.5
-0.84617686 0.99604458 0.060962524 1
-0.75611067 1.056918 0.061964098 1
-0.66883302 1.1180925 0.092318103 0.75
-0.56352633 1.1870813 0.059237566 0.83333331
-0.50041318 1.231178 0.037036259 0.2857143
-0.3853465 1.3095022 0.062021513 4.8333335
-0.31306797 1.3573312 0.12321579 9
-0.22705784 1.4164186 0.089518532 10.4
-0.12890717 1.4798713 0.042858761 33
0.44997615 1.4265565 0.07523682 21
0.5505262 1.4492486 0.064300358 40.857143
0.68710536 1.4238386 0.093934298 32.666668
0.84757394 1.3957876 0.093220204 33.666668
1.0202612 1.446701 0.073629595 41.333332
3.7800765 1.4431868 0.074472718 13.5
-0.050490431 1.531852 0.089327723 47.400002
0.045125339 1.5956814 0.071495101 57
0.39649606 1.6190181 0.11091589 41
0.46352276 1.5298061 0.083035536 36.5
3.6625113 1.6162775 0.11063819 12
4.7295704 1.5252823 0.13110638 1
0.13302408 1.6534638 0.043132883 53.5
0.23336463 1.720266 0.06523221 56
0.48233914 1.6517822 0.045388754 154
3.617295 1.6685112 0.12362068 6
0.40470952 1.8342743 0.11039513 52.5
0.55816746 1.8714622 0.064603142 150
4.2930522 2.0868785 0.091203921 4
4.3229108 2.1097219 0.11500951 10
2.0374808 2.9294529 0.050806012 33
3.2330668 3.1406701 0.11985331 56
3.2450099 3.2360401 0.078874439 43
3.2213833 3.3665688 0.018572384 18
3.5751705 3.347471 0.062755339 32
5.5649142 3.686024 0.088798784 31
8.1758718 6.1210041 0.001254822 68
3.9501424 -2.7278366 0.21869835 35.5
4.2851076 -2.2601838 0.24927491 72
-0.83189839 -1.391122 0.20876484 10.4
3.2860887 -1.3990492 0.15108269 42
3.3170853 -1.4628558 0.28178364 31
-1.4076636 -1.2859347 0.27621502 31
-1.2780795 -1.2118027 0.23576692 9
-0.65940738 -1.2646579 0.22406626 6.875
-0.57544434 -1.2128161 0.19222169 7
3.2188883 -1.3083618 0.26141983 26
3.3828731 -1.2723496 0.20938432 36
-1.0797075 -1.0736065 0.17339903 3
-0.52833164 -1.1532499 0.2553823 7
-0.43231353 -1.12064 0.19850028 9
-1.0268009 -0.97692847 0.15842938 9
-0.21923365 -0.97150046 0.22580041 9
-0.95435566 -0.82405281 0.24348068 6
-0.86220455 -0.81296927 0.18433475 8.272727
-0.68648273 -0.84520972 0.20136605 4.5
-0.026614537 -0.83698976 0.1873232 8.2857141
0.074566446 -0.77742249 0.24562998 7.4117646
-0.93046981 -0.7490015 0.23260093 1
-0.82362795 -0.70709145 0.25056648 5.1999998
-0.7371608 -0.68950397 0.19109428 6
-0.53493679 -0.61618984 0.18720974 5
-0.34956902 -0.66384733 0.18701062 6.5
-0.26955897 -0.66586345 0.21380381 5.4000001
-0.093859851 -0.60238343 0.19902432 5
0.12283697 -0.74084121 0.19411105 5
-1.435964 -0.5234431 0.28355047 8
-0.52042198 -0.52314717 0.16877773 4.6999998
-0.35578817 -0.50885201 0.2455332 4.3333335
-0.27661923 -0.4890607 0.16808206 8
-0.10794514 -0.56582713 0.20434725 4.5
2.6170168 -0.52986777 0.15982938 24
-1.2486697 -0.33530158 0.24008726 0
-1.1984626 -0.31593829 0.28881389 0
-0.48368552 -0.40958825 0.25609615 4
-0.3819201 -0.36099413 0.22457178 3.8333333
-0.29909372 -0.37946978 0.21025902 8
1.6017909 -0.30119306 0.27509016 3
-1.2481437 -0.21413298 0.24526469 0
-1.1948142 -0.28191179 0.21276885 0
-0.95598394 -0.25616467 0.1762079 0
1.6414729 -0.19042623 0.23462874 0
1.7002435 -0.21759591 0.17163882 2.5
-1.3518718 -0.10049631 0.26004636 0
-1.2885339 -0.12712468 0.21886873 0
-1.0920039 -0.096846774 0.17203355 0
1.6776209 -0.12591007 0.16901034 2
-0.98970741 0.8439694 0.16480923 0
-0.937549 0.93500394 0.20382485 1.8
-0.83481824 1.0049289 0.23230381 1.0714285
-0.75971359 1.063691 0.17675865 2.5
-0.68681711 1.1030757 0.21172757 1.125
-0.57933998 1.1791838 0.2803376 2
-0.50781822 1.2263621 0.2318539 1.8888888
-0.38787618 1.3066833 0.21381994 5.4166665
0.55884027 1.3390886 0.27457637 77
0.84343094 1.347672 0.23224765 59
0.98318189 1.3358215 0.25032991 5
-0.2293878 1.41733 0.20380017 10
0.39841068 1.4210037 0.20111603 22
0.5211885 1.412674 0.22258782 29.166666
0.67345577 1.4035542 0.24798983 25.375
0.80343992 1.3967617 0.20082648 29.857143
0.97828352 1.4043341 0.2040071 34.5
1.0510401 1.4499915 0.19277698 12
3.7809741 1.476423 0.24560261 18
-0.067404419 1.5222197 0.25667375 56
0.071189895 1.6098007 0.23980419 51.400002
0.42674825 1.6019785 0.19199246 101
0.47196367 1.5459793 0.21206409 35.5
3.7068326 1.5922327 0.23124611 18
0.21890137 1.711539 0.21353255 49.75
0.37430686 1.7412522 0.22364059 99.5
0.39588881 1.8221433 0.25809482 50.5
0.52558339 1.8925463 0.21231899 99
4.3581538 2.2080765 0.27544636 0
4.2678771 2.3320105 0.21429922 1
2.3545353 3.1583321 0.19204879 34
3.3368595 3.2250698 0.28203291 36
3.2483397 3.4297857 0.15500796 26
5.7364979 3.4354804 0.21625543 32
3.1745365 3.4555464 0.27204359 24
3.4215832 3.7807448 0.19112581 25
5.3099174 3.9723423 0.22084838 6
7.4121375 6.262032 0.18801242 66
7.9933453 6.3877215 0.27043021 98
3.9284012 -5.1592493 0.37992609 2
4.1777325 -3.0670128 0.30410767 28
3.964051 -2.7383573 0.367488 29.666666
3.856921 -2.5667336 0.44362688 17
4.0663481 -2.4119666 0.35315949 2
4.4466176 -2.1442413 0.43405211 74
-1.5568275 -1.2687867 0.39851081 36
-1.4060491 -1.2102548 0.35478559 52.666668
-1.3766644 -1.1602669 0.38817555 41
-1.3375189 -1.1706567 0.40610242 54
-0.49513152 -1.146892 0.32477713 5
-0.49268973 -0.97576982 0.35286832 6
-0.2077371 -0.96730816 0.38266414 7.5
-0.79463202 -0.80274171 0.40029418 6
-0.6274178 -0.76511014 0.36539412 5
-0.58700991 -0.85630131 0.35540456 5
-0.26680654 -0.7748943 0.36195627 7.5
-0.0027716339 -0.81114477 0.38222343 5
0.04147714 -0.79032624 0.34787571 7.7777777
-0.80038732 -0.7155385 0.33110934 5
-0.4475162 -0.66570812 0.44264841 8
-0.24460652 -0.65165484 0.43808016 3.5
-0.070534579 -0.68641806 0.39461532 5.3333335
0.11031277 -0.7350173 0.34544516 6.1428571
-1.4431404 -0.50403792 0.4017373 10.666667
-0.61055863 -0.53587914 0.36568272 2.5
-0.54601902 -0.51397586 0.34826598 3.5714285
-0.4148922 -0.50473958 0.31080103 4.5
-0.2704075 -0.52839828 0.35899451 4.3333335
-0.12549073 -0.58106965 0.3325187 3
-1.2101158 -0.31137347 0.37623066 0
-0.54227191 -0.35374781 0.41357619 3
-0.39391875 -0.39852974 0.41908598 4.3333335
1.6499888 -0.30983856 0.37536615 2
-1.2374561 -0.24021085 0.34006846 0
-1.1933123 -0.27063251 0.32386023 0
1.5851551 -0.22218573 0.33390963 4
-1.283812 -0.13232362 0.30904621 0
1.6514317 -0.14903606 0.34215182 4
-1.8312814 0.70997059 0.42682195 35.5
-1.8636682 0.88019055 0.43086946 71
-1.7328539 0.82870048 0.42680988 30.5
-0.98917633 0.84378386 0.34898472 0
-1.7949952 0.98527777 0.38417333 30
-0.94027621 0.93016791 0.3436752 1.75
-0.82566124 1.0122627 0.37040976 3.8333333
-1.8296396 1.1670923 0.38754576 1
-0.76106089 1.0554032 0.42045063 3.5
-0.66726637 1.1156986 0.36424881 1.4285715
-0.5644635 1.1891477 0.32036725 2
-0.5121218 1.2292441 0.37156054 2.25
-0.35877308 1.3292543 0.39560774 21
0.77848417 1.3433932 0.40935552 53
-0.30878109 1.3617465 0.41305876 9
-0.22101864 1.4167949 0.37963974 34.5
-0.13214952 1.471406 0.3276794 49.5
0.42160964 1.4695436 0.33784294 66
0.51529837 1.4585969 0.35808843 102.28571
0.66084063 1.4090314 0.40276465 66.666664
0.84036696 1.4196274 0.37639734 88.75
0.99569166 1.4660254 0.36807749 28
-0.086352795 1.5047814 0.38719949 51.333332
0.06311354 1.603781 0.38071877 46.875
0.42871261 1.6146998 0.35846835 57
0.23478125 1.7180938 0.35937017 44.5
0.34204212 1.7917776 0.35745487 46
0.47331548 1.7059512 0.39726591 151
0.38788956 1.8196861 0.32506263 43
0.47238266 1.886498 0.34290153 47
3.4096882 3.2863772 0.4483484 17
3.1633608 3.41764 0.40764552 50
5.5326586 3.736999 0.33256727 32
8.163866 6.1452637 0.30356336 71
7.3738103 6.2654109 0.43913686 64
7.9276361 6.495225 0.40338755 99
5.6266546 -4.2389002 0.58130211 102
4.1565814 -2.3076522 0.52479196 64
4.4076047 -2.1754322 0.59017086 76
-1.9637008 -1.4707092 0.59467012 44
-1.9535551 -1.2589115 0.58428013 67
-1.9422941 -1.2879437 0.58636218 77
-1.5276924 -1.3247867 0.59726119 150
-1.0033406 -0.86072338 0.46306387 16.5
-0.85880601 -0.78104299 0.50811225 10
-0.48480874 -0.6377179 0.47072142 5
-0.34942746 -0.62924361 0.48802701 4.5999999
-0.27667072 -0.60699928 0.47013155 4
-1.4155495 -0.46089536 0.51965171 7
-1.334577 -0.46199894 0.52201974 7
-0.53690523 -0.48954391 0.48731804 6.5
-0.50632465 -0.40158722 0.50046593 5.6153846
-0.42282146 -0.39143652 0.52670759 4.3846154
-1.9051095 0.85063362 0.5531503 83.5
-1.8630087 0.9826389 0.51596862 72.571426
-0.93446559 0.93172824 0.54434574 4.1999998
-0.8437258 0.99631786 0.51181358 3.4545455
-1.8271087 1.0846633 0.5518828 52
-0.76064837 1.0599264 0.47687709 0
-0.68257779 1.1100264 0.4950141 2.4000001
-0.55180967 1.1962745 0.5823614 4
-0.49529195 1.2319443 0.53817278 3.8571429
-0.38680056 1.309661 0.50717831 7.1999998
-0.22410385 1.4137135 0.50768352 41.142857
0.68535542 1.4317392 0.52626777 55
0.83400625 1.4366804 0.54277378 23.833334
-0.088488959 1.5085918 0.48304725 30
9.8925826e-05 1.5650681 0.46411902 19
0.42675936 1.6310382 0.48430303 34.5
0.5188486 1.5640749 0.50072736 82.400002
0.95766735 1.5145075 0.53571326 40
0.13467966 1.6516232 0.56142735 45
0.2359274 1.7191726 0.56425893 44
0.34421408 1.794463 0.58178014 44
0.47419012 1.7310418 0.59409875 150
0.40856326 1.8356855 0.5089401 43.5
0.48587477 1.8868959 0.56348431 40
6.7136111 1.9726046 0.51714706 26
6.6255293 2.1050377 0.56251311 33
6.4974656 2.3026021 0.54816031 23
-2.3410907 2.4089837 0.56443942 111
5.7353764 3.3764725 0.59697825 38
3.2359302 3.4675891 0.56641883 24
5.6822901 3.5157962 0.47357327 32.5
5.5148139 3.7772872 0.58080888 33
3.5306332 -5.6023045 0.67427045 6
3.6647065 -5.5026989 0.66213644 50.666668
5.4211378 -4.3672886 0.71191716 96
5.625114 -4.2302508 0.70595086 97
4.1967921 -3.077534 0.65481973 28
3.9317162 -2.4825253 0.63303566 73
4.1499896 -2.3331511 0.67374468 70
4.2763028 -2.2426522 0.68318331 71
4.4079738 -2.161391 0.74275565 73
-1.996624 -1.5433158 0.62054098 73
-1.8866574 -1.5265632 0.70243341 43.5
-2.0090117 -1.4852613 0.70561671 153
-1.869025 -1.4679289 0.70969558 111
-1.7208143 -1.4255972 0.68852782 83.666664
-1.5584913 -1.3710446 0.64506471 150
-2.1082082 -1.2109799 0.67610323 65
-2.0126367 -1.2651894 0.70585227 127.5
-2.1261926 -1.1884044 0.68005824 71
-2.105808 -0.99064302 0.66371965 74
-0.84444833 -0.75184244 0.6033355 9
-0.44889355 -0.49010974 0.61226231 4
-1.2604635 -0.33051074 0.61666781 0
-1.1579661 -0.31187701 0.73735917 2
-0.51492071 -0.40933931 0.68020016 6
-1.2370808 -0.29455057 0.66984391 2
-2.0007689 0.8555584 0.65921479 26.6
-1.8760617 0.84909517 0.71097845 45
-1.9148886 0.99421614 0.65310287 16.5
-0.93959612 0.93552744 0.66399664 3
-0.83575654 1.0066971 0.6259675 2.3333333
-0.66418999 1.1171246 0.67985922 4
-0.56756967 1.1825933 0.64837778 4
-0.47253299 1.2488276 0.65923166 4
-0.37005469 1.3136169 0.62542242 20.666666
-0.20112745 1.4274683 0.73366296 38.25
-0.13238387 1.4757552 0.69733924 43.333332
0.72285682 1.4956847 0.60887885 52
0.84424001 1.3738288 0.62249708 13.333333
-0.057622623 1.5218047 0.67705423 44.400002
0.049970102 1.5934259 0.64227009 43.166668
0.67910904 1.5515463 0.67451018 8.1428576
0.1464258 1.6549277 0.63075364 45
0.22780064 1.7160537 0.69214028 41.799999
0.40951085 1.8396699 0.68563682 41
0.52789938 1.9271225 0.74133146 35
6.8187485 1.8399816 0.73987502 27.5
6.606914 2.1313393 0.74288356 33
-2.497952 2.3002522 0.70301992 105.75
-2.3030446 2.4349861 0.68669128 112.75
6.2202473 2.7522013 0.6924361 2
6.0743642 2.9331207 0.65532637 33
5.8709249 3.2396932 0.73138571 21
5.8157015 3.3181272 0.60388571 33
5.5875387 3.6652281 0.72375137 32
5.4572811 3.8459873 0.60923386 33
7.9220505 6.5147977 0.74316764 93
3.4130666 -5.6731801 0.87612939 4
3.64148 -5.5197625 0.85772228 56
3.8649137 -5.3737206 0.86519372 42
4.8903427 -4.6924734 0.79365134 97
5.0755658 -4.5664673 0.89801502 101
5.2659273 -4.4297228 0.80838621 111
5.6226063 -4.2344356 0.83723241 80
4.038897 -2.8535893 0.83430684 26
3.850404 -2.5716906 0.87913895 16
8.0191689 -2.5699296 0.89191568 19
3.9692936 -2.4537971 0.81214899 69
4.1654034 -2.3205168 0.81459486 68
4.4097214 -2.1608496 0.86069888 70.5
-2.0322332 -1.5072874 0.76273757 151
-1.9230602 -1.5257146 0.89714849 53
-1.7312542 -1.5975488 0.85414863 85
-1.8818126 -1.4443499 0.76070595 39.5
-2.1307001 -1.2346737 0.85789853 83
-2.0888939 -1.2734032 0.81989789 98
-2.1340277 -1.1546226 0.77495915 93.5
-2.0893097 -1.0730579 0.82019663 83
-2.1394567 -0.99820995 0.83616847 94.666664
-0.50164485 -0.46478033 0.75424635 5
-1.1412361 -0.34253952 0.82026547 3.5999999
-0.51252568 -0.41524732 0.7872597 3.5
-1.1398435 -0.25763717 0.79057682 2.2
-2.4048581 -0.067746297 0.79177511 1
-1.8744614 0.8296054 0.83522165 16.200001
-1.856949 0.96636385 0.83847064 7.6666665
-0.81462562 1.0140898 0.82752091 4.4444447
-0.75282925 1.0575119 0.7592243 4
-0.68079185 1.1067652 0.80775005 3.5
-0.57851452 1.1767367 0.80508268 3
-0.51632357 1.2203588 0.75366151 3
-0.38422596 1.3126283 0.85985994 8.75
-0.31232786 1.3579214 0.85144538 36.5
-0.25010175 1.3972174 0.78991121 38.714287
-0.13161299 1.4802389 0.84314448 39
-0.0373674 1.5431587 0.83452529 40
0.054067861 1.6009351 0.80107802 38
0.20992519 1.7086523 0.78370273 38
6.8613644 1.7632415 0.85065329 29
0.37664926 1.8240529 0.76727533 40
6.7636361 1.9203292 0.82809913 25
-2.8953357 2.0349448 0.88911629 109
0.76032335 2.0877843 0.88509023 34
6.6384945 2.099839 0.88700318 32
-2.7048998 2.164103 0.79647994 111
-2.6766074 2.1823113 0.83266717 113.33334
6.5635433 2.2159929 0.82562417 28.5
-2.4499288 2.3354151 0.8283655 113.2
-2.3923206 2.3769801 0.87155139 103
6.3894777 2.4902804 0.80763429 18
6.1841664 2.7543111 0.80170691 31
5.9893475 3.0633104 0.85571969 32
6.0051646 3.0536201 0.77876246 32
5.7991543 3.3497868 0.87975001 32
5.6608443 3.5374911 0.82118368 32
5.3631854 3.9990361 0.84363103 16
5.4030147 3.9368639 0.87934041 32
8.211175 6.0914159 0.86878312 47
9.8120337 -11.344979 1.0322605 1
4.5773435 -4.9080582 1.0166447 87
4.9599748 -4.641232 0.98901558 101.5
5.2735305 -4.4395518 0.98402864 104.33334
4.0395656 -2.8403313 0.96544135 27
3.9464283 -2.4622991 0.99898046 66
4.1684608 -2.3148739 0.92539054 65
4.2195039 -2.2776005 1.040576 60
4.4628339 -2.1259725 1.0106615 64
-2.212194 -1.6505767 1.0457717 85
-2.2815201 -1.5629462 0.98589307 87
-2.2397578 -1.6266841 0.96679097 89.666664
-2.0862117 -1.6042953 0.95591307 150
-1.8766299 -1.5951223 0.96372873 128.33333
-2.1670351 -1.368187 0.97651911 153
-2.1757214 -1.2651073 0.95257843 101.5
-2.18734 -1.0895021 0.97680378 160
-2.2522693 -0.96847373 0.93760216 159
-2.2543876 -0.87020361 0.90242243 9
-2.439518 -0.096734844 0.95467234 0
-1.9187695 0.83593243 0.95626479 2
-1.8331685 0.94031608 0.90604305 2
-0.93048519 0.93737537 0.97127551 4
-0.83771729 1.002324 0.9511323 3.6666667
-0.67679816 1.1113642 0.98589408 2.5
-0.58006871 1.1776892 1.0040196 2
-0.49817324 1.2322257 0.9737857 2
-0.38756123 1.3101478 0.95982164 3.6666667
-0.22687051 1.4181474 0.96224201 36
-0.10325579 1.5012485 0.92488289 40
0.073338315 1.6168938 1.0320047 39.25
0.14453109 1.6665541 1.0193181 38
0.22613271 1.7194223 0.99798095 37
0.32167998 1.7816639 0.97070593 33.5
6.8555813 1.781359 1.0273248 22
6.938704 1.6639391 1.0282025 3
0.39580578 1.8333418 0.97877496 33.5
0.48201391 1.8951848 0.97821862 33.5
-2.8650055 2.0563438 0.99737227 112
-2.8467944 2.0586138 0.98773324 117
0.57525361 1.9642148 0.94682354 36
0.66370064 2.0197437 0.9855358 33.333332
-2.6247773 2.21876 0.9711501 115.5
0.81012607 2.1150513 0.9883393 26.5
0.91011065 2.1840048 1.008266 28
-2.5749118 2.2586625 1.0016863 115
-2.4248512 2.3534291 0.95057201 118.33334
-2.3928554 2.3830934 0.94073278 112.5
6.3872156 2.4765024 0.93211424 22.5
6.1785035 2.8005664 0.97843724 33.333332
5.9496694 3.1372902 1.0239954 33
5.7864799 3.3645167 0.92315912 32
5.5938802 3.6551256 1.0030336 32.5
5.4682264 3.8402498 0.92959058 32
9.6821842 -11.434748 1.1331805 1
3.5817733 -5.559823 1.0765252 72
4.6658502 -4.8440843 1.1375647 97
4.7590847 -4.7668056 1.0966026 87
4.9601641 -4.6550984 1.1029918 102
4.9531469 -4.6445508 1.1658685 97
5.4606695 -4.3430758 1.1470947 95
7.1305542 -3.1665487 1.1034476 61
4.2332301 -3.1164393 1.1830503 28
4.0064769 -2.779108 1.1409179 27
7.7647667 -2.7530465 1.1338843 47
3.9803691 -2.4461331 1.134032 70
8.2230072 -2.4377933 1.0604109 32
4.0445242 -2.3904719 1.1607578 74
4.1846085 -2.3065815 1.0760028 65
4.2282124 -2.2699382 1.1271417 66.5
4.4376278 -2.1343584 1.0790858 69
-2.0967746 -1.7234317 1.1287633 150
-2.2797327 -1.562883 1.1141734 78.400002
-2.3890486 -1.3966323 1.157815 90
-2.4341438 -1.3375065 1.1709569 85
-0.99710679 0.84733301 1.1542023 0
-0.94636184 0.93102014 1.1108245 3
-0.86191565 0.97873509 1.1049993 2.5
-0.65940887 1.1180078 1.1233526 1.8571428
-0.56851405 1.1807829 1.1259212 2
7.2806253 1.1757296 1.1823534 20
-0.48759651 1.2398626 1.1156572 2
-0.4140611 1.2903675 1.1252798 2
-0.31569439 1.3572496 1.0689946 37
-0.20959513 1.429971 1.1485362 36.599998
7.0663424 1.4628994 1.1145973 10
-0.069861971 1.5251161 1.1193974 38.5
0.044439193 1.5999571 1.0857575 38.400002
7.047123 1.5132071 1.1733075 22
0.13378142 1.6587197 1.1265011 32
0.21944794 1.7196474 1.1315711 32
6.8726473 1.7672317 1.1294514 23
0.37038007 1.8294206 1.1337709 34.5
0.50319433 1.9193348 1.1275866 32.75
6.8256598 1.8357444 1.1858515 22
-2.8638248 2.0492265 1.0744716 110
-2.8225465 2.0880566 1.1228685 115.5
0.65571731 2.0202761 1.1302421 30.25
0.7643556 2.0988188 1.1576153 27
6.6978207 2.028307 1.1062659 28.5
-2.7682505 2.1254742 1.1470541 116
-2.6105485 2.2255988 1.0989572 117.5
0.83625305 2.1430073 1.1484828 25
0.94920588 2.2171144 1.1223272 28.333334
6.6404295 2.1026614 1.0523289 22
-2.564889 2.2656405 1.0789092 112.5
-2.4596729 2.3284869 1.1899041 107
-2.3660319 2.3901505 1.1486875 108.5
1.0118808 2.262789 1.1702102 28
6.4977942 2.3313489 1.1494801 33.5
6.4543691 2.4211218 1.0994003 19
6.2946134 2.6278028 1.1728472 34
6.2306924 2.7143328 1.1546046 32
5.9688487 3.1058102 1.069515 32
6.0152907 3.0451679 1.1132323 33
5.7670789 3.4072599 1.1517529 32.5
5.3732772 3.9574707 1.1048983 20
5.4098496 3.9337726 1.1352398 32
3.7441928 4.1017218 1.1903465 16
4.6337938 4.7743897 1.1056888 0
7.9228497 6.5467124 1.0889387 72
9.7640982 -11.317307 1.3401073 1
4.2679405 -5.1082258 1.2509624 84
4.4244986 -5.005168 1.3273714 81
4.6390419 -4.8572836 1.2900542 88
4.6618724 -4.8444276 1.2192481 97
5.1370215 -4.5139871 1.2946798 96
7.3391557 -3.0403337 1.2208829 45
7.6949515 -2.7929752 1.2864821 47
3.9628499 -2.6978621 1.2227662 20
3.8588355 -2.5297639 1.2370452 35
3.9901617 -2.4308069 1.2503375 71
8.1791744 -2.4600689 1.2697172 42
4.1498299 -2.3309317 1.3306539 65.5
4.2082963 -2.2690175 1.3475534 63
4.3298955 -2.2032838 1.2520353 71
4.4290628 -2.1416097 1.2648524 68
-2.1099648 -1.8070542 1.3226302 59
-2.0885692 -1.8501139 1.2885396 69
-2.1762211 -1.7165323 1.2547477 70.25
-2.2881122 -1.5515585 1.2916048 70.75
-2.2448053 -1.6174365 1.3476478 65
-2.3648169 -1.4419564 1.2473087 72.666664
-2.4781864 -1.2734705 1.2698122 57
-2.577311 -1.1237502 1.2859387 79
-2.5378094 -1.1831654 1.2553307 74
-1.1795603 0.74157363 1.3054564 12
-1.1280779 0.80534881 1.2995549 2.6666667
-0.87375331 0.83134675 1.2374585 1
-0.96268821 0.90409005 1.2332431 1
-0.80940402 0.9925369 1.237304 6.8000002
-0.69248837 1.0942656 1.245182 4.8333335
-0.50085276 1.2010802 1.2283796 2
-0.374026 1.2938089 1.2365052 5
-0.31376263 1.3577468 1.2618908 29
-0.22694671 1.4214203 1.2520616 31.4
-0.13885388 1.4816371 1.2151048 33
7.1427889 1.3699502 1.3413131 24
-0.053439263 1.5373086 1.3112637 34
0.060504958 1.6131672 1.2954718 33.5
0.12320478 1.6528238 1.3001739 33
0.21481407 1.7192875 1.288069 35
0.30573273 1.7768114 1.3071848 35
6.9278674 1.6890025 1.3308432 19
0.38584483 1.8382477 1.300687 30.666666
0.48570982 1.9046788 1.3079804 26.333334
-2.9590931 1.9941658 1.3357072 123
0.57361358 1.9616768 1.3223519 27
0.64799345 2.0159848 1.3097577 25.5
0.76377577 2.0933912 1.3396562 24
6.7259121 1.9978186 1.3375095 25
-2.7607679 2.126338 1.2694041 122.5
-2.65592 2.1922543 1.3279958 112
0.83620024 2.1475224 1.297377 24.5
0.98348373 2.2480867 1.2760797 27
6.6176558 2.1492038 1.2164344 22
-2.5583096 2.2663305 1.2520477 119
-2.4559367 2.3337257 1.312436 110.33334
-2.3760321 2.3921571 1.2557578 107
1.0784551 2.3110578 1.3434122 26
6.3989396 2.446121 1.2598908 5
6.3048062 2.6152222 1.2421099 33
6.2158251 2.7445245 1.3287954 33
6.1110892 2.9064612 1.2813363 33
6.0347581 3.007369 1.2312446 32
5.8472252 3.2954402 1.3254379 32
5.8162031 3.3423483 1.2264916 33
5.5768476 3.6872649 1.2724199 32.5
4.4881206 4.6209359 1.2431957 15
6.3104291 5.8062668 1.3210982 0
8.2084923 6.1289911 1.2294824 73
8.1141787 6.2798867 1.3202935 77
9.1305771 -11.802841 1.4880031 1
4.3353243 -5.063374 1.4684179 77.5
4.369801 -5.0380998 1.4118608 83
4.6643329 -4.8354182 1.3692999 78
4.856781 -4.7056742 1.4607021 87
7.2787356 -3.0644121 1.3746934 66
7.3671823 -3.0207219 1.4455835 45
3.9692676 -2.7333515 1.3665843 25
7.7816267 -2.7364433 1.3822937 47
7.8088007 -2.7228196 1.4782234 48
3.9180696 -2.6449535 1.4033515 27
3.8999765 -2.4882238 1.4180102 68
3.9873724 -2.4290576 1.4238946 70
8.2911692 -2.4039743 1.3960241 45
4.4438004 -2.1274443 1.469205 58.666668
-2.028405 -1.933894 1.3922782 63
-2.165525 -1.7315869 1.4086215 65.5
-2.2968698 -1.538815 1.4451293 65
-2.2220578 -1.6402696 1.383876 66
-2.421237 -1.3633857 1.3973992 61
-2.3622174 -1.4475302 1.4126669 35.333332
-2.5018759 -1.24702 1.4266192 16
-2.5988379 -1.0966126 1.4330598 51.333332
-2.5407262 -1.1798413 1.465008 61
-3.1644919 0.41957724 1.4923655 55
-3.4868865 0.48867911 1.4931378 83
-3.2697885 0.50262111 1.4868345 79.333336
-3.1253185 0.51072162 1.4870952 73
-3.7474644 0.74687797 1.4884348 78
-3.3462811 0.69921499 1.4801352 73.5
-3.1727965 0.66533375 1.4841921 70
-3.8170583 0.75553548 1.4957126 84
-3.5064378 0.75532818 1.4866579 76
-3.2804575 0.75783551 1.4841628 80.5
-3.1412091 0.75542152 1.4817458 53
-2.8757498 0.75965518 1.4984962 12
-2.7672124 0.79933852 1.4976137 30
-0.87741345 0.83374614 1.3555707 0
-3.7907634 1.0499229 1.4924413 78
-3.5306988 1.0340575 1.4809968 74
-3.3424587 0.98563939 1.4744083 77.666664
-3.2137229 0.98211932 1.4783386 73.666664
-3.0768385 1.0030183 1.4821938 74.666664
-2.9395428 0.94916195 1.4841214 70.5
-2.8047466 0.95652741 1.4841142 75.333336
-2.6323633 0.97318047 1.4789739 72
-2.4791672 0.94302732 1.4846357 77
-2.190516 1.01753 1.4678059 60.5
-2.0512021 1.0091686 1.4840183 70.666664
-1.9348161 1.04207 1.4756354 79
-1.6804963 1.0245804 1.4860356 42
7.3631902 1.0376053 1.3701977 25
-3.8495548 1.0619495 1.4910531 80
-3.1953075 1.183849 1.4717286 84
-3.0067213 1.1629417 1.4830251 85
-2.8223834 1.1542947 1.4723313 75.5
-2.4982145 1.1735373 1.4762198 73
-2.3944314 1.1397002 1.4781921 82
-2.1575584 1.0822649 1.4820416 76.5
-2.0287318 1.1621457 1.4798821 67
-1.717248 1.1384925 1.4720825 86
-1.6004767 1.1442642 1.4734432 81
-1.4516445 1.1580094 1.4658855 25
-3.5700972 1.332136 1.4812469 76.5
-3.3579581 1.2746973 1.4727579 78
-3.1677027 1.273221 1.4766318 59.5
-3.0766873 1.2560496 1.4779139 66
-2.9008367 1.221743 1.4704888 70
-2.3768597 1.3499392 1.4694664 75
-2.1537337 1.2575488 1.4664087 75.25
-2.038327 1.2165898 1.4693222 76.5
-1.9115695 1.2195385 1.4717063 85
-1.6743944 1.2764537 1.470274 71
-1.5686288 1.2983395 1.4739612 82
-1.4191318 1.3167585 1.4688032 83
7.1659327 1.3308021 1.3702203 23
-3.8396521 1.3705629 1.4792299 87.5
-3.2239909 1.4725406 1.4762251 74
-2.5150771 1.4065385 1.4747254 15
-2.2071538 1.4547647 1.457579 44
-2.0462012 1.4213827 1.4623444 74.199997
-1.8765229 1.3990234 1.4602382 74
-1.5770389 1.4256204 1.4751302 77
-0.21632792 1.4301566 1.4099425 34
-0.12466348 1.4877335 1.4326861 34.5
-3.3785498 1.6031369 1.4755683 53.5
-2.8253746 1.6395609 1.4720203 78
-2.508693 1.6183997 1.4643825 77
-2.3546827 1.5682172 1.4586957 69
-2.1363738 1.5360034 1.4621425 62
-2.0059488 1.6198429 1.4658743 65.333336
-1.848021 1.5965306 1.4608033 76
-1.5832703 1.5417341 1.4621651 71.25
-0.066167906 1.5283544 1.4289427 32.75
0.036044858 1.5963038 1.4189384 30.4
-3.0065556 1.6925993 1.4594718 90
-2.9684396 1.7665433 1.4664873 79
-2.8418081 1.7239728 1.464222 78
-2.6386673 1.714581 1.4651418 65.333336
-2.5216174 1.6512915 1.4649068 67
-2.14219 1.7333267 1.4536655 69.5
-2.0639567 1.6845132 1.4564562 68
-1.8042288 1.7962118 1.4501218 68
0.12122686 1.6600904 1.3996165 28
0.22230546 1.7289721 1.4116987 31.4
0.31323737 1.7858185 1.4105933 29.25
6.9629664 1.6607014 1.3708926 3
-3.0955606 1.8227712 1.4651624 72
-2.7867951 1.8707784 1.4659574 75
-2.5126362 1.8989396 1.4587879 74
-2.3446875 1.8126081 1.4605604 74
-2.1441984 1.9487869 1.4460529 31
-2.0192096 1.8691893 1.460925 65
-1.9116861 1.8451772 1.4486817 71
0.42487594 1.8588781 1.4062271 27.666666
0.53814673 1.93672 1.405091 26.5
-2.9593425 1.9946738 1.4233779 127.5
-2.8409863 2.0300925 1.4612017 99
-2.6360519 1.9986922 1.4604006 66.333336
-2.3280568 2.0750697 1.4598874 66
-2.0439727 2.030596 1.4675778 45.333332
0.57338387 1.9535737 1.3640269 26
0.69523937 2.0429637 1.3917953 25
0.76880068 2.0892265 1.3665524 27
6.7250857 1.9665072 1.3803982 21
-2.7392812 2.1317711 1.4278154 112
-2.5811017 2.2246118 1.4451834 95.5
-2.4832764 2.1641061 1.4600862 63
-2.1090219 2.2337022 1.4481375 58
-2.0026591 2.1564286 1.4617745 62
0.83132863 2.1398695 1.3858876 25.333334
0.95660537 2.219955 1.3988558 26.25
-2.5580497 2.2671022 1.4025142 125
-2.3499024 2.3759649 1.4276304 65
1.0360434 2.2787936 1.413767 28
1.1404214 2.346663 1.4292159 25.75
1.2244797 2.3967261 1.4922945 21
6.5248966 2.2839673 1.3876821 27.5
1.2996711 2.4557469 1.4451656 23.333334
1.4369895 2.5487983 1.4440484 25
1.4536213 2.5616724 1.4880269 23
1.6217985 2.67169 1.4408705 20
6.3275547 2.5759583 1.4328417 33
1.7492619 2.7569556 1.4998263 19
6.1319308 2.872412 1.4525861 33
5.9535365 3.147964 1.3771498 33
6.0268993 3.0314465 1.4113928 33
5.9094272 3.2243838 1.3667595 17
5.7687464 3.4023752 1.4587119 33
2.7632082 3.4574459 1.4794903 16
5.6535678 3.5739343 1.4345198 33
5.710258 3.5039868 1.4879291 34
5.6238651 3.633395 1.3582962 33
5.3743949 4.0000634 1.4218521 23
5.4139295 3.9320605 1.3998871 150
4.4157562 4.5364213 1.3902756 12
7.3343916 6.3346682 1.4600106 56
7.9328384 6.554523 1.4313293 74
3.9747236 -5.3105845 1.5035576 79
4.1239128 -5.2074161 1.5715805 79.666664
4.385673 -5.02806 1.5698228 73
4.5878644 -4.8948584 1.6372398 83
5.5471954 -4.268084 1.5134547 88
7.3723288 -3.0151484 1.5795226 47
4.1578326 -2.9774346 1.5173731 22
7.7889123 -2.7233369 1.6257026 47.5
3.9249814 -2.6447964 1.580519 25
7.8379564 -2.6886306 1.626752 33
3.8592937 -2.5086746 1.6438974 43
3.9528496 -2.4386015 1.6414806 68
8.2126684 -2.4361091 1.5608737 42
8.2507572 -2.4262202 1.5557576 51
4.0288391 -2.3917527 1.577336 66
4.1115713 -2.3464518 1.5660543 63
4.2492094 -2.258781 1.5222235 57
8.2776384 -2.3850803 1.6068958 33
4.2661014 -2.2462265 1.5016389 60
8.6864643 -2.1332626 1.5191189 2
-1.9926541 -1.9986428 1.6394402 61
8.7576151 -2.0562742 1.6053479 36
-2.0601344 -1.8903948 1.5814847 66.333336
-2.165266 -1.7269971 1.5878302 6
8.8102722 -1.7043711 1.6240915 5
-2.2737281 -1.5631878 1.6492583 64
-2.4060452 -1.3815991 1.529507 29
-2.3616395 -1.4384117 1.5790396 63
-2.4923854 -1.2403904 1.6284347 20
-2.5760043 -1.1242951 1.5867544 63
-3.0838919 0.53505099 1.5000186 40
-0.69161826 1.1376953 1.6469811 0
-0.39237642 1.3440775 1.6416479 6
7.1916995 1.3004254 1.5328573 25
-0.21523771 1.4392185 1.5737845 23.4
-0.13389179 1.4836048 1.5024662 30
-0.066817157 1.5386448 1.5962452 29.666666
0.038030785 1.6069338 1.5632234 31
6.9873219 1.6102567 1.5258837 25
0.12738311 1.6660029 1.5370032 30.333334
0.22506203 1.7245108 1.539469 31
6.7992344 1.8826997 1.5877179 24.5
6.5900888 2.1961496 1.5590922 25
6.6202583 2.1461844 1.6380128 24
1.4072654 2.5197854 1.535017 23
6.4016385 2.4761951 1.5991874 20
1.5629492 2.6255109 1.5681214 21.666666
1.7916002 2.788836 1.585008 14
6.140811 2.8485143 1.5369327 33
1.9895239 2.9260306 1.5950217 17
5.9581618 3.1289797 1.6240901 32
2.4253266 3.219383 1.585899 15
5.9443817 3.1526096 1.5223414 33
5.7974329 3.3687134 1.5593152 32.5
5.6498351 3.5824018 1.6257402 20
5.6050177 3.6628313 1.5586404 33
5.4959145 3.8163514 1.5958972 91.5
5.4329767 3.9182911 1.5096018 151
4.8048897 4.7624798 1.6466073 1
3.6635973 -5.4731359 1.7575842 32
3.8752806 -5.3265843 1.7629734 31
4.0254259 -5.2833982 1.6720492 72
4.0572696 -5.2588873 1.6543971 81
3.5338669 -5.1909027 1.7575212 85
3.6226244 -5.1551695 1.7117679 59
4.0797076 -5.1771526 1.7680839 18
4.0819159 -4.8175149 1.7136375 57
5.2016859 -4.453021 1.7025343 89
5.0027747 -4.2086663 1.7488493 88
5.5964532 -4.2480268 1.6879216 95
5.1720157 -4.1483188 1.7613791 36
5.2994146 -3.9946835 1.7275609 82
4.3184924 -3.1791584 1.7870721 26
7.3423753 -2.9962375 1.7169205 24
7.4120727 -2.9742322 1.6753064 30.5
4.0547819 -2.8431926 1.6768135 26
7.1809564 -2.7231371 1.7909445 44
7.341722 -2.6406248 1.7702042 47
3.873558 -2.5249524 1.7234221 34.5
7.6169572 -2.4632363 1.7297291 29
4.1175346 -2.3345916 1.7517695 62
4.2154245 -2.2707026 1.7587458 59
7.7863636 -2.3618891 1.7019249 33
4.2837925 -2.2221394 1.684152 58
4.4010735 -2.156249 1.720946 57
8.1274643 -2.1854353 1.693113 26
-1.9969745 -1.9745734 1.6702911 52
4.536087 -2.0881476 1.6668738 25
8.1826744 -2.0235116 1.7809314 32
8.3001413 -2.057302 1.6588551 27
-2.1013422 -1.8265494 1.7132517 17
-2.0627143 -1.8845618 1.7254487 3
8.7761784 -1.8884138 1.6942924 30
-2.136982 -1.774271 1.7150453 32
6.9638162 -1.7532803 1.7993714 19
8.6955252 -1.6981684 1.7714494 33
-2.2999372 -1.5429106 1.7591307 60.5
-2.3867505 -1.4001073 1.7184168 62
-2.4989727 -1.2300485 1.7867705 64
8.0753784 -1.2200559 1.7824551 7
-2.5973518 -1.0940387 1.7239965 66
6.997622 -0.69339478 1.7999531 7
7.233645 -0.34018871 1.792096 22
7.3049612 -0.0057331063 1.7730643 20
7.3613615 -0.07120315 1.7917434 9
7.5193586 0.26415145 1.7986199 15
-1.7835445 0.37322536 1.7752939 32
-1.5372725 0.34942389 1.7438163 11
-1.4034812 0.43979251 1.7772638 59
7.3935204 0.33560023 1.7736708 22
-1.5386682 0.53984785 1.7997342 58
6.9102855 0.4523617 1.7981685 22
9.8705473 0.56912965 1.6698424 3
-1.4102567 0.61612481 1.6933883 40
-1.3377887 0.68096411 1.7207454 30
7.3125877 0.67376786 1.7447366 20
7.5039043 0.60429114 1.7709554 4
8.3102474 0.69686633 1.7629336 22
-1.2551038 0.77729309 1.7093343 2
-1.1348835 0.81816381 1.7632934 35.5
-1.0253972 0.88337553 1.7217971 37
6.8768115 0.75223523 1.7968072 21
9.0624933 0.75090283 1.7560009 15
9.2298927 0.83787537 1.7795237 16
-0.94658071 0.94218236 1.6939459 32
-0.88267177 0.97848374 1.6957172 29
6.5829148 1.0133641 1.7290481 20
7.3065357 1.0182712 1.7525078 20
7.3848681 0.93558562 1.7306045 17
-0.76261437 1.069594 1.7082089 38
-0.66989607 1.1372575 1.7107514 37.666668
-0.59215301 1.1803366 1.6806484 35
-0.42630747 1.0831075 1.7977847 66
-0.48242664 1.258914 1.701232 33
-0.4364939 1.2860899 1.6571103 25
6.5000477 1.2920605 1.7361211 11
7.1137056 1.3332016 1.7262627 15
7.232224 1.2585921 1.6951367 20
-0.34271038 1.3643954 1.7202612 28.25
-0.23308745 1.4302292 1.7229021 41
6.0208764 1.3911635 1.7993952 30
-0.081336223 1.5296141 1.6970358 33
0.035965338 1.600301 1.7120217 31
5.8849778 1.6335046 1.794094 29
6.4909129 1.5870789 1.777702 23
6.9650326 1.5976298 1.6861397 15.5
5.7159572 1.8614435 1.7889608 29
6.293354 1.832953 1.7720948 23
6.7304711 1.9278668 1.7200266 20
5.5067868 2.0679445 1.7799715 28
6.0764742 2.0628762 1.7694451 31
6.5178447 2.2040486 1.7328519 20
5.2939463 2.2635 1.7789742 28
5.8332124 2.2703762 1.7672457 31
5.055275 2.4377513 1.7786225 28
5.5504937 2.4491689 1.759344 30
6.2595663 2.450772 1.7443854 20
6.4303885 2.430352 1.6512016 20
4.7996888 2.5897689 1.7781018 26
5.2648058 2.608134 1.7566832 28
5.9825821 2.6742961 1.7609771 32
1.7581878 2.7689462 1.6556383 16
4.2231984 2.8136082 1.7685775 33
4.5141292 2.7121711 1.7717561 30
4.978353 2.7492833 1.7589613 27
5.6244183 2.8411195 1.7601949 31
6.2245274 2.7272019 1.664248 23.5
1.9322107 2.8819878 1.7564436 32
1.9977715 2.9350901 1.745078 34
2.4795504 2.9884067 1.7712096 42
3.338743 2.9908242 1.7678605 37
3.6347656 2.953558 1.7681025 36
3.9370134 2.8993165 1.7714347 31
4.3384919 2.9360514 1.7477244 32
4.670167 2.8599975 1.7575058 27
5.2544394 2.9757912 1.7600571 28
5.9826269 2.98893 1.705856 20
6.0406852 2.9786434 1.7164177 14
2.1509495 3.012428 1.7715718 48
2.441081 3.0850744 1.7718831 35
2.554594 3.0582888 1.7643963 43
2.7817771 3.0780323 1.7681252 36
3.0881615 3.0509634 1.7653221 40.5
3.417434 3.0764413 1.7530836 37
3.7170265 3.046598 1.7499026 31
4.0383306 3.0100756 1.7525636 32
4.4881244 3.1426134 1.757471 32
4.8553009 3.0657556 1.7519258 25
2.5743496 3.2103217 1.7562085 39
2.7342103 3.279305 1.7575649 41
2.9018257 3.2780058 1.7554947 37
3.0651939 3.1805854 1.7662448 34
3.3970068 3.1984341 1.7607073 32
3.7529171 3.2069359 1.7614657 31
4.1172867 3.1882608 1.7596825 32
5.229146 3.2665613 1.7387325 30
5.6450553 3.1637616 1.7349049 31
5.7905951 3.2167742 1.7527939 20
2.564769 3.3284233 1.7113959 22
2.7072804 3.4034388 1.7402951 37
3.0861056 3.355407 1.750929 31
3.232691 3.3163049 1.7458545 31
3.4781036 3.4291971 1.7499965 30
3.6026707 3.3554409 1.7459244 31
3.9852173 3.3695977 1.7440952 32
4.3917732 3.3657796 1.7422832 17
4.794528 3.3238378 1.7365137 27
5.422925 3.3751783 1.7588323 31
5.7287412 3.3749003 1.712634 18
2.7843115 3.46401 1.6585644 17
2.958252 3.5302427 1.6939209 25.5
3.0773153 3.5609269 1.7529513 37
3.3891718 3.5879638 1.7381777 30
3.8926671 3.4802999 1.747465 31
4.3504834 3.519973 1.7506005 15
4.5958533 3.5508897 1.750697 27
4.7950573 3.5047936 1.7374195 27
5.0135264 3.482636 1.7554475 29
5.291286 3.4787152 1.7372905 30
3.1704879 3.7269974 1.6751198 18.5
3.3721895 3.6620944 1.7564616 31.5
3.5658534 3.6743593 1.7435461 28
3.8063064 3.6377892 1.7414789 30.5
4.1967621 3.6016912 1.7551545 24
4.293149 3.7241681 1.7222286 26
5.5645437 3.6955652 1.7092968 18
3.5423427 3.8713551 1.7248951 31
3.7538979 3.7767034 1.7520665 22
4.1249638 3.7978554 1.7431474 26
4.5794177 3.8622198 1.7307011 28
4.7276578 3.78951 1.7294558 28
5.1676021 3.8166976 1.7482837 31
5.3346972 3.7639556 1.7112905 20
3.6724524 3.9965487 1.717869 27
3.7552001 3.9808173 1.7587603 26
4.1274734 4.0218458 1.7357366 25.5
4.214057 4.038466 1.7334892 16
5.1555386 3.9198604 1.7227126 30
5.4264374 3.9135308 1.6672107 29
3.8655417 4.1934509 1.6796104 17
4.6473961 4.0993133 1.7281046 29
4.7571745 4.1167793 1.7312206 29
5.1737843 4.1258202 1.7085688 13.5
5.2692533 4.1136165 1.7011803 0
4.2299447 4.2664285 1.7218355 27
4.5239863 4.4273033 1.7304519 20
4.8586988 4.4250226 1.7214812 28
5.0697927 4.4885139 1.7085122 1
5.5267358 4.5396695 1.7090851 30
5.674057 5.0526476 1.681621 16
6.1029778 5.5409632 1.722104 2
6.9423184 5.5385356 1.7975007 28
6.576036 5.8879819 1.6995765 1
6.8112354 5.8707986 1.6893331 18
7.8493605 6.0526757 1.6943723 4
6.8063235 6.1962972 1.6695408 1
7.8061876 6.242825 1.6982888 41
7.9551353 6.4895039 1.6619803 45
3.267354 -5.1611199 1.8534681 3
3.3717172 -5.1919489 1.8805305 37
3.5867937 -5.068912 1.8669814 37
3.7642634 -4.9051104 1.8648382 30
2.9920268 -4.7480273 1.8667542 34
3.197473 -4.644887 1.8624002 33
2.702697 -4.4008217 1.858411 34
4.1308641 -4.3651881 1.899547 28
4.6548533 -4.429605 1.8075072 87
4.5720444 -4.2427702 1.855497 30
4.7939587 -4.2535543 1.8959204 44
3.4928777 -4.1114931 1.8944353 31
3.9633348 -4.0661621 1.8561271 27
4.1526752 -4.0857573 1.8976957 26
4.9497595 -4.1284347 1.8499366 32
3.5832565 -3.9100187 1.8954023 31
4.3408504 -4.0119147 1.850264 27
4.7098765 -3.9230332 1.8372957 29
5.2913132 -3.9658093 1.8543836 47.5
2.9530358 -3.8772204 1.8935505 62
3.3728409 -3.8238811 1.8554744 32.5
3.6770167 -3.7790148 1.845862 32
3.7942755 -3.8838344 1.8498749 32
4.122683 -3.8025825 1.8550586 30
4.5609932 -3.7782464 1.8380405 27
4.6873136 -3.8942385 1.8821338 29
5.0871897 -3.7755697 1.8338047 33
2.4844317 -3.6499968 1.8896226 35
2.9118958 -3.6586838 1.8502408 39.5
3.0815384 -3.7313142 1.8918606 35
3.1883154 -3.6563611 1.846633 32
3.5927656 -3.7018859 1.8426563 31
3.6315839 -3.6837473 1.8779889 32
2.3749738 -3.4548802 1.8499728 49
2.4863131 -3.4929368 1.8536819 46.666668
2.6384499 -3.5528233 1.8858069 40
2.7713571 -3.5541658 1.8448485 39.5
3.1878741 -3.5710239 1.8810207 34
4.0857935 -3.5038533 1.8831726 26
4.5790854 -3.5032139 1.8775493 27
2.0614767 -3.3723176 1.8636298 50
2.1594605 -3.3595524 1.8550034 51.5
2.2511446 -3.3823683 1.8840815 49
2.4143767 -3.3211489 1.878373 46
2.7774496 -3.4440339 1.8767432 40
2.8929589 -3.3081989 1.8788995 39
3.2574391 -3.3819606 1.8790253 35
3.6489835 -3.4433789 1.8770069 32
4.0509844 -3.3746572 1.871508 31
1.90943 -3.219202 1.8835953 51
2.0779419 -3.1860754 1.8734056 50
2.5541935 -3.2241237 1.8763798 45
3.1044521 -3.1597381 1.8736256 40
3.5454726 -3.2157679 1.8720082 33.5
3.9876807 -3.2320771 1.8671378 34
1.7792418 -3.057323 1.8722025 47
1.9498596 -3.0368118 1.8730375 53
2.2328026 -3.1249239 1.8694059 48
2.7069745 -3.0407834 1.8739461 46
3.1355405 -3.074373 1.8756093 41
3.5691321 -3.0346951 1.8711973 35
3.7411611 -3.0080743 1.8742875 33
4.0075173 -3.0869536 1.8730119 32
4.1456547 -3.0213079 1.8648525 34
1.6815642 -2.9356358 1.8716487 53
2.3491571 -2.9143941 1.8715423 48
2.4305298 -2.8754544 1.8748423 48
2.788748 -2.9387441 1.8736824 43.5
2.9868495 -2.9098301 1.8729516 39
3.1828663 -2.9314456 1.8732617 41
3.3403029 -2.9584663 1.867771 38
3.5808678 -2.9471252 1.865687 38
4.0204048 -2.9993103 1.8622249 32
6.7497249 -2.9492829 1.8600382 39
6.8806119 -2.8714542 1.8394731 40
2.0320714 -2.789362 1.8720351 49
2.1511121 -2.7440405 1.8709917 47.5
2.3126655 -2.737752 1.8684391 48
2.4781661 -2.7591624 1.8665712 44
2.6128404 -2.8037128 1.8691859 43
2.8072519 -2.7586844 1.8670714 44
2.8887143 -2.774749 1.8658051 42.5
3.0927632 -2.7119915 1.861456 42
3.2072363 -2.7997093 1.8623456 38.5
3.5477233 -2.8103492 1.8598027 35
3.638494 -2.7212639 1.8660306 33
3.8934062 -2.8180251 1.8577515 32
3.929467 -2.7981977 1.8606983 30
6.7046552 -2.7484016 1.8579937 22
1.7427931 -2.6076033 1.8667058 49.666668
1.8619391 -2.6389132 1.8775072 35.666668
2.0290654 -2.6450574 1.8710688 36
2.2098148 -2.6460366 1.8678318 48
2.3306494 -2.6033378 1.8655854 46.5
2.4947872 -2.6884444 1.8545655 29
2.6354461 -2.6244411 1.8616952 45.333332
2.9587698 -2.6229897 1.8708439 44
3.2521944 -2.6287756 1.8627824 40
3.3961933 -2.6909485 1.8592309 36
3.6961479 -2.6421878 1.8506786 35
3.9551799 -2.6841006 1.8301054 28
7.2620225 -2.571794 1.8482429 27
1.3377014 -2.4001064 1.8488306 1
1.4421171 -2.474268 1.8615147 58.25
1.5829068 -2.5046971 1.8625557 51.400002
1.6955411 -2.4205413 1.85811 49.5
1.8506355 -2.483186 1.8637203 48.666668
2.0167201 -2.4618111 1.8654395 47.333332
2.2168603 -2.4837515 1.8616948 47
2.4677629 -2.5152416 1.862516 46.5
2.7707777 -2.5020754 1.8603913 45
3.0556986 -2.5129201 1.85963 40
3.3534725 -2.5076175 1.8583177 39
3.5200565 -2.5422845 1.8624412 37
3.6555502 -2.4804366 1.8520879 31
3.8104913 -2.5006142 1.85826 38
3.9525344 -2.4256356 1.8371047 62
5.7942581 -2.4953227 1.8521904 19
5.8887119 -2.4080939 1.8472854 21
6.0551023 -2.4582779 1.8528253 22
1.3153691 -2.3110077 1.8472894 54
1.4014355 -2.3068111 1.8576442 56.333332
1.5523961 -2.3172441 1.8561682 49.5
1.7510164 -2.329071 1.8558221 46.5
1.9476068 -2.3442516 1.859224 46
2.177593 -2.3714831 1.8652939 49
2.4075732 -2.3800168 1.8633856 48
2.6451533 -2.3764226 1.862044 46
2.8819966 -2.3548748 1.8557423 42
3.1372356 -2.3289185 1.8576306 44
3.3868263 -2.2822344 1.8538007 39
4.0235577 -2.397393 1.812421 62
6.2724257 -2.3518829 1.8460273 20
6.5177755 -2.2965949 1.8484584 24
7.7196417 -2.3173776 1.8107826 30
1.1773742 -2.1627002 1.8592848 54
1.2615775 -2.2004712 1.8595115 54.333332
1.3623091 -2.2288494 1.8564848 53
3.6381276 -2.2184894 1.8504511 32
3.9110148 -2.1510823 1.8570391 12
5.0437331 -2.1858342 1.85311 24.5
5.2810073 -2.121274 1.8447136 25
6.2787552 -2.2273366 1.8358182 23
6.7705297 -2.1729772 1.8446249 22
4.1520152 -2.0496504 1.8477255 27
5.3730946 -2.0500593 1.8482103 26.5
6.6718917 -2.0182369 1.830429 24
6.9796071 -2.0953717 1.8444923 25
-1.9984763 -1.8880031 1.8306854 59
-1.8240412 -1.9018363 1.8533682 71
-1.7351509 -1.8194256 1.8523425 70
4.4048862 -1.9387643 1.8458921 22
4.6508684 -1.8099383 1.843985 22
5.6219106 -1.9191635 1.8365042 27
5.7161012 -1.8778081 1.852513 27
7.174439 -1.9271247 1.817567 16
7.4057207 -1.8478165 1.8336991 22
-2.1730244 -1.7091416 1.8220345 60.666668
-1.8837374 -1.6895547 1.8427554 66
-1.6687304 -1.6739823 1.8592675 52.5
-1.303407 -1.6807587 1.8473974 72
4.8856921 -1.6617794 1.8394121 23
5.8376665 -1.7424918 1.8356465 28
6.0512319 -1.7075468 1.8501098 31.5
7.6737814 -1.6648713 1.8221365 24
-2.2230093 -1.5478762 1.8376225 61.333332
-2.0573528 -1.6363409 1.8777746 29
-1.7654762 -1.6150278 1.8457493 61.5
-1.6026354 -1.5752584 1.8412244 69
-1.4030292 -1.5616944 1.8416467 75
6.109766 -1.5253061 1.8383437 32
7.7870359 -1.5570992 1.8148199 23
-2.3369207 -1.4208964 1.8458543 63.666668
-2.0879588 -1.4016838 1.841566 60
-1.8993225 -1.4422359 1.8431165 45
-1.729187 -1.4457231 1.8464892 30.75
-1.5008091 -1.4325742 1.8366281 78
-1.1976813 -1.360137 1.8436886 77
5.1222563 -1.4998699 1.8407339 25
6.3203859 -1.4831295 1.8331717 33.5
7.4215794 -1.4990779 1.8244725 24
-2.4513543 -1.3178202 1.8235327 61
-2.290344 -1.264276 1.8434031 59.5
-2.2336717 -1.2905409 1.8442301 58
-2.001122 -1.3028799 1.8445112 57
-1.8326257 -1.2271193 1.8410047 26
-1.7573543 -1.2590328 1.8472384 24.333334
-1.5996134 -1.2996314 1.8392104 28
-1.399729 -1.310686 1.8371856 71.5
-1.2606634 -1.2801356 1.84337 73
5.3315306 -1.3165088 1.8357066 26
6.3017783 -1.2747122 1.823368 22
6.5267243 -1.2326921 1.8149647 15
6.6073036 -1.236285 1.8163856 20
8.0508738 -1.3389118 1.8034235 21
-2.6059051 -1.0501435 1.8501209 66
-2.4634299 -1.1323266 1.8452163 63
-2.3127489 -1.1073771 1.843503 58.666668
-2.1397326 -1.1999125 1.8418161 63
-2.0514009 -1.1170735 1.8457178 28
-1.8571043 -1.1334003 1.8444968 26.5
-1.7214863 -1.1238087 1.8379095 25
-1.6201775 -1.0951397 1.8396055 26
-1.4233341 -1.1385165 1.8381701 30.666666
-1.2575727 -1.1417859 1.8422348 31.75
-1.1320968 -1.079501 1.8426553 35
-0.91635513 -1.0624642 1.8571166 17
5.5310841 -1.1181237 1.8337108 26
7.7252855 -1.1848978 1.8166405 23
-2.429945 -0.94134605 1.8400942 61
-2.3476884 -1.0182769 1.838636 58
-2.186482 -1.0030861 1.8426548 45
-2.0988932 -0.9342199 1.8476657 27
-1.8804318 -1.0221043 1.8397764 25
-1.7300105 -0.94087094 1.838637 25.333334
-1.5454452 -1.0366099 1.8378862 26
-1.4330078 -0.94937027 1.8359506 30.5
-1.3062268 -0.98658371 1.8406849 29.5
-1.1201524 -0.95760959 1.8432041 35.333332
-1.0482811 -0.97541183 1.8447818 38
6.8864269 -0.97622716 1.8295076 20
-2.3261948 -0.84955168 1.8393207 56.333332
-2.181829 -0.77989 1.8432937 25
-1.9804726 -0.79961377 1.8358868 26
-1.8674072 -0.86110353 1.8354592 27
-1.7473384 -0.78164995 1.8339086 26
-1.5492685 -0.83168775 1.8363388 30.5
-1.3976985 -0.82910854 1.8359667 30.666666
-1.2873744 -0.81596822 1.8365747 29
-1.123981 -0.80347562 1.8344059 33.5
-1.0231743 -0.80636799 1.8298842 32
-2.4535193 -0.71598136 1.837833 58
-2.3315628 -0.66857767 1.8420622 14
-1.8625369 -0.71533167 1.8410608 1
-1.7969007 -0.74432051 1.8363141 26
-1.5863571 -0.67508525 1.8342059 29.5
-1.4150028 -0.67926788 1.8405408 30.25
-1.3115222 -0.66720343 1.837576 30
-1.1139804 -0.67244124 1.8279003 32.25
-0.96762621 -0.68450701 1.8335384 33.25
-0.80541646 -0.69394869 1.8332418 34.599998
-0.65457529 -0.65106571 1.8377391 36.333332
-0.57334661 -0.65476549 1.8383045 37
6.7159319 -0.74438781 1.8333596 19
-1.6724869 -0.58111376 1.8364965 27
-1.5691752 -0.45929569 1.8361429 33
-1.4286057 -0.52770531 1.8361018 28.799999
-1.2693934 -0.52382898 1.8271028 28.5
-1.1231965 -0.54912513 1.8272344 33
-0.96242791 -0.52643353 1.8297714 33.166668
-0.83666569 -0.5312385 1.8309642 34.142857
-0.68073446 -0.51943278 1.8335056 36.909092
-0.523929 -0.51689035 1.833204 35.799999
-0.39949182 -0.45785147 1.8312556 32
6.8176947 -0.45153168 1.8220278 19
-1.7041963 -0.42937014 1.8340672 19
-1.5146015 -0.34232494 1.8363699 34
-1.4356885 -0.39000642 1.8355174 32.5
-1.3016365 -0.39343777 1.8279672 30
-1.1185292 -0.37681559 1.8247961 32
-0.98631936 -0.38365418 1.8301741 32.599998
-0.80541581 -0.3689777 1.8276153 34.777779
-0.66406214 -0.35839307 1.828454 32.5
-0.53725946 -0.38283703 1.8309708 33
-0.43466896 -0.41374183 1.8314502 33
7.228251 -0.3928614 1.8041559 11
-1.5450276 -0.2451904 1.8295809 25.333334
-1.4124076 -0.245996 1.8277533 33.75
-1.2448531 -0.23684959 1.8204083 35.333332
-1.1203525 -0.22220993 1.8246082 33
-0.95412374 -0.22306465 1.8258057 32.333332
-0.81090295 -0.23560357 1.8242967 33
-0.67956626 -0.21024196 1.826532 32.285713
-0.53318965 -0.23466063 1.8282386 32.166668
-0.44584405 -0.29809812 1.8288103 34
6.2206559 -0.18524961 1.8625735 3
6.873807 -0.15211515 1.8092853 20
-1.563096 -0.089812636 1.8360109 38.666668
-1.4256139 -0.10532983 1.8269321 35.75
-1.2959723 -0.055685323 1.8242235 34.333332
-1.134496 -0.095722027 1.824138 34.5
-0.98279274 -0.074679367 1.8244983 35.142857
-0.82596433 -0.067494541 1.8213532 32.636364
-0.67862791 -0.073436558 1.8257613 33
-0.49860573 -0.085650295 1.8242303 32
-1.5714697 0.066222571 1.8359181 58
-1.4132533 0.068367995 1.8282089 35.833332
-1.2231021 0.069165818 1.8194829 36.5
-1.1112845 0.066103078 1.8260721 35.599998
-0.98309106 0.080421083 1.8210306 34.833332
-0.83033794 0.088785805 1.8167044 32.666668
-0.68289256 0.08131744 1.8238111 33.888889
-0.51231676 0.077228978 1.820683 33.5
6.1938043 0.077343784 1.8256794 19
-1.7974236 0.18820404 1.8322226 19
-1.5734833 0.22338159 1.8338157 86
-1.4243524 0.21916056 1.8326828 82
-1.2189455 0.23410974 1.8194232 38.666668
-1.1044689 0.2191852 1.8237194 34.400002
-0.97940385 0.23888259 1.8217926 34
-0.82040775 0.21789975 1.8204465 33.625
-0.66984034 0.22509429 1.8212119 32.666668
-0.51317304 0.24212813 1.8163686 46.75
6.9210939 0.15056576 1.80676 21
-1.7983426 0.34653941 1.8146755 58
-1.5266453 0.41685972 1.82649 45
-1.4249165 0.36115959 1.8338921 88.400002
-1.2186871 0.41317433 1.8200622 79
-1.1036351 0.36179638 1.8220184 42
-0.97298837 0.37385812 1.8197101 33.25
-0.82854861 0.37938106 1.8157854 32.900002
-0.67981887 0.37100852 1.814631 30.888889
-0.5050813 0.39440873 1.8161787 79
6.2206025 0.34252957 1.8177434 21
-1.5907027 0.50439948 1.8090888 50
-1.4302239 0.54000819 1.8250185 79
-1.2352494 0.54961228 1.8547317 29
-1.1135238 0.51799035 1.8168426 74
-0.97390109 0.52143377 1.8163437 59.666668
-0.79308408 0.53484386 1.8127718 35.42857
-0.65868884 0.51511264 1.8091531 63.5
-0.52638525 0.53627199 1.8104446 79.199997
-1.4153984 0.62328607 1.8077656 47
-1.3286748 0.6829561 1.8159555 50
-1.1459951 0.69442379 1.825882 98.75
-0.96898192 0.65331548 1.8165528 73.833336
-0.81174421 0.67517054 1.8063562 80.800003
-0.68281823 0.67040402 1.806765 72.5
-0.50384271 0.66106987 1.8067999 77.400002
-0.43429774 0.72312468 1.8027583 80
6.2280793 0.60968459 1.8147448 21
-1.0782273 0.82475448 1.8210083 91
-0.97084439 0.81255829 1.8165576 82.800003
-0.82673734 0.82573456 1.8059877 75.833336
-0.67279553 0.8185612 1.8078334 77.599998
-0.54749709 0.83336872 1.813309 58.285713
-0.42055374 0.81335044 1.8071111 77
6.1778069 0.87386405 1.8043619 21
-0.94378501 0.90706813 1.8301104 100
-0.82108212 0.96882617 1.8125305 85
-0.67284143 0.99134749 1.8106451 84.714287
-0.52960008 0.98440462 1.8092804 78.285713
-0.3721402 0.9575389 1.8083755 56
-0.65024722 1.1062865 1.8127556 89.5
-0.54528517 1.1301358 1.812614 86.5
-0.38662395 1.1453483 1.8117927 79
-0.29753914 1.10374 1.8204263 85
6.1285868 1.1384938 1.8051294 29
-0.52482361 1.2286831 1.8085104 75
-0.37582734 1.2811496 1.8108877 76.833336
-0.23818478 1.2640663 1.8107632 71
-0.2072475 1.4076409 1.8051355 81
-0.13444614 1.4081714 1.8153588 72
-0.065948114 1.509936 1.8079439 74
6.0623932 4.8326139 1.8239635 27
7.2224278 5.8505778 1.8031594 25
