# .PCD v0.7 - Point Cloud Data file format
VERSION 0.7
FIELDS x y z intensity
SIZE 4 4 4 4
TYPE F F F F
COUNT 1 1 1 1
WIDTH 1057
HEIGHT 1
VIEWPOINT 0 0 0 1 0 0 0
POINTS 1057
DATA ascii
-0.60505962 -1.2142267 -0.17505568 13.5
-0.51496232 -1.2601873 -0.17856647 11.142858
-0.43851948 -1.227862 -0.17984737 8
-0.64609963 -1.1748732 -0.17039587 13.333333
-0.33631739 -1.1067016 -0.17125393 8
-0.30004504 -1.0316086 -0.17121303 10
-0.22900271 -0.95036733 -0.18016262 10.8
-0.1617022 -0.86668432 -0.17645334 10.5
-0.1440039 -0.84255677 -0.17834541 5
-0.615619 -0.65143245 -0.15599944 10
-0.58440304 -0.66835785 -0.16398875 8.5
-0.047000647 -0.72007924 -0.1736511 10.571428
0.036029439 -0.61250347 -0.16015248 11
0.087803617 -0.5516144 -0.17348319 11
0.15173811 -0.46778631 -0.1753795 10
0.22048208 -0.3825236 -0.1720165 10.875
0.28587216 -0.29582402 -0.16251215 10.5
0.34242937 -0.22624066 -0.17258726 10.631579
0.43200374 -0.10790765 -0.17797948 10.666667
0.4798978 -0.04764038 -0.17852093 10.181818
0.55350316 0.048210997 -0.1738046 10.916667
0.60738099 0.11582921 -0.17472157 11
0.68406963 0.20316403 -0.1709401 8.333333
0.75104541 0.29258755 -0.16102518 8
0.67421758 0.38621399 -0.17262214 11.125
0.76521063 0.32488373 -0.17138892 12
0.54709828 0.49267218 -0.17616197 13.25
0.6336785 0.7051084 -0.18460077 5
0.72272462 0.81867802 -0.17739521 6
0.83317649 0.96066236 -0.15803975 3
-0.76980907 1.1619099 -0.19044429 1.6666666
-0.66633469 1.0851451 -0.18131196 0
-0.068033636 1.0993177 -0.18395929 5.5714288
0.064297691 1.0919414 -0.1802015 6
-0.24033339 1.2717333 -0.19172139 4.4000001
-0.35751048 1.8376942 -0.18598403 22
1.405395 1.8806727 -0.15106902 39
1.3861846 2.1459227 -0.18766318 151
1.4529271 2.465596 -0.1795397 135.66667
-0.94294798 3.5434659 -0.18383197 34
-0.61265838 -1.2095298 -0.075428039 11.25
-0.53703952 -1.2649171 -0.075382024 11
-0.43500778 -1.2276466 -0.079943404 8.75
-0.67847157 -1.155741 -0.058665995 12.266666
-0.36439598 -1.1390444 -0.075435914 8.166667
-0.29060385 -1.0561551 -0.043909308 8.333333
-0.86601526 -1.015336 -0.0010081875 14
-0.23630206 -0.96040523 -0.097060069 10.5
-0.17069729 -0.8771897 -0.064127475 6.25
-0.099946298 -0.78958249 -0.096338302 8.083333
-0.63527036 -0.66421014 -0.058554012 8.1764708
-0.59252346 -0.66511577 -0.074023902 7.5
-0.034946755 -0.70601869 -0.051472262 11.222222
0.025779042 -0.63066989 -0.097176574 11.6
0.10721771 -0.52695298 -0.062615588 10.555555
0.16431876 -0.45817101 -0.057257213 10.454545
0.22172908 -0.3819797 -0.088601574 10.314815
0.29333189 -0.28442839 -0.11688266 11.25
0.34917784 -0.21729152 -0.13234092 10
0.43000266 -0.11412928 -0.14531164 8.5
0.49031374 -0.035020497 -0.13748609 9.7142859
0.56218636 0.06252861 -0.12672146 8.75
0.62242293 0.13693725 -0.12306584 8
0.7034114 0.22599685 -0.10291426 8
0.75202101 0.28606969 -0.093082137 8
0.59665024 0.43760216 -0.05280783 11.5
0.66719383 0.39390475 -0.085563153 12.375
0.76527762 0.32616901 -0.085891098 10.5
0.54267645 0.50442654 -0.073534131 10.457143
0.61675489 0.45505738 -0.10022417 13
0.56867164 0.6155194 -0.018175131 5
0.6398921 0.71124196 -0.081953026 4.8000002
0.6973995 0.78656054 -0.03116641 4
0.81530255 0.93812031 -0.06262029 3.3333333
-0.92060715 1.1926275 -0.013662304 0
-0.80406225 1.137414 -0.095027514 0
-0.68450677 1.1111544 -0.075747907 0
-0.18207982 1.1937281 -0.14625965 5
-0.088947795 1.1039124 -0.10723968 5.090909
0.076005407 1.0723727 -0.080618098 4.6999998
0.20814846 1.1408963 -0.10176723 5.75
0.95056957 1.1265721 -0.12122035 39.5
-0.97210044 1.218146 -0.043142125 2.8333333
-0.18829471 1.201624 -0.11817662 4
0.29765815 1.2443155 -0.14849465 4
-0.31385276 1.4853795 -0.10732055 21
-0.26647413 1.4897614 -0.10033252 9
-0.54278046 1.5326588 -0.093547262 1
-0.38775387 1.5226058 -0.11102337 25.666666
-0.65296274 1.7614737 -0.1012164 9.333333
-0.46453458 1.7599417 -0.12647972 6
-0.36584464 1.7046372 -0.12011359 9
0.59970838 1.7615911 -0.077375419 18
0.67840749 1.7800007 -0.11056285 12.666667
-0.64603692 1.9291171 -0.11193762 8
-0.56276095 1.8102591 -0.097289182 6
-0.36223164 1.8249943 -0.14383507 13
1.6376956 1.8485653 -0.031246025 87
1.423113 2.1584496 -0.1225938 154
1.576876 2.3074563 -0.041369293 81
-0.47860175 2.5486999 -0.10177941 3
1.4228382 2.5047927 -0.08749409 78.75
1.2988075 2.6114628 -0.066058539 72
-0.94198358 2.834271 -0.061708115 22.5
-0.88056666 2.8432338 -0.12226117 26
-0.9232462 3.5607886 -0.10929462 3
-0.70401055 3.4910929 -0.14513716 33
-0.74285543 3.7692103 -0.060036156 29
-0.61452669 -1.2088295 0.067095764 11
-0.5374192 -1.262325 0.053568803 10.9
-0.42922682 -1.2178164 0.10639213 6.5999999
-0.69418013 -1.1446347 0.077164009 11.526316
-0.35866004 -1.1334319 0.060639329 8.2222223
-0.28731027 -1.0514301 0.12192117 8
-0.94945699 -0.94644487 0.10340641 12.4
-0.88166034 -0.99249589 0.09495233 13
-0.23575941 -0.97876608 0.075092979 6.090909
-1.1049023 -0.82154137 0.13678408 15
-1.0405509 -0.86883134 0.09975227 14
-0.16786678 -0.87660307 0.095616966 6.3333335
-0.10602842 -0.80241323 0.075662307 10.947369
-0.62003535 -0.65647972 0.081919298 7.7777777
-0.019900475 -0.69147408 0.092006102 10
0.029908165 -0.62663585 0.06457784 10
0.089752391 -0.54905826 0.05932666 10.142858
0.16215828 -0.46757287 0.0061761392 10.5
-0.97732383 0.050100375 0.1024085 0
0.75870353 0.29999587 0.0042575253 6
0.58969229 0.43800741 0.012179652 11
0.69010705 0.37870768 0.011178076 10.166667
0.52555609 0.52379966 0.029660737 6.5833335
0.57188898 0.61967486 0.072132736 4.3333335
0.63182276 0.69788545 0.060881663 4
0.69135594 0.77674121 0.064201504 3.3333333
0.77458304 0.88590431 0.1318934 2
-0.60194361 1.0423689 0.075664185 0
-0.59806645 1.0476456 0.077239022 0
0.83168638 0.95428514 0.082901254 6
-0.96099609 1.1694989 0.094981559 2.090909
-0.81942463 1.1413964 0.072108664 1.3333334
-0.67854249 1.0903709 0.085541584 0.1
0.90997148 1.0598106 0.1096393 34
-1.0146167 1.2182906 0.042595144 6
-0.37658155 1.7683344 0.012581582 55
1.4096594 1.7615767 0.040475659 36
-0.46200523 1.8500762 0.024197483 10
-0.36636904 1.8566927 0.050788257 39.666668
1.4057021 1.8608239 0.046389095 12.5
1.3422278 1.971209 0.12280916 29
1.3588591 1.9686068 0.11913306 12.5
2.1092269 2.3035731 0.13578403 150
1.653003 2.6785119 0.082821511 34
-0.98214054 2.8748055 0.11882105 25
-0.6048857 -1.2115819 0.2348876 11.5
-0.53766853 -1.258111 0.21235947 9.6428576
-0.7665239 -1.0950936 0.15173656 10
-0.67493165 -1.1593276 0.25498092 10.727273
-0.34569526 -1.1153063 0.22753377 6.3000002
-0.94330406 -0.94678056 0.22364148 11.875
-0.8503269 -0.96762878 0.19558291 11.2
-0.72979873 -0.96777177 0.2818746 11
-0.20784383 -0.94852483 0.24151549 7.6999998
-1.1171491 -0.81328088 0.23689267 11.529411
-1.0265709 -0.88182503 0.1968939 12.285714
-0.76608986 -0.83860433 0.26921451 10
-0.16960973 -0.87472737 0.17832161 10.25
-0.089129798 -0.78539973 0.23615484 8.416667
-1.2447628 -0.71040505 0.26607242 12.333333
-0.62852579 -0.65957147 0.25135294 3.1666667
-0.59438276 -0.67150915 0.29167897 6
-0.029874844 -0.70926231 0.21377984 8.375
0.023719022 -0.63672799 0.19301559 8.2142859
-1.2462543 -0.21536043 0.25577781 0
-1.2399219 -0.10827398 0.26417485 0
-1.1986089 -0.14458324 0.21405756 0
-0.98647499 0.060155597 0.17812516 0
0.64508462 0.71474242 0.15861762 3.5
0.70207268 0.78959227 0.20725581 2.5
0.77929449 0.88515759 0.23557873 6.25
0.85502005 0.98587036 0.26177382 23
-0.83302754 1.1228614 0.23465018 0.60000002
-0.6892603 1.1327016 0.25540811 0.33333334
0.94645274 1.1134346 0.26099303 12.5
-1.4294927 1.7761016 0.16139144 2
-1.4240907 1.8128856 0.17688847 2
-1.6131328 2.15116 0.29244995 7
2.1277022 2.300982 0.2442922 117
2.1496186 2.6000271 0.27958226 8
-0.94695282 2.8865335 0.16666079 23
-0.98457742 3.330348 0.23991007 49
-0.96294546 3.4975812 0.25808591 27
-0.50304562 -1.2649996 0.41726184 9.1999998
-0.4331347 -1.2252736 0.36751789 5.4000001
-0.75981885 -1.0922682 0.34712446 9
-0.70805061 -1.1280825 0.32424831 11.428572
-0.33107656 -1.0974432 0.39820552 6.25
-0.95634592 -0.9338814 0.35761255 8.2857141
-0.87185168 -0.99343234 0.39560094 12
-0.25305086 -1.0061326 0.35919279 6.8000002
-1.1100304 -0.81272727 0.33667055 6.8571429
-1.0258557 -0.87783021 0.32914609 9.3999996
-0.15887488 -0.88802046 0.4097496 7.75
-0.10072735 -0.81418478 0.37529835 7.0588236
-1.2803857 -0.66843039 0.34695372 2.8
-0.65215582 -0.653781 0.37878779 5.8333335
-0.51405954 -0.69013262 0.4387444 6
-0.030858865 -0.72606397 0.35278305 7.4166665
0.0016497492 -0.67930299 0.30264646 8
-1.5425786 -0.47447541 0.40874138 15.333333
-1.4390888 -0.55812383 0.42938063 6
-1.2380544 -0.38195065 0.40777072 6.4285712
-1.1966314 -0.38041419 0.42378974 6
-1.2467672 -0.20109186 0.38151765 0
-1.2530683 -0.083781913 0.38830802 0
-1.1829655 0.03774045 0.37499416 0
-1.8292423 0.29787225 0.44929367 9
-1.8310363 0.37918207 0.43142942 17
-1.7939361 0.4159326 0.42142045 38
0.88579494 1.0199567 0.38420796 11.5
0.90397626 1.0454618 0.40786761 19
-0.9226411 1.1350673 0.32183939 1
-0.80610484 1.1093394 0.30502346 1.6666666
-0.73010039 1.0641065 0.31675947 0
0.97069067 1.1468779 0.38183019 6.3333335
-2.072643 2.0794301 0.42144376 43
-2.0113068 2.1499426 0.40369916 44
-1.9353863 2.2483115 0.41788131 36
-1.913949 2.2713919 0.39032036 40.5
2.1341708 2.2843649 0.33710539 88
-1.8091931 2.4226136 0.40211356 3
2.0654781 2.4663627 0.38957235 25
1.6250068 2.6958485 0.39187241 11
1.7104645 2.6696537 0.37899917 20.5
-1.0406997 3.4145813 0.38245714 30
-0.85867888 3.6483526 0.37034521 33
-0.67036796 3.9143276 0.351033 16.5
-0.54104137 -1.2606061 0.48092514 6.75
-0.63043791 -1.1788759 0.50284499 9.8000002
-0.59246564 -1.1974705 0.49876624 26
-0.34967306 -1.1285049 0.52790242 9.8571424
-0.29704565 -1.0641038 0.51453942 7
-0.85908818 -0.97606128 0.57404327 0
-0.48796397 -0.98337543 0.57034308 5.4000001
-0.44580773 -0.99003232 0.52013409 5
-0.19948752 -0.93726063 0.52194709 7.0999999
-1.0897218 -0.82383412 0.56384122 6.4285712
-0.96597427 -0.89079487 0.58447599 7
-0.82432175 -0.86256367 0.56585658 2
-0.60823059 -0.83811051 0.53562111 5
-0.53799295 -0.8025763 0.50902718 4.25
-0.41502845 -0.7672385 0.56467992 4
-0.10080853 -0.81417829 0.51014954 6.4545455
-1.3672137 -0.6141544 0.51248699 8
-1.2806442 -0.67714775 0.50488079 7.1999998
-1.0946184 -0.69737208 0.54449642 6.4000001
-1.003702 -0.61697668 0.59807104 4
-0.76757675 -0.74010676 0.50131506 6
-0.63198948 -0.66255355 0.51430655 3.2
-0.5460096 -0.71914238 0.45836407 3
-0.37407002 -0.73617667 0.54279816 4.8000002
-1.5279105 -0.48308644 0.52058196 17.200001
-1.4309891 -0.56294429 0.50551349 9.5
-0.92106175 -0.48922434 0.59935695 5
-0.51089525 -0.5397709 0.5380187 3.6666667
-1.6073585 -0.41208586 0.52809012 56.111111
-1.3516884 -0.33550841 0.45615441 4
-1.3184632 -0.31738701 0.47963905 5.3333335
-1.1771361 -0.33520567 0.50197661 6
-1.0075992 -0.41790053 0.59736317 6
-0.72522891 -0.42309055 0.59137493 4
-1.2735952 -0.22472723 0.51379687 0.66666669
-1.1713332 -0.29711768 0.58795637 8
-1.2603891 -0.050204877 0.51227033 1
-1.2823809 0.030752715 0.52822596 6.5
-1.8634305 0.48595485 0.51369667 150.5
-1.9831055 0.65018511 0.53931117 49.5
0.97138602 1.1473993 0.47874928 4
-2.2845697 1.7892723 0.57685834 50
-2.2583187 1.8033104 0.57994181 54
-2.1887658 1.9321114 0.49925536 45
-2.1492894 1.9675004 0.55234635 45
-2.0201857 2.1343067 0.5452804 44
-1.8820033 2.3064373 0.52037627 21.636364
2.1234045 2.3021674 0.52496111 79.5
1.7934134 2.6990831 0.5415799 5
-1.0345839 3.4180932 0.51196891 33
-0.83408451 3.6720009 0.52349836 27
-0.73299056 3.8134804 0.56785566 26
-0.66101474 3.9024839 0.58633828 23
-0.46578029 -1.2735004 0.73184431 19.5
-0.4214648 -1.2280227 0.69841838 13.666667
-0.75744557 -1.08903 0.63124514 1
-0.70700741 -1.1344635 0.65879357 3
-0.50710851 -1.0958079 0.68943977 6.6666665
-0.36334288 -1.1518581 0.65625238 15.5
-0.83241332 -0.9658215 0.6354664 4.25
-0.62948412 -0.91414273 0.6805408 5
-0.52023703 -0.98399973 0.65777671 19.5
-0.35845697 -0.93229771 0.70900422 6.5
-0.23253989 -0.98554242 0.66410822 6.7777777
-1.1255804 -0.79188257 0.63049072 9
-0.95236063 -0.81301266 0.69446754 6.8333335
-0.88000363 -0.84054738 0.65092194 6.5999999
-0.64772564 -0.84049821 0.70829171 28.166666
-0.47643891 -0.76321733 0.69558966 6
-0.39806923 -0.76859689 0.68433601 3.6666667
-0.20323959 -0.82111627 0.73235136 4.5
-0.12976503 -0.85133642 0.65100646 6.5
-1.3670913 -0.61130261 0.65555906 26
-1.2509248 -0.69880033 0.6702497 25
-1.1204731 -0.68146467 0.61996704 6
-0.94735241 -0.68909061 0.6547935 5.3333335
-0.79295135 -0.67860126 0.73046851 15.75
-0.69474477 -0.67526805 0.67968291 5.4000001
-0.49977413 -0.71174914 0.70213163 4.25
-0.38476068 -0.72396529 0.64018285 4
-1.432259 -0.54714745 0.65219563 7.8000002
-0.95058566 -0.55073649 0.64528096 5.2857141
-0.79912716 -0.50872642 0.68994033 5.5454545
-0.63641787 -0.49078694 0.69966763 6
-0.55861074 -0.52766293 0.65876198 4.7142859
-0.44787809 -0.59889305 0.62540352 1
-1.5675803 -0.41948697 0.60879827 92
-1.1453209 -0.31798252 0.60429502 4
-0.96617621 -0.42917457 0.64227015 5.6666665
-0.79772329 -0.41506395 0.68685967 3.3333333
-0.62171936 -0.37749621 0.68768048 3.3333333
-0.53191197 -0.44892859 0.63913 1.5
-1.2666874 -0.1842403 0.65429515 5.1666665
-1.1388232 -0.24719043 0.69728345 5
-1.2776998 -0.10868774 0.65775979 9.1999998
-1.9010038 0.037504826 0.70605052 1
-2.1102321 0.41681215 0.65769148 5
-2.0070536 0.42716762 0.68993694 33.714287
-1.9474976 0.43218043 0.72943801 37
-1.9909167 0.49500993 0.66199559 42.333332
-2.4915581 1.4673634 0.71392769 0
-2.4615872 1.5700439 0.69165164 88.5
-2.379096 1.669709 0.70434076 51.599998
-2.2639775 1.8263983 0.689816 46
-2.2299955 1.8572298 0.70410436 47.75
-2.1326911 1.9940821 0.6770013 46.166668
-2.0894923 2.0389857 0.69432986 47.25
-1.9901688 2.1689265 0.64247364 44
-1.9013104 2.2994742 0.64435697 24
2.0896459 2.3363018 0.65485346 40.5
2.1380622 2.2869558 0.67250705 72.333336
2.0420961 2.410517 0.65699625 23.5
1.6328408 2.6917729 0.67963576 8
-1.0319959 3.4280384 0.60031354 31
-0.95169014 3.5102053 0.66461968 28.5
0.59590077 3.4886682 0.63359642 1
-0.82554579 3.6684227 0.68296486 25
-0.61597556 3.9671717 0.72947228 8
-0.38273838 4.1771865 0.72089541 53
-0.55472791 -1.2318913 0.75083113 38
-0.42428786 -1.2346083 0.80788004 39
-0.54960638 -1.1839576 0.77811503 9
-0.3094607 -1.0865133 0.79904944 19.5
-0.28931436 -1.0609931 0.76218212 7
-0.67329401 -1.0244216 0.88254428 6
-0.30978957 -1.0282724 0.82593596 75
-0.20723946 -0.95301104 0.80542022 17
-1.1742402 -0.75433904 0.8984791 10
-0.96630079 -0.88060153 0.79520327 8
-0.84728026 -0.81253308 0.82737303 6
-0.69144505 -0.83525968 0.80600095 4
-0.35336989 -0.77877629 0.87008274 25.799999
-0.28274921 -0.81754494 0.76465201 2.25
-1.3538698 -0.61442262 0.86069691 47
-1.3048127 -0.65369767 0.78257382 34
-1.0064425 -0.68830484 0.79847896 4
-0.79158294 -0.63781029 0.78115773 4.75
-0.68748486 -0.64647532 0.79406631 5.25
-0.54085177 -0.70062208 0.79932165 2.5
-0.36431298 -0.6955626 0.83728647 1.125
-0.27968875 -0.74045718 0.77311939 2
-1.5024478 -0.51303321 0.86976242 8
-1.410271 -0.57338023 0.83043963 37.5
-0.83582515 -0.47195941 0.76622784 4
-0.62676883 -0.50075644 0.82245928 4.5
-0.52342355 -0.51208735 0.86335903 11.625
-0.79991567 -0.42506307 0.78008294 0
-0.64224213 -0.3851653 0.8230238 1.6666666
-0.52705896 -0.38961881 0.84070605 3.2857144
-1.1428809 -0.20270564 0.78513187 2.8333333
-1.215728 -0.11755184 0.75034499 4
-1.1536151 -0.1136286 0.78703326 1.5
-1.9181991 0.06074613 0.79594159 1
-1.9994602 0.54673874 0.81657684 5
-1.9252001 0.48191571 0.80977982 20
-2.4709783 1.481425 0.80156898 0
-2.4682307 1.5529517 0.84121102 53.5
-2.3988593 1.646289 0.83387756 86
-2.3331516 1.7238034 0.83154148 49.714287
-2.2727864 1.8207617 0.80183947 50
-2.2064011 1.8858818 0.80674052 45.833332
-2.1295271 1.9931576 0.8063032 44.5
-2.078002 2.0500693 0.76325262 45
-1.9790096 2.1808372 0.84330702 41.75
-1.8681138 2.3310602 0.82902229 12.2
2.1717143 2.2613733 0.84984088 61
-1.7723604 2.4747775 0.80344009 3.6666667
2.0631614 2.4512868 0.81086761 16
1.7198811 2.6544952 0.89193451 11.5
-1.0231318 3.4095459 0.82735616 30
0.68007976 3.4188223 0.76726437 20
-0.98045665 3.4601021 0.76965559 30
0.62256342 3.480859 0.76377726 23
0.76517469 3.4707863 0.81218076 4
-0.82843918 3.6858521 0.80932438 29
-0.61521965 3.959552 0.82666838 7
-0.39367592 4.1682124 0.81239641 55
-0.35093108 -1.1346036 0.91947728 30.333334
-0.19608988 -0.94244176 0.97418928 16
-0.44409329 -0.82658505 0.90418017 1
-0.16576022 -0.89666671 1.0067707 33
-0.13240848 -0.85027158 0.97481227 38
-1.3529599 -0.61435133 0.99907947 41
-1.2582383 -0.69038081 0.98027724 34
-1.1988087 -0.6046384 0.90639973 9
-0.81221479 -0.65244949 0.91392606 5.5
-0.51266885 -0.68370581 0.98506594 3.6666667
-0.41241044 -0.66283411 0.96065146 3.4285715
-1.5068698 -0.5136981 0.96986783 10
-1.4771601 -0.52789658 0.9377932 30.333334
-0.69484079 -0.46326968 0.99124056 5.5
-0.51074475 -0.51499695 0.9400152 5.75
-0.41583192 -0.52994901 0.970806 0.5
-1.6914322 -0.35017616 0.97107875 42.5
-1.6070065 -0.41641849 0.95653188 45
-0.66126508 -0.44588041 1.0042437 5
-0.5243789 -0.41877076 0.90610504 3
-2.4484007 1.5773528 0.96654725 52.222221
-2.3389595 1.7221845 0.94178945 49
-2.2154357 1.8754848 0.99155897 44.333332
-2.1175539 2.0040247 1.0008831 41.666668
-2.0861351 2.0319021 0.97363895 42.666668
-1.9999084 2.1532998 0.95724434 39.5
-1.8660831 2.3201108 0.98069137 2
2.07075 2.3503125 0.93829179 32.333332
2.1267695 2.2968683 1.0064058 67.5
-1.728345 2.5417159 1.0487901 4
1.6386974 2.6877613 0.93956828 13.5
1.6870182 2.6644738 0.94723713 23
-1.0053753 3.4523611 0.98502171 31
0.63613307 3.4602466 0.94773793 24
-0.81895912 3.6969824 0.95315367 26.5
-0.6196816 3.9674697 0.96977466 6.5
-0.40271834 4.1593056 0.90508127 53
3.6501064 7.152976 0.98273164 0
-0.19959532 -0.94048667 1.1534567 20.333334
-0.15772854 -0.89579725 1.1533699 31
-1.2708029 -0.69301486 1.0675478 8
-0.48115897 -0.60114503 1.0534812 5
-1.4613223 -0.52842283 1.1473291 37.5
-1.7118372 -0.33895954 1.0803033 20.333334
-1.6101202 -0.34992751 1.1174732 8
-2.8824961 0.57599121 1.1070284 6
-2.5305986 1.4496956 1.0596801 0
-2.4411442 1.588462 1.1590991 47
-2.3246472 1.7274843 1.1367086 44
-2.2760215 1.806241 1.0998403 44
-2.2184 1.8651316 1.1237731 42.75
-2.1219869 1.9969754 1.1029176 38
-2.0970333 2.0260525 1.193489 38
-1.9800106 2.1824145 1.1115642 40
-1.8442397 2.3752594 1.1269225 5
2.0600653 2.3449349 1.1369148 17.333334
2.1198256 2.2928233 1.1463571 71.5
-1.7127368 2.5206225 1.1638198 2
2.0477586 2.4331026 1.1230755 12.5
1.6847432 2.6573236 1.1620072 19.5
-1.1598049 3.2519863 1.1549226 33
-0.98914444 3.468936 1.1244906 31.5
-0.81250679 3.7181704 1.0995742 27
-0.693708 3.8559074 1.1995778 23
-0.47759774 4.039103 1.0701149 55
-0.38092947 4.1563334 1.0936019 56
-0.28972298 4.2636943 1.1218576 9
-0.16051528 -0.89873534 1.3216499 27
-0.13767047 -0.86945713 1.2599379 25
-1.351531 -0.61380613 1.2311828 36
-1.5013744 -0.49257243 1.2538457 42
-1.4322029 -0.5501014 1.2920532 38.400002
-2.9901924 0.66448867 1.2090211 4
-2.445147 1.5736209 1.2677214 43.5
-2.3496699 1.7004958 1.2612821 46
-2.2197485 1.8761569 1.2830163 43
-2.0715976 2.0616305 1.2902298 38
-1.9709247 2.1827121 1.2662884 37.5
-1.8710378 2.3221462 1.2902502 8.666667
2.061744 2.3402419 1.3183302 15
2.1112623 2.3018107 1.2753911 65
-1.7773347 2.4522691 1.2399124 3.3333333
2.0423055 2.4312522 1.2577429 9
-1.6144189 2.6534028 1.2903696 0
1.747541 2.6478539 1.3047597 7
-1.1432595 3.2685513 1.2508121 32
0.64767444 3.4642715 1.2448947 19.5
-0.84497905 3.6541142 1.297294 26.5
-0.69907939 3.8339314 1.3101125 24.5
-0.60399276 3.9346964 1.2034732 7
-0.52093822 3.986448 1.2050067 39
-0.4403303 4.065134 1.2091125 59
-0.18435664 -0.93798536 1.4043059 18
-1.2966449 -0.65706205 1.4201258 35
-1.5278305 -0.47574708 1.4252213 38
-1.4838679 -0.50301164 1.4360032 37
-1.5783124 -0.43660972 1.4323859 38.333332
-2.1094587 -0.025988039 1.403205 32
-2.0312376 -0.088779293 1.418188 38
-2.4823542 1.5431581 1.4224008 38.5
-2.3243809 1.7408156 1.4204166 42.5
-2.1916142 1.914804 1.3803178 43
-2.1191199 1.9765749 1.4366724 34.5
-2.0533469 2.0786524 1.4571176 35
-2.0237725 2.1114693 1.4104509 35.333332
-1.9349148 2.2318521 1.3550509 35
-1.8981709 2.2937 1.4096191 2
2.1212375 2.2858505 1.3611349 59
2.0400553 2.4253299 1.4223607 8
1.6980035 2.6548619 1.4401793 13.5
-1.214601 3.1772642 1.4838791 9
-1.1496459 3.2405689 1.4634442 28
-1.0740767 3.3438125 1.4209507 28.5
-1.0408454 3.383698 1.4411918 31
-0.95381004 3.5020018 1.3825336 29
0.61390519 3.4877596 1.3935313 17.5
-0.86147267 3.6235964 1.3780109 28
-0.42050207 4.1159434 1.4204117 58
-0.214113 -0.97601986 1.5948291 13.5
-1.4148692 -0.56702638 1.5745384 37
-1.608068 -0.40424651 1.6036066 39
-2.086488 -0.044757169 1.5483326 41
-2.2832022 0.099013045 1.6201769 35
-2.2073174 0.054808818 1.581585 41
-2.3640676 0.174693 1.6382812 36
-2.4324071 1.6086665 1.5656357 41
-2.3185456 1.7354902 1.6206154 42
-2.2549148 1.8099864 1.5633223 39
-2.1956961 1.8912066 1.5354244 38.666668
-2.142416 1.964767 1.5720451 36.5
-1.9916713 2.1679173 1.588933 35
1.7082207 2.6520674 1.6057869 15.5
1.4593351 2.8091981 1.638333 17
-1.2078468 3.1688943 1.510305 7
-1.0571222 3.3771417 1.6170446 27
0.67822158 3.4380007 1.5755639 19.5
0.44714183 3.5864182 1.6213468 35
-0.86894667 3.6325948 1.5638167 23
-0.65877086 3.8971369 1.5061482 2
0.28110403 3.755775 1.6147482 9
-0.63563037 3.9304872 1.6183692 2
-0.048066992 3.9807165 1.6315948 33
-0.40184662 4.1363158 1.5763762 53.5
5.0920606 6.2841845 1.5325435 0
4.2867341 6.6037846 1.5056795 0
-1.0876877 -0.83181274 1.7832197 2
-1.3021057 -0.65102881 1.7417289 35.666668
-1.5553234 -0.46191519 1.770564 35
-1.3930044 -0.58373922 1.7145883 32.666668
-2.2924061 0.10410423 1.7152504 34
-2.1883502 0.041741602 1.74886 39
-2.4263933 1.5956635 1.7672509 36.5
-2.3898003 1.6375089 1.6954088 39
-2.2857034 1.7633475 1.6668824 39
-2.2647913 1.8135657 1.730194 39
-2.0973909 2.0249686 1.7254397 36
-1.9396162 2.2378724 1.7394098 35
1.254652 2.5260391 1.6782176 37.200001
1.0288094 2.6951525 1.7535599 75
1.1372272 2.6137528 1.7036295 52.42857
1.4460018 2.6087227 1.7374328 31
1.5889146 2.6132965 1.6871634 39
1.8356879 2.6406095 1.6756574 79
0.94928545 2.7590263 1.7928294 77
1.1106671 2.7440319 1.7004513 9
1.3048493 2.8155699 1.7006297 45
1.430986 2.7840235 1.7075573 40.799999
1.5334556 2.7150455 1.7315949 40.5
0.67726922 2.9726956 1.7136934 53.5
0.80687398 2.8836167 1.7402439 50
0.97525626 2.9846306 1.7440773 34
1.2564986 2.9161577 1.7020659 55.5
0.54441327 3.0772982 1.7291182 68
1.1118107 3.0632401 1.6656194 21.666666
-1.1918668 3.1966515 1.789173 19
0.27314287 3.299278 1.7550501 72
0.3679356 3.2665203 1.7067238 34
0.82041353 3.220459 1.755818 51
0.93048775 3.181823 1.669176 19.5
-1.0245368 3.4256766 1.7310508 26
0.49660575 3.4115744 1.7657744 52
0.62287813 3.4458568 1.6647238 48
0.053902101 3.4723191 1.7377107 60
0.26229292 3.5615814 1.758648 34
0.53105116 3.4966676 1.6954793 39
-0.8280887 3.6799304 1.7249941 19
-0.27183789 3.7327304 1.6969615 40
0.053755205 3.7327771 1.7591611 32
0.27800533 3.6874166 1.7050986 46.5
-0.35939473 3.7896779 1.7686392 68
-0.62034571 3.9586284 1.7274035 18
-0.18693304 3.9233844 1.7681438 42
-0.1212616 4.0101366 1.7225963 29
-0.38732955 4.1618133 1.7369901 72
-0.23536345 -0.90613908 1.8107811 48
-0.30994248 -0.79533112 1.8086058 56
-0.27401412 -0.85139525 1.8036133 50.5
-1.2816238 -0.65732431 1.8307799 71
-1.0923082 -0.70378232 1.816717 75.333336
-0.99592251 -0.60310167 1.8218743 85
-0.60835099 -0.65840578 1.9179105 76
-0.51846319 -0.65502971 1.9073849 54.333332
-0.350916 -0.67748755 1.8119779 66.666664
-1.5120325 -0.4673329 1.8362377 83.5
-1.3977566 -0.48595715 1.8334609 85.75
-1.3155878 -0.55900788 1.8345045 84
-1.1186388 -0.53310394 1.8220894 79.199997
-0.94873494 -0.49421516 1.8439125 62.833332
-0.80038261 -0.50634915 1.9079976 69.333336
-0.66821039 -0.52420324 1.9165131 79.272728
-0.53281373 -0.5391534 1.9142911 80.25
-0.4129681 -0.53863949 1.8873407 75.25
-1.5628155 -0.31329778 1.8360955 83.666664
-1.4211551 -0.34494096 1.8346288 91
-1.2657626 -0.40802076 1.827674 82.5
-1.1219229 -0.35774532 1.8495368 77.75
-0.99541473 -0.37902519 1.9076461 71.14286
-0.81184906 -0.36694011 1.9188949 80.666664
-0.67441833 -0.35927621 1.9168481 75.85714
-0.52364546 -0.35983431 1.9163326 75
-0.44711587 -0.44094932 1.9114615 69
-1.7124261 -0.22053319 1.8514581 45.5
-1.552394 -0.15895067 1.8350157 95.5
-1.4381626 -0.2037968 1.832813 92.5
-1.26293 -0.21763983 1.8920457 97.199997
-1.1188211 -0.24561737 1.8994966 68.5
-0.97513503 -0.22904012 1.9211441 76
-0.81276083 -0.22579537 1.9210986 78.285713
-0.67781276 -0.22013825 1.9181452 75.125
-0.49545255 -0.22929335 1.9150848 72.666664
-2.1189466 -0.0017043045 1.8415912 90
-1.998228 -0.013732334 1.836482 85
-1.8898157 -0.042730212 1.8380513 79.666664
-1.7784073 -0.13463661 1.8366116 71
-1.5610831 -0.0040425118 1.8305662 89.5
-1.443346 -0.075390115 1.8653765 44.799999
-1.2622108 -0.040005162 1.9367822 97.333336
-1.0971682 -0.084487535 1.9260145 78.400002
-0.97523421 -0.096819654 1.9232948 77.800003
-0.83008003 -0.067601062 1.9222727 75.75
-0.68294632 -0.078066736 1.9191265 71.444443
-0.51452327 -0.079870224 1.9166098 64
-2.3294466 0.14373195 1.8026127 52
-2.0117831 0.07371667 1.8328675 78
-1.8777201 0.10406572 1.835874 78.5
-1.7817585 0.020608054 1.840135 74
-1.5814508 0.077510916 1.9031763 86.666664
-1.4295212 0.068302959 1.9372759 83.5
-1.2686273 0.10102302 1.9375736 100.66666
-1.1180215 0.085064821 1.9348474 96.166664
-0.97277445 0.068697974 1.9245963 76.666664
-0.82610911 0.0805436 1.9233875 70.5
-0.6883378 0.066844173 1.9226412 56.333332
-0.52110183 0.0698044 1.924584 53.333332
-2.46085 0.2740376 1.831628 75
-2.26601 0.22885141 1.8364075 80
-2.1251035 0.19135363 1.8412477 86
-2.0110376 0.19583674 1.8351649 80.333336
-1.8966595 0.2346328 1.8318572 52
-1.7432524 0.18159544 1.886416 73
-1.5713563 0.21516642 1.9360225 83
-1.4156368 0.23216502 1.9348139 81
-1.2678293 0.24407065 1.9385811 94.333336
-1.1183208 0.24455389 1.9337177 91.75
-0.98784286 0.23008899 1.9252434 76.599998
-0.80322796 0.22370543 1.9233804 69.222221
-0.67374676 0.21610345 1.924095 56.285713
-0.5255841 0.22141275 1.9240657 56.25
-2.3077404 0.37831101 1.8326255 79
-2.1156206 0.38610229 1.830012 93
-2.004616 0.34794572 1.860886 66.666664
-1.8756785 0.39023262 1.9336282 79.5
-1.7063454 0.3605901 1.9374048 91
-1.5726557 0.37475532 1.9396021 86.199997
-1.407336 0.37338829 1.9360981 83
-1.2599808 0.38805246 1.9363985 90
-1.1143999 0.37423325 1.9385248 96.25
-0.9664529 0.38176784 1.9286875 80.400002
-0.82898015 0.37149799 1.9254922 74.222221
-0.674146 0.36986139 1.9246397 61.166668
-0.52258879 0.38071784 1.9239467 66.333336
-2.9231141 0.58141971 1.8338867 5
-2.7131784 0.57329237 1.8500901 84
-2.6180663 0.55778801 1.8502151 80
-2.4831104 0.51147306 1.8442243 65.666664
-2.3534191 0.54282826 1.8317846 76
-2.1235955 0.57662654 1.9369665 80
-2.0390978 0.51139045 1.938401 84.5
-1.8228154 0.51091218 1.9318854 86
-1.6982185 0.53668523 1.9399856 85
-1.5652319 0.52117962 1.9381396 83.75
-1.4409524 0.47866866 1.937529 77
-1.2718583 0.53882504 1.9388368 81.75
-1.1563737 0.46627456 1.9372543 96
-0.96929705 0.51520926 1.9355524 92
-0.80695415 0.53035259 1.9248308 82.166664
-0.66963303 0.52494282 1.9253629 74.699997
-0.51425284 0.52579296 1.9238504 71.75
-2.7856789 0.62690824 1.8415824 78
-2.581255 0.64996397 1.8374919 80
-2.4538858 0.70857537 1.8337251 43
-2.3343773 0.62850082 1.9290682 57
-2.2028761 0.6161145 1.9426757 83
-2.0310664 0.70323348 1.9351751 80.5
-1.8569324 0.64426732 1.9352096 88.5
-1.681699 0.71472383 1.9408654 91
-1.5919476 0.64242452 1.9393162 89
-1.4723946 0.68177819 1.9359245 83.333336
-1.2519037 0.68496937 1.9402421 86.75
-1.1127439 0.676274 1.9416578 83.5
-0.95458722 0.67748755 1.9393731 89.25
-0.82301569 0.68450123 1.9344467 97.666664
-0.69920725 0.67902946 1.9328367 87.666664
-0.54595816 0.68029851 1.9288366 83.199997
-0.43767169 0.68730181 1.9274909 83.5
-2.9464543 0.86135745 1.8230782 37.5
-2.748862 0.83432496 1.8490654 74.5
-2.5952816 0.83595133 1.840476 77
-2.4908202 0.76833415 1.8914126 84.5
-2.3303938 0.83111823 1.9390274 87
-2.1559563 0.80547273 1.9445121 77.5
-2.0353675 0.87378287 1.9380432 80
-1.8906367 0.79243493 1.9389232 84
-1.7205358 0.86903644 1.9340589 94.5
-1.5726203 0.81282735 1.9372274 89
-1.4524139 0.84140235 1.9375538 86
-1.2705173 0.86096609 1.9420755 83.5
-1.1183968 0.82635975 1.9414551 81.599998
-0.95531058 0.83481914 1.9398732 85
-0.82954055 0.81448281 1.9398667 90
-0.67175472 0.82630664 1.933953 90.199997
-0.52318019 0.82640576 1.9318749 84.666664
-0.39732814 0.83073628 1.9335865 97
-3.279937 1.0495396 1.8438593 76
-2.6179473 1.0259299 1.8534731 70
-2.4723449 0.96000856 1.8655933 62.5
-2.3174043 1.03771 1.9444786 104
-2.1385632 1.0184612 1.9445249 76
-2.0089436 0.93103147 1.9379196 85
-1.8660296 0.97480017 1.9359301 81
-1.7642889 1.0181507 1.9387637 76
-1.5479618 0.98866606 1.9379482 85.333336
-1.4206293 0.97750247 1.9386458 86.5
-1.2694861 0.97267425 1.9363288 86
-1.1402612 0.99849147 1.9408605 89
-1.0010142 0.96610349 1.9402999 80
-0.83441466 0.98234403 1.9367859 81.400002
-0.68450141 0.96326721 1.9365327 85.444443
-0.52576214 0.97591591 1.9355882 82.428574
-0.37549827 0.98579133 1.9389085 81
-3.7046864 1.1949892 1.8607904 75
-3.3033564 1.0618125 1.8513139 85
-3.0710559 1.1225593 1.8508619 83
-2.9056122 1.0627384 1.8191561 4
-2.7359178 1.072435 1.8446093 56.5
-2.5758548 1.13472 1.8426675 65
-2.4625046 1.1618559 1.8475723 75.5
-2.3160551 1.167961 1.8301278 72
-2.2046299 1.1908665 1.8395797 29
-2.0266974 1.0992392 1.9406199 75.666664
-1.8869305 1.1475939 1.9324133 76.5
-1.7306658 1.1925967 1.9352988 82
-1.5576574 1.1272105 1.9392118 90.666664
-1.432591 1.0558792 1.9304157 79
-1.2830181 1.1004921 1.9327737 80.5
-1.1029601 1.1087728 1.9408171 83.5
-1.0083814 1.1305486 1.9399233 79.333336
-0.84064966 1.1056159 1.935809 76.333336
-0.67069262 1.1289759 1.9331721 80
-0.51869768 1.1327338 1.9336653 74.800003
-0.38494605 1.1436217 1.9341215 75.75
-0.2809864 1.1242102 1.9272226 79
-4.1560178 1.3170685 1.876676 65
-3.9835155 1.2802417 1.8704927 72.5
-3.7813013 1.2876732 1.8703192 79
-3.7268853 1.2703071 1.8733337 74.5
-3.534059 1.2473696 1.8732527 78
-3.3762379 1.3131257 1.8650763 75.5
-3.2428074 1.2705646 1.8552155 75.333336
-3.1054716 1.3446783 1.8452443 82
-2.928829 1.332347 1.8407296 91
-2.7834313 1.3341678 1.855951 18
-2.6224964 1.2824934 1.8299123 2
-2.5466216 1.2226341 1.8563248 77
-2.0293372 1.2662131 1.942625 78.333336
-1.9090528 1.3437183 1.9380146 70
-1.5888177 1.2717884 1.9444364 88
-1.4513021 1.2314092 1.9361757 83.75
-1.2927377 1.2455039 1.9332064 79
-1.1337169 1.2463962 1.9357702 83.666664
-0.98203754 1.2730992 1.9369836 78.25
-0.81699258 1.2334087 1.9352787 78
-0.67820811 1.2855895 1.9348755 76
-0.5314799 1.259739 1.9337472 73.666664
-0.39561677 1.2693163 1.9336107 71.599998
-0.24591854 1.2864137 1.9325194 69.5
-4.0701189 1.4224043 1.8604923 72
-3.7896667 1.3924509 1.8583142 72
-3.5452192 1.3653389 1.856614 74
-3.0639048 1.4559525 1.8608555 83
-2.5532715 1.3850111 1.8345104 2
-2.4525058 1.4006017 1.8464828 70.5
-2.3036673 1.3987765 1.8419431 80
-2.1774645 1.3983917 1.8374907 80
-2.0353229 1.4055401 1.9102525 66.666664
-1.8025529 1.3579153 1.9356853 82
-1.6953682 1.3742291 1.9363636 82
-1.5222031 1.4236498 1.9432952 81.5
-1.4314746 1.4202892 1.9392619 78.666664
-1.2928154 1.4070606 1.9336579 76.5
-1.1199573 1.3913355 1.9393337 74.5
-0.96680743 1.4165531 1.9369055 77.333336
-0.82922649 1.3911862 1.9336861 73
-0.65385038 1.4273931 1.9334054 74
-0.5043599 1.4156768 1.9219462 61.599998
-0.37237152 1.4088444 1.9282061 69.666664
-0.2521899 1.4384581 1.9300846 70.800003
-0.10660815 1.4436668 1.9282273 67
-3.9978898 1.6106373 1.8728366 72.666664
-3.7899115 1.6001534 1.8767868 69.5
-3.742681 1.5525527 1.8671511 69
-3.5635693 1.5536988 1.8722481 70
-3.3785806 1.6161435 1.8637445 75
-3.2347102 1.5288234 1.8669951 77
-3.103518 1.6369843 1.8445536 73
-2.9258747 1.6067717 1.8437027 90
-2.7659645 1.5865841 1.8521289 10
-2.3286934 1.6316086 1.8309374 39
-2.1498573 1.6188158 1.8418611 77
-1.978146 1.5458972 1.932758 57
-1.9042661 1.578675 1.8731269 55.5
-1.7049735 1.5592328 1.9348042 76
-1.4037818 1.5774714 1.9365867 81
-1.2825009 1.5837065 1.9317011 70
-1.1370316 1.5768162 1.9369709 71
-0.95105088 1.5501243 1.9347082 78.5
-0.8342545 1.5604742 1.935998 73.5
-0.71633023 1.5232747 1.9344791 72
-0.53521156 1.5955169 1.9319041 72.199997
-0.38680723 1.565869 1.9292321 73
-0.22649077 1.5790169 1.9276887 71.14286
-0.093251504 1.6011021 1.928407 71
-4.126688 1.7164807 1.8752581 70
-3.807874 1.7328649 1.8548003 73
-3.5621555 1.6813742 1.8572944 80
-3.306356 1.6689532 1.8502153 78
-3.0955324 1.7574875 1.8724884 7
-1.991516 1.6703328 1.8484937 76
-1.8511096 1.7388836 1.8681394 59
-1.710035 1.7694229 1.9364175 84
-1.6037161 1.7588053 1.9399613 81
-1.4202229 1.7081523 1.9418119 76.333336
-1.2849375 1.7791033 1.9352144 68
-1.1189035 1.7504095 1.9315504 64
-0.99059922 1.7154574 1.937078 68
-0.83685982 1.732547 1.9373394 65.5
-0.68545073 1.6835279 1.9327779 67
-0.4792093 1.7428035 1.9363843 67
-0.36933401 1.7281475 1.932808 66.5
-0.21096957 1.7302234 1.9271694 74
-0.075204335 1.7383524 1.929791 66
0.058267534 1.7446967 1.9274487 67.5
-4.0530367 1.9135381 1.8615357 77
-3.7778721 1.9038574 1.8712362 73.666664
-3.5984833 1.884128 1.8731028 70
-3.384835 1.9407871 1.8661547 36.5
-3.2457099 1.8435395 1.8697244 39.5
-2.162581 1.8492892 1.8250717 38
-1.8786423 1.9002236 1.8543822 59.5
-1.6889126 1.9199945 1.8302423 65
-1.4133129 1.8724666 1.9395548 68
-1.3245016 1.8903383 1.9419075 72
-0.99788678 1.9136996 1.9317511 57.5
-0.81387204 1.889191 1.9378253 66.666664
-0.69391483 1.8969244 1.9341592 60.333332
-0.55978143 1.8136787 1.9353155 63
-0.36830133 1.8770025 1.9324503 70.25
-0.25682759 1.9167209 1.9335463 66
-0.088423498 1.8680004 1.9289526 68.166664
0.06967289 1.8874382 1.9242364 62.857143
0.24372078 1.9052581 1.9205645 66
-4.7652569 2.0941436 1.8682014 65
-4.376164 1.9980464 1.8659087 70
-4.2088394 2.0779588 1.8852922 69
-4.1009102 2.0255427 1.8845526 73.5
-3.9776127 2.0097864 1.8824404 71
-3.8638678 1.9649014 1.8784086 73
-3.5730917 2.0143592 1.8523992 80
-2.0463889 2.0626962 1.8122617 8
-1.8548034 2.0314796 1.8515643 68.5
-1.5956452 1.97192 1.9351904 54
-1.2910192 2.0191813 1.9417535 69
-1.13274 1.9592731 1.9277581 59
-0.82416689 2.0608857 1.9364508 65.5
-0.65786833 2.0539002 1.9346848 64
-0.50115579 1.9906675 1.9335995 55.5
-0.30003455 2.0447192 1.9317292 61
-0.23381035 2.0167248 1.9310442 63
-0.027496297 2.0516756 1.9286591 59
0.11037752 2.0145922 1.9280412 61.75
0.22354878 2.0344901 1.9234891 62.75
0.36032271 2.0319083 1.9221762 65
-4.7761822 2.2152982 1.893963 62.5
-4.4054499 2.1137443 1.8891717 66.5
-4.1579237 2.2023256 1.8672541 70
-3.8259282 2.1545172 1.8605367 39.5
-1.8824115 2.1710975 1.8503939 73
-1.7745692 2.1931419 1.844545 72
-1.5731845 2.1361527 1.8328853 59
-1.4772801 2.1756237 1.9385206 64
-1.2514271 2.1633437 1.9450268 64.5
-1.1655357 2.2193894 1.9383684 62
-1.0019177 2.1454921 1.9368469 56.5
-0.66123158 2.1640327 1.9418856 64
-0.59969491 2.2255821 1.9384133 63
-0.3920303 2.150104 1.9333794 60
-0.18009016 2.1573167 1.9329909 61.5
-0.096970364 2.1632888 1.9308085 67
0.11329265 2.1456635 1.9305742 64
0.24944036 2.158972 1.9256883 65.833336
0.38269728 2.1766043 1.9226402 63.5
0.50683451 2.1972005 1.9228896 60.5
-4.0992131 2.3053513 1.8613638 76
-3.9173648 2.3517385 1.8866681 69
-1.7706776 2.3755949 1.8297901 16
-1.4019432 2.3258419 1.8401709 44
-1.2456003 2.3203957 1.9453543 69
-1.1724312 2.3441787 1.943143 60
-0.93814284 2.3725567 1.9312326 50
-0.82065552 2.2873201 1.9363499 56.5
-0.52982646 2.3053405 1.9423995 56.333332
-0.26972514 2.3188252 1.9382308 55
-0.038563486 2.3270345 1.9328502 63
0.052161206 2.3065217 1.9310461 64.666664
0.24890901 2.3185258 1.9280874 59
0.39218345 2.2935073 1.9251316 63.400002
0.53095073 2.3452692 1.9197676 60.200001
0.65469944 2.3182693 1.9172485 56.5
-4.4344859 2.4785905 1.8783109 68.5
-4.2388606 2.5024316 1.888925 5
-4.1673422 2.4454741 1.8812217 37
-4.0021553 2.4060943 1.8806845 63
-1.7165233 2.4909124 1.8220378 5
-1.5958115 2.4351029 1.8320149 66
-1.2646935 2.5157926 1.8314008 55
-1.1304278 2.4641676 1.9449551 59.5
-1.0282345 2.4317563 1.93217 56
-0.71245444 2.4808736 1.9331596 57.5
-0.51596606 2.4251788 1.9403462 55
-0.40086365 2.4989479 1.9379854 52.666668
-0.1516563 2.5241754 1.9325064 50
-0.11512776 2.4414783 1.9345468 56
0.10354064 2.479743 1.9310908 59.666668
0.20227857 2.464941 1.9282399 59.666668
0.4081631 2.498579 1.9267046 63
0.56129581 2.4444778 1.9237419 58.666668
0.68575704 2.4790471 1.9025009 57.799999
0.81406111 2.4765887 1.8628592 46.111111
0.95587015 2.492568 1.8170404 52.75
-4.8339581 2.647083 1.8877362 62.333332
-4.4611006 2.5599482 1.8898851 65
-2.0128856 2.6572604 1.8283805 13
-1.6766694 2.615957 1.8076752 22
-1.4039209 2.6348646 1.8344682 60.5
-1.1081378 2.5766788 1.9455632 69.5
-1.04562 2.6991477 1.9481536 78
-0.85888988 2.6269553 1.9302733 55
-0.55964553 2.6423728 1.9316665 54
-0.38096762 2.6246095 1.9377381 57
-0.19766259 2.6179838 1.9358221 53
0.018797737 2.6494341 1.9278291 56.5
0.23202032 2.6269433 1.9273094 64.5
0.33853126 2.6604674 1.9238166 66.666664
0.54695708 2.6459727 1.8946228 35
0.70614707 2.5703452 1.8699718 56
0.81294841 2.6328256 1.8192034 60
0.99663734 2.6256001 1.8149257 60.666668
1.1119865 2.5873344 1.8110495 72
-1.6955563 2.7877035 1.8557304 12.5
-1.5373263 2.7188883 1.8073577 5
-1.1672404 2.7570572 1.8294727 59
-0.98214477 2.7989202 1.9398437 41.5
-0.65149236 2.7714791 1.9283749 57
-0.36586684 2.7789874 1.9287149 57.5
-0.25856978 2.7925282 1.9355159 57
-0.025001068 2.7972245 1.9288439 59
0.1914513 2.7760134 1.9249746 60
0.37975493 2.7975399 1.8869554 49.666668
0.52998811 2.7442105 1.8231305 50.666668
0.66215795 2.8422332 1.8496526 41
0.96304524 2.7133174 1.817204 73
-1.8906422 2.9317527 1.8438491 11
-1.6373285 2.9313793 1.8495921 13
-1.293118 2.8965392 1.8252673 40
-0.81802487 2.9345379 1.8617988 44
-0.47801846 2.9542513 1.9286293 51
-0.20041831 2.8533864 1.9310151 55
-0.14289698 2.9295146 1.9346577 55
0.17764322 2.9328928 1.9287124 53.5
0.35121959 2.9208715 1.8228298 58
0.51080847 2.8980925 1.8236066 59
0.70558321 2.9234653 1.8236477 70
-2.0134711 3.0439513 1.8391062 12
-1.6150551 3.0438249 1.8499399 10.5
-1.4232316 3.0214415 1.8066918 14
-1.0948706 3.0812116 1.831075 58.5
-0.75239784 3.0910275 1.8373491 55
-0.52513063 3.0547848 1.9262215 52
-0.27892017 3.0690639 1.9242579 61
-0.068642415 3.0454857 1.9344888 64.333336
0.063923731 3.0847528 1.8358291 44
0.35460395 3.038161 1.8278583 57
0.54484224 3.0376258 1.813123 68.5
-2.1526906 3.1865239 1.8512982 13
-1.8105628 3.2662392 1.8461775 12
-1.5489666 3.2090573 1.8473072 10.5
-0.69276029 3.2292349 1.836085 54.666668
-0.58572894 3.1766322 1.9358476 61
-0.31417692 3.1888587 1.9255339 60
-0.12711941 3.2312009 1.8289495 47.5
0.22234537 3.2475421 1.8336185 73.333336
-1.9317334 3.4095654 1.843778 13
-1.5143857 3.4137969 1.8610189 10.5
-0.95814836 3.3683209 1.8254739 37
-0.59153616 3.3949397 1.8436805 58
-0.36971956 3.3806779 1.9314933 53
0.069287494 3.4213309 1.8330497 73
-1.4625541 3.5460842 1.8591138 7
-0.54398316 3.5168257 1.8420326 56
-0.1767443 3.5629494 1.8283798 58
-0.14985014 3.4589567 1.8514827 42
-1.4124805 3.6468456 1.8553432 1
-0.77566475 3.6223691 1.8320543 57
-0.47757223 3.6326771 1.8406216 59
-0.40293831 3.7126257 1.8431247 59
-0.32845533 3.7730613 1.825008 87
-0.59688288 3.9278855 1.8105396 8
4.2388883 6.664989 1.8084446 0
-1.1131363 0.54612803 1.9622723 66
-1.0444074 0.61524403 1.9936744 59
-2.1527994 1.2783608 1.956673 100
-1.9680336 1.4966679 1.9541589 97
0.0075813057 1.9998273 1.9583493 75
4.9453731 6.0707211 2.4854589 0
