# .PCD v0.7 - Point Cloud Data file format
VERSION 0.7
FIELDS x y z intensity
SIZE 4 4 4 4
TYPE F F F F
COUNT 1 1 1 1
WIDTH 75
HEIGHT 1
VIEWPOINT 0 0 0 1 0 0 0
POINTS 75
DATA ascii
1.474659 1.9183856 -0.77028322 20
1.5678036 1.8638253 -0.80200243 21.75
1.6594614 1.8618636 -0.85265464 13
1.4689844 1.9817652 -0.78533435 4.5
1.2852308 2.1707821 -0.83840376 5
1.5904605 2.3694739 -0.75941479 80
1.6592758 2.3223088 -0.76678264 3
-0.046491429 2.506762 -0.81914967 6.5
0.21491845 2.4363537 -0.82429427 4
0.35206342 2.4625366 -0.83734661 7
0.91509056 2.4379783 -0.84029353 5
1.1889782 2.410491 -0.83573335 5
0.03444146 2.6325808 -0.81580073 5
0.36729646 2.6148765 -0.83780015 6
0.95490009 2.5644586 -0.84136128 5
-0.0016510368 2.8092313 -0.83338225 8
0.031708062 2.7612422 -0.81528902 7.3333335
0.37631571 2.7480209 -0.84068072 15
0.73979682 2.8309603 -0.83025575 7
0.99509472 2.7851214 -0.84364045 5
1.1062455 2.7331038 -0.8346445 6
-0.020852376 2.926373 -0.83460021 9
0.082873479 2.8987982 -0.82498479 8
0.37683815 2.8612273 -0.8363319 8
0.93421596 2.8748572 -0.82773441 0
0.30298203 3.0390465 -0.83827132 10
0.49010944 3.0749564 -0.83049214 10
-0.17839992 3.181031 -0.81365442 10
-0.13677233 3.252532 -0.81558371 10
-0.089196876 3.3366303 -0.81664234 8.25
0.33071792 3.3116527 -0.83968389 11
-0.10663727 3.5398743 -0.8197149 7
-0.15215683 3.7499061 -0.82980877 6
-0.10017595 3.659584 -0.81373626 5.6666665
1.4672444 1.9196842 -0.65274161 18
1.6371778 1.861044 -0.73563612 2
1.4836099 1.9929402 -0.73098665 3.5
1.9229748 2.1145821 -0.71096337 54
1.5989493 2.3771017 -0.68569732 96
1.4311525 2.5077448 -0.6556105 96
1.5336826 2.4223876 -0.69964182 92
1.2054842 2.6939259 -0.7190358 28
1.3632665 2.5610995 -0.60438222 97
1.0087926 2.8421113 -0.67248434 105
1.0549328 2.8038969 -0.62161875 112
0.84677655 2.9796534 -0.7340281 60
0.96029669 2.8732259 -0.72882813 75
0.77947909 3.0305154 -0.74069732 3
-0.55505747 3.5452104 -0.60222077 8
-0.31813303 1.4065688 -0.47135472 37.799999
-0.33755204 1.739545 -0.49616015 138
-0.34062612 1.8330433 -0.48955441 60
1.47613 1.8981458 -0.58838719 42
-0.45297951 2.3656211 -0.47456652 98.5
-0.43884167 2.3864422 -0.49234423 17
1.6485003 2.341557 -0.54918563 92
1.4637388 2.4765863 -0.55989182 94.5
1.5091445 2.4481504 -0.46391475 99
1.2753471 2.6318688 -0.54296881 98.833336
1.1514754 2.7265334 -0.47267032 99.5
0.83127826 0.97057855 -0.43081978 5
-0.11195566 1.1735568 -0.40447605 6
0.94868529 1.1349149 -0.41852474 13
-0.23487961 1.3013729 -0.42908034 5
0.17119975 1.2306457 -0.433341 4
-0.43420961 1.4941177 -0.43432295 39
-0.28452575 1.3664286 -0.42892706 3.5
-0.41963488 1.5317028 -0.41927719 30.6
0.37763542 1.6563691 -0.44167215 17
-0.35874712 1.8931353 -0.40991563 85
0.6342591 1.8264604 -0.41458753 2.5
1.5526015 1.8411105 -0.42741168 25.5
-0.41504472 2.3786831 -0.44121799 2
1.3386171 2.581625 -0.43165529 98
0.24269326 3.4561117 -0.42505723 1
