# .PCD v0.7 - Point Cloud Data file format
VERSION 0.7
FIELDS x y z intensity
SIZE 4 4 4 4
TYPE F F F F
COUNT 1 1 1 1
WIDTH 1076
HEIGHT 1
VIEWPOINT 0 0 0 1 0 0 0
POINTS 1076
DATA ascii
-0.62110758 -0.79322362 -0.16155779 12
-0.55738318 -0.763372 -0.17973796 11.666667
-0.48149601 -0.73500824 -0.17933898 11.666667
-0.37597442 -0.68941796 -0.17401156 10.777778
-0.24958219 -0.63149077 -0.17478351 10
-0.15342839 -0.59049553 -0.17886774 9
-0.072321333 -0.5492329 -0.17342629 8.5714283
0.058497842 -0.49397564 -0.16971563 9.75
0.15162243 -0.4519521 -0.1963553 9
0.26285541 -0.40294477 -0.16903788 10.833333
0.38155946 -0.34778941 -0.17129147 9.916667
0.47861826 -0.30492646 -0.18713081 8.5
0.4865602 -0.23089391 -0.17188993 9.4444447
0.41190526 -0.050330535 -0.17615178 11.055555
0.45444721 -0.13954364 -0.16807941 12
0.38904223 0.02563592 -0.18359768 4
0.52886236 0.092731118 -0.17731816 5.1999998
0.64577085 0.14562429 -0.18218867 7
0.73509187 0.18009035 -0.167963 4
0.8558796 0.23653242 -0.16323484 4
0.99249858 0.2987355 -0.1792338 3
1.0151703 0.30744338 -0.18958807 3
0.25752503 0.72331905 -0.16801533 5.5
0.35908628 0.71786463 -0.17525175 5.3000002
0.47640631 0.73659003 -0.17768182 4.5
2.0059366 0.65520382 -0.17088713 75.5
0.11107161 0.83294594 -0.1757478 4.1999998
0.17360961 0.75869906 -0.17834815 6.5
1.8159163 0.76800311 -0.17278557 46
-0.33420089 1.0484189 -0.1969927 0
0.093281791 0.94016778 -0.16636398 4
1.1065822 1.0439521 -0.16210058 49.5
1.9087281 1.0320642 -0.18695031 154
-0.53816277 1.15769 -0.18869688 0
-0.40886733 1.0925179 -0.18573987 0
0.96883333 1.079016 -0.17768243 37
1.0572881 1.0573105 -0.17741713 32
2.1702216 1.2463125 -0.1902024 98
2.086184 1.4452136 -0.17409354 97.5
2.1055822 1.3896992 -0.15746614 102
-1.0838727 2.6350763 -0.15570651 39
0.0056887092 2.712786 -0.16940056 2
0.66498268 3.2442942 -0.15856946 2
0.51289093 3.3645813 -0.18346567 37
-0.93059605 -0.93233526 -0.017371928 9
-0.85639971 -0.90008301 -0.025094157 7
-0.79632062 -0.86818767 -0.043077514 8.833333
-0.66957253 -0.8114742 -0.080713525 10.444445
-0.55908799 -0.76536471 -0.072811805 12.153846
-0.48349476 -0.73105556 -0.086468928 12
-0.38082328 -0.68833739 -0.074537978 11.290322
-0.24813072 -0.62980664 -0.067985766 9.8888893
-0.18140247 -0.59043002 -0.091592595 4
-0.034070708 -0.5315454 -0.067566335 10.3
0.079417698 -0.47802493 -0.059525449 9.7058821
0.15578432 -0.45173907 -0.098674476 9.333333
0.13651764 -0.44741738 -0.083997823 10.5
0.22748928 -0.4163425 -0.079340115 10.551021
0.37008336 -0.3529557 -0.1005944 10
0.4720974 -0.30620706 -0.10777347 8
0.49247536 -0.24071702 -0.11558553 8.9523811
0.44923115 -0.13502385 -0.14021648 10.666667
0.4542892 -0.13925831 -0.13718297 8
0.50839388 0.084973447 -0.13638103 4.5
0.63167787 0.13834102 -0.10617099 4
0.68511933 0.16271159 -0.12924919 4.5999999
0.79854506 0.21124069 -0.083626114 5
0.93754607 0.27498987 -0.076600499 3.1666667
1.0299673 0.31665659 -0.10393197 2
0.14348425 0.73884779 -0.069073446 6
0.21656582 0.71634996 -0.10785399 5.7333331
0.36668959 0.6876207 -0.076838739 4.0833335
0.48997533 0.72584689 -0.11829233 2.5
1.7672888 0.7121042 -0.021831233 40.5
1.8939028 0.68039316 -0.11743219 73
1.9990346 0.68578196 -0.033903573 108
0.11450596 0.81747216 -0.10660715 4.125
0.1565531 0.75815785 -0.09984801 7
1.7721536 0.79830956 -0.1199222 39
1.8437208 0.84757757 -0.054126535 64.666664
-0.34093505 1.0419487 -0.13038191 0.5
0.088741437 0.98519969 -0.1463836 4
1.0852135 1.0454001 -0.097671367 25
-0.47713229 1.1576639 -0.070868939 0
-0.39500517 1.1127435 -0.06316039 0
0.98495048 1.0700629 -0.13398027 36
2.0753639 1.1509625 -0.076475598 150
2.2090149 1.0986776 -0.068696208 103
-0.66733563 1.3121679 -0.048630599 1
-0.52391851 1.2545073 -0.066303149 1.5
0.12893014 1.3000541 -0.12686008 2
2.0952909 1.2825629 -0.12716007 150
2.1315129 1.3332165 -0.021312213 30
-0.64630115 1.3609453 -0.044873584 3
-0.068301037 1.4231794 -0.12838617 3
0.11092959 1.4384958 -0.13255475 4
2.080791 1.4433181 -0.07122431 96
-0.071732841 1.5607355 -0.12744001 14
0.043356966 1.61703 -0.13071002 16
0.2572982 1.5478185 -0.02061679 31
2.0228305 1.5725242 -0.093623959 77
-0.099566206 1.7088474 -0.13140251 1
0.097005174 1.7796549 -0.14305945 0
-1.2320575 2.5653925 -0.032825228 40.5
-1.0801672 2.6369781 -0.090524375 38.714287
-1.0169655 2.6639137 -0.029986843 30.200001
-0.15208036 2.7161553 -0.053766314 24
-0.057090908 2.7224002 -0.032866511 14.5
0.52674365 3.3687103 -0.10263989 37
0.65419358 3.4268546 -0.064172752 19.5
-1.0896381 -0.99752259 0.11055115 6.6666665
-0.96949452 -0.9465968 0.083183117 6.9000001
-0.88007003 -0.90856874 0.05954339 8.1999998
-0.79741186 -0.87168014 0.071853697 8.5
-0.66748047 -0.80865681 0.070548609 9.3125
-0.55867571 -0.76243931 0.068798959 10.888889
-0.49371046 -0.73357838 0.055199988 11.9
-0.38134953 -0.68413943 0.072287232 11.24
-0.25399485 -0.62871951 0.050654765 9.5
-0.16989596 -0.58579546 0.098832048 9.6000004
-0.072265707 -0.54279834 0.081899665 9.2285719
0.029027836 -0.48514056 0.03676822 8.7857141
-1.123595 0.041058183 0.13218306 0
-1.0280542 0.13999297 0.064451598 0
-0.96309608 0.1949808 0.10747992 0
1.0207882 0.31518495 0.040137839 1.5
1.0894712 0.35565686 0.069368042 7.5
1.7874056 0.59441376 0.11610252 2.5
1.7483472 0.69263721 0.071131214 20.5
1.8286568 0.62913883 0.051417474 39.666668
2.0288296 0.63188189 0.027704354 71.5
1.7910861 0.82742357 0.079902716 18
1.8379242 0.85067606 0.073116668 18.799999
-0.33745638 1.0034082 0.059432819 0
1.7920101 0.90060312 0.10329887 31
-0.47041768 1.1587409 0.059973426 0
-0.40006343 1.0860295 0.074614845 0
-0.64890909 1.3286741 0.057783626 3
-0.54133946 1.2298744 0.063443132 0
2.449245 1.3229188 0.079887815 38
-0.66760075 1.3528256 0.042582061 2
2.3996129 1.4050843 0.048509147 20
0.23946044 1.5599129 0.0093928976 30.5
0.31277561 1.5672462 0.09937679 21
0.20312943 1.6647232 0.089794926 18
0.31042916 1.6525124 0.10363742 0
-1.5513237 2.4266033 0.13904849 40.5
-1.3829696 2.5024948 0.10200243 39
-1.2254388 2.5730941 0.043550726 37.400002
-1.1673758 2.597465 0.086862311 34.400002
-1.0290295 2.6622627 0.07597407 38.333332
-0.12694132 2.7547786 0.091153167 24
0.071792379 2.7750382 0.11429209 11.5
-0.17394173 2.9541876 0.11551132 21
-0.23472309 3.0421307 0.11752724 6
-1.3648245 -1.0894547 0.28826094 64
-1.2663379 -1.073357 0.25380325 21.25
-1.3925447 -1.0190476 0.2741639 70
-1.125245 -1.012612 0.20640889 7.1428571
-0.96075094 -0.9407742 0.22880349 6.625
-0.87937832 -0.90775871 0.2255262 8
-0.79816514 -0.87125731 0.22499831 7
-0.6878047 -0.82729411 0.22221357 7.4545455
-0.56327128 -0.7702468 0.24841297 7.8333335
-0.49864203 -0.731897 0.18578736 8.6000004
-0.37213439 -0.6756351 0.2135558 5.4615383
-0.23418249 -0.61524165 0.2149386 7.2222223
-1.17035 -0.49233109 0.22189431 9.3999996
-0.16322137 -0.58316845 0.26546231 7.3333335
-0.11238227 -0.56306601 0.20202196 8
-1.2152703 -0.065938368 0.25628871 0
-1.1980513 -0.016920604 0.20727682 0
-1.2106649 0.075899877 0.2386573 0
-1.1906377 0.02502623 0.26991972 0
-1.0731832 0.16792217 0.23715764 0
-0.9803015 0.21263294 0.19387676 0
1.0954204 0.35872576 0.16918612 3
2.628366 0.84691405 0.28504348 105
-0.4918887 1.1776743 0.27178389 1.25
-0.40018687 1.1309634 0.26007813 0
-0.5026108 1.230234 0.27029312 0
2.4663024 1.3358874 0.22376564 27
2.3954875 1.4044267 0.21466166 12
2.4504642 1.3565291 0.29800087 25
2.7338512 1.3881502 0.22573733 0
-1.7094929 2.364717 0.26475924 37.25
-1.52952 2.435055 0.23478103 42.142857
-1.4239912 2.4805868 0.24053226 51.333332
-1.3221235 2.5292056 0.2058339 35.5
-1.1383938 2.6202447 0.22193879 34
-1.0265301 2.664686 0.259637 32
-0.021725688 2.7164295 0.18375057 25
0.11108814 2.7793486 0.25622523 23
-0.28458318 3.0042074 0.24218345 8
-0.12706256 3.0739169 0.2374388 9
0.38643408 3.3065598 0.22778583 1
0.51176393 3.3603706 0.27364707 17
-1.3711479 -1.0778601 0.35825101 59.799999
-1.2665541 -1.0745411 0.3332935 21
-1.4209582 -0.97100526 0.38741082 38.799999
-1.1155941 -1.0103637 0.38174731 6.8000002
-0.97687322 -0.94588298 0.36809903 7
-0.88333952 -0.90460563 0.36263239 6.5
-1.5103745 -0.76801753 0.39023185 14
-1.4777297 -0.83650726 0.40348604 41.166668
-0.82926273 -0.88394755 0.36253724 7
-0.67022294 -0.81292319 0.37341526 6
-0.57639027 -0.77409273 0.33443072 2.5
-0.47912017 -0.72242194 0.42886692 4
-0.35048816 -0.66730261 0.36256704 6.6666665
-0.24876991 -0.62338948 0.3904365 6.6875
-1.6092017 -0.54120219 0.42429972 27.75
-1.1748492 -0.48997265 0.34233156 5.4000001
-0.19024955 -0.5915674 0.33439007 7.2727275
-1.6901333 -0.34400785 0.41337249 53.5
-1.2818795 -0.18585734 0.38408971 2.6666667
-1.2426071 -0.066679135 0.38886458 0.375
-1.1868207 -0.024663329 0.35795969 0
-1.2212267 0.10620988 0.36993507 0
-1.1838794 0.081585556 0.3699632 0
-1.2238106 0.19951008 0.39198923 0.33333334
-1.7096556 0.59103978 0.42656308 5.5
-1.6296121 0.68676299 0.40435711 41.333332
-1.8280632 0.75356358 0.41636595 61
-1.7083323 0.84263819 0.39024729 43.200001
2.6332145 0.85066026 0.37863514 105.5
-1.6691507 0.95251131 0.34769592 43.666668
-1.644592 0.96129227 0.36671698 55.5
2.6172116 0.93785095 0.44822395 25
2.7025063 1.0290849 0.35971785 21
-0.46390733 1.1012391 0.30173922 0
2.7809701 1.0666077 0.36838996 16
2.4887874 1.3481491 0.32572639 1
2.4262657 1.3631318 0.42583138 28
-1.839311 2.2667012 0.41033554 2.25
-1.685065 2.3788199 0.3658866 37
-1.6032009 2.4160035 0.384036 36.599998
-1.4848651 2.4653242 0.3383688 38.333332
-1.3244715 2.5412519 0.35025632 36
-1.250089 2.5705967 0.41238022 30.666666
-1.1530535 2.6148248 0.36412683 33
-0.31246227 2.9955988 0.3361927 9
-0.15806879 3.0741467 0.37073025 8
0.2595259 3.2519505 0.37123019 31
0.33506119 3.2837782 0.3966611 32
0.41527015 3.3244402 0.41783512 37
0.63321304 3.4081674 0.31732875 37
-1.3666935 -1.0860022 0.52948046 66.333336
-1.2648392 -1.0697054 0.51359254 31.5
-1.4125321 -0.97523415 0.53689766 60.625
-1.1226686 -1.0071337 0.53311706 24.75
-0.98520184 -0.9500851 0.5100829 6.3333335
-1.5043536 -0.7766155 0.48547652 78
-1.4747958 -0.83842623 0.52858704 49.200001
-1.3033602 -0.77783787 0.56641072 6
-1.1855083 -0.85200775 0.58422107 5
-0.79943782 -0.85833436 0.53275311 2.2
-0.67986077 -0.80790222 0.51604915 1.5
-0.54100108 -0.75424856 0.50975227 3
-1.5384657 -0.68169641 0.50108391 20
-1.2627409 -0.6658082 0.5009197 36
-0.50729251 -0.73732978 0.53495669 7.5
-0.37826142 -0.68146962 0.52492934 6.7647057
-0.2563943 -0.6232571 0.51739055 5.4166665
-1.6044457 -0.51271653 0.51393193 30
-1.477824 -0.5465219 0.55695486 23
-1.6725769 -0.37253022 0.47592926 32
-1.6459653 -0.42403153 0.52568179 24
-1.0028437 -0.3879424 0.59932256 6
-1.4791772 -0.23802491 0.56968558 2
-1.3056676 -0.17957038 0.53036678 6
-1.1404647 -0.2148314 0.58452767 6
-1.245169 -0.098315537 0.52891326 7.8333335
-1.2571874 0.07978607 0.56807524 1.3333334
-1.2553706 0.25058505 0.5317809 3
-1.9755256 0.67866123 0.50521672 71
-1.9047153 0.6426459 0.45635009 111
-1.6660342 0.70321202 0.47971994 151
-1.8096631 0.83357906 0.58667195 71.5
-1.7192923 0.89349949 0.4820365 65.75
2.6336882 0.8578155 0.53699553 59.333332
-1.7120539 0.9524309 0.52398455 43.57143
2.6309628 0.97388279 0.53400028 27.5
2.4692595 1.3474219 0.55079311 25
2.397886 1.4067745 0.4727746 13.666667
2.4081168 1.3650881 0.57785636 26
-1.8196785 2.2823396 0.49154174 3.25
-1.7888517 2.3351879 0.51021457 41.25
-1.6494333 2.3995366 0.4973138 37
-1.5506605 2.4389 0.57890499 38
-1.4200565 2.4975851 0.51125687 51.333332
-1.3273869 2.5369213 0.50187975 32
-1.1629698 2.6105666 0.54662538 41
-0.19601883 3.057004 0.58511889 9
-0.06839595 3.1100295 0.52947593 6.5
0.06006993 3.1350052 0.47269088 4
0.13676985 3.2038927 0.50019115 31
0.20979108 3.2283382 0.51212764 35
0.41233742 3.3192179 0.5494616 34
0.56635898 3.3833148 0.57990521 33
0.62880051 3.4127579 0.49253708 33
-1.3612018 -1.0965768 0.66745013 60.5
-1.2351224 -1.0549164 0.70444697 31.5
-1.40942 -0.98369938 0.65334839 50.857143
-1.1122563 -0.99943542 0.65196049 29.333334
-1.4611065 -0.85027337 0.61328065 39
-1.2406802 -0.79399633 0.65976602 12.666667
-1.1678792 -0.81945366 0.64171976 22.333334
-0.90903676 -0.89460343 0.67897117 1
-0.66382015 -0.80132484 0.69052339 4.4444447
-1.5270236 -0.73617202 0.71459055 7
-1.0754009 -0.62792492 0.68476623 2.6666667
-0.97122747 -0.67564255 0.66932487 3
-0.48353562 -0.72239399 0.68273717 6
-0.36003506 -0.66765094 0.67735314 5.5
-0.28370446 -0.63400424 0.63783419 5.8000002
-1.6066445 -0.52962291 0.62810385 6
-1.4906205 -0.51778686 0.62436032 1
-1.2500265 -0.51570857 0.70420611 4
-1.1423869 -0.48212051 0.65062994 34.333332
-0.99498844 -0.54280883 0.66306943 3.3333333
-1.5208201 -0.33589441 0.66322899 4
-1.4286475 -0.35988903 0.67689419 24
-1.2857178 -0.36205488 0.73188055 13.8
-1.0740346 -0.37885633 0.68792444 6
-1.0026876 -0.39748937 0.6195817 4
-1.7590837 -0.18813777 0.65111482 41.666668
-1.5968449 -0.23918685 0.71589196 4
-1.4421606 -0.29743892 0.65133536 7
-1.2926788 -0.23243828 0.6474961 5.1428571
-1.1283121 -0.24629064 0.67318487 13.666667
-1.3020328 -0.10710468 0.66074991 5.3333335
-1.2572628 0.082195908 0.63688642 5.3333335
-1.1681122 0.10464998 0.69086599 6.6666665
-1.1247066 0.16665207 0.74863851 4
-1.8066392 0.83345205 0.62278885 60.333332
-1.7499347 0.82576406 0.65591115 26
2.640609 0.95048499 0.66331577 18.333334
2.4741826 1.3429124 0.71171284 1
2.392611 1.3904184 0.62472224 24
2.4121017 1.3812729 0.65926099 23
-1.8124923 2.3266857 0.6078068 42
-1.7116369 2.369489 0.69531506 42
-1.6071433 2.4156954 0.6680637 42.333332
-1.4885893 2.4665785 0.6899808 37
-1.3149292 2.5415642 0.65441346 40.5
-1.0982481 2.6375315 0.68885005 35
-1.0135964 2.6832364 0.68088752 13.333333
-0.19815484 3.0629039 0.70870471 7
-0.031536821 3.1316519 0.66731191 4
0.017274212 3.1512256 0.60966027 7
0.18440744 3.2169793 0.67118943 32
0.34128314 3.2917595 0.7071268 32
0.38296145 3.3006113 0.61420709 31
0.53111339 3.3765218 0.64079237 36
0.78256637 3.4885991 0.72128713 33
1.1873312 3.6072562 0.69704568 66
1.2800394 3.6468177 0.74811292 65
-1.3150634 -1.0874686 0.83912098 26
-1.1403848 -1.0099497 0.75935388 9
-1.0587324 -0.75833035 0.86781335 82
-0.97980404 -0.80347979 0.82149494 10.5
-0.78695828 -0.85390449 0.88455176 15.5
-0.69133055 -0.81705314 0.84219384 4.5
-0.56791502 -0.7600944 0.82279176 6.3333335
-1.0697696 -0.68248999 0.85346287 2.5
-0.91041589 -0.6854074 0.88989139 39
-0.89386207 -0.66385555 0.88173473 60
-0.50239521 -0.72953743 0.82529724 10.75
-0.37266043 -0.670151 0.81645364 5.25
-1.5303358 -0.54405028 0.84453356 53
-1.4670823 -0.48240316 0.82915455 24.5
-1.1390843 -0.48789763 0.85458976 3.5
-0.82825035 -0.51671433 0.83292103 2.3333333
-1.3828254 -0.36561751 0.75494671 31
-1.3029214 -0.41382974 0.7796365 3
-1.1047716 -0.36062604 0.79147738 4.2857141
-0.93646258 -0.32128683 0.88371563 1.3333334
-1.7153845 -0.29523998 0.83996415 5
-1.1267515 -0.27257177 0.84822345 49
-1.3536937 -0.1123287 0.76643944 7
-1.1597947 -0.0082348809 0.83462101 2.5
-1.2162776 0.01185479 0.80689114 2.6666667
-1.1264342 0.073881887 0.7842406 3.1428571
-1.200155 0.20075417 0.75830853 1
-1.1314776 0.18672428 0.77532917 2.1428571
-2.2222266 0.85864115 0.78269702 63
-1.7443528 0.92705941 0.79776347 3.5
2.4083891 1.3789923 0.80806631 22.5
-1.8158767 2.3025265 0.85745043 12
-1.7449932 2.3521948 0.7796796 41.5
-1.6430144 2.403877 0.84609151 39
-1.4596281 2.4784451 0.80629528 36
-1.3120302 2.5479295 0.89158893 36
1.9096355 2.5111153 0.8753854 14
-1.2414695 2.5781119 0.82286853 31.666666
-1.1437259 2.6223793 0.80551314 37.25
-0.98363203 2.6931677 0.77663803 4
1.8895744 2.5586243 0.79292423 12.666667
-0.97497559 2.7125371 0.85524797 3
-0.20464981 3.0518482 0.85893846 4
-0.023766804 3.137691 0.83516037 4
0.14154069 3.2115574 0.83852255 33
0.15675594 3.2057989 0.76813221 31
0.55015785 3.3816974 0.83131683 35
0.63408935 3.4157536 0.86087418 34
0.71421903 3.4540365 0.89740992 35
0.87061828 3.5248981 0.76118815 37
0.95952839 3.5785236 0.81313455 34
-1.3673733 -1.0953346 0.90382421 9
-0.97711509 -0.93700695 0.91616559 10
-1.0717329 -0.80560327 0.92691833 16.666666
-0.82123119 -0.86548233 0.95455456 22.666666
-0.65101004 -0.78657633 0.99941278 27.333334
-0.58227885 -0.76180696 1.0056264 2.5
-1.1156702 -0.66375917 0.93432909 4.5
-0.97567475 -0.6213516 0.97281569 2
-0.50013828 -0.72135538 0.95391154 24
-0.40607545 -0.67828202 0.97228432 10
-1.5055822 -0.48102108 0.95234156 5
-1.1347607 -0.53745031 0.92374545 36.5
-0.96234161 -0.53358328 0.9838227 18.428572
-0.89614862 -0.58922505 0.90403664 28
-1.5410296 -0.39064986 0.96016312 7
-0.98532671 -0.3942723 0.97057676 11.166667
-0.88315612 -0.43212539 0.93514478 1
-1.2653807 -0.25433737 0.98611611 24
-1.0845234 -0.24519452 1.0412333 4
-1.7313616 0.78586644 0.91416681 0
-2.6307378 1.7712042 0.98242748 7
-1.8082129 2.327985 0.9665184 40
-1.5469646 2.4457598 1.0044092 39
-1.4192169 2.5020666 0.96258312 38
-1.3204875 2.5445926 0.96050751 33.5
1.9701025 2.5146608 0.97666907 5
-1.118741 2.63464 0.99942642 38
-0.2065219 3.05933 1.0021982 3.5
-0.036949594 3.1328359 0.93645096 4
0.34027243 3.2926743 0.94464052 33
0.41928744 3.3174136 0.96096873 33
0.53686571 3.3784118 0.99907237 35
0.80011755 3.495106 0.92794967 32
1.0755855 3.56303 1.0254006 14
1.3043541 3.6632545 1.0157472 53
1.371417 3.6936421 0.96612048 51
-0.96564966 -0.92609918 1.1454394 22.5
-0.89832193 -0.90029824 1.1234961 29
-0.82667279 -0.86803579 1.0877826 25.5
-0.630364 -0.77724326 1.0967485 22.5
-0.57431817 -0.7573474 1.1768858 28
-0.50379306 -0.7232765 1.1463339 21
-0.40160459 -0.6760264 1.1318378 17
-1.0825255 -0.45799285 1.0766557 5
-1.052256 -0.27128336 1.065719 50
-1.8222148 -0.040600259 1.1425129 53
-2.5283306 1.5388197 1.1510381 20
-2.6624563 1.8436499 1.138882 8.666667
-1.7150286 2.3723578 1.1343762 42.666668
-1.6050018 2.4204137 1.1070062 42
-1.4604158 2.4827905 1.1593423 36.5
1.9115937 2.5158944 1.1813713 13
-1.2730632 2.564759 1.1151168 37
-1.0095558 2.6910062 1.1999969 31
1.8670176 2.5887997 1.135147 13.333333
-0.94693422 2.7184417 1.1687801 34
-0.89145315 2.7441134 1.1432116 1
-0.36890629 2.9879901 1.1422567 4
-0.041017283 3.1274226 1.177737 0
0.093498372 3.1875813 1.1415987 15
0.22910325 3.2408512 1.1100339 34.333332
0.36837155 3.3065135 1.0939792 36
0.5867269 3.4021468 1.1874671 29
0.82030618 3.5157843 1.1531808 26
1.010376 3.6082287 1.1665738 6
1.1740562 3.6152229 1.1039548 54
1.2389936 3.6437535 1.060414 51
-0.9659667 -0.92940295 1.2667611 11
-0.78604198 -0.84531248 1.2765472 24
-0.68434763 -0.8001135 1.2332541 27.333334
-0.48722389 -0.71506286 1.281945 21
-0.36502227 -0.66153163 1.239228 20
-1.7535528 -0.18832216 1.2381165 53
-1.8268294 -0.023377061 1.2504134 54.333332
-1.7975316 -0.077940971 1.3017603 55
-1.9623893 0.27664581 1.3297147 51
-2.0505538 0.46233135 1.3492249 55
-2.4620228 1.4003339 1.25138 18.5
-2.5233078 1.5216262 1.2384123 14.5
-2.6319962 1.7854693 1.3476561 1
4.4164929 1.7992775 1.2462264 1
-2.6376095 1.8551809 1.2994586 0
-1.8194197 2.3324318 1.2838606 15
-1.7564769 2.3545396 1.2266881 38
-1.6323739 2.4166288 1.2940295 42.5
-1.4149181 2.5008998 1.277573 34
1.910388 2.514431 1.2908089 11.333333
-1.1083177 2.6492171 1.3021597 33
-1.0027527 2.6916146 1.2262964 34
1.8772678 2.5828376 1.2716987 14.5
-0.91771203 2.7379501 1.2377365 3
0.1472684 3.2066445 1.3460592 32
0.35758859 3.2946372 1.2611575 30
0.35824138 3.3027804 1.3381344 30
0.56267321 3.3972194 1.2901942 29.5
0.7410987 3.4911351 1.3066204 29
0.76930505 3.494662 1.241968 27
0.96144265 3.5861187 1.2188134 2
1.1595032 3.608537 1.3266045 54
-1.0780294 -0.97392988 1.4666731 21
-1.0341537 -0.9530766 1.4423366 21
-0.76139069 -0.83363783 1.3524277 19
-0.66907012 -0.79277098 1.4406558 20.75
-0.5062027 -0.71897751 1.4332973 19
-0.38905293 -0.66957349 1.404072 17
-0.29523277 -0.62884998 1.4075067 15
-1.7038329 -0.26437116 1.4309192 99.5
-1.7791845 -0.12526828 1.488369 49
-1.8717586 0.064181842 1.3832835 9
-2.004636 0.37099051 1.3993728 57.5
-2.0488045 0.45890251 1.444178 54
-2.1326349 0.66116112 1.4434985 50.5
-2.179909 0.77981347 1.4400542 48
-2.2445014 0.91980428 1.4789217 51
-2.5565305 1.6217541 1.4006908 8
-2.6379147 1.7994148 1.4170324 1
-2.6579878 1.8146923 1.4881518 1
-1.7917862 2.354074 1.478467 39
-1.5781794 2.4399652 1.4149154 39
1.9256375 2.5131974 1.4943281 9
-1.2817515 2.5736966 1.4587495 35.400002
-1.1041425 2.6523409 1.3808155 33.666668
1.8754456 2.5838499 1.4772402 13.5
7.1259875 3.0034437 1.4990011 0
0.15857998 3.2144651 1.461165 33
0.34280437 3.2954941 1.4785604 30
0.34928095 3.3015945 1.4072659 29
0.5358445 3.3942428 1.392218 31
0.98104656 3.5853558 1.4801714 13.5
1.2956557 3.6635828 1.413264 51
-1.2027416 -1.0241153 1.6297103 17
-1.1477047 -1.001349 1.5177919 150
-0.93421823 -0.90664774 1.6341995 26
-0.80289382 -0.8485164 1.559245 25
-0.60562116 -0.76105452 1.5475392 18
-0.55245858 -0.73915863 1.5782709 21
-0.39141175 -0.67177343 1.5212338 17
-1.7290257 -0.24575223 1.5718269 48.666668
-1.7859561 -0.11707731 1.5634995 54.5
-2.0110395 0.39561233 1.545903 50
-2.0790949 0.54827201 1.5784585 55.5
-2.1472163 0.69079739 1.5897977 50.5
-2.2245021 0.87728584 1.5885162 49
-2.2488589 0.91608059 1.5782683 47
-2.3012476 1.0543776 1.5632138 46
-2.3825645 1.2247993 1.6226605 4
-2.5522482 1.4955682 1.6430658 9
-2.6477284 1.7546543 1.5998498 8
-2.6566181 1.810288 1.5474463 1
-1.7468556 2.3711603 1.5606155 42
-1.5098532 2.4718144 1.6229612 40
-1.4181839 2.5138388 1.585063 36.333332
1.9061267 2.5267336 1.5030043 13
-1.2185179 2.5987043 1.5626967 32
-1.1792465 2.6164718 1.6412898 31
-1.0186549 2.6871486 1.510234 34
1.5137361 2.6556687 1.6465009 1
1.7929926 2.6956472 1.6253437 47
1.8346297 2.6075926 1.6149095 39.666668
-0.98322964 2.7050514 1.595909 36
1.3962539 2.7910626 1.6283575 19
1.7727985 2.7677562 1.6254882 18.666666
1.7207549 2.8854218 1.6046122 47.5
1.6302527 3.0767856 1.5786139 14
0.16649012 3.222306 1.5783751 30
0.71211416 3.476965 1.5706367 28
0.83832109 3.5303435 1.615378 25.5
1.0862944 3.576231 1.5174634 29
1.4664147 3.473774 1.5973588 4
1.1757153 3.6117005 1.5541282 56
6.3445592 4.1505022 1.5412477 0
-1.1404023 -1.0021164 1.7217803 19.5
-0.97471106 -0.92414814 1.6987771 19
-0.92029721 -0.89898688 1.7515143 20
-0.85643721 -0.87812966 1.7949632 29
-0.67517567 -0.79072899 1.7832872 37
-0.59535301 -0.75647324 1.7386807 23
-0.50362664 -0.71643853 1.6998149 19.333334
-0.37006608 -0.65849876 1.690185 16.666666
-1.7326157 -0.24559107 1.7133149 51.75
-1.8316296 -0.018076882 1.6875345 9
-1.7910151 -0.11412616 1.7094053 52
-2.2189696 0.85791063 1.7208166 50.5
-2.2698102 0.9760896 1.7491325 49
-2.3661435 1.174916 1.7685084 32
-2.3804686 1.2108159 1.7158346 3.5
-2.4963148 1.420934 1.7648498 14
-2.3967683 1.4435736 1.7965456 7
-2.510036 1.7148926 1.7995859 78
-1.8382037 1.9008622 1.7971393 78
-1.7822224 1.9167649 1.7939175 65
-2.4696672 1.9904879 1.7886719 39
-2.3870063 2.024045 1.7749302 34
-1.7511172 2.0099826 1.7968104 68.5
-1.5110118 2.0827487 1.7942239 69
-2.3323898 2.2043865 1.7912701 6
-2.1463625 2.1608407 1.7751838 0
-2.0408523 2.1293294 1.7994162 73
-1.7191265 2.1607397 1.7952853 69.5
-1.6088978 2.1284106 1.7954336 63
-1.0144482 2.2357039 1.7949849 31
-3.0641277 2.3364224 1.799466 70
-2.4342752 2.2994285 1.7924899 74
-2.375093 2.3420835 1.7934558 70.5
-1.6867403 2.3434813 1.7801279 35
-1.5921789 2.3782692 1.7806554 34
-1.4383228 2.3180311 1.7982942 66
-1.0821042 2.2599494 1.7928075 63
-1.0061228 2.3343585 1.7935206 59
-0.82017189 2.3868747 1.7919225 54
-3.0563135 2.4759476 1.7954017 68
-2.4277279 2.4737973 1.7913264 68
-2.3090992 2.5160353 1.7908713 72
-2.1718159 2.4989362 1.7889216 75.5
-1.5756886 2.4441671 1.7191747 30.5
-1.4400668 2.504833 1.6780735 35
-1.2980676 2.5062125 1.7834949 32
-0.9487043 2.4708328 1.7902633 58.666668
-0.89723361 2.4509938 1.7903069 59
-0.6371637 2.5219762 1.7916919 57
-0.57724792 2.4447331 1.7961358 41
1.1562493 2.5376203 1.7843283 50
-3.2341051 2.6459322 1.7959028 62
-3.0877371 2.6251464 1.7932148 55.5
-2.8548117 2.5847261 1.7966124 67
-2.3536854 2.6203249 1.7897903 70
-1.1373531 2.6405559 1.7297932 33
-0.83146197 2.6522806 1.7887305 59.666668
-0.69618523 2.602375 1.7924668 57
-0.45721257 2.6379938 1.7904924 55
-0.2045736 2.5997808 1.7913241 31
-0.063200101 2.6824789 1.7923417 39
1.148412 2.6231246 1.7859577 45.75
1.2707875 2.6225526 1.7873077 50
1.4452547 2.6183078 1.7338092 59.400002
1.7209803 2.6695788 1.7159497 45
-3.3504808 2.8168988 1.799822 62
-3.2682989 2.8225782 1.794238 65
-2.987318 2.7609591 1.7924978 65
-2.6476121 2.8220809 1.7978705 66
-2.3616359 2.7670453 1.7942061 63
-0.82458121 2.7290633 1.7794572 28
-0.74610192 2.8009608 1.7445086 15
-0.52891743 2.7731185 1.7854455 54.5
-0.31960693 2.8434939 1.7865006 65
-0.057960957 2.7805586 1.7837043 57.333332
0.19140355 2.8010387 1.7867179 36.5
1.0891292 2.7670608 1.7793895 49.5
1.2129315 2.8284369 1.7818807 56
1.3928235 2.7724392 1.7528718 65.599998
1.6204009 2.7623851 1.7099382 40.666668
1.6816472 2.7119029 1.7183799 48
-3.6038492 2.9644868 1.7935506 65
-3.0884795 2.9031506 1.7917511 58.5
-2.8251154 2.9464314 1.7907532 68
-2.2989876 2.9194374 1.787709 28
-0.67700934 2.8978615 1.7562976 14.666667
-0.37185252 2.9605713 1.754158 25.5
0.079678558 2.944083 1.7831985 62
0.38582909 2.9128075 1.775118 54
0.56917018 2.9952879 1.7754639 52
0.98209655 2.9753981 1.7752414 51.5
1.0731497 2.9752989 1.781727 51
1.3152647 2.8907361 1.776677 67
1.3630016 2.8667986 1.702046 62
1.5812865 2.9372752 1.7129368 46.333332
1.670504 2.9470565 1.6502517 16
-3.8272781 3.1346312 1.7899455 64
-3.7123213 3.146287 1.7882768 65
-3.5693052 3.0397155 1.795138 61
-3.2187717 3.0610232 1.7982551 63
-3.0230613 3.0945864 1.7905959 65
-0.63461429 3.0756083 1.7818353 12
-0.17710523 3.0898967 1.7586501 9.5
0.23086663 3.0960991 1.7796577 59
0.39440989 3.036164 1.7834131 58
0.67141169 3.0892265 1.7760907 53.5
0.90062875 3.0068743 1.7832047 20
1.2638376 3.0824933 1.7573367 69.5
1.5725654 3.0696123 1.706318 47.5
-3.8720794 3.2357137 1.7936804 60
-3.3520975 3.2362242 1.796683 62
-3.2555106 3.2610497 1.789842 63
-3.048368 3.2811422 1.7875849 60
-2.9954054 3.1742821 1.7894384 60
-2.6076906 3.1879656 1.7914182 71
-0.91917008 3.2412076 1.7743467 11
-0.56318998 3.2199087 1.7768692 10.5
-0.43440914 3.1773601 1.7859105 10
0.29976904 3.2519064 1.7753512 1
0.63164318 3.2373433 1.7912201 49
0.81551987 3.2410302 1.7795951 56
0.97403485 3.2808094 1.7777816 54
1.155466 3.2150147 1.7812136 56
1.2059911 3.1717272 1.7768532 62
1.4404469 3.2049046 1.7030529 46
-4.2394462 3.3443313 1.7897211 53
-4.0872006 3.3607881 1.7934538 60
-3.6042171 3.4146547 1.784613 65
-3.1064262 3.3881714 1.7888969 59
-2.7889609 3.3472614 1.7840415 59
-0.50178307 3.3086555 1.7679728 10
-0.43638784 3.3972995 1.774891 11
-0.21908191 3.3711143 1.778371 10.5
0.010279384 3.370261 1.7798276 6
0.54280275 3.4006071 1.6900135 27.5
0.88803321 3.4141502 1.7809104 55
1.0341051 3.3752081 1.7727937 52
1.1345178 3.3844967 1.6821107 54.5
1.2354667 3.4060061 1.6718947 12
1.3856505 3.3121064 1.7031623 50
-4.3928976 3.5228336 1.7921953 53.5
-3.6119001 3.5227187 1.7897762 56
-3.1878941 3.5096295 1.7915677 60
-2.9945395 3.5373819 1.7869054 62
-0.38415751 3.5340021 1.7790824 11
0.0063120248 3.5661101 1.7725114 11
0.69755042 3.465471 1.7189946 16
0.96787483 3.5937304 1.6613427 23
1.0934956 3.4533617 1.7593442 71
1.3404167 3.5436704 1.698892 52
1.4152278 3.552794 1.6646696 13
-4.7190366 3.7200561 1.7894284 43
-3.9224582 3.6872749 1.7901701 59
-3.8187706 3.6429973 1.7908643 61
-3.7498388 3.6512418 1.7841405 56
-3.3446009 3.6981478 1.78628 56
-3.2281954 3.7446952 1.7805434 57
-2.9969893 3.6394234 1.7826556 59
-0.31546092 3.6463075 1.7747604 11
-0.23661868 3.7339487 1.7863067 12
-0.0021552325 3.7301891 1.7793967 11
-4.8167906 3.7733393 1.7936331 26
-4.2660294 3.898279 1.780759 51
-4.1075921 3.8517587 1.7809213 53
-3.9053214 3.7953906 1.789184 54
-3.0558002 3.8133628 1.7791796 62.5
-0.16062553 3.8040938 1.7788078 12
-4.1285019 3.9265957 1.7827741 50.5
-3.6176395 3.9363825 1.7819303 60
-3.1446986 4.0089545 1.7810932 57
-0.18695098 3.9452913 1.7757386 13
-0.093369335 4.0033312 1.7705311 13
-4.4546227 4.1170282 1.7861338 40.5
-3.6619239 4.0818753 1.783213 60
-0.0055846451 4.0555882 1.771401 13
0.083611861 4.1380277 1.7789847 7
-3.9248905 4.2086263 1.7808744 51
-3.8253736 4.2207165 1.7790142 52
-3.3536873 4.2508526 1.7864958 60
-4.882565 4.4176135 1.7808412 31
-4.7875028 4.3598156 1.7823664 30
-3.9846859 4.3855753 1.791006 49
-4.2957659 4.5705757 1.7854984 50
-4.1674376 4.5640497 1.7916939 48.5
-3.6237483 4.5287981 1.7728287 46
6.2046323 4.5061584 1.7156793 0
-3.7181036 4.739152 1.7743253 39
-4.5311699 4.8098936 1.7796878 35
-3.9357617 4.8838396 1.7745169 36.5
-3.8382823 4.9154 1.7698888 38
-4.097724 5.0702777 1.7781523 30
-4.9677353 5.1779313 1.7685028 35
-4.8642468 5.1016979 1.7708749 34
-4.2449751 5.2298217 1.7692181 31
-3.9734013 5.1101818 1.7744685 38
-4.3548307 5.2964306 1.766879 33
-4.3363018 5.3291335 1.7653245 31
-4.1541061 5.3438034 1.7773923 33
-4.6175928 5.6301374 1.7679372 34.5
-5.02491 6.0473967 1.7583183 25
-5.0519571 7.0353332 1.7251259 3
-5.2090712 7.2073188 1.7327017 25
-1.2199264 -0.95922929 1.8486387 81
-1.2412518 -0.77288115 1.8458747 76
-1.0750735 -0.84954429 1.8475069 92
-0.96866667 -0.83076543 1.8391905 92
-0.79528308 -0.82704353 1.8285271 72.75
-0.69778222 -0.7620424 1.8318378 87
-1.274416 -0.63979161 1.8364381 82
-1.1012578 -0.71702409 1.834788 88.5
-0.99830472 -0.67748415 1.8338375 86.599998
-0.84421462 -0.70085943 1.8420076 71.199997
-0.66924232 -0.67723727 1.8313107 87.222221
-0.54224581 -0.66301817 1.8293222 77.333336
-0.39586094 -0.63595694 1.8307495 76.666664
-1.3838305 -0.50991535 1.833207 82
-1.3090987 -0.54384887 1.8365132 82.5
-1.1280839 -0.53648412 1.8710911 85.800003
-0.96596539 -0.53771055 1.8517088 83.400002
-0.83821964 -0.52993596 1.8295141 81.75
-0.6635986 -0.51526326 1.8286858 84.444443
-0.54112083 -0.54547077 1.8303456 80.666664
-0.39849728 -0.52673858 1.8325255 78
-1.5378242 -0.36848426 1.8366209 88
-1.4058441 -0.40197837 1.8452399 68.5
-1.2823501 -0.37010559 1.8892766 93.666664
-1.1095057 -0.35902709 1.9339712 90.199997
-0.97426432 -0.38365495 1.9345679 84.5
-0.80004704 -0.36015028 1.8979551 80.14286
-0.67401242 -0.38059464 1.8469385 74.777779
-0.54966831 -0.38533664 1.8260114 81.25
-0.4330861 -0.40306771 1.8295686 76.5
-1.5494159 -0.21110766 1.8358477 90
-1.4169575 -0.25428963 1.8333739 93.5
-1.2787303 -0.176937 1.8968135 80.666664
-1.119821 -0.21007873 1.931563 87
-0.9776026 -0.23365292 1.9275132 77.25
-0.81732988 -0.2167061 1.9260322 76.875
-0.67582524 -0.22255619 1.9274101 77.285713
-0.5112533 -0.24870075 1.8907571 76.5
-1.7720232 -0.14712225 1.8072168 58
-1.5601975 -0.053738188 1.8321115 91
-1.4218078 -0.083638363 1.8491546 71.666664
-1.2582192 -0.036603644 1.929644 100.5
-1.1195127 -0.065432087 1.9279999 88
-0.99070156 -0.094588287 1.9270862 73.800003
-0.8289175 -0.072386451 1.9252304 78
-0.67623889 -0.084872596 1.9250731 76.777779
-0.4970938 -0.079232745 1.9229312 72.75
-1.7999798 0.0088439044 1.8469537 16
-1.5646261 0.1026116 1.8291663 92.666664
-1.4472306 0.071110286 1.8882649 87.199997
-1.2625563 0.10495545 1.9295144 102.5
-1.136295 0.078581795 1.9272377 92.5
-0.98537201 0.076896593 1.921221 71.85714
-0.83212513 0.070257112 1.9205571 60.875
-0.67642462 0.074721232 1.9211819 67.900002
-0.50686353 0.091234677 1.9200147 80.25
-1.5480672 0.23864286 1.8639168 60.599998
-1.4296746 0.22779132 1.9290291 89
-1.2615421 0.24958378 1.9312847 99.5
-1.1384847 0.22652099 1.9247589 87.599998
-0.97952056 0.23348959 1.9212203 71.333336
-0.82654864 0.22115441 1.9262546 56
-0.68874419 0.23459689 1.9286649 51.444443
-0.50547588 0.22060327 1.9128348 73.5
-1.5609137 0.39732417 1.9242179 90.25
-1.422968 0.37087774 1.9256163 86.333336
-1.2507129 0.39512423 1.9298868 94
-1.1253775 0.37320548 1.9235059 90
-0.98130071 0.38544521 1.9220946 74.599998
-0.82708681 0.37041929 1.9205334 59.875
-0.66171801 0.37234685 1.9199009 55.857143
-0.51694864 0.36345229 1.9192569 74.400002
-1.9811699 0.58743155 1.8195225 86
-1.8771907 0.53953302 1.8265251 74
-1.7598813 0.47600263 1.8202034 87
-1.5604979 0.5202561 1.9201422 74.5
-1.4117488 0.51539248 1.9237067 85
-1.2340724 0.54110765 1.9254801 94.5
-1.1265079 0.53140414 1.924185 95.25
-0.98399049 0.52013123 1.9256954 89.199997
-0.81654739 0.51485223 1.9142202 79.599998
-0.68750161 0.52394557 1.9147184 64.222221
-0.52872103 0.53378648 1.9177655 77.166664
-0.44580966 0.57729143 1.9153744 70
-2.0256233 0.6307736 1.8160399 87.5
-1.8721808 0.70742786 1.8125859 83
-1.7433761 0.63332927 1.8194941 88
-1.5919371 0.66489297 1.9175485 84
-1.4610627 0.67468852 1.9173338 88.5
-1.2764006 0.67847282 1.9197128 85.5
-1.1317909 0.68600416 1.9214495 88.25
-0.96730429 0.66144013 1.9229025 92.333336
-0.79930329 0.65102547 1.9164853 86.333336
-0.68624353 0.69914162 1.9201984 93.14286
-0.53875268 0.69025671 1.9131348 74.800003
-0.42477325 0.6673699 1.9149953 73
-1.9950008 0.81067961 1.8137649 83.666664
-1.8681816 0.86307037 1.8100007 82
-1.7880039 0.83156854 1.9174441 90
-1.5888362 0.79656094 1.9144568 92.5
-1.4412135 0.83412349 1.917312 85.5
-1.3076278 0.78112167 1.9187163 84
-1.136384 0.83589023 1.9226036 77.75
-1.0104487 0.78522873 1.9310335 74
-0.84885883 0.8240276 1.9224955 88.428574
-0.68195355 0.83881491 1.9215392 89.875
-0.53835332 0.83077323 1.9185091 84.400002
-0.40236503 0.82424325 1.9230623 90
-2.2147958 1.0319492 1.8152946 81
-1.9726033 1.009673 1.810048 79.333336
-1.877857 0.93387914 1.8574588 71
-1.758489 1.0009799 1.9129623 81
-1.5463357 0.95385408 1.9101328 88.666664
-1.4372863 0.98303652 1.9131255 86.333336
-1.3114779 0.97973037 1.9200785 85
-1.1262692 0.97370315 1.9195091 84.333336
-0.98811466 0.9782362 1.9206247 77.75
-0.80668873 0.98878586 1.9202772 83
-0.66439438 0.977341 1.9190246 83.333336
-0.52591401 0.96497601 1.9189934 89.285713
-0.37393013 0.98543692 1.9209896 83.333336
-1.9598446 1.1579511 1.9135939 65
-1.8907465 1.1162524 1.9079715 72.333336
-1.726607 1.175478 1.9103655 74
-1.5393232 1.1635303 1.9073235 84
-1.4408958 1.1371864 1.9080079 84.800003
-1.2695265 1.1265461 1.9113774 85
-1.0807943 1.1242474 1.915135 87
-0.97065467 1.1141105 1.9161092 83
-0.80419552 1.1284499 1.9162465 80
-0.66080362 1.13253 1.9142208 78.599998
-0.53978056 1.112596 1.9154788 78.5
-0.39724988 1.1304719 1.9144793 78.714287
-0.26824397 1.1010783 1.9176357 79.5
-2.1868377 1.231416 1.8091034 79
-1.9941903 1.2527305 1.8735088 45.666668
-1.8949163 1.3030378 1.9040279 72.5
-1.7916569 1.3373288 1.9033788 80
-1.4233898 1.2901956 1.9085804 81.333336
-1.3478116 1.3406107 1.9053322 86
-1.1979464 1.2093979 1.9112724 90
-0.97577542 1.2687557 1.9111127 80
-0.8243947 1.2611356 1.9133812 74
-0.68491763 1.2773619 1.9123448 75.5
-0.51278985 1.2772002 1.9113762 75.25
-0.36553383 1.283231 1.9121312 74.166664
-0.2352562 1.2786356 1.9136971 71.25
-2.3313842 1.4314165 1.8083167 65
-2.1582968 1.4399755 1.8057352 90
-1.96372 1.4357388 1.8986062 75
-1.9014422 1.4291869 1.9024663 78
-1.6861703 1.3518873 1.9046587 81
-1.4300741 1.3907042 1.9064227 83.666664
-1.2910254 1.4054 1.9118898 78.5
-1.1501787 1.3569022 1.9071928 79
-0.96557093 1.432712 1.9065539 78.333336
-0.84265602 1.4063315 1.9068452 76.75
-0.64347166 1.4190476 1.9102076 73
-0.54344076 1.4181408 1.9070051 71.800003
-0.36627874 1.4343263 1.907765 76.166664
-0.2262475 1.4381826 1.9108171 71.800003
-0.098207295 1.411479 1.9114941 69
-1.9896498 1.5222316 1.9030424 81
-1.8754395 1.5583458 1.8997469 76
-1.7485971 1.5370793 1.903524 73
-1.6437883 1.5396428 1.9056662 79
-1.3946352 1.5656152 1.9012643 78.333336
-1.3036036 1.5725659 1.9042754 75
-1.14503 1.5103853 1.901633 82.5
-0.91139829 1.6473479 1.9071273 77
-0.83763611 1.5662779 1.9045074 70.599998
-0.65175605 1.5194749 1.9063376 73
-0.52907491 1.5933577 1.9018542 73
-0.40144315 1.583001 1.902446 68.800003
-0.23589453 1.5559995 1.9039748 74.571426
-0.10791709 1.5995996 1.9045902 73.400002
0.011995357 1.5736805 1.9061621 62
-2.4146671 1.7364722 1.8015586 73
-2.3719754 1.6805544 1.8021095 78
-2.2258539 1.7031983 1.8484763 62
-1.9695696 1.7511535 1.9052812 84
-1.8740706 1.7289239 1.9035531 76
-1.6998094 1.7449038 1.9033657 74
-1.5923922 1.7293994 1.9022082 75
-1.3746428 1.734181 1.8987299 77
-1.2763783 1.7187643 1.8993312 76.666664
-1.1329684 1.6872075 1.9051076 70
-1.0370471 1.6703105 1.9063488 68
-0.80624604 1.7274497 1.9005153 66.5
-0.70396626 1.7137744 1.90127 64.5
-0.45990232 1.7741746 1.9075402 65
-0.39140204 1.718343 1.9000404 72.25
-0.22032519 1.7194402 1.9019079 72.400002
-0.047760036 1.7174006 1.9038451 68.75
0.048887938 1.7281793 1.9050605 67
-2.4905035 1.8430922 1.8031291 76.5
-2.356334 1.9267938 1.8006681 67
-2.212939 1.9242405 1.8007742 75
-2.0856702 1.8854346 1.801253 77
-1.8693696 1.8559147 1.8968916 59
-1.7892193 1.9354981 1.8743891 13
-1.5354631 1.9323262 1.9019092 78
-1.2539711 1.8952291 1.8957106 70.199997
-1.1031632 1.8749311 1.8994323 65
-0.96579301 1.8278877 1.8966709 66
-0.82610577 1.8056103 1.8964452 72
-0.67922783 1.8779337 1.8988445 63.25
-0.53772277 1.817324 1.8989972 64
-0.34461987 1.8656248 1.8975238 66
-0.23073846 1.8733006 1.8977581 67
-0.10159782 1.8380373 1.9015374 69.5
0.05305079 1.8836658 1.8988928 70.375
0.22172637 1.8864363 1.8991934 69
-2.3419442 1.9650433 1.8012909 75
-1.72537 1.9648006 1.872281 5
-1.642382 1.963923 1.9056944 96
-1.4201754 2.0513635 1.8062595 28
-1.2143785 2.0498896 1.8994638 76
-1.1065302 2.0685699 1.8937628 64
-0.97476971 2.0419016 1.8971566 64
-0.88818675 1.9988499 1.8968536 63
-0.67601389 1.9957803 1.8966451 62.333332
-0.55972588 2.0469129 1.8954792 57.666668
-0.44318405 1.9671447 1.8978199 60
-0.21687639 1.9962234 1.8950431 65
-0.078998275 2.0393045 1.896647 60.333332
0.13751498 2.0185649 1.8967556 68.5
0.21757087 2.0263619 1.8957207 65
0.3443591 2.048161 1.8965085 67.25
-2.7025697 2.1766469 1.8037106 78
-2.4822376 2.170598 1.8001791 25
-2.2993162 2.2489915 1.8016063 19
-1.2195272 2.1570911 1.9038554 88
-1.1358907 2.172703 1.8838271 50
-0.84141314 2.205982 1.8972112 65.5
-0.62678617 2.1464136 1.8920161 65
-0.50847048 2.2138729 1.8929025 56.75
-0.36514908 2.1512208 1.8929284 57.5
-0.17135756 2.1973045 1.8926924 57
-0.058692694 2.1358957 1.8901563 61.5
0.074174069 2.1985462 1.8938599 65
0.26665741 2.1627693 1.8968801 70
0.38412541 2.1546488 1.8941754 63
0.51693964 2.2052586 1.8981208 64.25
-2.9318595 2.3260062 1.8015088 72.5
-1.99295 2.3958254 1.8035032 2
-1.3445061 2.2593839 1.8000783 63
-1.0666093 2.2537556 1.8634368 7
-0.95976913 2.2922122 1.8980201 51
-0.75883263 2.3523571 1.8210608 7
-0.70232642 2.3692155 1.9008161 73
-0.50894219 2.324738 1.891292 63
-0.44565341 2.3345091 1.8964239 59
-0.24134412 2.3132396 1.8910271 55
-0.052095879 2.3563867 1.8948809 58
0.07955981 2.3009703 1.892707 64.333336
0.2201128 2.3449059 1.8922366 65.333336
0.40767539 2.2875099 1.8944899 66.666664
0.52096432 2.3129182 1.8948755 62.75
0.65639502 2.3515601 1.8910596 60.57143
-2.677496 2.4863331 1.8016208 77
-0.3580679 2.4655857 1.8912182 58.400002
-0.1034888 2.4814146 1.8908219 56
0.080636963 2.5164487 1.8922251 62
0.2280056 2.44875 1.88876 63
0.40337244 2.463248 1.8920341 61
0.56324041 2.5074863 1.8899661 57.5
0.70532459 2.4775085 1.8888127 58.5
0.8152442 2.4724565 1.8893272 60.666668
0.94050163 2.4924774 1.8863205 56
-0.22122659 2.6204913 1.8840923 34.333332
0.060666095 2.6102946 1.890921 66
0.22998311 2.6826353 1.8896824 67
0.35551286 2.5716856 1.887391 61.666668
0.51558614 2.6569102 1.8841543 65
0.72185737 2.5935178 1.8803197 59
0.81292617 2.6665735 1.8834641 66
0.99257499 2.5977085 1.886539 62.333332
1.1105486 2.6030881 1.8679599 40
0.04245786 2.7062855 1.8943366 71
0.2248887 2.7846372 1.8894922 82
0.54690349 2.7506142 1.8788762 59.5
0.66831911 2.8153543 1.8819538 61
0.79310054 2.7650676 1.8838321 64
0.93849939 2.7646134 1.8791733 60
1.0569448 2.7939062 1.8702871 14
0.38984543 2.8552418 1.8451228 44.5
0.55119544 2.9268024 1.800604 6
0.720707 2.9320838 1.8789624 61
0.81491041 2.9493179 1.8795252 57
0.96403694 2.9374628 1.8851869 55.5
1.2024986 2.9110742 1.8106216 27
-1.0729734 0.85501808 1.9546512 56
-0.97145951 0.88293362 1.9567775 69
