# .PCD v0.7 - Point Cloud Data file format
VERSION 0.7
FIELDS x y z intensity
SIZE 4 4 4 4
TYPE F F F F
COUNT 1 1 1 1
WIDTH 72
HEIGHT 1
VIEWPOINT 0 0 0 1 0 0 0
POINTS 72
DATA ascii
2.2592828 1.0070122 -0.76271617 3
2.2278175 1.098902 -0.78315246 16.5
2.1661818 1.2197719 -0.76815414 2
2.0482957 1.4814242 -0.84822804 5
1.7121642 1.9477557 -0.86096996 8
1.684636 2.0781512 -0.86773962 1
1.8418467 1.9827433 -0.75819176 3
0.017263439 2.216795 -0.75781214 2
1.6498547 2.1185555 -0.86894488 9
1.7579339 2.1756175 -0.7675947 1
0.3124519 2.3755012 -0.79563159 3.5
0.7974456 2.3827844 -0.86258584 13
1.4308054 2.2804675 -0.86777622 9
0.22086029 2.4430628 -0.76427352 4
1.3434918 2.5478437 -0.87017179 10
-0.017712135 2.5974984 -0.86511773 9
0.027295809 2.6775358 -0.8658995 7
0.28709126 2.5709147 -0.86129671 7
0.96689564 2.642581 -0.8732276 0.5
0.07856524 2.7932959 -0.86519313 6
0.34500438 2.7320046 -0.86022997 5
0.9582606 2.8434074 -0.87352091 7
0.065253638 2.9079468 -0.87189108 6
1.2846611 2.9367013 -0.87835258 4
-0.079261445 3.0812476 -0.80623323 24.166666
0.87123972 3.015604 -0.87298548 7
0.98135155 3.1057558 -0.84616703 41.333332
0.31825745 3.2679598 -0.77000976 32
1.919958 0.6924392 -0.6791302 40
2.0134797 0.65283114 -0.64263088 4
2.3351257 0.73884791 -0.69165921 18
1.8893496 0.77766562 -0.63122469 25.333334
2.2619646 1.0189 -0.70927513 99
2.2222664 1.1232908 -0.67478335 103
2.1437914 1.2978623 -0.66377342 101.6
2.0733194 1.4612091 -0.63919735 100.5
2.1084659 1.3842812 -0.66487586 105
2.047008 1.5291399 -0.66153157 105.5
1.9623513 1.72438 -0.61802608 91
1.916769 1.8031874 -0.74111795 75
1.8452234 1.966841 -0.67991447 85
0.042066079 2.3357971 -0.73960465 2
0.10676923 2.4680731 -0.70998871 3.25
0.19084017 2.4441328 -0.73496735 3
0.70770895 3.4369898 -0.69564223 3
1.9076605 0.67922145 -0.55628777 20
1.8832884 0.81126767 -0.53099304 7
1.0129783 1.1012076 -0.4628219 19.5
1.1003209 1.0960245 -0.45843464 7
2.2238524 1.1092117 -0.5297702 100
2.1682761 1.2347889 -0.53265405 103
2.1064913 1.3675578 -0.53066224 98
0.25992441 1.5713055 -0.54854673 95
2.0385294 1.5396876 -0.54877448 100.25
1.98203 1.6660557 -0.55641246 93.75
0.32330459 2.257663 -0.52359319 150
0.73191231 3.4486046 -0.56531042 2
1.9202253 0.67220795 -0.42696774 31.5
-0.27874187 1.1674829 -0.40652174 4
0.87186819 1.136131 -0.4174006 42
0.97195792 1.1007164 -0.42566109 26
-0.060055997 1.2588272 -0.4144915 10
0.02830353 1.3189623 -0.43237019 6.5
-0.24060228 1.4617404 -0.40420157 1.5
2.0982633 1.3920562 -0.44248989 103
1.9772949 1.6720226 -0.42160603 88
0.75009769 1.9342465 -0.40751836 1
-0.11472096 2.1013238 -0.41565752 2
-0.0067551909 2.6578193 -0.41426927 1
0.197806 2.6816437 -0.43025213 18
1.5155023 2.7390227 -0.43280932 17
0.48757052 3.35463 -0.41357774 34
