# .PCD v0.7 - Point Cloud Data file format
VERSION 0.7
FIELDS x y z intensity
SIZE 4 4 4 4
TYPE F F F F
COUNT 1 1 1 1
WIDTH 1078
HEIGHT 1
VIEWPOINT 0 0 0 1 0 0 0
POINTS 1078
DATA ascii
-0.19558167 -0.7562294 -0.18122983 11.666667
-0.094352193 -0.76884031 -0.17467414 9.625
0.056855459 -0.78561497 -0.17069039 9.5714283
-0.53058797 -0.71301824 -0.16752864 12.25
-0.38241762 -0.73363018 -0.1775731 11.615385
-0.27250484 -0.74604148 -0.17619993 12.5
0.20132227 -0.64889157 -0.17099231 9.1999998
0.2320687 -0.51350671 -0.17594491 8.833333
0.37324995 -0.47676051 -0.17711639 5.5
0.53754538 -0.50320166 -0.16934569 6.3333335
0.6985535 -0.5212599 -0.17565185 5
0.83034575 -0.53799117 -0.17078331 4.5
0.98299414 -0.5540306 -0.16416794 3
1.8492656 -0.54866874 -0.1696538 80.5
2.3723111 -0.52303469 -0.1651019 89
2.4026079 -0.33744532 -0.18242918 96
2.4316211 -0.075491585 -0.16566703 92
0.58588099 0.14189251 -0.17166184 5.25
0.65631562 0.11744143 -0.17201769 4.8000002
1.3577496 0.069998764 -0.19992711 12
2.4572849 0.1395916 -0.18617086 95
0.43488681 0.26448712 -0.17221271 6.6666665
0.50695288 0.19571412 -0.17797503 5.2631578
2.4799538 0.28994501 -0.19336721 69
0.42107949 0.35018483 -0.1730541 5.2142859
2.4931865 0.44430202 -0.19489583 93
0.44638821 0.45588428 -0.16758281 4
0.46569327 0.51241267 -0.17349997 5
0.50964957 0.62814105 -0.19075148 4
0.096185565 0.83619142 -0.15712108 0
0.18780394 0.86003304 -0.1702352 0
2.542454 0.77597314 -0.18004978 79
0.094659112 0.95896 -0.17012954 0
0.18813084 0.93255359 -0.18110813 0
1.6796045 0.90449613 -0.18016164 4
1.8242776 1.073451 -0.17176078 6
1.8296037 1.3448339 -0.16861449 24
2.6068816 1.2707672 -0.17483142 86
1.7266228 1.455953 -0.17291495 34
2.021704 1.6293043 -0.18549141 8
2.6440272 1.5575995 -0.19713055 82
0.89770812 1.7539072 -0.16986418 1
2.6858206 1.9082071 -0.1772791 86
1.1717862 2.0176213 -0.1729726 21
1.2443427 1.9866898 -0.1947542 2
0.18923716 2.5460076 -0.15200153 48
0.39523354 2.523716 -0.18767186 17.333334
-0.50247616 2.6076937 -0.1700176 6
-0.32841823 2.6168084 -0.16536458 46
-0.19893187 2.5917797 -0.16655342 45
0.095181212 2.5568507 -0.19152763 50
-1.944443 7.0187688 -0.16673331 1
-1.3568046 7.0040212 -0.16508374 97
2.1002994 -0.91716629 -0.068313099 151
2.3131399 -1.0371212 -0.12322713 15
-0.2028705 -0.75648391 -0.082490996 12.523809
-0.093308143 -0.76446384 -0.083312042 9.454545
0.089063853 -0.79092085 -0.036464728 9.6999998
0.17770863 -0.78663057 -0.077737644 10.5
1.8265848 -0.77134883 -0.028618073 56
1.9513164 -0.83597267 -0.008941655 150
-0.77512729 -0.68228799 -0.021091601 14
-0.66135925 -0.69669062 -0.058051273 12.96875
-0.52183986 -0.71564937 -0.082655415 12.511628
-0.36939111 -0.73468107 -0.083949715 12.46875
-0.26594076 -0.74684334 -0.069892347 12.7
0.19300908 -0.67564905 -0.071967632 8.8999996
1.7739292 -0.68673128 -0.12215963 60
1.8521283 -0.6684159 -0.072987303 28.25
0.22825709 -0.50144649 -0.07213778 7.2280703
0.36064619 -0.47721285 -0.060598273 5.5500002
0.51101321 -0.49974507 -0.07424996 5.7142859
0.63877887 -0.51543927 -0.073976256 5.25
0.78996426 -0.53319824 -0.085567355 4.5714288
0.97716612 -0.55086249 -0.084073372 2.3333333
1.7933669 -0.55436164 -0.1051043 31
1.8440911 -0.53558582 -0.060135804 34
2.0129247 -0.51662409 -0.081326686 99
1.8984232 -0.43405291 -0.042347495 35
2.0412433 -0.43380579 -0.088396914 97
2.2141061 -0.35926151 -0.02097941 150
2.3906202 -0.37122634 -0.089765459 87.333336
2.3735371 -0.24300668 -0.017194903 150
2.4093771 -0.22681738 -0.11101022 90.666664
2.4281688 -0.05822175 -0.060757399 88.75
0.54702169 0.14623436 -0.12380961 5
0.64121675 0.10888105 -0.11874328 2.3333333
1.3060797 0.094650544 -0.081097804 24.846153
1.365471 0.037019163 -0.035861004 23.333334
2.4389162 0.05107639 -0.072487198 85.5
-0.83842528 0.29294491 -0.043973271 0
0.41987815 0.26206055 -0.11068257 5.3846154
0.48863384 0.1897707 -0.12733705 5
-0.81606227 0.32030678 -0.041683424 0
-0.74012506 0.34974307 -0.061521694 0
0.41302285 0.36561492 -0.10270656 4.8000002
0.44136593 0.45893505 -0.097372591 4
0.46646219 0.52254003 -0.10833048 3.875
0.39902669 0.74728012 -0.14642106 0
0.51360786 0.62351584 -0.12427877 2
0.64973599 0.7172243 -0.037523989 5.5
0.10430861 0.81844193 -0.067547038 0.21428572
0.3318606 0.76091051 -0.14875898 0
0.56634116 0.83083582 -0.041211728 3
0.66540605 0.81851053 -0.042076405 3.3333333
0.04867623 0.93865347 -0.10251845 0
0.5647077 1.0295846 -0.052543718 1.5
0.69514072 1.0033146 -0.058463238 0.5
0.018384796 1.1156101 -0.026273942 0
0.5434137 1.0515436 -0.043787006 0
0.63170481 1.119846 -0.052342627 0.5
2.5877531 1.1420201 -0.13950472 83
1.1413201 1.2590134 -0.028445309 4
2.630151 1.4557379 -0.1491034 9
0.87133998 1.646886 -0.12346641 0
1.0694052 1.9765286 -0.129107 4
1.2827773 1.9957466 -0.13887173 2
2.0404372 2.3273699 -0.012142961 30
2.2830753 2.2905877 -0.094471432 13
0.28650677 2.5381367 -0.10442492 46.666668
0.37571046 2.5235112 -0.03858367 22.5
0.54238242 2.4797318 -0.12197677 0
-0.48564348 2.6080778 -0.067185782 6.3333335
-0.34147972 2.6184986 -0.049307402 44
-0.21219413 2.6003642 -0.084343553 42.333332
-0.079444394 2.5833383 -0.10009275 48.5
0.064621754 2.5587461 -0.03587291 47.666668
0.16911851 2.550601 -0.095832922 44
-1.932701 7.0359917 -0.007981007 3
-2.0028353 7.0640402 -0.090553902 3.5
-1.9336698 7.0551953 -0.10482422 7
-1.0071597 7.5630565 -0.023379689 1
-0.19770886 -0.75477123 0.098544255 7.8571429
-0.066913761 -0.76927453 0.045968402 4.375
0.076340757 -0.78743273 0.087196432 9.363636
0.17223503 -0.78252828 0.1012862 8.3000002
1.9024855 -0.7842353 0.055755422 75
1.9585881 -0.7577877 0.11127623 108
-0.95329458 -0.65923768 0.098550245 11.2
-0.82557034 -0.67850649 0.071139343 12.12
-0.67301744 -0.69556046 0.071868382 13.074074
-0.52478111 -0.71533561 0.066271797 13.416667
-0.38431522 -0.7319321 0.055211961 12.916667
-0.22788137 -0.74582809 0.10364643 8.25
0.18537793 -0.6686036 0.071656734 8.0952377
1.7395383 -0.65441412 0.12655184 37.333332
1.8575439 -0.63707274 0.038307335 76
0.20734027 -0.54321003 0.052471898 7.3666668
0.37997597 -0.47754773 0.012560733 5.1999998
0.53156787 -0.50159824 0.02202158 5.75
0.69304121 -0.5222978 0.038291644 4.4285712
0.81812644 -0.53446662 0.062984116 3.6666667
0.94683629 -0.54802901 0.056332916 4.1666665
1.7727903 -0.55818295 0.12455765 2.6666667
1.8637738 -0.51385581 0.087118655 37
1.9849751 -0.49963617 0.04774981 29
2.160923 -0.47666013 0.070628397 19
2.0416791 -0.40220872 0.011440451 154
2.1771917 -0.38896424 0.061658736 151
2.3463848 -0.33015898 0.080635346 120.33334
2.3652587 -0.24328403 0.095964812 99.5
2.412535 -0.17347921 0.012785102 89
-1.0583416 -0.021807697 0.13715434 3
-1.0230184 -0.0043862136 0.10650366 3
2.4123874 -0.10921894 0.087410383 76
-1.0129979 0.050251145 0.095433228 4.5999999
1.3147835 0.07478261 0.03199115 8.5
1.4216069 0.012762794 0.053435799 0
2.4273689 0.0074998885 0.075405866 77.333336
-1.0607555 0.19974056 0.12879512 0
-0.97763634 0.24024698 0.067916021 0
-0.88400424 0.29242191 0.00086694479 0
-0.96011233 0.31240356 0.13237995 0
-0.8435576 0.34809282 0.058959007 0
0.096332885 0.74264556 0.10595583 0
0.11295336 0.84799165 0.050887704 0
0.79002875 0.83625191 0.017527545 9
0.94163042 0.88266224 0.11473095 5
0.077231765 0.95520788 0.090498082 0
0.86301172 0.95618647 0.088935561 31.799999
0.91077238 0.92214847 0.10770874 9
-1.2769582 1.1334573 0.11924098 53
0.046390917 1.1537373 0.027291086 0
0.92351776 1.0530339 0.14781964 47
-1.2683781 1.2294526 0.13149671 74.666664
0.027338436 1.2150167 0.033844665 0
2.2043397 2.2104981 0.055498201 30.333334
-1.5037967 2.3096294 0.10327496 20.25
2.0335014 2.3265147 0.097615965 29.5
2.1742125 2.3079205 0.13734168 30
2.3187771 2.2833369 0.09032952 15
0.22935984 2.5424342 0.06074626 44
0.30844545 2.5297923 0.083245866 41
-1.4604893 2.6139116 0.030003881 19.666666
-0.4928937 2.6142766 0.082195379 14.666667
-0.38162887 2.6150122 0.10428938 41.5
-0.24202162 2.600306 0.070001036 42
-0.055561148 2.5772591 0.087579012 48.599998
0.13494296 2.5555944 0.019124027 46
-1.8880191 7.0278244 0.058823559 2
-1.7757835 7.4919486 0.021225059 16
-1.8467432 7.5042739 0.048616167 4
-1.4408596 7.5768003 0.14866775 1
-1.1265904 7.5594707 0.10899944 29
-1.4501113 7.6674657 0.014205779 1
2.4678142 -1.0771842 0.27507919 86
-0.24148253 -0.75384045 0.18950303 3.5
-0.067816675 -0.77020556 0.24360037 8.26087
0.059247505 -0.78545314 0.18379767 8.8000002
0.16894305 -0.76507497 0.26782548 6.6666665
1.8901694 -0.82004392 0.22192176 91.75
-1.2472011 -0.62852848 0.24181789 10.5
-1.1183616 -0.64892077 0.23211265 7.818182
-0.98048705 -0.66428429 0.21249203 9.2941179
-0.82140446 -0.6777634 0.21866548 10.5625
-0.6792537 -0.69596779 0.21360557 10.4
-0.54135025 -0.71459544 0.20690142 9.7647057
-0.35960308 -0.73324764 0.22850296 5.4285712
-0.26174349 -0.74379271 0.17651892 6.3333335
0.18383072 -0.69642299 0.19985482 7.1333332
1.7243007 -0.65188932 0.1984694 37.333332
2.7828646 -0.64140457 0.28064817 58
1.0007776 -0.55015308 0.1611411 6
1.71578 -0.5949353 0.22044688 4
1.8716555 -0.52334076 0.20376854 15
2.4459374 -0.45183706 0.17871195 29
1.9056193 -0.41486278 0.21874148 7.6666665
2.4771764 -0.43330997 0.18155372 30
2.6397791 -0.34849045 0.2439816 24.5
2.389528 -0.18236536 0.17043525 2
-1.0697348 -0.064140007 0.23053589 5.875
-1.0379955 -0.0061677825 0.15571535 5
2.3925099 -0.051016279 0.16183037 0
2.4049606 -0.04842766 0.16043133 3
-1.0919402 0.092854537 0.22929125 0
-1.0737711 0.20715773 0.21254316 0
-1.0449914 0.17956442 0.27190101 0
-1.1363535 0.30756801 0.2193436 0
-0.997091 0.32851815 0.17630826 0
-0.88893485 0.37110895 0.17341813 0
0.085717693 0.81532198 0.16091365 0
0.95982701 0.87517494 0.21099567 1
-1.3866405 1.0349733 0.21019578 49.400002
-0.020182986 0.99392176 0.18630093 0
0.043333888 0.99322367 0.20844817 0
0.86383086 0.95622897 0.19804998 11.333333
0.95086336 0.93726945 0.189017 10
-1.6527781 1.0861571 0.28387237 10
-1.6486869 1.0880076 0.28031826 21
-1.3674371 1.0696474 0.26359868 8.5
-1.3024648 1.1327133 0.21586251 56.25
0.028570604 1.0573473 0.15950358 0
-1.2669358 1.233713 0.1862164 66.75
-1.3549753 1.3949467 0.26552975 155
-1.5642905 1.7896808 0.16446465 59
-1.5638952 1.8529047 0.2584779 56.333332
-1.5401558 2.0923617 0.25442606 15
1.2419605 2.0732939 0.25587496 20.25
1.393802 2.0000064 0.27124512 2
-1.5350763 2.1464298 0.26251215 19
1.2311919 2.1119783 0.20265138 21
-1.5046823 2.3650262 0.20747671 19
-1.4903237 2.4436183 0.2289155 17
0.10928787 2.5496364 0.16769964 44
0.16343425 2.5449533 0.17539221 45
-1.4253417 2.6390572 0.17418461 1.6666666
-0.50844616 2.5916476 0.20246655 3
-0.44279322 2.6224012 0.244398 42
-0.24744876 2.5968139 0.22237526 42.666668
-0.10402568 2.581213 0.23746483 50.25
0.039104994 2.5657423 0.21437624 49.5
-2.1528392 6.8843374 0.29605192 2
-2.0959477 6.8776364 0.2571975 3
-3.4647422 10.673399 0.23370972 50.5
-0.21067899 -0.76173538 0.38718277 6.6666665
-0.087627776 -0.77542162 0.37674364 7.3333335
0.073885582 -0.79345351 0.37647057 7.2962961
0.16033469 -0.79256797 0.32086939 7.25
-1.4042228 -0.60833508 0.39426798 14.25
-1.2580308 -0.62737876 0.36940113 7.1999998
-1.1214858 -0.64490861 0.36396143 5.25
-0.95899224 -0.66717792 0.36910462 4.5555553
-0.81792319 -0.68519551 0.35129848 4.375
-0.69660699 -0.70123762 0.34191322 4.7777777
-0.48597425 -0.71734881 0.43001583 0
-0.34327564 -0.73725474 0.42951393 2
-0.29848659 -0.74874306 0.43745893 4
-1.5950416 -0.58363825 0.38934979 35.666668
-1.4700422 -0.59682739 0.34623173 37.5
2.9380164 -0.53587192 0.327649 4
2.6478529 -0.38758498 0.3569096 18.75
-1.5337336 -0.17318228 0.42281955 1
-1.3430407 -0.22295836 0.41835129 3
-1.7964711 -0.024099022 0.44077906 2
-1.5008464 -0.040754214 0.37004668 15
-1.4062824 -0.091854021 0.35683128 2.5
-1.2470862 -0.074069396 0.30209041 1
-1.0748016 -0.073752306 0.4018859 5.25
-1.0482525 -0.036719289 0.4491719 7
-1.0842166 0.05280963 0.36856183 0
-1.0300457 0.097276114 0.38921729 0
-1.0614828 0.24387096 0.35877302 0
-1.037902 0.19036971 0.37393573 0
-1.2024527 0.36369643 0.30809689 5
-1.12183 0.34774667 0.37870926 3
0.099390984 0.82754129 0.32307714 0
-1.2512289 0.97698718 0.37482461 16
-1.1657326 1.0088704 0.36920363 33
-0.0023015917 1.0236948 0.37807447 0
0.067014523 0.96671265 0.32263851 0.5
-1.3814809 1.0871285 0.4161469 60.5
-1.3081758 1.1427013 0.35839605 42.714287
-1.2583569 1.2507048 0.3402904 38.57143
-1.580868 1.6852858 0.36951661 80.75
-1.5689973 1.9153742 0.35544518 50.142857
1.2602041 2.0353918 0.32823831 23
-1.5390122 2.1547172 0.34597608 19
1.2223493 2.1427732 0.30129725 15
-1.5014441 2.4671512 0.37769008 15
-1.4994261 2.4239438 0.30009955 18
0.28080267 2.5385404 0.41940445 22
0.32841849 2.526438 0.40513706 0
1.2846345 2.4192283 0.40440163 7.7142859
-0.41017187 2.6154923 0.35707277 43.75
-0.23626898 2.5976288 0.3820188 41.666668
-0.12481904 2.5807555 0.37370431 49
-3.4956865 10.763093 0.35207349 37
2.3915603 -1.077853 0.51874906 23
2.4989729 -1.0879092 0.51953292 51
2.5389137 -0.99472088 0.52896786 77.5
2.5583074 -0.90985751 0.48932552 150
-0.22462165 -0.75814241 0.51716542 6.8571429
-0.081987545 -0.7748282 0.51619714 6.3913045
2.5713873 -0.86155427 0.55942321 30.5
2.7200096 -0.80976081 0.48633212 19
-1.3970971 -0.60617948 0.49094278 9
-1.3106694 -0.61454654 0.46422666 1
-0.61379212 -0.70962286 0.57499295 4.5
-0.55178845 -0.71630949 0.5331344 3.8
-0.35599038 -0.74077493 0.53503752 6.3333335
-0.28462359 -0.74717724 0.51018542 7.25
-1.8731457 -0.52834594 0.54987055 28.799999
-1.7265803 -0.56666005 0.5361352 15.166667
-1.5864646 -0.58229285 0.50903857 13.2
-1.4677145 -0.59800923 0.49419838 12.5
-1.856499 -0.40669277 0.48906663 17
-1.4233681 -0.31554684 0.57108343 0
-1.3228743 -0.3637017 0.57526207 6.5
2.6328676 -0.35954347 0.49883834 23.333334
-1.536813 -0.17483091 0.49633488 5.5
-1.392728 -0.23711693 0.53142178 3
-1.3428555 -0.20370434 0.49132866 3
-1.749234 -0.0011226295 0.49756992 4
-1.4290278 -0.13665938 0.47358397 3.5
-1.1879245 -0.11926676 0.58253378 3
-1.0211447 -0.015792549 0.5278284 5.6666665
-1.0555441 0.030802995 0.45828557 6
-1.0115573 0.08196976 0.54363412 3.5833333
-1.0594434 0.22744088 0.57033056 6.6666665
-1.0459708 0.22649236 0.52812576 4.5
-1.3769727 1.0763081 0.48672897 90.5
-1.2768227 1.3252398 0.47075438 54
-1.5774015 1.9210143 0.56446248 42
-1.5636489 1.9515102 0.5231778 7
-1.5400537 2.1836765 0.52424115 18.333334
-1.5132297 2.3811662 0.50715297 14
1.8691511 2.3443959 0.5374248 29
1.9877245 2.3322115 0.59553379 28
2.1417913 2.3008018 0.54993039 26.5
-1.5031126 2.4655316 0.51088965 12
-1.4930817 2.5014324 0.47736228 12.333333
0.23976269 2.5392537 0.52348942 35.200001
1.1696241 2.4334474 0.4947975 6
1.2120091 2.4308186 0.5720216 6
1.3606696 2.4021065 0.50306773 9
-1.4641794 2.6714246 0.4568156 6
-0.39384088 2.6166801 0.52614301 42.75
-0.27093133 2.6044974 0.48272532 46
-0.016203601 2.5721774 0.58791679 60
0.12350037 2.5533864 0.54043967 43.333332
-3.5497158 10.835319 0.45288134 1
-3.9496715 12.406445 0.56355083 1
-3.4568872 14.866567 0.58289856 1
2.5103416 -1.0964657 0.62644899 54
2.5366967 -1.0069853 0.67324162 68.666664
-0.20317249 -0.75899094 0.67939568 6.25
-0.12611276 -0.76727897 0.62557578 6.3333335
2.5492043 -0.88976908 0.61646163 31
2.5670516 -0.85045046 0.6629144 22
2.7715383 -0.80949402 0.62861812 11.5
-1.0527704 -0.65003264 0.72731769 8
-0.95071685 -0.6648801 0.69965541 1
-0.7922008 -0.68965131 0.66074789 2.6666667
-0.65454882 -0.70205426 0.66266 5.25
-0.49651355 -0.72325099 0.68951666 6.4000001
-0.39548683 -0.73431963 0.66624391 6.4615383
-0.27675417 -0.74306911 0.66764909 7.3333335
-1.3102993 -0.47777402 0.71302557 0
-1.4087034 -0.40269908 0.717628 14
-1.3373438 -0.32862261 0.68420911 3
2.6303277 -0.3573426 0.65943056 20
-1.7202729 -0.1979152 0.7057479 9.666667
-1.4105699 -0.24767832 0.65565908 5
-1.3071764 -0.22910576 0.66381705 3.8
-1.5734001 -0.013382339 0.68440324 92
-1.3928924 -0.062046643 0.64105701 4
-1.2775111 -0.1274077 0.69692183 4
-1.8051956 0.061432231 0.74810195 14
-1.7029476 0.045912419 0.69950533 31.5
-1.5264312 0.020118255 0.7019434 8
-1.3926793 0.030387716 0.66639316 7
-0.94520289 0.13957392 0.73437119 0
-0.96374649 0.21394938 0.66405708 4
-0.88369417 0.19081555 0.72741681 0
-0.93012297 0.33370245 0.71788841 2.5
-0.88263607 0.32806969 0.74597669 3
-1.3688233 1.1106789 0.65174985 44.5
-1.3171893 1.1204225 0.66633385 33.666668
-1.3982749 1.3370608 0.63624823 157
-1.5413514 2.2408981 0.63433492 17
-1.5377557 2.2846169 0.72256303 14
1.6288468 2.3767211 0.72627926 30
1.7285516 2.3627911 0.67611343 28.75
1.9102221 2.3320448 0.67657566 27.666666
2.0603502 2.3181632 0.68530488 26.666666
2.1665277 2.2994151 0.66883081 24.5
-1.4981725 2.5461559 0.61709309 9
0.065249547 2.5431206 0.73330235 45
0.17847514 2.5365319 0.63537073 39.5
-1.500003 2.6002495 0.71306026 9
-0.50392187 2.6110163 0.61642736 24
-0.17205949 2.5839825 0.69544017 47
-0.027119789 2.570353 0.67294014 158
0.064765729 2.5581093 0.66817236 41.75
-4.0583105 10.299063 0.61841387 36.5
-2.1552999 12.360293 0.68738949 32
2.526855 -1.0569584 0.84639204 65
2.5377407 -0.95157433 0.82262695 63.5
-0.26143396 -0.75418234 0.82611704 5.3333335
2.5753961 -0.83666342 0.78596181 21
-1.4382323 -0.61135322 0.86461234 3
-1.2433364 -0.63398939 0.82252419 7
-1.1141689 -0.64661515 0.82947379 13
-0.82026523 -0.68090796 0.83570272 19.333334
-0.7080825 -0.69592589 0.7941165 6.5
-0.51094085 -0.72079903 0.82244068 6.5555553
-0.35851744 -0.7397961 0.82400066 6.3333335
-0.26035351 -0.74727696 0.82181817 5.5
-1.4195777 -0.4802852 0.78887773 10.666667
-1.4298977 -0.38955486 0.83528227 20.5
-1.321532 -0.38576484 0.83861434 28.5
-1.180943 -0.34052283 0.81653416 0
-1.4436862 -0.25015306 0.87243342 86
-1.1575427 -0.29483953 0.87288547 5
-1.2370131 -0.084585436 0.86977476 43
-1.1588321 -0.02124756 0.8270039 13.666667
-0.92002904 0.11307073 0.77564901 0
-0.88228375 0.13619319 0.79008245 0
-0.86195111 0.24605501 0.76890087 0
-0.89327085 0.32350296 0.75189364 4
-1.7504936 0.59766155 0.7524842 10
-1.7289816 0.79371047 0.8480078 41
-1.3928437 1.0691096 0.77012444 8
-1.2975131 1.1054801 0.80339891 8.666667
-1.6686199 1.2403036 0.81296843 35.5
-1.6037177 1.8394651 0.83726847 55
2.8978961 2.1601181 0.8628428 3
-1.5340166 2.3325756 0.81644773 15
1.414772 2.3946805 0.84782434 2
1.5539643 2.3691516 0.80509299 10.2
1.7520844 2.3560503 0.7768119 28.333334
1.8512448 2.3419747 0.81135249 26.5
2.0176964 2.317914 0.8430019 25
2.1781428 2.3007855 0.7841512 23
2.2584746 2.2928944 0.80755591 24
0.3358072 2.5265238 0.89109468 2
1.185663 2.4271474 0.87030602 0
1.3324933 2.4174237 0.82958621 2
1.4263731 2.4034042 0.8333624 5.5
-1.4986389 2.6555324 0.81406558 1
-0.32219973 2.6090491 0.87885821 40
-0.17379595 2.5900037 0.83402932 40.5
-0.073745884 2.5734191 0.7994206 45
-4.0631623 10.33504 0.80717236 42
-4.0569539 10.405521 0.84677589 43
-3.9312692 12.394992 0.75777161 1
-3.8249469 12.492193 0.873402 2.5
-1.434877 -0.60954171 0.96744728 14
-1.248621 -0.63338423 1.0214019 25
-1.1946018 -0.63703436 0.96454597 26.5
-0.93927807 -0.6688664 0.96885234 18.333334
-0.79082972 -0.68447 0.93212318 25
-0.66074562 -0.70239687 0.99041498 13.8
-0.54671192 -0.71822321 0.9738245 16
-0.37219393 -0.73411345 0.98012477 17.833334
-1.351409 -0.47603244 0.96479499 2
-1.2682821 -0.32014638 0.92657983 29.5
-1.3953539 -0.24252605 0.97549951 6
-1.2993542 -0.21902326 0.96376175 42
-1.1973945 -0.22457431 0.9228828 24
-1.4369264 -0.12730892 1.0090269 4
-1.2353427 -0.10078938 0.91978794 6.3333335
-1.2567968 0.059847355 1.0036807 8
-1.7261857 0.7834003 0.97559249 70.5
-1.7139196 0.93298817 0.99756008 38
-1.6867796 1.1019329 0.97911024 55.666668
-1.6667188 1.2583554 0.95474017 57.599998
-1.6313556 1.6043341 0.96126944 93
-1.6168143 1.7068325 0.93899125 54
-1.5928599 1.8736267 0.92294055 52
-1.5829332 2.0208807 0.95634353 5.5
-1.5564321 2.1826832 0.9396885 12.333333
2.5467138 2.2280145 1.0433953 1
2.5736942 2.2310295 1.0206988 0
2.7598131 2.1692533 0.98887795 45.5
-1.5421495 2.3216512 0.92839897 9.5
1.3309418 2.3951371 1.0180297 0
1.4366878 2.398098 0.90751898 4
1.6476377 2.3697293 0.9142375 29
1.7405541 2.3576305 1.0193284 26.5
1.8976897 2.3345506 0.97852278 23.5
2.0277443 2.3204958 1.0092043 23
2.169383 2.3014088 0.95019025 21.333334
2.3298061 2.2773647 1.0010785 19
-1.5164409 2.4538872 0.91943288 9
0.18624283 2.5407622 0.99351668 37
0.3365874 2.5288546 0.96835774 13.333333
1.1626891 2.4318132 0.97115469 3.6666667
1.2769022 2.4182503 0.93313581 3
-1.5143455 2.5869956 0.96222818 7
-1.4879605 2.6721761 0.9163959 1
-0.31659251 2.604573 0.98741436 42.333332
-0.23950106 2.592406 0.95651311 41.333332
-4.0812621 10.318894 0.98188245 38
-4.0670557 10.516519 1.0461601 38
-2.4843409 12.412044 0.91732061 38
-2.2500734 12.394592 0.9214617 35
-2.0388265 12.372516 0.93424213 46
-1.8493569 12.361149 0.92315984 23
-3.7826543 12.543647 0.92779911 9
-3.4682169 15.063093 0.93964088 21
4.6452022 -1.0578269 1.1413928 0
-0.20075887 -0.75411236 1.1317178 24.5
-1.370749 -0.61503017 1.1323588 24
-1.0746667 -0.65198034 1.1231614 22.5
-0.92449784 -0.66861492 1.0765904 31.333334
-0.84337312 -0.67464703 1.0890757 28.666666
-0.66947144 -0.70386791 1.1306858 20.666666
-0.51245886 -0.71673763 1.123749 27.799999
-0.37393105 -0.73475325 1.1171993 17.222221
-0.26869598 -0.74376392 1.1269848 20.5
-1.7275988 0.83684522 1.0892311 66
-1.7050304 0.99655908 1.0503998 58
-1.7017936 1.0533177 1.1371831 56
-1.6845866 1.2244855 1.1399781 57
-1.6144992 1.767118 1.0612264 51
-1.615262 1.8366718 1.1653925 53
-1.5879681 2.0956445 1.1868706 10
2.632952 2.1819108 1.1279202 42.333332
2.8468013 2.1607652 1.1364878 50
2.8927054 2.1499887 1.1264427 38.5
-1.549683 2.3064342 1.0910407 11
1.384106 2.3989882 1.1750257 0
1.5925369 2.3718264 1.1473573 19.666666
1.7475469 2.3531489 1.1377498 24
1.8665998 2.3353491 1.1312189 23.5
2.0021696 2.3163815 1.1421465 21
2.1621811 2.2941244 1.0950474 19.333334
2.2945411 2.2786558 1.1380271 18.333334
2.4769182 2.257628 1.1502237 15
0.21311305 2.5345263 1.1198484 32.714287
0.31770223 2.5273356 1.0632377 19.5
1.19248 2.4215343 1.0864968 0
-1.5123401 2.6557646 1.1216979 1
-0.46975711 2.628125 1.1774528 40
-0.38564864 2.6108773 1.09667 37
0.042521562 2.5557723 1.1358165 35
-4.0134416 10.73483 1.1813124 40
-3.9953387 10.831141 1.1660843 39
-3.9600797 10.992833 1.1324229 42
-1.8552774 12.353559 1.1146511 16
-0.22004746 -0.7534042 1.2476592 21
-1.5151439 -0.60016268 1.2872328 27
-1.4018605 -0.6144914 1.2491963 25.5
-1.2495927 -0.63027823 1.3337089 21
-1.0691199 -0.65253985 1.2552743 24
-0.9857074 -0.66091967 1.2967976 25
-0.76722026 -0.69440198 1.254962 25
-0.65612286 -0.70178211 1.2500858 26.6
-0.52099228 -0.71945041 1.3087445 25.75
-0.38798514 -0.73649007 1.2461573 23.6
-0.27904263 -0.74744898 1.2965366 16
-1.7380123 0.80537134 1.2366383 61
-1.7176172 0.95641685 1.2323024 58
-1.6973367 1.1153853 1.2312688 52
-1.6856691 1.2940985 1.2455251 59
-1.6103859 1.9074842 1.276603 47
-1.5826341 2.1696432 1.3023978 9
2.5676548 2.2362769 1.3184788 0
2.7424943 2.1692798 1.2939861 50
-1.5541149 2.3907185 1.2111284 9
1.3860793 2.3923337 1.286272 0
1.6065166 2.3667862 1.2747178 22.5
1.6972409 2.3533726 1.2420472 23.666666
1.8658565 2.3340845 1.2646643 22.666666
2.0673409 2.3057494 1.2398175 21
2.2056022 2.2837892 1.283178 18.5
2.3667109 2.2715337 1.3297865 16
2.4616873 2.2625263 1.2077276 15
-1.5494854 2.4679949 1.3328801 7
0.10446441 2.5451558 1.2679826 33.666668
1.2975631 2.4144604 1.3043772 1
-0.52204776 2.6272597 1.2288731 31.5
-0.10500096 2.5758009 1.2643784 37
0.055001717 2.5557613 1.2723246 33.75
-4.1689067 9.7397366 1.3047875 4
-4.0530286 10.560348 1.2458502 40
-4.0255246 10.638552 1.2035686 37
-3.7779119 12.693954 1.252208 2
-3.4813085 15.194054 1.2534937 13
-0.22830886 -0.75318199 1.4271675 16
-1.2211217 -0.63360822 1.451623 20
-0.81820929 -0.68297046 1.4242797 27
-0.65971398 -0.7080791 1.4091799 22
-0.48586717 -0.72475213 1.3787071 26.666666
-0.37050101 -0.7373907 1.4192867 19.6
-1.6230631 -0.5856933 1.4077663 23
-1.7674508 0.64436978 1.4381901 63
-1.7476374 0.80978948 1.4283711 62
-1.7307272 0.97288668 1.4430041 60
-1.7073022 1.1516179 1.438933 55.25
-1.6843328 1.3224744 1.4279766 54.666668
-1.6727524 1.4480577 1.4788923 50
-1.6546561 1.5244681 1.4316936 50
-1.6492201 1.5559583 1.3882769 50
-1.6296754 1.7490877 1.4462199 44.333332
-1.6139665 1.95052 1.4971982 2
-1.5551246 2.3654914 1.4868809 7
1.2799952 2.398967 1.4420812 0
1.4213276 2.3791478 1.379925 0
1.6118493 2.365027 1.42475 22
1.7288983 2.3510201 1.3545558 23
1.8110988 2.3403616 1.3982087 22
1.9764819 2.3099754 1.3616817 20
0.28300178 2.5224311 1.498486 31
0.43491089 2.5093114 1.44744 23
1.3696849 2.402925 1.3568779 0
-0.25507164 2.5930958 1.404035 33.5
-0.067395456 2.5684896 1.4206005 33
-4.010644 10.898466 1.4887456 42
-2.6248281 12.444186 1.4195292 35
-1.8487934 12.32525 1.4186908 29
-2.8126657 12.48309 1.4587448 4
-0.260782 -0.75073457 1.602595 16
-1.261216 -0.62578321 1.5682656 26
-1.1324708 -0.64326805 1.570618 24
-0.82933187 -0.68807626 1.567189 24
-0.69863409 -0.69644499 1.5145063 25
-0.54002303 -0.71948594 1.5722761 26
-0.4170886 -0.73364872 1.5524602 21.333334
-0.24927796 -0.7491433 1.5441501 17
-1.694405 -0.58641946 1.5861716 2
-1.6024071 -0.58996338 1.5406898 21.5
-1.7736179 0.68322134 1.5550199 62.5
-1.7628744 0.76572776 1.5452505 58.5
-1.7447674 0.91619551 1.5649468 53.5
-1.7211725 1.0884707 1.5549949 52.5
-1.699734 1.2751598 1.5570444 50
-1.6703591 1.4692892 1.5562272 45
-1.6473227 1.6289669 1.5020567 52
-1.6515303 1.6517676 1.5112976 43
-1.6430035 1.7350495 1.6382686 43
-1.6240896 1.8801193 1.5154674 41
-1.6403552 2.2192307 1.5970997 9
-1.6271921 2.3079302 1.5868871 9
1.3446261 2.3999848 1.5447749 0
-1.5932996 2.4250965 1.5739431 7
0.14066361 2.544204 1.6314982 33
0.3900755 2.5141623 1.5760881 21.857143
-1.5808907 2.6261175 1.6126204 9
-1.4913317 2.680686 1.5124338 0
-0.4113684 2.6199224 1.5659667 31.5
-0.19101985 2.5870969 1.5576683 31.4
-2.6496007 12.440439 1.6155943 23
-3.785953 12.836141 1.5471454 1
-3.4857485 15.284344 1.5775865 8
-0.28211871 -0.75319159 1.7741531 21
-1.4771671 -0.60551888 1.7389216 31
-0.96584564 -0.66454905 1.6897454 26.666666
-0.85561651 -0.68202972 1.7503124 47
-0.71874666 -0.70000112 1.7257118 38
-0.48555285 -0.72523385 1.7264479 25
-0.38871223 -0.74087811 1.7276745 24
-1.793727 -0.51355171 1.788838 15
-1.539098 -0.46283025 1.7904958 80
-1.3990527 -0.59666896 1.7989925 93
-1.2675661 -0.58330542 1.7939273 70
-1.5653915 -0.30627507 1.7928728 85.5
-1.4080542 -0.36457604 1.7975935 96.5
-1.2751048 -0.31858188 1.7983264 80.5
-1.0697134 -0.30525768 1.7988161 83
-1.5423685 -0.15241954 1.7846948 99
-1.4153391 -0.26675859 1.7940546 106
-1.2289532 -0.29921395 1.7962383 84
-1.5894463 -0.073401064 1.7881165 99
-1.4868358 -0.024171 1.783161 42
-1.5675142 0.06835448 1.7899081 85.5
-1.4742506 0.051272102 1.7933091 18
-1.8266114 0.29401171 1.6808912 48
-1.7937964 0.27196229 1.7788152 89
-1.6029785 0.16523477 1.7878083 55.5
-1.4731891 0.20326291 1.7876107 72
-1.828652 0.34498265 1.7246529 5
-1.758203 0.79083025 1.7376124 73
-1.5748377 0.82346213 1.7910254 96.5
-1.4478253 0.85087091 1.7925061 90.666664
-1.7361084 0.95987672 1.7384908 75
-1.5286664 0.9662025 1.7943367 89
-1.4042876 0.99061191 1.7903931 85
-1.7106038 1.1355801 1.743466 72
-1.456942 1.1191447 1.7920607 83.666664
-1.3435708 1.1695989 1.7949728 40
-1.6715293 1.2561879 1.7845756 94
-1.5411572 1.2111738 1.789642 89
-1.4261457 1.2963282 1.7907968 82.666664
-1.6966226 1.3899647 1.7254714 48
-1.6335347 1.436114 1.7856652 80
-1.449976 1.4111658 1.791026 81.5
-1.6689786 1.6040268 1.7494816 63
-1.5910945 1.6261305 1.789477 80
-1.4117838 1.5754089 1.7960414 78.666664
-1.3453468 1.5171349 1.7921909 84
-1.3798834 1.7506577 1.7921939 78
-1.3040439 1.716526 1.7957605 76
-1.5872576 1.8285352 1.7828091 74
-1.2883918 1.8852949 1.7944001 62.333332
-1.2796977 2.0166085 1.7908769 71
-1.2382088 2.1820416 1.7967399 70
0.23046641 2.5352283 1.7530172 30.799999
0.33737445 2.5230153 1.6898891 29.666666
-1.0161285 2.6569867 1.794494 7
-0.54866958 2.6348817 1.7719282 25
-0.32885692 2.6079497 1.7264106 30.4
-0.25629017 2.5965633 1.6706136 29
-0.0034992278 2.567498 1.7820796 33
-1.6145194 3.215766 1.7903599 63
-1.5703554 3.3839021 1.7903924 57.5
-1.5585169 3.4708834 1.7863952 51
-1.5146999 3.6103196 1.7953387 27
-1.4320947 3.8516567 1.7988485 62
-1.6955348 3.9271808 1.7886544 57
-1.4223483 3.9825873 1.7928079 55.5
-1.8101338 4.122817 1.777588 54
-1.9332992 4.3457866 1.7720457 46
-1.5752499 4.407979 1.7953008 53
-1.3228614 4.4331512 1.7971646 50
-2.0828714 4.6060481 1.7674938 38
-1.6817417 4.6485553 1.7833468 48
-1.2383209 4.5643997 1.7998942 51
-2.1920996 4.6797824 1.7256655 6
-1.8023427 4.937747 1.7819535 44
-2.262429 5.0229592 1.7645839 22
-2.2008753 5.1619601 1.7636825 33
-2.1492963 5.3042769 1.7712401 33
-1.9405541 5.2527266 1.7717379 35
-1.524456 5.270278 1.7921258 44
-2.1129606 5.4765887 1.7777992 26
-2.3981175 5.5937243 1.7644404 28
-1.6309484 5.6253376 1.7888268 31
-2.1861911 5.8366532 1.7693859 28
-2.0956988 5.9725361 1.7658795 27
-2.5949187 6.0048656 1.7485107 28
-2.0215399 6.1300411 1.778859 29
-1.7624381 6.0354247 1.7802359 30
-1.960288 6.3154035 1.7871021 32
-2.8286252 6.5128374 1.7438434 24
-2.3024766 6.4868283 1.7680022 32
-2.0725665 6.8451595 1.7663306 29
-2.50634 7.0343094 1.7561392 23
-1.9559965 7.0033565 1.7717055 22
-1.5315031 6.99997 1.7911915 34
-3.103456 7.0821714 1.7154373 19
-1.8494054 7.159873 1.7857202 35
-1.7550834 7.3411489 1.7923535 27
-3.2597368 7.3986669 1.7364324 10
-3.2460988 7.588232 1.7223641 22
-2.1689703 7.6038442 1.7665058 25
-3.4095445 7.7799959 1.7107445 23
-2.7337217 7.6567879 1.7385112 27
-1.9258991 8.2224045 1.7778591 27
-2.3856003 8.387145 1.7668301 25
-1.7640815 8.3645353 1.7827109 26
-3.3485215 8.4375687 1.7066926 22
-3.0287929 8.4507675 1.7118994 17
-1.6158495 8.500988 1.7962366 28
-3.2812266 8.6435966 1.7080818 21
-3.2317989 8.8781862 1.7231473 23
-3.2032773 9.1453266 1.724161 19
-1.9901648 9.1231976 1.7723292 28
-2.6018317 9.1720448 1.7337776 25
-3.4730864 9.5330067 1.7121333 18
-2.1780837 10.079371 1.7470027 22
-1.6942267 10.057331 1.7742962 25
-1.4746763 10.157375 1.7788423 29
-2.9284856 10.333626 1.7133962 10
-1.2739165 10.23266 1.7900928 8
-3.8796809 10.638716 1.6924845 8
-3.4456234 10.594341 1.7073365 13
-3.3208842 10.799224 1.7082905 13
-3.2236063 11.058938 1.7291569 12
-3.147409 11.36711 1.7331578 14
-2.4146025 11.300558 1.7316288 6
-1.7300673 11.28066 1.7812384 14
-3.5222633 11.969408 1.6864902 5
-1.8574088 12.336987 1.6964556 19
-3.3780453 14.167797 1.7106069 7
-0.29713711 -0.75188327 1.82297 34
-0.97889841 -0.66665483 1.8101097 96
-0.82910508 -0.6629914 1.8126332 77.25
-0.65242469 -0.67340517 1.8203121 74.833336
-0.53520989 -0.67211139 1.8256273 75.875
-0.37261146 -0.66175902 1.838261 71.400002
-1.400293 -0.48583269 1.8027835 93.666664
-1.2828618 -0.52996552 1.8081592 75
-1.1005385 -0.54273003 1.8058678 85.25
-0.95939755 -0.53313756 1.814455 83.166664
-0.83496541 -0.53308058 1.819347 84.5
-0.67807329 -0.52687752 1.8232645 84.599998
-0.54004854 -0.53176427 1.8302356 83.85714
-0.38225985 -0.54515207 1.8473606 60.333332
-1.2060467 -0.43798268 1.8025142 74
-1.1157157 -0.3766582 1.8048964 80
-0.97585315 -0.37652093 1.8087746 81.14286
-0.81624985 -0.35678729 1.8145959 81.85714
-0.6715616 -0.37791488 1.8210597 75.333336
-0.53685099 -0.36991474 1.8464919 73.166664
-0.41639256 -0.40925977 1.8334218 79.333336
-1.5304502 -0.17462914 1.8935686 58
-1.4125406 -0.19040477 1.9012797 108.5
-1.2688307 -0.18247391 1.9043208 102
-1.1313961 -0.23242564 1.8858364 92.25
-0.95912272 -0.23099284 1.9115325 74.5
-0.80212861 -0.22413 1.8944328 76.714287
-0.67040628 -0.23707618 1.9167014 75.875
-0.51635563 -0.22514017 1.9324423 76.800003
-0.44530568 -0.28856677 1.9380087 74
-1.5218614 -0.10180517 1.8948642 62
-1.4373511 -0.06231977 1.9016589 97.5
-1.2796904 -0.044413805 1.9053469 103
-1.1197652 -0.084169991 1.9117072 91.5
-0.95595086 -0.079231307 1.9153527 80.5
-0.82850969 -0.069196776 1.9188241 86
-0.69190603 -0.072907589 1.9246624 75.454544
-0.51549894 -0.072346322 1.9304068 75.199997
-1.4398328 0.10996142 1.8981384 92.666664
-1.2858043 0.093293615 1.9057971 108.66666
-1.1168121 0.078663707 1.9104937 95
-0.96454841 0.073946632 1.913443 79.599998
-0.82489234 0.063979529 1.9191375 77.166664
-0.67777807 0.068676315 1.9235624 75
-0.49969935 0.083764017 1.9292303 80.666664
-1.3759354 0.23253837 1.9050959 96
-1.2858472 0.23315577 1.9071188 97.333336
-1.1344395 0.23732689 1.9118205 100.75
-0.95882767 0.2074669 1.9134704 67.166664
-0.80991495 0.2197246 1.9273196 51.666668
-0.6646449 0.22404303 1.9340038 52.375
-0.53907025 0.2318487 1.929527 70.5
-1.3647021 0.3737469 1.900612 89
-1.2792062 0.37302768 1.9058803 92
-1.1320195 0.37090418 1.9151411 97.5
-0.96432298 0.35565984 1.91052 69.333336
-0.83046359 0.3867144 1.9261228 53.142857
-0.69619137 0.37054864 1.9275514 53.42857
-0.52085674 0.37626749 1.9342808 64.599998
-1.353211 0.51619995 1.9041473 85
-1.2665926 0.53336877 1.9096342 89
-1.1222655 0.50586724 1.9141448 96.25
-0.95413274 0.52381051 1.9175355 82.400002
-0.82298923 0.53201145 1.9179047 69
-0.66610199 0.52511013 1.9219477 68.599998
-0.54799074 0.5202195 1.931774 68
-0.44296649 0.57423609 1.9378294 72
-1.265955 0.69332641 1.9073548 88.5
-1.1328298 0.66172957 1.9166356 89.25
-0.9843924 0.69739801 1.9192772 93
-0.81400758 0.6743896 1.9265126 92.5
-0.67522722 0.66594338 1.930141 88.333336
-0.53383851 0.6947102 1.9369426 83.333336
-0.42416865 0.66978568 1.9459611 88
-1.402334 0.76041192 1.900982 90
-1.2569256 0.84840137 1.9075271 91
-1.1246526 0.8215993 1.9131472 89.25
-0.95519328 0.82999247 1.9226093 87
-0.81207728 0.81524199 1.9282118 93.166664
-0.68606377 0.82405615 1.9339542 88.875
-0.52403021 0.8302263 1.9411768 92.199997
-0.40013206 0.76417714 1.947364 95
-1.5883589 1.0403059 1.8121377 44
-1.3730041 0.92010838 1.9010242 97
-1.2459369 0.9974041 1.9048927 89.5
-1.1125402 0.97416908 1.9123348 82.199997
-0.97616309 0.94576555 1.9163903 84
-0.81678021 0.97450238 1.92637 81.428574
-0.66625392 0.99657172 1.9433436 72.666664
-0.50961989 0.96238089 1.9458603 83.599998
-0.42553556 0.98720312 1.9482583 82.5
-1.2896478 1.0957375 1.9040568 92.5
-1.1239299 1.1623595 1.9107044 88.75
-0.99766845 1.0870253 1.9199563 85.333336
-0.81376123 1.1278787 1.9253515 82.666664
-0.67255741 1.1123551 1.9349825 78.428574
-0.53029728 1.1151588 1.941988 79.199997
-0.41695085 1.1167685 1.9459951 79
-1.2923262 1.2476674 1.8989056 91
-1.1268646 1.2740636 1.9092745 84.666664
-0.98668402 1.2417709 1.9186376 79
-0.82225347 1.2381643 1.9272461 79
-0.66944665 1.2721195 1.9319756 74.400002
-0.5438239 1.2539923 1.9384356 77
-0.37816793 1.2795812 1.9437943 75.5
-1.2894661 1.4122487 1.8951082 55.5
-1.1054879 1.4057364 1.909629 80.666664
-0.97662604 1.3975997 1.9135798 79.5
-0.82134682 1.3705742 1.9198626 72
-0.67613852 1.4140038 1.9295492 73
-0.52253062 1.4036409 1.9376832 74.833336
-0.37484637 1.4404942 1.9427557 72.166664
-0.23506041 1.4194703 1.9484091 71.666664
-1.2815965 1.6012326 1.9013318 82
-1.1096281 1.5737909 1.9078164 76.666664
-0.97376567 1.5705351 1.9132544 77.333336
-0.83167285 1.5474097 1.9178953 72
-0.66174197 1.5413892 1.9272412 75
-0.53437197 1.5700502 1.9342011 69.5
-0.3683182 1.5868902 1.9447347 73
-0.26388735 1.5628939 1.9449879 70.400002
-1.2058834 1.7937294 1.8984252 75
-1.110688 1.7817403 1.9059635 69
-0.9803884 1.7372426 1.914358 70
-0.84903228 1.7388581 1.9203641 69
-0.67519766 1.6723979 1.9266611 62
-0.51285923 1.7177324 1.9354677 70
-0.42052832 1.7030765 1.9392405 70
-0.25127444 1.7027721 1.9477154 71
-0.92704058 1.9137746 1.9150313 66.5
-0.84057736 1.8899331 1.9189194 64
-0.67264867 1.8685 1.9241918 65
-0.53786129 1.8345993 1.9336483 68.5
-0.36641893 1.8633265 1.9398898 67.5
-0.20081095 1.8840563 1.9481146 70
-1.1225801 1.9985652 1.9020866 69
-1.0295292 1.9714774 1.9080395 59
-0.79191542 2.0194845 1.9195333 63
-0.74035031 2.0634878 1.9217597 64
-0.52703828 2.0152094 1.9317335 60
-0.33440247 2.0145986 1.9412881 66
-0.26954591 2.0375569 1.9460789 61.5
0.23990513 2.0944963 1.8693191 23
-0.98103809 2.1951833 1.9124436 65.5
-0.85773093 2.1271217 1.9178458 58
-0.69399869 2.2000976 1.8978465 48
-0.40997273 2.1843238 1.934841 53.5
-0.22345299 2.1783955 1.8910562 41.5
-0.09764041 2.2002213 1.8650844 46.75
0.040819686 2.1358149 1.8566853 46
0.21197346 2.1412642 1.8647435 45
0.35398254 2.1708469 1.8803629 56.875
0.54158831 2.2118244 1.8860841 61
-1.2342864 2.2700772 1.9101361 31
-1.16416 2.3196406 1.8045827 42
-0.84588444 2.3024888 1.8163096 56.5
-0.66459453 2.2546463 1.8855119 37
-0.55636668 2.3363395 1.8301885 57.25
-0.30742386 2.290098 1.837731 56
-0.062686816 2.3406262 1.8588685 52.5
0.047049474 2.36812 1.8723726 49
0.19005679 2.2823839 1.8702537 70
0.37562856 2.2941759 1.8805075 58.666668
0.50243777 2.3365076 1.8837712 62.57143
0.67405766 2.359272 1.8911648 60
-1.1154256 2.4686613 1.8073388 59.666668
-0.65967011 2.4548421 1.8290634 55
-0.4687081 2.5033312 1.8375325 55
-0.44383126 2.5024531 1.8413354 52
-0.1586652 2.4770374 1.851106 58
0.095342502 2.4930999 1.8562858 34
0.20475741 2.5207727 1.835628 9.5
0.35338241 2.417835 1.8743712 60
0.53732026 2.4620724 1.8643225 28
0.64447308 2.4651904 1.8599749 14.6
0.81422526 2.4430063 1.8684189 14
0.94878465 2.5440416 1.8972985 12
-1.0560814 2.617198 1.8054601 4
-0.76165527 2.5594811 1.8243219 57
-0.47772729 2.5831442 1.826441 21
-0.39551216 2.5762095 1.8262178 13
0.70229906 2.6083448 1.893181 12
0.82802421 2.6330616 1.8955399 11.5
0.99838686 2.6419427 1.9051362 9
1.1200849 2.6502299 1.9035299 9
-0.9839685 2.8020799 1.8210372 17
0.7329976 2.7009249 1.8963603 9
1.0105242 2.749063 1.9075484 10
1.1143054 2.8471978 1.908935 10
1.2601994 2.7590511 1.9195566 10
1.4185171 2.813643 1.9329069 10
-0.92620766 2.9320641 1.8133595 58
1.1780809 2.8552995 1.9243995 10
1.2516183 2.9249389 1.9218603 10
1.4874754 2.9646175 1.9378473 11
1.5925406 2.9243569 1.9396278 10.5
-1.6601276 3.1223369 1.8091666 6
-0.90855902 3.0011985 1.8151549 67
-0.85771096 3.0824046 1.8147563 60
1.4155383 3.0576019 1.9354006 10.4
1.5561395 3.148783 1.9409183 12
1.6802719 3.1337154 1.947153 8
-0.80726755 3.1878128 1.8207618 60
1.6197618 3.2069623 1.9421486 8.333333
1.7397211 3.258553 1.9476398 7
-0.77112293 3.3097088 1.8268353 67
-0.71158403 3.4133387 1.8237289 4
-1.4712814 3.7296112 1.8005401 50
-1.3333522 4.1843181 1.807907 57
-1.2788159 4.317575 1.8115741 58
-1.1602391 4.6807528 1.8060037 52
-1.0868366 4.8160267 1.8096331 56
-1.4270083 4.9738026 1.805971 59
-1.1568923 5.0560684 1.8081096 48
-1.0500808 5.1752725 1.8091856 46
-0.95134753 5.2988119 1.8198525 46
-0.85444707 5.40481 1.8146347 22
-1.2470617 5.6790419 1.8292431 68
-0.9373309 5.7767034 1.8069352 31
-1.3222003 6.0097108 1.8000926 37
-1.4144803 6.4679132 1.8004972 31
-1.0045491 6.45469 1.8259064 33
-1.0630714 6.9331503 1.8149763 34
-1.1280583 7.4888363 1.8063587 26
-1.2211654 8.2323856 1.8082739 26
-1.4828408 8.6914196 1.8078958 27
-0.37146968 0.86167806 1.9504873 96
-0.71492738 0.9356612 1.9505886 60
-0.56709361 0.96817291 1.9546661 77
-0.3374638 0.9633953 1.9583739 83
-0.36616629 1.1713493 1.952719 73.5
-0.2752746 1.1140126 1.9521762 77.5
-0.3355248 1.2670544 1.9502221 69
-0.24627638 1.2880116 1.9543475 74.5
-0.3235417 1.3936868 1.9527191 72
-0.23299029 1.420512 1.9504902 69.5
-0.10726354 1.4401824 1.9541034 66.5
-0.16792007 1.5957112 1.9525524 72
-0.12513499 1.5935994 1.9527389 71
0.0025771677 1.6125852 1.9551941 80
-0.17950304 1.7388639 1.9535617 68.5
-0.071010254 1.7236022 1.9575815 69.666664
0.089006111 1.7389269 1.9637724 62
-0.1551743 1.8779796 1.9529873 66
-0.068291128 1.8834492 1.9548166 69.800003
0.041373216 1.8635805 1.9608597 70
0.1874022 1.8673501 1.9707412 65
-0.22340292 2.0416725 1.9528552 62
-0.061985344 2.0544879 1.9565048 71.5
0.088865265 2.0190263 1.9618088 68.85714
0.22608127 1.9948411 1.9700047 65
0.30998939 2.078846 1.9700409 70
-0.17312939 2.1560154 1.9534169 66.5
0.087721094 2.1538703 1.9646128 47
0.20773807 2.1267922 1.9741807 70.25
0.41951084 2.1282165 1.9732355 12
1.7731521 3.1204536 1.9547967 12
1.8668147 3.0601501 1.9597551 10
2.0770481 3.2851822 1.9624957 9
1.9455826 3.3726513 1.960574 7
2.2809024 3.5379975 1.9687392 8
2.0997686 4.0585494 1.9695348 1
