# .PCD v0.7 - Point Cloud Data file format
VERSION 0.7
FIELDS x y z intensity
SIZE 4 4 4 4
TYPE F F F F
COUNT 1 1 1 1
WIDTH 139
HEIGHT 1
VIEWPOINT 0 0 0 1 0 0 0
POINTS 139
DATA ascii
0.28219986 -2.6035409 -0.76843619 6
0.21236286 -2.4859891 -0.77287436 4
0.13735624 -2.317524 -0.77424949 12
0.28176355 -2.3315909 -0.77147025 4.6666665
0.31202328 -2.3261354 -0.77428025 4
0.54062778 -2.2272277 -0.76665545 5
1.3469123 1.8307415 -0.78274351 6
1.6928772 1.9082522 -0.76858824 5
1.4296889 2.0211961 -0.78148246 6
1.6100992 2.0936346 -0.77623612 3
1.0217389 2.1035173 -0.80050766 10
1.4747583 2.1909282 -0.7856586 5
2.0516644 2.2297614 -0.75814849 10
1.2085795 2.3189342 -0.79554862 6
1.4894955 2.289464 -0.78506553 6
1.5683231 2.3757718 -0.78593779 6
1.5807788 2.4567919 -0.78429961 6
1.9714701 2.4610102 -0.77094972 7
1.6661302 2.6686025 -0.78386641 7
1.9334979 2.7831254 -0.78170347 5
1.7495627 2.8827105 -0.78961849 5
2.4350455 2.9201598 -0.75610334 10
1.8031621 3.0658193 -0.7880336 8
1.8732846 3.2046745 -0.78540659 6
2.3805265 3.2854593 -0.7647903 7
2.0019786 3.5713408 -0.78283453 6
2.392144 3.816525 -0.77173704 3
2.1659942 3.964087 -0.78580368 23
-0.090039983 -2.769335 -0.61940825 47
0.27960101 -2.6104136 -0.63814187 88.5
0.35696188 -2.580919 -0.65012413 61
0.54759884 -2.4867218 -0.6105026 37
0.068780646 -2.2659118 -0.65633398 7.6666665
-0.02488244 -2.2459583 -0.63202167 43.5
0.018773969 -2.2419534 -0.61557817 33.5
1.465838 -1.5690863 -0.73459148 5.5
1.7158635 -1.5365893 -0.73313999 1
2.357873 -1.2519816 -0.63726282 3.3333333
1.9442854 -1.107111 -0.73063833 0
2.5595973 -1.1578879 -0.70759225 6
2.0816028 -0.94460052 -0.72577405 7
2.2510431 -1.0052495 -0.71709639 6
2.4274983 -0.9768548 -0.71470571 6.5
1.9457541 -0.85459453 -0.72504646 6
2.0682023 -0.74432045 -0.6913361 6
1.8503144 0.70172757 -0.64678746 40
1.7150263 0.99634582 -0.65673566 31.666666
1.6397611 1.1527566 -0.63624716 37.333332
1.6728275 1.0786275 -0.60931754 36
1.5898042 1.2534945 -0.62852484 35
1.4509952 1.4676719 -0.6883598 3
1.545367 1.3510693 -0.60451502 38
-0.17002687 1.7922599 -0.61250317 78.599998
-0.14555161 1.7941122 -0.62111121 86
-0.14345108 1.8010696 -0.62298715 81
0.068554588 1.8967149 -0.63826162 80.599998
0.25170925 1.9782434 -0.66747558 73
0.32609999 2.0132449 -0.63378394 11
0.47112334 2.0866549 -0.62043631 34
0.60593373 2.053791 -0.70984828 0
0.53249454 2.1066823 -0.67577964 28.666666
0.67119259 2.174567 -0.66080922 29.666666
1.0096344 2.3029521 -0.69411868 1
3.9257331 3.8283122 -0.71550393 1
2.081156 3.9728975 -0.72319949 26
2.1580551 3.9744818 -0.61783296 59
3.0189562 3.9859564 -0.74461097 4
3.8839524 3.9685104 -0.71316075 1
2.7851291 4.2783756 -0.71321541 54
2.8908539 4.3098841 -0.6101374 50
4.7165809 4.6994166 -0.67399001 13
4.6237326 4.8350677 -0.63691431 31
5.2574224 5.9456854 -0.64055359 9
-0.19564109 -2.7867737 -0.48323622 65.666664
-0.10759683 -2.7751799 -0.53133094 60.25
-0.2484038 -2.6875973 -0.46950701 47.666668
0.21642783 -2.6185589 -0.5247153 70.599998
0.342729 -2.5825987 -0.56050295 85.333336
0.43216079 -2.5416198 -0.59803629 21
0.56550241 -2.4774132 -0.48452213 45
0.65259981 -2.4386911 -0.53683394 89.75
-0.095386751 -2.2901907 -0.53263062 6.8000002
0.084203124 -2.2783337 -0.51570684 5
-0.020568069 -2.2353382 -0.55407888 65.5
0.031518754 -2.2436619 -0.56054366 29.5
2.4381351 -1.1920698 -0.59428394 3
1.8226097 0.74396288 -0.57315797 44
1.7219067 0.96171594 -0.5480901 40
1.6230267 1.1827542 -0.54369634 36.5
1.6677277 1.0804995 -0.51200598 37.5
1.5752645 1.2878981 -0.54840356 37.166668
1.4888992 1.4808345 -0.52461213 18.5
1.5145168 1.4228181 -0.52978849 37
1.4416921 1.5037618 -0.49007231 3
-0.36841157 1.7015337 -0.48410279 84.428574
-0.25291261 1.7548482 -0.52607864 80.92308
-0.087067649 1.830181 -0.53866434 77.090912
0.060477566 1.8947419 -0.52563292 81.666664
0.29766613 1.8457266 -0.55693913 1
0.21259773 1.968854 -0.50508392 77
0.34286904 2.0163612 -0.52958161 22
0.48528707 2.089092 -0.55799741 34
0.54050523 2.1124904 -0.52690554 32
0.60054719 2.1407881 -0.49774522 34
0.80249459 2.2400184 -0.59239203 33
1.0067463 2.2464292 -0.56537271 0
0.86001992 2.2704368 -0.47657973 33
0.97405827 2.3134136 -0.5184772 16
2.2652524 4.0325298 -0.53048187 59
4.7364974 4.5480819 -0.59905815 105
4.9527979 5.8161569 -0.482265 38
5.2737355 5.9013739 -0.55186862 7
-0.2022243 -2.783536 -0.4382005 51
-0.13903841 -2.7961006 -0.4361738 84
-0.29545632 -2.5854893 -0.43934342 54
0.26736093 -2.6117365 -0.42634827 97
0.52270281 -2.4986098 -0.40499717 18
0.63767111 -2.4443617 -0.42056939 86
-0.078117043 -2.2527418 -0.44896388 15
-0.038840801 -2.2300539 -0.42322096 73
0.035397362 -2.2313209 -0.43398491 18
1.7802472 0.86553144 -0.42176822 5
1.6087731 1.2064286 -0.43728334 37
1.4962184 1.432488 -0.41517094 32
-0.35404214 1.7082924 -0.43097353 81.85714
-0.21732001 1.7756263 -0.43470159 78.333336
-0.15354659 1.8020766 -0.42215484 71
-0.11698225 1.8140213 -0.40745151 77
0.095612988 1.916427 -0.40797603 75
0.30521387 1.8315893 -0.42849305 0
0.16519625 1.9516481 -0.43443984 84
0.42975044 2.0679045 -0.41480547 17
0.73143047 2.2179363 -0.40786192 36
0.775729 2.2310727 -0.4402841 34
0.88144523 2.2765706 -0.44702756 26
0.94618493 2.307507 -0.40442705 25
2.3830452 4.08847 -0.44493812 67
4.7312183 4.5476723 -0.40987486 102
4.6114063 5.6719484 -0.43729514 35
