# .PCD v0.7 - Point Cloud Data file format
VERSION 0.7
FIELDS x y z intensity
SIZE 4 4 4 4
TYPE F F F F
COUNT 1 1 1 1
WIDTH 1199
HEIGHT 1
VIEWPOINT 0 0 0 1 0 0 0
POINTS 1199
DATA ascii
0.29346257 -2.1039104 -0.19983408 14
0.14813377 -1.9550669 -0.19156374 1
0.091881715 -1.1696219 -0.17740789 7.5
-0.20302916 -0.75561059 -0.17296532 4
-0.60901552 -0.67402405 -0.15142453 4
-0.52286291 -0.65053087 -0.17000178 4.5294118
-0.35315916 -0.69023079 -0.18026625 5
-0.25703511 -0.73229522 -0.17775972 4.4000001
1.6826668 -0.70568931 -0.18609855 32
1.7044791 -0.53640819 -0.16966879 38.333332
0.073327318 -0.38060847 -0.17910898 1
0.16966723 -0.41847077 -0.18953727 1
0.31966433 -0.38511202 -0.1879202 0
1.7204224 -0.38532224 -0.19066012 43.5
1.7558521 -0.20667817 -0.1636183 34.5
1.7751336 -0.039488047 -0.17630614 35
1.7863805 0.072765179 -0.17910759 38
1.8103383 0.18942027 -0.17464359 23
-0.57375777 0.89302379 -0.15030056 10
-0.37986645 0.78730994 -0.17769848 11.3
-0.53882408 0.91741192 -0.17867893 12.666667
-0.24495152 0.92992985 -0.16121218 12
1.6661459 1.1909128 -0.15871157 23
1.8538985 1.1412914 -0.18389684 12
0.70821172 1.335286 -0.1894422 61
1.0235767 1.2890197 -0.16851036 61
1.289439 1.2475206 -0.1732484 31
1.4685524 1.2216666 -0.17964977 25.5
1.574386 1.2100441 -0.17384261 23
-0.011587027 1.4405971 -0.16752864 15.5
0.075986527 1.4272685 -0.17986445 15.2
0.173048 1.4129469 -0.17918219 16
0.44900697 1.3760123 -0.18700606 85
0.53534681 1.3627796 -0.17818844 65.333336
-0.90132648 1.5579331 -0.16135427 71
4.5180202 1.8305111 -0.15032718 31
6.4182658 1.8334833 -0.16812955 8
3.6245923 1.9600673 -0.16238314 29
1.1063703 -2.5022423 -0.138946 21
0.2752037 -2.1236858 -0.050178591 0
0.33285841 -2.1354666 -0.10383207 11.666667
0.13313119 -1.952617 -0.14140524 0
-0.0027519942 -1.4356073 -0.092610605 1
0.051291376 -1.4464762 -0.09425167 5.5
0.39912203 -1.4091032 -0.086380251 5
0.40323097 -1.2837296 -0.084226094 5
0.48728061 -1.2530113 -0.08349324 11
-0.016272921 -1.1530764 -0.11508802 0
0.0540227 -1.1373287 -0.12339824 6.6666665
0.29198378 -1.0734106 -0.087841131 1
0.33726251 -1.054885 -0.086236514 1
-0.18258245 -0.91754413 -0.092349149 6
-0.09099675 -0.96497744 -0.099678501 1.75
-0.15097243 -0.88556665 -0.096563227 9
-0.020407524 -0.86332911 -0.088677071 4.75
0.040570877 -0.84481215 -0.094728015 4.3333335
1.6646079 -0.79641569 -0.058713786 4.75
-0.62777644 -0.67683399 -0.11410644 3.5999999
-0.51427358 -0.63920975 -0.10844067 4.1333332
-0.3857576 -0.68054688 -0.11885504 5.0714288
-0.28015065 -0.72556502 -0.13861513 4.3333335
1.6815783 -0.68551505 -0.07767988 34.599998
1.7010649 -0.52912396 -0.058298539 35.57143
-0.010940093 -0.36642164 -0.086865552 3
0.077487834 -0.3703922 -0.11138064 1.5
1.7197887 -0.37984306 -0.060867295 36.666668
1.7436129 -0.22103636 -0.05508871 37.200001
1.7680637 -0.070043758 -0.070412405 34.57143
1.7892802 0.059029497 -0.064830534 32.57143
1.8033836 0.12564948 -0.140256 33
1.7820866 0.23267546 -0.081274129 3.5
1.8052621 0.1648715 -0.055300888 31
-0.47317407 0.87515503 -0.077937625 12.857142
-0.36838457 0.80837393 -0.074518576 11.956522
-0.27174452 0.84467936 -0.1068811 8
-0.54693061 0.92193669 -0.082548149 10.692307
-0.25179452 0.92025316 -0.13057689 8
-0.90297425 1.1580806 -0.038486544 7.5
-0.89461458 1.1627622 -0.065002389 49
1.0254917 1.1517284 -0.10095573 0
1.7911668 1.1820157 -0.10051676 17
6.2237096 1.1892256 -0.042590145 90
0.67485321 1.3374444 -0.02525208 65
0.83815944 1.3140391 -0.041514874 63.42857
0.98281002 1.2926576 -0.05770405 62.5
1.0917349 1.2699276 -0.10182121 50
1.2833986 1.2487532 -0.10437652 22.5
1.4394494 1.2285695 -0.12400983 23.666666
1.5929487 1.205431 -0.07414154 18.5
-0.17159568 1.4506792 -0.039319698 15
-0.086384006 1.4454633 -0.075914733 15.230769
0.065626502 1.4266777 -0.097823024 15.8
0.24481916 1.4024607 -0.037117839 20.625
0.37636858 1.3845341 -0.09049727 33.384617
0.49511957 1.3684992 -0.12803768 59.666668
0.6099689 1.3505241 -0.14688911 74
-0.98216724 1.5662423 -0.059235334 61.666668
-0.86347085 1.5495343 -0.079452597 62.099998
3.8204596 1.9107339 -0.10924745 56
4.0149636 1.8986613 -0.10869128 47
4.3274965 1.8359069 -0.1405773 43
3.5969241 1.9578278 -0.066380538 37
9.682786 3.2347345 -0.070379354 48
9.983942 3.4556735 -0.0039122151 42
1.1560489 -2.6697834 0.13845289 2
1.133801 -2.4812727 0.028774958 40
1.2375835 -2.5171697 0.04177402 23
0.066741168 -1.1339593 0.03342462 4.6666665
0.17236783 -1.1312723 0.029779786 11
1.6606928 -0.79050678 0.07376723 18
1.6753678 -0.68152231 0.077704281 34
1.6958438 -0.53168803 0.077965528 36.363636
1.7162317 -0.38370141 0.065571442 36.599998
1.7408539 -0.22518431 0.073507965 35.444443
1.7638108 -0.076441675 0.079669304 33
-1.1243259 0.095835194 0.12555695 0
1.7850381 0.066484459 0.072501786 31.857143
1.8015635 0.12629679 0.0423561 31
1.782012 0.22092487 0.083783656 9
1.8026828 0.16389479 0.034286242 35.5
-0.48124725 0.8546266 0.055890147 10.714286
-0.35345465 0.83942968 0.084079638 9.625
-0.27622688 0.84647065 0.073118381 7.6666665
-0.61584777 0.96886158 0.023234123 5
-0.55255765 0.9305144 0.075116858 7.6666665
-0.25018591 0.94179446 0.049813982 5
6.1936646 0.92673451 0.079160474 61
-0.90874898 1.1559287 0.079433307 18.5
-0.89496827 1.1640799 0.01974405 50.5
1.7215267 1.1853542 0.077857226 16.75
1.8348196 1.1563125 0.087793402 15
-1.3977187 1.3180475 0.13264781 62.5
-0.93337065 1.2759191 0.1081477 152
0.58380139 1.3453338 0.040237259 68.5
0.67548001 1.3351188 0.061470162 61.5
0.79129553 1.3197807 0.022427561 58.75
0.96014768 1.2917298 0.066839628 58.5
1.0631641 1.2223041 0.059731837 3
1.2568029 1.2527033 0.092785694 23
1.4236462 1.2286299 0.078929096 22
1.5599803 1.2062384 0.087670535 18
-1.3718408 1.4890347 0.11736705 60
-0.17630592 1.4227549 0.023100028 15
-0.032606188 1.4461421 0.11977698 14
0.079338573 1.4245132 0.084379494 16.928572
0.21199079 1.4075874 0.030803632 26.200001
0.39586103 1.3778878 0.13172686 74
0.51965421 1.3580418 0.11025603 71.5
6.4172111 1.3541477 0.1438123 38
-1.2793702 1.6068732 0.10816619 51.666668
-0.96594542 1.5594672 0.089442454 57.75
-0.84376591 1.5425885 0.060699586 63.57143
6.3699059 1.6162679 0.0091030551 2
3.5811825 1.9405061 0.095931523 26
4.0602713 1.8831453 0.060817476 46
6.4932065 2.0666685 0.0810638 30
1.1394265 -2.7066259 0.15214187 1
-1.395733 -1.2086191 0.2802884 1
-1.3875747 -1.0921305 0.2201575 2
-1.3772804 -0.95727634 0.29093796 11
-1.3547865 -0.80869699 0.27497941 10
1.6586988 -0.77629149 0.24586019 16.5
-1.3406328 -0.66748571 0.27806595 11.333333
1.6695404 -0.68029279 0.22179839 32
-1.3122802 -0.49231493 0.26289338 5.5
1.693504 -0.51935315 0.23839031 33.888889
1.7092307 -0.38351938 0.2198481 52
1.7325073 -0.24184982 0.21884684 36.444443
-1.2898216 -0.041475564 0.26038674 1.2
1.7568573 -0.062698565 0.22839268 31.142857
-1.2204599 0.0051846304 0.26911491 0
-1.1723641 0.0830862 0.23106442 0
1.7783034 0.075434268 0.20912993 31.200001
-1.1576707 0.15976027 0.2400281 0
1.7824001 0.19108103 0.21867412 20.5
-1.4753795 0.82994843 0.28738022 16
-0.47181526 0.87609762 0.23669441 7.2857141
-0.39824268 0.85807973 0.18946655 7.9000001
-0.23203167 0.89097023 0.29322258 8
-1.4531718 0.97369576 0.21868086 71
-0.5717268 0.96037567 0.1793142 8.5
-0.25550199 0.94007862 0.29230821 6.75
6.1875925 0.99913198 0.1748634 17
-1.4322486 1.1142201 0.23336491 69.63636
-0.92158914 1.1356589 0.26834375 19.833334
1.0221678 1.1252995 0.19650301 11.5
1.6151147 1.1953461 0.29716593 15
1.7437569 1.1797642 0.21076922 16
1.8395386 1.1588595 0.28925723 0
-1.4154006 1.2417576 0.25238106 62.375
-0.95118016 1.3090492 0.16112697 152
0.58780342 1.3400501 0.29127991 61
0.69093668 1.3264182 0.26220468 54.5
0.84536314 1.3083595 0.24016555 59.888889
0.98532349 1.2858338 0.23832607 56.625
1.0589787 1.2535584 0.22071727 33.333332
1.2940201 1.2449175 0.20968528 19.833334
1.4298397 1.2244362 0.2021677 17.799999
1.5728096 1.2038888 0.19889116 16.333334
-1.3946736 1.3820207 0.24590783 63.599998
-0.15004174 1.4455853 0.2431646 61
-0.086417206 1.4423909 0.21065995 28.846153
0.021668833 1.4356823 0.18442822 16
0.23713075 1.3959929 0.26658303 63.777779
0.36732283 1.3773683 0.203622 67.14286
0.50745296 1.3530955 0.18119577 71
6.4478779 1.4193763 0.23266411 5
-1.3674524 1.5496192 0.22308034 58.272728
-1.2482508 1.6065463 0.21159697 13.333333
-0.95430368 1.556905 0.20233248 57.5
-0.83048469 1.5431992 0.23920627 32.200001
6.2742786 1.7365879 0.23718077 3.5
-1.4125872 -1.2102807 0.42940548 44.5
-1.3973839 -1.1253703 0.36694285 30.875
-1.3799715 -0.98129207 0.37482107 22
-1.3615717 -0.82402688 0.37044087 8.625
1.6578227 -0.75415599 0.34544086 28
-1.341765 -0.67775559 0.37897113 8.4444447
1.6630466 -0.65594238 0.35626373 33.200001
-1.3776195 -0.45512551 0.38317072 6
-1.3262907 -0.53212076 0.37633774 8.3846149
1.6808381 -0.53567749 0.37741587 35.666668
-1.6547157 -0.36533299 0.43401688 16
-1.5348957 -0.42800623 0.43175259 18
-1.4408125 -0.43853518 0.3572197 7
1.7035238 -0.37625372 0.37832353 66.5
-1.6310259 -0.23022895 0.43390989 15.333333
1.7233254 -0.21166295 0.36087644 34.5
-1.5924069 -0.026559612 0.38832843 9
-1.3832088 -0.083750315 0.39017606 6.1666665
-1.2707489 -0.040953152 0.41441822 0
1.7495744 -0.045677021 0.35944706 30
-1.2132357 0.034693617 0.36181876 0
-1.1756507 0.10296923 0.35328218 0
1.7748754 0.082989611 0.36968958 32
-1.2101301 0.25692365 0.37747255 4
-1.1672279 0.17872672 0.36270812 0
1.7843649 0.1708463 0.37836725 29
-1.5163785 0.57768798 0.34639645 15
-1.5081654 0.63503313 0.37498024 23.166666
-1.492108 0.73010778 0.35680598 23.799999
-0.66212821 0.74201691 0.42066771 2
-0.48614785 0.72703665 0.43495426 2
-0.44383344 0.7472167 0.41432273 8
-1.4781727 0.83904332 0.37658989 51.875
-0.65856963 0.80959594 0.41645885 3.2
-0.50126278 0.77217633 0.40269613 2.6666667
-0.35681301 0.84839582 0.36525822 5.1875
-0.26796412 0.87204397 0.31157243 7.4000001
-1.4586626 0.96725971 0.35528499 74.099998
-0.63817799 0.96928442 0.35725287 6
-0.54163909 0.97574723 0.37479761 6.8888888
-0.37153065 0.9280442 0.33656105 9
-0.2275902 0.90076405 0.44658607 6
-1.4382347 1.1028242 0.35666552 67.428574
-0.93013895 1.1068947 0.4100495 1
1.0145535 1.174773 0.38654065 0
1.6071751 1.1950939 0.38934332 15
1.7065606 1.1864222 0.37013522 16
1.8156513 1.1552256 0.41896874 7
-1.4206309 1.2436961 0.37027243 62.833332
-1.057447 1.2845118 0.40947545 9
-0.87350601 1.2340945 0.44046694 37
0.56557518 1.3412372 0.39545146 59.25
0.67163461 1.330495 0.34620297 58.363636
0.81138545 1.3099145 0.36783266 54
0.97531307 1.2853622 0.34382433 51.5
1.0814204 1.2586315 0.38801041 27.5
1.2828783 1.2423037 0.39190859 13.4
1.4355366 1.2235863 0.36709422 15
1.5185578 1.2143688 0.3859432 16
6.6992378 1.2812254 0.37705493 10
-1.3970604 1.4011828 0.39719751 61.166668
-0.16683696 1.4541039 0.30732584 16
-0.039765388 1.4309859 0.44771013 69.5
0.071044505 1.4142448 0.3925263 64.35714
0.18024965 1.399806 0.34178618 68.5
0.42725232 1.3617833 0.42330635 60.5
0.50577611 1.3560419 0.4141888 59.625
-1.37113 1.5668119 0.40026632 62.5
-1.2618006 1.6017908 0.3458178 41.5
-1.0525082 1.5617203 0.30430979 65
-0.98344284 1.5534648 0.37802431 64.666664
-0.81792712 1.5414903 0.37612012 23.5
6.2111588 1.5586573 0.38164139 1
4.5891719 2.1882062 0.31553221 32
9.5059032 3.620744 0.39252865 38
0.01338355 -3.0756068 0.55881232 21
-1.9799654 -2.7936192 0.59980685 71
-1.8653765 -2.8077154 0.52876586 73.5
1.4024309 -2.6672401 0.5837785 20.5
-1.9388154 -2.4995394 0.50225306 39
1.4066763 -2.5195854 0.53008777 20
-1.9190862 -2.3404183 0.57351756 41.5
-1.8758035 -2.0344732 0.51346827 45
-1.8499405 -1.8261626 0.57970911 6
-1.8421224 -1.7742553 0.4607386 62
-1.4081514 -1.1365426 0.54192507 40.57143
-1.3837783 -0.96177715 0.51110619 24.428572
-1.3659275 -0.81435174 0.51017344 12.625
-1.3559333 -0.70195228 0.54899091 8.666667
-1.340299 -0.63896197 0.47626138 8
-1.3800027 -0.45131344 0.4766551 6
-1.326319 -0.52288061 0.50975698 23.285715
-1.6539897 -0.35685825 0.50937742 27.75
-1.6175232 -0.3828558 0.54675406 47.166668
-1.456897 -0.44078255 0.52704209 16.6
-1.634221 -0.21785331 0.53792185 21.428572
-1.5972898 -0.13245359 0.47200418 8
-1.3741167 -0.079845197 0.51332009 4.5
-1.2093719 0.099397756 0.51065415 0
-1.193929 0.088198774 0.46858025 0
-1.1851617 0.23977523 0.49899241 4.875
-1.5321136 0.36265641 0.58884388 61
-1.5223166 0.57373744 0.52199078 29.142857
-1.507779 0.68448704 0.52606523 49.125
-1.4992132 0.68326688 0.48748049 60.5
-1.4844342 0.82254148 0.50992554 71.75
-0.6968559 0.80674249 0.51886034 3
-0.41157329 0.88845509 0.48125303 4
-0.2305371 0.87931663 0.53183478 6.3333335
-1.4650179 0.95935065 0.50573057 64
-0.95937312 1.0375896 0.57479537 150
-0.64706373 1.0102121 0.53456557 4
-0.41120127 0.92623824 0.52592027 5.5
-0.2356627 0.92831379 0.52807069 43
-1.4460058 1.095049 0.49198487 60.833332
-1.256181 1.1780622 0.56028217 152.5
-1.1766552 1.1189889 0.52905554 88.5
-0.95689225 1.1211481 0.50091428 44
-0.88379157 1.1506356 0.50789344 24.75
-0.65160835 1.1020063 0.54246569 56
1.605652 1.1946645 0.51459646 15
1.7254331 1.1798636 0.49589646 13.75
1.8272004 1.1663618 0.50724101 13
-1.4245117 1.2447945 0.48462868 60
-1.2379304 1.2827598 0.54452592 83
-1.1719506 1.3277397 0.51065964 154
-1.0271438 1.2447197 0.46297598 4
0.54524493 1.3419783 0.49694568 55.5
0.68149072 1.3215451 0.55131477 32.166668
0.80824381 1.3023664 0.544653 15.666667
0.96813011 1.284314 0.51075077 46.909092
1.0622265 1.2664629 0.53134686 40
1.2651677 1.2436918 0.51718777 13.333333
1.4108217 1.2242699 0.4926838 14.6
1.5180044 1.2079868 0.47404689 15
-1.3997574 1.3961037 0.4867703 58.333332
-0.90945423 1.3657488 0.56276286 152
-0.84206051 1.476792 0.56515527 30.5
-0.16053781 1.4429703 0.52852631 68.5
-0.072119929 1.431345 0.53725278 64.333336
0.0053490223 1.4220774 0.48925322 67.5
0.25099054 1.3861121 0.57671732 56.142857
0.36045226 1.3721008 0.51384252 59
0.48450816 1.3569918 0.52773297 61.5
-1.3650556 1.5989642 0.49016926 70.5
-1.3282552 1.5999621 0.57025707 81
-1.0544108 1.5503737 0.54396939 82
-0.97064072 1.5540844 0.54249704 36.5
-0.8281706 1.5326607 0.53369832 26.6
3.747155 2.0328093 0.57130945 13
4.3347812 2.2294044 0.46777016 58
4.4778986 2.2175591 0.52552819 49
4.5644355 2.1799343 0.5948934 28
-0.024756063 -3.0752945 0.71911675 22
0.0010412156 -3.062897 0.62605083 23
1.3207285 -2.8957191 0.7445724 0
1.3592974 -2.8743305 0.74009132 4
-1.9824543 -2.7842641 0.66525984 62.5
-1.9022337 -2.8047237 0.70580804 75.599998
1.3766514 -2.7788353 0.67761993 15
-1.9608768 -2.6172276 0.6697852 36
1.3970956 -2.5739565 0.66234267 20
-1.9560431 -2.5297706 0.74754977 34
-1.9338608 -2.4163437 0.70949817 31
1.4161935 -2.4298017 0.67784733 23
-1.9181476 -2.2920496 0.67289054 40
-1.8973759 -2.1706259 0.64891511 34.25
-1.8513918 -1.7885606 0.68443888 7
-1.4239165 -1.2573593 0.6339488 17.5
-1.4089074 -1.1273181 0.65706336 37.5
-1.3905621 -0.95960474 0.70602411 35
-1.371152 -0.80126166 0.66564107 20.666666
-1.3550197 -0.68691212 0.72170955 24.666666
-1.3426911 -0.6223762 0.6556626 17.666666
-1.353121 -0.45724604 0.68458807 1
-1.3310623 -0.51795167 0.67013735 15
-1.6568203 -0.37801909 0.67588425 66.833336
-1.603266 -0.39212227 0.66107565 38.75
-1.4557781 -0.43841609 0.69145328 26.666666
-1.6366636 -0.23021024 0.65248764 56.555557
-1.6268744 -0.14683709 0.72885406 11
-1.3794361 0.014031363 0.64371002 2
-1.2543041 0.093643829 0.65705919 9
-1.1873766 0.045808103 0.70599395 5.6666665
-1.5297128 0.5480051 0.71589243 71
-1.5114319 0.6782552 0.68664563 65.599998
-1.4998072 0.73655522 0.74594939 57
-1.4853749 0.84762126 0.69315767 61.25
-0.39193362 0.86197197 0.71891648 4.8000002
-1.4659058 0.99337351 0.68829972 60.799999
-0.97728205 1.0150172 0.64169699 83
-0.82944995 0.96101105 0.64474648 28
-0.46164474 0.94071096 0.67920715 3
-0.36751959 0.92976278 0.67048168 5.5
-0.24158348 0.94515979 0.60345322 5
-1.4444134 1.1578233 0.69365478 58.400002
-1.1044509 1.1206061 0.64034307 28.799999
-0.99397564 1.1341232 0.65657622 118.8
-0.69221252 1.123907 0.63392985 35.333332
1.6161724 1.1945459 0.68891931 14
1.7243565 1.175423 0.65231681 12.5
1.8329232 1.1500912 0.6036095 0
-1.4207233 1.2961075 0.69613135 52.799999
-1.2080411 1.3290612 0.62384021 49
-0.97612429 1.2319798 0.69080687 152.33333
0.53020537 1.3438857 0.67454219 51.454544
0.66126812 1.3278819 0.64458072 46
0.83948892 1.3007029 0.69698286 48.666668
0.97801763 1.2816055 0.66191036 45.400002
1.0782441 1.2478114 0.68593073 10
1.2699698 1.2410089 0.66573387 12.666667
1.4327598 1.2220721 0.65104556 13.5
1.530712 1.2087775 0.61029631 14
-1.3958896 1.4722723 0.60926646 59
-1.2668868 1.4268739 0.60421789 152
-0.91920644 1.4600046 0.63087547 81.5
0.095589027 1.405979 0.70999002 58.125
0.19237234 1.3936396 0.64751434 59.222221
0.40845716 1.3598942 0.70082879 55.75
0.48376426 1.3525602 0.72856599 53.333332
-1.2998747 1.597506 0.62818366 70.333336
6.0903373 1.7403336 0.60905892 1
3.6701725 1.9940096 0.74150026 7
3.7803519 1.9750326 0.72675133 43
3.9812336 2.0348806 0.63520145 46
4.1568327 2.2817724 0.61172575 1
9.5577841 3.1876495 0.60124224 23
9.6737518 3.266012 0.69467258 38
9.1719522 3.6500566 0.72173405 39
0.042718302 -3.0772398 0.82178056 22
1.2781032 -3.0007715 0.8779068 54
1.290252 -2.9393969 0.81877124 32
-1.9903824 -2.7796333 0.81903696 51
-1.9000576 -2.8039384 0.78756058 81
1.3626163 -2.8076379 0.84519792 18
1.3867261 -2.6381326 0.83429855 22
-1.9426671 -2.4622579 0.75893241 33
-1.8811439 -1.9595368 0.79179227 7
-1.8650494 -1.8582262 0.83312964 41.333332
-1.4268112 -1.2634693 0.88582027 3
-1.4136918 -1.112976 0.83658874 31.428572
-1.390722 -0.94220096 0.79998505 31
-1.3757155 -0.82687491 0.80742532 32.400002
-1.3585153 -0.71733069 0.80665725 39.5
-1.3452543 -0.66789258 0.76437223 29
-1.3543271 -0.50653839 0.76423734 14.5
-1.3345505 -0.51847529 0.77301174 19
-1.661323 -0.36707497 0.82237196 54
-1.5295568 -0.43662646 0.88577926 25
-1.4706776 -0.43882066 0.80591434 25
-1.6442157 -0.24042103 0.82469237 56.25
-1.6285461 -0.10652127 0.86169189 36.333332
-1.2527974 -0.048128258 0.80494618 5.5
-1.1879203 -0.046011813 0.82815552 0
-1.6064069 0.015453501 0.85581422 41
-1.4884816 0.057162277 0.79854441 4
-1.2180986 0.095145933 0.78649521 2
-1.1755019 0.084082298 0.80188423 6
-1.2338674 0.15569063 0.7819227 17
-1.538882 0.52062219 0.86384618 58
-1.8082342 0.61302811 0.82078338 1
-1.5179151 0.65688521 0.80920941 59
-1.5043052 0.76397562 0.79615164 58
-1.4935025 0.83952445 0.81092566 57.333332
-1.0983106 0.8681947 0.89161968 26
-0.96312028 0.87715834 0.86927009 105
-0.87008381 0.84450442 0.81861609 18
-0.46645612 0.84534264 0.82363117 5.25
-0.36672994 0.84156364 0.8026579 3.2222223
-0.28288883 0.89976305 0.85384405 2
-1.4762616 0.95675182 0.79844218 56.25
-1.24549 0.97402877 0.82949924 113.33334
-1.1933062 0.99993622 0.84376299 25
-0.96553123 0.98782283 0.84888583 68
-0.86141002 0.99937594 0.80667031 24
-0.7001996 1.0185279 0.76907891 14.5
-0.32013792 0.94035995 0.77967435 29
-0.29515484 0.92131084 0.83572674 6
-1.4553379 1.0881921 0.80690902 57.333332
-1.2667682 1.1861753 0.8716324 23
-1.1159636 1.0603894 0.76249564 6
-1.4064897 1.2071323 0.80404723 80.5
-1.3484702 1.2168189 0.86169863 10
0.54956675 1.3373402 0.87039012 48.599998
0.65979671 1.3220304 0.79795808 45.666668
0.77382433 1.3057849 0.76096559 47
-0.92059547 1.45288 0.78000343 104
-0.8734228 1.4165595 0.78866732 10
-0.73835689 1.3905302 0.80820549 2
-0.037021983 1.4233183 0.85452074 53.5
0.048038907 1.4121691 0.79508221 56.25
0.24611932 1.3768007 0.86694986 54.833332
0.35559434 1.3650998 0.8088752 53.57143
4.6140208 2.1797502 0.88515365 1
9.7765503 3.015259 0.88546216 31
9.1489525 3.6652322 0.77370334 37
1.2556525 -3.1557386 0.93436611 48
-0.049386878 -3.0635929 0.95230281 1
0.042917859 -3.0704484 0.96846807 24
1.273122 -3.0681672 0.90665162 51
-1.2634282 -2.8937149 1.0207334 22
1.2650952 -2.9581337 1.0085977 43
-1.9919703 -2.781503 0.90748537 33
-1.8586881 -2.8096902 0.92835164 8
1.3529657 -2.8453305 0.95880222 1
1.3965944 -2.4799421 1.0455873 25
-1.9326953 -2.3072906 0.9684974 15.5
-1.9102368 -2.151773 0.98027277 28
-1.897527 -2.0538151 1.0411357 32
-1.8729407 -1.8884048 0.95364159 38.666668
-1.8603351 -1.7769281 0.93099058 32
-1.4332471 -1.2440281 0.99972361 19.5
-1.3992616 -1.0200462 0.95040846 32
-1.382787 -0.82484525 1.049275 31
-1.3573346 -0.6459986 1.0070146 35
-1.338299 -0.50626314 0.98336589 31
-1.6654526 -0.35647726 0.97694254 48.599998
-1.5778494 -0.4255906 0.96505624 24.666666
-1.6510497 -0.25310016 1.01845 48
-1.6429758 -0.20679478 0.96214342 50
-1.6234457 -0.07075043 0.96602029 52.799999
-1.6140676 0.033273228 0.93831319 11
-1.5568342 0.25562692 0.96720546 28.5
-1.5579956 0.40380967 1.0151706 31
-1.5412763 0.53038806 0.96473384 55.666668
-1.5223179 0.68579292 0.97768074 55.5
-1.5065987 0.77168941 1.0121551 55
-1.4977453 0.85798341 0.94058931 56
-1.0242254 0.87072223 0.97308075 114
-1.4795325 0.94983315 0.97586054 56
-1.3066623 1.0394925 0.93372202 151
-1.0841393 0.92033118 0.96850884 53
-0.96188867 0.94389284 0.99138373 31
-0.7839728 0.99283928 0.98627633 17.333334
-1.4606191 1.0991337 0.98460585 56
-1.2464008 1.1207105 0.96063101 152.75
-1.1383816 1.1399404 0.95701116 19
-1.0034177 1.1010191 0.95618027 6
-0.79478717 1.0796263 0.96518558 52
-0.69733477 1.1932417 0.99262524 62
0.44110793 1.3480699 0.95424795 49
0.47553086 1.3478667 0.92713839 48
-0.076894045 1.4231246 0.95625257 52.57143
0.11204392 1.3925437 1.0069531 53.799999
0.20299177 1.3825357 0.97820634 52
0.37714338 1.3598491 0.98661596 50.200001
3.9574678 2.1418378 1.0285586 18
4.5126019 2.1927147 1.0432032 46
9.6756926 3.5768547 1.0134348 38
8.5760212 3.7260599 1.0174403 35
1.2319081 -3.197639 1.1185573 46
-0.045424748 -3.0676174 1.1052271 22
-1.7214315 -2.8711114 1.0964268 5
-1.3193592 -2.9127071 1.1010274 16
1.300662 -2.9340897 1.0924449 26.5
-1.9832917 -2.7821198 1.1178963 13.333333
-1.9852182 -2.6169643 1.1292711 18
1.3953981 -2.5942972 1.1430316 18.333334
-1.9655612 -2.4897363 1.0927242 26.5
1.3836107 -2.4914854 1.1649147 24
-1.9271444 -2.2758121 1.0541064 32
1.4251952 -2.3550732 1.1078342 6
-1.8949428 -2.0454006 1.1032217 32
-1.8844631 -1.9452726 1.1883106 32
-1.4057739 -0.98809755 1.1269825 32
-1.3810105 -0.80830598 1.1227168 28.5
-1.3641517 -0.66743636 1.1141618 31
-1.340593 -0.51010114 1.1013778 34.666668
-1.6605322 -0.32448119 1.0746565 49
-1.5208945 -0.43547532 1.1592135 24
-1.4524361 -0.44055811 1.0936855 22.333334
-1.6461581 -0.18906426 1.0702106 48
-1.6279944 -0.065795131 1.0536697 50
-1.5715618 0.34290302 1.1461773 54.5
-1.5482143 0.51390594 1.1494031 55.666668
-1.5260592 0.67101419 1.1336029 55.75
-1.511301 0.75163841 1.0768261 55
-1.4927874 0.87916774 1.115692 52.333332
-1.4818922 1.0090671 1.1580281 49.666668
-0.83729047 0.9309355 1.0670838 1.5
-1.4613218 1.0842965 1.1213524 92.5
-0.56041425 1.4840143 1.189116 2
-0.31079522 1.4540875 1.1452657 35
-0.22280151 1.4418193 1.1648841 36.25
-0.030559797 1.4133046 1.1548517 49
0.068095289 1.3986716 1.1378738 49.636364
0.25278759 1.3741857 1.1321838 48.166668
0.35667318 1.3609269 1.0748538 46.5
4.3509727 2.2220812 1.0945506 46
4.5908489 2.188956 1.123679 14
11.656311 2.2423279 1.0713168 8
9.9010248 3.5714536 1.1651782 37
8.8354502 3.7201695 1.1452904 39
1.2247902 -3.2420437 1.2540413 31
0.056716602 -3.0839326 1.2870225 11.666667
1.2546247 -3.0315676 1.2262909 45
-1.2433257 -2.9048831 1.2623618 22
-1.9289806 -2.8084712 1.2367712 78
-1.7808805 -2.8242705 1.2505432 22
1.3573649 -2.7765198 1.3287168 28
1.3649781 -2.6863458 1.2658083 26
-1.961877 -2.4649086 1.2110515 30
1.3801283 -2.5136955 1.2700642 25
-1.9470602 -2.3317134 1.2985394 30
1.4183292 -2.3662643 1.2046136 8
-1.8813016 -1.8553562 1.3101383 32
-1.4449264 -1.2427964 1.2884521 31
-1.4335865 -1.1443071 1.2786496 28.666666
-1.408849 -0.98039913 1.2348574 28.6
-1.3852836 -0.80824447 1.2478025 33
-1.3617412 -0.64951688 1.2084836 35
-1.6745665 -0.34390992 1.3070698 47
-1.4801577 -0.44113255 1.269802 20.666666
-1.6511192 -0.19497462 1.2789239 49.666668
-1.5809171 0.29981256 1.2970736 48
-1.5694706 0.37846804 1.2625549 52.599998
-1.5505246 0.52818662 1.2396243 54.5
-1.5255737 0.68840569 1.2376124 55
-1.5056691 0.83361608 1.236341 50.333332
-1.4827027 0.98951972 1.2613239 50.5
-1.4654577 1.1244744 1.2301211 53
-1.455758 1.2013168 1.3343575 46
-0.31477892 1.4473724 1.2594695 81.5
-0.23984624 1.4416047 1.2790551 41.25
-0.068433426 1.4152528 1.281998 46.333332
0.041518044 1.4010354 1.2675631 46.25
0.19983418 1.3785368 1.2700523 48.75
11.575315 1.7966125 1.3193011 29
11.592194 1.9653217 1.2395265 33
4.1863341 2.2439098 1.3311797 42
4.2945347 2.218915 1.2119259 39
4.5072584 2.1962593 1.3173058 40
12.754478 3.1437783 1.2973042 2
10.176201 3.4692242 1.3314872 40
9.0788307 3.6556327 1.2921282 40
1.2145114 -3.3209224 1.4733143 7
1.216306 -3.2798135 1.3657447 14
-0.090400651 -3.0909922 1.3897234 4
-1.7386842 -2.869803 1.4440554 15.5
-1.323662 -2.9285285 1.4488739 1
1.312701 -2.8746867 1.4804908 6
-2.0025873 -2.7880487 1.4143443 93
-1.8233087 -2.8203413 1.4772977 53
-1.7579457 -2.8404884 1.4086092 11
1.3519017 -2.7143586 1.4766802 23
1.3542147 -2.6920595 1.3734345 22
1.3873177 -2.4741855 1.4008586 26.5
-1.9517504 -2.3030632 1.4383752 32
-1.9396415 -2.2126105 1.44621 30
-1.909121 -2.0304487 1.4393531 27
-1.8817594 -1.8315327 1.4087667 29.5
-1.4417294 -1.2120855 1.4124384 31
-1.4134897 -0.98925894 1.3941276 35
-1.3644599 -0.60774654 1.4547982 37
-1.376461 -0.49879086 1.4580783 20
-1.6794554 -0.35674754 1.4322246 45.75
-1.5713394 -0.43202019 1.3543334 24
-1.6594769 -0.21057704 1.4312077 48.25
-1.6439426 -0.1083262 1.360796 9
-1.5778228 0.37755856 1.4530424 48.666668
-1.5534182 0.54441595 1.4348048 49
-1.5343367 0.68402284 1.4388294 49.5
-1.519256 0.78924614 1.3937395 51
-1.4980738 0.94184899 1.4062395 50
-1.4761455 1.1047125 1.4266753 46
-0.65377706 1.4909173 1.3500487 39
-0.18628845 1.426053 1.4479172 46.5
-0.088195384 1.4158825 1.4050354 44.333332
0.05516861 1.3985797 1.417825 43.25
0.18313627 1.3813362 1.3903112 42
-0.7883302 1.5124035 1.438393 49
-0.72022504 1.5079886 1.3916737 29.666666
11.576631 2.0098484 1.4960072 30
4.5582986 2.1755075 1.3870559 20
4.1730013 2.2563939 1.3682901 12
10.453783 3.4478202 1.4490925 40
9.2737141 3.6423266 1.4011558 38
8.263483 3.7811244 1.3818841 38
-0.97199714 -3.4924557 1.6403996 0
-0.84953105 -3.0135658 1.6490458 48
-0.4150255 -3.0441148 1.6438984 5
-0.010942715 -3.0821147 1.5579193 18
0.3140558 -3.1267352 1.6233374 5
0.49620104 -3.1200433 1.6306278 28
0.6336484 -3.1374085 1.6339875 44
1.2473029 -3.111974 1.5977045 49
-1.5169678 -2.8761554 1.5960095 26
-1.2298633 -2.8595452 1.6280664 45
-1.1726466 -2.9121304 1.6091161 20.666666
-0.98258573 -2.9611773 1.6214024 13
-0.42308244 -2.9867465 1.647683 60
1.2840073 -2.9248116 1.5454367 17.333334
-1.9940004 -2.7977929 1.6096429 94
-1.8593298 -2.8058212 1.568276 74.333336
-1.6570081 -2.8419964 1.5779693 29
-1.264191 -2.8313046 1.6371845 38
1.3432477 -2.7196894 1.5605142 23
-2.0124698 -2.6985917 1.6052632 36
-1.369866 -2.5650332 1.6321656 8
-1.9852765 -2.5281124 1.609941 32
1.3880383 -2.413347 1.585484 25
-1.9677279 -2.378032 1.5372095 29
-1.9337403 -2.1690805 1.5544995 28.333334
-1.4512876 -1.2092159 1.5264013 36
-1.3920205 -0.77275479 1.5628179 32
-1.373698 -0.63464713 1.5917457 31
-1.3589754 -0.48171273 1.5569314 15
-1.6848633 -0.36643207 1.5637021 41.5
-1.6638321 -0.22505672 1.5490756 41
-1.6414104 -0.085163549 1.5222468 44
-1.575762 0.40516457 1.6450976 38
-1.5528264 0.55694634 1.623706 51
-1.5311342 0.71200496 1.6135699 46
-1.511876 0.87326586 1.563051 50
-1.4953492 1.0304012 1.5346687 51
-1.4818368 1.1236831 1.595692 49
-1.4634517 1.2318279 1.6457103 49
-0.20531055 1.4328269 1.5899782 41
-0.076681726 1.4145539 1.5435348 46.25
0.087774307 1.3916583 1.5292894 42.5
-0.91764826 1.5350199 1.6457063 44
-0.81454098 1.5205141 1.5724576 45
-0.66962564 1.5081123 1.5601889 43
11.56802 1.696952 1.5678788 21.5
4.2674217 2.2316761 1.5260563 42
13.602146 3.0540195 1.5937128 4
11.985406 3.2327726 1.5549793 2
9.6400995 3.5380287 1.5856212 39
10.549852 3.4608805 1.6292788 25
8.6359482 3.7039008 1.5180439 39
9.489562 3.6306162 1.5665603 34
8.545495 3.7535779 1.5207565 35
-1.0104748 -3.4895239 1.679089 0
1.126111 -3.1936421 1.7594935 25.5
1.2423009 -3.1615543 1.7684451 68
-0.72504044 -3.0254626 1.6584224 79
-0.20551465 -3.0126598 1.6593448 60
-0.078888997 -3.022912 1.6720432 57
0.088586003 -3.0300064 1.6917678 44
0.37796828 -3.0662308 1.7562451 63.5
0.46944451 -3.0985513 1.7145495 37.5
0.61652797 -3.1388543 1.6866587 68
0.83267432 -3.0737081 1.7735144 60
0.95995581 -3.0305958 1.7775688 44.5
1.0615665 -3.0097079 1.7876872 11
1.2434932 -3.0531745 1.7127744 52.5
-1.0109811 -2.8657925 1.7206885 64
-0.88136697 -2.8797321 1.7269696 75
-0.53998715 -2.9004858 1.7124084 57.333332
-0.41816953 -2.9302683 1.6992522 55.5
-0.26131102 -2.9080772 1.7433099 56
-0.083864644 -2.9049664 1.7477133 63
0.27884814 -2.9503193 1.7538462 51
0.98035765 -2.8540919 1.7551496 32.5
1.1396 -2.8887413 1.7436976 26.5
1.285871 -2.898154 1.7617911 10
-1.8259109 -2.702873 1.680672 73
-1.6756557 -2.7391675 1.6924661 75
-1.3287663 -2.76215 1.703391 57.666668
-1.1554742 -2.8309376 1.7147201 66
-0.62249142 -2.7815135 1.7173201 25
-0.59819889 -2.8191731 1.7270635 44
0.090412557 -2.7289677 1.7269557 49
0.21421631 -2.7692108 1.6695207 5
0.37813091 -2.7720957 1.7871262 63
0.55684239 -2.8018854 1.6919702 17
0.65913916 -2.8027208 1.7147261 49
0.79590851 -2.8224773 1.758057 64
-2.000001 -2.6578732 1.671454 63
-1.3668201 -2.6779802 1.692742 24
-1.115518 -2.56074 1.6689686 64
-0.9856739 -2.5738671 1.6680385 57
-0.76471978 -2.612824 1.7543575 68
-0.71525973 -2.6160278 1.7265123 60.666668
-0.56039315 -2.6363592 1.7027308 66
-0.36451095 -2.6688399 1.7163069 66.5
-0.19392565 -2.6884608 1.734511 66
1.3590342 -2.5735292 1.7310458 24.333334
-1.9215914 -2.4496994 1.6940392 73
-1.753026 -2.4645865 1.6798593 70
-1.5416746 -2.4780772 1.7653383 75
-1.4444071 -2.4924858 1.7391571 60.799999
-1.2682235 -2.5031924 1.7302853 58.5
-1.1416879 -2.5136518 1.7953783 72
-0.8977046 -2.4552772 1.7989911 63
1.3861495 -2.4277167 1.7167633 25
-1.8946933 -2.3177896 1.765572 68
-1.5613585 -2.3129983 1.7756447 60.75
-1.3786887 -2.2563958 1.7868642 65
-1.2427381 -2.3003418 1.7924849 65
-0.94856906 -2.2601316 1.7955856 57.333332
-0.86471432 -2.3342335 1.7952684 52
-1.6696433 -2.1146996 1.7756492 67
-1.5758452 -2.2123468 1.7731674 64
-1.0043241 -2.2406962 1.7872945 62
-1.9179443 -2.0242188 1.7050027 31
-1.6825835 -2.0209126 1.7706442 68.5
-1.6050745 -2.0355642 1.7739919 64.666664
-1.7147464 -1.8452829 1.7730117 68.666664
-1.5935593 -1.8475137 1.7751641 70
-1.7280874 -1.7701249 1.7727677 68
-1.4835575 -1.7210336 1.7840403 64
-1.7039497 -1.6370177 1.7720987 68.5
-1.581352 -1.5942508 1.7800044 74
-1.4148598 -1.2198709 1.7892424 61
-1.4369925 -1.1649899 1.7847875 78
-1.4186993 -0.99595988 1.7449317 54.25
-1.3932524 -0.83080888 1.7488778 58.75
-1.3834932 -0.6778959 1.7326667 33.5
-1.3653656 -0.54640681 1.7372451 41.666668
-1.5724021 -0.38466719 1.7966894 91
-1.4397389 -0.42124853 1.7977943 86.666664
-1.5885346 -0.23958907 1.7969142 98
-1.4985094 -0.2382154 1.7924718 101
-1.6582817 -0.060028236 1.7854549 76
-1.5613818 -0.079987049 1.7959573 102
-1.2665125 -0.051452067 1.7949306 70
-1.5918112 0.08288376 1.7801377 88.25
-1.2652999 0.13047312 1.7978046 80.5
-1.5743175 0.231214 1.7737925 84.199997
-1.2455714 0.26090181 1.7972492 80
-1.5871165 0.41124153 1.7868696 68.5
-1.2482796 0.40213811 1.7971387 78.5
-1.5620641 0.56657135 1.7663461 67.5
-1.2028041 0.51625586 1.7933146 69
-1.1875914 0.53345305 1.7997226 73
-1.5421457 0.68469024 1.7605956 73.5
-1.1566807 0.67232329 1.7981759 66
-1.5269738 0.81548923 1.7701679 71
-1.5050975 0.9970721 1.791818 68
-1.4947885 1.0250477 1.709294 48
-1.480315 1.1704324 1.7921497 63
-1.4716272 1.2057174 1.7221535 43
-0.20520535 1.4366165 1.7188596 43.5
-0.08523497 1.4213557 1.7111301 45
0.051957577 1.3997326 1.7219437 43.5
-1.1446869 1.5683781 1.7330123 39
-0.95494258 1.5355647 1.7501494 43
-0.83436537 1.5224117 1.7680194 43.5
-0.71425867 1.5119563 1.7872282 38
4.4677434 2.1928473 1.7660526 34
11.635021 2.2949936 1.6646329 3
13.934896 2.9475338 1.7301501 17
11.829887 3.2545366 1.728072 1
10.634161 3.4008238 1.7744874 42
11.037474 3.3957601 1.7284096 12
9.469964 3.5966713 1.7309841 38
8.4640255 3.7373025 1.7130488 40
1.1116729 -2.8729661 1.8275698 62
-0.028470624 -2.711807 1.8261667 87
0.54536343 -2.7874243 1.8302876 78.5
0.67656964 -2.783747 1.8550562 81
0.79299051 -2.7670891 1.8431298 62
0.93564856 -2.8129685 1.8477811 73.5
1.3002272 -2.7059593 1.8616132 9
-0.72852075 -2.5505815 1.804098 63
-0.52086169 -2.5930371 1.8139027 61.5
-0.33637965 -2.6058862 1.8174206 72
-0.066076882 -2.6495488 1.8259474 68
0.19027849 -2.6667297 1.8311721 69
0.35753232 -2.6484036 1.8419607 61.5
0.5293979 -2.5942862 1.8466218 61
0.65201664 -2.6504872 1.8491422 56.666668
1.1245453 -2.5692747 1.8650963 60
1.3059744 -2.6009295 1.8512036 22.25
-0.84891206 -2.4858561 1.8059226 60.333332
-0.53004992 -2.4190705 1.8138826 65
-0.20477834 -2.4793453 1.8258649 67.75
0.074837171 -2.4675667 1.8539248 43.666668
0.24992113 -2.4249828 1.9193411 71.199997
0.36747089 -2.439445 1.85984 51.599998
0.49647653 -2.5247045 1.8466089 58.5
0.86262006 -2.4871528 1.8585449 42
0.98857796 -2.4555955 1.873498 42.285713
1.135157 -2.464982 1.8662218 55.666668
1.276731 -2.5166292 1.8699385 45.25
-0.86957496 -2.2767763 1.8916343 26
-0.72370124 -2.3340921 1.8369331 35
-0.59272337 -2.2858577 1.846769 7
-0.33142745 -2.2995229 1.8462763 35.400002
-0.16775031 -2.312155 1.8737192 50
-0.042410631 -2.319037 1.8824331 46
0.093193889 -2.270201 1.9337028 73.666664
0.16283853 -2.2694004 1.9422528 71.5
0.55114663 -2.3107958 1.945366 64.5
0.66225833 -2.3139019 1.9473972 61.666668
0.96977103 -2.3436348 1.8691379 39
-1.5233601 -2.1427288 1.8879784 98
-1.3790704 -2.191818 1.8862489 57
-1.0875405 -2.1485469 1.8916178 67.75
-1.0211749 -2.2411432 1.9029654 79
-0.84317923 -2.1412332 1.8990976 66
-0.71277344 -2.1766047 1.9067355 72
-0.47274438 -2.1836252 1.9100571 75.333336
-0.39359608 -2.1870756 1.9172546 69.333336
-0.18444251 -2.1386397 1.9196223 69
-0.039198719 -2.1316338 1.927126 70
0.031234931 -2.1136637 1.9355092 70.5
0.23116434 -2.1149845 1.9403532 68
0.40290901 -2.1678956 1.9422485 65
0.51804 -2.2041638 1.9457356 62.333332
0.63627881 -2.2274487 1.9484862 56
-1.4611871 -1.9904441 1.8830508 76
-1.1305081 -2.0256455 1.8881539 57
-0.96723258 -2.0324931 1.9021747 46.5
-0.81634921 -2.0194743 1.9149767 47
-0.61317903 -2.0589633 1.9018723 78
-0.55120516 -2.0404978 1.9117521 74.333336
-0.37216005 -1.9835843 1.9124292 59.5
-0.17648995 -2.004097 1.9220542 78
-0.097940207 -1.9718071 1.9279872 74.666664
0.10774843 -1.9812402 1.9375683 70.333336
0.25724393 -2.0182085 1.9372607 66
0.35375887 -2.0159054 1.9439452 63.799999
0.49406382 -2.0747566 1.9483562 62.5
-1.2288387 -1.8878155 1.8864367 70
-1.1343989 -1.9361477 1.8902224 58.75
-0.97563934 -1.8336923 1.913764 29.5
-0.67032242 -1.8723904 1.9195725 55.200001
-0.56403089 -1.8870189 1.9081261 74
-0.41627786 -1.8600339 1.9188229 78
-0.23578158 -1.8530312 1.9268599 75
-0.062308386 -1.8522964 1.9277298 74.5
0.085452266 -1.8694372 1.9349109 72.333336
0.22448727 -1.8761797 1.9410633 69
0.32724378 -1.9002476 1.9457005 76.5
-1.2582337 -1.7547761 1.8840383 71.333336
-1.1845653 -1.7408687 1.8946246 71.5
-0.99299753 -1.70526 1.916144 34
-0.78820038 -1.7534585 1.922042 40
-0.69445729 -1.7131857 1.9312272 55.666668
-0.5154345 -1.7176813 1.9103271 78
-0.36719501 -1.7408596 1.9205106 85.333336
-0.26244852 -1.7080451 1.924026 84
-0.068229124 -1.7075201 1.9293619 81.666664
0.069981061 -1.7403097 1.9365531 75.5
0.20006643 -1.7662402 1.9410535 76
-1.3764126 -1.5725285 1.8852566 81
-1.2849529 -1.5836415 1.8906037 71
-1.090693 -1.5819081 1.8913003 79
-0.81632823 -1.5819671 1.9060128 69.400002
-0.67553949 -1.5610589 1.9078163 73.5
-0.47598299 -1.6199228 1.9142686 77.5
-0.35921341 -1.5698378 1.9224699 79.599998
-0.20999779 -1.5742236 1.9372698 72
-0.075767197 -1.5604376 1.9315783 75.166664
0.053415317 -1.6057742 1.9365834 87.75
-1.4067316 -1.4194676 1.8911394 58
-1.3183364 -1.3927794 1.8926859 77.333336
-1.1640832 -1.4319806 1.8970203 76.5
-0.93369418 -1.436295 1.9009352 88
-0.84956956 -1.4226706 1.9114594 80.5
-0.65319407 -1.4018898 1.9150864 80.666664
-0.54563272 -1.4382126 1.9171765 78.199997
-0.39219338 -1.425245 1.9222474 73.875
-0.2185794 -1.4174657 1.9351119 54.833332
-0.085295647 -1.4376235 1.9360833 69.333336
-1.4003073 -1.2261235 1.8933235 58.666668
-1.298306 -1.2705498 1.8948658 77
-1.194043 -1.2486393 1.8995088 80
-0.95624524 -1.2887928 1.9076824 79.800003
-0.82012963 -1.2864885 1.9134872 80.5
-0.66609669 -1.2470889 1.9192679 80.25
-0.49744782 -1.2767339 1.923582 70.833336
-0.34336165 -1.2572759 1.9312109 55.200001
-0.21549764 -1.2905842 1.9353342 61.799999
-0.092972875 -1.3405862 1.9361657 72
-1.3856844 -1.065769 1.8867165 39
-1.287303 -1.1326673 1.8987451 79
-1.0864905 -1.1533915 1.9084715 84
-0.98146093 -1.1359522 1.9088694 80.400002
-0.81443959 -1.1324352 1.9145035 83
-0.65127957 -1.0842755 1.9231523 77.199997
-0.52874881 -1.1227226 1.9268826 63.555557
-0.36469993 -1.1351652 1.9323746 50.714287
-0.23894282 -1.1341239 1.940102 46.666668
-1.3764602 -1.0037365 1.8950194 66
-1.3016675 -0.9657191 1.9016408 73
-1.1014978 -1.0138793 1.9064363 84.333336
-0.98341537 -0.97239184 1.912516 86.75
-0.81888783 -0.98252165 1.9197919 87.75
-0.67026728 -0.95161486 1.9225931 82.333336
-0.51783067 -0.95997828 1.9259385 76.833336
-0.38098451 -0.99246627 1.9321234 61
-1.347595 -0.82706559 1.9042951 81
-1.1303799 -0.8638742 1.9080001 84.5
-0.96816617 -0.81127006 1.9142733 94.599998
-0.82453954 -0.84164006 1.9175097 100.25
-0.66631305 -0.81986165 1.9243922 95.777779
-0.5122878 -0.8295393 1.9250774 76.400002
-0.37883377 -0.83582717 1.9329588 66.75
-1.3692009 -0.72938025 1.8037621 79
-1.2527726 -0.70431262 1.8721943 88.333336
-1.1094872 -0.72132111 1.909901 95.333336
-0.973499 -0.66390067 1.9170078 101
-0.80681002 -0.68201017 1.9155512 96.800003
-0.67838454 -0.67069423 1.917245 78.555557
-0.53479278 -0.66906524 1.9198967 75.400002
-0.42714593 -0.66659921 1.9243726 70.333336
-1.2445771 -0.58332211 1.9080859 89
-1.1305637 -0.54159492 1.910493 94.166664
-0.99573165 -0.51984853 1.91484 90.599998
-0.81634617 -0.52843451 1.9132953 82.5
-0.69320858 -0.52704114 1.9175322 77.800003
-0.53670263 -0.52640206 1.9262555 75.400002
-1.4013627 -0.35042608 1.8051115 94
-1.2720191 -0.43947023 1.9081774 98
-1.1501878 -0.36745712 1.9055704 87.199997
-1.0186126 -0.36873221 1.9124428 82.199997
-0.82961333 -0.37171373 1.9140166 80
-0.68130934 -0.37782383 1.9211756 77.099998
-0.49624112 -0.38824046 1.9260225 71.5
-1.5900723 -0.21773532 1.8002241 104
-1.4382198 -0.21880972 1.8032094 97.5
-1.2510833 -0.23043509 1.8960047 78.333336
-1.1168736 -0.19871195 1.9042646 72.333336
-0.9663021 -0.2316481 1.909771 76.166664
-0.83373529 -0.23074178 1.916894 79
-0.69593799 -0.23312734 1.9190866 77.125
-0.51715976 -0.21570757 1.9243318 71.5
-1.4371454 -0.057430729 1.8058189 84
-1.2301518 -0.038701132 1.9063352 79.5
-1.1311723 -0.074694596 1.9085456 83
-0.99156427 -0.084494479 1.9113563 78.166664
-0.8277905 -0.07118848 1.9162173 78.555557
-0.69545537 -0.071810573 1.9209965 80.111115
-0.52498728 -0.060561467 1.926405 75.333336
-1.5358145 0.05377927 1.8001252 93
-1.4443127 0.078869149 1.8175734 81.333336
-1.2111982 0.092852153 1.8581122 75.5
-1.1406137 0.051016811 1.9136983 94
-0.9904176 0.067969985 1.9120167 76.571426
-0.81896466 0.075294472 1.9192488 78.285713
-0.69887644 0.094148874 1.9219923 75.800003
-0.52987307 0.070071742 1.9253763 80.5
-1.4346552 0.21578468 1.8068814 100
-1.1426071 0.21857636 1.9146786 92.5
-0.99251634 0.2248742 1.9127908 78
-0.82484746 0.23388669 1.9208567 72.333336
-0.67192298 0.22462328 1.9248973 60.444443
-0.525168 0.22519825 1.9306931 59.666668
-1.5304585 0.34856176 1.8012435 99
-1.4275464 0.35490218 1.8091019 95.333336
-1.2120472 0.39633757 1.8020276 80
-1.1481861 0.37961704 1.9187305 93.5
-0.99132121 0.37978271 1.9202634 86.5
-0.81669766 0.38061273 1.9200009 68.63636
-0.66732895 0.36932635 1.931772 49.875
-0.51500386 0.40211904 1.9373845 48.666668
-1.5493383 0.51060557 1.8029495 97
-1.4652414 0.49956927 1.8055645 96
-1.3088715 0.526887 1.8135092 94.5
-1.1334406 0.51201248 1.916018 79.25
-0.96963978 0.52011561 1.9222596 88.199997
-0.80769867 0.52503759 1.9235733 77.428574
-0.68337876 0.524257 1.9269369 50.666668
-0.52724373 0.53532016 1.9342871 54.714287
-1.4476377 0.64876932 1.8063818 90.666664
-1.2884402 0.69405192 1.8177835 93.333336
-1.1499399 0.66728389 1.8765196 62
-0.96071351 0.65977627 1.9270451 93.800003
-0.79301423 0.67214608 1.925568 83.833336
-0.68124646 0.66855037 1.9306433 91
-0.54195833 0.67448962 1.9372796 82.5
-0.42742276 0.6571846 1.936391 76
-1.4630127 0.78155231 1.806257 94
-1.2781403 0.86554956 1.8167577 87
-1.1140395 0.83439392 1.8785704 68.666664
-0.9829849 0.80237091 1.9286864 88
-0.85297185 0.81350458 1.9289991 89.428574
-0.68608117 0.82692605 1.9363387 90.666664
-0.53414464 0.81762373 1.9435534 91.272728
-0.37999377 0.82937509 1.9490637 84
-1.458059 0.93599576 1.8049392 85.333336
-1.2645891 1.0053449 1.8200834 63
-1.1325247 0.99302351 1.8675197 76.75
-0.95308638 0.98630667 1.9281199 82
-0.81156987 0.98015404 1.9323539 82.5
-0.66617107 0.96184683 1.9397439 86.666664
-0.54596651 1.0074016 1.9446524 83
-0.44776067 0.90508413 1.9442285 89
-1.4249719 1.105253 1.8094026 87.666664
-1.267737 1.1410412 1.8178169 82
-1.1088384 1.1371676 1.8706104 78.166664
-1.0004535 1.1764381 1.877285 72
-0.81430966 1.1357113 1.9083081 46.5
-0.67135876 1.1349239 1.9086546 61.57143
-0.52281374 1.1192466 1.8868557 79.714287
-0.3851063 1.1394991 1.8679566 59.166668
-0.23184891 1.1030774 1.8594383 58.666668
-1.4192786 1.2731829 1.8096505 89
-1.2621669 1.2919482 1.8161255 78
-1.096786 1.3024451 1.8225279 79.333336
-0.98218137 1.2785977 1.8257456 80.666664
-0.82379347 1.2544354 1.8297006 74.5
-0.68232197 1.2629703 1.836517 77.800003
-0.51240748 1.2801397 1.8456093 76.199997
-0.37235594 1.2736293 1.8516643 78.400002
-0.2420537 1.2933422 1.8580157 72.199997
-0.075374775 1.29607 1.8639878 69.5
-1.4558506 1.3601189 1.8051025 76
-0.96883196 1.4400469 1.8295671 81.333336
-0.84814703 1.4116577 1.8341455 72
-0.66207051 1.4174017 1.8357035 67.599998
-0.53917503 1.4372826 1.8375008 64.5
-0.36574307 1.4111022 1.8467852 61.833332
-0.21609132 1.4212831 1.8433238 59.75
-0.0796673 1.4162326 1.8493186 62
11.591733 2.0530488 1.8587939 27
12.509602 3.1423531 1.8876003 3
13.648827 3.0515559 1.9121829 8
12.33856 3.2258861 1.911738 2
10.189794 3.4880643 1.9036461 38
9.1137066 3.6548958 1.8216215 36
0.70886105 -2.4888945 1.9551665 59
0.84939355 -2.4502277 1.963263 68.75
0.9355979 -2.4422741 1.9631655 66.25
0.695081 -2.3220558 1.9558657 60.75
0.80558461 -2.3463333 1.9565713 59
0.54140049 -2.1828125 1.9550986 66
0.69688928 -2.2127037 1.95753 61.5
0.44367719 -1.9778135 1.951141 74
0.57052368 -2.094619 1.9563919 70
-0.39542896 0.71325284 1.9517823 96
-0.46119693 0.89881444 1.9527866 84
-0.3594999 0.80622244 1.9526676 97
-0.48001358 0.97880918 1.9519864 83
-0.38540521 0.9555766 1.95163 83.333336
-0.27409318 1.0002042 1.9597243 78
-0.39282364 1.0719638 1.9532666 87
11.537457 1.7448652 1.9744576 34
6.0431762 1.9883438 2.0987189 31
5.7661543 2.1878588 2.0888164 31
11.61704 2.2099745 2.099205 17
5.4598207 2.3597336 2.0741873 29
6.0509143 2.7693181 2.0841219 24
14.133469 2.8894901 2.0578253 21
8.9120302 3.6889312 2.0870569 32
6.9142041 0.98773223 2.1485713 6
6.6541171 1.2472444 2.1047554 21
8.2131443 1.2216566 2.1387701 25
8.4560947 1.2990271 2.1716197 17
6.4853325 1.5116234 2.1033385 23
7.9522066 1.5649035 2.131089 24
8.662693 1.518666 2.1668146 15
10.227749 1.5377498 2.2077477 14
6.2776604 1.7618347 2.1014974 32
8.254775 1.6652911 2.1609404 19
10.210947 1.7817831 2.2315578 13
11.020378 1.6557648 2.2319653 6
7.700079 1.8918955 2.1411641 26
8.4299116 1.8655664 2.1604459 17
8.0162811 2.0143514 2.1564474 24
9.6979074 1.9556928 2.1712866 14
7.3437557 2.1774402 2.1342981 26
8.1365643 2.1811278 2.1491785 17
9.7876091 2.2054927 2.2104785 13
10.731131 2.1418109 2.2279339 9
7.7077951 2.328645 2.1454773 24
9.2151594 2.3375254 2.1650009 22
6.9050016 2.4051011 2.1096241 27
7.8412809 2.4779 2.1480582 18
6.5079889 2.6148484 2.1046758 25
7.4134274 2.6334147 2.1537321 24
8.6201639 2.6540742 2.1452069 28
9.2812681 2.5749333 2.1857181 22
10.26589 2.5658374 2.2032826 6
7.4716368 2.735204 2.1349416 24
11.53573 2.8137345 2.2022893 2
6.9866767 2.8698807 2.130929 25
7.1006317 2.9611063 2.1291275 25
8.0171251 2.9083164 2.1284585 27
8.7916527 2.9127769 2.179539 28
9.8814754 2.9764211 2.216244 14
11.277079 2.9411285 2.1910975 7
7.447154 3.1239798 2.127022 26
8.1974592 3.1700602 2.1549263 29
9.2639828 3.2875016 2.1869068 18
10.949609 3.2718208 2.2232034 36
7.6597905 3.4051275 2.1546288 25
10.47916 3.3244288 2.1950366 32
8.6909218 3.5603321 2.1757782 28
9.4792662 3.5660529 2.1594627 35
9.8773851 3.511867 2.1435957 39
8.4320707 3.6801472 2.1007655 32
13.247673 3.0469747 2.2563884 2
13.061705 2.6819789 2.404819 4
