# .PCD v0.7 - Point Cloud Data file format
VERSION 0.7
FIELDS x y z intensity
SIZE 4 4 4 4
TYPE F F F F
COUNT 1 1 1 1
WIDTH 108
HEIGHT 1
VIEWPOINT 0 0 0 1 0 0 0
POINTS 108
DATA ascii
0.57184422 -2.8331788 -0.81455964 5
0.60010237 -2.7463884 -0.80325675 5
0.33577579 -2.6389854 -0.80872065 0
0.37660408 -2.4997849 -0.81327021 11
0.35406747 -2.3875797 -0.81205082 10.333333
0.45985067 -2.375057 -0.81205451 10
0.40061978 -2.8518531 -0.68325293 47
0.45871657 -2.858979 -0.62172705 81
0.61708295 -2.8799129 -0.64934433 71
0.38984761 -2.8448532 -0.67097211 32.666668
1.6783482 -0.84844714 -0.60657513 32
1.7075875 -0.6690945 -0.62024605 19.5
1.7127583 -0.55817962 -0.60838491 37
1.768095 -0.18540853 -0.60887635 35
1.7885592 -0.061375357 -0.62105882 32
1.8100801 0.067913361 -0.63178229 35
1.8208761 0.19866101 -0.63711309 15
2.2049656 0.38974702 -0.73208249 7
2.4588735 0.44231296 -0.7266624 8
2.3267038 0.515558 -0.73060817 5
2.1537447 0.66219902 -0.73602861 6
2.4433804 0.66343135 -0.72570729 5.5
3.7911017 0.6869573 -0.68250483 8
2.0773885 0.79093581 -0.74238348 6
2.282506 0.81050259 -0.73089933 6
2.5373921 0.82635498 -0.72412634 6
4.9296327 0.79064327 -0.65507191 1
1.9298341 0.9219808 -0.74257761 7
1.9931805 0.98687351 -0.74460596 7
2.180337 0.95873404 -0.73423547 7
2.3912683 1.039325 -0.7270897 6
2.5466294 0.92097479 -0.72384518 6
3.9993799 1.0068911 -0.67842305 8
1.754397 1.1696758 -0.63547349 11
1.8663802 1.1646771 -0.60454381 1
2.0545366 1.1603407 -0.73764503 9
2.3360143 1.1538323 -0.72904795 6
2.6227753 1.0539573 -0.72006083 6
2.7292349 1.1822908 -0.71883172 7
5.2224512 1.1528292 -0.6310125 0.5
1.5502 1.2012687 -0.66022688 2
1.7193964 1.2013224 -0.63415182 21
2.3516898 1.2897778 -0.73320723 7
2.5483854 1.3146325 -0.72242677 7
2.7464621 1.3193932 -0.71367604 7
2.9380467 1.4855633 -0.70790315 8
4.239676 1.3715504 -0.66270941 4
5.8123331 1.7267207 -0.61554062 0
4.5922661 1.821895 -0.6369549 34
0.43129814 -2.8583782 -0.53229791 83
0.58386415 -2.8711128 -0.55644506 76
1.6082361 -0.95881146 -0.58703089 2
1.7026476 -0.68101066 -0.55547172 18
1.7177799 -0.55224878 -0.55279088 34
1.7390139 -0.37501365 -0.53018034 39.25
1.7540413 -0.21186145 -0.48234749 40.5
1.7757653 -0.088936724 -0.47907606 35
1.7921689 0.024652902 -0.46691853 37.5
1.8100452 0.10959996 -0.48911855 34
1.8134388 0.18440154 -0.49743938 19
1.7133564 1.1918684 -0.54292172 21
1.8153157 1.1142076 -0.54965436 0
6.2239923 1.1451353 -0.49965367 96
0.69829315 1.3386759 -0.50310695 73.75
0.85960656 1.3135908 -0.52948344 63
1.0382901 1.2951118 -0.46809989 67
1.3222997 1.2489593 -0.48445591 31
1.4200722 1.2358042 -0.52211326 27.666666
1.5573044 1.2161846 -0.54263318 24.200001
6.2505612 1.2991793 -0.53584206 55
-0.3106108 1.4823922 -0.46629506 15
-0.2341783 1.4741563 -0.47847906 15.444445
-0.10620639 1.4591684 -0.47795129 15
0.095011592 1.4313151 -0.48029765 17
0.19602324 1.4134768 -0.48198286 15.5
0.33559078 1.4004319 -0.49635202 17
0.55097967 1.3629953 -0.47548628 68
0.61295271 1.3507304 -0.47371313 86
5.4525104 1.5218707 -0.59758401 0
6.4612722 1.585364 -0.46458939 0
3.9825757 1.9021294 -0.54157871 49
4.3561053 1.8388864 -0.45041168 38
7.1169195 1.9395285 -0.51005566 5
6.1297989 2.1193037 -0.57042623 0
6.7934175 2.4831765 -0.57864916 1
10.125059 3.4108124 -0.48046121 1
0.12509499 -1.7785805 -0.40619993 29
0.19327927 -1.7210983 -0.40286061 30.666666
1.694116 -0.65756023 -0.40982974 34
1.7130572 -0.50880748 -0.42747894 39.666668
1.7361037 -0.35477334 -0.43907225 38
1.7546721 -0.23416284 -0.42167935 36
1.7777526 -0.065619156 -0.4061771 36.5
1.7956653 0.0066115307 -0.41637099 33
1.8074971 0.12091569 -0.40936959 32.5
1.7980185 0.26306111 -0.41184703 2
0.63699967 1.3481373 -0.42606249 76
0.89481229 1.3104563 -0.40936553 63
1.0357583 1.2864218 -0.41688755 69
1.3062266 1.250167 -0.43265536 28.333334
-0.22329116 1.4722235 -0.41830531 15.2
-0.077906355 1.4558364 -0.4379124 20
0.080642812 1.4308788 -0.42639831 17.571428
0.239796 1.4066819 -0.44219616 17
0.35864955 1.3902732 -0.40361753 16
0.49912035 1.3755621 -0.42705598 53.166668
4.1778231 1.8679028 -0.42519593 53
6.6600323 2.0526555 -0.41017181 23
