# .PCD v0.7 - Point Cloud Data file format
VERSION 0.7
FIELDS x y z intensity
SIZE 4 4 4 4
TYPE F F F F
COUNT 1 1 1 1
WIDTH 1122
HEIGHT 1
VIEWPOINT 0 0 0 1 0 0 0
POINTS 1122
DATA ascii
-0.054516181 -2.0586033 -0.18888824 3.3333333
0.0034283518 -2.0371695 -0.17195505 8
0.67778516 -1.6783458 -0.16305906 12
0.71748048 -1.60186 -0.18959394 18
0.75412911 -1.5044612 -0.17750685 2
-0.010348993 -1.4584717 -0.16480972 1
0.022066247 -1.4760575 -0.16864228 1
0.95144761 -1.1506538 -0.17710172 36.5
0.18731366 -1.003746 -0.1750627 0
1.0339813 -0.99195212 -0.18183176 42.333332
1.0787367 -0.90773028 -0.17037988 39
-0.18938458 -0.89754069 -0.1600426 0
1.131712 -0.81302267 -0.18630138 41.5
-0.38303187 -0.61513233 -0.18780357 2.75
1.1998134 -0.69255072 -0.17441881 37
-0.6137197 -0.54601735 -0.15014777 2
-0.49401504 -0.59077704 -0.18773611 2.8
-0.35616887 -0.57555974 -0.17350857 2.5
1.2553527 -0.59213859 -0.15743709 14
1.4299359 0.42258662 -0.16133513 17.5
1.5601143 0.34633577 -0.16134444 14
1.3128886 0.48964164 -0.15672642 21.5
-0.76372987 0.7450068 -0.1617443 16
0.85883635 0.72994852 -0.19441086 13
0.9544186 0.67688853 -0.16544668 9
-0.72893864 0.80844903 -0.16750944 8.833333
0.58469272 0.87658125 -0.18033312 11
0.69046098 0.82950383 -0.17345415 11.875
0.7785148 0.77810973 -0.1797709 12.666667
0.28734609 1.0371871 -0.19035083 15.333333
0.52171242 0.92075235 -0.18230306 11
0.13498749 1.1176506 -0.16895932 14.5
0.23479752 1.0624735 -0.16879162 15
-0.077376589 1.2266715 -0.17589839 15.25
-0.52556604 1.4684761 -0.18261178 12
-0.34213248 1.3721266 -0.18225372 13
-0.76806629 1.5911374 -0.17454414 37
-0.65816289 1.5338403 -0.16222937 26.799999
-0.91660422 1.6686267 -0.17321396 58.333332
-0.87690598 1.6530274 -0.1588622 51
-0.0038527728 -2.0973432 -0.017121946 11
0.039529692 -2.0448456 -0.016582033 9.5
0.12350301 -1.9352243 -0.061349038 10
0.6615364 -1.7037739 -0.11184999 10
0.70336574 -1.6032957 -0.11260752 11
6.0650821 -1.6376668 -0.058075044 36
0.2441593 -1.4183172 -0.072749175 2
0.73873919 -1.4779063 -0.0038938569 0
0.83231026 -1.3843683 -0.068935551 28.5
0.22840405 -1.279623 -0.068162106 2.3333333
0.88095456 -1.2941251 -0.10962639 31
0.90970141 -1.2329574 -0.041077364 34
6.1662621 -1.2775934 -0.14527634 7
0.97111303 -1.1128052 -0.099167183 38.5
0.20288356 -0.96015382 -0.01219133 0
1.0272627 -1.0062723 -0.080653667 40.75
1.0635657 -0.94574225 -0.075519063 41.5
2.7229738 -0.9778356 -0.14964242 26
1.1330198 -0.81573391 -0.067508087 39
5.8624096 -0.85430646 -0.025179064 1
1.1795528 -0.73228765 -0.072730161 33.5
1.2206759 -0.65399635 -0.066792317 37.75
-0.63743162 -0.51385152 -0.052904807 2.4210527
-0.58548564 -0.5163005 -0.043353323 2.5
-0.36286679 -0.53403193 -0.052111145 1.8333334
-0.28568017 -0.53224218 -0.0069022821 3
1.2491286 -0.55125523 -0.067454964 11.428572
1.6119951 0.29468808 -0.091577627 0
1.4352967 0.42372182 -0.052282844 15.833333
1.5588905 0.35308602 -0.046312213 13
4.3631568 0.36564165 -0.08951842 31
0.82649112 0.56513125 -0.068410397 1
0.91206485 0.57066238 -0.02921111 1
1.1528932 0.57543743 -0.072992891 17.875
1.2625251 0.51687771 -0.065382957 21.444445
1.3641624 0.46647382 -0.031137664 17.5
4.2160473 0.53450698 -0.090758361 8
-0.9407177 0.71000862 -0.019018671 9.4285717
-0.83277488 0.72586542 -0.057070829 13.038462
0.86414534 0.73366261 -0.069949716 10.833333
0.9280327 0.69330525 -0.062014002 24.833334
1.091701 0.61692667 -0.059272427 15.6
-0.75768113 0.75526088 -0.091981694 12.5
-0.7332893 0.79891461 -0.099253304 9.25
0.5876143 0.88609296 -0.13100949 12.2
0.67627454 0.83799738 -0.06549228 11.181818
0.79699284 0.7710557 -0.060807984 10.2
0.38674849 0.99444944 -0.042487781 12.25
0.5022167 0.93203682 -0.10029083 11.857142
0.078059457 1.1486244 -0.066551924 14.933333
0.19137171 1.0900382 -0.1130385 14.375
-0.2076859 1.3091892 -0.073667809 12.714286
-0.095128208 1.2436244 -0.084443271 14.166667
0.0026833832 1.2013313 -0.067773946 12
-0.51147425 1.4616024 -0.065388426 15
-0.38425714 1.3963037 -0.11389917 11.125
-0.29802132 1.3541374 -0.012018284 13
-0.81350064 1.619333 -0.064463407 53
-0.70510894 1.5637796 -0.10050733 39.142857
-0.5908013 1.5041412 -0.02560148 33.5
-1.0678886 1.7552452 -0.076314501 54.285713
-0.9827472 1.711207 -0.090511061 49.857143
-0.88763714 1.6603715 -0.081582263 52.200001
0.01823334 -2.1264892 0.14389479 13
0.42772937 -2.1700387 0.13025194 5
0.45065683 -2.1076136 0.12760872 5
0.02831028 -2.0959845 0.091621749 0
0.48243195 -2.0575826 0.11731674 3.5
0.22087307 -1.9257874 0.14097172 11
0.43378842 -1.8672333 0.079849057 6
0.7294448 -1.5639404 0.1005688 10.333333
6.0706096 -1.5923997 0.14482379 5
0.74856251 -1.4480433 0.11824989 0
0.80364013 -1.4193509 0.072569884 24.777779
0.26470071 -1.2074684 0.11587404 0
0.86255717 -1.3147484 0.048591018 30.166666
0.92408556 -1.2091564 0.080018334 32
0.98511761 -1.1007117 0.086689293 35.166668
0.20875619 -0.98606873 0.04376566 0
1.0359172 -1.000174 0.091548212 37.833332
1.0724003 -0.93344116 0.06513948 37
1.1250293 -0.83487725 0.067835055 57.666668
9.9368963 -0.83820826 0.080153547 1
1.1782609 -0.73745137 0.04150727 35.333332
1.2234359 -0.65551734 0.097048551 34.81818
-0.64884716 -0.48859072 0.059956584 1.6666666
-0.54397964 -0.49174246 0.082458206 2.0555556
-0.36671525 -0.50989866 0.091577798 2.5151515
-0.27400371 -0.53159326 0.062918931 2.4545455
1.2388562 -0.54084158 0.07383772 5.75
-0.30881131 -0.44642922 0.14006311 1
9.8576508 -0.27533984 0.0055201901 34
-1.0645734 -0.038125385 0.12836707 1.6666666
-1.016836 -0.0048913141 0.053639855 0
-1.0151191 0.078651756 0.09874998 0
-1.0149962 0.15295874 0.14269876 0
1.4635332 0.4113687 0.07393866 13.714286
1.5824059 0.34347153 0.075220302 11.5
4.4424896 0.40618733 0.06831976 47
4.5643206 0.34070921 0.073041908 41
8.9700747 0.33533275 0.11050486 34
0.82721186 0.57897466 0.069654457 1
0.91619378 0.56420678 0.018544966 3
1.1546991 0.57609349 0.059646774 21.571428
1.2763443 0.51364917 0.059421986 18.9
1.3666083 0.46641332 0.071398944 16.25
-1.0572836 0.71626961 0.13383767 9
-0.97042102 0.69193184 0.057047673 9.9523811
-0.83110386 0.72627491 0.075012662 11.833333
0.86413002 0.72377062 0.068525128 9.3000002
0.93412685 0.69949907 0.06660784 9.5555553
1.0743744 0.61673534 0.075274527 17.6
-0.76448685 0.79005098 0.088250406 8.5714283
-0.74394095 0.80175436 0.035816889 8.75
0.58363724 0.88909996 0.084550902 11
0.67956537 0.83849943 0.069964439 10
0.79462075 0.77378899 0.073518194 10.833333
0.29276347 1.0452284 0.0032401336 11
0.3763639 1.0061752 0.071476676 11.4
0.51213485 0.93054134 0.086375229 9.8125
0.069660105 1.1641855 0.078904115 13
0.22429281 1.0891992 0.080621041 11.666667
-0.19214384 1.3037176 0.09616103 12.75
-0.076268949 1.2459127 0.068781786 12.142858
-0.47181162 1.4524455 0.132653 10
-0.37120149 1.3944753 0.065133892 12
-0.83125055 1.6366427 0.074128866 50.25
-0.6883629 1.561564 0.059783023 47.625
-0.58746982 1.506974 0.04950764 30.5
-1.0857321 1.7747107 0.11854056 43.333332
-0.98802084 1.7184711 0.042836424 46
0.36579025 -2.2602856 0.2369805 7
-0.076284535 -2.2224302 0.19745508 32.5
0.41054851 -2.1893291 0.22395337 5.8000002
0.11448033 -1.9896107 0.22350782 8
0.47173223 -2.0724854 0.19899461 4.5
0.15271018 -1.9448336 0.2227208 10
0.69312251 -1.6617799 0.22567689 10
0.71511787 -1.6052165 0.22129714 8.333333
0.75682664 -1.5184723 0.17240059 8.5
0.26889563 -1.3615371 0.18056822 6
0.79689211 -1.4287736 0.19156733 15.5
0.24472044 -1.2983377 0.22414112 3.8571429
0.87952244 -1.2887952 0.26670343 31.200001
0.91943538 -1.2214787 0.20214421 31.5
0.95641798 -1.1453635 0.21589446 32.666668
1.0277007 -1.0167191 0.18327214 35.5
1.0665644 -0.93816286 0.24748649 33
1.137117 -0.81877053 0.22979854 40
1.1915394 -0.72034681 0.23265818 32
1.2302467 -0.64521605 0.22309051 30.444445
-0.62377578 -0.45841652 0.16002858 1
-0.53077936 -0.46289453 0.16264799 2.0999999
-0.41764164 -0.47451839 0.16115639 2.4000001
-0.29616225 -0.50252801 0.15445438 2
1.2586269 -0.55631125 0.21000542 12.428572
5.8761287 -0.56830937 0.23867726 1
-0.48533931 -0.43189305 0.16956988 1.2
9.9725685 -0.21240215 0.1878038 35
-1.2349344 -0.1256008 0.27681673 1
-1.0872846 -0.050555512 0.19102868 3.3636363
-1.1081632 0.075873502 0.25128248 0
-1.0370331 0.12977616 0.17135018 0
9.364604 0.13676222 0.24756479 33
-1.0933315 0.17175423 0.26823938 0
-0.95753342 0.19629596 0.18296528 0
1.4319273 0.43048659 0.2071941 12.666667
1.5840636 0.35021472 0.22638328 11.666667
3.9015763 0.41183794 0.27073669 20
4.5241694 0.37224069 0.25443614 47
0.83289403 0.59126937 0.18107313 1
0.94898874 0.58462828 0.20392698 1
1.1549275 0.5841133 0.19733772 19.5
1.2690898 0.52208322 0.210922 17.142857
1.3716812 0.46407104 0.23788014 13
4.3062491 0.48841524 0.2203995 45
-1.0635804 0.72609967 0.19208825 9.333333
-0.96917605 0.72197491 0.22448692 7.909091
-0.88524562 0.71500367 0.20053871 9.666667
0.87095571 0.74031961 0.19014892 10
0.92724788 0.70505685 0.19797684 26.4
1.0781952 0.61893588 0.17463993 14.333333
-0.81107557 0.82228911 0.25306803 8.7142859
0.58574015 0.89257258 0.23246256 9
0.66580129 0.84858549 0.20772406 8.4761906
0.79024023 0.77971125 0.19395219 9.2857141
-1.671568 0.97323406 0.28252918 85
-0.77132761 0.91091073 0.27309906 10
0.3683939 1.0102776 0.21087724 10.045455
0.51528829 0.93321311 0.24766466 9.0952377
-1.6025997 1.0924312 0.27436841 81.75
0.079143144 1.1663903 0.21249749 11.375
0.25132644 1.0761886 0.25342292 10.222222
-0.9111591 1.2700591 0.15101546 57
-0.21947412 1.3214263 0.21105321 11.583333
-0.047666252 1.2333559 0.23222347 12.666667
0.018318083 1.2022289 0.28174114 10.5
-0.96205187 1.4134257 0.25324488 154.5
-0.50735289 1.4714435 0.19327895 32.142857
-0.34339231 1.3871934 0.24654396 12
-0.28510988 1.3577108 0.26250899 10
-0.81535977 1.6342318 0.19478631 51.200001
-0.66542828 1.553098 0.21245545 63.5
-0.58219153 1.5148915 0.24661948 23
-1.1423566 1.7870455 0.26733398 142
-0.961716 1.7136903 0.23960726 48.333332
-0.86757916 1.6635299 0.19482374 51
-0.059563074 -3.0949469 0.39016372 11
-0.0156156 -2.9342406 0.43427128 0
0.33148214 -2.3556485 0.35507107 3.5
0.39109397 -2.218401 0.34030479 2
11.173607 -2.2035203 0.3671819 13
0.097522378 -2.005224 0.31894407 7.6666665
0.74381977 -1.5539955 0.40735251 11
0.24217732 -1.3757737 0.33262682 1
0.73970991 -1.4542781 0.4305883 10
0.8199833 -1.4005765 0.37989852 30.666666
0.87685472 -1.2988926 0.3476162 32
0.92293137 -1.2097473 0.43011814 32
0.31634229 -1.1682467 0.3099916 2
0.9715538 -1.1204147 0.38525581 32.222221
1.0228381 -1.0251368 0.37383628 32.75
1.0682883 -0.94172478 0.36095002 32
11.637176 -0.92417735 0.3390249 2
1.1308053 -0.82426184 0.3701748 42
1.1884115 -0.72000617 0.36108029 30
1.2285779 -0.64672893 0.35071784 29.75
-0.56567001 -0.48156938 0.33897626 0
1.251321 -0.54201955 0.33186945 8
-0.46858537 -0.42745593 0.30028665 0
9.9145775 -0.38726616 0.34402752 34
-1.2559717 -0.084996343 0.37863493 3.2
-1.1783479 -0.011141646 0.34953925 0
-1.111977 0.064412959 0.35709506 0
-1.1150143 0.19938639 0.37769014 0.2
-1.1341263 0.30747166 0.40807557 6
1.4733893 0.40914112 0.30563349 12
1.5900233 0.35363486 0.33370203 12
3.9527202 0.39377767 0.35259536 44
4.5860081 0.32924148 0.44845086 16
-1.0580767 0.58252156 0.42149341 6
-1.0024549 0.59004509 0.44253579 2
3.6994436 0.4695892 0.30523562 22
-1.1168633 0.72433758 0.35411394 6.125
-0.9621805 0.68969697 0.40062174 3.5714285
-0.88346517 0.70891237 0.40313423 5
-1.7413366 0.82949299 0.38165653 76.444443
-1.1924447 0.80791301 0.31127268 5
-0.9540301 0.7552467 0.41613072 6.5
-0.82742172 0.80505073 0.33532393 7.8666668
-0.72170728 0.83199972 0.4291786 6
-1.6714748 0.9600175 0.37922439 85.166664
-1.6435294 1.0186796 0.4020443 85.833336
-0.79566395 0.90875959 0.31791258 10
0.29301518 1.0497018 0.43558735 9
0.37929499 1.0090894 0.3751514 8.75
0.48567382 0.95054072 0.33449453 8.625
-1.5891978 1.1267906 0.37700945 48.125
0.12282978 1.1464946 0.41431054 9.6000004
0.2101174 1.0995928 0.35674414 9.9444447
-0.92818528 1.3022612 0.42463005 66
-0.87351483 1.2633123 0.4369328 44
-0.16356196 1.3067607 0.42352718 10
-0.064003713 1.2456658 0.36656848 10.133333
-0.45031556 1.4544361 0.44656587 56
-0.37224492 1.4085757 0.36708012 18.90909
-0.75419009 1.6091782 0.40320835 53
-0.67753237 1.5680265 0.35176018 58.42857
-0.56587595 1.5080012 0.32098496 70
-1.0631051 1.7701045 0.34083056 46
-0.97158957 1.7206892 0.33557963 50
-0.83210582 1.6519827 0.42216319 51
-1.11045 1.8049228 0.39928466 43
0.22205712 -2.5411253 0.56882626 3
11.146479 -2.1941342 0.52857816 32
0.46677929 -2.0888884 0.544761 4
0.69581085 -1.6514568 0.51497144 3
12.846673 -1.7632058 0.51285785 2
0.73497826 -1.5657691 0.5233112 8.333333
0.76564538 -1.5138698 0.52317196 4.5
0.81040955 -1.4088382 0.49830246 20.666666
0.87457007 -1.3034385 0.54254907 32.75
0.9167347 -1.224913 0.53878593 31.833334
0.97032315 -1.1236517 0.51724619 31.200001
1.0264482 -1.021174 0.5234462 29.428572
1.064113 -0.94816452 0.51643175 28.5
1.1166517 -0.85522622 0.47287825 30
-2.0135682 -0.40639257 0.55545563 48
10.348777 -0.38818902 0.58773899 35
-1.9257458 -0.2438906 0.54832077 66
10.108197 -0.25729948 0.59775287 34
-1.8811703 -0.1074293 0.54418665 2.6666667
-1.2591022 -0.089546412 0.50955969 3.6666667
-1.1885985 -0.042031996 0.46468079 0
-1.11546 0.085479014 0.50714463 0
-1.1064018 0.21627489 0.52464294 1.4444444
9.0983267 0.29303473 0.4703232 35
9.3346558 0.16707507 0.47032213 32
3.7569926 0.40470013 0.47339928 28
4.5824375 0.35053921 0.57613617 38.5
-0.99234658 0.56585759 0.45777944 3.6666667
-0.94690931 0.68176842 0.46374649 1
-0.86126387 0.62292308 0.46868128 6
-1.7341118 0.8228963 0.48585773 57.5
-1.1187866 0.78914803 0.53533185 6.5999999
-1.0212412 0.76577961 0.49960268 8.5
-0.80612594 0.81958169 0.53704005 7
-0.7247988 0.85216159 0.49356365 6.8000002
-1.6780652 0.94620758 0.51003742 85.5
-1.6348884 1.0290039 0.50375342 83.75
-0.70459503 1.0128021 0.53857964 9
0.34926572 1.0324794 0.47931194 9
-1.5944244 1.102213 0.50645393 67
-0.75914562 1.1122749 0.58211803 90
-0.73331022 1.1082952 0.5897125 25
0.076468959 1.1772254 0.49658152 9.833333
0.24454753 1.090766 0.52884626 9.208333
0.30974835 1.0551791 0.49423301 8.5
-0.87597126 1.294369 0.51090628 77.5
-0.61991203 1.2831358 0.56670368 48
-0.19555068 1.320763 0.52507764 31.1
-0.08361344 1.2645487 0.51407951 18.799999
0.021043152 1.2099992 0.57067341 10
-0.87732941 1.3685913 0.45706981 156
-0.60566866 1.4508222 0.57561398 45
-0.50859207 1.472553 0.51349729 57.75
-0.38768822 1.4195139 0.45881844 11
-0.22939946 1.3529558 0.59789979 9
-0.81352985 1.6062769 0.47937709 47.857143
-0.61571884 1.5364567 0.57029223 58
-0.56457627 1.518744 0.57686448 55.5
-1.1036866 1.7995576 0.50964278 49
-0.94525504 1.6838455 0.55610406 106
-1.1274627 1.8157068 0.46366584 47
10.585299 -3.3193145 0.6557076 6
0.10422255 -2.7801898 0.67903721 3
10.852915 -2.7820351 0.65798414 21
0.18357459 -2.6300864 0.64294779 11.5
0.42241049 -2.1704693 0.70158666 2
0.45630234 -2.1141207 0.64218938 2
0.47716665 -2.0608025 0.65715963 2
0.67721671 -1.6743522 0.69076759 2.3333333
0.71468168 -1.6155778 0.6257872 3.75
0.82350695 -1.396686 0.68663299 27.1
0.87970978 -1.2935107 0.65353078 33.166668
0.91768485 -1.2176605 0.68287057 30.857143
0.96292514 -1.1299721 0.65198392 29.714285
-2.070868 -0.53046948 0.71009004 49.200001
-1.9798025 -0.35417211 0.66933811 65.111115
-1.9063221 -0.21602988 0.65252429 56.599998
-1.2032266 0.024939204 0.66103214 3
-1.1597131 0.078973562 0.68229491 7.6666665
-1.122961 0.28242522 0.61741054 11
4.3814349 0.42791447 0.64608097 27
8.7486563 0.50745964 0.73086405 33
-0.9314872 0.71793109 0.70919359 6.1428571
-0.8952741 0.73355508 0.69451737 8
-1.7069739 0.87889421 0.66120172 11
-0.91898376 0.79391032 0.67896849 6.6666665
-0.89048356 0.80333138 0.68525094 9.666667
-1.6720467 0.95676208 0.64565641 80
-1.6394334 1.0038301 0.74593633 73
-1.6139109 1.0762084 0.63761455 44.5
-0.78397989 1.1249915 0.68276173 5
0.11718548 1.161552 0.69039124 30.461538
0.18806106 1.1223204 0.64872193 27
-0.7159512 1.3215621 0.67565918 60.5
-0.059848946 1.2567742 0.68038547 49.799999
0.0027332723 1.2252146 0.62131751 9.666667
-0.77176476 1.375535 0.72779113 151.5
-0.69354934 1.4606322 0.68535066 86.800003
-0.57282358 1.4854827 0.6152612 86
-0.33210832 1.4041477 0.69171494 51.166668
-0.2701664 1.3689475 0.65839797 54.799999
-0.68021423 1.5558637 0.70294356 81
-0.57847869 1.523683 0.64014566 50.5
-0.94893426 1.7184502 0.63997018 60.75
10.553944 -3.3430026 0.80823362 25
10.878598 -2.7413702 0.89134908 25
0.37503654 -2.256094 0.81973827 3
0.42074206 -2.1853664 0.79586321 1
11.168222 -2.2144873 0.76599455 25
0.58175611 -1.8565602 0.8322413 2
13.134882 -1.8905842 0.79375958 1
0.62526834 -1.7650726 0.82621956 1
0.72926837 -1.5821149 0.86433643 2
0.76689702 -1.5122095 0.85685176 1.8333334
0.82690442 -1.3872001 0.80981702 32.200001
0.87613463 -1.3048251 0.81578976 29.888889
0.91434592 -1.2231026 0.76895404 30
11.649409 -0.96395856 0.81656313 1
-2.1360812 -0.66016322 0.85090303 49.42857
-2.0498073 -0.49534667 0.80005175 58
-1.9963483 -0.39652687 0.82774192 59.857143
-1.9384165 -0.27872643 0.80618441 37.75
-1.1218364 -0.049430639 0.8614012 1
-1.0953462 0.080557473 0.84012622 4.4285712
-1.0443711 0.04662165 0.87654257 1.3333334
9.6166582 0.049967248 0.83635783 34
-1.1649454 0.15351014 0.84504813 2
9.2117777 0.24531966 0.839589 31
4.4772377 0.41613901 0.83597398 36.5
4.3754907 0.46615124 0.75016451 27
-0.96153289 0.69300103 0.79316807 1.6666666
-0.85125577 0.72328258 0.85076469 11
-1.7015096 0.88563162 0.82360244 77.25
-0.83962023 0.80753613 0.83493185 5
-1.6877227 0.91679555 0.85071266 77
-1.6385323 1.0051759 0.81513369 73.75
-0.95105779 1.0067053 0.86962873 56.5
-1.6140234 1.0668992 0.87398863 15
-0.993873 1.0644244 0.89831328 4
-0.72945297 1.1833688 0.8989985 28
0.094996527 1.178804 0.80593479 52.200001
-0.18240574 1.3310137 0.85924983 44.25
-0.096021138 1.2826161 0.81447411 48.599998
0.032266058 1.2137977 0.8467223 50.333332
-0.47884986 1.4859058 0.88273537 41
-0.37755817 1.4322784 0.8127526 42.857143
-0.51097012 1.5016524 0.85726058 48
-0.8818298 1.6743927 0.86573875 89
10.592705 -3.2507143 1.0328809 30
10.818568 -2.8327055 1.0308082 21
-2.5915744 -2.4176114 1.0221171 27
0.27312559 -2.4692488 1.0183263 15.5
11.112994 -2.2744384 0.92101991 30
0.37215841 -2.2458062 0.91923654 0
11.165832 -2.2234371 1.0249496 27
13.488838 -1.9873093 1.0393497 4
0.73315489 -1.583739 0.96435869 1.6
0.82508171 -1.3959632 0.94206911 34.75
-2.8608308 -1.2845894 1.0242634 49
0.8518073 -1.3482056 0.90162528 35
-2.2352166 -0.82720083 0.98249894 3.6666667
-2.1428862 -0.68098056 0.95947725 49.599998
-2.0420127 -0.49030209 0.94715673 55.25
10.604753 -0.50274754 0.98021281 23
-1.9862676 -0.3783735 1.000338 55.5
-1.92946 -0.25057745 0.97018224 11.333333
10.167216 -0.28163427 1.0043257 34
-1.0505276 0.011769516 0.9163444 2
4.5437541 0.40150005 1.0252788 30
8.8884535 0.42626727 0.97613585 33
-1.8972245 0.52072448 1.0102886 6
4.2298212 0.57294047 0.95135307 10
4.4224882 0.46082577 1.0079836 35
-1.7053972 0.87683535 0.9105829 76
-1.6784124 0.93486744 0.98304343 71
-1.0082449 1.0906968 0.9169873 4
-0.79596847 1.1038154 0.99341804 39
-0.69107723 1.1971517 0.93825328 29
0.084146783 1.1881279 0.9296869 45
-0.18959266 1.3370976 0.96999782 42.666668
-0.047042314 1.2603475 0.98472404 46.5
0.033940967 1.2190865 0.98731244 43.75
-0.69033217 1.3874899 0.9784441 42
-0.46792319 1.4837708 0.9714238 40.333332
-0.42742413 1.4607785 0.92604071 37.5
-0.24269204 1.3695456 0.99691886 38.666668
-0.61461335 1.5156184 0.97480702 60
-0.53670251 1.5046356 1.0009507 40
10.881535 -2.8125987 1.1666267 1
0.20794065 -2.5816116 1.1495413 17.333334
-2.6308615 -2.4484141 1.1499482 11.333333
0.27349266 -2.4749837 1.1029173 23.5
-3.1240499 -2.3330953 1.1844968 7
13.071341 -1.8290541 1.0812819 3
-3.0656734 -1.6619209 1.1406556 51
-2.8669708 -1.3020287 1.1173377 17
11.776866 -1.1763723 1.177102 1
-2.1225417 -0.6440739 1.0765579 48.666668
-2.0664947 -0.53420067 1.1425998 47.333332
-1.9925469 -0.39699319 1.1482354 48.666668
-1.9201174 -0.24696054 1.088109 24.333334
9.7837305 -0.068982154 1.1293701 31
4.5324492 0.40112421 1.1511023 27
8.9633293 0.40825123 1.1420332 31.5
-1.903913 0.52627158 1.0659833 13
4.264586 0.57579094 1.0691929 8
-1.8290631 0.66000843 1.173952 16
-1.7141047 0.85486901 1.1706049 54.5
-1.6588228 0.98218822 1.1486814 13.5
-1.6496773 1.0157115 1.1901224 14
-0.89724523 1.0938182 1.0673397 11
-0.1624921 1.3292786 1.1369503 43
-0.078509614 1.2828835 1.123652 41.700001
0.0049046697 1.2383218 1.1573104 43
-0.33121267 1.4213759 1.1408346 36
-0.27267021 1.3891717 1.1398292 39.75
-0.5455516 1.5312107 1.1047357 42.599998
10.550102 -3.3637896 1.3287625 33
0.19583747 -2.620784 1.2431097 13
-2.6238148 -2.4258347 1.2333527 15.5
-3.056947 -2.3128526 1.2567213 18.5
-2.6367061 -2.397218 1.3130581 25
11.089305 -2.3015914 1.2746092 35
-3.0309172 -2.1747415 1.3030696 28.5
-3.2009676 -2.0741165 1.2922429 92.333336
-3.0685334 -1.6850779 1.2418187 46.5
-3.0104527 -1.5750992 1.3051915 28
-2.9956715 -1.5416756 1.2321985 33
-2.7595406 -1.1116016 1.310128 30
-2.5562749 -0.96346748 1.2847972 8
11.374328 -0.92866242 1.2409608 20
-2.2018824 -0.78567541 1.249047 24
-2.1291656 -0.64481807 1.2422248 48.5
-2.0883954 -0.57187736 1.3024715 45.666668
-1.9672734 -0.3536773 1.2512424 47.5
-1.9115062 -0.23775089 1.3201325 45
9.748167 -0.013719173 1.2126367 30
9.3785467 0.18725641 1.236353 34
4.3640995 0.50114208 1.258314 32
-1.8089339 0.71650273 1.2403119 14
-1.7724774 0.73680943 1.2677128 65
-1.7230709 0.83610612 1.2731317 64.599998
-1.6628309 0.95254087 1.2598106 66
-1.6106596 1.067143 1.2282851 37
-0.15877777 1.3325895 1.3020085 39.666668
-0.089187525 1.2940955 1.2585844 42
-0.36181679 1.4431735 1.3044933 35.666668
-0.21991305 1.3651294 1.2794048 41.333332
-0.6478368 1.5923849 1.2667222 36
-0.52976841 1.5263548 1.2461286 38.5
10.812419 -2.8416185 1.3636076 19
-2.6834164 -2.3899817 1.3807561 9
-3.0739784 -2.1442664 1.4480377 63.333332
11.204497 -2.1367869 1.470114 15
-3.2445507 -2.006197 1.4221344 52.5
13.505852 -2.05809 1.4872983 5
-3.146652 -1.8412298 1.4673004 33
12.281766 -1.6650143 1.4837937 3
-2.8443403 -1.2525135 1.4049174 31
11.185782 -1.2930949 1.4879786 5
-2.7919812 -1.1629219 1.487572 39
-2.1956346 -0.78368253 1.4387755 32.5
10.912998 -0.66878736 1.3535495 31
-2.0527117 -0.50052518 1.4269524 48.5
10.792829 -0.55258727 1.3893126 25
-1.9935591 -0.37636515 1.4551729 46
10.268904 -0.31860071 1.4344767 32
-1.8953676 -0.22034746 1.4447281 42.5
-1.881049 -0.060923886 1.4164933 26.5
9.9474306 -0.11479288 1.3832148 31
9.3248644 0.21663807 1.4591799 32.5
8.7700796 0.49597755 1.4803066 29
-1.8125191 0.69026524 1.4226007 74
-1.7904751 0.71353924 1.3915741 68
-1.7396821 0.81132835 1.3534752 62
-1.6081703 1.0694642 1.4735188 65
-1.5168815 1.2374051 1.4549265 40.5
-0.16630314 1.3416429 1.4444454 37
-0.10117704 1.304175 1.3942989 36.666668
-0.36582223 1.4521042 1.4036192 38.666668
-0.22963443 1.3767935 1.4371744 37.25
-0.70948881 1.6383122 1.4385787 38.333332
-0.52633333 1.5402801 1.4765413 35
-0.77928698 1.6783816 1.4781022 30
-0.74803233 1.6644709 1.4850384 41
9.9430656 -3.0176549 1.6124996 10
9.4013348 -2.6517673 1.6120477 18
10.320874 -2.6700845 1.596782 7
10.763185 -2.6516132 1.568038 7
-2.6278534 -2.4021773 1.5668837 12
8.3593473 -2.429069 1.6362792 22
-3.0338311 -2.2952201 1.5610063 7
8.245244 -2.3692575 1.6229967 21
10.123341 -2.2848492 1.5799485 15
-3.0588894 -2.1414397 1.5443866 37
8.880703 -2.1072702 1.5991408 14
10.75672 -2.2030489 1.5671153 7
-3.2143059 -2.0446343 1.5845311 46
8.0007401 -1.9687684 1.6355525 22
8.3422909 -1.961834 1.633387 23
8.8594351 -2.0441241 1.5935234 14
-3.1842928 -1.9068933 1.5617901 23.5
10.755472 -1.8323063 1.5418508 7
9.4648886 -1.7488892 1.5817236 13
11.055856 -1.6882085 1.5325394 6
7.5751405 -1.6005415 1.6493937 22
8.4674473 -1.6210581 1.6045762 21
8.7507868 -1.5950216 1.6046653 21
9.4187574 -1.6487941 1.5620668 10
7.887764 -1.4484526 1.6355127 19
-2.8872459 -1.3479667 1.5443441 32
-2.8211367 -1.2346406 1.5010403 28
7.9029779 -1.2595747 1.6181422 23
8.8830633 -1.2229452 1.5759188 11
9.9509125 -1.3242112 1.5551211 6
-2.7509089 -1.0958343 1.5865277 42.333332
7.691195 -1.0648583 1.6364967 24
8.2549067 -1.1181765 1.6225725 16
9.1253614 -1.18742 1.5832671 18
9.8987799 -1.1885488 1.5309572 14
11.35081 -1.1504817 1.5170503 3
8.2348318 -0.88808638 1.6007956 16
9.2532215 -0.77911907 1.556882 14
10.363122 -0.84859794 1.5284585 6
-2.1618476 -0.72024155 1.5691973 36
7.7855053 -0.6966027 1.598537 21
8.5608578 -0.7489782 1.603456 11
9.4426947 -0.74153811 1.5661675 18
10.296151 -0.67625141 1.5063066 7
-2.0660968 -0.52844572 1.5866556 40.5
7.7467651 -0.46999085 1.613863 22
8.461668 -0.48124194 1.5785099 22
-1.9853139 -0.38105717 1.5743619 44.333332
6.7281022 -0.32314521 1.6437863 21
7.0994616 -0.34723264 1.6268102 21
7.937006 -0.32365194 1.591104 22
8.8345413 -0.35109445 1.5889589 12
-1.8835413 -0.19883239 1.5911107 53.5
9.4478703 -0.29323277 1.5256507 12
9.6370802 -0.26024023 1.5466427 11
-1.8907245 -0.04087818 1.5725298 28.5
6.797389 -0.016927177 1.6460804 18
7.2332563 -0.0082852654 1.6199229 23
7.8413162 -0.084266342 1.5906461 22
8.6188993 -0.050284754 1.5593165 18
6.634244 0.062745415 1.6417054 22
8.0047741 0.062172487 1.5804567 22
8.9764462 0.073410019 1.560585 13
6.7665257 0.28841454 1.6323839 22
-1.9408573 0.43876469 1.6159886 7
6.6479988 0.37283903 1.6322712 23
7.2924743 0.33837077 1.6106173 23
7.883729 0.30909666 1.5754492 22
7.9659719 0.44734323 1.5624932 21
8.6612282 0.39081052 1.5389801 21
-1.7554166 0.78704274 1.6078225 63
-1.6836365 0.9301033 1.5387807 65
-1.6462775 0.9980529 1.6140869 59
-1.5632601 1.1384264 1.5928839 64.333336
-1.5137655 1.2145932 1.5702997 63.5
-0.16300774 1.3462472 1.5384531 35.5
-0.11841688 1.3246427 1.6242925 32
-0.37997079 1.4656155 1.5564134 35
-0.24753268 1.3930094 1.5817332 35.25
-0.48487043 1.5213648 1.5275418 33.666668
-0.82202172 1.7095584 1.6182847 37.5
0.30910906 -2.4263346 1.6978768 17.333334
7.4893365 -2.2590806 1.6658047 23
7.9479532 -2.2958467 1.6791016 24
-3.0721381 -2.1542971 1.6721473 26
6.7539854 -2.1480956 1.7013649 21
-3.1884818 -2.0770292 1.6826122 23.5
6.2816763 -1.988198 1.7110146 19
6.8225198 -1.9855253 1.6865007 24
7.1316185 -2.0087779 1.6766602 21
7.1942263 -1.9002658 1.6799136 22
5.9466143 -1.7206243 1.6990602 23
6.6740365 -1.7600331 1.6977535 20
7.1682491 -1.7131349 1.6731766 24
7.5407915 -1.7509847 1.6619216 19
-2.9867537 -1.5308496 1.6568955 23
5.0054474 -1.5765327 1.744083 24
5.6649842 -1.5603321 1.7154309 27
6.2053237 -1.5011109 1.6838073 20
-2.9293869 -1.439483 1.7137847 29.5
4.9054532 -1.376948 1.740151 23
5.2411122 -1.4041475 1.7400297 23
6.2282472 -1.4729558 1.6929654 18
7.0287247 -1.4895033 1.6800674 21
7.4547915 -1.4046828 1.6547588 24
5.417522 -1.2031152 1.719587 26
5.9111228 -1.3381733 1.7030226 28
6.4091749 -1.203812 1.6787707 18
6.5275083 -1.258347 1.6823648 21
-2.7443693 -1.0853633 1.7791532 37
5.0667977 -1.1869327 1.7294987 24
6.130002 -1.0923965 1.6899546 30
7.3431325 -1.1824753 1.6633245 22
5.2285976 -0.98769677 1.7252346 24
5.5888424 -0.98998857 1.7041317 26
6.5763264 -0.92355347 1.6726199 18
6.7928386 -0.98065341 1.6721994 21
5.3496466 -0.77425009 1.7137221 25
5.7662907 -0.76545155 1.698537 26
6.305656 -0.8243233 1.6731762 30
7.6297069 -0.84367907 1.6506394 22
-2.1214478 -0.65243143 1.7002469 38.5
6.6650658 -0.62474585 1.655054 20
6.9935532 -0.67506123 1.6560248 22
-2.08341 -0.58109653 1.7395616 38
5.4592967 -0.55181593 1.7064978 25
5.891911 -0.52296382 1.6829926 27
6.4605899 -0.54132408 1.6626486 29
-1.9770792 -0.37964481 1.7376202 41
5.5256934 -0.31915396 1.6937267 25
-1.9025991 -0.22886051 1.7969261 42
6.0255566 -0.26900163 1.6784874 27
6.5824246 -0.24366696 1.6554202 22
5.5862842 -0.083346039 1.6892241 25
6.1077123 -0.0050513591 1.6689659 26
5.6099491 0.15488485 1.6813451 26
6.1349678 0.26598486 1.6517166 20
5.6038833 0.39668429 1.6728026 25
-1.9151417 0.48597321 1.7883059 61
-1.8378658 0.64245653 1.6976513 64
-1.7927145 0.71716124 1.7607993 61
-1.7256346 0.83257723 1.717116 62
-1.6664387 0.93584436 1.728552 60.333332
-1.60939 1.0443271 1.7627116 63
-0.31824782 1.0350256 1.7943293 60
-1.5749944 1.1126617 1.7204452 58.833332
-0.38601437 1.1022264 1.7980345 63
-1.5250523 1.2186618 1.7096996 32
-0.35418993 1.4434121 1.7502056 58
-0.24685395 1.4063898 1.716222 37.799999
-0.63342416 1.616044 1.7599376 30
-0.51798093 1.5495126 1.7381327 40.599998
-0.92731273 1.7674245 1.7517861 28
-0.85191554 1.729528 1.7470461 36
-0.71798837 1.6642652 1.7748746 35
2.1464057 -4.0122833 1.9002873 9
2.1673305 -3.7514453 1.8826548 10
-4.1430268 -3.7335737 1.9014806 0
1.8414681 -3.6078928 1.8946115 1
1.2148043 -3.4977376 1.9124366 11
1.1287495 -3.3419616 1.9111146 7
1.3305842 -3.4053073 1.8996226 8
1.3889934 -3.4198155 1.891781 9
0.93075985 -3.2647121 1.9173242 11
1.0891916 -3.2558196 1.9007393 11
1.2478212 -3.2368023 1.8948187 11
0.67953408 -3.0403724 1.9164087 11
0.84162837 -3.1018558 1.9026744 11.75
0.99921578 -3.0790098 1.8973879 10.666667
0.59659034 -2.8769457 1.901111 14
0.67537767 -2.9246035 1.9005656 14
0.78954983 -2.9311616 1.8968815 14
0.55024076 -2.7947845 1.8998239 14.5
0.60890073 -2.729212 1.8992447 21
1.4159212 -2.8354371 1.8873101 10
1.1395984 -2.5982635 1.8765221 12.5
1.2883817 -2.6387079 1.8740717 11.75
1.394773 -2.6476119 1.8712784 12
-2.5986636 -2.4785264 1.8367821 1
0.23977794 -2.4972029 1.8003513 0
0.71190971 -2.4100747 1.8859359 17
0.8663159 -2.4114635 1.8808342 17
0.96361512 -2.4784839 1.8817354 14.666667
1.0604918 -2.4717915 1.8764961 15
1.2422452 -2.5375333 1.8728391 13
1.4783256 -2.4417288 1.8718187 12
-2.7663236 -2.2939842 1.8106865 10
-2.6557634 -2.3653746 1.8050884 10
0.52602297 -2.3082507 1.8888267 17
0.6701318 -2.3004243 1.8858693 18.25
0.82036161 -2.3600681 1.8825735 18.200001
1.2712289 -2.2816849 1.8682337 13
1.4090599 -2.3200586 1.8638042 9.333333
-2.3257606 -2.1082079 1.8622068 33
0.38767496 -2.1578708 1.8623836 32
0.5362376 -2.1993542 1.8755081 18.25
0.69806898 -2.2199008 1.8783236 16
0.86043453 -2.1198435 1.8787022 19.5
1.0099475 -2.1699054 1.8733189 19.200001
1.1225061 -2.2067983 1.8701097 15.166667
1.2287645 -2.2380998 1.8702899 12
-2.4986932 -2.0167952 1.8547865 34
0.045174431 -1.9792618 1.893078 6
0.24479131 -2.0012798 1.8795637 64.333336
0.39182666 -2.0577967 1.8777471 60
0.5210526 -2.04094 1.8531827 23.333334
0.69799536 -1.9990273 1.8675594 18
0.83296317 -2.0619009 1.872728 18.799999
0.91769516 -2.0736413 1.8744092 20
-2.8090694 -1.8537889 1.8500401 38
-2.6840119 -1.9215409 1.8501657 42
-2.1676185 -1.8685068 1.9449192 42.333332
0.12148142 -1.8928269 1.8932378 39.5
0.19917227 -1.8748116 1.8799953 63.5
0.3758209 -1.8622999 1.8820009 48
0.54219818 -1.8729833 1.8497916 22.857143
0.61531389 -1.8297702 1.8170062 24
-2.9917483 -1.7580204 1.8250309 24
-2.3116269 -1.7688226 1.9443289 44
0.24633706 -1.7615921 1.8705251 69.599998
0.37369305 -1.7091048 1.8653761 77.199997
0.49003202 -1.7796445 1.8687993 77.5
0.26604554 -1.6061654 1.8840965 44.333332
-2.948657 -1.4564147 1.8417662 33
-2.8660536 -1.3343085 1.8233334 38
-2.81201 -1.2760025 1.8895409 50
-2.63199 -1.2022402 1.9451858 61
-2.435936 -1.2986608 1.939494 57.5
-2.7671459 -1.1330985 1.8427469 33
-2.5074408 -1.0997995 1.9414238 56
-2.3527124 -1.1155628 1.9293426 58
-2.7118888 -1.0250698 1.865949 35
-2.4475012 -1.0470581 1.9298269 60
-2.2838483 -0.93054605 1.9177716 61.5
-2.3777285 -0.89312208 1.9200836 68
-2.204855 -0.82516432 1.9121021 48.5
-0.6860038 -0.69431353 1.9388982 51
-2.0635514 -0.58458924 1.8861071 55
-1.9533545 -0.42281303 1.8927144 78
-1.8863518 -0.30288133 1.8863646 74
-0.46805006 -0.32964259 1.9485451 70
-1.835001 -0.21677464 1.9104786 13.5
-0.65376699 -0.15115531 1.9497124 71
-0.49099207 -0.20238951 1.9474741 71
-0.76652908 -0.043742049 1.9489719 77
-0.63920766 -0.073866814 1.9486022 74
-0.53346306 -0.06719356 1.9450907 70
-0.9907437 0.095367156 1.9478866 69
-0.78317147 0.10040329 1.9462469 75.400002
-0.68095785 0.069554769 1.9438114 80.166664
-0.54438472 0.062108837 1.9400234 76.25
-1.6155576 0.2024575 1.8760535 33
-0.97642756 0.24480088 1.9444933 71.833336
-0.82275498 0.23175764 1.9428399 68.714287
-0.6739186 0.22041032 1.9377791 70.400002
-0.54844397 0.23690665 1.9339597 81.75
-1.8950769 0.39586928 1.872532 85
-1.7370727 0.41531223 1.8854692 46.599998
-1.5868866 0.34063354 1.8711618 53
-0.97959024 0.37296581 1.9383721 53.333332
-0.82836354 0.36933002 1.9428492 47.857143
-0.66194302 0.37735838 1.9364241 58.285713
-0.52834862 0.39399445 1.9313574 73.333336
-1.8385148 0.50430191 1.8637565 84
-1.6976782 0.55500531 1.8651175 87.666664
-1.5827384 0.49601614 1.8625489 83.25
-1.4221659 0.56929308 1.856866 57
-1.0646584 0.51274061 1.9488088 88
-0.96001226 0.53217512 1.9420433 61.666668
-0.81919497 0.52547383 1.9398295 47.555557
-0.67189169 0.53379804 1.9349862 48.875
-0.53592479 0.53230458 1.925104 65.666664
-1.8105192 0.65700918 1.8438884 74
-1.7246338 0.6707601 1.8634548 89.5
-1.602054 0.65146905 1.8602209 83.666664
-1.4469059 0.69391257 1.8542417 83.5
-1.2229791 0.68544692 1.9495074 89
-1.1330537 0.6938414 1.9472553 81.333336
-0.94482547 0.68195862 1.9414124 87.666664
-0.82503414 0.68278039 1.932222 65.714287
-0.67296356 0.68966359 1.92642 78.599998
-0.5432108 0.67694736 1.9220598 71.800003
-0.44829151 0.70531511 1.9129561 78
-1.7192295 0.80371302 1.8473222 84.25
-1.5929779 0.81457496 1.8553473 87.666664
-1.4182473 0.85227644 1.8484653 85.5
-1.2713022 0.79439241 1.8865552 45.666668
-1.1068866 0.8345657 1.9419109 83.333336
-0.97661948 0.82478583 1.9393438 84.25
-0.8161481 0.82363325 1.934232 89.571426
-0.67282039 0.81842959 1.9288108 93.800003
-0.53083652 0.84508306 1.924898 88.333336
-0.40822834 0.84939665 1.9191923 96
-1.669641 0.92500508 1.8226256 74
-1.5995916 0.9694168 1.8451452 88.800003
-1.433754 0.99915355 1.8492533 87
-1.266521 0.95006692 1.8803351 73.400002
-1.1378071 1.0075257 1.911888 74.25
-0.96027231 0.94866949 1.9343241 80.666664
-0.82685494 0.98706645 1.9283471 81.666664
-0.68709046 0.95975101 1.9266181 83.625
-0.52104157 0.98727703 1.9199625 83.666664
-0.35884833 0.99323636 1.9138287 85
-1.5529956 1.1141566 1.8338156 79.666664
-1.3887131 1.1656531 1.8395079 90
-1.2503647 1.1059117 1.8363827 75.333336
-1.1379509 1.1491868 1.8736756 64
-0.96731853 1.1204017 1.9253856 80
-0.83376163 1.1258047 1.9247493 78.5
-0.6838733 1.1361082 1.9080325 73.888885
-0.52248442 1.136058 1.8853905 84.285713
-0.41732538 1.1149091 1.852807 71.666664
-0.27325061 1.1402261 1.8093308 73
-1.1153626 1.2648379 1.8271205 70
-1.0172025 1.3280581 1.8839561 62.333332
-0.81332242 1.2812636 1.9096305 52.75
-0.65297407 1.2654693 1.8126464 71.333336
-0.52307451 1.2547762 1.8091303 77.199997
-0.38533244 1.2752522 1.8083658 77.625
-0.23586302 1.3084559 1.8052403 74.75
-1.1022422 1.4417555 1.8160912 72.5
-1.0009699 1.4386926 1.8152763 72.25
-0.83510578 1.3783755 1.8087904 71.5
-0.66927916 1.4052503 1.8110826 67.800003
-0.53599781 1.4348499 1.8065505 73.5
-0.37008393 1.4088429 1.8023661 74.25
-0.25825915 1.3855616 1.8001646 76
-1.1176596 1.5285262 1.8168041 76
-0.9426598 1.5951793 1.8105837 72.25
-0.8086524 1.5368384 1.8077775 77
-0.69172084 1.5201453 1.8088226 72.5
-0.5702402 1.5712911 1.8019246 62
-0.96926832 1.6875206 1.8091999 74.333336
-2.2774868 -2.0212779 1.9554139 40.5
-2.6717522 -1.8417928 1.9651343 68
-2.4852803 -1.9402556 1.9621142 71
-2.0829847 -1.8381313 1.9512359 30
-1.9019943 -1.8788733 2.0421801 68
-1.6965734 -1.8604879 2.0168209 33
-0.21105412 -1.8135585 1.9823135 72
-0.067055427 -1.8657185 1.9804716 74.333336
0.029959321 -1.8486465 1.9810315 69.666664
-2.930738 -1.707561 1.9689736 68.5
-2.7985809 -1.7564212 1.9613709 36
-2.5330729 -1.6803708 1.9501261 57
-2.3442724 -1.7114491 2.0192721 58
-2.2322376 -1.7061725 2.0483232 64
-2.0176888 -1.7176135 2.0411625 55.5
-1.8183366 -1.7491678 2.0391955 56
-1.7461703 -1.6667519 2.0306664 44.5
-1.6296198 -1.6908342 2.0177593 55.5
-1.3798051 -1.7281518 2.0220277 47
-0.20420037 -1.6845034 1.9786128 72
-0.073739819 -1.6898098 1.9771829 79.833336
0.07891161 -1.7497301 1.9742576 77
0.20998277 -1.7042822 1.967929 47
-2.9559219 -1.6261082 1.9558495 38
-2.7410631 -1.5473433 1.9545352 56.5
-2.4869547 -1.600816 2.0514555 74.5
-2.2632954 -1.5057971 2.0398326 52
-2.1238053 -1.5413035 2.0347733 57
-1.8864424 -1.5513551 2.0401785 41
-1.4595209 -1.5273882 2.0096898 68
-0.33133328 -1.5404072 1.9744692 39.5
-0.19973439 -1.589507 1.9786609 80.25
-0.076625399 -1.5450724 1.9749446 77.166664
0.075663008 -1.5946486 1.968298 79.199997
0.18842329 -1.5690775 1.9702078 77.666664
-2.8854933 -1.4454629 1.9549944 65
-2.5903661 -1.4412385 1.9531368 61
-2.4080231 -1.4002397 2.0355153 63
-2.3044138 -1.4366182 2.0369534 53
-2.0311148 -1.4434563 2.0310524 57
-1.8920536 -1.3984281 2.0297089 31.5
-1.7198461 -1.4901272 2.0336154 47
-1.3878744 -1.439556 2.0067477 67
-1.2649058 -1.419202 2.0004983 57.666668
-0.68563545 -1.35377 1.9893113 73
-0.38235778 -1.3879924 1.9807262 67.800003
-0.2362598 -1.4303422 1.9762775 70.222221
-0.076671347 -1.4129698 1.9719652 64.5
0.079084516 -1.4398948 1.9688864 83.75
-2.7612181 -1.3115953 1.9510537 63
-2.3258054 -1.2552803 2.0362453 63
-2.1838341 -1.3183132 2.0355978 53
-2.0799391 -1.2316031 2.019527 59
-1.8484447 -1.2439165 2.0075965 54.5
-1.7230182 -1.2893443 2.0090542 63
-1.533028 -1.33727 2.0057247 70
-1.4190178 -1.2343777 2.0037847 75.5
-1.2676154 -1.2836361 2.0035381 79.25
-1.1719522 -1.2587428 2.0001285 73
-0.96638346 -1.2669848 1.992556 79.333336
-0.79761595 -1.244339 1.9932147 80.25
-0.67410284 -1.3217815 1.9940656 78.333336
-0.51191127 -1.2771193 1.9847189 70.75
-0.37420595 -1.258361 1.9786509 61.666668
-0.24273689 -1.2739085 1.975131 58.166668
-0.079959273 -1.2807267 1.9706454 59
0.0069375755 -1.3407688 1.9734539 67
-2.3238297 -1.1189294 2.0333583 34.5
-2.2339177 -1.0982624 2.0315683 65
-1.9874306 -1.1566761 2.0192206 66
-1.858549 -1.0668789 2.0112524 69
-1.7634412 -1.1042581 2.01404 66.5
-1.5492145 -1.1076856 2.002496 69
-1.3948795 -1.1120751 2.0001886 73
-1.2758058 -1.1178544 1.9957 75.5
-1.107291 -1.1599295 1.9932445 83
-0.99838328 -1.1017904 1.990321 86.5
-0.84288484 -1.1014354 1.9888557 78.800003
-0.67212307 -1.1379949 1.9871304 74.400002
-0.49587134 -1.1332378 1.9807802 64.25
-0.38995913 -1.1226294 1.9769529 52.142857
-0.21732281 -1.1264638 1.9729955 46.75
-0.11030273 -1.1678584 1.9703072 56
-2.132292 -1.031445 2.0212543 68
-2.0374727 -0.97053879 2.018923 67
-1.8779795 -0.96978283 2.0069048 70.5
-1.710305 -0.96327865 2.0060835 72.5
-1.5774684 -0.91779876 2.0003104 73.5
-1.4123585 -0.99523532 1.9975449 74
-1.2825027 -0.95466155 2.003336 76
-1.1304805 -0.97978449 1.9876009 79.5
-0.98288667 -0.97153628 1.9896055 83.25
-0.84090912 -0.96367246 1.9903198 82.599998
-0.66833985 -0.9346388 1.9809189 84.800003
-0.52656454 -0.982463 1.9793646 68
-0.37631607 -1.0041056 1.9750086 53.799999
-0.22505701 -0.98532212 1.9696167 45.5
-2.1658885 -0.82734603 2.0076878 34
-2.0252388 -0.80810159 2.008826 72.5
-1.8475568 -0.84243226 2.0061774 69.5
-1.7285591 -0.76957232 1.9962066 73.333336
-1.5567594 -0.81574965 1.9955617 76
-1.4475964 -0.82920021 1.9963909 77.25
-1.285436 -0.81955528 1.996456 80.666664
-1.0920764 -0.81107378 1.9914583 84
-0.94150048 -0.81403768 1.986398 88
-0.80299991 -0.82189465 1.982829 92.333336
-0.66161597 -0.80277574 1.9751718 94.599998
-0.54565638 -0.83384734 1.975932 83.333336
-0.37008739 -0.81529492 1.9663424 69
-0.28697538 -0.86085171 1.9668134 64
-2.0041306 -0.63538605 1.9999212 74
-1.8712572 -0.67923898 2.0053816 68.666664
-1.7406839 -0.60841012 1.9992675 66
-1.556547 -0.70549065 1.9958774 72.75
-1.4218841 -0.66837329 1.9965901 75.666664
-1.2926176 -0.67673171 1.9920282 78.5
-1.1340512 -0.67276692 1.9841199 84.666664
-0.98669362 -0.67192739 1.9842745 93.25
-0.84893095 -0.68222451 1.9790745 94.75
-0.66844058 -0.66898966 1.9700657 95.375
-0.52101761 -0.68514127 1.9640664 82.285713
-0.37703127 -0.66916722 1.9540439 62
-1.8727781 -0.54415739 2.0020435 76.333336
-1.6890575 -0.58846599 1.9956743 73.666664
-1.5680822 -0.53384751 1.9937948 71
-1.4503061 -0.51810604 1.9931158 75.333336
-1.2895818 -0.53116548 1.9875535 76
-1.1171941 -0.54542434 1.9810414 83.333336
-0.96789342 -0.52212858 1.9797243 93.199997
-0.80763161 -0.53026301 1.9701155 92.125
-0.6877861 -0.52160496 1.9615772 73.85714
-0.54689014 -0.51065826 1.9598198 75.599998
-0.41521707 -0.55601776 1.9546665 69
-1.8528749 -0.40646148 1.9957622 81.666664
-1.7325392 -0.42195171 1.9924654 70.75
-1.5777651 -0.41973734 1.9904834 75.666664
-1.4500659 -0.34326398 1.9875072 83.5
-1.3146197 -0.38721594 1.9829024 81
-1.1287459 -0.40946048 1.9786599 89.25
-0.9703058 -0.37102532 1.9736357 92.571426
-0.82475728 -0.37362972 1.9631895 77.800003
-0.67440003 -0.38083625 1.9599115 76.85714
-0.53654021 -0.36569113 1.9551637 74.5
-0.44867504 -0.41714889 1.9578205 67
-1.8100386 -0.24639115 1.9909561 83
-1.7412087 -0.25231305 1.9879781 83.666664
-1.5774381 -0.25372231 1.9861281 86.599998
-1.381559 -0.22987144 1.9837536 86.333336
-1.2419597 -0.2639536 1.9794685 92
-1.1188604 -0.24155544 1.9752558 89
-0.9721421 -0.21283841 1.9625031 77
-0.82954925 -0.20982233 1.9566346 76.714287
-0.69273573 -0.24314573 1.9553893 76.777779
-0.52753127 -0.23384218 1.9506317 76
-1.6954665 -0.097894579 1.9844505 75.5
-1.5777365 -0.095355004 1.9824076 84
-1.3910336 -0.085654974 1.9818081 88.666664
-1.2408075 -0.095031418 1.9736423 92.5
-1.1084627 -0.059163455 1.9707485 94.75
-0.98234683 -0.079451285 1.9538664 71.599998
-0.83701932 -0.078234352 1.9549643 75
-0.70803159 -0.072968274 1.950471 79
-0.54553384 -0.14699489 1.9510525 73
-1.5628734 0.062888786 1.9786053 85
-1.3927695 0.057203714 1.9747211 89
-1.250861 0.07784038 1.9685622 94
-1.1279019 0.098348767 1.9657618 98.333336
-0.9651829 0.068799153 1.9542434 72.199997
-0.86553288 0.081047639 1.9523389 75
-1.5656565 0.21845527 1.9740499 85.333336
-1.4122317 0.21197507 1.9699987 89
-1.2835791 0.22612444 1.9687467 88.75
-1.1293017 0.228339 1.9628128 93.333336
-0.95184326 0.20126262 1.9565747 89
-1.4345294 0.38716435 1.965591 89.666664
-1.2862929 0.38154566 1.964269 87
-1.1241149 0.3589828 1.9565681 95.333336
-0.92970675 0.4149259 1.9509372 50
-1.3912706 0.50812268 1.9584962 83.5
-1.28292 0.52767265 1.9571439 83.333336
-1.1559281 0.51096815 1.9551257 84.666664
-0.9649964 0.51074141 1.9593879 76.5
-0.89931715 0.59158009 1.9520367 56
-1.3720536 0.65884852 1.9540311 86.5
-1.288022 0.66002589 1.9534246 80.5
-1.1647083 0.61035109 1.9556478 79
-1.0449959 0.64814109 1.9523267 87
-1.2644715 0.80289888 1.9512945 90.5
-4.08002 -3.6506023 2.3012934 0
-4.0749192 -3.5629165 2.5044396 0
