# .PCD v0.7 - Point Cloud Data file format
VERSION 0.7
FIELDS x y z intensity
SIZE 4 4 4 4
TYPE F F F F
COUNT 1 1 1 1
WIDTH 93
HEIGHT 1
VIEWPOINT 0 0 0 1 0 0 0
POINTS 93
DATA ascii
5.082469 -1.1671852 -0.97106487 1
2.8696101 -0.96714139 -0.91336274 5
3.8810418 -0.9420312 -0.94572812 1
2.5301945 -0.82774937 -0.90458584 9
2.7949934 -0.73966962 -0.91894537 9
3.6130972 -0.61405563 -0.94733399 7
4.6138539 -0.74716508 -0.96879238 1
6.5185566 -0.62038165 -0.90408272 19
2.7702744 -0.53627944 -0.92958909 9
5.7111368 -0.52281684 -0.99948955 0
2.7381411 -0.33889803 -0.93312198 7
3.4137976 -0.33094972 -0.94604796 9
4.3131356 -0.40562907 -0.96833485 7
2.7294862 -0.14904176 -0.93673652 5
3.3277125 -0.078360707 -0.95351738 6
4.1560192 -0.10609231 -0.97495556 7
5.3314257 -0.14652856 -0.99740034 1
2.762692 0.037543036 -0.94490892 6
2.8120632 0.23150703 -0.9516083 6
3.2818706 0.16387956 -0.95834553 5
3.9990776 0.17367807 -0.9714272 28
3.561156 0.40470946 -0.91471392 44
5.69208 -1.2570291 -0.88193262 93
3.506654 -1.127826 -0.84105515 7
6.5221357 -0.61201787 -0.80918932 24
9.7521172 -0.45428041 -0.79473364 37
4.0074782 0.14508714 -0.8625676 45
4.096621 0.10150128 -0.76183444 37
3.6139016 0.37416065 -0.8272959 50
0.10049404 -2.765064 -0.66955125 18
0.18897155 -2.5963097 -0.68318164 17
0.23267069 -2.4981396 -0.68369293 12.25
0.10567917 -2.0274656 -0.66909009 1
0.47737622 -2.0399308 -0.67919284 28
0.56517982 -1.8757677 -0.64611185 16.200001
0.61768407 -1.7849971 -0.65871787 24
6.306119 -1.7562747 -0.667449 95
5.6751113 -1.2924489 -0.64343905 96
5.7052898 -1.2457379 -0.7141217 97
3.4905832 -1.0828148 -0.73412287 6
3.4822159 -1.0408255 -0.63182986 7
9.8470306 -0.15376282 -0.63120538 35
4.0062537 0.14634757 -0.67013377 39
3.6501379 0.35324863 -0.69107968 48
-0.0016130686 -1.8294504 -0.54425496 1
0.005368215 -1.8329508 -0.53732681 0
6.3324027 -1.8560436 -0.59433591 30
0.6551826 -1.702971 -0.52208012 16
0.72202075 -1.5812541 -0.51147985 25.714285
0.74574715 -1.4895811 -0.54885697 1
0.79937291 -1.4357171 -0.5435493 32.333332
5.6380882 -1.3522686 -0.47511804 94
0.90938252 -1.2357028 -0.49068746 38
0.96690518 -1.1219114 -0.46569011 40.5
1.0217527 -1.0200949 -0.48323473 39.400002
5.8996773 -1.0329952 -0.54066223 25
1.203528 -0.68664265 -0.48234454 40
5.9864464 -0.66823578 -0.58784747 16
6.1993709 -0.3889415 -0.45647004 21
4.196187 0.05330193 -0.55148274 34
3.777272 0.29216728 -0.53474927 44
3.9718511 0.18500058 -0.47288626 51
1.4547548 0.39366734 -0.46096984 17
1.5585742 0.33116245 -0.50269842 16.5
3.5743666 0.40638644 -0.46327826 45
-0.30133921 1.3388749 -0.47212735 13
-0.24752021 1.3037879 -0.46001083 13.5
-0.36636698 1.3728025 -0.4602682 13
6.5590386 -1.9822942 -0.41578165 1
0.65229309 -1.7040977 -0.43433669 18.333334
0.7103278 -1.5990049 -0.44138616 27
0.87240916 -1.3028023 -0.42666221 37
0.92236269 -1.2101907 -0.40331733 37.5
0.96033621 -1.1379324 -0.43121028 39
1.1269486 -0.82318574 -0.42433798 43
5.9579468 -0.87399656 -0.42433304 3
1.1566564 -0.74414825 -0.40757433 34
1.2210009 -0.6495499 -0.42287219 39
6.0281181 -0.74327224 -0.42485294 1
1.228742 -0.53760475 -0.43094015 10
4.3579931 -0.017696019 -0.43173733 22
3.9177907 0.22326918 -0.42439026 46
1.535966 0.35124388 -0.41391277 15
3.5447598 0.42354894 -0.41068283 41
1.1820921 0.53887528 -0.41612667 24
1.3184953 0.47374636 -0.43948993 22
-0.021000285 1.1944745 -0.4106732 17
0.021729153 1.1690955 -0.40276685 20
-0.31033063 1.3448632 -0.40279832 12
-0.21461473 1.286948 -0.42649323 15.571428
-0.057689596 1.2107977 -0.42200285 15
-0.46403649 1.4240955 -0.41216812 13
-0.38861379 1.3860736 -0.42035887 13.166667
