# .PCD v0.7 - Point Cloud Data file format
VERSION 0.7
FIELDS x y z intensity
SIZE 4 4 4 4
TYPE F F F F
COUNT 1 1 1 1
WIDTH 74
HEIGHT 1
VIEWPOINT 0 0 0 1 0 0 0
POINTS 74
DATA ascii
2.2436969 -0.44876951 -0.78909111 11
3.5147123 -0.30216214 -0.76758695 1
4.3464766 -0.153872 -0.75529015 1
4.3589525 -0.16384798 -0.75358903 1
3.4253254 -0.083008528 -0.77470684 5
3.3120279 0.12580767 -0.77472067 8
4.1328402 0.12774837 -0.75320554 1
4.2685556 0.11987334 -0.75387609 1
3.357939 0.18450144 -0.77300274 8
3.2852285 0.36145398 -0.77455384 8
3.3517458 0.42454079 -0.7713598 8
4.0955763 0.40213639 -0.75831497 7
2.2078748 0.7247023 -0.79071856 7
3.3118284 0.60500205 -0.77338028 7
3.4605742 0.69023186 -0.77471989 9
4.0715852 0.67789978 -0.75517869 7
2.2949102 0.92523861 -0.78580475 5
0.18304043 -2.0771255 -0.68307674 6.5
0.22608487 -1.9183195 -0.63646626 6
0.27403504 -1.7862035 -0.61400801 18
5.4980764 -0.63807893 -0.68961549 1
3.0671933 -0.52714211 -0.66280627 6
4.5021505 -0.46662331 -0.74721229 2
5.2599988 -0.53289038 -0.64688981 19
5.2921848 -0.2451115 -0.69145453 66
8.2055407 -0.037179921 -0.68127155 22
5.5049257 0.089753784 -0.72341633 1
4.2265801 0.4014464 -0.74949121 3
5.5469704 0.39537129 -0.7196309 0
5.3393335 0.46316373 -0.73193836 0
4.3227329 0.70105672 -0.74864376 2
3.2255454 0.88777292 -0.73016161 47
3.3943295 0.80120432 -0.66498929 43.5
3.5000756 0.76942796 -0.60157287 39
5.1945801 0.78299969 -0.72633314 1
5.9988861 0.80107355 -0.73540628 0
2.8341608 1.0084499 -0.66205108 50
2.9244609 0.97925091 -0.69422096 61
3.0198667 0.94601369 -0.63096571 54
2.6198905 1.0943655 -0.6347273 35
0.055111658 -2.4326208 -0.51307732 0.5
0.19975002 -1.9934244 -0.47343633 16.666666
0.23906964 -1.8678503 -0.52021801 15.833333
0.28988266 -1.7276798 -0.52681112 17.5
0.31000474 -1.6736714 -0.56035101 21.5
0.33975968 -1.5795398 -0.53579497 20.333334
0.3785277 -1.4580053 -0.48756805 14
8.5562553 -1.3779634 -0.49441668 70
0.3956911 -1.3304962 -0.4799192 1
0.45913294 -1.2621064 -0.45169574 5.5
3.046489 -0.54945159 -0.53540164 8
5.3943539 -0.57870489 -0.48980105 11
3.0627615 -0.41278809 -0.4598234 5
5.2573609 -0.3464582 -0.55588388 93
5.2959032 -0.25595945 -0.52919126 93
5.5612922 0.062708348 -0.57249129 0
6.3208809 0.33709741 -0.5980438 17
3.6488492 0.72619402 -0.54610789 40
3.7872818 0.66351485 -0.46877185 1
5.5945363 0.63014394 -0.55388755 24
3.238198 0.86548126 -0.51079679 47
2.7983778 1.0243442 -0.52635849 57
2.9088647 0.98555851 -0.47595665 50.5
3.0820346 0.92302632 -0.58155149 45
2.7223504 1.0515298 -0.54547751 53
0.17579851 -2.0528417 -0.42616186 1
0.2383386 -1.8621676 -0.42215297 9
0.29534531 -1.7293011 -0.42988464 16
0.3367818 -1.5976726 -0.43618679 19
0.390578 -1.4290719 -0.41954654 10.5
0.41651645 -1.3093778 -0.43265113 2
2.2896204 -0.4756968 -0.41997573 45
3.3982587 0.81145734 -0.43341327 44
2.6174309 1.0852613 -0.43957394 44.5
