# .PCD v0.7 - Point Cloud Data file format
VERSION 0.7
FIELDS x y z intensity
SIZE 4 4 4 4
TYPE F F F F
COUNT 1 1 1 1
WIDTH 1443
HEIGHT 1
VIEWPOINT 0 0 0 1 0 0 0
POINTS 1443
DATA ascii
-0.54949993 -2.568186 -0.16648766 0
-0.38158852 -2.1378484 -0.17419133 3
-0.33148128 -1.9634842 -0.16735551 0
-0.65873611 -1.8325517 -0.1583637 3
-0.26380873 -1.8058255 -0.19554144 2
-0.22437932 -1.6929357 -0.19513345 3
-0.18169332 -1.5772545 -0.18675807 5.5
-0.074208952 -1.2776647 -0.15243746 5.5
-0.030281503 -1.1758101 -0.16903539 2.5
0.012863797 -1.0774076 -0.17302606 4
0.060321763 -0.90954292 -0.16872831 4.5
2.0740361 -0.90190279 -0.1892094 127
0.08831092 -0.842641 -0.17736469 4.8571429
0.16998328 -0.63761216 -0.17424077 4.818182
2.1265485 -0.73694611 -0.15486278 74
4.7051439 -0.60479248 -0.16534893 34
0.21601057 -0.51988471 -0.17212963 6.1999998
0.24377885 -0.4107801 -0.17655125 2.8571429
0.3752062 0.58295286 -0.1848712 6.2857141
0.46470973 0.50782329 -0.16840103 2.25
3.2893229 0.54604268 -0.17691281 29.5
-0.25562993 0.67862999 -0.18014221 0.60000002
-0.032273747 0.72837555 -0.17102666 7.7142859
0.039666705 0.70314533 -0.1809987 7.875
0.23821628 0.63365471 -0.1735215 5.4000001
0.32204995 0.60418493 -0.18151587 6
2.9233189 0.67838502 -0.17980801 35.5
-0.45674708 0.88720614 -0.16852546 18
-0.40363029 0.86839312 -0.16928881 15.25
-0.19480339 0.78498977 -0.18591131 7
-0.117282 0.76599103 -0.17704746 9
2.4098508 0.88650352 -0.1754096 56
2.6395464 0.79494905 -0.17432848 47
-0.75881928 1.0126642 -0.16331553 9
-0.68774849 0.97795147 -0.1741184 10.166667
-0.55648214 0.9238013 -0.17880724 13.285714
2.1882911 0.9689644 -0.16396348 61
2.3701677 0.9008792 -0.15117095 53
8.6590319 1.0077878 -0.19795036 25
1.8941051 1.081547 -0.19482982 73.5
-0.61486888 -2.8026767 -0.035668287 0
-0.51467085 -2.4902525 -0.07588663 4
-0.47168958 -2.3181789 -0.052841369 0
-0.40256125 -2.1665592 -0.10040767 1.5
-0.31891793 -1.9581994 -0.10352982 0
-0.2682392 -1.8491709 -0.071108736 2
-0.24211584 -1.761005 -0.10956524 2
-0.17674735 -1.5688576 -0.077370211 3.5
-0.59196097 -1.3502039 -0.089536168 0
-0.1396206 -1.4333236 -0.050357737 1
-0.65850353 -1.2190349 -0.021884108 0
-0.094887152 -1.3099294 -0.073456272 4.375
5.1142621 -1.2840233 -0.02240262 10
-0.68721431 -1.1166005 -0.015313421 0
-0.015177685 -1.1386156 -0.042651981 3
0.013794284 -1.0736059 -0.049382176 3.6666667
2.2302854 -1.121503 -0.0003648448 13
-0.70409322 -0.96966034 -0.014882405 0
0.041050438 -0.97446823 -0.096839003 4.8333335
1.6470178 -1.0134649 -0.11523569 150
1.9989395 -1.0299423 -0.13964529 97
5.1532979 -0.97310746 -0.092132963 12
0.10468796 -0.82063156 -0.053498872 5.2777777
1.7252469 -0.79812115 -0.11960434 119.66666
0.13948831 -0.71707863 -0.11264126 5.1999998
0.17286161 -0.64316463 -0.050447688 5.4444447
1.7694194 -0.64087439 -0.1291977 43
0.22147772 -0.51286376 -0.071996152 5.826087
0.25324973 -0.41223705 -0.070073001 3.3636363
5.2425966 -0.43347391 -0.080109008 11
5.271884 -0.37144995 -0.010463064 13
4.8750496 -0.086416692 -0.093764238 8
5.0025902 0.20973682 -0.10546984 4.5
0.38165227 0.5680306 -0.065314867 4.90625
0.49147642 0.51275897 -0.072440892 2.8181818
-0.30631107 0.67162138 -0.016926844 0
-0.2668286 0.67455858 -0.032751542 0
-0.049232148 0.7342664 -0.08632198 6.8333335
0.076423809 0.69314128 -0.070763104 5.5999999
0.22507335 0.63364077 -0.07531976 5.2647057
0.31447411 0.60474193 -0.044015579 6.5
2.7787204 0.74107671 -0.097402491 37
3.0752203 0.61965925 -0.071832649 14.5
-0.47104564 0.8921414 -0.10797328 15.666667
-0.38915601 0.86407948 -0.054664046 15.588235
-0.18133381 0.79960072 -0.040840261 5.5
-0.12913321 0.76933533 -0.08639662 6.8000002
2.5121405 0.83820254 -0.10591052 39
2.9715903 0.78412795 -0.045038853 150
-0.8207674 1.0301934 -0.077731423 8.2142859
-0.67830342 0.97096294 -0.08239013 9.7222223
-0.53816587 0.918495 -0.081106305 12.25
2.0471718 1.0261059 -0.12448591 62
2.1452646 0.98511571 -0.12936908 59
2.280483 0.92313737 -0.10714934 49
2.9566517 0.97250849 -0.013605778 150
-0.95039636 1.0746335 -0.044779051 8
1.9029481 1.0709921 -0.092020608 50
1.9558418 1.0631006 -0.10319874 70
-0.73788404 -3.1065927 0.11700586 0
-0.3578254 -2.8620644 0.12494474 0
-0.62673378 -2.8349805 0.071345381 5
-0.56522501 -2.7086132 0.0037730886 5
-0.53844517 -2.5507536 0.043406125 5
-0.69068104 -1.9881313 0.056171801 0
-0.61779141 -1.8853066 0.0091595305 6.5
-0.59384 -1.8811817 0.10651603 14
-0.28606254 -1.8725296 0.13151717 0
-0.18136749 -1.5549532 0.042170301 2.25
-0.60526735 -1.3589487 0.036099549 0
-0.57164252 -1.3696249 0.06739486 2
-0.13836159 -1.3589929 0.14324826 0
5.1012974 -1.3644371 0.075049691 9
-0.62288272 -1.2685758 0.076466039 2
-0.59396541 -1.3414252 0.124552 4.5
-0.080571495 -1.2898278 0.082078166 3.5555556
2.1914046 -1.2514987 0.067129783 41.333332
-0.65926248 -1.1323785 0.085285798 0
-0.028075796 -1.1793377 0.059577875 3.8
0.0129582 -1.078619 0.051278081 5
2.2312546 -1.1558173 0.084480159 14.5
2.2685943 -1.1330639 0.14522022 7
5.1779761 -1.0621066 0.012232776 4
8.0758667 -1.1220281 0.11096375 65
-0.70412344 -0.98204774 0.087784119 0
0.058122288 -0.95762539 0.079450719 5
2.2661893 -1.0061444 0.072130442 7.25
5.1798549 -0.9636724 0.08943259 73
0.11074959 -0.81578058 0.090329878 5.1538463
5.179656 -0.80346143 0.14501673 19
0.13896655 -0.73671079 0.075740367 5.8333335
0.16931899 -0.65706414 0.083284266 5.478261
5.3203683 -0.68139803 0.039735015 11
0.21127991 -0.53856826 0.04560595 5.032258
4.8928556 -0.19327004 0.059708502 0
4.8380771 -0.12679516 0.1045407 0
4.9338179 0.11644067 0.067285664 1.5
0.29811591 0.59891206 0.06515526 4
0.36722839 0.57464331 0.044670675 4.9259257
0.47171956 0.53310519 0.035329703 4.8000002
-0.32159397 0.66764504 0.039982703 0
-0.25999364 0.66169292 0.11258072 0.55555558
-0.037643094 0.73198658 0.07406088 4.8666668
0.083434634 0.68486643 0.083371438 4.75
0.21435058 0.63278478 0.076081216 4.8000002
-0.48046544 0.89614016 0.046136808 13
-0.37026745 0.85070652 0.088426225 10.642858
-0.17831281 0.79124093 0.10968912 5.3333335
-0.10570681 0.76711357 0.072262898 5.3125
8.6332874 0.87785578 0.04266911 28
-0.80573756 1.022074 0.081058979 8
-0.69321835 0.98055947 0.047635969 9.666667
-0.54721856 0.91966438 0.098729588 10.888889
2.4415274 1.0166907 0.090040095 30.666666
3.3244257 0.95354736 0.1080478 50
-1.2676958 1.1893804 0.11360078 26.5
-1.1133204 1.1345104 0.089563377 8.818182
-0.96767169 1.0803994 0.05845448 8.0714283
2.5339859 1.1934536 0.027103627 57
2.7222791 1.0844691 0.00256979 127
2.991889 1.063982 0.13193834 29
3.0366261 1.0609039 0.082143627 42
-1.4477057 1.2615962 0.13142306 46
2.3639312 1.3227695 0.097334132 49
2.5400352 1.2549784 0.10963558 73
-0.37533802 -2.8346496 0.18630564 0
-0.54656124 -2.5667477 0.29039145 4
-0.5211097 -2.5116968 0.19463453 3.5
-0.27490944 -1.8808447 0.29027641 1
-0.15485415 -1.541616 0.23757178 4
-0.12601416 -1.3538144 0.21734133 1
-0.63282228 -1.2191107 0.22621509 2.5
-0.073842153 -1.2823713 0.22890179 6.8000002
2.1729593 -1.2565964 0.21319981 120.8
5.198925 -1.2704706 0.16220033 0
-0.68261236 -1.1041422 0.26303795 0.25
-0.0098211048 -1.131047 0.24200928 4.5
0.0077050207 -1.0917245 0.21180347 4.4000001
2.2692451 -1.1372051 0.19298521 37.5
0.048110254 -0.9880991 0.20979317 5.1428571
0.10400036 -0.83160508 0.22221483 5.5294118
0.14091143 -0.72440594 0.22735234 5.25
0.16199011 -0.67446095 0.18682919 5.090909
-1.3802876 -0.21132196 0.25465482 0
-1.3600239 -0.1404881 0.22826427 0
-1.2871535 -0.067491844 0.24238944 0
-1.2858198 0.017187646 0.27938491 0
-1.1940825 0.033742834 0.16539937 0
4.7238793 0.022393296 0.20390654 0
-0.20190957 0.58457303 0.16984993 0
-0.31160843 0.6859808 0.17569524 0
-0.22739649 0.69929439 0.22750139 0
-0.035274863 0.73331577 0.21280117 5.2666669
0.069059037 0.6885733 0.21800727 5.0465117
0.17942795 0.64371961 0.16535482 4
-0.46971044 0.88698596 0.23335314 11
-0.40806752 0.862611 0.19726428 10.090909
-0.17595536 0.79093778 0.19637679 7
-0.10274773 0.76187187 0.24653928 4.7692308
3.4199243 0.89708662 0.21644914 22
-0.83435696 1.0309943 0.18632163 8.333333
-0.66846335 0.97433263 0.22505987 8.8125
-0.50985473 0.91732615 0.25352573 9.3999996
2.3636451 1.0382731 0.17188674 76
3.1324558 1.0207732 0.20447338 51
3.2158628 0.99402267 0.25545913 46.5
3.4520569 0.91249174 0.28640485 10
-1.2157067 1.1722306 0.22603878 16.6
-1.1412873 1.1455648 0.23292312 9.3999996
-0.964064 1.0791183 0.22029905 8.625
-0.89200962 1.0515559 0.23569727 7
2.3644474 1.1050172 0.15553296 32
2.4575026 1.1018316 0.22745723 114
2.932507 1.0927024 0.2496663 37
-1.6557341 1.3351009 0.28987449 44
-1.5480938 1.2975864 0.25105867 45.5
-1.4065181 1.2445757 0.2117271 49.166668
-1.3422332 1.2183511 0.20861088 53.666668
2.3445256 1.3248328 0.17693263 55
2.4799588 1.2678174 0.2259738 58
-1.6999638 1.3538214 0.25666225 44
-0.41795513 -3.1770768 0.31295735 0
-0.69215089 -2.9536967 0.39640236 0
-0.63894176 -2.8391659 0.34763062 3
-0.59610444 -2.7164078 0.37374473 3
-0.1770796 -1.542415 0.3359108 1
-0.069437951 -1.2809495 0.38985682 7.5714288
-0.66433567 -1.1091313 0.3124814 1.5
-0.031575233 -1.1830978 0.33299273 2.6666667
0.012693685 -1.0912641 0.43574953 4
2.2138863 -1.1533861 0.34115645 44
-0.68621522 -1.03643 0.30565673 0
0.049777046 -0.98132294 0.35523078 4.7692308
0.10833656 -0.82728535 0.37500986 5.0588236
-1.4006432 -0.54042238 0.32066986 1.6666666
-1.3293372 -0.51551801 0.32818717 1
-1.442026 -0.31253687 0.32890511 0
-1.4132621 -0.23727724 0.37888414 8.1000004
-1.3385285 -0.16606884 0.38230458 0
-1.3040955 -0.05911855 0.35580224 0
-1.2988446 0.028317526 0.39596725 0
-1.8833106 0.41064399 0.41745871 34
-1.9367404 0.56361002 0.43625599 46
-1.8934886 0.68640119 0.40713859 76
-0.037580047 0.7383638 0.34989193 4.0666666
0.015485612 0.720267 0.32421181 4.6666665
8.6640263 0.69763553 0.3359322 18
-0.37887266 0.86699998 0.38089862 8
-0.17927699 0.79315245 0.35965085 3.5
-0.0978003 0.76271069 0.39561862 4.0625
-0.80772811 1.0214437 0.36187804 8.5555553
-0.64389813 0.96077079 0.42571691 7.3333335
-0.55310845 0.93182319 0.35031506 8.636364
2.5236914 0.99368358 0.32983434 72.5
2.5698206 1.0151849 0.42920804 144
2.7386672 0.91416121 0.40888557 49.333332
2.8872826 0.91115916 0.32696164 25
3.1313424 1.006822 0.40689671 92
3.2500188 0.97935373 0.33937293 32
3.3464718 0.94702399 0.36738324 51
-1.2197717 1.1773753 0.42268136 29
-1.1273639 1.1390399 0.37560058 17.6
-1.0032423 1.0931504 0.35192075 9
-0.89277196 1.0515321 0.43867749 13
2.381315 1.0973703 0.33793217 52.5
2.412343 1.0977454 0.39294848 53
2.7543087 1.1619564 0.32629085 55
2.9435692 1.0893633 0.34713677 65.5
3.0480566 1.0563436 0.35081929 60
8.6362057 1.1812609 0.3357234 30.5
-1.6791561 1.3450941 0.4432314 44
-1.5774088 1.3061982 0.33955494 44.400002
-1.3972658 1.2394159 0.36336535 44.5
-1.3422598 1.216264 0.44336021 43
2.371305 1.3189274 0.36951321 68
2.477644 1.2631538 0.36769265 71.199997
-2.0454617 1.4802997 0.42769635 38
-1.7663682 1.3788161 0.38398769 42
-0.80406266 -3.2593338 0.59718645 0
-0.73975194 -3.1127553 0.50007504 0
-0.33902577 -3.067204 0.56665498 0
-0.20531368 -2.9856794 0.55343056 3
-0.58240986 -2.6724863 0.54139572 3
-0.48507309 -2.3551292 0.52850842 3
-0.26954392 -1.8830605 0.57131624 2
-0.13417469 -1.3970292 0.55301476 1
-0.083375886 -1.3066497 0.51888114 13.4
-0.011856664 -1.1351042 0.52286202 14.25
0.0049809036 -1.0787659 0.51308221 8.333333
0.059643269 -0.95034134 0.51759022 3.5
10.193284 -0.93475085 0.50936413 25
0.082732692 -0.89179528 0.49710003 3
-1.411038 -0.2595199 0.49955752 4.8333335
-1.3369237 -0.17322278 0.52870625 2
-1.3545952 -0.12557399 0.57811439 1
-1.3146464 -0.042212315 0.5176506 1
-1.3253043 0.067636892 0.55064261 0
-2.0011709 0.5007028 0.54475307 112
-1.943068 0.59702438 0.50739437 66
-1.951417 0.61812055 0.55291361 62
-1.8959984 0.67041886 0.51101464 66.400002
-1.9115227 0.75406992 0.54447967 48
-0.47220561 0.89035034 0.52094513 1.6666666
-0.38181335 0.86552429 0.51921195 5.1428571
-0.17813504 0.78612876 0.53782195 2.8333333
-0.11907306 0.7678203 0.49197531 3.1818182
-0.81783873 1.0222685 0.51914501 8.5
-0.67334282 0.97048748 0.51016533 7.4000001
-0.51108265 0.91063035 0.59247828 7
2.5078933 0.95138824 0.54882818 52
2.5595138 0.98886955 0.46177924 29
2.8644781 0.92626399 0.5008201 150
3.4004257 0.92471504 0.53397757 42.333332
-2.1280074 1.1094328 0.5335114 62
-2.0970709 1.1600193 0.55415726 20
-1.2694268 1.1911758 0.51658499 43
-1.111922 1.1347342 0.52905613 47.25
-0.96162349 1.0786278 0.51546657 8.8000002
2.4394674 1.0856731 0.5432359 104
-1.6894422 1.3496568 0.54742897 38
-1.6188046 1.3203818 0.53154516 42.666668
-1.4558519 1.2617593 0.57150668 39
-1.3362498 1.2135601 0.59458923 42
2.4677322 1.2803087 0.51871514 60.333332
8.3966093 1.2714899 0.54573447 33
-2.0372596 1.4516742 0.49296248 49.5
-1.8679619 1.4120957 0.50501114 43.833332
-1.7508595 1.3703784 0.50689363 41
7.5463753 1.5944034 0.49709958 40
7.4011507 1.6644526 0.59434456 38
-0.006841111 -4.0547528 0.72419488 7
-0.10755032 -4.0201831 0.69780588 5
-0.86691844 -3.3413782 0.67430949 1
-0.72132808 -3.0533631 0.64658022 0
-0.37768915 -3.1436474 0.73707604 4
-0.22406937 -3.0706537 0.6375798 3
-0.55029881 -2.6045575 0.68257588 3.5
-0.50765401 -2.511627 0.6331116 2
-0.27483025 -1.8803391 0.65019304 1
-0.20656703 -1.7144786 0.74633729 0
-0.16071409 -1.5471582 0.64356506 2
-0.13356137 -1.4526271 0.65441459 0
-0.048894435 -1.2375027 0.68128699 23
10.062201 -1.2887113 0.71848989 29
-0.028761167 -1.1985328 0.69713318 15.5
0.0024002313 -1.114934 0.72404015 1
0.044988878 -0.986467 0.64940673 18.799999
10.256607 -0.77408028 0.64222515 30
-1.387762 -0.22758374 0.61452878 0.5
-1.2988281 -0.17766584 0.73571026 6
-1.3707914 -0.069723286 0.66293079 5.8000002
-1.3161883 -0.072494604 0.68030453 6.6666665
-1.3574566 0.083401836 0.63959265 4
-2.1139512 0.51396805 0.62253714 14
-2.0223019 0.54221988 0.67418486 48.285713
-1.9366808 0.53955019 0.71841091 44.666668
-2.0539784 0.70253968 0.70690304 169.5
-2.012042 0.86077535 0.64867926 51
-0.48169848 0.89902747 0.63443995 7
-0.36538237 0.85253429 0.67878097 6
-0.1942389 0.79089326 0.61969161 2
3.4652553 0.89510578 0.71752846 6
-2.3845654 1.0257447 0.71378279 150
-2.1235313 0.93346745 0.66797185 152
-1.9704341 0.97039688 0.63188732 115.5
-1.8832098 0.97668999 0.65092033 42.5
-1.7893846 0.96850032 0.61546916 76
-0.80564398 1.0229527 0.67949951 8.1428576
-0.64090633 0.96654773 0.73443419 7.5
-0.5585258 0.93052471 0.67235398 6.2222223
2.3625319 1.0105275 0.71925044 28
2.4306424 0.9916364 0.63472879 42
3.064333 1.0186023 0.72036618 89
3.1552989 0.9912352 0.66278446 59
3.4485991 0.90645421 0.61197829 30
9.0629721 1.0361745 0.69060695 32
-2.4008529 1.1167394 0.6388737 69
-2.3369713 1.1317368 0.70522016 97
-2.2015159 1.109881 0.70184547 152.33333
-1.9616448 1.1602411 0.64846969 114
-1.8577452 1.1454507 0.63803834 70.333336
-1.1129391 1.1313862 0.6825 45.75
-0.99394894 1.0885503 0.61006439 23.5
-0.88719213 1.0550151 0.67697537 9
2.5302687 1.1734382 0.71029818 53
2.6903284 1.0794407 0.64158869 150
2.7237761 1.1795628 0.62020421 62
-2.1768808 1.2448955 0.64542305 126.5
-1.8676971 1.3196056 0.66786599 152
-1.543738 1.2905782 0.67995602 44
-1.4246733 1.2500205 0.64537454 39
-1.3099456 1.2097632 0.65415835 35
2.3496923 1.326231 0.64936191 38
2.4939146 1.2706382 0.67523378 56
2.636982 1.2062078 0.67221725 32
-2.2922297 1.3825693 0.63439596 35
-2.1622419 1.4594065 0.66180587 135.33333
-2.0266476 1.4161332 0.64672649 92
-1.9301238 1.4326081 0.7066353 58.666668
8.1493959 1.3769995 0.62813044 31
-2.5107932 1.6335167 0.65852833 92
-2.475075 1.6508807 0.7289232 40
-0.1542194 -4.0060806 0.77168572 6
0.0035123944 -4.0476289 0.86209369 7
-2.1363344 -3.2321053 0.83483803 14
-2.0904565 -3.2427175 0.84067857 6
9.3463516 -3.2926102 0.85584605 34
-0.40124857 -3.132586 0.78864467 0
9.441987 -3.0465233 0.86348176 33
-0.68980551 -2.9911506 0.78637362 0
-0.57013321 -2.6548474 0.77221406 4
-0.2701833 -1.8851275 0.85063493 2
-0.21215622 -1.7215133 0.87691879 2
9.888092 -1.7874372 0.81455815 29
-0.18154943 -1.6277159 0.80839157 1
10.012563 -1.5420876 0.88825917 27
-0.066341646 -1.2971048 0.85704488 26.833334
-0.0056777922 -1.1304587 0.85296452 27.5
0.015279365 -1.0736312 0.8463071 21.4
0.048932739 -0.98477042 0.79737675 17
10.17713 -1.0156939 0.84360993 32
10.250427 -0.81451613 0.82877362 34
10.359641 -0.4775098 0.822788 2
-1.387499 -0.24481581 0.78806496 0
-1.2796056 -0.19725752 0.79969496 2.2857144
-1.2900609 -0.081325896 0.79534966 5
10.651234 0.37537521 0.76284993 4
-1.9872364 0.4705238 0.84974808 11.333333
-1.9247646 0.57817125 0.82819206 27.4
-1.9660678 0.61673051 0.75616336 16
10.587668 0.64126527 0.83148134 1
-2.1731296 0.82415521 0.86043948 66.400002
-0.38059762 0.8667078 0.82221329 9.6999998
-2.2854307 0.97617358 0.84398347 155
-2.1409917 0.93649268 0.83669955 106.5
-2.0332289 0.94030029 0.82365358 73.199997
-1.9393785 1.0429757 0.80627453 91
-0.82438701 1.0249947 0.82364303 27.666666
-0.65009815 0.96453238 0.84063786 13.714286
-0.49592814 0.91369635 0.8519792 6.75
2.9708731 1.0281631 0.78677487 79
3.3555412 0.94882101 0.80795211 44
-1.9560747 1.0741066 0.80379701 51
-1.9047331 1.1979135 0.77895176 42
-1.2323174 1.1773391 0.80058652 37.333332
-1.1448882 1.145555 0.77427047 34
-0.96187949 1.0802836 0.84967339 37.75
-0.89707923 1.0556079 0.79153204 8
2.9279151 1.076004 0.89621949 41
8.577426 1.1986886 0.89166999 29
-1.9181759 1.22631 0.78844702 46
-1.6752225 1.3437135 0.81819701 36
-1.5661713 1.3003136 0.83095807 37.333332
-1.2876111 1.2029475 0.75567746 33
2.4095178 1.3003935 0.83618522 52
2.57885 1.2357826 0.85248482 44
-2.4188087 1.4543138 0.88402021 151
-2.338484 1.4191527 0.79059952 124.33334
-1.9107679 1.4156375 0.79926026 70.25
-1.7511184 1.3709438 0.84764504 38.5
8.1386385 1.3617362 0.86850297 31
-2.369669 1.6034522 0.75224769 37
7.7278175 1.5165335 0.80181766 27
7.3590784 1.6623893 0.80953491 38
-2.1466854 -3.2183793 0.99885446 26.333334
-0.73785764 -3.1101718 1.0165243 0
9.6305904 -2.5546682 1.0313431 31
9.7087049 -2.2718577 0.92501307 6
-0.39512014 -2.2130699 0.9323858 1
-0.30425861 -1.9634155 1.0011425 2
9.8288622 -2.0563214 0.94963574 28
-0.25940114 -1.8678989 1.0379523 3
9.8454657 -1.9236045 1.0032266 32
-0.20327234 -1.6854444 0.90543783 2
-0.17057529 -1.6061225 1.0226866 3
-0.12387127 -1.4844052 1.010578 0
10.035893 -1.3776425 0.90199304 23
-0.040222663 -1.2343284 0.99139678 17
-0.0060700551 -1.1437761 0.98725587 25.666666
0.008122039 -1.1049671 0.96686673 25
0.034405608 -1.0252266 0.95854741 25
-3.0471261 -0.80534124 1.0451663 80
12.511811 -0.27109498 0.99565768 3
-2.8877687 0.59111971 1.0182005 96
-2.3702326 0.84073198 0.96989512 155.5
-0.47197503 0.89356667 0.9783954 32
-0.39175031 0.86814845 0.96873605 21.200001
9.5294733 0.80342269 1.0143476 26
-2.111948 1.0031281 0.9729532 151
-2.0355897 0.98034173 0.98640597 94.5
-0.75672424 1.0019779 1.0289693 31.5
-0.69132704 0.97552127 0.98434734 36
-0.53183013 0.92212915 1.0241333 15.25
3.1945229 1.0063235 0.95647526 45
3.4490259 0.9142431 1.0144057 35
9.0955343 1.0022188 0.9701972 31
-2.1152709 1.1870989 0.96263778 144
-2.0690742 1.1930786 1.0126724 116.5
-1.904598 1.1229388 0.99850416 63.5
-1.2954667 1.1992496 0.98011124 32
-1.0592595 1.1174263 1.0413988 31
-0.99495471 1.087148 0.95637137 36
-1.9759045 1.2975775 0.92109656 150
-1.9423712 1.3336259 1.0496944 36
-1.5422567 1.2975096 1.004267 30
-1.4100604 1.2437608 0.98960382 35.25
-1.3095907 1.2012078 0.92631042 39
8.4398146 1.2790585 0.97553015 31
-2.0209184 1.3924919 1.0005908 150
-1.809026 1.3879414 1.0047497 39
-1.7696563 1.3741701 0.94598436 38
7.672646 1.559599 0.91249073 29
7.2647295 1.7037973 1.0435061 38
-0.9875899 -3.6391461 1.1935576 1
-2.175478 -3.21559 1.1385708 24
-0.78490931 -3.2173822 1.1118178 0
9.3622522 -3.207015 1.1946191 31
9.4492264 -3.0513268 1.1331352 32
9.5238428 -2.7408192 1.0511737 29
-0.55435479 -2.634738 1.1071475 4.5
-0.51481873 -2.5311005 1.1685252 6
9.6708937 -2.4605041 1.134294 29
-0.39946163 -2.2304533 1.1847024 2
-0.33295205 -2.0701046 1.1831218 2
-0.26740804 -1.8585538 1.1109229 4
-0.18246271 -1.6429801 1.1527609 5
-0.13224785 -1.5127149 1.1407419 2
-0.12058294 -1.4787002 1.1195251 3
-0.046378769 -1.2491537 1.1269599 26.799999
-3.1535432 -1.0823752 1.1044819 74
-0.017207392 -1.1729726 1.0944992 26
0.014768261 -1.0920409 1.139004 38
0.035246264 -1.0384966 1.0552857 27
10.156747 -1.033605 1.1831895 28
-3.0498984 -0.79173744 1.1844462 9
-3.0279167 -0.72834039 1.1702378 11
10.356202 -0.52372658 1.182205 5
10.252572 0.55733889 1.1191691 10
10.413501 0.5238378 1.1903772 25
-2.8728957 0.64146143 1.1281371 91
-0.39442515 0.86849123 1.1448799 28.375
-2.4233959 0.93542004 1.1546046 158
-2.3942034 0.9554345 1.1330351 156
-1.9993345 1.0214813 1.0655223 5
-0.81849593 1.0246959 1.0991925 32.333332
-0.64036846 0.95645046 1.1805267 31
-0.52556896 0.9146322 1.1342895 28.6
9.3185492 0.93802714 1.0615369 30
-1.2128886 1.1738584 1.0815618 31
-1.1197561 1.1341019 1.1020644 38
-0.88331389 1.0515957 1.0770802 28
-1.9387361 1.2240747 1.1129749 2
-1.4807508 1.2680429 1.1060864 37
8.2888756 1.3170295 1.1827003 32
-1.9996722 1.4321817 1.0810765 51
-1.8825401 1.415908 1.1151203 39.333332
7.8393803 1.4864415 1.1952481 27
7.977499 1.4346792 1.1377075 31
7.5026741 1.6168298 1.0909643 39
7.1377912 1.7481921 1.1217244 38
0.029376607 -4.0572667 1.2696663 7
0.26072454 -4.1196952 1.3332609 0
-0.097560227 -4.0183673 1.2310624 6
-0.84139967 -3.3326337 1.2109113 0
9.4507103 -2.9707382 1.2828282 32
-3.3611369 -2.7685158 1.2132798 20
-0.53894269 -2.5865955 1.2546489 6
9.6186733 -2.5147111 1.3066221 31
9.807373 -2.0291159 1.2475187 26
-0.29553974 -1.9438699 1.202921 4
-0.18623996 -1.6726487 1.2847133 6
9.9461946 -1.6520886 1.3212146 33
-0.16048568 -1.5786682 1.334088 6
9.9854307 -1.5365516 1.2054639 30
-0.080794081 -1.3550313 1.2669127 10
-0.043865278 -1.2507136 1.2794896 27.5
10.062786 -1.3293967 1.3127813 33
-3.1498845 -1.071522 1.246822 64
-0.016005743 -1.1762525 1.3011999 29
0.011949611 -1.1101271 1.2454618 34
10.137258 -1.1247203 1.2467642 31
-3.1040554 -0.96541601 1.2784486 69
10.306355 -0.80243713 1.2524805 29
-2.9334896 -0.4806228 1.228452 11
10.353016 -0.57852453 1.2018328 15
-2.9115539 -0.44491893 1.2065424 80
11.732181 -0.0070461202 1.3450824 3
10.864018 0.32693195 1.214962 2
-2.8922389 0.56138223 1.2655898 18
-2.8549221 0.68668389 1.2316571 88
-0.47751212 0.89375609 1.3049562 27
-0.3908703 0.86464024 1.2745575 29.25
-0.83126938 1.0275956 1.2224309 29.75
-0.66381747 0.96806508 1.2458829 26.666666
-0.53292757 0.91838604 1.2794452 24.666666
9.2566175 0.95670772 1.3241569 28
-1.2414081 1.1792676 1.3117994 31
-1.1689932 1.1536813 1.2363027 32
-0.95987159 1.0783024 1.3200457 27.666666
8.6573763 1.1745518 1.3037934 30
8.8088913 1.1165398 1.2668176 32
-1.6673198 1.3445058 1.2821412 33
-1.5417469 1.2909608 1.2329494 33
-1.3418993 1.2221048 1.3439443 25
-1.7727423 1.3866843 1.3286275 23
-2.1699846 1.5133665 1.2917696 81
7.7794361 1.5099555 1.2411082 39
0.032879483 -4.0644555 1.4715122 8
-0.34661725 -3.9208033 1.3507006 0
-0.21269006 -3.9655366 1.3910513 6
-0.080524087 -4.0242739 1.4340068 7
9.2716351 -3.4837427 1.4771774 31.5
-2.1325953 -3.2292256 1.3628225 25
9.4365768 -2.9978034 1.3861982 24
-3.8184371 -2.7500598 1.451386 9
-3.3854272 -2.779109 1.4263937 9.5
-0.58773065 -2.7135863 1.3751396 4
-0.43990114 -2.3291891 1.3782828 0
-0.36310884 -2.1399653 1.3555949 3
9.782958 -2.1680865 1.4254555 26
-0.25965059 -1.8894414 1.3767736 5
9.9070063 -1.8478566 1.4094365 31
-0.19016907 -1.6863877 1.4127698 7
-0.17681569 -1.6257167 1.3821225 6
-0.14244394 -1.5408219 1.4109627 7
-0.049486846 -1.2894461 1.4215806 33.5
0.010114831 -1.1286621 1.4229931 45
-3.1027145 -0.96009827 1.4136372 63
-3.0579178 -0.84725285 1.4429201 67.666664
-3.0126543 -0.71181947 1.4742613 4
11.823681 0.0036761861 1.3801056 2
-2.8579969 0.67089206 1.4740123 86
9.7889643 0.73113036 1.4411818 33
-0.45273152 0.88637584 1.4013836 28
-0.37987435 0.86150372 1.3999228 27.25
9.6627665 0.80012578 1.4619434 32
-0.69167149 0.97613579 1.4120001 26.5
-0.57459033 0.93239433 1.4040217 27
-2.6858644 1.1129329 1.4384539 123
-1.3095195 1.1999724 1.4704481 33
-0.96589887 1.0774369 1.4383821 32
-0.89119005 1.0546849 1.4418086 23
8.602891 1.1903795 1.3553035 31
-1.4252157 1.2533431 1.4249358 29.5
-1.9184021 1.4444877 1.3780658 24
-1.7598944 1.3757598 1.4132177 32
-2.2300153 1.5400125 1.3803736 80
7.5596886 1.5792913 1.411108 27
0.22121657 -4.0841622 1.5002967 1
-0.30987993 -3.9402246 1.5607365 1
-0.17630863 -3.9841204 1.6094316 7
-0.011260974 -4.0460439 1.6492492 9
0.027601939 -4.0435324 1.5556068 8.5
-1.8081586 -3.373688 1.6059111 1
-2.1735103 -3.219794 1.5883328 11.666667
8.6052694 -2.8917203 1.5305824 55
9.4527254 -2.8150914 1.6474007 22
-3.8141696 -2.6305914 1.6267356 23
9.5597763 -2.6558945 1.5429848 30
-0.3760829 -2.2822027 1.5855696 7
9.7265844 -2.351243 1.5252553 34
-0.26803416 -1.9847196 1.5907521 6
-0.19712976 -1.8347212 1.5863984 7
-0.13086352 -1.5848813 1.5949889 11
-0.045967381 -1.3042681 1.56212 32.75
-3.1641262 -1.1354779 1.52387 26.666666
0.0012259006 -1.1940888 1.5702342 14
10.074002 -1.1403785 1.6410407 14
-3.116493 -1.0195764 1.5918132 66
-3.041646 -0.81154335 1.5560588 68
-3.0248864 -0.74336863 1.5363568 4
10.280905 -0.67698705 1.6198765 14.5
10.040809 -0.22943184 1.6458596 6
10.410488 -0.24838318 1.625101 1.5
12.54842 -0.29418796 1.5027788 6
10.589336 0.25138512 1.609259 1
10.624231 0.32715064 1.6336445 3
10.356838 0.50593138 1.5135291 5
-2.9052346 0.7494927 1.6339718 8
-0.42448744 0.8772192 1.566089 26
9.6328316 0.80889452 1.527473 30
-0.83329052 1.0330294 1.5046254 29
-0.6691792 0.96778661 1.556797 26.5
-0.52997667 0.91779423 1.5644916 23.833334
-2.6801057 1.1499989 1.5641372 104
-1.1079922 1.1359807 1.5876133 22
-1.0062293 1.0945318 1.5102 26.5
-2.6095588 1.3372775 1.5961587 79
-1.4361544 1.2579548 1.5751796 35
-1.3447225 1.2244675 1.567292 23
8.2968702 1.3135488 1.5755666 30
-1.8815407 1.4182205 1.608557 32
-2.532028 1.5419837 1.6015903 76
-2.3243561 1.5894175 1.5438831 28.5
7.5787802 1.5672925 1.5542197 22.5
-0.18831135 -3.9714143 1.6760694 7
8.9936352 -3.9464703 1.6564091 1
-0.53185433 -3.8040769 1.6645623 1
-0.40718561 -3.804529 1.7301289 0.5
-0.738985 -3.6212246 1.7412726 11
-3.120048 -3.4545197 1.7783765 0
-1.0519283 -3.5909083 1.7199818 53
6.8543744 -3.5600705 1.7213837 24
-3.3116419 -3.3991346 1.7968415 0
-1.6777917 -3.3004932 1.759889 51
-0.90914977 -3.3008106 1.7275683 78
-0.77939898 -3.344708 1.7610604 19
7.963623 -3.3107593 1.7153183 26
8.4243536 -3.3219216 1.6872371 33
-2.1912761 -3.15868 1.7027153 53
-2.010741 -3.2136586 1.7229978 48
-1.8427429 -3.2748554 1.7475454 52
-1.2034705 -3.1994951 1.6767474 43
-1.0518256 -3.2441151 1.6981021 75
6.1082573 -3.1681285 1.7434727 21
-2.6084776 -3.0276604 1.6748997 45
-2.4514716 -3.0504379 1.7481412 51
-2.3037562 -3.0884333 1.72162 38
-2.2423959 -3.1439745 1.6990358 60
-1.6548355 -3.0145671 1.7593957 84
-1.5670635 -3.0460653 1.7208843 70.5
5.7842979 -3.015873 1.7558073 31
5.9018312 -3.022001 1.7509166 23
6.6911111 -3.055531 1.7365988 23
8.5737715 -3.0525384 1.6522495 57
-3.0136185 -2.8870888 1.669934 11
-2.9642813 -2.8525958 1.7845665 55
-2.8144357 -2.972307 1.657348 8
-2.0919254 -2.8555465 1.7018315 62
-1.9230212 -2.913831 1.7163864 81
-1.7752837 -2.9723938 1.7461725 82
-0.60576075 -2.8681335 1.7856637 12
5.4667025 -2.902159 1.7574037 27
5.5582466 -2.8648596 1.7466313 23
6.4194713 -2.9190011 1.7403561 21.5
7.2646451 -2.8862755 1.7206811 23
-3.324019 -2.7941041 1.6580192 14
-3.2281265 -2.7659967 1.7247293 43.5
-3.0565495 -2.7782421 1.787663 54.5
-2.7983131 -2.8367233 1.7873374 31
-2.5018158 -2.756247 1.7474058 47.5
-2.3088837 -2.7778196 1.703844 38.333332
5.9953723 -2.7251463 1.7370473 22
6.0267038 -2.8231456 1.7487792 23
7.0354013 -2.7801948 1.7328621 25
-3.7851977 -2.6557696 1.655095 15
-3.7212112 -2.5802798 1.7804056 37
-3.5486279 -2.6112978 1.7965704 56
-3.4019477 -2.6456926 1.7946948 45.333332
-3.2312028 -2.678355 1.7904593 45
-2.5937197 -2.6716335 1.7843596 75
4.868988 -2.6209726 1.7755301 24.5
4.9529982 -2.6861703 1.7654802 25
5.1471267 -2.6101458 1.754316 25
5.3646502 -2.586338 1.7673939 27
6.4451032 -2.5538974 1.7331582 23
6.6114144 -2.6987407 1.7386853 24
7.6895165 -2.591804 1.7109026 21
7.8906164 -2.6818109 1.7162081 22
-4.0275283 -2.4621129 1.7737483 56
-3.8134222 -2.5232236 1.7998079 52
-0.43198648 -2.4188333 1.727007 7
5.2351985 -2.4888897 1.7680944 26
5.4873652 -2.4510827 1.7491933 19
5.7725954 -2.4776354 1.7651633 26
5.8570218 -2.4650092 1.7675985 19
7.2096128 -2.5230868 1.7279567 25
7.517097 -2.5446055 1.7016741 23
8.4786243 -2.4101439 1.705721 27
-3.3408821 -2.3842306 1.7948471 75
-0.40334666 -2.3363945 1.6512033 7
4.3039117 -2.3495383 1.7739056 30
4.6043544 -2.2853343 1.7653476 22
5.659914 -2.3642683 1.7606016 18
5.8133097 -2.2651396 1.7440563 20
6.1717448 -2.3217342 1.757284 22
6.3378315 -2.3084958 1.7617284 21
6.8796964 -2.3429427 1.7278217 24
7.7689342 -2.2783802 1.7056907 18
8.1665344 -2.3208945 1.7084781 22
8.3902884 -2.344342 1.7047521 17
-3.7619758 -2.2240212 1.7928714 6
3.8031442 -2.1440244 1.7869023 29
3.9541557 -2.1027124 1.7779628 29
4.6277747 -2.212939 1.7605702 22
4.9789839 -2.145334 1.7719165 23.5
6.098805 -2.2073166 1.7573434 19
6.5693555 -2.1339171 1.7468177 24
6.8036323 -2.1033745 1.7503763 21
-0.26884866 -1.9745076 1.7126864 8
4.1243925 -2.0229535 1.7797341 27
4.3154783 -1.9547906 1.7864577 21
5.3167386 -2.0494726 1.7666205 25
6.1352415 -2.0541303 1.744033 21
6.5245538 -2.0076802 1.7500499 21
7.2872343 -2.0885463 1.7187976 24
8.3792601 -1.99234 1.7001051 19
8.7327557 -2.0190985 1.6963719 15
9.0551815 -2.0516307 1.6949722 17
-0.25278881 -1.8669209 1.7784747 13.25
4.4400344 -1.8657646 1.7773601 21
4.5521541 -1.8276836 1.7793523 22
5.2807198 -1.9448934 1.7614332 25
5.649653 -1.8816117 1.7602636 27
6.4187136 -1.813884 1.7406942 21
7.0575566 -1.9387773 1.7640032 38
7.3231182 -1.8708005 1.75802 41
-0.22516279 -1.7536967 1.7923065 13
4.7240725 -1.7011433 1.7737261 22
5.5947804 -1.7701192 1.7609395 27
6.0052567 -1.695079 1.764032 29
6.9736767 -1.7773328 1.754383 23
7.4473753 -1.6810377 1.7545201 41
7.6471634 -1.7920661 1.7069229 29
9.2809477 -1.665512 1.6874865 12
9.5806875 -1.6940398 1.687811 13
-0.12831505 -1.5473779 1.7444739 15.666667
4.8571777 -1.54828 1.7642881 22
5.0263548 -1.5281999 1.7746512 22
5.8782229 -1.5640241 1.7545646 28
6.6868935 -1.551828 1.741259 21
7.7003918 -1.5635779 1.7324547 23
8.9130955 -1.6338834 1.6846789 17
9.6242161 -1.6138786 1.6700164 11
-3.6366944 -1.3987023 1.6738499 46
-0.1015365 -1.4957426 1.7710191 5
5.0622926 -1.3714257 1.7656339 22
5.279036 -1.3583592 1.784351 24
6.3232517 -1.470399 1.7600383 31
7.3295174 -1.4891239 1.7385284 23
7.7134399 -1.3711333 1.7190017 19
7.9633808 -1.4593803 1.6946968 20
-0.031912137 -1.2816073 1.7413129 15.666667
6.1601191 -1.3357767 1.7553769 29
6.6011667 -1.2125748 1.7499701 24
6.9146633 -1.2655191 1.7410239 23
8.017561 -1.2144706 1.7044996 20
9.4106102 -1.2179139 1.6752898 14
9.7699308 -1.253064 1.6738752 8
9.9580851 -1.2394487 1.663669 14
-3.164979 -1.1414423 1.6711341 25
5.2704968 -1.1823428 1.7740341 17
5.4722452 -1.1600438 1.7753624 25
6.3967099 -1.0794542 1.7511626 23
7.6798973 -1.1697527 1.7330962 23
8.2675362 -1.1006707 1.6936351 17
-3.0858564 -0.93042064 1.6798126 58.5
5.4359169 -0.97322798 1.7738129 24
5.6764607 -0.94926184 1.7767829 27
6.8856759 -0.93429816 1.7527066 23
7.102634 -0.9599278 1.7409462 21
8.0308399 -1.0447742 1.704285 12
-3.0522273 -0.85119057 1.7691319 60.5
6.605649 -0.80160135 1.7477969 24
7.9046631 -0.80604804 1.7100614 23
8.4140024 -0.84307152 1.7105929 19
10.186317 -0.78886485 1.6604537 11
5.5634694 -0.74889511 1.769169 26
5.8375597 -0.71842569 1.7709423 27
7.1317043 -0.62881351 1.7323594 20.5
8.4514313 -0.6986807 1.7243141 9
8.5701208 -0.7167055 1.7055744 15
9.8385859 -0.74804896 1.6712056 12
5.6869984 -0.51746774 1.7714034 25
5.9885154 -0.47464928 1.7696375 27
6.7813282 -0.50426453 1.7475926 22
7.2896609 -0.30592081 1.7279614 21
8.1250772 -0.42303193 1.7030414 19
8.6971531 -0.30193177 1.6957353 16
8.7251186 -0.37004438 1.7159951 13
5.783946 -0.27650106 1.7742542 25
6.1188736 -0.21916506 1.7710837 20
6.9035282 -0.19096009 1.7442452 23
7.2890325 -0.29697379 1.7460629 24
5.862381 -0.027427904 1.7787513 19
8.3099442 -0.016054319 1.7062286 22
11.24748 -0.055437852 1.7004777 3
6.2198696 0.048736114 1.7710925 20
6.951406 0.13125077 1.7354335 24
7.3202505 0.037864499 1.7204961 20.5
8.7838097 0.12380217 1.6934744 17
8.9240265 0.059028711 1.7101613 16
5.8860397 0.22410314 1.7765917 19
6.2736893 0.32474715 1.7680269 22
7.3208804 0.36096925 1.7269586 20
7.4782743 0.40345114 1.7384692 23
8.3829317 0.40241709 1.7032853 23
10.295221 0.31269875 1.6569277 6
5.8518448 0.4743396 1.7640172 27
7.0152683 0.46084327 1.7458586 23
8.7848415 0.55201238 1.6928619 19
8.9851189 0.46623129 1.6974593 20
9.1224699 0.54658389 1.7177254 14
-2.8582451 0.69282806 1.6514248 81
-2.8442895 0.69024163 1.7774364 76
5.8338604 0.72627985 1.7684404 25
6.3181992 0.60679555 1.7727567 21
7.2570086 0.68792474 1.7246574 20
-2.824008 0.76004511 1.7416295 72
-0.47302437 0.8923232 1.7660681 26
-0.36599922 0.8539809 1.6909398 28
6.2849479 0.88714474 1.7651964 22
6.9780893 0.78632092 1.7441546 24
7.4942703 0.76391816 1.7389637 25
8.36584 0.82331645 1.7023886 22
-2.7492211 0.95807862 1.7403145 77.25
-0.82224888 1.026075 1.7096218 24.666666
-0.69937074 0.9783181 1.6818581 29.5
5.7840524 0.97363627 1.772483 26
7.182478 1.0109299 1.7336406 20
8.7482204 0.97977972 1.7034458 21
9.0020199 0.95315456 1.6864222 28
-2.6866493 1.1222867 1.7225972 77.666664
-1.2481601 1.1937245 1.7015537 27
-1.1824306 1.1642935 1.742524 32
-1.0425808 1.1111174 1.7069967 29
6.2385569 1.1674963 1.7668151 30
6.8986712 1.1061239 1.7461058 25
7.4470482 1.1202598 1.7394813 24
-2.6203952 1.3006527 1.7208816 78.5
-1.6443241 1.3407984 1.7636131 23
-1.491262 1.2772734 1.6894704 29.5
5.6877127 1.2120221 1.7712013 27
7.0949473 1.3258989 1.751954 21
8.344573 1.2456269 1.7215372 28
-2.5664053 1.4419739 1.6581038 89
-2.0568225 1.490437 1.7416004 25
-1.8813049 1.4253181 1.662413 25
6.1403217 1.43881 1.764048 30
6.7582731 1.4107699 1.7458907 24
7.3300643 1.4643761 1.7407929 26
-2.5429795 1.5129563 1.7142034 80
-2.1060758 1.5103356 1.7299801 29
6.9250536 1.6190908 1.7578532 23
0.020448606 -3.6485708 1.809728 7
0.15376501 -3.6239104 1.8099827 7
-1.0901741 -3.1582773 1.817556 69
-0.94772679 -3.1613369 1.8188509 66
-0.77992839 -3.226227 1.8186579 21
-1.4157566 -3.0999968 1.8126293 85
-1.2517506 -3.1405272 1.8216702 84
-0.91542673 -3.0054443 1.8337146 55
-0.82892263 -3.1422625 1.8237056 60
-1.731747 -2.9325469 1.8419987 72
-1.3862512 -2.8592811 1.8177515 42
-1.2275621 -2.8940322 1.8181654 62
-1.0831835 -2.9080675 1.8185607 67
-0.94910175 -2.9191933 1.8273643 58.666668
-3.207891 -2.706619 1.8038682 49
-2.3047755 -2.7304873 1.843568 72
-2.1082637 -2.7714615 1.8327152 74
-1.8734612 -2.8099554 1.8341974 67
-1.5601227 -2.776063 1.8750865 51
-1.3987712 -2.7741101 1.9238566 70
-1.2489777 -2.80795 1.9308285 81
-1.1099764 -2.7793744 1.919046 67
-1.0436114 -2.7472351 1.846707 52
-0.62822455 -2.7079782 1.820592 67
-3.5556016 -2.5953243 1.8090292 58
-2.9047594 -2.5576077 1.8294638 81
-2.7078063 -2.6241362 1.8492302 90
-2.5142338 -2.6390839 1.8524628 65.666664
-1.8316114 -2.6052966 1.8379622 55
-1.7625103 -2.6786616 1.8872781 49
-1.3606484 -2.5702586 1.9270269 61
-1.1915851 -2.5861728 1.9384298 55.5
-0.77471697 -2.6898561 1.8224887 58
-3.7920401 -2.5287783 1.8024715 56
-3.2159741 -2.4284146 1.8275539 78.5
-3.0553684 -2.492357 1.8045878 72
-2.7339621 -2.4301474 1.8527664 63
-2.636739 -2.5083168 1.856022 61
-2.3746078 -2.4200294 1.8341991 53
-2.1920691 -2.4872019 1.8324615 62
-1.9960457 -2.4715281 1.9048599 62.666668
-1.8834026 -2.4748595 1.8898119 53
-1.6745135 -2.4706783 1.9268242 63
-1.5127357 -2.5313854 1.9260119 62
-1.2517247 -2.5389154 1.9322355 58.5
-0.92415851 -2.4419293 1.871924 54.5
-0.77299762 -2.5071833 1.8240043 55
-0.63366622 -2.5329556 1.8260232 67
-0.51059484 -2.5444422 1.8299884 7
-3.6151509 -2.2819304 1.8363625 72
-3.517591 -2.30863 1.8316089 75
-3.3623738 -2.3696303 1.8303491 76.5
-3.0982339 -2.2555258 1.8645734 56
-2.9891281 -2.2739596 1.8580762 64
-2.7712097 -2.3044493 1.894266 38.5
-2.5833211 -2.312803 1.8464421 42
-2.5209613 -2.3402619 1.8498698 51
-2.3632185 -2.3316052 1.9434289 71
-2.1802619 -2.3867943 1.9388114 78
-2.0786543 -2.3717363 1.9395822 64
-1.6162437 -2.30441 1.9315881 65
-1.4236022 -2.3294029 1.9343327 60.5
-1.3049825 -2.3357403 1.9385628 57
-1.0822916 -2.3697498 1.9238948 58
-0.90183109 -2.2641039 1.9259788 75
-0.76007611 -2.3369954 1.817263 62
-0.63523895 -2.3639128 1.8280996 68
-0.53690648 -2.3578401 1.827193 59.5
-3.8661356 -2.1930742 1.8361062 3
-3.4755752 -2.1074831 1.8635949 60
-3.3598983 -2.119364 1.8709894 57
-3.2266612 -2.1805422 1.862208 45.5
-2.7472701 -2.1516685 1.9456795 62
-2.5474436 -2.242511 1.9409972 67
-2.2545791 -2.137315 1.941811 73
-2.1557267 -2.1050069 1.9386042 42
-2.0341308 -2.1980317 1.9440998 62.666668
-1.9448186 -2.1516902 1.9392861 64
-1.7755101 -2.2303224 1.9331788 62
-1.5575873 -2.1481056 1.9387158 60
-1.3760376 -2.1216044 1.942999 63.5
-1.2036388 -2.163038 1.9298614 63
-1.0517156 -2.2210128 1.9304322 60
-0.87289953 -2.1204753 1.9278029 71
-0.67418802 -2.1779423 1.8288639 64
-0.38999212 -2.210932 1.8203017 6
-3.6598237 -2.0154581 1.8727201 3.5
-3.5332189 -2.0225415 1.8707817 55.5
-3.395463 -2.0661528 1.8629419 55
-2.7336037 -2.0732591 1.9476477 54
-2.4262264 -2.0599897 1.9366881 62
-2.0902295 -1.9524049 1.9498814 61
-1.864876 -1.9990835 1.9370595 58
-1.7087168 -2.086889 1.9380141 64
-1.4553165 -2.0921638 1.9380863 68
-1.3090925 -1.9561483 1.9273363 65
-1.1586404 -2.0261354 1.9291292 64
-0.98987687 -2.0168269 1.9257808 68
-0.80206871 -2.0532398 1.8839966 59
-0.73228312 -1.9915379 1.8305668 68
-0.52524054 -2.0525029 1.8193203 73
-0.39112216 -2.0689175 1.8202509 80
-3.3977056 -1.8211063 1.8770524 57
-2.3199439 -1.8986831 1.9419676 61
-2.1933026 -1.8818043 1.9474336 57.5
-2.0283241 -1.9053516 1.9415637 63
-1.7909967 -1.8755167 1.9416105 71
-1.5725828 -1.9021587 1.9392146 75.666664
-1.4491432 -1.9053423 1.9415534 66.5
-1.2546244 -1.8380371 1.928393 63
-1.1065129 -1.9041591 1.924476 70
-0.93465924 -1.9228415 1.9270705 75
-0.84011024 -1.8871197 1.9306965 70.5
-0.64782983 -1.8997401 1.8236939 66
-0.49984241 -1.8688574 1.8258945 63.5
-0.35088062 -1.8954557 1.8221979 55.666668
-3.5008793 -1.7698122 1.8713151 55
-3.424943 -1.7474855 1.8637708 50
-2.8799574 -1.7086793 1.9491252 43
-2.3787751 -1.6689084 1.9430488 63
-2.2121522 -1.6644852 1.9485337 54
-2.0976748 -1.6647804 1.9400736 64
-1.9011853 -1.719789 1.9396309 63.5
-1.7147406 -1.7519523 1.9423755 78
-1.5849775 -1.683032 1.9400076 68.666664
-1.4497535 -1.7310319 1.9355524 67.5
-1.3388528 -1.6547099 1.9276716 73
-1.1255786 -1.7624989 1.9262661 70
-0.96717703 -1.7415943 1.9349071 73.5
-0.8820104 -1.6722194 1.9322859 77
-0.67664385 -1.7444482 1.8687453 81
-0.51986283 -1.6795164 1.823444 83.333336
-0.35917181 -1.7454033 1.825663 78
-0.21723989 -1.6598526 1.8254889 10
-3.6266 -1.640092 1.8685607 56
-3.3677313 -1.5607123 1.8732947 55
-3.2766466 -1.5585366 1.8648256 41
-2.857702 -1.5779316 1.9489614 55
-2.7954626 -1.5201555 1.9437431 50
-2.5552065 -1.5725541 1.9497677 58
-2.2913833 -1.6119742 1.9456986 59
-2.0123146 -1.5579962 1.9439305 62
-1.7799811 -1.5623119 1.9408602 70
-1.5688174 -1.5062343 1.9426062 73.5
-1.4865845 -1.5645899 1.9307019 80
-1.2778124 -1.5723809 1.9350899 74
-1.1036534 -1.6020737 1.9311485 76.333336
-0.99186736 -1.5479931 1.9358029 77.666664
-0.82887691 -1.5712594 1.9285704 81
-0.64448833 -1.5650457 1.9005955 64.666664
-0.52496558 -1.5774702 1.8248405 83.333336
-0.40280002 -1.5777214 1.828563 82
-0.2060463 -1.5273086 1.8258852 82.666664
-3.6323473 -1.4025655 1.8424512 62
-3.4977043 -1.4560457 1.8686247 61.333332
-2.7211654 -1.444684 1.9454814 63
-2.3022811 -1.4030271 1.9463626 57.5
-2.1651504 -1.4380622 1.9471773 60
-1.8813126 -1.4203992 1.9397119 68.5
-1.7120939 -1.4687722 1.9431812 67
-1.6043726 -1.4342952 1.9406716 67
-1.4187499 -1.4801916 1.9339331 71
-1.2777672 -1.4449339 1.9315138 82.5
-1.115517 -1.405183 1.9358536 79
-0.97989696 -1.411278 1.93515 80
-0.80985761 -1.4196091 1.9309732 82.5
-0.66274953 -1.4229348 1.9307493 82.199997
-0.53006184 -1.4423561 1.8542887 82.25
-0.36851585 -1.4341568 1.8289572 81
-0.22731952 -1.4111686 1.8256756 72.833336
-0.11388303 -1.4311293 1.8205038 10.2
-3.330673 -1.2972364 1.8613716 65
-3.2885888 -1.273718 1.8597003 63
-2.898901 -1.3044139 1.9473077 61
-2.2135236 -1.2101288 1.9414679 60
-2.0253763 -1.3063039 1.9418724 61
-1.7344613 -1.2836261 1.9412643 67.5
-1.6185662 -1.3218739 1.9475733 65
-1.4491122 -1.2747694 1.9355587 69.5
-1.2673061 -1.3026435 1.9383671 75.5
-1.1413 -1.2422435 1.9402796 80.5
-0.95378345 -1.2550359 1.9360653 80.5
-0.80852407 -1.2810146 1.9345059 82.333336
-0.68846738 -1.2774751 1.9323494 83.25
-0.52516824 -1.2833743 1.8882422 53.666668
-0.3712827 -1.275699 1.8286752 70
-0.23767942 -1.2755351 1.8300604 70.777779
-0.085336335 -1.2625844 1.8225187 46.333332
-3.1501772 -1.1653281 1.8574134 71
-3.1362448 -1.1118456 1.8558062 81
-2.2539561 -1.0507394 1.9489812 66
-2.1201465 -1.1362298 1.9424654 61
-2.0348587 -1.0774744 1.9452597 70
-1.8584268 -1.1390808 1.9430544 69
-1.7496711 -1.1111325 1.9472028 68
-1.6040491 -1.1582108 1.9441901 69.333336
-1.4679486 -1.0858699 1.9366468 70
-1.3007574 -1.1343942 1.9386877 82.333336
-1.1459445 -1.0965046 1.9379423 82
-0.9511205 -1.0866528 1.9370091 80.5
-0.8197307 -1.1293114 1.9340098 85.25
-0.69344044 -1.1512662 1.9355808 74.666664
-0.53220439 -1.1208351 1.9307915 71.571426
-0.39268699 -1.1181306 1.8544518 55.200001
-0.22116704 -1.1175855 1.8277454 55.400002
-0.090028428 -1.1623386 1.8307104 72.666664
-2.2626648 -0.99208087 1.9458574 64
-2.1669428 -0.9331677 1.9446429 59
-1.9429233 -1.0186691 1.941667 68
-1.711711 -0.96403915 1.9401542 69.5
-1.5601351 -0.94562101 1.9413905 76.5
-1.3793398 -0.99600744 1.9407575 74
-1.2617122 -0.93775606 1.9434882 79.333336
-1.1492829 -0.97123539 1.939932 77.5
-0.96692687 -0.94241059 1.9376889 85.5
-0.83245212 -0.97791386 1.9375572 87.800003
-0.66976738 -0.980618 1.9355308 87.428574
-0.51916945 -0.96937323 1.93167 75.285713
-0.36364573 -0.97153026 1.857823 31.571428
-0.21928523 -0.96718931 1.8180478 43
-3.0144949 -0.79075313 1.8576264 77.5
-2.3173525 -0.79721528 1.9484602 67
-2.0333059 -0.86547154 1.9453031 69.5
-1.8680159 -0.8931337 1.9475478 72
-1.7236921 -0.80325985 1.9451834 70.666664
-1.6044296 -0.78250265 1.9415474 72.5
-1.4444011 -0.81287354 1.9420643 78.333336
-1.2763748 -0.80417424 1.9464087 78.666664
-1.127653 -0.84726226 1.9424111 85.5
-0.97322279 -0.81867707 1.9404427 95.25
-0.81178778 -0.81202221 1.9382995 95.400002
-0.64739394 -0.81961995 1.9351579 99.833336
-0.521016 -0.83579183 1.929263 78.333336
-0.36159629 -0.82433951 1.9000521 47.200001
-0.2715866 -0.84088266 1.8179353 54
-2.1633315 -0.71556377 1.9491541 66.5
-2.0281656 -0.66937798 1.9470936 66
-1.8628042 -0.72552812 1.9447049 68.5
-1.7348245 -0.62982184 1.9446272 70
-1.5634282 -0.61164433 1.9463952 74
-1.4142919 -0.64463365 1.9481193 76.5
-1.2647605 -0.69795758 1.9440676 79
-1.1011955 -0.69271517 1.9436586 90
-0.97667301 -0.6892156 1.9418659 97
-0.81734687 -0.65481937 1.9345767 92.800003
-0.67803305 -0.68021035 1.928941 84.5
-0.51004964 -0.6972239 1.9247929 72.5
-0.38685873 -0.6637193 1.9224675 67.5
-2.3905547 -0.56003159 1.9449476 69
-2.152494 -0.51302683 1.9481267 58
-1.860743 -0.51807374 1.9443297 75
-1.7214583 -0.46553692 1.9450577 69.5
-1.5961003 -0.459806 1.9462473 75.5
-1.4420009 -0.4906202 1.9461256 79
-1.2969229 -0.5551973 1.9470787 81.25
-1.1172841 -0.56173205 1.941308 95
-0.98479557 -0.53985876 1.939217 98.400002
-0.82284927 -0.51211715 1.9320534 83.14286
-0.68662816 -0.53911799 1.9292048 80.333336
-0.53946525 -0.5206005 1.92788 78.14286
-0.41005069 -0.53447914 1.9263664 75
-1.9597034 -0.33241457 1.949577 87
-1.8732183 -0.39196107 1.9471365 76
-1.7013733 -0.30657169 1.9467922 83.5
-1.5457321 -0.31785321 1.948956 85
-1.3730445 -0.44589731 1.9456595 82
-1.2567582 -0.37421668 1.9453981 87.5
-1.1208498 -0.37540135 1.943436 93.333336
-0.96942163 -0.37797001 1.9346441 85.333336
-0.83120137 -0.36093697 1.9316161 75.555557
-0.67763412 -0.38227513 1.9288278 79.375
-0.52574217 -0.38349131 1.9242651 73.75
-0.43455958 -0.44983518 1.9288343 73
-1.8252325 -0.29180169 1.9457444 88
-1.7445552 -0.22283688 1.9481201 83
-1.5238785 -0.16287483 1.9487513 88
-1.4008244 -0.24661046 1.9478484 87.333336
-1.2981005 -0.20984812 1.9457651 94.666664
-1.1237682 -0.21179089 1.941805 89.25
-0.95582622 -0.20244633 1.9329196 75.5
-0.83114195 -0.22917999 1.9322522 77.85714
-0.67158753 -0.21189976 1.9273278 74.285713
-0.53103143 -0.24368843 1.9274794 72
-1.9757705 -0.14571671 1.9469739 82
-1.8445251 -0.11315797 1.9478549 88
-1.7241521 -0.133325 1.9471935 85
-1.535266 -0.0039923647 1.9495019 89
-1.4127287 -0.099161677 1.9470831 88.666664
-1.2804775 -0.080849551 1.9468689 98
-1.1491317 -0.067381777 1.9447539 99
-0.94795722 -0.07481201 1.9333709 76.833336
-0.83247483 -0.078173034 1.9305317 71.875
-0.6946097 -0.067947172 1.9273752 77
-0.54132694 -0.067894042 1.9290359 74.75
-1.9875021 0.041234925 1.9490434 85
-1.8366346 0.061357748 1.9445856 71.5
-1.7480117 0.0035292467 1.9494807 78
-1.441691 0.0502197 1.9471231 87
-1.1495819 0.08158347 1.9456121 98
-0.94728321 0.073040038 1.9331177 78.222221
-0.83852744 0.083506905 1.933531 75.75
-0.68655068 0.074533716 1.9269867 81
-0.5407272 0.086232223 1.9235638 79.666664
-1.7460943 0.18359698 1.9467672 73.666664
-1.3870107 0.20608847 1.9471232 87.666664
-1.245172 0.20248839 1.9493879 92.5
-1.1323704 0.22670682 1.9454184 97.333336
-0.96113485 0.22588615 1.9357063 79.85714
-0.84032679 0.21605062 1.9308245 75.199997
-0.68555349 0.22932364 1.930077 76.285713
-0.57034928 0.21194093 1.9235982 77
-2.6705799 0.43144158 1.8643889 64
-1.7266732 0.32846206 1.9459229 68.5
-1.5354661 0.31608039 1.9476784 88
-1.3588507 0.37280399 1.9486808 85.5
-1.2117076 0.37403557 1.9462249 75
-1.1243219 0.36120868 1.9458752 87.333336
-0.96441251 0.36985779 1.9357458 83.166664
-0.83549511 0.3715632 1.9310333 75.375
-0.68555373 0.3748467 1.9292324 74.375
-0.55013621 0.37481797 1.9277203 73.25
-2.8709254 0.46788499 1.8936571 0
-2.8246925 0.59932292 1.8623813 80
-1.8492625 0.53040868 1.9464265 82
-1.7221004 0.49165285 1.9482142 86
-1.5236272 0.47941539 1.9459046 80
-1.3911376 0.50528342 1.9459922 81.5
-1.2474544 0.54241931 1.9487284 80.666664
-1.0959001 0.52176625 1.9445857 91.25
-0.95152962 0.51726961 1.9323577 81
-0.84158754 0.52801228 1.9357914 89.5
-0.6588698 0.52027386 1.909947 77.833336
-0.53502321 0.53410089 1.8474195 64.800003
-2.7961843 0.68759835 1.8612068 76.5
-2.6772642 0.647861 1.8639858 78
-2.456805 0.62177503 1.8514975 30
-1.9796067 0.61563694 1.9471263 80
-1.86511 0.64707172 1.9490653 82
-1.7434462 0.6977694 1.9472449 87.75
-1.5080266 0.64583558 1.9486338 93
-1.4102347 0.70256519 1.9476172 85
-1.2894026 0.66361672 1.946396 84.75
-1.1656168 0.70849407 1.9482838 86
-0.96709841 0.66642475 1.8930935 69.800003
-0.82302791 0.67160791 1.8387349 75.699997
-0.68185341 0.68570936 1.8274293 74.666664
-0.52740073 0.66487062 1.8273878 75.166664
-0.42859152 0.72887558 1.830876 81
-2.8021784 0.82837969 1.8441144 83
-2.6795914 0.86937737 1.8631196 77
-2.4442909 0.8459667 1.8453945 68
-2.3477869 0.89832133 1.8651124 9
-1.9639655 0.81499565 1.9460384 90
-1.8437707 0.83293003 1.9444447 93
-1.6519805 0.78141242 1.948948 89
-1.4833899 0.81329316 1.9469746 88
-1.2709624 0.80791444 1.8689291 69.400002
-1.1303875 0.82255572 1.8451275 77
-0.95561999 0.81524825 1.8408918 89.666664
-0.79930466 0.82699627 1.835394 73.14286
-0.64571834 0.82989192 1.8318468 75.5
-0.50812966 0.84472924 1.8253828 65.166664
-0.40160868 0.82087564 1.8321427 80
-2.7588873 0.91084832 1.8596665 90
-1.8731625 1.0050418 1.9479957 81.5
-1.7360221 0.97130388 1.8931159 86.5
-1.6105841 0.94498801 1.8604307 55.333332
-1.3998985 0.93993467 1.8440815 86
-1.2604477 0.96851969 1.8475101 85.25
-1.1377443 0.97217304 1.8481631 85
-0.96981192 0.96301556 1.8546367 73
-0.8254593 0.96705592 1.841354 89.400002
-0.68666452 0.95696396 1.8275709 70.666664
-0.56509316 0.92713416 1.8269526 62.5
-2.6800394 1.0999284 1.862587 95
-2.4385855 1.0833828 1.851154 74
-2.2916522 1.1209249 1.8490511 70
-2.1730871 1.1570804 1.8745271 37
-2.0872321 1.1526886 1.8465606 73
-1.840205 1.173592 1.8478175 77
-1.6864799 1.0982518 1.8476939 87.5
-1.5805603 1.1115905 1.8490452 81.333336
-1.3630676 1.1097932 1.8489562 80
-1.2667794 1.0985142 1.8480461 85.5
-1.147904 1.1168667 1.8432238 84
-0.98200238 1.0835469 1.8444268 101
-2.6201668 1.3046819 1.8281649 87
-2.4217315 1.3278688 1.8521441 74
-2.2996931 1.3431576 1.8541683 74
-2.1743941 1.2928052 1.8552197 78.333336
-1.7063501 1.2655475 1.8508534 80.5
-1.5875801 1.2439154 1.8476243 89
-2.2529156 1.3680604 1.8626713 77
-2.1354215 1.4593378 1.8615278 86
-2.0799818 1.3657051 1.8547601 76
-1.801574 1.3814155 1.847674 85
-2.330946 1.5801244 1.8503343 59
-2.1618752 1.5256974 1.850207 66
-1.9306551 -2.5188124 1.9510247 81
-2.9265103 -2.185184 1.9601686 59
-2.6578934 -2.1467884 1.952202 57
-3.4073875 -1.9749781 1.9713258 92
-3.2065201 -2.0540695 1.9668567 69.5
-2.8410478 -1.9951009 1.9506732 48
-2.6219611 -1.9729496 1.9518524 43
-2.0453787 -1.9915513 1.9521393 56
-3.3965082 -1.9411162 1.9702858 79
-2.973598 -1.8900707 1.9562609 57
-2.7996747 -1.833796 1.9588702 41.5
-2.6969466 -1.874063 1.9618577 38
-2.50085 -1.8174046 1.9505874 41
-3.2333579 -1.7535545 1.9656577 60.5
-2.6796734 -1.7061355 1.9537255 41
-2.1423895 -1.7151715 1.9512333 54
-2.0897481 -1.7502478 1.9508985 53
-3.0179567 -1.6103634 1.9546827 61
-2.7213867 -1.6083159 1.962803 40
-2.12749 -1.5237968 1.9508802 58
-3.2539921 -1.465575 1.9609879 57.5
-2.9192441 -1.4371836 1.9507462 53
-2.4424257 -1.452141 1.9532307 61
-2.1868682 -1.4858273 1.9517092 56
-3.0626407 -1.3425934 1.9571836 63.5
-2.7810609 -1.3090136 1.9523499 63
-2.6065397 -1.3382004 1.9516791 63
-2.4916606 -1.2367499 1.9543282 61
-2.3048079 -1.2077277 1.9500514 61
-2.1924596 -1.2857876 1.9524091 64
-3.1021369 -1.0817211 1.9585098 70
-2.9539077 -1.174611 1.9522256 63
-2.7619257 -1.153717 1.9544412 59.5
-2.6506538 -1.1081319 1.9520491 62
-2.3977022 -1.1463286 1.9517058 61
-2.1846602 -1.0975981 1.950065 59
-1.6865429 -1.1369079 1.9506768 68
-2.9325845 -0.9969523 1.9577521 68.666664
-2.8177826 -0.95657283 1.960045 55
-2.487289 -0.97227895 1.9550126 65.5
-2.3422029 -0.98920286 1.9524757 63
-2.9329252 -0.7859177 1.960902 79
-2.7690353 -0.87680906 1.9594973 65
-2.6343017 -0.84876359 1.9553381 69
-2.2081831 -0.89575326 1.951105 63
-2.7881038 -0.67528206 1.9601475 66
-2.6127853 -0.60730779 1.9570824 77
-2.474102 -0.69632035 1.9558474 71
-2.3034215 -0.64032274 1.9511024 68
-2.2251115 -0.69990027 1.9524494 70
-2.3420579 -0.56455642 1.9586188 10
-2.2433004 -0.53379923 1.9523946 6
-2.0655067 -0.49624249 1.9509662 70
-2.777142 -0.43266934 1.9614322 73
-2.6573732 -0.40115055 1.9676894 4
-1.7980011 -0.44151708 1.9511944 77
-1.3882926 -0.36747774 1.9507048 87
-1.2810203 -0.38645214 1.9545025 83
-1.8532479 -0.2448919 1.9523621 83.5
-1.6095022 -0.16654892 1.9503723 88
-1.2918416 -0.2516557 1.9523181 88
-1.8618394 -0.072508685 1.9511845 83.5
-1.630119 -0.016950952 1.9517535 86
-1.3676838 -0.011972952 1.9951059 54
-2.7084796 0.019697998 1.96322 76
-2.4390833 0.065643422 1.9507626 78
-2.3166909 0.064378202 1.953694 73.666664
-2.1844277 0.042783096 1.9524242 72.5
-1.9070274 0.13782534 1.9522604 35
-1.7412486 0.029879767 1.9507422 89.5
-1.6446606 0.13565305 1.9516884 91
-1.3700982 0.086348355 1.960649 80
-1.2926474 0.082647137 1.956931 72.666664
-2.5525079 0.19279246 1.955331 89
-2.4220414 0.28334111 1.9534364 78
-2.3043711 0.22146942 1.9547338 74.333336
-2.1982884 0.23045403 1.9508964 75
-2.0078766 0.23261864 1.9714772 61
-1.8432202 0.23646089 1.9527 46.5
-1.653052 0.2904487 1.9501911 79
-1.5394489 0.15502571 1.9505371 88
-1.4541976 0.24256673 1.9501263 88
-1.2891827 0.27461663 1.9535559 83
-2.5632775 0.42090133 1.960997 98
-2.345463 0.35363469 1.9545833 77
-2.2218575 0.42394984 1.9530183 85
-2.0027778 0.42467463 1.9665679 48
-1.8666466 0.38143384 1.9604262 50
-1.7870219 0.38790765 1.9529039 38
-1.4392413 0.35544842 1.9504645 87
-1.2796379 0.38729978 1.9505137 86
-2.4459105 0.4928146 1.9532815 82
-2.3520632 0.51211423 1.9542614 79
-2.1842337 0.59420443 1.9537665 81
-1.7191631 0.50717652 1.9510839 82
-1.4244252 0.47315907 1.9509231 81
-1.3412871 0.57373482 1.9524292 79
-2.4233518 0.72158432 1.961804 101
-2.2853131 0.66522521 1.9555504 80
-2.2315292 0.61778396 1.9529823 74
-1.6609855 0.61432886 1.9543196 89
-1.4075359 0.62946069 1.9501053 93
-1.0759447 0.61201388 1.9515985 92
-2.3301749 0.76113397 1.9548897 83
-2.2185993 0.81773931 1.9537703 80.333336
-1.6968462 0.82676601 1.9514902 85
-1.3850462 0.78993297 1.9527899 92
-2.3397076 0.94518 1.9603771 77
-2.1941221 1.0030121 1.9543456 83.5
-2.3028662 1.1312944 1.9621898 68
-2.2499609 1.0683417 1.9631845 100
