# .PCD v0.7 - Point Cloud Data file format
VERSION 0.7
FIELDS x y z intensity
SIZE 4 4 4 4
TYPE F F F F
COUNT 1 1 1 1
WIDTH 1616
HEIGHT 1
VIEWPOINT 0 0 0 1 0 0 0
POINTS 1616
DATA ascii
0.52135235 -2.8157046 -0.18546146 27
0.67269224 -2.4707944 -0.17279679 57
1.1176614 -2.1793656 -0.15329941 64
0.82411724 -1.9127618 -0.17322825 4
0.97873574 -1.8022593 -0.18111686 10
0.95239025 -1.504508 -0.15418284 17
0.96416378 -1.4818155 -0.17157966 58.5
1.1517881 -1.3674372 -0.18887213 33
1.3145927 -1.4222685 -0.15645951 36
3.8688648 -1.3773286 -0.18687071 119
1.4236207 -1.2842786 -0.18255736 79
4.2763166 -1.286265 -0.18439128 150
1.4935083 -1.0799202 -0.18571262 101
3.951411 -1.1460252 -0.15081519 85
1.530694 -1.0011822 -0.1681689 94.666664
4.3764133 -0.99018317 -0.18031712 101
-0.38532412 -0.83244801 -0.17097969 0.16666667
1.592437 -0.83883077 -0.18258381 98
-0.32358047 -0.65100247 -0.17307344 1.8
4.3441825 -0.73811543 -0.16890649 150
-0.30411685 -0.59587902 -0.18244526 3
-0.29529476 -0.56608486 -0.16832606 2
-0.32444829 0.59609252 -0.15941343 8
-0.17798278 0.55027944 -0.17524698 7.625
-0.12837322 0.5258674 -0.19671823 9
0.038842987 0.460951 -0.19159397 2
4.5748892 0.50245297 -0.17697518 17
-0.75342381 0.73747146 -0.1593436 4
-0.68051761 0.71357954 -0.17808069 4.6666665
-0.52291632 0.66277933 -0.17693728 5
-0.38084716 0.61649317 -0.17252605 7.5555553
2.3552454 0.73886037 -0.1734494 36
2.6549773 0.64299309 -0.17534311 34
-0.80122018 0.75374562 -0.15719961 6
2.1360493 0.82910192 -0.16375287 50
1.496106 1.0452749 -0.16992716 53
1.6292667 0.99544913 -0.19209777 58
1.0374068 1.1973162 -0.18122505 68.5
1.1356717 1.1607027 -0.15970899 67.5
1.2751174 1.1133285 -0.18284452 65.333336
1.457449 1.0557053 -0.19265077 67
0.93748504 1.2321745 -0.19257671 63
0.52319092 -2.8719475 -0.093511648 14
0.58525926 -2.6367748 -0.10501277 15
0.62022203 -2.2630217 -0.039771948 1
0.66619921 -2.1558619 -0.11176539 2.3333333
0.84415513 -2.1596909 -0.14837304 5
0.72677976 -2.0312645 -0.017930692 3
0.93994588 -1.9557502 -0.10054526 8
0.69254237 -1.923494 -0.09706787 0
0.77605474 -1.893819 -0.076002322 4.5
0.8987177 -1.6437073 -0.082939424 34
0.92849022 -1.5900791 -0.10861383 48
4.4626389 -1.5605299 -0.069173403 17
-0.59152335 -1.3637936 -0.14152086 1
0.99473333 -1.4108943 -0.14170861 63
1.3833205 -1.393468 -0.12512523 90
3.8628256 -1.4293259 -0.12160931 146
-0.55458105 -1.3233123 -0.023385024 1
1.0478895 -1.240387 -0.11058838 41
1.0588007 -1.3335618 -0.1222252 31
4.5632033 -1.3200452 -0.026208704 12
-0.48626781 -1.1204855 -0.073630571 0
1.1149018 -1.0786614 -0.10108767 49
1.3240887 -1.0838642 -0.11237047 21.5
1.4769624 -1.11649 -0.13133903 69.666664
4.6045356 -1.051747 -0.097600169 40
-0.42846197 -0.95805538 -0.10870466 0
1.1389675 -0.98041826 -0.099400721 69.25
1.2860163 -0.95697367 -0.12070749 11
1.4354458 -0.95332432 -0.11471087 43
1.5391092 -0.97342736 -0.13189149 97
-0.38392028 -0.82838595 -0.068793558 0.14285715
1.2068323 -0.79109061 -0.10599942 81
1.4092396 -0.78516591 -0.1212909 36
1.615378 -0.76024449 -0.13988046 87
-0.32612407 -0.66323149 -0.077241689 1.4615384
1.2607214 -0.64764035 -0.10802453 72
-0.29233316 -0.56854343 -0.087606862 2.25
1.2648627 -0.56797391 -0.12078346 76
4.8278766 -0.55536127 -0.036934767 1
4.7942076 -0.34424087 -0.021360165 10
4.7190714 -0.28195879 -0.08832211 9
4.3191485 -0.04073514 -0.0753709 1.3333334
4.407011 0.21335784 -0.056375615 5
0.043517824 0.43341276 -0.13218844 0.5
-0.31126133 0.59535921 -0.06584888 7.25
-0.2230843 0.56650335 -0.071816437 6.2608695
-0.10256271 0.52258444 -0.073240817 5.304348
0.036069404 0.45476139 -0.019187069 0
-0.77831525 0.69869137 -0.094639018 3.1111112
-0.66565597 0.71128273 -0.066871583 4.4117646
-0.52308136 0.66418594 -0.081236474 5.2142859
-0.38467941 0.61956173 -0.064436696 6.5999999
2.3680315 0.73789722 -0.12446324 36
2.5129046 0.68834889 -0.067988224 3
2.6636167 0.64458191 -0.12171073 33
-0.83613116 0.76672727 -0.077130489 4.3333335
1.9281685 0.89178121 -0.10674987 56
2.136004 0.82240558 -0.11793015 44
2.5424771 0.86077243 -0.042478923 150
1.5563645 1.0077307 -0.10995022 41
1.7344151 0.95304561 -0.11190824 49
1.9260499 0.90088236 -0.14912637 61
2.2822113 0.93411469 -0.040174548 18
1.0396276 1.1952916 -0.12289203 49
1.1106412 1.1737866 -0.10982832 57.5
1.2508353 1.126744 -0.12077368 57
1.424413 1.0933955 -0.11006221 109
1.8795313 1.1113036 -0.024197657 65.5
2.3078978 1.1040158 -0.00022095919 21
0.84308195 1.2612841 -0.1118907 38.5
0.95391357 1.2230599 -0.11913509 59.714287
1.1140395 1.2594961 -0.052244369 155
8.2422028 1.3648624 -0.073273934 32
1.1406024 1.5531117 -0.0047795521 89
0.95139116 -3.2062135 0.080229662 0
1.2853302 -2.4326355 0.11389255 0
-0.93422395 -2.3786342 0.095822744 2
0.60088265 -2.2823079 0.050464388 0
1.3190371 -2.3463585 0.11138453 0.5
0.66887867 -2.1954672 0.086767428 4
1.3784091 -2.1392801 0.081706792 1.5
0.71326643 -2.0425258 0.047499355 3
0.73621362 -1.8581984 0.097208336 4
1.2907267 -1.880461 0.046877824 38
1.3755941 -1.8407166 0.063534997 35.5
1.4615778 -1.7782853 0.039509948 29
1.5171356 -1.6911079 0.13216843 37.5
1.5812171 -1.5757574 0.081795022 3.5999999
4.4686923 -1.5699914 0.052507427 15
-0.60741031 -1.3925253 0.078586407 0.5
-0.58031869 -1.3634397 0.051928114 0.5
1.6230369 -1.4645562 0.066137634 4
-0.5348717 -1.2749958 0.043307744 0.5
1.6480124 -1.3480817 0.049483921 5
1.6896274 -1.2679627 0.11903995 25.5
4.6337256 -1.3142312 0.1441468 7
-0.47056592 -1.0874575 0.019381011 0
1.7446537 -1.1476444 0.080729425 17.333334
4.6609535 -1.057312 0.072684042 9
-0.42701215 -0.96120954 0.072097033 0
1.7645466 -1.0017716 0.079042263 5.75
2.0545645 -0.98069006 0.043001022 6
4.739152 -0.90546501 0.082725547 16
-0.37462384 -0.80933124 0.078220092 0
1.7989576 -0.89250767 0.053919043 7
1.806818 -0.87249219 0.095938258 2
4.7176566 -0.80674255 0.012709732 24
-0.32838684 -0.67539728 0.071430616 1.375
4.7266541 -0.62189865 0.066441111 16.5
-0.3017616 -0.59237707 0.012033756 3
-0.29159093 -0.56699145 0.080475546 2.4000001
4.7783065 -0.33953899 0.06567999 9
-1.1541264 0.056117468 0.13374096 7
4.3292737 0.12479983 0.069738261 2
-0.3141028 0.59535879 0.10671508 4.1666665
-0.2218519 0.56587571 0.07879889 4.2857141
-0.10328128 0.52201265 0.077756412 3.9130435
-0.97236925 0.7471264 0.011058534 0
-0.79044145 0.66057926 0.080033645 1.5714285
-0.6775288 0.71791035 0.078052886 4.1333332
-0.53045106 0.66826379 0.068104103 4.4499998
-0.39332101 0.62415552 0.069532782 4.7272725
-1.2096431 0.89968389 0.1196593 7
-1.1409876 0.87579912 0.079624221 7.75
-1.0183542 0.80160856 0.014888519 0
-0.82576442 0.76899922 0.072768092 4
8.1739979 0.87599397 0.080430619 28
-1.2776558 0.92408299 0.11890365 8
1.9196292 1.0388157 0.097386174 28
2.8275819 1.0091388 0.081967361 46
1.8463634 1.1005715 0.097646281 38.799999
2.2624421 1.1280313 0.073654957 24
2.4295354 1.1192291 0.13133669 65
2.6131556 1.0795305 0.10103136 54.666668
1.8789281 1.3025122 0.07932239 56.666668
1.9863919 1.283982 0.065973245 64.5
1.4311647 1.4775436 0.1178875 64.5
1.5685288 1.4395046 0.099847816 80.666664
1.7022055 1.3944173 0.080675431 76
1.8140435 1.3536671 0.10749366 75
8.2210159 1.3738763 0.092163764 37
1.1267537 1.5761136 0.033668008 49.666668
1.2581164 1.5306292 0.037182208 69
0.6533705 -2.2028122 0.15090293 4
-1.1590014 -2.09659 0.21151549 2.5
0.66320276 -2.0025601 0.20558906 2.2
0.73118693 -1.9325546 0.15139192 4
1.3065553 -1.8998981 0.23114282 15
1.4536521 -1.8324747 0.25296873 27
1.4315819 -1.7718142 0.2264048 31.333334
1.5387403 -1.7285857 0.17982656 39
1.6382053 -1.408498 0.16007864 2
1.7425245 -1.390009 0.24662951 28.5
4.6304083 -1.4472266 0.23346221 0
-1.1128525 -1.2416407 0.24841869 4.5
-1.0312703 -1.2293242 0.22165895 1.5
-0.53476304 -1.2654889 0.21441662 1
1.694941 -1.2468079 0.2363646 108.75
-1.2148829 -1.1274884 0.26736432 3
-1.1024722 -1.1724677 0.23102452 4
-1.0360496 -1.1739686 0.25864837 0.5
-0.49695852 -1.1607159 0.2145133 1
1.7472782 -1.1246052 0.23446468 71.428574
4.6849132 -1.1778431 0.15158635 1
-0.42661417 -0.96585536 0.26526001 0
4.7459073 -0.9107796 0.17624706 12
-0.37271085 -0.81098258 0.21714407 0
-0.32685199 -0.677077 0.20225585 1
4.6509318 -0.65655804 0.19464231 24
-0.28424558 -0.55728084 0.23327947 2.3333333
-1.3155367 -0.065288618 0.26760364 0
-1.2244054 0.10382472 0.23085016 4
-1.1308923 0.044362109 0.19586235 3
4.216177 0.29905578 0.2141149 2
-0.30760017 0.59502214 0.24012177 4.3333335
-0.21381094 0.56338942 0.22527096 4.130435
-0.1342825 0.53495514 0.16427191 4
-0.77314121 0.68972909 0.23976257 2
-0.68790281 0.72294849 0.19443116 4
-0.52723652 0.66953105 0.21337335 4.2352943
-0.38317484 0.62181675 0.22826941 4.2380953
-1.1180096 0.87019503 0.17851321 7.5999999
-0.83838338 0.77624685 0.22133425 2.5
8.2115364 0.89356428 0.23063225 47
-1.5678347 1.0201544 0.22313961 36.599998
-1.4092777 0.96907842 0.2515223 8.25
-1.254164 0.91491067 0.21031033 8
1.9258275 1.0196126 0.16467911 29
2.7900486 1.022597 0.21396631 51.666668
1.8174179 1.0826283 0.16710368 33.5
2.152457 1.159281 0.28281289 148
2.2868552 1.1409552 0.20337024 25.5
2.4881916 1.1222565 0.23235945 55
2.6219225 1.075133 0.26321208 38.5
2.7096338 1.0571722 0.25334847 42
1.8718555 1.3131869 0.19612968 64.599998
1.9745995 1.2705852 0.2689088 47.333332
1.4194396 1.4796592 0.22892232 60.400002
1.5690597 1.4386145 0.23017123 70.199997
1.715064 1.3899006 0.23562939 65
1.8243351 1.3566704 0.27809504 65
8.2178679 1.3868134 0.24196249 34
1.157007 1.5741694 0.25717902 55.75
1.2836083 1.5284221 0.23276037 62.5
0.71379572 -2.1066685 0.42674291 2
0.57769734 -2.0543242 0.42028713 2
0.76112825 -2.0148687 0.44119132 4
0.60943896 -1.9275293 0.41559809 4
1.6916018 -1.3795072 0.33631372 13
-1.1403764 -1.2360293 0.31729749 5.3333335
1.6650244 -1.2915279 0.35037479 42
-1.1761382 -1.134236 0.32791689 4.875
-0.47653991 -1.0944695 0.36712503 1
1.7355055 -1.1313947 0.34114018 85
-0.43552399 -0.99990129 0.3592326 0
-0.3796829 -0.83509988 0.39120859 0
-0.31578934 -0.64902353 0.38811761 0.25
-0.29860285 -0.58250028 0.42830873 0
-1.5055307 -0.25262854 0.39208421 5.6666665
-1.4302843 -0.20735125 0.39619893 15.5
-1.3358114 -0.18368098 0.44979656 1
-1.3588734 -0.13347113 0.36364621 0
-1.3174175 -0.094029568 0.3920157 0
-1.3644401 0.059556257 0.39843518 0
-1.2744383 0.12576333 0.36136594 3.5
4.2335911 0.10425515 0.3145777 0
-1.2523084 0.17087093 0.36598897 5
4.2810884 0.3031407 0.30998659 0
-0.30956885 0.59828728 0.3235833 3.6666667
-0.25007474 0.57927752 0.36161074 3.9473684
-0.79921716 0.65873754 0.33659452 0
-0.65811169 0.72235882 0.37552091 2.9230769
-0.5109036 0.67220825 0.38285115 2.8461537
-0.37458134 0.62817866 0.38835028 3.0625
-0.29860556 0.60874641 0.42700666 2
-1.1378781 0.88325274 0.41955703 6.25
-0.82180285 0.77338088 0.36787647 2.3333333
-1.5170854 1.0028057 0.30046719 41
-1.4709077 0.99628907 0.37991294 16
-1.2687894 0.92764872 0.35113761 7.5999999
-1.1918316 0.90209419 0.41967481 7
1.9393779 1.0295144 0.32881254 52
2.0114119 0.97339892 0.43811348 50.5
2.1566639 0.99514651 0.37938178 125.5
2.365263 0.96617371 0.38094831 151
2.6304445 1.0355397 0.4267413 150
2.8697326 0.99079806 0.34870464 38
-1.9696074 1.159116 0.38417608 35
-1.8402741 1.1134311 0.41719827 34.5
-1.7083737 1.0686527 0.41885331 33.75
1.8633869 1.0982783 0.34843791 72
2.43856 1.1415744 0.31809366 56
2.6569171 1.0653403 0.32401335 21.5
8.0989351 1.1449091 0.38852209 47
1.9107723 1.3207091 0.36698589 71
1.9830041 1.2626992 0.35377264 116.66666
2.2107718 1.2139947 0.32623959 78
1.4571127 1.4802595 0.39604175 64.166664
1.5868658 1.4396257 0.37822732 67.833336
1.7461103 1.3906645 0.35435191 29.25
1.8217387 1.3565816 0.44850469 58
1.1355615 1.5823177 0.3710539 40.333332
1.2666241 1.5351214 0.3758916 56.5
1.3610713 1.5059913 0.37374824 56
7.7627583 1.5414417 0.38253778 26
-1.2389196 -3.3896537 0.55138129 0
-0.53813076 -1.2852169 0.52117687 0.66666669
-0.46523234 -1.0933068 0.49013001 2
-0.4296484 -0.97879922 0.53595954 3
-0.32782131 -0.68511385 0.46290249 0
-0.2894578 -0.56485099 0.50783128 0
-1.3892596 -0.19200529 0.54275292 1
-1.3430632 -0.15051816 0.49527138 2
9.8414917 -0.24520195 0.59222025 9
-1.3030063 -0.090704463 0.50082117 0.75
-1.4059517 0.060210314 0.52604002 0
-1.2887681 0.078969851 0.51378667 5.2857141
-0.67514533 0.73000944 0.53302997 1.2
-0.53229553 0.6793673 0.52496052 1
-0.3662571 0.62674272 0.52252352 1.4705882
-0.29737726 0.60229284 0.49080801 2
-1.0990877 0.86908317 0.49674386 1.5
-0.7942003 0.76680595 0.54011881 1.2
10.084869 0.85654759 0.55264914 1
-1.564211 1.0241183 0.51616275 32.333332
-1.4698714 0.99480617 0.53628963 31.5
-1.3209592 0.94951975 0.57397544 22
-1.1970264 0.9084307 0.49747807 7
1.9918544 1.0100678 0.49895638 62
2.3037302 0.96604246 0.49919409 131.5
2.6931267 1.0393845 0.52615905 146.5
2.8919396 0.99514854 0.48180169 37
-1.9597068 1.1584276 0.48084021 34
-1.8533608 1.1196815 0.50153059 31
-1.7328176 1.0777425 0.5085842 34.666668
1.9138168 1.1532884 0.47956574 123
1.9629433 1.0596819 0.4709512 18
2.1256309 1.1660225 0.50480473 110
1.9035918 1.3269652 0.51206547 59
1.9868205 1.3011351 0.56301463 59
8.435339 1.3148082 0.56221431 29
1.4391803 1.4936409 0.53142983 63
1.5718586 1.4439834 0.54022497 61.714287
1.7062378 1.3972648 0.51977444 60.666668
1.8165007 1.3612469 0.50103539 62.666668
1.1529278 1.5837462 0.53328633 42.599998
1.269998 1.5425903 0.54452169 56.200001
1.3806833 1.5092922 0.50579548 62.333332
7.547286 1.6145194 0.49349099 26
6.8056817 1.8625236 0.45323277 35
3.5599713 -3.4790356 0.74438369 71
-1.2484567 -3.4140053 0.60611182 6
8.961216 -2.9412267 0.72148943 31
-0.47095942 -1.1041367 0.680538 2
-0.4503088 -1.039297 0.61384159 2
-0.44448259 -1.0332601 0.65210223 2
-0.34467682 -0.75137073 0.66031361 0
9.6929674 -0.77317649 0.64390314 27
-1.3814685 -0.21005413 0.69449031 5.4000001
-1.3715751 -0.11363676 0.69825351 12.25
-1.3381367 -0.082519956 0.68616194 4.5
-1.3028097 0.075677291 0.62185448 8.5
-0.65316838 0.72007608 0.67346972 0.33333334
-0.50311917 0.67285925 0.66790265 0.60000002
-0.39736959 0.63628167 0.65487188 0.72727275
-2.4624376 0.89425296 0.68201256 63
-1.0886459 0.87023252 0.68097734 14.75
-0.83292007 0.78058165 0.68175775 3.8333333
-1.3766184 0.96594024 0.66516882 36
-1.2970859 0.94126135 0.67822731 22.5
2.8291576 1.0109644 0.62414932 43
-2.4195797 1.0606874 0.63068819 50
-2.3807352 1.0511146 0.6261909 55
-2.0496416 1.1872995 0.70079559 34
-1.8381715 1.1203794 0.71466893 31.666666
2.0627024 1.1404042 0.6215899 150
2.5233214 1.0815243 0.71639466 133
-2.4270968 1.3178167 0.7024287 31.5
-2.2970834 1.2739331 0.7137754 29
-2.1826994 1.236114 0.7009635 34.25
1.9280939 1.319932 0.66889429 55
2.0541654 1.2620608 0.66800106 54
-2.58463 1.3685006 0.68708873 33.5
1.4710499 1.4808836 0.64645684 57.333332
1.5566614 1.4537934 0.68948483 55
1.7327831 1.3876028 0.67231649 58.5
8.1335983 1.433889 0.71749353 30
1.1462059 1.5878705 0.66193527 31.333334
1.2763243 1.5470893 0.67509496 56.25
1.3807181 1.5155451 0.6445151 57.5
7.0691819 1.7889652 0.72252882 38
7.3390722 1.6974618 0.65621972 28
6.681314 1.92137 0.62229455 33
6.4368377 2.0038295 0.67389572 31
6.5401678 1.9657385 0.73826706 33
2.7601838 -5.1088958 0.78676808 32
2.9139161 -5.1519475 0.7888636 32.5
1.4608564 -4.671483 0.8589406 46
0.95149332 -4.5280809 0.80882454 0
1.1794724 -4.5684271 0.88022339 53
1.2151278 -4.5828996 0.76852429 46
-1.2546757 -3.4110339 0.8500495 7.6666665
3.6151874 -3.3115692 0.79682791 73
3.6683972 -3.1521487 0.84976029 78
-0.51475495 -1.2395518 0.80984724 1
-0.45579642 -1.0818182 0.8087092 1
-0.41535234 -0.94843054 0.85186088 1
-0.33836538 -0.72200561 0.86305988 2
9.7399836 -0.64457417 0.83680379 32
-1.3746077 -0.31383803 0.81683809 3.3333333
-1.3959585 -0.26251069 0.79182446 1
-1.3229034 -0.20493294 0.80994225 4.25
-1.387512 -0.076181948 0.78721714 3
-1.3334719 -0.10052788 0.79622358 6.3333335
-2.2511764 0.24344155 0.81814551 35.5
-2.375474 0.32596591 0.82222593 7
10.968968 0.48130271 0.84506845 1
-0.67829055 0.73234445 0.81087285 3.5999999
-0.51451921 0.67749524 0.82831591 1.7
-0.40948728 0.64223605 0.79126281 0.33333334
-2.8136735 0.83392894 0.8823303 156
-1.1321166 0.88160944 0.75191939 29
-0.79516399 0.77327597 0.82777643 5
-2.4827847 0.93752062 0.82471037 58.75
-1.6093102 1.0466584 0.836308 30.666666
-1.2296959 0.92184633 0.81455135 33
2.7832675 1.0365176 0.77515888 37
-2.5063093 1.1431875 0.78267497 125
-1.9646716 1.1675344 0.87839603 27
-1.8349344 1.119899 0.82512373 29.5
-1.733218 1.0868057 0.8644805 26
-2.5940845 1.2525126 0.8988899 156
-2.5128326 1.2742409 0.81514597 119
-2.3295608 1.285167 0.83245188 30.5
-2.1252546 1.2177114 0.84503853 32
8.0270386 1.4627136 0.85330033 32
1.1276107 1.5923296 0.78393495 20
1.232625 1.5646784 0.75540161 55
7.8007345 1.5349516 0.79766846 29
7.2162218 1.7351966 0.7799027 38
7.392652 1.6738039 0.87138343 39
6.6953793 1.9122834 0.81789339 34
6.4050064 2.0250649 0.89861047 32
3.4696875 -5.3947721 1.0414368 29
3.0361056 -5.214932 0.97196913 27
1.1451838 -4.552937 0.98442531 50
3.5288451 -3.5832996 0.99074388 74
3.5891712 -3.4073868 1.0230714 72
3.7151992 -3.0042212 0.92259169 81
3.7330706 -2.9701295 1.0312685 53
9.0164795 -2.7360373 0.98905599 31.5
9.1789608 -2.257544 0.91584158 10
9.3959646 -1.656863 1.0099201 31
9.5068369 -1.3166389 1.0358968 31
9.5548191 -1.1575752 0.91068387 31
-0.42892262 -0.99608797 1.0081772 0
-0.38179404 -0.85884184 1.0224926 0
9.6731482 -0.83116388 0.98177493 32
-0.32133943 -0.68356234 1.0080688 0.40000001
-0.28798252 -0.57505172 0.98879659 0
9.8276386 -0.33137548 0.94477856 32
-0.6517669 0.73182625 0.93276834 0
-0.52506685 0.68669045 0.98718292 4.8888888
-0.41962257 0.64861947 0.94510525 5.3333335
-2.8859758 0.84885299 0.90477955 150
-2.7785714 0.86585194 0.96128511 170
-2.599757 0.85220206 0.98091543 75.75
-1.0947859 0.87917966 0.91313148 4
-0.83034962 0.78477055 0.99818659 3
-0.73262316 0.75639755 0.95440012 3.6666667
-2.4541717 1.0339112 0.95987439 77.5
-1.5569767 1.0314081 0.97670233 25
-1.4047952 0.9784596 0.93248761 23.5
-1.3021508 0.94666654 0.98353428 28
-1.1753727 0.90528488 0.94655311 20
-2.642864 1.1092335 0.9828375 84.833336
-1.6832736 1.073842 0.99955976 28
-1.6411362 1.0572778 0.9087646 37
9.0147858 1.1322876 0.9708997 30
-2.5841494 1.2753921 0.962686 152.33333
-2.5094163 1.2317351 0.96201301 126
8.6866493 1.2337965 0.91024745 30
8.2266397 1.3898921 0.96029592 32
7.6273885 1.6122956 0.99938023 27
7.3770289 1.6767936 1.022947 27
6.7317162 1.9018263 0.93466163 34
6.9930458 1.828686 0.9933573 37
6.4044623 2.0282755 1.019014 31
3.9068987 -5.5355964 1.1056676 31
2.9159565 -5.154551 1.1638063 34
1.5881535 -4.6889448 1.1617963 40
1.7460108 -4.7409883 1.192741 25
1.4127164 -4.6444511 1.1140516 24
3.6489382 -3.2476833 1.0789802 83
8.8537788 -3.2409258 1.112692 31
3.7603669 -2.9576514 1.1633781 37
9.2269554 -2.1427085 1.128916 32
9.3490248 -1.7918626 1.1112261 32
-0.44747078 -1.0485094 1.1458204 0
-0.31142855 -0.65408623 1.119864 0
9.8064251 -0.37467772 1.1742229 29
12.673401 -0.13452169 1.0847445 8
-3.3406532 0.74986565 1.1568779 34
-0.6477263 0.73032689 1.1051812 9.666667
-0.50941133 0.68506652 1.1488113 6.7142859
-0.41013706 0.6481337 1.1182212 8.666667
-3.338362 0.7597034 1.1688786 8
-2.9072917 0.85236132 1.0753087 150
-1.0751921 0.87564868 1.1438069 21.333334
-0.79977143 0.77878296 1.1203096 7
-0.74615067 0.76828271 1.1580985 3
9.9089251 0.8798247 1.0876521 4
-2.5481091 1.0270313 1.0576227 146
-1.5102786 1.0210166 1.1714567 29
-1.4764339 1.0125663 1.0880469 30
-1.302669 0.94821137 1.1988958 21
-1.1812301 0.91013801 1.144115 24.5
9.284688 1.0479038 1.1017293 12
-2.4796755 1.0879182 1.0551547 150
-2.4404027 1.3302321 1.0962629 31
-2.3894329 1.3135495 1.143713 29.5
-2.645474 1.3744824 1.0931621 56.5
8.1564379 1.4230348 1.1484745 28
8.415513 1.3526759 1.0899042 25
7.7246385 1.5677505 1.1525075 28
6.8436341 1.8668212 1.1327778 35
7.0236368 1.8116344 1.0952359 36
3.7694695 -5.4773626 1.30373 31
3.3466742 -5.3435488 1.2285408 37
2.8356225 -5.1348901 1.3341168 32
2.4760685 -5.0119934 1.3038511 33
2.1373129 -4.8944049 1.2786088 33
1.195582 -4.5544882 1.2666265 3
1.3205781 -4.5957103 1.3009542 44
1.42756 -4.647934 1.3308458 33
3.5144396 -3.6768014 1.2167375 75
3.5703332 -3.4900453 1.2477148 82
3.6633174 -3.1929314 1.2833749 77
8.8609447 -3.1971884 1.2020513 32
3.7061484 -3.0394437 1.2203648 77
3.8255236 -2.9747624 1.2732965 20
9.0234776 -2.7172663 1.3185188 33
9.069437 -2.6193168 1.2721223 31
9.1737614 -2.2561064 1.202751 32
9.4975185 -1.3875121 1.3239665 25
9.5486231 -1.1268381 1.288964 18
9.6292992 -0.85752201 1.275213 27
9.7354288 -0.64854175 1.2230514 31
9.7588005 -0.49698818 1.2838771 29
9.7982197 -0.35583431 1.3017783 26
-3.3968792 0.54991853 1.2850336 71.75
-3.3353655 0.73870528 1.340565 88
-0.64304113 0.73175496 1.2457247 2.3333333
-0.53487706 0.69871116 1.3099185 4
-0.41286543 0.65722793 1.2871625 7
-3.3061068 0.82102036 1.2991828 91
-1.0367029 0.86978853 1.3257685 1
-0.84861797 0.80390233 1.2490213 3
-0.74227715 0.76965451 1.3340086 3
-1.5716572 1.0437784 1.2865218 25
-1.436854 0.99886715 1.2902876 19
-1.206736 0.92242044 1.275045 26
9.3152256 1.0333362 1.2066759 24
-1.6696839 1.0716524 1.2659781 20
9.0221758 1.1099451 1.3060987 28
-2.3230796 1.2944205 1.2617285 24
-2.0676904 1.2121433 1.2502594 24.666666
8.5920315 1.2754183 1.2791263 28
-2.8122637 1.4435586 1.3232937 29
8.3239384 1.3615526 1.3448597 28
7.5240974 1.6361238 1.2198815 25
6.4101906 2.0291603 1.3181949 21
3.243593 -5.2973313 1.4022417 30
2.4042368 -4.977963 1.4481587 33
2.7587538 -5.0996866 1.4873827 34
-1.3507698 -3.6166849 1.3820329 2
3.5886753 -3.4537895 1.4069921 79
3.5937316 -3.4402528 1.4809986 76
3.6580303 -3.2384384 1.4157152 80
8.8741837 -3.1745009 1.4547153 40
3.6859913 -3.1104667 1.4786029 73
3.967263 -3.0229299 1.3788496 20
8.902319 -3.0834334 1.435972 32
9.1745434 -2.2027159 1.481241 29
9.2646484 -2.0531251 1.4931412 32
9.3491888 -1.8715428 1.4359648 33
9.3284769 -1.7505637 1.4087369 30
9.4237661 -1.5992334 1.3844252 30
9.455617 -1.5108398 1.449055 24
9.4865732 -1.2932891 1.3555956 25
-3.5668263 -1.0589203 1.45486 79
9.5882816 -1.0091373 1.350233 30
-3.3725042 0.62640327 1.4475542 95
-0.549582 0.70643324 1.3577847 3
10.617441 0.65648901 1.4011916 1
-3.3135712 0.79937392 1.460043 86
-3.2898617 0.87303066 1.407392 92
-0.57716572 0.75144988 1.4886972 3
9.6697073 0.8989529 1.4302011 29
-3.2685587 0.91761065 1.49326 106
-1.2515739 0.93665588 1.4087174 25
-1.1625097 0.91331297 1.4382098 18
9.5781879 0.93336946 1.4792085 30
-3.1948719 1.1572789 1.4569112 150
-1.8368933 1.1325214 1.3515083 19
-1.6234965 1.0617996 1.4148512 19
-2.1462061 1.2427185 1.4190799 25
-2.0278082 1.2032605 1.4501008 20
-2.7390747 1.4460934 1.446896 22
-2.4807997 1.3541026 1.3698151 24
7.6608539 1.5954192 1.4948802 26
6.8552036 1.8892784 1.4190034 36
6.9916697 1.8192341 1.4315398 30.5
6.4532666 2.0155845 1.3910887 34
4.8708582 -5.801064 1.6465203 21
1.4339482 -4.6520987 1.5809062 33
1.7169573 -4.7334051 1.5659299 32
3.5074987 -3.6998231 1.6212717 46
3.5988851 -3.4506347 1.5565901 74
8.7481861 -3.5462101 1.6267942 31
3.7575815 -2.9520047 1.5384618 26
8.184535 -2.6189644 1.567552 37
9.0317087 -2.6545253 1.5751675 29
9.0827188 -2.4921339 1.6164399 29
9.1746445 -2.3356936 1.5666741 31
9.2607155 -1.9889319 1.5617229 15
9.4727802 -1.1233406 1.6338974 14
-3.5375056 -0.96957356 1.5852067 79.5
-3.4980378 -0.82277703 1.6049496 12
9.6783676 -0.66579825 1.6036941 16
9.7084188 -0.53375977 1.614334 18
9.8579235 -0.23537451 1.5886827 5
12.807589 -0.18574114 1.6006831 4
9.9270334 -0.044407178 1.5938783 1
10.36216 -0.13722095 1.622636 1
9.6737337 0.079994552 1.6428837 4
12.073887 0.045967493 1.5747699 9
12.098832 0.15935773 1.643932 4
10.616307 0.42048571 1.6178023 2
-3.3910987 0.56299216 1.5335248 100
9.7623739 0.57930911 1.6226243 4
10.26326 0.47502786 1.6184249 3
-3.345849 0.68731511 1.572391 101.5
-3.2921317 0.85697639 1.578833 98
-1.0843651 0.89037514 1.5581518 1
-0.6429714 0.81838626 1.6361195 11
-3.2606256 0.94042474 1.5581511 97
-1.4484217 1.0099311 1.554739 19
-1.3232461 0.96900344 1.5991483 20.5
9.3014183 1.0314417 1.5216386 31
-3.1945946 1.1396788 1.5595542 115
-1.9013741 1.1689149 1.5913529 23
-3.1679037 1.2126582 1.6265398 84
-2.25846 1.2837036 1.5681565 19
8.4111366 1.3135724 1.6313471 28
-3.0940685 1.4281346 1.5776315 101.66666
8.1661892 1.4222558 1.6323737 29
7.6866918 1.5916538 1.6012679 31
7.4663014 1.6745439 1.509738 29
6.4086933 2.0103021 1.6496438 34
4.7491608 -5.7747803 1.6674749 25
4.1819553 -5.570641 1.7238554 3
4.244267 -5.5957618 1.6910912 30
3.982496 -5.5079317 1.7101251 12
4.0731936 -5.5279608 1.7206897 1
4.6010013 -5.4186049 1.7103926 11
3.4026902 -5.3405814 1.781289 33
3.5150883 -5.3175478 1.7840242 30.5
3.6450615 -5.3713651 1.7775527 34
3.8964183 -5.1428132 1.7839986 32
2.78689 -5.0222826 1.7887594 25
1.9830513 -4.837419 1.6922449 40
2.8084028 -4.9076858 1.7576441 0
1.6448971 -4.7175188 1.7950152 42
1.6816846 -4.7331614 1.6892143 42
2.7741997 -4.7220826 1.6843969 6
2.8556814 -4.763751 1.689268 1
1.1243887 -4.5359511 1.7297214 54
1.375241 -4.6083641 1.7502195 38
2.143507 -4.524878 1.705146 21
2.3206196 -4.5800786 1.7584969 51.5
2.4588037 -4.6300945 1.783887 58
1.7588322 -4.3809814 1.7724394 58
1.1923295 -4.2174373 1.7109567 2
0.95060366 -4.1266866 1.7375404 59
8.3393488 -3.9794147 1.7344078 17
-1.0003279 -3.8170247 1.7005469 1
3.5572753 -3.7740245 1.7986335 30
8.1683493 -3.8131633 1.7370709 12
-1.5515084 -3.6251969 1.7281005 60
-1.3825008 -3.6384139 1.7962083 47
3.5443354 -3.733088 1.7299827 42.5
7.6720691 -3.6045098 1.7423152 23
-1.9886589 -3.4838424 1.6937996 24
-1.8289979 -3.5303373 1.7319876 64
-1.5820084 -3.576726 1.7722472 51.5
3.5592804 -3.551337 1.6605676 77
-2.4601135 -3.3307087 1.7301027 34
3.6124132 -3.3482563 1.6814772 75
4.7888141 -3.3625634 1.7754518 26
6.6390448 -3.3318226 1.7754315 24
8.3582745 -3.4108865 1.7327605 19
-2.6047857 -3.2332821 1.771592 56
-2.5105929 -3.2672381 1.7429922 41.5
-1.6994122 -3.2176335 1.761113 46.666668
-1.5239303 -3.2709458 1.7776321 64
3.6896634 -3.1794641 1.7183696 75
6.6461439 -3.2284355 1.7664798 26
7.2858548 -3.2188258 1.7522408 23
7.4345922 -3.160573 1.7659613 20
-3.5104384 -3.0076823 1.7260882 0
-3.3741515 -3.032167 1.7338878 26
-3.2516923 -3.0581963 1.7426692 24
-3.0773952 -3.0978599 1.7631176 52.5
-2.9027467 -3.1484108 1.7972101 40
3.7206924 -3.1030676 1.7853693 84
3.9544261 -3.0035155 1.6703089 21
6.1363983 -3.1293724 1.7855645 25
6.797369 -3.038646 1.7600001 22
7.9963446 -3.0716617 1.7370809 30
8.8858433 -3.1056011 1.6887103 8
-3.7514448 -2.914875 1.6735433 16
-3.7469971 -2.9261754 1.6825281 10
-2.6997399 -2.8778183 1.7769226 54
-2.4958906 -2.9411793 1.780583 60
3.7391839 -2.9888723 1.7687126 79
5.397397 -2.9417067 1.7984527 18
5.5086346 -2.9386978 1.7933015 21
5.9170203 -2.8637736 1.7871379 20
7.534534 -2.9124763 1.7438511 21
8.1652899 -2.993921 1.7350124 19
-3.1961703 -2.72756 1.7726723 50
-3.094398 -2.7624679 1.7757162 36
-2.9714227 -2.7940185 1.7988709 74
4.5460401 -2.745616 1.7971362 30
5.4978619 -2.8090465 1.7869071 27
5.9863381 -2.8490632 1.7858325 22
6.0742979 -2.7354028 1.7764307 20
6.4446182 -2.7417428 1.7703756 21
6.4880619 -2.7286742 1.7794181 23
3.9539826 -2.6213193 1.7995058 35
4.2928338 -2.551213 1.7989739 22
4.9527221 -2.6743028 1.791876 25
5.3603568 -2.5721765 1.7825094 26
6.2011189 -2.5571713 1.784871 20
6.6695895 -2.6140709 1.7607437 25
6.9949217 -2.5808282 1.7546445 21
8.1800003 -2.68204 1.6950794 55
4.6263394 -2.4534543 1.7941016 23
5.2566447 -2.4074533 1.7971131 16
5.78969 -2.4450729 1.778488 29
6.9089198 -2.5396614 1.7440873 19
7.2480202 -2.4296899 1.7340235 17
8.9855604 -2.4301994 1.6821774 18
4.8516221 -2.3702307 1.7998103 24
4.9577894 -2.3307104 1.7900943 24
5.2217221 -2.2600632 1.7880372 25
5.692503 -2.288239 1.7866875 18
6.1820822 -2.2697744 1.761429 22
6.7332149 -2.3980031 1.7707795 22
7.4731712 -2.3601248 1.7475604 19
7.6081195 -2.3890676 1.7531167 23
4.2062273 -2.1081171 1.799755 20
4.6378474 -2.1377809 1.7916383 27
5.2796054 -2.1833713 1.7856055 25
5.6044507 -2.1256115 1.7799417 27
6.1376448 -2.1326728 1.7765096 20
7.1976795 -2.1716979 1.7359518 21
7.900239 -2.2091377 1.7239527 25
8.0462847 -2.117568 1.7279903 20.5
4.4942937 -2.0130703 1.7998742 21
4.9716473 -2.02284 1.7897087 24
5.576766 -2.0051711 1.7748007 19
5.9978914 -1.9614599 1.7741095 30
6.5761023 -2.0652652 1.7474011 23
4.1599693 -1.9043999 1.7924322 28
4.7680998 -1.8926687 1.7944328 23
5.2913156 -1.876436 1.7805413 25
5.8569107 -1.8015674 1.7635804 20
6.5606627 -1.9340724 1.7598156 21
6.9629946 -1.8268796 1.7356809 27
7.7967243 -1.9357023 1.7394131 23
8.5092487 -1.8785114 1.713044 18.5
8.6639261 -1.8050247 1.7105407 20
4.4157243 -1.7906499 1.7956558 13
5.0503464 -1.7560748 1.7934014 24
5.5998068 -1.7034066 1.7708315 26
6.3686795 -1.7612101 1.762611 32
7.0003757 -1.7016258 1.7495273 39
-4.1127806 -1.5808089 1.7838882 71.5
4.6388912 -1.6496593 1.7868716 22
5.3203974 -1.5967724 1.788067 25
5.8874178 -1.5021676 1.7582802 28
6.1392174 -1.5804818 1.7617172 29
6.7738285 -1.5373374 1.7649158 38
7.2883096 -1.54501 1.7148412 23
8.2963247 -1.6256279 1.7203323 24
9.0522385 -1.5363381 1.696708 11.5
4.852335 -1.4917244 1.7796031 22
5.5786395 -1.4158176 1.7829458 27
7.368166 -1.4180429 1.7267381 21
9.1356125 -1.4329115 1.6892225 15
5.0696473 -1.3223968 1.7786764 23
5.8262739 -1.2142448 1.7761716 27
6.1968112 -1.2826831 1.7581774 30
6.3713522 -1.3324876 1.7517442 22
7.0675607 -1.2599441 1.7403539 24
7.6022305 -1.2372396 1.7006775 21
8.7872133 -1.267504 1.7086295 15
-3.6066434 -1.1489989 1.7024337 86
5.263947 -1.1340066 1.7732595 25
6.5736227 -1.0645436 1.7414812 23
7.7159748 -1.097918 1.7083093 21
9.4276342 -1.1278393 1.6849972 6
-3.5449569 -0.97021604 1.7322626 79.5
5.4418926 -0.93206125 1.7701575 25
6.0460777 -0.99063563 1.7665976 20
6.4484777 -1.0305365 1.7472821 23
7.3735485 -0.96067613 1.7281405 24
7.9270763 -0.90447384 1.7005478 20
9.484354 -1.002454 1.6546332 9
-3.5042503 -0.88582981 1.7094017 80
6.275331 -0.75034648 1.766699 29
6.6759353 -0.75505602 1.7394713 23
6.761322 -0.78280932 1.738294 21
9.1681166 -0.85421127 1.6856004 16
5.6004534 -0.71477652 1.7664317 26
7.569551 -0.62648368 1.6986924 22
8.0811739 -0.74850619 1.706767 21
5.7273388 -0.48567957 1.7593509 26
6.4514461 -0.48906499 1.7574188 21
6.8628559 -0.47082189 1.72574 19.5
8.1707783 -0.53878725 1.6933185 18
8.2988529 -0.36126274 1.6861373 21
9.5028172 -0.40103549 1.6701974 8
5.8335242 -0.24615107 1.7551318 26
6.5794172 -0.21047595 1.7429389 21
6.9914045 -0.17782475 1.7243026 21
7.8023176 -0.2742306 1.6924995 23
8.2873468 -0.15118812 1.6723472 14
5.9111071 -0.0015146522 1.7514678 27
6.9923186 -0.14707313 1.7191764 23
6.7098184 0.077624671 1.7388266 21
7.035676 0.13468771 1.716777 21
7.9990492 0.096886337 1.691909 20
8.4903936 0.050058398 1.6773239 18
5.9509783 0.25062963 1.7431542 27
7.0673356 0.17710792 1.7057847 22
8.3859959 0.24632828 1.6643454 22
10.673629 0.26082519 1.6741143 4
6.8240619 0.3804639 1.742252 19
7.0548563 0.44652283 1.7143873 19
-0.57473361 0.59569341 1.6816956 1
5.9696031 0.50421983 1.7385911 27
7.1432848 0.50899547 1.7090722 23
8.0799541 0.48320287 1.680622 20
8.5562458 0.47488058 1.6600167 18
-3.3413777 0.69599307 1.7321894 97
-0.66833383 0.64658225 1.7443155 2
-0.52403295 0.73556226 1.786961 15
-0.42461431 0.70137751 1.7777323 14
6.8478308 0.6879397 1.7310129 21
8.410862 0.64927709 1.6573066 21
-0.91197318 0.8584367 1.7915896 2
-0.79841024 0.8768158 1.7497629 12.333333
-0.68325937 0.8040908 1.7777883 14.428572
-0.52015829 0.79632157 1.7409375 13.4
-0.39977825 0.7792542 1.7504956 14
5.9493995 0.75845331 1.7322758 19
7.0254622 0.75862539 1.7116843 21
7.1178093 0.83898413 1.6990901 23
8.0902042 0.87433803 1.6694502 22
-3.2492821 0.9619624 1.7299491 97
-1.5055462 1.0401455 1.7787942 50
-1.2558955 0.95135307 1.7487577 18
-1.1844654 0.93555051 1.7993001 50
-0.9706068 0.95425606 1.7169999 7
5.8998199 1.0097914 1.7279669 26
6.8454895 0.99981803 1.7251872 22
8.3715858 1.0491552 1.6551927 20
8.5851097 0.90606266 1.6571814 25
-3.1966949 1.1223431 1.7912153 101
-1.9592888 1.1897796 1.7268728 25
-1.6407754 1.076018 1.6734344 18
6.9935007 1.1126266 1.699919 23
-3.1549177 1.244204 1.745505 87
5.8243217 1.2562656 1.7236222 26
6.7974224 1.3092915 1.7196916 22
8.0856924 1.2696346 1.6743337 25
-3.0893528 1.4495996 1.7348286 97
5.7114501 1.491509 1.7196962 28
6.8594313 1.4124835 1.6924909 23.5
6.6859317 1.6197901 1.7075548 21.5
5.582077 1.7193491 1.7194508 28
6.7876229 1.7826685 1.6982836 35
6.5129929 1.8924831 1.7023367 33.5
5.0094347 -5.4677601 1.8480247 24
4.1954889 -5.1120744 1.8581592 20
3.3080394 -4.9058156 1.8604747 44
4.2968931 -4.8607426 1.8398088 30
3.5112371 -4.7840428 1.8645552 27
2.7052534 -4.5445404 1.8675421 34
3.6628551 -4.608458 1.8448592 32
4.358448 -4.5919356 1.8370646 19
1.0743414 -4.4475322 1.8071877 3
1.892102 -4.4344873 1.8236901 67
2.0446291 -4.4630489 1.8563119 68
2.9282167 -4.4823122 1.8706843 33
3.1124179 -4.3698688 1.8516978 32
3.7878621 -4.4149547 1.8431276 27
1.4197146 -4.268549 1.8570851 75
1.5181215 -4.2293453 1.8622135 51
2.1975698 -4.2138772 1.870124 44
3.2744126 -4.2335286 1.846449 33
-1.9633049 -4.1157665 1.8218585 0
0.92644554 -4.120759 1.8124145 47
1.6084852 -4.1937156 1.8620011 49
1.6788334 -4.1797781 1.8652426 51
2.4257767 -4.1956577 1.8699404 43
2.6363251 -4.1473489 1.856773 35
2.8253303 -4.0642729 1.8528274 40
-2.5423429 -3.9178395 1.8114263 0
1.1079082 -3.9921265 1.865378 51.5
1.2915139 -3.9237189 1.866607 55
1.7686923 -3.9120576 1.8736352 49
1.9961092 -3.9339473 1.8724028 46
2.2116756 -3.9255295 1.859372 43
3.3904152 -3.9161046 1.8371643 33
2.4136558 -3.8862147 1.853175 44
3.2538238 -3.7904773 1.8370007 31
-3.450726 -3.6097825 1.828534 0
-3.3345182 -3.6264451 1.8367089 0
-1.2210555 -3.6867166 1.8260707 29
-1.0677745 -3.6881392 1.8385006 7
0.98231936 -3.6707304 1.8636235 29
1.4013288 -3.6357944 1.8742453 55
1.6212801 -3.6829603 1.8696386 54
1.8375707 -3.7124143 1.859305 53
2.0464177 -3.7108555 1.8543276 49
2.7825158 -3.6439638 1.8357564 37.666668
2.9281564 -3.7440047 1.8448383 39
3.1561844 -3.7435613 1.8354639 31
3.3487966 -3.6838467 1.841395 32
-1.7052372 -3.5210214 1.8290883 51
-0.81444156 -3.5181382 1.867534 2
1.5081699 -3.513124 1.8615671 51
1.7162914 -3.5426617 1.8551382 54
2.3629408 -3.5146699 1.8388888 45.5
2.48545 -3.5448992 1.8455375 48.5
2.8644235 -3.5026844 1.8428069 43
3.4272618 -3.4932501 1.8445057 34
-2.2112522 -3.3396504 1.8283812 52
-2.0215788 -3.3509088 1.8401223 39
-1.3669112 -3.3245292 1.8059658 81
-1.2246315 -3.36853 1.8392848 85
-0.95857555 -3.3133922 1.900319 15
1.0875956 -3.3820581 1.8756927 50
1.2535909 -3.3824019 1.8633087 50
1.4181341 -3.3765917 1.8562187 55
2.0391045 -3.3836734 1.8440849 52
2.1493599 -3.3978331 1.8478388 51
2.4482529 -3.3333535 1.8495923 47
2.98084 -3.3620987 1.8439285 36
5.4268975 -3.4240694 1.8026778 30
-2.6714513 -3.2058992 1.8321382 50
-2.4055896 -3.2901225 1.8046724 48
-1.8596442 -3.1583152 1.8421198 87
-1.7871523 -3.1825552 1.8147205 82
-1.55495 -3.1619451 1.9032012 65
-1.3912076 -3.1646075 1.9024876 67
-0.98719323 -3.2435389 1.8831056 6
1.0117507 -3.2332547 1.8667692 55
1.1478716 -3.2147894 1.8566796 54
1.7147828 -3.2443066 1.8451366 52
1.8269906 -3.2347503 1.8487464 54
2.0911498 -3.1790357 1.8640736 47
2.5854294 -3.2313769 1.8458236 42
3.0720947 -3.2056036 1.8350686 37
3.4583294 -3.2728558 1.8247639 30
4.7851701 -3.2654796 1.8074619 27
4.8918405 -3.1544008 1.807686 27
5.3693309 -3.292999 1.8014363 29
5.5008984 -3.1666279 1.8015863 29
-3.1307733 -3.0564015 1.823438 33
-2.957521 -3.1054549 1.801766 23
-2.7517262 -3.1386466 1.845179 54
-2.3150826 -3.0066419 1.834 88
-2.1476307 -3.0629146 1.8692576 90
-1.9060583 -3.0939071 1.9095401 71
-1.7343546 -3.1380653 1.9042827 72
-1.0788064 -3.054683 1.8910757 31.666666
-0.978939 -3.1338589 1.8851506 32
0.78676522 -3.0798554 1.8642392 42.5
0.9283039 -3.0965798 1.8597022 32
1.4225225 -3.1067469 1.8477954 51.333332
1.5391033 -3.0772572 1.8497828 57
1.7623177 -3.0084372 1.8635932 48
2.2346745 -3.1012967 1.8494407 49
2.3748045 -3.0235808 1.8369228 47
2.7116804 -3.1218705 1.8378273 42
3.1315515 -3.0247264 1.8340367 42
3.3568807 -3.0752995 1.8247565 39
3.4580739 -3.0408442 1.8191577 37
4.2664013 -3.0809915 1.8082888 33
4.6406889 -3.0521395 1.8150612 26
5.064909 -3.0081985 1.8044673 27
-3.5342984 -2.9052978 1.8544533 51
-3.3151226 -2.9724483 1.8533074 46
-2.7501769 -2.8616087 1.843752 76
-2.5991721 -2.911108 1.8209277 69
-2.4980717 -2.9358995 1.8026294 79
-1.9808996 -2.9455504 1.9020323 62
-1.6738 -2.8621407 1.8944865 41
-1.5158745 -2.8885753 1.9024023 28
-1.1357238 -2.9076681 1.8789227 61
-0.97998261 -2.8787284 1.8777858 40
-0.83062565 -2.9062376 1.8816241 24
0.69754219 -2.9214165 1.8537533 62.5
0.82591408 -2.8502564 1.8423001 57
1.1165075 -2.9782488 1.8459293 50
1.2571646 -2.932168 1.8507988 60
1.9301052 -2.9845281 1.8627824 29
2.0862877 -2.9442773 1.85296 43
2.2250438 -2.8704762 1.8438708 56
2.5000346 -2.9228952 1.8347644 43
2.6227224 -2.8977647 1.8347307 45
2.8070683 -2.9800279 1.8354572 42
2.9210448 -2.9316964 1.8338175 44
3.0174582 -2.9212577 1.8451988 26
3.2083552 -2.9191952 1.82734 38
3.3940539 -2.9834263 1.8228878 36
3.5797462 -2.9583218 1.8205761 37
3.9695885 -2.9740193 1.8078347 36
4.4413223 -2.923939 1.8071104 30
4.896831 -2.9811671 1.8053864 26
4.9715681 -2.8530889 1.8008283 26
-4.0775642 -2.7377853 1.8438218 37
-3.7787745 -2.8106208 1.8638737 48
-3.5168419 -2.8031011 1.8439541 24.5
-3.2006605 -2.7096236 1.8411013 69
-3.0197465 -2.7620687 1.8220936 78
-2.8651776 -2.8206587 1.8836461 81
-2.7700377 -2.7052093 1.9353629 25
-2.6849718 -2.7528176 1.9119987 54
-2.4724662 -2.78023 1.9055375 59
-2.2742529 -2.808476 1.9097151 61
-1.9950777 -2.7669094 1.9042636 38.333332
-1.8503002 -2.8231323 1.8949229 51
-1.2440624 -2.7202294 1.8834141 60
-1.1865102 -2.7838979 1.8847244 57
0.59797436 -2.7106142 1.844649 4
0.95494354 -2.8085418 1.8482851 30
1.0539551 -2.7781281 1.8514115 29
1.4674149 -2.8340719 1.8571111 58
1.5871832 -2.7773581 1.8466586 50
1.7512385 -2.7741666 1.843423 48
1.9659219 -2.8096263 1.8520676 32
2.2423422 -2.7230017 1.8348438 48
2.3078723 -2.7557526 1.8393036 47
2.4797258 -2.751754 1.8328871 47.666668
2.6414285 -2.8174889 1.8408777 45
2.7433782 -2.7564416 1.8268607 44
3.0650206 -2.7627485 1.8281741 41.666668
3.2046361 -2.7567029 1.8315805 44
3.3963816 -2.7717743 1.8210584 37.666668
3.5790572 -2.8007777 1.8187572 39
3.801578 -2.8066497 1.8152734 34.5
4.0130739 -2.8443582 1.8182675 20
4.1682029 -2.7985997 1.8091561 20
4.245018 -2.8068554 1.8176926 30
4.7060623 -2.7965095 1.8163944 25
5.178412 -2.7510898 1.8071893 26
-3.6219501 -2.5598969 1.879312 69
-3.3759129 -2.6229844 1.8964726 71.666664
-3.1692214 -2.5883336 1.9079322 65
-2.9215388 -2.6539164 1.9044139 62
-2.8406482 -2.587357 1.9072336 54
-1.2804236 -2.600908 1.8797289 59
-1.1245494 -2.6441276 1.884179 50
-0.97222596 -2.6699741 1.8777493 30
0.69477504 -2.6827881 1.8469962 64
0.81307513 -2.6437006 1.848071 64
1.1447917 -2.5674453 1.8486568 35
1.2557224 -2.6364825 1.8435574 52.5
1.4224651 -2.6651292 1.8433632 52.5
1.6314839 -2.5649221 1.8324872 55
1.7166592 -2.5655334 1.835416 51
1.9032489 -2.6267982 1.8340186 51
2.0009887 -2.6482992 1.8393997 44
2.1728888 -2.6458673 1.8432527 38
2.4856205 -2.6186068 1.8402256 47
2.7464125 -2.6826985 1.8385574 46
2.9196115 -2.6249442 1.8339001 44
3.128731 -2.5541677 1.8239087 42
3.3756762 -2.5673649 1.8229249 38.5
3.6428232 -2.6322346 1.8133273 34
4.007885 -2.5686002 1.8080231 29
5.6944652 -2.6791179 1.802241 19
-3.8375635 -2.4775705 1.9037439 72
-3.6026978 -2.5498488 1.9241811 77
-3.3981457 -2.4976277 1.9166332 61
-3.1754229 -2.5315852 1.9183439 56
-2.9536905 -2.5006402 1.9054192 55
-1.2919446 -2.4849339 1.8835028 53
-1.1003674 -2.4529045 1.8798181 57
-0.96111739 -2.475045 1.8789815 66
0.58886009 -2.5204177 1.8503989 65
0.6597994 -2.4985921 1.8528322 67
0.95969218 -2.4751253 1.847614 51.5
1.1107888 -2.4666283 1.8445476 28.333334
1.2530667 -2.544961 1.8375343 59
1.444034 -2.4820158 1.8365906 54
1.5309057 -2.4920247 1.8445791 56
1.7411902 -2.4912732 1.8391417 52
1.8965995 -2.4662774 1.8410834 42
2.0081174 -2.4395692 1.8406627 49.5
2.1883988 -2.4763596 1.8398815 46.5
2.2946324 -2.479012 1.8367201 44
2.4057412 -2.4766426 1.8400851 46
2.6010897 -2.4801018 1.8328786 46
2.8272269 -2.4747741 1.825514 45.5
3.102092 -2.4110441 1.8211814 41
3.7660182 -2.5347219 1.8124591 31
4.0981007 -2.4937699 1.8012592 19
4.4402313 -2.494628 1.8050995 29
4.8389635 -2.4967844 1.8085638 24
-4.1719365 -2.3752213 1.8716042 75
-3.7873421 -2.2713876 1.9211375 60
-3.5525475 -2.3628688 1.9202303 55
-3.4220877 -2.2937312 1.9346108 41
-1.074296 -2.2735832 1.8763217 62
-0.73154855 -2.2621822 1.8744818 29
0.48963147 -2.3639154 1.8511854 3
0.70791173 -2.2816157 1.8481103 60
0.81778562 -2.3422782 1.8477819 59.799999
1.0006044 -2.3238912 1.836921 56
1.1046337 -2.2839065 1.8435305 30.5
1.2763487 -2.3547523 1.8387007 54.5
1.4407458 -2.2942822 1.8415188 51
1.534436 -2.2999384 1.8364434 55.25
1.7180513 -2.3150983 1.8356937 49.799999
1.8460754 -2.3378453 1.8328797 47
2.0118792 -2.3230498 1.8323461 46.333332
2.2142437 -2.338779 1.8368855 49
2.3098891 -2.3803675 1.8336238 43
2.4404922 -2.3432269 1.8310523 47.5
2.6538615 -2.384804 1.8337702 44
2.700491 -2.2932236 1.8216614 41
2.9208956 -2.3215461 1.8245106 41
3.15008 -2.3512402 1.8246537 44
3.3995531 -2.3534951 1.8175775 38
3.6820974 -2.3115196 1.8127981 34
3.993499 -2.3030035 1.8017944 30
-3.9790289 -2.1429627 1.9337721 62
-3.8270173 -2.1428735 1.9270719 24
-3.6728218 -2.2206151 1.928845 46.5
-1.2112564 -2.2384903 1.873577 62
-0.7875461 -2.1778839 1.8699185 24.333334
-0.73060834 -2.1511316 1.8756917 12
0.55797911 -2.1839132 1.8517216 62.666668
0.63056701 -2.1792643 1.8521832 68.666664
0.84785897 -2.2210069 1.8414418 58
0.92929554 -2.1864481 1.8448504 64
1.1098937 -2.146333 1.8437037 42.333332
1.2478114 -2.1609135 1.8434219 30.333334
1.4057026 -2.2084095 1.8371016 53.599998
1.6065066 -2.2381797 1.8317432 50.5
3.1883054 -2.2291088 1.8162812 43
3.4404902 -2.1767087 1.8148495 38
3.6829009 -2.1018577 1.8075212 33
3.9445822 -2.1969361 1.8099514 30
4.3304095 -2.2405457 1.8058666 19
-4.2656512 -2.0256543 1.8981264 74
-1.1739764 -2.0807106 1.8705188 64
-0.92865658 -1.9958797 1.865975 71
-0.86127591 -2.0117543 1.8709607 65.75
-0.69575775 -1.9813401 1.871158 5
0.39164338 -2.0475254 1.8501203 58.799999
0.51974463 -2.0427856 1.8496395 65.333336
0.68921947 -2.0076897 1.8437538 62.666668
0.8482691 -2.0326777 1.8420874 62.599998
0.96929878 -2.0397398 1.8434924 61.857143
1.0952806 -2.0605805 1.8397821 56.666668
3.9339793 -2.016525 1.804768 27
-3.8413181 -1.9226826 1.9191996 53
-0.97272635 -1.8352343 1.8767014 58.200001
-0.81602985 -1.8763456 1.8642284 64
-0.6713962 -1.850352 1.8655053 6
0.38014928 -1.8831373 1.8480387 71.333336
0.55258894 -1.8633072 1.8435713 69.800003
0.68155563 -1.8892366 1.8446224 64
0.78836495 -1.9065456 1.8439021 62.666668
-4.0109711 -1.7902108 1.9252589 61.5
-3.8445024 -1.7800274 1.9053105 62
-1.0787778 -1.7077839 1.8631066 64
-0.93905944 -1.7729083 1.8697885 64
-0.82832885 -1.6845524 1.8625385 72
-0.44689673 -1.7019172 1.8565294 1
0.27359775 -1.7003931 1.8440145 82.666664
0.37773347 -1.7355512 1.8465294 73.428574
0.50236815 -1.7323217 1.8471289 68.599998
0.67881566 -1.7889639 1.8433856 74
-3.8190751 -1.580857 1.9138616 62
-3.7181761 -1.5571952 1.9116346 54
-1.0604328 -1.6391207 1.8595594 76
-1.0051042 -1.5939037 1.8608738 73.75
-0.84791988 -1.5651021 1.8628598 76
-0.62535512 -1.5977683 1.8604363 33.5
-0.55315208 -1.5770466 1.8600663 67
0.2527914 -1.5585248 1.8472503 62
0.3909457 -1.5967376 1.8449714 81.25
-4.0348377 -1.4507982 1.9121921 74
-3.8800361 -1.4455074 1.8971802 68
-3.6675122 -1.3858569 1.9017009 57
-0.92583245 -1.428053 1.8619241 73
-0.67722577 -1.4318094 1.8610592 81.599998
-0.57470936 -1.4243393 1.8545585 34.666668
0.20611811 -1.4409556 1.8471216 82.666664
-3.6215541 -1.2247869 1.8373828 62.666668
-0.80490971 -1.2682748 1.8576351 84.75
-0.6721434 -1.2917439 1.8614364 83.5
-0.50476271 -1.2432436 1.8564543 46.666668
-0.37739921 -1.2642184 1.8514891 72
0.16256212 -1.3364649 1.8441628 105
-3.5505986 -1.1000906 1.9165988 44.5
-0.84471983 -1.1264186 1.8562891 86.5
-0.6952765 -1.1394807 1.8612267 84.5
-0.54014492 -1.1174251 1.8542471 75.599998
-0.39766759 -1.1140163 1.8436134 56.200001
-3.53826 -0.99179775 1.8509247 76
-0.79980832 -0.98986387 1.8684757 74
-0.66404468 -0.9825334 1.8540632 99.666664
-0.50429767 -0.9567551 1.8451887 70
-0.39406076 -0.96961063 1.837446 32.857143
-3.4694495 -0.84005517 1.8945996 3
-0.83192533 -0.83531314 1.8985523 110
-0.67929447 -0.8339259 1.8446045 71.625
-0.53792691 -0.81883407 1.8435041 70.5
-0.39404073 -0.81809467 1.839617 53.285713
-0.23350863 -0.82956892 1.8402128 17.333334
-0.94792914 -0.71399319 1.9470543 103
-0.79437464 -0.74178904 1.8877078 136
-0.65051544 -0.65394211 1.8369024 82.428574
-0.52898294 -0.69340128 1.8390092 74.111115
-0.37796345 -0.66914988 1.8356445 62.799999
-0.27885348 -0.70711946 1.835793 33.5
-1.1186913 -0.47708914 1.948223 89
-0.92104959 -0.52149749 1.9490153 92
-0.82344782 -0.51968259 1.9393647 87.199997
-0.66555774 -0.49519977 1.8478689 83.85714
-0.5269478 -0.52931285 1.8316495 80.666664
-0.35852003 -0.54088122 1.8323827 72
-1.0653327 -0.34482351 1.9471134 97
-0.93285131 -0.34248874 1.9375387 72.333336
-0.81007999 -0.36919364 1.9366411 80
-0.67370218 -0.36570081 1.8754749 83.25
-0.56004679 -0.37975627 1.8312429 79.199997
-0.41075981 -0.39648807 1.8332871 78.25
-1.4547651 -0.24600458 1.9490606 82.5
-1.2172341 -0.15127712 1.9481689 100
-1.1494111 -0.22487999 1.9459243 98
-0.9755789 -0.21641852 1.9371144 76.25
-0.81773984 -0.22681098 1.9359367 76.800003
-0.69027907 -0.22339001 1.9328691 78.714287
-0.52512914 -0.21439329 1.8277754 76.400002
-0.444134 -0.2750729 1.8281486 79.5
-1.5186939 -0.097931601 1.9475597 88
-1.4429266 -0.058366548 1.9463069 89
-1.2399886 -0.047529209 1.9486604 95
-1.1010613 -0.07449346 1.9404405 92
-0.98441422 -0.062573142 1.9365016 79.285713
-0.81990296 -0.08439064 1.9324237 78.333336
-0.6656844 -0.072208941 1.9260374 77.333336
-0.50602883 -0.078119405 1.8427502 79.199997
-1.9911734 0.052356645 1.9476409 83.333336
-1.9137518 0.13924757 1.9489108 72
-1.6952429 0.11229629 1.9487423 86
-1.5588411 0.07321132 1.948915 86.666664
-1.4265407 0.090610623 1.9457259 87.333336
-1.2498502 0.092777252 1.9431949 100.33334
-1.0998613 0.069031321 1.9414659 95
-0.96665561 0.086906359 1.9327425 75.800003
-0.82726067 0.071935095 1.929072 82.166664
-0.68066388 0.072781496 1.9256061 76.571426
-0.50427264 0.093305379 1.8635974 99
-2.1615937 0.28182718 1.9454145 73.5
-1.9838982 0.22427845 1.9440988 83.5
-1.8305809 0.23328854 1.9471382 78
-1.7024125 0.28413868 1.9445702 75
-1.5777996 0.23659372 1.9431294 88.25
-1.429194 0.2322218 1.9432467 87.666664
-1.2546371 0.23542118 1.9414796 99
-1.1150001 0.21546078 1.9382197 93
-0.97873712 0.24492829 1.9248737 77
-0.82334238 0.22129573 1.925786 81.285713
-0.69102055 0.2169885 1.9244149 76.818184
-0.50779527 0.24859081 1.9093484 67
-2.036819 0.39610702 1.9481069 75.5
-1.8665359 0.35499412 1.9460703 77.5
-1.5786545 0.39808199 1.939816 85.5
-1.4274219 0.37599286 1.941003 83.333336
-1.2539994 0.37969282 1.9421707 93.333336
-1.1250752 0.38057306 1.9377996 92.666664
-0.97554237 0.38303006 1.9250419 77.599998
-0.83458537 0.39139166 1.8725445 77.125
-0.68847311 0.38482594 1.8683478 61.222221
-0.53027487 0.36086863 1.8165385 82
-3.010983 0.49635914 1.8624257 40
-2.1731241 0.4832176 1.9447861 76.5
-2.044517 0.55638969 1.9419012 80
-1.8573046 0.5254038 1.9470948 84
-1.7052917 0.4592804 1.9434091 85
-1.5524739 0.52646101 1.9367405 83.75
-1.4181818 0.58211172 1.9410774 95
-1.2873124 0.5074777 1.9356822 86
-1.1166359 0.53418905 1.8474611 80.166664
-0.96416795 0.5126282 1.8192943 76.199997
-0.82586902 0.53984135 1.8184932 75.5
-0.68217969 0.52366328 1.8241334 64.444443
-0.51783019 0.51106668 1.8126745 73.5
-3.1696985 0.74484777 1.8559333 86
-3.0708766 0.68542218 1.8569914 79
-2.9437561 0.67123282 1.8616225 32
-2.5713382 0.61904132 1.9497133 82
-2.444097 0.63956773 1.9481539 84
-2.3302097 0.69515973 1.9481679 80
-2.1753182 0.6888442 1.9403181 83.5
-2.0416157 0.65603471 1.9403249 84
-1.8876966 0.66506541 1.9399608 89
-1.7443035 0.6810571 1.9387122 74.5
-1.5344937 0.67523903 1.871937 86
-1.4352064 0.64303726 1.8307825 86
-1.2875061 0.65424138 1.830283 95.333336
-1.1377538 0.69481784 1.8293524 86.333336
-0.98296529 0.69577885 1.8259994 82.333336
-0.81355011 0.66911912 1.8175991 45.875
-0.67301011 0.68203503 1.8180419 13
-0.54540551 0.68832904 1.8152089 12.25
-0.44621801 0.62503576 1.8158363 13
-3.2828593 0.80762511 1.8554353 93.5
-3.1096823 0.89706439 1.8643333 46
-2.6096003 0.84502381 1.9478216 77.666664
-2.4324033 0.85390347 1.945568 83
-2.3166487 0.89661956 1.9485217 96
-2.1202834 0.88008273 1.8322216 83
-2.0257709 0.80162203 1.9048752 62
-1.7495182 0.82925129 1.83485 86
-1.5677848 0.80375004 1.8365617 92
-1.4359792 0.77698255 1.8338215 85
-1.2578609 0.81991184 1.8355945 89.5
-1.1171676 0.83653849 1.8298597 95.333336
-1.0194738 0.8545078 1.8196243 47
-0.83329564 0.80615443 1.8135939 11.25
-0.69158918 0.77594459 1.8100747 12
-3.2017674 1.0095654 1.8501145 85
-3.0875857 0.9902848 1.8543829 79
-2.9052403 0.94218123 1.8966627 65.5
-2.6721287 1.0126777 1.9468967 99
-2.476193 1.0114714 1.8403802 79
-2.3189678 1.0222968 1.8372921 80
-2.2051048 1.0499821 1.8409001 76
-1.9958322 0.96013451 1.8360717 83.25
-1.8687831 0.94530708 1.8303188 86
-1.7250756 0.99943924 1.8329041 81
-1.5870752 0.92794716 1.8422098 66.5
-1.452096 0.94611239 1.8309381 90
-0.95668709 1.0274404 1.9040116 10
-0.68838006 0.94679123 1.8945521 12
-3.0946076 1.1611229 1.8500241 80
-2.9263768 1.162509 1.8483044 87
-2.7537017 1.160876 1.8442993 80.5
-2.6245584 1.094444 1.8434681 78
-2.113369 1.0958776 1.8330709 80
-1.9713259 1.1448898 1.8277487 79.5
-1.895864 1.1233464 1.8316776 82.5
-3.1224725 1.2558355 1.8478948 98
-2.5792613 1.2661121 1.8429637 68
-2.4806592 1.24702 1.8417269 79
-2.2991021 1.2398759 1.8365413 83
-2.1782365 1.2495303 1.8342546 84
-3.0819361 1.4362569 1.8392564 95
-2.9181247 1.4237574 1.8455449 93
-2.7509718 1.4177511 1.8441532 89
-2.6689725 1.372931 1.841863 78
-2.1487069 -2.7527273 1.9987159 39.5
-1.8505644 -2.710953 1.9965438 72
-1.6793231 -2.7372921 1.9937013 66
-2.6406119 -2.5736902 1.9913536 39
-2.4409916 -2.621639 2.000962 57
-2.2280347 -2.6057789 2.002413 72
-2.0630379 -2.6222873 1.9977809 61
-3.0781038 -2.4103968 1.9792731 35
-2.8780699 -2.4823413 2.0002522 48.5
-2.8058279 -2.5298407 2.0056546 34
-2.2641397 -2.4172869 1.9908487 60
-2.1596026 -2.5029368 1.9939541 57
-1.9495305 -2.4401784 1.9905514 68
-1.7809297 -2.4825263 1.9906245 70
-1.4350799 -2.5031469 1.9689289 63.5
-3.3335633 -2.3220165 2.0027554 51.5
-3.068274 -2.3179741 2.0070848 58
-2.728723 -2.2876444 2.0002778 63
-2.5199726 -2.3389003 1.9996682 71
-2.3145678 -2.3016484 1.9907132 61
-2.1373796 -2.3348589 1.9926805 62.5
-1.5314109 -2.3227928 1.9778999 62
-1.4383066 -2.3512721 1.9838213 60.5
-3.7469497 -2.1143296 2.0215046 69
-3.544003 -2.2284753 1.9874589 44
-3.1776319 -2.1247149 2.008939 53.5
-2.936029 -2.1705794 2.001087 58.5
-2.8335817 -2.2102528 2.0039983 55
-2.2976015 -2.1614177 1.9886196 62.5
-2.202383 -2.1761832 1.988363 66.5
-2.0418639 -2.1889315 1.9889859 71
-1.8732824 -2.2423139 1.9887537 72
-1.5555717 -2.1578882 1.9822029 64
-1.4274373 -2.1417637 1.9793179 66
-3.8445201 -1.9635276 2.0157895 46
-3.6503954 -2.0112953 2.0143094 61
-3.5465324 -2.0310826 2.0167308 63
-3.3864393 -2.0082767 2.0081551 52.5
-3.1911273 -1.9560931 2.0124967 52
-3.0511479 -2.0464272 2.0084124 44
-2.7911215 -1.9994563 1.9916641 66
-2.5870006 -2.0666552 1.9928735 61
-2.3955374 -2.019001 1.9854485 68
-2.1887538 -1.9857397 1.991043 61
-1.959717 -2.0177031 1.9902724 69
-1.6710441 -1.9856309 1.9763685 63
-1.5688069 -2.0761082 1.9758282 61.5
-1.3103088 -1.9894251 1.9769076 68
-3.5529795 -1.8828398 2.0103185 54
-3.2398276 -1.8250389 2.0110185 51
-3.0231502 -1.9217051 2.0083649 47
-2.96504 -1.8385748 2.0078912 48
-2.8499479 -1.907626 1.9959744 55
-2.6499138 -1.809366 1.9882346 62
-2.4019272 -1.8651034 1.9861466 64
-2.3061681 -1.8895876 1.9866397 57
-1.7072152 -1.8655542 1.9765989 74
-1.6035427 -1.8939629 1.9792209 69.25
-1.425543 -1.8668361 1.9746364 72
-3.7849119 -1.775071 2.0127037 63
-3.643697 -1.7499011 2.022001 62
-3.5248561 -1.7282734 2.0072782 63.5
-3.3887651 -1.6736391 2.0091779 58
-3.0860512 -1.7410581 2.004657 48
-2.851964 -1.7280425 1.986956 63
-2.4806864 -1.7618643 1.9954408 55
-2.3406527 -1.7057816 1.9977126 63.5
-2.2151349 -1.7451966 1.9872233 56
-2.0355227 -1.7988095 1.9878932 64
-1.7112485 -1.7100369 1.9755126 69.333336
-1.5796201 -1.7195544 1.9739144 68
-1.147844 -1.7209877 1.9626509 73
-3.7341692 -1.6275635 1.9988867 62
-3.5871825 -1.5711881 2.006355 63
-3.3031647 -1.5138407 1.9992646 64
-3.2360215 -1.5875411 1.9956914 64
-3.062474 -1.6229688 1.9879183 57
-2.9200878 -1.5865064 1.9904419 56
-2.7103519 -1.5639017 1.9853431 68
-2.4572129 -1.6052793 1.981949 54
-2.317349 -1.5752749 1.9872324 54
-2.1032817 -1.5846733 1.9831685 62
-1.8411489 -1.5423077 1.9713892 65
-1.7101628 -1.59588 1.9703289 64
-1.6158533 -1.5417483 1.9668576 72
-1.4740136 -1.622686 1.9687825 76
-1.2199086 -1.5761096 1.9646618 73.5
-1.1364622 -1.5325705 1.9691323 71
-3.65276 -1.4366266 2.0158541 69
-3.5140898 -1.4419476 1.9994401 66
-3.412168 -1.3835456 2.0027132 71
-3.1088762 -1.3959088 1.9868561 63
-2.8974018 -1.4172831 1.9879569 63.5
-2.4731479 -1.4142716 1.9837836 56
-2.2981524 -1.4896386 1.9833618 53.5
-2.1679332 -1.38019 1.9831437 64
-1.8396362 -1.4356124 1.9692768 68
-1.7333729 -1.438656 1.9703119 63.75
-1.5453376 -1.4475111 1.9664139 74
-1.2779367 -1.3907548 1.9610648 81.666664
-1.1416534 -1.3858328 1.9634142 76
-1.0254457 -1.3505125 1.9604975 75
-3.621228 -1.2715768 2.0021768 63
-3.3270626 -1.2449592 1.9939113 74
-3.254534 -1.3405813 1.9925603 69
-2.9799137 -1.2460294 1.9849402 66.5
-2.7712126 -1.3292553 1.9871284 70
-2.5948265 -1.2456551 1.9808189 55
-2.3285944 -1.2792168 1.9831113 61.333332
-1.8652527 -1.2682874 1.9694951 64.25
-1.7353649 -1.3013407 1.9743141 67.5
-1.6117463 -1.2780415 1.9660977 68
-1.3672819 -1.2277582 1.9602753 74
-1.2557508 -1.2536765 1.9614582 72.333336
-1.1274736 -1.2431169 1.9572865 76.5
-3.5630231 -1.156966 1.9966184 92
-3.444319 -1.108595 2.0042825 79
-3.2288232 -1.0671275 1.9878781 63.5
-3.1289041 -1.1671293 1.9854587 56
-2.8924699 -1.1103387 1.9840001 69
-2.8185558 -1.0943782 1.9803771 67
-2.5501263 -1.1140958 1.979143 58
-2.46612 -1.1651487 1.9785002 56
-2.3484726 -1.0751628 1.9794194 58
-2.2240884 -1.1785935 1.9777821 62
-1.9722886 -1.1203737 1.9659008 63
-1.8757709 -1.0603437 1.9640431 67
-1.7403325 -1.1268921 1.9666284 68.5
-1.4378433 -1.0760294 1.9565741 69
-1.2732906 -1.1202784 1.9612097 77.333336
-1.1780064 -1.1378856 1.9666655 77
-0.97195518 -1.0977197 1.9598296 87
-3.3719323 -0.9697988 1.9899952 75.5
-3.013351 -0.99165881 1.9817529 70
-2.6460238 -1.0015748 1.978717 57
-2.5086684 -0.93792176 1.9771324 56
-2.3343143 -1.0061258 1.9764625 62.5
-2.0288718 -0.9182747 1.9687899 67
-1.8607646 -0.98195714 1.9664418 70.666664
-1.745834 -0.94007516 1.9612564 75.5
-1.42594 -0.98779708 1.9569246 74
-1.2721897 -1.0010606 1.9607637 76.5
-1.0593795 -0.92730409 1.9558226 80
-0.95534796 -0.9903577 1.9588608 85.333336
-3.4682679 -0.83848631 1.999935 6
-3.3135235 -0.77168298 1.9833401 81
-3.2154367 -0.81789291 1.9830884 68
-3.0878334 -0.82976967 1.9792514 69
-2.8869977 -0.86698592 1.9808451 69
-2.6400738 -0.81902575 1.9776675 59.5
-2.4229078 -0.83317232 1.9768236 70.5
-2.3298366 -0.83188826 1.9753623 69
-1.9848974 -0.83273262 1.9653581 75
-1.900991 -0.85404116 1.9653176 69.666664
-1.784158 -0.77117068 1.9628123 75.5
-1.426468 -0.87412506 1.959308 76.666664
-1.3014126 -0.85283756 1.9581311 79.25
-1.0879412 -0.81474715 1.9573178 82.5
-0.95948601 -0.84857935 1.9564968 90
-0.85614556 -0.80165517 1.9584838 88
-3.3927219 -0.74967134 1.9835218 83
-3.1809959 -0.63686162 1.9853212 7
-3.0646093 -0.72658366 1.9791201 80
-2.9168239 -0.63647997 1.9802685 69.5
-2.5997434 -0.66918588 1.9764053 65.5
-2.5108318 -0.73309183 1.9745845 68
-2.3459432 -0.67240244 1.9734024 69
-2.0233839 -0.67458993 1.9599735 68
-1.8760781 -0.67020702 1.9582111 71.75
-1.5287168 -0.72240621 1.95933 73
-1.4121954 -0.71391582 1.9564152 78.5
-1.3059342 -0.70149744 1.9586875 74.5
-1.1179856 -0.65319014 1.9588925 91.333336
-1.0039874 -0.71812981 1.9566499 93
-0.8554225 -0.67402089 1.954427 99.5
-3.040606 -0.51617587 1.9771365 74
-2.1151543 -0.51437342 1.9647266 72
-1.9933715 -0.49574387 1.9627748 72
-1.8729702 -0.51681393 1.9586833 74
-1.5473245 -0.55242091 1.9552116 72.666664
-1.4282237 -0.56641334 1.9578677 72.666664
-1.3073003 -0.51685411 1.9565666 76.25
-1.1007845 -0.57223821 1.9535261 94
-0.98070717 -0.54823315 1.9531337 95.5
-0.76063401 -0.56948483 1.9534429 103
-2.9185038 -0.40056983 1.9792849 7
-2.0086682 -0.38071394 1.9560796 81.5
-1.8616092 -0.40052927 1.9606364 78.5
-1.5805086 -0.38840008 1.9545046 74.666664
-1.422104 -0.3897779 1.955682 81.199997
-1.2407721 -0.35034066 1.9535266 89
-1.1322318 -0.38254711 1.9523486 95.5
-0.98684031 -0.39105064 1.9524298 98
-2.0354846 -0.28014258 1.9606242 74.333336
-1.8783134 -0.24975385 1.9557387 82.333336
-1.6619436 -0.22851343 1.9591328 79
-1.556499 -0.23613228 1.9540033 85.666664
-1.3993261 -0.23320122 1.9559747 94.5
-1.2687106 -0.20618132 1.9529513 97
-1.0042284 -0.23586947 1.9522763 96
-2.5865541 -0.011254336 1.9660343 76
-2.4772327 -0.0018650785 1.9521128 68
-2.1677735 -0.11254409 1.950195 76
-2.0388541 -0.10362848 1.9531547 77.75
-1.8980083 -0.082065545 1.9621854 68.333336
-1.6789134 -0.058272418 1.9506053 85
-1.6010098 -0.061928947 1.9521185 83.5
-1.4058397 -0.09181878 1.9523796 85
-2.5894973 0.14509565 1.9858207 2
-2.4531314 0.018175969 1.9564315 56
-2.3634517 0.11151208 1.965063 41
-2.1481271 0.083763272 1.9510728 79
-2.0900333 0.14022887 1.9568533 79
-1.8436376 0.071319982 1.9627904 67
-1.6177487 0.090551309 1.9512709 81
-2.508733 0.21378972 1.9802585 61.5
-2.0531678 0.24823232 1.9507025 76
-2.7808414 0.43641138 1.9587007 72
-2.5917771 0.39859438 1.9640747 62.333332
-2.4509828 0.43035167 1.9510363 75
-2.3671508 0.30676872 1.9716843 51
-2.910126 0.50869316 1.962792 78
-2.6225362 0.55415535 1.9529297 75
-2.3426375 0.49884361 1.9515823 82
-2.910852 0.7439304 1.9665185 98
-2.7976646 0.67949426 1.9560803 71
-2.6624846 0.64708698 1.9540032 76
-2.6828752 0.76544201 1.9527076 72
-2.8647797 0.94864917 1.9594764 93
-2.7633514 0.91594481 1.9526261 71
