# .PCD v0.7 - Point Cloud Data file format
VERSION 0.7
FIELDS x y z intensity
SIZE 4 4 4 4
TYPE F F F F
COUNT 1 1 1 1
WIDTH 1629
HEIGHT 1
VIEWPOINT 0 0 0 1 0 0 0
POINTS 1629
DATA ascii
4.4160194 -4.288259 -0.15281856 101
4.5297413 -4.1974277 -0.18490623 82
0.8003549 -2.5216951 -0.16588719 64
0.90745014 -2.4430416 -0.18509725 73
3.0840554 -2.0863409 -0.16990422 91
2.2214098 -1.2428781 -0.15821165 59
2.2857821 -1.326848 -0.16643424 34
2.3090086 -1.1675432 -0.16284287 79
-0.55876559 -0.94448471 -0.17404075 6.8571429
2.4615064 -0.97926581 -0.17445394 45
-0.48254257 -0.86852443 -0.18790878 9
-0.40181839 -0.81399029 -0.17493501 9.4444447
-0.23335586 -0.83404475 -0.18709165 6
2.3898473 -0.87059599 -0.19716176 50
-0.60881191 -0.67717832 -0.17519464 9
-0.59785259 -0.67501843 -0.16877408 6
-0.32101318 -0.74968755 -0.15221946 4
1.7262249 -0.58534461 -0.17891914 47
1.5749931 -0.39252621 -0.15667179 46
1.3066145 -0.15901451 -0.15766445 1
1.5091927 -0.27845663 -0.18602374 49.5
1.1778531 -0.079897471 -0.18337987 0
1.1487535 0.093022682 -0.16989766 3.3333333
1.2250665 0.0099913161 -0.18277398 4
1.5366068 0.27983543 -0.16647182 69
1.0391941 0.37185344 -0.17936639 3
1.4726382 0.3666943 -0.16664957 66
1.1564661 0.46589091 -0.17787226 20
1.3807988 0.63945067 -0.17397867 15
1.5181873 0.74439347 -0.16328323 17
1.6687061 0.86552501 -0.17971925 14
-0.87123352 1.347978 -0.17703307 14
-0.77482724 1.4151148 -0.18620405 10.75
-0.72910154 1.4548545 -0.19038439 12.5
-0.051672298 1.4573126 -0.18043499 9.333333
0.11707328 1.4692018 -0.18512154 15.5
0.1673976 1.4863422 -0.15674916 46
-0.53794515 1.594174 -0.16203217 67.599998
-0.17610428 1.5790287 -0.19530399 17
-0.13087747 1.5354031 -0.18573488 8
0.44439697 1.5683694 -0.16994473 33.5
0.45829421 1.517538 -0.18790932 29
-0.38646132 1.713166 -0.17792663 69
-0.25774315 1.7535729 -0.19399044 38.5
2.9655039 2.2107894 -0.19213615 83
0.62680733 2.5161242 -0.15863234 63
0.95962149 2.7748318 -0.19931035 48
1.751879 3.4099431 -0.15831484 47
2.3936911 3.5485027 -0.18353827 66
4.8561783 3.942637 -0.15868013 39
3.7814028 -4.7927294 -0.044363473 48
4.4810233 -4.2367387 -0.058290903 90
4.5044942 -4.2114177 -0.10896657 97
0.94718724 -2.9062908 -0.039059971 74
0.88423538 -2.4563553 -0.11381378 45.5
0.93140644 -2.4151163 -0.12049247 79
0.98214072 -2.3815386 -0.12684508 79.5
2.5248177 -1.6287904 -0.065863676 35
2.8196907 -1.3733251 -0.007704352 42
2.2832224 -1.3262362 -0.10268316 11
-0.70922273 -1.058921 -0.076865561 5
-0.035898905 -1.0882398 -0.1005602 3.6666667
0.01698805 -1.1349368 -0.079414941 0
2.0980349 -1.0746571 -0.12723333 36
2.3462663 -1.0925813 -0.13016538 69
2.4474742 -1.0550066 -0.14934947 91
-0.64802259 -1.0101851 -0.083567001 6.1333332
-0.54487795 -0.9363085 -0.079611287 6.8571429
-0.16495417 -0.92451847 -0.07321047 5.5
-0.11447414 -0.98601967 -0.083732665 6.5555553
-0.75630152 -0.75031489 -0.0042265998 15
-0.72023052 -0.77876282 -0.057232998 11.2
-0.46998042 -0.86657441 -0.082070321 7.8000002
-0.38233227 -0.79449224 -0.088050231 9.1428576
-0.20201227 -0.87331116 -0.077915989 6.4285712
2.0550885 -0.8993668 -0.12918264 5
2.3821449 -0.85934269 -0.13901754 35
-0.78363889 -0.65977001 -0.041089918 10.666667
-0.63705403 -0.67130584 -0.087775022 9.73913
-0.33583227 -0.74446183 -0.032726452 3
1.836298 -0.74690586 -0.12824699 15
-0.79538512 -0.59917474 -0.036112223 11
-0.70615393 -0.46258682 -0.014887218 1
1.645209 -0.49210057 -0.12376139 44
1.6836247 -0.54973698 -0.11251009 11
-0.86666667 -0.3994028 -0.035213236 4
-0.69769555 -0.43599668 -0.037869442 1.3333334
1.3426852 -0.20795473 -0.018178677 3.5
1.391434 -0.20612276 -0.085282847 11.5
1.1613083 -0.078620769 -0.12018687 1.6666666
1.2589407 -0.047561757 -0.051827475 4.2222223
1.1555479 0.094693281 -0.075294442 2.0999999
1.2205337 0.032894365 -0.097606234 7.3333335
1.1027714 0.22423676 -0.11791674 13.555555
1.290949 0.25442955 -0.13696192 20.666666
1.3625261 0.1877598 -0.1387381 0
1.5911549 0.2147066 -0.1479893 9
1.029296 0.32974347 -0.12144842 1.3333334
1.0826583 0.40148929 -0.1280338 2.5
1.2287712 0.35097659 -0.13836354 22
1.4494581 0.38989705 -0.14611271 65
1.519111 0.30470967 -0.1487911 63
1.2025549 0.50566751 -0.14319083 20
1.366573 0.63463378 -0.13689867 18
1.6383437 0.66332072 -0.043166254 10
1.6722964 0.68808776 -0.053041194 155
1.901237 0.87317562 -0.021683013 44
-1.0995321 1.1591456 -0.027628746 10.75
-0.97180557 1.2627336 -0.060200833 10.3125
-0.87416208 1.3374708 -0.10145936 10.6
-0.028043259 1.3372903 -0.020894742 7
-0.80965 1.3905133 -0.11490433 11.857142
-0.69911575 1.4705098 -0.035177894 31.6
-0.069060594 1.4759438 -0.086075142 8.6000004
0.073158778 1.4522502 -0.069415085 19
0.19422081 1.4525887 -0.093942426 20.6
-0.65102303 1.5155911 -0.091517515 23.75
-0.54005134 1.5920634 -0.082797505 56.5
-0.20900974 1.6009514 -0.10581164 93.25
0.46271944 1.5046591 -0.098535456 11
-0.36572695 1.732476 -0.074102268 66.599998
-0.23443192 1.7248356 -0.048082389 83.75
3.1027005 1.7249445 -0.032401357 0
3.2222879 1.7007868 -0.119362 26
-0.27094033 1.817266 -0.10518277 13
3.0074182 1.8178068 -0.070467509 0
0.69438034 2.565479 -0.11708225 56
0.77602428 2.634526 -0.075087853 54
3.5870318 2.6506631 -0.0073378133 1
0.9618389 2.780777 -0.0070376145 48
1.2999529 3.0477793 -0.075890251 43
1.4201204 3.1377394 -0.11698128 42
1.4524088 3.1739714 -0.10203627 44
1.5867127 3.2735105 -0.12988722 45
2.3447475 3.4328666 -0.084056772 19
2.7166717 3.4655139 -0.086035855 21
2.239414 3.7771788 -0.026354169 35
4.9604673 3.8123677 -0.11516178 37
4.6318035 4.2316031 -0.016666537 37
4.5259576 4.3560638 -0.042385343 15
6.3379979 6.8086104 -0.066330709 87
7.1054316 6.8015342 -0.0098486589 94
4.3142166 -4.4710541 0.0096649183 0
0.95615482 -2.9402187 0.055738229 42.200001
1.1059659 -2.9625764 0.034407329 85
1.5368507 -2.7485871 0.059905108 0
3.8944328 -2.7633719 0.10843634 24
1.2331225 -2.3658168 0.10237574 0
3.7632682 -2.0609314 0.1075271 14
2.5023198 -1.6163356 0.062171273 4
2.8129597 -1.2090709 0.14097548 31
2.8508229 -1.2853435 0.043461408 150
-0.75418013 -1.0810796 0.10216414 6
-0.71885443 -1.0706031 0.078536108 5.4000001
2.8693562 -1.1453551 0.1335901 41
-1.1580874 -0.96170443 0.14911491 6
-0.63550377 -1.0050423 0.059740692 5.5
-0.54998893 -0.93725336 0.066202454 6
2.7302842 -0.92321813 0.049816009 0
2.8792689 -1.0477242 0.081803523 4
-0.82145381 -0.76619023 0.085010439 5.5
-0.72660488 -0.75923985 0.046559867 9.3999996
-0.47532663 -0.87796986 0.0702838 6.8000002
-0.40604028 -0.82243896 0.07843978 6
2.6157379 -0.76527399 0.096527152 0
-1.05827 -0.61496794 0.12647325 6
-0.95865208 -0.65624171 0.093277246 7.4666667
-0.80770385 -0.68377542 0.073643655 6.9411764
-0.64361942 -0.67597169 0.065511242 9.8461542
-0.56688929 -0.63598752 0.11859283 4.5
-0.31807482 -0.74381143 0.12605475 2.6666667
2.5953724 -0.73077673 0.086704187 0
-0.93066114 -0.50606447 0.075157784 6.1666665
-0.82640702 -0.50695223 0.099416547 5
-0.66279095 -0.50688618 0.083699614 3.1111112
2.4778047 -0.56846726 0.032612931 0
-0.95585328 -0.43403429 0.054831773 4.1999998
-0.82821345 -0.37645894 0.065039992 4.125
-0.72338909 -0.43989187 0.057891957 3.5
2.188345 -0.37766558 0.079973444 21
2.2919641 -0.40260312 0.074889861 3
-1.2112477 -0.15744337 0.14513963 0
-1.1724598 -0.25735316 0.12990719 0
-0.79244918 -0.18779749 0.13500196 0
1.3377459 -0.1632331 0.031602439 5
1.3633264 -0.21814859 0.086757697 3.4000001
-0.95529068 -0.04455632 0.12652417 1
-0.83729571 -0.034885589 0.070801027 2.6666667
1.1854979 -0.090822913 0.14719641 2
1.2644888 -0.081348687 0.072917968 4.8333335
-0.90137833 0.14653607 0.11000492 0
-0.82959479 0.032186706 0.062575191 5
1.1557099 0.065989166 0.06095143 5
1.755266 0.35441214 0.078177355 2.5714285
1.5978625 0.56145269 0.068250895 3
1.6652317 0.47604844 0.074923702 3
1.5892323 0.6112746 0.043603323 6
1.6583527 0.6986624 0.009036894 2
-1.3631737 0.95196992 0.13656628 15
-1.2982287 0.99811327 0.088216878 16
-1.2146572 1.0731645 0.094717845 9.1999998
-1.1239014 1.1438779 0.074591368 8.1333332
-1.0639669 1.2010566 0.075907491 1
-0.9797312 1.254977 0.074171051 10.3
-0.88607621 1.3284287 0.08766038 10.25
-0.807055 1.386763 0.054091286 16.4
-0.73136717 1.4500157 0.061948989 11
-0.17552091 1.4484074 0.05925053 6
-0.076399386 1.4745327 0.060928289 21.285715
0.071484737 1.4466069 0.080792926 18.5
0.22921605 1.4322346 0.082484618 16.857143
0.39012438 1.4707973 0.10514768 32.714287
-0.64131272 1.5218754 0.092386998 45
-0.5397045 1.6002463 0.082440898 66.285713
-0.19370727 1.5756091 0.089978836 5
-0.090846196 1.5454143 0.057321291 37
0.23507287 1.515174 0.11949786 41
0.3821623 1.5504144 0.065906435 44.666668
-0.46158442 1.6566864 0.085562274 64.75
-0.38152218 1.7184073 0.059343103 63.833332
-0.21884184 1.7419078 0.13371259 150
2.986541 1.7889496 0.094498269 15
3.1138172 1.7315446 0.074372716 10.5
3.1732657 1.6555189 0.050923791 9
-0.23564188 1.8355776 0.04919615 67.333336
3.0129371 1.8930331 0.055993028 22.5
3.6257126 2.4290674 0.066725515 10
0.69061518 2.5676255 0.053233828 52
0.78231436 2.6435714 0.03412668 54.5
0.88153428 2.7218375 0.023205215 52
1.6681474 3.3264914 0.064842485 40
2.4405699 3.4816585 0.079012245 23
2.8763866 3.5734851 0.13808632 35
2.8862896 3.6138973 0.045933988 39
2.3537083 3.8634174 0.084275298 30
4.8663921 3.9437408 0.02990162 28.5
4.737741 4.1041431 0.0090929521 38
4.6264024 4.2554049 0.14301872 29
4.4851956 4.3661389 0.14505935 1
3.6653335 -5.2261634 0.20531136 27
3.7375228 -4.912879 0.20654219 26
0.87805301 -3.0124264 0.15511853 4
0.92506593 -2.996299 0.15107822 34
3.8437562 -2.6827245 0.23641026 27.5
3.682668 -2.4850709 0.16769683 10
3.5350051 -2.277575 0.24304044 58
3.7183878 -2.1289814 0.1601854 63
3.7946665 -2.056628 0.1776163 68
3.9192579 -1.9839003 0.28758496 76
-1.3217679 -1.5379242 0.24356481 23
-1.2441752 -1.4767259 0.2665177 21.5
2.9013391 -1.3433526 0.2152046 0
-0.76392907 -1.1081861 0.2743032 5
-0.72346741 -1.0732278 0.2275939 5.5
2.9081767 -1.1715913 0.25418186 17.5
-0.64737958 -1.0094842 0.19935133 5.3333335
-0.54393381 -0.93020785 0.2369206 5.1428571
2.9871821 -1.0188259 0.20345548 20.5
-1.1134495 -0.75573057 0.16227847 4
-0.83330727 -0.75880301 0.20912492 5
-0.73033655 -0.77153468 0.18030083 7
-0.50328356 -0.86012 0.19909543 5
-0.38407716 -0.80351645 0.23230629 6.6428571
-0.80874985 -0.69119519 0.2080742 5.5714288
-0.67011106 -0.6685496 0.2203448 6.6923075
-0.59905618 -0.67378706 0.20096749 5
-0.32399255 -0.74393076 0.15143356 7.5
-1.3368495 -0.52513415 0.26021251 7.5
-0.93770695 -0.53329104 0.19339716 4.5
-0.84163076 -0.56096929 0.23323384 5.5999999
-0.71184057 -0.54187042 0.19875996 5.1666665
-0.56275541 -0.51486188 0.22505797 3.6666667
-1.2173085 -0.380481 0.20671791 0
-1.1812139 -0.3301948 0.22547522 0
-0.92359185 -0.39496911 0.24316087 1.5
-0.81123543 -0.39761436 0.20402153 3.5999999
-0.70789999 -0.41438642 0.25228003 1.6666666
-0.53728873 -0.42015842 0.17531401 3
-1.2091433 -0.17054696 0.22811441 0
-1.1736079 -0.23093319 0.22168885 0
-1.2329791 -0.13427731 0.2395829 0
-1.0657904 -0.077582628 0.2281301 0
-1.523801 0.82621002 0.26213032 9.25
-1.4541287 0.8788895 0.18952996 19
-1.3945874 0.93226892 0.23486432 8.875
-1.299497 0.99695569 0.22293524 9.272727
-1.2395155 1.0627105 0.18931422 3
-1.1252903 1.1413456 0.24144189 8.25
-1.0443364 1.1924566 0.17731196 22
-0.99469733 1.2477614 0.20600145 6.7777777
-0.87764311 1.3326552 0.18383861 10.5
-0.040392738 1.3362501 0.21622005 10
0.092290178 1.3294468 0.17345524 2
-0.80333334 1.3940579 0.26573169 41.166668
-0.71946228 1.4583836 0.22598283 45.857143
-0.060528081 1.4068303 0.24006595 7.75
0.065601133 1.4336956 0.23181356 24
0.18522006 1.4135903 0.18448015 18.833334
0.3575027 1.4236907 0.2315858 26
-0.64042842 1.5175488 0.21942446 71.800003
-0.54987437 1.5859255 0.19899641 68.333336
-0.19374344 1.5559117 0.18730161 75.599998
-0.10836688 1.5285835 0.17587245 49
0.43082845 1.511585 0.29252273 8
-0.46399251 1.6592854 0.1894412 66
-0.35646823 1.7469766 0.27603954 57.75
-0.29418051 1.7869716 0.29621834 65
3.145402 1.7575561 0.18162489 24
-0.23903139 1.832357 0.26015332 64
3.0258136 1.9223574 0.23093462 6
3.5657132 2.6771748 0.1604687 0
3.6193395 2.5553219 0.20863032 1
0.9742887 2.7814126 0.2378619 44
1.3403379 3.0634789 0.2124756 40
1.4330708 3.140929 0.29344136 42
1.7681472 3.4014649 0.15315986 40
2.5316694 3.4414949 0.29049736 20
1.8728247 3.487921 0.2509259 37
2.4646218 3.4678364 0.23473358 51
2.5990412 3.4689229 0.22971177 41
2.7781005 3.5105276 0.23284221 29
2.3066568 3.6487324 0.25748396 59
2.4678302 3.9579103 0.20411527 27
4.8710179 3.9461267 0.25844234 36
4.6506486 4.2122445 0.19882286 36
6.3553343 6.782321 0.18928373 84
2.1313558 -6.4397945 0.37581617 7
3.5634124 -5.2541318 0.44646096 5
5.1622458 -4.0194645 0.44678605 105
3.943114 -2.8012874 0.43586057 24
3.8468907 -2.6708531 0.37236005 24.5
3.6943953 -2.1465144 0.37967056 74
3.9935253 -1.9141583 0.42991406 65
-1.4019471 -1.613193 0.38541737 1.5
-1.2964934 -1.5235697 0.38821509 27
-1.2317328 -1.4743412 0.32479554 45
-0.71752423 -1.0682178 0.34209448 5
-0.65888852 -0.98264748 0.37572461 6.5555553
-0.56447434 -0.94434071 0.3406657 5.5
-0.8138895 -0.78666741 0.39383149 7.3333335
-0.50186592 -0.85598469 0.39632198 5
-0.36752427 -0.78584671 0.38047525 5.9166665
-1.0574335 -0.60250908 0.33771789 5
-0.99499345 -0.64774752 0.37930724 6.5
-0.78855848 -0.64221227 0.36675301 5.25
-0.66317505 -0.67373627 0.37251425 5.5
-0.54479504 -0.68746632 0.36609894 5.8000002
-1.3627846 -0.50451851 0.37889755 7.25
-1.3363204 -0.51207244 0.37294418 7.5
-1.0572069 -0.5987252 0.31888193 5
-0.93481642 -0.55589283 0.367596 4
-0.81146073 -0.56524724 0.35166407 4.3333335
-0.71078134 -0.52800763 0.34497285 3.5
-1.2834475 -0.4404017 0.42891997 1
-1.1706346 -0.33257115 0.36837709 0
-1.0348431 -0.42630842 0.44575226 0
-0.77625626 -0.41692543 0.36800829 4
-0.6341002 -0.40638113 0.36946756 5
-1.2074761 -0.16695198 0.34948948 0
-1.1579804 -0.23675223 0.36758879 0
-1.2486176 -0.11578361 0.33554417 0
-1.7641958 0.40197626 0.39058402 25.333334
-1.5305867 0.81566286 0.38765177 6.3333335
-1.4669209 0.86571044 0.3744714 12.125
-1.3887973 0.93901712 0.35756692 8
-1.2859371 1.0094142 0.40242186 7.5
-1.2199384 1.0760303 0.35104966 7
-1.1460475 1.1243132 0.35301197 8
-1.0475907 1.1927819 0.418648 10
-0.97877526 1.2594385 0.39230311 22.272728
-0.87528801 1.3340529 0.3539792 41.42857
-0.7923789 1.3985656 0.35088369 51.666668
-0.70747036 1.4622371 0.34104049 76
-0.094025485 1.451879 0.35552803 72.333336
0.079792053 1.4495742 0.38699585 41.25
0.22020254 1.4356979 0.40515479 52.200001
0.30476904 1.4799412 0.41785502 16
-0.52776879 1.6089586 0.40228835 61
-0.15919223 1.5160779 0.35896665 126
-0.083534792 1.5120171 0.43325371 58
0.28441811 1.5074986 0.4193244 60
0.36597753 1.5665922 0.3728466 50.333332
-0.46016097 1.6561804 0.38668451 61
-0.38186127 1.7157888 0.36706516 62.599998
-0.26175818 1.814961 0.38103661 43.666668
5.8601308 2.7459154 0.36740685 30
1.5389404 3.2229257 0.37274951 42
1.9995799 3.5894227 0.35016924 36
2.4710126 3.5352328 0.3307482 74
2.4099178 3.6228154 0.36080462 58
2.4121771 3.7936628 0.40938395 50
4.6523676 4.2168694 0.41017592 37
6.4171753 6.7734399 0.34513777 59
6.9813523 6.9907928 0.39820182 94
10.158684 -10.537327 0.52472711 1
2.0949278 -6.4571061 0.58291304 40
4.7390976 -4.3975825 0.53623682 3
5.225822 -3.9816568 0.57567567 107
5.3258977 -3.9076226 0.56760263 102
3.5611522 -2.3432291 0.49615818 30
3.5886772 -2.2256496 0.59893572 69
3.6839283 -2.1434829 0.58599454 71
3.8260276 -2.0306895 0.50410575 72.5
4.0862274 -1.8357134 0.57121241 62.5
-0.62066126 -0.93465 0.46049464 5
-0.62734509 -0.7826727 0.53405088 5
-0.55167311 -0.81463945 0.49431449 5.4000001
-0.38970646 -0.79147559 0.50695384 5.1111112
-0.95464361 -0.67443019 0.4708721 6
-0.81704819 -0.67611152 0.53133768 6.5
-0.66517639 -0.62379104 0.50310481 4.3333335
-0.51831841 -0.68272525 0.49379846 5.7777777
-0.38776201 -0.68203557 0.51104003 5
-1.2872446 -0.47236812 0.48501289 2.75
-0.93873531 -0.51113141 0.51307923 5
-0.82841265 -0.49249882 0.53700554 3.5999999
-0.68818927 -0.53407145 0.50910246 4.5
-0.56845284 -0.55862325 0.49618086 5.3333335
-1.3077223 -0.44500619 0.45291704 29
-0.97363037 -0.43086624 0.4996407 4.6666665
-0.86989248 -0.39396524 0.53434741 6.4000001
-0.71768856 -0.42821008 0.5627625 3
-1.1730037 -0.24151468 0.56178343 0
-2.0612426 0.25493696 0.5699836 45
-2.0098398 0.39068887 0.58625138 54.5
-1.9261343 0.37212637 0.50566703 88
-1.9703562 0.52797282 0.56781065 53
-1.8067573 0.48057801 0.46225059 150
-1.9629097 0.65506935 0.50927442 53.5
-1.5253698 0.81159878 0.54226857 8.3999996
-1.4409635 0.88439846 0.53257662 8.1999998
-1.3767788 0.93207467 0.51751482 8.8000002
-1.2858464 0.99716949 0.51975149 9.25
-1.2054279 1.0686858 0.56563532 7.5
-1.1251236 1.1389912 0.52986515 8.25
-0.98469877 1.2428372 0.49477768 22.4
-0.78812718 1.4052849 0.57796293 58.333332
-0.70866591 1.4598106 0.52559149 18.428572
0.10490166 1.4554179 0.51118237 87.5
0.25410646 1.4820104 0.51217866 48.666668
-0.64110535 1.5149112 0.50224769 18.799999
-0.56110018 1.5774788 0.49884641 32
-0.12205832 1.5853087 0.50802255 97
0.095789358 1.5058118 0.52871644 87
0.23040397 1.5381314 0.56438023 8
0.34864244 1.548159 0.51285565 26
-0.45590582 1.6575795 0.47187883 45
-0.4049508 1.7013041 0.49388698 57.5
-0.16872942 1.7509128 0.54213077 150
5.826231 2.7365813 0.48187476 36
1.3004194 3.0443244 0.52610224 36
1.4188094 3.1348829 0.51771754 38
1.5477633 3.2407079 0.50698733 39
1.6975443 3.3624194 0.51084358 38
5.2918892 3.4426844 0.52891624 3
1.8717306 3.4969339 0.51518834 34
2.0371575 3.6270137 0.5000416 31.5
5.0486188 3.7373126 0.58778882 30
2.2289448 3.7841191 0.50306231 29
4.9609981 3.8412845 0.56132269 36
2.4878635 3.985518 0.52352673 24
2.6172116 3.9830015 0.48627657 33
4.850615 3.9651365 0.48223037 36
6.093492 6.8533978 0.58260769 1
6.3602643 6.7966814 0.58770633 81
2.0243442 -6.5115728 0.6900481 63
2.1380594 -6.4385834 0.70857501 21
3.0672309 -5.6336279 0.70983803 81
3.5195203 -5.2752366 0.70878327 39
3.568625 -5.2295098 0.69077849 75
3.6600661 -5.1813402 0.66091484 55
4.4042621 -4.5762796 0.73942721 84
4.9211922 -4.1766415 0.74693 104
5.0115747 -4.1003289 0.72252035 101
5.2239156 -3.9718039 0.68273807 104
3.5749424 -2.3292866 0.69902325 25
3.6893296 -2.1381693 0.71316564 65
3.8726189 -1.9872763 0.6368283 58
3.9044659 -1.9628782 0.74109209 63
4.0847206 -1.8407507 0.71379566 63
-0.49952996 -0.80722594 0.67037463 6
-0.42551139 -0.82998961 0.66104048 5.3333335
-0.64506215 -0.6311692 0.73585743 5.5
-0.5490765 -0.67963707 0.70171046 4.375
-0.32395497 -0.74389476 0.65377712 4.6666665
-0.92679226 -0.51881862 0.72100806 5
-0.7787568 -0.5064134 0.63160783 3.6666667
-0.66197938 -0.51502132 0.67689371 1.25
-1.2033811 -0.42492622 0.62085211 3
-0.8214162 -0.43625259 0.70169288 5.25
-0.70350009 -0.36436239 0.74248856 5.3333335
-0.58048666 -0.32930785 0.73372781 4
-1.2112763 -0.24668786 0.63181102 8
-1.1267812 -0.22795483 0.69201553 10.428572
-1.9908369 0.41036329 0.66628432 46.400002
-1.9228799 0.43235987 0.71758193 44.5
-1.9820261 0.51324797 0.6539098 15.5
-1.9428682 0.46248564 0.70312077 29.666666
-1.5341191 0.81282043 0.64708287 6.5
-1.477415 0.84570771 0.6722036 9
-1.3651358 0.94187385 0.69827658 8.666667
-1.2814888 1.0120389 0.6790027 7.8333335
-1.2323188 1.0592846 0.6747033 8.333333
-1.1311113 1.1241026 0.63443798 8
-0.94905406 1.2812759 0.71182263 37
-0.8815617 1.3284057 0.68733943 57.25
-0.81143534 1.3849424 0.64365274 55.57143
-0.70036131 1.462791 0.64340538 58.5
0.2753638 1.3999819 0.64825207 5
-0.61536574 1.5318713 0.61593288 57
0.093229562 1.5665518 0.65179682 63.25
0.15007882 1.5731758 0.6775614 0
-0.3564364 1.734293 0.71467942 55.5
-0.29281002 1.7734683 0.74947464 62
-0.21887811 1.8446798 0.66333967 54.833332
5.9726171 2.5826173 0.63024986 30
6.0004516 2.5518003 0.71729326 31
5.8037505 2.7943964 0.64388442 30
5.7369962 2.8574879 0.67504215 18
5.6136866 3.0808976 0.73722851 12
5.1806154 3.5775321 0.71835101 28.5
5.0714784 3.7071319 0.64524305 37
4.8531733 3.9791913 0.70805323 30
4.7605233 4.1129761 0.71452308 29
4.6511526 4.2244473 0.62447333 36
5.6728644 6.472249 0.68733561 1
6.9646735 7.0319009 0.61335957 71
2.061245 -6.4946404 0.76756835 52
3.3504763 -5.4152384 0.88673759 58
3.4469287 -5.3492074 0.87092197 71
4.5804238 -4.4476128 0.81724846 88
4.7473049 -4.3142552 0.89371634 103
4.9194584 -4.1691995 0.83978558 111
5.2233157 -3.9850464 0.81373614 99.333336
3.798877 -2.6175423 0.80435586 23
3.5568473 -2.2949324 0.83316916 32.333332
3.7126133 -2.1134374 0.80343151 60
3.7908123 -2.0679216 0.86071587 65
3.9611957 -1.9383469 0.84958023 67
4.1487446 -1.7792977 0.79084444 44
-0.45809379 -0.84285682 0.85781729 26
-0.37964669 -0.78297931 0.81165648 9.6000004
-0.64189321 -0.64956212 0.82094592 6
-0.52168775 -0.66210532 0.8281734 5
-0.391112 -0.70163977 0.84782934 3.7777777
-0.96357715 -0.48260015 0.83936 6
-0.76346427 -0.49306083 0.7587949 6
-0.661066 -0.53094321 0.81861043 5.090909
-0.51079571 -0.51897198 0.8409555 4.0666666
-0.41808718 -0.53599632 0.82780266 4.1999998
-1.1415261 -0.33505768 0.81345505 3
-0.81755477 -0.38885924 0.81967115 6
-0.66886985 -0.39868051 0.77470934 5.1999998
-0.4930501 -0.41892087 0.80545044 4.1666665
-0.44155556 -0.42472222 0.77715373 0
-1.0895718 -0.21424413 0.79837811 4.5
-1.0297103 -0.24534728 0.85241294 0
-1.9044219 0.27922386 0.8317318 7
-2.0225699 0.34171247 0.78832579 15
-1.8991915 0.36808839 0.7806983 29.333334
-1.9741938 0.49875584 0.78609979 44
-1.4500637 0.88147563 0.82751167 8.1999998
-1.3875344 0.93597126 0.81228304 8
-1.3163528 0.97181672 0.77802175 8.5
-1.1100395 1.1566547 0.84691691 7.8333335
-1.0486556 1.1930785 0.81089902 8
-0.99418646 1.2412995 0.80881315 21.571428
-0.84347016 1.3494483 0.77908099 50
-0.69451541 1.461789 0.8935895 51
-0.60523427 1.5409445 0.84477377 56
-0.53597534 1.5908349 0.83467883 51.099998
-0.45977286 1.6562322 0.77677143 54
-0.3998704 1.6974374 0.80253881 55
-0.28246969 1.7955669 0.80738473 54
-0.20636576 1.8543724 0.81345791 51.333332
6.2118621 2.2860718 0.81402087 28
5.9764438 2.5840881 0.8713311 30.5
5.7825217 2.8365338 0.80005348 30
1.3613747 3.0948882 0.77878916 36
1.4638284 3.1698985 0.87283659 35
1.7696073 3.4219522 0.77317846 34
5.3442125 3.3699293 0.82411695 32.5
1.888777 3.5102508 0.88786745 29
2.314935 3.8554211 0.77872074 24
4.9710999 3.8464296 0.84844476 33.5
4.8621621 3.972192 0.77701962 37
4.6673689 4.2267985 0.83964527 29
3.0209033 4.3799863 0.78328753 1
4.5403881 4.3611698 0.87881112 10
7.0311136 6.9622355 0.76984954 70
9.5421858 -11.032943 0.97463369 1
9.8848944 -10.894868 0.9427458 1
1.9265385 -6.5732398 0.98420155 63
2.024873 -6.5115671 0.95814896 71.5
2.7818832 -5.85463 0.98954439 73
3.00964 -5.6754708 0.9363184 71
3.1921566 -5.5582619 0.92913926 29
3.3012383 -5.4416795 0.91448283 36
4.1304259 -4.788445 0.96241271 80
4.3106503 -4.6519046 1.0171068 69
4.6540399 -4.3805571 0.9726733 99.5
4.9091296 -4.1743054 0.95180297 98.333336
3.9692614 -2.8409412 0.97623634 15
3.5675921 -2.2437298 0.9550463 55
3.631434 -2.1966689 0.92397714 65.5
3.784807 -2.0752165 0.97607422 69
3.9650624 -1.9344497 0.9756707 62
4.0586286 -1.8727008 0.976722 65
4.1521578 -1.7688628 0.95763791 19
-0.54911739 -0.89050549 0.94821352 14.333333
-0.37938136 -0.77922153 0.94567227 23.5
-0.3360014 -0.72221786 0.92887241 6.6666665
-0.6185559 -0.46661544 0.97560477 7
-0.59722644 -0.46484664 0.95070899 1
-1.0570889 -0.13617134 0.90000844 0
-1.5040151 0.81311637 0.90560329 8
-1.4797633 0.85055053 0.93703032 7.5
-1.2864044 1.0041645 1.0071498 7
-1.2177118 1.0668297 0.97083616 7
-1.1378262 1.1300433 0.95782238 6.8571429
-0.99535573 1.2327857 0.90737104 7
-0.87098378 1.327082 1.023324 51
-0.78629357 1.3968951 1.0013508 50
-0.70290911 1.4609782 0.96600503 47.285713
-0.63943332 1.5115744 0.94805026 46.666668
-0.51759386 1.607124 0.95477176 49.666668
-0.4030278 1.6933799 0.92911506 47
0.12275173 2.128952 0.99579859 41
0.17044593 2.1490934 0.99830544 134
6.1495547 2.3580601 0.98175848 32
6.0894766 2.4446294 0.94741881 30
5.8727908 2.7190571 1.009557 30
1.0584317 2.8609071 1.0298398 31
1.2376568 2.9971912 0.96405256 35
5.7685614 2.8565106 0.94961172 30
5.5721903 3.1114082 0.9577319 30.5
1.5806286 3.2689731 0.98250675 34
5.3501863 3.3658435 1.0100927 30
5.1708527 3.5888801 0.95511937 36
2.0262287 3.6269052 1.0225487 25
5.101862 3.6798394 0.90282881 28
2.4550545 3.9603705 0.92066836 23
4.8985586 3.9527125 1.0090767 30
4.765563 4.1112981 0.99465913 33.5
4.6541715 4.2315249 0.92360795 37
9.6777048 -10.948696 1.1352279 1
9.7680454 -10.885639 1.0640941 1
2.9352894 -5.7279086 1.1497773 78.666664
3.0593057 -5.6316376 1.1405851 81
3.1860666 -5.5472207 1.0892855 82
4.4252434 -4.5579572 1.1308315 84
4.6407156 -4.3930249 1.0861156 90.5
4.6513624 -4.3785801 1.1553571 84
5.3984795 -3.8534114 1.1284261 82
4.015409 -2.8674359 1.1193012 18
3.9656219 -2.7971303 1.12448 20
6.9625907 -2.5579116 1.1975971 40
3.6388631 -2.4170353 1.0714421 23
3.7508619 -2.5321476 1.119579 17
7.2732315 -2.317368 1.1336884 52
3.5941792 -2.2124591 1.1337694 59
3.6469622 -2.1864402 1.1057065 66
3.8091757 -2.0522852 1.0828737 60.333332
7.6909127 -2.0091906 1.1036357 44.666668
3.973336 -1.9184552 1.0741414 61
4.0897584 -1.8401532 1.1451453 62
4.1645994 -1.7503164 1.1842123 16
-0.36702767 -0.76806587 1.1415267 9.333333
-0.32217517 -0.73760772 1.1394261 23
-2.7943022 -0.18412599 1.0894861 0
-1.3836693 0.92656618 1.1524158 6
-1.2824686 1.0135543 1.1175625 6
-1.1008976 1.1499242 1.1193423 5.5
-0.9326598 1.2849077 1.1453911 37.666668
-0.88030362 1.3264983 1.1507639 49
-0.81270826 1.3782459 1.0938914 42.400002
-0.70355225 1.45972 1.1016498 46.5
-0.6095373 1.5378056 1.0741669 48
-0.30604291 1.7753141 1.182215 41
-3.484158 1.8491626 1.1656672 132
-0.20403624 1.8620962 1.157902 38
-0.13545206 1.9314531 1.1485301 46
-0.069397442 1.9775749 1.1215116 45.333332
0.041759662 2.0619006 1.0844796 44.400002
0.11529452 2.1182404 1.0598581 43
0.21845777 2.1933928 1.1181319 44
6.1822147 2.3155196 1.1560259 31
0.52927303 2.4440634 1.1599016 33.5
6.1269774 2.4145858 1.1217183 31
5.9481258 2.6272297 1.1365094 31
0.98763669 2.7997546 1.1270781 30.5
1.1106811 2.8978677 1.1242831 35.5
1.2291048 2.9907386 1.1483744 35
5.6677141 2.9871886 1.0894595 30
5.7139153 2.9078577 1.1407143 20
1.3346967 3.0721149 1.1004138 34
1.4097439 3.1235914 1.1384674 32
5.5600748 3.1289959 1.0708404 31
1.4430994 3.1632445 1.1641276 32
1.5670304 3.258631 1.1811501 32
5.4489555 3.2379854 1.1788424 37
1.7124128 3.3746905 1.0916098 33
5.3625484 3.3731809 1.1502939 33
1.8241072 3.4696293 1.1987797 29
5.1478896 3.6198974 1.1399164 20
2.1856563 3.7546055 1.16023 24
4.9693041 3.8408904 1.0899612 36
2.6065195 4.0813069 1.0806352 18
4.6822705 4.2163754 1.1299295 30
4.5636673 4.3583326 1.1151037 14
3.4595473 4.7683539 1.1943567 15
7.0402403 6.9356594 1.0772744 88
2.4991412 -6.0867534 1.288695 72
2.7330515 -5.8867936 1.2048672 79
2.9227138 -5.746644 1.319445 89
3.8674986 -5.0043931 1.2042876 77
4.052309 -4.8570585 1.2331164 66
4.1463223 -4.7697258 1.3309134 82
4.2346878 -4.7127829 1.2636069 69
4.3823609 -4.5945954 1.276836 79.333336
5.0903935 -4.056016 1.3073704 95
3.9244621 -2.7263441 1.217981 20
6.8840942 -2.6569724 1.2343299 56
7.0174246 -2.558408 1.2948984 42
3.7540171 -2.531688 1.2888206 21
3.5931945 -2.3387845 1.2768382 16
7.3394504 -2.2886646 1.2234523 41
3.5713396 -2.2477229 1.3461479 58
3.6704741 -2.154824 1.2783661 59.666668
7.4293985 -2.2176275 1.2910279 44
3.8501723 -2.0165226 1.253176 58
4.0082688 -1.8964319 1.2193401 62
7.8133621 -1.9010941 1.2190331 29
-2.8135138 -1.5460272 1.2962029 72
-2.9064469 -1.4395397 1.2272017 1
-3.0510032 -1.2468305 1.3001611 17
-0.3339217 -0.75657564 1.3231153 21
-0.30573842 -0.73027557 1.2671647 15
-2.8261793 -0.2062535 1.215114 0
-1.4245731 0.86256921 1.2558112 3.5
-1.3780432 0.94323456 1.2171977 5
-1.3176614 0.97263038 1.223814 6
-1.0946605 1.0041629 1.3342631 2
-1.1182767 1.0830569 1.2315551 17
-1.0390681 1.1391827 1.2365941 7
-0.96972966 1.2428966 1.2456321 8.833333
-0.88395697 1.3232057 1.2167602 42
-0.80173111 1.3825231 1.2407905 42
-0.60234761 1.5400211 1.3317827 42
-0.48705518 1.6313771 1.3075653 38.666668
-3.719923 1.6661575 1.3126791 114
-0.37308377 1.7268943 1.2665309 35.75
-0.26752663 1.797768 1.2388943 32
-3.472017 1.8577625 1.3046073 138
-3.4283493 1.8924202 1.2735584 93.333336
-0.22135234 1.8518233 1.2513212 39.666668
-0.13412485 1.9189136 1.2809113 42
-0.01349223 2.0179713 1.279031 42
0.10167241 2.1092949 1.2405376 38.5
0.23140629 2.2136745 1.2391452 40
0.36624891 2.315727 1.204864 37
6.1980619 2.3068917 1.2777294 31
5.9763527 2.5829697 1.2812746 31
5.7769485 2.8421621 1.2556894 31
5.7592869 2.8803389 1.2628684 12
5.5753546 3.1212525 1.3290669 30.5
5.5288458 3.1789885 1.2504311 31
1.7065949 3.3646324 1.2044129 26
1.8531697 3.4807613 1.2204484 27
5.2561369 3.4920366 1.2882929 36
2.0013711 3.6021259 1.2373302 24
5.1694441 3.6232066 1.2731154 22
2.2071779 3.7617908 1.2898879 22
2.3147614 3.8569851 1.2517234 23
4.9755673 3.8563604 1.3149967 33.5
2.4279051 3.9288015 1.3326302 18
2.5846856 4.0691991 1.3302152 19
4.7804532 4.0968742 1.2426281 113
2.8044314 4.2416835 1.2547776 20
2.9935646 4.3973136 1.3460908 21
4.5567989 4.3856931 1.2001129 1
6.3022995 6.9233489 1.2639364 33
9.2294035 -11.330884 1.4170349 1
9.3616762 -11.147812 1.4877937 1
2.4628208 -6.1212001 1.4966966 74
2.6537542 -5.9527535 1.4041482 74
2.7621889 -5.8660121 1.4065067 79
2.8185291 -5.8080106 1.3854734 88
3.6023145 -5.2082434 1.4579041 83
3.7945969 -5.0540175 1.4615313 74
3.9870961 -4.9087396 1.4688933 75
4.1023159 -4.8177586 1.4370983 76
4.142242 -4.7832479 1.3917408 78
5.2840495 -3.9421313 1.4558765 85
3.7654278 -2.5526681 1.36774 21
3.7275021 -2.4835703 1.4242741 22
7.02384 -2.5156827 1.4086913 40
7.0503087 -2.4998841 1.3737832 51
3.620065 -2.3524375 1.487604 20
3.6737654 -2.1552575 1.4413772 62.666668
7.3931484 -2.236557 1.4132751 43
7.5920768 -2.1030107 1.4423476 45
3.8439891 -2.0164428 1.4436508 52.666668
4.0229096 -1.8838784 1.3989505 61
7.7701964 -1.9326833 1.3724371 44.5
4.1579466 -1.7410871 1.3525558 3
-2.7969117 -1.5625851 1.4380443 39.75
-2.8698246 -1.4810773 1.4026054 6
-3.1303334 0.28423029 1.4995213 11
-3.600559 0.47142053 1.4981892 85
-3.4896421 0.55685544 1.498542 77
-2.7081263 0.88345194 1.4965901 64
-3.4070208 1.0257399 1.4877474 80
-3.1937015 1.0105829 1.4903498 91
-2.895287 1.0483061 1.4911177 65
-2.4682052 1.0272838 1.491418 78
-2.310657 0.99804223 1.4961779 68
-3.3436775 1.0892788 1.4815964 88
-3.2085557 1.0842551 1.4891627 77
-3.0352559 1.0733629 1.4992468 59
-2.923908 1.1765168 1.4981811 65
-2.7523992 1.1632997 1.4978714 62
-2.633415 1.1162884 1.4855496 72.666664
-2.5374072 1.0577787 1.4856521 59
-3.4358339 1.3124985 1.4843925 82
-3.2317531 1.3232018 1.4917017 77
-3.0266752 1.2840652 1.4830837 74
-2.9198167 1.2934129 1.4815097 67
-2.6192601 1.3289403 1.4803237 75
-2.5117924 1.2650838 1.4780815 74.5
-3.6041706 1.4170783 1.4896075 81
-3.4573858 1.3765337 1.4823761 89
-3.3688204 1.3884633 1.4884543 81
-3.1811938 1.3632838 1.4870403 65
-2.9250636 1.4463003 1.4931434 67
-2.7549317 1.4191303 1.4987839 5
-2.6985729 1.366979 1.4759126 68
-0.7880047 1.3961083 1.4891394 39
-0.69530904 1.4669722 1.4046516 41
-3.4967444 1.6328342 1.4963057 88
-3.2569635 1.6043348 1.4798889 78.666664
-3.0495949 1.5535944 1.4762605 71
-2.9564707 1.5617923 1.4770385 70
-0.6541298 1.5045292 1.4727907 40
-0.55306375 1.587466 1.4115206 38.599998
6.7298508 1.6333439 1.4593978 22
-3.6687179 1.7003007 1.4335644 130.25
-3.4061732 1.6995118 1.4856734 64
-3.2058125 1.6572686 1.4804966 67
-0.4723269 1.6513017 1.4044869 30
-0.39991316 1.7088542 1.3904752 35.666668
-0.28890201 1.7965281 1.4724066 37
-3.420608 1.897378 1.4265901 140
-0.19974989 1.8676758 1.4139066 40
-0.10423452 1.9441346 1.3618222 41
6.5523787 1.8552299 1.4218946 23.5
6.3878069 2.0713556 1.4181252 23
6.296957 2.1809468 1.4477762 19
6.1880717 2.3332579 1.4534466 31
6.0949535 2.4451253 1.463989 31
0.71586305 2.6079826 1.4798001 31
5.985075 2.5832539 1.4998045 31
0.91333562 2.7568157 1.4535164 32
5.7838407 2.8308525 1.4024822 31
5.888896 2.7003846 1.4938675 31
1.154493 2.9440296 1.4481819 30
5.5724363 3.092875 1.4226166 34
1.4619993 3.196764 1.470346 29
5.3699608 3.3777907 1.4170672 30.5
5.2014227 3.5962741 1.4900428 30
5.0614114 3.7392409 1.4111339 36
4.9671974 3.8993804 1.4848846 31
4.7787619 4.0898199 1.4628018 111
2.8903866 4.3007841 1.420741 20
4.5937853 4.3493838 1.4131764 18
3.3881779 4.700376 1.4685513 16
3.6702888 4.9201722 1.4024289 17
4.6870685 5.7234344 1.3599607 1
7.0496025 6.9212742 1.3910445 86
9.0259056 -11.427679 1.5713086 1
2.2219007 -6.3459096 1.6189605 72
2.6610241 -5.9582953 1.5695761 78
3.8556154 -5.0097518 1.6222862 79.333336
3.906934 -4.9616165 1.5491751 85
4.1735744 -4.7652678 1.5039082 79
4.8188066 -4.2640953 1.5059237 91
4.9930692 -4.1273289 1.6232201 94
5.1640134 -3.9947481 1.5900102 91
4.9170904 -3.8083189 1.6481754 31
3.86501 -2.6535945 1.6419612 19
6.8502727 -2.6648655 1.6079557 27
3.6799593 -2.424988 1.5187593 22
6.753921 -2.4139898 1.620397 23
7.0516481 -2.5200627 1.5292292 41
3.556488 -2.2656848 1.5586576 22
3.6437306 -2.361407 1.6013252 17
7.2158403 -2.3987525 1.5190752 42
3.6731505 -2.157501 1.5332619 59
7.3448901 -2.2285635 1.6231095 23
4.0125813 -1.8835102 1.6263894 53
7.7506638 -1.9453773 1.5814784 26
-2.7180851 -1.6712298 1.5458181 71
7.504158 -1.7247677 1.6459349 43
-2.7713034 -1.6081122 1.64476 8
-2.8922977 -1.4542814 1.5536798 0
7.9016438 -1.4258001 1.6319436 30
-0.3309471 -0.76632857 1.5508147 20
-0.29095873 -0.75059032 1.5036423 8
-3.8638575 0.23918417 1.5154823 74
-3.6991098 0.25234842 1.5009224 75
-3.5411177 0.26010993 1.5079999 60
-3.3399839 0.2466619 1.5046393 70
-3.3440869 0.31975842 1.509179 10
-3.2622557 0.32980788 1.5062556 84
-3.0954502 0.35075781 1.5045414 72.333336
-2.9537168 0.3420186 1.5094147 19
-3.5977371 0.55011761 1.500308 75
-3.369112 0.53402686 1.504372 76.5
-3.2503936 0.5556767 1.5078112 76
-3.0078073 1.0020711 1.5007449 80
-2.9385109 0.92665458 1.5160782 65
-2.7507739 0.92348552 1.500414 25
-2.6103592 0.92772496 1.5073278 71
-2.4741054 0.93285376 1.5132917 44
-1.2665097 1.0370129 1.6466106 54
-2.459826 1.1379087 1.5054514 77
-1.2344791 1.054572 1.6231729 4
-1.1895374 1.0932771 1.6003617 27
-0.87946242 1.3234509 1.5847663 40
-0.75136787 1.4366021 1.5465609 41
-0.70083982 1.4783859 1.5921021 42
6.8867526 1.4319985 1.5670075 1
7.5570092 1.4596478 1.6394922 1
8.0524635 1.3954779 1.6428663 23
-0.62132323 1.5437466 1.5790606 34
-0.55297679 1.5958935 1.5418607 41
-3.5437126 1.70875 1.5027597 65
-0.45599094 1.662088 1.6090342 40
-0.37411991 1.7267637 1.5352331 37
6.6652365 1.7128664 1.5600324 22
-0.16589566 1.8871254 1.635543 37
-0.028530318 2.0030489 1.6153293 38
0.081643298 2.0819359 1.5711304 30
6.4534898 1.9852163 1.567785 23
0.11154418 2.1248844 1.6067094 27
0.22269328 2.2091866 1.5999693 31.200001
6.2376666 2.2436118 1.5870875 22
0.38183859 2.3335502 1.5814514 30.857143
0.55008471 2.4651628 1.5771835 30
0.60784161 2.516629 1.5357558 28
6.0485406 2.5003595 1.6273464 20
0.71058369 2.5971189 1.5849174 32
0.78220481 2.6343515 1.601424 35
1.0004717 2.8164966 1.6000675 33.333332
5.7967544 2.8291724 1.5630997 31
1.1107513 2.9098301 1.6051403 24
5.6926479 2.9542453 1.5389072 30
1.2731797 3.0414429 1.5463405 29
5.6105413 3.067416 1.6385235 19
1.5961783 3.2972808 1.5869253 23
5.5088053 3.2098694 1.6032612 30
5.4080935 3.3323987 1.595052 29
1.8341289 3.4875181 1.5034388 24
5.2046375 3.5923767 1.5738533 19
5.1560931 3.6397402 1.5287483 24.5
2.3240407 3.8731515 1.5708553 18
5.0203547 3.8173807 1.5964698 30
4.8715534 3.98192 1.5524343 43
4.746819 4.1190643 1.6465501 14
4.5937767 4.3255138 1.6300049 10.5
3.2449739 4.5720315 1.5129843 16
4.1861596 4.9333673 1.642357 0
3.8319027 5.0212827 1.6052561 16
5.2567062 5.8050065 1.6223096 17
4.9756522 5.9456921 1.6424967 1
5.1758523 6.0147009 1.6354595 3
5.8361669 6.2965569 1.6370133 24
6.1506276 6.4221854 1.6063662 18
6.8643322 6.6924825 1.6414472 28
6.3230863 6.8844175 1.5393381 80
2.3368444 -6.2075262 1.6856595 60
2.4264793 -6.152009 1.6749715 78
2.05194 -6.0256786 1.7017256 47
2.4883862 -6.087132 1.6803197 72
2.5615683 -6.0282035 1.6649841 91
2.2532034 -5.8572607 1.7274388 83
3.3226879 -5.3814216 1.7197214 38
3.5369446 -5.2418094 1.7014941 40
3.3755021 -4.971549 1.7385448 91.5
3.7399304 -5.0975385 1.6843745 43
3.4488862 -4.9164529 1.7150382 91
3.4864342 -4.8898077 1.7328818 81
3.9151046 -4.9269018 1.6841141 40
4.5256858 -4.4358387 1.7074481 19
4.4771738 -4.1003942 1.6999017 81
4.6427207 -3.961385 1.7870444 63
4.66852 -3.9712961 1.7235898 42.5
5.1877751 -3.9722512 1.7263535 50
4.9161491 -3.7402453 1.7508609 86.5
5.0286369 -3.6464312 1.7797984 60
3.7994888 -2.8584092 1.7980882 30
4.0141773 -2.8460941 1.655193 21
3.5630405 -2.5239527 1.7973629 34
6.1297917 -2.4656506 1.7672561 20
6.4355831 -2.4699638 1.7641691 35
3.5762739 -2.2853408 1.7942444 40
3.6085618 -2.3338048 1.6527056 16
6.3138089 -2.2509573 1.7644998 21
6.6405177 -2.3107009 1.7619728 36
6.7969861 -2.2517934 1.7205929 49
3.6911979 -2.1414433 1.7163025 64
5.330997 -2.1610422 1.7773446 21
3.8479741 -2.0139282 1.666772 53
5.6345062 -2.006495 1.7687873 24.666666
6.6862578 -2.0375893 1.747743 23
7.0288115 -2.075901 1.721682 40
7.1424766 -2.0001647 1.6776267 51
4.3464956 -1.8103968 1.6648835 23
5.9746609 -1.8472642 1.7605489 29
6.0301404 -1.8659776 1.7716681 29
7.0930061 -1.8045316 1.7460157 25
7.393167 -1.8019835 1.6809558 42
-2.6797426 -1.7070314 1.7170237 69
4.8741188 -1.7787148 1.7801138 23
5.8754907 -1.7659467 1.7644113 21
6.3502674 -1.6656817 1.7648891 22
-2.7996273 -1.5728064 1.754544 10
5.1177831 -1.6236622 1.7782103 24
6.1267834 -1.5451512 1.7579099 21
6.2871385 -1.6358181 1.7475961 23
7.4314394 -1.5254079 1.7327665 27
7.7971687 -1.5042251 1.6601135 44
-2.9252384 -1.4193487 1.7459069 5
5.3424091 -1.4483633 1.7734824 25
6.5839081 -1.3979359 1.7353734 23
6.6358147 -1.434707 1.7518028 21
5.5539207 -1.2565382 1.7694093 25
6.3497758 -1.303481 1.7509109 22
7.7397366 -1.2155933 1.7221574 23
6.8974481 -1.1785902 1.7376624 17
6.9066548 -1.1407775 1.7401377 22
5.7350464 -1.0449064 1.7615253 29
6.4457512 -1.0286183 1.7150146 15
-0.333597 -0.77307945 1.7789563 16
5.8865094 -0.81846356 1.750785 27
5.8769631 -0.56774604 1.6965221 4
-1.4635167 0.87403864 1.6669568 54
-1.3752383 0.94635534 1.6970724 54
-1.3086935 0.99924421 1.7577796 54
-0.68827397 0.94165844 1.7997676 64
6.2926183 1.0007372 1.7398142 19
6.8084559 1.0016173 1.7079483 22
-1.2130854 1.0753726 1.7171382 56
-1.1677115 1.0982683 1.6717416 52
-0.93952703 1.2903891 1.758792 49.333332
6.1541638 1.2505419 1.7218562 29
6.70644 1.2819682 1.7138087 21
7.5803623 1.2083634 1.7130252 13
-0.79993033 1.4022292 1.7168317 44.833332
-0.69337803 1.4836946 1.7130855 38.5
-0.39658093 1.4846209 1.7999486 72
5.9793811 1.4867599 1.702443 18
-0.61472487 1.5413364 1.785163 45
-0.53550977 1.5985749 1.6884047 38
-0.32441345 1.5735996 1.7989783 70
6.5094395 1.5379199 1.6998426 21
-0.3530879 1.7082651 1.7829208 66.599998
-0.23145121 1.7260231 1.7654316 69.75
-0.081794113 1.7423366 1.797493 74.666664
0.055300299 1.7375466 1.7939701 68.666664
5.8055463 1.7161947 1.6934251 22
6.2919998 1.7761588 1.6904279 11
-0.21090646 1.8294489 1.773456 65
-0.09642259 1.8855828 1.76249 60.42857
0.06987191 1.8772701 1.7918338 69.666664
0.20673546 1.9129856 1.7920475 67
-0.047277045 1.9915015 1.7461735 49.666668
0.032101829 2.0496986 1.7326401 46.75
0.22303499 2.0225143 1.7874461 66.428574
0.35370088 2.0546274 1.785822 62.666668
5.7030945 1.9608983 1.719889 29
6.1139193 2.0164077 1.7031404 22
0.11623134 2.1218297 1.6627684 32.666668
0.24665956 2.2044377 1.739364 50.25
0.38653004 2.1442957 1.7814883 64.166664
0.5085783 2.2082918 1.7800053 63.75
5.4923863 2.1641042 1.7190927 29
5.8865247 2.2285583 1.7085823 30
0.42418683 2.3494866 1.7504276 55
0.54746664 2.2739811 1.7788953 65
0.66217154 2.3439345 1.7746129 59.666668
0.75746387 2.3969185 1.7793835 52
5.2642088 2.3507226 1.7219201 28
0.57636905 2.4777508 1.7385923 43
0.74889797 2.4156978 1.7731017 54
0.83210421 2.4646437 1.7694387 57.333332
0.96015471 2.5284128 1.7648137 54
5.0078568 2.5122523 1.722526 27
5.6080871 2.4075217 1.7057174 29
0.73761755 2.6072998 1.7547573 40
0.76437384 2.6230221 1.6804892 31
0.99267852 2.5919766 1.7614182 58.5
1.1203204 2.6209795 1.760313 52.833332
1.2351753 2.6841104 1.75679 51.5
4.7324219 2.6500518 1.722129 32
5.3202128 2.5651329 1.7039996 28
0.96121222 2.7793396 1.7169369 38.666668
1.2849212 2.7454982 1.7517295 45.25
1.428853 2.7760315 1.758248 40
1.5913402 2.8212454 1.7577608 44.5
4.4470968 2.7661588 1.7234002 33
4.7338223 2.8232024 1.7126552 26
5.0402141 2.7102544 1.7120739 27
5.8239455 2.732806 1.6688746 19
1.1391325 2.9236622 1.7530996 46
1.2130444 2.9861059 1.7137161 37
1.4613457 2.9501264 1.7490205 53
1.5019095 2.8884447 1.7411069 42
1.7394627 2.9466858 1.7493876 41.333332
1.8458165 2.8896618 1.7562677 48.333332
2.079689 2.9624963 1.747823 47.5
2.1363595 2.9361718 1.7541462 46
2.3718643 2.9800563 1.7414573 43.5
2.6777186 2.9997022 1.743183 44
3.5533192 2.975086 1.7312545 26
3.8642085 2.9356825 1.7333282 34
4.1405869 2.9253674 1.7254125 33
4.4246507 2.9140322 1.7158884 32
5.5193553 2.9130039 1.6951045 29
1.3119192 3.058131 1.7439334 42.5
1.4213554 3.0936189 1.7001369 26.25
1.7439466 3.0611596 1.7377355 41.5
2.0173604 3.0809145 1.7390325 47.75
2.3345678 3.109647 1.7404127 45.333332
2.6349063 3.074841 1.7392678 43
2.9350295 3.0342612 1.7373178 41.5
3.2238741 3.0307374 1.7304229 36.5
3.4919641 3.0512278 1.7232319 38
3.8168299 3.0382237 1.728916 34
4.7712717 3.1265659 1.7110225 33
5.15588 3.0407269 1.7055131 28
1.5921849 3.2263243 1.7402029 17
1.7279239 3.2691469 1.7385749 50
2.031723 3.2646282 1.7307163 40
2.3130207 3.2591901 1.7325728 44
2.6418328 3.2257023 1.7328985 41
2.9700029 3.2141781 1.7294116 35.5
3.2920194 3.1974652 1.7265431 33
3.6425745 3.2134488 1.7221857 31
4.012311 3.2131631 1.719201 32
4.3873525 3.1830246 1.7140049 33
5.2906218 3.222656 1.679197 21
1.763068 3.3762126 1.7281562 50.5
1.898788 3.3563988 1.7449565 51.333332
2.032136 3.4189036 1.7346073 51
2.1865883 3.4288821 1.7402639 45.5
2.3769546 3.4305522 1.7256294 42
2.6073346 3.3832693 1.7287074 45
2.7002463 3.3840888 1.7184228 38
2.9711533 3.3345938 1.722082 39
3.3373671 3.3616705 1.7172669 32
3.690279 3.3410556 1.7113861 31
4.0694599 3.3488982 1.7023634 23
4.4860487 3.3484075 1.7028612 34
4.9019575 3.3107479 1.6971513 28
5.2808032 3.4358926 1.6662463 1
2.0714777 3.5233526 1.7282935 48
2.3424234 3.5771027 1.7277673 41.666668
2.4683638 3.5383232 1.7350034 26
2.5774622 3.5221233 1.7357227 37
2.75666 3.5884464 1.7142235 39
2.9536009 3.5451522 1.7200676 34.5
3.073132 3.4887226 1.7090839 33
3.4872091 3.5890684 1.7042328 32
3.7584741 3.4757476 1.7092267 32
4.2038088 3.52528 1.7054137 24
4.6576848 3.5349622 1.6929401 34
4.9376397 3.5748966 1.699133 29
5.1215281 3.5072246 1.6765691 18
2.0091882 3.628783 1.6605858 23
2.4125168 3.7382555 1.7197977 37
2.7569644 3.666352 1.7192965 34.333332
3.2140753 3.7264717 1.7180136 30
3.3606586 3.6399207 1.7163479 30.5
3.7045476 3.668725 1.7201215 16
3.9281108 3.6653442 1.6938111 31
4.1023469 3.6625984 1.7095629 25
4.4135766 3.7294493 1.6872464 26
4.5153403 3.6330698 1.7032191 26
4.9011016 3.7453356 1.6672314 18
2.6424725 3.7624023 1.71652 33
2.7971647 3.8924568 1.7135621 28
3.1092243 3.7974768 1.7109919 30.5
3.193964 3.7547419 1.7092041 34
3.4767289 3.8531992 1.7127615 22
3.6426446 3.8116224 1.7162572 17
3.8811939 3.7553475 1.698295 24
4.0813117 3.8589542 1.7047061 25
4.4047585 3.8597469 1.6905552 27
4.5468793 3.8832314 1.6933964 27
4.9079366 3.88885 1.6537827 10
4.9817071 3.8414547 1.660817 1
2.450285 3.9206555 1.70249 43
3.0662911 3.9383168 1.7071666 32
3.2089388 4.0278821 1.7024397 31
3.5778899 3.9481575 1.6966318 14
3.6747038 3.9055915 1.696987 22
3.8772256 3.9088311 1.701321 25
4.2629652 4.0019093 1.6904216 27
4.7763762 3.9865005 1.6903762 29
2.8909833 4.1343184 1.6985289 31
3.531657 4.1035957 1.6917225 31
3.6600115 4.1556354 1.689036 31
4.0673499 4.0573473 1.686896 32
4.6060567 4.1543083 1.6792659 28
3.3703601 4.3275189 1.6835223 22
4.1249008 4.2860284 1.6845576 27
2.9716489 4.3744035 1.6742207 32
3.9254081 4.5367799 1.673544 27
3.553194 4.6712289 1.6698982 27
4.5612411 4.7515202 1.6668681 8
4.1954861 5.2084661 1.6769618 2
4.846014 5.3679209 1.6558589 21
4.647902 5.4314675 1.6567971 20
5.233829 5.5170264 1.7309982 26
5.8569746 5.7840266 1.7355279 16
5.6734958 5.9255576 1.7299732 23
6.481194 6.4104691 1.6933223 28
1.7960024 -6.214612 1.8407339 78
1.8338549 -6.1280704 1.8527063 43
1.9513104 -6.0386333 1.8533722 50
2.0306273 -5.9750276 1.8423227 48
2.1518719 -5.9048262 1.8367692 85
1.6401196 -5.8465743 1.8727518 13
1.2768936 -5.5976267 1.8645275 26.5
1.8223934 -5.6304584 1.8367299 27
1.4419221 -5.4754305 1.8492563 31.5
1.5426365 -5.4701266 1.8626338 32
1.6510487 -5.457922 1.8736326 27
0.83307797 -5.1177573 1.863135 38
1.1394596 -5.2362304 1.8556269 33
1.3516476 -5.1700869 1.8372694 36
2.8358362 -5.2047973 1.8537647 28
3.1072032 -5.1662326 1.8488294 54
0.81818551 -5.0125318 1.8632599 41
1.0056002 -5.0232229 1.8580246 38
1.0989934 -5.0154862 1.8666157 39
1.2009757 -4.9758158 1.8670992 39
3.3086782 -5.0293608 1.8068022 103
2.9393063 -4.8959002 1.83849 30.5
3.1015379 -4.900239 1.8433603 30.5
0.44743884 -4.6935649 1.8668443 49
0.74480408 -4.762557 1.860715 32
0.95550853 -4.7655282 1.8395282 44
2.2474353 -4.7501802 1.8519644 29
2.5217597 -4.7705116 1.8495406 32
2.7767398 -4.7506361 1.8331586 33
3.0150766 -4.6941223 1.8273338 34
0.52321428 -4.5820656 1.8625938 48
0.6983006 -4.5818815 1.8566955 36
0.82673329 -4.562283 1.8640202 52
2.3710983 -4.6249003 1.8404335 33
2.4923673 -4.5814543 1.8449024 34
2.6070557 -4.5963683 1.8497294 35
0.61759514 -4.4102077 1.8477894 52
1.7772424 -4.3806877 1.8630635 19
1.9158669 -4.3712606 1.8508848 19
2.0279925 -4.410954 1.847546 36
2.2925858 -4.4536734 1.8402385 38
2.5345545 -4.4391069 1.8311609 36
4.0496001 -4.3989768 1.8224372 44
0.26441187 -4.2742682 1.8677331 3
0.40775248 -4.2876015 1.8617139 55
0.51345438 -4.2148585 1.8691741 55
2.0286365 -4.2895336 1.8402513 45
2.1410043 -4.2834897 1.846032 46
0.1636817 -4.1023726 1.8623637 2
0.34410104 -4.1306543 1.8476355 56
1.5750278 -4.0953851 1.8538494 19.666666
1.8646142 -4.1630955 1.8365797 45
2.1093934 -4.1953959 1.8320698 50
3.4272511 -4.1455932 1.8306168 24
4.105145 -4.1489358 1.8238376 26
4.4059062 -4.1316633 1.8372048 52
0.13855825 -3.9769626 1.8662089 2
1.3634242 -4.0077424 1.8510834 48
1.5051383 -3.9180059 1.8490669 22
1.7214226 -4.0002441 1.8428158 49.666668
2.8942904 -3.9014182 1.8357283 40
3.5401409 -3.96469 1.829904 32
3.8437388 -3.9732659 1.8511552 23
4.2052894 -3.9324181 1.832399 31
0.10441874 -3.8771644 1.8629888 1
0.24257226 -3.8887498 1.8670067 56
1.1407318 -3.8496892 1.8472339 53
1.2789778 -3.799299 1.849208 36
1.4108388 -3.7652609 1.849337 21
3.0324721 -3.7667961 1.8264111 31
3.3260789 -3.7908437 1.8497864 32
3.658715 -3.7911825 1.8312808 31
4.0953274 -3.84866 1.8202987 31.5
4.4691324 -3.7691371 1.8241996 27
4.5964932 -3.8860791 1.8227326 28
0.82508606 -3.6190925 1.8527459 57
1.0299965 -3.7068968 1.8580688 54
1.1799349 -3.66522 1.8451649 22
2.4377182 -3.6755989 1.8420449 70
2.8703525 -3.6090739 1.8464388 41
3.1412647 -3.6256707 1.8419522 35
3.196847 -3.6586189 1.8343457 32.5
3.5517688 -3.7045026 1.8377703 29.5
3.9886215 -3.7449579 1.836949 25
4.0949697 -3.6001785 1.809893 25
4.561677 -3.6436987 1.8022162 27
0.97183877 -3.5530398 1.8467654 50.666668
1.1136553 -3.5442834 1.8495184 25.5
2.6397934 -3.5486035 1.8382907 56
2.7609165 -3.5143244 1.8367957 39
3.0805185 -3.5992215 1.8394533 36
3.2542667 -3.4601657 1.8161463 35
3.6561666 -3.5338073 1.8119096 31
4.3805556 -3.4860492 1.8094944 26
4.984704 -3.573859 1.800203 30
0.54115516 -3.3904335 1.8518251 56
0.69736248 -3.362854 1.8543333 53.666668
0.83783281 -3.3528481 1.8440838 53.75
2.0336537 -3.4471469 1.8395408 52
2.2209072 -3.4207716 1.8396496 51
2.3634336 -3.3993378 1.8483106 20.666666
2.45841 -3.4320018 1.8558933 38.5
2.8837867 -3.3766234 1.8203858 40
3.836828 -3.3781753 1.8136338 31
0.28913057 -3.165282 1.8484064 57
0.49396735 -3.1645751 1.8578233 56
0.62961173 -3.1908684 1.8451596 60.5
1.6716056 -3.2051601 1.8472799 52.5
1.8780072 -3.2462153 1.841534 51
2.0339351 -3.2631776 1.8464372 52
2.1834157 -3.2419453 1.8425426 51.5
2.5474937 -3.2918017 1.8273357 47
3.3580093 -3.2629473 1.8209387 38
3.9950912 -3.2136085 1.818477 32
4.3037376 -3.171567 1.8096222 31
4.502059 -3.2838612 1.815581 26
0.42041895 -3.0812416 1.8476787 57
0.49269894 -3.0958381 1.8474494 60
0.61387885 -3.0998693 1.8469452 59
1.396706 -3.0324824 1.8516356 52.666668
1.5721697 -3.0744658 1.8399545 47
1.7490988 -3.1166661 1.8456494 48.333332
1.8817238 -3.1117826 1.8442862 53.5
2.5507543 -3.0132542 1.8296598 45
2.9323044 -3.1418736 1.8259691 45
3.1471395 -3.0494652 1.8324479 37
3.4162884 -3.061759 1.8195039 32
3.5509167 -3.1368177 1.8262898 34
3.8524196 -3.065392 1.8127646 34
4.1608996 -3.013972 1.8135089 30
0.066241249 -2.9528162 1.8469976 2
0.24481662 -2.9117277 1.8538656 62.333332
0.37316456 -2.9377782 1.845675 66.333336
1.1323733 -2.8755109 1.8476933 57
1.3043827 -2.9133866 1.8417045 50
1.4673177 -2.9366772 1.8401433 53.333332
1.5469991 -2.9780114 1.8553549 56
1.6668417 -2.9812677 1.8315958 52
2.2107749 -2.8821919 1.8314942 50
2.4521713 -2.8503881 1.8409473 47
2.6831639 -2.9064469 1.830644 44
2.7849658 -2.9544644 1.8386909 45
3.0429814 -2.9272869 1.834875 23
3.4070251 -2.9071763 1.8122481 34.666668
3.740082 -2.985393 1.8168117 30
0.11135012 -2.7288327 1.8557372 63.5
0.22112621 -2.7885182 1.8510629 66
0.85418159 -2.7644041 1.8466645 60
0.94275743 -2.7345021 1.8519241 59
1.127076 -2.7573047 1.8379034 58.5
1.2600818 -2.8283398 1.8453692 55.666668
1.9113688 -2.7520018 1.8359734 50
2.0677025 -2.7144303 1.8325855 46
2.1560187 -2.7468374 1.8445076 50
2.3475666 -2.7576768 1.8342465 48
2.5141349 -2.7161016 1.8244694 43.5
2.6561458 -2.7860537 1.8293685 43.333332
2.8094397 -2.7531147 1.8228197 41
2.9000597 -2.7949028 1.8256527 39
3.1178432 -2.773725 1.8191078 34
3.1964808 -2.765317 1.8199406 37.5
3.4270933 -2.7013004 1.81437 35
3.5323753 -2.7792282 1.8098279 32.5
3.8853762 -2.7500966 1.8023015 32
3.9147465 -2.8185251 1.8076566 32
0.057601847 -2.6266775 1.8538082 63
0.68102443 -2.6139731 1.8497467 62
0.84255463 -2.6010563 1.8429923 58
1.0024776 -2.6746838 1.8363677 58
1.0759778 -2.6829095 1.8496636 63
1.6396403 -2.6205873 1.8367351 48
1.7503724 -2.5791004 1.8428528 39
1.8594544 -2.609868 1.8414053 48.5
2.0370708 -2.6251304 1.8325046 46.799999
2.1649604 -2.6109595 1.82594 47.5
2.3331745 -2.6502659 1.8288631 48
2.5378573 -2.604583 1.8224338 48
2.606823 -2.6150947 1.8194596 43
2.8417151 -2.6623969 1.8202685 47
2.8732302 -2.6287439 1.8151282 44
3.1545451 -2.6338117 1.8139602 42
3.4396832 -2.6198108 1.8083974 37
3.7322202 -2.6235623 1.8024703 34
-0.080012992 -2.4875968 1.8630184 0
0.43420321 -2.5005767 1.8573629 62
0.53496683 -2.4674146 1.8521305 55
0.65206724 -2.4461207 1.8471189 61.666668
0.82990211 -2.538913 1.8438245 65.5
1.3211282 -2.4185627 1.8357085 53.666668
1.4231837 -2.434906 1.835919 56.5
1.5544978 -2.5010962 1.8342988 50
1.6869659 -2.4844112 1.8258389 43
1.8539892 -2.4908905 1.8270534 50.5
2.0011921 -2.4663324 1.8251842 42
2.1755686 -2.4528472 1.8226925 43
2.2993388 -2.4708042 1.8208729 38
2.4260228 -2.492646 1.8197206 45
2.6315763 -2.4625905 1.8136491 43.5
2.9675546 -2.5367889 1.8098794 40
3.267565 -2.5446906 1.8093053 39
0.087654963 -2.2599669 1.8955899 21
0.24952336 -2.3622117 1.8578521 66
0.39755929 -2.3214061 1.8497133 66
0.49153891 -2.3141866 1.8496889 63.200001
0.88964897 -2.2794919 1.8434039 56
1.1293013 -2.312567 1.8374482 55.142857
1.2543311 -2.3270071 1.832459 58.333332
1.4331355 -2.3080511 1.8251281 56.333332
1.5488492 -2.3197153 1.8264891 50.666668
1.7160759 -2.349227 1.8228984 48.666668
1.9068129 -2.3742528 1.8178073 44
2.114105 -2.3899965 1.8240498 49
2.8185942 -2.398165 1.8097731 42
3.0689466 -2.3759608 1.805468 43
3.3302619 -2.3442678 1.8056051 38
0.23875001 -2.1938941 1.8475947 66.5
0.33656079 -2.1753049 1.8462108 65
0.70666939 -2.1875486 1.8444644 62
0.83158737 -2.1394248 1.8395401 60.5
0.9784506 -2.2109377 1.8396097 58.5
1.1472629 -2.1517467 1.83156 53
1.3134888 -2.2199228 1.8287354 52.333332
0.094052151 -2.0698023 1.8478311 69
0.19743544 -2.0441689 1.8459597 69.599998
0.37792122 -1.9892858 1.8420068 69
0.52673334 -2.017349 1.8388985 66
0.66600859 -2.0157199 1.8363081 63.142857
0.81411868 -2.0264828 1.8333558 60.42857
0.97728515 -2.0689437 1.833135 60.75
-0.090576209 -1.8180052 1.8492036 27
0.061652452 -1.9233142 1.8472842 72.333336
0.23238499 -1.8857268 1.8442394 70
0.36859155 -1.8574179 1.8392835 69.75
0.51565379 -1.875205 1.8368292 67.571426
0.67047107 -1.8919408 1.8313597 63
-0.18706954 -1.6883178 1.8483844 1.5
-0.064373843 -1.711812 1.8461218 61.200001
0.064684995 -1.7417735 1.84119 83.333336
0.23397613 -1.7010181 1.8366935 74.428574
0.37714997 -1.7448565 1.8363702 70.714287
0.52839589 -1.749022 1.8352555 75.75
-2.8426304 -1.5153816 1.8176459 39
-0.19204611 -1.5490744 1.8579184 2
-0.083461627 -1.5764257 1.8491323 45.25
0.070712507 -1.5735266 1.8379914 77.599998
0.20033197 -1.5654533 1.8371091 76
0.35395089 -1.5815818 1.8311031 78.5
-2.8977077 -1.4220499 1.8090798 83
-2.7866244 -1.4051502 1.8543733 62.5
-0.070754223 -1.4207345 1.8419524 55.5
0.086627826 -1.4385502 1.8387821 74.400002
0.2376056 -1.4272147 1.8342491 96
-2.6206989 -1.2801117 1.8571044 35
-2.468699 -1.2422346 1.8502754 1
-2.3192887 -1.2740856 1.8483742 23
-0.20317963 -1.3098094 1.8459206 2.4000001
-0.06959492 -1.2721583 1.8432409 63.857143
0.056948796 -1.289819 1.8367747 71
-2.5595937 -1.1606975 1.8413264 1
-0.19427577 -1.1234112 1.8393823 5.25
-0.095946655 -1.1368257 1.8439759 54.25
-2.2151921 -0.94131482 1.8494841 23
-1.9912972 -1.0030752 1.8458313 25
-1.9069759 -0.93445623 1.8501459 24.5
-0.22019911 -0.98982012 1.8330761 2.5999999
-0.10690278 -0.98315299 1.8279135 39
-2.1214414 -0.87996674 1.8422517 24
-2.0292246 -0.84419477 1.8485464 27
-1.8634626 -0.79171848 1.8484806 27
-1.5791671 -0.79641366 1.8458297 27
-0.2277195 -0.82207775 1.815589 17.666666
-2.2527773 -0.73698735 1.8452154 23
-2.160533 -0.69071382 1.8386499 26
-2.032439 -0.67939138 1.8466953 10
-1.8076986 -0.70741367 1.8390967 2
-1.697162 -0.66460586 1.846426 2
-1.5647211 -0.67119992 1.842895 27.5
-1.412962 -0.66778505 1.8493538 29
-0.65298396 -0.64492923 1.8328192 85.599998
-0.52689797 -0.62611169 1.8341874 82.666664
-0.38345775 -0.67375153 1.8259878 67.333336
-0.28213277 -0.65216351 1.8227041 65
-1.5412979 -0.56590652 1.8458235 29
-1.4167775 -0.49520683 1.8497745 30.666666
-1.2783039 -0.52793336 1.8430851 30
-1.1258878 -0.51942545 1.8366681 31.75
-0.99262393 -0.5664553 1.8381535 32.5
-0.82151431 -0.53462535 1.8399334 35.200001
-0.66080308 -0.51419008 1.8379759 55.888889
-0.51939982 -0.53628033 1.8319191 81
-0.36965728 -0.51549077 1.8266839 78.25
-1.5236758 -0.42633253 1.8420027 27
-1.4352089 -0.34734479 1.8480272 36.333332
-1.2726177 -0.39295056 1.8323092 31
-1.1069244 -0.37952828 1.8357245 32.400002
-0.9690221 -0.37181318 1.8382177 32.166668
-0.8297928 -0.36895892 1.8353802 33.25
-0.68132269 -0.37423787 1.8365135 33.900002
-0.52096635 -0.38654056 1.8313793 70.833336
-0.42074761 -0.37025473 1.8298163 77.333336
-1.540576 -0.27272496 1.8431164 37
-1.4292265 -0.21142495 1.842808 36
-1.2472237 -0.26356462 1.8328848 34.333332
-1.1242841 -0.21172523 1.8311912 33.25
-0.9764694 -0.20851326 1.8342959 34.200001
-0.80767035 -0.21500601 1.8324991 32.25
-0.67701328 -0.22849742 1.8301313 49.57143
-0.53386772 -0.21399997 1.8292768 76.285713
-0.41502333 -0.25440088 1.8296416 75
-1.3914096 -0.098134182 1.8312513 28
-1.2669443 -0.10127006 1.8324759 34.75
-1.1293877 -0.055383906 1.8325514 34.666668
-0.99786234 -0.071644813 1.8290148 34.5
-0.82436311 -0.065645367 1.8286006 46.700001
-0.69158167 -0.067822792 1.8271222 78.5
-0.5472818 -0.080517523 1.8264632 78
-0.43993905 -0.13442646 1.822683 75
-1.4081931 0.046443399 1.8352896 4
-1.2774807 0.071599916 1.8292944 36.25
-1.1148589 0.066655092 1.8285187 35.75
-0.97903037 0.085747562 1.8287071 40.5
-0.83043361 0.08240243 1.8245965 70.875
-0.66400194 0.071031563 1.827912 76
-0.51080424 0.05884549 1.8235222 75.5
-1.42811 0.23809603 1.8341491 26.6
-1.2936476 0.22998971 1.8254355 34
-1.108842 0.21443963 1.827132 36.200001
-0.96942103 0.23124543 1.8200184 78.5
-0.83089501 0.22717103 1.8199923 80.625
-0.66855478 0.22241694 1.8223286 72.5
-0.51290005 0.23153655 1.8213104 81.5
-1.4272251 0.38470149 1.8367634 51.400002
-1.264993 0.40611085 1.8263974 33
-1.0985394 0.36882392 1.8213997 59
-0.95804977 0.36742038 1.8203061 74.800003
-0.80202907 0.37538412 1.8178117 73.75
-0.68289167 0.36747789 1.8176317 76.375
-0.51748711 0.3854638 1.8183187 78.571426
-1.5345305 0.49888104 1.8346406 88
-1.4179848 0.53232914 1.8339103 90.199997
-1.2610847 0.55002093 1.8334296 84.5
-1.1082761 0.50805932 1.8190738 76
-0.96465158 0.52815849 1.8198011 70.14286
-0.81104076 0.51914138 1.8138469 74
-0.67176563 0.5222286 1.8126265 77
-0.53079516 0.52194482 1.8180975 71.75
-0.44303781 0.56622994 1.8132071 77.5
-1.5619986 0.62958497 1.8342443 80
-1.4051659 0.68332279 1.8338003 92
-1.2998763 0.66793722 1.828976 103
-1.1437701 0.65113574 1.822897 90.666664
-0.97619009 0.67463779 1.8178771 60.200001
-0.82470417 0.67725021 1.8148639 76
-0.67162538 0.66521192 1.8129699 74.909088
-0.5553087 0.69221294 1.8123792 73.800003
-0.42012581 0.67588729 1.8068093 83.666664
-1.5838946 0.77141887 1.8299414 87
-1.4357932 0.83689386 1.8308935 91.75
-1.3181522 0.84178209 1.8317723 88.5
-1.0971986 0.8349492 1.8249906 74
-0.96405494 0.81825715 1.81941 73
-0.8260951 0.82692754 1.8120944 72.599998
-0.67090648 0.83010149 1.8119686 76.428574
-0.53316659 0.82449234 1.81157 75.714287
-0.38107142 0.81814951 1.8110663 74.666664
-1.3663958 0.95573157 1.8048347 65
-1.2718992 1.0006896 1.8193467 70.5
-1.1201557 1.0178016 1.8246645 98
-0.97588825 1.0070263 1.8227915 88.5
-0.85552853 0.94971085 1.8229953 53.666668
-0.66608286 0.97893924 1.8132801 78.800003
-0.52756584 0.96390885 1.8110901 75.75
-0.36854839 0.97480476 1.8067201 66.599998
-1.0709274 1.1685033 1.8198107 82
-0.9713133 1.1568033 1.8176465 86.666664
-0.83316088 1.1280333 1.8219422 81.833336
-0.65623415 1.1241089 1.8179005 71.75
-0.53290665 1.1030571 1.8172359 84.375
-0.4102959 1.1365932 1.8146626 85.599998
-0.27106139 1.1125003 1.8153706 80.666664
-0.90597355 1.2527605 1.8184377 80
-0.82590461 1.2823378 1.8157052 77.333336
-0.67795837 1.2537473 1.8185066 76.75
-0.51568162 1.2721424 1.8173456 66.166664
-0.37980747 1.2619182 1.8149586 73.571426
-0.22326955 1.2945168 1.8131762 71.800003
-0.77122837 1.3665866 1.8117145 76
-0.66244709 1.3951327 1.8141774 69.5
-0.51349741 1.4282066 1.8062016 72.599998
-0.36624843 1.4043592 1.8123246 65.428574
-0.23590687 1.443889 1.8089931 65
-0.10484936 1.4280618 1.8109255 65
-0.49042565 1.5754389 1.8018483 78.5
-0.38442633 1.558988 1.8048748 69.666664
-0.23888373 1.5598191 1.8065596 75.25
-0.10934426 1.5755333 1.8051704 58
0.0047889473 1.5739721 1.8055798 73
-0.20613098 1.7025894 1.8034086 74.666664
-0.036087673 1.6750889 1.8017815 70
0.086867794 1.683054 1.8005251 41
0.18044917 1.8016597 1.800748 59
