# .PCD v0.7 - Point Cloud Data file format
VERSION 0.7
FIELDS x y z intensity
SIZE 4 4 4 4
TYPE F F F F
COUNT 1 1 1 1
WIDTH 1842
HEIGHT 1
VIEWPOINT 0 0 0 1 0 0 0
POINTS 1842
DATA ascii
0.091523215 -3.9311204 -0.18546194 103
-0.61779654 -3.7815077 -0.16207799 12
0.29651654 -3.0418811 -0.186602 0
0.34532297 -2.7141647 -0.17085315 74.5
0.37070233 -2.600456 -0.18977949 35
0.40387183 -2.4734578 -0.19101942 45
0.86271125 -2.2530882 -0.16988501 150
0.85233158 -2.1786745 -0.17156871 119.66666
0.50119019 -2.0821972 -0.15870558 3
0.82654482 -2.017333 -0.18192717 13
0.55151409 -1.9361155 -0.17802688 3
0.63962376 -1.2401317 -0.1659002 46
0.82986593 -1.2195859 -0.17674412 24
0.97094589 -1.2426524 -0.18163364 52.666668
1.2142079 -1.2939994 -0.19445272 72
0.69368458 -1.1917101 -0.15870008 9
1.4879762 -1.0871972 -0.18516977 19
1.0887057 -0.96309984 -0.16858171 77
1.5811321 -0.95434284 -0.18428338 150
1.8830276 -1.0241761 -0.17285174 11
3.4637845 -1.0355748 -0.16169117 15
1.1458433 -0.81911308 -0.16453204 14.5
1.2032301 -0.8223418 -0.18278757 155
1.5693526 -0.77667081 -0.18199414 129
1.1723597 -0.67154592 -0.17233571 95.599998
1.5599695 -0.54961336 -0.19027136 1
3.9891369 -0.53551847 -0.169091 150
4.2912102 -0.32556918 -0.19845845 16
4.0366936 -0.22139515 -0.1613849 150
3.7101777 0.015474123 -0.18553108 88
3.7559192 0.23935077 -0.18584941 83
-0.55239749 0.47658923 -0.17433673 3
3.7985947 0.4705047 -0.17769559 0
1.6888565 1.0323864 -0.18959495 50
1.0218154 1.1934639 -0.15636133 64
1.1044946 1.1736698 -0.17966886 62.333332
1.2191088 1.1464279 -0.17324546 64
1.5194435 1.0799526 -0.16221397 57
0.35229313 1.3342677 -0.17203617 15
0.57407224 1.2793686 -0.1794166 37
0.69354475 1.2600417 -0.16658062 75
0.80606383 1.2356582 -0.16450636 68
0.93476337 1.2141297 -0.17630011 66.333336
-0.32433403 1.3943503 -0.15867412 0
-0.21093947 1.447238 -0.17174937 17.25
-0.11361277 1.427766 -0.19585773 22
0.11791304 1.3931401 -0.17737108 17.5
0.21057045 1.3667898 -0.16739354 17
-0.6191501 3.5566471 -0.1741543 32
0.038393062 -3.9130473 -0.10995021 94
-0.69054121 -3.763097 -0.11127093 17.333334
-0.39956385 -3.8212752 -0.070702024 50
-0.22595596 -3.8530378 -0.10825521 87.5
-0.10037705 -3.8817461 -0.10021183 88.666664
0.12181185 -3.8625038 -0.14046489 38
-0.83378929 -3.7029445 -0.033687625 27
-0.73849559 -3.7479784 -0.064047493 5
0.36196536 -3.4373171 -0.065975673 8
-0.8543539 -3.2421992 -0.015005027 8
0.14944653 -3.2423544 -0.046372358 0
-0.84806931 -3.1395717 -0.056945149 44
0.25028494 -2.9760277 -0.057533909 6.6666665
0.33200586 -2.8594122 -0.073088236 12
0.345873 -2.7330327 -0.082638092 25.5
0.78701824 -2.2589447 -0.091394015 40
0.80694872 -2.2395062 -0.09588518 49.5
0.43580377 -1.9894269 -0.069964327 2
0.4290264 -1.8318019 -0.07619261 0.5
0.51728725 -1.8861892 -0.12936546 2.5
0.44284469 -1.7845029 -0.079050548 2
0.48145628 -1.7775762 -0.114315 2
0.61812449 -1.3606652 -0.096165784 51
0.63199377 -1.2796236 -0.094660103 31.833334
0.86020356 -1.2218075 -0.12618867 48
0.6793592 -1.1926284 -0.12326878 18.5
0.75950366 -1.1993371 -0.14850526 8
0.92012876 -1.0647434 -0.079962857 21
1.0661457 -1.0640452 -0.11545483 77
0.70078784 -0.94929105 -0.063539423 42.5
0.83266836 -0.93532449 -0.080933131 1
0.95699161 -0.98215234 -0.07815475 1
1.084937 -0.96564811 -0.10181875 60.75
3.4554145 -1.0481873 -0.067642726 15
-0.76859975 -0.7606231 -0.037763301 0
0.7255699 -0.82943612 -0.076493114 26.5
0.81779563 -0.83087969 -0.086394273 1
0.98539805 -0.83989364 -0.083835714 21.25
1.1211166 -0.8295064 -0.1167677 80.375
3.5346539 -0.86976886 -0.10011537 128
-0.75921786 -0.6983974 -0.023929898 0
-0.73759496 -0.61555052 -0.0464711 1.25
0.8243044 -0.68079954 -0.089290328 1.5
1.1462858 -0.64747655 -0.12066905 31.799999
3.8898227 -0.74829316 -0.12655365 125
3.9093199 -0.69105506 -0.063841753 63.5
0.8155815 -0.53299761 -0.080133379 7.4000001
1.0185982 -0.51289451 -0.089984752 1
1.0674196 -0.45289439 -0.10482625 0
3.9712863 -0.46522564 -0.084978953 108.5
-0.71930522 -0.42159703 -0.091965027 0
0.81554651 -0.42913181 -0.087578155 6
3.6275153 -0.37549874 -0.051441524 31
3.645241 -0.22945073 -0.062554874 44
4.0568218 -0.16254307 -0.052504811 75
3.6890645 -0.021485904 -0.067656375 34
3.720576 0.079438426 -0.092710085 76
3.7491977 0.19077033 -0.063180037 45
-0.52960402 0.44736585 -0.13739394 0
3.7894223 0.36285114 -0.074078999 48
-1.0525908 0.58654469 -0.00031289936 3
-0.93111837 0.56150174 -0.031431276 4
-0.81253433 0.53906375 -0.058645807 4.181818
-0.72209001 0.51611209 -0.078212671 4
-0.5747028 0.49096432 -0.070402019 8.333333
3.8070223 0.55839503 -0.091528781 10
3.8218191 0.62931907 -0.034724597 7
3.8707597 0.86024946 -0.0081563042 7
1.7390425 1.0240041 -0.063182428 38.5
1.8518236 1.0110554 -0.12822801 53
2.0178924 0.97821558 -0.078903526 51
2.1731339 0.93411696 -0.057252608 5.5
4.2443962 1.0397882 -0.1195896 35
1.1222848 1.1621704 -0.08150126 52
1.2776206 1.1328266 -0.084509857 50.5
1.4301311 1.1128197 -0.081887305 88.333336
1.5470486 1.1059642 -0.027537052 98
1.6667125 1.0873597 -0.021864748 150
0.29709432 1.3439922 -0.090740696 12.5
0.40178689 1.3170973 -0.069639914 10.666667
0.52108008 1.2966248 -0.10564514 23.799999
0.67223436 1.2624289 -0.071285956 60.625
0.81878287 1.2341818 -0.098156661 69.666664
0.94992578 1.2065864 -0.095788643 64.75
-0.35174 1.4329498 -0.081857778 9.125
-0.24330668 1.4480097 -0.12804544 14.6
-0.038667105 1.4015783 -0.062808484 10.666667
0.070591368 1.3974979 -0.079208389 15.142858
0.21173081 1.3634419 -0.10104641 13.5
7.1906271 2.4079049 -0.13730708 38
-0.76975203 3.5668983 -0.04906949 63.666668
-0.65664226 3.5607302 -0.0048906403 65.5
-0.83806968 3.6292922 -0.019061005 150
-0.59391171 3.6978445 -0.0033367919 14
-0.57190138 3.7791033 -0.12159238 16.666666
-0.50235021 -4.0738945 0.095212661 135
-0.36568341 -4.0890117 0.11915808 57
-0.65999305 -4.0429273 0.14727527 81
-0.31377634 -3.8385191 0.011341239 90
-0.22744985 -3.86428 0.019135462 55.333332
-0.097609386 -3.8811913 0.0077419234 95
-0.98414278 -3.3058906 0.054269549 28
0.13359672 -3.3378768 0.093531892 4
-0.88396835 -3.2846627 0.02702173 0
0.15233655 -3.2663333 0.070111148 4
0.2049792 -3.1059067 0.058909651 3
0.22840701 -2.9626722 0.043463241 4
0.36253005 -2.1811838 0.084712669 1.75
1.0637965 -2.1714101 0.13182002 0
0.42605454 -2.0145693 0.018665755 3
1.0889597 -2.03632 0.10847045 1.75
0.36863828 -1.9374593 0.0045181168 1
1.053117 -1.7350737 0.065692775 34
1.1254811 -1.5299213 0.13571024 22
-0.87756306 -1.4542235 0.12578559 1
1.2132026 -1.4395092 0.1281054 6.5
1.2429864 -1.3033471 0.10761185 3
4.055953 -1.2061009 0.076942883 0
1.2876053 -1.0732226 0.1291405 3
4.0504985 -1.177264 0.14961845 13
-0.81699997 -0.9695062 0.067030035 0
1.347295 -0.93928993 0.12115549 12
1.3546861 -0.94063962 0.10163932 12
4.117979 -0.95257092 0.063113727 13.5
-0.77408159 -0.75090075 0.061212774 0
1.3436946 -0.80951875 0.11839736 4
-0.76720929 -0.7126618 0.046665099 0
-0.7412765 -0.62811434 0.061909251 0
1.3610362 -0.70661354 0.13147339 4
4.1575961 -0.6805554 0.030755216 13
4.2561207 -0.38518104 0.13774407 9
4.2172642 -0.18034185 0.12227856 43
-1.2185299 -0.006648466 0.13454217 0
4.1943231 -0.13012524 0.10361426 47
-1.1461489 0.064359769 0.10948393 0
-0.9592008 0.11150382 0.129318 0
4.348372 0.12540364 0.10157477 3
4.3575096 0.068256348 0.11231627 7
-0.57343966 0.44246656 0.11693462 0
4.2459011 0.34630799 0.087573372 13.5
-1.0584905 0.59454572 0.095464401 3
-0.97167814 0.57258505 0.068955883 3.7857144
-0.82227594 0.53989142 0.068188556 3.8125
-0.72860211 0.51761085 0.056457091 3.5
-0.57145226 0.49328685 0.087089494 6.4000001
3.7758732 0.53722548 0.047851767 6.5
-1.2124455 0.62382597 0.082194708 3
-1.1182464 0.6090827 0.10417724 2.6666667
3.8318174 0.7425468 0.060288396 6
3.8539722 0.82392591 0.077016406 7
2.035356 1.1966523 0.067486219 5
1.1891252 1.3037657 0.057704799 53.5
1.2562463 1.2905035 0.11157972 35.400002
1.7407143 1.2586248 0.061566707 34
1.9405067 1.2237748 0.045454558 104
2.2425904 1.3033488 0.14504582 2
-0.28064638 1.4465634 0.1194384 0
0.70340377 1.4244671 0.013270016 152
1.1647242 1.3706863 0.12580585 26
1.2063713 1.4205601 0.077826373 42
1.5544634 1.4015428 0.10120356 15.333333
1.7404253 1.4106365 0.1034613 41
2.048491 1.3721882 0.13115031 62
-0.20386168 1.5740609 0.090099789 45
-0.077795915 1.5838996 0.083158523 48.555557
0.060057748 1.5521584 0.064683475 48.5
0.72658759 1.6437582 0.10882591 71
0.77489543 1.6382457 0.082518898 77.666664
0.99283499 1.5893769 0.10993593 65.666664
1.1744099 1.5474808 0.11250776 65
0.23588558 1.7655197 0.072038136 16
0.38568723 1.7130412 0.12266874 74.666664
0.51982671 1.6919328 0.088236995 54.666668
0.66111392 1.6599572 0.11687975 77.25
7.6848316 2.3089812 0.10116332 42
6.863575 2.4980853 0.1295107 37
-0.84653348 4.0560927 0.10258909 150
0.063592777 -4.2578254 0.21241617 7
-0.60295159 -4.0502167 0.26546615 105
-0.54161286 -4.0660048 0.17903331 124.5
-0.38823071 -4.0986257 0.1877148 79
-0.070063561 -4.139936 0.29247886 16
-1.2414397 -3.9868133 0.15429556 11
-0.72936457 -4.0303926 0.25500041 82
-0.79276049 -3.1984348 0.15744191 20
0.11154343 -3.2386901 0.19460118 0
-0.80959284 -3.0926974 0.27482527 40.75
-0.69274074 -3.0841587 0.1943929 51.333332
-0.95082545 -2.9702711 0.22946489 8
1.0583546 -2.1999793 0.19358736 0
1.1036971 -1.9929688 0.18346769 0
0.42112508 -1.7257414 0.21238887 1.5
1.1157048 -1.5879323 0.24133098 40.700001
1.2074074 -1.5588619 0.25802982 43
1.1799026 -1.4842987 0.15567553 25
1.2245572 -1.434424 0.19380815 5.1999998
-0.88450599 -1.3088883 0.19800256 1.3333334
1.2989283 -1.1231803 0.25420153 28.666666
1.3744406 -1.1754798 0.26032582 19.333334
1.3187248 -0.96729225 0.22594242 55.25
1.3537073 -0.93289685 0.15083128 13
1.3436947 -0.80401677 0.18013385 3
1.3723112 -0.84043151 0.22228968 24
4.1534863 -0.8753103 0.2188018 6
1.3685595 -0.67839193 0.17092144 3
4.1903367 -0.6312393 0.17063028 11
4.2013669 -0.67061371 0.20050693 8
-0.69906801 -0.4070546 0.24515849 0
4.2430696 -0.4289332 0.15912282 7
-1.5516933 -0.17601793 0.28249478 5
4.1884007 -0.19856739 0.28025511 41.5
-1.3982532 -0.1342828 0.25081974 0
-1.3123738 -0.053088564 0.24270578 0
-1.2841066 0.032553636 0.23395693 0
-0.94793957 0.066729501 0.25678635 0
-0.63855493 0.44444662 0.16177583 0
-1.3616055 0.51760322 0.2498311 1.3333334
-1.0668602 0.59822327 0.27240977 2
-0.96492386 0.57755989 0.23055349 2.5714285
-0.8457458 0.54735798 0.21233726 3.25
-0.73001504 0.52227545 0.22561124 5
-0.57367134 0.48846626 0.2414901 5
-1.61502 0.68484938 0.28574377 4
-1.3982501 0.66134691 0.20363909 1
-1.2604949 0.63428307 0.20817213 1.4285715
-1.1125233 0.60538614 0.21223947 2
3.6747756 0.69505602 0.24826109 0.5
3.7770674 0.66637659 0.18940073 1
1.1462625 1.3291812 0.1907355 30
1.2116922 1.2570152 0.19017497 28.5
2.2084327 1.3360037 0.2448097 38
-0.35383657 1.4427755 0.20968726 3.8571429
1.1516942 1.3760152 0.1652509 25
1.6045184 1.4116963 0.21085106 34.25
1.7891228 1.4276458 0.22898012 58
1.8554058 1.4164022 0.19749828 60.333332
2.0193365 1.3752257 0.20475225 59.333332
-0.2069723 1.5605006 0.214129 43.111111
-0.080867805 1.5841641 0.19225702 65
0.018565383 1.533052 0.24109727 56
0.81329519 1.6272417 0.2307419 68.333336
0.96193892 1.5971798 0.24501492 66.5
1.1157113 1.5638962 0.23887475 63.833332
1.2264032 1.5223867 0.22910166 66
0.22966929 1.7575678 0.24025249 72.166664
0.39268675 1.7158686 0.23594598 71.166664
0.52413809 1.6894819 0.21413898 72.5
0.67118597 1.6619352 0.23264749 68.666664
7.2191586 1.9370841 0.18451363 38
7.2578216 2.4113033 0.25727409 40
-1.006218 3.7755239 0.15600681 160
-0.5197131 4.0035667 0.28966284 6
-0.96007836 4.1370268 0.20504254 83.5
-0.86251229 4.1188464 0.19697028 111
-0.54884964 -4.060719 0.33127809 103
-0.32446828 -4.064949 0.42080587 95
-0.18401735 -4.1001415 0.358805 103
-0.003583628 -4.1380334 0.3965258 90
0.073021136 -4.1605263 0.32337824 41
0.20324494 -4.1802621 0.34478766 36
-0.66181988 -4.0313635 0.32838836 146.5
-1.2767137 -3.4289646 0.44472706 6
-0.99400151 -3.2708759 0.41106328 26.5
-0.69358945 -3.2292464 0.32127738 14
-0.98692745 -3.0568275 0.40988159 43.333332
-0.85937828 -3.0876994 0.36234251 22.5
0.15239178 -3.0303512 0.40280253 0
-1.0928769 -2.4916 0.35036439 1
0.28420734 -1.992335 0.37799227 1
0.36597475 -1.9284528 0.40887547 1
-0.96203285 -1.7356839 0.31355476 1
1.042001 -1.6465571 0.30775595 50
1.0913442 -1.5865952 0.30795962 5
1.2932035 -1.0902299 0.34693146 37
-0.82569027 -0.97918063 0.42764977 0.66666669
1.2861793 -0.96525985 0.36974162 64.111115
1.328622 -0.88828325 0.37295231 67.666664
1.3831849 -0.85619694 0.34585571 33
-0.7453177 -0.62069559 0.44803941 0
-1.5291878 -0.21197158 0.36837247 5
-1.4709916 -0.1858919 0.43074837 19
-1.3811423 -0.12260046 0.34239703 0
-1.3138647 -0.040441971 0.38937041 0
-1.2945554 0.023853669 0.38714734 0
-1.3566545 0.52256006 0.32019418 1
-1.1011424 0.59983498 0.40782458 1
-0.98916268 0.58477008 0.35974705 1.75
-0.81691694 0.54857212 0.37400246 2.2857144
-0.74136865 0.53237289 0.3381803 2
-0.5742923 0.49387923 0.33276653 3
3.7065785 0.58633536 0.35749739 0
-1.6705799 0.72209668 0.38272655 0
-1.5578805 0.69281071 0.34769654 8.7142859
-1.4432174 0.67347157 0.34152275 0.80000001
-1.2687792 0.63578081 0.35597438 1
-1.1532927 0.61326838 0.41214508 1
3.6500845 0.73607993 0.37370175 2
3.6410789 0.76920962 0.33944544 3.5
1.1628596 1.3245455 0.41375077 44.5
1.2862518 1.2989321 0.40122867 82.800003
1.4406443 1.3247862 0.4176113 151
1.6106143 1.2925725 0.40998489 151
2.1955867 1.3391447 0.3483378 51.5
-0.32960531 1.413547 0.35994944 1
1.1797559 1.43191 0.43080643 78.5
1.2599342 1.4248018 0.38495255 86.75
1.4189209 1.4088318 0.39336538 130.39999
1.6380353 1.4618673 0.42578691 48
1.6928759 1.4496741 0.38708773 56.333332
1.8442576 1.4195262 0.37554139 59.75
2.0091634 1.3834304 0.3762123 49.599998
2.1370556 1.3540554 0.43231589 56
-0.20896021 1.5543419 0.40272641 10.5
-0.071532175 1.5396628 0.36886132 29.333334
0.0081440927 1.5188965 0.30613554 54
0.73596454 1.6433885 0.38336924 68
0.82275492 1.6287214 0.38602832 67
0.95273715 1.6008717 0.36310226 55.799999
1.1137303 1.5659714 0.34648171 60.400002
1.2332428 1.5417159 0.34557423 59
0.12361354 1.7663848 0.38647589 80.5
0.23013075 1.7552075 0.38615885 73
0.33785367 1.7309028 0.32191378 75.333336
0.52556968 1.6903301 0.38510382 67.25
0.6348989 1.6667424 0.37759891 62.666668
7.4872971 1.864731 0.44349617 44
7.2449107 1.9808235 0.30656582 26
7.2926636 2.4137194 0.38151705 40
6.5480909 2.562201 0.39066684 36
-0.51235282 3.5539868 0.30776381 4
-0.73638815 3.6717079 0.37626117 1
-0.54598939 3.6174171 0.39062995 36
0.61244357 -4.2703209 0.53191823 62
0.78149146 -4.2982311 0.51926488 44
-0.51596487 -4.0708499 0.58173555 93.5
-0.41708452 -4.0815849 0.52450961 92
-0.2208392 -4.0912786 0.48429647 90.333336
-0.070002034 -4.1233115 0.48037478 93.5
0.003140968 -4.1336274 0.49405223 86
-1.1327561 -3.3635337 0.45566416 28
-1.362457 -3.2753921 0.49550521 0
-1.0730368 -3.1886165 0.57311934 24
-1.2257439 -3.1156044 0.55182648 44.5
-1.1583 -3.1253612 0.52649999 42
-0.76076537 -3.1207438 0.59198624 150
-0.97868228 -1.809152 0.45373368 0
0.4352116 -1.9377161 0.46601528 4
-0.97319531 -1.7877536 0.51512933 0
-1.4451739 -0.18947326 0.48458296 8
-1.3567331 -0.061763164 0.53742903 2
-1.3279278 -0.025698278 0.55239308 5
-1.2981513 0.041237622 0.50318122 0
-1.3731536 0.51942676 0.54216409 1
-1.0508616 0.5936783 0.58322799 1
-0.95304382 0.57529354 0.51277113 0.75
-0.82117265 0.55028403 0.53757149 0.5714286
-0.73525834 0.52754033 0.51793182 0
-0.56457859 0.49296108 0.52721161 1.3333334
-1.5108452 0.68790996 0.53338689 4.4000001
-1.4259648 0.66677135 0.59009278 6
-1.323501 0.64846224 0.58337051 4.3333335
-1.1721083 0.61899447 0.49721318 0.5
-2.0193882 0.79119325 0.56488812 25
1.3476721 1.1911256 0.57171476 50
1.3711065 1.1934347 0.45881063 32
1.1741134 1.3081448 0.45418096 37
1.3026806 1.2529774 0.49446362 67.75
1.4593345 1.2393373 0.5224061 124.66666
1.5727319 1.2792155 0.47263497 131.25
1.6712606 1.2360487 0.50926995 151
2.19802 1.3397334 0.49535766 50.75
-0.35685477 1.4498988 0.52044499 7
-0.27880231 1.45989 0.46604073 1
1.174639 1.3647575 0.48614338 50
1.2512482 1.3604101 0.53500062 150
1.4295789 1.4098992 0.55947375 125.5
1.6204352 1.4158629 0.48365992 150
1.7111611 1.3988253 0.46412823 115.5
1.8420789 1.4126308 0.45994592 53
2.0049319 1.3777994 0.49511886 69.25
2.1182921 1.3566494 0.57975382 57
-0.2121903 1.6016982 0.4971647 16
-0.078517318 1.5641872 0.51758152 4.5999999
0.81673342 1.6303669 0.52305353 60.333332
0.98467815 1.5933855 0.52599049 58.400002
1.1299273 1.5656511 0.55594689 51
1.2418835 1.5332778 0.53833759 50.25
-0.20910294 1.728945 0.53881145 35
0.10995515 1.783363 0.51135141 73.333336
0.23855355 1.755132 0.50438553 68.5
0.38405561 1.724671 0.52009219 60.666668
0.52735078 1.6929187 0.54392272 66.14286
0.66220123 1.6641558 0.50252223 67.571426
7.2841029 1.972015 0.46792334 30
7.5410728 2.334985 0.50836909 27
6.730042 2.5128281 0.49403095 37
7.2156911 2.4118819 0.54024011 39
5.7581854 2.7152894 0.56307703 30
-0.74185109 3.6825817 0.4717139 6
-0.54646432 3.7833536 0.51697749 12
-0.6904152 4.0826583 0.47284871 36
0.54886365 -4.2531991 0.67911786 60
0.65600622 -4.27246 0.69112653 58
0.80655366 -4.3113918 0.67587757 59.666668
-0.48158222 -4.073359 0.69532895 93
-0.38958925 -4.0784693 0.61858714 96.5
-0.25918373 -4.0812922 0.6275354 96.5
-0.82644194 -4.0030789 0.69865525 95
-0.67356408 -4.0364017 0.71291173 91
-0.63672656 -3.3567696 0.72720444 150
-1.541628 -3.1678712 0.60900682 0
-1.4172368 -3.1613107 0.68480551 8
-0.95305187 -3.2894464 0.64155483 38
-0.83672047 -3.2039118 0.73686826 37
-0.68224168 -3.2129424 0.64345127 20.333334
-1.3829725 -3.1470206 0.68321466 19
-1.2851758 -3.1003399 0.65313053 11.5
-0.79598296 -3.1006589 0.62976849 55
-1.3846072 -0.16587155 0.6899038 4.5
-1.387871 -0.077910408 0.66893709 7.1999998
-1.3485336 -0.054994255 0.74565995 27
-1.3657901 0.023302261 0.6475212 5
-1.3055416 0.1243228 0.63615906 3
-1.3343714 0.18540256 0.60127419 3
-1.3848867 0.54125458 0.7236619 1
-0.97067487 0.57779354 0.6810801 1
-0.83649361 0.54926783 0.68870842 0
-0.7272231 0.52398777 0.65107775 0
-0.53337377 0.51593494 0.65112638 0.66666669
-1.5178475 0.68616635 0.6069805 0
-1.3752446 0.66091436 0.68468237 6.6666665
-1.0977796 0.60889524 0.67994827 0
-2.2961743 0.85041595 0.64186132 14
-2.1438806 0.82178426 0.64919925 2
-2.0016811 0.7875421 0.64532888 12
1.1433929 1.3073262 0.62178004 33.333332
1.290719 1.260339 0.60661745 150
1.7221944 1.3029983 0.66880113 151.5
2.2233899 1.3345548 0.61245209 26
-0.36460224 1.4587854 0.69508618 3.3333333
-0.27855176 1.458725 0.63558805 3.5
1.2640021 1.4296138 0.65640748 4
1.4240795 1.4498649 0.66590816 121.33334
2.0723672 1.3686982 0.67166561 50.333332
-0.18771864 1.6441808 0.6751014 3.5
-0.063350819 1.5466812 0.70566106 9.8000002
0.024021547 1.6019998 0.680408 2
0.74084514 1.6437826 0.66296995 58
0.82855242 1.6285684 0.68614525 54.333332
0.9741627 1.5990585 0.66033292 50.599998
1.1132482 1.568416 0.68529731 49.285713
1.2553377 1.5391957 0.65870523 50
-0.19649541 1.7184684 0.63702947 12
0.12243493 1.779863 0.71383172 57
0.23636259 1.754081 0.66563779 66.285713
0.37839445 1.728258 0.67597908 62
0.51129478 1.6951395 0.67781782 66.666664
0.66561967 1.6642884 0.69620121 61.5
7.0684052 2.4492383 0.73559213 39
6.3419819 2.5980427 0.70252025 43
5.7265272 2.7274313 0.69088709 39
-1.0119777 3.7031436 0.72199667 150
-0.9382112 4.1302299 0.66618407 74
-0.81692457 4.1170449 0.65734982 86
-0.70845646 4.0932822 0.6413871 92.5
2.473954 -4.6688099 0.81899303 34
2.5966012 -4.6873293 0.80963397 19
2.7960956 -4.7388034 0.88158262 32
2.0331509 -4.5736923 0.89634633 47
2.1779175 -4.6025691 0.84313011 48
0.35629803 -4.2116327 0.83189511 68.75
0.53328049 -4.2436404 0.84451413 64
-0.52239901 -4.0621891 0.7746827 95.333336
0.10597225 -4.1628361 0.85020936 68
0.22824754 -4.1843123 0.77422464 66
-0.67396617 -4.0408273 0.77390122 95
-1.0953637 -3.4899485 0.87311852 9
-1.2124389 -3.4255285 0.82263374 5
-0.93522567 -3.1832726 0.77237219 30.5
-0.88698208 -3.2361317 0.79805589 33
-1.6819768 -3.1060266 0.87595832 0
-1.5679755 -3.1094041 0.79089814 5
-0.80031753 -3.1263714 0.78408921 31
8.6292686 -2.2263434 0.89503503 31
8.7296085 -1.8121276 0.84997797 22
-0.77134746 -0.67429656 0.77465177 0
-0.66787189 -0.45072731 0.84433675 1
-0.69818521 -0.3988407 0.86310053 0.5
-1.388857 -0.25156638 0.79946786 2.6666667
-1.319768 -0.17999187 0.8424691 1
-1.3048042 -0.098729037 0.84423667 2.8333333
-0.93370116 0.57144046 0.81275243 2
-0.78046322 0.53755432 0.82695633 2.6666667
-0.57126886 0.49248147 0.83782005 2.6666667
9.2059898 0.58562243 0.88650298 31
-1.663698 0.72086638 0.87179142 3.5
-1.5374202 0.69241709 0.81300437 3
-1.2405269 0.63945788 0.85744792 1
-1.1329634 0.61302185 0.80479503 1.5
-2.1938472 0.83190656 0.89130604 1
-2.0274467 0.7938863 0.85953879 1
2.1811171 1.3415024 0.79186022 46
-0.28158891 1.4543617 0.85778427 1
2.0107493 1.3811456 0.77599847 49
0.73008353 1.6473737 0.79731524 53.5
0.82176876 1.6301246 0.8470462 50.25
0.96930432 1.5956588 0.81552428 49.222221
1.1413741 1.5648855 0.80249918 50.75
1.265589 1.5415021 0.77195096 54
-0.05276785 1.7043931 0.87302649 116.5
0.10848006 1.7826008 0.84144706 59.333332
0.22797364 1.7587776 0.81450862 60.333332
0.42345455 1.7169 0.83471006 54
0.54550904 1.6888998 0.83045697 57.5
0.65784532 1.666535 0.8102597 56.799999
7.8667574 2.2791657 0.83372772 30
6.9620457 2.4683859 0.83473825 38
6.0610161 2.6561949 0.88005567 43
6.2551942 2.6169143 0.81748879 44
5.4943385 2.7760439 0.85151601 29
5.6510668 2.7417283 0.8204391 39
-0.98110306 4.004796 0.79485035 39
-0.90983373 4.0525541 0.78896427 39
-0.79887491 4.1078806 0.75533462 95
2.4082298 -4.65242 1.0144986 42
2.7185948 -4.7188339 1.0401675 39
1.7694266 -4.5159206 1.0329796 40
1.8451056 -4.524848 1.0258455 47
2.1488192 -4.5932126 0.95216447 44.333332
2.2866857 -4.6279726 0.92698717 50
-0.29347304 -4.0677309 1.0348586 84
-0.084389217 -4.114234 0.95574713 82
0.077345148 -4.1579223 0.97330445 76.666664
0.25490794 -4.1863613 0.9763785 79.333336
-1.4323581 -3.3473313 0.94444668 6
-1.0881845 -3.4372108 0.96653533 3
-1.0345597 -3.3704016 0.95133525 19
-0.50893134 -3.2972455 0.90367544 4
-1.606163 -3.1454027 1.0179901 1
8.6080189 -2.2829826 0.97192717 28
-0.82438886 -0.952434 1.0190634 0
-0.77277666 -0.71741706 0.98105431 0
-1.2801534 -0.10239344 0.9043299 0
9.10359 0.10151532 0.90219492 23
-0.98277271 0.58505732 0.94167209 1
-0.77765793 0.54268634 0.98040909 0
-0.54042518 0.4738189 0.97496945 1
-1.6868961 0.72429889 0.96839231 1.5
-1.2991644 0.65205002 0.97764027 1.75
-1.0540645 0.60146916 0.99811733 3
9.2249594 0.6125226 0.90188289 29
-2.4644914 0.88873351 0.94509381 20.5
-2.3388977 0.86201739 0.92913043 22.5
-3.2438819 1.0424209 1.0364231 23
-3.0871465 1.0188619 1.0386783 25
-2.9716272 0.99494064 1.0115379 12
-2.7412655 0.94605452 0.97982812 23
-2.5586092 0.90591466 0.96785212 22
-2.5418284 0.91002065 0.95256305 20
-3.3572011 1.0593868 1.0417355 43
-0.37017381 1.4770883 0.97657424 11
-0.24651529 1.5701061 0.91545892 18
0.73143858 1.6461892 0.94143486 50
0.76664847 1.6382247 0.93985254 49.5
-0.21205139 1.7317188 1.0386569 26.5
0.11538139 1.7828717 0.96007758 62.5
0.25742835 1.7552655 1.0184643 54.5
0.36764929 1.7281678 0.96768832 53.555557
0.52064866 1.6974438 0.9766717 52.375
0.65941381 1.6672459 0.97654963 50.700001
-0.11420748 1.8328028 1.0180193 57
0.020457324 1.8047119 1.0136809 56
7.4699826 2.3535316 1.0020281 37
7.5729117 2.3383522 1.0406283 33
6.7250457 2.5218143 0.93188584 37
6.7911749 2.5172045 0.99979937 37
6.1143718 2.6587508 0.98050272 45
5.5343122 2.7766361 0.98197663 39
1.7802229 -4.5114264 1.1508541 48
1.9370613 -4.5458641 1.051616 48
2.055171 -4.5695052 1.1414678 48
2.3544762 -4.6473432 1.1601725 48
1.3388567 -4.4196467 1.1138991 10
1.4472259 -4.4557204 1.1504146 10
1.5419121 -4.4587069 1.168022 16
-0.36818191 -4.0574923 1.1747454 77
-0.1745657 -4.0952039 1.1226448 82.5
-0.099927992 -4.1095667 1.1010146 81.5
0.042388853 -4.1443939 1.1178682 80
-1.3267536 -3.8543236 1.1758354 2
-1.3175349 -3.6594074 1.1664746 1
3.4183025 -3.0424759 1.1241291 71
3.443213 -2.8692069 1.1802349 64
3.450115 -2.8502433 1.0988197 76
3.4568522 -2.8307145 1.1941876 69
8.7248878 -1.8047284 1.1138017 26
8.688468 -1.7479036 1.1781828 12
8.8978844 -0.77881747 1.1925211 21
-0.77455425 -0.72816873 1.1382275 0
-0.74661058 -0.61887777 1.0623618 0
-0.67282593 -0.43205062 1.0789388 1
9.0452642 -0.29027835 1.1467133 27
9.141902 0.21095632 1.1194323 29
-1.3746518 0.53721327 1.1379973 0
-0.93458033 0.58000386 1.1271305 0
-0.878681 0.56443399 1.1636235 1
-0.54516554 0.45941934 1.1162224 1
-1.377728 0.66687477 1.1296498 0
-1.1179554 0.61599255 1.1197934 1.5
9.2495747 0.72627014 1.1199768 27
-2.5135317 0.89393973 1.0616406 21
-3.2417414 1.0189744 1.1316428 8
-3.0568459 1.009711 1.1606814 27
-2.7608519 0.94541156 1.1053451 23
-0.37464723 1.4777235 1.099141 32
-0.26187482 1.5007713 1.0632653 11
0.086320862 1.7925618 1.137917 60.5
0.22389534 1.7608085 1.1181773 55.888889
0.39978957 1.7294347 1.1459143 55.799999
0.51908964 1.6988329 1.1094722 52.25
-0.17041206 1.8461728 1.0560257 60.5
-0.071967609 1.825694 1.1203041 53.5
7.4634676 2.3702374 1.1786133 30
6.7274394 2.5253997 1.1384838 36.5
6.0789704 2.6617162 1.1098763 43
5.4873896 2.7818739 1.1224804 43
5.5563769 2.7735453 1.082966 39
2.0068645 -4.5548182 1.269302 54
1.2945483 -4.4267216 1.3048855 0.5
1.475407 -4.4470606 1.2970217 60
1.7326672 -4.4949031 1.2722737 52
0.73476249 -4.2927957 1.3459156 63
-0.40518054 -4.0673146 1.27112 81.333336
-0.22666764 -4.0791984 1.2505108 82.666664
-0.804528 -3.9916112 1.3306671 83
-1.969476 -3.7551267 1.2571145 12
-1.3076279 -3.5450823 1.2535136 1
3.3831289 -3.3256087 1.3436948 0
3.4020088 -3.0938685 1.2748437 75
3.4730766 -2.779114 1.2774278 69
8.6022749 -2.2613628 1.2157524 28
8.6289654 -2.1996088 1.3001646 30
8.7980318 -1.3739903 1.3455565 30
8.8291521 -1.2616153 1.2736902 30
-0.81812787 -0.952999 1.2492878 0
8.8965797 -0.92494947 1.2932523 28
8.9916229 -0.46565729 1.288853 27.5
9.0483828 -0.22032985 1.3158598 28
9.0780106 -0.012349823 1.2573167 26.5
9.1557169 0.27421498 1.2984844 28
9.187995 0.43986076 1.2409914 28
-0.57034016 0.49469215 1.2093811 11
9.1760187 0.46506235 1.2512369 31
-1.5792499 0.71254653 1.2696046 1
-2.1826475 0.82922953 1.3197819 1
9.2621126 0.78362799 1.3066952 24
-2.543905 0.90052938 1.337595 20
9.2428503 0.9284538 1.2477061 18.5
-0.37742054 1.4748836 1.3059529 28
11.741263 1.4238865 1.2349805 5
12.098755 1.4167786 1.2406131 2
-0.22145618 1.6915088 1.2945541 15
0.10501546 1.792519 1.2717874 57.333332
0.23125942 1.7694397 1.2627909 61.25
0.36324969 1.7399117 1.2793127 56.363636
0.45673215 1.7205335 1.2320114 61
-0.16685657 1.8526232 1.2440226 64.5
-0.084648289 1.837225 1.2635837 65
0.056064196 1.8055159 1.2914505 61
8.3334122 2.1804323 1.2589344 14
8.4484129 2.1420925 1.2922667 19
7.5039463 2.3509333 1.2029355 34
7.0165572 2.4588289 1.3079053 38
5.901844 2.6994145 1.2830939 43
6.335434 2.6021662 1.2525368 35
6.5145478 2.5664985 1.3085668 36
5.3206863 2.828908 1.2483592 45.5
5.7535563 2.7270195 1.2220541 44
-0.7584433 4.118506 1.3251593 78
-0.65619731 4.1004972 1.290176 81
-0.56557775 4.0765629 1.2611672 93
1.0552875 -4.3578568 1.4352171 47
1.6955377 -4.4893541 1.3877144 55
0.45201588 -4.2190032 1.4639624 65
0.8506723 -4.3167262 1.3832242 57
0.95632082 -4.3387966 1.4506583 57.5
-0.4894278 -4.0678363 1.4007354 80
-0.40932766 -4.0702624 1.4317724 84
-0.63420391 -4.0329981 1.4135404 71.25
-2.1513731 -3.7226717 1.4652238 1
3.4069567 -3.0790417 1.4063193 70.5
3.4312434 -2.9416277 1.4050087 64
3.4701493 -2.7798219 1.4706411 73
3.492033 -2.6514099 1.4778272 68
8.7103586 -1.8221264 1.4181385 25
8.7284374 -1.7345104 1.3771424 32
-3.947777 -1.3949168 1.483793 92
8.8112268 -1.3207964 1.4615711 27
-3.8732371 -1.0567628 1.4325117 98
8.8636351 -1.1741477 1.431484 29
-3.8777664 -1.0490042 1.4826428 98
8.8710938 -0.89397514 1.3767376 21
8.9437275 -0.70094055 1.3590264 30
-0.67158586 -0.43361735 1.456984 1
-0.5750646 0.49709156 1.3914016 8
-1.254733 0.64934504 1.4048244 2
-2.4518127 0.88699466 1.4548199 19
-2.3030286 0.86629039 1.4648658 20
-2.6092777 0.92349899 1.4211688 19.5
-0.27116728 1.4755149 1.4323971 0
-0.25196207 1.5621166 1.4601741 10.333333
10.807683 1.6180826 1.4663213 2
11.418684 1.5319849 1.4626124 7
-0.2211805 1.690659 1.4648721 14.5
0.14285728 1.7874904 1.4480677 52.75
0.24462147 1.7646531 1.4083887 53.857143
0.32224941 1.7528632 1.4229705 49.5
-0.039902505 1.8262863 1.4228603 55.5
0.024962436 1.8095688 1.4414729 48
8.118453 2.225174 1.4571496 31
7.8226376 2.2858434 1.3945684 28
6.6629725 2.5357013 1.4750209 36
7.1789875 2.4430637 1.4954411 28
7.2530255 2.4147487 1.3665472 39
5.9737153 2.6956377 1.3851675 34
6.0348411 2.6737688 1.4614084 37.5
6.5328341 2.5788097 1.4297107 36
5.4933515 2.7867758 1.4028425 42.666668
-0.81073457 4.1265779 1.470705 80
-0.69645828 4.1079841 1.4476643 84.5
3.4726126 -4.9187293 1.5284501 39
3.655793 -4.9460855 1.6129836 40
2.9908442 -4.7762628 1.6441149 31
1.1473091 -4.3775196 1.5888646 60.5
0.57676101 -4.2506895 1.5045691 57
0.69523096 -4.2698808 1.5343331 58
0.79711145 -4.3061748 1.5677309 63
0.92397326 -4.3270235 1.5961423 61
0.18056561 -4.1616049 1.593546 68
0.3131898 -4.191278 1.6317374 70
-0.91365808 -3.9713478 1.5216193 28
-0.81804496 -3.9913378 1.5628344 77.666664
-0.66565514 -4.02459 1.566958 84
-1.8340021 -3.7929533 1.5763024 10
-1.7794266 -3.828465 1.546286 1
-3.9480178 -3.3371425 1.6014349 17
3.3858116 -3.1829548 1.590417 68
3.4182141 -2.995162 1.6261243 76
3.4654744 -2.7733686 1.5079148 69
3.4983265 -2.603333 1.5865959 64.5
3.516715 -2.5211952 1.5451088 59
8.61555 -2.2676768 1.5100099 31
8.6370516 -2.2043879 1.5075738 29
8.6462803 -2.0883346 1.6384321 32
8.699501 -1.733393 1.5516478 19
8.75107 -1.6342617 1.5216693 29
-3.9510832 -1.3881686 1.5344069 84
-3.930789 -1.2983053 1.6337396 77
-3.8914735 -1.1144321 1.6240991 92
-3.8580523 -0.96329367 1.6064363 85.5
8.8804569 -0.93973732 1.6195772 27
-4.1933613 -0.81183553 1.6277927 6
8.935236 -0.71244979 1.5953143 30
8.9752502 -0.48962641 1.5807132 27.5
9.0445385 -0.2525782 1.5504031 29
9.0671005 -0.031837314 1.5631127 24.5
9.1433086 0.21678106 1.5266913 30
9.1351166 0.38059083 1.6232578 23
-0.56519639 0.48865679 1.5260689 3
9.203618 0.48722902 1.5141271 29
9.2364492 0.69972789 1.5245445 29
-2.3217399 0.86768317 1.5791144 20
-0.35281599 1.4606063 1.5482724 0
0.1399443 1.7876294 1.5732467 49.5
0.20683637 1.7748451 1.5612162 49
-0.093502738 1.8398803 1.5816132 52.166668
0.059525568 1.8067564 1.5719317 51.5
8.8134909 2.0793643 1.526889 30
9.1492567 1.9839085 1.5886194 25
7.3859844 2.3809187 1.5523816 27
7.9295778 2.2828016 1.586216 29
6.6412926 2.5446489 1.6466998 37
6.0409346 2.6737313 1.589414 33
6.6292481 2.5561564 1.5654348 37
5.2994213 2.825469 1.6487669 39
5.5121813 2.7807221 1.5541941 43
-0.96593171 4.1653013 1.5750469 78.333336
-0.648283 4.0981178 1.5684096 83
3.1780021 -4.8117909 1.695804 35
3.3583577 -4.8896813 1.7404436 40
3.5209484 -4.9217 1.6618108 38.5
3.621248 -4.9370642 1.6529201 40
2.5382812 -4.6712227 1.7693769 13
2.5996051 -4.6702795 1.7791345 11.5
2.7320445 -4.690701 1.7890109 7.5
2.968574 -4.764668 1.7000202 32
3.090405 -4.7897735 1.7172517 34.5
3.723768 -4.6112738 1.7552902 14
0.44098955 -4.2171845 1.6656197 67
0.5490374 -4.2552147 1.703602 69
0.68083608 -4.2800374 1.7050145 60
0.88078153 -4.3049664 1.7152209 37.5
2.0277452 -4.2380719 1.740471 15
2.290597 -4.283474 1.7655693 54
-0.083720237 -4.1048555 1.7293795 62
0.056517255 -4.1246114 1.7626096 35
0.19037886 -4.1387267 1.7888705 52
1.6130323 -4.1371365 1.7451955 50
1.7194099 -4.1583171 1.7796308 64
-1.1140995 -3.915082 1.6943039 72.5
-0.96590257 -3.9286289 1.6920958 71
-0.87755954 -3.9516039 1.6877865 58.5
0.54341733 -3.915658 1.71393 12
-2.0215189 -3.7580097 1.7234097 10.5
-1.5786557 -3.7652659 1.790166 20
-1.3291733 -3.8935165 1.6542777 19
-1.0959327 -3.8555198 1.7652907 51
-0.34348553 -3.7791996 1.7288028 18
-0.20557117 -3.7522242 1.7297977 46
-0.071092382 -3.7742922 1.7572442 68
0.039643239 -3.7916472 1.7856911 70
0.35226148 -3.8571897 1.7515992 44
-2.0573144 -3.742734 1.71513 9.5
-1.8823224 -3.7283978 1.7242047 19
-1.3519793 -3.606421 1.7072002 12
-1.1932602 -3.6334283 1.7289482 36
-2.1530504 -3.5440004 1.77417 0
-1.2323518 -3.5416875 1.7420769 63
-1.1119075 -3.593091 1.6903018 52
-1.038383 -3.582932 1.7132028 49
-3.7820606 -3.3332572 1.7335106 41
-2.00333 -3.3813004 1.7328988 1
-4.3752084 -3.2150743 1.7542731 21
-4.3143654 -3.1652181 1.7819134 30
-3.9979722 -3.2261462 1.7772754 27
-3.6333485 -3.0377562 1.732332 63.5
-3.5084224 -3.093374 1.7121724 9
3.4195304 -3.0048583 1.7128936 74
-3.9206574 -2.975755 1.7406822 74
3.4444811 -2.8671663 1.6578239 70
3.4594643 -2.7893727 1.7501038 68
3.4973562 -2.6036572 1.7467792 64
8.5205603 -2.5520706 1.7876059 26
3.5137353 -2.5099139 1.7380544 59
3.6976056 -2.5080106 1.701182 21
3.7644608 -2.519819 1.6852795 18
8.5499783 -2.5372996 1.7794615 30
8.6193066 -2.1825762 1.7289876 25
-4.4198656 -1.9455938 1.7642989 74.5
7.8167963 -1.8546772 1.6659845 11
8.6618948 -1.8563612 1.7963232 24
-3.9975724 -1.6513817 1.6847032 77
8.6980944 -1.7865318 1.7199043 37
-3.9936545 -1.6421126 1.7437848 67
7.8899145 -1.5708929 1.7341851 48
8.7472754 -1.6051625 1.7569271 30
-3.9608667 -1.4632856 1.6820976 87
8.782443 -1.3826792 1.6793188 28
-3.9167631 -1.246006 1.7333002 79.5
8.8411951 -1.1620948 1.6635388 29
-3.8713543 -1.0055293 1.7546219 83
-4.0876012 -0.84924024 1.7118574 41
-3.8835809 -0.89549816 1.7483631 41
8.8894539 -0.85448861 1.7834631 8
-0.70109183 -0.3506946 1.7767318 3.5999999
9.0070524 -0.40955544 1.7446064 28
-0.65947175 -0.20322181 1.7786742 8
-0.62767857 -0.059713464 1.7739053 11.666667
-0.63896918 0.018203577 1.7916101 25
9.0942564 0.047420945 1.7211126 3
-0.52755618 0.3730582 1.7862918 4.5
-1.1449674 0.54082054 1.778448 2
-0.78699213 0.48713863 1.7042986 2
-0.60926509 0.47803894 1.7877163 8
9.1999474 0.51662242 1.7245089 29
-1.1312976 0.72123885 1.7969402 18.666666
-0.95809519 0.70296443 1.7933571 14.5
-2.4174159 0.89022392 1.7712561 39
-0.45639685 0.77188003 1.7639667 2
9.2378845 0.83080339 1.6581026 27
-2.8413978 0.97315013 1.6647652 18
-0.39532107 0.98225337 1.7985781 0
-0.40915686 1.1017677 1.7681801 1
-0.36494449 1.3049252 1.7607861 0
-0.30587307 1.4229885 1.7930104 0
-0.24889681 1.5630894 1.686922 15
0.088916339 1.7957104 1.67733 49.333332
0.18566783 1.7782383 1.7076768 49
-0.16384771 1.8553985 1.7251008 52
-0.064237066 1.8316202 1.7576116 57.333332
0.054904148 1.80875 1.7476417 49.666668
9.1307707 1.9340342 1.7942773 9
10.018291 1.8163201 1.7132868 2
8.8598642 2.0977895 1.7189087 29
8.1124859 2.2262666 1.7876681 31
8.2545719 2.1967871 1.6686183 29
7.3376493 2.3921323 1.7336076 27
7.3067555 2.4038975 1.657308 35
6.0639911 2.6805871 1.7543029 44
6.2844067 2.5878732 1.7812825 15
5.5483794 2.7806072 1.7043792 42
5.7962694 2.7272458 1.7144293 34
-0.79475695 2.9430292 1.7921985 57
-0.7188198 3.1050682 1.7958117 59.333332
-0.64838648 3.2294042 1.7919916 62
-0.96005005 3.4441071 1.7995969 59
-0.52950925 3.4164665 1.7977635 63
-0.55430138 3.4632525 1.7984265 55
-1.0890535 3.7526772 1.7953559 46
-0.80393636 3.77318 1.7948574 64
-1.1666445 3.9202292 1.7904342 62
-0.85439849 3.9451652 1.7898396 57
-1.0716196 4.1945095 1.7084154 77
-0.92152804 4.1446543 1.7417156 71
-0.62708247 4.0956287 1.7170511 89
-1.1655692 4.2001905 1.7576917 9
4.5396724 -5.0496922 1.8458945 17
3.6850739 -4.9245777 1.8104643 51
2.8890467 -4.7308216 1.8266829 32
2.1610203 -4.5278187 1.8293444 29
2.3430123 -4.51931 1.8395537 3
3.0808985 -4.6148648 1.8030564 6
2.2610302 -4.4730253 1.8244108 3
2.8746631 -4.4067192 1.8669854 66
3.2656367 -4.4923725 1.8022908 37
0.63651127 -4.2225118 1.8051609 56
1.9745781 -4.2099819 1.8798598 70
2.2255731 -4.2462187 1.8836941 64
2.4583378 -4.232738 1.8884586 47
2.574646 -4.3460979 1.8041958 50
3.9527891 -4.2224889 1.9128314 27
0.368801 -4.1691723 1.8125731 52.5
1.312125 -4.0789566 1.8371552 71
1.4242312 -4.0930595 1.8713635 66
1.5547075 -4.0894008 1.8920803 62
1.7245994 -4.1647825 1.8738643 71
1.8477615 -4.1750298 1.8048704 65
4.2462769 -4.153965 1.9099873 27
0.99355751 -3.9227974 1.8803192 55
1.5903074 -3.9477115 1.8886513 54
1.8263912 -3.9984996 1.8834411 50
2.0585921 -4.0211368 1.8853298 48
3.347997 -3.98563 1.9023436 36
3.6844127 -3.9887078 1.9037896 30
3.9799564 -3.9578855 1.9110388 31
4.053544 -3.9550176 1.9036165 25
0.14614649 -3.8125112 1.8777062 76
0.15934758 -3.8201511 1.8111719 60
0.31749654 -3.8564115 1.8375398 83
1.1354588 -3.86164 1.882295 55
1.248587 -3.8268905 1.8851017 56
1.4120188 -3.8185472 1.8830193 55
1.7070181 -3.8245282 1.8861471 51
2.8395183 -3.7718239 1.9005512 38
3.1914067 -3.825232 1.9014212 33
3.4475033 -3.8015416 1.907883 31
3.5433798 -3.8349481 1.8982905 32
3.9061635 -3.8225377 1.8935441 28
-0.58207899 -3.6729174 1.84243 80
-0.43363199 -3.6831779 1.8599161 83
-0.23268233 -3.6714249 1.87151 63
-0.065511182 -3.6023438 1.8796464 51
0.096177623 -3.6711779 1.8687567 52.5
0.6809178 -3.6863012 1.875486 56
0.83257794 -3.6290879 1.8753654 52
1.2463734 -3.6829252 1.8845898 52
1.3810297 -3.6145973 1.8768579 57
2.7504857 -3.6571062 1.8945736 41
2.9577255 -3.6253619 1.893543 34.5
3.0444131 -3.6757364 1.8909482 30.5
3.4044898 -3.716706 1.8919779 30.5
3.8100312 -3.7330747 1.8898095 24
-1.5709444 -3.4664485 1.8257269 46
-1.4050286 -3.5044253 1.8460997 1
-1.2921656 -3.5180228 1.8346056 71.333336
-0.082816646 -3.4988816 1.8721148 54
0.40155625 -3.4584517 1.8709408 54
0.99001122 -3.5944965 1.8841274 55
1.1571766 -3.5259166 1.8694702 52
2.3828335 -3.5337887 1.8970708 48
2.6011469 -3.5351341 1.8921372 40.5
3.068965 -3.474896 1.8866843 35
3.5050259 -3.5887752 1.8944491 31
-1.7504641 -3.4423168 1.8140243 27
-1.4247082 -3.3894491 1.8634055 34
-0.79506308 -3.4167707 1.8664185 60
-0.64056271 -3.4087031 1.8643435 60
-0.49648705 -3.4045999 1.8650812 58
-0.37395191 -3.3975534 1.8737875 62
-0.12385834 -3.3997285 1.8669558 60.5
0.51224399 -3.4219177 1.8687493 41
0.68488169 -3.3676536 1.877714 38.666668
0.88380104 -3.3120141 1.8638493 51
0.94813651 -3.4324739 1.8786291 49
1.0925362 -3.4190385 1.8695101 56
1.884058 -3.3141589 1.8778452 51.5
2.0135331 -3.34762 1.8891416 50
2.2062187 -3.3915489 1.8860511 48.333332
2.3096983 -3.4477854 1.8916487 46
2.6919098 -3.3725467 1.8907262 40
9.0542755 -3.384656 1.902831 12
-2.3261549 -3.298857 1.8563148 1
-1.9149128 -3.1646898 1.8531605 11
-1.7328236 -3.1989322 1.861523 24
-1.4504224 -3.2476358 1.8614966 25.666666
-0.30286157 -3.1581385 1.8610781 57
-0.27391016 -3.2469501 1.8685687 57.5
0.21117082 -3.2217908 1.8634295 57
0.37993109 -3.1848199 1.8640183 62
0.46732706 -3.1681614 1.8708805 63
0.6896587 -3.2061896 1.8762854 25
0.83745438 -3.2377253 1.8669151 57
1.5774641 -3.1923378 1.8750885 51
1.6819719 -3.170994 1.8827764 50.333332
1.8435595 -3.1509116 1.8863147 49
1.964098 -3.2974086 1.8788413 51
2.3323555 -3.2462161 1.8830901 47
2.4757676 -3.1584771 1.8858184 45
2.8028865 -3.2374668 1.8901485 43
3.1447682 -3.297339 1.887386 35
3.2920792 -3.1725104 1.8931679 43
3.3761914 -3.2285969 1.8056098 69
-3.6242821 -3.0365059 1.8321348 77
-1.5456491 -3.0683799 1.8655365 12.5
-0.97775471 -3.1283271 1.8593148 63
-0.82218462 -3.1352558 1.8573323 57
-0.6759041 -3.1412349 1.8572968 62
-0.54952776 -3.1362419 1.8614556 64
-0.33057424 -3.1206543 1.8601624 65
-0.070311993 -3.0252385 1.8617634 61
0.055589478 -3.0094118 1.8620056 62
0.4929086 -3.0630746 1.8653387 62
0.62359351 -3.0862217 1.8625795 31.5
1.2932531 -3.0633612 1.8720168 52.5
1.414107 -3.0291772 1.8764948 55.5
1.7218597 -3.0012989 1.8769172 46
2.0132375 -3.1250024 1.8803107 49
2.1743093 -3.0749617 1.8832284 49
2.8873246 -3.072433 1.8966383 46
3.062881 -3.0574234 1.8926827 41
3.404747 -3.0939927 1.8620039 77
-4.1363192 -2.883985 1.8411896 69
-3.8244133 -2.9402163 1.8445739 69.5
-3.6796851 -2.8923957 1.8598779 62
-3.494725 -2.9567308 1.862902 60.5
-1.6781554 -2.919282 1.85297 15
-1.5731872 -2.9448206 1.8528361 15.333333
-1.1373656 -2.8585746 1.8522578 66
-0.98259205 -2.88434 1.8551394 62
-0.83544093 -2.9051757 1.8587931 67
-0.7050547 -2.9024286 1.8572632 68
-0.47479251 -2.9146817 1.8572197 62.666668
-0.44160804 -2.991683 1.8610681 57
0.21725744 -2.9800558 1.8625084 66
0.40953335 -2.8953342 1.8532406 63.5
0.46042407 -2.9796436 1.8642346 61
0.99413353 -2.9421694 1.8612212 53
1.1319418 -2.8912766 1.8678913 56.666668
1.4140854 -2.9263105 1.8773054 51
1.5866721 -2.9367557 1.8751514 48
1.888361 -2.9783158 1.8753165 52
2.3726335 -2.8656883 1.8838509 48
2.5150378 -2.9569702 1.8938121 44
2.7049272 -2.9691355 1.8922139 45
2.9490054 -2.9062004 1.8939546 40.5
3.2646635 -2.9432495 1.8880683 39
3.3492498 -2.9286523 1.8920442 43
6.3217702 -2.9171808 1.912222 21
8.0504036 -2.9590425 1.8961908 18
8.2576694 -2.9082155 1.8915313 10
-4.520237 -2.8490908 1.8163055 83
-4.4726205 -2.8120577 1.8511041 76
-4.15061 -2.7069654 1.8516105 54
-3.8659134 -2.7950487 1.8530356 49.5
-3.5282755 -2.8324399 1.8567783 61
-3.3567023 -2.8131192 1.8467726 60
-0.59493661 -2.7273378 1.8637203 57
-0.26912516 -2.8190966 1.8571581 60
-0.077128842 -2.812191 1.8611065 59.5
0.082638934 -2.795655 1.8674141 74
0.24760346 -2.7727482 1.8622793 62.25
0.79872692 -2.7984128 1.8639047 38
0.94047815 -2.7437027 1.86551 63
1.108712 -2.7953563 1.8738905 58
1.2464286 -2.7880766 1.8664744 50.5
1.3846828 -2.7795837 1.8657113 54
1.8976758 -2.731384 1.9013852 39
2.0805705 -2.7682917 1.8842944 50
2.2076399 -2.7759175 1.8841946 47.5
2.3076811 -2.7621343 1.8863673 47.5
2.487067 -2.7348905 1.8795938 45
2.6270475 -2.8120687 1.8916966 43.666668
2.7634001 -2.7401369 1.8844081 42.333332
2.9924817 -2.8347557 1.894369 44
3.0691564 -2.7563345 1.8868355 39
3.3599088 -2.7512043 1.8880616 37
3.4519265 -2.8114643 1.8785468 58
5.9551253 -2.824173 1.9059633 20
6.4380913 -2.8456342 1.8922497 23
7.088954 -2.7123985 1.8960191 22
-3.9684248 -2.6321092 1.8719958 24
-3.7014928 -2.6955659 1.8719288 38
-3.5563772 -2.5655475 1.9467424 60
-3.4105082 -2.6421828 1.9475452 61
-3.1364689 -2.575788 1.9429578 59
-1.7643707 -2.654762 1.8534316 7
-1.6307451 -2.6802797 1.8564607 15
-1.2815818 -2.6152031 1.8559631 61
-1.1274753 -2.6549494 1.8599135 63
-0.97799379 -2.6799877 1.8577503 62
-0.84536767 -2.6920636 1.8602616 59
-0.63710749 -2.6773326 1.8547164 60
-0.37874216 -2.6313639 1.8610252 61.5
-0.1847055 -2.6344888 1.86366 59
-0.079679668 -2.6228907 1.8660101 66
0.071717039 -2.5882044 1.8597366 64.5
0.5365833 -2.6789556 1.8585092 62
0.66830218 -2.6323979 1.8600742 42
0.82639509 -2.6147532 1.8691894 43.5
0.99933201 -2.626549 1.8624281 57
1.1639245 -2.680531 1.8648196 59
1.5943751 -2.5756321 1.8810005 38
1.741749 -2.6029265 1.8854921 37.75
1.8982674 -2.6305192 1.8888279 39.666668
2.0187824 -2.6496453 1.8826622 45.5
2.1845202 -2.6487279 1.8833592 47
2.3311498 -2.6669557 1.8871788 47
2.4613001 -2.6179724 1.8827204 45
2.782326 -2.6322968 1.8896159 40
3.1003809 -2.6698997 1.8923789 38
3.3845279 -2.689683 1.8884715 42.5
3.5129938 -2.5644045 1.8170928 69
4.0092549 -2.5773749 1.806887 19
5.2875009 -2.5656919 1.8972601 26
6.4722581 -2.68979 1.9038209 21
7.6096134 -2.6266701 1.9286631 24
8.4802513 -2.6399646 1.8736135 1
-4.5166521 -2.4053161 1.8001572 81
-4.256856 -2.5405653 1.8565744 53
-4.1543646 -2.4716361 1.8714617 24
-4.0353904 -2.5080178 1.9463524 66
-1.754476 -2.4498153 1.8571267 1
-1.1060942 -2.4724107 1.8617967 30
-0.96911716 -2.4847581 1.8559479 58
-0.77047402 -2.4667315 1.8542755 59
-0.68475461 -2.4795663 1.8631431 60.333332
-0.46730453 -2.4496157 1.8573412 68
-0.33693269 -2.4586723 1.8596033 65
-0.22667275 -2.4521122 1.8590926 70
-0.084282331 -2.4154513 1.8604521 69.75
0.15309249 -2.4143465 1.8628403 66
0.3858403 -2.5339887 1.8618996 61
0.55778116 -2.4793649 1.862451 61
0.66451162 -2.435945 1.8652321 57.5
0.80230379 -2.5076914 1.8645605 28.666666
1.28619 -2.4438634 1.866693 58.75
1.4323668 -2.5026548 1.8692204 56.666668
1.5269625 -2.4934065 1.8716623 52
1.6950552 -2.4852774 1.885013 37
1.8180466 -2.4683604 1.8825564 41
2.0087447 -2.4712443 1.8779328 45.5
2.1679273 -2.4782577 1.881027 44
2.338623 -2.4944429 1.884369 46.5
2.5903516 -2.5141239 1.8851336 44.5
2.8032777 -2.5438411 1.8877696 41
2.9023986 -2.4984174 1.8827974 42
3.0727999 -2.5400276 1.8904516 40
3.1889012 -2.4955289 1.885296 39
3.3473542 -2.5201559 1.8917323 40
3.4895742 -2.4783821 1.8879794 52
3.6063955 -2.4699788 1.8788861 37
3.8227706 -2.4827561 1.8619535 27
3.9184215 -2.4320624 1.891776 27
4.2524486 -2.4970226 1.8880643 22
5.3350525 -2.5193565 1.8944727 26
5.4949894 -2.4979241 1.904899 18
5.7264938 -2.4537232 1.9012839 29
7.0355525 -2.525269 1.9123317 22
7.7299213 -2.5126317 1.8888525 23
-4.4866996 -2.3822005 1.8424174 75
-4.1501355 -2.3214464 1.8975389 56.5
-2.9759953 -2.3251617 1.9489614 62
-2.744215 -2.3514202 1.9435314 55
-2.0681589 -2.3554473 1.868168 5
-1.8463144 -2.3336811 1.8637382 3.5
-1.4080082 -2.378715 1.8564645 21
-1.2182086 -2.2629387 1.8574737 14
-1.0800352 -2.2881939 1.8538655 32
-0.90538812 -2.2573564 1.8465875 58
-0.84676337 -2.2733784 1.8551021 61
-0.67773366 -2.2605879 1.8539824 60.5
-0.47450688 -2.2867465 1.8528486 69
-0.35895959 -2.2909985 1.8555321 69
-0.19506381 -2.2543819 1.8615543 69
-0.016909827 -2.271975 1.8574129 73
0.095605746 -2.2562466 1.8584429 59
0.2578854 -2.385916 1.8585674 61
0.40498295 -2.3243129 1.864378 67.333336
0.50744998 -2.3047273 1.8651935 62
0.61815059 -2.3774333 1.8599724 55
0.8538363 -2.2928438 1.8666285 28
0.97656715 -2.3199055 1.8672562 42.5
1.1217337 -2.3327837 1.869742 54.799999
1.2851521 -2.3118954 1.8668236 55
1.4398649 -2.3151016 1.8632784 53
1.5733556 -2.3420045 1.8673093 51.25
1.691678 -2.3550491 1.8687131 47.5
1.8736553 -2.3720441 1.8830976 31
2.057868 -2.3606694 1.8762828 46
2.2879159 -2.3766446 1.8820943 47
2.5225124 -2.3776035 1.8856782 47
2.7540224 -2.3588324 1.8820847 41
2.9954853 -2.3297889 1.8813897 42
3.2484813 -2.2923605 1.8862275 43
4.1222157 -2.3875971 1.8907174 30
4.2277761 -2.3703759 1.8982447 22
4.4509845 -2.3099055 1.8906194 28
4.5533285 -2.339684 1.896067 23
4.8749585 -2.2645645 1.895444 24
5.7340903 -2.3797033 1.8975693 21
5.9638119 -2.3717706 1.9089001 19
6.1572313 -2.3030581 1.8992974 23
7.5289354 -2.2905648 1.8989784 22
8.1630249 -2.3664289 1.9049498 21
8.369175 -2.2518184 1.8824133 12
-4.2704139 -2.1475816 1.8496057 56
-4.1024685 -2.130965 1.9432427 42
-3.8111188 -2.2253356 1.9467591 61
-3.2028785 -2.2383628 1.9420751 56
-2.7639542 -2.1149077 1.9431362 65
-2.6194167 -2.1824417 1.9446764 61.5
-1.8529468 -2.2103722 1.862602 2.5
-1.5188757 -2.1491354 1.8539187 13
-1.3656625 -2.209039 1.8547236 19
-1.1823734 -2.1063266 1.8567146 20
-0.73414934 -2.1022553 1.8538455 60
-0.53916144 -2.1349311 1.8555781 66.5
-0.21770605 -2.2135823 1.8536946 68
-0.05172931 -2.1282899 1.8599721 61
0.058393043 -2.112673 1.8589407 73
0.25180998 -2.1982327 1.8577162 65
0.3242718 -2.1481731 1.8626295 66.333336
0.46991473 -2.1211379 1.85613 69
0.674142 -2.2007475 1.8628075 60.5
0.81088239 -2.1362784 1.8646979 36
0.9652524 -2.2036996 1.8675573 43.799999
1.0985447 -2.1707768 1.864797 54.799999
1.2718976 -2.2183111 1.8679909 55
3.4982228 -2.2350867 1.887488 37
3.7340219 -2.1552823 1.8809811 25
4.7854457 -2.2111151 1.8926924 23
4.8471756 -2.1800888 1.9009827 24
5.1760426 -2.113492 1.8984307 25
6.1113944 -2.2006185 1.8932785 22
6.4077663 -2.1963398 1.9023913 21
6.5539985 -2.1063271 1.8855184 22
-4.1474285 -2.0760794 1.8498625 59
-3.4976082 -1.9684619 1.9417018 59
-3.3187127 -2.0738506 1.9442936 56
-3.0319736 -2.0169663 1.9423164 59
-2.8151491 -2.0580809 1.9460391 68
-2.594017 -1.9749469 1.9423188 55
-1.464744 -1.9993665 1.8508233 12
-1.3175018 -2.0604422 1.849398 15
-0.96376371 -2.0731831 1.8528159 58.75
-0.87467796 -2.0673151 1.8517219 63
-0.71120942 -1.9718884 1.8516132 66
-0.58788025 -1.9920576 1.8539306 68
-0.34090343 -2.0667 1.8560015 70.800003
-0.18689078 -1.9963436 1.8563951 70
-0.071188495 -1.9895719 1.8571075 78
0.10212211 -2.0354173 1.8596863 70.333336
0.18443875 -2.0134227 1.8574156 67.333336
0.35349658 -2.0098116 1.8584747 65.5
0.53966236 -2.0022285 1.8559819 64
0.66982752 -2.027082 1.8580875 65.428574
0.80476332 -2.016685 1.8562647 47.200001
0.95474696 -2.0744517 1.8693634 32
4.0020204 -2.0743246 1.8906001 25
4.2549314 -1.970839 1.8949007 21
5.1465654 -2.0726676 1.901199 25
6.4816771 -1.9905627 1.8906564 22
6.9172988 -2.0010779 1.9174095 20
8.0840921 -2.0261123 1.9067751 25
-4.222084 -1.9363925 1.8481854 64
-4.0213108 -1.9089551 1.9129617 44.5
-3.8416431 -1.8815082 1.9445667 61.5
-3.6537421 -1.8704594 1.9424578 59
-3.2373884 -1.8875284 1.943506 57.5
-2.8777452 -1.8298746 1.9388715 59
-2.7577059 -1.8424082 1.9375757 53
-2.6719904 -1.9115524 1.9411563 62.5
-2.4707017 -1.8203741 1.9419228 63
-1.4077355 -1.8706034 1.8470358 9
-1.2702624 -1.9216894 1.8485738 16
-1.0871134 -1.8850904 1.8484513 14
-1.0086596 -1.8851432 1.8521305 27.666666
-0.83116388 -1.8745763 1.8493146 71.5
-0.64852977 -1.8252294 1.8521391 76.5
-0.48669076 -1.9384003 1.8517421 76
-0.40358174 -1.8879716 1.8550353 77.25
-0.18895033 -1.876875 1.8673383 35
-0.10015971 -1.8469355 1.8718736 40
0.042622771 -1.8829645 1.8578312 70.599998
0.23543702 -1.8809465 1.8547606 72
0.39357853 -1.8690921 1.8572663 72
0.49908006 -1.8887219 1.8575512 69.166664
0.64949328 -1.8920761 1.8587927 63.666668
4.4913259 -1.8448159 1.8929905 22
5.4645042 -1.9265647 1.9015036 26.333334
7.1058464 -1.9162409 1.9230782 22
-3.9897254 -1.707762 1.8625715 27.5
-3.7507379 -1.6732841 1.9475828 64
-3.6844354 -1.6775856 1.9484462 57
-3.5395484 -1.6597412 1.9415566 56
-3.3353419 -1.7588924 1.9457664 57
-3.0948064 -1.7313319 1.9465367 60
-2.8644664 -1.767954 1.9360491 57
-2.7212541 -1.6566093 1.9394299 60
-2.6284249 -1.7142127 1.9424638 60
-2.3663623 -1.6777753 1.9433006 52
-2.1489804 -1.7546628 1.9386755 60
-1.354404 -1.7535177 1.85295 10
-1.124198 -1.7076733 1.8519666 19
-0.92845875 -1.7188624 1.8478526 69.5
-0.77783483 -1.7070575 1.8517431 74
-0.70587301 -1.6549078 1.8457729 79
-0.54529077 -1.7545298 1.8530633 80
-0.42392337 -1.7396518 1.8565143 79
-0.22531532 -1.7120079 1.8538799 78.25
-0.063904643 -1.7526059 1.8570786 76.25
0.079042681 -1.7188821 1.8530045 71.666664
0.22709836 -1.7109473 1.8541292 73.555557
0.37346604 -1.7447352 1.8561102 73.333336
0.53720516 -1.7897491 1.8573538 74.5
4.7338724 -1.7064722 1.8973511 22
5.7484536 -1.7384115 1.8973588 25
6.8110175 -1.7413517 1.8816775 21
7.3645396 -1.7453576 1.9159576 23
-3.9440272 -1.5492626 1.8886151 57
-3.8376365 -1.5417532 1.9385637 65
-3.6935945 -1.5449103 1.937977 58
-3.3171659 -1.6152304 1.9448353 64
-3.2372079 -1.5710874 1.948068 62
-2.9292483 -1.5644398 1.9351124 58
-2.8026547 -1.5749143 1.935439 58
-2.5358956 -1.5630393 1.9410557 55
-2.2680347 -1.5592774 1.9447385 59
-2.1538715 -1.5819416 1.9423202 63.333332
-2.0490384 -1.6218195 1.9460449 64
-1.2456545 -1.5333179 1.849566 13
-1.1787752 -1.5398188 1.8509949 13.5
-1.0144136 -1.5626528 1.8419693 24.5
-0.82680297 -1.5427344 1.849445 83.5
-0.63661849 -1.6095309 1.8523617 81.25
-0.50851285 -1.5579305 1.851414 74.5
-0.36563697 -1.5769658 1.8537731 82.333336
-0.23459467 -1.5901357 1.8545252 83
-0.074141905 -1.557462 1.8536457 78.599998
0.073505618 -1.5867879 1.8512661 77.714287
0.20357372 -1.5853647 1.8538982 75.25
0.33006823 -1.5926399 1.8567613 88
4.9606419 -1.5484765 1.8986846 23
5.9318976 -1.5081183 1.8898267 23
6.0761437 -1.5402243 1.9003671 29.5
7.415329 -1.6285716 1.8904763 23
-3.9177046 -1.3861834 1.8783706 85
-3.782681 -1.3714801 1.9465042 67
-3.6542902 -1.3695505 1.9431939 61.5
-3.5462327 -1.3595403 1.941033 59
-3.3716249 -1.4746087 1.9458475 65.5
-3.1322694 -1.4460253 1.9347094 62
-2.9132628 -1.4936227 1.9311851 59
-2.7665482 -1.4119816 1.9399065 61
-2.6569796 -1.4654757 1.9409419 52
-2.4281657 -1.4424055 1.942665 51
-2.1585152 -1.3951879 1.9413201 65.333336
-2.0614467 -1.419975 1.9404866 56
-1.904792 -1.3603182 1.9327585 63
-1.2803092 -1.3688519 1.8512738 0.25
-1.1319777 -1.4008412 1.8561139 12.333333
-0.93410093 -1.4342405 1.8453683 25
-0.81457663 -1.3932719 1.8501544 73
-0.68903559 -1.4528308 1.8518203 82
-0.54042494 -1.3737556 1.8547943 79.5
-0.3835381 -1.4344392 1.8532611 77.666664
-0.22283864 -1.420092 1.8544137 76.125
-0.068289034 -1.4130853 1.8535725 71.666664
0.060834795 -1.4350551 1.8538944 81.5
0.23266776 -1.4973483 1.8517102 99
5.1759777 -1.3736489 1.9003397 24
7.2142792 -1.4819142 1.9025968 22
7.7070017 -1.4330511 1.8934389 23
-3.9237273 -1.2929994 1.8745177 64
-3.8867323 -1.2318691 1.9436582 88
-3.7370491 -1.2342597 1.9375061 63
-3.3817029 -1.2610565 1.9422845 74
-3.2444229 -1.2942404 1.9408168 63
-2.9705415 -1.2709296 1.9324344 65.5
-2.8429098 -1.3172233 1.9334463 59
-2.6351948 -1.2706513 1.9389817 56.5
-2.4814842 -1.2119764 1.9407574 51
-2.2969234 -1.3215836 1.9387544 62.5
-2.2226915 -1.2426499 1.9375128 62
-2.0312355 -1.2466223 1.9370879 65.5
-1.8482698 -1.3142229 1.9358946 58
-1.7510431 -1.215633 1.9431816 65
-1.1349051 -1.2377459 1.8491536 1
-0.94125968 -1.234899 1.8470234 26
-0.82087213 -1.2601378 1.8503345 70.599998
-0.69291401 -1.2948854 1.8530234 79
-0.51720256 -1.2700324 1.8527887 78.800003
-0.36692071 -1.2622054 1.853142 68.199997
-0.22135223 -1.2750852 1.8532914 66.14286
-0.060136639 -1.2757384 1.8554814 66.599998
0.064746484 -1.3141831 1.8456081 82
6.1490235 -1.2674117 1.8901669 21
6.3387651 -1.3072407 1.8929266 22
7.7891884 -1.3269005 1.8849374 24
8.7587795 -1.2869744 1.841283 21
-3.8941355 -1.1509343 1.8800104 56
-3.682946 -1.0816522 1.9432753 66.5
-3.5722389 -1.066808 1.9370347 62
-3.3920498 -1.1894162 1.9362134 61
-3.1807759 -1.1773378 1.9359828 62
-3.0288055 -1.0642853 1.9340285 65
-2.8810906 -1.0694864 1.9352916 55
-2.8068929 -1.1732817 1.9389752 62.5
-2.6362851 -1.0691386 1.9354447 58
-2.3470678 -1.1061862 1.9367312 62
-2.1911318 -1.1589327 1.9356278 62.5
-1.9908305 -1.115768 1.9349077 66
-1.8755398 -1.1338615 1.9368256 66.75
-1.6698176 -1.1504867 1.9421061 69
-0.92804569 -1.1292002 1.848444 27
-0.84020466 -1.1132997 1.8432837 43
-0.67455262 -1.124589 1.8505054 87
-0.53385592 -1.1346954 1.8478872 74.85714
-0.38136259 -1.1319913 1.8495027 60.285713
-0.22493406 -1.1346169 1.8478931 56.833332
-0.11763352 -1.1174799 1.8535948 66.333336
5.3735332 -1.1821241 1.9014732 25
6.5799718 -1.0607067 1.8977669 21
7.4846406 -1.1706405 1.8953282 23
8.1001854 -1.0971462 1.8984655 22
-3.8157246 -0.91799587 1.898497 44
-3.4121885 -0.96120042 1.933854 72.666664
-3.2362227 -0.97053671 1.933872 67.5
-2.9447093 -0.96677381 1.9334717 64.5
-2.7954457 -0.92215282 1.9346055 56
-2.6996484 -0.99963957 1.9392227 57
-2.4712446 -0.95097351 1.9326537 58
-2.2695522 -0.98763263 1.9335458 62.5
-2.1570363 -1.0001969 1.9379758 62.5
-1.9926047 -0.93620706 1.9292521 67.5
-1.8709038 -0.97401577 1.9380238 66.25
-1.7200454 -0.98521316 1.9370238 78
-1.5010457 -0.92625242 1.9372221 74
-1.4127082 -0.9238736 1.9391176 70
-0.91808176 -0.95386004 1.836604 30.5
-0.83205903 -0.97935647 1.8402801 46.25
-0.68920255 -0.98927987 1.8466717 88
-0.51984864 -0.96847904 1.8384712 58.099998
-0.3771995 -0.96467209 1.8385383 48.857143
-0.23369463 -0.99216372 1.8403438 39
5.5481596 -0.97407877 1.8993572 26
6.3262582 -1.0095097 1.8873135 21
6.6137199 -1.046548 1.8851165 23
8.1427135 -0.98940468 1.8843523 20
-4.0474734 -0.75026566 1.8400267 4
-3.8429661 -0.82471317 1.8662182 46.333332
-3.6739933 -0.79418796 1.9403647 76.666664
-3.2676992 -0.77631927 1.9355935 81
-3.0730228 -0.82056981 1.9351693 71
-2.9147394 -0.826693 1.9370517 60
-2.7161577 -0.77770424 1.9389464 70
-2.6223135 -0.79728729 1.9344957 62.5
-2.3360143 -0.86058688 1.9315848 69.5
-2.1825452 -0.8064779 1.9369487 70.5
-2.0569 -0.81312865 1.9309008 69
-1.8802496 -0.81615877 1.9341378 69
-1.7664635 -0.82378691 1.9345235 80
-1.5356961 -0.80500966 1.9381968 72
-1.4164597 -0.8102476 1.9405988 74.666664
-1.2797391 -0.82028186 1.8895848 81.5
-0.94235814 -0.82259244 1.8518101 0.5
-0.80062491 -0.81853181 1.830772 36.833332
-0.66299325 -0.81830829 1.839736 73.571426
-0.5348708 -0.83017701 1.8413479 69.199997
-0.38070616 -0.83178061 1.8388673 58.666668
-0.25925273 -0.84442824 1.8393102 48.5
5.7168927 -0.75399178 1.9042436 26
6.7784214 -0.77139533 1.8759542 24
7.6464314 -0.82759738 1.8706478 23
-4.0423017 -0.71698391 1.836095 5
-3.8082366 -0.62883544 1.933957 1
-3.4725652 -0.68045348 1.9295648 76
-3.4327714 -0.69787312 1.9357846 40
-3.2574914 -0.65198129 1.9318291 68
-3.0384064 -0.71868575 1.9298338 74
-2.9308491 -0.7335251 1.9367667 70
-2.8232903 -0.69211394 1.9405638 62
-2.4609897 -0.71065742 1.9311863 66
-2.3497691 -0.68076539 1.9317584 65.333336
-2.1649191 -0.64013684 1.9358026 69
-2.0223465 -0.70554495 1.9338007 67
-1.8627437 -0.66278511 1.9362378 69.666664
-1.5829531 -0.72976893 1.9328655 72
-1.4326452 -0.66968727 1.9392527 74.25
-1.3024287 -0.69115961 1.9412853 74
-1.1145926 -0.66402042 1.8302846 65
-0.80112493 -0.66687155 1.8252854 28
-0.66628414 -0.66785067 1.8360996 79.444443
-0.52999216 -0.682733 1.8374541 77.222221
-0.38154194 -0.67646873 1.8382286 67.400002
6.5197864 -0.74172193 1.9006089 35
8.3594799 -0.71403354 1.8809835 18
8.4399633 -0.61708194 1.8833321 17
-3.0931635 -0.52237535 1.9334525 40
-2.9557998 -0.54742664 1.934827 68
-2.7568417 -0.53873473 1.9324886 69.333336
-2.6046989 -0.54430127 1.9344686 71
-2.3224068 -0.52272415 1.9282523 68
-2.1565843 -0.51981032 1.9307425 71.5
-2.0203161 -0.53535903 1.931542 67.5
-1.9028991 -0.51844746 1.9300969 76
-1.5634904 -0.58118254 1.9363039 72
-1.4463087 -0.50205636 1.9380466 75
-1.3409839 -0.55763453 1.939185 80
-1.1167723 -0.53238934 1.8286356 78.599998
-0.95560324 -0.51509988 1.8348292 70.85714
-0.67344552 -0.54011321 1.8317686 63.285713
-0.55015934 -0.51617861 1.83603 83.199997
-0.41683134 -0.51862454 1.8360494 74.333336
5.8337502 -0.51806486 1.8971981 27
6.5776558 -0.45326537 1.8799726 22
6.983633 -0.47556445 1.8777605 18.5
7.8550177 -0.47285151 1.8734053 22
-2.9597294 -0.34717828 1.9312958 61
-2.1286507 -0.36262307 1.9271432 72
-2.0017107 -0.36425328 1.9278355 76.75
-1.877745 -0.34103447 1.9291683 80
-1.5738277 -0.39808744 1.9332079 79.599998
-1.424163 -0.39228225 1.9388142 79
-1.2472091 -0.40146095 1.9372046 90
-1.1060516 -0.36791366 1.8415205 82.599998
-0.96992749 -0.36633596 1.8293114 80
-0.8127147 -0.36176309 1.8297497 80.625
-0.67541713 -0.39046615 1.8286285 51.799999
-0.52435625 -0.37703276 1.8376369 79
-0.44559222 -0.4011139 1.8375207 77
8.5869703 -0.30507642 1.8745493 21
-1.9812226 -0.20399973 1.9281693 82
-1.9048517 -0.23471707 1.93076 78.5
-1.6545846 -0.24502416 1.9308724 86.5
-1.5528368 -0.23482735 1.9317617 85.333336
-1.4407264 -0.22656631 1.9355172 81.75
-1.272295 -0.25920904 1.938548 101.5
-1.1266557 -0.2094316 1.8727398 92
-0.97167623 -0.22806939 1.827049 78.599998
-0.82474595 -0.20767343 1.8311952 79
-0.66025341 -0.22503242 1.8241556 41
-0.52049404 -0.2251606 1.83409 76
5.9489236 -0.27287146 1.8989471 27
6.6769981 -0.16323592 1.8857468 22
7.1487541 -0.19263422 1.8816217 15
8.6545887 -0.21523435 1.8753237 13
-1.9807099 -0.060561802 1.9263631 84
-1.917575 -0.068821736 1.928067 83.5
-1.6714225 -0.078164659 1.9301738 85.5
-1.5525652 -0.092119679 1.9327865 89.75
-1.4487524 -0.031727288 1.9357141 85
-1.2570198 -0.076024726 1.9343281 96.800003
-1.0851489 -0.095919803 1.8340034 88.5
-0.99232024 -0.083069146 1.824477 78.800003
-0.83383894 -0.070459865 1.8373395 65
-0.72013146 -0.07405746 1.8313292 74
-0.52321309 -0.064301893 1.8327519 75
6.0126581 -0.019798027 1.8928081 20
7.077323 -0.12906711 1.8562878 20
7.9454832 -0.10055503 1.8598622 21
-2.5796027 0.11520524 1.9224261 70
-2.4850476 0.11144649 1.9215575 75
-2.1620703 0.07527253 1.9236228 76.5
-2.0348601 0.041371632 1.9239188 80.5
-1.9034197 0.04199069 1.9263142 76
-1.6787754 0.088221416 1.92676 81.5
-1.5600638 0.0602521 1.9282413 88
-1.4546723 0.10671295 1.9319402 87.5
-1.2567415 0.079570077 1.9328649 96.5
-1.1238643 0.060081106 1.9094771 87
-1.0001184 0.075621024 1.8229709 81
-0.8618747 0.077810459 1.8262267 81.111115
-0.70209289 0.07949055 1.8261795 71.666664
-0.53183651 0.074478164 1.8298439 74.75
6.7247663 0.13381629 1.8871285 21
7.2898421 0.13010994 1.8817824 16
8.7434378 0.12476838 1.8703038 19
-2.1781726 0.22803488 1.922135 75
-2.0433922 0.22341987 1.9241711 77.25
-1.9227118 0.17930731 1.9216232 81
-1.6811569 0.25678945 1.9248468 88
-1.5649149 0.21385166 1.9290485 89.75
-1.4562283 0.24824691 1.9295213 86.5
-1.2452711 0.21498945 1.9029454 92.5
-1.1224216 0.2466096 1.8485781 86.5
-1.0010445 0.22005495 1.820057 76.25
-0.84356081 0.23481151 1.8229873 85
-0.7019394 0.22528802 1.8281926 78.166664
-0.53441441 0.21526782 1.8186636 39.666668
6.0734048 0.23850927 1.8952583 28
7.1704593 0.20175493 1.8559421 20
8.0281019 0.2791681 1.8623687 21
8.7980566 0.20437782 1.8675786 14
-2.5089543 0.3122147 1.9188706 73
-2.1458752 0.38257715 1.9183186 82
-2.0214367 0.36224183 1.9222436 85.666664
-1.8951573 0.41178963 1.8723544 85.5
-1.568187 0.36331332 1.8354439 86.800003
-1.4203106 0.3860321 1.829111 87.666664
-1.2496538 0.37047175 1.8289287 59.5
-1.12735 0.38314188 1.8227684 76.75
-0.99813527 0.36840975 1.8219906 79
-0.8364628 0.36953121 1.8229297 81
-0.69004852 0.38173798 1.8259887 78.428574
-0.51849926 0.35436517 1.8153793 16
6.7293367 0.42910019 1.8864883 21
-2.7251732 0.57084411 1.852348 52
-2.6148026 0.54870564 1.8372637 60
-2.5216298 0.51918888 1.8680609 62.5
-2.0083961 0.53736639 1.8177648 84.75
-1.8563354 0.49587733 1.8223705 83
-1.5752763 0.53836703 1.8295634 68.25
-1.4312868 0.50871521 1.8286735 64.75
-1.260613 0.47389245 1.8585118 30
-1.1235064 0.48351371 1.8226753 75.5
-0.97561198 0.53135318 1.8233089 35.200001
-0.84039247 0.52609354 1.8201381 30.714285
-0.67200923 0.4603349 1.8206662 42.5
-0.49416131 0.5256899 1.822498 4.5
6.0745597 0.49949265 1.8879515 25
7.2010546 0.53848779 1.8544902 21
7.3703246 0.46468034 1.8784055 18
8.7726383 0.56321448 1.8582875 9
-2.7528927 0.63371921 1.8235906 77
-2.6307082 0.68277055 1.82962 75
-2.4885426 0.71749115 1.8180324 78.5
-2.0407605 0.66784579 1.8174649 87.333336
-1.8970542 0.63417459 1.8199611 89
-1.7969854 0.68011862 1.8269223 20
-1.5513439 0.67873651 1.826547 24.666666
-1.4431753 0.66476822 1.8255057 14
-1.3005629 0.6607523 1.8281579 18.666666
-1.1265093 0.66297251 1.8126049 22.25
-0.95468819 0.65602368 1.8045384 21.75
-0.84182996 0.68597806 1.8017761 0
-0.46606025 0.65463859 1.8174969 4
-0.44105119 0.7397365 1.8045634 11
6.6650085 0.72093058 1.8759757 21
8.0127439 0.66104102 1.8570207 21
8.9002953 0.63955915 1.8689638 10
-2.8925793 0.83001745 1.827161 76
-2.7535908 0.86102009 1.8265694 87
-2.6423471 0.8216362 1.8247904 79
-2.0276055 0.77074558 1.8213559 42.333332
-1.8310078 0.877774 1.9058877 18
-1.5686951 0.80694944 1.8554993 18
-1.4565711 0.8409211 1.8825725 17.666666
-1.0035729 0.76744413 1.8097848 31
-0.50828314 0.88039029 1.8262933 49
-0.41337058 0.83364773 1.8153607 25
6.0585546 0.76133168 1.8851162 20
7.183773 0.87647432 1.8549794 21
7.3843112 0.80390489 1.8695184 17
-2.0227876 0.92500049 1.8989946 18
-1.6408367 0.93193924 1.9242958 18
-0.50654668 0.99750626 1.8226767 54.25
-0.36139482 0.97900677 1.825634 69.5
5.9882607 1.0170274 1.8755552 20
6.5540428 1.0009338 1.8636163 21
7.9265022 1.0347104 1.8502015 22
8.7587624 1.0043193 1.8581127 15
-0.51052827 1.1363455 1.8266543 69.333336
-0.35480121 1.090381 1.8091751 32
-0.29834712 1.1262791 1.8305238 71
7.3819418 1.149147 1.8703018 21
8.8637323 1.0728798 1.8574709 15
-0.53625399 1.2899295 1.8264911 77.428574
-0.38398382 1.2474372 1.8276393 64
-0.23125379 1.2917809 1.830204 68.333336
5.9259009 1.2732197 1.8803061 20
6.4729609 1.2811292 1.871776 22
7.1870375 1.2195429 1.8779246 24
-0.60507804 1.461318 1.8164703 76
-0.51491159 1.4284621 1.8216841 70
-0.40989986 1.4184783 1.8156315 45.799999
-0.25029224 1.4233624 1.8214509 55.75
-0.12884878 1.4313277 1.8260695 65
7.3088503 1.4859824 1.8663563 22
7.7754765 1.3943522 1.8443516 23
8.622159 1.4291409 1.8520147 23
10.387211 1.4353553 1.9283043 3
11.07101 1.418069 1.886495 10
-0.62955922 1.5365828 1.8233787 73
-0.53070724 1.5793967 1.8166515 73.5
-0.42459139 1.5547981 1.8173915 67
-0.20675263 1.5492555 1.819869 76.199997
-0.095807776 1.5829133 1.8224337 71
0.023205917 1.6479982 1.8219424 75
5.7912312 1.5118083 1.8705593 28
6.3074675 1.5383836 1.8639666 31
7.0248442 1.533739 1.8686696 25
8.7758427 1.500537 1.8539463 19
9.8210545 1.5612353 1.892882 4
-0.6402908 1.704219 1.8136338 65
-0.55942559 1.6606331 1.8117448 66
-0.41862264 1.725677 1.8062643 65.666664
-0.18610439 1.698469 1.8127865 66
-0.094561949 1.7359941 1.8173329 75
0.057543572 1.7573553 1.8182415 76.333336
5.6423159 1.7413262 1.866295 28
6.1465359 1.7890979 1.8677241 31
7.5720024 1.7332107 1.840454 25
10.51253 1.6946465 1.8004683 1
-3.6228774 1.8254879 1.8237237 6
-0.6705969 1.9019648 1.8138677 59.666668
-0.51920861 1.8224914 1.8115628 68.5
-0.017617989 1.8057041 1.8092625 80
6.8225336 1.8292513 1.8638729 25
7.2357783 1.8262018 1.8792716 22
8.3861856 1.826193 1.8439378 23
8.6230555 1.9131869 1.8553168 22
9.6459494 1.8034565 1.8237125 1
-0.68356115 1.9955578 1.8181442 45
-0.52579856 2.0319107 1.8115438 62
5.466712 1.9563913 1.862393 27
5.9246564 2.0114596 1.8614467 30
6.5618324 2.0957313 1.8541223 25
7.3493829 2.0541053 1.8477651 24
-0.63408715 2.1367419 1.8090419 61
-0.54948139 2.1733663 1.8108474 58.75
5.2598553 2.1528668 1.8571106 27
5.6787653 2.2123799 1.8541883 30
7.0576015 2.1401725 1.8756512 22
8.0728359 2.1867585 1.8367947 28
-0.79042661 2.366673 1.8163644 57
-0.48233736 2.3197155 1.8207893 37.333332
5.0465403 2.336441 1.8586251 27
5.4208488 2.3932035 1.8503712 28
6.2872639 2.3412223 1.8524791 24
7.0960774 2.3526661 1.8604738 27
-0.64600098 2.5197802 1.8083924 44
4.8049674 2.4963827 1.8560027 26
6.6004143 2.5451369 1.8119909 37
6.8070202 2.4236045 1.8645805 32
-0.76705933 2.6834748 1.8045555 44
-0.70706189 2.6036754 1.808479 47
4.8431115 2.6795299 1.8353685 17
5.1645098 2.5612648 1.8531841 28
5.9726214 2.5519285 1.8484617 32
-0.86073363 2.7811785 1.805607 47
-0.54987359 2.7746906 1.806048 47.5
5.2149353 2.8432651 1.8159736 39
5.6057138 2.7173576 1.8335136 41
-0.84799993 2.8704958 1.8004386 59.5
-0.62384933 2.9202979 1.803378 59
-0.6847645 3.0242162 1.8037468 62
-0.50578535 3.2926853 1.8016449 56
-0.58865303 3.3287644 1.8031501 67
-1.0281084 3.6121199 1.8079468 32
8.8585262 -3.2793281 1.9514869 4
-3.6505992 -2.7057517 1.9576782 60
-3.2621932 -2.7612038 1.9558722 66
-3.9563091 -2.6276791 1.9535166 61
-3.8527758 -2.6193974 1.9570118 70
-3.6997681 -2.6320601 1.960047 64.5
-3.1784148 -2.6763728 1.9582845 60
-4.0855742 -2.5167434 1.9513758 64
-3.8502979 -2.4207549 1.9569658 61
-3.2340219 -2.4472198 1.9509932 53
-3.9907582 -2.256815 1.9527627 64
-3.6773279 -2.3307121 1.9548576 56
-3.4723048 -2.3063235 1.9565272 51.5
-3.2232153 -2.3449552 1.9505252 58
-4.0857167 -2.1321454 1.9500335 67
-3.6217089 -2.2178564 1.9537648 56
-3.198921 -2.164983 1.9505955 48
-3.8671992 -2.0687447 1.955079 59
-3.6975584 -1.9928091 1.9515631 59
-3.2761133 -2.0423136 1.9512693 64
-3.8859613 -1.7376353 1.9542433 65
-2.2072408 -1.7874088 1.9514192 11
-3.8234789 -1.0825369 1.9501988 81
