# .PCD v0.7 - Point Cloud Data file format
VERSION 0.7
FIELDS x y z intensity
SIZE 4 4 4 4
TYPE F F F F
COUNT 1 1 1 1
WIDTH 1858
HEIGHT 1
VIEWPOINT 0 0 0 1 0 0 0
POINTS 1858
DATA ascii
-0.13014492 -3.6689255 -0.15840138 11
0.39032531 -3.5632811 -0.18069151 106
1.0176561 -3.3888257 -0.18984641 74
0.11301158 -3.0722485 -0.17376971 103.5
-0.57374746 -2.00439 -0.17132115 3.3333333
-0.60467666 -1.914788 -0.17521411 7
0.94028407 -1.8971121 -0.18225423 15
-0.65901053 -1.5657415 -0.1626942 1
0.64155734 -1.3776017 -0.16326973 2
0.66623807 -0.95352888 -0.15266576 6
0.61551678 -0.76781785 -0.19306859 6
0.57906175 -0.61448711 -0.16148549 10
0.60244387 -0.71673644 -0.17915171 9
0.68094432 -0.58080482 -0.17249735 9.1428576
0.81329381 -0.53671753 -0.17543265 7.4000001
0.91516137 -0.50936902 -0.17797297 10
0.89253139 -0.34683841 -0.16894205 10.5
0.90768868 -0.42691207 -0.17374754 9.5
0.85746694 -0.22109406 -0.16999829 11.166667
1.2995192 -0.25909552 -0.18822682 46.666668
0.81955737 -0.085203327 -0.18039848 12.333333
0.99791747 -0.097680829 -0.18824396 14
1.1926584 -0.094910815 -0.17719077 10
1.2217119 -0.021869652 -0.17788491 12
0.36871973 0.14319736 -0.1756468 10.333333
0.78814578 0.075563535 -0.18691415 14.8
1.1839117 0.12621519 -0.19199239 16
1.2138042 0.059324861 -0.18417975 15
0.36497751 0.1604434 -0.16543591 10.5
0.76226825 0.18830259 -0.18673676 20.333334
1.1558125 0.21601896 -0.19188341 15
1.0975946 0.30204797 -0.18267964 15
3.8550866 0.76183248 -0.19353782 12
2.9450591 0.99105835 -0.19015171 128
3.2419102 1.267141 -0.17302182 150
-0.9758687 1.4500974 -0.17093107 87
-0.86348593 1.4817234 -0.17050909 20
-0.76826036 1.517005 -0.16847068 17
-0.6960333 1.5271651 -0.18305087 62.400002
-0.53565699 1.5770715 -0.1591378 41
-0.33384579 1.6300712 -0.16042967 78
3.1428559 1.5970527 -0.18071955 114
-0.18775029 1.6677352 -0.1769011 84.666664
-0.11502653 1.6851833 -0.16209315 91
0.070375726 1.7413723 -0.19598308 74
0.22943069 1.789191 -0.16248253 76
0.37649947 1.8248985 -0.17576455 76.199997
0.65242594 1.8927035 -0.16960281 72.5
3.0765002 1.8444673 -0.15095821 113
2.6467242 2.5505219 -0.18989621 7
2.4578891 2.9588592 -0.1770487 55
2.6384382 3.0045664 -0.17375165 56
2.8089361 3.0115333 -0.18925411 27.5
3.1317494 5.1669846 -0.17594042 74
8.2372341 6.6113086 -0.17149054 4
-0.28749061 -3.7635977 -0.092596717 0
-0.17969555 -3.6677604 -0.083943017 9
-0.079831392 -3.662956 -0.053441871 19
0.00032128097 -3.6681511 -0.13842951 91
0.4319694 -3.6612844 -0.0010148633 35
0.086780205 -3.5842514 -0.14220247 150
0.35252059 -3.5115309 -0.092191376 150
0.53213513 -3.5204875 -0.13168141 88
0.65596366 -3.4891133 -0.12932773 85
0.76444179 -3.4534385 -0.12335712 81
0.82154924 -3.4379268 -0.089303263 78.5
0.99173445 -3.3921285 -0.074528046 69
1.1625493 -3.3458161 -0.10286862 68
1.3324038 -3.3002408 -0.12123279 16
-0.22867037 -3.2480714 -0.044760857 0
0.26228708 -3.204771 -0.035671238 123
0.11156376 -3.0705774 -0.082312353 150
-0.32026082 -2.9122295 -0.087345101 4
-0.33998144 -2.8181877 -0.095265336 3
1.2940059 -2.7411189 -0.10255031 7
1.4034568 -2.8488801 -0.10830865 45
-0.39027748 -2.583241 -0.03932441 1.5
1.0763214 -2.6266479 -0.028426087 4
-0.46756312 -2.4049261 -0.047455702 6
-0.44413009 -2.4708462 -0.079354025 2
1.0397494 -2.4645147 -0.12734008 2
1.0653235 -2.4328506 -0.12566665 5
-0.49242049 -2.3113637 -0.031541992 7.5
-0.54964834 -2.1095781 -0.032834444 3
-0.57783222 -2.0064723 -0.059604082 5.6666665
0.96000212 -1.9830488 -0.090998657 1
-0.61659753 -1.8633585 -0.085570738 2.5999999
-0.64660424 -1.7576104 -0.12159094 6.6666665
-0.70743275 -1.5344671 -0.089415617 7.6666665
0.82732338 -1.5033578 -0.13810012 2
1.1546907 -1.5094091 -0.10854516 13
1.2050953 -1.5358906 -0.12772466 29.5
-0.72935843 -1.4606874 -0.080961399 7.8000002
0.6878376 -1.3920245 -0.077532522 1.5
0.89831084 -1.3623925 -0.11427964 8
1.0828127 -1.4510881 -0.11060787 9
-0.7698639 -1.2977281 -0.056454703 0.66666669
0.66017264 -1.2437577 -0.070790857 3
0.78395444 -1.264764 -0.10098652 9
0.96445268 -1.3099402 -0.10972408 9
-0.82634842 -1.1225972 -0.041317198 0.5
0.70170659 -1.0949529 -0.088549264 14
0.65651095 -0.95162225 -0.092478357 21
0.63341475 -0.84204125 -0.14341849 7
0.58804494 -0.6532644 -0.11653958 8.3999996
0.60281688 -0.70675069 -0.11228582 9
0.54889929 -0.50277197 -0.094239287 7.5
0.66911733 -0.53312635 -0.11613745 4.5555553
0.84829551 -0.48791233 -0.11112822 3.3333333
0.91996247 -0.4996019 -0.13490497 12
0.52947986 -0.36335278 -0.1008564 6.1428571
0.66075385 -0.36030653 -0.10425749 2
0.84682667 -0.35778469 -0.11408339 6
0.90758473 -0.41472822 -0.12187438 11.5
0.44068491 -0.19134936 -0.10241733 10
0.50663507 -0.23194098 -0.10421998 4.8000002
0.6819002 -0.25300705 -0.10572178 2
0.83227926 -0.22552238 -0.11378043 6.181818
0.53388566 -0.075831525 -0.10880353 3
0.70072585 -0.074960612 -0.10613245 2
0.81790966 -0.072813541 -0.12561855 10.916667
0.53940213 0.080595575 -0.10938511 4.5999999
0.70836514 0.079353996 -0.10507613 3.6666667
0.78118831 0.075085431 -0.12973891 10.833333
0.42648 0.16689524 -0.11905506 3.5
0.501647 0.17596596 -0.11182737 5.3333335
0.70166785 0.17533503 -0.10702161 5.1999998
0.76298934 0.19367309 -0.1387789 14.2
3.0180864 0.71607232 -0.13068947 78.5
2.9681549 0.92384988 -0.10307536 12
2.9408665 1.0796441 -0.087300427 132.5
2.8798146 1.2154309 -0.059601787 14
3.2201145 1.3006377 -0.14384767 142
-1.1054193 1.4163206 -0.041800614 84.285713
-0.97162211 1.4455818 -0.0927108 52.42857
-0.8558948 1.4794941 -0.077617377 37.25
3.1209276 1.4912883 -0.10689265 143
3.1713569 1.4671019 -0.12834552 123
-0.79031724 1.5057808 -0.12269238 38.666668
-0.68671834 1.5535495 -0.067602925 71.818184
-0.54615855 1.5739932 -0.098322488 44.333332
-0.38507536 1.6149907 -0.0765163 84.666664
-0.2638312 1.6468463 -0.083625972 86
2.8136206 1.5484252 -0.08768452 53
3.4350889 1.5211837 -0.0047559785 10
-0.22048607 1.665802 -0.088911317 101.25
-0.057440858 1.7212677 -0.085361809 90.199997
0.082342938 1.7477417 -0.075046845 66.333336
0.19226474 1.7768859 -0.082755879 70.5
0.27149284 1.8051442 -0.13139507 79
0.35502315 1.8120804 -0.067846932 65
0.50414687 1.8461022 -0.11233628 60
2.7236161 1.8694873 -0.086714931 23
3.0800657 1.8119984 -0.12241844 107
0.92416978 1.9681035 -0.035076249 19.5
2.5387335 2.4603519 -0.085319795 9
2.9220924 2.5082452 -0.14679325 90
2.4962218 2.7020855 -0.099850751 10
2.4213495 2.9616804 -0.10414486 15.5
4.7426438 5.6438494 -0.033655915 49
0.034005921 -3.9183953 0.040299591 31
0.0051278295 -3.8293135 0.13228691 24
0.69061482 -3.7545316 0.1366024 75
0.51204383 -3.6299999 0.013136084 150
0.60310519 -3.6546764 0.0219351 150
0.8806712 -3.6981626 0.093818687 72
1.066861 -3.6588104 0.054116275 18
1.409427 -3.6061671 0.084808968 0
0.64821738 -3.5440059 0.0081105782 150
0.11149503 -3.2529347 0.012233819 150
-0.24695732 -3.1289732 0.064162426 0
0.048962753 -3.0050564 0.052183118 101
0.33066404 -3.0378006 0.072529845 21
-0.32626489 -2.8855474 0.033509459 0
0.10953529 -2.9928327 0.039077576 96
0.21606666 -2.9723043 0.058078058 45
-0.4104507 -2.7067423 0.11543631 5
1.0830017 -2.8216581 0.0023254706 0
-0.38296825 -2.6205645 0.13236111 0
1.0616101 -2.6765475 0.098949037 3
-0.46553016 -2.3895035 0.059629466 9
0.99373442 -2.3483248 0.12215965 0
-0.52082384 -2.2008183 0.068974279 10.5
-0.56476969 -2.0358567 0.079504721 11
-0.60511899 -1.9127541 0.061412644 11
-0.64677423 -1.7639889 0.038230244 12
-0.69529486 -1.5577544 0.05085789 4.75
0.77357852 -1.5541041 0.042446163 3
-0.75624222 -1.3822101 0.070377402 7
-0.73340088 -1.4738444 0.051947165 3.75
0.70154589 -1.3843592 0.1229608 3
-0.78839034 -1.2736076 0.071737535 2
0.69890052 -1.3462008 0.057439711 3
-0.83392477 -1.1163857 0.082711093 1.75
0.63705957 -1.1904268 0.048406117 3
-0.90106982 -0.90868098 0.13523489 3
-0.874295 -0.97404033 0.081450172 2.125
1.0898505 -0.90059155 0.11343204 26
-0.92109287 -0.81564277 0.084140494 3.3333333
-0.89285904 -0.88825542 0.059175827 3.5
1.1027015 -0.83558625 0.11265797 35.666668
-0.95333999 -0.68582904 0.087183379 4.3333335
1.1582894 -0.72297442 0.12848724 36.5
-0.95035827 -0.57176602 0.035995018 0
-1.2251648 -0.22293721 0.1470778 0
-1.2299576 -0.14903836 0.14543355 0
-1.0273834 -0.015114695 0.13278437 0
-1.0634738 0.0088439602 0.081453197 0
-0.99467224 0.023687709 0.10003819 0
-1.2150483 0.34760261 0.14226833 0
3.5390861 1.1121557 0.091598012 1
-1.4751418 1.2398274 0.12095063 2
3.5105348 1.2644591 0.081000008 11
-1.4272341 1.44725 0.10644156 48.333332
-1.2557092 1.4845881 0.082739227 53
3.4712393 1.4131268 0.076111786 11
-1.357487 1.5010417 0.10113441 36.5
-1.2836074 1.5397968 0.085095495 30.1
-1.1737059 1.6137689 0.11859488 36.333332
3.4220133 1.6297685 0.10858237 10
-1.2438881 1.7182899 0.1332832 58
-1.1313866 1.7217361 0.078956015 44.166668
-1.0325738 1.7079308 0.068176784 17.5
-0.55332977 1.7504231 0.028350735 152
3.4011722 1.6992481 0.040772717 9
-0.93757981 1.856885 0.1230593 76
-0.84517109 1.8685181 0.10819923 60.25
-0.69498706 1.9232709 0.11783156 77
-0.094969474 1.8598765 0.0934873 35.5
0.0063539268 1.8897055 0.13689142 43
3.2818036 1.8833405 0.089162953 31
-0.50706059 1.9785801 0.10558293 79.666664
-0.37929034 2.0135956 0.11849958 83.666664
-0.20381989 2.0666518 0.14654446 78
-0.0060231565 1.9529738 0.060767677 142
0.11298268 2.0705819 0.0479674 36
0.16116847 2.0883455 0.10323333 13
3.2386045 2.0142119 0.015868047 23
0.12077345 2.1181731 0.094927453 17
0.23479369 2.1210656 0.13463098 17.5
0.39575407 2.2341962 0.082942225 95
2.5242298 2.2480972 0.067724012 0
3.1983397 2.156137 0.14602876 11
3.0487089 2.3437395 0.031631943 11.5
3.2483888 2.2870812 0.10100151 4.5
2.4678571 2.662729 0.0027871085 6
3.0062068 2.568073 0.13523418 11
4.0415564 5.4525938 0.13608074 55
4.140295 5.4597645 0.10312783 50
4.2975116 5.5128784 0.12698752 48
4.5869966 5.5911226 0.12137204 48
0.0018500506 -3.859303 0.28153497 25
0.4799273 -3.8119416 0.29958826 106
0.67331606 -3.7607808 0.24681801 71
-0.040337313 -3.6684675 0.19375807 33
0.84246939 -3.7077711 0.24376252 65.5
1.0371675 -3.657546 0.15748 22
-0.10588185 -3.2544942 0.20137924 11
-0.24914226 -3.1178014 0.19982225 0
0.15558238 -3.0292244 0.18502587 24
0.04004246 -2.9600129 0.16222537 81.5
0.24284811 -2.855396 0.2834999 7
0.1035444 -2.8236778 0.2509473 19
-0.4105674 -2.5755126 0.22206634 4.5
-0.45047352 -2.4505773 0.25015718 13
-0.42481098 -2.5337882 0.22421813 7
-0.52302718 -2.1751621 0.20365939 12
-0.57743931 -2.0071313 0.23908167 12.333333
-0.61540312 -1.8568908 0.218392 14.666667
-0.65804195 -1.7315927 0.23365915 7
-0.71345425 -1.5412613 0.24062257 5.3333335
0.72126341 -1.5455024 0.19455338 2
-0.76034933 -1.3862333 0.23937652 2.75
-0.73040015 -1.471355 0.20360643 7.3333335
0.65465599 -1.4207304 0.20902365 2
1.4399184 -1.4475896 0.16338912 1.5
-0.79371518 -1.2643917 0.22228357 1.75
0.61321324 -1.2016753 0.18306458 1
-0.83449537 -1.1170812 0.23394546 0.875
0.6264689 -1.1854473 0.1702541 2.3333333
-0.87751728 -0.9669323 0.2321706 1.2727273
1.1356863 -0.91324025 0.20229946 17.75
-0.92227691 -0.81206936 0.23753834 1.5
-0.89724708 -0.89212966 0.21593767 1.5
1.1428474 -0.81578004 0.23160027 28.272728
-0.95435625 -0.69993633 0.23273432 2.25
1.1577983 -0.72177988 0.21324925 23.333334
1.2377789 -0.68034887 0.22229639 31
1.1650704 -0.5090664 0.17065082 1.3333334
1.2332436 -0.59520167 0.27129918 5
-1.3626308 -0.41591406 0.28129789 6.5
-1.3097433 -0.37255198 0.21408477 3.75
1.1277696 -0.38136798 0.17222318 1
-1.2441428 -0.21716405 0.24528299 0
1.2041559 -0.26365662 0.21936786 6
-1.2527857 -0.12052503 0.24358025 0
-1.0863495 -0.058239777 0.2068035 0
-1.0324117 -0.035998717 0.20291281 0
-0.96403062 0.0046530683 0.18209165 0
-1.3014699 0.28207064 0.26185727 3.75
-1.4767143 1.3016059 0.22756211 15.333333
3.5241129 1.3189067 0.15795147 11
-1.422238 1.4556793 0.24193057 50.642857
-1.2799505 1.4856796 0.20316808 51.333332
-1.2872173 1.5432223 0.17532992 83.666664
3.4838161 1.5392182 0.18524358 4
-1.2801949 1.6658354 0.21211076 22.333334
-1.1878197 1.7861357 0.22443616 66.5
-1.0658921 1.8192352 0.2386851 64.25
-0.96636146 1.8487058 0.23117244 70
-0.81112218 1.8932184 0.21747746 78.333336
-0.6810376 1.9276682 0.24757478 78.75
-0.090733081 1.815763 0.19426917 32.5
3.2522867 1.8633511 0.24760526 48
3.3983741 1.8674003 0.15275466 24
-0.60752863 1.9529235 0.27386981 76
-0.52411664 1.9737118 0.21371441 77
-0.33343011 2.0311012 0.23898134 76.5
-0.22326224 2.0631158 0.2372577 75.333336
3.2156484 2.0241714 0.17301318 45.5
0.11787085 2.1485362 0.21678415 73
0.53279799 2.2847376 0.26377425 69.333336
0.67329443 2.3233795 0.23658437 68.75
0.79088002 2.3507276 0.17066011 36
2.4645834 2.4344084 0.16778529 0.5
3.0665061 2.4403348 0.17423487 3.5
3.4478145 5.2877231 0.29229796 51
3.5115056 5.2828588 0.28024077 50
3.6534283 5.3283811 0.27126265 51
3.8875487 5.3888578 0.25315815 48
4.1554122 5.4617105 0.21758431 48
4.205791 5.4689732 0.27857345 48
0.63799012 -3.770576 0.38800341 71.5
0.97124428 -3.6547229 0.33610064 63.5
1.0683597 -3.6076612 0.3454833 68
-0.093203373 -3.5413518 0.38856402 26.5
0.41942036 -3.5994453 0.36216688 14
1.1244652 -3.592432 0.34329587 68
1.2819735 -3.5534954 0.38410634 69
1.8046942 -3.4108593 0.33374566 72
-0.3493177 -3.1782641 0.42424107 4
-0.25665563 -3.2144108 0.44901156 7
0.00071589352 -3.1752927 0.32970929 25
0.26860851 -3.0825782 0.4005723 20
0.11451282 -2.9615319 0.35420209 16
-0.41903228 -2.5625074 0.38847703 5
0.97017962 -2.6674483 0.35529876 3
-0.48120081 -2.3378124 0.37053019 7.5
-0.53042477 -2.1526771 0.35819387 10
-0.57294601 -2.0060735 0.40450811 9
-0.61449838 -1.861897 0.34124261 10
-0.64696807 -1.7570089 0.39034176 11
-0.70879912 -1.5664569 0.38427943 4
0.63384271 -1.537346 0.40088427 2
-0.75481176 -1.3877683 0.37143075 5
-0.73532993 -1.4489151 0.32242298 9
0.59356219 -1.4316777 0.35495245 2
0.6548602 -1.4326121 0.38504496 2
-0.79341251 -1.2798203 0.34729397 0
0.56221145 -1.3383873 0.38242644 2
0.67734647 -1.3263668 0.43309835 3
-0.8276388 -1.1437358 0.33984646 3.5
-0.87163371 -0.98055154 0.3711237 0.66666669
-0.91962361 -0.80993956 0.37942305 1
-0.89718086 -0.89603579 0.43911779 0
-0.95416564 -0.69209975 0.37786245 1.4
-1.37391 -0.39567742 0.37932509 10.222222
-1.2812582 -0.31227386 0.35984415 0
-1.2515618 -0.21041083 0.37989441 0
-1.2669748 -0.1031053 0.37950596 0
-1.323855 0.29463568 0.31330466 7
-1.564852 1.2504658 0.34595716 6.1999998
-1.4705185 1.2537898 0.34806827 4.6666665
-1.4410537 1.4156101 0.36883935 44.142857
-1.2873198 1.472049 0.38767636 33.75
-1.2800117 1.6044391 0.42797059 1
-1.2674388 1.7619524 0.39241466 59
-1.1722373 1.7917751 0.34704131 68.5
-1.0875232 1.8187375 0.31393254 67
-0.97805446 1.8430673 0.38723695 81.25
-0.80999309 1.8876785 0.39155304 82.333336
-0.70021969 1.9232947 0.37652293 81.666664
-0.078363515 1.8660916 0.41044435 77.666664
0.051705539 1.8040526 0.44265246 38.5
0.20597194 1.9366003 0.42353478 53.666668
-0.50339085 1.9826062 0.38196439 79.599998
-0.34026134 2.0279701 0.38193756 63.75
-0.21803303 2.0476286 0.37802488 81.800003
-0.11075614 2.0518198 0.34445781 87
0.054902688 2.0962975 0.43512881 118
0.14199476 2.1631289 0.40227735 65
0.26252899 2.2021208 0.38137674 70
0.37588325 2.2419281 0.38258362 75.333336
0.4269675 2.2521772 0.30473393 79
0.53060478 2.2793577 0.34873572 51
0.67533904 2.3220339 0.37075597 46
0.77770668 2.3439994 0.35794914 63
2.3700569 2.3677559 0.38256985 4
2.3282704 2.4819012 0.35513556 6
2.3163054 2.5834329 0.38115042 5
2.065702 4.2623911 0.43690109 65
2.3012202 4.2880607 0.37149674 31
2.2380157 4.3750105 0.42474329 71
2.9720209 5.1266675 0.44618416 52
3.1124218 5.1843524 0.40867287 55
3.3015659 5.2303767 0.37983257 53
3.5548728 5.2916341 0.38315359 47
4.9478545 5.6566 0.32031709 40
0.72188002 -3.7448437 0.46656388 65
0.83958077 -3.7189314 0.48837093 73.5
0.94153363 -3.6938934 0.49404383 75
1.0749613 -3.6151664 0.54167032 71
1.2482972 -3.5558999 0.5042432 33
1.42092 -3.508532 0.4712804 30
1.596365 -3.4676011 0.45424896 75
1.7692432 -3.4248326 0.56755161 76
1.8549026 -3.3935928 0.56444484 54.666668
-0.18626215 -3.1887839 0.52654755 28
-0.024283607 -3.255352 0.55403733 30
0.12054361 -3.2015357 0.51186895 47.5
2.4668036 -3.223772 0.50770277 56
2.6286108 -3.171643 0.54199833 57
-0.02203067 -3.1491766 0.45096302 50
0.14996715 -3.0624304 0.52852315 32
0.24060829 -3.1301227 0.56884623 22
-0.3614285 -2.7739635 0.52988732 0
-0.49692982 -2.2705708 0.53581184 11
-0.52030951 -2.1842434 0.5766415 12
-0.58851844 -1.9553049 0.50980324 12
-0.61746716 -1.8586779 0.54878837 12.333333
-0.59440088 -1.920864 0.52941513 12
-0.66352093 -1.7021427 0.50274777 0.5
-0.71741009 -1.5346779 0.53197503 3
-0.76068836 -1.3774515 0.5073669 4
-0.73411471 -1.4540306 0.49009109 5.6666665
-0.7910983 -1.2677424 0.4998455 3.1428571
-0.83158636 -1.1213765 0.48327386 4.125
-0.87577081 -0.97105861 0.50493991 0.125
-0.91698587 -0.81150925 0.48994592 0.875
-0.89413995 -0.87318867 0.46556008 0
-0.94757909 -0.70155251 0.4870539 0.42857143
-1.3538184 -0.39307672 0.45550954 8
-1.3115759 -0.35574016 0.48513478 2.75
-1.2904329 -0.228146 0.52970791 1.2857143
-1.2734611 -0.13884835 0.49267659 0
-1.5414069 0.23662817 0.59243572 0
-1.4943463 0.24285252 0.54499692 10
-1.2874646 0.29241362 0.49517179 22.200001
-1.2149795 0.3986046 0.54261011 0.66666669
-1.1951822 0.33177996 0.55003405 1
-1.560182 1.2430384 0.48103863 3
-1.4691943 1.2765795 0.56268263 0.5
-1.5009055 1.4114228 0.54347652 40
-1.4423969 1.4460934 0.51963472 14
-1.314226 1.4607167 0.46257228 5.5
-1.5031694 1.5224566 0.59152955 13
-1.3523881 1.5843157 0.57757884 4
-1.3162552 1.747162 0.50583804 63
-1.156077 1.7953421 0.51719934 70
0.042915177 1.7926182 0.51321489 40
-0.97925186 1.8435266 0.52476984 68.571426
-0.81287467 1.891896 0.53994721 77
-0.68252915 1.9336795 0.53627521 79
-0.099876702 1.9069614 0.51304084 124.25
0.065698326 1.8464792 0.5066781 41.5
0.1776654 1.9377995 0.51175296 152
-0.51234514 1.977747 0.52994114 78.800003
-0.38369516 2.0130908 0.50737184 82.666664
-0.25032923 2.0515466 0.57409221 73
0.31332314 2.0300701 0.48284113 151
0.098591015 2.1503181 0.50225312 55
0.42065096 2.2529323 0.45818055 72
0.49130106 2.2636962 0.4929873 64
0.66840219 2.3154688 0.45108926 64
2.0126393 4.349474 0.50387591 59
2.1415029 4.2811899 0.51882935 54.5
3.0716031 5.1563187 0.57978165 52
3.6783667 5.3267965 0.59030122 48
4.2813377 5.4996538 0.46093845 47
5.0655842 5.7242165 0.53142619 41
0.54598373 -3.8070464 0.61941457 77
0.70741326 -3.761157 0.63993925 85
0.88142675 -3.7050974 0.71316886 74
1.0341787 -3.6165917 0.70095819 64
0.41625828 -3.5946171 0.720837 40
1.1982925 -3.581265 0.70876741 76
1.2236655 -3.5724757 0.60996217 70
1.5738914 -3.4819884 0.68774325 76
1.6518105 -3.4535429 0.691468 81
-0.052856497 -3.3034382 0.66352493 47
0.44186342 -3.3686557 0.66429079 30
1.6897184 -3.4420085 0.68060184 73
-0.027163107 -3.1857846 0.6790458 22
0.061609488 -3.1732113 0.69570673 40
0.51165766 -3.158596 0.68857563 35
2.5666473 -3.1960609 0.69402802 59
2.8263638 -3.157825 0.60381806 8
0.13169245 -3.063189 0.67474496 28
0.20891054 -3.1046162 0.70096123 24
0.47762024 -3.0887113 0.74705839 26
3.0232832 -3.0715768 0.71716881 58
3.2978737 -3.0076506 0.73454189 58
-0.40125751 -2.577776 0.63034403 5
-0.463799 -2.4064863 0.7330966 6
-0.42252833 -2.5306456 0.65171516 11
-0.52895665 -2.1694961 0.61660051 8
-0.56800693 -2.027056 0.65511072 9
-0.62747198 -1.8184636 0.74298775 12
-0.59842998 -1.9094201 0.6941669 12
-0.64773524 -1.7483165 0.60312635 10
-0.73657012 -1.4528062 0.64454472 3
-0.78905791 -1.2729125 0.64318717 3
-0.82820714 -1.1432552 0.62599039 0
-0.8740254 -0.96753454 0.69392842 2
-0.92256838 -0.80515379 0.7245397 2.75
-0.89322746 -0.89161706 0.7470094 3
-0.95376402 -0.6855697 0.71426177 1.6666666
-2.0682576 -0.5861119 0.62893569 6
-0.9402957 -0.55903471 0.68743086 0.75
-1.3191434 -0.32286441 0.71801627 1
-1.2820357 -0.22742458 0.69854969 9
-1.5506493 0.23309946 0.63308609 4
-1.4890121 0.24609226 0.64391112 5
-1.2795954 0.26614434 0.63568377 1
-1.2326913 0.34994209 0.65026265 0.2
-1.1983194 0.34046048 0.68088138 0.5
-1.4727139 1.3173701 0.64816964 35
-1.5198342 1.4832375 0.629269 42
-1.4364992 1.4337522 0.67573184 16.666666
-1.3171387 1.4598597 0.71934462 11.5
-1.5292556 1.52688 0.62367368 36
-1.2985735 1.558767 0.63615882 3
-1.2551786 1.7629226 0.67262083 76.333336
-1.1653861 1.7878966 0.68935823 73
-1.0799475 1.8123721 0.64843458 71
-0.95793951 1.8532479 0.67672992 71
-0.78977847 1.8999488 0.64374959 78
-0.65967721 1.934971 0.70528877 71.25
-0.18585503 1.8864394 0.70879823 150.66667
-0.10310707 1.8377326 0.61959493 68.5
0.077796824 1.8170881 0.68891829 51.666668
-0.54780746 1.9655879 0.64816898 77.75
-0.36810747 2.018322 0.69565421 71.666664
-0.24691468 2.0536616 0.66982198 66.666664
-0.083498791 2.0110173 0.65000594 97.5
0.018443804 2.0909381 0.65643084 39
0.53466946 2.2742558 0.73292357 58
0.66844863 2.316304 0.70243436 60.333332
0.77511114 2.3378031 0.65461236 47
2.0489624 4.6144452 0.606107 73
2.0919499 4.9029174 0.71966279 64
3.1608362 5.1828632 0.71753049 45
3.7799313 5.355217 0.74622619 50
4.3638773 5.5142927 0.63740897 46
0.86229438 -3.7144406 0.82225645 73
1.0023943 -3.6382806 0.84397984 74
1.3257772 -3.5454917 0.80418563 68
1.4443917 -3.5153248 0.81653023 73.666664
1.822946 -3.3997138 0.82492238 67
0.40007648 -3.0714605 0.82251018 29
0.61115867 -3.0679746 0.76114988 25
2.7873039 -3.1472476 0.85050267 52
3.0463839 -3.0692191 0.8153044 58.25
3.293431 -3.0006764 0.76750851 66
3.5820448 -2.9178481 0.82706225 61
-0.44618356 -2.4592037 0.88786912 7
-0.50834602 -2.2294238 0.76282525 6
-0.54787028 -2.083137 0.79675472 11
-0.75371253 -1.4125516 0.83916616 1
-0.73076081 -1.4711357 0.86921984 3
-0.78290164 -1.3049607 0.83384573 2.2
-0.82689923 -1.1393005 0.81036967 3.5714285
-0.87117034 -0.98144573 0.79313594 2.7142856
-0.91999292 -0.80029941 0.80301332 4
-0.89582205 -0.86016691 0.82321572 2
-0.95054483 -0.68874007 0.78829354 1.1666666
-0.93706137 -0.56577086 0.7605778 0
-1.3573509 -0.37897673 0.80811524 0
-1.2900373 -0.34406763 0.78964108 3.8
-1.3536022 -0.16201216 0.76767397 5
-1.2914906 -0.18638285 0.78231335 7.8333335
-1.1874892 -0.28446981 0.87991798 0
-1.3740258 -0.12623477 0.85156024 0
-1.7376862 0.17705017 0.86304837 4.6666665
-1.597856 0.2114964 0.80588281 6
-1.2888473 0.30299106 0.81172729 4
-1.1889316 0.30385801 0.87692535 0
-1.4663359 1.2796829 0.88392764 1.5
-1.5130409 1.4551708 0.84336174 32
-1.3850818 1.5895212 0.86047947 150
-1.2710423 1.5548198 0.75800908 3
-1.2708356 1.7586666 0.79621768 68.5
-1.1774476 1.7938062 0.84960878 69
-1.0176311 1.8350716 0.82635373 68.5
-0.82938808 1.8866879 0.82578295 68
-0.69662696 1.9243385 0.82287699 70.666664
-0.24764283 1.8616351 0.78001189 151
-0.045805946 1.8646743 0.7994709 92.5
0.092440143 1.9155159 0.82799172 96
-0.6024183 1.9567541 0.86176515 64
-0.47264758 1.990379 0.8269074 67.333336
-0.35363215 2.0201457 0.79483521 67
-0.25590757 2.0449266 0.85165763 55
-0.12692806 2.0634179 0.80566692 75
0.2497983 2.0444906 0.85071129 151
0.30231297 1.9958969 0.85418892 152
0.28217 2.1832924 0.83402139 52
0.38666761 2.2311258 0.79945242 65
0.525536 2.273484 0.83480954 58.666668
0.67493868 2.3117137 0.86999655 59
0.77762884 2.3413353 0.76970166 42.5
2.1524057 4.9010134 0.81318045 75
2.7037303 5.050179 0.84002042 54
3.2674987 5.2096143 0.84926414 51
7.2362547 5.2192307 0.87463355 29
0.82877725 -3.6889548 0.90225995 150
1.1091996 -3.6053684 0.93281424 71
1.1830258 -3.5921605 0.94797504 64
1.2764685 -3.5633416 0.95214218 70.5
1.6166825 -3.4580908 0.96982974 71
0.072835132 -3.3946893 0.92905283 2
1.7637277 -3.417038 1.0152814 69
0.15937065 -3.2079453 0.98253679 24
0.32644433 -3.1997294 0.91487277 21
2.5196087 -3.2097943 0.98902398 59.333332
2.5532136 -3.2014885 0.93349946 60
2.7602148 -3.1538911 0.9115417 45
2.8634996 -3.121031 0.94750774 58
3.0382011 -3.0773182 1.0282756 56
3.3027318 -3.0038211 0.92597044 59
3.4722872 -2.9508197 1.0235034 59
3.757292 -2.8692217 0.94355321 58
-0.49978092 -2.2567339 1.0489347 15
-0.53703034 -2.1327236 1.044919 16
-0.61561513 -1.8456051 0.95356351 21
-0.5931868 -1.9167011 0.96654701 19
-0.65869397 -1.7096461 0.95644355 9
-0.71317881 -1.538799 0.90218711 2
-0.72715622 -1.4825975 0.9944371 1
-0.78009725 -1.3092659 0.94544888 0
-0.8256433 -1.1461922 0.97634405 1.5
-0.86063576 -1.014128 0.93822479 2.5
-0.92003304 -0.79125607 0.92491829 3
-0.89163142 -0.89694846 0.94765508 3
-0.94781941 -0.69527465 0.91058528 2
-1.6843615 0.19284318 1.0243154 4
-1.5716544 0.22772001 0.93849671 4
-1.5128226 1.4639034 0.99096268 28
-1.5486525 1.600261 1.0012286 34
-1.5195673 1.6989558 1.0158494 81.5
-1.498873 1.706138 1.0319852 80
-1.3135185 1.7563027 0.96029407 81.333336
-1.1517618 1.7989316 0.90167665 66
-1.1227874 1.8031813 0.95529974 62
-0.96808183 1.8498932 0.97655928 64.199997
-0.8726269 1.8777626 0.9973501 66
-0.70871282 1.9227985 0.97621047 64.5
0.0022483587 1.9398484 0.92836106 153
-0.57581639 1.9600871 0.93851805 64
-0.37315792 2.0228276 0.98229522 72.400002
-0.25655177 2.0542331 0.98135716 70.5
-0.091592222 2.0980496 1.0229452 63
0.41938615 2.2365534 1.0037102 59
0.51021129 2.2652471 0.95941764 57
0.60624439 2.2874985 0.96041 56
0.757312 2.3356566 0.91810131 54
8.0054865 2.5428243 1.0041597 28
7.9562683 2.7966444 0.97615457 23
-3.4631803 2.9976368 0.96247971 20
7.3194637 4.9407878 0.92070878 32
2.3054409 4.9510713 0.96703005 68
2.8125582 5.0784106 0.95267189 58
7.3316784 4.9552946 0.94245636 31
5.5728488 5.8544292 1.0291235 42
0.030912947 -3.8649583 1.0877813 28
0.9406696 -3.6743822 1.0866539 67.5
1.0813005 -3.6128592 1.0918084 70.5
1.4195728 -3.5204937 1.123986 67.5
1.5691019 -3.4764488 1.1485016 70
1.7316577 -3.4238396 1.1261853 76
2.0513124 -3.3379545 1.1974239 68.5
2.1248336 -3.318531 1.1776319 46
2.6181231 -3.1884718 1.071882 57
2.788559 -3.1423361 1.1340791 56
3.2115767 -3.0285938 1.110808 52
3.6437705 -2.9010582 1.1492454 51
3.7976515 -2.8643916 1.1510091 51
3.9289224 -2.822016 1.0868554 47
-0.39965609 -2.5699527 1.171635 3
-0.420627 -2.5263817 1.1742103 10
-0.51272225 -2.2066925 1.0609733 15.5
-0.56470424 -2.025507 1.0956087 11
-0.59437984 -1.9075631 1.1740714 36
-0.73898363 -1.4495765 1.1111015 0
-0.7865355 -1.2852783 1.0574657 0
-0.85092479 -1.0565696 1.1762061 0
-0.88842565 -0.92648572 1.1394913 0
-0.91679025 -0.82880801 1.1530508 0
-0.89835393 -0.89214545 1.1701488 0
-0.9586215 -0.67700207 1.1070905 0
-1.9683697 0.10647959 1.1060164 3
-1.8282803 0.14822242 1.0519956 4
-1.6954007 0.18989176 1.127758 3.6666667
-1.5913864 0.21871647 1.0948049 3
-1.288998 0.30542132 1.1363698 2.3333333
-1.4819283 1.3456407 1.1135223 27
-1.5523403 1.5951109 1.1488343 30
-1.4186827 1.7288408 1.1387821 77.666664
-1.2498435 1.7774472 1.07327 77
-1.1784811 1.7984818 1.1648258 74
-1.123202 1.8147 1.1422814 72
-1.0049928 1.8490113 1.1122583 51
-0.81214684 1.9014477 1.1090456 72
-0.67341304 1.9406897 1.0646101 72
-0.52710897 1.9840628 1.122928 66.333336
-0.34320521 2.0310946 1.1582165 62.5
-0.20314023 2.0669394 1.1286424 60
-0.07648655 2.1051216 1.1059245 60.5
0.10078678 2.1528914 1.1723057 57.666668
0.22454841 2.1860435 1.0977434 53.599998
0.33767545 2.2137425 1.0691682 62
-3.6584072 3.2740726 1.1743968 80.5
7.5366836 4.2474551 1.1323657 28
7.437665 4.5638633 1.0957694 29
2.0567141 4.8909593 1.173098 30
2.4101987 4.9674916 1.0593123 66
4.7746882 5.6354566 1.1389513 39
5.0656705 5.7358642 1.1237391 41
5.4057288 5.7995477 1.1900419 25
7.6045017 6.4778562 1.1126834 1
7.7760448 6.4608927 1.1534172 4
0.43068305 -3.8525629 1.2822015 20
0.68474275 -3.7575474 1.2351826 72
0.82287532 -3.7233181 1.2510259 73
0.9357031 -3.6938498 1.2594787 78
1.2220482 -3.5722413 1.2843661 69
1.3802232 -3.5374651 1.2911745 66
1.539577 -3.4774933 1.248255 71
2.3898644 -3.253289 1.2033262 58
2.5526125 -3.198859 1.2452734 56
2.7395129 -3.1664393 1.3015802 36
2.9715593 -3.102643 1.2053117 54
3.1387606 -3.0469897 1.2912964 47
3.274801 -3.0166168 1.3330641 56
3.3832502 -2.9763007 1.2176163 52
3.5314848 -2.9341183 1.2887397 55
3.8161099 -2.8462644 1.266922 49
-0.43516672 -2.4995613 1.2295952 6
-0.47381637 -2.3483768 1.2591861 7
-0.50178736 -2.2316027 1.3002634 16
-0.61225766 -1.8516508 1.2446616 32
-0.80916053 -1.2031598 1.22743 0
-0.81564653 -1.1833625 1.2668195 0
3.9449418 -1.1564127 1.2342529 59
-0.86774802 -0.99757898 1.2134682 0
3.9119346 -1.0421184 1.3190904 59
3.8578799 -0.85444736 1.2392191 60
-2.0565193 0.083036751 1.2024382 3
-1.885414 0.13451588 1.2685469 3
-1.70805 0.18375257 1.2659826 3.5
-1.5174841 1.4643564 1.2703278 30
-1.5419514 1.6922469 1.2991984 74.5
-1.2678819 1.7707018 1.282866 70
-1.0959271 1.8215476 1.2840867 59.666668
-0.93152463 1.8685288 1.2183111 58
-0.89419073 1.8821641 1.2781676 61
-0.69511837 1.9338961 1.2902522 53.5
-0.61076391 1.9542534 1.2645268 58
-0.48150384 1.990947 1.2191532 60
-0.38928738 2.0146363 1.2870289 55
-0.22815076 2.0598288 1.2628256 55.5
-0.097883284 2.0983546 1.3413583 52
-0.038969774 2.1105015 1.2826142 59.666668
0.032597598 2.1319151 1.2330685 55
0.67481369 2.3100979 1.3212805 47.333332
0.78572464 2.3381889 1.2781016 33.333332
7.977242 2.641005 1.2850325 29.5
-4.1098285 3.1461778 1.2817324 81
-3.6351616 3.2804692 1.271999 80
7.7725582 3.4095094 1.204212 26
7.6913109 3.6770883 1.2097408 34
7.6296749 3.8326385 1.332723 29
7.3995051 4.717824 1.325735 33
7.3163338 4.9986539 1.2594773 30
3.7749407 5.3674579 1.3090117 46
4.0237522 5.4297037 1.3347093 43
4.1001539 5.4434252 1.251397 44
4.3690071 5.5398011 1.215943 37
4.6730833 5.6180758 1.2636591 37
5.0034251 5.6972637 1.3199975 39
6.6835623 6.2172117 1.234969 2
6.8800797 6.217515 1.2649052 4
8.1577177 6.559258 1.260905 4
0.053201299 -3.9253359 1.4620728 8
0.51809913 -3.8104379 1.4050366 43.5
0.6686219 -3.7661567 1.4134002 75
0.74680036 -3.7451689 1.4184935 79
1.0429591 -3.6311154 1.4046712 70
1.1844583 -3.5776932 1.4324431 63
1.3574623 -3.5425169 1.3846617 71
1.5941545 -3.4656589 1.4261918 67
1.7117887 -3.4354141 1.4323592 73.666664
2.3408098 -3.2644362 1.3691242 55
2.5103841 -3.217129 1.3990463 54
2.6899958 -3.1748536 1.4570199 60
2.9152777 -3.1188891 1.3745298 56
3.0340245 -3.077059 1.4300451 57
3.3031337 -3.0060263 1.4879004 52
3.283257 -2.9977186 1.4174888 56
3.5745759 -2.9223828 1.4532424 43.5
3.7906902 -2.8573167 1.4051199 49
3.8636258 -2.8392987 1.404238 42.5
-0.53005886 -2.1452005 1.3617233 16
-0.63061488 -1.8078089 1.485817 27
-2.2431834 0.027684351 1.4388319 1
-2.0877352 0.080648534 1.4372358 2
-1.4816428 1.3184358 1.484556 14
-1.5135962 1.471773 1.4829737 24
-1.4944025 1.3950394 1.4794469 26
-1.5282017 1.5350399 1.4690478 25
-1.4249475 1.7224793 1.4357479 72
-1.2864823 1.7640399 1.3810734 63.333332
-1.1805871 1.7952168 1.4683349 59
-1.0061572 1.8415009 1.3899109 53
-0.81124699 1.9015957 1.4186051 52
-0.70638573 1.9240348 1.4622474 49.5
-0.54410875 1.969372 1.4106293 47
-0.38144735 2.0156367 1.4054624 52
-0.21929394 2.0596776 1.4472234 49.75
-0.14027324 2.0811195 1.3640671 54.5
0.37805739 2.2270079 1.4611995 51.5
0.47262549 2.2470088 1.371729 49
0.52884173 2.2694046 1.4513122 44.875
0.6707055 2.3090742 1.3966399 43.666668
0.78448194 2.341325 1.3566712 42
8.0360193 2.4860873 1.3760802 5
7.9635592 2.6912053 1.388703 32
7.9045134 2.9100931 1.4658754 34
7.8545456 3.0768709 1.4119948 30.666666
-4.0762091 3.1577737 1.4220984 83
-4.0060091 3.1714151 1.4153838 84
7.7471342 3.4932382 1.4627304 27
7.5622387 4.118948 1.3643862 33
7.527422 4.2817965 1.4949744 30
2.9908872 5.1395993 1.4982771 49
3.040195 5.14852 1.4905767 54
3.2204971 5.2059278 1.4501047 44.5
3.3630774 5.2317543 1.4713877 42
3.5030093 5.2810879 1.3907485 43.5
3.6978571 5.3354311 1.4258943 44
3.9405706 5.3968573 1.4260719 35
4.1963139 5.4618134 1.4440169 34
4.2985916 5.5018554 1.3687984 35
4.6131186 5.5898156 1.3934029 38
4.856842 5.650444 1.360316 38
5.3884764 5.7957511 1.3704778 30
7.5246167 6.3918829 1.3937254 4
7.7553148 6.4665465 1.499558 4
8.9793339 6.7676311 1.441346 27
-0.022568155 -3.7658145 1.5781063 18
0.024925511 -3.8780272 1.5490363 15
0.5123328 -3.8121586 1.5877352 54.5
0.85876697 -3.71047 1.6049519 72
1.0100753 -3.6334238 1.551131 73
1.164317 -3.5858865 1.5186272 80
1.421186 -3.5157905 1.5618432 72
1.5524462 -3.4810548 1.5682406 76
0.69462693 -3.3832672 1.6460384 49
1.773335 -3.4246891 1.6489216 78
1.9380379 -3.3755736 1.6361052 63
2.481317 -3.2341366 1.5494775 64
2.8223302 -3.1389434 1.5945638 59
3.050149 -3.0706465 1.5541868 51
3.2662416 -3.0083039 1.6096497 50
3.3147666 -3.0011172 1.5392768 48
3.5209227 -2.9390481 1.5046583 49
3.7244809 -2.8680549 1.6346985 44
3.9949288 -2.8113005 1.5932308 40
-3.8884735 -2.5398071 1.5935454 102
-3.7416213 -2.5063419 1.6220423 34
-3.5204997 -2.5364447 1.5084839 59
-0.42157656 -2.537545 1.5306575 12
-3.9740658 -2.2023695 1.5766166 95
-4.0641565 -1.8820218 1.6131347 94
-0.61907774 -1.8633652 1.570624 25.5
-0.59684902 -1.9341139 1.6264809 24
-0.67033285 -1.7055125 1.5482421 8
-1.4884254 1.3793095 1.5758934 24
-1.5456156 1.5906829 1.6001586 28
-1.5342143 1.6880959 1.5959296 75
-1.4342856 1.7190585 1.526106 63.5
-1.3128787 1.7498887 1.6101475 56
-1.1262828 1.8080866 1.5214527 54
-0.94523644 1.8604263 1.5692266 51.666668
-0.84860808 1.8840642 1.5648426 50.333332
-0.63628834 1.9428557 1.5570496 49
-0.53526092 1.9707842 1.5689874 46
-0.35545719 2.0216105 1.589371 48.5
-0.28143632 2.0424879 1.5084872 46
0.071105018 2.1402137 1.5862297 54
0.24740247 2.1849182 1.5701832 45.25
0.36436465 2.2226632 1.5611745 47.285713
0.47826725 2.2541678 1.5502173 44
0.73500043 2.3275731 1.6451432 39
8.0282249 2.4858384 1.5760771 4
7.9089603 2.8892472 1.6379782 32
-4.5479288 3.0336683 1.5190554 91
-4.463305 3.0605922 1.6159976 93
-3.9454882 3.1880486 1.573185 82.25
-3.7573981 3.2502525 1.6152564 84
-3.6478977 3.2702835 1.6016213 78
7.7912989 3.3393893 1.5853326 33
7.7286439 3.4978361 1.5584697 8
7.620666 3.9174464 1.5929651 30
7.4414434 4.5697894 1.5476826 34
2.4203975 4.9753509 1.6071205 63.5
2.5881252 5.0262074 1.6045706 56.5
2.7135949 5.0590782 1.5676621 44
2.8281286 5.1066713 1.5128338 57
2.8650672 5.1001868 1.532692 49
3.1518097 5.1727462 1.6358243 43
7.2689147 5.2023635 1.5508364 33
3.6395557 5.3088651 1.5362695 44
4.9502807 5.6821713 1.5962907 39
5.708333 5.8932295 1.549094 32
9.1698036 6.850419 1.5013586 28
-1.2343479 -3.9526727 1.7908894 0
-0.16477662 -3.9686415 1.676751 8
-0.20588864 -3.8604977 1.7473823 0
-0.0095974384 -3.8125718 1.7000538 20
0.12849124 -3.8531466 1.7393585 54
0.25249559 -3.8213358 1.7369708 50
0.35250211 -3.7948635 1.741336 51
-0.39144111 -3.6971049 1.762464 0
-0.24681258 -3.650382 1.7278448 9.5
-0.11384413 -3.6116714 1.7664043 15
0.63597447 -3.6600778 1.7497433 51
0.81950516 -3.6806583 1.721343 65
0.9780336 -3.6405203 1.6680382 70
0.066503763 -3.5627594 1.7574344 83.5
1.1682943 -3.5709448 1.6916355 54
1.2926564 -3.5302873 1.7002409 46
1.386256 -3.4996684 1.69885 44
0.54862654 -3.4259439 1.722865 81.5
0.86080259 -3.3492851 1.6776589 49
0.94901115 -3.3171029 1.6818637 47
1.7076085 -3.3630748 1.7422644 51
1.8912003 -3.3523436 1.7348047 51
2.0703623 -3.3214085 1.739719 56
1.0304787 -3.2852459 1.680828 50
1.0919425 -3.2697437 1.6834472 49
1.4307556 -3.2210875 1.7144704 33
1.5380116 -3.1571929 1.7942384 88
2.3723722 -3.1981838 1.7577591 38
2.5979009 -3.1983664 1.7082295 35.75
2.8161509 -3.1521294 1.6757435 56
1.548885 -3.143225 1.7005688 64
1.7010121 -3.100775 1.6745869 68
1.9128957 -3.037534 1.7412618 67
1.9883569 -3.0170004 1.7251776 60.666668
2.2053919 -3.0465419 1.6896616 1
3.0161431 -3.0584583 1.7145439 15
2.1239727 -2.9983273 1.658852 7
2.359153 -2.9149268 1.7840265 60
2.6097491 -2.9300151 1.7062482 1
3.1597915 -2.9498036 1.7706407 25
3.3941698 -2.9242008 1.7616776 47
3.4628022 -2.9371042 1.716952 17
3.6799946 -2.8859611 1.6918734 31
2.7147901 -2.809927 1.7565132 56.5
2.9310191 -2.7532394 1.75188 53.333332
3.2395368 -2.7205789 1.7014679 11
3.4752643 -2.7044432 1.7227918 2
3.7526691 -2.8469136 1.7571367 27
3.9190106 -2.7702723 1.7617903 29
4.0577364 -2.7874413 1.6861488 30
4.2479734 -2.7140665 1.7286296 16
3.1290483 -2.6933844 1.7256269 56.5
3.4108574 -2.6380198 1.7524117 43
3.6453376 -2.5509334 1.7402464 49
4.1079235 -2.5643284 1.7476195 19
-3.9182246 -2.439482 1.7268676 84
-3.5553012 -2.475781 1.7326225 45.5
3.6758966 -2.5454879 1.7218021 36
3.8078368 -2.5039411 1.7809223 52
3.9197147 -2.476635 1.7111205 38
4.0852828 -2.4334941 1.76428 43
4.2412844 -2.4076614 1.7013475 19
-3.9665637 -2.2648954 1.7331239 94
-0.49636233 -2.2667177 1.780329 14
4.3858566 -2.355505 1.7564338 33
4.699029 -2.2621558 1.7519296 31
-3.9915199 -2.1597199 1.723695 87
-0.53098232 -2.1890819 1.7277204 18.666666
4.9499831 -2.2205439 1.7026244 15
5.3552361 -2.1037853 1.7201997 17
-0.59171361 -1.991635 1.6841046 18
5.4527488 -2.0515957 1.7855693 28
-4.0601716 -1.9078302 1.7422671 99.5
-0.62617004 -1.8318081 1.6902987 21
-0.74750608 -1.7731605 1.7949954 0
-0.74305069 -1.429458 1.7751604 17
-0.88870776 -0.91075653 1.7711602 17
-0.94446248 -0.78668267 1.7786006 14
-1.1136121 -0.15075611 1.787654 5
-1.1172115 -0.021555088 1.761571 3
-2.291873 0.070719704 1.7951199 15
-2.1938622 0.089608565 1.7963189 13
-1.5953469 0.14469498 1.7109367 2
-1.860181 0.21137971 1.7721831 14
-1.7949451 0.29204357 1.7926563 14
-1.2178577 0.24191917 1.7764832 2
-1.3062598 0.31019881 1.7181827 0
-1.2750312 0.54791856 1.7934178 0
-1.3479966 0.63620615 1.7999347 2
-1.4270315 0.8864423 1.7945541 3
-1.6533328 1.3317617 1.7738434 12
-0.076509699 1.4871448 1.7987715 49
-1.5516267 1.6783389 1.7054921 52.5
-1.4620411 1.713055 1.7840446 58
-1.2502807 1.7669219 1.6615685 60
-1.0848289 1.8218575 1.7091044 56.5
-0.99443614 1.8456888 1.7294976 49.25
-0.71968043 1.9174607 1.7179904 46.5
-0.50763464 1.9806207 1.7472223 49
-0.42088434 2.0092514 1.6957122 44
-0.17832579 2.068367 1.7775308 52
-0.032543365 2.1097789 1.719798 51.5
0.10785083 2.1524 1.732694 50
0.21334977 2.1803606 1.6864463 45.333332
0.44821936 2.2416618 1.7504624 40
0.56844407 2.2803726 1.743825 41.666668
0.68203533 2.3195987 1.7477725 41
0.80669469 2.3630304 1.692582 26.75
7.2425823 2.4379492 1.7330004 47
8.0488424 2.4255641 1.7506274 23
7.9817591 2.6796196 1.7039491 27
7.7596588 2.7673464 1.7825643 21
7.8503036 2.7983031 1.7849861 24
-5.0424805 2.8987589 1.7846698 91
-4.5192699 3.046376 1.6726559 92
-4.4025273 3.0696809 1.7193593 81.333336
7.7705202 3.0482464 1.7727515 24
-3.9217877 3.1931238 1.6978408 82
-3.8802884 3.2082744 1.6575447 82
-3.7301371 3.2518644 1.7262845 85
7.790288 3.2952886 1.7217737 30
5.8019142 3.4893041 1.7955519 20
5.6572485 3.6555288 1.7985159 21
7.5439401 3.6443143 1.7927152 17
7.649972 3.7556386 1.7239097 24
5.1441174 4.0007377 1.7969526 31
6.4564595 4.040844 1.7944847 27
7.1908298 4.0009499 1.7979733 26
7.6184464 3.9216881 1.7028261 29
5.0599494 4.1383586 1.7981023 31
7.1804533 4.2037778 1.7832271 26
7.4954343 4.3483834 1.7480582 7
4.9765816 4.6964979 1.7998844 27
7.3921733 4.7218566 1.6779684 30
2.0767188 4.8945322 1.7331985 29
2.2042654 4.9185886 1.7199069 60
2.3009007 4.942327 1.6503905 45
5.7067561 4.8576031 1.7972144 27
2.7259071 5.0603542 1.7444214 53
6.5411921 5.0084534 1.7991997 25
7.2918801 5.007647 1.7528378 13
3.2652202 5.2074223 1.7935845 46
3.7433169 5.3329701 1.714552 21
4.3055892 5.50002 1.6523284 35
7.0196781 5.6081886 1.7774056 5
6.6057324 6.0918732 1.7951022 12
7.5521326 6.2960382 1.7886509 3
0.39215589 -3.4666197 1.8094579 92
-1.0964926 -3.348403 1.8431088 0
-0.33196256 -3.4267876 1.8211435 8
-0.19639014 -3.3902099 1.8032202 11
-0.080293328 -3.4116273 1.8316439 65
0.36033052 -3.3741202 1.8200082 56
0.51773781 -3.4275992 1.8029596 95
0.65719473 -3.374444 1.8180469 82
0.80844438 -3.3303237 1.8217217 79.5
0.22558454 -3.2152295 1.8122389 62.5
0.36321822 -3.2341614 1.816204 60.5
0.92802864 -3.2969408 1.8253843 81
1.2517496 -3.2297292 1.8009213 88
1.3611879 -3.1505949 1.8074125 58
-0.27130631 -3.1346216 1.8067626 13
0.11020777 -3.0723219 1.8117582 61.666668
0.51260114 -3.1485636 1.8188781 60
0.65338171 -3.1122172 1.8217149 62
0.98464674 -3.0414641 1.8132516 54
1.1735047 -3.1044023 1.8150004 54
1.2919641 -3.056268 1.812632 54
1.7219718 -3.0433702 1.8203007 54
1.8239568 -3.0389626 1.8236873 69.5
-0.056425337 -2.9086952 1.8171196 64.666664
0.23227525 -2.9703658 1.8183962 61.5
0.40008026 -2.9438841 1.8221275 59
0.48282164 -2.9160573 1.8193272 68
0.98383808 -2.9215264 1.8093249 56.5
1.1019446 -2.9954605 1.8069957 49
1.4475497 -2.9364915 1.8215885 56
1.5524917 -2.9080522 1.8232329 45
2.0946121 -2.8558574 1.8356496 49
2.5284817 -2.8583248 1.820547 58
-0.21111664 -2.7373209 1.8262256 67
-0.06716878 -2.8168275 1.818007 58.5
0.09292163 -2.7906287 1.82754 55
0.252967 -2.7649512 1.8272675 63
0.71993685 -2.8004274 1.8131675 62
0.84678239 -2.813776 1.8041645 60
0.91984624 -2.7126958 1.8124112 60
1.1573098 -2.8321795 1.816276 56
1.278553 -2.7853062 1.819384 56.333332
1.8014023 -2.7277837 1.8374096 52
2.2362859 -2.7868342 1.836985 48
2.3671117 -2.7042592 1.8303431 46
2.4464178 -2.7790926 1.8372787 50
2.6551499 -2.7468605 1.8334782 49
2.7388587 -2.7600727 1.8441061 53
2.9311447 -2.7510135 1.8099211 58
-0.23865625 -2.6597264 1.8215662 61.5
-0.087404713 -2.6106944 1.8254319 63
0.081329152 -2.5972669 1.8268507 62.5
0.49971363 -2.6065006 1.8143005 60.333332
0.66227794 -2.6528766 1.8106893 61.666668
0.78478664 -2.5635128 1.8170296 53
0.99453169 -2.6818826 1.8155464 60
1.0845673 -2.6496248 1.8191785 63.5
1.5338066 -2.5906794 1.8309792 27
1.6888233 -2.5805161 1.8288802 43
1.8674147 -2.5797081 1.8338242 49.5
2.0439944 -2.6239064 1.8345566 45.25
2.1898303 -2.601516 1.838174 49.25
2.3298917 -2.643075 1.8376577 46
2.4671152 -2.6181862 1.8363066 44.666668
2.5599005 -2.6092491 1.8361105 46
2.7555099 -2.5996094 1.8321375 44
2.8579397 -2.649128 1.8380612 46.5
3.0370307 -2.6014206 1.8360074 44
3.2141049 -2.654175 1.8346809 58
3.557409 -2.5713015 1.8091015 55
-3.8817348 -2.4492531 1.8342568 76
-3.5423696 -2.4560308 1.8004678 24
-0.38667122 -2.4847684 1.8242689 49
-0.24898712 -2.4451597 1.8289157 60
-0.073059134 -2.4396276 1.8286334 69.5
0.28373 -2.4172945 1.8146572 65
0.36946234 -2.4911611 1.8170668 61.666668
0.54412735 -2.4453123 1.8210131 60.333332
0.67507917 -2.4197206 1.8227388 60
0.86234254 -2.5434954 1.8247706 57
0.91366464 -2.5213037 1.8227249 63
1.2997816 -2.4634054 1.8314995 58
1.4227641 -2.4414983 1.8251947 44.5
1.5826851 -2.4515557 1.8288245 28.833334
1.7641882 -2.4837315 1.8241283 49
1.8446198 -2.4990764 1.8343498 44.5
2.0016453 -2.5039041 1.8336176 47.333332
2.1825387 -2.416012 1.8394769 43
2.2819693 -2.5208209 1.8438784 46
2.4312031 -2.4506123 1.8404015 44
2.6896429 -2.4710894 1.8381923 45
2.9733038 -2.487812 1.8425943 42
3.2633545 -2.4855337 1.8422083 41
3.3370366 -2.5439005 1.8347393 45
3.5616744 -2.4631767 1.8381821 41
3.6337576 -2.5010207 1.8379916 46
3.87097 -2.423692 1.8347501 43
3.910938 -2.4249685 1.8305706 47
-3.8219368 -2.2696722 1.8362399 62
-3.6048436 -2.3028231 1.8731464 57
-3.5483987 -2.3477004 1.9026747 57.333332
-3.4454024 -2.3798928 1.9263598 56
-0.83964878 -2.3452623 1.8332864 0
-0.39517891 -2.273505 1.8250037 64
-0.21287048 -2.2832515 1.8273876 72
0.12537165 -2.2795787 1.8106258 63.5
0.17158553 -2.3090541 1.8207915 69
0.38628271 -2.3187077 1.8242962 65.599998
0.53904188 -2.2901511 1.8247433 65.5
0.73449105 -2.3973238 1.8239149 74
1.1369799 -2.3008869 1.8296205 53.857143
1.2933997 -2.3479409 1.8250612 57
1.4031755 -2.3354323 1.8288407 41
1.5683569 -2.3157797 1.8381009 30
1.7244085 -2.3201339 1.8314513 46.333332
1.9141648 -2.3379469 1.8335134 43.5
2.1052058 -2.3326893 1.8365012 47
2.3311419 -2.3467309 1.8387822 47
2.598166 -2.3741271 1.8656877 12
2.8046427 -2.3363554 1.8423969 41
3.0422482 -2.3062971 1.8390447 41
3.3013892 -2.2744589 1.8458425 42
4.1992254 -2.3705266 1.8355807 45
4.2294145 -2.3513725 1.8424793 37
4.5207038 -2.286768 1.8274835 38
-3.8991425 -2.1038435 1.8393461 55
-3.639004 -2.1764932 1.834718 48
-3.4934399 -2.1572235 1.9227585 67
-3.3157277 -2.1417258 1.9259363 55
-3.2144718 -2.2390373 1.9292734 58.5
-0.52686721 -2.1113808 1.8255402 4
-0.39704511 -2.1303833 1.8265392 76
-0.28224009 -2.1318252 1.8242012 71
-0.013943878 -2.1344812 1.8175907 68.333336
0.067348555 -2.1781323 1.8199353 68
0.2560814 -2.1835034 1.8231409 66
0.38562873 -2.166707 1.8195063 69
0.7417956 -2.1602757 1.8310734 63
0.83267337 -2.1479461 1.8294903 60.75
0.96868706 -2.2189972 1.8296834 57.666668
1.1188711 -2.145273 1.8318963 57.75
1.2732735 -2.1861048 1.8320836 55.666668
1.4238915 -2.2327037 1.8372277 34
3.5502791 -2.217241 1.8436381 36
3.8059871 -2.148632 1.8450485 32
4.51478 -2.23999 1.8389777 31
4.7968135 -2.1085973 1.8377913 23
4.8576903 -2.1864762 1.8255526 34
-3.9304633 -2.0723956 1.836342 59
-3.6441205 -2.0377705 1.8928779 43
-3.5061646 -2.0148439 1.9304941 59.5
-3.0571334 -2.0110044 1.9303037 72
-0.77594626 -1.9723986 1.8271308 1.5
-0.51367438 -1.9819357 1.8266798 72
-0.39484251 -1.993206 1.8270253 75
-0.16366206 -2.0306411 1.8149558 79
-0.10403106 -1.9923584 1.8206642 72
0.1095947 -2.0376461 1.8245343 70.666664
0.24906078 -2.0575073 1.8262897 70
0.41581565 -1.9806774 1.8274246 67
0.55283487 -1.9885855 1.8262646 64
0.69484168 -2.0433488 1.829235 66.571426
0.8428967 -2.0186472 1.8325477 65.166664
0.99099362 -2.0684879 1.8369515 60.5
4.053287 -2.0583203 1.8424593 27
4.3139982 -1.9575127 1.8464199 26
5.0863061 -1.961822 1.8430604 25
-3.8385744 -1.9228661 1.8339568 58
-3.6866515 -1.8872272 1.878132 46
-3.5401525 -1.8349686 1.9248627 64
-3.3474522 -1.830142 1.9299947 56
-3.2494044 -1.9300745 1.9307007 58
-2.9516425 -1.8326757 1.9193667 59
-2.7913098 -1.9225448 1.9194365 54
-0.84020483 -1.8653283 1.8255991 5.5
-0.61676598 -1.814991 1.8011948 8
-0.49724498 -1.8535557 1.8235308 87
-0.22460711 -1.8604548 1.8204838 80.285713
-0.034552861 -1.900949 1.8256563 76.333336
0.031056067 -1.8791803 1.8285462 75.666664
0.22592483 -1.8752236 1.8271823 71.333336
0.39583582 -1.8584493 1.82789 65
0.50208193 -1.8785375 1.8305374 68.800003
0.66666007 -1.8963846 1.832248 71
4.5599699 -1.8361645 1.8456377 22
5.5771141 -1.9204198 1.8366271 28
-3.9360969 -1.7414713 1.8337638 32
-3.7767622 -1.7061061 1.8967899 43
-3.6740828 -1.7481616 1.93161 64.5
-3.539906 -1.7023821 1.9309971 62
-3.110297 -1.7368503 1.9350065 74
-2.7919259 -1.6902626 1.922558 60.5
-2.6513629 -1.7746994 1.9196078 62.5
-0.84091604 -1.7831721 1.8285351 10.5
-0.71286505 -1.6817471 1.8117398 2
-0.59141332 -1.7244166 1.8295585 82
-0.35858947 -1.7398093 1.8194298 84
-0.22601433 -1.6974792 1.8271927 80.199997
-0.090068147 -1.7662091 1.8287768 73.5
0.092285872 -1.7133684 1.8273633 77.5
0.22427039 -1.690258 1.837265 60.625
0.35863644 -1.7352239 1.8324296 72.85714
0.53265011 -1.7630428 1.8337106 76
4.7988486 -1.6959629 1.8448776 23
5.3482041 -1.7888609 1.8418087 25
-3.8086374 -1.5884829 1.9115007 2.5
-3.7237148 -1.6126429 1.9342877 72
-3.5885673 -1.527673 1.9298526 62
-3.3594337 -1.5898186 1.9329776 60
-3.2267246 -1.634025 1.9357206 64
-3.0445149 -1.5451143 1.9177507 56
-2.957262 -1.5481775 1.9182295 62
-2.7741385 -1.5764412 1.9187446 60
-2.6738443 -1.5253912 1.9209217 59
-2.5367064 -1.6213584 1.9284652 63
-2.2579117 -1.5599614 1.9213458 33
-0.92665881 -1.5939802 1.8307629 11
-0.84361601 -1.6064612 1.8281608 11.666667
-0.67466187 -1.5855539 1.8190254 4
-0.48122394 -1.6079741 1.8249619 81.5
-0.37999678 -1.5912545 1.8298451 82
-0.2434545 -1.561801 1.8338168 76.599998
-0.070748091 -1.560865 1.8315375 78.400002
0.080123357 -1.5729159 1.8331007 76
0.21314304 -1.5638158 1.8476759 42.5
0.35478908 -1.6030341 1.8335038 80
5.0573888 -1.5459958 1.8550788 23
-3.6277924 -1.4270871 1.9339024 4
-3.5772848 -1.4064097 1.9350357 4
-3.3869309 -1.3618848 1.933026 55
-3.1723039 -1.4786423 1.9481648 36
-2.8856282 -1.3848495 1.9190921 60
-2.764385 -1.4545476 1.9189037 59
-2.5898652 -1.3904307 1.9261533 59
-2.3250046 -1.4765155 1.9237062 57
-2.2061293 -1.397149 1.9272819 58.666668
-0.98858505 -1.4483857 1.8331764 12.75
-0.88236904 -1.4140788 1.8236223 14
-0.60393703 -1.4577415 1.833779 83
-0.5048297 -1.4349041 1.8299323 81.166664
-0.36039373 -1.4161023 1.8315009 73.571426
-0.20121454 -1.4289042 1.8341638 79.666664
-0.07297831 -1.4151393 1.8334347 73.5
0.063680202 -1.4289645 1.8353958 76.666664
0.23129618 -1.4516323 1.835905 99.5
-3.2149282 -1.2174428 1.9470271 2
-3.1125665 -1.2748624 1.9364635 38
-2.9949343 -1.2740595 1.9127573 54
-2.7848127 -1.2462001 1.9270867 55
-2.6997042 -1.2847401 1.9249538 52
-2.3474131 -1.285846 1.9239733 61
-2.1527662 -1.2518824 1.924685 63
-1.0908952 -1.209209 1.8388175 17
-0.99857336 -1.3076786 1.8309406 13
-0.85862148 -1.2786636 1.8314941 13.5
-0.65192133 -1.2701772 1.835701 84.666664
-0.52802789 -1.2868245 1.8331703 80.5
-0.40071684 -1.2742952 1.8383048 76
-0.22331622 -1.2722691 1.8360907 69
-0.073401846 -1.2707487 1.8378198 68
0.047793608 -1.2927719 1.8368784 76
-2.9268785 -1.129523 1.9205869 62
-2.719419 -1.0510495 1.9255611 61
-2.6408281 -1.1693451 1.928449 64
-2.3061507 -1.1424235 1.9256541 59.666668
-2.1711645 -1.0665623 1.9240113 62.5
-2.041955 -1.1958404 1.9240953 63
-1.8031418 -1.068341 1.9265208 69
-1.6960115 -1.0925288 1.9259938 40
-1.2111971 -1.0850298 1.8333632 17
-1.0997981 -1.1382347 1.834056 17
-0.98410821 -1.1175926 1.8259012 17
-0.80282128 -1.1225839 1.8150204 23.5
-0.6674993 -1.097253 1.8312221 91.25
-0.50977331 -1.1456114 1.8323852 79
-0.37836921 -1.1100787 1.8320928 63.5
-0.23329002 -1.120384 1.8313525 55.625
-0.091688365 -1.1574126 1.8356756 70.333336
-2.821048 -1.0077858 1.9280462 32.5
-2.686626 -0.95024049 1.9276782 63
-2.4327772 -1.0124805 1.928486 64
-2.3161688 -0.94443822 1.9224854 59.5
-2.223634 -1.010731 1.9223706 65
-2.0919981 -1.0098532 1.9238924 70
-1.7311531 -0.95183158 1.9258059 74
-1.6203693 -0.95153356 1.9296379 73.666664
-1.2265707 -0.91191697 1.8318872 15
-1.1264129 -0.99717581 1.8333848 19.5
-1.0045211 -0.97030914 1.8298033 17
-0.76455384 -1.0015991 1.8358612 97.5
-0.65518898 -0.95382607 1.8285862 79.25
-0.53566468 -0.97465432 1.8261827 64.75
-0.38484514 -0.98192781 1.8264656 50.833332
-0.25919959 -0.96447659 1.8240896 43
-0.1207035 -1.0047975 1.8239003 40.5
-2.7372942 -0.82511896 1.9290172 63
-2.4752932 -0.78619695 1.9312204 66
-2.3286066 -0.84807467 1.9256904 35
-2.1820929 -0.85474342 1.9232136 67.333336
-1.8487757 -0.87939584 1.9235513 73.5
-1.7186152 -0.79829347 1.9284877 69
-1.6132593 -0.78273314 1.9309734 73
-1.3545308 -0.75195414 1.8242325 85
-1.308748 -0.78632039 1.8302993 61.5
-1.1063663 -0.87186456 1.8299088 18
-0.82436192 -0.82150525 1.8257647 70.199997
-0.64989752 -0.82424533 1.8274839 80
-0.50925577 -0.83056062 1.8255624 70.333336
-0.37084872 -0.84083921 1.8255293 58.714287
-0.21885166 -0.83727306 1.8228992 48
-2.7261937 -0.73403841 1.9255782 7
-1.8491431 -0.69524604 1.9250814 70.5
-1.6946265 -0.62975651 1.9290662 69
-1.3827641 -0.63072377 1.8267672 80.5
-1.2714632 -0.62583417 1.8309957 86.5
-1.1638765 -0.61378306 1.8283465 76
-0.92329991 -0.63977385 1.8211786 33
-0.8166039 -0.6604352 1.8263912 82.166664
-0.67943501 -0.68286127 1.8265122 81.444443
-0.53177041 -0.67340142 1.825801 78
-0.38954228 -0.68126768 1.825093 70.571426
-0.28075203 -0.71549112 1.8256592 61
-1.8632407 -0.51576048 1.9234058 75.666664
-1.732991 -0.50118893 1.9295528 73
-1.4171101 -0.48141909 1.8287451 77.5
-1.2824999 -0.48906955 1.8269987 76.199997
-1.1711739 -0.48380286 1.8285202 67
-0.97813457 -0.52584463 1.8206072 44
-0.81721002 -0.50502461 1.8250606 81.199997
-0.68190747 -0.54091293 1.8241946 82.5
-0.50457644 -0.51798332 1.8261524 81.375
-0.38409737 -0.5307982 1.8260369 72.666664
-1.9629885 -0.3236075 1.9256977 74
-1.867218 -0.33368415 1.9241172 81.75
-1.7514783 -0.37395531 1.9309205 78
-1.404794 -0.33899942 1.8301609 95.25
-1.2596257 -0.36394474 1.8464185 53.25
-1.0775664 -0.41313776 1.8198904 25
-0.953767 -0.397055 1.8234239 62.333332
-0.80915928 -0.37143117 1.8251067 81.285713
-0.67424965 -0.39326429 1.8261682 79.875
-0.53588259 -0.35380507 1.8285648 76.714287
-0.4126417 -0.35682628 1.829136 80
-2.651448 -0.16483237 1.82243 1
-2.3885057 -0.22515948 1.8196381 73
-1.8041832 -0.19945879 1.8267783 80
-1.7354788 -0.24031353 1.8983766 84
-1.424578 -0.19367495 1.8295854 102.5
-1.2705905 -0.23270774 1.8270406 78.75
-1.1012558 -0.28185287 1.8107826 15
-0.97721881 -0.21413131 1.8225232 72.14286
-0.82379949 -0.23474491 1.8262764 79.300003
-0.69079655 -0.23582098 1.82701 78.85714
-0.53139633 -0.21691677 1.8300555 76.599998
-0.44150317 -0.23742777 1.8268534 78
-2.4381285 -0.064960077 1.8299561 15
-2.3185732 -0.10335425 1.8261784 47
-2.1895945 -0.075467579 1.8279123 23.666666
-1.8616121 -0.1088205 1.8271837 72.5
-1.720422 -0.096525386 1.8305025 80
-1.4385427 -0.047447402 1.828951 102
-1.2859095 -0.10446878 1.8283308 81.25
-1.0569625 -0.036162838 1.8250381 78
-0.95235366 -0.044455029 1.824874 81.75
-0.83466256 -0.082703546 1.8234634 78.85714
-0.68832242 -0.071732871 1.8269011 79.699997
-0.54683381 -0.087102912 1.8269397 77.5
-2.4806068 0.11124852 1.9275144 12
-2.281466 0.097820371 1.8026577 9
-2.148417 0.064189345 1.8311847 16
-1.8618978 0.070810072 1.8215904 21.666666
-1.736035 0.057166725 1.8375187 52.5
-1.4492625 0.098672509 1.8340169 100
-1.2845551 0.061114687 1.8264848 75
-1.1043928 0.097535774 1.8145651 42
-0.94190139 0.072815537 1.8246222 82.333336
-0.82711524 0.065499738 1.8281891 80.800003
-0.69357342 0.075890496 1.8287282 76.5
-0.52395976 0.060687698 1.8254137 83.400002
-2.323112 0.16393952 1.9317158 13
-1.7555811 0.19414437 1.8078796 14.5
-1.3923529 0.21004254 1.8289738 35
-1.3140088 0.24327277 1.8367467 56.333332
-1.1120548 0.22698388 1.8271689 84
-0.95490253 0.2244895 1.8268026 79.285713
-0.82140929 0.21923493 1.824544 79.833336
-0.68258029 0.21926039 1.8273191 79.833336
-0.50620699 0.22342302 1.8258383 80.75
-1.2216485 0.36675879 1.8109041 3
-1.1095912 0.3572759 1.8276048 80
-0.94749653 0.36604601 1.8255064 77
-0.81216544 0.37905407 1.8257164 77.166664
-0.6777342 0.38099405 1.8269628 76.666664
-0.53103691 0.38413158 1.8284137 82
-1.4604372 0.59331751 1.8394324 85
-1.2199228 0.49667999 1.8429443 95
-1.0834634 0.52468675 1.8274602 74.333336
-0.95707095 0.53240174 1.8292463 74
-0.83279496 0.51745707 1.8257933 79
-0.68358463 0.5288502 1.8250831 74
-0.52336121 0.51672912 1.8253505 78.400002
-1.6211828 0.74983656 1.8346876 81
-1.4420173 0.71077931 1.83678 82
-1.2572037 0.67066282 1.8385011 89.333336
-1.1490493 0.69966853 1.838568 94.5
-0.96227562 0.70698988 1.8287219 77.25
-0.80509567 0.65921205 1.8258331 74.571426
-0.66447616 0.67331076 1.8237773 75.833336
-0.53013074 0.6752966 1.8318493 66
-0.43905637 0.70305288 1.8271557 68
-1.8048967 0.8698085 1.8284096 85
-1.7439371 0.82497948 1.8305322 86
-1.4374591 0.75090617 1.8375548 62
-1.2906028 0.82442409 1.8355922 65.333336
-1.1220376 0.83235759 1.8372825 90.5
-0.95563936 0.83791941 1.8303474 86.333336
-0.83776587 0.84267515 1.83211 86
-0.67635798 0.81699306 1.8259901 73.307693
-0.53635752 0.85571826 1.8292981 71.5
-0.40341201 0.82312131 1.8269353 78
-2.1000211 0.95908022 1.8343748 72
-1.876036 0.95945376 1.8315169 75.666664
-1.7248932 1.0005733 1.8310426 66
-1.5967416 0.90268254 1.8343495 81
-1.368825 0.99917972 1.8345462 88
-1.2802444 0.96116573 1.8367779 82.5
-1.0893337 0.96824372 1.8376616 89
-0.95294535 0.96214122 1.8347489 87.5
-0.81829047 0.9757688 1.8335218 89
-0.65494931 0.97085047 1.826573 79.800003
-0.53125769 0.97772211 1.8297732 82.285713
-0.37828475 0.97966778 1.8271142 70.5
-2.4199018 1.1935973 1.8373657 76
-2.3173447 1.1043855 1.8309528 75.333336
-2.1893373 1.1260606 1.8356105 77
-2.0777061 1.1487606 1.8348097 74
-1.8524603 1.1564567 1.8308114 76.666664
-1.7521685 1.1330045 1.8261524 84.666664
-1.5969588 1.127645 1.829332 80.5
-1.39077 1.0703075 1.8296427 44.5
-1.2874644 1.1255041 1.8317662 85.5
-1.1262655 1.1245849 1.8374182 75
-0.97856116 1.1086779 1.8349273 86.5
-0.85035557 1.1244886 1.8348027 83.25
-0.66537708 1.1221029 1.8332434 84
-0.51564819 1.1293654 1.833034 73.333336
-0.35500687 1.1079199 1.8309877 80.400002
-0.26089087 1.1916139 1.832004 71.5
-2.7878726 1.3370131 1.8406605 80
-2.6421638 1.3345343 1.8436757 80
-2.4443893 1.2800536 1.835933 76
-2.2941995 1.3166432 1.837598 78
-2.1615014 1.3347679 1.8318692 76
-2.0484948 1.3435531 1.8331789 74
-1.810346 1.3249462 1.8258518 72
-1.7820318 1.3003104 1.8268181 78
-1.3752397 1.2389935 1.827288 84
-1.2641106 1.2798088 1.8301293 81.199997
-1.1305479 1.2622842 1.8371187 74
-1.0036569 1.2456093 1.8369372 73.5
-0.80997807 1.2849367 1.8329872 75.5
-0.63957596 1.2831664 1.8328077 76.5
-0.51727629 1.262369 1.8329612 76.714287
-0.37556216 1.2904216 1.832707 72
-0.20663327 1.2968159 1.8327867 67.5
-2.4382691 1.4652679 1.8338267 70
-2.3580899 1.3710885 1.8359584 82
-1.8549234 1.3999937 1.8262392 80
-1.7210419 1.3618678 1.823104 68
-1.4840901 1.3773459 1.8202406 62
-1.2748681 1.415803 1.8286473 80.333336
-1.1217009 1.4119524 1.8330351 71.5
-0.9490273 1.384882 1.8319881 73
-0.79261011 1.4606494 1.8335775 72.5
-0.71422267 1.4000187 1.833647 72.5
-0.53180921 1.386193 1.8285097 71.75
-0.39374709 1.4434571 1.8311808 71.25
-0.21657057 1.4241352 1.8243443 64.5
-0.1432084 1.3921071 1.815832 74
-3.0545025 1.6325725 1.8346769 82
-2.9261737 1.5940619 1.8356695 76.5
-2.7728915 1.595474 1.8390585 83
-2.6257927 1.5780808 1.8442186 70
-2.3182373 1.5706468 1.8344053 72.75
-2.1341398 1.5577331 1.8371552 74
-2.0107021 1.5444689 1.8284172 70
-1.5361941 1.5521152 1.8196164 68
-1.4425548 1.5547427 1.8294545 75
-1.2612607 1.5534216 1.8282903 75.5
-1.1644161 1.566538 1.8297552 75.5
-0.96885908 1.552393 1.831053 69
-0.80908799 1.5482868 1.8320464 75.5
-0.66050118 1.5755529 1.8276991 68.666664
-0.49528801 1.5383034 1.8298502 71.5
-0.37095863 1.5779288 1.8273017 68
-0.25145885 1.5879385 1.82794 71.714287
-0.071814798 1.5836283 1.8257304 68
0.0035813868 1.6188636 1.8283252 73
-3.6625447 1.7983644 1.8414165 74
-3.5036404 1.6658212 1.8381494 62
-3.4333436 1.7456858 1.8428162 74
-3.2147362 1.7234933 1.8441709 87.5
-3.0915484 1.6825999 1.8325566 75
-2.4503269 1.7643129 1.8369125 73
-2.346947 1.7421227 1.8362011 72
-1.3839239 1.72405 1.820475 69
-1.2032455 1.7739804 1.8140587 75
-1.141264 1.7326241 1.8281574 71.5
-0.98808759 1.7334517 1.8303735 64.5
-0.81903219 1.6811852 1.832168 67.5
-0.65713024 1.7194061 1.8310297 70.5
-0.51330703 1.6815791 1.8250605 72
-0.36398929 1.7341646 1.8275031 67
-0.24287389 1.7228597 1.8264475 70.833336
-0.073906712 1.7302395 1.8241451 70.875
0.088341117 1.7434659 1.8256553 69.5
-3.0172589 1.9314239 1.8309444 67
-2.9291878 1.8876827 1.8350137 75
-2.7550044 1.8690461 1.8385497 84
-2.6038554 1.8327569 1.8444151 86
-2.3362818 1.8524218 1.8345375 75.5
-2.2149992 1.810908 1.8384861 67
-0.82588542 1.8601515 1.8291676 66
-0.63773406 1.8397049 1.8288249 67.666664
-0.54714304 1.8745847 1.8313321 67
-0.41326472 1.8268003 1.8279022 65
-0.22654533 1.8583901 1.8242643 69.5
-0.071690768 1.8823366 1.8274906 68.400002
0.084902212 1.8611563 1.8235165 69.5
0.1850536 1.8850708 1.8237438 64.666664
5.7848787 1.90527 1.8288115 29
6.1131048 1.8146788 1.8548664 2
-4.027009 2.0815265 1.8453873 77
-3.7164025 2.0288098 1.8375555 66.5
-3.5501349 2.0030193 1.8385578 64
-3.4442863 2.0766413 1.8428134 77
-3.2130857 2.0406852 1.8423145 75.5
-3.1038792 1.9833863 1.8409891 78.5
-2.4132223 2.0402086 1.8320762 67
-2.3662503 1.9572035 1.8317398 68
-0.52674478 1.9628475 1.822945 68
-0.30070642 1.9639353 1.8186229 67
-0.17626944 1.957945 1.8229293 71
-0.073818669 2.0191593 1.8243662 69.800003
0.048560984 2.0312238 1.823438 71.199997
0.21664675 2.0080581 1.8231531 67
0.33652151 2.054306 1.8210473 65.5
5.8525839 2.01823 1.8334111 30
-4.2926545 2.2028747 1.843182 69
-4.0218911 2.159765 1.845369 67.666664
-3.8500805 2.1292183 1.8352045 63
-3.6859968 2.1591387 1.8441547 71
-2.9393058 2.2129254 1.8431339 73.5
-2.7388771 2.1677976 1.845039 79
-2.5757737 2.1024959 1.8414022 74
0.07115525 2.1390264 1.8173753 63.5
0.20609559 2.1272893 1.8211678 72
0.37347636 2.162236 1.8195821 68.666664
0.49048653 2.2185442 1.821794 63
5.6070747 2.1705551 1.8289574 28.5
-4.7199221 2.3514397 1.841491 64
-4.4681044 2.2831118 1.8441926 67
-3.972122 2.2567387 1.8495303 71
-3.7909732 2.3743563 1.8525511 73
-3.5985987 2.3711269 1.8361226 65
-3.2307596 2.3378894 1.8478786 69
-3.07813 2.3076317 1.8394908 65.333336
0.55269587 2.2732177 1.8208946 69.666664
5.4363422 2.348444 1.850705 41
6.7203827 2.3208172 1.8272134 25
6.9628201 2.3792152 1.8238059 27
-4.0861397 2.5162878 1.8439844 67
-3.9711342 2.5393219 1.843755 63
-3.7403679 2.450928 1.8345484 59
-3.4551768 2.4356716 1.8450652 70
-3.1927636 2.4310491 1.8380886 63
-2.9817891 2.5357952 1.8347684 66
0.91694397 2.5308969 1.8191262 32
5.1466241 2.5086434 1.8332871 28
5.4202657 2.417105 1.8467058 32
-4.3932509 2.6382177 1.8398979 67.5
-4.2696257 2.6286836 1.8376836 66
-4.0786395 2.6296268 1.8416277 68
-3.9974005 2.680301 1.8459176 65
-3.7112935 2.5559695 1.849944 68
-3.05901 2.6533303 1.8402256 42.5
-2.8912542 2.585686 1.8525938 14
1.0065309 2.5978925 1.8174 53.200001
1.1215552 2.6499724 1.818193 51
4.8838696 2.6654129 1.8332459 27
5.1297026 2.5651453 1.8370003 27
6.4077897 2.5580525 1.8264214 23
6.6382775 2.6221695 1.8282758 26
-4.8016386 2.7763529 1.8494273 62
-4.7508087 2.8132491 1.8444258 61
-4.5420036 2.743804 1.8446492 62
-3.8223727 2.7768564 1.8474213 63
-3.66046 2.788192 1.8408061 62
-3.4637768 2.8287265 1.8455876 54
-3.2291698 2.7803826 1.860341 29.5
-3.1281869 2.7473397 1.8571831 25
1.1431935 2.7101674 1.8167766 50.5
1.2664932 2.7336082 1.8193467 49.400002
1.4300921 2.8199768 1.8260026 46.5
1.5209365 2.806844 1.8363608 51
4.5961151 2.8128381 1.8397686 26
4.8595743 2.7052088 1.8396693 27
6.0244184 2.743305 1.8116142 22
6.2834587 2.8304279 1.8330125 23
-4.8601322 2.8696461 1.8438102 67
-4.1208434 2.9582729 1.8440449 65
-3.9348848 2.9850209 1.837447 63
-3.7916164 2.8831301 1.8355926 63
-3.730521 2.9858079 1.8505875 51
1.4223418 2.894403 1.8262422 52.5
1.6155468 2.9243138 1.8248924 45.333332
1.7191687 2.8994761 1.8310415 48.333332
1.8887291 2.9886477 1.8271736 46
1.9796218 2.9559498 1.8318725 49.5
2.2460825 2.9841692 1.8302048 44
3.987463 2.9796607 1.8328527 31
4.2907972 2.9054327 1.8347479 32
5.6766992 2.9179199 1.8164374 31
5.8370671 2.9687872 1.8127421 31
7.3278799 2.8657613 1.8368963 23
-4.4095116 3.0606496 1.818571 86
-4.3115807 3.0813804 1.815564 79
-4.1465282 3.0553226 1.8434945 71
-4.0170631 3.1419017 1.8383797 82
1.1723166 3.0311255 1.8269469 46
1.2611771 3.1223326 1.8189718 42
1.3891772 3.1187749 1.8312472 53
1.607102 3.0367098 1.8268169 49
1.7538087 3.0537307 1.8241063 50
1.8659698 3.0521297 1.8176879 47
2.0242243 3.0677636 1.8228719 47
2.2022409 3.0586739 1.8249177 44.666668
2.4912529 3.0778553 1.8287846 43.333332
2.7947288 3.0691936 1.8311248 44.5
3.0888824 3.0782146 1.8327048 29
3.3775537 3.0594883 1.8282404 35.5
3.6807046 3.0292735 1.8300511 32.5
5.3016877 3.0532827 1.8172036 29
5.4689598 3.1137333 1.8239666 31
6.9506078 3.1197612 1.8267735 25
7.4112015 3.0658445 1.8153573 25
7.5311131 3.0801394 1.8134862 24
-3.8376038 3.2042358 1.8288523 82
-3.7063866 3.2391419 1.8295535 79
1.3215338 3.1803524 1.8269275 37.333332
1.4299066 3.2520018 1.8234904 52.5
1.5910567 3.2731552 1.828272 41
1.8909965 3.188056 1.8212215 50
2.0389438 3.1918831 1.8184401 47
2.2187104 3.2154655 1.821283 45
2.464606 3.204299 1.8242626 42
2.7949181 3.2135155 1.8234825 42.5
3.0763721 3.2395988 1.8165838 30
3.1673837 3.2759225 1.8262228 32
3.4313493 3.2785759 1.8226699 29
3.7991765 3.2927577 1.8266062 31
4.1716866 3.2779098 1.8265647 32
4.5485559 3.2340662 1.8239228 30
4.6735196 3.2810121 1.82836 33
4.9310322 3.1613724 1.8226093 27
5.0688505 3.211798 1.8252157 29
6.897994 3.2656574 1.813028 24
7.1057978 3.2947967 1.8199226 23
1.5906861 3.3528004 1.8233408 50
1.7158412 3.4039741 1.8228378 53.5
1.8744196 3.4067519 1.8255544 46.666668
2.2120245 3.3464019 1.8206288 44
2.3569157 3.3309278 1.8146721 44
2.5426474 3.3257449 1.8175513 40
2.7367632 3.3352153 1.8151549 42
2.8952949 3.4265218 1.8143603 34
3.0903625 3.415838 1.8096977 32
3.5317135 3.3183737 1.8324095 30
3.8968217 3.3285573 1.8301767 32
4.2790833 3.3161452 1.8289772 32
6.3715062 3.4131906 1.8117744 23
6.5766935 3.3521907 1.8295873 25
7.3965664 3.3373871 1.8173472 26
1.5322064 3.4591053 1.8250726 52
1.8990581 3.5146365 1.8240995 48
2.0333304 3.557148 1.8238 47
2.2147107 3.5194545 1.8332527 43
2.5300913 3.5472591 1.8363463 36
2.5738771 3.5046535 1.8195583 27
2.7132623 3.4697282 1.8120517 42
3.1064992 3.5992911 1.8082279 31
3.2864857 3.5244949 1.816748 29
3.491544 3.4998143 1.8147093 30
3.9129283 3.5580549 1.8142484 31
4.3534274 3.5865948 1.8103381 33
4.8254695 3.5928566 1.807922 28
5.3160405 3.5664899 1.8049027 30
6.1519208 3.5333743 1.8259455 25
6.7035327 3.4893761 1.838956 26
6.7990742 3.4876735 1.8073949 24
1.8643358 3.6777411 1.8220221 47
2.187057 3.6720436 1.8223492 44
2.3065228 3.6188865 1.8277102 42
2.584363 3.7252445 1.8266505 34
2.7183909 3.7158079 1.8232278 35
2.918962 3.642231 1.8263787 26.5
3.2236044 3.7012382 1.8381647 21
3.5705824 3.738265 1.8202177 27.5
3.7106073 3.6061394 1.8172089 31
4.1600881 3.6642511 1.8148605 32
4.644733 3.7001944 1.8141776 27
5.1545677 3.705647 1.8122832 30
5.6825652 3.6578524 1.8130449 24
5.702806 3.6750009 1.8168043 21
6.2448449 3.6166265 1.8262113 24.5
2.392338 3.7730176 1.8152834 42
2.4976084 3.7532165 1.8181111 37
2.9771776 3.8554871 1.8307997 31
3.1046395 3.7938745 1.8247582 29
3.4282994 3.8069282 1.817598 22
3.5054488 3.8451419 1.8230904 29
3.9990761 3.8472378 1.8274335 24.666666
4.3938165 3.8468168 1.8320079 27.5
4.8266249 3.8221078 1.8287864 29.5
5.2709932 3.7701573 1.8260792 30.5
7.0810719 3.8715713 1.8189551 27
2.2485223 3.9096553 1.8215619 45
2.6250143 3.9272819 1.8227433 36
2.8022552 3.972719 1.8195676 39
2.9000471 3.9147172 1.8215197 31
3.3959231 3.9646149 1.829267 31
3.8570859 4.0184293 1.8185698 29
3.9329436 3.9474077 1.8174704 25
4.5702682 3.9363532 1.8035861 28
6.505125 3.9956315 1.8157939 26
2.6954365 4.1611023 1.8238858 34
3.0679905 4.1154995 1.822168 31
3.2519534 4.1579566 1.8139707 32
3.3308351 4.0505266 1.8155149 30
3.81828 4.1341858 1.8213469 27.5
4.332263 4.1314507 1.8250555 26.5
4.4660511 4.0511522 1.8061646 27
4.8440576 4.1088386 1.8164726 21
5.3659191 4.1004758 1.8106738 23
5.8055916 4.0594625 1.8046943 21
5.9363093 4.0754457 1.8167456 26
7.2603602 4.1763501 1.8006355 25
1.8975019 4.2877083 1.8349258 40
3.5613832 4.296855 1.8214172 30
4.3348107 4.2992439 1.8093668 27
4.86095 4.2567129 1.8314511 30
5.4169178 4.2911944 1.8247582 23
5.7453332 4.2230368 1.8031183 26
6.0545402 4.3259926 1.8324088 27
6.4707193 4.2563987 1.8022636 27
6.7120738 4.3120775 1.8359114 28
1.8630328 4.402905 1.8345064 33
3.1994863 4.4097056 1.8217114 31
3.7689369 4.3537636 1.8145865 26
4.1070089 4.4652414 1.8173076 18
4.9070764 4.3960285 1.805751 20
5.5355525 4.4710078 1.8035845 22
2.2990096 4.5322995 1.8434719 35
4.3441153 4.5356326 1.8103918 30
4.7301817 4.6366334 1.8193516 20
6.2117672 4.5104561 1.8020014 23
6.9388094 4.5144987 1.8029951 26
2.2935112 4.6971712 1.8392335 33
2.7475045 4.7809587 1.8486258 24
3.783932 4.6702399 1.8223666 27
5.413219 4.7832427 1.8174001 22
2.3072181 4.8903489 1.830098 36
4.4507108 4.9284143 1.8170878 31
6.1671686 4.9034061 1.8141273 25
2.7822285 5.0006371 1.8394376 35
3.2236807 4.9967694 1.8394479 27
7.0141439 5.0018644 1.8168541 26
3.7810042 5.2488513 1.8421308 31
5.2217102 5.1921272 1.8155257 27
4.3914437 5.4849081 1.8375615 35
6.1216688 5.4588284 1.8155028 25
5.0436683 5.6875014 1.820592 34
5.7855034 5.8973007 1.8081011 33
8.811038 6.6236033 1.8311566 21
-3.2615168 -1.3651767 1.9517606 36
