# .PCD v0.7 - Point Cloud Data file format
VERSION 0.7
FIELDS x y z intensity
SIZE 4 4 4 4
TYPE F F F F
COUNT 1 1 1 1
WIDTH 1602
HEIGHT 1
VIEWPOINT 0 0 0 1 0 0 0
POINTS 1602
DATA ascii
1.9260515 -2.6048527 -0.18279243 89.5
0.96825868 -2.5332863 -0.19182616 5
0.52790785 -2.1282282 -0.17251429 8
0.6196081 -2.1988909 -0.15787187 6
0.47387755 -2.067348 -0.17667635 8
0.32970434 -1.9482954 -0.1741358 11
-0.050381206 -1.5814451 -0.18989605 9
0.004107994 -1.6375307 -0.18939801 19
-0.30516669 -1.3661906 -0.18084984 5
-0.18739451 -1.4632953 -0.16676527 9.5
1.7896376 -1.3538923 -0.174766 0
2.007673 -1.4902669 -0.19011666 3
-0.3707478 -1.2983903 -0.18315475 5.625
-0.48294887 -1.1901488 -0.16002212 6
0.94095153 -0.66372037 -0.16987091 5
1.1069512 -0.61350244 -0.15882316 5
1.2179955 -0.69814008 -0.18483712 6
1.5753914 -0.6122269 -0.16081136 81
1.5873917 -0.57838899 -0.19539535 37
0.66213167 -0.21670099 -0.17423949 4.1999998
0.5112983 -0.053646479 -0.1748181 7.8888888
0.55485219 0.044522613 -0.17599481 8.333333
0.64809752 0.12842801 -0.17173623 7.5999999
0.6906141 0.23203997 -0.17821427 12.090909
0.55720049 0.39524671 -0.16657466 16.1
0.62238795 0.32607993 -0.173658 15.333333
-0.06513764 0.5105648 -0.18098499 5.0999999
0.017673027 0.59314257 -0.17934397 3
0.40880272 0.54066533 -0.17299199 16.25
0.47479433 0.4732047 -0.17226003 14.5
0.7129162 0.57801127 -0.19616598 13
0.88161641 0.5509367 -0.18994822 13
1.0044987 0.54291201 -0.19873212 10
0.077110216 0.6620692 -0.17089048 4
0.22849618 0.71452469 -0.17636961 14
0.32447532 0.61943465 -0.1707097 17.5
0.86709088 0.69438976 -0.19084111 13
0.94022459 0.61897403 -0.18893105 14
0.18101406 0.75669044 -0.16572675 15.5
0.62786478 0.88830304 -0.19314104 14.5
0.5325067 0.94880724 -0.19261579 12.5
-1.0820414 1.7866609 -0.18253428 74
2.5733228 1.6959887 -0.16170014 75
-0.97411585 1.9036022 -0.17737907 72.666664
-0.81694829 2.0613952 -0.18027255 65
-0.76720691 2.119508 -0.16557243 64
-0.72754973 2.1592457 -0.16838682 68.333336
-0.5727312 2.3230424 -0.16507825 67
0.62788725 3.5385652 -0.16457991 5
0.43763751 3.6977682 -0.18631585 5
0.55048811 3.6076751 -0.18756019 6
0.26372248 6.8716192 -0.1554106 57
1.7182798 -2.5717466 -0.1080713 150
1.8694882 -2.6594393 -0.12115272 87.666664
1.2727227 -2.4106092 -0.14496584 150
1.4047775 -2.4718964 -0.027211908 110.5
1.6033316 -2.4752984 -0.073048703 150
1.4059935 -2.3654368 -0.094981581 115.25
2.1914883 -2.3126793 -0.023213869 91
0.66346633 -2.2321987 -0.1267975 2
2.3259504 -2.1710842 -0.13857405 92
0.40343004 -1.9926969 -0.10176084 9
0.4661732 -2.0648134 -0.095963649 8.666667
2.4613194 -2.0286026 -0.070022039 87.5
0.27375495 -1.8814201 -0.073587619 11.25
0.32693911 -1.9338942 -0.11457563 9.5
0.1184727 -1.7431742 -0.016440218 7
0.16853948 -1.7894194 -0.064386167 6.5
-0.11087342 -1.5359122 -0.096139014 4.6666665
2.3352933 -1.5524573 -0.12619546 120.5
-0.24475782 -1.4139394 -0.098996803 4.4000001
-0.14880741 -1.4947519 -0.1414189 3
1.9409655 -1.4555662 -0.11711447 3
-0.4651967 -1.2133437 -0.089196995 4.8000002
-0.38374695 -1.2862002 -0.076262139 4.7894735
-0.62234986 -1.0673044 -0.050905317 4.75
-0.54024941 -1.1428791 -0.070417322 5
-0.7707116 -0.92605525 -0.011348371 5
-0.67302048 -1.0167829 -0.023730297 5
1.0069486 -0.7525965 -0.066290922 1.5
1.1738052 -0.75108999 -0.021258032 0
0.92061943 -0.65950334 -0.077336229 1
1.1281891 -0.70149726 -0.064136043 4.25
0.86399609 -0.53739733 -0.084153071 1
0.96440345 -0.51818031 -0.093921699 2
1.1697322 -0.49143714 -0.10932345 14
1.5259475 -0.53209978 -0.1482366 28
0.82211298 -0.3512446 -0.12152269 2.6666667
0.922104 -0.41725141 -0.097241588 1
0.66026115 -0.21208459 -0.11057811 5.7692308
0.522919 -0.082330123 -0.12270733 6.4444447
0.60189462 -0.14529386 -0.12371866 6
0.43987381 0.14953917 -0.11750842 4
0.5348193 0.074355088 -0.12532952 6.2857141
0.63602191 0.11863065 -0.13330463 6.5999999
0.14033915 0.29985857 -0.11606152 4
0.24966519 0.28268331 -0.11981732 4.6666665
0.36610654 0.23970971 -0.11894047 4.2727275
0.51025355 0.23707871 -0.11882565 3.6666667
0.68000603 0.23495653 -0.13179633 9
-0.0388056 0.42001703 -0.10670999 6.6666665
0.067797072 0.37358215 -0.11547486 5.6785712
0.2257098 0.37710151 -0.12026987 4.173913
0.37648886 0.35880658 -0.12182258 4.0666666
0.52865046 0.40368688 -0.13308187 12.416667
0.6235646 0.33057582 -0.12985684 10.75
-0.045243926 0.48965424 -0.12544478 4.625
0.082015432 0.5162456 -0.12640326 3.6111112
0.22781233 0.51875669 -0.12444237 4.125
0.38010335 0.52986711 -0.12896146 9.1428576
0.4731333 0.47496 -0.13214819 17.5
0.095095262 0.66665554 -0.12812898 3.75
0.22715275 0.66461319 -0.13006149 8.333333
0.32093811 0.62235022 -0.13595617 15.333333
-1.2427193 1.6130698 -0.073968954 59
-1.3161542 1.7627466 -0.01207616 48.5
-1.1434311 1.7377361 -0.09960717 79.599998
2.5023608 1.7746134 -0.12055082 24
-1.062884 1.8543597 -0.083820112 92.333336
-1.0244577 1.8493589 -0.11701081 66.833336
-0.94081587 1.9579887 -0.072530247 110
-0.85101593 2.0213938 -0.099604443 59
-0.69540489 2.1866181 -0.091988273 56
-0.58293343 2.3161755 -0.086239584 33.5
0.44210327 3.6705694 -0.01701141 5
0.50420934 3.6188395 -0.13139477 5
0.3794744 3.7593622 -0.067967393 4
0.77587265 3.8049984 -0.105319 0
0.88473898 3.9005969 -0.057643507 6
-0.5812977 5.0897136 -0.040287945 10
-0.59810358 5.9318423 -0.12290982 78
-0.36677819 6.2004175 -0.051417328 81.5
0.42353082 7.0501065 -0.10522694 60
1.6193273 -3.0609827 0.13771337 24
1.6679569 -3.0909858 0.14204586 27
1.4250772 -2.9246449 0.073975906 7.5
1.5663193 -2.9571362 0.074383378 48.5
1.3059185 -2.8457305 0.11703747 4
1.5784755 -2.8198788 0.014530594 9
2.2400517 -2.6380069 0.13086206 90
0.98558992 -2.5427647 0.10979262 2
1.4467647 -2.5346944 0.055364665 47
2.3314378 -2.5378439 0.14998192 83
2.419234 -2.4333601 0.13374752 82
2.5787776 -2.3249176 0.083973788 32
0.66450804 -2.2336953 0.1218124 2
1.5286903 -2.1347024 0.12786829 3
2.3112497 -2.1801496 0.0048591448 49
2.4867864 -2.2477121 0.05137017 28
2.6755843 -2.244024 0.10960626 38
2.71016 -2.1876407 0.061836567 29
2.4701695 -2.014735 0.0025716377 7
0.094130933 -1.7254092 0.012755488 9.333333
0.00035236479 -1.6448984 0.052362498 5
-0.22997873 -1.4132307 0.07712023 4.4000001
1.8844428 -1.4723434 0.12389462 5
-0.46296659 -1.2099038 0.038953468 4
-0.37032986 -1.2867607 0.097187273 2.1666667
1.7549288 -1.3225673 0.13710368 0
-0.62009531 -1.0679065 0.071722582 5
-0.54473579 -1.1382204 0.050253678 4.3333335
-0.7727828 -0.92407638 0.068509243 4.75
-0.69726735 -0.99257338 0.076705486 4.521739
-0.82010651 -0.84880149 0.070467666 3.2307692
1.1132331 -0.76296932 0.072608016 2.3333333
0.98607874 -0.62738663 0.091437481 3
1.1108856 -0.72851461 0.13352174 2
0.84525883 -0.51262683 0.051664401 1.1428572
0.94337171 -0.5954603 0.1462903 2
-1.1020406 -0.38225633 0.13796109 0
-1.0254424 -0.41945359 0.097202681 2
-1.0246682 -0.19264378 0.11784831 0
-0.98448628 -0.11166967 0.098728724 0
-0.84146965 0.0015235178 0.10455406 0
-1.6601017 1.7352998 0.12812078 80
-1.6284289 1.7663153 0.11967789 80
-1.3939354 1.6974324 0.11388601 28.75
-1.309602 1.7666156 0.048308901 26.4
-1.5418139 1.8470776 0.082827464 73
-1.3160894 1.8388147 0.074036717 53.75
-1.3947954 1.9849012 0.057905462 89
-1.2716849 2.0295978 0.028646082 28.4
-1.2537026 2.1355276 0.14223143 24
-1.1885533 2.1911218 0.13440725 35.5
-1.0310371 2.1117458 0.021318013 22
-1.1352254 2.2989566 0.077692576 81.666664
-1.0591241 2.4038119 0.053565171 72
-0.96006507 2.4873068 0.094677687 81.333336
0.56084746 3.5293684 0.035569485 6
0.50232315 3.6046715 0.013743485 6
-0.64480513 4.9845352 0.094616741 19
-0.34865797 6.2165446 0.022779429 79
-0.27867463 6.3045306 0.029925996 74
-0.14361466 6.4383664 0.077325098 73
-0.0060497997 6.5860953 0.11632105 73
1.5308306 -2.9760282 0.22508448 26
1.1715107 -2.7081547 0.26571006 0
1.2548172 -2.7835419 0.19487521 1.5
1.0077192 -2.6381173 0.25882572 0
1.1313276 -2.6567037 0.17347142 0
2.1953223 -2.6811488 0.27589899 72
2.2910192 -2.5793498 0.26879719 86.666664
0.85900766 -2.4199727 0.23551397 5
0.9284156 -2.4950957 0.15816373 3
2.4118364 -2.4494073 0.19284578 90.25
0.76486629 -2.3253202 0.18300337 3
2.543154 -2.3791158 0.20786202 9
0.58990824 -2.1638026 0.25750738 12
0.64074641 -2.2174568 0.22607802 7.6666665
1.3937873 -2.2134972 0.23238057 19
0.42516512 -2.0119548 0.23265915 11.6
0.48423344 -2.0715766 0.18429977 11
1.3351105 -2.0868638 0.28367549 9
0.25623682 -1.8557426 0.24561848 14.333333
0.32616323 -1.9171822 0.21835721 11
2.9305789 -1.8426723 0.29192442 58
0.11043495 -1.723063 0.25104856 16.5
0.16963355 -1.7720989 0.23674148 13
-0.083746612 -1.5415001 0.25795066 11
0.019103166 -1.639863 0.26262072 20.5
1.8681989 -1.5374713 0.29641157 2
-0.19980913 -1.4354112 0.28256327 5.5
-0.39154002 -1.2573267 0.19196622 1
-0.61025196 -1.0645796 0.20757383 3
-0.52357572 -1.1353329 0.20344754 1.6666666
-0.76808894 -0.92371637 0.19200923 3.5999999
-0.69478327 -0.98506653 0.21146809 3.4444444
-0.81119871 -0.88070768 0.18539971 2.8333333
1.1810471 -0.82213914 0.20385081 2
0.87188953 -0.61523426 0.21571505 0
0.9901036 -0.69356853 0.21750934 1.75
1.0809848 -0.7194224 0.17206499 2
-1.128001 -0.50177872 0.23657687 2.5
0.83883297 -0.54107612 0.17594704 0.80000001
-1.1158694 -0.35472348 0.22790615 0.07692308
-1.1317267 -0.25346801 0.24813755 0
-0.97701776 -0.11107582 0.19173492 0
-0.8928681 -0.052594632 0.21478742 0
-1.844254 1.5388618 0.26173368 87.5
-1.7530538 1.6354103 0.22047576 83
-1.7236903 1.6687026 0.25017557 84.75
-1.6212353 1.7781785 0.22780438 76.699997
-1.3891991 1.7345833 0.24034828 46.333332
-1.2579532 1.7704581 0.17846301 18.5
-1.5973934 1.8098464 0.2826677 73
-1.3316442 1.9047563 0.25369397 150
-1.3495331 2.0975969 0.24118006 76
-1.2944696 2.1337311 0.22709906 53.599998
-1.1661098 2.2800889 0.23771727 72
-0.97558177 2.4879973 0.22184703 71.800003
-0.9020648 2.5698574 0.25534958 75
-0.85725784 2.6047032 0.25941736 40
-0.62708056 5.0149131 0.15152377 29
-0.57341611 5.014555 0.16001546 17
-0.50174558 6.0534325 0.28804141 59
0.72499603 7.3437567 0.1985293 52
2.0415444 -2.8019278 0.4042834 150
2.1518345 -2.7309198 0.39662161 76.800003
1.9157143 -2.6964891 0.44005388 16
2.2646751 -2.6064093 0.34355149 82
2.376272 -2.4804573 0.30348176 87
1.4128308 -2.3542824 0.42329225 25.666666
1.1763358 -2.1659942 0.30445546 20
1.3444214 -2.2051134 0.32565904 66
1.4219537 -2.1605821 0.30708885 5
2.6092098 -2.1868026 0.41414535 83
0.38528252 -1.97571 0.30238032 15
2.8227673 -1.9660041 0.36749727 78
0.22453488 -1.834097 0.31991911 21
2.9205432 -1.859257 0.43805435 60.5
0.10933097 -1.718873 0.31418276 18
1.9014158 -1.7342409 0.37167358 3
-0.064570472 -1.5659654 0.33430001 13.285714
0.023473572 -1.6293641 0.32299393 19
1.8946507 -1.5777984 0.374951 5
1.9550848 -1.591306 0.35772556 4
-0.30106178 -1.3597839 0.40315855 1
-0.23287359 -1.4100431 0.362984 6.4000001
-0.12444806 -1.4975569 0.32042581 11
1.8281918 -1.4713144 0.38662976 5
-0.38783792 -1.2613213 0.40642643 6.2142859
-0.29703271 -1.3424746 0.36462229 11
-1.3703579 -1.0876478 0.3702035 35.833332
-1.3319638 -1.1227697 0.38534653 38.799999
-0.50171602 -1.1512647 0.4162012 1.75
-1.5024269 -0.91904116 0.39700973 2
-1.4210129 -0.97994912 0.36159664 35.099998
-0.76197731 -0.91883481 0.3470701 1.5
-0.69373393 -0.9696914 0.38017207 0.60000002
-1.3516489 -0.81946325 0.41353643 14
-1.3418828 -0.82045472 0.40058845 18
-0.7980125 -0.8808887 0.36088037 2.3333333
0.83913344 -0.66133332 0.38020825 1
0.98570836 -0.67458439 0.38574725 1
-1.2205303 -0.48807478 0.37399426 4
-1.1722487 -0.51794529 0.3772881 4.3333335
-1.1299963 -0.37217566 0.36656189 0
-1.1454214 -0.23344323 0.36849323 0
-0.95152366 -0.09716516 0.30339867 0
-2.0501766 1.3204882 0.40084463 81
-1.9651244 1.4179205 0.33522373 87
-1.9266161 1.4515299 0.39253053 86.199997
-1.8175619 1.569381 0.36938196 86.555557
-1.7856728 1.6072716 0.43762463 88
-1.7086376 1.6875302 0.33975595 56.625
-1.5783105 1.7842669 0.41179365 102.25
-1.4022305 1.736253 0.33898616 9.3999996
-1.2616985 1.7187192 0.42808643 31.5
-1.1824279 1.7990826 0.44704735 51
-1.6057903 1.8011562 0.31406766 72
-1.4439659 1.8228757 0.3884806 150
-1.3028644 1.8900343 0.36258221 67
-1.1582748 1.9014245 0.41347283 35
-1.4348221 1.9922194 0.31712905 78
-1.1042935 1.9820209 0.40122986 39.5
-1.2578704 2.1360474 0.36723158 99
-1.1352066 2.1568072 0.39380515 150
-1.1095583 2.3455529 0.38893494 68
-1.0001812 2.46106 0.3355352 42.75
-0.90414333 2.5525792 0.43950415 69
0.52949971 3.4450119 0.3175689 5
-0.9633798 4.8885312 0.34509063 62
-0.80372423 4.9371338 0.3632654 59.5
-1.1959705 5.0774875 0.34753621 136
-0.90529704 4.9530835 0.34631896 52
-0.66053349 4.9967484 0.38024324 115
-0.38301116 6.182653 0.31641537 67
0.23381777 6.8223915 0.39238751 60
0.64204663 7.2707262 0.34122008 53
0.96679765 7.606019 0.36420196 21
2.0382037 -2.8697896 0.5249598 20
2.1289971 -2.7487071 0.52906513 67
1.3932904 -2.5904946 0.55530125 22
1.8417702 -2.6825135 0.58497727 16
1.2214075 -2.5058117 0.50312465 29
1.3790666 -2.4935706 0.51753861 29
1.4257176 -2.3822169 0.50818968 35.5
2.4720099 -2.3256972 0.53456306 65
0.56401998 -2.1263378 0.59216672 15
2.6386387 -2.1528819 0.49853316 87
2.807415 -1.9814408 0.51105058 67
0.3600232 -1.9385166 0.57227087 15
2.8373454 -1.945995 0.59668559 83
2.9567885 -1.8107873 0.49780256 45
0.055379312 -1.657447 0.55936301 21
0.19385736 -1.7795241 0.5595699 17
-0.21647453 -1.4100525 0.57679439 9
-0.34894964 -1.288606 0.59763128 10
-1.3155525 -1.0866916 0.46059185 20
-0.54041088 -1.1175569 0.47751173 3.1666667
3.613256 -1.1227226 0.57466829 52
-1.5412208 -0.93331313 0.57909209 38
-1.4392856 -0.99588245 0.55063677 28
-0.75730842 -0.91120964 0.58394438 1
-0.68495929 -0.97639167 0.53499341 2.6111112
-1.6705155 -0.88816398 0.56672817 2
-1.5486128 -0.88203037 0.49176034 26
-0.78554672 -0.88028467 0.53207743 1.75
1.0692991 -0.71712649 0.46362334 3
-1.1604759 -0.48224181 0.53550166 3.5999999
-1.1328665 -0.35136127 0.51927561 0
-1.1474141 -0.24169035 0.50253278 0
-1.1791469 -0.13900582 0.50194889 0
-2.2750988 0.70784652 0.58618295 7
-2.258961 0.7502048 0.59086758 7
-2.2145481 0.85203445 0.53836894 5
-2.2778652 0.93388754 0.57861149 4
-2.2785063 1.090904 0.55009317 103.5
-2.1754639 1.1897067 0.47610044 87
-2.1367693 1.2314384 0.54167914 83.599998
-2.037977 1.3380102 0.50596547 83.666664
-2.0051305 1.3705637 0.53665799 78.428574
-1.9085683 1.4774128 0.49032453 81.571426
-1.8248266 1.5665536 0.50000429 83.25
-1.7861655 1.6194913 0.5630033 93.5
-1.7060896 1.6944033 0.5270974 82.571426
-1.6269728 1.7788131 0.47976309 79.5
-1.3619666 1.7878606 0.54366881 152
-1.2325476 1.7303134 0.57188088 28
-1.5975718 1.8133967 0.53347462 82.5
-1.2823067 1.8434116 0.51900625 98.666664
-1.1726892 1.918656 0.54804665 151
-1.0777153 2.0566835 0.49369842 150
-1.0329678 2.4242325 0.54800183 72.5
-0.90112835 2.5666842 0.54174441 70
-1.2361461 5.252212 0.48598224 75
-0.18839759 6.3759913 0.56897205 59
0.17343937 6.7602921 0.530936 60
0.51963425 7.1514068 0.52098191 53
0.58338076 7.2458601 0.52114069 50
0.78062278 7.4482861 0.59545684 51
1.1509485 -2.6669908 0.69141316 2.5
1.2580503 -2.5710979 0.6528911 33.5
1.3824883 -2.6368318 0.61100739 24.5
1.1834879 -2.5366337 0.68387473 6
2.3718286 -2.489099 0.67635441 68
0.78552037 -2.3546073 0.71373999 3
2.457736 -2.3458197 0.70197988 71.75
0.56393337 -2.1329801 0.67634439 15.666667
0.65595692 -2.2159088 0.64398396 12
1.7132978 -2.1199291 0.69377679 8.333333
2.5660958 -2.2307501 0.66201538 84
0.40397164 -1.9778496 0.64875948 15.333333
0.51857626 -2.0872025 0.69413275 14.5
0.24514902 -1.8316588 0.64725953 17
0.33672243 -1.9175107 0.69328594 15.25
2.9233694 -1.8377748 0.7316041 69
0.087001108 -1.6852838 0.66517788 21
0.18627988 -1.7780877 0.68874985 18.75
-0.062363055 -1.5564476 0.6671204 3.3333333
0.019848835 -1.6202077 0.67115855 22
-0.21352334 -1.417397 0.71905619 8.3000002
-0.13995869 -1.4851884 0.69759488 6
3.4038692 -1.3611419 0.60185605 77
-0.37762535 -1.259359 0.68398041 7.6666665
-0.28734055 -1.3388029 0.63421977 7
3.428407 -1.3237153 0.70217562 64
3.4676933 -1.2788619 0.69768208 61.333332
-1.3858416 -1.0548521 0.60596275 10
-0.54074723 -1.1100163 0.68253362 4.25
-0.44931972 -1.1856842 0.73392165 6
3.5729318 -1.1680703 0.65208161 63
3.6395216 -1.1135979 0.71439981 41.666668
-1.6596234 -0.90826786 0.6183182 4
-1.4577969 -0.96473014 0.64030921 26.75
-0.66939223 -0.98269176 0.70415819 3.5
3.7704179 -0.96025133 0.70023704 31
-1.5046917 -0.87130415 0.64143044 27
-1.4389116 -0.83308715 0.69020104 39.5
-0.81585717 -0.81882429 0.62192118 1.625
-1.1379926 -0.37776977 0.67805302 9.25
-1.23808 -0.20480752 0.66415697 0
-1.1361022 -0.28705868 0.68216676 5.8333335
-2.2928522 0.59024012 0.66123337 44
-2.3119547 0.6019873 0.72705984 48
-2.231025 0.73551542 0.67800093 17.666666
-2.2050629 0.77401406 0.70067537 24.25
-2.325655 0.97345465 0.7139309 49
-2.2483706 0.90700638 0.63109159 4
-2.2616875 1.1097631 0.65396971 100.33334
-2.229254 1.1426779 0.69629622 102.83334
-2.1166117 1.2602304 0.65051478 85.428574
-2.0895903 1.3014697 0.68240333 97
-2.0118694 1.3799461 0.66232687 100.25
-1.9153935 1.476114 0.67720485 86.800003
-1.8307941 1.5664284 0.64513218 89
-1.7991415 1.6057438 0.72357011 94
-1.4568642 1.6410583 0.66658878 110
-1.6863105 1.7237111 0.67930645 97
-1.4276029 1.7446007 0.65485507 146
-1.2931751 1.7488872 0.6935854 148.5
-1.5663621 1.8427401 0.66697311 103
-1.4462829 1.94011 0.66030514 150
-1.2453223 1.8453978 0.73624277 151
-1.4391185 1.9976674 0.66013181 80
-1.2657553 2.1788199 0.72719121 59
-1.1456375 2.3102536 0.68930668 70.5
-1.018244 2.4415827 0.68160003 73
-0.87166041 2.5990961 0.67824215 47.666668
-1.3075706 5.201355 0.62317085 72
-1.2263482 5.2840672 0.62274241 77.5
-1.1118622 5.407515 0.65873694 77
-1.021063 5.5074081 0.66873944 86
-0.56011027 5.9768686 0.73156071 67
-0.22805828 6.3378086 0.70559227 57
0.11549298 6.7097397 0.65165985 58
0.96976739 7.6546645 0.6815908 51
3.0893996 8.4619045 0.72439206 2
3.2373569 8.4029436 0.61778188 2
1.1442846 -2.7032082 0.7863822 1
1.3435121 -2.8458693 0.88996565 1
2.2400742 -2.6244948 0.81773007 78
2.353281 -2.4998462 0.84108996 71.666664
1.5198568 -2.2969904 0.85247827 24
1.675602 -2.289897 0.82495826 24.5
2.4569504 -2.3480337 0.80290145 71.333336
1.75273 -2.2010341 0.80180883 38.5
2.5959382 -2.1938348 0.77185416 76
0.49788135 -2.0756953 0.75879478 16
2.7969842 -1.9883251 0.84133977 78
2.9198313 -1.8459256 0.79728889 63.5
3.3393939 -1.4136286 0.81648856 60.666668
-0.36388958 -1.2729249 0.7678706 10.444445
3.4129047 -1.3416466 0.88787699 53
3.5054419 -1.2360162 0.85589123 56.666668
-0.52621949 -1.1210804 0.82565588 6.5333333
3.5460627 -1.1960843 0.8440485 58
3.6652408 -1.0928742 0.8583777 32
-1.4062486 -0.92213684 0.81628704 6
-0.66296959 -0.99411482 0.8394143 4.875
3.6945212 -1.0438713 0.81167734 47
3.7907467 -0.9338938 0.82929534 55
-1.5083364 -0.79470074 0.7753669 8
-1.415772 -0.84017253 0.84800243 8
-0.7815457 -0.85096997 0.81021452 3.8
3.8455837 -0.88043994 0.78548276 51
3.9173543 -0.79656696 0.86044276 53.5
-1.1457531 -0.45383456 0.85045421 2
-1.1017336 -0.35531941 0.78498173 2.5999999
-1.0482072 -0.30149701 0.85975361 0
-1.1492411 -0.2328369 0.81871033 2.8333333
-2.2719448 0.57293963 0.76478362 41
-2.4432361 0.72675699 0.88679314 49
-2.3622236 0.65058893 0.8241027 47.25
-2.3973212 0.87534481 0.89400494 138.5
-2.3460152 1.0214323 0.81003141 92.166664
-2.2950318 1.0766718 0.88135272 83.666664
-2.2132976 1.1663754 0.79845607 92.5
-2.1311836 1.2519894 0.83261561 85.5
-2.0791991 1.3082465 0.841676 89
-2.0218136 1.3736519 0.81544369 87.833336
-1.9194831 1.4829813 0.78004265 87.5
-1.8885947 1.52066 0.87733924 83
-1.7687843 1.6360099 0.82790124 88.5
-1.6843622 1.7372488 0.84037244 83.800003
-1.6256394 1.793545 0.83844352 84
-1.2546637 1.9168093 0.83236766 151
-1.1602871 2.0241485 0.76606858 151
-1.2426984 2.1701319 0.7832278 50
-1.139295 2.1042824 0.86127222 150
-1.1143678 2.3487303 0.84541249 64
-1.0049326 2.4643707 0.81553394 68
-0.91793096 2.5592055 0.7777946 66
-0.8755787 2.6042557 0.76868558 65
-1.2995644 5.2025914 0.82717407 82
-0.89080644 5.6314468 0.88644588 68
-0.58297539 5.9622946 0.86748207 65
-0.26885021 6.3089852 0.82792509 58
0.060190897 6.6604605 0.77300727 61
0.13577367 6.7732744 0.75073767 52
0.31097752 6.9600315 0.81146097 52
0.47575039 7.1254001 0.8788774 50
1.1723471 7.8704467 0.75761855 43
2.2205198 -2.621974 0.94285536 150
2.292809 -2.5500526 0.96564186 133
1.4600694 -2.4828305 1.0189034 30
1.6054252 -2.4500251 0.98621798 22
2.3902993 -2.4588964 0.98653281 75
1.5891333 -2.2556777 0.93040502 25
2.6177704 -2.1696682 0.99647808 76.5
2.6952813 -2.0835943 0.91293263 77
2.7248781 -2.0578866 1.0232445 70
0.35363781 -1.9173278 1.0165877 24
2.8303027 -1.9407895 0.96361023 68
2.9136622 -1.8518292 0.96674585 42
0.14730592 -1.72127 1.0348631 25
0.19275235 -1.7692106 0.98341155 30
0.040113386 -1.6255164 0.99187618 28.5
-0.20265491 -1.4139467 0.98553658 5
3.2756805 -1.4887071 0.9645229 30
3.3735824 -1.3747072 0.91968548 54
-0.38939011 -1.2395736 0.98459375 5
-0.26758304 -1.3472577 1.0421598 3
3.4912953 -1.2488685 1.018347 53
-0.50570315 -1.1307831 1.0212991 4
3.5932105 -1.1438444 0.9537307 49
3.6854215 -1.0663598 1.0077125 31
-0.75852215 -0.90574461 0.91056073 6
-0.68774712 -0.96325678 0.93794483 4.8571429
3.7404082 -0.98472983 0.90197444 51
3.8118145 -0.91037577 0.98530936 49
-0.79185563 -0.86496878 0.99850464 2.6666667
3.9628837 -0.75043082 0.9780916 50
4.1406364 -0.56695056 1.0074716 52.5
-2.2843776 0.57667017 1.0146463 41
-2.2434375 0.532951 0.97336698 3.5
-2.4253685 0.70793551 0.96872908 41
-2.4907362 0.81055874 1.0098914 57
-2.4338572 0.92520779 0.99064094 87.333336
-2.3646157 0.9990676 0.99153024 80.666664
-2.2785747 1.0962332 0.99037117 83.666664
-2.2263174 1.1486303 0.98683167 81
-2.1399057 1.2450415 0.94184548 84.666664
-2.0991247 1.2852342 1.0481273 58
-1.9748958 1.4228696 1.0123477 82.333336
-1.8635039 1.5410603 0.98033112 76
-1.7808905 1.6297243 0.95074874 80.5
-1.7299083 1.6870741 0.97280031 82
-1.5848296 1.84378 0.99363327 80.5
-1.3739918 1.8598453 0.93239629 151
-1.4666467 1.9645519 0.94564056 81
-1.2666764 2.1799417 0.99682736 66.75
-1.1207839 2.336139 0.95779532 65.333336
-0.93382299 2.5278177 1.0002037 61
-1.1911941 5.3136516 1.0344057 77
-0.90262622 5.6299462 1.0226418 60
-0.60980648 5.9448328 0.99083614 71
-0.30636242 6.2744684 0.95116842 67
-0.2510792 6.3553815 0.95794332 54
-0.0947631 6.5115056 1.001758 55
0.65007687 7.3090401 0.93800175 53
3.5964448 10.434473 0.99441814 8
2.0833888 -2.7561638 1.0855756 150
2.2753382 -2.5807469 1.1011976 150
1.4999352 -2.4965987 1.0645789 7
1.5261317 -2.5019896 1.0556492 24
2.5032611 -2.2893424 1.1148976 70
0.55298573 -2.1033518 1.0727406 20
0.66249645 -2.2017739 1.1573983 17
2.6069474 -2.1756456 1.1371473 68
0.50933653 -2.0548773 1.1395106 20
2.7582741 -2.0258915 1.1177189 67
0.28862977 -1.8504092 1.0579286 23
0.35460043 -1.9062397 1.1637182 22
2.8828881 -1.8776214 1.1046485 51
0.099607617 -1.6694317 1.1340129 26
0.20191818 -1.766806 1.1595498 20.666666
-0.069418997 -1.527504 1.1582497 2.6666667
0.0037991675 -1.5928161 1.1423407 22.5
-0.1916368 -1.4244198 1.1567781 4
-0.10071802 -1.4942313 1.1987576 3
3.3193192 -1.4353468 1.0789545 58
-0.37240887 -1.2529284 1.1035552 3
-0.2790007 -1.3286743 1.149514 1.5
3.4005716 -1.341929 1.0579373 51
-0.54931384 -1.0883957 1.1084272 3
3.5424433 -1.1912048 1.1582803 50
-0.68552101 -0.96103966 1.1187452 3
3.6880846 -1.0470835 1.1177964 52
3.7964694 -0.91846693 1.19989 42
3.8348467 -0.89327675 1.0820935 50
3.9280937 -0.76777649 1.1991918 45
3.9799159 -0.72836882 1.0508219 50
-1.3933781 -0.20197386 1.1036339 3
-2.2737491 0.57822651 1.128312 38
-2.3266602 0.61873871 1.1393962 39.5
-2.5022674 0.80871677 1.1490091 59.75
-2.4113851 0.94968247 1.1097255 83
-2.3654273 0.99864078 1.1387483 79.333336
-2.2311473 1.1477466 1.1099257 80.5
-2.0809271 1.3093445 1.1484656 79
-1.9808563 1.4212101 1.1349869 76
-1.8487142 1.5576693 1.0835911 77
-1.7842196 1.6296209 1.198259 77
-1.6639736 1.7569494 1.1466417 78.5
-1.5483989 1.8810736 1.1004961 72
-1.4954227 1.9330091 1.1781985 79
-1.4169118 2.0181241 1.1131428 76.400002
-1.3498845 2.0955205 1.0581826 71
-1.3206052 2.114301 1.1777285 70
-1.1996007 2.242074 1.1001434 66
-1.1751194 2.2799518 1.1805266 62
-1.0507184 2.4010456 1.1039075 61
-1.0337696 2.4290719 1.1810975 59
-0.90991753 2.5542927 1.1079061 63
-0.89336705 2.5793927 1.1879689 63
-1.1924853 5.32724 1.1721681 76
-0.91762465 5.6226554 1.1472461 67
-0.63311505 5.9247456 1.1158307 72
-0.52342796 6.0695982 1.170537 65.5
0.052133899 6.6705008 1.0571015 56
0.20499708 6.8415008 1.1034124 55
2.5553086 9.2834892 1.1231103 2
3.0033996 9.7799044 1.1990273 9
3.2748921 10.061074 1.1082085 5
3.6956677 10.53037 1.1478753 38
-2.8494978 -3.4790342 1.3103421 37
-2.9970622 -3.3412499 1.2334334 101
-3.0405426 -3.2981591 1.3215237 92
-3.2207978 -3.1302774 1.3420632 100
2.1646619 -2.7086632 1.2279844 81
2.4130092 -2.4505687 1.2984793 75.5
2.4828715 -2.3138068 1.2555081 63.799999
0.65472418 -2.1916256 1.2939962 8.666667
2.6035879 -2.1885071 1.2710619 62
0.43028367 -1.994099 1.2863355 13
0.4711715 -2.0278654 1.2484516 13
2.7732465 -2.0132039 1.2690375 64.800003
0.27818844 -1.8563197 1.2463062 47.5
0.31071478 -1.8804045 1.2216854 26
2.8494773 -1.9299284 1.2530022 75
2.9508767 -1.8196803 1.3286959 42
0.13518731 -1.7179105 1.2107275 47.5
0.16331367 -1.7405019 1.2167076 43
3.0617123 -1.6972185 1.341534 53
0.038856953 -1.6258136 1.2056314 43
-0.1965369 -1.41723 1.2419707 1.6666666
3.2833464 -1.4590731 1.2666852 50
3.3004169 -1.4561224 1.2680851 51
-0.37678832 -1.2723167 1.2268974 0
3.4137008 -1.3295178 1.2246504 52
3.5413198 -1.1991788 1.2201771 54
3.6479652 -1.0743057 1.2723658 37
3.7629201 -0.94802463 1.3110346 43
3.9011767 -0.8014974 1.2893897 45
4.0745006 -0.63101482 1.2474422 46.5
4.2096205 -0.48073393 1.2695954 44
4.2433195 -0.44826332 1.2343708 43
4.3814688 -0.30425587 1.2725438 35
4.4100118 -0.27099687 1.2638844 29
-2.3286018 0.63378644 1.3068107 34.5
-2.4945111 0.8589251 1.2510533 77.666664
-2.3350151 1.033026 1.2967494 80.5
-2.2993348 1.0707878 1.322196 76
-2.2023599 1.1773841 1.2719486 78.75
-2.1067686 1.2787553 1.2782626 66
-2.0859859 1.3029063 1.241993 70.5
-2.0371387 1.3544072 1.3198514 74
-1.9254427 1.4811062 1.2224722 74
-1.8927729 1.513986 1.2910043 76
-1.7256973 1.6905639 1.2939682 76.5
-1.6341903 1.7888499 1.311216 72
-1.5663042 1.8588403 1.2612181 70.400002
-1.4221834 2.008729 1.2964474 64.5
-1.2780207 2.1669536 1.2920718 51
-1.137362 2.3180251 1.293963 60
-1.0108849 2.4526997 1.2598352 64
-0.83241391 2.6502552 1.3321747 1
-1.1972618 5.3269138 1.2969601 78
-0.91411668 5.6397142 1.3057258 68
-0.32182124 6.2801681 1.2275412 64
-0.1878849 6.4134884 1.2549185 64
2.3456032 9.0486536 1.2435451 30
2.7673199 9.5545673 1.2945685 8
-2.9337776 -3.3969944 1.4268913 86.333336
-3.0891972 -3.2448583 1.4556208 91
1.6935759 -3.083096 1.4747293 25.5
1.5914772 -2.9851284 1.4168155 27
2.0537763 -2.8391249 1.3657032 21
2.3070533 -2.5616064 1.4471797 66
2.3252535 -2.5380609 1.4142209 79
2.4133723 -2.4334745 1.401764 60.666668
2.4885893 -2.3130345 1.4152294 60
0.62898493 -2.1811919 1.3557482 8
2.5967076 -2.202801 1.4346855 60.5
2.6944909 -2.0988967 1.3609102 66
2.7295537 -2.0597394 1.3964038 65.5
2.8413577 -1.9363117 1.4405079 60.5
2.9530983 -1.816124 1.3927498 32
0.086204335 -1.6554177 1.4138703 33
0.22555418 -1.7849921 1.454102 31
3.0447474 -1.7051278 1.4060395 48
3.2672834 -1.4721519 1.4635885 55
3.3929975 -1.3522158 1.4196694 54
3.5086772 -1.2222824 1.3759109 51
-2.2795801 0.59952062 1.4545474 31
-2.3167706 0.62497354 1.4432497 31.5
-2.4652433 0.8419435 1.4307004 60
-2.4270489 0.93768477 1.4355373 73
-2.3400469 1.0359994 1.4560083 69.666664
-2.2145467 1.1690836 1.3834935 76.5
-2.1598032 1.2262332 1.4298658 79
-1.9881991 1.416564 1.429674 75
-1.8360821 1.5750667 1.4179411 70.666664
-1.7764956 1.6455079 1.4746284 64
-1.7004833 1.7171423 1.3957546 73
-1.518755 1.9089569 1.4221135 57
-1.377593 2.0688212 1.4158736 59
-1.285588 2.1559272 1.4506664 56
-1.0802025 2.3823004 1.4929054 56
-0.98539639 2.4881921 1.4473207 52
-0.91047198 2.5736504 1.4018202 58
-0.86353368 2.6223354 1.3827883 46
-1.198275 5.3291273 1.426267 79
-0.77335966 5.7962666 1.3576671 67
-0.65566677 5.9217014 1.3850126 67
-0.53708905 6.05093 1.4044971 66
0.57590568 7.2037959 1.4931972 38
1.11683 7.7723722 1.3751177 43
1.4957739 8.2004995 1.4914019 45
1.6279646 8.322958 1.3831968 46
1.9966531 8.7300177 1.4514835 50
2.1729069 8.9174156 1.3535964 34
2.7013209 9.5471497 1.41843 5
-2.8510869 -3.4875374 1.5833832 21
-2.941354 -3.3902261 1.5516505 77.5
-3.0640135 -3.2865493 1.6223663 94
1.6003444 -3.0128715 1.5397532 20
1.7873323 -3.1338842 1.5052489 11
1.5506011 -2.9727085 1.6016572 16
2.1955302 -2.6732898 1.5910413 68.199997
2.299767 -2.5642776 1.5210636 63
2.3035741 -2.5471511 1.5650816 70
2.4050384 -2.4409781 1.5564287 58
2.5028081 -2.2970793 1.5829566 60.5
0.58894116 -2.1354926 1.6111964 19
2.6252415 -2.17031 1.536684 58
0.40052837 -1.9719181 1.5469416 19
2.7304296 -2.0491023 1.5278031 61
0.34848976 -1.8930855 1.5917001 23
2.8320916 -1.9414971 1.583825 55
0.083948418 -1.6594704 1.5449594 42
0.20982821 -1.7769378 1.5693803 40
-1.5843875 -0.20547014 1.5155383 1
-2.3218269 0.62708902 1.5462886 29
-2.4808838 0.88633537 1.5910425 73.666664
-2.3478017 1.0236726 1.5287005 74
-2.2897341 1.0898678 1.5520899 71
-2.2472143 1.1397309 1.6212565 70
-2.1263883 1.272501 1.5048816 66
-2.0701351 1.3261901 1.606141 69.5
-1.9427217 1.4607689 1.5544162 70
-1.8704658 1.5397682 1.5603731 63.5
-1.7969954 1.6228572 1.5529394 65
-1.749117 1.6695042 1.621359 66
-1.6351267 1.7935764 1.5202657 69
-1.5924572 1.8297619 1.5905204 62
-1.4670413 1.9712837 1.5428863 59
-1.2193307 2.2323706 1.5976539 53
-1.2003491 2.2595754 1.6241254 51
-1.1182073 2.3464417 1.5460001 50.333332
-1.0385346 2.4258194 1.6395391 50
-0.903014 2.5709124 1.5710882 52
-1.1816704 5.3727984 1.5171019 75
-1.0657929 5.4915195 1.5259913 75
-0.9591372 5.5978951 1.5402242 53
-0.85386211 5.704874 1.5446738 77
0.11428155 6.7164917 1.6082448 22
0.51997364 7.1546211 1.6291002 51
0.93030769 7.5932975 1.6188937 52
1.0256174 7.6808977 1.5059245 41
1.3708508 8.0777369 1.5999465 47
2.038043 8.5069256 1.6448756 28
1.9034855 8.6796789 1.6068511 51
3.0484018 8.9825439 1.636469 23
3.0185955 9.3951578 1.6224533 28
-2.8806126 -3.4537284 1.7335941 78
-3.0076041 -3.3344638 1.710358 84
-2.9477806 -3.3855488 1.6985352 72.5
1.5527329 -3.3436813 1.7123667 11.5
-3.0589154 -3.2831757 1.7124411 93
1.477394 -3.2539656 1.7940735 0
1.6029785 -3.2744257 1.7043734 9.5
1.6618283 -3.2433457 1.6749698 0
1.8560839 -3.1521559 1.7128285 7
1.283733 -3.1164484 1.7510227 11
1.3840615 -3.0175626 1.7331859 7
1.9046606 -2.7811146 1.785815 31.5
2.0547428 -2.7560678 1.7151215 50
1.7408546 -2.6424234 1.7132692 33.666668
2.1677506 -2.6154079 1.7560699 57.5
2.2966735 -2.5645812 1.6986824 62
1.882754 -2.4694283 1.7635103 67.333336
2.2323852 -2.4354 1.7753755 39
2.3451099 -2.5096936 1.7265391 58.666668
2.4186702 -2.4122655 1.6883442 48
2.0093169 -2.3318963 1.7375269 54
2.4621735 -2.3270574 1.7571889 45.5
0.53962523 -2.1048822 1.7063709 19
2.1547437 -2.1568146 1.7193726 55
2.6142583 -2.1591072 1.7213885 50.5
0.48485696 -2.0239713 1.7562503 19
2.302444 -2.0107477 1.7056646 39.5
2.6820946 -2.0159361 1.7855231 48
2.7233348 -2.0529418 1.682166 58
-3.0776732 -1.8182169 1.7162308 1
0.33527082 -1.8847101 1.7148286 21
2.8199699 -1.9278007 1.7227746 38
-0.22797728 -1.7444496 1.7052783 10
-0.10684715 -1.7249482 1.7252949 7
0.094591931 -1.671492 1.6967148 36
0.20597358 -1.7662691 1.6924835 24
-2.8974302 -1.6234372 1.7109081 1
-0.44865519 -1.5803003 1.6628889 10
-0.0068707345 -1.587059 1.712973 8
0.047871154 -1.644171 1.7720412 24
-0.61165506 -1.0031654 1.7908288 20
-0.80071682 -0.83877707 1.7983998 2
-0.95629513 -0.64307356 1.7772492 2.5
-0.88925612 -0.71424264 1.7748636 3
-1.1483561 -0.46162951 1.7760271 0
-1.0328386 -0.57641464 1.7708274 3
-1.5591512 -0.19802922 1.776132 3
-1.3934544 -0.25204936 1.784403 0
-2.3947096 0.71608812 1.6608375 30
-2.4800625 0.88050753 1.6710833 70
-2.43016 0.94309801 1.6886879 68
-2.3812702 0.99837875 1.753486 67
-2.1963129 1.192301 1.7298042 69
-2.0846319 1.3114755 1.7485651 68.5
-2.0067103 1.3975748 1.7235671 73.666664
-1.9307468 1.4344407 1.7327285 70.5
-1.5298603 1.4382119 1.7999753 93
-1.1503699 1.467973 1.772718 74
-1.0419011 1.4871098 1.7868623 42
-1.865725 1.5446559 1.7334768 65
-1.4355099 1.5192556 1.7981504 71.5
-1.0537107 1.611901 1.7769264 87
-1.0394249 1.5338727 1.7935957 31
-0.8462019 1.620631 1.7928499 68
-0.60297304 1.5121596 1.7950896 70
-0.51866347 1.6258111 1.795154 70
-0.37047929 1.5532552 1.7979136 71
-0.19673073 1.6020751 1.796984 73.5
-1.6803863 1.7391646 1.7352529 66.5
-1.4382813 1.731602 1.7977742 72.5
-1.3329357 1.7057031 1.795431 59
-1.147071 1.6704564 1.7904886 71
-0.97910881 1.6599129 1.7937986 68
-0.81575918 1.7890552 1.7874218 67
-0.66810805 1.7226251 1.7944802 69.333336
-0.49345532 1.7503669 1.7946205 68.5
-0.37593994 1.7027943 1.7950156 71.599998
-0.225344 1.7387447 1.7910718 72.166664
-0.098218895 1.7239357 1.7910056 71.666664
0.1024911 1.7180235 1.7954594 73
0.19614314 1.7903465 1.7886859 82
-1.5412366 1.8480861 1.7369471 68.5
-1.3650837 1.9216275 1.7910856 66
-1.269115 1.8968172 1.7898775 60
-1.1385896 1.8581228 1.7956978 58
-0.90489125 1.8581997 1.7954348 60.5
-0.66253781 1.9063979 1.7911712 58
-0.52637947 1.8547368 1.7895719 70.666664
-0.35567588 1.8904861 1.7886324 63.599998
-0.19973731 1.8627114 1.7877327 67.5
-0.056858391 1.8846586 1.7857808 71.75
0.060737655 1.8687081 1.7905347 67.75
0.20854749 1.8707036 1.7919918 60
-1.3967611 2.0267203 1.762467 66.5
-1.1543956 2.0775571 1.7887735 58
-0.96814996 1.9978654 1.7921206 63.5
-0.81251216 2.0331159 1.7947043 62
-0.73182505 1.9503272 1.7845961 55
-0.54375648 2.026356 1.7826003 57
-0.36192596 2.0022414 1.7884055 65
-0.23491924 2.0310702 1.7855917 63.799999
-0.08905194 2.0535426 1.7771215 69
0.067624956 2.010591 1.7861246 51.400002
0.22838314 2.0997369 1.7990557 25
0.32741541 1.9893185 1.794855 36
-1.299738 2.1420074 1.7117375 55.75
-0.95322382 2.193213 1.7834677 59
-0.78207922 2.1698318 1.792974 61.5
-0.67250913 2.1433091 1.7785767 56
-0.47891337 2.2174976 1.7787322 57
-0.36366001 2.1308267 1.7782927 60.5
-0.20186841 2.1862972 1.7811089 60.333332
-0.076093741 2.20749 1.7748446 61
0.035809625 2.1680393 1.77873 42.666668
0.1626067 2.1976151 1.7918173 32
0.3622281 2.2464564 1.7952474 29
0.54086781 2.1916409 1.7867322 53.5
-1.1387722 2.2971816 1.7506523 51.5
-1.0326215 2.2528555 1.785158 58
-0.86823201 2.3897529 1.7845122 62
-0.69244057 2.3205473 1.791418 56.75
-0.56129396 2.3190742 1.7749547 55
-0.34812087 2.3429596 1.7752433 57.5
-0.17620087 2.2581642 1.7733115 65
-0.071119912 2.3194444 1.7758843 60.799999
0.11699879 2.3335938 1.7708008 57
0.23152825 2.2986834 1.7880993 33.5
0.38123482 2.3314974 1.782408 48.400002
0.50138593 2.3818483 1.7787951 62
0.67559463 2.2944412 1.7844276 60.666668
0.78139228 2.3537197 1.7851737 55
-0.96668082 2.4684663 1.7599589 53.5
-0.61636865 2.4657469 1.7903868 53
-0.51959449 2.5227036 1.7809557 56.5
-0.40922925 2.4608598 1.7727839 56
-0.21590483 2.4696994 1.7742766 64
-0.036817212 2.4080019 1.7752637 64
0.068107009 2.4837117 1.7743752 60.799999
0.25008485 2.4775436 1.768386 57
0.38512957 2.4489067 1.7752364 60.5
0.52132326 2.4802217 1.7732612 55.333332
0.64906532 2.4912376 1.7746353 61
0.86304432 2.4203568 1.7807816 55.5
0.98224425 2.4744513 1.7783933 52.333332
1.0554601 2.549444 1.7745889 52
-0.82032865 2.6199322 1.7348708 44
-0.53597385 2.6062934 1.7845167 56
-0.25918773 2.5993845 1.769829 55.5
-0.090344056 2.6414328 1.7706925 60
0.11864577 2.5500472 1.7715358 59
0.22539353 2.6428783 1.7687082 57.200001
0.39870825 2.6277976 1.7682931 60
0.54429179 2.5679069 1.7699566 54
0.68481719 2.6257925 1.766745 53.25
0.81051028 2.6384745 1.7674338 57
0.92029446 2.6903417 1.7632507 49
1.1440179 2.5642047 1.7751887 54.5
1.2707287 2.6485543 1.7705055 52.666668
1.4101291 2.6620619 1.7728631 48.5
-0.6577397 2.8043413 1.7728928 55
-0.45411626 2.7363505 1.7829162 52
-0.38605595 2.7704751 1.7754884 55.333332
-0.11280863 2.7807355 1.7650474 56
0.050191712 2.8164506 1.7613083 59
0.28356308 2.7185388 1.7694131 54
0.37523079 2.7813051 1.7651087 60.333332
0.53026563 2.7885087 1.7589246 61
0.85178953 2.7716477 1.7621638 52.333332
0.99454808 2.7796969 1.7756939 35
1.1561642 2.8189259 1.7606745 49
1.236047 2.7930527 1.7619635 51
1.4957169 2.829546 1.7702802 52
1.5753763 2.7715898 1.7693297 45.5
1.6641415 2.7329805 1.7737254 47
1.8701506 2.8130343 1.7711173 46.5
2.1375468 2.8303225 1.7684363 50
-0.75603127 2.9891911 1.7600626 57
-0.70787394 2.8935614 1.7644755 55
-0.3267037 2.9379964 1.7751522 59.5
-0.29508352 2.9717615 1.77381 67
-0.14417051 2.9210024 1.7564296 61
0.049443852 2.9117167 1.7561897 54
0.40576321 2.8616829 1.7615167 57
0.49482557 2.9052219 1.7618759 61
0.67127317 2.9100316 1.7570199 54.333332
0.77183932 2.9563901 1.7548984 54
1.095787 2.9143012 1.7587329 49.75
1.2482796 2.957201 1.7623279 45.5
1.4155909 2.9376938 1.7643672 48
1.7499418 2.9494331 1.7637457 48.666668
2.0791469 2.9520013 1.7595204 32
2.3759522 2.9125316 1.7621604 30
2.6422598 2.8713489 1.7601794 41
-0.8185491 3.0998166 1.7627136 59
-0.5481317 3.0817204 1.7612761 57.5
-0.21219283 3.0891588 1.7705276 58.5
0.048207607 3.0669212 1.7536916 55
0.21699114 3.0525508 1.7524618 55
0.54312235 3.0444884 1.7562827 56
0.66886592 3.0684426 1.7577385 52.666668
0.85817933 3.0566704 1.7554959 51
0.95013672 3.0831308 1.7524968 49
1.322203 3.0809231 1.7562191 49.5
1.4125345 3.0802798 1.7589356 44.5
1.5686338 3.0847108 1.7583158 48
1.7010474 3.0760455 1.759063 47
1.9460368 3.0590763 1.7588352 45
2.0337319 3.095077 1.7546393 19
2.2003062 3.1141338 1.747032 41
2.354727 3.0909233 1.7491101 41
2.6553211 3.0217183 1.7576762 39
2.9613161 3.0614858 1.7548722 24
-0.60301995 3.2557671 1.7597915 53
-0.38060093 3.2714453 1.7585648 59
-0.12830761 3.2316949 1.7694347 58.5
0.24449684 3.2081401 1.7491201 51
0.39089447 3.2007546 1.7493969 54
0.83755022 3.2705345 1.75799 50.666668
0.96084589 3.2551508 1.763405 51
1.1084385 3.2079811 1.7556232 52
1.2569954 3.2782412 1.7497238 47
1.595983 3.2301319 1.7454759 49
1.6825225 3.1546526 1.7550536 47
1.9267702 3.2216456 1.7515947 19
1.9963965 3.1673818 1.7614855 18
2.2302756 3.2287717 1.7524039 43.5
2.3534896 3.2300701 1.7500254 44
2.5065992 3.2120438 1.757472 44
2.681015 3.1871986 1.7490927 39
2.7870786 3.2403536 1.7563928 37
-0.94703937 3.3409631 1.7786332 51
-0.65245509 3.392978 1.7658738 59
-0.40337378 3.4019127 1.7575558 61
-0.062829867 3.3213098 1.7644268 53
0.041926637 3.4133794 1.772166 52.5
0.25870097 3.3396971 1.75572 56
0.42401099 3.305562 1.745252 51
0.53022504 3.420342 1.7500646 52
1.1494758 3.4416924 1.755634 49
1.2080113 3.4126401 1.7562813 55
1.4140645 3.384778 1.746397 51.666668
1.5999556 3.427114 1.7417461 27
1.8816236 3.3775299 1.7372981 40
2.2247396 3.3636775 1.7455863 41.5
2.5238395 3.3762889 1.7512207 38.5
-0.90354162 3.4538052 1.7669996 63
-0.84139919 3.5438583 1.7666796 49
-0.42519331 3.5386117 1.7588435 52
-0.21110283 3.5457299 1.7593151 54
0.067340508 3.5760057 1.7671412 50
0.49464869 3.5457704 1.7491258 53
0.64780146 3.5196171 1.7427348 48
1.040964 3.528976 1.7498738 51
1.0962789 3.4827433 1.7487029 49
1.4791905 3.5710688 1.7518874 20
1.7074122 3.560142 1.7335162 44.5
1.8925794 3.5470634 1.7447075 43
2.1910758 3.5278931 1.7406 42.5
2.2547762 3.5720177 1.7397426 46
2.5172358 3.5580432 1.734831 23
-0.80399787 3.6924419 1.7691761 44
-0.45727801 3.680325 1.7545074 55
-0.21676782 3.6877916 1.7550255 51
0.14629145 3.6038976 1.7567586 47
0.2602818 3.6632118 1.7611972 56
0.70432013 3.630136 1.7450477 49
0.86265278 3.6848829 1.737928 51
1.4102321 3.6686559 1.7446719 20.5
1.7762737 3.7283628 1.7456301 48
2.0715024 3.716979 1.7383701 41
2.1543844 3.6645536 1.7428871 38
2.2506778 3.6335819 1.7452093 40
-0.70493466 3.8535309 1.7586682 55
-0.21913958 3.8331962 1.7507569 53
-0.014401215 3.8282902 1.7498866 54
0.7582286 3.7542615 1.7427751 56
0.97436315 3.8416579 1.7373842 53
1.0879774 3.8569517 1.7261251 41
1.3480887 3.7896199 1.7414328 21
1.7510843 3.8387854 1.7495207 49
1.9856434 3.7601042 1.7354926 45
-0.964513 3.9120209 1.7563177 63
-0.59602183 3.9898212 1.7571446 61
-0.23112011 3.9958324 1.7481273 59
6.5845248e-05 3.9792645 1.7431213 52
0.34832439 3.9084153 1.7527577 52
0.50939286 3.9395356 1.7561462 55.5
1.1184827 3.9680352 1.7346659 26
1.730731 3.9519134 1.7385026 45
-1.0148346 4.0837116 1.7449573 57
-0.64271212 4.134788 1.753409 55
0.01875202 4.1490812 1.7435776 53
0.21333118 4.1350474 1.7403785 55
1.2764653 4.0564461 1.7289258 50
1.4236752 4.1633387 1.7248515 48
1.7080517 4.0762186 1.7354003 47
-1.0673381 4.2848349 1.7448703 56
-0.79225439 4.3020105 1.7481545 70
-0.50591671 4.2538662 1.7522442 57
0.030752074 4.3341799 1.7406083 55
0.24900313 4.2909012 1.7285711 53
0.59216553 4.2682428 1.744069 48
0.6762585 4.2474661 1.7402831 37
0.79733944 4.2398558 1.7519448 19
1.6168689 4.2844667 1.7253982 40
-0.37662414 4.3766928 1.7543265 62
0.2924521 4.4752297 1.7290441 53
0.47742975 4.4622755 1.725633 28
-1.1338809 4.5086241 1.7416135 51
-0.82588601 4.5105791 1.7394572 67
-0.4231039 4.6147113 1.7458469 51
0.54015458 4.6482935 1.7213792 48
1.0095457 4.6171651 1.7308947 41
1.1228452 4.548419 1.7411603 45
-0.86009657 4.7383289 1.7338868 48
-0.58359635 4.7252936 1.7322837 51
-0.31641108 4.667562 1.7378682 50
-0.21724474 4.715313 1.7383958 48
-0.11854 4.7840786 1.7391144 54
0.33096772 4.6779137 1.7235485 51
0.93277341 4.6822963 1.7347313 42
0.61299789 4.8527308 1.7243618 43
0.79053539 4.8521838 1.7217737 46
-0.90768141 5.0132651 1.7328445 52
-0.59755081 4.9698944 1.7233595 47
0.68582803 5.0850425 1.7209448 41
0.88453382 5.0513873 1.7184509 45
1.4491456 5.0152397 1.7382599 22.5
-0.33574444 5.2279654 1.722335 48
-0.15191497 5.1630025 1.7315778 45
-0.032571871 5.1884737 1.7256747 40
0.076381281 5.2198358 1.7317408 42
1.3481719 5.1604872 1.724907 34
-1.237445 5.2993412 1.6899575 82
-1.1435438 5.3973255 1.6831921 88
-0.61024189 5.2603312 1.7255083 46
0.18705364 5.2600904 1.731491 46
0.98713833 5.2594738 1.7148963 34
1.1585491 5.2682695 1.7091476 43
-0.32309136 5.5173345 1.7139918 37
1.0949728 5.4929609 1.7055646 34
1.2834082 5.4724126 1.7031792 35
-0.63101178 5.5849524 1.7220889 35
1.4253807 5.6955795 1.7025265 35
-0.30422971 5.8416657 1.7101401 32
-0.03355654 5.8040633 1.7097713 36
0.18777482 5.8116508 1.7146536 32
0.37468085 5.7929277 1.714985 35
0.55090201 5.7867842 1.7176355 35
1.5980587 5.7438078 1.697754 34
1.8545303 5.7094321 1.7123982 26
1.5773062 5.9556537 1.6955758 29
1.7546887 5.9346738 1.6846365 35
0.013360989 6.1408296 1.6994749 27
-0.29124308 6.2226071 1.7030112 41
1.9396131 6.1732841 1.687039 31
2.1197786 6.2658005 1.6781844 32
0.99433476 6.414639 1.7095257 32
2.1342013 6.4302883 1.6747047 32
0.070591226 6.5219994 1.6937686 32
0.34168297 6.4780316 1.6937581 30
0.8126533 6.4944415 1.7004626 30.5
2.3140879 6.4584737 1.6656488 32
0.62125778 6.6040301 1.6979562 31
2.5186005 6.6420207 1.6514608 1
0.43202776 6.8771734 1.6827546 32
1.53327 7.1197891 1.6881381 26
0.81205016 7.2960529 1.6763946 36
1.4183553 7.2444415 1.6833128 26
1.3127012 7.415483 1.6746346 23
1.1847327 7.5776782 1.6732439 26
2.197577 7.9450006 1.6618017 22
2.1134357 8.2073669 1.6577746 29
-2.9795949 -3.3507869 1.8817382 64.666664
-3.1138229 -3.2338037 1.8466347 47.5
1.2535355 -3.1673226 1.8527442 11
-2.8846984 -3.0702534 1.9160742 8
1.0942916 -3.1147635 1.8948215 0
1.2513535 -3.1040316 1.8710637 10
1.3711444 -3.0293946 1.8089906 11
1.1639096 -2.987756 1.8760892 10
1.6176305 -2.7645319 1.8499408 91
1.6756779 -2.7124753 1.8159442 80
1.146795 -2.5844665 1.8542229 38.5
1.3498403 -2.6963508 1.855302 56
1.4513065 -2.6606331 1.8588101 54
1.6051592 -2.6569235 1.8759505 52
1.7430742 -2.6128263 1.8461446 66
1.9832315 -2.6674495 1.8046645 31
2.1351521 -2.624656 1.8017284 45
0.89228302 -2.4826376 1.8361434 8
1.0031039 -2.4556618 1.8573085 35
1.0798725 -2.4332204 1.8632828 61
1.2815831 -2.5094912 1.866709 56
1.4325873 -2.4508286 1.8640763 59
1.5553349 -2.5021577 1.8718733 54
1.7260906 -2.4663954 1.8556557 52.333332
1.8526858 -2.4725091 1.8546888 69.333336
2.2668402 -2.5496743 1.8003186 54
0.81859142 -2.3579388 1.864922 4.5
0.94097894 -2.2848034 1.87035 62.666668
1.1338181 -2.3220363 1.8682362 59
1.2548413 -2.3115525 1.8624651 58.5
1.4224371 -2.3365402 1.8538411 55.799999
1.6003035 -2.3643248 1.8466288 51
1.6625855 -2.3943975 1.852187 49
1.9274361 -2.3087313 1.8681735 53
2.0706053 -2.2591553 1.8674942 75
0.02264921 -2.1790752 1.8788065 0
0.70267147 -2.1711333 1.8466693 28.333334
0.83397758 -2.170517 1.8689903 60.5
1.0092944 -2.2012539 1.857402 54.666668
1.0976319 -2.1577847 1.8580832 60
1.2424253 -2.2394352 1.8556097 51
1.4533633 -2.1340239 1.8672179 58
1.602354 -2.1321604 1.8661493 50
1.7107507 -2.1691983 1.8596736 53
1.8246846 -2.1950521 1.8638321 47
1.9668601 -2.1619711 1.8574311 47
2.1309514 -2.1316814 1.8394573 51.5
-3.1739953 -1.9965529 1.8914379 61
-3.1371872 -1.9791164 1.882027 58
0.44209361 -1.9677848 1.8364216 11
0.5247097 -2.0033309 1.8644385 47
0.67195827 -2.0599205 1.8615398 62.799999
0.81161219 -2.0093739 1.8540148 61.666668
0.93417293 -2.0670276 1.8588618 66.5
1.1257801 -1.9604508 1.8639146 57.666668
1.2793778 -2.0146589 1.8619307 54.75
1.3974366 -2.0644646 1.8669168 57
1.5212126 -2.0590456 1.8594228 49.5
1.6918083 -2.0705402 1.8575209 55
1.8912475 -2.0905528 1.8557707 46
2.2588096 -2.0597577 1.8055729 55
-0.2405161 -1.8879942 1.8792294 17
0.36604485 -1.8663317 1.850773 31.714285
0.56807899 -1.92116 1.853387 58
0.64176488 -1.8769792 1.8533968 68
0.85393655 -1.8429668 1.8598841 62
1.0017577 -1.9084553 1.8610674 61.666668
-2.8930244 -1.6715312 1.8764786 5
-0.50962269 -1.6654617 1.8726054 17
-0.33806539 -1.7544267 1.8745916 15.5
-0.21775171 -1.7144097 1.855857 14
-0.098283499 -1.7009522 1.8459309 11
0.095964491 -1.6586412 1.8267936 14.666667
0.22374783 -1.7682065 1.8471762 18.166666
0.3701241 -1.6915646 1.8496277 80
0.53742242 -1.7320402 1.8574898 72
0.68396389 -1.7469494 1.8602575 65.400002
-0.61091107 -1.5330812 1.866479 16
-0.53013837 -1.580472 1.8615834 14.333333
-0.40282667 -1.6055307 1.8618969 14
-0.18721052 -1.550457 1.8498831 12
-0.046714451 -1.58171 1.8398882 6.75
0.087587625 -1.5719973 1.8567954 53.666668
0.21632817 -1.5908861 1.850518 76
0.34533578 -1.5601269 1.8553005 77.25
0.46709523 -1.5827751 1.8615555 69
-2.3277659 -1.3735375 1.8642241 51.5
-2.1959965 -1.4053813 1.8530542 32
-0.78021485 -1.4220361 1.8538238 14
-0.66571647 -1.4141372 1.8540678 14.333333
-0.53411746 -1.4528625 1.8546531 13.25
-0.37777731 -1.436174 1.8455883 12
-0.22144723 -1.3927451 1.836359 13.333333
-0.088857345 -1.442528 1.8459479 37.714287
0.079307184 -1.4088277 1.8552872 77
0.22614415 -1.4414389 1.8573579 79
0.36332548 -1.4822865 1.8597258 77
-2.3265128 -1.2897758 1.8657776 62
-2.1716695 -1.2442228 1.8581918 58
-0.99608576 -1.2169187 1.8560129 16
-0.81194812 -1.2540725 1.8466811 14.333333
-0.66725081 -1.2676607 1.8385016 13.5
-0.52641338 -1.3014687 1.8408861 9.333333
-0.33475167 -1.2705095 1.8246297 10.75
-0.20534264 -1.273286 1.8589878 70.714287
-0.0548384 -1.2770822 1.8537582 70.166664
0.077849761 -1.278585 1.8555585 75.75
0.16521917 -1.3031709 1.8611449 76
-2.2509487 -1.1989667 1.8619956 60
-2.0631969 -1.0506454 1.8527988 67
-1.5763087 -1.0926664 1.9499696 73
-1.2884922 -1.0986621 1.9486943 73
-1.1643507 -1.1124834 1.8831068 118
-0.92831838 -1.1464931 1.8478833 14
-0.83808059 -1.1128424 1.8388828 14.333333
-0.70213234 -1.1188755 1.8438914 14.2
-0.49325088 -1.101385 1.8323196 29.333334
-0.36481431 -1.121699 1.846927 44.25
-0.24135222 -1.1467196 1.8535382 57.166668
-0.081032149 -1.1299676 1.8560724 69
0.0007220626 -1.1256981 1.857958 70
-2.2146325 -1.0467983 1.8665899 7
-1.9780208 -0.98607588 1.8548077 58
-1.8820784 -0.94862342 1.8458908 75
-1.6314971 -0.91171187 1.9485496 76
-1.462271 -1.0185783 1.9484749 72.5
-1.2680172 -0.95240849 1.8589849 89
-1.1234304 -0.92277426 1.8493792 86
-0.92906928 -1.0119411 1.843309 12
-0.80099756 -0.97380716 1.8409549 14.666667
-0.64281911 -0.95218909 1.838117 5.5
-0.51343709 -0.94457114 1.843244 68
-0.39691845 -0.98366171 1.8428906 50.833332
-0.24294123 -0.97342741 1.8415654 42.799999
-0.11390918 -1.0099651 1.843482 47.333332
-2.1705875 -0.84575188 1.8500636 5.5
-1.8101394 -0.88245946 1.8478652 67
-1.7358289 -0.86918759 1.8450903 54.5
-1.5503248 -0.86907059 1.9463984 69
-1.4033636 -0.80553895 1.8455199 75.666664
-1.2953588 -0.80412477 1.8531624 73.333336
-1.1146046 -0.77088988 1.8543894 86.5
-1.0043668 -0.87000078 1.8498487 97.666664
-0.83999801 -0.80452681 1.8075564 10.5
-0.67605829 -0.8080408 1.8442736 74.5
-0.52540481 -0.82079649 1.8416774 68.199997
-0.38187927 -0.84909821 1.8427174 59.400002
-0.24116251 -0.82915586 1.8388689 51.5
-1.5774645 -0.68680382 1.8429101 69
-1.4348503 -0.65280867 1.8488203 75
-1.2800859 -0.66425782 1.8534852 81.666664
-1.1087545 -0.65952522 1.8389726 48.333332
-0.96091914 -0.6731841 1.8404249 51.75
-0.82187235 -0.69994485 1.8430402 59.75
-0.65779793 -0.65949929 1.8398902 79.85714
-0.5430243 -0.67074311 1.8392261 75.571426
-0.37868008 -0.6738112 1.8357525 69.833336
-0.29234973 -0.69802988 1.8428656 59
-1.5344166 -0.50562364 1.8464475 73
-1.4139596 -0.52077466 1.8499988 80.666664
-1.281153 -0.51370573 1.8433331 46.5
-1.0948132 -0.49020043 1.8343974 49.333332
-0.9654848 -0.50441909 1.840175 77.199997
-0.83125383 -0.54782188 1.8380368 81.199997
-0.67234105 -0.52226871 1.8350614 83.555557
-0.53216922 -0.52690828 1.8366531 79.599998
-0.40115431 -0.50106502 1.8345484 75.5
-1.5686888 -0.35233536 1.8474768 84.333336
-1.4455198 -0.37907743 1.8479396 86
-1.2716397 -0.36277425 1.8347334 28
-1.1310524 -0.36542737 1.8396155 77.333336
-0.9783411 -0.36070853 1.8382013 77.800003
-0.81009871 -0.39244434 1.8351972 81.625
-0.67522323 -0.3785561 1.8374045 77.875
-0.53227741 -0.35750711 1.8359156 78.5
-0.4366605 -0.37271449 1.8341502 74
-1.5714173 -0.18232381 1.8219613 1
-1.2714328 -0.22895603 1.8328507 65.25
-1.0986093 -0.21743792 1.8355231 77.75
-0.97504115 -0.22694474 1.8364472 75.333336
-0.81083697 -0.2302977 1.8349741 77.85714
-0.67870384 -0.22877109 1.8336991 75.75
-0.48318395 -0.24246274 1.833057 72.333336
-2.1902614 -0.043765157 1.8416905 80.5
-2.0448439 -0.049724966 1.8428177 56.666668
-1.9038815 -0.026588241 1.8427514 77
-1.5559936 -0.062127598 1.8422958 69.25
-1.3982211 -0.089983523 1.8430959 100
-1.2663549 -0.078182161 1.8324076 77
-1.1242762 -0.066405699 1.8351192 78.833336
-0.97880358 -0.091708958 1.8307204 78.25
-0.8317939 -0.070666216 1.8306937 77.777779
-0.68177265 -0.092565447 1.8328173 77
-0.51914769 -0.094605505 1.8305156 76.25
-2.4724178 0.062498439 1.8363624 77.5
-2.3282487 0.090280756 1.8408924 49
-2.1682408 0.14862867 1.8415054 69
-2.0422204 0.11001519 1.8341658 81.75
-1.7081926 0.13310887 1.8411176 84.5
-1.5735195 0.088127434 1.8406547 88.5
-1.4219005 0.069952935 1.8389742 94
-1.281787 0.059224665 1.8335174 86.333336
-1.1415334 0.086631738 1.8328851 80.75
-0.98348755 0.07303682 1.829717 78.25
-0.80430794 0.070878834 1.8285042 79.375
-0.68552214 0.087014385 1.8292933 80.714287
-0.54344308 0.070398889 1.8257461 82.5
-2.6112638 0.27885422 1.8331058 77.5
-2.4319057 0.2003046 1.8367759 77
-2.3282127 0.27571812 1.8301488 80
-2.2489252 0.15740772 1.8390611 73
-1.8375438 0.23078038 1.8380617 74
-1.6797066 0.28531596 1.8392049 86
-1.5842266 0.24096705 1.8373166 84.75
-1.4265459 0.20559716 1.8347138 93
-1.2673342 0.22204477 1.8314291 83.5
-1.1489263 0.21097772 1.8293806 78.25
-0.98773044 0.2365973 1.8264853 78.666664
-0.83032399 0.21261331 1.8242092 79.699997
-0.698919 0.23964512 1.826774 78.5
-0.55513704 0.23923028 1.8215789 85.75
-2.6735315 0.30348647 1.8424536 78
-2.4865355 0.36688083 1.8254828 77.5
-2.2580159 0.36209366 1.8349434 89
-2.1808875 0.34209454 1.8367797 76
-2.0027649 0.41070914 1.8259279 77
-1.8784835 0.34936157 1.8333235 79
-1.7483834 0.31584191 1.8362848 82
-1.5770216 0.377437 1.8371558 83
-1.4408826 0.37573603 1.8320853 89
-1.2836652 0.36574376 1.8276943 90
-1.1392772 0.38351431 1.8247883 76
-0.96957844 0.37639809 1.8229443 73.5
-0.82686949 0.37179232 1.8197994 77.75
-0.68788731 0.37440988 1.8225248 77.714287
-0.55691081 0.3920742 1.8201472 77.333336
-4.7292519 0.52057046 1.8527151 3
-4.4221683 0.56724298 1.8756119 9
-3.1813724 0.59754097 1.8262056 48
-2.8793013 0.49918246 1.8376039 74.5
-2.788239 0.54077959 1.8405331 6
-2.6532156 0.50749606 1.8305883 55
-2.3341956 0.46515802 1.8288625 16
-2.1814287 0.53485632 1.8218402 64.666664
-2.0495512 0.52821201 1.8228846 84
-1.8744087 0.51277733 1.8256838 81.5
-1.713382 0.4703019 1.8325816 86
-1.5894636 0.51298308 1.8285277 82
-1.4206026 0.55291545 1.8284187 83
-1.2860544 0.53184581 1.8323532 94.333336
-1.1453162 0.52865237 1.8206464 71.75
-0.96885061 0.52772039 1.8367124 44.5
-0.81229413 0.5218603 1.8192992 73.875
-0.68792236 0.52070314 1.8169851 76.199997
-0.54268193 0.5248695 1.8183817 77
-4.6428752 0.60971773 1.8467144 68
-4.293169 0.64077401 1.8462127 73
-3.9883883 0.66211665 1.8387679 79
-3.749594 0.68815696 1.8525327 55
-2.3230839 0.65341663 1.813495 62
-2.1571484 0.7184782 1.8252778 84
-2.0844493 0.68861818 1.8267471 80.5
-1.8686644 0.68051153 1.821282 82.5
-1.708164 0.64265692 1.8302746 87.5
-1.5854001 0.67431808 1.8255154 83.25
-1.4096683 0.69366729 1.8253579 80.5
-1.2722434 0.67796153 1.8289286 92
-1.1377697 0.66242123 1.8253042 89.75
-0.96743774 0.66801959 1.8149803 74.400002
-0.81059635 0.672149 1.8166631 76.555557
-0.67187196 0.67094648 1.8152715 73.285713
-0.54598123 0.67918259 1.8137521 76
-4.7947421 0.89063781 1.8485311 53
-4.1292725 0.80631506 1.8400871 70
-2.4433281 0.81255436 1.818241 89
-2.2937202 0.81569469 1.822444 80.5
-2.1291454 0.89505959 1.8217448 85
-2.0351615 0.80974954 1.8175354 80
-1.8594999 0.85218394 1.8191003 78
-1.694387 0.81780952 1.8248385 83.5
-1.5744603 0.83905518 1.8206301 86.25
-1.3931375 0.83697712 1.8221736 79.5
-1.2511925 0.82620043 1.8245088 90
-1.1463856 0.79377365 1.8242249 91
-0.97478455 0.81329888 1.8124316 76
-0.8262164 0.83495659 1.8151495 76.14286
-0.68875062 0.83975345 1.8134696 71.25
-0.50713599 0.83241689 1.8124971 75.599998
-4.38446 0.90125453 1.8577715 37
-2.2164102 0.97215891 1.8207231 78.5
-2.0524828 0.98145008 1.8159285 76.333336
-1.8920866 1.0086954 1.813121 77
-1.7486439 1.0383444 1.8190733 82.5
-1.5984402 0.97530812 1.8189964 82.333336
-1.4514329 1.0204661 1.8134631 85.5
-1.2705568 0.94249398 1.8210195 87.333336
-1.1413475 0.95915955 1.8200148 87
-0.94954342 0.95802569 1.81793 85.75
-0.79727185 1.0010625 1.8130953 86.5
-0.67300874 0.96285915 1.812304 75.833336
-0.54666722 0.98159945 1.8115466 75.599998
-0.43433255 0.978055 1.810414 63
-2.3184824 1.051568 1.8100737 84
-2.1497211 1.1320455 1.8164512 82.5
-2.0226576 1.1580237 1.8079526 73
-1.5778775 1.132522 1.8128377 84.75
-1.4214364 1.1816199 1.8085138 81
-1.2667663 1.1045127 1.8139656 87
-1.1131541 1.113999 1.8153967 78.5
-0.97758746 1.1304991 1.8115557 77.5
-0.84667253 1.1196227 1.8169528 84.166664
-0.68504143 1.1053809 1.8178788 86.833336
-0.54313934 1.1235694 1.8105505 81.400002
-0.42169482 1.1331663 1.8131636 79.75
-2.0758374 1.244382 1.8133897 78
-1.8768922 1.200326 1.8168327 76
-1.7219549 1.2195382 1.8138874 78.5
-1.5629878 1.3046227 1.8080302 82.333336
-1.4298439 1.3424505 1.8020626 72
-1.2802135 1.2148415 1.8133427 80
-1.1124026 1.2725807 1.8136905 81
-0.96127057 1.3341836 1.8055019 68
-0.80754125 1.2737367 1.8101267 72.199997
-0.66354769 1.2597485 1.813211 75.5
-0.52001733 1.2663543 1.8115208 78.428574
-0.36667356 1.2601544 1.8115683 72.666664
-0.29754308 1.3360602 1.8409282 24
-1.8468988 1.3907139 1.8066677 77
-1.7454191 1.4013859 1.8088645 78
-1.5749595 1.3845465 1.8140795 82.5
-1.290012 1.3562694 1.8032991 67.5
-1.0997945 1.3809068 1.8124436 82
-1.0005407 1.434846 1.8080062 67.666664
-0.79714769 1.4465042 1.8015586 71.333336
-0.66625899 1.3995746 1.8066797 78.400002
-0.52768904 1.4374352 1.8054351 70.833336
-0.37416124 1.4172865 1.8062998 72.14286
-0.23726906 1.4347581 1.8048946 74
-1.8129741 1.5906824 1.8001949 83
-1.7106968 1.5873482 1.802133 79
-1.5487458 1.5946347 1.8071775 83.666664
-1.4859371 1.5470872 1.8090211 72
-1.2962594 1.5216545 1.8038477 71
-0.97454554 1.5743268 1.8058505 62
-0.67186183 1.5623748 1.8035579 72
-0.50778395 1.5936584 1.8012787 72
-0.25549182 1.5139581 1.8025949 69.5
-1.5149163 1.732977 1.8064026 73
-1.2449106 1.6955507 1.8021568 62
-0.93741363 1.7367297 1.8026408 72
-1.4553323 1.8972707 1.8007299 78.5
-0.99285144 1.8094242 1.8059219 70
-0.8530066 1.8828502 1.8010114 61
0.22890453 1.9970598 1.8074085 29
0.37165198 2.0385818 1.8305926 43.666668
0.14729337 2.1309061 1.8003627 26
0.21650465 2.151428 1.8091029 41.666668
0.34223646 2.1874053 1.8070759 49
0.46265608 2.1185417 1.8071574 50
-2.8819859 -2.9412527 1.9979471 7
-2.7390549 -2.9988692 1.9819649 1
-2.7175007 -2.7534347 1.9959058 47
-2.631952 -2.8323088 1.9991368 45
-2.8304796 -2.669894 1.9924873 48
-2.653398 -2.5721192 1.9868072 41
-2.4886751 -2.6237304 2.000766 11
-2.8707416 -2.521018 1.9794408 29
-2.7755535 -2.4262564 1.9898065 49
-2.6823018 -2.500463 1.9926437 55
-2.136857 -2.4333 1.9784054 55
-2.8941948 -2.3412523 1.9849838 51
-2.7279415 -2.2851574 1.9884197 62
-2.5594065 -2.2978361 1.9819697 63
-2.3545985 -2.370291 1.975772 50
-2.9276044 -2.2089498 1.967714 11
-2.7780766 -2.1589928 1.9858682 55
-2.2520967 -2.1799748 1.9758276 66
-2.1540632 -2.1841459 1.9807686 58
-2.0792468 -2.2458334 1.9830321 69
-2.6296673 -2.0015757 1.9754995 59
-2.4393239 -2.09759 1.9787101 64
-2.2711086 -2.0997238 1.969165 62
-2.1539137 -1.9847879 1.9780325 56.333332
-1.8711852 -2.0143549 1.9712967 67
-2.3123081 -1.8891467 1.969525 58.666668
-1.734746 -1.848114 1.9711131 64
-2.3264122 -1.6535964 1.9684805 52
-2.2130904 -1.7450137 1.9718299 53.666668
-1.9563457 -1.7773727 1.971156 60
-1.8754026 -1.6570005 1.9710351 63
-1.7224795 -1.7543027 1.9697422 70
-1.6014462 -1.6571424 1.9650307 67
-2.2917051 -1.5561715 1.9737211 62
-2.2237058 -1.5256352 1.9715544 57
-2.0294616 -1.5459054 1.9674205 61
-1.7414409 -1.597536 1.9614201 64.333336
-1.6461781 -1.6383035 1.9657124 65
-1.8738424 -1.4003016 1.9591471 60
-1.7178186 -1.4483844 1.9621061 63.666668
-1.6384987 -1.467232 1.9628929 63
-1.4082375 -1.4222012 1.9577467 70.5
-2.0450163 -1.2756418 1.9579211 61
-1.8506746 -1.2236663 1.9547843 67.5
-1.7368226 -1.2737058 1.9597951 68.333336
-1.5166242 -1.2779627 1.9569134 67
-1.4425291 -1.2104993 1.9576739 71
-1.2753119 -1.2954417 1.9556561 68
-1.8750682 -1.1311208 1.9582598 71.5
-1.7654055 -1.0903592 1.9575288 65.5
-1.3639917 -1.1565585 1.9511127 74.5
-1.2685475 -1.1655614 1.9582139 75
-1.8643609 -1.0486927 1.9509443 30
-1.424727 -0.99632221 1.9538301 77
