# .PCD v0.7 - Point Cloud Data file format
VERSION 0.7
FIELDS x y z intensity
SIZE 4 4 4 4
TYPE F F F F
COUNT 1 1 1 1
WIDTH 150
HEIGHT 1
VIEWPOINT 0 0 0 1 0 0 0
POINTS 150
DATA ascii
2.0328898 -1.7680587 -0.84344447 0
2.0413544 -1.5243214 -0.75385571 9
2.1393886 -1.5344669 -0.81875575 5.5
2.391504 -1.6083277 -0.79870635 6
2.5223203 -1.5941424 -0.88180584 5
2.5665112 -1.6048002 -0.76294506 44
1.8257875 -1.4765207 -0.7693941 13
2.0970654 -1.4473448 -0.8777017 5
2.3235977 -1.4506589 -0.87971646 4
2.174119 -1.238446 -0.83260643 3.5
2.1554644 -1.1849406 -0.75442702 20
2.774157 -1.1028577 -0.76365125 1
2.2705817 -1.0432594 -0.8221224 3
2.8150733 -0.91666555 -0.81526273 0
2.5608339 -0.89107329 -0.85098463 8
2.8485029 -0.79676849 -0.76162624 150
2.7284606 -0.70070839 -0.84194797 12
2.9205656 -0.6010015 -0.80736935 4
2.4672761 -0.47020349 -0.83047795 8
2.7996721 -0.37522084 -0.81777376 5
2.6028972 -0.16219132 -0.80824351 6
2.4886987 0.026358599 -0.80299896 5
2.3410745 0.93727392 -0.75533307 8
2.3180311 -1.6889737 -0.66149819 9
2.5244489 -1.7019 -0.629713 16
1.287461 -1.3666779 -0.64443088 2
1.4350587 -1.3917439 -0.63071549 5
1.6314644 -1.4376538 -0.64651543 6
1.707296 -1.4482508 -0.69326162 15
1.858321 -1.4930224 -0.65205717 7
2.1854789 -1.3087119 -0.65338606 3
2.1847935 -1.0936053 -0.67167538 45
2.3070188 -1.0222944 -0.61027831 3
2.8069236 -1.0162112 -0.6752063 95.5
2.8433402 -0.85418808 -0.64753461 91.5
2.8871014 -0.68318468 -0.6666519 76.666664
2.9270146 -0.50920403 -0.65372205 88.333336
2.9767978 -0.31430158 -0.65426069 68.666664
2.9698646 -0.2981869 -0.69957912 56
2.1395729 -0.037403062 -0.67734998 2
2.6019349 -0.099210709 -0.64482331 74
1.7635415 0.069761738 -0.60389203 14
2.6168168 0.035906781 -0.60609502 50
2.4499609 0.93412095 -0.61186546 3
2.816257 0.96554661 -0.74134147 20
-0.050869539 2.1772847 -0.73113489 13
0.53624821 2.1882036 -0.71825182 7
-0.062017236 2.344295 -0.72790861 12
0.036074888 2.3393521 -0.71768236 13
0.28966451 2.3956783 -0.72444284 4
0.7713744 2.3422425 -0.71381867 7
0.91439277 2.39364 -0.71706325 8
-0.073511213 2.483911 -0.71981263 12
0.098054454 2.4558952 -0.71241152 10
0.91141707 2.482724 -0.71035534 13
-0.091718093 2.6000144 -0.71350437 11
0.30678019 2.6246028 -0.71315348 5.5
0.53894889 2.6613464 -0.69489801 5
0.92361331 2.5828943 -0.70174849 8.5
-0.12136905 2.7388525 -0.70075178 12
0.19959037 2.7110837 -0.70314139 5
0.31219906 2.8346221 -0.70197397 6
0.95549756 2.793092 -0.69316405 10
-0.058759991 2.8875594 -0.69038069 5
0.23105533 2.9168029 -0.70048374 6
0.30701619 2.9136772 -0.69153285 3
0.85163563 2.9960425 -0.68252867 13
0.99507314 2.9949346 -0.68895167 13
1.1260196 2.8564177 -0.6813764 11
1.25351 2.9848793 -0.63998389 67
0.0043398263 3.0132117 -0.68271792 6
0.42040545 3.1336696 -0.67506111 4
0.097235039 3.268084 -0.63146001 97
0.24377504 3.2206564 -0.67246628 24
0.99095309 3.189671 -0.675668 12
0.5456785 3.3672223 -0.65957725 12
1.0504347 3.3171926 -0.66230291 11
1.0426364 3.5503979 -0.65573961 9
1.3096174 3.7650535 -0.64012975 6
2.230725 -1.9556479 -0.45844385 0
2.3978951 -1.7340989 -0.49311474 10
1.268016 -1.5838896 -0.51581734 21
1.614332 -1.5127292 -0.55772239 5
1.890888 -1.5072253 -0.50801462 7
2.5498016 -1.6143939 -0.57015181 46
2.6350441 -1.5856682 -0.49363714 24.5
1.0360801 -1.38113 -0.46901754 155
1.3403298 -1.3862933 -0.56543982 4
1.364504 -1.3819435 -0.58309293 5
1.7124336 -1.4839474 -0.53018969 13
0.74094242 -1.2402267 -0.49137732 1
0.84897584 -1.2544291 -0.49007773 9
1.030033 -1.2904269 -0.55709302 10
1.1425966 -1.3303629 -0.50881892 5.1999998
2.1498573 -1.2166172 -0.59073943 14
2.1527526 -1.1490712 -0.52050138 67.5
2.7881997 -1.0830306 -0.53632611 92
2.2344155 -1.0435309 -0.47428405 8
2.2537999 -1.0275664 -0.54468983 5
2.8266675 -0.92202687 -0.57983911 98
2.8378487 -0.88521457 -0.522569 95
2.8824804 -0.685862 -0.52595884 91.666664
2.9363468 -0.48972565 -0.54082167 89.5
2.9812298 -0.29284179 -0.53089041 51
2.5770502 -0.08960323 -0.53128231 13
1.542514 0.11949837 -0.50699222 18
1.7862377 0.057699367 -0.52027088 8.5
1.8723493 0.055089135 -0.5919199 6
1.4250696 0.22926739 -0.48537284 33
1.4829612 0.37811598 -0.49589854 60.5
1.5227698 0.50376648 -0.51423651 14
2.8498662 0.96272677 -0.57227433 75
3.3256288 1.1508703 -0.53296781 2
-0.32411614 1.3196114 -0.46982116 3
-0.29753649 1.4251909 -0.4691228 1
-0.25971508 1.5666668 -0.50959814 15.4
-0.065550998 1.5895052 -0.47121292 3.5
-0.22949529 1.6936771 -0.54861939 14.333333
-0.010090339 3.2964063 -0.46833697 28
0.039932769 3.2816689 -0.53165704 102
0.24439646 3.2346611 -0.55876678 103
0.050743472 5.3104329 -0.59707558 1
2.5031931 -1.7213659 -0.44639084 11
2.648092 -1.6222898 -0.41520888 85
1.3477167 -1.3789256 -0.44137591 9
0.59371251 -1.2020737 -0.43103093 24
0.70108181 -1.2273598 -0.43227699 10
0.80613595 -1.2489386 -0.41818777 14
0.90153378 -1.2734197 -0.44498366 12
2.3975999 -1.297331 -0.41968748 151
0.41042638 -1.17099 -0.42219681 5
0.48736995 -1.167673 -0.42501009 1
2.1747551 -1.1355722 -0.44064632 48
2.7901342 -1.0732069 -0.43730244 99
2.8469868 -0.84458625 -0.40882355 87
2.9339821 -0.47615522 -0.40111047 83
2.9777193 -0.29502118 -0.42064184 39
2.1568799 -0.085674345 -0.41828659 45.5
1.824681 0.055615887 -0.40283275 48
2.0484693 0.042391174 -0.44446731 24
-0.352869 1.1963457 -0.41099828 4
0.10116725 1.18831 -0.40528965 14
0.22842886 1.1784242 -0.413351 33
0.52914327 1.1681763 -0.42508769 13.8
0.60766673 1.1456931 -0.43794867 12.5
-0.34431842 1.223866 -0.43112391 4
-0.070396379 1.2389675 -0.4108704 34
0.086535417 1.2032155 -0.41516066 14.666667
0.48365414 1.3354671 -0.40286493 4
-0.20837744 1.7313677 -0.42987996 2
