# .PCD v0.7 - Point Cloud Data file format
VERSION 0.7
FIELDS x y z intensity
SIZE 4 4 4 4
TYPE F F F F
COUNT 1 1 1 1
WIDTH 1266
HEIGHT 1
VIEWPOINT 0 0 0 1 0 0 0
POINTS 1266
DATA ascii
-0.51695424 -0.90295553 -0.1642364 2.5999999
-0.35381126 -0.90685081 -0.17539614 6
-0.4679144 -0.89805537 -0.19898237 4
-0.37665907 -0.88914943 -0.17352419 6.5
-0.21776786 -0.87203515 -0.16983539 5.6999998
-0.068251476 -0.84274125 -0.17361639 5.3333335
0.084337525 -0.81403494 -0.17362869 5.1428571
0.21782367 -0.79506242 -0.17431025 5
0.31601831 -0.78182632 -0.17572308 5.5
0.3301065 -0.73259813 -0.19332369 0
0.5744285 -0.7477476 -0.16324663 5
0.68519056 -0.72734803 -0.18013585 4
0.82190925 -0.69966513 -0.17487454 2
0.9641583 -0.67436582 -0.18079358 5.5
1.1060698 -0.65310657 -0.15774041 12.5
1.2641789 -0.62654889 -0.17427906 12.5
1.4670677 -0.62662381 -0.17757915 3
2.3247199 -0.60673773 -0.18385334 7
1.3689559 -0.58677506 -0.15063415 1
1.5816916 -0.57887673 -0.19603889 7
2.5119634 -0.34768456 -0.15799597 80.5
2.0016778 -0.03673495 -0.15182947 150
2.4361949 0.10868807 -0.19849961 85
0.29323071 0.58917493 -0.17405105 0
0.30873793 0.57304204 -0.16832316 0
2.3736942 0.53191775 -0.1927058 82
-0.45778388 0.61452341 -0.1529294 10.5
-0.38768181 0.62325668 -0.18286678 11.428572
-0.23177893 0.6465621 -0.17575443 11.6
0.13070917 0.67998934 -0.18198141 0
0.21071756 0.65163696 -0.16500494 0
0.36037147 0.67526019 -0.17856345 0.40000001
2.3467245 0.67099893 -0.18169393 81
-0.59594792 0.82925248 -0.15017542 3
0.082599126 0.82729876 -0.1512727 2.8
0.2076598 0.85111016 -0.15626772 2
0.41553378 0.76058632 -0.18603456 0
0.70524997 0.80004132 -0.15181939 7
0.81218213 0.81786805 -0.1760318 6
1.060478 0.85736078 -0.17130724 41
1.3090587 0.88703722 -0.15170155 15
1.5118322 0.84303111 -0.17753153 3
2.3232553 0.81019008 -0.16571259 83
-0.69239968 0.94649971 -0.17464349 13.625
-0.59315491 0.96446145 -0.1815387 20
0.20486812 0.96049815 -0.15980965 1.3333334
1.4281955 0.95948482 -0.16650586 8
2.3196108 0.91841024 -0.19913921 89
0.084517553 1.0611495 -0.19620436 14
0.25029594 1.0874581 -0.17924595 8
0.31795388 1.1034669 -0.17529334 11
1.6174358 1.1523666 -0.16700892 11
-0.61742878 -0.91800213 -0.058267243 4.25
-0.53221339 -0.91338074 -0.070779718 4.8400002
-0.41412985 -0.90660971 -0.10485093 6.25
-0.46986079 -0.89485699 -0.083435237 5.3333335
-0.35821062 -0.88955104 -0.058273483 6.0999999
-0.22890423 -0.86724859 -0.068235554 5.7391305
-0.085531957 -0.8373723 -0.082021475 5.5833335
0.062607333 -0.81642771 -0.088797748 5.3684211
0.22255482 -0.79420918 -0.084952027 5.625
0.36702657 -0.77033645 -0.030207705 4
0.48510709 -0.75743175 -0.069591433 4.6666665
0.54983354 -0.74642736 -0.077434972 5
0.67042762 -0.72630388 -0.10035298 4.0714288
0.82494599 -0.69612163 -0.099241503 2.4285715
0.96962339 -0.67296284 -0.081928484 1.1666666
1.1034303 -0.65004885 -0.066682518 10
1.2660831 -0.62410426 -0.078368619 12.5
2.3328466 -0.64907664 -0.088473208 9
1.4989647 -0.59244275 -0.037396584 3
1.5890833 -0.57325053 -0.085867219 8.5
1.7103047 -0.58219385 -0.1446508 4
1.860675 -0.54779828 -0.040254105 4
2.0583792 -0.50110161 -0.039953563 4
2.2946901 -0.59541106 -0.12230302 9
2.4695387 -0.49792537 -0.094903372 8.666667
2.5104046 -0.39251834 -0.041515965 40.5
1.9027736 -0.15729693 -0.13992928 59
2.0048895 -0.19962096 -0.07773719 123
1.9080855 -0.11677001 -0.098378137 32
1.9892448 -0.025031442 -0.048519347 125
1.6539412 0.11406504 -0.029562956 10
1.8705921 0.072801501 -0.0185098 53
2.4420433 0.090828955 -0.075619526 95.25
1.6301835 0.16233817 -0.040196154 73
2.4402664 0.23965891 -0.085067958 97.25
2.3913827 0.39211971 -0.10298968 90
2.41909 0.3788147 -0.081094705 120
-0.75499731 0.55188191 -0.11796613 9
-0.6695857 0.57812792 -0.12802263 8
-0.55809146 0.59629303 -0.12631881 11
0.13512391 0.59407115 -0.016373856 0
0.27386415 0.59709609 -0.13849825 0
0.35095522 0.58188128 -0.1031471 0
2.3745134 0.52106065 -0.11343601 80.333336
2.517607 0.59238303 -0.0085699903 150
-0.75234723 0.62619883 -0.13953032 5
-0.68253106 0.67946577 -0.14050336 3.4166667
-0.55214334 0.649418 -0.1375387 5.6153846
-0.37102529 0.62792045 -0.13688141 11.25
-0.28264391 0.63649499 -0.1341984 10.75
-0.058348577 0.67580903 -0.13553128 4.1999998
0.10497908 0.64987463 -0.092520393 2.1538463
0.20926148 0.6387893 -0.086044878 0.26666668
0.35027388 0.68282473 -0.042393159 0
2.3538249 0.66994953 -0.10616505 74
-0.77122378 0.76077557 -0.14056949 2
-0.69086874 0.83640486 -0.14350124 2.5714285
-0.57507634 0.83934993 -0.14696078 4.25
-0.043508995 0.75858235 -0.14916649 4
0.087277763 0.77111089 -0.14768815 4.75
0.19107923 0.85835922 -0.14879054 3
0.73440105 0.79820299 -0.14554252 5
0.82513952 0.81067812 -0.13948083 3
0.93452412 0.82825172 -0.13174635 1
1.0978923 0.84887874 -0.14411092 18.5
1.3264102 0.83112812 -0.060682394 4.75
1.3791391 0.85139418 -0.11525819 5
1.6134808 0.87153661 -0.080594793 4
1.7072549 0.87467325 -0.050973721 4
2.3312018 0.82877767 -0.11634994 92.5
2.5447385 0.87132412 -0.020669466 10
-0.77457792 0.93663561 -0.14600003 6.5
-0.72370982 0.90763783 -0.14476429 2.5
-0.57294184 0.95750165 -0.14733353 5
2.3031466 0.97310686 -0.11052384 85.333336
-1.0380918 -1.0916479 0.079552673 34
-0.62220502 -0.91411638 0.067418717 4
-0.53558707 -0.90476799 0.072796702 5.7777777
-0.50330138 -0.89052117 0.062682591 4.5555553
-0.37108794 -0.87524676 0.079346426 5.4375
-0.2267039 -0.85389739 0.070007637 5.2105265
-0.075031035 -0.8324632 0.067490719 5.2857141
0.068833232 -0.80747074 0.086462259 4.3125
0.21454251 -0.79027504 0.044203438 5.6500001
0.38135311 -0.76816034 0.10430312 4.7142859
0.45987719 -0.75874144 0.066510729 5
0.41724649 -0.7476365 0.126066 2.5
0.51881963 -0.74129063 0.10329553 4.8461537
0.66590238 -0.71715599 0.084770545 4.0588236
0.83107692 -0.68489939 0.070432171 3.7333333
0.9893688 -0.66058832 0.083140068 8.75
1.1318556 -0.63679028 0.081904449 10
1.3009192 -0.61104882 0.07612212 12.714286
1.8417327 -0.60020512 0.058520135 5
1.366643 -0.5643332 0.034273487 1.5
1.5388 -0.58322191 0.10847087 5
1.7774187 -0.55723172 0.1161293 3.6666667
1.8679014 -0.55395311 0.074770659 3.6666667
1.9798341 -0.50031888 0.095327072 3
2.8094046 -0.50084114 0.12369221 4
1.8885429 -0.35220906 0.1419192 0
2.3172219 -0.44077873 0.10633595 1
2.6330304 -0.343705 0.097720876 23
2.7203205 -0.32859522 0.075338416 26
1.7059302 -0.26187059 0.083755724 5
1.8762375 -0.22956555 0.076966234 40.166668
2.0505977 -0.16542944 0.052495491 69
1.7498609 -0.075537249 0.063336067 32.5
1.8629633 -0.075446792 0.071231715 80.666664
2.0365577 -0.05582935 0.074889459 120.5
2.1101613 -0.14752248 0.021366144 45
-1.0935005 0.090116903 0.12150214 0
-1.0333233 0.12605062 0.073674969 0
1.7330873 0.082946524 0.052287228 5.5
1.8784052 0.045572609 0.053761568 27.666666
1.7193766 0.15504326 0.039034959 39
2.6888483 0.21374632 0.092299722 72
2.6674616 0.35275933 0.091924585 74.5
0.12631005 0.59001029 0.048392549 0
0.15532921 0.59580904 0.017728562 0
2.6449478 0.50580907 0.09038195 74
0.1168431 0.61369485 0.047502514 0
0.24349871 0.64682043 0.0370676 0
0.37538952 0.67160183 0.038437687 0
0.52415001 0.69565511 0.043425601 0
0.60781103 0.71073127 0.080438875 0
2.6200435 0.65879822 0.095434599 62
1.4201419 0.82896125 0.067345001 3.5
1.5558758 0.83377588 0.05071627 3.75
1.7194176 0.83812141 0.081495665 1.3333334
2.6389704 0.78970844 0.049849667 15.5
2.6199656 0.94622689 0.042599227 15
-1.1374235 1.1179169 0.11480638 0
-0.9852882 1.1854088 0.13318044 0.5
-0.86235195 1.1839949 0.13654256 13
-0.68617272 1.197198 0.1123318 0
-0.33167034 1.1580352 0.127285 5
-0.21252388 1.1554132 0.11015201 6.5
-0.073509939 1.1613336 0.10928249 7.818182
2.6193509 1.1030915 0.073894203 11.5
-0.36037862 1.2215501 0.10035404 7.3333335
-0.0062542735 1.2218083 0.068840556 6
0.019837927 1.2296753 0.080626301 0
-1.0833368 -1.1234193 0.22426702 5
-1.2261548 -0.92562568 0.25222084 11
-1.1235297 -1.0025003 0.2270174 9.3999996
-0.61920351 -0.91562581 0.16414538 4
-0.55206525 -0.90321493 0.24439064 4.4000001
-0.62019318 -0.89698672 0.21374458 4
-0.50053805 -0.88630283 0.22017296 4.1111112
-0.36582622 -0.8687728 0.20485047 4.1764708
-0.22340381 -0.84593374 0.21240482 4.647059
-0.080693677 -0.82289404 0.21987848 3.8333333
0.096659571 -0.7978127 0.25130704 3.2727273
0.2223324 -0.7748456 0.21957229 2.4761906
0.34092635 -0.76630843 0.20024648 3
0.14673828 -0.7456435 0.23459166 0
0.39207798 -0.74495173 0.26994663 3.75
0.52286679 -0.73046714 0.24218161 3.9523809
0.67127842 -0.705787 0.21189705 3.6153846
0.83077741 -0.67613691 0.22350517 7.5384617
0.97524595 -0.65544957 0.20774892 8.625
1.1074415 -0.62932616 0.22713776 11.909091
1.2660626 -0.60873657 0.19605862 13.75
-1.2495189 -0.46927544 0.27893859 3
1.3341885 -0.59291553 0.22574559 11.5
1.3616656 -0.5859617 0.24476933 7
1.571229 -0.56276244 0.22816946 4.3333335
1.8791616 -0.550367 0.21529435 4
2.0380058 -0.48579535 0.22290051 0.66666669
2.1054814 -0.48341864 0.16599727 0
-1.2310201 -0.41367987 0.24818499 1.3333334
-1.1596954 -0.32860726 0.22076759 3.4000001
1.7643819 -0.32384235 0.18662542 8
2.1682637 -0.44414517 0.21743238 0
2.2833662 -0.44228831 0.1557892 0
2.4198847 -0.40230048 0.18677843 3
-1.2419099 -0.21228433 0.27892226 0
-1.1505039 -0.23923644 0.1824557 5
1.5978903 -0.15356131 0.22758937 32
1.7723444 -0.23902939 0.19864911 28.25
1.828685 -0.15503143 0.22942466 13
-1.3145566 -0.12740278 0.29613775 0
-1.1786002 -0.014808143 0.16434932 0
1.7396426 -0.069109626 0.29791814 10
1.865072 -0.053903796 0.20821989 58
-1.1460247 0.061510794 0.19929272 0
1.7133061 0.046343431 0.26186028 45.333332
1.8605025 0.041788891 0.21025366 45
1.9925828 0.094169609 0.18334877 4
1.7867627 0.19381487 0.29447901 0
2.6813402 0.27853757 0.22186089 83.5
2.6633279 0.40508112 0.21384169 74.25
2.6416247 0.55254912 0.21651793 75.75
1.4381554 0.65061539 0.28864503 0
1.692541 0.67528987 0.25615138 2
2.5984125 0.67762661 0.23438372 55.333332
1.5638568 0.8275733 0.2698223 2
2.5701602 0.82052392 0.22712331 44.599998
2.5325444 0.98496914 0.24674708 72.666664
-0.96463871 1.1608852 0.24147844 9.8000002
-0.8528583 1.1636186 0.23756294 12
-0.18156666 1.156463 0.19624247 3.3333333
-0.10542651 1.1470163 0.17989859 4
2.5122812 1.1212233 0.19696331 49
-0.77898788 1.2388014 0.19859716 17
-0.40434277 1.2749928 0.18481001 1.5
-0.74729568 1.3558053 0.19650424 0
2.4707215 1.450644 0.28785169 74.5
2.4442577 1.5990862 0.2197634 68.333336
2.4175339 1.7783682 0.25036198 73
-1.4140514 -2.2946622 0.39930817 22.25
-1.4586631 -1.9893041 0.32408902 24.5
-1.088587 -1.2118775 0.34408802 1
-1.1000479 -1.1180481 0.3674691 11.416667
-1.4387107 -0.96382707 0.33310232 22.5
-1.2715498 -0.93828952 0.3866069 12.888889
-1.155152 -0.98812968 0.37711343 13.583333
-0.61167526 -0.90516049 0.34121868 2.5
-0.59686756 -0.90496367 0.3243022 3
-1.3905816 -0.86809421 0.39114711 13.5
-1.2562797 -0.82015336 0.42934436 5.5
-1.122574 -0.85989213 0.43298602 14.666667
-0.61434078 -0.89597178 0.40896645 1.5
-0.50528818 -0.88539451 0.37563661 2.2727273
-0.374953 -0.86995941 0.36505559 2.5999999
-0.22279297 -0.83784533 0.37870049 2.3333333
-0.061283004 -0.81293803 0.39718145 1.4
0.058042362 -0.79651833 0.35698327 1.4545455
0.2108154 -0.76664013 0.39306259 1.2222222
0.37349558 -0.75285327 0.3233909 3
-1.2147566 -0.73409694 0.41293839 23.5
0.25281164 -0.73934919 0.33084083 0.2
0.36231461 -0.74230403 0.31528431 2
0.45015347 -0.74008155 0.30227345 5
0.78349262 -0.66860843 0.34179294 23
0.96289688 -0.63886726 0.35349023 17
1.1341608 -0.61386883 0.37660334 14.5
1.2084372 -0.61006886 0.30866215 11.666667
-1.2789813 -0.48527482 0.39259896 4.1666665
1.3350687 -0.58335054 0.36708429 11
1.3530357 -0.58346552 0.32599857 10
1.5360173 -0.56120116 0.35809609 3
1.7839329 -0.54395705 0.40377289 3
1.8720574 -0.54028755 0.36669183 3
2.0140755 -0.50745285 0.38883612 3
2.1644554 -0.48986554 0.37153912 3.5
-1.2473028 -0.37887254 0.40400174 5.6666665
2.0493481 -0.39377558 0.42839301 27
2.2636108 -0.41756302 0.39844394 5
2.6669874 -0.32193381 0.33736569 24
-1.2365407 -0.22280405 0.37710765 0
1.7907612 -0.24944906 0.34417075 23
2.05779 -0.17804 0.4096874 150
2.1313376 -0.2114913 0.38209891 56
-1.4066057 -0.053863738 0.39811751 19
-1.3200989 -0.10941704 0.38394642 0
1.9449501 -0.034578789 0.43088484 31
1.9518712 -0.10090439 0.3081727 49
2.0498419 0.10025145 0.30177206 15
2.6925683 0.14605878 0.32643193 22
2.684633 0.25273982 0.34935141 95.666664
2.6641474 0.3922776 0.36830294 69.5
2.6414826 0.53065169 0.36585122 71
2.5939379 0.67884773 0.37378269 68.199997
1.4572287 0.79561168 0.32100883 4.3333335
1.5998049 0.77720815 0.32488215 3
2.5566413 0.83437467 0.37746003 69.5
2.5338295 0.98811007 0.36632624 71.333336
-0.95156956 1.1565995 0.3182773 10
-0.82406497 1.1431506 0.31013262 12
2.5131743 1.1356467 0.36498523 31.333334
2.4964311 1.2895795 0.40607476 32.333332
2.4679418 1.4631042 0.41706091 81
2.446264 1.583372 0.34931445 76.666664
2.4247818 1.7379951 0.40829867 69.199997
-1.4241121 -2.2493467 0.54646271 3
-1.4623244 -1.9827306 0.54863226 16
-1.4705819 -1.9132464 0.53241813 17
-1.495943 -1.7923685 0.58347559 1
-1.0796965 -1.0849829 0.56246454 22.5
-1.041966 -1.1273723 0.52525258 29.666666
-1.4399315 -0.92797232 0.50145012 3
-1.2770239 -0.93996853 0.49099326 22
-1.170755 -0.97238737 0.53008097 57.333332
-1.2254449 -0.75278258 0.47193867 17
-1.1927534 -0.80192876 0.46659267 22
-0.60798651 -0.88326019 0.58988863 1
-0.53381503 -0.87672907 0.53635943 0.72727275
-0.38144773 -0.85724407 0.52913481 0.85714287
-0.2346331 -0.82671773 0.53164315 1
-0.078709453 -0.80506265 0.51061165 0.69999999
0.064218491 -0.78266871 0.50695747 0.625
-1.251183 -0.46044785 0.53534555 3.5
1.7135198 -0.5331586 0.49787217 2
1.9944243 -0.48956665 0.51558471 4
-1.2354834 -0.37832853 0.53507179 3
1.9272339 -0.30689546 0.48473364 27
1.968704 -0.40580329 0.52850533 30
2.292628 -0.32634965 0.45900559 121.5
-1.2528837 -0.25275648 0.55701214 1.2
2.1029758 -0.23175503 0.52335948 56
-1.3687367 -0.063506611 0.53244835 14
-1.3003232 -0.11433973 0.52228576 0.5
2.1051126 -0.13365716 0.50203413 24
2.683213 0.26102558 0.45833755 64
2.7016788 0.16892324 0.48883659 56
2.6649897 0.38107076 0.50052142 64.666664
2.6381915 0.55014753 0.51381767 66.5
2.5999227 0.67478716 0.51607227 63.5
2.5495427 0.89525837 0.58343011 62
2.5589824 0.79798859 0.52250946 66
2.5165124 1.102607 0.49093065 57.333332
2.5039594 1.2507839 0.50636792 56
2.4776556 1.4115705 0.52816701 75.666664
2.4469082 1.5869446 0.5134657 67.400002
2.4217913 1.7736193 0.54933876 61.666668
2.3893507 1.932059 0.5966146 58
2.4095867 1.8446162 0.5084976 66
2.3885381 1.9794099 0.52866542 31
-1.4157655 -2.2631717 0.68741012 55
-1.4158747 -2.2430618 0.74613833 46
-1.4596105 -2.0000069 0.71793801 20
-1.4766028 -1.870001 0.65994263 49
-1.1451292 -1.0603789 0.65672797 22.333334
-1.2151963 -0.97755891 0.67774343 42
-1.1914047 -1.0378221 0.66180408 29
-1.2201195 -0.88561994 0.70388663 23
-1.1779339 -0.89977622 0.7094903 8
-0.63884556 -0.88048601 0.67620498 1
-0.52643657 -0.86504757 0.66853058 0.60000002
-0.39978328 -0.84574479 0.65975082 0
-0.20369256 -0.81474882 0.66147029 0.875
-0.092164636 -0.79947633 0.64950681 1
-1.2520182 -0.36729649 0.62057108 2.3333333
-1.1804237 -0.34316447 0.74647057 2
-1.2721945 -0.23518074 0.64242262 9.833333
-1.1758796 -0.2464616 0.72865808 5.5
2.5368359 0.07524576 0.61407042 18
2.6961794 0.20115075 0.65550017 61
2.6631258 0.38307732 0.63868695 61
2.6420662 0.56828928 0.63539481 68
2.5873287 0.68259585 0.62712836 59
2.5612833 0.80406237 0.6346072 64
2.536931 0.97559869 0.62777328 51.5
2.4750209 1.4024898 0.66247231 67
2.4486623 1.5600312 0.64383763 65
2.4298809 1.7148702 0.66432554 60.5
2.395072 1.9421434 0.63642514 57
2.4079559 1.883409 0.69203413 59
2.3821251 1.9970076 0.61858362 64
-1.3958507 -2.3529856 0.76228833 45
-1.4267086 -2.1954343 0.821284 16.333334
-1.4625099 -1.9855659 0.78887296 18
-1.4714751 -1.926847 0.82773268 9
-1.3527576 -0.91647273 0.87716866 0
-1.3294926 -0.92067122 0.79119122 2
-1.1393573 -0.9613471 0.84490424 18
-1.1567125 -0.84633666 0.83835346 8.666667
-0.63192415 -0.88191491 0.80969828 2
-0.48658058 -0.85726672 0.83645225 4.75
-0.32645306 -0.83636189 0.76785576 0
-0.21819489 -0.81668895 0.79133201 0
-0.087393798 -0.79427546 0.8028267 5.3333335
-1.1508865 -0.35616991 0.7947194 1.3333334
-1.2356583 -0.17464714 0.86352742 2
-1.1516544 -0.24998276 0.79929525 4.1666665
2.4604776 1.4638036 0.77443576 62
2.442276 1.5805113 0.79293728 59.5
2.4245281 1.7293744 0.85369265 60
2.4063625 1.8660482 0.81852466 55.333332
-1.4011518 -2.3346055 0.99463034 23
-2.5893257 -1.1545782 0.90782404 2
-1.5889586 -1.0912462 1.031391 10
-1.136844 -0.94255424 0.94239902 1
-1.3260905 -0.86882567 0.9091084 2
-0.54925126 -0.86082423 0.95775622 2.2
-0.3589983 -0.82887703 0.98159337 3.1666667
-0.23467331 -0.80503958 1.004819 3
-0.10123099 -0.77650589 0.9904542 3
2.3927221 1.9155829 0.95594001 51
2.1315715 3.7024102 0.93558556 40
-1.4033754 -2.3069434 1.1570146 39.5
-1.4282453 -2.181648 1.1548812 21
-1.4497309 -1.9745928 1.1491842 11.333333
-1.4752228 -1.8772085 1.1100117 17
-1.5328077 -1.474774 1.19754 17
-2.7188005 -1.1500854 1.0872225 25
-2.5936019 -1.14056 1.0574359 0
-1.5941315 -1.0669117 1.1084658 22
-0.61898512 -0.86317348 1.1100211 0
-0.55175316 -0.85346413 1.1037297 0
-0.39230251 -0.83266854 1.0971075 1.3333334
-0.20902579 -0.80049509 1.0913253 2.6666667
-0.14118415 -0.78806508 1.1124431 2.5
-3.3350399 1.0356556 1.1441804 88
2.156266 3.6253862 1.0738299 2
2.1205726 3.8184619 1.1635544 41.5
2.0974562 3.9901655 1.1758826 33
2.0739377 4.1434245 1.0938694 35
-1.4174726 -2.2140439 1.2691631 15
-1.4646297 -1.9094582 1.2656993 17
-1.5032084 -1.6832271 1.2310563 18
-1.5098965 -1.6344862 1.3212323 18
-3.1523144 -0.23229533 1.3329843 1
-3.303616 0.79674768 1.3101333 61
-3.2998126 0.82740623 1.280636 90
-3.3303683 1.0271277 1.3351575 98
-3.3398657 1.1006858 1.2772391 94
2.1783023 3.5472822 1.3437252 2
2.1573997 3.6327281 1.2782027 39
2.1268041 3.8441257 1.2145946 39
2.106024 3.9652474 1.2958481 33
2.0150795 4.7862582 1.3212912 54
-1.4735663 -1.850695 1.3579897 16
-1.5825226 -1.0736786 1.4777415 6
-1.5988642 -1.0367953 1.4312555 2
-3.3108823 0.88213426 1.3913256 86
-3.2984731 0.82138646 1.472427 89
-3.3112206 0.91469651 1.463727 85
-3.3500104 1.1531868 1.4249232 89
-0.096555024 3.8613203 1.4357165 60
2.0836585 4.0965757 1.373083 35
1.7350006 4.2451496 1.4816663 22
2.0630543 4.2269959 1.4579282 31.5
1.7090712 4.3729739 1.4766648 26
2.0503354 4.3605947 1.4201046 36
1.6914856 4.5115848 1.4607083 26
2.0502419 4.5252805 1.4061784 52
1.6770567 4.6792336 1.4578595 19
2.0354259 4.6513138 1.3624127 53
-1.4682599 -1.8873987 1.6057398 14
-1.5032436 -1.658699 1.5505053 16
-1.4994912 -1.6860981 1.6003706 14
-1.5169144 -1.5711408 1.576169 15
-1.5439098 -1.3759577 1.6243082 12
-2.5782969 -1.2100838 1.6045758 1
-1.5753171 -1.2124391 1.5654112 18
-1.5724444 -1.191543 1.6045979 0
-1.5963578 -1.0199429 1.6254812 0
-3.1991758 0.13312788 1.5880173 6
-3.2793674 0.69854742 1.5556465 80
-3.3103967 0.88891137 1.6148735 87
-3.3171813 0.95814675 1.5556145 87.333336
-3.3541451 1.1684265 1.6256799 87
-3.3639545 1.235984 1.5589504 86.333336
1.8784714 3.2673552 1.53978 2
1.8714982 3.3600516 1.5620519 34
0.50049049 3.5874369 1.6484443 47
1.8258193 3.5866394 1.644293 55
2.0628519 3.4793029 1.5851617 24
-0.27714708 3.7244995 1.6486422 56
0.97594887 3.6616764 1.6461567 50
1.8124642 3.7013452 1.6270772 58
2.0800505 3.6344092 1.5800004 47
-1.3146209 3.8128631 1.6431667 50.5
-0.99480027 3.8480167 1.6374856 51
-0.30976763 3.8687696 1.6403629 53
-0.22062173 3.8443894 1.6181688 72.5
-0.10080653 3.8663802 1.5665715 39.5
0.019570675 3.8642943 1.6136397 31.5
0.69297123 3.8883705 1.6373614 53
0.83009881 3.8437922 1.6392595 52.666668
1.048736 3.7716157 1.6432453 51
1.1801168 3.7879527 1.6424507 53
1.2672442 3.8892622 1.6359609 54
1.799859 3.8296471 1.6188356 62
2.0972562 3.788625 1.5614258 51
-1.2558413 3.9098701 1.6391577 23
-1.1214952 4.0238342 1.6389917 37
1.1224288 3.9015262 1.6382622 56
1.4262719 4.0146561 1.6316659 52.5
2.0953741 3.9242811 1.5327882 12
-2.8522329 4.0830626 1.6420287 53
-1.1280528 4.1115842 1.6337563 62
-0.77328449 4.0502567 1.6374456 37
1.1272196 4.1074619 1.6280037 51.666668
1.4606819 4.1219354 1.6276408 49
1.5965967 4.1252284 1.6226169 48
1.7451452 4.1284733 1.5301647 48
-3.1227059 4.3451171 1.6389235 56
-1.1529188 4.2459445 1.6249545 58.5
-0.81453657 4.2394738 1.6239134 58
1.0031682 4.2209067 1.6206628 47
1.5138967 4.2944984 1.6193843 52
1.7098961 4.216661 1.6182555 60
1.8961802 4.2305861 1.5467608 16
2.0198374 4.2961483 1.5378884 33
-4.1440411 4.4856315 1.6417943 39
-3.9350421 4.3994679 1.6393474 41
-3.1117954 4.4178886 1.6368275 46
-1.6336988 4.4346457 1.6238903 34
-1.0948496 4.3611822 1.6221367 59
-1.0113896 4.4449267 1.6186703 57
-0.85499603 4.4541087 1.6175464 57
-0.57575297 4.4450383 1.6175814 59
1.4391062 4.4224634 1.6070873 42
-4.3684082 4.5982504 1.6316887 4
-4.0892372 4.5788121 1.6420337 38
-3.7185485 4.6186781 1.6404117 33
-3.1660585 4.6020231 1.6309339 41
-0.93559688 4.5536695 1.6200339 60
1.3686248 4.5747046 1.5945935 46
-4.2641578 4.762116 1.6302754 4
-3.3513572 4.6807361 1.629301 33
-3.2103243 4.7449155 1.6249396 38
-1.7381272 4.6828084 1.6074586 11
-0.95505595 4.7309136 1.6008575 54
0.80701321 4.6690321 1.603579 3
-0.84568274 4.8925323 1.5912032 49.5
-1.4878527 4.9777203 1.6089181 58
-0.70128965 5.0150809 1.5866176 50
1.168927 5.0681615 1.5829203 48
-1.5609459 5.1942654 1.5574205 1
-0.6475594 5.1928353 1.5768348 4
1.2858695 5.2824144 1.5723172 36
1.5454952 5.3640962 1.505787 3
1.4165248 5.5072641 1.5630181 36
1.2829616 5.6189375 1.5559579 36
-1.3908772 -2.3131428 1.7743964 23
-1.4172472 -2.1885002 1.6938053 20
-1.428306 -1.9747456 1.6726228 3
-1.4681878 -1.8723674 1.6873369 13.666667
-1.4850781 -1.7523123 1.6513709 14
-1.5096647 -1.6076692 1.6900291 16.333334
-1.545595 -1.402501 1.715185 19
-1.5745418 -1.2053221 1.6693486 19
-3.0054133 -1.0906198 1.6786934 3
-1.5706338 -1.196986 1.7783555 18
-0.74808985 -0.8278172 1.787639 0
-3.1700125 0.019493617 1.6920534 89
-3.2013173 0.21426913 1.7025732 66.25
-2.5518007 0.22322643 1.7807983 125
-0.96496415 0.56112581 1.7981501 76
-0.7954666 0.54417193 1.797264 79
-0.70329541 0.54896522 1.7950932 74
-0.5042721 0.55415392 1.7971702 81.5
-3.2600484 0.71952659 1.7357812 86.75
-2.5880821 0.69470131 1.7965649 81
-2.4922404 0.68980277 1.7965536 76
-2.0282021 0.73544681 1.7972435 90
-1.9135764 0.73261642 1.7957374 84
-1.1332704 0.65066034 1.7935979 73.5
-0.97451144 0.68244916 1.7955999 71
-0.81178427 0.66280794 1.7925378 73.75
-0.66709059 0.67257595 1.7900279 74.625
-0.52642828 0.68363082 1.7891308 80.571426
-3.2590499 0.79852974 1.7655878 88.5
-3.1088388 0.79869527 1.7973839 86
-2.7110701 0.88462484 1.7896377 79
-2.5980794 0.89819783 1.7948519 76
-2.4819651 0.84214854 1.790318 74.5
-2.3550446 0.77957773 1.7970263 77
-2.1131821 0.88351649 1.7925938 75
-2.022794 0.83827162 1.7932673 81.333336
-1.8852034 0.80852783 1.795768 81.5
-1.5500354 0.81838852 1.7955235 90
-1.446319 0.8546688 1.7948157 84
-1.2117612 0.86313778 1.7901551 96
-1.1311492 0.8432011 1.7892804 91.25
-0.98876619 0.82320619 1.7860284 70.833336
-0.80761051 0.8067655 1.7854309 73.285713
-0.68106252 0.84408075 1.7833866 73.199997
-0.50320947 0.81994295 1.7853453 76
-0.42395723 0.89160532 1.7792515 75
-3.3221226 0.98263139 1.7269197 86
-3.2145534 1.0155132 1.7855238 81
-3.0273945 1.0305376 1.7904184 83.5
-2.8803525 1.037221 1.7911001 81
-2.6308832 0.92408597 1.7897297 72.5
-2.4563756 0.99466884 1.7869743 82
-2.339143 0.97703165 1.7881647 84
-1.9884952 0.97943765 1.7858329 76.666664
-1.8641793 0.98228878 1.7894182 76.5
-1.561253 0.95061159 1.7902826 84
-1.4296541 0.98248076 1.7907678 86.75
-1.3227323 1.0449857 1.787448 82
-1.1119056 1.0162919 1.790087 39.25
-0.96968955 0.96111447 1.7805024 60.5
-0.81418902 0.97763765 1.7751067 50.25
-0.65365905 0.98270363 1.7744778 53.57143
-0.53411561 0.9655056 1.7763187 65.833336
-0.40402064 0.98787016 1.7750517 58.666668
-3.3333187 1.0831568 1.7553407 89
-3.2405074 1.0804598 1.787484 72
-3.121067 1.0562669 1.7865397 78
-2.7035046 1.1317989 1.7791165 76
-2.6067009 1.1519614 1.7793971 73
-2.484798 1.1281409 1.7838149 85
-2.3177936 1.1795582 1.7767447 73
-2.0441577 1.1011077 1.7804031 75.666664
-1.9097863 1.1423649 1.7809954 75
-1.7857577 1.1719433 1.779847 87
-1.5531898 1.1112394 1.782092 89.5
-1.4201927 1.1248749 1.7826052 84.5
-1.2894708 1.1914105 1.7855996 75
-1.1058483 1.1724812 1.7754614 80
-0.98216677 1.1305138 1.7823101 57
-0.83949763 1.1301039 1.7829814 45
-0.66304743 1.1149964 1.7754524 34
-0.52764952 1.1266427 1.7752227 30.125
-0.36702815 1.1342992 1.7742625 28.25
-3.3599856 1.2583886 1.7575525 80
-3.214632 1.2914176 1.7741169 73
-3.0621998 1.2984723 1.7747341 80.666664
-2.8712258 1.2764239 1.780986 85
-2.4818456 1.2924467 1.7718247 81
-2.0026131 1.2898874 1.768522 76.75
-1.8687644 1.3166909 1.7705462 75.5
-1.7519606 1.3470553 1.7713257 76
-1.5304607 1.2940524 1.7725681 86
-1.42786 1.2663698 1.7733333 84.599998
-1.2959073 1.3320583 1.7761954 78.5
-1.0834018 1.3203676 1.7748779 76
-0.98329222 1.3038653 1.7711973 76.5
-0.84434438 1.2712317 1.7732403 75.25
-0.66247201 1.2671881 1.7729646 75.333336
-0.51790184 1.2842078 1.7716066 76.875
-0.3581388 1.2779359 1.7695576 64
-0.26884413 1.2811675 1.7730998 72
-3.5281088 1.3624232 1.7939283 17
-3.377147 1.3970596 1.7754265 78
-3.2393081 1.3612151 1.7718769 76
-2.6320066 1.3937103 1.7647271 74.666664
-2.4841566 1.3899217 1.7665049 78.5
-2.2966628 1.3913403 1.7707278 83
-1.9275398 1.40935 1.7621771 76.5
-1.428726 1.45258 1.7624925 78.25
-1.325222 1.453886 1.7644091 82.666664
-1.1991162 1.4875455 1.7676736 78
-0.9675529 1.454103 1.7628851 73.25
-0.85897857 1.4281341 1.7678695 71
-0.69822621 1.4279163 1.7666627 71.5
-0.5143314 1.4300596 1.7650032 72.25
-0.39465985 1.4333125 1.7626127 70.400002
-0.23192398 1.4332843 1.7642899 68.333336
-3.8678493 1.6169106 1.7718312 79
-3.6113527 1.5704042 1.7733384 82
-3.4038577 1.5720694 1.7715352 81
-3.2128713 1.5793653 1.7619683 76
-3.0681369 1.5735437 1.7629404 78.666664
-2.8521354 1.5226612 1.764222 82
-2.5041423 1.5817248 1.7558992 73.25
-2.3310246 1.6165173 1.758855 56.5
-2.0032656 1.5188308 1.7562072 76
-1.8662362 1.5353576 1.7552036 73.75
-1.7080554 1.5242189 1.7563564 78
-1.3611504 1.5648158 1.7566007 83
-1.2937602 1.5732913 1.7591957 76
-1.1445346 1.6413389 1.7566639 69
-0.92959845 1.6311643 1.750522 70.5
-0.83221543 1.5761631 1.7570715 67
-0.646029 1.5496104 1.7589701 70.5
-0.52244323 1.5988412 1.7531737 70.333336
-0.37610963 1.558471 1.7555821 71.714287
-0.23563568 1.5971024 1.7556944 70.599998
-0.11021213 1.5927603 1.757122 68.5
-4.1724048 1.6711169 1.7725817 71
-3.9781806 1.7510176 1.7616848 67.666664
-3.8005631 1.717677 1.7682401 76
-3.7242384 1.6956422 1.7671878 75
-3.54022 1.6594913 1.7683946 74
-3.3680251 1.7050127 1.7594579 73
-3.2502794 1.6619917 1.7651817 76
-2.8361902 1.7840182 1.7519785 84
-2.6400781 1.6698644 1.7512653 75.5
-2.4449241 1.7540171 1.7537791 53
-1.9812049 1.7565938 1.7472745 72
-1.8860029 1.7172339 1.7487078 75.5
-1.7180817 1.7250087 1.7514658 75.5
-1.404011 1.6626878 1.756456 77
-1.2809731 1.7001333 1.7522424 73.199997
-0.8040207 1.7475797 1.7453117 65.666664
-0.6657517 1.7136338 1.749004 69
-0.50098062 1.7141926 1.7464163 69.5
-0.38718951 1.716163 1.7468716 68.833336
-0.23478298 1.7319187 1.7458111 71.400002
-0.080458567 1.7227427 1.7468948 70.571426
-4.6597471 1.8838947 1.7585644 62.5
-4.3173265 1.8184263 1.7649124 68
-4.1369848 1.8015298 1.770455 61
-3.6236258 1.8938861 1.7595185 83
-3.4087372 1.8867924 1.758283 75
-3.2170243 1.8894107 1.7556192 78
-3.0715885 1.864305 1.7495503 77.666664
-2.6350429 1.9324158 1.7363628 77
-2.5038424 1.8750936 1.7464418 58.333332
-2.3760989 1.8810306 1.7603999 55
-2.2459903 1.8494203 1.7629815 51
-1.8527635 1.8512216 1.7426391 74
-1.715775 1.9429499 1.7400464 76
-1.6122906 1.9136121 1.7413918 72
-1.3507625 1.8662831 1.740209 66
-1.2611624 1.8749832 1.743615 69.5
-1.1289418 1.8180561 1.7523592 68
-0.75064427 1.851877 1.7361256 69
-0.67273092 1.8915203 1.7375637 65.25
-0.5521245 1.8310286 1.741804 66
-0.34417817 1.8739227 1.7350354 70
-0.21115637 1.8499813 1.7382834 68
-0.072105944 1.8869464 1.7385114 69.400002
0.053486705 1.860378 1.7378558 69.5
0.17372926 1.9340761 1.7370552 66
-4.2011328 2.0531189 1.7572857 68
-3.8268464 2.0176899 1.7541043 72.666664
-3.7411273 2.0450263 1.7480854 67
-3.569205 1.9844781 1.7518512 76
-3.3634903 2.0360098 1.7475659 67
-3.2465661 1.974843 1.7499713 69
-2.8176501 2.0604181 1.7383362 80
-2.577872 1.9586545 1.7357737 76
-2.4427166 2.0566597 1.7331617 69.5
-2.191735 2.0763943 1.7365035 64
-1.876877 1.9834452 1.7384892 72.333336
-1.7968986 1.997849 1.7357911 76
-1.2541142 2.0571823 1.7345024 65
-1.1581521 2.0206432 1.7389261 61.25
-1.0130563 1.9700904 1.7404183 64
-0.7651943 1.9581647 1.7378622 61
-0.64088488 2.015729 1.7326803 58
-0.53466159 2.0311861 1.7358421 57
-0.21695554 2.0069802 1.7331634 62.666668
-0.052493833 1.9999216 1.7337422 64
0.0806242 2.0162616 1.7299109 65.14286
0.2091372 2.0623441 1.7256092 66.199997
-4.3637357 2.2212775 1.7470604 67
-4.3476243 2.203053 1.74904 74
-4.1129503 2.157805 1.7468086 59.5
-3.9804628 2.1090622 1.7499832 70.5
-3.6325915 2.2384079 1.7435695 83
-3.3898916 2.1486206 1.749107 82
-3.1778359 2.2241864 1.7363694 67.5
-3.037828 2.1502995 1.7396425 74.5
-2.600565 2.2304003 1.7221812 59
-2.4729943 2.1754091 1.7268387 68.5
-2.3212364 2.1249263 1.7312416 79
-1.8125812 2.1773973 1.7283632 67.5
-1.7186536 2.191726 1.7282634 71
-1.5563945 2.1257508 1.736528 73
-1.1246467 2.2006576 1.7243755 60.75
-0.97411752 2.1688912 1.7293772 58
-0.66447389 2.1229281 1.726128 59.5
-0.54363537 2.1828094 1.7232777 55.75
-0.40640193 2.1533709 1.7291712 54.5
-0.091618791 2.1586888 1.7225534 64.14286
0.036979865 2.2040212 1.7212889 60.5
0.23482597 2.1544638 1.7251924 46.75
0.34712702 2.2063065 1.7263892 44
-4.7013369 2.3089788 1.739552 85.5
-3.912811 2.3484483 1.7459751 72
-3.7984827 2.3953319 1.7440597 71
-3.612046 2.3443029 1.7397131 65
-3.3883207 2.3398292 1.73347 66
-3.2411637 2.3097215 1.733802 65
-2.8059199 2.3670049 1.7328979 82
-2.4623911 2.3194411 1.7232186 72
-2.2743201 2.3993347 1.7179478 75
-2.1468019 2.3338203 1.725571 76
-1.8637938 2.2566519 1.7264146 73
-1.7427542 2.3425841 1.7207845 66
-1.4859785 2.3430383 1.7247063 60
-1.1087977 2.3096914 1.7218069 58.666668
-0.91982466 2.3966188 1.7243582 59
-0.84516984 2.3229814 1.718567 56
-0.51444834 2.3081441 1.716536 58.5
-0.36997688 2.3679872 1.7154639 54
-0.27522722 2.2678123 1.7188946 58
0.047618292 2.3251679 1.7144114 65.199997
0.17612906 2.3093474 1.7280951 43
0.35919544 2.2863114 1.7174256 44.400002
0.51241362 2.3580236 1.7357533 33.599998
-4.2278123 2.4630532 1.7378758 55
-4.0982924 2.5188653 1.7304763 66.5
-3.9508252 2.5035889 1.7329634 62
-3.8304148 2.432996 1.7354144 66
-3.38973 2.4892352 1.7288774 49
-3.0806627 2.5073729 1.7224456 64
-2.9896462 2.4570713 1.7258559 68
-2.433629 2.4784598 1.7153904 66.5
-1.726222 2.4845083 1.7147622 69.75
-1.5828925 2.4056396 1.7228464 66
-1.0687543 2.5166621 1.7117099 56
-1.0135767 2.4576108 1.717159 58.75
-0.74674433 2.5260313 1.7179121 58
-0.3977387 2.4643862 1.7149138 55.75
-0.17582174 2.4750361 1.7155502 60
0.19109401 2.4719477 1.7057606 62.200001
0.36035204 2.4742362 1.703774 54.333332
0.51612574 2.4233911 1.737352 32.333332
0.66705292 2.4825058 1.7130502 38.75
0.77291971 2.5364938 1.6976146 48
-4.388669 2.6332912 1.7239116 66.5
-4.1615567 2.5931838 1.7293693 63
-3.6473112 2.6158195 1.7280487 71
-3.4174967 2.6725202 1.7152439 65
-3.1918385 2.6069708 1.7180172 62.666668
-2.7773066 2.686595 1.7166117 68
-2.566869 2.5607123 1.7145692 75
-2.4949052 2.5692346 1.7130276 56
-2.3864391 2.6216145 1.7081109 60
-2.2216871 2.6990588 1.7064716 46
-2.0942535 2.6105807 1.7156752 78
-1.6701275 2.6119318 1.7064313 70
-1.4510033 2.6115406 1.7094357 63.5
-0.93797022 2.6414711 1.7062825 61
-0.84086406 2.6423879 1.7108967 56
-0.31963956 2.5915022 1.7062964 56.5
-0.25742295 2.6377773 1.7039244 55.5
-0.039442424 2.644887 1.7066307 60.5
0.35031024 2.6230478 1.6981134 56.799999
0.48064318 2.6090882 1.6999955 55
0.60606837 2.6345067 1.6991619 63
0.84707326 2.6070209 1.6940979 52.799999
0.98165804 2.6601045 1.6927451 52.666668
-4.7524333 2.7728262 1.7196269 55.5
-3.9238944 2.7506974 1.7232028 64
-3.8142154 2.8079925 1.7156928 64.5
-3.649065 2.7340333 1.7200435 64
-3.3315737 2.7622609 1.7135171 62
-2.9628608 2.801532 1.7068008 65
-2.4083381 2.769177 1.7066616 66.5
-2.363982 2.8065479 1.7076007 71
-1.6726638 2.7836821 1.6965289 70
-1.6071864 2.7388444 1.6982828 67.5
-1.3127699 2.8177073 1.6967582 68
-0.94476688 2.7594473 1.7052103 57
-0.85791206 2.7849135 1.6959429 61
-0.65786761 2.7700236 1.700626 59.5
-0.16844504 2.7880945 1.692983 58.333332
-0.065848753 2.7750585 1.6961955 53
0.11590408 2.7682028 1.6981293 61
0.50684643 2.7613039 1.6885345 59
0.64029235 2.7681496 1.6870965 55.666668
0.80384725 2.8088741 1.6821721 57.5
1.0408225 2.8005438 1.6857165 52
1.1290276 2.7568936 1.6881706 47.75
1.2514073 2.8083062 1.6862887 45
1.3829377 2.84464 1.6870166 47
-4.2438993 2.8989503 1.7091581 55
-4.1356783 2.9493909 1.7058198 67.5
-3.9510846 2.892045 1.7130212 64.5
-3.4064023 2.8778698 1.7197686 61
-3.1660802 2.9351151 1.7009004 65
-3.1200933 2.9275308 1.6998175 58.5
-2.4771409 2.9098241 1.6992542 63
-2.3586428 2.9731452 1.6958352 63
-2.0343571 2.9146619 1.7064475 81
-1.5835345 2.9000044 1.6890812 68.5
-1.3963917 2.9094992 1.6881207 61
-0.78817558 2.9553216 1.6854941 66
-0.73617607 2.9059119 1.6917695 61
-0.50068212 2.9397264 1.6899182 64
-0.076492235 2.89767 1.6892009 56.333332
0.11044133 2.9122715 1.6883411 58.5
0.27832431 2.945365 1.6848689 58
0.70289308 2.9187043 1.6797708 56.5
0.84993142 2.9589436 1.679377 53
0.98151535 2.9712296 1.6755883 53
1.2950293 2.9425011 1.6804074 46.5
1.4370189 2.9033003 1.6881255 46.75
1.5959841 2.9726219 1.6860436 43.666668
1.6764619 2.9449248 1.6894948 26.5
-4.4495039 3.1115754 1.7082058 57
-4.1746373 3.038399 1.7049602 58
-3.656127 3.0232198 1.7070695 64
-3.4125752 3.0946074 1.6996695 63
-3.2214661 3.071631 1.6972934 57
-2.7446325 3.0363197 1.6978143 68
-2.3549447 3.0730813 1.6889712 62
-2.1633663 3.0311971 1.6987141 73
-1.559764 3.0790689 1.6808844 61.333332
-1.4847296 3.0175235 1.6871828 58
-1.2062901 3.0863969 1.6847063 63
-0.69636834 3.0743537 1.6770591 63
-0.54237586 3.0451024 1.6846446 58
0.067405164 3.0733995 1.6786349 46.599998
0.29086316 3.049808 1.679814 56
0.4629252 3.1355245 1.673309 54
1.0264477 3.1367743 1.6773185 54
1.1227561 3.1062202 1.6777283 52.333332
1.2401273 3.1227107 1.6750815 51.5
1.5483021 3.0940461 1.6766157 47
1.7450473 3.1246095 1.6686655 49
1.8348314 3.0853679 1.6753101 2.5
-4.8356032 3.2917597 1.6991876 50
-4.7900858 3.2799692 1.6955045 48
-3.936662 3.1918464 1.6979743 63
-3.8514066 3.2576718 1.6943377 63
-3.6905491 3.1695802 1.6972109 60
-3.3646626 3.2399521 1.6995169 64
-2.9320369 3.1832035 1.6871454 68
-2.4465418 3.2873619 1.680842 64
-2.3388035 3.1984112 1.6843964 62.666668
-1.9569343 3.2339153 1.6876513 65
-1.5025226 3.1700778 1.6759368 57
-1.4682264 3.2800231 1.6805571 61
-1.2839781 3.1993542 1.6744312 60
-0.64925313 3.2096164 1.6740128 65
-0.59134549 3.2148623 1.6731147 63
-0.36678374 3.2300482 1.6743209 63.5
0.20037062 3.1926591 1.6688582 58
0.30870715 3.2094588 1.672611 54
0.49188262 3.2405148 1.666231 52
0.94384885 3.1704061 1.668662 50.5
1.2956531 3.2718382 1.6704857 49
1.4135739 3.2371604 1.6698507 51
1.5301442 3.2829623 1.6582474 48
1.8175141 3.2270875 1.6602703 50
-4.2908225 3.4044979 1.6918973 52
-4.1545439 3.4114039 1.6883177 60
-3.9947133 3.36305 1.6908162 60.5
-3.1508188 3.4079845 1.6782554 62
-3.1278024 3.3359702 1.6871897 62.5
-2.7136793 3.4332826 1.6841623 62
-2.3169465 3.3577693 1.6757728 61
-2.0858171 3.3846149 1.6822792 4
-1.4160758 3.3781669 1.6713673 56.333332
-1.085706 3.384743 1.6747524 67
-0.50528574 3.3976417 1.6661564 62
-0.40647069 3.4222248 1.6703342 62
-0.18297465 3.427619 1.6697465 66
0.23709095 3.3182571 1.661912 49.5
0.37506223 3.3844495 1.6647582 56
0.52625871 3.3561873 1.6679596 53
0.67481303 3.3471379 1.6678268 60
1.1829773 3.410512 1.6648189 50
1.2254668 3.3461781 1.6616791 46
1.5802393 3.3827553 1.6642598 50
1.7194458 3.3936477 1.6569477 53.5
1.8152411 3.4289696 1.650318 53
-4.2216334 3.5115387 1.6851908 58
-3.6528575 3.4635823 1.6754411 40
-3.3793223 3.5358491 1.6670579 39
-3.2009358 3.508713 1.6737775 57
-2.3044064 3.4731343 1.6756731 4
-1.4240122 3.4948249 1.6638447 56
-1.1533669 3.520057 1.6637472 61
-0.50511014 3.5221534 1.6613725 57
-0.43389672 3.5701365 1.6574866 58
-0.19445941 3.558965 1.6602672 60
0.42853194 3.5851028 1.6522771 48
0.56193841 3.5393004 1.6593355 49.5
0.72075719 3.4517367 1.6596316 52
0.77373677 3.5629189 1.6572279 49
0.90973681 3.5572579 1.6539985 51
1.5086112 3.5335243 1.6514477 51
1.8472159 3.4827981 1.6519531 63
-4.5230322 3.6581879 1.684146 44
-4.4919734 3.6210947 1.6842643 49
-3.9466841 3.7279096 1.6818249 54.5
-3.7381959 3.6629429 1.6721267 44
-3.2805235 3.6308167 1.6711947 24
-2.894042 3.6030102 1.6641454 43
-1.2845341 3.6714056 1.6557275 57
-0.94049543 3.6944356 1.6533688 61
-0.3509624 3.6510828 1.6525697 58
-0.20369697 3.695492 1.6525525 55
0.012076658 3.6916277 1.6527206 61
0.64156359 3.6138 1.653592 54
0.82551628 3.6971145 1.6549619 56
1.4782854 3.6292777 1.650102 52
-4.8799734 3.8616509 1.6701528 37
-4.061512 3.8612814 1.6707307 56
-3.8849778 3.8021793 1.66758 55
-3.4150629 3.7648695 1.6737844 55
-3.1193922 3.8292618 1.6565341 54
-4.28755 3.9949102 1.6646332 44.666668
-4.0458665 3.9532759 1.6688067 51
-3.687669 4.0027242 1.662752 58
-3.1817803 4.010819 1.650267 54
-4.2367988 4.1142893 1.6616894 45
-3.3738432 4.0751953 1.6532058 58
-3.2511406 4.1522965 1.6510032 59
-4.5853672 4.2512074 1.6590205 38.5
-3.9928293 4.3107944 1.6566693 44.5
-3.8085127 4.2509646 1.6510292 47
-3.4329386 4.3192458 1.6529945 51
-3.5333605 -2.1818709 1.9484328 55
-1.4244618 -2.1477709 1.8579984 3
-3.6801291 -2.0569148 1.9451129 54.5
-3.5653799 -2.0082862 1.9459845 53
-3.4474201 -2.0387301 1.9379522 62
-3.2602696 -2.0607727 1.9388117 55
-3.7229834 -1.9465525 1.9379643 52
-3.5342894 -1.8392144 1.9302021 3
-3.3531938 -1.9369481 1.9331244 55
-3.2324095 -1.8082533 1.9277154 58.5
-3.0807366 -1.8740494 1.929332 55.5
-1.4697629 -1.8528377 1.8298968 14
-3.2853193 -1.7296776 1.9208757 4
-2.9102638 -1.7113823 1.9135408 56
-1.1490593 -1.738535 1.8976015 52.666668
-3.1039467 -1.573014 1.9116896 28.5
-2.8712831 -1.5025651 1.8993531 59
-1.4951401 -1.5793062 1.8586186 6
-1.2505612 -1.5755075 1.8948761 68
-1.172161 -1.5416088 1.8942013 71.333336
-2.7309353 -1.492043 1.9019386 64
-2.5556648 -1.4386938 1.8955384 57
-2.5367823 -1.4568259 1.8943883 55
-2.3562503 -1.3818213 1.8945742 36
-1.5373433 -1.3831955 1.8198594 15
-1.3500661 -1.3856536 1.8893121 83
-1.2669621 -1.3948747 1.8891628 71.25
-1.0603672 -1.3564726 1.8932971 24
-2.5658314 -1.2033657 1.8723012 1
-2.4582434 -1.3020074 1.8898011 54
-2.3334844 -1.2246789 1.8907739 62
-1.4031307 -1.227062 1.8834945 75.5
-1.2907569 -1.2502201 1.8845311 72.75
-1.1532928 -1.2414796 1.8815055 78
-0.93718576 -1.2348462 1.8832165 84
-0.87810737 -1.2157882 1.8779765 11
-0.5584811 -1.219898 1.8937334 14.5
-0.36431426 -1.2204149 1.8977751 15
-0.29998863 -1.2412933 1.9243532 13
-2.5081108 -1.1225796 1.8570504 5
-2.3465121 -1.188318 1.8918022 5
-1.4273641 -1.0614176 1.8787458 69.5
-1.3037827 -1.1042526 1.88046 74
-1.1732486 -1.0708488 1.8775836 81
-0.97344768 -1.0908911 1.8844762 63
-0.88673991 -1.0675702 1.8829294 83
-0.64787769 -1.1253412 1.881021 12.333333
-0.50562775 -1.1301682 1.8841664 13
-0.37155566 -1.0954213 1.8784554 11.2
-0.22815402 -1.148301 1.8826382 12.4
-0.12288404 -1.1018044 1.8717937 13
-2.3291724 -0.96938848 1.8748407 61.333332
-1.865037 -0.9609558 1.8767488 53.5
-1.7267953 -0.92030722 1.8713075 72
-1.411561 -0.989492 1.8787996 22
-1.3342603 -0.9011125 1.8703436 30
-1.0644361 -0.95821702 1.8829454 2
-0.96816087 -0.94479764 1.8862095 2.5
-0.86209786 -0.97016299 1.8797562 63
-0.65983921 -0.96222878 1.8709414 9
-0.51503885 -0.98586035 1.866115 10.5
-0.37678212 -0.96525544 1.8641075 8
-0.23399782 -0.98256767 1.8710616 6.8888888
-0.11370368 -0.94698066 1.8716385 6.5
-2.4007645 -0.7966131 1.8658184 63
-2.3707869 -0.76352274 1.8673326 71
-2.0233817 -0.87876076 1.8718019 67
-1.8752302 -0.8118059 1.8691465 62.666668
-1.7645866 -0.7562983 1.8641032 73
-1.5096104 -0.886953 1.8746486 68.5
-1.4148669 -0.81396425 1.8718688 71.5
-1.3062668 -0.81099993 1.869995 75.5
-1.1134305 -0.81735939 1.8722955 88
-0.98343915 -0.8002553 1.8729423 94
-0.84032142 -0.78787136 1.866796 84.5
-0.65989387 -0.81557691 1.8507898 22.75
-0.52553451 -0.81112605 1.8528788 21.9
-0.37788868 -0.81412649 1.8603532 11.857142
-0.25679147 -0.81875485 1.8436006 7.3333335
-2.3043361 -0.73920453 1.8718139 9
-1.5518773 -0.72009957 1.8703483 70.5
-1.4360332 -0.66398019 1.8678672 73
-1.306134 -0.66242868 1.8680409 79
-1.1199441 -0.67916811 1.8654399 94
-0.97789079 -0.68551493 1.8608291 78.5
-0.80574852 -0.65115672 1.8601805 78.833336
-0.67413318 -0.68614703 1.859802 82.714287
-0.54188383 -0.6804179 1.8577404 76.800003
-0.39094013 -0.67285776 1.8568357 63
-0.26157475 -0.69555014 1.8520162 37.5
-1.5614752 -0.56197566 1.8607641 67
-1.4506358 -0.49736413 1.8615904 72.25
-1.3404434 -0.52715427 1.8626252 75
-1.1169956 -0.53587472 1.8559271 80.5
-0.97659922 -0.53734446 1.8552668 77
-0.82991314 -0.52465844 1.8511887 80.75
-0.67717254 -0.51500398 1.8492906 81.099998
-0.53142583 -0.53264511 1.8471669 77.777779
-0.38739952 -0.5307709 1.8467 72.800003
-2.4540267 -0.38601634 1.8482677 72
-2.3689995 -0.36096209 1.847874 73.5
-1.5711107 -0.39635506 1.8540169 74.5
-1.4333153 -0.35171297 1.8550686 87
-1.2219685 -0.4011274 1.8451301 78
-1.1094915 -0.36787972 1.84671 79
-0.98244447 -0.38300958 1.8463539 75.833336
-0.81228906 -0.38314444 1.8434123 78
-0.6823917 -0.37353048 1.8422621 78.333336
-0.52631515 -0.37099609 1.8431689 80
-0.39881009 -0.3764011 1.8412347 72
-2.57546 -0.18624219 1.8369564 64.5
-2.4763055 -0.23093805 1.8416126 67
-2.3813274 -0.16890559 1.8377353 75.5
-2.1054292 -0.29016438 1.8420819 79
-1.9955029 -0.21529511 1.8404764 75
-1.8564899 -0.27135706 1.8471769 68
-1.5741138 -0.22180228 1.8476665 85.599998
-1.4323539 -0.22659199 1.8484955 88.666664
-1.2450832 -0.26318121 1.8362473 81
-1.1375333 -0.20280871 1.8362347 77.199997
-0.96832705 -0.22263141 1.8360313 75.166664
-0.82171929 -0.23760803 1.8374869 77.333336
-0.67784941 -0.21360826 1.8356489 76.300003
-0.5268324 -0.23988168 1.8372835 75.333336
-0.43641931 -0.25798452 1.8370258 74
-3.1682582 -0.015470696 1.8108188 85
-2.7021992 -0.046466738 1.8364295 74
-2.6932395 -0.0055406718 1.8340949 71
-2.4848397 -0.076389834 1.83539 75
-2.1142039 -0.095822074 1.8348355 77.5
-1.9803263 -0.09026181 1.8368368 82
-1.8869075 -0.12416738 1.8434197 71
-1.6536875 -0.062810212 1.8390185 95
-1.5680585 -0.066166274 1.838043 87.25
-1.4452232 -0.087051205 1.8411587 93.333336
-1.2629783 -0.12589824 1.8300554 81
-1.1469527 -0.054415122 1.8307451 82.25
-0.96902925 -0.078900389 1.8290647 77
-0.81707263 -0.072770886 1.829577 78.666664
-0.67203844 -0.06762711 1.8299488 77.625
-0.51418018 -0.083570972 1.8279641 74.400002
-3.1710088 0.033855531 1.807048 89
-3.0597067 0.064293556 1.8347504 80.5
-2.9191151 0.11571129 1.8340985 80
-2.5864568 0.027930859 1.8282446 70
-2.4895315 0.072222382 1.8283241 57.5
-2.3925745 0.020949222 1.830557 76.5
-2.1225975 0.095347688 1.8263812 78.5
-2.002985 0.063827187 1.8292346 80
-1.8937347 0.038079724 1.834435 77.5
-1.6606936 0.098760106 1.829336 91
-1.5735347 0.086792022 1.8302537 87.25
-1.4533634 0.051959705 1.8320783 91
-1.2768053 0.080538824 1.8208587 84.5
-1.1573578 0.072114289 1.8246406 81.75
-0.98546654 0.067121588 1.8227146 78.375
-0.81233895 0.080260836 1.823122 76.14286
-0.68990946 0.073848963 1.8314013 68.090912
-0.5158723 0.0917693 1.8184609 73.25
-3.1976528 0.26082984 1.8117725 92
-3.0493894 0.29617175 1.8224422 84
-2.706203 0.18003896 1.8203856 67
-2.6414485 0.2409851 1.8167633 59
-2.4588587 0.22207767 1.8198522 74.5
-2.381953 0.20482792 1.8212262 82
-2.1226149 0.28863239 1.8143687 84
-2.0058703 0.24137689 1.8196015 80.5
-1.89941 0.20096877 1.8282555 77.5
-1.6629025 0.26170778 1.8236603 83
-1.5607935 0.23259826 1.824942 86.599998
-1.4387411 0.22560471 1.8263335 92.333336
-1.2288022 0.24116588 1.8182875 79.666664
-1.0989178 0.2097175 1.8157007 82
-0.97347605 0.22088864 1.8157551 78.5
-0.83410406 0.22816989 1.8158152 79
-0.68906683 0.22546026 1.8151491 78.125
-0.52514517 0.23921008 1.8130223 84
-3.0862534 0.30668479 1.8237714 77
-2.9251454 0.33888808 1.8219324 78.5
-2.713335 0.41073796 1.8107089 63
-2.5995877 0.44735977 1.8130013 72
-2.475188 0.39195606 1.8131069 79
-2.3748701 0.39392915 1.8113657 77
-1.9944111 0.40775192 1.8135548 77.666664
-1.8973272 0.36534244 1.8165784 76.5
-1.6602514 0.42785433 1.8182572 78
-1.5572662 0.38709116 1.8195289 83.800003
-1.4393094 0.4003697 1.8235269 85.5
-1.2393579 0.38443118 1.8096899 76
-1.1217922 0.37008154 1.8102475 77.5
-0.97478008 0.38374802 1.8067399 74.833336
-0.81993002 0.38308135 1.807469 78
-0.68409598 0.37648538 1.8071655 77
-0.5195837 0.35778788 1.8084611 77.333336
-3.0753059 0.54214627 1.812575 78
-2.9350424 0.56511497 1.8131104 77.5
-2.6429565 0.46489745 1.8081523 67
-2.4836755 0.5304876 1.80979 76
-2.3671293 0.58519155 1.8044769 77
-2.1181808 0.48313302 1.8048016 91.5
-2.0405917 0.5041104 1.8096269 87.5
-1.8925126 0.53133535 1.8073212 85
-1.5793803 0.54864275 1.8105005 85.800003
-1.4495314 0.54835701 1.81309 81.666664
-1.2617787 0.57339013 1.8065072 94
-1.1304018 0.51815283 1.8023771 75
-1.0033469 0.47957501 1.8063519 75.5
-0.84085029 0.48354635 1.8043823 73.666664
-0.65480542 0.50866359 1.8026413 76.25
-0.51439369 0.46726951 1.8030872 76.5
-2.7193496 0.64565063 1.8047589 77
-2.6464167 0.67917669 1.803066 75
-2.4378285 0.61681873 1.8016342 77
-2.1286952 0.68095374 1.803476 74
-2.0353107 0.64649779 1.8025717 84.333336
-1.9029639 0.63781977 1.8052419 84
-1.549427 0.68368644 1.8038241 82.5
-1.4494272 0.68360829 1.8065668 86.25
-1.2423738 0.7193082 1.8035265 98
-0.99847579 0.60858727 1.8037206 73
-3.0484304 0.77702075 1.8010508 86
-2.9402673 0.79687798 1.802297 81
-1.6305312 0.76475739 1.8013157 87
-1.380777 0.76615655 1.8048929 81
-1.1469234 0.76305437 1.8020886 92
-1.9220872 0.92289007 1.8057183 29
-4.5389781 -3.0025959 1.9945124 50
-4.5083294 -2.9966927 1.9938253 39
-4.1648836 -2.617023 1.9791316 30.5
-4.5159392 -2.526485 1.9659539 51
-4.4924154 -2.5277686 1.9672583 43
-3.9627066 -2.3431294 1.9591087 58
-3.8597727 -2.3019853 1.9635499 61
-3.713568 -2.3109207 1.958841 57
-4.1579742 -2.2052159 1.957568 60
-4.0253286 -2.2288504 1.9535364 62
-1.158932 -1.4889828 1.984296 28
