# .PCD v0.7 - Point Cloud Data file format
VERSION 0.7
FIELDS x y z intensity
SIZE 4 4 4 4
TYPE F F F F
COUNT 1 1 1 1
WIDTH 71
HEIGHT 1
VIEWPOINT 0 0 0 1 0 0 0
POINTS 71
DATA ascii
0.67760217 2.7309155 -0.96713048 8
0.83684176 2.9916031 -0.97838944 7
0.90649492 2.9879005 -0.980223 7
0.87954146 3.1570675 -0.98458993 5
0.95001084 3.4660921 -0.99970227 12
2.1950812 -0.51277262 -0.78188324 4
2.3182428 -0.47464404 -0.79333526 5
2.4243608 0.18908888 -0.8499192 6.5
2.3936894 0.33704051 -0.80471247 15
2.3740609 0.47585732 -0.78390789 35.5
2.1971173 1.0095425 -0.82659245 16
2.3026776 0.95401406 -0.79333019 47
1.8352175 1.2550312 -0.76331109 94
1.8071374 -0.55659312 -0.63618255 8
2.2051992 -0.49400085 -0.71888733 4
2.4542658 -0.55049407 -0.69154036 13.5
2.2189445 -0.33086115 -0.6833781 0
2.4452178 -0.40357569 -0.71130222 56
1.8935094 -0.19489937 -0.64231509 15
1.8734169 -0.063542195 -0.64232814 29
2.4329815 0.088733204 -0.72179633 58
2.4145958 0.24962358 -0.714728 97
2.3863757 0.40845433 -0.70265901 95
2.3594325 0.56642455 -0.68662959 95
2.3427532 0.68700337 -0.70834112 98.5
2.3198004 0.85121787 -0.68678713 97.5
1.8844538 0.98739976 -0.72071642 100
2.0150769 0.98964936 -0.71691972 20
2.2983239 0.98784369 -0.70382911 88
1.7956436 1.1753894 -0.7235412 51
1.8616776 1.0965 -0.70487601 79.666664
1.8475096 1.2276638 -0.70909953 76
0.53175408 1.833802 -0.66188711 56
1.3305056 -0.62565458 -0.46658546 3
1.471893 -0.60694498 -0.54430592 5
1.5741189 -0.6076231 -0.54350173 43
1.7468815 -0.56367862 -0.59385067 10
1.8585777 -0.54905146 -0.57910585 5
2.3756342 -0.59804928 -0.46803141 8
2.4750412 -0.44015059 -0.5109899 10
1.893662 -0.21232487 -0.49920216 9
1.872811 -0.074212059 -0.48391795 47
1.9808078 0.058693551 -0.47190058 2
2.4250028 0.089391664 -0.57774127 47
2.4165626 0.24223734 -0.51720613 98
2.3904769 0.40998903 -0.52018076 98
2.3654699 0.56247139 -0.48405623 93.5
2.3492537 0.67062378 -0.54352885 101.5
1.3935047 0.84427744 -0.49000406 31.333334
1.6009518 0.83362025 -0.54808575 16
2.3353558 0.78246671 -0.57022041 100
1.3142238 0.96855384 -0.50026047 87
2.3127508 0.92978412 -0.5208171 96.5
1.0077567 -0.93962556 -0.40441403 1
1.1430831 -0.6514802 -0.42346665 5
1.6933453 -0.58366269 -0.40118149 8
2.4193342 -0.42194384 -0.4244197 21
1.8942137 -0.21198387 -0.43224862 8
1.907613 -0.090376131 -0.40880087 73
2.4321852 0.056335863 -0.43120778 75
2.4234936 0.21264735 -0.43345651 92
2.3906591 0.36827272 -0.44090316 88
2.3659415 0.52548134 -0.44289467 97
2.3453808 0.70553756 -0.44226599 99
1.124868 0.87166607 -0.42852983 150
1.3748394 0.86122173 -0.43901935 3
1.6240636 0.79604107 -0.43669143 3
2.3232467 0.8726396 -0.42991379 98.5
1.5595992 0.90447056 -0.4145456 5
2.3002505 1.0130802 -0.41630736 96
1.8422773 1.2738528 -0.43366838 92
