# .PCD v0.7 - Point Cloud Data file format
VERSION 0.7
FIELDS x y z intensity
SIZE 4 4 4 4
TYPE F F F F
COUNT 1 1 1 1
WIDTH 1122
HEIGHT 1
VIEWPOINT 0 0 0 1 0 0 0
POINTS 1122
DATA ascii
-0.50328434 -0.64724791 -0.17261478 3.9000001
-0.33662394 -0.55822903 -0.17142537 6.2857141
-0.25694719 -0.51181388 -0.17470865 5.8000002
2.0400083 -0.47872204 -0.17973314 2
-0.052600045 -0.4094404 -0.16944776 6
0.065872081 -0.3234905 -0.17143387 6.0769229
0.1233484 -0.29007241 -0.18098621 6.5714288
0.22308545 -0.23523933 -0.17429101 4.9473686
0.33183056 -0.1688859 -0.17243011 3
0.39236957 -0.13077705 -0.1721563 3.4285715
0.50051016 -0.076188087 -0.1768242 1.8333334
0.62811273 -0.0013754118 -0.15156345 0
0.67059112 0.017112374 -0.17661034 0.2
0.80831403 0.086122707 -0.1695365 0
0.93405724 0.16599154 -0.17702857 2
1.4866037 0.39304763 -0.19753438 52
1.5544752 0.35954458 -0.17614728 17
0.82308626 0.54090399 -0.17547409 7.3333335
1.1023289 0.52074987 -0.15003499 153
1.4330339 0.53211671 -0.17826089 60.25
1.50477 0.4885262 -0.19908129 16
0.81288844 0.62709183 -0.18150148 9.5
-0.57891655 1.0385171 -0.17497323 15
1.2369323 0.99549311 -0.18132436 45
-0.67953014 1.0864722 -0.18333457 2
-0.50219095 1.0793644 -0.17887852 13.142858
-0.4046858 1.1385262 -0.17391868 8.75
1.1554402 1.1178111 -0.18390059 84
-0.30541846 1.2003262 -0.15054631 6
0.095471039 1.2972829 -0.17159864 5.5
1.039296 1.3074498 -0.17510173 80
1.0836062 1.2450618 -0.19160257 82.333336
-0.17131376 1.4575379 -0.15892288 20
0.33728334 1.4484065 -0.17432001 6.5
0.97291732 1.4431964 -0.16907987 71.5
-0.21239991 1.5368963 -0.16108383 22
-0.076264992 1.5396779 -0.15250628 17
0.40834767 1.5617396 -0.16745561 48
0.87481201 1.6205722 -0.17283706 71
-0.049885318 1.732694 -0.18250079 72
0.011221674 1.7182021 -0.17782167 28
0.52716315 1.6725318 -0.17099635 94.5
0.6132127 1.7119446 -0.19594733 47
-0.13938497 -4.2668176 -0.0814941 0
-0.71031547 -4.1291552 -0.10375036 7
-0.46418011 -3.8628187 -0.1143137 8
-0.36431968 -3.8256915 -0.13059393 6
1.5679981 -2.0020089 -0.094850667 2
2.3287044 -0.93580407 -0.087109245 3
-0.76237029 -0.79612011 -0.019936716 0
-0.72403073 -0.77401137 -0.049791906 2.3333333
-0.64096963 -0.72326642 -0.088629797 3.3333333
-0.51196188 -0.65139991 -0.081800155 3.3703704
2.2180507 -0.74978131 -0.12846261 3
-0.34036291 -0.55793023 -0.072167128 6.6666665
-0.24291836 -0.49725774 -0.076991893 7
-0.16533841 -0.44023356 -0.079458021 7.3333335
-0.085348472 -0.3990159 -0.067423753 6.4499998
0.044862188 -0.32802072 -0.12364067 5.9333334
0.13135105 -0.29015902 -0.13653919 5.25
0.20448537 -0.24619655 -0.1402967 3.8333333
0.34491131 -0.16284135 -0.14587581 3.5
0.40332437 -0.12518682 -0.14141871 2
0.54922384 -0.050569996 -0.12430001 0.66666669
0.62229139 -0.0081744734 -0.13432226 0
0.70093471 0.033790462 -0.10054167 0
0.82890779 0.091820717 -0.099226259 0
0.90077096 0.1433033 -0.071025319 0
0.97298235 0.19124554 -0.063591965 2
1.0936464 0.26720452 -0.053107116 1
0.83466333 0.40298077 -0.02713511 7
1.47822 0.38107941 -0.082805343 8.5
1.5309253 0.39006701 -0.11149897 22.333334
0.81800598 0.54062015 -0.090568304 6.3333335
1.0202448 0.55792195 -0.041556362 21
1.457065 0.52619714 -0.070700645 33
1.505064 0.51468611 -0.08761432 12.5
-0.85012597 0.68751365 -0.046787161 0
0.69942772 0.7223115 -0.043067046 5.5
0.80912966 0.63234967 -0.072819293 6.3333335
1.0312585 0.63704365 -0.0098728882 21
1.4514282 0.6187669 -0.10040405 51.5
-0.80336791 0.83784807 -0.063791022 1.1764706
-0.73705465 0.86581308 -0.059554651 0.66666669
0.67980641 0.79700959 -0.040455032 32
0.77494985 0.81087953 -0.063574292 24
1.0442299 0.81135249 -0.1119929 6
-0.75867343 0.9541384 -0.11931286 4.4000001
-0.6580106 1.0038488 -0.11304521 6.125
-0.57571447 1.0311989 -0.13080475 15.75
1.2371827 0.99569535 -0.098903291 76.75
-0.77994901 1.1604184 -0.12973969 0.66666669
-0.66863132 1.0697321 -0.1463698 2
-0.52090997 1.0697756 -0.12504274 7.3333335
-0.44889301 1.0976832 -0.14306903 11
-0.27342319 1.1906974 -0.13875875 7.5
1.1666527 1.0936279 -0.093775757 43
1.4264513 1.1755459 -0.00025067211 78
-0.79272181 1.2571073 -0.12709372 1.5
-0.22404566 1.2299255 -0.13607615 6.75
-0.054105762 1.264079 -0.075852402 0.66666669
0.051305749 1.31689 -0.073802844 5.125
0.18729103 1.2766173 -0.13654527 1
1.0264138 1.3388567 -0.14710534 72
1.0902659 1.2460129 -0.096065611 27.666666
1.3155347 1.2552269 -0.027905798 80
-0.20145079 1.4053116 -0.14840463 1
0.12274496 1.3598814 -0.11282352 2
0.21582909 1.4020467 -0.10102525 0.66666669
0.38262206 1.4135751 -0.053640161 1
0.97526628 1.4326863 -0.1168195 63.333332
0.88753062 1.5982162 -0.10596365 69
-0.39398754 1.7027028 -0.00031394244 0
0.81090701 1.7308669 -0.099767573 37.5
1.1453975 1.7422193 -0.013171946 16
1.0838428 1.8210359 -0.022866791 16
0.63567144 2.0159581 -0.099048264 49
-0.37573266 -4.2764931 0.098829441 1
1.2450759 -3.4745946 0.023241246 5
2.181272 -2.9471002 0.0076659275 6
0.75540203 -1.6314647 0.0337415 1
-1.0523987 -0.9670164 0.072514139 0
-0.92730528 -0.87651485 0.10798814 0
-0.80939674 -0.82087457 0.097374566 0
-0.70995325 -0.76456779 0.068252869 0.66666669
-0.64053369 -0.72622758 0.091458932 1.625
-0.52514726 -0.65785336 0.07320147 3.0434783
-0.444965 -0.6071893 0.094785623 4
-0.33589703 -0.55074269 0.068390228 7.2142859
-0.24429128 -0.49549356 0.086385027 6.7619047
-1.0604445 -0.32204136 0.1490351 0
-1.0320208 -0.32020432 0.10260958 0
-0.16154079 -0.44137958 0.056519412 7.5
-0.1231598 -0.42748436 0.047366366 6.6666665
-1.0855417 -0.20059206 0.12818819 0
-1.0826732 -0.094299838 0.13641581 0
-1.0139633 -0.024550652 0.085907884 0
-0.98627996 0.019409234 0.10563087 0
0.97386378 0.19390416 0.0052443696 3
1.1255808 0.28176779 0.067268148 1
0.82213777 0.40883622 0.020853773 2.6666667
1.1780491 0.31311643 0.056325164 1
1.2990799 0.38824072 0.029970476 0.5
-1.0673026 0.58118761 0.14509445 0
0.70020425 0.54171383 0.029255327 4.5999999
0.83357203 0.53532815 0.03286558 6
0.99295145 0.56053424 0.057074375 20.142857
1.0516576 0.55914152 0.026489401 7
1.4157429 0.49393854 0.04405348 19.333334
1.5240811 0.56405771 0.089152724 23
1.6902193 0.51602286 0.056636091 2
1.8457645 0.52136004 0.051804401 12
-1.0748103 0.64008409 0.095629327 1.4
-0.97950721 0.70670742 0.090082616 2.2727273
-0.89467108 0.74076486 0.10711422 2
0.53700429 0.69557756 0.0086199595 4.3333335
0.70584667 0.65871644 0.055269323 13.846154
0.80701399 0.65100807 0.047757331 5.1666665
0.97112024 0.64570034 0.048560485 8.1999998
1.6069883 0.61857653 0.028263772 22
1.6763364 0.69585496 0.081067361 13.333333
-0.93796933 0.75467914 0.033996489 3
-0.83055317 0.80329186 0.061343949 2.4230769
-0.70828879 0.8437922 0.12196743 1
0.69884765 0.79921472 0.05685214 78
1.4364949 1.1607866 0.058777999 82.666664
0.11551918 1.2708209 0.096009888 2.2
0.21919627 1.2897637 0.097163856 2.25
1.3464129 1.3232903 0.025096858 83
1.3857936 1.2590243 0.036767486 57.666668
0.23353577 1.3713677 0.055368751 4.8000002
0.33248138 1.3942249 0.068700269 2.5999999
1.2906684 1.4230636 0.069901675 74.5
-0.90982801 1.535241 0.11926497 3.6666667
-0.84042907 1.5715874 0.088153295 4.6666665
-0.71340805 1.6489946 0.096687518 1
1.1984755 1.597207 0.088957511 21
1.2021722 1.6208613 0.031292167 24
-0.36690384 1.7320204 0.056518834 2.4000001
-0.29150099 1.769563 0.025812265 3
1.1206018 1.7981822 0.0083398474 19
-0.19996886 1.8407125 0.026239181 0
-0.085747719 1.8832775 0.11210155 4
0.021466445 1.9483696 0.09672638 4
1.0950967 1.8924855 0.043726698 6
0.064794257 1.9629985 0.1113997 4
1.004447 2.0113482 0.10188762 16
1.0634701 1.9999052 0.06236976 7
-0.61542857 -4.2921929 0.28143078 0
-1.2393438 -1.0506259 0.29196388 1
-1.2232827 -1.0421752 0.24636513 1
-1.1412165 -0.99897039 0.23309799 4
-1.0116827 -0.93128991 0.18959314 0
-0.91843349 -0.87975824 0.22808844 0
-0.83170938 -0.83012617 0.21905224 0
-0.72539061 -0.77267808 0.19740367 0.16666667
-0.64148408 -0.72312313 0.24435849 0.16666667
-0.52057391 -0.65263695 0.22039023 0.73333335
-1.1573476 -0.47488466 0.27697885 0.5
-0.33843762 -0.54770619 0.21941848 5.090909
-0.24749015 -0.49330434 0.22713591 5.8947368
-1.1289129 -0.36751255 0.22094059 2.4000001
-1.0466293 -0.36516103 0.17275864 6
-1.2356142 -0.19035199 0.27005425 0
-1.161551 -0.25485331 0.23788172 0
-1.074666 -0.045125592 0.16677944 0
-1.022267 0.037852075 0.19691467 0
-1.0592821 0.59327984 0.1808638 0
0.95269698 0.53246683 0.15824306 46
1.4545512 0.52543545 0.17793569 21.5
1.5337863 0.57643998 0.23930609 19
-1.0754848 0.63083601 0.16652504 2
-0.98765361 0.6645478 0.18393803 1.4
-0.84023082 0.68639123 0.21941032 0.23076923
1.7515862 0.70572877 0.16081816 16
-0.78789324 0.78732014 0.18569411 2.1818182
-0.73036134 0.80886716 0.18987122 1
0.14539231 1.1723518 0.29025042 0
0.20968901 1.1657002 0.26024181 1.5
1.4851233 1.1077638 0.25582868 13
0.25623655 1.2710116 0.29165474 3.75
0.36728853 1.2453418 0.26901424 2.75
1.3813162 1.273451 0.27170488 73.333336
0.33809185 1.3911772 0.26635063 0
1.2881002 1.4377298 0.18241644 55.75
1.1618091 1.5795938 0.22634365 54.25
1.2329514 1.5119543 0.21253866 7
-0.25054535 1.7906495 0.26031908 4
1.0392358 1.7994286 0.18502271 51
1.0843472 1.7215759 0.25367743 59
-0.18222487 1.834463 0.24253011 4
-0.069647737 1.8926275 0.2030004 3.8571429
0.054343861 1.9467216 0.17163658 3
0.98477787 1.9306059 0.28687668 69
0.89074665 2.076056 0.20394701 64.5
0.93619609 2.0227098 0.16647792 26
0.84517872 2.1659436 0.24141559 58.599998
1.4632993 -2.9539177 0.33763665 4
2.5157883 -2.7657697 0.3621639 4
-1.7208108 -1.2743506 0.43492785 28.5
-1.2448232 -1.0550375 0.31959835 1
-1.2084434 -1.0372844 0.36879191 1
-1.117075 -0.98783177 0.34842977 1.3333334
-1.0060725 -0.92286074 0.39221424 0.75
-0.93334621 -0.88268334 0.36744609 0.33333334
-0.83324832 -0.82516366 0.39692029 0
-0.72352368 -0.7653631 0.35958791 0
-0.65597862 -0.73053217 0.35523939 0
-0.53464663 -0.66033161 0.37877151 0
-1.2657272 -0.4921602 0.39531004 7
-0.33169812 -0.5375253 0.38585758 3.8
-0.28052491 -0.50494206 0.36760026 4.5999999
-1.227065 -0.35326341 0.40408707 0
-1.2348099 -0.22125183 0.39530706 0
-1.1926998 -0.25581619 0.30974695 0
-1.3559613 -0.11323866 0.3948611 5.5
-1.3343984 -0.11380169 0.40000352 5
-1.0537711 0.70989227 0.42349315 0
-0.9813382 0.68425101 0.40875354 0.66666669
-0.78199112 0.68874443 0.37328023 1.5714285
-0.74155611 0.72920799 0.41880322 0
1.6515547 0.64552248 0.37424213 24
-0.79851228 0.83235198 0.41846943 1.2857143
0.09731704 1.1838394 0.34179041 3
1.4320703 1.1926378 0.31434909 51.333332
0.1029536 1.2449286 0.33681059 4
0.1555744 1.2605757 0.32499433 0
0.3609885 1.2958964 0.31952429 0
1.3484623 1.3499005 0.40508413 17
1.3718978 1.2974749 0.38401222 66.25
1.2975819 1.4329977 0.3979899 65
1.356316 1.3769249 0.37915891 14
1.1749663 1.5717483 0.36669016 61.25
1.0459772 1.791116 0.36686319 59
1.0897273 1.7193649 0.36512908 60.799999
-0.18838903 1.8355153 0.32137102 3
-0.08868216 1.8874998 0.30433381 3
1.0194998 1.856563 0.39547566 61.599998
0.92650545 2.0368781 0.41509497 53.5
0.81836039 2.2075207 0.31174082 63
0.78926474 2.2586048 0.34324259 51
-1.6941234 -1.4022613 0.5514282 47
-1.700384 -1.2907217 0.49380016 87.5
-1.1098028 -0.98399073 0.52782214 1.25
-0.98514736 -0.90523148 0.50546247 1
-0.86736983 -0.84103674 0.54619485 1.5
-0.73803985 -0.76668042 0.47390145 0
-0.63697243 -0.71268368 0.45372596 0
-0.49509221 -0.63220799 0.51538324 0
-1.2752085 -0.49636626 0.49442196 2.6666667
-0.33441377 -0.53461224 0.51772237 4.1111112
-0.28161174 -0.50826651 0.47155291 4
-1.2916439 -0.41058254 0.46428385 0.5
-1.2569696 -0.21901521 0.50569797 1
-1.3635216 -0.04737832 0.5079394 21.666666
-1.3092867 -0.11609626 0.51364845 1
1.3904129 1.2864401 0.53071296 44.599998
1.307699 1.4194071 0.51243025 61.5
1.1620752 1.6023499 0.5404523 54.714287
1.2388167 1.5245728 0.5224576 57.875
1.0867968 1.7495662 0.52787006 64.5
0.99971628 1.9098758 0.48787284 68.666664
0.95418596 1.9905437 0.53340828 54.200001
0.86831927 2.1443036 0.54911226 53.333332
-1.8724604 -1.3854303 0.64744067 12
-1.7762541 -1.4013245 0.67744875 55
-1.8439809 -1.3034357 0.74409473 12
-1.768111 -1.3069677 0.74218476 41
-1.1534306 -0.99716759 0.67844129 1
-1.0077107 -0.93431759 0.67404914 1
-0.90596104 -0.86354744 0.60333931 1
-0.79226154 -0.7990607 0.6935252 1
-0.73931438 -0.76534086 0.74085474 1
-0.44727781 -0.60183728 0.60209304 0
-1.3020146 -0.4675678 0.60835713 0
-0.34865367 -0.54070729 0.63653666 3.5
-1.2786149 -0.32463893 0.69803971 5.6666665
-1.2928243 -0.24995768 0.68670076 13.125
-1.320016 -0.09860573 0.63079643 3
1.3486843 1.3494714 0.6210109 63
1.3699517 1.3162804 0.6146391 60
1.2896695 1.4554299 0.65629631 56.333332
1.1761407 1.5922565 0.64153671 63.5
1.2457509 1.5352312 0.71488029 63.333332
1.11446 1.7144661 0.67115051 60.200001
1.0360016 1.8583272 0.6343497 63
1.0575757 1.8162768 0.70656252 61.5
0.92662805 2.0516036 0.65244377 53.5
0.79818648 2.2727518 0.67862666 29
0.5885756 2.6393356 0.68521613 48
0.52066356 2.7729561 0.70401245 36.333332
0.4179334 2.9668343 0.72981882 3
0.46201795 2.8977706 0.72176659 3
-1.8358849 -1.5113245 0.89566219 150
-1.7327902 -1.352465 0.83467472 18
-1.804764 -1.2827607 0.85218287 69
-1.7656831 -1.2882751 0.84017241 21.75
-0.90298945 -0.86922634 0.83382523 1
-0.84864348 -0.83187419 0.84031612 0.33333334
-0.66466081 -0.74190015 0.82443249 0
-0.48272634 -0.6287111 0.81833261 0
-0.45165473 -0.58494592 0.88981903 0
-0.42192307 -0.56531483 0.85841465 0
-1.2511592 -0.38383806 0.80909514 4
-1.1717086 -0.37523541 0.83539331 1.75
-1.256825 -0.23940818 0.81617528 10.333333
-1.1742668 -0.26563174 0.85203648 0.75
1.1743073 1.6141682 0.7970081 58
1.2076402 1.5570637 0.7798183 58
1.1147224 1.723436 0.82287967 54.555557
1.013739 1.8991175 0.82060272 51.25
1.0741072 1.8039629 0.80877054 55
0.92123455 2.0763025 0.88092071 54
0.80680281 2.2429924 0.81602323 47
0.77899176 2.3104899 0.86498642 46
0.50091404 2.8030484 0.8232193 36
0.42466256 2.961719 0.88048697 37.5
-1.8515085 3.8644483 0.88337314 47
-0.59030938 4.8569326 0.81618381 26
-0.70242548 5.0627394 0.87575984 34
-2.0184453 -1.7217925 0.98140264 30
-1.7165891 -1.3433185 0.90437269 5
-0.70451742 -0.76420689 0.99681187 0
-0.62693864 -0.70364892 0.92959273 0
-0.52168006 -0.64696008 0.9966417 0
-0.39629614 -0.55550766 0.90844357 0
1.0939283 1.7628397 0.95375043 53.666668
1.0328079 1.8763758 0.94812536 47
1.0598249 1.8264451 0.98710078 51.333332
0.95249832 2.0216563 0.96429664 56.285713
0.86801642 2.1628532 1.0264534 49
0.74217099 2.3759696 0.96566236 41
0.75952274 2.3431642 0.9136287 44
0.70050067 2.4592652 1.0190969 35
0.40764481 2.9856365 0.94892597 34
0.37700668 3.0493686 0.94944048 32.333332
0.29834378 3.2028086 0.95512307 36
-1.9047074 3.8354974 0.90171325 65
-0.54524344 4.672327 0.95627034 27
-0.85358739 5.3123341 0.95607591 23.5
-0.99348402 5.5801482 1.0141981 2
-2.0054648 -1.7394276 1.1230936 19
-0.50498444 -0.63354921 1.1108255 0
-0.29312977 -0.50069875 1.1415862 76
1.0198975 1.9036472 1.0874488 47.400002
0.97162932 1.9945961 1.1224139 50.857143
0.86987066 2.1767952 1.1436874 46.400002
0.79422027 2.312119 1.1921029 41
0.6779753 2.4997046 1.1035569 37
0.38228852 3.032511 1.0902619 36
0.27828291 3.2385018 1.1356026 36.666668
0.3213076 3.199214 1.0969497 37
0.21936204 3.3655915 1.1724378 36
-0.064699575 3.8274574 1.1104422 34
-0.28212658 4.268714 1.1499302 25
-0.87266433 5.3248353 1.1105344 24
-0.94791979 5.5077558 1.1983317 22
-2.9860001 -2.8310642 1.2740815 0
-3.3653297 -2.1718962 1.3233391 119.5
-1.996294 -1.7216712 1.2519597 28
-2.0800686 -1.5417953 1.2866631 3
0.93506759 2.0659335 1.2593756 44.714287
0.84620708 2.2218382 1.230813 45.5
0.91355878 2.1103182 1.3360834 39
0.79625887 2.3147211 1.3101616 41
0.59615672 2.6629906 1.3252376 37
0.61180246 2.6371608 1.2309417 18
0.52981836 2.8054657 1.3084774 23.666666
0.26865539 3.2451744 1.286061 35
0.18350275 3.4319305 1.3327155 36
0.15802394 3.4521379 1.2153567 31
-0.26327008 4.1882529 1.3260933 27
-0.25650108 4.2416716 1.2526324 0
-0.36361751 4.4133167 1.2876616 24.5
-0.87398404 5.3046455 1.2311469 26
-1.0896004 5.7547884 1.2922809 24
-3.3975139 -2.0949035 1.4893203 90.5
-3.5031765 -1.9224777 1.3905978 96
-2.0138407 -1.7010386 1.4332476 12.5
0.87352687 2.1895709 1.4360133 38.714287
0.90434617 2.1345549 1.3761405 44
0.78506595 2.336729 1.399067 40
0.7346527 2.443162 1.4042968 35.333332
0.52145523 2.8175759 1.4448905 31.5
0.48472261 2.8931398 1.4124377 31.5
0.42472929 3.0023062 1.4796424 34
0.13171355 3.5323145 1.4122914 36
0.070564196 3.6607914 1.472594 33
-0.26530045 4.2025986 1.4308709 30
-0.4362992 4.5620213 1.444899 23
-0.87633252 5.3056345 1.3598452 21
-1.2530355 6.0252204 1.3857982 16
-1.351307 6.1651917 1.4425178 16
-2.9760411 -2.8089154 1.5563265 1
-3.3572791 -2.160778 1.5426309 109
-3.4380827 -2.0142272 1.6229122 85
-2.9380841 -2.0769992 1.506741 4
-3.5224895 -1.866439 1.5786082 89
-2.0106297 -1.6828295 1.6150156 1.5
-0.31723991 -0.54882598 1.5019515 151
0.56495184 2.0858722 1.5999196 25
0.54893178 2.1140561 1.6017404 26
0.85130817 2.2471759 1.5514412 40
0.42640397 2.3462789 1.6124864 25.666666
0.81701899 2.2885547 1.5852413 30.6
0.47184074 2.466228 1.6494282 10
0.72365344 2.4683864 1.5460012 33.200001
0.65533608 2.5807254 1.6105102 22.666666
0.20041035 2.7405207 1.6115113 29
0.51666147 2.8354161 1.5498241 36
0.24025744 2.9138346 1.6485406 24
0.42430136 2.9809451 1.6045289 35.5
0.27107024 3.0020893 1.6374575 57
0.38065264 3.0293391 1.6185971 39.333332
-0.067422614 3.1977804 1.5826032 27
-0.20019856 3.4735842 1.6184604 40.5
-0.059994582 3.5795743 1.6395501 54
0.13235465 3.5063357 1.5642591 25
-0.081545122 3.6789474 1.6348829 46.666668
0.024977427 3.7095165 1.6208595 44
-0.00086395739 3.7779844 1.5488454 24
-0.49338049 4.2585335 1.6460208 38
-0.67978197 4.3786364 1.5810606 15
-0.51119184 4.4618745 1.6315936 61
-0.60097647 4.5660911 1.6211067 53
-0.5351038 4.7048397 1.5537862 22
-0.66235626 4.8284054 1.6005695 52
-1.4386314 5.7801294 1.5661064 14
-1.2673365 5.7691722 1.6233031 36
-1.595341 5.9333072 1.6479179 36
-1.363374 5.9942517 1.5950323 28
-1.3277478 6.09903 1.5835669 17
-1.4582683 6.3685017 1.5116115 16
-3.3470106 -2.1648343 1.6663131 91
-3.2659168 -2.1398482 1.7049042 19
-3.4135294 -2.0542583 1.6980858 92.5
-3.5115328 -1.8730903 1.7708385 42.5
-3.5857606 -1.7447357 1.6686901 92
-2.017283 -1.6562697 1.7612842 13
-3.6377692 -1.6444198 1.6832134 93
-0.41612911 0.73651081 1.7954479 84
-0.6075958 0.79180127 1.7996055 70
-0.52790344 0.86929977 1.7981228 76
-0.38836572 0.82834435 1.7980753 81
-0.6244598 0.99297601 1.7948171 71.333336
-0.49498498 0.98299235 1.7956082 68.666664
-0.35768932 0.98617876 1.7947208 67.25
-0.93046635 1.1793176 1.7974647 79
-0.51268703 1.1533712 1.7979884 83.333336
-0.35236514 1.1136376 1.7937039 79
-0.26902375 1.1415539 1.7935783 80.5
-0.92779309 1.3245255 1.7988271 29
-0.82654035 1.2652609 1.7971969 67.5
-0.64820462 1.2639608 1.7967566 79.333336
-0.51065022 1.2711405 1.7958063 81.14286
-0.37392691 1.2756139 1.7923487 75.285713
-0.22219074 1.2670053 1.7909795 73.25
-1.2416815 1.4409978 1.7961344 81
-0.9319216 1.4469597 1.796067 49.5
-0.8155418 1.4291756 1.7970086 31
-0.68788958 1.4216534 1.7939558 33
-0.50018352 1.4140186 1.7874216 68.599998
-0.37981459 1.4195056 1.7852458 73.333336
-0.23614947 1.4298142 1.7833258 70.666664
-0.12078847 1.4433092 1.7818408 65.5
-1.2757125 1.5430849 1.7981346 78.75
-1.173292 1.5490948 1.7963243 77.666664
-0.80148619 1.5921901 1.7879318 61.799999
-0.67419249 1.5799632 1.7905817 53
-0.51818383 1.5337899 1.7894088 31.5
-0.34210637 1.5653414 1.780799 49.833332
-0.21423881 1.5735806 1.7743673 66
-0.063218512 1.59525 1.76923 71.5
0.041632783 1.6110959 1.7675549 69
-1.357664 1.7089146 1.7908543 73
-1.2252512 1.7364997 1.7929406 70.666664
-1.1307888 1.681307 1.7917496 73.333336
-0.7607789 1.7029485 1.7801281 74
-0.6616677 1.7373817 1.7785304 65.199997
-0.50680941 1.6724088 1.7836784 50.5
-0.34245136 1.7332145 1.7755945 47
-0.23108807 1.7222354 1.7752697 29.6
-0.11294133 1.7286412 1.7714287 32
0.058792256 1.7396058 1.7606566 59.5
-1.7129831 1.8259604 1.7966428 67
-1.5833806 1.8960961 1.798977 76
-1.2815263 1.9107744 1.7872697 69
-1.12612 1.8675821 1.7858477 65.800003
-1.0168954 1.823172 1.7907192 63
-0.78982502 1.8065552 1.7860647 59
-0.62862289 1.8711611 1.7732848 67.666664
-0.53597766 1.8818302 1.773615 62.5
-0.20058107 1.8622669 1.7674214 51.599998
-0.052371483 1.8839264 1.7652584 42.400002
0.091244094 1.883129 1.7614425 31.5
0.2132524 1.8743423 1.7568288 44.5
0.33373052 1.9423749 1.7500924 32
-1.6908832 1.9527836 1.7999958 7
-1.0985851 2.0189512 1.7773069 64
-1.0035681 2.0363641 1.778688 63.333332
-0.68911141 1.9708993 1.7781521 62
-0.52019429 2.0445397 1.7675869 59.5
-0.42640153 2.0236816 1.7704738 58.333332
-0.082737565 2.0074906 1.7615368 64.400002
0.064743139 2.023262 1.7584785 52
0.24298793 2.0200098 1.7554747 34.833332
0.35438043 2.0567615 1.7528051 28.75
0.50573015 2.0793133 1.7050304 45
-1.1242703 2.1679018 1.7919613 33
-0.97020417 2.1715446 1.7687029 48
-0.85362738 2.1577899 1.7699732 62
-0.52107471 2.15555 1.7661431 61.5
-0.37860221 2.2093327 1.761939 56
-0.29073 2.1064816 1.7707239 61
0.067810424 2.1634936 1.7534415 66.199997
0.18413527 2.2106469 1.7485681 63.333332
0.37866479 2.1537037 1.7479683 50
0.50125331 2.1630161 1.7098569 56.42857
0.64770484 2.20419 1.6540322 27.333334
-0.9576782 2.3266292 1.772882 47.25
-0.75861615 2.346143 1.768109 64
-0.37512222 2.3031378 1.755219 56.333332
-0.23116666 2.3104317 1.7573799 57.333332
0.21541281 2.3095365 1.7447308 67.25
0.38321367 2.3162436 1.7173598 58.5
0.57216901 2.3789968 1.663256 59
0.69875014 2.2713547 1.6582844 56.599998
0.78875005 2.3114681 1.6593204 55.5
-1.3599846 2.5470982 1.7750016 60
-0.85391313 2.4718769 1.7571243 55.599998
-0.64881968 2.5325997 1.7559124 56
-0.30384877 2.4941597 1.7615222 55
-0.21583577 2.4691658 1.7515987 57.799999
-0.073143296 2.4526272 1.7565382 61.5
0.34416443 2.42277 1.736666 67.75
0.52500397 2.4989271 1.6537228 40.333332
0.62075722 2.4887371 1.6617041 58
-2.0756865 2.6241493 1.7990612 75
-1.5294083 2.6233625 1.7697041 70
-1.4513109 2.6299529 1.7733132 68
-0.96906632 2.557065 1.762549 58
-0.79974067 2.6242056 1.7516451 58
-0.70802289 2.622293 1.7586504 53
-0.097048737 2.6369331 1.7439823 55.799999
0.070533395 2.6180522 1.7494942 65.5
0.22165151 2.6999824 1.713276 49
0.634561 2.5556314 1.6576196 61
-1.5939238 2.7545462 1.7683791 67
-1.4716337 2.7608533 1.7613918 69.5
-1.2623757 2.792315 1.7648085 69
-0.79847205 2.7460358 1.7524157 57.5
-0.70951778 2.7887909 1.7472893 57.333332
-0.55076003 2.7935576 1.7533869 61.5
-0.0054404316 2.7289274 1.7336715 60
0.060772195 2.8026872 1.7340761 62.25
0.15158565 2.8373542 1.6565548 45
0.37499732 2.8105423 1.6604494 56
-1.4350313 2.9369719 1.7571536 61
-1.3470571 2.8902767 1.7607557 61
-0.63303149 2.9124072 1.7419112 60.5
-0.5946492 2.9730172 1.7388939 60
-0.3875083 2.9548211 1.7424334 66
0.10131361 2.8784025 1.718469 68
0.39386839 2.9059248 1.6543998 62
-1.5328087 3.1110234 1.760727 55
-1.3723007 3.0590611 1.7503375 61.5
-1.1516305 3.0558643 1.7551423 69
-0.67608684 3.0348532 1.7401148 65
-0.55360472 3.0645385 1.7314966 61.5
-0.42191786 3.0628989 1.7360505 65
-1.2975589 3.2142556 1.751731 63
-0.47600108 3.1653557 1.7309585 59.5
-0.4357152 3.2313557 1.7292615 61
-0.229711 3.1774142 1.7283305 66
-1.398145 3.4441173 1.7488004 56
-1.2737889 3.365329 1.7466561 56.333332
-1.0257789 3.3529277 1.7512609 72
-0.49907735 3.3082006 1.7367734 64
-0.36619112 3.3772132 1.7220443 65
-0.25796771 3.373301 1.7264346 64.5
-1.1399114 3.5202484 1.7410476 61.5
-0.27267933 3.540606 1.7184268 67.5
-0.059384588 3.4659698 1.6578068 18
-1.2169098 3.6024845 1.7364982 55
-1.1518719 3.6674266 1.7315592 57
-0.87837696 3.6713955 1.742541 54
-1.2401192 3.8158786 1.7408494 60
-1.0842382 3.797029 1.7270547 58
-0.930053 3.8269558 1.7298447 64
-1.7185303 4.0110426 1.7551373 55
-1.0723052 4.0154209 1.721284 57
-1.0048404 3.9571824 1.7256638 58.5
-0.70357579 4.0062642 1.7231714 65
-0.94764543 4.1466546 1.7103024 56
-1.8897185 4.292552 1.7417289 52.5
-1.0510948 4.2131815 1.7243682 65
-0.8358354 4.2988834 1.7111574 66
-0.74081236 4.2013001 1.7152771 59
-1.9548179 4.4715405 1.7433268 50
-1.5850298 4.4629941 1.7409383 53
-0.8358025 4.4437933 1.7052492 59.5
-1.9759965 4.503428 1.7146453 44
-1.9076064 4.6212492 1.7086831 45
-0.80262291 4.5354114 1.6689333 48
-2.1124232 4.7782483 1.7496382 43
-1.8524213 4.758215 1.7195772 47
-1.6904546 4.7285633 1.7340115 51
-1.8010921 4.8857784 1.7165371 53
-1.8091601 5.0410357 1.7347478 48
-1.4281912 5.0016365 1.7313164 58
-1.8719637 5.1455069 1.7017182 38
-1.7757744 5.2469463 1.6908749 31
-1.9473939 5.3918891 1.7273248 35
-1.6955464 5.367435 1.6962608 35
-1.5193197 5.3144445 1.7195927 46
-1.6209085 5.4894509 1.6909045 41
-1.2048153 5.4541869 1.6552688 14
-1.6190253 5.6772213 1.7136673 38
-2.4519079 5.8037577 1.7359496 29
-1.7252933 5.8843484 1.6716002 34
-1.7422502 6.1043363 1.7010821 30
-2.6544592 6.2591848 1.7240938 30
-2.3299451 6.6602101 1.7071978 32
-2.4209778 -2.3300395 1.9179398 6
-3.094255 -2.2498379 1.9213561 2
-2.2934475 -2.1966105 1.9154211 5.5
-3.4054413 -2.020148 1.8847567 86
-3.0924599 -2.0284703 1.841895 14
-2.9180923 -2.0028975 1.8729419 0
-2.0788076 -2.0273209 1.9284581 8
-3.4874413 -1.909077 1.8541956 58.666668
-3.2786589 -1.8354979 1.937574 58
-3.1373694 -1.9385781 1.9253327 54
-2.9160125 -1.8235692 1.9245883 56
-2.8290381 -1.8576071 1.9282032 59
-1.98633 -1.8758613 1.9200238 11
-1.832742 -1.9495895 1.9226786 7
-1.7230384 -1.8429425 1.9107174 8
-1.559233 -1.8661411 1.9067816 9
-3.0304377 -1.7426915 1.9242622 59.5
-2.6812928 -1.6885921 1.9193655 60
-1.881295 -1.7560158 1.913748 7
-1.7898284 -1.796222 1.8987347 9
-1.638495 -1.6503036 1.9006847 10
-3.1731756 -1.6412058 1.9276756 4
-2.8989925 -1.5613093 1.919657 58
-2.5774624 -1.5038614 1.9002768 55
-2.5141139 -1.5552537 1.9079441 53.5
-2.3944349 -1.6397088 1.9011353 38
-2.1915345 -1.5339721 1.8993603 0
-1.9940403 -1.5815693 1.898037 5.5
-1.8747389 -1.5543313 1.8859144 45
-1.7674434 -1.6195947 1.8992957 8.5
-1.567228 -1.5473368 1.8973488 13
-1.1552718 -1.5213257 1.941317 10
-3.0779846 -1.4592812 1.9252108 5
-2.726135 -1.434834 1.9118437 65
-2.4281058 -1.4003654 1.9012166 58
-2.3554142 -1.439449 1.9045208 53
-2.1020942 -1.432308 1.9022537 57
-1.8550742 -1.3764248 1.8792933 11.5
-1.7853506 -1.4239656 1.8959733 4
-1.6353227 -1.3590423 1.8972985 2
-1.4374356 -1.4037743 1.8879724 14.333333
-1.289364 -1.3894082 1.8919734 11.666667
-1.075 -1.4053764 1.8906137 11
-0.47833031 -1.4101497 1.8537773 2
-2.9196451 -1.3158342 1.9215647 4
-2.6058953 -1.2784084 1.9034746 60.5
-2.5162597 -1.3284583 1.896778 50
-2.3144379 -1.2722375 1.9014515 58
-2.152652 -1.2236321 1.8983034 63
-1.984677 -1.3270147 1.8895416 64
-1.8145485 -1.2257018 1.8878063 68
-1.7709222 -1.2418252 1.8920444 63
-1.5604422 -1.2869574 1.8954562 3
-1.4193923 -1.2100097 1.8813049 9
-1.2787609 -1.2525924 1.8866773 14.333333
-1.1462319 -1.2512035 1.8907741 15
-2.5535371 -1.0941151 1.9004732 4
-2.428308 -1.1756775 1.900052 60
-2.2926261 -1.0905315 1.8937725 54
-2.0346403 -1.1301541 1.8889292 62
-1.9008546 -1.1817214 1.8851199 64.5
-1.6896114 -1.168643 1.8872954 65
-1.5714586 -1.0819626 1.8812511 76
-1.3730997 -1.0559243 1.8764108 40
-1.2721807 -1.101203 1.8832016 16.666666
-1.0716369 -1.1845124 1.8753177 16
-0.97999978 -1.1020503 1.8740728 16
-0.88271558 -1.0591466 1.8683239 15.5
-2.4574268 -0.94742876 1.8944597 64.5
-2.3921144 -1.0124853 1.8959128 64
-2.1506548 -0.98703688 1.891939 65
-2.0090342 -0.94067782 1.8803281 63.5
-1.8565673 -1.0316812 1.8878058 64.666664
-1.6969008 -0.96193004 1.8771665 72
-1.5004773 -1.0320044 1.8747469 74
-1.4338216 -1.0483502 1.8774382 72
-1.2986647 -0.96544468 1.8776881 73.5
-1.1142634 -0.97776771 1.8724326 36.75
-0.95899963 -0.93521059 1.8618635 17.75
-0.78792989 -0.98262644 1.862643 16
-0.67322344 -0.92755312 1.8541535 14.75
-0.5185594 -0.92696303 1.8541011 10
-2.403286 -0.80178297 1.8901533 11
-2.332516 -0.87655061 1.8899559 61
-1.8837371 -0.84276199 1.8798362 48.333332
-1.7419882 -0.79063976 1.8775984 71.5
-1.5631387 -0.88225126 1.8786886 76
-1.4075551 -0.877294 1.8769253 76.5
-1.2673701 -0.77859259 1.8705715 83.5
-1.1004114 -0.83806711 1.8693327 90.666664
-0.96985418 -0.78878152 1.8646637 96.75
-0.82540303 -0.84862643 1.8486344 18.666666
-0.67263395 -0.80801398 1.8481692 17.333334
-0.53499091 -0.83619839 1.8506869 12.142858
-0.40512365 -0.7980516 1.8405143 2
-2.4758117 -0.72228694 1.8936106 5
-1.816406 -0.62918198 1.8726813 71
-1.739556 -0.60901856 1.87314 69
-1.5692276 -0.72221488 1.8730884 71
-1.4151554 -0.68970907 1.8741387 72
-1.3069512 -0.63466847 1.8654952 82.5
-1.1315737 -0.6767509 1.8623564 85.800003
-0.98684448 -0.6574682 1.8516728 72.666664
-0.81536323 -0.68204993 1.8509139 78.333336
-0.67083275 -0.6808241 1.8436462 39.857143
-0.53383958 -0.67233634 1.8424137 19
-0.42246482 -0.69014192 1.8376894 14.25
-1.6615598 -0.59177589 1.8753749 76
-1.5702221 -0.54806721 1.8679587 73.5
-1.4315166 -0.51228654 1.868202 77.25
-1.2424542 -0.50642663 1.8613834 87.666664
-1.0899554 -0.54237252 1.8521408 79.333336
-0.95767266 -0.50336421 1.8461986 77.75
-0.82820278 -0.54612243 1.8460802 81.333336
-0.68528867 -0.52228695 1.8424584 81.272728
-0.51892632 -0.52254379 1.8369976 68.800003
-0.38290608 -0.52201068 1.8302994 41
-2.4565573 -0.35169131 1.8738148 66
-2.1231186 -0.32284066 1.8665429 75
-1.8939712 -0.33761409 1.8634535 74
-1.7317426 -0.44173664 1.8694927 74.5
-1.5921581 -0.38706797 1.8652819 76.5
-1.4525638 -0.36307341 1.8642511 84.5
-1.2688299 -0.37089553 1.8529205 85.333336
-1.10818 -0.38476345 1.8462029 76.5
-0.99080908 -0.36790091 1.8454641 74.800003
-0.80743545 -0.37741238 1.8397425 78.14286
-0.6708169 -0.37958616 1.837217 76.714287
-0.53844684 -0.38425115 1.8384365 78.333336
-0.42450371 -0.38848889 1.8372177 74.333336
-2.4481487 -0.24213855 1.8738776 70.666664
-2.3232019 -0.23327181 1.8694676 74
-2.2393644 -0.21974953 1.8752576 78
-1.9878553 -0.26108679 1.8619286 79
-1.8847772 -0.22563142 1.8625386 84
-1.7583845 -0.28243148 1.8653857 82
-1.5835031 -0.21711604 1.8758765 50.333332
-1.4275591 -0.21993484 1.8573744 94.5
-1.2608082 -0.24676368 1.8494551 88
-1.1303751 -0.22627814 1.8424838 76
-0.95560342 -0.2037849 1.8393977 77.599998
-0.81881458 -0.23278907 1.8371013 76.400002
-0.67600524 -0.20641412 1.8350221 76.25
-0.53469145 -0.23149464 1.8348492 75.85714
-0.4443312 -0.24400233 1.8323313 74
-3.4157603 -0.035341423 1.8958584 5
-3.2550213 -0.022710606 1.8834084 75
-2.9269865 -0.034030274 1.8849469 73
-2.767417 -0.037520405 1.8774006 73.5
-2.4710369 -0.051599592 1.8689601 72
-2.3035204 -0.036385972 1.866304 78.5
-2.1377287 -0.12809251 1.8647164 73
-1.9975518 -0.079630084 1.8578901 81.333336
-1.8671209 -0.076248311 1.8578225 82.333336
-1.7013481 -0.083775714 1.8612182 78.5
-1.5356637 -0.09266565 1.8581656 79.666664
-1.4177055 -0.054380212 1.8537244 98.666664
-1.2790639 -0.11275415 1.8488407 86.5
-1.1242265 -0.066752054 1.8376364 76.199997
-0.97538775 -0.078099832 1.8348446 78.833336
-0.83819032 -0.073561631 1.8333362 77.5
-0.68885136 -0.077391975 1.8333284 75.625
-0.52429968 -0.054856688 1.8285185 79
-3.1233957 0.053791266 1.9046148 34
-2.9387844 0.12623802 1.8765372 78
-2.6183255 0.024095004 1.8677226 79
-2.5113604 0.10354868 1.8664926 79
-2.279808 0.14926997 1.8598472 78
-2.1444716 0.065779291 1.8603736 78
-1.9739133 0.07254152 1.8519307 77.5
-1.8677781 0.059565596 1.8546962 88
-1.7110945 0.075918242 1.8546462 78
-1.5313014 0.081152245 1.8544186 94.25
-1.4229261 0.086118318 1.8482987 97.333336
-1.2904565 0.021940079 1.8450958 88
-1.1484678 0.090246104 1.8348324 79.599998
-0.98112583 0.063785695 1.8315183 81.5
-0.82883984 0.074919917 1.830005 80.428574
-0.68067819 0.071995668 1.829535 78.545456
-0.50339037 0.095438093 1.8211061 82.666664
-3.2067597 0.15318377 1.8806444 86
-3.0813911 0.23638895 1.8768029 35
-2.9453115 0.19640699 1.8760184 75
-2.783247 0.18754342 1.8712316 74.5
-2.6251485 0.24302398 1.8671983 80
-2.464365 0.17158277 1.8635508 75.666664
-2.3631046 0.15898059 1.8609098 76
-2.142272 0.26275492 1.851514 78
-2.0017593 0.21963638 1.8505831 81.666664
-1.8805122 0.20572846 1.8490753 82.333336
-1.7166739 0.2382603 1.8500816 87
-1.5551031 0.24581671 1.848421 87
-1.4434935 0.24462794 1.8466282 93.25
-1.2963277 0.22745013 1.8367326 85.25
-1.1395766 0.23814237 1.8289803 80.5
-0.9817273 0.21421437 1.8292236 77.285713
-0.82712275 0.2250406 1.8235091 79
-0.67281365 0.22438493 1.8238297 76.727272
-0.49714732 0.21133995 1.8210297 78
-3.4534991 0.44578755 1.8742808 80
-3.2183652 0.41694707 1.8753499 86
-3.0848708 0.42864305 1.8735403 78
-2.9525278 0.39207774 1.8728452 76.5
-2.7958343 0.41617858 1.8646417 73
-2.5014145 0.35801515 1.8566613 76.666664
-2.3522809 0.35751113 1.8515877 81.333336
-2.0050762 0.37442631 1.8472711 80.5
-1.8788446 0.37575254 1.8430624 81
-1.7854846 0.34488866 1.8455414 85
-1.5482019 0.40399924 1.8440101 82
-1.437094 0.38826752 1.8416663 93.5
-1.294692 0.43788272 1.8376234 95.5
-1.1220564 0.37906814 1.8259405 78.400002
-0.97070253 0.38048127 1.8226613 75.714287
-0.8288793 0.36849007 1.8191843 76
-0.67983329 0.36281508 1.8216174 71.625
-0.52370864 0.37678859 1.8217891 62.5
-3.7672057 0.54089123 1.8904003 83
-3.7151222 0.52938604 1.8848002 87.5
-3.4879334 0.54669988 1.8748122 76
-3.4155726 0.47546166 1.8782448 84
-3.2635562 0.49593139 1.8696808 76
-3.0895216 0.53673571 1.8659114 86
-2.9306684 0.57958585 1.8679141 72
-2.6204565 0.46407354 1.8606066 77
-2.476347 0.55355787 1.8496853 70
-2.3615987 0.55644596 1.853425 38.666668
-2.1354158 0.45988157 1.8444549 76
-2.0088019 0.49178389 1.8409936 79
-1.8847996 0.53983206 1.8373346 84.333336
-1.7943531 0.51078802 1.8435143 83
-1.5701714 0.52772218 1.8374017 86.666664
-1.4273665 0.53430873 1.8392346 89.25
-1.2837999 0.58072662 1.8337485 93
-1.1127566 0.52783835 1.8205966 73.75
-0.97343194 0.51768053 1.8192872 72.25
-0.80269277 0.52056694 1.8165025 78
-0.67817163 0.5255788 1.8137515 73
-0.5132603 0.53438705 1.809727 80.571426
-4.1947007 0.67194051 1.887983 63
-3.8996022 0.69608849 1.8781227 65
-3.6644347 0.71937776 1.8854851 68
-3.4552517 0.72981918 1.8630618 73
-3.4147103 0.7343663 1.8688213 83
-3.2199583 0.68579644 1.8635029 76
-3.0947235 0.6823563 1.8652507 76
-2.9265928 0.66700727 1.8636277 77
-2.7464304 0.64023966 1.8592559 73
-2.6139534 0.68919235 1.8550912 75
-2.5160902 0.67049915 1.8500376 81.5
-2.3202531 0.7322346 1.8437437 78
-2.1277344 0.66215271 1.8425714 47
-1.9974512 0.68210196 1.8365465 52.5
-1.8625361 0.66008353 1.8301374 77.333336
-1.7875469 0.676673 1.8269335 92
-1.5800456 0.65553916 1.8331574 82.5
-1.4085265 0.68044019 1.8310959 85.75
-1.2666521 0.72667569 1.8305473 88.5
-1.1111184 0.65721154 1.8241887 86.666664
-0.96849322 0.65821403 1.8186504 71.666664
-0.83047742 0.68594003 1.8124987 72.400002
-0.67726964 0.67558324 1.8103285 73.300003
-0.53617859 0.68424076 1.8029729 79
-0.439215 0.66710985 1.8043714 78.5
-4.7148247 0.79151905 1.9027689 69
-4.3546166 0.8122077 1.8959106 67
-4.3364491 0.79764587 1.8920802 68
-4.1863441 0.80117601 1.8842629 70
-4.0044985 0.81271654 1.8833747 74.333336
-3.7891941 0.82592517 1.8937185 79.5
-3.7396765 0.82209587 1.8858336 77
-3.5383527 0.82419634 1.8822094 70
-3.2667198 0.76204634 1.8635739 70
-3.0890234 0.78596783 1.8617226 82
-2.9065328 0.8543433 1.8587018 75.5
-2.7369683 0.88437515 1.8511781 71
-2.5039861 0.82882583 1.8488884 77
-2.3774433 0.77051246 1.8449378 77.5
-2.1076729 0.86590064 1.8341213 81
-1.9615926 0.84422606 1.8364304 48
-1.8829813 0.78666329 1.8325667 42.666668
-1.7914151 0.85491049 1.8330299 41
-1.5530335 0.82005477 1.8239763 83
-1.4222211 0.82471371 1.825912 91.75
-1.3278487 0.82450068 1.8237406 86.5
-1.1294535 0.82944852 1.823989 89.333336
-0.95898753 0.81138974 1.8132025 80.833336
-0.81427872 0.82875746 1.8080641 76.25
-0.68581241 0.83459443 1.806731 77.714287
-0.55737132 0.8285895 1.8041364 72.285713
-0.39931256 0.82469493 1.8020693 71.5
-4.2147379 1.0094136 1.8778805 66
-3.9233012 1.0107021 1.8770708 67
-3.6763659 1.010132 1.8804094 70
-3.4758017 1.026529 1.8654553 82
-3.4274983 1.0052459 1.8697604 88
-3.2466969 0.9983511 1.8578635 74
-3.0925472 0.99209309 1.8562577 80
-2.9542356 0.98545206 1.8557446 81.5
-2.601372 0.9174155 1.8480326 70
-2.4697645 0.99244916 1.8475734 81.5
-2.3553801 0.96617442 1.8398004 76.666664
-2.0035119 0.90936029 1.8335708 70
-1.8874784 0.97058076 1.8255645 78.75
-1.7891573 1.0055854 1.8246455 89.5
-1.5721123 0.97418255 1.823908 39
-1.4265287 0.99769819 1.8209126 45.5
-1.3155437 0.96177393 1.8146926 75.333336
-1.0910134 0.97065687 1.8167423 90.666664
-0.98849964 0.97747862 1.8126581 89.199997
-0.8409133 0.97223294 1.8106735 83.75
-0.68423045 0.99160254 1.8062973 85.199997
-0.54027742 0.98434621 1.8039848 72.333336
-0.44240797 0.96816844 1.8027409 70
-4.7415247 1.1648922 1.8923256 70.5
-4.3810339 1.1517701 1.8900032 72
-4.20854 1.1439356 1.8786873 60
-4.0905495 1.1423928 1.8822571 73
-4.0060406 1.1291171 1.8773093 69.5
-3.7801704 1.1185536 1.8723483 69.666664
-3.555867 1.1035479 1.8669213 75
-3.0073333 1.180642 1.8477865 78
-2.9100544 1.1453985 1.8497366 82
-2.7252591 1.13661 1.8449308 79
-2.5877357 1.1547558 1.8446859 83
-2.4927387 1.1226437 1.8409854 81
-2.3307192 1.1673281 1.8384509 84.5
-2.0298574 1.0922537 1.8288008 71.5
-1.8496599 1.1367826 1.8215022 77
-1.7703985 1.1508031 1.8252159 76
-1.528254 1.1479864 1.8097445 89
-1.4043239 1.1502056 1.8128022 54.666668
-1.302102 1.1370924 1.8159752 36.5
-1.0854582 1.18208 1.8178779 33
-0.96201891 1.1149935 1.8079225 81
-0.82634574 1.14555 1.8085874 80.800003
-0.67138702 1.1260215 1.8043951 86
-0.5264827 1.1099273 1.8026758 87
-0.43779948 1.1823503 1.8024138 80
-3.9358346 1.3343468 1.8675541 69
-3.6676579 1.3039756 1.8612176 72
-3.4804235 1.332342 1.8575991 74
-3.4305038 1.2819005 1.86224 80
-3.2456868 1.2823596 1.8508096 71
-3.0944104 1.2604985 1.8510308 80
-2.9017155 1.2940273 1.8503624 90
-2.4782534 1.2969888 1.8320116 74
-2.3890824 1.2154645 1.833578 82
-2.0504789 1.2932453 1.8221194 69
-1.8952595 1.2898844 1.8201846 77.333336
-1.7655329 1.2853022 1.8180448 77.666664
-1.4173942 1.3112391 1.8048329 82.333336
-1.2620916 1.2947733 1.8079565 68.25
-0.99712873 1.2989354 1.8062446 33.5
-0.8609097 1.3228577 1.8038433 31
-0.74563384 1.3070148 1.8013786 67
-4.2427926 1.363832 1.8720943 68
-4.100729 1.4687897 1.87318 71
-3.9879358 1.4701663 1.8683401 65
-3.8135855 1.4332594 1.8689303 69.666664
-3.5890851 1.4028356 1.8605882 71
-3.0174716 1.4524132 1.8411709 72
-2.9250567 1.4049549 1.840854 85
-2.7091222 1.3989891 1.840257 74
-2.5618041 1.3972228 1.8346721 72
-2.4275417 1.3912401 1.8326582 79
-2.336153 1.4076847 1.8291842 78.333336
-1.8486595 1.4131858 1.8109766 79.5
-1.7448317 1.4211223 1.8109463 70
-1.3236958 1.3953462 1.8029763 80
-1.1948973 1.3519622 1.8048145 78
-0.82253075 1.4657326 1.8025185 37
-4.7754726 1.5576355 1.8827068 63.5
-4.4122667 1.5130866 1.8816475 69.5
-4.2410288 1.5064111 1.8776845 69
-3.6836808 1.6214541 1.8578397 75
-3.4363387 1.5737512 1.855672 75
-3.2477717 1.5833824 1.8484428 70
-3.0906696 1.5410516 1.8436109 79
-2.8860171 1.5492681 1.8424567 83
-2.4701121 1.5992321 1.8342737 63.25
-2.2962437 1.6181805 1.8254346 77
-2.0095918 1.5161891 1.8151633 83
-1.8974503 1.5177908 1.8136021 70
-1.7529385 1.5500028 1.8095783 79
-1.4269196 1.5204568 1.8037661 73
-4.277041 1.7388867 1.8684171 70
-3.9260318 1.7284021 1.8624047 67.5
-3.8155146 1.758316 1.8581511 70
-3.626307 1.7220374 1.8536144 67
-3.4881122 1.6562158 1.8544906 76
-3.0264497 1.7431833 1.8329085 77
-2.9420371 1.6825542 1.8347117 77
-2.679039 1.6685078 1.8278121 73
-2.4046066 1.7711208 1.8171865 74
-2.3648791 1.7002364 1.8191873 78
-1.9612087 1.7493347 1.8090283 75
-1.8381851 1.7034426 1.8084321 74
-1.737167 1.7173979 1.8023376 77
-1.6404743 1.6998031 1.8067764 70
-4.447825 1.8962977 1.8722012 72
-4.2502384 1.878994 1.8630642 70
-4.1442184 1.8294995 1.8706751 64
-4.0348191 1.8354979 1.8726166 39
-3.4382794 1.8816179 1.8460587 81
-3.2437494 1.8995287 1.8428489 75.5
-3.0930638 1.8421422 1.8426774 82
-2.8661373 1.8165919 1.8338453 83
-2.4787784 1.8816116 1.8181659 78
-2.3392563 1.8802296 1.8186874 9
-1.7305582 1.91256 1.8007668 77.5
-4.8232994 1.97719 1.8765595 63
-3.9737158 2.0413013 1.8555316 79
-3.8560541 2.0985734 1.8590845 75
-3.6773026 2.0092249 1.847021 75
-3.4845743 1.995189 1.8450016 77
-3.0416131 2.0590265 1.8320626 79
-2.9637568 1.986167 1.8326656 78
-2.6474895 1.9552605 1.8196653 73
-2.3397737 1.9588075 1.8066021 2
-1.7923226 1.9663597 1.8050426 5
-4.2621665 2.1860139 1.8615358 69
-4.1434116 2.1895552 1.8575152 72
-4.001493 2.1810267 1.8598046 69
-3.846673 2.1336339 1.8458163 71
-3.4467146 2.2144353 1.8395027 77
-3.2120459 2.1962967 1.8298854 64
-3.081965 2.1563458 1.8333187 75
-2.8557913 2.1109581 1.8348309 91
-4.5052686 2.3240294 1.8642663 68
-4.477345 2.2977319 1.8628083 69
-4.2730031 2.2814527 1.8533317 71
-3.6968892 2.3099473 1.8356785 70
-3.4819424 2.3601754 1.8362521 62
-3.2419708 2.2643404 1.8309792 79
-3.0394294 2.3900146 1.8195623 3
-2.972976 2.3078444 1.8206941 2
-2.8029346 2.3894145 1.8017622 2
-2.611274 2.2620947 1.8137723 66
-2.338434 2.333014 1.801149 57
-1.458034 2.3464825 1.8096737 63
-1.0995632 2.3667762 1.8019615 27
-4.8735971 2.4266176 1.8666916 29.5
-3.9962864 2.4889808 1.8498122 68
-3.8825445 2.5013566 1.841113 64.5
-3.7056103 2.4392922 1.8361117 72
-2.3749547 2.426055 1.8008202 8
-4.2785974 2.5967674 1.8377615 61
-4.120965 2.6054962 1.8407179 69
-4.5502028 2.7672179 1.8580178 50
-4.2809253 2.706953 1.8335272 39
-4.9352798 2.9203205 1.8579582 58
-4.3608375 3.0287664 1.8313226 4
-5.0129185 3.4742889 1.8504645 27.5
-3.7433884 -2.7220013 1.9835469 15
-2.8876441 -2.7421625 1.9576179 1
-2.5217221 -2.5369837 1.9504119 6
-1.014146 -1.605267 1.9520999 0
-0.8678472 -1.4225715 1.952474 0
