# .PCD v0.7 - Point Cloud Data file format
VERSION 0.7
FIELDS x y z intensity
SIZE 4 4 4 4
TYPE F F F F
COUNT 1 1 1 1
WIDTH 68
HEIGHT 1
VIEWPOINT 0 0 0 1 0 0 0
POINTS 68
DATA ascii
0.68759215 -2.7817941 -0.78329051 3
2.1670642 -0.71000522 -0.76101851 3
0.11130002 2.3169961 -0.77115798 86
0.20475675 2.3742235 -0.79036093 67.333336
-0.16369048 2.5449553 -0.81219292 57
-0.11124891 2.4594994 -0.76544458 60.57143
-0.20363235 3.4801807 -0.79705906 36.333332
2.3868835 -1.0982263 -0.64823133 7
2.2877655 -0.93969965 -0.676741 10.5
2.2358665 -0.83458304 -0.60330492 7
2.1621401 -0.69283593 -0.69354904 7.5
0.8464492 1.6392285 -0.63172525 77
0.80930495 1.6989368 -0.62566954 85.333336
-0.032774512 2.3219509 -0.68096095 68.5
0.059073325 2.28461 -0.69985485 73.333336
0.22401048 2.3725936 -0.74865931 30
-0.11187471 2.4596338 -0.73743343 62
-0.081976399 -4.2357373 -0.50059986 9
2.2337823 -2.9313526 -0.5511381 1
2.2202792 -0.78366017 -0.58405435 3
2.1123085 -0.59485561 -0.59680712 2
1.478563 0.38495013 -0.4943352 61.333332
1.4386389 0.54313296 -0.49038094 75
1.1697121 0.85530955 -0.4793905 8
1.2137859 1.0103295 -0.45366061 85
1.1417346 1.1216825 -0.51786172 87.599998
-0.013761896 1.3248352 -0.46150178 13
1.0334096 1.3111749 -0.48672539 88
1.071388 1.2431279 -0.50919509 91.5
-0.18582013 1.3725379 -0.47828823 3
0.97971338 1.4116946 -0.53078645 77.25
-0.23266248 1.5648273 -0.48479173 35.333332
0.40641451 1.6207365 -0.54995584 36.5
0.48095563 1.6283609 -0.47224391 62
0.86023068 1.6281538 -0.50940526 79.5
0.92386472 1.5086863 -0.566939 84
-0.22288662 1.6838349 -0.52574199 49
0.57850629 1.679979 -0.52792525 59.333332
0.68106508 1.7383018 -0.55221462 66.25
0.78292948 1.7479607 -0.54928637 80
0.072056249 2.2838943 -0.46414593 73
2.2477922 -0.84426254 -0.4237974 6
1.3029385 0.26698983 -0.43679339 1
1.3865143 0.38906705 -0.43716022 121
1.5443388 0.32430044 -0.40234652 86
1.1201607 0.54779345 -0.43285015 153
1.4574459 0.52099741 -0.43120262 75
1.3073673 0.73953366 -0.42500839 17
1.4246562 0.62762284 -0.41611654 96
1.3516604 0.7787258 -0.42601639 15
1.2601922 0.93620408 -0.42989692 14
-0.32576737 1.1759191 -0.41482747 14.5
1.1309352 1.1525173 -0.42150956 86.5
-0.041873701 1.2908795 -0.42954287 3
0.23834325 1.322844 -0.41305754 4
1.0311507 1.3195021 -0.44960561 84
-0.13846798 1.4189433 -0.44423357 6
0.096790284 1.3894869 -0.41172796 7.5
0.27802974 1.4971504 -0.44505206 14
0.97411329 1.4188645 -0.43551558 81.599998
-0.25546777 1.6114168 -0.44787049 9
0.40911415 1.602493 -0.42466673 69
0.87251192 1.5994661 -0.43956169 77
-0.26317656 1.6707056 -0.43126816 150
-0.068704292 1.6770619 -0.4462907 0
0.80173331 1.741051 -0.42406127 83
-0.017466772 2.3139415 -0.43125233 58
-0.13680772 2.5625069 -0.42404091 56
