# .PCD v0.7 - Point Cloud Data file format
VERSION 0.7
FIELDS x y z intensity
SIZE 4 4 4 4
TYPE F F F F
COUNT 1 1 1 1
WIDTH 992
HEIGHT 1
VIEWPOINT 0 0 0 1 0 0 0
POINTS 992
DATA ascii
0.062352043 -0.362757 -0.17278129 2.5999999
0.20433383 -0.35472772 -0.18093477 2.5999999
0.37128696 -0.34963846 -0.17714116 0.875
0.51374567 -0.34309897 -0.17950328 0
0.69028819 -0.3547686 -0.18146127 0
0.86881179 -0.35939112 -0.17079552 0
0.97261471 -0.32180965 -0.18618745 0
0.97744441 -0.21383613 -0.16286811 9
0.37145609 -0.018063914 -0.17862135 4
0.4590162 -0.0061309072 -0.18617088 5
0.69170988 -0.052299194 -0.17763786 8
0.99947995 -0.10421384 -0.17648832 11.333333
0.41719818 0.077880986 -0.17749052 8.3500004
0.62768382 0.010707112 -0.17953023 7
0.8775124 0.030728748 -0.15243199 12
0.97731096 0.068425789 -0.17989537 12.5
0.96197629 0.36216325 -0.17040996 13.5
0.94547439 0.53286731 -0.17721112 12.75
0.93262511 0.64626074 -0.17104422 13
0.91498607 0.82377577 -0.17832638 12.5
-0.67939156 1.048053 -0.18797353 11
-0.067215391 1.0424752 -0.17767824 0
0.003679049 1.0179241 -0.19872367 3
0.18455178 0.99014097 -0.16144235 0
0.89783335 0.99846846 -0.16592708 33
0.90661597 0.95001912 -0.16854991 11.5
-0.67879564 1.0762974 -0.18217313 13.166667
-0.55531037 1.0902754 -0.17574444 10.571428
-0.38815019 1.1068143 -0.16470672 18.6
-0.044378687 1.0728151 -0.15380214 0
0.27412647 1.0916469 -0.16618755 0.5
0.32074243 1.0990798 -0.17423168 5
0.51301438 1.1788746 -0.17779285 10
0.89362174 1.1129658 -0.16665639 39
-0.84470105 1.2041479 -0.17375772 2
0.46371475 1.2531832 -0.18560643 6.6666665
-0.30275255 1.4556949 -0.16285661 17
-0.2369813 1.4692512 -0.18472254 20
-0.0086286543 1.4344941 -0.16713211 1
1.0821409 -1.2445076 -0.049402002 0
-0.7767145 -0.43171087 -0.034795597 4.6666665
-0.66434443 -0.42768428 -0.064874157 4.9473686
-0.54886472 -0.41804284 -0.095632948 5.9375
-0.43823552 -0.40184274 -0.018937385 4.5
-0.020704728 -0.36275202 -0.094857343 2.5
0.083051696 -0.35409781 -0.10888728 2.2222223
0.22228903 -0.35287955 -0.1069416 2.0769231
0.37567747 -0.34283787 -0.10337232 0.58823532
0.52020222 -0.32838103 -0.097141035 0
0.6403746 -0.31875864 -0.08113087 0
0.88247514 -0.35765186 -0.10688192 0
0.9451974 -0.33703211 -0.088928066 0
0.72143608 -0.2965714 -0.01422966 0
0.88723713 -0.24935828 -0.035903294 0
0.97876215 -0.21166304 -0.085857071 7.25
0.51339644 -0.052455075 -0.1253489 3
0.98001415 -0.10425114 -0.088428095 10.153846
0.42524514 0.1047108 -0.14899296 8.5
0.76736087 0.036453437 -0.13813189 11
0.99259919 0.053567436 -0.1322892 12
-0.86691737 0.17725523 -0.032344982 1.6666666
0.4293257 0.15900064 -0.14166687 2
0.49255091 0.29620481 -0.064346947 5
0.83307654 0.22884846 -0.13020158 13
0.97096646 0.29201281 -0.11539128 12.25
0.95968384 0.3776955 -0.086600922 12.611111
0.94459587 0.52021229 -0.088341378 11.9375
0.89689833 0.71105725 -0.03430802 1
0.92816228 0.68038911 -0.097081937 11.666667
0.91860062 0.82237071 -0.070078053 8.666667
-1.0632912 0.96609885 -0.013210331 0
-0.96115637 0.98475468 -0.025165629 1
-0.87000978 0.97287673 -0.074829675 0
-0.087985307 1.0077769 -0.0067327665 0
0.099249683 0.98978525 -0.12238941 0
0.19115229 0.97659642 -0.14279799 0
0.35938776 1.0008726 -0.020235037 0
0.89177758 1.0192121 -0.11692549 54
0.90977716 0.98150301 -0.095001392 22.75
-0.8044135 1.0819557 -0.11046888 4.8571429
-0.66543525 1.0774082 -0.12041675 8.2857141
-0.52842879 1.0918062 -0.11963712 11.4
-0.39974177 1.0974107 -0.12366875 11.333333
-0.19104508 1.1340714 -0.11144539 12.75
-0.077173911 1.0977612 -0.074654907 5.125
0.059267975 1.0728129 -0.049084023 1.6923077
0.22824168 1.0748855 -0.089504607 1.5
0.33298093 1.0788841 -0.069168732 1
0.89093649 1.1478227 -0.095155038 60.285713
0.92851299 1.1631625 -0.024224645 0
-0.93374932 1.2491415 -0.11394522 1
-0.81815243 1.219505 -0.12112691 2.5
-0.078449987 1.2782103 -0.1377641 13.666667
0.8682304 1.2659085 -0.073300637 35.25
-0.30730939 1.4579576 -0.13620172 15
-0.24401625 1.4558049 -0.1481577 21
-0.04375061 1.3886192 -0.13744241 0.5
0.85035914 1.3948647 -0.047880683 1
-0.9816649 -0.4539417 0.13630462 3
-0.91846001 -0.4448005 0.11596384 2.5
-0.80599892 -0.43458393 0.10221113 3.6153846
-0.67078763 -0.42359713 0.089895733 4.5833335
-0.51994193 -0.4109503 0.079835609 5.8888888
-0.39187089 -0.40191779 0.071452342 6.0714288
-0.22849256 -0.38385028 0.055248804 5.6666665
-1.0199999 -0.20776895 0.12906745 4
0.87769347 -0.28145841 0.015054579 1
1.1256609 -0.21242082 0.037982367 10
1.2644764 -0.18906501 0.11207282 20
-1.0653152 -0.059388705 0.12755628 0
-1.0398124 -0.071594574 0.1010666 0
1.2376531 -0.069716044 0.13779712 2
-1.0559943 0.0056915078 0.097799413 0
-0.9837783 0.09705624 0.087366894 0
-0.9387691 0.17906645 0.13957641 0
-0.87830329 0.17306048 0.0081781996 1
1.1603889 0.36396775 0.030476119 35
1.2158289 0.43027461 0.098972082 56
1.0689956 0.49048606 0.00028821349 4
1.2080698 0.54015416 0.090490825 65.333336
1.1809167 0.67791063 0.074481636 58.5
1.2060797 0.65602434 0.09762913 43
1.0479492 0.82237703 0.0045689298 2
1.1768118 0.80561227 0.081497654 40.42857
-1.2517685 0.92283899 0.12061165 5
-1.1215433 0.93937737 0.10100922 1
-0.98057133 0.96316844 0.071934305 1
-0.86285037 0.95488334 0.051698968 0.33333334
-0.083774485 1.0364804 0.055231582 0
0.087809965 1.0212728 0.11775246 0.72727275
0.19901101 1.0427928 0.089420341 0.625
1.2134867 0.92283773 0.095303498 4
-0.052577585 1.0631136 0.019996447 1
0.25444809 1.0580046 0.054386493 0.5
0.34282127 1.0602691 0.030730247 0.2857143
1.1920209 1.1230251 0.047605153 13
1.2165954 1.1132411 0.076574542 5
1.193696 1.2691554 0.077618353 12
1.2243226 1.2779884 0.13562015 5
1.130736 1.3510602 0.13664299 18
-1.085686 1.6321549 0.081051312 1.5
-0.97770274 1.6436028 0.13635007 2.5
-0.19757234 1.5998176 0.04743953 3
-0.098469421 1.6320851 0.034420382 9
-0.96960926 1.6563491 0.12739812 3
-0.84582675 1.6622903 0.063239194 0.80000001
-0.68838042 1.6744959 0.094561785 3.75
-0.57681525 1.6734531 0.084114566 6.1999998
-0.16729403 1.688431 0.095462739 4
-0.11718503 1.7055756 0.068874709 5
1.3450494 -0.99412757 0.18638617 0
-1.1118045 -0.46631321 0.24493925 1.7142857
-1.0026278 -0.45529231 0.20951657 3.2
-1.1173475 -0.31823218 0.22526258 0.75
-0.94954503 -0.44479787 0.22435226 3
-0.83423507 -0.43438354 0.22339402 4.3846154
-0.66202509 -0.41978505 0.21104275 4.2222223
-0.51664221 -0.40736741 0.21811935 4.6086955
-0.38750905 -0.39555129 0.24487863 4.625
-0.28309202 -0.38006562 0.19771186 6
-1.1373868 -0.18458857 0.25206712 1.2
-1.0138199 -0.22555196 0.17009428 3
1.1646028 -0.20742737 0.18307799 26
-1.2219052 -0.019170472 0.28486255 0
-1.1583717 -0.087534584 0.24253683 0
-1.2176327 0.035177492 0.24919671 1.5
-0.9950639 0.11297555 0.15785956 0
-0.96500373 0.15650374 0.17146072 0
1.2115501 0.48848841 0.17017892 69.5
1.193831 0.69983912 0.21601196 59.75
1.2061832 0.62952298 0.23004064 39
-1.1005647 0.86505336 0.21854691 1
-0.99198759 0.8712014 0.23574501 0.5
0.059439357 0.86856568 0.27497065 0.75
0.25495794 0.87217104 0.28358886 0
1.1601424 0.80571848 0.22447103 51.090908
1.2019595 0.88921678 0.22989237 19
-1.2153841 0.91553992 0.17476046 2.4000001
-1.1130772 0.91306514 0.19333492 1.1428572
-0.99357527 0.93875712 0.17653437 1.1666666
-0.86452365 0.93589061 0.20024672 0
0.034883857 1.0074015 0.15337989 0
0.21953805 1.0179105 0.26083943 0.66666669
1.132399 0.96865052 0.25880787 44
1.2114787 0.90595216 0.1671678 17.666666
1.1185613 1.1101803 0.24310327 43.400002
1.1223831 1.2872071 0.23456229 30.111111
1.2343137 1.2741305 0.21208519 4.5
1.0951817 1.4154853 0.24654789 35.200001
-0.061785404 1.6377068 0.26156402 5.25
1.0644325 1.7387731 0.23745948 32
1.0563854 1.9184259 0.23124743 42
1.0434034 2.0483615 0.22501212 2
1.0536852 2.0064189 0.26556554 42.5
-1.5071964 -0.50299364 0.30376381 0
-1.3014503 -0.47846913 0.38572502 1.25
-1.1195998 -0.46776277 0.35761756 2
-1.0177109 -0.45605651 0.3596229 2
-1.2249762 -0.34262466 0.39654222 4.5714288
-0.94263065 -0.44674468 0.37907106 2.25
-0.81329936 -0.43106568 0.38382924 4
-0.68274993 -0.41805837 0.35836974 4.3333335
-0.51475376 -0.40303943 0.37942228 4.4375
-0.38057607 -0.38933942 0.36799878 3.45
-1.2235789 -0.26582158 0.39568833 0
-1.1673722 -0.20340601 0.3794401 0
-1.2102122 -0.01543617 0.33296955 0
-1.1692516 -0.090303555 0.37666479 0
-1.2848383 0.049479354 0.39312711 3.7
-1.0771039 0.83372754 0.37940288 0.75
-0.95089364 0.8437978 0.38577804 3.75
0.00051839353 0.87879425 0.32827395 1
0.2928924 0.87755466 0.31118977 0
1.1646843 0.80804479 0.33456519 59
-1.2423912 0.96129483 0.43182063 2
-1.0783396 0.96491146 0.39621177 1.8
-0.96908742 0.99780446 0.40411195 2.8
-0.0014812828 0.92284554 0.36813986 0
0.072821163 0.99126393 0.33730537 0.69230771
1.1332085 0.97705746 0.35018587 45.125
1.1214372 1.1261618 0.36202765 41.099998
1.1118695 1.261344 0.39250422 39.57143
1.0976547 1.4369713 0.35661119 35.200001
-0.06957262 1.6333081 0.32836092 7.5
1.0854418 1.5728468 0.38420358 37.375
1.0707152 1.7261026 0.42304882 35.5
1.0636133 1.9236668 0.341618 39
1.0590776 1.9717163 0.30745119 40
-1.3952698 -0.49009776 0.564134 0
-1.2747755 -0.48343372 0.53517407 0.5
-1.130913 -0.45069504 0.52836514 3.5
-1.0372429 -0.45115733 0.50343072 1
-1.242252 -0.31711528 0.46920037 6
-1.1483326 -0.42194057 0.55013406 1
-0.96406001 -0.44328141 0.50202996 1.2
-0.82149917 -0.43144068 0.52014673 2.1666667
-0.65969431 -0.41482857 0.52699453 4
-0.50854826 -0.39859608 0.51565933 4.5999999
-0.40505737 -0.39005551 0.52284521 3.75
-1.221352 -0.2452122 0.56522965 15
-1.187058 -0.17730759 0.5299753 0
-1.2150819 -0.067761421 0.55791312 0
-1.1843505 -0.059889629 0.47692689 0
-1.2593199 0.049319819 0.53754336 7.8333335
1.1172723 1.1552269 0.49384743 35
1.1080271 1.2869552 0.50625604 35.333332
1.1018066 1.4150839 0.52009106 33.625
1.0873525 1.5576667 0.55193985 33.75
1.0730512 1.7178741 0.48940331 34.25
1.0699021 1.8769225 0.56611753 35.75
-1.122447 -0.45091718 0.65839356 5.5
-1.2064054 -0.3018246 0.62751353 4
-1.1313157 -0.43452251 0.67806292 3
-0.95865208 -0.43784398 0.65103436 3.25
-0.82880706 -0.42628917 0.6902023 1.75
-0.6946761 -0.41589487 0.67536789 1.3333334
-0.53063583 -0.40264553 0.67856693 2.5
-0.4333047 -0.39035186 0.65121585 4.3333335
-1.2326763 -0.21575046 0.66048861 9.1999998
-1.1725304 -0.17961657 0.72666359 7
-1.2280653 -0.11042918 0.68154627 9.25
1.1117187 1.2998302 0.62812245 31
1.1028354 1.4309775 0.64613575 33.57143
1.0867537 1.5796201 0.69627446 29.875
1.0773653 1.7186302 0.66458315 34
1.069663 1.8586485 0.61373782 31.5
1.0589213 2.0253811 0.69995284 34
1.0434687 2.1269071 0.71940899 27
1.3846173 -1.5486944 0.76635492 0
-1.1139095 -0.45058891 0.82607597 5.5
-1.2552457 -0.30083525 0.81775832 5
-1.1114224 -0.44906643 0.84849095 6
-1.0323142 -0.44343704 0.78255033 0
-0.84054738 -0.42495543 0.83483666 2.2
-0.64974189 -0.40762877 0.82680053 2
-0.51600099 -0.39495477 0.82581151 1.75
-1.2035571 -0.28364086 0.80961347 6
-1.1271299 -0.22413567 0.81203145 2.8888888
-1.1522244 -0.10316873 0.8266772 5
1.0936182 1.5688221 0.81985927 32
1.0844748 1.7248919 0.82353044 29.875
1.0707735 1.8735739 0.80174714 30
1.0613471 2.0122614 0.76403141 27
1.0434813 2.1887741 0.82545549 28.333334
-1.2363093 4.1248913 0.89387882 87
-1.1165144 4.1343536 0.86734504 93.5
1.371974 -1.4879807 0.91697431 0
-1.0552632 -0.4407028 0.9625808 5
-0.99527931 -0.43545732 0.99402958 4.6666665
-0.79018241 -0.41382354 0.95284879 2.5
-0.66005212 -0.40383831 1.0155174 2.4000001
-0.5251503 -0.39038566 0.99104118 2.25
1.0835191 1.732399 0.94608051 29.666666
1.071422 1.8719527 0.95642161 25.5
1.062268 1.9793921 0.98686773 25
1.0433002 2.1953487 0.9224788 26
1.0559058 2.1325719 0.92616665 26
1.0385106 2.3183465 0.92834795 24
1.0302131 2.4544909 1.0401067 28.5
-1.3070292 4.1111159 0.95717859 91.333336
-0.72150666 4.1724825 0.98340887 90
-0.96480525 -0.43505973 1.0674436 4
-0.79634058 -0.41535556 1.1282729 5
-0.69644612 -0.40594748 1.119298 5
-0.52642822 -0.3935107 1.1226202 5
-0.38846442 -0.37928963 1.17357 6.3333335
1.073676 1.8834639 1.0900836 24
1.0637231 1.9974512 1.1525172 13.5
-1.4088829 4.1038222 1.0691394 83
-0.98571646 4.1459751 1.1057545 98
-0.71878707 4.1717 1.1355042 102
-0.62185615 4.2014174 1.1933776 0
-0.52896315 -0.408631 1.3166463 156
1.0654874 2.0186026 1.253329 24.5
1.0577759 2.1685593 1.2939082 18.75
1.0473955 2.2814517 1.33165 25.5
-1.2536458 4.1201491 1.29223 91
-0.96733475 4.1532669 1.2678382 98.5
-0.70777696 4.178431 1.25919 89.333336
-0.65411472 -0.42737368 1.4568874 154
-0.53493494 -0.41275567 1.4102303 153.5
1.059947 2.2150066 1.4362253 24.666666
1.0410198 2.3672111 1.3922046 25.333334
1.0502059 2.3278475 1.4832568 27
1.0419471 2.4351289 1.4847552 26
-1.2310296 4.1296997 1.4062277 96
-0.95743906 4.1597714 1.4254601 89.5
-0.81773007 4.1723409 1.3749344 93
-0.76063502 -0.45716593 1.6104786 150
-0.64470094 -0.43495703 1.6252685 150.5
-0.51591617 -0.4101015 1.5810781 151
-0.40733251 -0.4166252 1.6173767 150
0.74531966 2.1772726 1.6141241 4
0.73480016 2.3523064 1.6275607 10.666667
1.0391737 2.3819075 1.6297108 16
1.0526382 2.3221049 1.5561745 27
1.0345488 2.4866068 1.5789782 24.75
1.0104095 2.5881479 1.6394401 6.5
0.63432002 3.5541294 1.6396557 16
0.60564709 3.7259765 1.6202151 7
0.94817084 3.701901 1.5834299 18
0.89559418 4.0169363 1.6187803 1
-1.2118593 4.1361036 1.5798604 85.5
-1.1494057 4.1410871 1.6119552 83
-0.97631139 4.1555386 1.5386283 86
1.2926685 -2.5013313 1.7739636 0
1.3592702 -2.5276718 1.7674605 5
-1.0913963 -0.52270854 1.7875928 150
-0.95613927 -0.48511255 1.7522769 142.5
-0.84460044 -0.47865629 1.7345463 139.66667
-0.60899389 -0.42698264 1.7294037 120
-0.53859305 -0.41418344 1.7771932 82
-0.39934638 -0.40673593 1.6543809 150
-0.33970809 1.3236589 1.7993444 75.5
-0.51012945 1.4305234 1.798722 51.5
-0.22723033 1.4249185 1.7962737 56.666668
-0.075501703 1.4474996 1.7942311 47.666668
-0.21038766 1.5882562 1.7965986 35.166668
-0.046629991 1.6163112 1.7944036 36.666668
0.062543437 1.6042122 1.7956275 28
-0.77512199 1.7410195 1.7968756 66
-0.54052448 1.6893051 1.7982917 66
-0.37995684 1.7167355 1.7921304 71.333336
-0.23017927 1.7478449 1.7885903 64.5
-0.079934217 1.7254163 1.7888674 69.285713
0.05804953 1.7188603 1.7855259 68
0.15139426 1.7882768 1.7842904 67
-0.55473459 1.9080651 1.7934963 59
-0.36209941 1.8742317 1.7930247 64
-0.24111715 1.8761065 1.7917423 63
-0.061207905 1.8854688 1.7872311 64.666664
0.082499325 1.8592943 1.783741 70.166664
0.19914515 1.9046036 1.7843002 66.5
0.36023295 1.9401125 1.7782022 65
-0.65940839 2.0259655 1.7953906 60.666668
-0.40803564 2.0348537 1.7906806 59
-0.19694474 2.0258703 1.7878 59.5
-0.11527335 2.0695143 1.7865874 64.5
0.060113881 2.0034659 1.7824084 68.666664
0.23332381 2.0356929 1.7806813 65
0.35201699 2.0561941 1.7785916 61
0.48396099 2.0598371 1.7756959 58
-0.80548489 2.2390249 1.7931892 49
-0.68621755 2.1502869 1.7940809 58.666668
-0.55889803 2.2078648 1.7877456 59.333332
-0.31228909 2.2258551 1.7854899 55
-0.25780636 2.1537092 1.7858964 51
-0.067354128 2.1787448 1.7849691 61.200001
0.032411229 2.2392678 1.7828993 61
0.16678999 2.177273 1.7737573 64
0.38198915 2.1712141 1.7768834 64.375
0.51849848 2.1844811 1.7760514 61.666668
0.67439294 2.2130547 1.7432984 53
-1.1408522 2.3149707 1.7986597 61.666668
-0.480912 2.3287671 1.776611 56
-0.168916 2.3952737 1.7867273 61
-0.12646461 2.3067727 1.7810694 55
0.064072892 2.3266938 1.7810446 65.800003
0.32329291 2.3088515 1.778689 69
0.53814739 2.2990019 1.7736698 63
0.68874365 2.3547726 1.7450466 49.142857
0.85972327 2.3219571 1.6890972 42.5
0.95766503 2.3709633 1.687718 52
-1.0502937 2.5008104 1.7957577 50
-0.45434487 2.4789391 1.7896992 54
-0.4035053 2.4792771 1.7818612 55.25
0.019939225 2.4723108 1.7852694 58
0.2043938 2.4704258 1.7799071 56.166668
0.49095309 2.4252665 1.7712985 60
0.67350966 2.474406 1.7657188 59.666668
0.84787655 2.4596183 1.6872894 50
0.94643587 2.505439 1.6867477 51
-1.7439995 2.5831599 1.7981478 73
-1.3120816 2.6675887 1.7988571 60
-1.0687203 2.5534873 1.7902576 62
-0.99407047 2.6440668 1.7848555 51.5
-0.5065155 2.5610423 1.7873791 50
-0.31910226 2.6429176 1.7835716 56.5
-0.26798314 2.6861348 1.7766019 55.5
-0.0082492707 2.5577552 1.779781 61
0.1834109 2.6318507 1.779034 54
0.3661364 2.6279724 1.7735199 59.333332
0.82498246 2.5500364 1.6809779 47
0.97832543 2.5904326 1.6828691 51
-1.7329974 2.7912972 1.7976056 75
-1.4052426 2.7438798 1.7950114 68
-1.1188183 2.8369381 1.793557 68
-0.97788304 2.7620726 1.7859408 61
-0.61727077 2.7342696 1.7875835 50
-0.36737129 2.7663832 1.7839972 58
-0.18509668 2.78142 1.7722994 57
0.16885354 2.7265935 1.7765049 63
0.36228901 2.7895412 1.7691489 58
0.52624941 2.7629402 1.7655866 48.25
-1.7039332 2.9185977 1.7959589 63.5
-1.1937878 2.9335859 1.7905802 62
-0.92425382 2.9892056 1.7883762 64
-0.87315702 2.9030914 1.7787019 57.5
-0.45349452 2.9568355 1.7764798 64
-0.40428627 2.8556473 1.777805 55
-0.19659966 2.9231462 1.7774198 61
-0.087825261 2.9255602 1.7687769 58
0.36411405 2.8874946 1.7645406 59
0.54738331 2.9033699 1.7616549 52.5
-1.62865 3.1199584 1.7967455 67
-1.2813362 3.0340295 1.7882167 61
-0.99142474 3.1009855 1.7846988 64
-0.7983551 3.0801346 1.7775078 63
-0.23362443 3.084517 1.7739717 61
-0.020483989 3.0902541 1.7776128 64
0.046980545 3.0637975 1.7669212 53.5
-1.6151162 3.2540982 1.7947754 61.5
-1.0594426 3.2299778 1.7891454 60
-0.78844619 3.2554893 1.7798215 57
-0.70542067 3.2326379 1.7757767 58
-0.2678062 3.1999545 1.7721962 59
-0.032049794 3.1978335 1.7667438 60
0.10652265 3.1933455 1.7625399 55.5
0.21110685 3.2569456 1.7622141 52
-2.4016097 3.4432051 1.7993313 58
-1.7582442 3.4162149 1.7936066 62
-1.5472689 3.3473082 1.7946209 60
-1.1381117 3.3526564 1.7859994 59
-0.84559637 3.3996427 1.7828237 66
-0.6653527 3.3540802 1.7780516 64
-0.038167167 3.332911 1.7740203 63
0.22397935 3.3236241 1.7709606 63
-2.3895037 3.5551572 1.7939738 58
-1.8726282 3.5761983 1.7937115 55
-1.5202365 3.470644 1.7855361 55.5
-0.90015388 3.5356438 1.778627 58
-0.61853254 3.5013351 1.7717214 64
-0.53645402 3.5381672 1.7722644 57
-0.055624802 3.4625986 1.7707366 54
0.21406381 3.5030491 1.7692636 41.333332
0.39040366 3.5134518 1.7586931 53.333332
0.50917578 3.5298853 1.7530144 53
-2.3837605 3.6703191 1.7972332 4
-2.0028527 3.7447679 1.7891942 57
-1.5406367 3.6222923 1.7916809 63
-1.4433191 3.6548064 1.7787366 51.5
-0.9685334 3.6915274 1.7787451 58
-0.67467958 3.7075038 1.7720596 62
-0.48668495 3.6699839 1.7663581 54.5
0.18757834 3.7398238 1.7681214 57
0.40187126 3.6970816 1.756452 50
0.53396016 3.7490451 1.7467593 54
0.66680598 3.6782029 1.7025262 36.5
-1.6377517 3.7842665 1.7797924 56
-1.3771009 3.8283978 1.7801229 59
-0.71526319 3.8687582 1.7676378 60
-0.45221776 3.8814824 1.7720042 63
-0.37787262 3.8248038 1.759321 51.5
0.43474525 3.8467124 1.756442 53
0.5999577 3.7553957 1.7170018 37
0.92219836 3.850338 1.6503834 17
-2.3275847 4.0285783 1.785709 56
-1.7483815 3.9874597 1.7841319 55
-1.4074879 3.9538174 1.7754339 57
-1.3349581 4.0175266 1.7689399 56
-0.26025304 3.9484596 1.7619387 60
0.46219343 4.0101805 1.7534133 59
0.69059086 3.9961226 1.6812135 19
0.8360371 3.9376819 1.6659569 53
-2.3323944 4.1157722 1.7897379 55
-1.8663644 4.1830325 1.7709531 47
-1.4888097 4.1694412 1.7511531 42
-1.2689903 4.1210542 1.7691897 74
-1.1910131 4.1463566 1.7218856 104
-0.76713955 4.0508971 1.7659181 64
-0.47588524 4.0519056 1.7625993 58
-0.24470487 4.1399512 1.7531359 55
0.74095756 4.1588516 1.6733638 49
-2.3027341 4.2919993 1.7922045 19
-0.49938148 4.2536612 1.7648655 59
-0.23955469 4.2391696 1.7640194 60
-0.061082006 4.2671862 1.7556098 58
-2.2931228 4.4387269 1.7743098 42
-1.5974107 4.4451175 1.7702667 56
-0.53259856 4.4660873 1.7609926 58
-0.24443956 4.4328833 1.7526499 59
-2.2851212 4.6244969 1.792694 45
-2.2470903 4.5679808 1.771885 39
-0.039272983 4.5551734 1.7433273 49
0.039312422 4.6116886 1.7444865 51
0.16593657 4.6259828 1.7423559 56
-2.2145844 4.7125578 1.7833637 36
-1.714591 4.7110443 1.7679938 52
-0.24422537 4.6610265 1.7533017 52
0.26565206 4.663691 1.7353436 53
-2.457854 4.9322186 1.7866577 33
-2.1831875 4.8416471 1.7783247 38
-0.25282249 4.9027433 1.7436026 51
0.029422712 4.8444147 1.7351812 52
-2.2221878 5.0913191 1.7675134 31
0.27136528 5.0738025 1.731582 45
-2.1659818 5.2275982 1.7721523 34
0.058683973 5.1262841 1.7428268 44
-2.6494606 5.278656 1.7825865 32
-2.0864677 5.3350964 1.762894 33
-2.0381072 5.4824157 1.7619616 35
0.080980048 5.4196353 1.7355162 40
-2.3498716 5.6112938 1.7732791 35
-2.8895056 5.7022157 1.7784945 28
-0.60723776 5.7658701 1.7353119 37
-2.1213713 5.8689308 1.7532123 28
-2.0331643 5.9636354 1.7531459 28.5
-0.49108669 5.8516893 1.733003 36
-3.2783835 6.1087356 1.7731992 29
-2.534652 6.0287433 1.7633835 28
-3.260757 6.2666993 1.7675346 20
-0.56393647 6.1927395 1.7218024 35
-3.2493742 6.4257894 1.7669462 22
-2.2095213 6.4178834 1.7536801 32
-0.56817198 6.4270611 1.7191981 30
-3.2234654 6.4717126 1.7844843 26
-2.7798445 6.5722637 1.7589954 24
-0.4137485 6.4831314 1.7162818 30
-0.27452791 6.5323534 1.7231117 31
-0.13640812 6.5852647 1.7187098 32
-3.2678635 6.6287236 1.7648121 21
-0.57477427 6.6486478 1.7167064 32
-3.4729919 6.9158154 1.7369882 9
-2.3916581 6.9524722 1.74465 25
-0.21166384 7.0392547 1.7066449 34
-0.58110636 7.1313863 1.7018739 34
-0.18562408 7.4688544 1.7011977 22
-0.0071482537 7.4680715 1.6980077 20
0.15015374 7.4351878 1.6973053 19
-0.17990366 7.6059685 1.7002057 24
-0.59760213 7.7903748 1.6994704 27
-0.13812061 8.2166071 1.6834687 28
0.97323883 -2.1184669 1.8394941 5
-4.3778305 -1.6660008 1.9134351 2
-0.98961222 -1.7337219 1.8571676 0
-4.0375586 -1.5090872 1.9092923 8
-1.0703185 -1.5744296 1.8564621 0
-0.52257055 -1.5619503 1.8320485 0
-4.1143742 -1.4581294 1.9152353 9
-0.59078717 -1.3579168 1.8342892 2
-0.26383811 -1.4553142 1.8157364 0
-4.4714599 -1.3190436 1.8983675 24
-0.61375922 -1.3219159 1.8485051 3
-4.0312538 -1.1633593 1.8918105 2
-2.8222675 -1.0512444 1.8900315 11
-2.3931525 -1.0579282 1.8838629 1
-2.7352867 -1.001109 1.8854874 1
-2.6444757 -0.9947046 1.8754517 9
-2.5333633 -0.91281539 1.8798035 10
-2.2854402 -0.97726941 1.8809403 6
-2.4237785 -0.81611896 1.8669974 8
-2.3246231 -0.8229183 1.8674266 15
-2.1949449 -0.79150957 1.8677634 18
-1.8792994 -0.7702595 1.870113 5
-2.2701399 -0.7328971 1.8662957 25
-2.0208092 -0.72290874 1.8586186 19
-1.8432499 -0.64927673 1.8559824 23.333334
-1.7226329 -0.68717575 1.8607761 9
-1.2658036 -0.60426611 1.833728 150
-2.3172321 -0.56039214 1.865737 11.5
-2.2058272 -0.59963775 1.8659068 26
-1.9079404 -0.58573443 1.8679301 0
-1.7070222 -0.53740478 1.8577157 22
-1.5545895 -0.54855204 1.8548526 21.5
-1.4011636 -0.55510443 1.8477097 48
-1.2899505 -0.47050387 1.8444053 18
-1.1352239 -0.50516552 1.8102947 107
-1.7211852 -0.38047048 1.8617185 0
-1.5816464 -0.38782817 1.8512138 74
-1.4270155 -0.38923931 1.8514211 75.599998
-1.279256 -0.36092523 1.8477626 71
-1.1075411 -0.38293108 1.8385328 45.666668
-0.97657657 -0.38837981 1.8371623 56.5
-0.81811357 -0.37419376 1.8325082 49
-0.68719357 -0.37508604 1.8268059 30.833334
-0.56581044 -0.35660383 1.828986 45.333332
-0.4333165 -0.36803806 1.8264792 23.5
-1.6038101 -0.2279505 1.8516251 81.5
-1.4353447 -0.22202504 1.8519251 95.400002
-1.2647841 -0.24071914 1.8454492 85.5
-1.1106083 -0.23253879 1.8392464 79.400002
-0.97042841 -0.24153058 1.8351144 77.5
-0.81425035 -0.23021765 1.8308169 80.599998
-0.67369992 -0.23595102 1.8318236 76.666664
-0.5202933 -0.23149143 1.8286085 78
-0.44311675 -0.27766731 1.8292717 70
-2.4239545 -0.010135571 1.8551263 69
-2.3482468 -0.091260627 1.8540344 74.5
-2.2176921 -0.045721076 1.8576912 73
-1.9469236 -0.034796432 1.8440882 80
-1.7254101 -0.048032444 1.8490396 83
-1.5321716 -0.092364848 1.8513336 93
-1.407877 -0.061826084 1.8486153 94
-1.2711823 -0.10545022 1.8364815 76
-1.142269 -0.07580258 1.8336416 80
-0.95359898 -0.078682162 1.8301811 79.375
-0.82580817 -0.070476964 1.829107 79
-0.67298734 -0.074966058 1.8295492 77.199997
-0.50539571 -0.083930083 1.8243887 77.599998
-2.3060367 0.047662549 1.8559808 84
-2.1765924 0.088212386 1.8488779 76
-1.9990897 0.068372123 1.8431982 79
-1.8916845 0.033738155 1.8445926 80
-1.7249216 0.11129033 1.8449477 84.666664
-1.5388886 0.059448928 1.8444964 92
-1.4126488 0.077736698 1.8443311 96.333336
-1.2506387 0.059208144 1.8345393 75.666664
-1.1082093 0.071274042 1.8325377 81.5
-0.96007639 0.071048044 1.8288676 80.666664
-0.81663597 0.088683657 1.8289875 79.75
-0.69098115 0.076423198 1.827077 77
-0.52970833 0.070202947 1.8196201 83.333336
-3.6341951 0.21509159 1.8773059 5
-2.4772315 0.24240449 1.8525367 78
-2.3502121 0.20377627 1.8497058 78.5
-2.1488383 0.23814388 1.8456093 76
-2.0309083 0.20939624 1.8393356 79.5
-1.8986433 0.20270589 1.8418444 80.5
-1.6886485 0.25295734 1.8425978 79.5
-1.5431972 0.21408617 1.8427448 90.666664
-1.4139973 0.21946605 1.8437084 93
-1.2767794 0.20570701 1.8364259 86
-1.1123854 0.22625208 1.8308597 79.166664
-0.93995202 0.19142516 1.8246939 79.599998
-0.84059405 0.26375166 1.8211039 79.166664
-0.68388683 0.2240214 1.823218 77.111115
-0.52900082 0.24282889 1.8203565 82.166664
-3.2135201 0.4023008 1.8629397 87.5
-3.0248935 0.42273295 1.8605577 77
-2.7427852 0.36113524 1.8589824 74.5
-2.5970149 0.40400839 1.8528906 73.5
-2.4319239 0.37887156 1.8497919 79
-2.2919786 0.43478224 1.8416549 79
-2.1770537 0.37635976 1.8464444 79.5
-2.0430503 0.39405081 1.8445899 65
-1.9157987 0.36018622 1.836575 83
-1.715614 0.37881783 1.8405834 78
-1.5421413 0.37021708 1.8414906 84.333336
-1.4525017 0.39364243 1.8427964 86.333336
-1.283854 0.38097501 1.8405859 96.25
-1.118935 0.36877164 1.8295685 77.199997
-0.96057832 0.35336906 1.8343271 66.25
-0.83943421 0.38497958 1.8215066 78.14286
-0.67635137 0.36363947 1.8213524 76.875
-0.53696227 0.38786978 1.8177532 76.25
-3.2861772 0.52590477 1.8701068 5
-3.072845 0.53111762 1.8597618 80
-2.8767948 0.47353163 1.8585197 76
-2.7365472 0.5242486 1.8590027 81
-2.4905896 0.55519283 1.8446882 79
-2.3926017 0.58196455 1.843026 70
-2.1954277 0.4987672 1.8474787 84
-2.0076222 0.56021392 1.8365675 87
-1.9121081 0.53865731 1.8349237 86.333336
-1.7323654 0.5081628 1.839559 87.5
-1.5559196 0.53355873 1.8381855 84.5
-1.4524819 0.56554699 1.8383702 85
-1.2711333 0.54332876 1.8342957 91.666664
-1.1232688 0.51671159 1.8278973 81.599998
-0.97990525 0.52218181 1.8308997 63.5
-0.81165862 0.53159922 1.8194938 75.272728
-0.68687856 0.53360105 1.8151653 73.375
-0.53313607 0.50700003 1.8142843 79.285713
-0.43716994 0.54036504 1.8152124 78
-3.1856151 0.62863773 1.8545722 4
-3.0238016 0.67172575 1.853743 68
-2.8712676 0.70663726 1.8531026 82
-2.7354302 0.69781739 1.8532728 74.5
-2.6046758 0.62522542 1.8497885 73
-2.2873192 0.63297218 1.8439296 85
-2.1599355 0.66062188 1.8407332 81
-2.0387216 0.67504305 1.8370434 83.5
-1.9380801 0.70167041 1.8337409 87.5
-1.7148666 0.66897523 1.8366991 83.5
-1.5770704 0.66565174 1.834191 85
-1.4222245 0.70397794 1.8349658 86
-1.2504202 0.68233532 1.8337487 92.333336
-1.1166263 0.68613631 1.8287668 91.5
-0.97674567 0.66626889 1.8217822 73
-0.82157266 0.68230546 1.8183179 76.5
-0.68650359 0.69030011 1.8153964 73.125
-0.53496575 0.65855128 1.8105658 77.333336
-0.40590489 0.66967356 1.8081774 82.5
-2.6104307 0.85435307 1.8494991 73
-2.4994733 0.77632535 1.8476084 85.5
-2.3296475 0.8147682 1.8425754 80
-2.1418943 0.85580027 1.8343899 85
-2.0611866 0.79685467 1.8342475 76
-1.8852985 0.81892872 1.8264282 88
-1.7382129 0.80796629 1.8306314 86
-1.581692 0.83907723 1.8336735 84.25
-1.4501011 0.79749358 1.8320596 83.5
-1.2764012 0.84418994 1.8320031 89
-1.1144207 0.84472048 1.8274989 92
-0.99121207 0.81996852 1.8274223 92.666664
-0.83379602 0.81425959 1.8174986 76.5
-0.67434531 0.81372797 1.8145673 75.571426
-0.5102722 0.8259275 1.8113093 72.444443
-0.37661824 0.85054404 1.8092707 72.333336
-3.1691053 1.0472329 1.8490564 40
-3.0485809 1.0248066 1.849574 78
-2.8656476 0.94580376 1.8497466 83
-2.7304788 0.93388259 1.8517778 78
-2.49738 1.0034528 1.8435131 80
-2.3098001 1.0260961 1.8361785 81
-2.0235202 0.97073197 1.8334332 79.5
-1.8543708 0.92281175 1.8249124 87.5
-1.7125467 0.98050284 1.8304981 86
-1.6059667 0.9831202 1.8271153 83.5
-1.4429466 0.96955246 1.8253053 86.666664
-1.2791449 0.97579968 1.8266747 84
-1.1442308 0.97623748 1.8285629 88.666664
-0.99258852 0.99952626 1.8233298 88
-0.79924059 0.96076602 1.8176507 83.5
-0.66097671 0.96704262 1.8123343 75.428574
-0.52297461 0.9667635 1.8072494 69.800003
-0.41054511 0.99349135 1.805246 68.599998
-0.29755005 0.98807865 1.8029653 61
-3.1968026 1.1875967 1.8480479 84
-3.0221169 1.1949528 1.8488609 80
-2.8600104 1.195029 1.8483437 83
-2.7156892 1.1740484 1.8452061 83
-2.6050403 1.0883312 1.8414599 78.5
-2.121006 1.0576599 1.832538 80
-1.9820265 1.140298 1.8256491 87
-1.9101859 1.0881231 1.8287811 75.5
-1.7276261 1.1436803 1.8254426 80.5
-1.554059 1.123595 1.8227195 85
-1.4136947 1.1386085 1.8229855 82.666664
-1.2378012 1.1264428 1.8213484 80
-1.1020923 1.1179649 1.8201748 86.333336
-0.97974652 1.1322826 1.8179784 83.333336
-0.81203842 1.1356536 1.820562 86
-0.65716749 1.1147773 1.815735 87.125
-0.52701908 1.1303395 1.8139229 84.166664
-0.36274433 1.1298951 1.8111278 83.428574
-0.23018378 1.1377568 1.8092452 81
-3.4802022 1.2317077 1.8627919 85
-3.2205307 1.2691007 1.8508465 78.5
-3.0661941 1.287728 1.8437363 79
-2.5684848 1.3091707 1.8390843 34
-2.4836454 1.2355213 1.8325419 72.5
-2.3473108 1.2399802 1.8341175 83
-2.1658771 1.2532004 1.8286164 80
-2.0212097 1.2730531 1.8239261 62
-1.8810945 1.2873702 1.818404 79
-1.7371923 1.3239659 1.8197695 54
-1.5663282 1.3302841 1.8191061 65.666664
-1.4323858 1.2727066 1.8153243 81
-1.3041278 1.3445911 1.808762 79
-1.0999862 1.2486001 1.8138038 84
-0.97579414 1.2580973 1.8124466 79.666664
-0.81679803 1.2713927 1.813259 75.333336
-0.66925693 1.286728 1.810293 76.5
-0.53363907 1.2891043 1.8076235 75.333336
-0.39609575 1.2561148 1.8085145 79.166664
-0.23731244 1.2775066 1.8058683 72.5
-3.7859867 1.4076836 1.8618628 75
-3.7155864 1.3896136 1.8605545 73
-3.5022624 1.378468 1.8573958 70
-3.312968 1.3638979 1.8535486 81
-3.2327881 1.4918159 1.8525065 85.5
-3.011595 1.4700586 1.8421341 78
-2.7786651 1.4317499 1.8402864 81.5
-2.6568601 1.3974918 1.8386389 78.5
-2.4772401 1.4853652 1.8332151 72
-2.322103 1.4765284 1.8316544 66
-2.2027647 1.4728075 1.8341919 56
-2.0415454 1.4596872 1.8253927 44.666668
-1.9070698 1.48193 1.8197302 48
-1.4007716 1.4221257 1.8121495 42
-1.2076747 1.3522155 1.8085114 73
-1.1182642 1.3558668 1.8139724 73
-0.97622097 1.425789 1.8096814 48
-0.86185884 1.4129269 1.8111709 49
-0.66807038 1.4392381 1.8085545 39
-0.57794255 1.3845096 1.8070768 70.5
-0.41161793 1.4148494 1.8012235 60.5
-0.23545216 1.4084085 1.8016416 61.333332
-3.9965904 1.6136748 1.8571209 76
-3.7219987 1.5709894 1.8557855 77
-3.4862034 1.5326508 1.8583099 78
-3.2007997 1.6182549 1.8419486 71
-3.0918145 1.5697905 1.8434964 82
-2.5887165 1.5920422 1.8325391 76.5
-1.967412 1.6495911 1.8226794 78
-1.9358265 1.5677308 1.8196653 78
-1.7442446 1.5213721 1.8172528 70.5
-1.5958138 1.5236299 1.8220161 59
-1.4363619 1.5413834 1.8192031 51.75
-1.2840507 1.572069 1.8116995 54.5
-1.1060097 1.5186436 1.8139744 30.5
-0.92958486 1.5873106 1.8088795 48.75
-0.84294921 1.5784574 1.8051987 49.5
-0.70402527 1.5883012 1.8054149 46.5
-0.53556955 1.5438615 1.8063457 33.5
-0.39053991 1.5673751 1.8021603 40
-0.28172293 1.5074834 1.8017956 32
-0.10928325 1.5705198 1.8014951 28.333334
-4.078814 1.7903934 1.8569475 65
-3.9770436 1.7673073 1.8558307 70.5
-3.7901874 1.7247056 1.8523976 72
-3.7145789 1.7107872 1.8559126 82
-3.5165191 1.694304 1.8503431 65.5
-3.3231359 1.6729776 1.8509644 66
-3.2596312 1.7879945 1.8492161 80
-3.0009103 1.7603709 1.8395325 83
-2.8259232 1.7195622 1.8349706 79
-2.6768842 1.6860814 1.8351712 85
-2.4601471 1.7472386 1.8291559 75
-2.2902102 1.7242416 1.8304921 72
-2.1668203 1.7025028 1.8300322 73
-2.0240154 1.7039829 1.8241376 78.5
-1.8860294 1.7102687 1.8216962 83
-1.7419301 1.740903 1.8127829 75
-1.5901998 1.724672 1.8161962 72
-1.4269966 1.6963911 1.8113149 75.5
-1.3282925 1.7173856 1.8121351 75
-1.1281577 1.7037444 1.8098434 64.5
-0.99287677 1.6699409 1.8056852 71
-0.84299892 1.7144186 1.8018686 66
-0.65703738 1.7555431 1.8014137 60
-4.6900868 1.9192173 1.8604909 62.5
-4.3794751 1.8583672 1.8694795 70
-4.2624054 1.8315057 1.8638446 69.5
-3.7320781 1.9128069 1.8487059 77
-3.4861627 1.8455739 1.8484412 80
-3.2056489 1.8675184 1.8409624 80
-3.1132832 1.871784 1.8399915 76
-2.6158938 1.9235717 1.8273518 81
-2.5475869 1.8293177 1.8267497 73
-2.1218126 1.9413027 1.823418 75
-2.0024469 1.9075629 1.825925 73
-1.9156981 1.8450197 1.8194625 75
-1.4301813 1.9024869 1.8123944 68.5
-1.3054893 1.8625898 1.810006 70
-1.0903647 1.8993195 1.8026627 62
-0.96005499 1.8545736 1.8056303 62
-0.81574154 1.8324786 1.8038635 63
-0.7089237 1.8790461 1.8069178 62
-0.48200786 1.8613899 1.8004862 59
-4.0295954 1.9932507 1.8568891 72
-3.8293471 2.0802529 1.8479065 71.5
-3.6789367 2.0307209 1.8492066 77.5
-3.4512172 2.059386 1.843232 69
-3.3189538 1.9928458 1.8389951 72
-2.9887373 2.0727389 1.8375028 76
-2.8062539 2.0060227 1.8316506 86
-2.6563916 1.968526 1.8220133 75
-2.4902713 2.0317149 1.8219739 74
-2.377918 2.0135274 1.8207728 77
-2.2455168 1.980033 1.8234137 71
-1.9515401 1.968609 1.8131884 71
-1.8586171 1.9984684 1.815993 68.5
-1.6811316 1.977139 1.8142987 70
-1.5768763 1.9509946 1.8152264 76
-1.2631013 2.0439732 1.8080629 68
-0.9524399 2.0756824 1.8010894 59
-0.78303671 1.982676 1.8018485 61.666668
-4.2892127 2.2300858 1.8552727 67.5
-4.1221972 2.1704836 1.8519703 64
-4.0126276 2.1420448 1.8534349 67
-3.5018797 2.192498 1.8493656 93
-3.2224035 2.1175261 1.8404969 72
-3.1329839 2.1970029 1.8347422 70
-2.5909085 2.2140088 1.8244103 72
-2.5293818 2.1144388 1.8202051 71
-2.1913247 2.2499597 1.814592 73
-2.0722692 2.1982923 1.820345 73
-1.8798908 2.1756496 1.8112601 70.5
-1.552413 2.1983957 1.8094727 67.5
-1.4076467 2.1299114 1.8091897 69
-1.2669035 2.1098599 1.8035566 66
-1.1891239 2.1815281 1.8015491 63
-4.7557888 2.3672867 1.8612945 62.5
-4.4158134 2.2612832 1.8581375 66
-4.054564 2.3968384 1.8507429 71
-3.7627687 2.2925782 1.854097 92
-3.6705225 2.3854365 1.8495702 82
-3.3212721 2.3441405 1.8325919 67
-3.2262857 2.2715592 1.8331045 67
-2.9613111 2.3981979 1.8278512 77
-2.7874789 2.3165967 1.8326572 77
-2.6277392 2.2809193 1.822194 73
-2.4757466 2.3308032 1.8149194 70
-2.3270016 2.3054707 1.8143107 70
-1.8350092 2.3643904 1.8073577 76.666664
-1.2803819 2.3226614 1.8057661 57.5
-0.88966632 2.3191645 1.8132397 36
-0.63110512 2.3843684 1.806584 28
-0.55472696 2.3261085 1.8038368 34.5
-4.060317 2.5440664 1.8452874 68
-3.9126575 2.4809158 1.846886 66
-3.8078408 2.444237 1.8458812 78
-3.4523082 2.4315894 1.8423218 69
-3.2139559 2.466764 1.8346698 69.5
-3.1487043 2.5498898 1.8259672 67
-2.5176258 2.4379218 1.8270885 5
-1.8201554 2.5027046 1.8059262 77
-1.7599448 2.4801712 1.8043376 74
-1.5138745 2.4771116 1.8055578 66
-1.414508 2.4158514 1.8061489 59
-1.1247582 2.5089519 1.81989 24.5
-0.76596844 2.5465515 1.8210312 35
-0.6930443 2.4665856 1.81506 25
-4.4008799 2.6905131 1.8525909 63
-4.253417 2.6417191 1.8444914 59
-4.17314 2.586585 1.8470367 69
-4.0328784 2.5504177 1.8479658 63
-3.7742662 2.6934578 1.8469018 73
-3.4991393 2.5545251 1.8383857 65
-3.2326298 2.6374831 1.8239077 60
-1.8216938 2.6620398 1.8093282 85
-1.7352623 2.6873419 1.8011578 64
-1.2299027 2.5890346 1.8001956 53
-0.55721533 2.6676848 1.8044659 40
-4.4681792 2.7083614 1.8519217 65
-4.0802903 2.8394048 1.8435475 65
-3.8157034 2.8432035 1.8468851 65
-3.7110224 2.7882478 1.8384858 63
-3.3862572 2.7826419 1.8336936 63
-3.2625871 2.814235 1.8358873 63
-1.6971723 2.7846918 1.8001651 69
-4.8297362 2.8598323 1.8615526 61
-4.0832777 2.992846 1.8388451 65
-3.9748368 2.9211354 1.8458809 62
-3.8785801 2.8866901 1.8344971 67
-3.5107672 2.9644938 1.836681 64
-3.1628966 2.9209375 1.8266028 62.5
-4.26092 3.0847213 1.8405324 62.5
-3.7813838 3.1292691 1.8355089 64
-3.2494354 3.0546389 1.8231667 59
-1.8583618 3.0764647 1.8042523 77
-1.6522553 3.0081785 1.8026756 71
-4.5337296 3.2065091 1.8476287 57
-4.4584389 3.1805248 1.8477546 58
-3.8039439 3.2688036 1.8323942 57
-3.3810973 3.2152579 1.8280705 31.5
-2.4690623 3.2390823 1.8084542 62.5
-1.9747417 3.2013011 1.8010722 71
-4.8951607 3.3951309 1.8513588 45
-4.1146145 3.3339913 1.8397983 59
-3.9888306 3.3939834 1.8357631 33
-2.6569958 3.3848891 1.8019897 55
-2.4721498 3.3638334 1.8072129 63
-2.1117549 3.3408432 1.8007256 60
-4.1330099 3.4984562 1.8330057 25
-4.5244408 3.7323515 1.841005 4
-4.3355479 3.6599202 1.837473 50
-2.4318686 3.6333644 1.8033344 4
-4.9667387 3.9830248 1.8356274 28
-4.9458961 3.9927588 1.8303429 3
