# .PCD v0.7 - Point Cloud Data file format
VERSION 0.7
FIELDS x y z intensity
SIZE 4 4 4 4
TYPE F F F F
COUNT 1 1 1 1
WIDTH 43
HEIGHT 1
VIEWPOINT 0 0 0 1 0 0 0
POINTS 43
DATA ascii
0.47195947 2.9254975 -0.90468353 6
0.32513118 3.5081511 -0.90577346 9
0.50474542 3.589246 -0.90700787 9
0.26514494 -2.4555101 -0.80017996 2
0.35014415 -2.3480744 -0.80840909 3
0.34921801 2.2456241 -0.78998947 38
0.3500492 2.3110478 -0.76796412 23.5
0.11734162 2.6641417 -0.88380784 5
0.33779138 2.6632102 -0.89198965 4
-0.15430269 3.0288429 -0.88811034 6
-0.094663024 3.1199241 -0.88912511 6.5
0.44607824 3.0851336 -0.89571369 11
-0.041661162 3.1740403 -0.8882767 4
-0.088717848 3.3502345 -0.88770854 4
0.0097233774 3.3111737 -0.89088565 8
0.47866601 3.3438222 -0.89892805 11
-0.01107915 3.5424659 -0.88963813 11
0.0043878676 3.4712029 -0.88917035 11
-0.0065719066 3.6329274 -0.89463049 12
-0.020570654 3.7867093 -0.89554298 10
0.10598546 3.8259335 -0.88861841 8.5
-0.20247824 3.9189174 -0.76160926 3.3333333
-0.22647367 4.1271019 -0.89623594 9
-0.16436744 4.2472105 -0.89172542 10
0.56237423 1.9534032 -0.6703003 16
-0.2442238 2.1923263 -0.60022229 2
-0.014187205 2.1538587 -0.74935883 3
0.044881802 2.1228685 -0.72838664 2.5
-0.093314677 3.9109972 -0.74085766 1
-0.13890631 1.4457241 -0.49154902 2
-0.13051802 1.6072121 -0.48302868 151
-0.19015171 1.8671237 -0.46793142 97
-0.12083612 1.8603884 -0.47006673 64.5
-0.33587468 3.8038166 -0.46850926 48
0.90561056 0.84832358 -0.41247401 13.333333
0.8968339 0.99841094 -0.43549311 12.5
0.90143228 0.92320716 -0.42463511 10
-0.4054614 1.1008757 -0.40097365 27
0.51160324 1.180059 -0.43736452 14
0.88966817 1.1252673 -0.42128667 40
0.45746541 1.2384275 -0.42708308 9
-0.21990205 1.8917456 -0.42283684 88.5
-0.10902811 1.8428144 -0.43597496 104.5
