# .PCD v0.7 - Point Cloud Data file format
VERSION 0.7
FIELDS x y z intensity
SIZE 4 4 4 4
TYPE F F F F
COUNT 1 1 1 1
WIDTH 889
HEIGHT 1
VIEWPOINT 0 0 0 1 0 0 0
POINTS 889
DATA ascii
0.35731375 -0.9377805 -0.18095958 2.75
-0.028761942 -0.7540378 -0.19714297 3
0.21701974 -0.89138025 -0.16598611 1
0.46965295 -0.89924854 -0.19536747 13
-0.33285046 -0.6147635 -0.18319383 6.8000002
-0.19917057 -0.68175787 -0.17276908 3.3846154
-0.11374961 -0.71753418 -0.18110994 3.7142856
0.3975603 -0.65528065 -0.17542303 7
-0.51526654 -0.52718186 -0.17670585 6.25
-0.40510201 -0.58389419 -0.18248089 6.3333335
0.21182702 -0.54542512 -0.17518078 8.833333
0.68090582 -0.49805212 -0.1790479 16.333334
0.1121564 -0.37276021 -0.16658343 6.3333335
0.19431551 -0.34682599 -0.16946238 5.75
0.7278598 -0.38585824 -0.17251134 14
0.76288617 -0.32508495 -0.17761965 13
0.81017429 -0.2064265 -0.17511025 12
0.86291105 -0.11487833 -0.1721019 11.2
0.90771025 -0.035374999 -0.17108066 10
0.95438284 0.0627653 -0.16782241 10.833333
1.0135736 0.19036032 -0.16426703 9.1999998
1.0536432 0.27198607 -0.18685591 9
0.96942359 0.41631207 -0.17917925 8
1.0828784 0.33309072 -0.18451238 10.5
0.28940162 0.5730778 -0.17155454 1
0.38859218 0.53941119 -0.1682214 0
0.49677336 0.57904613 -0.15852703 0.5
0.73806989 0.56759965 -0.182163 6
0.80854446 0.51172304 -0.17453435 10.5
0.21997082 0.68306828 -0.15731871 0
0.52129024 0.62480891 -0.18259396 0.66666669
0.66646993 0.60965043 -0.17031868 0
0.79689902 0.68837911 -0.19551916 6
-0.011695448 0.89147747 -0.16585553 16
0.2857933 0.79214782 -0.16349934 1
0.34794325 0.78994966 -0.1804439 3
-0.30204278 1.046872 -0.15012935 22
-0.22542197 1.0044795 -0.17447674 16.75
-0.043291178 0.91302937 -0.15726815 16.666666
0.039881404 0.97501916 -0.17038044 2
-0.67478812 1.0610915 -0.18787485 0
-0.548455 1.1915143 -0.19446702 0
0.10459323 1.1113824 -0.15275116 3
0.19428329 1.1962335 -0.16069205 20
-0.62606943 1.2378488 -0.17705882 0
-0.5837273 1.2165977 -0.18983118 1
0.15522628 1.2006649 -0.16127285 8
-0.42816687 1.4816763 -0.15659496 54
0.25131953 1.4102716 -0.19204171 49
-0.52956569 1.5898674 -0.15461728 151
0.39081272 1.6053209 -0.15362079 61
0.4570055 1.5764792 -0.1615334 10
0.57750386 1.6788061 -0.17710891 0.5
0.70838648 1.8275564 -0.19668582 1
-0.62338078 2.3662012 -0.16500981 6
0.28714964 -0.93174875 -0.12296416 1
0.47406879 -0.91943914 -0.025069738 10
-0.039301317 -0.76096958 -0.086166732 2.909091
0.066924088 -0.81397915 -0.10808981 2.3076923
0.2020911 -0.88222986 -0.12862112 1.25
0.53141373 -0.75704968 -0.086966373 12
-0.34098113 -0.61497694 -0.072463326 4.090909
-0.22350951 -0.67074448 -0.07511647 3.5
-0.10966489 -0.72694391 -0.056812838 3.3333333
0.48076779 -0.69206131 -0.12941629 11
-0.66110373 -0.46522814 -0.069098316 7.8571429
-0.52473104 -0.52696115 -0.090259589 6.181818
-0.40593168 -0.57869416 -0.074965499 4.5625
0.55474949 -0.51829076 -0.073754422 8
0.66492856 -0.50227553 -0.066044837 13.652174
-0.90724963 -0.33447847 -0.014305209 6
-0.82080257 -0.38799071 -0.021546565 7.1111112
-0.71684009 -0.4365634 -0.045495033 7.6666665
0.10152411 -0.36874244 -0.11647481 6.652174
0.21338129 -0.38455886 -0.1129967 6.25
0.33869329 -0.4127911 -0.078979462 6.8000002
0.71885782 -0.38713828 -0.07544294 12.137931
0.7625168 -0.32237083 -0.084320858 12.25
0.80073786 -0.22745945 -0.091348752 11.275862
0.86991358 -0.10350487 -0.084422804 10.25
0.9080497 -0.031596027 -0.091691822 10.111111
0.95459098 0.069713607 -0.076101713 10.130435
1.0207188 0.20943214 -0.078632407 10
1.05917 0.28836173 -0.056802921 9.25
0.88988763 0.44574642 -0.067457415 11
0.9728331 0.41319558 -0.098452277 8.181818
1.0799434 0.34459296 -0.071943298 9.5
0.28089985 0.56622386 -0.12740879 0.5
0.35507724 0.55241793 -0.10478139 0
0.52382505 0.5440982 -0.041703139 0.95238096
0.72804588 0.54346174 -0.079041734 5.7142859
0.80978185 0.50442326 -0.095621012 9.1333332
1.0580916 0.46165109 -0.022629177 14
0.24864027 0.70296103 -0.046233192 1.6666666
0.34065476 0.67059451 -0.057477891 2.3333333
0.76367718 0.63980579 -0.12210011 4
-0.015384767 0.89637631 -0.14708561 13
0.093472935 0.84265852 -0.062797643 8.1111107
0.2349028 0.87229156 -0.10282239 1
-0.57702267 1.0461775 -0.090883918 0
-0.32097578 1.037796 -0.090637311 9.8000002
-0.23166943 1.0033647 -0.10756353 18.166666
-0.095882297 0.93223894 -0.099258132 15.625
0.080311969 0.90139735 -0.068480469 2
0.22010992 0.95583218 -0.065838456 2
0.32353038 1.017184 -0.061065871 1.5
-0.84034187 1.1365858 -0.037786767 2
-0.67411208 1.1126707 -0.060338445 0
-0.54160285 1.0675054 -0.094050974 0
-0.35462403 1.0788778 -0.084008873 8
0.13038974 1.1680151 -0.14046647 5
0.19810474 1.1396513 -0.091848515 12.5
0.37483159 1.0925838 -0.08590357 11
-0.91537076 1.2523487 -0.018393254 0
-0.8393085 1.2787616 -0.10588456 3
-0.68428326 1.2298954 -0.12616728 0
0.17529394 1.2015198 -0.14203647 31
-1.0290036 1.4159385 -0.064003326 54
-0.53237897 1.4852018 -0.06742496 1
-0.42414108 1.4907703 -0.12713987 28.5
-0.50775212 1.5241038 -0.10670452 15.6
-0.44381958 1.5058862 -0.12757084 11
0.40733251 1.590245 -0.12688108 119.5
-0.46560025 2.0027821 -0.13740577 118
1.378883 3.1879556 -0.058698688 4
1.4970466 3.5966063 -0.0073285745 95
1.4477628 3.6408136 -0.064628668 146
2.3346198 5.7522144 -0.0012929487 62
0.26844186 -0.91152382 0.042957895 0
-0.054054059 -0.76002139 0.093407609 1.25
0.082644306 -0.82234859 0.067518406 0.23076923
0.20054902 -0.87687838 0.053065345 0.11111111
-0.34548473 -0.61858851 0.0700216 2.4000001
-0.23523217 -0.67054874 0.054904662 2.5555556
-0.12270675 -0.72370905 0.1202246 2.2
0.89498961 -0.62879723 0.13647911 7
-0.66245675 -0.46461037 0.074628673 7.6666665
-0.51421493 -0.5298332 0.073517136 2.5357144
-0.40695542 -0.58335871 0.082909584 2.8461537
-0.18742663 -0.48399124 0.11948695 3
-0.11522529 -0.51256001 0.14630532 4
0.07091447 -0.53612572 0.092520438 3
0.24832733 -0.49845108 0.020528072 1
0.66802698 -0.51160765 0.019489065 1.5
0.91418856 -0.59540504 0.13239777 9
-0.94541299 -0.32715103 0.084990792 5.0454545
-0.83094454 -0.38076463 0.063897081 6.1951218
-0.71999556 -0.43462339 0.085090153 7.3846154
0.70221686 -0.42362657 0.0092921806 4
-1.0922151 -0.254949 0.11054012 5.1666665
-1.0165304 -0.29232842 0.10371128 5
-1.0290492 -0.050690975 0.099250726 4.5714288
-0.98441601 0.089211665 0.091430552 0
0.9806723 0.12627737 0.0038488461 11
1.1999701 0.092118576 0.12997478 2
-0.91297925 0.19024473 0.13297936 0
-0.80000031 0.21968794 0.071702436 0
-0.73013687 0.23462196 0.028426729 0
1.0113292 0.19696797 0.013731554 8
1.0506401 0.26134029 0.029572094 4
1.0459555 0.30270362 0.039220091 3
1.1019721 0.36816734 0.011024761 8.5
0.42761728 0.58634168 0.060670737 1.125
0.506832 0.54663652 0.028358607 1.1875
1.1431854 0.48588759 0.039491221 12.4
0.24031889 0.68243319 0.10176261 1.6363636
0.35242614 0.63011652 0.05815284 1.2222222
-0.54176712 1.0335681 0.072965793 0
-0.93294775 1.1958318 0.03023852 0
-0.8071878 1.1727158 0.1011079 0.625
-0.6817615 1.1276851 0.065523423 0
-0.57845545 1.0723295 0.10357329 0.2
-0.90713549 1.2193761 0.097655095 2.5
-0.89732021 1.2322545 0.0092392517 0
1.4884118 3.5924375 0.0085211946 40
0.28312945 -0.9205876 0.28243411 0
0.39450869 -0.92579031 0.21372947 3.4000001
0.54857457 -0.99426711 0.24669093 9.5
-0.041820768 -0.78138375 0.24552003 0
0.074517041 -0.82337427 0.26649335 0
0.19736446 -0.87111169 0.24599481 0
0.34400076 -0.89955986 0.21024644 0
-0.34037545 -0.62545013 0.22887127 0.42857143
-0.23708835 -0.6745739 0.20238958 1
-0.1326924 -0.7297616 0.16071922 0
0.8797676 -0.65555441 0.17850973 12.2
-0.65735209 -0.46592769 0.21714978 5.4000001
-0.52445692 -0.53521878 0.22592616 1.0454545
-0.41803631 -0.58034146 0.21623151 0.2857143
-0.16636199 -0.46932423 0.15996575 3
-0.090439558 -0.52610868 0.1677407 4
-0.95051169 -0.32262516 0.21017726 5.4166665
-0.8223815 -0.38596568 0.2167511 4.875
-0.71848291 -0.43558818 0.23388945 5.875
-1.2562207 -0.18043417 0.23675272 3.75
-1.1274126 -0.2408464 0.22327539 4.8499999
-1.0275986 -0.28522146 0.20062041 5.1999998
-1.3990366 -0.1093298 0.25295213 3
-1.3068659 -0.14735971 0.29617363 2
-1.1395298 -0.12099721 0.23436925 5.1428571
-1.1256547 0.056881789 0.25299141 0
1.3295685 0.13176277 0.20688707 2
-1.1295012 0.18123086 0.27513394 0
-0.91506785 0.20292167 0.16765566 0
-0.83603436 0.22948356 0.21241395 0
1.3356655 0.1727529 0.17671055 4
1.3749416 0.26385671 0.21449918 12
1.3666058 0.34564957 0.19984238 12
0.22530258 0.65445822 0.17069936 0.8125
-0.78509712 1.0368918 0.27163976 1.6666666
-0.74363172 1.0214496 0.24201912 3
-0.81295258 1.1287209 0.19968797 2
-0.68985265 1.0912603 0.20245428 0.45454547
-0.93341905 1.2057894 0.19988649 4.6666665
-0.89886725 1.2051978 0.16898066 6
0.44425872 1.2625864 0.22975183 3
0.45050061 1.2215985 0.23336679 1
-0.20143794 1.6435165 0.18999255 4
-0.09724468 1.5949665 0.1733878 2.7142856
-0.46012157 1.7655154 0.17683995 3
-0.54553759 1.8012094 0.19996452 2
0.43787593 -0.9472298 0.39366502 4
0.51761097 -0.9807753 0.40902022 9
-0.054060142 -0.78064996 0.34184355 0
0.051549941 -0.79790205 0.35099345 1.25
0.18255554 -0.86181247 0.42838773 0
-0.36510223 -0.61481577 0.35306138 0
-0.20231691 -0.69987881 0.38347825 0
-0.091191702 -0.73146176 0.38187733 0
-0.66574156 -0.47014609 0.38786432 5.3000002
-0.52824187 -0.53695059 0.36384547 0
-0.4234944 -0.58807349 0.35400784 0
-0.96277785 -0.32355654 0.370713 5.4166665
-0.82742149 -0.38896218 0.37332186 5.5
-0.73293078 -0.43306547 0.3771787 4.75
-1.2473866 -0.19082406 0.36734709 4
-1.1167079 -0.25121415 0.36269078 4.1111112
-1.0447903 -0.2790283 0.36290738 4
-1.2306669 -0.11273853 0.39469221 5
-1.1603472 -0.059892591 0.37088749 2.4117646
-1.1049296 0.080406711 0.3794176 0
-1.1418498 0.21543318 0.37893385 1.25
1.4675007 0.63997948 0.32598075 24.5
1.5185416 0.72563523 0.37687165 37
1.5596757 0.81436825 0.40905279 34.5
-0.85090679 1.0335708 0.36198217 1
-0.71240711 1.0039756 0.40929195 2.5
1.6125183 0.92096156 0.39678884 33.666668
1.6701579 1.0275389 0.34587222 2
-0.90129936 1.0728017 0.39238429 0
-0.64735782 1.1238267 0.42808479 1.25
1.7078226 1.1179157 0.38824555 24.75
-1.4697976 2.2159207 0.37657166 11.5
-1.5419124 2.2671571 0.40062726 1
0.58497632 -1.0153862 0.46513677 19
0.61255652 -1.0278221 0.47577286 9
-0.3995041 -0.60184675 0.49993885 0
-0.20674901 -0.70929164 0.5079971 0
-0.68863976 -0.46377191 0.52698088 3.8
-0.53569424 -0.55001938 0.50924009 0
-0.43993896 -0.59064198 0.56135774 0
-0.95571935 -0.33227706 0.52530378 4.8571429
-0.81537414 -0.4019956 0.52647036 4.625
-0.73872966 -0.43730345 0.51762503 4.3333335
-1.2518871 -0.17632607 0.54188144 2.8
-1.1333302 -0.24368934 0.50111198 4
-1.0329053 -0.29645038 0.5323987 4
-1.5051661 -0.061804246 0.4561919 1
-1.4427989 -0.089325793 0.4691326 1
-1.117685 -0.057488397 0.52423942 3.1818182
-1.1060444 0.090907916 0.50844777 0
-1.1202956 0.20628944 0.53007334 1.75
-1.0496587 0.19262111 0.59149504 5
-1.1809967 0.31020656 0.48996764 4
-0.68498987 1.04245 0.46455503 2.5
1.6402915 0.98079371 0.5029375 32
1.6735003 1.0452294 0.52352911 28
-0.69931495 1.1052796 0.46829566 3.5999999
1.6826826 1.0644512 0.45675671 30
-0.069936447 -0.8024503 0.69661188 1.5
-0.6713419 -0.47727409 0.6673739 4
-0.53601968 -0.54597193 0.61560988 0
-0.96452111 -0.33019602 0.63982749 3.75
-0.82295227 -0.40183878 0.66499269 4.25
-0.74447304 -0.44431195 0.73753095 3
-1.2454059 -0.18931794 0.65148783 3
-1.0933673 -0.26544857 0.66773969 4
-1.033443 -0.29397124 0.69051695 2.5
-1.0653049 -0.044255968 0.60968423 1
-1.0885911 0.098112777 0.61193806 6
-1.0041389 0.11214934 0.67602885 3.375
-1.1449106 0.15152603 0.60113418 7
-0.99001485 0.21298966 0.65644324 2.909091
-0.87520987 0.15502411 0.70201731 0
-2.173409 -3.4727294 0.80313146 0
-1.9147137 -3.596601 0.81317556 0
-0.38377669 -0.62447178 0.8371982 0
-0.23409997 -0.69831759 0.83394092 0.2857143
-0.69151968 -0.46684983 0.81393939 3
-0.49958405 -0.5724439 0.86607617 0.33333334
-0.95850956 -0.33395022 0.80785882 4.5
-0.82324004 -0.40074697 0.83001012 2
-1.2467246 -0.1923196 0.7758202 2.5
-1.1689686 -0.23001848 0.83281529 3.25
-1.0322804 -0.29997748 0.7741611 1
-0.91451305 0.11644793 0.76691508 2
-0.88437802 0.12438355 0.77871263 0
1.0440705 3.7747896 0.89625895 8
-1.1203393 -3.9854078 0.97592092 0
-2.1235785 -3.4971242 0.96878439 2.5
-0.40367928 -0.62234581 0.96401393 0
-0.28891167 -0.66780257 0.91682339 0
-0.70653707 -0.46021232 0.97160673 4.6666665
-0.51686627 -0.57421064 0.96205246 0.2
-0.99012458 -0.32459286 0.96777946 3
-0.83046323 -0.40487951 1.0041627 23.4
-1.2994407 -0.16862297 0.95714408 44.333332
-1.1250178 -0.25794354 0.95792007 5.3333335
-1.4015332 -0.1011552 0.92127311 1
4.432497 2.1205883 0.9916234 0
1.1422465 3.7236977 0.95887101 50.25
1.2555968 3.6875813 0.95357323 4.5
0.99679893 3.7875166 1.0248035 96
-1.2144731 -3.9341779 1.1525682 0
-0.40561992 -0.6294117 1.094763 0
-0.65856916 -0.48022035 1.1337122 3
-0.55792892 -0.5531382 1.1004828 0
-1.0084915 -0.32075608 1.1490164 6
-0.79982138 -0.41829491 1.1138072 32.75
-1.2969805 -0.17980909 1.1534313 40.666668
-1.1239171 -0.26152837 1.1619726 95.333336
-1.3998258 -0.12623888 1.1259888 65
4.6872587 1.9884897 1.1036329 0
-3.5176964 3.6749485 1.1515524 71
1.0777867 3.745508 1.0797043 94
0.81337047 3.869343 1.1344991 95
0.9491061 3.810816 1.1219213 87
1.0500801 3.7574162 1.1213152 93
-1.3133229 -3.8924994 1.3393863 0
-0.67868274 -0.48716989 1.3024557 102.66666
-0.96005785 -0.36207777 1.2809141 81
-0.87190908 -0.39405137 1.244886 8
-1.3084577 -0.17922248 1.2303199 6
-3.7020376 3.3369172 1.2212343 8
-3.5182347 3.7201879 1.2681 0.5
0.82775789 3.8593657 1.2719988 87.75
0.70161486 3.9220104 1.3065623 87.333336
-4.262558 6.9047508 1.2499255 23
-1.5357815 -3.8007753 1.4926568 0
-0.81755972 -0.45318818 1.4913716 152
-0.7108199 -0.50214624 1.4561281 151.5
-0.97037363 -0.38307703 1.3876172 153
-0.87231612 -0.42323771 1.4425668 153
-1.2360325 -0.25889999 1.4561465 152.5
-3.9955509 2.7067714 1.4154899 0
-3.6561983 3.4115019 1.4154024 39.25
0.5602079 3.9797754 1.4448624 68
0.68974829 3.9166856 1.4416986 88.5
-4.527771 6.3575306 1.4369965 84
-4.225491 6.9631767 1.4312469 65
-4.1927581 7.0081134 1.4499468 63.333332
-1.6388901 -3.7551017 1.6064584 7
-1.7562751 -3.6901906 1.6420096 1
-0.76417577 -0.47667304 1.574279 151
-1.0879219 -0.32310912 1.6346282 150
-0.9689759 -0.38820952 1.572011 151
-0.8414731 -0.44540554 1.5841038 150
-1.4223988 -0.16218583 1.5769697 151
-1.2791101 -0.23500873 1.5674413 150.66667
-1.1501285 -0.29800543 1.6136013 150
-1.5218805 -0.1167017 1.6265999 150
-4.1388493 2.4278955 1.5586355 102.5
-3.9603574 2.7797167 1.569384 36
-3.6368756 3.4429991 1.5475421 79
-3.6166508 3.4871337 1.5975523 52.666668
-3.5722027 3.5947421 1.6083786 17
0.53230906 3.988358 1.5777888 74
-4.7811332 5.8455706 1.6132629 92
-4.4965863 6.4335308 1.6300977 75
-4.4768505 6.450552 1.5571982 79
-4.2043862 7.0168118 1.5965598 66
-4.1799932 7.033515 1.5955756 65
-1.0733052 -4.0102139 1.6587456 0
-1.2812324 -3.7809741 1.7417458 0
-1.8498391 -3.5898497 1.7389265 1
-1.2794051 -3.4760628 1.7645229 1
-1.9579132 -3.2272551 1.7448703 6
0.22405668 -1.4647384 1.7303189 9
-0.40256682 -0.61916363 1.7996627 15
-0.80026209 -0.4657329 1.7170848 80.5
-0.67932338 -0.51426882 1.7345819 72
-0.58579469 -0.54082239 1.795673 24
-1.1690968 -0.30744284 1.6752425 150
-0.98989654 -0.3677375 1.7450461 69.5
-0.84155232 -0.4168866 1.7913412 26
-1.3880101 -0.1577791 1.790831 28
-1.6709069 -0.079356253 1.7724582 72
-1.454167 -0.14635049 1.7728842 47
-1.9101496 0.13871199 1.793687 22
-4.1049972 2.4688263 1.7033048 44
-3.926724 2.8616328 1.7529441 1
-3.7999113 3.1313441 1.6552082 0
-3.7699599 3.1958005 1.7629827 10
-3.6169744 3.5064943 1.7100734 92
-3.5616217 3.6124892 1.7293277 27.5
1.158601 3.6935349 1.6857829 73
1.3060139 3.7780669 1.7452172 17
-4.7311678 5.930047 1.7319382 100
-4.4674172 6.4826918 1.6879853 67.5
-4.1734729 7.0752816 1.7377957 60.666668
-1.4620519 -3.3000634 1.8574802 5
-2.1371245 -3.038064 1.854442 6
-1.7444564 -2.9439893 1.8466982 5
-1.583421 -2.9982028 1.8569192 5
-1.6834378 -2.2564266 1.8650883 5
-1.5970738 -2.3367934 1.8851928 4
-1.3995208 -1.765232 1.8827463 1
-0.64238983 -1.2088275 1.8871211 0
0.081217095 -1.3373536 1.811911 10
-0.90801334 -1.0823743 1.8786651 0
-0.19794926 -1.0963597 1.8235712 6
-0.10947903 -1.0791698 1.8262228 6
-0.8317489 -1.0155427 1.863782 1
-0.74331987 -0.98195672 1.8353338 0.5
-0.52139121 -0.92887402 1.8100611 11
-0.34911349 -0.95974517 1.8137922 6.3333335
-0.23296201 -0.98410845 1.8235333 4.4000001
-0.77466023 -0.79602188 1.8202 7.5
-0.66258693 -0.79856282 1.8153638 31.666666
-0.53803259 -0.82484549 1.8152252 15.714286
-0.3727552 -0.82528454 1.8117647 10
-0.27565035 -0.85779822 1.8179758 7
-0.65601504 -0.67246681 1.812577 12.571428
-0.52464432 -0.67721283 1.8136011 14.625
-0.39076921 -0.70279241 1.8074105 12
-0.28952461 -0.73682106 1.8072022 9
-0.67160505 -0.47499934 1.8108031 33.333332
-0.50179023 -0.51318437 1.8190005 58.857143
-0.38798335 -0.53885931 1.8223438 76
-0.93032753 -0.38084656 1.8075999 22
-0.80259264 -0.36437124 1.8180497 57.625
-0.67305201 -0.37842533 1.8211883 81
-0.53994733 -0.36049139 1.8252438 79.666664
-0.4146297 -0.38049296 1.8307501 81
-1.2751077 -0.18810286 1.8121268 24
-1.1315802 -0.23978706 1.8144139 44.666668
-0.98713762 -0.23104769 1.8163406 80.333336
-0.82622921 -0.22822088 1.8188905 78.444443
-0.6802702 -0.20568001 1.8255517 79.428574
-0.53066516 -0.2312734 1.8269523 77.5
-0.44088593 -0.25952375 1.822296 83
-1.881765 -0.042613715 1.8163277 14
-1.7613983 -0.061908785 1.8002316 32
-1.5692303 -0.025904758 1.8166345 69
-1.4419206 -0.067962207 1.8102484 56
-1.2911102 -0.054394681 1.8169183 81
-1.1107955 -0.097140327 1.8184551 81
-0.97475618 -0.053822294 1.8220081 78.833336
-0.82810122 -0.083689645 1.8216228 80.5
-0.6739499 -0.069380552 1.8290176 78.5
-0.51938826 -0.070882581 1.8279077 80.666664
-2.0275605 0.11668453 1.8028866 21
-1.8907019 0.089833446 1.809846 49
-1.7497962 0.08674489 1.8186163 87
-1.5727047 0.076169968 1.8185822 69.333336
-1.4236515 0.063982807 1.8223771 93.5
-1.273574 0.071876302 1.8175173 83
-1.1299796 0.07003545 1.8200698 85
-0.95977974 0.088519432 1.8229202 79.666664
-0.83238119 0.081713289 1.8264884 80.75
-0.67856228 0.072076999 1.8311465 80.428574
-0.51350772 0.089242451 1.8296318 86.800003
-1.9602268 0.19913732 1.8217465 8
-1.4270991 0.21354491 1.8302437 75.75
-1.2769401 0.20809643 1.8196449 75
-1.1282047 0.2314864 1.8244853 80.5
-0.96799487 0.21604267 1.8246479 80.599998
-0.82418287 0.22813943 1.8271872 78.400002
-0.68698454 0.21662326 1.8308671 79.36364
-0.54089952 0.21028991 1.8307065 82.75
-1.3957621 0.41495812 1.8314543 91.333336
-1.2771894 0.34748846 1.825668 85
-1.1296542 0.37650365 1.8264138 77.199997
-0.98132557 0.37972292 1.8305538 75.571426
-0.81912947 0.35933524 1.830323 76.75
-0.67577118 0.36764053 1.8336164 73.833336
-0.52403063 0.36471266 1.8383166 82.14286
-2.2312882 0.59573066 1.8123125 87
-1.4113244 0.54048276 1.8357459 83
-1.2729919 0.49088824 1.8358768 92
-1.1032209 0.52763182 1.8336147 81
-0.96055686 0.55169493 1.8539524 30.75
-0.80887395 0.51394051 1.8354954 78.875
-0.66611993 0.52082133 1.8376549 68.555557
-0.51128417 0.51549858 1.8403001 77
-0.43558151 0.58134931 1.8418165 57
-2.301919 0.62925178 1.8121282 2
-2.1179514 0.61731529 1.8127893 76
-2.0196712 0.67462331 1.8133878 87
-1.9220603 0.71447664 1.8232679 82.5
-1.6185064 0.70824617 1.8244063 80
-1.4251599 0.68685967 1.8372581 83.5
-1.2880756 0.65031314 1.8406788 82.333336
-1.0985383 0.67426437 1.8417314 80.666664
-0.96900493 0.67708176 1.839795 55.333332
-0.82737577 0.68631905 1.8397318 55
-0.67660886 0.6724807 1.8418688 63.900002
-0.53619218 0.69437653 1.8475065 45.5
-0.41575888 0.68764472 1.849346 62
-2.3457289 0.86180568 1.8228265 42.5
-2.1752205 0.81002784 1.8174256 79.5
-2.0089338 0.87106955 1.8197325 80
-1.8546252 0.83863467 1.8247823 87
-1.7835791 0.78465497 1.8219517 88
-1.5622414 0.82398111 1.8310596 89.5
-1.444128 0.80523038 1.8379474 83
-1.3189675 0.8139202 1.8433896 56.333332
-1.1236404 0.83380479 1.8449503 73
-0.97355473 0.81601286 1.8486454 59
-0.83043969 0.84685564 1.8445196 54.25
-0.67167598 0.81705487 1.8441185 46.857143
-0.53503007 0.83018517 1.8470021 45.75
-0.37374875 0.82480961 1.8538812 25.666666
-2.4543853 0.91908914 1.8205765 12
-1.8502512 0.96610278 1.8297048 75
-1.7525643 0.93600798 1.8304572 73.5
-1.5023258 0.92859912 1.834468 81
-1.4013124 0.94664907 1.8431174 51.333332
-1.2952942 0.96667337 1.8469262 36
-1.11255 0.98338902 1.8494101 89
-0.96576655 0.9664337 1.8456577 39.599998
-0.82084459 0.99007708 1.8583083 59.333332
-0.65838176 0.96512449 1.8509251 57.200001
-0.52430856 0.97262132 1.8599221 59.5
-0.39718989 0.94863361 1.858973 26.666666
-0.29606706 1.0233529 1.8604487 14
-2.0209146 1.0933293 1.8651403 24
-1.8827426 1.0994269 1.8314828 64.5
-1.7567115 1.1265626 1.835816 42
-1.565244 1.0680822 1.8336412 86
-1.4108343 1.1243857 1.8458253 58
-1.3115704 1.1106269 1.8496805 45
-1.1143807 1.1243552 1.8456494 80
-0.97066784 1.1459122 1.8558475 79
-0.80437338 1.1322454 1.8585218 75
-0.68770075 1.095421 1.858538 83
-0.54003108 1.1099024 1.8604345 51.857143
-0.38275573 1.1426221 1.8594517 31.333334
-0.24978313 1.1244272 1.8655587 3
-2.0167344 1.26993 1.826841 72
-1.8357698 1.2814255 1.8387402 37
-1.7341921 1.2982922 1.843209 39.5
-1.5252219 1.254617 1.8368853 82
-1.4299289 1.2776718 1.8441249 75
-1.2872045 1.297083 1.8491404 80.5
-1.0623472 1.287956 1.8542668 82
-0.96373886 1.2893834 1.8541301 71
-0.80069536 1.2897736 1.8603798 51
-0.67627966 1.2289009 1.8546129 76.5
-0.49227607 1.3143865 1.8595091 34
-0.39927882 1.2669177 1.8643075 19.75
-0.17084195 1.3048052 1.884328 1
-2.0409374 1.4913965 1.831611 69
-1.9327099 1.4999307 1.8372148 71
-1.4297966 1.4568498 1.8476422 76.5
-1.285203 1.4591217 1.8473512 78
-1.1895939 1.4600807 1.8515877 73
-0.94896078 1.4445156 1.8531618 74
-0.81049979 1.4348929 1.862159 25.5
-0.69136256 1.411832 1.8576499 57.333332
-0.49061933 1.4498106 1.8661405 10.333333
-0.36274609 1.4333354 1.8692676 12.5
-0.21300656 1.4330554 1.8850019 4
-0.11405357 1.4571201 1.8764943 24
-1.8304398 1.5023299 1.840845 73
-1.7238818 1.5017086 1.8419255 74
-1.2765503 1.6455112 1.8559536 70
-1.1616554 1.5788345 1.8556368 27.5
-0.92324287 1.6157708 1.8543302 66
-0.81524009 1.5847182 1.855778 27
-0.69160867 1.5835042 1.8623428 27.4
-0.57582384 1.523037 1.8671612 21
-0.36611661 1.5836321 1.8656098 30
-0.25520962 1.5518109 1.8682561 28
-0.058306132 1.590987 1.8773986 37
0.0075418176 1.5576807 1.8874751 5
-2.0051525 1.7392877 1.8418249 75
-1.8962325 1.7348541 1.848641 72
-1.7352886 1.7103424 1.8474768 75.5
-1.4185325 1.6509955 1.8461279 72
-1.2209469 1.6890384 1.8568932 25
-1.1028351 1.7663676 1.8613117 30.25
-0.79455882 1.7788591 1.8660089 47
-0.6743781 1.721156 1.8619757 51.666668
-0.54538482 1.708744 1.867237 44
-0.32340565 1.7374564 1.8643395 72
-0.19178925 1.7244513 1.8718613 64.25
-0.061233327 1.7483764 1.8805345 39.75
0.06914933 1.7027729 1.8828182 47
0.16898526 1.7846407 1.8890712 57.5
-2.2717919 1.816783 1.8413845 76
-1.6921705 1.880916 1.8515636 29
-1.6179407 1.9222791 1.8501966 52.5
-1.3508445 1.8648911 1.8537172 32
-1.2540287 1.8489074 1.8601152 29
-1.1260661 1.8683964 1.8639002 33.666668
-0.63805348 1.8777691 1.8694525 58.666668
-0.54735357 1.8672975 1.8737699 48.666668
-0.21809854 1.8770087 1.8743824 70
-0.10077126 1.8868219 1.8760858 64.333336
0.052442312 1.8681309 1.8836904 52.25
0.21537885 1.8958431 1.8858299 60.400002
-2.2376404 2.071636 1.8447462 80
-1.9536095 1.9941305 1.8432149 70
-1.8407134 1.9684711 1.845687 69
-1.697861 1.9869938 1.8510844 20
-1.6071266 2.0363309 1.8478764 24
-1.2711844 2.0919976 1.8652333 65
-1.0957401 2.0371511 1.8645859 62.25
-1.0018589 1.9837708 1.8659588 57.5
-0.74043876 1.9743121 1.8688265 60
-0.49578747 2.0198359 1.8759521 52.599998
-0.41847426 1.9852439 1.8770472 12
-0.063036762 1.9953749 1.8745645 70
0.054430522 2.0552444 1.8857065 31.75
0.22160442 1.9960101 1.8863933 51.599998
0.35624474 2.0635068 1.9048786 34.5
-2.3721271 2.1203287 1.8402561 77
-1.7332513 2.2103944 1.8605427 31
-1.5972631 2.1804338 1.8622038 46.5
-0.96232116 2.185638 1.8768444 60.599998
-0.62960613 2.1673546 1.8824352 24
-0.55349672 2.110744 1.8828422 19
-0.38921526 2.1892214 1.8772355 56
0.076174319 2.1758668 1.8955615 25.75
0.20060469 2.2155249 1.9064183 15.333333
0.37793756 2.151938 1.9132696 23.5
0.52327043 2.213789 1.9104114 54.666668
-2.8910594 2.3638206 1.8535038 77
-2.2131827 2.3303525 1.8524547 28.333334
-1.8945438 2.2690616 1.8495101 55
-1.5308216 2.3397777 1.8656502 71
-1.1302512 2.3045797 1.8751365 54.5
-0.96454614 2.3081827 1.8757542 64
-0.86200857 2.3502874 1.8808613 61
-0.30724648 2.3258178 1.8841246 52
-0.26074037 2.3514855 1.8912011 51
0.0016492128 2.2550049 1.8875588 9
0.22352 2.3412852 1.9178468 32.5
0.34723324 2.3612053 1.9248075 28
0.48370063 2.2931001 1.9219705 38
0.66849285 2.3444839 1.9029583 58.75
-4.0769448 2.5264711 1.8201398 2
-3.9127533 2.5266266 1.8391455 21
-3.2843935 2.5499249 1.840068 58
-3.0784411 2.4489646 1.8437063 70
-2.4841762 2.5030451 1.8504492 70
-2.3392892 2.4223895 1.8508881 73
-2.2469957 2.4613507 1.8517052 18
-1.7101477 2.5038965 1.8622757 68
-1.5695343 2.452812 1.8662902 67.666664
-1.498642 2.4663465 1.868977 64
-0.93897867 2.4738765 1.8805069 54.5
-0.85156804 2.4727027 1.8816937 55.666668
-0.220456 2.4587457 1.8903724 56.333332
0.16182666 2.422905 1.9080545 24
0.36949581 2.4551563 1.9010834 50.200001
0.49144092 2.4758263 1.898366 53
0.82200879 2.4602816 1.90764 58.5
0.93166882 2.5181379 1.9106027 57.333332
-4.0557156 2.5507975 1.8549849 10
-3.5039873 2.6462717 1.8238713 27
-2.6569364 2.5995848 1.8619593 51
-2.2824206 2.5622687 1.8542804 31
-2.1733122 2.6427872 1.8557638 60.666668
-1.822142 2.5653765 1.8576728 73
-1.4566622 2.6318848 1.8703243 67.666664
-1.06244 2.5764122 1.8802031 55
-0.77737683 2.6344836 1.8871355 47.666668
-0.71816564 2.586493 1.8894879 38
-0.10730124 2.6026962 1.893961 54.333332
0.33236003 2.5548553 1.8949138 52
0.52057874 2.5918236 1.8983958 59
0.64856547 2.6346953 1.9014782 61
1.0180845 2.5991683 1.9149969 56.25
1.12569 2.6400425 1.9187775 53
1.2365965 2.6875844 1.9220902 53
-3.0771849 2.830549 1.8526953 63
-2.8772345 2.7646015 1.8523353 33.5
-2.301564 2.7566557 1.8655216 77
-2.2016935 2.8040802 1.8632096 66
-1.5743314 2.7559295 1.8686421 65
-1.4408581 2.7867184 1.8770916 5.5
-0.93009365 2.833637 1.8822542 46
-0.85199875 2.7513535 1.8859261 39
-0.7009356 2.7677908 1.8868841 58
-0.59743285 2.8219221 1.9024235 6
-0.017177362 2.7101438 1.8950495 53
0.038704555 2.792804 1.9059213 39.333332
0.52356184 2.7065594 1.8998853 63
0.69693375 2.7434433 1.9038991 59.666668
0.83537084 2.8036754 1.9077902 56.400002
1.2889969 2.7634926 1.9246086 49.599998
1.4377527 2.803339 1.9372131 50.25
-3.8224173 2.9051557 1.8290569 8.5
-3.3011734 2.9743888 1.8561777 70
-2.9317117 2.9232876 1.8499995 1
-2.6081746 2.9696035 1.8601679 64
-2.4435604 2.8562379 1.8602229 71
-2.1577528 2.9469779 1.8662821 66.666664
-1.7362914 2.8889365 1.8683137 67
-0.63612002 2.9170766 1.8948258 32.5
-0.0029832304 2.9918008 1.9131476 6
0.061987609 2.8720016 1.907552 31.5
0.20540406 2.9382696 1.9072236 45.25
0.73712784 2.8612483 1.9099892 54
0.98213083 2.9476199 1.9138902 51
1.1058426 2.9922876 1.9212166 56.5
1.5799898 2.9157457 1.9359027 47.333332
1.7180504 2.9056115 1.9470587 52
-3.5504749 3.0985212 1.8545868 52.5
-3.0629699 3.1334324 1.8536814 3
-2.9295092 3.0641305 1.8606783 35.5
-2.190402 3.0824633 1.8656864 66.5
-0.77904046 3.1295254 1.9015049 6
-0.71077603 3.0209825 1.8991736 5
-0.5587855 3.0431089 1.8965673 57.666668
0.24227542 3.0724049 1.9103847 47.666668
0.40760791 3.0750606 1.9183584 43
0.97442418 3.023077 1.9239937 57
1.164937 3.074455 1.9279152 51
1.2826807 3.1162927 1.9295243 53
1.3544776 3.1309025 1.9317473 53
-3.7729044 3.1925361 1.8180784 26
-3.0781388 3.2612326 1.8658422 62
-2.8805807 3.2424784 1.851422 55
-2.3845706 3.236558 1.8634876 64
-2.1399193 3.225632 1.8636117 64.5
-0.46144757 3.1979525 1.9039375 51
0.20866872 3.2141614 1.9197911 43
0.40321454 3.1840332 1.9198276 53.666668
0.61694044 3.2974792 1.9288038 50
1.1794666 3.1948359 1.9262642 50
1.2691468 3.1615274 1.9258552 49.333332
1.4250976 3.2239957 1.9316226 48
1.5765262 3.2668684 1.9359697 54.5
-3.297601 3.4309161 1.8596274 62
-2.9258342 3.3618245 1.8551055 60
-2.5519614 3.3838823 1.8626899 65
-0.39078882 3.3468094 1.9096259 58
0.44195303 3.3594198 1.9254624 50.333332
0.5483188 3.3617916 1.9214807 47.5
0.65540338 3.4217212 1.9282426 52
1.4695946 3.4177089 1.9324025 52
1.5523628 3.3232334 1.9344864 52
1.714504 3.3767169 1.9406306 3
-3.565877 3.5433362 1.8628873 80
-2.9090929 3.5025201 1.8644459 60
-2.1789875 3.5132833 1.8830038 75
-2.0710511 3.526063 1.8735877 57.5
-1.2200091 3.4803576 1.9016448 40
-1.1309149 3.569315 1.8954581 56
-0.24201445 3.5497527 1.9175744 57
0.68641829 3.5409794 1.9299935 50
0.85327417 3.530911 1.9351038 53
-3.5506639 3.6160245 1.84548 60.5
-3.0509186 3.6684906 1.8665811 62
-2.8871324 3.7335262 1.8609899 55
-2.3292429 3.6920927 1.8869189 74
-2.0601709 3.7163017 1.878666 5
-1.5082144 3.6420252 1.8980075 51
-1.1423217 3.7100382 1.9002283 53
-0.23015526 3.6722112 1.9202155 52
-0.14433479 3.7407291 1.9125112 51
0.70657408 3.6504741 1.9344047 55.5
0.80487156 3.6187372 1.9304461 51
0.91355938 3.6491451 1.9342878 56.5
1.1109148 3.7133639 1.8567778 77.5
1.8052423 3.6583211 1.9427737 3
-2.9085269 3.8519673 1.8557342 62
-2.4919999 3.866575 1.8767897 55
-1.2564119 3.8723445 1.8998281 47
-1.0695137 3.8662543 1.9025542 58
-0.062244806 3.8248928 1.9244887 53
0.97323018 3.7745032 1.8739101 72
-3.3101838 3.9756198 1.8790368 57
-2.9452267 3.9872775 1.8644158 54
-2.829088 4.0321164 1.8828534 57
-0.98107529 3.9764395 1.9121362 34.5
0.065879673 3.9279199 1.9328426 41
1.4341857 4.0453091 1.9485282 29
-3.606487 4.1145482 1.8822984 55
-3.0075758 4.1443453 1.8757156 60
-0.97860503 4.1351976 1.9189218 32.5
0.073594101 4.1064601 1.9349574 45
0.18933772 4.1917281 1.9396356 57
1.5344439 4.166873 1.9484829 57
-3.6487021 4.2516303 1.8737546 50
-3.5911005 4.2412829 1.8764814 49
-3.0563388 4.2960129 1.8871771 50
-2.8975725 4.3209429 1.8760031 56
-0.86949742 4.2683444 1.9196137 61
0.1330234 4.2953544 1.9377719 28
0.2810111 4.2482266 1.9344169 49
0.36704963 4.2883625 1.9448532 21
-3.9071393 4.3878794 1.8764366 40
-3.7567472 4.3987947 1.8680216 45
-2.9075556 4.4592948 1.8762544 52
-0.91455692 4.383038 1.9147953 51
-0.81875533 4.496284 1.9142412 55
-4.1180248 4.6148348 1.8953313 40.5
-3.8918891 4.5783401 1.8786374 38
-3.3079069 4.5944796 1.892243 43
-2.926466 4.6061406 1.8842663 49
-2.7984226 4.6104264 1.8942205 3
-0.73107827 4.6069798 1.9235123 60
0.28047282 4.5147328 1.9445313 43
0.38619119 4.547051 1.9404746 42
0.53566998 4.607029 1.9488362 47
-4.2464757 4.6989517 1.8708121 38
-4.0446095 4.7610283 1.8777517 38
-3.6394153 4.7663541 1.8947507 38
-2.9670644 4.7714834 1.8901335 45
-0.64526337 4.713284 1.9187049 43
-4.40029 4.8802691 1.8922559 34
-3.6109335 4.9448996 1.894159 29
-3.7320478 4.9834909 1.8903557 39
-3.0391014 4.9542618 1.9037184 34
-0.70256746 4.9538736 1.9288565 28
-0.58752418 5.0587845 1.9294261 44
-4.6487203 5.1412044 1.9018933 33
-3.9647365 5.1250753 1.8958305 50
-3.8301783 5.1574068 1.8851372 40
-0.48196375 5.1621623 1.9394706 48
-4.2045875 5.3899446 1.9092871 50
-3.9482341 5.3583794 1.8930696 64
-3.2995884 5.3255849 1.9079169 27
-0.37686157 5.2804527 1.9459876 45
-4.3009095 5.508173 1.9052318 34.5
-4.0937848 5.578928 1.8930627 35
-3.6915913 5.5734963 1.9179457 33
-0.43335 5.6397939 1.9463688 36
-4.5498743 5.7943096 1.9196545 29.5
-3.6253228 5.7816873 1.9115022 31
-0.29695386 5.7303238 1.9480366 37
-4.7292476 5.951643 1.8490615 99.666664
-3.8353627 5.8892293 1.9098805 32
-3.9725642 6.0511479 1.9082289 34
-4.0284214 6.3396592 1.9171456 36
-4.4412851 6.5159693 1.8643779 62.75
-3.7395642 6.5485296 1.9352177 21
-4.1749535 6.6205292 1.9239336 28
-1.419349 6.8217425 1.9475359 32
-0.12638026 3.97751 1.9510747 1
-0.1466635 4.1554513 1.9520124 7
1.5404345 4.1248527 1.9579085 51
1.6491944 4.307838 1.9600395 44
1.7965851 4.3377929 1.9589406 46
0.40239096 4.4949288 1.9515723 41
1.7744548 4.4849534 1.9745623 42
1.9068384 4.4556384 1.977139 41
0.14204191 4.5269446 1.9529468 18
1.8225729 4.5891566 1.9723326 37
2.0732069 4.6068168 1.9803053 35
0.44264692 4.6983924 1.9529835 44
1.7746174 4.7038121 1.9749211 30
2.2228813 4.7164316 1.9814895 34.5
2.3568633 4.72299 1.9853243 33.5
2.3157461 4.8123121 1.9947373 33
2.5415671 4.8942685 1.9892975 34
0.48246443 4.962245 1.9680279 45
0.6257956 5.0464101 1.9651576 37
2.301126 4.9712825 1.9862224 34
2.2863948 5.1495662 1.9879566 35
2.8745456 5.4052229 2.0062001 18
-0.23275962 5.7978659 1.9730608 19
-0.047870059 5.9091792 1.9626552 36
-0.28724995 6.102304 1.9771796 15
0.033487689 6.0471158 1.9783174 27
0.068929419 6.4327536 1.9791809 29
-4.3777285 6.4523563 1.9502248 40
-0.2902734 6.5195007 1.9783903 19
-0.08592765 6.4845018 1.9699484 31
0.071472064 6.5304475 1.9664201 31
0.21641965 6.5982604 1.9832119 32
0.36144602 6.6575732 1.9836127 33
0.11206158 6.8242502 1.9715332 23
-1.2969157 6.9615016 1.9606181 33
-1.1812514 7.1252141 1.9668778 32
