# .PCD v0.7 - Point Cloud Data file format
VERSION 0.7
FIELDS x y z intensity
SIZE 4 4 4 4
TYPE F F F F
COUNT 1 1 1 1
WIDTH 23
HEIGHT 1
VIEWPOINT 0 0 0 1 0 0 0
POINTS 23
DATA ascii
0.94896752 2.1778095 -0.76169556 5
0.74810141 2.4360061 -0.75008076 15
0.84403336 1.6159844 -0.61848462 3
0.77651417 1.7119162 -0.62739706 3.5
1.3463192 2.6689396 -0.74009401 4
1.3610505 2.6163986 -0.74461716 4
1.0717695 2.7911315 -0.74445903 4
1.3942641 2.7402229 -0.74046761 7
1.4542764 2.9505839 -0.72784591 8
1.3080258 3.1194134 -0.73383051 8
1.2017466 3.4064012 -0.6220091 150
1.356925 3.3496244 -0.61074972 0
1.5887077 3.4250805 -0.7194193 10
1.5685797 3.4896369 -0.71621394 11
1.5320197 4.0118618 -0.63088834 0
1.7042346 3.9036872 -0.70307094 8
1.7266309 4.384028 -0.62972665 0
2.0270512 4.8947821 -0.67887384 1
0.40504068 1.6868706 -0.50575978 2
0.68772113 1.7578177 -0.49581513 0
1.1930258 3.4002161 -0.52863866 150
1.2532011 3.6791949 -0.49513698 37
-0.47151902 1.9209408 -0.40902111 43.666668
