# .PCD v0.7 - Point Cloud Data file format
VERSION 0.7
FIELDS x y z intensity
SIZE 4 4 4 4
TYPE F F F F
COUNT 1 1 1 1
WIDTH 991
HEIGHT 1
VIEWPOINT 0 0 0 1 0 0 0
POINTS 991
DATA ascii
-0.24901317 -1.2238028 -0.17642096 4.5
-0.3687582 -1.1184058 -0.17293471 3.5
-0.18975905 -1.17861 -0.17530511 10
-0.48030812 -0.94311965 -0.18014349 5
-0.43242776 -1.0099918 -0.16318114 3
0.27045095 -0.96374834 -0.17219555 12
0.34934506 -0.92346042 -0.1670579 11.285714
-0.60628951 -0.75492084 -0.16460161 4.5
-0.55672556 -0.83275127 -0.17361332 5
-0.20153669 -0.81462419 -0.16985527 9
-0.067418605 -0.77367795 -0.18880282 6
0.39434841 -0.89227414 -0.18399419 6.3333335
0.56861925 -0.78325224 -0.17026234 12.5
-0.63061631 -0.72622663 -0.16087168 4.75
-0.33398581 -0.61245483 -0.1858443 5
-0.21967331 -0.6226657 -0.1747912 7
0.68451649 -0.70702869 -0.17832448 13
0.79867965 -0.63580662 -0.1732707 11.666667
0.94383591 -0.53684485 -0.18113855 11.8
0.95565706 -0.40179995 -0.17603125 8
0.84139854 -0.22675778 -0.17031887 8.875
0.84540004 -0.10174946 -0.16893145 4.4000001
0.91936249 -0.05942066 -0.16526805 5
0.43439084 0.27271146 -0.15155064 0
0.53422999 0.27506682 -0.16624041 0
0.51955938 0.30122682 -0.18253867 0
0.29064012 0.57360089 -0.15916547 16.5
0.33881086 0.55166042 -0.16645803 11.8
0.20691328 0.70523816 -0.18049914 13
0.47705293 0.62377018 -0.15935418 1
0.17582269 0.75567162 -0.16664971 13.5
-0.17370102 1.0262427 -0.19266856 0
-0.14954545 1.0400373 -0.18714209 0
0.0228571 0.99898911 -0.16575782 0
0.17412378 1.0236516 -0.17182136 0
-0.10278657 1.1780262 -0.16261193 0
-0.18438955 1.3063 -0.16130957 3
0.25294822 1.3043823 -0.16480371 64.25
-0.18533376 1.3770063 -0.17999187 21
0.22394289 1.3562418 -0.16777673 84.5
-0.37817484 1.5797895 -0.16673689 25.799999
-0.52349406 1.7858959 -0.16562074 41
0.48289233 1.7649637 -0.16019315 11
-0.87066895 2.5742381 -0.1867613 97.666664
-0.69330966 2.6817033 -0.1718064 86.5
-0.2364606 -1.2491634 -0.075779453 5
-0.3743318 -1.1148939 -0.091823861 3
0.12730294 -1.0656008 -0.016168201 10
-0.48215017 -0.94660795 -0.084904015 4.3571429
-0.43164238 -1.0132608 -0.081344374 3.6666667
0.1044043 -1.0038348 -0.0091742482 9.5
0.22700362 -0.99581146 -0.081161976 12.25
0.34194627 -0.92227304 -0.080006853 11
-0.60726094 -0.7649309 -0.06896615 5
-0.56200069 -0.83304292 -0.079205938 4.8518519
-0.21759987 -0.78467321 -0.11093237 7.5
-0.053018454 -0.77706361 -0.056816876 10.666667
0.42101607 -0.86560673 -0.039526921 11.111111
0.50336003 -0.82156324 -0.058315996 6.75
0.60207659 -0.76156437 -0.11005306 14.75
-0.66853142 -0.67309988 -0.08351291 4.7692308
-0.31914487 -0.6338293 -0.11860467 2.5
-0.20842455 -0.62262082 -0.066774614 8.818182
-0.14029908 -0.60734761 -0.095206566 7.5
0.67878026 -0.70698845 -0.093495987 11.642858
0.79456508 -0.63401806 -0.064621195 10.4
-0.77912998 -0.51124561 -0.034196477 4.5357141
-0.73237568 -0.57866246 -0.059395581 4.2857141
-0.34189048 -0.56386983 -0.1134624 2
-0.21651122 -0.59094691 -0.058072846 6.75
0.87166196 -0.57798946 -0.054020848 9.625
0.96535248 -0.50744945 -0.073715471 8.7857141
-0.845218 -0.40876672 -0.027880086 4
0.88699579 -0.31397921 -0.096172832 2.3333333
0.93453228 -0.38367602 -0.064546473 7.0769229
-0.93727255 -0.2893379 -0.0014243174 11
0.83456159 -0.23923066 -0.093590073 4.1666665
0.83132499 -0.10488724 -0.12945046 1.6666666
0.43210489 0.13855883 -0.11829496 1
-0.7786023 0.23350634 -0.059476469 0
-0.73969674 0.26897174 -0.074443616 1
0.41698208 0.23609395 -0.11597975 0.2
0.50231087 0.23511618 -0.12710534 0.2631579
-0.66111124 0.34377104 -0.0295793 0.5
-0.57616776 0.34511507 -0.025413111 1
0.40075308 0.41222391 -0.047887918 8.6000004
0.51416498 0.41078177 -0.05610384 3.7272727
0.64785528 0.41093794 -0.054881316 1.4
0.28997347 0.57294464 -0.090721697 11.875
0.3492777 0.51109195 -0.067023858 7.4814816
0.52605754 0.5139609 -0.048303735 3.625
0.69734162 0.55125922 -0.062230054 10.416667
0.77519208 0.49504995 -0.063134126 12.125
0.23992738 0.65187025 -0.086616747 12.26087
0.52405453 0.64304775 -0.078926548 1.8
0.65926331 0.66200966 -0.095140718 16.142857
1.1900282 0.67952085 -0.08642868 17
1.2124478 0.67334759 -0.07399369 3
0.12004809 0.83107787 -0.09154468 11.5
0.16071793 0.77767181 -0.12501311 15
0.95254165 0.82064748 -0.092034079 17
1.0978681 0.84407091 -0.10213497 53.799999
-0.18490231 1.0206301 -0.080962032 0
-0.074493892 0.98359913 -0.094031811 0
0.0051835002 1.005474 -0.13302195 0
1.0319307 0.94950688 -0.096190654 96
1.4341187 0.95195645 -0.13271771 2
-0.081799202 1.0746056 -0.061961975 0
0.070027962 1.1069528 -0.086610414 2
1.2327907 1.1195508 -0.11724997 3
-0.31362453 1.273628 -0.0072355019 0
-0.26385075 1.2665286 -0.078990966 0
0.13277175 1.2580782 -0.1253072 2
0.21577676 1.3319815 -0.10613372 14.333333
0.18485157 1.3611295 -0.11950396 9.5
-0.41635907 1.6114051 -0.11610068 9
-0.26869768 1.5377917 -0.10754091 20
-0.52292395 1.7786485 -0.12293879 32
-0.73801893 2.0921428 -0.13979688 23
-0.69106668 2.1658547 -0.14550781 8
-0.9653337 2.4186049 -0.14430766 6
-0.83136201 2.5525692 -0.14478123 40
-1.5520816 4.3861341 -0.063447244 42
-0.23974018 -1.2174546 0.0044816388 12
-0.38553181 -1.1028756 0.057473142 1.5
0.11289152 -1.0761412 0.024769798 11.333333
-0.49117225 -0.95947224 0.082185909 1.8461539
-0.43450454 -1.0357853 0.068791091 1
0.14769678 -1.0430349 0.013587738 12
0.27945557 -0.93958312 0.056254689 3.3333333
0.33573416 -0.92004234 0.041024193 10.666667
-0.61108005 -0.77738762 0.097871505 3.4285715
-0.5657261 -0.84990776 0.085194059 3.1538463
-0.30704445 -0.76911354 0.1213097 4
-0.23085102 -0.7984069 0.09937378 6.75
-0.062267035 -0.76472723 0.11873122 7
0.38473016 -0.88449717 0.0085190786 11.75
0.52440971 -0.79225808 0.057427317 5.8571429
0.68693179 -0.78843808 0.13399071 2
-0.67436206 -0.6730684 0.046539035 3.6153846
-0.3610664 -0.68160945 0.11782686 4.6999998
-0.19804576 -0.67228919 0.11585237 4.5999999
-0.10480882 -0.70151222 0.099187568 5.9000001
0.69592309 -0.68390644 0.031133896 5
0.78672779 -0.62712711 0.027565356 9.875
-0.78938532 -0.50123167 0.074591294 4.09375
-0.73622406 -0.58355528 0.065106362 3.7777777
-0.52256894 -0.54642993 0.14134914 4
-0.35180509 -0.52189624 0.080114774 3
-0.23613843 -0.5143109 0.1027531 3.4000001
-0.11777429 -0.51240885 0.068363659 2.75
0.86143798 -0.573937 0.051188882 8.125
0.96421015 -0.50073606 0.03635662 8
1.0535698 -0.45595822 0.053222444 6
-0.91673386 -0.31438544 0.071965612 7.1999998
-0.85149735 -0.40410382 0.070934385 3.75
-0.25810707 -0.38835791 0.088413574 2.5
1.0455868 -0.43705025 0.075107448 6
-0.97271144 -0.23261309 0.087921448 7.7857141
-1.0940934 -0.06135403 0.10964283 7
-1.0347049 -0.12813458 0.090827242 8.2857141
-1.2216377 0.12515846 0.14250517 7.5
-1.1717036 0.045498278 0.1185574 8
-0.97584409 0.13470173 0.12628233 5.1999998
-0.92195421 0.20222126 0.1347177 3
-0.84727097 0.27879113 0.11170352 0
-0.78986293 0.31977606 0.079533085 0
-0.66405386 0.34542069 0.063197501 0
-0.5443716 0.35525128 0.045204267 0.33333334
-0.081384905 0.96360177 0.10140718 0
-0.20511957 1.1494212 0.070662841 0
-0.13111728 1.0788475 0.020887488 0
-0.30841917 1.2796869 0.12504317 3
-0.24887799 1.2130362 0.091710888 2.5
2.9831836 2.1509125 0.01693126 30
-1.8401283 4.3429384 0.096882544 100
-1.5786343 4.5373912 0.076372184 82.571426
0.29326171 -1.2238393 0.25283068 1
0.34852275 -1.2140762 0.23249091 15.5
-0.38780028 -1.1048625 0.1630283 0.5
0.40032452 -1.184181 0.20905539 11.4
0.57499272 -1.0660528 0.26343685 10.2
-0.49767408 -0.95398676 0.18156458 1
-0.42592382 -1.0478066 0.18637776 0
-0.27793911 -1.016259 0.2846061 5
0.59121072 -1.0429641 0.26298201 12
0.66985708 -1.0042971 0.24489132 9.8461542
0.80618382 -0.9281556 0.25187495 8.166667
-0.62363416 -0.78180552 0.21069494 1.8
-0.56966162 -0.8601163 0.19890831 1
-0.31488764 -0.78415698 0.15824935 5.5
-0.19315554 -0.78148532 0.23463795 3
-0.68727541 -0.66873068 0.20044039 3.1304348
-0.47321343 -0.63834697 0.22100632 4.8333335
-0.35420367 -0.62328213 0.23290808 5
-0.21842231 -0.65908217 0.19451445 4.7272725
-0.10311344 -0.6571936 0.23716055 4.8888888
0.018973839 -0.68542016 0.29420686 4
-0.79127741 -0.51744682 0.24035823 2.5263157
-0.73910916 -0.5827558 0.2048365 3.25
-0.48847571 -0.56004053 0.2041667 3
-0.37400416 -0.53968477 0.227209 3.8571429
-0.20824508 -0.5502125 0.23130177 4.2142859
-0.12390059 -0.5339908 0.21141984 3.75
-0.93063647 -0.31291017 0.20440996 5.6666665
-0.85945636 -0.40894428 0.21924804 2.2666667
-0.35589254 -0.38472283 0.28268504 3.125
-1.0513098 -0.15695757 0.16642439 6
-0.99676573 -0.22145845 0.2272082 6.5999999
-1.0990152 -0.069354981 0.21490368 6.52
-1.048929 -0.13953795 0.28483754 4
-1.2152169 0.10768753 0.24483255 6.5
-1.1490706 0.057991147 0.22781685 5.5
-1.0297556 0.12560193 0.21653384 6
-1.2753881 0.20907553 0.23566607 5.4285712
-1.104009 0.23280565 0.23483801 1.3333334
-0.99295723 0.23276325 0.23072866 1.6
-0.97729915 0.35035548 0.2767987 0
-0.8200562 0.34941235 0.20206533 0
-0.69495314 0.36356023 0.24763907 0
0.83111328 0.65798026 0.20148942 3
0.93240017 0.66923845 0.2237578 6
-0.18929973 1.0281185 0.22368583 0
-0.12591106 1.0070583 0.17635567 0
0.6931529 1.0219678 0.22183782 3
-0.17857438 1.0597901 0.18986338 0
0.59488106 1.1847434 0.19385287 1.5
0.67300093 1.0661404 0.19855064 0
-0.3073194 1.2526144 0.17886119 1.6666666
-0.27500245 1.2211022 0.16909713 0
0.53794229 1.2564797 0.21056634 3
0.35597795 1.5533223 0.18091859 0.75
-2.0105765 4.0190353 0.26189247 20.5
-1.9495237 3.9919384 0.28765619 35
-1.7538445 4.1516132 0.27623343 49
-1.7892524 4.2315087 0.26826078 48
-1.8189752 4.3788795 0.22175059 84.599998
-1.7955818 4.3916478 0.1726892 75
-1.5326958 4.5779681 0.22115684 79.5
-1.4667172 4.6265788 0.26084825 29.5
-1.3873814 4.6749601 0.25350446 72
-1.3081338 4.7289495 0.21168417 48.5
-0.25670651 -1.2404968 0.37199897 6
0.25979158 -1.2838832 0.35250735 9.2222223
0.30051345 -1.2452682 0.30187029 1
-0.36062789 -1.1557441 0.32782722 0
0.40961069 -1.1686431 0.423574 10
0.51639873 -1.0977269 0.35384449 10.705882
-0.48936391 -0.96081972 0.3910265 1.8333334
0.67834163 -0.98974216 0.3955335 22.799999
0.79897368 -0.92069054 0.33686405 10.181818
-0.63017493 -0.7789762 0.40752953 0
-0.5223456 -0.86035967 0.38885689 3
0.8523429 -0.81166625 0.38984478 43
1.0117657 -0.77026117 0.38452768 1
-0.69792747 -0.67885816 0.40644708 0.40000001
-0.3423999 -0.70482135 0.37069941 6.5
-0.20213458 -0.6574918 0.31167316 6.75
0.029793555 -0.70060629 0.34176508 5.1999998
1.1806216 -0.67857426 0.3667511 1.5
-0.80694133 -0.50747997 0.35671297 1.1428572
-0.45377421 -0.55068803 0.34203097 4
-0.3643533 -0.51116663 0.36338043 3.8235295
-0.25834429 -0.5384022 0.36011454 4.090909
-0.9360019 -0.31637421 0.38866487 5.5999999
-0.87645453 -0.39388525 0.33570921 1.375
-0.35751185 -0.40819633 0.31414667 3.6666667
-1.0009427 -0.22386976 0.39146027 6
-1.1040857 -0.06424696 0.34768805 5.2857141
-1.2195185 0.10815199 0.37407994 5.5
-1.1521678 0.061116867 0.36066729 5.1111112
-1.1032491 0.21886219 0.36437654 2.8333333
-0.99585032 0.25038588 0.40106514 3.4545455
-0.93281907 0.3595961 0.36464673 0
-0.88822329 0.38555035 0.44182426 0
-0.66493207 0.52380341 0.42192408 0
-0.6645003 0.6011461 0.43295658 0
-0.25514081 1.0009502 0.37648746 0.33333334
-0.094229542 1.0286072 0.42179784 1.5
-0.34184128 1.1200287 0.4105005 0
-0.24361698 1.1645952 0.38287482 1.2
-0.11193669 1.0533186 0.38204169 1
-2.3403485 4.0342011 0.39374191 105
-1.9735136 4.0458846 0.34504968 64
-1.9488417 3.9680181 0.33287328 40
-2.0105889 4.0886459 0.38722369 96.5
-1.7080249 4.2469535 0.37385282 75.333336
-1.6634687 4.4036279 0.41764462 129
-1.5899755 4.5409679 0.39198133 71
-1.4631065 4.6348562 0.44152534 73
0.25804633 -1.2409713 0.59296632 26
0.31050608 -1.2181631 0.56184411 43
-0.41295615 -1.0939499 0.46313 0
0.37025595 -1.1867546 0.49481472 25.571428
0.54192477 -1.0649054 0.5374136 40.599998
-0.44982725 -1.0412623 0.46695441 0
0.57174528 -1.0385964 0.50246954 72
0.6199618 -1.0153632 0.49313846 39.222221
-0.63250947 -0.7810719 0.51115221 0.16666667
-0.59378713 -0.80614817 0.47032505 0.5
-0.34633607 -0.75971103 0.53412366 4
-0.75111091 -0.6097455 0.588633 0
-0.70374566 -0.67303032 0.52901864 0
-0.47949523 -0.60634875 0.53182399 4
-0.31386554 -0.70118856 0.55387682 6
-0.26914173 -0.73722506 0.54224229 5
-0.79081571 -0.5414232 0.53787547 0
-0.86817062 -0.42143512 0.52765578 0
-1.0513358 -0.15229177 0.51238441 5.5
-1.0107261 -0.21437415 0.51554585 6.090909
-1.1059389 -0.068739444 0.53251123 5.5625
-1.2223215 0.10652806 0.50607312 5.5
-1.1819758 0.047491711 0.51924795 6
-1.3025337 0.27267498 0.49552122 3.5
-1.0780016 0.18565921 0.46700001 2
-0.9543196 0.2406307 0.4833107 5.3000002
-0.89055473 0.29290473 0.51871079 5
-0.90298676 0.37703636 0.5132516 3.6666667
-0.89056081 0.37572891 0.49870014 2
-0.85309565 0.46559173 0.49462 5.8000002
-0.68012744 0.50182772 0.51193559 0
-0.15486607 1.0117177 0.47509429 0.33333334
-0.12719595 1.0279808 0.46365735 0.66666669
-0.16779825 1.0686439 0.45711911 3.5
-2.3635292 1.9694476 0.57378018 3
-2.5922046 3.8819954 0.54056656 88
-2.3045423 4.0697188 0.52680361 84.666664
-2.0042956 4.1479526 0.49489546 90
-1.8666282 4.1527843 0.56361669 47.666668
-2.0551767 4.200561 0.47528213 101
-1.8380594 4.3014226 0.53865278 65
-1.7451351 4.4335685 0.55927479 68
-1.4523146 4.6407728 0.56598133 76
-1.5971949 7.0630751 0.57111317 94
0.25953227 -1.2593374 0.64903235 12.333333
0.39871129 -1.1513317 0.6974209 44.909092
0.48620507 -1.0947505 0.64475065 64.333336
-0.6213975 -0.8081302 0.70759225 1
-0.50531656 -0.82685506 0.64429468 1
-0.3751097 -0.82883698 0.66982281 5
-0.71209329 -0.65804124 0.66225457 0.5
-0.53587931 -0.70465463 0.65256375 5.6666665
-0.42028776 -0.62639534 0.67793667 9
-0.81048948 -0.51838875 0.65885204 0.2
-0.91277808 -0.38011649 0.74353039 3
-0.87930721 -0.40886164 0.64961874 0
-1.0552498 -0.15417589 0.63110173 6
-1.0137794 -0.21856777 0.68046016 5.5
-1.1134152 -0.068024084 0.669792 6.1428571
-1.2238873 0.098824367 0.67756438 5.375
-1.1686372 0.017042276 0.65343362 6
-1.2848892 0.19237727 0.68819809 4.75
-1.3783686 0.33496356 0.61855173 2
-2.4144969 1.7973428 0.71137917 6
-2.4295597 1.801317 0.69029057 8
-2.341464 1.9760498 0.66117454 3
-2.843401 3.7205744 0.6856302 82
-2.5580771 3.9088259 0.67799944 78.666664
-2.5403588 3.9242885 0.68437463 77.333336
-1.894806 4.0495729 0.68283749 42
-2.2958779 4.0862727 0.64346206 75.333336
-2.1338973 4.1781883 0.73855662 82
-2.0321558 4.1689196 0.68441659 55
-1.7142103 4.4786549 0.72277999 71
-1.4473065 4.6557426 0.68153298 69
-1.2430621 7.3009324 0.70745695 79
-1.1869892 7.3368382 0.66507566 89
-1.0985419 7.3910589 0.72776341 83
0.34711421 -1.1787328 0.7767604 38.75
-0.63910854 -0.78471661 0.85901046 0
-0.71385765 -0.68049741 0.84570086 0.5
-0.8115384 -0.53455907 0.8195799 1.3333334
-0.92226774 -0.36163878 0.80972773 1.3333334
-0.87372577 -0.43056571 0.84802204 1
-0.99731493 -0.25114098 0.81361908 5.8333335
-1.1104138 -0.082338989 0.82703894 5.5
-1.2208736 0.087029681 0.85608608 11
-1.1905605 0.038417567 0.79613084 14.333333
-1.2982813 0.20057747 0.82192993 8.8000002
-2.4960084 1.8394793 0.75023937 4
-2.8021472 2.0758326 0.78919911 36
-3.1024301 3.5613718 0.83304453 84
-2.8126578 3.7430663 0.7905674 47
-2.7992859 3.7642574 0.83029914 34.5
-2.5342834 3.9362962 0.80797118 78
-2.3675268 4.0440183 0.8580687 68
-2.2558949 4.1287112 0.83837193 71.333336
-2.1905351 4.1702714 0.78548813 69
-1.9727577 4.322392 0.87946117 65
-1.7063154 4.5006614 0.84473789 66
-1.4647845 4.6485443 0.75348604 68
-1.4126722 4.6859779 0.77597255 68.5
-1.3096519 4.7510242 0.75204217 52
-1.5905114 7.0721579 0.75077164 87
-1.1946793 7.3359056 0.8230505 92
-0.96507174 7.4764366 0.75128531 75
-0.63252133 -0.80088443 0.98468161 0.66666669
-0.77024674 -0.61453146 1.0217049 0
-0.70696938 -0.68756115 0.93949902 0
-0.81181747 -0.53579611 0.95280296 0.40000001
-0.94940358 -0.33146968 0.9697637 6
-1.0625384 -0.16716653 0.93870068 6
-1.0201013 -0.23082982 0.99329585 14.5
-1.1312412 -0.058525976 0.98107499 36.666668
-1.2025518 0.058821455 0.94040942 55.5
-1.192544 0.038092881 1.0183821 54
-1.3646096 0.29183286 0.9564532 66
-1.2921548 0.1900398 0.98116267 45.25
-1.3833177 0.31514269 0.96932268 3
-3.3783906 3.4046819 0.98706925 116
-3.0733171 3.5920248 0.95936048 101
-3.0501916 3.6089044 0.9611342 95.5
-2.7822068 3.7946246 0.96110892 59
-2.6290581 3.8931959 1.0155325 97
-2.4727528 3.9918804 0.98169339 74.400002
-2.390008 4.0424495 0.9042505 82
-2.2279856 4.1609926 1.0342112 63
-1.9573179 4.3382187 1.0027751 63
-1.7138578 4.4946032 0.9370333 66
-1.6933459 4.5135136 0.96603537 68
-1.5734873 4.5845566 0.91623014 68.666664
-1.6106 7.0717144 0.94916856 86
-1.4989527 7.1454067 0.99425328 77
-1.3762801 7.2116647 1.0046713 75
-1.2634853 7.283802 1.0022848 81
-0.59105515 7.7520924 1.0473101 5
-0.65110022 -0.7946223 1.0810639 0
-0.76472175 -0.64449376 1.1251404 0
-0.71369433 -0.69934636 1.1159135 0
-0.82834148 -0.53259033 1.0831494 0
-0.91692418 -0.40639266 1.0685637 0
-0.89054406 -0.43596709 1.1107261 0
-1.0174245 -0.23183958 1.0972691 49
-1.1069272 -0.098616034 1.1155226 52.75
-1.2190647 0.066596828 1.0961676 52
-1.1890687 0.022140976 1.1333587 52
-1.3729039 0.29578897 1.108472 49
-1.2838869 0.16042025 1.1133542 106
-1.4075123 0.34767869 1.1367202 69
2.7789838 2.3272309 1.1254473 3
2.6547127 2.5003657 1.1408458 46.400002
2.508569 2.6984475 1.170898 67
2.5716016 2.6127834 1.1786851 73
2.5172353 2.70154 1.1753644 68
-3.3340299 3.4278069 1.1010312 103
-3.302345 3.4564207 1.1670167 93
-3.0290368 3.6320038 1.1115905 101.6
-2.8869195 3.7262554 1.1721517 96
-2.7449031 3.8246493 1.136983 92
-2.659302 3.8791969 1.1116109 44.333332
-2.4818573 3.9985547 1.189345 75
-2.2046807 4.1766729 1.1610029 64
-1.955357 4.3415089 1.1195291 65
-1.8842206 4.3872147 1.1043446 66.333336
-1.7731625 4.4602528 1.0594996 73
-1.3994676 4.7097945 1.0722065 77
-1.5891658 7.0950608 1.0776834 93
-0.63122606 -0.84383476 1.2517653 0
-0.80103326 -0.59645838 1.2332078 0
-1.097193 -0.1672238 1.3462996 91
-1.0067073 -0.27503315 1.2538363 64.333336
-1.1369621 -0.071948379 1.234272 67.333336
-1.2671854 0.12013964 1.3103147 53.5
-1.3891736 0.29208601 1.2985892 90
-1.3118727 0.19910981 1.2426914 53
-1.3942473 0.31471249 1.2392387 87
2.7178595 2.3912387 1.3005636 65
2.6759148 2.4655826 1.2262223 74
2.5333259 2.6667392 1.2575505 67.666664
2.5776463 2.6051688 1.3248206 70
2.4326496 2.8072701 1.2873278 63
-3.2838285 2.9867337 1.2778083 1
2.352313 2.9331675 1.2914522 68
2.4065399 2.8525636 1.2909405 66
-3.2533772 3.0033047 1.2665787 8
-3.3014362 3.4590378 1.2443411 99.5
-3.2421155 3.5028095 1.3145967 95
-3.0081403 3.6524262 1.2372888 99
-2.9074404 3.7248116 1.2863623 85.666664
-2.7762225 3.8106799 1.2069939 83
-2.4581306 4.0253758 1.3239949 78
-2.1982796 4.1945009 1.3051656 70
-2.1603546 4.2187228 1.2859912 66.5
-2.0548134 4.2791114 1.2338942 68
-1.6771674 4.5314426 1.2239727 76
-1.3822081 4.7326288 1.2733505 80.5
-1.6739985 7.0407124 1.242173 87
-1.0517762 7.4614339 1.2764908 74
-0.60661292 7.7597585 1.2410887 63
-0.40316612 7.900239 1.3107554 61
-3.0722713 -3.2367501 1.3545196 0
-1.0675145 -0.21570806 1.433333 106.33334
-1.1826518 -0.052837864 1.4391258 150
-1.2608995 0.082229614 1.4286017 109.5
-1.4668128 0.37845954 1.4940889 104
2.7859726 2.3298669 1.3982376 25.5
2.6451578 2.4913728 1.4359877 64.5
2.4459069 2.7797074 1.4120314 65.800003
2.3245442 2.9494832 1.4406453 45.333332
-3.3207309 3.2649868 1.4375283 17
-3.192951 3.5395591 1.423122 89.666664
-3.0430148 3.6396418 1.3663626 95
-2.9762456 3.6822698 1.3694199 94
-2.7244749 3.8511572 1.4185734 88
-2.4330945 4.0452528 1.4760411 78.5
-2.3352435 4.1041694 1.4183969 76.666664
-1.9531556 4.3661366 1.3817148 74
-1.6584433 4.5522037 1.3627169 76
-1.6427664 4.5729671 1.4962921 75
-1.36748 4.7625275 1.4736706 73
-1.0537416 7.4707227 1.4715449 74
-0.62715334 7.7622719 1.4169048 74
-1.0404422 -0.26753393 1.6149741 91
-1.1417161 -0.11284392 1.575065 103.33334
-1.2699316 0.070678733 1.5996869 117.5
-1.3690741 0.24032982 1.5458239 86
-1.3394374 0.19847193 1.609033 66
-1.4125634 0.30375218 1.5115474 90
-1.5877118 0.51149589 1.5596545 150
2.5179226 2.664866 1.5108687 60.5
2.5700355 2.590343 1.5647168 63
2.4384358 2.7776165 1.6397079 62.333332
2.3488128 2.9198697 1.5703378 60.25
-2.967577 3.2102489 1.6352326 65
-3.1722338 3.3795033 1.616523 43
-2.6718504 3.4435699 1.6492282 57
-3.3122396 3.4547007 1.5283896 44
-3.1968019 3.5409658 1.5349956 95.5
-3.0012527 3.6702156 1.5135642 97
-2.9382417 3.6617138 1.634334 79
-4.2087669 3.8655798 1.5639632 22
-2.6553795 3.8518114 1.6364794 8
-1.9544246 3.7681065 1.579244 17
-4.2913537 3.9413192 1.5562621 23
-2.5905266 3.9438016 1.5930777 82
-2.2243273 4.1946869 1.5401324 75
-1.9238967 4.3825617 1.5189011 73
-1.6236612 4.5946908 1.6336514 78
-1.4350312 4.719593 1.5418109 73.5
-1.4882526 7.181962 1.5007184 80
-0.84141809 7.6308031 1.5941572 67
-0.65373719 7.7593327 1.6064725 69
-0.50231087 7.861433 1.643541 8
-3.815748 -2.0297384 1.6768695 7
-3.5413022 -1.9845908 1.6987436 0.5
-3.5595398 -1.8910867 1.7640837 8
-0.73219091 -0.70136106 1.7950174 17
-0.88566792 -0.50389743 1.7816228 20
-0.93783867 -0.42146707 1.7834529 23
-1.0933192 -0.17454544 1.7305173 33
-1.016398 -0.28403622 1.7527293 27.5
-1.1378927 -0.06076609 1.7738578 45
-1.2271726 0.021624047 1.6978817 42
-1.1305752 0.092454903 1.7940894 83.25
-1.3833554 0.24635413 1.6925422 62
-1.2869239 0.20008728 1.7851973 46.75
-1.1287078 0.21957369 1.7961932 81
-1.0104983 0.2776702 1.7988025 80
-1.4331739 0.39484408 1.7678478 35.75
-1.2826264 0.37468395 1.7824557 78
-1.1163197 0.3637594 1.7947528 78.400002
-0.94891226 0.32390672 1.7993754 80.5
-0.89245939 0.35168397 1.7987465 79
-1.5685731 0.54576665 1.7307209 9.5
-1.4256655 0.54319465 1.7781992 95
-1.2755519 0.53871655 1.7800359 82.333336
-1.1214384 0.52222484 1.7933716 76.666664
-0.98265094 0.51412958 1.7973442 76.166664
-0.87354195 0.57999939 1.7991066 73.5
-1.6877515 0.70332354 1.7529298 1
-1.5380164 0.66285866 1.7686805 91
-1.4051096 0.690301 1.775876 91.5
-1.2631239 0.68466049 1.7868842 96.333336
-1.0968194 0.65195811 1.7881516 78
-0.96434402 0.67556024 1.7965666 74.800003
-0.83757824 0.63420063 1.7951938 75
-1.6773913 0.87121993 1.7494947 89
-1.5571322 0.797948 1.7614069 88.5
-1.3929485 0.84182692 1.7743578 86.333336
-1.2928638 0.81579471 1.7825335 96.666664
-1.1210629 0.81122035 1.7886009 86
-0.97515011 0.81153393 1.7962805 82.333336
-0.85375822 0.82274175 1.7961355 68
-1.6631593 1.0461301 1.7482694 83
-1.572679 0.94815618 1.7560812 81
-1.4374417 1.0006047 1.7646875 83.5
-1.2873528 0.97044957 1.7780269 86.599998
-1.1168661 0.97319329 1.7917038 84
-1.0100516 0.92869228 1.7988166 92
-0.89503604 0.90692765 1.7950274 70
-1.5346625 1.1237459 1.7508439 1
-1.3520186 1.0604421 1.7725867 89
-1.248991 1.0799415 1.7890283 15
-0.98153865 1.1145033 1.7939209 86.400002
-0.96139652 1.2937485 1.7887731 72.666664
-0.85420448 1.3138139 1.7976285 75.666664
-0.96628582 1.4998856 1.7806576 70
-0.81197631 1.4647044 1.79486 67.75
-1.1066084 1.5686074 1.7700523 70
-0.80123466 1.644066 1.7880901 58
-0.6977939 1.6034889 1.7962953 69
-1.1160289 1.6890116 1.7707371 72
-1.0458517 1.6991875 1.7697108 74.5
-0.88939148 1.667938 1.7840863 65
-0.63688344 1.7504202 1.7960171 66.333336
-0.55652535 1.7657074 1.7972931 67
-1.25853 1.8898928 1.7536768 49
-1.1316534 1.855194 1.7659558 63
-1.0174743 1.8771435 1.7714198 67.400002
-0.80094784 1.8422425 1.7893449 62
-0.717309 1.8011324 1.7861353 68
-0.48853368 1.834408 1.7988163 78
-1.0926291 2.0643382 1.7630745 59
-0.94671029 2.0249541 1.7712625 63.333332
-0.6593827 1.9873571 1.7853732 60.5
-0.45540389 2.077528 1.7952927 57
-0.44419473 2.0102203 1.7985114 61
-1.2174437 2.1135175 1.7484041 69
-0.95705807 2.1842799 1.7670585 64.5
-0.87967396 2.1881645 1.772119 59
-0.54870337 2.1668642 1.7910935 54
-0.42571542 2.100116 1.797058 38
-1.1204953 2.3483727 1.7564472 59
-1.0371101 2.2967994 1.7621006 55
-0.8126545 2.3353145 1.7751598 58.5
-1.4005626 2.4959416 1.7472095 46.333332
-0.92772132 2.5196047 1.7617351 54
-0.80900705 2.4551377 1.7754897 57.5
-0.72190416 2.5114007 1.7702904 45.5
-1.5790412 2.6761966 1.7226003 68
-1.4339497 2.6107469 1.7364895 66
-1.3306031 2.6333652 1.7358096 61.5
-1.00449 2.5883238 1.7572495 56
-0.68381703 2.6415677 1.7811828 32.5
-2.0206256 2.7784147 1.7164228 23
-1.6813451 2.75618 1.7147409 72
-1.2979118 2.7851961 1.7377229 68.5
-0.83568734 2.8016694 1.7617062 58.5
-0.57180536 2.7922516 1.7790275 61.75
2.4636946 2.7389605 1.6974365 63
-2.4482169 2.9409227 1.6837407 11
-1.9952521 2.9031906 1.698541 72
-1.437511 2.9277387 1.7270746 61
-1.2419158 2.9112523 1.73201 63.666668
-0.60918397 2.9180548 1.7740589 68
-0.48718098 2.917403 1.7809266 62
2.3370934 2.9215076 1.7730006 61
-2.7442191 3.0729272 1.6604033 46
-2.6004589 3.0561173 1.6621152 68
-2.0182059 3.0296423 1.6991739 75
-1.5792477 3.0822709 1.7162818 62
-1.2074239 3.069186 1.7411345 69
-1.170117 3.0802634 1.7345382 60
-0.68605316 3.0687122 1.7654732 61.5
-0.45136976 3.0110984 1.778401 57
-0.41261542 3.0583382 1.78228 63.666668
-2.7817419 3.2182455 1.6505507 62
-2.3641121 3.2984414 1.6704587 67
-2.2283599 3.157603 1.6855344 81
-1.9235839 3.2077351 1.6937451 69.5
-1.285611 3.1865158 1.7331053 60
-1.141265 3.1970525 1.7366076 59
-0.45359388 3.1817505 1.7814704 5
-2.660898 3.3455288 1.6567005 63
-2.0103734 3.3704376 1.6942571 62
-1.8980331 3.4064727 1.6939495 62.5
-1.4129837 3.3835025 1.7276523 61
-1.0931754 3.369524 1.7538259 41
-1.0374795 3.419184 1.7439243 59
-0.53480136 3.427408 1.7732905 41
-2.7453578 3.4697785 1.6542517 65
-2.6268473 3.5327704 1.6683747 37.5
-2.1402307 3.5371618 1.6815318 58
-1.8495296 3.5472643 1.6893302 55
-1.1565707 3.5283422 1.7376763 62
-1.0024589 3.5523119 1.7419627 58
-0.29432955 3.5912719 1.7776719 3
-2.7345276 3.6726799 1.6502808 68
-2.2813838 3.7232828 1.6719953 62
-1.8533818 3.682713 1.676563 46.5
-1.2250173 3.6738451 1.7284037 61
-0.94279742 3.703959 1.7419975 59
-0.32264885 3.730643 1.7677463 5
0.01217733 3.7270498 1.7970153 3
-1.8018783 3.8786972 1.6870333 46
-1.7982854 3.7827976 1.6955811 61
-1.3092778 3.8411353 1.7221726 60
-1.0006365 3.8965325 1.7363724 58
-0.84486389 3.8347635 1.7447598 59.5
-0.06721893 3.7559409 1.7832347 2
-2.4431345 3.9249125 1.656037 64
-1.7512953 4.0031114 1.6895555 56
-0.85435539 3.9933159 1.7396246 57
-2.1742661 4.1862803 1.6650225 66
-1.7054224 4.1206851 1.6962029 54
-1.0586046 4.0803657 1.7308885 59
-0.76974672 4.1028385 1.7427243 57.5
-0.68530798 4.1886783 1.7457401 55
-1.8038247 4.2258825 1.6976088 51
-1.6663469 4.245173 1.6951674 52
-1.1314117 4.285893 1.7243179 61
-0.81673056 4.3254833 1.7424794 62
-0.60734785 4.3030567 1.7536675 63
-1.9024426 4.4082198 1.6560382 76
-1.6993909 4.4024425 1.6857158 50
-0.65658653 4.4813838 1.7419573 50
-1.5924699 4.5730515 1.685524 60
-0.85936189 4.5395341 1.733394 55
-0.52605563 4.5950971 1.7480346 40
-1.4842086 4.687006 1.6588432 84
-0.91425312 4.7843466 1.7236253 55
-0.5946092 4.7990007 1.7420675 55
-0.61724263 5.0787416 1.7427601 56
-1.3891227 5.2637782 1.6950451 43
-1.3099234 5.3877878 1.6965839 48
-0.65093207 5.3941164 1.7371298 46
-1.3966355 5.7737184 1.6802577 34
-1.2765635 5.8882203 1.6840788 36
-1.2888899 6.102715 1.7003752 30
-1.1164498 6.0634212 1.6971879 39.5
-1.3717011 6.5651851 1.6845762 32
-1.1710581 6.7189646 1.6789623 31
-1.0200486 6.8139868 1.6807078 31
-1.02078 7.0293374 1.704815 33
-0.81902349 6.9813166 1.7018899 33.5
-1.4676336 7.1322718 1.6789232 38
-1.0623137 7.4849854 1.6530856 62
-2.3524234 -1.1424915 1.8559648 1
-0.65896326 -1.1194918 1.8345546 7.6666665
-0.53272492 -1.0849479 1.8358095 7.25
-0.9419114 -0.94750524 1.8373586 18
-0.8047086 -0.96565366 1.8343295 16.5
-0.66458303 -0.99342984 1.8403722 13.571428
-0.5258069 -0.96054703 1.8406903 29.142857
-0.37926966 -0.93432695 1.8554398 54.799999
-1.4011831 -0.82210845 1.8951155 1
-0.96631962 -0.78973168 1.823525 20
-0.81477785 -0.82994735 1.8308299 14.75
-0.67659181 -0.83172691 1.8273563 19.875
-0.53687614 -0.8208155 1.8455468 64.166664
-0.37566066 -0.83225775 1.8577198 56.833332
-0.24463442 -0.84682286 1.861445 49.5
-1.6276119 -0.72438753 1.8811897 0
-1.4600635 -0.6322577 1.895429 0
-1.08617 -0.67986631 1.8184683 22.5
-0.99190646 -0.66276139 1.8216448 16
-0.82179117 -0.65852857 1.8202504 16
-0.666538 -0.67075288 1.8345228 73.777779
-0.52021134 -0.66752577 1.8443834 78.875
-0.38578436 -0.68265867 1.8541603 69
-1.2193692 -0.53028315 1.8063315 34
-1.1200924 -0.5288614 1.8128347 12.75
-0.97150129 -0.53755826 1.8160428 15
-0.80279577 -0.53461784 1.8196659 53.25
-0.67181277 -0.52104771 1.8312016 85.333336
-0.51263672 -0.51605684 1.8427887 78
-0.40186843 -0.51456594 1.8467441 73
-1.096941 -0.41981477 1.8153323 1
-0.98259211 -0.38207364 1.8125129 20
-0.82608688 -0.37646762 1.8215122 79.300003
-0.68471646 -0.37321734 1.8307664 78.25
-0.53601658 -0.3889989 1.8410529 77.571426
-0.42383346 -0.35102957 1.8429866 76
-0.99763489 -0.19807009 1.8088567 71.199997
-0.8252598 -0.22544092 1.8194389 78.888885
-0.67495865 -0.21870402 1.8298582 77.14286
-0.53890896 -0.22369139 1.8371445 75.14286
-1.0546238 -0.053258359 1.8045698 79.5
-0.94497484 -0.073149011 1.8099722 82.25
-0.82056856 -0.081478298 1.8165648 77
-0.6951049 -0.074784786 1.8260051 78.333336
-0.52488762 -0.067718469 1.8351998 77.166664
-1.0514895 0.040902749 1.8008357 72
-0.93238831 0.06246784 1.809329 81.428574
-0.81844062 0.086352862 1.8149813 83.333336
-0.68116176 0.067488804 1.824297 78.111115
-0.51967144 0.067941003 1.8317852 83.25
-0.95831174 0.18986873 1.8028497 81.333336
-0.82049221 0.24947153 1.8120707 81.285713
-0.68963921 0.2249556 1.8189433 77.699997
-0.52977782 0.21612291 1.8293349 82.666664
-0.99307042 0.4052926 1.8027568 78.666664
-0.81244737 0.38689667 1.8084351 79.599998
-0.67362595 0.37929571 1.8184308 77.444443
-0.50263071 0.37744433 1.8282903 78.199997
-0.81009203 0.5064798 1.8061341 74.833336
-0.66451091 0.52680045 1.8141619 76.625
-0.52079952 0.53151512 1.8234051 78.714287
-0.80605376 0.65395498 1.807429 74
-0.67771477 0.68348324 1.8107506 77.545456
-0.54860276 0.67582488 1.8193947 72.666664
-0.42588779 0.66039032 1.8267365 77
-0.93548477 0.84480399 1.8104054 88
-0.81464571 0.81564057 1.8038561 67.75
-0.670609 0.83052015 1.8281444 48
-0.53088784 0.82617438 1.8203716 73
-0.37904918 0.82705748 1.8293709 74
-0.93609142 0.98630583 1.8020951 89
-0.83896941 0.9688279 1.8082104 91.800003
-0.65833533 0.95783252 1.8103405 76
-0.52662659 0.98307735 1.8220783 79.375
-0.37352094 0.9746123 1.828721 71
-0.83268678 1.1095073 1.8058087 85.199997
-0.652031 1.0979879 1.8165188 86.400002
-0.53191847 1.1338381 1.8244395 84.625
-0.38776946 1.1245337 1.8292334 85.599998
-0.27122787 1.0973755 1.8384066 79.666664
-0.77366298 1.2713691 1.8057183 74.5
-0.6746242 1.265349 1.8120455 77.666664
-0.50340474 1.2704293 1.8214064 79.833336
-0.38867345 1.2670577 1.8291003 75.14286
-0.21769316 1.2710178 1.8376125 71.400002
-0.70404696 1.4328307 1.8049325 70
-0.52675742 1.4474411 1.8130827 69.5
-0.36953688 1.4060876 1.8248554 70.875
-0.23444219 1.4313326 1.8295053 73
-0.09869796 1.4076713 1.8376694 70.666664
-0.64068973 1.5578892 1.8063302 68.5
-0.510903 1.6165994 1.8145329 75
-0.38230351 1.5656016 1.8195398 69
-0.25537458 1.5790358 1.8252772 71.571426
-0.078901172 1.5718092 1.834504 59.42857
0.01098342 1.5667335 1.8427113 36
-0.56919742 1.7026011 1.8031654 65.5
-0.3783415 1.7230172 1.8089378 66
-0.21459378 1.7278804 1.8201329 55.5
-0.084343784 1.7338673 1.8332622 40.285713
0.077567033 1.705627 1.840543 62.5
0.17742571 1.7886796 1.8484334 71.5
-0.51765525 1.9069607 1.8027699 62.799999
-0.30312553 1.8911391 1.808653 62
-0.20458421 1.8614637 1.8229878 31
-0.059468526 1.8915703 1.8323357 44.200001
0.064441524 1.8627675 1.8373963 66.75
0.20830768 1.8926624 1.8470232 68.5
0.30116957 1.9194362 1.8536171 72
-0.38376895 2.0427792 1.8023204 46
-0.18121123 2.0455978 1.8237952 27
-0.08875639 1.9938947 1.826315 50
0.053376455 2.028805 1.8344072 64
0.20528285 2.0156612 1.8444144 65.800003
0.35262614 2.0401537 1.8522675 62.599998
-0.33164394 2.1839044 1.8081113 24
-0.2884914 2.1933503 1.8132145 29.5
-0.025792409 2.1519246 1.827618 61.5
0.116505 2.1641269 1.8368825 63
0.22042999 2.2081504 1.8432751 62.25
0.38478893 2.1271462 1.852043 66
0.52877581 2.2088549 1.8638723 62.57143
-0.45155561 2.3948405 1.8012058 27
-0.34595585 2.2848876 1.807845 34
-0.19560726 2.3483944 1.8146957 57.5
0.12036884 2.3038692 1.8387173 67
0.2715719 2.3049898 1.8466845 65.333336
0.38756707 2.3702557 1.852137 61.5
0.47603714 2.2753465 1.8545045 67
0.6736809 2.3375862 1.868417 58.285713
0.7521463 2.3738773 1.8696381 60
-0.21178627 2.4597893 1.810679 57.333332
-0.076799154 2.5025811 1.8213639 31
0.28141207 2.4507322 1.8425589 63.5
0.41084757 2.4329221 1.8506398 60.666668
0.51741958 2.4959059 1.8543925 58.333332
0.83862585 2.4563575 1.8747486 56.166668
0.94824618 2.5104105 1.8787326 58
-0.30203748 2.5917666 1.8059183 48
-0.048112307 2.5904143 1.8208088 3
0.51367259 2.5854216 1.8529466 57.5
0.64784759 2.6301887 1.8602635 56.666668
0.76052868 2.6914287 1.865674 65.5
1.0240011 2.5780222 1.8813839 54.666668
1.1310055 2.6357231 1.8869586 52.666668
1.2560072 2.6699731 1.8983778 51
-0.11565609 2.7481151 1.811591 5.5
0.65801406 2.7535229 1.8574996 57
0.82854033 2.7850986 1.867241 53
0.96023375 2.8287287 1.8798155 44
1.2802846 2.7525203 1.8933963 50.666668
1.4090877 2.777478 1.9055347 49.400002
1.5036273 2.8351805 1.911745 50
0.87794864 2.9115148 1.869951 53
1.0024837 2.9303989 1.8772467 50.666668
1.1269288 2.9705639 1.8905386 53.333332
1.5735247 2.9234104 1.9094418 48.5
1.7075191 2.8957787 1.9222044 48.25
1.9849432 2.9449003 1.9395281 50
2.3631747 2.8780456 1.819075 61
0.42614669 3.1116247 1.8317147 53
0.47561368 3.1310492 1.8392063 54
1.1239803 3.0780129 1.8887842 54
1.2378678 3.0814908 1.8906398 53.5
1.405751 3.1132202 1.9045707 50.5
1.7975595 3.0565548 1.9155704 49
1.8975661 3.0505817 1.9261792 49
2.0325301 3.0120561 1.9375659 51
2.2428181 3.1199515 1.9448537 48
2.2806942 3.0396857 1.9439487 42
0.52331138 3.2140927 1.8421146 55.5
1.2964222 3.178184 1.8927958 48
1.4132866 3.2307885 1.8997803 52
1.5454141 3.2871301 1.9016689 50
1.6824358 3.2644138 1.9209163 52.5
2.1563244 3.1950648 1.9310231 48.333332
2.4956622 3.2887449 1.9418553 33
0.54792178 3.3522973 1.8438969 50.5
0.69024324 3.3642976 1.8505367 50.333332
0.80940217 3.4123378 1.8617817 54
1.6094103 3.3758957 1.9080132 51
1.7427158 3.4234645 1.913994 54
2.001358 3.3684912 1.9376327 47
2.1754801 3.3149123 1.9351696 46
2.4475203 3.3825717 1.9419378 42
0.52678818 3.486865 1.8442053 52
0.7181707 3.4691761 1.8514811 49
0.76411277 3.5887659 1.8508679 53
0.92478901 3.5928423 1.8634487 53
1.8959596 3.5054507 1.9163795 52.5
1.9978255 3.5107572 1.9303082 48
0.83466816 3.6881633 1.8544595 54.5
0.97449636 3.655165 1.8610526 51.333332
1.0799582 3.6332464 1.8769363 59
1.9236238 3.6646378 1.9196466 48
2.0839932 3.6267381 1.9261492 24
2.2011867 3.6599836 1.938625 22
2.3128154 3.6467037 1.947548 38
1.0599761 3.8446207 1.8656522 52
1.2616007 3.8707867 1.8789344 54.5
1.3852412 3.8649695 1.8929042 55
2.3232746 3.7681625 1.940786 37
2.4652669 3.8430011 1.9431349 42
1.1549413 3.9800062 1.867872 49.5
1.272846 3.9493284 1.8712662 52.5
2.3341577 3.9271083 1.9387447 44
1.3953298 4.1149435 1.8814696 51
1.5419748 4.1385641 1.8844651 52
1.6916323 4.1219134 1.8983244 43.5
1.4893491 4.2580466 1.8786222 50
1.5871837 4.2745805 1.8806198 40
1.650202 4.2548275 1.8819741 27
1.7799361 4.3998065 1.896999 29
1.9347801 4.4646487 1.9053487 44
2.0823081 4.4749088 1.9252483 37
2.1187258 4.3618312 1.9310418 43
1.9175856 4.5677738 1.9075512 40
2.0668516 4.593585 1.9100795 38
2.0318224 4.746829 1.9084262 34
2.2283292 4.7125916 1.9204639 34
2.556623 4.7957668 1.9462003 33
2.392674 4.8395615 1.9248767 34
2.5616148 4.9266114 1.931306 35
2.5736194 4.9903898 1.9330155 34
2.742595 5.0421033 1.9438967 34
2.5971375 5.2213516 1.9350327 28
2.9385357 5.2073307 1.9482566 29
3.1209881 5.2834764 1.9495391 18
1.4307766 5.4844666 1.8510476 34.5
1.5700024 5.4015427 1.8677529 36
1.5617882 5.7045207 1.8530978 37
1.4855548 5.9950204 1.844257 30
1.7187107 5.9756575 1.8540531 29
2.0981457 5.9229498 1.8908359 29
2.0262856 6.0575476 1.8888427 31
1.9020259 6.2878776 1.8647498 32
1.9542456 6.1857314 1.8695053 31
1.883085 6.3574233 1.8710784 31
2.1270568 6.3459344 1.8760098 33
2.1005416 6.6420903 1.8657132 34
2.2254963 3.1073384 1.9507319 48
4.6146898 3.1455488 2.0921237 15
4.2664032 3.2046227 2.0824597 26
4.4076114 3.2095344 2.079423 26
2.5412018 3.3436174 1.952588 32
2.3209364 3.4954627 1.9542221 22
2.5524731 3.5017254 1.9557532 39
4.5667915 3.532804 2.0785859 27
2.4365926 3.7112427 1.9539987 41
2.6712608 3.6200531 1.9746791 37
2.5790873 3.8360815 1.9506646 36
2.7459266 3.820996 1.9701844 31.333334
2.7642024 4.0027728 1.9700376 31
3.081069 4.0151591 1.9847879 26.5
2.9077485 4.077889 1.9676524 32
2.8193161 4.2176189 1.9677516 33
3.2490795 4.2219963 1.9891087 32
3.4201877 4.3263831 1.9968048 24
2.5613625 4.6308942 1.9536797 34
3.3877399 4.5279293 1.9980322 26
3.0685251 4.9227376 1.9832796 27
2.9497674 5.1929231 1.9567884 28
3.11251 5.1522803 1.9727997 28
5.0676417 3.5474586 2.1135197 3
