# .PCD v0.7 - Point Cloud Data file format
VERSION 0.7
FIELDS x y z intensity
SIZE 4 4 4 4
TYPE F F F F
COUNT 1 1 1 1
WIDTH 1762
HEIGHT 1
VIEWPOINT 0 0 0 1 0 0 0
POINTS 1762
DATA ascii
3.9238212 -2.8855133 -0.19529881 0
0.81472927 -2.6608829 -0.16018526 5
3.1174541 -2.610585 -0.15692914 33
0.90297192 -2.5254676 -0.18562825 58
1.0817556 -2.1934967 -0.15971267 72
2.8629839 -2.1799963 -0.19723886 7
1.8645744 -1.8542075 -0.17491595 3
1.6104754 -1.6544992 -0.16258846 0
1.3640674 -1.6491777 -0.18775012 78
4.410491 -1.4627268 -0.16768354 17.5
-0.19186105 -0.92080408 -0.18146868 11.5
-0.081685051 -0.98268247 -0.1502239 4
-0.54158854 -0.79447424 -0.16702221 0.75
-0.36284876 -0.82944202 -0.17953658 13
-0.26604518 -0.87801158 -0.17147219 14.714286
3.1223133 -0.62369734 -0.17435282 77
2.2228072 -0.31209758 -0.15616123 21
2.4257414 -0.40984714 -0.18306744 8
2.0068977 -0.15895709 -0.19267717 66
2.0315533 -0.10912174 -0.16345073 68
2.1331463 0.076316141 -0.16070262 67.5
1.1674967 0.26712766 -0.19656938 42
1.2076734 0.25427136 -0.15948555 9
1.3778231 0.21137656 -0.18285106 157
1.948235 0.24271242 -0.17017719 42
0.6415031 0.42723081 -0.19234329 0
0.98704398 0.38467541 -0.16998538 10
1.0775442 0.31876421 -0.18439919 25
0.52368641 0.53352243 -0.16617872 0.5
0.6118536 0.53995049 -0.18115272 0
0.79840517 0.50649357 -0.18615575 0.75
0.98955911 0.47484335 -0.18908012 8.666667
0.52367216 0.64831316 -0.16727693 0.2857143
0.65086538 0.65925807 -0.18254028 0.80000001
0.26758704 0.81554198 -0.17876112 1.5
0.33929175 0.94443178 -0.19013315 0
0.53838599 1.036955 -0.17691487 14
0.54821748 1.0612025 -0.17956991 60
0.82515109 1.2903724 -0.18278931 101
0.92104715 1.318292 -0.17041706 14
-0.97639281 1.4808799 -0.17206529 63.42857
-1.1483432 2.2761579 -0.17754243 95.666664
-1.0546384 2.4562676 -0.18879002 65
-0.91520417 2.6959221 -0.16943617 60
-0.90800643 2.7110939 -0.18502738 62
-0.78441101 2.953892 -0.16388674 62
1.5929236 3.4210727 -0.19202983 32
-0.40430403 3.6560447 -0.1838638 55
-0.33262101 3.7938464 -0.16326317 50
1.7290735 3.8725514 -0.18795 12
-0.14098591 4.1576886 -0.15035729 47
1.4522218 -4.6818471 -0.060341362 2
1.1950616 -4.5288758 -0.059578989 18
1.3287905 -4.6062794 -0.051886979 15
4.6589241 -3.1681197 -0.097726025 106
4.8772182 -2.7555459 -0.12053085 90
3.1031342 -2.6291184 -0.10218924 66
0.88673598 -2.5457685 -0.10116983 49
0.96163088 -2.4106176 -0.12527069 65
1.022352 -2.3006287 -0.10718785 36.5
2.9646842 -2.3697844 -0.05820227 1
5.0835619 -2.3733413 -0.10998968 88
1.0523105 -2.2409067 -0.14673063 68
1.1671932 -2.0380747 -0.12970233 68
5.2614508 -2.0524626 -0.034639392 98.5
1.2397597 -1.8935757 -0.12763999 76.5
1.9708869 -1.8613906 -0.044678126 3
1.2992706 -1.7552384 -0.11826173 69
1.6123118 -1.6780213 -0.13492736 2.5
1.3714974 -1.6289506 -0.10613476 66.25
4.5211048 -1.5209218 -0.015445982 6
-0.78794342 -1.2582207 -0.035554428 21
-0.71975994 -1.1291879 -0.036781374 0
-0.63275695 -0.96715885 -0.061018601 0.33333334
-0.20089461 -0.91586643 -0.065694064 10.125
-0.098277397 -0.9798255 -0.06754972 7
3.3431957 -0.94123405 -0.14941573 2
-0.82148302 -0.82330579 -0.017745247 12
-0.5635944 -0.83291376 -0.086982138 1.1
-0.36293712 -0.82932729 -0.10867909 13.75
-0.26687258 -0.88064605 -0.074561842 12.714286
3.2027776 -0.8493678 -0.12005562 12
3.0829899 -0.69118237 -0.11532602 72
2.5229182 -0.50512326 -0.10346276 59
2.2113745 -0.30919904 -0.067438908 7
2.3896303 -0.40553659 -0.11081592 37
2.4309382 -0.39886683 -0.022540336 127
2.0464852 -0.20656168 -0.11681186 34.333332
1.7021307 -0.030947335 -0.079206489 43
2.0644069 -0.066905215 -0.11403868 82.5
1.3531908 0.14702901 -0.07097856 10
1.5199063 0.089389428 -0.098547556 22
1.6670828 0.059062906 -0.097561963 10.5
1.8004072 0.14507648 -0.087022938 8
2.143033 0.062614202 -0.11890331 80
1.1610973 0.27746159 -0.09450011 8
1.2630323 0.21476717 -0.092189625 15.428572
1.5886679 0.19294134 -0.08992473 8
1.7187555 0.1954693 -0.095722713 9
1.8348515 0.25615728 -0.087797709 41
2.0446959 0.18572366 -0.1325165 47.5
0.57845205 0.43772894 -0.061909113 0
0.63867342 0.42472896 -0.096945666 0
0.80104953 0.43124723 -0.059006043 0.33333334
0.95963538 0.3882426 -0.10240108 8.1999998
1.0831943 0.31955361 -0.089561455 7.5
0.41928887 0.58892018 -0.01154155 0
0.55138272 0.55137593 -0.066413999 0.53333336
0.6202966 0.53884983 -0.035343073 0.25
0.78365856 0.45296749 -0.10768289 0
0.37017962 0.68981105 -0.069341309 6.9166665
0.48270422 0.64115 -0.07756225 0.8125
0.2805509 0.75814587 -0.091248073 4
0.38659307 0.79664737 -0.08115498 1.7142857
0.5827381 0.82816601 -0.093105748 1
0.37694192 1.0157324 -0.14068267 0
0.54257965 0.93829739 -0.090558164 1
0.69050056 0.96986145 -0.12133632 13
0.75289661 0.93694508 -0.098431744 12
0.47060663 1.1925032 -0.096006937 0
-1.1056398 1.3063394 -0.049511421 11.333333
0.48166156 1.2259793 -0.092654325 4
-1.2511772 1.3856218 -0.0056744264 11
-1.1055808 1.3739653 -0.076773807 23.25
-1.0017681 1.4303012 -0.071939021 27.166666
-0.92055333 1.6207165 -0.094202198 2
-0.72776866 1.6205313 -0.035958074 8.5
-0.94667876 1.6563263 -0.092901774 10
-1.1362587 2.2999923 -0.077670231 84.599998
-1.0603529 2.441592 -0.10129748 64
-1.0276984 2.4988115 -0.072235815 60.666668
-0.9129594 2.715456 -0.066039436 62.333332
2.1267486 2.7907317 -0.13914452 93
-0.79102772 2.9431932 -0.10793368 64
2.7197564 2.8797319 -0.1330858 122
-0.70617265 3.1027544 -0.10726473 50
2.8673065 3.0543816 -0.031224435 36
-0.64749277 3.2155647 -0.08849261 54
1.2668911 3.2506373 -0.079769351 38
-0.56138849 3.3611069 -0.044287499 49.333332
1.3814793 3.3416412 -0.11434043 153
1.5867376 3.5384502 -0.13874802 150
-0.37267375 3.7145066 -0.074189879 49
-0.19002518 4.082078 -0.042253993 50.5
0.39970782 4.1618309 -0.029153142 73.5
0.23084271 4.2480316 -0.09351372 55
0.34885341 4.2446699 -0.053483937 80
0.55958337 4.2870855 -0.077773668 35
0.070355728 4.5627322 -0.14465766 52
2.2016823 5.6799793 -0.024793332 35
2.1103456 5.7208281 -0.12157727 34
1.0789894 6.3860993 -0.13778467 3
1.1206895 6.4696655 -0.12547743 1
1.3918722 7.0104904 -0.04170737 5
1.5990189 7.4064989 -0.10228909 11
1.6926703 -4.8069968 0.14713764 10
1.1016706 -4.4937735 0.1043004 14
4.7476716 -3.0585282 0.022551948 31
4.828064 -2.9462247 0.14088774 82
2.1391401 -2.6033936 0.10772643 46.333332
4.9212966 -2.6440208 0.0077280058 61
1.476516 -2.3306985 0.012489374 5
5.1258407 -2.3011453 0.048326697 3
1.5439758 -2.2227089 0.096852779 50.799999
1.7050157 -2.2033534 0.061147895 8
2.7306335 -2.1990626 0.14956987 1
1.9969118 -1.8593078 0.1257807 3
1.6336631 -1.6689131 0.032016482 2
-0.93013471 -1.5268841 0.076843612 2
-0.86394745 -1.3998928 0.086336344 5.25
-0.81068105 -1.2977456 0.13455518 3
4.4305725 -1.216198 0.082888186 9.5
-0.71892226 -1.1263851 0.060425997 0
-1.0024327 -0.96458626 0.11565526 6
-0.85979974 -1.0238509 0.12161797 6.5
-0.6742183 -1.0433314 0.035911616 0
-1.1030786 -0.84008074 0.14243516 9.5
-0.98722345 -0.87571931 0.098158143 7.6666665
-0.81963593 -0.80840415 0.076060392 8.9375
-0.5704208 -0.84709525 0.036805417 0.75
4.1320024 -0.89156419 0.064983778 14
-0.96614593 -0.65611458 0.10327356 5.25
-0.88259381 -0.70872211 0.093610838 5.8571429
2.5456355 -0.49673772 0.0001434338 3
2.6852565 -0.51553869 0.1152164 0
-1.1641415 -0.35718271 0.13856399 0
2.3823125 -0.41328904 0.077656947 3
2.4753091 -0.35025758 0.068510257 5
-0.96905583 -0.15579867 0.10452857 1
-0.85137671 -0.18481509 0.070355318 1
-0.95420754 -0.14671904 0.094982959 2.5
-0.85190225 -0.076349802 0.040868782 3.5555556
2.5955851 -0.14663422 0.06022587 28
2.5761538 0.082939677 0.13740592 47
2.5201311 0.2484099 0.14059299 4
2.5821598 0.16572748 0.12711436 46
0.78769535 0.42653811 0.010021274 0.33333334
0.54350787 0.57763535 0.035603102 0.5
0.67143601 0.49939707 0.017184852 0
1.5760173 0.58266306 0.12286495 11
1.7082868 0.56654829 0.12171452 4.3333335
1.9385109 0.52578163 0.13280183 2
0.42069346 0.60965693 0.04093498 0
0.48563609 0.60989487 0.026018756 0.75
1.5580869 0.62308711 0.10868508 30.333334
0.84663898 1.1240956 0.11737969 3
-1.2659225 1.3368231 0.11309367 28
-1.1029423 1.3253392 0.0615317 12.571428
0.68095106 1.2146277 0.13643223 4
-1.6048499 1.4079162 0.13268983 78
-1.4235331 1.4117293 0.10488048 150.5
-1.2674263 1.400465 0.07117936 46.666668
-1.1031424 1.3916446 0.049708381 21.666666
-0.98287743 1.4434204 0.071902148 25.555555
-1.5189745 1.5331975 0.097251035 91.5
-1.4409972 1.6160874 0.044054333 119.66666
-0.918585 1.5378927 0.10963226 32
-0.80617082 1.6228878 0.079532988 17
-0.742006 1.5471276 0.12097936 30
-0.77739698 1.6702332 0.029876227 8
-1.1573437 2.2167749 0.00060420751 113
-1.1267161 2.3227663 0.069436274 66.5
-1.0254201 2.5118618 0.048526548 64.5
-0.91789931 2.7041996 0.1062391 54
-0.85274267 2.8177288 0.080493741 54
-0.79277056 2.9403369 0.014873053 57
1.4941456 2.9991765 0.10137364 26
-0.72725332 3.0490258 0.073332623 52
-0.58377314 3.3289185 0.096573487 50.5
-0.41431665 3.6498652 0.068462275 56
-0.058871154 4.3277407 0.075090878 46
0.27996349 4.2473011 0.11653348 36
0.32068872 4.2853608 0.040888306 63
0.48975992 4.2517676 0.033306476 28
0.062283736 4.5352335 0.12162083 49
2.31793 5.6201849 0.065823354 36
1.4477036 7.1327767 0.0058399094 8
2.6830552 -5.3162985 0.29873431 6
2.4697208 -5.2153788 0.27839753 3.5
2.001019 -4.9790225 0.27731544 11
1.6404322 -4.7757516 0.28556156 11
1.3544647 -4.6210151 0.16439188 8
3.8436024 -3.1740961 0.26095349 27
4.9560418 -2.8789825 0.28829032 1
2.3036718 -2.650089 0.27891314 6
-1.3222623 -2.2886207 0.28244787 14
1.4740131 -2.3234205 0.19802225 4
1.5965772 -2.1578619 0.24234551 38
2.607316 -2.210902 0.29301113 6
5.5752974 -2.1978226 0.29377943 0
1.6439462 -1.725318 0.29055721 0
1.742149 -1.6951472 0.24552651 1
-1.0115802 -1.574168 0.28745601 9.5
-1.0790193 -1.4067526 0.23373491 8
-0.96417594 -1.4764732 0.26562464 19.5
-1.1939712 -1.2351999 0.20807594 0
-0.75992972 -1.2051495 0.18484896 4
-0.76158565 -1.198213 0.27163929 3
-0.69252378 -1.1282802 0.20701115 0.66666669
-1.0050422 -0.9860189 0.20711385 6.3333335
-0.87913054 -0.99519712 0.19304188 6.3333335
-0.60532826 -0.94065839 0.28607452 0
-1.2252748 -0.79292005 0.25067753 7
-1.0830972 -0.84631968 0.24756564 5.25
-0.96688253 -0.79461116 0.22839069 4.3333335
-0.83635914 -0.81084448 0.22966467 5.6666665
-0.5789032 -0.89396 0.25645411 0
4.0367093 -0.85632211 0.21486431 14
-1.374276 -0.62174165 0.28574693 8
-1.1209035 -0.6516574 0.23635311 5.1666665
-1.0001943 -0.66618657 0.21903962 4.9230771
-0.88808745 -0.7179997 0.20885855 3
3.7193205 -0.69254506 0.29351455 1
-1.2191172 -0.50570095 0.20305648 0
-1.1404676 -0.52152711 0.19765271 2
-1.04433 -0.57464993 0.23427713 1
3.6970563 -0.46569532 0.21640283 62
-1.1675833 -0.35716397 0.22546498 0
2.3889992 -0.40443906 0.17526209 0
2.4068761 -0.36561018 0.19780564 6
3.7252514 -0.40190214 0.24167478 70
3.7509758 -0.30260107 0.21295857 11
-1.2395656 -0.25342375 0.24638945 0
-1.1899972 -0.28938025 0.24809253 0
2.6716194 -0.026915109 0.16204432 15.5
2.5987635 0.088996157 0.24110849 41.25
2.5005021 0.21684112 0.25780404 18
2.5980299 0.23072012 0.22360818 25.666666
2.0980768 0.44307512 0.15450406 2
2.1121767 0.42993763 0.17475277 0
1.5638436 0.55924243 0.1696893 17
1.9047351 0.54018158 0.17429346 1
1.9602363 0.51791751 0.15689379 2
1.6217587 0.61762577 0.23382461 14
-1.7399805 1.1567236 0.26992834 83.75
0.83296436 1.1349953 0.16773586 3
-1.6696641 1.2856605 0.24284403 80.599998
-1.6461793 1.3313679 0.25575528 80.666664
-1.3445231 1.2980995 0.23001027 25
-1.1281106 1.2995523 0.24781676 29.1
-1.5886292 1.4346553 0.2330142 80.545456
-1.3955336 1.3967727 0.23434477 100.4
-1.2852184 1.4043918 0.18754232 34.333332
-1.0770048 1.3998841 0.20232557 27
-0.97367311 1.4335041 0.20150562 20.333334
-1.5195746 1.558682 0.25267369 82.25
-0.80146408 1.5607889 0.23475888 35.400002
-1.1158863 2.3395801 0.22756755 57.666668
-1.0682564 2.427207 0.22319552 53
-1.0269295 2.500047 0.18827564 57
-0.87509972 2.7820313 0.21957266 51.333332
1.4990871 2.8718469 0.22720581 7
1.5249655 2.9594178 0.22810856 22
-0.75067103 3.0161572 0.2781257 50
-0.74530554 3.030426 0.21313053 49
-0.60211354 3.293556 0.19589877 50
-0.50896162 3.4763258 0.29603797 46
-0.30824795 3.8516364 0.19457048 48
-0.21058321 4.03338 0.23402035 52
-0.11673161 4.2070637 0.27998888 47
0.25228584 4.2877965 0.2023192 31
0.2389387 4.4263144 0.16491693 85
0.092545733 4.5933733 0.23652709 49
0.15975051 4.5513783 0.15505493 90
2.1757019 5.6921043 0.23795772 36
2.3169146 5.6242199 0.16024727 37.5
1.8891366 5.8397837 0.20187211 15
2.0021858 5.7821474 0.27134395 37.5
2.2893379 -5.102891 0.44810158 1
3.0163472 -5.1249719 0.39907658 23
2.0456083 -4.9966297 0.43238246 11
2.1748409 -5.0505762 0.44808894 11
1.9023674 -4.9110184 0.39846367 10
1.5958458 -4.7565064 0.41724163 12
1.3015277 -4.5996137 0.37172654 12.5
1.020938 -4.4572153 0.33466285 15
2.0781548 -3.5379758 0.44693351 0
4.8358436 -3.3160441 0.30112833 70
4.945118 -3.2175341 0.43496192 25
4.8548431 -2.9337468 0.36244708 72
-1.4142585 -2.5204864 0.39835244 8
-1.3780336 -2.2608025 0.37665224 22
-1.2821677 -2.3024077 0.36320254 25.5
-1.2618366 -2.1612532 0.40586329 13.25
1.4380021 -2.2020462 0.33490378 78
2.7785556 -2.213423 0.30728447 5
5.5333996 -2.1534548 0.4075402 1
-1.3644122 -2.021915 0.34538436 49
-1.3280889 -2.0468552 0.39834228 41.333332
-1.1248642 -1.6250674 0.30675465 155
-0.99372476 -1.5231901 0.3379437 25.333334
-0.47793329 -1.5151591 0.41650707 5
-0.97679079 -1.412619 0.36985859 20.799999
-0.80860579 -1.4010164 0.35051632 1
-0.47569427 -1.4884534 0.40163985 26.5
-0.9367376 -1.258974 0.40514609 18
-0.79827112 -1.2474997 0.33022574 5.5
-0.93042839 -1.1389771 0.37769496 8
-0.84919697 -1.1466409 0.40513745 7.3333335
-0.71755487 -1.1424985 0.36114907 22
-1.1618674 -0.96123898 0.38737419 7
-1.0092996 -0.98048645 0.35404277 7
-0.82915777 -0.95325494 0.36636332 6.3333335
-0.68633085 -1.0019703 0.39145944 2.7142856
-1.1633054 -0.85489905 0.31964463 6
-0.9602021 -0.819677 0.35786608 4.6666665
-0.82115197 -0.83505744 0.3977116 6
4.1059594 -0.8939054 0.39357144 18
-1.3534393 -0.62609547 0.38711414 7.5
-1.3251566 -0.69224358 0.41841811 12.2
-1.1078753 -0.66000932 0.35741395 4.75
-0.99678063 -0.68041492 0.34645262 3.4444444
3.6139166 -0.61402142 0.40968436 31
-1.1600766 -0.45570645 0.39172029 0
-1.160535 -0.36283338 0.35619107 0
3.7224576 -0.41420355 0.3858476 61.333332
3.7686169 -0.32858571 0.41954195 64
-1.8032297 -0.19131076 0.43122667 151
-1.2232654 -0.26165155 0.33254564 0
-1.1992056 -0.27643931 0.31257123 0
3.8283675 -0.21670286 0.37139782 63
3.8802516 -0.12145092 0.40684205 65
2.61938 0.092887849 0.30472744 24
2.6200418 0.23255716 0.30078918 9
-1.9747243 0.72607929 0.42254794 14
-1.9047676 0.85534215 0.41485867 90.25
-1.8370168 0.98021799 0.39488316 83.571426
-1.7587934 1.123507 0.39147779 81.181816
-1.6884203 1.2526225 0.37143949 80.199997
-1.6420068 1.3368206 0.37228322 82.666664
-1.2216737 1.326041 0.34704202 135
-1.1377592 1.3263582 0.35560492 74
-1.5987372 1.4195161 0.37104315 80.666664
-1.3977653 1.4424614 0.3348428 20
-1.3195884 1.3668089 0.41404712 111.5
-1.087486 1.3824233 0.33621222 96.5
-0.98963147 1.4242942 0.31122822 19
-1.4196346 1.5034509 0.41166329 150
-0.95692462 1.5327842 0.42891049 101
-0.86437815 1.5758171 0.35463631 89
-0.87941504 2.7796116 0.35138541 51
1.5811133 2.9227202 0.30723786 12
1.4872708 3.0103254 0.32466376 25
-0.64218974 3.2290192 0.39854056 45
-0.54409921 3.4022532 0.43713945 44
-0.42906174 3.6166098 0.3270427 48
-0.35218903 3.7548375 0.3624981 49
-0.27124637 3.921356 0.39695936 49
-0.012995857 4.4064364 0.32216424 52
0.028867852 4.4869609 0.40255755 52
0.059597891 4.5346208 0.31867331 52
1.9498639 5.8156571 0.36338741 38
2.0841823 5.7487063 0.34319282 39
3.0034769 9.2588091 0.38133121 84
3.1237211 -4.9654684 0.58275515 15
1.7405853 -4.8209705 0.58290702 10
1.8591819 -4.8906689 0.59574479 12
1.4846438 -4.6960096 0.52403373 11
1.6122447 -4.7573977 0.55907649 11
1.2430472 -4.570085 0.54792833 15
0.97602028 -4.4243021 0.51458621 15.5
4.364244 -4.2329645 0.49071926 1
4.7614503 -3.455312 0.57187265 106
4.8484535 -3.292532 0.53531432 103
-1.3558524 -2.4589229 0.56604391 13
-1.1618686 -2.0862916 0.53393018 63.5
-1.0109352 -1.666361 0.50473553 0
5.8349037 -1.5374068 0.5380668 82
-0.91639543 -1.4905487 0.45699823 2
-0.43397978 -1.466742 0.46705377 30
-0.72715628 -1.0586765 0.45234674 3
-0.99923986 -0.91087717 0.57035041 7
-0.79758137 -0.94489539 0.49348408 6.0999999
-0.68657494 -0.98007894 0.5053311 3.3333333
4.1502504 -0.9201439 0.56767023 19.5
-1.2113948 -0.78870726 0.4696756 8
-1.1055653 -0.89969575 0.50550234 6
-0.97221041 -0.77263248 0.48294982 6.5
-0.83490884 -0.815633 0.50164789 5.875
-0.67099243 -0.79740357 0.47232494 2.5
-0.57892054 -0.89099866 0.49724096 0
3.8310678 -0.76011872 0.53309333 20
4.0316792 -0.86174828 0.54557294 19
-1.2302456 -0.67783523 0.48400682 18.25
-1.1738871 -0.70045948 0.52135015 5.3333335
-0.95608062 -0.67927915 0.50127709 2.8
-0.85122555 -0.71753782 0.47055903 4
3.6027603 -0.62783748 0.59367067 36
3.6249647 -0.58817983 0.56651127 57.5
-1.9453464 -0.32744315 0.56246459 37
3.7111752 -0.42455029 0.55774802 61.333332
-1.9978812 -0.21381292 0.58856702 56
3.8011329 -0.23931201 0.54692549 51
-2.0702329 -0.084758416 0.56016004 43
3.9139092 -0.047316041 0.5486148 61
-2.1802404 0.35235417 0.5727542 13
-2.1070127 0.48127925 0.55014509 12.5
-2.087975 0.50973177 0.57489336 11.5
-2.0185387 0.64569724 0.53693837 12.25
-1.9599504 0.75359178 0.49908194 13
-1.9133028 0.83661556 0.54172075 59.299999
-1.8400046 0.96893847 0.5293889 53.299999
-1.7994566 1.0288194 0.49858832 13
-1.7585361 1.1130979 0.51483977 48.400002
-1.6841202 1.2619876 0.49733743 54.200001
-1.5906752 1.4387786 0.53051579 65.199997
-1.3543819 1.4140097 0.55437744 151
-1.1052572 1.4097025 0.51149893 96.5
-1.0179497 1.4374895 0.47304869 77.333336
-0.86078984 1.478916 0.59310442 10
-1.5240195 1.5633448 0.59216875 70
-1.4751412 1.5229477 0.53227913 146
-0.93803757 2.6790216 0.53950059 50
-0.86501849 2.8003683 0.55550081 50.5
-0.79018992 2.9405096 0.50540257 46.666668
-0.70394188 3.0995202 0.50228614 42
-0.65002459 3.1955798 0.51727444 49
-0.47842056 3.5162978 0.45885044 52
0.45514685 4.4234695 0.54817402 82
1.8720822 5.8581452 0.45812136 12
2.7738466 -5.3769693 0.65501344 6
3.0398991 -5.2993898 0.64118683 16
1.4757476 -4.6871371 0.72874177 12
1.2372797 -4.5619693 0.67890108 10
1.3652313 -4.622478 0.70893276 8
1.1096491 -4.4937439 0.63866067 10
4.8512492 -3.2797523 0.6879847 95.5
-1.6350489 -2.9469931 0.64569676 65
-1.4676532 -2.5842073 0.6045813 8
5.4695644 -2.1581175 0.73237342 31
5.9227071 -1.3772779 0.70733058 60.5
-0.65253818 -0.99228847 0.69026577 2
-1.0661184 -0.8219595 0.65957189 1
-0.97445464 -0.80407655 0.66561258 3
-0.78254914 -0.8545146 0.71248615 4.5
3.9895456 -0.83784676 0.72240067 19
4.0762467 -0.86854261 0.69382107 15
-1.0911577 -0.64929461 0.69579154 11.6
-0.99048501 -0.70552981 0.68478256 4
-0.77367425 -0.73955655 0.67490882 11
3.6067054 -0.62175512 0.6472584 44
-1.0846872 -0.57347631 0.713543 4.75
-0.95458859 -0.5096451 0.72724003 3.3333333
-1.1025608 -0.3773278 0.6845755 4.125
3.6992438 -0.443744 0.62208021 61
3.7626088 -0.31236595 0.74506235 58
-1.9937077 -0.17824532 0.64007318 41.333332
-1.9157164 -0.150488 0.68398273 1
3.8019235 -0.24056435 0.6736716 53
-1.9251165 -0.13466084 0.67470956 14
3.862365 -0.13194013 0.74542546 58
3.9093592 -0.054067202 0.67094135 58.5
-2.250195 0.21307254 0.62342572 12
-2.2332394 0.24065706 0.69851089 12.25
-2.1555762 0.39302915 0.67590946 11.857142
-2.0670702 0.55918622 0.68806607 11.555555
-1.9885635 0.70422941 0.67592281 11.888889
-1.9649246 0.75086272 0.71433342 11
-1.9099911 0.84274876 0.66342843 68.375
-1.8366354 0.97231257 0.63151634 80.599998
-1.7986304 1.0332816 0.72935987 81
-1.7449175 1.1429836 0.68482852 80.5
-1.680349 1.2652956 0.69208336 82
-1.641289 1.341451 0.7042504 75
-1.5907215 1.4383439 0.65113348 75
-0.8433463 1.4310595 0.67085648 2.3333333
-1.5060382 1.5940162 0.61578435 72
-1.4795414 1.6382482 0.7452755 85
-0.94098681 2.640636 0.61701167 55.5
0.35346448 4.4288173 0.718539 2
2.2783399 8.7797031 0.69442213 23
12.631717 -6.2272186 0.86590528 1
3.1270232 -5.5611062 0.88699627 2
2.6747017 -5.3266644 0.84699607 4
2.2519574 -5.0913692 0.81076598 4
3.3419876 -4.8584747 0.81658334 24.333334
4.2843399 -4.3402109 0.76831627 89
4.3819003 -4.1510673 0.81804156 96
4.7079639 -3.5589879 0.84050363 98
4.8661041 -3.2639284 0.81239623 95.5
5.0810642 -2.8536632 0.8123852 92
5.2932925 -2.4758179 0.84909463 89
5.3466797 -2.3716972 0.84175706 92
5.5639062 -1.9677401 0.87490773 83
5.6247878 -1.8542783 0.85120404 86.5
5.7310157 -1.6834509 0.77548623 75
5.7785935 -1.5874603 0.77388608 67.5
-0.74557114 -1.0509907 0.82850289 8
-0.78376043 -0.99359542 0.8589052 18
-0.73461336 -1.020424 0.8356809 15.666667
-0.59313858 -0.91674423 0.78936601 26
4.1631527 -0.92709059 0.82012975 19
-1.0929501 -0.88173753 0.7890749 6
-0.90339476 -0.79392815 0.81546628 4
-0.84750605 -0.80858606 0.82585233 7.1111112
-0.64597923 -0.78150469 0.85705566 11.6
-0.57806706 -0.85677415 0.84495908 22.333334
3.8500268 -0.76652277 0.88382888 17
-1.165711 -0.68264413 0.81671596 4
-0.96394962 -0.65748215 0.8070544 3.25
-0.8701843 -0.67164207 0.82839906 5
-0.67717618 -0.68343109 0.82715702 3.625
-0.57803327 -0.74943841 0.86536479 89
3.6759937 -0.66774476 0.79947603 16
-1.1043482 -0.50772393 0.77724195 7
-0.86464036 -0.53936899 0.7854327 4.4000001
-0.72279686 -0.55502528 0.82875866 5.75
3.6518805 -0.52475923 0.78516722 60.666668
-1.0610636 -0.35982484 0.75325227 7
-1.0026046 -0.36985052 0.80587256 1.5
3.732867 -0.37907508 0.78461355 60
-1.91724 -0.22145385 0.75652719 2
-1.0711513 -0.26925957 0.76900172 1
-1.0310285 -0.27437797 0.81969982 1
3.8340986 -0.18816759 0.80877459 58
3.9304645 -0.0032760173 0.81043983 59
3.9580057 0.056504574 0.75268424 56
-2.272104 0.1584578 0.86127388 2
-2.2107327 0.27454543 0.77376145 10
-2.155906 0.38990676 0.83819914 10.833333
-2.1147192 0.47028977 0.80029714 11.8
-2.0780494 0.53247875 0.83658808 11
-2.03267 0.63186181 0.80436385 11
-1.9664043 0.75941116 0.78747511 12
-1.9173748 0.82550031 0.84931755 62.400002
-1.8403864 0.96689147 0.83094215 81.333336
-1.7709442 1.100907 0.81818014 78.666664
-1.7040015 1.2255994 0.79570723 73.666664
-1.6212738 1.3830128 0.81837708 71.5
-1.5475881 1.5162402 0.79816985 72
-1.4028788 1.761857 0.87063676 94.333336
-1.3996618 1.8005171 0.86007059 82
0.27054745 4.9654198 0.86618018 35
2.7732301 5.3903341 0.88413179 26
2.6623056 5.4295907 0.76692891 32
2.7289872 5.4014845 0.88182271 25
2.2869394 5.6152225 0.89494407 33
1.3086163 6.9313464 0.75883687 2
1.5689361 7.3656583 0.89592707 6
2.6744807 8.829731 0.85256672 40
2.4855766 8.8584242 0.80960441 101
12.593599 -6.4141345 1.0199608 1
2.5854831 -5.2768779 1.0078789 4
3.266829 -5.1149998 1.0164269 6
2.1916904 -5.0765762 0.9832077 12
1.8236499 -4.8755751 0.95999444 16
4.121109 -4.6372452 0.99434555 73
4.2322364 -4.437284 1.0208359 73
4.5580721 -3.8347616 1.0059562 54
4.712852 -3.5436716 0.97265452 100.5
4.9385753 -3.122324 0.96565342 94
5.1457901 -2.7294366 0.97049272 87
5.2033806 -2.6340742 0.97126007 89
5.3395 -2.3663049 1.0398421 84
5.447896 -2.1920304 0.97315025 87
5.4913554 -2.0929754 0.92831719 90
5.6480246 -1.8102967 1.0283917 82
5.8178782 -1.5534741 1.0026078 79.333336
-0.81185383 -0.98516816 0.90026128 5
-0.69302666 -0.96003532 0.96402168 6
4.2370229 -0.96728814 1.0173671 13
-0.58050257 -0.85239154 0.91596973 2
-1.0035962 -0.657857 0.93089461 6
3.6911101 -0.67226207 1.0009179 13
3.7875721 -0.73202515 0.92007995 18
3.6683691 -0.49943259 0.95706093 55
3.7147231 -0.39242122 0.99703419 57.5
3.8051822 -0.23154643 0.99927139 56.5
3.8615911 -0.127627 1.0415395 59
3.9336102 -0.0012475714 0.97373366 58
-2.1627629 0.35489163 0.92558783 2
-2.0750153 0.54274368 0.96683389 10
-1.9975245 0.69266486 0.97127479 10.625
-1.8969646 0.86674571 0.96556383 72
-1.8189217 1.0103922 0.9561922 72
-1.7385904 1.1605756 0.95827055 70
-1.6734406 1.2761402 0.90189815 77
-1.5966249 1.4251082 1.0159661 60.25
-1.5263759 1.557408 0.96589845 59.333332
-1.4890169 1.6279382 0.9354893 61
-1.4677684 1.6767528 0.91630101 69
-1.0374299 2.4703662 1.047684 47
-0.91462636 2.6936736 1.0168111 43
-0.7772302 2.9595313 0.99277687 39
-0.61494184 3.2519774 0.96733642 41
-0.49313447 3.5168338 1.0072544 47
-0.41912866 3.6319807 1.0119411 42
-0.29225612 3.8990214 0.96139169 43
-0.19419231 4.0688977 0.99722356 45.333332
-0.046839852 4.355885 0.91201484 42
0.086510003 4.5904865 0.98004836 38
0.43092856 5.2244086 0.98493004 21.5
2.8047302 5.3654909 0.98439956 4
2.6291494 5.4616318 0.99519092 31
2.3795197 5.5990067 0.99156392 36
0.96559107 6.2533646 0.9401328 4
1.0882492 6.4498897 1.0441369 1
1.8276103 7.8076215 0.97502291 2
2.5493662 8.8178253 1.0195745 93
2.6432934 8.8318911 0.92044675 55
12.940708 -5.7362118 1.057869 1
3.3475287 -5.5921092 1.1487669 21
3.4935651 -5.6660967 1.1845216 29
3.0317273 -5.5151029 1.0625294 2
2.5149124 -5.2408662 1.1587378 2
2.121721 -5.0298963 1.1202229 14
1.7719669 -4.8491507 1.1087784 12
1.4533418 -4.7013402 1.1086209 11
4.3350224 -4.2489219 1.0732092 84
4.7899995 -3.3838494 1.1319139 92
5.0379553 -2.9385715 1.1102538 88
5.2095642 -2.618041 1.1534504 83
5.2674203 -2.5158286 1.1246952 82
5.3606935 -2.3317246 1.1929301 75
5.5043602 -2.0741713 1.1049191 84
5.6362505 -1.8529414 1.1052356 80
5.6721196 -1.7565174 1.1215954 81
5.8427734 -1.5104797 1.1744709 70
5.8796077 -1.4465903 1.0650723 82
3.6114118 -0.59715116 1.0560887 56
3.9613512 0.042665869 1.0536712 59
-2.0463667 0.59043837 1.0751349 5
-2.0025635 0.68029869 1.0658576 8.5
-1.9549199 0.76279896 1.07184 10
-1.9343323 0.80426013 1.1390746 23
-1.8483915 0.95145726 1.1298125 67
7.1758437 1.0441339 1.1614263 21
-1.7511497 1.1336969 1.1607629 64.666664
-1.6911044 1.2508082 1.1098317 62.5
-1.6462176 1.3401675 1.0829993 64
-1.5953139 1.4385389 1.0523127 61
-1.3459871 1.9155109 1.1617922 63
-1.2501022 2.0838394 1.1193556 62
-1.126914 2.3131218 1.1696618 48
-1.0174668 2.5089746 1.1341178 48
-0.91802281 2.7108669 1.1746149 48.5
-0.88690817 2.7674842 1.1351182 45.5
-0.79335046 2.9453578 1.1334884 42.5
-0.75331497 3.0245674 1.1738616 42
-0.71509796 3.0926323 1.1291676 43
-0.63237715 3.2419472 1.0886208 45
-0.59972173 3.2987773 1.1475295 43
-0.55762839 3.3788395 1.0928757 47
-0.45860654 3.5597126 1.1332288 48
-0.42027524 3.6348073 1.1301475 40
-0.33437958 3.8122561 1.0910796 45
-0.25240701 3.9624946 1.1288229 49
-0.20577964 4.0540404 1.1235151 45
-0.10134163 4.2462215 1.0711929 44
0.0020600378 4.4403477 1.1268162 44
0.061228137 4.5505457 1.1149523 39
0.19263552 4.8022346 1.0579482 35
0.32255548 5.0385575 1.1319077 36
0.40292877 5.1921878 1.1161559 2
2.4921858 5.5277333 1.1130883 50.666668
2.378696 5.591361 1.161545 37
2.447521 5.5503545 1.0868063 37
1.9973655 5.7882509 1.1520624 36
0.95373422 6.2376242 1.0568599 14
1.3465637 6.9677606 1.1981969 3
1.5154719 7.2693386 1.1590992 2
1.6678269 7.5301986 1.0797931 2
1.862114 7.9062099 1.069098 3
2.4462404 8.8721685 1.1736134 100
2.986062 9.2685452 1.0730765 94.5
3.6323822 -5.7270703 1.2002918 18
3.1913922 -5.5797243 1.3278376 1
2.9454286 -5.46803 1.2971108 1
3.082691 -5.5247903 1.3218843 1
2.7953517 -5.3875713 1.2516283 2
2.070792 -5.0068369 1.2532896 13
2.2541716 -5.099297 1.3207337 12
3.9766691 -4.965992 1.2513241 66
1.7269113 -4.8330946 1.2360544 18
1.4108301 -4.6652451 1.2346421 1
4.0794907 -4.7300706 1.2448074 67
1.1106042 -4.5028815 1.2376434 11
1.3614587 -4.6173396 1.3320506 1
4.1889734 -4.5211601 1.2707587 75
4.2613463 -4.3871078 1.2977211 82
4.4093428 -4.1290383 1.2365224 50
4.5618262 -3.8209519 1.2188605 71
-0.50104314 -3.7234254 1.3466527 6
4.6534677 -3.6523492 1.3177049 95
4.8908277 -3.2462213 1.259517 63
-1.5493001 -3.0183086 1.3220978 4
4.9274511 -3.144527 1.2723505 88
5.0832157 -2.867466 1.279453 79
5.1286669 -2.7808537 1.2751365 79
5.224545 -2.5879366 1.2949879 73
5.3706551 -2.3264956 1.3307117 74
5.4835663 -2.113821 1.2038624 78
5.5180492 -2.044791 1.2388856 75
5.5568352 -1.9894332 1.2501973 80
5.6705332 -1.7501552 1.2754908 72.5
5.8049574 -1.5644035 1.3030196 75
5.8565178 -1.486536 1.2759122 72
4.2312155 -0.95733184 1.2312123 13
4.000339 -0.83154249 1.2455958 15
-1.9020079 0.83942306 1.2516189 19
-1.8437266 0.96235013 1.2645628 53
7.1484241 0.97157174 1.2411695 42
-1.7907983 1.0777264 1.2456465 73.5
7.3276796 1.3159558 1.3160062 27
-1.5985625 1.4445865 1.3007731 68
-1.5146224 1.591327 1.2466227 62
-1.4861486 1.640969 1.3260677 62
-1.4317335 1.7482913 1.2021917 68
-1.4068922 1.8000525 1.2865326 58
-1.2959353 2.0011497 1.3088901 55.25
-1.223418 2.146256 1.28114 51.25
-1.1943278 2.2091382 1.3051327 52
-1.1023827 2.3676426 1.2537998 48
-1.0595208 2.4445541 1.2410052 48
-1.0321484 2.5040758 1.2179151 47
-0.98112679 2.5909805 1.2376935 46.5
-0.87717938 2.7927234 1.2459848 45.5
-0.738792 3.0521967 1.2665267 42
-0.59055036 3.3192501 1.239122 44
-0.41901609 3.6642945 1.2299317 45
-0.21231593 4.0481019 1.2142371 42
0.040728759 4.5252676 1.2057886 41
0.36272323 5.1253252 1.2033315 3
3.2576761 5.1255231 1.2623357 3
2.1862721 5.6863155 1.3177258 36
2.2909467 5.6370835 1.2445303 38
2.0861304 5.7400966 1.2258893 37
2.1546664 5.713944 1.2730991 29
1.3791761 7.0238118 1.2359409 3
2.3007264 8.8066349 1.3077252 30
2.6658206 -5.3195958 1.4292397 1
2.4804926 -5.222785 1.3925428 1
2.0862539 -5.0055308 1.4913993 13
3.9359367 -5.0459328 1.4959441 72
1.7418606 -4.8397717 1.3733051 16
1.9377601 -4.9290128 1.4463409 14
4.0348654 -4.7972112 1.4854069 71
1.3363605 -4.6262226 1.4418335 9
1.0678515 -4.4801192 1.401197 10
4.250854 -4.4105535 1.4086004 76.333336
0.80103689 -4.3384047 1.4230214 12.5
4.4117174 -4.0979719 1.4459723 81
-0.53478372 -3.7169795 1.3961937 10
4.7427711 -3.489784 1.4183067 90
4.8004689 -3.3978715 1.4466964 91
4.946342 -3.1201322 1.4247993 89
4.9773579 -3.0721407 1.4264181 80
5.0970716 -2.8448498 1.414191 73
5.2239094 -2.5942163 1.4547439 76.5
5.253768 -2.5464256 1.4328026 70
5.4118624 -2.2480264 1.3672621 78
-3.3715501 -2.0630183 1.4691116 6
-3.2990146 -2.0976348 1.4775447 84
5.5258369 -2.0262835 1.4480076 74.5
5.6444016 -1.8110714 1.4237733 78
5.8198891 -1.5537045 1.3972588 74
-3.376863 -0.55380172 1.460227 26.5
-3.5676987 -0.16805942 1.4551902 74
-3.6118357 -0.1113629 1.4537412 74
-3.5195315 -0.076521024 1.4536244 77
-3.3497219 -0.048726145 1.4636384 71.333336
-3.1573262 -0.030163707 1.4714606 91
-3.61973 0.096609801 1.4568219 43
-3.1886251 0.0075309346 1.4685271 75
-3.0606947 0.040515147 1.4782 43.799999
-3.6440313 0.15674902 1.4466039 4
-3.3840451 0.15338603 1.4604974 5
6.7480912 0.24620713 1.4209369 45
6.8347311 0.42429325 1.4678925 45
6.9295511 0.57458085 1.4428592 37
-1.9023004 0.80409396 1.3761487 40.5
-1.8492873 0.97066212 1.4163566 72
7.1304235 0.92682225 1.4810722 40
-1.7546135 1.1485386 1.4146981 70
-1.6965699 1.2485628 1.4190234 67.5
-1.6436902 1.3486331 1.4301572 69
-1.5663927 1.4942286 1.3767027 64
7.3777204 1.3983577 1.3566997 25
-1.551852 1.5254437 1.4765253 61
-1.499136 1.620699 1.4861408 56
-1.4530517 1.7115662 1.4376523 57.75
-1.3792562 1.8509554 1.4155066 59.200001
-1.3411239 1.9262527 1.3789443 54
-1.2887756 2.0253851 1.3887123 49
-1.1826011 2.2210546 1.3872186 53
-1.0862622 2.3975697 1.351256 46
3.3088965 5.0778723 1.3986981 3
3.4766393 5.0300355 1.4270078 2
2.9686325 5.265192 1.4802601 33
2.2611566 5.6586909 1.3741715 28
2.0388041 5.76161 1.4240153 37.5
12.259571 -7.0756364 1.6444939 1
3.8118274 -5.2887731 1.5304005 57
2.2012875 -5.0684094 1.5199512 15
1.798399 -4.850852 1.6106848 19
1.6802819 -4.7834611 1.5719306 18
4.1017227 -4.6810203 1.5849038 76.666664
1.184797 -4.5425611 1.6130348 11
1.0271499 -4.4533854 1.5400314 10.5
0.72752547 -4.30861 1.6367923 12
0.76260179 -4.3120966 1.5534121 14
0.52268356 -4.1862607 1.5932189 8
-0.67465675 -4.0108533 1.6001828 8.5
4.5104322 -3.9157448 1.5207862 81
4.615273 -3.745234 1.5993797 84
4.6586995 -3.6376071 1.6319591 83
4.8201952 -3.3514414 1.5668664 86.5
4.8501434 -3.2916267 1.6254665 83
4.9700718 -3.0783474 1.596877 80
5.0794468 -2.8689532 1.5970079 72
5.1140089 -2.8075345 1.5708658 73
5.2851601 -2.4844198 1.5687661 71
5.3681989 -2.3129661 1.5769764 70
5.4225359 -2.228384 1.5250012 67
5.514905 -2.0541692 1.5689397 73
5.6431694 -1.817028 1.6336266 67
5.7632399 -1.6034651 1.5957625 69.5
5.8948979 -1.4033169 1.5694747 77
6.790669 0.32156676 1.5557083 47
6.9813442 0.6541912 1.5970409 37
-1.9137948 0.85009068 1.5555164 65
7.0160303 0.76760179 1.5155623 48
-1.8759611 0.91467839 1.6237389 65
-1.7797253 1.0897102 1.5903141 63.5
7.2279654 1.1348976 1.5863864 39
-1.6856824 1.2692338 1.603076 65.333336
7.3196435 1.3019764 1.5314517 41
-1.6018169 1.428615 1.5652905 63.599998
-1.5245322 1.577974 1.5605847 61
-1.4502392 1.7140768 1.5106109 58.5
3.3717549 5.0545087 1.5599993 32.333332
3.5481336 4.9508829 1.5040876 7
3.0418606 5.2323561 1.6053919 34
3.1963911 5.1500659 1.6150852 35
1.9096574 5.838069 1.5584009 27
1.9856486 5.8052931 1.5921462 29
3.2629428 -5.5395093 1.7785329 65
3.3960645 -5.271359 1.7028705 70
3.7780492 -5.3566155 1.7684611 19
3.9101346 -5.1185932 1.7343813 95
3.8369868 -4.8072453 1.7265936 29
1.4550583 -4.6887145 1.7136668 9
3.6999686 -4.7502236 1.7541076 77.333336
4.0758848 -4.7404118 1.6583616 73
1.33068 -4.6149631 1.6654097 10
0.8698017 -4.3920555 1.7074095 10
1.0201937 -4.473104 1.7667452 10
1.1276802 -4.4903207 1.7935334 11
4.2582927 -4.3735647 1.6940604 68
0.53685135 -4.2064772 1.7310359 1
4.3587418 -4.1710448 1.7384354 17
4.2464194 -3.8036165 1.6916839 25
4.289844 -3.64219 1.7392257 83.5
4.7030592 -3.6324522 1.7694663 27
4.6954103 -3.5678785 1.7027076 59
0.77242404 -3.3412039 1.7893122 39
4.4280415 -3.3783875 1.7223415 71.5
4.8258338 -3.3494 1.6907874 88
4.5905218 -3.1576002 1.6777614 12
4.9175596 -3.0918276 1.7457834 27
4.9577255 -3.0361578 1.7643162 23
4.7414112 -2.8022718 1.7413496 68
5.1455855 -2.748807 1.6542987 79
4.8134422 -2.634383 1.7156087 69
5.0941763 -2.6646829 1.7314221 27
5.2438765 -2.5530381 1.6997508 57
5.040144 -2.4368002 1.72323 27
4.9578619 -2.3956306 1.7909852 73
5.3808246 -2.2964892 1.6794637 69
-0.34534785 -2.2260194 1.7997216 21
5.059495 -2.1914752 1.7416214 49
5.1175356 -2.1899736 1.7058374 25
-3.4163127 -2.0332623 1.6652025 4.5
5.1771274 -1.9802912 1.7521988 59
5.4573803 -2.0609524 1.7260896 34
5.4438348 -1.8044881 1.7236701 26
5.6089172 -1.8652481 1.6887926 52
5.3336821 -1.6892434 1.7744809 68
5.7308426 -1.6145989 1.7052721 42
5.4504604 -1.4624002 1.7270955 36
5.9117546 -1.3796692 1.6591383 63
6.4515033 0.28532258 1.7340475 31
6.5619888 0.57310349 1.7667407 34
-1.9560062 0.76365799 1.7027811 63
-1.923005 0.83340418 1.7821394 60
-1.831471 0.99836999 1.7648442 62.75
7.1641655 1.0099123 1.6513466 38
-1.7477795 1.1522446 1.7213414 63.5
-1.6711545 1.2991351 1.7012863 61
-1.6189677 1.4090645 1.6765257 57
7.358068 1.3896302 1.7258409 26
-1.3116992 1.9715756 1.762045 49
-1.2098041 2.1565773 1.7265228 48
-1.1028367 2.3641391 1.7069529 39
-0.98279011 2.5861793 1.691522 38
-0.84809184 2.8318629 1.684765 40
-0.69634402 3.120465 1.6954719 37
-0.4618119 3.2340693 1.7330991 1
-0.47685122 3.3344455 1.7288035 12
-0.51931602 3.4611964 1.7218808 46
-0.30482328 3.8522427 1.7579986 41
3.4458053 5.0228662 1.6886743 28
3.0761776 5.2136931 1.7533849 26
3.207036 5.1472378 1.6969112 31
2.7124052 5.4485641 1.7316786 15
1.5929958 5.9648986 1.7848603 1
0.47612196 -6.0703535 1.9304279 28
0.019341599 -5.9519882 1.9257241 36
-0.23586366 -5.8254251 1.9352928 34
-0.27535218 -5.5887718 1.9253305 41
-0.091055319 -5.5328012 1.9240407 37
0.083065465 -5.4700351 1.9247717 41
0.22919662 -5.4248128 1.9325036 34
-0.32011384 -5.3672042 1.9285601 34
2.67699 -5.1905684 1.8467509 27
2.9613283 -5.1782241 1.8478061 27
3.2206206 -5.1210437 1.8307518 34
-0.24193813 -4.9607387 1.9215711 48
3.4684761 -5.0426393 1.8353659 30
-0.094780937 -4.9283867 1.9319259 56
2.1018655 -4.7280912 1.8427883 37
2.3824439 -4.764914 1.8424603 33
2.6506724 -4.7693677 1.8307556 33
2.9027886 -4.7359953 1.8299242 34
3.2224469 -4.6912403 1.8424259 22
3.3805211 -4.7272024 1.8464594 26.5
0.34685999 -4.4610639 1.8327488 50
1.8963931 -4.3939466 1.8371688 41
2.1686814 -4.4590402 1.8362168 38
2.4244072 -4.4696498 1.8326737 38
2.6455281 -4.4489326 1.8341337 34
2.7504222 -4.4179668 1.8380657 33
2.8663239 -4.4594984 1.8442632 34
3.8651364 -4.4022493 1.844123 72
0.37738964 -4.2893744 1.8190039 31.5
0.70616704 -4.2337418 1.8155836 8
0.81380731 -4.2361836 1.8363441 48
1.6277541 -4.3197827 1.8366019 46
1.9970579 -4.2060232 1.8281735 47
2.174731 -4.2201147 1.8340567 44
1.4936389 -4.0783753 1.8408922 51
1.7477551 -4.1611724 1.8332566 44
2.2408535 -4.1737752 1.8307921 39
2.3479757 -4.1630917 1.8341535 44
3.2537487 -4.135581 1.8471974 33
3.9597452 -4.1888585 1.851442 52
0.28121525 -3.964988 1.822131 38
0.41379207 -3.9521728 1.832332 55
0.51974708 -3.9289739 1.8385047 55
1.2414271 -3.9787128 1.8406678 51
1.6284074 -3.9725168 1.831724 51
1.7568815 -3.996455 1.833012 49
1.8766572 -3.9441433 1.8363249 44.5
1.97632 -3.9288428 1.8393728 24
3.3906722 -3.9819605 1.8507046 32
4.0252676 -3.9626141 1.8504854 26
0.0095090391 -3.8084424 1.8296746 51
1.142553 -3.7736223 1.8325869 53
1.3843215 -3.8315673 1.8306787 52.5
2.7251725 -3.8764274 1.8445131 39
2.890532 -3.7759523 1.8467427 35
3.4901223 -3.799933 1.838672 32
3.977998 -3.7629197 1.850027 23
-0.17163 -3.6888297 1.8408338 51
-0.073344059 -3.7147131 1.8281361 58
0.018345904 -3.6810572 1.8295628 52
0.20799324 -3.6536617 1.8335745 53.5
0.91378707 -3.6660888 1.8396991 54
1.0683576 -3.6357603 1.8284475 51
1.2962626 -3.7381546 1.827571 59
1.4742292 -3.7377048 1.8343536 53
1.5890505 -3.7012007 1.8364537 55
2.2765784 -3.6376667 1.8443686 48
3.0321815 -3.6555111 1.8381571 33
3.5195627 -3.6145287 1.8479828 16.5
4.0253129 -3.6954443 1.8498939 26
4.2852354 -3.6576309 1.8298944 95
-0.1986621 -3.5441155 1.83307 51.5
0.84832114 -3.5149407 1.8365632 48
1.0097878 -3.5342877 1.831426 55
1.1042032 -3.5446978 1.830503 56.5
1.2755921 -3.4871321 1.8352356 55.5
2.4610398 -3.5865798 1.8474888 43
2.6255739 -3.5114391 1.8383983 40
3.0028131 -3.4553313 1.836743 31
3.1589472 -3.518074 1.8476397 19
3.3491702 -3.4894819 1.8474373 18
3.6808884 -3.4818206 1.8388723 31
3.8004367 -3.5842795 1.8415769 31
4.1581211 -3.5053413 1.8451953 32.5
-0.36461699 -3.3824298 1.8312731 43
-0.22629963 -3.4276443 1.8293386 57
-0.075389341 -3.3997445 1.8310801 62
0.039950203 -3.3899891 1.8381582 65
0.68934155 -3.3486042 1.8308262 63.5
0.81039977 -3.3293576 1.8220998 52.5
1.886966 -3.4100914 1.841837 51
2.0768254 -3.3948944 1.8432187 51
2.2639477 -3.3708401 1.8423661 48
2.4241371 -3.3017302 1.8374797 46
2.6101794 -3.3137975 1.8383778 47
2.7883399 -3.3596568 1.8400893 28.5
2.8878255 -3.3477352 1.8390177 16.5
3.2245483 -3.3947983 1.8419222 17.5
3.5969608 -3.4096673 1.8367811 30
3.6378109 -3.3556757 1.8525943 31
4.0397696 -3.4375482 1.8394343 24
4.4378242 -3.3923593 1.8104373 98
-0.40471295 -3.2242672 1.8269525 59
0.54606849 -3.2015755 1.8296705 57.666668
1.0007987 -3.2880542 1.8353949 57
1.5493035 -3.1952872 1.8375095 51
1.7427778 -3.2159476 1.8418254 49
1.926697 -3.2152319 1.833429 50
2.1120706 -3.1985981 1.8403136 52
2.2593853 -3.1737587 1.8393959 51
2.4857857 -3.2311099 1.8332821 46.333332
3.1588628 -3.2198176 1.8475474 37
4.1428385 -3.1964395 1.8624383 32
4.5359836 -3.1667316 1.8116394 92
-0.55113715 -3.0902686 1.8233232 31.5
-0.41532624 -3.1466722 1.8252274 58
-0.21659835 -3.1433086 1.828083 61
0.37821358 -3.0725698 1.8310125 61
0.51159656 -3.1188924 1.8211082 63
0.66210836 -3.116044 1.8284738 58
0.79350668 -3.0840273 1.8340396 58
1.2608587 -3.0022583 1.8425766 54
1.4488137 -3.0462041 1.8431729 48
1.6348385 -3.0773726 1.8372947 48
1.7891505 -3.037077 1.8300606 55
1.8757346 -3.0341182 1.8345749 52.25
2.1506402 -3.1282818 1.8328489 50.666668
2.7455451 -3.0914602 1.8487936 31
3.2470977 -3.0512793 1.8556882 36
3.6671104 -3.0780935 1.8562187 33.5
4.1257377 -3.093802 1.8571774 32
4.5686512 -3.065614 1.8465871 69
-0.55271661 -2.9442408 1.8260334 50.599998
-0.33065045 -2.9162831 1.8288358 72
0.22584927 -2.9217792 1.8304565 66
0.33969536 -2.9516861 1.8257989 63.333332
0.53469157 -2.911797 1.8299309 64.5
1.1821105 -2.8718297 1.8353821 54
1.3642219 -2.9290733 1.8320009 53
1.5605618 -2.9244413 1.834258 53.75
1.6682371 -2.9005113 1.8402528 54
2.3818731 -2.9632864 1.851854 19
2.5087252 -2.8617747 1.846048 49
2.8711562 -2.914011 1.8540654 42
3.2480772 -2.9480743 1.8525954 42
3.3008327 -2.8633623 1.849135 39
3.5946841 -2.9137504 1.8526484 35
3.660393 -2.886687 1.8446523 32
4.0620408 -2.9432817 1.8549446 30.5
4.2591715 -2.8705261 1.8622028 31
4.4947319 -2.9058414 1.855471 32
4.6946683 -2.8526759 1.8573591 69
-0.6905365 -2.7817535 1.8422866 3
-0.48497632 -2.7115533 1.8310102 52
0.10367892 -2.7745521 1.8279406 61.333332
0.21410692 -2.7847703 1.8342103 64
0.38564616 -2.7346616 1.8331298 65
0.97792566 -2.7613051 1.8360426 57.5
1.0980417 -2.7550967 1.8268762 54.5
1.279138 -2.8132088 1.8261032 54.333332
1.3864312 -2.755523 1.8291661 55.5
2.0572443 -2.8327198 1.8550054 23
2.1998982 -2.7667239 1.8469082 46
2.343565 -2.7015529 1.8441321 47
2.5370708 -2.769542 1.8495973 47
2.6389952 -2.7660077 1.8454734 46
2.7846241 -2.7410769 1.8508776 43
2.9570489 -2.8196406 1.8473846 41
3.0822453 -2.7780676 1.8518575 40
3.1906588 -2.8436651 1.8542346 43
3.4364123 -2.8186812 1.8507313 36
3.8241436 -2.8477423 1.8526295 30
4.0634632 -2.715596 1.8657652 31
4.479064 -2.7012198 1.8630451 31
-0.045645155 -2.6011033 1.8306957 61.799999
0.061743826 -2.6233425 1.8323174 65
0.2142023 -2.5781741 1.8381482 67
0.74647051 -2.5664575 1.8405715 55
0.81982112 -2.5943577 1.8304213 60
0.94946659 -2.6752353 1.8265339 60.5
1.1301272 -2.6434226 1.828763 56.666668
1.4957472 -2.5529759 1.8416706 29
1.7094073 -2.6262 1.8471477 25.5
1.9177873 -2.6657362 1.8471795 24
2.0153847 -2.6029148 1.8451271 48.5
2.1989346 -2.6008587 1.846902 48
2.3504281 -2.5769129 1.8448163 47
2.470638 -2.6485863 1.8512284 47.333332
2.6287467 -2.5959742 1.8476715 42.666668
2.7336371 -2.6295145 1.8440562 44
2.923806 -2.6212399 1.8474169 40.666668
3.0237632 -2.651988 1.851396 45
3.2407436 -2.6358736 1.8492365 37
3.3137546 -2.6487479 1.8480769 38
3.6247742 -2.6662476 1.8486503 31.333334
3.9589872 -2.6342173 1.8513117 29.5
4.3232574 -2.5990374 1.8580053 27
4.7219954 -2.5552435 1.8529869 30
4.8301921 -2.6154132 1.8226575 85
-0.30569187 -2.4243531 1.8332916 66
-0.17915839 -2.4255223 1.8308583 64.75
-0.096395366 -2.4446104 1.8357286 67.5
0.057477903 -2.4181616 1.8348311 74
0.57072455 -2.4476736 1.8349757 62
0.69800711 -2.4645042 1.8322736 57
0.95874482 -2.5139661 1.8334721 59
1.2658939 -2.4250784 1.8431193 27
1.427145 -2.4552226 1.8446399 27
1.577589 -2.4288146 1.834242 49.75
1.7017957 -2.4499218 1.8352685 53.333332
1.8598036 -2.4973226 1.839072 47.799999
2.0407436 -2.5000918 1.8452584 48
2.1765106 -2.4792361 1.8448353 43.5
2.3462288 -2.5164924 1.8500036 45
2.4958544 -2.4446065 1.8440665 44
2.7666745 -2.4699068 1.8448719 46
3.0573127 -2.4863262 1.8492693 46
3.3725271 -2.4929571 1.8568968 59
3.4672177 -2.5407457 1.854751 63
3.7097902 -2.4720707 1.8454998 32
4.0107093 -2.4358022 1.8522264 29
4.0642881 -2.4177463 1.8496946 28
4.6484661 -2.5119767 1.8619262 24
-0.23721761 -2.2604446 1.8263261 60
-0.084457293 -2.264595 1.8305358 73
0.37916079 -2.28689 1.8344418 67
0.52004844 -2.3413086 1.8318671 62.25
0.63622499 -2.2619767 1.8352605 71
0.80198163 -2.3802745 1.8334364 60
1.1324795 -2.2951503 1.8394908 45
1.2551167 -2.2968745 1.8384043 43
1.420118 -2.3463614 1.8385506 48.166668
1.5859193 -2.2721024 1.8406497 50.5
1.7224756 -2.3172083 1.8410712 49
1.8878195 -2.3381157 1.8423537 46
1.9987969 -2.3632808 1.8410896 41
2.1707182 -2.3351741 1.8482634 49
2.4024322 -2.3479874 1.8494164 46
2.6403346 -2.3485847 1.8495656 43
2.8784115 -2.3303001 1.8450519 42
3.1502085 -2.3175242 1.8577241 56
3.4100676 -2.2781947 1.8584679 65
4.3725982 -2.3591971 1.8558675 25
4.7277899 -2.3121555 1.8605353 29
4.940444 -2.3962488 1.8352202 72
-0.45794669 -2.1725118 1.8279781 63.5
-0.32166421 -2.192255 1.812385 37.666668
-0.25223902 -2.1814432 1.8262973 59.5
0.22383448 -2.1509483 1.8326619 66.599998
0.35864311 -2.176065 1.8265214 64
0.48359168 -2.1423891 1.8320547 66
0.82834488 -2.1368835 1.8412565 61.833332
0.98977125 -2.2129421 1.8364489 59
1.1251113 -2.146754 1.839512 60.5
1.2657005 -2.1595361 1.8409463 59
1.386929 -2.203347 1.8436774 49
1.5277587 -2.2337556 1.8416547 54
3.6563528 -2.2136588 1.849871 32
3.931093 -2.1475823 1.8563825 27
4.6917706 -2.2240243 1.8581861 23
5.0517735 -2.1937664 1.8438555 60
-3.3778687 -2.0330856 1.8046464 30
-3.294008 -1.9627725 1.8130256 4
-0.47151116 -2.0959585 1.8274728 78
-0.40511245 -2.0397201 1.8301122 71.599998
-0.098871797 -1.9601185 1.8292497 72
0.08369635 -2.0201716 1.8329475 73.599998
0.21150509 -2.0627782 1.8322771 67
0.34675908 -2.0316439 1.8361949 70
0.48187628 -1.9888477 1.8668978 20.5
0.67448616 -2.0283751 1.8349854 62.42857
0.83008111 -1.972302 1.8364918 63.5
0.96206611 -2.046664 1.8406912 65.5
1.0720153 -2.068799 1.8435475 69
4.1981573 -2.0599694 1.8571311 27
4.4823442 -1.9614379 1.8666252 22
4.9973621 -2.0925734 1.8603145 25
-3.2125771 -1.8312004 1.8200117 4
-2.9968073 -1.8454494 1.8081113 59
-2.7256029 -1.8009903 1.8137304 28
-0.52367133 -1.9189233 1.8324203 52
-0.43299159 -1.845095 1.8280746 82
-0.23185205 -1.8293723 1.8273903 87
-0.058193319 -1.8652352 1.8291209 77.25
0.053260215 -1.8735672 1.8306844 74.400002
0.22107144 -1.9195038 1.835579 76
0.37744546 -1.8408226 1.8363951 67.5
0.53499681 -1.8846532 1.8371294 67.625
0.68339837 -1.8888965 1.8373069 68
0.76076049 -1.866359 1.8396817 61
4.7328978 -1.8326441 1.8614227 22
5.2151165 -1.9117888 1.8322538 66
-2.9037197 -1.6631947 1.8187546 5
-2.8176911 -1.7211378 1.8203338 32
-0.35198665 -1.7009766 1.8270251 80
-0.21504478 -1.7259517 1.8295162 81.75
-0.081902444 -1.7138722 1.8313253 79
0.069958657 -1.6729097 1.8292302 81.5
0.23948038 -1.7356743 1.8324114 79.666664
0.37159485 -1.7168595 1.835906 71.199997
0.49982318 -1.7126747 1.8370477 69.333336
0.61383754 -1.7750939 1.8388404 71
4.9880128 -1.6895103 1.8620607 23
-0.46286234 -1.5789057 1.8353873 80
-0.35712257 -1.5509806 1.8329177 79.333336
-0.21897611 -1.6077793 1.834078 79.5
-0.06160916 -1.5836436 1.8331043 75
0.087138928 -1.5644261 1.8340273 78.875
0.22340392 -1.5679166 1.8359777 76.714287
0.35533404 -1.6072072 1.837687 78
5.2560415 -1.533651 1.8704585 26
-2.5070791 -1.4824388 1.823285 10
-2.1193261 -1.4318929 1.8029932 3
-0.82863486 -1.4169461 1.8322152 1
-0.48334545 -1.4262905 1.8340882 89
-0.3738251 -1.4336141 1.8358164 80
-0.22495313 -1.4193275 1.836846 75.714287
-0.057646651 -1.4304428 1.8364831 76
0.073903754 -1.4352834 1.8390772 74.800003
0.22218947 -1.4339761 1.837942 92
-2.1877317 -1.2203282 1.8136698 28
-0.8396855 -1.216223 1.8313445 80
-0.65163219 -1.3168325 1.8281063 0
-0.51894557 -1.2687411 1.8334475 18
-0.37281051 -1.2786552 1.8405484 74
-0.23322709 -1.2582372 1.8398743 69.5
-0.079938762 -1.2874624 1.8376355 69.375
0.071153276 -1.2929389 1.8379517 74.75
5.4657788 -1.3466003 1.8607413 42
-2.1015301 -1.1377217 1.8187762 23
-2.0185709 -1.0684692 1.8197461 24
-0.95608789 -1.081883 1.844692 42
-0.85406685 -1.1356635 1.8372141 88.333336
-0.67054141 -1.1216271 1.8286006 51.400002
-0.49951145 -1.1239862 1.8306984 13.857142
-0.36387691 -1.1446189 1.838106 68.666664
-0.2087802 -1.1050503 1.8354417 51.25
-0.082386486 -1.1534919 1.8408654 66.75
-2.1975837 -0.97379857 1.818185 14.5
-2.0230083 -1.0141716 1.8185269 26
-1.8974968 -0.95722502 1.8206891 17
-1.5266209 -0.95340794 1.8247253 26
-1.4548254 -0.91408092 1.8301493 31
-1.1210868 -0.92519528 1.8377048 38
-0.95185196 -0.99174958 1.839818 77.75
-0.81813252 -0.94351113 1.8359575 101.5
-0.67085052 -0.96315467 1.8247368 79.599998
-0.53052467 -0.97623366 1.8304019 6.25
-0.37481886 -0.97290117 1.8269348 49.142857
-0.24658889 -0.98793727 1.8317935 41.75
-0.10324422 -0.99255896 1.8293539 39
-1.547201 -0.80111831 1.8266493 20
-1.4375333 -0.87210339 1.8309751 30.333334
-1.2500165 -0.80301338 1.8331258 32
-1.1181171 -0.80193388 1.8270062 30
-0.97768229 -0.82060164 1.834734 64
-0.82071334 -0.82266086 1.827535 80
-0.66691512 -0.79909897 1.8305558 81.428574
-0.54198575 -0.82565695 1.8263593 40.777779
-0.37163147 -0.81971192 1.8268787 50.5
-0.25043267 -0.86386424 1.8303083 51.400002
-1.5442227 -0.62576276 1.8260125 22
-1.4397099 -0.72875381 1.837443 29.5
-1.2642792 -0.65167344 1.830129 30.666666
-1.1044458 -0.65647435 1.8295105 32.599998
-0.99087143 -0.65860569 1.834501 35
-0.82407761 -0.68006492 1.8272527 80.199997
-0.67145056 -0.66615802 1.8295467 82.571426
-0.53281206 -0.6611377 1.8249695 83.714287
-0.38732719 -0.6713683 1.8269473 73.875
-0.26576492 -0.70379782 1.8281888 61
-1.5823505 -0.48069808 1.8250536 22
-1.429557 -0.55758595 1.8291936 29
-1.2470948 -0.50078183 1.8253375 31.333334
-1.1274945 -0.5129059 1.8309169 32.333332
-0.96421683 -0.53014755 1.8298931 51.599998
-0.80005676 -0.51792592 1.8272671 85.85714
-0.68600965 -0.5313763 1.8284143 83.555557
-0.512568 -0.50733238 1.8301135 82
-0.376858 -0.51158077 1.8300954 76.333336
-1.5444424 -0.4039934 1.8326495 35.5
-1.4250884 -0.40446413 1.8299651 31.5
-1.2769343 -0.36403003 1.8234487 53.333332
-1.1274927 -0.39446908 1.8256586 76.5
-0.99221426 -0.38339397 1.8288084 79.666664
-0.8155688 -0.38019282 1.8268821 84.14286
-0.67308736 -0.37504041 1.8300387 80.444443
-0.50715369 -0.38118285 1.8322722 75.800003
-0.40184772 -0.3468942 1.830242 78
-1.4276986 -0.22569633 1.8317854 72.25
-1.2523527 -0.2372272 1.8272057 81
-1.1105312 -0.22379351 1.8297614 74.285713
-0.97116244 -0.22877535 1.8263088 76
-0.82197529 -0.22721672 1.8303435 71.333336
-0.69303864 -0.22524223 1.8311533 77.714287
-0.54271984 -0.24335623 1.8339369 77
-0.43216097 -0.22794254 1.8316735 74
-1.4319549 -0.057013065 1.8301607 98.333336
-1.2555954 -0.088311575 1.8274415 78.199997
-1.1119078 -0.033187363 1.8286973 81
-0.96560222 -0.07477539 1.8264983 81.599998
-0.83306527 -0.078916557 1.8287635 75
-0.6864984 -0.077090733 1.8322078 71.777779
-0.54119247 -0.0701847 1.8326961 77.5
-0.44882259 -0.14854757 1.8307744 77
-1.6958419 0.10791837 1.8255595 21
-1.5743072 0.050585903 1.8304508 75.5
-1.4427004 0.085924208 1.8327371 92.666664
-1.2646039 0.072542146 1.8261564 80.400002
-1.0996848 0.085977897 1.8279264 80.75
-0.96430856 0.07735052 1.8253247 81.800003
-0.84286869 0.062927112 1.8306568 77.285713
-0.68271708 0.074375734 1.8303952 72.444443
-0.51824129 0.062570311 1.8306794 80.5
-1.7057183 0.2084026 1.8331405 46
-1.5743964 0.20267642 1.8311958 83.5
-1.4458213 0.23116601 1.8304461 90.333336
-1.2850069 0.22478387 1.8334098 63
-1.1005886 0.21001896 1.8273232 80.25
-0.95199698 0.22616607 1.8259646 80.5
-0.81957644 0.211814 1.8311368 81.166664
-0.69591165 0.22646514 1.8312025 77.699997
-0.53616995 0.20946597 1.8322178 80
-1.8422061 0.33758649 1.8240808 7
-1.7321047 0.34786627 1.8264204 83
-1.5702443 0.35638794 1.8321459 78.5
-1.445911 0.37834823 1.8324314 86
-1.2950861 0.37792176 1.8256773 79.400002
-1.0965934 0.33482879 1.828903 74.5
-0.9530533 0.37774843 1.8289297 75.85714
-0.82465202 0.377076 1.8288842 79.166664
-0.68400282 0.37714472 1.8307297 75.5
-0.51637942 0.37239861 1.8354778 70
6.4078155 0.34588638 1.8247236 35
-1.8860865 0.53913003 1.8263736 84.666664
-1.7377933 0.51574421 1.8284527 83.666664
-1.5618126 0.51279473 1.8361895 84
-1.4408733 0.5278123 1.8357773 88
-1.3087412 0.5370509 1.8351492 95.333336
-1.1259329 0.4936446 1.8299721 79.5
-0.97725177 0.53290218 1.8297511 71.166664
-0.81663358 0.53116632 1.8269361 77
-0.67690814 0.52429557 1.8279653 75.111115
-0.53140855 0.53030759 1.8290281 76.5
-1.9750072 0.668248 1.828633 95
-1.8801779 0.71828634 1.8264641 92.666664
-1.7362318 0.65586114 1.8340985 71.5
-1.5451212 0.67030984 1.8355559 83.5
-1.4276696 0.67852634 1.8346647 88.666664
-1.2992086 0.68359059 1.833769 89
-1.1187761 0.66263485 1.8282084 77.5
-0.99195009 0.66494089 1.8259366 65.25
-0.8105008 0.67186916 1.8265331 63.857143
-0.66581428 0.68111217 1.8281559 73
-0.52582026 0.66889399 1.8296788 77.199997
-0.4360795 0.69804054 1.8287171 81
6.5418978 0.63406473 1.8576602 34
-1.8541272 0.88684112 1.8297154 89
-1.7310005 0.80690622 1.8296509 87
-1.5596825 0.89314252 1.840041 59
-1.4295359 0.81734568 1.8341584 85.75
-1.2836032 0.83448154 1.8346499 86
-1.1002139 0.82369262 1.8374089 73.333336
-0.96938837 0.81699896 1.8390152 70.599998
-0.84823006 0.81466764 1.83596 63.333332
-0.68418097 0.81257242 1.8276092 65.888885
-0.52848566 0.82341051 1.8309799 74.199997
-0.41248119 0.82524723 1.8333123 74.5
6.6944699 0.87536222 1.817911 37
-1.7664289 0.96665019 1.8247042 89.5
-1.6209825 1.0273414 1.8316294 84
-1.4048101 0.97528529 1.8352952 85
-1.2404108 0.95671964 1.8341749 84
-1.0901434 0.9464258 1.8363342 77
-0.94403034 0.98110932 1.8406644 73.5
-0.81339347 0.98607093 1.840381 78.199997
-0.66960531 0.96041828 1.8283834 72.333336
-0.54773426 0.97593081 1.8323367 75.400002
-0.36605257 0.97215402 1.8376421 75.5
6.6156712 0.92868358 1.8833622 33
-1.7409583 1.1149552 1.8264931 96
-1.5254313 1.0620027 1.8337427 85
-1.4374988 1.0936688 1.8443402 55
-1.3088292 1.1089746 1.8371372 85.25
-1.1242505 1.1131189 1.8376495 81
-0.98176974 1.104352 1.8325373 72.666664
-0.84750867 1.1548184 1.8393546 77.75
-0.67354202 1.1294497 1.8387672 84.666664
-0.53028029 1.1458783 1.8415936 80.888885
-0.37355399 1.0967267 1.8391984 83.400002
-0.29734182 1.1496305 1.8401741 76
6.7926669 1.1862102 1.8713204 36
-1.5860591 1.2154074 1.8323733 83
-1.4214927 1.2331036 1.8334919 72.333336
-1.2765425 1.2716475 1.8350682 73.5
-1.122746 1.2642157 1.8351892 80
-0.98110151 1.250136 1.8370875 74
-0.83951133 1.2780025 1.8373377 72.75
-0.67282224 1.3180016 1.8383385 56
-0.52071577 1.2787225 1.8381847 75.333336
-0.3823047 1.2709211 1.8393093 74.666664
-0.2451421 1.2573253 1.8421484 69.666664
6.5057282 1.2008319 1.8628517 20
-1.5388389 1.4077764 1.8299998 78
-1.3953459 1.4222884 1.8346393 84.5
-1.274804 1.4190729 1.8319724 69.5
-1.1262062 1.4502873 1.834569 74.5
-0.94792581 1.388006 1.8334434 80
-0.80683118 1.4195011 1.8352665 71.800003
-0.6675511 1.4652588 1.8331791 68
-0.52690792 1.4273353 1.835592 70.800003
-0.38606417 1.4195352 1.8379457 70.777779
-0.22645697 1.4150211 1.8387105 70.800003
-0.12903877 1.4623203 1.8362054 76
6.4377413 1.4783256 1.8676852 16
6.737102 1.4764421 1.8903505 20
-1.4361346 1.6076908 1.830631 80.5
-1.2622007 1.578195 1.8327614 73.666664
-1.1993496 1.588129 1.8316437 79
-0.94787669 1.5882903 1.833248 70
-0.82145554 1.5435823 1.8342241 71.333336
-0.71347785 1.5694343 1.8342763 69
-0.52517241 1.5826963 1.8318614 70.666664
-0.36315495 1.5733515 1.8349721 72.14286
-0.21349844 1.5656656 1.8357168 71.400002
-0.085961163 1.596415 1.8343216 68.75
-1.4061487 1.7939 1.8020159 60
-1.2256154 1.7321625 1.8327451 70
-1.1477197 1.7297405 1.8395413 61.666668
-0.91462332 1.772029 1.8359166 62
-0.81066936 1.6972539 1.8299756 70
-0.67899573 1.7208536 1.8343395 65.599998
-0.49346545 1.7503806 1.8303517 61
-0.37385651 1.6926565 1.8325204 71.666664
-0.24008189 1.7279394 1.831495 73.571426
-0.066371851 1.7298092 1.8327755 69.166664
0.048283234 1.7355072 1.8342787 64
6.3466849 1.7530985 1.8789533 23
6.5392628 1.7305713 1.8757113 21
-1.3229797 1.8008834 1.830855 70
-1.1196382 1.8959575 1.8315189 68
-0.82284129 1.9499472 1.8338257 61
-0.68723184 1.8703425 1.8352259 61.25
-0.57865918 1.8448826 1.8345494 62.5
-0.34005463 1.8599261 1.8332257 61.333332
-0.19765364 1.8690864 1.8348694 65
-0.070787288 1.8778609 1.8334639 63.57143
0.098080024 1.8735765 1.8328211 64.25
0.19321004 1.9189825 1.8324784 63
-1.2485648 2.0050323 1.83081 65
-1.1097223 1.9935139 1.8326322 66.333336
-1.0295526 2.0600376 1.8307158 63
-0.63266015 2.0298605 1.8334643 60
-0.52975386 2.01179 1.8330778 61.799999
-0.23014796 1.9999412 1.8328161 62.333332
-0.048516549 2.0298517 1.8324236 64.800003
0.086973287 2.0100081 1.8316492 68.333336
0.225758 2.0361838 1.8319877 61.200001
0.32361209 2.0527585 1.8341695 58
6.153368 1.9952458 1.8676983 22
6.3070941 1.9641919 1.8602146 20
-1.1087238 2.1822765 1.833306 65.666664
-1.004464 2.1415608 1.8306181 62.5
-0.71715909 2.1343465 1.8333124 58
-0.48296961 2.1590207 1.8317736 57.333332
-0.40790865 2.1944714 1.8319904 57
-0.10779791 2.1410863 1.8315773 60.666668
0.065745659 2.18625 1.8328094 63.833332
0.21239556 2.1832979 1.8322328 68.333336
0.35499224 2.1620395 1.8319088 60.599998
0.45405969 2.2155814 1.8359362 37.5
-0.96017033 2.3355322 1.8336965 58.666668
-0.56246054 2.2912297 1.8320863 56
-0.35306239 2.3221879 1.8308357 55
-0.00034486054 2.3503573 1.8324136 65
0.029664677 2.2632761 1.8306705 59
0.18689954 2.3442783 1.8374548 65
0.35562861 2.313077 1.8349234 62.666668
0.5279271 2.3180311 1.8357493 44
0.61832052 2.378808 1.8312619 59
-1.0598584 2.4332137 1.8212458 51
-0.85669661 2.5127773 1.8330678 53.666668
-0.45971632 2.5205712 1.8307976 56
-0.35622498 2.4269769 1.8360169 51
-0.23525743 2.4948683 1.8348783 56.400002
0.19822747 2.4411592 1.8345624 60.333332
0.33619466 2.4906337 1.8336092 57.5
0.49848253 2.4729466 1.8323494 57.5
0.70011145 2.4659598 1.8333958 54.666668
0.80322379 2.5222251 1.8349823 55
-0.94447118 2.6643775 1.8154663 44
-0.85959429 2.6063354 1.8305253 58
-0.21734765 2.6162858 1.8354229 51.5
-0.10511133 2.6583846 1.834051 58.333332
0.36372268 2.5956991 1.8341498 59.666668
0.50402725 2.6456847 1.8341559 56.75
0.64222986 2.6949484 1.83157 65
0.87383056 2.5911696 1.8315897 56.666668
0.97120029 2.6377163 1.8302531 53
1.0820491 2.6804376 1.8343681 54
-0.76056272 2.7871904 1.8262211 59.75
-0.69689381 2.7496984 1.8357393 59
-0.30560449 2.7255242 1.8307203 49
-0.068245023 2.772527 1.833578 59.5
0.10011567 2.836231 1.8349513 67
0.54558331 2.7460783 1.8283185 59
0.67641479 2.7711227 1.8323275 58.666668
1.1362381 2.7618246 1.8310261 51.400002
1.2722644 2.7950935 1.8340285 47.75
-0.80971718 2.9029813 1.8058695 53
-0.6766656 2.9199228 1.8225805 59.5
-0.56554502 2.9833753 1.8327993 67
-0.13077022 2.9350674 1.8280004 54
0.077293158 2.9212623 1.8310763 61
0.72951132 2.9055526 1.8303031 54.666668
0.8360908 2.899708 1.8314588 49.5
0.90764719 2.9186227 1.8346053 55
1.3445153 2.9228935 1.8345942 53
1.4390217 2.9067128 1.836868 47.5
1.5403392 2.9058838 1.8411218 50.5
1.7289219 2.9753847 1.8421454 49
-0.61463928 3.0764711 1.828046 65
-0.5586158 3.1399345 1.8121566 63
0.085651383 3.0499549 1.8356706 56
0.24286707 3.0937252 1.833138 52.25
0.98506373 3.0689573 1.8330075 51.799999
1.1011783 3.074476 1.837617 51.333332
1.5971048 3.079917 1.8329716 50
1.680964 3.0330088 1.8328977 46
1.8167276 3.0242093 1.8435296 51
2.0129719 3.0822425 1.8403306 46.75
2.2644091 3.0769913 1.8398994 42
2.5414348 3.1260736 1.8421766 43
-0.65872914 3.1804526 1.8123482 54
-0.50096071 3.2427082 1.8285128 58
-0.41601643 3.2386484 1.8328429 63
0.067957833 3.15749 1.8297278 58
0.28593662 3.2213225 1.8343728 59.5
0.38080019 3.2353365 1.8378874 52.5
0.46770853 3.2601526 1.8392824 61
1.174147 3.174984 1.8335983 50
1.2728285 3.2371831 1.8340451 49.25
1.3623247 3.2286077 1.8364717 51
1.90701 3.2079859 1.8319777 49
2.2401733 3.2375269 1.8358964 45
2.3287652 3.1814303 1.8422253 44.5
2.6032865 3.2537339 1.8409034 38.333332
2.827009 3.1584623 1.8423458 41
2.9703219 3.2308831 1.8511959 16
3.1403592 3.1904025 1.8546027 16
-0.45113853 3.3474009 1.8184942 34
-0.44399318 3.3390055 1.8303229 71
0.29583335 3.4018712 1.839754 56
0.43783098 3.4482627 1.8605694 31
0.52056324 3.413173 1.8353094 49
1.2139813 3.3156347 1.8359579 50
1.4422159 3.335634 1.8376549 49
1.5840714 3.3885398 1.8379749 52.599998
1.904475 3.4342985 1.8442143 46
2.2045069 3.3356147 1.8299949 44.5
2.5662742 3.4059045 1.8355721 16
2.915509 3.3647201 1.8470538 22.5
3.2640057 3.4201913 1.8469069 29
-0.35895216 3.5044355 1.8293171 54.5
-0.24349295 3.5216615 1.83612 58
0.52413571 3.499001 1.8367349 54
0.66539752 3.4795523 1.8395194 54
1.5275127 3.4980266 1.8340113 51
1.7324858 3.4848976 1.8353451 51
1.8539129 3.5573118 1.8381386 50.666668
2.2164555 3.5006566 1.8373199 41
2.5334969 3.5289412 1.840366 16
2.5844755 3.4583321 1.8392195 16
2.9373436 3.5426049 1.8349065 30.5
-0.26643267 3.6795635 1.8323582 55.333332
0.55048347 3.6399653 1.838626 57
0.70962107 3.6590176 1.8365862 51.5
0.81441295 3.7003434 1.8393241 52.25
0.94288808 3.7343516 1.8373171 54
1.9033773 3.6268539 1.8302585 49.5
2.0512016 3.6301694 1.833022 31
2.1958427 3.697665 1.8479903 16.5
2.5318828 3.6642923 1.8514806 33
2.604784 3.6322963 1.8333341 35
2.9160454 3.6769607 1.8349546 36
3.3458724 3.6567969 1.8410803 31
3.7475698 3.7036982 1.8384091 2
-0.23778662 3.8130345 1.8304225 56.5
-0.080126137 3.8471408 1.8357955 55.5
0.83810705 3.8881087 1.8375286 56
1.008685 3.8533337 1.8318726 54
1.8588529 3.7968018 1.8448876 16
2.2100058 3.8262417 1.8372756 37
2.2992685 3.7901804 1.8354594 35
2.4727445 3.7958548 1.8423582 36.5
2.5700634 3.8502638 1.8473867 34
2.8862252 3.7702703 1.85721 30
3.036984 3.8193924 1.8413018 31
3.2586479 3.859035 1.8608071 30
3.3556318 3.8324912 1.8365387 33
3.8051479 3.7836969 1.8393675 32
-0.040522341 3.9628019 1.832479 57
1.0120565 4.0032549 1.8358401 49.5
1.1225463 3.944442 1.8407335 51.333332
1.2345607 4.0017147 1.8375069 52
2.2496963 4.0454001 1.8418266 41
2.6370339 3.9848509 1.8376187 33.5
2.812089 3.9447436 1.8522485 30
2.9579506 3.9695561 1.8552455 31
3.34477 4.0045109 1.8528093 23
3.504077 3.9826689 1.8380233 28
3.6467674 3.9243546 1.8582188 16
3.8501909 3.9851298 1.841879 25
4.0741343 3.9888129 1.86524 2
-0.047102746 4.1526933 1.8341019 56
0.036648195 4.1705747 1.8254353 55
0.19370969 4.1875076 1.8500565 30
1.1643443 4.1495709 1.8398529 50
1.3266749 4.1276326 1.8364433 48
1.4932085 4.145916 1.8485984 24
2.6436548 4.0831208 1.8490111 32
3.1253724 4.1399078 1.8397955 31
3.2318048 4.0677781 1.8507234 30
3.4138823 4.1536255 1.8558613 30
3.685266 4.177763 1.8491005 31
3.7893016 4.073442 1.8571817 25
4.0362411 4.1460786 1.8392018 27
4.24437 4.1064539 1.8558959 19
-0.043213803 4.3393531 1.8218261 51
0.12412854 4.2277575 1.8377138 55
0.21341313 4.2735853 1.8353683 55
1.4162709 4.2541714 1.8403608 44.333332
1.5738381 4.2966814 1.8407148 26
2.7063086 4.3152957 1.8445529 32
3.0620618 4.2510791 1.8417807 31
3.6046138 4.3048725 1.8393649 31
3.8938963 4.2874775 1.8575984 26
4.1798964 4.2752833 1.8505002 27
0.21475269 4.351831 1.8357681 57
1.3331137 4.3850889 1.838066 43
1.532317 4.4112258 1.8371242 45
1.6827296 4.399858 1.8300956 42
1.8512404 4.3924441 1.8527979 41
3.5387778 4.4438376 1.8421904 26
3.6143441 4.4973216 1.8479389 26
4.135848 4.4596639 1.8385643 27
4.3888917 4.3806748 1.8474931 19
0.2307678 4.5685945 1.8344233 50.5
0.36206421 4.6016951 1.8300076 41
0.48460177 4.5859652 1.8357444 51
1.8212477 4.5374813 1.851933 40
1.969486 4.6164508 1.8439022 41
3.2378104 4.6037917 1.8486501 26
4.1209931 4.626389 1.813006 7
0.26750684 4.7724829 1.8332521 53
0.52057528 4.76473 1.8428453 18
1.7767222 4.7251658 1.8465838 32
1.9621918 4.713243 1.8491157 40
2.1081102 4.7227087 1.839234 33
2.2556217 4.6544313 1.8599585 35
4.1064754 4.6598988 1.8390831 2
2.2485573 4.8263292 1.8575968 32
2.2694945 4.853056 1.848699 34
2.7076643 4.9197588 1.8640589 27
3.7807992 4.8207026 1.8152941 4
0.56409669 5.0361986 1.8347744 42.5
0.70220602 5.0642653 1.8330497 35
0.81978071 5.0039225 1.8387997 47
2.2615058 5.0281043 1.849095 32
2.4313452 4.9748907 1.8442585 34
2.5937002 5.0537276 1.8414551 34
0.63846916 5.2462401 1.841597 43
0.87630969 5.1906743 1.8355972 40
2.760818 5.1594486 1.8534051 33
2.9468565 5.2440934 1.8295149 4
3.1811881 5.1470451 1.8471299 0
2.2755828 5.2572851 1.8512546 27
2.7658429 5.3595028 1.8170477 3
2.9301035 5.2739267 1.8178552 2
0.97267956 5.445528 1.8373753 35
1.1677833 5.4903889 1.8376971 35
1.2434059 5.4794035 1.8352102 35
1.0643164 5.6198363 1.8278383 34
1.3049573 5.6884956 1.8331994 34
0.96711296 5.7069168 1.8326451 26
1.0737562 5.7495642 1.8400179 18
1.4406462 5.9603457 1.8319474 19
1.6327038 5.9071493 1.8097502 7
1.702487 5.9398127 1.8216499 0
1.8328044 6.2876649 1.8413326 31
1.4897193 6.422543 1.8290814 31
1.5973855 6.3299446 1.8469149 12.5
2.1339011 6.9129281 1.9455441 36
2.3292329 7.2207203 1.9157792 14
2.3262386 7.3576398 1.9297229 24
2.2771866 7.6343865 1.924044 15
