# .PCD v0.7 - Point Cloud Data file format
VERSION 0.7
FIELDS x y z intensity
SIZE 4 4 4 4
TYPE F F F F
COUNT 1 1 1 1
WIDTH 274
HEIGHT 1
VIEWPOINT 0 0 0 1 0 0 0
POINTS 274
DATA ascii
1.4608171 -4.6605148 -0.78698021 0
1.3222287 -4.5989943 -0.75999773 16
1.5390306 -4.5707536 -0.81341761 1
1.0109205 -4.4261937 -0.76961517 1
1.4400282 -4.10637 -0.81576347 7
1.317655 -4.0360384 -0.82346255 6
1.2695454 -3.7413359 -0.82696617 7
1.004752 -3.1874399 -0.82675475 5
4.7509942 -2.9682837 -0.80462408 3
0.68038106 -2.6218698 -0.83030444 7
0.83372128 -2.5793138 -0.79051954 38.5
4.0070357 -2.6884217 -0.83016533 2
4.9578214 -2.5601873 -0.80987847 2
0.67400342 -2.4513254 -0.83354402 5
0.86977178 -2.4660969 -0.82963258 7
0.93032324 -2.4709101 -0.77202225 75.5
0.64145803 -2.3253551 -0.83219242 6.5
0.98032635 -2.3357072 -0.82210553 30.5
2.6552572 -2.2573566 -0.8122223 9
3.0633488 -2.3983886 -0.82395846 7
3.2588964 -2.3589611 -0.8278662 1
1.008123 -2.1877847 -0.82608938 11
2.0025861 -2.1018386 -0.79744202 46
2.8299057 -2.1949852 -0.82228976 10
3.9860098 -2.1988263 -0.82973188 8
2.5517635 -1.9611037 -0.8182137 10
2.6715436 -1.8618313 -0.82465959 8
3.2006352 -1.9051428 -0.82139081 1
4.1530089 -1.8724024 -0.82068533 2
4.6159678 -1.8272904 -0.80234331 1
1.2921438 -1.7994161 -0.75643462 95
1.9084775 -1.7261636 -0.81209999 5
2.2747138 -1.7333415 -0.82031345 9
2.4644723 -1.7029431 -0.82351512 10
2.6966522 -1.7277951 -0.82627583 8
5.0181432 -1.6685704 -0.79749221 13
2.2253497 -1.5208106 -0.81915003 9
3.3224435 -1.6011257 -0.82430524 2
1.8980131 -1.466498 -0.832425 5
2.3950121 -1.4705904 -0.82288975 10
2.7320499 -1.4176897 -0.81983113 7
3.58832 -1.3838859 -0.82338274 8
1.9959681 -1.3493407 -0.82254958 5
2.1952171 -1.3352848 -0.82114887 11
2.3481448 -1.3104055 -0.8266986 9
3.943496 -1.2919188 -0.80852151 9
2.2061219 -1.1753727 -0.82356811 12
2.4529912 -1.0846901 -0.82398307 9
2.9087558 -1.1963458 -0.82327026 5
3.172821 -1.018219 -0.82201803 5
2.2320955 -0.81574541 -0.82312942 9
2.6147628 -0.89114285 -0.82149518 5
3.1527035 -0.82485241 -0.76995271 12
2.4126897 -0.65121949 -0.82315856 9
2.871562 -0.73370808 -0.82084411 4
3.203913 -0.60411924 -0.81656796 6
2.660013 -0.50398815 -0.8208307 4
2.1681921 -0.27388981 -0.76453203 25
2.3854175 0.24060398 -0.77188581 24
1.72822 1.6269361 -0.82457864 5
1.9050426 2.0121205 -0.82591671 9
2.1203697 1.9608525 -0.82556415 9
1.7558231 2.1393917 -0.82926792 9
-0.12054445 2.3360963 -0.81677192 6
0.16763483 2.3984604 -0.82244146 13
0.90009731 2.3614995 -0.82639688 5
2.3905647 2.3048697 -0.83370018 5
2.5229867 2.315135 -0.8337025 5
2.581182 2.3474991 -0.80827165 0
-0.12699977 2.4735332 -0.82522249 6
0.21088679 2.4412529 -0.82629573 14
0.53074074 2.5025122 -0.8245883 12
2.3881261 2.4606907 -0.82566476 5
-0.32935002 2.6618388 -0.82561064 5.3333335
-0.15731466 2.6949151 -0.83009446 5
-0.09457428 2.6257608 -0.82778692 6
0.25572166 2.6333122 -0.8272174 12.5
1.1074076 2.6521573 -0.82694662 4
2.1757979 2.5601943 -0.82761109 8
-0.34706888 2.7138026 -0.82826728 5
-0.22795618 2.7980793 -0.82555854 5
0.028574627 2.8146794 -0.82512665 12
0.23000915 2.7632947 -0.83090019 11
0.66760868 2.7232788 -0.8238616 11
2.0486984 2.7778432 -0.83349758 9
-0.24433543 2.8893802 -0.82158595 6
0.10557635 2.9807014 -0.8247301 11
0.23266955 2.9152358 -0.83102149 9
0.42001241 2.9170208 -0.83029813 10
3.0536616 2.9200106 -0.83333039 8.5
-0.27576461 3.0815394 -0.82946438 6
0.14950697 3.0252409 -0.83132988 10
1.0363245 3.0808976 -0.83045429 5
1.3604209 3.0189362 -0.82491004 4
1.5314939 3.0030417 -0.83780855 5
2.9622593 3.0372124 -0.839526 7
-0.26344281 3.2524457 -0.83080858 5
0.56102365 3.1952624 -0.82810158 10
0.88994843 3.2566772 -0.83225334 5
1.5584171 3.1617908 -0.83476335 9
-0.50777572 3.388582 -0.82704961 5
-0.15923819 3.4489272 -0.8329168 10
0.16921218 3.3153458 -0.83099473 8
1.5891777 3.3120275 -0.83302081 10
-0.30746675 3.5034113 -0.83561301 5
0.27777857 3.5592434 -0.83580458 8
0.72951132 3.5256338 -0.82978737 6
0.9612872 3.5961325 -0.83086091 9
1.3207633 3.5497313 -0.83528668 10
1.7127123 3.5245109 -0.82932764 11
-0.32854912 3.721467 -0.83780998 9
-0.07867083 3.6755466 -0.8275882 9
0.18516068 3.6149247 -0.83745712 9
1.7185287 3.6779816 -0.83257926 8
0.030880522 3.9178898 -0.83209181 10
0.19801225 3.9315252 -0.8376174 11
0.43939298 3.9490132 -0.8394134 5
1.0685076 4.0558596 -0.84906709 7
1.8476899 4.0607605 -0.83975214 0
0.14755012 4.3080215 -0.75557816 12
0.60801911 4.3336296 -0.83046263 12
0.073993608 4.4309211 -0.83110064 9
1.0134819 4.3802528 -0.84743512 8
1.1258674 4.4092188 -0.84381509 10
1.3048642 4.3954153 -0.84558791 10
1.9641447 4.4444642 -0.8389343 2
0.83026427 4.8748851 -0.83359146 10
1.1400853 5.0135775 -0.83971649 11
1.7068412 5.1654706 -0.84612334 1
2.2222581 5.3460488 -0.84727716 3
2.2623024 5.6380687 -0.80539644 15
1.2777338 5.7350941 -0.84014392 3
2.071044 5.7454519 -0.78432661 20.5
1.1470153 6.0997453 -0.83393186 2
1.1622601 6.4890394 -0.75250071 0
1.4356756 6.5955148 -0.83208048 0
1.7887895 6.9420381 -0.84013915 2
2.4983952 8.6226912 -0.83665174 1
1.5556186 -4.7328362 -0.681229 12
1.2297151 -4.5478253 -0.61939615 9
1.355273 -4.6099577 -0.66891348 21
4.6012187 -3.272613 -0.66446531 105
4.0997586 -3.1254449 -0.71823835 18
4.8238111 -2.8555892 -0.68952554 104
0.86830211 -2.5956488 -0.68642664 73.666664
3.1167815 -2.5885627 -0.70624959 96
4.9191589 -2.6831257 -0.61458331 98
0.94095254 -2.4530947 -0.71298504 75.333336
5.0573945 -2.4071553 -0.62142032 98
1.0299971 -2.2895548 -0.69303906 80.5
1.0863119 -2.1429551 -0.68443525 43
2.4200969 -2.1254442 -0.72633457 2
5.2094631 -2.131326 -0.62512618 99
2.0487795 -2.0583472 -0.62306643 99
2.173882 -2.0121698 -0.64045733 27
2.2612326 -2.0470831 -0.67301202 135
1.1774858 -1.8926628 -0.68231028 13
1.2490287 -1.8665191 -0.71062011 81.75
1.8924758 -1.8614845 -0.72756273 16
5.1153798 -1.8504308 -0.6295979 16
0.95116138 -1.7052873 -0.63368112 10.333333
1.3131562 -1.7331926 -0.65945673 83.333336
4.919374 -1.678548 -0.68478125 89
1.3588772 -1.6445496 -0.70279688 78
4.2354655 -1.2459743 -0.65664935 22
4.1900568 -1.1826314 -0.60161448 14
3.2948303 -0.90280962 -0.69584507 13
3.3527241 -0.94943279 -0.62392759 6
3.0979755 -0.67474383 -0.6579985 78.666664
3.1880398 -0.50389141 -0.66909951 84
2.2494574 -0.32223225 -0.64142072 27
2.1599863 -0.26882029 -0.69741571 31
2.0295868 -0.12532814 -0.6641323 88.5
2.1033409 -0.0012059608 -0.65177041 82
2.1572475 0.092257418 -0.64857799 77.333336
2.1898587 0.156709 -0.67037302 66
2.67168 0.33685377 -0.67771858 49
2.7093656 0.31397387 -0.66361231 24
1.4304447 1.2721065 -0.63482541 27.5
1.4809279 1.3935823 -0.63551128 32
2.316895 2.6931329 -0.69832939 39
2.0968864 2.8054609 -0.74257433 98
2.1559024 2.7743063 -0.65374136 102.5
2.2832952 2.7183564 -0.66644931 2
-0.70210439 3.1030867 -0.65165132 60
-0.64711833 3.2081022 -0.63186419 58.333332
1.2809585 3.2492104 -0.69738561 38.666668
-0.52909416 3.4316297 -0.6538074 56
-0.50271612 3.4671884 -0.70706511 28
-0.36042616 3.7248747 -0.71936268 3
-0.29230893 3.8747003 -0.70261002 4
-0.21497509 4.0201154 -0.66340584 30
-0.18240127 4.0576162 -0.70736468 2
0.0034936189 4.4165525 -0.71714503 2
0.30547565 4.718102 -0.74294156 1
2.1665483 5.6913891 -0.72183657 34.5
2.0179386 5.7910852 -0.67064244 36
0.76929051 6.2053127 -0.73896378 2
2.8012152 8.9416924 -0.68617743 72
2.8904691 9.2510281 -0.72978818 43
1.5183303 -4.7120562 -0.50941849 9
4.6706495 -3.1372466 -0.55998713 10
4.7526431 -2.9826047 -0.47749382 107
4.9013801 -2.7116551 -0.50362432 96
0.85099292 -2.6321959 -0.5030911 53.5
0.94189584 -2.4531407 -0.48741397 72
5.0477886 -2.4347577 -0.52748364 94
1.0158787 -2.3218884 -0.51513016 78.5
1.0728897 -2.2021282 -0.52767867 77
2.0047259 -2.1184075 -0.55879927 110
5.1792083 -2.1937535 -0.5283978 104.5
1.1485165 -2.0608273 -0.47694054 79
1.2022265 -1.9524506 -0.4712376 88
2.0234303 -2.0998664 -0.57663196 96
0.92526084 -1.8987176 -0.54801488 4
1.2630429 -1.8387911 -0.50101244 94
1.7963128 -1.811987 -0.49085426 4
0.88466674 -1.7916366 -0.56912041 5
0.9518429 -1.7250617 -0.55772829 6
1.3253169 -1.7026486 -0.48825693 84
1.3545215 -1.6635935 -0.46800736 86
4.7448993 -1.6597356 -0.46324244 21
4.9027905 -1.69045 -0.5882507 83
1.3732185 -1.6243697 -0.54160237 117
4.1156297 -1.1739212 -0.51907575 0
3.0855999 -0.69263792 -0.54373884 83
3.185612 -0.4978689 -0.5418269 140
2.3132174 -0.3621017 -0.58787149 7
2.0175416 -0.19431132 -0.54460818 39.75
2.0641036 -0.0551758 -0.54080123 78.599998
2.1446154 0.07973519 -0.52086723 80.333336
2.4911616 0.23969349 -0.56738645 7
2.7014248 0.30762035 -0.59938025 25
3.2589581 0.32862478 -0.55333477 28
0.56390125 1.3569825 -0.4530488 4
-0.85348958 2.8275478 -0.4985576 64
2.0455105 2.8365726 -0.53685045 104.5
2.1422141 2.7952189 -0.56588793 69
-0.81349748 2.8918612 -0.51052994 63.166668
1.9977654 2.9034715 -0.51591504 68.5
-0.68680906 3.1323907 -0.5135631 56
-0.64102691 3.2176235 -0.56441104 60.5
-0.55509287 3.3744907 -0.54636741 57
-0.50291532 3.4750583 -0.52883732 47
-0.44348288 3.5792389 -0.49419159 55
-0.42192358 3.6132174 -0.53592235 54
-0.249173 3.961401 -0.54529649 52
1.9591858 3.9836476 -0.51113385 22
0.37404701 4.1317677 -0.48907921 37
-0.10985605 4.2173891 -0.56680298 46
0.54334056 4.2875299 -0.48801979 103
0.60507005 4.3332396 -0.55216587 1
0.0050639333 4.436533 -0.53912818 52
0.12222762 4.6941295 -0.50503302 14
0.23954208 4.8684344 -0.47319704 46
1.9388416 5.8182998 -0.59330314 35
1.8462961 5.8569107 -0.50833762 7
1.3588017 6.9930186 -0.54916203 2
1.656233 7.5122471 -0.4721244 3
2.6222026 8.7798433 -0.51973671 73
4.8858595 -2.7318718 -0.4190377 97
5.0461907 -2.4442825 -0.44645661 105
2.6440833 -2.2268167 -0.44726181 34
1.3187441 -1.7422616 -0.43235672 93.5
3.0907865 -0.67855459 -0.42389616 70
2.0168173 -0.19943333 -0.44250765 28
2.1262264 0.044909202 -0.40851021 77
1.2509359 0.22638646 -0.43313357 42
2.9448228 0.24726062 -0.44744587 17
2.7559907 0.32215762 -0.40879714 132
0.49056447 1.2176939 -0.40927365 0
-0.80109042 2.922514 -0.41741213 61.333332
-0.71481514 3.069818 -0.40240279 60
-0.45652908 3.5622694 -0.41033798 57
