# .PCD v0.7 - Point Cloud Data file format
VERSION 0.7
FIELDS x y z intensity
SIZE 4 4 4 4
TYPE F F F F
COUNT 1 1 1 1
WIDTH 989
HEIGHT 1
VIEWPOINT 0 0 0 1 0 0 0
POINTS 989
DATA ascii
-0.61365086 -1.2318382 -0.16813605 14
-0.54190654 -1.2354611 -0.18087581 14.125
-0.39220691 -1.2362872 -0.17156123 15.285714
-0.21051115 -1.228673 -0.16856319 13.5
-0.067904823 -1.2302313 -0.18202537 11.25
0.077045135 -1.2293133 -0.17633636 10
0.20120835 -1.2279993 -0.18037952 10.666667
0.33369279 -1.2216228 -0.16980971 8.75
0.35471255 -1.1073393 -0.16515099 6
0.35822344 -1.0253892 -0.17397894 0
0.39650255 -0.79782009 -0.18055277 5.5714288
0.28357565 -0.70078826 -0.19221158 0
0.34557664 -0.47158334 -0.1829741 1
1.5187881 -0.51540834 -0.16491991 4.5
0.21521832 -0.3631033 -0.17230685 0.66666669
0.34710196 -0.37942779 -0.18877615 2.090909
0.68099445 -0.34780702 -0.15227501 10
0.85439199 -0.37829977 -0.15277834 12
1.1514908 -0.40869391 -0.16782993 10
1.529591 -0.30837423 -0.15548228 9
0.22391123 -0.28177938 -0.16905208 1.5
0.57449412 -0.27056077 -0.15116894 0
0.67618424 -0.22463748 -0.16379201 11
0.79994053 -0.22673161 -0.15486638 10
1.1473503 -0.23205103 -0.16048418 12
1.248835 -0.28939739 -0.16690959 150
1.4913641 -0.20835556 -0.16898447 8
1.5044911 -0.24097072 -0.15884267 10
3.0568449 -0.2208837 -0.15416859 19
0.37274384 -0.0044542369 -0.16406113 7.5
0.55829018 -0.0035791399 -0.15556924 5
0.67994791 -0.074706309 -0.16408481 14.833333
1.1459413 -0.068930387 -0.15684523 14.25
0.32778612 0.077785917 -0.17577399 10.444445
0.70574397 0.00015230769 -0.17114964 7
8.2675171 0.012968733 -0.19905123 255
0.32156044 0.23211852 -0.17629123 11
0.31879431 0.35280874 -0.17164338 11.333333
0.32357541 0.55680215 -0.18792477 0
0.46159232 0.50199372 -0.17093924 0
0.17034926 0.69814503 -0.1531013 0
0.34854096 0.67468107 -0.16590692 0
0.67543608 0.68023378 -0.17171319 10
0.19503982 0.82643247 -0.18946786 0
0.3311078 0.79222727 -0.17246966 0
0.67386532 0.81229323 -0.16068338 12
0.32226786 0.96150273 -0.19142228 0
1.1170577 1.0042999 -0.15405056 10
0.36285073 1.1879656 -0.18247706 7
1.1164665 1.0609553 -0.16644375 13
1.1227356 1.2076826 -0.18867987 55
1.285668 1.2076255 -0.16534559 31
0.29029381 1.5826459 -0.17458765 3
-1.0147462 3.9602895 -0.17763962 121
-0.88463825 3.9676125 -0.15550232 133
-0.67072612 3.9678178 -0.17428124 116.5
-0.38056287 3.9893439 -0.1932579 5
0.23070945 3.9919746 -0.1527421 6
0.37858689 3.9837861 -0.19284828 129
0.46390569 3.9844894 -0.16630289 113
-0.76233262 -1.2328508 -0.057233755 9.25
-0.6711269 -1.2370142 -0.089395113 10.857142
-0.5235008 -1.233464 -0.089774042 13.611111
-0.36870426 -1.2283422 -0.055481274 11.384615
-0.22614655 -1.2260386 -0.082357056 12.25
-0.075784333 -1.2309648 -0.072719224 10
0.070063464 -1.2306043 -0.066225097 10.642858
0.22798485 -1.2259275 -0.090730362 9.363636
0.34563166 -1.2249424 -0.062112596 9
0.22136398 -1.178584 -0.0030069994 1
0.35610506 -1.0944598 -0.124791 6
-0.68325615 -0.91297054 -0.073190674 9.75
0.33782971 -0.93855184 -0.09141954 2.3333333
-0.7919386 -0.75360447 -0.022843039 6
-0.69869417 -0.8630842 -0.026266314 8.625
-0.69952625 -0.68477404 -0.077696644 8.3999996
-0.55177301 -0.69315559 -0.018813046 2.8333333
0.24103121 -0.66235167 -0.034700278 0
0.26315641 -0.46734589 -0.0012129891 1
1.0997971 -0.48381975 -0.12026087 9
-0.45483848 -0.41937357 -0.031265978 3
-0.43736944 -0.43427557 -0.021737462 3
0.27103487 -0.39415225 -0.080371358 1.7
0.30475909 -0.36131614 -0.12118927 1.75
0.55449247 -0.30838704 -0.082177021 4.5
0.67518544 -0.33789867 -0.10300015 9.7777777
1.1353101 -0.38145176 -0.13630752 7.6666665
0.56092614 -0.26699853 -0.083035506 3.2
0.66436797 -0.22184429 -0.099533089 8.818182
1.1345832 -0.22409455 -0.13583042 14.5
3.005702 -0.21454716 -0.039522607 8
3.6560142 -0.16578479 -0.10834549 12
0.67149621 -0.081099667 -0.11056886 13.75
1.1449049 -0.096727952 -0.13320953 14
3.0540161 -0.091211498 -0.0083196806 45
3.1922219 -0.0089389626 -0.02500785 152
3.4056056 -0.083306864 -0.033506397 103
6.0573549 -0.045111038 -0.031423006 6
0.32466555 0.13832107 -0.14986798 10
3.5179546 0.046918269 -0.12296299 54
-0.71848428 0.28558671 -0.099710442 0
0.31962124 0.26098552 -0.11898009 11.428572
-0.68639374 0.34440875 -0.068471842 0.33333334
0.32074103 0.37059802 -0.098804019 9.8571424
8.28687 0.3280569 -0.1465552 23
-0.87370998 0.58446503 -0.030523097 0
0.24613595 0.55055016 -0.065691561 1.375
0.35580733 0.51660824 -0.093588948 4.4000001
0.48958293 0.5578258 -0.085339181 0
-0.90764111 0.60452998 -0.044360254 0
-0.82558995 0.67689329 -0.04603146 0
0.22701055 0.68726021 -0.06829045 0
0.35315585 0.68352818 -0.1194806 1.125
0.55086654 0.66325587 -0.080240428 2.6666667
0.67219496 0.71185589 -0.099435829 9
0.27516755 0.77697581 -0.083352551 0
0.32142177 0.79854822 -0.12223732 0
0.66750789 0.79340267 -0.12442287 11
0.36314991 1.1814741 -0.11352467 5.8571429
1.1058472 1.1463618 -0.12768798 84.666664
0.29541841 1.2468348 -0.11541653 5.3333335
0.30815208 1.2022078 -0.1140295 9
0.38243344 2.3702776 -0.11415922 99.666664
0.48920023 2.3435934 -0.098575145 45.333332
-1.2203587 2.4527943 -0.0028961347 71
-1.1105353 2.6624568 -0.048392382 15
-1.2172563 3.8922606 -0.090611152 7
-1.2337273 3.9027476 -0.032837752 6
-1.1999174 3.9031162 -0.068120606 1
-0.96037966 3.9636004 -0.11329114 111
-0.6183117 3.9670131 -0.084062636 130
-0.49936238 3.9681556 -0.13045356 26
-0.39610451 3.9761021 -0.09107931 57
-0.034958143 3.9810553 -0.087073453 1
0.10161799 3.9833627 -0.05149851 12.5
0.22509064 3.9791954 -0.022204762 19
0.41003802 4.0014157 -0.11014219 21.5
-1.0809608 -1.5830549 0.12721102 5
-0.72537357 -1.5437088 0.13504231 2
-0.48977333 -1.5018461 0.13078031 11
-0.37126502 -1.5006225 0.14410686 15
-0.66000402 -1.4893124 0.12340098 25
-0.53207129 -1.493039 0.12874679 13.25
-0.41201788 -1.4930412 0.13540745 15
-0.19135666 -1.4851619 0.11941308 8.666667
-0.075153962 -1.4681875 0.096516438 2.3333333
0.015763652 -1.4824822 0.11125626 25
0.48571891 -1.4809067 0.13606447 19
-0.43144003 -1.3232187 0.036109712 0
0.13810135 -1.2622769 0.037265267 0
0.46520621 -1.2033318 0.007702495 11
0.41362727 -1.1794243 0.0065112216 1
-1.1489989 -1.0381433 0.13447511 2
-0.67397803 -0.92236388 0.023739213 4
-0.94950491 -0.78195679 0.077104278 5.75
-0.79934317 -0.81844884 0.060970768 7.6666665
-0.68796188 -0.81005377 0.059807096 5.9230771
-1.1699303 -0.65225476 0.14914122 5
-0.9073835 -0.66856056 0.077514797 7
-0.82902402 -0.68336606 0.081131049 5.0833335
-0.70422733 -0.6811173 0.066960484 4.6999998
-0.54480898 -0.65482628 0.042129941 4
-0.44704133 -0.6362769 0.046877619 4.5
0.22896059 -0.66127384 0.090656593 0
-0.95651597 -0.5460735 0.10817826 5.6666665
-0.79404968 -0.54374093 0.083497383 3.8
-0.68167806 -0.53777289 0.093789443 4
-0.59001446 -0.55601752 0.13561845 4
0.22821809 -0.57533681 0.085021488 0
-0.47914433 -0.43269515 0.0095778955 2
-1.1599987 -0.19537602 0.14331454 4
-1.1643491 -0.053169288 0.14560229 9
-0.92238736 0.30706042 0.12852287 5
-0.80195838 0.35216931 0.094962575 0
-0.72494781 0.38647574 0.055911958 0
0.23934378 0.53484899 0.008994068 0
-0.81789982 0.70827854 0.031360369 0
0.24958469 0.63777328 0.0027100695 0
-1.1950761 1.4489524 0.09473218 15.2
-1.1965122 1.5121816 0.12555081 11
-1.2035168 1.7218374 0.11298551 3
-1.1955553 1.7196921 0.098612919 8.1428576
-1.1831168 1.963447 0.032802846 1
-1.2133812 2.467253 0.07460475 72.166664
-1.1859205 2.4955218 0.10500745 65
-1.1119486 2.6446445 0.011792923 17
-1.1229458 2.7358449 0.047886249 0
-1.2181064 3.8757954 0.033388671 2
-1.2136259 3.9464238 0.057189763 14.25
-1.1874802 3.9899015 0.024220044 42.5
-1.156571 4.072865 0.004047568 78
-0.87895828 4.1600461 0.038786005 71.5
-0.90181059 4.2568483 0.145594 33
-0.80172265 4.2785721 0.055848029 150
-0.68359333 4.3026214 0.06523966 77
-0.26129654 4.3545904 0.12205511 2
-0.0056744395 4.3762879 0.12453913 1
0.14074592 -1.7532861 0.28255332 1
0.29600149 -1.7496539 0.28027785 1
-1.0890349 -1.5657498 0.16859633 1
-0.67457563 -1.5114123 0.25185642 16.333334
-0.52045524 -1.5019389 0.21385498 28
-0.36850342 -1.5018938 0.25644264 11
-0.28737989 -1.5044597 0.17258811 13
-0.014398017 -1.5068549 0.24132065 9.333333
0.37868333 -1.5175591 0.19542634 18.5
-0.63736385 -1.4903525 0.21994688 34
-0.56772268 -1.4895349 0.22690916 65.5
-0.33611038 -1.4941448 0.26924387 13.333333
-0.23774788 -1.4940888 0.22826393 16.777779
-0.098168902 -1.4758528 0.2160846 23
0.037136953 -1.4533665 0.26605701 23
0.43328243 -1.4702768 0.18189174 18
0.45436943 -1.4754546 0.18178421 22
-1.093291 -1.3408842 0.20348126 17
-1.150635 -1.100631 0.20366585 1.5
-1.1525774 -0.97836661 0.20393306 1.75
-0.691468 -0.91369259 0.24015853 3.5
-0.5793609 -0.97514087 0.26377699 3.3333333
-1.136184 -0.80576062 0.20842874 2.125
-0.80188727 -0.76793981 0.17485724 5.6666665
-0.64604628 -0.77637815 0.19819774 6.5999999
-0.58941966 -0.83921021 0.22696134 2.2
-1.1548419 -0.67950588 0.22546005 3.3636363
-0.97936463 -0.64312297 0.26194954 5.6666665
-0.82619625 -0.65216386 0.21084809 5.4285712
-0.67605048 -0.68900549 0.20817637 5.6363635
-0.54100436 -0.70205724 0.16680771 5
-1.1670784 -0.51737899 0.22525682 3.7857144
-0.96396053 -0.54755181 0.17838366 4.8571429
-0.82030052 -0.54599476 0.21579915 5
-0.67879069 -0.53808737 0.22958642 4.4545455
-0.53982818 -0.56317139 0.24141145 4.5
-1.1754649 -0.37275225 0.23758873 3.8
-0.77019763 -0.40491194 0.28032923 4.5
-0.69102079 -0.41480049 0.25818026 4.3333335
-1.1753783 -0.21966454 0.24049224 4.2631578
-1.1767468 -0.066929549 0.22763297 5.1333332
-1.1886319 0.082415447 0.23410861 7.8888888
-1.1880013 0.22715287 0.23089018 8.25
-1.1858752 0.37041637 0.22598261 6.8125
-0.95036054 0.31256193 0.17261991 1
-0.87700689 0.31429976 0.16000021 5
-0.6634751 0.44541407 0.23076749 0
-1.1866347 0.452831 0.2498768 6
-0.83795244 0.51634675 0.28304437 0
-0.73058659 0.45519114 0.18859011 0
0.12219004 0.73847294 0.24411103 0
0.17256649 0.74299067 0.22853386 0
0.12011342 0.77625948 0.26041055 0
0.17136572 0.76860851 0.25081855 0
0.95317096 1.1203538 0.29143322 20
-1.1955208 1.4896439 0.17936878 14.666667
-1.2006986 1.5217447 0.18676399 10.75
-1.1981088 1.532377 0.26462334 10
-1.2058728 1.7878695 0.19229949 4.5
-1.1965905 1.7540814 0.18048567 3.3333333
-1.2007736 1.8116858 0.27326864 7
-1.3375784 2.4475024 0.22046426 25
-1.179674 2.5198867 0.218504 55.333332
-1.1518624 2.6613216 0.27423584 56
-1.1200196 2.7596669 0.27843699 13.5
-1.1260072 4.0891948 0.2307985 55
-0.96528476 4.116262 0.21408117 63.333332
-0.91376323 4.3435454 0.24353755 55
-0.65996575 4.3427849 0.15098697 88
-0.26353252 4.353117 0.23691639 98.5
-0.036097471 4.3615575 0.25483096 76
0.59030783 4.3733954 0.21551198 12
0.69547153 4.3752332 0.24727499 19
0.79141599 4.3823414 0.284805 46
0.32190806 -1.7305545 0.38146877 0
-0.39117351 -1.5042906 0.31368744 17
-0.65031505 -1.4875007 0.3358402 25.5
-0.50000536 -1.4939358 0.39002046 59.285713
-0.38669592 -1.4923249 0.36810902 42.142857
-0.19119725 -1.4915602 0.39740068 54.75
-0.075600199 -1.4545375 0.36773777 29.333334
0.081588991 -1.4448828 0.38296241 46
0.21979141 -1.4420948 0.3552427 69.222221
0.37321109 -1.4424917 0.32468516 65
0.5282619 -1.4330175 0.42828214 56.25
0.68473405 -1.4386593 0.38799921 44.444443
0.79532743 -1.4313846 0.34158686 28
-1.1619943 -0.92216939 0.34857064 0
-1.1427084 -0.82353866 0.33123702 1.8
-0.69702989 -0.81485415 0.37014413 6
-1.1688251 -0.63587755 0.3739017 1.3333334
-1.0446997 -0.64462364 0.44418716 3
-0.81698221 -0.64743584 0.3768577 4
-0.70969498 -0.63332015 0.30471247 5.5
-0.54278749 -0.63019705 0.36276907 3
-1.1713223 -0.51854271 0.35467863 2.0769231
-0.93374133 -0.54185009 0.35538104 1.5
-0.77668107 -0.5105499 0.31588614 1.5
-0.66568124 -0.5551762 0.33487985 4.25
-0.56798786 -0.54883254 0.34081197 5
-1.1753501 -0.37340045 0.37144315 2.25
-0.80470484 -0.44782978 0.32266548 4.5
-1.1767178 -0.22939174 0.37179327 2.6153846
-1.176545 -0.070463307 0.36279923 5.2857141
-1.182981 0.072238907 0.36358407 7.7333331
-1.1852695 0.2129976 0.35994673 7.2307692
-1.1855162 0.35670659 0.37064287 6.5454545
-1.0118883 0.41648272 0.37621656 5.7777777
-0.89216554 0.44552612 0.42353177 0
-0.93714356 0.46577218 0.39105248 3
-0.84597301 0.50773847 0.36693633 0
-0.72043687 0.56749129 0.38177967 0
-0.8409012 0.6215443 0.38063455 0
0.088303894 0.80209255 0.38930699 0
-1.2031122 1.4328136 0.3453038 9.666667
-1.1969908 1.4864476 0.30860639 10
-1.2034451 1.5655203 0.36713949 7.25
-1.2037967 1.7179006 0.32333812 5.3333335
-1.1982106 1.7755291 0.30484891 6
-1.2021278 1.8469334 0.33859527 6
-1.3552724 2.4716923 0.30592144 16
-1.2765542 2.482589 0.37793556 47.666668
-1.1830873 2.5377138 0.32315135 49
-1.1738222 2.6115217 0.38640809 44
-1.2670318 3.9233603 0.36855265 11
-1.1988816 4.0283737 0.37469321 17
-1.1438568 4.0816059 0.37280041 76
-0.91434634 4.343739 0.33484483 70
-0.51063204 4.3498626 0.31216854 92
-0.52771264 4.3512077 0.34908807 99
-0.3658779 4.3597078 0.32658589 80
-0.25844958 4.3643446 0.35997799 79
0.88980287 4.3912687 0.31486976 55
-1.9916859 6.0404959 0.44986349 15
-1.9499043 6.0219617 0.4057613 40
-0.71967065 -1.5348542 0.5959264 1
-0.56905103 -1.50064 0.56698996 12
-0.62623107 -1.4949337 0.50486922 29
-0.52102661 -1.4895384 0.49373525 67.5
-0.34386438 -1.4916897 0.5542807 66.400002
-0.22105695 -1.4911705 0.50671345 63.75
-0.059074901 -1.450092 0.5360803 61.700001
0.076815948 -1.4447827 0.49501795 67.75
0.25101322 -1.4444119 0.57833827 61
0.36752859 -1.4390116 0.52961004 62.200001
0.50724179 -1.4368267 0.51067197 52.555557
0.65353155 -1.4383546 0.50210905 47
-0.66592884 -0.78974462 0.54010922 3.5
-1.1453871 -0.65753692 0.50349456 0.66666669
-0.95320112 -0.68161374 0.47743702 2.3333333
-0.81769478 -0.74582934 0.50807846 5.5
-0.67148572 -0.67419499 0.51932722 3.6666667
-0.30997312 -0.61900073 0.59874016 0
-1.1719345 -0.53287321 0.53615803 0.45454547
-1.1728891 -0.37363526 0.54038554 0.83333331
-1.1757543 -0.2223334 0.51828891 1.1
-1.1819357 -0.057067588 0.52646238 6.125
-1.1849933 0.08961796 0.52115583 6.4545455
-1.1840484 0.22533475 0.50984138 6.7142859
-1.1858473 0.36711982 0.51411778 6.7272725
-0.95135576 0.42345881 0.47322956 7
-0.85667574 0.42389342 0.54099804 5.2857141
-0.77354532 0.52573645 0.5031001 1.8181819
-0.64979237 0.54555637 0.55992323 6
-0.56033593 0.5360043 0.57500273 2.8181818
-1.1861182 0.61445022 0.52878314 5
-0.73929167 0.6238994 0.53575855 6
-0.54527223 0.62655604 0.55490392 0.80000001
-1.0045003 0.93049306 0.57708043 1
-1.2061195 1.4024472 0.54163623 2.75
-1.2082478 1.5980511 0.57294446 3.5
-1.2085139 1.6769805 0.59390426 3.5
-1.3010839 2.4924824 0.51194441 49
-1.1643893 2.6922815 0.5465641 32
-1.1427506 4.1766849 0.48708463 0
0.31419674 4.1373682 0.51316845 71.5
0.49346134 4.0784941 0.5198155 24
-0.66289872 4.349247 0.50603229 94
-0.5308013 4.3483496 0.45722848 85
-0.78100234 4.3514547 0.51390326 91
-0.5346247 4.3570046 0.52367204 92.333336
-0.2941398 4.3554235 0.47581965 98
0.08072795 4.3672934 0.58955961 21
-0.51374757 -1.48813 0.70344049 58.666668
-0.38238591 -1.4931381 0.67656732 58.875
-0.1997641 -1.4862603 0.68405837 57.42857
-0.095680036 -1.4464645 0.63424873 65.666664
0.085648648 -1.4446507 0.68937421 63.5
0.23419051 -1.4374559 0.68890297 68.599998
0.39081302 -1.4357557 0.63698256 50.200001
0.581541 -1.4333893 0.73322523 54
0.67299479 -1.4252181 0.71108782 54
0.78475124 -1.4589093 0.74642932 1
-0.55721122 -1.2469894 0.69597745 47.75
-0.64033705 -1.1141144 0.71296054 5.6666665
-0.57208741 -1.1571635 0.69342804 18.75
-0.65664893 -0.97179842 0.70160866 18.166666
-0.5340516 -0.94718999 0.73273563 13
-0.38604951 -0.91460073 0.72949135 6.5
-0.82296205 -0.75059646 0.69440377 7
-0.66991091 -0.86402601 0.6786508 6
-0.56657284 -0.88554382 0.68087304 1
-0.4160243 -0.77691656 0.6770649 5
-1.1701407 -0.62265879 0.60701096 5.5
-0.77920502 -0.69203144 0.71374053 5.5
-0.67927462 -0.68179941 0.69753486 3.5454545
-0.46296751 -0.6051383 0.68097162 2.5
-0.41210067 -0.68105984 0.68456298 4
-0.29842195 -0.64505792 0.60639745 5
-1.1773422 -0.53532475 0.71975696 3
-0.71259403 -0.59100097 0.68553662 4
-1.174111 -0.39350417 0.67753869 3.3333333
-1.1784137 -0.22563826 0.66999865 0.5
-1.1615036 -0.061339639 0.68162519 4
-1.186514 0.069823235 0.67613602 7
-1.1876239 0.24087165 0.66866714 6.8571429
-1.1907238 0.38539174 0.69094688 7.1999998
-1.1960821 0.50909686 0.71325815 6.5
-0.63756967 0.49439356 0.65229183 1
-0.54853851 0.47051892 0.64536297 0
-0.99652261 0.96421492 0.63799012 0
-1.2263336 2.5006011 0.72130322 36
-1.1975845 2.5160952 0.66503298 35
-1.1601295 2.5672834 0.66007197 1
-1.0331972 4.1041851 0.69566435 23.5
0.27411896 4.1068583 0.64119685 82
-0.95755959 4.2867694 0.68894827 34.5
-0.81435239 4.3461771 0.66230595 87
-0.7748 4.3528023 0.70888346 96.5
-0.54353374 4.3539138 0.65666437 97
0.08946763 4.3676639 0.67299819 102
0.18826176 4.3817306 0.60198992 7
1.1479799 4.3952808 0.68266892 3
1.2498275 4.410975 0.72938859 7
-2.046174 6.4333806 0.74748623 93
-0.51903909 -1.4870211 0.81568438 52
-0.35732302 -1.4878532 0.8405093 55.75
-0.23432052 -1.4851673 0.79942214 58.599998
-0.060565449 -1.4520001 0.81964028 64.400002
0.096680015 -1.4406337 0.83146638 69.555557
0.20228046 -1.4381726 0.77721947 61
0.38492891 -1.4391587 0.86173582 49.400002
0.5402022 -1.432407 0.82409877 57.833332
0.67025059 -1.4339477 0.81463605 46.666668
0.77783912 -1.4272459 0.83506787 43.5
-0.52795005 -1.2818185 0.79809439 152
-0.70884985 -1.0863265 0.7766965 3.6666667
-0.76367342 -0.96598285 0.80318189 3
-0.34063047 -0.91296184 0.76167548 7
-0.75139117 -0.79015434 0.75160563 6
-0.63121229 -0.83059496 0.8055343 5.5
-0.54089367 -0.86325866 0.80181223 5.7142859
-0.37974837 -0.82573688 0.79694831 5.125
-0.26897675 -0.7770738 0.76317823 1
-1.1718172 -0.61453789 0.81705391 4
-0.82984799 -0.64944047 0.78775066 5.6666665
-0.68039668 -0.66148335 0.81395555 38.75
-0.5245325 -0.68777299 0.80116516 4.0833335
-0.35899037 -0.69581831 0.80643821 2.5
-1.1797173 -0.51605254 0.83641469 3.125
-0.61573267 -0.57941234 0.79090095 1
-0.55518514 -0.56774455 0.83381081 4.4000001
-1.1800861 -0.38521802 0.84099239 1.6666666
-1.1818756 -0.23635729 0.82541054 2.1111112
-1.1793971 -0.061243486 0.82955551 5.8000002
-1.1886932 0.076632343 0.80815083 7.5
-1.1913004 0.23664914 0.80715454 11
-1.2021874 0.38637877 0.77304435 7
-1.185287 0.38660878 0.81839412 36.5
-1.2060471 0.47832999 0.81716931 6
-1.186558 0.50599086 0.82002121 38
-1.2532731 2.5060377 0.78493023 13.333333
-1.4300165 2.8900061 0.80116659 37.5
-1.269637 3.9157729 0.76436269 1
-1.2211818 4.090189 0.8469826 13
-1.096758 4.3484535 0.88550889 92
-0.7958194 4.3465052 0.84270656 93
0.26692653 4.2283964 0.76146257 82
-1.0193143 4.3515401 0.8638047 60
-0.17474085 4.365828 0.81236202 88
-0.062392283 4.3705115 0.78469598 93
0.071932822 4.366806 0.80848229 84.25
-1.9495726 6.1579103 0.86194825 58
-0.68598205 -1.4890155 0.96407783 30
-0.48702386 -1.4893041 0.97873557 53
-0.37538528 -1.4833407 0.97550917 56.75
-0.19897443 -1.4817696 1.0004253 55.5
-0.047847148 -1.4413309 0.97058791 67
0.062628604 -1.4399481 0.94480693 63.75
0.24149545 -1.4325324 0.97030854 57.75
0.38259867 -1.4382709 0.98204374 56.25
0.52690148 -1.4361032 0.95197934 51
0.68213409 -1.4311687 0.99002993 44.785713
0.79746836 -1.4278208 0.93907404 37.833332
-1.1750225 -0.65913206 0.94935131 2.5
-0.76853228 -0.64082241 0.95216078 3
-0.72732192 -0.71729994 0.94436061 6
-1.1783708 -0.5638833 0.92508888 3
-1.179424 -0.36803249 0.94301683 2
-1.1795211 -0.22431013 0.94639552 2
-1.1794345 -0.066297986 0.95804739 4.25
-1.1869462 0.06778571 0.98841953 29
-1.1845949 0.20496143 0.99634439 35
-1.1917789 0.34928265 0.98106706 27.5
-1.1892095 0.52861673 0.97918099 24
-1.5514287 2.9421654 1.0078412 25
-1.4881012 2.9412832 0.97142947 29
-1.3500454 3.9450328 0.98183525 6
-1.2461653 3.9729977 0.9539721 7.5
-1.0997624 4.3454795 0.95383066 88.333336
-0.45388311 4.3572254 1.0174366 89
-0.36431801 4.3669081 0.98135251 89
-0.20167783 4.3632336 0.96036041 91
-0.12559442 4.3609943 0.95906734 92
0.042829465 4.3680205 0.97418582 101
0.89628786 4.3771367 1.0453122 79
1.1422788 4.3894801 0.98891807 42
-2.0601304 6.4291382 1.043768 84
2.2447801 6.494103 0.90225291 90
2.3834815 6.4930601 0.98387289 6
-0.52174717 -1.4849733 1.1152933 52.400002
-0.37541932 -1.4840207 1.1574224 54.5
-0.2069709 -1.4829895 1.1444753 56.5
-0.093745157 -1.4407938 1.1135541 68
0.089603744 -1.4367565 1.1176441 60
0.22892971 -1.4352119 1.1370039 56.099998
0.35413057 -1.4408842 1.1351612 56
0.52463871 -1.4341727 1.1061355 48.599998
0.63066608 -1.432216 1.0510408 40
-1.1879506 -0.56562376 1.1325492 1
-1.1877961 -0.37874657 1.0800582 2
-1.1910963 -0.21239446 1.0915095 2
-1.1966577 0.065690272 1.1342497 37.333332
-1.1973975 0.20698541 1.1460559 41
-1.1958784 0.36077505 1.1237147 45.75
-1.2007349 0.57339561 1.1594533 52
-1.1950841 0.52932572 1.1007103 48
-0.66758525 4.3616714 1.1965955 85
-0.4929702 4.3640895 1.1556411 82.666664
-0.37792078 4.3586936 1.1368331 96
-0.19904412 4.3614044 1.1028092 87
0.86798555 4.3795729 1.1425582 78
1.077111 4.3867779 1.1134329 67.5
-2.0053399 6.4416995 1.0680741 101
2.5097892 6.4913239 1.0721204 6
2.649497 6.4951863 1.1494993 7
-0.62378359 -1.4791549 1.2426038 90.5
-0.56553209 -1.4886299 1.2744774 7.6666665
-0.35543427 -1.4781861 1.2876247 33.333332
-0.21986163 -1.4779266 1.2812673 52.285713
-0.065313704 -1.4428182 1.2498188 60.5
0.090485483 -1.4391096 1.2797425 58.799999
0.20053439 -1.4404825 1.2959139 54.833332
0.38125527 -1.4364036 1.2584276 57.833332
0.45291573 -1.4318397 1.2158885 61
-1.2011014 -0.015822103 1.2000638 39
-1.1975249 -0.036986712 1.2855532 40
-1.198718 0.069739491 1.2717527 35
-1.2021362 0.28766358 1.2648534 42
-1.198933 0.17657168 1.2632537 39
-1.2017841 0.4145034 1.2338691 47
-1.2034049 0.5378933 1.2496777 50.5
-1.2050316 0.67031837 1.2740304 49
-1.2138826 0.80348212 1.3445598 47
-1.4392928 2.9501719 1.3322989 3
-0.69516516 4.3634043 1.285484 92
-0.45057014 4.359221 1.2364302 89
-0.4480083 4.3691874 1.3485694 95
0.37564534 4.3795943 1.242722 86
0.52180588 4.3809609 1.2534456 69
0.62757045 4.3762722 1.2566338 73
0.82315481 4.3833456 1.2781047 82
-1.9831889 6.4342613 1.2205507 56
2.1114669 6.5005956 1.3010992 2
-0.72273874 -1.5036629 1.4218647 1
-0.35680449 -1.483428 1.4258986 29
-0.23831353 -1.4761524 1.4377487 49
-0.042979389 -1.4400371 1.4331222 60.166668
0.072327815 -1.437276 1.3967509 56.333332
0.22616504 -1.4416968 1.4366821 52.142857
0.32797065 -1.4393216 1.4042374 58.333332
-1.2092568 -0.027442779 1.3992479 42
-1.2076277 0.091417231 1.3889056 40
-1.2070582 0.21362749 1.3920381 37
-1.2053821 0.33806431 1.4026412 36
-1.2131339 0.47406 1.4398177 36
-1.2144624 0.61825663 1.4797657 36
-1.2931017 2.9479184 1.4003482 1.5
-0.97096026 4.3625126 1.4144604 86.5
-0.81698358 4.3648911 1.3874007 95
-0.71573126 4.3626003 1.3969803 92.5
0.12953354 4.3803396 1.449209 77
0.23133405 4.3808107 1.4382601 81
0.35652488 4.3728795 1.4262278 88
0.57474965 4.3801103 1.4487243 80.5
2.2442982 6.4860888 1.3570505 9
-0.36539748 -1.4702008 1.6405329 1
-0.23076801 -1.4766285 1.5188866 45.5
-0.076266006 -1.4422138 1.6006756 64.400002
0.069838881 -1.44155 1.5291221 60
0.22102949 -1.4416715 1.5660989 54.799999
-1.3911352 -1.0518311 1.6090447 8
-1.346065 -0.53999108 1.5753883 5
-1.2078915 -0.047740888 1.5625293 23.5
-1.2071223 0.076168567 1.5549587 41
-1.2091227 0.23447435 1.5529299 38.666668
-1.21121 0.39939767 1.5941136 41
-1.2113937 0.56850809 1.5986363 33
-1.2178756 0.77995801 1.5391585 38
-1.521713 2.9498582 1.6156244 41
-1.4602429 2.9503446 1.5647132 19.5
-1.2111726 4.0394216 1.5936933 18
-1.0814307 4.3630109 1.6117893 84
-0.98518497 4.3570781 1.5784761 86.333336
-0.89901018 4.3644605 1.5298119 92
-0.69730264 4.3569083 1.5437145 93
-0.011761892 4.3763132 1.6383361 78
0.078116223 4.3709536 1.5854616 88.5
0.17039357 4.3710966 1.5957515 83
0.33373606 4.3799839 1.5774699 81
1.1328704 4.3834095 1.6388143 21
2.0834551 6.4950314 1.6294254 5
-0.19481638 -1.433453 1.7005484 58.599998
-0.072078414 -1.4187996 1.7321657 65.714287
0.058551781 -1.4207269 1.7143204 70.25
0.1856546 -1.4271473 1.7007543 52.666668
-0.31142214 -1.266555 1.7679523 8
-0.21182732 -1.2858707 1.7543607 71.909088
-0.081407286 -1.2739093 1.7495203 72.25
0.042508036 -1.2839936 1.7581838 90
-0.8591733 -1.1669741 1.6530448 0
-0.51607454 -1.1188128 1.7558583 34.5
-0.36130351 -1.1182425 1.6969166 25.857143
-0.22401981 -1.1272148 1.7567934 32
-0.081893019 -1.1323193 1.706565 17
-1.4690021 -0.9297086 1.797917 14
-1.3437989 -1.0385225 1.7834429 14
-1.1930088 -0.97258651 1.7720593 17
-1.2657052 -0.80795455 1.7739424 14.5
-1.3421271 -0.71579438 1.769266 13
-1.1832986 -0.68186009 1.77661 9.5
-1.3892022 -0.58758289 1.7981516 6
-1.2198153 -0.51073289 1.7695165 18.333334
-1.22718 -0.36798584 1.7625328 11
-1.1807898 -0.3075816 1.7683297 9
-1.2546059 -0.24150053 1.7945868 10
-1.1910818 -0.21395826 1.7774721 11.5
-1.1935964 -0.060334593 1.7716137 16.666666
-1.2077109 0.07863199 1.6918305 33.666668
-1.2074839 0.23978838 1.7114198 32.5
-1.2085834 0.37242162 1.7325804 28.5
-1.2110411 0.52031022 1.6986613 31.5
-1.1993853 0.49180317 1.7672809 14
-1.2108021 0.68738556 1.7121233 24
-1.2111918 0.8380639 1.769411 20
-1.2481554 0.95820683 1.7321376 15.5
-1.209718 1.0771801 1.7966212 4
-1.2480507 1.2027675 1.7672404 1
-0.34426212 2.0814676 1.7963818 34
-1.5577677 2.944041 1.7346817 11.5
-1.3679912 4.0061159 1.7663988 2.5
-1.2335197 4.2540369 1.7811623 35
-2.2276051 4.3547111 1.7438163 0
-1.1799629 4.3578849 1.7015737 92.5
-0.95558769 4.3600535 1.7591139 89
-0.19597158 4.3678713 1.7402233 83
-0.093964227 4.3686986 1.7213389 82.5
0.08401382 4.3712635 1.7090511 82
0.32605392 4.3743658 1.6780094 85
1.2421747 4.3948698 1.7614096 11
-1.4256996 -1.0941267 1.8038882 13
-1.1581998 -1.0658057 1.8165325 69
-0.65254164 -1.1055768 1.8279138 83
-0.51045793 -1.080714 1.8194051 69
-0.38777933 -1.0811955 1.8296684 59.666668
-0.208188 -1.0659108 1.8258559 47
-0.097745076 -1.1042724 1.8431131 60
-1.5508735 -0.9805212 1.8088192 16
-1.2745812 -0.95925176 1.8105668 14
-1.1138835 -0.95657712 1.8240072 87.333336
-0.92692244 -0.92894191 1.8238392 96
-0.85270524 -0.95004886 1.8280634 99
-0.67713404 -0.96774846 1.8274655 85.333336
-0.53233075 -0.96582061 1.8219908 66
-0.38891035 -0.97606403 1.8261818 52.142857
-0.21475641 -0.98066396 1.8289812 45.400002
-1.5120956 -0.77204144 1.8037599 14
-1.3992952 -0.89929771 1.8079635 14
-1.3054414 -0.76162148 1.80398 16
-1.1313111 -0.82349467 1.8187753 66
-0.95177788 -0.79814714 1.8176214 78.333336
-0.80777961 -0.81106681 1.8233454 85
-0.65267432 -0.82406437 1.8229716 79.285713
-0.52726442 -0.82189345 1.8251719 70.444443
-0.39176416 -0.83882731 1.8297008 59.5
-0.27010617 -0.82074589 1.8296305 53.75
-1.5464811 -0.61354208 1.8064932 14
-1.4343207 -0.74702311 1.8005444 14
-1.3037775 -0.62257397 1.800463 14.5
-1.134923 -0.67903423 1.8236793 93.5
-0.97223914 -0.67181438 1.8203365 80.75
-0.808626 -0.68146229 1.8240538 79.800003
-0.67311031 -0.66419733 1.8210312 82.14286
-0.51842278 -0.67665577 1.8254064 74.625
-0.36171311 -0.68414527 1.8479 40.25
-1.5747221 -0.45614541 1.8077577 23
-1.4317096 -0.45849356 1.8079668 18.333334
-1.2996358 -0.49406707 1.812301 15
-1.1279458 -0.55326873 1.8147289 53.666668
-0.97216177 -0.52399606 1.8183066 79
-0.81732714 -0.52559483 1.8216746 81.800003
-0.68005383 -0.51408124 1.8203882 85.199997
-0.5327906 -0.54204571 1.8261131 82.14286
-0.38879076 -0.52969795 1.8275415 76.25
-1.5227911 -0.30467865 1.8071498 43
-1.4202067 -0.31821355 1.8058391 22.5
-1.2999272 -0.33254096 1.8120328 19
-1.1254065 -0.39913416 1.8134604 50.599998
-0.97396511 -0.35108316 1.8212043 78.75
-0.82983756 -0.38027221 1.8202349 79.111115
-0.68531406 -0.37116185 1.8235191 78
-0.52534598 -0.37732008 1.8286256 80
-0.40517122 -0.38046312 1.829653 77.5
-2.7244904 -0.21667275 1.8838748 1
-2.3146887 -0.17354617 1.8944541 1
-1.5458262 -0.1571575 1.8170987 1
-1.4380643 -0.17530355 1.8048295 34.5
-1.3132617 -0.19118762 1.8062044 24
-1.091153 -0.23042481 1.8164501 81.333336
-0.96291173 -0.22139922 1.8183228 77.599998
-0.8053813 -0.23122098 1.8223387 77.285713
-0.66735363 -0.22070909 1.8241895 79.333336
-0.54526341 -0.22653845 1.8258456 74.5
-0.43679875 -0.21934277 1.8286388 75.5
-1.6143355 -0.14044218 1.8126825 45
-1.2716081 -0.11318855 1.8130637 13
-1.103683 -0.084663451 1.8148427 81.25
-0.96703899 -0.084706903 1.8169969 82
-0.80761969 -0.079130195 1.8230631 80.800003
-0.69108486 -0.08465077 1.8240988 78.400002
-0.53018558 -0.076472729 1.8292646 76.875
-1.2003667 0.11411262 1.8130118 4
-1.112463 0.079298884 1.8154283 75.75
-0.95953006 0.066221945 1.8182979 82.166664
-0.82893103 0.066203862 1.8220963 78.777779
-0.67881316 0.067625724 1.827062 79.571426
-0.53269929 0.083655171 1.8275677 87
-1.1397209 0.22964489 1.8144535 54.75
-0.97858399 0.2229919 1.8163795 81
-0.80961287 0.21597834 1.8221095 78.400002
-0.69311023 0.21259539 1.8243611 79.599998
-0.54311305 0.2279693 1.8291992 82
-1.140023 0.37538329 1.8153814 63.599998
-0.96678913 0.37286243 1.8171905 76.599998
-0.80607998 0.37148571 1.8214617 77.900002
-0.66208082 0.36797529 1.8260683 77.85714
-0.53623778 0.36546883 1.8298707 80.833336
-0.44533923 0.39127418 1.8309325 76
-1.1217297 0.52101803 1.816939 70
-0.94174105 0.51235771 1.8216784 75.5
-0.81782711 0.53052789 1.8236873 76.85714
-0.68718898 0.52854896 1.8247994 75.75
-0.52201033 0.53371477 1.8278768 78.199997
-0.42451954 0.52012599 1.8317881 86.5
-1.2020216 0.64603472 1.815657 2
-1.1120569 0.67219812 1.8255236 89.400002
-0.95200217 0.66896582 1.8154745 74
-0.82019818 0.66774952 1.8208851 74.714287
-0.69117039 0.67461294 1.8252519 75
-0.53566235 0.68820953 1.829318 74.25
-0.39575571 0.65274274 1.8336295 83
-1.132197 0.82658446 1.8235134 66.599998
-0.95579386 0.79162431 1.8217601 87.666664
-0.79785174 0.82596105 1.825232 80.25
-0.6716308 0.8272292 1.8275214 74.428574
-0.50107431 0.81164223 1.8336039 74.666664
-0.39802748 0.85172528 1.8407557 66
-1.1336238 0.98641747 1.8255447 67.599998
-1.0173525 0.92417002 1.8316425 90
-0.83828378 0.94954813 1.8301563 64.75
-0.68546045 0.96281135 1.8320695 77.285713
-0.52723974 0.96980971 1.8343534 82.14286
-0.36699918 0.97722805 1.8377675 76.25
-0.26564217 1.0334373 1.8454338 90
-1.1336659 1.1271539 1.8288765 13
-0.66490251 1.1102806 1.8362695 55.166668
-0.53610152 1.1179227 1.8366883 85
-0.39083374 1.1136281 1.8419726 83.5
-0.25508082 1.1664457 1.8473002 75.5
-0.62597263 1.3055151 1.8291492 67
-0.53335309 1.2732681 1.8368486 74.875
-0.36925656 1.2747906 1.8392146 75.285713
-0.2270631 1.2763189 1.8419946 70.599998
-0.10615455 1.3423932 1.8477522 68
-0.62820435 1.3872625 1.8315803 67
-0.52438653 1.443974 1.8344698 71.75
-0.36144838 1.4204038 1.8359262 71.833336
-0.22943051 1.4370242 1.841826 73.333336
-0.089560032 1.4389892 1.8487879 68.5
-0.66638327 1.6426581 1.825039 62
-0.53862095 1.5778539 1.8284609 69.599998
-0.397863 1.5815846 1.8316569 68.333336
-0.21304436 1.5717226 1.840187 70.25
-0.074988864 1.5710729 1.8429592 70.599998
0.033199515 1.6043577 1.8465868 72.5
-1.0754533 1.7688915 1.8208922 66
-0.98288679 1.7466327 1.8221248 57
-0.89016563 1.7331326 1.8254052 60.5
-0.50508612 1.7398078 1.8257266 68.75
-0.37503195 1.7169235 1.8328763 59.75
-0.24387722 1.7324333 1.8339626 70.666664
-0.069590673 1.7189499 1.8390064 75.428574
0.08223182 1.7248199 1.8444667 73.75
-0.90003335 1.9263756 1.825087 54
-0.8293668 1.8719866 1.8296725 65
-0.74217069 1.8847067 1.8317248 59.5
-0.3604247 1.8801861 1.8487408 36.799999
-0.18187055 1.9157259 1.8371314 59
-0.080663927 1.8275086 1.8414353 69
0.074231356 1.8872384 1.8444754 68
0.20597076 1.8450819 1.8475313 67
0.3346054 1.923005 1.8525635 64
-0.98768401 1.958642 1.8204228 60
-0.79501981 2.0224698 1.8311273 70
-0.70453072 2.0322337 1.8322453 62
-0.46539652 1.9536546 1.8279217 58
-0.24984008 2.0049508 1.8348707 61.5
-0.054656945 2.0117474 1.8361659 65
0.13197236 2.0035086 1.8441687 66
0.23076783 2.0194204 1.8472725 64.14286
0.36768389 2.0311618 1.850602 63.5
0.45658278 2.0463619 1.8508846 66
-0.84571052 2.1360347 1.8257217 55.5
-0.66169518 2.1780429 1.831769 60.200001
-0.5615797 2.1832819 1.8347257 56
-0.16548246 2.1578577 1.835067 56
-0.11562487 2.1631804 1.8368608 61.25
0.069209754 2.1517949 1.8419938 66
0.26997688 2.1697993 1.8455721 65.25
0.38085517 2.166774 1.8484341 63
0.53453779 2.1823266 1.8552889 54.75
-0.77118188 2.3711874 1.830516 56
-0.69641924 2.3085532 1.8313919 56
-0.53627986 2.3339238 1.8384081 56.666668
-0.21045853 2.2773798 1.832199 54
-0.021881828 2.3321755 1.8406049 61.333332
0.023354672 2.322839 1.8444647 61
0.15894963 2.3517597 1.8450764 71
0.41411981 2.3164439 1.849571 61.5
0.51817298 2.3117478 1.8530682 63
0.68175018 2.3241963 1.8604542 49.75
0.7797938 2.3449945 1.8624268 33.5
-1.1304779 2.4897473 1.8246366 48
-0.97241431 2.5411131 1.8242544 58
-0.52832592 2.4582627 1.8359706 53.599998
-0.059782032 2.4486539 1.838436 57
0.1262548 2.4689028 1.8437959 60.333332
0.15233548 2.5055223 1.8455352 58.5
0.30082929 2.5077691 1.8467308 57
0.58432341 2.4437435 1.8540915 58
0.67948282 2.4603069 1.8567528 58.799999
0.80188012 2.4945936 1.858996 19.666666
-1.1046348 2.5949235 1.8228588 57.5
-1.0488784 2.6271036 1.8219596 64
-0.63507432 2.5830321 1.828384 53
-0.39475819 2.6001163 1.8393238 52.599998
0.10795437 2.6181009 1.841 58
0.23738223 2.5832071 1.8478174 60
0.31079164 2.6643183 1.8458545 58.25
0.45962012 2.6689563 1.8471237 60
0.80237907 2.6064279 1.8586016 3.5
0.9915933 2.6579325 1.8595411 48.666668
-1.203908 2.784162 1.8040177 12
-1.1208559 2.7058537 1.8142349 68
-1.0209817 2.7755411 1.8211654 62
-0.85251719 2.7763202 1.8260771 71
-0.48319817 2.8098934 1.8303953 57
-0.38029492 2.7273808 1.8392197 51
-0.25379869 2.803838 1.8413088 56.5
0.29390085 2.7856305 1.8396164 60
0.41340414 2.7599134 1.8470203 56.5
0.48912928 2.7960815 1.8449703 61.5
0.63821423 2.8404381 1.8489822 58
1.0106194 2.7487049 1.8604077 55
1.082023 2.7604153 1.8547343 35
-0.95491987 2.9167621 1.8201213 64.666664
-0.22335424 2.926713 1.8399097 59.333332
-0.049329896 2.9517879 1.8388475 59
0.52321088 2.9167044 1.8474226 54.5
0.65829331 2.9507797 1.8516152 48.5
4.1184587 2.9701087 1.9464804 34
-1.6841606 3.033345 1.811833 5
-1.062569 3.0913939 1.8170925 62
-0.91789883 3.0007944 1.826754 64
-0.84579211 3.1150959 1.8240231 63
-0.71526623 3.0306578 1.8294092 72
-0.30859771 3.0634816 1.8443795 42
-0.09113203 3.077646 1.8433702 58.5
0.71478283 3.0353334 1.865465 38.5
0.86745816 3.0752907 1.8571168 55.5
2.8827074 3.043153 1.9261302 0
3.1791427 3.0500731 1.928578 11
3.4852595 3.0420735 1.9336718 18
3.797272 3.01507 1.9391528 29
-1.7658952 3.244761 1.8101918 1
-0.82820016 3.2431812 1.8263469 61.5
-0.083322167 3.1803348 1.8393179 58
0.072710201 3.2242997 1.848856 59.333332
0.74170029 3.1542845 1.8613828 54
0.84230435 3.1598887 1.8629566 51.5
0.94481355 3.2008057 1.8640907 54
1.0699239 3.2175734 1.8605517 53
3.222393 3.2390728 1.9222053 11
3.5933025 3.2834849 1.9337455 12
4.3710279 3.2960141 1.9459957 32
-1.8912449 3.3956435 1.8104271 6
-0.83424032 3.3652625 1.8308698 59
-0.7324276 3.43016 1.83386 57
-0.5577051 3.3139861 1.8362509 73
-0.10983706 3.3049693 1.8403407 62
0.11750597 3.3839257 1.850708 56
0.32700515 3.4319398 1.8534232 60
0.99946928 3.3634892 1.8627856 51.5
1.1305858 3.3479104 1.8659178 46.75
1.2659147 3.4017506 1.8611218 36
3.1836221 3.3787839 1.919248 11
3.3215373 3.3796678 1.9210252 13
3.5417995 3.4222729 1.9298364 12
3.6778569 3.3833234 1.9255012 21
3.9406285 3.3702171 1.9366367 28
4.0537724 3.3732867 1.9370793 24
4.4346809 3.3342109 1.947673 27
-0.63871688 3.5336552 1.8316603 60
0.12014766 3.5783389 1.8486968 56
0.22305788 3.4696198 1.8539869 55
0.32249418 3.5501561 1.8538582 52
1.277483 3.5015383 1.8614141 33
3.285265 3.4827175 1.9169444 11
3.6845155 3.5437567 1.9181187 21
4.0879488 3.5963733 1.9297112 29
4.3072391 3.451278 1.9472188 26
-0.60155874 3.6330285 1.8333114 58
-0.53574038 3.7423332 1.8376287 61
-0.37566712 3.6170764 1.8389486 62
0.3510046 3.7043016 1.8548177 49
0.55831194 3.6992266 1.8600243 54
1.3020511 3.6556416 1.8653518 29
1.3567507 3.6023469 1.8640555 21
3.6863875 3.7208147 1.9142257 17.5
4.174449 3.6081975 1.9288636 32
4.5379801 3.6148884 1.9425367 27
4.6752 3.6619737 1.9404939 3
-1.3966759 3.8259165 1.8091983 55
-0.69751853 3.7657013 1.8299264 60
-0.57015735 3.8286896 1.8371898 59
-0.40369979 3.7807257 1.8358029 65
0.37439609 3.8122241 1.8258921 46
0.53885514 3.804251 1.8621106 53.666668
3.8701131 3.8373265 1.925856 23
4.1653471 3.8135953 1.9288071 25.5
4.6729341 3.836869 1.9463867 3
-1.4198397 3.9143364 1.812219 54
-1.1564887 4.0460634 1.8207008 60
-0.48246157 3.9175413 1.8339304 54
-0.41507226 3.9809771 1.8377068 58.5
-0.16403846 3.9578896 1.845709 59
0.57637858 4.0487418 1.8640579 50
0.6432842 3.9948916 1.8607398 54
0.82169813 3.9801221 1.8612119 55
3.9406402 4.0326195 1.9194299 25
4.4273944 3.975364 1.9375907 28
4.6725821 3.9196694 1.9324752 3
-2.1141036 4.1101699 1.8233265 0
-0.4648636 4.1533408 1.8365308 64
-0.32041645 4.1017289 1.8416239 64
-0.17369299 4.14363 1.8399194 60
0.67493451 4.1133709 1.8618451 52
0.82547283 4.1027908 1.8687568 54.333332
4.5025144 4.1689692 1.9293658 3
-0.35713783 4.2701354 1.8415645 56
-0.21696675 4.3429375 1.8377672 69.5
0.08533223 4.3346524 1.8496751 70
0.9605816 4.3006091 1.8655726 41
1.131418 4.297832 1.86909 27
-0.16264226 4.3702817 1.8217019 85
0.88666576 4.3833599 1.8357221 74
0.99082351 4.3828859 1.8306807 61.5
1.1149875 4.3852119 1.8675411 60.5
1.2011418 4.3942389 1.8374788 30
1.4733657 4.8229179 1.9034203 0
-2.1296632 6.3981128 1.8407923 29
4.4421458 2.905184 1.9563352 32
