# .PCD v0.7 - Point Cloud Data file format
VERSION 0.7
FIELDS x y z intensity
SIZE 4 4 4 4
TYPE F F F F
COUNT 1 1 1 1
WIDTH 1182
HEIGHT 1
VIEWPOINT 0 0 0 1 0 0 0
POINTS 1182
DATA ascii
1.0893441 -2.881741 -0.19683741 2
0.4342376 -1.831214 -0.1838219 24
0.57019264 -1.7299531 -0.18043429 1
0.62699842 -1.6808993 -0.17724293 9
0.24889012 -1.5733666 -0.15679076 45.25
-0.70200819 -1.4547173 -0.17075193 11.333333
0.37778842 -1.4128159 -0.16001424 3
-0.55874121 -1.2932581 -0.17717348 5.8333335
0.50635111 -1.2473618 -0.1574463 10
0.042470064 -1.0990802 -0.16821663 8.5
0.49235946 -1.1783025 -0.15171164 7
-0.44031003 -0.97334713 -0.19925022 0
-0.0035580278 -1.0226026 -0.18491578 3
0.072762355 -1.0378311 -0.17698695 9
0.24900557 -0.95359731 -0.16124871 8
-0.39383346 -0.81602335 -0.18295464 1
-0.26566902 -0.84918243 -0.18864195 0
0.22587325 -0.82626712 -0.17383021 8
-0.18255892 -0.66212547 -0.17434014 2
0.1233667 -0.64747536 -0.19986701 14
0.066425115 -0.47914061 -0.18451409 9.3999996
1.4760064 -0.5235309 -0.17550842 7
0.12662968 -0.37135765 -0.17067419 7.5714288
0.16943622 -0.32937193 -0.17245537 8.5
0.22589649 -0.25810441 -0.17955334 8.7777777
0.6562857 -0.26559016 -0.15487021 4.6666665
1.5336679 -0.16801 -0.16929981 27
0.4301056 -0.034071416 -0.1734968 0
0.45012897 -0.004033538 -0.1773012 1
0.78454262 -0.14461549 -0.15191074 5
0.48769191 0.059272639 -0.1721936 0.071428575
0.4027102 0.21160921 -0.16860956 0.5
0.58074129 0.2152884 -0.15838516 0
0.61174345 0.22965632 -0.19508272 0
0.7908107 0.41009253 -0.17788351 13
0.80358487 0.5070045 -0.17213356 7.1666665
-0.5257619 0.68071103 -0.18334222 0
-0.42914599 0.64554566 -0.16793364 0
0.88361865 0.62263089 -0.16541131 5
0.9603548 0.71214288 -0.1823467 4.5
1.473326 1.3485086 -0.1655241 92
-0.32930648 1.4772637 -0.17352033 10.5
1.4559901 1.3703368 -0.19595288 20
-0.24544089 1.5785391 -0.18207304 16.25
-0.13078369 1.7311862 -0.19805145 16
0.2517938 2.3669195 -0.16959645 75
0.35277843 2.4159007 -0.16228536 85
0.46537018 2.40236 -0.1558277 80
1.898967 3.0583677 -0.18934354 142
1.7457335 3.1737139 -0.18258724 121
1.4745015 3.3747134 -0.16801973 107
0.26573223 -1.5612237 -0.140744 57
-0.80633962 -1.4124893 -0.070378616 10.7
-0.68571436 -1.448949 -0.084546946 8.545455
0.32436359 -1.4828365 -0.10647879 1
-0.93592006 -1.3046087 -0.020988971 6.1666665
-0.88738823 -1.3492806 -0.051048271 11
-0.53533506 -1.2602375 -0.10882276 7
0.48843244 -1.2510055 -0.11878226 10.5
-0.47357339 -1.1787366 -0.12372259 1
0.032396402 -1.0999041 -0.11692142 10
0.32577395 -1.0563117 -0.1412674 12
-0.46675336 -0.97175992 -0.079723291 0
-0.44215333 -0.99511433 -0.045374122 0
0.10019148 -0.94974929 -0.095809348 7.2857141
0.16133648 -0.91027319 -0.091243796 8
-0.32960451 -0.83576185 -0.054948639 0.2
-0.26152515 -0.81306756 -0.071958318 0.69230771
-0.024575735 -0.81659997 -0.085686013 3.8571429
0.041770216 -0.82419825 -0.082925744 4
0.19983506 -0.85985136 -0.12929638 12
-0.21753535 -0.71921706 -0.024941018 1
-0.0935506 -0.71192986 -0.085861243 5.7692308
0.069766343 -0.64738852 -0.081422441 4.1428571
-0.053479638 -0.59247214 -0.066985287 6
0.05465316 -0.49121466 -0.091975287 8.375
-0.85078144 -0.36430845 -0.018428331 5
0.10912812 -0.40261886 -0.10170084 8.666667
0.170781 -0.3301135 -0.12523957 8.5
1.1796941 -0.32330218 -0.12113432 36
0.21342731 -0.27325985 -0.14040583 8.333333
0.43856186 -0.20547843 -0.13207877 1
0.70579153 -0.19890127 -0.10420583 10.333333
0.78427142 -0.19787425 -0.14687333 8.5
1.2625636 -0.22205488 -0.1139068 10.142858
0.43813229 -0.022221899 -0.14475454 0
0.74339575 -0.14339691 -0.11174906 11.5
0.75237721 -0.14308043 -0.13099582 10
0.49538922 0.071319968 -0.12898384 0
0.38941157 0.2109044 -0.12431419 0.66666669
0.56605846 0.22953528 -0.10717865 0
0.62944341 0.24569079 -0.12760435 0
0.67000008 0.36641946 -0.055556245 0
0.78890085 0.40625328 -0.087550111 10.222222
-0.63942856 0.58938205 -0.097009517 0
0.79405302 0.49801558 -0.08456704 6.4000001
-0.76494813 0.67672634 -0.071662553 0
-0.65780067 0.6184535 -0.081615098 0
-0.5240804 0.65377915 -0.057515286 0
-0.42754856 0.67070276 -0.056202803 0
0.8689186 0.60600758 -0.11736979 0.5
0.95968413 0.71496314 -0.09961056 3.6666667
1.0133761 0.77306211 -0.061185606 8
1.077114 0.87667787 -0.051293526 10
-0.67729229 1.0038403 -0.075490922 3.6666667
1.1688454 0.99545443 -0.04902241 17
1.2222539 0.9964574 -0.047117475 9
-0.64188308 1.0521454 -0.14742003 0
1.2830168 1.148788 -0.045831341 14.5
1.4784629 1.0762806 -0.039020184 0
1.585506 1.2638298 -0.078091294 72
-0.38012627 1.4147801 -0.11081424 9.166667
-0.23603657 1.6021004 -0.07799612 14.5
-0.18119469 1.6721048 -0.011052033 12.5
-0.12386535 1.7473196 -0.066406287 11
-0.047290195 1.8365872 -0.04109516 11.5
0.017480459 1.9297898 -0.0696119 11.5
0.084419906 1.9660649 -0.082872696 1.75
0.24298497 2.3810589 -0.031198895 68.666664
0.35161367 2.3804832 -0.10618518 82.75
0.40877843 2.4360681 -0.11575387 81
2.596962 2.5190332 -0.041863982 96.333336
2.7019317 2.4485054 -0.021653986 96
2.4063635 2.6686559 -0.0604387 105
2.2088177 2.823297 -0.086318024 127
1.7957838 3.137404 -0.1093213 130
1.8489473 3.0966468 -0.14326188 146
1.6022873 3.2746313 -0.0027664797 85.5
1.7206758 3.1927698 -0.067429863 129.66667
1.5543262 3.3234324 -0.0839644 111.5
1.2907345 3.509732 -0.015300994 51
1.7908306 5.6384654 -0.052186135 18
2.0362408 6.1137242 -0.13462281 17
-1.0044484 -1.6614946 0.12652528 13
-0.80927736 -1.7572285 0.13495056 17
-0.74963367 -1.7861457 0.11112141 3
-1.1810064 -1.5043455 0.14904189 24
-0.91932404 -1.5416903 0.056448247 2
-0.62989163 -1.5339816 0.0077643646 2
-1.2448107 -1.4108174 0.13071345 58.25
-1.1828629 -1.4598105 0.10876664 31.200001
-0.46409827 -0.99545687 0.068865232 0
-0.40502936 -0.92110676 0.083992273 0
-0.33921108 -0.84544444 0.065721005 0
-0.27762854 -0.77111334 0.077736944 0.55555558
-0.22410186 -0.7095865 0.081309482 0.60000002
-1.0129597 -0.52320027 0.074254468 4.1999998
-1.1029834 -0.38012949 0.13374844 6.7142859
-0.9402442 -0.38001204 0.05752613 3.75
-1.1684631 0.41243285 0.13759983 8
-0.7160337 0.39532888 0.12312134 0
-0.57100719 0.42648706 0.11796755 0
-1.0824803 0.52042615 0.1246406 8
-0.9611311 0.6685636 0.03085674 7.5
-0.50036901 0.65901828 0.088562712 0
-0.4432421 0.72712815 0.12431547 0
-0.877563 0.76683015 0.030092748 4.25
-0.3792614 1.4277329 0.08825253 6.2222223
-0.3152709 1.503875 0.092960589 12
-0.27135596 1.5558472 0.06476675 11.428572
-0.18054716 1.6789222 0.062085882 12.666667
-0.12626997 1.7468259 0.01939992 10
-0.061821029 1.8260731 0.041343044 11
0.52727056 2.4810195 0.11217073 39.5
2.5853705 2.5203302 0.043791112 66
2.5000849 2.6390176 0.084022216 26.5
2.5629871 2.5618589 0.0080419434 120
2.232825 2.8063946 0.0024314774 95
2.5801322 2.7581446 0.11925053 32
2.0363445 2.9579015 0.040761348 150
2.5113287 3.0782535 0.1362223 87
1.7190986 3.4157026 0.059925195 150
1.4478066 3.595212 0.072513692 74.5
1.5765759 3.5037243 0.1251846 74.666664
-0.72432643 -2.1083174 0.27722305 0
-1.2226219 -1.7484971 0.27580601 0.25
-1.1910819 -1.7925524 0.25412112 1
-0.83573514 -1.7451929 0.2330026 20.111111
-0.7064603 -1.7810018 0.26424038 21
-1.1650681 -1.5173428 0.20636201 23
-0.95729858 -1.5864626 0.28115654 53.400002
-1.2658974 -1.3891011 0.23074998 67.599998
-1.1633663 -1.4524578 0.24182793 40.42857
-1.5241092 -1.2022847 0.29076391 71
-1.4053628 -1.2898958 0.24645662 70.900002
-1.3351517 -1.3390604 0.20391822 72.333336
0.026526432 -1.2828969 0.21895236 3
-1.5398897 -1.1891984 0.26438749 72
0.12823652 -1.1478753 0.2428152 3
-0.43926138 -0.93304515 0.15706548 0
-0.36333844 -0.80413407 0.18364365 0.16666667
-1.2347498 -0.64083958 0.27771246 6.25
-1.1473609 -0.64618993 0.21897157 1
-0.46482593 -0.69687796 0.27752271 0
-0.26229981 -0.68148541 0.16248617 0
-1.2341062 -0.5417009 0.21059518 4.6666665
-1.1261089 -0.49940982 0.22895236 3
-1.2482334 -0.35772383 0.25142097 4.6666665
-1.1413689 -0.37372556 0.21918249 5.2666669
-1.3534427 -0.27097335 0.2993685 2
-1.260155 -0.23884268 0.19915022 5.1999998
-1.1307845 -0.25843012 0.27834213 5
-0.99932528 -0.22382094 0.27261436 2.5
-1.0416572 -0.11161711 0.18796718 5
-1.3937454 0.11164958 0.26913914 3.6666667
-1.3612579 0.15690148 0.29079044 4
-1.2887423 0.25186253 0.24102499 4.75
-1.2404418 0.31543034 0.27546251 4
-1.167119 0.40607482 0.2232585 7.4705882
-0.7658031 0.41470337 0.2025844 4
-0.74576187 0.41591221 0.16917545 1
-1.0951871 0.5042417 0.22337143 8
-1.0271224 0.57046175 0.2154893 6.1999998
-0.59876978 0.47510576 0.19556361 0
-1.0086603 0.62014782 0.28425264 5
-0.48111045 0.68641597 0.16982238 0
-0.39350817 0.69617265 0.25894019 5.3333335
-0.45055553 1.340289 0.19954944 6
-0.37202489 1.4291899 0.16630077 10
-0.15611167 1.7326785 0.27856678 9
-0.12686965 1.7580514 0.29666886 8.5
-0.019813765 1.8977211 0.26341534 7
0.024638843 1.9606113 0.26813978 4
0.3803277 2.3905258 0.22655818 66
0.37893087 2.4047709 0.2064237 66.5
0.50810707 2.4691274 0.25374615 80
0.61235946 2.6554825 0.27768397 6
0.65718699 2.7176781 0.22993982 0
2.9388058 2.7047749 0.25621468 31
2.6482775 2.959275 0.19684142 93.333336
2.5451112 3.0543694 0.24934304 100.5
2.3216274 3.225878 0.21215862 92.5
2.0845714 3.4038534 0.22697818 87
1.2472249 3.5638859 0.25568113 23.333334
1.4766104 3.5959406 0.15365207 75
1.5349182 3.5374351 0.21150976 80
1.1732748 3.6077795 0.18636578 6
1.402565 3.6083655 0.26287785 61.5
-1.1141653 -1.8564603 0.33574063 0
-0.68800634 -1.8022248 0.41039187 52
-1.2579032 -1.7654595 0.31076813 0
-0.79734534 -1.7133652 0.38786435 59.333332
-0.74478602 -1.7566028 0.38795367 58
-1.0673056 -1.5154201 0.37351012 59.333332
-0.99054509 -1.5677135 0.35583845 61
-0.88491631 -1.6438862 0.37445468 63
-1.2759031 -1.3870488 0.35612944 66.75
-1.1360632 -1.4545158 0.39476719 62.142857
-1.5078394 -1.2132756 0.36636773 68.25
-1.4245845 -1.2785938 0.37074277 66.199997
-1.3430188 -1.3390993 0.36670202 69
0.039080989 -1.2864316 0.40419674 2
-1.6554948 -1.0973599 0.44500512 26
-1.5924649 -1.1457047 0.37860081 72.444443
0.2170008 -1.0631914 0.39380544 0
0.22646292 -1.0142183 0.40780091 2
-0.46471134 -0.86403996 0.36299205 0
-0.37023115 -0.77897245 0.34974259 0.2
-1.3191677 -0.60030544 0.43252248 7
-0.38234049 -0.71371186 0.38342696 0.2
-0.26889291 -0.68149477 0.3773036 0
-1.2889986 -0.48912257 0.37524003 6.75
-1.3953481 -0.33534729 0.3545779 4.75
-1.2650309 -0.39372835 0.40353715 3.3333333
-1.0882105 -0.41545075 0.36553535 4
-0.99973607 -0.41989818 0.32810324 1
-1.5392553 -0.2053387 0.41513145 34
-1.3978814 -0.19342874 0.37564588 2
-1.2898321 -0.21369863 0.35265747 5
-1.1489166 -0.23358938 0.31923604 3.4000001
-1.5521384 -0.091926403 0.37748006 2.3333333
-1.4888487 -0.010221128 0.38985574 2.3333333
-1.4137925 0.083836697 0.39316979 2.3333333
-1.3565373 0.16098474 0.32365343 3.5
-1.3025331 0.23281217 0.36638802 3.05
-1.2183735 0.33325401 0.37150741 3.4000001
-1.1673552 0.41157833 0.37227586 7.0769229
-1.0918092 0.50885999 0.36281997 7.8461537
-1.0327303 0.5829345 0.33343306 9
-0.80576026 0.59612721 0.44927132 5
-0.64216834 0.57721454 0.38174886 0
-0.56448376 0.58589107 0.41813946 0
-1.0139189 0.61450732 0.39034066 7
-0.79528385 0.63600439 0.41046056 4.6666665
-0.72377902 0.60979939 0.39618227 0
-0.60085434 0.79297638 0.36532301 0
-0.64757854 1.0639989 0.44038731 0
-0.47918481 1.3090062 0.39521235 11
-0.39052844 1.4248184 0.38654542 8.416667
-0.31267026 1.5430912 0.35704958 6
-0.25889808 1.5992303 0.35647336 8.666667
-0.19716293 1.6764816 0.3315236 9
-0.1403062 1.749931 0.38345796 5.75
-0.020922923 1.9012117 0.35766655 5
0.31815964 2.3177454 0.38918132 64
0.2389174 2.4654624 0.36079374 55.666668
0.36131975 2.4214015 0.33669829 70.666664
0.53080058 2.5147977 0.32310432 57
2.5813041 2.6857476 0.3336826 32
3.0599494 2.6523123 0.41530004 77
3.1540484 2.5743985 0.43126494 82
2.9740734 2.7188821 0.39094496 85
2.4693263 3.110709 0.3217037 94
2.3343921 3.2095761 0.40299985 94.75
2.1439896 3.3628109 0.34597975 90
1.1726403 3.5955334 0.35711038 10
1.313323 3.5801895 0.35521716 33
1.9012537 3.55054 0.38678133 93
1.946748 5.8479824 0.4334259 26
-0.82513887 -1.6951284 0.49615279 61
-0.71727008 -1.7782578 0.5122962 51.5
-1.0588524 -1.5129693 0.48604071 63
-0.93992108 -1.607993 0.53514904 58.166668
-0.89701509 -1.6438774 0.58290052 63
-1.270584 -1.383491 0.52255106 64.125
-1.1407621 -1.4497739 0.49921578 63.400002
-1.5085605 -1.2179681 0.49982318 65.333336
-1.4181185 -1.2881683 0.51150191 65
-1.6708701 -1.0868913 0.53459918 35
-1.5815123 -1.1583537 0.51207423 69.166664
-1.4154203 -0.66755599 0.47230965 6
-1.4272397 -0.57979059 0.48060992 6.5
-1.2943389 -0.53206801 0.51007408 4.625
-1.0929056 -0.46271127 0.5834682 1.5
-1.6324422 -0.41093406 0.53430146 4.5
-1.4527177 -0.3701961 0.48965612 7.3333335
-1.3034245 -0.39513034 0.52907592 24.714285
-1.5867909 -0.19594119 0.51317769 10.75
-1.4777838 -0.27093968 0.46017247 26.5
-1.5419252 -0.073955476 0.50054562 7
-1.4956013 -0.0059050852 0.57055771 1
-1.4299067 0.06775561 0.51112235 4.5384617
-1.3641962 0.1545101 0.57761252 1
-1.300045 0.23338428 0.51631308 1.5
-1.2299218 0.32393229 0.50324202 3.5
-1.1738578 0.40301666 0.5248794 7
-1.1004434 0.5030098 0.53369343 7.8000002
-1.0379691 0.57976282 0.48959005 7
-0.7871809 0.59345156 0.47234315 7
-0.6574958 0.5569436 0.50574225 2.1428571
-0.52952427 0.56607866 0.54129404 2.5
-0.97698283 0.66079593 0.53924453 7.25
-0.78674388 0.64754719 0.47312021 4.6666665
-0.5166173 0.632572 0.58750784 5
-0.64904684 1.0308899 0.49483275 0.5
-0.50286418 1.2901417 0.48741588 5
-0.42195755 1.390812 0.49059618 8
-0.34036145 1.501225 0.47505289 7
-0.24637628 1.623156 0.45958841 6
0.21552192 2.4607921 0.50187176 82.5
3.200577 2.5403507 0.4853518 81
3.3391018 2.4327564 0.53753191 61
0.59776765 2.5681863 0.59977162 3
2.6009908 2.6249423 0.56024033 63.5
2.7373416 2.5762317 0.58935815 56
2.9139905 2.6267591 0.51706052 129
3.1056335 2.5925534 0.57966781 112
3.1608737 2.5683978 0.57092547 88
2.6242752 2.7676413 0.57455182 150
2.781724 2.808435 0.48577759 150
2.8659213 2.7040105 0.50629246 150
2.5759571 2.9272637 0.5342539 71
2.2412603 3.2769086 0.48756176 89
2.027751 3.4332347 0.58334118 78
2.1529658 3.3408222 0.5361647 97.25
1.9441941 3.5104213 0.45299321 89
1.98645 3.4774244 0.52318615 87
1.7140622 3.6905346 0.55606389 12
-0.6550588 -1.8285879 0.73467827 48
-0.81506395 -1.7027669 0.65959817 54.25
-0.71037227 -1.7830008 0.65799797 60
-1.0710423 -1.5060012 0.67881286 56
-0.99264622 -1.5675094 0.66026461 57.625
-1.2929499 -1.3723931 0.63212556 65.5
-1.1162996 -1.4732826 0.68936539 60
-1.5225446 -1.2061212 0.72438675 64
-1.4372259 -1.2766023 0.65550333 63.111111
-1.3493252 -1.3409492 0.69183004 66
-1.6844186 -1.0824629 0.66054446 20
-1.6043661 -1.1404394 0.65964115 62.75
-1.5382299 -0.97580153 0.70844996 150.5
-1.4287548 -0.94968349 0.67221004 81.599998
-1.5685457 -0.80065185 0.70772266 6.6666665
-1.43752 -0.80275178 0.69147247 34.25
-1.3036916 -0.80553687 0.64647865 28
-0.99559689 -0.77612215 0.7465415 2
-1.2534286 -0.65181988 0.70108122 11.142858
-1.1826754 -0.71596044 0.70566487 8.25
-0.95331687 -0.64638001 0.65488976 4.1666665
-1.2771494 -0.48821849 0.6752789 18
-1.1754429 -0.53121459 0.70117801 4.5
-0.96057618 -0.5378564 0.64781284 3
-1.373901 -0.32508883 0.65771294 3
-1.2566853 -0.38641834 0.69959533 2.875
-1.165036 -0.3694135 0.67508656 52
-1.0294018 -0.43576035 0.74654388 24
-1.5940118 -0.19797355 0.68893838 6.25
-1.4085429 -0.21145144 0.64198428 20.4
-1.2900454 -0.24840617 0.70810682 25.5
-1.5380116 -0.058506869 0.65761948 5.4285712
-1.4539027 -0.14810914 0.61467361 32
-1.4319556 0.070276864 0.6611647 4.8571429
-1.3622408 0.16278672 0.69421148 4.3333335
-1.3112965 0.22857161 0.66485846 3.2
-1.2366612 0.32449156 0.66609228 4.4000001
-1.1754723 0.41102067 0.66942847 7.5999999
-0.46931741 0.43564454 0.72928697 0
-0.41001418 0.44844469 0.71033764 0
-1.0896331 0.52292371 0.67434961 13.833333
-1.038082 0.58659834 0.64851987 7
-0.71445 0.56567621 0.64195323 3
-0.49575579 0.53213888 0.66722047 3.9444444
-0.40364727 0.53962678 0.69147301 2.4444444
-0.9762339 0.67163157 0.69499135 7.2727275
-0.51780355 0.62731415 0.63028133 5.75
-0.39178354 0.60975534 0.71107626 0
-0.52907491 1.1582274 0.68738836 1
-0.38492435 1.4441861 0.70933557 5
-0.27300575 1.5937662 0.72338057 5.3333335
-0.18590078 1.7076824 0.7291218 3.5
-0.14503747 1.7690289 0.72693288 2
-0.058450073 1.8707024 0.72520941 3.5999999
3.4019535 2.3838334 0.72035599 83
0.41404498 2.4572062 0.66635728 28
3.1820345 2.5423212 0.68275905 75
2.5916324 2.6018486 0.65785909 57
2.8305039 2.5606797 0.60422498 51
2.4255772 2.8593128 0.74902606 73
2.6376762 2.9642465 0.68778366 62.666668
2.7464709 2.8753743 0.72166002 68
2.452158 3.1094863 0.69707757 90
2.5783803 3.0149071 0.71465385 89
2.0555613 3.4145591 0.6262852 91
1.4777694 3.569977 0.71914887 16
1.8879575 3.5466509 0.71158898 92.5
1.9807252 3.475451 0.7176531 88
1.4641925 3.70017 0.70191061 8
1.7658803 3.6498625 0.61198628 91
1.8115594 3.6094527 0.6693995 91
-0.67282242 -1.8173432 0.77335185 57.333332
-0.78022265 -1.7405587 0.85331923 57
-0.74333972 -1.7664331 0.81120861 57
-1.0674534 -1.5141289 0.899189 59
-1.0100263 -1.5538534 0.8195498 56
-0.88800901 -1.642346 0.7698617 66
-1.2698797 -1.3838094 0.85709172 63.857143
-1.1585813 -1.441801 0.78893358 59.5
-1.5058376 -1.224718 0.76423466 61
-1.4281269 -1.2765228 0.79808313 67.666664
-1.6959722 -1.0638037 0.77519602 22.5
-1.555756 -1.1834878 0.79758292 64
-1.6391001 -0.96507359 0.86404455 0
-1.5187671 -0.75285804 0.75708544 7
-1.0144578 -0.75950849 0.76295865 5
-1.2726291 -0.64164138 0.76082391 6.3333335
-1.1239195 -0.67745107 0.81911993 4.5
-0.98690736 -0.66947043 0.81171781 9.8000002
-1.2766874 -0.54992521 0.84070319 19
-1.0957084 -0.51019216 0.81544924 14.5
-1.0294574 -0.55853671 0.83424616 6
-1.2657598 -0.34903502 0.78252983 3.5
-1.0976863 -0.36940524 0.76372659 3
-1.0189153 -0.44286364 0.78354454 3
-1.6167772 -0.18501879 0.87740541 4
-1.5522833 -0.081289694 0.80547905 5.8333335
-1.450014 0.059738927 0.80942357 5
-1.3787965 0.16067323 0.85267401 3
-1.306106 0.24476071 0.8217653 5
-1.226213 0.34450153 0.82265043 4
-1.1776021 0.42231369 0.85531598 8.333333
-0.48539689 0.42948136 0.76002336 0
-1.0966902 0.52695805 0.82525498 12.125
-0.54407424 0.51521224 0.75418997 2.3333333
-0.99972153 0.65470648 0.82049811 14.75
-0.55755168 1.1743355 0.8134895 1
-0.49594522 1.2139931 0.78250492 0
-0.37343708 1.4713225 0.7652477 5.5
-0.3289164 1.5299581 0.78388876 5.3333335
-0.25990346 1.6187544 0.79048711 3.3333333
-0.13774315 1.7700481 0.81091821 2
-0.012927162 1.9111786 0.78136003 2
0.00094748737 1.9465169 0.8510083 0
0.3668201 2.3794918 0.78250337 36.25
3.3845468 2.3917668 0.75030303 76
3.4781084 2.2991176 0.81932104 8
0.32164866 2.4328616 0.77010715 20
2.8698013 2.5257657 0.8659966 150
3.2138572 2.5235677 0.81808084 73.5
3.3204794 2.4499102 0.89234948 79
2.6046996 2.6393933 0.81265545 60.5
2.9931221 2.6705723 0.78378463 101
3.0025716 2.6097229 0.87387037 150
0.5683654 2.7791307 0.80810118 28
2.4887242 2.7786226 0.82193828 39
2.4629047 3.1064329 0.83057547 79.333336
2.2458172 3.2762299 0.79127097 84
2.3112092 3.2254553 0.85535932 79.5
1.1724557 3.5764017 0.81247282 1
1.5509646 3.5766058 0.77707183 12
1.8455837 3.574084 0.8110683 88
1.6850364 3.6472487 0.85107756 33
1.9395721 6.1440167 0.84548604 27
2.0424347 6.0530982 0.88055849 113
-0.63142973 -1.845989 0.93143713 51
-0.84326953 -1.6909648 0.92259192 55.75
-0.72160488 -1.7749314 0.9427821 54
-0.92809999 -1.6172225 0.9835459 55.599998
-1.2657934 -1.3693485 0.9738338 62.333332
-1.1551416 -1.4431065 0.96333539 56
-1.523365 -1.2052388 1.0237925 57
-1.4085834 -1.2959702 0.97795886 60.799999
-1.3478155 -1.3439277 1.0039041 58
-1.7643024 -1.0550948 0.92057693 18
-1.5703868 -1.16913 0.93114018 65
-1.661168 -0.1909302 1.0381609 3
-1.5606385 -0.069593862 0.98210752 3.4000001
-1.4394404 0.08613728 0.97234994 4
-1.3171755 0.24219804 0.99346077 4.25
-1.2249863 0.33821967 0.93762714 12.666667
-1.1886401 0.40727937 0.95799059 34.5
-1.1230116 0.49820504 0.97296596 25.25
-0.97842228 0.67467809 0.98823375 32.599998
-0.85337228 0.74185503 0.94765341 3
-0.92017722 0.76302356 0.93747258 7
-0.41226101 1.4417957 0.98877108 0
-0.31982845 1.5510545 0.94765902 1.5
-0.22097594 1.6746686 0.94728833 2
-0.10796279 1.8225437 0.95939058 2
3.3993115 2.3728676 0.95032156 70.5
3.4665382 2.3176022 0.95496249 22
0.35983503 2.4211442 0.91679788 3
3.2366033 2.5006173 1.0293009 68
3.3702254 2.4055572 0.95015109 78
3.1446943 2.5785224 0.96671879 70
2.8589048 2.7617526 1.003772 102
0.38366675 2.9399278 0.9910897 37
2.6190383 2.9376254 0.97061443 115.75
2.526628 3.0454521 0.98936987 82.5
2.2372694 3.2800572 0.97953957 77.5
2.3487561 3.1873875 0.96231103 79.25
2.0710633 3.4009559 0.94942212 80
2.1497664 3.3441131 1.0122043 76.666664
1.3438435 3.6363628 0.91749704 23
1.6430748 3.7262499 1.014696 93
1.7315087 3.6602879 0.92727864 90.5
1.5146619 3.8226628 1.0246893 89
2.0401707 5.9015522 0.90003622 71
-0.81615263 -1.7165252 1.0988923 38.333332
-1.0888855 -1.5016164 1.1543853 53.5
-1.011073 -1.5612936 1.0929682 53.142857
-1.126466 -1.4705762 1.1526715 56
-1.4446567 -1.2712504 1.0954502 58
-1.5778769 -1.1657099 1.1372367 63.166668
-1.6614318 -0.19384335 1.1307684 2.5
-1.5632617 -0.065003529 1.1334757 2.75
-1.4333181 0.09708485 1.1115979 2.3333333
-1.3364222 0.23598909 1.1531758 3
-1.2385368 0.35292608 1.0994904 24
-1.1647509 0.44443396 1.1393553 43
-1.0883454 0.54325986 1.1402793 42.25
-0.98762888 0.67300689 1.1343426 42
-0.91268563 0.77350146 1.1298891 43
-0.86471021 0.83273685 1.1056439 49
-0.56106716 1.170995 1.1411997 7
-0.47743139 1.2575561 1.1145465 2
-0.37820145 1.4857211 1.0706933 0
-0.34738898 1.5358424 1.1626165 2
-0.27570212 1.6220251 1.1107956 2
-0.19149886 1.7258134 1.0717155 2
-0.078070238 1.8747127 1.0886823 2
3.4011929 2.3745775 1.1233767 73.333336
3.2170143 2.507895 1.1679502 66.666664
3.3357053 2.4143033 1.1169325 70
3.0713339 2.628334 1.1160833 68
0.47467119 2.8491867 1.1990385 1
2.8200231 2.8261399 1.145665 69
2.926574 2.7364256 1.13494 66.333336
0.2965458 2.9957004 1.1517041 18
0.35863233 2.9536419 1.1370679 29
2.7193542 2.8993363 1.1233835 67.5
2.4530435 3.0981243 1.120649 84.75
2.2022309 3.2923303 1.1685147 78
2.3681622 3.1648259 1.1760434 81
2.0527499 3.4217243 1.1058981 77.333336
2.1516628 3.3251262 1.0986058 75
5.5267615 3.3867669 1.1583573 6.5
1.1804013 3.5863149 1.0515262 17
1.8998189 3.5268447 1.120684 82
1.9667668 3.4753151 1.179559 74
1.3075607 3.6107984 1.1712101 19
1.3922474 3.7179611 1.1410563 23
1.4786561 3.8167789 1.108019 52
1.6066898 3.7554264 1.0930923 93
2.0433776 6.0785289 1.0535343 105
0.3502236 -2.6261415 1.3145666 0
-0.86753047 -1.677933 1.2548159 56
-0.9857282 -1.5859743 1.2808909 53
-1.2261902 -1.398791 1.2467953 58.333332
-1.1639131 -1.4424367 1.25897 55.333332
-1.5699767 -1.1912841 1.2340372 10
-1.7949528 -0.3379654 1.333346 2
-1.4115403 0.13751712 1.2240367 1
-1.2373025 0.35632738 1.2177413 6
-1.1982453 0.40920711 1.2668345 49
-1.1107814 0.52224314 1.2707632 40.75
-0.9998368 0.66734326 1.2654312 46.5
-0.85946816 0.83512223 1.2959155 46
-0.79083532 0.92272311 1.255037 42
-0.74620998 0.99747407 1.3482057 1
-0.5200913 1.264241 1.2685089 2
-0.31019679 1.5965828 1.2725272 1
-0.2864053 1.5877608 1.2110893 2
3.456429 2.3269453 1.2948017 31
3.2514384 2.4845634 1.2951655 64
2.9976737 2.6770995 1.2306567 63
3.0733998 2.6208212 1.275517 66
2.8246017 2.8147717 1.3258526 65
2.9271457 2.739234 1.2632285 66
0.33232886 2.9661012 1.2768762 31.5
2.662776 2.9446547 1.2500303 64
2.7423561 2.8702087 1.2706382 63
2.5680666 3.0201581 1.2470368 68.5
2.2182508 3.2771459 1.2895517 76.5
2.3074415 3.2151444 1.2725827 74
5.6700025 3.2611988 1.3162032 91
2.0497506 3.4148664 1.3020866 75
1.8683965 3.5565856 1.2666881 75.5
1.9952269 3.4500875 1.2464411 62
1.7317464 3.6570177 1.3099707 77
0.43261194 -2.6876106 1.3635263 31
-0.32493263 -2.1040425 1.3899804 38
-0.22245936 -2.1790626 1.4475749 36
-0.81699103 -1.7331724 1.4554353 61.5
-1.0586082 -1.5422536 1.4153072 65
-1.2776107 -1.3813584 1.4026389 57.599998
-1.1481109 -1.4641424 1.3808613 57
-1.3648105 -1.3388529 1.3847265 52.5
-1.2181301 0.39274019 1.4393654 46
-1.1982538 0.4112269 1.3525 43
-1.1209085 0.52052647 1.422093 43.75
-0.98946601 0.67739159 1.3786122 42
-0.85869336 0.85098046 1.4490037 50.666668
-0.81261832 0.9246825 1.4184654 49
-0.74687707 0.98430413 1.361331 37
-0.4721204 1.2848275 1.3500744 2
3.3873854 2.3833351 1.4935819 69
3.2902248 2.4551425 1.36968 64
2.9814038 2.6837475 1.499614 58
3.1321232 2.5715561 1.4275999 65
2.7913537 2.8330836 1.3790628 63
2.9075813 2.7470827 1.4026264 61
0.34033507 2.9547493 1.3823743 34
2.6315532 2.9578876 1.4165802 65
2.7419305 2.8785472 1.4353988 65
2.3978095 3.142391 1.4039409 64
2.4648738 3.090122 1.4367578 63.400002
5.9306073 3.065037 1.4016666 7
2.1917751 3.2991371 1.4798847 68
2.3221409 3.201632 1.4914012 63.5
5.6389675 3.289067 1.4939712 96
5.7680554 3.1845679 1.3566184 7
2.0408006 3.4100544 1.4439205 77
2.1254139 3.3505464 1.4100792 77
5.4924355 3.4029627 1.4548984 87
1.8633039 3.5510206 1.4238284 73
1.6440779 3.7187855 1.4798732 74
1.7365255 3.6554313 1.3926753 72.75
-0.12889194 -2.2545569 1.5154788 28
-0.24422246 -2.1677053 1.5685424 38
2.5330155 -2.2255158 1.5678947 33.5
2.6369309 -2.1076317 1.5412408 49
-0.91488177 -1.6603075 1.5470098 69
-0.84518623 -1.7099749 1.5860631 57.799999
-0.99156618 -1.6091416 1.5753527 68
-1.2553723 -1.3900232 1.5963048 67
-1.1561996 -1.4693183 1.5030985 63
-1.3985751 -1.3238733 1.5485722 25.6
-0.83469045 -1.3114132 1.6497897 9
-1.0832423 -1.1289982 1.6432408 26
-1.4473394 -0.83829451 1.634015 12
-1.9513905 -0.36214522 1.6004921 5
-1.9117543 -0.3113699 1.5032176 5
-1.2288743 0.38900247 1.6124899 40
-1.1350673 0.50449818 1.5748419 43
-0.99306703 0.68534446 1.5650806 46
-0.92496103 0.77949178 1.6087825 43
-0.85895199 0.86410487 1.6064727 45.5
-0.79563689 0.95040381 1.5446863 30
-0.60684097 1.4155116 1.6326042 5
3.2136016 2.5098081 1.5490558 66
3.3632591 2.4027791 1.5039086 69
2.9754627 2.6922598 1.5180585 56
3.0587292 2.6262603 1.6104075 66.5
0.55570948 2.7861321 1.5272229 25
2.8273554 2.8001106 1.5991368 60.5
0.36647195 2.9430282 1.5769527 31
2.6237645 2.9630315 1.6062835 59
2.7440145 2.8707445 1.536113 58
6.066577 2.9500542 1.5742259 44
2.5092115 3.048099 1.5908771 64.5
2.5616667 3.0174661 1.5214574 59
5.8081536 3.1447115 1.5712678 82.5
2.2287223 3.2697196 1.5892549 65
2.3064983 3.2056787 1.609959 63
5.7640362 3.1765983 1.6432477 82
2.1410949 3.3344965 1.6436118 62
5.5330997 3.357044 1.5675646 83
1.1612034 3.5889187 1.5668023 2
1.2525996 3.5879254 1.6260158 7
1.9090272 3.5067968 1.5947154 76
1.9835761 3.4538486 1.5467857 63
1.3348367 3.6673155 1.6131514 19
1.6192219 3.7366242 1.5425115 74
1.702878 3.6713996 1.5882962 72
1.4486448 3.8052187 1.6326104 40
1.5530826 3.79129 1.560575 76
1.0267003 -2.7571075 1.7597619 5
0.5299207 -2.6413276 1.7959017 60.5
0.82997113 -2.5990763 1.7334267 7
0.29257601 -2.5053713 1.7871572 62
0.39105219 -2.4853833 1.7904092 56
0.48161757 -2.4681478 1.7962722 52
0.62757701 -2.4338286 1.7504482 19.333334
0.7834453 -2.5485544 1.7895068 30
0.11869527 -2.3576884 1.7800058 68
0.22338732 -2.3438456 1.7841336 66
0.36613783 -2.2975197 1.7935606 29
0.48273784 -2.3227799 1.7463428 14
-0.040435184 -2.2119319 1.7743067 66
0.072851554 -2.2056327 1.7789959 62
0.21534173 -2.1436229 1.7595135 21.666666
0.37559056 -2.2388256 1.7501844 21
-0.066758871 -2.0653453 1.7706755 62
0.084999047 -2.0139875 1.7493664 25
-0.66586459 -1.8373431 1.6893219 42
-0.18688619 -1.801796 1.7574242 37
-0.08443138 -1.8802155 1.7106115 22
-0.76458049 -1.7398468 1.7473286 70
-0.64648342 -1.7784979 1.7537335 79
-0.98439121 -1.5790234 1.689338 56.799999
-0.84001511 -1.5810409 1.7292768 61
-0.72648239 -1.6418446 1.7539154 79
-0.51120627 -1.5839834 1.7441862 28.5
-0.40168667 -1.6367065 1.7157005 30
-1.1024491 -1.470787 1.723214 64.666664
-1.0053216 -1.443899 1.7379736 76.75
-0.66408551 -1.4396658 1.7506919 46.5
-1.4368248 -1.2852428 1.7341737 50.5
-1.1185952 -1.3019979 1.7307897 83
-0.9383629 -1.2571836 1.7104595 38
-1.5376575 -1.0748318 1.727476 11
-1.2185287 -1.1521225 1.7238406 80
-1.1291625 -1.1027429 1.7128162 52
-1.0222346 -1.1500849 1.7008098 44
-1.5515049 -0.92519218 1.7225324 74.5
-1.4630401 -1.0228914 1.7269067 72
-1.2451096 -0.98433119 1.6898512 31
-1.1952564 -1.0321771 1.7281162 50
-1.5239793 -0.77475864 1.7048372 45
-1.6826349 -0.64091724 1.726236 43
-1.600894 -0.66125172 1.7933453 69.333336
-1.8936721 -0.47264311 1.7269168 29.5
-1.7292442 -0.51739925 1.7902122 73.75
-1.6298639 -0.45572457 1.7987334 81
-1.3546596 -0.46196958 1.7942029 67
-1.2870756 -0.49081206 1.7980412 68
-2.2125366 -0.42752209 1.7038206 10
-2.0033245 -0.30859065 1.7720522 11
-1.8705573 -0.30772021 1.7863585 14
-1.7039485 -0.35406029 1.7942369 66.25
-1.3588777 -0.317826 1.7985762 82
-1.2854905 -0.37157291 1.7993702 75
-2.1681356 -0.22260633 1.784021 16.5
-2.0706408 -0.24444467 1.7785591 11
-1.7260987 -0.25679949 1.7685047 29
-1.6199036 -0.16118309 1.766775 16
-1.3553034 -0.17463592 1.7989255 81
-1.8788742 -0.1330781 1.7114569 11
-1.7107042 -0.086359993 1.7691734 13.4
-1.5534511 -0.041723792 1.7742279 7
-1.3442698 -0.031728644 1.7972873 92
-1.9720581 0.022907624 1.7829334 15
-1.8425639 0.042637549 1.7810385 17.5
-1.7034388 0.094482385 1.7713891 19
-1.6042962 0.086852282 1.7734855 15.5
-1.4694767 0.069720283 1.7611814 11.5
-1.6994821 0.25308719 1.7721916 18
-1.5866287 0.23806474 1.7821485 15
-1.4267876 0.19798231 1.770187 14.5
-1.3043562 0.28261828 1.7565886 19
-1.562699 0.39041412 1.7881498 14.5
-1.4311434 0.35367051 1.7948619 11.666667
-1.2374902 0.36717689 1.7294332 26
-1.1678421 0.43862057 1.7648996 14
-1.6673764 0.45731586 1.7861301 17
-1.0860085 0.56159073 1.7305609 25.5
-1.0039146 0.66227394 1.7380013 26.5
-0.94090962 0.76181811 1.7288889 28
-0.86193407 0.8504492 1.7655096 18.5
-0.80829221 0.93718642 1.7218357 21.333334
-0.2959213 1.8343515 1.6946651 6
-0.028235871 2.2229826 1.7896048 7
0.36618227 2.8415015 1.7114929 0
2.9096842 2.7424765 1.6840186 66.5
6.274075 2.7676351 1.6853524 5
0.39399219 2.909013 1.7089944 23.333334
2.6551237 2.9372902 1.6872602 57
2.7578888 2.8533285 1.7647476 66
5.9822421 2.9990916 1.7026328 74
6.0175357 2.9784958 1.6629907 81
2.4513111 3.0968618 1.7322865 60
2.3703077 3.1586814 1.7245498 62.5
5.7207298 3.210515 1.7352358 78
2.0655859 3.3896468 1.7148396 64.666664
2.1527767 3.3224897 1.7444416 63.333332
5.4910836 3.3901093 1.7407508 78.333336
1.1803008 3.5555952 1.7503954 0
1.268651 3.5828898 1.778643 8
1.8341105 3.5648899 1.6912582 73
1.1641219 3.6648459 1.6762754 2
1.3758833 3.6961031 1.6605855 19
1.6904486 3.6813049 1.7614099 80
1.5443192 3.8026767 1.7739302 77.5
2.171114 -3.6352222 1.9340228 53
2.2571607 -3.6561649 1.9323035 52
2.445704 -3.7347491 1.9416562 26
1.9346211 -3.4500086 1.8914067 24
2.0287662 -3.5394211 1.9138291 29
1.8682185 -3.3748474 1.8859112 37
2.1050367 -3.3767483 1.9387673 50
2.2882948 -3.3436117 1.9476432 47
1.6031299 -3.1961448 1.8492656 30.333334
1.7839518 -3.2171969 1.9259592 49
1.9763715 -3.221925 1.936371 55
1.4962658 -3.0630615 1.9138519 51
1.6902071 -3.0987411 1.9267586 55
0.96476161 -2.9349124 1.809551 52.5
1.0737997 -2.9053614 1.8186041 14
1.232251 -2.9006517 1.8962237 41
1.4230047 -2.964402 1.9097298 55
1.8243134 -2.8586965 1.9351252 51
2.0440261 -2.8767033 1.9417409 48
2.1623764 -2.9183245 1.9433898 49.5
2.2673247 -2.9152048 1.9422487 46
2.5068169 -2.9277303 1.9487301 41
0.69513094 -2.8008652 1.8003064 63
0.814955 -2.7577701 1.8013018 51.5
0.99121362 -2.7136703 1.8292726 32
1.1804467 -2.8297739 1.8947722 69
1.546797 -2.7039409 1.9204174 49
1.7303363 -2.7464151 1.9292676 47.25
1.8869606 -2.7865446 1.9337667 48
1.988645 -2.7968779 1.9375296 47
2.1545918 -2.8023267 1.9427253 46
2.303375 -2.7352271 1.9461554 48
0.6586051 -2.6068847 1.8002669 56
0.95385987 -2.6879854 1.871132 44
1.2876989 -2.565505 1.9083867 58.333332
1.4653207 -2.6334324 1.912943 49.666668
1.5798281 -2.6547012 1.9192964 47.333332
1.7232594 -2.6025424 1.9307266 54
1.857033 -2.6165342 1.9336554 47.5
2.0664525 -2.6452909 1.9392236 47.5
2.1657927 -2.6993082 1.9438199 47
2.306035 -2.6220016 1.9479632 45
2.5066931 -2.5886843 1.9462072 41
2.7582402 -2.5938489 1.9489468 34
0.73860782 -2.526381 1.8315524 35
0.76548988 -2.5441206 1.8215331 30
1.0023842 -2.4759254 1.8915201 57
1.0988683 -2.4372797 1.9011924 59.5
1.2549264 -2.4970405 1.9048693 51.25
1.4299867 -2.4680843 1.9264586 32.799999
1.5835975 -2.4786453 1.9146119 48
1.722683 -2.4989343 1.9233159 47
1.8393064 -2.5400391 1.9300321 45
2.0238881 -2.5423563 1.9388889 49
0.43715751 -2.280664 1.8025485 27
0.56289804 -2.3873243 1.8024775 30.5
0.62592554 -2.2790122 1.8811265 61
0.83816177 -2.365654 1.8883007 53.5
0.95710027 -2.3162432 1.8985729 59.599998
1.1277871 -2.3510821 1.9014446 53.666668
1.2404982 -2.328943 1.9106965 53
1.3614423 -2.3715529 1.9077018 39
0.28035504 -2.163156 1.8212723 31.5
0.30844063 -2.1821797 1.8188206 32
0.49182186 -2.1521163 1.8708024 61
0.67522126 -2.1491945 1.8866812 62.333332
0.82839334 -2.190906 1.8935248 59.5
0.97633934 -2.1968691 1.901203 56.666668
1.072407 -2.2345419 1.9067856 57.5
0.079399765 -2.0128081 1.831118 47
0.19851856 -2.0395291 1.862568 69.75
0.38147151 -2.0322073 1.868332 60
0.51686305 -2.0058935 1.8770391 66.14286
0.68246162 -2.0536473 1.8853129 65
0.76083881 -2.0160658 1.8884658 56
-0.084913269 -1.8514564 1.8402048 73.800003
0.050229341 -1.8973287 1.8622601 74.400002
0.24196963 -1.859108 1.8637662 70.666664
0.38560688 -1.8932202 1.8705124 69.5
0.52700937 -1.8719184 1.8801837 66
0.6358425 -1.9311402 1.9124852 25
-0.20831849 -1.7039367 1.841993 77
-0.077771515 -1.7570913 1.8525349 79
0.091350295 -1.708348 1.8585342 71.400002
0.22821614 -1.7281502 1.864894 74.444443
0.35024416 -1.7309011 1.8701891 76.333336
-0.46079981 -1.5016167 1.8340625 77
-0.34367174 -1.5826875 1.8432584 65.75
-0.24450001 -1.5817575 1.8508271 55
-0.059395015 -1.573909 1.8503921 84
0.077356219 -1.5669938 1.8596164 77.285713
0.2623598 -1.6092663 1.867148 81.5
-0.55057478 -1.4048644 1.8340281 81
-0.37489754 -1.4354951 1.8424336 58.857143
-0.21237215 -1.4206114 1.8518162 29.200001
-0.08109495 -1.4293375 1.8567458 55
0.049378984 -1.4334466 1.8581282 78
0.19454418 -1.4969878 1.8674647 99
-0.79725635 -1.2857071 1.8267971 85
-0.65248555 -1.2672446 1.835276 80.75
-0.49351937 -1.2814028 1.8405381 76.25
-0.36966082 -1.2604625 1.8488652 70.199997
-0.23714828 -1.2927822 1.8522764 40.333332
-0.077666946 -1.2757715 1.8608114 34.666668
0.03731383 -1.3055425 1.8610169 74
-1.1246063 -1.0662174 1.8166676 92
-0.9928177 -1.15745 1.8180875 87
-0.83043337 -1.1173248 1.8271978 87
-0.64759302 -1.1282538 1.8385895 87.666664
-0.52465349 -1.1266117 1.8397106 74.428574
-0.38522634 -1.1281784 1.8411703 56.125
-0.22975798 -1.1261218 1.8458997 51.625
-0.089676455 -1.1231477 1.8560065 18
-1.2698374 -0.93348312 1.8110009 89
-1.1493746 -0.92007488 1.8168411 91
-0.98285365 -1.0211456 1.8212638 86
-0.81075823 -0.93677938 1.824126 86
-0.67645669 -0.98976499 1.826671 78.5
-0.54023516 -0.96811289 1.8325815 65.14286
-0.37850806 -0.97015911 1.8360907 51.5
-0.24958169 -0.96636468 1.8390352 44
-0.14520715 -1.0289973 1.8428437 39
-1.3543493 -0.85585684 1.8123246 80
-1.2613575 -0.78755403 1.8119949 93.800003
-1.1437058 -0.77921021 1.8188081 95.5
-0.97093093 -0.87265408 1.80942 78
-0.81533051 -0.80915338 1.8233486 82.199997
-0.66811413 -0.82121807 1.827531 80.375
-0.52326745 -0.83192337 1.8321782 68.714287
-0.39085478 -0.83469117 1.836568 59.285713
-0.25726777 -0.81563222 1.8390772 50
-1.5816314 -0.65098882 1.801562 77
-1.372297 -0.6544205 1.8091732 87.5
-1.2620043 -0.65283704 1.8062264 84
-1.1243844 -0.63405746 1.811339 70.333336
-0.9765349 -0.7247746 1.81596 78
-0.81025183 -0.66468239 1.820701 76
-0.6638267 -0.67718059 1.827193 80.125
-0.51513559 -0.66418093 1.8280965 78.833336
-0.37829384 -0.68808299 1.8346483 67.833336
-1.6054688 -0.48668292 1.8034638 73
-1.4186655 -0.54238439 1.8086401 83
-1.2754616 -0.52215171 1.8064122 75.666664
-1.1430404 -0.50440222 1.8075148 73
-0.94688767 -0.50882816 1.8163635 73.75
-0.8268078 -0.53749931 1.8167444 77.199997
-0.669572 -0.52786356 1.8242186 83.090912
-0.5260362 -0.53338474 1.8303796 80
-0.41021827 -0.52651143 1.8335234 73.333336
-1.5992115 -0.33556056 1.8038468 78.5
-1.4011309 -0.3868106 1.806958 83.5
-1.2173052 -0.39075026 1.8093122 74
-1.1343923 -0.36600819 1.8096784 76
-0.96284527 -0.36441004 1.8131814 81.333336
-0.80984747 -0.36893889 1.8177601 75.699997
-0.68724424 -0.37793332 1.824357 80.571426
-0.52847922 -0.36559391 1.8320597 82
-0.40533024 -0.40698689 1.8354484 76.5
-1.5594168 -0.20662673 1.8063935 92
-1.4174635 -0.23803625 1.8082371 97.5
-1.2593336 -0.25027999 1.8045943 77.75
-1.138377 -0.23870835 1.8099899 80.5
-0.97902048 -0.22580042 1.8113755 80.75
-0.82443142 -0.22075848 1.8172809 76.714287
-0.68606883 -0.23578279 1.8258437 77.85714
-0.5641861 -0.22311015 1.829475 77.5
-0.44024253 -0.2467986 1.8338249 76
-1.4268857 -0.089562483 1.8063849 98.5
-1.2610732 -0.099917673 1.8072265 80.800003
-1.1339256 -0.084332637 1.8088851 80.333336
-0.99344331 -0.064495087 1.8131527 83.75
-0.83755618 -0.085529767 1.8178755 80.5
-0.6696099 -0.07029409 1.825518 79.400002
-0.50211471 -0.087312266 1.8306229 76.199997
-1.3954213 0.045560692 1.8066689 104
-1.2959036 0.07076782 1.8069559 83.75
-1.1337659 0.059361465 1.8078518 83.599998
-0.95520216 0.085917793 1.8115484 84.333336
-0.84057552 0.075430974 1.8175051 81.300003
-0.68605912 0.071456484 1.8246787 78.125
-0.52202553 0.071371898 1.8289992 84
-1.46173 0.22393507 1.8021342 18
-1.2859037 0.2062858 1.8048857 61.25
-1.1067272 0.19838075 1.8112825 82
-0.9631812 0.2357057 1.8121338 80.199997
-0.83039111 0.22638255 1.8162044 79.5
-0.66719365 0.21002455 1.8252044 77.888885
-0.50481147 0.23223487 1.8308728 78.199997
-1.2176701 0.31595981 1.8078331 72
-1.1025308 0.33729658 1.8125201 77
-0.99510622 0.39061731 1.8143021 80.199997
-0.81358242 0.3712272 1.8164244 79
-0.66510832 0.37181544 1.8226267 76.599998
-0.52362895 0.38647446 1.8312955 78
-1.0983188 0.4746291 1.8077296 57.5
-0.97132766 0.54494721 1.8152542 76.599998
-0.81408393 0.52163249 1.817928 72.75
-0.67401958 0.52368349 1.8216621 74
-0.53713292 0.54157352 1.8282181 82.400002
-0.44010788 0.50286853 1.827585 85
-0.92797965 0.69351202 1.814146 62
-0.82822406 0.6790154 1.8169699 77
-0.66750425 0.6769762 1.8219894 75.5
-0.54038858 0.691127 1.8284925 72
-0.41032618 0.67209607 1.8315074 79.25
-0.90506029 0.77196687 1.8061031 2
-0.81551367 0.82327098 1.8194484 58.5
-0.68461782 0.79937243 1.8276746 58.5
-0.49848762 0.79633951 1.8323823 75.333336
-0.3608923 0.8376798 1.8364078 71.666664
-0.31502628 0.95797855 1.8431848 74.5
-0.28079033 1.0333718 1.8463234 80
-0.23605573 1.1345406 1.8480248 74.666664
-0.32703716 1.2984856 1.8417493 74.5
-0.21922752 1.2646945 1.8466222 71.599998
-0.36800495 1.3987858 1.8357178 57.125
-0.25380912 1.4388114 1.8422531 71.666664
-0.090369523 1.4361159 1.8498079 73.833336
-0.60882342 1.5274472 1.8173651 12
-0.36367705 1.5581235 1.8236111 6.25
-0.20615298 1.5837846 1.8354274 64.875
-0.063780919 1.6009277 1.8462634 76
0.048836168 1.5936533 1.8477508 68
-0.3504447 1.7559398 1.8347403 10
-0.20181353 1.7237753 1.8266004 19.4
-0.1027981 1.7297456 1.843624 74
0.067767181 1.7254165 1.8484774 72.333336
0.15039624 1.7163144 1.8469511 74
-0.24281399 1.896808 1.8392709 8.333333
-0.062363267 1.8645409 1.8331474 36.333332
0.080839567 1.853925 1.8491784 66.25
0.21923582 1.8848652 1.8538274 67.333336
-0.37846607 1.9934053 1.8256378 5.5
-0.15342411 2.0530872 1.8246139 7
-0.083460651 2.0035565 1.8293399 11.666667
0.087877855 2.0043967 1.8463824 55.400002
0.27202123 2.0295897 1.8546748 64.5
0.37954438 2.0184209 1.8582685 60.599998
0.48780072 2.0910096 1.8600661 58.5
-0.32082456 2.1813223 1.8397263 7
-0.22817089 2.1678824 1.8358573 6.5
-0.014675396 2.2154903 1.8433722 7
0.018160235 2.1976674 1.8437072 0
0.20279069 2.1671681 1.8500696 53.599998
0.41558242 2.1658313 1.8618275 66.666664
0.54037178 2.1950076 1.8655587 60.5
0.63658804 2.234252 1.8721932 62
-0.18923779 2.323575 1.8402416 7
-0.057051156 2.3734407 1.8527652 7
0.13832198 2.359257 1.8439862 57
0.20915931 2.3171265 1.8551966 34
0.35723779 2.3316314 1.856449 62.5
0.51359665 2.3564501 1.8616604 59
0.682648 2.3104184 1.8698345 57.799999
0.79422396 2.3796585 1.8748502 60
-0.16992398 2.4041045 1.8491725 8
-0.074512064 2.4817374 1.8457028 7.5999999
0.32320577 2.531352 1.8653723 29.5
0.51636785 2.4837856 1.8623641 59
0.68310225 2.4890876 1.8680124 59
0.86520129 2.4362056 1.875473 57.333332
0.96874744 2.5070887 1.8756056 56.833332
1.0500189 2.549139 1.875585 52
-0.060077049 2.5827732 1.8425838 8
0.071577765 2.6488757 1.8447022 5
0.32137531 2.6350596 1.8639568 52
0.54190707 2.5624771 1.8587767 43
0.67234439 2.615835 1.8634998 59
0.77311164 2.6627362 1.8658532 63
1.1374264 2.6041594 1.8821424 52.400002
1.2652113 2.6822817 1.8844067 50.599998
1.3889049 2.6917667 1.8939136 48
0.054802071 2.7830029 1.8423737 9
0.25491577 2.8330979 1.8579965 34
0.31020683 2.7235022 1.8554553 55
0.51548457 2.7885315 1.8478571 40
0.69010997 2.7592702 1.8606108 59
0.82347775 2.7481244 1.8673878 57
0.94968414 2.786201 1.8745604 54
1.4143454 2.7803173 1.8944279 51.666668
1.5700171 2.8132892 1.9022961 49.599998
0.25314522 2.8684487 1.8461862 48
0.33789563 2.9497774 1.8405693 2
0.72377282 2.8847473 1.869274 6
0.88744348 2.8609943 1.8663591 50
0.98563951 2.9219389 1.8712407 53.333332
1.0980331 2.9377623 1.87816 51.666668
1.2114342 2.9393289 1.8898066 50
1.4466906 2.8519533 1.8929132 52
1.7327609 2.9383624 1.9032328 47
1.8531033 2.898102 1.9119326 50.333332
2.1387479 2.9671659 1.9218867 46
2.6134634 2.9690433 1.8619626 65.5
6.1272659 2.8957314 1.9129552 62.5
0.96469635 3.0954053 1.8863617 59
1.1548467 3.0683174 1.882866 53
1.2904768 3.0864727 1.8817199 49
1.4296299 3.0809422 1.8970917 49.5
1.7199459 3.0176857 1.9011651 50
1.9349439 3.1009803 1.9116133 49
2.0545263 3.046845 1.9148294 48
2.381547 3.1152484 1.9311376 54.5
2.4824321 3.0292516 1.8761346 54.5
5.8444152 3.1056581 1.9292132 74
1.0082777 3.2123637 1.8836132 47
1.2927035 3.1605914 1.8886474 49
1.4420967 3.2161434 1.8896885 51.666668
1.5711302 3.266793 1.888163 50
1.7035627 3.2245903 1.9066715 51.5
2.0236788 3.1840897 1.9073237 50
2.2282362 3.2636352 1.8675748 65.5
2.3089094 3.2018311 1.8822595 61.666668
1.2681146 3.3738356 1.8969668 52
1.6155434 3.3458548 1.8960553 51.5
1.7356504 3.3757639 1.8999857 52.666668
1.8747659 3.4389591 1.8993524 54
2.0089633 3.4016249 1.8738017 61
5.4711537 3.4068351 1.8203648 72
0.97868997 3.5386806 1.8757826 47
1.0543181 3.5507426 1.8790392 58
1.3737208 3.5622137 1.8975343 54
1.5462519 3.5441501 1.9088053 56
1.9209279 3.5071242 1.8728402 74.5
1.9706826 3.4630303 1.9002172 70
1.4489876 3.7133925 1.9023529 60
1.6351652 3.6666815 1.9063932 61
1.7344763 3.6477442 1.830186 78
1.155924 3.7947321 1.8614346 48
1.2189814 3.9000752 1.868642 46
1.6032348 4.9436188 1.8993288 35
1.7305412 5.1876512 1.8973144 36
1.8751624 5.4525828 1.8989412 26
2.0293365 5.9670157 1.9142493 31
1.947402 6.0745997 1.8973058 39
2.2832978 -3.5864615 1.9547533 46
2.4664085 -3.5415547 1.9538909 42
2.636215 -3.4685543 1.9638129 41
2.4853387 -3.1665187 1.9587775 45
2.7690144 -3.2215528 1.9686176 44
2.1689217 -3.0532782 1.9787933 13
2.4151435 -3.0862079 1.9534315 45
2.6495705 -3.0809045 1.9679981 43.5
2.9347386 -3.0658202 1.9689018 30
2.3147159 -2.9662995 1.9514799 47.5
2.4429269 -2.883049 1.9509817 45
2.5924535 -2.9781389 1.9597878 41.5
2.785387 -2.9343503 1.9658378 38.666668
2.2809327 -2.8420758 1.9500324 47
2.4568648 -2.784265 1.9546856 46
2.5962491 -2.7452927 1.9543451 43
2.8901446 -2.7859364 1.965758 38
5.4640479 2.7846856 2.0532246 30
4.7809367 2.9804764 2.0208709 27
5.0852914 2.9261148 2.0330768 29
5.1244464 2.8731899 2.0336883 28
4.7434459 3.0238669 2.0288157 26
5.8436189 3.1023574 1.990718 81
5.5505381 3.2892847 2.0400164 48
5.5801601 3.3065112 1.9970967 71
