# .PCD v0.7 - Point Cloud Data file format
VERSION 0.7
FIELDS x y z intensity
SIZE 4 4 4 4
TYPE F F F F
COUNT 1 1 1 1
WIDTH 112
HEIGHT 1
VIEWPOINT 0 0 0 1 0 0 0
POINTS 112
DATA ascii
1.17103 -2.8503404 -0.76537222 5
1.3152773 -2.8195794 -0.75728929 9
0.87202984 -2.4262638 -0.78614128 4
1.0857478 -2.3800161 -0.76131833 0
1.3020716 -2.2545269 -0.76508892 7
1.3180993 1.7862054 -0.77586287 6
1.7278178 1.7400175 -0.76989049 5
1.3267347 1.8556529 -0.77449208 6
1.4133956 1.8339723 -0.77759367 5
1.3487234 2.054038 -0.77998084 11
1.4097632 2.0171847 -0.7754631 8
2.0716352 2.0275242 -0.75691211 4
0.80828089 2.1773052 -0.78127611 14
1.1051997 2.1295152 -0.79107833 12
1.4658012 2.1565287 -0.76998305 12
0.24536388 2.2892895 -0.78475505 8.333333
0.42877004 2.284616 -0.801534 12.5
0.52291965 2.3099444 -0.79517889 11
0.83792824 2.3349254 -0.78707522 13
1.3129596 2.3595819 -0.78523469 9
1.5533216 2.2923634 -0.77124798 9
2.009795 2.2678156 -0.76346254 7
0.32814026 2.5250013 -0.78498042 5
0.59145939 2.458204 -0.78233945 6
0.82663721 2.5055282 -0.78284097 10
0.97845441 2.5072227 -0.78769064 13
1.5703828 2.4825082 -0.76683104 9.5
0.39758649 2.6010265 -0.77891332 3.6666667
1.5567846 2.6368542 -0.7742784 10
0.41298601 2.8189366 -0.77613437 1.5
0.83558595 2.7511539 -0.78869677 4
1.297616 2.8023214 -0.78612667 5
1.6957455 2.7899833 -0.75909245 8
0.96105105 2.9584677 -0.78424495 4
0.95419973 3.0489855 -0.79471087 5
1.8699855 3.0588107 -0.76802254 25.5
1.0136946 3.1764894 -0.78036398 5
1.5864811 3.1731126 -0.78336215 5
1.1379962 3.3099349 -0.78717375 6
1.6792486 -2.8681476 -0.74625832 8
2.9884522 -0.7605083 -0.69798428 7
3.5669849 -0.88086206 -0.68497646 7
3.6267784 -0.82571536 -0.66539687 5
2.4788382 -0.64632607 -0.72029436 6
2.981194 -0.70539129 -0.7033571 7
3.4761713 -0.63558233 -0.68794203 6
2.519331 -0.58609366 -0.71794772 5
2.898659 -0.48709595 -0.70391047 4
3.593658 -0.58252859 -0.67604434 7
2.4592891 -0.39586359 -0.72343826 3.5
1.4968783 1.339215 -0.63384396 77
1.5848632 1.2806474 -0.65263915 71.333336
1.6719841 1.2104208 -0.66981685 20
-0.0052310703 1.8637388 -0.64127588 20
0.03430859 1.9132754 -0.64008933 14.333333
2.625952 2.493088 -0.67864418 71.333336
2.7181003 2.469137 -0.70093012 92
0.44271559 2.5807588 -0.73881114 5
0.4586851 2.5742188 -0.67989457 43
2.4710162 2.6431437 -0.66550446 102.33334
2.5728116 2.5560799 -0.62526846 101
0.58055532 2.7510448 -0.66810542 4
0.67138481 2.7379234 -0.64009029 9
2.2355547 2.8372364 -0.71672165 115
2.2523265 2.8054647 -0.62479949 116
0.36572468 2.9967458 -0.68188596 27
1.7174234 3.2211177 -0.68559587 127.6
1.8253274 3.1654186 -0.73644227 150
1.4552541 3.4095662 -0.65985262 128
1.5609385 3.3271499 -0.60957831 124
1.4025047 3.4791808 -0.72489816 142
0.61533421 -1.4985503 -0.54963386 3
1.6147406 -0.21671495 -0.51756132 38.200001
1.4737399 -0.1059386 -0.4963448 41.5
1.7126145 1.192063 -0.50806993 18
1.519539 1.3246194 -0.57515085 81.666664
1.4747897 1.3686509 -0.56721956 21
-0.22807086 1.5859107 -0.46355075 23.142857
-0.15906519 1.6806911 -0.5460251 18
-0.10875496 1.7408202 -0.53496855 17.444445
-0.041190002 1.8293101 -0.48765579 15.6
0.060435694 1.9446452 -0.59491283 12
0.074332222 1.9731157 -0.55624592 6
0.42668661 2.5709093 -0.48797762 55
0.47679988 2.5807688 -0.53374726 38.666668
2.3854136 2.6980412 -0.50930756 120
2.4744275 2.6272702 -0.55124038 109.33334
0.69325888 2.7142491 -0.59576297 0
2.3068011 2.7580595 -0.49544224 121
0.41015053 2.942687 -0.55347317 47.333332
2.0509405 2.9535737 -0.54506922 126
1.8473785 3.1050377 -0.45215923 130
1.6364826 3.2978189 -0.59476691 150
1.5375299 3.3600671 -0.56021684 138.33333
1.2890459 3.5112271 -0.48784691 58
1.4241347 3.4813008 -0.467821 138.5
1.518248 3.4584024 -0.50309813 151
1.2670314 3.7693014 -0.58383542 150
0.50337666 -1.172929 -0.41504624 12
1.4880855 -0.12612204 -0.4496105 40
1.6895112 1.1966571 -0.43220484 17
1.5782177 1.2777441 -0.44847494 73
-0.22292708 1.5947237 -0.42712757 19.333334
-0.17268996 1.6675968 -0.41651478 17.666666
-0.075260118 1.7974728 -0.44809622 16
0.025004786 1.9331368 -0.41840503 11
0.079509184 1.9710686 -0.40239319 4
2.2780619 2.775826 -0.43563509 118.5
0.38372618 2.9396753 -0.44735557 69
2.0939438 2.9137704 -0.42188379 123
1.3325692 3.5030985 -0.41527331 119
1.4102043 3.5077486 -0.41064435 150
