# .PCD v0.7 - Point Cloud Data file format
VERSION 0.7
FIELDS x y z intensity
SIZE 4 4 4 4
TYPE F F F F
COUNT 1 1 1 1
WIDTH 1092
HEIGHT 1
VIEWPOINT 0 0 0 1 0 0 0
POINTS 1092
DATA ascii
0.14516385 -1.4673167 -0.15109605 0
-0.076408252 -1.030706 -0.17332697 3
-0.16600734 -0.80231678 -0.18207206 3
-0.11928201 -0.83954632 -0.16320513 9.5
-0.5397051 -0.61635572 -0.17169206 9
-0.22400503 -0.67185545 -0.16999879 3.75
-0.46462315 -0.57664281 -0.16743574 7.1999998
-0.38199967 -0.54240447 -0.1671536 7.7272725
-0.26116657 -0.59324992 -0.16708943 5
0.092768759 -0.31681269 -0.17072862 1.6363636
0.49576217 -0.31437793 -0.16639282 8
0.11989806 -0.28909269 -0.18435879 1.6666666
0.15367801 -0.2889781 -0.16698429 1
0.43480101 -0.1847586 -0.17027888 9.181818
0.4680078 -0.25843158 -0.17410482 9.2857141
0.43539056 -0.14402442 -0.16483875 8.333333
0.51489931 -0.10559827 -0.17424321 5.3000002
0.66454893 -0.034148064 -0.18092245 5.6666665
0.74540013 0.00024030474 -0.17878076 4
0.79982001 0.01509532 -0.15005709 3
1.6105527 0.069184974 -0.18538685 14
1.5288491 0.2138596 -0.18742773 74
3.0161963 0.88093799 -0.17230697 104
-0.67441964 0.99166805 -0.17269751 5
-0.56420892 1.0370729 -0.17828715 6.3333335
-0.50642037 1.0605028 -0.18279938 4.75
-0.38143739 1.1195092 -0.17814179 2.8333333
-0.26866525 1.1806043 -0.18917255 5.6666665
-0.19062917 1.2154474 -0.16454652 6
-0.081998721 1.2734874 -0.17028663 5.5999999
0.07505399 1.3415048 -0.18325981 6.5
2.8565664 1.2008449 -0.19565658 115
0.12773289 1.3688123 -0.16106215 6
0.41545784 1.4914784 -0.16440807 23
2.7858286 1.3596911 -0.15471657 111
0.49979097 1.5311973 -0.17307565 13.5
2.6506765 1.6373382 -0.17556833 106
0.95765752 1.7818553 -0.1565675 68
1.0947288 1.7269553 -0.17179079 64
0.81477183 1.891876 -0.17760491 63.5
2.5024152 1.9489107 -0.16115694 72
2.5552506 1.845304 -0.18896687 108
2.424557 2.1205771 -0.19048266 92
2.346 2.2725635 -0.15433653 70
0.85211164 -3.3674941 -0.03664628 9
-0.03223129 -1.0904393 -0.1282033 0
-0.16207021 -0.79837853 -0.11563478 4.6666665
-0.12948693 -0.81490582 -0.11034361 11
-0.65043312 -0.66804641 -0.089897819 7.3636365
-0.56194013 -0.62362593 -0.1043992 9.8571424
-0.20182668 -0.68466365 -0.089867666 4.1428571
-0.47626662 -0.57819092 -0.085714005 8.666667
-0.37416682 -0.53318232 -0.10380268 8
-0.25007927 -0.51904917 -0.091865562 5.9411764
-0.015332806 -0.37390214 -0.12459169 2
0.085185595 -0.32082066 -0.12871964 1.4285715
0.48848957 -0.32690039 -0.11070254 7.2222223
0.12485898 -0.29412898 -0.13368891 1.75
0.41462457 -0.24258147 -0.11412207 6.1111112
0.47085738 -0.26681846 -0.12172994 9.416667
0.43457747 -0.14961047 -0.14222901 10
0.53874695 -0.093158044 -0.13264322 5.1428571
0.67099833 -0.030686943 -0.12340149 5.8333335
0.73976225 0.00038123014 -0.094572909 8
0.81552941 0.041041497 -0.092986643 2.25
0.96692282 0.070115194 -0.11143603 1.1428572
1.1437266 0.1153148 -0.11476084 10.5
1.3208418 0.090410113 -0.11257097 15.333333
1.4459361 0.058495406 -0.1134235 1
1.5737839 0.11925857 -0.13387308 60
1.1062589 0.17863339 -0.092471145 0
1.2762003 0.21703601 -0.11190925 11.6
1.41625 0.15035154 -0.11605755 27
1.5200018 0.23789348 -0.1401244 65.333336
-0.77542782 0.32492998 -0.045378279 0
1.4144187 0.31140828 -0.11257546 25
-0.79740089 0.56864649 -0.042432547 0
-0.74681211 0.59049702 -0.077556811 0
-0.76557541 0.61396724 -0.020197904 0
-0.72584832 0.64909863 -0.068164438 0
3.095511 0.82620621 -0.10783549 121
3.3895202 0.77100617 -0.0096377777 9
-0.78636003 0.93846279 -0.068312287 5.0625
-0.67245036 0.99311733 -0.074834876 5.5416665
-0.56517428 1.0428194 -0.10701908 5.2857141
2.9562268 0.98504835 -0.1213376 78
3.1078339 1.0370066 -0.038412277 35
-0.50468475 1.0725716 -0.05790868 5.7272725
-0.3775408 1.1243874 -0.095491365 3.9230769
-0.26761213 1.1862291 -0.051329281 5.7142859
2.9286635 1.0569732 -0.14054599 88
-0.19753876 1.2189823 -0.070681192 5.5714288
-0.079818994 1.2725552 -0.092056707 4.8888888
0.050769564 1.3328077 -0.062409375 4.6666665
2.9496417 1.2689843 -0.092542209 155
3.0204697 1.2164439 -0.072904952 154
0.12275641 1.366148 -0.023362983 12
0.22774285 1.4092866 -0.069277748 18
0.35763773 1.4637107 -0.10198461 21.4
3.1520429 1.4932145 -0.005512421 106
0.43854076 1.5099193 -0.08757212 21.5
0.50492996 1.519838 -0.084549017 13.25
2.7818892 1.5513905 -0.10346244 151
3.125129 1.5630219 -0.019871032 98
0.97917563 1.7682946 -0.11410473 82
1.1888386 1.7673044 -0.022309428 28
0.84579319 1.8253866 -0.093007267 67.333336
2.6584134 1.8586227 -0.10785971 153
2.9729893 1.8645463 -0.024607485 95
2.4686625 2.0232079 -0.13283914 70
2.65083 2.082057 -0.03069151 66
2.3855412 2.1929028 -0.14522369 76
2.4772496 2.1631815 -0.10324849 73.5
2.3300903 2.35427 -0.077702455 20
2.4774523 2.3490949 -0.051134516 61.5
2.2567616 2.4542484 -0.059824888 16
0.81196028 -3.3766913 0.09084224 5
-1.0587436 -0.74571657 0.12852079 0
-0.94419098 -0.6990509 0.089223213 0
-0.87958938 -0.68331873 0.095200188 0
-0.922849 0.3167392 0.10758074 0
-0.81759393 0.3773393 0.10796311 0
-0.79840833 0.55678618 0.072008178 0.047619049
-0.72579908 0.48818842 0.11070735 3.6666667
-0.75517178 0.61186379 0.064375602 0
-0.74065143 0.648619 0.080786631 0
3.4182496 0.85804367 0.10558718 54.5
-0.79663885 0.93721068 0.069073603 6.1999998
-0.67375803 0.99712574 0.070452988 5.647059
-0.5850327 1.0332378 0.058137536 6.3333335
3.0818126 0.98175412 0.13761461 32
3.3581777 0.99938822 0.050179951 120.5
-0.4995774 1.0800414 0.08208558 6.5555553
-0.35214874 1.148675 0.067606926 4.4285712
-0.27299884 1.1866196 0.089883201 4.6666665
3.0991304 1.1021651 0.031869318 31
3.2136898 1.1866734 0.099645846 134
-0.19738638 1.2214566 0.10725127 3.75
-0.08064539 1.2732501 0.081235699 3
0.047608912 1.330955 0.068417348 8.333333
3.2492123 1.2950116 0.015571411 105
0.11968539 1.368713 0.056734174 7
0.20658004 1.4050545 0.043350294 8.666667
0.32613218 1.4480429 0.014085943 22.5
3.1941929 1.4084568 0.098295487 98.333336
0.50067961 1.5419241 0.13484234 5
3.1345105 1.5352581 0.14406067 98
0.98711985 1.7582848 0.075149618 68.714287
1.1130861 1.7438513 0.018261557 63.666668
3.0589943 1.6973606 0.070056908 97.666664
0.89998752 1.8281991 0.12837744 55
0.92471999 1.8073248 0.10021027 68
1.2010576 1.8117348 0.095005862 150
1.4026097 1.9333304 0.0013136816 2
2.9598522 1.9015496 0.12087242 91
2.8325024 2.0003009 0.033434268 51
2.5425413 2.2396266 0.046615239 59
2.8135226 2.2157187 0.11325937 111
2.2649851 2.3678849 0.0051665856 4
2.4157305 2.3795311 0.073599219 38
1.1381779 2.5128486 0.12666792 6
2.2474229 2.4763935 0.026283139 5
-1.2897078 -0.82464975 0.20221654 6
-1.1436239 -0.75148982 0.19812489 0
-1.0860918 -0.72093481 0.18825771 0
-0.95238543 -0.69192064 0.17339186 0
-0.88069588 -0.6873095 0.1679396 0
-0.94520569 0.34787703 0.18018904 0.25
-0.81703985 0.41311544 0.17013344 0
-0.81876248 0.54659343 0.28825668 0
-0.7063235 0.56907445 0.19777152 3.2
-0.76599371 0.61943376 0.23042393 0
-0.6970675 0.67313212 0.22312728 3.7
-0.84121174 0.89631009 0.1890333 6
-0.6625309 0.75051689 0.26077592 4
3.4776733 0.8117699 0.23653875 79.333336
-0.8033098 0.93660325 0.20589712 7
-0.66595119 1.0023872 0.2280656 6.3846154
-0.58471078 1.0445489 0.19440702 6.5
3.046083 1.0245188 0.15813947 45
3.3909743 0.97686553 0.21729119 102.66666
-0.51309764 1.0738832 0.21744555 6.4545455
-0.32822496 1.1664217 0.23534493 4
-0.26622209 1.192082 0.22665465 4
3.2864213 1.1487422 0.24050951 36
-0.19646335 1.2266266 0.21787834 2.8
-0.075408898 1.2776601 0.19528165 9.6000004
0.050756868 1.3429456 0.25302649 7
3.2536409 1.2666005 0.25094205 98.25
0.11579351 1.3710974 0.25527483 8.1999998
0.24238868 1.4251981 0.23708111 10.333333
0.35249612 1.4758328 0.20485711 12.5
3.1820903 1.4394822 0.24954346 88
0.42461774 1.513551 0.23825055 12
0.4787699 1.5319909 0.19601826 8.333333
3.1043808 1.5974728 0.25551596 89.333336
1.0298632 1.7540909 0.18824142 51
1.0794716 1.7771895 0.24494976 47
1.2369975 1.7934266 0.20996755 23
3.0428119 1.7319427 0.21780336 91.5
0.89480346 1.8969575 0.16292185 54
0.92378992 1.8420922 0.21587814 54.333332
2.9701948 1.8879777 0.24480285 90.333336
0.83475155 1.9653327 0.24559847 17.5
0.90542942 1.9946243 0.20317382 114
1.374639 1.9944862 0.20455766 33
2.9003329 2.0453258 0.22678217 94.5
2.5173306 2.2226486 0.15598977 46
2.6656704 2.2112558 0.26654863 83
2.8692465 2.1166065 0.19739175 95
2.4469185 2.397747 0.24092889 51
3.8126242 4.133728 0.24376762 4.5
-1.2296925 -1.464784 0.35390499 1
-1.0996636 -1.3975523 0.37649965 1
-1.0248131 -1.3650733 0.35555634 1
-0.91749811 -1.3095109 0.37130523 1
-0.81781548 -1.2653922 0.38014305 1
-0.71822435 -1.2347564 0.35283577 1
-1.1295592 -0.68980455 0.38697836 0
-0.99060398 -0.65460533 0.40362191 0
-1.0909109 -0.59941417 0.38905972 0
-1.5197465 -0.079110257 0.37349004 152
-1.5800517 0.5612179 0.38086644 4.5
-1.0864441 0.53608096 0.41912097 7
-0.94018888 0.51097989 0.39589375 0
-0.84326679 0.53717721 0.3886815 0
-0.74225879 0.55932713 0.40603083 0
3.6154382 0.52921969 0.38441849 6
-0.76215339 0.62571454 0.33425441 0
-0.71318519 0.67737222 0.36944866 2
3.5247102 0.70053399 0.36266148 108.75
3.2852669 0.80679816 0.36340135 150
3.3003161 0.88822204 0.34162676 150
-0.80007583 0.93491155 0.3416971 6.75
-0.682024 0.99595577 0.35097405 6.5999999
-0.58934778 1.0362008 0.37557864 6
3.1352615 1.0158018 0.35826516 111.5
3.1599314 1.0433989 0.36058348 150
3.3942065 0.94421208 0.32962212 124
-0.49609578 1.0851165 0.38749334 7
-0.36348414 1.1451375 0.34881473 9.1999998
-0.27342567 1.1899407 0.39517751 2
3.1664891 1.0887272 0.31088167 14
-0.19165462 1.2305 0.3892318 8.75
-0.069226578 1.2868906 0.37711078 8.727273
0.03546663 1.3325727 0.37549663 11
3.2616911 1.2827504 0.40881261 97.333336
0.10714646 1.3633895 0.37125701 11.5
0.19970196 1.404613 0.35937089 11
0.33505139 1.46953 0.33299434 11.5
3.1878185 1.4238157 0.37321654 68.5
0.4683423 1.529317 0.32161295 10
1.0485209 1.6478168 0.31724238 4
1.071413 1.6139386 0.32260501 18.5
3.12639 1.5720197 0.3906846 100
3.1538455 1.5148041 0.34445059 98
1.0486856 1.6502897 0.34416032 8
1.3116708 1.782645 0.34563148 10
3.058095 1.7189476 0.38231158 91
0.87259048 1.9191145 0.34211421 76
0.97432965 1.8170125 0.30077463 62
1.1117258 1.822132 0.4335514 59.666668
1.3264627 1.8118374 0.36090156 6
2.9580402 1.9157333 0.4203527 81
3.0040171 1.8260034 0.33351678 88
2.9023993 2.0400496 0.36984354 88.5
2.8323131 2.2096338 0.32509869 98
2.8729384 2.1100693 0.36024141 80
2.3055601 2.3860059 0.42033678 1
2.4900515 2.2883639 0.34987548 6.5
2.6126533 2.2851837 0.38373017 6
2.7986324 2.2690265 0.39465019 56.666668
3.805824 4.4717021 0.42817736 32
4.1526961 4.368669 0.43577421 78
4.0125046 4.6263642 0.32952619 77
4.0728517 4.5367508 0.41715878 55
-1.6358827 -1.9535618 0.58503467 56
-1.6787338 -1.8628714 0.53977007 70.571426
-1.9833646 -1.190726 0.58175182 84
-1.8561916 -0.074311659 0.52021736 56
-1.7252159 -0.027894257 0.57522041 92.25
-1.9752139 0.020749137 0.54663777 151
-1.8101158 0.076151296 0.59008378 48
-1.7759175 0.046355732 0.54802871 41.5
-1.5518273 0.073654577 0.53839767 19
-1.826393 0.2484291 0.53372747 26.666666
-1.7331212 0.27452952 0.46126693 76
3.7363207 0.2754015 0.58780944 4
-1.9153638 0.41447145 0.48827425 4
3.681643 0.40599293 0.54301596 38
-1.6789035 0.5246253 0.51761252 4
-1.5947093 0.56569856 0.53135681 6.875
-1.0064377 0.52066582 0.52854574 2.6666667
-0.82049417 0.54359746 0.47537833 0
3.6348698 0.51188809 0.53108776 77.333336
-1.4846901 0.6109193 0.50949794 10
-0.77554911 0.63976276 0.55525637 1
-0.69001698 0.69864386 0.50463444 3.1111112
3.5397739 0.66716743 0.53442371 104.5
3.109941 0.86596811 0.50628519 58
3.2437558 0.8334927 0.47285953 90
3.3717804 0.75492913 0.53757346 150
-0.66283542 1.0129297 0.5250932 6.8888888
-0.58045739 1.0452727 0.49296558 7
3.081871 1.0081792 0.5458647 97
3.1643064 0.96929634 0.46727192 150
-0.52256894 1.0801656 0.51991922 6.375
-0.351996 1.1607122 0.50568885 9.1999998
-0.27646714 1.1916319 0.59408444 23
3.2187858 1.1209614 0.54615664 125.5
-0.21610992 1.224501 0.52870393 4.7777777
-0.084919855 1.2823018 0.50009942 4.5999999
3.263504 1.2327724 0.52228492 120
0.080575183 1.3575563 0.55633295 8
0.23041211 1.4313662 0.54096621 8
0.33622029 1.4849091 0.57370186 6
3.2048426 1.41678 0.50628781 97.75
0.39582506 1.5101992 0.51653558 6.75
0.47894946 1.5469229 0.52290559 4.75
3.1119175 1.6052054 0.51960564 92
3.0368221 1.7662148 0.51411682 93
1.0088891 1.8862492 0.51332062 43.75
1.0893292 1.834352 0.51489305 40.25
1.2153838 1.8117325 0.47251529 47
2.9714813 1.9046478 0.53014654 84
2.9030542 2.0596848 0.53233337 85
2.5022428 2.2466609 0.59985787 36
2.5719028 2.2357762 0.48246473 25
2.833503 2.1876457 0.45557481 84
2.3380976 2.3833737 0.54721224 8
2.5083442 2.317157 0.4743892 18
2.5848119 2.3279281 0.50088429 10
2.8195257 2.2660329 0.58340883 87
2.2657487 2.468168 0.53122222 9
2.509593 2.4400795 0.52517259 25
3.6208897 4.2809334 0.54461604 1
-1.6303437 -1.9529589 0.65370297 64
-1.677001 -1.8687558 0.6657722 63
-1.6432567 -1.9319859 0.61500669 71
-1.7201117 -1.7789369 0.64571887 49.333332
-1.952607 -1.2432386 0.7229929 74
-1.9376687 -1.2699599 0.65769428 75
-2.0136826 -1.1146585 0.68336964 75
-2.1117632 -0.9063099 0.68027067 79
-2.0596812 -1.0194632 0.67287302 75
-2.1722209 -0.82067072 0.71862525 80
-2.284555 -0.62680537 0.73007619 84.5
-2.1239226 -0.38012797 0.71674097 70
-2.0226467 -0.34429169 0.7007423 58.5
-1.8822439 -0.30925694 0.72049814 59
-1.6712366 -0.3015396 0.68342555 25
-1.6144317 -0.33189178 0.73321819 127.5
-2.1559429 -0.23426004 0.73405397 70
-2.0342226 -0.24990462 0.73489136 41.5
-1.8805966 -0.22779718 0.68563318 150
-1.6250716 -0.20752521 0.74967921 36
-1.9647757 -0.13808256 0.66643214 3
-1.8596003 -0.059604522 0.71085548 120.57143
-1.7461648 -0.057363864 0.72366667 32
-1.6246476 -0.11350533 0.61284125 150
-2.014667 0.14467882 0.68145847 135
-1.8391062 0.10061616 0.71529752 19.666666
-1.7595534 0.082989305 0.6451025 70
-1.9894691 0.24439906 0.68174392 6
-1.8995829 0.21085951 0.68579745 10.25
3.731292 0.28657317 0.70249712 16
-1.8598074 0.3269071 0.61676091 0
3.6994359 0.38949957 0.71890378 65
-1.8317634 0.45464009 0.69979835 3
-1.7698991 0.48816997 0.70248187 3.8571429
-1.5900663 0.567379 0.64195919 8.833333
-0.79546803 0.55173373 0.65489918 5
-0.69474441 0.54492736 0.71978462 2.8888888
3.6396782 0.50880396 0.69670278 66.5
-1.5148622 0.61127216 0.72177267 8
-1.405749 0.65436441 0.71942157 3.3333333
-0.80100566 0.62707859 0.61385441 6.6666665
-0.70233715 0.62238634 0.6933825 1
3.5621724 0.67485666 0.69054145 77
3.1924281 0.88963264 0.60232311 150
3.4473751 0.88219798 0.71435726 82
3.499047 0.788746 0.6621213 76
-0.75147444 0.97339529 0.6892767 8
-0.68432128 1.0093609 0.66364372 7.25
3.1198347 0.91634429 0.69487751 41
3.1500947 0.9757728 0.66792655 142
-0.5342623 1.0795703 0.68098414 10.2
-0.36749172 1.1521239 0.67209357 11.777778
-0.29999411 1.1836183 0.60662442 14
3.0806618 1.1620221 0.66517246 148
-0.20254067 1.23 0.68855166 10.25
-0.084274843 1.2879672 0.68371505 10
0.011130295 1.3334037 0.65248895 9.333333
3.1812367 1.236547 0.6118111 150
0.099013284 1.3723255 0.70032322 9.25
0.22318009 1.4301736 0.66470546 5.5714288
0.34276277 1.4806905 0.64662558 6
3.208081 1.4226613 0.6797511 94.666664
0.41670075 1.51688 0.65357006 4.5
0.50567663 1.5536462 0.62113202 3
3.1346114 1.5762935 0.70936996 88.5
3.1605678 1.5302269 0.6162737 96
1.0155045 1.7652192 0.68999362 24
1.0817664 1.7662051 0.73229927 30.5
3.0597897 1.7435236 0.638901 94.333336
0.98495346 1.815092 0.6249404 20
2.9692416 1.9288863 0.66604382 80.5
3.0140808 1.8599582 0.727741 85
2.9291456 2.0252445 0.68242508 87.5
2.8786514 2.1432369 0.67483348 91.666664
2.4084973 2.3922172 0.69057775 23
2.8179984 2.2696958 0.7265569 86
4.0197382 4.1749487 0.74426162 36
3.6452799 4.2647195 0.69968951 56
4.1647968 4.3583708 0.61464167 94
-1.6039108 -2.0109479 0.80908006 42.5
-1.6838368 -1.8413315 0.82879013 58.5
-1.6429632 -1.9267454 0.8698808 48.5
-1.7119325 -1.7806343 0.88711578 55
-1.9075905 -1.3728442 0.855847 3
-1.9567424 -1.2224395 0.89200604 63
-1.9469113 -1.2586073 0.84481215 75
-2.0031805 -1.1356565 0.80925953 62.666668
-2.1092525 -0.90412927 0.85832584 66
-2.0777197 -0.96913195 0.82728481 68.571426
-2.1773224 -0.82741511 0.83983803 77.400002
-2.2725854 -0.6440255 0.85553497 76.5
-2.2393928 -0.71419811 0.84492481 77
-2.3221271 -0.51241171 0.80622882 93.800003
-1.8349699 -0.4773089 0.81506729 162
-2.4573469 -0.31553283 0.81114817 24
-1.9988753 -0.31216371 0.81493294 150
-1.7391721 -0.3805984 0.81394154 63.666668
-1.6189945 -0.41564405 0.80200338 18
-2.1774569 -0.26240489 0.76485217 133
-2.069344 -0.18816854 0.76380527 73
-1.886363 -0.22466686 0.77442825 42.875
-1.7249537 -0.25618094 0.81237602 44.200001
-1.6155962 -0.29941282 0.86467004 26
-1.9755329 -0.14407495 0.77802241 101
-1.8336083 -0.1034273 0.79486674 32.666668
-1.7568879 -0.0914976 0.80756289 32.5
-1.7843368 0.0086375847 0.82403398 11
-0.76359642 0.41556096 0.79427755 0
3.6962936 0.37158975 0.7651639 61
-1.7141677 0.51521134 0.78182906 8
-1.5870168 0.58214879 0.83982384 6.8000002
-0.82302511 0.49015713 0.79798442 0
-0.69756967 0.47293064 0.79841143 0.66666669
-0.59987003 0.54504955 0.77913082 0
3.6236062 0.51579821 0.76234198 62.5
-1.5026696 0.61760086 0.85778844 7
-1.4514967 0.64189696 0.80978411 7.3333335
-1.3144228 0.68518078 0.83204538 0.5
-0.66675156 0.64300478 0.78378922 7.5
3.5543828 0.67833531 0.76123744 65.5
3.4346337 0.83497578 0.75460422 42
-0.66281694 1.0113833 0.84676147 25
-0.61175597 1.0515413 0.8225888 4
-0.50684822 1.0913444 0.81936955 22.444445
-0.34814781 1.1698251 0.87337595 7
-0.29581824 1.1906407 0.78884864 7
3.2822201 1.1267449 0.78405488 150
-0.20242566 1.2359657 0.83227885 7.75
-0.073026434 1.2951478 0.81996602 7.7777777
0.023722734 1.3356564 0.76587957 5.5
3.2433078 1.2813247 0.82004762 150
0.099114925 1.375948 0.85714996 4.5
0.22001177 1.4337667 0.86071748 3.6666667
0.35142392 1.4926004 0.8207612 5.5
3.2268562 1.3989102 0.83172023 94
0.4096947 1.5286832 0.88446778 2
0.46279591 1.543469 0.83849216 2.25
3.1338544 1.5966654 0.75844264 91
3.173943 1.5129677 0.840783 95
1.0055449 1.7782261 0.79422045 6
1.0836205 1.7519565 0.76839042 7.5
3.0741549 1.7245796 0.80981958 87.25
0.98749322 1.8252205 0.81595302 3
2.9865594 1.9105687 0.85203487 81.5
3.001663 1.8923057 0.8358984 86
1.3705078 2.0232806 0.83181036 4
2.9251194 2.055249 0.78516883 83.5
2.8748775 2.1553128 0.84701669 83.5
1.2380049 2.3407457 0.78270936 27.25
2.376617 2.3927915 0.85537088 10
2.8077888 2.3045835 0.82249546 81.333336
1.17944 2.4744177 0.8625102 27.666666
2.276804 2.4506669 0.86687958 1
2.5166812 2.4488547 0.84158397 22
2.6859014 2.5396609 0.89183772 67
2.738462 2.4385252 0.8274101 82
-1.514021 -2.1916842 0.99771774 50
-1.5846751 -2.0438943 0.97769326 53.5
-1.6517355 -1.9001114 0.95790851 53
-1.724833 -1.7444789 0.96913826 57
-1.8095969 -1.5544325 1.0020781 68
-1.7871612 -1.5991739 0.99377263 62
-1.8592603 -1.4632751 0.96143413 72.5
-2.013294 -1.1044766 0.96134156 49.75
-2.0762353 -0.97921371 0.95626354 74.599998
-2.17032 -0.82454038 0.9555369 78
-2.2707944 -0.65477109 0.99454266 90.25
-2.2357855 -0.72947973 0.960926 86.5
-2.3308754 -0.52281827 0.98229337 91.375
-2.3772359 -0.41797674 0.98130012 89
-1.6693804 -0.17593086 0.90252769 23
-1.8876095 0.43607953 0.92377108 3
3.6998339 0.38172305 0.97183192 55
-1.8042995 0.47651368 0.96635509 4
-1.7171783 0.52661526 0.99262828 4.1999998
-1.589273 0.58182067 0.97263545 5
3.6252055 0.53723025 0.95564812 59.5
-1.541005 0.60811639 1.038978 4
-1.4288956 0.66044933 0.96870053 5.5
3.5524776 0.68890202 0.9472124 62
-1.1368746 0.80088311 0.99361765 0
3.4826357 0.85144252 0.9158653 66
-0.84162599 0.92955685 0.97488481 31
-0.6617741 1.0184289 0.99441785 36.333332
-0.5938462 1.047151 0.93549252 36
3.4019659 0.99718213 0.91946781 104
-0.51239431 1.0917438 0.96556151 31.25
-0.3529976 1.1681155 0.9958415 8
3.344161 1.147959 0.93799186 82
-0.22632895 1.2296467 0.95678508 4.3333335
-0.073020205 1.3016959 0.95746219 4.1999998
3.2773063 1.2962048 0.96118224 85
0.084583618 1.3786782 1.0075308 2.5999999
0.22681122 1.4405934 0.98141557 1.5833334
0.33540475 1.486151 0.93445367 2.5
3.2089009 1.4438126 0.99131572 84
0.40451223 1.5203565 0.95658028 1.5
0.49630857 1.5572914 0.98769456 2
3.1377437 1.5865802 0.9663884 87.5
3.0747907 1.7308912 0.95473933 84
3.0215094 1.8487747 0.98366851 78
1.3802083 2.0297844 0.95859289 24.5
2.9299715 2.0426314 0.94845855 75
2.8473444 2.2155244 1.0069157 73
2.8552547 2.2103164 1.0167992 75
1.235626 2.3589449 0.99195242 22.5
2.8078222 2.2987022 0.96465558 70.666664
1.1589839 2.5150137 0.93474376 17
1.2003005 2.4313383 0.95064294 26
2.2729752 2.4970238 1.0227118 6
2.4881594 2.4471698 0.9859736 19.5
2.7500443 2.4391 0.95319474 74
4.0385361 4.6246672 0.95510614 85
-1.4459705 -2.3154008 1.1623806 38.666668
-1.5165744 -2.1790464 1.1511586 43.5
-1.4953988 -2.220789 1.1815286 39
-1.6057382 -1.9844949 1.1781784 48.5
-1.6803036 -1.830431 1.1231091 57.5
-1.7471066 -1.6837269 1.0945815 59
-1.8254025 -1.5348574 1.133011 15
-2.0185151 -1.1054751 1.1209927 69.5
-2.1083846 -0.91813213 1.0502214 76
-2.0735548 -0.98927516 1.1341755 68
-2.1759579 -0.82150924 1.0979046 76.199997
-2.2656245 -0.66429377 1.1148263 76
-2.236975 -0.72040385 1.1418432 73
-2.3189769 -0.54344058 1.1189475 78.25
-2.360338 -0.41028661 1.0903169 143
-2.035778 0.37103903 1.1217333 2.5
-1.9264317 0.43095088 1.154389 2.6666667
-1.8335593 0.4728432 1.1746787 3
-1.7316042 0.52200109 1.1566935 3.3333333
-1.4255698 0.66509849 1.0943012 2.25
-1.2815418 0.72320729 1.0825268 32
-1.132853 0.80842519 1.1227283 26
-0.78914112 0.95887095 1.1042757 48.333332
-0.6899603 1.0076702 1.1141886 46
-0.51632124 1.0934418 1.1419373 40.5
-0.38203919 1.1589803 1.1348354 22.25
-0.22583988 1.2350078 1.1150988 2.5
-0.043226507 1.3221122 1.1217045 0.85714287
0.0098963799 1.3424135 1.1442525 0
0.08682017 1.3787446 1.1029792 0.22222222
0.24050906 1.4530547 1.11783 1
0.37782612 1.5179313 1.1163001 1.6666666
0.46671152 1.5503565 1.0708536 3
3.0757923 1.7410558 1.077633 77
3.003263 1.8889385 1.1329471 70
1.3817966 2.0337968 1.0696267 9
2.9342909 2.030961 1.1361477 70
1.3267219 2.1746209 1.1179461 9
2.8781049 2.1490884 1.1280519 68
1.2717291 2.2785938 1.1355046 23.333334
2.776248 2.3719063 1.1136286 67
1.1724613 2.5047963 1.1377962 26
2.2984653 2.4763973 1.0654776 1
2.509059 2.4706857 1.108103 18
2.7315674 2.4689932 1.0706711 70
4.1168799 4.4770889 1.1822349 84
-1.1420932 -2.9926972 1.2740823 29
-1.3843626 -2.5402212 1.3315325 15
-1.4532826 -2.3199978 1.2712164 42.5
-1.5319939 -2.136241 1.2262099 45.5
-1.5730842 -2.0393882 1.2595168 49
-1.6626549 -1.8511645 1.2507979 50
-1.6255808 -1.9272122 1.2592206 53
-1.705864 -1.7522281 1.2836568 52.400002
-1.7764251 -1.605379 1.2845925 48
-2.0167637 -1.1080105 1.2743917 59.5
-2.0926521 -0.93179357 1.2612054 66
-2.1679769 -0.82460105 1.2549911 68.5
-2.260591 -0.66029322 1.2765725 69.5
-2.2182326 -0.7363959 1.3278393 63
-1.9279301 0.43515882 1.2896937 2
6.0411859 0.35122788 1.3278879 70
-1.5012244 0.63772517 1.2382801 3
-1.4158578 0.67693496 1.2473778 0
-1.2388393 0.75661004 1.2677367 47
-1.1640768 0.79366499 1.2691849 32.333332
-0.78563607 0.88535601 1.2582998 36
-0.78692579 0.96727872 1.2420907 48
-0.7061668 1.0081505 1.2766829 41.666668
-0.53516215 1.0870334 1.2768822 40
-0.44248798 1.1320081 1.2771916 39
0.24495833 1.46306 1.2344092 1
1.3191167 2.1976938 1.2729582 26.333334
2.8594549 2.1931026 1.2745883 65
1.2545706 2.3368847 1.248662 26.75
2.8088329 2.3035717 1.2174751 66.5
1.2170092 2.4275019 1.2966716 29.333334
2.3322377 2.4174826 1.2076467 0
2.4097288 2.4152813 1.2848517 11
2.6958249 2.5349345 1.2088971 57
2.7296154 2.4862552 1.2950631 67
4.1303582 4.4599814 1.2309421 85
-1.0605493 -3.1576095 1.3724846 13
-1.1884094 -2.9016268 1.3932204 31
-1.2985554 -2.6578934 1.4068359 29
-1.3949111 -2.4263651 1.4146014 33
-1.486827 -2.2235167 1.4323366 39
-1.574717 -2.0375032 1.4551921 42
-1.6579502 -1.863656 1.481517 49
-1.6392739 -1.9065145 1.3674469 54
-1.716575 -1.7265745 1.3886003 57
-1.7765653 -1.5933752 1.3880914 61
-1.9502562 -1.237584 1.4867238 58
-1.915324 -1.2921522 1.4547896 54
-1.9965611 -1.1317658 1.4295595 55.75
-2.0697999 -0.97299409 1.4266496 57.5
-2.1822312 -0.80781889 1.4288725 54
-2.2642264 -0.63282049 1.4802924 62
6.0662279 0.25329468 1.4390901 61
6.0369415 0.33229646 1.3951218 58
-2.2082152 0.51469809 1.4988778 7
-1.2707884 0.75117266 1.4077156 53
-1.1941085 0.78960872 1.4037764 53
-0.69246161 1.0283923 1.4444124 56.5
-0.55738533 1.0876653 1.4106236 45.25
-0.43356058 1.1420565 1.4256128 37
1.2998841 2.2446482 1.3535286 26
1.271632 2.3126874 1.427637 27.5
2.7909541 2.3524971 1.3649898 65
1.1806514 2.5032549 1.4238526 28.25
1.226266 2.4053705 1.4226648 27
2.3243587 2.4483051 1.3815897 3
2.5472391 2.4942591 1.355374 17
2.717011 2.5145884 1.4671024 61
4.1398573 4.4512644 1.3845263 79
4.050631 4.6339417 1.3790669 82
-0.9456023 -3.3876538 1.6458708 31
-1.7362117 -1.6935691 1.5071342 53
-1.8108592 -1.5274729 1.5329891 66
-1.8847582 -1.367265 1.5621141 55
-1.9614071 -1.210752 1.6001618 55
-2.0087254 -1.0983394 1.5589828 56
-2.0717132 -0.96017176 1.5663055 59.333332
-2.1632347 -0.81242758 1.5793849 52.833332
-2.2701921 -0.6172775 1.5739812 53
-2.2178943 -0.71543998 1.6011516 39
-2.3570452 -0.42733604 1.6401757 41
-2.4057753 0.16203555 1.6393522 13
-2.278687 0.23035124 1.6121731 3
-2.23895 0.4141345 1.5731504 5
-1.3191206 0.74062717 1.5818982 47
-1.2416185 0.77550942 1.6042345 57
-0.69646716 1.0323651 1.5502756 52.5
-0.64044738 1.0587925 1.5639614 58
-0.52024269 1.1166867 1.5626397 46.25
-0.42956233 1.1541288 1.6319352 31
-0.37005723 1.335677 1.6193817 5
-0.11293644 1.4458207 1.635888 5
-0.33905426 1.5788873 1.6478239 11
-0.20338605 1.5714284 1.6423393 10
-0.1022958 1.5940456 1.6457874 10
-0.020775763 1.6811782 1.6303958 9.333333
0.027870398 1.6847312 1.6321573 10
0.24575134 1.6864346 1.6487035 6
1.2445961 2.3660061 1.5184376 27
1.1846657 2.489311 1.6016868 17.333334
1.2221919 2.4134507 1.5777298 27
4.1869535 4.3739519 1.5957782 73
4.0151858 4.669776 1.5629654 43.5
-0.86914146 -3.5566418 1.7312759 30.5
-0.96815646 -3.3371985 1.6895981 32
-1.0508826 -3.1615851 1.719678 32
-1.0085416 -3.257695 1.7011508 33
-1.0943438 -3.0470314 1.6821586 32
-1.1675051 -2.9050903 1.6978643 36.5
-1.2181662 -2.7909594 1.7066678 32.333332
-1.3056327 -2.6105437 1.7181051 33
-1.364846 -2.4914455 1.7234849 31
-1.4289854 -2.3377652 1.74553 33
-1.5237967 -2.1244719 1.7498726 30.5
-1.4857976 -2.198349 1.7594838 26
-1.5574213 -2.0605292 1.7602239 47
-1.6598438 -1.83656 1.7692186 42
-1.6215539 -1.8878055 1.749716 37
-1.7253722 -1.7133131 1.7505244 57
-1.8026458 -1.5118604 1.7647854 39
-1.7236043 -1.6259047 1.7681979 27
-1.4591565 -1.5792733 1.7578257 5
-1.5118562 -1.4007431 1.7421919 13
-1.8710146 -1.3135369 1.7773205 36
-1.5727725 -1.2426122 1.7525936 30
-1.6378373 -1.0948162 1.7764114 32
-1.7289805 -0.966443 1.7287146 4
-2.1036322 -0.89095145 1.6691326 63
-1.8912348 -0.86572397 1.7888857 40
-1.7816439 -0.80682743 1.7455691 8
-2.2587824 -0.63298339 1.7139598 12
-2.2170446 -0.72643113 1.7519525 29
-2.0204673 -0.72853613 1.7988864 32
-1.8607379 -0.65629089 1.7013904 2
-2.2890856 -0.56586289 1.7151648 29.333334
-2.3361514 -0.40490776 1.7125069 16
-2.4054134 -0.23221278 1.6652433 4
-2.2561731 -0.15863191 1.7777032 5
-2.3337359 -0.066375665 1.7662464 11
6.2585707 -0.13502465 1.7747263 45
-2.4324877 0.047841776 1.7664384 21
-2.3230672 0.12315588 1.7538542 9
-2.1811998 0.021661224 1.6973869 10
6.1534028 0.12578334 1.7218422 51
-2.2498543 0.2037566 1.7771991 57
-2.52037 0.38869223 1.7365836 3.5
-2.2908673 0.3329145 1.696018 4
-2.0344923 0.40331393 1.7868797 20
5.9986558 0.34381825 1.7714716 41
6.0337901 0.38050267 1.6749018 48
-1.9937718 0.56963599 1.7735001 15
-1.8131778 0.65268695 1.6615332 5
-1.5486062 0.64193642 1.7771121 21
-1.4011919 0.69315422 1.788589 11
-2.0000606 0.78508919 1.675758 14
-1.2612441 0.75487584 1.7799493 17
-0.8220824 0.95337743 1.7708306 19.25
-0.68641484 1.0048648 1.7490348 33.42857
-0.55615509 1.0260773 1.7977946 68
-0.64095682 1.0588911 1.6975273 32
-0.52868342 1.0998296 1.7199513 22.166666
-0.38046336 1.1458377 1.7658238 29
-0.329162 1.3082527 1.7739192 9
-0.24692366 1.2766434 1.7731888 8.8000002
-0.090266481 1.3048682 1.7672573 12.5
-0.35574555 1.3593357 1.7727604 8.5
-0.24629481 1.4357983 1.7714111 9.8571424
-0.1017347 1.4355552 1.7709385 11
0.014464212 1.4708382 1.7823521 10
-0.36364883 1.5245169 1.7747475 10
-0.20241518 1.5624837 1.774541 10.166667
-0.076357983 1.5882285 1.7718519 10.2
0.081265748 1.6085055 1.7684634 9
-0.27433985 1.6598711 1.7873763 10
-0.046972614 1.7180158 1.7801331 11
0.052880269 1.7339222 1.7777609 11
0.17603593 1.7200519 1.7700754 10
0.22842619 1.8736993 1.7898796 12
1.1423638 2.4866219 1.7252415 1
2.3045812 2.8360469 1.726508 35
2.5278423 2.9473205 1.7196158 42
2.5709088 2.8600152 1.7206362 43
2.5197706 3.0300333 1.71358 37.5
2.8357153 3.0952437 1.715256 23.5
2.5904071 3.1834729 1.7076625 7
2.8182883 3.2707391 1.7042235 42
2.9231784 3.2559953 1.7069792 42
2.9024825 3.4125218 1.7017082 25
3.0263002 3.4762273 1.6853486 25
3.1768312 3.5278256 1.6952749 26
3.0935907 3.6851721 1.6845628 18.333334
3.4863532 3.8651175 1.6814028 29
3.6360726 3.882009 1.6663135 32
3.5401533 4.0099311 1.6702732 30
3.7500603 4.3332138 1.653123 25
-0.60773772 -3.7734778 1.9050256 48
-0.75962812 -3.7366197 1.8818299 17
-0.46715283 -3.6265092 1.8275784 9
-0.79232126 -3.4550533 1.8973407 61
-0.93437737 -3.364069 1.8449329 10
-0.64567226 -3.355566 1.8365954 0
-0.94942468 -3.150135 1.880025 60
-0.81471997 -3.1710827 1.8933707 26
-0.37729686 -3.270607 1.947661 54
0.53014129 -3.1777341 1.9498035 27
-1.0850408 -3.0502379 1.8244694 14
-0.5125829 -3.0404773 1.9444059 60.25
-0.33230272 -3.0159838 1.946674 61
-0.08084473 -3.0092793 1.9489304 67
0.35168219 -3.0311358 1.9479614 1
-1.089445 -2.8805697 1.8733155 66
-0.95044142 -2.9020152 1.8792604 47
-0.64307016 -2.8717914 1.9469188 64
-1.2197665 -2.7746813 1.8166121 19
-0.66761476 -2.790334 1.936905 63.75
-0.50460416 -2.789176 1.9401089 66
-0.36345786 -2.8012848 1.9398237 61
-0.24405476 -2.7955599 1.9383262 67
-1.212208 -2.6318951 1.8683449 60
-1.0704561 -2.6516266 1.8654367 45
-0.79572845 -2.5772538 1.9345161 61.5
-0.65603292 -2.5741732 1.9350966 57
-0.51375014 -2.5992284 1.9369043 61
-0.39014724 -2.6044509 1.9367012 69
0.055962931 -2.612838 1.9347092 21
-1.3342885 -2.5112245 1.8036369 22
-1.178926 -2.4279535 1.8594748 46
-0.80419052 -2.5421481 1.9331743 55
-0.64808059 -2.4031358 1.9313229 61
-0.52059233 -2.4202662 1.933822 68
-0.11918135 -2.4359345 1.9219445 40
0.0093284966 -2.4442253 1.9354256 4
0.50848657 -2.4350328 1.9231812 22
-1.4410698 -2.2802634 1.8058134 18
-1.3163787 -2.388412 1.8554879 58
-0.93615031 -2.3346512 1.926578 62.333332
-0.85307521 -2.3659537 1.9324237 58.666668
-0.27672011 -2.2705696 1.9186705 45
-0.14459918 -2.2780991 1.9228069 10
0.3898257 -2.3167224 1.9220352 65.5
0.47162372 -2.3794351 1.9226655 29
-1.4144161 -2.1715157 1.8550462 63
-1.2751517 -2.2162082 1.8545364 45
-1.0549258 -2.1147168 1.9130366 66
-0.96944296 -2.1417973 1.9178284 58.25
-0.76698494 -2.2120404 1.922201 65
-0.63690376 -2.2372069 1.9233595 72
-0.41680044 -2.1032352 1.9105235 45
-0.28228921 -2.1245363 1.9193865 15
0.13234584 -2.1064086 1.9058148 66
0.2397092 -2.173383 1.9151978 66
0.31604168 -2.2397366 1.9206138 65
-1.5580966 -2.0154305 1.8238922 33.5
-1.4265122 -1.9827584 1.843778 55.5
-1.0158743 -1.9746917 1.9134985 59
-0.87309706 -2.0298014 1.9148477 63
-0.74064457 -2.0610743 1.9123801 61
-0.4064512 -1.9710073 1.9124192 11
0.042327996 -1.9636809 1.9033673 72.25
0.17383341 -2.0976734 1.9123229 62
-1.6093104 -1.8926663 1.816982 34
-1.4308014 -1.8149352 1.8342479 20
-1.1198496 -1.9248607 1.9113499 62.25
-1.0086159 -1.8934221 1.910699 59.5
-0.83560443 -1.8976763 1.9081582 62
-0.5317229 -1.8838538 1.9089001 19.5
-0.072138622 -1.8342073 1.9038389 70
0.028119575 -1.8348197 1.8930854 13
-1.6902676 -1.6951098 1.8294238 61
-1.5974922 -1.748333 1.833131 66
-1.2394853 -1.7238822 1.9023044 62.5
-1.1212276 -1.7397877 1.908506 45.799999
-0.920111 -1.7393699 1.9034749 42
-0.65877002 -1.7886815 1.9062091 25
-0.19045787 -1.7101885 1.8942614 82
-0.11076383 -1.6977816 1.8965209 42.5
0.061852157 -1.727103 1.9043686 27.5
-1.6849174 -1.5273156 1.8231388 64.5
-1.6299803 -1.5505495 1.8234094 68
-1.2713761 -1.5480658 1.9010296 29
-1.1675316 -1.564077 1.9045882 34.666668
-0.99602473 -1.5839448 1.8959163 36
-0.76250988 -1.6375428 1.9100467 8
-0.64495873 -1.5866406 1.9016582 3
-0.32909447 -1.6132855 1.8893553 83
-0.23599774 -1.5745544 1.8943235 62.25
-0.064412683 -1.5795416 1.8881499 53.5
0.038937759 -1.5933897 1.8906063 57
-1.814273 -1.4555277 1.8175246 65
-1.7362152 -1.434172 1.8204037 65
-1.233223 -1.4002448 1.8965203 25.5
-1.0682663 -1.4391948 1.8982266 15
-0.78203398 -1.4683851 1.8908595 3
-0.72591913 -1.4440193 1.8975753 15.5
-0.50479764 -1.3724757 1.8874027 95
-0.37498766 -1.4455835 1.8920419 64.5
-0.23311834 -1.4346418 1.8887873 51.142857
-0.083741687 -1.4250727 1.8867002 70.166664
-1.8414341 -1.2537091 1.8171492 58.5
-1.7453378 -1.3143417 1.8153807 48.666668
-1.4006616 -1.3364837 1.8884352 40
-1.2989745 -1.2394979 1.8965981 5.5
-0.90433002 -1.3391418 1.8892432 7
-0.80707878 -1.3071485 1.8918099 40.333332
-0.66620189 -1.238937 1.8880571 7
-0.53967959 -1.2453725 1.885273 49
-0.37616229 -1.28363 1.8874751 66.166664
-0.22498086 -1.2767808 1.8840072 64.599998
-0.10460006 -1.2770441 1.8857681 62.5
-1.9513254 -1.1322795 1.8154198 65
-1.8622304 -1.0674752 1.8052244 36.666668
-1.7537282 -1.1527563 1.8095695 31.5
-1.4279563 -1.1313803 1.8907306 12.5
-0.96745068 -1.1443635 1.8866056 35
-0.84542179 -1.1254715 1.8914984 24.333334
-0.68159199 -1.1220652 1.8836249 22
-0.51420194 -1.1220512 1.8811243 51.799999
-0.38597059 -1.1309267 1.8827876 59.142857
-0.23350413 -1.1550597 1.8838694 57.400002
-0.062601782 -1.1538332 1.884261 57
-1.9852245 -0.92555881 1.8024391 60
-1.7106212 -0.9534474 1.8182465 16
-1.520767 -0.98680258 1.8911339 3
-1.3173382 -1.0430801 1.8807759 1.5
-1.0728003 -0.91157019 1.8809358 90
-0.95297319 -0.97602928 1.8782187 57.400002
-0.82015288 -1.007031 1.8828639 60.5
-0.66734374 -0.98523104 1.8685501 40
-0.51950425 -0.98053879 1.8713487 25.571428
-0.37966421 -0.97447306 1.8696284 24.5
-0.23153214 -0.9934333 1.8709155 32.5
-1.7742896 -0.80431658 1.8517686 0
-1.5010445 -0.85736287 1.8782891 7
-1.4038161 -0.88225687 1.879205 20.5
-1.3252969 -0.88764328 1.8808287 38
-1.1161177 -0.8242076 1.8765541 46
-0.99089605 -0.81385338 1.8717276 75.599998
-0.82548457 -0.84297115 1.8718982 86
-0.65516835 -0.80387145 1.8615316 77.571426
-0.51614207 -0.84221107 1.8610833 60.5
-0.38064957 -0.80757248 1.8620653 40.599998
-0.2721895 -0.80561197 1.8662106 37
5.7087893 -0.89685363 1.8197726 14
-1.8180516 -0.64578843 1.8582677 0
-1.5308734 -0.69073915 1.8700393 47
-1.4308341 -0.7246511 1.8723869 63.5
-1.3343863 -0.73247695 1.8749543 41
-1.1151834 -0.67409647 1.8669624 72.5
-0.95599127 -0.66897869 1.8661516 80.400002
-0.81797493 -0.66557795 1.8611578 80.199997
-0.65588015 -0.66807288 1.8602929 81.833336
-0.53709978 -0.67669547 1.8583962 75.75
-0.35019219 -0.68047267 1.8557482 62.666668
-1.8303474 -0.47815302 1.8612858 40
-1.5752407 -0.48383465 1.8674585 33
-1.4169935 -0.54714859 1.8692523 54.714287
-1.2015553 -0.58758575 1.8695728 67
-1.1275357 -0.51909804 1.8556246 77.333336
-0.97627306 -0.51896346 1.8562104 76.800003
-0.8239466 -0.52355379 1.8551697 80
-0.67149663 -0.52634978 1.854399 82
-0.52707976 -0.53175581 1.8517942 80.400002
-0.39697731 -0.53027511 1.8553411 72.5
-1.9918317 -0.33931345 1.8380699 41
-1.8699616 -0.35580936 1.8593386 39
-1.5295089 -0.35916433 1.8726081 59.333332
-1.4016621 -0.37499452 1.8633251 82.75
-1.2327281 -0.44290918 1.8650683 87
-1.1211735 -0.37866414 1.8529421 75.199997
-0.97414082 -0.38112319 1.8514599 75.833336
-0.79928499 -0.35263553 1.8473986 78.5
-0.68516898 -0.38416758 1.8501445 77.727272
-0.54974425 -0.38437882 1.8482559 83.5
-0.43816876 -0.3855789 1.8497343 77
5.9815063 -0.4194217 1.8251272 20
6.3415122 -0.40320089 1.8324155 33
-1.9707699 -0.19517335 1.8477875 76
-1.8780349 -0.18980634 1.8530512 65.333336
-1.566208 -0.24203396 1.8605287 61.200001
-1.422124 -0.21089864 1.8592426 78
-1.2423152 -0.22254442 1.8458652 78.666664
-1.1299555 -0.23060326 1.848937 76.599998
-0.9678728 -0.23123372 1.8463614 81.599998
-0.8066085 -0.22560968 1.8432398 77.833336
-0.68106234 -0.21868165 1.8418907 75.599998
-0.52437353 -0.24114041 1.8460535 76.625
6.0854387 -0.16667141 1.8296946 28
-2.0142245 -0.10719164 1.8473345 45.75
-1.9037421 -0.093364365 1.8519558 82
-1.6581606 -0.13134786 1.8518089 76
-1.5547047 -0.071851596 1.8514684 93.5
-1.4264578 -0.070427798 1.8505727 94
-1.2468975 -0.045152869 1.8382977 81
-1.1164883 -0.072666809 1.8409309 80.199997
-0.97567779 -0.071822569 1.8415884 77.666664
-0.81402081 -0.083711416 1.8395479 80.111115
-0.68235111 -0.072971001 1.8407156 77.888885
-0.52407664 -0.063720457 1.8385049 76.833336
-2.1518865 0.042694692 1.8512133 24
-2.0349386 0.045389518 1.8409929 58
-1.8834991 0.032626044 1.8489951 78.333336
-1.6681018 0.034649283 1.8475908 79
-1.5593975 0.082837634 1.845404 93
-1.4323956 0.087402113 1.8449615 97.25
-1.2356738 0.09591452 1.8351135 81.666664
-1.097124 0.082635351 1.8353472 78.666664
-0.96698821 0.082037747 1.8354104 80.199997
-0.81768715 0.077440284 1.8340652 81.428574
-0.6985777 0.089078963 1.8339487 80.428574
-0.51771176 0.080620967 1.8338228 79.5
6.0799546 0.090067007 1.8076664 31
-2.1504834 0.23963095 1.8401104 71
-2.0234025 0.21287906 1.8370656 81.25
-1.8821583 0.19696033 1.8439593 83.333336
-1.6691426 0.20165879 1.8425373 74
-1.5587634 0.23854545 1.8406763 89.25
-1.4234661 0.25605729 1.8410872 90
-1.2319621 0.23355736 1.8270764 80.333336
-1.0964758 0.23776031 1.8313214 79.25
-0.95553279 0.21761765 1.8296659 81
-0.8104893 0.21212521 1.8287821 81
-0.68313968 0.23069698 1.8304901 78.75
-0.52702039 0.22361404 1.8296062 81
-2.285949 0.39684188 1.8252941 10
-2.1380343 0.43625984 1.8221205 11
-1.9809287 0.36125618 1.828341 55.5
-1.8741559 0.36296248 1.8350185 84.666664
-1.6657066 0.3696942 1.8369933 81
-1.5523943 0.39539501 1.8346549 85.25
-1.4149874 0.39682674 1.836494 90.333336
-1.2396842 0.37594655 1.8290734 93.5
-1.1290854 0.36990032 1.825775 76.25
-0.95519048 0.36238775 1.8251499 78
-0.79880655 0.36127114 1.8241297 79.625
-0.67954576 0.38244244 1.8241714 76.571426
-0.51578271 0.37094751 1.8236279 81.25
-2.3351724 0.55937153 1.831665 14
-2.0470004 0.45501462 1.8316733 11
-1.9109279 0.54040438 1.8175631 13
-1.719064 0.51129508 1.8272029 29
-1.5897899 0.49417713 1.8314091 83
-1.4542946 0.54243016 1.8329945 90.333336
-1.2951398 0.53119266 1.8316391 93
-1.1304141 0.51048094 1.8217112 81
-0.98003244 0.51804936 1.8222661 72.5
-0.83697176 0.53305912 1.8179356 77
-0.67891699 0.51288223 1.8171325 76.777779
-0.54656142 0.52032733 1.8184648 80.75
-0.43077138 0.50070602 1.8191762 75.5
-2.1313097 0.63737738 1.8193551 16
-2.0055106 0.69623303 1.8104483 15
-1.9280567 0.69235051 1.801437 15
-1.7634778 0.64330101 1.8187255 14
-1.568655 0.63782108 1.8195566 25
-1.4642646 0.66758442 1.8242656 6
-1.2719823 0.67150998 1.8262001 92
-1.128345 0.66166914 1.8178946 93.25
-0.96699822 0.65198183 1.8142391 72.75
-0.81621718 0.68729258 1.8139607 79
-0.67034227 0.66655684 1.8117959 75
-0.52165622 0.67345792 1.8107041 76.571426
-0.3869434 0.67139471 1.8119202 77.5
-2.037992 0.82634133 1.8257389 17.5
-1.8670352 0.82200456 1.8096716 14.5
-1.7353758 0.8024826 1.8093225 15
-1.525993 0.78161567 1.8073806 4.3333335
-1.1350689 0.75823319 1.8094915 21
-0.98324353 0.79023331 1.8146154 86.5
-0.82550967 0.82518971 1.8074862 71.199997
-0.68356216 0.81947541 1.8086265 74.75
-0.53588521 0.81950998 1.8079126 72
-0.39243016 0.8460499 1.8082898 74.599998
-0.78440094 0.93728858 1.8018128 56
-0.63989729 0.93300986 1.8029389 71.333336
-0.5214619 0.9624061 1.8037013 74.166664
-0.39482138 1.0008767 1.8065047 76
-0.27046159 0.98413092 1.8023463 63
-0.38947034 1.1067573 1.8057979 69
-0.2337486 1.1337529 1.8047781 83.333336
-0.088857666 1.7318681 1.8006884 11
0.83023483 2.3221498 1.8094147 8
-0.15338063 -3.6217039 1.9642628 51
-0.12781601 -3.7081258 1.9705888 46
-0.31944501 -3.4763799 1.9676346 52
-0.18198384 -3.5520911 1.9603623 54
-0.058480028 -3.5278902 1.9646593 53
0.080266848 -3.5109944 1.963698 55
0.2104279 -3.4941647 1.962196 58
0.3132202 -3.471323 1.9633716 49
-0.34030271 -3.3605938 1.9598383 58.5
0.60797435 -3.328567 1.957868 16
-0.49477464 -3.1524534 1.9528219 59
-0.28262162 -3.2575705 1.9535195 55
-0.072788887 -3.2526441 1.9552468 62.5
0.10496451 -3.2388191 1.9601508 70
0.56780446 -3.246556 1.955037 22
-0.19551921 -3.0259228 1.9525706 42
