# .PCD v0.7 - Point Cloud Data file format
VERSION 0.7
FIELDS x y z intensity
SIZE 4 4 4 4
TYPE F F F F
COUNT 1 1 1 1
WIDTH 1130
HEIGHT 1
VIEWPOINT 0 0 0 1 0 0 0
POINTS 1130
DATA ascii
2.7591231 -1.2781702 -0.18182316 88
2.7773557 -1.1250036 -0.16480476 82.5
-0.050448075 -0.93904179 -0.17647429 10.5
0.99372357 -1.0373237 -0.19717652 10
1.1205791 -1.0239658 -0.17517033 50
-0.0062258318 -0.83419496 -0.1906762 5
0.004609433 -0.78996599 -0.15467209 5
1.1703279 -0.82593095 -0.17268704 79
2.8012862 -0.75123924 -0.16255251 87.5
0.01077835 -0.6455217 -0.18119161 7.8333335
0.35960275 -0.60954922 -0.15719311 8.3999996
1.1797185 -0.73403287 -0.17392114 33.5
-0.48225549 -0.57904792 -0.1874228 2.3333333
-0.38961518 -0.57099563 -0.17256898 2.125
-0.26742041 -0.57465744 -0.17503053 2
0.068208732 -0.58687395 -0.17265622 9
0.19288479 -0.59313011 -0.18671462 7.75
2.808363 -0.57935977 -0.18530308 89
2.8498025 -0.069496468 -0.15854518 106
2.8638825 0.1011668 -0.16568686 92
2.8876221 0.27575055 -0.16715364 93
2.8951299 0.45291814 -0.16073711 77
1.6231809 0.70835042 -0.18482202 54
2.8910108 0.63247776 -0.19878826 73
-0.090649478 0.87776077 -0.16902092 0.25
0.23410647 0.89683414 -0.16184106 5
0.35183161 0.89430863 -0.17940968 5.125
0.47850543 0.88054311 -0.18851103 5
0.69392788 0.86079961 -0.1645124 4
0.84403861 0.85028481 -0.17672074 3.5
0.91570145 0.83998334 -0.16803148 3
1.3434712 0.89255899 -0.19722378 67
1.4301682 0.81041086 -0.17204222 64.199997
-0.75189012 0.97100174 -0.15429787 5
-0.65374821 0.96413618 -0.16743231 4.5714288
-0.51812351 0.95512122 -0.16914101 6
-0.37097466 0.94694626 -0.18131512 6
-0.25889826 0.93487072 -0.17493156 5.8000002
-0.02759698 0.93080962 -0.18033953 7.4000001
0.030328952 0.92380822 -0.18273669 7
0.2846854 0.9025417 -0.16060539 5.3333335
1.3314689 0.92454988 -0.19436157 67
3.0066452 -1.389621 -0.0063137459 33
2.7550871 -1.2861549 -0.09904296 62
2.7848053 -1.1111054 -0.075816639 62.5
-0.038198203 -0.92841423 -0.13329628 10.5
1.1075737 -0.94480491 -0.1309144 39.5
2.7942638 -0.92986268 -0.1230467 64
3.1554966 -1.0270076 -0.016527778 74
-0.026867419 -0.84835958 -0.10628036 4.3333335
0.0013931512 -0.83779007 -0.12897077 6
0.69892746 -0.79622918 -0.11339275 1
0.81160361 -0.82924628 -0.116983 1
1.0067487 -0.85661614 -0.12012409 10
1.0999651 -0.81538558 -0.12296531 25.25
3.1133895 -0.80724841 -0.032569293 150
-0.15108608 -0.60488319 -0.10193739 5
-0.075650156 -0.68957138 -0.10590883 3.9000001
0.0097936848 -0.66921622 -0.12801416 4.6666665
0.24519864 -0.60234922 -0.12425838 8.3999996
0.35034519 -0.60739595 -0.13209645 7.8571429
0.55348468 -0.65785092 -0.11427413 3.75
0.6881206 -0.70574749 -0.11718115 2.5
0.8556878 -0.70722151 -0.12226066 2
1.0368288 -0.64944172 -0.12399486 2
1.1793122 -0.73451769 -0.13961637 70
2.7985528 -0.74943036 -0.079833962 46
-0.75354165 -0.55926466 -0.092197128 2
-0.63038832 -0.50437033 -0.056728937 2.5
-0.54284602 -0.5290066 -0.090884961 2.090909
-0.33896756 -0.5312472 -0.098104589 2
-0.256726 -0.50921404 -0.084386058 2.4000001
-0.10754547 -0.5802176 -0.10113095 7
0.099516459 -0.59017855 -0.10441379 9.6000004
0.212889 -0.59480011 -0.11343936 7.8888888
0.32425624 -0.59114528 -0.10075793 7
2.8037231 -0.58138013 -0.10353164 56
2.8964498 -0.5853315 -0.08804322 150
-0.23516409 -0.44122249 -0.051901225 2
2.8258805 -0.41085193 -0.12097564 69.5
2.8356881 -0.24562638 -0.13691108 97.5
2.8377903 -0.090976074 -0.13558863 81
3.2284033 -0.12276933 -0.015424852 82
2.8462842 0.070409864 -0.13502596 76
3.2370338 0.056849208 -0.029861843 103
-0.81110716 0.25367561 -0.0035185264 0
2.8561878 0.23398352 -0.12836489 57
3.2142107 0.23732208 -0.039777253 150
2.9400537 0.39683813 -0.087277703 63
-0.94938326 0.56950992 -0.020146525 0
-0.81439012 0.58879203 -0.032321494 0
-0.70200688 0.57098013 -0.070839725 0
2.9427145 0.57682365 -0.094606526 104
3.0321159 0.57725155 -0.050894681 56
-0.8602522 0.61838096 -0.03027205 0.25
-0.66797763 0.62800705 -0.053929828 0
1.5472232 0.71466196 -0.081876636 54.5
1.8841817 0.73970002 -0.11037476 2
2.8871405 0.6973595 -0.092113443 23.666666
-0.10223257 0.87822014 -0.13204253 0
0.15012781 0.8939386 -0.060851756 4
0.39727017 0.89202595 -0.046036124 4.5
0.52200818 0.88176501 -0.047120128 3.6923077
0.66000807 0.86542523 -0.081035361 3
0.82763642 0.85030192 -0.10293825 9.1000004
0.93037635 0.81484747 -0.12776639 3.6666667
1.4181877 0.81509775 -0.081904009 68.85714
-0.79891086 0.97285855 -0.054956906 5
-0.68236291 0.96733022 -0.07246235 5.181818
-0.53255397 0.95645511 -0.078776784 6.1875
-0.37833422 0.95293665 -0.083996192 7.0999999
-0.21851487 0.94179869 -0.055570565 7.5
-0.099778615 0.93090636 -0.096096754 6.4166665
0.075309366 0.91662377 -0.051947497 5
0.20805533 0.90718269 -0.11773258 5
0.36842677 0.90308183 -0.010189806 3.5
1.3414716 0.92839569 -0.097417958 66
1.366632 1.0053909 -0.091433078 139.5
1.9509416 1.3993169 -0.091077067 29
5.2100458 1.4256543 -0.058363769 82
5.1188989 1.5387332 -0.11379198 77
4.9738445 1.670033 -0.017640864 32
3.1093872 -1.4123507 0.078727685 60.666668
3.0844119 -1.2035189 0.018677199 15
3.1135952 -1.1876373 0.072029226 14
2.9421244 -0.93429738 0.12501091 23
3.1688459 -1.0110532 0.021002376 82
2.9850435 -0.78233308 0.079256825 21
3.1161032 -0.79274005 0.10094052 28
3.1715212 -0.79382038 0.11231136 58
3.1994743 -0.62465614 0.07124012 89.333336
-0.61414504 -0.46658367 0.063730635 2
-0.53349239 -0.4686293 0.077460349 2.0357144
-0.36586896 -0.46516842 0.097561441 2.3333333
-0.2432204 -0.46982405 0.074086443 2.1333334
3.2077498 -0.47644657 0.032103475 80
-0.62347978 -0.44473812 0.10596936 0
-0.54311484 -0.44481027 0.13788275 1.6666666
-0.37081847 -0.42509204 0.1304708 2.75
-0.29511932 -0.38288662 0.093696378 3
3.2183056 -0.37988093 0.032817528 89.666664
3.2315922 -0.22786421 0.028391611 88
3.2430129 -0.035238855 0.018761495 95
-0.72572947 0.13046153 0.094429456 0
3.1479626 0.14097257 0.015339936 43
-0.80511528 0.29607481 0.057580974 0
3.1434155 0.16708286 0.0023534847 40
3.0863345 0.32324144 0.018475557 36
3.1728995 0.36050445 0.013779636 31
-0.94923866 0.57065362 0.063533857 0
-0.83434731 0.57601565 0.068908438 0.03846154
-0.73232257 0.58645391 0.023146775 0
3.0589104 0.51041907 0.065264642 55
-0.77509111 0.60224533 0.08135131 0
-0.71025872 0.66013443 0.1041224 0
1.4882458 0.74616277 0.024707282 69
1.5738052 0.73287094 0.10280023 82.599998
1.7477033 0.73794854 0.040373113 9
2.899215 0.67619163 0.036224362 13.5
-0.093721725 0.8724699 0.021540876 0
0.26959419 0.89875352 0.058558814 3.5
0.35296515 0.89173287 0.023991587 3.2857144
0.51742536 0.87918067 0.11147106 1.6666666
0.66629004 0.86876887 0.11146834 5.6666665
0.82675749 0.85578448 0.090479568 6.4545455
0.91910666 0.84165603 0.085983224 5.6666665
1.4220686 0.82163888 0.078977615 66.222221
-0.78320903 0.97276813 0.06066047 5.4285712
-0.66594601 0.96528566 0.079222746 5.4285712
-0.53220373 0.95659989 0.050291423 6.3846154
-0.36747688 0.94682276 0.07282798 7
-0.21083508 0.93723989 0.096982643 6.909091
-0.083959214 0.92434382 0.056290463 4.9333334
0.090002082 0.91716248 0.10291464 4
0.21393394 0.90961933 0.077303089 4.1666665
0.33462676 0.90422797 0.022487169 4
1.3757025 0.94248885 0.068537191 57
5.4720426 1.5045438 0.044089433 88
5.3203292 1.7963785 0.083814405 32
3.1488719 -1.3851075 0.27967525 73
3.1504531 -1.3596678 0.26828289 77
0.55622321 -1.2633678 0.28305316 33
0.66836768 -1.2210115 0.25637728 24
0.06823384 -1.0835067 0.21034096 6.1428571
0.68430209 -1.1941159 0.29295129 48
3.1578133 -1.1856476 0.21525262 68
-0.0078236787 -1.0188143 0.2014519 5.5
3.1313853 -1.0089428 0.29083937 148
3.1824632 -0.80131638 0.2543245 93
3.1995559 -0.659536 0.22052473 84
-0.55414104 -0.4533073 0.17610106 1.2
-0.38363642 -0.4549706 0.16054684 2
-0.27768707 -0.4556433 0.16641378 2.5
3.2133012 -0.49806982 0.24026972 81.5
-0.6004594 -0.4428589 0.19691074 2
-0.51196349 -0.42746416 0.20025285 1.5
-0.39131096 -0.42340958 0.19968876 2.1538463
-0.28902873 -0.44628501 0.16953212 2
3.2203543 -0.35186309 0.18272722 80
3.2300589 -0.26074314 0.22391891 82.333336
3.24283 -0.089308985 0.20104995 82.75
3.2558315 0.098598599 0.21848807 81.199997
3.2721584 0.27038121 0.24240938 83.5
-0.78989643 0.42120224 0.1967108 2.8571429
2.9985371 0.43151414 0.23615503 46.5
3.0056143 0.40478906 0.18668383 49
3.2786365 0.33360103 0.1601423 82
-1.0598516 0.55845755 0.27150095 2
-0.97210842 0.54036814 0.22274709 1
-0.82613337 0.55533242 0.21617204 0.2
-0.73790681 0.52260613 0.259399 4.4000001
3.0329134 0.58484101 0.21547684 52
-1.0109646 0.60479259 0.22196907 0
-0.76265365 0.6161719 0.18683203 0
-0.71252906 0.65849155 0.25417674 3.2727273
1.580954 0.72820687 0.21521004 59.75
1.7236745 0.68035901 0.27456257 7
2.8757045 0.7229743 0.22959778 3.5
3.0147855 0.62410706 0.22481342 47
-0.76424307 0.85040826 0.20757157 2
-0.71713585 0.75258541 0.15256858 0
-0.066496626 0.89679438 0.23191547 0
0.28753805 0.89704597 0.25293413 1.5
0.38813788 0.88975352 0.22636823 2.8823528
0.5259167 0.8803184 0.23523539 4.909091
0.67610741 0.86937809 0.22790824 6.5714288
0.8216508 0.85842884 0.2303751 5.0666666
0.92840612 0.8428973 0.20434423 4
1.4472591 0.83242244 0.20917678 58.583332
1.5546273 0.76276678 0.27596378 57
1.6732177 0.75149137 0.20210183 150
2.9083734 0.76570284 0.25881785 21
-1.6351465 1.0299498 0.28177083 14
-0.7735998 0.96989751 0.22077186 6.3333335
-0.67912686 0.96399581 0.21599282 5.8888888
-0.52243888 0.95572191 0.21741825 6.25
-0.34652668 0.9445349 0.24292889 6.4000001
-0.24798863 0.93830258 0.20105799 6.5
-0.036646266 0.92659801 0.24183482 3.875
0.048297178 0.92166042 0.18404341 4.0714288
0.23398869 0.90556401 0.26381618 2.2222223
1.4373994 0.98505664 0.22891802 45.111111
1.4124058 1.0802132 0.24385907 8
1.9531906 1.3807186 0.29456282 74
5.3496284 1.6306076 0.19198653 53.5
3.1249998 -1.7306799 0.41607934 72
3.1426868 -1.5771785 0.36315298 32.666668
3.148869 -1.3907645 0.35937148 81
0.54012924 -1.2597393 0.33225879 71.5
0.61682075 -1.2165952 0.32999259 83
0.83764297 -1.2594694 0.30542731 31
3.0349631 -1.2759939 0.40462983 150
0.68614453 -1.1794454 0.37937367 9
2.9588158 -1.1286306 0.42157519 51.666668
3.0952384 -1.1460221 0.34314707 150
-1.4860616 -0.98023582 0.39630806 1
2.9402959 -0.96402562 0.38061371 80.25
3.1797323 -0.948237 0.30392891 80
3.0482996 -0.82145113 0.35486251 52.75
3.1984396 -0.67679763 0.34311551 83.25
-0.54599965 -0.48715127 0.43772519 0
-0.37640867 -0.47170466 0.40818161 0
3.2113903 -0.53955168 0.35118726 53
-1.5234486 -0.34014383 0.37471086 2.4000001
-1.4600946 -0.34299272 0.40745908 1
-0.47521728 -0.38113093 0.4274857 0
3.2230995 -0.38127977 0.37925214 73.5
-1.6781805 -0.28185126 0.39071584 6.5
-1.5499742 -0.25250942 0.36628169 0.5
-1.4532738 -0.26315942 0.39236954 2.4285715
3.2374778 -0.21177557 0.36370906 75
3.2471964 -0.041678235 0.35528219 71
3.259804 0.10325109 0.41877183 75.333336
3.2693489 0.22545087 0.39214668 76.666664
-1.5978967 0.37735042 0.33706918 19.666666
3.2765601 0.34919289 0.40119195 57
-1.7344189 0.54379839 0.40147889 6
-0.82093608 0.57857132 0.43521631 0
3.0300634 0.49940446 0.35631639 21
-1.6888751 0.64054054 0.33867675 144
-1.6147155 0.61758888 0.33208412 151
-1.1317837 0.69990355 0.3590939 2.25
-0.78507215 0.61570936 0.40035403 0
-0.68270016 0.68716258 0.32936919 4.5
1.3100147 0.74378693 0.33790267 17
1.4583369 0.68277591 0.34530771 17
1.5876254 0.71875191 0.31874442 83.5
1.7140355 0.67258978 0.36748499 32
2.9195864 0.69912589 0.39449403 5
3.1277046 0.63461387 0.39995155 22.666666
-1.6608286 0.80066806 0.40147954 8
-0.66452408 0.76609504 0.31153503 5
0.2641803 0.89629841 0.40608943 0.5
0.36310887 0.89352959 0.3640728 3.2631578
0.50487906 0.88109702 0.33471298 6.5
0.6672979 0.8703258 0.31235823 3.75
0.83584744 0.85330951 0.33247936 8
0.93162352 0.84542495 0.3345353 5
1.3163937 0.78761768 0.31896526 31
1.4280113 0.87590653 0.35452652 46.666668
1.5252535 0.78914702 0.3341538 47.5
2.9080677 0.76448452 0.37995222 34
-1.8181958 1.0175049 0.39983305 21.5
-1.7463626 0.98980886 0.42195037 30.666666
-1.5737685 1.0294726 0.35842133 6.625
-0.77699012 0.97169399 0.39383546 6.6666665
-0.6678074 0.96090794 0.36834469 6.4166665
-0.50112897 0.95472527 0.41465452 6.3333335
-0.40462902 0.9472329 0.35173213 5.9230771
-0.20250899 0.93598938 0.38910788 9.5625
-0.13647355 0.92681944 0.3445898 6
0.080719598 0.91629726 0.38494959 1.7857143
0.22601348 0.90704113 0.38228926 1.2222222
0.33365408 0.90229398 0.32651702 0.33333334
1.4016032 0.99581379 0.36803395 52.555557
5.0432682 1.4822807 0.3332656 3
5.2860141 1.5029534 0.40111476 10
3.1289303 -1.8096447 0.49344397 85
3.13538 -1.7849077 0.51397395 70.5
3.1441746 -1.5471628 0.50173986 73
3.1553867 -1.3829759 0.5401141 71.333336
3.0602946 -1.2164705 0.53724283 150
3.0357406 -1.135344 0.56632596 81
2.8748333 -0.9613362 0.51921844 48
3.1710374 -0.91704124 0.54382825 58
2.9876475 -0.83171147 0.55586082 114
3.0676436 -0.83503473 0.49648201 98
3.201076 -0.71693993 0.5136767 77
-0.53127176 -0.48013863 0.4671815 1
3.2137396 -0.55288613 0.48275104 78.75
-0.49455109 -0.42204404 0.4650526 1
3.2242405 -0.37836632 0.52527833 68.666664
3.2318041 -0.23565993 0.52849221 67
3.2459221 -0.078332976 0.52084768 67.75
3.2565119 0.087098278 0.54243368 68.333336
3.2665622 0.24754576 0.55106777 71.666664
3.217665 0.40189663 0.55250901 26.333334
-1.906806 0.51527697 0.58518505 117.5
-1.786309 0.55915606 0.46173197 6
-1.6154689 0.57597381 0.55853927 87
-0.86079484 0.57801199 0.48764408 0
3.0857384 0.54083419 0.5387035 9.333333
-1.8497605 0.63291132 0.5606252 82
-1.7684469 0.62064147 0.54747289 27
-0.79782641 0.65552551 0.59047574 0
-0.69602448 0.6933676 0.51971924 4.4000001
2.9152591 0.67209578 0.47875494 4
3.0924208 0.64915144 0.5926702 23
-1.7228538 0.86635005 0.50273192 40.285713
-0.0668201 0.86725354 0.58221447 1
0.224158 0.89990306 0.45972395 0
2.9072049 0.76259887 0.57470977 26
-2.0087006 0.97205341 0.50443697 2
-1.8841183 0.90225714 0.49884182 150
-1.716364 1.0190225 0.52464986 10.636364
-1.5746129 1.0313746 0.54330057 4.75
-0.63880855 0.96604759 0.54534835 6
-0.53262937 0.95677888 0.51011336 6
-0.34387553 0.94742161 0.54755032 5.6666665
-0.25310034 0.93977576 0.50420654 6.5555553
-0.044278469 0.92435807 0.54123157 1.625
0.080817401 0.91561395 0.52768528 3.3043478
0.19310874 0.90944451 0.48948085 1
1.4157829 0.98017943 0.47454023 62
5.4894547 1.4943973 0.58084208 89
3.137239 -1.7398345 0.70006961 66
3.1426456 -1.5710505 0.62158126 69
3.153738 -1.5770791 0.71873355 65
3.1474109 -1.428068 0.63553131 67
3.1586657 -1.381089 0.68220872 65.5
3.1189921 -1.2132361 0.62509978 78
3.1602964 -1.2668939 0.67287683 72
3.0017111 -1.103349 0.74957395 109
3.1590161 -1.1933333 0.71597743 39
2.9388475 -0.96831429 0.67278427 64
2.9539075 -0.81962436 0.62805015 94.5
3.0949907 -0.69655204 0.62786806 150
3.2148387 -0.55941629 0.62682581 73.5
3.222069 -0.43976507 0.60281837 67
-1.7454848 0.14387447 0.61547077 0
-1.8755319 0.28288004 0.69525892 60.57143
-2.3381112 0.42946497 0.71048737 97
-2.1601093 0.42713845 0.70006984 105
-2.025892 0.44028819 0.72485965 54.5
-2.2537227 0.57322866 0.72492516 8
-2.0021448 0.55473018 0.68147343 150.33333
-1.8342836 0.56707215 0.72380614 80.25
-1.6692365 0.57796592 0.74540341 0
-0.81528711 0.53579974 0.71127403 5.5555553
-0.74968159 0.55011839 0.74518442 3
-1.9501512 0.61573154 0.737795 135
-1.813993 0.69102955 0.66945183 30
-1.7799888 0.66326928 0.62913042 72.333336
-0.90579885 0.61334586 0.65800762 1
-0.80384797 0.62539083 0.69132096 7.5999999
-0.68830591 0.69516999 0.61890841 2
2.9926257 0.66111219 0.7153486 22
-0.084786057 0.88319749 0.67871875 0.33333334
2.9183786 0.79038984 0.71635914 8
-1.8570365 1.0267603 0.73273504 9
-1.7231899 0.9638257 0.65567547 31.666666
-0.66634709 0.96848845 0.67774093 6
-0.54503345 0.96528959 0.66600174 5.4000001
-0.39143312 0.95114881 0.66833472 5.181818
-0.21891122 0.94001162 0.66761959 7.4000001
-0.075236171 0.9285031 0.69214433 7.0833335
0.036271956 0.9189862 0.65903801 4
-1.7325363 1.0533032 0.73864651 2
4.9763441 1.5253793 0.72795844 28
5.4312291 1.6180054 0.68288159 67
5.4503684 1.8033181 0.64279306 77
3.1403823 -1.7846692 0.85555011 63
3.144182 -1.577705 0.83222359 57.333332
3.1461084 -1.4427345 0.75067878 66
3.1582456 -1.3841866 0.82876438 61.5
3.0822434 -1.2126076 0.77629244 150
3.1557772 -1.3197886 0.8714484 58
-2.6475275 -1.0731223 0.89496434 32
-2.6206009 -0.85062683 0.87704968 75
2.9587145 -0.86577469 0.80123603 60
3.1309352 -0.82611287 0.85996342 150
3.1708601 -0.75456113 0.8670367 118
3.2116249 -0.62237692 0.83176166 68
3.2180934 -0.47698081 0.80550152 66.5
3.2335806 -0.33311635 0.78891152 66.5
-2.5879097 -0.25797999 0.87050235 90.5
3.2445345 -0.18882689 0.77625859 66.5
-2.5693226 -0.072017685 0.85418367 82.5
3.2517715 -0.044228368 0.76895404 63
-2.5984998 0.11249939 0.86248231 50.5
3.2594681 0.1022499 0.76793408 62.5
-2.5831757 0.29224735 0.82298374 45
-2.0278184 0.28022394 0.76956487 164
-1.8695793 0.20258071 0.81021786 27.285715
3.2706552 0.2508164 0.77415383 67.5
-2.5802536 0.30196959 0.86935782 104
-2.1744361 0.44280487 0.78929728 105
-2.0841746 0.44267374 0.77330554 107.5
-1.8776606 0.37268946 0.81055546 61
-1.7754402 0.36196923 0.87210637 28.333334
-0.84706163 0.42946914 0.80143631 1.5
3.2849238 0.40197459 0.78786278 48
-2.0054579 0.50652015 0.78638172 48.75
-1.8480107 0.48729482 0.83069122 61.75
-1.739102 0.48682499 0.84047109 33.666668
-0.83585465 0.46957326 0.7701928 0.40000001
-0.71097833 0.53027278 0.80969 0.40000001
3.2728543 0.55231369 0.79932213 47
-2.0386095 0.60985947 0.77403146 58
-1.8310088 0.64404863 0.80771828 91
-1.7942594 0.62389493 0.79719257 58
-0.75467241 0.68760139 0.83559334 5
3.0736594 0.65210837 0.77395451 21
-0.70340478 0.96743935 0.80399722 27.4
-0.50447166 0.95476425 0.83814651 14.666667
-0.39045137 0.95020896 0.81960356 14.4
-0.20250155 0.94118828 0.82133132 8.5
-0.0915021 0.92456311 0.83339959 15
1.9575939 1.430071 0.80477345 5
5.2851696 1.6538441 0.78379673 35
5.1417341 -3.0391579 1.0073035 82
-2.7328854 -2.1629813 0.94155157 29
3.1342227 -1.8125077 0.94872761 43
3.1463451 -1.7289062 0.99390984 60.5
3.1500261 -1.663434 1.0417601 56
-2.6846855 -1.6157105 1.0391827 21
3.161021 -1.5867273 0.95553553 57
-2.6716037 -1.4839923 1.0223839 27
3.1657884 -1.4446332 0.9962433 57
-2.6603901 -1.3009156 0.99587697 46
3.1748991 -1.2190843 0.99935007 51
-2.6429515 -1.0915852 0.97382456 65.5
3.1829476 -1.0659007 0.94602454 67
-2.6345153 -1.0076188 0.99637258 63
-2.6178827 -0.83036804 0.98234046 78.5
-2.5783315 -0.2165931 0.99388963 87.599998
-2.5650451 -0.043283451 0.96596074 85.25
-2.5807841 0.088379025 1.0017148 90.666664
-2.582912 0.20115566 0.96768975 97
-2.5719991 0.35000888 0.98072302 101.25
-2.5586579 0.47480962 0.90151763 121
-0.77351499 0.9699325 0.91510189 37
-0.66358936 0.9665944 0.97415894 30.666666
-0.54393494 0.95568967 0.9760173 35
-0.35412347 0.94399798 0.99273241 42.5
-0.21410412 0.93525237 0.95506978 30.416666
-0.13431855 0.92942387 1.0039107 54.333332
5.4978828 1.5146202 1.015625 80
5.5048738 1.7156305 0.97459614 88
5.1192122 -3.3558958 1.1657082 78
5.134994 -3.1938326 1.1716328 81
5.1427126 -3.1449063 1.0840501 80
-2.7539334 -2.4719157 1.1851249 5
-2.7363126 -2.2861068 1.1763394 5
-2.7179537 -2.112668 1.1604186 1
-2.7090054 -1.8127912 1.1514374 31
3.1334386 -1.836687 1.1399642 7
-2.7219291 -1.7890207 1.122523 10
-2.6838133 -1.672959 1.1436813 46
3.1536567 -1.7353315 1.1880872 53
-2.6721826 -1.5246186 1.1252154 44
3.1614254 -1.5393794 1.1345875 51
-2.664448 -1.4418234 1.1370094 50
3.171757 -1.3604913 1.088469 62
-2.657053 -1.2766753 1.118944 54.333332
-2.6425276 -1.153324 1.1605961 56
-2.6324053 -0.98606169 1.1197963 63.799999
-2.6171036 -0.80551076 1.1279045 74
-2.6157908 -0.74327582 1.1424249 74
-2.5839782 -0.34617567 1.1433874 83.166664
-2.5747635 -0.18072528 1.1190844 84
-2.5649629 -0.099877827 1.1428841 84
-2.5599422 0.037345931 1.1360706 90.333336
-2.5743859 0.20490699 1.1100086 103.8
-2.5698173 0.3649193 1.0535194 95
-2.548439 0.59468699 1.1157027 34
-0.94762719 0.98760659 1.1207172 26
-0.8117643 0.97643358 1.108034 46.666668
-0.65120572 0.96428031 1.1302339 47.799999
-0.53783256 0.95814914 1.1057905 48.333332
-0.35689068 0.94694173 1.129002 47.142857
-0.23165826 0.93813759 1.1250309 48.454544
-0.11296831 0.92846942 1.1221503 49
5.4959373 1.5059932 1.1993612 80
5.5034313 1.6764921 1.0816627 93
5.5176821 1.8219392 1.0734345 71
5.1041346 -3.6892996 1.3444281 64
5.1178579 -3.479881 1.2703538 77
5.1022944 -3.4317868 1.3006492 84
-2.7931278 -3.0840201 1.3355525 13
5.1443768 -3.0662353 1.292994 75.333336
-2.774168 -2.9028437 1.3132999 26
-2.7605095 -2.6627133 1.2937493 31.666666
-2.7453532 -2.5111403 1.2964274 40
-2.7252336 -2.313293 1.2625039 36
-2.7201364 -2.1895421 1.2941917 38.333332
-2.7125037 -1.9951524 1.2495989 8
-2.7058172 -1.8814152 1.2300935 41
-2.6962457 -1.8746786 1.2988319 43.5
-2.6847277 -1.6977689 1.2258589 44
3.149081 -1.6763884 1.2413018 52
-2.6765163 -1.5666637 1.290867 46.5
-2.6583531 -1.3828607 1.2788035 49.333332
-2.6496623 -1.271732 1.266358 48.333332
-2.6366534 -1.1140574 1.2673154 58.333332
-2.623759 -0.95232272 1.2814255 58.5
-2.6150129 -0.8313694 1.2339722 67
-2.6080582 -0.70174032 1.2926406 72.5
-2.5886943 -0.49803066 1.2705467 84.25
-2.5791523 -0.31611186 1.2654493 84
-2.5755973 -0.29066604 1.2431049 83.5
-2.5631218 -0.11311229 1.2523772 83.333336
-2.5655649 0.074977994 1.2476749 88
-0.95883131 0.96171182 1.2350627 150
-0.82153749 0.98223627 1.3090165 47
-0.6994794 0.97090852 1.2739981 45.799999
-0.52039415 0.96356452 1.3059825 49
-0.35197842 0.94725674 1.2743155 44.833332
-0.24166986 0.94262969 1.2813147 40.75
-0.14708172 0.93048853 1.242039 39
5.4964666 1.5656053 1.30352 87
5.5142288 1.7816089 1.2775997 83
5.1071343 -3.543988 1.3831792 74
5.1138873 -3.4046254 1.4546694 76
5.1393685 -3.0422654 1.3998449 69
-2.7776055 -2.9300916 1.4477397 35.75
-2.7480574 -2.5552731 1.4244727 42
-2.7450511 -2.5016387 1.4043506 41
-2.7273545 -2.3174365 1.4733099 38
-2.7146027 -2.1402194 1.3836856 38.333332
-2.7002058 -1.9744954 1.4371065 35
-2.7053838 -1.8017921 1.3553886 35
-2.6964209 -1.8879175 1.364838 39
-2.6816976 -1.6917766 1.4373231 37.5
-2.6716659 -1.5624027 1.4791124 39
-2.6641886 -1.4175551 1.4074111 46
-2.6482062 -1.3001733 1.4537842 41
-2.6365616 -1.1288632 1.3935375 53
-2.6297324 -0.94961405 1.3660306 57
-2.6089928 -0.82521182 1.4589812 61
-2.6043706 -0.68336701 1.442073 69
-2.5907276 -0.51473159 1.4505548 71.666664
-2.5845082 -0.35818827 1.4334971 71
-2.5658145 -0.21819913 1.4030381 80.333336
-2.5603511 -0.070359051 1.4047434 75.25
-2.5727446 0.094140239 1.4303333 78.25
-2.573976 0.19437088 1.4218775 88.5
-2.5642884 0.33982217 1.4773918 127
-0.81311911 0.99531269 1.4682366 63.5
-0.68840271 0.96848434 1.3673745 43
-0.48081234 0.97030115 1.4134817 60.5
-0.38110456 0.96167898 1.4235945 52.833332
-0.22232525 0.94526488 1.4091851 48.333332
5.5178556 1.6923839 1.3922489 86
5.5190859 1.8604919 1.3862231 46
5.0877829 -3.9763145 1.5864131 64
5.0788751 -3.7799008 1.5206057 82
-2.822561 -3.453347 1.5052545 13
-2.8167121 -3.4148264 1.5371208 31
5.1243591 -3.3551779 1.5490497 66.5
-2.7851763 -3.1579702 1.560185 30
5.1490278 -3.0982919 1.5547755 75
-2.7736571 -2.935776 1.6080085 34
5.1502037 -2.9961469 1.5147625 53
-2.7617607 -2.7299912 1.5930012 37
-2.7368329 -2.5181429 1.5631895 37
-2.7309299 -2.3515439 1.5864637 39.5
-2.7084219 -2.1581771 1.5282439 36
-2.704937 -2.0134616 1.54919 42.5
-2.6949613 -1.8859167 1.5690835 38
-2.6805127 -1.7152433 1.5677289 34
-2.6737065 -1.5805742 1.5972891 38.5
-2.6609712 -1.4079031 1.5495113 43.5
-2.6476154 -1.2250755 1.5467036 51
-2.6361542 -1.1190758 1.5075954 50
-2.6248209 -0.96655607 1.5523332 54
-2.6080642 -0.75436658 1.6463088 66
-2.610781 -0.70619982 1.5904852 61
-2.5870621 -0.48659495 1.6041021 69.333336
-2.5723596 -0.30354172 1.5870025 69
-2.5724134 -0.25731468 1.56836 68.5
-2.5575216 -0.065441653 1.5736883 71.5
-2.5726438 0.12132706 1.5708874 77
-2.579206 0.15842304 1.5858991 76
-2.5590465 0.35489798 1.583203 75.666664
-2.542361 0.57144243 1.6081985 45
-2.5380917 0.61900461 1.643983 24
-0.83895898 0.99978471 1.5724219 75.25
-0.68039966 0.99745589 1.517754 67.5
-0.49831846 0.98144203 1.5836774 62.833332
-0.3543379 0.96317357 1.5610291 59
-0.23715931 0.9569447 1.5705709 47.5
5.5125194 1.7257605 1.6247004 84
5.0575838 -4.3993378 1.7669772 57
4.5252428 -4.3340077 1.7956711 29
4.4776616 -4.0568833 1.7997462 28
5.0687571 -4.1528759 1.773306 69
4.815731 -3.9226887 1.7959033 18
4.2481031 -3.8328314 1.7974898 32
-2.8540804 -3.6956885 1.7454561 39
4.0939708 -3.6951821 1.7967073 34
4.5923414 -3.7336354 1.7900389 27
5.084878 -3.7328854 1.7143031 60.5
5.1007404 -3.6657815 1.7387446 72
3.5479867 -3.5608666 1.7995445 31
3.9849503 -3.5895789 1.7963496 24
4.4347005 -3.5851142 1.7874666 27
4.9091015 -3.5589726 1.7824801 28
-2.8073387 -3.4184661 1.6532151 25
3.6957009 -3.3062642 1.7953655 16
4.0399675 -3.3163297 1.797369 33.5
4.1408191 -3.3671813 1.7820619 24
4.4651155 -3.3239436 1.7876018 32
4.5728612 -3.3938222 1.7976688 27
4.657764 -3.4299903 1.7812189 26
4.9607043 -3.3375571 1.7911495 27
5.120872 -3.3860738 1.7324752 61.666668
-2.798645 -3.2245834 1.6787573 32
3.2711451 -3.2161906 1.7978753 40
-2.7888923 -3.1468353 1.6816221 31
3.4231339 -3.0487764 1.7954873 35
3.8122456 -3.088659 1.7951335 32
4.2049313 -3.0928824 1.7828969 50
4.4337807 -3.0266454 1.7953993 30
4.6378002 -3.0851588 1.7770876 30
4.9061499 -3.0167544 1.7979842 25
5.0999246 -3.0542569 1.7727498 28
5.1517429 -3.1333892 1.6694247 66
2.9270489 -2.8534842 1.7990659 38
3.232893 -2.8689053 1.7946049 38
3.552129 -2.8657703 1.7874948 32
4.2661881 -2.9722767 1.7977713 30
4.6340609 -2.9287441 1.7940546 25
5.0233722 -2.868664 1.7931694 26
2.5448985 -2.723526 1.7964607 42
2.8177264 -2.73212 1.7991811 44
3.0894756 -2.7184694 1.794922 39
3.6019657 -2.743154 1.7957135 34
3.8735645 -2.8387582 1.7765251 29
3.9346473 -2.7215118 1.791999 29
4.2226238 -2.8013964 1.7728535 29
4.5758262 -2.7391872 1.7664503 28
-2.7459679 -2.6089683 1.7660921 24
-2.4021387 -2.5574844 1.7959474 40
3.3645096 -2.6878848 1.7908815 37
3.6385822 -2.6363103 1.7838145 30
3.9107869 -2.5657058 1.7743016 28
4.2824745 -2.6822121 1.7903935 29
-2.4040437 -2.4061384 1.7272526 5
3.5594361 -2.4726305 1.7993053 32
3.8204749 -2.4119306 1.7956978 27
4.1866961 -2.479075 1.7694765 28
-2.7219372 -2.2529063 1.6846722 40
-2.3929749 -2.3593524 1.7892361 39.5
-2.7243409 -2.1977115 1.7241031 44
-2.3847699 -2.1952114 1.737749 8
-2.4288108 -2.0938227 1.7541298 5
-2.3645208 -1.9872767 1.7428049 35
-2.6928966 -1.8410728 1.6580263 40
-2.6648605 -1.7483587 1.7581524 15
-2.3561842 -1.6886761 1.7326179 14.5
-2.6434007 -1.5275795 1.7522699 12
-2.6664541 -1.464114 1.7217377 42
-2.6492822 -1.260959 1.7279073 53
-2.6253293 -1.1498117 1.7314959 28.666666
-2.6312165 -1.0001138 1.6873971 56
-2.2924242 -0.90399373 1.7447885 40
-2.5990057 -0.85200667 1.753466 48.666668
-2.4849031 -0.85550892 1.7926227 60
-2.5937424 -0.65052772 1.7270894 56
-2.4906151 -0.64825571 1.7939736 68
-2.2816834 -0.66857386 1.7522006 27.5
-2.5716691 -0.55731708 1.7808613 48
-2.3957496 -0.49328876 1.790722 35
-2.5743217 -0.4252263 1.7148093 55.5
-2.5167785 -0.39350349 1.7708594 57
-2.2510676 -0.44550493 1.7405812 55
-2.5652528 -0.21657503 1.6898866 67.5
-2.4502087 -0.26297456 1.7885048 72
-2.2435408 -0.24501693 1.754607 40
-2.5544508 -0.017302249 1.6766387 75
-2.4916506 -0.065792359 1.7343651 64.5
-2.2747202 -0.055980593 1.7235442 10
-2.2287459 -0.090703048 1.773978 63
-2.4780464 0.11747529 1.7659149 69
-2.3390267 0.14204606 1.7764145 53
-2.2097778 0.098915346 1.7402347 66
-2.5679562 0.21760245 1.7020297 74.666664
-2.1977301 0.26285863 1.7453994 72
-2.551434 0.40728322 1.6522213 71
-2.4538558 0.34896362 1.7840804 75.5
-2.3518238 0.34616768 1.7794327 83
-2.2004213 0.31222212 1.7393546 44
-2.4820306 0.5316813 1.7758994 82
-2.3567743 0.55328 1.779853 76
-2.1898732 0.48372951 1.7244512 50
-2.4649024 0.70712399 1.7483575 65.5
-2.5764651 0.85582078 1.6856419 19
-0.91368598 1.0034789 1.7517201 25
-0.84865528 0.9977178 1.73492 32
-0.65996063 0.98393726 1.7431859 25.333334
-0.53110713 0.96970546 1.7447634 23
-0.38327408 0.9474799 1.7359816 24.571428
-0.24994148 0.94402355 1.7405318 21
5.5037532 1.6540797 1.6916221 71
2.0871794 -4.5116987 1.8435746 40
3.990267 -4.5061975 1.8071982 27
2.1955307 -4.4473181 1.839699 40
2.3021812 -4.4577827 1.8453659 40
1.698573 -4.2274551 1.8391397 43
3.9970939 -4.2172575 1.8034211 27
1.8489034 -4.1709023 1.8388871 46
2.1682029 -4.0607433 1.8438748 18
4.8381138 -4.1146259 1.8086902 30
1.4213426 -3.9615355 1.8482126 24
1.524652 -3.9223645 1.8446938 40
3.9256527 -3.926327 1.813589 25
4.1844454 -3.9496982 1.8090955 27
1.7604175 -3.7789023 1.842347 53
1.9604425 -3.772737 1.839871 49
3.414058 -3.7682333 1.8131174 32
3.6191404 -3.7850237 1.8126966 22
1.0993259 -3.7310915 1.8497635 52.5
1.2179002 -3.7009759 1.8547612 57
2.1489465 -3.7454934 1.8290852 48
2.3199005 -3.6817126 1.8219353 45
2.9744191 -3.6243808 1.8204716 38
3.1316166 -3.6271243 1.8215843 36
3.3065 -3.6474497 1.8171405 31
3.6299343 -3.635036 1.8001078 28
3.7554734 -3.7461045 1.8081092 32
4.128099 -3.6309531 1.8109699 32
4.6676774 -3.7129846 1.8062619 27
0.81669861 -3.5164785 1.8522136 54
0.94010299 -3.4764202 1.8526706 51
1.4217037 -3.538312 1.8509754 55
1.6160055 -3.5571544 1.842919 53
1.8099868 -3.5670094 1.8337885 52
1.9926546 -3.5447018 1.8277172 49
2.5811617 -3.4765913 1.8248705 48
2.7867584 -3.4688816 1.8133409 40
2.8814616 -3.5195649 1.8137478 40
3.145848 -3.5202441 1.8077897 32
3.2054813 -3.5619233 1.8067514 30
3.6382544 -3.5332744 1.8147773 28
1.3122002 -3.3477914 1.8437451 49
1.5069264 -3.393604 1.8380677 49
1.6925458 -3.4032187 1.8306788 55
2.2268674 -3.3309307 1.8292967 51
2.4555533 -3.3933058 1.8203596 45.666668
2.8099966 -3.3214543 1.8281864 39
3.200537 -3.4288044 1.8198625 36
0.65698469 -3.2833564 1.8544134 32
1.0470428 -3.1552436 1.8486809 53
1.1203772 -3.2960305 1.8498901 49
1.2324289 -3.2229068 1.8408595 50
1.4197328 -3.2645149 1.8362871 54
1.7611217 -3.1975527 1.8307835 55
1.8649987 -3.173955 1.8312278 50
2.0685785 -3.2935214 1.8231901 53
2.1432719 -3.2803864 1.8230485 52.5
2.314961 -3.2995491 1.832456 46
2.4488974 -3.1980217 1.8295494 44
2.9169583 -3.1629872 1.8249209 19.5
3.2057531 -3.1880121 1.8096707 41.5
3.615428 -3.268055 1.8101428 34
-2.7682507 -3.0453031 1.8024791 12
0.86113638 -3.071794 1.8471977 56
0.98344952 -3.0479777 1.836917 50
1.1710802 -3.126405 1.8408064 55
1.4740176 -3.0901761 1.8371116 52
1.585488 -3.0471456 1.8360142 49
1.7027714 -3.0176113 1.868163 12
1.9782529 -3.1405938 1.8381568 53
2.126796 -3.0764921 1.834644 49
2.265974 -3.0042944 1.8251466 48
2.5494032 -3.0168207 1.8060926 44
2.5658567 -3.0832279 1.8195118 40
2.7963109 -3.0610197 1.8197285 42
3.075815 -3.0069768 1.8036584 38
3.2625816 -3.002229 1.8144118 37
3.5757132 -3.0024188 1.8055714 35
3.613143 -3.0003974 1.8071502 32
4.0141435 -3.026701 1.8043176 33
-2.7178526 -2.994494 1.8272632 59
0.64029163 -2.8771276 1.8583773 23
0.78547978 -2.9220788 1.8408463 60.5
0.93607706 -2.9738872 1.834165 57
1.2691108 -2.9352672 1.835116 52
1.3833671 -2.9096735 1.8415943 59
1.8335404 -2.9498327 1.8344432 46
1.985404 -2.9119477 1.8267096 46
2.2436242 -2.9148228 1.8120152 47
2.3765721 -2.8893566 1.8144022 45
2.4487514 -2.9151747 1.8159994 46
2.6597035 -2.9415948 1.8179346 45
2.7498786 -2.9488766 1.8088578 42
2.9300239 -2.9437385 1.8176519 42.5
3.253021 -2.9660716 1.8159877 38
3.9137537 -2.9971621 1.8021821 30
-2.5779588 -2.7026463 1.8345469 23
-2.4292817 -2.7710969 1.8384569 41
0.72810471 -2.7724209 1.8354775 62.5
0.9954654 -2.8252435 1.8363286 60
1.1263468 -2.771481 1.8369045 59.5
1.4489154 -2.7682199 1.835925 52
1.6072602 -2.7669487 1.8315377 46.5
1.726053 -2.81515 1.8278135 46
1.8862948 -2.7442684 1.8264133 49.333332
2.0308609 -2.7681878 1.812608 47
2.1440015 -2.8280928 1.8207513 49.666668
2.3163066 -2.754607 1.8117296 46
2.610816 -2.8330762 1.8115525 46
2.7049615 -2.717428 1.812198 43
2.992573 -2.743768 1.80998 39
3.2949889 -2.7533426 1.805549 36
-2.3126144 -2.5661137 1.8930477 50
0.5227226 -2.5868676 1.8403443 4
0.61661386 -2.5561202 1.8407761 57
0.85358524 -2.6645088 1.8360955 59.5
0.94718856 -2.6314988 1.8381561 65
1.1432581 -2.6185045 1.840475 58.5
1.2745473 -2.6214635 1.8336865 56.666668
1.4544663 -2.6070838 1.8232231 54.5
1.6051297 -2.5933673 1.8163027 50.333332
1.7188345 -2.6395662 1.8214229 50.333332
1.8693634 -2.6319208 1.81778 48.333332
2.0386527 -2.6849759 1.8181825 47.5
2.1783178 -2.633471 1.8183881 44
2.3177474 -2.5524101 1.8158528 47
2.4914248 -2.6193907 1.8123273 44
2.7893112 -2.5548596 1.8048772 40
-2.5703576 -2.4266641 1.8111194 56
0.52659082 -2.4035754 1.8437947 65
0.70183235 -2.5302982 1.8435658 57
0.82443762 -2.4568639 1.8411757 60
0.97212934 -2.4792755 1.8400315 56.333332
1.1154239 -2.479887 1.8241273 57.5
1.2664615 -2.4383988 1.8218502 56.25
1.4198378 -2.4990029 1.8180673 52.599998
1.5552169 -2.5085106 1.8321329 47
1.6824322 -2.4809589 1.8187708 45.5
1.8747969 -2.5017676 1.8237373 47
2.0972562 -2.5380237 1.8239874 49
3.0507307 -2.5492575 1.809548 43
3.3026483 -2.5183766 1.8048416 41
-2.6234288 -2.3671076 1.8157035 55
-2.3731737 -2.2813859 1.8850092 80
0.59453923 -2.3783519 1.8440419 65
0.71631867 -2.3061671 1.8416888 59
0.81756729 -2.330842 1.8331035 60
0.98151958 -2.3112602 1.8278917 58
1.1178707 -2.3293955 1.830027 56.666668
1.2824976 -2.3550425 1.8219402 54.5
1.45393 -2.3990657 1.816069 56
4.1196055 -2.3538506 1.8094095 19
-2.6227486 -2.1237271 1.810661 59
-2.5349884 -2.1990747 1.8110605 54
-2.1448765 -2.1898751 1.8826858 63
0.55854386 -2.1982892 1.8434712 42
0.66254508 -2.1913323 1.831775 61.5
0.81268239 -2.1547053 1.8336226 62
0.9490785 -2.2164097 1.83281 57.333332
-2.6738429 -2.0692508 1.8104299 62
-2.5056238 -2.0000856 1.8235301 5
-2.3630214 -1.9570332 1.8118609 43
-2.0556161 -2.021076 1.8857037 62
-1.9330142 -1.9556376 1.8777565 45
0.53300726 -2.0805535 1.8300341 29
0.64632636 -2.0546529 1.8503419 35.333332
-2.6189466 -1.8757066 1.8082669 56.5
-2.5361352 -1.8827404 1.8067185 69
-2.2157784 -1.9235649 1.8800412 63
-1.9998785 -1.8840604 1.8756166 55.666668
0.52642858 -1.9281917 1.8328048 54.5
-2.5176749 -1.7201566 1.807531 61
-2.2761528 -1.6689136 1.8780075 55
-2.1158922 -1.7728654 1.8758107 55
-2.014138 -1.6835216 1.8764352 60.666668
-1.9066217 -1.7433026 1.8769013 63.5
-2.5991199 -1.6411803 1.8111086 54.5
-2.4722393 -1.5376062 1.8125302 14
-2.1429543 -1.5897782 1.8774714 58.5
-1.9668596 -1.5279455 1.872763 61
-1.9338011 -1.5315076 1.8719162 69
-1.5455699 -1.5242814 1.8642386 53.5
-1.4866498 -1.5141298 1.8582224 28
-2.6296356 -1.3895514 1.8045472 57.5
-2.5080075 -1.4837537 1.8144666 34
-2.3277469 -1.4222689 1.8731314 64
-2.1480153 -1.3998562 1.8656844 56
-2.0558894 -1.4596049 1.8698624 59.666668
-1.6857544 -1.4471407 1.8698331 68
-1.6124296 -1.3622642 1.8697623 64
-1.4383488 -1.4194676 1.8643136 77
-0.023388464 -1.3693153 1.8339854 54
0.057561003 -1.4391526 1.832371 63.200001
-2.561904 -1.2322115 1.8071536 62
-2.4908497 -1.2833936 1.8060595 59
-2.1566434 -1.2611833 1.8715053 59
-2.0088747 -1.3125616 1.8712639 60.333332
-1.7513443 -1.2516421 1.8745679 63
-1.557487 -1.310109 1.860783 72.666664
-1.4638633 -1.3041569 1.86202 76
-1.1269364 -1.2730844 1.8556073 81.75
0.022880089 -1.3402022 1.8387545 71
-2.5143132 -1.0637665 1.8052206 62.5
-2.2933764 -1.1276658 1.8410715 53
-2.1864598 -1.1780882 1.8642479 66
-2.0378029 -1.1124444 1.8665706 63.666668
-1.6638986 -1.1739576 1.861266 66
-1.5693556 -1.1243385 1.8579569 70.599998
-1.4805484 -1.1711138 1.8595854 73
-1.2550199 -1.1557076 1.8594054 73
-1.1208314 -1.1230981 1.8548477 80
-1.0230299 -1.087864 1.8571578 81
-2.573544 -1.0009862 1.8035539 69
-2.1771612 -1.004478 1.8648528 62.333332
-2.0513961 -0.94103593 1.8651601 54
-1.7294359 -0.99629098 1.8570046 64.333336
-1.5763408 -0.96758699 1.8609759 56.200001
-1.2615525 -0.96962547 1.8593235 49.666668
-1.120937 -0.96955574 1.8600156 49.400002
-1.0351651 -1.0062401 1.8589705 78
-0.84190577 -0.91907609 1.844401 30
-0.64063627 -0.93471766 1.8332878 24
-0.5033232 -0.91226768 1.8351575 24.5
-0.39055061 -0.90736121 1.8306062 18
-2.5755568 -0.84173912 1.8032247 72
-2.2892678 -0.87929946 1.8480784 57
-2.1863461 -0.79597104 1.8665215 56
-2.0915561 -0.87862033 1.8675004 27
-1.8469057 -0.86533999 1.8714579 27
-1.7186276 -0.7914986 1.8600349 34
-1.5913271 -0.80874258 1.8600442 40.75
-1.3661658 -0.83708054 1.8637882 36
-1.2412491 -0.80341548 1.8568156 50
-1.108688 -0.81724381 1.8569698 57.25
-0.95290542 -0.80140495 1.8421823 58.5
-0.82585901 -0.83291095 1.8414977 56
-0.68234849 -0.82830167 1.835163 55.5
-0.535124 -0.81330985 1.8283833 63.166668
-0.38487145 -0.83880806 1.8300442 41.833332
-0.26573151 -0.83496475 1.826165 37.5
-2.175036 -0.64567447 1.8604342 72.333336
-2.0359266 -0.7327038 1.8598639 47
-1.8777583 -0.67380702 1.8618988 67
-1.7276225 -0.6333077 1.8596183 68.333336
-1.5959526 -0.65201259 1.8579288 70.666664
-1.405203 -0.67773169 1.857509 76
-1.2760906 -0.65930569 1.8545758 85
-1.1440421 -0.66257888 1.8511362 93
-0.97445017 -0.67154509 1.8401912 79.666664
-0.80884665 -0.65183246 1.8369212 82.666664
-0.68042809 -0.68998802 1.8319252 80.599998
-0.51861292 -0.66425717 1.829686 76.14286
-0.38104528 -0.67882949 1.8247931 70.199997
-2.2574954 -0.54097301 1.8490123 80
-2.1352139 -0.54736978 1.8654262 73
-2.0388243 -0.55071193 1.8531417 81
-1.8649893 -0.47763547 1.8580887 72.5
-1.7122765 -0.49372542 1.8575236 69.75
-1.5893948 -0.51812637 1.8555952 69.5
-1.4014313 -0.51497531 1.8604807 77.5
-1.2878867 -0.51895756 1.8523555 86.666664
-1.1393883 -0.54147571 1.8440131 76.5
-0.96237701 -0.52752072 1.8390018 78.333336
-0.80432075 -0.51858628 1.8357762 82.571426
-0.68936837 -0.52974039 1.8326716 84.25
-0.52465171 -0.5279603 1.8293182 78.444443
-0.38274968 -0.50035208 1.826291 77.5
-2.2535033 -0.43693796 1.8407708 64
-2.1845496 -0.37017 1.8482771 70.5
-2.0480118 -0.37423953 1.8611134 77
-1.9311696 -0.30224761 1.8580662 81
-1.7213415 -0.34128937 1.8576189 75
-1.5983717 -0.36485541 1.8551992 74
-1.4039251 -0.36589321 1.8577272 86.666664
-1.269945 -0.37998852 1.8527712 91
-1.1354073 -0.3945559 1.8424457 71.5
-0.97814637 -0.37508842 1.842399 78.666664
-0.82404017 -0.38067889 1.8362904 76.333336
-0.66806662 -0.36510983 1.8314176 79.63636
-0.51791346 -0.38225919 1.8323809 78.199997
-0.41202563 -0.378405 1.8303279 84
-2.2061076 -0.23079994 1.8593723 74.5
-2.043493 -0.19940536 1.8533803 76
-1.850262 -0.29531479 1.8594211 83
-1.7743495 -0.27114591 1.8541955 80.5
-1.6019006 -0.21223414 1.8531505 87
-1.4207439 -0.21504295 1.8533754 93
-1.2588573 -0.2352463 1.848429 89.599998
-1.1194763 -0.20307492 1.8429222 77
-0.97867018 -0.22521514 1.8349136 78
-0.822945 -0.22630413 1.831996 79.599998
-0.68504727 -0.21326192 1.8294525 77.199997
-0.53978932 -0.23419006 1.8304526 76.599998
-0.43245465 -0.25785178 1.8287849 80.5
-2.1824734 -0.070605882 1.8526362 78.333336
-2.0403411 -0.026315177 1.8548175 83
-1.9073117 -0.11891246 1.8560634 82.5
-1.7513398 -0.12281145 1.8551646 82.25
-1.570448 -0.058447734 1.8548163 89
-1.3820571 -0.078068413 1.8512346 99.666664
-1.2606157 -0.088355213 1.8488237 94
-1.103338 -0.036440842 1.8385044 79.5
-0.99885637 -0.085971452 1.834916 79.666664
-0.82220644 -0.066468455 1.8298917 78
-0.6727795 -0.073630594 1.829015 79.714287
-0.53490096 -0.082448505 1.8283197 78.166664
-0.44670942 -0.13651308 1.8257047 75
-2.1656551 0.092491433 1.8335197 75.5
-1.9958596 0.10563947 1.8548145 82.5
-1.8444574 0.043325372 1.8535204 88
-1.7421927 0.043685164 1.8507234 82.333336
-1.5678948 0.092421919 1.8512578 85
-1.3894802 0.065523781 1.8487433 102.33334
-1.2744499 0.068739086 1.8487536 93.25
-1.1246692 0.079368733 1.8408165 80.666664
-0.96940547 0.068816051 1.8369213 77.400002
-0.81198913 0.072780266 1.8286768 79.888885
-0.6841296 0.085684851 1.8266143 78.25
-0.53209871 0.071756616 1.8269254 81
-2.15277 0.19761337 1.8474379 86.5
-1.9610621 0.25365266 1.8524812 83
-1.858152 0.21544316 1.8593266 72
-1.7588806 0.21096702 1.8717407 40.333332
-1.5631304 0.24541366 1.8517781 83.333336
-1.3933641 0.21255051 1.8506112 95.666664
-1.2905668 0.24202847 1.8445473 99
-1.1408436 0.21257713 1.8362914 78
-0.98753226 0.21955454 1.8345196 79.199997
-0.8039825 0.23029466 1.8247989 82.75
-0.66615242 0.22343734 1.8251499 82.14286
-0.53105778 0.22938724 1.8243464 82.666664
-0.44446418 0.26864466 1.8204964 92
-2.1853189 0.35207257 1.8391582 83
-2.0237238 0.39223015 1.8477129 85.666664
-1.8559463 0.38869196 1.8481231 79.5
-1.7408594 0.37590575 1.8490247 81.333336
-1.5487479 0.39649248 1.8451228 86.333336
-1.4073927 0.35558945 1.8481804 91
-1.306214 0.40499234 1.8400484 91.666664
-1.1240224 0.3588402 1.8345048 75.400002
-0.9666667 0.37012357 1.831742 77.599998
-0.81180578 0.35614726 1.8224616 81.75
-0.688658 0.38667715 1.8204788 77.900002
-0.53519708 0.37395832 1.8209945 80.5
-0.42717478 0.39359152 1.8182477 84.5
-2.1787372 0.54917485 1.8428429 85
-1.9992043 0.48601267 1.8440229 90
-1.8558575 0.56622148 1.8486736 84
-1.7225804 0.50453556 1.8474774 84
-1.5524467 0.53447831 1.8451104 82
-1.4331776 0.53160852 1.8466727 86.333336
-1.2935344 0.54985625 1.8422478 91
-1.0997832 0.51595026 1.8322824 71.800003
-0.94990319 0.52190936 1.8302553 74.800003
-0.80182922 0.52235115 1.8221426 75.800003
-0.66670245 0.52095693 1.8191315 75.285713
-0.52602756 0.5261054 1.8178886 78
-0.40255129 0.52232599 1.816074 79
-2.0049801 0.63249588 1.8467646 82.333336
-1.8202767 0.72009516 1.8439308 87
-1.7218105 0.65715843 1.8422666 90.333336
-1.5622504 0.73426837 1.8435055 86
-1.4378958 0.67462891 1.8447908 85.5
-1.2726754 0.69654244 1.8404508 87
-1.1338871 0.63303328 1.8393737 93.5
-0.98820221 0.67586136 1.8312734 80.599998
-0.80140465 0.66737407 1.8236728 77.666664
-0.68164867 0.66570234 1.8189739 77.14286
-0.52386326 0.68005258 1.8173977 75.85714
-0.39870492 0.66409171 1.8144451 79.75
-1.87047 0.77346832 1.8403584 1
-1.7191126 0.80627519 1.8364199 85
-1.5777254 0.87406063 1.8391331 87.5
-1.4074754 0.78093851 1.8411007 87
-1.2721344 0.82351071 1.8361515 80
-1.1156999 0.82110411 1.8353465 71.5
-0.97988009 0.79907942 1.830081 79.75
-0.86366987 0.8079381 1.8270072 76.5
-0.66635263 0.80255163 1.8180817 74.625
-0.52802986 0.82994717 1.8154219 75
-0.37902883 0.81981164 1.8109324 74.199997
-0.28898588 0.88301378 1.8141795 68
-0.96056628 0.93941313 1.8292311 66.333336
-0.85244608 0.92474055 1.8259782 69
-0.67969441 0.92013955 1.8168828 66
-0.5307762 0.91868132 1.8116622 52
