# .PCD v0.7 - Point Cloud Data file format
VERSION 0.7
FIELDS x y z intensity
SIZE 4 4 4 4
TYPE F F F F
COUNT 1 1 1 1
WIDTH 1469
HEIGHT 1
VIEWPOINT 0 0 0 1 0 0 0
POINTS 1469
DATA ascii
3.9251034 -5.3215232 -0.16103722 58
3.9283531 -5.2279186 -0.17683348 65
0.12762077 -3.6103423 -0.15494803 153
-0.49623474 -1.8770422 -0.1985507 1
-0.26043758 -1.8907884 -0.18188065 1
-0.51866686 -1.5086342 -0.18278715 11.2
-0.3364554 -1.5063223 -0.18685709 10
-0.21973769 -1.5175712 -0.18016031 14.5
-0.085429639 -1.5167798 -0.1754711 12
0.068376809 -1.5301082 -0.18838523 10
1.6954991 -1.5424538 -0.16231722 81
-0.36954996 -1.4288981 -0.18389514 7.5
0.089439645 -1.4392411 -0.19217344 3
1.7085862 -1.3893596 -0.18409549 85
-0.52949166 -1.3398455 -0.17831612 14
0.094538435 -1.2969902 -0.1998729 4
-0.61343372 -1.0792512 -0.15210709 17
-0.51678365 -1.0790306 -0.17859523 12.111111
-0.37876031 -1.1103587 -0.17529754 14.285714
-0.23149376 -1.1208805 -0.17330028 14.428572
-0.080232695 -1.1166445 -0.18426868 10.6
0.063567281 -1.1428875 -0.17154998 9.25
1.717284 -1.1170102 -0.15277281 72
0.11683451 -0.96659309 -0.17622235 7.25
0.1265689 -0.84376168 -0.17623179 6
1.7457116 -0.77103347 -0.16360492 73
0.12005343 -0.74193352 -0.17959821 8
1.7533696 -0.68164444 -0.18367843 78
1.7644311 -0.50790495 -0.16526102 79.333336
1.7678525 -0.3579666 -0.1976849 93
1.7738905 -0.15204918 -0.16783637 107
1.7858419 -0.057471704 -0.16730829 96.666664
1.8020412 0.087899327 -0.17638572 86.5
1.8125718 0.20321417 -0.17658392 78.5
1.8358952 0.36032876 -0.17728651 118.33334
1.8233538 0.55411935 -0.18110409 77
-0.12114532 0.7157771 -0.17108575 0
0.83443177 0.66570044 -0.18082741 1.6
1.7588487 0.61840492 -0.19133765 2
1.8165114 0.67954749 -0.16749181 16
-0.75976437 0.81407511 -0.15701944 7
-0.64351189 0.79906523 -0.17441225 5.6999998
-0.51591331 0.78646463 -0.17519908 5.8666668
-0.36898452 0.77745682 -0.17443407 6.5454545
-0.20007935 0.76007569 -0.17406833 7.25
0.80212855 0.76085931 -0.16242607 2.6666667
0.21400788 0.9942342 -0.1689167 10
0.38173413 1.0063788 -0.17392181 14.5
0.47952366 0.98652536 -0.16201873 33
0.85862547 0.98080158 -0.17918921 15
0.86849743 1.1658369 -0.15939601 21
0.87745762 1.3251646 -0.17364162 21
0.86797404 1.404119 -0.1823854 66.5
4.3852687 1.6227711 -0.15814775 70
3.8960736 -5.5722094 -0.018929666 44
3.9093773 -5.6119804 -0.041385356 63
3.9242289 -5.1709762 -0.0087363468 60
1.6667809 -1.8558956 -0.036155466 58
1.6846817 -1.7164781 -0.071948737 80.800003
1.6869158 -1.5738882 -0.10336061 72
1.702836 -1.4233778 -0.057298638 70
1.7106514 -1.2802463 -0.12169454 76.5
-0.62461692 -1.0723439 -0.11224704 10
-0.50963169 -1.0832943 -0.13539426 9.4285717
-0.34804958 -1.0942842 -0.10873677 12
-0.22049387 -1.1104075 -0.11883217 12.25
-0.085364215 -1.1118801 -0.12435334 8.7142859
0.084981345 -1.1173282 -0.11920219 7.5
1.7230804 -1.0608326 -0.047114108 73
-0.64558554 -0.95580816 -0.10626201 2.8333333
-0.49160036 -0.96489686 -0.10311215 3
-0.34078026 -0.97055328 -0.10350924 4
-0.24115694 -0.9590258 -0.10046767 3.6666667
-0.099130481 -0.97340107 -0.10055232 1.75
0.078490563 -0.98573315 -0.11134137 3.5
1.7298336 -0.96627074 -0.066190176 77.333336
-0.7543816 -0.7519834 -0.06084514 7
-0.64042056 -0.796812 -0.11264044 3.8571429
-0.49748796 -0.81597048 -0.10441969 5
-0.3892374 -0.82455742 -0.10442243 4.5
-0.20462604 -0.81593359 -0.10311881 4.1428571
-0.070619985 -0.82971966 -0.10177112 3
0.092824958 -0.80385542 -0.1043027 4.5
1.7362942 -0.83607805 -0.085697703 72.800003
-0.66001976 -0.69663978 -0.10576872 8.4444447
-0.49432582 -0.70810705 -0.09328419 7
-0.39612785 -0.72130638 -0.091052122 9.5714283
-0.25248843 -0.72796464 -0.097509138 8.1111107
-0.093407653 -0.73306477 -0.092998035 8.8000002
0.089419663 -0.74335504 -0.10031465 6.5
1.7474984 -0.68735164 -0.077460922 64.5
1.7627406 -0.51068389 -0.061664555 71.25
1.7691126 -0.36485818 -0.0739794 73.166664
1.7775466 -0.23255748 -0.090523958 94.25
1.7878329 -0.066706784 -0.086006075 93
1.7978503 0.072269984 -0.074468471 80.25
1.8042436 0.068486311 -0.093615271 85
1.8085959 0.22100671 -0.076527447 75.5
1.8193998 0.37866223 -0.07196679 77.333336
1.8226484 0.52320623 -0.082926162 63.285713
-0.11087909 0.71979028 -0.056110796 0
0.82918859 0.68180221 -0.060844798 1.75
0.91839999 0.64807868 -0.064943083 0
1.7718347 0.61016059 -0.077312522 6
1.8212328 0.68810558 -0.069861032 19
-0.94300199 0.82308358 -0.042474631 4.6666665
-0.81148702 0.81270325 -0.059869066 4.8000002
-0.67191064 0.79610467 -0.073211633 4.9411764
-0.53442931 0.79121596 -0.086226866 5.6399999
-0.37620431 0.77726352 -0.079823174 5.8461537
-0.23031241 0.76432687 -0.082425557 5.5416665
-0.1451081 0.75511831 -0.062343523 4
0.79789144 0.79683399 -0.060107663 6
0.20891048 0.99128872 -0.076858111 10.153846
0.3662473 0.98320526 -0.072877444 9.333333
0.5036366 1.0123135 -0.071210407 79
0.85873806 0.97556907 -0.06931708 15.7
0.14607553 1.1119394 -0.078074157 0.5
0.16154988 1.073553 -0.062993519 9
0.85847354 1.1081294 -0.064776018 23.5
0.87050551 1.2647837 -0.062211003 21.666666
0.86330146 1.4174757 -0.00015581131 58
3.9070122 1.4781184 -0.11238886 150
4.3684273 1.9319093 -0.094398387 150
4.387866 1.952316 -0.034011308 150
4.4342084 2.1018641 -0.13789167 86
4.4404979 2.2947142 -0.0079873251 101
4.3898907 2.4128706 -0.059320394 150
0.99547988 3.1922638 -0.13470568 40
1.0041227 3.3548086 -0.06510634 3
3.885885 -5.8217607 0.042806234 6
3.9005482 -5.7063761 0.013104732 5
3.9573524 -4.8186636 0.0017979395 71
3.9785964 -4.500958 0.033002224 78
1.6438617 -1.8838798 0.010041262 16
1.9325445 -1.7063042 0.075745009 109
2.0160594 -1.5195367 0.14179921 150
2.0703175 -1.3886291 0.13215619 29
1.7544848 -1.2051177 0.015286902 150
2.0231149 -1.2386574 0.11294154 18.5
-1.0840251 -1.1268783 0.12452158 5.5
-1.0163469 -1.1502969 0.13106829 1.6666666
1.723943 -1.0588847 0.0075171841 65
2.0984681 -1.1048464 0.13069761 73
1.7224844 -0.95499855 0.0031347675 53.5
2.0072966 -1.0317668 0.099843703 150
1.7630594 -0.83454573 0.016859109 81
1.8975583 -0.85362619 0.079159059 86
2.1299443 -0.80923218 0.12699896 78
1.8189502 -0.60307425 0.019664431 154
2.1218486 -0.6992352 0.096920513 105.5
1.8168066 -0.52217627 0.0090832962 153
2.1566041 -0.38928142 0.11817252 87.666664
1.8651842 -0.19987597 0.034797445 153.66667
2.170361 -0.21374229 0.14251846 75
1.8455042 -0.048299573 0.01459741 152
2.1778402 -0.084052026 0.12584579 73
-1.159214 0.092093647 0.13638535 4
1.858207 0.062916785 0.019038731 150
2.0743136 0.071474135 0.1145103 50.5
2.1907883 0.069352239 0.11267444 82
1.8540639 0.23153177 0.02059705 133.5
1.9941984 0.24310018 0.089669503 79
2.101635 0.17954352 0.1292215 83
1.9120992 0.36311272 0.058866479 67
1.9731579 0.39377031 0.10848636 49.75
1.8431921 0.56752938 0.071924753 52.666668
1.9723151 0.53185195 0.10066841 51.5
-0.121892 0.72595417 0.050504152 0
0.81772768 0.67393589 0.074424461 7.6153846
1.7624117 0.61690795 0.038839083 4.5
1.8210691 0.70235538 0.11990944 10
-1.2407247 0.8230803 0.10307487 32.25
-1.0741556 0.82979065 0.10113121 4.125
-0.96026969 0.82547146 0.071011454 4.6923075
-0.83271581 0.81355184 0.075217076 4.409091
-0.67935652 0.79431003 0.068289459 4.2173915
-0.52786767 0.78808528 0.073296376 5.0588236
-0.37967691 0.77481604 0.06411799 4.7826085
-0.22240941 0.76135504 0.071084887 4.695652
-0.14806786 0.75368464 0.04812282 6
0.79180664 0.78859347 0.077918664 4.9333334
0.23033991 0.99912226 0.080539718 8.9285717
0.3595643 0.95759559 0.062094565 12.538462
0.47360283 0.98571742 0.0054853065 31.5
0.849002 0.96751946 0.086943448 18.888889
0.15578116 1.081471 0.041306119 6.5
0.86490744 1.1516166 0.064216502 20.799999
0.86901397 1.2938503 0.067631058 21
0.87126744 1.4262615 0.12566222 42.5
3.9014342 1.6320242 0.030834788 150
4.4005222 1.7329797 0.036360499 77
4.4238515 2.0452335 0.10815125 74
4.4308524 2.1450756 0.13268703 76
4.44485 2.2973018 0.039235916 78
1.0070975 3.5398343 0.074448764 15.5
1.0130693 3.6836572 0.072010629 40
1.0462489 3.9846501 0.042655762 52
3.8446429 -6.207108 0.27932304 4
3.888984 -5.7465482 0.25682706 45
3.9109499 -5.3154893 0.23419857 46
3.9443147 -4.9533367 0.23942906 57
2.0649326 -1.7280718 0.26521292 79.333336
2.0793707 -1.5503931 0.2521781 72.666664
-0.52640736 -1.4421139 0.24792182 43
-0.27234215 -1.3651088 0.21647435 8
2.0701253 -1.410337 0.2187029 62.333332
-1.0668476 -1.2585223 0.26654744 1
-0.96554238 -1.2571934 0.22832276 13.5
-0.8746196 -1.2868522 0.19694903 0.5
-0.64070541 -1.3075585 0.16746572 3.5
-0.51843357 -1.316817 0.25986248 8
-0.38434502 -1.324488 0.22959918 16.833334
-0.2716291 -1.3313227 0.26729566 13
-0.091112792 -1.3242978 0.16717795 1.5
2.0405531 -1.2543269 0.1844327 21
-1.2056549 -1.1338508 0.16378811 16.5
-1.0900086 -1.1438982 0.24778686 12.714286
-0.98305815 -1.1748312 0.22389634 3.8
2.0647464 -1.1580709 0.27243921 79.5
1.8523334 -0.94795835 0.19483383 31.75
1.8868986 -0.85795754 0.20402324 28.333334
2.1269641 -0.81801343 0.23380624 80.5
2.1360061 -0.67120093 0.24652921 77
-1.421836 -0.45037177 0.27533436 1
-1.2474734 -0.55081743 0.20875812 0
2.1468432 -0.54637086 0.20842083 77.333336
2.1583481 -0.38092491 0.22555073 73.14286
-1.3856894 -0.21277459 0.25444004 15
2.169596 -0.22574759 0.22940508 71.125
-1.3686618 -0.13282011 0.28202224 0
-1.3218143 -0.053990074 0.25809377 0
2.1757717 -0.084047727 0.23222266 67.5
-1.1541367 0.085886963 0.19655266 1.7142857
2.1787682 0.069310963 0.24146968 67.25
2.0862134 0.25958362 0.18637285 104
2.1803038 0.21859415 0.23859 63.599998
1.9335667 0.34454301 0.27535787 42.666668
1.9753177 0.37264091 0.21161588 51.25
1.9055214 0.5521155 0.23026738 29.142857
1.9793699 0.47322255 0.19464138 49
-0.16277835 0.74409217 0.17418796 3.5
0.80764467 0.69800556 0.16813414 1.6
1.7710087 0.63984501 0.20431642 3.5999999
1.8187237 0.69898182 0.28566539 11
-1.5905777 0.84783602 0.24942499 26
-1.3897462 0.84348226 0.2315129 5.3333335
-1.2861435 0.83529574 0.25186113 8.8571424
-1.0812783 0.82283747 0.24342819 2.7
-0.96474576 0.82039893 0.19766942 4
-0.80572408 0.80963123 0.2375868 4.2222223
-0.67206246 0.79745626 0.23308171 4.0833335
-0.52407867 0.78166574 0.2151605 4.1999998
-0.36951268 0.77306283 0.2255128 3.8095238
-0.21642366 0.76473713 0.23493014 3.5263157
0.79585141 0.81259137 0.20689261 4
0.246885 1.0101628 0.22603594 7.4545455
0.36076769 0.97948802 0.22845565 11.153846
0.48884284 1.0351524 0.23352432 101
0.85153788 0.97434556 0.22937541 18.181818
0.17504059 1.1067225 0.20609112 7.6666665
0.85871387 1.1206256 0.23257999 20.75
0.11269699 1.2006 0.2871421 1
0.86199737 1.2533258 0.20833117 17
0.8715601 1.4061627 0.25069031 18
3.8845651 1.6299655 0.23568308 103.5
4.3970928 1.6773674 0.17321652 100
4.4209137 1.9766762 0.21955943 81
4.4440804 2.33324 0.23805845 81.5
4.4507952 2.4752824 0.20700336 56
0.99098784 3.1933794 0.19054431 3
1.0011928 3.3699892 0.16889507 43
3.4321702 -3.8188496 0.3926267 61
3.5344923 -3.6389215 0.39755359 55
2.0461268 -1.8783054 0.38705701 49
2.064409 -1.7100105 0.38261482 51.333332
2.0695193 -1.5875914 0.32783517 67.5
2.085566 -1.4119666 0.40750954 63
-0.50528753 -1.3237652 0.34521455 23
-0.38066483 -1.3012357 0.32614276 15.333333
-0.26906845 -1.3365486 0.37808836 27.5
2.0885136 -1.249759 0.3741408 61
1.903187 -1.0507867 0.4430843 45
2.1019702 -1.0578598 0.42582166 69
2.0553818 -0.96708739 0.37127084 88.5
2.1011903 -1.0273658 0.41658884 57
2.0709426 -0.88590312 0.3830421 91
2.1249807 -0.8139984 0.37706861 73
-1.3891544 -0.60281646 0.39187264 2
-1.3059517 -0.60028076 0.42955315 0
2.1336749 -0.68296397 0.39978969 73.199997
-1.5343407 -0.55495429 0.41994661 3
-1.4329334 -0.54283935 0.41904059 0.69999999
-1.3402456 -0.53456265 0.41729823 5
2.1465335 -0.51737028 0.36438578 74.125
-1.5831161 -0.44570267 0.39337635 2
-1.4356403 -0.4348644 0.36056665 2
-1.3242831 -0.4379859 0.38478446 2.5
2.1531501 -0.38565058 0.3590264 68.400002
-1.399716 -0.22169396 0.39116237 10.307693
-1.3402407 -0.15576522 0.4124625 1
2.1645303 -0.23644063 0.3685821 70.199997
-1.351562 -0.12059563 0.33725864 0
-1.3314987 -0.05673169 0.36924598 0
2.1809149 -0.05471234 0.36238235 65
-1.3820963 0.07746926 0.41805395 2
2.1873412 0.05678086 0.35545775 67
-1.3760887 0.18602347 0.40275884 7.5
1.9129231 0.29288152 0.41354793 35
2.1848938 0.22803776 0.3526158 55.5
1.9089112 0.37783751 0.40550447 43.666668
1.8868401 0.5406633 0.38272554 20.200001
1.9659029 0.55372071 0.37519801 63
1.7756977 0.64382082 0.31208909 2
1.8241038 0.70248342 0.42025626 6
-1.8518009 0.86275625 0.41933778 19
-1.7201183 0.85156125 0.44321519 26
-1.5657701 0.85319966 0.34426698 10.142858
-1.4386226 0.84090436 0.39141387 15.714286
-1.3046539 0.83436465 0.38008419 7
-1.1004254 0.82130128 0.33892584 1.75
-0.95788354 0.81219262 0.38579896 2.2
-0.83217764 0.80843019 0.36824951 2.875
-0.67417067 0.80072534 0.36982304 2.4000001
-0.51511323 0.78775495 0.37374875 1.8461539
-0.36785114 0.77863085 0.38237047 1.6153846
-0.22590999 0.76611549 0.37322012 2
0.20618387 0.89176005 0.40239668 6.5
0.22664729 0.99195606 0.37570614 6.1500001
0.37120134 1.0142181 0.38984635 10.157895
0.49789163 1.0224563 0.3703624 15
0.84701478 0.98276263 0.34576538 21.285715
0.11276964 1.1229422 0.36329192 6.5999999
0.17589335 1.101992 0.3617847 6.5714288
0.5540421 1.0671154 0.34504142 22
0.63981187 1.1091785 0.44480759 151
0.85645759 1.1285878 0.38420951 17.444445
0.10313161 1.2052357 0.31163859 5
0.86360037 1.277213 0.35315016 16.857143
0.87020475 1.4092836 0.38296446 17.333334
4.3708487 1.6196518 0.37478858 81
4.3792496 1.6736312 0.38363516 77
4.1513362 1.8186758 0.4146198 63
4.2348671 1.873268 0.42531681 62
4.1364589 1.9994349 0.41113245 63
4.4248247 2.1395907 0.31572592 75
4.419683 2.4368267 0.40458477 73
1.0001392 3.5765455 0.41349119 18
3.8736193 -5.8848372 0.50782466 44
3.9140866 -5.4645967 0.47897285 33
3.4401176 -3.9483025 0.48922575 60
3.7420847 -3.5770185 0.51006305 71
2.048286 -1.8747263 0.5014832 56.5
2.0564334 -1.7575508 0.58858836 65
2.0642991 -1.6181914 0.54961246 65.666664
1.8942966 -1.3738729 0.53118384 150
2.0776019 -1.4736744 0.4755207 66.5
1.8906407 -1.2464802 0.509857 81
2.0646269 -1.3291292 0.47314656 112
1.8686552 -1.1742378 0.50550431 29
2.0545509 -1.1571625 0.49170202 100.5
1.7941868 -1.0432215 0.5399524 43.75
1.9076694 -0.980528 0.51903796 92.75
2.0200541 -0.93857086 0.50579047 114.75
1.9255736 -0.87083083 0.52943856 36
2.0262117 -0.85776246 0.46281013 82
2.1181276 -0.83573008 0.56178766 65
2.1299431 -0.6896801 0.5051589 55
-1.3052915 -0.5370723 0.46228647 2.5
2.1400559 -0.53909218 0.55908972 70.800003
2.1523411 -0.37124762 0.54438603 63.5
-1.3906375 -0.24735212 0.48232621 5.5
2.1597362 -0.21819179 0.51607418 66.25
-1.3794842 -0.085195661 0.53268129 4
-1.3252617 -0.02821983 0.46113354 3
2.171205 -0.065187596 0.4981862 58
-1.3857977 0.12436237 0.51461828 7.8571429
2.1818984 0.066346414 0.49361542 65
2.1919107 0.21648967 0.48878285 60.666668
-0.19631216 0.74635029 0.53276598 0.25
-2.1794438 0.88064611 0.55014968 11
-2.0932946 0.87762421 0.5888387 12
-1.8358593 0.86314398 0.47651088 18
-1.7183614 0.85427576 0.50608516 21.875
-1.5998429 0.84730029 0.54424888 21
-1.4871244 0.83956772 0.58241439 25
-1.3214626 0.83324337 0.484934 11.5
-1.0969332 0.81691629 0.54174906 1
-0.99482572 0.81474662 0.52662492 1.25
-0.81694567 0.80202341 0.52276576 1.25
-0.68086344 0.79252315 0.52103597 1
-0.54128033 0.78396058 0.51365316 0.36363637
-0.37899202 0.77244383 0.52243292 0.4375
-0.22508822 0.76189506 0.52356476 0.43478259
0.22486694 1.0010852 0.46363926 3
0.36796197 1.0294317 0.47519302 7.6666665
0.12276521 1.1242809 0.53007078 7
0.20465401 1.0763696 0.53272527 9.6875
0.49146688 1.0555532 0.45267498 6
0.8551392 1.1619524 0.47631741 16
0.85805875 1.2819312 0.51173133 19.4
0.87103301 1.4185013 0.49119931 14.4
4.296896 1.655358 0.58079231 9
4.3705912 1.70468 0.5147236 150
4.3801503 1.9876307 0.58709025 74
4.1653228 2.1001897 0.4878177 78
4.4349113 2.2398429 0.55606842 76
4.4492846 2.4506505 0.56355458 80
0.86492842 3.2449512 0.58866578 28
0.98071402 3.2865391 0.59164929 2
0.99933428 3.4841363 0.59348416 42
3.9339049 -4.8623676 0.74204648 44
3.4443953 -3.9294076 0.63495755 19
3.5823185 -3.8040328 0.67570865 42
4.0257072 -3.5982704 0.62292695 86
2.0443583 -1.9153491 0.69290185 22
2.0502532 -1.7780037 0.69086218 66
2.0628579 -1.6284885 0.69653732 62.666668
1.9273629 -1.3746393 0.63230336 150
1.9060774 -1.2996839 0.61286646 142.33333
1.9976974 -1.2603453 0.69451237 150
1.8657892 -1.1982071 0.62394452 44
2.0312738 -1.0501844 0.66535723 123
1.7660862 -0.99644917 0.65116626 32
2.0269873 -0.94741195 0.69806737 89
1.8820531 -0.88796562 0.67084444 16
2.1131351 -0.81191045 0.68397838 61.666668
2.1247096 -0.67963135 0.62846446 64.5
-1.4101835 -0.15168259 0.63677955 2
-1.3109268 -0.20793849 0.71906978 4.25
-1.3890916 -0.079178989 0.63441408 15.6
-1.2994252 -0.1242808 0.72693849 6.3333335
-1.4064496 0.13235542 0.60102034 11
-2.1751332 0.88472986 0.65014261 18
-2.0316033 0.87205917 0.68320602 15.142858
-1.9120836 0.8628124 0.69492942 18
-1.7382358 0.8502444 0.73513043 14
-1.5243164 0.84216624 0.65939409 22.5
-1.4624045 0.8375048 0.62015009 22.25
-1.316854 0.82844657 0.66428614 25.666666
-1.1319661 0.81064755 0.64885134 2
-0.94979763 0.80621272 0.67271096 4.3333335
-0.82128775 0.80176765 0.67661697 2.5999999
-0.66637063 0.78644013 0.66364366 0.83333331
-0.49751586 0.77857417 0.68462944 1.25
-0.35038885 0.76735663 0.67148447 0.66666669
-0.25395435 0.75840724 0.65899628 1.2857143
0.19617529 1.1049802 0.61434674 2
0.86462754 1.3522304 0.67290974 14
3.8677456 1.6282012 0.60331571 87
4.4005275 1.7431949 0.71251011 73
4.3809547 1.8593452 0.72559297 150
4.4134779 1.9725749 0.68192065 73
4.4322858 2.3013706 0.68464243 78
0.97927421 3.1065671 0.64127231 2
0.80123013 3.2557728 0.66921139 22
3.8650916 -6.0150447 0.75658822 36
3.9282603 -4.9923306 0.85146999 40.5
3.937659 -4.9062719 0.80170834 42
3.9346197 -4.7536297 0.75648165 56
3.997627 -3.9418242 0.81152308 72
2.035099 -1.9284418 0.84844315 6
2.0540109 -1.7542385 0.82578248 58.599998
2.0638814 -1.5723466 0.81642538 59
2.0476096 -1.4263663 0.82547402 79.75
1.9057813 -1.2596905 0.79822111 125.5
2.0328553 -1.2851281 0.7986033 108
1.8113186 -1.0646818 0.75461769 25
-1.2524555 -0.22324213 0.78567278 0
-1.3617973 -0.038128845 0.78057075 23
-1.2748549 -0.080300555 0.78406221 4.7142859
-1.9158207 0.86719495 0.76722193 13
-1.7225367 0.84761751 0.82525867 15.571428
-1.5785861 0.84066474 0.79761022 10
-1.4187486 0.83125359 0.84628254 21.25
-1.3129395 0.82767391 0.79331273 28
-1.113959 0.80879599 0.83228141 2
-0.98812139 0.81033647 0.79442382 2.8
-0.81801057 0.80200094 0.84390068 1.25
-0.68047082 0.79103178 0.80162704 3.4000001
-0.52049458 0.77986634 0.82086027 0.80000001
-0.3638196 0.76531458 0.80278206 2.7777777
-0.25562611 0.7558406 0.82252365 3.3333333
4.3369188 1.7402494 0.89539278 61
4.3949437 1.735321 0.84896094 73
4.4200315 2.0311353 0.806651 80
4.421936 2.1415215 0.81415224 78
4.431005 2.2666345 0.7804929 76
4.4282994 2.4468439 0.89892662 63
0.97762293 3.1186409 0.87313581 2
0.86253172 3.3140652 0.83473384 8
0.94676691 3.3596957 0.88769174 32
3.9084771 -5.358645 1.0219507 33
3.9223535 -4.9055452 1.0392919 38
3.9550555 -4.5992565 1.0201354 40
3.9728987 -4.313448 1.0263933 44
2.0394056 -1.8813041 0.97561979 35
2.0532086 -1.7180725 0.97556037 56.400002
2.0615096 -1.5717474 0.97661525 51.666668
2.0687766 -1.4343605 1.0485805 51
1.9949061 -1.3136642 0.92093784 150
-2.3639553 0.89950085 1.0237991 0
-2.1058035 0.87381148 0.96789145 13
-2.0059035 0.86392689 1.0098343 13.666667
-1.8523337 0.85623568 1.0357397 12
-1.7093168 0.84768134 1.0313818 13
-1.5187209 0.83343679 1.0051651 13
-1.4564685 0.83199447 0.99075669 11
-1.3213636 0.8254683 0.99600327 11
-1.1049312 0.81781888 0.97194242 3
-0.99605095 0.81617439 0.95839781 2
-0.82570952 0.80170822 0.95444119 2.5999999
-0.63949156 0.79327714 1.0052059 0.5
-0.51894081 0.78330022 0.99651259 0
-0.39312813 0.77254474 0.99659264 0.75
3.8613584 1.6003232 0.92439568 74
4.3031402 1.6990702 0.9109813 52
3.9846632 1.8182843 0.90284777 50
4.0787892 1.8883455 0.90522277 35
4.3888898 1.9932182 0.9150486 67
4.1166763 2.1313872 0.92102569 28
4.3455186 2.3825669 0.91234994 46
4.3991599 2.3105383 0.90961885 65
0.98267108 3.2909601 0.90413272 41
3.9003212 -5.5889921 1.1388278 35
3.8980381 -5.4967465 1.1159146 44
3.9005959 -5.4069881 1.0760485 42
3.9071739 -5.2651935 1.0677583 32
4.0043712 -3.794152 1.163933 74.666664
2.0441871 -1.8634814 1.1206723 51.75
2.0543709 -1.6986569 1.1286074 49
2.0653539 -1.5522487 1.0975785 52
-2.0150824 0.86511946 1.0980492 13.333333
-1.7112396 0.84374434 1.1310956 59
-1.5663991 0.83847702 1.0644944 12.5
-1.2714454 0.81904191 1.1603125 22.666666
-1.0795281 0.82150573 1.1296501 0
-0.94338489 0.8191846 1.082485 1
-0.82781893 0.81060833 1.0746493 0
-0.69364715 0.80411404 1.1217573 0
-0.50669783 0.78849953 1.1296582 0
-0.38403076 0.77190268 1.0572116 0
-0.29216075 0.75423104 1.0582887 0
-3.3237875 0.90448111 1.1350818 29
4.3765583 1.6948702 1.1340544 85.5
4.3987288 1.9316967 1.1820722 72
4.2139173 1.9661916 1.1035881 21
4.4280195 2.2983823 1.1176193 68
0.87266976 3.3259058 1.0534921 1
3.8715813 -5.8996668 1.3462536 3
3.9140947 -5.0352187 1.29625 43
3.9441826 -4.7141795 1.2709616 45
3.9813178 -4.1418557 1.3476524 64
4.0097837 -3.7801008 1.2723463 73
4.0126824 -3.594624 1.2359152 75
2.042433 -1.8428431 1.248641 45.666668
2.050575 -1.6950824 1.2462417 54
-2.037658 0.87131989 1.3410351 7
-1.749633 0.84768504 1.2661275 57.333332
-1.5686376 0.83665478 1.2438586 57
-1.3699951 0.8248654 1.2783039 63
-1.3366444 0.82593304 1.2175939 43
-3.5400991 0.91405892 1.3234477 30
-3.3053885 0.90166152 1.2518821 2
-3.2956347 0.9022401 1.3177556 2
4.3979192 1.9671519 1.2512264 73
4.4328413 2.2050846 1.2808585 76
4.4289155 2.3104544 1.2615432 85
0.96482593 3.184994 1.2225014 2
0.9991712 3.4899435 1.3105102 27
3.8659232 -5.9729929 1.400165 3
3.8617833 -5.8133922 1.4318144 35
3.8862154 -5.3990421 1.3574505 40
3.9761789 -4.2018924 1.4683676 49
-1.5896873 -4.0966558 1.455792 15
3.9875634 -4.1491475 1.4504828 56
3.9820931 -3.9332252 1.4778517 63
-1.5771766 -3.8617489 1.3622487 13
-2.1539011 -3.6944723 1.480278 84
-1.7209415 -3.721056 1.4653703 82.666664
-1.5873374 -3.7345889 1.3711014 48
4.0081587 -3.7027617 1.4990553 71
2.039202 -1.8333613 1.3633107 47
-3.7538626 -1.2376137 1.4728259 92
-3.7326033 -0.93159372 1.4503566 103
-2.1820219 0.88029331 1.3755962 7
-1.8137676 0.85024059 1.3827555 50
-1.5598826 0.84792286 1.4536885 74
-1.4570247 0.84344429 1.4929631 87
-1.3410928 0.83964336 1.4255269 83
-3.6499145 1.3668019 1.4190602 0
4.380712 1.6873184 1.4162521 77
4.3924103 1.8636799 1.4301276 79
4.4135075 2.0613818 1.4477901 81
4.4332352 2.2358344 1.3577062 77
4.4339314 2.4874687 1.4270828 24
0.99892658 3.5654862 1.4129412 21
3.8849704 -5.531311 1.6219674 45
3.9117172 -5.1518159 1.5513244 46
3.9537485 -4.5193596 1.6164218 60
-1.6094799 -4.4326549 1.5287205 16
3.9918945 -4.174736 1.5177662 50
-1.8917279 -3.7127929 1.6055343 78.5
-1.7850645 -3.7183967 1.5135018 77
-1.5811706 -3.7365894 1.5157242 32
-3.5739748 -3.4697587 1.6174939 2
-3.8764372 -2.8633728 1.576962 58
-3.8384902 -2.4258413 1.631632 42
-3.5060256 -2.4597604 1.6255134 36
-3.8351722 -2.2950053 1.54515 64
-3.4798403 -2.0258765 1.6432182 47
-3.4677746 -1.8728375 1.6464313 46
-3.4880593 -1.7030438 1.6358312 11
-3.7548003 -1.2836726 1.6309727 5
-3.7416794 -0.99724317 1.5701044 94
-3.4063993 -0.83171189 1.6293063 21.5
-3.709177 -0.56512851 1.5803696 107
-3.6259952 0.85302377 1.5952315 75
-1.8491875 0.89069772 1.6338419 33
-1.6262305 0.87312901 1.6195228 117.5
-1.4913732 0.87235147 1.5438346 150
-3.2747822 1.0429165 1.6472882 13
-3.6284184 1.0685589 1.6028988 10
-3.5997574 1.0674086 1.6404721 10
-3.2724876 1.0799301 1.6472732 9
-3.6160038 1.3475113 1.5977234 6
-3.6151099 1.4161195 1.5424743 0
-3.5971251 1.3694307 1.6246141 10
4.4131484 2.1591408 1.5806402 76
4.4347057 2.325294 1.5408835 80
3.8542335 -5.957551 1.7337099 3
-1.5883958 -4.7790327 1.7927235 44
3.9512432 -4.5675702 1.7435896 50
3.9614232 -4.3043008 1.7587255 51
-3.6103678 -3.9237978 1.7374469 3
-3.3762102 -3.9475751 1.7705524 22
3.9865468 -4.0409966 1.7460212 55
-3.5900638 -3.8080661 1.7662789 13
-3.3604293 -3.8164921 1.775701 52
-2.8023558 -3.8313265 1.7884554 50
-2.5621381 -3.8627577 1.798133 58
3.9915793 -3.7804036 1.754079 65
-3.5759318 -3.6872613 1.7554899 51
-2.8741872 -3.7078733 1.7851301 48
-2.1191843 -3.6807952 1.7932183 65
-2.049145 -3.7098424 1.7112375 79.333336
-1.8566048 -3.7186122 1.7131516 85
-1.6734639 -3.73334 1.7248143 82
-3.7274611 -3.5086939 1.6768357 1
-3.3940313 -3.5127239 1.7748135 61
-3.2627285 -3.5263751 1.7805945 51
-3.1280754 -3.5175333 1.78332 54
-2.2539141 -3.4671125 1.7922474 61
-2.2046695 -3.5320923 1.7905478 59.5
-2.0435672 -3.4756413 1.7927989 63
-1.848695 -3.4835758 1.791073 64
4.0107603 -3.5501487 1.7764014 64
-3.8725526 -3.324996 1.6728863 30
-3.5748179 -3.3687892 1.6980115 63
-3.4023333 -3.3758812 1.7760382 57
-3.1166432 -3.4051034 1.7830564 57
-2.8589773 -3.4243701 1.7870101 58
-2.8310509 -3.3726671 1.7863647 54
-2.6329172 -3.4400432 1.7974104 59
-3.7560265 -3.1647184 1.7099627 16
-3.55864 -3.2355094 1.7337512 64.5
-3.03421 -3.1671584 1.7815779 54
-2.9178803 -3.2696381 1.7847706 55
-2.2623332 -3.1955435 1.7917191 55
-2.2034485 -3.2842994 1.793439 53
-1.9684714 -3.157603 1.7985657 69
-3.7889521 -3.0979407 1.7057027 45
-3.4379153 -3.0480156 1.7789972 62
-3.2012661 -3.0754409 1.7853189 60.5
-2.9178989 -3.0344186 1.7861992 57
-2.6962903 -3.0643113 1.7963971 57
-2.3461647 -3.1055853 1.7902735 59
-2.1569688 -3.1286864 1.7953862 61
-3.8641529 -2.8579483 1.6574358 27
-3.5002477 -2.9300447 1.7222662 61.5
-3.3988714 -2.8991568 1.7812403 60
-2.90698 -2.9276071 1.7862222 54
-2.2779617 -2.9324934 1.7978615 58
-1.8955895 -2.8678243 1.7988127 71
-3.766655 -2.7309568 1.6993941 56
-3.5236199 -2.7729008 1.7003002 57.5
-3.2485628 -2.7264683 1.786206 60
-3.0746002 -2.779809 1.7792038 50
-2.7541149 -2.7243285 1.7969579 62
-2.4356322 -2.7671916 1.7915379 57.5
-2.298162 -2.8287148 1.7944657 62
-2.0658548 -2.8426218 1.7928447 72
-3.4670563 -2.6277883 1.7757667 72.333336
-3.2177091 -2.6578603 1.7791284 64
-2.9275236 -2.647346 1.7864903 62
-2.3107407 -2.6366398 1.7925471 56.5
-2.1513832 -2.5523379 1.7892424 73
-1.9836133 -2.5896108 1.7949651 77
-1.7065927 -2.5746877 1.7979225 74
-3.8018789 -2.5459578 1.7021254 58
-3.4140794 -2.5272241 1.7820174 57
-3.242274 -2.406296 1.7886001 63
-3.1170259 -2.4314072 1.7809311 56
-2.9859352 -2.5255287 1.7852532 52
-2.8004405 -2.4042785 1.791227 58
-2.469588 -2.4691856 1.7838569 62.333332
-2.3341744 -2.4991598 1.7896308 61
-3.7879169 -2.3412461 1.6960615 64
-3.4829245 -2.3292675 1.7381219 74
-3.2649403 -2.3126082 1.7801863 62
-3.0235469 -2.3562083 1.7882506 62
-2.9076877 -2.2894812 1.7914592 61
-2.3550444 -2.330976 1.7886132 58
-2.2275813 -2.2818763 1.7855543 72
-2.0645874 -2.3351359 1.7949649 74
-1.8010348 -2.317445 1.7998806 66
-3.7893248 -2.1589174 1.6851448 50
-3.6253629 -2.1755285 1.6836182 21
-3.4899626 -2.2035751 1.7114906 70.5
-3.1527977 -2.1059 1.7818846 59
-3.0174935 -2.2038999 1.7873086 62
-2.8462999 -2.1111157 1.7898322 67
-2.5700889 -2.1470256 1.7814792 63.5
-2.432354 -2.221034 1.7848332 63
-3.4799206 -1.9902419 1.7530504 82
-3.3375916 -2.0187166 1.7819231 64.5
-3.2718203 -2.0877323 1.7886974 63
-3.0711277 -2.0529938 1.7898518 67
-2.91978 -1.9836392 1.7868887 62
-2.4709082 -1.9748268 1.7863797 60
-2.3333216 -2.0576758 1.7886361 62
-3.6917748 -1.867056 1.7093159 38
-3.4725313 -1.870846 1.7423992 42.5
-3.1872637 -1.8013755 1.7829291 65
-3.034019 -1.8932509 1.77938 51
-2.8878357 -1.8358897 1.7876736 67
-2.6323888 -1.8720331 1.7848063 66.5
-2.4017959 -1.8254786 1.7919649 55
-3.2975459 -1.7881422 1.7872368 5
-3.1031973 -1.7586988 1.7822322 76
-2.9351046 -1.7007589 1.7864703 63
-2.5587847 -1.6918714 1.7876002 54
-2.504003 -1.733004 1.7904503 56
-2.317333 -1.7242265 1.7956052 62.5
-2.0033896 -1.7025313 1.7961487 62
-1.8519439 -1.7924917 1.7943467 63
-2.9243073 -1.5735997 1.7840878 78
-2.7134445 -1.597807 1.7877358 57
-2.6597857 -1.6160848 1.7842001 54
-2.4541957 -1.5559343 1.793098 56
-2.013736 -1.6086037 1.7944053 63
-2.7043262 -1.3619194 1.7850276 63
-2.5935743 -1.450312 1.7885569 57
-2.4566104 -1.3521345 1.7964181 61
-2.3211868 -1.4410205 1.7980186 63
-2.0424407 -1.4190612 1.7970835 60.333332
-2.7586446 -1.3406101 1.7868065 63
-2.632515 -1.2120179 1.7868421 59.5
-2.5082917 -1.3142198 1.7939373 64
-2.3647871 -1.2310662 1.7901293 59
-2.1249998 -1.2657765 1.7949454 60
-1.8236001 -1.2143664 1.7965847 77
-3.6513317 -1.1580646 1.709982 57
-3.3912437 -1.1157039 1.7432826 83.400002
-3.0967009 -1.0809579 1.7793766 68
-2.979003 -1.1314301 1.7831444 73.5
-2.7710748 -1.102481 1.7841209 57
-2.5596144 -1.0564001 1.7903093 27
-2.500473 -1.12739 1.7945082 64
-2.1194732 -1.1824868 1.795684 69
-2.0245273 -1.1323755 1.7985479 43
-3.6779141 -0.9884243 1.6983303 51
-3.371619 -0.9559415 1.7486978 90
-3.2393591 -0.96291423 1.7814715 37
-2.9735205 -0.94100422 1.7855204 34
-2.6395304 -0.96006721 1.7927014 34.333332
-2.4831274 -0.91173613 1.7872349 36
-2.0024602 -0.92990357 1.79553 74
-1.8744667 -1.0452434 1.7975799 33
-3.66752 -0.86931098 1.7065855 5
-3.3973777 -0.8397184 1.7368721 33.666668
-3.0759547 -0.83874339 1.782357 79
-2.7739859 -0.82843953 1.7841672 64.333336
-2.5767469 -0.83471298 1.7862762 58
-2.4537175 -0.83565497 1.7906636 69
-2.1744311 -0.81911665 1.7937161 66.666664
-2.0373111 -0.81960213 1.7924092 75
-1.9209951 -0.87806374 1.7982656 77
-2.9318752 -0.65758145 1.7899673 10.5
-2.8114126 -0.63561362 1.7857295 70
-2.6323578 -0.68887949 1.7907739 72
-2.498929 -0.67454863 1.7932386 71.5
-2.2536719 -0.64594644 1.795374 69
-2.1490095 -0.62284279 1.7915753 76.5
-2.7352002 -0.53151613 1.7921963 70
-2.6391287 -0.49434164 1.7907211 73
-2.5169091 -0.50482106 1.79695 73
-2.2290738 -0.5733065 1.7969319 74
-2.7810357 -0.32223645 1.7909013 14
-2.6137366 -0.41007456 1.7889439 74
-2.5311534 -0.44795474 1.7927359 72
-2.6232619 0.075566009 1.784556 32
-2.5289299 0.088297933 1.793125 75
-2.2894297 0.024860306 1.7977191 80
-2.1980062 0.11275426 1.7937747 90
-2.5310836 0.28751272 1.7961181 83
-2.3215175 0.19434047 1.7976727 82
-2.652446 0.39150196 1.7951562 86.5
-2.3285847 0.40139544 1.7988907 88
-2.2044683 0.3164494 1.7992357 86
-3.4680266 0.54419005 1.6989197 1
-2.9192545 0.58271796 1.7913097 73.333336
-2.7743893 0.57865781 1.7945422 83
-2.6814077 0.56269181 1.7969671 79
-2.5314641 0.48766124 1.7980257 74
-3.0361409 0.66751677 1.7939783 87
-2.7785883 0.60924745 1.792158 72
-2.6552041 0.65218991 1.7999641 83
-2.5217886 0.69089973 1.7935413 72
-2.3021212 0.64414752 1.7998458 79
-3.264143 0.83491135 1.71924 95.199997
-2.9302683 0.83403587 1.792254 75.666664
-2.7577326 0.81337816 1.792972 78.333336
-2.6472924 0.87337565 1.7945856 16
-2.1717241 0.88463497 1.7761316 23.333334
-2.0175805 0.89989638 1.7208699 49
-1.6118405 0.85586381 1.7524568 39.5
-1.4468086 0.8680048 1.7188162 69
-1.2668095 0.84604383 1.7210191 2
-1.1511835 0.8264457 1.7874109 24
-0.79430497 0.80599827 1.7929811 23.5
-0.64719009 0.79192108 1.796657 20
-0.53250599 0.77647245 1.7947034 24
-3.5601571 0.90260375 1.7041956 98
-2.7223313 1.0140274 1.7936095 14
-2.5190241 0.90230149 1.7988287 1
-2.25249 0.96698505 1.6982263 26
-2.168467 0.96662962 1.6765516 45.5
-1.3109632 0.90840858 1.795143 2
-0.72105169 1.0145594 1.7901419 4
-3.5480046 1.1239579 1.7013969 10.6
-3.2542484 1.117534 1.7384944 16
-3.0389676 1.1565834 1.7897884 13
-2.9415512 1.0967846 1.7959604 4.3333335
-2.8070073 1.0522581 1.7932545 11
-3.5556641 1.4171019 1.6932273 2.6666667
-3.2659459 1.3901391 1.6668118 5
4.4319015 2.4143958 1.6850358 71
1.2296379 -5.9001136 1.8580543 26
2.3101189 -5.8546305 1.8536187 28
3.033385 -5.8694758 1.8929063 31
3.3537333 -5.8525329 1.897838 20
1.4639614 -5.7962122 1.8533589 27
2.4600873 -5.7889938 1.866472 24
2.6093781 -5.7985277 1.878456 29
3.6530323 -5.7953792 1.8915442 23
3.8225887 -5.5611248 1.8465353 36
1.103569 -5.5468817 1.8468491 32
1.7462335 -5.4179335 1.856352 26
-1.7638004 -5.2830596 1.8028408 34
-1.1726626 -5.3072481 1.806862 36
0.77041584 -5.2896457 1.8502148 33
1.0052238 -5.2827878 1.8461174 33
1.8952792 -5.3251438 1.8590903 33.5
2.035991 -5.3073287 1.8693231 32
2.3490858 -5.2908468 1.8814505 27
2.6629298 -5.3320594 1.8872265 26
2.9653039 -5.3398542 1.8820604 28
3.2403915 -5.2929401 1.884132 29
0.25399023 -5.2015934 1.8392342 47
0.45224047 -5.0222845 1.8474025 34
0.69030946 -5.0393295 1.8447341 38
1.257152 -4.9891663 1.8452135 31
0.61858386 -4.822978 1.8356286 47
1.421715 -4.9178567 1.8541187 33.5
1.5635681 -4.8919477 1.8662044 37
1.800519 -4.8033276 1.8727742 37
2.0963871 -4.8810325 1.8760582 33
2.3874865 -4.9320745 1.8716346 33
2.6679907 -4.9401159 1.8729235 33
3.8938587 -4.8897648 1.9070765 32
-1.3865995 -4.7524719 1.8003775 48
-1.2108378 -4.73036 1.8134793 50
0.39857167 -4.7734394 1.8409594 45
3.5879149 -4.6655664 1.888332 26
3.6577752 -4.690033 1.8911916 26
3.7644165 -4.7565484 1.9004608 27
0.1232716 -4.5190248 1.8428508 47
0.34469467 -4.5875831 1.8374623 44
0.84306401 -4.6028123 1.8358163 45
0.95654267 -4.5474153 1.8351499 42
1.0688764 -4.5157967 1.8421851 44
1.9088085 -4.5791125 1.8671039 39
2.1837459 -4.6312084 1.8693208 38
3.2678354 -4.5790396 1.89072 31
3.4937217 -4.5423708 1.9034134 27
0.2952466 -4.4326258 1.8338743 51
1.1581839 -4.4986429 1.8499564 46
1.3481542 -4.3749795 1.8614317 46
1.624701 -4.481143 1.8638521 40
3.0637805 -4.4650116 1.8815057 28.5
3.1733513 -4.4921002 1.8859233 32
3.6354575 -4.3730178 1.9102212 15
-1.5678539 -4.2859044 1.8013388 63
-1.3922849 -4.2678623 1.8102213 55
0.091901377 -4.3346844 1.8396488 46
0.48944634 -4.2600684 1.8312668 48
0.6150912 -4.2320867 1.8408679 40
1.4942609 -4.2508888 1.858399 22
1.7494745 -4.3188004 1.8510374 42
2.5410573 -4.2674217 1.8751155 29
2.6394801 -4.2561769 1.88045 34.5
2.7460446 -4.3088837 1.8838285 36
2.8905332 -4.2262111 1.8914422 36
-1.1267619 -4.1689429 1.8178953 46
0.035194796 -4.1320343 1.8301361 25
0.73199326 -4.1995101 1.8438767 29
0.8254053 -4.1812372 1.8525971 23
1.2368687 -4.1450467 1.8641628 22
1.3866926 -4.0582795 1.8499871 54
2.0920627 -4.0540028 1.8625783 51
2.2906778 -4.0504556 1.8742412 51
3.0661449 -4.1192069 1.8979381 33
3.7412455 -4.1748958 1.9025699 32
-1.1387811 -3.979229 1.8103139 31.5
-1.009917 -3.9820952 1.8083938 29
0.18271713 -3.9443078 1.8285512 59
0.31162775 -3.9125328 1.8300937 53
0.97813302 -4.0076623 1.8563493 53
1.1392279 -3.9543912 1.8508888 54
2.1895313 -4.0188789 1.8644252 46
2.3805928 -3.9321485 1.8782362 45
3.2129934 -3.9822738 1.8901902 32
3.8129747 -3.9579256 1.9103812 26
-1.5448982 -3.8539696 1.8043317 71
-1.1842684 -3.8352063 1.8065943 59
-0.20821035 -3.7950444 1.8268133 52.5
0.43288434 -3.8908272 1.8344659 54
0.53131551 -3.874433 1.8437158 61
0.89938408 -3.8202875 1.8527352 53
1.0650954 -3.8148985 1.8490061 61
1.7376965 -3.8466845 1.862638 50
1.8726183 -3.8127217 1.8661886 53
2.5726247 -3.8739059 1.8827902 39
2.7508461 -3.7981195 1.8820997 38
3.3310561 -3.8214359 1.8967243 32
-1.2547799 -3.6652753 1.8108143 53
-1.0373477 -3.6302161 1.8133413 57
-0.8763712 -3.6249001 1.8117446 60
-0.73960167 -3.6217399 1.820412 58
-0.37124154 -3.7061162 1.8369292 51
-0.081854284 -3.6644402 1.8333472 54
0.051185053 -3.6357446 1.8301502 55
0.22851026 -3.6107798 1.8369327 58
0.66925538 -3.6898999 1.8569905 52
0.83384591 -3.6847873 1.8457326 50
1.3449758 -3.6585603 1.8519384 56
1.4260317 -3.6257117 1.8557595 52
1.531924 -3.6017761 1.8617746 54
1.9583087 -3.6798425 1.8775889 47
2.1601734 -3.6654038 1.8828562 44
2.3440611 -3.6197968 1.8742191 43
2.9003487 -3.6838045 1.8843704 38
3.7652128 -3.6575701 1.9115218 31
-1.6809515 -3.4985049 1.8063198 57
-1.32652 -3.5160122 1.8064477 51.5
-0.40604174 -3.5267038 1.8267139 53.666668
0.61344188 -3.5372906 1.8467151 48
0.78184742 -3.5847414 1.8473114 56
1.0268877 -3.4602735 1.8442081 57
1.9853687 -3.4503424 1.8700036 51
2.5184579 -3.5549202 1.8787588 44
3.2705894 -3.5063038 1.8937846 30
3.5992646 -3.4799559 1.9088143 31
3.7401569 -3.5934219 1.9156898 30
-2.1774213 -3.3895977 1.8008765 58
-1.4070021 -3.3613713 1.8144268 49
-1.2059516 -3.31547 1.813923 62
-0.9764539 -3.3275776 1.8168877 59
-0.55943131 -3.3650131 1.8316799 58
-0.3164109 -3.3705566 1.8180147 51
-0.17735286 -3.3762276 1.8303634 59
-0.048940767 -3.3626375 1.8294019 56
0.059653502 -3.3559954 1.8399171 68
0.40404356 -3.3953509 1.8540994 55
0.54829901 -3.4021254 1.8441927 57
1.1566159 -3.4119031 1.8479134 55.5
1.2612884 -3.393899 1.8567253 52
1.5905492 -3.4375668 1.8719867 54
1.7873237 -3.4464726 1.8709189 52
2.1695156 -3.4193997 1.8713111 48
2.849148 -3.3701141 1.8881296 44
3.1810191 -3.396383 1.8940105 42.5
3.4678566 -3.3599112 1.8993472 30
3.7651989 -3.3544893 1.9217733 28
-1.7951138 -3.1678181 1.8019263 67
-1.4282809 -3.2385008 1.8086187 57
-0.61531883 -3.181489 1.8178273 60
-0.57671225 -3.255599 1.822072 56
0.35079172 -3.2437327 1.8422927 53
0.74760491 -3.2778943 1.8439955 63
0.84316248 -3.2428529 1.8446692 56
0.96648252 -3.2130232 1.8525389 58
1.2701032 -3.2055192 1.8611876 53
1.4655451 -3.2473545 1.8636857 48
1.5670325 -3.1541851 1.862486 54
1.662868 -3.2822361 1.8635164 49
1.8585796 -3.2928941 1.8702494 57
2.4432659 -3.1980593 1.8829308 48
2.6628582 -3.1965837 1.881084 39.5
2.7671137 -3.2720232 1.8903892 41
2.9908185 -3.2302365 1.8835601 36
3.0533168 -3.281966 1.8839983 50
3.2874994 -3.2380862 1.9016501 48
3.3653314 -3.2613797 1.8872312 27
-2.239794 -3.0146689 1.8003107 56
-1.5089257 -3.0155435 1.8064207 54
-1.3500911 -3.0155156 1.8071283 58
-1.1218659 -3.0436487 1.8093818 62.5
-0.72173566 -3.0323925 1.8255397 58
-0.52000004 -3.1146388 1.8170162 59
-0.37923464 -3.1235104 1.8225948 63
-0.24661988 -3.121671 1.8244506 61
-0.13496855 -3.1151903 1.830603 73
0.16598625 -3.0799837 1.8428868 57.5
0.30025524 -3.1459534 1.8348445 62
0.54300159 -3.0707326 1.8365564 43
0.6915555 -3.0359132 1.8422557 59
0.76387221 -3.0182507 1.8474022 65
1.1863972 -3.0651162 1.8626686 52
1.3024472 -3.0169127 1.8546144 55
1.3714987 -3.111553 1.8541268 50
2.0379083 -3.0391777 1.8729335 51.333332
2.1422317 -3.100805 1.8802346 51
2.3426466 -3.1199846 1.8793319 45.666668
2.5235894 -3.0350404 1.8975557 47
2.8834155 -3.1375825 1.898017 39
3.3316851 -3.0382941 1.8930868 27
-1.5501047 -2.9264836 1.8047428 60.25
-0.77609575 -2.9277925 1.8149275 65
-0.72353661 -2.9186435 1.8180722 63.5
-0.55725127 -2.8872211 1.817386 61
-0.36399126 -2.8989482 1.8243346 69.5
-0.016641427 -2.8742199 1.8413604 63
0.11266322 -2.9658294 1.8328712 65.5
0.2633267 -2.906965 1.8350402 65
0.37519586 -2.8874705 1.8393513 60
0.47605139 -2.8614249 1.8371972 62
0.96575707 -2.9369333 1.8545692 57.5
1.0868289 -2.9156282 1.8470438 56.5
1.7465833 -2.9379809 1.867591 49.333332
1.8454256 -2.9679635 1.8767568 50
2.0325136 -2.9707825 1.8822945 50
2.1818507 -2.9076035 1.8824056 48
2.6368594 -2.9179499 1.8867708 41
2.7375779 -2.8549874 1.8942105 43
2.9740822 -2.9857538 1.8924645 40
3.1080618 -2.9357867 1.8982412 40
-1.6015177 -2.716253 1.8076931 65
-1.479377 -2.7450187 1.8067781 64
-1.323988 -2.7827022 1.8094755 64
-1.1818092 -2.8045208 1.814936 69
-0.86850905 -2.7529728 1.8247809 55.333332
-0.056368534 -2.7930346 1.8393826 61.333332
0.058495265 -2.7321169 1.8339728 59
0.2302984 -2.7108712 1.8383622 61
0.55575705 -2.8455606 1.8426608 68
0.71382898 -2.7072897 1.8468598 58
0.82815695 -2.7806683 1.8456424 61.666668
1.1706851 -2.7425883 1.8523437 57
1.2272162 -2.7055106 1.8486944 52
1.4487654 -2.8342128 1.8577473 52
1.549861 -2.8184483 1.862898 51
1.7276146 -2.8222036 1.8774999 53
1.8876817 -2.7957551 1.8797997 45
2.0407479 -2.7576392 1.876454 46
2.3245103 -2.8386712 1.8793064 48
2.4236972 -2.7482231 1.8882284 46.666668
2.6064544 -2.7047698 1.8890506 25
2.7394772 -2.8103201 1.892676 44
2.8987167 -2.7359347 1.8995718 43.5
3.0361335 -2.8121326 1.8976465 43
-1.6596447 -2.623492 1.8052632 70
-1.6298403 -2.6830769 1.8041474 66.5
-1.2980629 -2.5727892 1.8153607 63
-0.91884625 -2.6955245 1.8183414 58
-0.86020035 -2.6473744 1.8170916 56
-0.71677035 -2.6771886 1.8231987 59
-0.5186007 -2.6964719 1.8257267 63
-0.21053606 -2.6126814 1.8391796 64.75
-0.064367384 -2.5579784 1.8354113 58.5
0.37007982 -2.6843042 1.8422145 68
0.55000705 -2.6134882 1.851787 63
0.66102445 -2.6384909 1.8432695 59.5
0.97249174 -2.6167455 1.8478537 58
1.0903655 -2.5706391 1.8512743 59
1.3064516 -2.6906657 1.8544382 54.5
1.409922 -2.6081767 1.8633626 51.5
1.5726806 -2.6212158 1.8652995 48
1.7368611 -2.6221027 1.8704828 48.5
1.8930337 -2.6021571 1.8797278 52
2.0432246 -2.5686586 1.8803786 45
2.1625552 -2.6418324 1.8836989 47.5
2.2884855 -2.6104293 1.8881518 46
2.5292425 -2.6254354 1.8880301 45
2.7998607 -2.6396613 1.8902255 43
-1.7099348 -2.4228613 1.8041382 63.666668
-1.5930687 -2.4901893 1.8069862 58
-1.4396131 -2.5419006 1.8103598 61
-1.0024334 -2.4882345 1.8218908 54.400002
-0.85654062 -2.4650846 1.8191296 61
-0.71748161 -2.4989748 1.8257657 63
-0.59428412 -2.5074069 1.8256713 71
-0.35613549 -2.4208937 1.8380767 67
0.1100644 -2.5418322 1.8354908 62
0.20291699 -2.5248139 1.8375152 67
0.36601883 -2.4324701 1.8450371 64
0.49918658 -2.4892581 1.8426205 59
0.72550374 -2.5219102 1.8443085 56
0.83629042 -2.4744864 1.8467362 53.5
0.91858977 -2.4436824 1.8486875 55
1.150573 -2.4327102 1.8562173 55
1.2597243 -2.4734449 1.8566791 62
1.4700475 -2.4989572 1.8598562 51
1.581368 -2.4243371 1.8687667 52
1.7433422 -2.4466136 1.8672934 46.5
1.8925362 -2.4737236 1.875762 49.333332
1.9887884 -2.508893 1.879295 43.5
2.166436 -2.4882019 1.8787538 45.5
2.4638851 -2.4823749 1.8881305 44.666668
2.6708145 -2.531584 1.8855079 45
2.701782 -2.5378537 1.8834773 42
-1.7457699 -2.3572421 1.8016831 60
-1.5421686 -2.3118913 1.8096 67
-1.4000791 -2.3528118 1.8135701 63
-1.1093214 -2.2812982 1.8223209 61
-0.9805547 -2.2606964 1.8139681 55
-0.84289813 -2.3027008 1.8183261 61
-0.716434 -2.320086 1.8178233 59
-0.22996244 -2.3903947 1.8322967 67.5
-0.046310056 -2.3938489 1.8388036 70
0.051931601 -2.3807487 1.8400518 72
0.2503252 -2.3198061 1.8452185 71
0.36264884 -2.3299325 1.8428223 64.75
0.65588701 -2.3728189 1.855948 44
0.78852689 -2.3149281 1.8753675 45.5
0.95013702 -2.3313329 1.8703526 40
1.08158 -2.3266995 1.8504375 53
1.2871027 -2.3167226 1.8520043 55.5
1.4073236 -2.3263247 1.8610103 54.799999
1.5550146 -2.3364453 1.8635455 49.333332
1.676077 -2.341996 1.8640801 47
1.838747 -2.333504 1.8668584 45
2.0683343 -2.3722088 1.8801409 48
2.2937999 -2.3884599 1.8818337 47
-2.1584044 -2.1191051 1.81993 37
-1.8519264 -2.1671848 1.8247452 35
-1.735757 -2.1925766 1.8040924 61.666668
-1.6496264 -2.1210442 1.8371814 27
-1.4921786 -2.1465423 1.8145577 69
-1.1233342 -2.211817 1.8089083 59
-0.95550525 -2.1238503 1.8202857 64
-0.82745767 -2.1511874 1.8204559 66
-0.48521626 -2.2329481 1.8313673 62.25
-0.37836668 -2.2255139 1.8275505 64.5
-0.18887222 -2.2389226 1.832116 71
-0.043692499 -2.1709833 1.8348386 72
0.075187601 -2.1482475 1.8385243 71
0.20302789 -2.1977665 1.839669 66.25
0.36977816 -2.1171575 1.8382391 64
0.55533612 -2.2245607 1.8478787 70
0.69736457 -2.1498475 1.861753 37
0.77571172 -2.2216263 1.8780444 38.5
0.97178108 -2.1649342 1.8739958 34.400002
1.1276881 -2.191004 1.856693 51.714287
1.2757838 -2.2163985 1.8594942 53
1.4281933 -2.2482896 1.8583783 52
-1.8836756 -2.000077 1.818428 37.333332
-1.7780789 -2.0168631 1.8018893 59
-1.2345197 -2.0414312 1.8135291 61
-1.1431783 -2.0770571 1.8196869 60.666668
-0.92662543 -1.9851695 1.8194653 69
-0.62469888 -2.0594685 1.8241216 71
-0.57537979 -2.0535424 1.8277539 61.333332
-0.37994462 -2.0207791 1.8304958 70.5
-0.2087927 -2.0941556 1.8339304 77
-0.093957588 -1.9674863 1.8386708 70.25
0.068979681 -2.0574806 1.8373271 68.333336
0.23022623 -2.0060186 1.8365418 71
0.40037614 -2.0156474 1.8427919 67.25
0.53044707 -2.0337844 1.8449023 64
0.65506661 -2.0088532 1.8454225 50.25
0.80568242 -2.0239849 1.8563405 38
0.93051767 -2.0789015 1.8666574 30.666666
-2.2144916 -1.8777528 1.8073372 37
-1.9605597 -1.8442314 1.8075296 34
-1.8722068 -1.9066585 1.8152262 34.5
-1.7097636 -1.878374 1.8003875 68
-1.5714321 -1.9432732 1.8077992 71
-1.293957 -1.858963 1.8165205 70.599998
-1.1233222 -1.9139303 1.813574 64
-1.0165449 -1.8259065 1.8201607 69
-0.70113701 -1.8935461 1.8287678 75
-0.55465418 -1.8705292 1.8276587 68
-0.42334095 -1.8255974 1.8284694 83
-0.20838073 -1.8330889 1.8370392 80.75
-0.058130398 -1.9229314 1.8393413 71
0.12497452 -1.8522006 1.8371335 75
0.24001794 -1.8777342 1.8425719 71.333336
0.36067179 -1.871153 1.8447261 64.333336
0.52533543 -1.8722426 1.8454545 72.400002
0.66122264 -1.9012661 1.8480003 63.75
-1.8961202 -1.6898886 1.8031278 61.333332
-1.7845184 -1.6806986 1.8028713 68
-1.646735 -1.7537117 1.8074807 71
-1.3972634 -1.6708345 1.814523 71
-1.3040241 -1.6948233 1.8194937 67.666664
-1.1226161 -1.7245739 1.8194289 71.5
-0.806669 -1.7346551 1.8222812 75
-0.68717003 -1.7218159 1.8259298 75.666664
-0.5168075 -1.6995966 1.8279501 88
-0.34799096 -1.706597 1.8312672 81.666664
-0.2609947 -1.7107966 1.8342494 79.25
-0.071845666 -1.7319469 1.8354234 77.5
0.066904068 -1.7046877 1.8395468 78.5
0.21656145 -1.7304803 1.8417894 73
0.37015644 -1.7187843 1.8442861 75.833336
0.5059976 -1.778546 1.8524085 75.666664
-1.9099038 -1.5510843 1.8049041 61.5
-1.7138351 -1.5709846 1.8071452 72
-1.3787899 -1.5542389 1.8134984 70
-1.2277751 -1.6104991 1.8149201 70
-1.1724665 -1.5201401 1.8189496 74
-0.91983742 -1.5870374 1.8201568 79.5
-0.83186466 -1.5844493 1.825814 79
-0.66467988 -1.5596006 1.8269861 81
-0.464535 -1.58398 1.8331125 80.5
-0.37477332 -1.5650029 1.8381484 78.75
-0.20317358 -1.5437834 1.8386805 83
-0.067468956 -1.559131 1.8397893 77.666664
0.073833928 -1.5713273 1.84276 78.714287
0.22373065 -1.5866301 1.843497 77.599998
0.31726062 -1.5824248 1.8435169 76
-2.0005345 -1.4409833 1.8010219 57
-1.8937149 -1.4852395 1.8036826 64.5
-1.7750021 -1.3931339 1.8069195 66
-1.4481364 -1.4537964 1.8099508 75.800003
-1.2705604 -1.4117155 1.8159195 77
-0.97209996 -1.4329729 1.8266406 79.75
-0.85207146 -1.4369254 1.8289176 76.333336
-0.65830374 -1.4104192 1.8314912 82
-0.52108669 -1.4548765 1.8337451 81.25
-0.37830448 -1.4085723 1.8371432 73.199997
-0.23922324 -1.4148922 1.8382061 82.199997
-0.088145003 -1.4260587 1.8415902 77.14286
0.091929555 -1.4300512 1.843394 84.599998
0.22175635 -1.4911642 1.8486351 80
-2.0121093 -1.257032 1.8027824 66
-1.9157733 -1.3046025 1.8023856 63
-1.5572338 -1.2787762 1.80712 70.5
-1.4261705 -1.3159928 1.8144835 72.25
-1.3013746 -1.2276813 1.8173105 81
-1.0761528 -1.2835733 1.8174663 74.5
-0.97938234 -1.27465 1.8240354 75.800003
-0.81658387 -1.2765685 1.8263597 74.333336
-0.65374315 -1.2476707 1.8328838 68
-0.52274168 -1.3050807 1.8340321 80.800003
-0.36437592 -1.2544056 1.8391751 56.333332
-0.20970434 -1.2764101 1.8410331 50.875
-0.070764653 -1.2684262 1.8449926 51.833332
0.028640758 -1.3207489 1.8431035 74.5
-2.1805372 -1.0585204 1.8017076 27
-1.9608829 -1.1182307 1.8074565 29.5
-1.5910544 -1.1167157 1.8100343 33.666668
-1.4431636 -1.1482947 1.8167598 47.400002
-1.1129102 -1.125157 1.8264343 36
-0.99185103 -1.1359946 1.83278 37.666668
-0.81890565 -1.0909058 1.828145 37
-0.69343668 -1.11616 1.8322411 36.75
-0.52943099 -1.1326698 1.8289447 26
-0.37296942 -1.1283187 1.8318602 19.142857
-0.24084739 -1.122372 1.8318528 18.75
-0.12655453 -1.1343132 1.8398327 19.666666
-2.4203968 -1.0367379 1.8009135 28
-2.1675813 -0.98014927 1.8020998 27
-2.0510309 -0.98536777 1.8017292 35.333332
-1.6632543 -0.92820567 1.807864 70
-1.5544327 -0.99879479 1.8118428 36.666668
-1.4541079 -0.97572726 1.8135209 54
-1.2023659 -0.98166078 1.8179816 85
-1.1353594 -0.98106492 1.8216907 71
-0.98810488 -0.99167413 1.8198303 72.333336
-0.82253414 -0.96591359 1.8216505 93.333336
-0.65530843 -0.96899134 1.8204256 66.285713
-0.52262801 -0.97271395 1.8205069 58.57143
-0.37850085 -0.97948033 1.825328 44
-0.2346293 -0.97528583 1.8276764 44.5
-0.14108919 -1.030959 1.8315579 41
-2.1339691 -0.79729551 1.8030413 64
-2.0010505 -0.75324231 1.8078533 69
-1.6916655 -0.77663922 1.8065387 78
-1.563015 -0.83686972 1.8121645 72.599998
-1.4527031 -0.80452973 1.8173643 78
-1.2515332 -0.84526885 1.8207039 86.5
-1.1176261 -0.83759683 1.8215499 89.666664
-0.94845402 -0.83458751 1.8228043 89
-0.81798762 -0.84084576 1.8229396 80.199997
-0.6643576 -0.80832356 1.8256142 79
-0.5305351 -0.83039606 1.8227733 70.428574
-0.36867562 -0.83500642 1.8283993 55.833332
-0.26212037 -0.81927139 1.8320324 52
-2.0163114 -0.71070385 1.8039659 74.5
-1.699767 -0.66336221 1.809477 72.666664
-1.5827315 -0.68864262 1.813834 72
-1.4938693 -0.66429156 1.8172101 80
-1.2575178 -0.69574112 1.8208824 89.25
-1.1142385 -0.67775178 1.8208174 78.25
-0.97565019 -0.69990647 1.8186964 81.5
-0.8310973 -0.67064291 1.822242 84.428574
-0.6748721 -0.68948567 1.8242928 81.125
-0.52002865 -0.66476792 1.8256754 78.571426
-0.39566007 -0.67569023 1.8281302 68.166664
-2.0471768 -0.55600721 1.8031158 79.5
-1.707356 -0.53163874 1.81496 70.333336
-1.5759968 -0.53074634 1.8182261 74.5
-1.2742515 -0.53550828 1.8182552 81.199997
-1.1441417 -0.5327583 1.8193098 74.199997
-0.96704757 -0.52335548 1.8181674 80.5
-0.79738009 -0.53265458 1.8216102 82.428574
-0.68539214 -0.52512139 1.8231142 80.111115
-0.53022534 -0.52899671 1.8269531 82
-0.39831865 -0.49295694 1.8291984 77.5
-1.7400113 -0.38520402 1.814272 73
-1.6000749 -0.38260663 1.8193625 80.75
-1.3590307 -0.40981421 1.8158082 81.5
-1.2569534 -0.37334016 1.8147669 74.599998
-1.1181065 -0.34580722 1.8205972 75
-0.99729508 -0.40289176 1.8181171 83.25
-0.81792837 -0.38119763 1.8230534 82.222221
-0.68013895 -0.37167659 1.8279816 80.75
-0.53619826 -0.39584064 1.8302052 77.800003
-0.43440795 -0.37353355 1.8316036 74
-1.8096901 -0.2228296 1.8093868 84
-1.7227731 -0.22200388 1.8134054 85.25
-1.6052283 -0.23599575 1.8211156 87
-1.3816061 -0.26574868 1.8134809 91.5
-1.2738254 -0.22437012 1.8159646 79.25
-1.1305916 -0.21813984 1.8183829 78.599998
-0.96239501 -0.2132021 1.8198686 80.166664
-0.82253098 -0.23549874 1.8241123 78.5
-0.67647803 -0.2234648 1.8281169 77.25
-0.54310608 -0.23832546 1.8316091 74.25
-1.8276631 -0.051099211 1.808767 78
-1.7218441 -0.061539669 1.814501 87.400002
-1.6002166 -0.10279477 1.8222504 88
-1.3956374 -0.12013479 1.8069727 79.5
-1.2861849 -0.075331025 1.816797 83
-1.1278244 -0.064099409 1.8169081 80.800003
-0.96729243 -0.063637726 1.8207767 83.25
-0.83811629 -0.073959664 1.8242939 78.400002
-0.6758188 -0.069921002 1.8288711 79.85714
-0.55519676 -0.074881494 1.8300623 78.166664
-2.1406319 0.093896538 1.8021189 85
-2.0374339 0.1035147 1.8044814 83
-1.8222228 0.094901554 1.8127855 82
-1.7080873 0.087844498 1.8160629 85.333336
-1.610085 0.041089866 1.8216065 87
-1.4085715 0.024810906 1.8098246 89
-1.2836609 0.073842399 1.817082 79.400002
-1.1375664 0.093361109 1.8222266 82.5
-0.95376313 0.080977336 1.8214045 84.428574
-0.84247744 0.067337885 1.8230219 78
-0.66723651 0.07686203 1.8269598 78
-0.53271365 0.068218879 1.8302275 79
-2.7182157 0.22743575 1.8601424 4
-2.2669909 0.155707 1.8043481 72
-2.1216598 0.19281784 1.8053666 77
-2.0346463 0.27274781 1.8056792 87
-1.8263686 0.2689226 1.811927 82.5
-1.7169211 0.22450539 1.8141752 83.75
-1.6155362 0.18655911 1.8205147 83.5
-1.3905598 0.20038614 1.8224007 102
-1.2724606 0.21923152 1.8214451 85.75
-1.1221949 0.24001329 1.8173075 80.666664
-0.97374731 0.22893107 1.8194228 78.666664
-0.8270368 0.22048461 1.8248618 80
-0.67941064 0.21998459 1.8291901 80.5
-0.54678166 0.21627486 1.8298969 83.5
-2.2775481 0.35156319 1.8026456 75
-2.1261492 0.3382678 1.8035274 87.5
-2.0288229 0.44402191 1.8060862 89
-1.8030577 0.41617131 1.8111736 84
-1.7200292 0.37296146 1.8140125 82
-1.609782 0.35894519 1.8185943 83.5
-1.3985343 0.36232582 1.8228664 98
-1.2625597 0.37019038 1.8206543 80
-1.1158618 0.36707675 1.821857 76.666664
-0.9743439 0.37921545 1.8204863 79.800003
-0.84340727 0.37296081 1.823999 78.900002
-0.66248024 0.36416858 1.830864 80.571426
-0.53370339 0.38720614 1.8314426 78.25
-2.3233414 0.56630397 1.8035569 78.5
-2.1722751 0.51568806 1.8036896 82.25
-1.8449893 0.47200385 1.8110734 84
-1.7238518 0.53402752 1.8132317 84.25
-1.5991273 0.50930226 1.8198563 80.5
-1.3912582 0.51169509 1.8250252 95.666664
-1.2600844 0.52074063 1.821556 81.75
-1.0976 0.52015513 1.8216773 80
-0.97728062 0.52862906 1.8235463 74
-0.83521259 0.52031648 1.8246431 76.900002
-0.67740262 0.53698468 1.8260206 76
-0.54913509 0.53026468 1.8297697 77
-2.1741951 0.7086162 1.8056116 82.25
-2.0200918 0.61744976 1.8093036 88
-1.8350081 0.65124518 1.8081986 91
-1.7147138 0.66126275 1.8136712 91.75
-1.5806618 0.66014767 1.815689 83
-1.3971894 0.62666297 1.8272177 97.5
-1.2723099 0.68403906 1.8276144 91.199997
-1.1250149 0.68997693 1.8262068 88.333336
-0.96820432 0.66617078 1.8238695 75
-0.81046432 0.65408391 1.8253356 73.285713
-0.69752175 0.70796698 1.8309964 72.85714
-0.54068935 0.65755641 1.8336653 76.400002
-0.44442222 0.70621085 1.8363866 81
-2.3156822 0.80615646 1.8041182 57.333332
-2.0013673 0.79181743 1.8039593 90
-1.8201334 0.83460277 1.8056475 18
-1.7216409 0.80225348 1.8117052 50.75
-1.5291862 0.76363415 1.8250312 86
-1.373768 0.78167325 1.8242458 64.5
-1.2434357 0.83556014 1.8216476 7.3333335
-1.0833623 0.81783009 1.8306377 50
-0.98282373 0.80999428 1.8209053 11.5
-0.84769678 0.80680424 1.8211771 13.666667
-0.67522472 0.83719462 1.8219379 12.2
-0.51049572 0.82548308 1.8311135 11.5
-0.40377152 0.83843017 1.8155707 12.5
-3.0508769 0.91163641 1.8017999 8
-1.2485614 0.98602343 1.8157082 13
-1.1558733 1.0041387 1.817592 12
-0.98528659 0.96210134 1.8216966 13
-0.81831813 0.94779634 1.8260394 11.166667
-0.67211986 0.95946807 1.8231238 12.333333
-0.53647465 0.97717178 1.8304967 12.222222
-0.38537323 0.97639912 1.8221333 11.5
-2.7912905 1.0997443 1.8038973 0
-1.2785773 1.111205 1.8266991 13.333333
-1.1499492 1.1451184 1.8361923 12.666667
-0.94639415 1.1034189 1.8327528 12
-0.8072083 1.1184787 1.837952 12.333333
-0.67436975 1.10457 1.8386493 11.166667
-0.5064075 1.1324499 1.8388071 12.25
-0.37661779 1.1239566 1.8440794 13.166667
-1.700079 1.3448029 1.8135468 0
-1.5373039 1.2088892 1.8260394 3
-1.2499468 1.2093978 1.8284048 15
-1.7143197 1.3897738 1.8153273 1.5
-1.9001844 1.5517883 1.8118049 0
0.56802756 2.3295221 1.8605431 46.25
0.6344099 2.3474414 1.8512572 59
0.67982757 2.4479995 1.8575673 47.75
0.79623258 2.4848218 1.8585443 56
0.68099546 2.6291358 1.8535872 58
0.80853277 2.5641682 1.8599278 5
0.91778535 2.5627785 1.8591391 4
0.4944298 2.3052697 1.953488 63
0.52340966 2.4459023 1.9538546 62
