# .PCD v0.7 - Point Cloud Data file format
VERSION 0.7
FIELDS x y z intensity
SIZE 4 4 4 4
TYPE F F F F
COUNT 1 1 1 1
WIDTH 124
HEIGHT 1
VIEWPOINT 0 0 0 1 0 0 0
POINTS 124
DATA ascii
3.2614093 -3.9667056 -0.786717 2
2.593724 -3.8379955 -0.78863657 8
2.866899 -3.8401077 -0.78774428 1
1.879426 -2.7851615 -0.79872715 5.5
2.0203381 -2.736665 -0.79498386 5
2.251627 -2.7627344 -0.79539007 6
2.5320318 -2.8286669 -0.79024887 6
1.8664994 -2.6715183 -0.79522115 7
1.7566383 -2.4675813 -0.79267436 4
1.3640457 -2.3227413 -0.81205732 0
1.6998945 -2.2508891 -0.80103052 6
1.6279989 -2.1847744 -0.79877973 8
1.8789458 -2.1063485 -0.79736346 8
1.5391505 -2.0324929 -0.80418706 7.5
1.6973151 -2.0953918 -0.80221742 7
1.5507392 -1.8499194 -0.80718452 7
1.6821508 -1.7036757 -0.81051344 18
1.722683 -1.6164891 -0.7712478 83
2.3401709 1.0461705 -0.7868951 9
2.0546899 1.0529408 -0.79511845 13
2.4959097 1.3086774 -0.78568786 6
3.6067882 1.642588 -0.77382553 7
4.2731199 2.0027385 -0.75272107 1
0.61844754 2.2167716 -0.80425638 0
3.9924757 2.1354201 -0.76530999 2
0.60957044 2.3614936 -0.80676818 6
0.53159642 2.5798762 -0.81219649 3
0.75333518 2.576895 -0.8017844 5
0.66051739 2.7950239 -0.80526531 6
0.91231924 2.8036928 -0.79493195 1
0.80576748 3.0245368 -0.79841959 14
1.688387 -1.7875079 -0.71299428 80
1.7022216 -1.5299973 -0.60264903 79
1.715799 -1.4058666 -0.6336444 85.333336
1.7295593 -1.2474221 -0.65284371 88.5
1.7336693 -1.0989488 -0.67522919 84.400002
1.7386533 -0.97852433 -0.64587784 74.5
1.7473345 -0.84249038 -0.64528525 79
1.7606032 -0.69130307 -0.65211028 90
1.803093 -0.0013363801 -0.60773665 95
1.8124964 0.13773094 -0.61525154 87
1.819135 0.2809104 -0.61771876 87
1.8252773 0.42624384 -0.61527193 88
1.8379078 0.57784295 -0.60780782 56
2.094604 0.82187313 -0.62579745 80
0.90111738 1.6480309 -0.64457834 21
3.9141967 1.6737322 -0.72507864 22
3.9009268 1.8664517 -0.60932416 48
1.0108088 3.3734975 -0.62299758 25.5
1.0607964 3.9834778 -0.6247713 88
3.8939497 -5.8496804 -0.50763631 51
3.9781845 -4.5433202 -0.46868378 85
3.9857423 -4.4897671 -0.49053749 77
3.999023 -4.1777301 -0.54568565 61.5
3.5682673 -3.8596218 -0.47707701 27
0.061909396 -1.8796046 -0.54182392 9.6000004
1.674036 -1.8896369 -0.48107406 44.5
0.075218014 -1.7314901 -0.54242986 22.166666
1.6860405 -1.7416836 -0.50254011 78.666664
0.08554168 -1.5712998 -0.54583478 27
1.6991262 -1.5802422 -0.53525019 80.25
-0.091458902 -1.4803039 -0.45429745 2
0.093167946 -1.4407234 -0.46440661 18.5
1.7111341 -1.4271939 -0.55412984 81.5
0.098279819 -1.3057867 -0.45585832 6
1.7213167 -1.2736341 -0.54586983 84.666664
1.7282448 -1.1275401 -0.56527603 72.5
1.7380118 -0.95875174 -0.58250552 83
1.7482533 -0.81311595 -0.45798093 81.5
1.7593843 -0.67349517 -0.4942984 82
1.7668152 -0.53699136 -0.4958207 85
1.7774891 -0.40324086 -0.52041739 88.75
1.7840959 -0.24058291 -0.51363844 96.14286
1.7921674 -0.090944804 -0.52771169 98.14286
1.8030031 -0.019426331 -0.52367872 96
1.8062298 0.085912108 -0.52857691 89.400002
1.8195635 0.21587203 -0.51902813 91
1.8625387 0.35764578 -0.52139586 140.33333
1.8431599 0.50606626 -0.5060994 96.714287
1.7676613 0.62008017 -0.49698272 4
1.8151445 0.64893645 -0.5365811 11.666667
2.0547187 0.80539954 -0.46395129 85
2.133436 0.87518072 -0.58353722 3
0.8587001 1.0413828 -0.46297285 25
0.87890625 1.2539638 -0.49976858 28
0.88564527 1.4231188 -0.49220794 26.200001
0.89306396 1.6032481 -0.46512991 27.5
0.90061527 1.6078029 -0.59186941 26
3.9269965 1.9419882 -0.56530643 24
4.422071 1.9555155 -0.52594328 103
0.94139093 2.1449776 -0.50842559 8
4.2902889 2.2287247 -0.52645886 0
1.0072488 3.3035581 -0.47213912 45
1.0110139 3.5035748 -0.53676426 31
1.0216765 3.6069758 -0.57319063 51
3.9785473 -4.6201272 -0.40304783 89
0.38843709 -4.2341242 -0.41516981 56
3.5279047 -3.7386239 -0.41979483 24
0.070603162 -1.7393343 -0.42675602 25.5
0.08281526 -1.5389092 -0.42573422 25
1.6896685 -1.6431948 -0.42392695 72
-0.18660125 -1.4325705 -0.40319473 12
-0.10567324 -1.4596308 -0.42830738 7.5
0.090607867 -1.4087105 -0.42632565 18
1.7134719 -1.3961413 -0.44398209 72
0.10080208 -1.3397113 -0.40458074 6
0.10827853 -1.1573741 -0.40316632 5
1.7351773 -0.95509458 -0.41624394 78.5
1.7508473 -0.80713952 -0.40731382 87
1.7589935 -0.67208302 -0.43769705 83.5
1.7656476 -0.53998852 -0.41384038 81
1.7766377 -0.36437473 -0.43093318 87.75
1.7853459 -0.18326156 -0.41328567 101.5
1.7882133 -0.064423449 -0.4229604 99
1.8065389 0.054814346 -0.43042162 91
1.8106935 0.21689141 -0.40921384 83.5
1.8304901 0.59151179 -0.44147962 27
2.1167467 0.83094561 -0.43491277 7
0.87863821 1.1266475 -0.42579597 15.5
0.88778073 1.3700963 -0.43877465 24
0.89437789 1.5854491 -0.43771142 22
0.90175241 1.6499987 -0.44798964 25
4.4386463 2.2860577 -0.41681761 81
0.99474674 3.1172073 -0.4121938 43
