# .PCD v0.7 - Point Cloud Data file format
VERSION 0.7
FIELDS x y z intensity
SIZE 4 4 4 4
TYPE F F F F
COUNT 1 1 1 1
WIDTH 1726
HEIGHT 1
VIEWPOINT 0 0 0 1 0 0 0
POINTS 1726
DATA ascii
4.235714 -4.3741331 -0.16555604 65
0.89377111 -4.1641703 -0.19137612 79
1.0591803 -4.1598711 -0.19851999 47
0.5636605 -3.736222 -0.16827817 14
-0.043483961 -3.4343584 -0.16621871 94
1.6178639 -3.3405373 -0.15710795 3.5
1.7296798 -3.3685486 -0.15827627 5
1.6997401 -3.2350786 -0.18301973 5
-0.44038028 -1.9092338 -0.19339159 0.5
-0.49073458 -1.5266298 -0.17721041 14.333333
-0.34485942 -1.5216609 -0.18364073 12
-0.27092853 -1.5129709 -0.18410915 14.333333
1.4997938 -1.6284209 -0.19848146 4
-0.49853277 -1.4963912 -0.16776851 15
-0.12040457 -1.4433364 -0.19635268 1
-0.50105876 -1.2623179 -0.18705408 11
1.4651934 -1.2471519 -0.16825351 62
-0.52278042 -1.1342119 -0.1699343 13.125
-0.36454669 -1.1215358 -0.17736341 13.375
-0.20337452 -1.1161275 -0.17900398 17.571428
-0.1587915 -1.023067 -0.17662776 1
1.4458889 -0.97748649 -0.17929085 70
1.433635 -0.83131999 -0.17966363 69.5
-0.18665801 -0.71576637 -0.16735518 9.5
1.4249113 -0.70390439 -0.17102909 70
1.4121751 -0.52807736 -0.17039819 66
1.3990464 -0.3818264 -0.19210744 64.5
1.3808601 -0.22493279 -0.17175232 76
1.3673191 -0.052403241 -0.18403991 94.666664
1.355884 0.081784226 -0.16997799 117
1.3426136 0.25342607 -0.18772732 110.66666
1.3291781 0.36689633 -0.17737675 85
1.3176397 0.51587719 -0.16559947 77.666664
-0.67283332 0.7040804 -0.17665602 1.2
1.3188556 0.69458604 -0.17991406 136.5
0.26747754 0.84482127 -0.17084903 1.3333334
0.32728082 0.79088873 -0.17829326 0
1.28968 0.80884248 -0.16682394 72.333336
-0.3275055 1.0022792 -0.17652695 11
-0.25020939 1.0378314 -0.17641525 10.666667
1.2398437 0.93891025 -0.16196389 3
-0.44417268 1.1064389 -0.16559622 9
-0.21825612 1.1063799 -0.17959501 11.666667
0.24564655 1.1726342 -0.19690011 4
0.23983844 1.2487501 -0.17894013 3.3333333
0.21538652 1.4269148 -0.15256993 18
0.21202652 1.5350831 -0.173528 10.5
0.15376051 1.9536549 -0.19364426 11
3.5936933 2.9288952 -0.16521707 78
-1.4067608 4.0044794 -0.18745577 102
-1.1378412 4.0312705 -0.17209134 109
-0.92159444 4.0410075 -0.19965047 114
-0.85663337 4.052464 -0.16362572 106
-0.57640785 4.0790019 -0.16781732 9
0.70823979 -3.675328 -0.090659194 63.666668
0.92503613 -3.6969135 -0.13936403 80
3.5306585 -3.4613373 -0.14764579 17
-0.16783452 -3.4381015 -0.11586837 66
-0.07860548 -3.4325252 -0.10052367 36
0.041613564 -3.4209547 -0.13062814 97
0.46491009 -3.3933413 -0.08327008 5
1.1821598 -3.3289251 -0.091971911 48
1.3258805 -3.3277216 -0.05248991 16
1.4333936 -3.3301542 -0.061392527 33.75
1.5683742 -3.3209867 -0.12018407 0
1.6738684 -3.1715746 -0.13285534 0
1.4803272 -1.5805657 -0.01132441 39
1.4773443 -1.4108193 -0.095614798 60
1.4665856 -1.3002928 -0.031395543 55
-0.61117327 -1.1147879 -0.11018629 6.75
-0.5360691 -1.1172609 -0.12556916 8.5
-0.3683815 -1.1205641 -0.11243115 12.5
-0.2431609 -1.1153042 -0.12771943 13.625
1.4544141 -1.1412146 -0.073014781 64.599998
-0.62489188 -0.97324783 -0.10559475 1.6
-0.53461397 -0.90516007 -0.10802064 3.5
-0.36393508 -0.96076065 -0.10386036 4
-0.23407534 -0.98267543 -0.10552459 4.5
1.4463108 -0.98181754 -0.089074083 67
-0.623649 -0.81363612 -0.10861281 4.25
-0.5296281 -0.80107933 -0.10863272 3.3333333
-0.3769854 -0.81137878 -0.10551742 4.4444447
-0.21787274 -0.832421 -0.10444649 4.2857141
1.4344437 -0.81487679 -0.10486519 67
-0.65162152 -0.74686861 -0.1007452 9
-0.50590861 -0.74132216 -0.098710462 9
-0.38756692 -0.72873014 -0.088828452 8.5555553
-0.24863364 -0.72382218 -0.1042378 8.636364
1.4225276 -0.66954643 -0.086044215 60.799999
1.4043092 -0.51841503 -0.050638843 58.57143
1.3922575 -0.37675858 -0.073456906 61.285713
1.3779578 -0.22839251 -0.059158914 69.07692
1.3640898 -0.069122814 -0.064609379 72.36364
1.3460774 0.11341274 -0.040200777 70.400002
1.3561335 0.04744317 -0.074731201 79.900002
1.3397205 0.22691013 -0.072839782 80.35714
1.3248342 0.37630299 -0.062996283 71.07692
1.317454 0.51006156 -0.067882545 73.5
-0.9290477 0.7146343 -0.020563155 4.1999998
-0.80933428 0.72408956 -0.059234887 5.0500002
-0.69838732 0.71528566 -0.088931084 2.6315789
1.2993764 0.66154933 -0.077090219 69.63636
0.24730647 0.87018204 -0.093216307 1.1428572
1.265027 0.83762854 -0.062861584 39.333332
-0.35417727 1.0105225 -0.10954304 12.6
-0.23784237 1.0257789 -0.039796837 10.545455
0.26582056 0.90643013 -0.10795947 5.5
1.239797 0.96379232 -0.055047307 6.6666665
-0.45520985 1.1135528 -0.064565815 4
-0.42561492 1.0869411 -0.065813854 6.8000002
-0.19251494 1.0638118 -0.057155501 10.2
-0.11476284 1.0794903 -0.069498189 10
0.24873705 1.0953143 -0.063054621 8.5
0.23388933 1.2791392 -0.053864505 2.6666667
0.2206101 1.4269087 -0.10598792 8.1999998
0.20206955 1.6107471 -0.054046802 17.5
0.18979467 1.727235 -0.076428659 15
0.17704494 1.8146732 -0.085046388 16
3.6116786 2.7104695 -0.075366564 74
3.6062126 2.8751719 -0.091240175 80
3.5894821 3.0203996 -0.11837528 79
3.5355148 3.1763775 -0.10464668 115
3.5513003 3.3593044 -0.0013046312 75
3.5376763 3.5536933 -0.04918202 98
3.3909299 3.8608375 -0.099111445 35
-1.6712525 3.9850087 -0.034614969 92.5
-1.4106042 4.0037646 -0.081554256 97.428574
-1.2776028 4.0129342 -0.047595277 93.333336
-1.1232604 4.0351162 -0.04304317 98.666664
-0.86525315 4.0529585 -0.093711324 113
4.3156528 -5.3581228 0.029063607 47
4.2749553 -4.9335017 0.055205908 45
4.2459679 -4.564599 0.081882052 55
4.2420321 -4.3878307 0.10157572 68
4.223989 -4.2481947 0.12829012 70
0.57744372 -4.0014453 0.065914296 7
0.77941293 -3.98176 0.018579924 6
1.4061776 -3.9448206 0.11996389 0.33333334
4.2060742 -3.9904821 0.033822354 70
1.1779553 -3.8849573 0.11049929 11
1.4695704 -3.7795184 0.12439668 6.5
1.5485288 -3.7441111 0.045924064 7
1.8820994 -3.2370718 0.14548218 2
1.4773719 -1.4862438 0.013377155 22
1.5030611 -1.2164384 0.015180374 150
1.6807172 -1.3089881 0.071113162 69
1.4551933 -1.1744264 0.0024630381 55
1.8481143 -1.1148466 0.14598012 74
1.4533962 -0.96785206 0.0072714342 85
1.7833571 -1.0269271 0.14051241 42
1.4458897 -0.78322268 0.013048017 103
1.7633488 -0.89618087 0.13353521 5
1.8092964 -0.78525132 0.11481424 48
1.4242581 -0.65831387 0.017809773 56
1.6017461 -0.6622715 0.10420677 30
1.4361236 -0.47022799 0.018676126 132
1.567376 -0.57360864 0.12125687 36.5
1.7619697 -0.52797759 0.11507525 107
1.436249 -0.35859975 0.021999698 152
1.754837 -0.36581549 0.1269335 96.333336
1.4212008 -0.2195549 0.02347604 144.66667
1.7669201 -0.22413695 0.12574977 80
-1.1236889 -0.011425095 0.13290405 9
-0.8576768 -0.045108687 0.016294489 0
1.4364541 -0.077594742 0.031369235 152.5
1.7083622 -0.087771803 0.11552545 123.66666
1.4696242 0.086565875 0.056732222 152.66667
1.7279582 0.052537851 0.13735983 67.5
1.4758884 0.1554734 0.062060144 152
1.6264768 0.2568503 0.10014894 150
1.7169632 0.24817887 0.13370502 66.5
1.3665189 0.41182306 0.020209039 154
1.601562 0.38148612 0.12200668 31
1.7053041 0.3508504 0.12802285 78
1.3430772 0.53144288 0.017549599 126.5
1.427597 0.54370999 0.072663672 97.199997
1.5721214 0.55387199 0.14272988 55.5
1.7023497 0.48862112 0.14838845 80
-1.1196353 0.69955307 0.10273409 3.625
-0.96717751 0.71283329 0.078268453 4.3000002
-0.814816 0.72391456 0.067013457 4.4736843
-0.68024379 0.70850831 0.057596054 1.1818181
1.4273217 0.66067219 0.10268594 58
0.25055733 0.87154102 0.057253864 1.6666666
0.40513116 0.8043685 0.04334056 0
1.2782772 0.86734819 0.09555506 27.75
1.4156952 0.82356483 0.10362111 44.200001
-0.34032917 1.0178635 0.062993161 10.076923
-0.23471598 1.0069687 0.046492804 10.4
0.25693336 0.95577067 0.10052192 3.3333333
1.2208735 0.92266643 0.085992128 2
-0.41868415 1.0715766 0.07822796 9
-0.16339529 1.0534536 0.14851719 9
-0.1081809 1.0871775 0.1150188 8
0.24138387 1.1448209 0.033206657 3.1666667
0.22730982 1.2858762 0.093588591 9.333333
0.21384163 1.4110484 0.076472558 18
0.074462518 1.6954362 0.10686546 2
0.18850629 1.7114067 0.034120288 13
0.1724081 1.8748446 0.054265391 13.25
0.15809332 1.9663219 0.14009249 10
3.6210208 2.6668622 0.035841998 74
3.5911293 3.0414183 0.014750118 78
3.5658762 3.1998081 0.01235118 77
3.5537443 3.3862 0.12176078 80
3.5328221 3.5677066 0.099684879 84.5
3.5219035 3.7318122 0.13864803 91
-1.6728203 3.9810328 0.056553125 91.199997
-1.5725724 3.9885008 0.12932077 88.333336
-1.4465965 3.9941552 0.10928342 88.5
-1.3472143 4.0112944 0.080289774 92
-1.1008232 4.0327086 0.074532174 102
3.5070963 3.9381242 0.10190202 78.5
-0.81124872 4.0599647 0.0031372858 8
4.2795568 -4.9037776 0.2896713 57
4.2550259 -4.5214591 0.20695204 62
4.2449036 -4.4692788 0.17947119 64
1.1775031 -3.9570935 0.24593776 11
0.92695028 -3.8618152 0.26580232 1
1.1050074 -3.881494 0.25245717 19.5
1.5357118 -3.7927933 0.16931289 7
1.8827384 -1.508418 0.25896007 73
-1.1492687 -1.4385434 0.21580179 24.666666
-1.0315975 -1.3854302 0.1635139 1
-0.66155982 -1.3800755 0.22679898 17.444445
-0.53319776 -1.3798177 0.20975848 10.2
-0.44396538 -1.4142796 0.29514688 2
-1.2652016 -1.3153552 0.20799358 39.333332
-1.1730198 -1.3199927 0.22250777 25
-0.53903657 -1.3418944 0.25029308 18
-0.2767435 -1.3094308 0.1649344 3
1.8673151 -1.3021979 0.1934067 64.5
1.8549346 -1.190765 0.26273602 61.666668
1.7734202 -0.98667407 0.20726426 17
1.8393847 -1.0203955 0.28019592 56.5
1.7531796 -0.82880288 0.19625121 43
1.8214396 -0.8812747 0.27997589 68
1.540526 -0.65317541 0.20516814 27.571428
1.5599258 -0.55035639 0.2425499 43
1.7832981 -0.51516914 0.20915298 68.833336
1.7731843 -0.38771179 0.22066477 69.375
-1.3319619 -0.17703657 0.2617411 0
1.7596796 -0.2174357 0.22699915 66.555557
-1.3614502 -0.10763457 0.27153981 0
-1.2185807 -0.010651629 0.2122798 4
-1.1861516 -0.025946174 0.16059858 3
1.7458297 -0.065302975 0.21221212 64.714287
-1.2566519 0.06835214 0.2251479 1.6666666
-1.1632398 0.0081392936 0.19074363 5
1.7334394 0.076008052 0.22345555 63.333332
-1.3951503 0.150107 0.27675295 5
1.7188398 0.23151317 0.2143272 66.14286
1.6921514 0.3816976 0.2349782 75.599998
1.4784572 0.56391561 0.20236629 53.5
1.6179245 0.55599797 0.2392354 122.5
1.6949959 0.50926363 0.23428121 68.199997
-1.5079997 0.66191524 0.29163533 9
-1.4162345 0.67097831 0.26046434 1
-1.276933 0.68148988 0.22484785 1.375
-1.1181215 0.69742441 0.22137807 2.4705882
-0.95971107 0.716295 0.24509773 3.2
-0.84169853 0.72096503 0.19972989 3.8461537
-0.70958382 0.71819228 0.24905388 2.3333333
1.4354 0.68143266 0.20078908 47.111111
1.6194118 0.62596554 0.24545538 51
0.25229967 0.87648064 0.22234753 2.2222223
0.36953205 0.77824837 0.20333549 0
1.266549 0.87948716 0.21240854 15.571428
1.4110453 0.81540197 0.2299035 44.272728
-0.30605552 1.0493321 0.25244904 9
-0.23432486 1.0390984 0.22773048 8
-0.14354824 1.0495293 0.15740889 9
0.25382513 0.9025687 0.27521378 3
1.2305906 0.95005465 0.21443398 3.6666667
-0.41048861 1.1145176 0.20928086 7.1428571
-0.29700935 1.0510799 0.28086829 10
-0.12225936 1.0963305 0.19143684 8
0.23969804 1.1185715 0.23528191 4.125
0.23171647 1.2100056 0.2128042 2
0.21071541 1.4239395 0.18532635 15
0.20128466 1.5420358 0.22738621 13.5
0.18996812 1.6505293 0.19878131 15
3.6138234 2.6980834 0.20502818 72
3.5877125 2.9866221 0.15982616 70
3.5217967 3.7674756 0.25009161 79
-1.6909586 3.9763031 0.23591559 47
-1.6020557 3.9824553 0.24193865 83
-1.3409886 4.0088935 0.20285884 90.5
-1.0084935 4.0413718 0.18886626 98.666664
3.5068779 3.9496651 0.2445696 77
-0.84787416 4.0538187 0.19582424 55.5
4.3830571 -6.1044564 0.33137375 37
4.3310795 -5.5796876 0.32241911 34
4.2975559 -5.1238012 0.36662373 43.5
4.2863684 -5.0002871 0.37405974 47.5
4.2627521 -4.7468209 0.33441889 41
1.5680802 -3.2177818 0.39320296 0
1.5961822 -3.0716841 0.3631891 5
1.691929 -3.0840759 0.36843625 5
1.8293304 -3.0554378 0.36987215 1
1.8743174 -1.57275 0.39852172 0
-0.75588584 -1.4085826 0.32069385 15
-0.73216993 -1.3837898 0.31273022 15
-0.48777264 -1.3690375 0.36556029 8
-0.43633118 -1.3928041 0.33728763 1.5
1.8734387 -1.4634753 0.37769619 62.333332
-0.64185846 -1.3278754 0.34106579 33.5
-0.54904205 -1.3395531 0.35592428 29.200001
1.8611852 -1.2993575 0.37218711 59.333332
1.8461329 -1.1249921 0.38438013 60.57143
1.8323526 -0.98314887 0.38203278 57.666668
-1.6552905 -0.80553675 0.39243084 2
-1.6397656 -0.77441502 0.42463097 4.6666665
1.7762828 -0.77367592 0.38244408 73
1.8172623 -0.86941797 0.36843714 61
-1.7401855 -0.71462035 0.43322459 4
1.608393 -0.60161901 0.36695462 2
1.718833 -0.73096508 0.44936562 150
1.5944959 -0.56844836 0.39097142 11.666667
1.775499 -0.51256984 0.37897307 67.199997
-1.4090948 -0.33012891 0.38729808 12.4
1.7667691 -0.36558363 0.36963508 59.400002
-1.3926008 -0.22976343 0.38441747 1.5
-1.3366323 -0.18764275 0.36372948 0
1.7521352 -0.22782914 0.35228238 69.75
-1.3758593 -0.099534191 0.43238196 0
-1.3378723 -0.10819125 0.37364107 0
1.740229 -0.088862181 0.37037253 63.333332
-1.4332492 0.065024987 0.40973097 3.5999999
-1.3346916 0.12194787 0.3390221 4
1.731361 0.061481625 0.34953412 64
-1.3853339 0.15386768 0.4230628 17
1.7146564 0.23118196 0.34836131 58.5
1.6996411 0.38429323 0.3536841 59.333332
-1.6811497 0.59529394 0.37308097 0.5
1.6906122 0.50930315 0.38463482 68.666664
-1.6622305 0.64488351 0.43867412 7
-1.5762237 0.65620005 0.39037102 1
-1.4291033 0.66665912 0.36725828 5.4166665
-1.2821679 0.67989862 0.35984772 1
-1.1280048 0.6952315 0.3878319 1.25
-0.98965907 0.70787668 0.3641519 1.75
-0.81058532 0.72443455 0.37143284 2.8
-0.74744821 0.7201668 0.36408764 3
1.3924243 0.65362597 0.33350813 46.5
1.6283417 0.61941403 0.40095824 26
1.6836288 0.61237192 0.38472819 54
-0.32865405 0.88297284 0.43738309 2.5
-0.28675818 0.89251292 0.4170329 1.5
0.23949917 0.87723887 0.36599341 2.75
1.2937018 0.87467569 0.37448058 13
1.3886585 0.82794797 0.35899991 46.599998
-0.38233992 1.0199176 0.38849917 5.3333335
-0.21988712 0.94188851 0.40016654 1.6666666
-0.10919657 1.038741 0.38492537 1.3333334
0.25233027 0.90216565 0.3643125 3.3333333
1.230173 0.95855063 0.37269673 2.3333333
-0.50820339 1.1782589 0.31837896 6
-0.36765578 1.0733881 0.35870305 7.1666665
-0.081152841 1.1131427 0.40093404 13.25
0.010277045 1.1795785 0.40266943 69
0.23855452 1.0890709 0.40845397 3
0.22213244 1.2832738 0.35978681 11.5
0.20919116 1.3955998 0.43700784 13
0.055179041 1.6371784 0.3656373 1
0.19101788 1.6215258 0.31538644 12.5
0.17919029 1.7548738 0.37567973 10.75
0.16783091 1.8689886 0.3518289 13
3.1254165 2.2571416 0.429272 50
3.1332693 2.4244897 0.44713366 56
3.2197633 2.4616156 0.40990567 49
3.5984616 2.5770416 0.31812018 150
3.1845322 2.7151232 0.4158892 62
3.5381491 2.8410189 0.43471521 44
3.6063547 2.7323499 0.37777203 70
3.5841584 3.0029614 0.32853466 68
3.3841808 3.1791818 0.43699521 52
3.5586073 3.3299041 0.30728495 75
-1.890233 3.9571457 0.35275349 53
-1.5899389 3.9909506 0.37515247 80.5
-1.2532225 4.0188894 0.35705471 91
-1.0913161 4.028203 0.35413113 98
-1.0150456 4.0378919 0.35283619 102.5
3.4837656 4.1567364 0.35261285 71
4.3420696 -5.7697501 0.59397101 35
4.3298364 -5.5194693 0.55525547 35
4.3141193 -5.3155136 0.57851046 34
3.5785334 -3.132791 0.54966146 67
3.6484189 -3.0504005 0.49048531 52
3.7321036 -2.9235411 0.50049609 62
3.7895474 -2.9766295 0.58421063 73.5
1.8711226 -1.5231743 0.58173192 60.5
1.8688742 -1.427081 0.50796241 53.333332
1.8547275 -1.2576596 0.52110732 48.200001
1.7186587 -1.0806212 0.4903869 150.5
1.6066738 -0.97952938 0.51978147 91
1.6863009 -0.92510688 0.4611153 150
1.8320265 -1.0079347 0.49526927 59.5
1.5982209 -0.872177 0.51759577 79.5
1.7975206 -0.75152034 0.46236199 58
1.8202863 -0.86389339 0.51437521 59.75
1.4985654 -0.74621654 0.50628328 52
1.7023772 -0.69500095 0.50978929 139.33333
1.764899 -0.47999078 0.48090726 66
-1.4079131 -0.32459992 0.51868349 5.1999998
1.765626 -0.39329425 0.45651239 60
-1.3870864 -0.24144761 0.50198823 3.3333333
-1.3375258 -0.20890029 0.47558177 4.5
-1.3928218 -0.080755442 0.55013049 5
-1.3443353 -0.10346073 0.49851522 1
-1.4405094 0.059759192 0.51351291 4.6666665
-1.6958411 0.59104288 0.51708603 0
-2.0099728 0.60699272 0.52835393 13.333333
-1.8896784 0.61558455 0.55521023 17.5
-1.6635002 0.6455546 0.53445804 6
-1.5840834 0.65040219 0.52301377 7.25
-1.4308147 0.66426963 0.52642024 5.8000002
-1.248305 0.68335152 0.54655617 5.8571429
-1.127055 0.69317168 0.4922761 2
-0.95084053 0.70562643 0.53749394 1
-0.86262274 0.71507239 0.48559737 1
-0.72884691 0.72411048 0.54475641 0.5
-0.30818993 1.0087047 0.54547262 2
-0.26709497 0.9942537 0.50638574 1
-0.47888801 1.1326557 0.502029 8.333333
-0.44072181 1.1159347 0.50173277 8.5
-0.1898355 1.088174 0.47694722 6.5
-0.086020909 1.1494077 0.49902973 7.3333335
0.23395994 1.1180725 0.52543807 8
0.22171791 1.2373384 0.56487793 8
0.20771633 1.4129348 0.48442283 12.666667
0.19485737 1.5282998 0.55290294 11
0.16554353 1.8662586 0.47813922 12
3.558346 3.1827781 0.58766925 73
3.516974 3.6850607 0.477072 76
-1.8540043 3.9621098 0.50371325 72
-1.532707 3.9933066 0.53230464 74.5
-1.4104543 4.0028749 0.52659202 77.5
-1.2769898 4.0115228 0.51498866 80.333336
-1.0175546 4.0392385 0.4928984 96
4.3892012 -6.3179355 0.64418876 24
4.3455191 -5.7024512 0.65458107 35
4.3652759 -5.8153658 0.67741358 36
4.3435874 -5.6030335 0.61799318 35
4.213614 -4.375504 0.72620809 38
3.5516269 -3.297868 0.63934815 26
3.635165 -3.1769152 0.6802873 49.666668
3.8282659 -2.9839785 0.62934494 40
1.8709009 -1.5473082 0.71905053 39.5
1.8613427 -1.4136631 0.70656818 57
1.8454043 -1.2635735 0.68238366 59
1.7855847 -1.0627249 0.74875712 136
1.8070369 -1.1713887 0.68783224 146
-1.4388946 -0.2034343 0.62573481 1
-1.3816853 -0.099206358 0.62820363 7
-1.2990206 -0.066572174 0.67164701 5.181818
-1.1758267 -0.023566775 0.719962 1
-1.2945451 0.05986464 0.70128906 3
-2.4307899 0.56816941 0.72447413 10.5
-2.3023391 0.57711464 0.74795711 13
-2.1233046 0.58740044 0.69175005 15
-2.0430388 0.59229344 0.72599763 14.5
-2.0028715 0.60454762 0.64176738 13.5
-1.8369009 0.6183461 0.67166567 16
-1.6785904 0.64468783 0.72614563 3
-1.5929295 0.64590895 0.67545724 6
-1.4372778 0.66455936 0.70075148 4.6666665
-1.32253 0.67274404 0.67910421 2.8
-1.091048 0.69428605 0.68921882 2.4000001
-1.0096507 0.69929564 0.6488018 1.5
-0.81387728 0.71594614 0.69017363 1.9
-0.70884967 0.70579982 0.65746582 0
-0.20535116 1.0334363 0.73785138 10
-0.30528513 1.1008852 0.69642591 20
-0.25351024 1.0982765 0.66993302 14
0.22909787 1.1349417 0.65863985 9.7777777
0.21580884 1.2743349 0.67439383 11.714286
0.20607837 1.3827906 0.70818752 11
0.18706281 1.5843166 0.64308071 10.666667
0.17320766 1.7132767 0.69117665 21
3.6107278 2.5954144 0.60901356 82
3.6062622 2.7009792 0.67170382 72
3.5928242 2.8694243 0.65128052 70
3.5707884 3.0234411 0.64340663 75.5
3.051971 3.2091322 0.66587365 20
3.5377269 3.3169274 0.63718843 61
3.5234306 3.6716621 0.63967013 80
-1.8249061 3.965775 0.65042675 72
-1.6986566 3.972666 0.71214008 69
-1.5554684 3.9811511 0.68751025 84.25
-1.2550352 4.0178895 0.66567528 69
-0.80468702 4.0631576 0.63173485 7
3.4824474 4.078999 0.67970204 73
3.3547411 -8.4448566 0.83953118 28
4.3946295 -6.2308774 0.8765353 38
4.3655963 -5.9584208 0.87068987 27
4.1822944 -4.075738 0.75840855 57
4.183928 -3.9984889 0.89773071 55
4.1670475 -3.5991082 0.86963248 66
1.86656 -1.5334979 0.8264935 39.333332
1.8649184 -1.4708284 0.87197638 49.666668
1.8486946 -1.2987701 0.81612915 52
-1.2185321 -0.083296865 0.78280783 0
-1.187222 -0.064627528 0.78762782 2
-1.2231388 0.071359724 0.77488494 1
-2.4631088 0.56375378 0.86937356 9
-2.33092 0.574485 0.82511604 11.5
-2.1730409 0.58719063 0.79711437 13.25
-1.9762387 0.59561598 0.76495564 12
-1.8075547 0.62385589 0.76955009 2
-1.6749121 0.64378011 0.86922848 2
-1.5427915 0.65400749 0.87170774 3
-1.4734001 0.66240251 0.82781142 3.3333333
-1.2401812 0.68314385 0.81924677 4.5
-1.1591533 0.68690157 0.81085014 3.25
-0.97640502 0.70829862 0.86965573 1
-0.86643898 0.71076357 0.8298918 3
-0.66211188 0.69237435 0.8168143 0
-0.32341585 1.0006577 0.85335159 1.6666666
-0.2262211 0.99556834 0.8138178 8.75
-0.33907902 1.0995257 0.80973828 1
-0.17021284 1.0686932 0.80550909 5
0.21977367 1.1998966 0.77138519 12
0.21385531 1.2656187 0.82830095 10.833333
0.20222342 1.3878464 0.79051781 10.5
0.19127658 1.5148003 0.87962937 11.5
0.16528608 1.7507454 0.83155584 9.333333
3.6089911 2.6103392 0.82619154 80
3.58285 2.9413285 0.76784724 72.5
3.0520098 3.1811218 0.80366838 10
3.5537369 3.1641605 0.7785964 71
3.5438857 3.3236995 0.7848025 75.5
3.5289507 3.5043178 0.75278163 77
-1.7892295 3.9650629 0.81553698 76
-1.4994122 3.9945722 0.84629893 89
-0.98082376 4.0427904 0.82686812 89.25
-0.85654646 4.0434508 0.79964387 87
3.4832635 4.036211 0.83160543 72
-0.77442473 4.053834 0.78915453 10
3.1177173 -8.469636 0.99487317 24
3.2474341 -8.4233189 0.98581946 24
4.4206495 -7.1297832 1.0315851 11
4.4260869 -6.6240449 0.99666989 29
4.4063549 -6.4937916 0.95457309 28.5
4.4040823 -6.3356647 0.93684697 25
4.2551274 -4.9153852 1.0260956 38
4.2213531 -4.5591393 1.0252082 35
4.2030916 -4.2494316 1.0291677 38
4.1865802 -4.0092888 1.0029095 51.5
1.8618381 -1.569947 0.96941829 5
1.8591214 -1.4628057 0.97847968 49
1.8463409 -1.3223984 0.92536461 50
-2.5626636 0.54662025 0.9583149 7
-2.4366922 0.55765152 0.98919302 9
-2.3350902 0.56563979 1.0279365 11
-2.1498034 0.58719796 0.92762876 12
-2.0894761 0.58792579 1.0163841 12
-2.0175817 0.60425568 0.90927744 11
-1.8783493 0.61279178 0.92195415 11.5
-1.6806167 0.64059955 0.98395032 0.66666669
-1.4077597 0.66751182 1.0097009 0
-1.2862202 0.67764229 0.95072871 1.5
-1.112231 0.6928196 1.010565 0.75
-0.96147233 0.70856345 0.98603457 1.4
-0.76142746 0.73116094 0.90813744 2
-0.32598898 1.0184728 0.9265424 2
-0.27749705 0.9964605 0.91636837 0
0.20715995 1.3108323 0.91702896 11.5
0.19986579 1.3988898 1.0018111 12
0.18432809 1.5417852 0.96174693 11.333333
3.1124389 2.2495177 1.0156882 12
3.2120411 2.3734045 0.9054122 41
3.1026244 2.4483714 0.91588032 43.5
3.4612141 2.4957776 0.93110323 40
3.0914907 2.7714427 0.91557932 43
3.3981824 2.7574537 0.94419909 15
3.566766 2.8535979 0.92205977 63
3.552665 3.1841683 0.91506553 66
3.5488355 3.3139372 0.91880965 74
3.5282767 3.489666 0.93298626 72
3.513587 3.6674271 0.93765533 71
3.4976544 3.8471806 0.94419277 78
-1.7613906 3.9676862 0.97917145 80.5
-1.2552261 4.0122957 0.98387706 84
-1.1410148 4.0254192 0.98261511 92
-0.98915911 4.0307055 0.97294211 99
3.4806511 3.998363 0.98773396 69
2.8414788 -8.4958124 1.1547424 27
3.2902141 -8.4602137 1.0836632 24
4.2181845 -4.4468203 1.1509556 40
4.1788998 -3.9932103 1.0612819 42.5
4.1165185 -3.3417523 1.0681629 66
-2.7073112 0.53562671 1.0871317 7
-2.6026855 0.5464921 1.0885175 7
-2.1652918 0.58585763 1.1993991 9
-2.0747845 0.59163195 1.083341 14
-1.9547899 0.60779977 1.1141351 13
-1.8861969 0.61266243 1.1363912 30
-1.6791174 0.6333952 1.0798857 1
-1.4175365 0.66733164 1.156744 0.25
-1.3146034 0.67583531 1.0580875 0
-1.0770799 0.69649631 1.1108295 0
-1.0198264 0.70184565 1.1227592 0
-0.80536199 0.72553605 1.0800147 0
0.19090688 1.4408711 1.1144443 11
0.16269009 1.7204514 1.1557463 10.166667
3.581296 2.6090622 1.1535828 105
3.6010306 2.596096 1.144399 150
3.5763164 2.9041595 1.199751 71
3.5515749 3.1722903 1.1737728 74
3.511843 3.4936173 1.1004174 66
3.5173957 3.6566966 1.0786269 70
3.4930599 3.8342295 1.1103379 76
-1.4651679 3.9937484 1.1625402 90.5
-1.2587427 4.01089 1.1328393 87.75
-0.95717132 4.0390558 1.0955456 100
3.4740863 3.9763129 1.1322575 69.5
3.4511352 4.1959472 1.158793 50
2.3975289 -8.5326767 1.2546202 27
2.4095356 -8.5214262 1.2648897 28
2.5945976 -8.5062561 1.291464 26
2.7539389 -8.5094414 1.3015864 22
4.2665162 -5.0975375 1.3401276 32
4.23667 -4.7207179 1.3022022 38
4.2308769 -4.5229177 1.3109642 40
4.2221661 -4.4500523 1.2668215 41.666668
-2.0182202 -3.995055 1.220445 54
-1.8347815 -3.9711509 1.2311544 73
-1.7334368 -3.9610829 1.2774034 70
-1.5473964 -3.9365032 1.2924972 72
4.1409807 -3.7237461 1.3182548 62
4.1141186 -3.2801607 1.3227274 73
-2.726922 0.53100169 1.2470927 6
-2.5961945 0.54677749 1.2741311 9.666667
-2.4372921 0.56406546 1.2207534 6
-2.2932446 0.57407075 1.2069219 7
-1.9603307 0.60322165 1.3130606 93
-1.9392546 0.60605407 1.2417697 45
-1.1633885 0.69948256 1.2388868 0
-0.79342031 0.73357689 1.2488813 0
0.17590478 1.5684696 1.2751484 9.4285717
0.16534461 1.6591959 1.2210301 11
0.15308304 1.8303272 1.2877022 8
3.5931818 2.6934996 1.3182195 72
3.6091561 2.5572665 1.2785559 64
3.5742114 2.8092334 1.287514 74
3.5726438 2.8910828 1.294127 69.5
3.5538502 3.0600271 1.2385145 68.5
3.5199308 3.445256 1.2621692 70
3.4863544 3.84021 1.3242658 65
-1.7798473 3.9629166 1.338291 76
-1.5264467 3.9885561 1.2650427 83.5
-1.4754102 3.9882643 1.2536922 81
-1.1916111 4.0126352 1.276906 102
3.4791617 4.0253124 1.2652729 64
3.4468997 4.2002177 1.3159165 33
2.3403394 -8.5364408 1.4726877 29
2.783107 -8.5104027 1.3821523 23
4.299808 -5.5181923 1.3843321 34
4.2526197 -4.9405713 1.446686 39
-2.1428473 -4.0139618 1.4375935 39.5
-2.0575991 -3.9961905 1.4970752 68
4.1242609 -3.4784927 1.3641914 53
4.1089897 -3.2484179 1.4198296 67
-3.8662653 0.38455516 1.4784777 10
-2.5504875 0.54633838 1.355355 6
-2.5178189 0.55402565 1.4329064 7.5
-1.9854425 0.59937674 1.3950142 43
-1.9492638 0.62095505 1.3697299 10
0.16606511 1.6361734 1.4243548 7
0.13370027 1.9217776 1.442472 6.3333335
0.13634051 1.971107 1.4877274 7
3.5772052 2.8124623 1.3874867 66.5
3.5678604 2.9615896 1.4492548 74
3.5505724 3.0957155 1.4261417 70.5
3.5403144 3.2248437 1.4235681 71.333336
3.5203209 3.391654 1.4264289 66
3.5164723 3.4601932 1.3616118 72
3.4946303 3.7706563 1.4738148 62
-1.7399043 3.96961 1.4255795 58.333332
-1.6030937 3.9826553 1.3572376 78
-1.4461923 3.9927788 1.4169691 88.5
-0.8309207 4.0499477 1.4833728 82
-0.73299718 4.0716667 1.460807 6
1.9039419 -8.5776234 1.5962542 27
-3.3124373 -5.4082656 1.6456462 36
4.2808146 -5.2560091 1.6270186 43
4.271399 -5.0281234 1.5640911 39.333332
4.2591162 -4.8720798 1.5815508 33
4.1818166 -4.1496634 1.6147991 49
-1.8474249 -3.9706244 1.5057235 70
-1.6536928 -3.9538479 1.5118233 73
-1.6316723 -3.9488847 1.6286401 76
-3.7956889 -3.7760167 1.5708866 60
4.1619005 -3.8619516 1.626211 53
4.1379409 -3.6249921 1.5571653 68
4.131887 -3.5875556 1.6359946 55
4.1113787 -3.2182491 1.544903 65
-3.5704999 -2.9292569 1.6043503 7.5
-3.8941677 -2.4846756 1.6043947 56.5
-3.5725524 -2.5233378 1.6082772 39
-3.6291499 -2.1972733 1.6205726 35.5
-3.6578431 -1.5437794 1.6170499 44
-3.9748216 -1.440182 1.6187395 59.5
-3.6862617 -1.2456456 1.6217008 48
-3.8562329 0.45567095 1.6305925 10.5
-4.1834416 0.73884499 1.6204367 12
0.036354106 1.6373577 1.558816 0
0.15682739 1.7698601 1.5611066 7
0.1426454 1.8535079 1.5074949 7
0.15268843 1.8143643 1.5311223 7
3.5977602 2.53301 1.6349663 52
3.5859053 2.6713243 1.5322593 66
3.5835474 2.7467494 1.5155145 66
3.5509415 3.0715101 1.5538032 71.5
3.5357223 3.2447579 1.6003665 63
3.5247192 3.3743405 1.5927153 66.5
3.5099306 3.5328784 1.5887314 65.5
3.4919095 3.6916869 1.6221732 59
3.4901423 3.7714796 1.5809059 64
-1.7184806 3.962625 1.5624344 81
-1.0114031 4.0239024 1.6045426 92
-0.88066834 4.0459208 1.6248027 78
-0.79614329 4.0538263 1.5851567 89
4.6091175 -9.2310905 1.7757944 2
2.288868 -8.5592241 1.6844212 28
4.4787292 -7.9208722 1.7216815 17
4.4879036 -7.5685735 1.6508058 31
4.3164597 -5.7049565 1.7163821 36
0.10500838 -5.582325 1.7939712 33
-3.1165931 -5.4091415 1.7551448 36
-0.17974852 -5.2461085 1.7989739 36
-0.22414303 -5.041326 1.7915365 41
-3.3382497 -4.9323072 1.7469548 55
-0.43307716 -4.8873081 1.7944404 37
-3.3769891 -4.7380834 1.6574966 48
-3.174984 -4.7267838 1.7638928 41
-3.1246045 -4.7338233 1.7639414 21
-2.9727731 -4.757926 1.7444369 12
-2.7087178 -4.7640052 1.7685148 47
-0.4636752 -4.7240291 1.795329 41
-3.3762896 -4.6252904 1.7206906 64
-3.2331955 -4.5813003 1.7592016 21
-2.5421336 -4.624804 1.768396 1
-0.49921679 -4.577981 1.7916733 49
-3.383786 -4.4467659 1.7528235 30
-2.6023095 -4.4454212 1.7550677 3
-3.3723135 -4.2947721 1.7562664 23
-3.0773687 -4.2390018 1.7624 49
-2.798588 -4.2206726 1.7659587 53
-2.6064198 -4.249208 1.767774 28
-3.4309075 -4.1087465 1.6918143 36.666668
-2.6131907 -4.0811372 1.7689332 37
-2.4400933 -4.0811696 1.7681617 53
-3.6791341 -4.0126314 1.6858071 25.5
-2.6909373 -3.9469671 1.7646202 38
-2.1771729 -4.0097151 1.7429732 70
-1.9541073 -3.9857843 1.738053 65
-1.824942 -3.9119086 1.7788135 55
-1.7438389 -3.9612465 1.7224764 65.666664
-1.4415499 -3.9057679 1.7844368 62
-2.8823483 -3.7590451 1.7703544 59
-2.79269 -3.8402119 1.76673 39
-2.646245 -3.7596741 1.7795347 58
-1.875101 -3.8150833 1.7788397 60
-0.9307102 -3.7964525 1.7914644 56
-3.4415359 -3.7449515 1.7502452 70
-3.1444092 -3.6827641 1.7608676 40.5
-2.6148622 -3.6593161 1.771226 55
-2.3252828 -3.6484456 1.7762178 56
-2.1116288 -3.6588175 1.7807885 58
-1.9019331 -3.6598513 1.787114 53.666668
-1.041869 -3.6948512 1.7998174 51
-3.273437 -3.5137517 1.756158 25
-2.7648134 -3.5032885 1.7707103 53
-1.9421449 -3.5104632 1.7812809 54
-1.6092669 -3.5354793 1.7866036 56
-1.4302258 -3.5637293 1.7987949 52
-1.2540851 -3.5692832 1.7977878 59
-1.0861459 -3.4927537 1.7929847 52.5
-1.0432973 -3.5980446 1.7935024 47
4.1390285 -3.5841503 1.7268463 56.333332
-3.4009442 -3.3576126 1.75318 37
-3.2172034 -3.322257 1.7684685 58
-2.9086313 -3.3681884 1.7671186 53.5
-2.7211933 -3.3577423 1.7812546 56
-2.6627412 -3.302619 1.778926 52
-2.0006528 -3.350807 1.7861179 60.333332
-1.1835176 -3.3352778 1.7994434 53
4.1099825 -3.3386264 1.7269943 61.5
-3.5027225 -3.2039974 1.7207189 51.75
-3.2124662 -3.203213 1.7703521 59
-2.7281442 -3.198168 1.7751986 53
-2.651531 -3.2377188 1.7712241 59
-2.4276419 -3.2656329 1.7762064 59
-2.217988 -3.2902188 1.7791275 60
-1.9953421 -3.2314553 1.78677 56
-1.7549479 -3.2032502 1.7921866 55
-1.5757062 -3.2365761 1.7986249 60
-1.4034201 -3.2562931 1.7981895 61
-1.2146066 -3.2018676 1.7917699 52
-1.1876743 -3.2620585 1.7963558 49
-0.3708626 -3.2055967 1.7993587 58
-3.3038378 -3.0890548 1.763363 58
-2.9390988 -3.0090535 1.7708217 59
-2.825634 -3.1004322 1.7726737 51
-2.1013873 -3.0719533 1.7790321 59
-2.040796 -3.1444669 1.7810527 57
-1.2755516 -3.0778112 1.7923102 52.5
-3.5028276 -2.9249439 1.7495928 68
-3.3850539 -2.905705 1.7665926 62
-3.2707758 -2.9223821 1.7667109 61
-3.0155554 -2.964221 1.7720267 60
-2.763041 -2.9343288 1.7787136 55
-2.6997616 -2.9202187 1.781128 51
-2.5160389 -2.9152372 1.7761432 55
-2.3155396 -2.9612043 1.782005 62
-2.1296332 -2.9877748 1.7900127 65
-2.0597115 -2.9262002 1.7888348 53
-1.8729502 -2.8761685 1.7851156 62
-1.6988405 -2.9256878 1.7918216 57
-1.5327853 -2.9655294 1.7956001 56
-1.3791736 -2.862062 1.7861086 60
-1.3251326 -2.9315052 1.7926421 54.5
-0.54266602 -2.9620206 1.7967275 64
-3.5366242 -2.7764361 1.7169882 70.666664
-3.2322137 -2.8103886 1.7731056 59
-2.871799 -2.7283266 1.769287 56
-2.7734942 -2.8269746 1.7770776 49
-2.1553924 -2.7742004 1.7748735 56.5
-1.4024473 -2.7181604 1.7988225 54
-3.7139704 -2.6403141 1.6687392 21
-3.4999259 -2.5973995 1.7560836 62
-3.3234503 -2.630898 1.766293 59
-3.0747416 -2.6196012 1.7749537 62
-2.9944062 -2.6411033 1.7696987 56
-2.7840359 -2.6121466 1.7787474 60.5
-2.5962517 -2.5944791 1.7782339 56
-2.3921227 -2.6454058 1.7762712 63
-2.1492364 -2.6294079 1.7826849 58
-1.9787021 -2.5814216 1.7832173 63
-1.8090445 -2.6431422 1.789611 65
-1.6471809 -2.6991806 1.7969705 63
-1.4536923 -2.6386909 1.7919236 56.666668
-3.5683155 -2.4282272 1.7275769 76.5
-3.3513806 -2.4999671 1.7702932 60
-3.2011795 -2.4460123 1.781309 51
-2.8081698 -2.5077617 1.7743405 56
-2.2911654 -2.4432456 1.7939806 43
-2.2017412 -2.5120018 1.7826468 47
-1.7463928 -2.4452066 1.7939564 65
-1.5078056 -2.4198301 1.7971278 62
-1.489287 -2.4522495 1.7999653 56
-3.3387861 -2.3394904 1.7632912 57
-3.0875583 -2.3034029 1.7735324 61.5
-2.912425 -2.3760753 1.7788304 59.5
-2.6582835 -2.2860694 1.7710232 62
-2.4654005 -2.3574333 1.7743951 65
-2.1818914 -2.323693 1.7919835 39.5
-1.9093554 -2.3831201 1.792852 45
-1.5709653 -2.3701038 1.7916491 61
-3.602258 -2.1237168 1.7387139 85
-3.5250511 -2.2388029 1.7577735 62
-3.3680184 -2.1845102 1.7701683 61.666668
-3.1968248 -2.105998 1.7714964 59
-2.8683758 -2.2134111 1.7721506 63
-2.7920053 -2.2080922 1.774209 55.5
-2.3243296 -2.1856115 1.7854544 43
-1.9999094 -2.138675 1.797839 30
-1.8338852 -2.2047613 1.7902499 61
-1.6833235 -2.1184325 1.7901763 66
-1.6084623 -2.1628838 1.7947292 66
-3.6049809 -2.0701432 1.7093427 80
-3.5779042 -2.0651972 1.7639359 84
-3.3604269 -2.0137954 1.7664403 60
-3.1754754 -1.9996837 1.7767023 69
-3.0967216 -1.9920647 1.7724279 61
-2.9511595 -2.0717771 1.7746228 60.5
-2.741322 -1.9791298 1.7721465 59
-2.5343127 -2.0902274 1.7766043 63
-2.3155198 -1.9566609 1.7758578 54
-2.2001956 -2.0473118 1.7847604 55.333332
-1.915336 -1.9810001 1.7917477 69
-1.7108121 -1.9980559 1.7959046 69
-1.5635452 -1.9664804 1.7966251 59.5
-3.5475726 -1.9041586 1.7576741 63
-3.3920689 -1.8701671 1.7695965 60.333332
-3.2070417 -1.8021228 1.7719642 66
-2.8916521 -1.8937975 1.7698933 59
-2.5961046 -1.8371836 1.7800242 58
-2.4095793 -1.9042017 1.7804192 60
-2.2325625 -1.8118935 1.7872601 54.5
-2.0735407 -1.8976493 1.7939016 56
-1.8419065 -1.8426179 1.7990202 74
-1.7284281 -1.9020953 1.7858225 62
-1.1113392 -1.9380785 1.7994183 68
-3.6254594 -1.7571392 1.7322689 82.25
-3.3832827 -1.7080562 1.7711746 61
-3.2050087 -1.7069218 1.7674764 70
-3.1304932 -1.6888114 1.7674245 56
-2.989398 -1.7870743 1.7732303 60.5
-2.7813249 -1.7114797 1.7756116 60
-2.4722519 -1.6784197 1.781377 56
-2.3328564 -1.7422605 1.7852669 50.5
-2.1429255 -1.6713666 1.7961742 55
-1.9844341 -1.7617941 1.7882982 64
-1.8268354 -1.6730459 1.7866317 64
-1.7192793 -1.7324289 1.7938017 60.333332
-3.5747359 -1.5905411 1.7612356 65
-3.4209249 -1.5758935 1.7727947 64.333336
-3.2192998 -1.5192096 1.7745639 46
-3.0222297 -1.5171074 1.7697515 61.5
-2.9275513 -1.6139624 1.76921 59.5
-2.6486607 -1.5923345 1.7790946 57
-2.4555843 -1.6428623 1.7780923 57
-2.297924 -1.5624485 1.7889032 56.333332
-2.0535173 -1.5584735 1.7936629 62
-1.9085195 -1.6452829 1.7984673 64
-1.7184416 -1.5450913 1.7949704 64
-1.3177817 -1.576498 1.7987725 74
-3.6520255 -1.4472575 1.7332796 92
-3.3956366 -1.4152344 1.7699293 31
-3.211678 -1.4207766 1.7709875 30.5
-3.0209241 -1.3619571 1.7767671 28
-2.7784288 -1.4232346 1.7798494 34
-2.4847929 -1.4444618 1.7851194 42.333332
-2.2949085 -1.3655789 1.7896866 26
-2.1509018 -1.3990819 1.787517 40
-1.9670538 -1.4526458 1.7955559 58
-1.8558623 -1.4831927 1.7908423 67
-1.3845489 -1.4022555 1.7975227 78
-1.3263807 -1.4076704 1.7985238 74
-3.5389647 -1.3027766 1.7641727 73
-3.4164543 -1.2769904 1.7679851 72.5
-3.2255762 -1.2463056 1.7715086 73
-3.0572553 -1.2593279 1.7698219 71.5
-2.8918786 -1.2857456 1.774017 42
-2.5765736 -1.2406774 1.7835931 64
-2.4463251 -1.2374243 1.7802225 52
-2.3602705 -1.3217031 1.7916759 28
-2.2485309 -1.2336117 1.7871078 34
-2.023484 -1.2688556 1.7975718 26
-1.8763632 -1.3018968 1.7959567 26.333334
-1.6621591 -1.2814652 1.7963392 29
-3.6897824 -1.1374958 1.7026013 10.5
-3.4070947 -1.133459 1.7662019 79
-3.245199 -1.1502231 1.7684896 72
-3.0470791 -1.0910389 1.7669288 69
-2.9358149 -1.0918266 1.7750117 63
-2.7803349 -1.156611 1.7793716 63
-2.5492966 -1.1638432 1.7818912 63
-2.3649542 -1.1138569 1.7854716 59
-2.1549327 -1.1545526 1.7857829 60
-2.0306771 -1.0761647 1.794366 67
-1.8796773 -1.1266973 1.7923249 68
-1.7693864 -1.1472774 1.7954369 67.333336
-3.5256169 -1.0393904 1.7725714 4
-3.2457268 -0.99144059 1.7800399 5
-3.0949993 -1.0124478 1.7737842 76
-2.9152348 -0.99079001 1.779982 62
-2.8091097 -0.92701709 1.7816638 68
-2.6060429 -0.98247051 1.7855749 66
-2.4862349 -1.0179045 1.7860125 65
-2.3149605 -0.98536366 1.7888397 56.5
-2.2079179 -0.96543574 1.7936572 63
-1.8918756 -0.95425391 1.7948664 65.333336
-1.769506 -0.9324922 1.7997323 73
-3.7166035 -0.81454927 1.6720399 107
-2.9618385 -0.85214418 1.7817651 5
-2.6681139 -0.82435119 1.7883304 69
-2.4533207 -0.85324794 1.785755 64.333336
-2.3396702 -0.82295012 1.7925886 63
-2.2495382 -0.77504295 1.7934657 66
-2.0315182 -0.87345475 1.7974156 68
-1.8471955 -0.81768847 1.7986273 75
-2.7076459 -0.61793244 1.789332 72
-2.6169553 -0.70604557 1.7826108 69
-2.4533014 -0.67048323 1.7884996 69
-2.3621049 -0.68331921 1.79083 67.5
-2.1605146 -0.72915512 1.7962638 69
-2.0182884 -0.70670903 1.7925792 71.5
-2.6402583 -0.4806211 1.7788311 65
-2.492872 -0.50106293 1.7853581 69.333336
-2.3238249 -0.5685358 1.7919234 73.5
-2.1999547 -0.5536418 1.7988607 68
-2.048398 -0.52185917 1.7978033 72.5
-2.5556471 -0.37030956 1.788381 67
-2.402164 -0.41830686 1.7891945 73
-2.3444076 -0.37868735 1.7927618 75
-2.0259132 -0.37326339 1.7991172 75
-2.1093292 -0.29847255 1.7947022 1
-0.54555702 -0.10909469 1.7856609 56
-2.8156579 0.0036795184 1.7928017 65
-2.4818525 0.12977147 1.7942313 80
-2.7770936 0.20638004 1.7929324 79.5
-2.5754809 0.23082021 1.792622 73
-2.4702806 0.18936075 1.793677 76
-3.8247643 0.34358332 1.6687218 6
-3.211199 0.43399072 1.7795018 76
-3.0906641 0.44154212 1.7858223 76
-2.9131153 0.41647026 1.7912663 79
-2.7166815 0.42617106 1.7931541 74
-2.5689919 0.41333887 1.7938229 72
-2.4579017 0.36835751 1.7943808 80
-3.1799977 0.51521176 1.7723843 22
-2.8089294 0.57688481 1.733183 23
-2.5957975 0.48613015 1.7941064 78
-2.4475632 0.56197703 1.7560685 17.5
-2.3671703 0.57564884 1.7677909 22.5
-3.8548284 0.64501053 1.6674811 12
-3.5412464 0.62296534 1.7728008 10
-3.3928246 0.63329536 1.7866203 9
-2.6125367 0.63148254 1.6966344 25
-2.510108 0.65010792 1.7245088 32.5
-2.388078 0.71543044 1.7095629 64
-2.0416486 0.63556731 1.6919128 25
-1.9231765 0.62659967 1.7279713 44
-1.4196215 0.65699542 1.792704 16
-1.2394171 0.67277545 1.7924296 22
-0.65407526 0.73353249 1.7949632 4
-0.50654829 0.72010052 1.7670529 3.5
-0.55548322 0.75922412 1.7947549 5
-3.2338135 1.3388915 1.793517 1
-3.5335159 1.484596 1.7957934 0
0.035558056 1.6485647 1.6914917 0
0.165989 1.7224191 1.6535977 5
0.15288171 1.8285508 1.7235466 7
3.5889935 2.654062 1.6710163 73
3.5810351 2.7733264 1.7647594 69
3.5609255 2.9559333 1.6744977 68
3.5334024 3.3522725 1.749788 63.5
3.5116577 3.5166707 1.7447684 65.5
3.4994469 3.6079531 1.7621611 63
-1.6865265 3.9680853 1.6776203 75
-1.0702415 4.0322237 1.701212 78
-0.99754548 4.0329838 1.714489 87.333336
3.4594214 4.108108 1.7120777 47
4.4563608 -8.2860069 1.8270425 5
3.9783409 -8.2412691 1.8455063 19
4.5318165 -8.1826992 1.8072597 18
3.4443736 -8.0810556 1.8316137 19
3.3693953 -7.6309142 1.8409601 18
3.473655 -7.5355935 1.8502332 21
3.6660824 -7.51931 1.8630123 22
3.8882086 -7.4283338 1.8384229 23
2.9749484 -7.2235465 1.8382446 19
3.4256384 -7.3363028 1.8264779 20
2.5055292 -7.0355687 1.8308395 24
2.5510311 -6.9430628 1.8504287 20
2.6566019 -6.8417263 1.8563555 22
2.7684016 -6.7649856 1.8551446 22
2.8760736 -6.763649 1.861293 23
3.0368214 -6.6969447 1.8273638 23
2.6085849 -6.5509863 1.8172511 23
2.1964521 -6.3902802 1.8261174 19
1.7908435 -6.199564 1.8253063 29
1.8559911 -6.2853389 1.8372141 30
1.9690082 -6.185739 1.8398846 30
4.3542671 -6.211679 1.8191022 40
2.0921345 -6.1366954 1.8489062 19
2.1963146 -6.1232224 1.8570217 30
2.3505065 -6.0813718 1.818802 30
1.9717779 -5.934948 1.8205949 28
1.2941074 -5.7343116 1.8317946 27
1.5995131 -5.7442703 1.8263544 26
3.5915434 -5.8007779 1.8834738 25
3.8583262 -5.7005115 1.8931407 21
1.4149686 -5.650394 1.835009 32
1.5913203 -5.5891695 1.8476303 29.5
1.8013091 -5.5911288 1.8242949 27
4.0906301 -5.5593333 1.8897966 24
4.286622 -5.5555191 1.8798778 31
1.2403922 -5.5393386 1.8271176 25
1.4491731 -5.4001336 1.8188976 33
4.1773238 -5.5436172 1.886427 23
4.3131847 -5.5105205 1.8031257 37
-0.55773449 -5.2923746 1.8103262 3
2.8531551 -5.2712779 1.8741974 27
3.4899459 -5.2604351 1.8808492 21
3.6481233 -5.2654457 1.8871559 29
3.7648919 -5.3647895 1.8951615 31
4.2688723 -5.3624325 1.8955132 34
-0.39962059 -5.1817722 1.8091689 31.5
-0.22745889 -5.1971345 1.8242484 48
0.82368273 -5.2476974 1.8273503 32
0.95666331 -5.18328 1.8321787 33
1.1283678 -5.1444983 1.8363112 33.333332
1.3291377 -5.1321335 1.8188719 35
3.1304359 -5.2377863 1.8818513 27
3.3782208 -5.1582947 1.8732907 27
3.5572774 -5.2448874 1.8828334 30
0.80566376 -5.0080643 1.8386081 13
2.8771653 -4.9675269 1.869579 27
3.1234782 -5.0020814 1.8868617 28
3.6037216 -5.0481458 1.8809286 29
0.42519152 -4.8053112 1.8197099 48
1.0155357 -4.9311218 1.8153647 35
2.2594788 -4.8219304 1.8691915 34
2.5351765 -4.8395281 1.874699 33
2.7950826 -4.8216968 1.8688368 23
2.9367015 -4.9233222 1.8658515 32
3.0232248 -4.9289756 1.8733991 33
-0.5024882 -4.7033658 1.816173 50
0.56400663 -4.7536736 1.8238453 42
0.70659959 -4.7070003 1.8211445 43
0.79869443 -4.6751308 1.8332907 49
0.93109459 -4.7223239 1.810763 47
2.3426542 -4.6886678 1.8594681 33
2.4184258 -4.6507125 1.8648695 33
2.5723479 -4.6647983 1.8752614 37
3.0324497 -4.7603507 1.869553 34
-0.67095429 -4.5788393 1.8045791 2
0.65136963 -4.5163836 1.8109928 44
2.2892051 -4.5021372 1.8598768 39
2.5214884 -4.5704384 1.8677112 35
4.1342916 -4.5249825 1.9179808 30
0.088952169 -4.4174256 1.8174545 48
0.23218991 -4.3776274 1.8205458 52
0.43705899 -4.4797292 1.8144339 48
0.59156698 -4.3589725 1.8070883 51
1.7592695 -4.4072647 1.8550054 47
1.8731227 -4.4173594 1.8501211 41
1.9945571 -4.4289665 1.8625243 40
2.100879 -4.3515773 1.8608471 41
0.37920779 -4.3165483 1.8172191 51
0.4778474 -4.3195996 1.8335103 53
1.8574097 -4.2136168 1.8523036 42
2.0333774 -4.3451815 1.8558036 41
2.1064029 -4.2469525 1.8558656 46
3.4784362 -4.2516141 1.9065431 31
4.1794534 -4.2595296 1.9220179 39
-0.20010844 -4.059732 1.8123943 22
0.14140783 -4.0612645 1.8090628 20
0.34224206 -4.1423178 1.8036097 52
1.3492458 -4.0531311 1.848514 47
1.4601139 -4.15693 1.840927 48
1.5959438 -4.1129756 1.8495036 45
1.703073 -4.0794764 1.8560635 49
3.5896254 -4.0632863 1.9125382 31
-0.05292495 -4.0367589 1.817258 24
0.10013948 -3.9625998 1.8115352 38
0.25004524 -4.0104399 1.8153732 26.5
1.1001269 -3.9184146 1.8390902 22
1.4834325 -3.9468124 1.845713 22
1.7206988 -4.0032992 1.8437713 49
2.917006 -3.9898233 1.8939458 35
3.7864296 -4.0007606 1.9120387 25
4.1661325 -3.9754293 1.8819016 49
0.081066802 -3.8229542 1.8060957 50
1.1938068 -3.8688421 1.8379177 33
1.260726 -3.8354001 1.8398483 36.5
1.3697357 -3.8025646 1.842055 52
3.0750322 -3.8721318 1.9051996 31
3.2682266 -3.8213627 1.8985001 32
3.6510892 -3.8475938 1.9055102 31
3.9679608 -3.7960534 1.9099621 28.5
-0.44994348 -3.7344632 1.8105894 57
-0.22806183 -3.7189832 1.8167825 51.5
-0.086502463 -3.67066 1.8169516 51
0.04699875 -3.7448306 1.8078336 56
0.83302242 -3.6678824 1.836795 57
0.99542868 -3.6805358 1.8432959 54
1.1544591 -3.694634 1.8385509 52
2.4410625 -3.7492976 1.8862649 45
2.613025 -3.6713228 1.8902518 39
2.8193603 -3.6514406 1.8889698 40
3.0453482 -3.6268125 1.884724 33
3.1826029 -3.716763 1.8976562 31.5
3.4472032 -3.6868312 1.8929461 31
3.5242243 -3.748091 1.8977 31
3.7125623 -3.6315949 1.9131759 31
4.1384487 -3.6776567 1.9066843 50
-1.1007881 -3.5696721 1.8056933 60
-0.17509624 -3.466532 1.8043255 55
-0.14638442 -3.5276961 1.8076478 52
0.49636853 -3.4630661 1.8325988 53
0.71613604 -3.4622071 1.8437854 52
0.87038118 -3.4652202 1.8351251 48
0.93384808 -3.5844293 1.8434108 50
1.0727146 -3.5880408 1.8413817 55
2.031296 -3.5248835 1.8808821 48
2.2231486 -3.4992824 1.8907689 46
2.4268038 -3.4914639 1.8831598 48
2.6485348 -3.5345192 1.8804599 32
2.7554288 -3.5740356 1.8860286 36.5
2.9009264 -3.4530129 1.8929688 36
3.2798245 -3.538038 1.8965806 30
3.8874815 -3.4744141 1.9274992 32
-0.66695005 -3.4358842 1.8097094 55
-0.51366526 -3.4406788 1.8154672 58
-0.33294109 -3.3775146 1.8134373 58.333332
-0.24689439 -3.4298482 1.8258256 58
0.66368032 -3.3949292 1.8400542 53.666668
0.80708754 -3.3795569 1.8382151 56
1.6760532 -3.3119557 1.8742195 52
1.8904881 -3.3166656 1.8731652 51.5
2.077884 -3.3329253 1.8779 50
2.330158 -3.4336374 1.8780149 46.25
2.5446248 -3.3541636 1.8846542 45
3.381103 -3.3448169 1.9139646 32
-1.2496516 -3.2676644 1.8062614 62
-0.85552728 -3.1532228 1.8064364 59
-0.7019763 -3.1690397 1.8101219 54
-0.55560559 -3.181119 1.8156627 57
-0.38634878 -3.212388 1.8113766 58
0.24081899 -3.2427342 1.8267702 55
0.36171931 -3.2180617 1.8287894 55
0.51959145 -3.1902459 1.8352789 58.75
0.62078285 -3.2538414 1.8357962 54
1.6008303 -3.2051165 1.8624121 54
1.7182257 -3.1621387 1.8647259 49
2.0134039 -3.2977324 1.8717593 50.666668
2.2197912 -3.2514069 1.8781039 47
2.9414408 -3.2191222 1.9080154 39
3.5127261 -3.1825066 1.9129599 30
3.8952825 -3.2199149 1.93797 32
3.9768045 -3.2686155 1.9260989 33
-0.48916385 -3.0652871 1.8098704 54
0.078013107 -3.0243287 1.8234298 57.5
0.39718702 -3.0505326 1.8302003 61
1.3098681 -3.0763409 1.8548483 54
1.4258106 -3.0407505 1.8613312 51.200001
1.5995909 -3.0860679 1.8687491 49.5
1.9215066 -3.1468873 1.8728696 54
2.5440941 -3.081219 1.8970062 45
3.072165 -3.0777116 1.9095024 38
3.4389293 -3.1398795 1.9202021 30
3.7205718 -3.041141 1.925963 31
3.8618481 -3.0665829 1.9245213 34
-1.3791044 -2.9869194 1.8029686 58
-1.0214635 -2.8916323 1.8066515 55
-0.86691105 -2.915448 1.8077046 58
-0.71949911 -2.9365251 1.8106269 64
-0.55281067 -2.9677482 1.8078303 65.5
0.23257862 -2.9247932 1.8302962 64.25
0.35295814 -2.9880831 1.8371619 59
1.0431302 -2.9430294 1.8451964 56
1.1324011 -2.8988657 1.8517565 56.333332
1.2392477 -2.8999622 1.8547678 52
1.3922964 -2.9239633 1.8618678 52
2.1958117 -2.9477665 1.8914195 50
2.36924 -2.8814108 1.8930182 48.5
2.6511712 -2.920831 1.9009897 35
2.7337675 -2.9960384 1.8998889 45
2.9520342 -2.9305437 1.8998941 39
3.0635252 -2.8984122 1.903329 32
3.1675951 -2.8511348 1.8998784 42
3.3633428 -2.9886572 1.9092575 34.5
3.4900696 -2.8936553 1.9111354 29.5
-1.4935379 -2.7285304 1.8020197 65
-0.8663581 -2.7141948 1.8113443 56
-0.67527741 -2.7699912 1.8081204 58.400002
-0.18659671 -2.8318441 1.8206037 61
-0.054690216 -2.8297071 1.826171 55
0.064780965 -2.7783344 1.8311665 63.5
0.16825008 -2.8106191 1.8253268 68.5
0.84871918 -2.7721882 1.8462385 59.333332
0.99651659 -2.7524729 1.8491223 55.75
1.1545025 -2.800822 1.8507684 54
1.8917136 -2.8211062 1.8906769 41
2.0609243 -2.7586029 1.8870801 47.333332
2.2027397 -2.7188172 1.8873124 48
2.3017578 -2.7518399 1.8865714 47.333332
2.4963863 -2.7678792 1.8869958 44.333332
2.6659524 -2.8281686 1.9014579 44
2.8033824 -2.7844429 1.8989449 42.25
3.1038165 -2.7545967 1.9047508 50.5
3.1630762 -2.7010419 1.9157795 46
3.3678813 -2.7261927 1.9016632 25
3.5003777 -2.7931111 1.9182228 31
-1.166508 -2.6422629 1.8040591 55
-1.0133991 -2.681107 1.8077337 55
-0.76900631 -2.5709233 1.8093305 55
-0.36659205 -2.6395895 1.8204378 61
-0.23211108 -2.6463575 1.8259534 56
-0.054148525 -2.6505432 1.8267014 63
0.023323925 -2.6677628 1.831954 63
0.57974887 -2.6777244 1.8373288 61
0.69039553 -2.5948441 1.8484745 57
0.79014695 -2.6155381 1.8472183 60.25
0.94083756 -2.6859145 1.8462914 65
1.5673996 -2.5979683 1.8721465 49
1.7322652 -2.6178846 1.8750204 45.400002
1.8896041 -2.6409414 1.8819916 48.75
2.0390575 -2.6376123 1.884123 48.333332
2.2193573 -2.5875108 1.8905631 46
2.3324134 -2.6434131 1.8922333 48
2.4981928 -2.6505339 1.8943344 47
2.6271949 -2.6223063 1.9000562 29
2.8984847 -2.6333551 1.9000814 44
3.2391465 -2.5904999 1.9084727 43
-1.5945038 -2.4886625 1.8009857 63
-1.2949755 -2.4082007 1.8048919 53
-1.1449405 -2.4641259 1.812251 50
-0.99612284 -2.4992359 1.8090249 60
-0.83132249 -2.5331666 1.807785 58.666668
-0.52806163 -2.4476922 1.8161045 64
-0.39015731 -2.4672909 1.8247093 58
-0.2103729 -2.4825573 1.825749 66
-0.12398808 -2.5010943 1.8312111 66
0.19106154 -2.404732 1.8295974 67
0.37765276 -2.5469463 1.8377782 59
0.55013353 -2.4845943 1.8439895 55.75
0.62868249 -2.4850938 1.8492347 62.5
1.1371849 -2.4071162 1.8608452 62
1.2803037 -2.4519653 1.8597211 54.5
1.4189991 -2.4950705 1.8618289 52.333332
1.5662066 -2.4800036 1.8684869 49.666668
1.7480206 -2.476438 1.8761085 48.5
1.8848796 -2.4396069 1.875456 42
2.0129495 -2.4721031 1.8867396 46.5
2.1259539 -2.4915321 1.883185 42
2.3390288 -2.4890697 1.8901508 45
2.5299037 -2.443413 1.8892437 40
2.7736385 -2.434551 1.8920065 42
3.0407097 -2.4237826 1.9062887 22
-2.085959 -2.3224974 1.8000444 39
-1.6895535 -2.2674384 1.8049728 33
-1.1107616 -2.2936933 1.806106 54
-0.94977093 -2.3316982 1.8085303 63
-0.88214993 -2.349822 1.8090851 58
-0.67239064 -2.2641108 1.8145837 58
-0.53263807 -2.2877347 1.8163792 59
-0.35250431 -2.3156233 1.8210119 71.5
-0.26341692 -2.3217216 1.8257844 64.5
0.079591885 -2.2626443 1.8315383 62.5
0.29924059 -2.3866782 1.8371905 59
0.41397122 -2.3482487 1.8417094 64.75
0.47031313 -2.3637772 1.8429114 62.5
0.85589117 -2.2912292 1.846437 50.5
0.99639821 -2.3230112 1.8541199 58
1.1012113 -2.3432653 1.8593584 53
1.2674048 -2.3310769 1.8598564 54.75
1.4516134 -2.321614 1.8636942 50
1.6181939 -2.3502195 1.8657905 46
1.6593589 -2.3809054 1.8687383 47
1.8347418 -2.3911779 1.8738493 46
-1.563978 -2.2060425 1.801437 63
-1.4077209 -2.1815679 1.8023499 63
-1.2580556 -2.2455525 1.8067392 56
-1.0712727 -2.138247 1.8078796 64.5
-0.99354988 -2.1362791 1.8054457 59.333332
-0.6599949 -2.1214881 1.8169428 44
-0.52517998 -2.1502597 1.821915 68
-0.39742693 -2.1581049 1.8249725 67.800003
-0.071645245 -2.1295757 1.8292037 63.5
0.096552253 -2.1064093 1.8340942 71
0.25794244 -2.2187705 1.8378576 65.5
0.31566688 -2.2242227 1.8414012 70.5
0.51978934 -2.1249337 1.8587232 63.5
0.7030679 -2.1959374 1.8779111 37.25
0.82462537 -2.184737 1.8758823 36.57143
0.95750886 -2.1903222 1.8594961 47.166668
1.1051244 -2.1867521 1.8599281 52.666668
1.2372656 -2.2485235 1.8582963 50
-1.3600217 -2.0394874 1.8054866 58
-1.2136146 -2.0996726 1.8046862 60
-1.172235 -1.9668437 1.8084894 68
-0.78852546 -2.0213928 1.8142639 60.5
-0.63949519 -1.9975301 1.8221186 68
-0.50950098 -1.9983391 1.8233038 72.199997
-0.272044 -2.0012541 1.8304502 71
-0.054845657 -1.9846529 1.8343245 69.5
0.11271616 -2.0464389 1.8382211 70.333336
0.17754351 -2.0911117 1.8417833 68
0.36865783 -1.9947122 1.8412776 65.666664
0.54790533 -2.0230699 1.8648002 38.400002
0.66251075 -2.073761 1.8809241 39.75
0.78943753 -2.0302186 1.8788743 29.333334
0.94293326 -2.0998032 1.8680445 40
-1.4496852 -1.8409582 1.8029307 60
-1.3067298 -1.9132687 1.8035158 61
-1.0969324 -1.9431521 1.8061566 65
-0.91804308 -1.9132963 1.8142182 62
-0.65911865 -1.8521 1.8154143 82.5
-0.57783043 -1.8276954 1.8305693 79.5
-0.3995086 -1.8618718 1.825194 85
-0.19347686 -1.8650926 1.8269405 85
-0.083334066 -1.8289951 1.8346293 79.75
0.032793213 -1.9055473 1.8380469 75.666664
0.24941866 -1.8681294 1.8410085 69.599998
0.38390571 -1.8657399 1.8447498 68.14286
0.51572037 -1.8791775 1.8502945 54.166668
0.65523124 -1.9150314 1.8632032 23.5
-1.5626032 -1.705039 1.8022333 67
-1.3921558 -1.7345293 1.8050026 72
-1.2514884 -1.7793031 1.8083074 70
-1.1602376 -1.7628762 1.8113481 67
-1.0199535 -1.7401379 1.8108338 69
-0.82336968 -1.7347809 1.815383 74.666664
-0.68598139 -1.692391 1.822533 79
-0.51525158 -1.7240688 1.8199207 80
-0.38374421 -1.7431711 1.8276521 75
-0.22460084 -1.716555 1.8337815 78
-0.11837848 -1.7330137 1.8317795 78.5
0.089850776 -1.721063 1.8356193 74
0.22210298 -1.7209711 1.8417896 74.666664
0.37454948 -1.7283562 1.8403543 77.333336
-1.4637425 -1.5565928 1.8005198 76
-1.2726551 -1.5998737 1.8063536 74
-1.1525608 -1.5786929 1.8121712 71.5
-0.9467802 -1.596184 1.8132417 71.5
-0.79451174 -1.5625206 1.8212239 81
-0.67253858 -1.5531571 1.8284761 77
-0.47670585 -1.5663998 1.8308169 76.5
-0.35675183 -1.5715519 1.8337785 76.333336
-0.24784413 -1.5914805 1.8341922 78.25
-0.078504331 -1.5656748 1.8398123 77
0.065882236 -1.5855702 1.8408859 76.375
0.20997176 -1.5844676 1.8414819 79.75
0.31154013 -1.6072803 1.8460299 81
-1.753242 -1.361331 1.8018514 25.5
-1.5676665 -1.4271638 1.8027632 65.5
-1.4018806 -1.4729311 1.8066751 72
-1.2623155 -1.4117467 1.8082244 73
-1.1262858 -1.4514745 1.8145444 73
-0.95876396 -1.4179895 1.8175513 80
-0.83576298 -1.4099772 1.8250313 83
-0.69043201 -1.4146399 1.8266855 75.5
-0.53951824 -1.4163589 1.8327419 74.25
-0.38680187 -1.4370533 1.8383398 74
-0.21989676 -1.4196841 1.8385898 70.14286
-0.065276235 -1.4204569 1.8434802 72.75
0.062008843 -1.4552473 1.8448049 79.5
-1.5952531 -1.2245514 1.8074929 29
-1.432757 -1.2667402 1.8068075 31.666666
-1.2980404 -1.2514347 1.8135475 32.333332
-1.0990636 -1.3048406 1.8136282 52
-0.96548724 -1.2773681 1.8222228 45
-0.84231395 -1.2701823 1.8285066 50
-0.66015661 -1.2721473 1.8316144 57.666668
-0.5196268 -1.258352 1.8348274 46.200001
-0.39128286 -1.2909068 1.8394461 61.799999
-0.23770203 -1.2766544 1.8397951 59.714287
-0.093474992 -1.2696453 1.8448132 64.5
0.04865272 -1.3296424 1.8405465 91
-1.5837111 -1.1095465 1.8036649 71.5
-1.4351043 -1.0804051 1.8054026 76
-1.3304775 -1.0900607 1.811061 76
-1.1089592 -1.1374984 1.8153028 62.5
-0.95508558 -1.1003809 1.820292 68.333336
-0.86005861 -1.1357154 1.8264719 50.333332
-0.6658265 -1.11476 1.8254846 52.833332
-0.51653099 -1.1201811 1.826389 31
-0.38399661 -1.1468326 1.8335725 17.666666
-0.22932009 -1.1342034 1.838044 44.57143
-0.11720648 -1.1098762 1.8383821 53
-2.1226044 -0.90863472 1.8005892 69
-1.8254936 -0.99310547 1.8000051 65
-1.5592813 -0.95937157 1.8092932 74.5
-1.4105887 -0.9335562 1.8115833 75.25
-1.2571474 -1.0397937 1.8109032 80
-1.13516 -0.98956066 1.8218027 87.666664
-0.98905444 -0.96640062 1.823639 91.75
-0.80996192 -0.9741236 1.82074 85.5
-0.68817663 -0.95919031 1.8230709 80.666664
-0.52458096 -0.95732856 1.8241251 61.111111
-0.38046044 -0.9779762 1.8261039 49.57143
-0.26261327 -0.98817641 1.8296136 43
-1.8732363 -0.78227377 1.8020586 68.666664
-1.6968005 -0.89643145 1.8058501 71
-1.5666621 -0.81531239 1.8114319 68
-1.4086978 -0.77733088 1.8165679 75.5
-1.2736118 -0.88174927 1.8166533 81.5
-1.1131148 -0.83873159 1.82138 88
-0.97232836 -0.82993591 1.8239152 89
-0.80347031 -0.81005514 1.8216417 80.400002
-0.65803277 -0.82176393 1.8262616 77.75
-0.5186255 -0.82946944 1.8287163 69.75
-0.38576564 -0.83765781 1.8326539 60.75
-0.27125269 -0.85485637 1.8308125 50
-1.9109893 -0.62556684 1.8026608 71.666664
-1.7012727 -0.72492933 1.8094937 71.5
-1.56002 -0.67595339 1.8079093 70.5
-1.4410415 -0.62882936 1.8175359 73.25
-1.2408576 -0.72469246 1.821422 85.5
-1.1100798 -0.68719244 1.8205878 82.199997
-0.96151978 -0.65702403 1.8191544 77.5
-0.83182359 -0.70218247 1.8199306 80
-0.6727165 -0.66197026 1.8241166 80.545456
-0.52213651 -0.70279896 1.8265306 75.714287
-0.40071234 -0.6900717 1.8309829 67.599998
-1.868225 -0.53748876 1.8063772 72.5
-1.7407438 -0.57085776 1.8133237 71.5
-1.5627193 -0.50225228 1.8132795 77.333336
-1.4529597 -0.48447266 1.8163623 78.666664
-1.2794118 -0.53916007 1.8132665 75.599998
-1.1233766 -0.51354849 1.8168808 75.599998
-0.9916271 -0.52899998 1.8230792 77.25
-0.82384741 -0.52536112 1.8201718 80.36364
-0.67044151 -0.5356462 1.8237346 78.25
-0.54743427 -0.52090728 1.8306863 76.714287
-0.41377419 -0.53169107 1.8337659 68
-2.239563 -0.37808263 1.8050562 14
-1.9561243 -0.43553513 1.8031762 76
-1.8652964 -0.38625494 1.8122541 64.333336
-1.735723 -0.41549584 1.8153464 75
-1.5670584 -0.34516907 1.8142518 88.25
-1.4261593 -0.33554319 1.8152801 84
-1.2762183 -0.36459634 1.8140644 75.666664
-1.1242635 -0.36297768 1.8203732 76.400002
-0.94860125 -0.37314913 1.8187237 77.666664
-0.81155115 -0.37897262 1.8223267 78.166664
-0.68561053 -0.38059643 1.8285462 77.63636
-0.50278372 -0.3876977 1.8333893 75
-1.9907773 -0.26167324 1.8247435 26.5
-1.8871568 -0.22168358 1.8164806 60.666668
-1.7103187 -0.25959665 1.8121784 80
-1.5584474 -0.16990328 1.8183275 89.666664
-1.4446923 -0.19581062 1.817565 90.333336
-1.2740573 -0.19592766 1.8126792 74.333336
-1.1228341 -0.24625096 1.8185712 74.75
-0.97500706 -0.22417422 1.8186873 76.428574
-0.82451367 -0.22845311 1.8326192 66.333336
-0.67167526 -0.23872358 1.8300989 76.5
-0.51827747 -0.22438283 1.8372884 72
-1.8927432 -0.08510907 1.8080189 83
-1.7304361 -0.1022447 1.8140949 84.5
-1.549495 -0.030131275 1.8191048 90.5
-1.4574 -0.056575138 1.8178917 87
-1.2675889 -0.079491854 1.8146603 78.5
-1.0989156 -0.071126074 1.8188721 76.833336
-0.96620911 -0.068603672 1.8188238 80.166664
-0.81361103 -0.084945254 1.8338212 62.333332
-0.68245971 -0.084201917 1.8292698 76.428574
-0.5355671 -0.042574864 1.8256512 68
-1.9944565 0.091581307 1.8033662 79
-1.8827143 0.051952563 1.8120085 80.25
-1.6789391 0.068637162 1.8136719 91
-1.5531467 0.090488009 1.8194655 89.75
-1.4181366 0.057965409 1.818525 84
-1.2432771 0.076587312 1.8177631 79.5
-1.1132292 0.088671297 1.8204486 81.400002
-0.98477966 0.088008299 1.81828 78.199997
-0.81591356 0.072683379 1.8274893 79.199997
-0.67856818 0.070802271 1.8332278 79
-0.55088633 0.087609679 1.8300751 83.666664
-2.1455405 0.27427059 1.8037435 87
-1.9826932 0.26980102 1.8071141 83
-1.872623 0.19963886 1.8140215 83
-1.6812768 0.2336116 1.817953 83
-1.547267 0.22066034 1.8227156 87
-1.4262816 0.19545622 1.8262917 91.666664
-1.2491193 0.23646475 1.8197445 77.666664
-1.1047097 0.22829431 1.8240737 79.5
-0.99229324 0.23301701 1.8217344 79
-0.82061732 0.21534079 1.8270893 78.727272
-0.69084513 0.23368812 1.8354079 77.428574
-0.5451166 0.20580302 1.8386136 82
-2.3572967 0.37391561 1.8004802 83.5
-1.9941374 0.40487561 1.8077215 81.333336
-1.8767687 0.36385003 1.8141729 82
-1.674264 0.39973122 1.8164862 82
-1.5507909 0.35563838 1.822295 84.5
-1.4259782 0.33387402 1.824684 91
-1.2394276 0.37310258 1.817525 78.333336
-1.1046748 0.37650558 1.8251936 77.25
-0.99709922 0.37585986 1.8239034 74.833336
-0.83081424 0.37401113 1.8257309 74.428574
-0.69068819 0.38400713 1.8325905 77
-0.53778338 0.35940111 1.8385515 75.5
-2.3549449 0.54664904 1.8015941 21
-2.1483984 0.47229469 1.8089665 77
-2.0124154 0.53846025 1.8096681 59.666668
-1.8724378 0.52997398 1.8091239 69.333336
-1.6633725 0.57002699 1.8195623 88
-1.5562415 0.4888458 1.8241282 83
-1.4288254 0.53245884 1.8282233 86.5
-1.2765739 0.5371936 1.8251957 90
-1.1479956 0.5256421 1.8230624 77.666664
-0.96660656 0.51908457 1.8270675 74.5
-0.81836057 0.53847021 1.829827 77.444443
-0.68182826 0.53070176 1.8326713 75.666664
-0.51279658 0.53481376 1.837973 77.25
-1.8547351 0.67272258 1.8102751 6
-1.5925184 0.66568565 1.8211476 13.333333
-1.4327228 0.72000116 1.8205017 14.5
-1.1343386 0.66620231 1.8192617 40.75
-0.99174345 0.67965478 1.8233325 22.200001
-0.81251478 0.68500197 1.8229111 25.142857
-0.67932427 0.65898609 1.8305949 48
-0.53811401 0.66585767 1.8395636 73.75
-2.1336045 0.88381094 1.8168942 10
-2.0068326 0.87364835 1.8144625 17
-1.8963848 0.80873775 1.81283 13
-1.5420585 0.78895605 1.8164465 15
-1.412412 0.86088878 1.8202883 11.4
-1.2215565 0.83175385 1.82467 14
-1.1009985 0.82306546 1.8269651 13.4
-0.97884101 0.83467448 1.8247244 12.6
-0.83556938 0.8089965 1.8331004 13
-0.63842499 0.81846422 1.8354317 62.75
-0.5045498 0.83211541 1.8298148 54
-0.4296633 0.85871696 1.8385708 69
-2.4792066 0.96768111 1.8098232 4
-2.03069 0.9264254 1.8191715 10
-1.5684696 0.94061863 1.8273168 15
-1.4017314 0.98137665 1.8269428 15
-1.3390194 1.0216131 1.8375467 9
-1.1319405 0.9896571 1.8327007 12.333333
-0.98668796 0.97162294 1.8300995 12
-0.8885811 0.93200767 1.8344508 12
-0.66087502 0.95640153 1.8344479 79.666664
-0.54062003 0.98700577 1.8437427 79.666664
-0.38255998 0.98860842 1.8588266 55.666668
-0.78017962 1.0899451 1.833882 87
-0.66769695 1.0788261 1.8376477 84.800003
-0.53264999 1.12816 1.8465914 84
-0.37582353 1.1327498 1.8471893 82.800003
-1.0105982 1.2219045 1.8997177 0
-0.81274533 1.2985641 1.937757 70.5
-0.66925156 1.2533032 1.9120405 92.5
-0.51295936 1.2878397 1.9358984 78.199997
-0.36355746 1.280188 1.9173876 76
-0.25651678 1.2848721 1.9423946 80
-0.84881938 1.4477576 1.9348487 65.75
-0.68104607 1.3895425 1.9369216 75
-0.5194267 1.4272623 1.9403574 69.75
-0.39070463 1.4300061 1.9416475 70
-0.23427634 1.4477719 1.9126374 70
-0.13678461 1.4384012 1.8469905 67
-0.9255473 1.5676583 1.9307075 64.333336
-0.82666445 1.5674076 1.9322394 70.5
-0.6759485 1.5765736 1.9376869 69.5
-0.5241698 1.5872978 1.93819 69
-0.37444782 1.5871019 1.9429684 68.5
-0.23685268 1.5574738 1.8877535 58.857143
-0.094888493 1.5840983 1.8503852 69
-0.97065806 1.7000784 1.9345332 60
-0.80449992 1.7048823 1.9406058 61.799999
-0.62826401 1.7606028 1.9426283 58
-0.53574401 1.6844754 1.9432156 68
-0.36245757 1.7424077 1.9444944 65
-0.20796482 1.7172277 1.8963504 41.5
-0.07131996 1.6986092 1.8493267 69.25
0.11726077 1.7939006 1.8705176 21
-1.1165893 1.8868601 1.9332994 14
-0.83731699 1.8429638 1.9366579 62.333332
-0.71658272 1.8485827 1.9398565 60.666668
-0.50244915 1.8697305 1.9439099 61.5
-0.41403896 1.8169816 1.9413272 69
-0.24475564 1.8277894 1.9333314 1
-0.011164698 1.8230926 1.8594277 65.5
0.11094211 1.869666 1.8648657 22
-0.77608013 2.0626411 1.9404064 61
-0.66595912 2.0030696 1.9412163 59.333332
-0.45387295 2.0635715 1.9462582 55
-1.2154125 2.1623297 1.9346436 15
-1.139276 2.156476 1.9406698 63
-0.64370149 2.1487298 1.9391319 59
-0.54627395 2.1901555 1.9469759 56.599998
0.065765336 2.2233007 1.8570876 66.333336
-1.1138004 2.3314791 1.9419328 55
-0.65782797 2.2520247 1.9443549 59
-0.49323079 2.3504255 1.9460548 54.5
0.064334139 2.3039589 1.8591653 69.5
-1.2102312 2.4476409 1.9412416 57
-1.0601274 2.4270434 1.947966 62
-1.0308154 2.5161679 1.9409417 53
-0.52374423 2.444813 1.9455625 50
-0.41212744 2.4656918 1.9481493 54.5
-0.2938959 2.5077989 1.859418 2
-0.98846269 2.6135283 1.9395119 56
-1.0895219 2.7018807 1.9461538 63
-0.91306031 2.7559028 1.9390682 54
-0.87882817 2.8162236 1.9371051 53
-0.8595764 2.8840446 1.9408798 45.333332
3.5674825 2.8883357 1.8069967 70
2.4146326 3.058414 1.9275898 9
2.6139936 3.0808129 1.9279667 43
2.7053916 3.0907838 1.9337052 41
2.9039249 3.105706 1.9326724 38
3.0056288 3.105448 1.9393374 36
3.2061288 3.1180487 1.9397384 36
3.3141243 3.103395 1.9463664 34
3.5372148 3.0676851 1.9296641 65.5
-1.4580569 3.1929648 1.9478101 60
2.656105 3.2282913 1.9287634 32.5
2.9979084 3.2612755 1.9365302 31
3.535408 3.2145863 1.8468217 66
-1.6589359 3.4410591 1.9447933 58
-1.5271238 3.3143542 1.9361753 55
-1.4609767 3.4298968 1.9308649 58
2.6509333 3.3451803 1.9290918 8
2.9723213 3.3111014 1.9285604 31
3.0044181 3.4324698 1.9269172 31
3.3515337 3.3454766 1.9469393 31.5
-1.4360697 3.5706029 1.9353205 62.5
3.0770624 3.5537937 1.9280385 29
3.4110444 3.5296922 1.9413141 31
-1.416608 3.6661971 1.9013219 52.666668
-1.2819963 3.6410539 1.8342398 40
-1.122408 3.7057607 1.8921088 46
3.0223193 3.6202223 1.9309067 33
3.4944916 3.6927924 1.8695951 49
-1.253289 3.7994413 1.8380827 56.5
3.1837058 3.8115871 1.9293481 31
3.4817467 3.775187 1.8856229 55
-1.2487955 3.9543858 1.8342346 70
-1.1593441 3.981864 1.8302273 70.5
3.2357817 4.0187731 1.9422671 3
3.3071046 3.9008312 1.9435941 31
3.4690914 3.9636753 1.8308624 55.5
3.4569197 4.0969701 1.8297223 57
-0.2192952 1.3838526 1.9519796 39.5
-0.32723007 1.7144006 1.9503375 62
-0.25424841 1.7453779 1.9539939 83
-1.0438182 2.0849404 1.9505299 63
-0.99853575 2.3096747 1.9520916 51.5
-0.46454087 2.3396888 1.9501089 61
-0.40574312 2.3051174 1.9539706 56
-1.1214538 2.4010782 1.9528872 51
-0.85689366 2.4818454 1.9526461 60
-0.36041337 2.4956737 1.9508927 55.5
-0.93241006 2.5569322 1.951924 59
-0.74312377 2.697854 1.9548098 62
-0.3196184 2.5646293 1.9554778 55
-0.8095988 2.7881775 1.9539386 61
-1.3674269 3.0822666 1.9536835 64
-0.95862967 3.0200028 1.9885708 35
-0.78019905 3.0274422 1.9502488 3
-1.5650706 3.2357659 1.9533793 6
-1.2500111 3.3953512 1.9587499 63
-1.3318124 3.5302749 1.9524771 58
3.019485 3.7662041 1.9508427 1
3.425344 3.8478525 1.9504112 33
