# .PCD v0.7 - Point Cloud Data file format
VERSION 0.7
FIELDS x y z intensity
SIZE 4 4 4 4
TYPE F F F F
COUNT 1 1 1 1
WIDTH 181
HEIGHT 1
VIEWPOINT 0 0 0 1 0 0 0
POINTS 181
DATA ascii
0.004199666 2.6564722 -0.9297381 8
0.98702019 2.6467855 -0.9124071 9
-0.0054157255 2.7379253 -0.92841548 8
0.21426852 2.7870219 -0.92166942 8
0.30929416 2.7338023 -0.92382646 8
0.67109764 2.7492614 -0.91961163 6
0.056751084 2.8667593 -0.92491305 8
0.20940395 2.9449239 -0.92503339 6.5
0.42244536 2.9545858 -0.92534566 6
0.64893615 2.8958848 -0.91575825 6
0.12232389 3.0065675 -0.92875439 6
0.19298686 3.0745494 -0.92834741 5
0.67643923 3.0803788 -0.92607331 7
0.91396302 3.0899804 -0.93401885 7
-0.19867909 3.2663021 -0.95845509 4.5
0.16131462 3.2909062 -0.94390088 5
0.6855529 3.2287209 -0.92473012 7
-0.18347371 3.3855939 -0.95479542 5
-0.12741673 3.3380072 -0.95602083 5
0.62887597 3.4383116 -0.93218827 6
-0.11432889 3.5795815 -0.96002287 5
0.1283562 3.5528784 -0.94642109 5
0.28754991 3.5901644 -0.95135754 5
1.1370631 3.4600058 -0.93816495 6
-0.044233132 3.780709 -0.96149081 6
0.13751893 3.8279679 -0.95729858 10
0.68748403 3.79266 -0.94151354 9
0.83556002 3.7689893 -0.9605754 7
0.0272897 3.962805 -0.96701556 9
0.42336565 3.9169166 -0.9554531 7
1.4180504 3.9152634 -0.94784033 7
0.1373118 4.0677667 -0.97037035 7
0.74643773 4.1788163 -0.9593901 7
0.1303357 4.3006191 -0.97544533 9
0.58091646 4.2864823 -0.96440828 6
1.0956581 4.2703996 -0.97361398 2
1.7398405 4.2052288 -0.95069778 1
0.804012 4.5911021 -0.97157753 2
0.66856611 4.7447801 -0.97982007 1
1.3455601 4.711937 -0.9599576 58
0.87727112 4.9343605 -0.93432641 31
1.4391589 4.0736651 -0.837982 36
-0.31392637 4.6075869 -0.79174823 103
1.0101467 4.6249933 -0.76437515 58
-0.18009876 4.6899714 -0.7958321 93
-0.086502813 4.7219825 -0.82428008 69.333336
0.9505896 4.7689834 -0.84721792 47
1.4661877 4.7571568 -0.8941223 56
0.40262133 4.9214478 -0.84895396 46.5
0.593813 5.004364 -0.81806505 86
0.6401071 5.0128541 -0.88001031 6
1.5036249 -3.8592827 -0.64200687 0
1.8922517 -3.8163588 -0.61262631 1
4.1001091 -3.1051288 -0.62001365 1
1.2551576 -2.895648 -0.68318468 7
1.5568336 -2.7796164 -0.64486885 47
1.6803458 -2.7715068 -0.66970408 10.5
1.8463757 -2.7112291 -0.66700512 7
2.106262 -2.7879014 -0.66826189 9
3.3247068 -2.7731771 -0.64450139 3
1.6633332 -2.6980376 -0.67281663 10
3.0874441 -2.6029618 -0.65610796 6
0.87122172 -2.4622843 -0.70078337 10.5
1.6000962 -2.5343747 -0.67527843 9
2.5979388 -2.4359581 -0.61376989 49
2.8343558 -2.5222211 -0.66180199 6
0.85650522 -2.3668711 -0.70011318 10
0.99018663 -2.3552592 -0.70901024 8
1.1080133 -2.3024712 -0.70991534 10
1.5023515 -2.3411496 -0.68481314 6
2.4493554 -2.3683624 -0.67690605 5
2.7941842 -2.3407791 -0.66741073 5
3.3439758 -2.2870965 -0.6636284 7
0.1685348 -2.1949368 -0.71897179 10
0.80727631 -2.1668761 -0.71151185 9.5
1.299974 -2.1573653 -0.70554072 7
1.462675 -2.1748354 -0.6990785 5
1.6095531 -2.1516767 -0.70326442 5
1.7970212 -2.1739175 -0.6972096 6
2.9018266 -2.2038579 -0.67632067 6
0.69275755 -2.0075481 -0.7270565 11
0.79821926 -2.0051708 -0.72370142 6
1.408221 -2.0248632 -0.70438534 6
2.4639485 -2.0590107 -0.68258405 5
2.6785369 -2.0241446 -0.68611741 6
2.7793677 -2.0548751 -0.68254799 6
0.84124416 -1.9267659 -0.72565627 5
1.0164639 -1.9002641 -0.73118442 4
1.3106141 -1.8605566 -0.70916975 6
1.3674853 -1.8515167 -0.71754766 4
2.07828 -1.8092763 -0.70693547 6
2.3751912 -1.9063758 -0.69260359 7
2.4226134 -1.8195732 -0.69446325 7
1.3027501 -1.7420721 -0.72153318 5
1.430339 -1.7364081 -0.72457457 6
1.6102971 -1.7711346 -0.72154826 5
2.6092646 -1.7577181 -0.69837052 6
1.2658812 -1.6493318 -0.72158563 6
2.1384397 -1.5628629 -0.71390885 7.5
2.4170165 -1.6077819 -0.70733154 8
1.8468907 -1.4295503 -0.72891307 9
2.1824028 -1.4525347 -0.71484262 7
1.9508998 -1.2881721 -0.72711724 11
1.3714467 4.2237115 -0.73626423 26
1.6983348 4.3753581 -0.73959959 5
1.8390248 4.4772997 -0.66387087 82
-0.35343608 4.6072407 -0.68259478 42.333332
1.1143614 4.6353769 -0.70562094 68
0.043188244 4.7741747 -0.67692053 91.5
1.3056803 4.7042351 -0.66314173 62
1.3678131 4.6916881 -0.74345088 17
1.5171973 4.7747927 -0.72879803 43
0.10290764 4.8051229 -0.68292427 90
0.28164333 4.8824396 -0.60582846 92
0.33636957 4.8956099 -0.70730704 83.5
0.5827871 5.0164289 -0.72828895 72
0.70985037 5.0476828 -0.67164898 67
0.8254227 5.084589 -0.61053896 60
3.1183746 -6.070168 -0.52301353 1
1.9436553 -5.5898509 -0.56168222 23
4.58147 -5.3261595 -0.54435229 2
5.3714285 -4.4703307 -0.53967965 14
1.0525796 -3.8293958 -0.58170551 26
1.8095644 -3.5500746 -0.52320087 62.5
0.49058115 -3.19981 -0.54151732 95
0.65057117 -3.1323066 -0.48084813 105.5
1.6379255 -3.1195295 -0.58643723 12
2.8327246 -3.0049708 -0.47891518 44
2.8051574 -2.930932 -0.52627534 43
1.4936504 -2.8116701 -0.55792564 41.5
1.5802259 -2.7578883 -0.56609797 84
2.7265418 -2.7451215 -0.54690272 42
1.7630935 -2.6819785 -0.53896022 87
2.6696815 -2.5995479 -0.52510917 44
2.2506289 -2.4874017 -0.55710095 0
2.6178246 -2.4837742 -0.52955067 41
0.021112394 -1.6934211 -0.5699051 4.75
-0.029650897 -1.590026 -0.52106827 15.333333
1.4128122 -0.94035912 -0.5521549 53
1.3615851 -0.81703591 -0.55509734 55
1.2472353 -0.5623011 -0.47183794 64
0.42849761 1.317403 -0.45830473 1
1.875627 4.3814921 -0.57052267 65
1.0276556 4.6167083 -0.57211763 62
-0.22644843 4.6709585 -0.4993782 52
0.03340679 4.7778692 -0.51623517 88
0.9917112 4.6899619 -0.490473 51
1.1655769 4.6571741 -0.53098607 64
1.2349527 4.6801834 -0.59721285 62
0.2636705 4.8875108 -0.51376635 82
0.38770586 4.9404507 -0.46684328 92
0.89170355 4.91538 -0.54830992 50
1.5576364 4.8197999 -0.57451606 54
1.6734774 4.8437753 -0.496499 77
2.947737 -3.3048224 -0.43226871 32
0.51180029 -3.1941695 -0.42289621 142
0.63567686 -3.2294774 -0.40765491 154
2.9026442 -3.171488 -0.43134797 37
0.6122098 -3.1443062 -0.42956835 104
0.77138907 -3.1219208 -0.43594202 8
1.5827967 -3.0330946 -0.44005758 14
2.863508 -3.0892699 -0.44956562 37
4.9563479 -3.0135131 -0.44262439 58
1.5816966 -2.7507472 -0.43207631 81
-0.062822461 -1.5137609 -0.43887919 1
-0.1143752 -1.3958988 -0.42951459 1
0.11839549 -1.4169972 -0.42508978 4
0.17766407 -1.3979378 -0.43783665 11
0.23515381 -1.3404465 -0.43169224 11
1.3782394 -0.85552955 -0.41385713 49
1.2901734 -0.65829021 -0.42219138 56.333332
1.233994 -0.51189834 -0.42366374 65.333336
1.1939136 -0.40392756 -0.41300559 30.5
0.5924902 1.0239403 -0.40594324 13
0.54225874 1.1543484 -0.42009109 11
0.49110642 1.2564031 -0.41349038 11
1.4459248 4.1034746 -0.40009195 18
-0.010265517 4.7666721 -0.40638033 106
0.95766228 4.7699594 -0.42086676 53
0.49892533 4.9759851 -0.41474289 59
0.83506399 5.1020761 -0.41784412 84
