# .PCD v0.7 - Point Cloud Data file format
VERSION 0.7
FIELDS x y z intensity
SIZE 4 4 4 4
TYPE F F F F
COUNT 1 1 1 1
WIDTH 1772
HEIGHT 1
VIEWPOINT 0 0 0 1 0 0 0
POINTS 1772
DATA ascii
1.3907603 -3.5974183 -0.17093508 132
1.113728 -3.2291021 -0.15697329 70
1.2656963 -3.1772292 -0.16212848 150
1.102978 -3.113668 -0.15545258 150
1.9890034 -2.9646852 -0.16077097 58
2.2979915 -2.9529889 -0.16215175 39
2.0853579 -2.8473017 -0.15440895 115
1.5401537 -2.6037407 -0.19167678 9
1.8736328 -2.4997978 -0.1570289 153.33333
1.9841049 -1.7972887 -0.19162242 102
2.2030318 -1.594421 -0.1609035 50.5
0.1098056 -1.4516411 -0.17169952 7.5
2.4132829 -1.4026581 -0.17736086 7.5
5.9951015 -1.3758651 -0.16988961 35
2.5364714 -1.2450944 -0.1950845 4
-0.30080992 -1.0569991 -0.17316617 3
-0.2481582 -1.1181234 -0.18002653 6.3333335
-0.46783128 -0.91822183 -0.16250972 13.25
-0.41257185 -0.96620542 -0.17629887 13.428572
-0.50216824 -0.8813321 -0.16951491 16
1.0663875 -0.17981167 -0.17639089 5.75
0.89922971 -0.019187247 -0.17031123 7
0.94721842 -0.058915675 -0.17432195 7.5999999
0.72344023 0.14315918 -0.19303256 10.5
0.80923545 0.07576336 -0.18179646 9.2857141
0.58030373 0.28854862 -0.17282212 13.833333
0.65263039 0.21452616 -0.17306861 12.375
0.4285284 0.42750639 -0.17077151 15.571428
0.50695807 0.35574266 -0.17812032 16.818182
0.26425061 0.57921547 -0.17821924 16
0.34544203 0.50750649 -0.17288092 14.25
0.11894151 0.7073133 -0.17838283 14.2
0.21021318 0.6260978 -0.16810703 15.714286
-0.044245206 0.85872638 -0.17567113 16.200001
0.047705237 0.77859056 -0.1793969 16
-0.2032714 1.0117 -0.16469425 14.25
-0.12307531 0.93715286 -0.17299996 16.5
-0.33529502 1.1283197 -0.16355705 11.5
-0.27013463 1.0815473 -0.1765971 16
-0.49109429 1.2761247 -0.17372641 9
-0.43285376 1.230613 -0.17165467 10.5
-0.76155484 1.4273229 -0.17732871 4
-0.71287465 1.448192 -0.17729309 5
-2.0644493 4.9089651 -0.16156343 81.5
0.91744655 -3.4241142 -0.12717339 72
1.1603122 -3.174144 -0.089704521 83
0.79500383 -3.047451 -0.063548245 23
0.86534214 -2.9644885 -0.056124184 23.5
0.91612762 -2.941308 -0.075424798 23
1.694903 -2.6019533 -0.072295673 85.666664
1.2789063 -2.5309792 -0.087732382 79
1.4270759 -2.439039 -0.084590591 66
1.5278652 -2.4410655 -0.073896833 150
1.7743632 -2.5291843 -0.1063581 94.5
2.1318076 -2.145566 -0.07382042 148
1.9312174 -1.8534089 -0.064116783 56
2.9614451 -1.8749294 -0.12770125 119
2.0459476 -1.7294155 -0.077502601 82
2.5925524 -1.6863494 -0.086642474 71.333336
2.1523418 -1.6139387 -0.067934476 89.25
-0.015126723 -1.4090104 -0.04869822 79
0.072717465 -1.4154985 -0.11354698 13.444445
2.5056562 -1.4235092 -0.14304057 8
-0.061833549 -1.2903903 -0.096408837 12.8
-0.32201016 -1.0668751 -0.14744158 8
-0.29125535 -1.0639281 -0.14300145 0
2.8057568 -1.0844841 -0.1403084 29
-0.46947894 -0.91400582 -0.12997401 16.5
-0.3980737 -0.9838872 -0.11333253 9.3999996
2.7324903 -0.99718386 -0.034395803 36.5
-0.62350941 -0.77039516 -0.1035518 12.5
-0.54490876 -0.84785473 -0.11284807 13.388889
5.4633417 -0.88946176 -0.070376851 36
-0.65887952 -0.74461126 -0.098194249 16
1.049199 -0.15601596 -0.1283012 7.5
1.0969808 -0.20133325 -0.058026683 10.142858
0.88800091 -0.01162112 -0.031173693 6.3333335
0.96372032 -0.078514956 -0.074569881 6.5789475
0.74372196 0.14178905 -0.12492457 8.5
0.80846566 0.073302202 -0.093945369 7.6428571
0.57997614 0.28403017 -0.099328972 12.375
0.65607399 0.20949607 -0.096627682 10.875
0.42211422 0.42880902 -0.087159269 13.210526
0.50516832 0.3566587 -0.10139582 13.294118
0.26893687 0.56545365 -0.05715609 11.24
0.3487497 0.49483842 -0.070785359 13.173913
0.11116935 0.70977241 -0.078240417 13.294118
0.19504912 0.63745815 -0.074128576 10.814815
-0.050177131 0.85652077 -0.068467788 12.066667
0.035302658 0.78732115 -0.080772832 12.666667
-0.20078741 1.0002036 -0.076762639 12.333333
-0.11534029 0.92021483 -0.07677123 12.125
-0.34589177 1.1351864 -0.067179352 11.125
-0.27255964 1.0697072 -0.08889176 11.4
-0.52243209 1.2959427 -0.078135245 8.5714283
-0.40941289 1.2045673 -0.10419244 9.25
-0.77764881 1.4450452 -0.13071968 1
-0.66197628 1.413476 -0.030081933 5.6666665
-0.59846795 1.3677895 -0.10231528 9
-1.8604479 4.2843723 -0.1073348 2.5
-1.7698882 4.3684087 -0.07408502 16
-2.2971284 4.6603861 -0.03255913 115
-2.0710852 4.910409 -0.058542542 83
-2.0415068 4.9555759 -0.020855641 101
-1.9259049 5.0617843 -0.061714474 83
1.0005692 -3.6979001 0.089937113 0
1.1219879 -3.588027 0.069219582 0
1.6272084 -3.1606557 0.10119566 30
1.408098 -3.1038318 0.09623348 32
1.6513793 -3.0062208 0.078027926 1
1.7136948 -2.9591699 0.072997823 5.25
1.8027341 -2.8756571 0.070252858 5
2.1914196 -2.456506 0.062368359 16
2.2311757 -2.3370924 0.090295188 19
2.306004 -2.2542379 0.12436437 43
2.3419108 -2.1680377 0.11196075 28
2.5449204 -2.0935702 0.090403654 8
2.5510757 -2.0981183 0.061068024 8
-0.081378393 -1.8401397 0.10012373 3.6666667
-0.019726273 -1.7516663 0.074049316 4.5
0.027706411 -1.6994534 0.055293612 5.5
-0.56166488 -1.4047559 0.11129361 2
2.3037462 -1.4045765 0.076385565 8.5
-0.4636648 -1.2760541 0.048952129 1
2.3381808 -1.3442396 0.13902324 9
2.4685326 -1.2391201 0.092146136 7.3333335
5.8908377 -1.2778453 0.059587292 35.5
2.5863585 -1.1442413 0.00093778491 18
-1.1438583 -0.22623421 0.13330358 0
1.0286297 -0.15547037 0.0066695465 7
1.0949296 -0.21902812 0.018337971 3
-1.1260629 -0.14219388 0.14741319 0
0.93760175 -0.065773576 0.00071259856 6
0.24900968 0.58104146 0.0044047786 10
0.31814879 0.49966544 0.0014111054 7
0.083200023 0.73550433 0.00134408 8
0.29851919 0.61143774 0.028884465 6
0.39221507 0.62971044 0.063091509 9
0.4540211 0.63009501 0.083655141 10
-1.3581927 0.89620954 0.11650942 3.5
-1.3304701 0.77305871 0.13582581 1.3333334
0.26408201 0.76772439 0.064385287 9
-1.3541043 0.90972739 0.13774753 14
0.11532505 0.94912821 0.075308673 10
-0.27423859 1.1325687 0.016012097 9
0.072178051 1.1243496 0.11991715 11
-0.40781111 1.2820958 0.023247326 8
-0.16288877 1.3315231 0.12050235 8
-0.143099 1.2875861 0.10808777 12
-0.75309306 1.4288898 0.040138211 2
-0.6861375 1.4450349 0.048802271 9
-0.49850103 1.488354 0.10729446 14
-0.39378253 1.3947449 0.10479595 8.1999998
-0.21212941 1.4286927 0.14586568 4
-0.6269142 1.5422144 0.11065603 51.666668
-2.502496 4.3672113 0.12985426 150
-2.3190093 4.6488285 0.12508422 72
-2.301018 4.6588783 0.053355999 72
-2.1984975 4.7759619 0.14375079 75
-2.1724269 4.8020353 0.1150476 83
-2.0604086 4.9225683 0.079148643 77
0.9811359 -3.7320073 0.15357435 0
1.4425882 -3.0856926 0.19772351 37.333332
1.5506592 -3.0390568 0.18884385 62.333332
1.6692029 -3.0065436 0.18769383 5
1.0428498 -2.803196 0.16848665 9
2.067035 -2.6074314 0.1873588 8
2.1476076 -2.5126789 0.21017921 10
2.2686906 -2.4612033 0.24202061 6
2.2315481 -2.3033354 0.19886255 26
2.2804549 -2.3523569 0.22951026 36.5
2.3716345 -2.1733792 0.17011213 26
-0.19941026 -1.9076998 0.22752419 1.75
-0.11747637 -1.8648238 0.19100198 1.5
2.6132948 -1.8228583 0.19227159 8
6.4636011 -1.8239928 0.17124367 31
6.3870163 -1.7293686 0.22853643 31
-0.62823987 -1.5102289 0.17448437 8
-0.62842166 -1.452909 0.21275821 1.5
-0.4891125 -1.3840758 0.26422727 16.875
-0.4481566 -1.3991973 0.2329129 4
2.1926961 -1.4387079 0.20063378 0.66666669
-0.40014258 -1.2334778 0.15712565 0
2.32164 -1.3009317 0.22528838 5.5
2.4580617 -1.2207487 0.18711603 5
5.8919954 -1.2755041 0.26152009 34.5
2.4895668 -1.1704479 0.22932202 2
-1.2225716 -0.47961235 0.2428315 4.5
-1.1937476 -0.48116687 0.18188173 3
-1.2512736 -0.35120776 0.27047339 0
-1.2592207 -0.25201842 0.26620343 0
-1.1008191 -0.081656501 0.2648848 0
1.3134218 0.11659998 0.2120679 61
-1.3889531 0.72544599 0.20490535 0.83333331
-1.7649508 0.78201836 0.29345691 39
-1.32534 0.80665171 0.18636982 0.85714287
0.531232 0.8553279 0.21086404 9.2142859
-1.3435988 0.91301036 0.18334588 7
0.38947505 0.98471063 0.23541741 10.636364
0.4667519 0.91473091 0.24420632 9.333333
0.2317335 1.1279677 0.23465963 11
0.31037909 1.0594008 0.23933081 8.333333
-0.12423857 1.3113297 0.15028596 9
0.07897114 1.2664356 0.24376065 11.090909
0.15476932 1.2012339 0.21974629 8
-0.8051461 1.4722601 0.23308283 1
-0.70187992 1.4662386 0.24247502 35.333332
-0.51643717 1.4624791 0.25458705 15.5
-0.36654699 1.4033207 0.22680207 17.333334
-0.24781854 1.4773716 0.24314311 40
-0.08956673 1.4284732 0.23764727 20.4
-0.63196456 1.5193239 0.248146 62.333332
-0.56497055 1.5248753 0.18083055 39.666668
-0.20541458 1.5089856 0.23168266 27.333334
-2.750124 4.1873355 0.29389274 86
-2.4856985 4.345345 0.19200695 73
-2.5198896 4.4121037 0.23393933 116.33334
-2.4098775 4.5571117 0.28379512 76
-2.2808046 4.6936221 0.21368389 74
-2.2335269 4.7537656 0.16232085 79
-2.0897372 4.8923864 0.23404989 79.5
1.519675 -3.1178601 0.30818105 34
2.2252948 -2.5508003 0.32784092 0
6.4010019 -1.7482388 0.41127989 30.5
-0.64080358 -1.4324667 0.37276641 20
-0.55844957 -1.3944597 0.34245291 17
2.2033706 -1.2453876 0.43884185 5
2.2841861 -1.1356404 0.38089129 5.5
5.500124 -0.93568158 0.42817479 34
5.4553676 -0.88427675 0.32728761 33
-1.2568216 -0.49863335 0.36776522 5.5
-1.2376608 -0.35579047 0.37074453 0.42857143
-1.1876303 -0.34954476 0.43767571 0
-1.2604607 -0.24403755 0.37446001 0
-1.1885175 -0.29854363 0.40078777 0
-1.7171866 0.40640697 0.3611874 21.799999
-1.8102666 0.55396366 0.38435525 61
-1.7363834 0.55528909 0.39198256 79.5
-1.6159388 0.53633273 0.37734929 8.333333
-1.7364419 0.67451233 0.36775351 47.75
-1.4082655 0.71606433 0.34130564 1
-1.7499448 0.78937197 0.33571872 57.666668
-1.3115551 0.77035153 0.31512111 1
-1.3504224 0.90227818 0.31679803 0
0.35848731 1.006551 0.36462918 8.9200001
0.2343282 1.1203476 0.36505541 9.833333
-0.0041159964 1.3436836 0.36103952 10.333333
0.094750687 1.2505095 0.38158089 10.2
-1.8375909 1.4428291 0.3912611 2
-0.76406628 1.4250541 0.34003282 1
-0.71506816 1.4540968 0.370121 18.25
-0.48850191 1.4089599 0.41819254 11.5
-0.39562416 1.3807895 0.34039816 13.714286
-0.27886233 1.4881048 0.35231295 34.5
-0.059170634 1.3905286 0.37815315 27.5
-0.62482035 1.5489454 0.36612785 59.75
-0.21137907 1.5322211 0.376212 46.5
-2.9667261 3.9602134 0.44785589 86
-2.7537179 4.1824737 0.33275121 82
-2.7396593 4.2039857 0.41359448 76.333336
-2.6362047 4.3151469 0.44429356 75
-2.506995 4.4539752 0.35108581 71
-2.4394493 4.5241013 0.33166438 70
-2.3359494 4.6346111 0.34132534 77
-2.0770164 4.9145889 0.40822348 75.5
-2.0046299 4.9872584 0.41330379 74
-1.9437925 5.0503893 0.41678292 73
0.68918651 -4.0399804 0.49350053 24
6.0495048 -2.0268123 0.507927 28
5.9615765 -1.3588279 0.58522189 28
5.8497033 -1.2526895 0.45096028 27
5.9172649 -1.2908003 0.4670043 34
-1.2305621 -0.5054847 0.49967265 2
-1.1966974 -0.45256811 0.52054125 6
-1.2287645 -0.37625808 0.51706183 2
-1.1936872 -0.36170757 0.51134652 1
-1.3622642 -0.1502219 0.59692937 0
-1.2665572 -0.23521501 0.53065515 1.5
-2.1733363 -0.063662231 0.59616166 12
-1.4039789 -0.049007777 0.5393129 2
-1.3076789 -0.093305394 0.51147348 0
-1.8754281 0.51369601 0.54761034 55.857143
-1.8130542 0.66017979 0.57143122 47.333332
-1.7704597 0.72700554 0.47989324 73.5
-1.3856813 0.72816443 0.56038821 1
-1.7637771 0.77071786 0.52172768 48
-1.3604957 0.78685486 0.51983994 1
-1.3206626 0.80430239 0.50581682 0.66666669
-1.3719506 0.90477979 0.50817096 2
0.32175875 1.0408577 0.46281016 9
0.23306863 1.1209376 0.51744086 12.392858
0.30184996 1.0528091 0.46366644 8
0.077518612 1.2626294 0.52940494 27.416666
-1.8462546 1.4323859 0.46492273 2
-0.76239586 1.4072466 0.51838213 0
-0.6908384 1.4802197 0.47411114 57
-0.53108418 1.4400759 0.51815712 2.5
-0.41579428 1.4112762 0.48749438 6
-0.15834075 1.4812994 0.53342295 56.666668
-0.081991725 1.4124676 0.51173955 37
-0.62254107 1.5510075 0.58717346 53.5
-0.56963384 1.5321517 0.56315541 15
-0.21898699 1.5338218 0.5415588 52.5
-3.1845913 3.7429824 0.59934551 68
-2.9572866 3.974776 0.53917003 84.333336
-2.8567114 4.0802646 0.5998987 73
-2.730269 4.2158546 0.51696968 70.5
-2.6669846 4.2880998 0.52253264 69.333336
-2.5695677 4.3947797 0.50325531 76
-2.5016108 4.4563179 0.4578138 71
-2.3207974 4.6435213 0.46635658 69
-2.3102944 4.6505494 0.57791823 67
-2.2110505 4.7658095 0.59547114 69.5
-2.1421037 4.8455119 0.58024138 80
-2.0782297 4.9108844 0.51598197 78
7.8341942 -3.0610738 0.67490005 3
6.1772609 -2.0206556 0.69503295 30.5
6.3525019 -1.7175043 0.61311346 31.5
5.8946362 -1.2629982 0.63279045 27
5.5666132 -0.99652904 0.63906169 35
5.4287095 -0.8723914 0.64255977 34
-1.2505689 -0.32917404 0.66927898 6.5
-1.2707669 -0.23397227 0.67856431 9.5
-1.1757034 -0.25148684 0.67674947 6.2222223
-2.1477273 -0.036666926 0.67180723 8.333333
-1.834808 0.5462184 0.65223897 36.599998
-1.7690477 0.57154226 0.66765374 37.333332
-1.8184065 0.68408227 0.60373425 8
-1.5079074 0.73526639 0.63289279 1
-1.3652596 0.82090229 0.62512809 1
-1.3356024 0.76903957 0.65902102 0
0.14259015 1.1911646 0.61480469 51
0.18319057 1.1598648 0.65282792 34.083332
-0.014871944 1.3416405 0.63240981 56.5
0.084777921 1.2521392 0.681279 43.066666
-0.70485359 1.4591626 0.66377121 27.166666
-0.51713252 1.4489448 0.62716234 2
-0.37962857 1.4398311 0.70659375 4.1111112
-0.07745856 1.400052 0.6851753 52.142857
-0.64467889 1.5227247 0.64466566 52.666668
-0.30571389 1.6083051 0.72710121 47
-0.24178369 1.5506654 0.68588179 49.166668
-3.3905776 3.5103085 0.74435425 87
-3.1809297 3.7273324 0.63683987 93
-3.1636562 3.7603898 0.68721592 76
-2.9401453 3.9933155 0.65946418 73
-2.8760827 4.0695858 0.69319147 71
-2.7878253 4.1495042 0.65866709 73
-2.7117715 4.2377663 0.63575399 67
-2.5412681 4.4117594 0.68995637 66
-2.3806551 4.5948315 0.74098194 76
-2.3024964 4.6815429 0.65242827 69.5
6.4768138 -1.8511827 0.78621006 31
6.381 -1.7148896 0.78300071 30
6.0003481 -1.4037156 0.80967355 28
5.8312035 -1.253209 0.79933286 33
5.6160083 -1.0434583 0.89294493 35
-1.2294937 -0.39479589 0.79510236 1.5
-1.1479937 -0.36546424 0.76589602 2.5
-1.2339993 -0.17928764 0.766828 5.5
-1.1139171 -0.22520506 0.78688568 0.80000001
-2.0761967 0.079176113 0.88173223 1
-1.895072 0.4846555 0.7576921 39
-1.7318077 0.52146435 0.82574499 10.8
-1.7767848 0.64009643 0.8285718 5
-1.3768935 0.90358961 0.84861779 1.5
0.13923256 1.1962509 0.77631938 56
0.072401822 1.2592721 0.83016551 48.705883
-0.7006948 1.4732108 0.83226341 47
-0.47888967 1.4393605 0.80759579 82
-0.39657599 1.4955754 0.8566817 4
-0.092673376 1.4098485 0.82720554 47.900002
-0.62454236 1.5541915 0.79037601 53
-0.30927086 1.5813268 0.82981277 16
-0.24606001 1.5476568 0.82546812 44
-3.3803706 3.5217886 0.81287783 91
-3.1529112 3.7654526 0.76043808 70
-3.1021914 3.8281887 0.8273657 72.599998
-3.0126915 3.925281 0.81395137 73
-2.9170814 4.0246797 0.80904448 73
-2.7659142 4.172441 0.7911495 67
-2.6086237 4.3481212 0.89843476 74
-2.5179257 4.4472136 0.83163542 70.5
-2.439352 4.5246267 0.76966345 67
0.96759456 -4.3149419 0.96117795 37.5
0.61670643 -3.9856677 0.984954 39
7.8522587 -3.0654044 0.90987206 2
6.8967552 -2.2391818 0.96916962 24
6.51472 -1.8818606 1.0296203 31
6.3077116 -1.6982216 1.0025568 30
5.6401649 -1.0772629 0.97282898 35
5.7227979 -1.1615179 1.0160178 33
-1.4965534 0.73394686 0.97517729 0
-0.018828368 1.33757 0.99094468 48.200001
0.036341567 1.2865027 0.96580857 45.25
-0.17078549 1.4763227 0.98973238 46.5
-0.060632918 1.3782425 0.96984631 46
-0.60153258 1.5742261 1.0310677 39
-0.53991765 1.6047981 1.0026988 67.5
-0.22605045 1.5270473 0.9833535 45.75
-0.3806431 1.6717905 1.0385506 40
-3.6070855 3.2802894 0.9324249 118
-3.5388365 3.3571627 1.022352 92
-3.3489265 3.5619638 0.97069538 83.75
-3.2698317 3.646435 0.96466351 82
-3.1017985 3.8263049 0.9446643 71.5
-2.9835021 3.945066 0.94817436 66
-2.7380219 4.2189713 0.97724748 69.333336
-2.6587372 4.2915773 0.93895537 65.5
-1.9191589 5.086679 0.99372661 17
-2.1120391 -4.6779356 1.1990829 9
6.4682541 -4.7046099 1.1666408 39
1.0442976 -4.3908844 1.1901098 37
0.91659278 -4.2684789 1.1257575 39
0.37996596 -4.0656004 1.1570054 8
0.75966924 -4.1169419 1.0563219 45
-2.7978194 -4.0144267 1.1550221 79
0.53005075 -3.9413748 1.14867 52.5
0.63648981 -4.0129194 1.103222 46.5
6.0518274 -1.4503157 1.1042724 28.5
5.6294217 -1.0555201 1.1253498 35
5.4034901 -0.85614258 1.1700687 34
5.0086789 -0.4842023 1.1881535 31
4.8794465 -0.36868998 1.186919 31
0.010749412 1.3039631 1.0986081 29.333334
-0.69968253 1.4681671 1.1286985 32.200001
-0.078597583 1.3864015 1.1248066 46.700001
-0.63630223 1.5412493 1.0902734 38.599998
-0.59443051 1.5773339 1.1417835 39
-0.35224116 1.6425838 1.0625714 40
-0.26972592 1.5624 1.1483594 42.333332
-0.49179792 1.6920751 1.1444709 39.5
-3.5313559 3.3680089 1.1400266 94
-3.3145959 3.5966942 1.1442224 83
-3.2414169 3.6786685 1.0959623 81.5
-2.9460487 3.9956894 1.1153518 68
-2.8765464 4.0697432 1.1075183 65.5
-2.8339822 4.1096711 1.0535945 73
-2.1610377 4.8501554 1.1874282 79
-2.076216 4.9308014 1.1797948 76
-2.0046458 5.018549 1.1820546 77
-1.9320579 5.0828838 1.1679142 32
3.662385 -7.7127228 1.2258422 23.5
3.743324 -7.6188207 1.2593166 28
3.8174322 -7.5603995 1.2299336 25
3.8862841 -7.463408 1.2016531 18
-1.7143028 -5.0372243 1.2917571 76
-1.8742896 -4.8836679 1.2910362 76.5
-2.0284452 -4.7435718 1.2969893 71
-2.2716916 -4.5189128 1.3141534 83
-2.1500924 -4.6370888 1.313189 80
6.6195755 -4.5353179 1.3356382 27
-2.3547688 -4.4300785 1.3157145 76
-2.4770849 -4.3152609 1.2880301 76
0.87053877 -4.2323275 1.2475321 39
-2.7622025 -4.0561585 1.2159853 75
-2.6167746 -4.1984019 1.2585301 69
0.71469897 -4.077085 1.2300707 44
-2.7903299 -4.0339808 1.343183 77
0.39535442 -4.0022259 1.2916259 52.333332
0.54329163 -3.9579589 1.2777438 55.333332
-3.0226898 -3.8131671 1.3047903 83.5
7.8385038 -2.9854112 1.2735609 1
6.8586359 -2.2211804 1.2598746 3
6.5223718 -1.8950659 1.3020958 32
6.1044044 -1.5112823 1.2332155 29
6.168335 -1.5638646 1.2205018 29
6.036109 -1.4342322 1.3094145 29
5.8269219 -1.2543122 1.3202693 34
5.6716623 -1.1050186 1.2724054 27
5.2986107 -0.75967407 1.3333697 34
5.1577644 -0.63101256 1.3190269 36
5.2685676 -0.71199089 1.2035687 32
4.665472 -0.18014233 1.3102084 40
4.4853616 -0.00022367245 1.2870078 42
4.4552374 0.020863049 1.2101971 39
-0.03314491 1.3415571 1.23685 43.333332
-0.7229929 1.4556435 1.3267577 23
-0.16486612 1.4634581 1.2463621 44.25
-0.11324877 1.414704 1.2899873 43.200001
-0.62253278 1.5500981 1.3071737 40
-0.56328917 1.6230991 1.2259697 40
-0.32785165 1.6120626 1.2720885 43
-0.22084883 1.5152463 1.2022955 42
-0.52540195 1.6569766 1.3054501 37
-0.41589552 1.6934277 1.2960297 41
-3.7265568 3.209862 1.2939678 22
-3.4988191 3.4026783 1.2845066 98
-3.4102967 3.500047 1.2627858 86
-3.1745152 3.7535925 1.2380959 75
-3.0889897 3.840271 1.2704785 78.75
-2.9424579 3.9995689 1.2081503 69
-2.2417991 4.7475753 1.345018 74
-2.1838777 4.8215718 1.3273373 87
-2.0334368 4.9868608 1.283534 7
3.140101 -8.2223015 1.4847544 23
3.4619694 -7.9319315 1.3712493 25
5.1034732 -6.1610904 1.4637183 26
5.1675582 -6.0992141 1.4341357 25.5
-1.5471392 -5.2050614 1.3910658 52
6.1618614 -5.0161142 1.4086019 31
-2.0322123 -4.7446084 1.4440188 80
-2.2774448 -4.5202093 1.4458249 77
-2.197648 -4.5890951 1.4065342 76
-2.3991563 -4.4040289 1.4482138 80
6.7000952 -4.4319358 1.3881254 38
-2.5752006 -4.2307501 1.4656839 79.5
-2.5260754 -4.2856736 1.4406419 79
0.15165852 -4.2876244 1.4002197 64
-2.7156425 -4.1035223 1.4254241 78
-2.6291869 -4.1835556 1.4369954 81
0.24187845 -4.1689539 1.4315543 58
7.0039282 -4.1039166 1.3698519 26
-2.8669643 -3.9584761 1.3705369 74
0.37234426 -4.0232778 1.4342589 68
-3.0371156 -3.8102729 1.465873 82
-3.2506781 -3.6108882 1.4546585 74
-3.1210029 -3.7267404 1.4808828 80
-3.2849982 -3.5740268 1.3938665 94
7.8448706 -3.1660233 1.3998387 1
6.5915017 -1.9799213 1.4964731 30
6.63905 -2.0198901 1.4632958 24
6.5580502 -1.9370158 1.3898216 32
6.04884 -1.4606911 1.4692147 29
5.7717261 -1.2007478 1.3570317 34
5.4671559 -0.92273927 1.4786719 34
5.6072707 -1.0249101 1.3508204 27
4.920321 -0.40054411 1.4358376 35
4.6944485 -0.20157884 1.3811836 41
-0.67704463 1.4948919 1.4080291 38
-0.17239574 1.4635036 1.4335943 39.200001
-0.07917022 1.3789405 1.3908476 39.666668
-0.34898698 1.6273735 1.3811224 34
-0.24711819 1.5354997 1.4160632 37.799999
-0.39423963 1.6730466 1.4008462 39.5
-3.6241241 3.273514 1.4207168 100
-3.3863282 3.5374491 1.4008808 87
-3.3051443 3.6070807 1.4594783 83
-3.2794824 3.6349394 1.3880906 82.5
-3.1478536 3.7852089 1.373917 70
-2.4220376 4.5623527 1.4805752 82
-2.3858387 4.6038899 1.3714387 74
-2.3001838 4.6953955 1.3962567 76.5
-2.0116065 5.0126104 1.4371104 78
3.2314484 -8.1598415 1.5558525 25
3.3514237 -8.0335178 1.5716307 11
3.5222578 -7.8817143 1.5631523 26
3.6980627 -7.6739407 1.5056024 27
-0.3732551 -6.3234749 1.5601665 15
4.8795452 -6.3974161 1.5747006 26.5
5.0410547 -6.2131343 1.5067388 26
5.2517295 -6.0001774 1.5381428 27
-1.6550021 -5.1030979 1.614387 54
-1.5842888 -5.1851425 1.5511773 24
-1.7303729 -5.0581465 1.623394 25
-1.8255332 -4.9444075 1.5237486 70
6.3362474 -4.8434887 1.5560946 27
-2.0878088 -4.6790099 1.6466781 38
6.420526 -4.7301674 1.5985888 37
-2.263859 -4.540966 1.5540438 82
-2.4070268 -4.3976116 1.575757 86
-2.3191376 -4.4853969 1.6064475 53
-1.8676142 -4.4664569 1.6246189 1.5
0.04098938 -4.4027181 1.6492137 62
6.7097139 -4.4101706 1.5463893 27
6.7684331 -4.3680868 1.5062739 30
-2.4915509 -4.3146009 1.5539176 83
0.1887487 -4.2373333 1.5982541 59.5
-2.7390754 -4.0796685 1.606169 64
-2.645956 -4.1808467 1.5815845 80
-2.2108071 -4.1423664 1.632614 40
0.27226329 -4.1470752 1.5767077 59
7.0345626 -4.0738444 1.5675461 29
-2.8680022 -3.9530008 1.5601226 83
-2.8070481 -4.0211649 1.60976 70.5
7.182476 -3.9274144 1.5625753 26
-3.0933218 -3.7544641 1.5123942 66
-2.9514222 -3.8893492 1.5594314 70.5
-3.286242 -3.5858135 1.588738 16
-3.5261784 -3.3439715 1.509457 0
-3.3716869 -3.0725436 1.6072981 37.5
7.5260477 -2.8524587 1.59422 25
-3.794873 -2.6888742 1.612784 68
7.1108799 -2.4415021 1.5952393 23
6.4957089 -1.8724556 1.5367752 24
6.268723 -1.6660073 1.5596666 31
6.2037172 -1.5983367 1.5906377 31
5.9795222 -1.3819669 1.5263454 28
5.6295915 -1.0699977 1.5108768 35
5.1871109 -0.65728903 1.6042033 27.5
4.9470859 -0.42588976 1.5006832 34
-2.5295491 -0.094100915 1.623386 8
-0.17042263 1.4644924 1.5059358 35
-0.12776969 1.4167538 1.5641366 34.666668
-0.66807127 1.5181859 1.632974 39
-0.58046031 1.6110392 1.5795505 38
-0.31256175 1.5978571 1.6042726 40
-0.21767746 1.5042552 1.5883205 42
-0.49333724 1.7045747 1.558412 37.666668
-0.42201674 1.6973761 1.5966219 38
-3.526207 3.376544 1.5729253 92
-3.3404491 3.5759597 1.5245554 90
-2.6550922 4.3157659 1.6379052 81
-2.6055744 4.3721719 1.5558907 72
-2.5165148 4.4626904 1.5429991 74.666664
-2.2655315 4.7492123 1.592783 77
3.1106772 -8.3048859 1.7673455 27
-0.16775887 -6.4850788 1.6593343 28
4.7823143 -6.5168486 1.7625631 28
-0.23882188 -6.4007716 1.6879638 3
4.8720107 -6.4187422 1.7027246 26.5
4.9790072 -6.2886968 1.795247 27
-0.32641196 -5.8993659 1.7527442 67
-0.2660681 -5.9496479 1.6704923 52
-0.35841569 -5.746232 1.7986501 36
-0.5673359 -5.6843228 1.7260047 4
5.8809638 -5.3328485 1.6763035 32
-1.490636 -5.2444358 1.6991495 1
6.0518723 -5.1373005 1.7905511 27
-1.8093988 -4.9658709 1.6797849 1
-1.8742979 -4.8634567 1.7146398 1
-1.8681269 -4.6874661 1.6757795 18
-0.090238094 -4.7939587 1.7973713 49
6.4338617 -4.7126961 1.7396165 27
6.4985809 -4.6664233 1.7013797 30
-0.38885674 -4.3714871 1.7961837 50
6.7263708 -4.402092 1.667261 30
6.7503982 -4.377099 1.7671236 30
-2.5114622 -4.27491 1.6686326 37
-2.0528336 -4.2881999 1.7216688 9
-0.22679418 -4.3342314 1.7999009 55
0.17304923 -4.2463951 1.7081892 64.5
6.9141102 -4.2177877 1.7186395 29
-2.7493482 -4.0661306 1.7221123 1
-2.5131712 -4.1786966 1.7016646 18
-1.7253525 -3.9906542 1.7678372 10
-1.5248657 -3.9900274 1.7801479 50
-1.2812037 -3.9920862 1.7940902 53.5
-1.166867 -3.9686434 1.7966028 55
-0.64444047 -3.9927371 1.7953757 58
-1.2704651 -3.8424172 1.7943258 54.5
-3.0770016 -3.6868718 1.6619939 0
-2.1861782 -3.6713009 1.7688303 4.5
-1.8841488 -3.6017444 1.7728039 48
-1.6863053 -3.6144297 1.7830766 56
-1.431391 -3.6537051 1.7922752 52
-1.3280782 -3.6082265 1.7923695 56
-0.86574423 -3.648061 1.7946852 55
-2.9458985 -3.4820271 1.6993533 14
-2.8140981 -3.5974905 1.7189926 1
-2.5440078 -3.4877229 1.7410208 9
-2.2883015 -3.5072479 1.7591302 23
-2.1259701 -3.5272777 1.776404 54
-1.3841908 -3.5470231 1.7917142 49.5
-3.0709372 -3.3495426 1.7133369 51.333332
-2.978941 -3.4027369 1.7484275 24
-2.7789397 -3.3927574 1.7714201 36.5
-2.3271723 -3.4142933 1.7632173 26
-2.2420914 -3.3197954 1.7747356 53
-1.4615097 -3.3735693 1.7933944 54
-0.8913002 -3.3409889 1.7969779 58
-0.73550147 -3.3454118 1.79941 62
-3.8193364 -3.151866 1.6519126 27
-3.1891003 -3.2313337 1.6711594 42
-3.0900321 -3.170763 1.7570337 57
-2.9284534 -3.2560453 1.7627372 57
-2.4344287 -3.1675208 1.7678796 23
-2.2723589 -3.2157149 1.766857 50
-2.2279086 -3.1772325 1.7751304 57
-2.0176387 -3.239872 1.773743 58
-1.8244847 -3.2680511 1.7822229 59
-1.5819232 -3.2243979 1.7866966 59.5
-1.4807258 -3.2610407 1.7915763 57
-3.7288613 -3.1337407 1.6805598 27
-3.3458989 -3.019124 1.7602693 89
-3.2173572 -3.057075 1.7624338 67.5
-3.0621414 -3.037919 1.7603029 58
-2.9073534 -3.1225302 1.7549957 60
-2.8237739 -3.062192 1.7728432 60
-2.6568182 -3.139267 1.7582442 56
-2.4207063 -3.0502429 1.7683407 24
-2.3441279 -3.1343155 1.7714647 25
-1.569306 -3.1051731 1.7873286 56
-1.2225978 -3.0387287 1.7929968 48
-0.90132266 -3.071943 1.7937528 53
-0.76324457 -3.0756879 1.7999369 63
-3.563467 -2.878067 1.7094939 98.5
-3.380682 -2.952085 1.7607677 70.5
-3.1493001 -2.987776 1.7672352 59
-2.9209538 -2.9249835 1.7682945 54.5
-2.3189576 -2.8920374 1.7741957 44
-2.1383073 -2.9115601 1.7772037 29
-1.9462796 -2.9509902 1.7825438 65
-1.7589422 -2.9743056 1.7793792 70
-1.6008067 -2.932857 1.7890894 60.25
-3.7507555 -2.7071481 1.6625763 88
-3.6131327 -2.8385925 1.7040173 97
-3.3510087 -2.7221937 1.7579757 62
-3.155684 -2.8007305 1.7601036 55
-2.9389968 -2.7427592 1.7658019 59
-2.7430322 -2.7957463 1.7607633 60
-2.4752245 -2.7736728 1.7664825 55.666668
-1.6907048 -2.75878 1.7825361 65
-1.3658793 -2.7594526 1.7883645 57
-1.2056834 -2.7985172 1.7942079 58
-0.97897971 -2.8312869 1.7970387 60
-3.7114 -2.6064103 1.7527434 67
-3.4168549 -2.606797 1.7596627 60.666668
-3.1944242 -2.6441557 1.7682103 60
-3.1320102 -2.6923864 1.765256 62
-2.8972573 -2.6203499 1.7711333 60
-2.3694019 -2.586689 1.7714113 60.5
-2.2326486 -2.5917261 1.7680224 59
-2.0503588 -2.6529114 1.7798375 30
-1.8640766 -2.685107 1.7728709 67
-1.6937822 -2.6209793 1.7895721 62.666668
-1.3363926 -2.5571961 1.7964381 58
-1.1823037 -2.5978639 1.797918 60
7.2282271 -2.5693054 1.7774693 27
-3.9937201 -2.4439836 1.736021 80.5
-3.697998 -2.5207782 1.7548134 60
-3.2137959 -2.4571154 1.7598473 47
-3.0509558 -2.4829416 1.7631028 57
-2.9518292 -2.4130521 1.776049 62
-2.8265595 -2.4830172 1.7676433 64
-2.6012113 -2.5293159 1.766389 59
-2.4699335 -2.4622009 1.7661024 62
-2.3934731 -2.5402706 1.7690727 55
-1.9634126 -2.4276583 1.7750832 65
-1.803683 -2.472748 1.7865344 31
-1.785285 -2.5309522 1.7888879 36
-1.4951767 -2.5040295 1.78868 63
7.1493058 -2.4992356 1.7187563 27
-3.4589791 -2.3069236 1.76113 65
-3.4147561 -2.3731987 1.7571129 61
-3.2210534 -2.3333845 1.7680632 61.666668
-2.9402397 -2.3051455 1.7737147 60
-2.5585346 -2.3864491 1.7624959 69
-2.473043 -2.2902391 1.7731808 75
-2.3535233 -2.3092213 1.7722669 63
-2.1412547 -2.3708506 1.7737998 61
-1.8407366 -2.2845268 1.783641 56
-1.7539415 -2.3791895 1.795922 30
-1.6130037 -2.2705595 1.7976915 32
-1.4503107 -2.3207433 1.7910918 59
-3.7775371 -2.2136197 1.7553866 62
-3.7071517 -2.1671505 1.7576877 59
-3.4911702 -2.2485592 1.7586571 62
-3.4466705 -2.2496281 1.7622374 61
-3.2707565 -2.1368446 1.7620915 57
-3.0743399 -2.150759 1.7673484 67.333336
-2.8949096 -2.181118 1.7672807 71
-2.6716011 -2.2406795 1.7648395 65
-2.4809868 -2.2036748 1.7667257 55.5
-2.2300954 -2.1174576 1.779266 61
-2.0580187 -2.188751 1.7828575 67
-1.8635838 -2.1717494 1.7895777 67
-1.7976795 -2.1389129 1.7913989 57
-1.4055642 -2.1694312 1.7994722 28
-3.4975553 -2.0163734 1.7608151 62.5
-3.2704699 -2.0308111 1.7718238 63.666668
-2.9700141 -2.0057645 1.7685217 61
-2.7399833 -1.9718878 1.7660066 66
-2.6194522 -2.0924714 1.7629336 63
-2.4630983 -2.0184047 1.7734971 63.75
-2.1387887 -1.9558488 1.7837855 61
-1.9646704 -2.019701 1.7897406 64.5
-1.887241 -2.0635238 1.7904931 55
-1.7101289 -2.0317991 1.7912794 68
-1.4964678 -1.9613311 1.7903534 69
-3.3317964 -1.8386725 1.7690624 4
-3.1815991 -1.8046756 1.7595373 60
-3.0939527 -1.8838825 1.7680674 63.5
-2.9526567 -1.8935398 1.7643126 62
-2.6249738 -1.8548597 1.7682396 62
-2.3081346 -1.8722334 1.7822567 61
-2.0037339 -1.8194234 1.7929178 63
-1.8482261 -1.8424113 1.7945853 63.5
-1.6480749 -1.8932307 1.7958795 76
-1.4222138 -1.8177686 1.7983766 73.5
-1.3494629 -1.8113575 1.7981211 44
6.4250069 -1.8011487 1.7493252 23
6.4689565 -1.8642057 1.7047881 24
-3.307333 -1.7742587 1.7714916 4
-3.0099623 -1.7319241 1.771829 63
-2.803781 -1.7178124 1.7682348 71
-2.6104505 -1.7938479 1.7769138 67
-2.4862864 -1.7561353 1.7783941 58
-2.2153416 -1.7355096 1.790131 59
-2.0203779 -1.7852614 1.7895099 62
-1.8979743 -1.6804518 1.7936031 57
-1.7294213 -1.6892971 1.793085 58
-1.5868281 -1.7748349 1.7989458 66
-1.2415916 -1.6611695 1.7941762 79
-3.0160623 -1.6242558 1.7681612 4
-2.7232487 -1.5506805 1.7669722 65
-2.6477659 -1.5987737 1.7776769 53.5
-2.5141368 -1.5320616 1.7810978 58
-2.327632 -1.5747893 1.7841525 39.5
-2.1235268 -1.6019734 1.7941483 68
-2.0431333 -1.5808014 1.7888712 57.5
-1.9114723 -1.6219926 1.7927237 58.5
-1.6616585 -1.5864023 1.7956451 65
-1.1897366 -1.5658805 1.7977027 72
-3.2312434 -1.3824178 1.7777399 4
-2.8720918 -1.4750013 1.7760631 4
-2.610059 -1.426522 1.7794271 59.5
-2.4405754 -1.4059672 1.7838057 53
-2.1825302 -1.3994752 1.7887629 58
-2.0229237 -1.4129586 1.7933314 60
-1.8739119 -1.4368521 1.7899199 59
-1.7332822 -1.406624 1.7979227 64
6.0231667 -1.426634 1.7340335 30
-2.7725251 -1.2986053 1.7740034 4
-2.5973887 -1.258256 1.7813593 5
-2.502748 -1.3036597 1.7861623 59
-2.3379352 -1.302685 1.7847058 60
-2.184833 -1.2705252 1.7867786 63
-1.9968653 -1.2486115 1.7919791 68
-1.8700088 -1.2995245 1.7937614 59
-1.795307 -1.2271605 1.7966913 76
5.8304024 -1.2552339 1.6772991 28
-2.397234 -1.0979927 1.7886959 3
-2.1786118 -1.1255281 1.787553 61
-2.0361307 -1.146876 1.7938246 61.333332
-1.8928745 -1.0816766 1.7962431 62.5
-2.2948537 -1.0138177 1.7888774 63
-2.1781139 -0.94780612 1.7907872 65
-2.0367692 -0.98067617 1.7936081 65.333336
5.4712067 -0.91431946 1.7440544 26
-2.3494124 -0.82790017 1.7926103 70
-2.1411963 -0.78276908 1.7932838 41.5
-2.0891647 -0.84343636 1.7968286 66
-1.9070389 -0.87819314 1.7979842 71
-2.2599287 -0.7132296 1.7951151 13
-2.4407692 -0.45054325 1.7919878 76
-2.3076148 -0.30552322 1.7904428 73
-2.5596952 -0.28488034 1.7695178 9
-2.5125034 -0.25408265 1.7799165 9
-2.2308006 -0.19918434 1.7977625 76
-2.0742829 -0.18133664 1.7992507 79
-2.6121411 -0.083377935 1.7846345 10
-2.4850626 -0.058173262 1.7340964 10
-2.3269126 -0.10093719 1.7917031 9
-2.1790662 -0.0060505578 1.7643553 0.5
-2.0863914 -0.011725161 1.7986752 41.5
-2.5560722 0.12733963 1.787865 77
-2.3302188 0.10177103 1.7807883 32
-2.1247134 0.074072905 1.7550246 3
-2.0340724 0.14285772 1.7807635 2
-2.5654104 0.15057614 1.7864171 71
-2.2553897 0.18653542 1.798818 80
-2.1788757 0.22290066 1.7995123 87
-2.2944231 0.36428118 1.7930571 78
-2.1493168 0.39678353 1.7962285 89.5
-2.1569083 0.53745073 1.7982706 94
-1.6830662 0.47083658 1.7824186 1.5
-1.5875753 0.53416413 1.7701231 2
-2.0509286 0.68474925 1.795014 98
-1.5602645 0.67249185 1.7798392 8
-1.3528308 0.89412868 1.7911533 12
-1.3212173 0.86740524 1.7747997 4
-2.2942412 1.0428629 1.7987372 75
-2.2332621 0.99530208 1.7986504 72.5
-1.24459 0.93373311 1.7682297 4.5
-1.1814144 1.0278175 1.7727417 3
-2.1806974 1.1463149 1.7978219 1
-1.1274865 1.0949488 1.7831519 2.5
-0.98799378 1.244405 1.7808362 0
-2.7462852 1.4898952 1.7900666 63
-0.18781602 1.4777656 1.752923 37.5
-2.8001056 1.547242 1.7820841 30
-0.63970435 1.5437703 1.7445599 34
-0.58929479 1.6072893 1.7109276 33
-0.33563915 1.6201937 1.6815084 39
-0.26199034 1.5461569 1.7007608 39.333332
-0.52587038 1.6720262 1.7164751 33.666668
-4.271843 2.3396506 1.7756337 68
-4.174192 2.3703513 1.781189 25
-4.3896909 2.4385328 1.7291185 96
-4.3318548 2.495132 1.7541038 95
-3.7431979 3.1923962 1.7269073 20.5
-3.5443234 3.3580916 1.6990229 98.5
-2.8847647 4.0714984 1.7953757 88
-2.8011079 4.1704578 1.7425619 81.5
-2.7281804 4.2321987 1.6890798 73.5
-2.507498 4.4881058 1.7446858 74
-2.2408473 4.7727909 1.7376322 79
2.6728678 -8.3614855 1.8585774 17
2.6539304 -8.1100035 1.8065799 19
2.7880144 -7.9626083 1.8168684 24
2.8495753 -7.8221388 1.8579782 24
2.9412782 -7.881422 1.826739 23
3.0875556 -7.8754668 1.8400384 20
2.3290095 -7.5276971 1.8617278 22
2.0026183 -7.1219788 1.8290406 14
2.5350435 -7.1716981 1.8567845 23
2.0676091 -6.9157634 1.8542892 19
2.1494212 -7.0368395 1.8361665 21
2.2712038 -6.9785433 1.8387498 23
4.7275262 -7.026072 1.9193505 10
4.5326719 -6.5036135 1.8876568 27
1.8582733 -6.4242716 1.8465008 22
4.1817098 -6.4313626 1.8646511 25
4.2590942 -6.3854599 1.8691877 26
4.3835287 -6.4051323 1.8791553 24
3.3621228 -6.2818923 1.8886749 25
3.7252929 -6.2840428 1.8995918 22
4.347373 -6.1137357 1.8989459 24
-0.16723213 -5.9933629 1.8124224 53
3.4023788 -5.9161224 1.858709 24
3.5433061 -5.8709016 1.8673185 21
3.6496725 -5.9140925 1.8724543 29
-0.58573824 -5.601387 1.806578 3
2.5910931 -5.6142349 1.8734633 28
2.9303219 -5.6585279 1.8767115 29
3.2695143 -5.6878009 1.880361 30
3.585181 -5.6607747 1.8896493 32
2.6672845 -5.4931717 1.8430508 28
2.7529235 -5.4305477 1.8471614 28
2.9437532 -5.4240351 1.8627743 29
5.4885387 -5.5244317 1.9202422 19
-0.4921928 -5.3996911 1.8213662 17
2.8474579 -5.397356 1.8515302 28
2.0930631 -5.107666 1.8392578 25
2.3052032 -5.1544833 1.8681818 33
2.6242816 -5.2177324 1.8648926 33
2.9380639 -5.2487512 1.8749341 28
4.545723 -5.1182351 1.9155513 24
5.5189662 -5.1920967 1.9441255 23
1.9825716 -5.0636029 1.862784 33
2.1843066 -5.0415921 1.8432037 32
2.3223181 -5.0005579 1.8503662 33
5.5782447 -5.0405679 1.9455131 24
6.1410203 -4.9910975 1.9415118 1
6.1502924 -5.0213661 1.8228074 35
2.0933945 -4.8202324 1.8590566 33
2.3944647 -4.8848796 1.8646258 34
4.6389275 -4.8597517 1.9259275 20
5.319922 -4.8105955 1.9434174 22
5.4542041 -4.8026695 1.9342219 25
5.9077711 -4.8155537 1.9432596 25
6.2048221 -4.9355497 1.9026145 11
1.5983623 -4.7513881 1.8359698 35
1.7484386 -4.7108002 1.8522403 37.5
3.7417347 -4.7178264 1.8936182 28
4.7460136 -4.7599306 1.9317368 27
5.129118 -4.6633162 1.9333926 23
5.7388754 -4.6755223 1.9414915 25
6.4448242 -4.7095609 1.8431882 30
6.4520464 -4.6883445 1.923072 6
1.4942142 -4.6015205 1.8554555 41
1.8716308 -4.6160874 1.851312 43
3.8896348 -4.5412025 1.9018177 27
4.5624418 -4.5869832 1.9259993 19
4.6849475 -4.5747495 1.9180933 23
5.0015912 -4.563756 1.9268295 22
6.6530385 -4.5004683 1.8886241 24
0.00037319661 -4.4282126 1.8109485 62
1.1688892 -4.4026446 1.8215314 43
1.2776511 -4.3561802 1.829121 44
1.6439636 -4.4598417 1.8507093 41
3.1004331 -4.3892016 1.8904527 33
3.8944156 -4.3554616 1.9037329 27
4.0196595 -4.4722743 1.9070743 27
4.3464875 -4.4412246 1.9186198 16
4.4308071 -4.4927273 1.9199818 21
5.3248668 -4.4098487 1.9352056 24
-0.046349481 -4.304883 1.8181423 56
0.05586211 -4.2760053 1.8127826 58
1.4075316 -4.320704 1.8445697 49
1.5286093 -4.2579379 1.8489815 50
3.2842352 -4.276237 1.89531 33
3.430028 -4.2359605 1.8998898 32
3.7298996 -4.2783904 1.8979992 27
3.7903912 -4.2934909 1.8960553 33
4.0012622 -4.3355312 1.8943342 27
4.6791081 -4.2714338 1.9259881 29
-0.073109239 -4.1114159 1.8226548 55.5
0.80157584 -4.1021185 1.8196195 57
0.91818184 -4.053215 1.8210512 54
1.0922228 -4.1973329 1.8472136 48
1.2629055 -4.1418324 1.8470463 52
2.5540035 -4.0788822 1.8802601 38
3.2238679 -4.1243 1.888396 32.5
3.38854 -4.1454263 1.8923504 32.5
4.0713344 -4.1041679 1.9005078 28
6.9152579 -4.1544466 1.9468585 13
-0.48109537 -3.9793603 1.8024336 56
-0.32638207 -3.9518561 1.800805 53
-0.23723991 -3.9607918 1.8218179 52.333332
1.0167534 -4.0035963 1.8340187 54.5
1.1495035 -3.9932141 1.8403623 54.5
2.7553349 -3.9880817 1.8876667 39
2.9089715 -3.9761858 1.8915604 39
3.555156 -3.9597337 1.8891162 34
-0.29304743 -3.8108366 1.821988 51
0.48088658 -3.8179812 1.8176256 58
0.60287964 -3.7767541 1.8175 55
0.75519949 -3.8377607 1.8399945 34
0.93217891 -3.8421826 1.836763 23
2.097404 -3.8017247 1.8752252 48
2.3098681 -3.7860162 1.8750654 44
2.4416351 -3.7791133 1.8801954 45
3.1114738 -3.8329182 1.8915602 37
4.5320878 -3.8044405 1.9404796 28
-0.70194209 -3.6467245 1.8011857 54
-0.5048421 -3.6526818 1.8162845 52
-0.36677244 -3.6775255 1.814142 56.5
0.70949936 -3.7153783 1.8285197 53
0.84075415 -3.7167678 1.8268404 45.5
1.8893671 -3.6333058 1.8637959 49
1.9614918 -3.603173 1.8690966 52
2.5057561 -3.7455711 1.8739387 40
2.6890268 -3.6776872 1.8781079 38
3.9298217 -3.6609476 1.9389638 32
-0.48478785 -3.5264008 1.8199705 53.5
0.20155759 -3.5599484 1.8190545 53
0.33078623 -3.5301702 1.8200437 55
0.49309707 -3.5051553 1.8294477 56.333332
0.62626046 -3.5309482 1.8317169 52
1.5373175 -3.4644299 1.8566872 54
1.7035558 -3.5410998 1.866443 53
1.9149692 -3.5591078 1.8709635 53
2.0562806 -3.5850999 1.8731166 51
2.1235342 -3.5644026 1.8694726 50
2.316539 -3.5332251 1.8708531 48
3.385478 -3.4960968 1.9274703 32
4.4146004 -3.4963779 1.9385183 29
4.9258561 -3.5767205 1.9339355 27
-1.0593727 -3.3473651 1.8040344 50
-0.64366978 -3.3159056 1.8200568 49
-0.56191111 -3.39079 1.8143007 62
-0.045231123 -3.301753 1.8123153 55
0.419478 -3.3754339 1.8359635 53.5
1.3680135 -3.3029625 1.8617018 23
1.5901008 -3.3814447 1.8581005 49.5
1.73771 -3.3959014 1.8654753 52.666668
1.9838078 -3.3939786 1.8687302 54
2.903455 -3.3265319 1.9126893 43
3.4550352 -3.3006372 1.9269446 30
3.8278201 -3.3929906 1.9221491 33
3.943002 -3.4080088 1.9391981 31
4.6149497 -3.3264091 1.9338309 32
5.1712317 -3.354543 1.9456028 16
-0.66131389 -3.2195578 1.8145131 56
0.089130327 -3.2895517 1.8161589 53
0.2204987 -3.2231591 1.82761 58
0.34161806 -3.2585955 1.8254789 57
1.2643586 -3.2305138 1.8515002 46.666668
1.4346775 -3.2206209 1.8598124 26
1.6705054 -3.2392716 1.8549019 54
2.4883397 -3.1636224 1.9027854 45
2.9416125 -3.1612973 1.9027702 35
3.0234869 -3.1916273 1.9187959 35
3.3576591 -3.2773488 1.9114584 33
3.6644602 -3.2296357 1.9243623 31
3.935991 -3.158206 1.9332589 32
4.1153765 -3.2835867 1.9273731 32
4.3976436 -3.1948533 1.9422184 31
4.8950109 -3.2099283 1.9490243 27
-1.0600357 -3.0665481 1.8000773 43
-0.79449081 -3.0087597 1.8133913 56
-0.70122814 -3.145978 1.8085719 63
-0.2635476 -3.0654149 1.8097471 59
-0.12465988 -3.0609145 1.8125621 56
0.059213787 -3.0464225 1.8188449 66.5
0.16718757 -3.0749793 1.8240174 59.5
0.98292923 -3.1131313 1.8483673 53.5
1.1239171 -3.0661733 1.8561802 58
1.20271 -3.047127 1.8538738 54
1.3924651 -3.0963848 1.8488034 52
2.1226888 -3.0014563 1.8929724 50
2.6057754 -3.0602453 1.9042809 45
2.77811 -3.0071733 1.8963341 42
2.8514202 -3.0616703 1.9008425 44
3.1088657 -3.0391779 1.9060239 35.333332
3.2300432 -3.1430542 1.9066347 36
3.4346821 -3.0288122 1.9072448 32
3.5153983 -3.1052406 1.9157562 22
3.8267024 -3.0320191 1.9194487 31
3.9482353 -3.143743 1.9217604 31
4.1213708 -3.0325072 1.9433485 32
4.2313433 -3.0094869 1.9291946 24
4.3892159 -3.14814 1.9274858 32
4.8626027 -3.1344407 1.9355839 27
5.3678341 -3.0936732 1.9457871 27
-0.83221537 -2.9481926 1.8269233 36
-0.31549153 -2.8515098 1.813965 61
-0.18144211 -2.8533556 1.8178583 59
-0.023770753 -2.8709035 1.8247629 67
0.021989416 -2.9551075 1.8303992 63.5
0.67661905 -2.9595199 1.8375043 57
0.82329148 -2.8978434 1.8429431 59.666668
0.96800828 -2.9023182 1.8452214 57.666668
1.1408336 -2.9558036 1.8447388 54
2.0828023 -2.8583913 1.8744515 51
2.1835184 -2.8807285 1.8820256 49
2.3385673 -2.9365392 1.8917414 47
2.4546921 -2.923866 1.8891587 48.333332
2.7386761 -2.9678397 1.897857 42
3.1949306 -2.8679037 1.920067 39.5
3.5326941 -2.869072 1.9178971 35.5
3.636935 -2.9577699 1.929762 34
3.8876145 -2.8939424 1.9390367 29
4.0065007 -2.9263933 1.928039 32
4.2660255 -2.8834853 1.9447838 21
4.4764457 -2.9547567 1.9279631 30
4.6476331 -2.9592621 1.9369456 26
5.0412169 -2.9268999 1.9398643 26.5
-0.92865473 -2.7233477 1.8144145 50.5
-0.45647275 -2.8421962 1.8090636 61
-0.15864195 -2.7091525 1.8295132 65
-0.10752963 -2.7962248 1.8260092 61.5
0.44491553 -2.798053 1.8349909 64
0.55238855 -2.7695496 1.8364035 55
0.68323511 -2.7232833 1.8475573 56.25
0.77801877 -2.7798069 1.8449401 59
0.91152257 -2.8163667 1.8387009 63
1.5275071 -2.7001688 1.8602358 54
1.8596147 -2.7981443 1.8797849 28.4
1.9648025 -2.8175991 1.8854069 46
2.1260388 -2.7851002 1.8851489 46
2.2789032 -2.7286975 1.8933326 48
2.5540297 -2.7760913 1.8968607 44
2.8079464 -2.7484701 1.9064267 44.5
2.8606722 -2.8267813 1.9093672 41
3.2281353 -2.7484179 1.9184597 37
3.6770971 -2.7341719 1.9340087 32
5.4970045 -2.7664685 1.9491459 19
-0.99821323 -2.6491623 1.8062372 60.666668
-0.62919223 -2.6294868 1.8097209 57
-0.48550072 -2.6476731 1.8124419 54
-0.34865651 -2.6612921 1.8178419 59
-0.20624758 -2.6691964 1.8226858 63
0.23569401 -2.641022 1.8342966 63
0.35091102 -2.6199775 1.8362092 61
0.52558011 -2.5844684 1.8418328 59.400002
0.70453578 -2.6838589 1.838071 60
1.3104215 -2.5985656 1.8596363 55.5
1.4226948 -2.56743 1.8692695 57
1.5838304 -2.6580892 1.8711011 51.75
1.7075319 -2.6553061 1.8742843 52.333332
1.8575838 -2.699286 1.884606 21
2.017132 -2.6697159 1.8890959 22
2.1554208 -2.5714672 1.8884193 48
2.467279 -2.6516562 1.8950039 46.5
2.6359758 -2.5775313 1.9010382 45.5
2.9619007 -2.6370783 1.9126042 39.5
3.3213482 -2.6592455 1.9139551 35
3.6943765 -2.6847944 1.9227091 32
4.0992274 -2.6954374 1.9344212 31
4.5252733 -2.6809874 1.9420131 31
4.9763098 -2.6411567 1.9478348 25
-1.1174191 -2.4275939 1.8067021 60
-1.042115 -2.4793041 1.8146818 56
-0.78142977 -2.4204237 1.8051685 57
-0.6366418 -2.4504814 1.8104423 62
-0.49904335 -2.4740548 1.8161131 66
-0.33606863 -2.4988272 1.8249753 66.400002
0.044824582 -2.4837701 1.832914 66
0.2227996 -2.4652941 1.8382807 61
0.3763552 -2.4497073 1.8431011 65
0.83821267 -2.4180787 1.8492879 59
1.0987567 -2.4659185 1.8586332 58.25
1.2546545 -2.4729521 1.8669479 60
1.3671874 -2.4931459 1.8632997 50
1.535792 -2.521138 1.8703641 53
1.8919625 -2.455389 1.8801394 53
2.0722837 -2.446245 1.8880012 21.5
2.1872246 -2.470541 1.8882926 21.5
2.3212376 -2.4871626 1.8876785 42.666668
2.4604809 -2.4451931 1.8959085 44
2.5554683 -2.4723217 1.8878053 43
2.7892971 -2.4864917 1.8983637 44
3.0923471 -2.5062494 1.9084468 38.5
3.3564508 -2.5126398 1.9229521 35
3.464812 -2.5067947 1.9120232 35
3.6903791 -2.5072024 1.9310607 30
3.7920339 -2.4830132 1.9162494 32
4.0467401 -2.4865139 1.9420103 29
4.1494789 -2.4482727 1.9282078 31
4.4141583 -2.4413652 1.9492677 29
7.2003694 -2.5442383 1.8405756 27
-1.3008482 -2.3796437 1.800285 63
-1.1332238 -2.2639461 1.8197459 62
-0.77174264 -2.2572551 1.8036247 59
-0.63398415 -2.28985 1.8086871 66
-0.49138618 -2.3043175 1.816605 65.333336
-0.43832305 -2.3164287 1.8238825 63
-0.063971505 -2.3224175 1.8297161 66
0.11646427 -2.3132732 1.8354305 64
0.21406417 -2.2990384 1.8386281 68.800003
0.68265331 -2.2990768 1.8496758 62.5
0.82654649 -2.2602487 1.8601146 60
0.97270399 -2.3323059 1.8603681 57
1.1418427 -2.3832636 1.8641363 56
1.4282246 -2.2549829 1.8711759 65
1.5890926 -2.302505 1.8708611 53.200001
1.7501333 -2.3348031 1.8739313 49.400002
1.8715121 -2.3307829 1.8793031 47
1.9936339 -2.3690474 1.8760148 46.666668
2.179621 -2.3575449 1.8885247 34
2.3508558 -2.3365998 1.895218 17
2.4774365 -2.3968246 1.8801671 41
2.5956233 -2.3460975 1.9042283 45
2.7893047 -2.3675675 1.8963816 41.5
3.0571086 -2.3552337 1.9054509 40.5
3.297833 -2.3639956 1.9110686 37
3.3827922 -2.3007827 1.9270588 38
3.579423 -2.3167 1.9170853 38
3.6849425 -2.2714827 1.949649 11
3.8694456 -2.2538176 1.926284 31
4.5113401 -2.3864007 1.9356419 28
4.8899198 -2.3034544 1.9466769 24
7.0659857 -2.3989577 1.8303572 25
-1.5598894 -2.1106572 1.8014845 29
-1.2437849 -2.2116394 1.8056289 67
-1.1652 -2.2362168 1.8123209 62
-0.91694623 -2.2191596 1.8003641 58
-0.75546169 -2.1234105 1.8119601 65
-0.62522662 -2.1406007 1.8171135 67.5
-0.56678933 -2.1317699 1.8236843 66
-0.21693017 -2.1734738 1.8271377 62.5
-0.030891795 -2.1721745 1.8308865 65
0.06797187 -2.152849 1.8335747 66
0.50379121 -2.1912029 1.8457439 64.5
0.65201604 -2.1221273 1.8576391 66.199997
0.80997282 -2.2142727 1.8637323 63.25
0.96083909 -2.1120787 1.857437 60
1.1663055 -2.1462994 1.8628443 54
1.2734798 -2.1695392 1.8678588 56.5
1.4080358 -2.2113433 1.8692768 54
1.5164881 -2.2302911 1.870391 52
1.6789747 -2.2467577 1.8737782 50
3.9420969 -2.1964679 1.941687 28
4.1527424 -2.1674776 1.9298221 27
4.2297444 -2.1193969 1.9489311 27
6.7728219 -2.1416552 1.8566347 22
-1.36155 -2.0262077 1.8077248 29
-1.2594713 -2.0227666 1.807963 49.5
-1.0386393 -2.0335491 1.8020161 63
-0.87878633 -2.0187659 1.8053143 63
-0.7084747 -1.9684695 1.8175772 70.5
-0.42350656 -2.0137527 1.8169273 67
-0.22721785 -2.0328574 1.8249909 69
-0.062222172 -2.0233312 1.841885 44.599998
0.1350496 -1.9846663 1.8390678 73
0.26527199 -2.0279307 1.8402594 64.5
0.41795743 -2.0362668 1.8461072 60.5
0.50569141 -2.0100148 1.8550017 66
0.62433982 -2.0253091 1.848897 61
0.81930953 -1.9913071 1.85175 59.5
0.98722857 -2.0356705 1.864298 61.285713
1.1074611 -2.0840957 1.8640493 56
4.4492154 -2.0691144 1.9420933 22
6.6698446 -2.0506144 1.8703953 22
-1.8572448 -1.9092394 1.8000804 60
-1.2996161 -1.8377221 1.8144522 27
-1.1482335 -1.8493189 1.8037938 26
-1.0044056 -1.9075191 1.80466 60
-0.83375084 -1.8212358 1.8115537 73
-0.64996636 -1.9491206 1.821056 66
-0.55032116 -1.8632811 1.8143407 80
-0.41618353 -1.8946011 1.8272866 69
-0.19908415 -1.8834099 1.8294473 83
-0.0068371473 -1.8714706 1.8384622 71
0.10426991 -1.8542593 1.8407718 72
0.22465897 -1.8193201 1.8468872 74
0.35676488 -1.9000171 1.8490332 68.833336
0.51993525 -1.8315735 1.8462831 66
0.68472272 -1.8746549 1.8542266 63.5
0.81952953 -1.9228168 1.8585736 63
-1.5243329 -1.6613638 1.801612 74
-1.1050187 -1.7396191 1.8080202 26
-0.94277132 -1.7394083 1.8032888 71
-0.7759248 -1.792395 1.8170643 77
-0.70314908 -1.7510151 1.8231802 74
-0.51514453 -1.701093 1.8239022 76.5
-0.35436511 -1.7388844 1.825695 83
-0.26738343 -1.7440356 1.8342654 81.666664
-0.080593951 -1.749445 1.8365619 76.5
0.090661749 -1.6971587 1.8451307 75
0.22580983 -1.7300843 1.8443931 74.166664
0.37993595 -1.7234675 1.8431904 73.800003
0.52883506 -1.7358696 1.8518515 72.800003
0.63341725 -1.7774497 1.8506018 84
-1.4274002 -1.627859 1.8069934 70.666664
-1.347494 -1.6457343 1.8109735 75
-1.0563196 -1.6416413 1.80858 28
-0.96530855 -1.597477 1.8109931 44.5
-0.82722402 -1.6141808 1.8183126 76.5
-0.63346559 -1.6152544 1.8202146 78
-0.53265554 -1.5320201 1.8281116 79
-0.38412896 -1.5943754 1.8340485 82.800003
-0.22160399 -1.5603591 1.8372626 87
-0.059845958 -1.5731704 1.840127 78.14286
0.078607462 -1.5842992 1.8462934 76
0.22566961 -1.5646344 1.8408217 77.166664
0.35545957 -1.5852526 1.8457774 77.25
0.46095783 -1.642267 1.8506516 72
6.2311254 -1.6334438 1.9147228 31
-1.9426813 -1.4744046 1.8012029 59
-1.5708497 -1.4590633 1.8025697 74
-1.4409809 -1.4547977 1.807539 77.666664
-1.3035848 -1.4505668 1.8042384 72
-1.109171 -1.4466976 1.8071513 76
-0.96065706 -1.4880255 1.8206787 31.333334
-0.85594624 -1.41456 1.8242059 30.333334
-0.67594332 -1.4245415 1.8227077 76.666664
-0.50626028 -1.4355028 1.8314161 80.199997
-0.3824771 -1.4322639 1.8364929 79
-0.22613651 -1.4056169 1.8423086 76
-0.079571731 -1.4288929 1.8427231 76.375
0.084136963 -1.4275012 1.842997 73.199997
0.21143778 -1.4295214 1.8479367 85.5
-1.6620171 -1.3234696 1.8021547 71
-1.5727415 -1.2558784 1.8042716 72
-1.4486259 -1.2966191 1.8078769 71.333336
-1.2809117 -1.2943485 1.808206 69.5
-1.114603 -1.3049297 1.8109245 77
-0.97546208 -1.3147115 1.8199902 75.25
-0.82441503 -1.2475358 1.8252275 55
-0.66725212 -1.2645738 1.8321084 36.5
-0.54425246 -1.2944105 1.8368411 70.75
-0.37160996 -1.263346 1.8364273 75.166664
-0.22030532 -1.2718154 1.8444835 70.222221
-0.082505986 -1.2868139 1.8456135 66.333336
0.071817115 -1.2897744 1.8454338 75
5.7857351 -1.2138728 1.9392325 28
-1.6907096 -1.1142985 1.8046254 75
-1.5619645 -1.1042197 1.8093525 72.5
-1.4614353 -1.121363 1.8103753 67.666664
-1.247663 -1.1624656 1.8098447 72
-1.1160417 -1.1906567 1.8157835 75.5
-1.0052781 -1.1441503 1.8223407 82.25
-0.78689688 -1.1331961 1.8268074 93.666664
-0.65462518 -1.1162128 1.8304564 39.75
-0.5218634 -1.1368532 1.8307949 41.799999
-0.35828239 -1.1189053 1.8354994 65.85714
-0.24054447 -1.1246369 1.8377453 58.400002
-0.081900284 -1.1343393 1.8478353 64.800003
0.012742323 -1.1809708 1.8516458 65
-1.7779388 -0.9969452 1.8018183 76
-1.5661789 -0.95236325 1.8087395 72
-1.4700971 -0.93438792 1.8075699 72
-1.273203 -1.0302497 1.8132902 74.333336
-1.1277761 -0.97865552 1.8204257 85.400002
-1.0057578 -0.96285564 1.8219218 81.333336
-0.81933057 -0.99354142 1.8248888 92.199997
-0.68341386 -0.98626387 1.8238876 76
-0.53570509 -0.96492845 1.8254598 69.5
-0.38444498 -0.97792721 1.8303808 57.099998
-0.20393251 -0.97128671 1.8351049 46.166668
-0.11498536 -0.99984592 1.8372127 41
5.505198 -0.94927323 1.8015288 25
-2.025135 -0.89046341 1.8005773 67
-1.8282144 -0.83559877 1.800604 77
-1.6843433 -0.82383198 1.8049562 78.5
-1.5681124 -0.79542595 1.8113391 73.5
-1.4261258 -0.82827765 1.815734 77.5
-1.2789674 -0.82076377 1.8205972 81.75
-1.119815 -0.81909245 1.8247454 88.199997
-0.95382118 -0.77395034 1.8178169 82.333336
-0.8250584 -0.82341671 1.8227379 75.875
-0.66395992 -0.82736301 1.8276585 78
-0.52059674 -0.81999856 1.8307528 71.333336
-0.35786036 -0.83037108 1.8352855 56.714287
-0.23824996 -0.83186358 1.8344148 53
-1.7407974 -0.71917164 1.8057336 79
-1.6094811 -0.63910568 1.8211402 51.5
-1.4367553 -0.6718564 1.8183621 77.5
-1.2693512 -0.64915031 1.8203734 87.333336
-1.1536971 -0.64724714 1.8177605 72
-0.97578681 -0.65394014 1.8218549 80.25
-0.82678103 -0.64397669 1.8271064 81.75
-0.68767112 -0.67881066 1.8283547 82.14286
-0.5338673 -0.6719535 1.8302628 76.125
-0.4112986 -0.68325067 1.8331333 72.400002
-0.27999559 -0.70655793 1.837104 62
-1.680275 -0.51470524 1.8127416 72.666664
-1.580125 -0.47731102 1.8187814 77.666664
-1.4152342 -0.50706697 1.8173236 76
-1.2531983 -0.5184291 1.8145314 75.333336
-1.1400912 -0.53314322 1.8165909 72.666664
-0.97595173 -0.53785259 1.8223929 81.5
-0.80245608 -0.51581204 1.8258475 82.5
-0.67174524 -0.52298355 1.8276678 80.333336
-0.53910643 -0.53332841 1.8324687 78.85714
-0.37666506 -0.54808414 1.835156 74.75
-1.7052869 -0.3524892 1.8139315 55.666668
-1.6057415 -0.32590184 1.81625 84.666664
-1.4453799 -0.32122844 1.8216546 93
-1.2633514 -0.39356738 1.8176283 82.25
-1.1365299 -0.35303336 1.8210125 75.25
-0.98223108 -0.37033218 1.8224733 79
-0.8342095 -0.39576831 1.8253311 80.571426
-0.68537408 -0.36838037 1.8296083 78.875
-0.52012688 -0.38670725 1.8357695 78.14286
-0.40556291 -0.38556361 1.8396595 75
-2.144546 -0.188554 1.8003038 81
-2.0322511 -0.18936233 1.803875 83.5
-1.8230813 -0.20244648 1.8115326 84
-1.701357 -0.15536231 1.8175699 83.666664
-1.5821134 -0.18592764 1.8219947 89.333336
-1.4152082 -0.16710433 1.8234597 95
-1.293873 -0.2246805 1.8185197 82.333336
-1.1401279 -0.22387633 1.8219699 79.75
-0.97932637 -0.20702973 1.8223661 79.199997
-0.81307364 -0.23309132 1.8284 77.5
-0.67697042 -0.23722513 1.8330327 78.285713
-0.53921497 -0.20971802 1.8380803 74.14286
-0.43817404 -0.26566118 1.8371133 77
-2.1591749 -0.10470334 1.8022958 81
-2.025696 -0.0253594 1.8046502 82
-1.8380994 -0.028860712 1.8107978 89
-1.7254148 -0.051819298 1.8164351 87.5
-1.6006068 -0.041021589 1.8210211 86.666664
-1.3962569 -0.015596676 1.8215518 92
-1.2784374 -0.062875025 1.8204162 83.75
-1.1165171 -0.086135067 1.8226471 81.599998
-0.97236437 -0.069177352 1.8222796 80.666664
-0.81788903 -0.077819124 1.829276 76.5
-0.6839937 -0.063863434 1.8356756 78.400002
-0.54077679 -0.066728219 1.839776 75.666664
-2.8715694 0.12748314 1.8985406 12
-2.7645156 0.13266891 1.8914064 67
-1.8449219 0.14522964 1.8097597 88
-1.7401146 0.027340585 1.8128481 79.666664
-1.6171452 0.10638494 1.8241345 88
-1.3878664 0.11133144 1.820676 93
-1.2427523 0.066374257 1.8226004 76.400002
-1.1115602 0.068401165 1.8266391 82.333336
-0.94952506 0.088651396 1.8279805 82
-0.8432014 0.061170928 1.8315035 78.444443
-0.66037858 0.078926042 1.8373419 83.714287
-0.53967869 0.06652572 1.8391852 77.75
-4.3711224 0.28554988 1.8593658 72.5
-4.2830291 0.25856727 1.8581668 73
-3.3705938 0.19913447 1.8723888 90.5
-3.2047391 0.21487953 1.8774239 79
-2.9301615 0.2413106 1.8822788 73
-2.2793846 0.19876771 1.8069311 84
-2.1236501 0.1661794 1.8021387 82
-2.0812764 0.1617973 1.8040975 12
-1.7234221 0.20314665 1.8178183 83.199997
-1.6095293 0.24098325 1.8252213 82.5
-1.3943354 0.25801963 1.8291183 96.333336
-1.2774688 0.22424541 1.8246585 82.5
-1.1477129 0.22229031 1.8266838 76.400002
-0.96115988 0.22717933 1.8280672 76.666664
-0.82034534 0.22400212 1.8399887 60.777779
-0.67810547 0.23665316 1.8404874 65
-0.56092572 0.22879528 1.8388124 80.333336
-4.0663085 0.32845053 1.8417534 68.666664
-4.0094523 0.30739486 1.8652121 91
-3.8459918 0.37261957 1.8729621 85.5
-3.6786964 0.41508579 1.8763509 84.333336
-3.5400646 0.43644768 1.8738469 74
-3.3973024 0.44984403 1.8759593 83
-3.08009 0.42259556 1.8779498 81
-2.9402819 0.36198646 1.8845726 71
-2.7682521 0.3367416 1.8908629 79.666664
-2.6816072 0.37176725 1.8960286 82
-2.2126191 0.37860668 1.8031372 79
-2.0812297 0.32753724 1.8085252 87.5
-1.6933457 0.35912612 1.8171153 63.666668
-1.6113029 0.39015967 1.8228439 78.5
-1.3908514 0.40635803 1.8289984 91.333336
-1.2771168 0.38163674 1.8248819 83
-1.1263423 0.38147277 1.8268592 75.800003
-0.97552139 0.37168369 1.8290584 74.199997
-0.83650362 0.37564322 1.8311203 74.400002
-0.67838067 0.38121739 1.8356009 79.199997
-0.56829059 0.39211559 1.8389595 78
-4.7450914 0.56731081 1.8539588 71.5
-4.3498106 0.58465374 1.8599864 74
-3.4336114 0.46419942 1.8770384 83
-3.2547803 0.46018898 1.8772937 80
-2.9402971 0.48418382 1.8842028 70
-2.7897508 0.56267881 1.8894173 77.333336
-2.6796167 0.58688599 1.896315 81
-2.452692 0.54868358 1.8956772 80
-2.2965558 0.59937119 1.8838335 110
-2.1028836 0.49896127 1.809188 87
-2.0708501 0.50933659 1.8049582 91
-1.8445699 0.50250787 1.8101577 96
-1.7765317 0.55252266 1.8181268 90
-1.5997624 0.53524983 1.8206986 1
-1.4020314 0.58633822 1.8334188 92.5
-1.2912954 0.51520509 1.8292545 88.75
-1.1322646 0.53003216 1.8326743 83.5
-0.93833917 0.53686684 1.8338079 76.833336
-0.81791967 0.51549923 1.8328587 72.571426
-0.68026805 0.51962131 1.8359326 76.25
-0.54762262 0.52785963 1.8397721 72.833336
-4.4444752 0.62332928 1.8636912 72
-4.1446953 0.6399073 1.8660877 78.75
-3.9286091 0.67450541 1.8716196 78.666664
-3.787329 0.67893159 1.876459 74.5
-3.7128642 0.69610274 1.8763734 77
-3.5345192 0.72704524 1.8814082 79
-3.3791313 0.71920121 1.8797311 78
-3.0564327 0.6527136 1.8827965 77.5
-2.9338188 0.67007494 1.8885254 71.5
-2.3654201 0.62526619 1.8979352 79.5
-2.1791964 0.67575109 1.8530257 150
-1.8330212 0.68600106 1.8089417 94
-1.7217467 0.67130488 1.8189417 80.800003
-1.6238165 0.70820987 1.8217827 91
-1.3695211 0.73644036 1.8339292 86
-1.2823596 0.65868556 1.8348533 88.25
-1.1440297 0.67333519 1.8363549 85
-0.99494725 0.67787868 1.8284383 72.333336
-0.82394779 0.66726333 1.8351929 74.599998
-0.6919328 0.68808544 1.8374975 74.333336
-0.53763586 0.67443413 1.8448191 73
-0.44205159 0.7403872 1.8445288 80
-2.8982706 0.84320319 1.8893236 63
-2.7912383 0.78213495 1.8926331 81
-2.6741431 0.80609375 1.8966092 79
-2.4519932 0.77688968 1.8975068 87
-2.326941 0.81908011 1.9003466 78
-2.177496 0.87226582 1.8499954 80.5
-2.0464704 0.8695029 1.8073505 80
-1.8161258 0.87371898 1.8088986 87
-1.6825796 0.80120945 1.8176185 47.666668
-1.4006437 0.75042641 1.8343691 3
-1.2643671 0.80460143 1.8356502 83.5
-1.117915 0.8290453 1.8400998 85.666664
-0.97213334 0.81069607 1.8363544 91.666664
-0.82511705 0.82432961 1.8363248 73.666664
-0.67372906 0.83668315 1.8401349 71.14286
-0.51967734 0.83147907 1.8438469 72.75
-0.41875702 0.83701169 1.8496281 80
-4.8803124 0.96383768 1.8511215 65
-4.7588882 0.9163056 1.8493844 69
-4.54563 0.97182411 1.8632466 74
-4.4600124 0.9547503 1.8668226 75
-4.2371774 0.98288375 1.8660808 70.333336
-4.1314821 0.92916441 1.8679734 81
-3.9945557 0.98665839 1.8749765 73.666664
-3.8312085 0.98541695 1.8807631 68.333336
-3.6853185 1.0119703 1.880232 70
-3.5351632 1.0127548 1.9002305 91
-2.8052578 1.0232531 1.8924935 81
-2.6681359 1.032398 1.8997852 85
-2.4433162 1.0114939 1.8966926 83
-2.1574576 0.9829275 1.8044356 76
-1.2302114 0.9067086 1.8383421 62
-1.1459569 0.98556155 1.8369826 54.333332
-0.96038365 0.93920469 1.8395505 84.25
-0.81289452 0.97955251 1.8463391 89.5
-0.67430025 0.9708305 1.8474278 84.333336
-0.53137422 0.97102493 1.8478905 80
-0.39495358 0.99633974 1.8514748 77
-2.8804452 1.0790732 1.8880569 76
-2.1452639 1.0853164 1.8124012 65
-1.5549376 1.1417024 1.8189973 45
-1.2857344 1.0936285 1.8353204 79.75
-0.98842311 1.1090215 1.8385473 58
-0.83171046 1.1078336 1.8435968 81.25
-0.66502339 1.1194685 1.8490857 79.875
-0.51464087 1.128455 1.8523941 81.333336
-0.396236 1.1362591 1.859738 77
-3.9244921 1.2452337 1.8725139 60
-2.9284947 1.3011993 1.8898941 85.5
-2.8174162 1.2760401 1.8933948 86.5
-2.6546702 1.2657585 1.8980309 64
-2.3376713 1.2010007 1.8013068 81
-1.7060866 1.2944043 1.8288273 52.5
-1.6084433 1.2917442 1.8287436 86
-1.4751647 1.3254324 1.8302504 84
-1.2622648 1.2564117 1.835493 80.666664
-1.1509397 1.2613964 1.8396963 79.5
-0.92457438 1.2138462 1.8417951 68
-0.81406707 1.2747593 1.8431988 71.800003
-0.68091166 1.2679496 1.8485845 75.599998
-0.53188682 1.2857503 1.8528286 75.428574
-0.38644913 1.2675914 1.855967 70.666664
-0.28533918 1.2902291 1.8588899 67.5
-3.0662239 1.447251 1.8881696 75
-2.9757595 1.3949182 1.8874484 74
-2.6904049 1.4594405 1.8048416 35
-1.7023178 1.4632306 1.8281802 69
-1.5849938 1.4758921 1.8310434 73.333336
-1.432976 1.4982263 1.8320566 72
-1.2399225 1.4038366 1.832299 77
-1.1165594 1.430198 1.8352487 75.800003
-0.95929784 1.4225427 1.8428859 71
-0.69109952 1.4378111 1.8383538 60.400002
-0.54878557 1.4237715 1.8473679 73.25
-0.40297776 1.4193252 1.8535174 72.714287
-0.21942157 1.4189407 1.8495475 64.25
-3.6064422 1.6333815 1.8852831 71
-3.5385556 1.5961356 1.8886664 73
-3.1178751 1.5482538 1.8866605 84
-2.9516995 1.5405228 1.8947929 61
-1.6086102 1.5973269 1.8355603 74
-1.2023287 1.5847541 1.8705541 28
-1.1161362 1.5995562 1.8361472 71.25
-0.97973746 1.5947709 1.8411336 71.333336
-0.63836133 1.5461581 1.8410149 62.5
-0.50100797 1.5637752 1.8515464 73.666664
-0.36238 1.5601002 1.8509334 76.666664
-0.28812361 1.5239632 1.8544148 71.5
-3.7324779 1.6788021 1.883397 66
-2.2692881 1.7864256 1.8243452 26
-2.1926255 1.7370042 1.8295654 38
-2.010756 1.6801219 1.8260647 79
-1.6734163 1.7068758 1.8301972 73.5
-1.580323 1.7218478 1.8323061 69
-1.4330988 1.6833843 1.8320541 71.5
-1.1166222 1.7687933 1.8396623 65.5
-0.99572229 1.7551185 1.8448037 48.333332
-0.47439191 1.7234035 1.8402058 60
-0.39724955 1.6666367 1.840951 50
-3.6337802 1.9370954 1.8884159 78
-3.5498185 1.9249913 1.8924552 70
-2.1798148 1.8829343 1.8257409 70
-2.0257385 1.9242909 1.8238415 72
-1.9110818 1.8937136 1.8261203 71
-1.5767866 1.8959513 1.8333801 70.599998
-1.4240068 1.8898891 1.8323148 71
-1.3282315 1.8642137 1.8343965 68
-1.0549196 1.9261307 1.8398849 64
-1.0038345 1.8550997 1.8387972 45.333332
-3.7818122 2.0437286 1.8846992 63
-3.6585796 1.9819064 1.8837694 62
-2.266381 1.9850847 1.818071 70
-2.1813517 2.0093765 1.8241824 68.5
-1.5410287 2.0179992 1.8379804 69.5
-1.2629768 2.0617135 1.8368438 57
-1.0208027 1.9947937 1.845194 61
-3.9337769 2.1109352 1.887473 66
-2.492703 2.2473278 1.8218211 64
-2.1651151 2.2026644 1.8245414 69.5
-2.0416856 2.2112446 1.8313714 58.5
-1.9043484 2.1857941 1.8846737 150
-1.5629342 2.1954098 1.8564588 55
-1.4486343 2.1447883 1.8423244 63.25
-4.077693 2.2977805 1.837099 45
-4.0197158 2.3378205 1.8079766 1
-2.811691 2.3991976 1.8138107 70
-2.6470313 2.3183548 1.8165954 73
-2.1776671 2.3189611 1.819374 73.666664
-1.4290265 2.3538883 1.8419639 57
-1.2809166 2.3366213 1.8456064 57
-1.1914083 2.2776623 1.8461996 60
-2.910326 2.4856789 1.8148736 45
-2.1254022 2.449111 1.8217045 69
-2.0337355 2.5164096 1.8208934 79
-1.8701077 2.4251485 1.8374815 73
-1.4557012 2.4461629 1.8419033 62
-2.9195948 2.6226811 1.8138357 60
-2.6246057 2.6552656 1.8234724 68
-2.4686697 2.5623348 1.8309952 77
-2.1477537 2.6012614 1.8238864 71
-2.0992329 2.6650245 1.8270718 70
-1.7416672 2.6522729 1.8301731 71
-1.390501 2.6367328 1.8475857 60
-1.2687758 2.6442096 1.8411454 56
-2.9219117 2.7680614 1.8160895 57.5
-2.7900727 2.7600181 1.8178102 64
-2.0322633 2.8128264 1.8300765 76.5
-1.853954 2.7408826 1.827207 75
-1.3607628 2.7139823 1.8368276 61
-1.3428334 2.7573187 1.8479303 59
-2.9340279 2.8947892 1.8125974 62.5
-2.4287667 2.8955362 1.8319005 73
-2.0928206 2.9175014 1.8305136 67.5
-1.6660807 2.9509375 1.8350428 63
-1.2941899 2.9183931 1.8427252 24.666666
-2.9412713 3.0781126 1.8158705 61
-2.5871391 3.0174236 1.8246425 67
-2.0807505 3.0225554 1.836026 64
-1.7792279 3.070683 1.8370179 70
-3.7387683 3.1683085 1.8160189 10
-2.8877041 3.2453916 1.8185815 59
-2.7567937 3.1531169 1.8202428 66
-2.3841825 3.2679553 1.8352581 66
-2.0347908 3.2074115 1.834576 60.5
-1.8875208 3.18536 1.8315274 62
-1.5731677 3.2689869 1.8341333 67
-2.9297688 3.3380914 1.8197025 62.5
-2.5433693 3.4218125 1.8271302 67
-2.0171483 3.3802426 1.8360401 58.333332
-1.6811658 3.4179442 1.8374215 58
-2.9181211 3.4798744 1.823577 60
-1.9818168 3.559998 1.8373889 52
-1.7882767 3.569813 1.8364967 54
-2.9272656 3.670511 1.8219104 63
-2.723398 3.6054485 1.8294393 66
-2.3328288 3.6927009 1.8427361 63
-1.9306462 3.7092223 1.8390601 55.5
-2.9073682 3.8252461 1.8176312 60
-2.4899309 3.8775208 1.8308102 60
-1.9252933 3.812782 1.8438522 59
-2.9032674 3.9912274 1.8246778 67
-1.9566272 3.9017737 1.8436466 52
-1.9001521 4.0278535 1.8419753 57
-1.6636211 3.9899168 1.8357908 23
-2.6676295 4.1031475 1.829872 59
-2.2598517 4.1588125 1.842085 52
-1.8523873 4.1544318 1.8491234 53
-1.8132503 4.2898149 1.8511311 52
-1.7847122 4.2035079 1.8382336 51
-2.4184072 4.3956819 1.8323451 49
-1.8725591 4.4365859 1.8461257 51
-1.7904044 4.5485387 1.8368407 17
-2.1803567 4.7204022 1.8518478 53
9.5253735 -4.7787156 2.0209608 16
6.0693822 -4.5442252 1.9530147 26
6.1154566 -4.1239185 1.9822515 26
5.2803822 -3.9805448 1.9655956 32
5.6356549 -3.6806326 1.9628903 31
5.8042836 -3.6595988 1.9864842 21
6.3867974 -3.7335813 1.9742738 23
6.5891695 -3.7030771 2.0081496 23
5.1061788 -3.591063 1.9674181 17
5.7946234 -3.3629403 1.9634696 20
6.4803228 -3.3455646 1.9843713 20
5.4591479 -3.2176056 1.9671293 29
6.0676866 -3.1942751 1.9842225 23
7.212956 -3.2822874 2.0027044 23
4.648571 -3.0822132 1.9513279 26
5.2278285 -3.1062927 1.9573501 28
5.9027176 -3.0717585 1.9676529 22.5
6.6911645 -3.1187105 2.0032337 21.5
7.3539162 -3.0100029 1.9993199 16
7.7665176 -3.0829079 1.9559418 2
4.674973 -2.8594415 1.9567615 26
5.6243682 -2.9768386 1.9551231 27
6.2714405 -2.936626 1.9662269 23
6.4951634 -2.932822 1.9811429 20
7.0033512 -2.8662007 1.9890076 20
7.3639059 -2.9865863 1.99359 23
4.1070385 -2.7635467 1.9511403 31
4.5472002 -2.7577684 1.9561652 32
5.065237 -2.7716889 1.9653717 26.5
5.5510478 -2.7408047 1.9770838 20
7.0622849 -2.7800198 1.9891926 19
5.4642868 -2.5760961 1.9586111 18
5.5579967 -2.6850071 1.9807216 18
5.9585366 -2.6379457 1.9672655 21
6.0842538 -2.6272883 1.9960697 20
5.9888439 -2.4826281 1.9744526 20
6.3922319 -2.4643924 1.975891 20
6.5328031 -2.5210452 2.0072453 22
6.748929 -2.4906547 2.0246227 20
4.802959 -2.3770061 1.9597591 24
5.2000651 -2.2842784 1.9680024 26
6.5028491 -2.3390918 1.9781545 17
6.831779 -2.2592676 1.9905251 22
6.9551144 -2.3320816 1.9929267 26
5.2701612 -2.1916008 1.9535388 25
5.6068454 -2.1616764 1.9758321 27
4.5144157 -2.0215337 1.9543067 5
5.6563311 -2.0521386 1.963195 20
6.0365014 -2.0159605 1.990007 22
4.7381635 -1.9474826 1.9503337 23
4.8273873 -1.9136349 1.9713761 23
5.0277858 -1.8074477 1.9616858 24
6.0846229 -1.8948306 1.9869188 18
6.4027562 -1.8182013 1.9822007 32
5.1138263 -1.7765675 1.9778227 23
5.2958026 -1.6417764 1.9681481 25
5.403141 -1.6212903 1.9860264 25
5.5171304 -1.4491534 1.9615349 18
5.7049747 -1.4501123 2.0019643 19
5.7984896 -1.2542187 1.9837073 28
8.6100101 -4.5514255 2.1329076 2
