# .PCD v0.7 - Point Cloud Data file format
VERSION 0.7
FIELDS x y z intensity
SIZE 4 4 4 4
TYPE F F F F
COUNT 1 1 1 1
WIDTH 144
HEIGHT 1
VIEWPOINT 0 0 0 1 0 0 0
POINTS 144
DATA ascii
2.4920716 -6.0875297 -0.8143006 1
1.5571277 -4.273489 -0.77324736 2
1.6821461 -4.2310147 -0.81717098 9
3.0873024 -4.2120237 -0.78295261 3
1.3671714 -4.0687594 -0.76774645 18
1.7628615 -4.1719179 -0.80387264 0
0.95134467 -3.6834221 -0.76934952 0
2.5608428 -3.3466299 -0.7891044 8
2.4777422 -3.165066 -0.78637153 8
3.1614761 -3.0063915 -0.76252109 3
2.3104799 -2.8942397 -0.78009218 10
2.2937667 -2.7080424 -0.78702009 6
1.1788372 -2.6626596 -0.75518602 36
1.2654849 -2.590889 -0.77173042 46.333332
1.6659374 -2.6753962 -0.79198879 5
1.8441341 -2.6594007 -0.78879225 4
2.0665128 -2.6223116 -0.78318202 4.5
1.2927562 -2.5394006 -0.75249577 72
2.0995862 -2.4947376 -0.78616875 4
4.0675707 -2.5047734 -0.76301956 1
1.1150188 -2.2965674 -0.80510068 3
1.2235959 -2.3166659 -0.80144191 4.3333335
2.0269277 -2.35848 -0.78513843 5
1.1609454 -2.2260253 -0.80027682 3
1.2427757 -2.1748304 -0.79721683 4
1.8859196 -2.1586692 -0.7788682 4
3.6305878 -2.2267144 -0.76514632 0
1.1280857 -2.0355287 -0.79711092 9
1.392538 -2.0346298 -0.79531121 11
1.5319656 -2.0165992 -0.78822714 7
1.7192987 -1.9939132 -0.78484344 9.5
1.8609223 -2.0063334 -0.78446406 7.5
1.7462668 -1.8425307 -0.78579098 12
2.7907043 -1.8276523 -0.76235634 9
3.1230659 -1.9058535 -0.75896513 10
1.6393992 -1.7001319 -0.78423756 13
1.6422744 -1.5864625 -0.78760457 14
1.6748447 -1.6455364 -0.78858316 12
2.0939493 -1.6102295 -0.77522403 12
2.6790411 -1.6253107 -0.76282102 8
2.8401949 -1.5278201 -0.75722831 8
2.4028511 -1.3929669 -0.76523674 9
2.6871691 -1.4350905 -0.76422769 10
3.0152016 -1.4118788 -0.76232731 9
2.0822594 -1.3073177 -0.77006358 3
2.3362904 -1.2354255 -0.7686038 4
2.7037642 -1.2562608 -0.76645088 5
2.1384518 -1.0784171 -0.76907361 5
2.383538 -1.093194 -0.76691371 5
2.4981277 -1.1704271 -0.76211584 4
2.7480991 -1.0881773 -0.76488811 5
2.1077256 -0.94885755 -0.77555567 7
2.2566102 -0.90120894 -0.76610845 5
2.4656167 -0.96335047 -0.7691831 6
2.18455 -0.83631718 -0.77097934 6
2.5594709 -0.8294571 -0.76721108 6
2.2876296 -0.72584474 -0.77174884 6
2.40698 -0.61191696 -0.766312 7
2.153266 -0.5277881 -0.77225733 9
2.3150351 -0.42471018 -0.76844442 9
1.4294301 -4.0928278 -0.63939017 7
1.0706534 -3.9062059 -0.72269338 82
1.3032374 -4.0073013 -0.62352061 42
1.14204 -3.867415 -0.69573063 58
1.4897217 -3.8044345 -0.67104059 0
3.8885839 -3.8213837 -0.62334579 0
1.4818105 -3.6189377 -0.69302344 0
1.421858 -3.4950967 -0.74844885 0
2.1870146 -3.172394 -0.72237813 1
2.0957296 -3.0896161 -0.63584656 10
2.2029829 -3.0470264 -0.69906968 7
2.2698386 -3.0062211 -0.69401741 10
1.9388902 -2.9758933 -0.61195254 86
1.1132404 -2.7178378 -0.66334927 40
1.1686066 -2.6700718 -0.68595171 85.333336
1.5399468 -2.5836904 -0.64635068 12
1.3164115 -2.5084457 -0.63384789 90
2.042954 -1.7459439 -0.67455393 96
2.1816778 -1.6027395 -0.66075659 80
2.468163 -1.5495826 -0.65193778 7
4.9434948 -1.5452262 -0.71737468 1
2.4519105 -1.3814148 -0.64999437 0
2.5524998 -1.4058902 -0.69920313 0
5.8428445 -1.4008466 -0.70893812 2
5.8960228 -1.3705825 -0.70708948 1
2.9909554 -1.2532264 -0.6080246 29
3.7046335 -1.2353441 -0.73723108 2
4.1723151 -1.0311196 -0.72643286 1
5.6350389 -1.0483294 -0.61138743 3
3.2476542 -0.85288763 -0.74420041 6
4.9092836 -0.85239708 -0.7137453 0.5
3.6963885 -0.66933572 -0.73235047 5
2.9440503 -0.56288695 -0.74935073 7
1.4106905 -4.0877371 -0.52457607 14.5
1.0256479 -3.9521992 -0.45981106 60
1.0641994 -3.9216866 -0.54202688 82.5
1.2735386 -3.9759388 -0.50707972 42
1.1342741 -3.8650274 -0.53047299 61
1.8663311 -2.9807444 -0.54857534 59
1.9695933 -2.9786923 -0.56124663 39
1.2646871 -2.6293957 -0.52574432 145
1.331985 -2.4802098 -0.46656165 89
1.3973652 -2.4552529 -0.49171638 53.666668
2.498749 -2.394037 -0.48528937 49
6.8132477 -2.1305776 -0.4850907 34
1.9592479 -1.8404326 -0.52031231 92
6.5528359 -1.8815446 -0.45330584 32
2.0423534 -1.7444568 -0.50813931 104
2.111732 -1.7461011 -0.50379074 150.5
3.4726374 -1.7068762 -0.56901276 20
2.1706853 -1.6047863 -0.55621362 90
3.3128819 -1.5614315 -0.46373877 12
6.2120218 -1.5476439 -0.56213415 29
0.095543861 -1.4060854 -0.48048544 0.5
0.15513308 -1.4647149 -0.51406509 1
-0.01615246 -1.3196729 -0.45919582 8
2.8987787 -1.1676913 -0.5131461 29
5.7484651 -1.1150841 -0.47730649 37
5.5644617 -0.94358969 -0.59019119 16
-0.4668045 1.2605317 -0.46437889 12.5
-0.43787059 1.2421368 -0.45166975 10
1.089205 -3.9001167 -0.44158253 81
1.3964707 -3.4569545 -0.42396495 51
2.1392829 -2.7102604 -0.43309003 36
1.1670864 -2.6644614 -0.41430804 78
1.2614851 -2.5509696 -0.42133594 76
2.2306845 -2.6064434 -0.40652886 67
1.30415 -2.5122943 -0.40257531 94
1.3635361 -2.4620614 -0.42022124 82
2.4243281 -2.4746959 -0.40068763 30
2.5014725 -2.3712857 -0.41204736 88
1.9492848 -1.8886087 -0.41165939 8
1.9594178 -1.8403589 -0.42600757 101.5
6.2762012 -1.6027646 -0.42109039 38
0.10953818 -1.4483815 -0.41274533 9
2.4437654 -1.458962 -0.43771744 0
-0.033928189 -1.3071256 -0.41066104 6.5
0.014439624 -1.3327394 -0.43035051 0.5
2.8219445 -1.0918409 -0.42606887 27
2.8992581 -1.1602031 -0.42452314 33
-0.3630442 1.1731048 -0.41178238 11.5
-0.51495075 1.3046975 -0.42538691 9.666667
-0.40632811 1.2157837 -0.42410007 11
-0.56895912 1.3805305 -0.41568676 10
