# .PCD v0.7 - Point Cloud Data file format
VERSION 0.7
FIELDS x y z intensity
SIZE 4 4 4 4
TYPE F F F F
COUNT 1 1 1 1
WIDTH 153
HEIGHT 1
VIEWPOINT 0 0 0 1 0 0 0
POINTS 153
DATA ascii
2.3367324 -1.2682718 -0.7530967 6
2.0000868 -1.1721717 -0.75825971 4
2.1274519 -0.9891715 -0.76000774 5
2.5801973 -1.0269094 -0.75536329 4
2.7987599 -0.9227078 -0.76109231 4
3.1207342 -0.97835487 -0.76548606 8
2.2745652 -0.88708848 -0.76075733 5
2.4563348 -0.79610056 -0.76569819 5
2.1600103 -0.67795569 -0.76988113 4
2.6924679 -0.69822508 -0.76777822 4
2.8735175 -0.6896283 -0.77524602 5
2.3725913 -0.59494328 -0.77448285 7
2.2751315 -0.076399244 -0.79580957 12
2.5795579 -0.047395974 -0.8024835 8
3.8763201 -0.086058415 -0.79163027 1
7.521462 -0.045180541 -0.75209266 2
2.6552806 0.041255031 -0.79757464 11
5.3015366 0.075075731 -0.79569423 2
2.3284273 0.25730956 -0.80868697 11
2.5638466 0.21179132 -0.78138232 6
3.7829988 0.16380775 -0.80188978 1
4.953712 0.1598818 -0.80043757 1
2.3880332 0.43730795 -0.81355923 5
2.6434555 0.37344921 -0.8060571 7
2.6396804 0.57976121 -0.77558601 29
2.7855556 0.53793055 -0.77277595 27
2.2893751 0.66110361 -0.75596529 56
2.4212823 0.62266785 -0.80962503 25
2.2917659 0.87689573 -0.83617175 6
2.6533415 0.87589997 -0.835177 6
2.1521773 1.1551927 -0.84951872 5
2.4585874 1.1414001 -0.84709334 6
2.8268459 1.1457214 -0.84100276 7
2.9238954 1.0617803 -0.84223109 7
3.4064322 1.1816914 -0.84220189 6
4.1176519 1.3004055 -0.84388036 7
2.3566771 1.4829614 -0.86052775 6
2.6759145 1.4656342 -0.85639399 7
3.0948565 1.4896334 -0.85287225 6
3.1880527 1.410139 -0.85514182 6
3.715157 1.5586432 -0.85332358 5
4.4587379 1.728595 -0.86057192 1
2.6769183 1.9364514 -0.87998044 6
3.0299995 1.9182869 -0.87419236 5
3.6124609 1.8872969 -0.87710238 7
5.4095054 1.9320741 -0.86591619 7
3.5228958 1.9676803 -0.87360454 6
4.2254653 2.0754411 -0.88132685 1
4.2564483 2.103106 -0.87377828 1
3.9996774 2.2939932 -0.78808308 2
4.1409669 2.2586877 -0.75318342 64
4.4727125 -3.8748376 -0.6173299 1
1.5601962 -2.6938198 -0.6955536 7
2.3751016 -2.6174014 -0.65675569 40
2.5930386 -2.6336162 -0.62968713 15
1.5586243 -2.4503753 -0.66338497 56
1.7232194 -2.4607048 -0.64872205 52.5
1.8726475 -2.5194254 -0.69047457 9
1.78809 -2.3582942 -0.69628072 8
1.2244329 -2.1667247 -0.72401303 6
1.3668336 -2.1474643 -0.72637087 7
1.5255336 -2.1454284 -0.72356409 6
1.6967525 -2.1530778 -0.71005982 8
2.1499071 -2.1199942 -0.7167303 7
1.6783727 -2.0393169 -0.71800339 8
1.5847814 -1.8943906 -0.71983331 10
4.0665398 -1.8694791 -0.73543 1
4.4303198 -1.9330792 -0.64232141 93
7.1067786 -1.8920722 -0.65202445 7
1.4242616 -1.748785 -0.7365247 4
1.5593791 -1.7209554 -0.73289102 6.5
1.7511265 -1.6652255 -0.6111297 5
1.4387174 -1.5494874 -0.73714334 5
1.7790174 -1.5864764 -0.72102207 35
1.7909018 -1.4503181 -0.65277886 84.5
2.606184 -1.4524997 -0.68356103 63.333332
3.0716143 -1.4623337 -0.7321226 5
1.846073 -1.3030362 -0.7111752 31
2.0539112 -1.3103428 -0.66247278 19.5
2.2980025 -1.2402145 -0.74555683 5
2.7595124 -1.3048841 -0.74379885 10
2.4125304 -1.1283429 -0.74680924 4
2.8537626 -1.1495286 -0.74058694 7
2.9561086 -0.89952362 -0.65410906 0
2.7564692 -0.64587015 -0.67299145 132
2.0435181 -0.37170282 -0.66257882 102
2.0775309 -0.22329013 -0.68371367 105.33334
2.1045849 -0.11882328 -0.70970428 90
2.3177373 -0.054976102 -0.68982273 4
2.1120977 0.1170658 -0.73454791 2
2.3465977 0.11363497 -0.70519912 5
2.2464447 0.27244312 -0.69575685 2
2.284441 0.251847 -0.63840073 0
5.2096214 0.28918087 -0.63898396 11
2.1259608 0.44843441 -0.73797441 3
2.5908117 0.59318042 -0.61358559 31
2.9039786 0.51934743 -0.71461397 28
3.0776515 0.47755462 -0.63752759 26
2.3221354 0.65342754 -0.70758885 54.5
2.469538 0.62197894 -0.66099852 34
2.8839188 2.0647166 -0.6778062 10
5.4369245 1.9595397 -0.71937263 45
4.3385768 2.2159951 -0.71117377 67
4.8104448 2.1086431 -0.61997634 61
3.5609925 2.3870938 -0.70009279 78
3.656744 2.3656337 -0.67554301 67
3.8922861 2.3189018 -0.63495779 69
4.5095577 -4.0280824 -0.48219693 27
4.1025891 -3.6342866 -0.51991016 1
1.485399 -2.7378051 -0.48621362 73
2.2520142 -2.8182406 -0.53476959 120
1.5109679 -2.6356304 -0.52434039 71.5
2.3007109 -2.663146 -0.50183457 86
2.4573288 -2.6237533 -0.47442245 47
1.5679345 -2.4533913 -0.57814664 66.666664
2.5537019 -2.422065 -0.57874656 5
4.4466476 -1.854517 -0.52157772 98
7.1284938 -1.834631 -0.52115697 16
1.7638738 -1.5645276 -0.50002533 77.599998
1.7834723 -1.486232 -0.53023821 82
1.8059571 -1.3905884 -0.52620953 93.25
2.5869153 -1.4658324 -0.53671074 91
2.7263935 -1.463616 -0.46888971 9
1.8640453 -1.2871064 -0.56609875 59.5
2.8962986 -1.0966606 -0.59960341 0
2.7406678 -0.6209774 -0.54605693 102.5
2.0440369 -0.37408903 -0.50923795 106.33334
2.0824201 -0.22242452 -0.51264286 119.33334
2.1080861 -0.2197357 -0.51586574 150
2.1019974 -0.10757236 -0.52844185 63.5
2.290463 0.21558017 -0.57593518 3
2.6140258 0.58690298 -0.57000184 26
2.8420956 0.53607839 -0.49951014 25
2.2800767 0.68973035 -0.55543244 25.5
2.4165363 0.63111407 -0.46420228 32
5.9002099 1.8689432 -0.58560592 35
2.8144429 2.0864193 -0.5428586 14
5.2158713 2.0247166 -0.5039373 49
4.2681823 2.2263951 -0.52371544 66
3.4934249 2.403949 -0.56024754 65
4.4045219 -3.9863913 -0.43993822 36
2.5885849 -2.6576748 -0.40451723 52
2.7372181 -2.6942494 -0.4410589 11
1.756217 -1.5721722 -0.43445289 92
1.8392818 -1.2640878 -0.42897376 77
2.6998286 -0.96180969 -0.41912049 54
2.0176992 -0.45334241 -0.41559842 75
2.0427659 -0.3159335 -0.43595955 89
2.1376436 0.069320939 -0.40228754 98
2.119581 0.20886436 -0.40107474 17
6.0935407 1.8424835 -0.42876792 38
4.6581779 2.1585495 -0.42477694 62
3.8348563 2.338599 -0.43160871 64
