# .PCD v0.7 - Point Cloud Data file format
VERSION 0.7
FIELDS x y z intensity
SIZE 4 4 4 4
TYPE F F F F
COUNT 1 1 1 1
WIDTH 180
HEIGHT 1
VIEWPOINT 0 0 0 1 0 0 0
POINTS 180
DATA ascii
3.0889492 -0.57068127 -0.90163255 8
2.9834404 -0.33353525 -0.91351229 8
4.4590368 -0.34215304 -0.96052527 3
3.5472002 -0.21585862 -0.93305516 1
2.9047079 -0.11300677 -0.92122072 6
4.4765167 -0.05174391 -0.98041147 9
5.0517926 -0.13329707 -0.92948264 2
2.9183972 0.10123782 -0.93863809 5
3.567879 0.028696146 -0.9533003 5
3.5666151 0.27555993 -0.96324319 10
4.4496775 0.23622335 -0.98619771 2
5.0483265 0.17774919 -0.93498129 11
2.9457135 0.32019672 -0.95313323 5
3.0217202 0.5563094 -0.96880656 6
3.6567476 0.53728598 -0.98002779 7
5.0470061 0.48805466 -0.93344504 27
3.1437519 0.81946409 -0.98576665 9
3.7918003 0.82507044 -0.99614626 6
4.1646028 0.77257633 -0.94168377 0
5.0456462 0.80168313 -0.92256844 83
3.5738716 1.0422604 -0.9470045 1
1.4631563 -2.4757857 -0.75116813 6
1.3427317 -2.2871137 -0.75993097 5
1.7315946 -2.3160691 -0.76277083 6
1.9196262 -2.3173862 -0.76258922 7
0.79742014 -2.1976314 -0.75424999 5
0.92858869 -2.1080458 -0.7627911 8
1.329497 -2.1784348 -0.77132332 6
0.73814851 -2.0366888 -0.75605226 8
1.1124871 -2.0517137 -0.77025807 6.5
1.2921031 -2.0075836 -0.77636409 7
1.4575002 -1.7773458 -0.77624995 60
3.4285064 -0.70996183 -0.81874049 74
2.8113556 -0.59581095 -0.88637185 8
3.7088115 -0.5766632 -0.75206923 12
3.9414856 -0.56735098 -0.86865991 0
2.6415417 -0.38236478 -0.89519632 7
2.9817591 -0.39659923 -0.82539397 0
5.0567317 -0.32106304 -0.79463166 104
5.0518684 0.018135956 -0.82157809 94
5.0478334 0.35767564 -0.83601213 97
5.0503874 0.70067888 -0.83814859 97
2.4960456 0.94446665 -0.7618584 91
2.6101971 0.90164059 -0.87455261 20
3.7767665 0.96272933 -0.87532276 86
4.5681515 0.98513335 -0.81765139 76.5
2.497426 1.0761529 -0.83503819 86
1.5736742 1.695009 -0.7831037 77
1.6950226 1.6846994 -0.78646588 47
1.7485416 -4.6812434 -0.61872804 3
1.9742892 -4.5964694 -0.65282083 3
1.9213912 -4.4675398 -0.64637566 9
2.0138667 -4.4763341 -0.65423483 3
2.0345273 -4.2508478 -0.66182864 2
1.8698814 -3.8763185 -0.67486644 3
1.232179 -3.4709427 -0.6812191 5
0.99548358 -3.405911 -0.68264663 8
1.3723842 -3.3187726 -0.69104743 5
1.6381179 -3.4071653 -0.70522404 2
1.6549445 -3.307328 -0.70974171 6
1.5153153 -3.2026882 -0.70426661 6
2.6534739 -3.2839129 -0.60327619 37
2.8162909 -3.2825885 -0.64761746 28
2.8725059 -3.2767873 -0.67076409 13
0.86991209 -3.1224942 -0.69215351 1
1.6157953 -3.1181598 -0.71439046 5
1.6812769 -3.1330907 -0.71391171 5
2.6156187 -3.1278443 -0.73595041 7
0.84612936 -2.8917971 -0.70544684 6
1.5306923 -2.8813984 -0.72389024 6
0.44716012 -2.8461003 -0.70501059 0
0.78669339 -2.7859099 -0.71686733 6
0.44393921 -2.6040297 -0.7127679 5
0.85066807 -2.6735067 -0.72526658 5.5
1.0428934 -2.6358678 -0.72985041 6
1.1700456 -2.5565524 -0.7345854 6
1.4510469 -2.652657 -0.74391812 6.5
0.79938143 -2.4994729 -0.7322306 6
1.317965 -2.5203352 -0.74648947 6
1.4050969 -2.4498503 -0.74932766 6
0.40187186 -2.3857293 -0.72944146 0
0.70658016 -2.3045814 -0.74392718 6
0.77069324 -2.3170283 -0.74249184 6
0.51222199 -2.1381998 -0.74676549 6
1.4649508 -1.70683 -0.64935637 74
1.4549497 -1.5680568 -0.67196304 65.5
1.4525623 -1.4191022 -0.64742678 73
2.2432916 -0.79442859 -0.66756099 93.5
2.2526417 -0.81293583 -0.71036309 20
2.2404492 -0.65809131 -0.68216801 86.5
2.2766027 -0.63041073 -0.70620191 54.5
4.6440387 -0.61335647 -0.72218186 74
2.5957496 -0.59719914 -0.61938918 0
5.0591269 -0.33697733 -0.63569826 150
5.0533509 -0.014900839 -0.66611999 94
5.0492244 0.30852085 -0.6845901 99
5.0564241 0.63646394 -0.69261581 92
2.4998786 0.9755255 -0.63568896 71.5
2.7553418 0.9172315 -0.72454381 18
5.0554643 0.96856964 -0.68733591 19
2.5024972 1.1496993 -0.74078023 85
3.6192784 1.053737 -0.73214114 0
3.7744606 1.0637841 -0.69133097 52
2.5014839 1.222026 -0.64494675 79
1.3141333 1.7236855 -0.6887902 76.400002
1.4278901 1.7002466 -0.71174443 79.5
1.5401587 1.7034311 -0.70097262 67
2.6858003 -6.3513975 -0.55754805 0
1.967118 -3.2969344 -0.58012176 33
2.1965611 -3.2926834 -0.58548129 30
2.3285441 -3.2869339 -0.45076182 34
2.4732759 -3.2869852 -0.54477209 32.666668
2.6329858 -3.2837663 -0.57120806 31.5
1.4634607 -1.8009396 -0.54090124 29
1.4713206 -1.7393674 -0.56492519 56.666668
1.4598348 -1.6155491 -0.58945227 72.5
1.4599797 -1.445482 -0.48321208 66
1.4593718 -1.3497232 -0.45242116 70
1.3037885 -1.0898268 -0.49731779 33
1.457116 -1.1153605 -0.47867441 72
1.0633153 -0.99541336 -0.50116652 7
1.3299408 -0.90922135 -0.51411241 5
1.4521238 -0.92676991 -0.47552982 79.666664
1.450863 -0.81266022 -0.51293433 76.800003
1.449814 -0.69683647 -0.48529315 79
1.5941007 -0.63638169 -0.48754042 29
1.817147 -0.69849354 -0.54366022 5
3.0368409 -0.62331069 -0.46099129 31
1.8436984 -0.56885421 -0.49140787 5
2.8207388 -0.59632367 -0.54799896 13
4.1115608 -0.5382297 -0.50992936 2
5.0647898 -0.33631092 -0.51059806 121.5
5.0632391 -0.049797274 -0.51235211 90
5.0634885 0.008301002 -0.57263803 94
5.0576425 0.25746769 -0.53516817 89
5.0549421 0.33169171 -0.58858383 99
5.0597677 0.56917226 -0.54762763 87
5.0542512 0.66081947 -0.59204525 96
5.0687246 0.88730884 -0.54924643 123
1.3154696 0.98262155 -0.51787102 64.25
1.5585036 0.92320895 -0.55315334 36.5
2.5163465 0.98609585 -0.51779681 73
2.7248588 0.92698497 -0.50760955 25
3.7876973 1.0060244 -0.54829288 102
4.064878 0.98196292 -0.50229931 9
1.3050721 1.1779586 -0.50082487 74.5
2.5024388 1.1089189 -0.55356002 86
2.5003536 1.2885146 -0.54392397 86
1.607528 1.5817115 -0.52198869 150
1.3465712 1.7101272 -0.59232831 76
1.5322158 1.7236278 -0.46028328 70
1.9080844 -3.2918231 -0.42736438 15
2.1340401 -3.2920821 -0.43842271 30
2.3164544 -3.2859864 -0.42670035 34
1.4694663 -1.6398771 -0.40812796 72
1.4570354 -1.2602547 -0.42470276 70
1.4578323 -1.0699649 -0.42749721 78.5
1.4561915 -1.0005347 -0.43199074 78.5
1.455664 -0.82973123 -0.42880088 76
1.7299612 -0.66546267 -0.41557261 151
2.9554112 -0.59143442 -0.40318397 0
4.335691 -0.57549775 -0.41984597 0
5.0670853 -0.08489076 -0.40446824 86
5.0657325 0.22457604 -0.42065862 92
5.0641823 0.50671965 -0.41361302 90.5
5.0630064 0.81474817 -0.41457474 88
1.3081925 0.9675175 -0.40844119 73
1.4187437 0.93344873 -0.40646681 50
1.5093125 0.95718974 -0.44680777 125
1.6784908 0.92617804 -0.44851592 13
2.5089192 0.98048156 -0.41456535 89
2.6574614 0.92880893 -0.43818429 20
2.8932943 0.91127568 -0.44535384 2
4.4072714 0.9530561 -0.40270177 1
1.3051292 1.0693672 -0.44129935 69
2.512958 1.075073 -0.40345663 85
1.304619 1.2077121 -0.40563524 78
2.5100033 1.2448611 -0.44224685 87
-0.65760928 1.5955423 -0.41330749 16
1.6405939 1.6227397 -0.44824064 60
