# .PCD v0.7 - Point Cloud Data file format
VERSION 0.7
FIELDS x y z intensity
SIZE 4 4 4 4
TYPE F F F F
COUNT 1 1 1 1
WIDTH 1788
HEIGHT 1
VIEWPOINT 0 0 0 1 0 0 0
POINTS 1788
DATA ascii
2.3027484 -2.8172269 -0.17137761 84
1.8071294 -1.8992839 -0.18095762 46
1.7824299 -1.7507424 -0.1627333 57
2.0960832 -1.5650637 -0.16825576 62
2.2316053 -1.4147635 -0.15585293 150
2.5686302 -1.4040896 -0.1520851 70
2.712738 -1.4664701 -0.19586839 51
2.5341799 -1.1958745 -0.17088519 8
-0.49836314 -0.90140539 -0.15420288 10
-0.46964598 -0.89047211 -0.17674291 16.200001
-0.36564875 -0.87233812 -0.17428969 15.545455
-0.24282847 -0.85511035 -0.18089323 15.444445
-0.090301365 -0.82690704 -0.17420605 11.75
0.044064246 -0.80975771 -0.16682854 11.6
1.6406074 -0.79426485 -0.16405474 62
1.5991518 -0.51623189 -0.16656759 70
1.6695396 -0.40855291 -0.17434002 23
2.0918694 -0.35395306 -0.1702404 98
2.0230064 -0.26563507 -0.15509209 157
2.3826468 -0.16502984 -0.15002029 28
2.6626215 -0.26392728 -0.15948851 8
1.924865 0.13155296 -0.15285125 157
2.7101088 0.10298951 -0.17721999 9
1.9058843 0.24989657 -0.15358822 158
2.6840119 0.26568767 -0.1862604 11.5
1.4776796 0.3898938 -0.17295107 79.5
1.464898 0.49070483 -0.15969469 89.5
-0.75473577 0.66884673 -0.16189532 15
-0.67701948 0.68175226 -0.17232642 12.866667
-0.54213822 0.70582861 -0.17962535 13.153846
-0.38995454 0.7346518 -0.17525426 13.4
1.4366152 0.66437238 -0.19767652 85
1.4293853 0.76551104 -0.19949694 56
1.5282999 0.82337773 -0.16077849 1
1.4363773 0.96726888 -0.19470844 10.5
1.6729645 1.0126642 -0.15496548 95
1.3105965 1.0660164 -0.1943852 8
1.4419024 1.159253 -0.17016509 8.5
1.5702996 1.1710737 -0.1512271 11
1.2989872 1.5474894 -0.17421073 41
1.1662756 2.9531214 -0.15860705 38
1.3063788 3.0799069 -0.19439214 24.5
-0.11278239 3.2927454 -0.17630023 18.5
0.17067845 3.3292122 -0.16116913 88
0.30131423 3.3574355 -0.15634269 102
0.85107607 3.4165199 -0.16284417 97
2.1905622 3.6451867 -0.1789384 65
2.606257 3.7267551 -0.1940234 58
3.05216 3.7997363 -0.18955377 73
2.2161617 -4.1323962 -0.031971995 63
1.9276936 -3.3155911 -0.099083789 0
2.0058064 -3.1217315 -0.11996082 19
2.0409648 -2.8683395 -0.075120382 27
2.2075927 -2.8286672 -0.12250857 76
2.2670741 -2.8196261 -0.1403569 79
2.2941241 -2.6071754 -0.009551947 46
1.8187072 -1.9886974 -0.05863947 89
1.7842171 -1.8215246 -0.055046443 50
1.8574274 -1.7566733 -0.028098142 154
1.7741249 -1.6264292 -0.14504392 58
1.9084777 -1.5902665 -0.095984422 74
2.0988302 -1.5212638 -0.063148834 42
2.1070979 -1.5194693 -0.12188385 84
1.754077 -1.4625326 -0.066240139 48
1.8414006 -1.3598528 -0.067210354 10
1.7111866 -1.2909069 -0.035504136 21
2.0778935 -1.3347949 -0.096639492 74.333336
2.0486381 -1.1383435 -0.11992607 71
-0.61566603 -0.91369063 -0.10559542 18
-0.55366075 -0.90772277 -0.11628506 13.375
1.6403315 -1.0474972 -0.062287811 29
1.7018688 -1.0272653 -0.0023918496 17
-0.48369598 -0.8910284 -0.11964032 16.875
-0.38795188 -0.87820774 -0.11473668 15.428572
-0.24243909 -0.85258222 -0.11649795 11.636364
-0.051995553 -0.82501674 -0.11065585 13.076923
0.045909107 -0.80777133 -0.13229421 11.428572
1.6355448 -0.81777966 -0.085195772 55
1.6539035 -0.86732519 -0.023365384 31
1.6180096 -0.64947534 -0.095322907 52.200001
1.6606164 -0.7439267 -0.039703641 130
1.6001863 -0.52613461 -0.073608734 57.5
1.5904789 -0.39159241 -0.071402423 35.42857
1.7843032 -0.33621949 -0.053930286 12
1.9108199 -0.37016129 -0.10947973 52.666668
1.5746707 -0.20905164 -0.044425864 55.75
1.9074574 -0.24513675 -0.096232086 67.333336
5.3346891 -0.26033062 -0.13569491 20
1.5430123 -0.072249897 -0.037871581 44.666668
1.8962928 -0.083228879 -0.094778858 99.14286
2.6919589 -0.024895648 -0.14965123 13
4.5087504 -0.14057025 -0.085981853 60
1.5280281 0.072193556 -0.046126645 76.166664
1.8964193 0.074819341 -0.11178567 123.75
1.4916198 0.24270132 -0.043888841 44.75
1.5688972 0.18563528 -0.060533602 74
1.8658377 0.21185474 -0.10298429 117
1.4702249 0.39226332 -0.055303797 61.333332
1.5162692 0.37188599 -0.042242505 74
1.6513752 0.39265585 -0.089334108 150
1.8473771 0.35449606 -0.10426966 109.6
1.4567493 0.53347856 -0.081527792 72.625
-0.93621433 0.64031607 -0.043214921 10
-0.81937361 0.6594376 -0.074660592 11.035714
-0.68093598 0.67879564 -0.085545465 12.033334
-0.52461714 0.70783657 -0.091845416 13
-0.38727814 0.73243868 -0.074416257 12.478261
1.4395972 0.67349988 -0.07242357 75.5
-0.34408957 0.75419956 -0.050135497 7
1.3448937 0.87646729 -0.069840766 1
1.4030992 0.8190074 -0.051144335 62.5
1.2729064 1.0095989 -0.10642696 44.333332
1.3550667 0.99516565 -0.023980996 9.5
1.7105629 0.93750107 -0.051327381 47.5
1.2454555 1.118047 -0.12332517 0.5
1.5764062 1.0986402 -0.13304776 13
1.719296 1.0533742 -0.10314859 41
1.3199459 1.2466146 -0.081785902 3.5
1.3085448 1.4177414 -0.03712127 46.75
1.2906507 1.5460488 -0.062165562 17
1.4832886 1.5562252 -0.10149878 51.666668
1.5764124 1.5727698 -0.059263501 77
1.6849244 1.5595841 -0.11791944 30.5
4.2965369 2.2419317 -0.048593376 60
4.2449927 2.2890666 -0.045909081 29
0.98770857 2.9697714 -0.082811303 82.333336
1.0977837 2.9597156 -0.13079533 103
1.4207029 2.8575654 -0.11108781 12
0.8905924 3.1451614 -0.0055724429 61
0.97717744 3.001107 -0.065333225 123
1.2637763 3.0587482 -0.052567277 26
-0.20052259 3.2758319 -0.024553871 5
0.86710662 3.2669454 -0.12665913 37
-0.021980409 3.3083203 -0.095382065 21
0.11561018 3.31954 -0.068273522 97
0.25787002 3.3456268 -0.10430477 101
0.52791941 3.3869522 -0.10484777 99
0.6722486 3.4043927 -0.022445548 101.5
1.8124349 3.59268 -0.14053613 98
2.2400076 3.6595287 -0.074991979 63
2.655189 3.7352464 -0.079999037 68
2.9105661 -4.0886416 0.10468286 2
2.4581926 -3.7967336 0.070448451 16
2.0067413 -3.5044594 0.042036083 0
1.9470229 -3.2419374 0.11364572 0
1.9225011 -3.0952227 0.097180881 0.5
2.3214254 -2.7271061 0.14840662 3
2.2724245 -2.4825511 0.13223261 43
2.2412384 -2.282753 0.13538533 46
2.2103658 -1.9903178 0.094927199 33.5
2.4213274 -1.9331672 0.069697253 104
2.3836386 -1.6227725 0.12784845 0
-0.39607179 -1.3532282 0.11820113 4
-0.47144395 -1.310964 0.1180988 5.5
-0.35376728 -1.3134013 0.1017433 9
-0.28325698 -1.2737172 0.075480498 5.5
1.7404969 -1.1698723 0.087322779 1.5
0.15493123 -0.94356322 0.054989602 0
1.6886032 -0.99403459 0.079486549 7.75
1.7064372 -0.87533182 0.068530947 3.5
2.0245676 -0.85997015 0.07072971 45.666668
2.1582799 -0.78845388 0.08873295 16
2.194819 -0.69133753 0.1236478 30
2.2658131 -0.66716266 0.13792926 33
2.2047067 -0.48919988 0.10375739 4
2.1906238 -0.38659146 0.14187616 3.5
-1.0896897 -0.18695652 0.11381536 0
2.1680574 -0.25744611 0.11009806 3.5
-1.0925316 -0.043282479 0.11636952 0
2.149514 -0.077261522 0.13467723 6.3333335
-1.0782045 0.018040285 0.12111085 0
-1.0473802 0.0027535735 0.073883466 0
2.1361179 0.094545245 0.11779518 9
2.1117289 0.23938411 0.12764265 9.75
2.0516682 0.38930994 0.12828481 18
2.1439447 0.38545042 0.12491107 36.5
1.9562411 0.47702393 0.10689356 43
-1.2538242 0.73697549 0.12123286 7
2.046932 0.63103372 0.13012064 6.5
-1.2121708 0.79150468 0.11661179 6.4000001
1.3327338 0.86892062 0.089368068 4.6666665
1.8403543 0.85129279 0.1002421 12.666667
2.0276887 0.79590464 0.10520097 5
-1.2836304 0.96016145 0.14486736 13
-1.096087 0.94008428 0.14171612 2
-1.0163258 0.94677663 0.13764134 1.5
-0.75159711 0.95990109 0.10994609 11
-0.68753266 1.0028237 0.12923235 13
1.3307272 0.97178125 0.093873568 8.8999996
1.3566923 0.92138433 0.011884178 6.5
1.7571737 1.0146043 0.049585711 39.5
1.8160753 0.9662987 0.11083262 18
1.3205441 1.1054162 0.069686569 6.4000001
1.2902191 1.251982 0.10716394 5.1999998
1.0054135 2.9654443 0.052200075 47
1.0605913 2.9691749 0.10740986 70
0.8805384 3.076973 0.0091800047 42
-0.096378803 3.2944343 0.077546038 17
0.069762915 3.31387 0.08010897 90.5
0.2782129 3.3467281 0.0097879423 87
0.39159167 3.3648229 0.059437536 90.5
0.49969506 3.3795037 0.10784864 97
0.81112605 3.3989425 0.11846662 120.5
0.93796486 3.4368443 0.077477239 105
1.6054335 3.5571651 0.10730925 89
1.921653 3.6074154 0.037163701 67
1.9855416 3.6183667 0.12420236 70
2.297823 3.6682904 0.022969866 67
2.8614309 -4.2461281 0.23035783 50
2.3165574 -2.801964 0.28863907 0
2.2894993 -2.5719154 0.27116305 43
2.2805076 -2.5022326 0.29685903 51
2.2422605 -2.2562232 0.23534402 53
2.2374508 -2.2263594 0.17890304 54.5
2.1931887 -1.9974855 0.25256032 19
2.4812148 -1.9357498 0.21939442 57.5
-0.47876573 -1.2723573 0.17676255 4.25
-0.37315363 -1.2561884 0.2233949 7.75
-0.2511414 -1.2615856 0.24806795 3.75
0.18308654 -1.2606829 0.22459155 1.25
0.14477794 -1.124308 0.22267419 1
0.1863464 -1.1553508 0.1934524 1.3333334
1.7268713 -1.1472827 0.1593405 4
2.296397 -1.0658063 0.16807812 3
2.1478865 -0.90575582 0.18761516 15
1.6619689 -0.88031667 0.16402066 22
2.068145 -0.86903489 0.28319812 0
2.1699076 -0.80577242 0.2038973 44
2.0984108 -0.73680317 0.24861395 23
2.1908412 -0.67584383 0.23999695 45.599998
2.2694621 -0.61189634 0.21286321 58
2.2091882 -0.50469005 0.19228421 3.3333333
-1.2208189 -0.31035605 0.2484082 4
2.1855462 -0.35365427 0.20955034 2.6666667
-1.2248627 -0.17719309 0.24469461 0
-1.1951699 -0.27631563 0.19994864 2.5
2.1685982 -0.22864087 0.19130978 3.8
-1.2076293 -0.058368627 0.25909513 0
-1.1826768 -0.07321097 0.2402692 0
2.1732225 -0.07123819 0.22392535 3.5999999
-1.2526612 0.0267756 0.26895624 0
-0.98501956 0.11501908 0.20361471 0
2.1368787 0.0594423 0.19982871 5.5
2.1339138 0.22689702 0.22047865 6
1.9056511 0.35935688 0.18701261 46
1.9921721 0.38585016 0.20356102 49
2.1361425 0.32970488 0.22914046 26
1.9199724 0.58840829 0.22281742 14
1.9765377 0.49321759 0.21376997 41.75
-1.3591044 0.70744932 0.18551981 2
-1.2584604 0.71414524 0.19018136 5.4444447
-1.188503 0.7448734 0.21440175 7
2.0390227 0.69370544 0.19499907 6.5999999
-1.20509 0.80905688 0.16450039 6.5
-1.1775866 0.81798607 0.21395008 5.3333335
1.3045357 0.87826425 0.20043857 3.3333333
1.8885268 0.82254881 0.17338839 5.25
2.0319567 0.75191742 0.21529192 4
-1.6706004 0.92383575 0.24659681 58
-1.2496315 0.99030703 0.22017343 12.571428
-1.1393983 0.99162972 0.21994516 7.5714288
-0.96405756 1.009846 0.24502118 7.3000002
1.2901222 0.98924541 0.20274928 5.2857141
1.8491497 0.94422507 0.18096489 16.25
-0.90058333 1.0500349 0.19274938 12
-0.84895015 1.0617943 0.21264958 11.375
-0.66347712 1.0947913 0.24549818 11.9
-0.55256748 1.1051484 0.21453774 13
-0.39703703 1.1225967 0.26532069 28.5
1.2733731 1.1279705 0.19602931 3.7777777
1.8252803 1.0534264 0.19759947 17.333334
1.2684439 1.2557489 0.18503012 2.6666667
0.9117983 2.94717 0.2569347 27
1.1113188 2.9167569 0.18116981 31.5
0.84774643 3.0618069 0.1823715 38
0.91168338 3.0749774 0.23162568 37
-0.11516134 3.2959425 0.27955168 16
-0.037594009 3.3017976 0.29497206 15
0.22688043 3.3396969 0.19433111 84.666664
0.54272991 3.385072 0.26029071 89.333336
0.67889309 3.4017119 0.20277688 91.5
0.80528301 3.4230278 0.16237348 95
1.7023387 3.5723321 0.22141236 103
2.7720523 3.7454777 0.29182315 63
3.2092457 3.8166535 0.17877418 60
2.2975681 -2.5752816 0.37891799 45
-0.9009155 -2.4521646 0.41445822 3
2.2878754 -2.5330896 0.34884527 51
2.2288113 -2.2517016 0.39694071 44
2.2088356 -2.0362296 0.43108004 43.5
2.3068998 -1.9676108 0.32094932 55
2.4305513 -1.9413511 0.39393854 55
2.6814337 -1.893816 0.38326651 57
2.795505 -1.8782345 0.44903052 48
-0.39944372 -1.2061588 0.34156904 18.333334
-0.28229496 -1.20921 0.30359882 1
-0.37957996 -1.1976019 0.32114249 8
0.17560457 -1.0218426 0.31439936 1
2.0789614 -0.86213732 0.30213618 0
2.1870062 -0.7723065 0.334077 17
2.1690748 -0.62696505 0.31761181 26
2.173687 -0.56920856 0.31376165 23
-1.276135 -0.3148106 0.34788701 4.5
-1.2519493 -0.22871952 0.36815149 2.9375
-1.1826999 -0.17837556 0.44213951 0
-1.2185974 -0.076007918 0.34875739 0
-1.1939396 -0.1117221 0.38362211 0
-1.2760793 0.048352454 0.38443574 1.4
2.2036862 0.049396463 0.31135935 2
2.2099979 0.16448024 0.30644619 2
1.9900858 0.38429904 0.34585828 18.5
1.9021465 0.50047952 0.33475524 18
1.9591382 0.46204519 0.32050234 32
-1.4132471 0.73819584 0.36831987 9
-1.2849841 0.70250702 0.40630168 24
-1.1794796 0.67169255 0.44782597 25
-2.0418353 0.86063093 0.44688708 55
-1.8402685 0.89432639 0.37442446 57.666668
-1.7876201 0.89672935 0.36910051 59
-1.3774779 0.81415492 0.40243867 1.5
-1.3068774 0.83687687 0.36386225 8.5
-1.1798012 0.82141829 0.41607785 12
-1.806551 0.90067601 0.38941902 58
-1.7392092 0.91038686 0.42308581 43.166668
-1.284341 0.97935241 0.38446975 9.5
-1.1261493 1.008602 0.37816468 12.111111
-0.98882973 1.0315251 0.36320123 10
-0.88781595 1.0489297 0.44524318 9
1.1401858 1.008046 0.37643838 7
1.2638844 1.012652 0.3867141 3.3333333
-0.80860925 1.0641427 0.37897742 11.636364
-0.703188 1.0835639 0.34993431 11.5
-0.5112592 1.1177347 0.38679054 11.714286
-0.42539176 1.1357821 0.31554213 11.666667
1.1330642 1.1315473 0.38711849 4.4285712
1.2083188 1.0774812 0.3244862 0
1.0960693 1.2036039 0.39824712 1
1.3379666 2.8468022 0.42907566 13
0.97207087 2.9549963 0.30171096 14
0.82471329 3.0417235 0.41309714 95
-0.18903755 3.2836077 0.4324224 10
-0.084520981 3.2913423 0.44585222 16
0.084190927 3.315635 0.35864019 80.333336
0.2637547 3.3434129 0.41587567 88
0.38808513 3.3613956 0.34851277 93.333336
0.82321411 3.3874533 0.41190612 109
2.3948205 3.6847737 0.40155709 57
2.8093419 3.7474577 0.42276901 62
3.2255723 3.8107042 0.32659292 64
2.2786067 -2.5437112 0.57304353 41
2.2387505 -2.3457906 0.5690577 42
2.2159507 -2.1792672 0.57119 42
2.2117424 -1.9965986 0.55622113 50
2.2961423 -1.9622113 0.55546504 54
2.4645312 -1.9288605 0.53223854 57
2.5575459 -1.9204605 0.48744667 53
2.7511704 -1.881493 0.5462513 56
2.9911072 -1.8280019 0.52834439 10
-1.937392 -0.9995476 0.55470467 3
-1.9827302 -0.8630954 0.57602942 66
-1.2565942 -0.30851948 0.46747315 5
-1.2288352 -0.23241542 0.53712082 4.6666665
-1.1912267 -0.17110126 0.48806709 0
-1.2514637 -0.047640365 0.53697902 0.5714286
-1.3166705 0.10335994 0.53168273 3.3333333
-1.4054574 0.6789633 0.53589618 81
-1.2788699 0.67539054 0.5230431 35.666668
-1.1158249 0.70375323 0.48134035 10
-2.299159 0.81445074 0.58496815 48
-2.0169792 0.86381519 0.51730597 57.200001
-1.9041137 0.87646878 0.55381662 57.142857
-1.7517672 0.89378124 0.47414052 82.5
-1.2591953 0.86508411 0.52075738 56
-1.0752916 0.75176972 0.58914298 7
-0.98638827 0.81954437 0.5234713 12.909091
-1.732325 0.91289771 0.54724669 24.75
-1.5644934 0.93358898 0.46404022 9.5
-1.2434183 0.98751426 0.50732666 23.833334
-1.0882301 1.015645 0.5181753 10.333333
-0.96663368 1.035545 0.53227663 10.3
-0.8716476 1.0482526 0.51469767 9.5
-0.8266803 1.056585 0.49255496 10
-0.64530581 1.0864632 0.51806718 7.1428571
-0.57864112 1.1004652 0.45080316 7
-0.39702204 1.1282654 0.56687784 13
1.1643598 2.8948181 0.54360372 106
-0.084780559 3.2946646 0.53917533 12
0.069939867 3.3132696 0.52523273 81
0.20525379 3.3349051 0.50061107 70
0.55264211 3.3795438 0.5024907 85
0.65973032 3.4011867 0.55939299 55.5
2.0600364 3.6296966 0.51190007 57
2.441067 3.685956 0.51646757 56
2.8084373 3.7538891 0.56658018 63.5
2.9352088 3.7716815 0.58527172 65
3.1192362 3.7978444 0.59981364 64
3.2061939 3.8162735 0.48160681 62
3.3637788 3.8410771 0.50777602 63
3.5858998 3.8756769 0.53840375 57
3.7420194 3.9053707 0.57241774 55
3.8363869 3.9097641 0.55975044 50
2.777307 -4.3197269 0.73294485 66
3.0254126 -4.2715287 0.73684573 70
3.2779109 -4.2237377 0.74399328 53
2.2537198 -2.4276204 0.72888637 44
2.2170482 -2.1684492 0.70078653 49
2.248419 -1.9635408 0.62006867 48
2.2909663 -1.9573866 0.67047173 49.5
2.4938307 -1.9244787 0.62800133 52
2.5540323 -1.9146788 0.63354409 54
2.7281928 -1.882679 0.67703736 50
2.9653113 -1.8374833 0.70758951 5
-1.923707 -0.90283155 0.70341909 3
-1.9722346 -0.78920281 0.67734009 28.25
-1.9228048 -0.79634541 0.69401115 34
-2.0606675 -0.73706806 0.60861528 8.5
-1.2665652 -0.077267811 0.63215172 9.75
-1.1717348 -0.093377069 0.70918584 8.666667
-1.3196799 0.079694495 0.60301268 3
-1.31923 0.5886392 0.6283617 7
-1.5122805 0.64989239 0.62208891 81
-1.4560287 0.66974866 0.69018811 116
-1.2971923 0.64770436 0.63828909 3.5
-1.1692173 0.71863788 0.69607949 71.75
-2.307812 0.81649923 0.66627556 46.333332
-2.1701593 0.83384383 0.68375236 49.285713
-2.0199521 0.85919803 0.66885281 53.666668
-1.88029 0.88253915 0.70468307 52.75
-1.4411564 0.84088504 0.66448247 78.5
-1.1314766 0.81947231 0.70665932 78.75
-1.7370259 0.91400313 0.64867312 12
-1.400705 0.95828652 0.63388413 10.666667
-1.0741709 0.98426449 0.63235712 9
-0.9714402 1.0346301 0.67484921 10
-0.80453372 1.0602491 0.69981587 19.25
-0.73921299 1.0741597 0.62374383 10
-0.49793324 1.1140934 0.69378573 12.5
-0.4255046 1.1255686 0.65744352 9
1.132125 2.8288302 0.71286321 11
1.2574402 2.9743786 0.62985361 32
0.023176264 3.3053062 0.61573446 73
0.38616988 3.3508983 0.64437521 84
0.52567786 3.3695898 0.69916594 83
0.76191145 3.4073598 0.61084199 89
1.8224652 3.5853517 0.70995593 55
2.170553 3.6419418 0.69234389 54
2.3615663 3.6773186 0.73722601 55
2.4710109 3.6964111 0.67429447 58.666668
2.5626566 3.7128386 0.66415048 58
2.7201674 3.7370214 0.66811323 60
2.8961835 3.7639976 0.67724776 61
3.2878695 3.8249722 0.63061714 56
3.3187277 3.8181524 0.60504538 58
2.6820905 -4.2841101 0.89482737 70
-2.0906601 -4.1363311 0.8861565 11.5
3.5751529 -4.187973 0.83526641 56
3.6198118 -4.1769457 0.84893906 50
-2.143997 -3.7991447 0.77442062 12
-2.2142625 -3.3805413 0.81543654 25.5
-2.2660289 -3.0012872 0.84414899 30
-2.2768643 -2.9689696 0.81823277 32
-2.3372331 -2.6831391 0.86842179 4
2.2865586 -2.6312172 0.75164866 39
2.2674134 -2.4999232 0.88835418 43
-2.3859797 -2.3618791 0.86774886 31
2.2541969 -2.3902361 0.85635644 46
2.2165442 -2.1419361 0.75675201 46
-2.4290004 -2.0860462 0.87720507 29.5
2.1838319 -2.0396023 0.77873957 43
2.26285 -1.9614884 0.83445871 46
-2.46877 -1.8325413 0.88522005 27
2.4776168 -1.9292417 0.84202456 50.5
2.6234491 -1.8953654 0.89091551 43
2.7019215 -1.8914508 0.85303545 49
2.9120622 -1.8545029 0.84262943 36
-1.9602027 -0.75040847 0.81276536 4
-1.8958215 -0.82029384 0.80921406 13.125
-2.020293 -0.74494624 0.81805897 6
-1.1665709 -0.20660977 0.78371137 2
-1.1371014 -0.086068131 0.76124334 1.8
-1.2736306 0.0018775701 0.78032315 14
-1.1918656 0.013020588 0.79778367 1
-2.775383 0.39301506 0.8764649 81
-2.7505808 0.58581042 0.84371108 148
-1.2670474 0.69292295 0.81353396 95
-1.153706 0.7498318 0.76473641 8
-2.6198471 0.76675469 0.80650687 46
-2.4824629 0.78788328 0.8645457 46.25
-2.264504 0.82085365 0.79065216 49
-2.1674027 0.83426994 0.85997683 44
-2.0635626 0.85201114 0.82029247 50
-1.9236383 0.87514633 0.79370761 51.666668
-1.6873455 0.80359101 0.87149727 5
-1.3004464 0.7787351 0.80939925 3
-0.95758033 0.78963161 0.76849139 152
-1.2785797 0.94418669 0.86740416 10
-1.1614902 0.95544553 0.81201679 80
-0.92087299 1.038972 0.83904666 55.666668
-0.87626749 1.0491101 0.7981503 10
-0.85088843 1.0518334 0.7518239 10
-0.64968979 1.087936 0.84367877 33.833332
-0.54721183 1.1001004 0.81025076 43.57143
-0.38364822 1.4756274 0.83979398 8
-0.3412073 1.5434128 0.81781387 27
1.1250956 3.0966127 0.77111113 150
0.22803806 3.3264427 0.78361589 77.666664
0.36730152 3.3465321 0.81750906 86
1.2160095 3.4320114 0.8296479 150
1.6193978 3.5498209 0.89214671 56
1.7506554 3.5741286 0.8878628 55
1.8524946 3.593641 0.8353402 56.333332
1.931128 3.6054199 0.82889485 54
1.9971541 3.6134493 0.85185146 55
2.1694176 3.6468232 0.78802878 59
2.555377 3.7109382 0.75859129 58
3.844805 3.9152615 0.87150013 43
4.4203277 4.0084925 0.80857122 36
-1.8329141 -4.8132734 1.0317245 25
-2.0357261 -4.4345465 0.96865827 9
2.4353528 -4.322782 0.90441489 69
2.632674 -4.2985597 1.0456668 70
2.9623206 -4.2843699 0.90041041 70
3.2243679 -4.2376804 1.0003693 65.400002
3.5354211 -4.1933584 0.91955084 55.5
-2.1188612 -3.9326091 1.0051217 8
-2.1699677 -3.6290431 0.9102062 17
-2.1928749 -3.4870687 1.0292809 25
-2.2107205 -3.394047 0.98392451 23
-2.2377462 -3.2344341 0.93401778 27.5
-2.2496538 -3.0991397 1.0346651 26
-2.2852335 -2.9106627 0.96247417 31
2.3034494 -2.7162573 0.91793978 40
-2.3487904 -2.5675836 0.96977639 24
2.3011768 -2.6643608 1.0143191 46
-2.3467643 -2.5405943 0.96059895 25
2.2585886 -2.4103239 0.91670048 47
-2.4004493 -2.2725062 0.98072106 26.5
-2.3823991 -2.3516438 1.0098511 24
2.2215641 -2.273443 0.9629997 45
-2.4358952 -2.0287607 0.99792439 22.333334
2.2017806 -2.0442343 0.98677129 41.333332
2.2859473 -1.9585497 0.98201936 49
2.3986168 -1.9404845 1.0349603 45
2.4549761 -1.9265438 0.95516169 46.5
2.5973566 -1.9084862 1.0175177 41
2.7610471 -1.8803107 1.0126575 45.333332
2.9296167 -1.8478575 0.98907709 26.5
-2.7852666 0.44856468 0.97865951 27
-2.8131559 0.57584357 1.0446987 89
-2.8257599 0.6655125 0.99904603 84.333336
-2.7052565 0.75378561 0.96244645 46
-2.6010313 0.76636416 1.006932 44
-2.4230342 0.79708934 0.92537582 50
-2.3604717 0.8055796 0.92481369 49.5
-2.1782987 0.83375955 0.96462232 42
-1.9691522 0.86590314 0.90960085 48
-1.2354341 0.88675487 0.96177161 7
-1.0618335 1.01196 1.0472602 52
-1.0023712 1.0233421 0.94886255 46
-0.79208487 1.0645971 0.98452425 41.5
-0.67174172 1.0797977 0.97743678 42.888889
-0.49463496 1.1129507 1.0240729 37
-0.41290188 1.1256719 0.96217424 19.5
-0.069120705 3.2870471 1.0462358 23.5
-0.029116351 3.3035264 0.91112196 13
0.079032332 3.3081856 0.91784632 75
0.18031831 3.3154111 0.9251107 76
1.0167669 3.4610791 0.97162235 73
1.0888392 3.4715204 1.0242813 74
1.321614 3.5125918 1.028302 61
1.4177446 3.5256879 1.0142945 59
1.5684907 3.5486631 0.93692684 57.5
1.6798259 3.5663486 0.9429915 58.5
2.9452271 3.7712181 1.0190223 53
3.3665116 3.8426075 0.94283879 55
-1.1780277 -4.9280915 1.1368909 79
-1.960452 -4.7087746 1.0994755 8.666667
-1.8955181 -4.7216406 1.0872948 21
0.68647474 -4.598906 1.158363 60
0.95040631 -4.573101 1.1776079 50
-2.0437927 -4.4723616 1.1355252 9
-2.0755012 -4.2310371 1.0934539 10
2.388478 -4.3346438 1.0675282 70
2.5915616 -4.3102694 1.1876546 69
2.8291957 -4.3134651 1.1622396 68
2.9336944 -4.2936826 1.1312263 75
-2.0865066 -4.1849575 1.1326461 11.333333
-2.1310351 -3.9241669 1.1441336 8
-2.1545758 -3.7487373 1.1208255 8
6.5749183 -3.7095466 1.1941222 26
-2.2056575 -3.4641783 1.1511943 21
-2.2233629 -3.3378718 1.1450816 27.5
-2.2386537 -3.2495074 1.1078165 26.5
-2.2686718 -3.0654194 1.155093 27
-2.2485728 -3.0820575 1.0529454 28
-2.2849367 -2.918134 1.1323866 31.5
-2.3264151 -2.7223718 1.1615981 32
2.3090305 -2.7481279 1.0949247 27.5
-2.3509128 -2.5631747 1.1376805 19
2.3073201 -2.6815679 1.073262 47
-2.3684409 -2.4706814 1.1049148 23.75
2.2668238 -2.5341296 1.1815364 45
-2.3911271 -2.3194137 1.1598111 19.5
2.2247381 -2.3156786 1.1324712 38
-2.4100199 -2.2048295 1.0906471 19.666666
2.1949482 -2.1275403 1.094896 41
2.196918 -2.0160954 1.1300939 37.599998
2.2831445 -1.9592793 1.1264849 43.5
2.35975 -1.9411219 1.1270074 44
2.5016887 -1.9199892 1.1014197 43.666668
2.6239042 -1.9039421 1.1118748 40
2.8099229 -1.8741839 1.1257689 43.5
2.912565 -1.8615717 1.1988719 41
-2.495584 -1.7340064 1.131845 3
-2.8047538 0.70990986 1.1351929 63.857143
-2.6145675 0.76307029 1.1683531 37.5
-2.4670262 0.78864402 1.1003573 43
-2.3172736 0.81421763 1.0907729 44
-2.1973605 0.83371049 1.1380873 46
-2.0171223 0.86314768 1.1252437 46
-1.1209714 1.0028 1.130631 30
-0.91379124 1.0416884 1.0990508 44
-0.79892874 1.0577332 1.1461847 41.333332
-0.72210503 1.0697978 1.0831592 40.5
-0.51719898 1.106167 1.1313772 37.5
-0.41645467 1.1228756 1.1338701 30.75
-0.31758457 3.2451708 1.1887299 11
-0.21662447 3.267554 1.1756257 10
-0.06973958 3.289613 1.051164 11
0.8298533 3.4201958 1.134847 70.333336
0.94268292 3.4439406 1.1792579 71
1.013559 3.4638102 1.1534219 69
1.1318374 3.4835331 1.1090989 66.5
1.2361784 3.4947495 1.0944494 67
2.2603774 3.6643071 1.1931441 58
2.5844502 3.7163606 1.1029803 49
3.0102708 3.7752321 1.1704212 50
3.4249003 3.8477476 1.1158541 46
3.4764051 3.8636379 1.1764972 46
3.8884461 3.9180484 1.0642886 39
3.933274 3.933917 1.1226928 43
-1.864378 -5.082612 1.2267613 21
-1.398764 -4.9631615 1.2933726 71
-1.3002168 -4.9473243 1.2116998 78.333336
-1.1066474 -4.9212813 1.2432795 76
-2.0167382 -4.5439816 1.2683342 9
0.65441716 -4.6075592 1.3042731 70
0.87892789 -4.5871859 1.2602386 68
1.1387897 -4.5361648 1.2083664 64
1.2273614 -4.5230227 1.2185779 68
-2.0519867 -4.4359221 1.2339582 8
2.3099985 -4.3530087 1.3335204 79
2.3486097 -4.3483214 1.2054368 70
2.4864583 -4.3263588 1.2762318 80
2.6142774 -4.2977023 1.2808981 72.333336
3.5458281 -4.1779017 1.2975184 56
-2.1212091 -3.9543548 1.2618506 10.5
-2.1958339 -3.5066652 1.2720516 25.5
-2.2358494 -3.280669 1.2235779 26
-2.2588148 -3.1156859 1.2794766 29.5
-2.2861028 -2.902766 1.2261164 29
-2.3100581 -2.7663987 1.2823601 1.5
-2.3504426 -2.5973473 1.2433366 14
-2.37097 -2.4730206 1.2966819 10.5
-2.4003835 -2.307729 1.253056 4
-2.3846228 -2.3702667 1.2105653 18
2.2290692 -2.29158 1.2874748 41
2.1950326 -2.1445613 1.2454386 43.5
2.1967428 -2.0067332 1.2892078 36.333332
2.2693462 -1.9553828 1.2809762 42
-2.4607894 -1.9101266 1.2792894 6.3333335
2.3777626 -1.93685 1.3098003 42
2.4612155 -1.9269576 1.2448809 38
2.6306753 -1.9038901 1.2552252 37
2.7577624 -1.8880498 1.311343 39.5
2.931689 -1.8552853 1.3348675 33
-2.4873183 -1.724371 1.2911156 4.6666665
7.0698857 -1.4648895 1.3487335 7
-2.8315613 0.68056136 1.2738533 83
-2.4645522 0.7837528 1.2480874 42.5
-2.1651876 0.83929616 1.3407515 39
-2.0442905 0.85858083 1.2997775 45.5
-1.4558625 0.94992602 1.2528749 40
-1.2455634 0.98279554 1.281579 33.666668
-1.172529 0.99198449 1.207091 52
-0.9623456 1.0307091 1.2784405 41
-0.89342403 1.0413476 1.2539377 42
-0.83099282 1.0519023 1.2766128 40.5
-0.63511282 1.085405 1.2611018 37.666668
-0.50951827 1.1043694 1.2803612 35.833332
-0.42121387 1.118451 1.2748864 20.5
-0.37822717 3.2374797 1.2504094 8.5
0.59216845 3.3815835 1.3142264 69.5
0.67320436 3.3930595 1.249876 66.333336
0.79197437 3.4232283 1.2892848 72.333336
0.97259682 3.4557674 1.2279254 73.333336
1.9739165 3.6197865 1.2895319 58
2.3437426 3.6786232 1.3138608 59
2.6547282 3.7182107 1.2359823 56
2.7281928 3.7400758 1.3048156 53
2.8905659 3.75702 1.3414054 52
3.0790932 3.7900662 1.2845953 49.5
3.276973 3.8250334 1.2970797 48
3.4833844 3.8560834 1.2968558 43
3.708874 3.8971202 1.2584379 39
3.9397709 3.9305286 1.2682571 36
4.2073941 3.9744172 1.2303419 36
-1.8856274 -5.1070271 1.4535593 20
-1.5146165 -5.0157547 1.3839799 13
-1.4278442 -4.971024 1.4739227 24
-1.9189565 -4.8242021 1.3885157 3
-1.2421147 -4.9395461 1.4902579 81
0.43033838 -4.6528111 1.3783835 16
-2.0399461 -4.5124903 1.456915 2
0.41610676 -4.6481986 1.4746135 42
0.63097227 -4.6113434 1.3980055 73.5
0.82210231 -4.5836477 1.3746562 65.5
0.9811669 -4.5573153 1.3948977 69
2.1855245 -4.3743286 1.4112685 80
2.2624676 -4.3523121 1.4237192 72
-2.06124 -4.3389783 1.4266013 10
2.3692074 -4.3361988 1.4269872 74.5
3.2189076 -4.230453 1.4596978 68
-2.1296537 -3.9204612 1.4218221 3
6.6981921 -3.7011211 1.4536015 21
-2.2113545 -3.4153259 1.4067264 22
-2.2776289 -3.0242169 1.3974082 30
2.2789893 -2.5798335 1.3597445 41
2.2781768 -2.5261014 1.4610319 45
-2.4126682 -2.2727127 1.4985818 4
2.2347562 -2.3344872 1.4245815 44
-2.4207857 -2.1085756 1.3955777 7
2.1897805 -2.1301293 1.4417367 38
-2.456023 -2.0047398 1.4327608 12.666667
2.1906624 -2.018656 1.4306864 38.666668
2.3065162 -1.9557083 1.4191806 40
-2.464649 -1.8591042 1.393497 16
2.3968182 -1.9414593 1.4452587 42
2.5021956 -1.9240723 1.4046662 41
2.5817909 -1.9018234 1.4304397 29
2.7737896 -1.8826847 1.4499173 43
2.9675806 -1.8442401 1.4697047 11
-2.4965999 -1.739226 1.4219102 11
7.0760245 -1.4724379 1.4941044 22
-2.8156686 0.73112035 1.3672997 41.5
-2.6266985 0.75941241 1.3793414 35
-2.4647706 0.78863919 1.4131109 41
-2.398807 0.80124456 1.4512895 40
-1.8117919 0.89783478 1.4666116 42
-1.7836703 0.8975141 1.3524265 43
-1.6895866 0.91022372 1.4144442 38
-1.6170801 0.923603 1.4595596 36
-1.3992295 0.95582533 1.4251589 47
-1.3010834 0.96757543 1.4004951 42
-1.1140082 1.0074826 1.4408895 38
-0.96782368 1.0273999 1.4420989 36
-0.85161442 1.044636 1.3552152 41
-0.7682935 1.0621568 1.3803746 40
-0.64759701 1.0838929 1.4328084 33.799999
-0.52413094 1.1007416 1.4350569 35
-0.4118425 1.1236029 1.3835331 37
6.5232029 1.9613354 1.3743148 23
6.4901452 2.203243 1.43826 33
6.4781213 2.2918453 1.4430952 25
6.3773284 2.9495525 1.4444507 20
0.39709005 3.3508492 1.4030476 70
0.54042953 3.3784852 1.4184749 67.25
0.67865813 3.4021785 1.3881433 74.5
1.7516494 3.5814443 1.436023 55
2.0562959 3.6326549 1.3933096 56
2.1441019 3.6529181 1.4640499 61
2.3222156 3.6705148 1.4709073 56.5
2.4521472 3.6928806 1.4315577 55.666668
2.5570138 3.7060559 1.3993574 55
2.722599 3.7312167 1.4046347 48.5
2.8691351 3.747792 1.4446849 49
3.0757353 3.7860034 1.3904166 44
3.2803864 3.8204138 1.4330261 45
3.5359492 3.8680334 1.4264518 40.5
3.7347524 3.8896472 1.4301838 34
3.9878898 3.9374022 1.4146872 36
4.26407 3.9737689 1.4462389 28
4.5056019 4.0144668 1.478583 3
-1.8561343 -5.0257392 1.6213676 71
-1.9322851 -4.8403969 1.6167448 33
0.36567816 -4.6583619 1.5755057 72.666664
0.49366355 -4.6308022 1.5505168 74
0.68111897 -4.6019278 1.5731134 74.5
2.1410456 -4.3787079 1.5833368 5
2.9293628 -4.2985778 1.6382807 73
3.4442241 -4.1796927 1.5169772 51
-2.1983733 -3.8264127 1.6077912 3
6.5154247 -3.6976516 1.5589472 26
-2.2158375 -3.5066485 1.6040102 18
-2.2434521 -3.3101559 1.5461113 18.5
-2.2485158 -3.2659791 1.6368335 18
-2.2814956 -3.089828 1.5792267 19
-2.3045197 -2.903569 1.5517254 13.666667
7.291543 -2.9628916 1.6022354 24
2.2875035 -2.6184993 1.5772066 44
2.27543 -2.5205281 1.5518557 44.333332
2.2244308 -2.2954319 1.5658194 41.666668
-2.4839845 -2.1574147 1.5724847 9
2.1892357 -2.1165073 1.5936562 42
-2.4882643 -2.0177975 1.6285585 12
2.1825032 -2.0232942 1.5119408 36
-2.4981117 -1.8560741 1.5357493 12
-2.5542645 -1.779142 1.6453966 14
-2.549228 -1.7045374 1.63266 1
-2.3657458 0.54755324 1.5609926 3
-2.8384275 0.70444167 1.5513506 41
-2.4014325 0.79500234 1.577456 40
-2.3717561 0.80360645 1.5762683 35.5
-2.2195203 0.82701635 1.6213752 26
-2.0459456 0.8547737 1.6435946 44
-1.8857483 0.88436574 1.5612369 41.333332
-1.4196333 0.94743544 1.5228401 41
-1.3425286 0.96229911 1.5215105 42
-1.1129242 1.0024583 1.6164026 39
-0.99669188 1.02082 1.6024584 32.666668
-0.87077481 1.0469216 1.5620979 35
-0.78270352 1.0600216 1.5895109 36
-0.65629196 1.0793043 1.5935371 32.25
-0.5094558 1.0989741 1.541569 35
-0.42634392 1.1151525 1.5659922 26.25
6.4960771 2.1274123 1.5426002 33
6.4388113 2.5030749 1.5661633 28
6.4144115 2.6207278 1.5234405 27
6.3767061 2.9297943 1.627941 29
-0.013060617 3.2886393 1.633129 74
0.12399347 3.3096745 1.6488506 66
0.21173021 3.3185329 1.569977 67.400002
0.3731778 3.350925 1.5354561 70.800003
6.3056722 3.3070495 1.5649033 4
1.2524096 3.5029206 1.6223847 55
1.4734223 3.5392771 1.5031799 61
1.5895878 3.5529737 1.6001306 57.5
1.6944959 3.5736725 1.6298685 57
1.8452953 3.5923603 1.5844522 53.5
1.8944334 3.6069703 1.5594971 60.5
2.0382652 3.6278443 1.536078 57
2.1891727 3.652544 1.5440793 57
2.5150373 3.7006488 1.5622644 50
2.8246698 3.7458212 1.5244555 49
3.1832702 3.8132789 1.5026753 48
3.3856554 3.8471839 1.5992931 42
3.811774 3.9048572 1.5466882 35
4.3190813 3.9819806 1.512437 34
-1.7565027 -4.9692826 1.7020692 20
-1.9389857 -4.9195461 1.6789392 30
-1.549943 -4.9281626 1.7131528 20
-1.1278825 -4.9163232 1.702161 79
-1.9578916 -4.6767612 1.6539439 40
-1.0799438 -4.7094107 1.6957752 16
-0.74126834 -4.798902 1.7055286 1
-2.0149758 -4.598402 1.7295582 18
-1.7610737 -4.5656867 1.7852036 54
-1.3884821 -4.5833583 1.7807552 77
-1.1483165 -4.5513339 1.7535759 68.333336
-0.99641353 -4.5274682 1.7942501 21
0.22079529 -4.6478982 1.7372874 34
0.35634714 -4.5696387 1.7241248 46
0.47257584 -4.5314212 1.7312349 46
-2.1207385 -4.4037333 1.6603813 4
-2.0969579 -4.4554873 1.7310497 9
-1.2649925 -4.4380341 1.7926152 51
1.3177212 -4.476511 1.734157 39.5
-2.1268489 -4.2680974 1.7105507 8
-1.3180943 -4.2537999 1.7900101 51
0.9824453 -4.2260733 1.7506202 66
2.6128428 -4.301012 1.7953593 38
3.1560588 -4.252316 1.6749047 74
-2.1750557 -4.0709753 1.6733397 5
-2.0909708 -4.0714798 1.750693 3
-1.9056574 -4.1068511 1.7872423 57
-1.5873486 -4.1418467 1.7894536 50
-1.3764462 -4.1384926 1.7944303 51
1.1757969 -4.1907687 1.7396466 68
1.2731895 -4.1861544 1.7308612 66.5
3.3662302 -4.1826973 1.7042476 63
-2.2070086 -3.9841211 1.7473944 8
-1.4402976 -3.9951377 1.7939544 55
3.0650113 -3.9068265 1.7372578 43
-1.4805475 -3.8340871 1.7932605 52
3.1323748 -3.8917284 1.7995631 66
3.1640348 -3.8697054 1.7499909 46
-2.1833062 -3.6069777 1.7237056 13
-2.0296521 -3.6995325 1.7883872 59
-1.7549344 -3.7322693 1.7903517 58
-1.5570444 -3.7126372 1.7928189 44.666668
7.0505567 -3.6507385 1.7511629 27
-1.6079111 -3.5070145 1.7987912 28.5
-2.1889496 -3.3948407 1.7423937 19
-1.7045584 -3.3573897 1.7982523 13
-2.2587674 -3.1923091 1.6956362 11
-1.4755301 -3.0743935 1.7853729 6
-1.7937843 -2.8538415 1.7856709 0
-1.8874207 -2.7618454 1.7858552 18.666666
-1.7582566 -2.7868702 1.7876152 43
-1.5977645 -2.8166566 1.7965966 57
-1.2517644 -2.820621 1.7982076 58
2.3407192 -2.7987318 1.7548976 39
-2.296078 -2.673301 1.7674028 7
-2.1248386 -2.6988425 1.7873236 39
-1.9636729 -2.6877642 1.7813574 24
-1.8807161 -2.5713878 1.7931107 57
-1.7002063 -2.5616901 1.7958046 70
2.2713258 -2.5933008 1.7303599 44
-2.4163733 -2.4867239 1.6885434 3
-2.2153263 -2.401938 1.7834567 75
-2.0301738 -2.4489508 1.7859956 61.666668
-1.8939097 -2.5232887 1.7914606 62
2.2612345 -2.5017407 1.7467095 45
7.2336249 -2.5298135 1.7047535 23
-2.4624398 -2.3171792 1.6521078 9
-2.3671029 -2.3873172 1.7607573 6
-1.9737806 -2.28389 1.7956319 60
-1.795947 -2.3258045 1.7989622 67
2.2315309 -2.3397563 1.7569011 42
-2.4520991 -2.1699827 1.703619 12
-2.297724 -2.1254253 1.7830077 64
-2.1421154 -2.1822677 1.7893308 60
-2.076386 -2.207134 1.7896022 56
2.2168422 -2.2399101 1.678301 41
-2.5170574 -1.9702964 1.6548065 13
-2.1786122 -1.9603884 1.7917508 54
-2.0445442 -2.0369406 1.7944666 54.666668
-1.8784552 -2.0984459 1.7971295 67
7.1530466 -2.0264616 1.7486805 22
-2.5013256 -1.8831673 1.7260432 17.5
-2.3775349 -1.8686289 1.7904865 61
-2.177496 -1.8620517 1.7936026 60.5
-2.0165846 -1.8546379 1.7988207 61
-1.6979139 -1.8653274 1.7980834 67
-2.9273808 -1.7420056 1.7831348 109
-2.2939065 -1.6953852 1.7909992 56.5
-2.180347 -1.7538276 1.7943858 55
7.1073532 -1.7320143 1.6813072 23
-2.8747866 -1.546351 1.768504 63
-2.7601426 -1.6075315 1.7783047 70.5
-2.4428208 -1.6169091 1.7905205 49
-2.1908193 -1.5787749 1.7993813 64
-1.7075399 -1.5458581 1.7991017 61
7.0869322 -1.5803388 1.742575 22
-2.9929121 -1.4833721 1.7937883 150
-2.7986305 -1.3939779 1.7849818 63
-2.6670833 -1.4580919 1.7933619 45.5
-2.4991748 -1.3725748 1.7890586 36
-2.3338244 -1.4775372 1.7937452 59.333332
-2.2058637 -1.3871313 1.7974597 62.5
-2.0868626 -1.4775454 1.7974118 63
-2.9234393 -1.2931311 1.769914 69
-2.7549641 -1.2679917 1.7944571 47.333332
-2.4355955 -1.2122706 1.7878217 62
-2.3632476 -1.2726071 1.7912594 54.5
-2.1931255 -1.3112311 1.794878 58.5
-1.6878934 -1.3311383 1.7969903 57
-3.3771172 -1.0997015 1.7766315 5
-3.1912074 -1.06539 1.7733618 41.5
-2.8805258 -1.1012876 1.7839986 80
-2.8358696 -1.1526604 1.7840036 69
-2.5544093 -1.1380981 1.7922496 30
-2.450793 -1.0509235 1.7991461 61
-2.321677 -1.1252619 1.7935234 60.333332
-2.2074325 -1.1852583 1.7970656 59
-1.8910311 -1.0892512 1.7985035 80
-3.0759087 -0.96680635 1.7843343 5
-2.9266765 -0.9854809 1.7834468 38
-2.7463994 -1.0050013 1.7914964 62
-2.5982134 -0.90586126 1.7908908 18
-2.4865179 -0.98959202 1.7866553 62
-2.3396897 -0.95423138 1.798344 68.5
-2.2417452 -0.98889142 1.7975961 68
-2.9237716 -0.86820668 1.7803181 1
-2.4866505 -0.82106215 1.7929268 47.333332
-2.3345551 -0.78685474 1.7990366 73
-2.4732575 -0.65073597 1.799229 7
-2.3287528 -0.66971725 1.7954031 73
-2.3932703 -0.53511721 1.7964166 67
-2.4633296 0.050567418 1.7957779 77
-2.4825323 0.24968708 1.7985295 82
-1.6195776 0.25477856 1.7955204 74
-2.5978172 0.41979986 1.795202 76.5
-1.3657966 0.30894628 1.7576653 150
5.9558568 0.37465203 1.7785035 3
-2.7792687 0.46960068 1.7992967 17
-2.4959674 0.45244384 1.7997805 77
-2.8429739 0.70811635 1.7353083 86
-2.5315681 0.63238901 1.7900385 19
-2.6287205 0.76428491 1.6855007 33
-2.4462686 0.79007423 1.6557276 35
-2.0785625 0.85457146 1.7506927 46
-1.8814 0.88390827 1.7444971 33
-1.5473142 0.9341625 1.7444044 53
-1.4632301 0.948246 1.6542171 49
-1.2591435 0.98557281 1.6686853 35.5
-1.0875876 1.0095721 1.7590541 50
-0.9894194 1.0335486 1.7937402 38
-0.76306093 1.0586634 1.7209727 36
-0.64386183 1.0811495 1.6922067 32.666668
-0.50408214 1.1008118 1.7146934 33
-0.41645467 1.11858 1.673865 33
6.5525484 1.7573519 1.6927482 24
6.5415492 1.8682613 1.7199544 24
6.5048265 2.0563176 1.7460316 33
6.4797678 2.180959 1.7748424 34
6.3910885 2.7984109 1.6938518 33
6.3340831 3.144007 1.7976433 26
-0.2102007 3.2574313 1.7717789 75
0.037866518 3.2950103 1.7261477 67.5
6.3261275 3.2521586 1.7545699 22
0.025912087 3.3000662 1.7990795 64
0.20679812 3.3280575 1.7035426 72
6.3108053 3.3052032 1.7468497 1
1.0444933 3.4633851 1.7454721 58
1.1292512 3.4778116 1.7817173 55.5
1.3312919 3.5096588 1.712836 51.5
1.4280863 3.5262861 1.7400208 57
1.567763 3.5498688 1.6752421 53.666668
1.7234883 3.575815 1.7200316 62
1.9685013 3.6169107 1.6610163 62
2.6635826 3.7257431 1.7246519 46
2.9327495 3.7281563 1.7827946 18
2.9939184 3.774193 1.6515471 44
3.3355336 3.8416557 1.7617422 38
3.5114164 3.8586345 1.7846111 34
3.7380078 3.9035223 1.7175678 30
3.9487441 3.9265826 1.7621688 35
4.2084913 3.9794147 1.6907653 28
4.4463282 3.9977958 1.751845 35
4.7668042 4.0772581 1.6835617 31
5.0520611 4.0980291 1.7698067 31
0.078127578 -4.3685608 1.810023 15
0.20168103 -4.3298845 1.8137761 76
0.96436983 -4.2200813 1.8430077 72
1.1539255 -4.2026176 1.8208064 84
2.8319728 -4.2535734 1.8083736 38
-1.2112796 -4.1768436 1.830583 8
0.89447099 -4.0744319 1.8407456 56
0.98026204 -4.0928059 1.8255775 55.5
3.0309048 -4.1759791 1.8101956 11
-0.058301497 -3.9839487 1.8111962 53
0.68963599 -4.0437441 1.8464469 51
0.83245248 -3.9540534 1.8373259 59
1.1400388 -4.025198 1.8255047 57
1.2250137 -4.0106502 1.8369862 58
2.1560369 -4.0367866 1.8180143 74
2.3670068 -4.00598 1.8156301 70
2.5809858 -3.9770191 1.8161727 71
2.803427 -3.9480569 1.845601 81
2.9173026 -3.9255433 1.8643118 83
-1.3815178 -3.778636 1.8221635 1
0.59154302 -3.805166 1.827711 54
0.67845452 -3.8494964 1.8350387 38.5
0.83290917 -3.7777352 1.8316599 31
1.7868428 -3.8346043 1.8633395 52
2.0087576 -3.8504155 1.8644785 48
2.2217271 -3.8446901 1.8572575 44
2.4244087 -3.8100061 1.8586508 48
2.7551246 -3.8663692 1.8619821 41.5
2.8597751 -3.8844132 1.8726736 56
3.0838807 -3.8932803 1.8024682 65
-0.67923927 -3.6771586 1.8062168 30
-0.41273874 -3.6977346 1.8082246 4
-0.28193352 -3.6854818 1.8174108 26
0.38943058 -3.6984365 1.8396701 52
0.53931576 -3.688427 1.8339311 57
0.91976541 -3.7482057 1.8340465 55
1.6604238 -3.6473949 1.8827418 14
1.8544323 -3.6427491 1.8543512 53
2.0651402 -3.648782 1.8584598 50
2.3410654 -3.7174587 1.8582453 46
2.4671135 -3.7223573 1.8655938 48
-0.77526766 -3.476007 1.8200849 11
-0.66810036 -3.5845819 1.8112308 15
0.35394311 -3.5469632 1.8231175 52.25
0.55650187 -3.5196879 1.8218161 58
0.64962137 -3.4986899 1.8279134 59
1.7372327 -3.4828315 1.8539551 56
1.9344113 -3.5801728 1.8541626 49
2.0288391 -3.5373278 1.8553146 52.5
2.119884 -3.5516186 1.8641709 51
2.9892302 -3.5418472 1.8960608 28
-1.9080775 -3.3845077 1.8064295 7
-0.92833215 -3.3965542 1.8042856 49
-0.79007536 -3.3794086 1.8111256 34.333332
-0.61137688 -3.4027774 1.8051306 58
-0.47715139 -3.393364 1.8100451 72
0.10249106 -3.3388269 1.8245422 53.333332
0.23468772 -3.3731642 1.8225853 57.5
1.1079929 -3.3053956 1.8492819 49
1.439679 -3.3181257 1.8472 56
1.558239 -3.4331365 1.8480538 53.5
1.7254049 -3.3730075 1.853974 52.666668
2.5492723 -3.3539824 1.886633 47
6.2042813 -3.4006739 1.8985134 37
6.4760385 -3.4156697 1.8067175 21
6.7947779 -3.3073945 1.8787407 28
7.2611866 -3.3746927 1.8091737 20
-0.8541199 -3.2820761 1.8049594 31
0.065801233 -3.2177281 1.8198473 58
0.36297977 -3.2748916 1.817462 58.5
1.0373654 -3.1693099 1.8458346 55
1.1721395 -3.1585383 1.8432788 53
1.257843 -3.2619224 1.8452684 52.5
1.4249541 -3.2052011 1.8476146 50.666668
2.1658854 -3.1767278 1.8796231 53
2.6925194 -3.2540047 1.8910393 39
5.9659882 -3.2886813 1.9423934 25
6.1619267 -3.2246878 1.9390625 21
-1.1016077 -3.0978608 1.8006443 55
-0.96280986 -3.0816367 1.8054613 42.400002
-0.78503269 -3.1300197 1.8016995 62
-0.64849788 -3.1306231 1.8062698 64
-0.16312046 -3.0861683 1.808314 65
-0.082582265 -3.0609057 1.8193371 58.5
0.10016461 -3.0704978 1.8135003 62
0.20441474 -3.0518651 1.8164285 69
0.83754772 -3.0640798 1.8364927 55
0.9818635 -3.0763626 1.8296937 50.5
1.1215916 -3.0501997 1.8378657 55
1.2268916 -3.029269 1.8508095 57
1.8298218 -3.0039151 1.8730055 50
2.3266149 -3.1171694 1.8845876 49
2.4755092 -3.0452039 1.8821486 46
5.2995701 -3.0504856 1.9348792 27
5.5043731 -3.0211487 1.9207004 10
7.315475 -3.1222501 1.8686807 7.5
-1.0812192 -2.8603101 1.8071444 53
-0.93830711 -2.8859458 1.8044444 58
-0.80085969 -2.8933997 1.8072687 66
-0.36059028 -2.8710387 1.8124145 28
-0.21370792 -2.9012444 1.8160486 63
-0.089929819 -2.8670249 1.8114117 58
0.020240288 -2.8619003 1.820906 71
0.70346838 -2.8941236 1.8399225 58.25
0.81311375 -2.9404061 1.8377498 53
0.94640684 -2.9129651 1.8367242 58
2.0032609 -2.9848888 1.8803073 48
2.1852787 -2.9134336 1.8729281 48.5
2.3127782 -2.8814013 1.8818942 49
5.0674257 -2.8858316 1.9390713 26
5.6147585 -2.9157822 1.9215389 22
6.1421423 -2.9901755 1.9333314 24
6.8349681 -2.9177775 1.9476124 22
7.2849369 -2.9478896 1.8970429 18
-1.1231213 -2.7855098 1.8032479 58
-0.31905842 -2.7868679 1.819567 39
-0.27959451 -2.8207777 1.8224441 57
0.53518856 -2.7569017 1.8375245 59.75
0.66362715 -2.7564449 1.8404886 63
0.78404456 -2.7229471 1.8467861 58
1.4443884 -2.7086687 1.8639809 53
1.576931 -2.7896905 1.8689545 53
1.7583451 -2.7739151 1.8668772 49.333332
1.8783979 -2.7700374 1.8671765 49.25
2.048862 -2.8085401 1.8689308 53
2.1307216 -2.8194225 1.8682926 47.5
2.3400421 -2.8350649 1.8408772 38
4.8395934 -2.7780714 1.9149848 25
6.1148539 -2.8077447 1.9288005 23
-1.3880517 -2.5713429 1.8042527 53
-1.2194029 -2.5962951 1.8088757 54
-1.1326463 -2.6284547 1.8091378 55.5
-0.93679571 -2.6761463 1.8127681 60
-0.49964169 -2.6135342 1.8180709 38
-0.42108071 -2.6431334 1.8247463 28.333334
-0.25897321 -2.6781952 1.8136963 56
-0.14376524 -2.6748543 1.8178505 63
0.29890442 -2.6337047 1.8261577 62
0.37653306 -2.6005654 1.8325593 57.599998
0.54994756 -2.573277 1.8299346 57.5
1.2710754 -2.5964582 1.8545067 55
1.3747343 -2.6220121 1.8581821 52
1.5653474 -2.6448288 1.8558546 52
1.6638393 -2.6522961 1.8613545 49
1.8688209 -2.5620754 1.8736895 55
2.1395848 -2.6178157 1.8730078 48.5
2.2711546 -2.581851 1.8580502 46
4.4066849 -2.5671778 1.9174389 27
4.87081 -2.6892326 1.9243771 25
5.2284975 -2.6685364 1.9212204 26
5.3130465 -2.6151087 1.9211019 17
6.6442628 -2.6690819 1.9433962 23
7.2297325 -2.6174431 1.8920039 17
-4.1931181 -2.4099395 1.8353003 4
-3.9211237 -2.4951882 1.8542873 14
-3.8958745 -2.5075111 1.8548409 8
-1.2709717 -2.5312247 1.8046324 61
-1.1271685 -2.4498296 1.810061 59.5
-0.69157642 -2.4530914 1.8090345 62
-0.56640399 -2.4309599 1.8164216 50
-0.4111844 -2.4934483 1.8105685 27
-0.29213375 -2.4988368 1.8164066 68
0.10926686 -2.4802337 1.8246356 66
0.20398693 -2.4419258 1.8320124 66
0.37847143 -2.4376974 1.8317959 67
1.0025117 -2.4620547 1.8567978 58
1.1264206 -2.4697473 1.8478835 56.599998
1.279918 -2.4883342 1.8521234 63.5
1.411199 -2.5357938 1.8555942 59
1.61371 -2.4460576 1.8662328 53
1.773649 -2.440732 1.868605 46
1.899794 -2.4452784 1.8646328 46
2.0239079 -2.4671495 1.8678012 45
2.1964152 -2.4449661 1.8667811 46
2.2591679 -2.4778013 1.824355 45
4.3825202 -2.4207077 1.906376 29
4.8142948 -2.5154181 1.9306389 24
5.2175841 -2.4278767 1.9356905 26
5.6064692 -2.5266533 1.9230157 20
5.8381467 -2.5368152 1.9418563 19
7.135426 -2.4360638 1.9241216 15.5
-3.7315347 -2.2822292 1.8649949 57
-1.5039077 -2.323849 1.8013471 62
-1.3863015 -2.305511 1.8069607 64.5
-1.3191979 -2.3621922 1.8089132 58.666668
-1.165455 -2.2660031 1.8115891 65
-0.8294785 -2.2534649 1.8056165 62
-0.64632213 -2.359194 1.8136159 60.666668
-0.54768717 -2.3176727 1.8112375 26
-0.42598218 -2.336807 1.8221384 29
-0.062541649 -2.3268058 1.8215545 68
0.048788331 -2.2857833 1.829085 68.199997
0.22139314 -2.3023746 1.8312823 66.5
0.71771938 -2.2818201 1.8456126 61.333332
0.82217634 -2.3501801 1.8513823 58.75
0.96832329 -2.3486555 1.8504142 57.75
1.3386364 -2.2646132 1.8630866 50
1.4377991 -2.3133299 1.8826827 32
1.5536486 -2.3220413 1.8592715 46.166668
1.708391 -2.340483 1.8571408 48.25
1.8713632 -2.3713825 1.8607864 48
2.0889208 -2.3912406 1.8730518 49
3.9141395 -2.3078346 1.9092158 28
4.7480383 -2.3424919 1.9150363 23
5.6363015 -2.3137934 1.9424652 20
6.0098276 -2.367244 1.936452 21
-3.9540913 -2.1617196 1.870072 65.666664
-3.6747718 -2.237381 1.8714873 58
-3.5892262 -2.2474809 1.8676761 60
-1.4280463 -2.1317852 1.8103588 66.75
-1.3058773 -2.223736 1.8072244 64
-0.79323077 -2.1611166 1.8112862 59.5
-0.70255208 -2.196234 1.8162985 62
-0.54605091 -2.1721225 1.8180586 29
-0.21891975 -2.1784456 1.8222028 67
-0.090588436 -2.1372504 1.8291842 70.199997
0.077736035 -2.1668735 1.8277936 66.5
0.53527361 -2.1606762 1.8447102 66
0.65340221 -2.1742446 1.8516598 64.599998
0.83549958 -2.2212427 1.850063 63
0.97386062 -2.1166306 1.8535525 61.5
1.1442516 -2.1721497 1.855572 53.285713
1.2888843 -2.2177329 1.8548002 55.799999
1.3829368 -2.2354527 1.8537287 34
4.0216813 -2.199141 1.9030761 28
4.2207661 -2.244875 1.9229189 22
4.5141768 -2.1536613 1.9272157 23
5.1139083 -2.238461 1.9207767 25
5.5068941 -2.1150317 1.9370672 18
6.3852949 -2.1693375 1.9449717 21
7.1672592 -2.1109805 1.8156012 24
-3.509783 -2.0248504 1.8734992 60.5
-3.4100423 -1.9965823 1.8774096 64
-3.2123225 -2.0180542 1.8719617 62
-1.5615604 -2.0840013 1.802577 70
-1.402759 -2.0220084 1.8060743 69
-1.263074 -2.0733411 1.8102909 66
-0.95455569 -2.0659785 1.8067797 60
-0.81497711 -2.0195935 1.8170292 65.5
-0.65411943 -2.0107784 1.8103188 69
-0.35944951 -2.0257299 1.8165773 73
-0.21625939 -1.9921608 1.8284429 71.800003
-0.10487826 -2.0445604 1.8278538 71
0.00027845503 -2.0315771 1.8259257 71
0.22642913 -1.9814363 1.8379046 70
0.36276987 -2.0211639 1.8428327 67.166664
0.49889815 -2.0447326 1.8448583 64
0.61225212 -1.9642237 1.839286 62
0.81603569 -1.9994864 1.8468667 60.875
0.96923149 -2.081495 1.8541082 60.200001
1.0557202 -2.0825031 1.8579751 63
4.2941265 -2.0991302 1.9067613 27
4.5928974 -1.9956833 1.9256078 22
4.8359179 -2.0540037 1.9438845 24
5.8824329 -1.9554775 1.9457976 21
7.1403217 -1.9524788 1.8898808 20
-3.7933576 -1.9427588 1.8683361 62
-3.6738358 -1.9172082 1.8687592 64.5
-3.3884928 -1.8341033 1.8748733 60
-3.2065125 -1.9270293 1.8795389 59
-3.0851688 -1.8031952 1.860654 73
-1.566954 -1.9011883 1.8027207 66.666664
-1.4490731 -1.8878856 1.8075184 66.25
-1.0659401 -1.8823141 1.8078002 64
-0.9219296 -1.9001582 1.8170675 66
-0.8454954 -1.84688 1.8154279 70.333336
-0.48763326 -1.884758 1.8226177 29
-0.34021848 -1.8583299 1.8251793 80.75
-0.25603974 -1.8681228 1.8322889 73
-0.11553524 -1.9158206 1.8328918 81
0.080091193 -1.8554318 1.8357732 72
0.21485926 -1.867705 1.84273 69.833336
0.39281565 -1.9057939 1.8384022 70
0.50965971 -1.8333787 1.8405882 67.666664
0.66244143 -1.9086515 1.8459493 61.833332
0.75029594 -1.8848387 1.8500541 71
4.8452063 -1.8557611 1.9241549 24
5.1127319 -1.9165946 1.940482 24
-3.2253034 -1.7569594 1.87959 58
-2.0265563 -1.6804246 1.8019165 67
-1.7396169 -1.6642189 1.8070652 46
-1.5918009 -1.7204345 1.8097682 55.75
-1.4291396 -1.7111343 1.8052613 73
-1.1665224 -1.7042886 1.8097464 69
-0.99404937 -1.7062448 1.8128787 69
-0.84471864 -1.7179184 1.8136503 70
-0.60442907 -1.7402707 1.8226267 31
-0.4710052 -1.7459222 1.8207425 53.5
-0.3848916 -1.6959633 1.8244292 79
-0.22061829 -1.7910775 1.8258518 82
-0.092666149 -1.7139124 1.8345207 81
0.073527388 -1.7365884 1.8367327 74.333336
0.21665198 -1.685912 1.8343768 75.75
0.3673988 -1.7487757 1.8409517 71.571426
0.50272155 -1.7348471 1.8428673 86
0.61533475 -1.7838976 1.8397576 93
5.111918 -1.703982 1.9332403 24
6.2330103 -1.7601711 1.9480697 22
7.0183258 -1.6708103 1.9443477 7
-3.154876 -1.5249506 1.8679956 45
-2.1282108 -1.6048656 1.8013662 61
-1.5766995 -1.5622575 1.8110801 59.75
-1.2551742 -1.5305336 1.8116556 73
-1.074844 -1.5717229 1.8102188 75
-0.96583247 -1.5815011 1.8131071 74.5
-0.68706089 -1.5467837 1.8205518 53
-0.5246917 -1.570436 1.825739 49.666668
-0.36907375 -1.5422895 1.8307326 72
-0.20601885 -1.5754452 1.8310208 84.666664
-0.073950067 -1.5667336 1.8358179 78.714287
0.062864549 -1.5816828 1.8373693 77.714287
0.23744662 -1.5676564 1.8382173 77.166664
0.35148117 -1.6060055 1.8398136 74
8.4891157 -1.6263943 1.9397413 2
-4.0732903 -1.4699494 1.8668877 69
-4.0189104 -1.484695 1.867568 65.5
-1.8523343 -1.4446441 1.8007742 55
-1.7472767 -1.4418637 1.803896 61.666668
-1.6061316 -1.4188712 1.8081391 73
-1.3317521 -1.3561313 1.808447 75
-1.1334217 -1.4204117 1.8144646 79.25
-1.0177674 -1.4338424 1.8219429 75
-0.77652419 -1.409254 1.820606 82
-0.62685084 -1.4422249 1.8245845 34.666668
-0.52989894 -1.423282 1.8330475 47.666668
-0.36881518 -1.3947487 1.8355528 71
-0.20660996 -1.4169252 1.8407682 82.199997
-0.075175047 -1.4282112 1.8380188 73.714287
0.085785896 -1.4331492 1.8376912 75.666664
0.21422391 -1.4543109 1.8396207 89.5
7.0619788 -1.4720509 1.8933145 22
-3.9099684 -1.2973567 1.8722798 4
-3.7408326 -1.3023282 1.8728181 6
-3.466269 -1.2591627 1.8763088 86
-3.2423296 -1.2578516 1.873888 74.5
-3.0560918 -1.2305486 1.8057319 150
-1.8756449 -1.2617352 1.8027182 65
-1.7321509 -1.2971113 1.8056409 69
-1.6379514 -1.2819636 1.8084974 68.5
-1.2364069 -1.2558243 1.8138119 73.5
-1.1093652 -1.2791747 1.8214223 80
-0.84109116 -1.2529593 1.8238748 81.333336
-0.6635192 -1.2912139 1.832365 42
-0.50282323 -1.270951 1.8363239 67.5
-0.35268182 -1.2613708 1.8386011 69.400002
-0.2328044 -1.2773066 1.8412997 68.555557
-0.076459125 -1.2661736 1.8429544 62.799999
0.059130363 -1.305373 1.8416324 73.25
5.6044965 -1.3411673 1.9488317 26
6.8190279 -1.268067 1.9324471 16
-2.2040308 -1.0953249 1.8030926 59
-1.8274541 -1.1487515 1.8053781 64
-1.722669 -1.1244777 1.808376 69
-1.4042535 -1.190299 1.8149875 71
-1.2844046 -1.1118747 1.8169771 75.666664
-1.1423084 -1.1341466 1.8243397 79
-0.96457708 -1.1712354 1.8243316 81
-0.8330515 -1.0953271 1.8238289 89.400002
-0.67951345 -1.1433858 1.8372673 37.833332
-0.50949115 -1.1148938 1.8351426 79.333336
-0.38452965 -1.1265299 1.8386896 69
-0.25162533 -1.1221029 1.8395786 53.57143
-0.08844693 -1.1436164 1.8437092 62.400002
-2.2527492 -0.90759343 1.8006545 66
-1.9757891 -1.0462303 1.8071929 65
-1.8803159 -0.94450474 1.804765 71
-1.7644097 -0.99600613 1.8093131 73
-1.4297447 -1.0000807 1.8158532 71.5
-1.27953 -0.94900465 1.8226693 78.5
-1.1729025 -0.99618465 1.8282086 82
-0.97406703 -0.98796922 1.8281059 91.666664
-0.82431328 -0.95131963 1.8281127 97.75
-0.69013542 -0.97598684 1.8237827 77.800003
-0.52278572 -0.97218925 1.8259908 64.14286
-0.3865256 -0.97461694 1.8307155 53.727272
-0.22549731 -0.95744568 1.8317126 45.25
-0.14126678 -1.009576 1.8369057 42
-2.0253472 -0.85124958 1.8078607 68
-1.886131 -0.78889632 1.8057135 72.5
-1.7559234 -0.86786425 1.8128942 70
-1.5205555 -0.85906231 1.8174783 72
-1.3896922 -0.81311607 1.8216864 75
-1.2670356 -0.81464458 1.8266958 84.666664
-1.1363271 -0.82489485 1.8288412 88.666664
-0.95727921 -0.82434219 1.8217459 83.5
-0.8161208 -0.81468236 1.8256881 76.599998
-0.67808264 -0.82256269 1.8283306 80.833336
-0.5207814 -0.8262502 1.8306942 75.555557
-0.3709693 -0.83677733 1.8326273 60
-0.26289299 -0.79739356 1.8320736 53.75
-2.3010275 -0.7212109 1.8027006 75
-2.0120122 -0.66562295 1.8028541 74
-1.8367002 -0.662139 1.8121085 70
-1.7859908 -0.73631012 1.8132905 70
-1.5673003 -0.69470763 1.8200032 70
-1.4311033 -0.66444141 1.8213487 75.666664
-1.3026806 -0.6752432 1.8261348 85.333336
-1.1469151 -0.67195719 1.8179194 76.333336
-0.96147811 -0.68976784 1.8242083 80
-0.81066018 -0.67745394 1.8264732 82.800003
-0.65373272 -0.67267686 1.82735 84
-0.5274784 -0.6751613 1.8293893 77.666664
-0.3830781 -0.68217564 1.8314724 72.199997
-2.3418818 -0.53486872 1.8013967 84
-2.0677667 -0.50055742 1.8034461 75
-1.8838565 -0.55403614 1.8122619 69.199997
-1.5675676 -0.52560055 1.8208077 73
-1.4180126 -0.51292485 1.8248172 83
-1.2670825 -0.53300035 1.8264905 80.5
-1.0915813 -0.51810867 1.8230995 74
-0.95416248 -0.52125794 1.8249404 80.285713
-0.83275163 -0.54382837 1.8276789 82
-0.68059492 -0.52283418 1.8273481 82.900002
-0.54043889 -0.52615166 1.8319618 80.714287
-0.37262177 -0.55234724 1.8346518 71.5
-2.4301505 -0.34186479 1.8057834 11
-2.3577051 -0.38677198 1.806522 42.5
-2.0207992 -0.4420363 1.8111802 12
-1.8741716 -0.42155623 1.8254939 2
-1.6003873 -0.36694807 1.8209331 78.5
-1.4285464 -0.37713301 1.8248177 94.25
-1.264932 -0.39435986 1.8297933 91.333336
-1.1152619 -0.35266694 1.8233975 79.75
-0.98869646 -0.35849291 1.8237865 79.199997
-0.82070869 -0.37281382 1.833541 69.111115
-0.66913909 -0.37406862 1.8307174 77.5
-0.53879589 -0.36438319 1.8356816 78.166664
-0.4186478 -0.40467501 1.8364521 76
6.7920179 -0.39922318 1.9409596 2
-1.6637856 -0.20529133 1.8185169 82
-1.5532216 -0.21715119 1.8241158 88
-1.4317713 -0.23759854 1.8268013 95
-1.2820027 -0.21860266 1.8213497 78.400002
-1.149105 -0.19761853 1.8254952 82.666664
-1.0069718 -0.21875298 1.8275723 79.75
-0.82407892 -0.219136 1.8372838 65.300003
-0.67067963 -0.21708748 1.832146 77.428574
-0.52768958 -0.22299285 1.8346952 73.833336
-0.442844 -0.26994467 1.8337492 79
-1.684512 -0.042302016 1.8215114 76
-1.5757642 -0.066881761 1.8231094 91
-1.4491323 -0.093254536 1.8279023 98.333336
-1.2744312 -0.045052335 1.8213303 82
-1.0951436 -0.069765612 1.8271691 78.800003
-0.9498592 -0.075148851 1.8250451 85.5
-0.85001081 -0.064263567 1.8307761 79.75
-0.68593156 -0.069746971 1.8346599 78
-0.51655728 -0.068169929 1.8347362 79.199997
6.8241811 -0.10606127 1.9041601 5
-2.4563277 0.029892243 1.8037983 76
-2.3719487 0.13146116 1.8021196 81
-2.1722627 0.11457284 1.8070503 80
-2.0556722 0.098763369 1.8059281 78
-1.8939699 0.11181203 1.8143574 83
-1.6989803 0.12403745 1.8216249 79
-1.5917866 0.084832482 1.8232898 88
-1.4596252 0.050589819 1.8255578 95
-1.281618 0.087672554 1.8226258 78.75
-1.1145874 0.066415861 1.8258706 82
-0.95816547 0.069866657 1.8260025 84.333336
-0.82916093 0.073776647 1.8313608 79.5
-0.6813001 0.077961847 1.8314584 81.85714
-0.53137553 0.081467889 1.833526 86.400002
6.0282154 0.12368017 1.8138589 4
-2.4880209 0.22595784 1.8032194 77
-2.131391 0.24980696 1.8092779 86
-2.0154228 0.24346188 1.8092504 82
-1.8986926 0.27129552 1.8126212 79
-1.7090217 0.29177368 1.8271531 84
-1.5394289 0.1978496 1.8242826 61
-1.4461181 0.20884842 1.828014 96.5
-1.281702 0.22191323 1.8212292 76
-1.118739 0.22323628 1.8262076 78.5
-0.97401953 0.23006363 1.8267353 83.800003
-0.8161127 0.21631037 1.8292636 80.36364
-0.66247922 0.2321361 1.8339846 79.900002
-0.50828201 0.24945225 1.8367988 86
6.806107 0.19011644 1.8640705 4
-2.5173717 0.4272247 1.803193 80
-2.3806989 0.31858659 1.8007947 78
-2.1733458 0.35723537 1.8063428 83
-2.0124178 0.40322447 1.809286 85.333336
-1.9036342 0.43290296 1.8166682 83
-1.5833651 0.37293053 1.829245 82
-1.4778676 0.39908704 1.8267108 92
-1.2817405 0.35893124 1.8305331 90
-1.1423049 0.37501922 1.8275717 75.666664
-0.97414523 0.37612942 1.8290474 77.400002
-0.83431584 0.38002083 1.8309402 78
-0.68491989 0.37018943 1.8335892 79.166664
-0.55253494 0.39124608 1.8361601 79.400002
-2.6851792 0.46069476 1.8019499 73
-2.3887711 0.5088473 1.8011054 80
-2.1578903 0.49691385 1.8092796 85.5
-2.0231419 0.52992707 1.8093332 84.333336
-1.8964423 0.59468561 1.8098367 82
-1.707448 0.46106759 1.8230864 90
-1.5844922 0.52920872 1.8252846 87
-1.4292223 0.51286727 1.8289024 89
-1.2619908 0.51626617 1.8343391 95.199997
-1.1374661 0.50798017 1.8276348 75
-0.97022521 0.52212441 1.8312126 75.400002
-0.82809061 0.51627451 1.8326942 76.625
-0.67028362 0.52062613 1.8343568 76.833336
-0.53105879 0.52106345 1.837715 79.166664
6.785974 0.48653165 1.835831 1
-2.5059726 0.66104543 1.8011764 86
-2.3958728 0.70574206 1.8053261 81
-2.164752 0.66659349 1.8091003 84.333336
-2.0421362 0.66780001 1.8076291 88
-1.7033408 0.63466591 1.8254243 91
-1.5575655 0.65962833 1.8253814 81
-1.4113173 0.66836655 1.8295131 86
-1.2728995 0.65181255 1.8347292 88.666664
-1.1445737 0.66402447 1.8334869 87.75
-0.95373797 0.66102648 1.8314424 74.75
-0.80467093 0.66573632 1.8342044 71.599998
-0.67727822 0.68528128 1.8364302 76.875
-0.53419876 0.66973966 1.8426039 72.800003
-0.42932528 0.68904054 1.8416698 80.5
-2.1685777 0.8080771 1.80397 78
-2.0549788 0.81616336 1.8076857 78.666664
-1.8918524 0.76138806 1.8111368 82
-1.6897327 0.81099749 1.824133 91
-1.5804701 0.80028391 1.8269106 90.333336
-1.384409 0.82573938 1.8270363 88.5
-1.2530576 0.79797429 1.8371758 90
-1.1192572 0.82176721 1.8396473 91
-0.96890438 0.79671288 1.8335185 82.5
-0.81907511 0.82120687 1.8376269 82.333336
-0.67589009 0.83756983 1.8367712 75.428574
-0.52144611 0.82272452 1.8428718 73
-0.39339378 0.82658231 1.8401474 75
6.7379122 0.78400844 1.8118213 1
-1.6111387 0.92090404 1.8103265 69
-1.2661468 0.95027518 1.8307362 87.333336
-1.1535333 0.95812607 1.8372316 87.333336
-0.97272605 0.92459011 1.8392978 90.333336
-0.81296247 0.98408413 1.8324265 78.333336
-0.68060023 0.96576041 1.8466195 88.833336
-0.52105504 0.96506202 1.8428756 78.285713
-0.39999324 0.99416959 1.8483776 75.599998
-0.84179473 1.058453 1.8218193 52
-0.66489202 1.0760412 1.8354502 70
-0.52426529 1.0816495 1.8456242 82
-0.38244107 1.1318816 1.8460553 57.5
-0.28411144 1.1269079 1.8563792 72
-0.3533121 1.2721418 1.8541883 73.666664
-0.25056452 1.3014621 1.8565122 67.25
-0.36153117 1.4145397 1.8513514 48.599998
-0.24617176 1.4435672 1.8575881 69.800003
-0.118102 1.4502525 1.8634444 71
-0.3349849 1.5707791 1.8518299 75.5
-0.20783366 1.5671163 1.8566542 71.5
-0.088026583 1.608284 1.857885 71.666664
-0.36586112 1.7721417 1.8443044 71.5
-0.24456424 1.6961555 1.8551863 74.5
-0.094934233 1.7423011 1.8600804 70.14286
0.028885942 1.7185335 1.859181 75.5
-0.37848055 1.8662273 1.8514076 56.666668
-0.20003358 1.8556457 1.8582571 54
-0.074683957 1.876224 1.860229 61
0.065874957 1.8772531 1.8629271 63.666668
0.22792102 1.9303441 1.870411 67
-0.3398608 2.0242877 1.8491538 58.799999
-0.26805863 2.0126271 1.8583697 32
-0.067719422 2.0108051 1.8560792 66
0.094099417 2.0183246 1.8613707 62.714287
0.23416893 2.0447626 1.8673959 63
0.34328067 2.0583448 1.8715059 64
6.5148759 1.9867996 1.842445 24
-0.42700544 2.1578925 1.8473891 6
-0.20285659 2.1638408 1.8516127 59.166668
0.06267786 2.141495 1.8589591 67.5
0.21561889 2.1618879 1.8640386 63.166668
0.36238205 2.1711185 1.8701466 66
0.47328907 2.1940627 1.8750499 64
-0.26749274 2.2929001 1.8504425 53
-0.079976924 2.3303912 1.8565782 60.166668
0.20569526 2.2758451 1.8662298 67.5
0.36167404 2.3101459 1.8692011 61.857143
0.5032711 2.343806 1.8689233 56
0.64016986 2.355732 1.8728045 55
6.4669905 2.3311543 1.8516618 12
-0.12304031 2.4659956 1.8546314 56.5
0.049823157 2.4860663 1.859561 56.599998
0.33740383 2.4307816 1.8627499 61
0.53033608 2.4827092 1.873533 61.75
0.64555681 2.4961684 1.8745823 62.75
0.79137176 2.4962366 1.8777752 53.333332
6.4340348 2.5029268 1.8522962 25
-0.42061928 2.5969424 1.8521637 50
0.059615344 2.6216593 1.8594793 58.666668
0.20270431 2.6469953 1.8630898 56.75
0.51614302 2.5696545 1.8715078 68
0.70709801 2.6350935 1.8739656 62.400002
0.82293069 2.6305866 1.873986 53
0.9775793 2.6219757 1.8793694 56.333332
1.0871392 2.6718733 1.887761 49
6.4032335 2.639554 1.9179188 19
-0.28702196 2.8033903 1.8525273 58
0.23201625 2.7482061 1.8586755 57.333332
0.35551327 2.7808685 1.8650823 59
0.86609256 2.7238393 1.875501 51.5
0.96747273 2.797173 1.8773476 55.400002
1.1284531 2.7910304 1.8845466 50.5
1.2673235 2.7811937 1.888797 46.5
1.3699996 2.8072507 1.8971835 47
6.3651004 2.8211362 1.9395226 21
-0.33323872 2.9246063 1.8595439 38
0.21189763 2.8772871 1.8622335 60
0.3969686 2.90202 1.8655589 55.25
0.51372939 2.9694068 1.8714247 53.666668
0.9527356 2.8545549 1.8777674 51
1.1397582 2.9235871 1.8861305 52.666668
1.2748836 2.9796634 1.8919946 49
1.4123582 2.941864 1.897447 49.333332
1.5702711 2.899581 1.9043556 48
1.8534217 2.977416 1.9118279 50
-0.35851827 3.0097351 1.8516539 54
-0.23927563 3.070256 1.8574876 57
-0.13382599 3.033601 1.8621114 61
0.42410761 3.076277 1.8736647 47
0.58850551 3.0359907 1.8714128 49.5
1.1924177 3.051805 1.8924419 50
1.2856708 3.0198112 1.8920939 47.5
1.4403445 3.0986989 1.8932284 49.666668
1.5696782 3.0912545 1.9003376 50.5
1.7280082 3.0527189 1.904407 47
2.0548542 3.1007576 1.9110485 46
2.1070852 3.0353518 1.9125952 43
2.3848391 3.0950336 1.9221882 43
2.6701999 3.1354058 1.927857 42
3.5673134 3.1452496 1.9417638 30
3.8818572 3.1129644 1.9496495 31
-0.17110997 3.2162991 1.8611479 73.5
-0.091055565 3.2709494 1.8342762 73.666664
0.040759008 3.2772832 1.8684758 79
0.66123426 3.1981912 1.8796823 56
0.79819244 3.1990759 1.8816324 53.333332
1.4615059 3.2493229 1.8995799 50
1.5421698 3.1640577 1.8965014 47.5
1.7114681 3.2413571 1.8983912 29.333334
1.8468981 3.2325804 1.9081973 34.666668
1.9746128 3.2439146 1.9051687 36.333332
2.125181 3.2538235 1.9128906 44
2.3436875 3.1893055 1.9168211 39
2.6573088 3.2730246 1.9263929 36
2.9690011 3.1634672 1.9376394 38
3.2590766 3.1588604 1.9356552 36
0.86210299 3.3867483 1.8797238 58.5
0.96694791 3.3883178 1.8792213 56.599998
1.0682043 3.4397724 1.8809296 58
1.7745421 3.3917322 1.8996831 49
2.0338566 3.424736 1.9021367 44.5
2.1367862 3.3793869 1.9090781 45
2.2919624 3.3736751 1.9129194 43.666668
2.4162116 3.3332942 1.9187232 31
2.6598873 3.4292045 1.9203402 25
2.7222297 3.3987024 1.9236029 25
2.9842906 3.3351705 1.9300231 32
3.3459058 3.3970838 1.9440883 30
3.703347 3.4194593 1.9439393 31
1.1544152 3.4792902 1.8349596 58
1.268099 3.5045197 1.8381211 59.333332
2.1059272 3.5030954 1.9030861 44
2.4440975 3.5147409 1.9123439 38.333332
2.6236408 3.5259018 1.9187716 35
2.7753379 3.5965409 1.9214464 33
2.9323781 3.5264695 1.9270982 32
3.0346718 3.4923315 1.9268011 27
3.2939479 3.571146 1.9360007 29
3.3817663 3.4893591 1.9371046 22
3.6992116 3.5494285 1.9434084 26
2.0965452 3.634727 1.8970677 61
2.344825 3.6408517 1.8539956 50
2.4593625 3.6619675 1.9078957 51
2.6651502 3.7317455 1.878208 55
2.8008368 3.6755154 1.8986305 28.666666
3.0608511 3.7366679 1.9176129 19
3.2019606 3.7056854 1.9358572 31.5
3.4349871 3.6419888 1.9355158 31
3.8678119 3.7217648 1.9401137 32
3.1419826 3.8125644 1.828755 28
3.1679573 3.8102229 1.9113003 31
3.531148 3.8382597 1.9082065 40.666668
3.6427505 3.7654929 1.9406863 32
3.9986651 3.8652296 1.9463316 34
3.9427528 3.9276123 1.8679413 36
4.4364429 4.0017519 1.8581883 32
5.0346045 4.1039653 1.8771173 32.5
6.7130723 -3.2689247 1.9562289 29
6.8254995 -3.1564102 1.9537052 23
5.8055487 -2.9979541 1.9504026 21
6.3201842 -2.905556 1.9594768 23
5.6159697 -2.8484287 1.9548057 18
6.1744995 -2.7650526 1.9604839 20
6.8801618 -2.7921619 1.9764396 22
6.7867975 -2.6523819 1.9762534 23
6.3528638 -2.4082732 1.9500102 20
6.0813179 -2.1755328 1.9565197 31
6.890708 -2.2415724 1.9631227 22
6.518311 -1.9986961 1.9665314 24
6.7553811 -1.9446067 1.9577001 21
5.4494472 -1.7792228 1.9636749 17
6.9144731 -1.7757162 1.96529 20
5.3877144 -1.5375665 1.9500958 17
5.7306938 -1.602545 1.9649864 24
6.5805554 -1.5369051 1.9543 22
9.6975641 -1.52635 2.0117188 5
6.0033402 -1.4061575 1.968258 21
7.3646936 -1.3940722 1.9653331 1
8.3885193 -1.4360723 1.9792315 24
7.7180891 -1.2349012 1.9805127 24
8.9725266 -1.2758635 1.9640874 29
5.8195767 -1.1306689 1.9549452 27
6.3045707 -1.1933124 1.9860255 20
7.6140308 -1.0826114 1.9700757 19
8.8324156 -1.0704563 1.9859072 23
6.0141959 -0.90306818 1.9610194 23
6.5482407 -0.95103824 1.9895757 22
7.3341246 -1.0169054 2.005764 6
8.0404282 -0.90475434 1.9794234 21
9.4038506 -0.87781608 1.9885746 15
6.1918354 -0.66138309 1.9686047 22
6.6781135 -0.68189913 1.9617575 16
7.5548983 -0.69648969 1.9992298 22
7.7974262 -0.74751139 1.9682869 18
6.3674312 -0.40734157 1.9850267 20
6.4789624 -0.13938414 1.9896153 20
6.5503221 0.69143707 1.979462 16
6.5132165 0.96776813 1.9775411 18
6.4597797 1.2435861 1.9833506 18
6.3647585 1.5109746 1.986873 20
6.2286301 1.7640442 1.9871324 23
6.0764036 2.0065601 1.9931432 30
5.8764639 2.2278559 1.9931682 31
5.6457148 2.4267318 1.9897999 30
5.3651443 2.5921986 1.9764911 29
5.0944676 2.7463508 1.9729584 28
4.8049455 2.8756618 1.9681958 27
6.2548828 2.9154863 1.9703507 17
5.9622126 3.1187227 1.9837323 24
6.1121273 3.0551524 1.9797615 23
5.6014891 3.2679579 1.9795226 27.5
5.7192335 3.2020192 1.9777523 31
4.939436 3.4083195 1.9851211 17
5.2228904 3.3835416 1.973157 29
5.3197689 3.3146331 1.9768451 30
5.9571285 3.7074051 1.9725505 22
4.8577642 3.8400848 1.9642657 18
5.3576412 3.829262 1.960117 19
5.475266 3.7900805 1.9690531 23
5.8820329 3.7839973 1.9571017 18
4.9515853 3.9424326 1.9622263 31
5.4257946 3.9115288 1.9541365 18
