# .PCD v0.7 - Point Cloud Data file format
VERSION 0.7
FIELDS x y z intensity
SIZE 4 4 4 4
TYPE F F F F
COUNT 1 1 1 1
WIDTH 245
HEIGHT 1
VIEWPOINT 0 0 0 1 0 0 0
POINTS 245
DATA ascii
1.5275816 -3.1212394 -0.80282688 1
1.7015216 -3.0795476 -0.79659295 6
1.8411379 -2.961318 -0.79241508 5
1.9893763 -2.868423 -0.79353529 34
1.4265379 -2.8389373 -0.80087578 7
2.1151292 -2.7565668 -0.78035295 1
1.3541366 -2.6390505 -0.8114078 6.5
1.2411366 -2.4457235 -0.80565685 6
2.138556 -2.5456755 -0.75257832 5
1.291451 -2.3903084 -0.80613893 5
1.3830111 -2.2888856 -0.80250686 4
2.0461385 -2.3372161 -0.76985121 21
1.2123384 -2.1774693 -0.80968344 5
1.4978265 -2.2095678 -0.79498547 3
1.6474522 -2.1759326 -0.79745454 5
1.8104782 -2.1537912 -0.79529434 8
2.0503638 -2.2359185 -0.7843504 7
1.1819291 -2.0419452 -0.80967152 4
1.9060576 -2.0459733 -0.77968669 8
1.7885041 -1.8904588 -0.79041404 5
1.9002655 -1.8981377 -0.79159939 8
1.5696794 -1.7036363 -0.79765594 7
1.8262017 -1.7924174 -0.79409832 8
1.7260395 -1.603307 -0.79535198 6.5
2.4690037 -1.5173892 -0.77859163 7
1.8987806 -1.4042343 -0.78271753 7
2.1451013 -1.4441769 -0.78158176 7
2.968379 -1.4752225 -0.77080667 4
2.5780222 -1.2652409 -0.77988505 5
2.1462383 -1.1632148 -0.77923757 7
2.343226 -0.33461121 -0.78194577 13
2.3309495 -0.19870192 -0.77760243 12
2.6293054 -0.22714588 -0.77995819 9
2.8330212 -0.2493877 -0.76307994 7
3.5355334 -0.29221404 -0.75620461 0
2.2452319 -0.052661873 -0.7750411 4
2.6208012 -0.049968813 -0.77459103 9
2.4988348 0.12784685 -0.76842982 10
2.5728695 0.12552416 -0.78095102 6
2.9585254 0.13690856 -0.75494111 5
2.4127336 0.2985884 -0.77382457 5
2.5752521 0.29895443 -0.77891338 6
2.8560123 0.3246958 -0.76495594 7
2.1970305 0.47881007 -0.77704269 6
2.3165877 0.45724541 -0.77082139 5
2.5988929 0.47883356 -0.77622831 4
2.7267208 0.49741083 -0.76556182 4
4.8147421 0.81386447 -0.751638 2
2.5639679 1.3486732 -0.76921862 5
2.5632117 1.4651333 -0.75813717 7
2.6294978 1.7379335 -0.75506133 0
2.7537279 1.6741024 -0.76120055 5
3.293911 1.7757564 -0.75415647 1
1.4615461 1.9428709 -0.77730656 7
1.1794567 2.0408149 -0.78031087 6.5
1.3538662 2.091295 -0.78286231 8
0.9099924 2.225733 -0.78353041 8
1.147817 2.1605039 -0.78336179 7
-0.20439219 2.3415661 -0.80093014 8
0.06238091 2.3452988 -0.79866481 13
0.36766142 2.3564587 -0.78865045 13
0.48081625 2.3471491 -0.79041678 10
0.66740209 2.2678771 -0.79227507 7
1.2528826 2.345665 -0.7802031 5.5
1.7740693 2.2624865 -0.77033937 7
-0.17081298 2.4789932 -0.80254799 11
0.00085837842 2.5314891 -0.79806495 12
0.15124612 2.532927 -0.79611546 13
0.49942654 2.4991717 -0.78834122 12
0.81422526 2.4910734 -0.78473985 7
1.2717438 2.5351341 -0.77690917 6
1.6396577 2.4220281 -0.7742607 7
-0.060057648 2.6427016 -0.79671663 10.5
0.53828204 2.6221161 -0.79186636 11.5
1.2796994 2.6507859 -0.77953118 6
1.5383269 2.6501853 -0.77708268 4
-0.036234394 2.7709143 -0.79703695 11
0.24190535 2.717273 -0.788427 10
0.51422399 2.7695019 -0.78749615 12
0.99882096 2.7702966 -0.78069901 6
1.2725053 2.7466462 -0.77935266 6
-0.012769508 2.9665179 -0.79889023 6
0.34342754 2.9195218 -0.78397775 12
0.46464574 2.8726308 -0.78750908 10
0.7239607 2.87218 -0.78770846 9
1.4164159 2.9801931 -0.77638853 5
2.0324216 2.8648193 -0.76462787 6
-0.062959768 3.08816 -0.79762596 5.5
0.50246918 3.1474588 -0.78696221 11
1.9085929 3.1264496 -0.76632893 6
2.7191076 3.0497644 -0.75857997 7
0.0874805 3.2653224 -0.79198992 4
0.92120212 3.2326019 -0.785146 8
1.4319882 3.2148933 -0.77373803 5
0.51276147 3.3399682 -0.77874684 5
1.4841385 3.5239549 -0.77352417 5.5
1.8885074 3.6036468 -0.77868515 11
3.4636731 3.8432703 -0.754825 9
2.1349962 -3.8028288 -0.73517209 41
2.6279335 -3.765929 -0.64484757 63
2.5040543 -3.582916 -0.74237877 13
2.0501702 -3.3183987 -0.70281106 0
2.0053561 -2.8625009 -0.625027 62
2.0542629 -2.8462083 -0.63744396 83
2.1344049 -2.8262997 -0.68170321 56
2.0839605 -2.6208725 -0.71159935 9
2.1224883 -2.5974212 -0.72867155 12
2.3074214 -2.6313474 -0.6550138 49
4.5425963 -2.0421431 -0.72429556 0
1.8140769 -1.8967431 -0.67826492 69
1.7870402 -1.731807 -0.63742971 66
2.5877187 -1.7373782 -0.63332057 83.5
1.7863178 -1.6250566 -0.67455232 59.5
1.8849378 -1.5955988 -0.72005391 66
2.0280774 -1.5735898 -0.70208329 54
2.2757323 -1.6150744 -0.6875357 161
2.5578816 -1.5240712 -0.64160895 73.5
2.5855553 -1.4889985 -0.72489899 60
2.7708256 -1.4311924 -0.67251968 34
2.8897302 -1.4433305 -0.66532159 38
1.6438137 -0.7485956 -0.62485933 82
2.3682392 -0.38801971 -0.71174192 83.666664
2.8072121 -0.056299467 -0.70839828 8
4.2736821 -0.13954531 -0.6806922 35
4.2245288 0.14341727 -0.69641048 94
4.9879756 0.38102183 -0.61307961 55
4.7417269 0.47917035 -0.74715275 4
1.5494713 1.0019035 -0.64109123 10
1.8696206 1.0434599 -0.74807984 13
1.4635296 1.0902364 -0.61768782 3.5
1.8526428 1.2164723 -0.73207211 6
1.3297071 1.5796962 -0.71159965 105
1.4190547 1.5427179 -0.61516374 54
1.5146917 1.5583698 -0.60641295 64
1.7258199 1.5927355 -0.68320394 46.5
1.8333879 1.6028464 -0.68585217 56
2.0027909 1.6327584 -0.67392206 40.5
2.1076803 1.6421639 -0.66414922 45
3.6431484 2.2391527 -0.74451035 1
-0.10750732 3.2908447 -0.66129881 19
-0.0397573 3.310189 -0.62786162 19
0.21129537 3.3343124 -0.61629081 101
0.34095302 3.3552105 -0.65858608 65
0.80074596 3.4248514 -0.65085781 94
1.0454781 3.3728755 -0.74691653 4
1.0986423 3.4260097 -0.60966825 143
1.1704808 3.4855998 -0.61665964 96
1.2281337 3.4622157 -0.64943141 150
2.0157423 3.6242392 -0.6018784 83
3.4880295 3.8638635 -0.60525757 60
2.0396602 -4.1640091 -0.57983166 3
2.1479778 -3.9036598 -0.59062564 40
2.2009795 -3.6182456 -0.52820015 47.5
2.3183866 -3.6193466 -0.56302702 63.5
2.4019341 -3.5727279 -0.58763742 32
2.0636852 -2.6975942 -0.51637781 4
2.1459069 -2.5628424 -0.50019622 8
2.2883053 -2.494694 -0.48725832 61
1.8336461 -1.995543 -0.5670687 150
1.8034511 -1.8191414 -0.5371235 65
1.7836092 -1.6706357 -0.50263226 72
2.4507525 -1.700731 -0.5547955 150
2.5822735 -1.7727195 -0.47276336 73
1.7837403 -1.6133209 -0.45312667 72
1.9292139 -1.58092 -0.52074587 63.5
1.9847072 -1.573472 -0.51281321 73
2.2421446 -1.5924795 -0.50951129 162
2.5466394 -1.5161074 -0.55555332 75
2.5621047 -1.5605361 -0.58490813 80
2.6686087 -1.4841086 -0.50098109 43
1.647087 -0.7726661 -0.5912956 70
1.6559736 -0.79142183 -0.56151044 74
1.6355113 -0.68827021 -0.54412299 77.75
1.6094304 -0.52849489 -0.51578557 77
1.6500236 -0.53532851 -0.52088124 150
1.6975044 -0.40955791 -0.52936006 19.5
2.0961535 -0.38473538 -0.47732225 154
2.3741341 -0.36891487 -0.59653598 83
2.5822144 -0.27653226 -0.53331393 11
4.2428875 0.054344974 -0.56499964 103
1.4868847 0.38768345 -0.47475946 67
2.6286788 0.37798682 -0.48731142 0
1.4694457 0.50297272 -0.46370307 97
2.2617028 0.48527464 -0.46192613 49
1.427385 0.72553861 -0.55504221 94
1.3139558 1.5408758 -0.53746057 31.5
1.4225954 1.5425049 -0.53940982 46.666668
1.6143812 1.5704801 -0.59742707 53
1.6991171 1.5885878 -0.5611797 44.333332
1.9857397 1.6349809 -0.58128417 34
2.3141408 1.684451 -0.56537122 29
1.0433373 2.9734178 -0.45892543 88
1.3051502 3.0490167 -0.58387643 69
-0.17638038 3.2805715 -0.47567445 8
-0.051243503 3.3085427 -0.50856185 19
0.075665109 3.3165157 -0.54079247 83.75
0.20889416 3.3376215 -0.47107419 90
0.49984962 3.3825119 -0.56504917 99.5
0.61161786 3.397954 -0.50016356 95
0.8694647 3.3926752 -0.4871538 118.5
1.0132337 3.4586401 -0.54098755 102
1.1988269 3.4632285 -0.54486048 150
1.6331044 3.5586421 -0.54550904 150
1.7088151 3.5775537 -0.47098088 82
2.456131 3.6876967 -0.45314929 67
2.5989473 3.7187979 -0.52124768 68
2.7200823 3.7329056 -0.56763738 63
2.9479821 3.7751458 -0.5360086 65.333336
3.068382 3.7819161 -0.59271431 71
3.4829261 3.8624847 -0.45386252 65
2.1679068 -3.9754071 -0.4387849 41
2.1270301 -3.7500513 -0.42781824 36
2.1317697 -3.6387129 -0.43927085 67
1.8182795 -1.8985434 -0.43425107 66
2.5653453 -1.6525413 -0.41429347 71
1.7778361 -1.6329815 -0.41886362 76
1.9143841 -1.5809804 -0.43904096 68
2.5656338 -1.3458995 -0.4356643 150
1.6497599 -0.79336309 -0.4467763 81
1.6226859 -0.62014216 -0.43414354 78
1.6083976 -0.55383468 -0.4003599 77
1.6014439 -0.4306891 -0.42679521 54
1.8742855 -0.37753519 -0.40368247 20
2.3837936 -0.29840058 -0.44291508 36
2.3216176 -0.11337318 -0.40745917 45
2.26932 0.044932447 -0.41725224 55
2.2588451 0.20147742 -0.42222697 47
1.4777915 0.44248191 -0.4147839 98
2.3625162 0.37681383 -0.42451793 13
1.452934 0.5503636 -0.40108359 79
2.1427455 0.49730682 -0.40913001 150
1.434433 0.67732096 -0.43830678 92
4.0383325 0.73546153 -0.43207538 0
1.429255 0.87172836 -0.40304068 28
1.2606457 1.1311541 -0.44298995 3
1.396669 1.5428654 -0.43871292 44
1.651413 1.5902245 -0.42789903 8
1.0970936 2.976403 -0.40044549 31
-0.078854457 3.2998943 -0.44757083 19
0.32159477 3.3510077 -0.41250497 95
0.79737169 3.429635 -0.44015962 6
0.94500548 3.4337249 -0.40071705 133
2.1861031 3.6500719 -0.42719123 74
2.3186669 3.6706111 -0.44002718 68
2.5274141 3.7099595 -0.42555478 63
