# .PCD v0.7 - Point Cloud Data file format
VERSION 0.7
FIELDS x y z intensity
SIZE 4 4 4 4
TYPE F F F F
COUNT 1 1 1 1
WIDTH 246
HEIGHT 1
VIEWPOINT 0 0 0 1 0 0 0
POINTS 246
DATA ascii
3.6535058 -0.58008194 -0.90269792 0
2.8409879 0.82398617 -0.94485235 5
3.0453184 0.88728225 -0.94840622 4
2.9726305 1.1011572 -0.95653713 4
3.2776127 1.1847124 -0.96764857 5
3.549053 1.2294378 -0.98003423 10
2.3016133 1.4918967 -0.95664793 7
3.2611847 1.4711894 -0.98723292 0
3.4443436 1.4816129 -0.95470703 66
2.852406 1.8603859 -0.97422588 5
3.6553235 1.8588079 -0.96094447 0
3.2327619 2.0370619 -0.90825564 1
3.1669157 2.1057911 -0.91597354 0
0.0062691094 2.6900241 -0.92858487 7
1.5501302 2.6066868 -0.97072941 7
0.052777093 2.8157716 -0.92990273 6
0.37895963 2.7424967 -0.93855667 9.5
0.0706333 2.935946 -0.93573159 6.25
0.44204122 2.9331212 -0.94693112 8.5
-0.20902568 3.1495285 -0.9365077 6
0.01205377 3.0490205 -0.93998414 6
0.44715232 3.0329709 -0.95492554 7
-0.17300117 3.2463589 -0.94346213 4.5
-0.12242998 3.2478237 -0.93933678 5
0.16944052 3.2554226 -0.95220882 5
0.38653636 3.2645273 -0.95730299 7
0.57870609 3.248143 -0.95768994 8
-0.086712085 3.5486445 -0.95720392 4.5
0.29764622 3.5787165 -0.96641064 5
0.41709197 3.5450132 -0.96663946 6
-0.038099308 3.7035453 -0.96079075 6
-0.072703823 3.8415606 -0.96905506 7
0.44847959 3.8562672 -0.98654377 6
-0.096192539 3.9078691 -0.96045655 6
0.44239825 3.9587202 -0.98209298 6
0.46444315 4.1261678 -0.99322176 7
1.5288929 -3.8043764 -0.76112086 21
1.3091552 -3.6926339 -0.75611007 1
2.2644193 -3.442385 -0.78195035 1
2.1655512 -3.2129908 -0.78275532 1
1.0185164 -3.0704105 -0.76638395 1
1.146461 -3.0060256 -0.7787388 7
1.1522596 -2.9705708 -0.77690619 7
1.2843084 -2.8778031 -0.78123754 9
1.9981062 -2.9133799 -0.78699791 4
1.112596 -2.7940836 -0.77567697 4
1.538142 -2.8094137 -0.78900433 7
1.7235641 -2.7921054 -0.79412621 7
1.9233243 -2.7892344 -0.80148566 6
1.9765728 -2.7833259 -0.79782927 5
2.1580341 -2.8186579 -0.8054266 4
1.0626582 -2.5830243 -0.78143293 5
1.9229562 -2.645294 -0.7974301 5
1.0263969 -2.4995775 -0.78911972 4
1.8303924 -2.4637561 -0.79742932 7
0.53550345 -2.2828522 -0.77217132 1
0.88527232 -2.3860331 -0.78304195 3
1.0155406 -2.3611798 -0.79125839 4
1.1287509 -2.2863009 -0.7937783 5
0.58172297 -2.1795759 -0.78472304 7
0.9981907 -2.238518 -0.79209775 4
1.3102299 -2.1752985 -0.80525076 4
1.4620342 -2.1603792 -0.80567849 9
1.6334349 -2.1637571 -0.81141853 8
1.7238506 -2.2032397 -0.80685478 7.6666665
1.8473318 -2.2032456 -0.81688148 9
2.2029252 -2.1912265 -0.76946366 8
0.9619472 -2.0810294 -0.80065894 4
1.62227 -1.9737693 -0.8107295 8
1.5691285 -1.830889 -0.8179217 8.5
2.1829848 -1.8484268 -0.8144269 5
1.6389624 -1.7773798 -0.82583851 11
2.3935642 -0.81937462 -0.80884814 77
2.3269091 -0.62688285 -0.81449527 53
2.4079275 -0.6080178 -0.76958168 47
4.5167651 -0.67787617 -0.895594 9
2.6551034 -0.51133621 -0.89045638 6
2.479548 -0.43075302 -0.81331384 6
2.1392479 0.60079455 -0.75291473 3
3.5682278 1.168648 -0.89975744 111
3.6106012 1.0967132 -0.82630813 1
3.5037491 1.3206154 -0.80786502 112
3.4655211 1.4000198 -0.8725369 123
0.66809726 2.0887504 -0.76747561 60
0.80996281 2.1657357 -0.77981609 72
1.1113694 2.2921762 -0.77705336 40
3.9564567 2.6066527 -0.86689532 1.5
-0.3910526 3.1255407 -0.79667002 0
-0.010397675 3.4278011 -0.86430293 14.5
-0.32450557 3.7956498 -0.80256951 73.25
-0.25114083 3.8226526 -0.83282048 65
0.081769958 3.9862103 -0.83454895 54.5
0.20747329 4.0470848 -0.82160962 94
0.26478687 4.0702944 -0.82794571 52
0.71968848 4.2939167 -0.87941307 7
0.83380872 4.3349495 -0.82511884 82
0.97373962 4.3969798 -0.80491227 74.333336
2.0399921 -3.5652571 -0.65060908 82
2.1343107 -3.5175784 -0.60018456 93
2.6500685 -3.2864945 -0.60986519 98
2.54282 -2.8090856 -0.7219758 11
2.6753592 -2.7278609 -0.6882596 15
0.54377496 -1.9629434 -0.69047832 8
2.2525332 -2.0824664 -0.72545445 78
2.1776378 -1.855656 -0.64623648 11.333333
2.3921676 -1.8095833 -0.66468555 28
2.2084689 -1.7878114 -0.61938369 13
2.3682065 -1.7890164 -0.66555965 30.5
2.1506674 -1.6495761 -0.72956145 13
1.9004209 -1.4262419 -0.67870748 155
1.754034 -1.3060248 -0.61997145 53
1.6474907 -1.0955478 -0.66608608 54
1.6859465 -1.1701224 -0.65637559 52.666668
1.612462 -0.99285233 -0.62534571 60
1.7149498 -0.90306336 -0.65141684 69
2.4480827 -0.96403635 -0.61636055 79
1.9116626 -0.82485878 -0.66315997 66
2.3571811 -0.76862592 -0.6873253 77.5
2.452096 -0.58321095 -0.66280615 42.5
2.6037359 -0.50240815 -0.62063098 44
1.8223464 0.4503139 -0.60383302 51
2.0192959 0.53732449 -0.6796248 11
1.4904513 1.1910408 -0.60105783 76
1.4701298 1.2201774 -0.60474622 92
1.7256281 1.2839383 -0.60658526 6
0.27972156 1.9360766 -0.66958815 47
0.32824731 1.9418306 -0.63874096 75
0.39380422 1.9726067 -0.62448746 77
0.5409292 2.034349 -0.69937241 71.800003
0.60186291 2.0610356 -0.67342281 60
1.1744158 2.320972 -0.72570688 61
1.3630327 2.4017224 -0.70176917 24
-0.22148149 3.335958 -0.63837147 45.5
-0.14463006 3.3757343 -0.64978296 41
-0.74376452 3.5842319 -0.60630846 21
-0.61205119 3.6598749 -0.71876305 112
-0.53838241 3.6897404 -0.69512552 104.44444
-0.43517616 3.6799793 -0.6611526 94
-0.032782268 3.938689 -0.65978092 115.66666
0.02219459 3.9622433 -0.68639451 106.5
0.42571837 4.1551337 -0.68139362 94
0.53472745 4.1997051 -0.6370669 88
0.66853917 4.2590418 -0.65090609 89.5
0.83993441 4.344975 -0.66524434 92
0.89954239 4.3698831 -0.72537839 88
1.5894225 -3.7859275 -0.57208437 87
1.7621484 -3.6947243 -0.54563892 99.5
1.8818116 -3.6382692 -0.51266515 104
1.9559543 -3.601753 -0.5979141 84
2.4981136 -2.8873329 -0.55800158 36
2.6314664 -2.7550163 -0.5087409 42.5
2.2871096 -2.308542 -0.47015372 15
2.1722853 -2.1239116 -0.53613013 74.5
2.2131376 -2.0897477 -0.58959424 87
2.2706728 -2.0544093 -0.55284947 62
2.1926608 -1.9158565 -0.57174361 4
1.7101336 -1.2143469 -0.52450365 44.5
1.6140945 -0.98191309 -0.4766345 58.5
1.7286835 -0.90642887 -0.5579316 61
2.4370327 -0.9162873 -0.54365218 61
1.7780178 -0.88360244 -0.50870371 57
1.8615706 -0.83995277 -0.4622066 59
2.2204604 -0.81760615 -0.45710945 40
2.2583256 -0.80401802 -0.46079642 104
2.4002173 -0.82082123 -0.53621083 30
2.336782 -0.67495131 -0.53630888 64.75
4.4623742 -0.69972706 -0.46753967 62
2.1944239 -0.48264998 -0.48376554 56.5
2.3944633 -0.54978138 -0.54457539 150
2.127491 -0.35616422 -0.55261356 2
1.8355465 0.41695845 -0.54990852 86
1.8170478 0.45067364 -0.45345232 73
2.1111987 0.5882681 -0.53266209 6
1.6828076 0.68404514 -0.49398676 70
1.5983437 0.80482435 -0.50604028 69
1.7357736 0.84446019 -0.58336902 4
1.1211488 1.0315559 -0.50364017 150
1.5782791 0.93050158 -0.51565158 46
2.0373139 1.0477098 -0.45853367 13
1.5345151 1.1188085 -0.5239687 50
3.6116281 1.1181569 -0.50909388 6
0.57581532 1.347912 -0.50821429 67
0.60007864 1.3433931 -0.49624062 86
1.4665658 1.2280058 -0.53060424 94.5
4.4362369 1.3304528 -0.56722701 46
0.39400035 1.466513 -0.45574033 1
0.51764745 1.4035088 -0.48756275 72
0.4201687 1.5946448 -0.49602833 67
0.2843805 1.9415992 -0.5030039 42
0.32185447 1.9429756 -0.56514549 77
0.39203689 1.9720378 -0.58686209 82
0.46499109 2.0099964 -0.45021841 64
-0.3914654 3.224632 -0.50278914 84.333336
-0.28111872 3.2874296 -0.48468286 48
0.06733723 3.2442753 -0.46877882 10
-0.24268144 3.3151653 -0.50264913 49.666668
-0.9529888 3.5068367 -0.47252777 111
-0.78486025 3.5776675 -0.56320566 56.25
-0.70993263 3.5645685 -0.50266838 120.33334
-0.71823454 3.6065433 -0.54040897 79.666664
-0.56108797 3.6757784 -0.58980232 107
0.2630142 4.0782075 -0.46319145 95
0.37728506 4.1279955 -0.4910675 98
0.56928229 4.2205534 -0.51722699 96
0.68582869 4.2676873 -0.56586874 88
1.555231 -3.7909806 -0.42384925 80
1.7227988 -3.7120318 -0.42635 92
2.4061842 -3.404038 -0.44847012 94
2.5753956 -3.3256371 -0.43172535 98
2.6056225 -3.1043181 -0.41174078 32
2.5626221 -2.9919696 -0.41393414 34
2.247968 -2.5005927 -0.42513517 5
2.2724125 -2.4871154 -0.44215176 27
2.442704 -1.8790481 -0.40946832 45
1.6713876 -1.1327999 -0.40547734 51
1.6627299 -0.93100458 -0.40853706 61
1.7258582 -0.89906973 -0.41710001 61
1.8620274 -0.83232456 -0.40575984 56
2.4401426 -0.87634826 -0.41120553 36
2.3394966 -0.68245834 -0.43787026 74
2.4532611 -0.55651057 -0.40591747 50
1.2644057 -0.22818764 -0.42115068 6
1.2208101 -0.098079443 -0.41431475 36
1.3626511 0.24827999 -0.42902097 9
1.8219457 0.45971563 -0.4411951 41
2.0901146 0.82474941 -0.42765489 15
0.72792941 0.99691612 -0.41564378 14
0.76011127 0.92573398 -0.40862444 14
0.9736982 0.9494397 -0.44280806 25
2.0545359 0.95160031 -0.40356505 15
0.67999738 1.1000289 -0.41987777 9
1.9566545 1.1788775 -0.41925761 17
0.49328578 1.34855 -0.44434193 8
0.63587642 1.2055883 -0.41518846 13
0.41048703 1.4038192 -0.42840016 2.6666667
0.45253575 1.3902155 -0.44503686 3
4.8304672 1.3746057 -0.42551747 17
0.44572985 1.532979 -0.41601232 3
0.46066928 1.6272436 -0.40138575 6
0.49223179 1.9678931 -0.41553739 8
3.2850273 2.1640797 -0.40163139 0
-0.43980464 3.2477446 -0.41576061 42
-0.27986911 3.2839854 -0.447301 59
-0.97254258 3.4960198 -0.42596823 107.25
-0.76237267 3.5902934 -0.43426362 107
0.35733408 4.1241193 -0.42159143 85
