# .PCD v0.7 - Point Cloud Data file format
VERSION 0.7
FIELDS x y z intensity
SIZE 4 4 4 4
TYPE F F F F
COUNT 1 1 1 1
WIDTH 180
HEIGHT 1
VIEWPOINT 0 0 0 1 0 0 0
POINTS 180
DATA ascii
1.4433044 3.2918272 -0.90356058 5
1.8243158 3.8542726 -0.91748381 8
1.4898279 4.0270691 -0.90854818 7
2.6923809 -2.314908 -0.75534928 58
2.7058647 -2.265842 -0.79387629 13
2.5230684 -2.1391423 -0.78387552 11
2.7674131 -2.1539257 -0.77719468 3
1.5586606 -2.0156567 -0.78759718 3
1.7960801 -2.0847759 -0.79978567 9
1.9282923 -2.0474164 -0.77804208 0
1.3233632 -1.8637847 -0.75214958 13
1.4327959 -1.929067 -0.7927981 6
2.4591565 -1.882737 -0.78693724 7
2.6421628 -1.824446 -0.79461253 4
1.7761059 -1.7001913 -0.80319256 11
2.1825945 -1.6560459 -0.79060632 9
2.2794244 -1.705003 -0.80073798 9
2.4316273 -1.6685841 -0.79632932 9
3.1817331 -1.6537848 -0.78937465 2
2.7175314 -1.5199618 -0.80321985 4
2.1876709 -1.4848623 -0.79339719 8
2.3018293 -1.3999029 -0.80133778 8
2.4311936 -1.4775634 -0.8001712 7
1.9708556 -1.3116641 -0.79983318 11
2.2046099 -1.3284317 -0.79810375 9
2.8479631 -1.2820721 -0.80160111 5
2.0384195 -1.113546 -0.80194539 10.333333
2.3238459 -1.1752539 -0.80259156 7
2.1416454 -0.95906639 -0.80578035 11
2.5630586 -0.97823006 -0.80478871 6
2.182888 -0.89702874 -0.80723578 11
2.3552365 -0.7366578 -0.80824941 7
2.1490414 1.2822706 -0.84861761 10
3.8422868 1.9241642 -0.75665623 53
3.8306611 2.0225461 -0.83219689 7
1.2908256 2.182683 -0.87150264 3
1.483971 2.8070116 -0.88815355 4
1.0014564 2.9048703 -0.88717872 10
1.9177198 2.9080238 -0.88579357 9
0.72234291 3.0679221 -0.89395899 7
1.7303331 3.0638962 -0.82373989 91.5
0.90981597 3.401403 -0.89713007 11
1.2871907 3.3207574 -0.89201558 6
1.04854 3.5693169 -0.86942524 66
1.3958391 3.6807256 -0.89866239 7
1.2309633 3.7982435 -0.83000761 12
1.6853983 4.3927011 -0.89145845 14
2.4532158 -2.6590002 -0.60291082 111
2.5421517 -2.5341616 -0.62458056 99
2.5731091 -2.4883358 -0.67056775 79.5
1.9233592 -2.2887642 -0.71188378 8
2.6633809 -2.3648684 -0.67746592 50
2.796293 -2.1877787 -0.73942679 0
2.8920162 -2.051868 -0.6496731 81.5
1.0272683 -1.8746681 -0.61141318 87
1.0593905 -1.8371934 -0.64568448 79
1.3838314 -1.8974954 -0.65436053 13
3.0572865 -1.8388628 -0.70486462 21
1.1291912 -1.7648081 -0.68250173 63.666668
3.0370812 -1.2417995 -0.62165815 32
2.9783416 -1.147537 -0.61231697 87
2.9332826 -0.98244333 -0.66106391 9
2.7431147 -0.85407412 -0.64308023 6
2.3750279 -0.6398856 -0.63819581 84
2.33008 -0.56220001 -0.63701534 2
2.230777 -0.40542603 -0.65116763 14
2.359951 -0.3363457 -0.6131568 5
2.3656561 -0.28847641 -0.68585217 51
1.9067451 0.55833489 -0.62678158 74
1.9767535 0.50211543 -0.6497277 65
1.7731338 0.69106692 -0.62286174 57
1.8287878 0.61732924 -0.61778444 72
1.8409734 0.77620262 -0.60182482 42
1.647675 1.045918 -0.67619199 3
1.9569819 0.92394263 -0.63122135 53
0.12243267 1.9021896 -0.63216287 91.333336
0.18179102 1.9107625 -0.61541772 58.5
0.65387446 1.8518844 -0.6770463 2
0.045532893 1.9662317 -0.6155616 84
0.54716069 2.0097387 -0.60028416 0
1.9002953 2.9533958 -0.64389902 145.66667
1.8664677 3.0058155 -0.62245846 150
1.0844027 3.5795608 -0.74551833 43
2.4772251 -2.6138248 -0.55982113 99
2.5999889 -2.4462159 -0.48297524 88
2.7336874 -2.2743533 -0.58531183 91
1.7299578 -2.212471 -0.45355737 5
2.7961056 -2.1801536 -0.52637917 104
1.7748601 -2.0930133 -0.48197487 3
1.0124885 -1.8909514 -0.57560277 55.5
0.82733458 -1.728984 -0.54309314 8
3.132463 -1.7365665 -0.48862976 105
3.2465835 -1.58113 -0.5356195 105.5
3.3076038 -1.5201796 -0.5700866 96
3.3297534 -1.4352643 -0.48023421 70.5
0.7253812 -1.3299155 -0.49139455 1
0.78866774 -1.2923812 -0.48272628 1
3.1477556 -1.3158436 -0.54779673 22
2.994812 -1.1071402 -0.52255279 1
3.0464833 -1.0554705 -0.5888077 84
3.1447616 -0.92624885 -0.58601689 88
2.3375709 -0.6899696 -0.49564651 38.75
2.2422059 -0.48252544 -0.58108169 4
2.2626839 -0.52379429 -0.54088372 4.5
2.4291568 -0.55651945 -0.48701441 16.5
2.2368305 -0.35932836 -0.54510278 12.666667
2.2934151 -0.38634622 -0.48530149 32
2.5530138 -0.40147695 -0.45316154 64
1.5623858 -0.16291347 -0.48964411 66.75
1.4117534 -0.043945119 -0.48478568 41
1.5225732 -0.12654695 -0.53458816 41
1.3631573 0.13835157 -0.45152408 60
1.4378965 0.24099043 -0.48461789 52
1.5089507 0.32934308 -0.53599793 54
1.8851068 0.57044113 -0.53272331 71.5
1.973031 0.4977006 -0.52657247 92.666664
1.5442225 0.7486304 -0.45847881 54
1.7827487 0.68432719 -0.51912224 65
1.8305811 0.61376572 -0.51482791 77.5
1.4182323 0.84938377 -0.47876689 43.666668
1.5033386 0.78530461 -0.48595065 44
1.8742682 0.82537228 -0.54606563 52.333332
1.3699723 0.90141326 -0.48597747 52
-0.35534799 1.3030828 -0.46088353 12
-0.17731227 1.4312969 -0.47680441 9
-0.14306892 1.4782988 -0.49251065 9
0.79421967 1.405099 -0.50412029 0
0.46682882 1.5892117 -0.49110627 37.5
0.67345518 1.5618262 -0.47666875 9.5
-0.051155467 1.6646531 -0.53633368 154.5
0.32839018 1.729218 -0.49371573 42.666668
0.83096224 1.6526964 -0.4716562 0
0.10441409 1.9198358 -0.51016706 88
0.21848422 1.8754809 -0.47665805 113
0.030513525 1.9733022 -0.56753606 88
0.28203213 2.034014 -0.58894026 36
0.31192279 2.0498273 -0.46467733 97
0.37892342 2.1402307 -0.55486858 25
1.9523668 2.9149165 -0.52265775 29
2.6723156 -2.3479149 -0.43264216 102
2.9788225 -1.9376527 -0.41224188 105
3.1022451 -1.7756319 -0.42149836 100
3.2212324 -1.60665 -0.42833525 93
0.72988766 -1.371981 -0.43330181 35
3.3259542 -1.4176891 -0.42375752 73
0.46824497 -1.2537283 -0.42300907 6
0.61489159 -1.3419733 -0.43275407 59
0.31480533 -1.13556 -0.40990505 6.5
2.6221781 -0.953637 -0.43139118 70
2.4351799 -0.54349226 -0.41604346 76
1.5741252 -0.16833723 -0.42994735 37
1.4239745 -0.062780179 -0.4403294 48
1.3213069 0.06078938 -0.43792653 51
1.4248695 0.22599952 -0.4372752 51
1.5091602 0.34230688 -0.43445316 50
1.7785144 0.52027208 -0.43556014 44
1.7989695 0.65032685 -0.41988266 73
1.4075311 0.84806412 -0.42767921 56.666668
1.532585 0.75212193 -0.43543532 60
-0.36133271 1.3038136 -0.43421069 12
-0.26424101 1.3176264 -0.41854152 9.75
-0.45238769 1.3660983 -0.43501469 12
-0.43836474 1.3571361 -0.42139515 12.333333
-0.17370564 1.4435562 -0.43505061 9.5
-0.1318208 1.4996033 -0.43584979 10
0.63186526 1.4906645 -0.42904061 57.5
-0.083638519 1.5853732 -0.42493185 150
0.5000264 1.5585052 -0.44426721 64
0.62389928 1.5511274 -0.40687105 62
0.38963062 1.6819575 -0.43212709 44.5
0.81506091 1.6729848 -0.41814896 3
3.7134259 1.770461 -0.40820953 39
0.17650226 1.9020576 -0.42936856 58.5
0.80746943 1.9311819 -0.4064706 13
0.03572024 1.9698193 -0.41691637 97.5
0.28334874 2.048713 -0.43663698 52
0.62302256 2.0864809 -0.4048568 15
0.3604477 2.1338758 -0.42073017 31
1.7679455 3.0334811 -0.40869752 47
0.927046 3.6672509 -0.43223095 120
