# .PCD v0.7 - Point Cloud Data file format
VERSION 0.7
FIELDS x y z intensity
SIZE 4 4 4 4
TYPE F F F F
COUNT 1 1 1 1
WIDTH 1541
HEIGHT 1
VIEWPOINT 0 0 0 1 0 0 0
POINTS 1541
DATA ascii
1.0441055 -1.1721768 -0.16927724 10
0.084095746 -0.92768544 -0.15974592 5.5
2.2499807 -0.94853538 -0.19188198 3
-0.51067591 -0.76959628 -0.19523673 0
0.10362488 -0.84252071 -0.16946796 6.5
1.9271295 -0.86530125 -0.15019444 3
2.9414983 -0.80163252 -0.1821079 88
-0.51888961 -0.72319138 -0.17269547 0
-0.38453728 -0.67898697 -0.17871693 3.1538463
-0.20639938 -0.70635509 -0.18889754 2.5
-0.10567416 -0.61300266 -0.170545 2
0.23101616 -0.70472121 -0.16614889 8
0.35640541 -0.72739619 -0.18588117 4.5714288
0.48723972 -0.74610949 -0.16924973 7
0.64062464 -0.73678386 -0.19440652 0
0.80826634 -0.66320121 -0.16788557 0
-0.38745046 -0.59706807 -0.1712459 5
3.0055227 -0.35059637 -0.1697588 80.5
3.035964 -0.14757317 -0.18920824 90
3.0628927 0.038846545 -0.19845307 79
3.0914671 0.22653183 -0.19934386 85
3.1065884 0.36876971 -0.17347702 82.5
2.9172168 0.47239912 -0.17365512 15
-0.0026249469 0.88046044 -0.1520789 4
0.012778205 0.85940325 -0.16848105 4.5
0.23426445 0.86112583 -0.15065023 2
0.37935492 0.8890717 -0.15236966 1
0.47327116 0.87643147 -0.15124664 1.5
0.6300233 0.83134264 -0.17839806 9.166667
0.80694193 0.75925362 -0.17902899 9
1.8819489 0.77332723 -0.17607675 69
-0.49675384 0.95743155 -0.17704616 15.833333
-0.41723776 0.93506569 -0.17884554 12.75
-0.23907036 0.92857134 -0.16921829 16.181818
0.069040425 0.98588246 -0.15637676 3.3333333
0.15994053 1.0496023 -0.15211415 2
0.41760197 0.95736682 -0.15470511 1
0.52574456 1.034031 -0.15774348 1
0.61927742 0.9903965 -0.16465004 5.4000001
1.6014929 1.0237522 -0.17476012 49
1.6748011 1.0104582 -0.18727931 57
1.9192472 0.98442745 -0.19163381 87
-0.65824974 1.1662304 -0.15597075 1
-0.15324408 1.1519184 -0.15750499 2
-0.14963281 1.1186658 -0.15561755 3
0.033226203 1.0637583 -0.15307756 2
0.23433255 1.1643647 -0.16707851 7
0.31612095 1.193401 -0.18576157 13
0.60083544 1.1476833 -0.17521401 14
-0.81148249 1.2711313 -0.16595452 13.333333
-0.70838803 1.288234 -0.16807449 7.1999998
-0.090800934 1.2499118 -0.181344 17.25
0.16936766 1.2095507 -0.16957998 11
-0.93185192 1.3680178 -0.16117531 10
-0.8171463 1.353322 -0.18038744 11.25
2.4606969 -1.2076676 -0.10866574 80
1.0551629 -1.1523786 -0.080763645 28
-0.65786141 -0.97400951 -0.075731188 15
-0.58299667 -0.96609819 -0.075112283 10.8
1.9018602 -0.92149514 -0.090881266 9
2.3308089 -0.93111384 -0.10903309 3
2.9141793 -0.98700088 -0.12866595 113.5
-0.63884801 -0.81241405 -0.086129278 4
-0.58810872 -0.81189775 -0.081348345 4.5999999
0.10031626 -0.82897949 -0.11287157 6.5
1.1936743 -0.78094923 -0.13867658 0
1.4192266 -0.85943937 -0.1175497 19.5
1.602783 -0.86332476 -0.081286885 22
1.6784089 -0.89576083 -0.12673071 29
1.9132822 -0.86361814 -0.060487308 5
2.0831354 -0.78732514 -0.11003465 2
2.3561659 -0.89560294 -0.028343057 2
2.9297943 -0.88322103 -0.053785853 63.5
-0.62195051 -0.66251945 -0.088134192 4.1428571
-0.54785651 -0.65419912 -0.086784117 4.7857141
-0.35405168 -0.60408068 -0.081356458 3
-0.094493039 -0.61829782 -0.061576404 2
0.089871198 -0.69753289 -0.10073446 6.9444447
0.19457436 -0.6990363 -0.12230857 8
0.33937764 -0.72697425 -0.1319678 5
0.55542034 -0.73599809 -0.073778957 3
0.63277268 -0.69618767 -0.084936261 0.75
0.82088429 -0.70573139 -0.089211755 0.18181819
0.9296146 -0.68785661 -0.080575123 1.4285715
2.9552252 -0.70459795 -0.07516291 58
-0.618981 -0.57578593 -0.086966559 3.25
-0.51198834 -0.59252751 -0.074574985 10
-0.38172913 -0.58078933 -0.040570337 2.6842105
-0.19896029 -0.55877113 -0.061417788 1.3333334
-0.14285025 -0.59461069 -0.015213152 2.5
2.9856865 -0.53351378 -0.085580975 61.75
2.9979305 -0.36614674 -0.063403241 66
3.020262 -0.20877475 -0.061313231 49.666668
3.0512087 -0.030792946 -0.081124775 52
3.0767288 0.13860476 -0.09608566 51
3.0781476 0.1731558 -0.092360891 59
3.1043053 0.34475082 -0.074622296 30
2.094501 0.51028311 -0.14001846 3
2.2067621 0.51349676 -0.082479328 3.5
2.3241029 0.49831799 -0.027604347 3
3.1305075 0.54206026 -0.069699116 12
3.2898705 0.55908489 -0.052219871 9
0.91697878 0.74206305 -0.14124347 9
1.9076159 0.68452346 -0.10756139 42.75
2.039465 0.61671615 -0.1211235 2
-0.056209181 0.88153344 -0.12657501 9.833333
0.079354227 0.89285278 -0.017580831 2.8
0.27570257 0.83569354 -0.13223511 9.333333
0.34686866 0.82545757 -0.13885519 9.5
0.4991619 0.86883909 -0.14948601 1
0.61659306 0.78786111 -0.13293403 10
0.80499047 0.76249194 -0.13087448 7
1.9029355 0.81701148 -0.05734361 37
2.0234313 0.87619436 -0.040806659 69.5
-0.80966139 1.0050458 -0.13482915 7.7142859
-0.67362243 1.002477 -0.14152279 5
-0.50863087 0.95067567 -0.13157423 10.375
-0.34004721 0.90888476 -0.12982345 9
-0.27637687 0.918293 -0.13443963 11.333333
-0.094138555 0.97168416 -0.070222653 3.6666667
0.095367894 0.90248334 -0.021552419 6.5
1.2444869 1.0481794 -0.041436765 150
1.5848051 1.0337223 -0.05906713 49
1.7622281 1.0124276 -0.07198631 40.5
1.8726301 0.95665735 -0.1091371 22.5
-0.83761233 1.1188862 -0.1481401 7.25
-0.047330994 1.1818649 -0.028450971 1
1.1225402 1.0923707 -0.02018643 33
1.3776246 1.0579288 -0.0022447156 52
-0.9708423 1.2229749 -0.14451148 33
-0.81978554 1.2321419 -0.14761962 1
-0.89019853 1.354472 -0.14958648 4
2.1766689 -1.1109262 0.074036971 39
2.653796 -1.1630919 0.072073303 81
1.8958027 -0.83987653 0.025886979 2.5
2.056649 -0.84983891 0.11331918 4
-0.1591946 -0.60508877 0.0040790392 2
-0.055721123 -0.61574948 0.038223978 1
0.68038011 -0.66666985 0.097884052 1.5
0.82054114 -0.67775798 0.11282102 2.8333333
0.99302167 -0.70562291 0.10759843 2.6666667
1.0999224 -0.72837961 0.11086901 3
3.0264454 -0.66022468 0.076081 40
-0.45354921 -0.55176049 0.073782966 2.25
-0.37250537 -0.55626363 0.072949268 2.6666667
-0.22985244 -0.56845278 0.073145464 2.4411764
-0.099379539 -0.58762336 0.055125345 1.8
3.0530188 -0.53803521 0.049827781 31
-0.25005451 -0.40433955 0.044801261 3
-1.0932896 -0.19060688 0.12618349 0
-1.0493915 -0.19781588 0.072498463 0
-1.0910574 -0.089589693 0.1044833 0
-1.118588 0.0054308148 0.1361793 0
2.0516918 0.5208708 0.04582819 4
2.1794579 0.50707722 0.10384919 1.5
2.3177905 0.4808597 0.0099730445 4
1.9052896 0.74166352 0.058484312 16
0.21512748 0.84482378 0.037928607 0
-0.22027974 0.93761182 0.022250071 0.66666669
-0.053025648 0.9222855 0.070532627 2.5454545
0.030290483 0.9130103 0.031474661 3.1428571
1.5609851 1.0391654 0.077852376 47.5
1.7321056 1.0201669 0.086578079 46
1.8618608 1.0045698 0.099320523 22
3.4425504 0.913243 0.13104647 20
3.4592104 0.97134644 0.11989423 72
1.1042036 1.1298825 0.094436049 45.083332
1.2525091 1.0782664 0.075023495 52.857143
1.4058363 1.0595809 0.086807057 50
2.3836203 1.1773562 0.042018406 1
1.0943476 1.2707317 0.081027724 49.75
-0.067739576 1.4129539 0.10192835 17
0.38690293 1.4519904 0.078174882 4
0.53084552 1.4226984 0.064594515 2.75
0.62497437 1.4086168 0.047894828 1.5
1.1043762 1.3636568 0.046051379 47
-1.4115825 1.5881189 0.10786209 15.833333
-1.2692177 1.6080831 0.078566089 32.700001
-0.79476917 1.6165503 0.089657716 2.5
-0.67675531 1.5934851 0.063896462 2.75
-0.46176434 1.5650669 0.10128718 3
-0.37844983 1.5476512 0.070987031 3.7142856
-0.28155833 1.5378275 0.032573704 1
1.1343607 1.5512245 0.14068061 45
-1.2401322 1.7329559 0.079337038 16.666666
-1.1713425 1.7048808 0.11748823 20.666666
-0.76763731 1.6651299 0.1349656 1
0.35546866 -1.2358102 0.19749302 38.666668
0.54565102 -1.2493328 0.29025045 27.25
2.1483467 -1.2017288 0.20469844 53
-1.3288193 -1.1093867 0.28565478 31
2.1515946 -1.1819319 0.28286862 150
2.2513371 -1.0712782 0.22336876 12
2.4659395 -1.1971121 0.19929248 10
-1.3431412 -1.0418154 0.2790193 2
2.2315738 -0.89229995 0.29572314 0
3.2133827 -0.81768668 0.231332 15
0.67439419 -0.72284997 0.24998675 3
0.81250131 -0.64921403 0.23377706 1.4545455
0.93476206 -0.65938264 0.16223942 1.6666666
3.0167861 -0.62901461 0.27156556 50
-0.38149995 -0.53110462 0.17607123 2.125
-0.2365475 -0.52985764 0.16166383 2.5
0.85075015 -0.58822054 0.21767044 1
3.0370138 -0.5754571 0.20750815 29
-1.1791208 -0.32255962 0.25861153 3.4000001
-1.2129954 -0.1777501 0.27947885 0
-1.1254054 -0.22694755 0.18598448 0.8888889
-1.2256421 -0.082607932 0.26464272 0
-1.1948746 -0.12083601 0.22439986 0
3.3802133 0.4184936 0.24285269 20
2.1721566 0.54753441 0.20982154 2.6666667
2.3388255 0.48557985 0.24833935 3
1.5727127 1.0455308 0.2168764 46.75
1.7381862 1.0256101 0.23867436 42
3.4574366 0.90684843 0.21283561 19
1.1104953 1.1263037 0.23698178 42
1.2717456 1.0805322 0.21753037 48.166668
1.4204929 1.0627277 0.22814712 49
3.372463 1.0878941 0.20862117 38.5
3.4708335 1.0524956 0.29475242 92
1.0948749 1.289356 0.20821892 46.42857
-0.17782539 1.443061 0.15768369 6
-0.12365349 1.4533408 0.16579837 3.5
1.1135 1.4322443 0.22777756 45.5
-1.3722731 1.5566636 0.20434792 11.666667
-1.2431036 1.5921206 0.20755371 22.25
1.1327423 1.5664495 0.23944871 45.666668
-1.4181525 1.6512629 0.17730337 5
-1.2544477 1.6655157 0.21385208 27
-1.174238 1.6967268 0.16718404 26
1.158324 1.7559129 0.2538777 43
0.43240201 -1.2195873 0.30910605 1
0.46875429 -1.2197371 0.30893666 28
-1.2564236 -1.0920813 0.40469399 10.5
3.1247249 -1.1429665 0.42645442 35
-1.5597119 -0.90736651 0.38421056 67.666664
-1.4003075 -0.94809192 0.36778232 38.222221
-1.3005967 -1.0006227 0.38527888 10.25
3.141623 -0.9882611 0.39141738 77
-1.5339465 -0.89634639 0.38574827 68
-1.3812156 -0.77649897 0.41617975 6.6666665
-1.2995814 -0.83498454 0.40458885 10
3.1946192 -0.84584409 0.36834621 27
-1.4174469 -0.72674704 0.43088076 6
0.82391649 -0.68596953 0.31442827 4.3333335
0.92841643 -0.65782982 0.30022269 0
-0.37060833 -0.56185031 0.3180483 0
-0.25762901 -0.50528848 0.34764624 0
-0.12978989 -0.59126604 0.33361581 0
3.0774753 -0.52712202 0.34039423 6
-1.2424723 -0.3354834 0.39306578 5
-1.1916565 -0.33917168 0.30477685 3
-1.2413653 -0.22408254 0.37891173 0
-1.2477027 -0.078386955 0.37645641 0
-1.390013 0.05118119 0.38625324 6.125
-1.2851169 0.0020655617 0.41716439 0
3.3941739 0.40868831 0.35548332 8.5
1.6463261 1.0416991 0.366189 39
1.7638518 1.0363917 0.38862157 43.5
1.8446474 1.0211716 0.35358554 49
3.4734976 0.99905032 0.37213907 77
1.1143569 1.1166524 0.36463663 34.42857
1.2788005 1.0851781 0.35708418 46.799999
1.4331071 1.0665073 0.37078685 44
1.5798836 1.0516124 0.36213744 43
1.0908624 1.2604138 0.36700374 44.25
3.4824655 1.2265359 0.42643255 1
1.114061 1.4293112 0.38757753 42.857143
1.1322994 1.5764689 0.36609226 39.5
3.5563307 1.6028808 0.32849568 3.5
1.1515664 1.704334 0.37399375 40.599998
1.1744643 1.843237 0.38514912 48
-1.274397 -1.0813371 0.52814686 54.400002
3.1288533 -1.0651941 0.55069554 63
-1.5937016 -0.91275781 0.46721506 42
-1.4373121 -0.95064175 0.50002962 39.200001
-1.322471 -1.0138651 0.49974197 32.799999
3.1351633 -1.0146997 0.56879473 70
3.1522381 -0.90262896 0.47738248 68
-1.6929256 -0.87569314 0.46302706 12
-1.5802219 -0.88844258 0.48009855 11
-1.465999 -0.86619079 0.50433111 43
3.1457691 -0.89731222 0.56320244 79
3.165401 -0.86608982 0.49497953 54
-1.4342877 -0.72387421 0.46104008 11
-1.2444469 -0.32101333 0.4893589 5.25
-1.232453 -0.2333575 0.51198733 2.1428571
-1.2859904 -0.071211353 0.51676255 1.2857143
-1.3849583 0.059639681 0.51500618 12.666667
-1.5252826 0.28295416 0.48139399 0
3.3754597 0.42836025 0.53471023 15.5
1.7212126 1.0432582 0.49072039 48
1.8743446 1.0084795 0.51266265 2
3.4794273 1.0164768 0.50336921 75.5
1.5496117 1.0585876 0.46053445 42
3.4740734 1.0718712 0.53675663 72
1.0950813 1.2933402 0.49511859 45
3.5028222 1.2423873 0.55318248 67.666664
1.111465 1.4207004 0.52760524 39
3.5300274 1.4570224 0.54658365 32
1.1316346 1.5750901 0.52507114 29.5
1.1562368 1.7055624 0.53974599 48
3.5698423 1.6814175 0.50831103 58.333332
1.1774499 1.8764566 0.50228417 32.799999
2.9292536 -2.5654676 0.68250054 64.5
2.9441597 -2.467253 0.61592317 66
3.0673103 -1.5253397 0.65380609 68
3.0853794 -1.3862867 0.6945194 65
3.1110907 -1.2404599 0.66691417 36
-1.2932591 -1.0786077 0.61680555 15.5
3.1225526 -1.1408981 0.67906475 55
-1.5388471 -0.94203597 0.64252287 17.666666
-1.4058894 -0.97332668 0.68057644 28.125
3.1438081 -0.97394222 0.69949222 66.25
-1.414292 -0.86600059 0.74343479 26
3.1846235 -0.81672966 0.64265543 31
3.1927619 -0.65550494 0.72221148 56
3.2134249 -0.52361017 0.69847184 36
3.2461941 -0.35222253 0.68776149 26.666666
3.2603912 -0.16487318 0.69786727 44
3.3269033 -0.21353708 0.65816736 3
-1.2768395 -0.090842515 0.69839603 11.222222
3.2908552 -0.0075350516 0.68034267 36
3.3370967 -0.027990239 0.64792073 5
3.3293273 0.13137269 0.63465118 5
3.3337882 0.22273447 0.65250528 21.5
3.3342621 0.31839871 0.66357183 36
3.3576171 0.46898133 0.6529479 37.5
3.3852091 0.63765818 0.66684365 42
3.4110758 0.8034718 0.65804857 38.666668
3.4265795 0.9605689 0.70194542 63
3.460453 1.0037732 0.68244231 66
3.4876151 1.1664907 0.70474672 61.5
3.5257957 1.4351864 0.65715891 60
1.1359063 1.5824836 0.66607976 28.666666
1.1628011 1.7319684 0.67656261 38.666668
3.5700886 1.6901702 0.67037988 58.333332
1.1765143 1.8428704 0.6603561 34.333332
2.881891 -3.0850918 0.8811475 9
2.3280294 -2.8047431 0.84142566 15
2.9301159 -2.8126526 0.80584919 61.75
2.9434509 -2.4745193 0.82085079 56.5
3.0665629 -1.5683771 0.82806808 57.333332
3.0828297 -1.4113785 0.83126926 71
-2.4618034 -1.3288497 0.83566594 61
3.0955341 -1.2981052 0.8505547 58.75
-2.5269942 -1.1447991 0.86186409 150
3.1252761 -1.1294756 0.80113012 59.5
-1.3557162 -0.93814307 0.77317834 30
-1.3368899 -0.9585582 0.87993431 7
3.1396279 -0.99174571 0.84207428 59
-1.435099 -0.8510825 0.8223753 11
-1.3439509 -0.89826709 0.82157218 16
3.1737454 -0.81921941 0.8108452 50
3.1883121 -0.66616237 0.778552 60.5
3.2155828 -0.47676209 0.8203457 62.5
3.2377176 -0.33439204 0.84723163 57
-1.3089695 -0.227736 0.82664382 2.25
3.251662 -0.19716857 0.85821456 58
-1.3879576 -0.010357452 0.85241556 2
-1.2407647 -0.077734299 0.7918998 2.8571429
-1.1832222 -0.14799087 0.84514999 0
3.2758126 -0.052007977 0.83945978 59
3.2950773 0.095424809 0.82535058 58.5
3.3128495 0.24594213 0.81665111 54.5
3.339278 0.39849475 0.8171578 56.5
3.363977 0.55710757 0.82296854 57
3.3856997 0.71836185 0.83532721 56.5
3.4193606 0.91854084 0.79824531 60
3.4844084 1.1114576 0.83595228 63
3.5063946 1.2881166 0.81465387 63.666668
3.5257704 1.4223475 0.82975054 64
3.5512524 1.5941776 0.83533794 53
1.1583369 1.712885 0.81864977 39
1.1783813 1.8741455 0.80723631 27.799999
2.8819954 -3.1697395 0.97528172 50
2.3106208 -3.0561144 1.0301448 14
2.8909626 -3.104542 0.97257823 61.666668
2.9079792 -2.9783878 0.97374105 56
2.9339414 -2.8030088 0.97463536 60
2.9299834 -2.6174076 0.98517644 55
3.0694401 -1.5471946 0.93363398 60
3.0796049 -1.4561062 0.96515036 57.25
-2.6948099 -1.2179071 1.0468506 150
3.0993342 -1.3134071 0.9850111 55
3.1232657 -1.1285233 0.96505362 53
-2.7186985 -1.0140024 1.011506 72.666664
-1.3552744 -0.92771363 0.96664709 0.5
3.1475751 -0.93551487 0.90964568 53
3.1535881 -0.90498984 1.0213892 52
-2.6903408 -0.78596503 0.98343247 66.333336
-1.3748572 -0.86755598 0.91265422 2
3.1769643 -0.77233332 1.0012761 52.5
3.1930003 -0.62833238 0.95455873 57
3.2132537 -0.49235654 0.95252037 54
3.2304411 -0.34865975 0.92202795 56
3.4096758 0.85617298 0.91385877 56
3.4655476 1.0336785 0.95332348 57
3.4959636 1.2130812 0.99199653 58
3.5199702 1.3972341 1.0378233 57
3.5329885 1.5030894 0.91578948 59
3.5731859 1.733285 0.94525415 59.5
1.1832514 1.9028071 0.96398163 30
2.8880508 -3.2584436 1.1899909 9
2.8981016 -3.0431635 1.1575505 56
-2.7982619 -2.8820453 1.1677864 88
-2.6308327 -2.9159708 1.1353195 82
2.9253228 -2.861716 1.1571841 63
2.9487407 -2.4218922 1.0816647 52
3.0654612 -1.6034528 1.0819743 3.5
-2.7484088 -1.4639652 1.1005162 111.5
3.0879235 -1.4455311 1.1387928 58.5
-2.7437067 -1.2432137 1.1109071 84.5
3.1110475 -1.2460909 1.056878 51
-2.7348852 -1.1608025 1.1615144 68.333336
3.132966 -1.107294 1.1273646 50
-2.7071953 -0.94817108 1.1152219 69.333336
3.1498833 -0.9259398 1.0812374 50
11.667176 -0.12060635 1.1786597 1
3.5524828 1.5925756 1.0962892 54
-4.1270986 4.1485796 1.1873885 96
-4.0522804 4.65447 1.0819342 82
-4.0450335 4.6893101 1.183274 83
2.7445173 -3.618129 1.3339037 58.333332
2.8999619 -3.1041515 1.3396379 68
-2.8513608 -2.8863666 1.2101183 6
-2.6357429 -2.9144979 1.2355707 79
2.937923 -2.6545451 1.2811939 52
2.9376683 -2.4658816 1.2837646 51
2.9660828 -2.3086166 1.3028741 48
3.0734556 -1.5653421 1.2446556 47
-2.7737625 -1.4147224 1.2752246 66.333336
3.0880103 -1.4355106 1.3022609 55.5
-2.7519083 -1.2984221 1.3470358 71
3.108763 -1.284351 1.220578 50
-2.7308931 -1.1294787 1.2987541 68.400002
-2.7209923 -0.94246238 1.3073375 9
-2.6993062 -0.90138721 1.2240522 7
11.578278 -0.7415635 1.2723014 1
-4.189898 3.6778958 1.2796596 94
-4.1156688 4.1713085 1.2838087 96
-4.1117158 4.2169313 1.3340696 87
-4.0408044 4.7245731 1.2262154 86
-4.0152202 4.8573151 1.2778889 82
-3.950947 5.3481755 1.2514619 58
2.4476664 -3.616622 1.4187568 1
2.676656 -3.6187003 1.4101754 59
2.9253514 -3.626128 1.4703286 1
2.4864945 -3.5904703 1.3848331 2
2.9422507 -2.7021422 1.4905177 56
2.947813 -2.4770112 1.4609456 51.666668
-2.8033867 -1.6218097 1.4646729 48
3.0722532 -1.5938368 1.3968244 37
-2.7862082 -1.4788102 1.3938472 58
-2.756223 -1.2939203 1.4408424 63
-2.7261407 -1.0857238 1.3906999 63.666668
-2.7141581 -1.0151479 1.4292603 35
11.512753 -0.95098448 1.463956 1
-2.6751993 -0.64939791 1.3617555 6
-4.2922997 2.8333721 1.4327029 94
-4.2360306 3.2490954 1.4064341 87
-4.1836052 3.7032571 1.3759223 94
-4.1702728 3.7945809 1.4465852 89
-4.1026502 4.2892332 1.4385763 89.666664
-4.0838375 4.3600178 1.4832696 86
-4.0285025 4.7721515 1.3592079 85.5
-4.0200653 4.8834057 1.4491501 81.333336
-3.952265 5.3948197 1.3616377 61
-3.936816 5.4877944 1.426569 53
2.5934627 5.9253263 1.4231111 29
2.9672797 5.8871727 1.4628654 19
3.1534863 5.8511372 1.4466373 31
-0.78823203 6.3851786 1.4783854 19
-0.4592537 6.3527164 1.4908286 22
2.3978858 -3.6288702 1.5487248 11
2.8571353 -3.6129789 1.6184024 24
1.5711817 -3.51087 1.634154 13
1.7958615 -3.544183 1.5464269 14
2.6038938 -3.5965133 1.5686655 59
2.9172328 -2.8931639 1.5039582 61
2.9489379 -2.6931541 1.6248971 60
2.9537914 -2.4690886 1.6032213 54
-2.8090937 -1.699657 1.5639988 54
-2.785691 -1.5386658 1.5240966 53.5
11.442116 -1.5570817 1.6027191 1
-2.7696335 -1.4011912 1.5593436 55
-2.7602828 -1.3328251 1.6160598 51
-2.733428 -1.1080426 1.567643 59
-4.4501944 1.7368479 1.6324378 96
-4.4030042 2.0906169 1.5723468 97
-4.3474092 2.4631715 1.5536215 97.5
-4.2817159 2.9089298 1.5768796 89.333336
1.6998966 3.188374 1.6475722 47
2.1470501 3.2372 1.6499106 43
-4.2241421 3.3478136 1.5633373 76.333336
-4.1944709 3.362601 1.6458837 56
1.7657411 3.3316762 1.6482478 50
1.9056127 3.3509202 1.6346954 40
1.9881368 3.3183944 1.6425799 50
2.2339706 3.3883421 1.6477331 44
2.3036623 3.4431441 1.6380812 36
1.2777784 3.5738826 1.6464094 50
2.2369828 3.5211523 1.6330513 45
0.31627339 3.7260077 1.6497065 49
1.4975178 3.7389901 1.6463338 55
1.5782714 3.6805985 1.6439686 54.333332
2.1141789 3.6790845 1.6495014 45
2.4205804 3.6295679 1.6349839 37
-4.1627822 3.827507 1.5679379 86.666664
-0.63211054 3.8475709 1.6496717 51
1.5863607 3.7838416 1.6334068 54
1.7136662 3.8273461 1.6381801 53
1.9572227 3.7973371 1.6471094 67
2.4789464 3.8430612 1.6228708 39
-0.41658813 4.0302358 1.6463279 58
0.31739658 3.9373987 1.6418022 1
0.5403927 4.0229292 1.6364558 21
0.66119605 4.024127 1.63577 60
1.5402038 3.9120584 1.6321555 51
1.8926303 3.946851 1.6269138 46.599998
2.0635478 4.002377 1.6263388 44
2.298064 3.9462965 1.6334139 48
-0.55806828 4.1512194 1.6392018 54
0.72687429 4.0818691 1.6449929 57
2.1971819 4.1084156 1.6193278 32.5
2.3283463 4.1558723 1.6251824 18
2.4649239 4.1986976 1.6266888 18
2.6943233 4.1249924 1.633593 19
-4.0936432 4.3353376 1.6250495 94
-0.69867778 4.2219558 1.6409742 65
-0.47194937 4.2208757 1.6426898 55
-0.40796492 4.2498512 1.6349872 61
0.79737967 4.2299085 1.636865 4
1.9358575 4.2114315 1.6194631 2
2.6084445 4.2262588 1.6258224 22
2.7409759 4.3216491 1.6106111 32
2.8774834 4.3459845 1.6050093 32
3.0243287 4.3357377 1.6062536 22
-4.0810032 4.3869991 1.5778072 90
-1.7927262 4.3944077 1.642455 55
-1.4391104 4.399847 1.6381103 62
-0.43671691 4.4031906 1.6251034 54
-0.19651356 4.3948812 1.6252583 48
2.7475364 4.3734059 1.600106 33
-1.5427382 4.5939837 1.625542 38.5
-1.1983123 4.6358285 1.6287659 26
-0.38157246 4.5819783 1.6305703 21
-0.18629031 4.628118 1.6238469 39
2.8358786 4.5786715 1.5940812 33
3.1010497 4.6389108 1.5810416 31
-4.0343037 4.7646031 1.633746 80
-2.6062779 4.7165418 1.645155 22.5
-1.4454789 4.7357202 1.6335729 29
-0.45184383 4.6597514 1.6297406 38
-0.22937264 4.6508527 1.6266984 52
-0.13086189 4.7177873 1.6273402 51
-4.0187774 4.8880148 1.5496171 84
-2.552238 4.8975658 1.6404663 14
-1.6293833 4.9430718 1.6238083 49
-1.2986352 4.900012 1.6234319 50
-0.17097525 4.8513341 1.6129125 50
0.064723238 4.8236103 1.6102251 3
1.5164926 4.9070697 1.6113241 3
1.7042518 4.9458151 1.5909324 37
2.9291008 4.8567047 1.5788883 33
3.3912911 4.8648229 1.5771499 16
-2.5400965 5.0441427 1.6394337 14
-0.16611274 5.0875735 1.6084486 43
0.10183875 5.0591455 1.595351 3
1.6495215 5.0664282 1.5900216 2
-2.3893349 5.215621 1.6394058 34
-1.4189228 5.1868725 1.6100509 27
-1.3274664 5.1700897 1.5945983 2
-1.0056798 5.1853905 1.6117476 54
-0.15984219 5.1275759 1.6065296 50
-0.0462838 5.1220441 1.6067852 3
3.5655351 5.2226181 1.5531906 29
-2.892199 5.2784414 1.6447133 26
-2.5849276 5.3581963 1.6206867 2
-3.5981143 5.4479837 1.6322833 28
-2.5178456 5.4676509 1.5970232 7
-1.08479 5.4913554 1.6006303 40.5
-0.76369959 5.7966342 1.5794967 36
-3.1807632 5.9637542 1.6169457 3
-1.2241255 5.9462919 1.5870289 26
-1.0995755 5.8532076 1.5802326 36
2.831558 5.8810444 1.5057608 6
-1.0870986 6.0035238 1.5758051 36
-0.96403921 6.0686374 1.5764027 36
-1.1617985 6.2666121 1.5565314 29
-0.81701958 6.1706076 1.5678806 31.5
2.3435524 -3.6108053 1.6948258 9
2.8111606 -3.6094449 1.7615851 65
1.5398097 -3.5172904 1.7791234 13
1.724738 -3.5262959 1.6655372 13
2.1119981 -3.5950599 1.6682221 14
2.5516016 -3.58673 1.7023124 59
2.5355814 -3.0482557 1.7898227 53
2.8750632 -3.1208835 1.7404815 47
-2.6834915 -2.875514 1.7708467 66
2.9210007 -2.9318986 1.7093788 60
2.9455152 -2.7367451 1.6710821 56
2.6267927 -2.6395812 1.765007 25.5
2.9402142 -2.6612291 1.7392138 52.666668
2.6331496 -2.4240701 1.7413131 0
2.9439869 -2.4976373 1.6976553 55.5
2.633352 -2.2771444 1.7552558 47
2.9388821 -2.3077877 1.7736248 9
2.668432 -2.1615806 1.7323817 6
2.950845 -2.224818 1.749729 12
-2.8059661 -1.689518 1.6607956 55
-2.7948995 -1.6215158 1.6781839 53
-2.7794354 -1.4316661 1.7634016 48
-2.7495899 -1.2657837 1.73185 54
-2.7311916 -1.0997052 1.726791 54.5
-2.7182431 -1.0186152 1.7106231 52
-0.58280337 0.55906153 1.798209 82
-0.92941362 0.74820143 1.7968389 73
-0.82171249 0.69747633 1.7968578 73.800003
-0.69500369 0.67092854 1.795717 73.199997
-0.52636367 0.70672208 1.7964035 77.400002
-1.8128873 0.8855654 1.7981669 80
-1.7748101 0.84984237 1.7999092 89
-0.95763022 0.81246996 1.7943565 71.75
-0.80763406 0.84246629 1.7940096 71.714287
-0.68180948 0.82197267 1.7926546 76
-0.55138415 0.83869255 1.7900751 73.800003
-0.43661702 0.83485287 1.7885712 78
-1.8858155 1.0339711 1.7901829 90
-1.7081456 0.96129274 1.7975104 85.25
-1.6015893 1.0088427 1.7936124 82
-1.4212354 1.0087203 1.794582 87
-1.2707177 0.96584409 1.7954792 88.25
-1.139814 0.98700786 1.7967161 89
-0.99410361 0.98864812 1.7952995 85.333336
-0.82662344 0.96560085 1.7905238 73.5
-0.6802386 0.96170008 1.789258 76.428574
-0.52552831 0.9896816 1.7845933 68.5
-0.39546734 0.97823548 1.7882574 65.5
-2.9566305 1.1466969 1.7970351 74
-2.4600258 1.1348196 1.7971605 81
-2.3331585 1.1542366 1.789735 69
-2.1607213 1.1473168 1.7938421 75.25
-1.717697 1.1055062 1.7880565 77.666664
-1.6052393 1.1302279 1.7873441 86.666664
-1.385141 1.178701 1.791135 80
-1.2521795 1.119359 1.7915099 82
-1.1399916 1.0973067 1.7892517 85
-0.94595546 1.1367184 1.7902919 87
-0.80391866 1.1150296 1.7902286 86.400002
-0.67910987 1.1236793 1.7864693 83.111115
-0.52343148 1.1356791 1.7817906 78.14286
-0.39843988 1.1544939 1.7861298 82.666664
-3.2640891 1.3180544 1.7974535 74
-2.7449985 1.3061547 1.7933719 77.5
-2.6639774 1.3436238 1.7972146 84
-2.2858307 1.2610103 1.7898937 79
-2.1777995 1.2520429 1.7921412 76
-1.8611953 1.2359464 1.7868897 79
-1.7091354 1.2482182 1.7797068 86.666664
-1.6035366 1.2976811 1.7801542 87
-1.2869971 1.2861695 1.7814889 85
-1.1325197 1.2498343 1.7827623 78.599998
-0.94526815 1.3111054 1.7795058 71
-0.82743263 1.27897 1.783317 75.666664
-0.68665665 1.2803826 1.7824672 77.75
-0.51116854 1.2686042 1.7768997 78.5
-0.37701702 1.2729201 1.7784557 77.166664
-0.25190592 1.3327924 1.779508 67
-4.4892387 1.3920593 1.7374258 101
-3.1495047 1.369285 1.7964193 81
-2.9248638 1.3847843 1.789476 79.666664
-2.815248 1.3510578 1.79554 79
-2.4427361 1.3771279 1.7892836 77
-2.2881248 1.440556 1.7847465 74.5
-2.1908557 1.3935919 1.7858963 79.333336
-2.0853708 1.3852028 1.7843894 79
-1.8200551 1.4396784 1.774295 74
-1.6966617 1.4344438 1.7764397 76
-1.5710998 1.4333291 1.7760159 79.25
-1.241274 1.3566259 1.7797357 75
-1.1173363 1.3895895 1.7752039 75.599998
-1.030802 1.4515296 1.772451 74
-0.80315429 1.4436399 1.7721498 73.75
-0.66160488 1.4167854 1.7735448 72.666664
-0.5129295 1.4244469 1.7688079 73
-0.36926466 1.412555 1.7668635 74.428574
-0.26376247 1.4407173 1.7663671 72
-3.6551747 1.6182379 1.7966105 70
-3.2932203 1.6088351 1.7865561 77
-2.9637432 1.637782 1.7826775 66
-2.7852345 1.5965475 1.779987 81
-2.6473589 1.5846587 1.7870485 82
-2.4177551 1.6294332 1.7786425 75
-2.2895079 1.6191287 1.7771717 71
-2.1452296 1.5740924 1.7808355 79.666664
-2.0552459 1.5922873 1.7779368 85
-1.6680286 1.6444901 1.759575 74
-1.5794511 1.5879965 1.7670979 75.25
-1.4783511 1.6247762 1.7628866 74
-1.2801853 1.5231018 1.7701 74
-1.1353334 1.5256662 1.7673851 74.666664
-1.0023296 1.5860527 1.7625456 53.599998
-0.80752331 1.6032906 1.7592629 27
-0.65821803 1.5573559 1.7604717 51.875
-0.53068399 1.5934857 1.7603655 37.666668
-0.36396861 1.5783685 1.7570266 38.25
-0.21672593 1.5788251 1.7585911 34.5
-0.13271083 1.5405689 1.7589685 26
-4.4474773 1.7455149 1.7313429 110
-4.1352897 1.7555988 1.7997037 60
-3.9318233 1.7007512 1.7983872 75.5
-3.7068622 1.7395639 1.7921944 69.666664
-3.5616989 1.7045876 1.7878631 65
-3.428664 1.6931005 1.7878796 79
-3.2226229 1.6826495 1.7956923 91
-3.1452043 1.6666199 1.7830619 78
-2.933399 1.7063864 1.7760068 75
-2.7104652 1.7984087 1.7637421 79
-2.1983869 1.7026982 1.7718682 71.5
-2.0911381 1.7470545 1.7666458 58
-1.7734828 1.6528513 1.7634917 69
-1.5386467 1.6942091 1.7602259 55.5
-1.4844642 1.7689008 1.7637774 33
-1.2140318 1.7048966 1.7632879 36
-1.0866457 1.6998751 1.7563373 35
-0.97495276 1.7222162 1.7540613 41
-0.88603401 1.7962868 1.7543398 67
-0.64444745 1.7108123 1.7537193 36.799999
-0.51022786 1.742824 1.7498053 50.57143
-0.39208499 1.7266966 1.7480654 58
-0.22358732 1.7176406 1.7472084 60.75
-0.079604879 1.7288232 1.7446678 64.5
0.020504605 1.7654283 1.7452074 69
-4.4234743 1.8179361 1.7921571 90
-3.9446704 1.8487716 1.7915055 69
-3.6784108 1.9455355 1.7835196 83
-3.3227029 1.9216335 1.7758344 71
-2.9527378 1.932598 1.7723747 56
-2.7974427 1.8954748 1.7667493 78.666664
-2.623966 1.8349808 1.7731947 57
-2.381671 1.8917444 1.7645227 36
-2.1596019 1.8607585 1.7632722 30.75
-2.0168886 1.8067831 1.7681552 34
-1.7170368 1.8757385 1.7540425 33
-1.5673965 1.8376998 1.7565445 34.666668
-1.4653001 1.8719219 1.7539362 51.666668
-1.1347547 1.8852854 1.7471832 64
-0.97217619 1.8521887 1.749045 61.799999
-0.63031226 1.9139068 1.7491862 61
-0.51502097 1.8460438 1.7431936 66.400002
-0.38149309 1.8867794 1.7411994 66
-0.20186803 1.8610193 1.7374643 72
-0.086680725 1.8712957 1.7371079 72.875
0.05120362 1.880181 1.7400864 65
-3.9447792 2.0556877 1.7838287 69
-3.7722878 2.0262902 1.7863339 69
-3.5705605 2.0410297 1.7712747 68
-3.4421535 2.017 1.7743067 73.5
-3.2191463 1.9798009 1.7809983 85
-3.1456823 1.9899697 1.7768232 82
-2.9112172 2.0060601 1.7631761 59
-2.7178671 2.0932031 1.7564183 69
-2.1739278 1.9923204 1.7567352 70
-2.0526214 2.0493426 1.75578 69.25
-1.548769 2.0738766 1.745308 68
-1.4349546 2.0255976 1.7466524 69.400002
-1.0063843 2.0650713 1.7470864 61
-0.85672802 2.0089066 1.7444897 60.833332
-0.4917717 2.0412149 1.7422756 56
-0.36994886 2.025919 1.7395772 62.166668
-0.25207436 2.0232897 1.7357143 61.5
-0.063811526 2.0293779 1.7339519 67.400002
0.072751448 2.0126173 1.733364 64.571426
0.2260104 2.0401785 1.7298696 69
-4.389359 2.1543527 1.7137785 105.66666
-4.2392654 2.1445675 1.788114 72
-4.1778851 2.1296225 1.7836643 69
-3.9691882 2.2316206 1.7780122 69
-3.6995325 2.1179225 1.7711302 64
-2.7632754 2.1699386 1.755389 71
-2.6003442 2.1034648 1.7626826 76
-2.3332188 2.1667116 1.7464737 74
-2.2043321 2.1215217 1.7494441 66
-2.0952113 2.1738312 1.7496268 65
-1.6500859 2.1082885 1.7431911 68
-1.3917598 2.2116938 1.7415104 66.333336
-1.2984782 2.1992185 1.7423495 74
-0.80164069 2.1991787 1.7366512 58
-0.73210025 2.1193454 1.7420579 60
-0.37648129 2.1943264 1.7325068 55.5
-0.18834715 2.2019439 1.7308357 60.400002
0.097758003 2.1532533 1.7269536 62.166668
0.21844503 2.1682224 1.7255617 60.799999
0.33406734 2.1864233 1.7232877 61.666668
-3.7025201 2.2963336 1.7669221 68
-3.4600382 2.3290184 1.7538563 66
-3.3499553 2.2583914 1.7600392 65
-3.216857 2.2989099 1.7655917 67
-3.1290822 2.3259444 1.7590517 64
-2.9180226 2.2934039 1.7615821 53.5
-2.8250973 2.2535665 1.7569655 79
-2.575048 2.3951917 1.7542855 74
-2.1349087 2.328496 1.7406802 72
-2.0361631 2.3217762 1.7434373 70
-1.9196423 2.2689636 1.7439646 71
-1.5703577 2.3558452 1.734212 63
-1.4144711 2.2949903 1.7372565 65.333336
-0.94605285 2.2870297 1.7378894 61
-0.68282449 2.3311305 1.7299013 57.799999
-0.24838567 2.3524311 1.7237787 60.5
-0.075681426 2.3367178 1.7207438 60.333332
0.22296956 2.2891116 1.7180116 61.200001
0.37039813 2.3351305 1.7184439 61.42857
0.50392729 2.3160121 1.7199936 63.666668
0.60830432 2.3976579 1.7137312 61
-4.283133 2.5318205 1.7305704 85.666664
-3.9889667 2.4433994 1.7699541 62.666668
-3.8289015 2.4059725 1.7763561 69
-3.7140739 2.5013509 1.7593439 63.5
-3.5813878 2.4054198 1.7543584 62
-3.4465318 2.4009316 1.7640907 72
-2.7418995 2.4695847 1.7492565 73.333336
-2.2855253 2.4679666 1.736451 71
-2.0486107 2.4997187 1.735272 71
-1.8565557 2.5208967 1.728989 80
-1.3849334 2.5480363 1.7266775 55
-1.296447 2.4509187 1.7307526 60.400002
-0.79428816 2.4657764 1.7322302 57.5
-0.64112592 2.4607129 1.7237513 58.5
-0.53523302 2.4754961 1.7302092 58
-0.045262307 2.4473021 1.7177434 58.5
0.077922106 2.509166 1.7159185 62.25
0.38702622 2.4466672 1.712567 58
0.52412605 2.4811172 1.7076924 58.142857
0.68210804 2.4557824 1.7122285 54.5
0.76205295 2.5258448 1.7057614 57
-4.2928538 2.5779452 1.7238556 85
-3.9969101 2.6483188 1.7630991 62
-3.7414336 2.6886892 1.7569 68
-3.3850186 2.6340103 1.7481257 58
-3.2230127 2.6528158 1.7555169 66
-3.1136894 2.6941035 1.7469298 68
-2.8903401 2.6352298 1.7480332 48
-2.7991142 2.5843072 1.7399656 62
-2.0077672 2.6266036 1.7260971 75.5
-1.4790393 2.6190944 1.7247392 63
-1.2550355 2.6080465 1.7230405 57
-1.1287194 2.6336639 1.7229341 67
-0.6331647 2.6288798 1.7195522 53
-0.54504251 2.6095479 1.716408 55.400002
-0.41668975 2.6607797 1.7186974 58
-0.1181168 2.562495 1.7190567 58
0.066738576 2.5947297 1.7153413 58
0.20753522 2.640254 1.7095175 60.75
0.54889917 2.5912905 1.7040007 58.5
0.67444181 2.6268914 1.6981936 53.666668
0.81442887 2.6110458 1.6965311 54.75
0.96233869 2.6456709 1.6921684 54.333332
1.0963249 2.6842318 1.6933237 49.5
-4.0160975 2.8211234 1.7462844 64
-3.872155 2.8128536 1.7529737 63
-3.6065242 2.8145769 1.7462147 59
-3.5010798 2.7296841 1.7501723 52
-3.4495621 2.7778087 1.7470087 68
-2.7094722 2.7921677 1.7343122 63
-2.5444615 2.7142751 1.7466089 72
-2.2173834 2.7832434 1.7185267 63
-1.9788145 2.7554603 1.7263235 67
-1.7902844 2.8023958 1.722885 70
-1.2280003 2.7480261 1.7147442 61
-1.1678885 2.821362 1.7076958 65
-0.69372451 2.712924 1.7179641 58
-0.47327578 2.7975874 1.7123849 52.5
-0.4117507 2.8176711 1.7033429 57
0.048571002 2.7255411 1.7076038 61
0.23873436 2.7503338 1.7031146 55.333332
0.37689567 2.8008463 1.6969383 57.25
0.81971323 2.7469063 1.6879339 55.5
0.9398005 2.7830544 1.6838672 57
1.1554741 2.8119922 1.6876119 54
1.2725459 2.7816544 1.6876615 45.666668
1.5532606 2.846359 1.6853725 47
-4.2669935 2.9531851 1.7230356 88.5
-4.0710802 2.9204016 1.747974 64
-4.0068836 2.8539193 1.7542988 54
-3.7268085 2.9197817 1.7454529 63
-2.881048 2.9492595 1.7319378 61
-2.7545221 2.9007621 1.7250749 58
-2.0055654 2.8943632 1.749153 28
-1.9203275 2.9201763 1.7159228 67
-1.3651181 2.8885314 1.7065495 68
-1.1095092 2.9388638 1.7020307 66
-1.0231358 2.8675992 1.7078623 70
-0.53961974 2.9356561 1.7038087 59
-0.32519361 2.9356022 1.6973362 61.5
-0.28339055 2.9212856 1.701769 62
0.23432304 2.8943403 1.6974264 58
0.42070588 2.9231942 1.6886373 58.666668
0.54351944 2.9591513 1.6847967 57.666668
0.63299525 2.9932215 1.6835107 56
0.98566723 2.9097242 1.6777728 52
1.100913 2.8778152 1.6791489 53.200001
1.2762724 2.9591584 1.6735996 47.5
1.4385637 2.916579 1.681543 46
1.7596953 2.9410787 1.6839037 46.5
-4.2579837 3.0151012 1.7315131 86
-4.0175691 3.1012771 1.7425598 55
-3.7707701 3.1121948 1.735371 63
-3.5124254 3.1468618 1.7247511 61
-3.4218783 3.0495019 1.732762 60
-3.2248573 3.0409322 1.7428492 61
-3.0910559 3.0976772 1.7314421 65
-2.7635956 3.102041 1.7218999 53.5
-2.4995666 3.0498865 1.7288638 66
-2.1440094 3.1361687 1.7076126 67
-2.0183487 3.0238271 1.7162029 66
-1.9066538 3.0898998 1.7181295 70
-1.7114133 3.106566 1.7119855 68
-1.1026397 3.0533125 1.6987766 65.75
-0.90249115 3.1246827 1.6958021 70
-0.33123079 3.0621004 1.697276 61
-0.23756693 3.0744748 1.6856567 65
-0.13027713 3.0658135 1.6940817 68
0.43902385 3.0625341 1.6872514 62
0.58734411 3.0382538 1.6824754 55
0.6884315 3.1308866 1.6798568 56.5
0.84874517 3.1462369 1.672963 52
1.1975781 3.1060324 1.6728622 53
1.237617 3.0409496 1.6679379 45
1.3945247 3.0501955 1.6681799 50.333332
1.5720456 3.0877175 1.6715733 48
1.6823856 3.0312436 1.6711289 45
1.8772644 3.1335893 1.6677216 48.5
1.9873531 3.0503755 1.6761636 45
-4.0583572 3.2851174 1.7267135 65
-3.9415348 3.2839437 1.7374581 48
-3.6097109 3.2481601 1.7230695 58
-3.4599855 3.2015145 1.733807 62
-2.7133954 3.2450411 1.7073194 55
-2.6627648 3.1906509 1.7197229 68
-1.8638736 3.2196615 1.7072657 60.666668
-1.2347814 3.178134 1.6895639 53
-0.98110485 3.2230611 1.691646 68.5
-0.36457059 3.1719577 1.6920568 68
-0.17657918 3.1540749 1.6768626 63
-0.11124849 3.2387295 1.6808414 59.25
0.042752188 3.2940536 1.6841937 61
0.68734121 3.1866353 1.6755995 51.666668
0.79361588 3.1820149 1.6752717 51
1.4761394 3.2374754 1.6611416 47.5
1.7395958 3.2181094 1.666458 35
1.8981169 3.2142892 1.6614701 49.5
2.0617447 3.2330322 1.6574584 46.5
-4.2018228 3.4275868 1.6542259 42
-4.1110401 3.3791409 1.7371036 61
-3.7321501 3.3774815 1.725191 59.5
-2.7907779 3.3555045 1.714257 57
-2.4499383 3.4269407 1.7136098 61
-1.8590202 3.3824139 1.6977237 59
-1.6120352 3.4267702 1.6931773 64
-0.96825403 3.3620288 1.688199 61.75
-0.76484489 3.4059603 1.6842767 73
-0.16524997 3.4291492 1.6847967 65
-0.060354907 3.3853369 1.6745335 56
0.032568019 3.4162793 1.6691401 55.5
0.86097592 3.3048368 1.6734663 51
0.97453433 3.3692675 1.6654868 50
1.0863122 3.3079247 1.6673685 54
2.0589125 3.3259637 1.6546026 46
-3.8153625 3.5991607 1.7169458 59
-3.4509108 3.5110903 1.7087995 56
-3.2234001 3.4721878 1.7264484 62
-3.0574872 3.542845 1.7133585 63
-2.7682946 3.4633005 1.7065107 49
-2.6501942 3.591352 1.6995631 61.5
-2.048641 3.5142214 1.688213 58
-1.7515302 3.5701456 1.6904327 56.5
-1.0871613 3.5093074 1.6822768 63
-0.83118844 3.5297432 1.6789044 57
0.074241638 3.5069313 1.6717982 55
0.20250246 3.5317149 1.6715567 56.5
1.1542282 3.5225079 1.6577764 53
1.2609129 3.5166883 1.6575329 50
1.3503901 3.4732933 1.6628529 56
1.7709088 3.4841824 1.6583809 43
2.0950594 3.5089519 1.6567937 38
-4.0536728 3.6207182 1.7272674 56
-3.4943471 3.6432853 1.7059455 59.5
-2.6818926 3.6880794 1.6891838 62
-1.8001393 3.6280701 1.689027 55
-1.7473892 3.7346978 1.6817406 52
-0.82685643 3.6613655 1.6717539 59.666668
-0.60263664 3.6975605 1.6636781 63
0.061962377 3.68801 1.6694065 55
0.22179158 3.6940553 1.65939 49.333332
1.2081782 3.6544726 1.6531349 52
1.4026304 3.6540167 1.6520399 51
-4.1270361 3.8406525 1.7077787 79
-4.0216727 3.8261962 1.7213608 56
-3.7506652 3.8918548 1.7067848 53
-3.6310229 3.7533488 1.7072293 57
-2.7970917 3.8065777 1.6981109 58
-2.6807938 3.7910967 1.6843258 48
-2.3863065 3.8427026 1.6928784 52
-1.8148848 3.7517152 1.6787099 52
-1.7021418 3.8432763 1.6813749 54
-1.4979087 3.7839618 1.6741318 62
-0.91284794 3.8773806 1.6767799 68
-0.75451756 3.7911804 1.673998 74
-0.6798445 3.8754311 1.6744922 69
0.29835969 3.8175631 1.6663677 4
0.39596957 3.76421 1.6516415 56
0.46792495 3.7979648 1.6585637 52
-4.1541576 3.924556 1.6826478 88
-3.7389252 3.906142 1.7079283 49
-3.2073009 3.9444504 1.6983529 57
-3.0081339 4.0307474 1.6872298 53
-2.7065377 3.9233849 1.6863657 44
-1.9355682 3.9375072 1.6698395 55
-1.6624185 3.9494698 1.6739548 59
-1.5846992 3.9585562 1.6580614 57
-0.606071 3.9412196 1.6599077 59
-4.0755768 4.1916099 1.6997083 71
-3.8704519 4.1626806 1.6966435 49
-3.5289774 4.1174717 1.685516 53.5
-2.6404462 4.11619 1.6620648 40.5
-2.5470293 4.0535789 1.6786255 48
-1.6904169 4.1211224 1.6610177 54
-1.628777 4.1773505 1.6581875 57
-1.3621652 4.1865854 1.6548325 61
-0.65917915 4.087307 1.663039 69.5
-3.6436775 4.3237534 1.6847523 45
-3.4647975 4.2051086 1.6907734 53
-2.7307091 4.3024616 1.6714162 40
-2.6182065 4.2921124 1.6591314 24
-2.312103 4.3202 1.6719745 51
-1.5667657 4.2824879 1.6581856 57
-4.0837455 4.4200606 1.6825408 78
-3.7396595 4.4679079 1.6751846 25
-2.6338518 4.4469533 1.6666793 20
-1.5112265 4.3882246 1.6515721 55
-3.7595532 4.5100513 1.688183 34
-3.2148499 4.5256119 1.6847717 44
-2.957041 4.6051326 1.6671311 32
-2.4743142 4.5851264 1.6585318 35
-3.5440876 4.6862311 1.663325 39
-3.9272156 4.8130054 1.6683067 42
-3.6002579 4.8361034 1.6593214 36
-3.4683242 4.8302279 1.6670603 34
-2.6637225 4.9028997 1.6537763 30
-2.2314062 4.8975081 1.6579472 31
-3.649003 4.9701352 1.6515797 32
-3.7636161 5.1895428 1.6579561 28.5
-3.2081535 5.1932979 1.6589421 27
-4.3231506 -6.0447865 1.937467 85
2.32727 -3.6363389 1.8358749 11
1.9033533 -3.5252955 1.8737756 35
2.082875 -3.5983162 1.8132099 9
2.4783678 -3.5364227 1.8021806 57
1.6322875 -3.3132327 1.9371175 56
1.727524 -3.4398251 1.9393381 53
-1.5962834 -3.2092156 1.8751276 0.5
2.3529871 -3.1137433 1.9449657 50
2.5033658 -3.0334256 1.9389256 54
2.764677 -3.0416594 1.8611323 37
-2.5312033 -2.9269836 1.9447883 6
-1.6938689 -2.8814492 1.9498621 58
-1.5177814 -2.9278834 1.9499465 57
2.0013611 -2.9542656 1.9398786 50
2.1669068 -2.912895 1.9358016 49
2.3206794 -2.8566318 1.9236945 48
2.5618927 -2.8639765 1.8660508 54
2.9006343 -2.9095585 1.8467354 53.5
1.6935047 -2.7998259 1.9356028 49
1.8597288 -2.7845857 1.9284922 46
2.0427995 -2.7350101 1.9198785 39
2.2102573 -2.7328796 1.9170133 46.666668
2.3214145 -2.776432 1.9165467 51
2.4995513 -2.7826822 1.9159961 50
2.5768991 -2.8063223 1.8700157 57
2.830857 -2.8014739 1.8414062 36
2.9471226 -2.7567835 1.8408633 63
-1.9699979 -2.5573783 1.9429921 63
-1.8539304 -2.5912931 1.9402677 59
-1.6333115 -2.6435721 1.9409713 60
-1.4678646 -2.6953542 1.9408516 57
1.4175543 -2.6431327 1.927725 51
1.5818486 -2.6136262 1.9148507 49.333332
1.7362648 -2.6038182 1.9149277 50.200001
1.9206121 -2.6692295 1.9147445 35.5
1.9847212 -2.6644983 1.9129473 45.5
2.2919624 -2.5820405 1.9202462 48
2.5928521 -2.6672883 1.854099 60
2.8519032 -2.6704123 1.8434159 43
-2.3118892 -2.4269104 1.9395891 65
-2.1335728 -2.4805467 1.9446365 65
-1.8907231 -2.4182985 1.9426199 61
-1.5710341 -2.4397202 1.930282 63
-1.4184575 -2.483789 1.9342505 63
-1.239157 -2.4368 1.9396175 57.5
-1.1693063 -2.4720001 1.9389536 28
1.1560001 -2.4538651 1.9145819 54.333332
1.2734073 -2.4609404 1.9100722 53.5
1.4358363 -2.5152588 1.9074129 53
1.5256197 -2.4820352 1.9083275 54.5
2.0028186 -2.483309 1.9189659 53
2.1596348 -2.4389365 1.9164392 45
2.2608626 -2.4705098 1.9121679 49
2.474571 -2.4912817 1.9096881 48
2.585978 -2.4345756 1.8621382 48.5
2.9232869 -2.4639845 1.8265624 45
-2.5989766 -2.3124423 1.9353467 53
-2.5054793 -2.3556182 1.9407631 58
-2.0187681 -2.2980599 1.9323015 63.5
-1.9123315 -2.3353391 1.9317124 60
-1.7305247 -2.3718348 1.9271082 59
-1.5163968 -2.2636993 1.9350854 50
0.87435299 -2.2623456 1.9088792 54
0.99884629 -2.3243656 1.9121512 53.333332
1.0988673 -2.3124132 1.9076751 56.333332
1.3052909 -2.3809543 1.9053575 57
1.5033076 -2.2704391 1.9080018 60
1.714456 -2.3148952 1.9060864 48.333332
1.8696674 -2.2947011 1.899532 44.400002
2.0244117 -2.3189549 1.9041612 48
2.1663878 -2.3274167 1.9046211 45.666668
2.3187802 -2.3425405 1.9003996 45.666668
2.4884176 -2.2982633 1.8988262 46
2.6299927 -2.3446891 1.8687705 53.666668
-2.3793411 -2.1473141 1.9295121 62
-2.2035983 -2.215013 1.9357105 62
-1.970649 -2.1277776 1.9321649 49
-1.8239093 -2.1286387 1.9263576 59
-1.6648871 -2.2046194 1.9266809 59
-1.3669335 -2.1961863 1.9292248 68
-1.2755606 -2.2020431 1.9321353 58.5
-1.0980519 -2.1754904 1.9222904 56
0.69991297 -2.1623383 1.9093916 58.5
0.8024134 -2.2251608 1.9123021 42.5
0.92565566 -2.1830604 1.9044846 59.5
1.2692509 -2.1255355 1.9016765 54.799999
1.425725 -2.1675746 1.8961248 51.5
1.5912434 -2.2104144 1.8957326 51.599998
1.7301105 -2.2338173 1.8968276 48
2.6557965 -2.1898844 1.8011919 55
-2.5700476 -2.0656285 1.9339126 57
-2.2628632 -1.9602294 1.9229902 63
-2.1296036 -2.010237 1.92264 59
-2.019841 -2.0483291 1.9235897 55
-1.743104 -1.9742314 1.9159478 67
-1.5964588 -2.04146 1.9211804 69
-1.4098281 -1.9916216 1.922453 69
-1.3361628 -2.0207193 1.9300092 67
-1.1258452 -2.0009708 1.910988 61
-0.91643018 -2.0744634 1.9134067 63
-0.79880881 -1.9774296 1.9077883 65
-0.73552525 -1.9643961 1.912712 65
0.55626994 -2.0451946 1.9032724 62
0.65527302 -2.0469191 1.9032663 66.666664
0.83025497 -2.0133886 1.8991289 63
0.98608541 -2.0124793 1.9008812 56.400002
1.1167256 -2.0442688 1.900757 53.5
1.2551222 -2.0962877 1.9005064 53
-2.7997274 -1.8752165 1.8962412 49.5
-2.1190729 -1.8112477 1.9198545 53
-2.0220068 -1.876071 1.9217019 54
-1.8986238 -1.8851802 1.913998 60
-1.6728888 -1.8378673 1.9165052 70
-1.403731 -1.8048255 1.9197751 64
-1.3470498 -1.8977388 1.9109875 62
-1.1442605 -1.8471054 1.903051 61
-0.96540785 -1.8572788 1.906237 66
-0.81801236 -1.8318244 1.9040723 65
0.23557152 -1.877596 1.904256 0
0.54028636 -1.8294007 1.8854897 48.5
0.71069205 -1.8930099 1.8913134 59
0.8044529 -1.8676494 1.8945795 59.200001
0.94557506 -1.9367784 1.8996111 60.333332
-2.7709751 -1.7058924 1.8857011 55.333332
-2.018353 -1.6992574 1.9090389 56.333332
-1.8160305 -1.7575675 1.9096459 68
-1.5425497 -1.7629396 1.910314 67
-1.4510781 -1.755493 1.9097368 65.666664
-1.2586092 -1.7247977 1.9030411 66.5
-1.0925798 -1.7374924 1.9048814 64
-0.83983165 -1.7569095 1.9047228 73
-0.72002572 -1.7386426 1.8895613 80
0.42108992 -1.7180982 1.8877281 45.5
0.50922614 -1.703181 1.8899071 65.199997
0.64598686 -1.7542484 1.8898294 72.25
-2.7908268 -1.574569 1.8453201 51.5
-2.6487708 -1.5173347 1.9068793 55
-1.8795555 -1.5466708 1.9013098 62
-1.7368505 -1.636066 1.9053472 66
-1.58566 -1.5723131 1.9072732 69.5
-1.4424442 -1.5942284 1.9033374 67
-1.1636747 -1.5668721 1.888219 80
-0.96274543 -1.6064866 1.8946757 78.25
-0.82321793 -1.5668262 1.8940743 77.333336
-0.65234935 -1.5912634 1.890718 72
-0.4946571 -1.6006445 1.8850785 82.5
-0.42224723 -1.5516565 1.8903749 86
-0.22874963 -1.5087442 1.8843108 71.5
-0.10627078 -1.5369544 1.8771183 30.5
0.13687611 -1.575731 1.8793144 46.5
0.22402105 -1.5581269 1.877883 59.599998
0.36022267 -1.5934045 1.8828007 70.400002
0.50668287 -1.6055675 1.8845286 83.5
-2.7295191 -1.4384842 1.8991793 61
-2.5387383 -1.3938305 1.9037646 59
-2.1328895 -1.3948189 1.8993794 61
-2.0442638 -1.4326806 1.8959415 56
-1.7357347 -1.4025795 1.8946854 64
-1.5484447 -1.4242449 1.900153 63.75
-1.4373478 -1.4034877 1.8902453 66
-1.2687362 -1.4581027 1.8935766 76
-1.0946825 -1.4777573 1.8895491 82
-1.0082297 -1.4364343 1.8910916 78
-0.86733365 -1.4017568 1.8862448 72
-0.67027169 -1.4161023 1.8816842 79
-0.52304423 -1.4318935 1.8877591 73
-0.36146441 -1.3736897 1.8837714 40.5
-0.22588229 -1.4250897 1.8830404 57.333332
-0.065670162 -1.4205242 1.8850604 42.111111
0.059204929 -1.4688256 1.8801613 59
0.22096431 -1.418259 1.8832216 37.333332
0.34582084 -1.4743203 1.8830928 46
-2.7442834 -1.306677 1.8524863 50
-2.6542878 -1.2699862 1.8987674 60
-2.4175799 -1.2766068 1.8990992 62
-2.3018351 -1.2837968 1.8968443 60
-2.1612685 -1.2924298 1.8955735 59
-2.070214 -1.2199506 1.8862342 56
-1.8892999 -1.2996601 1.8884864 62
-1.5799218 -1.2511511 1.8944087 72
-1.4316654 -1.2769504 1.8827362 71
-1.2950578 -1.2614596 1.8850638 77
-1.1123197 -1.2888672 1.8882598 77.5
-0.9670493 -1.2701249 1.8862184 78
-0.77357721 -1.2579684 1.8830343 82.5
-0.67786598 -1.2663171 1.8821049 59.5
-0.54977876 -1.2871737 1.8886027 36.666668
-0.37454143 -1.2516342 1.8853883 36.333332
-0.22726455 -1.26985 1.8848746 37.375
-0.071669132 -1.2902414 1.879759 34.666668
0.069187567 -1.2754468 1.8786781 45.599998
0.16172428 -1.296566 1.8741184 35
-2.7392335 -1.1822921 1.8774544 58
-2.5790107 -1.1613126 1.894503 62
-2.4608748 -1.0640912 1.8939131 67
-2.3406305 -1.056015 1.8850602 60
-2.2096958 -1.1289276 1.8876824 60
-1.9814634 -1.1461515 1.882984 61
-1.8962742 -1.0773674 1.8833617 64
-1.6986741 -1.1837517 1.8872849 72.5
-1.5919567 -1.0714146 1.8806952 68
-1.3972738 -1.1484083 1.899726 39
-1.235516 -1.1643014 1.8875788 77
-1.1333517 -1.1276665 1.8836117 78.75
-1.002944 -1.1207296 1.8792431 78.5
-0.81983477 -1.1131233 1.8799295 92
-0.6680339 -1.1239444 1.8788843 88
-0.53239387 -1.1255988 1.8806987 84
-0.37945861 -1.1242428 1.8787452 66.85714
-0.22553989 -1.1358129 1.8796191 58.888889
-0.071707122 -1.1264963 1.8778752 62.666668
0.020337533 -1.1521459 1.8749415 63
-2.7129712 -0.96732891 1.8467489 29.5
-2.6425295 -0.98516321 1.8884736 68
-2.2828517 -0.90735298 1.8810445 63
-2.1465824 -1.0023345 1.8837227 61.666668
-2.0260329 -0.95587015 1.8781494 68
-1.9387462 -0.90002674 1.8778309 63
-1.7225031 -0.97356963 1.8760104 72.666664
-1.6433202 -1.0414655 1.88348 70
-1.4402657 -0.98561418 1.8789365 73
-1.2479793 -0.97229892 1.8781191 77.666664
-1.1274314 -1.000826 1.8795829 82.666664
-0.95730525 -0.95014602 1.8752242 89.333336
-0.83441997 -0.97510737 1.8757138 92
-0.68373334 -0.96073449 1.8754961 89.400002
-0.51376051 -1.0006897 1.8775597 83
-0.36681223 -0.96987844 1.8678801 53.666668
-0.19725743 -0.96592391 1.8588848 42.5
-0.09430746 -0.99973363 1.8647952 43
-2.4981012 -0.85547519 1.8851424 66
-2.3749609 -0.83394444 1.8744098 74
-2.192502 -0.8189103 1.8764495 64.5
-2.0665462 -0.7681548 1.8742458 61
-1.8232974 -0.79884297 1.8730773 70
-1.7127454 -0.85226309 1.8751676 76.5
-1.5817243 -0.871095 1.8746768 72.666664
-1.444032 -0.81683111 1.8712298 76
-1.2750175 -0.8320443 1.8767536 81
-1.1251105 -0.84613705 1.8728849 84
-0.9753865 -0.82001263 1.8727226 100
-0.81510919 -0.80359316 1.8650026 83.25
-0.64956617 -0.81446236 1.8618399 80
-0.52711117 -0.83949739 1.8618129 71.5
-0.3968004 -0.81706876 1.86023 59.333332
-0.23933265 -0.85017216 1.8584133 49.400002
-2.4088457 -0.61766565 1.8697749 66
-2.2953141 -0.67649508 1.8706455 69
-2.1721606 -0.62294662 1.867294 67
-1.9702113 -0.72236973 1.8617262 80
-1.8546057 -0.61584175 1.8602034 72
-1.7366632 -0.70265454 1.8700608 68.666664
-1.6173363 -0.7080211 1.8705374 69.333336
-1.4349177 -0.68494725 1.869961 72.5
-1.278219 -0.71711987 1.8702554 85.5
-1.1651255 -0.70924115 1.8683001 84
-0.98728728 -0.69486666 1.8561922 82.666664
-0.81728435 -0.66755271 1.859548 81.25
-0.66447645 -0.69764107 1.8557271 82
-0.5179674 -0.67704433 1.8550346 75.5
-0.38904113 -0.66852486 1.8540061 68.25
-0.27667406 -0.70122689 1.8531874 57
-2.3314331 -0.4939537 1.8634962 65
-2.2430158 -0.57462078 1.8694202 73
-2.0536375 -0.56636715 1.8647708 71.5
-1.805896 -0.48934153 1.861709 68
-1.7062058 -0.55112827 1.8621862 72.75
-1.5558999 -0.52917135 1.8603441 68
-1.4208726 -0.5462321 1.8631529 81
-1.274771 -0.57935196 1.862846 82.400002
-1.1033785 -0.56122255 1.849552 67.5
-0.98477328 -0.51758039 1.8517232 80
-0.83890629 -0.54184586 1.8512902 82.333336
-0.67381835 -0.52113205 1.8487797 81.583336
-0.53213125 -0.52686673 1.848137 78.714287
-0.37850791 -0.53621846 1.8464816 74.199997
-2.4392898 -0.40413743 1.8667079 5
-2.3034604 -0.4429481 1.8607479 68
-2.0380659 -0.37849995 1.8554815 1
-1.8559521 -0.37753105 1.8546028 76
-1.7277808 -0.38550842 1.8554661 74
-1.5811266 -0.37812006 1.8490677 68.5
-1.4105057 -0.40840083 1.8562276 73.5
-1.2815855 -0.37552264 1.8698149 90.5
-1.1165668 -0.39157385 1.8443296 73.599998
-0.96860439 -0.35766 1.8415263 77.5
-0.81727964 -0.37802109 1.8447746 78.714287
-0.66630632 -0.36401016 1.8417987 77.714287
-0.53134316 -0.36846623 1.8451929 76.166664
-0.41462871 -0.37676582 1.8422569 75.666664
-1.7432818 -0.22161256 1.8489137 82.75
-1.6184058 -0.22998697 1.8665781 56
-1.4107777 -0.25099915 1.8908715 92
-1.2887267 -0.17617691 1.9020809 133.66667
-1.1382159 -0.19369031 1.8377178 78
-0.9791137 -0.20576997 1.8354276 79.25
-0.81998378 -0.23273225 1.8355427 77.199997
-0.67729664 -0.20992023 1.8376307 76
-0.5327099 -0.22161232 1.8386797 74.666664
-0.44269148 -0.24522559 1.8357846 78
-2.6076989 -0.039609093 1.8464891 77
-1.8248792 -0.092439681 1.8422687 77
-1.7153622 -0.06569621 1.8396342 79.75
-1.5532887 -0.09014909 1.8684138 59.5
-1.401575 -0.10727672 1.8927135 101.66666
-1.2987872 -0.039557505 1.8918704 129.33333
-1.1238197 -0.07540492 1.8314384 79
-0.94858742 -0.057573609 1.8302177 82.285713
-0.82753164 -0.066538073 1.8306378 78.428574
-0.69487286 -0.080289185 1.8335248 75.14286
-0.53426856 -0.074424997 1.8316138 76.599998
-2.7051446 0.040785402 1.8508292 75
-2.4662993 0.022561885 1.8429159 75
-2.3666732 0.1104918 1.8359028 80
-2.1454129 0.11586002 1.8401215 79.5
-1.8673412 0.086451717 1.8365444 81.333336
-1.7246034 0.091871075 1.8368511 80.25
-1.5554601 0.059795313 1.8428757 77
-1.4244144 0.0051473379 1.8751001 88
-1.2966483 0.093403243 1.8306373 83.25
-1.1348785 0.048778564 1.825693 82.666664
-0.95146441 0.080139503 1.8240392 81.75
-0.81922042 0.06477128 1.8251861 76.5
-0.66594887 0.066851683 1.8250993 80.555557
-0.53244621 0.056873109 1.8252479 80.666664
-3.8299499 0.15087248 1.8659824 5
-3.1214306 0.28640425 1.8356591 74
-2.7613459 0.19738813 1.8449663 75.666664
-2.6341782 0.16649528 1.8417302 79
-2.4778209 0.23710684 1.8362032 73
-2.292011 0.1809857 1.8379258 77
-2.18399 0.21373062 1.83794 79
-1.896836 0.23649493 1.8298287 81
-1.726256 0.25060999 1.8292772 83.25
-1.5614372 0.2109865 1.8320433 91
-1.4147743 0.19902863 1.8317038 97.666664
-1.2977133 0.22717245 1.8245193 83.25
-1.1275587 0.21844363 1.8220421 79
-0.97173953 0.22058125 1.8195826 81.555557
-0.82672393 0.22256918 1.8214842 77.800003
-0.67837679 0.23274058 1.8214884 79.25
-0.53790909 0.20582655 1.8159363 81.5
-3.3909175 0.33183959 1.8433908 91
-3.196734 0.38103062 1.8393716 80
-2.9344485 0.37096539 1.8346868 73.666664
-2.7963169 0.39282668 1.834779 79.5
-2.6572115 0.37672365 1.8369597 79
-2.3115942 0.36330628 1.8276353 76.5
-2.1627862 0.3717556 1.8301595 82
-1.8366382 0.33772129 1.8273549 82
-1.7192003 0.39707354 1.8266888 76.666664
-1.5636541 0.365044 1.8263507 86
-1.4071441 0.37058464 1.8260342 94.5
-1.2862121 0.3776409 1.8199066 79.400002
-1.1220329 0.37598833 1.8170581 76.5
-0.9629482 0.36236188 1.8159046 76.5
-0.83295989 0.3750107 1.813557 75.545456
-0.67461503 0.36978409 1.8148706 79.285713
-0.54197425 0.37737304 1.8131073 78.75
-3.3380218 0.52317894 1.8294071 5
-3.1848514 0.53408432 1.8278996 74
-3.1388099 0.54559642 1.8312417 6
-2.979414 0.5935064 1.8264748 65
-2.7070038 0.46103466 1.8388892 81
-2.6732869 0.59103149 1.8264631 74
-2.4775703 0.45311621 1.8220116 71
-2.3024282 0.55483335 1.8225979 80
-2.1630802 0.52236235 1.8236355 83.5
-1.8636223 0.49684313 1.8177022 82.666664
-1.7167442 0.5292787 1.816456 83.5
-1.6281061 0.51736653 1.8195575 77
-1.4284474 0.52193946 1.8208381 89.333336
-1.2826297 0.5294897 1.8157996 88.25
-1.1129153 0.50689042 1.8138225 79.25
-0.95990598 0.51176149 1.8105471 76.14286
-0.84003401 0.52212316 1.8063109 76.699997
-0.65526283 0.50993347 1.8071376 77.14286
-0.4945862 0.52657676 1.8053213 82.5
-2.9208302 0.62589198 1.8270286 73
-2.7701416 0.63855618 1.8284672 77
-2.478229 0.67536116 1.8161978 77
-2.3511832 0.6638639 1.8167452 77
-2.1657288 0.6851272 1.8162998 78
-1.87816 0.67966366 1.8070712 87
-1.718636 0.67125386 1.8103856 88
-1.6257374 0.67635399 1.8131489 77
-1.4114193 0.67493963 1.8131994 90.666664
-1.2683738 0.66730022 1.8117166 90.5
-1.1641397 0.65933949 1.8274857 57
-0.99107617 0.66393816 1.8057137 77.428574
-0.82807243 0.65610629 1.8038722 70.777779
-0.68421459 0.66404861 1.8013797 74
-0.57625598 0.63000691 1.8001676 76.5
-2.9246731 0.85331517 1.8167266 50.5
-2.8044374 0.8520689 1.8159992 71
-2.6901793 0.85174644 1.8189355 78.5
-2.2837594 0.78894997 1.8152691 66.666664
-2.1446102 0.84752011 1.80981 81
-1.9110272 0.84129524 1.8025948 87
-1.7331185 0.77723777 1.8072858 86.5
-1.6328378 0.82223678 1.802834 88.5
-1.4066799 0.86665386 1.8040063 87
-1.2675623 0.79663473 1.8065736 93
-1.1238364 0.82662249 1.8138165 71
-0.9486891 0.83525443 1.8034266 91
-0.80606163 0.80256283 1.802285 67.5
-3.6256597 1.0248381 1.8275396 44
-3.2355034 1.0438688 1.8065203 73
-2.6981752 1.0408957 1.8045276 76
-2.4717865 0.90092635 1.8068734 69
-2.3336794 0.98763704 1.8037865 71
-2.2032607 0.97263968 1.8029624 79.25
-1.6299868 0.96469516 1.8031076 82
-1.2699949 0.92217612 1.8046795 84
-1.1754448 0.95776826 1.8054568 86
-0.9524169 0.97170472 1.8011717 94
-0.88741928 0.93074054 1.8048338 92
-3.8990748 1.155413 1.8193599 68
-3.6760156 1.1053985 1.8227582 79.666664
-3.5381305 1.0844474 1.8155836 105
-3.3908706 1.096925 1.8045393 76
-3.2100995 1.1300098 1.8113419 83
-3.1428559 1.0823877 1.8034023 80
-2.9200578 1.1054211 1.8029207 73
-2.8025849 1.0911992 1.8047022 78.5
-2.6754568 1.110816 1.8047868 86
-3.8974519 1.3413949 1.8093756 80
-3.6378133 1.3141541 1.8121103 91
-4.4118023 1.4493911 1.8193994 78
-4.1451373 1.40281 1.816007 66
-3.9105885 1.4414713 1.8075141 70.5
-3.8256104 1.3738054 1.8126661 71
-3.689029 1.4132999 1.806311 70.666664
-3.550205 1.3871887 1.8017567 67
-3.4197378 1.3911304 1.8035628 83
-3.212301 1.3969436 1.8010138 92
-4.2302194 1.7364607 1.8029999 74
-4.1866636 1.7892517 1.8099555 62
-3.8644183 1.7010691 1.8006412 76
-4.2105765 -6.0494113 2.0819304 96
-3.8207395 -5.0736513 2.0754657 29
-3.4119611 -4.9516368 2.0288825 1
-3.1354222 -4.9573164 2.0424559 13
-3.603714 -4.9232969 2.0797801 36
-3.577553 -4.9073086 2.0937636 35
-3.3832898 -4.6586947 2.0540071 34.5
-3.2765956 -4.7854896 2.0574634 37
-3.0212319 -4.6394095 2.0632901 46
-2.7280223 -4.6091485 2.0585124 38
-2.4700363 -4.5761294 2.057796 19
-3.511018 -4.4203897 2.0558457 2
-3.2162578 -4.410943 2.0546968 32
-3.0873027 -4.4651785 2.0516832 22
-3.1912124 -4.3305182 2.0486834 13
-3.1140156 -4.1125822 2.0591013 4
-1.4793388 -3.9256432 1.9903818 9
-2.424614 -3.7749271 1.997521 1
-2.1468511 -3.7680702 1.9855198 2
-1.7421266 -3.7817926 1.9903165 8
-1.5354494 -3.8103685 2.000622 47
-2.4965808 -3.6610394 1.9888293 9
-1.5658436 -3.6666427 1.9920317 26.5
-2.5927875 -3.5712037 1.9909781 16
-2.475281 -3.3772705 1.9829372 45.333332
-2.2682211 -3.3859191 1.9861015 51
-2.0590105 -3.4136581 1.9847358 54
-2.7032132 -3.2054524 2.001544 14
-2.628355 -3.2079029 1.9782442 30.5
-1.5676236 -3.2083986 1.965134 1
-2.1652067 -3.0711634 1.9802626 0
-1.9729676 -3.089503 1.9783622 0
-1.7328377 -3.0169194 1.9518081 0
-2.6313047 -2.8552134 1.9529294 59
-1.8450382 -2.8901095 1.9595395 58.5
-1.7630152 -2.9703844 1.9592396 42
-2.2450776 -2.7381966 1.9610788 65
-2.0595188 -2.7746651 1.9630879 70
-1.8221477 -2.7124741 1.9545277 54
-2.4868603 -2.6776576 1.9572988 58
-1.8530446 -2.6633182 1.9515811 61
-4.2402029 -5.9662533 2.1143525 39
-3.930624 -5.7065754 2.1331871 4
-4.2315631 -5.6200504 2.1021564 33
-4.0253382 -5.4343071 2.1156471 31
