# .PCD v0.7 - Point Cloud Data file format
VERSION 0.7
FIELDS x y z intensity
SIZE 4 4 4 4
TYPE F F F F
COUNT 1 1 1 1
WIDTH 137
HEIGHT 1
VIEWPOINT 0 0 0 1 0 0 0
POINTS 137
DATA ascii
1.0305538 2.6950011 -0.97581118 11
1.1082796 2.6341484 -0.96714503 12
0.4678337 2.7960238 -0.96425313 11
1.1516638 2.8448365 -0.97061253 5
0.44747382 2.9626713 -0.97320509 9
0.48752421 2.9732277 -0.97054839 11
0.14696856 3.0260859 -0.96412379 9
0.4996528 3.1328781 -0.98041028 10
1.2285466 3.0345595 -0.98470622 5
0.1788372 3.2618339 -0.98781848 10
0.31603581 3.2678852 -0.90366369 0
0.5361383 3.2354264 -0.98210359 10.5
1.2421441 3.2472661 -0.99070126 5
0.74330825 3.4355533 -0.96592003 88
0.82511848 3.4301941 -0.91036451 97
1.2756766 3.4433587 -0.99899375 6
0.43400794 3.5057573 -0.98877162 9
1.2104667 3.488307 -0.97650272 1
0.50622278 3.8643849 -0.96421969 0
2.144732 -1.0609294 -0.80532217 6
2.3381248 -0.98890352 -0.83010745 9.5
2.4149799 -1.0299199 -0.81779253 0
2.2972157 -0.80847371 -0.81876403 5
2.931175 -0.83349848 -0.76232028 11
2.3721559 -0.65300906 -0.85018486 12
2.9508264 -0.61439782 -0.81124741 3
2.9922547 -0.39117935 -0.81027555 25.5
2.977165 -0.17422752 -0.88457328 7
3.023634 -0.17437708 -0.80134332 0
2.8432238 0.044385009 -0.88460755 5
3.0743737 0.13455679 -0.76229799 93
2.7961285 0.25245202 -0.89209217 4
3.0788183 0.23727559 -0.76524746 84
2.8720872 0.44883224 -0.83266777 21
3.0709152 0.40059975 -0.77116406 69.5
2.5016115 0.54955786 -0.89278901 6
2.5387444 0.73995137 -0.88586354 3
2.6496973 0.63182414 -0.83966172 34
0.31899875 3.3996847 -0.85924578 0
1.0630586 3.4029181 -0.87750798 23
1.4988778 3.3869956 -0.86459839 1
0.21401162 3.5441642 -0.86337256 0
2.9075601 -1.0513029 -0.70504844 97
1.708611 -0.91339213 -0.67128974 11
1.9287658 -1.0099827 -0.69787306 2
2.9174218 -0.95699537 -0.62045944 96.5
2.9375806 -0.79803818 -0.67443699 90
2.9452374 -0.70441937 -0.66362464 89
2.9719458 -0.55226505 -0.66697544 86.25
2.9943902 -0.37248942 -0.67589694 87
3.0019946 -0.35092786 -0.63456267 91
3.0128124 -0.21661939 -0.68530005 87.666664
3.0296559 -0.11446441 -0.69993556 93.5
3.054734 0.030305378 -0.68606281 84.333336
3.0860476 0.23391566 -0.67513257 91
3.104116 0.40649402 -0.69807512 90
2.6389658 0.5345481 -0.69778222 77.333336
2.9252985 0.45062646 -0.6522271 21
1.8651571 0.71135253 -0.62537432 76
1.989949 0.63205147 -0.69751757 14
2.468451 0.7244736 -0.70842868 7
2.668941 0.71237624 -0.6835677 84
1.612715 0.80596519 -0.62344623 24
1.8612442 0.75064719 -0.67199486 49
1.6004889 1.007019 -0.63977975 56.5
1.6856496 0.99128759 -0.62039179 52
0.37730902 3.4005079 -0.61850512 7
0.31850266 3.5309308 -0.67137915 5
0.78388041 4.2560854 -0.6155656 39
2.4652095 -1.110194 -0.59872067 83
1.9088423 -0.93254387 -0.46209371 39
2.2394156 -0.97193623 -0.5116058 5
2.2923627 -0.93492734 -0.46420932 18
2.4325793 -0.99229008 -0.45600054 18
2.9184453 -0.95768338 -0.51566535 88.333336
1.5528551 -0.8939051 -0.46967098 1
2.032419 -0.82241207 -0.50950003 0
2.9394774 -0.76945841 -0.54670322 85
2.9521255 -0.69845414 -0.51182705 86.333336
2.9693627 -0.57192469 -0.53828543 81.5
2.9911802 -0.39470804 -0.5386377 81.333336
3.0151167 -0.21651044 -0.52863586 88.5
3.04178 -0.025972411 -0.53659773 78
3.0713184 0.13902217 -0.49575517 84
3.0806489 0.21104303 -0.52166075 88
2.1694059 0.42700076 -0.50533289 0
3.0996237 0.38937184 -0.5133149 86.333336
2.1405718 0.57002532 -0.49045235 72
2.4123611 0.54625905 -0.59172821 5
2.8409216 0.48053622 -0.46708804 20
1.8608556 0.66726536 -0.53295863 77.75
1.6375892 0.77369124 -0.58810961 6
1.8759232 0.83444327 -0.54477763 38.666668
1.6190139 1.0065138 -0.50904322 53.5
1.7288913 0.95967162 -0.51757181 25.5
1.876471 0.97572708 -0.5552994 26.5
-0.088990852 1.6233749 -0.5545193 40
0.13562012 1.6135534 -0.48662785 60.333332
0.20513026 1.5724031 -0.51809138 68.833336
0.41208848 1.5305023 -0.49074975 55
0.57119644 1.5277618 -0.50060618 52.75
0.698874 1.5573165 -0.52596086 78.14286
0.83481866 1.5270078 -0.55158913 75.199997
0.13719486 1.68104 -0.54606599 67
0.2945407 1.706411 -0.59336925 3
0.61356157 1.6591696 -0.46094567 8
0.47187734 2.0214982 -0.47136828 20
1.3132123 3.2589476 -0.57193404 4
1.3988274 3.2934594 -0.51483804 5
0.43517625 3.4452302 -0.52689117 8
0.46157086 3.4214373 -0.58293831 61
1.4307969 3.3163559 -0.53613174 5
0.26573545 3.5186696 -0.46998668 18
0.40662694 3.4772446 -0.47818553 20
1.7874198 -0.95124745 -0.43363073 149
1.9019799 -0.94720906 -0.40891027 121
2.9158568 -0.95087135 -0.42700163 85.5
1.4674408 -0.87704182 -0.40060121 2
1.967663 -0.83610767 -0.40164953 0
2.9382231 -0.78905833 -0.43544701 87
3.0256379 -0.183881 -0.41557944 90
3.0557528 0.020825123 -0.44188038 90
2.1692822 0.47466323 -0.43178442 2
2.3014648 0.54073554 -0.43095413 3
0.91177195 0.7324816 -0.40711036 10
1.8666606 0.69990313 -0.40280625 79
2.1625166 0.6430968 -0.41726163 40.5
1.8758645 0.78027773 -0.43581927 71
1.5672739 1.0194863 -0.41174859 48
1.9092362 0.93889678 -0.41174978 89
0.90693921 1.5327495 -0.40753469 13
-0.074169338 1.6664932 -0.40557486 7
0.14848067 1.8645869 -0.44714409 2
0.51983511 1.9805456 -0.41897213 14
0.64953411 1.9550948 -0.42895335 13
0.24783853 3.5157213 -0.42573878 10.5
0.35182735 3.4909797 -0.4218598 11
