# .PCD v0.7 - Point Cloud Data file format
VERSION 0.7
FIELDS x y z intensity
SIZE 4 4 4 4
TYPE F F F F
COUNT 1 1 1 1
WIDTH 1542
HEIGHT 1
VIEWPOINT 0 0 0 1 0 0 0
POINTS 1542
DATA ascii
-0.50322479 -3.2865415 -0.17220359 35
-0.44863412 -3.2888281 -0.19028915 33
-0.19056106 -3.2703648 -0.17527449 9
-0.5393225 -1.4123729 -0.17246571 10.4
-0.40426922 -1.4114163 -0.15596804 16
0.82977122 -1.4115294 -0.16249286 150
-0.48804617 -0.9890064 -0.16421026 13.5
-0.44372034 -0.96253055 -0.17367445 6
-0.38018644 -0.79499626 -0.19342215 0
0.44930315 -0.82887441 -0.17274444 4
-0.53137988 -0.65053654 -0.18674539 2.5
-0.23233473 -0.60694945 -0.17372453 9.5
0.31788671 -0.61462939 -0.18779768 0
2.101186 -0.73818576 -0.18091694 22
-0.60822308 -0.58747745 -0.15147369 1
-0.49790302 -0.53588665 -0.17710958 1.1428572
-0.092759408 -0.58685905 -0.17608933 8
0.064720884 -0.58890224 -0.16418701 9
0.25179261 -0.49230614 -0.15792145 0
0.36727548 -0.52558517 -0.16673902 0
0.45879656 -0.52964658 -0.17094801 0
0.96444172 -0.54727811 -0.16524081 5.6666665
1.1542273 -0.53452772 -0.16200942 19
1.2576514 -0.52101022 -0.15785551 137
1.7726731 -0.49758887 -0.16537438 2
1.8565049 -0.45326376 -0.15376617 2
0.36446899 -0.42621022 -0.17084503 0
0.46676216 -0.427912 -0.16445911 0
1.7489202 -0.37186131 -0.19486502 3
2.5011389 -0.33508849 -0.17663047 95
2.4963346 -0.26148567 -0.15155888 94
2.4982233 -0.1046901 -0.16497202 90
2.4893711 0.050961383 -0.17297001 90
2.483278 0.20784746 -0.17449476 96
2.4754884 0.36586159 -0.16917297 96
2.4754071 0.5262745 -0.15693496 83
2.4640572 0.80216551 -0.19799052 91
-0.67427385 0.9151361 -0.18412444 2.5
-0.059494145 0.95363474 -0.17755124 14.875
0.044001296 0.94539022 -0.18165903 11.25
0.27243927 0.95469815 -0.16261733 13.666667
1.2081788 1.0098431 -0.15975459 90
1.4235663 0.98888969 -0.16590813 27.5
1.5860603 0.91687202 -0.17163497 1
2.1677365 1.0307093 -0.16563213 14.5
2.4575834 0.96947336 -0.18379071 89
1.1773403 1.1363416 -0.18751375 63.5
-0.81642127 1.2704308 -0.17405491 13
-0.67601597 1.2724295 -0.17951916 13.428572
-0.50153494 1.2759321 -0.17150255 18
-0.39817548 1.2785876 -0.15956356 19.5
-0.22291464 1.2877179 -0.17341538 19.833334
-0.12868768 1.2845118 -0.16301358 18
0.71161723 1.3413652 -0.16606815 62.333332
0.81844097 1.3462176 -0.19117542 56.666668
0.88073105 1.3520484 -0.17005993 53
1.0472381 1.3626873 -0.16171409 55
1.8556275 1.4030776 -0.16565259 46
-1.2477002 3.5703812 -0.18132727 42
-0.97423816 3.5320423 -0.18581273 5
-1.2761399 3.8232951 -0.18356073 36
-0.54636353 -3.2867277 -0.10566995 13
-0.38213107 -3.281826 -0.076254435 27
-0.2561689 -3.2758646 -0.072711714 37
-0.55026549 -1.4063461 -0.13440947 12
-0.37720168 -1.4105407 -0.13920209 13.5
-0.55815411 -1.3347092 -0.13881674 13.5
-0.5062626 -0.98552173 -0.1150751 12.777778
-0.36056915 -0.96850318 -0.094080023 8
0.41901135 -0.92409885 -0.099812873 8.3999996
0.50571001 -0.92108172 -0.1213838 8
-0.4988251 -0.81073642 -0.090445198 5
-0.33921933 -0.82739729 -0.086611874 4
0.29519272 -0.79721624 -0.077183463 2
0.38026375 -0.83394593 -0.085200027 4.5
-0.61906368 -0.60452229 -0.10984051 2.6666667
-0.36361334 -0.66725421 -0.090558499 4.7272725
-0.25066462 -0.60630053 -0.11306009 9.375
0.24461402 -0.63848877 -0.084193774 5
2.0811737 -0.63443393 -0.10737408 150
2.1078799 -0.71384197 -0.10047049 84
-0.62798911 -0.58424026 -0.062074348 1.875
-0.56132013 -0.57094222 -0.060750559 1.8333334
-0.37664613 -0.59740728 -0.075740792 8.666667
-0.18207304 -0.59225446 -0.089126818 9
-0.061888497 -0.59143949 -0.10263172 9.666667
0.052344579 -0.58334476 -0.10601091 8.1999998
0.22519462 -0.51891649 -0.090250202 1.516129
0.36101794 -0.50698614 -0.052444093 0.10526316
0.46710283 -0.50307572 -0.049770668 0
0.8646456 -0.5603869 -0.099354491 1.5
0.96730328 -0.54905504 -0.10388377 10.375
1.1982445 -0.52897596 -0.10703442 17
1.2939898 -0.53449905 -0.071957611 73.666664
1.534569 -0.49519995 -0.054515872 12
1.7463045 -0.59160298 -0.065715469 8
1.84348 -0.51979327 -0.079277985 5
0.36925238 -0.41960922 -0.091352902 0
0.47982061 -0.41889346 -0.12741524 0
1.4854542 -0.44464272 -0.037285659 4
1.5813853 -0.44089764 -0.080544896 1.5
1.7504512 -0.4020679 -0.083181083 2.5
1.9187405 -0.41705531 -0.0023494409 2
2.5130761 -0.39873528 -0.084469043 75
2.4977481 -0.22594102 -0.057453245 77.666664
2.4920578 -0.078125976 -0.074950404 80
2.4817429 0.078272402 -0.067199461 86.75
2.4748344 0.2280573 -0.072113536 86.5
2.4668343 0.37924522 -0.070574284 83.75
2.4737196 0.51947147 -0.086210608 74.666664
2.4657984 0.67742622 -0.090642326 80
-0.75127423 0.88054276 -0.096580125 0
-0.6992932 0.89500397 -0.13346212 9.333333
1.6352513 0.87899333 -0.12742004 3
2.4597063 0.81465143 -0.058557615 81.333336
-0.80754012 0.92153746 -0.10194492 2.7142856
-0.69366324 0.94014627 -0.11227395 3.8
-0.52527267 0.93745738 -0.11187831 6.8888888
-0.36714575 0.96365535 -0.10775052 11.625
-0.21412469 0.97405529 -0.10766975 9
-0.083272286 0.97036809 -0.12099794 8.25
0.11915043 0.94126856 -0.10390773 9.75
0.22173701 0.95319837 -0.12483842 11.285714
1.1890939 1.0003749 -0.085628845 11
1.4124399 0.97634512 -0.10273916 13.666667
1.5738249 0.96397346 -0.066942036 6.6666665
1.6830075 0.96198159 -0.061562572 5
1.8253024 0.96747327 -0.0053795921 5
2.4501932 0.97033614 -0.068285502 82
-0.81833422 1.0818006 -0.12129141 1
-0.65249825 1.1136538 -0.12035728 1
-0.54303175 1.1428208 -0.1223041 1.8
-0.37741491 1.0736036 -0.11716884 2
-0.11894553 1.1099308 -0.11741381 3
1.1795309 1.1106715 -0.10921739 68.5
1.2141012 1.1061133 -0.026761448 53.333332
1.3669776 1.0670761 -0.106452 9
1.5282785 1.1573271 -0.099661805 6
2.3849812 1.1103359 -0.063365974 51.5
-0.82554656 1.2229686 -0.12433245 2.5
-0.69404191 1.2597543 -0.13122033 8.4285717
-0.53681904 1.2808999 -0.13858178 18
-0.3822585 1.2521068 -0.1219747 8.666667
-0.25508112 1.2819182 -0.12403884 11.2
0.59653544 1.3377585 -0.1371503 69
0.64885843 1.3401178 -0.10393163 63.400002
0.76523608 1.3473501 -0.057994448 52
1.1750193 1.3322378 -0.11579131 50
1.2468327 1.2661448 -0.035377815 35.666668
0.89153689 1.3515768 -0.12155945 54
0.91418558 1.3581469 -0.044831671 51.5
1.0569341 1.3646039 -0.077498339 52
-0.55460835 -3.283483 0.0095688803 1.5
-0.37001097 -3.2798157 0.010632882 2.5
1.7844913 -0.7817893 0.1141094 81.5
1.778892 -0.68678033 0.085414313 48
1.8713417 -0.65761465 0.064504705 15
2.0307126 -0.64428425 0.074143 13.5
-0.92502898 -0.57899278 0.096930526 0
-0.82707369 -0.56593442 0.077764682 0.03846154
-0.67631 -0.55462933 0.07273142 0.969697
-0.53901052 -0.54956937 0.068569429 1.8846154
0.26861659 -0.49677053 0.037532136 0
0.37676051 -0.49896508 0.030137727 0
0.52213651 -0.48724627 0.03192291 0
0.62451285 -0.47568411 0.022482807 0
1.485551 -0.42075738 0.034311946 1
1.5564029 -0.42200524 0.10280509 2.75
1.7090776 -0.43377733 0.06167943 3
1.9497249 -0.38668695 0.10765403 0
1.9538727 -0.40166837 0.093952619 2
2.4994226 -0.3556073 0.03508563 24
-1.103596 -0.17575407 0.099609725 4.5
2.5019135 -0.24641213 0.024050871 30.5
-1.125021 -0.041809134 0.098707728 0
2.5018775 -0.077731319 0.040298007 43.599998
-1.1189725 0.018458694 0.097186677 0
2.4991498 0.073873475 0.024053928 43.5
2.474515 0.21928722 0.022621909 29
2.4739118 0.36653459 0.029918352 12.5
2.4579551 0.53405732 0.031394299 9.333333
2.4570241 0.73680621 0.032480534 0
-0.86919898 0.89370209 0.13896775 0
1.4066827 0.88168895 0.13432997 0
-0.81199557 0.93026888 0.071684934 5.125
-0.68006003 0.94534945 0.067172751 0.25
-0.52473223 0.93703324 0.03739151 0.71428573
1.390707 0.91572499 0.083790429 4
1.5744718 0.92487073 0.092419825 4
1.7010597 0.94610345 0.074426092 4.5
1.8471859 0.93914604 0.079837419 3
2.4609988 0.92523688 0.0053609265 33
2.7670157 1.0055342 0.1068055 4
-0.68882811 1.060776 0.096598201 0
1.1938552 1.0946734 0.097240366 44.666668
2.4559889 1.1607 0.0063587083 9
2.7355006 1.1983943 0.080169879 11
-0.78675187 1.3043432 0.079049222 2
0.37109795 1.3354458 0.077747717 25.5
0.51354855 1.3396698 0.072585694 60
0.67466623 1.3460017 0.095850885 55.333332
0.78276819 1.3474376 0.12397128 53
1.2822644 1.2578253 0.026098305 59
-1.4048017 1.498239 0.12474589 2
-1.0902901 1.4454435 0.11758389 1.25
-0.82885903 1.4158255 0.096340694 10.142858
-0.7432816 1.4736335 0.080706291 9.5
0.27594924 1.4050523 0.036724206 8
0.74604589 1.3507497 0.094657324 60
0.82996517 1.3539902 0.067725636 55.5
0.96547753 1.3605962 0.079949193 53
1.0702903 1.3667842 0.090633444 50.666668
1.252063 1.4617643 0.082828186 3
2.1367135 1.3978089 0.034730818 150
-1.4257287 1.5150647 0.14630574 1
-1.2600217 1.5138001 0.11056977 0
-1.1586559 1.5101371 0.12603682 2
-0.64832652 1.5400871 0.1157667 2
-0.51384521 1.5408059 0.11404934 5.4000001
-0.35729203 1.5366068 0.13067192 5
-0.22898184 1.5483592 0.11220311 3.75
-0.046311378 1.5520672 0.093061648 3
0.30262625 1.592391 0.11031371 40.5
1.4138837 1.611913 0.05060124 3
1.5604576 1.6428906 0.1148515 2
2.0756755 1.5386981 0.090756349 0
-1.3154744 -6.6403775 0.2396993 106
-1.4412289 -6.2189608 0.23896998 25
-0.48349047 -1.0906204 0.20584364 5.5999999
-0.033901691 -1.1435322 0.23713219 7
0.083426192 -1.1037347 0.23470294 6.25
0.20235343 -1.0704257 0.2319192 3.5
-0.51875329 -1.0026709 0.21055143 12
0.1800328 -1.0482965 0.27289811 6.5
1.7994404 -0.92989171 0.2688511 3
1.806597 -0.94761294 0.2391814 4
1.7878654 -0.81374454 0.24722357 38.285713
1.7831943 -0.69139332 0.19899102 47.75
1.8127264 -0.68741101 0.25531235 59
2.0230641 -0.66184729 0.18082386 16
2.1942949 -0.68681991 0.2215097 150
-0.82429719 -0.54154921 0.16145477 0
-0.68435365 -0.49553171 0.18488136 0.40000001
-0.53179741 -0.52287239 0.15979065 1.5714285
1.5480654 -0.47173154 0.26375023 0
1.854794 -0.59825361 0.22892231 5
1.4800198 -0.43222654 0.17713979 2.5
1.6498567 -0.37421909 0.19849133 1
1.6725996 -0.34676671 0.22880283 1.25
1.8988894 -0.38464123 0.16673151 2
2.7814903 -0.3350459 0.29002875 5
-1.2496291 -0.19673593 0.25040898 1.5
-1.187348 -0.24093522 0.18296158 4
2.7574883 -0.20308419 0.21963817 24.666666
-1.2219033 -0.056812286 0.24891488 0
-1.1847864 -0.095071487 0.17289865 0
2.5302141 -0.041410144 0.15749919 66
2.5806267 -0.057608038 0.25262931 34.666668
-1.252932 0.050854336 0.26406834 0
-1.1390249 0.13681147 0.18701452 0
2.5366623 0.050629556 0.2323397 29.666666
-1.2752942 0.1663495 0.28772581 1
1.6438618 0.88415581 0.15848762 2
1.4783159 0.97062844 0.25423706 4.4000001
1.6444391 0.94823343 0.2844221 5
1.6821687 0.96132976 0.2701776 4
2.7066576 1.0468872 0.16219074 25
2.739337 1.1031694 0.21021566 18.5
0.39618811 1.3333943 0.23384209 47.125
0.53843534 1.3394529 0.19871327 61.285713
0.66487718 1.3483253 0.21782905 52
0.79010981 1.3499596 0.20274997 49
-1.0761902 1.4857062 0.20588118 3
0.3121655 1.4018406 0.2083793 35.75
0.79359943 1.3551267 0.20568678 47
0.94242859 1.3619747 0.23135905 47
1.0896918 1.3728546 0.2555466 43
-0.74950135 1.5356398 0.16487002 29
0.30681357 1.5387952 0.23785809 37.5
0.29275152 1.7315145 0.19067353 38.5
2.6761422 1.745407 0.24981987 88
0.28864589 1.905462 0.2414313 36.5
-1.227657 -6.6292295 0.34515077 9
-0.42779684 -1.0688691 0.35905656 5
0.14564903 -1.0784848 0.30150461 7
-1.7282454 -0.94474 0.41719705 65
-0.47517198 -0.98148382 0.35725838 13
-0.44262448 -1.0228175 0.35333505 7.6666665
1.7950466 -0.90473896 0.33239007 1
-1.6863507 -0.77542192 0.3912912 17
2.7394457 -0.81219304 0.41370967 99
-1.6807494 -0.63940066 0.38436151 7
-1.6479595 -0.71729767 0.43333977 81
1.7921463 -0.713687 0.3460415 2.5
-1.7330142 -0.5338521 0.40716237 11
-0.63607335 -0.54469132 0.32260317 0
-0.56287694 -0.560763 0.31314805 0.25
1.5517738 -0.4863053 0.30265051 2
2.7471368 -0.46734765 0.30636626 20
-1.2663661 -0.3041648 0.33039334 2.5
1.7309039 -0.42154294 0.32681167 2.5
2.7242908 -0.38697356 0.38862172 55.5
-1.2729353 -0.2280677 0.36171377 2.375
2.7410202 -0.24029699 0.3659876 44.75
-1.2269708 -0.090456069 0.37374896 0
2.523015 -0.076244093 0.37133789 44
2.5704172 -0.10751247 0.34635174 22
-1.2791198 0.0737288 0.39963174 1.625
2.5341635 0.03696679 0.34138775 51.333332
2.5673211 0.035758995 0.40823358 25
-1.3202943 0.17165428 0.36409682 5.5
1.6470755 0.93520862 0.3024348 5
2.7106867 1.0260686 0.33358622 1
2.7423248 1.1117566 0.34593925 19.5
0.37706229 1.3372993 0.3894363 45.142857
0.52844465 1.3430591 0.38234729 51.599998
0.62520736 1.3454394 0.38237843 48.5
0.30881718 1.4353242 0.35550857 36.25
0.69243836 1.3537503 0.39543793 47.333332
0.83386236 1.3591666 0.37543654 46.444443
0.98439556 1.3671322 0.36613902 45.5
1.0733483 1.3681307 0.38710177 40.5
0.30241257 1.5698605 0.35694861 34
1.6945949 1.5298562 0.34848186 0
0.29095396 1.751019 0.37514803 33.5
0.30227953 1.6892654 0.31576204 35
2.5926547 1.710664 0.34320486 82.5
2.679461 1.8233851 0.43447864 43
0.27725938 2.0207181 0.34598973 36.5
-1.741527 -0.9390887 0.50606149 62.200001
-1.8190076 -0.81644613 0.58292401 39.5
-1.7652863 -0.84872049 0.51440078 54
2.7444017 -0.8369664 0.54644364 66.25
-1.8773452 -0.72152513 0.54828238 59.666668
2.7252331 -0.34848318 0.52293384 63.75
-1.254233 -0.20577995 0.4940691 7.1428571
2.7510672 -0.21289577 0.50782263 23.25
-1.2526206 -0.063968621 0.51252621 0.83333331
-1.2998104 0.079844847 0.51967686 3.5999999
-1.32236 0.16035788 0.52825731 20
2.7382972 1.1214129 0.49703422 12.333333
0.37577471 1.3380412 0.53023094 44.285713
0.50974911 1.3435878 0.50362611 47.777779
0.62804914 1.3489565 0.54407072 41.5
0.31045496 1.3956875 0.53804654 24
0.71414018 1.354702 0.56292778 42.333332
0.84022969 1.3621922 0.54347163 41.888889
0.97663999 1.3716648 0.54654253 41.375
1.0857294 1.3766956 0.51690745 31.25
0.29939687 1.5741053 0.50998849 35
0.30565274 1.5119053 0.5476644 32
0.29133764 1.7019358 0.51704383 29.666666
2.6731176 1.7270176 0.5602386 81
0.28662691 1.8954853 0.47250828 36.5
2.6672621 1.8263817 0.5256235 39.5
0.27710778 2.0518434 0.51159877 33
2.7556944 -1.305828 0.66672444 31.75
2.7516339 -1.1344458 0.70355082 59.25
2.7454123 -0.93673241 0.62719095 56.5
-1.8622842 -0.78850853 0.65170306 40
2.7463932 -0.88016289 0.73372698 56
-1.8496449 -0.69782567 0.68417352 41.909092
2.7281168 -0.45173353 0.60086799 51
2.7182908 -0.32509291 0.73630595 61.5
2.7459388 -0.20111877 0.72492802 22
-1.2412674 -0.065231301 0.68688607 7.818182
2.8045621 0.42222381 0.73646545 0
2.7221348 0.53884965 0.72211909 7
2.694906 0.66347605 0.73124766 18
2.6951196 0.85680467 0.71677971 5
2.6778457 0.9940657 0.74037492 34
2.7227724 1.0895925 0.64848763 22
0.3879489 1.3396659 0.68827605 39.166668
0.52018362 1.3453927 0.67911965 43.18182
2.6686082 1.2375534 0.70616305 10
0.29864031 1.4862999 0.72719514 33
0.30633187 1.4262156 0.66684604 31.25
0.55464315 1.3521519 0.69038546 42.5
0.65968531 1.354602 0.65811855 41
0.8087278 1.3621253 0.65839684 38.833332
0.9810183 1.37113 0.65176594 39.75
1.1022962 1.3733017 0.65803283 19.5
2.6514015 1.4064167 0.70821434 7.5
0.29704383 1.5861603 0.66647953 35
0.28656402 1.7339883 0.66700447 26.5
2.669492 1.8637998 0.66971785 72.599998
0.2805362 1.9962438 0.67301226 29.666666
2.6675801 2.0181582 0.70683718 69
0.26494503 2.1292553 0.65637779 11
2.6457024 2.1389463 0.70938706 46
2.6821189 2.4236848 0.65792215 6
2.1870954 -2.3829551 0.87283289 27
2.7499447 -1.2090554 0.8358742 49.5
2.7451806 -1.1207156 0.84046346 49
2.7480247 -0.97323656 0.77527976 52
-1.8114679 -0.77043426 0.81915832 9.5
2.7409966 -0.84694648 0.88682425 54.5
-1.8964907 -0.63092023 0.78811181 8
-1.7897412 -0.67502546 0.81648988 12.666667
2.7306738 -0.67515904 0.82513922 53.666668
2.7265062 -0.5162971 0.78251797 56
2.7217968 -0.4330028 0.76317525 59
-1.2836578 -0.19868164 0.78051978 3.2
-1.2219603 -0.069822021 0.76419365 4.5
-1.1489537 -0.084865011 0.83555156 1
-1.322149 0.017750731 0.83038175 3
2.6870027 0.79391712 0.75297356 34
2.675509 0.92541307 0.78035247 61
2.6680186 1.099916 0.79390615 63
0.36256328 1.343345 0.80011481 33.799999
0.46698287 1.3460007 0.7782864 42.5
2.6613626 1.2459551 0.83705026 66.5
0.29741937 1.4649303 0.85947907 31
0.30664989 1.3973173 0.83288151 23.666666
2.6524138 1.4177662 0.81435072 62.5
0.29461098 1.6254458 0.82236511 32
2.6440117 1.5627331 0.79116172 62.333332
0.28482118 1.7651138 0.79375368 16.5
2.6724198 1.7714638 0.83913779 67.666664
0.28411341 1.8501524 0.89500368 23
2.6765463 1.8271435 0.7690053 74
0.27640063 2.0430827 0.81332004 29
2.6647527 2.0132139 0.84057313 65.75
4.4958124 2.0179088 0.75972819 0
2.6558478 2.1922007 0.80371779 50
2.6642909 2.3836961 0.82977343 52
2.6584167 2.5111952 0.80421865 50.5
2.640686 2.6221218 0.78041744 51.5
2.0561948 -2.6626818 1.0098376 15
2.7404542 -1.1227393 0.99983335 46
2.739747 -0.98270196 0.93942744 51.5
2.6504748 1.3452646 0.90487659 61
0.29899299 1.4415717 0.95835191 31.333334
0.30216166 1.4333564 0.96930027 31.5
2.6448848 1.496776 0.9653095 64
0.29352692 1.5744759 0.98041654 31.75
2.6553159 1.6158011 0.93476105 65
0.2879011 1.6509182 0.90975201 30
2.6683946 1.704489 0.98405337 70.5
0.28452051 1.8748894 1.0208973 25
2.6693032 1.8800501 0.99481899 61.333332
0.27865347 2.0156698 0.99760348 29
2.6633379 1.9618053 0.95056498 67
2.6507568 2.1661239 1.001421 46
2.6631439 2.3048568 0.92123049 50
2.6537998 2.446322 0.97233129 47.333332
2.6404049 2.6124732 0.95325303 46
2.6323061 2.7484231 0.95163709 47.5
-0.48475435 -3.2711987 1.1686842 4
-0.38290954 -3.2606061 1.1794615 8
-3.0197234 -2.0924065 1.143849 82
-3.0751534 -1.0076489 1.1748018 90
0.29200912 1.5754893 1.1202158 28.714285
0.282839 1.7075174 1.133823 24
0.28216359 1.8664128 1.1070713 23.333334
2.6688108 1.841868 1.1310132 65
0.27849388 2.0419695 1.0909845 30
2.6631405 1.9887022 1.1067494 63
0.26542836 2.1284869 1.1633546 8
2.6588826 2.1065788 1.1226634 60
2.651891 2.3522265 1.1625212 47.666668
2.6493731 2.4615171 1.0912719 46.5
2.6378191 2.6201222 1.1081347 46.666668
2.637028 2.7268128 1.0818385 50
-0.56659496 -3.2567558 1.3256135 29
-0.080406822 -3.2432179 1.2773527 24
0.062522955 -3.2381258 1.2471251 26.333334
0.22240157 -3.2239931 1.3022405 29.666666
1.7991571 -3.1554708 1.2994901 15
1.850394 -3.1509643 1.3067627 15
2.0469251 -3.1525271 1.2993865 12
1.9077697 -3.1433015 1.2943487 16
2.0647006 -3.1423588 1.2281126 13.5
2.1756961 -3.1360676 1.2790093 14
2.6284626 -3.0627463 1.2824162 42
-3.0129364 -2.3188543 1.2849507 68
-3.0206897 -2.1567366 1.2448151 73
-3.026612 -2.0044932 1.283434 77.5
-3.0744748 -0.97641402 1.2758013 78.75
-2.621434 0.68838698 1.3083007 4
-2.4901013 0.74595028 1.322033 5
0.28462797 1.7459666 1.2731079 21
0.28269187 1.8477592 1.327881 18
2.6636612 2.0192804 1.225247 53
2.6516361 2.1930003 1.2696331 49
2.6438518 2.3458185 1.2850735 47.5
2.6359334 2.5356655 1.2965543 47.5
2.6277523 2.6270912 1.2850333 47
2.6223416 2.7431326 1.2308326 43.5
-0.26136446 -3.2400074 1.4368293 24
-0.099680074 -3.2392941 1.3959436 26.5
0.064185545 -3.2326913 1.4499398 27
0.19607846 -3.2161601 1.4677018 26
0.34290636 -3.2217221 1.3517121 29
1.5781051 -3.1622028 1.4401315 14
1.7024248 -3.1557226 1.3905518 16.5
1.8213801 -3.1569972 1.4134923 16
1.9994595 -3.1430273 1.4368395 15
2.1868441 -3.1356356 1.4676791 13
2.425935 -3.1279345 1.3873663 12
2.5798302 -3.0660272 1.4293145 59
2.8344967 -3.0503643 1.370815 60
-3.0174105 -2.2612987 1.465592 67
-3.0210874 -2.1872864 1.4388438 72
-3.0243647 -2.0009692 1.4075618 73.5
-3.0287743 -1.9196389 1.4173141 72.5
-3.0394545 -1.7314649 1.459425 71
-3.0464108 -1.5669309 1.4677979 75.333336
-3.0536578 -1.4036578 1.4613019 75
-3.06936 -1.0899171 1.4314491 80.5
-3.0805633 -0.94025731 1.4452338 42
-3.0893757 -0.88326716 1.4412414 9
0.28260684 1.7527176 1.4152137 18.5
0.27419055 1.9469305 1.4351349 24
0.26560846 2.1354651 1.4364522 18
2.6308904 2.3903627 1.446667 50
2.6317074 2.5037587 1.3806062 44
2.6231222 2.6083992 1.4616221 40
2.6093478 2.7473073 1.4399478 43
-0.45098868 -3.2482913 1.6395866 18
-0.36624348 -3.2413414 1.5651149 20.666666
-0.22131217 -3.2368376 1.5624661 21.666666
-0.065385275 -3.228004 1.5957301 21
0.04424341 -3.2254887 1.6070796 21
0.17868142 -3.2256269 1.6473149 23
0.34469813 -3.2068756 1.501112 28
0.51013488 -3.1980519 1.566995 36.5
0.65153599 -3.1980991 1.5510978 38.5
1.614398 -3.1667266 1.5387679 12
1.7888103 -3.1553142 1.5445374 12
1.9697073 -3.147567 1.5570533 12
2.1636007 -3.1448388 1.5946668 13
2.3841212 -3.1264153 1.5205365 13
2.795531 -3.0471981 1.619198 58.5
-3.0231075 -2.1363699 1.5669265 74.333336
-3.0302544 -2.0335946 1.5940685 70.5
-3.0340755 -1.8415294 1.5629607 72.333336
-3.0435848 -1.7266688 1.576741 76.5
-3.0434668 -1.5878681 1.6061445 70.333336
-3.0540271 -1.4391973 1.5601861 66
-3.0872521 -0.91566747 1.5409722 8.5
0.2770597 1.9034226 1.583113 22.5
0.27043557 2.063199 1.5674261 25.5
2.6157293 2.5956624 1.5844992 41
2.6110327 2.7143333 1.5344619 46
-5.0777316 4.9316893 1.6389989 0
-3.7864268 6.0652819 1.6435906 7
0.37105256 6.2882891 1.618861 28
0.5040651 6.295361 1.6210614 30
-0.51323652 -3.2714727 1.7211828 13
-0.39017713 -3.2685523 1.7695571 19.5
-0.22357778 -3.2583845 1.76274 24.333334
-0.097983226 -3.2405114 1.7868294 18
0.34133783 -3.2228541 1.7383729 20
0.47703695 -3.2046075 1.6835711 39.5
0.72967654 -3.1931808 1.7809073 35
0.83170265 -3.1801193 1.7967502 37
0.97515547 -3.1824448 1.6755774 36
1.1341996 -3.1656802 1.7004802 37
1.4092964 -3.1722941 1.7248262 29
1.5982167 -3.1976211 1.7279682 12
1.7720898 -3.1861064 1.7194055 12.5
1.9488759 -3.1540673 1.6707417 13
2.5262852 -3.0472848 1.7599338 30.333334
2.5584989 -3.0554609 1.7129912 55.5
2.8126714 -3.0469704 1.7254801 60
2.4857998 -2.8010421 1.7769889 42
-3.0294046 -2.257179 1.7340827 64.5
-3.0326061 -2.1157668 1.7652949 68
-3.0376797 -1.8895564 1.7237931 63
-3.0502682 -1.5829799 1.7401154 68
-3.0774605 -0.99994928 1.7336298 76
-3.0887032 -0.8533504 1.6869594 5
-2.4395182 0.19231614 1.7976502 81
-2.3455303 0.23584616 1.7975904 82
-3.4285865 0.41034618 1.7891635 5
-2.5672491 0.33777422 1.7953447 76
-2.440172 0.40722278 1.7891115 72
-2.3231161 0.3840166 1.7948405 78.5
-2.2437029 0.35569897 1.798133 82
-2.6258173 0.51398158 1.7941966 81.5
-2.3138142 0.53008592 1.7909344 79
-2.2330072 0.54614782 1.7964931 77.5
-3.2482331 0.70558006 1.7856168 5
-3.0747724 0.71162736 1.7835951 77.5
-2.9278486 0.66207975 1.7833465 72.666664
-2.7903457 0.666417 1.7886193 68.5
-2.6178255 0.72617233 1.79011 82.5
-2.4403205 0.62632358 1.7871383 73
-2.3466573 0.6514262 1.790225 77.5
-2.1831951 0.66820025 1.7891175 89
-1.8950278 0.66609716 1.7979285 92
-2.9510362 0.87963587 1.776596 38
-2.7837791 0.8895213 1.7831863 70
-2.4327016 0.8495307 1.7825514 81
-2.3293023 0.79545629 1.7868165 74
-2.1746099 0.77244568 1.7915952 76
-2.0187409 0.8330788 1.7894057 94
-1.8490272 0.82810915 1.7922442 86
-1.7384201 0.85144216 1.7971963 85.333336
-2.8814852 0.91627538 1.7811364 71
-2.8093116 0.91011459 1.7824918 73
-2.6739638 0.93335867 1.7855595 78
-2.5425267 0.95554775 1.7898904 82
-2.3216851 0.97970706 1.78197 79.666664
-2.1838977 0.95897037 1.7877065 83
-2.0012126 1.0157093 1.7931703 77
-1.8278205 1.0175761 1.7866578 87
-1.7261195 1.0045347 1.7919997 83
-1.3530806 0.92786777 1.7999161 86
-1.2735202 1.0120317 1.7994996 85
-0.73041958 1.0011106 1.7965585 72
-3.4765978 1.1620165 1.7682681 74.5
-3.3096287 1.16438 1.7699586 77
-2.9187589 1.1548815 1.772355 78
-2.801574 1.1442225 1.7778391 77
-2.6628859 1.1646745 1.782873 79
-2.4744024 1.125874 1.7821487 84.5
-2.29966 1.1425136 1.783523 82
-2.2115855 1.1556399 1.7811661 75.5
-2.0255313 1.190541 1.7858849 80
-1.7641871 1.1482162 1.7901635 79.5
-1.5787512 1.0722414 1.7977699 81
-1.2366272 1.1670699 1.7975224 86
-3.9098704 1.2344221 1.7831718 7
-3.8368073 1.2328404 1.7799486 12
-3.6759517 1.2229604 1.7703599 75.25
-3.4541652 1.2497823 1.7717372 80
-3.2460456 1.2325283 1.7706925 84
-3.0679307 1.2262559 1.7688404 81.5
-2.9792492 1.2020004 1.7716919 73
-2.4035046 1.3162714 1.7733206 82
-2.3168311 1.2353096 1.7778504 81.5
-1.827543 1.2497665 1.7875675 78
-1.7165445 1.2448548 1.7897758 82.333336
-1.586966 1.2320211 1.7925206 82
-1.4443657 1.2565602 1.7970849 78
-1.2638083 1.2346151 1.7957178 83.5
-1.1810198 1.2856107 1.7967969 81
-3.7488017 1.4621571 1.7577769 78
-3.5027885 1.4595679 1.7662857 51.5
-3.3466418 1.4526682 1.7675246 37
-3.054755 1.4850514 1.769359 39
-2.9401581 1.4419237 1.7668172 36.333332
-2.793277 1.3941009 1.7643279 42.5
-2.6408882 1.4018259 1.771892 34
-2.4991333 1.3921618 1.7736434 40
-2.2736526 1.4035974 1.7730931 57
-2.1932049 1.3734999 1.7749407 79
-2.0461745 1.3844848 1.7790586 74
-1.9361191 1.3881203 1.7808908 77
-1.723292 1.4114969 1.7821112 64.5
-1.5821272 1.4017947 1.7764302 83
-1.443841 1.4103142 1.7843108 81.5
-1.2202089 1.4084917 1.790361 84
-1.1260145 1.4289497 1.7922913 59
-1.0140487 1.3840275 1.7974213 75
-0.79791272 1.4137902 1.7968833 71.5
-0.67180109 1.4535005 1.7970231 54
-0.47218129 1.4820336 1.7979804 46
-0.34886032 1.4822161 1.7982018 45
-0.097583383 1.4832922 1.7997352 52
-4.4019241 1.5959971 1.7541165 69.5
-4.3280478 1.6209111 1.7596716 69
-4.1639876 1.59322 1.7583224 66
-3.9865353 1.5414737 1.756928 72.333336
-3.7934606 1.5412512 1.76094 66
-3.6764297 1.5415993 1.7597464 78
-3.4575622 1.5516422 1.763008 75
-3.2491465 1.5155044 1.7661234 41
-3.0846364 1.5236669 1.7654251 40
-2.8189161 1.6475343 1.7574726 81
-2.4785588 1.6287661 1.7731577 85
-2.3521166 1.5329797 1.7709041 37
-2.1923902 1.6066538 1.7694267 72.666664
-2.0079505 1.5963943 1.7748064 66
-1.8987765 1.5870646 1.7789022 49
-1.702636 1.5476665 1.7816057 45
-1.6018118 1.6066791 1.7787915 47.333332
-1.4422938 1.5904908 1.78502 35
-1.3499931 1.5848883 1.7922522 35
-1.1198872 1.5662104 1.7864591 32.333332
-1.001524 1.5746981 1.791428 36.666668
-0.81021225 1.5185839 1.79617 31
-0.65403861 1.5733858 1.7986842 27.666666
-0.59352356 1.6366365 1.7974936 38
-0.42213809 1.5296392 1.7976185 27
-0.24726528 1.6126508 1.7999984 32
-4.6744161 1.6717505 1.7480203 64
-3.7709205 1.791687 1.7511615 73
-3.5259631 1.7355528 1.7619878 80
-3.3786213 1.7589383 1.7600578 75
-3.0496624 1.7622106 1.7647258 86
-2.9358559 1.7276068 1.759391 74.666664
-2.7676685 1.6808414 1.7646295 78
-2.6217046 1.6533463 1.7692679 78
-2.2792149 1.7130619 1.7649678 71.5
-1.8594697 1.7992134 1.7821869 82
-1.6952929 1.689198 1.7730404 75
-1.4274266 1.7858303 1.7798868 69
-1.2908411 1.7572765 1.7874602 66
-1.072368 1.7118291 1.7846184 63
-0.98570019 1.7236862 1.7838889 64
-0.84014332 1.6662561 1.7891009 62
-0.70186162 1.7301921 1.7905381 63
-0.54885781 1.7216835 1.7928364 66
-0.33460119 1.7075729 1.7960254 57.666668
-0.22193009 1.7372828 1.7941452 69
-0.08703611 1.7352569 1.7949837 71.5
0.070028581 1.7601649 1.7988111 68.333336
10.938707 1.6993419 1.7782677 1
-4.3913031 1.945509 1.7465898 71
-4.0595322 1.8950571 1.7510327 72.5
-3.9555531 1.9018528 1.7487069 68
-3.8198631 1.8851941 1.7542076 61.5
-3.7069807 1.8823253 1.7548727 74.333336
-3.4932656 1.8430948 1.7573041 72.5
-3.2576604 1.8195095 1.7662987 86
-3.0781336 1.8289123 1.7614371 68
-2.839237 1.9422818 1.7575179 76
-2.5949562 1.9179699 1.7638084 80
-2.4534769 1.8774232 1.7705761 75
-2.345799 1.8215592 1.7627803 70
-2.2188718 1.8889066 1.7676431 69.333336
-2.0220282 1.8347037 1.7743922 72
-1.6758957 1.8447056 1.7717451 69.5
-1.5940536 1.8666891 1.775712 71
-1.2237526 1.9348474 1.7822942 64
-0.97263718 1.8847841 1.7837942 62.599998
-0.84356767 1.8623528 1.791702 57.5
-0.52695209 1.8523189 1.7931019 65.333336
-0.4302313 1.8708168 1.7927963 64.333336
-0.20472404 1.8380485 1.7951577 75
-0.077105358 1.8559518 1.7951702 69.75
0.043945394 1.9184928 1.7956384 68.75
0.21258128 1.8953197 1.771117 52
-4.7185502 2.0856602 1.7349252 59
-4.5032983 2.0416358 1.7502536 52
-4.3638673 2.0019805 1.7464536 57
-4.2106028 1.972308 1.7543396 63
-3.5484371 2.0661151 1.7567166 81
-3.4116645 2.0891564 1.7510554 66
-3.0509055 2.0633929 1.7652711 85
-2.9342003 2.0371063 1.7565733 74.666664
-2.7449875 1.9653634 1.758453 75
-2.2888744 2.0579438 1.7601316 69.5
-2.0228515 2.0981483 1.767162 69
-1.863333 2.0396686 1.7783788 73
-1.5858603 2.0584331 1.7757356 67.5
-1.448529 2.0182846 1.7728373 64
-1.3136218 1.969648 1.7793628 66
-0.9214325 2.0104811 1.776667 61
-0.83009428 2.0362709 1.7844322 59
-0.68068177 1.9777663 1.7895188 56.5
-0.48988533 1.9543562 1.7906443 68
-0.35231709 2.0250318 1.7913002 59.400002
-0.099633172 1.9642594 1.7957262 65.5
0.059387576 2.0360177 1.7934134 69.199997
0.22165987 2.0154459 1.7646083 49.714287
-3.8077104 2.1910448 1.7477674 62
-3.6887794 2.2208135 1.7443768 65
-3.5099113 2.1887431 1.7502946 68
-3.2557876 2.1395929 1.7605966 77
-3.0676274 2.1542337 1.7564858 72
-2.5653825 2.2017007 1.7593225 83
-2.4164956 2.1362102 1.762638 76
-2.1824768 2.1573679 1.7594682 70.666664
-1.7493087 2.2498035 1.7763535 74
-1.5880105 2.1558936 1.7723968 72
-1.2770023 2.2001262 1.7776269 59
-1.1483029 2.1216345 1.777495 61
-0.9138453 2.1077611 1.7773834 59
-0.8322221 2.1601286 1.7794265 57.5
-0.64699119 2.2010603 1.7841815 55
-0.55344182 2.1103971 1.7895871 61
-0.37866154 2.104316 1.7894682 63
-0.24383852 2.1638548 1.7914726 56.75
-0.032819886 2.1401196 1.7979062 62.5
0.098771885 2.2358315 1.7952329 67
0.21316028 2.1586049 1.763485 54.285713
-4.4291759 2.3625665 1.7340969 69
-4.2514567 2.3753104 1.7425178 65
-4.1010418 2.2826734 1.7438769 69.5
-4.0076256 2.2877741 1.7433156 64
-3.8643737 2.2959502 1.7457954 56
-3.7218854 2.3144894 1.743672 73
-3.0367563 2.3776138 1.7546681 48
-2.890744 2.3216336 1.7572447 71.333336
-2.7176549 2.2720683 1.7543484 65
-2.2586687 2.3896086 1.751223 71
-2.2283323 2.2993138 1.7538666 71
-1.960314 2.3635168 1.7619628 72
-1.8544196 2.3041308 1.7678546 72
-1.5319515 2.3276434 1.768649 67.666664
-1.4131358 2.2723079 1.7731866 63
-1.1056026 2.3614135 1.7810292 59
-0.78061724 2.3068357 1.774736 61
-0.74980879 2.2925582 1.7808729 56
-0.47785372 2.3107178 1.7854711 55.5
-0.20351864 2.2819121 1.7861067 62.333332
-0.097026996 2.3198984 1.7897315 59.666668
0.084929809 2.3174329 1.7909402 61
0.23180957 2.378114 1.7926959 64
-4.7936802 2.549216 1.7328669 62
-4.535306 2.4677365 1.7341288 64
-4.4183388 2.4218338 1.739477 67
-3.8254435 2.5335455 1.7371186 63
-3.5335014 2.4711177 1.7447653 63.666668
-3.2476144 2.4826977 1.7500466 71
-3.0784426 2.5306499 1.7707351 32
-2.9745238 2.4224408 1.7535907 66
-2.5315595 2.5106442 1.7581977 72
-2.3795307 2.420186 1.7606677 75
-2.1716213 2.4651999 1.7530632 70
-2.0799224 2.4227505 1.7576615 75
-1.6782473 2.4944677 1.7706054 70
-1.4741323 2.4844372 1.7639201 63.5
-1.2668629 2.4863877 1.7714912 56
-0.96783108 2.5392432 1.7784511 56
-0.67066061 2.4747794 1.7769169 46.599998
-0.55631089 2.4203379 1.7829586 55
-0.35612059 2.4907575 1.785733 54.5
-0.066015087 2.4489591 1.7873669 61.666668
0.063228279 2.4449782 1.7907197 63.5
0.23191656 2.4651079 1.7902304 61
-4.1239018 2.6677196 1.7333821 66
-3.86765 2.6138601 1.7433228 57.5
-3.7200854 2.6222692 1.7406801 63
-3.4713578 2.5954359 1.74359 69
-2.8848608 2.6539354 1.7467145 61
-2.6904559 2.6089582 1.7560683 60
-2.1824737 2.6084301 1.7491456 68
-1.8864044 2.6483097 1.7574555 77
-1.7819339 2.5688596 1.7627267 77
-1.4443465 2.6191301 1.7611613 66
-1.1114467 2.698729 1.7713262 51
-1.0383873 2.6113496 1.7691773 60
-0.57190472 2.659936 1.7693361 55
-0.41770485 2.6106586 1.7783636 47
-0.20478953 2.6309843 1.7860469 56
0.073784389 2.6004262 1.7817887 57.25
0.23105638 2.5956059 1.7877389 57.5
0.41078961 2.6975114 1.7853669 45
-4.4873571 2.8303576 1.727147 61
-4.3047752 2.82216 1.7339014 63
-4.1126814 2.7241201 1.7339591 68
-3.8793986 2.7106133 1.7362262 51
-3.7403305 2.7281725 1.7381178 68
-3.5998211 2.8221533 1.7459995 64
-3.0328963 2.732928 1.7544347 67
-2.9147997 2.7517715 1.7487655 64
-2.490309 2.8467503 1.7560636 70
-2.3398075 2.7343292 1.7615832 89
-2.1714675 2.7263191 1.7509596 70.5
-2.0057077 2.7314332 1.7528738 72
-1.5960695 2.7543271 1.762117 79
-1.3861212 2.757905 1.7559462 61.5
-1.1898655 2.7685533 1.758741 62
-0.85744816 2.7649555 1.7762698 61
-0.47749841 2.7620714 1.7710261 54.333332
-0.24841961 2.7672999 1.7775913 56
-0.058020983 2.8165486 1.7789699 61
0.21839149 2.7602255 1.7766095 59
0.36960703 2.8136539 1.7809672 60
10.916169 2.8383222 1.7322325 1
-4.6026073 2.9534619 1.7315158 63
-4.4810348 2.8864846 1.7309207 50
-3.8500023 2.9528739 1.7234095 57
-3.6130426 2.9555976 1.7301792 62
-3.4973495 2.8633683 1.7381223 63
-3.2386239 2.8578885 1.7411183 66
-3.0313716 2.8902414 1.7453433 61
-2.8695378 2.997889 1.7421111 59
-2.6456177 2.9660053 1.7484959 65
-2.1311293 2.9008048 1.7493759 75
-1.8053416 2.9675267 1.7611846 76
-1.6977412 2.853883 1.7577974 70
-1.3536967 2.9156985 1.754779 65
-1.34465 2.8968565 1.7522091 59
-0.94940603 2.899488 1.7633123 62.5
-0.72833866 2.993844 1.7639009 71
-0.3937718 2.9389546 1.7605618 59.333332
-0.29982078 2.9053962 1.7679366 60
-0.073172897 2.9181359 1.7745417 60
0.38393894 2.9251673 1.7728641 57.5
-4.8623843 3.0506458 1.7205447 52
-4.1687207 3.1357825 1.7252759 64
-3.925307 3.0570695 1.7332985 52.5
-3.7425892 3.0577526 1.7303337 63
-3.4811518 3.0144019 1.7407292 60
-3.0203927 3.1202686 1.7475244 63
-2.9004219 3.0950449 1.7347223 56
-2.8301363 3.1037123 1.745082 66
-2.2814751 3.0636387 1.752829 70
-2.1377978 3.0576966 1.7476021 69
-2.0932262 3.0996714 1.7441171 65
-1.9182639 3.0696802 1.7518977 71
-1.5033479 3.0415692 1.7577516 64
-1.2837816 3.0603089 1.7514602 58
-1.0549209 3.0530071 1.760362 65
-0.78119141 3.1106372 1.7630128 66
-0.26573017 3.0981064 1.7605669 59.5
-0.097588681 3.0769362 1.7704866 57
0.10796492 3.070013 1.7720212 61
0.45559412 3.0001016 1.7736291 52
-4.2232137 3.2172983 1.7217735 58
-4.1333971 3.1871395 1.729369 59
-3.8958702 3.1662135 1.7246357 41
-3.6799152 3.2122865 1.7267454 60.5
-3.2348397 3.2820933 1.7355925 63
-2.9426401 3.1982386 1.7375842 56
-2.4330304 3.2070699 1.7477926 68
-2.0711823 3.2090909 1.7389325 65
-1.6978228 3.2949731 1.7507647 62
-1.602935 3.1713536 1.7590777 69
-1.2395637 3.2309508 1.7524265 64
-0.83171397 3.2213171 1.7562772 61
-0.58251792 3.2513916 1.7600397 64
-0.21651396 3.218852 1.7542225 54.5
0.11161695 3.2345188 1.7646104 52
0.29532987 3.2270641 1.7701801 56
-4.5506191 3.3759639 1.7186247 52.5
-4.3705163 3.3257477 1.7246267 55
-3.8822863 3.4260991 1.7109216 49
-3.6426394 3.4207921 1.7145075 61
-3.5433402 3.3203518 1.7281805 58
-3.0053902 3.3139541 1.7396353 67
-2.8683195 3.4298306 1.7303959 63
-2.5911689 3.3603232 1.7416655 64
-2.2148831 3.429178 1.7445136 67
-2.0537834 3.3725832 1.7390848 60.5
-1.8098193 3.4322784 1.7452761 56
-1.3958389 3.3572211 1.7548765 61
-1.1635174 3.3946846 1.748703 59
-0.89628023 3.355957 1.759425 75
-0.62243491 3.3864598 1.7575132 67
-0.078055374 3.3411448 1.7568676 55
0.11003087 3.3747661 1.7713767 55
0.31648111 3.3547125 1.7718259 55
-4.6559134 3.4811656 1.7159301 49
-3.9997454 3.5684714 1.7242004 56
-3.7731278 3.5531268 1.7210084 57
-3.466289 3.4595129 1.7228256 62
-2.9420881 3.5410089 1.7296395 61.5
-2.77707 3.5349679 1.7363356 68
-2.3598392 3.5965996 1.7332422 58
-2.0339935 3.4979858 1.7333261 60
-1.4825734 3.4990473 1.7466732 56
-1.0907041 3.5528855 1.7472543 62
-0.66055298 3.5256038 1.7560595 57
-0.41460243 3.5406003 1.7601031 64
-0.056133945 3.4928172 1.7552885 51
0.060912296 3.5568948 1.753466 50.5
0.33717704 3.4701061 1.7648901 50
0.52892828 3.5197694 1.7660863 45.5
-4.9410524 3.6128223 1.7058493 37
-4.2173061 3.6626897 1.7134055 52
-4.197226 3.7165551 1.7119511 50
-3.9224298 3.6857648 1.7179207 34
-3.7575874 3.6827064 1.7141773 60
-3.2072515 3.7324393 1.715547 65
-2.9174023 3.6548212 1.7288467 60
-2.0107126 3.6378813 1.7437509 57
-1.5716531 3.6538849 1.7405192 54
-1.2693461 3.704308 1.7508019 60
-1.1213387 3.6051688 1.7439584 53
-1.0496939 3.705719 1.7391068 56
-0.70985341 3.6724048 1.7517213 58
-0.43899494 3.6848989 1.7524019 59
0.17539646 3.6280012 1.7552522 55
0.35533237 3.6157236 1.7676033 55
0.60001439 3.7440467 1.7806853 58
-4.4435978 3.8961613 1.7134935 45
-4.2968283 3.7616467 1.7094375 50
-3.6539629 3.7568676 1.7224101 60
-3.59149 3.8411889 1.7133344 57
-2.9584963 3.7718897 1.7243053 56
-2.5226285 3.7969012 1.7314526 4
-2.150013 3.871134 1.7515546 54
-1.9724603 3.813921 1.7463899 60.5
-1.6763929 3.82535 1.7338356 59
-1.3439411 3.8682976 1.737763 54
-0.98543507 3.8032887 1.741295 54
-0.46059978 3.8434074 1.7494255 58
-0.2202611 3.8412125 1.7517673 60
0.21761596 3.8275123 1.7445976 51.5
0.38107419 3.8775239 1.7514427 54.5
0.64108193 3.8991513 1.7807542 58
-4.6240997 3.9617963 1.704901 39.5
-3.9364433 3.9841359 1.7072142 40
-3.6847143 3.9628491 1.7020737 53
-3.4635122 3.9786234 1.7126204 54
-2.8975344 3.9939568 1.7143446 59.333332
-2.2802448 4.0494986 1.7261277 54
-1.9708169 3.9748554 1.7354482 4
-0.94611716 3.9621251 1.7351748 57.5
-0.49116337 4.0176826 1.7453777 61
-0.22579765 4.0079885 1.7444979 54
-4.7352262 4.0924578 1.7045346 38
-4.0821905 4.1556053 1.7103106 42.5
-3.7987492 4.1094589 1.7049004 43
-2.876591 4.1615996 1.7116832 57
-1.4237764 4.0614371 1.7337137 56
-1.116188 4.0828776 1.7408389 60
-0.88327938 4.1124878 1.7289776 57
-0.22584625 4.1910577 1.7425615 56
0.0075979354 4.175693 1.7449838 57
0.49532914 4.1773233 1.7375386 50.5
0.66350782 4.1806602 1.7496567 51.5
-5.0513229 4.2704825 1.6958553 30
-4.2836971 4.3074999 1.7020179 38.5
-3.9421115 4.2693124 1.7040533 24
-3.7643476 4.2575283 1.7003449 45
-3.6915083 4.3340421 1.7098237 52
-3.1936109 4.2718349 1.7060305 31
-2.8968148 4.2799644 1.7027143 3
-2.43366 4.2787704 1.7150229 2
-1.8194435 4.2886753 1.7092603 2
-1.518699 4.2670789 1.7242719 52
-1.1794045 4.2811532 1.7276009 59
-0.80351442 4.208467 1.7334093 57
-0.72664535 4.3072076 1.731284 66
-4.396853 4.406569 1.7007483 39
-3.6562159 4.4607892 1.7009674 47
-0.23702624 4.3856821 1.7340263 41
0.023815822 4.3568721 1.7332081 52
-4.6965857 4.6076913 1.6890346 31
-4.5292101 4.5572271 1.6979777 39
-3.9998639 4.637898 1.6989442 36
-3.7477672 4.6187057 1.6965376 38
-3.4676197 4.5907817 1.7072774 36
-1.2507328 4.5317788 1.7323233 2
-0.94023758 4.540411 1.744085 47
-0.78524923 4.506866 1.7277399 24
-0.68293661 4.5962076 1.7267383 50
0.048809659 4.5949383 1.74412 39
0.27843612 4.5745201 1.7479154 31
0.82968229 4.592567 1.7422546 22
-4.7385793 4.6867757 1.6927902 38
-3.8403854 4.7716527 1.6941499 4
-0.54142892 4.7175446 1.7277322 55.5
0.31981146 4.7803502 1.7373239 48
-4.8320208 4.8104024 1.6922902 4
-4.1620464 4.8383212 1.6848346 2
-3.7195387 4.852602 1.6540946 3
0.064212009 4.8181553 1.7333871 50
-0.72169554 5.0406399 1.7347902 58
-0.55450726 5.0772715 1.720575 53
0.3724913 5.0267954 1.7380258 45
0.59687841 5.0032806 1.7428056 50
-1.7587147 5.1316361 1.7069541 3
-0.37979868 5.1747618 1.7197851 48
0.67033178 5.2378721 1.7313462 43
-1.6668141 5.2588286 1.7084943 3
-0.74963832 5.3217216 1.7187718 48
-0.21526551 5.285152 1.7235824 46
0.4237479 5.3031168 1.7348012 39
-3.8301575 5.4202857 1.6931871 18
0.75873882 5.5111709 1.7313806 34
0.97783524 5.4884696 1.734768 35
-3.9000523 5.5826087 1.6858276 31
-0.77722895 5.6662688 1.7174188 35
-0.45624232 5.6118703 1.7207793 40
-4.0230699 5.8079967 1.6861366 20
-3.7989018 5.7601361 1.6796023 31
-0.2639454 5.7459083 1.7065338 35
-0.064725481 5.8045387 1.7098241 35
0.8515982 5.8264437 1.7257322 28
1.0911852 5.7561026 1.7256953 35
-3.8104479 5.8806739 1.6851264 32
-0.4577851 5.977901 1.7143387 36
0.12193744 5.8739614 1.7157303 36
-1.3739398 6.1035881 1.6937596 36
-0.8173337 6.0623569 1.7097484 29
1.226001 6.0776429 1.7293552 29
-1.2671336 6.1937532 1.6829396 14
-0.13118748 6.2158256 1.681878 5
-0.45380205 6.3871422 1.7097186 9
1.3411504 6.3203192 1.6849974 15
0.11113848 6.5806503 1.6958083 30
0.26092905 6.5427203 1.6847705 16
-0.61326832 -3.1995981 1.8747877 19
-0.51888955 -3.1789775 1.8791758 35.5
-0.38219118 -3.1785321 1.8810704 29
-0.2843422 -3.1569316 1.8861133 48
0.011130524 -3.2481027 1.8063158 19
0.20533206 -3.1926725 1.8674952 22.333334
0.31951272 -3.2364841 1.8243693 18
0.523063 -3.1649301 1.8843979 1
0.96189487 -3.1726406 1.8202736 35
1.2324166 -3.1758726 1.8092629 34
1.3731449 -3.1582556 1.8540057 23
1.5939708 -3.2409558 1.8904711 12
2.416656 -3.1635256 1.859885 11
-0.16814071 -3.1447449 1.8887569 51
0.11120215 -3.0960307 1.8925974 60
0.68142462 -3.1295667 1.8931466 25
0.81219512 -3.1186411 1.9138354 46
1.0267944 -3.1141653 1.9108261 57
1.1470926 -3.0694718 1.9012796 53
1.3395203 -3.1297209 1.904904 12
1.7434492 -3.0133219 1.9098963 55
1.8923402 -3.0293519 1.9194444 54
2.060956 -3.0765018 1.9131684 26
2.1371553 -3.1042085 1.9163605 0
2.3352444 -3.120302 1.8725449 15.666667
2.4925447 -3.0344675 1.8750321 39
2.7567291 -3.0446417 1.8106567 58
-0.93574405 -2.9227426 1.8735892 63
-0.79930878 -2.9492111 1.8808078 23
-0.61862898 -2.9500284 1.8836846 62.5
-0.48311955 -2.951725 1.8816816 65
-0.33957323 -2.9302068 1.8880388 66
-0.055287242 -2.9232845 1.8885965 62
0.29209346 -2.9966338 1.8926834 55
0.40798938 -2.9784513 1.8987068 58
0.55284566 -2.9430878 1.9016205 58
0.77515262 -2.8994548 1.9005152 60
0.93129629 -2.9448109 1.8957299 53.5
1.0896326 -2.9869633 1.8965057 52
1.4669886 -2.9174242 1.9056395 54
1.5701689 -2.8854046 1.9082998 50.666668
1.7756598 -2.9486876 1.9150678 48.5
1.8857278 -2.9373507 1.9190389 48.5
2.2295129 -2.9975405 1.9282316 47
2.3699656 -2.9202008 1.9215351 46
-0.93280011 -2.7193151 1.882332 4
-0.78238487 -2.7371926 1.8723816 59
-0.6346755 -2.7388144 1.8825256 62.5
-0.49204814 -2.7203064 1.8818432 59
-0.20470387 -2.7350016 1.8887641 60.5
0.079545245 -2.814146 1.8891703 64
0.20067097 -2.7999041 1.892176 60
0.35554236 -2.7702804 1.8950918 66
0.55744976 -2.7038369 1.893757 64
0.69030482 -2.7541447 1.8875285 61.666668
0.86227959 -2.8466477 1.8885432 59
1.2647251 -2.7747853 1.8945545 53
1.4242826 -2.755096 1.9084969 52.5
1.6475605 -2.7560456 1.9164945 47
1.8110394 -2.749074 1.9139019 45
2.0238853 -2.7767384 1.9178233 48
2.182817 -2.7386127 1.9205502 48.5
2.4559934 -2.805371 1.9251529 53.666668
2.6709816 -2.8024592 1.8566974 10
-0.24719162 -2.684257 1.8802238 63.5
-0.11228865 -2.6342194 1.8848149 64
0.073480457 -2.6236534 1.8902693 61
0.22685029 -2.5990868 1.8925525 69
0.49595729 -2.6051719 1.8864435 59.333332
0.75021511 -2.5810342 1.8844558 65
1.0023572 -2.6750691 1.8882092 56
1.1225259 -2.6288569 1.894021 59.5
1.2311311 -2.6034977 1.9060398 51
1.443471 -2.599359 1.9019259 49
1.5592121 -2.6484866 1.9037677 47
1.7250049 -2.6492155 1.9106268 49
1.8651131 -2.5979438 1.920013 52
2.0317707 -2.5752938 1.9171571 44
2.1687081 -2.6238928 1.9173032 48.5
2.295933 -2.6389422 1.9198961 47
-0.78235596 -2.5498698 1.8800524 58
-0.62839109 -2.5288632 1.8806592 58
-0.37677419 -2.5104361 1.8829799 62.5
-0.21928385 -2.4594533 1.8823972 58
-0.030508656 -2.4539943 1.8838395 63
0.070838019 -2.4460888 1.8909911 66
0.29306531 -2.4475029 1.8823613 59
0.34446302 -2.4841001 1.8873931 60.333332
0.5495379 -2.4672105 1.8836499 59
0.67398548 -2.4168477 1.8861843 56.5
0.86273521 -2.5315502 1.8883562 59
0.97776401 -2.4765067 1.8931267 67
1.1231629 -2.4554074 1.8930583 53
1.3033111 -2.5179968 1.8931303 52.5
1.4989167 -2.4292967 1.8943735 54
1.5842094 -2.4591508 1.9026994 51
1.7493382 -2.4800568 1.9035306 45.333332
1.8681867 -2.4911089 1.9084492 44.5
2.0254335 -2.4735494 1.9121604 49.5
2.1693215 -2.5079319 1.9152046 44
-3.0108566 -2.2780666 1.8435444 70
-0.50989527 -2.3188858 1.8792027 33.75
-0.37165898 -2.2865293 1.8737011 60.5
-0.1781548 -2.2998176 1.8806556 68
-0.070657551 -2.2900178 1.8804282 71
0.13332765 -2.3103971 1.875712 65
0.18163492 -2.3247731 1.8830862 65.333336
0.36365706 -2.3498631 1.8843135 62
0.50021505 -2.3018327 1.8853616 60
0.6052407 -2.2634618 1.8884772 36
0.81718713 -2.3259246 1.8926107 59.5
0.95025593 -2.3710632 1.8952867 54.5
1.1312073 -2.2876015 1.8920985 53
1.2851559 -2.3123503 1.8947178 54
1.4132942 -2.3465977 1.8988289 56.400002
1.5908924 -2.3635714 1.9040356 45.5
1.6925794 -2.3901696 1.8994685 46
1.8615384 -2.3867249 1.9077629 47
-2.6539092 -2.146982 1.8242999 23
-0.63877475 -2.1320016 1.8692175 65
-0.58632457 -2.1213794 1.8732758 62
-0.3760137 -2.1395833 1.8720484 60
-0.19853996 -2.144388 1.8749388 68
-0.013747173 -2.1760559 1.8706537 68
0.036018502 -2.170006 1.8768045 65.333336
0.24155122 -2.2066474 1.8738194 61.5
0.38541937 -2.1683328 1.8790091 65
0.53574282 -2.1461356 1.882894 64.666664
0.67775875 -2.1837852 1.8880869 63
0.81034088 -2.1633513 1.8882842 57.666668
0.96491748 -2.1678402 1.8926671 58
1.1182522 -2.205241 1.8952351 54.25
1.253247 -2.2490952 1.8974715 49
-3.0218034 -1.9662843 1.837809 78
-2.9200492 -2.081835 1.845878 75
-2.6655009 -2.0193956 1.8369731 63
-2.4958813 -1.9907731 1.804278 32
-0.78124428 -1.9694009 1.8632241 70
-0.726282 -1.9547632 1.8658005 66.5
-0.56471819 -1.9799271 1.8707734 65
-0.37259617 -2.0014613 1.8695434 72.5
-0.10766522 -2.0148368 1.8689381 71
0.060084376 -2.0417631 1.8700818 64
0.25460246 -2.0024357 1.871816 67.5
0.39214873 -2.0244753 1.8772659 62.5
0.52154112 -2.030072 1.8815157 64.5
0.68302149 -2.0121708 1.8807858 63.5
0.81713247 -2.0519528 1.8910501 63
-2.8627512 -1.9249057 1.832261 62
-2.7138844 -1.8671398 1.8265527 61
-2.611598 -1.941749 1.8282801 56
-2.5106461 -1.8284985 1.8339689 58
-2.3635225 -1.9232725 1.845539 63
-2.1534693 -1.8056562 1.8395525 60
-0.88079321 -1.804816 1.8594779 67
-0.69074017 -1.9051279 1.8661714 68.333336
-0.54055077 -1.8505042 1.8589274 85
-0.41877788 -1.8720608 1.8700532 79
-0.227896 -1.8818953 1.8703486 73.199997
-0.065547146 -1.8299634 1.8646404 73
0.11047653 -1.8661336 1.8698725 69.333336
0.23619138 -1.8537018 1.8748512 67.285713
0.36925849 -1.8779262 1.8770097 70
0.51961565 -1.8720051 1.8807746 67.333336
0.64812809 -1.9302896 1.8851084 61.666668
-3.0236375 -1.6733798 1.8274764 74
-2.9468808 -1.794663 1.8313607 69
-2.7159832 -1.7444887 1.8317975 64
-2.6082091 -1.7130001 1.8292155 55.5
-2.4184229 -1.6874504 1.8423768 61
-2.0175629 -1.6802179 1.8422542 53
-0.80152261 -1.7595249 1.8603388 75.800003
-0.63878626 -1.714904 1.861569 74
-0.49884748 -1.6966376 1.8601304 78
-0.34857684 -1.7477767 1.860042 82.75
-0.26355278 -1.7185283 1.8622351 75
-0.060076114 -1.6852036 1.8613595 77.5
0.080338411 -1.7134448 1.866066 72.333336
0.22213173 -1.7140326 1.8699176 70
0.37561536 -1.7270482 1.8784258 75.25
0.45395178 -1.7857124 1.8808299 81
-2.9458256 -1.5831373 1.8276812 69.5
-2.7598586 -1.5941486 1.8228935 68
-2.5892556 -1.5467232 1.8307488 60.5
-2.5131996 -1.5651195 1.8316294 57
-2.1609669 -1.5830688 1.8381292 60.5
-1.9913112 -1.5688716 1.8408446 60.666668
-0.93394154 -1.6303872 1.8519825 72.666664
-0.86698031 -1.5825499 1.8568777 76.666664
-0.66486174 -1.5916228 1.8565336 77.5
-0.52284628 -1.5576211 1.8553087 85
-0.39060009 -1.6029721 1.8594676 79
-0.21083963 -1.5751488 1.8595946 78
-0.074055783 -1.5687466 1.8637973 76.14286
0.063862465 -1.5730349 1.8649029 73.75
0.21400595 -1.5816284 1.868305 75.800003
0.3099249 -1.6138468 1.8736101 76
-2.9413521 -1.3556221 1.8202325 66
-2.7598417 -1.481409 1.8277367 67
-2.6598532 -1.3858776 1.8260884 59
-2.4661882 -1.4575056 1.8374175 60
-2.134635 -1.4110842 1.8309509 59
-2.0392582 -1.4140615 1.8343605 60.666668
-1.8881627 -1.449447 1.8386256 60
-1.6549 -1.3588511 1.8430773 55
-1.5294886 -1.4722584 1.8464159 57.666668
-1.4325969 -1.4391713 1.8461435 48.5
-1.3167975 -1.4671798 1.8466259 83
-0.97762203 -1.4534627 1.8545605 63.666668
-0.7821281 -1.4044938 1.8586639 47
-0.64946204 -1.4227546 1.8577428 48.666668
-0.52045244 -1.4340984 1.8583045 61.333332
-0.3666791 -1.4344997 1.8582408 46.75
-0.22456028 -1.4232457 1.8606601 55.125
-0.067714639 -1.4321607 1.8654584 60.166668
0.082887605 -1.4517753 1.8642578 75.599998
-2.8024998 -1.2816237 1.8240917 62.5
-2.6176674 -1.2575748 1.8246685 60
-2.5196128 -1.2815026 1.8289808 60
-2.2670262 -1.3290499 1.8334633 61
-2.1441922 -1.22216 1.8307493 57
-2.0226727 -1.2785848 1.8362038 65.5
-1.9408219 -1.2615952 1.8351218 65
-1.5535265 -1.2777288 1.8403521 71.800003
-1.4217217 -1.3133464 1.8468814 70.5
-1.0868539 -1.3214622 1.8481501 76.666664
-1.0034665 -1.2828779 1.8535757 67.333336
-0.85261601 -1.2778587 1.8565103 61.5
-0.67328858 -1.2588935 1.8558506 60.166668
-0.48922884 -1.2793866 1.8625879 39.666668
-0.36683497 -1.2760596 1.8614167 34.666668
-0.22295502 -1.2771108 1.8622943 30.875
-0.067187272 -1.2793028 1.8649536 30.4
0.042776864 -1.3264259 1.8719765 28
-4.4432778 -1.139266 1.8056027 24
-4.2578669 -1.0793358 1.8051969 2
-2.9691031 -1.0862963 1.8118569 50
-2.7777004 -1.1249137 1.8181868 60
-2.6662831 -1.1202482 1.8206805 63
-2.5493858 -1.1008309 1.8266016 61
-2.3083243 -1.0990254 1.8259026 60
-2.1977081 -1.1574403 1.8252813 64
-2.0406842 -1.0969512 1.830855 63.5
-1.6897483 -1.1312323 1.8349665 71
-1.5715811 -1.1273541 1.8389268 67.25
-1.4352249 -1.1556851 1.8448173 71
-1.12073 -1.1559184 1.8484112 78.400002
-0.99646074 -1.1265217 1.8522002 85.333336
-0.83216786 -1.1190394 1.8536954 87.333336
-0.67004156 -1.1009929 1.8550262 84.199997
-0.52417129 -1.1288596 1.8563993 74.714287
-0.37733227 -1.1211088 1.8556972 57.125
-0.21856049 -1.1383221 1.8586912 58
-0.096254185 -1.1390787 1.8598317 76
-3.0443845 -1.0298767 1.8128887 83
-2.7887862 -0.95678979 1.8177695 61.5
-2.6430736 -1.0270046 1.8255213 63
-2.5460904 -1.0223229 1.8259548 66
-2.1794422 -0.98245955 1.8252342 65
-2.0393157 -0.90747041 1.8281478 64
-1.717085 -0.93993807 1.8309425 71.666664
-1.5808524 -0.98901486 1.8385731 68.75
-1.483098 -1.0008508 1.8375188 74
-1.2253382 -1.0201125 1.8464431 79
-1.1128621 -0.98953867 1.8507124 84.800003
-0.92868811 -0.95274568 1.8514917 94.5
-0.84587169 -0.99672085 1.851688 91
-0.6749301 -0.96631944 1.8477882 78.285713
-0.51996148 -0.98045272 1.8452803 63.200001
-0.39124623 -0.95975441 1.8476266 48
-0.22840711 -1.0019226 1.8471267 41.599998
-3.0449617 -0.89681381 1.8124839 90
-2.9320848 -0.82967138 1.8110837 39
-2.7052996 -0.89403671 1.8200539 70
-2.6009643 -0.83188176 1.8216568 67.333336
-2.3422587 -0.87582678 1.8187786 61
-2.1730134 -0.81271672 1.8236527 63.75
-2.0294309 -0.89756519 1.8265032 69
-1.7319864 -0.77318048 1.8273311 72.666664
-1.5779822 -0.84204328 1.8373753 71.5
-1.2559673 -0.8755154 1.8441213 80.333336
-1.1405097 -0.84234172 1.8471189 90.25
-0.97643715 -0.81296647 1.8437364 86.25
-0.82954615 -0.82410759 1.8422617 81.166664
-0.66594291 -0.80930948 1.8436596 78.375
-0.53637475 -0.83979851 1.8439425 68.14286
-0.38922843 -0.83963567 1.8462217 58.799999
-0.27787989 -0.83130062 1.8480319 51
-3.8976331 -0.63716912 1.8096813 4
-3.4558649 -0.65695655 1.8056668 81
-3.3988514 -0.65840793 1.8076595 41
-2.8636858 -0.74161434 1.815991 5
-2.7576027 -0.68687731 1.819288 3.5
-2.5919738 -0.6375913 1.8172166 40.5
-2.3014965 -0.66790324 1.8123579 72.666664
-2.1624451 -0.6404407 1.8181159 70.5
-2.0564375 -0.71963525 1.8179884 73.5
-1.8449858 -0.60954607 1.8391346 46
-1.7275846 -0.68014526 1.8259959 63.5
-1.6080867 -0.68403536 1.8316587 71.5
-1.2696918 -0.68037105 1.8380419 83.333336
-1.1402857 -0.68023205 1.8424652 83.400002
-0.96823597 -0.66304129 1.8339572 79.333336
-0.79969215 -0.66238558 1.8389696 81
-0.68732494 -0.67057168 1.8374342 78.571426
-0.53331512 -0.66455323 1.8390638 76
-0.39908236 -0.67866391 1.840874 66.800003
-2.292573 -0.53254008 1.8143672 78
-2.1465635 -0.53664798 1.8230776 63.333332
-2.0882056 -0.55080462 1.8475281 62
-1.7279927 -0.53429472 1.8375158 61
-1.5993772 -0.53178561 1.8293469 71.5
-1.3547866 -0.57478082 1.8386799 82
-1.2707186 -0.49524578 1.8328294 81.333336
-1.1545073 -0.51460975 1.8338348 73
-0.98466802 -0.54092675 1.8316972 79.75
-0.83111745 -0.51405674 1.8355756 82.833336
-0.68416047 -0.51450861 1.8341777 80.5
-0.51922745 -0.50200289 1.8370785 76
-0.41403627 -0.50036472 1.8403019 74
-2.3460011 -0.42692035 1.8065747 73.5
-2.2162843 -0.38679624 1.8124443 65
-1.8453295 -0.41566771 1.8382305 62
-1.7229056 -0.38340759 1.8258766 72.666664
-1.6186801 -0.38275927 1.8244127 76.5
-1.382059 -0.42703655 1.8326901 88
-1.272711 -0.37113827 1.8264282 77.25
-1.1157904 -0.3696059 1.8289535 77.5
-0.96623951 -0.38444218 1.8295723 79.833336
-0.81840754 -0.37010124 1.8315439 77
-0.66134518 -0.3763769 1.8341147 77
-0.53730953 -0.36165813 1.8568904 42.200001
-2.4245713 -0.2323671 1.8134781 9
-1.8158232 -0.24177662 1.8331014 64
-1.7067986 -0.24144757 1.8252696 78.25
-1.6156726 -0.21566518 1.8263491 79
-1.4053097 -0.2810694 1.8313545 99.5
-1.2864573 -0.22081514 1.8258499 80.599998
-1.1447347 -0.23243909 1.8274643 78.599998
-0.97570145 -0.2109348 1.8250405 78.199997
-0.83150256 -0.22783004 1.8287201 76.454544
-0.67621565 -0.22347704 1.832139 77.800003
-0.5507701 -0.24679489 1.8376546 66.666664
-1.7197832 -0.08453095 1.82022 81.5
-1.6210099 -0.070682049 1.8269037 83
-1.4241723 -0.089985408 1.8259922 101.66666
-1.286166 -0.078926817 1.8187973 77.199997
-1.1324047 -0.071040101 1.8243154 84
-0.94884998 -0.068697914 1.8250616 78.714287
-0.83004248 -0.075096525 1.8270493 76.571426
-0.66483986 -0.070308901 1.829813 80.400002
-0.53352714 -0.11024808 1.8286942 78
-2.3340406 0.075478151 1.8007754 77
-2.0750055 0.14479432 1.8073601 79
-1.8599696 0.10970408 1.8113351 80.666664
-1.7302198 0.072286636 1.8183178 83.75
-1.6202047 0.072399758 1.8260962 84
-1.4052964 0.10437676 1.8175964 93
-1.2794497 0.053187873 1.8177328 78.833336
-1.1437917 0.10180513 1.8188945 80.666664
-0.96050054 0.072680071 1.8233492 81.375
-0.84198999 0.072317712 1.8245001 78.428574
-0.67196369 0.068768524 1.8265734 79.5
-0.51857865 0.058851331 1.8244662 81.5
-2.2787783 0.18014418 1.8047682 86
-2.2008653 0.18947555 1.8039664 80
-1.8629614 0.28569606 1.808991 78.666664
-1.7339951 0.23121887 1.8148692 85.25
-1.6145706 0.21655484 1.8235093 82
-1.3945551 0.24381256 1.8211271 94
-1.2642825 0.22425422 1.8170202 79.25
-1.1400028 0.22651146 1.8141547 79.333336
-0.97960663 0.22602096 1.8180159 79.375
-0.8371796 0.22800538 1.8195565 75.5
-0.67745352 0.21611434 1.8237628 78.818184
-0.52008462 0.22077176 1.8186871 87
-2.1834183 0.38627979 1.8004117 84.5
-2.0688949 0.3149955 1.8057262 88
-1.8412458 0.44639799 1.8065985 73
-1.732281 0.39196414 1.8097851 82.5
-1.6032956 0.36078024 1.8186501 84
-1.4017688 0.39665595 1.8165179 94
-1.2683992 0.38533995 1.8121525 77.800003
-1.1247263 0.37635973 1.8149754 74.5
-0.96496564 0.36557072 1.8157225 78.599998
-0.84556335 0.37524962 1.8167044 76.375
-0.66815037 0.36361268 1.8211461 78.5
-0.54990321 0.37904271 1.8246804 76.75
-2.0592306 0.48728406 1.8041803 89
-1.8759098 0.47458476 1.8143842 59
-1.7293942 0.55617028 1.8105477 70.25
-1.5878996 0.50513208 1.8147875 84
-1.4137151 0.53395337 1.8174217 90
-1.2843567 0.54462683 1.8119272 83.400002
-1.1119171 0.52237517 1.8122123 74.333336
-0.95949155 0.51654148 1.8108963 75.800003
-0.82862782 0.52477843 1.8121631 76.818184
-0.67062634 0.50959021 1.8187034 70.5
-0.55349427 0.54151493 1.833313 49
-2.0446208 0.66068971 1.8008543 83
-1.8268081 0.63296211 1.8022221 87
-1.7420281 0.71292329 1.8025895 89.666664
-1.6029848 0.70022511 1.8085843 85
-1.39419 0.6869508 1.8143332 88
-1.2703387 0.68533337 1.8141203 90.400002
-1.0967677 0.67209011 1.8094463 77
-0.95905799 0.6723302 1.8094484 71.333336
-0.81058609 0.66106111 1.8112178 75.75
-0.67471403 0.67121679 1.818282 66.666664
-0.52685076 0.67415333 1.8135 79.166664
-1.5462382 0.7991696 1.8095812 81
-1.3869312 0.77719021 1.8127385 93
-1.2833086 0.8168146 1.8103552 90
-1.1603953 0.84981233 1.8116685 84.666664
-0.99411851 0.81013119 1.809111 81
-0.82691056 0.81715906 1.8107797 72.571426
-0.67027289 0.80736941 1.8108649 74
-0.53450447 0.83908492 1.8123412 73.5
-0.41671926 0.82931679 1.8130505 75
-1.5643886 0.92864716 1.8033745 85
-1.2770085 0.92721885 1.8072129 88
-1.1307101 0.9862532 1.8104941 84.666664
-0.94637704 0.9864952 1.8094497 88
-0.81891996 0.96684408 1.8096784 80.714287
-0.66419572 0.98023689 1.8105767 82.25
-0.52581489 0.9678362 1.8086619 69.5
-0.4125019 0.987602 1.8116536 68.666664
10.926023 0.95558977 1.8403405 1
-1.4854136 1.1026934 1.805173 79
-1.2598066 1.0813054 1.8023448 86.5
-1.1325583 1.1296632 1.806866 76
-0.95566005 1.1332039 1.809287 83
-0.81027174 1.1370772 1.8091707 82.25
-0.65824926 1.1275423 1.8117359 82.599998
-0.52382803 1.1252053 1.8112638 79.285713
-0.3773728 1.124615 1.8170029 83.800003
-0.28003764 1.1740355 1.8181149 77
-1.1142917 1.2646409 1.8024635 73.333336
-0.9738031 1.2482206 1.8079222 71
-0.82775337 1.2688632 1.804783 75.75
-0.68545824 1.2692558 1.8105383 75.5
-0.52537781 1.2595726 1.8111666 79.333336
-0.38927951 1.2751613 1.8120242 75.666664
-0.26243076 1.2642114 1.8166727 67
-0.92231613 1.3804077 1.8037754 68
-0.68099695 1.3953247 1.8022778 71
-0.50654387 1.4018829 1.8064471 68.25
-0.38553753 1.3937896 1.8066303 71.333336
-0.23147629 1.4133979 1.8071541 69.285713
-0.52846044 1.5693268 1.8047704 28
-0.38069996 1.5733284 1.8037788 29.666666
-0.24910091 1.5774704 1.805884 30.666666
-0.100787 1.6009716 1.803248 30.799999
10.959012 1.5189416 1.8486296 1
-0.20034865 1.6850542 1.8000413 66
-0.023160134 1.6740997 1.8023047 49
-0.27200678 1.906743 1.802663 65
-0.06543161 1.8429816 1.8017563 70
0.083239689 1.8641715 1.8005005 64
-0.16436344 2.0424097 1.8006328 66
-0.92748505 -5.0588365 2.0138352 3
