# .PCD v0.7 - Point Cloud Data file format
VERSION 0.7
FIELDS x y z intensity
SIZE 4 4 4 4
TYPE F F F F
COUNT 1 1 1 1
WIDTH 96
HEIGHT 1
VIEWPOINT 0 0 0 1 0 0 0
POINTS 96
DATA ascii
-0.18644401 3.5801003 -0.90298694 5
1.8845379 1.3245327 -0.80451566 4
-0.096580818 2.5724404 -0.86956584 14
-0.080199778 2.7205377 -0.8819412 11
-0.2274767 3.3874185 -0.89081675 5
-0.1399515 3.4173753 -0.89161515 5
-0.38885564 3.5903935 -0.76921803 143.2
-0.18439178 3.5476496 -0.89662141 5.3333335
-0.10355947 3.5957012 -0.80860645 118.33334
-0.094145507 3.6189251 -0.82615286 38
0.9547264 -1.6995831 -0.65569067 0.5
2.5175424 -0.41591278 -0.65347058 87
2.509006 -0.25694323 -0.64581275 86.5
2.4929829 -0.066416539 -0.64408392 87.333336
2.4882283 0.11399568 -0.65391833 87.333336
2.4837031 0.27915019 -0.63429904 98
2.4791489 0.38512295 -0.66878933 79.5
2.4694915 0.49679264 -0.66254276 93.5
2.4699395 0.66545707 -0.64467072 93
2.4594128 0.85507363 -0.62872761 96.333336
2.2875366 1.0332747 -0.62666571 40
1.5451025 1.1344466 -0.66700643 3
-0.11918324 1.75695 -0.60919738 18
-0.12185138 1.8589123 -0.61080921 10
-0.32390028 3.5866523 -0.74147367 121.5
1.6763997 -0.60281008 -0.47055346 0
2.092669 -0.68329471 -0.54827034 95
2.0937436 -0.56225914 -0.53049767 24
2.1021433 -0.52088284 -0.58089209 86
2.5144989 -0.46966529 -0.5935241 85
1.6069429 -0.38442236 -0.46539003 0.5
2.5171165 -0.38036612 -0.51781487 84.25
2.4992042 -0.20694347 -0.53560841 96.5
2.4916317 -0.064692982 -0.49372706 92.333336
2.4873495 0.076723598 -0.51783234 93.75
2.4767561 0.24294877 -0.52221477 97.75
2.4698114 0.39524567 -0.53704548 100
2.4747272 0.5173974 -0.50646275 86
2.4679286 0.67102265 -0.51090944 91.5
1.7072306 0.89516616 -0.49499184 2.5
2.4630389 0.84523189 -0.53021425 96
1.565936 1.0070996 -0.48089457 29.5
2.1221707 1.0270599 -0.49275607 55
2.3333683 1.0387571 -0.46939743 47.5
2.4536896 0.98356616 -0.5472362 94
1.1102576 1.1110294 -0.53971398 4
1.396246 1.0839223 -0.45102862 89
0.72602558 1.3342264 -0.46966523 67.5
0.85753155 1.3273953 -0.49945283 54.625
0.98051715 1.3352714 -0.51691037 35
1.1260089 1.2642565 -0.51101267 33
1.06133 1.3540487 -0.46648917 60
-0.45781767 1.6234795 -0.4584153 71
-0.39028984 1.6297197 -0.46813035 66.5
-0.28379416 1.6408522 -0.47281438 67
-0.34332424 1.6745653 -0.51335305 34.5
-0.24198385 1.6594772 -0.47540244 44.333332
-0.087267123 1.7314681 -0.49285913 23.75
-0.12521943 1.9780604 -0.56343913 4
-0.22942635 -3.2892828 -0.41081521 15
1.1580497 -0.54482007 -0.42606065 3.5
1.2197617 -0.53396487 -0.40097272 22
1.4695324 -0.56370342 -0.40961468 104
1.5693587 -0.49722707 -0.44124296 21
1.5829663 -0.38463944 -0.41446352 4
2.51947 -0.41210341 -0.41219825 79
2.4959807 -0.24025685 -0.42359212 124.5
2.488878 -0.070452042 -0.4130865 100
2.4846175 0.085520297 -0.41349691 93
2.47667 0.24158782 -0.40818366 95
2.4596732 0.79766512 -0.43982646 91
1.4325789 1.0322459 -0.41448352 93.666664
1.5544639 0.94480395 -0.44210726 32.5
1.9072907 1.0268147 -0.42617437 4
2.4510164 0.97124439 -0.41254437 91
-0.10006937 1.1926174 -0.40214238 1
1.180402 1.0800786 -0.40363908 75
1.9698935 1.0572253 -0.42449269 17
0.5846318 1.3284878 -0.4202365 74
0.67641938 1.3326665 -0.42986864 69.800003
0.75123888 1.3367144 -0.40354958 57
0.9090386 1.3460001 -0.41439888 58
-0.5386073 1.6447011 -0.42338473 49
-0.37853879 1.6364179 -0.43926325 63
-0.55047524 1.6958512 -0.40999132 30
-0.40677837 1.6888685 -0.41423723 25.333334
-0.1830506 1.7079759 -0.424555 19
-0.083816886 1.7082516 -0.44119349 76.666664
-0.53502387 1.8303018 -0.40687394 150
-0.17533374 1.9393637 -0.40375224 2
-0.61365008 2.0935669 -0.41416591 38
-0.58192158 2.0842545 -0.41238123 56
-0.61760867 2.1144545 -0.41290754 19.5
-0.45962915 2.1212056 -0.41175652 18
-0.35070723 2.1254082 -0.41169089 19
-1.0174906 3.571739 -0.40273267 7
