# .PCD v0.7 - Point Cloud Data file format
VERSION 0.7
FIELDS x y z intensity
SIZE 4 4 4 4
TYPE F F F F
COUNT 1 1 1 1
WIDTH 1328
HEIGHT 1
VIEWPOINT 0 0 0 1 0 0 0
POINTS 1328
DATA ascii
-0.13466406 -1.3728212 -0.17137066 1
-0.099604174 -1.3084747 -0.16630806 1
-0.26279956 -1.0667244 -0.17749517 0
-0.31849465 -0.74838275 -0.19947787 4
0.47897843 -0.63243568 -0.17763904 8.5
-0.48594293 -0.56527686 -0.16306482 8.833333
-0.38619053 -0.54072565 -0.17645401 5.8333335
-0.080476984 -0.48945573 -0.1943965 2.5
0.045198333 -0.45763811 -0.18312792 2
0.44485211 -0.45476323 -0.17761165 9.5
0.4606854 -0.53141147 -0.17131425 12.666667
0.096823111 -0.43541935 -0.17817441 0
0.44117728 -0.41314065 -0.17630281 9
0.52795273 -0.37437135 -0.16721545 6.5
0.67396671 -0.34603059 -0.16538778 5
0.82468611 -0.31506869 -0.15630203 3
1.0374806 -0.2761777 -0.19229141 2
1.1649368 -0.15362042 -0.15835525 1
1.2130651 -0.22559845 -0.18503393 3
1.3736887 -0.16429618 -0.16652724 3
2.0182328 -0.079667196 -0.1928066 72
1.9490921 0.29886454 -0.19359031 76
1.9688003 0.17713797 -0.19986562 73
1.927907 0.41963154 -0.18401751 76
1.9041939 0.54412746 -0.18050824 81.5
1.8814949 0.66754323 -0.16295777 84
1.8556405 0.83333015 -0.16980048 87.5
-0.65768516 0.96228009 -0.17596743 13
-0.51588607 0.99655509 -0.16951829 19.111111
1.8289264 0.99443746 -0.16294014 91
0.74566346 1.1754827 -0.18986087 5
0.82390881 1.1331061 -0.18590982 1.6666666
0.74157721 1.2295901 -0.1823242 37
0.78346157 1.223937 -0.1670543 20.333334
1.2378402 1.3041582 -0.17392264 3
1.789619 1.2534189 -0.15225968 95
-0.18377781 1.4282551 -0.1713974 14.5
-0.091794044 1.4441459 -0.17366089 14.5
0.45762795 1.4702611 -0.16852336 59
0.28876615 1.5176226 -0.18594979 79
0.37335977 1.5337101 -0.18212946 64.166664
-0.21567333 -0.83732182 -0.089574836 9.0625
-0.14589106 -0.84281272 -0.10545249 5
-0.73812681 -0.60662925 -0.093434848 14
-0.32463631 -0.6586414 -0.088657677 4
-0.27173424 -0.71435791 -0.083084986 4.2857141
0.44018787 -0.62092692 -0.13367818 2
0.48178226 -0.65403634 -0.13924675 8
-0.66070414 -0.59129715 -0.092209771 10
-0.53923029 -0.56844002 -0.10417419 7.5454545
-0.38706684 -0.54526937 -0.1042363 7.3636365
-0.2491799 -0.52026576 -0.075967953 6.25
-0.13259327 -0.4639847 -0.083723731 2
0.41809735 -0.46937647 -0.089812204 7.1999998
0.46061239 -0.54493034 -0.12774017 11.4
1.5742818 -0.48864847 -0.069999166 0
1.6639341 -0.49586508 -0.11435548 6
-0.17674531 -0.44227687 -0.078072138 2.3333333
-0.1114495 -0.42249501 -0.085072421 2.5
0.14011426 -0.36523661 -0.080859654 0.66666669
0.20396005 -0.38218451 -0.074232697 2.1666667
0.39329657 -0.4053416 -0.089534394 7.25
0.5287199 -0.36734083 -0.09407711 5.6666665
0.6703068 -0.33853441 -0.10363807 3.7
0.78722727 -0.3156766 -0.083249301 5
1.0891891 -0.34461948 -0.084407605 5.3333335
1.2722138 -0.30915529 -0.082183816 19
1.6054385 -0.39759511 -0.080866046 44.5
0.8848111 -0.2912772 -0.075706817 0
0.98934156 -0.24383494 -0.077495456 0.5
1.1028808 -0.21084034 -0.017568652 1.3333334
1.2697035 -0.17250322 -0.070408218 4
1.2102138 -0.13054717 -0.12477688 2
1.4193883 -0.13728522 -0.024127966 4
2.0080442 -0.069412395 -0.076194324 39.799999
1.9892446 0.067295037 -0.093266375 71.666664
1.9633926 0.21875776 -0.094717383 75.285713
1.9343209 0.37682316 -0.077378593 77.166664
1.90636 0.51718259 -0.071394227 72
1.8825527 0.65752757 -0.067952827 81
1.8546184 0.80346417 -0.063178755 69.833336
-0.78741348 0.94246149 -0.10279572 6.4000001
-0.70434803 0.95254678 -0.13039128 11
-0.5531224 0.98509407 -0.12111533 10.222222
-0.39038941 1.0061141 -0.11449128 15.666667
1.8327816 0.96261102 -0.067084193 76
0.50584948 1.1957202 -0.10989494 0
0.73536128 1.1191796 -0.019535309 5
1.7829182 1.1397591 -0.017912483 9
1.8079354 1.1103107 -0.11171612 101.33334
-0.36779901 1.2289672 -0.05354828 12
0.53416556 1.238969 -0.098052196 17.857143
0.66653121 1.2739406 -0.11844583 12.75
0.79852229 1.2609016 -0.11822655 13.25
0.94077629 1.2000566 -0.031896297 6
1.135293 1.2371771 -0.034827758 4.5
1.7851052 1.2502452 -0.065744303 93.333336
-0.33246154 1.4023116 -0.049739461 14.714286
-0.23556428 1.421204 -0.1001696 14.3
-0.073979132 1.4546462 -0.043564294 14
0.089289941 1.4879556 -0.053322796 27.222221
0.16646434 1.4995227 -0.073869623 82
0.55328631 1.4444165 -0.024834886 9.666667
0.77469891 1.3546689 -0.12867525 8
1.7475379 1.4039655 -0.064325638 38.5
0.23227961 1.5138476 -0.10408254 69
0.37326229 1.5381497 -0.12306035 54
0.8794139 1.6025163 -0.12253631 18
1.7384222 1.5672499 -0.028234249 6
0.088432655 -3.1622374 0.045539405 0
-0.83821952 -0.97559869 0.13505492 13
-1.0785275 -0.58831012 0.14215651 0
-0.97227377 -0.56514317 0.10861156 0
-0.89026791 -0.55309963 0.087546125 0
1.3413169 -0.45528615 0.12746048 46
-0.21837951 -0.4019354 0.061439633 2.2857144
-0.11418787 -0.38641918 0.0026810123 1
1.3417765 -0.40145111 0.10440359 38
1.4177018 -0.35454088 0.1314252 17
1.5643587 -0.32246453 0.11037883 15.25
-1.0786312 -0.10876156 0.10323747 6
1.2467966 -0.13781601 0.10554143 4
1.4109664 -0.11253314 0.068841755 2.875
2.0003085 -0.012015475 0.0075474633 30
-1.0876009 0.072051115 0.11783613 0
1.9795294 0.10536472 0.0005861175 37
2.2455726 0.13959806 0.11200695 1
1.9620717 0.22399776 0.00093352317 31
2.2310371 0.21239001 0.12022307 21.666666
1.9406428 0.34062967 0.0061995937 33
1.991539 0.36029905 0.094872527 40
1.8997395 0.45385623 0.014164473 7
2.0242772 0.45607585 0.11248084 6
1.8736105 0.68355143 0.0012021315 5
-1.1426408 0.86953175 0.072283261 3
1.8325469 0.94492936 0.0014193606 4
0.70468223 1.1260047 0.063451789 5.5
0.80773896 1.1538126 0.063860372 4.5714288
0.95581377 1.1741841 0.070309855 5.1428571
1.0977697 1.1955392 0.11947262 4
0.50180203 1.2961545 0.023532057 11
1.0352347 1.2105207 0.026478643 5
1.1237811 1.2248554 0.03981873 4
-1.3592985 1.4735506 0.12549874 3
-1.2150093 1.4889324 0.11905582 3.5
-0.36356172 1.391053 0.087815031 8
-0.18942788 1.4329962 0.096557029 12.375
-0.069332868 1.4576952 0.066799641 17.6
0.041589193 1.4788872 0.011538903 22
0.56618875 1.4708182 0.014203305 42.666668
2.0037401 1.4247614 0.068429209 20.5
-1.1196769 1.5103836 0.10223971 2.3333333
-0.93607163 1.5376384 0.13224882 2.5
-0.83342648 1.559782 0.082790695 1.1666666
-0.63621527 1.5970857 0.11431446 5
-0.43518814 1.5723591 0.077259235 24.666666
0.29052651 1.529366 0.12888378 59
0.37898239 1.5497174 0.11232102 35.200001
0.80836147 1.6310905 0.027304554 4
1.7703168 1.5983932 0.05471044 60.5
1.8558691 1.5762554 0.077254437 51
2.019551 1.5358659 0.073178135 16
0.94995779 1.7915399 0.10900482 3
0.68024623 1.8557848 0.11735272 2
1.1101021 1.8136451 0.06803789 2
-1.1115358 -1.1096708 0.25145155 2.5
-0.95106298 -1.058166 0.18725328 12
-0.8258391 -1.0903932 0.25472707 5.3333335
-0.32506606 -1.0731026 0.28548706 9
-0.22981444 -1.0616789 0.28674769 6
-0.93839908 -1.0136958 0.29559833 1
-0.85095423 -1.030943 0.29342404 8
-0.28112346 -1.0273404 0.2545886 6
-1.0250562 -0.62936801 0.29835463 0
1.3928099 -0.68904191 0.26884261 24.333334
-1.1260197 -0.55999547 0.16476172 0
-1.0066981 -0.56271023 0.16642362 0
1.3430853 -0.47324321 0.23716681 43.666668
1.3618317 -0.55274922 0.21993876 39
1.3289434 -0.37614617 0.21929932 37.5
1.3875518 -0.37603432 0.23002273 36.5
1.6048231 -0.34100023 0.263569 104
1.6877363 -0.3638559 0.26190764 31
-1.1666391 -0.16570188 0.19101769 4
-1.2289419 -0.093593247 0.23854496 0
-1.1678388 -0.033955354 0.23126476 0.11111111
1.1392859 -0.11319038 0.17166126 2
1.2099841 -0.074197374 0.17923817 1
1.951756 -0.05405046 0.18718201 0
-1.1596204 0.065656446 0.24876967 0
2.2449608 0.11238921 0.25147647 1
-0.93952268 0.20158598 0.16912162 0
2.0365222 0.27155954 0.20586795 7
2.236973 0.19686055 0.23243316 19.75
1.9981861 0.37778121 0.21620412 33.200001
1.9874878 0.46555459 0.24384558 8.5
0.85250551 1.1784098 0.27602664 4
0.94893968 1.1279504 0.23979077 1.4
0.83291566 1.2048497 0.24947193 3.5
0.96107674 1.2105325 0.24133641 5.6666665
-1.5090921 1.4316282 0.15322143 52
-1.4700576 1.418151 0.18432428 20
-0.346293 1.4091223 0.24240437 10.75
-0.24127719 1.4291117 0.18418838 12.625
-0.016274679 1.4780645 0.27628335 64
0.07000035 1.4910945 0.26153719 65.666664
2.0119455 1.4668069 0.22824611 23
-0.4331786 1.5627046 0.27958271 20
0.13694151 1.5055466 0.25539106 64
0.22480093 1.5211263 0.19747238 62.363636
0.33306578 1.5404673 0.19111009 61.333332
-0.48755014 1.8682158 0.17017806 1
1.0512041 1.8094513 0.27712137 2
1.2526877 1.8424712 0.25178695 2
-0.32549566 -1.0714737 0.30445343 7
-0.8680827 -1.0078522 0.32031253 15.4
-1.1535344 -0.61919647 0.30694211 0
-0.98269254 -0.6000514 0.32873273 0
1.3858973 -0.67261201 0.31369904 16.666666
-1.1061902 -0.57057178 0.32452774 0
-1.0054433 -0.58303046 0.32089311 0
1.3374025 -0.46896866 0.33093303 0
1.3652685 -0.54044849 0.31919134 9
1.3321164 -0.39666227 0.30444914 8
2.2987874 -0.41900107 0.4188711 66
-1.2563633 -0.20474748 0.37763128 5
-1.2240832 -0.10148519 0.39652038 0
-1.171213 -0.037055232 0.36835092 0
2.243191 -0.073239043 0.33555758 50
-1.1721981 0.071951449 0.37868968 0
2.2199376 0.06248688 0.35260502 58.599998
-1.2688259 0.22831929 0.41517633 6.25
2.2215674 0.21158814 0.34414116 26
1.9867454 0.3759959 0.31004944 58
0.8244409 1.1436229 0.30357343 1.5
-0.42204264 1.4721993 0.33542651 19
-0.20529613 1.4415998 0.40879068 53.200001
-0.07524091 1.4638608 0.37383857 63.923077
0.04297775 1.484138 0.33750585 60.666668
2.0189812 1.4438407 0.39928645 17
-0.42950591 1.5387629 0.3624754 31.666666
0.16421388 1.5110667 0.30275947 58
0.35184187 1.550807 0.4360733 54
0.88770062 1.7794664 0.32393783 3
0.97449946 1.794796 0.35356805 2
1.1109197 1.809893 0.33354348 2
1.2636805 1.8447428 0.31540373 2
-0.53935027 2.1082437 0.31536472 6
-1.8598081 -0.85476691 0.53575522 62.25
-2.0636272 -0.63653833 0.58878434 35
-1.8784456 -0.71410763 0.50583529 109.5
-1.2397283 -0.16907658 0.49062628 5.75
-1.213205 -0.09310738 0.53459543 1.6666666
-1.1789826 -0.076725833 0.48744524 0
2.2383552 -0.032091845 0.4953832 60
-1.231261 0.079728886 0.57842797 0
-1.1876315 0.071931399 0.4782064 0
2.2148106 0.08012367 0.50300699 60.333332
-1.2501599 0.21112554 0.49292514 5
2.2287548 0.21035329 0.5019803 21
-0.34872356 1.41649 0.55010545 61.833332
-0.23821092 1.4366052 0.50249153 63.454544
0.047972661 1.4892519 0.57565624 51.5
2.0343695 1.435064 0.53696609 14
0.13935845 1.5119143 0.55662787 50.75
0.24075873 1.5333999 0.5335815 51
0.34814027 1.5522646 0.49405408 41.57143
2.0272679 1.5175581 0.5328145 16.666666
-0.46974379 1.7497692 0.5153687 31
1.9986088 1.8954992 0.58126903 6
1.821136 2.4525545 0.59637183 29
-1.9148219 -0.80160165 0.6124171 32
-1.9942966 -0.68250489 0.62101108 40.333332
-1.9020412 -0.686885 0.6921584 29.857143
2.29105 -0.39162037 0.6076259 63
-1.2490147 -0.032918841 0.68853116 5.5999999
-1.1743289 -0.0001681271 0.72575593 5
-1.2393464 0.047431294 0.67577153 19.333334
-1.264117 0.21336624 0.61482215 8
1.9919481 1.341747 0.72437376 52
-0.37815353 1.4341024 0.65442336 36
-0.22246996 1.4417382 0.72585344 50
-0.060134768 1.4755242 0.68112481 49.714287
0.042904645 1.4960971 0.6790877 51
2.0293388 1.431247 0.65976447 11
0.12085015 1.5105703 0.64285648 53
0.22183089 1.5294693 0.60882503 52.5
1.9490426 1.5374955 0.70688403 47
1.958261 1.5185483 0.70575023 45
1.9292485 1.7183886 0.70840567 33.333332
1.9126607 1.8857815 0.69227886 13.75
-0.53885812 2.0820506 0.69141972 7
1.8319845 2.4145947 0.67228198 51
1.7838564 2.6599925 0.73356211 36
2.4617202 -1.3040816 0.83675128 16
2.4358885 -1.1460605 0.78796721 33.666668
2.4075818 -0.9859423 0.81026047 36
-1.9083534 -0.78862786 0.82822847 5.6666665
2.3819482 -0.86048788 0.79134107 40
-1.8882662 -0.66530865 0.80833036 14.6
-1.8927578 -0.5949747 0.87819886 4
-1.2719141 -0.11762651 0.79923135 2
-1.1531892 -0.04171991 0.8357513 3
-1.244951 0.10809167 0.86104333 2
-1.159259 0.022599081 0.83518982 1.25
-0.35431015 1.41803 0.83264935 26.5
-0.21087487 1.450632 0.84719455 48.42857
-0.091033012 1.4745799 0.79593337 47.555557
1.9702673 1.4656303 0.78363568 61.5
-0.45180154 1.6318164 0.76668763 13
-0.42528278 1.5197567 0.76175582 21.5
0.12699337 1.50974 0.85841572 57
0.24180776 1.5362506 0.8574369 51.5
0.34732461 1.5557851 0.8214168 34.625
1.94857 1.5952127 0.8515144 55.5
1.9249277 1.705686 0.81559449 48
-0.48172119 1.8037925 0.83505285 15
1.9008392 1.8487555 0.8201195 47
1.8798395 2.0136108 0.83826381 40.666668
1.816237 2.4949465 0.89911914 50
1.7980857 2.6118784 0.79955113 38
1.7407475 2.9199085 0.84516585 40.25
2.5980668 -1.8465085 1.0231853 3
2.4866457 -1.4289277 0.97968328 32.5
2.4596415 -1.2709227 0.96043164 33
2.4345071 -1.1252549 0.92755604 39
-0.3338092 1.4282632 0.98974645 42
-0.24322081 1.4484278 0.95018929 45.166668
-0.073408157 1.480615 1.0206436 50
0.036753308 1.4968734 0.91569889 52
0.11173709 1.5148684 0.98509842 48.142857
0.21896549 1.5322043 0.94350243 49.777779
0.33867317 1.5571043 0.9650622 45.5
-0.46349412 1.7159994 0.93895435 25
1.9191252 1.7257564 0.9258948 48.5
1.893375 1.891264 1.003634 42.666668
1.8870414 2.0219448 0.9581604 46.333332
-0.53207821 2.1121137 0.97903109 11
1.8785787 2.1770561 0.94224066 49.666668
1.8502374 2.3380175 0.98362869 51.75
1.8221498 2.4664216 0.98487258 50.25
1.7592742 2.823498 0.94574761 43
1.7067776 3.0682626 0.90688074 42
1.684831 3.2091217 0.99615765 44
-3.1538103 -2.8958685 1.1983389 84
2.5829873 -1.7865553 1.081578 4
2.5282917 -1.6039999 1.0938085 35
2.4850459 -1.4162408 1.1021572 35
-0.36950088 1.4270775 1.1154516 33.200001
-0.20726946 1.458912 1.1600657 47
-0.055091042 1.4868602 1.1374158 42.833332
0.0082683386 1.4994586 1.1458572 42
-0.42648208 1.5001986 1.16751 11.5
0.058766145 1.5110331 1.1078079 43.857143
0.23630795 1.5401533 1.1520201 43.5
0.34008887 1.5587341 1.1024272 39
1.8879879 2.03582 1.1309233 44.5
1.8782735 2.1754351 1.0984619 49
1.8511671 2.3273196 1.0939629 47.5
1.7951553 2.5488238 1.1781378 35
1.8143175 2.4888668 1.1455626 46
1.7904087 2.6367767 1.1242768 37.333332
1.784023 2.7073777 1.0790107 39
1.7083542 3.0924058 1.0942378 44
1.6290479 3.4320655 1.1704208 42
1.6512278 3.3315144 1.1029011 44
-3.0478556 -3.5238385 1.2782665 9
-3.0866106 -3.2644746 1.2062922 67
-3.10744 -3.1322079 1.3104975 68
-3.154175 -2.9000208 1.238369 77
2.5132964 -1.5752312 1.2082419 34
-0.35626417 1.4353966 1.2733485 21.5
-0.20125535 1.4592295 1.2950794 41.799999
-0.074918054 1.4867635 1.2703999 41.5
0.090719603 1.5175588 1.2921135 40.625
0.20236829 1.5419686 1.2595505 40.799999
-0.53202134 2.0906317 1.2551551 14
1.8730212 2.2099776 1.2599685 48.5
1.8489456 2.313236 1.2318922 47.333332
1.8170538 2.4650924 1.2435471 48
1.7868495 2.6101933 1.3432344 40
1.7561846 2.7817433 1.2815044 39.599998
1.7402257 2.8847284 1.3118675 39.5
1.6602502 3.2927494 1.3012487 45
1.6331029 3.369451 1.2738805 40
1.6106119 3.5145845 1.2354832 39
1.5861366 3.6141996 1.3275794 34
-3.0249481 -3.6410666 1.4478329 73
-2.8648129 -3.6387804 1.3992589 34
-2.8041279 -3.6301794 1.398343 1
-3.0624559 -3.3862519 1.3909899 63.5
-3.0963671 -3.2437179 1.4801892 31
-3.1236699 -3.0821648 1.3846774 39.5
-0.32912573 1.441095 1.4381723 40
-0.20656647 1.4649887 1.4281483 40.333332
-0.08129847 1.4882395 1.3975354 40
-0.44779712 1.6059308 1.3784139 13
-0.014740157 1.500152 1.4353271 36
0.085628957 1.5227827 1.4016364 39.25
-0.49531516 1.8818793 1.4487174 3
1.8360809 2.3756773 1.3922951 47.5
1.8136644 2.4832919 1.3863636 43.666668
1.7734766 2.6361952 1.4061508 40
1.7214291 2.9451406 1.3964318 40
1.7083703 3.0234985 1.4679456 40.5
1.5631785 3.7065721 1.4099631 37
1.5662514 3.787854 1.4180176 32
-3.6499326 5.8510418 1.4946606 25
-2.732471 6.0015774 1.4938618 17
-0.96792513 6.3258119 1.3605149 27
-3.0215857 -3.6253307 1.5233942 70
-3.0509615 -3.4709198 1.5584368 44
-3.0727105 -3.3630061 1.5099523 61.5
-3.3870995 -1.6544534 1.5959846 89
-3.391623 -1.5813317 1.5970287 87
-0.37321961 1.4430667 1.5883158 25.333334
-0.2431701 1.4629774 1.5604302 39.400002
-0.11496492 1.487972 1.534834 42
-0.043176394 1.5080588 1.5851851 39.599998
0.044153348 1.5239116 1.5397191 43.666668
1.455253 2.525666 1.6319412 8
1.8005521 2.5181706 1.549783 45
1.431195 2.6029966 1.6323024 29
1.7660527 2.627063 1.5438691 38.75
10.215319 2.6023135 1.5231777 1
1.4768232 2.7353969 1.6461226 0
1.7344408 2.7967453 1.589991 36
1.7217103 2.9036973 1.5441743 39.5
1.6934199 3.0879166 1.5238327 40.666668
1.6686363 3.1618237 1.6076767 40
1.5951189 3.5503304 1.5160315 37
1.5790821 3.6681576 1.5224944 31
1.5523983 3.8524563 1.5115575 31.333334
1.5150371 3.9337189 1.5945443 19
9.9806709 3.9207735 1.6169329 1
-2.8960242 5.2321858 1.598912 14
-4.2818837 5.7206836 1.5576434 22.25
-4.0179996 5.7790465 1.585785 22
-3.729619 5.8217759 1.5752404 19
-3.2796376 5.9266491 1.553257 21
-2.8010416 5.988656 1.5774374 22
-2.3516889 6.073009 1.5097044 27
-1.9258764 6.118351 1.6291558 10
-1.3221941 6.2277193 1.6336685 2
-1.1646187 6.2980576 1.616286 0
-1.0461562 6.305377 1.611882 19
-1.2238157 6.8675508 1.6107409 1
-1.2965688 7.4559035 1.598454 3
-3.0334787 -3.5975361 1.6683694 26
-0.49337429 -3.2526987 1.7319595 21
-0.36869097 -3.2219963 1.7159618 18.333334
-0.22345927 -3.1984468 1.7055455 23
-0.1140189 -3.1846731 1.7078913 26
-3.1509457 -2.9281025 1.7135965 29
-3.1414211 -2.9501274 1.7082831 40
-3.1724043 -2.8275006 1.6997339 2
-3.3700736 -1.7098696 1.7609854 84
-3.4036753 -1.5526837 1.7150003 89
-2.1198099 0.50273275 1.7991499 87
-3.212858 0.70829475 1.7878686 5
-2.5585294 0.67785621 1.7978276 81
-2.8142223 0.83592474 1.7931501 70
-2.6144719 0.8831163 1.7958566 78
-2.4089494 0.81637448 1.7936741 73
-2.3381641 0.78024715 1.7971829 77
-2.2067025 0.87171161 1.795094 82
-2.094532 0.89251852 1.7983912 79
-1.0680348 0.7856493 1.7968472 72
-0.92741901 0.88133788 1.7976445 74
-0.82860768 0.88975513 1.7999076 67
-2.8838944 0.92296642 1.7899097 12
-2.4198627 0.92007679 1.7938846 83
-2.3310437 0.99271578 1.7893862 78
-1.9855314 0.92185265 1.7889191 92
-1.8718345 0.96033752 1.799351 83
-1.703815 0.97205752 1.7979739 84
-1.3724071 1.0495142 1.799625 88
-0.75398666 0.97308499 1.7996558 68
-2.9183507 1.1834545 1.7813239 35.5
-2.6599143 1.1044115 1.7844747 67
-2.4665139 1.1230018 1.7898052 86
-2.2633643 1.1571155 1.7848099 79
-2.1958899 1.0809823 1.7905217 79
-2.0168848 1.1038222 1.7931998 76.5
-1.8422325 1.1445818 1.794205 82.5
-1.7287297 1.1060135 1.7945856 82.5
-1.5853307 1.1177421 1.7919596 87
-1.4462589 1.1531796 1.7989801 80
-1.3015281 1.122354 1.7974311 85.666664
-1.0906367 1.1293277 1.7966679 80
-0.53312421 1.0996783 1.7973963 74
-0.41089982 1.0871069 1.7970041 66
-3.2080488 1.2642237 1.7694644 56
-3.0946257 1.23596 1.7757746 35
-2.990772 1.2012661 1.7741436 34
-2.783287 1.3464125 1.772735 66
-2.6405571 1.3488152 1.7775635 41
-2.5076444 1.3449703 1.7816201 34
-2.3545067 1.2757378 1.7837564 48
-2.1756799 1.2968988 1.782254 37
-2.0318375 1.2968279 1.7822849 41
-1.8764977 1.3090079 1.7848628 59.5
-1.7255464 1.2850375 1.7879685 71.75
-1.5892273 1.2885721 1.7843999 80
-1.4438198 1.3065054 1.7852389 82.5
-1.2782247 1.2623656 1.793408 82.25
-1.1521157 1.2804741 1.794781 79.5
-1.0398901 1.277617 1.7974952 76
-0.82234055 1.2996302 1.7956892 78
-0.54765993 1.3194706 1.7974187 77.5
-0.44158405 1.2491285 1.7988938 79
-0.19129239 1.3411684 1.7986306 75
-3.655622 1.4629941 1.773348 85
-3.4204359 1.4285007 1.7789973 87
-3.1098652 1.4773618 1.7725216 89
-2.9448671 1.4492313 1.7693411 84
-2.295665 1.4473929 1.7819375 65
-2.247323 1.3784856 1.777037 36
-1.6975973 1.4373069 1.7876358 37.5
-1.5371392 1.4808053 1.780332 36
-1.4407852 1.485155 1.7842785 33
-1.2939283 1.4448633 1.7861158 49.666668
-1.1451951 1.432068 1.7882913 60.25
-0.97772706 1.4249898 1.7901486 75
-0.82702124 1.4230876 1.7922003 71.75
-0.68604964 1.4056535 1.792025 70.25
-0.49412325 1.4165986 1.7962952 74.25
-0.36177808 1.4279003 1.7579807 59
-0.22852598 1.4645087 1.7279054 55
-0.12891068 1.4556938 1.7880678 70.333336
-4.2269225 1.5528264 1.7682091 69
-3.9519696 1.5813482 1.7679567 71.25
-3.7538021 1.5824335 1.7685114 68
-3.7216499 1.5570775 1.7723224 77.5
-3.5534844 1.5410564 1.7686155 73.5
-3.3643095 1.5069617 1.7720221 78.5
-3.2087247 1.5642809 1.7659851 78
-3.0946405 1.5178453 1.7655624 71
-2.7640758 1.6198323 1.7660133 79
-2.6182032 1.6053226 1.7718846 73
-2.4838727 1.5855497 1.7780102 74
-2.3450432 1.5353601 1.7758161 76
-2.1768091 1.5526272 1.7738932 76
-1.9917183 1.5086956 1.7743326 72
-1.889677 1.505193 1.7797695 60
-1.7611203 1.5254189 1.7798867 56
-1.6400425 1.5517074 1.7830726 60
-1.2526441 1.5973556 1.7767664 57.5
-1.1373063 1.6126063 1.7839345 44.5
-0.9530791 1.584995 1.7831169 28
-0.82657671 1.5556015 1.789709 25
-0.69005698 1.5584294 1.7857566 42.5
-0.53377521 1.5118911 1.7888483 76
-0.44854003 1.6203316 1.7592744 37
-0.056428757 1.5091805 1.7453574 37.5
-4.5794487 1.7047787 1.7606957 62.5
-4.2577457 1.6553564 1.7711258 69.5
-3.6697426 1.7856661 1.7662143 82
-3.4286788 1.7262861 1.7715405 82
-3.0598533 1.7656295 1.7659119 83.5
-2.9224894 1.7117997 1.767944 80
-2.2881489 1.7225027 1.7709163 73.5
-2.1819935 1.7782261 1.7708141 79
-2.0609441 1.7481265 1.7704173 76
-1.8968 1.7255468 1.7753317 77
-1.6953902 1.7131319 1.7770241 74
-1.5973152 1.7138427 1.781165 70
-1.4240409 1.6698735 1.7722964 68
-1.1122601 1.7233896 1.7779275 71.5
-0.91279989 1.7573059 1.7730497 69
-0.79017168 1.71434 1.7807685 51
-0.6612184 1.7065827 1.7823668 42.333332
-0.56416798 1.6963447 1.778685 67.666664
-4.2593589 1.9341016 1.7607254 72
-3.9360316 1.8534991 1.7620062 77
-3.7650135 1.9041241 1.7642279 70.333336
-3.6045587 1.8697033 1.7566382 67
-3.4887226 1.8449967 1.7603822 71
-3.3057947 1.820884 1.7662777 76
-3.2104859 1.8833836 1.7647649 75
-3.1071279 1.8277884 1.7678126 77
-2.7397556 1.9104004 1.7602109 71
-2.587219 1.8740116 1.7651409 77
-2.4536982 1.8382634 1.7735335 72
-2.3171196 1.8004359 1.7754196 75
-2.2184958 1.9012957 1.7663267 66.5
-1.7399604 1.9198077 1.7754623 77.5
-1.5873352 1.8787217 1.7751002 72.333336
-1.4044354 1.8870142 1.7749709 70
-1.2647774 1.8462219 1.7739891 68
-1.094076 1.8430794 1.7788588 62.333332
-1.0098472 1.8619938 1.7788117 66
-0.81983942 1.935656 1.7761329 61
-0.70369029 1.8683437 1.7758201 62
-0.53931218 1.8553175 1.7606245 53
-4.29568 2.0374694 1.7620924 67.5
-3.9987793 1.9684104 1.76131 69.333336
-3.4385436 2.0459659 1.7641236 83
-3.0613742 2.0767131 1.762424 80.5
-2.9246476 2.0048256 1.7631967 82.5
-2.2738214 2.0351548 1.7665373 68.5
-2.1602063 2.0378325 1.7651759 74
-2.0045047 1.9964012 1.7628042 65
-1.8947004 1.9690852 1.7690486 64
-1.5863063 2.0106139 1.7732545 77
-1.2728631 2.0800064 1.7672318 60
-1.1044834 2.0026174 1.7763026 61
-0.97435617 2.0343826 1.7746338 64
-0.63950992 2.0568979 1.7733401 59
-0.57653999 2.0044339 1.7762336 63
-4.6731157 2.124392 1.7444948 57
-4.5571694 2.1053474 1.751551 69
-3.9639935 2.2308364 1.7564887 70
-3.7942607 2.2469723 1.7633675 72
-3.6616681 2.1790841 1.753958 72
-3.5120685 2.1965027 1.7546993 72
-3.2515674 2.1852846 1.7584461 70.5
-3.1009161 2.1479337 1.7582468 67
-2.730325 2.2390649 1.7727424 35
-2.5512774 2.157794 1.7571357 75
-2.4142165 2.1021111 1.7652637 80
-2.1803141 2.1677296 1.757962 71
-1.8282368 2.2146149 1.7624129 66
-1.7287509 2.16605 1.7687541 71
-1.5755616 2.1572545 1.7734364 73.666664
-1.4975555 2.1694019 1.7706546 70
-1.0566161 2.2140882 1.764711 59
-0.93425483 2.1532738 1.7707906 58.666668
-0.85908633 2.2101212 1.7665704 58
-0.71108931 2.1081333 1.7685322 63
-4.2860837 2.3403866 1.7475969 71
-4.0638056 2.3426495 1.7542497 70
-4.0195837 2.3660486 1.7513522 67
-3.8083098 2.28392 1.7547311 66.5
-3.4509692 2.3916719 1.7562548 68
-3.081883 2.3990388 1.7546271 81
-2.9262762 2.3228457 1.7588365 75.5
-2.3669343 2.3831913 1.7562732 74
-2.1901846 2.3047647 1.7555127 73
-1.9441879 2.266974 1.7637202 67
-1.5574526 2.3471508 1.7692806 71
-1.4783077 2.3224459 1.7695106 68
-1.2207775 2.3242633 1.7629732 59
-1.1346173 2.2712941 1.7647754 57
-0.84867227 2.3361182 1.7656268 59.5
-0.58844078 2.2859681 1.7613498 62
0.77534491 2.385498 1.7796572 43.5
-4.6054311 2.5492389 1.7416791 63
-4.3671169 2.4536269 1.7477285 68
-4.2977529 2.4423606 1.7476941 68
-3.7058277 2.5067475 1.7502538 73
-3.5307748 2.534503 1.7469102 59
-3.2881145 2.5021846 1.747342 66
-3.0589561 2.4553089 1.7487059 67
-2.5100527 2.4658387 1.7520486 65
-2.1339369 2.4544141 1.7501245 67
-1.8618308 2.5417473 1.7509049 72
-1.704302 2.4430521 1.7592065 70
-1.4348904 2.4740117 1.7649115 67.333336
-0.9922905 2.4561484 1.7612211 55
-0.76543266 2.463037 1.7637876 55.5
-0.71822345 2.5256598 1.760487 53
0.83161592 2.4334724 1.7731342 54.25
0.94898891 2.5058801 1.77112 54.333332
-4.7396793 2.5839956 1.7396623 55
-3.992099 2.6402221 1.7488049 76
-3.8535094 2.6566787 1.7534759 65.5
-3.6692803 2.6161647 1.7386154 59
-3.5381191 2.6255083 1.7474583 67
-3.1853187 2.5819902 1.7481929 63
-2.9210298 2.6679206 1.7497658 65
-2.678889 2.5610278 1.7561301 71
-2.3152144 2.690377 1.7494313 68
-2.1638365 2.5897508 1.7483979 75
-2.0879941 2.6146169 1.7467684 72
-1.5666912 2.6636982 1.7513918 66
-1.4294797 2.6066809 1.7616975 61
-1.3489951 2.6930811 1.7546147 62
-1.1074313 2.5588868 1.7560104 57
-0.81211978 2.5963717 1.758387 61.5
-0.65350544 2.6585929 1.7566231 56.333332
1.0470334 2.5614281 1.77069 53.5
1.1455075 2.6145954 1.7677299 53.833332
1.2703031 2.6609719 1.7679871 49
1.4051479 2.6443169 1.7022188 44.75
1.7468066 2.6824906 1.7072564 34
-4.3106079 2.7785306 1.7294284 61
-4.0960035 2.7668433 1.7388754 68.5
-4.0039601 2.803524 1.7354993 65
-3.831125 2.7136533 1.7440964 63
-3.4650726 2.7733512 1.7480522 62
-3.0433416 2.7694678 1.7413013 65
-2.4601119 2.7990265 1.7465116 62
-2.0771828 2.7643609 1.7414547 66.5
-1.7157336 2.7976744 1.7459482 65.5
-1.3714931 2.7799201 1.7518176 68.5
-1.3117144 2.80003 1.7522901 64
-0.93987763 2.7607799 1.7498045 59
-0.66103977 2.7714643 1.7574788 64
1.0012697 2.7819154 1.769363 54
1.327664 2.727037 1.7607476 53
1.3989453 2.763294 1.7389231 54
1.5796847 2.7738092 1.6858729 41
1.6857409 2.7655449 1.698676 45
-4.4141207 2.9084721 1.7345515 63
-4.3380961 2.8892813 1.7316533 64
-3.7212722 2.9153218 1.7383283 64
-3.5745261 2.951453 1.7361442 63
-3.2237139 2.9364371 1.7413956 65.5
-3.087899 2.8812075 1.7417563 59
-2.8425548 2.9935682 1.7434579 69
-2.6202314 2.9112425 1.7399093 61
-2.1184814 2.9010186 1.7496909 86
-2.0643053 2.9403477 1.7438346 72
-1.4685748 2.9439859 1.7451311 62
-1.2595609 2.9626896 1.7484814 62.333332
-0.76247269 2.9588506 1.7423981 65
-0.71243513 2.8590443 1.7458862 67
1.1123117 2.9429471 1.7616682 48.333332
1.2173069 2.8902793 1.7671381 53
1.3729422 2.9276762 1.7020056 46
1.6328987 2.8846574 1.6994213 46
10.128496 2.9047928 1.6989039 1
-4.7918744 3.0766428 1.7223576 50
-4.6464829 3.0271425 1.7248682 62
-3.9632645 3.095834 1.7317609 63
-3.8651989 3.0660257 1.7355849 61
-3.7044692 3.04829 1.726663 63
-3.5284657 3.0445976 1.7327799 67
-3.035738 3.1389213 1.7312466 61
-2.9786682 3.0955694 1.7326142 58
-2.2544906 3.0248234 1.7442597 75
-2.0191376 3.0583932 1.7355248 68
-1.5579536 3.0538654 1.7408525 57
-1.2363272 3.1056798 1.7421364 64.5
-0.82478571 3.0623524 1.7381047 60
1.144256 3.054384 1.7633592 55
1.314039 3.1103203 1.7271425 54.666668
1.3866278 3.0842445 1.6916003 36
1.6201103 3.0357881 1.698808 48.5
-4.3556433 3.2744923 1.7183055 56
-4.1525979 3.2434878 1.7276692 60.5
-4.0190625 3.2710488 1.7203201 56
-3.8460286 3.1550698 1.7251314 62
-3.4753969 3.190021 1.7350167 63
-3.0185196 3.1935551 1.7262479 57
-2.3944604 3.1554832 1.736313 68
-2.016042 3.2251961 1.7378979 63
-1.6633761 3.1774859 1.7412409 66
-1.3546379 3.2496731 1.7400135 70
-1.1559411 3.1930017 1.7436591 59
1.3227853 3.1648402 1.7561697 59
1.5928868 3.2123947 1.6832443 41.599998
-4.4344606 3.4064379 1.7194339 53
-3.6662588 3.3811328 1.7140747 60.5
-3.2119493 3.3793488 1.7374241 63
-3.0840583 3.3164806 1.739457 63
-2.8079393 3.3872659 1.7308208 66
-2.5575917 3.3016343 1.7291304 65
-2.176574 3.3834977 1.7311279 62
-1.9772382 3.3193812 1.7267636 57
-1.9411304 3.4292827 1.7226156 55
-1.4347447 3.3807387 1.7339386 57
-1.1192629 3.3748302 1.7419786 62
-4.6999936 3.5627837 1.7076238 42
-3.9738193 3.5673728 1.7174913 58.5
-3.7332325 3.525382 1.7066098 62
-3.5040972 3.4988556 1.7100686 56
-3.0141189 3.5848701 1.7332485 62.5
-2.3154061 3.5472105 1.7236034 58
-1.9121521 3.539125 1.7240497 54
-1.5301162 3.520431 1.7262613 55
-1.2176408 3.5727401 1.7269958 61
-1.0137718 3.5196285 1.7364923 57
-4.8614469 3.6329577 1.7062739 37
-3.986253 3.6243937 1.7187964 61
-3.8721929 3.6563509 1.709566 56
-3.4787207 3.6497052 1.7148587 57
-3.0272579 3.677599 1.725058 66
-2.4819331 3.7383702 1.7191912 62
-1.959904 3.6076105 1.7315406 56
-1.8965132 3.6975217 1.7201222 57
-1.2896692 3.7340581 1.7230421 59
-0.97727108 3.6585288 1.7316563 55
1.4378239 3.6601443 1.6723584 52
9.9695864 3.687314 1.7039291 1
-4.3860402 3.8145308 1.6953136 25
-4.1966534 3.7621269 1.7018788 45.5
-4.0368481 3.7955 1.7033635 54
-3.746407 3.872355 1.700915 46
-3.2285259 3.7813132 1.7094859 63
-3.0698433 3.8273301 1.7100651 60
-2.762924 3.8241508 1.7124807 62
-2.0864203 3.7855101 1.7194296 56
-1.8471744 3.8496366 1.7097281 54
-0.95949233 3.7749276 1.7261778 59
-0.84562153 3.8758633 1.726277 58
-4.5613046 4.0161257 1.7145039 33
-4.4843435 3.9890509 1.7120296 34
-3.6671576 3.9509754 1.700626 30
-3.498246 4.0350375 1.7003857 27
-2.9590077 4.0413442 1.6946474 37
-2.2246497 3.9912953 1.7134968 52
-1.8297563 3.9888844 1.7148024 56
-1.3766521 3.9099655 1.716004 61
-1.0582972 3.9324048 1.7164744 55
-0.77664244 3.9705994 1.7236484 61
-4.0842218 4.1649256 1.7075399 38
-3.990732 4.1421494 1.7117451 38
-3.7981341 4.1081414 1.7034909 33
-2.9787059 4.0541945 1.6974941 34
-1.766711 4.0808749 1.7111896 56
-1.1198095 4.1289959 1.7129537 57
-0.82740486 4.1251221 1.7186105 58
-4.2375984 4.3336549 1.672043 12
-4.0715551 4.224339 1.7046171 45
-3.9203043 4.2523742 1.701434 40
-3.5132678 4.2171493 1.7121907 49
-3.2149422 4.3489127 1.7067512 46
-3.0227087 4.2716384 1.7094676 39
-2.3801246 4.2114906 1.6988503 23
-1.9742919 4.2289224 1.7020644 36
-1.7666953 4.2701454 1.696933 36.5
-1.1915761 4.3351936 1.7024652 52
-0.87242913 4.3417482 1.7077569 61
-4.0809956 4.4216595 1.6962882 41
-3.7926502 4.4924874 1.6952218 42
-3.0722005 4.4725618 1.7066783 53
-2.7294712 4.3571215 1.709417 39
-1.6766893 4.4583211 1.7082523 26
-3.7492394 4.6082792 1.6933969 42
-2.9403763 4.6491904 1.6990696 37
-2.1158571 4.5028706 1.705057 39
-1.737228 4.5037413 1.7115425 44
-1.615079 4.5516362 1.6936847 51
-0.91960645 4.589859 1.7111098 30
-3.8556304 4.772768 1.6866742 38
-3.4941397 4.6642833 1.6929828 36
-3.0001822 4.7000494 1.6964923 44
-1.8522415 4.7709308 1.6984338 54
-1.6831001 4.7788515 1.6870908 47
-4.1259723 4.8646774 1.6914893 37
-3.9705141 4.9452519 1.6872264 39
-3.5384104 4.8625588 1.6972395 36
-2.9900227 4.8231277 1.6876138 35
-2.2806695 4.8071437 1.701265 38
-1.593964 4.8961682 1.6851817 56
-0.97366303 4.8374214 1.6975702 52
-3.171905 4.9717412 1.6861762 24
-2.9934835 4.9642305 1.6911312 35
-2.6794586 4.9733701 1.7000757 33
-1.9810508 5.0910325 1.6942075 40
-1.5509524 5.0312805 1.6940835 55.5
-4.3991084 5.1611652 1.6792684 32
-4.1167636 5.1418095 1.6791364 31
-3.8319545 5.2095857 1.679217 29
-3.0165505 5.1197639 1.689716 32
-1.4378234 5.120358 1.6872011 54
-4.5778294 5.2848277 1.6916956 20
-3.8285842 5.3802009 1.6717995 30
-3.469357 5.3798442 1.6742393 29
-2.8705881 5.2824092 1.6686832 25
-1.6882848 5.3705931 1.6797844 44
-2.1390736 5.4644241 1.6871945 27
-1.5305016 5.4597802 1.6716083 38
-4.1586246 5.6089191 1.6628928 22
-3.9205675 5.5680537 1.6658472 31
-3.5693572 5.6408167 1.6784636 30
-2.9553878 5.5516305 1.660376 15
-2.6045814 5.6819658 1.6790012 28
-1.4154861 5.5566998 1.6674243 36
-1.3118013 5.6515112 1.6714967 37
-3.9986668 5.7300467 1.6535279 16
-3.1237712 5.7177639 1.6660572 19
-2.9509401 5.7292304 1.6751791 18
-1.8113077 5.7779875 1.6805059 37
-1.4057215 5.7154655 1.6856304 37
-1.2160199 5.7680874 1.6725379 38
-2.9484084 5.8882413 1.669566 15
-1.4889948 6.0891747 1.6607648 27
-1.5983878 6.6160569 1.6662747 23
-1.1242583 -4.1387444 1.9294918 19
-1.3563193 -4.0046248 1.9251369 53
-1.1581544 -3.9831531 1.9211849 30.5
-1.2788748 -3.7702 1.9270028 52
-1.1838623 -3.8872693 1.9174896 52
-1.5276465 -3.6119723 1.9161338 5
-1.311841 -3.6497872 1.9188325 52.5
-1.1674989 -3.6338289 1.9143862 57
-1.014119 -3.6416945 1.9245938 55
-1.3287258 -3.5639896 1.9159615 26
-2.9030149 -3.3525085 1.8943924 19
-1.4053719 -3.3373244 1.9083281 25
-1.3185039 -3.3057079 1.904683 43
-2.9544077 -3.2026119 1.8954896 42
-2.4129896 -3.1548557 1.88669 56
-2.2935507 -3.1955171 1.8945073 49
-1.6738564 -3.2547259 1.9070138 52
-1.4736862 -3.2414882 1.9063268 53.666668
-1.1596787 -3.2948506 1.8955303 14
-0.70614427 -3.2225554 1.8904384 15
-0.54413664 -3.2206161 1.863705 12.6
-0.40635687 -3.196559 1.8642753 14
-0.28562006 -3.1815541 1.8620716 19
-3.108778 -3.1097369 1.8712709 54
-2.8697259 -3.0803125 1.8848146 52
-2.6284423 -3.1138616 1.8829116 53
-2.3177226 -3.0594401 1.8972681 53.5
-1.5087706 -3.03461 1.9061149 50
-1.4507704 -3.004127 1.8961247 56
-1.2971201 -3.0270841 1.9009026 56
-0.69831544 -3.0431335 1.9121566 53.666668
-0.45444319 -3.0039101 1.8984908 68
0.14087279 -3.0438998 1.9009548 26
-3.1513505 -2.958755 1.8209373 63
-2.9250169 -2.9459217 1.8890737 54
-2.2995312 -2.8852901 1.8907728 54.5
-1.7952461 -2.9189174 1.8940152 56
-1.5735924 -2.9343386 1.8941374 54.75
-0.88060468 -2.9568834 1.8870503 58
-0.73757505 -2.9801545 1.8991297 59
-0.58178616 -2.9992566 1.8922769 61
-0.065963417 -2.8568618 1.9061774 63
-3.0774989 -2.8010116 1.8828969 28
-2.9631343 -2.7848065 1.8887092 57
-2.6992447 -2.7554367 1.8768553 54
-2.4642539 -2.785785 1.8804533 55
-2.3659706 -2.8381841 1.8869838 52
-1.5817013 -2.7263579 1.8942338 61.5
-1.4126785 -2.7610614 1.8939615 60
-1.0355529 -2.7086725 1.8863796 57
-0.85746062 -2.7619472 1.9008751 55.200001
-0.66956788 -2.7778487 1.8922963 57
-0.079925589 -2.7406936 1.9093744 62
0.064253703 -2.8485487 1.9078058 62
-2.9315462 -2.6359649 1.876217 30
-2.3315468 -2.6158812 1.8821747 48.5
-1.9146606 -2.6355786 1.9041256 43
-1.6972338 -2.6336324 1.8866248 64
-1.6120999 -2.6702459 1.886871 56
-0.94143361 -2.5507648 1.9024066 52
-0.8710109 -2.5564227 1.8872355 54
-0.7384361 -2.5740626 1.888353 56
-0.25215894 -2.6624963 1.9030842 62
-0.1221566 -2.6823423 1.9032035 59.333332
0.0072490396 -2.6599033 1.906334 68
-2.767472 -2.4318252 1.8764974 2
-2.5548704 -2.4950743 1.8735274 73
-2.4641008 -2.4705887 1.8731669 55
-2.360091 -2.5405734 1.876151 60
-1.8275342 -2.4027448 1.880288 59
-1.6792436 -2.439034 1.8878226 60.333332
-1.5167105 -2.5166569 1.8901666 60
-1.1718396 -2.4730103 1.8852397 54
-0.99213654 -2.5127537 1.8904736 55.25
-0.41899255 -2.4746764 1.898878 62
-0.24358289 -2.5075796 1.9002995 60.666668
-0.043075997 -2.479157 1.9022194 68
-2.4218073 -2.259022 1.8687645 69
-2.3725379 -2.3058748 1.8735119 57.5
-1.9901139 -2.3220377 1.8718189 61
-1.7680993 -2.3448462 1.8797654 61
-1.6084555 -2.2839739 1.8851031 62
-1.1049433 -2.2933686 1.8882829 59.25
-1.0173943 -2.331296 1.8897923 60.5
-0.85808128 -2.3800142 1.8867286 61
-0.56763786 -2.2835546 1.8880244 61
-0.40145835 -2.3260827 1.8955829 61.599998
-0.23808238 -2.3171844 1.8928665 55
-2.5898824 -2.1686573 1.8675262 5
-2.4729059 -2.2018311 1.8656191 59
-1.8645494 -2.1313877 1.8765349 62
-1.7536272 -2.185488 1.8818818 61
-1.2897654 -2.2410326 1.8776027 56
-1.0985481 -2.1492236 1.8748368 60
-0.96326768 -2.1857996 1.8761686 59
-0.70083058 -2.1032112 1.8829647 57
-0.5249123 -2.1443274 1.8872757 63.599998
-0.36470556 -2.1623402 1.8903869 67
-2.4535327 -1.989634 1.8592666 61.5
-2.3754644 -2.050494 1.8657793 58
-2.0749736 -2.0610754 1.870833 63
-1.8571179 -2.037581 1.8759978 63
-1.6906883 -2.0670187 1.8818127 66
-1.3910561 -2.0166798 1.8682112 59
-1.2369437 -2.0793195 1.8764241 58
-1.1438682 -2.0448697 1.8811916 63.200001
-0.64685339 -1.9749894 1.8793318 70
-0.56367826 -1.9822369 1.8863516 69
-0.41700104 -2.0147371 1.8834661 80
-0.19006726 -1.9922588 1.885013 71
0.18330882 -2.0095489 1.9069034 0
-2.1447716 -1.8078283 1.8655368 64
-1.9884831 -1.9068112 1.8691803 64
-1.8828255 -1.871459 1.8711408 62.666668
-1.7750294 -1.8950256 1.875272 67
-1.4823748 -1.806873 1.865081 64
-1.2716986 -1.8802418 1.8771509 63.599998
-1.1450733 -1.8353851 1.8682357 63
-0.79300469 -1.856829 1.8781203 68.666664
-0.68989015 -1.8353651 1.8804209 70.5
-0.52040452 -1.8775456 1.8840374 77
-0.32031143 -1.8594302 1.883804 72
-0.19665481 -1.848429 1.8822064 67.75
-0.14676051 -1.804952 1.8803946 28
0.38700712 -1.8513627 1.8871721 0
-3.3569465 -1.7402511 1.8396367 78
-3.2476206 -1.7442199 1.850302 51.5
-2.5586426 -1.6548014 1.854514 48
-2.4643221 -1.7500677 1.8565956 53
-2.0569177 -1.678463 1.8675128 59
-1.8588153 -1.7039247 1.8669102 64.25
-1.4073405 -1.6834737 1.8650007 67
-1.2820543 -1.7008114 1.8707407 67.199997
-0.92661047 -1.7598326 1.877478 67
-0.84201133 -1.6636605 1.8705904 77
-0.68132889 -1.7547703 1.8747444 76.5
-0.34722203 -1.7267222 1.8763876 79.5
-0.23092194 -1.6973265 1.8796349 77.333336
-0.076847181 -1.6995747 1.8781416 76
-3.3709402 -1.634441 1.8509003 73
-3.0878854 -1.5564604 1.8497024 66.5
-2.9236321 -1.5914174 1.8473873 60.5
-2.6381719 -1.5750532 1.8446709 55
-2.4298887 -1.5426589 1.8591748 54
-2.2031844 -1.5643137 1.8594531 60
-1.9952507 -1.5951892 1.8758117 32
-1.9292885 -1.6397107 1.8582429 54
-1.5616242 -1.6038713 1.8605164 76
-1.4020723 -1.5368258 1.8628006 70
-1.2937642 -1.5080439 1.8619946 61
-0.98387575 -1.5527339 1.8676974 72.5
-0.82662886 -1.5935605 1.869216 76.800003
-0.69645447 -1.6001502 1.8703595 77
-0.54459643 -1.5850987 1.8716449 76
-0.38515678 -1.5687035 1.8767163 77.833336
-0.21909943 -1.5643706 1.8768848 77
-0.071693249 -1.5768727 1.8747109 77
0.046331242 -1.5396334 1.8759094 52.333332
-4.0605798 -1.3950553 1.8463031 26
-3.0858684 -1.4174775 1.8382796 65
-2.9633236 -1.3730624 1.8449658 65
-2.7497327 -1.4055409 1.8476409 59
-2.5908494 -1.401701 1.8482276 51
-2.5000935 -1.4773965 1.852964 52
-2.1082919 -1.4519116 1.8553716 54
-2.0173686 -1.3886523 1.8547775 62
-1.8901018 -1.4731421 1.8621629 59
-1.6316187 -1.4066066 1.8575085 66
-1.4305282 -1.4691781 1.8607582 71
-1.3182786 -1.4968671 1.8634199 72
-1.1036597 -1.4263576 1.8669933 35
-0.96427733 -1.409849 1.868425 42.5
-0.81557155 -1.4749619 1.8704358 75.666664
-0.62775767 -1.4082973 1.8673921 53.5
-0.51418817 -1.4360547 1.8697157 65.800003
-0.39274621 -1.4115543 1.8717203 76.333336
-0.23554179 -1.4129159 1.8700809 70.199997
-0.080866359 -1.4363796 1.8748853 68.285713
0.084577382 -1.422479 1.8743057 79
-4.1105542 -1.2552936 1.8378769 65
-4.0174055 -1.2160546 1.8350962 68
-3.8058119 -1.2092453 1.84089 67
-2.9231925 -1.2757241 1.8366662 62
-2.6511667 -1.2967576 1.8430101 61
-2.4837551 -1.2730711 1.8492692 57
-2.2518127 -1.3296283 1.8500093 54
-2.1553109 -1.2361665 1.8480107 57
-2.0197628 -1.2167389 1.8512107 58
-1.92586 -1.2711267 1.8519627 67.666664
-1.6897314 -1.2131262 1.8508335 70
-1.5397004 -1.314714 1.8557677 74
-1.4143739 -1.314326 1.857403 74.599998
-1.1314108 -1.2407751 1.8623006 79
-0.97294295 -1.2779015 1.8650217 52.799999
-0.86265469 -1.3305882 1.8697482 35.5
-0.6787262 -1.2546738 1.8682759 40.75
-0.50941813 -1.2910134 1.8756006 32
-0.36406931 -1.2922369 1.8742857 27
-0.21952738 -1.2911834 1.871122 35.142857
-0.079740681 -1.2676651 1.8774184 37
0.032905232 -1.2908372 1.8742346 56
-4.4079857 -1.0860944 1.831201 41
-4.0664582 -1.0603212 1.8336178 71
-3.8251667 -1.1429696 1.8340871 75.5
-3.7441983 -1.0537364 1.8342315 75
-3.588562 -1.0531809 1.8409244 77
-2.969521 -1.1191906 1.8403624 69
-2.7519295 -1.1141373 1.8365089 60
-2.6110504 -1.1553265 1.8362051 53
-2.458539 -1.0815266 1.8464667 60
-2.2924585 -1.1017307 1.8417796 55
-2.0306573 -1.1194435 1.8483634 62.25
-1.9235711 -1.0944511 1.8508826 57
-1.559884 -1.1286516 1.8538671 72.25
-1.4249169 -1.1699171 1.8593754 76.333336
-1.2402353 -1.1048217 1.8590373 76
-1.1249899 -1.0963159 1.8608071 78
-0.98635232 -1.1326666 1.8654826 79
-0.81135303 -1.120942 1.8666992 86.333336
-0.66587162 -1.1002305 1.8667437 87.599998
-0.51949084 -1.1476619 1.8686526 61.285713
-0.37483028 -1.1223346 1.8642015 49.25
-0.21599464 -1.145484 1.8693492 30.6
-0.099262089 -1.110999 1.8725151 40
-4.1143022 -0.92948872 1.8264722 65
-3.8133824 -0.90345788 1.8327018 74
-3.5574942 -0.96223044 1.8369035 79.666664
-3.3813219 -0.95051551 1.828214 75
-3.1028633 -1.0153346 1.8351341 68
-2.9521184 -1.018452 1.8288144 69
-2.8134093 -0.92320585 1.8297828 60
-2.6398563 -0.98556149 1.8340799 59
-2.5408688 -1.0105095 1.8416392 61
-2.1456926 -0.98452824 1.8421522 63.333332
-2.0369482 -0.96157926 1.8448173 67
-1.9437233 -0.9079327 1.8457695 65
-1.7030741 -1.000437 1.8475349 70
-1.5860119 -0.9531877 1.8514009 72
-1.4656948 -1.0105578 1.8561913 69.333336
-1.259207 -0.92824733 1.8581073 75
-1.1207641 -0.94494617 1.8613526 89.25
-0.98538232 -0.95715159 1.8646361 83.5
-0.80893612 -0.99455953 1.8633771 95
-0.67730713 -0.95911491 1.8572544 78.199997
-0.54394907 -0.98396921 1.8570961 67.714287
-0.36905745 -0.97773731 1.8541442 48.42857
-0.23093705 -0.99790365 1.8547071 41.599998
-4.4683785 -0.75754631 1.8241943 72
-4.0330758 -0.89940083 1.8288466 73
-3.8373861 -0.88548791 1.8255244 71
-3.6098015 -0.75796014 1.8318082 4
-3.5877469 -0.77026027 1.8307921 5
-3.4362874 -0.75500005 1.8274785 6
-3.2139983 -0.84248781 1.8285484 76.5
-3.1222935 -0.81357872 1.8256775 74.5
-2.9792409 -0.82269222 1.8316126 62.5
-2.7466924 -0.82547772 1.828714 62
-2.6206155 -0.81248522 1.8360162 63.5
-2.4590793 -0.86377847 1.8316272 46
-2.3303216 -0.882653 1.8380386 58
-2.1819708 -0.78571075 1.8390074 51
-2.043901 -0.84377432 1.8433723 68.5
-1.7160406 -0.8079257 1.8449196 70.333336
-1.5617714 -0.82740921 1.8487006 72.5
-1.4675728 -0.83619583 1.854154 77
-1.2826825 -0.77918333 1.8552443 82
-1.1188859 -0.82254601 1.8590466 94
-1.012224 -0.77613473 1.85167 84.5
-0.82292414 -0.85717154 1.8582437 97.75
-0.66836888 -0.81941396 1.8505993 77.300003
-0.50829506 -0.83149719 1.8517822 70
-0.37304369 -0.82939607 1.8535104 55.833332
-0.27386004 -0.80350608 1.8516639 51.5
-4.3675165 -0.72717524 1.8203021 67
-4.0785685 -0.73666203 1.824021 5
-2.9837835 -0.64130437 1.8370615 7
-2.7777767 -0.65485644 1.8256845 70.5
-2.6568682 -0.69431901 1.8296098 63
-2.4812737 -0.66094881 1.8424326 57
-2.3254085 -0.64919806 1.8467208 61
-2.1004207 -0.62267601 1.834098 66
-2.0122178 -0.71391124 1.837315 73.666664
-1.8205978 -0.65945202 1.8378998 71
-1.6968905 -0.61913252 1.8393016 70.666664
-1.5747117 -0.6669538 1.8456494 69.25
-1.4364836 -0.66205466 1.8499672 69
-1.2673906 -0.62082976 1.8503596 87.666664
-1.1366689 -0.67862332 1.8494313 80.800003
-0.95822299 -0.66145319 1.8422269 81.5
-0.82574368 -0.67840302 1.8461803 82
-0.68745667 -0.66580552 1.8458372 77.571426
-0.52265865 -0.65940797 1.848045 77
-0.40878642 -0.6910007 1.8506968 69.25
-2.7705266 -0.58902466 1.8240045 71
-2.6228528 -0.52341878 1.83108 36.5
-2.4822528 -0.45806479 1.8342961 61
-2.3983412 -0.4580389 1.842765 73
-2.1800656 -0.57167614 1.8308744 61.5
-2.0313675 -0.53672576 1.8326913 76.666664
-1.8501464 -0.48117238 1.835327 70
-1.7322989 -0.46134719 1.8345493 73.5
-1.5820668 -0.49808037 1.8445119 73
-1.4179367 -0.48821834 1.8487605 69
-1.2790368 -0.48837325 1.8446927 82
-1.1230005 -0.5259881 1.8439691 74.599998
-0.95443296 -0.50360757 1.8403521 81
-0.81003946 -0.52468246 1.8429707 80.5
-0.6809094 -0.52513057 1.8432081 78.625
-0.53410685 -0.53486824 1.842955 78.199997
-0.37839729 -0.55610669 1.8444669 73
-3.4001033 -0.39014116 1.8199458 42.5
-3.2304678 -0.3540327 1.8178364 40
-2.2945004 -0.42458722 1.8326215 74
-2.1582818 -0.39344066 1.8245414 74.25
-2.0108631 -0.35058519 1.8281491 77.5
-1.8730751 -0.30303612 1.8307356 76
-1.6930494 -0.3549386 1.8344927 82
-1.5834213 -0.35446683 1.8433167 82.333336
-1.402512 -0.33542666 1.8422114 89.5
-1.2818207 -0.35438791 1.8364691 81.333336
-1.1426022 -0.38265693 1.843154 61.75
-0.9707166 -0.38554668 1.8532287 49.5
-0.81356549 -0.37593272 1.8364612 77.555557
-0.67579556 -0.39698151 1.8385936 79.285713
-0.53788263 -0.38643372 1.8430762 76.833336
-0.42904839 -0.3953042 1.8431747 76
-2.353775 -0.23526511 1.8202952 70.5
-1.7144415 -0.22402948 1.834217 81.5
-1.5591692 -0.2302628 1.8431735 88
-1.421896 -0.1884245 1.8391584 92
-1.2793298 -0.22082144 1.8300859 77.5
-1.13686 -0.26532248 1.8364557 76.666664
-0.97760552 -0.22936384 1.8316365 77.166664
-0.83025515 -0.22713767 1.8342153 76
-0.6782617 -0.22070874 1.8365631 77.875
-0.54141098 -0.22287229 1.8388093 74.285713
-1.709882 -0.066914044 1.8304851 82
-1.56213 -0.083874479 1.8377275 84
-1.4332864 -0.041861221 1.8300133 98.5
-1.2935252 -0.087669268 1.8273754 77.25
-1.1253834 -0.061348774 1.8273382 80.375
-0.98852062 -0.088930726 1.8273404 79.400002
-0.82195401 -0.076459363 1.8309283 79.777779
-0.65964735 -0.065607883 1.8358426 78.5
-0.52640271 -0.060332198 1.8339641 74
-1.7024256 0.13934839 1.8262972 79
-1.5624121 0.060174845 1.8365943 87.5
-1.4422271 0.10448254 1.8305395 93.5
-1.2960675 0.065524124 1.8242893 78.199997
-1.1150941 0.1083784 1.8236023 79.199997
-0.93449903 0.080439173 1.8268369 80.333336
-0.83302611 0.079271182 1.8278204 78.300003
-0.68153334 0.070325293 1.8302792 74.555557
-0.52459389 0.083077691 1.8270556 82
-2.2291455 0.23838772 1.8140782 74
-1.9695761 0.28659314 1.8204662 81
-1.8327817 0.20501101 1.8220412 76
-1.7231858 0.21198913 1.8238075 80
-1.5547173 0.20476981 1.8293523 83
-1.4415107 0.25190532 1.8238881 92.5
-1.2970635 0.22946334 1.8178164 78.400002
-1.1111512 0.23247245 1.8202254 79.199997
-0.94862497 0.23569115 1.8211952 79
-0.81508905 0.23160841 1.8245392 75.428574
-0.67248249 0.21740811 1.828154 79.5
-0.53258795 0.22796619 1.8268752 79.25
-2.4204257 0.38404098 1.8044049 80
-2.3053849 0.35757238 1.8077418 73
-2.1827137 0.35829282 1.8063947 84
-2.0446427 0.38272128 1.8125721 83
-1.8669096 0.39260724 1.8160896 85.5
-1.7231168 0.34902319 1.8195167 81.333336
-1.5438997 0.34898853 1.824313 84.5
-1.4367011 0.40110895 1.8199348 95.5
-1.3010203 0.38439286 1.8160052 80.75
-1.1114128 0.36947364 1.8180714 76.199997
-0.9635343 0.37438855 1.8183818 77
-0.80292368 0.36478063 1.8195527 78.125
-0.67198336 0.3616932 1.8244822 77.222221
-0.52771354 0.3761127 1.8237091 77.333336
-2.419245 0.59815115 1.8012961 76
-2.3114491 0.55748856 1.8056333 79
-2.2120032 0.5075987 1.8095993 84
-1.9946017 0.50693512 1.8117784 84.5
-1.8602648 0.5692482 1.8112366 82
-1.738408 0.5090549 1.8167833 82.333336
-1.6064272 0.50097847 1.8170202 87.5
-1.4545226 0.53813088 1.8176713 86.25
-1.2940779 0.5259859 1.8210872 78.75
-1.1017395 0.50923312 1.8204069 57.5
-0.96066302 0.53755313 1.8114539 73.5
-0.82187444 0.52150214 1.812929 76
-0.67955196 0.53545451 1.8149898 77.400002
-0.52439684 0.53172916 1.8184353 79.5
-2.4405398 0.71867436 1.8011895 80
-2.2789593 0.74082619 1.8009142 76
-2.1821718 0.67907363 1.8037882 78.333336
-2.0167024 0.74237967 1.8042494 75
-1.8750265 0.67026299 1.8045075 87.5
-1.7289882 0.67689729 1.8109407 86.333336
-1.5849441 0.65687239 1.8084943 88.5
-1.4222151 0.71491855 1.8132862 87.666664
-1.2751395 0.66603994 1.8117819 92
-1.1169535 0.67104673 1.8088638 74
-1.002825 0.66956782 1.8107904 74.25
-0.83297539 0.68361604 1.810793 75.428574
-0.67255902 0.67882174 1.8110114 76.5
-0.51669669 0.67316502 1.8105378 77.5
-0.43421593 0.72914898 1.8145064 78
-1.897537 0.78177595 1.8060184 84.5
-1.7339209 0.81051677 1.807109 86
-1.5621784 0.81698072 1.8078316 83.5
-1.3968282 0.86550093 1.8087598 83.333336
-1.2792932 0.80031282 1.8110274 90.333336
-1.1285099 0.8600561 1.8082416 87.5
-0.97648782 0.79606318 1.8108616 83
-0.82474399 0.80979753 1.8052189 72
-0.68689167 0.83534306 1.8089013 73.111115
-0.53214347 0.82418108 1.8098582 72.5
-0.41505486 0.84016895 1.8100386 74.5
-1.7499828 0.92600751 1.8014961 81.5
-1.5757835 0.96309423 1.8013057 81
-1.4371872 1.0089016 1.8029422 79.5
-1.2715896 0.95709264 1.8052059 84.75
-1.138687 0.98938078 1.8079702 85
-0.97841382 0.96088022 1.806921 83.666664
-0.84671193 1.0109067 1.808907 90
-0.65343899 0.96455103 1.8041713 76.428574
-0.53378797 0.99828428 1.8049469 77
-0.37779406 0.98172128 1.8060045 67.599998
-1.2059454 1.1317457 1.8042499 77
-1.1908418 1.1191241 1.8035454 82
-0.95201337 1.1199087 1.805056 80
-0.8229813 1.1402074 1.8038254 81.333336
-0.66700268 1.1151184 1.8074265 86
-0.54135793 1.1357214 1.8067573 83.400002
-0.3660709 1.1726911 1.8058237 79.5
-0.29446289 1.1176764 1.8113638 81
-0.94787621 1.2410171 1.8023098 76
-0.81130803 1.250392 1.8029208 73
-0.66194528 1.242326 1.8041213 79.5
-0.52105445 1.2474467 1.8049448 78.400002
-0.40030694 1.2960106 1.8046087 74.666664
-0.24010918 1.2717291 1.8057098 70.75
-0.21247259 1.4045478 1.800614 75
-1.0254672 -4.4824238 2.0265348 12
-1.0240103 -4.1898222 2.0349748 60
