# .PCD v0.7 - Point Cloud Data file format
VERSION 0.7
FIELDS x y z intensity
SIZE 4 4 4 4
TYPE F F F F
COUNT 1 1 1 1
WIDTH 65
HEIGHT 1
VIEWPOINT 0 0 0 1 0 0 0
POINTS 65
DATA ascii
1.1860049 2.0885406 -0.80305284 88
1.2490125 2.085098 -0.8040657 59
1.5114903 2.135941 -0.81638378 72
2.0224087 -0.050765313 -0.66162336 91
1.9835341 0.10034935 -0.66093808 80
1.9601448 0.25090066 -0.65803879 84
1.9252493 0.39829725 -0.64908999 83
1.9037383 0.54813218 -0.63556612 85
1.8772337 0.69701141 -0.61660248 88
1.8121543 1.0494483 -0.71793294 93
1.7946501 1.1599989 -0.74108225 57
1.8098466 1.1078296 -0.71911073 110
1.2721918 1.3096607 -0.63392735 83
1.3962678 1.3304319 -0.64838535 57
1.7759244 1.2826563 -0.7062577 83
1.250021 1.4727571 -0.65339428 76
1.5365361 1.3526219 -0.64935225 43.5
1.7175214 1.3748899 -0.69791925 83.5
1.2737243 2.1030886 -0.71291494 79
1.6246605 -0.42977992 -0.56630945 9
2.0062964 -0.032410596 -0.51782143 78
1.9866174 0.088776954 -0.52988195 87.333336
1.9609261 0.22741704 -0.52862889 81.166664
1.932932 0.3761279 -0.52912128 86
1.9032843 0.53345716 -0.52122474 89.199997
1.8779799 0.67815459 -0.5200671 89.25
1.8497491 0.83696753 -0.51660651 90.166664
1.8232721 1.029223 -0.5102365 109.66666
0.8561036 1.0993087 -0.48188514 3
1.0469888 1.1320381 -0.48813999 10
1.8024445 1.1653916 -0.52572292 104
0.71820575 1.2649496 -0.47934189 57
0.846717 1.2231346 -0.47317353 51.200001
1.2654518 1.3305869 -0.57774562 71
1.3601609 1.3245583 -0.58418822 53
1.7734311 1.3297157 -0.4822427 80
-0.30906054 1.3966961 -0.47981822 18
-0.24925883 1.4066465 -0.46980551 14.285714
-0.065022156 1.4402149 -0.46367884 14.8
0.043459408 1.4631956 -0.49890882 15.75
0.46661672 1.4157211 -0.50317335 38
1.2187399 1.3753814 -0.53658128 90
1.5141314 1.3500026 -0.58027202 39
0.40551206 1.5475245 -0.48180172 64.333336
0.45080519 1.511068 -0.50276226 61
1.9566474 0.21044663 -0.40387586 82
1.9350278 0.33890444 -0.40695822 85
1.9081322 0.51442319 -0.41894841 88
1.8807268 0.66124839 -0.42916691 91.666664
1.8578889 0.78679377 -0.43023574 93
1.8302637 0.95016557 -0.43155336 90
0.87541395 1.1117432 -0.4390032 2
1.7944323 1.1930449 -0.44701678 100
1.8084373 1.1086898 -0.40957528 99
0.7075395 1.2928718 -0.42631444 60
0.78307998 1.2733735 -0.42554259 56.200001
-0.32624048 1.3910664 -0.41754833 16.799999
-0.21738628 1.4136719 -0.40965968 14
-0.065481097 1.4442706 -0.42786559 14.4
0.76801378 1.4179481 -0.40394107 29
1.5501693 1.359511 -0.4207086 39
1.770779 1.3525321 -0.40373814 82.5
0.26429963 1.5116653 -0.42136171 81.5
0.32936913 1.5232723 -0.43664181 81
0.45080936 1.5189365 -0.42570165 58
