# .PCD v0.7 - Point Cloud Data file format
VERSION 0.7
FIELDS x y z intensity
SIZE 4 4 4 4
TYPE F F F F
COUNT 1 1 1 1
WIDTH 1270
HEIGHT 1
VIEWPOINT 0 0 0 1 0 0 0
POINTS 1270
DATA ascii
-0.49280533 -3.1663804 -0.19069144 1
-0.40144864 -3.1622732 -0.1928964 45
0.065813862 -1.7377609 -0.1843968 0
0.15744872 -1.743773 -0.18188633 0
-0.35936558 -1.3059723 -0.17834699 16.666666
-0.2606599 -1.2778062 -0.17695719 12
-0.051875073 -1.3235451 -0.17509246 10
-0.36799777 -1.1789752 -0.15388736 12
-0.3773421 -0.83917344 -0.18167053 10.2
-0.27887332 -0.83986557 -0.16940704 7
-0.088862717 -0.84137315 -0.17224307 5.6666665
-0.48370743 -0.49516717 -0.1712763 7.5714288
-0.42323378 -0.4998323 -0.18359984 6.6666665
0.41774324 -0.5486086 -0.1751707 14.5
0.51180071 -0.53145623 -0.17585407 6
0.66396248 -0.53341961 -0.17481658 4.4000001
0.8254385 -0.51480961 -0.16872299 9.5
0.85698479 -0.38902569 -0.17807762 11
0.86008912 -0.22124694 -0.17399728 12.857142
0.86570626 -0.081293702 -0.16879722 13.142858
0.86874026 0.071201742 -0.17760442 13.5
0.87626517 0.23079772 -0.17481232 14.142858
0.88392895 0.39051986 -0.17582631 13.5
0.89271331 0.52169621 -0.16595507 12
0.9020471 0.52466196 -0.17786404 12
0.89543265 0.66860318 -0.16840498 10
0.014030538 0.88944882 -0.18955868 0.66666669
0.89872932 0.79565024 -0.16146523 11.5
-0.030894265 0.93689591 -0.17309873 2
0.015226748 0.99050081 -0.18651861 1.5
0.27325398 0.94854498 -0.16394337 0
0.43487465 1.0292025 -0.15396366 7
0.52743059 0.99880141 -0.17840946 11.3
0.68778175 0.9835875 -0.18627122 9
0.90991217 0.91846514 -0.16341993 9
0.43588436 1.0682738 -0.1824642 8
-0.84855711 1.4244561 -0.15824091 12.8
-0.69685692 1.4166 -0.16951513 12.4
-0.5048852 1.4147713 -0.18065321 14.5
-0.41803831 1.4146178 -0.18614915 14
-0.20370996 1.4392225 -0.16211396 65
-0.11313793 1.4226627 -0.17871082 8
-0.19306803 3.810039 -0.18190801 157
-0.49668309 -3.180069 -0.084336974 1
-0.37275147 -3.1727455 -0.087743126 15
-0.21188004 -3.175313 -0.09214893 22
-0.14576562 -3.1818895 -0.083075292 4
-0.38454324 -1.2740831 -0.14813115 14.5
-0.2129471 -1.2953508 -0.14683707 0
-0.32941321 -0.83520019 -0.12230361 10.714286
-0.21253371 -0.8121357 -0.11460254 8.6000004
-0.1162127 -0.85233474 -0.1247042 11.181818
-0.35465851 -0.66834337 -0.10687685 4.5999999
-0.24566606 -0.68146324 -0.10737006 4.3333335
0.58794248 -0.61181164 -0.015117398 10
-0.61286187 -0.48045471 -0.12461261 10
-0.50290948 -0.49011293 -0.12193657 6.4444447
-0.3650814 -0.51119536 -0.11072666 5.818182
-0.2140789 -0.52552092 -0.10216631 6.6153846
-0.11049819 -0.49713877 -0.11717085 3.3333333
0.39719611 -0.52648652 -0.12537524 7
0.54660141 -0.55561686 -0.067370869 7.1428571
0.66544139 -0.54968184 -0.043709543 5
0.83714789 -0.51966375 -0.059549224 9.6428576
-0.54627883 -0.44846255 -0.12347264 1
-0.087793104 -0.42823839 -0.057741627 1.8181819
0.015027415 -0.44470569 -0.067985125 1.6666666
0.24641849 -0.43102679 -0.068757415 0
0.85385132 -0.37449205 -0.077477485 11
0.85582644 -0.23010413 -0.076869525 11
0.86220455 -0.072680034 -0.07448364 10.107142
0.86986232 0.0772117 -0.075487584 10.72
0.87670052 0.22090019 -0.07464312 11.111111
0.88258302 0.37300158 -0.061291657 10.181818
0.88888997 0.52650464 -0.064907528 9.7777777
0.89049524 0.67558068 -0.081758961 10.538462
0.90684623 0.69654727 -0.017298346 7
0.11049309 0.86599398 -0.097379573 0
0.89789844 0.80788159 -0.078841321 11.166667
0.90365821 0.87586927 -0.10098577 11
-0.31629995 1.046157 -0.10429687 8
-0.15581781 0.94414067 -0.068533041 0
-0.082561232 0.97599405 -0.11550742 2.75
0.074723773 0.95962751 -0.036096465 1.8571428
0.22979657 0.95817554 -0.093736261 0.8125
0.40685239 1.0130515 -0.12023386 6
0.51237094 0.99852717 -0.13372992 12
0.71761364 0.97122526 -0.10106418 10
0.87812215 0.90370709 -0.01146913 1
0.90745628 0.97869366 -0.061390053 17.9
-0.33678922 1.0972418 -0.10821169 5.25
-0.2975488 1.0559876 -0.11097122 9
0.42166057 1.0766562 -0.1199756 5.3333335
0.70315248 1.0693653 -0.046919856 2
0.91218418 1.0989358 -0.033680413 62
-0.34567136 1.2555 -0.08971443 4.5
-0.24283318 1.2935927 -0.11233975 8.75
-1.1156489 1.4286193 -0.04463714 54.799999
-0.9636243 1.4263852 -0.069498174 21.928572
-0.82226777 1.4236044 -0.078823507 10.777778
-0.6810053 1.4163311 -0.054837726 12.090909
-0.5441581 1.4174492 -0.10009579 14.461538
-0.36343861 1.4093951 -0.063886635 10
-0.22770001 1.4128379 -0.12468176 13
-0.13500281 1.4353827 -0.14246868 22
0.58536929 -0.62265337 0.086301804 7.9000001
0.58522052 -0.57302105 0.035442419 11.2
0.65000248 -0.55471772 0.069288321 6.0714288
0.77679086 -0.55190825 0.064438365 2.6666667
-1.0945488 -0.3616941 0.12871309 0
-0.9924081 -0.36613935 0.081201598 0.42857143
-0.16107415 -0.38108397 0.055416927 2.3333333
-0.08884427 -0.42064095 0.056770563 1.6666666
0.2674458 -0.44408709 0.0073858304 0
1.08824 -0.37815097 0.12280915 16
1.0382619 -0.27189061 0.069194935 0
-1.116765 -0.036002908 0.12868696 0
-1.0749674 0.092425093 0.069923036 0
-1.0343876 0.085573584 0.075103216 0
-1.0720129 0.2296977 0.12300175 1.75
-1.038922 0.22331254 0.08275824 1
0.85803396 0.29916215 0.0049841953 1
0.85115415 0.35433933 0.017526353 0
0.86630797 0.51561588 0.0037332429 1.6666666
-0.018459041 0.86025298 0.14360112 0
0.069515146 0.88194078 0.14330877 0.33333334
0.88699323 0.86270684 0.0044631017 0
-0.16406673 0.91385978 0.098959446 0
-0.068475612 0.94842637 0.061078548 1.95
0.078343324 0.92634934 0.081066288 1.5384616
0.2279886 0.92190915 0.087537989 0.44999999
0.30031186 0.92701638 0.059402402 1
1.1719602 0.92252493 0.11309057 11.333333
1.2577908 0.90605152 0.14890587 2
-0.31294179 1.116362 0.082470588 11.2
-0.28986043 1.1300371 0.083626844 6
0.68851334 1.099785 0.020822251 6
0.98090506 1.1128445 0.046793714 42.666668
1.0646858 1.1053113 0.11512377 11
-0.21500973 1.2887096 0.069837786 5.25
1.0324652 1.2744124 0.058916058 150
1.0640318 1.2854904 0.09156277 150
-1.1279095 1.430335 0.080675878 60.299999
-0.99251968 1.4243605 0.059880394 42.222221
-0.8328473 1.4245958 0.082467802 18.416666
-0.69834954 1.4218308 0.062619813 15
-0.51654387 1.4173064 0.083996043 13.307693
-0.39892021 1.4266459 0.025513534 20
-0.13144942 1.5874358 0.12271115 7
1.0330451 1.5830052 0.13331091 38
1.1894675 1.5027494 0.10901856 38
1.2007998 1.5787594 0.14989555 51
-1.5998651 1.6984576 0.13482058 2
-1.3915945 1.6778698 0.093678527 2
-0.07167203 1.6581062 0.090969436 0
1.0562238 -0.50318831 0.2631166 7
-1.2269987 -0.36769629 0.25786406 0
-1.1277661 -0.40151957 0.26705036 0
-1.0339533 -0.37927541 0.16405499 0
1.1198509 -0.41446492 0.20112842 4
-1.2721027 -0.074063219 0.2494144 2.5999999
-1.1801977 -0.10943821 0.16975331 3
-1.2442584 0.076030061 0.25401694 0
-1.1834041 0.10967208 0.23250192 0
-1.2279536 0.16051392 0.25848648 0
-1.127638 0.25980565 0.22557585 2
0.039232634 0.86144686 0.20881298 0
1.2454892 0.8995657 0.22597665 6
-0.033281252 0.95391726 0.25956786 0.55555558
0.036052186 0.95256394 0.25323299 0.83333331
0.17890759 0.92370397 0.29152536 0
1.1773846 0.96199989 0.21434493 12.5
1.2297736 0.90657461 0.22040668 7.75
-1.1046268 1.4293386 0.24240379 58.5
-0.98634875 1.4268669 0.20663293 59.57143
-0.79646343 1.4224294 0.23404424 40.666668
-0.66995126 1.4248861 0.21411268 31.777779
-0.53359604 1.4163702 0.21675861 26.5
-0.39560384 1.4092352 0.25147521 27.200001
1.1979002 1.4322008 0.159666 18
1.23699 1.3927916 0.24909484 14.666667
1.0163329 1.6317321 0.25289086 35.5
1.1498055 1.5888489 0.22827488 51.333332
-1.3783526 1.6795657 0.15609863 1.5
-0.090955697 1.7545459 0.20183335 3.5
0.97384322 1.6851161 0.26795495 48
1.1964797 1.6769048 0.259817 64
1.0445588 -0.62503284 0.3223471 45
-1.2091829 -0.35898972 0.31717351 0
-1.1216432 -0.37800482 0.30449513 0
-1.325176 -0.055616863 0.37757686 5.2222223
-1.2643723 0.059118763 0.38242942 0
-1.1884587 0.12131204 0.32183319 0
-1.218107 0.21743146 0.38535571 0.69999999
-1.1876484 0.15648991 0.38341653 0
-1.2297277 0.31372291 0.42988133 6.5
0.071479112 0.86726576 0.30802405 0
0.14783405 0.90918362 0.3018837 1
0.17448296 0.92315507 0.30170715 0
1.1736114 0.96524715 0.36975214 11
-1.1301082 1.431716 0.3527053 49.599998
-0.95536411 1.429037 0.4075982 59.799999
-0.83833778 1.4258792 0.35053861 66.25
-0.6967358 1.4202508 0.38643584 72
-0.52373785 1.4197536 0.38385725 51.416668
-0.42836446 1.4235477 0.31990722 16.5
1.185564 1.4517885 0.37248981 14.75
1.2406938 1.3913103 0.39441612 11.5
-0.37195352 1.5181333 0.32391942 28
0.99031407 1.5985918 0.34601647 32
1.1619468 1.5785097 0.39616004 38
-0.35884222 1.7829322 0.36752111 0
0.899553 1.7290263 0.33416569 5
0.95446378 1.6636165 0.3188948 34.666668
-0.21601075 1.8338845 0.32027066 1
1.076063 -0.93005353 0.53062761 1
1.0417569 -0.83184862 0.4536798 49
-1.3246526 -0.042962104 0.51429826 7.8333335
-1.2644682 0.075483479 0.50130087 0.66666669
-1.216779 0.1928072 0.50446647 1.5
-1.1930721 0.2376921 0.47081625 0
-1.2204361 0.31146604 0.59281439 4
-1.0743486 1.4280261 0.53935051 62.75
-0.9921301 1.4311892 0.50048435 61.599998
-0.81797105 1.4252151 0.54088932 60.333332
-0.66970849 1.4230301 0.53330052 65.666664
-0.5937801 1.4219956 0.48126817 70
-0.43116969 1.4151692 0.56187689 69
1.1856866 1.4595764 0.55148554 14.5
1.2430443 1.3888981 0.51984751 11.125
1.1920425 1.5509949 0.51830494 40
1.1923534 1.669683 0.55229598 73
1.2041253 1.7677338 0.57855988 51
1.2107329 1.8273857 0.5684725 42
-0.34376258 2.0188587 0.52062112 0
1.2098546 2.0597613 0.57895923 23
1.2095145 2.1557498 0.53941059 30
-1.29843 -0.0046760226 0.74766529 1
-1.248607 0.078847259 0.67470181 8.333333
-1.291788 0.17168415 0.68702841 7
-1.1599963 1.4340881 0.65199554 49.799999
-1.006353 1.4286214 0.72111279 60
-0.81835067 1.428143 0.67494404 57.75
-0.67976284 1.4178238 0.66288209 58.5
-0.48701119 1.4162058 0.6931622 56.833332
-0.40283221 1.4288958 0.6574617 33.799999
1.1727495 1.4623613 0.69567889 20
1.2410944 1.3908976 0.64660847 10.75
-0.37405068 1.5141495 0.69888246 10
1.1915791 1.5723825 0.67779201 43
1.2010177 1.6259657 0.65596306 48
2.9815111 1.5602453 0.67004162 0
1.1931081 1.661345 0.63791311 64.5
1.2061515 1.7493691 0.63657099 41.666668
-0.36111811 1.8165644 0.69316041 9
1.2081136 1.886672 0.71596891 42
1.209506 1.9797059 0.73158103 35
-1.394441 -0.0045856042 0.7814942 0
-1.2426879 -0.046341162 0.77240717 2
-1.182735 -0.019930083 0.81572366 2
-1.2082925 0.10991207 0.79304016 4
-1.1821306 0.047798801 0.81065214 0.25
-1.1382605 1.4298866 0.84605634 60.5
-0.95719403 1.4300215 0.83088952 60.200001
-0.890468 1.428869 0.77372617 58.5
-0.67726624 1.4185994 0.83301091 52.25
-0.54582649 1.4204162 0.81859583 53.875
2.9783759 1.4234092 0.77993393 0
1.1978879 1.6087373 0.76675904 44
1.2000213 1.5950625 0.83246601 43
2.9883022 1.6076617 0.85316455 0
1.1952778 1.6742827 0.81992131 51
1.2050928 1.7643422 0.83598042 39
1.2085124 1.8423262 0.79524881 35.666668
-0.35192636 2.0923271 0.89833367 10
1.2095453 2.0189965 0.8388918 30.333334
1.2089828 2.1296639 0.87457812 24
-1.1019219 1.4350525 0.97827357 62.666668
-1.0284089 1.430189 0.93040794 62
-0.80717349 1.4206606 0.97774434 47.666668
-0.67139262 1.4219415 0.97796172 49.57143
-0.52700227 1.4128915 1.0346376 48
-0.41690111 1.4118255 0.94555432 38.5
1.2059908 1.7485658 0.95878613 38
1.208159 1.8790696 0.96267426 37.200001
-0.35612002 1.9864643 0.97061908 7
1.2114371 2.0211334 0.94744462 28.666666
1.2162046 2.1563702 0.93533605 26
1.2278396 2.2604985 0.96435261 25
-1.1548642 1.4332079 1.0776663 52
-0.94728059 1.4268919 1.1033189 46.5
-0.81592923 1.4278586 1.1491852 46.200001
-0.67422879 1.4222965 1.1235074 47.5
-0.46819466 1.4138963 1.094712 42.5
-0.40497273 1.4254957 1.1473367 30.75
-0.37707302 1.5759448 1.1599628 8
1.2116084 1.9306331 1.0785061 36.5
1.2084887 2.0392303 1.1308613 25.75
1.2167107 2.1734416 1.1354097 25.666666
1.2289727 2.3492358 1.1045749 26
1.2316709 2.4564276 1.1448547 26
-1.113525 1.4308589 1.2556934 45
-0.98253751 1.4285944 1.3059126 45
-0.85809946 1.431748 1.2678908 45
-0.70630246 1.4230027 1.327734 40
-0.51860589 1.4187258 1.2610645 41.142857
-0.42206603 1.4099827 1.2695339 40
-0.35681731 1.9709035 1.2840848 8
1.2016292 2.0885193 1.2636075 27
1.2111164 2.180052 1.2730575 25.666666
1.2163883 2.3234825 1.3392187 25
1.2283412 2.4942086 1.2924297 25.333334
1.2248465 2.6020741 1.3041844 26.5
-0.81737888 -3.1549306 1.3711158 25
-0.077775292 -3.1853948 1.453732 21
0.033637717 -3.1901386 1.3842832 13
-2.2067885 -3.0959668 1.4862214 10
-1.7417358 -3.109864 1.4377799 20.666666
-1.5946522 -3.1206138 1.3795778 14
-1.1679395 -3.1266901 1.4660584 40
-0.96432847 -3.1353142 1.4559883 35.25
-0.82136643 -3.139586 1.4812911 37
-1.2051921 1.4486533 1.484347 11
-1.1304125 1.4375921 1.4892242 47
-0.95504516 1.4355756 1.4186673 44
-0.85480458 1.4274151 1.4843279 39
-0.6502161 1.4257073 1.438061 39
-0.54311132 1.4201351 1.4254944 38.400002
-0.37079731 1.7654748 1.4345024 6
1.2121682 2.3189607 1.4040457 23.799999
1.2219025 2.6325972 1.3509076 13
-0.31861377 -3.1853883 1.6375707 16
-0.18994461 -3.1783414 1.5394932 20.75
-0.062660925 -3.1749916 1.5198462 21.5
0.092036769 -3.1774983 1.540971 25
-2.408093 -3.094806 1.5247499 10
-2.1733208 -3.0856407 1.5551983 15
-1.98396 -3.1067255 1.5631137 24
-1.8491118 -3.1084533 1.5827863 25.5
-1.7977179 -3.1053374 1.5566292 24
-1.6348637 -3.1042283 1.5598345 28
-1.2382866 -3.1192539 1.6418105 36
-1.1150438 -3.1295741 1.6254269 36.666668
-0.9857167 -3.1366463 1.5900095 39.5
0.66925454 -3.1484585 1.6360725 57
-1.0792572 1.4428854 1.573648 47.5
-1.0146056 1.4443471 1.5202937 56
-0.78430015 1.4246832 1.5069122 34
-0.65876466 1.4274018 1.5763648 38.799999
-0.43078381 1.4152865 1.5607133 39
1.214275 2.4803672 1.5646915 23
-5.014082 6.5455542 1.6087385 27.5
-0.34255072 -3.2023108 1.7174829 17.75
-0.18354909 -3.1963899 1.6846408 20
-0.075937212 -3.1973279 1.6971072 21
0.48406768 -3.1871548 1.7849196 22
-2.4849539 -3.0679588 1.7313459 9
-2.2692254 -3.0904016 1.7729305 21
-2.0499449 -3.1143718 1.7348645 24
-1.8881781 -3.1179595 1.7702402 26
-1.4046161 -3.1201453 1.6502274 40
-1.2793527 -3.1229384 1.7548895 28
-1.1844779 -3.1322539 1.6790754 36
-0.50421256 -3.1292064 1.798227 13
-2.5325005 -2.1963122 1.7982727 47
-2.0929289 0.53254318 1.7997311 86
-2.1711328 0.88184714 1.796856 77
-2.9190481 1.4625587 1.7977177 82
-2.8107386 1.409009 1.7976866 82.5
-2.6382759 1.4059604 1.7989894 70
-1.1722846 1.4445055 1.7295986 36.5
-0.94926655 1.4378283 1.7074008 37
-0.80141616 1.4339653 1.7394482 49
-0.72486579 1.4352607 1.7418038 37.5
-0.52529776 1.4267715 1.7261697 42.25
-0.41717431 1.4218755 1.7464638 44.5
-3.9705005 1.5820867 1.7991099 71.5
-3.8699794 1.5959386 1.7966594 69
-3.6917014 1.5592939 1.7981428 65
-3.5417421 1.603031 1.7988521 74
-3.0539823 1.5372874 1.7984961 75
-2.476027 1.6428523 1.7957982 50
-2.3645151 1.6129116 1.7984126 74.5
-2.2364476 1.6329606 1.7965151 52
-1.9815973 1.5577855 1.7958122 74
-1.8769505 1.5523996 1.7996448 75
-1.7223264 1.575141 1.7969284 68.5
-0.38803875 1.5516194 1.7739192 43
-4.8115921 1.7286465 1.7916871 57
-4.5396008 1.6788896 1.798113 69
-3.4323771 1.796818 1.7980002 36
-2.8918865 1.7179148 1.7955313 38.5
-2.7709196 1.6899092 1.7947873 39
-2.6129725 1.6644906 1.7913021 38
-0.36397618 1.7529359 1.7966179 58
-3.9701531 1.9330109 1.795736 69
-3.7226975 1.9057841 1.7961401 57
-3.5729909 1.8503417 1.794911 36
-3.3258388 1.8892715 1.7994348 68
-3.0520067 1.8400097 1.794912 42.5
-2.5872867 1.9422286 1.788318 72
-2.4473155 1.9006212 1.7917889 76
-2.332633 1.8639851 1.7938586 72
-2.227736 1.8914682 1.7981769 75
-2.0559878 1.8082206 1.7981859 50
-0.24544269 1.8269897 1.7998451 79
-4.5581779 2.0881147 1.7991501 62
-4.2986436 2.0204017 1.7941786 70
-4.1263685 1.9750849 1.7967556 64
-3.8955598 1.9595559 1.794048 66
-3.5593987 1.9518425 1.7989684 75
-2.9042988 2.0208549 1.7943121 69.5
-2.746316 1.9864813 1.7882785 72
-2.2697525 2.0235 1.7980887 74.5
-1.8867484 2.0333943 1.7970551 64
-1.5878247 2.0600355 1.7978984 84
-4.9046001 2.17643 1.7988893 59
-3.6705971 2.2157645 1.796062 67.5
-3.4797852 2.1419687 1.7979192 63
-3.0946016 2.2068136 1.7957741 64
-2.5645196 2.2471614 1.7942101 72
-2.4138548 2.1765747 1.7899476 71
-2.3012762 2.1370759 1.7971572 75.5
-2.2107363 2.1670902 1.796306 76
-0.35098189 2.1750174 1.7729393 28
-4.1249013 2.3603423 1.7995573 65
-3.9742627 2.3452005 1.7981626 69.5
-3.7581549 2.2822709 1.7966415 65
-2.9488428 2.3976409 1.7958995 65
-2.7289433 2.3173318 1.795231 81
-2.237401 2.3400364 1.7957964 72.666664
-1.8837024 2.3196678 1.7977402 72.5
0.88125169 2.3785906 1.6632179 2
-4.5901885 2.5220637 1.7986184 66
-4.352644 2.4523973 1.7934757 60
-4.2672906 2.4074612 1.7986327 68
-3.5311413 2.5230393 1.7973999 62
-3.0102606 2.4832437 1.7979678 61
-2.3277702 2.4671817 1.7949613 70.5
-2.1878865 2.4709444 1.7965971 68
0.87260205 2.4595761 1.7471796 27.5
1.0070169 2.5020018 1.7357149 46
1.1914821 2.5196574 1.6939057 9
-4.9925475 2.6608655 1.7992076 58
-3.7654569 2.6222966 1.7998027 65
-3.653718 2.6029303 1.7913913 60
-3.0880594 2.5713871 1.7982396 61
-2.9025133 2.6689827 1.7934922 63
-2.6944642 2.6663191 1.7920092 65
-2.5334661 2.5782659 1.7985686 72
-2.1966407 2.6237626 1.7944871 64
1.122787 2.5905426 1.7333399 49.333332
1.2085021 2.594131 1.6646826 22.5
-4.1253247 2.7822685 1.7966107 64
-3.9665298 2.795738 1.7993919 63
-2.9526196 2.7688589 1.7949926 59
-2.3330786 2.8080878 1.7943002 74
-2.1757364 2.7562578 1.7987703 76
0.84825939 2.7892916 1.775169 21.666666
-4.4265056 2.9391382 1.7992939 61
-4.3361611 2.8581293 1.793542 65
-3.5848138 2.9459348 1.7952725 61
-3.0363817 2.9154077 1.7956347 59.5
-2.4837298 2.9276154 1.795303 63
-2.1519747 2.921279 1.7986628 71
-4.7118139 3.0383668 1.7986493 58.5
-3.7995846 3.0617056 1.7970902 66
-3.7035854 3.0470138 1.7918028 63
-2.9180932 3.0750027 1.7946874 58
-2.6494143 3.0475881 1.7891101 61
0.19645889 3.0677619 1.7996281 50
0.39231324 3.1276948 1.7982067 51
-5.0799508 3.1930716 1.7910374 45
-4.0551248 3.1717134 1.799888 58
-3.996943 3.2752903 1.7954763 57
-3.8341269 3.1549966 1.7940603 59
-2.9718037 3.2372577 1.793749 57
-2.2755954 3.1656656 1.794108 17
-4.427093 3.3754909 1.792919 55
-4.2822528 3.3103874 1.7977194 58
-3.6392167 3.422811 1.7885936 55
-3.0462039 3.4040282 1.7935709 63
-2.4227726 3.309186 1.7896084 65
-0.24397442 3.4131138 1.7966141 61
-4.7757668 3.5756471 1.795247 45
-4.5259886 3.4557261 1.7972077 53
-4.4883327 3.4709098 1.7946533 51
-3.7983418 3.5545371 1.791865 56.5
-3.333468 3.4880383 1.7973734 62
-2.9243259 3.5289369 1.7905818 59
-2.5961285 3.4741495 1.7886003 66
-0.22548401 3.5316968 1.7958519 51.5
-4.8282995 3.6256502 1.795082 44
-4.1513968 3.7178912 1.7994047 56
-3.8808661 3.6803279 1.7944881 57
-3.6118672 3.7086008 1.7946275 60
-2.9442251 3.6474445 1.7879282 62
-0.072299868 3.6607814 1.7992607 52.5
-5.1827106 3.7969859 1.7829849 30
-4.3705435 3.879581 1.7912666 46
-4.2188997 3.7548487 1.7974142 55
-4.1671467 3.7996209 1.7966779 51
-4.0321178 3.8207409 1.793841 51
-3.0391064 3.8201089 1.7861899 60.5
-2.9639027 3.7569597 1.7855562 60
-0.052067775 3.8483768 1.7956008 53
0.037148844 3.8935359 1.7903606 51
-4.5283132 3.9665742 1.7892104 43
-3.7119157 3.9865434 1.789064 54
-2.9169819 4.0361266 1.7765104 56
-2.8374496 4.0489411 1.7957565 50
0.11980025 3.9398658 1.7973481 51
0.20482619 3.9981134 1.7988273 59
-4.5868359 4.0681992 1.7891365 38
-3.8448555 4.1226668 1.7855238 48
-2.9208229 4.1650834 1.7752484 56
-4.9034052 4.2436247 1.7882527 35.5
-3.9203014 4.2696109 1.7862529 40
-3.6150084 4.2887802 1.7903832 49
-3.0571806 4.3047986 1.7893933 54
-2.9327331 4.2970304 1.779982 55
0.25137231 4.2482576 1.7891507 51.5
0.35622096 4.2963767 1.7980989 2.5
-4.2718863 4.3929749 1.7928882 41.666668
-4.0566425 4.4302673 1.7813708 40
-3.6237559 4.4714918 1.7908746 45
-5.3368068 4.5201612 1.7854489 33
-4.6172533 4.6284022 1.7675472 28
-4.4688673 4.5384107 1.7785734 39
-3.7889793 4.6440411 1.7831095 25
-3.3048635 4.5991006 1.7857994 23
-4.6805296 4.8244128 1.7994612 30
-3.956964 4.8231626 1.7979318 27
-3.8885615 4.8208737 1.7866076 26
-5.040627 5.0155449 1.7866734 33
-3.9806817 4.9847107 1.7849613 38
-3.6354733 4.9949374 1.7975622 29
-4.4426374 5.1624756 1.7945049 33.5
-4.3161783 5.1959925 1.7955052 32
-4.1225762 5.1956086 1.7905189 32
-5.5199423 5.3796859 1.7851187 39
-4.6330218 5.3814802 1.785931 34
-4.8038211 5.5082521 1.7788953 34
-3.9024768 5.4741397 1.7878844 32
-4.8960853 5.667726 1.7930495 36
-4.7794452 5.6693807 1.789682 35
-3.9918149 5.6347542 1.7849567 31.5
-5.2184453 5.9612441 1.7877032 27.5
-4.0576448 5.856626 1.7864779 33
-4.6103907 6.1159663 1.7864029 35.5
-4.421731 6.1281552 1.7968708 36
-4.1762185 6.0869193 1.7862014 30
-4.8015447 6.3830085 1.7756711 24
-4.933362 6.5059633 1.7325023 22
-4.7556562 6.4913311 1.7097784 19
-4.0832968 -3.3606362 1.8081664 12
-3.4211836 -3.3837786 1.8188496 19
-3.2111773 -3.4382801 1.8217515 21.5
-2.9204781 -3.3691206 1.8187796 40
-4.0581131 -3.1656406 1.8465327 23
-3.4717255 -3.2387679 1.8285517 46
-3.4185095 -3.2212443 1.8385408 49
-3.0856099 -3.2638068 1.8223113 29
-2.8792002 -3.2883244 1.8365246 40
-2.7869992 -3.1756058 1.8294777 2
0.44199252 -3.1982038 1.8126453 10
-4.4375863 -3.140027 1.8572756 11
-3.2184491 -3.0060203 1.8090671 13
-2.8434873 -3.0464578 1.8061775 6
-2.1643004 -3.0387974 1.8212124 26
-1.636044 -3.0569291 1.8168594 18
-1.4209485 -3.0657606 1.8205215 25
-1.3172498 -3.0880303 1.8093269 6
-1.1452634 -3.1030023 1.8082627 7
-0.6517446 -3.1347439 1.8047682 10
-0.52283984 -3.0944002 1.8152303 36
-0.36699554 -3.1376088 1.8033572 12
-0.24982592 -3.1433036 1.8160216 9
0.2644577 -3.067265 1.8364793 58
0.38231397 -3.0701599 1.8317924 54.5
0.52889073 -3.0109363 1.8390282 63.5
-4.0878701 -2.9160762 1.8162704 42.5
-3.776268 -2.966419 1.8143538 18.5
-3.4705045 -2.9835603 1.8150145 22
-3.4280396 -2.9457166 1.8229054 60
-3.1901989 -2.8707573 1.8303939 61
-3.1041679 -2.8801081 1.8182279 59
-2.9533138 -2.9378598 1.8228153 53.5
-2.7183294 -2.9439456 1.8412706 53
-2.2712142 -2.939059 1.8272685 52
-2.219373 -2.8840735 1.8349508 63
-2.038836 -2.9113364 1.8403765 75
-1.4320903 -2.926003 1.8267069 54.5
-1.2812506 -2.8686047 1.8285438 61
-0.83168972 -2.918345 1.8320962 60
-0.66588253 -2.9044733 1.8305761 61.666668
-0.53937954 -2.9479716 1.8330864 68
-0.4170247 -2.9517274 1.8389455 63
0.049418997 -2.870682 1.8337063 62
0.19975278 -2.9100461 1.833423 60.25
-4.0406938 -2.7095575 1.8237511 60
-3.8036423 -2.7721395 1.825915 59.5
-3.6168027 -2.7756934 1.8280463 58
-3.4857779 -2.8397138 1.8327596 62.5
-3.419445 -2.7856839 1.8409058 60
-2.810328 -2.7910354 1.8246168 52
-2.6261706 -2.790194 1.8292924 55
-2.416821 -2.8379536 1.8332015 56
-2.1943231 -2.7925336 1.832402 55
-1.7661147 -2.7686489 1.8263623 68
-1.5646838 -2.7624898 1.8224285 58
-1.4603301 -2.8044274 1.8262845 59.666668
-0.83593303 -2.707248 1.8336474 54
-0.69658142 -2.7905686 1.8254832 59.666668
-0.5667156 -2.7383895 1.8371857 62
0.037847545 -2.7412107 1.8363957 63.5
0.22013578 -2.8416364 1.8310374 62
0.37451845 -2.8232374 1.839188 71
-4.3817034 -2.6405888 1.817077 56
-3.8317792 -2.5888205 1.8309681 60
-3.5198243 -2.6182125 1.8247734 65
-3.4417124 -2.5598621 1.8203381 56
-3.2693815 -2.6573796 1.8286954 59.5
-3.0116653 -2.6009121 1.8131057 54
-2.9457617 -2.6334348 1.8244905 60.5
-2.7725048 -2.6102097 1.8340911 59
-2.3041096 -2.6179297 1.8221592 56.666668
-2.1168635 -2.610503 1.828596 63
-1.538282 -2.5815299 1.8282173 57.5
-1.3967983 -2.629163 1.8324877 59
-0.98551887 -2.6760528 1.8316027 56
-0.81442976 -2.6210661 1.8282739 55.75
-0.074156813 -2.6468475 1.8330934 59.5
0.054368988 -2.6776466 1.8323539 60
0.19959609 -2.6575503 1.8400413 66
-4.1297159 -2.5099416 1.8237395 59.5
-3.7672076 -2.4017618 1.8294019 58
-3.6447265 -2.4615612 1.8183662 55
-3.5141888 -2.4631383 1.830073 62
-3.4297044 -2.418654 1.8387955 56
-3.1971335 -2.5129175 1.8220618 60
-2.7675085 -2.4545629 1.8267751 58.5
-2.4865341 -2.5127223 1.8222493 56
-2.2663672 -2.4417117 1.8234376 54
-2.2196062 -2.503649 1.8241757 54
-1.8689611 -2.4791822 1.8190469 62
-1.7059095 -2.5459306 1.8274571 64
-1.5952497 -2.4943361 1.8263477 61.333332
-1.1227781 -2.4444828 1.830773 55
-0.92875403 -2.4388742 1.832764 54.666668
-0.828632 -2.519948 1.832657 62
-0.70026666 -2.5386167 1.8366495 56
-0.31506485 -2.5047932 1.8346714 62
-0.17185618 -2.5066183 1.8329073 62.666668
-0.094786994 -2.5171366 1.8376808 63.5
0.041513812 -2.4945209 1.8376704 65
-4.0642037 -2.3206649 1.8256921 60
-3.8860686 -2.3660817 1.819039 64
-3.6212564 -2.3282194 1.8308119 57
-3.548285 -2.2647023 1.8209704 62
-3.2875347 -2.3126845 1.8260186 57.5
-3.0522912 -2.2666264 1.8139402 54
-2.9266021 -2.3586881 1.8164526 56
-2.8272333 -2.3073039 1.8334056 74
-2.4175105 -2.3062913 1.8182675 59
-2.3544531 -2.3339994 1.8229077 60
-2.192914 -2.3441617 1.8277889 74
-1.803033 -2.2911961 1.8252312 59
-1.6293014 -2.3138087 1.8284849 58.666668
-1.4989297 -2.3994842 1.8333064 61
-1.2557348 -2.2538664 1.8596574 20
-1.0950356 -2.277611 1.8321923 56
-0.95621222 -2.3633025 1.8279657 60.666668
-0.82080638 -2.3504682 1.8380047 64
-0.47053045 -2.3237166 1.8310839 62
-0.32921594 -2.3341947 1.8288049 66.5
-0.25857645 -2.3391469 1.8300235 67.5
-0.099452451 -2.346885 1.8418602 76
0.26310778 -2.320112 1.8305961 65
-3.8507414 -2.213099 1.8258581 59
-3.6661544 -2.1028414 1.818169 56
-3.5565724 -2.1260858 1.8378164 31.5
-3.4493105 -2.2019842 1.813975 51
-3.2431092 -2.1768141 1.8202819 58
-3.0450656 -2.2497776 1.8270208 69
-2.8016186 -2.1359017 1.8185885 58.5
-2.3055308 -2.2025435 1.8388029 22.5
-1.9622338 -2.2133231 1.81747 41
-1.7149034 -2.1919177 1.8245116 65
-1.5881689 -2.1796064 1.8301495 64
-1.0727308 -2.1496716 1.8245349 64
-0.99650276 -2.184186 1.8287036 62.75
-0.60928369 -2.1501048 1.8316125 63
-0.46266484 -2.170969 1.8272573 65.5
-0.38616887 -2.1699352 1.8308783 64.75
-0.22814493 -2.1903901 1.8333625 68
0.097590551 -2.1893475 1.8272551 66
0.20805253 -2.1820543 1.8292462 37.5
-3.9059515 -1.99545 1.8138698 4
-3.6389725 -1.987343 1.8298336 3
-3.3756418 -2.0432985 1.8276982 55.5
-3.289346 -1.9749151 1.8222488 60
-3.0967431 -1.957514 1.8244985 67
-2.9134524 -2.0337443 1.8219137 60
-2.456708 -2.0253706 1.8183908 60.5
-2.3245151 -2.0886774 1.8196849 61
-2.0446508 -1.9621377 1.8180906 59
-1.8485813 -2.0084443 1.8203794 61
-1.6997203 -2.0209482 1.8277462 66
-1.2748401 -2.0415585 1.828583 59
-1.1277888 -1.9871436 1.82621 62
-1.0237418 -1.9886523 1.8296069 67
-0.7334488 -1.9782031 1.82909 64
-0.52741778 -2.0083973 1.8294686 68.333336
-0.34491402 -2.046315 1.8310088 74
-0.056606445 -2.0086262 1.8294792 73
0.097183093 -2.0620186 1.8333318 69.400002
0.16633393 -2.0304441 1.8286852 69
-3.5263054 -1.9086939 1.8195916 31.5
-3.3262026 -1.862165 1.8222481 59
-3.2418282 -1.8587739 1.8144389 57
-2.8622534 -1.8389201 1.8141707 56
-2.8118773 -1.8502698 1.8188812 55
-2.6196196 -1.9435364 1.8213226 62
-2.4448438 -1.8266253 1.8209292 46
-2.3309758 -1.8996439 1.8248295 55.333332
-1.9665197 -1.8220143 1.8259951 64
-1.815957 -1.908108 1.8276702 71
-1.7424917 -1.8233969 1.8221325 61.5
-1.4433912 -1.8070822 1.8298544 70
-1.298442 -1.8804928 1.8295699 59
-1.1416584 -1.8555446 1.8289418 62.666668
-0.84532917 -1.8099669 1.8273729 67
-0.65664506 -1.8473396 1.8261858 72.5
-0.53706491 -1.8714103 1.8289729 78
-0.18803959 -1.8573818 1.8283687 74.666664
-0.061748587 -1.9006016 1.8331059 69.25
0.061869446 -1.9142081 1.8356923 71.666664
-3.4065235 -1.7451037 1.832408 18
-3.2926397 -1.6699518 1.8165535 3
-3.1281524 -1.6645503 1.818879 29.5
-2.9459169 -1.7514346 1.817719 62
-2.6724951 -1.678696 1.8180603 61
-2.515739 -1.7670773 1.818715 57
-2.3328259 -1.6988621 1.8228012 53
-2.1211293 -1.7258426 1.8239838 61
-1.8574988 -1.7369868 1.8175216 63.666668
-1.7406528 -1.7701687 1.8256346 67
-1.3830523 -1.6905606 1.8263253 62
-1.2464447 -1.7845526 1.8252684 65.333336
-1.1855869 -1.7271786 1.8242579 73
-0.94662625 -1.6503129 1.8312505 65
-0.79012179 -1.7049203 1.8261831 71
-0.69152725 -1.6935989 1.8266174 76.75
-0.54737556 -1.7713077 1.8288482 78
-0.35102654 -1.7172216 1.8250313 76.666664
-0.2342656 -1.6874299 1.8271227 81.5
-0.080354266 -1.7417883 1.8293326 79.800003
0.068943463 -1.7383717 1.8280367 74.5
0.22780265 -1.6974196 1.8292551 64.75
0.32234222 -1.6635423 1.8243033 34
-2.8689475 -1.5691959 1.815302 62
-2.5690703 -1.5206356 1.8195677 59.5
-2.4452143 -1.6084778 1.8208408 53
-2.3808689 -1.625293 1.8231124 56
-2.0288591 -1.5955733 1.8189052 54
-1.856379 -1.5652471 1.8180625 60.5
-1.7722911 -1.6224395 1.823774 56
-1.5243763 -1.605094 1.8250171 69
-1.4540178 -1.5015204 1.8147062 83
-1.2859399 -1.6063969 1.8210337 74.400002
-0.82061422 -1.5574552 1.8263419 77.800003
-0.69882035 -1.5551919 1.8310899 74
-0.5355289 -1.5430607 1.8284248 74
-0.3612693 -1.5677199 1.8302032 74.5
-0.23140848 -1.5781884 1.8316491 77.25
-0.063985743 -1.5375949 1.8268782 78
0.087516375 -1.5876011 1.8277769 73.833336
0.20331192 -1.5559137 1.8298718 81
0.35642478 -1.6098181 1.8267475 59
-2.9810071 -1.4873877 1.8191814 32.5
-2.7221024 -1.4266827 1.8180743 55
-2.4308467 -1.4037361 1.8190787 57.5
-2.3582621 -1.4633465 1.8204204 55
-2.1750824 -1.486282 1.8134872 50
-2.0857234 -1.3809141 1.8148452 52
-1.8779767 -1.4085219 1.816626 61.599998
-1.5983334 -1.4137777 1.825718 71
-1.3867916 -1.4263555 1.8170762 71.666664
-1.2804748 -1.4579601 1.8207203 73.333336
-0.98292524 -1.4328442 1.8239436 76.333336
-0.83297378 -1.39981 1.827617 78.599998
-0.62907672 -1.4115108 1.8253344 75
-0.49857429 -1.4076732 1.8278958 68.5
-0.37535325 -1.4177583 1.8290627 70.800003
-0.23907408 -1.4341028 1.8253233 71.75
-0.080448337 -1.4053897 1.8286867 65
0.065725721 -1.4433031 1.8301237 67.571426
0.17198251 -1.4030828 1.825683 102
-2.890275 -1.3102334 1.8132533 70
-2.6091881 -1.2775602 1.81418 46
-2.5190432 -1.3282156 1.8129603 54
-2.3835177 -1.2407273 1.8219892 28
-2.2329588 -1.2624605 1.8155075 36
-1.9938252 -1.3012652 1.811915 59.5
-1.8822849 -1.218713 1.8212601 26
-1.6561681 -1.2203358 1.8163847 32
-1.5229182 -1.3260231 1.8176886 69
-1.4277035 -1.2631845 1.8218113 31.5
-1.3246789 -1.3088294 1.8252287 51
-1.0825636 -1.2936478 1.8274324 49.5
-0.95357573 -1.2624509 1.8318164 40.599998
-0.86150986 -1.2460535 1.8380309 35
-0.67159504 -1.2457651 1.8348222 37.666668
-0.53175372 -1.2857006 1.8346422 35.599998
-0.37891188 -1.2724506 1.833917 31.666666
-0.22307904 -1.2734362 1.8296864 24
-0.08626014 -1.2808151 1.8353344 24.5
0.057402641 -1.2751355 1.8363336 28
-4.4904466 -1.1335628 1.8195928 69
-4.2503757 -1.0596113 1.8112477 74
-2.907171 -1.0663668 1.817222 63
-2.7670805 -1.1815653 1.8179051 57
-2.6020749 -1.0896194 1.8189718 28
-2.4707303 -1.1849766 1.8204865 27
-2.1440818 -1.1769801 1.821582 26
-2.0177133 -1.1221987 1.8144461 27.333334
-1.897758 -1.1983103 1.8196887 28
-1.5440407 -1.1135098 1.8238711 58.333332
-1.4039941 -1.1267874 1.8205993 59.25
-1.122862 -1.1371804 1.826018 62.666668
-0.96772099 -1.1031822 1.8294151 81.599998
-0.79108387 -1.1572534 1.8334066 49
-0.69223148 -1.0999093 1.8278266 85.333336
-0.52728796 -1.1273935 1.8276602 64.285713
-0.38801962 -1.1362808 1.8235162 56.75
-0.22628438 -1.1178827 1.8235693 44.875
-0.081796408 -1.153482 1.821279 57.5
-4.1488843 -0.95582092 1.8167232 70
-3.5991402 -0.94867837 1.822085 79
-3.4396405 -0.90207279 1.8161176 78
-3.038276 -0.96450526 1.8117689 67
-2.8084135 -0.94223958 1.8180481 59
-2.6623657 -1.0103467 1.812909 63
-2.5062966 -0.97162777 1.8212204 62.5
-2.3361712 -1.031726 1.814033 58.5
-2.1888149 -0.97295314 1.8199228 60
-2.0377731 -0.95489717 1.8180008 66.75
-1.8992655 -1.0218511 1.8154857 71
-1.7135872 -1.0375509 1.8190154 68
-1.5701303 -0.94256783 1.8197792 75
-1.4437597 -0.96403909 1.8256891 73.25
-1.2470139 -1.0206181 1.8295232 78
-1.1144187 -0.96753538 1.8282729 84.25
-0.97549134 -0.98014379 1.8291593 87.666664
-0.80460244 -0.99617308 1.8268232 95.333336
-0.66838318 -0.95433795 1.8230206 76.400002
-0.53072762 -0.97333014 1.8185745 60.900002
-0.37386617 -0.98566252 1.8198093 48.5
-0.237084 -0.98193324 1.8200706 41.400002
-0.10603428 -1.0480896 1.818911 45
-4.5186434 -0.78920341 1.8171679 71
-3.9522216 -0.8972863 1.8144819 73
-3.8636878 -0.81010246 1.8157889 73
-3.70784 -0.81877309 1.813656 80.666664
-3.3168435 -0.85315198 1.8111831 72
-3.2165718 -0.85980403 1.8108213 74.5
-3.0745463 -0.77119255 1.8182017 77
-2.9451551 -0.80890983 1.8141598 69
-2.7010686 -0.77595383 1.8175663 72
-2.6123221 -0.83714896 1.8186177 65
-2.4119003 -0.8152023 1.8169562 66
-2.3238378 -0.82925618 1.8177968 62
-2.2264636 -0.77180654 1.8163775 60
-2.0007217 -0.81745744 1.8175236 68
-1.8957132 -0.85905886 1.8193213 73
-1.7243402 -0.83713752 1.8239225 72.5
-1.5607172 -0.77112722 1.8220953 72
-1.4539956 -0.79865873 1.8273065 73
-1.2620265 -0.84884477 1.8296087 77.5
-1.122663 -0.81662613 1.8275856 92.75
-0.98703337 -0.84293067 1.826053 88.599998
-0.82309526 -0.82019132 1.819721 82.75
-0.66779476 -0.82623684 1.8222622 74.14286
-0.52533656 -0.81343067 1.8184233 71
-0.37929723 -0.83373487 1.8193768 56.25
-0.22948083 -0.83908546 1.8193218 50.5
-4.2785473 -0.73103827 1.8096203 73
-4.1683822 -0.64013249 1.8114034 76
-4.0117702 -0.68030775 1.805715 78
-3.623349 -0.68020344 1.8219687 113
-3.4845917 -0.69542694 1.8117596 78.666664
-3.3714619 -0.70620561 1.8084015 75
-3.2776306 -0.62721682 1.8115977 78
-3.0588224 -0.71872747 1.8155617 71
-2.7841969 -0.67435253 1.8189057 68
-2.6132672 -0.64771658 1.8202556 68
-2.4630418 -0.67633033 1.8156668 67
-2.3582909 -0.61691982 1.8176507 71
-2.130136 -0.72041893 1.8194339 68
-2.0158873 -0.66363329 1.8176614 71.5
-1.8582133 -0.68049502 1.8193867 68.5
-1.7239126 -0.64749748 1.8223361 67
-1.5830723 -0.64827216 1.823766 69.199997
-1.4503855 -0.6524682 1.8284169 70
-1.2756323 -0.70165795 1.8273088 86.333336
-1.1263304 -0.68454581 1.8216465 75.75
-0.96592569 -0.64199251 1.8174915 78.5
-0.81318063 -0.68557644 1.8194307 78.199997
-0.67469382 -0.67068368 1.8183137 78.083336
-0.52999324 -0.68099505 1.8168567 77
-0.40371528 -0.66812921 1.8167259 70.666664
-0.29044676 -0.71747577 1.8224617 59
-3.9816234 -0.59677595 1.812574 80
-3.8235188 -0.53840899 1.8094947 80
-3.717752 -0.52061766 1.8126204 86
-3.4865315 -0.45428646 1.807201 73
-3.3271344 -0.59924459 1.8107177 82
-3.2170906 -0.58447564 1.8102843 76
-3.0628064 -0.51858091 1.8142778 71.666664
-2.8987637 -0.53603041 1.8141356 69
-2.7264671 -0.54243958 1.8152047 73
-2.6044314 -0.57880515 1.8190929 74
-2.5188267 -0.5295583 1.8145581 71
-2.260787 -0.57253158 1.8143898 75
-2.1602252 -0.52908516 1.816662 71
-2.0461481 -0.51941484 1.8145609 73.666664
-1.8822265 -0.50643182 1.8196616 71.5
-1.7199894 -0.47673666 1.8223622 72.5
-1.592894 -0.49761295 1.8202641 74
-1.427776 -0.53627014 1.8308073 76.5
-1.256258 -0.5472331 1.819003 75.666664
-1.134809 -0.53551644 1.822939 77.5
-0.99855 -0.51877022 1.8159969 74.75
-0.80824333 -0.51925588 1.821327 67.444443
-0.67505449 -0.50622952 1.8150018 71
-0.52029461 -0.52915323 1.8214314 82.85714
-0.39202419 -0.54158407 1.8178229 72.666664
-4.302381 -0.4054451 1.8054739 5
-3.5166278 -0.41916662 1.8077011 45
-3.3445871 -0.38661733 1.8058915 56
-3.2363484 -0.32975584 1.8105582 5
-3.1497869 -0.3066155 1.8177844 79
-2.9357173 -0.37259611 1.8169779 75
-2.752295 -0.36666948 1.8144737 73.5
-2.6358297 -0.4012748 1.8181015 71.5
-2.4815876 -0.36855111 1.814762 69.5
-2.3403273 -0.39127231 1.8169507 75.5
-2.1641805 -0.33896455 1.8160547 79.333336
-2.0723379 -0.39627287 1.8088366 73
-1.8999717 -0.33329529 1.817803 78.5
-1.723774 -0.34854957 1.8223571 76
-1.5913517 -0.3307907 1.8266283 86.5
-1.4483116 -0.38828653 1.8272085 88
-1.2694652 -0.38544434 1.8201284 77.25
-1.1202084 -0.38889942 1.8208622 73.333336
-0.96017218 -0.37656894 1.8232759 64.333336
-0.80741817 -0.36476031 1.8844384 91.25
-0.67321384 -0.39136633 1.8936243 118.57143
-0.53440362 -0.38960606 1.8719676 114.14286
-0.42009413 -0.35862404 1.8198969 72
-3.0291979 -0.2902976 1.8106662 73
-2.9006507 -0.24196365 1.8139836 65
-2.7867625 -0.20503388 1.8162681 74
-2.6569319 -0.18909343 1.8139139 70.5
-2.4223051 -0.20812964 1.8140841 71.5
-2.2926521 -0.17598158 1.8355589 37.5
-2.1481388 -0.16445315 1.8148309 65
-2.0500541 -0.24955025 1.8123727 77.5
-1.9402347 -0.17787091 1.8121132 82
-1.697714 -0.19339378 1.8234863 84.333336
-1.5847075 -0.24629322 1.8209169 85.5
-1.4313027 -0.24939533 1.8273917 94.333336
-1.2464818 -0.2375737 1.8187835 75.400002
-1.1233783 -0.22253777 1.8472756 28
-0.96739906 -0.23466472 1.8200113 62.5
-0.83555132 -0.20918363 1.8851035 85.125
-0.68626338 -0.22276179 1.9122549 135.14285
-0.53758371 -0.21857405 1.9039993 136
-0.44801748 -0.23943444 1.8127536 78
-2.4931049 -0.070788406 1.8160825 42
-1.846463 -0.14566463 1.821609 78
-1.7145258 -0.035747658 1.8211478 82.333336
-1.5959042 -0.093924105 1.8238575 86.5
-1.4441109 -0.10489491 1.8247422 97
-1.2841067 -0.075408779 1.8201967 83.800003
-1.1225632 -0.096232206 1.8168348 79.666664
-0.98161727 -0.072626077 1.8217297 72.428574
-0.81408626 -0.080292121 1.8671712 74.125
-0.69177437 -0.042225588 1.839476 78.833336
-0.53993732 -0.060334317 1.8527505 106.2
-3.781424 0.046006069 1.8126038 5.5
-2.6063418 0.050151985 1.8168247 40.5
-1.825488 0.01955007 1.8225271 83
-1.7078273 0.10507013 1.8216002 77.5
-1.6004707 0.057178177 1.8240131 89.5
-1.4533068 0.038797673 1.8253659 96.333336
-1.294741 0.088189818 1.8182074 78.400002
-1.1115204 0.079511635 1.8186321 79.166664
-0.95230848 0.070661165 1.8161089 84.199997
-0.82319182 0.07510969 1.8174092 80.454544
-0.66049892 0.074101843 1.8195611 80.166664
-0.52430797 0.055766519 1.8139644 78.666664
-1.8322541 0.18933964 1.8156554 87
-1.7346916 0.23146586 1.8231734 83
-1.5997434 0.21072072 1.8224875 84
-1.4565119 0.18384087 1.8246889 92.333336
-1.2904299 0.24560188 1.8151228 77
-1.1195791 0.24670529 1.8196996 79.599998
-0.9434799 0.21527807 1.814728 80.714287
-0.80412883 0.2222897 1.8160666 78.333336
-0.68014866 0.22942004 1.8175026 76.181816
-0.51609188 0.20636982 1.8159539 82
-2.3250389 0.41109544 1.8124577 71.5
-2.106009 0.34536192 1.8086993 80
-2.0157981 0.41157919 1.8090049 82
-1.8951406 0.35653242 1.8169585 81.333336
-1.7350574 0.3950758 1.8170916 86
-1.5933633 0.3649171 1.8215667 82.5
-1.454742 0.33033904 1.8251624 91
-1.2896967 0.38457906 1.8187878 81.25
-1.0993825 0.39080536 1.8182168 73.75
-0.9635784 0.37300211 1.8164066 76.800003
-0.82912385 0.37597051 1.8132011 78.85714
-0.67696798 0.38200191 1.8169804 75.5
-0.53384012 0.38155016 1.8180817 77.833336
-2.4316957 0.55855626 1.8120261 9
-2.2953408 0.59737992 1.8074681 79
-2.2144103 0.5166952 1.8111899 84.5
-2.0078855 0.59092158 1.8106142 83
-1.889932 0.53126973 1.8145231 84.666664
-1.7395532 0.54257762 1.8170656 86
-1.5822179 0.52125967 1.8217362 84
-1.4468513 0.47828612 1.8241483 88.333336
-1.2836297 0.52647769 1.8231113 94.75
-1.0987827 0.52451652 1.8170658 76
-0.97017384 0.51967102 1.8157729 73.666664
-0.8126297 0.53257626 1.8132766 75
-0.67733932 0.51756299 1.8145045 74.375
-0.49711761 0.54540414 1.8141292 80.199997
-2.4414637 0.6576851 1.8053879 3
-2.3630493 0.62967217 1.8065621 75
-2.2185867 0.68566203 1.8378628 29
-2.090482 0.72898793 1.8076574 71
-1.8723804 0.68166745 1.8124226 87.5
-1.753273 0.63412833 1.8174778 89.5
-1.563319 0.67823815 1.8182626 84.5
-1.4324894 0.62770647 1.8222133 86.333336
-1.2689065 0.66969264 1.8223665 90
-1.1138911 0.68726873 1.8514969 27.5
-0.99758655 0.68322986 1.8145286 67.5
-0.82967365 0.67605567 1.8160793 72.888885
-0.67010385 0.66839981 1.8141906 72.375
-0.53970945 0.67078316 1.8127558 76.199997
-0.43753231 0.67863721 1.8161625 78
-2.4367602 0.88197696 1.8040756 86
-2.3330483 0.82362866 1.8069094 75.5
-2.2402952 0.75803608 1.8109399 75
-1.9933889 0.77339298 1.8093401 84
-1.867998 0.82694608 1.8104676 86.666664
-1.7274126 0.79437208 1.817627 86.666664
-1.5843335 0.8176831 1.8137006 87
-1.4329305 0.79895663 1.819278 83
-1.2735 0.83218741 1.8228248 89.333336
-1.108686 0.79793668 1.8215843 90.333336
-0.95350015 0.84799576 1.8156809 82
-0.81007755 0.83036983 1.8117627 70.5
-0.67191643 0.82918704 1.8146131 73.199997
-0.54748142 0.82632619 1.8171043 72
-0.41059455 0.8212111 1.8166902 73
-2.4727268 0.95181131 1.8089119 84.5
-2.3014386 1.0135283 1.8040942 81
-2.2451904 0.95999646 1.8071376 76
-2.0256157 0.94473052 1.8096093 75.5
-1.8721881 0.97426319 1.8085197 85
-1.7077452 0.97010183 1.8092356 83.333336
-1.5582078 0.98748487 1.8164243 79
-1.397935 0.97320718 1.8177309 84.599998
-1.2461598 0.98345995 1.818388 87.666664
-1.1433494 0.91461289 1.8222769 86
-0.97655106 0.96443671 1.8207819 88.800003
-0.8142699 0.9832443 1.8158541 84.75
-0.65549386 0.96559715 1.8120606 74.599998
-0.52283365 0.97110403 1.8164387 76.5
-0.37900305 0.98730755 1.8145472 66.333336
-2.9104011 1.1967018 1.8036257 72
-2.8075674 1.146997 1.8021278 71.5
-2.651547 1.1545191 1.8014148 72
-2.4784377 1.1415666 1.807723 83
-2.3762236 1.120966 1.8055518 77.5
-2.2025328 1.1377536 1.8031107 74.5
-2.0003364 1.1413648 1.8062356 73.5
-1.8497959 1.1650807 1.8128647 78
-1.7523131 1.1073279 1.8088045 83.5
-1.5687916 1.1451457 1.8099675 77
-1.3967099 1.1634626 1.8135123 84.5
-1.2696209 1.0996016 1.8149147 84.666664
-1.1278565 1.1265408 1.8180938 84.5
-0.9535318 1.1035627 1.8200424 81.75
-0.83420271 1.1096396 1.8190637 83
-0.66480064 1.1042702 1.8176473 82.800003
-0.52371055 1.1207924 1.8203797 83.333336
-0.35469708 1.0969567 1.8221633 82.25
-0.27496487 1.1663086 1.823012 76.5
-3.1237948 1.2557418 1.8052119 82
-2.9732683 1.2412244 1.8058813 83
-2.3266156 1.2681592 1.8051063 77.5
-2.1328371 1.3281629 1.8013116 81
-2.0224917 1.341872 1.8031706 65
-1.9178307 1.3494473 1.8052698 77
-1.735541 1.2716222 1.81076 79.666664
-1.5753392 1.3230466 1.8084158 80
-1.4289532 1.3396806 1.8085568 81
-1.2895608 1.2683787 1.8116859 83
-1.1264282 1.2161689 1.8139236 78.5
-0.93742174 1.2637297 1.8152701 76.333336
-0.81522989 1.2639815 1.8156065 76.333336
-0.66568619 1.2262928 1.8158629 77
-0.53370458 1.2801694 1.8160034 77.5
-0.39189118 1.2644579 1.8194669 75
-0.24719517 1.2890801 1.822471 68
-3.416965 1.4864895 1.8051687 83.5
-2.4601207 1.3791338 1.8047817 74
-2.3067541 1.4242727 1.807541 77.333336
-1.8136568 1.3559012 1.8052076 79.5
-1.7284951 1.4466963 1.8078582 82.5
-1.2642829 1.4151121 1.8078671 80.333336
-1.1281028 1.3741801 1.8106108 79.5
-0.99950057 1.3532746 1.8142 76
-0.82942104 1.3679509 1.8125802 71.5
-0.6737023 1.3899817 1.8107868 75
-0.48982775 1.3737807 1.8156642 70
-0.37443811 1.412184 1.8149226 68.400002
-0.21769443 1.4215528 1.8191601 71.285713
-0.10835411 1.467539 1.8163537 68
-4.2590799 1.6334909 1.8031023 73
-4.1459746 1.6216024 1.8016165 73
-3.8270066 1.5664675 1.804448 73
-3.675113 1.5257287 1.800455 84
-3.5437984 1.5239809 1.8017708 65
-3.3266633 1.5722231 1.8059155 82
-3.1235814 1.5348665 1.8030201 82
-2.9331243 1.5022328 1.80068 93
-2.3357656 1.5395073 1.8020169 71
-2.1014085 1.5651273 1.8036081 76
-1.718052 1.5409095 1.8031114 81.5
-1.5244224 1.5204401 1.8076626 76
-1.4275194 1.5239218 1.8123988 69
-1.3328691 1.517143 1.8095433 76
-0.32769558 1.5530186 1.8128887 75.400002
-0.20988785 1.5930805 1.8150587 73.5
-0.053337827 1.5689002 1.8180448 75.5
-4.4603028 1.6774272 1.803835 72
-3.4550366 1.7980936 1.8037952 37
-2.9345584 1.7825021 1.8053414 39
-2.2969234 1.757682 1.8016543 32.5
-1.8905659 1.7838396 1.8041128 34
-1.7191377 1.7452091 1.8046819 37
-1.6293098 1.7318592 1.8027664 33
-1.4653791 1.7270802 1.8108979 37
-0.32603171 1.7056178 1.8090553 72.5
-0.20693898 1.7291403 1.8089129 71.5
-0.075030841 1.719631 1.8113147 73.571426
0.054282457 1.7305754 1.8152944 70
-3.9213023 1.9231442 1.8021165 67
-3.8379462 1.9008671 1.8034877 57
-3.707566 1.8652576 1.8031379 52
-3.1244385 1.8320377 1.8031014 43
-1.6522563 1.9254844 1.8060247 77
-1.6400018 1.8316706 1.8037893 70
-0.23753762 1.8629105 1.8051682 63.5
-0.064239196 1.8919808 1.8121424 64.833336
0.098017313 1.844444 1.8129114 64.599998
0.21242106 1.9058021 1.8159208 63
-4.3085437 2.0267956 1.8021516 67
-2.9333606 2.0818121 1.8087682 85
-2.0075276 2.0726478 1.8017453 70
-1.7126096 1.9962449 1.8070326 75.666664
-1.5892359 1.9600536 1.8020064 75
-0.31863394 1.9614239 1.8046345 67
-0.088114388 2.0117719 1.8076442 62.200001
0.066876903 2.0244792 1.8103923 68.428574
0.25511888 2.0276296 1.8132811 63.200001
0.34458882 2.0469894 1.8127941 61
-3.476444 2.1327937 1.8033706 75
-3.3369403 2.2383163 1.802545 69
-3.072907 2.1470551 1.8041948 76.5
-1.7249109 2.2426217 1.8046979 69
-0.30494559 2.2383685 1.8052775 56
-0.19483975 2.1086586 1.8056253 60
-0.020518918 2.1771836 1.8093039 57
0.12537169 2.1811113 1.8073639 62.200001
0.22002852 2.1867495 1.8064914 65
0.38914138 2.1449304 1.8129784 63.400002
0.49559027 2.2042572 1.8148251 63
-3.9478078 2.2953854 1.8065666 70
-3.5775323 2.3297 1.8005394 71
-2.8958473 2.3160625 1.8011705 71
-0.3221094 2.3058364 1.8012921 58
-0.2514061 2.3461235 1.8101676 54.5
-0.056459386 2.2541804 1.8035733 60
0.11915718 2.320842 1.8112327 57
0.26422182 2.325839 1.8113821 66.599998
0.37067476 2.3238363 1.8118943 66
0.55967826 2.3109677 1.8146547 62.25
0.6710608 2.3483007 1.8140367 59
-4.3700647 2.4496372 1.8001891 65
-3.5037429 2.5014384 1.8052047 64
-3.1265244 2.504529 1.8073403 67
-2.9222021 2.4002445 1.8076011 67
-0.32036874 2.5327234 1.8099324 52
-0.21778899 2.4434755 1.810222 55.75
-0.121309 2.5234439 1.8065178 56
0.098121151 2.4073067 1.8088499 64
0.2742458 2.4637945 1.8095683 53
0.41671705 2.467766 1.8089466 58.799999
0.49214596 2.5246644 1.8080887 60
0.71517795 2.4159553 1.8100208 54
0.80148286 2.4529383 1.8101988 59.799999
-4.6708455 2.5546205 1.8001498 62
-3.9732158 2.6983163 1.8022681 62
-3.3403172 2.6154952 1.8032507 64
-0.073238879 2.6272421 1.8082057 58.25
0.26786929 2.5536044 1.8062371 55
0.52478731 2.614646 1.8125124 52
0.65273327 2.6721807 1.8038758 59
-4.0504646 2.7309244 1.8016995 64
-3.8023205 2.7016885 1.8004719 60
-3.5968795 2.7455623 1.8024758 67
-2.9114659 2.7507091 1.8078233 64
-2.2268274 2.7873282 1.8015524 73
-0.18557274 2.7700958 1.8051674 53
0.055980109 2.7656515 1.8048217 58.400002
0.67941517 2.7750149 1.8030754 58.666668
0.80126739 2.7812583 1.8064437 33
-4.4538188 2.9312115 1.8044246 58
-3.5345225 2.9100404 1.8075598 63
-3.1136734 2.8789043 1.8017446 63
0.067343995 2.8903551 1.8023925 60.5
0.21420783 2.9241645 1.8032908 61.333332
-3.3469234 3.0356839 1.8066341 66
-2.8979843 3.1413114 1.8093168 66
-0.01645248 3.0293982 1.8030132 60
0.33910966 3.0713799 1.8015624 55.333332
-4.127635 3.2365184 1.8036969 59
-3.6105764 3.2055371 1.8026341 61
0.19649874 3.2518632 1.8047148 54
0.39645696 3.2319822 1.8052372 52
0.45738548 3.1565635 1.8050462 47
-3.562274 3.3625805 1.8038946 59
-3.1068149 3.3033514 1.802416 63
-0.3209368 3.3585391 1.8076335 64
0.41998821 3.3516805 1.8069698 48
-2.8724122 3.5690434 1.8041593 62
-0.35859132 3.5158758 1.8090392 55
0.445768 3.525075 1.8321484 16
-0.14578842 3.6611574 1.8093225 55
-3.5940869 3.8800635 1.8000907 60
-0.1535417 3.8179963 1.8064648 54
-3.3357818 4.0224338 1.8015558 65
-0.15748726 3.9911056 1.8099927 56
0.071799174 3.9786837 1.8101369 56
-0.17115431 4.172823 1.8074061 60
0.08506982 4.1519971 1.8053869 56
0.10339828 4.3385615 1.8051995 57
0.11882125 4.5723276 1.8142656 26
-4.7580986 4.805491 1.8002881 29
-3.6954763 5.228621 1.8031594 30
-0.60239899 -0.20715837 1.977461 150
-0.61735266 -0.11215546 1.9509515 151
