# .PCD v0.7 - Point Cloud Data file format
VERSION 0.7
FIELDS x y z intensity
SIZE 4 4 4 4
TYPE F F F F
COUNT 1 1 1 1
WIDTH 37
HEIGHT 1
VIEWPOINT 0 0 0 1 0 0 0
POINTS 37
DATA ascii
-0.096946687 2.3437951 -0.81523234 3.6666667
0.15041892 2.3987179 -0.83615029 3
-0.095671713 2.4372995 -0.82762474 4.6666665
0.20888759 2.4469445 -0.83485764 4
-0.043304104 2.5662978 -0.83220816 5
0.0098063173 2.8942957 -0.84945089 9
0.098723307 3.1005826 -0.85030377 10
0.14705141 3.1877244 -0.84391099 10
-0.11718197 3.3509717 -0.83873558 8
0.1487271 3.3748059 -0.84671146 10
0.18992357 3.3071058 -0.84552425 10
0.14644523 3.5579245 -0.84454918 8
0.27981651 3.4756303 -0.8393597 1
-0.0096863089 3.6820722 -0.78007406 5
0.017347943 3.6812601 -0.79232275 4.5
-0.10608362 3.867152 -0.85339963 5
-0.0028087676 4.1888051 -0.85675853 0
0.045720618 4.7697983 -0.86466104 1
0.008136821 6.3251648 -0.78307813 28
-0.29156804 1.7842751 -0.63173735 3
0.16633712 2.0786707 -0.71698308 3
-0.26342553 2.177074 -0.694839 3
0.02129529 2.1837547 -0.70864081 3
-0.22966504 2.3088136 -0.70915461 8.25
-0.20690057 3.6849818 -0.654845 51
-0.14255032 -3.1810756 -0.47394222 32
0.91796094 1.0381964 -0.48160386 66
-0.30618888 1.4271587 -0.45380637 2
-0.28505233 1.9353108 -0.45015389 2
-0.27285612 2.0867958 -0.48388171 2
-0.26073432 2.1822748 -0.51645261 0
-0.1736971 -3.175704 -0.42471993 34
-0.22660263 -1.5235839 -0.40984249 1.3333334
0.89374858 0.82136863 -0.41442162 13
-0.41660541 1.418061 -0.40438229 18
-0.16596135 2.2204602 -0.40973383 5
-0.023141492 6.2899971 -0.42881665 38
