# .PCD v0.7 - Point Cloud Data file format
VERSION 0.7
FIELDS x y z intensity
SIZE 4 4 4 4
TYPE F F F F
COUNT 1 1 1 1
WIDTH 1131
HEIGHT 1
VIEWPOINT 0 0 0 1 0 0 0
POINTS 1131
DATA ascii
-0.39875522 -1.0643289 -0.17698136 5.5
-0.34351647 -0.98200005 -0.16328497 7
-0.051647067 -0.95838428 -0.18545005 7
0.17972218 -0.94251877 -0.17235991 10.875
-0.23320812 -0.86900443 -0.17394945 9.8888893
-0.12909919 -0.89325279 -0.1709321 9
0.25403211 -0.82592171 -0.17378533 10.166667
0.30215406 -0.75228053 -0.18965387 9
-0.49505877 -0.69063377 -0.1934154 2.5
-0.42977288 -0.69213599 -0.18555622 2.5
0.35309163 -0.67618132 -0.17418414 16.083334
-0.55975813 -0.46660259 -0.16273357 1
0.42443469 -0.56569958 -0.16981861 13
0.48383588 -0.47464734 -0.1703383 16.200001
0.54882455 -0.37677273 -0.17182736 15.583333
0.65039968 -0.21628074 -0.17396064 10.823529
0.72281861 -0.094020523 -0.17206781 10.375
0.77601022 -0.022987142 -0.16890536 11.833333
0.85114288 0.072333045 -0.16631941 9.1428576
0.85798454 0.24746676 -0.1651205 9
0.92970258 0.20686133 -0.18054365 6.6666665
0.5993467 0.44626445 -0.16252196 11
0.66589457 0.3995209 -0.18164539 10.166667
0.7720964 0.32269716 -0.17223229 10.5
0.14394075 0.58072877 -0.16354027 0
0.20388733 0.5428322 -0.17221884 0
0.33341703 0.56036812 -0.18577395 1
0.5677802 0.49405989 -0.17753406 10.833333
0.055625357 0.68942201 -0.18319878 0
0.15220813 0.69885933 -0.18811353 6
0.40175527 0.60662299 -0.19923574 2
0.48303723 0.60363334 -0.1968161 0
0.66704726 0.67425334 -0.17780632 5
-0.061467186 0.98730028 -0.17961226 4.5
-0.0038012445 1.0778278 -0.15261744 5
0.076014176 1.1920254 -0.19185597 5
0.12613648 1.2260426 -0.16808952 17.5
-0.32615259 1.4687653 -0.16594973 10
-0.2519401 1.4254414 -0.16433066 12.333333
-0.78981286 1.5278606 -0.1769242 61.799999
-0.70926958 1.6432253 -0.17859389 62.666668
-0.51638305 1.5874572 -0.17673352 52.200001
-0.42198047 1.5348402 -0.16212034 16
-0.68307793 1.6871799 -0.17623129 55
-0.33203703 -0.96104819 -0.1157141 8.833333
-0.065486401 -0.95866102 -0.037773401 7.5294118
0.078509592 -1.0099695 -0.10135857 6.6999998
0.16360189 -0.95758533 -0.070179388 8
-0.33047 -0.80315453 -0.078298993 6.75
-0.24792987 -0.83806938 -0.11534838 9.5
-0.12816128 -0.88576674 -0.064044811 8
0.24647436 -0.82930708 -0.072890021 11.521739
-0.46248561 -0.62148249 -0.004880731 3
-0.40444854 -0.67557144 -0.063088484 2.2222223
0.29656875 -0.74315351 -0.022173857 10
0.35333419 -0.66917646 -0.066122532 13.551724
-0.65991962 -0.49554691 -0.059839141 2.7586207
-0.57640016 -0.53120303 -0.034925606 2.25
0.42569992 -0.55774468 -0.076750554 15.047619
0.47306979 -0.48504233 -0.066021964 14.041667
-0.68329239 -0.42817941 -0.053744171 1
0.54450214 -0.37557614 -0.077635802 13.314815
0.6396693 -0.22902785 -0.10185773 11.333333
0.71538079 -0.10218 -0.10428378 10.25
0.78281289 -0.022102376 -0.10163752 9
0.84710157 0.076340102 -0.10157222 9.1499996
0.86623728 0.23686786 -0.093649819 8.5
0.93898946 0.23550539 -0.089145914 8.5263157
0.59707236 0.44198418 -0.091780171 12.6
0.67748863 0.38914955 -0.10501412 9.125
0.78558671 0.33891451 -0.086751834 9.7777777
0.94162548 0.3226335 -0.0066780197 8
0.12299514 0.57363832 -0.12054987 0
0.28153276 0.58621693 -0.047237437 2.1666667
0.35456586 0.54345757 -0.061241619 1.7058823
0.54392248 0.50234032 -0.095116906 8.5789471
-0.0031548815 0.7165482 -0.028727913 0
0.088660009 0.7058441 -0.070652694 3.1851852
0.21028304 0.62663531 -0.032197282 2.1818182
0.55866694 0.6281023 -0.098946311 1.5
0.63153833 0.63501769 -0.10804087 4.3333335
-0.018596608 0.86434573 -0.11456183 9
0.01692245 0.84473598 -0.11224853 8.6000004
-0.063969642 0.95326877 -0.076515138 10.666667
0.094973549 0.95806348 -0.12435526 1.6
0.083439603 1.0995196 -0.12756065 4
-0.081086569 1.3176035 -0.034771848 13
-0.85866785 1.420722 -0.14565375 51
-0.33940196 1.4861122 -0.075865746 12.5
-0.21689495 1.4104754 -0.095046751 13.2
-0.12039994 1.3516138 -0.0115732 13
-0.79029065 1.5266999 -0.14134549 34
-0.54466683 1.6058587 -0.081042096 65.14286
-0.41705585 1.5300522 -0.045113306 25.166666
-0.6379711 1.6625978 -0.041658618 44
-0.75209582 2.0125997 -0.025460709 2
-0.74956471 1.9880542 -0.091423728 2
-0.94490147 2.1492589 -0.036786608 2
-0.89115793 2.1047652 -0.067237206 2
-0.21602932 -1.0957668 0.11988831 8.8000002
-0.31798652 -0.95640874 0.1268677 5.3333335
-0.20996314 -1.00579 0.085741371 8.6153851
-0.085563943 -0.94848031 0.084518157 8.4444447
0.088878699 -1.0027661 0.085920177 1.6666666
0.17250857 -0.9234916 0.012804608 8.5
-0.32823694 -0.87459415 0.10070043 0
0.23113494 -0.85007012 0.013860689 14.25
0.36820298 -0.75545126 0.13361377 9
-0.46843362 -0.60704577 0.07425423 2.5999999
-0.39162245 -0.64458382 0.064781517 2.5599999
0.2868979 -0.74649245 0.0097821904 9
0.37882671 -0.67163026 0.084654696 8.782609
0.47916907 -0.65404558 0.13667333 0
-0.64752531 -0.47963151 0.047243793 2.5217392
-0.52591717 -0.53669751 0.09829092 2.3714285
-0.40166625 -0.58113319 0.13395366 1
0.4166705 -0.54899418 0.026632017 6.3333335
0.46934742 -0.48519874 0.016388394 10
-0.68365544 -0.43720961 0.08999607 2
-0.57439446 -0.44420105 0.14447117 0
0.49751306 -0.43294251 0.0092118634 10
-0.9271735 0.090573654 0.050504021 0
-0.88464355 0.14416137 0.0263268 0
-0.96643376 0.20321782 0.13375944 0
1.0614661 0.2794472 0.081571661 3
-0.97368765 0.31606129 0.10836592 1.6666666
0.99548143 0.34988865 0.017016077 3
0.10429535 0.58775377 0.14674263 0
0.24535361 0.57860911 0.072324365 1.4666667
0.33875987 0.53364158 0.030154526 1.2777778
-0.016309533 0.71736836 0.042602502 0
0.082376413 0.66526681 0.090282366 2.1568627
0.18331416 0.62100524 0.073493205 1.7083334
0.85195345 0.6741631 0.060288932 5.6666665
-0.025567789 0.75372696 0.076919012 0
0.89302248 0.85984164 0.10633453 7
0.93408012 0.82809621 0.12533288 5.8000002
-0.04130441 0.98788941 0.037951369 10.75
0.051718991 1.1830628 0.0049033416 4
-0.05595541 1.3182701 0.10912758 12.6
-0.31149122 1.4754801 0.14620078 12
-0.22116046 1.4130446 0.092623092 11.166667
-0.12145162 1.3571699 0.085330062 14
0.11924104 1.3686299 0.075377338 51
0.18389325 1.4782256 0.11918055 30
-0.51875502 1.5942525 0.090667389 63.5
-0.44405574 1.553247 0.057386603 14
-0.6355986 1.6618334 0.079450145 56.333332
-0.80849326 2.0660994 0.058402546 2
-0.74099869 1.994495 0.040060487 2
-0.91960412 2.1333652 0.036741249 2
-1.202111 2.3301942 0.043952491 1
-1.1488848 2.2912765 0.035739336 1.6
-1.4388783 2.4681892 0.089221619 25
-0.221736 -1.1019006 0.17076434 8
0.39796257 -1.0645062 0.2205627 4
-0.32090789 -0.99798745 0.214706 0
-0.28328094 -0.98753369 0.16376153 6.5
-0.098038204 -0.94004476 0.1793514 5.8571429
0.42216346 -0.99416983 0.21190841 2.5
0.46604303 -0.93236655 0.24957898 2
0.36717686 -0.7702204 0.20968401 4.4000001
-0.33372855 -0.62311697 0.159502 0
0.37270671 -0.69890457 0.18045752 7.5999999
-0.54475313 -0.50082898 0.15189958 2
-0.41331074 -0.57958591 0.15665457 1.5
-1.1431934 -0.018139794 0.26145577 1
-1.0816354 0.12381762 0.24671273 0
-1.0573694 0.18722017 0.23172081 0
-1.0387753 0.22973485 0.23735695 0
1.1230249 0.26258779 0.16292673 19
-1.0026693 0.36553776 0.21281594 3
1.276715 0.44858593 0.16138017 1
0.11585969 0.59462678 0.16110297 0.66666669
1.432245 0.53470367 0.24828658 28
0.092843272 0.68131077 0.24026132 0.40909091
1.4440218 0.67421669 0.25278348 57
1.5172017 0.67434138 0.27931112 48
0.8987605 0.83605236 0.21284479 4
0.93882084 0.82055932 0.21041228 5.3333335
1.3186629 0.81886804 0.28554669 32.5
1.3824846 0.81323338 0.23096615 62.333332
1.4192295 0.96297705 0.2631833 1.5
-0.057700135 1.3142765 0.21021524 11
-0.3455168 1.4919755 0.21437919 38
-0.22553305 1.4182025 0.24328507 19.142857
-0.12008304 1.355718 0.21380784 11.333333
0.118155 1.389529 0.2362875 25.5
-0.51504499 1.591742 0.21065107 62.25
-0.40262473 1.5237808 0.27109012 67
0.26160365 1.6160327 0.17553848 3
-0.63625515 1.6652429 0.22330017 38.400002
0.36923632 -1.5577865 0.3559607 1
0.2474872 -1.2068074 0.43211013 9
0.50622511 -1.3332986 0.36196226 1
0.27475917 -1.1601928 0.39012408 8.333333
0.31516823 -1.1027423 0.34097147 7
0.39760983 -0.98131466 0.39376968 4.5384617
0.45789242 -0.94019634 0.3362771 1.3333334
0.91430813 -0.92101234 0.39005423 1
0.39102632 -0.79742879 0.30603617 3
-1.2035472 -0.004898238 0.33920094 4.5
-1.2174503 0.033318717 0.37423566 3.3333333
-1.1370901 0.095966101 0.38338742 1.3
-1.0704474 0.19282173 0.3937993 0
-1.0414988 0.26342398 0.36292851 0
-1.0665672 0.36624703 0.39675653 1.3333334
-1.0387545 0.36181414 0.42656928 3
1.4352032 0.56071031 0.32123554 45
1.4083383 0.67292178 0.3492077 51
0.96537405 0.80104083 0.31380248 6
1.3356493 0.81142426 0.34829578 50.5
1.3885423 0.94171786 0.35164711 78.666664
-0.036431629 1.3047361 0.37967429 11.571428
0.048874006 1.3088845 0.38844848 16.25
-0.34999096 1.4942174 0.42591697 63
-0.22584471 1.4215454 0.37630913 18.375
-0.12502265 1.3586588 0.30691507 12.5
0.086908132 1.3584598 0.3807959 23
-0.60314947 1.6466678 0.3286953 64
-0.5204246 1.601416 0.37416747 62.166668
-0.35749573 1.5032351 0.37490341 64.5
0.22096767 1.5738468 0.41940108 20.75
0.29103076 1.6757571 0.3852725 22
0.2018372 -1.2672457 0.52515215 26.416666
0.31929126 -1.0850706 0.54533058 8.875
0.36332145 -1.0217774 0.48965687 10.142858
-1.1526762 0.09203472 0.486572 1.5
-1.0786015 0.22795908 0.48004088 0
-1.0399436 0.35180303 0.46951604 0
-0.053870182 1.3139777 0.5162524 45.125
0.053208183 1.3140898 0.46371198 24
1.8698523 1.2561781 0.47325116 73
-0.33465117 1.4897046 0.49289471 62
-0.23200035 1.4252508 0.51814187 57
-0.13904171 1.3712972 0.53240716 44.333332
0.14015542 1.4514045 0.49176347 22
-0.5220629 1.60339 0.50749457 58.25
-0.39561301 1.5262814 0.55633497 56.75
0.226908 1.5930548 0.53274262 12
-0.63992834 1.6693921 0.51134086 40.666668
-0.08820086 -1.6881075 0.713413 30.666666
-0.034670312 -1.619107 0.6637162 24
0.10787325 -1.3810147 0.69615704 23.799999
0.1372899 -1.3434786 0.61698264 28.666666
0.15602686 -1.3247811 0.66857934 54
0.26452994 -1.1552027 0.66577041 30.799999
0.30851096 -1.0748284 0.7244271 44.5
0.34836942 -1.015111 0.63517547 49
-1.0730258 0.11657611 0.7289027 5
-1.0812345 0.215131 0.66824043 7.1111112
-1.0397623 0.17440796 0.71371317 6.5
-0.033118863 1.3079194 0.68955928 41
0.035774663 1.3177917 0.67873204 14
1.9082122 1.3119535 0.6577462 23.5
-0.3121573 1.478685 0.6922456 49.5
-0.19943912 1.4078321 0.68556029 53.5
-0.12271053 1.35902 0.63160551 57.5
0.088366285 1.3956636 0.70355272 17.5
1.9465744 1.3842896 0.67027164 21
1.9567144 1.3931533 0.68988752 24
-0.51202309 1.5990756 0.6759426 53.400002
-0.41259441 1.5377082 0.6451804 59.333332
0.23861445 1.6243039 0.74400985 19
-0.1740018 -1.8050596 0.88115042 29
-0.16925631 -1.7941811 0.87040472 26
-0.11544047 -1.7218379 0.77821469 31
-0.064617679 -1.6469599 0.77950919 8
0.022299718 -1.5000874 0.84777188 2
0.072956994 -1.4308153 0.81488496 16
0.13274668 -1.3456758 0.75155091 56
0.20221335 -1.2390857 0.82559431 44.111111
0.27120137 -1.1228367 0.81209481 52.285713
-1.2067955 0.12668829 0.79276752 0
-1.1202129 0.079413518 0.77435541 0
-1.030558 0.082211994 0.7810601 1.5
-1.0545764 0.29699594 0.8398509 2
-1.0083811 0.208565 0.78574193 1.25
-1.1107413 0.3106167 0.79288244 0
-1.0185415 0.30829948 0.84350705 0
-0.041673496 1.3130918 0.82178146 42.5
0.0154767 1.3024614 0.80384576 12
-0.23545878 1.4295037 0.8142001 50.285713
-0.14471792 1.3787668 0.8821286 44
0.093713403 1.4128218 0.82462847 19
-0.55158722 1.6226485 0.8290298 52.75
-0.38284341 1.5226719 0.85044169 46.25
0.20166256 1.5811864 0.84392715 17.5
-0.65854079 1.690828 0.79699594 35.666668
0.24388255 1.6528454 0.85797596 16.5
-2.8819561 -2.3157241 0.99372661 9
-0.20625205 -1.8463067 0.95031029 27
-0.13766062 -1.7478284 0.93342519 13
-0.0066726385 -1.5360333 1.049731 19
0.0091217477 -1.5115465 0.93396825 3
0.061983202 -1.4384321 0.9844715 36
0.13722754 -1.3139583 0.98298073 40.200001
0.18483746 -1.2456493 0.99140799 45.57143
0.23758826 -1.1682826 0.94912744 45.75
-0.065091528 1.3241061 0.95570695 45.57143
0.049263012 1.3472186 0.93697584 19
-0.32076758 1.4799757 0.94497031 44.666668
-0.22035748 1.4230933 1.0088283 40
-0.12969992 1.3664621 0.96680367 47
0.083363935 1.4094315 1.0467846 15
-0.4969213 1.5936869 0.9860363 41.666668
-0.39792818 1.5298954 1.0356389 44.5
0.21066435 1.6019335 0.9458375 19
-0.65735054 1.6892189 0.98005408 41.666668
0.26335454 1.6890262 0.97177416 17.5
0.33391786 1.802814 1.025995 19
0.43976128 1.9662352 1.0184706 4
-3.6473944 7.4178696 1.0367044 60
-2.9342837 -2.2586658 1.1512296 37.5
-2.8087423 -2.3449271 1.1661466 39.666668
-3.0967145 -2.1645188 1.1122948 42.5
-0.30595672 -1.9891285 1.1636256 1
-0.2919485 -1.9621688 1.1608324 21.5
-0.25864941 -1.9159893 1.0863377 23.25
-0.041670859 -1.5808151 1.1363463 16.5
0.091514133 -1.3784809 1.1379467 37
0.12858748 -1.3146466 1.1393362 38.400002
0.18074726 -1.23713 1.1264769 46.833332
-0.043598223 1.3179972 1.1309282 25
0.0059331777 1.3022785 1.0709746 9
-0.21869178 1.4259205 1.144779 40.200001
-0.12977651 1.3647068 1.0651275 46
0.10370103 1.4591036 1.159569 16
-0.56952804 1.6424031 1.1863112 36
-0.39211273 1.532012 1.1155431 39.5
0.20533444 1.6039556 1.0957546 17
-0.63535607 1.68565 1.1607125 36.5
0.41401076 1.9270091 1.1145635 12
-3.9907241 6.8973498 1.127471 74
-3.986331 6.902627 1.1357551 73
-3.6427341 7.4440818 1.1147795 65
-3.2601733 8.0608501 1.1538967 49.5
-3.2090442 8.1268568 1.0934546 29
-2.8678772 -2.3023672 1.3068478 40.5
-2.7846501 -2.3584454 1.2007324 36
-3.0321052 -2.2049224 1.2978917 42.333332
-2.9933162 -2.2176952 1.3287784 39
-3.3422537 -2.0120907 1.2424135 32
-0.32089898 -2.0029635 1.3392218 12
-0.076375611 -1.6227701 1.276758 19.5
0.063669227 -1.4055619 1.2584035 39.875
0.1340469 -1.2982911 1.3001617 35
0.16474323 -1.2493207 1.2657431 39
-0.046884213 1.3176157 1.253574 30.857143
0.020132642 1.3307542 1.2327187 15
-0.21775724 1.4255199 1.2553095 41.5
-0.12375829 1.3696971 1.3076043 40.5
0.076701425 1.423692 1.235425 14.4
-0.5027191 1.6005729 1.261554 40
-0.41482317 1.5524502 1.3317215 33.5
0.15197735 1.5506712 1.2973545 15
0.25245157 1.6989512 1.28468 16.333334
-4.310606 6.4447541 1.3392894 79
-4.3083396 6.4505248 1.3483739 82
-3.9682291 6.9576569 1.2959574 65
-3.6332753 7.4728723 1.2507836 61.5
-3.545264 7.6122365 1.3147907 54.5
-3.4923387 7.6849661 1.2497452 49
-3.1862378 8.1820478 1.3077259 50
-2.8796806 -2.2972732 1.364583 40
-2.8327806 -2.3303387 1.4342587 21
-3.1091268 -2.1555841 1.4671875 40
-2.953593 -2.2488906 1.4327983 39
-3.3882256 -1.9870521 1.4358848 24.333334
-3.2343943 -2.0777493 1.4767274 10
-3.608335 -1.8444388 1.3821001 21.5
-0.14813817 -1.7301677 1.4362093 12
-0.025934849 -1.5305052 1.4044091 32.5
0.049184553 -1.4128088 1.4043437 33.285713
0.12259366 -1.304758 1.4410444 38.666668
0.15987439 -1.2495863 1.3793671 52
-0.059661862 1.3250701 1.3815765 34
-0.30208057 1.482255 1.4974291 40
-0.24381526 1.4452194 1.4264908 38.166668
-0.1311073 1.3722857 1.4259684 42.25
0.051987749 1.4039118 1.3860531 14
-0.56245887 1.6374999 1.4244292 37
-0.34438759 1.5055432 1.3574526 36
0.14239432 1.5319028 1.36294 15
0.18534918 1.6123854 1.4169365 15
-0.65083742 1.7010299 1.4266793 38.333332
0.27144152 1.7418674 1.4121252 17.333334
-4.5016971 5.8524852 1.4992316 35
-4.0221958 6.1179781 1.4980258 22
-4.1938791 6.3802848 1.4992365 37
-4.2642975 6.4635229 1.4843689 54
-3.6358454 6.6597781 1.4920435 22
-3.9308712 6.9498959 1.4509506 49.666668
-3.8455524 6.9185605 1.4892033 27
-3.7330201 6.9219317 1.4951661 24
-3.8262486 7.1511912 1.4667096 44
-2.8277075 7.3414264 1.4987341 22
-3.4544966 7.4208393 1.4890718 24
-3.606648 7.5576339 1.424119 48
-3.5632095 7.5872946 1.4005222 60
-2.7136805 7.7310867 1.4795357 20
-2.6298749 7.8957877 1.4835227 23
-2.375931 7.8445473 1.4811115 22
-3.077086 7.9690652 1.4564325 24
-2.5565186 8.0668411 1.4950278 25
-2.496444 8.2580585 1.491738 24
-2.7318466 8.7083111 1.4376854 14
-3.1875205 -2.1097422 1.5895154 2
-3.0609269 -2.1886606 1.5549734 41
-2.9694171 -2.2391524 1.5392642 40
-0.44119424 -2.1695848 1.6151934 5
-3.3452706 -2.0243046 1.6155643 20
-3.6129847 -1.863573 1.6124849 17
-3.5166113 -1.9214965 1.6125332 17
-3.9278593 -1.6698968 1.5480762 14
-3.6943946 -1.7973506 1.5853084 16.5
-0.13170901 -1.6898656 1.5988908 27
-0.044543058 -1.5508165 1.5975521 30
-0.012893963 -1.4932047 1.5698785 29
0.034356903 -1.4301456 1.5248839 30.666666
0.10147437 -1.3208293 1.5885588 41.333332
-0.065576822 1.3316176 1.5776556 38
0.0023462295 1.3355511 1.5009735 15
-0.31461862 1.4940418 1.60829 45
-0.21071386 1.4254919 1.5966161 41.666668
-0.12166288 1.3677092 1.5610434 37.666668
0.087628558 1.471397 1.5513254 15
-0.52509481 1.6294274 1.5582588 36
-0.37970668 1.5357358 1.5838825 39
-0.65173316 1.7025483 1.5731367 40
-0.5999974 1.6676358 1.545604 40
0.19876079 1.6545681 1.6466337 15
0.34277549 1.8623966 1.5406436 17.333334
-3.8115768 2.0292318 1.6379195 67
-3.6847794 2.0783269 1.6420561 73.666664
-3.5248015 2.0254371 1.6482683 79
-3.9711118 2.172554 1.6309472 71
-3.812887 2.1279984 1.6361724 65
-4.2791033 2.2707732 1.6174089 68.5
-3.5022156 2.3399589 1.6399313 78
-3.3272748 2.279233 1.6485234 71
-3.8015969 2.4690816 1.6282057 69
-3.6581995 2.4318919 1.6295874 69.5
-3.2924976 2.5436392 1.639944 76
-4.2963729 2.6962295 1.6021407 63
-3.9950128 2.5737743 1.6216773 66
-3.530323 2.6731908 1.6279289 70
-3.3462262 2.6465843 1.6354693 61
-3.0543108 2.6240776 1.6451354 63.333332
-3.8146002 2.8225226 1.612794 63
-3.6799502 2.8420749 1.6232331 64
-3.5085127 2.7384834 1.6284037 64.666664
-3.0640261 2.78754 1.6454698 70
-2.8589175 2.7910404 1.6419986 66
-2.8316031 2.8464139 1.6458071 68
-3.8046002 2.9136031 1.6137478 65.5
-3.2717166 2.9180217 1.6231934 63
-3.0317879 2.9834461 1.6307915 63
-2.9474673 2.927469 1.6372398 57.5
-4.0169106 3.0113809 1.6085994 56.5
-3.5021858 3.1065645 1.6184845 62.5
-3.3754058 3.0642452 1.6258744 63
-3.0586789 3.0723054 1.6333948 64
-2.5962448 3.0651131 1.6382636 66
-4.3211117 3.1693783 1.5870318 61.5
-3.8153429 3.2781131 1.5981364 57
-3.6593666 3.2579138 1.6077708 62.666668
-3.5019641 3.1665065 1.6110444 62
-3.0454569 3.1780932 1.6335357 61
-2.8767467 3.242239 1.6264392 59
-2.7729216 3.2225275 1.6275529 50
-2.3772111 3.2946408 1.6453899 64
-3.8147182 3.374269 1.5954225 60.5
-3.2657199 3.3530829 1.6164163 64
-2.9732428 3.4080291 1.6246423 25.5
-4.060039 3.5125682 1.5874629 58
-3.9979367 3.4654746 1.582776 59
-3.5027733 3.5683603 1.6016183 62.5
-3.3955114 3.5265067 1.6055965 59
-3.0218935 3.5137033 1.6231271 23
-2.5391557 3.4634864 1.6291424 65
-2.1230147 3.4774952 1.6478699 60
-2.0240557 3.5451159 1.6475655 60
-4.3539553 3.6983006 1.567366 42
-4.3487616 3.6959808 1.5707846 41
-3.6441529 3.707365 1.5971745 59
-3.5118101 3.6435835 1.5913614 62
-3.0215313 3.6174743 1.6192877 50
-2.8506792 3.6558354 1.6172566 59
-2.7251308 3.6673326 1.6228169 62
-2.3132849 3.7118921 1.6402494 64
-2.0987411 3.7072721 1.6461409 58
-3.8363962 3.8336344 1.5809371 57.5
-3.6950126 3.7815621 1.5850105 56
-3.2377262 3.8171856 1.5936998 62
-2.9084909 3.8401823 1.6079043 59
-2.0610559 3.8105917 1.6378645 57
-4.0329318 4.0199585 1.5677197 43
-3.816751 3.9306018 1.579807 53
-2.9712846 4.0027313 1.606159 54
-2.4754035 3.9187515 1.6228248 61
-2.0291717 3.9873133 1.6426392 56.5
-4.0979304 4.0774798 1.5700362 36
-3.5156536 4.1113501 1.5896091 55.5
-3.4313207 4.0722213 1.5894775 59
-2.9938815 4.1147122 1.601339 56
-2.8396335 4.1855583 1.6006662 56
-2.6509187 4.1520743 1.6064898 51
-2.2300954 4.1781893 1.6275929 50
-2.0201161 4.1950283 1.6294972 49
-4.3888512 4.2995548 1.5480251 38.5
-3.6923931 4.2904978 1.5789442 56
-3.5422876 4.2132826 1.5787746 53
-2.8478162 4.2945166 1.5914536 51
-1.9682873 4.3122778 1.6264063 44
-1.6347494 4.2231188 1.6408635 54
-3.9005315 4.4949832 1.558413 36
-3.7952635 4.3739929 1.5631359 44.5
-3.6689837 4.3708034 1.5740483 47
-3.2309461 4.3852692 1.5847058 55
-2.8799672 4.4457903 1.5990829 49.5
-2.3881922 4.4279733 1.6076357 40
-1.9264704 4.4308615 1.6318017 39
-1.7530328 4.4711356 1.6273884 48
-1.3759705 4.4582958 1.6382717 60
-3.8179328 4.5355573 1.5594451 35
-2.922214 4.5840011 1.5972695 43
-1.8889805 4.5442152 1.6246699 48
-4.1100121 4.7008648 1.5494745 38.5
-3.5002279 4.7208295 1.566157 40.333332
-2.9749031 4.7184219 1.5905905 41
-2.5756958 4.73698 1.5984902 34
-2.1352541 4.728436 1.6185477 43
-1.9238803 4.7745614 1.6124524 37
-1.4616474 4.716166 1.6235925 53
-3.5592685 4.860414 1.5513048 34
-2.8248711 4.8847189 1.5815364 40.5
-1.8532495 4.8966365 1.6129876 40
-4.4383745 5.0044575 1.5235246 32
-3.8168793 5.0666332 1.5422146 34
-3.7115631 5.0139151 1.5510253 38
-3.2078464 5.0336838 1.5641961 36
-2.8074343 5.0763202 1.5757227 29.5
-2.2947071 5.0423331 1.5992519 32
-1.7881057 5.0058117 1.6147361 43
-1.5715725 5.0350513 1.6143093 49
-3.9536917 5.2255282 1.531875 37
-2.8497503 5.2426333 1.5766242 26
-1.7337348 5.1320724 1.6134685 40
-3.8260267 5.2526989 1.5387437 30
-3.4728541 5.3969297 1.5396411 28
-2.4703686 5.3967609 1.579218 25
-2.0108788 5.3555388 1.5982711 35
-4.1580334 5.4681664 1.5216041 32
-3.5409513 5.5052118 1.5385511 29.5
-2.9399347 5.420486 1.5684544 26
-1.799646 5.46666 1.5918444 34
-3.5946097 5.6620274 1.5254277 30
-2.803586 5.5807228 1.5596699 27
-1.7013038 5.5742559 1.5884563 35
-1.6140625 5.6801639 1.5919205 35
-3.8224931 5.837791 1.5266415 32
-3.1741188 5.8016906 1.535491 28
-2.772583 5.7130494 1.5519142 27
-2.6823673 5.8091264 1.5472735 28
-2.1580718 5.7218943 1.5701587 33
-4.526855 5.8823447 1.5011691 36
-3.8435192 5.9023819 1.5160006 31.5
-3.7025123 5.8802962 1.5249975 31
-2.7531745 5.8537898 1.5535303 27
-3.8312113 6.1126471 1.5090345 33
-2.7479365 6.004549 1.5449531 20
-1.8460295 6.075058 1.5623736 27
-3.4588997 6.2756343 1.5131788 23
-2.8939855 6.2771997 1.5401016 25
-2.3358698 6.1795254 1.5523362 29
-3.5661323 6.4465985 1.5064837 25
-3.6199994 6.4920712 1.5068889 24
-2.7699678 6.529881 1.5278124 22
-2.7133999 6.670835 1.5230199 20
-2.5574059 6.7364111 1.5246804 21
-2.0030148 6.6012158 1.5503962 31
-3.1437485 6.7779555 1.507947 21
-2.6683569 6.8242035 1.5275086 22
-2.6412601 6.9966831 1.5228424 23
-2.1717145 7.1765747 1.529042 24
-2.9277649 -2.2809138 1.7054247 40
-3.0521076 -2.1904447 1.7264112 36.666668
-3.3658657 -2.0139225 1.6697519 20
-3.202404 -2.0280893 1.7432803 50
-2.9663715 -2.0092447 1.7957183 55
-3.6003416 -1.8299993 1.7392718 12
-3.4967713 -1.8270087 1.773443 34
-3.3951259 -1.9097332 1.7664524 34
-3.1810153 -1.9127574 1.7914058 65
-2.9639277 -1.845418 1.7929651 55
-2.8061292 -1.8197315 1.7969185 66
-0.26063928 -1.8736719 1.7356275 6.6666665
-3.8013539 -1.7064328 1.7304667 12
-3.7093132 -1.7167358 1.7522445 18.5
-3.5246878 -1.7048266 1.7671758 49.5
-3.310962 -1.7630445 1.7856237 60
-3.1509795 -1.6637053 1.7843629 62
-3.0710282 -1.7431626 1.7831563 55
-2.9950604 -1.7130897 1.7890373 60
-0.46545705 -1.7886 1.7869359 1
-0.43558067 -1.6515359 1.7512871 4
-0.23179582 -1.7801572 1.7520467 14
-3.9451425 -1.5845563 1.7270411 10.5
-3.8335533 -1.6352904 1.7361714 16
-3.6419725 -1.5270402 1.7620789 59
-3.5011935 -1.5265956 1.7756867 64
-3.3717077 -1.5665246 1.773374 66
-3.1915455 -1.6152318 1.7744981 60
-2.9149814 -1.6023568 1.7862258 58
-2.8340182 -1.5506843 1.7889663 62
-2.65782 -1.647022 1.7986265 62
-0.48482567 -1.6196988 1.7556273 14
-0.42406604 -1.5434825 1.7184814 5.5
-0.067580439 -1.5554217 1.7709196 28
-4.334147 -1.4853616 1.7584643 1.5
-3.8521233 -1.3932109 1.7529668 58
-3.6847899 -1.4213686 1.76057 68
-3.4496317 -1.3501952 1.7652935 68
-3.2239552 -1.4256258 1.7732108 65
-3.0438657 -1.4408717 1.7758011 57.5
-2.8661642 -1.3821516 1.7866787 49
-2.6256261 -1.3846846 1.7966902 47.5
-2.5156639 -1.3660246 1.7928439 54
-0.36093926 -1.4141822 1.7960972 32
-0.2968803 -1.388707 1.7141155 4
-0.0067916093 -1.4946895 1.750693 39
0.037800662 -1.4058418 1.6970882 28.25
-3.9827929 -1.2714459 1.7460678 68
-3.863838 -1.3141856 1.7478994 66
-3.6269777 -1.2134157 1.7501389 64
-3.4893093 -1.2344275 1.765692 76.5
-3.3724818 -1.2755836 1.7602431 71
-3.2037611 -1.3193898 1.7661636 64.5
-2.9098969 -1.2907979 1.778139 53.5
-2.4054182 -1.2583402 1.7973758 26
-0.30622011 -1.3422315 1.7317539 14
-0.2425857 -1.2800522 1.7273617 7
0.093743041 -1.3325995 1.7444838 50
-4.2838354 -1.1208674 1.7301985 68
-3.8409605 -1.0694917 1.7398144 63
-3.6805298 -1.1184005 1.752285 71
-3.427959 -1.0608406 1.7505575 66
-3.2160919 -1.1224059 1.7609242 59
-3.0507643 -1.1672881 1.7649977 56.5
-2.8580666 -1.1312916 1.7797335 28
-2.7192874 -1.1713659 1.7888082 35
-2.5460639 -1.121592 1.7879115 21
-0.21634638 -1.1956979 1.729552 10.5
-0.11395618 -1.1158201 1.7310499 15
-3.9660783 -0.9520824 1.7335639 74.5
-3.8577788 -0.99326497 1.738494 67
-3.6240931 -0.91832465 1.7445511 68
-3.471014 -0.95395422 1.7506458 71.5
-3.3769376 -0.99952221 1.7495397 74
-3.2279496 -0.96572447 1.7535349 48
-3.0645666 -0.90829998 1.7620435 25
-2.9212737 -1.040493 1.7720121 28.5
-1.8698337 -0.98927999 1.7982851 3
-1.789757 -0.94105577 1.7986363 26
-4.2638307 -0.78211665 1.7161258 68.5
-3.8021519 -0.75289631 1.7109383 86
-3.6776001 -0.82787949 1.7449923 74.666664
-3.4212275 -0.78787565 1.7450706 38
-3.2084911 -0.83230162 1.7592306 25
-2.9079716 -0.81230611 1.7735144 4
-1.9888984 -0.85210943 1.7940134 15
-1.8458115 -0.8222025 1.7951779 31
-3.9603727 -0.64560789 1.7260538 75.5
-3.8515656 -0.68237734 1.7279385 73
-3.6197631 -0.63329822 1.7381383 38
-3.476059 -0.69081461 1.7501321 36
-3.3832748 -0.73339927 1.7401072 42
-3.2216542 -0.74351174 1.7506534 38
-2.4197845 -0.61816525 1.7713848 35
-2.299396 -0.69459856 1.7793683 23
-2.0105152 -0.65408444 1.781536 25
-1.8899157 -0.66804612 1.7956225 26.5
-4.2500992 -0.45491257 1.7041383 76.5
-3.8406053 -0.459187 1.7260214 36
-3.6699169 -0.54507846 1.7332276 40.666668
-3.4083369 -0.47659892 1.7446316 1
-2.5046415 -0.52427524 1.7634045 39
-2.3288767 -0.51941007 1.7713752 34.333332
-2.0351458 -0.46373278 1.7816275 53
-1.8608519 -0.56524634 1.789781 51
-1.7694077 -0.54098946 1.7922665 74
-3.9611604 -0.34693122 1.7208388 40
-3.8569703 -0.38307709 1.7258259 50
-2.9312637 -0.31529605 1.7422725 16
-2.8252728 -0.43900415 1.7597595 7
-2.5898697 -0.4225398 1.7530892 27.5
-2.4705856 -0.3706986 1.7618985 26.666666
-2.3388011 -0.32865191 1.7649384 30.666666
-1.951057 -0.44061157 1.7799515 80
-1.8454492 -0.40404546 1.789042 78
-1.7215376 -0.32175022 1.7933288 79
-3.6775146 -0.27589279 1.7394167 0
-3.2045617 -0.17966627 1.7300895 4
-3.0604324 -0.16479081 1.7297293 14.5
-2.7922044 -0.25792056 1.7455572 36
-2.6012931 -0.2015931 1.7524356 30
-2.4360189 -0.18229608 1.7564111 55.333332
-2.0079813 -0.26756066 1.7749883 78.5
-1.8620892 -0.23509246 1.7847483 76.25
-1.6908634 -0.1891403 1.7879339 86
-1.5610669 -0.22722742 1.7981635 91
-1.4806315 -0.16745439 1.7981557 101
-2.9290223 -0.10372371 1.7390614 27
-2.8026578 -0.045558486 1.7479953 32
-2.4542353 -0.063467279 1.7537171 75
-2.3168325 -0.13116699 1.760993 73
-2.0184505 -0.085035525 1.7706497 81
-1.8583027 -0.090358116 1.7766538 84.333336
-1.7259046 -0.090339199 1.7862891 82
-1.5694418 -0.070808083 1.7896018 97
-1.4518105 -0.060343817 1.7896165 89.333336
-0.90663171 -0.073342107 1.7991842 74
-2.6003308 0.018774521 1.7442186 42
-2.475939 0.058369469 1.7541159 33.666668
-2.3205376 0.053417988 1.7588596 74
-2.0223565 0.096876264 1.7646188 82
-1.8925653 0.044200327 1.7741383 84.333336
-1.760136 0.016371939 1.7803053 80
-1.5736512 0.084678397 1.7849621 90.5
-1.4366729 0.082272969 1.7865835 79.800003
-0.9019559 0.13576196 1.7984191 61
-3.1872735 0.29064921 1.7206794 7
-2.4068723 0.17386653 1.7625371 13
-2.2932842 0.24479243 1.752719 80
-2.0595551 0.29227084 1.7612225 14
-1.5752213 0.24125002 1.7845557 25.5
-1.4335006 0.23015143 1.7834264 82.333336
-1.3301079 0.22500011 1.7811065 67
-1.1364504 0.26629964 1.7918423 52.333332
-0.93908298 0.23719065 1.7960715 84.75
-0.89401275 0.24086122 1.7957264 71
-3.2157269 0.31122297 1.7095474 3.5
-3.0762384 0.32316723 1.7220556 1
-2.2715518 0.4270834 1.7450641 5
-1.4404125 0.39178354 1.7800578 95.75
-1.2647007 0.37384239 1.782568 71
-1.1082288 0.38005483 1.7867926 76.75
-0.99306017 0.36955303 1.7887338 78.25
-0.82996815 0.38370109 1.7941542 76.900002
-0.6852234 0.43699536 1.7978015 73.666664
-1.5228758 0.53517425 1.7734286 87
-1.4215869 0.52052939 1.7764549 91
-1.2472903 0.50661963 1.7765783 74
-1.110642 0.5265398 1.7799422 76.666664
-0.97826499 0.52811927 1.7848204 75.833336
-0.8047536 0.53000611 1.7911537 75.571426
-0.68121135 0.54511267 1.7953262 75.400002
-0.57776439 0.48328906 1.7996913 77
-2.0303843 0.67176139 1.7437407 84
-1.8666228 0.72323787 1.7512802 86
-1.7176212 0.65470272 1.7606972 90
-1.5661334 0.71670747 1.7682887 84.333336
-1.4199923 0.65329742 1.7762052 93
-1.2436168 0.66242296 1.782076 96
-1.1292226 0.66628826 1.7776623 80.800003
-0.97107249 0.66884261 1.7828072 73.333336
-0.83811539 0.67010492 1.7855206 75.5
-0.68455052 0.66396439 1.7889841 76.875
-0.52735525 0.6790641 1.7942995 76.333336
-0.4159863 0.70686066 1.7954223 79.5
-1.9827645 0.84484375 1.7425663 84.5
-1.8755491 0.8333391 1.7454772 86.5
-1.7396357 0.79770136 1.7546182 82.5
-1.6066914 0.86320609 1.7627777 79
-1.4351389 0.81964493 1.7700385 91.75
-1.2930739 0.82256556 1.7744693 88.5
-1.1248755 0.83084095 1.7775838 90.400002
-1.0012908 0.8212598 1.7774569 80.25
-0.80484092 0.82273275 1.7841094 73.714287
-0.6574086 0.80624378 1.7875534 73.099998
-0.51834589 0.82899255 1.7933531 74.85714
-0.37087023 0.81976897 1.797907 74.666664
-1.8900509 0.96129036 1.7398686 87.333336
-1.7124655 0.96975595 1.749344 79.5
-1.5529507 0.96642971 1.7592554 88.5
-1.4071093 0.97982216 1.7641679 87.5
-1.2586679 0.9691633 1.7713557 85.5
-1.0943179 1.0047642 1.778236 93
-0.9630897 0.95344371 1.7794186 82.333336
-0.79450089 0.9472068 1.7766447 74.333336
-0.68087482 0.97641182 1.7810279 76.5
-0.54040581 0.97492301 1.7882019 72.285713
-0.39454913 0.98436362 1.7917126 65.571426
-0.27890277 0.99434304 1.7925881 61
-1.9872817 1.0694011 1.7385496 84
-1.8393348 1.1104249 1.7352347 85
-1.7220871 1.1333772 1.737749 77
-1.585106 1.1654515 1.7464863 84.5
-1.414572 1.1175541 1.7591591 87
-1.296599 1.1511354 1.760213 84.5
-1.1007959 1.1502341 1.7690705 84.666664
-0.96340233 1.1131828 1.7760907 84.25
-0.80222726 1.0984507 1.7796183 89.666664
-0.65941727 1.1087767 1.7820143 82.5
-0.53115946 1.1179953 1.7886467 82.428574
-0.38957742 1.1386131 1.7899978 80
-0.28806978 1.1496589 1.7962931 74
-1.9508876 1.2729331 1.7302736 73
-1.8556995 1.2783495 1.7353383 76
-1.7336707 1.3141365 1.7325885 77.5
-1.5928763 1.3312613 1.7407287 79
-1.4331385 1.292869 1.749539 88
-1.259446 1.2568761 1.7542522 82
-1.1252508 1.2719022 1.7630991 78
-0.97575271 1.2730306 1.7671155 80.25
-0.86528969 1.2564793 1.771891 76.333336
-0.66759104 1.2568349 1.7814043 78.599998
-0.51998729 1.2614313 1.7836787 79
-0.36412123 1.293985 1.7865604 78.5
-0.23543718 1.2789707 1.7935232 74.714287
-0.095463917 1.3415127 1.7938532 82
-2.3385119 1.4741889 1.7146257 79
-2.1870503 1.3794689 1.7215537 57.5
-1.8899403 1.4497011 1.7249064 79
-1.7874546 1.4732158 1.7283262 75
-1.3830178 1.3948798 1.7441732 86
-1.2823282 1.4120871 1.7469096 82.666664
-1.1130865 1.4209157 1.7524912 76
-0.94067687 1.433308 1.7634825 73.666664
-0.81779575 1.3947887 1.7670903 72
-0.63849568 1.44025 1.767938 76
-0.50923699 1.4148263 1.7764887 74
-0.36534178 1.4484081 1.7759215 71.5
-0.22676457 1.4192649 1.7388525 53.777779
-0.13531266 1.3839475 1.7419506 41
-2.4426179 1.6173422 1.7017734 74.5
-2.3529382 1.5788418 1.7064928 78.5
-2.2029724 1.6030555 1.7123071 81
-2.0858393 1.5841438 1.7191926 87
-1.8178885 1.5893819 1.7209673 76.5
-1.7342938 1.5099982 1.7224206 78
-1.5898883 1.5111892 1.7295648 81
-1.4507456 1.5082568 1.7377466 83
-1.2886523 1.5814761 1.7405281 83.25
-1.1371152 1.5934112 1.7451637 72.5
-0.96439755 1.5665451 1.7535042 72
-0.80383664 1.5712922 1.7602739 72
-0.60168362 1.6366402 1.7587517 72
-0.47975034 1.5719497 1.7662704 68.75
-0.38353425 1.5390761 1.7260133 43
-3.6273715 1.7285503 1.6622626 102
-3.4873724 1.698 1.6745564 98
-2.6138732 1.7676525 1.6938735 85
-2.491426 1.6549617 1.700353 78
-2.340704 1.7505569 1.7013818 73
-1.8581161 1.7026793 1.7149876 72
-1.732851 1.725577 1.7175344 73.666664
-1.5811411 1.7133143 1.722196 72
-1.4449481 1.6913273 1.7311805 76
-1.2589048 1.7241135 1.7422866 75
-1.1519535 1.7572773 1.7408214 69.5
-0.97662342 1.7446666 1.7433882 71
-0.79808015 1.7323962 1.7502451 69.666664
-0.69239682 1.6941072 1.7337815 60.666668
-3.5466375 1.9479399 1.650685 79
-3.3208385 1.8777769 1.6639293 95
-3.0931847 1.8882594 1.6704124 79
-2.9155643 1.8479451 1.6730891 74
-2.7714698 1.8123451 1.6823715 85
-2.4303563 1.9137101 1.6923496 71.5
-2.3362803 1.8605871 1.6956332 70.5
-2.1554179 1.8345286 1.7064189 77
-2.0377254 1.8016262 1.7153238 80
-1.8024789 1.935145 1.7119912 76
-1.7453797 1.8790784 1.7124952 73.5
-1.5631721 1.9325304 1.7108201 74
-1.4284135 1.8945873 1.7230786 74
-1.3014188 1.8342067 1.728125 75
-1.1699973 1.8882866 1.7322947 71.333336
-0.93348002 1.9348816 1.7391845 56
-0.81931531 1.8789585 1.7459623 64
0.33287519 1.8652838 1.720543 22.5
-3.4585567 2.0010095 1.6554328 78.5
-3.3204834 1.9512523 1.6663278 76
-3.1470816 1.9902835 1.6679932 73
-2.7375598 2.093405 1.6748461 80
-2.5752409 2.0254526 1.6823543 83
-2.3144178 2.011586 1.6902333 71
-2.038991 2.0496123 1.701202 73
-1.7191128 2.0447989 1.7093383 77.5
-1.3546388 2.0969949 1.7143265 72
-1.2670434 2.0539227 1.7206568 69
-1.1527339 2.0151243 1.7280354 71
-1.015756 1.9683627 1.7335325 66
0.48022625 2.0438845 1.7860153 62
-3.3070333 2.1984482 1.6528734 87
-3.1022499 2.11797 1.6708335 85
-2.9052017 2.1523616 1.665192 62.666668
-2.4039819 2.203656 1.6820296 77
-2.3542633 2.1520488 1.6821896 76.5
-2.2183411 2.1286314 1.6895314 71
-1.687428 2.1943319 1.7076486 71.666664
-1.5375265 2.1851015 1.70635 77
-1.44313 2.1462131 1.7141939 66
-1.0862207 2.1539552 1.7247618 43
-0.97372067 2.1996176 1.7247157 27.5
-0.83752328 2.1195273 1.7366778 27
0.52856892 2.1797891 1.7750574 86.333336
0.64366812 2.1943243 1.7900778 64.333336
-3.0833333 2.2738764 1.6583118 68.666664
-2.6973677 2.3942204 1.6645972 75
-2.5372193 2.3053975 1.6758436 80
-2.2825923 2.2930541 1.6795022 72.5
-2.0338907 2.3314502 1.6890196 69
-1.9179362 2.2635674 1.6978551 75
-1.6538758 2.34162 1.7040399 67
-1.3565131 2.3789966 1.7092699 28
-1.2737513 2.3187563 1.713375 28
-1.1917008 2.2615724 1.7201535 28
-0.99269748 2.35408 1.7260796 50.5
0.56645751 2.2946801 1.7839054 66.75
0.68818521 2.3366399 1.7873056 62
0.80522656 2.3116586 1.7915877 40.666668
-3.0806351 2.4349244 1.6560456 71
-2.891695 2.4831078 1.6561584 67.333336
-2.3174217 2.4694717 1.6749145 68.666664
-2.1524208 2.4044077 1.6794096 70
-1.8450968 2.5158684 1.688008 86
-1.6547312 2.4314897 1.6971334 78
-1.5948894 2.4603834 1.6957103 53
-1.4488684 2.4369814 1.7029506 34
-1.1403936 2.5115108 1.7105258 57.5
-0.96448576 2.4482899 1.7209071 62.5
0.68736684 2.4469025 1.7814016 53.200001
0.82943505 2.4949796 1.7826558 56.25
0.90906912 2.4917281 1.7916738 5
-2.4978509 2.6154044 1.6731199 86
-2.2458825 2.6020069 1.670665 65.5
-1.9586984 2.6026394 1.6777052 77
-1.5538135 2.6653576 1.6886321 54.333332
-1.2967342 2.6564934 1.6945086 58.5
-0.90248203 2.5563173 1.7175926 39
0.82375199 2.6219788 1.7747511 61
0.95285279 2.6175241 1.7846078 3.6666667
-2.6605787 2.7262857 1.6598691 73
-2.2771707 2.7909534 1.6695186 70
-2.2134631 2.8045914 1.6647967 77
-2.0782158 2.7007301 1.672182 68
-1.7645518 2.7921906 1.6806563 55
-1.5012494 2.7947485 1.6834668 68
-1.069317 2.7959106 1.702639 60
-0.99965417 2.7064683 1.7100953 61
0.79893941 2.8353531 1.7667331 58
1.0395882 2.744256 1.7822345 45
-2.4390676 2.9345145 1.6573182 74
-2.2010374 2.9421368 1.6608084 35.5
-1.8740845 2.8977847 1.6678416 72
-1.475968 2.8965759 1.6861042 68
-1.2182411 2.9825952 1.6874748 65
-1.1377859 2.8843262 1.6933066 63
0.86789721 2.9845583 1.761881 49.5
0.98994172 2.9837837 1.7741467 27
-2.2020698 3.0926907 1.660973 47
-1.9943331 3.0280209 1.6662475 77
-1.6777761 3.1065259 1.6823589 78
-1.4367944 3.0434825 1.6826271 64
-2.1633539 3.2050955 1.654318 65
-1.7816908 3.2358987 1.6672522 71
-1.3689321 3.2245889 1.6863016 68
0.89578754 3.1510005 1.7532221 49
0.95270222 3.2448199 1.753631 2
-2.1382263 3.3787386 1.650474 58
-1.8954697 3.3857901 1.6593317 62
-1.5685599 3.4368076 1.6714951 58
-1.3430154 3.3543775 1.6843357 57.5
-1.078665 3.3026428 1.6888014 73
-2.1263189 3.5976324 1.6504728 62
-1.2624862 3.5254526 1.6768403 56.5
-1.6706103 3.6032829 1.662243 54
-1.1911342 3.684644 1.6759044 56
-1.7787868 3.7859879 1.6532036 55
-1.4451573 3.8168035 1.6683258 56
-1.2227308 3.7740729 1.674719 54
-1.9163259 4.0190506 1.6573907 29
-1.5369256 4.0088062 1.6527542 57
-1.2961912 4.2367673 1.657693 57
-2.9184437 -2.1969922 1.802649 28.5
-2.776175 -2.106142 1.8080245 66
-3.1131403 -2.0127273 1.8018365 62
-2.8797917 -1.9359469 1.8027331 55
-2.6268959 -1.9054282 1.8099486 69
-0.38919529 -1.8495814 1.8065404 21.75
-2.4494312 -1.688416 1.8091732 50
-2.3537087 -1.7466021 1.812203 20.5
-0.71071059 -1.6758528 1.866151 26
-0.5632661 -1.7141869 1.8513886 33
-0.3558062 -1.7569952 1.8084623 46
-0.21504085 -1.6792853 1.8120762 84
-2.4711769 -1.5836602 1.8054489 44.333332
-2.3435481 -1.5648483 1.8133599 32
-2.223109 -1.6076481 1.8114337 54
-1.7387379 -1.5870646 1.8326632 11
-0.80278111 -1.5207396 1.8570672 51
-0.63850832 -1.584475 1.8676139 58
-0.53034145 -1.5575719 1.8756037 78
-0.32205045 -1.5565134 1.8032342 75
-0.21568151 -1.5767139 1.8080264 87.666664
-0.11045737 -1.5841887 1.8138193 66
-2.4772487 -1.4402717 1.8058475 28
-2.3166537 -1.4374859 1.8035904 38.5
-2.1248689 -1.4858203 1.8149158 29
-1.8770089 -1.4807142 1.8289891 6
-1.092131 -1.4094915 1.8411613 9.333333
-0.81839138 -1.4055409 1.8617008 30.5
-0.65994573 -1.4274131 1.8695034 40.166668
-0.53744829 -1.3781049 1.8654879 71
-0.41795263 -1.4078115 1.8751273 78.333336
-0.18820073 -1.4430544 1.8078487 75
-0.084806025 -1.4476514 1.8157909 73.400002
0.010176045 -1.3902512 1.8177806 69
-1.3978001 -1.224938 1.8281199 20
-1.2593982 -1.2899207 1.8315289 23.5
-1.1425043 -1.2625335 1.8415617 35.333332
-0.95764571 -1.2243073 1.850562 35
-0.79637194 -1.2824415 1.8579117 52
-0.68479192 -1.2800492 1.8628932 72.25
-0.50896651 -1.2372465 1.8680236 74.75
-0.34324852 -1.2989025 1.8752297 69
-0.24487232 -1.2998047 1.8554888 63.666668
-0.086120598 -1.2933962 1.8094125 66.666664
0.041884508 -1.3176229 1.8107502 56
-2.3086178 -1.1713959 1.8057932 0
-1.6803145 -1.0647336 1.8191706 20
-1.623906 -1.1492095 1.8139428 2.5
-1.4505661 -1.0526141 1.8242329 25
-1.2842411 -1.119428 1.8335441 32
-1.175251 -1.0885321 1.8420824 34.333332
-1.0198367 -1.0772059 1.8444124 86
-0.82854527 -1.1519451 1.851071 85.199997
-0.68983227 -1.1344523 1.8616338 85.333336
-0.50748438 -1.0979154 1.8639512 69.833336
-0.37942451 -1.1369586 1.8712888 60.666668
-0.24831091 -1.1534375 1.8673062 47.5
-0.10709417 -1.1127942 1.8408456 50.333332
-1.7113788 -0.9501521 1.8072482 32
-1.6288788 -0.98379731 1.8128754 34
-1.3643768 -0.96948349 1.8248091 31
-1.2618018 -0.94812876 1.8296494 61.5
-1.1273706 -0.93738657 1.8369595 82.5
-0.94120693 -0.97251546 1.8407884 91.25
-0.8180092 -0.99293149 1.8493131 93.400002
-0.69502401 -0.99073744 1.8524424 85.25
-0.54145664 -0.98156691 1.8533692 67.5
-0.39285254 -0.96401417 1.8557049 51.5
-0.22356866 -0.97935301 1.8600432 40.5
-1.7122473 -0.8173216 1.8065462 28.5
-1.435104 -0.83596486 1.8189408 61
-1.281139 -0.80233604 1.825339 81.800003
-1.1178576 -0.7871809 1.8290027 95
-0.98370016 -0.80860233 1.8283851 84
-0.8148455 -0.82837039 1.8353435 78
-0.65664488 -0.80669755 1.8412582 77
-0.5231117 -0.83581829 1.8486458 69.599998
-0.38496718 -0.82264853 1.8515177 62
-0.27141201 -0.83273357 1.8578029 53.333332
-1.7158636 -0.67391413 1.80363 54.333332
-1.5274 -0.71240252 1.8059422 68
-1.402983 -0.65897214 1.8174934 78.25
-1.2733362 -0.65998787 1.8207992 85
-1.0945538 -0.63674372 1.8164212 75.333336
-0.9620291 -0.65884811 1.8265293 78.5
-0.84069443 -0.68173546 1.8320993 77.5
-0.67557335 -0.66908509 1.836632 78.571426
-0.54447401 -0.66966712 1.8413218 75.625
-0.37498423 -0.68102056 1.8492845 69.166664
-1.6816206 -0.49686864 1.8002843 75
-1.5599755 -0.5501821 1.8063682 76
-1.4285008 -0.50874633 1.809848 79.75
-1.2963907 -0.52320337 1.8157998 87
-1.1260021 -0.50317627 1.8134395 75.333336
-0.95293254 -0.51989007 1.8204178 75.833336
-0.82518113 -0.52473199 1.8260458 78.25
-0.67672271 -0.51918489 1.8299203 81.777779
-0.54426354 -0.53075242 1.8367672 78.166664
-0.39695668 -0.51137811 1.8416474 72
-1.5452533 -0.38474876 1.8045218 79
-1.4134359 -0.36328775 1.8087066 94.5
-1.2631187 -0.37811759 1.8053921 72.333336
-1.1190099 -0.37191868 1.8047494 74
-0.98516828 -0.38491291 1.8117552 77.599998
-0.81143606 -0.36517829 1.8202384 80.666664
-0.67057979 -0.37867838 1.8277961 78.444443
-0.53911722 -0.37461227 1.8334663 77.199997
-0.434706 -0.36214617 1.8396174 77.333336
-1.4124402 -0.23771147 1.8038192 97.333336
-1.2762276 -0.24355589 1.8032817 79
-1.1090639 -0.22282073 1.8259039 69
-0.9768315 -0.22827657 1.806345 78.714287
-0.8277818 -0.2288703 1.8152125 78
-0.66872478 -0.21181566 1.8252773 75.444443
-0.5282895 -0.23954006 1.8302847 76.800003
-1.3954134 -0.12514752 1.8032902 96
-1.2928014 -0.084332563 1.8262082 41
-1.1229231 -0.072555393 1.8809103 119.16666
-0.96709102 -0.068705268 1.8360937 102.5
-0.81707835 -0.072109133 1.8100866 74.666664
-0.67617208 -0.07750085 1.8181646 76
-0.51600301 -0.091465138 1.8240703 77.5
-1.2895824 0.064937003 1.8060975 42
-1.1316241 0.07846003 1.8563366 87.833336
-0.96858311 0.062746048 1.8781437 126.75
-0.82175446 0.088090666 1.8048663 72.166664
-0.67864996 0.080036961 1.8121235 77.727272
-0.51320016 0.062314302 1.8189688 82.400002
-1.5017812 0.29496518 1.8164042 30
-1.2602093 0.21897417 1.811168 52
-1.1300319 0.18673179 1.8275731 68.5
-1.0121742 0.17763633 1.8106183 58
-0.81699413 0.22125249 1.8027681 78.5
-0.68500578 0.22210658 1.8071986 78.714287
-0.52418178 0.21945678 1.8133694 80.666664
-0.79505926 0.36202317 1.800243 77
-0.66014278 0.34227556 1.8050607 78.428574
-0.52472538 0.38333878 1.8090572 78.833336
-0.68795085 0.45713884 1.8003908 78
-0.5318054 0.52384984 1.8024693 82.400002
-0.42622 0.54865324 1.8044198 79.5
-0.51917875 0.61892825 1.800325 84
-0.99458104 1.0403016 1.8001322 20
-0.2101642 1.1440091 1.8034393 83
