# .PCD v0.7 - Point Cloud Data file format
VERSION 0.7
FIELDS x y z intensity
SIZE 4 4 4 4
TYPE F F F F
COUNT 1 1 1 1
WIDTH 15
HEIGHT 1
VIEWPOINT 0 0 0 1 0 0 0
POINTS 15
DATA ascii
0.97651702 2.3890128 -0.86535209 1
1.0233465 2.5565348 -0.86861658 8
1.0594506 2.7063296 -0.87465018 10
0.64327615 1.9300866 -0.70237702 2
0.64048952 1.9809811 -0.70033383 3
-0.11383389 1.3460248 -0.46525195 13
-0.18672831 1.3863848 -0.47305328 13.5
-0.12222292 1.3535881 -0.45075488 14
-0.10866581 1.3412688 -0.403952 16
0.16136469 1.2939358 -0.43502545 3
-0.31778809 1.4602807 -0.44360995 15
-0.23240542 1.4136833 -0.42334861 13.142858
-0.13420863 1.3594046 -0.41780484 13
0.2242483 1.3843834 -0.42096779 20
0.30598038 1.5095369 -0.40842265 2
