# .PCD v0.7 - Point Cloud Data file format
VERSION 0.7
FIELDS x y z intensity
SIZE 4 4 4 4
TYPE F F F F
COUNT 1 1 1 1
WIDTH 1350
HEIGHT 1
VIEWPOINT 0 0 0 1 0 0 0
POINTS 1350
DATA ascii
-0.62422878 -1.2012297 -0.19497475 9
-0.55458599 -1.2981313 -0.17560108 9.5555553
-0.38320762 -1.2625974 -0.17005129 12.428572
-0.68179941 -1.1395365 -0.16172455 9
-0.19012362 -1.1484622 -0.17130312 10.4
-0.13857493 -1.1449907 -0.16790873 7
0.081719451 -1.0134524 -0.17562503 12
0.38899121 -0.86280698 -0.16683191 14.4
0.49358293 -0.8113746 -0.18227781 12
0.6517148 -0.73204708 -0.16787249 11.5
0.83900023 -0.640809 -0.17196813 11
0.72765332 -0.46235797 -0.15423095 8
0.7765699 -0.49584755 -0.17572911 6.75
0.69584966 -0.36893216 -0.17326005 8
0.65347934 -0.22348648 -0.17556472 7.7272725
0.5451442 -0.059471007 -0.16022433 0
0.77739954 -0.13940896 -0.18190688 6.6666665
0.28901535 0.093712546 -0.17760108 0.25
0.47727555 0.067498252 -0.17323993 3.3636363
0.40475473 0.21619223 -0.17009692 3.5
0.45310962 0.39018819 -0.18144721 0
0.2839762 0.49362111 -0.18389302 9.25
0.36575404 0.52014852 -0.18772733 3.5
0.47011107 0.57366168 -0.17049274 2.5
0.55466652 0.69029063 -0.17026095 7
0.7401827 0.70013291 -0.15132664 1
0.4773578 0.85076529 -0.17849688 12.75
0.96789247 0.81054038 -0.15941323 9
0.4168402 0.97327828 -0.17738439 13.777778
0.461447 0.90542603 -0.16641088 10
1.3014606 0.96739501 -0.17687789 3
1.3683654 1.0146466 -0.18700112 7
0.33950615 1.1306801 -0.17278916 12
-0.17015518 1.2995719 -0.17234306 12
-0.051573887 1.3309901 -0.18218586 13.5
0.23662949 1.299389 -0.18243851 13.333333
-0.23892483 1.429215 -0.18492402 8
0.07702966 1.3863742 -0.16734964 34.5
0.18358763 1.4382011 -0.16641919 10
-0.34990552 1.6194775 -0.18641004 6
2.6140559 1.7788664 -0.19151916 96
-0.6975354 2.3458433 -0.16666855 103
-0.50405252 2.4473164 -0.16957337 101
-1.0545337 3.4953961 -0.17737289 100
-0.55468887 -1.3501691 -0.11875588 12
-0.90228778 -1.2501671 -0.047637139 8
-0.81000209 -1.2092297 -0.034257904 8.666667
-0.62616873 -1.2539762 -0.079914749 8.6000004
-0.52494311 -1.3171281 -0.079939276 7.25
-0.36725494 -1.255021 -0.097358704 11.714286
-0.27565914 -1.207473 -0.080836542 13.75
-0.79046392 -1.1747389 -0.046245549 9.6000004
-0.69025689 -1.1665206 -0.087961771 9
-0.22019537 -1.1668543 -0.11139904 10
-0.062650226 -1.0896641 -0.069823086 9.8421049
0.028294992 -1.0526389 -0.10883132 11
-0.851345 -0.99055666 -0.066661097 0
0.062778473 -1.0242862 -0.10563568 11.625
0.23086891 -0.94091892 -0.061229445 12.466666
0.30228591 -0.90228409 -0.12031988 11
-0.79372394 -0.78902948 -0.03923336 1.3
-0.73897666 -0.7913208 -0.056438718 0
0.29637593 -0.89961225 -0.059944157 13
0.38548201 -0.86323661 -0.074584261 10.5625
0.53655159 -0.78959906 -0.065215215 11.45
0.61649251 -0.75616354 -0.033104125 10
-0.84673423 -0.68771362 -0.033709321 3.125
0.69229883 -0.71488708 -0.082036734 10.733334
0.80118299 -0.65707856 -0.085350148 10.083333
-0.9307341 -0.50517476 -0.012534474 5
-0.8895523 -0.56987077 -0.020078991 4
0.72622687 -0.49594805 -0.051146232 7.4615383
0.77187139 -0.56775647 -0.088301674 7.1999998
0.67013192 -0.37639898 -0.075586148 7.9259257
0.59729403 -0.23581687 -0.083597653 9
0.6485498 -0.22196499 -0.10519405 7.8275862
0.54484004 -0.048724819 -0.12043725 0
0.78490734 -0.1310976 -0.085606582 5
0.48055601 0.062954202 -0.12395471 4.0999999
0.39967045 0.22891015 -0.12135635 3.5999999
0.42334336 0.38782635 -0.022877699 0
0.47419685 0.38124526 -0.078642033 0
0.26420176 0.48227277 -0.065326393 10.111111
0.34566724 0.51339418 -0.067604214 2.090909
0.49094963 0.58525991 -0.068376854 1.8
0.58106446 0.62689459 -0.06234917 1
0.72622538 0.69662046 -0.034764756 1
0.75664258 0.71232098 -0.085042886 0.66666669
0.44237512 0.88369942 -0.033203799 13
0.49019024 0.82046598 -0.079713777 12.411765
0.88253039 0.77121824 -0.015746212 10
0.97914654 0.81331992 -0.10302565 7
0.40611237 0.96846777 -0.078320935 12
1.2791821 0.96011043 -0.080823414 3.3333333
0.29153103 1.1729044 -0.058778387 12.2
0.34218267 1.0970362 -0.090372801 12.0625
-0.18087946 1.2780441 -0.04198968 11.333333
-0.07589861 1.3153477 -0.060849022 12.4
0.24721384 1.2566538 -0.078921951 11.333333
-0.23941883 1.3953459 -0.11703289 8.5
0.072243318 1.3890281 -0.078396566 25.5
0.17721833 1.4076971 -0.07320381 10
-0.31396577 1.52289 -0.074748509 28.666666
-0.62973958 2.1955559 -0.007719879 150
-0.67762953 2.3668976 -0.06462571 68.285713
-0.60019958 2.4016271 -0.14746843 87
-0.51803511 2.4374039 -0.10220025 91.833336
-0.83935577 2.6172726 -0.135222 22.666666
-1.2675414 3.4102585 -0.011406844 31
-1.2823555 3.4656882 -0.053917471 18
-1.0821341 3.48434 -0.076213576 100
-0.63889444 -1.4514147 0.13728368 8
-0.33148107 -1.4027319 0.033556219 2
-0.91346788 -1.2508101 0.054154411 54
-0.85822612 -1.2313404 0.025097793 8
-0.65017569 -1.2328069 0.013348283 8.3999996
-0.1976037 -1.2167063 0.072722912 5.3333335
-0.9269681 -1.1683635 0.069949739 1
-0.85966343 -1.1390549 0.036296044 6
-0.70219654 -1.1646552 0.039656229 8
-0.16127844 -1.1962587 0.042221759 7
-0.13184598 -1.1934638 0.041508745 10
0.10560939 -0.99372637 0.021817097 3.5
0.2298438 -0.92467946 0.031832334 7.5
-0.7810021 -0.78648883 0.045330983 0.55555558
-0.73720896 -0.80837512 0.031760659 0
0.2799992 -0.89083397 0.076790445 0
0.36816859 -0.86295682 0.034839027 11.75
0.53764981 -0.7925756 0.060395554 9.166667
0.62476248 -0.75423408 0.079802983 10
-0.82989466 -0.6777482 0.046228137 1.6129032
0.68254423 -0.71812832 0.073428735 8.9411764
0.79279113 -0.65663362 0.08087799 7.0555553
-0.92122024 -0.51359046 0.025977675 1.25
-0.87993705 -0.57269585 0.037075385 2.5555556
0.72510689 -0.52480143 0.034444958 6.25
-0.95135456 -0.42117384 0.067205153 0
0.69067436 -0.44800049 0.021014402 9
-1.1234105 -0.050039016 0.12866898 0.5
-1.0229242 0.053102233 0.088196442 0
-1.1200987 0.23541979 0.1112545 0
-0.99574852 0.18698125 0.1053293 4.909091
0.25843918 0.48065791 0.012508541 7.1666665
0.36563492 0.52243471 0.037938662 1.6666666
0.48546126 0.57959741 0.06680461 2.3333333
0.63253349 0.55486035 0.056083161 10.777778
0.4186095 0.65770435 0.10022196 9.5
0.54907727 0.65059012 0.072733313 9.1111107
0.61590481 0.61805189 0.04694742 13
0.77547735 0.72186142 0.068171255 48
0.9958421 0.73957443 0.077436499 6.5
0.43570361 0.86409813 0.10845878 10.5
0.47616372 0.80650079 0.078179315 10.285714
0.87284476 0.76206863 0.028574998 7
0.95906526 0.78684962 0.1027884 20.200001
1.1328466 0.88829726 0.075614385 4
0.37928364 0.9842239 0.058695875 11.6
1.194899 0.9253028 0.078701995 3
1.2159247 0.93400657 0.016684586 5
0.27711356 1.1500509 0.081772 11
0.31971392 1.0797762 0.085893065 11.666667
-0.20886068 1.294802 0.039510682 7.3333335
-0.095032275 1.3051481 0.038382821 12.75
0.0013245463 1.3467492 0.09932258 9
0.21106945 1.2762766 0.053846259 11.8125
-0.27195618 1.3964577 0.062165532 5.6666665
0.090732142 1.3941972 0.099637911 14.571428
0.15779562 1.3903719 0.10230844 7.6666665
-0.41876686 1.6801354 0.058636185 23
2.6470625 1.7002602 0.066170454 2.5
-0.4927676 1.8176754 0.073284648 11
-0.43128973 1.9317625 0.069214307 10
-0.65720659 2.3706095 0.068216138 88
-0.51798123 2.3429885 0.089924462 15
-0.82110763 2.4886012 0.067174025 15.5
-0.45866501 2.4410746 0.10800415 65
-0.42124569 2.4434845 0.075010285 73.333336
-0.85305774 2.5585895 0.049997352 16.5
-1.2530723 3.395792 0.061386786 41.200001
-1.1993879 3.4150727 0.033105012 98
-1.0976293 3.4643052 0.075231425 65.5
-1.3950541 3.6485994 0.063228391 10
-0.6766144 -1.6619928 0.29364392 41
-0.61520416 -1.6315054 0.25890642 43
-0.54832268 -1.5907791 0.20198861 45.400002
-0.34762919 -1.4749819 0.25508431 6.3333335
-0.25093791 -1.4722528 0.1981582 4
-0.24210706 -1.248004 0.15314656 6
-0.15394972 -1.1831396 0.23823696 7
-0.11705659 -1.1758407 0.25458246 6.25
0.85195392 -0.91776484 0.28463894 11.666667
-0.91486186 -0.61679196 0.22845393 0
-0.83926278 -0.62875986 0.23041949 0
0.83794457 -0.63503385 0.16003637 2.25
0.94222271 -0.66368401 0.22656563 17
-0.95413965 -0.55171698 0.22182119 0
-0.87644821 -0.56272495 0.24610166 0
-1.2780955 -0.087689959 0.24333744 3.5999999
-1.2099369 0.05042927 0.23620671 0
-1.1676854 0.10232636 0.25095686 0
-1.1180539 0.22727947 0.23185377 2.3333333
-1.0356719 0.24796015 0.16740832 3
-1.4305707 0.43089917 0.24830401 0
-1.4302728 0.51771379 0.2467235 0.75
0.47941935 0.74516582 0.22037324 10
0.4256371 0.83860207 0.23884341 9.2105265
0.46986172 0.77437919 0.19034912 10.090909
0.36046776 0.95912117 0.22621965 10.095238
0.25826794 1.1505855 0.20742352 10.5
0.30306882 1.0588366 0.25274265 8
0.18727753 1.2646418 0.23515697 9.6999998
0.13961327 1.4100078 0.2114266 15.333333
0.18845882 1.7806042 0.28239673 2
-0.5539735 1.9050572 0.23482752 23
-0.56022537 1.9603815 0.20043755 4
-0.66524529 2.1994102 0.20529345 20.25
-0.75027835 2.2714674 0.25572067 5
-1.5690553 3.7943821 0.23549211 0.5
-1.7831186 4.2252011 0.28492218 0
-1.280045 -1.9565325 0.40952832 32
-1.2053154 -1.9211079 0.44088095 33
-1.110112 -1.8793621 0.38792551 35.25
-0.98310995 -1.8111866 0.42506367 35
-0.82301539 -1.7286999 0.38823304 47.599998
-0.72426224 -1.6855924 0.34868166 38.400002
-0.51152807 -1.5728451 0.3884584 15
-0.40412095 -1.5217624 0.36542568 10.666667
-0.35113153 -1.4857821 0.30232877 6
-0.20108792 -1.2168913 0.30587703 7.5
0.83909583 -0.94926482 0.38060793 9.4615383
0.93227232 -0.90850222 0.35487461 6.5
1.2908072 -0.71272439 0.38048354 12.5
-1.3069414 -0.058002278 0.38008991 5.25
-1.2482178 0.028087845 0.3770974 1
-1.1802931 0.1121641 0.37550396 0
-1.1676838 0.22164616 0.37813231 0
-1.2076428 0.33631676 0.3347863 1
-1.187366 0.33312279 0.38692626 2
0.38780186 0.87410694 0.3302168 9
0.29291001 1.0295926 0.38110173 9.75
0.33656192 0.94919598 0.38038102 9.3684206
0.25022024 1.1101073 0.37355471 9.1538458
0.14029604 1.3173474 0.37522927 24.333334
0.16915494 1.2798563 0.33375946 10
0.10804375 1.370563 0.39551449 1.5
2.5930543 1.6318064 0.40883267 2
0.18947744 1.7428231 0.33232173 1.6666666
2.5491202 1.7050585 0.43911088 96
2.5598881 1.710791 0.34110731 108
0.12357695 1.8776337 0.36919871 2
0.16302349 1.8090416 0.35935849 2
0.065974936 1.9787802 0.38201976 2
-0.74533528 2.2642939 0.31707352 31
-0.36140996 2.5072036 0.40470472 16
-0.28848076 2.509954 0.43542993 59
-0.76132375 3.588593 0.44279057 43
-1.7138636 4.020977 0.31187809 0
-1.3614504 -2.0152121 0.55425477 3
-1.2710531 -1.9598008 0.50553507 32
-1.2225391 -1.9309665 0.48876333 33.5
-1.1650752 -1.898234 0.56345534 34
-0.99714071 -1.8184568 0.56501108 34.333332
-0.93764997 -1.7924917 0.52436668 34.5
-0.85625416 -1.7473825 0.48434219 36
-0.68890464 -1.6657524 0.52455395 13
-0.61392939 -1.6235373 0.56257927 4
-0.53026998 -1.5859025 0.50406533 5.8000002
-0.23277344 -1.5796191 0.57564789 3
-0.2923682 -1.4937131 0.51969767 16
0.82463455 -0.94406909 0.46577966 11.666667
-1.2803086 -0.020885328 0.48557332 5.3333335
-1.2110615 0.063539304 0.45574093 0
-1.2369273 0.22427925 0.55992961 4
-1.1922312 0.22520955 0.46658385 0
-1.1986777 0.35906157 0.48887944 4.6666665
0.2769663 1.0157555 0.52084994 9.1538458
0.31529918 0.96435887 0.47394475 8.5
0.22266422 1.120532 0.52504855 9.5714283
0.12487143 1.2831658 0.57922721 41.333332
0.16297023 1.224912 0.54019213 23.833334
-2.2640114 2.1261203 0.53456658 83
-2.1710994 2.2427068 0.53695905 46
-2.1326845 2.2860668 0.4610315 73
-0.36931932 2.3978753 0.46459484 7
-0.29303122 2.4909744 0.4929533 49
-0.75749224 3.5542998 0.5298152 13
-0.7334922 3.5662405 0.45862716 46
-2.7392881 5.7397985 0.55923617 73
-2.4268343 5.7658811 0.50551289 45
-2.193306 6.434639 0.49675167 85
-1.3938135 -2.0169675 0.74207199 31
-1.2332833 -1.927861 0.69306886 28
-1.1070879 -1.8758554 0.68639517 34
-1.0157213 -1.8282286 0.63164133 36.5
-0.82790285 -1.7330058 0.65350676 7
-0.68995136 -1.6721069 0.70678139 12
-0.48949987 -1.5596989 0.71677768 47
-0.37497833 -1.5212594 0.63574183 42.666668
-0.26426223 -1.5275016 0.61631221 6
-0.3488417 -1.4973685 0.67045331 41
-0.23983112 -1.438185 0.69846243 53
-0.13489008 -1.3817958 0.71372414 39
-0.060476549 -1.336987 0.71414578 41
0.078306377 -1.2676002 0.73460883 40.5
-1.2289511 0.099864304 0.64700836 5.6666665
-1.1849092 0.096227042 0.70559925 3.3333333
-1.2181879 0.18586245 0.66017962 8.8000002
-1.1917616 0.16624106 0.67336452 7
0.25262871 1.0400796 0.61882222 8.5
0.19921799 1.1099451 0.68172979 32.894737
0.10355576 1.2908005 0.67368108 49.57143
0.15454347 1.2121023 0.63068867 61
-2.2959669 2.0747571 0.60853916 33
-2.220824 2.0423808 0.67426574 40
-2.2445183 2.1672063 0.65053689 17
-2.7240114 5.7548594 0.66406012 63
-2.6124663 5.7365479 0.72259533 63
-2.1830518 6.4384575 0.61801004 82
-2.1788213 6.4504852 0.74636304 71
-1.9031645 6.5859056 0.72255147 72
-1.8090132 6.6304474 0.71881604 50
-1.4802533 -2.0640104 0.89861524 26
-1.2926794 -1.9677434 0.84969133 24.5
-1.2214886 -1.927235 0.79193616 32
-1.1672729 -1.9024415 0.77289265 31.5
-0.92225277 -1.7961413 0.89452553 5
-0.81554693 -1.7355441 0.84635425 20
-0.60710859 -1.6247723 0.85782349 40
-0.48982638 -1.5645685 0.84652764 47
-0.40763977 -1.5432063 0.78424996 34.5
-0.23058806 -1.4250207 0.82415599 62.111111
-0.12382202 -1.3655583 0.80671811 73.5
0.34786534 -1.4663492 0.76296139 1
0.52920818 -1.3569108 0.80620289 1
-0.00079299806 -1.3135751 0.86593413 62
0.052980829 -1.285476 0.81601602 61.700001
0.20497239 -1.2126603 0.83788121 59.200001
0.66181552 -1.2927873 0.82612067 1.5
0.27133256 -1.1779752 0.81598115 58
0.33498874 -1.1409662 0.8062079 45.166668
-1.2734135 -0.0064457934 0.77020538 2
-1.3204677 0.02993449 0.77041268 4
-1.1615701 0.046470262 0.7694096 3.5
-1.1517683 0.18713585 0.77391005 2.5
0.1347211 1.1818609 0.83371198 50
0.16437168 1.138157 0.79906011 53
0.095142953 1.2583556 0.83055353 42.875
-2.3364024 2.0229688 0.81265211 6
-2.2051966 2.0689981 0.7615943 23
-2.3803639 5.7606883 0.76166129 12
-3.2723966 5.8997221 0.82597816 113
-2.9167058 6.0613232 0.79897052 94
-2.759995 6.0691967 0.84956717 65
-2.1017992 6.4796462 0.79492378 82
-1.6935909 6.6944771 0.8968333 42
-1.4122928 -2.0347612 0.98940879 21.333334
-1.324576 -1.9925759 0.91187334 28
-0.98016119 -1.8132536 1.0162503 17.5
-0.74223632 -1.6912143 1.0222158 40
-0.63369131 -1.6386793 0.96370828 41
-0.54919183 -1.5953329 0.96461111 44
-0.37911525 -1.5050284 1.037586 48
-0.35346371 -1.4863939 1.0126271 57
-0.2373054 -1.4278944 0.94377005 58.200001
-0.037940003 -1.3302239 0.9691779 61
0.10127716 -1.2643608 0.99998963 62.375
0.18107286 -1.2249635 0.95766038 61.625
0.25574169 -1.1797981 0.95116967 60.42857
0.12582415 1.168985 0.92891318 46
0.073012531 1.2463833 0.9803378 45.583332
-3.6583683 5.6978087 1.0372318 108
-3.3654642 5.8411918 0.99798226 101
-3.1963694 5.9193792 0.97724301 100.5
-2.8996201 6.0779552 0.92921507 96
-2.82057 6.1126184 0.94105035 90
-2.4999466 6.2904291 1.0133057 44
-2.2643986 6.4012966 0.9816736 62
-2.1826982 6.4441228 0.96667075 63
-2.1062777 6.483098 0.95471501 61
-2.0641737 6.5067272 0.95056587 70.5
2.0381992 -2.3192554 1.0903451 0
-1.7916225 -2.2253449 1.159494 23
-1.5659317 -2.1109381 1.105289 12
-1.515425 -2.0877311 1.0999328 12
-1.2586272 -1.9665024 1.1718181 12
-1.0847019 -1.8755879 1.0942225 10
-1.024701 -1.8472433 1.0587659 5
-0.76710361 -1.7049783 1.1387268 34
-0.66264153 -1.6571292 1.1270303 40.5
-0.46880278 -1.5457125 1.1795224 52.666668
-0.38013688 -1.4947762 1.1485299 50
-0.29743546 -1.4550579 1.1019851 63
-0.11949823 -1.3708483 1.0988604 61
-0.050925005 -1.3367472 1.1181016 59.333332
0.098027065 -1.2675117 1.1378195 60.599998
0.18072301 -1.2186543 1.1314029 62.75
0.22089817 -1.1893219 1.0884517 76
0.089440987 1.1956241 1.071951 42
0.037918892 1.2618353 1.1381706 39.142857
-3.6218798 5.7128839 1.1689293 98
-3.3252192 5.8549409 1.165272 101
-3.1919274 5.9274254 1.1133087 97.75
-2.9220517 6.0608683 1.0848203 88
-2.4766052 6.2920971 1.1902988 64
-2.4266782 6.3201981 1.1519032 61
-2.0797982 6.5118637 1.1315211 77
-1.6926568 6.7114334 1.0536356 84
-1.4587147 -2.0707347 1.2858772 5
-1.2806535 -1.9760365 1.3198061 25.5
-1.2084469 -1.9366087 1.2852427 25
-1.1598141 -1.910967 1.2377778 27
-0.90122557 -1.7707219 1.2231821 35
-0.78586996 -1.7237614 1.259773 32
-0.53768563 -1.573015 1.3075867 47.5
-0.43241787 -1.5596752 1.2067461 16
-3.5469007 -1.3923931 1.332648 53
-3.301676 -1.4944385 1.3492823 24
-0.37805232 -1.4957904 1.3045683 61
-0.19040658 -1.4072385 1.2418531 63.333332
-0.13267434 -1.3762391 1.2889241 66
-3.6855068 -1.259299 1.344671 47
-0.031902999 -1.3340136 1.256647 64
0.076464139 -1.2742214 1.2766621 66.599998
0.18298905 -1.2092106 1.201188 74
-3.8337305 -1.1823295 1.3364377 50
-0.0047528474 1.291615 1.2818675 17
0.0027038574 1.2863386 1.3082252 38
-3.7660453 3.2969487 1.2229582 83
-3.7092202 3.3173902 1.3475668 87
-3.7609825 5.6452055 1.212823 17
-3.5608084 5.7391191 1.2768527 90
-3.2399039 5.8941135 1.2678773 92
-2.8930533 6.0770588 1.2298054 88
-2.6236651 6.2246337 1.2397989 79
-2.5477791 6.2555509 1.2095232 73
-2.0644448 6.5113091 1.2923588 79
-1.670311 -2.0621197 1.4698912 72
-1.5083759 -2.0814869 1.4375665 13
-1.4927963 -1.9982424 1.4994785 76
-1.3291216 -1.9939551 1.4127125 20
-1.7411555 -1.8407077 1.4729739 26
-1.6132475 -1.9180889 1.481683 67
-1.1036285 -1.8874261 1.4971421 40
-0.94425434 -1.808767 1.4930651 33
-1.5176992 -1.7323639 1.4577341 14
-1.4799353 -1.7520437 1.4910365 7
-0.92863268 -1.7941092 1.3611151 35
-0.80374396 -1.7403792 1.3919314 38
-2.8834293 -1.5397258 1.4256305 47
-0.54597282 -1.5832371 1.3853 48
-3.4637058 -1.3825159 1.363313 38
-3.3510923 -1.4243096 1.3797448 47
-3.2077241 -1.4232969 1.3861246 39
-3.076478 -1.4284135 1.4072872 70
-2.9791155 -1.4535244 1.4205461 69
-2.7501764 -1.4482665 1.4595232 65
-2.5932288 -1.4605739 1.4808474 67.5
-0.31024584 -1.4703628 1.3980966 61
-0.23997664 -1.4318449 1.3963083 63.799999
-0.095666282 -1.3671638 1.3989463 64.666664
-3.5707974 -1.3064903 1.3576407 54
-3.3482847 -1.2369255 1.375483 74
-3.2536004 -1.2497644 1.4050468 78
-3.0927944 -1.3039542 1.4222507 71.666664
-2.9398892 -1.2731425 1.4419154 68
-2.7666874 -1.2530441 1.4715271 67
-2.6381752 -1.2759596 1.4886349 67
-2.5225163 -1.3123049 1.4949048 67
-0.024396945 -1.3295908 1.4039165 59
0.058880046 -1.2823159 1.4230061 65.166664
-3.5354362 -1.1133475 1.3680179 77
-3.3774178 -1.164294 1.3980787 86
-3.166193 -1.103061 1.4195718 72.5
-3.1271677 -1.1379802 1.4282572 73
-2.9355574 -1.0669701 1.4599309 69.5
-2.8007274 -1.1741873 1.4696146 76
-2.6879196 -1.0928533 1.4961019 73.5
-3.7173977 -0.97605783 1.3632959 82
-3.5984747 -1.0344195 1.3769572 80
-3.3510833 -0.96232665 1.4087696 83.75
-3.1990709 -1.0336505 1.4331751 82
-3.0633163 -0.96074104 1.4461317 76.666664
-2.8159847 -0.98649549 1.48314 73.5
-3.8618181 -0.89123172 1.3539927 88
-3.613061 -0.80144054 1.3804246 77.5
-3.5116801 -0.84857619 1.3977886 72
-3.1932888 -0.84766638 1.4435956 80.75
-3.0500002 -0.76508176 1.4620513 77
-2.9545732 -0.8387754 1.4736086 79
-2.8285193 -0.79151839 1.4998784 74
-3.8905468 -0.60511571 1.3706859 96
-3.3766913 -0.7108562 1.4244325 81.25
-3.1976461 -0.63894582 1.4570786 81.5
-3.0497172 -0.74685568 1.4704611 77
-2.8969791 -0.68907237 1.4951518 79.5
-3.641094 -0.53390872 1.3967767 83.5
-3.5346456 -0.58864367 1.4131759 86
-3.3892508 -0.47758362 1.4401804 83.333336
-3.2533364 -0.56759745 1.4699087 40
-3.0598881 -0.55102444 1.4829072 80.666664
-3.7715511 -0.41889578 1.3936945 91
-3.5761523 -0.33125201 1.4385082 5
-3.4475074 -0.41453528 1.4439797 90
-3.2280414 -0.38755026 1.4714695 87.599998
-3.0849953 -0.34058517 1.493993 80
-3.6670346 -0.2952241 1.4045825 9
-3.3819795 -0.25642461 1.4660519 5
-3.2186816 -0.17800553 1.4821205 9
-3.3187289 0.1073934 1.492449 39.5
0.0086311819 1.2571579 1.3509579 42
-4.0948367 3.123163 1.3935068 83
-3.854835 3.2439826 1.361069 85
-3.6853564 3.3275352 1.3714336 86
-4.1708226 5.4496794 1.4348334 82
-3.9502847 5.5525932 1.4508834 4
-3.7134788 5.6668959 1.3914007 101
-3.5586433 5.7452531 1.4260966 96
-3.2712672 5.8853517 1.4605412 86.5
-2.902983 6.0775504 1.4483232 77
-2.8133197 6.1251097 1.3760939 75
-2.4588068 6.3219848 1.3631001 83
-1.718565 6.6889343 1.4453082 84
2.0289712 -2.3568161 1.5666959 0
-1.4297128 -1.9888668 1.5225639 53.75
-1.4522039 -1.8297795 1.5258732 64.666664
-1.0968919 -1.8372872 1.5743381 72
-1.860396 -1.6887912 1.5442398 71
-1.7061915 -1.7325407 1.5693774 61
-1.5626968 -1.6917192 1.59884 80
-1.2194618 -1.7657686 1.5597997 74
-1.1189454 -1.7033669 1.5818079 70.5
-0.94299757 -1.7822131 1.5912308 36
-0.71230155 -1.6635011 1.592764 41.333332
-1.7985036 -1.5867821 1.5658538 66
-1.6159716 -1.5728683 1.6031481 36.333332
-1.3041549 -1.5932833 1.6300597 60
-1.097683 -1.5184654 1.5669641 18.5
-1.0196483 -1.6420114 1.5998878 74
-0.81505507 -1.5646772 1.6487793 84
-0.64249974 -1.6328394 1.5914476 50.5
-0.53831369 -1.5807562 1.5871905 29.333334
-0.3946695 -1.5140897 1.5857813 64
-2.3825235 -1.4254496 1.5066987 55
-2.1398964 -1.412179 1.5470504 65.333336
-2.0541863 -1.4745944 1.5545084 60
-1.8875973 -1.4390762 1.5627556 64
-1.6937218 -1.4581771 1.6002808 32.5
-1.6095294 -1.4949938 1.6137029 34
-1.4087278 -1.4714266 1.6403462 76
-0.90426028 -1.3877306 1.5882392 29
-0.83226758 -1.3707438 1.5908917 17.666666
-0.73621833 -1.365459 1.5925221 14
-0.32662386 -1.4800049 1.57986 69.5
-0.24338385 -1.4395313 1.5826113 58.599998
-0.10726678 -1.3724215 1.5603408 60.25
-2.4726663 -1.2441796 1.5097408 62.5
-2.291332 -1.3233547 1.5266353 69
-2.1849353 -1.2629104 1.5494388 65
-2.0259798 -1.2814802 1.5643477 66
-1.9057369 -1.2095357 1.581659 28
-1.7413876 -1.2827041 1.606431 31
-1.6323254 -1.3274846 1.6260134 61.5
-1.4689033 -1.2955897 1.6400009 73
-0.76538259 -1.3372835 1.5836926 11
-0.68515164 -1.284109 1.585084 10
-0.56318295 -1.2659049 1.6297648 27
-0.034748361 -1.3338238 1.5646453 60.5
0.049096707 -1.2888576 1.5929142 63.666668
-2.561821 -1.0862494 1.5068076 67
-2.53545 -1.0693952 1.5168689 64
-2.2947576 -1.1208961 1.5414197 67.5
-2.1925414 -1.181079 1.5579891 61
-2.0580957 -1.0905691 1.572942 66
-1.8373677 -1.1467099 1.5981543 28
-1.7442759 -1.1116964 1.6198082 62.75
-1.5859482 -1.1480269 1.642936 68
-0.37527886 -1.1720167 1.6378137 14
-2.6189902 -0.9902975 1.5112312 63
-2.4645131 -1.0012809 1.529989 63
-2.3305643 -0.92320025 1.5526501 71
-2.1797423 -0.99549609 1.5689688 68.75
-2.0090115 -0.9643712 1.5894936 29.5
-1.8418504 -0.9417336 1.6200217 59.333332
-1.7152071 -0.98176122 1.6382853 71.333336
-2.7105036 -0.87657374 1.5040572 70.5
-2.6142497 -0.82348543 1.5213355 68
-2.5191474 -0.82972503 1.5323433 70
-2.2825367 -0.86213607 1.5661918 67
-2.2027206 -0.82496607 1.5764911 68.5
-1.9940665 -0.85051954 1.6041338 30
-1.8821774 -0.79004675 1.6185585 73.5
-1.7634373 -0.80689001 1.6440388 76.5
-2.737062 -0.66660881 1.5163522 71
-2.5907688 -0.65894818 1.537698 74
-2.4080315 -0.73728168 1.5586977 70
-2.2930236 -0.66627067 1.5735989 77.666664
-2.157711 -0.70665681 1.5979171 39.5
-2.025317 -0.67485809 1.608405 47
-1.8703015 -0.68044984 1.6351477 75
-2.8929594 -0.5184139 1.5020912 81
-2.7892044 -0.49245694 1.5215926 74.666664
-2.606461 -0.5260002 1.5482575 78.5
-2.4792614 -0.56711549 1.5554373 72
-2.3405077 -0.51080441 1.5794992 82.5
-2.1557126 -0.52836114 1.6082058 31.333334
-2.0186696 -0.48582679 1.6242998 86.5
-1.8992205 -0.51753068 1.6452551 74
-2.9091406 -0.35563087 1.5155149 80
-2.6540685 -0.40163574 1.5459237 81.5
-2.5056973 -0.36987549 1.5647938 73
-2.3321531 -0.35354367 1.5914263 48.666668
-2.167753 -0.34926939 1.6186308 49
-2.0448656 -0.31371534 1.6339221 85
-3.213064 -0.18477824 1.5000741 11
-3.079879 -0.29252976 1.5011507 80
-2.9479568 -0.21600543 1.5270064 83
-2.7837505 -0.24902135 1.5404487 76
-2.6214483 -0.21252781 1.5647495 76
-2.484504 -0.16027007 1.5802056 79
-2.2856319 -0.22890928 1.6114781 28
-2.1437416 -0.22342336 1.6350802 77
-2.8992252 -0.1095359 1.5451676 13
-2.5695467 -0.091613099 1.5833451 79
-2.4057808 -0.13890472 1.6023234 35
-2.3297868 -0.084604055 1.6126654 47
-2.1581898 -0.12119298 1.6358916 83.25
-3.2160482 0.11942702 1.5101489 41.5
-2.4305263 0.045785837 1.6111774 38
-2.3387198 0.10935315 1.6277092 64
-2.2058139 0.038211204 1.6425109 88
-2.4461901 0.23523028 1.613542 46
-2.3898859 0.27543196 1.6363474 17
-2.9938829 1.1011647 1.6156701 2
-0.034152109 1.2853612 1.5124871 2
-3.6945939 1.4800496 1.5425026 66
-3.5066481 1.460062 1.5733786 88.5
-3.6865964 1.5000674 1.5494639 81
-3.5723894 1.5057493 1.5645015 82
-3.3653886 1.6104224 1.607439 90
-3.5623064 1.7462467 1.5883284 86
-3.3997056 1.780488 1.6092457 80
-3.2054284 1.7329191 1.6273986 83.666664
-3.0510168 1.6568797 1.6377686 81
-3.7521968 1.8349515 1.5664275 68
-3.670475 1.8504748 1.5760238 83
-3.3971703 1.9356812 1.6256973 41
-3.8481529 2.0832975 1.5691748 76
-3.6066422 2.002465 1.595554 84
-3.4683516 2.0929213 1.6250783 84
-4.1233163 2.1692016 1.5323193 58
-3.7948694 2.2211807 1.5835006 72.5
-3.6331906 2.1965418 1.6061208 73
-3.5775478 2.147248 1.610131 75
-3.376013 2.1391852 1.6351881 76.333336
-4.2855453 2.392067 1.5150313 47
-4.0242634 2.3040824 1.5636894 73.5
-3.6574991 2.3923881 1.6190631 73
-3.4335229 2.2951076 1.646062 76
-3.9103858 2.5046163 1.5951889 76
-3.5299091 2.4859476 1.6461695 70
-4.2027578 2.6261101 1.5585042 71
-3.8685889 2.6575274 1.6108474 65
-3.6722019 2.5970876 1.6327062 68.333336
-4.0788627 2.7529812 1.5902054 68
-3.7141981 2.830533 1.6456598 65
-4.3933005 2.8957751 1.5488392 74
-3.9708765 2.9719007 1.6175526 66
-4.1914654 3.0640016 1.5388165 97
-3.9358096 3.1376209 1.6286772 76
-4.0000949 3.156451 1.5737997 79.333336
-3.7948594 3.2722509 1.51289 95
-3.7356315 3.2915187 1.6499649 91
-4.4145656 5.314693 1.6290575 118
-4.1061568 5.4638195 1.6195223 113
-3.9405298 5.5420456 1.5690392 110.66666
-3.6757884 5.6908879 1.5548981 95
-3.220813 5.9135265 1.6219623 89
-2.8307564 6.1208429 1.59157 87
-2.4335649 6.3230886 1.5309701 89
-2.0114496 6.5431252 1.5929052 89
1.8990624 -2.4204557 1.6528188 0
1.9064119 -2.3815846 1.7356271 0
-0.80894464 -1.5694926 1.6542528 79
-0.71544522 -1.5685558 1.6674763 83.5
-1.3518831 -1.3940687 1.6522251 77
-1.2307274 -1.4797144 1.6572043 79
-1.1780837 -1.4082173 1.673983 77
-0.84513301 -1.4415145 1.6858202 61.5
-0.63836145 -1.4648086 1.6841706 81
-0.5029093 -1.426635 1.6969216 91.75
-0.38724765 -1.4498613 1.7133766 77.199997
-0.2059931 -1.3843409 1.7033628 54.666668
-1.4107291 -1.2332116 1.6547018 76
-1.2662623 -1.3009892 1.6735086 84
-0.96062028 -1.2907225 1.726976 84.599998
-0.84443563 -1.306996 1.7433097 92.25
-0.657511 -1.264307 1.7363416 74
-0.51997828 -1.2799238 1.7054628 72
-0.36137381 -1.2826262 1.7145621 73.285713
-0.2138636 -1.2758745 1.74536 77
-0.088145912 -1.3047118 1.7343304 58.875
0.018589448 -1.2990319 1.7372094 59
-1.4074011 -1.1296074 1.6658261 80
-1.2897724 -1.1335191 1.6850282 86
-1.0879387 -1.1839681 1.7238201 87
-0.98067313 -1.1531752 1.7334067 90.166664
-0.78778368 -1.1165895 1.759034 90.666664
-0.66959691 -1.1508672 1.7708048 86.5
-0.52199578 -1.1307979 1.7708914 59.333332
-0.37189102 -1.1426336 1.7240847 35.666668
-0.22395644 -1.1239004 1.7066454 40.857143
-0.086077414 -1.150539 1.7578748 65.666664
-1.5439757 -0.94179231 1.6599892 75
-1.4013046 -1.0360935 1.6742021 80
-1.3364203 -0.99585015 1.6873807 84
-1.1127675 -0.97794455 1.7235115 86.599998
-0.99696684 -0.98409605 1.7394265 84.5
-0.83363199 -0.96288478 1.7677724 75.199997
-0.66630566 -0.97070706 1.7816995 77.25
-0.56744188 -0.98180085 1.7904125 68.333336
-0.44928008 -1.0402857 1.7998179 54
-1.6899207 -0.84941369 1.6572672 78
-1.5854042 -0.78315699 1.66722 84
-1.4115752 -0.87493956 1.6825299 85.5
-1.127731 -0.81725639 1.7289395 79.833336
-0.97959834 -0.81064254 1.7527944 79.25
-0.82496905 -0.82333118 1.7712989 66.666664
-0.67756945 -0.81307155 1.7919149 80.285713
-0.55845129 -0.83834791 1.799657 79
-1.8148438 -0.62521923 1.6518162 78
-1.7050613 -0.66704154 1.6646103 75.333336
-1.584479 -0.61365986 1.6746062 87
-1.4519453 -0.7378211 1.6904625 93
-1.2467874 -0.66271949 1.7231604 73.333336
-1.117049 -0.67627972 1.7427918 77.599998
-0.9633221 -0.67700648 1.7602345 85
-0.81829739 -0.68588847 1.7770774 85.400002
-0.6840598 -0.68489081 1.7942176 83
-1.8289404 -0.4625515 1.6584684 78
-1.7227697 -0.5105347 1.6722922 75.666664
-1.5558182 -0.50642115 1.6798472 71
-1.4688126 -0.52749175 1.7064499 91.5
-1.2492124 -0.50306332 1.732371 72.25
-1.1168326 -0.52302724 1.7496821 78
-0.94756287 -0.50245935 1.7697023 86.400002
-0.80711865 -0.53646195 1.7903521 88.25
-0.70443439 -0.58306688 1.7971586 77
-1.8954691 -0.33585119 1.6600009 79
-1.7372073 -0.35576022 1.6830306 82
-1.5685598 -0.31462553 1.6919928 74.666664
-1.2724686 -0.34864637 1.7373061 81.25
-1.1335328 -0.37426496 1.7562736 82.5
-0.97258663 -0.3663829 1.7762262 84.25
-0.84242374 -0.36748877 1.7983402 85.333336
-1.9137456 -0.23496711 1.6682318 82
-1.7239858 -0.20326565 1.6964554 95.333336
-1.5634148 -0.17814651 1.7132567 100
-1.2574551 -0.22073093 1.7501239 83.25
-1.1439947 -0.22493172 1.7711163 89.400002
-0.98989046 -0.22882803 1.7836851 83.400002
-0.87515074 -0.27865782 1.7990559 76
-2.0036259 -0.14179316 1.6581041 84.5
-1.8841536 -0.10060866 1.6784822 87
-1.7471343 -0.10089894 1.7013317 87.333336
-1.5836742 -0.034771267 1.7243084 60.5
-1.3799655 -0.041002452 1.7866226 73
-1.0613813 -0.082080051 1.7800879 81.5
-0.99462408 -0.082655042 1.7891092 78.666664
-2.1259453 0.040625606 1.6592642 6
-1.9912963 0.018111128 1.6732975 3
-1.8490129 0.023505216 1.691044 87
-1.7298371 0.040173594 1.7101816 92.25
-1.6011534 0.11012024 1.7389573 69.5
-1.3842432 0.10423299 1.7896398 66
-1.0618329 0.070924401 1.7962124 84.5
-1.7316992 0.19693786 1.7229472 66
-1.6078343 0.25965601 1.7412857 92.5
-1.3711199 0.24882346 1.7692546 57
-1.3275359 0.2096184 1.7812872 45
-1.1676749 0.21974583 1.7960564 74.666664
-1.7279348 0.35680795 1.7347497 83.75
-1.6169789 0.41543579 1.7567477 89
-1.36774 0.39818105 1.7827729 101
-1.2760437 0.37378097 1.7845809 74.800003
-2.2047515 0.58541805 1.6852247 87
-2.0654218 0.55343598 1.7017217 87.5
-1.8270978 0.52692854 1.7311524 83
-1.7192614 0.52007663 1.7483244 90.75
-1.5913601 0.54457188 1.7661167 87
-1.3598626 0.55217302 1.7977997 100
-1.3375208 0.50161505 1.7969056 96
-2.2858148 0.74266911 1.6825732 75
-2.1592534 0.62738109 1.6943804 86.666664
-2.044553 0.71866429 1.7153729 90
-1.8513341 0.67600203 1.7381108 84
-1.7045443 0.68692982 1.7601364 89.25
-1.6177301 0.65705013 1.7730426 84.5
-2.1863842 0.81490594 1.7055014 62.333332
-2.0986166 0.7920633 1.7163521 85.5
-1.8735464 0.8410061 1.7454942 80
-1.7307118 0.87069607 1.7688613 86.666664
-1.6206051 0.81536102 1.7838131 91.666664
-2.2714176 0.95323741 1.6979171 85
-2.141504 0.99208277 1.7234812 88.333336
-2.0656743 0.960361 1.7337136 85
-1.8447876 1.0389212 1.7619976 80
-1.680194 0.96823269 1.7838117 87.5
-1.6168222 0.95258904 1.7944781 88
-2.5583043 1.1376675 1.6826133 85
-2.3091218 1.1663275 1.7098027 79.5
-2.1791024 1.1313393 1.7280923 80.5
-2.0753512 1.154084 1.7455065 85.5
-1.7073041 1.0830278 1.7856859 80.666664
-2.5547743 1.3246027 1.6873881 79
-2.1634157 1.276792 1.740126 80
-2.0499203 1.2007483 1.7497967 77
-1.8108914 1.2466191 1.782746 78
-2.7835336 1.4316151 1.6636981 78.5
-2.6575451 1.3925184 1.6786186 82.333336
-2.5464909 1.3703616 1.700631 80
-2.3468413 1.407432 1.725849 78
-2.1626294 1.4352471 1.7529774 79
-2.0638716 1.3956699 1.7760676 57.333332
-2.6191378 1.6260601 1.6997048 81.333336
-2.5304863 1.6189117 1.7189125 87
-2.1739273 1.5567549 1.764732 82
-2.0458968 1.6183556 1.7863001 81.666664
-3.0083158 1.6923045 1.6541291 86
-2.9543757 1.7015661 1.655182 87
-2.7768946 1.7185967 1.6825273 82.5
-2.6829486 1.7056079 1.6951975 89
-2.318388 1.6684774 1.7445203 76
-2.1579309 1.7034175 1.777038 72.5
-2.0774009 1.6640428 1.7856199 79
-2.6173146 1.9121188 1.7160501 84
-2.5077281 1.8822252 1.7359608 90
-2.2811882 1.9482045 1.7669133 71
-2.1557178 1.8720644 1.7851214 74
-3.2034302 2.0596917 1.6544796 85
-3.065346 1.9978027 1.6746039 91.5
-2.9584749 2.033906 1.6834306 73
-2.7688828 2.0295141 1.7044717 78.5
-2.6812379 2.0118015 1.7137221 82
-2.6111925 2.2119844 1.7420154 83.5
-2.4858835 2.1705794 1.7598747 84
-3.0831861 2.340961 1.6920575 77
-2.9536078 2.3939383 1.7094673 73
-2.7799554 2.3114991 1.7255076 70
-2.6615472 2.3151555 1.7431008 89.5
-2.2348266 2.2525902 1.7915763 73
-3.3812203 2.5180368 1.6618829 70
-3.2249236 2.4240122 1.6743842 73.5
-2.7477312 2.4446785 1.7467688 94
-2.609482 2.547745 1.7714368 90
-2.4703202 2.5010946 1.7980045 113
-3.4482999 2.5675561 1.6559175 65
-2.7682641 2.6882493 1.7599965 73
-2.6339474 2.6216846 1.7787045 91.5
-3.4766483 2.7007854 1.6700181 68
-3.22861 2.8056262 1.700766 62.666668
-3.0352359 2.7148745 1.7258598 70
-2.9422064 2.7927542 1.7384003 62
-2.7258854 2.8284667 1.7702397 57
-2.6781306 2.7343678 1.7727004 93
-3.611455 2.9435997 1.6752971 64
-3.4631424 2.9909267 1.6881572 68
-3.3642094 2.9266286 1.692928 65
-2.6095123 2.9410191 1.7928289 60
-3.7668686 3.0411468 1.6538457 66
-3.7087605 3.0056045 1.6543247 64
-3.4812963 3.026684 1.6861902 68
-3.0474222 3.1445639 1.7588254 62
-2.742295 3.0995259 1.7913166 63
-2.634172 3.0486264 1.7954005 59
-3.7225068 3.1550446 1.6630911 67
-3.5342772 3.1699798 1.7011884 66
-3.2436042 3.2207439 1.7380024 62
-2.9357548 3.2567759 1.7802769 66
-2.6600916 3.154274 1.7998639 54
-3.3620253 3.3763433 1.7262924 62
-3.2597995 3.3100584 1.7390374 64
-3.4976821 3.5168731 1.7162765 61.5
-3.5729227 3.682565 1.7186955 38
-3.0577614 3.6372275 1.7931691 65
-3.3738325 3.895462 1.7640697 58
-3.2883801 3.804749 1.7695544 57.5
-3.4586709 4.0327449 1.768979 54
-3.9012563 4.1763468 1.714794 23
-3.7950401 4.0846901 1.7341009 59
-3.5410612 4.1280451 1.759748 32
-3.9626682 4.2496543 1.721964 22
-3.6520286 4.3275685 1.7584997 24
-4.148139 4.4351559 1.7158993 17
-3.8269727 4.378468 1.7362994 50
-4.3595533 4.6243978 1.6949004 17
-3.937026 4.610971 1.7411739 43
-4.2477922 4.9162092 1.7160302 39
-3.9784193 4.9029074 1.7646379 33
-4.0834475 5.0426378 1.7596651 40
-4.2947149 5.2311068 1.730415 45
-3.8950396 5.1813517 1.7859114 31
-4.3631701 5.3438525 1.6771821 110
-4.289444 5.2947922 1.7665869 49
-3.994 5.5062108 1.7220163 93.5
-3.9235907 5.5611916 1.7328616 104
-3.683732 5.6833177 1.6732391 101
-3.6320975 5.7046785 1.7193662 97
-3.3459632 5.8634257 1.7618395 96
-3.2641308 5.8975086 1.6852034 91
-2.8010056 6.1327987 1.7686018 89
-2.157469 6.479342 1.7161189 89
-2.0111804 6.5391798 1.7399004 92.5
-1.9234694 6.5837069 1.6867005 93
-1.8234681 6.6362319 1.6628646 99
-1.5858727 6.759408 1.7334856 94
-0.3643226 -1.0952826 1.807618 55.5
-0.24107616 -1.0638815 1.8118167 34
-0.49943945 -0.96116471 1.802842 62
-0.39237654 -0.99077696 1.8142926 49.166668
-0.22740707 -0.97987294 1.8222957 39.25
-0.53363007 -0.83022338 1.8087944 71.428574
-0.38043648 -0.85474032 1.8274671 59
-0.26373631 -0.82913852 1.8489134 52.5
-0.6383763 -0.68824434 1.8027638 80.5
-0.51735759 -0.65719324 1.821901 79
-0.39288095 -0.68203503 1.8399907 72
-0.7584728 -0.45473811 1.8041531 77
-0.6897651 -0.52723223 1.8085239 80.14286
-0.52327698 -0.52962011 1.8314124 77.14286
-0.3889727 -0.49784786 1.8532461 73.5
-0.78967023 -0.36879161 1.804864 81
-0.6718232 -0.37746125 1.8209186 82.63636
-0.52350867 -0.39270958 1.8417742 78.599998
-0.42091405 -0.37558883 1.8529474 78
-1.3781872 -0.1878411 1.8026775 116
-0.81251144 -0.22456975 1.8132756 80.699997
-0.67594796 -0.21742217 1.8335419 79.599998
-0.53905368 -0.22849357 1.8524631 77.285713
-0.43814158 -0.29562256 1.8581263 78
-1.360593 -0.082681343 1.8164295 114
-1.2723508 -0.07586804 1.8372459 150
-1.1599584 -0.084781393 1.8400306 126.5
-0.93656433 -0.03399102 1.8051755 81.5
-0.81720471 -0.080895342 1.8215514 80.307693
-0.68064612 -0.068834871 1.8435423 80.599998
-0.53716791 -0.087227702 1.8612148 79
-1.3768531 0.062632382 1.8363367 90
-1.2821292 0.076048754 1.8381231 129.8
-1.1754947 0.067120858 1.8391801 100.66666
-0.96027118 0.080993712 1.8127255 83
-0.83053303 0.074580982 1.8312374 80.699997
-0.68215334 0.078719959 1.8535 82
-0.55542547 0.065740466 1.8682389 80.5
-1.2701411 0.23080215 1.8193815 44.5
-1.0583096 0.22929376 1.8068438 85
-0.95029199 0.21883678 1.8230622 78.75
-0.8186357 0.22630985 1.8430748 77
-0.68479693 0.23073873 1.8622694 78.599998
-0.54766411 0.2340986 1.8806171 79
-1.1341237 0.36662394 1.8121942 76
-0.97680402 0.37373671 1.8307886 79.75
-0.81386089 0.36716706 1.8544539 74.375
-0.68104613 0.3868565 1.8735203 76.400002
-0.54682082 0.38674328 1.8952233 73.833336
-1.2637175 0.55119836 1.8126131 95.666664
-1.1536231 0.51648861 1.8207393 79.333336
-0.97178465 0.52576894 1.8433057 74.428574
-0.81097525 0.51324064 1.8684518 72.888885
-0.67810792 0.52890307 1.8889618 73.333336
-0.52689236 0.52216709 1.9085109 72
-0.43779558 0.55282599 1.9187065 68
-1.2842324 0.69272864 1.8210886 94.599998
-1.1430161 0.65215659 1.8396715 89.333336
-0.97163689 0.69417083 1.8612704 89.5
-0.81894785 0.674299 1.8770748 74.833336
-0.66846317 0.66120046 1.8970871 74.625
-0.5202055 0.68901098 1.9232209 73.199997
-0.40592527 0.69763875 1.9359471 83.5
-1.2618817 0.84773862 1.8332102 90
-1.1248533 0.78943175 1.8523649 86.666664
-0.96580297 0.82364839 1.8771318 87.666664
-0.81432933 0.82195181 1.8963603 84.5
-0.67884642 0.85427701 1.9283135 67.14286
-0.54282969 0.81635094 1.9350584 91
-1.268617 0.9929595 1.840854 86
-1.1444299 0.99237251 1.8592212 81
-0.97930217 0.94885254 1.8825455 83
-0.82272482 0.98127258 1.9042423 81
-0.66785377 1.0062658 1.9329139 81.666664
-0.55882859 0.96889299 1.9434057 80.666664
-1.5854324 1.1040144 1.8077146 87.333336
-1.2240242 1.1396842 1.8553821 87
-1.106479 1.1654719 1.877436 78.666664
-0.96129739 1.0717036 1.8926479 78
-0.8174845 1.1482797 1.9128613 79.5
-0.68247652 1.1190042 1.9363669 75.75
-0.59598649 1.1318809 1.9485759 69
-1.6994374 1.2784946 1.8049288 75.5
-1.5875145 1.2718832 1.8177875 86.400002
-1.2469649 1.2045302 1.8528315 97
-1.1364269 1.2930901 1.8749129 79.599998
-0.95718002 1.2155503 1.9012729 80
-0.82961273 1.2610834 1.9184541 74.333336
-0.69188744 1.2824011 1.9388548 74.25
-1.7181029 1.4683852 1.8116051 77.5
-1.5938934 1.4613855 1.8347924 78
-1.4831607 1.4721285 1.8475693 70
-1.1387875 1.4110084 1.8772668 79.333336
-0.9869287 1.39185 1.9036404 74.333336
-0.78960365 1.40573 1.9297434 73.5
-0.69545543 1.4282049 1.943025 71
-1.5644193 1.5912297 1.8477746 78.5
-1.1383268 1.5422245 1.887682 78
-1.0146387 1.5335217 1.905355 71.666664
-0.85902131 1.5131884 1.9296745 67
-0.74084395 1.5253726 1.939072 74
-1.7104037 1.6926937 1.8247889 79
-1.5521387 1.7054039 1.8557031 75
-1.4293664 1.6619848 1.867978 68
-1.0680951 1.7134824 1.9095387 68.333336
-0.98640299 1.7081393 1.9230909 66.666664
-0.8445276 1.6844203 1.9450209 62
-2.0495842 1.8852276 1.8038058 74
-1.9469705 1.8591439 1.8138822 69
-1.5768811 1.9126838 1.8690187 74
-1.4317271 1.8864584 1.8862485 74.666664
-0.9696157 1.8807878 1.9335743 59.666668
-0.89911574 1.9031636 1.9495395 55
-2.0799963 2.0183771 1.8116304 70
-1.5473254 1.9719549 1.8822843 74
-1.4719516 2.0218213 1.9011353 77
-1.2956475 2.0797729 1.9176804 66
-0.95628488 1.9645879 1.9346055 64
-2.1139004 2.1564798 1.8098843 72.5
-2.0176361 2.1640451 1.8267641 74
-1.900214 2.1124637 1.8405362 74
-1.5716425 2.2041831 1.8847376 71
-1.446174 2.1619968 1.9075296 67.599998
-2.0431492 2.317754 1.837556 76
-1.8413461 2.3803287 1.8652123 80
-1.4056805 2.3421459 1.9316735 69
-1.2553995 2.3402359 1.9408451 63
-2.0279961 2.4770522 1.8484452 75
-1.94993 2.446605 1.8507491 76
-1.4049482 2.4709959 1.9339403 66
-2.1846819 2.5928323 1.8264869 66
-1.9973736 2.6481369 1.867493 74
-1.7738973 2.6768706 1.8948978 71
-2.4270427 2.8406935 1.8177634 74
-1.9892383 2.7791421 1.8864635 80.5
-1.8837397 2.7712059 1.8864566 79
-2.5798292 2.9634292 1.8033394 71
-2.121145 2.9705725 1.8661684 74
-1.9972759 2.8726854 1.8791567 71
-1.9495702 2.9064405 1.8959895 74
-1.8719273 3.0763087 1.9145231 69.5
-1.6952741 3.0079882 1.9317099 72
-2.7074823 3.2744327 1.8066651 64
-2.3870635 3.2374303 1.8522612 64
-1.9227271 3.1933451 1.916433 67
-2.6217287 3.4127052 1.8312994 60
-2.5436828 3.3973327 1.8408781 66
-2.0368376 3.3875384 1.9052733 61
-1.8774297 3.3759084 1.9370369 64.5
-2.7158816 3.5788171 1.8331653 64
-2.6308548 3.5319605 1.8340672 61
-2.651181 3.6595409 1.8469974 60
-2.342545 3.7020285 1.8983938 65
-2.907186 3.7680218 1.8158399 57
-2.6843386 3.7943773 1.8536216 64
-2.4993298 3.8979685 1.8844596 64
-2.6231146 3.9591708 1.8709031 62
-2.6426322 4.1027374 1.8737174 59.5
-3.0710959 4.2200508 1.8368577 60
-2.6229482 4.2343569 1.8902098 62
-2.2767119 4.2258811 1.9417173 54
-3.339391 4.4601188 1.8134961 52.5
-2.8832524 4.3904872 1.870447 48
-2.6435812 4.3929405 1.9012185 58
-2.4403119 4.4821091 1.9342176 50
-3.4306908 4.5723829 1.8024861 44
-2.6204214 4.6166244 1.9182225 42
-3.5003297 4.7272658 1.8067707 33
-2.6089792 4.7720733 1.9301435 40
-3.5876203 4.8604403 1.8099279 36
-3.0843956 4.9199448 1.8875259 71
-2.5873311 4.9311175 1.9462348 35
-3.7499402 5.1202784 1.8071958 37
-3.4609327 5.2485919 1.8546082 37
-2.8398941 5.121305 1.9279085 71
-3.3330383 5.2688317 1.8738426 36
-3.5082264 5.4238944 1.8564533 29
-3.6159236 5.6749468 1.8614088 80
-3.5836775 5.6390195 1.8775693 46
-3.6019585 5.7323627 1.8359712 122
-3.2088728 5.9269114 1.8249203 91
-2.4156091 6.3346148 1.8144971 88
-2.3075631 6.3911495 1.9305345 89
-2.2177932 6.442842 1.8953141 96
-1.5789264 6.761899 1.9118568 100
-0.70510101 0.79486495 1.9571357 23.5
-0.49781182 0.86415762 1.9513057 84
-0.40091926 0.84432775 1.9576677 86
-0.48352808 0.97578871 1.9575536 77.5
-0.38873953 0.97605962 1.9665216 77
-0.50674015 1.1212139 1.9604913 73.85714
-0.36233392 1.1332337 1.9815769 67.666664
-0.26158041 1.1228478 1.9945389 70.5
-0.60474044 1.2275128 1.9528173 80
-0.51638454 1.2686311 1.9677384 73.199997
-0.37850609 1.2718512 1.987062 68.666664
-0.24532066 1.2751743 2.0043523 68.666664
-0.63502657 1.4473147 1.954083 74.5
-0.52780837 1.3941153 1.9717361 71.75
-0.37671146 1.4039123 1.9923229 69.599998
-0.24149972 1.418684 2.0091758 67
-0.11512645 1.4165711 2.0258026 65
-0.66854668 1.6006908 1.9584897 70
-0.53517491 1.5484588 1.9772851 68.5
-0.36818784 1.537221 2.0005898 69.800003
-0.2151778 1.5752661 2.0306168 66.5
-0.08713986 1.5689325 2.0419018 46.200001
-0.63041055 1.7366109 1.9727772 65
-0.53548479 1.7263772 1.9870107 64
-0.36947635 1.6819062 2.0136302 64.75
-0.21912365 1.7068228 2.034348 55.666668
-0.11072227 1.7493906 2.0526555 27.333334
0.036566462 1.7765791 2.0724292 62
-0.81596243 1.8759118 1.9603494 60
-0.72915357 1.8457268 1.971361 59
-0.50696152 1.8783299 1.9958571 63.666668
-0.39192414 1.8941139 2.017061 60
-0.23341238 1.8404899 2.0483227 50
-0.068598591 1.8706182 2.0698621 44.166668
0.030159365 1.869796 2.0776086 57
-0.90929443 2.0760057 1.9537681 66
-0.85581017 2.0817327 1.9644653 64
-0.68991113 2.0459075 1.9868464 59.5
-0.47978881 2.0012743 2.0093918 62.5
-0.34559441 2.0567234 2.0348434 44.5
-0.21691859 1.9908581 2.0552025 26.5
-0.086701632 1.9985241 2.0764377 50.666668
0.028264832 1.9771625 2.0889621 64.5
-0.90424788 2.185077 1.9598297 63
-0.84672546 2.1530015 1.9724878 58.333332
-0.5584951 2.2181077 2.0181978 57
-0.34620979 2.1581573 2.0413113 27.25
-0.27023271 2.2165709 2.0461683 27
-0.078056164 2.1434748 2.0855505 57.333332
-0.78841561 2.335732 1.9888734 53.333332
-0.66857088 2.3055117 2.0106206 49.5
-0.21015102 2.3161592 2.0671177 50.5
-0.79698265 2.4165716 1.9888271 57
-0.71592057 2.4903021 2.0032158 55
-0.48514798 2.4620838 2.0454669 24
-0.20583983 2.4247701 2.0721972 57
-0.11565331 2.4786205 2.0865259 50.5
-1.3249171 2.6336908 1.9613243 63
-1.1549108 2.5962019 1.9696999 58
-0.66074866 2.6187913 2.0152659 48.666668
-0.58074176 2.5631719 2.0337465 25
-0.33090132 2.6384699 2.0708625 51
-0.040519465 2.5608056 2.0977137 53
-1.3679451 2.79618 1.9519953 60
-1.2859529 2.7672441 1.9724153 60.333332
-1.0013512 2.829927 2.0090375 62
-0.61056364 2.7000105 2.0291991 23
-0.56785578 2.8128974 2.0451062 30
-0.41183156 2.7715597 2.0677323 48
-1.2442855 2.9009292 1.9921356 60
-1.0756028 2.9300845 2.0035894 60
-0.50603497 2.9225979 2.0574179 51.5
-1.2272936 3.0894427 2.0065506 64.5
-1.1680363 3.0847836 2.0135055 58.5
-0.87190378 3.1366856 2.0526571 32
-0.41363814 3.1089315 2.0895309 57
-1.1620016 3.2153449 2.0304041 63
-0.93652928 3.2594595 2.0503671 28
-1.5966491 3.3713555 1.9670624 56
-1.0895003 3.3963523 2.0532928 49
-1.0021043 3.389271 2.049964 29
-1.863232 3.5903969 1.9637316 63
-1.7005622 3.5225046 1.9612185 55
-1.0659431 3.5419528 2.0671194 27.666666
-0.71461576 3.462328 2.0912044 57
-1.8302734 3.6664858 1.9629763 56.5
-0.99924207 3.6892703 2.0890598 47
-0.76775825 3.6106474 2.0910876 56
-1.8740907 3.82868 1.9667395 54.5
-1.4816124 3.7918999 2.0138257 56
-0.82069099 3.7699547 2.0946047 59
-1.7838533 3.9431698 2.0041647 58
-1.5808218 3.9859183 2.0132954 57
-0.88725936 3.9448295 2.0994463 62
-1.7386826 4.1599946 2.0169461 51.333332
-1.3423654 4.2786975 2.0693858 22
-1.803849 4.4190583 2.0102167 51
-1.6908123 4.4241934 2.0445886 49
-1.4335784 4.5214334 2.0735433 28
-1.5780652 4.7390652 2.0834312 30.5
-2.2024367 4.8654737 2.0024483 32
-1.6714352 4.8556685 2.0844712 42
-1.6401083 5.0858936 2.0849597 34
-2.5879238 5.1032448 1.9571139 35
-2.3664901 5.189765 1.9979059 33
-2.6109202 5.4342446 1.9781846 27
-2.5608754 5.5921583 1.9985423 27
-2.100209 5.6321073 2.0696418 29
-3.1101811 5.8133903 1.9608694 32
-2.5375443 5.7998829 2.0188653 27
-2.7878397 6.0478978 2.0102193 33
-2.527555 6.0176854 2.0431082 30
-2.2695918 6.0696578 2.0788064 31
-2.5265241 6.292603 1.9871184 82
-2.4104936 6.3456998 1.9549888 88
-2.3870683 6.3492918 2.0095708 96
-1.9770538 6.5613298 1.9623867 108
-0.96597731 7.0704451 2.0523956 89
-0.79918307 7.1520972 2.0536215 86
-0.71716589 7.1944098 2.0999312 76
-0.64796269 7.2291403 2.0640757 91
0.092879921 2.0517125 2.107615 63
0.085119046 2.161763 2.1159146 57.333332
0.16118155 2.1461051 2.12397 61.5
-0.00051258801 2.3852708 2.1110761 55
0.081602171 2.2878013 2.1220679 57
0.22583388 2.3238602 2.1443415 52.333332
-0.036008436 2.4698842 2.1102469 50
0.2288045 2.4591415 2.1496248 43.5
-0.067378551 2.5920703 2.104275 57
0.097649872 2.6358232 2.1335182 56.333332
0.32747978 2.6813359 2.1787944 56
0.10472281 2.7973342 2.1392958 56.25
0.32232267 2.7894561 2.183233 54
-0.2106612 2.9386964 2.1109698 49
0.22672835 2.9483914 2.164638 57.5
0.31890738 2.8997118 2.1924024 51
-0.27071875 3.1029301 2.1179183 52
0.32039022 3.0753927 2.1970875 55.666668
-0.3506217 3.2200797 2.1082261 52
-0.038161065 3.2215128 2.1594567 51.5
0.40463698 3.1822288 2.2045894 51
0.50923872 3.2558157 2.2351837 53.5
-0.26382464 3.3803482 2.1276641 51.5
-0.074090168 3.4096861 2.1665082 48
0.56075251 3.3796294 2.2407136 53
-0.16994116 3.5755811 2.157604 55.5
-0.11029263 3.5422547 2.1710637 57
0.16318338 3.524292 2.2070684 54.5
-0.09382686 3.693095 2.1689689 52
0.15517883 3.7370281 2.2165606 53
-0.93901521 3.8226707 2.1082001 56
-0.53106248 3.8398798 2.1437783 58
-0.010591644 3.8169317 2.2070084 45
-0.9146347 4.024332 2.1292696 55
-0.88310629 3.9761989 2.1309893 63
-0.5700202 4.0336185 2.1552014 60
0.090053581 3.9520645 2.2225332 54
-0.83203113 4.1734018 2.1500907 58
0.15519978 4.1163154 2.2318621 56
-0.75398606 4.3166342 2.1771603 59
-0.60598421 4.216259 2.1565309 57
-0.31022266 4.2719049 2.2052803 57
-0.66709054 4.4546623 2.1844702 55
-0.32852694 4.4968185 2.2183812 54
-0.72355747 4.6052876 2.2048111 50
-0.6208452 4.7570963 2.2298908 34
-0.34351712 4.7475896 2.2395027 54
-1.1706008 4.8562613 2.1373711 59
-1.590844 5.0212402 2.1035283 39
-1.5200427 5.1970968 2.1330929 33
-1.2446109 5.1423697 2.13849 47
-1.4556872 5.3840442 2.1572225 39
-1.3244512 5.478713 2.1522725 37
-0.95114303 5.5320177 2.2115614 37
-1.5309627 5.6736159 2.1650858 36
-1.4256029 5.8648396 2.1775846 32.5
-1.0075512 5.8994823 2.2218895 38
-1.3293939 6.0481491 2.2282314 37
-1.0684767 6.3441415 2.2494082 32
-1.9554533 6.5572643 2.1425681 89
-0.28578469 7.4303465 2.2481015 65
0.13802303 7.6420102 2.1981368 71
0.39232475 3.7800176 2.2557333 54
0.40759075 3.9345317 2.2618158 54
0.43013996 4.1165881 2.2835615 53
0.6616227 4.1472955 2.3172998 50
0.24991234 4.2128315 2.2609618 52
0.39421073 4.3071437 2.287478 50
0.70183831 4.3182602 2.323842 45
0.34720016 4.5300398 2.2897871 44
0.45835501 4.60007 2.3045952 45
0.75258082 4.5188608 2.3474965 42
0.97839612 4.5493379 2.3777184 25
-0.063697368 4.7789621 2.275322 53
0.56558359 4.6814694 2.3356588 42
0.67768049 4.7706661 2.3590007 46
0.79773277 4.7474432 2.3735826 44
1.0492491 4.7379375 2.3882217 2
-0.52294159 4.8980403 2.2590594 49
-0.39725322 5.0364137 2.2690263 50.5
-0.060155965 5.029099 2.2859001 47.5
0.71426636 5.1293406 2.3786511 33
0.83719891 5.1793184 2.3982637 34
-0.47718221 5.3065729 2.295778 35
-0.051014721 5.310802 2.3069446 36.5
0.25233614 5.3543324 2.3509009 36
-0.34923482 5.4489446 2.3185997 36
-0.23025997 5.588635 2.3537965 38
-0.011364001 5.6713238 2.342685 36
0.24587186 5.6451802 2.3527851 35
0.33158022 5.6703348 2.383811 37
-0.10897388 5.7331266 2.3770835 38
0.28532583 5.9739943 2.3784595 28
-1.2371843 6.247561 2.2556365 33
-0.67179638 6.3814969 2.3122063 33
-1.3412752 6.7397842 2.2748411 34
-1.1465467 6.852531 2.2710459 37
-0.69821966 6.8518548 2.3297813 34
-1.1294627 6.9717846 2.3034315 73
-0.92081624 7.080514 2.2830667 106
-0.7148214 7.2088742 2.291609 83
0.94901127 5.2164936 2.4212482 34
1.2140909 5.1972528 2.4354551 2
1.0695823 5.2704649 2.4387252 35
1.1899087 5.887002 2.5017254 28
1.3164212 5.8807797 2.5140021 29
0.38577914 6.0283093 2.4154994 29
0.59597778 6.0503888 2.4283087 30
0.70442933 6.0648503 2.469152 32
-0.15011135 6.1929617 2.4146929 30
0.075780421 6.3755436 2.4543376 31.5
0.32299554 6.381166 2.41733 33
0.67395633 6.4444909 2.4675152 31
0.29567218 6.5914321 2.507905 34
0.44335437 6.4791684 2.4627755 32
0.79890031 6.4801664 2.5127518 32
0.76756698 6.880209 2.5153513 34
-0.30091092 7.399509 2.4163942 60
0.91172427 6.9397368 2.56317 37
1.0993093 6.9903507 2.5767341 39
1.2405896 6.9528394 2.6080532 37
0.29442674 7.3097901 2.5568852 26
0.47645396 7.4133706 2.5859189 23
0.86306638 7.3809133 2.5593643 26
1.029278 7.460196 2.6056125 27
1.2265779 7.4112053 2.6008489 26
1.3976573 7.4376192 2.653389 23
0.64590752 7.5143256 2.6271527 25
0.82340151 7.6461449 2.666924 26
