# .PCD v0.7 - Point Cloud Data file format
VERSION 0.7
FIELDS x y z intensity
SIZE 4 4 4 4
TYPE F F F F
COUNT 1 1 1 1
WIDTH 252
HEIGHT 1
VIEWPOINT 0 0 0 1 0 0 0
POINTS 252
DATA ascii
2.203898 -4.4909511 -0.80325794 1
1.8723631 -4.1057734 -0.79826015 9
2.2692745 -4.1360116 -0.7832036 1
1.6812468 -3.6947219 -0.8208921 8
1.6962321 -3.5711575 -0.82340145 7
4.7545171 -3.5763221 -0.83053714 1
1.6041083 -3.3153729 -0.81615591 3
1.7541816 -3.2502389 -0.82298046 5
1.9394052 -3.1982317 -0.82457292 1
3.2932718 -3.2113531 -0.82513762 4
1.5243611 -3.0236557 -0.81888068 4
2.8456969 -3.0388911 -0.823825 8
1.4632835 -2.8689449 -0.83047301 4
2.6474922 -2.8632867 -0.83534718 11
1.070899 -2.7366226 -0.82968324 6
1.4412844 -2.7305815 -0.82932693 7
1.1858908 -2.5869222 -0.82612342 10
2.5137131 -2.6796398 -0.83417994 10
1.3237245 -2.5258877 -0.82585752 9
1.4317005 -2.5198574 -0.82930994 9
1.6419479 -2.4702704 -0.83145696 7
2.3155658 -2.4327786 -0.82836968 11
3.653852 -2.4509077 -0.83891577 2
0.79660124 -2.329298 -0.83094436 12.666667
1.305257 -2.3200841 -0.83116031 8.5
2.3384528 -2.274229 -0.83609116 6.5
2.6964576 -2.3958559 -0.83133942 6
0.97006816 -2.2144256 -0.83787924 13
1.2752899 -2.1780415 -0.83223093 12
1.8566437 -2.1857157 -0.83040696 6
2.079047 -2.2218573 -0.82842326 9
2.1470501 -2.1458821 -0.83436412 7
1.2306982 -2.0425379 -0.83326197 7
1.4331325 -1.9666424 -0.83331645 8
2.0412209 -1.8567364 -0.83556324 6
2.3015327 -1.8516431 -0.83262378 7
1.7930713 -1.7319872 -0.83284748 5
1.8353839 -1.7205751 -0.83472669 7
1.9877862 -1.7293323 -0.83663684 6.5
2.8444145 -1.6898897 -0.81677121 0
2.9592707 -1.6537547 -0.75334889 33
3.1383278 -1.5506136 -0.81131899 5
1.920289 -1.4867156 -0.84342724 5
2.044843 -1.4736683 -0.83806771 7
3.0525398 -1.4446974 -0.83494395 5
3.3271918 -1.4448758 -0.80002916 11.5
2.5760167 -1.3141994 -0.83853322 7
2.9788651 -1.2382873 -0.84416533 7
2.6982052 -1.0752975 -0.83615315 7
2.3120089 -0.99184573 -0.84226084 7
2.4551377 1.1186761 -0.81924516 6.5
2.2224572 1.2068764 -0.85192186 13
2.4329731 1.23747 -0.85090023 11
2.1288261 1.4258385 -0.85498208 3
2.3315172 1.4770395 -0.85620278 5
2.5117111 1.4952939 -0.8533721 4
2.6376195 1.3938681 -0.8705225 5
1.8452272 1.7567222 -0.8669365 5
2.0448103 1.698321 -0.86695468 5
2.1205845 1.7157222 -0.8596437 4
2.2944264 1.7596236 -0.86025679 4
2.4641492 1.7934514 -0.85656196 5
1.6816876 1.8413393 -0.8671512 5
2.6335247 1.8071333 -0.85619605 4
2.9300003 1.8051393 -0.87988979 5
3.4817872 1.873439 -0.88977987 7
1.5503603 1.9750686 -0.86741495 5
2.2599862 2.0975988 -0.87278479 7
1.2276363 2.18818 -0.84403038 29.5
2.0519981 2.1827579 -0.87223744 7
2.3533404 2.1527174 -0.86418086 8
2.5121543 2.1839705 -0.86300981 10
2.6577413 2.1977327 -0.85735261 9
2.8108809 2.1975946 -0.85909605 10
-0.19534943 2.3071191 -0.76828986 72.125
1.1620011 2.3049216 -0.79793394 88.199997
1.904273 2.3278694 -0.87570059 7
3.3713703 2.3803415 -0.89224917 8
4.1159544 2.2833135 -0.82578021 8
0.012997936 2.4157829 -0.77055728 97
1.0076535 2.4550829 -0.86895692 11
1.0803465 2.4522955 -0.78638554 83.5
1.7751257 2.5279167 -0.8759135 8
3.9749386 2.4631848 -0.89857841 35
2.5564704 2.6367178 -0.87704104 10
2.0837121 2.839653 -0.80531812 3
2.3412623 2.7707076 -0.8753503 9
2.6849325 2.7524512 -0.86749405 9
2.9366693 2.7953115 -0.86975491 5.5
3.1080399 2.7405343 -0.86726278 1
3.8496358 2.7457273 -0.80854547 25
1.2508376 2.991399 -0.76330137 75
2.736156 2.9089274 -0.76706403 0
1.1514468 3.04268 -0.79383689 65
2.9854257 3.2861943 -0.81952137 32
2.9477587 3.379405 -0.85184014 61.5
-0.55778682 4.0744963 -0.76844364 0
-0.59194803 4.2724643 -0.76542974 1
-0.54020178 4.7552376 -0.85650647 23
-0.57957375 4.8927865 -0.76509327 90
-0.7023291 5.0658765 -0.89919138 3
2.7606838 -5.5854392 -0.70652223 126
3.3256099 -5.2719769 -0.66919023 27
2.8891482 -4.2347555 -0.60165894 18
5.0543699 -4.3021936 -0.67845261 98
2.7430029 -3.9394476 -0.61496341 10
5.2124605 -3.8071392 -0.66717845 63
5.5239544 -3.6317279 -0.65888101 85
2.3510065 -3.2832804 -0.62560779 1
2.1836324 -3.0085003 -0.61699522 2
1.0271046 -2.7229095 -0.60017496 11
1.0576546 -2.7152786 -0.66191351 5
2.0796857 -2.8191497 -0.63670886 4
1.7898667 -2.4214168 -0.62109309 5
1.7866662 -2.301693 -0.63404113 6
1.8298746 -2.2639713 -0.67600965 3.6666667
1.885771 -2.248265 -0.71538675 3
0.55762756 -1.9785056 -0.67759949 4
2.6669865 -1.804324 -0.62049562 1
2.8847637 -1.6971698 -0.68010902 35
3.0787215 -1.5851552 -0.66139835 33.799999
3.3293934 -1.4445156 -0.70813799 32
1.6475172 -0.67468911 -0.61325747 52
1.7997522 0.6344946 -0.6384089 91
1.8707213 0.80402535 -0.63021725 6
2.9281182 1.4293302 -0.73691088 22
0.50659245 1.7868934 -0.64238685 68
0.040538471 1.8533812 -0.63397139 61
3.8263438 1.9199187 -0.70200199 77
1.30264 2.2333279 -0.6997683 44
4.1431479 2.2321787 -0.65141213 107
-0.18481374 2.3100789 -0.64441955 75.800003
-0.081829131 2.3569968 -0.68782371 94.166664
1.1529442 2.3217638 -0.60478842 81
1.3622302 2.2667601 -0.64182591 41
4.0790644 2.3440781 -0.66330671 115
-0.325169 2.5124011 -0.69912761 49.666668
-0.28159913 2.439219 -0.64648038 57.666668
-0.015275436 2.4011583 -0.73610556 96
0.033177447 2.4169717 -0.60491031 108
1.0478443 2.5263062 -0.71264184 136
1.085793 2.4526339 -0.73603743 87.5
3.9724753 2.5378811 -0.74301797 90
-0.36788875 2.5789361 -0.7116363 48
2.1009362 2.8442924 -0.62696695 4
3.822684 2.7866621 -0.65145546 91
2.2154498 2.9316423 -0.68193507 10
2.3029346 2.8878789 -0.6467706 81
1.1639923 3.0577157 -0.69441408 85
1.2211192 3.0518436 -0.73358107 97.5
3.6945677 3.0074468 -0.70460349 92
3.5469317 3.2610486 -0.74098271 92
2.9495192 3.357326 -0.72852653 108
-0.62097812 4.3140597 -0.74252981 0
-0.48840523 4.6583371 -0.7177918 44
3.4386895 -5.2104478 -0.59403527 37
3.3221269 -4.9221854 -0.59441912 6
4.6686025 -4.5153341 -0.4557713 60
2.8953896 -4.2338014 -0.58602458 18
5.1374826 -4.2382751 -0.50211483 108
5.2659659 -4.1907768 -0.58856696 101
5.2232666 -3.9212725 -0.484321 33
5.183372 -3.8675776 -0.51500487 41.5
2.229944 -3.0920749 -0.52818501 1
0.96709496 -2.6536474 -0.54210883 45
1.8475647 -2.4274635 -0.47594455 7
0.78494018 -2.3863721 -0.5548445 9
1.7926443 -2.2920988 -0.58530962 4
1.9665265 -2.2899439 -0.57077456 4
0.67104483 -2.1652579 -0.48316014 4
0.4258393 -1.7438419 -0.53355896 7.5
2.8323615 -1.7261224 -0.5769819 34.333332
2.916955 -1.6879096 -0.52505523 33
1.6330595 -0.65508091 -0.56077063 46.333332
1.5628706 -0.52364463 -0.55298907 63
1.4432304 -0.3240476 -0.4641794 62
1.375051 -0.20148125 -0.47758457 63
1.2626004 0.41288418 -0.45251217 11
1.3938104 0.56416863 -0.45402938 34
1.808733 0.56400436 -0.58658266 1
1.7083552 0.71107298 -0.52242362 137
2.3562295 1.2655038 -0.47429788 0
2.7850847 1.3171817 -0.5923261 26
0.18677403 1.6320697 -0.48675627 67.5
0.1050458 1.7419487 -0.57506388 69.400002
0.29874569 1.6741374 -0.45459774 64
0.37804052 1.7191709 -0.52003556 70.666664
0.48235101 1.7721728 -0.52484727 51.5
0.047332205 1.8470181 -0.52447182 65.5
-0.57092327 2.0233505 -0.47748709 68
0.0020670414 1.9808282 -0.53256547 152
-0.42000729 2.1199074 -0.4787181 38.5
-0.18812937 2.2999396 -0.55310071 69.5
-0.0915832 2.352457 -0.48702475 90.666664
0.043375652 2.3787458 -0.52897364 150
1.1806056 2.2743442 -0.51535809 85.5
1.4276909 2.303169 -0.5255509 42.333332
1.52335 2.3503985 -0.4941375 30
4.0515442 2.3994069 -0.50475705 121
-0.31989625 2.5032637 -0.52940959 57.333332
-0.2892909 2.4518168 -0.57470959 53
-0.015967328 2.4040182 -0.46205789 107
0.019904312 2.4222946 -0.48087764 100
1.0694356 2.4790542 -0.48542711 85.5
3.99177 2.4976773 -0.57597554 103
-0.38010618 2.5824234 -0.5323149 86
3.9415567 2.5819893 -0.58254749 98
2.0018711 2.8322661 -0.54267281 21
3.8247116 2.7898266 -0.49250609 102.5
2.1689215 2.8949482 -0.57433474 5
3.6767063 3.0355914 -0.55030739 95
3.5422022 3.2724981 -0.5906719 98
2.2382617 -4.2234478 -0.4035756 65
2.4178467 -4.0783334 -0.40763927 85
2.4720523 -4.0483298 -0.44402537 27
2.5938652 -3.9574924 -0.40994748 22
0.87937015 -2.5378029 -0.40095067 112
0.45808601 -1.7884377 -0.44210282 7
0.34050754 -1.5985472 -0.42127192 7
3.4098382 -1.4122275 -0.42193097 29
1.6078666 -0.61034328 -0.41824865 55
1.5215614 -0.45996961 -0.44447789 56
1.439183 -0.31683731 -0.41206276 57
1.3744107 -0.20111841 -0.42590919 64.5
1.2970341 -0.06277471 -0.42341816 68
1.2337722 0.045852628 -0.42015982 40
1.1659894 0.17536519 -0.4084546 10
1.1234716 0.3496387 -0.4065733 10
1.2711406 0.40325588 -0.42210978 13
1.2892077 0.50553578 -0.40936846 3
1.3379786 0.62111735 -0.4029485 2
1.4358928 0.70059198 -0.4444297 0
2.2315748 1.137103 -0.41935799 0
0.24011745 1.6437576 -0.42551887 67
0.1086877 1.7425823 -0.42273158 63
0.27846378 1.6636577 -0.42689562 63
0.34684956 1.7095412 -0.44765571 71
-0.5396148 2.0572753 -0.42463836 47.599998
-0.43012196 2.098865 -0.43341136 75
-0.46736762 2.1180561 -0.41152841 28
-0.44113845 2.1373005 -0.40628594 30
1.235031 2.2227671 -0.41774854 77.333336
-0.25420013 2.3818293 -0.40559477 51
-0.11330453 2.3458624 -0.42051715 92.5
1.414109 2.2916853 -0.44908804 40
4.1092334 2.2980423 -0.43324924 100
-0.30612293 2.4854748 -0.42661646 49
1.0996115 2.4190636 -0.40173522 96
3.905123 2.6592298 -0.4308382 113
2.3727105 2.9039545 -0.4340041 145
2.822417 2.9969752 -0.44576341 0
3.5367193 3.2909045 -0.44137484 89
