# .PCD v0.7 - Point Cloud Data file format
VERSION 0.7
FIELDS x y z intensity
SIZE 4 4 4 4
TYPE F F F F
COUNT 1 1 1 1
WIDTH 1330
HEIGHT 1
VIEWPOINT 0 0 0 1 0 0 0
POINTS 1330
DATA ascii
-0.51452047 -1.147393 -0.16837375 14.444445
-0.36126402 -1.1528381 -0.17946908 16.375
-0.24143897 -1.141686 -0.17729418 5.3333335
-0.077575803 -1.1448503 -0.17308751 11.5
0.050849915 -1.1608434 -0.18839455 9.333333
0.25209936 -1.1612978 -0.16795671 10.4
0.33872437 -1.1545727 -0.17337266 10
0.32403588 -0.94186735 -0.16080821 6
0.3317273 -0.8217724 -0.16784014 7
0.34603703 -0.70641476 -0.1766237 9.75
0.47300494 -0.66894192 -0.18944356 2
0.35989219 -0.52367085 -0.18370332 0
0.21139152 -0.3842622 -0.18819448 0
0.3528837 -0.39926022 -0.17921399 3
0.21663052 -0.26555255 -0.17467122 1
0.36281222 -0.21381094 -0.17403024 3.4117646
0.36726135 -0.14904751 -0.15996468 3
0.49435776 -0.080998689 -0.15740973 0
0.396808 0.095078729 -0.1768616 7
0.49357074 0.080370441 -0.18863919 0.60000002
0.79815143 0.066749871 -0.18863122 0
0.99282515 0.059337277 -0.16284311 4
1.4015453 0.038772199 -0.17137249 2
0.73870748 0.242118 -0.17786603 15.333333
0.73948973 0.36294323 -0.17375243 14.428572
0.73057914 0.51322436 -0.16318429 12
0.73449606 0.65516114 -0.17124821 11
0.72818297 0.84631217 -0.17495802 10.5
0.36433321 1.015645 -0.19878221 10
0.51321054 0.99253273 -0.15047328 11
0.69934666 0.97023195 -0.17346278 9
0.36395517 1.1782744 -0.17301156 8
0.3645196 1.2540228 -0.17285755 7.25
0.38309479 2.2294858 -0.18494862 44
0.49162063 2.1873865 -0.188636 79.5
-1.1447129 2.6424339 -0.16613699 42
-0.94263744 2.6356523 -0.17701776 77
0.3644129 6.0432754 -0.17266963 82
-0.81983387 6.5787401 -0.16593564 18
-0.77566719 -1.1288265 -0.017499907 12
-0.66419137 -1.1327238 -0.066706002 12.764706
-0.53071898 -1.1407925 -0.070119739 14.047619
-0.39433563 -1.1483021 -0.11063156 13.75
-0.21595635 -1.1443839 -0.083842136 9.333333
-0.072432987 -1.150764 -0.058196045 10.3
0.071790308 -1.1561968 -0.070161924 9.666667
0.20723811 -1.1562766 -0.10562772 9.8888893
0.34047586 -1.1424266 -0.061151631 7.5
0.31290388 -0.97115982 -0.061590713 6.4000001
0.32613781 -0.82676518 -0.086077765 8.0769234
0.3553606 -0.69498092 -0.057275385 7.8421054
0.47770199 -0.68885654 -0.078950092 7.1428571
0.33829597 -0.51938576 -0.10926784 0
0.29395783 -0.41912514 -0.10015417 0
0.34606192 -0.39273387 -0.10060935 2.8181818
0.2527414 -0.29866523 -0.11573348 1
0.35872871 -0.24412873 -0.1361087 3.5
1.6154857 -0.20860003 -0.062159602 5
1.1394488 -0.0070297504 -0.0043867277 2
3.8129566 -0.054424975 -0.061598901 6
0.37190998 0.097969152 -0.1489398 12
0.51542652 0.083545655 -0.11766424 0
0.66635323 0.076419339 -0.13194244 0
0.82139099 0.06981419 -0.11307156 0
1.0080205 0.065344371 -0.052250836 4
1.0869799 0.058545046 -0.028310169 6
1.3241851 0.046305474 -0.040387306 3
1.4576221 0.038884718 -0.065688811 2
3.0061591 0.081222206 -0.0085524665 67
0.58521074 0.15443814 -0.14501518 18
0.72558355 0.24756606 -0.091199569 14.208333
0.72743428 0.37270403 -0.078225501 13.464286
0.72025508 0.51889861 -0.068918966 12.357142
0.72010571 0.68289524 -0.057993121 10.5625
0.71356374 0.83085704 -0.057080407 9.833333
0.39012751 1.0076853 -0.043864526 10
0.52048206 0.99763113 -0.075775214 10.416667
0.67837381 0.97686797 -0.1129333 9.5
-1.0997553 1.1249702 -0.023374572 2.3333333
0.34542143 1.1225505 -0.079264231 9.5
0.35955444 1.2965647 -0.11472443 8.333333
0.3617712 1.3764908 -0.091491394 7.5
0.3905406 1.5370506 -0.057049319 12.666667
0.43220437 1.6611297 -0.046965811 14
-1.1004872 1.8258731 -0.010252957 2
-1.1099468 2.0796804 -0.062390883 3.2
0.35704499 2.0786963 -0.11941067 150
-1.1083895 2.1550281 -0.038129274 2.6666667
0.3590706 2.2396455 -0.12333343 146
0.64506871 2.1199563 -0.028513646 13
0.37873307 2.3555846 -0.11512819 23.5
0.39250779 2.5387857 -0.12270815 15
-1.1200559 2.6367643 -0.085248895 66.099998
-0.9445954 2.6269355 -0.11457825 74
-0.89708078 2.6634126 -0.068055727 70.5
-0.82764459 2.7510347 -0.030819243 51.333332
0.45698667 2.9872959 -0.093175091 9
0.50620687 3.2308278 -0.097990908 8
0.32616919 6.0444055 -0.062590249 69
-0.92047668 6.5743532 -0.1076927 17
-0.64355153 6.5817089 -0.12813172 19
-0.54949403 6.5739441 -0.12416002 23.5
0.05709688 6.5537143 -0.052783959 120.5
-0.9686603 -1.3735528 0.13192698 8
-1.0019988 -1.316412 0.093348198 9
-0.71515238 -1.225234 0.10874913 6.5
-0.79097915 -1.1610402 0.10840775 10.777778
-0.66766989 -1.1465801 0.039699465 8
-0.51245648 -1.1375797 0.039146062 4.5
-0.37023357 -1.1403357 0.030046856 6.6666665
-0.20127892 -1.1318747 0.064634711 8.090909
-0.086809799 -1.1454442 0.041819669 11.3
0.091451533 -1.1493349 0.067960232 10
0.22478475 -1.1494815 0.074181527 9.6153851
0.31704238 -1.1313219 0.037270252 9
0.29087555 -0.96427184 0.063186757 8
0.30346078 -0.97428972 0.034415405 6.5
0.30903676 -0.81557268 0.037100967 7
0.32943511 -0.67153817 0.031960942 7.5999999
-1.1004554 -0.46188205 0.1187204 0
0.27399853 -0.51501983 0.024272665 0.66666669
0.30192631 -0.58806568 0.038106766 3
-1.083676 -0.33640012 0.11594852 0
-1.0818933 -0.24930508 0.12675931 0
1.118309 -0.16263528 0.059617307 10
1.1413471 -0.039655909 0.030437624 9.333333
1.348366 -0.074739911 0.033050146 1
1.5843292 -0.066057771 0.0020391596 4
1.1318369 0.041809194 0.040740069 12.5
1.5113705 0.039996844 0.052526262 1
3.0188937 0.033751965 0.10520481 135
-0.93736464 0.2763716 0.12087031 0
-1.0634859 0.40065563 0.088110693 0
-0.97132003 0.3706035 0.093221858 2.75
0.70376933 0.41822565 0.015222172 12.5
-1.0550082 0.50441378 0.086112551 0.5
-1.0384459 0.49700382 0.095232725 2.3333333
0.70859295 0.53684658 0.039440554 10.636364
0.7030077 0.67080253 0.073941641 9.875
-1.1290424 0.8366679 0.083092317 0
0.69867176 0.82961333 0.078018539 9.4117651
-1.0830276 0.94755322 0.055930726 1.5555556
-1.0498848 1.041438 0.054704752 1
0.69555932 0.94938135 0.075899541 6.3333335
-1.0725423 1.0857992 0.049407918 1.4285715
0.80446821 1.0890003 0.084393196 0
0.35231099 1.7730535 0.11044692 25
-1.1426072 1.8888254 0.031886395 2
0.37124079 1.9143362 0.10936552 1
-1.1690768 1.9800277 0.12466516 0
-1.0352678 2.043946 0.066927455 0
0.37266332 2.0595474 0.13754445 8
-1.0736109 2.1201303 0.023933643 0
-1.0791821 2.6556244 0.052990742 68
-0.95887434 2.6689413 0.072791457 62.25
-0.89690316 2.6913819 0.024337286 71
-0.90399134 2.7400813 0.091915421 60
0.29429233 6.1117473 0.054831382 26
0.36404496 6.0819769 0.032929193 42
-1.2910353 6.5706401 0.1215615 3.5
-1.1446168 6.5966501 0.11445918 15
-0.96171802 6.5924835 0.1019324 17
0.027579676 6.5481286 0.079113685 110
0.20982303 6.5402818 0.00046959042 113
-1.6376107 8.6152954 0.095708005 106
-1.2983752 -1.6185827 0.28078175 0
-1.0848551 -1.3633069 0.2119559 16
-1.0129431 -1.3655634 0.19996743 21
0.21346173 -1.3616211 0.25961563 4
-1.4046862 -1.3098731 0.24726185 51.5
-1.2796994 -1.3256104 0.24769633 22.75
-1.154489 -1.325058 0.27696681 43.5
-1.0131749 -1.322889 0.2935729 42
-0.84446311 -1.2449481 0.26280147 3
0.42269099 -1.2092013 0.2639361 10
0.57223368 -1.3088247 0.27707154 0
-0.85381883 -1.1707896 0.19578435 19.333334
-0.73844898 -1.1945279 0.17507857 11
0.04678623 -1.1522863 0.15673977 0
0.33210295 -1.1427143 0.18167186 1
-1.13039 -0.36679092 0.23887248 0
-1.2003257 -0.1693296 0.20541692 0
-1.1597049 -0.2376143 0.24626319 0.26666668
5.6182556 -0.12525547 0.2531552 12.5
2.9837475 0.074854165 0.22778398 93
-1.2949525 0.21327212 0.26010269 4.75
-0.99707985 0.4434 0.15886611 1
-1.0965853 0.52610701 0.23092842 1
-1.0199587 0.54355276 0.16764143 4.5999999
-1.0571001 0.60225838 0.24663407 3
0.68864483 0.73279071 0.17338103 9.333333
-1.151772 0.84333706 0.19310133 1.1666666
0.68208927 0.83066505 0.20636961 8.5
-1.1195161 0.94550663 0.1917427 2.5
0.68096828 0.9439708 0.23688306 5.4444447
-1.1390867 1.0606352 0.20494246 2
0.88395876 1.1821669 0.25538212 2
0.92280078 1.289246 0.25044999 1.3333334
0.92630595 1.5196272 0.26586407 2
0.35704625 1.9831452 0.1760906 3
0.35440695 2.1493156 0.17243659 28
-1.0952157 2.6631682 0.18763061 46.25
-1.2288313 2.7125049 0.23945698 51
-0.85585499 2.7912827 0.2402963 45.5
-0.81478113 2.8580995 0.29612976 4
0.95347279 3.3123701 0.27225488 60
-2.230623 4.1924691 0.26860547 61
-0.33275768 6.5651541 0.20399791 113.5
-0.16814657 6.5615125 0.26379275 150
-0.017803792 6.5589495 0.25223187 69
-1.3284622 6.6013584 0.27484196 0
-1.0713329 -1.3599213 0.38693768 22
0.20006837 -1.4241773 0.34333038 10
0.71024245 -1.4221072 0.40278029 28.25
-1.7587024 -1.3017089 0.43514973 40.5
-1.5724841 -1.3130935 0.40846553 44
-1.4231765 -1.3165423 0.36729455 43.5
-1.2798015 -1.3234799 0.34878448 49.363636
-1.1220404 -1.3259393 0.37576422 53.5
-0.9620924 -1.2557416 0.31172231 84
-0.7116183 -1.2009312 0.36073023 1
0.41429406 -1.3070372 0.31002498 5
0.57414037 -1.3322257 0.33853251 1
2.96121 -0.078147814 0.37271923 14
3.3674386 -0.06351494 0.31206775 148.66667
2.9687481 0.044395048 0.37144944 42.5
-1.293854 0.26391882 0.37378329 7
-1.1935276 0.32182184 0.41377419 0
-1.1243188 0.52984434 0.35221425 0
-1.1301601 0.65360177 0.40841764 16.25
0.67027664 0.95678312 0.32182223 5.5
0.91197461 2.0707211 0.30605656 3
0.95122427 2.1441047 0.37042123 1
-1.2366192 2.6960557 0.32814956 56
-1.2814844 2.7265146 0.30171669 18
-0.98649716 2.7755373 0.38067985 54
-0.8634491 2.8480115 0.38433978 57
0.98342443 3.3284211 0.32940951 13
0.23936088 4.1464524 0.31121784 2
-2.2268188 4.2317481 0.35429236 43
-2.2525234 4.3626027 0.43325877 51
-0.36475155 6.5624008 0.32320106 102
-0.034412462 6.5636344 0.33931392 77
0.099845812 6.5611591 0.31628674 80
0.94406152 6.5424185 0.41412002 91.5
1.2650205 6.5321875 0.38892505 103.5
-0.75428647 6.6067328 0.41596699 16
0.22458096 -1.4002544 0.542027 14.454545
0.66498166 -1.4595531 0.49714959 12.75
0.89862591 -1.3704073 0.55127513 28
-1.9798034 -1.2904354 0.55150688 37.5
-1.8252405 -1.297981 0.54091489 30
-1.6897266 -1.2977749 0.51704925 33
-1.5767912 -1.3054285 0.50611383 39.5
-1.4188089 -1.3143706 0.47895813 38.400002
-1.2598238 -1.3149617 0.48794535 26
-1.1430358 -1.3229511 0.45911226 34.666668
-1.0164087 -1.3425897 0.58365369 2
0.86844718 -1.2772357 0.57050562 36.200001
0.90609896 -1.2514433 0.5076611 39.599998
0.9016791 -1.180898 0.49022281 8
5.5863628 -0.12709834 0.47947091 1
-1.2264779 0.32787386 0.478232 15.666667
-1.1924815 0.41162851 0.49608439 1
-1.2139589 0.55584604 0.53096753 14
-1.1734192 0.53473973 0.56651533 2.5
-1.0993781 2.7226901 0.52742177 20.5
-1.0140426 2.7480164 0.49974665 24
-2.3233261 4.4709883 0.52066708 60
-2.7386878 4.5449328 0.53607005 82
-0.7611379 6.5990977 0.57624245 16
-0.54839069 6.5890341 0.53654611 95
-0.39963859 6.5781536 0.50739896 106.5
-0.28413191 6.582808 0.5621593 118
0.90041453 6.5516458 0.56056929 98
1.1297859 6.5368457 0.51400828 95
1.2293556 6.5374084 0.51422781 98
1.3697456 6.5347562 0.55947715 95
-0.69967955 6.6012635 0.52466989 16
-1.0890565 -1.3527201 0.63469702 7
-1.0490961 -1.3592429 0.63302696 16
0.19995898 -1.4032989 0.68109924 13.583333
0.69699198 -1.3948344 0.70436794 19.666666
0.83761507 -1.3921868 0.67397082 56.81818
-1.8456612 -1.2958014 0.73382932 4
-1.7250316 -1.3032397 0.7291714 12
-1.5697012 -1.2971402 0.69926608 12
-1.4325464 -1.3059762 0.69160044 14.75
-1.2564092 -1.3088031 0.68091643 29.5
-1.1268235 -1.3232518 0.68407726 40.5
-0.84809923 -1.318774 0.74528831 28.5
0.88047224 -1.3409419 0.6129123 85
0.92509168 -1.2838945 0.65726388 79
-1.1325765 0.43622422 0.72622347 0
-1.1190463 0.51175058 0.6600756 6.1538463
-1.2174331 0.63781935 0.64938962 6
-1.1350056 0.6403535 0.66681892 3.3333333
-1.1692665 2.7458944 0.64200824 5
-2.7154636 4.5475569 0.64443111 71
-2.6318519 4.547884 0.69076043 73.333336
-0.40706059 6.5851831 0.60166776 103
0.54294497 6.5361753 0.64321828 31
0.70957035 6.5623026 0.72046149 61
0.84681958 6.5602589 0.68916869 97
-1.1704432 6.6298199 0.67091584 14
-0.77499282 6.6191978 0.72486305 15
-1.6591234 8.6542053 0.6033076 48
-0.76064664 -1.6070918 0.77104032 0
-0.1516273 -1.3646736 0.83886433 2
0.14109084 -1.4344566 0.82352591 6.25
0.28234929 -1.3513454 0.87617433 6
0.64385754 -1.4268483 0.80017227 14.083333
0.83010107 -1.3856032 0.8522321 63.75
0.96436268 -1.3946735 0.84653616 47
-2.345233 -1.2765617 0.84810436 16
-2.1479788 -1.2807325 0.81643403 16.6
-1.9975303 -1.2876027 0.79081571 14.2
-1.9226469 -1.2810192 0.84546047 35.666668
-1.7109315 -1.2899883 0.81671876 34.25
-1.5792173 -1.2927617 0.81787473 36.333332
-1.4211944 -1.2977303 0.82100296 41.666668
-1.2661477 -1.3012865 0.80228472 44.25
-1.1789831 -1.306439 0.79812896 56
-0.95871943 -1.3092352 0.84166253 51.57143
-0.85347313 -1.3143189 0.77899778 47
-0.61022264 -1.3219287 0.84509134 47
-0.5245561 -1.3253669 0.82893473 51.125
-0.39051378 -1.3378621 0.78956985 8
-0.20889777 -1.3316286 0.86430901 53.166668
-0.044338431 -1.3321009 0.87697393 58.5
0.35215548 -1.3432198 0.89161247 27
-1.2414972 0.41830593 0.7550956 0
-3.0863354 4.5748081 0.83766633 80
-2.6427171 4.552949 0.81491059 74.333336
-2.2025437 4.5593634 0.87938559 25
0.14387025 6.5863514 0.88673961 117
0.50951171 6.5743937 0.79861248 61
0.82230377 6.5606785 0.79023343 97
0.98720974 6.5503573 0.79078436 96
-1.1261168 6.6293907 0.82969409 15.5
-0.93367678 6.6188374 0.81820428 15
-0.7923224 6.6208544 0.84888214 15.5
-0.67258847 6.6167598 0.81745923 16
0.59678698 -1.4788803 0.92804611 7
0.6895808 -1.3709437 0.93456638 29.5
0.80307096 -1.3822248 0.91958386 54.142857
0.96094161 -1.3900045 0.92941368 41
-2.4422791 -1.2683111 0.9911111 25.666666
-2.3150277 -1.2654126 0.926826 28
-2.2031479 -1.2701563 0.98234075 29
-2.0031729 -1.2753439 1.0123537 34
-1.8518511 -1.2791682 0.94429404 33.333332
-1.7256702 -1.2820059 0.96329564 36
-1.5516102 -1.2802712 0.98633027 37
-1.4160252 -1.2931557 0.93946499 40.75
-1.2865388 -1.2928349 0.97235632 45
-1.1077492 -1.3119071 0.99223536 33
-1.0045904 -1.3047173 0.9556874 53.5
-0.78650689 -1.3105891 1.0327818 56.5
-0.67523682 -1.3134012 0.96955955 54
-0.54625928 -1.3261971 0.96151805 55
-0.34234172 -1.3223662 0.98635566 62.25
-0.23773971 -1.3231351 0.9797383 66.875
-0.085936762 -1.3305887 0.97343946 62.166668
0.11451898 -1.3368031 0.95205563 54
0.24087304 -1.3361175 0.98657435 51.636364
0.33996329 -1.3393955 0.94882095 44.799999
0.53420871 -1.3413044 0.99004036 39.9375
0.64491522 -1.3442826 0.95527744 33
-3.0532308 4.5722289 0.97922832 78
-2.9982412 4.578279 0.96609044 80
-2.5798261 4.5591106 0.97999811 71
-2.3060977 4.5535035 0.97635537 70.666664
-2.1666625 4.5461249 0.99849176 71
-1.8175188 4.5540519 0.93202829 69
-1.4062827 4.5636377 1.0316122 17
0.11824556 6.5944109 1.0439814 109
0.17909281 6.5874949 0.96850276 103
0.33494991 6.5779381 0.98566031 110
0.47219959 6.5798187 0.97265166 110.5
0.6169318 6.5801191 1.0282055 115
2.3741348 6.5364294 1.0027962 60
2.4238164 6.5240211 1.030375 74
-2.6077397 -1.2591816 1.1574243 24
-2.4735422 -1.2592711 1.1196364 26.5
-2.3228741 -1.2628183 1.1303556 26
-2.1258764 -1.2654052 1.14642 24.5
-2.0343335 -1.2725012 1.1299582 29
-1.8929337 -1.2810116 1.0767918 36
-1.7632877 -1.2712927 1.1679927 33
-1.5893638 -1.2818943 1.1008811 34.25
-1.4511905 -1.283113 1.1273298 43.5
-1.2581933 -1.2859895 1.1604477 49
-1.1700169 -1.3028862 1.1210923 41
-0.9326368 -1.3015862 1.1539084 53
-0.82497549 -1.2997067 1.1568509 56
-0.6884082 -1.3127307 1.1018294 56.666668
-0.50000703 -1.315421 1.1342987 67
-0.38124269 -1.3103371 1.1167696 66.099998
-0.21278259 -1.3185639 1.125098 65.5
-0.086177342 -1.3214889 1.0944519 63.333332
0.093962044 -1.3254336 1.1311827 51.555557
0.21089427 -1.330739 1.1180496 51.75
0.3790161 -1.3316203 1.1207899 47.857143
0.45801908 -1.3356471 1.0735838 55.5
-3.0210087 4.5792112 1.0840058 84
-2.9933577 4.5802169 1.1496122 82
-2.6247697 4.572051 1.1719121 81
-2.4836006 4.5617971 1.0817778 70.5
-2.1562381 4.561029 1.1529111 76
-1.77702 4.5475807 1.1237175 71.5
-0.25989655 6.5997715 1.1352218 101
0.08977218 6.5959001 1.1855483 112
0.42978185 6.581522 1.0709411 111
2.2802067 6.5506368 1.1089579 58
-1.3267952 6.6409163 1.1084393 5
-1.1685184 6.6335053 1.1513749 5
0.59443772 -3.1639948 1.2950412 0
-2.7868433 -1.2496853 1.3007817 3.3333333
-2.6003113 -1.2537773 1.2732174 27
-2.4847679 -1.2536658 1.2867345 26
-2.3368878 -1.2574573 1.3084713 23
-2.1375914 -1.2580309 1.2662482 25
-2.004118 -1.2670689 1.2501006 26
-1.8589705 -1.2711363 1.3250618 28.5
-1.7103533 -1.2728351 1.2590508 34
-1.4051243 -1.277529 1.3213632 41
-1.3102546 -1.2806351 1.2968283 44.333332
-1.0666213 -1.2892605 1.3099983 48
-0.93643141 -1.2954825 1.3165756 56
-0.8182435 -1.3028357 1.2491703 52
-0.52321035 -1.3020179 1.2803237 66.14286
-0.37645769 -1.3084552 1.2665192 77
-0.25011078 -1.3087602 1.2851015 67.5
-0.047618989 -1.3165859 1.2824724 62.57143
0.07339406 -1.3190635 1.2698915 56.125
0.22753923 -1.3254166 1.2787669 45.25
0.32267195 -1.3301497 1.2348371 43
-2.7539372 3.9371812 1.3368089 29
-3.2645388 4.3964067 1.3487433 60
-2.9754891 4.5862699 1.2290758 78
-2.7501473 4.5849276 1.298923 84
-2.6661897 4.5762348 1.2265688 73
-2.5037136 4.562418 1.24058 74
-2.1189921 4.5615487 1.2907313 70
-1.8745272 4.5549908 1.3208461 71
-1.7869499 4.5524726 1.2858759 72
-0.037835974 6.5978723 1.261345 108
0.10269742 6.5941396 1.2724793 110
0.24160071 6.5991416 1.274947 111
1.6495528 6.5756073 1.3347207 65
-0.23414789 6.6073308 1.2790949 103.5
0.064552173 6.6025133 1.3320318 115
-2.7016499 -1.2428406 1.4595565 26
-2.439764 -1.2527311 1.4563477 24
-2.26844 -1.2615377 1.3764873 23
-2.0229423 -1.2579573 1.3947413 25
-1.9020095 -1.2615647 1.4602557 27
-1.6433417 -1.2723774 1.4113655 39
-1.4484471 -1.2739935 1.3817395 40.333332
-1.0831966 -1.2832477 1.4671036 54.666668
-0.92376441 -1.2907768 1.4429551 54
-0.65707856 -1.2964436 1.4084872 68.666664
-0.55003256 -1.2968699 1.4368167 59.166668
-0.36540329 -1.3039578 1.3978157 66.75
-0.19941613 -1.3072717 1.4133399 67.5
-0.069608927 -1.3089945 1.4360743 57.25
0.080621675 -1.3153495 1.4218903 51.714287
0.20629342 -1.3138392 1.4120005 54.75
-2.4247465 -0.92804348 1.4975563 5
-3.5575585 -0.32355317 1.4843596 76
-3.5569661 -0.27593642 1.4897982 87
-3.7959285 -0.086609364 1.4561868 94
-3.5618427 -0.027404204 1.4795394 90.666664
-3.3878243 0.13472551 1.4936594 92
-3.7991881 0.19413887 1.4449887 90
-3.5626557 0.23598225 1.4678717 86.666664
-3.3673074 0.28005186 1.492 95
-3.3908825 0.39472055 1.4828833 87
-3.5676146 0.48450682 1.4567647 87
-3.3884892 0.51562583 1.483297 6
-2.8296475 2.2464273 1.4794858 84
-2.8001778 2.354713 1.4729586 79
-2.6293714 2.2851512 1.4993377 80
-3.4166934 2.5312781 1.3997666 76
-3.195842 2.4840348 1.4293896 77.666664
-2.9230411 2.4597163 1.4594946 68
-3.4841442 2.6707683 1.3828834 68
-3.3491306 2.5949395 1.4051474 75.333336
-3.0412414 2.5634568 1.4409739 74
-2.9971616 2.6815617 1.442884 68
-2.8251729 2.5805264 1.4739499 82
-2.5982587 2.6146631 1.4931146 70
-3.6118779 2.7325859 1.3662927 68
-2.7899504 2.7069144 1.4617729 63
-3.4116235 2.9318881 1.3792399 5
-2.5558763 2.9728441 1.4839755 70
-2.3586373 3.2242191 1.4965478 78
-2.5026107 3.3695199 1.4706981 68
-2.868304 3.5962639 1.4417055 9
-2.6735415 3.5373712 1.4431732 65
-2.2211151 3.5483019 1.4964323 62
-2.8827815 3.667541 1.4168005 38
-2.2935319 3.6337969 1.4839827 61
-2.1944528 3.6883986 1.4957449 59
-2.9550118 3.8297727 1.4064796 33.5
-2.7679358 3.8031831 1.4295702 65
-2.4466121 3.8305204 1.4624072 61
-2.1647928 3.7900794 1.4885015 56
-2.9485414 3.9981453 1.3896159 63
-2.6016366 4.0093794 1.4178511 34
-2.1440778 3.9651642 1.4915609 56
-2.8679056 4.1989388 1.3896818 28
-2.1782804 4.1561232 1.4751022 51
-3.1725047 4.2544374 1.3628746 57
-2.8950763 4.312994 1.3842213 29
-2.3678222 4.3447938 1.4470621 46
-2.0953238 4.3177495 1.475517 46
-2.9476159 4.4522343 1.3783352 49
-2.7464068 4.3561707 1.4142522 29
-2.0295105 4.4301977 1.48734 47
-2.9135568 4.565403 1.3586882 80
-2.5263379 4.5756378 1.3986454 75
-2.0321703 4.5611196 1.4208471 71.333336
1.2991407 6.5875125 1.4227431 100
1.3768421 6.5802178 1.3945904 95
1.583674 6.5737948 1.4625587 97.333336
-1.5614003 6.6423564 1.4417007 78
-1.4825325 6.6548376 1.3633753 104
-0.67142999 6.6331201 1.4020133 100
-0.28915319 6.61731 1.4491342 115
-2.623491 -1.219031 1.5255762 10
-2.4771028 -1.2488348 1.533151 26
-2.3313441 -1.2494767 1.5185121 27
-2.1144269 -1.2342106 1.5870117 33
-2.0242009 -1.2551221 1.540167 26
-1.8602372 -1.2265849 1.6244081 10
-1.66677 -1.2577262 1.5880023 27.666666
-1.5697227 -1.2685909 1.5696356 41
-1.4888731 -1.27223 1.5396259 43
-1.2256026 -1.2839476 1.5668762 37
-1.055094 -1.288232 1.5730575 56.5
-1.0247259 -1.2819386 1.5054786 59
-0.82058513 -1.2886306 1.5647931 58
-0.67977703 -1.2880046 1.5907007 60.42857
-0.51215351 -1.2953343 1.5350518 59
-0.40673983 -1.2965487 1.5475442 57.75
-0.20246902 -1.3024645 1.5549711 63.25
-0.096925735 -1.3039331 1.5710467 58.166668
0.079843327 -1.3066992 1.5820462 51
0.16665827 -1.3062364 1.5200942 48
-2.7540107 -1.1406536 1.5365355 2
-2.6068618 -1.112918 1.5642438 70.333336
-2.4731369 -1.1236341 1.5807953 67.5
-2.3173602 -1.1955465 1.6080662 61
-2.1933651 -1.1355186 1.6157516 66.333336
-2.0777853 -1.1588694 1.6349198 62
-2.6627975 -0.95345628 1.579863 47.5
-2.2685912 -0.93104553 1.5752304 15.5
-2.1622593 -0.98137903 1.5968024 37.5
-2.027441 -0.93372482 1.5609903 9
-1.9185194 -1.0419109 1.6403641 65
-1.7149953 -0.95671803 1.6096605 9
-1.2784855 -0.94785857 1.6476022 10
-2.7646847 -0.80371028 1.6073387 60
-2.6211214 -0.83336687 1.6311613 74
-2.4817619 -0.83395326 1.6439815 68.5
-2.6725776 -0.68068469 1.616643 75.5
-2.5491586 -0.64748472 1.6303593 73
-2.8822794 -0.45566097 1.5812929 70
-2.7949376 -0.55662096 1.5984313 76.5
-2.6455767 -0.50577611 1.6123551 72.666664
-2.4454556 -0.58658993 1.6363653 67
-2.3568349 -0.5874601 1.6466941 70
-3.3807454 -0.38230264 1.5145659 84
-3.1798224 -0.35626101 1.5454267 90.5
-3.0290227 -0.33335713 1.5606127 82
-2.9483953 -0.36364776 1.5766695 80.5
-2.7938833 -0.33481088 1.5826554 79
-2.5689571 -0.40115118 1.6201732 75.5
-2.4639809 -0.38250217 1.6309105 79
-2.3689566 -0.36546901 1.6372106 77
-3.3651295 -0.2128851 1.5143372 89.666664
-3.2074904 -0.23247576 1.5310838 73.5
-3.0834494 -0.20561013 1.548017 85
-2.8859103 -0.22361177 1.57177 81
-2.7100644 -0.26277104 1.6005262 84
-2.5996749 -0.21804637 1.606294 76.666664
-2.4739718 -0.17861468 1.6202189 67
-2.3446436 -0.20547114 1.6279873 73.333336
-3.3863993 -0.12220338 1.5053619 88
-3.1947348 -0.10060223 1.5336676 83.666664
-3.0420332 -0.11123811 1.5528188 85
-2.9442306 -0.13869916 1.5646677 78.5
-2.7739885 -0.098824121 1.5785728 77
-2.6590383 -0.059594002 1.5895492 75
-2.2964513 -0.11220375 1.6362604 60.5
-2.2153571 -0.0051363939 1.6452349 34
-3.365617 0.034462597 1.5029067 89
-3.1904447 0.088407964 1.5254402 90
-3.0707791 0.056086849 1.5391264 82.666664
-2.9241698 0.056575764 1.5574802 82.666664
-2.7806511 0.11245567 1.5688858 80
-2.5910566 0.053703342 1.5933563 79.666664
-2.47983 0.023291938 1.6105733 74
-2.3408089 0.049033146 1.6210625 81.75
-3.2159417 0.24550822 1.512022 88.5
-3.0781651 0.2641665 1.5287175 84
-2.8978596 0.26387882 1.5515606 91.5
-2.7607846 0.29606551 1.5618438 80
-2.5739455 0.21523501 1.5932609 80
-2.4789212 0.21940772 1.6034201 81.333336
-2.3248239 0.24398561 1.615966 76.333336
-2.1672189 0.20904079 1.6433392 37
-3.1922109 0.36692587 1.5123258 88.666664
-3.0593667 0.33060613 1.5284635 90
-2.9117589 0.32289255 1.5455935 86.5
-2.7464504 0.3490116 1.5671499 85
-2.6082997 0.38921851 1.5808561 82
-2.476846 0.41663039 1.595664 81.666664
-2.3472605 0.41512364 1.6044984 84
-2.1538935 0.38372964 1.6366521 41.5
-2.0757973 0.44042307 1.641256 92
-3.2311194 0.53873992 1.5034534 8
-3.0743198 0.52059752 1.5196098 86
-2.9070156 0.51913643 1.5410482 84.75
-2.7526164 0.53634644 1.553335 82.5
-2.6385479 0.55620164 1.5719824 84
-2.5140078 0.59285378 1.579335 93
-2.2687681 0.47919509 1.6106277 51
-2.1874878 0.53404152 1.6299318 35
-2.0897837 0.58479238 1.632279 64
-2.5636768 0.64810991 1.5760111 15
-2.4508171 0.62875521 1.592351 46
-2.3202562 0.63353735 1.6042458 68.666664
-2.1676857 0.71655327 1.6226119 36
-2.0361662 0.61551565 1.6389767 93
-2.3404777 0.81379092 1.5904522 79.5
-2.2418995 0.87394983 1.6053612 36
-2.060832 0.79041153 1.6297882 53.5
-3.2514307 0.95197392 1.5108509 25
-2.1478653 0.90520537 1.6186439 2
-1.9915637 1.4773666 1.6085528 83.333336
-1.8937224 1.4119132 1.6244961 76
-1.7089378 1.3973804 1.644592 82.5
-2.2615497 1.5039804 1.5698466 7
-2.155839 1.5070709 1.5872566 35
-1.8893627 1.5568781 1.6202112 84.5
-1.7058918 1.5998528 1.6383201 79
-2.1713674 1.7437403 1.5732033 36
-2.0156505 1.7199882 1.5983157 85
-1.8778843 1.6894281 1.6128763 81
-2.3553734 1.9102716 1.5465304 79.5
-1.870319 1.8758311 1.6090683 79
-1.7985874 1.8915352 1.615535 74
-1.5990077 1.8097844 1.6411645 78.5
-2.3732653 2.0307827 1.5376297 75.5
-2.1892915 2.0194628 1.5678954 34
-2.0193868 1.9654233 1.5856304 57.5
-1.8091877 2.0199146 1.6104118 76
-1.5762906 2.0477903 1.6360828 76
-1.4833148 2.0205772 1.6468202 73
-2.4585204 2.1715059 1.5210837 78
-2.3316839 2.1798363 1.5385511 73.5
-2.0151327 2.2416563 1.5719821 69
-1.8541336 2.1644919 1.6030598 74
-1.7624632 2.1921778 1.6138543 79.5
-2.3425894 2.3183346 1.5258536 75.5
-2.1274221 2.2907989 1.5549332 33
-1.7524972 2.356513 1.603923 74.5
-1.4955466 2.2939136 1.6370012 75
-2.4501634 2.5170457 1.5105569 79
-2.330478 2.4570992 1.5238377 75
-1.9007626 2.4903743 1.5767553 77.5
-1.725791 2.443305 1.6036167 78.333336
-1.3106356 2.4954963 1.6492921 62
-2.3100705 2.637229 1.5184371 72
-2.0600789 2.5871463 1.5450348 79
-1.6817433 2.6485291 1.596651 78.666664
-1.3976382 2.5524013 1.6341785 72
-2.3095701 2.7567902 1.5189691 77
-1.8734943 2.8275604 1.5621783 73
-1.7138758 2.722014 1.5891547 80
-1.626655 2.8051043 1.5927756 77
-1.2431219 2.7944512 1.6417273 66.5
-2.4125044 2.8563516 1.5070632 83
-2.2717037 2.9088712 1.5194417 73
-1.9888521 2.9248693 1.5457923 80
-1.5990419 2.9246392 1.5947074 72.5
-2.2823431 3.0900769 1.507535 67.5
-2.221318 3.088994 1.5203495 75
-1.6871712 3.0508299 1.5764 68
-1.5710491 3.0581253 1.5890185 70.666664
-1.1500074 3.1328657 1.6316561 62
-2.2338958 3.241581 1.5066036 61
-1.8986259 3.29498 1.5423427 62
-1.7915157 3.1812165 1.5676937 72
-1.5135161 3.2524292 1.5960926 70
-1.4957656 3.2700686 1.5934829 67
-2.2208843 3.3959551 1.5027015 64
-1.588011 3.4058604 1.5772536 56
-1.489418 3.3817973 1.5889666 59
-2.1619384 3.4779642 1.5153186 71
-1.6802722 3.548557 1.5585169 56
-1.4404191 3.5172215 1.58395 54
-1.7912782 3.7097607 1.540213 57
-1.3771749 3.6648076 1.5896562 55
-1.4271024 3.8203096 1.5788517 54
-2.0849698 3.9103081 1.5031438 58
-1.5539684 3.9789066 1.557318 54
-1.317188 3.948282 1.579227 53
-1.6578835 4.1768608 1.5361058 55
-1.2354552 4.1012874 1.5920056 58.666668
-1.2874558 4.3027267 1.5781618 57.5
-1.3981762 4.4624028 1.5520204 59
-1.1670237 4.4615722 1.5812092 59
-1.083783 4.547255 1.5897084 59.5
-1.144453 4.7820115 1.5754311 59
-1.0147773 4.6959844 1.5941403 57
-1.0817953 4.938478 1.5702599 52
-1.2094303 5.0501084 1.5544746 52
-0.97497874 5.0536423 1.5761113 54
-0.87882125 5.0975266 1.5963824 57
-0.8794933 5.1842504 1.595498 45
-1.290866 5.3665137 1.5294644 46
-0.92274857 5.3909531 1.5713165 46
-0.78408587 5.2852077 1.5947175 50
-0.86229712 5.6765833 1.5648595 36
-0.97019851 5.7327528 1.5518761 37
-0.6782763 5.7732973 1.5837052 38
-0.61239922 5.8771987 1.5868903 37
-1.0307031 6.1295962 1.5237914 29
-0.49568686 6.0126758 1.6024611 38
-0.64660835 6.1509695 1.5747238 36
-0.66648328 6.5902066 1.5559313 62
-0.30167395 6.5975661 1.5955564 98
1.2540936 6.5937581 1.5637232 94
1.5209893 6.5886874 1.5803792 99
1.7881818 6.5715189 1.537407 101
-0.57377774 6.6026001 1.560376 61
-0.414226 6.6232514 1.5520004 119
-0.26941746 6.619061 1.5453451 114
-0.13241053 6.6195264 1.5315056 105
1.1301931 -3.1765635 1.7009124 0
-1.63324 -1.2104549 1.6933073 74
-1.3928038 -1.2490785 1.7103854 21
-1.2299691 -1.257237 1.6862022 36
-1.1612315 -1.2499824 1.7081157 50.75
-0.93893778 -1.2496927 1.7209655 55
-0.81506509 -1.2564708 1.7413396 64.833336
-0.69522303 -1.2672087 1.7711016 68
-0.53272676 -1.2894378 1.7068539 60.25
-0.36899638 -1.2813109 1.7296115 48.5
-0.22204402 -1.3002384 1.7262851 58.142857
-0.073424272 -1.3024167 1.7077626 52.666668
0.042852461 -1.3038615 1.717389 48.25
-1.8117783 -1.1683246 1.6632329 70
-1.7195628 -1.1373296 1.6785456 70.25
-1.6256908 -1.1985691 1.6987151 72
-1.4503287 -1.0820128 1.7121481 71
-1.274303 -1.1351012 1.7344209 82
-1.1947691 -1.1319784 1.749595 75
-0.97073478 -1.1259735 1.7741975 91.333336
-0.81693947 -1.1400882 1.7922299 94
-1.7520872 -0.95604569 1.6876152 53.25
-1.5835052 -0.97716689 1.7182298 45.5
-1.3580798 -1.0059776 1.6693331 10
-1.2746733 -0.94701552 1.68457 23.333334
-1.1935315 -0.94723964 1.667044 15
-0.98587835 -0.97491896 1.7253573 36.75
-0.81465048 -0.96426225 1.6974087 22
-0.68117356 -0.96286887 1.7443811 30.75
-0.57642329 -0.9542141 1.7812059 32.5
-0.38666946 -0.99026191 1.7672374 16.6
-0.24914782 -0.9727962 1.7654649 5
-2.30304 -0.83314323 1.6604871 67
-2.1875272 -0.83485341 1.6825124 66.5
-2.0121179 -0.87872195 1.7045649 77
-1.8705485 -0.80393684 1.7218723 72
-1.7312968 -0.87169027 1.7432567 76
-1.5740148 -0.77160162 1.7629687 82
-1.4207103 -0.86484617 1.7813225 78.5
-1.3272434 -0.85413885 1.7983925 85
-2.2936993 -0.69665891 1.667775 44.666668
-2.1863492 -0.68260705 1.6792066 34
-1.9972247 -0.66328853 1.6962624 74
-1.8587979 -0.63113314 1.7165005 76
-1.7600871 -0.71879458 1.7336637 77
-1.5523617 -0.67247593 1.7622848 74.5
-1.4052731 -0.70439297 1.7807095 85.599998
-2.3099976 -0.50464272 1.6585449 46.666668
-2.2165563 -0.55422592 1.6645192 35
-2.0194833 -0.47842914 1.6894945 77.5
-1.8517494 -0.554021 1.7160498 71.666664
-1.7569588 -0.54051113 1.7289844 75.5
-1.5308726 -0.5834161 1.7596778 76
-1.4308522 -0.55846566 1.7736118 86.599998
-1.2727368 -0.57684565 1.7900076 80
-1.1496173 -0.55831003 1.7967137 73
-2.2880757 -0.31537747 1.6510481 52
-2.1884501 -0.40414232 1.6658381 31.5
-2.071883 -0.30321154 1.6751205 80
-1.8805045 -0.40174159 1.7090575 78.25
-1.7627491 -0.38222897 1.7220929 80.5
-1.5642065 -0.4128395 1.7485566 86.666664
-1.4326086 -0.42311382 1.7649305 83.25
-1.3283715 -0.37385494 1.7702744 69
-1.1349546 -0.38522899 1.7947978 65.666664
-2.1871386 -0.22564298 1.6593575 30
-1.994977 -0.28700614 1.6813179 86
-1.9025675 -0.2648325 1.6970172 79
-1.7648574 -0.22549865 1.7165154 81.5
-1.5804839 -0.25615299 1.7413784 92
-1.4386082 -0.23968947 1.7531724 86.5
-1.2775335 -0.19491604 1.7680128 82.25
-1.1174452 -0.23641546 1.7899897 81
-0.99367952 -0.17509522 1.7944335 83
-2.1462271 -0.091507569 1.6579481 32
-2.0449097 -0.11313224 1.6719301 82
-1.8988843 -0.10899864 1.6902999 80.5
-1.7262305 -0.085213684 1.7150291 89.666664
-1.5404363 -0.10832971 1.7292103 83.333336
-1.4364395 -0.052545827 1.7389938 79.333336
-1.2831311 -0.029150153 1.758005 83
-1.0971742 -0.076025501 1.7798227 88.5
-0.99049711 -0.04898395 1.7920337 83
-2.1373823 0.07835348 1.6529466 35
-2.0173151 0.061903726 1.6676558 83
-1.8877913 0.057234298 1.6851654 82.333336
-1.7226511 0.06926623 1.70744 87.666664
-1.5460215 0.040181097 1.7224139 83.333336
-1.437272 0.08431714 1.7323217 75.333336
-1.2828679 0.1023384 1.751465 83
-1.1090982 0.088569954 1.7735382 83.75
-0.97191846 0.10450827 1.7902741 84.75
-2.0195887 0.2391523 1.6595736 84
-1.8870736 0.22311087 1.6779257 87.666664
-1.7169689 0.22368719 1.7032884 87.666664
-1.5434321 0.21610928 1.7144558 87.5
-1.4366187 0.2229234 1.730563 84.666664
-1.2780938 0.23482335 1.7452512 82.333336
-1.1139554 0.23166494 1.762061 81.666664
-0.97268724 0.23651052 1.7808692 83.199997
-0.86394137 0.24765997 1.7973212 86.666664
-1.9866542 0.40585607 1.6556066 90.5
-1.8693557 0.35880095 1.6734378 85
-1.7059859 0.37883964 1.6981798 88
-1.5470753 0.39119887 1.7168889 99.333336
-1.4341491 0.36430922 1.7354064 71.333336
-1.2867448 0.37587866 1.7818404 70.333336
-0.93377537 0.38886735 1.7797482 74.75
-0.83464706 0.40105483 1.7945822 79.5
-1.9567237 0.5659411 1.6533061 92
-1.8781265 0.50217026 1.6683491 82.666664
-1.7119322 0.53464603 1.6882191 86.5
-1.614099 0.51426995 1.7032763 92.5
-1.4399874 0.51453543 1.7287632 73
-1.2654577 0.55522656 1.7792279 68.666664
-0.95323867 0.53454214 1.7771441 75
-0.834032 0.52291423 1.7901524 77.333336
-0.73724085 0.52544665 1.7966009 75
-1.9528701 0.74463665 1.650102 23
-1.8951356 0.66619343 1.6576265 88
-1.7270311 0.6885829 1.6779966 87.333336
-1.5758429 0.6511386 1.7021279 93.333336
-1.4338589 0.68351436 1.7185879 69
-1.2569796 0.6781767 1.7496724 40.25
-1.1134596 0.68512332 1.7659961 35.5
-0.97067064 0.66310823 1.7691196 63.5
-0.81164861 0.6720432 1.788563 77.875
-0.7351402 0.70595205 1.7947035 74
-1.576193 0.80657482 1.693664 89.25
-1.4509912 0.85082978 1.7100641 94
-1.2681879 0.84071952 1.7298946 89.25
-1.1170988 0.8037284 1.7456374 82
-0.94479132 0.82503104 1.7626641 77.25
-0.81358403 0.82903671 1.7813087 78
-0.72323263 0.83596957 1.7953777 72
-1.5712948 0.98834795 1.6904 86
-1.4463568 0.9794814 1.702776 88
-1.2855798 0.98883575 1.7218097 85.5
-1.1321366 0.96438807 1.7544851 74.199997
-0.92398417 1.030501 1.7688314 90
-0.83271265 0.96328437 1.7756402 78.800003
-0.68878406 0.97289973 1.7925807 73.285713
-1.6572671 1.064841 1.6675702 57
-1.535748 1.1228464 1.6847926 83
-1.4168568 1.14678 1.7012864 86.333336
-1.224012 1.0748631 1.7290612 86
-1.1317288 1.106541 1.7412515 89.666664
-1.0348709 1.1019487 1.7517239 89.5
-0.81120974 1.1385889 1.7779113 84
-0.67431378 1.1517006 1.7951869 85.333336
-1.7061859 1.2168471 1.6526467 76
-1.5633072 1.2375597 1.6770873 82.333336
-1.4319278 1.309267 1.6906265 86
-1.2651713 1.2059313 1.7181967 80
-1.1082082 1.2448795 1.7356155 83
-0.99635446 1.2527578 1.7511293 83
-0.78553474 1.2948879 1.7738986 74.5
-0.68186969 1.2761279 1.7884333 79
-0.58208907 1.2958603 1.7967504 73
-1.5767275 1.4140296 1.6648742 84
-1.4598593 1.4164432 1.6794653 86.333336
-1.2551801 1.3584661 1.7084351 83
-1.1260006 1.3730505 1.7289451 77
-0.99908513 1.4058435 1.7424858 76.199997
-0.6733464 1.4445578 1.7795961 72.5
-0.56521147 1.4132795 1.7951345 72
-1.5689034 1.5982107 1.6555538 78.5
-1.4008229 1.567485 1.6809442 85.599998
-1.2365673 1.5265471 1.7001129 86
-1.1055083 1.5272021 1.718013 77.5
-0.97014093 1.5594438 1.7369537 72.666664
-0.89453149 1.5714898 1.7487966 74.5
-0.63959074 1.5777782 1.7748755 70.5
-0.53533572 1.5643696 1.7904247 72
-1.396663 1.7616045 1.6713412 73.5
-1.3090976 1.7264796 1.6885201 71
-1.1196527 1.7038758 1.7048147 70
-0.95358866 1.6787319 1.7306944 68
-0.86114413 1.7407873 1.7381881 71
-0.51260448 1.7095253 1.7835517 68.75
-0.41848016 1.7203285 1.7949678 66
-1.2875437 1.8854151 1.6818894 80.666664
-1.0813204 1.9035233 1.7053455 69
-0.95661861 1.8645654 1.7175308 68.5
-0.8057912 1.8602328 1.7439632 69
-0.46486494 1.9149772 1.7799863 64
-0.38884217 1.8561753 1.7917706 66.5
-1.4002465 1.9938492 1.6624178 72
-1.2870889 1.9941907 1.6751423 72.666664
-0.9036178 2.0688138 1.7195545 55
-0.79882234 1.9964271 1.7362657 66.333336
-0.71619302 2.0313175 1.7451473 62.333332
-0.34185612 2.0293279 1.786381 61.5
-1.2540417 2.1726792 1.6696105 69.75
-1.1888499 2.1548917 1.68179 64
-0.98398864 2.1017952 1.7056729 62
-0.67567587 2.1883717 1.7430204 59.400002
-0.2179397 2.1909866 1.7949513 60.5
-1.4066571 2.2549641 1.6516927 70
-1.157461 2.3310473 1.6809121 67.666664
-0.83559495 2.2898955 1.7167044 54.5
-0.56992757 2.3332279 1.7494242 59.75
-1.2369652 2.4428806 1.6677285 62
-1.1078478 2.4508851 1.6803703 63.333332
-0.68099427 2.479614 1.7313353 56
-0.48131585 2.5028684 1.7567111 60.666668
-1.0802383 2.6327827 1.6766857 63.333332
-1.0207703 2.6780105 1.6778222 63.5
-0.48998088 2.627965 1.7503408 53
-0.40899119 2.6048059 1.7604011 53.333332
-0.97359246 2.7656953 1.677689 67
-0.56904 2.7403321 1.7319964 58.5
-0.32623637 2.7790732 1.762104 56.5
-0.27265093 2.8338404 1.7679876 58
-0.94915926 2.9029696 1.6743975 68
-0.89486265 2.9548883 1.6748244 71
-0.38069212 2.936698 1.7442538 59
-0.18834746 2.9448581 1.7681541 64.5
-0.14912817 2.9784591 1.7707769 58
-1.0768625 3.0404596 1.6502422 62
-0.82144743 3.1064198 1.6782432 66
-0.42937216 3.0267842 1.7307678 68
-0.17448464 3.0447059 1.7633682 61.5
-0.1035158 3.0818815 1.7683729 64
-0.82349145 3.2598188 1.6740594 62.5
-0.74940974 3.2537158 1.6837786 70
-0.19807582 3.2286811 1.7782079 22
-0.038610179 3.1545825 1.7788333 62
0.028447162 3.2288687 1.7819374 67.5
-0.93321109 3.3754988 1.6656712 85
-0.68755555 3.4178543 1.6921607 72.5
-0.23357873 3.305485 1.745293 60
0.043108154 3.3478625 1.7819382 60.333332
0.16761003 3.4302385 1.7930635 54
-1.0009749 3.4989696 1.6512386 82
-0.67785525 3.5293894 1.6865474 61.5
-0.57825339 3.5818369 1.6938237 64
0.01106934 3.4730225 1.7690233 56
0.23867594 3.4964619 1.7962211 56.5
-0.75771987 3.7109046 1.6640188 62
-0.61224985 3.6576476 1.6877064 60
-0.52927625 3.7468383 1.6866306 61
-0.005180317 3.6053553 1.7605234 56
0.24206425 3.6361799 1.7896211 52.5
0.32634825 3.6883092 1.7972084 50
-0.81297231 3.8691535 1.6516415 60
-0.47272527 3.8045974 1.6965355 59
0.2553758 3.7712545 1.7816283 58
-0.52360457 3.9313176 1.6821719 58
-0.37738782 3.9407711 1.7032081 61
0.26231253 3.9351666 1.7793216 60
-0.55269676 4.109045 1.6744472 59
-0.36635077 4.1265926 1.6928755 56
-0.28516418 4.1620221 1.7103273 60
-0.59114283 4.3079882 1.6648754 63
-0.22853701 4.2645702 1.7128626 57
-0.29616335 4.3550706 1.6982194 60
-0.13914034 4.3509803 1.7184929 63
-0.30462393 4.5590334 1.6854657 59
-0.17027807 4.5803924 1.6975058 51
-0.034660984 4.5948048 1.719123 53
-0.3219929 4.7932897 1.6727127 53
-0.059710864 4.663023 1.7090205 55
0.0423191 4.7246289 1.7205878 54
-0.022470165 4.8242469 1.7072057 54
0.14582185 4.8011327 1.728423 54
-0.0045204936 5.0797777 1.7005054 46
0.1359335 5.1878138 1.7128409 30
0.26630986 5.1759486 1.7294121 42
0.0081629874 5.3734069 1.6913923 46
0.34512725 5.3371925 1.7332139 40
0.49357015 5.3438616 1.751969 39
0.36559284 5.6877446 1.7187406 38
0.64949214 5.7232018 1.7558469 37
0.52770144 5.9083452 1.7247752 27
0.66447061 5.928072 1.7386116 35
0.79036182 5.9490538 1.7614535 35
0.92010349 5.9768257 1.7770094 29
0.42020047 6.0594511 1.7137679 29
0.73204643 6.0457082 1.7432591 37
0.83888727 6.4606428 1.7545933 32
1.1309395 6.4855714 1.7867969 34
1.2779753 6.5927124 1.7403463 110
1.4160895 6.5937529 1.7645217 107
2.9414275 6.5491772 1.7720393 82
3.6782038 6.5531983 1.7444381 4
0.89300817 6.6091642 1.6570014 102
1.0005344 6.6072168 1.678116 100
1.1471006 6.6073999 1.7065135 103
1.2057785 6.6076927 1.6947919 100
1.1881175 -3.1580162 1.8684143 0
0.56711727 -3.1412306 1.9341241 0
-0.65053707 -1.2400416 1.8189515 82.25
-0.53251314 -1.2367923 1.8222542 60.5
-0.33058086 -1.2518655 1.8466185 55.333332
-0.23402454 -1.2598003 1.8532069 54.285713
-0.088134393 -1.2602682 1.8622452 50.599998
0.022935744 -1.2834145 1.8597273 47
-0.79181564 -1.1181171 1.8005184 82
-0.67566419 -1.1063083 1.8080629 90.25
-0.51948452 -1.1234598 1.8219658 75
-0.37870091 -1.1458881 1.8467227 60.25
-0.22686924 -1.1060095 1.8606782 44.833332
-0.086833276 -1.1364201 1.8859191 54.333332
-1.0556672 -0.9232921 1.8312713 100
-0.94712746 -0.91985911 1.8439906 104.5
-0.86015069 -0.90440512 1.8542746 101
-0.69703573 -0.94584626 1.8651384 77
-0.49845523 -0.97759408 1.8516923 53.857143
-0.37104049 -0.93924284 1.8740673 43.5
-0.21291357 -0.93798923 1.8793247 37
-1.2835364 -0.86441875 1.8042477 80
-1.1091299 -0.82943088 1.8209897 97.333336
-0.96311998 -0.78261209 1.8342085 86.666664
-0.84184116 -0.82950252 1.8555499 94.833336
-0.66681552 -0.81885391 1.869427 80.666664
-0.52382028 -0.83639646 1.8853964 70.125
-0.38198715 -0.80918902 1.9037035 61
-0.25761607 -0.82476097 1.913278 50
-1.3058881 -0.71986824 1.8012565 89
-1.125128 -0.68119866 1.8130335 89.5
-0.96337336 -0.65315753 1.8287976 80.14286
-0.7855233 -0.67799389 1.8531135 79.800003
-0.67369747 -0.66321379 1.8652357 82.333336
-0.53179789 -0.67878443 1.883018 73.444443
-0.37279865 -0.67199934 1.9024023 68.25
-0.29581928 -0.73550463 1.9064552 57
-1.0784056 -0.54002982 1.8106616 81.5
-0.97781515 -0.52615875 1.8200356 82
-0.81256139 -0.51810759 1.8403083 80.571426
-0.66609371 -0.51853257 1.8602996 78.444443
-0.52407801 -0.52698672 1.8772917 76.800003
-0.40020427 -0.51756728 1.8900926 69
-1.2637975 -0.43668205 1.8053659 29
-0.99379158 -0.38192099 1.8115619 80.25
-0.82522523 -0.36293739 1.8306822 79
-0.69054139 -0.37683192 1.8490963 79.25
-0.53607523 -0.36828896 1.8678882 76.285713
-0.41822481 -0.35145876 1.8803004 75
-0.95483506 -0.25413463 1.8089657 80.599998
-0.81319743 -0.21457015 1.8286288 75.714287
-0.69283521 -0.21265161 1.8414271 72.875
-0.54764789 -0.23597769 1.8619487 77.5
-0.44239464 -0.22743399 1.8741251 74
-0.92521107 -0.10669875 1.8093065 79
-0.8166104 -0.074010767 1.8204322 76.666664
-0.67870116 -0.077002749 1.840229 81.5
-0.53803509 -0.089974105 1.8580523 78
-0.92587447 0.025646063 1.8008674 89
-0.81715429 0.071403548 1.8121929 79.199997
-0.68655908 0.071500286 1.832587 77.800003
-0.54252231 0.071865715 1.8500042 81.428574
-0.81826371 0.21528867 1.8054632 82.714287
-0.69800436 0.21041536 1.821708 79.285713
-0.54530233 0.22591397 1.8404324 83.285713
-1.137867 0.37089574 1.8309819 123.66666
-1.0213101 0.37797239 1.8185614 112
-0.78195447 0.34843716 1.8063883 76
-0.67004156 0.38349831 1.8195854 78.166664
-0.52896851 0.3796038 1.8339775 79.571426
-1.3137509 0.46898416 1.808925 81
-1.1333666 0.50593561 1.8406144 112.66666
-0.77429193 0.4776226 1.8018366 77.333336
-0.67122394 0.53363132 1.8094819 77.14286
-0.53471816 0.52842027 1.8278751 76.599998
-0.43909809 0.51805204 1.8408538 81
-1.1750362 0.60279208 1.8202268 140
-0.65834337 0.67680836 1.8068537 76
-0.53283948 0.69785023 1.8221662 76.25
-0.41058069 0.65049183 1.838945 82.5
-0.65002441 0.82063603 1.8023416 75
-0.51493233 0.82928073 1.8217584 74.285713
-0.38903466 0.85431391 1.8400968 65
-0.64724088 0.97579968 1.8033091 87
-0.54046237 0.98157471 1.8160223 81.833336
-0.38656664 0.98750681 1.8377805 81
-0.63277382 1.0881587 1.8060557 83.666664
-0.51677179 1.11545 1.8182577 86.5
-0.3843756 1.1423583 1.8339496 77.333336
-0.24151056 1.1346675 1.8548696 78
-0.53162873 1.2567332 1.8103021 79
-0.3827517 1.2752652 1.8274477 76.75
-0.24173638 1.2931726 1.8438828 69.199997
-0.50021642 1.3779972 1.8060559 75
-0.3877998 1.4332544 1.8173735 70.599998
-0.23155506 1.4223695 1.8378156 71.166664
-0.11548029 1.4370656 1.8511792 69.5
-0.45947859 1.5811931 1.8006004 70
-0.36032572 1.5877379 1.8101617 71.75
-0.23281008 1.553252 1.8291825 72.75
-0.086667858 1.5753218 1.845295 72.599998
0.053315829 1.6315234 1.8650333 77
-0.23034802 1.7263438 1.8165711 72.25
-0.070648514 1.711265 1.8391212 72
0.075806856 1.7587905 1.8555195 66.5
-0.33929801 1.8211219 1.8036681 66
-0.24127118 1.9003124 1.8132031 63.5
-0.071526252 1.8444647 1.8325965 67.199997
0.078238077 1.8874187 1.8486086 64.714287
0.2147835 1.8973973 1.8635148 69
-0.24561515 2.0341017 1.8224525 32.599998
-0.043960787 2.0038319 1.8277079 68
0.096409746 2.0280654 1.8445343 67.25
0.22038372 2.0288844 1.8590057 63.42857
0.37590387 2.0432348 1.8765224 65
-0.16169956 2.1610706 1.8067141 56.5
-0.10717901 2.1915796 1.8126801 60.333332
0.081906661 2.1707072 1.8332114 68
0.27483428 2.1570089 1.862837 66.5
0.37213838 2.200443 1.874135 66
0.51547396 2.1842394 1.8916025 65.5
-0.037701234 2.306776 1.8138138 60.5
0.016275149 2.3892212 1.8202034 65
0.2239863 2.3259277 1.8504488 69
0.42658305 2.3155875 1.8739959 62
0.52502632 2.3387585 1.8838482 60.25
0.64808744 2.3337672 1.898901 44
-0.067193195 2.4241953 1.8113462 62
0.10097277 2.4732668 1.8272253 61.799999
0.29544675 2.5196066 1.8502692 63
0.50813013 2.4353209 1.8775772 62
0.65680408 2.4777796 1.8920182 47
0.82470059 2.4717762 1.9133788 38.333332
0.9263255 2.5331192 1.9197282 55
0.099327728 2.598866 1.8190306 59
0.24899806 2.6408143 1.8355823 59.333332
0.45713073 2.6932423 1.859784 63
0.69068867 2.5733275 1.8879426 39.5
0.79835469 2.6250801 1.8995527 29.5
0.96876287 2.6109111 1.9187202 57.333332
1.1040059 2.6561241 1.9390897 51.5
0.28781843 2.787169 1.833764 62
0.37348434 2.7801337 1.8432207 63
0.47220105 2.7865069 1.8561617 58
0.86301088 2.7062798 1.8989072 49.5
0.98511243 2.7477686 1.9185262 54.5
1.1309572 2.8199794 1.9346627 51
1.2270991 2.7780471 1.949886 52
0.40984219 2.8633568 1.8397063 57
0.50144303 2.9259634 1.85059 56.75
0.63908702 2.9445736 1.863741 51
1.0298427 2.8813808 1.9171759 51
1.1154279 2.8813646 1.9309837 52
1.2015679 2.8783994 1.9405323 51
0.67736149 3.1050835 1.8638448 36.666668
0.85539097 3.0924089 1.8952116 45
1.2900127 3.1000521 1.945345 50
0.74325949 3.1927989 1.8782049 28
0.8012929 3.1760583 1.8819944 29.5
0.93124098 3.2309456 1.8921803 52.5
0.88136965 3.3806646 1.8778976 48
0.99330384 3.3831921 1.8918772 52
1.1189711 3.3702447 1.9140549 52
1.2442977 3.5062675 1.9252301 51
1.3736888 3.5441303 1.9366666 54
0.40771025 3.732163 1.8102347 55
1.1813939 3.6790144 1.902444 53
1.2910382 3.6271164 1.9199675 54
1.4244254 3.6249907 1.9404545 55
0.48373455 3.7943192 1.816491 58.5
0.51005989 3.9887719 1.8093259 54
0.603607 4.0414414 1.8144749 54
1.5676309 3.9793749 1.9372476 47.5
0.54539067 4.1217093 1.8084627 56
0.68630171 4.0582538 1.826409 40
0.77014935 4.1242256 1.8398769 21.5
0.57620084 4.2976947 1.8018574 51
0.81801826 4.3143849 1.8332888 21
0.84820515 4.4746523 1.8398315 17
0.97830045 4.443521 1.8458856 44
1.1152537 4.4549842 1.8698004 49
0.88518447 4.5036802 1.8370022 26
1.0920078 4.5119123 1.8560013 50
0.94552284 4.6966128 1.8272189 47
1.1856538 4.713378 1.859682 48
1.316529 4.9285727 1.8703482 42
1.4235133 4.8834586 1.8937117 40
1.5151966 4.8594232 1.9096864 41
1.2577608 4.9837313 1.8644532 37
1.4999151 4.9600759 1.8918141 45
1.395264 5.1697946 1.8697249 32
1.6290421 5.1763911 1.8945965 33
1.9041567 5.371202 1.9293133 34
1.9767113 5.2828908 1.9404029 36
1.773706 5.4105196 1.90388 35
1.8370717 5.4651217 1.9040939 34
1.9926856 5.4662628 1.927385 36
1.7741697 5.6007743 1.9019386 27
1.9328961 5.6911778 1.9113916 29
2.1667418 5.7002349 1.9328271 35
2.4370787 6.3508992 1.9493631 32
3.0714915 6.5563474 1.8878752 76
3.1726475 6.5505948 1.8780299 62
3.3777165 6.5535645 1.8713156 71
3.6751065 6.5329113 1.8729112 38.5
-0.3320362 -3.3440402 2.0209754 0
1.2501595 2.7571769 1.9545282 49.5
1.371286 2.8168614 1.9758555 49
1.2528229 2.9278934 1.9529521 54.5
1.4668896 2.9099791 1.9845858 49.5
1.589812 2.9564855 1.9940324 46
1.708693 2.9688449 2.0171936 53
1.3495495 3.0457442 1.9560257 49.5
1.4310759 3.0435276 1.968649 49.75
1.5410264 3.0964155 1.9800061 47
1.8726398 3.1067934 2.0221028 47
1.9807298 3.0682864 2.0385025 46
1.6359571 3.2181683 1.9857427 51.5
1.7320707 3.2168975 2.0094819 35.799999
1.8337393 3.2512591 2.0084629 50
2.1880026 3.2601876 2.055264 45.5
2.2874713 3.1807122 2.0778959 45
1.5911913 3.3333619 1.9758548 53
1.939106 3.3015673 2.0249214 47
2.0224209 3.3862941 2.0272169 47.5
2.1329312 3.3885133 2.0425954 44.5
2.2759707 3.4393806 2.0620401 47
1.9356711 3.574074 2.0040882 47
1.9746053 3.4887869 2.0148361 48
2.3707533 3.5186415 2.0662889 40
2.4856319 3.5493283 2.0736964 38
2.6343684 3.5594459 2.0959566 37
1.5673716 3.7386854 1.9561502 52
2.336669 3.6603694 2.0484195 42
1.644959 3.879595 1.9576596 46
1.6920263 3.8327045 1.9673587 49.333332
1.8146307 3.8962619 1.9781452 48
2.337137 3.8355918 2.0387623 39
2.7466547 3.8572624 2.0929134 34
1.9355555 3.9841182 1.9915947 43
2.7827427 3.9329793 2.0896506 31
2.0634854 4.1072903 2.0025153 43.25
2.2096717 4.1621652 2.0114653 42
2.8152776 4.1272798 2.0850351 32
2.0029056 4.2702756 1.9774181 38
2.365973 4.2591529 2.0403135 39
2.503859 4.335103 2.048862 39
1.9763308 4.4002872 1.9750189 47
2.5005288 4.4343047 2.0385563 36
2.6724153 4.4556518 2.053581 34
2.4846833 4.6299691 2.0204356 34
2.8398218 4.5177555 2.0792918 34
2.9652092 4.5841069 2.0937107 26
2.9986207 4.7901645 2.0836251 33
3.0435455 4.7473741 2.0851481 27
2.4896498 4.8138347 2.0121958 33
3.0535054 5.0211363 2.0641434 27
3.1287913 5.3059163 2.0654826 29
2.5466411 5.8036909 1.9962958 31
2.3671281 5.9733567 1.9503795 31
2.4996226 5.9590473 1.9813555 31
2.466974 6.1352034 1.9568754 31
2.6007624 6.0623651 1.9712294 33
2.5957434 6.3032675 1.967105 24
2.8429914 6.347847 1.9912847 22
3.2372298 6.3982754 2.0576856 27
3.0664494 6.5626202 1.9834746 64
3.2176938 6.5574141 1.9797285 81
2.607621 3.2710576 2.1086521 38
2.5614908 3.3652451 2.1019394 35
2.7371578 3.5907953 2.1052041 35
2.9328752 3.48944 2.137466 28
2.9232998 3.6809916 2.1216054 29.5
3.0853035 3.7035456 2.1473179 31
2.7935319 3.772521 2.1037519 31.5
2.9187994 3.7977166 2.1149077 33
3.3707476 3.8769624 2.1687815 30
3.2423129 3.9580395 2.1462054 30.5
3.4168472 4.0259495 2.1589987 31
3.252408 4.136713 2.1364789 31
3.3749075 4.4399705 2.1355627 27
3.8282115 4.4024377 2.1957712 27
3.0248642 4.6051288 2.1013236 27
3.2123792 4.7763557 2.1053989 27
3.3915939 4.8046947 2.1310165 27
3.5447211 4.8519292 2.1466084 28
4.0605302 4.803689 2.2088547 31
3.6481977 5.1525731 2.1461663 24.5
3.8556497 5.1351018 2.1696992 19
4.0422621 5.1216769 2.1994538 23
4.1323042 5.1643925 2.2111156 23
4.2658367 5.1410933 2.2320936 23
3.7634842 5.499299 2.135371 21
4.571341 5.4759126 2.2216797 8
4.3981586 5.581965 2.2191653 39.5
3.9353282 5.8970017 2.1391063 27
4.6153574 6.0217004 2.209291 21
