# .PCD v0.7 - Point Cloud Data file format
VERSION 0.7
FIELDS x y z intensity
SIZE 4 4 4 4
TYPE F F F F
COUNT 1 1 1 1
WIDTH 110
HEIGHT 1
VIEWPOINT 0 0 0 1 0 0 0
POINTS 110
DATA ascii
-0.078458123 3.8286004 -0.93011725 9.5
-0.16634819 3.909194 -0.94826275 10
-0.077295326 3.9719117 -0.93750238 10.5
-0.12309363 4.2536097 -0.95903116 8
-0.035789032 4.4064932 -0.94700658 7.5
0.030043226 4.578742 -0.94251281 3
-0.029769797 4.7615423 -0.96205854 1
0.10340591 4.6961808 -0.93804723 6
0.42484242 4.9367046 -0.90274709 2
-0.039443124 5.1514449 -0.97716033 1
0.58070868 6.266994 -0.98060322 1
0.55963439 6.4259067 -0.91666764 7
-0.3077035 6.516427 -0.95485783 74.5
-0.24890456 6.5163202 -0.96509051 64
-0.13601102 6.5063744 -0.92839086 150
0.292907 6.511025 -0.9456988 1
0.71857399 2.184715 -0.77233452 10
0.79096872 2.179872 -0.76074082 9
0.38195232 2.2796936 -0.80780518 13.5
0.50207102 2.3818908 -0.79715151 18
0.21045394 2.4230499 -0.83461863 13
0.3728534 2.4517505 -0.81424314 17
0.24721755 2.66535 -0.84504783 11
0.39140606 2.6052592 -0.82131571 13
-0.033848602 2.7284317 -0.8806839 4
0.026136529 2.7460265 -0.86984122 5
0.37789863 2.8013825 -0.83321756 11
-0.012883442 2.8889916 -0.88690829 5
0.072405532 2.8798745 -0.86845148 6
0.35004598 2.9987838 -0.83895147 7
0.079459138 3.0548077 -0.87773228 4
0.45262045 3.020472 -0.83253115 7
0.063601941 3.2385712 -0.88792837 4.5
0.17663546 3.2326386 -0.87327516 4
0.56598371 3.2139471 -0.82683206 8
0.39555484 3.3228512 -0.84812558 5
0.439695 3.6667547 -0.86283249 5
0.25362772 3.8522902 -0.89681554 10
0.37775606 4.0779266 -0.88458884 7
0.48602802 4.0607376 -0.87547332 7
0.35701352 4.3017201 -0.8953979 12
0.52704298 4.444077 -0.88372523 9
0.63121682 4.5274572 -0.85154545 106
-0.79798186 6.550478 -0.81557286 17
-0.69080859 6.5436573 -0.84850556 17.666666
-0.34368238 6.5249863 -0.87446082 119
0.25940186 6.505693 -0.83711606 109
0.51066226 6.4636903 -0.87677771 19
0.6333127 6.4813738 -0.83053887 96
0.53191209 2.171618 -0.65167791 107.6
0.63928723 2.1685157 -0.67715174 114.25
0.77187294 2.1676099 -0.71589947 66.333336
0.45135057 2.5151954 -0.65104288 8
0.49222875 3.381896 -0.60973513 81
-1.0951277 6.5616655 -0.64271367 17
-0.77697825 6.5521374 -0.73610985 18
-0.67636776 6.5483513 -0.68818051 17.200001
-0.53036451 6.5458951 -0.69477475 18
-0.11857624 6.5284457 -0.71959364 121.5
0.067394316 6.5200191 -0.65563864 110.5
0.20739721 6.5126343 -0.70404327 125.5
1.5693926 -0.46810851 -0.55030906 7
1.796356 -0.51559025 -0.51768857 15
1.4813269 -0.40456381 -0.46938187 1
1.7376161 -0.37927207 -0.53437573 5
1.3397977 -0.27015966 -0.47353715 2
1.5785838 -0.21949254 -0.45307174 1
1.8455515 -0.20663491 -0.53096801 6
1.6358876 -0.13168991 -0.55683696 6
1.7710822 -0.069875315 -0.53303951 3
2.1267304 -0.12637401 -0.49763513 4
2.4704299 -0.027509885 -0.46133548 7.5
1.8802087 0.014080956 -0.48550531 4
0.40203166 1.3228126 -0.46407622 8
0.44118655 2.1771679 -0.54575795 88
0.47323775 2.1730907 -0.54503751 94.666664
0.65037769 2.1707966 -0.59969503 116
0.44593894 2.3030651 -0.59196895 21
0.4464612 2.4625139 -0.56494761 33.5
0.43278545 2.5558941 -0.51380783 7
0.52544814 3.3761456 -0.53951997 106.33334
0.63897741 3.3724871 -0.52275479 133
0.497767 4.5484028 -0.49053109 45
-1.2005451 6.5461159 -0.53072143 4
-1.1082407 6.5687747 -0.52864164 16.666666
-0.93139231 6.5685639 -0.45775497 17
-0.50683391 6.5540895 -0.46766481 23
-0.15844095 6.5372887 -0.49791807 111
-0.13277096 6.5321636 -0.59557641 109
0.2441463 6.5203185 -0.59398538 128
-0.18357486 -1.1679465 -0.40236947 13
-0.1385328 -1.1577218 -0.40293962 13
0.077167124 -1.1670265 -0.40576214 14
0.25468215 -1.1719402 -0.40361068 9
0.37207222 -1.1527284 -0.40536904 10
2.6013794 -0.52568644 -0.42682505 5
1.4610015 -0.36837262 -0.42691398 3.5
2.5168035 -0.3534523 -0.44383338 7.3333335
2.5099578 -0.18240125 -0.44985974 8
0.71522719 0.94853204 -0.40148935 8
0.76319903 0.94595093 -0.40177298 8
0.38965198 1.1704237 -0.4191004 7.5
0.39136583 1.2459571 -0.41126072 8.5
0.70738924 2.1759591 -0.43066481 106.5
0.43386006 2.4260571 -0.44622999 24
0.45932454 3.3960505 -0.43973854 67
0.47340792 3.9336708 -0.44822571 55
-1.085079 6.5711989 -0.41836002 16
-0.99803847 6.5635743 -0.4495827 18
-0.3739157 6.5428319 -0.41827807 110
