# .PCD v0.7 - Point Cloud Data file format
VERSION 0.7
FIELDS x y z intensity
SIZE 4 4 4 4
TYPE F F F F
COUNT 1 1 1 1
WIDTH 115
HEIGHT 1
VIEWPOINT 0 0 0 1 0 0 0
POINTS 115
DATA ascii
2.3582299 8.0988474 -0.98247665 23
0.82405978 -2.2212443 -0.81637317 6
1.3050122 2.0983381 -0.83144069 12
1.040411 2.2047122 -0.84253192 6
1.0745053 2.3346016 -0.84620649 5
1.2377766 2.3576415 -0.8384555 3
1.5679281 2.3803339 -0.83353549 6
-0.21626538 2.5066543 -0.76353037 45
-0.088184163 2.5339799 -0.82242125 4
0.12559117 2.4163342 -0.84219879 7
0.23515585 2.4893863 -0.84628451 5.5
0.31726271 2.5278199 -0.81268394 4
0.49862465 2.4346166 -0.84350312 5
0.83665544 2.4304888 -0.82924527 5
1.091733 2.4994428 -0.84540862 5
-0.16380726 2.5781374 -0.77627802 3
-0.12470245 2.6262407 -0.75346231 15.5
0.047776323 2.6528594 -0.85545665 5.6666665
0.4502123 2.5544374 -0.84578115 5
0.61406589 2.6045227 -0.83544195 5
1.4943728 2.6727684 -0.83908075 4
0.070219919 2.8315001 -0.84151214 9
0.49376583 2.7818565 -0.85081643 8
0.75819653 2.8315358 -0.83171988 6
1.1748486 2.7552867 -0.84563923 4.5
-0.1873993 2.9554493 -0.8316589 12
0.067726314 2.9655404 -0.85290825 8
0.52396494 2.975177 -0.85267353 10
-0.15410188 3.11639 -0.86355424 4
0.071022347 3.1306663 -0.84696245 9
0.15471645 3.1385784 -0.86018747 8
0.92027992 3.0752952 -0.8304829 10
1.2317936 3.0073996 -0.85187882 8
1.444734 3.0752175 -0.84403008 8
1.8012247 3.0339024 -0.83540642 5
-0.13735582 3.2679012 -0.87562019 4
0.44285816 3.2425842 -0.85215008 8
0.53693724 3.1716716 -0.8471247 7.5
1.2637043 3.2588027 -0.85327053 9.5
0.24766506 3.3456628 -0.8578617 8
0.68049943 3.4394801 -0.8408646 5
1.7657251 3.5183592 -0.8407445 11
0.50556642 3.6302922 -0.85375464 6
1.3509281 3.6568244 -0.85113674 10
0.8535437 3.7524519 -0.833637 6
1.4525132 3.7593565 -0.85629821 5
0.36014757 4.0353713 -0.78587997 98
0.56203449 4.0120873 -0.85710126 16
0.13579462 4.18186 -0.81745422 99
0.19963874 4.1144447 -0.78330052 104
0.61099714 4.1020846 -0.76125503 27
1.0547401 4.1070881 -0.82913172 3
1.5047716 4.1300006 -0.86126029 7
2.1861687 4.0841708 -0.8377012 2
1.7919345 4.2716355 -0.84968716 1
1.4581175 4.4522161 -0.86409259 3
1.6635762 4.6475577 -0.8629384 11
2.2827919 5.0612512 -0.84919769 10
1.6938722 5.2191 -0.85813785 1
1.9562814 5.7245812 -0.86742717 1
2.1413012 5.8463159 -0.78798699 1
1.9107573 5.9890275 -0.84484804 0
1.3232905 6.083343 -0.83142972 7
2.2761397 8.1370211 -0.82939726 27
-0.31087244 2.543191 -0.67645949 86.5
-0.28003338 2.53018 -0.63314426 87
1.6097349 2.4883795 -0.6192593 82
-0.34490877 2.5659761 -0.65736222 86.75
-0.11739018 2.6694071 -0.68937993 34.833332
0.22631611 2.6901646 -0.64635491 25
0.21813318 2.7028604 -0.69509637 14
2.2130456 3.4865003 -0.67813498 65.5
0.32082599 4.0417361 -0.69410235 104
0.13311215 4.1494236 -0.67755246 88
0.27834588 4.0711899 -0.63176107 98
-0.10542464 4.3101506 -0.66014892 81
0.73180515 4.2275872 -0.72495812 0
3.202657 5.1694531 -0.69920868 83
3.0474186 5.2690659 -0.63968015 100.5
2.238116 5.7860932 -0.6893636 17
2.3393533 5.7274303 -0.60069042 17
2.3408926 8.0819254 -0.73409706 115
2.1936951 8.1778603 -0.70119333 142
1.8919699 8.3619757 -0.69414264 123
0.98562819 1.4495353 -0.54886508 85.5
1.1025951 1.3850179 -0.54932559 15
1.0827086 1.7008257 -0.57949638 5
-0.49078843 2.0377645 -0.49279097 34.333332
-0.41392389 1.9848819 -0.49079305 1.75
-0.46570903 2.1504629 -0.51419514 2.5
-0.30434185 2.258779 -0.50943953 4
-0.27400944 2.5166118 -0.56167394 93
1.6382418 2.4630513 -0.53352958 121
1.6551844 2.4471021 -0.46072581 150
-0.45784384 2.6363525 -0.57328701 11.5
-0.081970982 2.6906013 -0.50150532 27.333334
0.21180932 2.6808503 -0.465161 42
0.1314256 2.7169461 -0.50556272 9
1.8240523 3.0589542 -0.45290339 0
-0.11220264 4.3155527 -0.53054535 87
2.9420984 5.348186 -0.55949974 105
2.71473 5.4893904 -0.46212342 117
2.8531165 5.4065442 -0.49179119 108
1.9238045 5.987174 -0.46974406 17
1.8197453 6.0519714 -0.55569738 14
2.1160431 8.2216339 -0.57141817 148
1.8204312 8.4076538 -0.5254966 120
1.0108439 1.4331162 -0.42190814 87
-0.55456173 1.9929754 -0.42126444 92.25
-0.4048712 2.0033727 -0.42099655 2.5
-0.30883318 2.1626065 -0.40943336 4
-0.21384074 2.5250657 -0.40097925 3
-0.085978419 2.6764653 -0.41783717 48.5
2.8853109 5.3820519 -0.44205666 109
2.7674072 5.4638638 -0.42259282 118
