# .PCD v0.7 - Point Cloud Data file format
VERSION 0.7
FIELDS x y z intensity
SIZE 4 4 4 4
TYPE F F F F
COUNT 1 1 1 1
WIDTH 148
HEIGHT 1
VIEWPOINT 0 0 0 1 0 0 0
POINTS 148
DATA ascii
5.201787 -0.60540164 -0.80683708 2
2.4193213 -0.32482401 -0.81489849 3
2.5641067 -0.39037445 -0.77527821 8
2.5966351 -0.24524057 -0.80535233 4
2.7436056 -0.22325514 -0.81451893 6
3.0850005 -0.29698387 -0.79213774 4
4.8762851 -0.23978895 -0.80835283 5
2.3635275 -0.14565171 -0.81767631 5
2.4917057 -0.068650022 -0.80566466 5
2.6991849 -0.033788003 -0.8141669 9
3.2034018 -0.098324552 -0.81221908 8
2.4158082 0.099539384 -0.80617344 10
3.1991897 0.10785198 -0.81162047 8
4.5657196 0.083033495 -0.79463559 4
2.3645575 0.26439929 -0.80663031 8
2.7031534 0.1524467 -0.81553954 8
2.3314695 0.39913449 -0.81145746 9.5
2.7331145 0.34312892 -0.81677169 8
3.2300823 0.31866917 -0.80949122 5
4.502562 0.38946187 -0.79298133 3
2.3695273 0.55650598 -0.81590247 7
2.7802706 0.54419661 -0.81496906 7
3.3265452 0.54453868 -0.80988443 5
2.3283575 0.60031497 -0.80539161 10
4.5784435 0.71364278 -0.79217553 2
2.355597 0.78715736 -0.80578369 8
2.4504249 0.76310772 -0.8164621 8
2.8579345 0.76327997 -0.81092763 7
3.4692214 0.79517305 -0.81172651 5
2.2215123 0.99617231 -0.8154254 8.5
2.4122925 0.99517268 -0.80721861 8
2.5739737 1.0034884 -0.8165946 6
3.0050895 1.0180907 -0.81099039 5
3.6937737 1.0909617 -0.81361115 7
4.8328762 1.0901828 -0.79503381 1
2.4965084 1.2342918 -0.80783838 6
2.8166301 1.3196912 -0.82780999 10
3.1129713 1.2856354 -0.79652172 28
2.1293807 1.4670166 -0.81601006 6
2.298449 1.4988779 -0.81482291 6
3.865257 1.4016559 -0.7991516 8
2.4524591 1.5150951 -0.80859137 7
2.6041183 1.5774419 -0.81193531 5
5.1544743 1.5266891 -0.7881341 3
1.9779303 1.7689031 -0.8254953 6
1.2676969 1.8108202 -0.75279152 62
2.6428521 1.8760735 -0.80410689 6
2.7721124 1.8554778 -0.8015942 6
2.881882 1.851473 -0.75101018 80
1.2777644 2.038868 -0.7739225 53
2.8952994 2.0992174 -0.81251764 53
7.3876009 1.9966202 -0.78435904 2.5
1.2760305 2.1490641 -0.76992941 62.5
-0.049244769 2.368557 -0.79591131 10.5
2.8267894 2.3919137 -0.8088612 6
-0.024477089 2.4654856 -0.82516956 13.4
-0.048741195 2.6013117 -0.8313489 14
1.2970465 2.5857444 -0.82120115 9
0.090889499 2.9159503 -0.82929027 6
1.6974092 3.1761363 -0.80980992 6
5.2623715 -0.62413943 -0.64741081 76
2.1188529 -0.45013431 -0.74671501 150
2.1451912 -0.36775196 -0.68562901 79
5.2677298 -0.32757458 -0.67163485 87
5.2616959 -0.28484815 -0.68177938 132
5.285522 0.034904223 -0.70076346 41.5
5.2974415 0.37857041 -0.7117151 25
5.3148537 0.7303797 -0.70926487 3
1.6289841 0.95368183 -0.61637527 44
1.4938033 1.1880257 -0.64097214 2
5.3498783 1.0924861 -0.69564545 5.5
1.2410361 1.3434111 -0.63819802 63
1.4447081 1.2093362 -0.65099055 52
2.9499171 1.2984849 -0.66484898 36
2.8560901 1.4408016 -0.67259377 81
3.6587834 1.3710159 -0.62772018 7
1.2506163 1.531322 -0.63419878 65.5
1.2545171 1.7559574 -0.65459716 54.5
2.8677783 1.8954836 -0.63549107 81
7.3735166 1.8556247 -0.62601018 112
0.11894514 2.0610156 -0.7094897 67.5
1.2748659 2.05797 -0.67170072 57
0.099451259 2.1765268 -0.71380216 13
1.2791297 2.2458718 -0.74987316 66
0.10194981 2.2827871 -0.66577113 10
1.283417 2.3684688 -0.68917137 58
1.2745503 2.4129245 -0.72207338 19
2.9120708 2.4333549 -0.68497252 80.5
7.4117503 2.5154827 -0.72417116 22.5
2.137558 -0.4547098 -0.52419746 9
3.2795358 -0.44016734 -0.52928662 107
5.1938214 -0.31444719 -0.52000487 60
5.2689891 -0.41953111 -0.50711268 37
5.2815142 -0.094281703 -0.52910751 94
5.2820525 0.0045331526 -0.55028981 91
5.2907357 0.23297065 -0.53933591 101
5.2961502 0.33213365 -0.56768799 104
5.3158107 0.56586963 -0.53726023 12
5.3271232 0.66509241 -0.57319605 14
1.6048775 0.99520206 -0.51220882 43
5.333147 0.95468593 -0.54468071 12.5
1.4826415 1.1895337 -0.50308406 38.5
0.70341641 1.2370571 -0.45060647 67
1.0835105 1.29205 -0.47663376 150
1.2414622 1.2841712 -0.52694166 64.666664
1.4450214 1.2311747 -0.5834446 29.5
2.91713 1.2950846 -0.50254333 58
3.0164466 1.2879915 -0.45576724 34
5.3318863 1.2480438 -0.49492118 1
0.076375827 1.4370096 -0.48186404 2.5
0.62883139 1.3562497 -0.47816426 0
1.2411088 1.3897904 -0.54293305 62
1.2385471 1.5380814 -0.49438849 83
0.096967265 1.8544401 -0.4885135 5
2.8730659 1.939858 -0.51909417 74
0.12787028 2.0535278 -0.55678105 94.5
0.15903403 2.0523272 -0.54157954 97
7.3886046 2.1930959 -0.49652731 108
7.3978705 2.3491271 -0.58528769 118
2.9025338 2.4642787 -0.50342858 73
2.1242392 -0.45760491 -0.44447088 150
2.118006 -0.44993681 -0.44974637 115
2.5881708 -0.40144128 -0.40630528 45
2.7201066 -0.37037727 -0.41588435 21
5.2912426 0.24013187 -0.4165377 95
5.3188925 0.55686826 -0.43021917 13
5.3364258 0.88284385 -0.43440461 13
1.6257042 0.93013871 -0.42481181 47
0.72946787 1.1599151 -0.40616739 9.5
1.4522102 1.1958183 -0.40245876 48
-0.30061087 1.2439274 -0.4153026 8
-0.2679294 1.2371559 -0.43445596 17
-0.083344623 1.2877442 -0.41920725 16.4
0.071800932 1.2996351 -0.40940791 7
0.23789841 1.2729105 -0.4262366 16.5
0.36606583 1.2683269 -0.44144502 14.333333
0.45557129 1.2594209 -0.41352654 56
0.62205458 1.2970843 -0.4227758 46.5
0.84170526 1.2050698 -0.41942748 42
0.93898535 1.2178257 -0.4282856 46.5
1.2409798 1.3111697 -0.43344384 64
3.1588416 1.2619463 -0.41943109 24
5.3367133 1.2144848 -0.42683464 3
0.078714058 1.4490142 -0.43574026 1
2.8550181 1.4539888 -0.41741526 93.5
2.8644366 1.7960209 -0.4241285 106
7.3940554 2.139956 -0.43687728 123
7.4116926 2.6940944 -0.42088875 104
