# .PCD v0.7 - Point Cloud Data file format
VERSION 0.7
FIELDS x y z intensity
SIZE 4 4 4 4
TYPE F F F F
COUNT 1 1 1 1
WIDTH 1505
HEIGHT 1
VIEWPOINT 0 0 0 1 0 0 0
POINTS 1505
DATA ascii
0.020237964 -3.251204 -0.18768787 44
0.023047846 -1.6951739 -0.18984711 1
-0.52400857 -1.5810093 -0.17993315 13
-0.40532783 -1.6157198 -0.17881854 1.6666666
0.024815481 -1.5746193 -0.15694743 6
-0.47671977 -1.4822891 -0.15558641 2
-0.5126273 -1.2176093 -0.17354472 12.428572
-0.41942334 -1.2310953 -0.16126829 7
-0.19840151 -1.2907894 -0.15558298 11.5
-0.093594611 -1.3093019 -0.18392955 4
0.13364294 -1.3341254 -0.17748937 7
0.22450697 -1.2855645 -0.17908944 8
0.18539234 -1.1622827 -0.19465327 6.5
1.4319589 -1.081442 -0.17516214 15
0.21238489 -0.90495157 -0.17510863 7
1.4582763 -0.93093026 -0.17652375 80
4.6615372 -0.98271501 -0.19832943 83
-0.47661436 -0.75068176 -0.1854507 10
-0.33249474 -0.76502925 -0.16918568 12.666667
-0.26760897 -0.78063333 -0.16722359 13.2
-0.090500914 -0.82261175 -0.17060311 11.333333
0.24230826 -0.83613569 -0.17016733 9.1999998
4.696465 -0.86689824 -0.16152762 78
-0.50238097 -0.71461946 -0.17180467 9.666667
-0.42115989 -0.73425239 -0.16885114 7
0.2809394 -0.69990045 -0.1860844 10
0.30552143 -0.60929608 -0.17615755 9
0.46767873 -0.60035348 -0.15254933 7
0.62211865 -0.63616312 -0.17609788 3.5
0.10469577 -0.52930653 -0.17188475 6
0.25076425 -0.57639211 -0.1566572 7
0.33922976 -0.57522976 -0.17640987 10.5
0.47005594 -0.59124219 -0.19221753 4
4.9354286 0.098623224 -0.16357671 8
3.4286094 0.62814289 -0.18933372 0
0.38614732 0.89289391 -0.17862315 0
0.48932216 0.85776138 -0.19084653 0
0.96202564 0.88561004 -0.17230463 49
1.1221678 0.83985472 -0.17441349 64
1.2776005 0.76697439 -0.19113483 25
2.5321655 0.8096689 -0.19762218 78
2.5534751 0.87456304 -0.18635342 76
0.29947233 0.96070558 -0.15790579 0
0.34076443 0.94180059 -0.18234758 0.5
2.5755081 1.0016284 -0.1705106 77
-0.6694625 1.1149334 -0.17496681 0
-0.49927324 1.1203126 -0.16901219 0.5714286
-0.22195618 1.1652172 -0.17404251 12
-0.022236634 1.106308 -0.16419384 18.5
0.061554294 1.0846564 -0.17484152 16.444445
2.5956392 1.0688612 -0.15040486 76
2.6545343 1.3010256 -0.19925848 75
0.37447208 1.3881863 -0.15974298 16
-0.97185683 1.5299526 -0.16104041 59
-0.28583246 1.5273935 -0.15596697 16
2.5857756 5.542274 -0.19222942 25
-0.053543571 -3.3631394 -0.079701312 11
0.19817521 -3.2951043 -0.097767837 61
-0.54133379 -1.6188074 -0.14870606 1
0.13056023 -1.3634117 -0.11582456 5
4.0564003 -1.3931206 -0.084911831 120
-0.49440765 -1.212868 -0.12211726 11.4
-0.43197614 -1.2222478 -0.14553985 3
-0.23216198 -1.2738861 -0.12469419 13.666667
-0.12677222 -1.3063859 -0.14189167 11.666667
0.084635444 -1.3340403 -0.12746431 8.333333
0.15594023 -1.2490138 -0.14172502 6.3333335
4.0881472 -1.3014039 -0.046178792 34
4.598043 -1.2642738 -0.13417248 79
-0.6182884 -1.1842552 -0.12361322 15
-0.54533917 -1.1904022 -0.12808207 10.714286
-0.2073334 -1.1308272 -0.12511669 11.5
0.16693808 -1.1919551 -0.14786817 6
4.6257749 -1.1526308 -0.094943918 84
-0.58893979 -0.94861317 -0.14246266 8
0.21358991 -0.9040553 -0.13464396 7.6666665
1.3174552 -0.96665525 -0.080736466 16
1.4503108 -0.98170894 -0.12157457 84.5
1.9183123 -0.96044034 -0.088741995 7
2.0296071 -0.91347581 -0.057634987 1
4.6586432 -1.0242243 -0.03896505 82
-0.35269493 -0.75672901 -0.1286429 13.142858
-0.21524206 -0.78542238 -0.11099132 12.294118
-0.086363398 -0.80718195 -0.11548351 10
0.073703609 -0.82833451 -0.10710977 7
0.22832833 -0.83644098 -0.10786822 7.090909
1.0484955 -0.81158471 -0.08657027 15
1.1357212 -0.79786885 -0.083540149 16.5
1.3442484 -0.86819112 -0.081107594 18
1.4588239 -0.88767648 -0.087952949 41
1.6181369 -0.88020861 -0.11555536 18.5
2.1553016 -0.89991271 -0.12149585 0
4.71701 -0.75106019 -0.086561777 88
-0.49780837 -0.69630337 -0.12205569 5.3000002
-0.38551489 -0.69981575 -0.10020751 7.9473686
-0.26200446 -0.69735509 -0.091026664 4.5
-0.077883691 -0.66683435 -0.092230923 3.5833333
0.063238166 -0.64804965 -0.090911873 4
0.24176344 -0.67905009 -0.10862377 6.2727275
0.51366025 -0.61139953 -0.11006742 3.75
0.63681507 -0.6390928 -0.11804875 3.75
0.82311672 -0.68600702 -0.086925991 1.6666666
1.0106183 -0.72597241 -0.070345588 1
-0.48046485 -0.54358929 -0.093303859 5
-0.38531131 -0.5215764 -0.091696933 6.181818
-0.225945 -0.52300507 -0.093126915 5.6428571
-0.07757505 -0.49012429 -0.091733888 6.125
0.096952721 -0.51694357 -0.092255875 4.181818
0.23078144 -0.52623969 -0.063787125 4.5
0.34081247 -0.57203966 -0.11713609 7
0.48657635 -0.59904909 -0.097042218 2
4.7891817 -0.52538055 -0.082249157 13
-0.65377331 -0.32198969 -0.078993462 6.8571429
-0.092602886 -0.43992209 -0.10428495 18.333334
4.8513279 -0.24202034 -0.11573036 10
4.9081149 -0.0026678196 -0.11030505 10
7.0718646 0.4228304 -0.046882872 117
2.8475387 0.57772446 -0.016947424 30
3.4576573 0.57318652 -0.073771246 52
7.09834 0.56755668 -0.1016371 121
2.5111833 0.70481902 -0.083179913 58.5
2.6235414 0.62103742 -0.12094054 28
3.4563663 0.61969846 -0.076522507 10
0.51854187 0.87854064 -0.069763459 1.5
0.70076418 0.88413155 -0.073286496 1.25
0.82633352 0.89457631 -0.1095557 6
0.99748927 0.87852103 -0.094939135 49.333332
1.1318958 0.82559907 -0.060615756 63.299999
1.2383633 0.78023577 -0.10343137 44.333332
2.5277865 0.77663171 -0.10070086 74
2.6539166 0.86886173 -0.018075382 150
7.1620989 0.85340267 -0.053849611 101
-0.55754375 1.043864 -0.12635675 0
0.26793176 1.007673 -0.10700861 4.8571429
0.38360441 0.97472423 -0.072418116 0.66666669
0.49421734 0.93378371 -0.043068714 0.42857143
0.65534294 0.90898746 -0.072318837 5.4285712
0.88048965 0.97235531 -0.12461791 1
0.99373865 0.95688522 -0.08499296 49.200001
2.5648289 0.93998986 -0.083280869 64
7.2018824 1.0020435 -0.088805445 103
-0.7857548 1.1881981 -0.070952967 0
-0.67208934 1.1702784 -0.043420028 0.25
-0.53068376 1.1286163 -0.066784352 0.8888889
-0.38770849 1.1326218 -0.085289873 2.0714285
-0.26756239 1.1511701 -0.12559442 6.5
-0.051305942 1.1063387 -0.11603042 13
0.065474734 1.0765038 -0.13407305 14
0.31718159 1.0579491 -0.12226204 16
2.5976579 1.1161776 -0.068475999 52
-0.79843688 1.233081 -0.10973663 11.833333
-0.72252953 1.2179393 -0.12519598 1
-0.33626837 1.2877989 -0.12974802 14.5
2.6439357 1.2465589 -0.11832067 75.5
2.7981887 1.2168585 -0.0067242431 27
-0.91458392 1.4395176 -0.12882552 7
-0.88753128 1.3576453 -0.1317029 19.5
-0.29230961 1.4813377 -0.12618998 3
-0.96505135 1.5290902 -0.13108003 36
-0.25481358 1.513865 -0.13669015 8
2.7938693 6.6067491 -0.056975577 7
4.0606756 -1.4116127 0.047639158 56
4.2267818 -1.2916833 0.11579054 29
4.4692664 -1.2708006 0.14040327 150
4.5854154 -1.2911757 0.018715704 88
4.6358562 -1.1196624 0.074022047 73
4.6451502 -1.0396665 0.10092639 75
1.972777 -0.88837868 0.038225647 4
4.7088404 -0.81445909 0.035811719 78.5
-0.11549598 -0.4919869 0.054688513 2.4000001
0.11802384 -0.53887749 0.075611025 3.5
0.20464373 -0.54661745 0.070868723 2.8333333
4.7774181 -0.54577512 0.082877338 17.5
4.8322339 -0.31197965 0.093956701 11
4.8462954 -0.24584661 0.010353024 11
-1.0959852 -0.062203191 0.10417645 3
4.8925848 -0.038960822 0.063940667 11
-1.0925096 0.017485499 0.14679623 0.5
-1.0158482 0.077199079 0.09918651 0.16666667
4.910336 0.029957851 0.00033056259 11
-1.1302261 0.24985594 0.11385351 0
-0.96233302 0.18320513 0.088200606 5.25
7.0590534 0.44649124 0.13143933 105
2.8833175 0.55458397 0.034333702 4
3.5255849 0.53173536 0.063741706 37.666668
2.9003804 0.6642924 0.032614563 47.333332
0.43325478 0.89110458 0.14815259 0
0.52431893 0.88222629 0.1210665 0.60000002
0.66740185 0.86780745 0.085224099 1.7777778
1.1086583 0.84576702 0.09338215 55.916668
1.2533334 0.78785825 0.077722609 41.125
2.769532 0.76862037 0.029819261 150
7.1606679 0.85212928 0.14927787 104
0.26485893 0.9493435 0.083269827 0
0.35863417 0.95750761 0.047758568 0.71428573
0.50398302 0.91577733 0.050008051 0.71428573
1.0227486 0.94888914 0.066343449 62.142857
1.067965 0.9144237 0.12902974 57
2.9752018 0.98674577 0.088566303 76.666664
-0.7847839 1.1783578 0.055995427 1.5714285
-0.66432405 1.1414137 0.08805564 0.45454547
-0.5283758 1.1249967 0.055357121 0.92307693
-0.38837522 1.073481 0.075909071 0.42857143
1.0454905 1.0576218 0.14141476 25
1.0968772 1.1112188 0.1204695 11
2.9195721 1.1386877 0.087892197 17
2.9510763 1.208315 0.13869023 12
0.49691918 1.472888 0.104652 24.666666
2.9317584 1.4687039 0.057918783 25
3.0607421 1.3956654 0.077222846 74
-0.19414341 1.6486369 0.14794636 50
-0.052354861 1.6115679 0.086026885 38
0.28593838 1.6290984 0.12810045 3
0.39863774 1.605935 0.099396326 2.7142856
0.48052555 1.5528996 0.068187736 2.5
2.8521516 1.5119725 0.090556346 68
3.0795715 1.5216646 0.016730005 79
-0.18216345 1.6629674 0.09795583 43
-0.095223136 1.6676391 0.092613637 44.666668
0.071938567 1.6925846 0.088349931 26
0.19350322 1.6513749 0.032265063 0
0.025334548 1.8181231 0.05969068 3
-1.4872007 2.0324383 0.11379867 1
3.9191234 -1.7090625 0.26350659 42
4.0213637 -1.3920153 0.20884734 17.5
4.5698938 -1.2817721 0.27639753 56
4.638443 -1.0887671 0.24422419 74
4.6549997 -1.0338626 0.2382217 80
4.7039785 -0.80707526 0.19463673 77
-1.086067 -0.60811836 0.25489765 8.6000004
-0.99269265 -0.6300115 0.24733627 6.3333335
-1.3554443 -0.54365247 0.24386299 10
-1.2635797 -0.56338942 0.25541937 8
-1.1557572 -0.58955956 0.2502932 9
4.786489 -0.52756029 0.18654108 17
4.8170252 -0.38208747 0.27623981 11.5
4.8508162 -0.24810019 0.2294226 13.5
-1.240333 -0.037848901 0.26934016 4
4.8871961 -0.080768608 0.22125261 10.666667
-1.1653143 0.12875271 0.27059886 0
4.9109087 0.10298226 0.24685112 6
-1.1297989 0.26015303 0.21403903 0
-1.0270697 0.2608369 0.18345653 0
-1.0930816 0.32997817 0.21718684 2.8
-1.0335003 0.33148193 0.21285212 5.6666665
7.0432992 0.34796396 0.19402468 103
2.9059017 0.66093904 0.23953037 56.166668
3.4920726 0.61992341 0.24593931 29
0.41424203 0.87380719 0.28492588 1
0.4938972 0.84135514 0.20170105 1.4166666
1.1259093 0.8564834 0.20337275 54.375
1.2537534 0.80522823 0.2094661 47.833332
1.3738316 0.81323999 0.25520146 27
2.9492149 0.8526001 0.22883837 72
7.1382895 0.75337571 0.18181658 103
0.4013775 0.98052877 0.25015032 0.75
0.48240224 0.94014674 0.2646789 1.6
1.0394279 0.99552816 0.21413885 42.666668
1.0671624 0.96585339 0.24325916 48.444443
2.956862 0.91471934 0.29429489 71
-0.67748326 1.1703845 0.28679681 7
-0.51570666 1.137291 0.26768398 0.90909094
-0.42520228 1.1601886 0.22563887 2
1.0420003 1.0953258 0.25318736 16
1.0887685 1.08544 0.22545797 33
2.9980552 1.0775654 0.25274897 66
3.005162 1.0848156 0.24784297 68
3.0475142 1.2937847 0.29936844 78
-1.7512366 1.3931135 0.27897161 2
0.42119837 1.4007847 0.26949185 93
0.46610573 1.3609793 0.23406714 64
2.8327289 1.4787016 0.18837053 37
3.0635774 1.4131727 0.19447054 58.666668
-0.20155816 1.6448444 0.18339175 38
-0.091180623 1.6470017 0.20339519 38
2.9751332 1.5517062 0.24537653 91
-0.17481941 1.6915362 0.2164596 56
-0.12303232 1.6649145 0.21044815 46
-1.8045315 1.9054803 0.25002325 17
-1.681674 2.8042278 0.26227567 2.6666667
-1.5191859 2.7744498 0.26506364 4
4.3771996 -2.1807113 0.44985276 70
4.4036016 -2.0851007 0.37048632 43
4.0135641 -1.4260137 0.32021821 25
4.1016831 -1.3205307 0.4254418 57
4.5137072 -1.3224812 0.30650347 53
4.6260548 -1.1380737 0.42827243 78.5
4.6651134 -0.98777938 0.39517072 79
-1.0094239 -0.83064526 0.40215841 6.4000001
2.054467 -0.85072672 0.42804366 3
2.1746767 -0.8555522 0.36630297 2.25
2.2674067 -0.8722344 0.41104478 3
4.7093525 -0.80690014 0.37035292 75
-1.0725291 -0.60407341 0.38479492 7
-0.98908043 -0.65340227 0.35431206 4.6923075
2.1132231 -0.74254048 0.39818543 2
4.7509193 -0.63973093 0.31612834 74
-1.7164207 -0.46044523 0.42082936 44
-1.5365001 -0.50207192 0.40454051 8.5
-1.4046158 -0.52965879 0.37249768 7.75
-1.2645147 -0.56093246 0.3559064 7.4166665
-1.148432 -0.58588707 0.35422629 7.375
4.7886643 -0.50197101 0.32013774 16
-1.2883869 -0.019103812 0.36266187 4
-1.2557931 0.063919485 0.40594199 1.8888888
-1.1525612 0.14518619 0.30415595 0
4.9150105 0.048568394 0.44299132 10
-1.1510326 0.19067277 0.38477728 0
7.0269499 0.23768584 0.44560361 24
-1.1327553 0.34557211 0.36316931 2.6666667
7.0517497 0.36937726 0.37543964 93
2.8874798 0.58538872 0.4024027 35.5
3.4460523 0.52299905 0.38528889 38
3.4667513 0.54391539 0.35969049 44
2.9165144 0.73673189 0.43623114 70
7.1172252 0.68260306 0.41026944 96
0.41597968 0.88676471 0.31751248 3
0.55871218 0.86918622 0.30032182 1
1.1563295 0.86680651 0.32367098 44.666668
1.267242 0.79407835 0.32131484 44
1.3932213 0.77323884 0.32294524 13
2.9291635 0.77796888 0.36857736 59.75
0.39028651 0.92190343 0.30713013 1
1.0128008 0.98848248 0.34002313 23.5
1.0759325 0.95881444 0.3502399 48.5
2.9750116 0.97923654 0.34592643 71.333336
-0.64317632 1.120122 0.30556753 1
1.0143616 1.0928222 0.35694122 32.333332
1.051636 1.0509859 0.43145859 49
3.0127208 1.1597419 0.38353652 70.5
2.8226967 1.3026979 0.39200723 98
2.9297462 1.282704 0.44630021 150
3.0399942 1.3048542 0.35952044 93
0.4013826 1.4065981 0.31573722 41.666668
2.802788 1.4487888 0.43523338 105
3.0411656 1.4843239 0.36816347 150
3.0830433 1.5110489 0.36062425 99
-0.26352707 2.4755912 0.3719672 12
3.1782804 2.8860948 0.43215889 14
4.3566141 -2.3284018 0.55555397 4
4.4126682 -2.0750952 0.53132093 74
3.9520152 -1.5153019 0.4892965 12
4.0534101 -1.4008261 0.49520838 51
4.5854058 -1.3040618 0.50144416 78.5
-1.0492017 -0.96755153 0.58167046 6
4.6555233 -0.97256589 0.55885547 109
-0.99555832 -0.7650004 0.48011076 5
-0.98751545 -0.66373307 0.55370104 4.5833335
4.7182512 -0.72620571 0.54166633 69
-1.7123531 -0.460751 0.54164374 30.25
-1.5779661 -0.48968399 0.52696925 36.833332
-1.4525285 -0.51964623 0.51663852 15.875
-1.2857718 -0.55560946 0.51825213 7.375
-1.130861 -0.58601785 0.50176281 6.875
4.7870789 -0.47497141 0.50328773 10
4.8521624 -0.20806701 0.51098847 10.666667
4.8780494 -0.092143945 0.58774948 11
-1.2546747 0.059836444 0.52677071 3.1428571
-1.1988351 0.13203403 0.49000901 0
4.9149952 0.063540608 0.52231181 10.5
-1.2118704 0.16796207 0.54828238 0
-1.1408328 0.24439183 0.5082922 0
-1.1067131 0.37632006 0.49387902 5.25
2.8840528 0.5833692 0.53609574 18
3.4454536 0.50907958 0.52092707 30.5
7.0840859 0.49807945 0.49264807 98
2.901334 0.6815989 0.52234793 62.333332
3.4439569 0.63065374 0.56969512 11
7.1142511 0.63190502 0.45702869 101
2.9317863 0.81049514 0.53684014 63
2.966424 0.95067543 0.47821131 66.75
7.1853733 0.91959649 0.50496876 101
1.0363792 1.1359982 0.485062 18
2.9921908 1.0917649 0.49736869 67
3.0073769 1.1478645 0.53487295 72.666664
2.9303045 1.2822665 0.5398289 150
3.035836 1.2864494 0.54173249 68
2.802175 1.3700869 0.52275234 60
2.8809433 1.4409881 0.49216324 150
3.2525659 2.8817787 0.56636715 14
4.3474889 -2.3388474 0.71097052 71
4.440485 -1.955982 0.69824421 75
4.1349254 -1.579343 0.69233036 18
4.4419427 -1.4296604 0.6685214 150
-1.1019279 -1.2187262 0.69758761 22
4.5988836 -1.2178085 0.65718126 71.5
-1.0740001 -1.1209319 0.73868597 10.5
-1.0546668 -1.0478917 0.72124159 1
-1.0333856 -0.93360442 0.67071563 10.333333
4.6575966 -0.97103792 0.69260424 78
-1.0125101 -0.84056997 0.65033895 3.8
4.685431 -0.86732811 0.70143414 73
-1.0248559 -0.60644996 0.62676513 6.5
4.7288203 -0.68956661 0.66928929 73.333336
-1.6674103 -0.47006679 0.65053558 38.333332
-1.6140398 -0.48159742 0.66342819 38.25
-1.4216133 -0.52291679 0.67408019 21
-1.2804977 -0.55363536 0.66749841 14.666667
-1.1206816 -0.58586162 0.66801935 7.1666665
4.7873917 -0.47183821 0.67765743 11.333333
4.812809 -0.35743931 0.61209828 11
4.8417034 -0.23940718 0.68671966 11
4.8918486 -0.018316666 0.65160453 11
-1.1606338 0.14565489 0.69464922 5
4.9019804 0.034562141 0.69421685 11
-1.2111683 0.17556547 0.63763386 4.5
-1.168775 0.21790083 0.656385 6.5
3.4101722 0.55016744 0.66814494 47
3.4950273 0.52276117 0.68811905 39
7.0676579 0.45804572 0.74920535 101
2.901618 0.67520165 0.72521555 60.5
2.9563417 0.92814457 0.61021537 63.5
2.9921889 1.0871158 0.64873612 67
3.000972 1.1218199 0.67263126 67
2.8710983 1.2921644 0.60007596 88
3.0392449 1.2907567 0.72152102 70
2.78163 1.3672836 0.70962036 54
2.8604751 1.413506 0.67866707 134
3.0719104 1.5308331 0.64326501 83
-2.744679 2.0604036 0.73521554 63
-2.6778793 2.3531957 0.73570037 38
-2.6074498 2.6195662 0.69494218 61.400002
3.1969159 2.8235273 0.70161021 16
-2.5333328 2.9355781 0.67404574 51.333332
-2.4588683 3.3119652 0.72929215 24
-2.0176492 3.6530633 0.68104231 8
1.0778372 3.6042044 0.73658335 32
-2.0704625 3.7516267 0.66311419 13
-2.1873696 3.9490159 0.61589187 16
-2.2716641 4.2966251 0.67607504 32
-2.2238526 4.3308434 0.63560987 1
4.2874269 -2.591825 0.84128559 72
4.3726387 -2.2222614 0.84010053 77
4.416141 -2.0378098 0.78943896 74.5
4.4329724 -1.9439769 0.86961114 70
4.4891453 -1.7033941 0.87401605 68
-1.1294934 -1.3597914 0.8994149 20
4.5486398 -1.4284065 0.8350035 64
-1.0995739 -1.232198 0.8723433 21
4.6046767 -1.2095896 0.78604001 78
-1.081531 -1.1463566 0.80396616 20
4.6217265 -1.1328677 0.83217108 74
-1.0426099 -1.0232342 0.76746416 12
4.6767626 -0.9222005 0.83564651 71
4.6949453 -0.78272527 0.8972007 70
-0.96989286 -0.65353298 0.83467007 13.75
4.7274637 -0.68931246 0.78287005 69
-1.7053628 -0.46173006 0.817047 31
-1.5654421 -0.49047804 0.80181658 31.75
-1.4073792 -0.52276886 0.82054931 33.5
-1.2510201 -0.55502486 0.80122167 22.333334
-1.1593568 -0.58238065 0.76649582 7
-1.048669 -0.59603512 0.83647728 34
4.7715588 -0.52880448 0.87434012 10
4.8267994 -0.30697575 0.83050931 10
4.8278556 -0.28304261 0.86046284 10
4.8840194 -0.048420116 0.83819884 10
-1.2500354 0.069159374 0.80349851 2
-1.1230268 0.092185348 0.78185296 1
-1.0477891 0.13646041 0.81548154 0
-1.0902809 0.22102946 0.78873456 4.3333335
3.2634077 0.42292047 0.81873429 6
3.3083863 0.52973473 0.83833992 20
7.0699282 0.46076393 0.78640795 95
2.9304261 0.82502753 0.75582498 59.5
7.1540618 0.85213983 0.7810297 98
2.9635491 0.98277855 0.79513967 64.5
2.9923031 1.1087588 0.84838247 61
3.0117514 1.1903152 0.84125507 60
-2.9082983 1.3649198 0.88938034 96
3.013695 1.35738 0.88709879 150
-2.8555272 1.6044374 0.86950696 93.5
-2.7965384 1.8472773 0.84432513 79.333336
-2.7401853 2.0932524 0.82722497 71.5
-2.7306046 2.1213644 0.85717028 72
-2.6672752 2.3710628 0.81464207 71
-2.6581404 2.4124272 0.88328135 72
-2.5990913 2.6743739 0.8246479 61.333332
-2.5983603 2.7140021 0.88813663 60
-2.5272708 2.9860935 0.80513388 51.333332
-2.4928889 3.1429162 0.8858068 51
-2.4931843 3.1505017 0.83977783 54
-2.477031 3.3953049 0.8481245 61
-2.4411223 3.514317 0.83892053 47.25
1.1374741 3.5738311 0.78708822 14.5
0.81618124 3.6657078 0.85923594 33.666668
0.94865501 3.6303024 0.78042656 34.5
-2.3780475 3.8302684 0.80275816 19.25
-2.3610916 3.9540443 0.75041878 1
-0.23722726 3.9068871 0.86812484 39
4.2293611 -2.8510873 0.98833835 74
4.3149624 -2.4642844 0.96533275 75.5
4.3424377 -2.321959 0.95654154 72
4.3700199 -2.1827183 0.97726238 73
4.4370661 -1.9344066 1.0007858 70
4.5140109 -1.6038545 0.9449569 53
4.5585833 -1.3967016 0.99711984 51
-1.1227841 -1.3217202 0.94943172 20
4.5930419 -1.2345786 1.0303947 72.5
4.6108804 -1.1913778 0.97460711 78
4.6429033 -1.0043821 0.96201319 71.5
4.6599293 -0.96409923 0.93390024 81
-1.0063508 -0.80862683 0.96173161 16.200001
4.7085862 -0.76213294 0.91875792 68
-1.0569211 -0.60350597 0.92206585 6
-0.98227608 -0.65287983 0.95364833 8.75
4.7253046 -0.70479965 0.9647032 77.5
-1.6920848 -0.45798111 0.94198138 29.5
-1.5832952 -0.4793849 0.98647422 29.333334
-1.3930809 -0.52263194 0.95803595 30
-1.2851259 -0.54419976 0.9066242 30
-1.1251214 -0.5770815 0.96550405 28.5
-1.0315192 -0.59849387 0.97637987 27.333334
4.7941937 -0.45574328 0.98661304 10
4.8507476 -0.23284549 0.95663977 9
4.9011512 -0.0037511368 0.93372476 10
7.0243478 0.26104155 0.93889892 62
7.0378447 0.33862337 1.0447184 8
7.0850205 0.50730687 0.92529905 98
7.1107049 0.65300024 0.94458866 94
7.1886444 0.91011006 0.94941473 100
3.033201 1.2799202 0.9075737 62
-2.9026082 1.4067243 1.0000712 90.25
3.0768673 1.4626108 0.97861493 61
-2.853385 1.6087799 0.96580303 90
-2.842932 1.6383685 0.94832206 84
-2.8338101 1.670825 1.0172999 88.5
-2.787025 1.8956301 0.97832382 85.599998
-2.7197292 2.1706634 0.98703349 78
-2.6969478 2.2488933 1.0106587 69
-2.66084 2.3925092 0.91750383 71
-2.6416547 2.4752502 0.98492658 65.199997
-2.5770957 2.7895994 0.96220881 55.833332
-2.516784 3.0709896 0.96948099 54.200001
-2.4690876 3.4072847 0.96965951 60.5
1.1029204 3.581228 1.0131934 2
0.57222641 3.7320366 0.99575847 35
0.7160356 3.6957083 0.99163884 33
0.97609645 3.6266949 0.96079236 28.666666
-2.3897336 3.7806306 0.91345131 58
-0.25137898 3.9106364 1.0005317 43.5
-2.2899451 4.3169732 0.99604928 56
4.2529187 -2.7073724 1.1033621 72.5
4.2851529 -2.582768 1.1127177 73
4.3116598 -2.4267757 1.1000012 73
4.3806663 -2.1676149 1.139356 73.666664
4.4037132 -2.0845029 1.1824883 77
4.4543662 -1.8681712 1.1089611 75.5
4.5836887 -1.3045185 1.1936103 80
-1.0644692 -1.075394 1.1452436 10.666667
4.6316013 -1.0952508 1.1272531 80
-1.0348891 -0.94857138 1.1119677 17.666666
4.639895 -1.0489378 1.192131 71
-1.0133977 -0.84053934 1.1026297 24
4.6807079 -0.86377144 1.1355231 73.333336
-0.97389615 -0.62576222 1.1760072 2
4.7380114 -0.63490188 1.1279132 72
-1.5692952 -0.48066783 1.1390121 28.5
-1.4297053 -0.51389241 1.0989252 30.5
-1.2171117 -0.56018561 1.1283159 32
-1.1393423 -0.57539541 1.1086918 28.4
4.7986622 -0.43936616 1.1189671 10
4.8001695 -0.38737488 1.0808759 11
4.8515978 -0.18616036 1.0797418 10.5
4.9118996 0.045700923 1.0725458 10
7.0581059 0.41586521 1.0897099 88
7.1301761 0.70221305 1.0657072 77
7.1380939 0.7836386 1.0932509 84
-2.9465318 1.2345905 1.1536591 88.75
-2.892375 1.4591109 1.123057 90
-2.881243 1.5112637 1.1599021 75
-2.826669 1.7249212 1.1282606 82.166664
-2.777283 1.9458714 1.1456664 73
-2.7651 1.9942249 1.1179775 73.800003
-2.724484 2.1508713 1.1337608 73.5
-2.6858289 2.3024969 1.1287035 70
-2.6341317 2.5235872 1.1097742 59.666668
-2.5991943 2.6746969 1.0748411 58
-2.5781305 2.7681849 1.0868431 59
-2.5203986 3.0552738 1.1555026 51
-2.4606464 3.4341347 1.1125894 64
0.52479696 3.7420568 1.1456115 34
0.71185058 3.6905377 1.0995924 27
0.81771594 3.667624 1.1275432 24
0.9190858 3.6414263 1.1502017 29
-2.3711877 3.860981 1.1207899 24
-0.095950745 3.8824105 1.08237 42
0.022604983 3.8584192 1.0575897 46
0.36027136 3.7810383 1.1495297 31.5
-0.22669308 3.9062147 1.1064656 40
-2.2628059 4.3037443 1.1503558 4
4.2060995 -2.9634025 1.2614371 85.5
4.2317209 -2.8476498 1.2902853 80
4.2561641 -2.6741326 1.2387998 77
4.3220615 -2.4139941 1.2367671 74.5
4.33991 -2.3596983 1.3369249 75.666664
4.4005151 -2.1201274 1.2473737 78
4.4137683 -2.0521698 1.2617259 72
4.4384623 -1.9153284 1.312428 73
4.5346694 -1.51149 1.2676176 77
4.5376997 -1.4807925 1.3219289 71
-1.1257482 -1.3164538 1.336887 19
4.5791025 -1.2832081 1.2825415 71.5
-1.0736988 -1.1170231 1.2785885 16
4.6273088 -1.0904349 1.2497566 72
-3.4285545 -0.71680796 1.3001736 99
-0.96736813 -0.63039696 1.2684114 10
-1.6816703 -0.45532984 1.2376533 29
-1.5944972 -0.47384688 1.265137 29.5
-1.3507355 -0.52743763 1.2229339 23
-1.2827027 -0.54021633 1.3211508 23.25
-1.1526123 -0.57306165 1.2189635 25
-3.3708115 -0.44639754 1.2842182 91
-3.2852995 -0.21571417 1.3407642 20
7.0316525 0.28184327 1.2619605 76
7.0439029 0.31812561 1.2799261 7
7.1179609 0.66548538 1.2812604 87
7.2035112 1.024842 1.3068975 87
-2.9329886 1.2906097 1.2687428 85.400002
-2.9020951 1.4314122 1.2889912 85.5
-2.8818851 1.5568143 1.2590951 65.199997
-2.8251019 1.7581377 1.2578626 89
-2.803792 1.8368807 1.2770522 84
-2.7565413 2.0187106 1.2600654 88.5
-2.7149987 2.2079268 1.2577512 71.5
-2.6526098 2.4388134 1.2520769 63
-2.5847056 2.7614026 1.2691575 54.5
-2.5136704 3.111038 1.2853906 47
-2.4734502 3.2398815 1.3295963 50
-2.450078 3.5223548 1.3095469 62.333332
-2.4111633 3.6550279 1.2970749 61
0.55546045 3.7340159 1.2840514 29
0.69626677 3.6997797 1.2926375 31.5
-2.3626571 3.8638501 1.2670012 21
0.33833337 3.784775 1.2685001 34
-0.3522183 3.9425642 1.2881733 39
-0.22947417 3.9133689 1.2477081 45.5
-2.2172639 4.2977128 1.2345383 52
4.1452174 -3.2165999 1.432834 85
4.1623397 -3.1070848 1.4834547 6
4.2118063 -2.9334331 1.399559 82
4.2841415 -2.6271822 1.4292397 77.25
4.359479 -2.2783408 1.3824439 72
4.3863926 -2.1404855 1.4331908 74.5
4.4423542 -1.9280446 1.4475776 62
4.4881492 -1.7159973 1.4150308 73.333336
4.527133 -1.5155225 1.3945409 71
-1.1044565 -1.2287017 1.3983778 18
4.588624 -1.2540033 1.4911578 77
-1.0632851 -1.0783238 1.3659092 11
4.638577 -1.0508214 1.4440758 76
-3.4491599 -0.91778731 1.4668478 75
4.6594119 -0.96383595 1.4981747 76
-1.0075445 -0.81202447 1.3979263 23.5
4.6942496 -0.80563509 1.4288306 72.5
-3.4162855 -0.68572235 1.4300637 91.25
-0.9753139 -0.68081176 1.4355347 23
4.7360392 -0.6416989 1.3761503 73
-3.3761976 -0.47730127 1.4079295 94
-1.3936189 -0.51475066 1.3703815 29
-1.3214108 -0.53567475 1.4195223 20.5
-1.0815611 -0.58328581 1.4223562 24.333334
-1.0092809 -0.5936569 1.4721639 26.5
-3.3587513 -0.37778258 1.415545 81.5
-1.6981004 -0.44994682 1.3890969 29
-3.266644 -0.13722436 1.4698741 5
7.0444493 0.26907998 1.3692784 22
6.5065193 0.37360644 1.4834481 21
7.0317926 0.3336257 1.4157215 6
6.5027676 0.68173707 1.4810886 17.5
7.1056738 0.63899344 1.4000652 76
7.1770825 0.9470017 1.42722 66
-2.9271898 1.3286272 1.3929144 85.5
-2.9083364 1.4018626 1.4472193 80.5
-2.8833365 1.5708964 1.3874214 53.5
-2.8387661 1.6719645 1.3973483 82
-2.7810645 1.915542 1.350225 76
-2.7606657 2.0032823 1.4801146 81.5
-2.7126718 2.2308486 1.4297857 72
-2.6865587 2.3019781 1.4697161 61.5
-2.6482172 2.5005393 1.3819617 53
-2.6243303 2.5796311 1.4455775 53.666668
-2.5824399 2.8214772 1.4717939 58
-2.5660589 2.8683445 1.4358712 50.666668
-2.5487988 2.9158823 1.3575602 50
-2.5119665 3.1292181 1.4045721 49
-2.4987235 3.1749802 1.3997812 48
-2.4480042 3.559283 1.3899093 57
0.54094499 3.7344506 1.4438068 28
1.0680814 3.6204364 1.4272765 22
-0.081007063 3.8913836 1.4582452 44
0.34943715 3.7867525 1.4326606 26.666666
0.46972024 3.7530582 1.457617 25
-0.49114987 3.9733953 1.4659009 44
-0.41018304 3.9687877 1.4277085 45
-2.4863224 4.3759179 1.3810139 0
4.0865622 -3.4696383 1.5930388 5
4.1539359 -3.1923437 1.5745797 56
4.2144661 -2.8962829 1.5573444 76
4.2785149 -2.6335702 1.5001227 78
4.3072343 -2.5078075 1.5197438 76
4.3288698 -2.3646619 1.5678986 71.5
4.3967218 -2.1382513 1.5828521 69.5
4.4389644 -1.9289739 1.5455918 67.5
4.5025554 -1.6713772 1.6231011 63
4.558321 -1.4096658 1.5823041 72.5
4.6103234 -1.1596663 1.5490742 71
-3.4509001 -0.91499889 1.525485 75
-3.4277029 -0.84198457 1.5961279 75
-1.0203334 -0.87229079 1.5838771 21.5
-3.4171889 -0.67104542 1.5902884 87.5
-0.98383546 -0.65273565 1.5888265 14
-3.3987586 -0.5734303 1.5915391 95.5
-1.5734085 -0.47400308 1.5697548 20
-1.4205134 -0.50709343 1.6213765 25
-1.034156 -0.59466422 1.5357304 22
-3.3474724 -0.35129538 1.561075 93.199997
-3.2865903 -0.24697377 1.6207119 96
-3.1805763 0.22121905 1.538516 45.5
-2.8883114 1.4939212 1.5671276 81
-2.8727446 1.5270902 1.6117984 57.5
-2.8134501 1.7665865 1.5877831 74.199997
-2.5187161 1.6914923 1.6394261 20
-2.7521837 2.0217524 1.5993025 63
-2.7028952 2.2631469 1.5958443 64
-2.698524 2.2888079 1.5540926 63.5
-2.6408124 2.5297914 1.5320189 51
-2.6215491 2.6281724 1.5764865 46
-2.2455292 2.8067944 1.6315018 40
-2.5298238 3.0311599 1.6020712 55
-2.1767104 3.1406493 1.6142132 21
3.0845394 3.122205 1.5288796 15
3.1610734 3.0830421 1.6228126 60
-2.4671626 3.4369254 1.5876391 67
-2.1130607 3.5451114 1.6144862 12
0.86861193 3.6741529 1.5754243 19
1.0108008 3.6430917 1.5667417 18
1.1147872 3.6180239 1.5852989 1
-2.3680661 3.8496287 1.5501559 36
-0.068152942 3.880053 1.5869445 44
0.27908707 3.8173943 1.6480564 21
0.35091025 3.798048 1.6162431 24
-2.2517722 4.3106208 1.5114779 69
-2.1989706 4.2969289 1.6324922 62
-1.8124055 4.3037281 1.6332034 1.5
4.0772376 -3.4015951 1.726999 48
4.1506219 -3.1671581 1.7179295 36
4.163764 -3.1340711 1.7469872 67
4.2183771 -2.8685856 1.6764268 78
4.2412987 -2.7696633 1.6674355 75
4.28266 -2.5839243 1.746946 74
4.3463058 -2.3549004 1.7022773 67
4.3868575 -2.1558607 1.7057987 72
4.4044018 -2.0961928 1.7982744 67
4.4511638 -1.8801217 1.7031075 60
4.4786153 -1.7526472 1.7654299 63
4.5267763 -1.5549474 1.6843771 65
-1.0773828 -1.0972992 1.7195244 14.5
-1.0318909 -0.91611195 1.7731224 47
-3.3888037 -0.82486218 1.7246464 61.833332
-3.2495289 -0.75694221 1.7574357 49.5
-0.99460804 -0.78354287 1.7264873 18
-3.0633256 -0.65986168 1.7350621 47
-0.99048346 -0.7499752 1.7343551 34
-3.3851838 -0.55768883 1.7241462 98.599998
-3.2510624 -0.49767241 1.7558991 78.666664
-3.0049675 -0.45809916 1.7505151 67
-1.6533459 -0.45762122 1.7365974 31
-1.5371107 -0.48505017 1.7162886 22.333334
-1.2514921 -0.5450303 1.734558 25.333334
-1.1932894 -0.5581193 1.7883674 39
-3.3415623 -0.32113832 1.6920559 94
-2.9847581 -0.39249128 1.6935289 48.5
-3.256568 -0.2475161 1.7193977 64.25
-3.1113284 -0.20278509 1.7572349 29
-2.949209 -0.21825241 1.7568713 62.666668
-3.055155 -0.13923739 1.7416762 13
-2.9057384 -0.058473751 1.7429327 78
-3.1553087 0.26611018 1.7064391 53.5
-0.71863061 0.99198508 1.7999688 62
-1.5814679 1.1184505 1.7990023 78
-2.3478348 1.330784 1.7998811 84
-2.2065375 1.2464499 1.7940615 80
-1.6715981 1.3097942 1.7974259 82
-1.6075969 1.2669638 1.7970854 81
-1.4479781 1.3097622 1.7973391 84
-1.349896 1.3213199 1.7958394 77
-2.7898629 1.4828297 1.7158881 81
-2.5573993 1.4483734 1.6607875 53
-2.4538016 1.4422405 1.7892112 79
-2.3425736 1.442857 1.7949528 73
-2.1837323 1.4852066 1.7978739 77
-2.0096219 1.4864677 1.7937428 70.5
-1.8467058 1.4847177 1.7943677 78
-1.7231867 1.4288447 1.7979963 77
-1.5969656 1.4795235 1.7981023 75
-1.4476109 1.4827995 1.7939782 72
-1.2762399 1.4521748 1.7965788 70.5
-1.1240565 1.4348431 1.7975022 72.333336
-1.0354803 1.3921624 1.7984189 70
-0.74035853 1.4019907 1.7986826 71
-2.8583596 1.5260273 1.702386 33
-2.8001404 1.515524 1.6882347 65.5
-2.4853768 1.517817 1.7883327 85
-2.3520494 1.6015894 1.7884227 75
-1.6633517 1.5920409 1.7932662 79
-1.6148089 1.5636947 1.7934194 78
-1.1303011 1.5635937 1.7953982 77.25
-0.97223729 1.55239 1.7994064 68
-0.75837821 1.582853 1.7985905 79
-0.66794002 1.6381694 1.7973653 69
-0.49714375 1.6440166 1.7976736 69
-0.34601942 1.5922989 1.7987503 74.333336
-0.13110153 1.5802925 1.7989013 73
-2.781651 1.773859 1.7116373 86.5
-2.4612141 1.7253675 1.7657303 75.5
-2.3390262 1.7502322 1.7901151 79
-2.1434996 1.7288858 1.7917746 73
-2.0265071 1.7188632 1.7925056 70
-1.8598373 1.6919398 1.7909009 73
-1.6935953 1.6755828 1.7901262 77
-1.5706123 1.7002079 1.7923518 75.5
-1.4360621 1.6729175 1.7875439 72
-1.300777 1.6610556 1.7988018 67.5
-1.1145504 1.7286718 1.7941015 75.5
-1.0145268 1.7026579 1.7939352 75
-0.8569839 1.6992365 1.795191 61
-0.70380187 1.6926398 1.7953666 71.5
-0.57011694 1.7351693 1.7955357 70.25
-0.35546923 1.7415811 1.7917227 68
-0.2010079 1.7216316 1.7939383 72.833336
-0.071279071 1.7195997 1.7954266 69.800003
0.059225034 1.7305549 1.7951989 71
-2.3297675 1.860095 1.7816343 75
-1.866226 1.924397 1.786666 72
-1.7610594 1.8983811 1.7931689 78
-1.5896446 1.8679029 1.7885392 71.5
-1.4193375 1.8812394 1.7834734 64
-1.2799876 1.8455296 1.7845193 69
-1.1911893 1.8273693 1.794962 65
-0.97286749 1.8797175 1.7927803 62.333332
-0.81478894 1.8799899 1.792343 57
-0.6966238 1.8167078 1.7890965 71
-0.52895087 1.8904957 1.790692 56.200001
-0.37259048 1.9233758 1.7935278 29.5
-0.23319328 1.8459699 1.7834494 63
-0.085014619 1.8738854 1.7934796 40.57143
0.069484875 1.8619044 1.7975285 28.6
0.19151141 1.919067 1.7954339 30.333334
-2.7270126 2.0834205 1.6986707 60
-2.5784016 2.0403841 1.7107998 24
-2.4359524 1.9868759 1.7131108 64
-2.3271284 2.0200446 1.7800944 80.75
-2.0344162 1.9690067 1.783734 64.5
-1.5301247 2.0465424 1.7857853 75
-1.2509029 2.0627012 1.7841094 61
-1.1196667 2.0043938 1.7865905 57
-0.9676947 2.0057411 1.7873136 49.25
-0.68413776 2.0282383 1.7920184 25.5
-0.48554689 2.039135 1.795873 27
-0.37537107 2.0326614 1.7899364 36.333332
-0.17158562 2.0216415 1.7879583 34.5
-0.05247771 2.0105841 1.7882717 46
0.053378623 2.0323491 1.7869 59.333332
0.23659062 2.002393 1.7883631 61.200001
0.33871609 2.0608885 1.7886074 58
-2.343281 2.207253 1.7277285 68.5
-1.861867 2.1834118 1.7785898 68.5
-1.7025838 2.1163154 1.7863764 78
-1.5722107 2.1243906 1.7826551 76
-1.4424326 2.1411338 1.7808284 59.5
-0.99742591 2.1772456 1.7889141 29
-0.84876186 2.1674497 1.7841228 37
-0.61099142 2.2262886 1.7837647 54
-0.51631296 2.1332734 1.7848305 46.5
-0.35750809 2.1605136 1.7895756 55.666668
-0.24469636 2.1268995 1.7834026 58
-0.052138448 2.162611 1.7865834 59
0.12310634 2.1440949 1.7887169 63.333332
0.22398762 2.193254 1.787933 65.199997
0.39423847 2.1441114 1.7885869 61
0.52891272 2.2205718 1.7904969 64
-2.6625628 2.3714433 1.6615156 27
-2.5433595 2.3399436 1.7019991 54
-2.3084123 2.3039432 1.7712569 83
-2.2382803 2.2891107 1.7690326 69
-2.0338221 2.2534566 1.775015 70
-1.6390282 2.3535063 1.7837464 33
-1.4765617 2.3165543 1.7821983 41.333332
-1.2518703 2.3257141 1.7783633 55.5
-1.1252306 2.25033 1.7840761 29
-0.95071447 2.3972797 1.7826051 59
-0.81915289 2.3305089 1.7846581 59.333332
-0.68331337 2.2871151 1.7821633 55
-0.40854555 2.3037012 1.7852674 54.5
-0.23390159 2.3177195 1.7882093 59.25
-0.10722969 2.2812576 1.7842742 59
0.081155732 2.309396 1.7874898 62.5
0.25044626 2.3065197 1.78882 63.5
0.37175575 2.3294926 1.7900908 64.199997
0.55190414 2.3053026 1.7903615 60.25
0.66923261 2.3505039 1.7867577 59.5
-2.2909856 2.4923992 1.7103752 60.5
-1.9600133 2.5375357 1.7637542 71
-1.8444923 2.4756615 1.7702442 76
-1.7419912 2.4125655 1.776646 57
-1.4168966 2.4655094 1.7742976 64.5
-1.1030147 2.5316689 1.7765704 46
-1.0276346 2.4660242 1.7811705 51
-0.75784206 2.4645157 1.7854575 54
-0.718853 2.4959931 1.7832373 53
-0.52011061 2.4483614 1.7809547 51
-0.30918509 2.5243554 1.7838601 56
-0.2661536 2.4390607 1.7860507 57
-0.098693296 2.4970469 1.7871501 59.25
0.046509784 2.4389355 1.7866303 60
0.22906809 2.4537125 1.7835344 59.5
0.39613333 2.4416566 1.783304 59
0.51399726 2.5080864 1.7837019 59.75
0.66191101 2.4379997 1.7898507 58
0.82407731 2.4767058 1.7863952 54
0.96653128 2.5295107 1.7830861 52.5
-2.5106368 2.6748264 1.7024001 66
-2.2850509 2.5590079 1.7644941 93
-2.2127595 2.6037941 1.7649783 75
-1.6621805 2.679884 1.7695204 71
-1.5606095 2.5966358 1.7727519 75
-1.3856227 2.5980358 1.7734647 62
-1.3385454 2.6794398 1.7660085 60
-1.1902494 2.6022637 1.7755724 55
-0.91653866 2.6928298 1.77521 55
-0.84723896 2.6100667 1.7797135 57
-0.68103665 2.6135161 1.780601 54.666668
-0.3765415 2.6482372 1.7789183 49.5
-0.13567595 2.6182265 1.7831115 57
0.035257865 2.6614416 1.7844859 61
0.21549578 2.5916171 1.7832748 57
0.39238882 2.6023545 1.7815516 55.5
0.53505158 2.6195467 1.7796146 52
0.66521597 2.633518 1.7750593 59
0.77932245 2.6197093 1.7813829 58.5
0.99469101 2.6240876 1.7857165 58
1.1198602 2.6323245 1.7814457 53.25
-2.2201581 2.7571468 1.7627026 79.5
-1.765196 2.7670937 1.7658192 72
-1.3152919 2.7880452 1.7708119 60
-0.98409116 2.7725825 1.7697667 55
-0.7294144 2.8339591 1.7732385 64
-0.58128816 2.7863138 1.7787704 52
-0.18036413 2.7574053 1.7775114 52.5
0.060898051 2.7747178 1.7802216 60
0.16592826 2.7885096 1.7778646 63
0.40010417 2.7352548 1.7729911 63
0.57093644 2.7474985 1.773797 56
0.71068734 2.7743022 1.7755488 42
0.83913571 2.7681513 1.7755743 56
0.96806842 2.8208447 1.7737889 54.333332
1.1445489 2.7074285 1.7853445 50
1.2643638 2.7524061 1.7804495 49.833332
1.3871815 2.7701521 1.7854595 48.5
1.6060619 2.8140504 1.7884731 48
-2.2088447 2.9018481 1.7551824 75.333336
-1.881107 2.8581645 1.7640673 70
-1.5703905 2.9724956 1.7643286 67
-1.4755019 2.8702211 1.7702752 74
-1.2722958 2.9105308 1.7653579 62
-1.062682 2.8592768 1.7673198 62
-0.78899765 2.9319048 1.7690214 61
-0.47637236 2.956295 1.7717192 59
-0.2333314 2.8973746 1.7699543 56
-0.0045710681 2.9041736 1.7721211 57
0.22846249 2.9235773 1.775239 63.5
0.34990251 2.9741545 1.7732912 52
0.67764103 2.8741927 1.7710694 52.5
0.79212159 2.9414983 1.7694389 53
0.90815407 2.9363668 1.7704819 58
1.1658887 2.973824 1.777131 49
1.2458488 2.9409015 1.7756745 48
1.4606749 2.8958142 1.787727 52.333332
1.5571278 2.9055569 1.7861449 45.333332
1.7353704 2.9666352 1.7865355 48.5
1.8489149 2.8942986 1.7896351 47.5
2.9269459 2.9963546 1.7866086 16
-2.4576311 3.0276666 1.6916891 66
-2.1695898 3.0636513 1.7583777 91
-1.670704 3.0879264 1.7646657 66
-1.2023515 3.0764968 1.7626044 56
-0.91602945 3.1356225 1.7592086 66
-0.84603381 3.0298314 1.76322 64
-0.59503561 3.0762043 1.7685288 64
-0.4195056 3.0450783 1.7696904 63
-0.030578334 3.0616858 1.7669467 61.5
0.17725067 3.1142161 1.769853 55
0.42073771 3.0808339 1.7745978 57
0.8329553 3.0473821 1.7728525 54
0.99684811 3.0660615 1.7747109 52
1.1104786 3.0649374 1.7745994 50
1.4386638 3.1013067 1.7770301 48
1.7497025 3.0506992 1.7804971 48.666668
1.8707998 3.0270293 1.7911564 4
3.077965 3.1256652 1.766719 17
3.1628835 3.0819564 1.6875161 59
-2.1492193 3.193166 1.7396302 71.666664
-1.7851763 3.2070501 1.7630304 62
-1.4198835 3.2307754 1.7648904 57.5
-1.174419 3.1891761 1.7622498 58.5
-0.64238775 3.1913118 1.7629353 61
-0.33364826 3.1634336 1.7711605 56
-0.2827014 3.2700953 1.7677832 58
0.18061356 3.2282941 1.7679952 59
0.36407012 3.2112467 1.7677139 54
0.52783221 3.169477 1.7749257 50.5
0.63085622 3.21771 1.7798334 56
1.0848243 3.2077026 1.7776057 52
1.2788911 3.2209508 1.7743713 48
1.3849657 3.2912164 1.7702769 53
1.7213409 3.1947784 1.7779839 51.5
-2.3993106 3.4257178 1.6873912 64
-2.1263366 3.3294847 1.7464963 80
-2.0981884 3.4359012 1.7376467 72
-1.5588331 3.4349704 1.7608596 54
-1.0985668 3.3514471 1.7602656 59.5
-0.71872985 3.386332 1.7656065 66
-0.44077632 3.3469942 1.7689103 66
-0.21799962 3.356761 1.7604066 55
-0.14735252 3.4352212 1.7703689 61
0.17590396 3.3563342 1.7681135 54
0.38359171 3.3356411 1.7670697 58
0.57803464 3.439831 1.7657162 53
0.69657046 3.3925295 1.7726216 50
0.83134264 3.3972087 1.7782789 50.5
1.4121329 3.3507085 1.7704065 52
1.6060501 3.41576 1.7733927 51.5
1.6740477 3.3143332 1.7689425 51
-2.0746427 3.5527511 1.7337508 62
-1.666756 3.5811133 1.7562085 56
-1.2562406 3.4901419 1.761932 4
-1.0367131 3.5193639 1.7512583 2.5
-0.47420391 3.4854708 1.7664782 59
-0.077224106 3.5152464 1.7699734 59
0.40588349 3.4591064 1.7671057 52
0.61651921 3.5653868 1.7614571 51
1.0481867 3.5782275 1.7594284 0
1.8831224 3.5909281 1.7843393 8
-2.0462327 3.6694541 1.7111424 57
-0.50577062 3.6208 1.7595047 59
-0.26127595 3.6309385 1.7623645 58
-0.053038463 3.6454549 1.7637736 53.5
0.06676735 3.7263381 1.7666105 51
0.42258561 3.6005075 1.7673739 55
0.66196674 3.7026968 1.7228063 16.5
0.83042741 3.6757722 1.7193713 13
0.9537757 3.6134257 1.7479203 0
2.007941 3.6461637 1.7630569 46.5
-2.3148971 3.8518338 1.6678365 29
-2.0077245 3.8444436 1.7118427 55
-0.54889196 3.7751083 1.7564424 58
-0.28556934 3.8414521 1.742489 30
-0.058073971 3.8758743 1.7205595 17
0.13670696 3.8213863 1.7314769 16.5
0.20727213 3.8383484 1.6703604 20
1.3876801 3.8110299 1.7761236 54.5
-1.9819702 3.9815149 1.7214891 56.5
-0.31722048 3.9320071 1.6516932 41
-2.0858858 4.128243 1.6738092 9
-1.9450862 4.1153641 1.6895405 45
2.0921137 4.1803474 1.7715465 41
-1.8886733 4.277163 1.66967 8
2.0764532 4.3171253 1.7684871 37
2.4299433 6.0170965 1.7440816 31
2.3879356 6.1981783 1.7316157 29
2.6062105 -3.8287299 1.9064044 10
2.0029197 -3.6531832 1.9056169 1
2.2011256 -3.630852 1.9095129 45
4.008256 -3.6276667 1.9347781 13
1.853869 -3.4566717 1.9225911 18
2.3796051 -3.5804169 1.8983427 44
3.4562261 -3.4658482 1.9179934 2
3.7334449 -3.4665036 1.8977834 29
0.5678826 -3.3573828 1.8921787 11
0.95513541 -3.3945661 1.8698968 17
1.6406779 -3.4227345 1.9051527 53
2.0252535 -3.418967 1.896432 45
2.2055404 -3.3830092 1.8978363 48
3.502332 -3.363976 1.8970419 2
3.6323733 -3.3671963 1.8942217 30
3.954325 -3.3240111 1.915326 32
4.0534425 -3.3758006 1.8959821 34
0.38705164 -3.2236233 1.8808595 51
0.5950951 -3.2521403 1.8787714 58
0.70035917 -3.227459 1.8829182 49
0.79353493 -3.1932807 1.8787757 60
0.98587084 -3.2699652 1.8828856 56
1.3239671 -3.2017426 1.9003752 51
1.5177325 -3.2396388 1.9018131 49
1.7086973 -3.2609084 1.8947247 50
1.8959961 -3.2589314 1.894648 55
3.4853861 -3.2355669 1.9082514 30
-0.68603319 -3.0164733 1.8676574 27
0.2031412 -3.0687735 1.8851629 58.5
0.34318331 -3.0916481 1.8727522 66.5
0.51214212 -3.0192637 1.8743834 61.5
1.2357553 -3.0560689 1.8984996 17
3.4936321 -3.0029006 1.891373 3
3.7772527 -3.0729585 1.9072542 34
3.9106152 -3.0508451 1.9051951 29
4.1727896 -3.0795071 1.8712975 80.5
-0.78833866 -2.8644869 1.8821272 58
-0.73121196 -2.9448802 1.86455 43
-0.58566833 -2.9666898 1.8719462 50
-0.387905 -2.9724398 1.8726834 64.5
0.095371038 -2.8878336 1.8749586 64.666664
0.16372003 -2.9761035 1.8774496 61
0.6402657 -2.9863424 1.8763124 62
1.0446835 -2.9873257 1.8914708 50
3.3318295 -2.9561179 1.8928915 0
3.5029747 -2.8631086 1.9028274 34
3.9043233 -2.8958919 1.9107023 19
4.1983142 -2.974906 1.8400155 78
-1.5662031 -2.7402358 1.8652707 48.75
-0.83985013 -2.7730956 1.872427 59.25
-0.67601967 -2.7491612 1.8716463 61.5
-0.48377097 -2.7628784 1.8750228 66
-0.032524962 -2.7646229 1.8754539 60
0.0044557573 -2.8113208 1.8824211 66
0.24783595 -2.8480365 1.8690025 62
0.39928386 -2.822228 1.8726934 68.5
3.0616055 -2.7237566 1.8997916 27
3.1703475 -2.7656152 1.8945197 39
3.4097474 -2.7614772 1.8995775 36
3.4817777 -2.7677069 1.8951498 32
3.8002572 -2.7715387 1.8992202 30
4.1665149 -2.7365561 1.9044179 33
4.2105703 -2.8156786 1.8842258 63.5
-1.829399 -2.6206315 1.8626822 70
-1.6726613 -2.6852524 1.8768505 39.5
-0.92696959 -2.5807226 1.8756962 53.666668
-0.62268233 -2.5637555 1.8721703 65
-0.1840371 -2.5889723 1.8776197 62.666668
-0.1064515 -2.6653728 1.8776754 65
0.058886062 -2.6774726 1.8704573 60
0.21829483 -2.6566501 1.8718386 67.5
0.59492707 -2.5785298 1.8793935 55.5
1.3510182 -2.5772872 1.885419 46
3.1744375 -2.5600255 1.8940417 38
3.3120737 -2.6951199 1.8941394 37
3.4616694 -2.5575385 1.8984011 24
3.6336718 -2.6815131 1.8903624 31
3.9936955 -2.6647727 1.8990692 29
4.2892079 -2.5825062 1.8692344 77
-1.7133406 -2.4455035 1.8650957 44.666668
-1.6271191 -2.4934747 1.8696165 64.5
-1.0095056 -2.5095696 1.867437 55
-0.8900212 -2.5232413 1.8710655 52
-0.7471444 -2.5495129 1.8685666 67
-0.31733742 -2.4096966 1.8796624 63
-0.26845789 -2.4678149 1.8724803 64
-0.11358324 -2.509753 1.8700753 63
0.054456547 -2.4954047 1.8693709 68
0.41848195 -2.4196012 1.877755 59.666668
0.55339199 -2.515517 1.876369 64
0.68614376 -2.4218488 1.8674265 32.5
3.1362534 -2.5489154 1.8882774 38
3.461679 -2.5257049 1.8952771 36
3.73792 -2.4628739 1.8877894 30
3.7665598 -2.5263715 1.8885299 30
4.0823307 -2.4477255 1.8974192 24
-1.1075579 -2.3047912 1.8663187 60.666668
-1.0224267 -2.3446865 1.8731397 60.333332
-0.87469524 -2.3539295 1.8694807 61
-0.74529833 -2.371335 1.8678294 37
-0.37889749 -2.3625522 1.8662848 65.5
-0.26930502 -2.3409352 1.866316 68
-0.09319634 -2.3389499 1.8665254 68.5
0.25759155 -2.2814143 1.8759494 68.333336
0.33871904 -2.3358407 1.8745587 66
0.51361156 -2.3105264 1.872912 61.5
0.61811316 -2.2729795 1.8727251 69
1.2930896 -2.2620058 1.8798884 59
1.4030559 -2.250685 1.8710033 12
1.9910583 -2.3593936 1.8829566 41
2.6804762 -2.3859804 1.8819991 41
2.928932 -2.3731153 1.8835951 41
3.1917861 -2.3527677 1.8911377 40
3.442914 -2.3060408 1.8869792 35
3.7073634 -2.251981 1.889352 29
4.3367548 -2.338532 1.866376 56.5
-1.2030449 -2.1102819 1.8620628 68
-1.1298285 -2.1228924 1.8630327 59.75
-0.98580885 -2.155612 1.858878 64
-0.85664564 -2.1887982 1.8628834 63
-0.49725035 -2.2016718 1.8652176 64.666664
-0.42196009 -2.2106967 1.8691927 64
-0.22713995 -2.1883292 1.8631241 72
0.1102132 -2.1415131 1.8699585 65.333336
0.17750956 -2.1917634 1.8715075 69
0.35004291 -2.1861076 1.8651034 59.5
0.46538383 -2.1464648 1.8633839 59
0.70677537 -2.1365702 1.8701105 49
1.0231555 -2.1114101 1.8688306 54.5
1.1199689 -2.1673365 1.8731583 42
1.2345204 -2.1955433 1.8747083 50
1.3650396 -2.2274277 1.8663822 55
3.9715307 -2.1779118 1.8887292 26
-1.275318 -2.0511196 1.8623873 63
-1.0884321 -1.9766821 1.8604754 65
-0.95538723 -2.0131171 1.8575288 68
-0.64054394 -2.0234685 1.8593754 74.5
-0.54758644 -2.0404949 1.866196 71
-0.40506378 -2.0398133 1.860015 70
-0.290214 -2.0786686 1.8979162 29
-0.056680441 -2.0004723 1.8658556 74.333336
0.02073225 -2.0138876 1.8669405 71.75
0.20396757 -2.0705934 1.8657305 66.5
0.330549 -2.0352068 1.8660835 67
0.54274613 -2.0170424 1.8677493 62
0.68186718 -2.0460856 1.8686582 62
0.82117778 -2.0369396 1.8729188 63.25
0.92094588 -2.0401587 1.8746833 63
4.2445121 -2.0914927 1.8925718 28
4.432364 -1.9518912 1.857154 61
-1.3725473 -1.8453872 1.8569213 67
-1.2439406 -1.9156611 1.8584464 64
-1.1885306 -1.9336922 1.8680464 62
-1.0483645 -1.8500456 1.8598331 73
-0.78832304 -1.8280374 1.8586024 68
-0.66564244 -1.8819278 1.8662676 70.800003
-0.51749927 -1.8962483 1.8601159 71
-0.39823049 -1.9095519 1.8610104 76
-0.20275903 -1.868592 1.8607098 82
-0.093139306 -1.8519137 1.8646905 73.199997
0.10637334 -1.8760376 1.8605604 72
0.2287927 -1.8543416 1.8651681 70.25
0.37857687 -1.8772333 1.8637638 68.333336
0.53084135 -1.8588928 1.8657626 68.25
0.64929724 -1.8994665 1.8675106 64
0.76489294 -1.9377601 1.8664947 62
-1.2942841 -1.729537 1.8576384 69.5
-1.1531954 -1.7415078 1.8545812 67
-0.80678457 -1.7086489 1.8539704 73
-0.69052273 -1.7237186 1.8623804 75.333336
-0.49623758 -1.7730008 1.8560456 81
-0.35141465 -1.7113259 1.8537592 88
-0.23739867 -1.735116 1.8625427 81.599998
-0.061215959 -1.7069974 1.8559353 79.5
0.091302291 -1.7361413 1.8607081 74.5
0.21320912 -1.7088352 1.861727 73.285713
0.37993628 -1.7225268 1.8626306 67.400002
0.49890026 -1.7447195 1.8638484 66
-1.2291253 -1.5741119 1.8472632 75.5
-0.94209558 -1.5442665 1.8532776 83
-0.82632595 -1.5591881 1.8578049 81
-0.68953419 -1.564587 1.8542726 80
-0.51124758 -1.5860385 1.8589045 82.333336
-0.34723601 -1.6149899 1.8586398 82.25
-0.22123392 -1.5666231 1.8607788 77.333336
-0.065678313 -1.5870045 1.8576577 78.400002
0.085414469 -1.5794619 1.8581543 76.875
0.24137135 -1.5601125 1.8573396 75.5
0.35202378 -1.6341683 1.8638455 79.5
-0.94616216 -1.4246011 1.8544612 79.666664
-0.84406209 -1.4230742 1.8545712 80.666664
-0.74085724 -1.3902804 1.8508364 80
-0.5428828 -1.3995014 1.8571383 79.75
-0.38934913 -1.4621409 1.8588815 77.5
-0.20119719 -1.4177183 1.856089 77.428574
-0.059560545 -1.4408891 1.8590635 74.599998
0.046570856 -1.4225436 1.8592129 73.833336
0.18116163 -1.4605216 1.8577083 82
-1.0622098 -1.3450149 1.8441421 80
-0.97314042 -1.2561735 1.8504823 80.833336
-0.83974624 -1.3041115 1.8501294 81.5
-0.67679405 -1.2692527 1.8527187 89.333336
-0.53551722 -1.2694285 1.8571386 78.800003
-0.36791518 -1.2747643 1.8579228 72.199997
-0.23149861 -1.2900156 1.8545114 69
-0.082475178 -1.280744 1.8547431 68
0.079787537 -1.3012033 1.8503819 88.5
-1.0671452 -1.1260523 1.8397197 84
-1.0017364 -1.1053073 1.8489348 85
-0.83677596 -1.1106369 1.8502896 90.5
-0.65129608 -1.1142849 1.8510821 87.199997
-0.50892502 -1.1245835 1.8527814 78
-0.37810054 -1.1368043 1.8498224 55.25
-0.21766452 -1.1347514 1.8498627 48.42857
-0.073721088 -1.1399499 1.852602 46.666668
-0.98788434 -0.9684388 1.8478065 82.25
-0.82942802 -0.95961398 1.8435754 60.333332
-0.67490149 -0.98054111 1.8450832 55
-0.52534646 -0.96706158 1.8411567 26.571428
-0.36725885 -0.97587287 1.8439369 16.714285
-0.25526384 -0.98057473 1.8454062 16.6
-0.14431432 -0.99174643 1.851796 14
-2.9986877 -0.75323474 1.8387548 77
-0.91755623 -0.81253034 1.8323563 82
-0.81951284 -0.81975144 1.8369083 62.400002
-0.67797828 -0.81619793 1.8401614 56.125
-0.54204893 -0.81477296 1.8369559 57.75
-0.38799411 -0.82984459 1.8376714 53.857143
-0.21820849 -0.85790741 1.8351036 42.5
-3.0563104 -0.72760046 1.812481 81
-2.9334471 -0.64944381 1.830768 69
-2.7941952 -0.68642086 1.8306566 68
-2.587116 -0.66374367 1.83397 72
-0.94861281 -0.67292255 1.8329493 83.5
-0.81502372 -0.66080654 1.8350875 85.400002
-0.68224108 -0.67486441 1.8357929 80
-0.53568375 -0.6792841 1.8337921 78.199997
-0.39235178 -0.6866203 1.8368244 66
-0.2821885 -0.73413008 1.8372 55
-2.9967458 -0.51632601 1.8289429 92
-2.7988429 -0.58165455 1.8280858 72
-2.6901174 -0.54125142 1.8345025 72
-2.4793296 -0.56720233 1.8408962 49
-2.3392665 -0.54435283 1.8292614 72
-2.181174 -0.49441114 1.8322011 73.333336
-1.1235436 -0.55934083 1.8221623 69.75
-0.96559876 -0.54216367 1.8298491 84.333336
-0.81763631 -0.52102768 1.8317553 85.400002
-0.69013572 -0.53761405 1.8323864 80.599998
-0.51771212 -0.53128588 1.8345089 78.333336
-0.39105508 -0.54516798 1.8318406 76
-2.9589021 -0.40788418 1.8269833 74
-2.7685547 -0.36302948 1.8287616 70.75
-2.6006711 -0.44986781 1.8311843 68
-2.4859724 -0.3555654 1.8292638 70
-2.3200891 -0.32931119 1.8268358 75.5
-2.1838906 -0.3390446 1.8255701 76.666664
-2.032603 -0.4049347 1.8315644 76.5
-1.8122251 -0.37146801 1.8286937 73
-1.6975101 -0.34648728 1.8305445 80
-1.5677506 -0.39266264 1.8354753 76.333336
-1.3770863 -0.43982837 1.8373915 89
-1.2675297 -0.4265734 1.8361253 93.25
-1.1335561 -0.36725953 1.8308687 75.428574
-0.96868342 -0.39930251 1.8300034 80
-0.80746979 -0.36238196 1.8299584 80.181816
-0.65862894 -0.38454983 1.8330705 80.5
-0.52317876 -0.36632329 1.8346889 76
-0.41498908 -0.37048459 1.8321126 72
-2.8362002 -0.21201351 1.821545 73
-2.6139829 -0.23790592 1.830691 73
-2.4829147 -0.1542751 1.8246859 71
-2.24067 -0.21638536 1.8265144 80
-2.0413966 -0.22946879 1.8298167 78.5
-1.8367317 -0.19654898 1.8291098 85
-1.7063942 -0.19905041 1.8297935 84.333336
-1.5860934 -0.24594909 1.8368115 84.666664
-1.4046654 -0.29105678 1.8375944 94
-1.2900946 -0.23395123 1.8270034 82.428574
-1.1506038 -0.1887736 1.8293321 79.25
-0.98684579 -0.21880291 1.8275586 81.166664
-0.82237911 -0.21826568 1.8288605 78.400002
-0.68524468 -0.22155356 1.8315146 78.428574
-0.53604454 -0.21665595 1.8326591 72.333336
-0.4445301 -0.25124076 1.8339256 76
-2.8514664 -0.13262472 1.8194715 75
-2.7328844 -0.10644951 1.8263588 69.5
-2.617389 -0.027952947 1.8253061 75
-2.5076284 -0.14020658 1.8247749 71
-2.3111687 -0.093001179 1.8215771 73.666664
-2.1852458 -0.11624521 1.8223655 78.5
-2.0429468 -0.055549048 1.8236313 80.5
-1.8513584 -0.021711078 1.8245763 86
-1.729625 -0.064321935 1.8278983 85.25
-1.5989423 -0.098403312 1.835956 85
-1.3926243 -0.076818645 1.8340665 100.5
-1.2636001 -0.064366505 1.8239281 78.400002
-1.0964251 -0.056411859 1.8263382 79.333336
-0.97368628 -0.070261627 1.8267392 81.333336
-0.81980276 -0.068694159 1.8287008 77.900002
-0.67677367 -0.068866752 1.8280694 78
-0.54570681 -0.073351763 1.8298389 77.571426
-2.8586371 0.024891268 1.8231932 12
-2.4679844 0.061682552 1.820942 70
-2.3165324 0.066422522 1.8196346 74
-2.1997466 0.068542704 1.8196206 79
-2.0112898 0.074939243 1.8324505 18
-1.7065226 0.084146373 1.8276886 81
-1.5807227 0.033186577 1.8313565 83.5
-1.3871326 0.050716817 1.8263341 95
-1.2510383 0.079503745 1.822971 80.75
-1.1003181 0.067462772 1.8213588 80
-0.98252201 0.0452496 1.8232476 80.333336
-0.83320767 0.072930694 1.8259627 77.333336
-0.66395926 0.085869767 1.8270205 79.625
-0.53898293 0.080922052 1.8267063 80
-2.4136753 0.27544096 1.8183376 67
-2.2809763 0.23082991 1.8166169 77
-2.172586 0.26605502 1.8211352 20
-1.6952062 0.24781513 1.8200853 41
-1.5650421 0.21710855 1.8307023 84.666664
-1.3934783 0.19689812 1.827651 101
-1.2547829 0.21057446 1.8210822 78.75
-1.1055286 0.21252301 1.8204756 79
-0.98229247 0.20507054 1.8369917 55.400002
-0.83910179 0.23067226 1.8254135 76
-0.65438861 0.22957779 1.8261467 78.428574
-0.53222591 0.24644019 1.8244861 83.333336
-1.5639944 0.39650619 1.8226707 78
-1.3922106 0.34402546 1.8265673 101
-1.2654699 0.37556922 1.823678 89.25
-1.131439 0.36572829 1.8196945 77.800003
-0.99359447 0.37620878 1.818023 77.5
-0.83072913 0.38111094 1.8210293 76.63636
-0.68688667 0.38690877 1.821455 76.714287
-0.53947961 0.36814213 1.8250736 79.400002
-1.7078345 0.56907725 1.8203954 87.5
-1.5505912 0.54430234 1.820671 87.5
-1.3829689 0.49276638 1.8212339 95
-1.2678427 0.5355249 1.8226501 96
-1.1216136 0.5198012 1.8171636 78.333336
-0.9922269 0.52337384 1.8167093 76.599998
-0.81068206 0.53045154 1.8187442 74.125
-0.67000431 0.52723634 1.8190378 75.571426
-0.52265114 0.52942646 1.820366 80.166664
-2.1587605 0.6543625 1.8127702 77
-2.0561874 0.70189714 1.8067552 90
-1.8509989 0.69242555 1.8116709 86
-1.7184476 0.67150259 1.8166995 83.5
-1.5763463 0.66585511 1.8166205 78
-1.4563568 0.66921127 1.8211322 84
-1.2893142 0.66930926 1.8195493 92.400002
-1.0913124 0.67013907 1.8135391 80.5
-0.95211375 0.67906487 1.8135372 77.199997
-0.83995992 0.68367618 1.8149629 73.666664
-0.67542493 0.68184513 1.8155791 75.666664
-0.52501351 0.67535532 1.817434 77.599998
-0.43884256 0.65997869 1.8156451 81
-2.1435356 0.85258949 1.8067495 68
-2.0042741 0.82309079 1.8122406 73.5
-1.8341812 0.8787334 1.8082417 90
-1.7281336 0.82204944 1.8148074 87.666664
-1.5984846 0.79887259 1.8115902 88
-1.4328973 0.81993645 1.8156683 84
-1.2691333 0.81644613 1.816613 94
-1.0857564 0.79547155 1.8175262 96.5
-0.99512756 0.85508108 1.8125036 90.25
-0.81385571 0.8302108 1.81073 72.428574
-0.67573059 0.8386991 1.8134866 72.555557
-0.54775757 0.8219822 1.8150082 70.333336
-0.41497281 0.80815053 1.8169041 77.666664
-1.9433327 0.9311924 1.8115524 79
-1.7122246 0.97420865 1.8070314 87.5
-1.5690358 0.96221691 1.8047826 81
-1.4030595 0.97282875 1.8101666 77
-1.262695 0.97802025 1.8250788 68.25
-1.1377503 0.96409649 1.824424 68.5
-0.96170855 0.99130082 1.8205224 64.25
-0.83463782 0.97042632 1.813983 89.666664
-0.66177118 0.99544388 1.8111778 76.666664
-0.53083038 0.96052617 1.8106847 73.166664
-0.37604561 0.98489922 1.8137566 70
-2.1261225 1.059059 1.8060416 75
-2.0196753 1.0838096 1.8045996 72
-1.8640159 1.0898857 1.8059856 78.5
-1.7043844 1.1352439 1.8020755 82.666664
-1.4107081 1.1364505 1.8097572 65.333336
-1.2534176 1.1277205 1.8319594 48
-1.1265167 1.1334822 1.8305794 46.333332
-0.93591911 1.1256515 1.8220978 64.333336
-0.80522573 1.1277785 1.8246868 60.799999
-0.66569203 1.1194032 1.8125497 88
-0.52813226 1.1029279 1.8155109 79.875
-0.38868394 1.1441537 1.8166697 79.5
-0.27630481 1.1439705 1.8177069 79
-2.4493804 1.2912786 1.803713 87
-2.2982433 1.2679304 1.8034908 84
-2.1009595 1.2715595 1.802574 72
-1.9917145 1.2813052 1.8001086 81
-1.8857253 1.2951568 1.8018306 75
-1.7825125 1.2666911 1.8035399 79
-1.2560177 1.2685724 1.826052 45.5
-1.1473817 1.2801474 1.8276339 44
-0.95601261 1.2581918 1.8210291 51.5
-0.83505803 1.2634306 1.8110422 70.75
-0.67062879 1.2590168 1.8089585 75.75
-0.51231968 1.2469732 1.8132255 76.571426
-0.38402644 1.2860097 1.8115709 74.714287
-0.24902391 1.2754725 1.8136083 70.25
-1.62029 1.4197438 1.8000203 77
-1.2266659 1.3524168 1.8224765 46
-0.94737101 1.3907918 1.8037466 71
-0.82834345 1.3914727 1.8039418 75.333336
-0.69406652 1.4348855 1.8034217 72
-0.51390988 1.4078741 1.8072804 70.5
-0.37772924 1.4352617 1.8077266 72.285713
-0.22217865 1.4249738 1.810636 68.166664
-0.10224807 1.4645776 1.8102607 67
-0.8406713 1.5286286 1.8029512 68
-0.66460586 1.5514085 1.8024806 67.5
-0.58830774 1.561097 1.8028421 67.5
-0.36834383 1.5797098 1.8037463 68.5
-0.24565661 1.5637392 1.8042489 71.5
-0.070079327 1.5812061 1.8042926 70.5
-1.0418375 1.7786059 1.8016599 64
-0.27932149 1.6706245 1.8008975 67
0.16471054 1.8633776 1.8022383 29
1.8280954 4.1595073 1.8680791 51
1.7848346 4.2529263 1.8667377 46
1.7314142 4.4183064 1.8544546 44.5
1.6332226 4.5894628 1.8591624 19
1.7480192 4.7099981 1.8489026 40
1.9002368 4.7442756 1.8430825 44
1.8779497 4.8771033 1.8431076 36
