# .PCD v0.7 - Point Cloud Data file format
VERSION 0.7
FIELDS x y z intensity
SIZE 4 4 4 4
TYPE F F F F
COUNT 1 1 1 1
WIDTH 169
HEIGHT 1
VIEWPOINT 0 0 0 1 0 0 0
POINTS 169
DATA ascii
6.6818433 0.93329489 -0.91052502 9
1.9789538 -2.6255732 -0.81521559 4
1.731739 -2.3154669 -0.81682134 13.5
3.3036749 -1.6738212 -0.83385032 2
2.9257331 -1.4623946 -0.83092403 5
2.0699639 -1.2000877 -0.81717306 72
2.4966252 -1.3301098 -0.83520281 7
2.5567544 -1.2734226 -0.82640988 4
3.0342159 -1.3121685 -0.83286184 5
4.0287266 -1.2944869 -0.81740493 7
2.0431662 -1.1992497 -0.75198168 70
2.2320902 -1.0934702 -0.82794875 14
2.6491809 -1.131902 -0.83013308 5
2.2251339 -1.0184765 -0.82969099 13
2.3565607 -0.9909122 -0.82756168 7
2.8648911 -1.0298244 -0.83542812 4
3.6965852 -0.92097026 -0.83458209 10
4.1317592 -0.98648769 -0.76377898 7
2.3792925 -0.84954298 -0.82696491 7
2.5173588 -0.88945836 -0.83310175 4
2.7304847 -0.78647584 -0.8357349 4
2.4014657 -0.67062551 -0.83450341 5
3.3780172 -0.60073799 -0.83454728 9
4.1522946 -0.70599693 -0.81334168 1
2.6279643 -0.57222009 -0.83463705 4
2.577848 -0.38057503 -0.83681893 5
3.1959999 -0.33824354 -0.83915788 8
3.9677904 -0.40584874 -0.83083099 1
4.2704916 -0.41228354 -0.75648195 0
2.5518067 -0.20015734 -0.83826554 5
2.5660775 -0.023771457 -0.84317249 6
3.0611897 -0.10250231 -0.84018666 8
3.802232 -0.13102321 -0.83905941 5
2.9842401 0.11767457 -0.84113896 7
3.6709173 0.12260906 -0.84042567 5
4.6196747 0.12737262 -0.83391613 0
2.5777011 0.1516467 -0.8428812 6
2.628849 0.33612898 -0.84499937 9
2.9832587 0.33749539 -0.84542018 8
3.613843 0.37125924 -0.84304976 5
4.4619222 0.41161439 -0.8332451 1
2.9555345 0.55607122 -0.83915395 10
6.5797911 0.51419234 -0.88268536 0
6.6031966 0.53082985 -0.8314482 2
4.4706931 0.70781034 -0.84085786 3
6.702765 0.96805543 -0.82756448 1
2.1171522 1.1387575 -0.81095016 70
2.1649148 1.3646677 -0.78904784 70
2.00582 1.5228059 -0.85986209 5
2.2205737 1.5994899 -0.80646408 51
1.8720789 1.865647 -0.86315858 5
2.0121684 1.8695815 -0.86299467 5
2.1139121 1.828596 -0.86088502 6
2.3023641 1.889112 -0.82211155 67
2.3261118 2.2269793 -0.82035863 32
2.2453525 2.3019786 -0.86516607 10
-0.0053154109 2.4301949 -0.84902704 6
0.069991887 2.4624803 -0.8489871 4.6666665
0.091912583 2.6096139 -0.84567791 5
0.091878816 2.7509079 -0.85162294 5
0.087694749 2.9418454 -0.85475719 8.5
0.07161735 3.0925548 -0.85483968 10
3.873719 -1.8497326 -0.65147543 150
1.0045105 -1.7181056 -0.60951197 63
1.1131845 -1.7362459 -0.64044374 31.5
4.0017338 -1.5277568 -0.62563318 97
2.0149512 -1.3807871 -0.65127611 150
3.4499238 -1.3909967 -0.69170988 30
2.0508962 -1.2653372 -0.67253292 89.199997
4.0690126 -1.2468934 -0.65552568 86.5
4.1390181 -0.96285534 -0.65570229 89
4.2047215 -0.6951493 -0.70672852 66.5
4.2740059 -0.47179765 -0.62180328 13.5
4.2631264 -0.43240559 -0.74202263 7
4.3387051 -0.20521064 -0.65452975 14
4.3848968 0.068499632 -0.67835343 0
6.5418115 0.39214581 -0.64472884 112
2.0886717 0.56713295 -0.71497077 42
2.2047572 0.53587902 -0.62812078 36.5
2.7770429 0.49382901 -0.68830299 7.5
1.9974667 0.6884234 -0.6650455 93
2.0348692 0.86409974 -0.65263802 82.333336
6.6467762 0.80254567 -0.63843596 113
2.0623748 1.0103388 -0.70581782 77.5
2.0931115 1.0945648 -0.64262658 83
2.1095748 1.1863134 -0.72694087 69
2.1341338 1.2755156 -0.63035244 77
6.7354035 1.2256835 -0.61664927 95
2.1689768 1.4295304 -0.65820408 61
0.57553655 1.7009629 -0.62576985 24
2.2208416 1.6528833 -0.66872615 59
-0.16251327 1.9487919 -0.67321223 12
2.2868149 1.9147716 -0.67355287 58
-0.15229315 1.9853531 -0.65695393 14
-0.13421017 2.0627728 -0.63836336 8.5
-0.11560401 2.1159866 -0.668329 0
2.3584566 2.222981 -0.67188501 57
3.3502505 -4.2810998 -0.46262136 85
0.97013599 -1.7099537 -0.53736043 23.4
1.103137 -1.7398553 -0.52855361 58
3.4987891 -1.601228 -0.48741359 55.5
3.8328307 -1.4100127 -0.50325257 62
3.9886625 -1.4969791 -0.54295141 129
0.84443146 -1.2759912 -0.53427052 20
4.0682745 -1.2462558 -0.53806657 111
0.88763744 -1.1241615 -0.47955111 73
0.90258127 -1.062261 -0.45824602 10
4.0820894 -1.1905278 -0.45435002 97
0.97111434 -0.93832749 -0.45980915 11.666667
1.198337 -0.95961362 -0.50171429 26
1.2624638 -0.97562653 -0.54008961 17.5
4.1354184 -0.98413062 -0.53090876 90.5
4.18613 -0.77550858 -0.53693223 87
4.2007828 -0.70399559 -0.56804281 83
4.2534809 -0.54050243 -0.51293153 14
4.323988 -0.27887353 -0.5336507 14
4.3874011 -0.011270923 -0.54670089 14
6.517427 0.29245615 -0.4600248 111
1.9994421 0.58126557 -0.50082302 47.5
2.1307631 0.55451512 -0.5654006 34
2.3201268 0.4999254 -0.53243655 20
6.5611067 0.4596135 -0.45060909 113
1.9988254 0.69161767 -0.52148354 89.5
2.03139 0.84355974 -0.53163195 85.666664
6.6731973 0.89363503 -0.45200926 110
2.067071 1.012215 -0.54618317 83.666664
2.0834103 1.0737058 -0.49925733 77
2.1034672 1.1584342 -0.53383636 76
2.1313515 1.2600132 -0.50308585 75.333336
-0.29096955 1.4475222 -0.46942344 152
0.89966494 1.3891701 -0.53263927 8
0.92179936 1.3754212 -0.56666785 5.6666665
2.1732702 1.4220202 -0.52682126 73
-0.28130201 1.5278665 -0.50704265 152
2.201699 1.558526 -0.50288296 73.333336
-0.27140465 1.7894604 -0.53960449 96
2.2334538 1.7014412 -0.53996295 64
-0.25797406 1.80233 -0.51553643 13
2.2822182 1.8894825 -0.5320456 69
2.3107684 2.007024 -0.45306838 70
2.3511088 2.2031562 -0.50553536 56.333332
3.495126 -1.5415812 -0.42195189 68
3.5539973 -1.3812912 -0.42375505 150
0.85835832 -1.2358013 -0.43002558 75
0.88636857 -1.1270719 -0.41127205 75.5
0.90544552 -1.0764029 -0.43058953 83
1.7967854 -1.1082782 -0.44614431 150
4.1225891 -1.0509099 -0.44533777 95
0.92371929 -0.99373209 -0.43070889 23.6
4.2540889 -0.57204562 -0.40039712 14
4.3158383 -0.32056156 -0.41648999 14
4.3832836 -0.065717943 -0.42330113 14
4.3892603 0.020927086 -0.402933 9
2.1442883 0.55606097 -0.41977954 31
6.6071572 0.6774168 -0.44685155 95
0.76796889 1.0129712 -0.42164189 26
2.0476096 0.92030072 -0.43299955 76
-0.34939104 1.1511493 -0.40489951 4
0.43836635 1.1036555 -0.4064967 6
0.71673292 1.0940411 -0.42365488 1
2.0999801 1.1115445 -0.4010219 69
6.701591 1.0739168 -0.42175117 106
0.46029264 1.294453 -0.40561152 32
-0.30067194 1.3607622 -0.44826218 21
2.1900923 1.4990851 -0.40820289 61
-0.23541445 1.7962936 -0.41765004 2
2.2517934 1.7612537 -0.4174937 66
-0.26750717 1.810879 -0.40863872 16
2.2844887 1.8888235 -0.43097854 66
