# .PCD v0.7 - Point Cloud Data file format
VERSION 0.7
FIELDS x y z intensity
SIZE 4 4 4 4
TYPE F F F F
COUNT 1 1 1 1
WIDTH 1731
HEIGHT 1
VIEWPOINT 0 0 0 1 0 0 0
POINTS 1731
DATA ascii
-0.036900308 -1.8511193 -0.17638886 5.25
0.45816958 -1.8645443 -0.18208192 15
-0.14528994 -1.4843348 -0.15564486 9
0.21292348 -1.4998736 -0.15665877 0
0.51642442 -1.2766858 -0.18057929 60.400002
3.5236938 -1.269581 -0.15313232 35
0.34212378 -1.0537944 -0.15971333 9.5
0.52237296 -1.1481979 -0.18082368 8
-0.15558559 -1.0147389 -0.16742447 16
-0.10739732 -1.0158356 -0.15903687 8.75
0.20920809 -1.0472838 -0.1542767 9
0.53750086 -0.92214817 -0.17195211 10
0.54806978 -0.80932736 -0.16867143 10.25
1.0761414 -0.75717455 -0.16051704 2
1.4551618 -0.83289492 -0.16672212 4
-0.51652789 -0.63726658 -0.16871028 10.5
-0.38903233 -0.64415026 -0.18445371 9.4444447
-0.27555645 -0.66064978 -0.17491691 10
0.57452565 -0.71843207 -0.18681847 9
3.2833366 -0.72187948 -0.17089857 72
3.7050388 -0.37967288 -0.17906982 100
3.7385218 0.084962003 -0.16673781 41
3.7585742 0.30722231 -0.18141632 14
3.76665 0.53339672 -0.18882176 14
-0.65752637 0.80855286 -0.17090449 0
-0.5375886 0.8471638 -0.18076248 0
1.6613876 0.89614832 -0.15887484 21
3.7823694 0.7663272 -0.18780303 11
-0.66583121 0.91017658 -0.19480477 0
1.3052648 1.0224854 -0.15919311 66
1.4211563 0.92265517 -0.16936512 42.666668
1.5452377 0.90811557 -0.19901383 43
2.2597668 0.98774117 -0.18431206 53
-0.037822012 1.1556885 -0.18382815 9.3999996
0.10913743 1.1654438 -0.15173741 11
0.22159587 1.1672182 -0.16666362 9
0.3293446 1.1762607 -0.1832054 19.5
1.3069123 1.1176611 -0.1850276 69.333336
-0.53226209 1.2943895 -0.16832283 18
-0.36586633 1.2955462 -0.18195093 18.799999
0.2081926 1.2114199 -0.19322944 11
1.3157078 1.3874069 -0.15084466 65
1.3422261 1.5705516 -0.1550063 52
1.3805568 2.1859775 -0.18346748 58
1.3859704 2.4026656 -0.15389735 51
5.9028263 2.4512498 -0.16487479 115
1.4166951 2.891293 -0.16380501 41
1.2716655 -3.8231776 -0.073972113 44
0.95266336 -3.4199951 -0.11398954 54
-0.0081643043 -1.9043655 -0.13160333 10
0.13103808 -1.5123501 -0.12319145 1
0.20301695 -1.5026302 -0.1160085 0
0.075024374 -1.4897637 -0.13251746 3.75
0.50630498 -1.4251029 -0.1312851 16.75
0.51445311 -1.3480842 -0.14293803 9
0.14105015 -1.0507606 -0.11478413 9
0.27304989 -1.0517037 -0.13734096 10
0.47098619 -1.0551578 -0.068153895 8
3.1902645 -1.1150219 -0.058293883 35
-0.18403555 -0.99239826 -0.091696158 10.6
-0.084255993 -1.0011303 -0.099454261 8.5555553
0.07630036 -1.0074677 -0.085157864 7.25
0.20921068 -1.0326993 -0.11277732 8.2222223
0.38354042 -0.91854632 -0.070624046 1
0.52953017 -0.96498388 -0.091961823 6.9230771
3.133394 -0.92912364 -0.076056965 91
3.1583035 -0.90009385 -0.12375424 34
-0.72927195 -0.77155912 -0.07838846 5
-0.084368177 -0.81973237 -0.076652229 3.5
0.085782647 -0.81373537 -0.076832198 4
0.22655149 -0.80479193 -0.073665321 3.7142856
0.35479254 -0.87903643 -0.071805447 1.2
0.54346609 -0.85939831 -0.12694861 9
1.1429801 -0.80951864 -0.079557769 4
1.3116351 -0.75111187 -0.063323118 4
1.3994659 -0.7708084 -0.12121371 3
3.1438766 -0.86630172 -0.012699519 34
3.1761274 -0.7582444 -0.0094066905 38
3.6467497 -0.77227157 -0.024678802 150
-0.76419747 -0.60677099 -0.041822083 8.5
-0.66740662 -0.62616289 -0.071355864 6.7272725
-0.52803987 -0.63385403 -0.097973518 10.333333
-0.38168123 -0.64490551 -0.096105725 8.7777777
-0.22443847 -0.67406636 -0.093002364 5
-0.056885187 -0.68159354 -0.071300484 7.1428571
0.066860385 -0.69524843 -0.075164154 5.2857141
0.16407852 -0.69718051 -0.080477156 5
0.37424448 -0.69945228 -0.063335441 7.5
0.51941216 -0.71333343 -0.064367712 1.5
0.67272127 -0.72148955 -0.085501909 4.5999999
0.81628686 -0.73305529 -0.083543882 5.8000002
0.99027413 -0.72793233 -0.053151507 4
1.1073902 -0.69128072 -0.10313319 4.8000002
1.2803651 -0.67576712 -0.066565774 2.5
3.2428927 -0.74905634 -0.11964516 50
3.6878357 -0.62583953 -0.074249975 91
-0.77210903 -0.58992672 -0.035404865 1
-0.69818318 -0.58087003 -0.062683061 7.5
3.6896999 -0.56348246 -0.07063479 85
3.7039571 -0.387476 -0.07675866 87
3.7163036 -0.18972912 -0.035835676 89
3.7183583 -0.13294597 -0.1427934 110
3.7318256 0.023255982 -0.057425402 95
3.7535081 0.23922308 -0.070070006 12.5
3.770776 0.46029806 -0.075525902 12.5
3.7788517 0.68511754 -0.072749816 12.5
-0.91240823 0.88283521 -0.055833988 0.25
-0.84156567 0.88445574 -0.050627742 0.07692308
-0.67517877 0.83870441 -0.086268827 0.5
-0.53327918 0.87678295 -0.09987092 1.75
-0.91395706 0.90418482 -0.094948657 1
-0.84687251 0.90413052 -0.11025498 1
-0.63936144 0.91173935 -0.057797059 1.6666666
-0.52985555 0.9579249 -0.099510655 2
-0.37736779 0.93463504 -0.12872934 8
1.3021922 0.9619875 -0.11885613 61
1.4314611 0.93952101 -0.061563753 94.5
1.630057 0.92532587 -0.053720549 37
2.2607732 1.0258715 -0.10231793 48.5
-0.47110936 1.0586694 -0.1338672 2
-0.38139123 1.1315559 -0.13607836 2
-0.021782164 1.1745291 -0.050114978 10
0.074351184 1.1531833 -0.061307237 10.75
0.22076835 1.1724734 -0.092071228 10.833333
0.33219448 1.1922936 -0.13944061 10.5
1.3096753 1.1106135 -0.1080431 66.333336
-0.48329282 1.2904357 -0.13493633 9
-0.4023222 1.2866921 -0.13739598 8.666667
0.36640614 1.2009627 -0.14785114 2
1.3143761 1.2596638 -0.11091156 59.799999
1.3810199 1.2814314 -0.026243305 145
1.3210052 1.4098787 -0.081717424 50.333332
1.3286048 1.5590096 -0.088225998 39
5.8456507 1.5230875 -0.099271692 101
5.8528261 1.6116769 -0.11195735 110
1.3496351 1.7643491 -0.079613693 45
1.3589294 1.7857591 -0.14543831 59
5.868412 1.8962961 -0.068863668 105
5.87643 2.0077229 -0.053994033 112
1.3826697 2.32359 -0.13097942 42
1.3827072 2.4868412 -0.091265626 20
1.3965304 2.7911215 -0.10333664 31
1.7284188 2.9575326 -0.032565627 150
1.6137066 3.0583136 -0.012499546 86
0.21504314 6.4043303 -0.10680652 79
0.35703695 6.832026 -0.071347483 110.5
0.62944925 6.833077 -0.074157722 90
0.83852953 -3.4112506 0.019436562 0
3.6288569 -1.4895209 0.059389051 79
3.6107304 -1.2841017 0.028877759 41
3.1550977 -1.0620103 0.048111822 31
3.0612836 -0.92542309 0.073276184 24
-0.79212666 -0.75831842 0.075066946 0
3.1809545 -0.81410021 0.10454822 42
3.5828819 -0.75813681 0.10899665 46
-0.96517837 -0.62531543 0.091901287 0
-0.80178118 -0.62375748 0.072199017 1.8823529
-0.71188962 -0.62486571 0.075644694 1.25
1.0229788 -0.67931181 0.08352749 1.25
1.185325 -0.69158971 0.13204867 3
1.2575506 -0.71639407 0.062968127 3
1.4084866 -0.73171127 0.10705411 3
1.5005356 -0.73436236 0.097155862 3
3.1705053 -0.73045129 0.12761825 61
3.5060413 -0.63118827 0.093576722 150
3.6822903 -0.60952938 0.13876522 84
-0.77447671 -0.59823132 0.027216475 2.5
3.6903234 -0.576105 0.071445011 86
3.7004251 -0.4044323 0.069825865 84.333336
3.7139974 -0.20377681 0.062941216 86.5
-1.0507452 -0.078453377 0.1101713 0
-1.0156844 -0.098981 0.098130599 3.8
3.7222302 -0.030658137 0.049188342 82
-1.0127413 0.061530273 0.088929825 0
3.7259052 0.055047076 0.041514512 91
3.7426698 0.17918772 0.045070525 15
3.7522871 0.2817834 0.032476243 15
3.7651527 0.3933948 0.050050732 14
3.7792275 0.51241481 0.034304436 11
3.7847958 0.67895496 0.054260083 13
-0.91776365 0.87549484 0.048510522 0.125
-0.81516635 0.86215019 0.083630309 0.41176471
-0.67698348 0.85715532 0.08521425 1
-0.53523743 0.85300726 0.067534745 1.3529412
-0.62807602 0.92792833 0.035674404 2.5
1.5362651 1.0126426 0.0086186184 150
1.6937996 0.97537231 0.084488161 50.666668
2.2472472 1.0057214 0.081079654 59
2.2930498 0.99217963 0.11204842 50.5
-0.015143398 1.1931818 0.026625866 10
0.070286632 1.1696573 0.058736484 10
0.22120762 1.1606277 0.098546505 9.5
0.31986505 1.198625 0.03011849 7
1.6221689 1.1921282 0.054119702 150
1.7034575 1.1466826 0.12574707 69
2.3790414 1.1364396 0.040997636 54.5
-0.018534191 1.2471099 0.064951114 8
0.27921951 1.2001814 0.13927394 8
0.34147623 1.2364575 0.10967096 27.333334
1.6327879 1.3221443 0.039166417 150
1.7049046 1.2428205 0.088200651 87
-1.4314408 1.4725174 0.12108184 36.200001
-0.43982244 1.4997326 0.1344887 1
1.6889805 1.4499526 0.12382285 39
5.8395176 1.3895235 0.076079853 103.5
-0.48148748 1.5060627 0.13223022 2.5
-0.41361582 1.5048013 0.12394127 2.5
1.6656184 1.6764381 0.076023273 21
5.8565941 1.7489986 0.10894236 109
1.4902468 1.8901293 0.092918329 26
1.5672349 1.823833 0.065391719 30
1.6986718 1.8502935 0.059529044 82
5.8814292 2.0938108 0.1135829 114
1.6893544 2.1174512 0.053158458 150
1.781631 2.5022178 0.056597792 92
5.8985143 2.6871161 0.039217558 38
1.5946945 3.1072569 0.062611453 50.333332
1.6994421 3.0515659 0.012188698 72
1.5574706 3.2181518 0.12740123 66
0.21710569 6.3765125 0.089730829 73.5
0.57782745 6.8581748 0.048913505 127
3.630182 -1.4258841 0.17895311 77
-0.5238412 -1.2047702 0.26855522 7
0.36431372 -1.3477262 0.28636479 1
0.55158329 -1.2236053 0.29486781 6
3.6285217 -1.2996296 0.15181839 120
-0.79727411 -1.0962362 0.23188278 6.4285712
-0.68893677 -1.1051614 0.2113847 11.166667
-0.54900396 -1.1641091 0.26157662 6.5714288
0.55869722 -1.1810046 0.28801709 35
3.0935545 -1.1312346 0.22708337 58.75
3.0995941 -0.94902182 0.18515736 26.666666
3.11551 -0.79261923 0.26035398 20
3.2060683 -0.76000649 0.19588035 33
1.0427018 -0.64565164 0.18332572 1
1.1439306 -0.66673023 0.16831309 2
1.2646065 -0.64211035 0.2254304 1.4
1.448849 -0.71106303 0.18489249 2.75
1.501018 -0.72183222 0.18917018 2
3.2340233 -0.70425284 0.27298665 12
3.5153406 -0.67638743 0.27194941 34
3.6801019 -0.65116954 0.23293197 75
3.6910019 -0.50802326 0.25230065 82.333336
3.7009122 -0.3736634 0.25331312 83
-1.147669 -0.15390444 0.21685016 0
3.7139246 -0.23301196 0.21144672 81.666664
-1.2194997 -0.067354158 0.29365474 0
-1.1072669 -0.11963086 0.21010892 2.2
-1.0386043 -0.011996997 0.16856796 5
3.7253532 -0.05933468 0.1895853 81
-1.1411461 0.06540601 0.23067178 0
3.7362661 0.11303592 0.18836939 40.333332
-1.168962 0.16661739 0.26915327 0
3.751826 0.25679764 0.1884824 16
3.7567158 0.35806873 0.18496072 15.5
3.7695742 0.53924322 0.19316654 14.333333
3.7850273 0.69550979 0.19514859 16
-0.75996095 0.79993451 0.18851706 0
-0.68912756 0.80795425 0.19308403 0
-0.57440704 0.85227686 0.26212358 0
3.7831771 0.75589305 0.2287575 11
-1.7494434 0.90288502 0.29464114 5
1.6960387 1.0143807 0.23299193 65.5
2.2406065 0.99936712 0.24826109 66.5
2.2963524 0.96126938 0.19071506 34.666668
0.1120765 1.1777607 0.18911859 8.1428576
0.18286452 1.1697478 0.16537912 8
0.30350369 1.1970133 0.29826587 30
1.7018028 1.1251295 0.21405022 64.800003
2.3611422 1.1221658 0.22915053 66.5
-0.026008338 1.2564906 0.28320488 6.6666665
0.049682923 1.2188126 0.24667335 8.8888893
0.29149294 1.225374 0.29121029 26
0.40082365 1.2840376 0.2719962 16
1.718213 1.275636 0.22780724 72.14286
-1.5547094 1.4766147 0.23263213 33
-1.4074123 1.4841977 0.18198092 26.6
1.721941 1.4234072 0.23434439 66.599998
5.8487797 1.4927777 0.27035826 107
1.7238448 1.5579321 0.2158632 39.5
1.5589364 1.7698559 0.17254758 28
1.7403598 1.7349694 0.21149439 62
1.4695731 1.8803618 0.15052366 24
5.8745122 2.1506455 0.20325756 109
1.7674891 2.3070784 0.22053349 76
1.7792016 2.4424508 0.23981643 50
1.7977072 2.8250883 0.19713947 44
0.16086136 6.4609461 0.27927238 54
3.6392393 -1.507232 0.4385553 12
3.6297903 -1.4946198 0.41498846 11
0.49582151 -1.2334645 0.34664494 8.5
-0.69610012 -1.178496 0.30933452 7
0.5192908 -1.174727 0.31687641 13.25
0.61701256 -1.1395038 0.32114965 19
3.0277801 -1.1365418 0.37494528 9
3.0730171 -1.0000823 0.34048063 24
3.1196883 -0.83091253 0.38536492 56
3.1643848 -0.80306047 0.4209137 122
1.2501383 -0.642564 0.36658511 0.66666669
3.2638278 -0.66862029 0.40205771 78.5
3.4557185 -0.67010421 0.42191094 150
1.3277957 -0.51584083 0.32997203 2
3.6821284 -0.51734912 0.41759267 78
3.700943 -0.35057649 0.413968 75.666664
3.7049248 -0.23035717 0.37946656 77.5
-1.2309911 -0.097606197 0.39296979 4.125
-1.1785563 -0.034246061 0.36147305 0.33333334
3.7165403 -0.12274232 0.37343565 75.333336
-1.1584762 0.070719443 0.37003976 0
3.728585 0.051908795 0.36707714 73.666664
3.7545836 0.12697838 0.33543831 16
-1.2353064 0.26565051 0.38548732 7.6666665
-1.1759318 0.1716212 0.41665834 0
3.7446263 0.22723208 0.34809536 15
3.7623234 0.27143303 0.36647913 14
3.7598388 0.38592893 0.33619401 15.5
3.7694385 0.50793737 0.35841718 14
3.7768097 0.67815757 0.37190095 14
-0.81660819 0.86324871 0.31449133 0
-0.58891976 0.83970445 0.31073269 0
3.7807615 0.78102666 0.35394222 12
0.062713414 1.0334852 0.35019559 4
0.24057378 1.0414342 0.38561624 14
1.6905639 0.99006486 0.38045299 60.5
2.2494998 0.96132368 0.42002684 26
2.2751 1.0148587 0.34675372 38.666668
-0.0038249672 1.1847476 0.32349199 6
0.066662043 1.1326262 0.32306269 3.5
0.20734577 1.0968956 0.33660188 3.6666667
0.31362087 1.187709 0.36337996 3
1.7068219 1.1219667 0.37363085 72.833336
-0.058624968 1.3124715 0.38959706 16.444445
0.083209127 1.2257215 0.34429514 6.5
0.20247687 1.205297 0.36789647 7
0.39861822 1.2702578 0.36897847 35
1.7155197 1.2692338 0.39236623 60
1.7210495 1.4226205 0.36416969 61.75
1.502061 1.5943897 0.40646297 40
1.728693 1.5699099 0.36760396 58.799999
5.8414006 1.5949234 0.33543748 101
1.4314615 1.7502953 0.44593751 39
1.5573241 1.7261589 0.42343545 140.5
1.734301 1.7103742 0.3464089 58.799999
1.5133448 1.8404424 0.38151494 87.5
1.7235743 1.8809125 0.37486976 82
5.8669176 1.9033518 0.36021888 108
1.4169583 1.9820997 0.41640437 61
1.7659254 2.1866074 0.3477729 4
5.8839178 2.2421799 0.39767277 117
1.7826638 2.4750504 0.34664851 50
1.7852813 2.6223164 0.36063838 50.333332
1.7904327 2.7424865 0.36979097 44.5
1.7739327 3.1724429 0.32271975 76
1.8214123 3.1729498 0.40869796 47
0.40530968 6.0755715 0.4473716 35
3.5889628 -2.0082145 0.58890104 61
3.6281304 -1.4137362 0.57133013 68
-1.9041532 -1.2394308 0.5171836 18
-1.9067541 -1.0859371 0.56828308 67
-1.898988 -0.98201644 0.58336782 69.5
3.1064725 -0.98566914 0.51093066 59.599998
-1.9055421 -0.89533573 0.54797125 3
3.2074041 -0.84473896 0.52350795 65
3.2903156 -0.71796304 0.5206722 132.5
3.4742858 -0.70919299 0.57620394 150
3.681865 -0.55485469 0.50547761 67
3.6979077 -0.38992241 0.58024704 33.333332
3.6946809 -0.20197295 0.54751337 73.666664
-1.2320896 -0.090240531 0.50552899 3
3.7191703 -0.036007036 0.55097586 62.666668
-1.1656562 0.057715982 0.47003359 0
3.7341974 0.1002452 0.53757858 29
-1.2386181 0.26272598 0.49566036 4.8000002
-1.1899287 0.15950169 0.47265118 0
3.7457263 0.19075769 0.52075493 11
3.7577813 0.36309916 0.52990162 11
3.7706425 0.56216812 0.53624618 11
3.7770379 0.74257398 0.5983907 11
3.7767868 0.77152175 0.53440934 11
1.6895692 0.98908615 0.50072086 48
2.0976083 1.0439353 0.48195565 12
2.2273548 1.0206721 0.51039666 62
2.2559721 0.97876042 0.49076021 60
1.7050258 1.1503465 0.53015554 65
2.2455957 1.0986619 0.45975399 19
0.08295963 1.2706734 0.55565661 20.166666
0.17482309 1.2410276 0.5191837 41
1.7112026 1.2682177 0.5220558 60
1.7173285 1.4087981 0.50411403 60.5
5.836916 1.4261105 0.51848924 103.5
1.4945577 1.6186525 0.50675547 35
1.5468688 1.595942 0.54642022 110
1.7260441 1.572772 0.52515763 53.200001
5.8461165 1.6041062 0.52324021 109
1.4638009 1.7305228 0.49286962 49.75
1.6997315 1.7062486 0.49388269 102.33334
5.8567762 1.7435377 0.52989447 104
1.4095843 1.8716911 0.54565001 62.25
1.496008 2.0439751 0.53080487 154.5
1.7161601 2.0976691 0.51487404 150
5.8727851 1.9720659 0.59384882 111
1.750783 2.1108532 0.50856304 49
5.8787031 2.1048403 0.59275222 109
5.8818827 2.3022876 0.47194296 102
1.77637 2.4417498 0.49352747 45
1.7962589 2.7892547 0.48782724 45
1.7919471 2.8694475 0.46707207 54
1.800935 2.9257863 0.54559052 50
1.809152 3.0612752 0.53739375 47.666668
1.6310724 3.2510269 0.5293743 14
0.63358879 6.6738839 0.56571615 32
3.566767 -2.4826443 0.72363532 65
3.5787532 -2.2192287 0.65667874 63.666668
3.6285193 -1.3303548 0.68592185 66
-1.9090004 -1.1608921 0.6720022 61.200001
3.0702837 -1.1406142 0.63631237 150
-1.8958807 -0.97294927 0.6738981 28.5
3.1929219 -0.90012705 0.62906444 83
-2.2032087 -0.88048452 0.65859151 16
-2.0193202 -0.88095355 0.64555067 19.5
3.2405305 -0.85646868 0.65375513 103.5
3.6085105 -0.80383426 0.72128546 150
3.6741848 -0.65894997 0.66622382 77
3.6858637 -0.54578513 0.63584733 51
3.6940506 -0.40350226 0.6853075 68.5
3.7032928 -0.2109465 0.68681717 69
3.7126667 -0.015514348 0.71051413 64.5
-1.2283161 0.080144219 0.68355048 10.428572
-1.1793257 0.10795434 0.70438689 6
-1.2329587 0.16498047 0.68304992 21
3.7428901 0.16463184 0.70833981 11
3.7481563 0.35342279 0.70333743 11
3.7553151 0.33978677 0.71416998 11
3.7628694 0.5314377 0.71760815 9.5
3.7774532 0.72070408 0.73586118 10.5
2.2531071 0.95401996 0.62360537 3
0.12093399 1.1758469 0.67837435 24.142857
0.17806418 1.176806 0.6910699 20.444445
2.3079455 1.1010473 0.68278444 66
0.084146291 1.2031341 0.73034388 28.5
0.21431471 1.2349391 0.66333592 6
1.7107308 1.2826482 0.63764894 59
5.8414812 1.2939059 0.70626879 17
1.7165756 1.4315635 0.65191299 55.333332
1.7240708 1.584406 0.67633855 53.75
5.8498387 1.6206751 0.73940969 103
5.8510718 1.5281914 0.74430954 106
1.4491515 1.733011 0.69156814 36.75
1.5097529 1.677461 0.74770606 70
1.7256927 1.6838166 0.67096025 62.666668
5.8521357 1.7768669 0.60862523 108
1.446931 1.8402996 0.69111824 54.666668
1.5749373 1.8207111 0.7162593 113
1.672085 1.847851 0.71123123 150
1.5937346 2.0994275 0.62667549 26
5.8702497 2.1059837 0.67836022 99
1.788913 2.6649051 0.73633528 40
1.7932875 2.7341204 0.66976464 43
1.7421336 3.2176046 0.6914416 8.5
1.8200437 3.2017565 0.66425937 48.5
0.20949157 6.1938462 0.74754274 29
0.80228013 6.9724722 0.70323789 4
3.5491641 -2.7504029 0.86109459 72
3.5693054 -2.4634113 0.80632317 65.5
3.5762072 -2.2058325 0.80937743 62
3.5900836 -1.9854281 0.82168114 57
-1.9270437 -1.4190855 0.86491537 44.5
3.6151624 -1.3628937 0.75857973 150
-1.9131866 -1.2812699 0.81077451 37
3.6314831 -1.2313342 0.85118139 69.5
-1.9079186 -1.1337677 0.79076338 31.25
3.5764794 -1.0596631 0.78110099 123
3.6408319 -1.1464965 0.87242222 105
-1.8987782 -1.0447335 0.76667202 31
3.6592298 -0.91268933 0.82248926 68
-2.150022 -0.88722283 0.89894056 0
3.6710749 -0.70984316 0.84197932 67.333336
3.6794503 -0.53108245 0.80099225 69.333336
3.6932876 -0.34519291 0.79224175 67.5
3.7022097 -0.1385017 0.78904653 69
-1.2671654 0.023364939 0.7761662 1
-1.1194605 0.078419141 0.83954108 0.875
3.7203529 0.039824195 0.77499771 66
-1.2760071 0.21743773 0.83136547 0
-1.1234736 0.16237886 0.80552471 0
3.7422535 0.21967126 0.77267516 11
3.7582858 0.40350693 0.7761426 11
3.7654469 0.58925009 0.7862047 11
3.7212565 0.87444764 0.75901103 2
3.7697356 0.7781834 0.80495334 10
0.10310961 1.1695968 0.79943252 14.555555
0.064429723 1.2282909 0.80614686 6.8333335
0.25346524 1.2425857 0.76281524 6
5.8376818 1.3914119 0.7827366 8
1.7172711 1.5459522 0.78417611 48
1.4901736 1.7910693 0.77878249 79
1.5315027 1.6729822 0.85743773 153
1.7066723 1.7107426 0.81884933 83.666664
5.8497367 1.7118778 0.81102109 104
5.8568053 1.746832 0.87127388 102
1.457058 1.9299715 0.81836343 59
1.5960258 1.8160112 0.8754319 150
1.7321151 1.8284917 0.7893644 46.666668
5.8630514 1.8761101 0.80973482 109
5.8679552 2.0077963 0.83694392 107
1.7745591 2.5008919 0.84961396 106.66666
1.7803004 2.6048462 0.82344174 42
1.8152103 3.0710139 0.88760245 43
1.6280572 3.4310865 0.82635021 72
1.7241075 3.4277327 0.8290084 66.5
-0.65405715 3.6126666 0.88680953 34
0.33513564 6.1439996 0.7716223 39
0.6033389 6.1288838 0.75103951 6
0.076538786 6.3774276 0.75338674 32
0.49629062 6.3802948 0.83650148 34
3.5398583 -2.8636618 0.90585279 61
3.5546265 -2.7215986 0.94423652 71
3.5667944 -2.4576132 0.97320807 63
3.5791435 -2.2117155 0.95871186 60
3.5895767 -2.0007584 0.97160602 55.666668
-1.9521832 -1.6537907 0.99891424 43
-1.9346023 -1.5047334 0.92663264 56.5
-1.9333053 -1.4085547 0.96806395 45
3.6239336 -1.4101528 0.94546199 37.333332
-1.9097089 -1.2838577 0.90597677 21
3.6376922 -1.2904092 0.93080688 55
-1.909725 -1.180123 0.9076246 1
3.6451492 -1.0891104 0.98159957 64
-1.9005442 -0.93040097 0.99454832 32.5
3.6538358 -0.96812212 0.95550096 67
-2.4260345 -0.87941295 0.97401738 0
-2.1413476 -0.87895733 0.99380302 19
-2.0209508 -0.88183695 0.94947755 13
-1.9438219 -0.87730044 0.96979058 10
3.6574035 -0.84705293 0.93495977 62
3.678319 -0.48644093 1.0126978 64
3.6878195 -0.34263694 1.0083874 59.5
3.6942315 -0.17965224 0.98244327 59.5
3.7086465 -0.036119763 1.0022418 56
3.72543 0.065866098 0.96651214 34.5
3.7418242 0.23188004 0.96130675 8
3.7472489 0.34162065 0.91690791 8
3.7559855 0.48754463 0.96081984 8
3.7669027 0.66192049 0.97154528 8
3.7774498 0.80522919 1.0391958 8
5.8346806 1.4690751 0.98000854 95.5
5.8568201 1.7868878 0.98659086 91
3.8114059 1.8829371 1.0413116 2
1.7394812 2.0763357 1.0061077 103
1.7294233 2.1705928 1.0201852 150
5.8749685 2.1105413 0.99465001 102.5
1.7601771 2.3380983 0.95884156 150
1.7675407 2.4249322 0.91060829 107
1.7876956 2.6310189 0.9444859 41
1.7948097 2.7803059 1.0146997 40
1.7991345 2.8873816 0.9924078 39
1.8086247 2.9772623 0.94038725 40
1.5455706 3.4471569 0.92088294 72
-0.82600969 3.6273193 0.96516883 31.5
-0.6167016 3.6175463 0.96333802 36
-3.6059391 3.7889621 0.92841673 18
-3.5398486 3.7769127 1.0236162 22
0.59954458 6.4439425 0.9310689 31
0.31035954 6.4638252 0.90144229 39
3.5373228 -2.9592073 1.1362669 74
3.5475137 -2.7120838 1.1551486 67
3.5710533 -2.4459109 1.1130996 64
3.5657229 -2.294647 1.0533774 57
3.5785844 -2.1701183 1.1536269 58.5
3.5866992 -1.9892128 1.1162784 58
3.5973933 -1.8993863 1.1729072 43
-1.9439967 -1.5491021 1.1284192 27.5
3.6254392 -1.3907106 1.145177 48
3.6363106 -1.238892 1.061532 60.5
-1.9114102 -1.1082929 1.1440554 16.333334
-1.8986021 -0.94680983 1.1425956 37.666668
3.6486471 -1.000344 1.178109 57
-2.4517753 -0.86498737 1.1175284 22
-2.3504188 -0.86141217 1.102931 19
-2.1421721 -0.86756802 1.0505868 15
-2.0936973 -0.87838912 1.0869613 33
-1.9054164 -0.87694263 1.1076894 7.5
3.6567345 -0.83374333 1.1237963 58
3.6639662 -0.66844237 1.0765722 62
3.6772878 -0.52473766 1.0651726 59
5.8379149 1.4406648 1.1062557 101
5.835741 1.5084782 1.0511457 100
5.8563709 1.7626361 1.167801 107
3.7993925 1.8840928 1.1583415 3
5.8567057 1.8132384 1.0915184 104
1.7522259 2.0449026 1.1217237 38
1.7518058 2.1591074 1.0813148 38
5.8732944 2.143672 1.1691593 107
1.7683493 2.3143172 1.1043772 37
1.7719115 2.4651709 1.1331661 36
1.7864919 2.6421499 1.1379333 37.5
1.804641 2.8126395 1.0795289 44
1.8039347 2.9194684 1.1000171 41.5
1.8214535 3.378078 1.1621165 60
-0.83104825 3.643296 1.1392356 32
-0.61242622 3.6168711 1.0509111 31
-4.0420494 3.753854 1.1643962 65
-3.5048006 3.7841506 1.1095803 20
-3.3747578 3.7701256 1.1895992 22
0.61180925 6.893302 1.1562512 104
0.17609759 6.9171171 1.1851854 109
0.31659526 6.9065633 1.1414309 113
3.5048811 -3.3806939 1.2628312 48
3.5210834 -3.2261908 1.316394 71
3.5547454 -2.6823661 1.284623 68
3.5632219 -2.4747467 1.2255356 60.5
3.568439 -2.3777847 1.3065383 59.5
3.5888777 -2.1668112 1.2784169 64
3.5872679 -1.9991976 1.2761127 59
3.5972521 -1.7662143 1.3391247 56
-1.9515178 -1.6429576 1.2503303 19
3.6132448 -1.6099622 1.2414091 54
-1.939158 -1.3579991 1.3211995 6
3.6343465 -1.3731656 1.3320379 14
3.6243749 -1.3104248 1.2933902 20
-1.9168926 -1.1287374 1.2832572 35.333332
3.642019 -1.1440105 1.2248684 55
-1.9066949 -0.97375721 1.2303374 49
-2.5344253 -0.85998869 1.2626764 30
-2.3142636 -0.85522872 1.2586871 28
-2.140389 -0.87396824 1.2618231 30
-2.0398655 -0.86080289 1.2812912 30.5
-1.9019234 -0.89789772 1.2802364 9
-2.4313855 0.92504066 1.3188648 1.5
5.8298516 1.4156568 1.2839959 98
5.8484168 1.7222495 1.3346074 98
5.8754606 2.0947278 1.2485622 108
1.7648125 2.2466464 1.2749462 37
1.764626 2.3691459 1.2451104 36.5
1.7707332 2.446027 1.2460299 36.5
1.7832123 2.6109419 1.2751771 38.666668
-4.0680161 2.8513937 1.2843027 77
1.8165751 3.0963097 1.2336915 44
-4.0384402 3.2648113 1.2205082 81
1.8232168 3.204793 1.2769245 44.333332
-3.9631007 3.7488081 1.2712815 74
-3.8293219 3.7455246 1.2991014 83
-0.81715459 3.6370726 1.2289588 35
-3.4550488 3.7782004 1.2052379 18
-3.4049945 3.7830863 1.2498698 20
-3.0205328 3.7727988 1.3337849 1
-0.062967509 6.9382691 1.2518438 102
0.27518296 6.9118338 1.284165 112
3.4962511 -3.6743145 1.4296167 62.5
3.5308967 -2.9505696 1.4180267 69.5
3.5336499 -2.7749684 1.3998135 65
3.5549867 -2.6237619 1.4412311 62.666668
3.5676525 -2.4227486 1.4036155 64
3.5823858 -2.35589 1.4122083 68
3.5834191 -2.2096932 1.4187027 62.333332
3.5932345 -1.9985251 1.4740242 56
3.5964186 -1.8306223 1.3571483 55
-1.9481239 -1.5621383 1.4783237 8
-1.9255545 -1.288794 1.4423637 21
-1.9126389 -1.059468 1.4230876 43
-1.9006366 -0.97599232 1.4982868 41
-2.5568173 -0.84216112 1.3516167 27
-2.4891593 -0.85687715 1.3786117 27
-2.1903028 -0.85854137 1.4290119 24.5
-1.9244888 -0.88271034 1.3909016 13
-2.2920847 0.9455362 1.3679111 11
5.0276742 1.2886217 1.4891211 23
-4.1146555 1.4085907 1.4582307 98
4.8943939 1.484979 1.485765 23
5.8325009 1.4738127 1.4178953 97
5.4373846 1.5045438 1.4896281 25
5.8409204 1.6282989 1.3807665 90
-4.0923142 1.7350605 1.4158036 92
5.3213067 1.737033 1.4949659 25
5.8250937 1.7655716 1.4712608 56
5.1114392 1.9350352 1.480564 26
5.8408947 1.9148954 1.4441231 81
-4.0714269 2.0753868 1.369917 86
5.5787921 1.983371 1.4675914 28
5.8683653 2.0384943 1.4027053 107
5.7257285 2.1661828 1.4853574 31
-4.0611563 2.519418 1.4748155 61
1.7788391 2.4703786 1.4555435 41
1.7854686 2.615746 1.4143689 39.75
1.7929356 2.778718 1.4325144 38.5
-4.061079 2.9227397 1.4273955 87
-4.0413613 2.8914454 1.4830757 83
1.8054875 2.9267914 1.3756709 40.5
-4.0549927 3.0065825 1.4934634 87
1.8258822 3.2873266 1.3974036 44
-4.0587683 3.3610802 1.3741746 18
-4.0265074 3.3327727 1.4352652 19
1.7356739 3.4305978 1.4133372 63
1.8165466 3.4213662 1.4787488 65
-3.9022257 3.7455566 1.3680116 76
-3.8217123 3.7482941 1.426156 79.5
-3.9672725 3.7734165 1.3622284 86
-3.778831 3.7522638 1.4556566 7
-3.3820775 3.8068554 1.4432961 17.666666
-3.0785031 3.7722771 1.4141729 1.5
-0.5094884 6.9701757 1.463133 6
-0.35914063 6.956789 1.4640249 6
-0.21515755 6.9397564 1.452579 7
-0.084444582 6.9377804 1.4131097 111
0.23822744 6.9214311 1.4321368 105
3.4444115 -4.2760429 1.600265 50
3.4716651 -3.9885075 1.5735067 61.666668
3.4899085 -3.7478175 1.5262936 56
3.4980202 -3.5046852 1.5156142 66
3.5145507 -3.2580948 1.5990086 68
3.520664 -3.0333064 1.6087137 67
3.536155 -2.8920801 1.57628 68
3.5378242 -2.831846 1.6281546 66
3.5542591 -2.6309969 1.5794796 66.333336
3.566658 -2.4199288 1.5720783 62.333332
3.5828507 -2.2019496 1.6125734 59
3.5971248 -1.9303739 1.6111726 61
3.6052473 -1.8438118 1.5788682 60
3.6083467 -1.7382846 1.5051793 48
-1.9401366 -1.5071175 1.567888 33
-1.9290199 -1.44901 1.6400112 26
-1.9174227 -1.2011759 1.5660284 37
-1.9061517 -1.071878 1.588528 38
-1.9033018 -0.96588814 1.6180871 39.5
-2.5824947 -0.84511983 1.5612167 26
-2.4700105 -0.83298838 1.5791159 26
-2.2160053 -0.86298919 1.5612847 24
-2.0618837 -0.85605627 1.6389607 25
-1.9174343 -0.8769666 1.562629 4
5.6829715 1.2971489 1.5354677 5
-4.1126132 1.4850512 1.614617 48
-4.0849266 1.7539023 1.6013449 91
4.81881 1.6947054 1.5118762 13
-4.0941219 1.830194 1.5917535 96
-3.751533 2.0919344 1.6306595 56
-4.0745816 2.1571105 1.5544143 82
-3.7487428 2.1091089 1.6272503 57
-4.0434852 2.4781091 1.5194088 73
-4.0520396 2.580864 1.5690389 67
-4.0399799 2.6298246 1.6423157 30
-3.7052915 2.813231 1.6345283 67.5
1.7932384 2.7823691 1.5190074 39
-4.0679317 2.9942853 1.5671953 90
1.8046535 2.9037094 1.5809718 39
-4.0539532 3.058799 1.6085154 87
1.8094578 3.0346289 1.6430565 39
-3.6811686 3.184293 1.6050694 41
-3.996521 3.4169207 1.6113274 30
1.7553225 3.4349327 1.5129328 66
-4.0012593 3.4847817 1.5826647 18.5
-3.6542902 3.537287 1.6227888 80
-3.7562337 3.739285 1.5723166 56.5
-0.65229297 3.6643293 1.5944963 26
-0.5624103 3.6435156 1.5055708 16
-3.8729014 3.7714715 1.502733 77
-3.4566422 3.822557 1.6312298 18
-3.4042189 3.8218908 1.5897492 18
-0.48391581 6.9692302 1.5313087 7
-0.11254609 6.9457226 1.5638855 116
3.4641347 -4.061162 1.7349075 58
3.4694941 -4.0149193 1.6532835 59
3.4824646 -3.8117716 1.7471892 63
3.5183744 -3.1795347 1.6890546 69
3.5206435 -3.1484544 1.7825588 71
3.5368631 -2.8688898 1.7150798 58.666668
3.5496712 -2.6372073 1.7444605 52
3.5648813 -2.438776 1.7853822 60
3.5649986 -2.3756866 1.7417623 51
3.5863335 -2.1319489 1.7327462 62
3.5933094 -2.0314348 1.6957201 62
-1.9403683 -1.5637286 1.7396554 24
-1.9245464 -1.4009771 1.7432894 32
-3.9765227 -1.2683305 1.7579302 1
-1.9229211 -1.254692 1.7054811 27.666666
-4.3149595 -1.1308175 1.7485651 0
-1.9089251 -1.1638038 1.6756419 37
-3.9432464 -0.97051197 1.7261552 56
-1.9021823 -0.99402499 1.7032222 36
-3.9830368 -0.78843069 1.7130607 22
-2.5575552 -0.84579819 1.6544358 29
-2.4129305 -0.83453488 1.6910406 25
-2.2735465 -0.86098403 1.7213162 24
-2.0963225 -0.86436188 1.7897481 25
-1.9389961 -0.85767764 1.7180296 26
-3.9281373 -0.68144488 1.7052163 6
-2.13556 0.84925508 1.7985824 78
-2.8779764 1.0089673 1.7860981 43
-2.7552483 0.96423268 1.7952938 44.5
-2.6324501 0.94492108 1.7969617 78
-2.1187069 1.019397 1.7917837 72
-2.0501685 1.0200237 1.7977376 78
-2.5418718 1.1905756 1.7869464 82
-2.3296597 1.1909302 1.7954508 83
-2.1828721 1.1100203 1.7930988 75.666664
-2.0799212 1.1930739 1.7920524 79
-1.7325 1.1210711 1.7953556 81
-1.6443429 1.1025543 1.7986883 86
-1.4900339 1.1577696 1.7997705 77
-1.2853755 1.1883878 1.7962474 82
-2.1506772 1.2590444 1.793565 75
-1.9910934 1.2413074 1.7951366 84
-1.7447189 1.2714239 1.7937235 70
-1.5852506 1.2805097 1.7955225 78.800003
-1.4519479 1.3188014 1.7938205 79
-3.3690252 1.4766067 1.7855197 41
-3.2517269 1.4372624 1.7908036 37
-3.077723 1.4838609 1.7833098 85
-2.975934 1.4487553 1.7699369 84
-2.7777774 1.4602041 1.7777905 78.666664
-2.6671081 1.4091492 1.7828135 79
-2.5281529 1.4219781 1.7839578 79
-2.3058412 1.4306546 1.7897314 78
-2.1685495 1.4390424 1.7866026 77.666664
-2.0362914 1.4282671 1.7906288 76.333336
-1.6780622 1.4200294 1.7921269 78.5
-1.549149 1.4690659 1.7916069 78.400002
-1.4091607 1.486122 1.7916449 80
-1.2365451 1.3589259 1.7947389 82
-1.1294934 1.4081359 1.7959603 74.666664
-1.0163318 1.3993148 1.7969822 72
-4.1131792 1.5077848 1.6521286 14
-3.6449692 1.5576501 1.786167 33
-3.5013001 1.5195322 1.7904269 42
-3.2815249 1.5188944 1.7837366 60
-2.8728268 1.5506855 1.7789451 83
-2.6714091 1.6448398 1.7763032 74
-2.1664658 1.5996978 1.7867354 79.5
-2.0615478 1.6371671 1.7850462 83
-1.9210832 1.6391943 1.7812046 73
-1.5608399 1.5741403 1.7858553 81.5
-1.0950236 1.5598273 1.7868307 68.5
-0.96696758 1.5469427 1.7924919 69
-0.84069663 1.6499532 1.7892338 38
-0.67361164 1.5831839 1.7961198 71.333336
-0.54018575 1.5959585 1.7976475 59.5
-0.39129555 1.5950263 1.7980731 63
-0.26710799 1.6099914 1.7979274 77
-0.062195241 1.6231076 1.79722 70
-3.946424 1.768878 1.7031687 38
-3.7671664 1.7734524 1.7043725 99
-3.546957 1.7103295 1.7885286 70
-3.381989 1.7809385 1.7700359 56
-3.269242 1.7282943 1.7730106 90
-3.0698228 1.762019 1.7735101 76
-2.9613791 1.7409149 1.7573472 80
-2.7697623 1.7335294 1.7697695 65.666664
-2.6467309 1.6835457 1.7677497 83
-2.5001085 1.6565436 1.7718822 77
-2.2706802 1.67746 1.7776681 70
-2.1459849 1.6658534 1.7768084 79
-2.0618091 1.6886094 1.7825303 68
-1.5682464 1.6992429 1.7789391 62.25
-1.436033 1.7015705 1.7806379 55.75
-1.1043779 1.7117774 1.784777 31
-0.96646577 1.7024722 1.7922717 27
-0.63310307 1.7392725 1.7899324 27
-0.53984118 1.7206548 1.7927721 31.4
-0.37674773 1.7415059 1.7954065 52.25
-0.2169778 1.7207634 1.7932661 73.199997
-0.073985703 1.7374763 1.794942 72.166664
0.081251606 1.7576244 1.7958564 72.5
-4.0548286 1.8617617 1.6954957 65
-4.026763 1.8772386 1.7070302 56
-3.7121856 1.8861574 1.7693604 91.666664
-3.5057986 1.8603377 1.773405 38
-3.2739556 1.814923 1.7697684 44
-2.8634083 1.8443838 1.7751261 39
-2.6752634 1.9227698 1.7674457 46
-2.4746373 1.9082519 1.7652296 38
-2.1511686 1.8865649 1.7769524 44
-2.0192156 1.883199 1.7793275 35.5
-1.8835435 1.8585292 1.7821499 34
-1.5827363 1.9017433 1.7682158 72
-1.4435476 1.8842946 1.7765268 55.25
-1.3000487 1.8381658 1.7797769 32
-0.95904195 1.8524234 1.7809775 46.400002
-0.83111006 1.8437332 1.788287 41.333332
-0.49492586 1.8728174 1.7877026 62
-0.3649253 1.9173592 1.7895734 59.75
-0.18351763 1.8194674 1.7886428 69
-0.07155294 1.8723431 1.7909895 69
0.049638629 1.8734474 1.7960989 67.5
0.17627849 1.8957685 1.796278 66.333336
-3.7400231 2.0723948 1.7236711 99
-3.5639243 2.038944 1.7794279 76
-3.3039315 2.0508363 1.7651492 67
-3.0687551 2.0631661 1.768037 80
-2.9605625 2.0633283 1.7588986 83
-2.7569935 2.0240126 1.7605767 72.333336
-2.6234827 1.9552256 1.7614487 64
-2.0628519 2.0122035 1.7717867 69
-1.8317512 2.0829139 1.7738529 66
-1.4506097 1.9895945 1.7730383 71.5
-1.2801094 2.0478024 1.775358 65
-0.92161703 2.035717 1.7759539 59
-0.81582677 2.0378032 1.77873 56.799999
-0.69447625 1.9553541 1.7827479 58
-0.37149173 2.0218086 1.7869856 59.75
-0.21632612 2.0564871 1.7904295 58.333332
-0.0066057621 2.0431049 1.7892326 65
0.076670088 2.0098135 1.7895629 64.285713
0.22363722 2.0132587 1.7902882 65
0.3183164 2.0634842 1.7898781 60.5
-4.0700741 2.2196076 1.6625408 44
-4.0066543 2.1559758 1.7102588 54
-3.7477403 2.1542003 1.7380348 101
-3.5105863 2.2050242 1.7594016 70.5
-3.4131687 2.1207495 1.764896 67
-3.2796493 2.1409426 1.764985 77
-2.8416862 2.1524897 1.7652439 72
-2.6377735 2.2348187 1.7568313 76
-2.4387608 2.1710355 1.752653 79
-2.1414211 2.1833596 1.767655 70.5
-2.0305245 2.1847479 1.7699213 65.333336
-1.9442227 2.1277103 1.7699364 66
-1.515142 2.1440969 1.7721802 70
-1.4016905 2.1368368 1.7734214 70.25
-1.3493683 2.2408478 1.7720519 69
-1.1619384 2.2334397 1.7767698 61
-0.78921324 2.1739068 1.7753813 60
-0.67569286 2.1735222 1.7753428 55.333332
-0.23895209 2.1765537 1.7840229 57.833332
-0.068981417 2.1786268 1.7897135 60
0.13005893 2.1696937 1.7878674 61
0.23408797 2.1673951 1.7871929 61.142857
-4.0575457 2.2547183 1.6888822 58
-3.6874475 2.2737017 1.7430307 83
-3.5849631 2.3965187 1.7716113 71
-3.0628302 2.3861866 1.7611281 70
-2.9340577 2.3958805 1.7450093 62
-2.7396727 2.3183732 1.7562742 73.5
-2.0281885 2.3320165 1.7688202 74
-1.887508 2.3894343 1.7659367 74
-1.7733312 2.3214216 1.7667209 70
-1.4267054 2.3865829 1.7642165 59
-1.3026549 2.3339515 1.7693356 58.75
-0.81954002 2.2834456 1.7690057 54
-0.69847208 2.3251536 1.7734133 56
-0.53966749 2.3240767 1.7755293 55.5
-0.1596259 2.375864 1.7851416 60
-0.11649838 2.311651 1.7808856 58.75
0.054154411 2.326535 1.7870849 58
0.27995944 2.2968068 1.7888409 63
0.32605433 2.3045373 1.7870322 59
-4.0002532 2.535526 1.6786059 53
-3.7183688 2.4471679 1.680831 86.5
-3.3894882 2.4474034 1.756883 64.5
-3.2760081 2.4880285 1.7545303 71
-2.790905 2.4435468 1.7607477 65.5
-2.4050331 2.4630797 1.7481402 72
-2.1217654 2.5166857 1.7547883 74
-1.9979486 2.4562776 1.7625078 74.5
-1.2998476 2.4625578 1.7672406 57.5
-1.1147721 2.4746857 1.7670307 52
-0.6483593 2.4636996 1.7703767 56.666668
-0.58544403 2.5149162 1.7737159 54
-0.3994219 2.4703927 1.7748965 59
-0.020849038 2.4769206 1.7823895 61
0.0244908 2.485033 1.7827164 60
0.19279653 2.482028 1.786741 59.5
0.85036552 2.4837904 1.7821451 52
0.94323617 2.5230117 1.7799473 50.5
-3.9249108 2.559181 1.6848546 23
-3.8944213 2.5676484 1.669212 16
-3.6908994 2.6697826 1.7271535 77.5
-3.526536 2.5883155 1.7527521 64
-2.7200084 2.6596544 1.7494476 60
-2.6247997 2.5619211 1.7531492 69
-1.970368 2.6266956 1.76237 74
-1.8112701 2.6541197 1.7497321 3
-1.7101198 2.5864346 1.7655655 6
-1.2476064 2.622299 1.7571691 23.799999
-0.97509462 2.6616693 1.7613472 58
-0.52904445 2.6140463 1.765703 54.5
-0.44888917 2.5539787 1.7739235 55
-0.27330261 2.6561399 1.7690433 56
0.11101519 2.5839188 1.7831649 56
0.16906017 2.6404421 1.7795454 61.333332
0.34701431 2.6393988 1.7830552 59.5
0.84694821 2.6140277 1.7798691 54.5
0.98754847 2.6301548 1.7767507 49
1.1347046 2.6316781 1.7750419 48.5
1.2307653 2.6622822 1.7813765 47
-3.6199672 2.7979245 1.7682401 72
-3.3821154 2.8030496 1.7511903 60
-3.0525241 2.7344196 1.7500385 64
-2.907479 2.7616143 1.7352234 61
-2.7402151 2.7505331 1.7530369 63
-2.3661189 2.7792513 1.742644 82
-1.9792037 2.732456 1.761892 8
-1.9294856 2.7273183 1.7549139 3
-1.0477281 2.7475338 1.7571844 53
-0.48718038 2.7256196 1.751853 47.666668
-0.35289171 2.8029945 1.7608153 53.666668
0.22259557 2.7242591 1.7789735 59
0.34628251 2.7837257 1.7732868 60
0.5182116 2.8012443 1.7773669 55.5
0.86038619 2.7489121 1.7722689 57
0.98249108 2.7475216 1.7733458 54.75
1.114225 2.7702627 1.7784882 51
1.2870915 2.7559972 1.7706536 50
1.4129932 2.7422469 1.780856 45.5
1.6142547 2.8439474 1.7838894 45
1.7570063 2.7979605 1.7258587 42.666668
-4.0321736 2.9746926 1.6635045 85
-3.5152032 2.9443188 1.7462308 59
-3.2716951 2.8689387 1.7435912 58
-2.7876396 2.8505273 1.7530597 60
-2.6776209 2.9316182 1.7478646 56
-2.5212653 2.8960485 1.7368025 66
-2.0601256 2.8558276 1.7590305 11
-0.92402184 2.9938171 1.7433835 65
-0.86069709 2.8957901 1.7508703 66
-0.37016708 2.9159603 1.7582612 58.5
-0.22528657 2.9661059 1.7575541 61.5
-0.13211022 2.8554237 1.7647871 64
0.36767671 2.8782301 1.769485 56.666668
0.51344675 2.9391518 1.7717019 56.333332
1.1305357 2.8917892 1.7685939 49.666668
1.2731278 2.8770003 1.7776657 49.25
1.4501917 2.9690056 1.7815926 49.75
1.5308418 2.9018841 1.7771908 45.5
1.8056403 2.976469 1.7123594 44
-3.9934006 3.0247812 1.6745106 64.5
-3.6811137 3.09233 1.7025994 75.5
-3.5126894 3.0199709 1.7381831 63
-3.0447471 3.124686 1.7408682 61
-2.7100492 3.1363618 1.7444547 58
-2.6857128 3.02634 1.7352577 61
-2.3151052 3.1226599 1.7340344 62
-1.0032191 3.1150522 1.7445301 58.5
-0.30818218 3.001138 1.7575384 56
-0.2003694 3.0846043 1.752799 56.333332
0.028756034 3.0643499 1.757105 63
1.3766147 3.0499637 1.7696136 45
1.5473959 3.0342526 1.77838 48.5
1.7155616 3.0719407 1.7790486 49.599998
1.8170002 3.1099839 1.738767 46
-3.6449039 3.2323046 1.7548379 76
-3.4216855 3.2454317 1.739422 60
-3.266634 3.2920909 1.7322093 63
-2.8784952 3.1685328 1.7276605 63
-2.748075 3.2496603 1.745767 63
-2.4680796 3.265399 1.7242974 65
-1.0651143 3.2169216 1.7401503 56
-0.9846468 3.237999 1.7453034 58.5
-0.784392 3.2780454 1.7414061 62
-0.73103231 3.1576314 1.7466348 64
-0.20992953 3.1740277 1.7527133 56
-0.12551531 3.2431149 1.7529069 57
0.01818661 3.2409787 1.7541685 52.5
1.6271873 3.2441244 1.7647607 49.5
1.7783375 3.1840734 1.7765123 52
1.8195136 3.1724365 1.6516346 36
-3.9144723 3.4481871 1.682422 19
-3.4948616 3.3499331 1.7326082 64
-2.6556568 3.3936682 1.7324538 31.5
-0.9337377 3.3517377 1.7444993 63
-0.85664034 3.4259763 1.7424521 63
-0.58089024 3.4410434 1.741305 65
-0.059117693 3.3332264 1.7473897 51
0.031030051 3.4254024 1.7541218 54
0.21874921 3.3643956 1.7572278 58.5
1.8278561 3.316288 1.6633037 39
-3.6643221 3.5608082 1.7178174 86
-3.5451758 3.4700553 1.7280388 60.5
-3.0326526 3.5630889 1.7314113 64
-2.8205144 3.5966783 1.7043592 3
-2.6748803 3.5213172 1.7389183 3.5
-0.90291262 3.5467973 1.7367786 58
-0.83543265 3.5669193 1.7375401 47
-0.62080234 3.5725911 1.7293552 44
0.071142361 3.5684137 1.7360626 0
0.23400505 3.5364375 1.7407211 2
-3.6398134 3.6896179 1.7199868 85
-3.4576144 3.7428851 1.7210568 19
-3.2325432 3.7332916 1.6994678 23
-0.76871902 3.6296082 1.6986293 16
-0.67361075 3.6570444 1.6801187 26
-3.4596393 3.7886114 1.676174 11
-0.40746349 3.771611 1.7470306 18
-0.4306314 3.9021342 1.7222518 57
-0.45389172 4.1265388 1.743029 60
-0.21323314 4.9175029 1.7985388 49
0.072625384 4.8855877 1.7967662 50
0.32220346 4.8942046 1.705551 49
-0.079462141 5.248539 1.7948519 39
0.10001107 5.1426687 1.7968601 45
0.37151265 5.1476555 1.6991659 4
0.14178647 5.3027124 1.7891787 40
0.12173341 5.4345059 1.7938045 40
0.42913741 5.4184451 1.6948463 34
0.24374928 5.5962582 1.6860698 35
0.35910636 5.6054583 1.6977898 35
0.47613335 5.6113429 1.6968907 32
0.48652208 5.7229671 1.6828445 35
0.13881569 5.862133 1.7831427 27
0.78748316 5.8716817 1.757058 1
-0.48891005 6.2171259 1.7649795 37
0.53425837 6.3732629 1.6793832 2
0.83909947 6.5766811 1.7913908 0
-0.49399415 6.6247835 1.7480892 77
-0.48733491 6.83287 1.6603476 33
-0.13928285 6.7595401 1.6630369 32
-0.61924601 -4.5081673 1.9415566 43
-3.9341974 -4.4045639 1.909707 34
-3.0677195 -4.491262 1.9454547 20
-2.7287371 -4.4957027 1.9361123 49
-0.44598266 -4.4874835 1.9486548 15
3.4329014 -4.3965411 1.9149245 48.333332
3.445715 -4.3359842 1.8587041 58.5
-4.1304522 -4.1774092 1.9192637 32
-0.86307222 -4.0928082 1.9298314 20
-0.69007814 -4.0930433 1.9394697 10
-2.8358419 -4.0001054 1.9347113 2
-2.5627389 -3.9735398 1.9213797 24
-2.3295565 -3.9524946 1.9211937 24
-1.4042188 -3.9777977 1.9304608 29
0.31492096 -3.9270434 1.9174508 43
0.45142126 -3.9150062 1.9311768 53
0.84312814 -3.9601426 1.9377769 55
1.0230877 -3.9751556 1.9309002 59
-2.3337946 -3.8361545 1.9362512 43
-1.4020867 -3.8055127 1.9340004 52
-0.46030268 -3.8453245 1.9456173 7
0.57423949 -3.8839312 1.9311105 54
0.63679099 -3.8284621 1.9370949 55
0.78315228 -3.8240271 1.9297904 52
1.8954213 -3.7773836 1.937816 49
2.0580711 -3.8727808 1.9307051 36.5
2.1657913 -3.8292634 1.9376732 47.333332
2.3252912 -3.7721858 1.936545 42
-2.4339626 -3.6683853 1.9262594 57
-2.1410232 -3.6241744 1.8990432 64
-1.9333882 -3.6436605 1.9049925 59
-1.7326686 -3.6526496 1.9040223 53
-1.5548662 -3.6505077 1.9083196 59
-1.4519334 -3.6729586 1.9269096 54.5
-1.0681661 -3.7056742 1.9123942 56
-0.89640099 -3.7111399 1.9160291 27
-0.73723042 -3.7486031 1.9398333 1
-0.46858063 -3.731812 1.9350179 0
0.045012604 -3.678272 1.9351839 55
0.18617044 -3.6652684 1.9412688 58
0.31583738 -3.6487777 1.9460272 65
0.55335104 -3.6495998 1.9280673 50
0.73000568 -3.7146211 1.9249622 58
1.7226804 -3.6684639 1.9229306 51
1.8513179 -3.6408865 1.9259983 49
2.5214758 -3.7270541 1.9375437 42
-2.4329541 -3.5537658 1.9230896 44
-2.3617406 -3.5096922 1.932446 27
-1.5231164 -3.5075936 1.9311589 50
-0.6477927 -3.4765148 1.9351822 1
0.34204012 -3.5107541 1.9498831 52
0.49010092 -3.5099475 1.9197742 50.5
1.3156379 -3.5245357 1.9196769 56
1.4372191 -3.468704 1.9201726 51
1.5260986 -3.5136311 1.9298159 53
1.7393472 -3.5512187 1.9304522 54
1.9497139 -3.570961 1.9250933 51
2.1568952 -3.5693927 1.9299623 48
3.1304903 -3.5117097 1.9426986 35
3.4940286 -3.5487862 1.8652369 63
-2.4580443 -3.3723505 1.9369124 2
-1.6829988 -3.3119853 1.9023131 62
-1.5449212 -3.375469 1.9188915 48.5
-1.2499591 -3.3731878 1.9095145 51
-1.077871 -3.3907049 1.9112772 24
-0.19798107 -3.3874655 1.9162368 54
-0.055156682 -3.3784881 1.9191664 58
0.081773713 -3.395242 1.9401332 76
0.23399633 -3.3492541 1.9375283 64.5
0.31205761 -3.4066381 1.9461781 54
1.0165009 -3.3491006 1.917648 54
1.1076074 -3.3084788 1.917847 52
1.4145234 -3.3341212 1.9232317 50
1.5789375 -3.4177761 1.9233085 53
1.8267846 -3.4116058 1.9211546 57
2.6824024 -3.3372369 1.9343358 46
3.0872183 -3.3400228 1.936061 38
3.2329378 -3.3471391 1.9451381 29
3.3853812 -3.3146484 1.942784 34
3.5058203 -3.4486687 1.9318999 64
-1.6082829 -3.2741826 1.9154721 53
0.10326262 -3.1766837 1.9354558 33.5
0.23929377 -3.2357647 1.9090837 60
0.74192113 -3.1668208 1.9117945 56
1.190412 -3.2752039 1.9177035 49
1.2690572 -3.2569058 1.9266547 44
1.5320162 -3.2616551 1.9175509 55
2.2921679 -3.1678512 1.9278837 45
2.7635338 -3.223753 1.9386085 34
2.9424236 -3.1878934 1.9310193 35.5
3.2813785 -3.1834271 1.9288301 29.5
3.5011451 -3.2990501 1.8409826 65
-3.2585292 -3.1054211 1.9153293 1
-1.7371371 -3.0078359 1.9056673 62.5
-1.6313894 -3.1045547 1.9182708 55.5
-1.4025507 -3.0556631 1.9000183 39
-1.2358255 -3.0942676 1.9074603 13
-0.40948418 -3.1251671 1.9053103 46
-0.26451224 -3.1271284 1.9075087 58
-0.071182787 -3.1156299 1.908473 62
0.049327731 -3.0402024 1.9070681 44
0.84329599 -3.1337657 1.913113 55
0.95959067 -3.0806217 1.9178699 56.666668
1.1044569 -3.0920501 1.9197882 52
1.2631247 -3.111994 1.9119347 52
1.9498281 -3.0039005 1.9225019 51
2.1935942 -3.0005116 1.9197134 49
2.3218846 -3.0541525 1.9236765 48.5
2.4798026 -3.081583 1.928341 46.5
2.5884533 -3.0711849 1.925591 43.666668
2.8444355 -3.1130764 1.9270617 38
2.9305861 -3.0911222 1.929763 36
3.1844301 -3.1335602 1.9221214 25
3.3888116 -3.0272422 1.9369074 37
3.5219586 -3.1123581 1.8634785 65.333336
-1.7230676 -2.9442258 1.9040347 60
-0.59699875 -2.884711 1.9018911 40
-0.37984154 -2.9031618 1.9051224 61
-0.19085692 -2.8968551 1.9055341 68
-0.089943856 -2.9000289 1.910109 59.5
0.49492449 -2.9845576 1.9029733 60
0.65286678 -2.9427557 1.9046804 58.5
0.83137137 -2.9043446 1.9075998 56.333332
1.0198239 -2.9635773 1.9057223 57
1.6529571 -2.8522789 1.923628 50
1.9183049 -2.9173832 1.9140519 50
2.0151157 -2.9351957 1.916821 48
2.1735916 -2.9798424 1.9194546 48
2.2684107 -2.9117186 1.9167222 47
2.7055252 -2.8902805 1.9258219 42
2.9610696 -2.902024 1.9350505 42
3.0085332 -2.9265897 1.925083 41
3.3223057 -2.9524765 1.9331431 36.5
3.5305738 -2.8684819 1.8387849 39
-1.9040254 -2.7333987 1.9047407 1
-1.717026 -2.7764974 1.9052343 46
-0.13417354 -2.8236766 1.8986013 65
0.27220029 -2.8033516 1.8933223 64
0.38791585 -2.7856548 1.8983475 60
0.53464687 -2.751308 1.8997581 63.5
0.66061491 -2.7645042 1.9034733 53.666668
0.79600006 -2.8175359 1.9004439 62
1.3872141 -2.7278721 1.9034687 52
1.5614071 -2.7528725 1.9127622 48.666668
1.7195621 -2.7971992 1.9151446 50.75
1.852105 -2.7744908 1.9171016 48.5
1.9822416 -2.8189728 1.9132487 46
2.1369424 -2.7718868 1.9143521 50
2.2907424 -2.7207184 1.9214066 46
2.4076073 -2.8311551 1.9162108 45
2.5992045 -2.7973881 1.9240364 40.5
2.7673783 -2.71065 1.9301552 42
3.0983896 -2.7651203 1.9334313 40.5
3.4558873 -2.8066926 1.936008 34
-2.4438965 -2.5554287 1.8781868 41
-2.2547603 -2.6276548 1.8879968 39
-1.8256913 -2.6449592 1.8966833 3
-1.7707902 -2.6954396 1.8991634 43
-0.76311016 -2.6593461 1.9001988 37
-0.61296952 -2.6831548 1.9004751 57
-0.47125083 -2.6983032 1.9007674 61
-0.32953668 -2.6585166 1.898549 62.5
-0.26434797 -2.660404 1.9050409 61.333332
0.072228208 -2.638937 1.895214 65
0.19490249 -2.6240804 1.896093 58
0.37951294 -2.5814304 1.8970438 63.666668
0.51702863 -2.6341875 1.9024086 58
1.1530957 -2.6285782 1.9019793 55
1.2804309 -2.5849636 1.9073476 54.666668
1.4398285 -2.6639454 1.9051871 51.666668
1.6421503 -2.6300008 1.9062299 48
2.0026844 -2.5974584 1.9206287 50
2.1766968 -2.569921 1.9186883 45.5
2.3325825 -2.6148891 1.9184691 46.5
2.457788 -2.6421232 1.9227777 46
2.620791 -2.572505 1.9183012 44.5
2.9081793 -2.598896 1.9212668 39
3.2158453 -2.6150947 1.9257678 31
3.4912083 -2.6136091 1.9282087 34
-2.6521182 -2.5253668 1.8944248 47
-2.4722972 -2.4520147 1.901534 42
-0.90810865 -2.4362986 1.8926338 47
-0.75993502 -2.4770322 1.8986093 51
-0.61614257 -2.5011258 1.8981208 59
-0.47330236 -2.4734013 1.897954 60
-0.40848437 -2.4541996 1.902793 63.666668
-0.10720654 -2.4718695 1.8924509 64
0.079213068 -2.4594972 1.8934311 62.5
0.26389763 -2.4205391 1.8976722 64.333336
0.35868078 -2.4938378 1.8964289 64
0.69492924 -2.4327662 1.8952376 56
0.89867026 -2.5392144 1.8959507 59
1.0038511 -2.4886279 1.898031 56
1.0928924 -2.4661705 1.9028249 58.25
1.2305205 -2.4879098 1.8981614 55
1.4177681 -2.5493414 1.9014157 52
1.728857 -2.4642069 1.9126843 49
1.877883 -2.4551945 1.9102719 45.599998
2.0706372 -2.4681888 1.9124861 43.5
2.1731529 -2.4626043 1.9143753 43
2.3171754 -2.5031478 1.9130429 44.5
2.4559965 -2.4338827 1.9182569 44
2.6347919 -2.4671113 1.9137627 41
2.8344116 -2.4950914 1.9127585 43
2.9471743 -2.4252024 1.9160219 39
3.1183929 -2.4876113 1.9243432 41
3.2194359 -2.4127202 1.9237686 39
3.3908105 -2.4499171 1.9237672 31
3.4809906 -2.5466352 1.8694621 35
-2.5296459 -2.3736794 1.8933741 37
-1.245924 -2.3276794 1.8913442 7
-1.15746 -2.3244286 1.8968536 6
-0.8896696 -2.2743526 1.892156 58
-0.68070495 -2.3211839 1.8944215 64
-0.55355483 -2.2547207 1.89239 61.5
-0.27048361 -2.2984047 1.8816789 63
-0.076967888 -2.3055854 1.8887621 63
0.10705371 -2.2809401 1.9060988 46.25
0.19654162 -2.3465009 1.9020699 54.5
0.55020589 -2.304522 1.894487 59
0.71126699 -2.2530093 1.8965648 59
0.8524828 -2.3376362 1.8960557 55.666668
0.97573507 -2.3859687 1.8988471 56.5
1.2737329 -2.28369 1.9179211 35.5
1.4390038 -2.3227022 1.9106239 43
1.5760505 -2.3505499 1.904357 49.75
1.6938181 -2.3786552 1.9059869 47
1.9841988 -2.3831553 1.9075278 47
3.5323696 -2.3597369 1.8986055 52.5
-1.5350358 -2.1418805 1.8786618 33
-1.3903875 -2.1916132 1.8803707 43
-1.2335486 -2.1039474 1.8926803 37
-1.0401574 -2.2324255 1.895785 50
-0.86098385 -2.1262021 1.8849357 64
-0.72907829 -2.1527314 1.8860575 61
-0.54329729 -2.2484677 1.8909115 61
-0.4168224 -2.137037 1.8787538 65
-0.21830159 -2.1541295 1.8832592 62
-0.034329437 -2.1201489 1.8844588 69
0.0097522559 -2.1104851 1.8891977 67
0.37787965 -2.1865134 1.8878534 62.5
0.55839831 -2.123446 1.8913838 65.333336
0.70214373 -2.2082541 1.8942615 62.75
0.83730704 -2.1324244 1.8969525 62
1.0157069 -2.1494839 1.8958178 55
1.1053858 -2.1669989 1.9018654 52.666668
1.2458634 -2.2223618 1.9023637 46.666668
3.5820158 -2.2255695 1.8266827 62
-2.1197634 -1.9534177 1.8604885 12
-1.8675983 -1.9818702 1.878661 16.5
-1.6865532 -2.0655401 1.8726369 30
-1.4796616 -1.9952314 1.8809167 74
-1.2952694 -2.076534 1.8870913 38.333332
-1.1520288 -2.0202096 1.8824524 58
-0.98464805 -2.0142748 1.8821698 56
-0.83225113 -1.9899027 1.8830603 65
-0.66181499 -2.0693712 1.889256 64.5
-0.54925519 -1.980033 1.879223 71
-0.41176468 -1.9987425 1.8762993 64
-0.19772497 -1.9956999 1.8799272 74.75
-0.12118757 -1.9543022 1.8834975 72
0.020874064 -1.9648893 1.8816952 71
0.21980253 -2.0670516 1.8804643 63
0.39997944 -1.9916755 1.8839518 63
0.52654314 -2.0573039 1.8864093 62.5
0.68695039 -2.0088375 1.8863152 61.333332
0.84364909 -2.0277774 1.8932127 60.166668
0.93867308 -2.0649853 1.8982025 62.333332
-2.022471 -1.8737619 1.8749208 6
-1.9278932 -1.9386746 1.8774863 4
-1.7718093 -1.8469508 1.8729893 63
-1.6184541 -1.9255354 1.8685805 66
-1.3990864 -1.8588809 1.8784275 65
-1.2967352 -1.8653036 1.8839641 65.333336
-1.1084448 -1.8942862 1.8813871 61
-0.92588061 -1.8296791 1.8801919 63
-0.79330552 -1.8993649 1.8809774 68
-0.71003002 -1.8647081 1.8838235 69
-0.52924782 -1.8551408 1.8776561 67
-0.35101455 -1.8641917 1.8757049 76
-0.26250169 -1.8396368 1.874208 81
-0.11478963 -1.8439455 1.8791612 70
0.08057718 -1.8606375 1.8778304 68.333336
0.24847655 -1.8861709 1.8820499 68.75
0.359348 -1.8520441 1.8833367 67.599998
0.55470556 -1.8935212 1.8842114 62.666668
0.66198331 -1.8857173 1.8869623 64.166664
0.76400477 -1.9416898 1.8899273 59
-1.9628429 -1.6893058 1.8516027 26
-1.9252396 -1.7431008 1.8682721 51.5
-1.6969846 -1.7247716 1.8657793 66
-1.5547374 -1.797567 1.8702615 68
-1.402709 -1.6765133 1.876525 70.666664
-1.1299543 -1.7476208 1.8776323 65
-0.95879894 -1.7051709 1.875288 74.5
-0.81697631 -1.7031323 1.8759959 75
-0.63447315 -1.7043663 1.8686622 69
-0.50047445 -1.7399572 1.87472 69
-0.3643142 -1.7000059 1.8735415 80.400002
-0.23030628 -1.7590972 1.8750546 74.5
-0.048238143 -1.6989202 1.8695434 76
0.086752698 -1.7133114 1.8731849 74.400002
0.20506358 -1.7492154 1.8770672 76
0.36633816 -1.7040223 1.8791027 73.333336
0.50228107 -1.7600005 1.8834791 69.75
-1.8414083 -1.629024 1.8625139 64
-1.7647103 -1.5286171 1.8612541 70
-1.6247286 -1.6125147 1.8654212 70
-1.4975903 -1.6467863 1.868652 70
-1.311651 -1.5832099 1.8695567 74
-1.1125989 -1.5655258 1.8666782 70
-0.94714183 -1.5636578 1.872413 72.333336
-0.8723048 -1.5242307 1.8700917 73.5
-0.73125839 -1.5639899 1.8691343 78
-0.51889217 -1.5800602 1.8703554 80.400002
-0.39479876 -1.55259 1.8738414 80.333336
-0.22586979 -1.6010809 1.8723739 70
-0.064442948 -1.5684263 1.8720876 77.333336
0.07626918 -1.5760388 1.8725476 76
0.22095792 -1.5754547 1.8750358 73.333336
0.35190931 -1.6018171 1.8775367 81
-1.9263602 -1.4627361 1.8252553 42.333332
-1.6897784 -1.4342175 1.8626007 72
-1.5358577 -1.4636976 1.867036 68
-1.4116932 -1.4470201 1.8673822 73
-1.217793 -1.4518006 1.8653287 76
-1.1115882 -1.3936104 1.8647976 79.5
-0.96956134 -1.3859638 1.8680037 74.75
-0.81655914 -1.4213461 1.8635372 78
-0.63698131 -1.4401817 1.8650743 76.666664
-0.49763167 -1.4241701 1.8675538 76.25
-0.3547394 -1.4094905 1.8658034 71.666664
-0.21156649 -1.4136622 1.8662866 72.14286
-0.07860399 -1.4344289 1.8702708 72
0.10099329 -1.4130889 1.8711836 69.5
0.20660031 -1.4558599 1.8726945 81.5
-1.8224392 -1.3351786 1.8518802 64
-1.7457242 -1.2576588 1.8554274 68
-1.5594631 -1.2825216 1.8574644 71
-1.4752173 -1.2852726 1.8611689 69.5
-1.2512552 -1.2616409 1.8600429 57
-1.107157 -1.2547281 1.8620235 66
-1.0193413 -1.2313963 1.8713964 43.333332
-0.80987906 -1.2623338 1.8627125 55
-0.659437 -1.2833301 1.8624563 58.75
-0.5423094 -1.2867404 1.8685473 53.75
-0.35981429 -1.2653909 1.8701289 39
-0.22118652 -1.277401 1.8704568 35.714287
-0.053061686 -1.2805178 1.8723265 36.599998
0.063768648 -1.292029 1.8701731 47
-3.8360748 -1.169646 1.845251 54.5
-3.6693342 -1.1487092 1.8545884 42
-3.5409327 -1.0917782 1.8600757 42
-1.9000539 -1.1721435 1.825318 55.5
-1.7319156 -1.0807425 1.8475593 53
-1.5510319 -1.1138562 1.858672 31.25
-1.3841095 -1.1694977 1.8617128 32
-1.2747189 -1.0879641 1.8589114 34
-1.1285505 -1.0934658 1.8632791 38.25
-1.0025914 -1.1148 1.8657 34.5
-0.80918717 -1.0961604 1.863389 57.75
-0.66192007 -1.1456405 1.8691374 34.25
-0.51194578 -1.1076655 1.8610628 57
-0.37681562 -1.1312076 1.8603835 33.75
-0.24499866 -1.1253754 1.8616563 29.375
-0.080581285 -1.1301553 1.8673555 30
-3.9097879 -0.99839479 1.8422648 55
-3.6043668 -0.99229497 1.8491322 77
-3.548594 -1.0272532 1.8684416 55
-3.3879251 -0.93033922 1.8462335 63.5
-3.2712505 -0.9360714 1.8389059 77
-3.084368 -0.94022065 1.8561326 75
-1.8751467 -0.93763006 1.8314112 65
-1.5909905 -0.94116914 1.8538584 71.25
-1.4362231 -1.0077839 1.851903 65
-1.2883264 -0.9507224 1.8575578 82
-1.1367474 -0.94229031 1.8602877 83
-0.98870468 -0.98581392 1.8556961 89.5
-0.83119935 -0.96481669 1.8579336 94.199997
-0.67528969 -0.97162294 1.8566819 84.666664
-0.5276556 -0.97307998 1.853721 66
-0.38227701 -0.98313171 1.8525409 54
-0.219629 -0.95726109 1.853862 43.25
-0.14136429 -1.0470787 1.8715626 55
-3.8638623 -0.87178564 1.8402478 94
-3.6397603 -0.81361151 1.8477761 82.666664
-3.4802525 -0.7740463 1.8300837 83
-3.2398362 -0.82109052 1.8496777 76
-3.1052921 -0.83313096 1.8365897 81
-2.9017119 -0.84189868 1.8449746 65
-2.6531885 -0.82406271 1.8360007 47.5
-2.5284266 -0.77325374 1.8322781 74
-2.1941376 -0.80278492 1.8479739 70
-2.0369112 -0.82533246 1.8349694 62
-1.8878973 -0.75161535 1.8440815 71
-1.6970706 -0.82826364 1.8473516 72.5
-1.5672511 -0.82131404 1.8534616 74
-1.4116948 -0.8228479 1.8535194 76
-1.2433703 -0.7952072 1.8550724 83
-1.1204572 -0.8302567 1.8605481 91
-0.95265311 -0.82400507 1.8573672 99.666664
-0.80780047 -0.81464505 1.8512844 82.25
-0.66727394 -0.82226497 1.8524293 74.5
-0.51887846 -0.83314663 1.8513216 70.75
-0.39886913 -0.82117623 1.8532019 60
-0.24994329 -0.83292449 1.8540856 51.75
-3.9062788 -0.68952316 1.8262211 97
-3.455852 -0.7257666 1.8460172 83
-3.3760884 -0.66868353 1.8392209 27
-3.0797141 -0.69127715 1.8428599 78
-2.955462 -0.73980433 1.840057 76
-2.7975078 -0.69463098 1.8406731 64.5
-2.6357412 -0.65062189 1.8436447 70
-2.4246914 -0.71237421 1.8354141 72
-2.2783837 -0.73128855 1.8402761 73
-2.1772549 -0.6522311 1.8436652 69.333336
-2.0531182 -0.6594221 1.8410748 67
-1.7520736 -0.72077984 1.8450915 73
-1.6087631 -0.67999476 1.8488171 70.5
-1.453681 -0.67952168 1.8508357 76
-1.2816833 -0.64841503 1.8502488 83
-1.1587855 -0.67034537 1.852687 89.75
-0.97810543 -0.67544615 1.8451149 77.5
-0.82157868 -0.6727522 1.845808 82.666664
-0.66456783 -0.66778791 1.8458176 76.777779
-0.52187955 -0.67460656 1.8458756 73
-0.37077537 -0.66547835 1.8485651 66.199997
-0.29002407 -0.7069183 1.8484663 55
-3.6950402 -0.577061 1.8470839 5
-3.2020645 -0.5790838 1.8431801 5
-3.0901828 -0.4532876 1.8430406 7
-2.9619431 -0.5540005 1.8396395 39.5
-2.8149924 -0.47441778 1.8389667 61
-2.6197884 -0.54250526 1.8391751 74
-2.4625521 -0.51794147 1.8323539 73
-2.3024533 -0.52195907 1.833346 74
-2.1609571 -0.47254288 1.8379098 74.666664
-2.0765533 -0.54237801 1.8450066 70
-1.9239768 -0.58617955 1.8381974 77
-1.7104623 -0.54259938 1.8462723 72.25
-1.5779766 -0.52649784 1.8470994 72
-1.4088404 -0.51825547 1.8484713 75.5
-1.264985 -0.51346534 1.8446201 77.666664
-1.1424959 -0.51283312 1.8418276 74
-0.98863268 -0.53132665 1.840255 75.800003
-0.81874508 -0.51590091 1.8411074 81.875
-0.65894288 -0.51048213 1.8429261 81.333336
-0.52544588 -0.5276581 1.8450142 79.714287
-0.39728868 -0.50137007 1.8454548 72
-2.7482207 -0.40225899 1.83565 8
-2.6059158 -0.35821024 1.833984 8
-2.5025308 -0.32443264 1.8353502 10
-2.3277869 -0.31549293 1.8321556 69
-2.238008 -0.40377775 1.8407832 70
-2.0266263 -0.40645757 1.835029 80
-1.8099772 -0.37116498 1.8415712 81
-1.7059764 -0.37601829 1.8409227 79
-1.6020579 -0.37276617 1.8427657 76.666664
-1.4380448 -0.37426376 1.8454531 87
-1.273447 -0.36271659 1.8367065 76.75
-1.1158094 -0.3510648 1.839462 73.5
-0.96492654 -0.37486196 1.8371328 77.166664
-0.80110008 -0.37483087 1.8388035 77.285713
-0.68074572 -0.39010909 1.8403236 76.625
-0.54112685 -0.37576413 1.8418846 79.199997
-0.40754583 -0.37969804 1.8447107 72
-3.4547083 -0.20586632 1.8262593 2
-2.251852 -0.20716891 1.835266 66
-2.1796029 -0.27996162 1.831314 80.666664
-2.0493298 -0.23408192 1.8337439 77.333336
-1.8286259 -0.19566122 1.8374239 82
-1.708329 -0.21626759 1.8390251 81
-1.5729413 -0.22776759 1.8417026 86
-1.4089532 -0.2060532 1.8375179 94
-1.2926354 -0.22492757 1.8320165 80.75
-1.148675 -0.21193214 1.8364795 75.199997
-0.96959138 -0.22336943 1.8412646 60
-0.81050485 -0.2306785 1.8369726 77.375
-0.68712932 -0.22247051 1.8365934 76.5
-0.54255342 -0.24646692 1.8428594 76
-0.43665233 -0.25870401 1.8413986 76.5
-2.2842677 -0.066430829 1.8260154 74.666664
-2.1465662 -0.089460343 1.8333007 55.333332
-2.0665836 -0.050222259 1.8472047 34.5
-1.8433582 -0.020184344 1.8348647 67
-1.7321078 -0.073394574 1.8360785 79.666664
-1.589955 -0.081354804 1.8396784 87.333336
-1.4229608 -0.057439514 1.8353037 101
-1.2840391 -0.063631631 1.8307915 81.5
-1.1376423 -0.085847043 1.8344759 80.666664
-0.97561711 -0.084216371 1.8395498 61.400002
-0.82676858 -0.076087266 1.8328562 73.916664
-0.67362773 -0.069193467 1.8343191 81.400002
-0.54360104 -0.078037731 1.8367146 75
-2.36257 0.097969718 1.8301526 14
-1.6921735 0.047850925 1.8340682 78.5
-1.6015412 0.064456977 1.8360361 85.666664
-1.3790379 0.074556582 1.8276325 90.333336
-1.2417698 0.082834534 1.8271528 81.25
-1.1099169 0.085898198 1.8278694 78.5
-0.98761618 0.057389893 1.8264097 79
-0.82393157 0.073510587 1.8291057 78.5
-0.68334538 0.082873218 1.831223 78
-0.54541785 0.071314193 1.832406 82.833336
-1.6078577 0.2131663 1.8311414 83.333336
-1.3840746 0.22129649 1.8322066 99.666664
-1.2495927 0.23375511 1.8216611 72.25
-1.1280875 0.23444048 1.8244658 78.5
-0.98666126 0.22085248 1.8250953 76.75
-0.82771873 0.22143669 1.825582 75.916664
-0.69296223 0.22361967 1.8288981 78
-0.55924624 0.21175551 1.8297596 83.714287
-2.1675882 0.44525993 1.817468 76
-1.7158151 0.3808229 1.8219389 72.666664
-1.6088229 0.36383924 1.8252478 83.666664
-1.3932619 0.39222878 1.8257294 100.5
-1.2808124 0.37273589 1.8225064 81.25
-1.1489466 0.34860131 1.8215276 72.333336
-0.97294676 0.38615438 1.8205478 76.199997
-0.83606994 0.37219444 1.8208557 75.199997
-0.67583126 0.37944335 1.8231525 78.75
-0.55134881 0.37827983 1.827042 77.875
-2.2938318 0.54193443 1.8076916 78.333336
-2.1667767 0.48193145 1.8127378 86
-2.0717039 0.50992799 1.816342 87
-1.8407159 0.51281828 1.8181697 87
-1.7234561 0.52289474 1.8195245 82.25
-1.6063662 0.51692241 1.8213342 83.333336
-1.3820968 0.54376245 1.8220663 91.5
-1.2723019 0.51132143 1.8202496 85.75
-1.1307427 0.523965 1.8196099 75.800003
-0.99493331 0.50785846 1.8170948 74.666664
-0.81312317 0.52721047 1.8177788 72.272728
-0.68254316 0.5264352 1.8180273 74.714287
-0.53758603 0.53794533 1.8203138 74.5
-2.321137 0.73986506 1.8155879 54.5
-2.1670778 0.66308415 1.8105526 64
-2.0667391 0.64812815 1.8094674 87
-1.8250726 0.69508702 1.8085726 78
-1.703422 0.67257744 1.8158966 86.333336
-1.5995287 0.67316753 1.8176541 89.333336
-1.3947752 0.70669943 1.8207153 85
-1.2736362 0.65943396 1.8186697 93
-1.1472831 0.67584908 1.8219721 91
-0.97983253 0.67244446 1.8169543 66.599998
-0.8148241 0.67521411 1.8186456 63.25
-0.66601092 0.68657798 1.8167479 74.285713
-0.52847236 0.68498629 1.8171786 76.25
-0.4339726 0.64926744 1.8147521 83
-2.2524724 0.78814238 1.8105289 56
-2.1420848 0.82598418 1.8041221 61
-2.0635209 0.83277798 1.8077165 80
-1.8055131 0.88164312 1.8033606 77
-1.7375906 0.77866721 1.8094839 91.5
-1.5988765 0.8227942 1.8089613 85.5
-1.3667991 0.86539805 1.8140491 91
-1.2682095 0.79173625 1.8150654 91
-1.1475669 0.82200176 1.8163252 88.333336
-0.96367824 0.82971132 1.811856 79
-0.8326391 0.81167954 1.8231947 58.400002
-0.69434547 0.80846834 1.815169 72.5
-0.52833247 0.84018493 1.816276 73.666664
-0.387252 0.83155066 1.813369 79
-2.3109689 0.9592824 1.810571 57.5
-2.2205491 0.9527992 1.8099933 53.5
-1.6984726 0.94516331 1.8034058 85.333336
-1.5805647 0.98820227 1.806126 84.75
-1.2777328 0.96182942 1.8099651 86
-1.1372306 0.95493859 1.8133034 84.25
-0.96281564 0.96726918 1.8137122 87.5
-0.81212628 0.97134829 1.8136415 81
-0.67243463 0.97279024 1.8150346 81.400002
-0.5168938 0.98378378 1.812459 71.5
-0.39292374 0.99262929 1.8126211 66.333336
-1.6823039 1.1073264 1.8017107 71
-1.5714461 1.1301823 1.8016171 78
-1.2367051 1.1016593 1.8048935 83.5
-1.1420785 1.0886726 1.8052582 80
-0.9602887 1.1042782 1.8126928 83
-0.83682108 1.1531628 1.8125099 81.333336
-0.6895352 1.1355029 1.8168908 81.5
-0.51133263 1.1289109 1.8138072 84.714287
-0.36299151 1.1123996 1.8190581 78.800003
-0.25583839 1.1771082 1.8174361 79
-1.1346565 1.2483653 1.8039933 76.833336
-1.0033859 1.2331574 1.8058532 73
-0.80363292 1.2893707 1.8078271 72.75
-0.66974682 1.2787842 1.8100359 74
-0.54190987 1.2720194 1.8120071 76
-0.37218118 1.2697246 1.811708 73.5
-0.2489713 1.2757056 1.818033 67.5
-1.0327975 1.3694547 1.8000058 76
-0.79835421 1.4443452 1.8024837 72
-0.68469274 1.4186437 1.8034014 69.199997
-0.51114118 1.4452794 1.8074032 69.599998
-0.37213784 1.4328688 1.8054101 70.5
-0.23028769 1.4246854 1.8078357 73.166664
-0.11220774 1.4385064 1.807292 75
-0.64962465 1.5163273 1.8032442 69
-0.55664188 1.5279574 1.8036121 68
-0.43540868 1.5384209 1.8004006 71
-0.22292498 1.5497711 1.8037992 74.25
-0.10119551 1.5815337 1.8063279 69.5
-0.48289341 1.6592571 1.8008534 28
-0.086320266 1.6783166 1.8036442 73.5
-0.24948736 1.8700584 1.8000442 61
-0.1993127 4.2433105 1.8032945 55
-0.51483285 4.3825555 1.8396579 9
-0.42729369 4.4468365 1.8265458 63
-0.20334877 4.4686985 1.8095671 57
-0.47369167 4.65873 1.8104528 50
-0.36519879 4.7191496 1.8035344 52
-0.23408759 4.7301817 1.806657 54
0.05236889 4.6620526 1.8044719 53
-0.16506474 4.8508029 1.8065759 52
-0.20090559 5.2185941 1.8010083 42
0.031560045 5.2904849 1.8027078 41
-0.33092037 -4.965148 1.9502608 21
-0.15804087 -4.9412732 1.9644736 1
-2.9928813 -4.6504416 1.9507667 14
0.037596416 -4.7543111 1.9768587 0
3.4222908 -4.6909313 1.951938 66
-0.23582675 -4.2699389 1.9619433 6
3.0808189 -4.3126912 1.9635478 19.666666
3.2289588 -4.1931348 1.9559602 33
3.3758907 -4.0464854 1.9548312 32
0.42053968 -3.6263149 1.9505934 52
