# .PCD v0.7 - Point Cloud Data file format
VERSION 0.7
FIELDS x y z intensity
SIZE 4 4 4 4
TYPE F F F F
COUNT 1 1 1 1
WIDTH 1845
HEIGHT 1
VIEWPOINT 0 0 0 1 0 0 0
POINTS 1845
DATA ascii
0.34014589 -3.6895709 -0.1632168 124
0.10630532 -3.2695 -0.17198637 0
-0.48319334 -1.831939 -0.18754752 1
-0.36351839 -1.9028269 -0.19219184 4.3333335
-0.24732918 -1.8761814 -0.18077761 1
-0.14326896 -1.9178336 -0.16776054 1
0.055742126 -1.8589913 -0.18116099 0
-0.16623427 -1.7094353 -0.1840959 1
-0.50287014 -1.5055916 -0.15807159 14
-0.38246828 -1.5038986 -0.16160557 15.5
-0.21011622 -1.5737479 -0.1799244 8
-0.51401776 -1.4981521 -0.16657847 14.5
-0.39564368 -1.4998034 -0.19892554 14
-0.21496944 -1.499006 -0.17600757 15
-0.08682999 -1.4973438 -0.17761144 13.25
0.059890386 -1.4030296 -0.18970835 2
3.192271 -1.4049069 -0.17414033 86
-0.4598785 -1.2411475 -0.17547062 11
-0.18717256 -1.30057 -0.15907884 12
-0.10193259 -1.2571839 -0.16948172 5
1.2274742 -1.290114 -0.18753465 26
-0.48056668 -1.1408691 -0.18632312 11
0.065382764 -1.136901 -0.18510188 3
-0.50377202 -1.0329217 -0.17349407 18.75
-0.35266849 -1.0380152 -0.17099875 20.375
-0.21816987 -1.0312473 -0.16954009 16.555555
-0.054834448 -1.0277668 -0.17523634 3.5
0.046908703 -0.97345233 -0.17060192 7.3333335
0.055221859 -0.83396608 -0.18561465 5
0.073563017 -0.7026369 -0.17867288 8.6000004
0.2288373 -0.67524308 -0.17416574 8.75
0.38189092 -0.68586427 -0.17160378 6.6666665
0.52765834 -0.68378603 -0.17275831 3.5
0.74589008 -0.71556371 -0.17823488 0
0.88889378 -0.7268213 -0.1941067 6
1.223302 -0.68194246 -0.1680178 83
2.6645622 -0.70810342 -0.18776086 99.5
0.8304897 -0.56851643 -0.18081801 12
3.1785154 -0.17221595 -0.15806204 91
3.1776299 -0.099927381 -0.16660435 93
3.1764865 0.058596503 -0.17661832 91.5
3.1718416 0.25494245 -0.1832079 91.5
3.1837986 0.41937971 -0.18938042 16
3.1788008 0.48843294 -0.17140022 15
3.1725349 0.65419918 -0.1699767 13
3.1736159 0.82603621 -0.16910729 13
0.71714658 1.0300578 -0.17927003 9
0.83430582 1.0271113 -0.16392791 10
0.95946926 1.0260289 -0.1875421 52
-0.66887611 1.1309903 -0.1670444 8.7142859
-0.53912812 1.177785 -0.18676251 7.6666665
0.68273121 1.1565051 -0.18432085 22.666666
-0.91341895 1.3427056 -0.16709067 8
-0.76550353 1.2176375 -0.16918325 5
-0.41071165 1.2160866 -0.18386887 10.333333
0.67526037 1.2771415 -0.16085751 39.333332
0.67182922 1.7695824 -0.17657404 47
0.66348332 2.1794362 -0.17384489 46
0.66680437 2.3671501 -0.15563558 44
0.65111357 2.9708071 -0.18403864 40
1.3636415 6.8907213 -0.16622309 47
0.36678767 -3.4421093 -0.13011047 24
0.078587696 -3.2990689 -0.054105315 1
-0.27407178 -1.501478 -0.14536171 14
-0.25539619 -1.4969418 -0.14866051 14.5
3.1845794 -1.254916 -0.041043196 87.5
0.95365161 -1.057142 -0.14454649 9
3.1783214 -1.0725931 -0.10385913 90
-0.63234848 -0.99559134 -0.10558184 6.5714288
-0.53199303 -1.0209568 -0.11849359 15.133333
-0.378885 -1.0169457 -0.11283215 12.833333
-0.23771763 -1.0012183 -0.11121564 10.6
-0.070860349 -0.99078721 -0.10701797 7.1666665
0.04102866 -0.99635386 -0.11801593 8.5
0.90825158 -1.0038619 -0.067190088 19
2.5273907 -0.95772725 -0.0053888606 20
-0.6340574 -0.82626396 -0.1037619 4.125
-0.51719993 -0.83570021 -0.10093901 4.818182
-0.37889725 -0.8227334 -0.098830745 4.5999999
-0.22404575 -0.79673517 -0.094025366 2.5999999
-0.0694291 -0.81344569 -0.084349081 3.375
0.043344159 -0.83265334 -0.10308474 4.25
0.61218554 -0.75416291 -0.074907489 2
1.2212847 -0.78176594 -0.12926906 9
2.6843085 -0.76767248 -0.046628736 66
2.7468843 -0.86523259 -0.087991104 27
-0.65253443 -0.69322103 -0.096224159 8
-0.52435738 -0.70396781 -0.093690924 7.75
-0.38854074 -0.70787531 -0.093831174 6.4000001
-0.22609168 -0.68353045 -0.090149201 5.25
-0.079614669 -0.68640548 -0.088677861 7.1111112
0.083804414 -0.6864112 -0.11204971 7.3157897
0.21328908 -0.67550313 -0.10984925 7.25
0.40158924 -0.67902482 -0.087235011 7.8000002
0.56724691 -0.65413368 -0.078715816 2.1538463
0.67325997 -0.64699614 -0.066775583 0
0.83832371 -0.65236753 -0.078802139 2
1.1978449 -0.67428428 -0.042594854 1
1.234246 -0.69342649 -0.086270288 9.25
2.6771426 -0.63132793 -0.064674608 43.5
0.57009953 -0.59410524 -0.016823506 0
2.6750152 -0.59185535 -0.12484271 150
2.7385607 -0.49420813 -0.072637148 44
3.0819235 -0.49670097 -0.028510964 145
2.8303838 -0.44402114 -0.14464292 61
3.1728752 -0.35427657 -0.061528716 79.666664
3.1752272 -0.2411724 -0.094611883 83.5
3.1739581 -0.070346259 -0.059285436 78
3.1758876 0.047534782 -0.065699346 77
3.1695385 0.20692113 -0.07044033 81
3.1779206 0.39529073 -0.069420211 22
3.1731799 0.56250077 -0.079842158 13
3.1689665 0.60653228 -0.0454011 13
-0.91470701 0.85776013 -0.094438396 1
3.1690292 0.81535244 -0.075673893 13
-0.90717238 0.98352557 -0.103052 5.4000001
0.71791983 1.0273956 -0.046504501 9.333333
0.82932717 1.0260071 -0.043340072 23
0.96023005 1.0276363 -0.062923349 53.166668
1.0698411 1.0265112 -0.090476491 2
3.1656594 0.99503171 -0.099909827 13
-0.90961498 1.1559695 -0.11102317 5.1428571
-0.66165417 1.1530982 -0.073414564 9.1999998
-0.53480595 1.1796727 -0.077142946 9.8000002
0.68132973 1.0900303 -0.081381567 9
1.6393721 1.1526022 -0.097918786 55.5
1.6518633 1.1343002 -0.063064344 60
-0.73937917 1.2028416 -0.089789532 6
-0.52242601 1.2220768 -0.13406201 11
-0.39193058 1.2554127 -0.060754605 13.3
0.67450273 1.2618686 -0.10554143 26.6
1.61075 1.2101392 -0.076340266 22
-0.91424078 1.3882389 -0.12741385 15.166667
0.66969365 1.4149631 -0.073463432 48.333332
0.66405833 1.5791372 -0.025655745 38.75
0.6687963 1.680424 -0.075885333 59.5
0.66479307 1.9343108 -0.065069027 51
0.66636097 2.0516768 -0.10259078 40.5
5.1704793 1.9724569 -0.1259824 104
0.66725278 2.1828735 -0.14503662 53
5.1662188 2.1227877 -0.12206752 100
0.6537869 2.3315096 -0.067687511 30
5.1639848 2.3402245 -0.047703449 100
0.65094292 2.4796319 -0.063052721 36
5.1567445 2.4872184 -0.041631524 101
0.6529144 2.599005 -0.033519093 124
0.6450994 2.7823853 -0.035277549 26
5.1543126 3.1827383 -0.1252172 114
-0.26329142 3.503643 -0.041143123 16
0.61344343 3.5143745 -0.037650678 9
5.1391377 3.5685165 -0.013342564 108
-0.016048986 5.3660784 -0.11002088 1
0.087297693 5.3171029 -0.084929027 11
-1.2076443 6.870162 -0.13073494 6
0.72269398 6.8717031 -0.037066106 67
1.0182086 6.8748422 -0.021473175 96
1.0889751 6.888268 -0.13877822 50
3.1820183 -1.4135561 0.091317937 79.5
3.1866159 -1.2979428 0.064683281 85
-1.1259977 -1.1494011 0.13806826 9
-1.0477587 -1.1396226 0.14157158 17
0.71518463 -1.1068228 0.14489478 1
3.1838593 -1.0908613 0.049036972 77.5
-0.05982079 -0.95928472 0.052338894 10
2.6589487 -0.79889303 0.054799046 18
0.55515724 -0.60084009 0.033213522 0
0.68960196 -0.61904162 0.080796264 0
0.8239435 -0.6250149 0.09067075 1.2
0.97505939 -0.62629277 0.083130457 1.25
2.6480892 -0.66105205 0.09430407 32.142857
0.54683679 -0.58950853 0.087081902 0
2.6804976 -0.49670029 0.094877936 39
3.0232782 -0.48797098 0.13356411 123
2.7104537 -0.44786632 0.027386868 42
3.1701431 -0.35828191 0.10952309 82.5
-1.088243 -0.1643568 0.10727146 3
3.1703441 -0.1909955 0.081524529 80
-1.0861657 -0.08336316 0.071381867 0.40000001
3.1733968 -0.062254447 0.081463516 81.333336
-1.0896279 0.035098031 0.084464096 0
3.1708033 0.069006413 0.057759311 78.666664
3.1684122 0.20750208 0.067234904 82.333336
3.1711469 0.37203598 0.06172289 38
3.1704719 0.53394979 0.061332267 13.666667
3.1666651 0.67656595 0.072912224 13.333333
-1.3964748 0.76314235 0.1436995 5.5
-1.2389886 0.78278536 0.11877549 0
-1.1365405 0.79080319 0.08603052 0.27272728
3.1636064 0.819673 0.086766787 13.333333
3.1614285 0.95196515 0.085939653 13.666667
-0.67370272 1.1665168 0.070043713 7.125
-0.52732706 1.1753889 0.066493258 10.923077
0.67233336 1.112416 0.0023349179 9
0.83660001 1.1522744 0.048797902 10
1.0165805 1.0797929 0.038269963 69
1.0702308 1.0982347 0.1228065 60
1.4536245 1.1661847 0.12189528 70
1.6282443 1.169529 0.093474805 51.666668
1.660033 1.1566654 0.11723711 43
1.8253281 1.1614604 0.12024952 23.5
3.1587834 1.0575014 0.054314729 8
-1.3793678 1.2837588 0.10477791 61
-1.3355979 1.3248905 0.12992334 115.25
-0.38843125 1.2416052 0.053551666 19.571428
0.67752719 1.3429724 0.013178433 46
1.0624075 1.2372861 0.10967603 49
1.6870391 1.2508005 0.02302658 141
-1.354089 1.3567429 0.10726347 20
-1.2863598 1.4541323 0.11821556 2
-1.1259198 1.4547769 0.095442049 1.875
1.777384 1.3828008 0.10434224 45
0.8886767 1.9112306 0.10837846 31
5.1733427 1.8517638 0.14729065 84
0.81245261 1.9793963 0.082093321 27
5.1641436 2.0387812 0.055371709 95.5
5.1561427 2.3357265 0.08044403 97
5.1591554 2.7246592 0.050101545 104
0.94467372 2.986608 0.12643325 51
5.1517043 2.8703163 0.057596769 106
0.76058537 3.2625635 0.077518605 99
-0.20484641 3.5977643 0.079056464 12
0.66916049 6.8884468 0.10834192 123
0.95552248 6.892673 0.097778611 130
1.0699283 6.8996058 0.043451186 119
1.2078245 6.8004689 0.10234778 71
-0.40158737 -1.3673089 0.25146234 0.5
-1.1069984 -1.2312737 0.25406316 16.666666
-0.99519509 -1.2306416 0.18962236 6
-0.7509501 -1.2428471 0.16029465 1
-0.52065116 -1.3370756 0.2159602 1
-0.06077528 -1.2881253 0.23406792 4
3.179307 -1.296155 0.21145231 74
-1.2493478 -1.1415662 0.18019989 35.5
-1.1422423 -1.1771741 0.21933042 23.333334
-0.037132513 -1.1672093 0.24917707 8
0.069413155 -1.1681054 0.2200596 6.1428571
0.56667954 -1.1440845 0.20460808 1
0.66812378 -1.1237631 0.17313334 1
3.1806197 -1.1003093 0.18260059 76
2.6430697 -0.92574805 0.21479478 60.5
2.6111624 -0.76872605 0.24393339 28
2.712801 -0.84742886 0.20662433 23
0.8071956 -0.6040023 0.16034055 4
0.95746464 -0.61629558 0.1826306 2.25
2.6240029 -0.61713541 0.24395546 32
0.90292245 -0.59785646 0.21327931 3
2.7267475 -0.47603688 0.24792062 28.666666
3.1675272 -0.36765239 0.2704494 77
-1.2603055 -0.23914315 0.26612955 1.75
3.1671405 -0.18944782 0.24316099 77.5
-1.2523258 -0.039362375 0.25545499 0
-1.1363356 -0.089111298 0.15722662 2
3.166914 -0.011886891 0.22528726 76
-1.2569851 0.058829404 0.24984451 0
3.1682267 0.038150292 0.29829755 74.5
3.1652117 0.19269526 0.2533308 73
3.1694169 0.3747316 0.2551145 31.25
3.1655707 0.52891099 0.22332704 16
-1.3010886 0.72837496 0.18695967 0.85714287
3.1732121 0.71579027 0.24129909 17.5
-1.3728448 0.82333219 0.26661766 2
-1.2935073 0.81908613 0.25963873 1.25
-1.1719565 0.81739551 0.2003417 1
1.0726377 1.0431935 0.23178059 17.666666
3.1602871 0.94623852 0.22894312 15
-1.370149 1.1772875 0.22450268 150
-0.66565961 1.1821172 0.2027487 6.5714288
-0.52931267 1.1832277 0.22223403 8.833333
1.0682291 1.1206679 0.23289593 52.333332
1.6338015 1.1153598 0.26486191 28.333334
1.7284273 1.1350359 0.22246857 32.333332
3.1427288 1.0858741 0.21910134 2.5
-1.4047384 1.2472653 0.20192401 87.444443
-1.3077645 1.29477 0.20724617 97.555557
-0.76969564 1.2841352 0.29646742 19
-0.70384324 1.2555692 0.23829263 7
-0.48412639 1.2032682 0.26262635 12
-0.40128309 1.2559464 0.23586492 18.272728
1.060517 1.2728745 0.2413753 53.285713
1.4378291 1.2076156 0.21031195 10
1.5995045 1.2029732 0.23945566 79
-1.2711054 1.3961579 0.21214849 24.5
-1.1761416 1.4613578 0.15732288 2
-0.33408809 1.3984036 0.26257861 0
1.0543329 1.4484915 0.19726737 35.333332
0.99558187 1.6151857 0.20901017 17.75
1.0605578 1.5518271 0.18213536 40.666668
1.0155019 1.6652844 0.272854 21
0.79646176 1.9058719 0.23065892 32
0.91257769 1.9033257 0.15513647 26
5.1608458 1.8889896 0.25683206 10
0.78741163 1.9787955 0.1881814 24
1.0034533 1.9886768 0.22343034 44
5.1553912 2.1821647 0.2003513 101
1.0377431 2.4975815 0.24293664 60.5
5.155654 2.4861436 0.22669801 94.5
1.0399241 2.6111493 0.25963217 50.5
5.1475658 2.750773 0.22428471 99
1.0203224 3.0208497 0.17363369 43
5.1556678 3.1083717 0.22039878 104
0.8119489 3.2261622 0.25193533 57
0.75672597 3.3648903 0.21641862 90
-0.24809603 3.5533581 0.26708347 5
0.58328694 3.5329094 0.29307663 4
0.6734069 3.5049903 0.20216334 81
0.77425295 3.4583273 0.1583094 84
-0.22064802 3.6067092 0.16377497 9
1.283601 6.5295944 0.153247 31
0.30007374 6.879694 0.20560229 132
0.61164349 6.8785429 0.23377448 115
3.1701922 -1.3730664 0.4486239 70
3.1727686 -1.2740711 0.38329524 63.5
0.067885235 -1.1439039 0.30561286 0
3.1712222 -1.1696333 0.36133468 102
2.5712795 -0.90680605 0.3595477 58.666668
2.6309371 -0.81705368 0.39803427 46.5
2.5368795 -0.69105512 0.33130127 60
2.6272612 -0.66043299 0.3409698 22.666666
2.7029355 -0.74830949 0.43951768 84
2.6582563 -0.5531376 0.3747153 49.666668
2.7240648 -0.48477164 0.39998221 66.5
2.91377 -0.43978962 0.32250375 24
3.1562412 -0.36342487 0.38806382 88.666664
-1.3244147 -0.19608173 0.37042144 5.8000002
3.1629145 -0.21763247 0.35669562 75.5
-1.2794254 -0.071775071 0.36014766 0
3.1643417 -0.061709303 0.35005096 71.666664
-1.3524243 0.14111309 0.40998983 0
-1.2737345 0.062862068 0.36862883 0
3.159338 0.12925591 0.3579368 70
-1.3647624 0.1884522 0.38571525 3
-1.3476973 0.18449488 0.41461557 7
3.1581531 0.27307123 0.40504387 75
3.1582124 0.31359011 0.34956193 79
3.1646659 0.49730459 0.34309337 13
-1.4260474 0.74968636 0.31181568 1
3.1615553 0.66039944 0.34586167 11.5
-1.2314121 0.82361436 0.30428034 2
3.1582134 0.81256461 0.37402758 11.666667
-0.60744238 1.0347991 0.36854446 6
-0.53680217 1.0301623 0.38035509 3
-0.40222308 1.0453788 0.39128393 3
1.0714477 1.0360577 0.37221321 6
1.6323371 1.0410613 0.42566413 2
3.1480937 0.99270982 0.42258886 15.5
3.161397 0.96728718 0.36351717 14
-0.64003652 1.1964594 0.35889181 8.666667
-0.52388138 1.1933913 0.33002064 8.666667
-0.42349625 1.0879829 0.37611535 2.5
1.0611525 1.1382682 0.38012761 53.200001
1.6288829 1.1596775 0.38454247 35.333332
1.7269833 1.1354518 0.36322767 4
3.1208096 1.1167182 0.39424765 5
-1.4597411 1.298682 0.33241099 61
-1.2657752 1.2969059 0.32300454 13
-0.7616933 1.2439874 0.37337038 7
-0.52999794 1.2057526 0.38066754 8.8571424
-0.37747896 1.2096417 0.34308439 1
-0.29225546 1.3336515 0.39454743 42.5
1.0578817 1.2775148 0.38780755 41.444443
1.5828327 1.2668202 0.37273541 59.57143
1.6555463 1.2426113 0.32836235 66
-1.4450183 1.4340582 0.35977757 49.5
-0.30068362 1.3691026 0.36408448 1
1.0546709 1.429263 0.37419915 48.857143
1.0470061 1.5933331 0.39249554 48.333332
0.85575712 1.9015683 0.42695129 62.5
1.0489334 1.8884373 0.34369239 60.666668
1.0537004 1.8844057 0.3827661 56.333332
1.045686 2.0228918 0.42643714 54
5.1624465 2.0076811 0.3175416 102
0.85461241 2.219691 0.40200895 152
5.1534548 2.2085149 0.32970309 91
5.1541586 2.3412476 0.37040263 106
5.1443925 2.5394776 0.41850919 94
5.1557937 2.6956434 0.44214815 109
1.0319548 2.7740788 0.34507662 45
1.0242139 2.9373019 0.44036597 43
5.1539536 2.9003267 0.36039722 99
1.0297863 3.0241039 0.4272933 41
0.90769988 3.2221041 0.30800527 65
0.76429588 3.3797698 0.44561768 8
-1.7368392 3.5159137 0.37754226 30.75
-1.5837221 3.5203426 0.32203913 11
-0.23407388 3.5810122 0.31077385 6
0.59235519 3.5270832 0.38303035 0
0.69781935 3.5058513 0.42811331 88
5.1376209 3.5426145 0.31372285 104
5.1343837 3.6831868 0.31854272 104
0.25694227 6.8808556 0.35815668 118
0.55979228 6.8938847 0.36289656 76
0.65536618 6.884172 0.32394344 96
0.81792063 6.8802586 0.37154847 118
0.96501452 6.889401 0.43031198 118
3.1752677 -1.4675959 0.46499532 68.5
3.1712976 -1.2809849 0.54497445 66
3.1465139 -1.0701979 0.55647314 150
2.584116 -0.9136067 0.56834984 14
2.6241713 -0.81572801 0.50396019 71.599998
2.6568253 -0.65117818 0.49430138 77.75
2.6941452 -0.57553786 0.53106666 62
2.8099444 -0.45907483 0.52521753 81
3.1465292 -0.38597471 0.54036814 87
3.156951 -0.39210987 0.5414117 86
-1.3178322 -0.21514963 0.49460956 2.5
3.147948 -0.19975531 0.55025214 51
3.1562567 -0.23952819 0.50151581 76.333336
-1.2766755 -0.070559517 0.503353 0.85714287
3.1583872 -0.068458676 0.49529946 73
-1.2869059 0.079194807 0.50946349 1.6666666
3.1568675 0.092500597 0.48335537 72.5
-1.3605375 0.24671815 0.52014077 5
-1.3171059 0.1763391 0.54753035 9.666667
3.1493638 0.26499054 0.4992401 74
3.1549544 0.24523798 0.48308063 73
3.1611843 0.42034459 0.48344648 12.5
3.1584685 0.57866871 0.50360519 12
3.1594505 0.65942997 0.51390076 12.5
3.1589589 0.79651028 0.52053857 11.75
3.1532156 0.94789749 0.52301544 13
1.0572591 1.1534555 0.48531222 50
1.3347836 1.1359448 0.52969384 5
1.4312905 1.1789465 0.52017754 41
1.595603 1.1313306 0.51757115 46.666668
3.1083834 1.1052756 0.54790711 2.5
-0.71019042 1.2295372 0.50534129 8.5
-0.5542286 1.2362106 0.58429635 3.5
-0.3385554 1.3205709 0.52970529 23
-0.29669368 1.3483753 0.55893975 2
1.048967 1.3086197 0.56964171 47.5
1.0558699 1.2792096 0.52261263 38.799999
1.5915816 1.2638363 0.49901673 101
1.6523906 1.2799025 0.51972902 73
1.0462328 1.4692674 0.53110516 47
1.0519929 1.3987656 0.5200997 46.5
1.0480711 1.5728183 0.48637319 47
1.0507454 1.5362357 0.50264168 48
0.76712388 1.7731509 0.52691162 66
1.0083945 1.738373 0.52767515 35
1.0501635 1.7670664 0.58897948 59
0.72583425 1.8816595 0.48614764 64
0.79665387 1.819984 0.54655546 96
0.97553205 1.8580278 0.48462033 88
5.1593943 1.8576254 0.46133089 95
0.71921879 2.0187404 0.55115205 82
0.82884234 2.0122457 0.502204 100
1.0302491 2.0516722 0.50417209 96
5.1564169 1.9968307 0.50337839 103.5
0.9728725 2.1080036 0.50044346 106.5
5.1567974 2.1883922 0.54326606 103
5.1487169 2.3162017 0.58834743 102.5
1.0325775 2.655226 0.50027198 47
1.0334132 2.7515938 0.47879833 43
1.0293313 2.8539124 0.45887607 38
5.1488123 2.8904319 0.52613753 97
1.0242636 3.1293199 0.50489891 40
5.15169 3.0693839 0.5295167 109
1.0161818 3.2404177 0.5803014 42
-1.99286 3.5168512 0.52150345 29
-1.8458282 3.5165033 0.49913386 28.5
-1.7417003 3.5235171 0.49381039 30
-0.23974699 3.551743 0.47039232 3
0.60234219 3.5092809 0.5911811 6
5.1325102 3.5824311 0.55078495 104
5.1277285 3.6861687 0.59390789 106
0.21212597 6.8754377 0.4908396 123
1.1085483 6.8749251 0.4735983 115
-2.3791277 -1.4054308 0.74379194 83
3.1669552 -1.448652 0.68595558 59.400002
3.165626 -1.232915 0.66732186 60
-2.381613 -1.190442 0.73991132 75
3.1484828 -1.0946265 0.73004949 50
2.6675043 -0.82431406 0.64113384 74
2.6711345 -0.68853158 0.63702708 106
2.7665043 -0.56924379 0.62480241 113.5
2.9822481 -0.4774116 0.66371441 150
3.1119854 -0.45459417 0.67872012 150
3.1542225 -0.32452452 0.67134148 76
3.1536753 -0.18972354 0.65354943 64
-1.2827364 -0.015103645 0.66707158 6.3333335
3.1445708 -0.091736302 0.6343984 53
-1.2820524 0.038020965 0.66141599 7
3.148912 0.11934125 0.62011087 53
3.1511986 0.0069310153 0.62554479 69
3.144922 0.16066541 0.61771655 30
3.151829 0.2763913 0.61587578 75
3.1493182 0.31694829 0.61966479 73
3.1645472 0.43698838 0.62190533 12
3.1588264 0.53696448 0.63113558 12
3.156636 0.63719022 0.64638603 12
3.152864 0.77989459 0.6589365 12.5
3.1443439 0.97713745 0.6483078 11
3.1511729 0.96510082 0.70173466 12
-0.50760674 1.1919888 0.67686534 23
3.096523 1.1167991 0.72596991 5
-0.52418238 1.2469075 0.6665777 20.4
-0.44971818 1.2199663 0.74126959 11
1.0490167 1.335606 0.64757562 44
1.6214283 1.2189624 0.61322105 117
1.0477958 1.442417 0.64956623 46
1.0446045 1.5578384 0.67691302 42.25
0.80624861 1.7126539 0.6566717 40.5
1.0460207 1.6953157 0.66811407 45.200001
0.71173555 1.9154518 0.62925649 37.5
0.76270097 1.8958762 0.66940022 37
1.0191032 1.8533398 0.71580935 85.333336
0.68851811 1.9853553 0.60968375 42
5.1480908 2.0563197 0.71185112 96
5.1472054 2.5264692 0.64209437 104
5.1460314 2.6487217 0.69086635 104.5
1.0272522 2.8900905 0.70120692 39
1.0206785 3.0670321 0.69923508 39
0.87821454 3.2813201 0.64826846 12
1.0185542 3.2771506 0.69884396 42
0.84721357 3.3215299 0.71264255 14
0.97869551 3.3527646 0.63557601 25.5
-1.9828789 3.5221734 0.64758909 27.5
-1.6824559 3.5165977 0.60722435 31
-1.548745 3.5206416 0.73177266 2
0.21116829 6.8796606 0.61798775 117.5
0.41539836 6.8677096 0.64105439 115
0.56251842 6.878336 0.68449473 115
0.70921105 6.8805332 0.71569657 109
-2.3715153 -1.8089675 0.85050869 68
-2.3769505 -1.3996568 0.84242773 70.333336
3.1681788 -1.3987114 0.79226631 53.5
-2.3824964 -1.2787079 0.82185274 73
3.1603408 -1.2693384 0.82085627 61.5
-2.5118003 -1.0619165 0.83172387 34
-2.3849165 -1.1600399 0.85089332 71
3.1558394 -1.1161915 0.86440885 56.5
3.1553817 -0.97431165 0.87245035 84
2.7524216 -0.69066656 0.8028729 52
3.1442232 -0.48063794 0.87490547 70
3.1445532 -0.38441569 0.87070113 71.5
3.1418869 -0.21182342 0.84230775 68.666664
-1.2590102 -0.077977225 0.78055918 3.2222223
3.1403861 -0.030438635 0.8172648 67.5
-1.3602196 0.094184011 0.79328203 2
-1.2863039 0.091221206 0.80952185 11.2
-1.1977172 0.029333664 0.7961787 5
3.140871 0.11035619 0.80705029 67.5
3.1391468 0.25279421 0.80280912 65.5
3.1464663 0.3750957 0.81240094 12
3.1620784 0.42183545 0.80721724 9
3.1560955 0.54541457 0.81903523 9
3.1449869 0.66614991 0.83996797 9
3.1513472 0.72034478 0.82367349 9
3.1459866 0.87393707 0.84227741 10
3.1519687 0.81623143 0.8652581 9
3.141798 0.99938142 0.87991118 9.5
-0.51998508 1.1697655 0.7909826 14.2
-0.61118311 1.213412 0.82440257 5
-0.5928424 1.2224295 0.78345668 7
-0.4289068 1.319029 0.8616538 1
1.0415286 1.5932201 0.8213129 43
0.7700907 1.7297691 0.80698997 73
1.0463008 1.7155584 0.82765937 44.833332
0.74857312 1.8273047 0.78212404 44
0.78464162 1.8594456 0.80710524 92.199997
1.0422077 1.8208358 0.88207525 43.5
5.1470685 1.9087832 0.86403006 96
1.0303912 2.0443065 0.891177 61
5.1502595 2.0427382 0.76220763 96
5.1422834 2.3694448 0.82655716 97
1.011205 2.7078745 0.8786782 150
5.1433835 2.8783889 0.76378083 106
0.79287726 3.2885425 0.75576603 12
-2.5535455 3.5109906 0.86303186 17
-2.3709483 3.5073099 0.87777835 5.5
-2.2246857 3.5222418 0.87211633 16
-1.9262561 3.5134795 0.78365684 26
-1.7138509 3.5236328 0.89317429 26
-1.6193342 3.5221829 0.85032749 29
0.72559905 3.5077391 0.86064231 73
0.77275723 3.4861987 0.75495064 13
-0.21824026 3.6111598 0.81048375 0
1.1488284 6.8891058 0.85677099 108
3.1829345 -2.6527634 0.94623768 60
3.1851835 -2.497813 1.0062042 59
-2.3758953 -1.8280253 0.96825051 64
-2.3780665 -1.7478836 0.97226834 69.5
-2.374573 -1.546319 0.98157924 51.666668
-2.3714852 -1.4594198 0.99115044 50
3.1663172 -1.4549117 0.94226259 54
-2.3808672 -1.3055564 0.97959936 60.599998
3.160413 -1.2904233 0.96775323 50.333332
-2.6454716 -1.0628276 1.0055363 4
-2.5398486 -1.0620788 0.90619469 26
-2.3821595 -1.1004645 0.94329149 22.333334
3.1597784 -1.1380492 0.94411063 53
3.1541286 -0.92979974 0.99839294 60
3.1507041 -0.86448574 1.0240737 150
3.1214631 -0.71295208 0.96349978 140
3.1530471 -0.62836415 0.91144705 69
3.149235 -0.57527721 0.93082631 72
-0.56597114 1.1643595 0.912678 3
3.0718217 1.0999349 0.9038111 0
1.0429666 1.7511469 0.95528853 49
1.0382365 1.8680161 0.96867228 41.833332
5.1472449 1.8226082 0.95012546 8
1.0298672 1.9890938 1.0442305 48
5.14569 2.1654754 0.95848012 96
5.1419907 2.4889193 1.0324448 99.5
5.1350231 2.689538 0.96718299 98
1.0210921 2.8257587 0.96617424 115
5.1344562 2.7103159 0.90123045 99
1.0173938 2.9181163 1.046682 34
1.0179701 3.2902281 0.93783391 43
-2.6047113 3.5067608 0.97733796 38
-2.5476084 3.5033433 0.95684433 32
-2.188379 3.5123925 0.97230184 27
-1.8508482 3.5249345 1.0163282 27
-1.7866677 3.521117 0.92357922 26
-1.5822142 3.5104358 0.96520782 2
-0.23308143 3.5936427 0.92620623 1
0.67286098 3.5118177 0.95524549 88
0.96417046 3.4993992 0.9428609 73.666664
0.024503898 6.874548 0.91428995 114
0.17142339 6.8817005 0.9439497 118
0.31639135 6.8873796 0.96080184 109
1.0841081 6.8907938 1.0012965 109
1.3494772 6.909121 1.010556 33
3.2014017 -3.3575737 1.1281694 53
3.1908886 -3.1219554 1.1110781 59
3.1904457 -2.922415 1.1249373 58
3.1873291 -2.7382772 1.1610823 64
3.1796527 -2.5717325 1.1285152 66
3.1760654 -2.4913957 1.1283337 57
-2.3758111 -1.8658164 1.1795967 25
-2.3782823 -1.6853317 1.0950265 63.666668
-2.378077 -1.5590758 1.1095231 44
-2.3821287 -1.4251598 1.1108508 31.200001
3.1676993 -1.4623245 1.0868328 52.5
-2.3865108 -1.2362022 1.0720336 2
3.15676 -1.2480936 1.1203585 48
-3.1174192 -1.0813359 1.1082939 10
-2.3851743 -1.1724783 1.0603075 3
3.1575437 -1.1267722 1.1030347 49
3.1527448 -1.0126899 1.0823854 57
-2.7920895 0.59217131 1.1760458 0
1.0331004 1.9132493 1.1024485 44.5
5.1532812 1.8274832 1.074542 87
1.0316037 2.0108025 1.1344403 39.25
5.1454601 2.0741165 1.1405075 99
5.146121 2.1231468 1.1558578 94
5.1468782 2.3591115 1.1852211 106
5.142313 2.475318 1.0878426 99.5
1.0265404 2.6433575 1.1255029 104
1.0183815 2.7439752 1.1469101 35
5.1430149 2.7684708 1.1496269 108
1.0166402 2.9256864 1.1799639 35
5.1372714 2.8763828 1.1698334 104
1.0159292 3.078474 1.108285 38
-2.4862816 3.5001383 1.1193901 20
-2.0050831 3.5223198 1.1099205 23.5
-1.8829546 3.5288367 1.1114322 22.5
-0.2555671 3.5818255 1.1548463 0
0.69639874 3.5173914 1.0544032 84
0.80340594 3.5201299 1.09621 85.5
0.91020292 3.523788 1.1357563 90
0.72325069 6.8883696 1.0945231 106
1.0210199 6.9031138 1.1314231 109
3.1838992 -3.4265447 1.3366379 58
3.1908023 -3.2065525 1.3262913 61
3.1893971 -2.9961286 1.3367404 64
3.1853528 -2.787312 1.3244541 65
3.1825976 -2.5358405 1.2600096 60.5
-2.3858633 -1.845028 1.2355275 52
-2.382163 -1.7614582 1.2929878 46.5
-2.3832092 -1.5345889 1.2499872 18.666666
3.1693013 -1.4538132 1.2579823 51.5
3.1674151 -1.3248965 1.2296249 53
-2.6358993 -1.0779208 1.3183912 9
-2.3878791 -1.0870078 1.221967 16
-2.749552 0.61244577 1.2182324 0
5.1427231 1.8999097 1.2379748 102
1.0302062 2.0656466 1.2533381 36.5
1.0253224 2.1700528 1.262176 36.200001
5.1363244 2.1685119 1.3164121 104
1.0227022 2.312247 1.2722924 36
5.1389585 2.3969414 1.2699194 97
1.0187148 2.4801121 1.2885342 63.25
5.1377597 2.4273999 1.2563003 96
1.0220995 2.6257446 1.3291609 35
5.1383271 2.6747575 1.2703408 107
5.1301494 2.7191443 1.2351462 99
1.0035727 3.2389929 1.283972 38.5
-2.1822066 3.5178216 1.2591499 27.333334
-1.8193995 3.5191731 1.2660027 30
0.67462385 3.5121806 1.2391925 78
0.30190516 6.8818712 1.3409414 105
0.67525542 6.8896203 1.2451982 111
0.95792669 6.8924136 1.2613589 103
1.0638657 6.8879237 1.3356335 96
3.1870685 -2.7888625 1.4387496 60
3.1754255 -2.5207882 1.3531451 59.5
-2.3964353 -1.2785084 1.440721 6.5
-3.0229635 -1.0902752 1.4711052 9
-2.7857509 -1.0793304 1.4274391 7
-2.4925747 -1.0644062 1.4474598 25
-2.3988934 -1.0867668 1.4513465 54
5.1375713 2.0505593 1.4097226 93.5
1.0231042 2.1942635 1.3838708 33
1.0202849 2.3315561 1.4563503 34.75
5.1351833 2.3120646 1.4697123 96
1.020833 2.4573402 1.4592701 34
5.132268 2.4456058 1.4082842 105
1.0196916 2.6780949 1.4058002 34
1.0106268 2.7352037 1.4792686 34
5.1415901 2.7304249 1.3863229 100
1.0115329 2.9505072 1.3738027 40
1.0074155 3.0843537 1.4287293 37
5.1283898 3.0079656 1.3743261 89
1.0036967 3.2279203 1.4747471 37
-2.4549575 3.5152049 1.4604101 28
-2.3089271 3.5106323 1.3522879 36
-2.1246629 3.5175462 1.4264239 21.5
-1.7690637 3.5113387 1.4145918 14
-1.5821277 3.5303528 1.4817166 1
0.98546439 3.5157311 1.419518 75
0.27192771 6.8867135 1.4979794 111
0.62578207 6.8903122 1.381997 98
1.2155318 6.8865705 1.3767934 99
1.3533527 6.8873196 1.4298224 52
3.1906891 -3.7716708 1.6046227 58
3.1769505 -3.4973826 1.548422 52
3.1860149 -3.2684586 1.5340053 55
3.17957 -3.0474672 1.5624967 61.666668
3.185544 -2.7792602 1.5400915 61
3.1776919 -2.6257071 1.6000974 58.5
-2.4051127 -1.4961627 1.6027335 6
-2.3969276 -1.3646952 1.6476406 35
-2.395292 -1.2544103 1.5709291 39
-3.0342038 -1.0879393 1.571278 23
-2.9248836 -1.0817647 1.6469871 29
-2.8386645 -1.0830909 1.5566292 28
-2.4353876 -1.061002 1.583688 23
-2.3980422 -1.1248248 1.6191911 45
-4.4940753 1.8548338 1.6027722 50
4.8068414 1.914878 1.6008455 24
5.1157379 1.896747 1.6085142 74
4.6138196 2.0789452 1.605989 23
4.9377623 2.0931213 1.6135905 25
4.381834 2.2158139 1.6010268 33
1.0222182 2.3259153 1.5579991 34
4.1321521 2.3292062 1.593889 39
4.4319439 2.3905025 1.5931802 32
4.6913252 2.2514343 1.6025008 32
5.1437588 2.3635368 1.5360597 99
1.01529 2.4583306 1.607474 32
4.1716166 2.5127287 1.5899032 29
-4.4816437 2.6637874 1.6271318 79
1.0135419 2.6069331 1.5407782 33.5
5.0375509 2.6058435 1.6123912 35
5.1364412 2.6107197 1.5762544 100
1.0075753 2.7918224 1.5973861 36.5
4.8683944 2.7777576 1.602663 25
5.1252446 2.7311051 1.5144958 108
1.0123364 2.9781384 1.6342489 36
5.1258759 3.0336077 1.5341613 106
1.0018462 3.3950961 1.5372912 35
-3.3576803 3.493644 1.5682241 31.333334
-3.1852043 3.489393 1.5288773 36
-2.6021416 3.4998078 1.5994046 42
-2.500751 3.5089312 1.5739806 43
-2.0639186 3.525336 1.5891087 20
-1.7269424 3.5298195 1.5880386 21.333334
0.74951214 3.520046 1.6438142 70
0.77441549 3.5118546 1.536204 66.5
0.92554963 3.5212016 1.5483323 69
0.23636897 6.8880587 1.6421474 102
0.57954812 6.891295 1.5221931 96
0.6682781 6.8851061 1.6241227 97
0.82252353 6.8852415 1.6483966 96
-2.6122508 -5.1689091 1.7788543 22
-2.3469801 -5.1269369 1.7876517 34
-2.1533592 -5.0806484 1.7947131 32
-1.731692 -5.0942583 1.7938651 31
-2.1601987 -4.8697386 1.791324 39
-1.7781968 -4.9261565 1.7947215 50
-1.8566544 -4.7212934 1.7929734 44
-1.6427232 -4.7091103 1.7934471 49
-2.4617121 -4.537147 1.7803735 44
-2.2387817 -4.5199733 1.792683 51
-1.8822949 -4.5223255 1.7922777 51
-2.2480359 -4.4643154 1.7894415 45
-1.9348429 -4.3913999 1.7924873 51
-3.5969572 -4.2087193 1.762838 20
-2.0400863 -4.2700343 1.7992367 26
-4.2221999 -4.1524954 1.7432281 36
-3.8760052 -4.1590347 1.7485968 22
-3.7267838 -4.0514889 1.7532316 41
-3.5139868 -4.1428471 1.7605292 28
-3.2711093 -4.0658336 1.7538112 41
-1.9639157 -4.155962 1.7915405 22
-3.9866359 -3.9889593 1.7512861 50
-2.9717443 -3.9269409 1.7691127 48
-2.8057802 -4.0335574 1.765606 46
-2.5610006 -4.0359588 1.7772566 53
-2.343061 -4.0269814 1.7871329 56
-2.0348387 -3.9715884 1.7880012 59.5
3.1803105 -4.0475869 1.65478 20
-3.9026577 -3.8463345 1.7521092 54
-3.5652974 -3.8388691 1.762097 55
-3.2665651 -3.8404882 1.7643796 48
-3.0405221 -3.8283625 1.770821 50.5
-2.1666586 -3.7929158 1.782375 61
-1.9996991 -3.8053675 1.7908807 56
-1.7601885 -3.7978513 1.7939483 56
-3.903434 -3.6420143 1.7539486 57
-3.610925 -3.6817024 1.759539 50
-3.5355797 -3.6337783 1.763883 53
-3.3628321 -3.7216558 1.7679853 53
-3.1868334 -3.6865635 1.7598425 44
-2.9039423 -3.603807 1.7794293 51
-2.0613003 -3.6970963 1.7885617 55
-4.0171552 -3.4801412 1.7531654 61
-3.7519288 -3.5455861 1.7543217 54
-3.3386292 -3.5897074 1.7585589 52
-3.1599658 -3.5828669 1.7608613 50
-3.0183609 -3.4810247 1.7848922 53
-2.6433961 -3.5885601 1.7710875 58
-2.4323852 -3.5996096 1.7849556 60
-2.1426983 -3.5453906 1.7852094 56.5
3.1787577 -3.5592265 1.7565778 54
-3.9243279 -3.3465409 1.7476951 58
-3.5964539 -3.3613012 1.7574679 59
-3.3120651 -3.3890646 1.7650167 59
-3.086729 -3.3853707 1.7740853 55
-2.2838488 -3.3891342 1.7808262 59
-2.1223879 -3.4001057 1.7955791 57
-2.0795419 -3.4095674 1.787397 56
-1.8871441 -3.4273291 1.7917207 58
3.1777983 -3.3523667 1.763131 58
-3.6368544 -3.2287505 1.7634624 62
-3.5547786 -3.1827898 1.7650958 61
-3.3875721 -3.2338877 1.7683187 59
-3.2357697 -3.207001 1.76588 58
-2.9620695 -3.1780603 1.7688791 57
-2.7245388 -3.2048457 1.7743744 56
-2.5100901 -3.2190349 1.7826053 61
-2.1728673 -3.2503622 1.7860798 56.5
-3.069469 -3.0331733 1.7758045 57.5
-2.3307676 -3.0772619 1.7839419 54.5
-2.1869841 -3.0454049 1.7921398 56
-2.0027921 -3.1023643 1.7964646 67
3.1806285 -3.0450475 1.7194151 58.666668
-3.3872852 -2.9085805 1.7725722 59.333332
-3.2784727 -2.8516889 1.7636639 56
-3.1320508 -2.9456286 1.7657343 53
-2.7942829 -2.8510053 1.7754682 58
-2.5854456 -2.8822398 1.7857522 63
-2.2804124 -2.8595145 1.7856973 55
-2.2225196 -2.947053 1.794567 56
-1.5477389 -2.9365182 1.7975348 55
-3.2830555 -2.7657449 1.763126 62
-3.0246787 -2.8051116 1.7682422 57
-2.3202398 -2.7662365 1.7871958 64
-2.0958376 -2.787297 1.7902416 70
-1.9255041 -2.8154643 1.796785 70
3.1815014 -2.7677617 1.7039603 62
-3.0990806 -2.6675143 1.7755187 55.5
-2.6500473 -2.5693645 1.785653 61
-2.4809384 -2.6956177 1.7849783 56
-2.2768371 -2.6122541 1.7864074 44
-2.2352519 -2.6862433 1.7918917 48
-1.6714312 -2.6549044 1.7988321 35
3.0851669 -2.5834455 1.7680825 15
3.1765661 -2.6412864 1.7664018 40
-2.8547261 -2.5240598 1.7745167 62
-2.4256206 -2.4656515 1.7796639 45
-2.3516526 -2.487844 1.7822754 50
-2.1839957 -2.5058808 1.791998 47
-2.0152998 -2.5461192 1.7977673 44
-2.712538 -2.2823474 1.7890075 37
-2.5462747 -2.3701022 1.7742599 56
-2.2824793 -2.3850107 1.7948183 14
-2.4481733 -2.1759288 1.7977377 9
-1.9262155 -1.8713284 1.7931751 17.5
-1.7297065 -1.8396317 1.7950271 53
-2.4006236 -1.7647926 1.77219 4
-2.0260732 -1.6609651 1.7915555 50
-1.8869941 -1.7113047 1.795013 50.5
-1.6638845 -1.7149709 1.7994536 70
-2.4061704 -1.6329178 1.692552 7
-2.3275993 -1.5954323 1.787294 47
-1.9647032 -1.6273819 1.79365 60
-1.8732531 -1.5935018 1.7954255 59.5
-1.7277378 -1.5302786 1.7969152 68
-2.3789384 -1.428993 1.7600104 47.25
-2.0520899 -1.4228518 1.7893478 58.5
-1.9007893 -1.4651507 1.7969865 61.333332
-1.5093628 -1.4034556 1.7967616 71
-2.3959994 -1.2401451 1.6975429 48.5
-2.1504292 -1.2270751 1.7978281 27
-1.9989386 -1.2949246 1.7946138 25
-1.9264276 -1.2762318 1.7978867 24.5
-3.7557514 -1.1609123 1.7542168 7
-3.6531973 -1.1367233 1.7634393 38.5
-3.5173936 -1.1171482 1.7592859 40.5
-3.2789657 -1.0991751 1.767676 70
-2.5510101 -1.0700423 1.663431 28
-2.4765365 -1.0890285 1.7754818 56
-2.377913 -1.1801147 1.7816633 65
-2.0142691 -1.1276767 1.793216 59.25
-1.8358003 -1.1746278 1.787531 77
-3.9760904 -1.0135307 1.7487508 19.5
-3.828536 -0.94515175 1.7607666 4
-3.4835844 -0.99248785 1.7671782 77.333336
-3.3445888 -0.94371283 1.7673689 77
-3.2924054 -1.0145022 1.7652065 73
-3.1288099 -0.92879254 1.770432 79.5
-2.9283242 -1.0244373 1.7740785 70
-2.816519 -1.0315121 1.776966 67
-2.6462052 -0.96031654 1.7798903 64
-2.4290042 -0.95393705 1.785146 63.5
-2.1349697 -0.98410052 1.7912234 62
-2.0116277 -0.97837603 1.7957486 69
-1.9308594 -0.94595098 1.7991902 76
-4.2085695 -0.85027301 1.7463762 2
-4.1344748 -0.78869754 1.7544383 3
-3.6974666 -0.87066144 1.7728306 3
-3.5177021 -0.86732084 1.76064 7
-3.3340573 -0.75501156 1.7700857 5
-3.2992861 -0.84034383 1.7690984 75
-2.972137 -0.79909688 1.7780048 77
-2.7788939 -0.83781904 1.7736046 70
-2.6034875 -0.80873966 1.7821077 67
-2.4973316 -0.81876373 1.7863514 67
-2.1747262 -0.78412753 1.7916263 65.666664
-2.0450912 -0.87404871 1.7971581 65.5
-1.938848 -0.84216654 1.7996639 71
-3.1631474 -0.68857849 1.7776841 5.5
-2.7379422 -0.68314093 1.7797192 67.5
-2.6167371 -0.64872009 1.782446 72
-2.4959507 -0.67968082 1.7875153 70
-2.2691562 -0.60136753 1.7905482 69
-2.0764298 -0.68767786 1.7939645 74
-3.4870031 -0.48102814 1.7693864 81
-2.6532512 -0.53567868 1.7848486 75
-2.4835603 -0.55569625 1.7874281 70.5
-2.1593421 -0.54414922 1.7957052 76.333336
-2.0557516 -0.52057606 1.7949212 72.5
-3.4136925 -0.44769379 1.7697023 79
-2.6069858 -0.43432701 1.7866522 38.5
-2.5076654 -0.3590062 1.7893835 70
-2.2997296 -0.39878973 1.7926627 72
-2.1809609 -0.37486133 1.7941285 73.333336
-2.0477784 -0.34019563 1.7968332 80
-2.5719719 -0.20996027 1.7847234 68.5
-2.4793856 -0.12706594 1.7980436 16
-2.4746022 0.26317617 1.7907346 79
-2.3510981 0.21145338 1.7883464 73
-2.153564 0.27721882 1.7911528 83
-2.5825276 0.40358821 1.7848717 75
-2.2984359 0.40763614 1.7926903 76
-2.2067592 0.37569335 1.7888542 89
-2.0240221 0.38290799 1.7971891 88
-2.4717062 0.46132502 1.7915233 81
-2.177505 0.52373034 1.7939306 82.333336
-2.0608959 0.52863598 1.7948967 89
-2.7727273 0.63876522 1.7755994 70
-2.6944797 0.62594342 1.7906398 67
-2.4625463 0.66164237 1.7893392 75
-2.2988503 0.61437649 1.790225 79.333336
-2.1582174 0.69440258 1.795339 76
-2.049469 0.71302933 1.794047 85
-2.7635813 0.82500309 1.78087 54
-2.5787582 0.83705616 1.7858108 91
-2.4492044 0.86498326 1.7844335 72
-2.3249655 0.83115196 1.7927244 76.5
-2.19926 0.8175118 1.7904276 80.333336
-1.9530621 0.76137483 1.7982947 88
-2.2860205 1.0266415 1.7926248 77
-2.2106333 0.9783628 1.7937466 80.333336
-2.7686291 1.0993947 1.7799852 76
-2.5745814 1.0644253 1.789121 86
-2.446923 1.0814731 1.7940725 85
-2.347415 1.0732069 1.7880446 82
-2.1753337 1.1300162 1.7954196 75.333336
-1.9117707 1.1206619 1.7997104 72
-2.7919087 1.3096242 1.776369 76.5
-2.6262758 1.2982477 1.7820504 77.5
-2.4299364 1.3010181 1.7932922 83
-2.3058243 1.2799098 1.7922635 77
-2.1887517 1.3045914 1.7908459 79
-2.0423899 1.29327 1.7971218 74.5
-3.2290628 1.481971 1.7675377 52
-2.9394403 1.4462221 1.7709582 74.5
-2.8210588 1.3773683 1.7759119 77
-2.2592552 1.4835533 1.7912241 70
-2.2137086 1.4134034 1.788987 75
-3.439064 1.5165088 1.7647313 38
-2.7989655 1.5832603 1.7778968 37.5
-2.6775296 1.5591228 1.775942 37
-2.4756451 1.5370338 1.7883005 33
-2.3197742 1.5575285 1.7977253 34
-2.1734309 1.5407159 1.7931007 51
-2.0058992 1.5046117 1.7913806 63
-3.8738146 1.7861888 1.7606314 27
-3.7124839 1.7322661 1.7660133 69
-3.5211291 1.741771 1.7630401 67
-3.3348413 1.6750014 1.7728823 52
-3.2486079 1.7800896 1.776019 86
-2.9384558 1.736465 1.7700583 69.5
-2.8307428 1.6514046 1.7758008 36
-2.3803654 1.7683457 1.7867745 76
-2.1932592 1.7136641 1.7916783 56.666668
-2.0221438 1.7424462 1.7918001 74
-1.8606706 1.7152224 1.7961224 64
-4.4569774 1.8988214 1.734445 77
-3.7219748 1.8576602 1.7617859 71
-3.4654388 1.8374485 1.7716135 76
-2.8100021 1.8967857 1.7744269 75
-2.6573362 1.8337231 1.7732526 78
-2.5180614 1.8010867 1.7812876 74
-2.2842107 1.8092875 1.7911884 72
-2.1703639 1.866416 1.7946243 67
-3.9705122 1.9706203 1.7608382 76
-3.7237103 2.0511403 1.7725192 74
-3.4899793 2.0576665 1.76256 70
-3.3746533 2.0003603 1.771216 68
-3.263129 2.0991533 1.7792982 80
-2.9439378 2.0559213 1.7787474 72
-2.4965243 2.0808833 1.7846063 79
-2.3535759 2.027216 1.7888781 81
-2.1989613 2.0554004 1.7937222 71
-2.0384498 2.0078831 1.7951914 69
-4.4669495 2.2397614 1.6567851 88
-4.2514782 2.2380993 1.7574292 70.5
-3.9850349 2.1633184 1.7646586 72.666664
-3.7932017 2.1567786 1.7636795 64.5
-3.6255198 2.1259966 1.7668601 65
-3.4790151 2.1753387 1.7687548 73
-2.7989821 2.1917233 1.7773206 76
-2.6384785 2.1334622 1.7762338 75
-2.1578271 2.1894746 1.7972435 72
-4.7119913 2.360877 1.668219 21
-4.4628677 2.3200812 1.7287976 99
-4.2434359 2.2716589 1.7597183 67
-4.0196557 2.3801258 1.7668825 71
-3.7198968 2.2671864 1.7633027 67
-3.4142256 2.3546958 1.7680408 5
-2.8755651 2.3137035 1.7817131 70
-2.463613 2.3776848 1.7853624 77
-2.3205578 2.3050587 1.7915112 77
-2.1601269 2.3410578 1.7918767 69.333336
-2.0377817 2.298424 1.7881993 75
-1.9238322 2.2552447 1.7972742 68
-4.0304112 2.5315707 1.7572535 57
-3.7552748 2.4185228 1.7651364 57
-3.2445054 2.4181478 1.760095 2
-2.9729943 2.4391451 1.7794849 62
-2.7959995 2.5392079 1.7811204 65
-2.6209354 2.4664001 1.786894 72
-2.1162302 2.480406 1.7910558 65
-1.852923 2.5329928 1.7944788 75
-1.7478669 2.4624476 1.7984537 75
1.0131501 2.5075932 1.7270255 35
-4.3132358 2.6720257 1.7535094 69
-4.1040626 2.6302943 1.7717384 42
-4.0081134 2.5651824 1.7658476 29
-2.8488448 2.6260371 1.7816972 63
-2.2799408 2.6042132 1.7916375 74
-2.1355319 2.6367807 1.7961241 68
-2.0264931 2.6529169 1.7949847 70.5
1.0093181 2.6013885 1.7513652 38
-4.7909737 2.8463912 1.6618794 63
-4.4787917 2.7481275 1.7002015 89.5
-4.3069687 2.7156045 1.7576262 6
-2.922194 2.7650416 1.7805651 62.5
-2.5819969 2.8153389 1.786513 69
-2.4315605 2.7118666 1.7928861 78
-2.0726843 2.8127799 1.7958068 67
-1.7217849 2.7902675 1.7976878 72.5
1.0090611 2.7208292 1.7243353 40
-2.783751 2.9196892 1.7809808 58
-2.2371266 2.9406488 1.7994565 75
-1.8952886 2.9414806 1.7996172 79
-2.8764246 3.1178339 1.7810961 56
-2.8388531 3.0104225 1.7773384 55
-2.3822095 3.0652375 1.7924277 68
1.0025078 3.0296614 1.7542236 37.5
-3.2983465 3.2485535 1.7856299 61
-2.933449 3.2368648 1.7856075 63
-2.5338292 3.1976571 1.7844201 61
-2.7887008 3.3832948 1.7815796 50
-2.3076515 3.4317522 1.7758063 36
-1.9717944 3.4443333 1.7913889 36
1.001392 3.3424895 1.6994423 37
-3.1189599 3.4899347 1.6513723 40
-2.7816844 3.498584 1.705367 30
-2.0271378 3.5433388 1.7056173 20
-1.8786075 3.528528 1.7359174 20
-0.048767943 3.5213108 1.7946326 0
0.73017269 3.5146682 1.7134949 74
0.85864848 3.5173759 1.75764 65
0.96155012 3.5078373 1.7783599 62
0.20481016 6.8896275 1.790892 107
0.96222168 6.8782897 1.6795355 92
1.1063433 6.8861728 1.7025903 103
1.9665885 -5.28971 1.8756255 13
-2.1207242 -5.1035647 1.8035036 41
2.517225 -4.9841528 1.8894938 24
2.7913156 -4.9740219 1.8883492 33
-1.8472532 -4.8895316 1.8030454 42
1.929122 -4.8811445 1.894591 2
2.2239978 -4.9415712 1.8942705 30
-1.4386939 -4.6834593 1.8015188 50
2.2986579 -4.6699538 1.885938 31
1.7313046 -4.5248842 1.8763324 27
2.0187006 -4.6203852 1.8798908 34
3.1921959 -4.553802 1.8860422 40.5
1.4531736 -4.4251947 1.8716849 45
1.85566 -4.3592291 1.867833 42
2.677938 -4.3859482 1.8975548 33
2.7806873 -4.3799558 1.9054157 32
2.9017675 -4.4515266 1.9162635 31
3.2280183 -4.4868903 1.8439833 23
-1.9587084 -4.3186989 1.8019563 46
-1.8238928 -4.252171 1.8061281 25
-1.6191674 -4.2366714 1.8095697 24
-1.4411185 -4.2155929 1.8172828 24
1.5940965 -4.290967 1.8707925 44
3.050802 -4.2975626 1.9238991 33
-0.07611911 -4.1253982 1.8517259 0
0.088759646 -4.1178532 1.8449408 15
1.4802936 -4.0926147 1.8629526 49
2.2138271 -4.1721578 1.8885633 42
2.3118491 -4.1364708 1.8897144 39.5
2.4209018 -4.1781979 1.9030007 45
3.1844525 -4.1339703 1.9074162 61
-1.0714993 -3.9759023 1.8081628 41.333332
-0.88557887 -3.9207764 1.8069559 46
-0.72897333 -3.929991 1.8197232 12
-0.095735922 -3.9760146 1.8420864 18
0.13315843 -3.9247749 1.8310152 58
1.7975366 -3.9574041 1.8772665 42
1.9044405 -3.911478 1.8795491 45
2.0065334 -3.9253931 1.8910977 50
2.5149348 -3.9928606 1.9040674 40
2.7113364 -3.9311328 1.9145466 35
-1.5879161 -3.8017168 1.8075322 56
-1.2250212 -3.7644391 1.8207337 53
-1.1283609 -3.8674414 1.8147544 59
-0.15785556 -3.7776046 1.8306617 33
-0.12621936 -3.861867 1.8336121 26
0.2654022 -3.8967714 1.8345703 52
0.38859051 -3.8710127 1.8367234 52
0.4875496 -3.8496301 1.8433245 57
2.8943095 -3.8548882 1.9185494 19
3.1908369 -3.8432405 1.8203017 54
-1.2259247 -3.6605389 1.8145694 50
-0.3125312 -3.6891236 1.8452331 8.5
-0.12620932 -3.6635962 1.8481127 61
0.075055212 -3.6307001 1.8485855 53
0.74846727 -3.7179313 1.8578035 54
0.85877556 -3.6085804 1.8509623 57
0.91597742 -3.7173016 1.8533562 51
1.427094 -3.7446473 1.8661832 56
1.5793552 -3.6950638 1.8736086 53.666668
2.0725634 -3.7287292 1.8966531 49
2.2717166 -3.7021811 1.8999342 44
2.4617391 -3.659924 1.899918 42
3.0264118 -3.71597 1.9146692 34
-1.2628788 -3.5534656 1.8092875 52.666668
-1.0760832 -3.5796161 1.8063771 45
-0.91866088 -3.5959034 1.8166336 16
-0.35673928 -3.517875 1.8321602 18.5
0.23959459 -3.576925 1.8388411 56
0.66833138 -3.5212572 1.8522123 50.5
1.1443133 -3.5282426 1.8623317 54.5
1.302765 -3.4795399 1.8693411 53
1.6856571 -3.4716403 1.8801094 52
1.8927717 -3.4906812 1.8922395 52
2.0920706 -3.4882584 1.8917898 49
2.6316564 -3.5829771 1.9036947 42
2.9998381 -3.463347 1.9146894 37
-1.7157193 -3.4402678 1.803908 58
-1.3589368 -3.3492026 1.8189625 49.5
-0.50370276 -3.3573966 1.8388656 8
-0.35720196 -3.3483191 1.8203806 45
-0.21674901 -3.3754766 1.8449723 76
-0.083267003 -3.3743122 1.8517069 80
0.026185613 -3.3558388 1.8543829 78
0.44150949 -3.3186419 1.8544155 57
0.47956532 -3.4297569 1.8581249 51
0.60078925 -3.389317 1.8475348 60
0.80873686 -3.352941 1.8574656 53
0.90471834 -3.3179145 1.8581694 54
1.7566154 -3.3139338 1.8801256 44
1.9502125 -3.314461 1.8856608 53
2.274276 -3.4481008 1.8943225 48
2.603426 -3.3191547 1.9053813 47
2.9115546 -3.34095 1.9208179 34.5
3.1423724 -3.3072245 1.9106606 46
3.1818738 -3.3373504 1.8667369 62.5
-1.417214 -3.2439299 1.8225504 34.333332
-1.2426634 -3.2728138 1.8103932 41
-1.0841341 -3.2942147 1.816698 14
-0.54270172 -3.2310467 1.8262752 13
0.38605189 -3.2027078 1.8406374 56.5
0.54432833 -3.1557953 1.8491243 57
0.99534279 -3.2927842 1.8625888 50
1.0606179 -3.2771893 1.8677026 60
1.3673309 -3.257463 1.8831831 50
1.5593761 -3.2852969 1.8802971 49
1.6524553 -3.1762643 1.8758911 55
2.2550128 -3.1797996 1.8997756 51
2.4822495 -3.19876 1.9037646 45.5
2.8016586 -3.2767072 1.9077044 36
3.0241938 -3.1779201 1.9335438 37
3.1713355 -3.2866511 1.8093938 57
-1.8294047 -3.1204178 1.8041836 67
-1.4632239 -3.045414 1.8164994 46
-1.2304549 -3.0210516 1.8193058 6
-0.66535825 -3.0546052 1.8296493 8.5
-0.55827153 -3.0924807 1.8197163 37
-0.41518268 -3.092448 1.8179702 53
-0.22445326 -3.0945086 1.8266858 53.5
0.21965216 -3.0790818 1.8443199 59.333332
0.69804645 -3.1192055 1.856087 58
0.81799179 -3.0875418 1.8604974 56
1.0818272 -3.0428424 1.8766254 58
1.2711552 -3.1016676 1.8767685 50
1.4250119 -3.0988436 1.873119 51
1.785358 -3.0065875 1.8764774 52
1.9166784 -3.0208163 1.8906195 51
2.0931201 -3.1035831 1.8885845 54
2.1582382 -3.0754433 1.8947264 50
2.6362808 -3.059855 1.9196912 44
3.1013906 -3.009376 1.9243675 40
-1.5323291 -2.9089589 1.811687 39.5
-1.4299103 -2.980747 1.8092728 37.5
-0.71604538 -2.9334199 1.823843 18.666666
-0.52215338 -2.8709903 1.8206925 57.5
-0.33609718 -2.8782008 1.8288268 66
0.046723586 -2.905467 1.8457443 65
0.16432686 -2.9780455 1.8399049 71
0.36480314 -2.9581223 1.8463486 60.5
0.52425271 -2.9289215 1.8530895 61
0.60284913 -2.9110768 1.8569976 59
1.0147704 -2.9174941 1.867735 54
1.1404941 -2.9117792 1.8642272 53
1.2002846 -2.9963214 1.8710994 58
1.56146 -2.8936946 1.8768409 51
1.6577151 -2.8971107 1.8826171 52
1.8293757 -2.9249949 1.8876841 48.5
2.2973444 -2.947644 1.9122816 50
2.4322836 -2.8636572 1.9057027 47
2.7544484 -2.9422705 1.9158543 42
2.8771887 -2.8972828 1.9173207 23.5
3.1729059 -2.9148235 1.8695995 61.5
-1.5370778 -2.7321506 1.817526 13
-0.82813454 -2.763824 1.8295516 17.25
-0.019955564 -2.7871654 1.8358015 67
0.044292953 -2.8153102 1.8401594 62.666668
0.21604724 -2.7776506 1.8478578 59
0.36774245 -2.7516932 1.8524548 66.5
0.81180912 -2.7933421 1.8672863 59.5
0.93911785 -2.8072338 1.8595545 57
1.2765703 -2.7902288 1.868624 57
1.3856558 -2.7601719 1.8743955 55
1.5418453 -2.706969 1.8871635 50
1.7074277 -2.7061698 1.8912045 38
1.9878242 -2.8277259 1.9019123 46
2.1836913 -2.751009 1.9009936 47.5
2.2821171 -2.7120514 1.9039885 35
2.5257862 -2.7942877 1.9060723 45.5
2.5517743 -2.7558043 1.9097115 43
2.7933478 -2.7790103 1.9177114 38.5
2.9975142 -2.7364767 1.9250041 42
3.0706418 -2.8156509 1.9211866 42
3.1568086 -2.8257961 1.9313976 52
-1.665694 -2.6146059 1.816389 8
-1.5943573 -2.6755793 1.8160582 9
-0.923388 -2.5619261 1.8352014 29
-0.89233416 -2.6262369 1.8223389 31
-0.67701113 -2.6581626 1.8208005 55.5
-0.48650917 -2.6802392 1.8304363 62
-0.1731984 -2.6110101 1.8350284 63.5
-0.11850677 -2.6450431 1.8428887 60.333332
0.088605359 -2.6037736 1.8477906 59.5
0.23749407 -2.582875 1.8525828 67
0.58811456 -2.5876486 1.8642484 60
0.69442815 -2.6647708 1.8610263 62.666668
0.78625613 -2.5814641 1.8603758 61
1.0073073 -2.6946757 1.8629409 58
1.1312107 -2.6438029 1.8680741 57.666668
1.295421 -2.5664041 1.8840986 55
1.4591169 -2.5897048 1.8868631 54
1.6191959 -2.6003199 1.8818814 49
1.7792716 -2.5906172 1.886552 48
1.9162436 -2.6270416 1.8956925 47.666668
2.0548353 -2.6094439 1.8943325 47.5
2.1790881 -2.6454906 1.899823 48
2.3388817 -2.5936184 1.9020087 47.333332
2.4879084 -2.627964 1.8992273 45
2.644392 -2.6590853 1.905898 46
2.8073215 -2.5648704 1.9080273 42.5
2.9332194 -2.6848004 1.91372 39
3.1010275 -2.5711212 1.9173576 42
3.1687915 -2.640023 1.8695446 25
-0.97946155 -2.4875417 1.8250058 31
-0.88401377 -2.4390204 1.8190197 49
-0.68335986 -2.4800131 1.8251041 65
-0.32168347 -2.4332137 1.8353606 63
-0.27458927 -2.4507811 1.8401051 68.666664
-0.076218471 -2.4408348 1.8441021 67
0.082141563 -2.4292011 1.8499943 74
0.40712357 -2.4363613 1.8592163 62
0.55517608 -2.5121911 1.8569198 58.666668
0.70719981 -2.4214525 1.8638018 54.5
0.86400336 -2.5486791 1.8629137 56
0.9570902 -2.5140314 1.8665372 61
1.1297879 -2.4201572 1.8770003 58.5
1.2896277 -2.4630485 1.8800819 56.5
1.3919634 -2.5064085 1.8773617 51
1.5911691 -2.4563775 1.8756545 51.5
1.7164959 -2.4765444 1.8800513 48
1.8500357 -2.4908292 1.884184 43.666668
2.0469112 -2.5003278 1.8964043 46.666668
2.3220413 -2.4459381 1.9007858 45.5
2.5107636 -2.5257008 1.9049784 45
2.6371448 -2.4117651 1.9068545 41
2.8880537 -2.4040453 1.9123815 41
-2.2713525 -2.2511628 1.802725 5
-2.1125603 -2.3142693 1.8191253 0
-1.0883834 -2.2878404 1.8222241 50
-1.032607 -2.3198252 1.8315177 53.5
-0.86771923 -2.2785375 1.8191217 61
-0.74033529 -2.2978222 1.8184909 60
-0.46960405 -2.2590599 1.8301471 66
-0.41924393 -2.2614553 1.8350455 64.5
-0.22451301 -2.2985315 1.8559095 48
-0.058051992 -2.2792702 1.8453509 66
0.23280358 -2.2778549 1.8531897 67.25
0.37509099 -2.3704576 1.8537595 69
0.53041267 -2.3018808 1.8579097 61
0.63476658 -2.2673864 1.8646241 66
0.8403886 -2.33974 1.8706737 61.5
0.99405015 -2.3145506 1.8844607 44.75
1.1625038 -2.3251622 1.8722587 55
1.2500813 -2.2909431 1.8767437 57.5
1.4118716 -2.3527606 1.8753719 56.833332
1.5554825 -2.3164737 1.8787061 51
1.7429432 -2.349216 1.8832904 42
1.9343243 -2.3618116 1.8892485 47
2.1676893 -2.3972518 1.9027604 49
3.0947022 -2.3483448 1.8841583 32
-1.5129895 -2.1087625 1.8079387 26
-1.1319638 -2.1444993 1.8185197 51
-1.0059704 -2.2346783 1.8135074 53
-0.84931386 -2.1279662 1.8207451 61
-0.55770731 -2.1013246 1.8338586 65
-0.42261952 -2.1194019 1.8342584 67
-0.24079889 -2.1314082 1.8363099 74
0.087558001 -2.1333635 1.8480101 66.5
0.22186603 -2.2178309 1.8474449 68
0.36710185 -2.1795766 1.8500967 63.5
0.48150653 -2.142951 1.854086 66
0.66457576 -2.1300912 1.8652086 63.75
0.82512909 -2.1773753 1.869274 61
1.0109665 -2.152925 1.87087 58
1.1084397 -2.167944 1.8730642 56.25
1.2553197 -2.2233191 1.8799763 57.666668
1.3509401 -2.2420826 1.8738841 50
-1.8041805 -1.9811306 1.8013541 7
-1.705045 -2.0076873 1.8052347 19.5
-1.2341268 -2.0287833 1.8147659 62
-1.1373395 -2.0736959 1.8187909 58.666668
-0.96287608 -2.0298939 1.8192027 61.5
-0.54878771 -2.0609505 1.8318937 70.199997
-0.35846007 -1.9937893 1.8378211 72.5
-0.050437737 -1.9904321 1.8458612 73.199997
0.048103169 -2.0259962 1.845737 70
0.21940714 -2.0632598 1.8476685 66
0.34538096 -2.0298622 1.8523577 71
0.49951512 -2.0125573 1.8586346 64.599998
0.6594553 -2.0159621 1.8570302 64.75
0.82692921 -2.0165303 1.8664196 64.599998
0.95409024 -2.0968854 1.8705857 73
-1.8428221 -1.8944591 1.8024715 29
-1.788121 -1.9292521 1.8030919 27
-1.5918449 -1.905493 1.8019603 64
-1.2434103 -1.8778123 1.8158375 66.5
-1.1335192 -1.9103386 1.8208194 67
-1.0364891 -1.8017774 1.8199919 68
-0.65894663 -1.9046601 1.8314065 70.166664
-0.52578872 -1.8474528 1.8329092 76
-0.40579942 -1.8579093 1.8316249 85
-0.19558585 -1.8618134 1.8372577 80.333336
-0.12046296 -1.8384333 1.8398725 79.666664
0.086006574 -1.8569856 1.8434805 78.666664
0.21780199 -1.8556776 1.8509512 69.666664
0.37400207 -1.8854424 1.8529465 69.85714
0.5503583 -1.8703572 1.8563572 69.333336
0.68646252 -1.9149097 1.8612425 63
-1.8222291 -1.7219254 1.803691 63.5
-1.3658426 -1.7351294 1.810372 66.5
-1.2918509 -1.6971709 1.8188175 66.25
-1.167268 -1.7525976 1.818947 65
-0.776375 -1.7416853 1.8235382 74.25
-0.68333149 -1.7319402 1.8309544 75
-0.50177491 -1.7289225 1.8302525 88
-0.3246381 -1.7355309 1.8327104 86
-0.23963964 -1.7159873 1.8390205 79
-0.095555514 -1.712719 1.8376008 78
0.073213242 -1.6985042 1.8423353 77.199997
0.22474848 -1.7287627 1.8470734 77
0.38324904 -1.7413576 1.8513794 71.800003
0.48612505 -1.7538581 1.8558275 77.5
-1.8427513 -1.5243236 1.8033711 59
-1.4149168 -1.5521119 1.8086392 73
-1.2989582 -1.5403934 1.8138542 72.333336
-1.1154593 -1.6425661 1.8138045 72
-0.841811 -1.5886427 1.8256754 78
-0.7136451 -1.5724103 1.8292035 80
-0.54934895 -1.5593247 1.8341382 81
-0.36728692 -1.5990499 1.8391093 79.5
-0.19677025 -1.608639 1.8430825 76
-0.073272355 -1.5649468 1.8405032 82.166664
0.061863046 -1.5761627 1.8455752 78.666664
0.22253583 -1.5642861 1.8473078 82.833336
0.3478049 -1.6255227 1.850121 75.5
-1.7904818 -1.3553807 1.8000187 29
-1.4108289 -1.497581 1.8060514 78
-1.3164723 -1.417943 1.8074991 73
-1.1865937 -1.4891466 1.8089548 74
-0.94892925 -1.4402652 1.8229892 72.75
-0.83709604 -1.4323558 1.8231791 79
-0.70534605 -1.420017 1.8316171 61
-0.52866018 -1.4151986 1.8353875 71.800003
-0.40107793 -1.4430058 1.8400123 76.75
-0.22288592 -1.4332228 1.8387007 76.5
-0.067640796 -1.4200741 1.8429239 72.285713
0.070264392 -1.4352318 1.8441732 79.199997
0.17442207 -1.4232478 1.848523 98
-1.881474 -1.3269283 1.8071781 26
-1.5449889 -1.2737727 1.8081387 32.5
-1.4077791 -1.3238623 1.8128229 33.799999
-1.2557003 -1.3453205 1.8150567 36
-1.0627227 -1.3089701 1.8225144 33
-0.97313917 -1.2886029 1.825869 35.400002
-0.84055769 -1.2762334 1.8341638 37.5
-0.65857357 -1.2678119 1.8367516 38.5
-0.51185149 -1.2828544 1.844244 36.799999
-0.36070207 -1.2868875 1.8432604 33.25
-0.21593606 -1.2692162 1.8452139 27.25
-0.076302834 -1.293412 1.8490297 30.75
0.042246535 -1.2994245 1.8460575 35.333332
-1.9087466 -1.1325049 1.8028508 63
-1.5345635 -1.1506138 1.8040539 72.5
-1.4309031 -1.1356704 1.8117893 68.400002
-1.3156712 -1.1985662 1.8130981 39
-1.1013016 -1.1432923 1.8232918 78.333336
-0.98098296 -1.1581581 1.8254176 80.5
-0.82819724 -1.1038222 1.8315382 87
-0.67364246 -1.1262522 1.8339965 88.25
-0.51795053 -1.11809 1.8339797 67
-0.3712357 -1.1365999 1.8385004 48
-0.23728766 -1.1156892 1.8350681 48.142857
-0.099040672 -1.1364756 1.8416144 52.5
-1.8967413 -1.0122854 1.8030635 76
-1.5899417 -1.0035371 1.8096031 71
-1.4594194 -0.9754836 1.8147868 70.25
-1.1268461 -0.98955858 1.8263413 87.400002
-0.9904238 -1.0181261 1.8303223 89
-0.82752115 -0.99195176 1.8321455 103.5
-0.66836315 -0.97045785 1.8320295 81.5
-0.5257315 -0.96813351 1.829615 65
-0.36602238 -0.96969998 1.8314906 50.285713
-0.23372778 -0.99450725 1.8344555 41.75
-1.9518658 -0.76722115 1.801051 75
-1.6700801 -0.83776295 1.8073374 73
-1.5636234 -0.82975668 1.8116677 72.75
-1.4684904 -0.81891477 1.819429 76.5
-1.2318747 -0.87318552 1.8261195 88
-1.123813 -0.84493721 1.8219666 91
-0.96744919 -0.82488883 1.8251247 84.199997
-0.80564517 -0.83116502 1.8243724 79.166664
-0.67066956 -0.83533031 1.8314682 78.666664
-0.52307886 -0.82201892 1.8307018 68.25
-0.38470572 -0.8473137 1.8366907 57.799999
-0.25358441 -0.86227494 1.8352329 50.666668
-1.9998866 -0.6997925 1.800845 72.5
-1.6907502 -0.66816932 1.8087059 69
-1.5622561 -0.66231859 1.8136617 71.25
-1.4947075 -0.7099517 1.8205448 73
-1.2463372 -0.68697482 1.8234468 89.75
-1.1137673 -0.68151248 1.8251114 84.285713
-0.95186824 -0.68014932 1.8251129 82.5
-0.81561488 -0.64469987 1.8242629 86.199997
-0.68053132 -0.68762392 1.8285793 80.818184
-0.52733368 -0.67831218 1.831255 78.599998
-0.40463433 -0.68432432 1.8341055 70.14286
-0.29683691 -0.72061205 1.8328964 63
-2.004755 -0.56768656 1.8028904 73.5
-1.7240072 -0.50011605 1.8080631 73.666664
-1.5768324 -0.52055323 1.8151915 73.599998
-1.2887253 -0.52770364 1.823212 95
-1.1367204 -0.50931203 1.8189762 71.25
-0.96521127 -0.53016627 1.8211164 80.599998
-0.78958338 -0.52388328 1.8251095 84.5
-0.68347085 -0.51446265 1.8270547 84
-0.52321547 -0.52435374 1.8344986 80.599998
-0.37697178 -0.51865077 1.835187 74.5
-2.0168133 -0.39235866 1.8011173 81
-1.7257462 -0.3506234 1.81003 75
-1.5851927 -0.37622821 1.8171149 80.75
-1.3694075 -0.41900507 1.8191115 89
-1.2709476 -0.36590955 1.8109151 73
-1.1251197 -0.36436513 1.8205237 77
-0.96204501 -0.37684593 1.8220209 80.199997
-0.81727201 -0.36392343 1.826345 78.818184
-0.67407167 -0.38287562 1.830978 82.85714
-0.52668941 -0.36900902 1.836378 78.25
-0.4253788 -0.359056 1.8364093 77.5
-2.1386273 -0.28698575 1.801885 20
-1.9878911 -0.25154808 1.80255 83
-1.8167471 -0.18387236 1.8040413 79
-1.7061656 -0.21649352 1.8101705 85
-1.5865002 -0.24007256 1.8275954 70.333336
-1.3732967 -0.21866767 1.8147916 87
-1.2709458 -0.22786723 1.8150828 78.25
-1.1342031 -0.21662652 1.81946 78.166664
-0.97684503 -0.21991244 1.8201238 81.25
-0.81536973 -0.21359706 1.8276529 79.300003
-0.6784299 -0.23839837 1.8318329 79
-0.53035742 -0.23278901 1.8363038 77.428574
-1.8379246 -0.010992841 1.8100077 80
-1.7239848 -0.055455856 1.812058 82.75
-1.5934604 -0.092394769 1.8178154 86.333336
-1.3891079 -0.073369168 1.8155475 95
-1.2753332 -0.081933342 1.8138598 79.25
-1.1259451 -0.069951363 1.8212314 79.5
-0.9734146 -0.084114589 1.8210282 82
-0.83467633 -0.071210988 1.8280324 79.090912
-0.67258573 -0.06676551 1.8312172 80.333336
-0.55130631 -0.078448191 1.8323745 78
-1.7329185 0.10565735 1.8102572 82
-1.6026397 0.053245168 1.8196745 87
-1.3840879 0.095208965 1.8138517 94
-1.2702175 0.053697169 1.8134228 82.199997
-1.1148999 0.067089334 1.821553 79.5
-0.97577327 0.054271832 1.822165 81.25
-0.83853722 0.074006602 1.8261166 80.909088
-0.66924053 0.083310366 1.8327261 82.125
-0.54610902 0.09015175 1.8338748 80.333336
-1.8415544 0.1617464 1.8005782 56
-1.7068107 0.25139329 1.8121006 81.5
-1.5657679 0.22376512 1.8204705 88
-1.3897489 0.24136166 1.8192253 100
-1.2469394 0.21362042 1.8181375 79.400002
-1.1043626 0.21339965 1.8189163 85.333336
-0.99500763 0.2229543 1.8189787 77.199997
-0.84217334 0.23129164 1.8248969 79.916664
-0.65933043 0.22147857 1.8295008 79.85714
-0.5205397 0.20962434 1.8319831 87.666664
-2.1447344 0.35038784 1.8002616 76
-1.8506163 0.33791193 1.8072039 80
-1.7336459 0.37720525 1.8105066 81.25
-1.5657344 0.40357423 1.8149945 86.5
-1.386978 0.3892096 1.8197745 95
-1.2721571 0.3463088 1.8187121 83
-1.1193082 0.37442738 1.821305 76.400002
-0.98129064 0.38437274 1.8189435 74.333336
-0.83795321 0.38106662 1.8227447 80.199997
-0.6587432 0.36313304 1.828083 80.85714
-0.53624964 0.37604198 1.8302438 81
-1.9703901 0.58891171 1.8011059 89
-1.8498335 0.51712441 1.8088502 81
-1.7217118 0.52634877 1.8099384 86.599998
-1.5612985 0.55723262 1.8316329 59.5
-1.3919404 0.52381021 1.8195703 94.5
-1.2787002 0.52261668 1.8245716 97.400002
-1.1167678 0.54773289 1.8205155 73.25
-0.97962618 0.51727927 1.8231494 78.400002
-0.8049072 0.52250344 1.8239825 77.199997
-0.67665613 0.5297063 1.8259665 78
-0.52712268 0.54340929 1.8284165 80.833336
-2.6103125 0.62483156 1.8106014 27
-1.8379762 0.69734722 1.8036896 85
-1.713178 0.67848206 1.809355 82.5
-1.5803955 0.67593205 1.8159159 85
-1.4529881 0.67944324 1.8179926 84
-1.2883841 0.6927771 1.8254879 92.599998
-1.0988355 0.70191246 1.8250903 92.333336
-0.97311771 0.67075336 1.8205717 76.400002
-0.83632594 0.65626478 1.8262398 75.25
-0.69063264 0.67907697 1.8271784 76.714287
-0.54155719 0.67759579 1.8320179 76.5
-0.44100174 0.67824483 1.8311251 84
-1.8210411 0.88176924 1.8010958 87
-1.718431 0.82358265 1.810377 84.333336
-1.6018784 0.81245285 1.8126554 84
-1.4300417 0.83155286 1.816955 84.5
-1.2676127 0.84175032 1.8251965 89
-1.1402743 0.80710918 1.8304969 89
-1.0049253 0.83921319 1.8285197 95.75
-0.83336061 0.81870353 1.8264084 76.222221
-0.66286713 0.81389982 1.8290555 74.125
-0.53963298 0.8160367 1.8320208 74
-0.41735056 0.82810169 1.833611 78
-2.041353 0.90563607 1.8031207 83
-1.9422939 0.94410115 1.8096789 78
-1.7067693 0.98014462 1.8067786 81.5
-1.5753049 0.97963893 1.8113582 81.5
-1.4034555 0.98787105 1.8199579 83.5
-1.2523417 0.98677313 1.8250359 88
-1.1509891 0.98465526 1.8291544 83.5
-0.96971893 0.97343731 1.8307502 88.75
-0.81509584 0.97797668 1.8328402 82.75
-0.68082249 0.97796524 1.8330702 86.222221
-0.52977991 0.97324216 1.8353119 79
-0.3911218 0.99578559 1.83822 76
-2.0181243 1.0982519 1.8005022 82
-1.8018194 1.0745028 1.8060988 80
-1.7006255 1.1442286 1.8049793 84.666664
-1.5858128 1.137835 1.8050989 82
-1.4491973 1.1758094 1.8173903 85
-1.2723854 1.1381809 1.8212819 86.333336
-1.1324385 1.108171 1.825951 81.666664
-0.94616562 1.0944804 1.8321624 84
-0.82174385 1.150212 1.8324826 80.800003
-0.65703505 1.125306 1.8391981 85.25
-0.52571607 1.1272815 1.8401898 85.25
-0.35755661 1.136281 1.8432741 80.25
-0.27167523 1.1739211 1.8491791 78
-1.8848064 1.3105375 1.8031203 82
-1.7188654 1.2919018 1.8039639 77.5
-1.6116492 1.2862647 1.8084821 81
-1.4067819 1.3392932 1.8141291 81.5
-1.255228 1.2383497 1.822946 84
-1.1458298 1.2777511 1.8234276 80
-0.95256561 1.2425715 1.8319715 74.666664
-0.80420583 1.2885846 1.8300332 78.333336
-0.67285478 1.2723849 1.8355697 72
-0.50974822 1.2729197 1.8386959 77.14286
-0.38446775 1.2811818 1.8434882 73.666664
-0.23907936 1.2909746 1.8472306 69.333336
-1.715394 1.4346282 1.8051126 76.5
-1.6172689 1.4248786 1.8095285 75
-1.2274108 1.4001191 1.8183815 78
-1.1221615 1.3915104 1.8210211 79
-0.97314399 1.368271 1.8300802 77
-0.82431155 1.4167309 1.8307797 74.666664
-0.69974715 1.4157946 1.8306503 71.75
-0.51761794 1.4016144 1.8392168 73.75
-0.38603568 1.4232603 1.8417273 75
-0.22320037 1.4205254 1.8447579 74.166664
-1.8489149 1.5054842 1.8019813 74
-1.6577038 1.5989941 1.8049604 37
-1.5807761 1.5397489 1.8068604 58
-1.4041967 1.5052166 1.8053433 82
-1.3106799 1.5075344 1.8122436 78
-1.1233089 1.5611924 1.8171322 46.799999
-0.95646757 1.5216022 1.8249338 73
-0.78407699 1.5671743 1.8299531 71.666664
-0.65744549 1.5793946 1.8317322 70.75
-0.52000982 1.5240363 1.8395838 69.666664
-0.38219228 1.576539 1.8398523 67.833336
-0.24479739 1.5771064 1.8439621 62.42857
-0.084347442 1.5820601 1.8462156 71.599998
-1.6888822 1.6864222 1.805833 48
-1.5699111 1.7198403 1.8059258 65.5
-1.3993673 1.7032146 1.8137741 46
-1.2584435 1.6820201 1.8183244 32
-1.1079339 1.7542236 1.8197343 55
-0.9935258 1.6988865 1.8195868 71.666664
-0.84557432 1.6692736 1.8278509 65
-0.6468761 1.7370183 1.8300226 67.75
-0.53551108 1.7218159 1.8362414 68.333336
-0.32863337 1.7328024 1.8622203 44.5
-0.23496154 1.740671 1.8423933 66.714287
-0.067851834 1.7299862 1.8460894 73.85714
0.080112293 1.7683945 1.8493329 72.5
-1.7678671 1.9329412 1.8111833 79
-1.5848818 1.8775275 1.8048682 74.75
-1.4261024 1.9246097 1.8083293 67
-1.2904048 1.8895173 1.8167607 66
-1.1979814 1.8616751 1.8197712 65
-0.9926976 1.8698334 1.8229179 64.5
-0.80855674 1.8508818 1.8330574 58.5
-0.60484147 1.9042519 1.8323978 62
-0.49032718 1.8868065 1.8304856 65
-0.39968997 1.8253018 1.8361734 61
-0.20920062 1.8837875 1.8463912 65.333336
-0.069837175 1.8898711 1.8467494 69.166664
0.078673795 1.8670316 1.8500904 67.666664
0.18342482 1.9066744 1.8490206 68.666664
-1.8741177 1.9633678 1.8049537 74
-1.5294895 2.0638409 1.8115443 70
-1.2170777 2.0933909 1.8191565 61
-1.1288146 2.0524685 1.8229452 62
-0.98195839 2.0241342 1.8228337 63
-0.86821556 2.0943642 1.8302449 43
-0.6812771 1.9984161 1.835888 56
-0.50343853 2.0198846 1.832389 66
-0.38941589 2.0535874 1.8354968 57.5
-0.29499847 1.9708686 1.839377 59
-0.077139482 2.010452 1.8451552 67.75
0.055100549 2.0204883 1.8435993 68.800003
0.22849786 2.0372417 1.8499961 65.666664
0.3133046 2.0645676 1.8527461 66
-1.8171967 2.2078295 1.8039902 76
-1.7091448 2.1552894 1.8053473 76
-1.5691898 2.1455317 1.8108689 70
-1.4465015 2.1801629 1.8118503 66.5
-1.3041631 2.137454 1.819209 63
-0.94174296 2.1846817 1.8192331 60
-0.87504196 2.1911502 1.8191706 43
-0.51576072 2.1051955 1.8364171 49
-0.35825455 2.1788509 1.8364251 58.5
-0.20259812 2.1566653 1.8418994 58
-0.019612629 2.1888373 1.8429078 62
0.060981408 2.1336367 1.8463405 64.666664
0.17837344 2.1968956 1.8475078 62.666668
0.36050788 2.1604841 1.8516771 51.166668
0.45167303 2.1959629 1.8606449 67
-1.4733695 2.3360546 1.8102454 64.666664
-1.2131913 2.3636355 1.8179971 48
-1.1320143 2.3116529 1.8254544 58
-1.0493935 2.2535429 1.8275851 58
-0.47040939 2.3525243 1.8413061 57
-0.41348314 2.2736437 1.8378733 52
-0.25252891 2.3088901 1.8395673 56.5
-0.065795839 2.3124473 1.8448886 63
0.12067544 2.295186 1.8465158 64.5
0.22516349 2.2870131 1.8520091 68.5
0.35290474 2.3340666 1.8500446 44.599998
0.53275961 2.3096056 1.857628 62.166668
0.62458187 2.3453922 1.8611671 56
-1.6469147 2.4030111 1.8091944 72
-1.4172034 2.4961498 1.8129992 61.5
-1.3051757 2.4185328 1.8158988 59
-0.99539077 2.4994078 1.8265654 58.5
-0.34384167 2.5395136 1.8422934 50
-0.23146284 2.4463584 1.8460977 55
-0.10323299 2.510751 1.8422431 61.333332
0.086284205 2.468008 1.8458999 57
0.26125443 2.4475918 1.8508424 62.5
0.4077304 2.4304516 1.8462929 59
0.48541877 2.4788311 1.8561655 60.333332
0.68535435 2.4533195 1.8595111 58.799999
0.80776107 2.4939952 1.8616852 57.25
-1.5827291 2.687228 1.827912 35
-1.3847792 2.6298997 1.8120431 63
-1.151046 2.6407087 1.817077 54
-0.38751438 2.6204848 1.838657 42
-0.16781276 2.6386318 1.8448049 57
-0.017058779 2.6135476 1.8473152 57
0.032773014 2.6887465 1.8485036 57
0.25551757 2.6269937 1.8481909 58.5
0.41637078 2.5991373 1.8492149 56.5
0.55166465 2.5743947 1.8538014 57.5
0.66421425 2.6446328 1.8590218 62
0.86581445 2.587702 1.8601483 59.75
0.97693211 2.6163278 1.8555118 56.25
-1.3256853 2.7671468 1.8087208 56.5
-0.58188975 2.8163805 1.829237 55.5
-0.44160804 2.7104061 1.841046 53
-0.21582067 2.7805381 1.8412246 55.5
-0.020714123 2.8361442 1.8467702 65
0.11949375 2.7706532 1.8467683 61
0.44332996 2.7873833 1.8501662 60.5
0.57786202 2.717001 1.8539675 63
0.65968883 2.7737019 1.8562572 59.5
0.82833308 2.7648766 1.8576059 55.666668
1.0058564 2.8346629 1.8114344 37
-2.0733097 2.9260819 1.8026272 66
-1.4829205 2.9430981 1.8070203 72
-1.2875814 2.9217706 1.8134792 58
-0.50107193 2.9347391 1.8293836 56
-0.27247554 2.9252331 1.8369709 57
-0.038892943 2.9346216 1.8407995 61
0.22634684 2.9016399 1.8429376 58.333332
0.33278567 2.990571 1.8491658 53
0.64006805 2.9025896 1.8568791 54
0.78803545 2.9299335 1.856326 56.5
0.95280927 2.9150519 1.8572295 57.5
-2.0592599 3.0509996 1.8028424 62
-1.5815238 3.0558531 1.8043114 61
-0.43093193 3.0759468 1.8321187 53
-0.054179613 3.0474823 1.845354 57
0.1468785 3.0461504 1.8496848 57
0.39639604 3.0399446 1.8478636 56
0.66479892 3.0021052 1.8537294 55
0.86281055 3.072957 1.8651456 55
0.97846609 3.0664966 1.8624402 67
-2.0095596 3.2382288 1.8030251 62
-1.6807426 3.1725695 1.800639 58
-0.080008283 3.159884 1.8423158 55
0.14685917 3.2237935 1.8508701 55.5
0.37396929 3.2167366 1.8567867 54.5
0.50913602 3.1852002 1.8524419 52
0.61229408 3.2382364 1.8602244 55
0.90790576 3.1760085 1.8646001 56
-2.1788943 3.3042586 1.8001307 70
-1.995187 3.4152303 1.804762 58
-1.7977378 3.3050544 1.8025674 55
0.14024113 3.4122641 1.8509501 54
0.35593206 3.4012764 1.8560914 54
0.67628276 3.408102 1.854154 50.5
0.81543881 3.4239955 1.8651224 54.5
-0.18809928 3.4586782 1.8369576 51
-0.11655828 3.5142114 1.8352052 11
0.37313837 3.5114505 1.8466438 2
0.55278498 3.500618 1.850459 36
-0.24286519 3.7353547 1.8131589 7
-0.057874087 3.7310214 1.8453707 50
0.39287752 3.68453 1.8646473 8
0.068369135 3.808301 1.844947 50.5
0.19091873 3.9007638 1.8519284 58
-0.02025469 4.1438432 1.8534445 56
0.23672584 4.1294174 1.8506318 52
0.37077409 4.1781435 1.8591002 53
0.46094 4.2232594 1.8628796 52
-0.01194911 4.3635077 1.8647131 33
0.00028232933 4.550694 1.8573343 53
0.23923351 4.5341668 1.8600415 52
0.5390135 4.5505686 1.8589301 54
0.67496818 4.545207 1.8646659 55
0.76861209 4.5542617 1.8644983 27
0.0043665292 4.7737875 1.8522495 50
0.27866763 4.791707 1.8763534 57
0.31718576 5.0074778 1.867999 64
0.55441624 5.0041766 1.8794266 63
0.85745662 5.0507026 1.8689038 3
0.6166299 5.2233272 1.8657316 41
-0.10558778 5.3681893 1.8602682 31
0.35383636 5.2713838 1.8645946 39
0.69435883 5.5055084 1.8738397 34
0.92634946 5.4878759 1.8785564 4
0.7749173 5.8276463 1.8773049 28
1.0278562 5.7582092 1.8736986 4
-0.071149312 5.8611131 1.8542856 21
0.12304781 5.9075098 1.8596298 36
0.25039393 5.9634733 1.8648757 35
1.1346965 6.0154018 1.8602449 15
0.26162672 6.681107 1.8596054 31
0.4141413 6.6825309 1.8637708 31
0.55068201 6.6616802 1.87052 32
0.68952143 6.6677709 1.873428 33
