# .PCD v0.7 - Point Cloud Data file format
VERSION 0.7
FIELDS x y z intensity
SIZE 4 4 4 4
TYPE F F F F
COUNT 1 1 1 1
WIDTH 187
HEIGHT 1
VIEWPOINT 0 0 0 1 0 0 0
POINTS 187
DATA ascii
4.7222099 2.2576349 -0.90774733 16
4.7210321 3.1422367 -0.95959544 16
0.83753127 -2.3299518 -0.81158954 6
2.463326 -1.5534182 -0.80474865 4
2.5753105 -1.6452149 -0.81005371 4
2.1821508 -1.4338257 -0.80854344 5
2.6072946 -1.471532 -0.81502438 7
2.1865036 -1.2025384 -0.80722076 5
2.3036125 -1.286069 -0.80942351 3
2.5938549 -1.3175584 -0.81379753 7
2.3547657 -1.1458422 -0.80854654 5
2.4131553 -1.1998044 -0.77563196 28
2.6706913 -1.0882645 -0.79755324 7
2.1817687 -0.96523488 -0.81412619 5.5
2.3152666 -1.0065821 -0.81006002 5
2.5041392 -1.0386534 -0.81656826 8
2.3814943 -0.81126589 -0.81616992 5
2.5171292 -0.84999901 -0.81309098 8
2.3154576 -0.6253854 -0.81125832 10
2.656172 0.2780863 -0.75117242 3
2.297698 0.52528405 -0.81946504 5
2.3819029 0.71523851 -0.81976902 5
2.1710925 0.932558 -0.82347041 7
2.5198839 0.93831509 -0.82396603 6
2.3152699 1.1818562 -0.82656312 6
2.6262491 1.1740216 -0.81612086 6
2.2030241 1.4904798 -0.8275457 9
2.5145037 1.4913702 -0.82949364 9
3.5995975 1.4561965 -0.82022011 0
1.8635418 1.5702453 -0.8282125 7
1.9936806 1.556115 -0.82652873 8
2.9414382 1.5308241 -0.83247286 0
2.1950526 1.8999245 -0.8291052 7
2.4724667 1.9044937 -0.83543694 7
2.6960666 1.8338749 -0.81687045 5
3.1633816 1.8932139 -0.82083905 1
4.72088 1.9436101 -0.80218816 1
4.6916208 2.1213415 -0.8104949 4
0.22485991 2.3112688 -0.81139278 18
-0.042423565 2.4772332 -0.8586157 7.6666665
0.0098476829 2.5212154 -0.85619628 15
3.1363487 2.4036958 -0.82794559 0
4.6963143 2.4970744 -0.75522876 11
-0.0052366732 2.5646544 -0.85589492 16
0.053345781 2.6940594 -0.85426027 14
4.6782408 2.625685 -0.83617365 2
0.087554544 2.7948072 -0.86236656 12.5
0.21537538 2.774622 -0.75176078 10
0.05129483 2.9209652 -0.87176871 13
-0.17667705 3.1157417 -0.8649466 11.333333
-0.11736093 3.1360278 -0.86311185 10
0.088419795 3.0639677 -0.87552232 10.5
4.7089047 3.0536759 -0.7555021 2
0.24198641 3.2450013 -0.86176181 10
-0.080351517 3.3752141 -0.86242652 10.5
0.22200127 3.4375319 -0.78751242 22
-0.055483747 3.4878042 -0.87387329 11
0.0071389498 3.5573709 -0.85697758 5
4.7282963 3.5627084 -0.87046486 0
-0.060815621 3.6887891 -0.87369925 9
-0.28620628 4.0481267 -0.86614555 2
-0.068780527 3.9204929 -0.88482326 5
-0.35200858 4.1692896 -0.87114269 2.3333333
-0.085514709 4.0902424 -0.88257813 1
-0.36271501 4.2872076 -0.86793172 1
0.064194813 4.2119622 -0.88460338 2
-0.29766738 4.4877534 -0.86807376 1
0.19635348 4.5791388 -0.88435209 8
-0.23940437 4.7060857 -0.87771344 1
-0.16702689 4.8209424 -0.86280656 9
-0.26487929 5.0947404 -0.88112062 11
0.3351298 4.9616318 -0.87698501 1
-0.55600619 5.158793 -0.75776833 1
-0.021830548 5.5471911 -0.77286422 5
-0.28894249 5.6361446 -0.89628077 10
-0.3200222 5.9898987 -0.88199055 1
0.25801289 5.953198 -0.89937085 6
-0.50130999 6.4145017 -0.80123633 4
-0.64947164 6.8504314 -0.80999744 1
0.28614968 6.8054404 -0.8056125 62
2.6448007 -2.0321209 -0.63099134 5
0.68235171 -1.8789237 -0.67103374 30
2.6456184 -1.7413911 -0.66835409 52
2.6436543 -1.4794254 -0.69343698 52
2.1963937 -1.0860634 -0.68378258 3
2.6504629 -0.90027875 -0.61543936 89
2.6536031 -0.66458917 -0.6349473 81.5
2.6549644 -0.49675411 -0.64760566 81
2.6596444 -0.35031131 -0.66346955 67.666664
2.6593537 -0.24989338 -0.66139048 85
2.6603658 -0.097417645 -0.68740249 61.333332
2.6610782 0.092753775 -0.69875568 61
2.6653969 0.25119188 -0.67580634 32
2.6697743 0.38988554 -0.65537572 19
2.6606371 0.52722526 -0.67620754 11.666667
2.6771154 0.67935836 -0.66849077 18.5
2.6716809 0.83404517 -0.66141587 16
2.6472864 0.97456133 -0.64031237 8
0.20833798 1.7250816 -0.60815537 22
4.6960979 1.8606997 -0.63710129 106
0.20978732 2.0582311 -0.70875162 21
4.6963396 2.0266328 -0.66935146 85.5
4.7030025 2.207922 -0.60326463 120
4.6995759 2.3360484 -0.70449054 91.5
0.21698517 2.4972863 -0.72270697 17
0.21334668 2.6133506 -0.71910715 18
0.21279247 2.7306018 -0.70863026 16
4.7077742 2.7256792 -0.63461256 94.5
4.6994443 2.8922069 -0.68328464 101
0.18347783 3.4757454 -0.69824946 12
4.708981 3.4895165 -0.65384603 103
-0.52769679 5.1370811 -0.71689075 1
-0.67949349 6.8630505 -0.74608612 15
-0.48431346 6.7963061 -0.64173883 100
-0.074771032 6.8425159 -0.73735237 122
0.21730967 6.8298635 -0.69243085 125
2.6367571 -1.9115285 -0.56487775 76
2.6529853 -1.2720304 -0.49815965 95
2.1971807 -0.92392397 -0.4957183 58.5
2.1937475 -0.86577702 -0.50683731 59
2.3072209 -0.77120715 -0.50922668 157
2.5387096 -0.79161888 -0.56984633 150
2.1600897 -0.71864527 -0.47400755 52
2.6547475 -0.67559952 -0.51586276 81.75
2.6519737 -0.49410596 -0.52370995 75.333336
2.6575503 -0.31806222 -0.52550441 89.5
2.6575534 -0.16092469 -0.50334525 87
2.6618061 -0.12678587 -0.58256769 92.5
2.6616929 0.030480132 -0.5547564 92.75
2.6634796 0.20596205 -0.56086713 80.25
2.6730945 0.37889752 -0.54877394 18.666666
2.6679125 0.53024817 -0.52062804 17
2.6745765 0.68075341 -0.53542441 17.333334
2.672123 0.82793885 -0.54148608 16
2.6655092 0.95808005 -0.54966205 6.6666665
0.97285455 1.1293571 -0.51151425 39
1.1149893 1.1165074 -0.51181901 43
1.0851688 1.2338166 -0.47308859 36
0.20154093 1.4191017 -0.4983384 8
0.2091639 1.5699439 -0.51358551 23.333334
0.20961036 1.7257867 -0.48154438 28
0.20908315 1.8435259 -0.47575536 28.666666
4.6848311 1.8381515 -0.49839941 100
0.21018215 2.0058794 -0.53465271 19
0.21326925 2.2195687 -0.5261234 25.5
4.7096615 2.4157779 -0.54855287 100
0.20950152 2.6252165 -0.4870331 13
4.7079577 2.5734205 -0.55716974 109
4.7126679 2.7951629 -0.46129447 88
4.7119126 2.9622629 -0.4972581 103
0.2224613 3.0504274 -0.54559624 18
4.7132931 3.139205 -0.54694402 97
4.7069578 3.3158338 -0.59634328 95
-0.76566052 3.4801242 -0.48914146 11.333333
-0.69767308 3.5007389 -0.49276909 10.833333
4.7076774 3.7648249 -0.48972508 93
-0.18755485 5.2455721 -0.47646669 95
-0.46028829 5.3449278 -0.45991591 65
-0.20485196 5.3307281 -0.49195278 64.5
-0.34617162 5.5358758 -0.54841542 1
-0.15184253 5.5337119 -0.56459337 11
-1.5155511 6.8586497 -0.49056268 128
0.48810858 6.8249397 -0.51115447 58
2.6481805 -1.5431941 -0.43813378 80
2.6506362 -1.4280462 -0.43019608 150
2.6541653 -1.2555881 -0.4219301 86.5
2.2044227 -0.89302307 -0.44420239 60
2.1526654 -0.71857262 -0.42549163 50.5
2.6035795 -0.50244713 -0.42801049 112
2.660552 -0.36538422 -0.43435997 83
2.6614487 -0.19847684 -0.4424175 87
2.6596909 -0.032502048 -0.44526878 85
2.6597533 0.13162971 -0.44329187 88
2.6673763 0.2980437 -0.43666136 18
2.6721852 0.46554965 -0.42496699 18
2.6735585 0.63409001 -0.40750107 17
1.1020424 1.2463847 -0.42283067 19
0.20873125 1.9576221 -0.43432614 32
0.21154286 2.169632 -0.4125981 21
4.7026825 2.1752591 -0.43517467 110
0.20970671 2.3379602 -0.43690264 21.5
0.22318794 3.058948 -0.40660957 21
4.7149305 3.3805058 -0.42144892 107
-0.71106493 3.4822056 -0.42820191 11.5
4.7135181 3.5775833 -0.43902487 98
-1.5441736 6.8681941 -0.43205664 123
-1.4723452 6.8543186 -0.40482864 131
