# .PCD v0.7 - Point Cloud Data file format
VERSION 0.7
FIELDS x y z intensity
SIZE 4 4 4 4
TYPE F F F F
COUNT 1 1 1 1
WIDTH 1744
HEIGHT 1
VIEWPOINT 0 0 0 1 0 0 0
POINTS 1744
DATA ascii
2.1101074 -2.6332932 -0.16690755 66.5
2.1117887 -2.5231581 -0.16691846 70
2.1205475 -1.9793593 -0.18805283 72
2.1257012 -1.4706848 -0.15490332 150
2.1291311 -1.3037136 -0.1628463 109
-0.58828074 -1.0633583 -0.15004492 2
0.11630566 -1.1602176 -0.17853959 5
0.17525776 -1.163087 -0.16911818 9
-0.57471865 -0.98194236 -0.17955798 1.3333334
0.19077159 -0.91773629 -0.16223975 6
1.6662484 -0.94403446 -0.15948144 24
-0.60183805 -0.75970757 -0.15038723 10
-0.56516898 -0.83061606 -0.16730788 3.75
-0.37516236 -0.77958775 -0.18642263 2.8333333
-0.24600226 -0.81294125 -0.1906319 4
-0.084711753 -0.80381495 -0.18692233 0
0.19777843 -0.83452827 -0.17195079 5.875
-0.35609344 -0.71197158 -0.1767548 2.375
1.7008843 -0.69438422 -0.1794299 28
2.1646378 -0.35449412 -0.17332648 90.666664
2.1692252 -0.18947753 -0.17430159 90
2.171854 -0.05987142 -0.17105491 102.5
2.1731367 0.0795592 -0.17866471 87.5
2.1860251 0.22244324 -0.17882873 19
2.1839542 0.36610401 -0.1738783 17
2.1821256 0.51197696 -0.16092193 16
2.1909697 0.67719835 -0.1502029 16
-0.30213711 0.97917128 -0.19256943 0
-0.22726221 0.9428634 -0.18222284 19.333334
-0.066857807 0.94117117 -0.1723652 17.125
0.010204238 0.93683904 -0.1819765 18
-0.30243385 1.0934542 -0.1517006 0
0.4191817 1.1782141 -0.15228432 7
0.48751736 1.1436309 -0.19417016 0
0.45789954 1.2914336 -0.17976394 9
0.79089731 1.3835368 -0.17038038 36
4.210268 1.9119242 -0.17001092 95
4.2171268 2.1915522 -0.15280807 91
4.2262955 2.4479516 -0.19523013 92
2.2103984 2.5700927 -0.1847425 5
2.2279193 2.9190326 -0.17379747 5
4.2481136 3.1297531 -0.16437781 96
-0.26751027 3.2061119 -0.18571417 3
-1.2527826 3.4476902 -0.18916555 1
-1.2210281 3.4589334 -0.17023112 4
-0.59606946 5.1606669 -0.19355418 1
-0.50634575 5.3518128 -0.16064817 1
-1.1006008 6.7082601 -0.17791349 6
2.0958762 -2.9949479 -0.029338663 52
2.1041799 -2.9039922 -0.042215798 62.5
2.0997641 -2.7824638 -0.021072691 56
2.1037593 -2.8126059 -0.084039561 66.5
2.1082649 -2.603786 -0.081042476 65.5
2.118561 -2.3419077 -0.12891793 56
2.1180794 -2.1948895 -0.097588129 67
2.1293364 -1.6594074 -0.052056976 83.5
2.1337972 -1.6049371 -0.017978108 71
2.1197658 -1.4331764 -0.066449448 121.6
2.1284003 -1.3029954 -0.099362843 101
-0.57549334 -1.1213043 -0.13239281 12.5
-0.56402397 -0.94907957 -0.13060381 3.1666667
0.10205835 -0.9143973 -0.1029887 1.6666666
0.18730401 -0.9766739 -0.11507457 5.6666665
1.6708165 -0.92115653 -0.097763665 32
-0.62035084 -0.75344563 -0.13233204 13.333333
-0.54397529 -0.80675715 -0.1228123 5.7647057
-0.054954439 -0.7554841 -0.096690424 6
0.058767468 -0.79096246 -0.10385199 4.75
0.19141617 -0.86818433 -0.12938631 5.5
1.6160146 -0.81176537 -0.056760952 61
1.6663722 -0.79933 -0.14332649 46
-0.64345396 -0.74466348 -0.11096212 11.833333
-0.56081021 -0.74336731 -0.10160638 11.6
-0.37596497 -0.71775526 -0.066053689 2.8888888
-0.21139461 -0.68444604 -0.056774452 1.6666666
-0.11203068 -0.74157202 -0.067963116 1.8181819
1.6463714 -0.72391319 -0.0403811 60
1.7005343 -0.63826489 -0.082794502 32
1.9799964 -0.64246929 -0.12006298 17
1.9271014 -0.5750587 -0.077057101 29
2.0475826 -0.58725238 -0.067324065 150
2.1589544 -0.50046211 -0.099741921 83.25
2.1618445 -0.34754947 -0.069923997 90
2.1678131 -0.21318881 -0.090353228 94.666664
2.1674309 -0.093493141 -0.056916147 91.333336
2.1688731 0.060805038 -0.051766165 89
2.1760857 0.20872171 -0.063539453 49.666668
2.17203 0.35977206 -0.087125383 16
2.1825559 0.52437913 -0.068119325 16
2.1883545 0.68234742 -0.064669959 16
2.1890595 0.85190308 -0.060478672 14.25
-0.31603828 0.95154858 -0.031459287 5.3333335
-0.2245563 0.94545436 -0.079040848 16.473684
-0.082920991 0.93817186 -0.091448016 15.083333
0.032516789 0.93993521 -0.083173081 12.2
0.68038005 1.0211003 -0.08665356 28
2.1482961 0.93992078 -0.075988419 0
0.42505935 1.1370404 -0.070004985 12
0.45924342 1.1344968 -0.013149773 58
0.66918522 1.0703355 -0.094183505 6.8571429
-0.30481869 1.2771225 -0.080972873 0.5
0.42518574 1.3017898 -0.067113854 9
0.58405006 1.2532085 -0.14898416 7
0.60954732 1.2354991 -0.021298235 44.5
0.83576143 1.383135 -0.028536519 4
4.2167163 2.0351677 -0.085131563 106
4.2118058 2.2101321 -0.097481258 86
4.221364 2.3488884 -0.028620547 97
4.2190647 2.5207157 -0.046884499 89.5
4.2298098 2.6783006 -0.1458137 92
4.2240582 2.7908266 -0.096479781 83
2.2203906 2.8713191 -0.083671428 5
4.2343931 3.0401664 -0.045260135 98
4.2347636 3.2099917 -0.095781244 103
-1.1843928 3.4441667 -0.12635773 4
-0.27895078 3.4350641 -0.11215008 1
-1.2672882 3.4891372 -0.062937371 2.5
-1.1374958 3.504518 -0.1115884 5.1999998
4.2472892 3.5398264 -0.024606621 89
-1.1377636 4.5951958 -0.085563675 2
-0.48715502 5.3728452 -0.10715068 0
-0.43172586 6.7975097 -0.093324848 20
2.099864 -3.2844563 0.097598813 2
2.1004901 -3.1923616 0.080376841 25.5
2.0996039 -3.1062274 0.13006109 4
2.101124 -3.1129134 0.040175911 53
2.1019804 -2.8773482 0.11863225 48
2.0970454 -2.6702192 0.1219505 54
2.107887 -2.4222481 0.0050982488 57
2.1176 -2.0500264 0.10861927 76
2.1224754 -1.851643 0.068180442 74.25
2.1260126 -1.7042731 0.063935645 74.25
2.1350551 -1.523458 0.038107242 73
-0.8081274 -1.3572844 0.13421261 21.5
2.1233056 -1.4383707 0.090345941 81
-1.1181059 -1.2883084 0.1316812 4
-0.95961112 -1.2501754 0.10822991 6.6666665
-0.60351115 -1.2105592 0.12822914 1
2.1302426 -1.2828828 0.019926393 86
-1.0531919 -1.1830018 0.14317805 9
1.5386569 -1.0514534 0.11806773 25
1.5978086 -0.93259406 0.062780336 27
1.6541429 -0.99395102 0.0072596623 19
1.5923197 -0.81245828 0.090994991 29.666666
-0.46454448 -0.6874209 0.070891544 1.25
-0.39716244 -0.70039362 0.04556559 2.8461537
-0.220755 -0.70727867 0.076212898 2.4705882
-0.0736591 -0.7129007 0.093984522 1
1.632447 -0.64676923 0.098079018 49
1.7002865 -0.65330434 0.074725144 42.099998
2.1481051 -0.60309184 0.037700262 83
1.7835464 -0.58140182 0.090040557 38
1.8474636 -0.5385415 0.079409353 152
2.036464 -0.59303111 0.045755114 150
2.1513999 -0.50500053 0.084122963 78.833336
2.158 -0.37170997 0.080120526 77
2.1639168 -0.22020714 0.065034375 78.571426
-1.1125842 -0.024689704 0.1348 5
2.1671531 -0.072125979 0.084416673 80.25
-1.0807232 0.079317816 0.10448786 1.6
-1.0421237 0.12496906 0.055524316 0
2.1694391 0.06672921 0.08104305 77.625
-1.0582656 0.16754363 0.10165026 0
-1.0222894 0.19244757 0.046036195 0
2.1764379 0.22783557 0.07959269 35.799999
2.1750991 0.38426703 0.072746508 15.625
2.1820889 0.5215112 0.08310046 14.875
2.1865206 0.64683783 0.073172204 15
2.1855195 0.78512633 0.098204121 14.2
0.094777144 1.0304238 0.097407512 5.3333335
0.68372905 1.0254982 0.093125686 24
0.84062487 1.0347462 0.10765927 11
2.1621709 0.93115771 0.11926045 5.5
-0.064704083 1.0966821 0.058542676 5
0.093582168 1.0718161 0.1302669 6
0.42928207 1.1348696 0.038267154 9.25
0.50364232 1.1108966 0.086461358 39.25
0.6707657 1.0937582 0.13562344 9
0.86213207 1.1139925 0.11314589 15.75
0.90637451 1.1392617 0.077328496 23
0.43333539 1.2928036 0.089272879 32
0.50580037 1.2629203 0.083230294 8.5
0.66528052 1.2612222 0.04641816 59.166668
0.80127388 1.3651724 0.0070472411 31.333334
4.2209892 1.8205942 0.11785328 8
4.2135649 2.0131388 0.015570785 91
4.2128043 2.2933784 0.091326229 95
2.2204287 2.4906769 0.069747142 0
4.2276497 2.6840413 0.042557355 91
4.2227116 2.8584962 0.047121249 90
4.2432799 3.0508933 0.13254249 98
4.2397413 3.20502 0.066109009 89
-1.1540444 3.4496663 0.092982136 7
4.241931 3.4296503 0.076009743 87
-1.1562654 3.4516599 0.023965621 5
4.2501082 3.6220913 0.042132344 94
-1.1472141 4.6070685 0.040351655 1
-0.50356126 5.3206902 0.0096879555 0
-0.96617603 5.7931657 0.058834102 1
-1.0960283 5.8869805 0.048690345 9
-2.5135863 6.8388329 0.081310034 101
-0.95217651 6.8008366 0.14840215 57
2.0967574 -2.9543543 0.2597267 46
2.1121242 -2.2748463 0.25867274 56.333332
2.1219101 -2.0487649 0.18353008 72.5
2.1177628 -1.8853271 0.22779131 66
2.12356 -1.7822061 0.2649067 56
2.1274841 -1.5680665 0.20172399 67.5
-0.92430115 -1.3720365 0.2000598 4.5
-0.87421656 -1.4163476 0.21777745 8.666667
2.1270032 -1.4326985 0.20570526 79
-1.0968672 -1.2390097 0.22257401 17.166666
-0.96833235 -1.2708038 0.22612754 11.909091
-0.85046422 -1.3123401 0.17263433 14
-0.6022169 -1.2181901 0.15295166 1
2.120949 -1.3246247 0.20678541 113.5
1.5405815 -1.1247281 0.20198685 7
1.4544568 -1.0027696 0.28587091 14
1.5445143 -0.97287107 0.22509022 21.25
1.5864766 -0.83097184 0.23583205 26.799999
-0.33227617 -0.667184 0.17167002 1
-0.24112946 -0.65749085 0.18688604 1.375
-0.095317498 -0.68144774 0.17164879 0
1.6046344 -0.70231378 0.2279429 28.25
1.6869011 -0.65580493 0.21870446 31.6
1.8666505 -0.63139355 0.25244576 38.5
2.0015278 -0.64608598 0.23640499 150
-0.33676204 -0.49975038 0.27257901 1
-0.2223134 -0.5202688 0.28375554 1.25
1.7115512 -0.58757037 0.29981852 17
1.9287784 -0.59208632 0.23817861 18
1.9904597 -0.53736842 0.29314411 150
2.1498604 -0.53557479 0.2156544 76.85714
2.1529424 -0.37062857 0.21629913 77.14286
2.158958 -0.22054477 0.20890805 79.14286
-1.2501084 -0.069414876 0.21253976 2.5
2.1596923 -0.074388564 0.24153757 78.199997
-1.2169907 0.072911628 0.25957474 0
-1.1755295 0.11121343 0.22474891 0
2.1656318 0.07000412 0.22793241 73.400002
-1.2075487 0.20592009 0.28152406 0
-1.1812534 0.2025689 0.24770522 0
2.1764359 0.20644712 0.22502162 18.75
2.1755202 0.36198309 0.2395786 15.166667
2.1804297 0.53718644 0.23504336 13.857142
2.1831517 0.69937068 0.20640282 16
-1.5083213 0.84059483 0.29469728 43
2.1818688 0.84719384 0.20474645 15.6
-1.5323964 0.93588078 0.23733969 57.200001
-1.4673356 0.94052696 0.28056452 40
0.093277678 1.0316876 0.18877488 7
0.68489158 1.0322831 0.24704953 16.857143
0.78726995 1.0261567 0.23116222 15.5
0.092982829 1.1156331 0.2009455 6
0.42598182 1.1371864 0.2515437 14.8
0.50507033 1.1067159 0.20488295 16.857143
0.66055733 1.1284101 0.20051691 34.285713
0.78768182 1.0888567 0.22058421 21
0.096174657 1.2455432 0.23436077 5.25
0.42732728 1.2901366 0.20406479 10
0.56630749 1.2301252 0.27344263 1
0.63318533 1.2253411 0.26671705 54.5
0.45073187 1.3830799 0.21628892 6
0.087511674 1.5491664 0.2260133 82
4.2125349 2.0466368 0.21718103 99
4.2107673 2.1177239 0.20153111 86
4.2222328 2.5932209 0.17996329 85
4.2228518 2.9042573 0.28299135 88
4.241035 3.2139664 0.2128908 86
-1.1891024 3.4395137 0.19614649 0
4.2475567 3.4389575 0.24049431 97
-1.1171088 3.5553303 0.21137364 4.3333335
4.2494769 3.5640428 0.16359109 86
4.2460661 3.6469483 0.23672265 87
4.2501431 3.8497126 0.21910805 92
-1.1421815 4.1105661 0.28139812 0
-1.1389401 5.30545 0.26735529 15
-0.54839206 5.4239111 0.22935003 1
-2.5661173 6.834475 0.24878144 98
-2.5171416 6.8320866 0.20816956 94.333336
-0.94428533 6.8132448 0.20019382 100
-0.83794886 6.8147469 0.15874141 120
-0.57366353 6.7964039 0.23589832 118
2.1043718 -2.519469 0.39703834 53.5
2.1123874 -2.2947991 0.30915827 52
2.1064906 -2.2144928 0.31945616 49
2.117898 -2.028157 0.35807917 57
2.1099114 -1.8331667 0.42595837 63.5
2.1201253 -1.6693281 0.32946372 61
2.1248329 -1.593501 0.38324344 64.5
2.1247303 -1.4591227 0.38293409 84.333336
1.4833775 -1.0524259 0.37027144 13
1.4943557 -1.037827 0.39373648 48
1.5732468 -0.97759533 0.37918591 73.285713
1.5620099 -0.82011384 0.34729406 32.400002
1.6544454 -0.75509006 0.30305988 40
-0.34700337 -0.64313173 0.36512804 1.75
-0.24423154 -0.66386783 0.37138295 1
-0.12018955 -0.6733861 0.38250643 0.2
1.588285 -0.72492373 0.34647623 55.5
1.6786362 -0.66966754 0.36712542 63.166668
2.0651982 -0.61742163 0.34534478 150
-0.3459661 -0.54471844 0.32360625 0
-0.22963861 -0.53438425 0.32779324 2
1.797349 -0.57181036 0.37907261 66
1.8070865 -0.58699304 0.35943091 81
2.1441028 -0.5095101 0.3725132 71.166664
2.1459041 -0.36349905 0.39976585 73.599998
2.1515768 -0.23733336 0.37364358 72
-1.3652176 -0.030404756 0.37491712 3.3333333
-1.3231703 -0.054068096 0.38722733 6
2.1563685 -0.072885595 0.37827936 62.333332
-1.2381361 0.061275557 0.36502466 0
-1.1809916 0.11193164 0.37313676 0
2.1626792 0.085290097 0.36941612 68
-1.2154078 0.23299006 0.3790462 0
-1.1861383 0.21883599 0.35522822 0
2.172008 0.23220868 0.3757917 31.6
-1.2388743 0.36408997 0.37457326 7.3333335
2.1802502 0.39280722 0.38054356 17.25
2.1791327 0.52604109 0.40049693 15.666667
2.1737981 0.67448872 0.38556793 11.833333
-1.5203655 0.85621381 0.37924773 34.25
-1.4900523 0.83845466 0.33360195 44.5
2.1784856 0.81359065 0.36391267 14.5
-1.453348 0.92757934 0.36533004 29.714285
0.091567859 0.99422014 0.35518116 5
0.29618394 1.0144955 0.39624095 2
0.31781906 1.0434011 0.41235054 4
0.69661164 1.0234579 0.35108396 12.222222
0.094467655 1.0993218 0.40594935 4.1999998
0.43718895 1.1338693 0.40524146 32.333332
0.52258778 1.1471261 0.38050738 27.333334
0.66813087 1.1017665 0.38724756 33.888889
0.78694528 1.0670258 0.31903535 0
0.096258558 1.2747949 0.32636282 5.3333335
0.44182059 1.2863939 0.36626458 84.333336
0.48066944 1.2581241 0.36926579 53
0.71881962 1.2347019 0.39547208 74.333336
0.78333467 1.2876999 0.42197937 137
0.092099741 1.4179525 0.41044879 29
0.47532642 1.3795458 0.41119391 97
-0.16268437 1.6302298 0.43815625 61
0.095842503 1.5362358 0.40631649 23.666666
-0.16837627 1.7237285 0.42239726 151
-0.045556773 1.9114913 0.41394746 20
4.2123041 1.905551 0.32498077 95
-0.17284338 2.0179236 0.37325466 2
4.2136202 2.1934004 0.40919673 90.5
4.2167225 2.3502405 0.31101412 90
4.2144594 2.4336839 0.30408132 92
4.2178235 2.6662257 0.42276901 90
4.223175 2.7684002 0.42859113 85
4.2312398 3.2379439 0.40262276 94
-1.2353014 3.443279 0.32540035 0
-2.1965261 3.4690533 0.40853208 0
-1.3024583 3.5045891 0.35217959 0
-1.1091189 3.5536249 0.31167245 4
4.2389269 3.5840168 0.3539592 85
4.2573409 3.8657951 0.37291831 95
-1.143883 5.2867084 0.40957487 19
-1.1194139 5.8441563 0.31040287 15
-3.0054109 6.840652 0.31152183 101
-2.9779873 6.8423481 0.39788112 95
-2.4484174 6.8340821 0.36641851 96.333336
-2.3178573 6.8389745 0.34447524 85.5
-0.95555025 6.800426 0.35860413 116
2.0964789 -2.7842669 0.54475999 49.5
2.1076555 -2.4577894 0.47199732 37
2.1045089 -2.2986095 0.47831672 46
2.1139565 -2.1620331 0.48948276 45
2.1087298 -2.013885 0.53872013 60
2.1153018 -1.8355631 0.54883629 61
2.1175976 -1.7510933 0.52359164 59.5
2.1208694 -1.5902497 0.50449026 58.5
2.1205573 -1.497529 0.58053929 64
1.5531278 -1.0649757 0.55037463 35.5
1.5920718 -0.97150981 0.49185047 68.14286
1.593188 -0.84829783 0.52209717 49.75
1.6909587 -0.81554335 0.48661441 59
1.6847953 -0.69067597 0.48663166 89
2.0136461 -0.63567013 0.58062077 150
1.9035089 -0.58890754 0.46100718 148
2.1411629 -0.52999479 0.53227526 63.75
2.1448684 -0.40205157 0.51040602 57
2.1508169 -0.21277276 0.51699924 64.5
-1.3017608 -0.018165186 0.46193019 8
2.150239 -0.064176112 0.4978925 66
-1.2398025 0.066713855 0.51052088 0.25
2.1580048 0.084433429 0.4912681 56
-1.2218534 0.22725552 0.5186584 1
-1.1860017 0.2346738 0.48565769 0
2.1646638 0.23519902 0.49233389 11
-1.2172428 0.36575046 0.50051695 9.3999996
-1.1977106 0.36727941 0.50450027 32
2.1750703 0.390894 0.50616699 12
2.177799 0.54958397 0.52690822 12
2.1741548 0.69426012 0.49997383 12
-1.5400132 0.86357915 0.51430947 56
2.1769741 0.82882649 0.5055359 12.333333
-1.4680227 0.94106787 0.49814004 39.400002
0.089858457 0.97365475 0.53230888 18.6
0.37422216 1.0355426 0.49376535 18.666666
0.6086157 1.0494634 0.45801938 25
0.09203013 1.1568207 0.52829599 4
0.38486126 1.120965 0.51743382 23.17647
0.49757281 1.1295365 0.48988971 60.42857
0.64128959 1.164379 0.48685384 56.5
0.094475411 1.3014389 0.56079108 10
0.40588799 1.2493376 0.48724756 32.666668
0.54186314 1.2024846 0.48121542 57
0.65217382 1.2711804 0.51727074 60
0.093530521 1.4431094 0.48797244 30
0.78194815 1.3518441 0.47972006 40
0.091411844 1.5625417 0.51954663 24.5
0.51707131 1.5147697 0.49895018 4
-0.20421383 1.761446 0.51408845 37.5
-0.064308114 1.6586635 0.5786677 23.5
-0.26077062 1.818305 0.55539066 77
-0.074871391 1.8699031 0.47889289 106.66666
0.10139956 2.0355151 0.4685868 32
4.2051964 2.0129545 0.52057958 87
0.10387839 2.2773347 0.56268477 39
4.209507 2.3521924 0.59693766 91
4.21416 2.492142 0.50936091 83
2.2031827 2.9844134 0.51751453 1
4.2332087 3.0659249 0.56691551 90.5
-2.5577419 3.5086458 0.46162271 32
-2.5192499 3.5077782 0.54170567 28
-2.19192 3.466702 0.46210402 0
-1.3313013 3.5206616 0.45410049 1
4.2378654 3.5931547 0.54244488 93
4.2338104 3.9786141 0.51703864 14
-1.1525308 5.2918434 0.52818149 18
-3.3413582 6.5034819 0.55548763 95
-3.0116303 6.8425703 0.55917388 87
-2.9769838 6.8378315 0.52349138 90.5
-2.683553 6.8435755 0.574453 80
-2.3876748 6.8284693 0.51050764 104
-0.97255695 6.8020129 0.49999923 118
-0.52705026 6.7995801 0.54737663 104
-0.36710981 6.7918134 0.56687331 63
2.093111 -3.0617723 0.70881742 49.333332
2.0870636 -2.7001514 0.64258361 44
2.0968981 -2.527086 0.63206446 44
2.1064553 -2.3699574 0.62469685 41
2.1048405 -2.1967394 0.69260627 49.333332
2.1112614 -2.0087042 0.67398417 56
2.1168983 -1.7163365 0.64199555 58
2.1163006 -1.5799823 0.68527913 55
2.1175246 -1.4527694 0.70043325 59.666668
1.5753869 -0.95922714 0.61594665 9
-1.2543558 0.10631687 0.69365066 4
-1.1790193 0.077953547 0.71654785 5.5
-1.2337477 0.17769364 0.62697601 7.5
-1.1719962 0.16845016 0.71124458 7.5999999
-1.5798582 0.89922774 0.6148051 7
2.1773672 0.88568991 0.60212207 10
-1.5997857 0.9029811 0.63114321 9
0.087556921 0.9832058 0.61891156 16.666666
0.088922776 1.1028583 0.6905992 13.777778
0.39423907 1.1948305 0.62648344 1
0.089660659 1.3014526 0.66141427 20.75
0.43222469 1.2474816 0.69385302 151
-0.1613498 1.6599315 0.65232754 55.5
-0.10309041 1.6851656 0.68997687 11
0.094807222 1.7341979 0.68504775 30
4.2107072 1.7951623 0.73302984 2
-0.262705 1.8488103 0.62876797 37
0.092852637 1.8353931 0.70964944 26
4.2080889 1.9199672 0.61812109 92
0.097334862 1.9974566 0.70139813 19.666666
4.202991 2.0088918 0.68653119 92.5
4.2087016 2.2087033 0.673042 88.666664
4.213469 2.2840772 0.73294735 92
4.2061205 2.5124347 0.72040474 87
0.10303293 2.5552773 0.6631906 128
4.2161713 2.658047 0.69857228 88
4.2203865 2.8105979 0.63048959 83.5
4.2370129 3.3582695 0.71227837 93
-2.8841066 3.5098035 0.64876163 26
-2.8410623 3.5073097 0.73747993 24.5
-2.4829588 3.505538 0.66614175 25.25
-2.3716612 3.5035403 0.67517614 21.5
-1.1690661 3.4570038 0.74251318 0
4.2461686 3.9769723 0.70238864 26
-1.1560048 5.2881083 0.64752316 19
-3.3169279 6.5032058 0.69539231 69.333336
-2.9016535 6.8383517 0.66546291 86
-2.7670374 6.8425608 0.63729638 80
-2.3761151 6.8308129 0.65449107 96
-0.99149042 6.8066897 0.64595056 113
2.0886447 -3.3412406 0.88405573 52
2.0937033 -3.1536062 0.75305951 50
2.0914485 -2.99599 0.85275018 50
2.0937605 -2.782789 0.81353581 47
2.0956326 -2.5924942 0.77902365 50
2.0964539 -2.4187601 0.76347435 41
2.0946481 -2.3836827 0.87058246 48.5
2.1012251 -2.2796335 0.89704883 41
2.106066 -2.1640291 0.82811928 47
2.1078448 -1.9843824 0.8942697 45
2.113364 -1.8554114 0.776124 54.333332
2.112463 -1.7111915 0.83332491 53
2.1149607 -1.5705413 0.81677479 53.166668
2.1219959 -1.4392538 0.81825852 51.5
2.1018963 -1.3109165 0.87812877 150
-1.2464242 0.050188947 0.78101879 1
-1.1575649 0.081848875 0.77026713 1.6
-1.2162747 0.25771457 0.79861486 4
-1.162303 0.21430436 0.77629769 6.5
-1.6260591 0.71227425 0.83996427 4
-1.5444494 0.80749041 0.83838183 7
0.086776949 1.14653 0.80601192 22.333334
0.087474644 1.3002807 0.88788438 20.5
0.088750064 1.4137615 0.84534436 22.333334
0.46077871 1.3845788 0.82490349 2
-0.17937899 1.5916859 0.81419814 4
-0.12202674 1.6492015 0.78216159 11
0.091295615 1.5729698 0.8295486 19.25
-0.13718769 1.7028627 0.78281105 15
0.093060508 1.9474376 0.8554858 25
4.2091002 1.8356806 0.78205872 82
0.091740534 2.0053556 0.79365671 18
4.2092247 2.0544484 0.84645653 89
4.2038107 2.2773123 0.83735693 86
4.2138042 2.4891019 0.80278641 88.5
4.2122755 2.5793862 0.85978866 81
4.2223682 2.8023546 0.85448372 92.5
4.2296762 2.9865906 0.82097805 93
4.2293744 3.1269324 0.77858567 83
4.2319684 3.17239 0.76630664 84
-0.21307226 3.4270711 0.84491575 7
-3.2511132 3.5146761 0.85712552 20
-2.8085616 3.5041254 0.83277583 26.5
-2.6772459 3.5086241 0.85099107 26.333334
-2.4338179 3.5010905 0.80268097 24.5
-1.1283557 3.5957651 0.76791072 5
4.2378912 3.4996276 0.75105953 90
4.2357101 3.7289469 0.89286077 90
-1.1600457 4.0190692 0.86269104 0
-1.1604927 4.0763903 0.82099503 0
-3.3222008 6.5000854 0.82314551 61
-3.2863145 6.5466042 0.83986539 26.5
-3.1731277 6.846168 0.86447954 75
-2.8525059 6.8323464 0.79690337 76
-2.3621817 6.8283696 0.80425835 100
-0.91941953 6.8122172 0.84681106 99
-0.75807959 6.7949872 0.84941041 113
-0.61504191 6.7956519 0.86248922 110
-0.47988927 6.805829 0.86473429 114
-0.42884636 6.8085794 0.86314464 9
2.0864954 -3.5241661 0.96595192 51
2.0810785 -3.4052663 0.92783594 48.5
2.087821 -3.0628929 1.0224215 45
2.0870602 -2.8373938 0.95755231 49
2.0932648 -2.625401 0.97253197 53
2.0951896 -2.3954008 0.93610615 46.5
2.1011262 -2.1591175 1.034855 41
2.1038003 -1.9840844 0.98494488 48
2.1094346 -1.8671347 0.95977247 51.25
2.1105578 -1.7170576 0.9556284 50.5
2.1135283 -1.5412042 0.9506613 47
2.1188262 -1.4005098 0.96940494 47.5
0.084911868 1.2672538 0.97701538 21.125
0.087091312 1.5916388 0.98305255 21.5
4.2031379 1.9865463 1.0187192 84
0.098087654 2.1715627 0.99713731 26
4.2140155 2.3291514 0.95539111 85.333336
4.2047358 2.5402298 0.93901539 87
4.2275529 2.8119464 0.98809457 90
4.2303281 2.9018805 1.0159948 86
4.2273588 3.1265383 0.98678625 86
-0.22778338 3.4200511 0.95655453 94
4.2243733 3.3241336 0.96059525 87
-3.1960781 3.5152395 0.97259218 23.333334
-3.0382168 3.5212698 1.0114917 24
-2.7653985 3.4989552 0.93886614 27
-2.6940329 3.5051708 0.94937563 27
-2.4276135 3.502928 1.0453947 18
-2.3380079 3.5014453 0.98810202 21
4.2379045 3.5072942 0.93910712 88
4.2411256 3.9013135 0.95636439 78
-1.1664153 4.1059699 0.99739337 0
-1.1690981 5.2445445 1.0309082 4
-1.1466842 5.6427369 0.90070009 16
-3.293314 6.5626054 0.95490789 23
-3.257704 6.8142262 0.96492046 56.666668
-2.8304243 6.8363051 0.95432794 75
-2.4501996 6.8309412 1.0323707 69
-2.2968366 6.8307419 1.0062826 64
-0.45085451 6.7958155 1.0233555 110
2.0727322 -3.8384433 1.1934594 52
2.076827 -3.7127285 1.1403625 53
2.0813496 -3.3064394 1.0924844 50
2.0832069 -3.1163707 1.1698054 47
2.0947902 -2.8975697 1.1057843 49
2.0924432 -2.6272662 1.092157 52
2.0936568 -2.4912715 1.0831923 47
2.0947371 -2.3310599 1.1249976 43.5
2.0964699 -2.1798718 1.1692761 48
2.1028595 -2.1180639 1.1208849 48
2.1024883 -2.0316627 1.138436 50.333332
2.1062253 -1.8735203 1.1003745 46.200001
2.113117 -1.7440435 1.1404592 46.666668
2.1135156 -1.6159538 1.0968488 47.333332
2.115289 -1.4847881 1.0542693 47
0.082941011 1.4148952 1.1634451 19
0.083809271 1.5110432 1.1915108 18
0.087597236 1.6898248 1.1035787 22
4.2027669 1.8353519 1.164116 78
4.2003908 2.0068946 1.0629283 89
4.204957 2.2331712 1.1078779 81
0.099979416 2.3659859 1.190268 21
4.1971116 2.2544069 1.1611584 73
4.2101617 2.2615089 1.1281128 81
0.095895067 2.4272659 1.1654662 18
4.2086468 2.5494087 1.0657926 79
4.2160645 2.6435781 1.0909214 83
4.2166839 2.8228436 1.060173 92
4.228425 3.1251094 1.1743953 90
4.2355595 3.2337339 1.1938329 87
-3.6559894 3.5182149 1.1334076 29.25
-3.1830277 3.513545 1.0539896 22
-3.0756915 3.5125844 1.135861 23.333334
-2.7328887 3.5053415 1.061363 23
-2.6859403 3.5024915 1.1711262 20
-2.4253221 3.4954786 1.1436201 24
-2.3611498 3.4985647 1.1066505 14
4.2337723 3.4753683 1.1425428 83
4.2349653 3.6998112 1.1300651 84
4.2416167 3.8623252 1.1483586 74
4.2391472 3.9137015 1.11669 74
-1.1785913 4.1998053 1.1341481 0
-1.1410142 5.7853956 1.1425424 15.5
-3.5436406 6.5055695 1.1330218 71
-3.2878435 6.7085052 1.0730457 27
-1.1462828 6.7350669 1.1282736 32
-2.8038821 6.8334556 1.1151788 81
-1.0135798 6.8146329 1.1443061 113
-0.86349976 6.8064675 1.1265525 106.5
-0.47724327 6.7915769 1.1706376 114
2.0743494 -3.9515975 1.2254431 49
2.0791404 -3.3711629 1.2682512 49
2.0838757 -3.1638443 1.3124974 53
2.0924661 -2.893358 1.2938243 52.333332
2.090482 -2.7832849 1.2618639 51
2.0879729 -2.5213792 1.2408369 46
2.0960169 -2.3180616 1.2993242 48.666668
2.0980909 -2.1655636 1.2785137 50
2.0997698 -2.087702 1.2340608 49
2.1048021 -2.0036395 1.2604845 46.666668
2.1050217 -1.9024608 1.3089578 43.5
-3.4415221 -1.7010918 1.3198009 88
2.1109014 -1.7716686 1.2674344 45
-3.4350181 -1.3985996 1.3076937 95.5
-3.4284344 -1.1121665 1.2937814 37.5
0.081193671 1.4244212 1.3060225 17
0.085821785 1.5813276 1.2822505 18.333334
0.089792535 1.6978897 1.2545447 18
0.088638082 1.8477566 1.2297704 20
4.2001309 1.9324569 1.2217065 81
0.095068529 2.0118942 1.24424 17.5
4.194509 1.995638 1.29784 82
4.2026205 2.0793424 1.2368492 84
0.10051526 2.1842155 1.2882726 19
4.2034211 2.1761184 1.3170934 80
4.2055092 2.3368332 1.3260044 86
4.2054052 2.5164926 1.2488915 79.333336
0.098590478 2.7537501 1.3306504 17
4.2217264 2.822798 1.2799656 81
4.2248793 2.9484091 1.2451823 84.5
-4.2233686 3.5383296 1.3453619 21
-4.1736021 3.5194099 1.3477042 27
-3.6294746 3.5111885 1.2943485 29
-3.5606642 3.5146613 1.2837484 33
-3.4292529 3.521018 1.2824483 17
-3.0794456 3.5031922 1.2900776 21
-2.7666006 3.5065393 1.2655014 20
-2.6498976 3.5062058 1.2849898 22.666666
-2.3377411 3.4869344 1.2620481 2
4.2304397 3.4584038 1.3395905 82
4.2395029 3.8499031 1.3259609 76
-1.1815175 4.2707667 1.2686199 0
-1.1528256 5.924221 1.3247161 16
-3.6910179 6.4954834 1.2961626 52.666668
-3.596489 6.4990191 1.2219387 61
-3.2941146 6.8027782 1.2615234 45
-2.7614543 6.8382788 1.3179874 67.5
-2.6226623 6.8380299 1.2857579 71
-0.857072 6.796463 1.2887344 107
-0.49977958 6.7925611 1.3223783 105
2.056426 -4.2918205 1.495419 42
2.0662444 -4.1203041 1.429222 49
2.0717556 -3.6586738 1.3818108 49
2.0834248 -3.4342823 1.422262 51
2.0831308 -3.1073675 1.4690802 50.5
2.089787 -2.751961 1.4607818 44
2.0911703 -2.5518305 1.380191 45
2.0901334 -2.4887543 1.4468343 50
2.0933805 -2.3127296 1.3940544 48.333332
2.0956995 -2.1493511 1.4350716 44.25
2.0993028 -2.0132883 1.4250101 45
2.1061156 -1.9266623 1.3943391 45
-3.4434047 -1.6158171 1.4668982 79
-3.4315543 -1.3168688 1.4492319 31
0.084087029 1.6310008 1.4470913 16
4.1959023 1.8465654 1.4279913 80
0.087994799 1.9926865 1.4189557 19.5
4.2005816 2.2292557 1.3919958 85
4.2065225 2.4516997 1.4643123 83
0.099665031 2.6437161 1.3941687 20
4.2180347 2.6151116 1.4366114 92
4.2202835 2.809881 1.4102898 81.5
4.2260947 3.0981219 1.4969839 84
4.2286925 3.2305582 1.4088368 86
4.2249284 3.4290075 1.3517491 82
-4.0964847 3.5194111 1.4606342 27.5
-3.5171273 3.5111692 1.3988088 34.666668
-3.4021404 3.5150399 1.41391 35.5
-3.020638 3.5018308 1.4077868 20
-2.9847965 3.5227542 1.4824423 17
-2.7192411 3.4983802 1.3836402 24.5
-2.6562145 3.4973848 1.4950349 21
-2.30193 3.4979401 1.3768306 12
4.2388158 3.5831785 1.4005632 81
-1.1586411 3.6100733 1.4436404 1
-1.1645936 5.9988666 1.4889727 14
-3.2718668 6.8384867 1.4444609 77
-2.8942411 6.8318729 1.3718129 62
-2.7053516 6.8212795 1.4903059 71
-0.87116295 6.7967625 1.4447434 109
-1.5871642 6.9653864 1.4922705 2
2.0566554 -4.4535379 1.5455856 37
2.0721829 -3.7232378 1.5618184 44
2.0815499 -3.4768705 1.5628042 53
2.0844479 -3.2127984 1.546242 52
2.0858097 -2.9738967 1.552088 49
2.08973 -2.7786152 1.594942 43
2.0955894 -2.574481 1.5102358 47
2.0933199 -2.48859 1.5406437 45
2.0938845 -2.3218613 1.5533992 45
2.0989091 -2.1823587 1.5816276 42
2.0957212 -2.0883987 1.5367697 43
-3.4560239 -1.8326763 1.6017195 75.666664
-3.4517324 -1.6952869 1.5577706 91
-3.4426682 -1.5340812 1.6106853 15.5
-3.4447722 -1.4329183 1.5277824 35.5
0.083631292 1.691273 1.5832275 17.5
0.085152552 1.8538579 1.6469327 19
4.1981568 2.0728068 1.5082312 85
0.088775381 2.1531887 1.6080189 20
3.8544333 2.3581958 1.5571251 32
4.1096182 2.2623048 1.5650465 36
3.0865812 2.5461497 1.5470641 37
3.361444 2.5148609 1.5590283 36
3.6107018 2.4466128 1.5577494 31
3.7642095 2.6984541 1.5558878 31
4.1400447 2.670275 1.5610113 52
2.9079285 2.7727485 1.5510693 24.5
3.2026987 2.7751846 1.5528797 35
3.5026345 2.7556944 1.5523455 30.5
3.8551996 2.7382581 1.5496762 28
3.5270689 2.9935141 1.5449182 27
3.8620284 2.954452 1.5492852 25
4.2168479 2.9024346 1.5612634 53
3.2056043 3.017046 1.5469298 26
3.3945985 3.0487776 1.5506376 26
3.7847571 3.0785749 1.5557237 27
4.2059374 3.0911665 1.5651846 42
3.5735033 3.2099209 1.5521495 28
3.9735205 3.2248361 1.5580583 30
3.542356 3.3323414 1.5493767 20
3.6707273 3.4144244 1.5522507 20.5
4.0314479 3.4259858 1.5552349 31
-4.1336951 3.521286 1.5834286 26
-3.970458 3.5138025 1.5722718 27.5
-3.8588588 3.5130942 1.593774 28
-3.479816 3.5098503 1.5535425 3
-3.1535308 3.5161209 1.5203257 17
-3.0245204 3.5174899 1.5715836 20
-2.6013958 3.4937551 1.6082331 20
4.1367197 3.4761338 1.5539598 37
-1.1423004 3.6222517 1.5083704 0
4.0326896 3.7712014 1.5505216 21
4.2192469 3.7756958 1.5388492 56
-3.6435564 6.4878306 1.5084304 63
-3.2534001 6.843781 1.6188738 70
-3.104948 6.840621 1.6078377 61
-0.88225615 6.8022809 1.6057298 104
-2.0210431 -5.4973516 1.7460245 16
-1.7535237 -5.357934 1.7201325 24
-1.6034186 -5.0147915 1.7892832 39
-1.483364 -5.0173078 1.7809321 42
-1.9625232 -4.8897357 1.7753342 44
-1.7548455 -4.8567138 1.7849408 51
-1.5964013 -4.7936916 1.7814893 43
-1.6268827 -4.6283164 1.7789387 46
2.0622752 -4.548615 1.7589649 46
-2.1019425 -4.363657 1.7736751 41
-1.7071929 -4.4609156 1.7819484 48.5
-3.4310575 -4.2101703 1.7487663 20
-3.2586107 -4.3065925 1.7427179 19
-2.6716738 -4.2293477 1.7536138 18
-1.9000537 -4.3456841 1.7838331 42
-1.7536876 -4.2925367 1.7924744 24
-1.50228 -4.3428144 1.7813584 37
-3.5938916 -4.0821538 1.732397 33
-3.3813062 -4.0866003 1.7462867 30
-2.7506239 -4.0843759 1.7405196 48
-1.7761596 -4.1294971 1.7722684 34
2.0567436 -4.05374 1.7244443 47
-4.1546474 -3.9148426 1.736077 49
-3.8613718 -3.9691277 1.7458304 44
-3.5405462 -3.9674635 1.744971 49
-3.2288036 -3.9287915 1.7488028 53
-2.6494431 -3.94648 1.7556676 54.5
-1.8388164 -3.9732332 1.7743922 56
-4.1420693 -3.8926084 1.7331344 51
-3.7868748 -3.8925009 1.7389935 50
-3.5827339 -3.896225 1.7438978 51
-3.2375662 -3.8505585 1.747673 50.666668
-2.9859953 -3.8764155 1.7532884 57
-2.7486305 -3.8816762 1.7654852 58
-2.6589153 -3.8578577 1.7526506 56
-2.4440322 -3.899349 1.7651438 58
-2.2178917 -3.8971171 1.7682735 60
-2.0148864 -3.880383 1.7720624 57
-1.8658444 -3.8071914 1.7755307 53
-1.6687086 -3.8856959 1.7689892 59
-1.4762644 -3.8801448 1.7725648 55
2.071079 -3.7775545 1.7129356 49
-3.4517379 -3.6775391 1.7400926 52
-2.7951093 -3.6893325 1.7505385 52.5
-1.9594631 -3.6191349 1.7752312 59
-1.9065313 -3.7070351 1.7749149 52
-3.8820975 -3.46913 1.7501904 67
-3.6247826 -3.5520048 1.7413212 54.5
-3.4023125 -3.5954645 1.7558838 53
-3.2640767 -3.4700465 1.7556392 51
-2.7985988 -3.4623113 1.7650481 58
-2.6596005 -3.5285118 1.7581035 53
-2.5427377 -3.4792521 1.7664152 59
-2.3212101 -3.4931366 1.7695597 56
-2.1253037 -3.5014219 1.7787997 63
-1.9575511 -3.5157762 1.7848483 53
-1.8197767 -3.5057445 1.775139 57
-1.6307369 -3.5173376 1.776848 57
-1.4528546 -3.528161 1.7795111 55
-4.1837349 -3.4088621 1.7456133 68.5
-3.8121521 -3.4026637 1.7415398 60
-3.6257341 -3.4108541 1.7441555 55
-3.5108585 -3.4328423 1.7452723 60
-3.322577 -3.3783953 1.753757 57.5
-3.1882608 -3.4340189 1.7591993 54
-3.0546427 -3.4454389 1.7610768 61
-2.7658534 -3.3683543 1.7551117 53
-1.9947351 -3.3711858 1.7778682 54
-1.1587293 -3.3519392 1.7913831 22
2.0770447 -3.3975749 1.7343787 55
-3.4951751 -3.2359655 1.7491108 59
-3.4185889 -3.1573789 1.7613198 60
-2.922034 -3.2232955 1.7526649 61
-2.2218232 -3.154238 1.7830666 62
-2.0754235 -3.2514369 1.7761205 58
-1.94888 -3.157383 1.7785224 61
-1.7639004 -3.1860573 1.7811149 61
-1.5911887 -3.216933 1.7866462 64
-1.4312381 -3.2231283 1.7907442 67
-1.2048068 -3.2630117 1.7885042 54
-3.9015522 -3.0201993 1.7524158 61
-3.6668324 -3.1183619 1.7515552 49
-3.5523334 -3.0222044 1.755257 61
-3.377476 -3.0174735 1.7595245 64
-3.2492518 -3.0356987 1.7602038 58.5
-3.1058631 -3.0453331 1.7607259 57
-2.8713546 -3.0760455 1.7698714 58
-2.7382965 -3.0788848 1.7614429 52
-2.6312923 -3.1048734 1.7704719 58
-2.4149468 -3.1329126 1.7727212 61
-2.052609 -3.1050673 1.7858529 57.5
-1.2881063 -3.0788934 1.7965945 52.333332
-4.2004886 -2.9500148 1.7430981 57
-4.1744308 -2.922672 1.7334105 58
-3.8381147 -2.966867 1.7444891 62
-3.6742594 -2.9843979 1.751983 61
-3.3497829 -2.9243178 1.7575694 57
-2.9326713 -2.8936343 1.7579355 55
-2.1477971 -2.9556847 1.7816901 62
-1.8778106 -2.8732774 1.78118 66
-1.7034019 -2.9075232 1.7789599 69
-1.5475979 -2.9326985 1.7875999 62
-1.3468367 -2.9789677 1.7919279 58
-1.157083 -2.920337 1.7832299 43
2.0824084 -2.9960477 1.7093469 48
-3.7446246 -2.7430048 1.7548794 64
-3.5360017 -2.8353572 1.7582599 60
-3.433749 -2.7633648 1.7644197 59
-2.9277422 -2.7146046 1.7686747 61.5
-2.7248666 -2.7634149 1.7712486 55
-2.4996347 -2.8074183 1.77887 61
-2.3078303 -2.8398473 1.7869891 66
-2.1225274 -2.7719319 1.7842435 55.5
-2.0567431 -2.8255422 1.7752079 64
-1.4310094 -2.7490158 1.7938452 54.333332
2.0775192 -2.7340517 1.7450377 33
-3.9270287 -2.6163375 1.7578765 60
-3.8726664 -2.5751517 1.7522415 66
-3.6845236 -2.6391366 1.7572501 61
-3.5770564 -2.6354778 1.7560428 63
-3.3729751 -2.6254482 1.7614903 59
-3.1885729 -2.6630948 1.7643702 59.5
-2.9253547 -2.586724 1.7600187 55
-2.8203561 -2.6783297 1.7644151 54
-2.2607067 -2.6011963 1.7730676 57
-2.1923466 -2.66466 1.7752386 58
-1.9772846 -2.5843797 1.7806014 70
-1.8081051 -2.6354699 1.782144 68
-1.6518049 -2.6688831 1.7886881 62
-1.2982132 -2.6682365 1.7913038 30
-0.79289508 -2.5790148 1.7989503 4
2.0939913 -2.632 1.7095505 46.75
-4.2269373 -2.5276194 1.7495884 58
-3.5064876 -2.4315248 1.7632127 60.5
-3.0551021 -2.5064673 1.7629496 55
-2.9781878 -2.4094517 1.7781533 61
-2.7777281 -2.4417157 1.7765143 59.5
-2.5627937 -2.4918151 1.7722183 61
-2.3718309 -2.5333121 1.7789036 69
-2.1724432 -2.4859085 1.7800469 59.666668
-1.7505436 -2.4306104 1.7955137 36
2.1012685 -2.498702 1.7263688 50
-3.7914946 -2.3705184 1.7633346 47
-3.673506 -2.3244686 1.7607986 34
-3.5299559 -2.2827883 1.7580211 59
-3.3501921 -2.3420084 1.7631451 65
-3.22122 -2.3285024 1.7681315 61.5
-2.9437344 -2.3313549 1.7673577 61
-2.4400866 -2.2616048 1.7808083 47
-2.3027959 -2.3448348 1.7771276 59
-2.0649643 -2.3151696 1.7818321 46
-1.9027292 -2.383323 1.7872063 38
2.094712 -2.3210435 1.6979628 42.5
-3.944814 -2.2364612 1.758485 56
-3.898711 -2.2054195 1.7545763 60
-3.7452414 -2.2163985 1.7545401 62
-3.5866115 -2.1089971 1.7575692 58
-3.3956118 -2.2106948 1.7626983 61
-3.0623441 -2.1443205 1.7691573 64.5
-2.8137765 -2.1324539 1.7718987 53.5
-2.6308892 -2.2099748 1.7782773 59
-2.2981997 -2.137845 1.7853837 30
-2.2276392 -2.2333255 1.7848306 43.5
-1.6765696 -2.2238104 1.7983056 0
-1.0339749 -2.1794496 1.7965983 25
-3.47926 -2.0154009 1.7649158 58.5
-3.3811483 -2.0283372 1.768541 55
-3.2511401 -2.015857 1.7712978 58
-3.032625 -2.0098486 1.7696708 53.5
-2.8889899 -2.0484591 1.7646531 39
-2.4628627 -2.0313129 1.7878292 16.5
-2.3204432 -1.9835969 1.7895712 1
-2.1574807 -2.0746675 1.7978371 5
-1.282773 -1.9562848 1.7950987 26
-1.1149693 -1.9921379 1.7967238 49.5
-3.4190521 -1.892893 1.7670778 44
-3.154161 -1.8732117 1.7651602 34
-3.0601306 -1.8279504 1.7768465 22
-2.8944111 -1.8563383 1.7830752 14
-2.8364987 -1.8625529 1.7870597 0
-2.6904972 -1.9410522 1.7808524 14
-1.7443886 -1.8122618 1.792033 0
-1.5604674 -1.8287098 1.7938029 17
-1.4164191 -1.9005007 1.7904001 23
-0.9831003 -1.9489626 1.7992321 53
-3.4583943 -1.6997026 1.65985 43
-3.4345214 -1.7410772 1.7645268 26
-3.2928152 -1.7522897 1.7727815 22
-3.1118479 -1.7632008 1.7833012 10
-1.6998107 -1.7371618 1.7840673 14
-1.4316308 -1.7485628 1.7968507 56.5
-0.96215707 -1.780986 1.792982 78
-0.13837504 -1.6633763 1.7978312 4
-3.4566681 -1.6096898 1.7130765 30
-2.0286722 -1.5566181 1.7868003 26
-1.8608245 -1.5719233 1.7871087 27.5
-1.7633219 -1.597115 1.7932625 37.666668
-1.6013799 -1.580595 1.7916001 58
-1.2603251 -1.6345986 1.7978479 73.666664
-1.1812177 -1.6113838 1.7979914 69
-1.0419523 -1.6176387 1.7969843 77
-2.4746797 -1.3667616 1.7833968 7
-2.3414106 -1.4222449 1.7804343 8.666667
-2.1691046 -1.4621222 1.7751006 25
-2.0224507 -1.360733 1.7929273 26.5
-1.8572695 -1.4074769 1.7952557 39.5
-1.7415515 -1.4382856 1.7935776 62
-1.6283786 -1.3521844 1.7873567 33
-1.4376159 -1.4471369 1.789479 77
-1.2757349 -1.4520447 1.7962101 68.25
-1.1382418 -1.4562843 1.7971599 76
-2.9648159 -1.2416636 1.7642213 0
-2.6102915 -1.296664 1.7812433 7
-2.4511847 -1.2231731 1.7837311 31
-2.3471873 -1.2667643 1.7859946 22
-2.2327497 -1.2630647 1.7880474 25
-1.8562368 -1.281291 1.7953496 35
-1.7615181 -1.2481562 1.7897161 24
-1.5593643 -1.2773516 1.7933806 32
-1.4436598 -1.2904406 1.7944747 34
-3.2151148 -1.0961161 1.7651874 14
-3.0512912 -1.0966932 1.7632387 24
-2.8678489 -1.0931853 1.7728473 47
-2.8268802 -1.1915057 1.7759932 30
-2.6518612 -1.0699849 1.7810462 61
-2.5125027 -1.1404567 1.7862254 54
-2.3397543 -1.0851378 1.785138 59
-2.1361892 -1.1717252 1.7893492 64
-2.0036411 -1.1558081 1.7903775 70
-1.8747611 -1.1171172 1.7949107 64.5
-1.6853893 -1.1803824 1.7881135 71
-1.6149988 -1.119465 1.7962323 70
-1.2597404 -1.1898955 1.7992247 80
-3.4922121 -0.95247227 1.7680227 28
-3.3861003 -0.93009651 1.7642802 36
-3.2300811 -0.96962035 1.76328 39
-2.936657 -0.98108351 1.7791293 60
-2.4838426 -0.96142685 1.7855859 62
-2.179543 -0.98268259 1.7855393 69
-2.0096009 -0.98278117 1.7916118 72.5
-1.9246695 -0.99171388 1.7937337 72
-1.7400198 -1.0123446 1.7946421 68
-3.7651005 -0.77867293 1.7687285 42
-3.6661844 -0.83647788 1.7673677 29
-3.4917133 -0.76077807 1.7682241 62
-3.3011057 -0.758771 1.7658852 73
-3.2498531 -0.85149783 1.7735003 73.5
-3.0698664 -0.82052451 1.77564 67
-2.8896749 -0.86429638 1.7812537 69
-2.7376471 -0.8639763 1.7843956 64
-2.6033885 -0.80435669 1.7816865 64.5
-2.4707186 -0.78623468 1.7866272 66
-2.3567958 -0.8590436 1.7905509 64.5
-2.2245026 -0.79942554 1.7887665 66
-2.0451956 -0.79396915 1.7913841 70.5
-1.8993813 -0.87550652 1.7946899 72
-1.7481933 -0.82630438 1.7976415 73.5
-4.0719395 -0.61893779 1.7676634 41
-3.9655769 -0.65198863 1.7634987 38.666668
-3.7278597 -0.6077891 1.7720374 66
-3.5350382 -0.6562798 1.7760482 89
-3.3726306 -0.65762055 1.7745967 85.5
-3.199302 -0.64348269 1.7712808 77.5
-2.9078953 -0.68563288 1.7837149 70
-2.7815218 -0.65266818 1.7891582 72
-2.6246181 -0.65362883 1.7848068 70
-2.4294748 -0.68564117 1.7883781 66
-2.3125648 -0.64028692 1.7902354 73
-1.9935719 -0.69082338 1.7938771 72.333336
-1.9032779 -0.70693564 1.7940701 71
-3.8017261 -0.50111771 1.7751397 88
-3.6765203 -0.50619721 1.77241 86
-3.5149841 -0.49801233 1.7724754 83
-3.3358719 -0.49521008 1.7703778 76
-3.2430215 -0.57519698 1.7783746 86
-3.0630043 -0.54757047 1.7812284 73
-2.9493144 -0.50350088 1.7846347 69
-2.5911341 -0.51982641 1.7831947 70
-2.4642336 -0.51680309 1.7883954 70
-2.3910334 -0.46806881 1.7864155 78
-2.1156213 -0.57716811 1.7903324 70
-2.0224144 -0.51031858 1.7976795 74.666664
-1.8996279 -0.52064168 1.7962344 71
-4.3915672 -0.42072573 1.7548908 43
-4.0937366 -0.31163019 1.7694725 81
-3.9673934 -0.37438965 1.7691585 41
-3.7522564 -0.32613954 1.7726656 7
-3.5293186 -0.40457204 1.7752552 88
-3.3271279 -0.39564946 1.777922 82
-3.2435188 -0.371196 1.7752782 80.666664
-3.1192548 -0.32629055 1.7825533 68
-2.9123621 -0.4183552 1.7859975 68
-2.7605195 -0.41028145 1.7859617 71.5
-2.6194463 -0.33128819 1.7847036 69
-2.5165138 -0.38056758 1.799327 41
-2.3021708 -0.43477499 1.7937688 84
-2.1434696 -0.3885797 1.7942046 81
-2.0083537 -0.36056954 1.7958701 70
-1.8929461 -0.34625718 1.7993833 70
-3.5382121 -0.23724541 1.7767857 3
-3.3783162 -0.23267305 1.7817291 6
-3.0546579 -0.29148218 1.7840904 78
-2.9203541 -0.233126 1.7886604 74.333336
-2.7336757 -0.15652141 1.7904075 77
-2.6104414 -0.27397099 1.7862037 66
-2.4528227 -0.24131377 1.7882158 73
-2.335907 -0.25033829 1.795978 75
-2.1648619 -0.19792584 1.7952436 85
-2.0730071 -0.22818331 1.794217 80
-2.6417837 -0.08531294 1.7942505 10.5
-2.4755466 -0.08156202 1.7927142 51.333332
-2.361999 -0.064860336 1.7934397 76
-2.1782396 -0.0078587811 1.795261 84
-2.0876775 -0.095890552 1.7934016 81
-3.5348129 0.10142635 1.7727417 3
-3.3812854 0.091947354 1.7991644 1
-2.4817235 0.083521552 1.7961749 56
-2.3882692 0.12271696 1.7944421 77
-2.1454682 0.58430672 1.7979234 87.5
-2.4190021 0.68135267 1.7987503 73
-2.0622907 0.69287932 1.799931 90
-2.4032786 0.8797152 1.7935098 81
-2.1800489 0.78348154 1.7974871 74
-2.1612368 0.99298906 1.7955574 80
-3.4936569 1.168815 1.7887892 4
-3.2996833 1.172305 1.7959737 8
-2.7685444 1.284722 1.790635 79
-2.6198523 1.2812365 1.796494 72.5
-2.5459874 1.2189839 1.7996422 76
-2.1417527 1.2116698 1.7986702 74
-2.1093795 1.4354817 1.7960831 76
0.079050347 1.5881802 1.6980788 17
-2.5872686 1.7972846 1.7930311 73
-2.4981341 1.7583871 1.7966045 75
0.080564573 1.6962036 1.7340249 18
-2.7369142 1.8438299 1.7894055 74
-2.6197743 1.8415555 1.792884 76.5
-2.4906504 1.9296982 1.7948126 81
0.086711302 1.8209783 1.7946872 21
-2.5737557 2.0929296 1.7966284 77
-2.479434 2.0340633 1.7979285 74
0.090870485 2.0287902 1.7529992 19
-2.7156069 2.1546319 1.7922922 72
-2.5656281 2.1071525 1.7980675 67
-2.4911585 2.2310278 1.7985607 73
-2.5225956 2.3243945 1.7997919 65
-2.5535667 2.4117332 1.799821 56
-2.5291562 2.4142356 1.7989193 65
-3.2750695 2.9010248 1.7981402 57
0.10382436 3.0417259 1.674991 16
-3.8222489 3.3987856 1.7843279 48
-2.4341831 3.4440203 1.7948576 21
-3.9793262 3.5169201 1.7168394 23
-3.8295784 3.5146508 1.7077471 23
-3.5478306 3.4726946 1.7818321 16
-3.3826494 3.4947186 1.7424606 25
-3.0727167 3.5272837 1.6980041 16.333334
-2.4300654 3.5348344 1.7054833 15
-2.359772 3.4988043 1.747014 8
-1.238667 4.4527025 1.7966942 4
-1.1712716 6.0536871 1.6556805 18
-3.6006458 6.4959493 1.6904825 68
-3.2968316 6.6839747 1.6859411 25
-3.251878 6.8429852 1.6819862 57
-2.6804311 6.8239002 1.6717876 78
1.9069405 -4.7944756 1.8287798 32
2.0216756 -4.7019992 1.8193009 47
1.7201822 -4.3894734 1.8330377 34
1.7457683 -3.9482334 1.8295838 34
1.9764421 -3.9739058 1.831134 49
1.8216922 -3.7595541 1.8233246 53
2.0395834 -3.7735035 1.8252817 61
1.3722667 -3.650815 1.8211976 54
1.5964921 -3.7096505 1.8233169 54
-1.3077264 -3.5758469 1.8144718 11
1.2726132 -3.4729156 1.8221728 46
1.4850746 -3.5402081 1.8166374 50
1.7008727 -3.5872991 1.8185195 55
2.0692818 -3.5449314 1.8230186 60.5
1.1936585 -3.3457882 1.8178483 1
1.3976051 -3.407234 1.8138331 56
1.7477298 -3.4279399 1.8390275 44
1.8719763 -3.4158113 1.8486202 53
1.4346721 -3.2734375 1.8333585 53.5
1.5634152 -3.2411194 1.8406661 50.5
2.0749691 -3.2420862 1.8402644 56
1.1948023 -3.1123621 1.8363835 54
1.2925916 -3.0799737 1.8380756 55.5
1.7476203 -3.0685234 1.8423263 40
1.9206204 -3.0534039 1.8462037 49
2.0818269 -3.0178249 1.8389305 48
1.0172915 -2.9216902 1.8254491 49
1.0767955 -2.9130821 1.8341278 58
1.4578843 -2.8981414 1.8423604 55
1.629678 -2.9081676 1.8420895 48
1.8016548 -2.9122241 1.8402919 43
1.9653134 -2.8873568 1.8425182 52
-1.3856251 -2.8394608 1.8022941 59
-1.1479483 -2.719465 1.8020064 10
0.86191291 -2.7591286 1.829038 66
1.1955286 -2.7233462 1.8334645 59
1.3646228 -2.7584705 1.8323265 50
1.5391059 -2.7933474 1.8360769 53
1.7322209 -2.7568505 1.844962 47.5
1.8986539 -2.750802 1.8433808 49.5
1.9863678 -2.7882328 1.8423235 36.5
-1.4835324 -2.5713165 1.8089098 34
-0.76231802 -2.5942409 1.8009938 4
-0.7388503 -2.613641 1.8028501 4
0.59437054 -2.6206386 1.8148288 23
0.66791314 -2.6096513 1.8253168 50
0.9677797 -2.5596817 1.8271087 57
1.1073277 -2.587913 1.8287325 56.5
1.2718253 -2.6396589 1.8275543 56.5
1.4319315 -2.6088037 1.8302155 54
1.5627154 -2.6327343 1.8374691 50.5
1.704771 -2.6386006 1.8424082 46.666668
1.9133697 -2.5708191 1.8605825 47
2.0065153 -2.6872232 1.8404526 12
-1.5595765 -2.4831991 1.8019851 32.5
-1.4998708 -2.5337639 1.8054579 32
-0.85077435 -2.4169858 1.8071436 7
-0.5993306 -2.5281222 1.8076376 26
0.12495019 -2.4595909 1.8078662 58.5
0.16199414 -2.4841034 1.8141097 42
0.36893541 -2.5060215 1.8255305 45
0.49568784 -2.4715457 1.8262273 69
0.8369891 -2.4213274 1.8255262 59.666668
0.96999502 -2.4731171 1.8265241 59
1.1489006 -2.511066 1.8267483 58
1.2489358 -2.4732828 1.8314594 58.333332
1.5023447 -2.4647472 1.84645 50
1.6904302 -2.4568758 1.8444687 50.5
1.858806 -2.4589109 1.8454318 41
2.0370791 -2.4889681 1.8399521 50.599998
-0.92266631 -2.3827455 1.804696 7
-0.87442946 -2.3906837 1.8021604 10
-0.67265713 -2.3447297 1.8069714 47
-0.46887779 -2.3799393 1.809085 61
-0.35247928 -2.3920264 1.8165368 72
0.14819695 -2.3726325 1.823121 59
0.25493175 -2.3610072 1.8283399 67
0.33963847 -2.3409786 1.830372 68
0.59227562 -2.2622139 1.8271099 69
0.71820074 -2.3317599 1.8260376 59.5
0.84826189 -2.2813745 1.8297738 58.5
0.96319807 -2.3226867 1.8313653 56
1.0777328 -2.3650017 1.8332434 59
1.2894949 -2.3034136 1.8424836 56
1.4303356 -2.3128989 1.8376821 53.166668
1.5854943 -2.3479838 1.8365991 50.25
1.7103506 -2.3824492 1.8414613 47
1.8202386 -2.3819625 1.8376817 43.5
2.0199928 -2.3967373 1.8397077 47
-1.9963666 -2.1538548 1.8032027 4
-0.97360849 -2.1948106 1.8040123 25.666666
-0.87086761 -2.1363428 1.8023657 43
-0.7308743 -2.1770062 1.8058652 56
-0.53494084 -2.2144108 1.8076259 63.5
0.10613908 -2.22736 1.8290302 3
0.19759507 -2.2101891 1.830536 52
0.39991662 -2.1178739 1.8236051 36.333332
0.54741704 -2.2170126 1.8212278 63.25
0.67788208 -2.1798325 1.8277776 48.5
0.7614997 -2.1447966 1.8310202 67
0.99563628 -2.1435602 1.8339989 58.599998
1.1280144 -2.1960042 1.8382012 55
1.2626282 -2.2214909 1.835658 52.666668
-1.0625606 -2.0017328 1.8050374 57
-1.0427368 -1.9983722 1.8010861 57
-0.84507614 -2.0006654 1.8032304 59
-0.70945907 -2.0424173 1.8057996 60
0.40780315 -2.0497255 1.8206968 24.666666
0.52167332 -2.0765038 1.82398 63
0.69451177 -1.9990387 1.8298143 59.142857
0.85530359 -2.0744963 1.8306977 58.400002
0.9335131 -2.0392399 1.8302859 63.5
-1.2288276 -1.8135726 1.8006004 71
-1.1498806 -1.8143154 1.8034676 67
-0.94841319 -1.8348575 1.8071193 64
-0.81168526 -1.884699 1.8071367 66
-0.68713236 -1.9157211 1.8090304 70
0.43658531 -1.8112512 1.8295743 67
0.54157668 -1.9086833 1.8257824 68.5
0.63374513 -1.8667979 1.8319569 58.666668
0.78235579 -1.9452939 1.827898 62
-1.0884055 -1.777073 1.8076056 65
-0.98432571 -1.728899 1.802773 69.333336
-0.7767359 -1.7658858 1.8040804 77
0.42572993 -1.6510956 1.8220865 92
0.49481863 -1.7740699 1.8313885 71.75
-1.4386094 -1.6125002 1.8012515 76
-1.1064621 -1.5647488 1.8016459 71.5
-0.9949668 -1.5946324 1.8028177 75
-0.8599509 -1.6256775 1.8060268 81
-0.68027365 -1.5768794 1.8088187 79
-0.5085206 -1.5461308 1.8072234 82
-0.21127552 -1.5443605 1.8150469 83.25
-0.070073739 -1.5869207 1.8211844 76
0.055925764 -1.5496382 1.8211758 76.599998
0.23501313 -1.565187 1.8255682 72.5
0.32433248 -1.5613558 1.8248965 86
-1.0675194 -1.4430907 1.8079005 59
-0.98636758 -1.4652637 1.8057717 71.5
-0.81541723 -1.3668416 1.8096234 40
-0.65978348 -1.4459839 1.8075081 66.25
-0.54435754 -1.4157683 1.8174086 48.333332
-0.37495166 -1.4208765 1.8175688 56.799999
-0.21890083 -1.3973435 1.8236443 37.714287
-0.084555626 -1.4250073 1.8226041 53.444443
0.081886746 -1.4205823 1.8269477 42.333332
0.19871798 -1.4677879 1.823283 87.5
-1.8232992 -1.2564024 1.8013519 27
-1.3875784 -1.3019091 1.8019451 35
-1.3002365 -1.2916309 1.8050529 33.75
-1.1324323 -1.2908351 1.8082315 41.166668
-1.0035454 -1.349918 1.8030633 32
-0.81959391 -1.2701193 1.8128178 60.5
-0.67489636 -1.2960501 1.8171667 49.200001
-0.51604676 -1.2669849 1.8158693 57.5
-0.37875623 -1.2664446 1.8199342 51.75
-0.23378719 -1.2642297 1.8227381 43
-0.058686975 -1.2734346 1.8250434 45.5
0.0267158 -1.259409 1.8287786 44.666668
-1.5034996 -1.1285334 1.8014461 75
-1.4066292 -1.1271392 1.8051459 76.333336
-1.2884315 -1.1437227 1.8054086 74.666664
-1.15853 -1.1277587 1.8082119 77.75
-0.93589193 -1.0869257 1.8133651 93.5
-0.80367553 -1.1159885 1.8139836 93.599998
-0.67133498 -1.14858 1.8182631 91.25
-0.5173319 -1.1222523 1.8166801 78
-0.36913741 -1.1093514 1.8150226 59.25
-0.21743046 -1.1363419 1.8200058 54.166668
-0.081474736 -1.1305174 1.8295492 68.333336
-1.667075 -0.96537131 1.8029522 75
-1.5554646 -0.96651489 1.8059789 76
-1.4368911 -0.97390133 1.8083739 72.25
-1.2832617 -1.0043848 1.809033 79.199997
-1.1796567 -0.97714615 1.8179928 81
-0.97960538 -0.93633819 1.8134036 98
-0.86199802 -0.97092223 1.8131279 85.25
-0.68449014 -0.98801965 1.8123422 80.666664
-0.51057148 -0.98153204 1.8115749 64
-0.37586758 -0.96979362 1.8160033 51.5
-0.21875456 -0.96989012 1.8201191 43.599998
-0.12121472 -1.0327218 1.8176233 45
-1.8804919 -0.89741403 1.8026086 75
-1.5296925 -0.8266682 1.8111645 78
-1.4272392 -0.83479327 1.8100357 77.800003
-1.2633005 -0.8475334 1.8125696 85
-1.0784402 -0.81591332 1.8161906 104
-0.98090768 -0.80075169 1.8032805 76.333336
-0.82306772 -0.82180113 1.8106667 77.166664
-0.67335874 -0.82751447 1.8103211 80.571426
-0.53199285 -0.81264496 1.8131858 72.818184
-0.39304581 -0.84540373 1.8172028 61
-0.25162911 -0.82330781 1.8176135 55.333332
-1.8658564 -0.70240408 1.801331 73
-1.7522629 -0.65310085 1.8033549 79
-1.5332289 -0.60862875 1.8096169 75
-1.4281646 -0.7006079 1.8121412 77.800003
-1.2839674 -0.70911765 1.8118019 86.75
-1.0872855 -0.68252027 1.8099941 82
-0.96134263 -0.67975533 1.8084183 81
-0.836568 -0.66269028 1.8112196 79.599998
-0.65882951 -0.66885757 1.8089918 81.666664
-0.5181371 -0.66584951 1.8114563 78.571426
-0.35815194 -0.67927021 1.816466 69.333336
-1.9173611 -0.5580703 1.8005811 72
-1.7869402 -0.49776849 1.8039984 77
-1.4280208 -0.55918735 1.8112056 78.599998
-1.2947401 -0.57225633 1.8172308 84.333336
-1.1082531 -0.54014415 1.8085681 76.333336
-0.96341538 -0.53825498 1.8103681 77.5
-0.81280041 -0.52823335 1.8100244 81.833336
-0.67383707 -0.51376408 1.8117707 84.5
-0.53752822 -0.54600203 1.8145711 80.14286
-0.38494012 -0.51354343 1.8206286 77.5
-2.5567324 -0.30062869 1.8258687 25
-2.0023742 -0.34505761 1.8015238 84
-1.8764894 -0.36836672 1.8054628 76
-1.5666536 -0.4482702 1.8105334 73
-1.4317737 -0.39254799 1.8119156 79.400002
-1.3138337 -0.40607762 1.8231349 75
-1.1173898 -0.38607049 1.8072244 76
-0.96589893 -0.39195997 1.8102434 78.428574
-0.83239359 -0.37832901 1.8114024 80.666664
-0.66996866 -0.38124633 1.8154352 78.444443
-0.54930788 -0.38623631 1.8188362 78
-0.43232769 -0.35135505 1.8199289 76.5
-2.0034075 -0.17487369 1.8009742 81
-1.904282 -0.19836718 1.8067149 82.333336
-1.5372287 -0.26500669 1.8124013 89
-1.405342 -0.22274254 1.8111329 88.666664
-1.2542944 -0.221719 1.8090795 77
-1.103997 -0.2267645 1.8081664 80.833336
-0.95918626 -0.22443251 1.809163 80.166664
-0.81173867 -0.22215965 1.8120949 78.25
-0.67179286 -0.22112104 1.8176473 77.5
-0.51980764 -0.20910837 1.819501 80.666664
-2.0189071 -0.0039930418 1.8014654 85
-1.9203445 -0.034629885 1.8063904 62.666668
-1.5553236 -0.10995979 1.813992 98
-1.4243383 -0.047032431 1.8132668 94.75
-1.2667656 -0.088869959 1.8113276 78.5
-1.1323559 -0.059016861 1.8107935 81
-0.95691842 -0.069912285 1.8128299 78.833336
-0.81385744 -0.076855965 1.8163412 79.571426
-0.67716986 -0.075415976 1.8179804 77.833336
-0.52451307 -0.089977317 1.8224732 77.599998
-2.0552361 0.0047913264 1.8052546 19
-1.5674829 0.045210883 1.815043 93
-1.4321365 0.093065999 1.8117102 93.75
-1.265196 0.077562228 1.8098446 79.666664
-1.1358325 0.087785691 1.8152071 81
-0.96828514 0.074774452 1.8121797 84
-0.8215695 0.076035991 1.8137025 69.428574
-0.68692917 0.069014467 1.8203979 78.083336
-0.52786416 0.068493463 1.818584 81.5
-2.4336452 0.29487959 1.800661 9
-1.5537324 0.22205923 1.8120271 91.25
-1.4139547 0.22042497 1.8102384 89.333336
-1.2713113 0.24611734 1.8085803 72.5
-1.1359496 0.21629211 1.811812 82
-0.98163611 0.22478519 1.8135411 80.666664
-0.83742601 0.22243285 1.8135251 77.666664
-0.67859572 0.22675823 1.8200508 79.85714
-0.51649082 0.22313556 1.8216064 81.400002
-1.5532571 0.37868208 1.8118383 88.25
-1.4123594 0.36358383 1.8114792 93
-1.2766132 0.38689953 1.8395944 87
-1.1188897 0.37561217 1.8469553 94.833336
-0.94635153 0.34637985 1.8184692 67
-0.8230958 0.3717286 1.8148834 75.125
-0.68099421 0.37140414 1.8188396 76.272728
-0.52157736 0.37350357 1.8239361 80
-2.0351713 0.55406636 1.8006483 78
-1.9239204 0.57863128 1.8091906 87
-1.5483997 0.53918648 1.8125975 87
-1.4387208 0.49753517 1.8159306 88
-1.2970666 0.53166968 1.848559 70.666664
-1.126392 0.52958328 1.8809214 110.6
-0.979352 0.51638985 1.8808814 113
-0.81324828 0.52060348 1.8144777 72.666664
-0.68546307 0.53101426 1.8176006 73.75
-0.54519773 0.51917255 1.8232813 77
-0.43262997 0.58986843 1.8227648 80
-1.989738 0.69467086 1.8036144 87
-1.9141599 0.69448221 1.8055214 84
-1.5854861 0.6677705 1.8138434 90.5
-1.4590527 0.69298768 1.8154806 85.25
-1.2720251 0.69151598 1.8547593 58.75
-1.1116579 0.66652668 1.8542252 81.599998
-0.96919835 0.68921804 1.8521262 65
-0.82266873 0.66427082 1.815492 73
-0.67691892 0.66951621 1.8183866 75.25
-0.51580828 0.67637157 1.8234953 76
-0.41187003 0.67945778 1.8251039 79
-2.1029029 0.79285187 1.8075374 84
-2.0140681 0.86500913 1.8037224 81.666664
-1.928149 0.82899898 1.8075892 87
-1.5678251 0.83627653 1.8128554 91
-1.4265741 0.83463669 1.8132211 89.666664
-1.2529067 0.84258389 1.8214225 82
-1.1201754 0.82846451 1.8182799 68.5
-0.978163 0.82122707 1.8355179 98.333336
-0.82121009 0.82906413 1.8210908 78.833336
-0.67742538 0.81013554 1.8212579 76
-0.53401947 0.82181042 1.8240981 69.333336
-0.39126167 0.82269907 1.8267916 75
-2.0605412 0.99320692 1.8069777 75.666664
-1.9074314 0.96745276 1.8096381 82
-1.543892 1.0084503 1.8125453 86
-1.4220718 0.94496489 1.8171054 84.333336
-1.271544 0.96974373 1.8231694 84
-1.1244031 0.97296339 1.8231697 88.25
-0.9996416 0.9632225 1.8266973 86.666664
-0.79768783 0.98562706 1.8275751 88.199997
-0.64926583 0.97675937 1.8284012 85.833336
-0.51007378 0.96321994 1.8282251 77
-0.38527456 0.97415078 1.8309482 68
-2.5018783 1.1179497 1.8011947 79
-2.3947432 1.0883111 1.8015538 85
-1.9845368 1.1011225 1.8090377 78
-1.8569685 1.0852808 1.8023893 82
-1.4451752 1.1146488 1.8172145 85.5
-1.2790332 1.1085192 1.8193048 84
-1.1071601 1.1315764 1.8233696 83.666664
-0.97760242 1.1001655 1.8270124 82.25
-0.81449777 1.0965426 1.8331063 81
-0.67315549 1.1233715 1.8324248 82.333336
-0.52676928 1.11708 1.8352261 86.14286
-0.38343549 1.1349169 1.8391937 78.166664
-0.25855333 1.1107388 1.8421334 80.5
-2.5049994 1.2989743 1.8008751 80
-2.381598 1.3049591 1.8076156 78
-2.0210834 1.2492989 1.807416 74.666664
-1.8970966 1.2478166 1.8108131 78.333336
-1.535953 1.2248368 1.8143722 89
-1.4115824 1.2912643 1.8164133 83.75
-1.281178 1.2635064 1.8185431 80
-1.114949 1.2926124 1.822876 82.666664
-0.97267604 1.2489052 1.8274065 78.75
-0.82200217 1.2303686 1.8295065 72.5
-0.66978687 1.2645493 1.8338417 76.400002
-0.51952511 1.250326 1.8357801 76.333336
-0.36682051 1.2858341 1.8387439 76.199997
-0.24483044 1.2753587 1.8413545 70.75
-2.0129204 1.4176149 1.8069668 75.666664
-1.9031336 1.4398319 1.8082397 79
-1.7965554 1.4552246 1.8103462 87
-1.4440765 1.4206164 1.8140111 88
-1.2783689 1.4332038 1.8211881 81.5
-1.1387693 1.4319028 1.8223633 73
-0.96766222 1.4333341 1.8286012 73.599998
-0.85234547 1.3723063 1.8292288 75
-0.66882098 1.4263976 1.8325468 76.25
-0.53712577 1.4059963 1.8351549 71.666664
-0.37580869 1.4275469 1.8364787 72.166664
-0.23410761 1.4178826 1.8408518 71.85714
-0.089305356 1.4217987 1.8399377 76.5
-2.3604474 1.5306745 1.809589 36
-1.9643004 1.5895722 1.8059591 72
-1.9109044 1.5799091 1.8086929 77
-1.4063568 1.5859804 1.8213524 79.333336
-1.3099411 1.5826021 1.8333871 55.5
-1.1229217 1.6022794 1.8204302 74.5
-0.94682831 1.593626 1.825853 73.333336
-0.84057397 1.5660013 1.8265514 71.666664
-0.73926854 1.5219814 1.8308569 68
-0.52526736 1.5845495 1.834026 71.599998
-0.3835412 1.5710208 1.8362697 70.400002
-0.24160814 1.5708656 1.8410475 76.800003
-0.11081278 1.5858192 1.840722 74
0.020071637 1.5884923 1.8418702 76
-2.4948339 1.6585633 1.8008703 36
-2.3248143 1.7584577 1.8026716 73
-2.0145805 1.6732875 1.8060852 70
-1.8849304 1.7024801 1.809906 79.5
-1.7550908 1.6503797 1.8128682 72
-1.3653824 1.7163234 1.8199493 77
-1.301234 1.725947 1.8233169 67
-1.0987055 1.7950686 1.8265423 67
-0.97096777 1.7601113 1.8328928 61.5
-0.80340052 1.7360138 1.8253342 71.666664
-0.70393431 1.688947 1.8329731 65
-0.5019626 1.7787632 1.8371335 68
-0.41262403 1.7114675 1.8333966 68
-0.23184428 1.7442375 1.8337831 72.199997
-0.078927197 1.7322072 1.838261 73.285713
0.016752761 1.7128853 1.8395354 77.5
-1.9966357 1.9235127 1.8091679 70.5
-1.8819139 1.8790274 1.8135241 73.25
-1.7087482 1.8577272 1.8177491 76
-1.3839777 1.8089296 1.8193094 77
-1.2844523 1.8947235 1.821143 68.333336
-1.1920185 1.8148544 1.8224057 67
-0.93538761 1.9460315 1.8274664 61
-0.82612163 1.8700527 1.8287345 64.333336
-0.683465 1.8772217 1.8352745 62
-0.57339823 1.8281732 1.8383199 58
-0.36100531 1.8799406 1.8372221 68.75
-0.22371745 1.9055886 1.8377616 66.5
-0.071834125 1.8560318 1.841019 67.666664
0.048427079 1.8883661 1.8406252 67.800003
-2.9304111 1.9740576 1.8046454 80
-2.2988436 2.015487 1.810892 73
-1.8854442 2.0405841 1.8175027 70.5
-1.6528709 2.0752561 1.8210825 73
-1.2752005 2.0301828 1.8209486 73.5
-1.1073828 2.0199709 1.8264621 58
-1.0174364 1.9872197 1.8284336 54
-0.76857781 2.0323236 1.828823 61
-0.66794044 2.0371861 1.8296729 52.333332
-0.5077734 2.0107448 1.8363293 61.5
-0.30756712 2.0774586 1.8390497 57
-0.21540518 2.0024047 1.8385429 63.200001
-0.038183246 2.021982 1.8361992 66.5
0.076729581 2.0000446 1.8444945 78
-2.6331074 2.1777112 1.8001217 70
-1.9680041 2.1926079 1.8057507 68
-1.8672276 2.1630847 1.8151385 71.333336
-1.7543074 2.1137366 1.8142022 72
-1.2337785 2.1959891 1.8289223 65
-1.1851681 2.1671345 1.8294576 63
-0.96634096 2.2105429 1.8307753 54
-0.84813678 2.1342037 1.8317505 56
-0.63207138 2.1553605 1.820789 63
-0.39073122 2.1796317 1.8401008 56
-0.19091475 2.2393951 1.8450571 55
-0.10112687 2.1570857 1.8421789 60.200001
0.082484201 2.1989815 1.8383666 74
-2.9284332 2.2905123 1.8125502 73
-2.3214548 2.3090274 1.8048978 74.5
-1.8344681 2.3054628 1.8171384 68
-1.6865649 2.3595176 1.81612 67
-1.5862205 2.3009388 1.8210367 63
-1.1573839 2.3254094 1.8303661 58.5
-0.81713927 2.3991802 1.8372411 52
-0.71387756 2.3015211 1.8395087 59.5
-0.53733146 2.3110147 1.8333857 53.5
-0.258452 2.3543959 1.8447855 55.5
-0.017142955 2.291193 1.8458953 65
0.054908659 2.323724 1.8355991 58.666668
-2.6503458 2.5051992 1.803822 66
-1.8719877 2.4643369 1.8110293 77.5
-1.7824631 2.4619184 1.8140583 72.666664
-1.5086654 2.5449107 1.821767 63
-1.1056416 2.4657683 1.8262072 56
-0.8940137 2.4562738 1.8296508 57
-0.63393348 2.5364161 1.8382205 55
-0.51437831 2.4546909 1.8383157 54
-0.41852069 2.514966 1.8342735 51.5
-0.075410493 2.4467752 1.8488168 58
0.095780388 2.4455178 1.8203031 25
-2.9134967 2.6240575 1.8130409 65
-2.5040267 2.6238723 1.8106753 47.5
-2.3468983 2.6560478 1.8066918 65
-2.2105575 2.5661948 1.8108951 77
-1.7678082 2.6412098 1.815281 67
-1.6077827 2.6256568 1.8209816 67
-1.0309682 2.6466074 1.831074 50.5
-0.76309323 2.6955423 1.8366014 58
-0.69194776 2.6120555 1.834673 54
-0.45279965 2.661705 1.8433231 52
-0.34377128 2.6158209 1.8362559 53
-0.12904161 2.5750523 1.8464588 58
0.076400727 2.6158583 1.848027 60
-3.2063839 2.8076496 1.8023006 60
-3.1071253 2.7376387 1.8054637 68
-2.5118256 2.7627721 1.8067682 61.5
-1.8128159 2.7827685 1.8120235 69
-1.7354102 2.7312911 1.8175408 71
-1.4196879 2.8072083 1.8241285 64
-0.9967252 2.7478228 1.8256898 60
-0.52682227 2.8020601 1.8412261 53
-0.2590467 2.7564671 1.8385324 53.666668
0.044018012 2.756114 1.8449646 64
-3.3286786 2.875901 1.80799 61
-2.8973241 2.9957199 1.8158885 62
-2.6101618 2.8669658 1.8064383 59.5
-2.47592 2.9340792 1.8084208 57
-2.1612039 2.8888178 1.8195683 77
-1.7007914 2.9080822 1.8190424 59
-1.5118405 2.905014 1.819539 63
-0.91631067 2.9215066 1.832198 59
-0.89595717 2.9854691 1.8305215 57
-0.6104573 2.941138 1.8368994 65
-0.33500394 2.9310274 1.8436809 61.5
-0.16668424 2.8707521 1.8401514 56
-0.11638818 2.959959 1.8388171 57
-3.5159411 3.066293 1.8030965 63.5
-3.3570955 3.0043671 1.8029076 59
-3.1008334 3.1461987 1.8116194 61
-2.4597452 3.0856729 1.8073703 60
-2.2964001 3.00366 1.8135883 69
-1.6889683 3.100543 1.8258356 62
-1.6047589 3.0068836 1.8175753 58
-1.3168384 3.0928421 1.8264159 66
-0.8473568 3.0697191 1.8321904 61
-0.38852125 3.090363 1.8416451 54
-0.16022886 3.1096802 1.8476566 53
0.0088518085 3.099107 1.8431717 50
-3.5650847 3.2308962 1.803461 62
-3.2447801 3.2562258 1.8062311 60
-2.6007981 3.2667184 1.8056165 62
-2.5070519 3.2116616 1.8108429 61
-2.0922592 3.2306595 1.8201884 66
-1.6294492 3.2030647 1.8224713 58
-1.4050441 3.2219639 1.8285877 59
-0.78204614 3.2254536 1.8358769 60
-0.7485584 3.277379 1.8401252 66
-0.43511143 3.2124858 1.8456348 59
-0.18253571 3.2322409 1.8471648 60
0.072441682 3.1686118 1.8421234 67
-3.3133769 3.3395939 1.8061284 60
-2.8723876 3.4044731 1.8142165 50
-2.4581454 3.3519156 1.8123611 60
-2.2258601 3.3735268 1.8131968 64
-1.5805721 3.4116488 1.8168271 25.5
-1.4904605 3.3479962 1.8256918 56
-1.1961311 3.4016929 1.828528 48
-0.66740018 3.4104712 1.8255396 28.5
-0.21823961 3.3935754 1.8292892 75
-0.57417369 3.5542719 1.8266608 11
-2.0279815 3.6480927 1.8426007 20
-1.5362923 3.6103034 1.8372465 7
-1.4836992 3.7073884 1.8301347 53
-0.6077534 3.6561511 1.8477019 46
-0.52645206 3.7359221 1.8412334 53
-2.1396394 3.7857535 1.8119766 57
-1.4516528 3.8432064 1.8174458 22.5
-1.0564644 3.7584519 1.8381571 63
-0.45058277 3.8188524 1.8450369 57
-2.4483624 4.036974 1.8590721 49
-1.1177598 3.9147604 1.825163 47
-0.3757984 3.9086096 1.8433431 43
-2.3654077 4.1616073 1.903535 46
-0.88947684 4.1497831 1.8449153 51
-0.41101244 4.0540023 1.8484861 53
-2.4820471 4.2730742 1.9189831 57
-1.9882581 4.2338347 1.9241251 52
-2.5538449 4.4288683 1.91509 48
-2.4789708 4.4183073 1.921435 55
-2.1187375 4.4587703 1.9151956 48
-0.94055969 4.3647718 1.8453876 59
-2.4862256 4.5912886 1.9206918 46
-0.99061668 4.5947919 1.8457469 55
-0.68855757 4.5868888 1.8501543 53
-2.4386199 4.7293725 1.9172169 38
-2.2710116 4.7417426 1.922841 39
-1.8681502 4.7581615 1.9313964 58
-1.177039 4.6556368 1.8453251 9
-2.4026418 4.8715281 1.9254149 33
-1.0804214 4.8326674 1.8536111 34.5
-0.71952063 4.8362727 1.8474466 51
-2.4441831 5.0439849 1.9212698 35
-2.3795583 5.0272346 1.928037 34
-1.994265 5.0412898 1.9243184 43
-1.1805649 5.0522299 1.8587326 13
-1.068293 5.1416335 1.8492867 44
-0.74901736 5.1290922 1.8571562 49
-0.44688347 5.1113014 1.8654684 53
-2.8965509 5.325758 1.9425746 28
-2.4247766 5.2752256 1.9215595 38
-2.135407 5.3774199 1.9275829 36
-0.9700734 5.2552714 1.8592116 47
-0.87429899 5.3837547 1.8653108 49
-0.45246214 5.3971767 1.8586367 38
-2.3567512 5.4229212 1.922737 34
-0.79107147 5.4433122 1.8559853 39
-2.2997191 5.575623 1.9328083 37
-3.1275651 5.7035851 1.9315568 29
-2.2852285 5.7689075 1.9375123 28.5
-0.95924234 5.7497644 1.8549107 37
-0.82614392 5.8398542 1.8525921 36
-0.4541024 5.7304974 1.8625468 37
-0.70800585 5.9481096 1.868111 37
-2.8371203 6.1347542 1.9490336 32
-2.3532751 6.1429257 1.9365276 30
-0.52692366 6.0822721 1.8665806 33.5
-3.5797102 6.2822223 1.9217392 27
-3.4049437 6.1738644 1.9355341 24
-2.2540035 6.2882638 1.9350425 31
-3.6298051 6.5088134 1.8534542 37
-3.5452073 6.5052447 1.9079231 42
-3.426188 6.5106711 1.8141638 39
-3.025878 6.4983792 1.897683 35
-0.67647904 6.6402493 1.864982 32
-0.51817697 6.7089305 1.863336 32
-3.1960719 6.8205643 1.816852 56
-2.6401453 6.7886686 1.845461 57
-0.37363657 6.7524443 1.8677062 2
