# .PCD v0.7 - Point Cloud Data file format
VERSION 0.7
FIELDS x y z intensity
SIZE 4 4 4 4
TYPE F F F F
COUNT 1 1 1 1
WIDTH 166
HEIGHT 1
VIEWPOINT 0 0 0 1 0 0 0
POINTS 166
DATA ascii
1.6350431 -2.372268 -0.82859957 6
2.1186597 -2.3634775 -0.81404907 1
2.0597227 -2.1114116 -0.81386495 6
1.201422 -2.0610445 -0.82855469 0
1.8204179 -2.051918 -0.81641275 6
1.9921122 -2.0351458 -0.81250137 6
1.422775 -1.8875998 -0.82550371 8
1.8023646 -1.8233775 -0.811737 5
2.0273619 -1.9143801 -0.81702191 6
1.9043026 -1.7750887 -0.81541842 5
2.0100894 -1.7002606 -0.8134644 5
1.7618916 -1.6275151 -0.8120057 5.5
1.8480344 -1.5582936 -0.81709236 5
2.0497494 -1.421173 -0.81346262 5
2.1570911 -0.14709856 -0.7545495 3
2.1783092 0.63925874 -0.78364146 4.5
2.1699586 0.85195464 -0.78492391 3
2.051759 1.0370362 -0.79506469 12
2.1197531 1.0662341 -0.78961325 8
1.9708426 1.2442702 -0.79726386 12
2.1837628 1.300806 -0.78495514 5
2.5782962 1.3436537 -0.78058958 4
1.7880297 1.6093493 -0.79307675 8
2.136281 1.5553087 -0.7976945 9
2.4821165 1.6187701 -0.78434604 7
2.6676042 1.6332325 -0.77927238 1
1.4955025 1.7884995 -0.7992295 7
1.6220456 1.6804864 -0.79498124 7
2.5202374 1.7301012 -0.78711122 4
2.8197281 1.6955389 -0.77045906 1
4.1543641 1.9471235 -0.76222277 1
1.9773891 1.9860224 -0.79287761 6
2.4885576 1.9581525 -0.78439069 5
2.6534705 1.9802253 -0.77653468 0
2.8210256 1.9831839 -0.77412534 0
1.8187864 2.1002796 -0.79763377 6
2.8076189 2.1994991 -0.77367812 0
3.201561 2.1998806 -0.76736474 0
4.2254667 2.2059371 -0.8710683 18
2.1715839 2.4282537 -0.77846813 8
2.6419289 2.4650829 -0.78375965 0
2.7885959 2.4746857 -0.77716553 0
2.9367523 2.4793339 -0.77008682 0
3.0558779 2.4401622 -0.76688689 0
4.2148957 2.5457509 -0.80484283 1
4.2464676 3.2699471 -0.80550694 1
4.2585292 3.6936328 -0.87314069 21
-0.45254976 3.7666605 -0.8120802 5
-0.37089548 3.8138371 -0.80870891 5
4.2596874 3.7664919 -0.85178423 24
4.2322583 3.9347668 -0.85891151 15
-0.37381187 4.0676236 -0.81018764 1
-0.40134656 4.2751131 -0.81152534 2
-0.39126942 4.3503308 -0.8105827 2
-0.43158275 4.5126095 -0.81130892 8
-0.6659376 5.170886 -0.79373401 10.5
-0.7592625 5.3784556 -0.79394323 10
-0.70547962 5.283833 -0.78527117 11
-0.81373382 5.4143109 -0.79266888 12
-0.72866577 5.6925478 -0.78650099 6
-0.798724 6.2993212 -0.78929502 0
-0.80900526 6.7581859 -0.79028606 0
2.1082869 -3.0591342 -0.60046297 69
2.1070688 -2.9364097 -0.66402644 64.333336
2.1138642 -2.7537291 -0.6741907 73.333336
2.1202769 -2.5425465 -0.62101287 57
2.1195431 -2.2648294 -0.7029742 43
2.1294832 -2.1170566 -0.65461302 75
2.1337357 -1.8887961 -0.72103989 6
2.1419649 -1.4198271 -0.62381303 85.5
2.1545205 -1.0525097 -0.65103382 86
1.7031505 -1.0110512 -0.61591268 100
2.1479044 -0.99103779 -0.66389227 60
2.0792835 -0.87952608 -0.62841845 150
2.1493728 -0.79081064 -0.65997195 63.333332
1.6762576 -0.71452934 -0.61735541 159
2.1488917 -0.65534979 -0.66003877 97
2.1503429 -0.5104019 -0.66125041 77
2.165592 -0.34326267 -0.67768592 71
2.163605 -0.19090776 -0.69040102 49
2.1711085 -0.039941072 -0.70105392 34.666668
2.1681333 0.092298865 -0.69659388 49
2.1838992 0.29174772 -0.66242909 19
2.1689577 0.36623433 -0.70219272 7
2.1717081 0.55326051 -0.67596126 9.5
2.1787879 0.67780149 -0.70146263 2
2.1902115 0.80098963 -0.6531657 12.5
2.1887305 0.91297174 -0.60114145 15
4.2205625 2.2903292 -0.71055865 0
4.2270136 2.622611 -0.64157808 76
4.2468152 2.9298179 -0.73023635 0
2.2286873 3.1417978 -0.64654535 2
-0.28277791 3.4390783 -0.6423074 1
4.2396455 3.31654 -0.63516301 76
-0.32164365 3.4548733 -0.68977886 0
4.2491798 3.7112896 -0.69766641 1
-0.62518394 5.3199501 -0.66873813 0
-0.55600721 5.5310464 -0.65574878 1
-1.0933895 5.8136249 -0.61073595 2
-0.66741341 6.8062711 -0.6577847 53
-0.51513678 6.8091917 -0.71176648 0
-0.32633188 6.792788 -0.65809715 54
2.1099067 -3.2244782 -0.57438278 4
2.1107965 -3.1168499 -0.5661478 38
2.1083579 -2.8381712 -0.52365541 62
2.1115315 -2.6259246 -0.49148133 75
2.121016 -2.3611174 -0.57790929 68
2.1283889 -1.8880663 -0.49052092 70
2.1325147 -1.7295133 -0.52732807 77
2.13901 -1.6045539 -0.510755 77.75
2.1367338 -1.4333056 -0.52088529 84.400002
2.1414435 -1.303086 -0.51587611 79
1.6956435 -0.97951865 -0.53880179 65.666664
2.1482615 -0.92025769 -0.56941307 95
1.6750073 -0.88514364 -0.49563313 41.5
2.1525283 -0.76147294 -0.58362454 82
2.1623843 -0.35047475 -0.4610326 88
2.1669178 -0.19775206 -0.47841758 95
2.1719999 -0.044890225 -0.4915038 95
2.1812878 0.065097027 -0.47863281 98.5
2.184773 0.22019143 -0.48180127 58.5
2.1950381 0.37910765 -0.47874039 18
2.194993 0.53946567 -0.46939343 18
2.1918623 0.75594175 -0.46091667 17
0.44490182 1.2984017 -0.4560076 14
4.2258272 2.0305538 -0.45503718 99
2.2166183 2.482537 -0.57100749 0
2.2209175 2.6354673 -0.52141881 5
2.21595 2.7571402 -0.53992271 5.5
2.2241628 2.9402943 -0.49499798 5
4.231483 2.9731965 -0.56038839 91
2.2289503 3.0756583 -0.48979497 5
4.24474 3.3524084 -0.4646605 97
-0.31111038 3.4506214 -0.56438875 8
4.2500901 3.744133 -0.52445507 88
-0.9992367 5.1279874 -0.55069125 0
-0.93704242 5.3242517 -0.45583126 33
-0.62135375 5.5279412 -0.49994114 11
-1.1133654 5.6366348 -0.59101969 20
-1.1092337 5.7385883 -0.49411732 10
-1.1174757 6.1157084 -0.49023136 8
-0.43030173 6.8204799 -0.46747455 29
2.1057172 -3.1790981 -0.41113019 5
2.1247258 -2.1336517 -0.40035644 68
2.1309657 -2.022032 -0.41098499 90
2.1292455 -1.8328683 -0.42613757 76.5
2.1307721 -1.7150344 -0.44060668 81.5
0.18329333 -1.1839085 -0.41001183 6
1.6906443 -1.0248703 -0.43132332 33
1.988534 -0.61411768 -0.40251398 150
2.1569271 -0.50304925 -0.43714023 51
2.1631827 -0.43738994 -0.40662464 95
2.1690552 -0.26076102 -0.41840002 101
2.1690924 -0.11154719 -0.43269324 104
2.1730664 0.054097414 -0.42220572 99
2.1806664 0.20133257 -0.42367131 32
2.1749592 0.34944865 -0.41812506 16
2.190578 0.50518245 -0.40843195 17
2.1930566 0.65195209 -0.44457841 17
2.1924105 0.81752825 -0.4248051 17
0.51720434 1.2546232 -0.41815847 9.5
2.2195036 3.0309041 -0.4399842 2
-1.1341879 4.1954365 -0.41021562 6
-1.1327909 4.2707253 -0.40288392 6
-0.8327446 5.3356271 -0.43860132 18.5
-0.63025534 5.3099775 -0.4162823 96
