# .PCD v0.7 - Point Cloud Data file format
VERSION 0.7
FIELDS x y z intensity
SIZE 4 4 4 4
TYPE F F F F
COUNT 1 1 1 1
WIDTH 1857
HEIGHT 1
VIEWPOINT 0 0 0 1 0 0 0
POINTS 1857
DATA ascii
4.3280005 -3.7877185 -0.18206021 85
4.7701206 -3.088336 -0.17118661 100
3.4366102 -2.5627418 -0.16990264 0
4.3459449 -2.5251844 -0.19270504 21
3.3018792 -2.2046602 -0.17164819 150
1.6191266 -1.8012998 -0.18194696 8
2.0739403 -1.0826912 -0.1722516 18
6.0282559 -1.1409131 -0.18594269 88
0.20688599 -0.9460569 -0.19234926 3.5
-0.039996859 -0.78288412 -0.16883285 6.1666665
0.041646149 -0.84136105 -0.17458063 5.875
-0.5901947 -0.60057348 -0.16962931 2
-0.31299785 -0.60944426 -0.17391267 9
-0.24710421 -0.64559805 -0.17853072 10
-0.10234141 -0.73634118 -0.16199411 6.6666665
-0.49345264 -0.50995725 -0.16962601 6.6666665
-0.3905403 -0.56106079 -0.17700635 8.8571424
2.868875 0.086882077 -0.15854771 28
2.9739876 0.26438624 -0.16665085 26
1.0383176 0.42384711 -0.19618607 12
1.1394465 0.36516666 -0.16482547 10
1.2210509 0.30321002 -0.15601963 40
0.83218509 0.56294 -0.1653173 11.5
0.94506031 0.48290849 -0.1880966 11
3.0971494 0.45971137 -0.16799074 23
3.1769147 0.58995712 -0.19272527 23
0.55489558 0.73345286 -0.17676701 13.666667
0.66886884 0.66040117 -0.17568022 11.666667
0.3804543 0.84282529 -0.17837019 13
0.48560387 0.77846211 -0.17597464 13.4
0.2909869 0.90884387 -0.15572099 13
0.29989398 1.1221583 -0.19020389 0
0.30317312 1.1158234 -0.18687895 0
-1.0448787 1.7882754 -0.15272199 58
-0.96124411 1.9275727 -0.18246233 67.666664
-0.92956746 1.9753857 -0.16214648 39
-0.93188667 2.3642066 -0.16333134 12
-0.97944891 2.5226598 -0.19415537 111.5
-0.61407673 2.5143785 -0.17892684 93
-0.78931952 2.7811682 -0.18312728 45.5
-0.6762014 2.7616432 -0.18862404 59.333332
0.16491188 3.7492678 -0.19010319 13
-0.0054905294 3.8506052 -0.18945409 87
0.040191144 3.8299375 -0.17305183 45.5
1.4140744 4.4694242 -0.19022116 114
1.2557223 4.5653105 -0.18827932 114.5
4.4245224 -3.6219928 -0.0800061 102
4.5900831 -3.3634462 -0.049060825 45
3.5224516 -2.780968 -0.078261204 0
3.2975504 -2.2163577 -0.12888271 50
1.5735477 -1.802677 -0.070492215 21
1.4611074 -1.730471 -0.050791357 12.666667
1.5866482 -1.7784911 -0.046793345 14.5
5.6127138 -1.7760763 -0.015447502 95
1.1465095 -1.5357236 -0.140696 13
1.2395689 -1.581623 -0.026679015 32
5.7108102 -1.6253 -0.059624318 92
0.88878232 -1.368103 -0.025835877 12
0.99270445 -1.4291924 -0.058459029 14
1.0689529 -1.4788513 -0.06031432 14.5
5.8223963 -1.4681903 -0.10566641 91
0.69370288 -1.2466519 -0.046710808 8
0.78140801 -1.3037856 -0.07457041 12
5.8845229 -1.3042959 -0.1354941 84
0.3998417 -1.0590093 -0.040914778 3.5
0.51755959 -1.1341261 -0.052757036 5.8571429
2.1576619 -1.1369851 -0.042618327 6
0.23388354 -0.95637184 -0.033834409 4.125
0.34986693 -1.0318323 -0.045095958 3.8
2.0947402 -1.0429194 -0.099939413 7
2.1255064 -0.97967619 -0.058158506 5
-0.0417105 -0.77013683 -0.064781025 5.9000001
0.03365789 -0.81948751 -0.019081434 5.4285712
-0.64234126 -0.68192375 -0.08995986 1
-0.59497011 -0.60665828 -0.074103169 1.75
-0.22162312 -0.65989351 -0.088963024 9.7142859
-0.11669607 -0.72182292 -0.077604569 7.181818
5.8848176 -0.70405114 -0.055941273 82.5
-0.50917947 -0.5094586 -0.074488953 6.8636365
-0.38608277 -0.55684805 -0.077646412 8.6206894
2.6256924 -0.19598101 -0.078410439 1.5
2.7521825 -0.065554775 -0.090211429 26
2.8661373 0.10511234 -0.067482583 26
2.9755545 0.27293634 -0.070451654 26
1.0261614 0.4275516 -0.097087152 8.8571424
1.1327024 0.36184701 -0.091945626 17.5
1.2315774 0.30120268 -0.072167613 45
2.996341 0.31114736 -0.1047048 26
0.84367067 0.55167657 -0.10535262 9.909091
0.94872451 0.47931588 -0.10349035 9.1111107
3.1082747 0.49297476 -0.071664505 23
0.56290889 0.72352028 -0.10133817 10.5
0.68385768 0.65518445 -0.10664974 10.384615
0.76484579 0.60828549 -0.094500817 11
0.29313767 0.88012362 -0.12635945 10.5
0.37035921 0.84972137 -0.12273473 12.384615
0.47625121 0.77745855 -0.11407301 11.5
0.70228487 0.85013217 -0.035858426 13
0.23243861 0.91415524 -0.11076424 10.5
0.27423453 1.118994 -0.021668842 6
0.31323704 1.3026628 -0.12303047 2
-1.1025298 1.9448237 -0.10768051 153
-0.95745701 1.9283749 -0.14485872 48
-1.1041836 1.9674858 -0.10375468 153
-0.92980099 2.0161483 -0.065630443 22.333334
-0.86974543 2.0860367 -0.098191805 33.5
-1.2140019 2.2293398 -0.045980398 38
-0.83463657 2.1542547 -0.079807222 19.75
-1.3996416 2.2630138 -0.010080312 49
-1.2254558 2.2821188 -0.011919206 80
-1.1828719 2.2796378 -0.03288779 37
-0.72563958 2.2937036 -0.14553602 67
-1.1932175 2.7192287 -0.022486901 3
-0.95116335 3.095427 -0.045877907 0
-0.92235559 3.1985552 -0.033964906 0
-0.70673186 3.2938704 -0.069551118 92
-0.91092056 3.3973398 -0.019828862 26
-0.40596366 3.4894996 -0.058281548 52
-0.30782676 3.6455073 -0.076276727 52
-0.21569996 3.804107 -0.068413384 50.666668
-0.14985324 3.8808792 -0.024147814 1
-0.0043030856 3.9895034 -0.098457254 41
1.3515025 4.4990811 -0.12537104 64
1.2664914 4.5540028 -0.11966529 62.5
0.82471889 4.9615054 -0.10742191 43
0.97365552 5.0936751 -0.049243722 11
4.2329755 -3.9120235 0.079971097 96
4.2569971 -3.8855376 0.10133379 106
4.415216 -3.6309552 0.054132558 100.5
3.8976138 -3.4051869 0.10209291 13
4.5755148 -3.3501973 0.045958079 49
3.952924 -3.2975965 0.084636591 20
5.4185734 -2.0710816 0.08689069 8
5.5128613 -1.9219204 0.02692383 97
1.5784085 -1.792425 0.051722076 11
5.6814566 -1.6485667 0.12645715 90
1.0864466 -1.4762906 0.023617173 7
5.8334966 -1.42633 0.089246564 86
0.77862018 -1.2816978 0.011566366 9
5.8643594 -1.3467423 0.060974654 87
0.5631482 -1.1469024 0.0061386181 13
2.143522 -1.1331911 0.058736328 3.6666667
6.0445309 -1.1206151 0.018597597 85
0.27958989 -0.97201729 0.0082919253 3
0.40046811 -1.0431699 0.0036152555 1
2.1728559 -0.96965438 0.076811917 6.6666665
6.0425591 -1.0280815 0.0071997894 56
-0.68332648 -0.75529605 0.022252465 3
-0.037399102 -0.76932251 0.012072559 6
0.015620929 -0.79744083 0.016954714 4
5.8353357 -0.77186555 0.14789033 78
-0.65641755 -0.7123816 0.019406671 1
-0.2256808 -0.64203727 0.0054915203 6
-0.10958321 -0.72088313 0.0052503399 5.6666665
5.8820496 -0.70309842 0.13815451 82
-0.42155194 -0.52833408 0.0064524165 8.666667
-1.0008712 -0.37066984 0.10361033 0.06666667
-0.79172689 -0.32647347 0.11448454 4.3333335
4.6560678 -0.41820091 0.13509536 0
-1.0802698 -0.23880364 0.1227012 0
-1.0338397 -0.28617579 0.10614236 0
-0.78609467 -0.28357694 0.10723843 4
-0.7422139 -0.29806328 0.11737775 3
2.6253259 -0.20009539 0.0054284884 4
-0.99413377 -0.051680978 0.14628227 4.75
-0.87506962 -0.04268362 0.13354617 2
2.7368011 -0.078873739 0.05967924 25
2.8283074 0.063854143 0.088831544 24.5
2.8817556 0.12757485 0.0094439639 25
2.9503472 0.24706852 0.06739834 24
2.9973068 0.31341684 0.021515066 23
3.0735555 0.44271746 0.045520045 22
3.1241198 0.51582932 0.045935925 23
3.1984477 0.64467174 0.073395528 18.5
0.96269375 0.88838166 0.093888603 2
0.84765196 1.0314369 0.066424914 43.5
0.96192366 0.97655737 0.093495518 12.230769
0.2692908 1.1486764 0.065023087 5
0.83565891 1.0744544 0.12042505 56.799999
0.92887944 1.2363243 0.1323638 3
0.48964649 1.441852 0.14622951 1
-0.93358243 2.0128736 0.03140324 2
-1.5519196 2.2276814 0.11171576 83.666664
-1.4000099 2.2282238 0.068943985 37.75
-1.3287683 2.2426057 0.061800875 35
-0.84194732 2.1874413 0.02987122 14
-1.3668101 2.2583785 0.095912516 40
-1.2700306 2.3226035 0.039897975 37
-1.1769193 2.741621 0.038551178 0
-0.61602575 3.2446852 0.088357531 70
-0.57192099 3.2629232 0.023449713 31
-0.91794902 3.4180651 0.049152963 34.5
-0.50240451 3.3471601 0.041408714 51
-0.42277181 3.4770269 0.087281652 50.75
-0.25013798 3.7684236 0.069716878 54
1.0634875 5.0411587 0.10551196 11
0.59204435 5.338995 0.13250804 15
4.2291565 -3.9218347 0.24811915 99.5
4.2391348 -3.8929582 0.17796755 150
4.4305687 -3.6090791 0.23492634 105
4.0912952 -2.5978692 0.2288264 14
5.4589157 -1.999701 0.26333964 91
1.6005924 -1.8008515 0.2801106 3
5.4912009 -1.9339986 0.20066464 93
5.6536789 -1.6858561 0.22891745 86
2.7289541 -1.579363 0.20602977 5
5.8594723 -1.3644122 0.23502439 84
-0.96713239 -1.2027365 0.23771101 17
-1.0240378 -1.1876462 0.19401759 1.5
-0.17358564 -1.0698546 0.26552272 0
-0.13202789 -1.1023316 0.28797215 0
0.075079158 -1.1395926 0.22792757 3.5
0.24849768 -1.0652968 0.26065403 3
2.0826924 -1.0604287 0.16299152 5
2.1726608 -1.1297938 0.24462849 5
6.0352659 -1.0917423 0.21525148 75.5
0.0026357293 -1.0062574 0.15878814 2
2.1171088 -0.9804492 0.22470939 3
-0.67876512 -0.82681626 0.23167437 11.5
-0.99746192 -0.4733429 0.20499854 0
-0.86404461 -0.45172438 0.26264644 1
-1.0213009 -0.3667151 0.22129931 0
-0.85008413 -0.43565643 0.24980974 1
-1.479688 -0.24324287 0.29830676 2
-1.0888723 -0.23644525 0.2117006 0
-1.0376505 -0.28305224 0.20867836 0
2.630331 -0.20337288 0.17921072 0
-1.1103425 -0.087329641 0.19785328 0
-0.95628911 -0.095756501 0.16956106 2.8
2.7295885 -0.09193559 0.19569291 20.75
2.8136623 0.038820777 0.22801436 22.75
2.8672626 0.11900578 0.18342322 23
2.913722 0.19911397 0.23753865 21.5
2.9899046 0.31670853 0.24647593 21
3.0499897 0.41106153 0.19593674 21.333334
3.1088293 0.49710408 0.22215098 22
3.1636937 0.59052789 0.20771712 20
3.1787176 0.61898214 0.23735526 18
0.94603318 0.8719433 0.19456659 3
0.82833701 0.98659986 0.23471348 51.904762
0.93666804 0.94928616 0.19133662 5.4000001
0.32928246 1.1546483 0.25698352 1
0.80809999 1.1337059 0.22035047 37.625
0.29433757 1.2972386 0.15219569 1
0.32867196 1.2610507 0.23038705 1.3333334
1.2412249 1.6167195 0.21658897 42
-1.5070195 2.1786907 0.16354635 40.5
-1.4813271 2.1822152 0.1790152 33.333332
-1.3713435 2.3244219 0.19433361 20
-0.64071143 3.2600751 0.18892765 66.25
-0.55824995 3.2518089 0.17248631 36
-0.80456835 3.3636966 0.20983154 70
-0.46023381 3.4366069 0.20746642 49
0.52976811 4.0135884 0.15688497 0
1.0003182 5.0462532 0.18952721 24
0.95434493 5.1041408 0.28167415 13
4.2640386 -3.8597412 0.38832664 107
5.0571079 -2.7898223 0.36436415 11
3.8897851 -2.3542819 0.30906576 15
1.2413148 -1.8028028 0.39755917 51
1.4694406 -1.8620999 0.36116791 61
1.551352 -1.8387005 0.4094536 76.5
5.4906878 -1.9332224 0.34994179 90
1.2900722 -1.7504146 0.4203454 39.400002
1.6257855 -1.7506126 0.35400167 1
5.6536665 -1.6826437 0.37637848 83
5.6777368 -1.6326458 0.44152337 78
5.8370929 -1.4100043 0.30214101 80
5.861845 -1.3504149 0.40442044 76
-1.0146714 -1.3020654 0.38180652 11.666667
-0.054600369 -1.2219449 0.34506688 9.5
0.027640697 -1.2789475 0.33896774 10.25
0.335783 -1.2106012 0.40932256 35
5.9479289 -1.2300744 0.40549451 83
-0.31471699 -1.0612991 0.41313398 7
-0.23252419 -1.1049101 0.39344376 7.375
-0.13268006 -1.1423826 0.35678166 3.5
0.1164818 -1.0808827 0.41657242 17.25
2.0687368 -1.0645641 0.37921572 3
2.152204 -1.1233573 0.37179154 3
6.0461874 -1.0565319 0.37852013 75
-0.5334186 -0.93047845 0.3534531 7.875
-0.38136527 -1.0180728 0.39563605 8
2.0640812 -1.0378804 0.44065958 0
2.1342695 -0.95829093 0.36115071 1.2
-0.66235822 -0.84597886 0.39860395 9.333333
-0.58693606 -0.8920033 0.34231496 9.333333
5.7893977 -0.8532111 0.30441159 23
5.8570127 -0.71793437 0.37518698 76.5
-0.96124178 -0.48881471 0.40995619 2.3333333
-1.0304617 -0.36740524 0.39830163 0
-1.6514865 -0.25690222 0.41699964 9
-1.6159924 -0.19759044 0.38494056 21.5
-1.3885206 -0.16594471 0.36154735 2
-1.2248472 -0.18852875 0.33085081 1
-1.1199485 -0.23251797 0.3449564 0
-1.6551762 -0.047088739 0.39586267 10.5
-1.6362839 -0.13641059 0.43687642 2
-1.2160579 -0.12514153 0.33810031 3
2.763438 -0.017537707 0.34353971 22.666666
-1.6938822 0.063244201 0.41079086 34
-1.528936 0.060917266 0.4072105 14
-1.467711 0.050818127 0.42282045 13.166667
2.8648186 0.13241945 0.35872057 20.666666
-1.7425655 0.172527 0.38470685 2
2.9582219 0.28957015 0.39947814 19.5
-1.7401848 0.405716 0.3834939 3
2.9894466 0.3173461 0.32709852 21
3.0946364 0.49474788 0.35627925 18
3.2107942 0.68863022 0.39367479 10
0.82418031 0.95602864 0.34114695 39
3.3391285 0.90559018 0.42720467 16
0.84265274 1.1927545 0.30280995 2
0.30821425 1.2593595 0.30044097 1
2.1830468 1.4784783 0.43697345 0
2.2378719 1.6356426 0.43010318 3
-0.63791209 3.2566342 0.31390977 71
-0.90613896 3.4252253 0.3453275 63
-0.8203299 3.3778927 0.34726462 66
-1.0904882 3.5464096 0.41185731 62
-0.99072301 3.4714608 0.36003339 66
0.53505296 5.3643761 0.41069701 80.5
0.63564813 5.3359385 0.44911551 2
0.36142886 5.4697895 0.3881546 87.5
4.626265 -3.2870648 0.48307663 101
4.8077316 -3.0053415 0.48606592 99
5.0700421 -2.7888827 0.50870657 9
-1.7821878 -2.5584238 0.54534048 4
-1.8902162 -2.5298352 0.55293047 17.5
1.2876709 -2.0496039 0.56953019 5
0.9679879 -1.8669922 0.58355665 32.5
1.2342076 -1.8596997 0.51112723 6.25
1.5394564 -1.8521382 0.47624305 76.5
5.4965057 -1.9282153 0.47601649 85.5
5.5555167 -1.8353431 0.57279491 86
0.67369187 -1.67628 0.55711871 20.5
0.79805213 -1.7550877 0.5745303 38.666668
1.3156849 -1.7968791 0.51721805 0
1.5969528 -1.7870718 0.52450961 0
0.6204133 -1.638992 0.59395862 44
5.7452645 -1.540151 0.4823277 80
0.22577222 -1.3719279 0.51989663 27
5.8422227 -1.38763 0.57492703 81
-0.050700903 -1.2221074 0.57229418 26
0.09102831 -1.2729799 0.52616584 28.200001
0.18431151 -1.2689275 0.53544205 25
-0.31687763 -1.0573915 0.46856514 8
-0.19684725 -1.1284316 0.58441532 8
0.037288632 -1.1422863 0.54786325 2.5
0.28979728 -1.0818594 0.55336505 5.25
0.3120895 -1.0591114 0.50754952 42.5
2.1748703 -1.1366779 0.53575045 2
6.0322328 -1.087008 0.51661074 83
-0.49560595 -0.94293481 0.54324168 6
-0.39450237 -1.0070521 0.50646931 8.25
0.10315027 -0.95342135 0.53629291 1.2222222
0.21044387 -1.0056129 0.52389008 11.142858
0.35133785 -1.0480064 0.51957744 2
2.0888145 -0.98783255 0.51044375 0
2.1069462 -0.96354556 0.46197087 0
-0.66998529 -0.83280534 0.55256432 8.666667
-0.59396899 -0.88192445 0.53194064 7.3333335
5.7990088 -0.81895387 0.54054695 73
-1.0034443 -0.46544924 0.45060116 4
6.0201821 -0.51298624 0.50664443 0
-1.0142082 -0.40110502 0.50417787 2.3333333
-1.6635262 -0.23117642 0.51347429 6.6666665
-1.6466284 -0.21202338 0.48692062 4.5
-1.0980526 -0.26661807 0.52273065 0
-1.6679541 -0.0483847 0.49043813 7.5999999
2.7419956 -0.044426672 0.46684861 22.5
-1.4722096 0.023477865 0.47050744 0
2.8064003 0.05471338 0.4832238 19
2.8669837 0.13809457 0.47572768 19
2.933032 0.24828982 0.50009727 18.5
2.9964068 0.35511762 0.53479087 18
3.0531065 0.43949467 0.47098351 16
3.0879023 0.49430567 0.54862714 15.5
3.1662593 0.62797809 0.53630215 14.5
3.2656474 0.7906633 0.56676686 1
3.3239007 0.87602258 0.49796981 19
3.3498781 0.90136313 0.46000594 16
3.491415 1.1303892 0.53405744 16
2.1506546 1.4615217 0.46294343 0
3.6416426 1.3881598 0.5853067 15
3.8367841 1.6823593 0.59664983 8
-0.84495902 3.391659 0.48580819 70
-0.51586235 3.364007 0.54863065 44
-1.096198 3.550312 0.53998053 66.5
-0.99687004 3.482482 0.49341345 72
-0.41998553 3.5073195 0.55635452 45
-1.2418076 3.636117 0.56678522 52
-0.3247256 3.676677 0.4607234 49
-0.21018681 3.8558855 0.53213978 45.5
-0.17132585 3.912241 0.48137164 29
-0.14599039 3.9188392 0.52645659 5
1.5486183 4.7009506 0.58124912 2
1.710829 4.7405143 0.58547574 1
0.50151563 5.3816671 0.51320803 89
4.4482946 -3.5553687 0.66126847 98
4.6384344 -3.2466488 0.6848588 96
4.7000289 -3.1549978 0.60509855 94
4.7781963 -3.0307558 0.7283057 89
4.8104687 -2.9877934 0.66218925 91
5.0741429 -2.7414505 0.71827388 3
-1.8446695 -2.5579822 0.68745923 7
-2.0350118 -2.435833 0.66632748 16.5
-1.8936491 -2.5225332 0.66103005 16
-2.186445 -2.3335459 0.73177755 15
1.1626318 -1.9884087 0.65471286 29.333334
1.2414011 -2.0377719 0.64634424 30
0.9575116 -1.8587885 0.65863657 32.200001
1.2858922 -1.8978605 0.65154427 5
1.5159647 -1.872771 0.60033619 48
5.4707656 -1.9397217 0.72796798 87
0.71809256 -1.7021573 0.68576652 37
0.77309453 -1.7395506 0.61139441 33
1.5645937 -1.7929344 0.71408081 51
5.6526437 -1.670921 0.64529204 81
-1.0654218 -1.3805299 0.71478134 23
5.7820888 -1.4710373 0.71392953 78
-1.1046476 -1.3153096 0.73105955 7
-0.06052554 -1.2192882 0.72090268 2
0.056297433 -1.2675722 0.62959206 28
-0.30706257 -1.0580037 0.65521026 8.5
-0.21234736 -1.119428 0.67630541 15.25
-0.092099763 -1.1807172 0.68405479 21.09091
0.23026957 -1.1643664 0.61370385 6
2.2305565 -1.1352634 0.67955327 0
5.9630766 -1.1754909 0.64540172 81
-0.53223389 -0.9144665 0.64478678 7.8000002
-0.39284316 -1.004805 0.69097883 8
0.089503504 -0.96625489 0.66921508 5.5999999
0.23684919 -0.99291843 0.67906356 54
-0.66359425 -0.83089036 0.68504906 8.1000004
-0.5841738 -0.88151085 0.65746278 7.75
-0.041545499 -0.89930767 0.62849033 0
0.014042151 -0.89224207 0.65323853 1
5.8050222 -0.78952461 0.67404234 63
5.9850264 -0.49315622 0.65414274 2
-1.086888 -0.3170242 0.6449886 4.6666665
-1.0219878 -0.3280102 0.72833765 3.5
-1.0716386 -0.27611682 0.69100761 5.6666665
2.7613845 -0.0024735844 0.63337427 19.5
-1.6765437 0.031491302 0.67647696 4.5
-1.6258138 0.0041531296 0.72594774 29
2.8414929 0.12334114 0.66297996 16
2.8548498 0.13276106 0.64010382 17
2.9372888 0.26831704 0.67547452 15.5
3.0303798 0.41790578 0.70593196 13
3.1367757 0.59649658 0.71759975 14
3.2001719 0.70072764 0.61963433 13
3.2992394 0.84709781 0.60843897 19
3.3221526 0.89601618 0.68278587 16
3.3810923 0.9868384 0.62934685 15
3.4486177 1.0706319 0.67483342 16
3.5261126 1.2069455 0.71024787 12
3.6486685 1.3874395 0.63921773 13.5
3.8413393 1.6892552 0.68336582 5.6666665
4.0566993 2.0339205 0.74082637 10
4.1190844 2.1509085 0.7141133 10.5
3.6987002 2.3179452 0.74190223 32
3.9014699 2.2769721 0.73292565 19
-0.61722678 3.2613494 0.6638031 40
-0.59748971 3.2582161 0.64471173 7.5
-0.70175993 3.3049929 0.6916033 65
-0.51847941 3.3541903 0.6783036 50
-1.0739979 3.5355585 0.67932975 68
-0.41347158 3.5302572 0.66326123 44.5
-1.2643645 3.6596599 0.69833958 34
-0.36401963 3.6032877 0.60539305 47
-0.28865549 3.7258482 0.63105047 52
-0.21474789 3.8765204 0.68935359 46
1.5837451 4.6404076 0.63039494 85
1.4235691 4.7452369 0.71152353 97.333336
1.1331108 4.9454093 0.61294162 7
1.2556393 4.8477345 0.6693269 96
0.45842952 5.3989358 0.6183508 89
0.24049784 5.5457349 0.66327298 83
0.38447106 5.4584675 0.69896734 91
-0.0065444289 5.6310191 0.63444757 80
0.12704249 5.6126475 0.64923263 85
0.21917163 5.5584898 0.68106538 91.5
4.2711287 -3.8194268 0.85373294 100
4.4764805 -3.4925332 0.83431906 97.5
4.527946 -3.4086044 0.76475894 83
4.6299381 -3.2513781 0.85081744 91.5
4.8370514 -2.9370718 0.83633709 102
-2.0070109 -2.4431505 0.78257036 15
-1.9266825 -2.5039504 0.79904354 15.25
-2.2931986 -2.2700245 0.86925292 12.5
-2.1720655 -2.3461831 0.83603305 13.333333
-2.4172516 -2.195667 0.84058249 15.5
1.1534224 -1.981111 0.78166115 29
5.4185071 -2.0151615 0.88379991 92
1.2919829 -1.8067031 0.85932761 10.5
1.4121853 -1.8355256 0.84414548 19.333334
1.534045 -1.8338528 0.85025626 72.199997
1.3205488 -1.778765 0.85335088 4.5
5.6092944 -1.7150455 0.83342725 83
5.8069897 -1.4150107 0.8170023 78
-1.0773717 -1.2077197 0.78793097 1
-0.99742568 -1.2309473 0.82074803 18
-0.038826186 -1.2095009 0.87116945 7
-1.0541079 -1.136633 0.80704021 28
-0.95004386 -1.1097798 0.86893439 26.666666
-0.308947 -1.0558755 0.81841254 7.3333335
-0.22697251 -1.1046005 0.78445327 18
-0.11817905 -1.1635424 0.89568925 26
0.40593302 -1.1077255 0.77728128 0
5.9875312 -1.1307671 0.8321141 74
-1.0076209 -1.0324811 0.87290365 11
-0.50263458 -0.93417817 0.84723067 16.75
-0.37871769 -1.0116898 0.83205688 14.428572
-0.021609459 -0.93951768 0.80176353 39.5
0.089790121 -0.97555381 0.80910778 27.4
0.19332378 -1.0234648 0.7864911 79
-0.67550963 -0.82399786 0.80366784 8
-0.55497104 -0.89677918 0.85819137 8
5.8056583 -0.78710508 0.79710573 73
5.849431 -0.72412568 0.79424465 75
5.9910517 -0.4925701 0.76988733 47
-1.0629008 -0.40766218 0.79267347 1
-0.98460495 -0.36552614 0.80877936 1.4
-1.078427 -0.18635049 0.82279474 0.75
-1.0080253 -0.23392542 0.80406523 6.8333335
-1.7414551 0.075828984 0.77219653 11
-1.6165125 0.036762945 0.81552374 13.25
3.1059046 0.55776083 0.7675612 13
3.2707586 0.78299785 0.7695756 10
3.3510861 0.94103503 0.85349673 15
3.4591513 1.1120163 0.76047862 16
3.5622401 1.2584655 0.82590586 14
3.6085441 1.3496131 0.85556364 15
3.6693742 1.4434986 0.80217481 13
3.7565334 1.5844691 0.85261774 8
4.0272775 1.9959719 0.82789254 9
4.0641246 2.0448599 0.81474537 9.5
3.8297932 2.3100262 0.75461471 37
-0.62522584 3.26876 0.79891276 33
-0.81907839 3.3800738 0.83981323 76.333336
-0.74655342 3.3344126 0.83087361 76
-0.42732227 3.5303416 0.78454316 44
2.5539942 4.0346556 0.77267277 6
2.3312757 4.1650944 0.89975417 79
2.4612885 4.0836511 0.8382408 53
2.2744417 4.2027779 0.81932616 8
1.3569592 4.7880921 0.82626784 96
1.257597 4.8533144 0.80750215 94
0.87490565 5.0975723 0.85203898 87
0.97181386 5.0394101 0.87384915 86
0.16865589 5.5909138 0.86152875 88
-2.66713 -4.4089804 0.99831259 105.5
4.3139486 -3.7357171 0.9970296 99.5
4.3581204 -3.6599143 0.9390732 93
4.4746723 -3.4855855 1.0046644 95.666664
4.6655364 -3.2148671 0.90547216 103
4.6929297 -3.1460447 1.00274 104
-1.8505292 -2.5506647 0.90898573 5
5.1071696 -2.6935933 0.95048058 16
-2.0321136 -2.4326713 0.94247532 12
-1.9056783 -2.5106223 0.96449471 12
-2.2896516 -2.2709816 1.0061014 11
-2.1865458 -2.3335767 1.0051165 11
-2.0861714 -2.3924396 1.035723 10
-2.454231 -2.1625564 0.9547326 42
-2.3537931 -2.2350736 1.0020363 13
-2.601069 -2.0619841 0.96546727 77.666664
1.4039315 -2.023092 1.0269041 75
-2.8135192 -1.9246281 1.0146096 83
0.87991458 -1.8053925 1.0278645 31
0.93749952 -1.8356814 1.015999 27
1.4763691 -1.9115762 1.0353515 63
1.5384893 -1.8214614 0.98038751 59
5.4566326 -1.9412409 0.94744062 89
0.69154811 -1.6754506 0.93460071 29
0.79517716 -1.7390198 1.0019253 25.5
1.558593 -1.7829744 1.0259641 58
5.6313949 -1.6655579 1.0176699 79
5.8087649 -1.4021451 0.98579109 76.25
0.035796653 -1.2628374 1.0284959 3
-0.2304152 -1.0855167 0.93019474 29.5
5.9747839 -1.1388122 0.96415746 76.5
6.0202246 -1.0787535 0.90895736 78
-0.51374763 -0.91945153 0.97581494 27.6
-0.39489716 -0.98900771 0.95756626 30.875
-0.64763016 -0.83621836 0.95051157 22.75
-0.5850094 -0.8746267 1.0119697 9
5.7918563 -0.80496103 0.98031926 49
5.9537106 -0.53180993 0.96063298 62
3.4484293 1.1022885 0.9627856 12
3.6740093 1.4477516 0.98384857 13
3.7637954 1.5988888 0.98447895 8
3.9614198 1.9002856 0.98090458 9
4.0100007 1.9806181 0.97502011 6.6666665
4.2405357 2.3568292 0.98666859 10
4.2895503 2.4313624 0.9605543 4.6666665
-0.91726106 3.4351211 0.90469873 64
-0.83332068 3.3862865 0.99343628 71.666664
-1.0729578 3.5432768 1.0029728 72
-0.97310585 3.4794192 1.0491399 51
3.1935716 3.6203899 1.042577 62
2.926362 3.7838025 0.96975553 72
2.3372869 4.1714911 0.92211771 72
2.0697007 4.3465605 0.99104762 60
2.199472 4.2548571 1.032192 75
2.2679269 4.2174377 0.96897686 80
1.1509706 4.9270959 0.96935511 91.666664
1.0219096 5.0055289 0.95804656 91
1.0550599 4.977087 0.90206528 94
0.092962101 5.625514 0.94424003 95.5
-2.7559326 7.4748454 1.0210886 2
4.8606076 12.337946 1.0340174 1
-2.6411543 -4.418644 1.1542633 102
4.1913676 -3.9095068 1.1282206 92
4.2964478 -3.7508886 1.1952858 90
4.3199873 -3.7246673 1.1352341 97
4.5425763 -3.3735237 1.1393502 101
4.8399677 -2.9147496 1.1358832 94
5.0543137 -2.7277792 1.0759757 14
-2.0057774 -2.4464741 1.1134038 12
-1.8792439 -2.5159543 1.1877581 10
-1.7898669 -2.5300612 1.1548995 1
-2.2598298 -2.2836599 1.1528645 10
-2.2005012 -2.3218901 1.1305953 11
-2.0833073 -2.3987923 1.1343205 11
-2.469106 -2.1472881 1.1181773 42.833332
-2.3668096 -2.214128 1.1568336 11
-2.6570301 -2.0189683 1.1129503 78.666664
1.1550469 -1.972239 1.0694048 25
1.2837713 -2.050375 1.1297657 34.25
1.3951801 -2.0376544 1.0876137 65.5
-2.7951064 -1.9325836 1.1014497 81.5
1.0256888 -1.8831842 1.059895 35
1.0767715 -1.9243338 1.1085688 26.5
1.4843436 -1.8887218 1.129271 67
1.5183831 -1.8296857 1.1603397 60.333332
5.4637465 -1.9260614 1.1297081 82.25
0.85153925 -1.7814791 1.1232252 14
1.5677637 -1.7686883 1.1275052 29.666666
5.6372743 -1.6718832 1.0634004 76.333336
-0.027408063 -1.2174186 1.1277348 11.333333
0.053117357 -1.2672062 1.1267217 15.8
-0.23423785 -1.0964019 1.1884713 1
-0.093474731 -1.1711799 1.1973636 35
5.9934883 -1.1030015 1.1717798 70
-0.48375979 -0.93126762 1.0855767 26.5
5.9347105 -0.93106437 1.1531057 26
-0.66770142 -0.81724691 1.1266294 32.833332
-0.56016088 -0.87905198 1.1153424 34
5.8115544 -0.81948131 1.1642739 26
5.8909349 -0.62373894 1.0743779 70
5.9296432 -0.5520153 1.1585095 60
3.5852849 1.3195487 1.0547612 12
3.7266536 1.5406613 1.1797991 14
3.8645465 1.7323186 1.0992423 8
3.9549603 1.898675 1.1238794 7.5
4.1674385 2.2475243 1.130506 4
4.2169933 2.3273952 1.106035 4.5
4.1644273 2.5848389 1.0811738 26
4.4359727 2.8118508 1.1021966 17
-1.0591961 3.5403302 1.0978405 67
-1.0399985 3.5236681 1.1778923 57
-1.1674595 3.616611 1.1647478 62
2.9882958 3.7491806 1.1680063 69
3.0834627 3.7001283 1.1219088 76
2.6919169 3.9353509 1.0706898 75
2.7453492 3.9084642 1.1870788 69
2.1262612 4.2943664 1.0521263 81
1.7584139 4.5383406 1.0795276 77
0.93936068 5.0638933 1.1221675 86
0.7203508 5.222044 1.1240056 84
0.7843644 5.1868005 1.163089 89.5
0.61464787 5.2824187 1.1182814 84
-4.413238 6.4322596 1.173681 33
-2.8828361 7.5123796 1.0566567 3
-3.2271733 7.7662106 1.0546298 46
-2.6042657 -4.4507928 1.2058913 52
-2.7620053 -4.3446331 1.3476968 8
4.147603 -3.9746628 1.2896169 15
4.3957996 -3.602735 1.2888221 96
4.6739531 -3.1512368 1.3395983 94
4.6798754 -3.1463084 1.2401747 97
5.070828 -2.7104836 1.2635589 13
-2.0092928 -2.4190228 1.2994412 10
-1.8838013 -2.52213 1.2670083 6.5
-2.2614851 -2.2797086 1.2437866 10
-2.1313329 -2.3623297 1.2859067 10
-2.4803596 -2.1373155 1.2505641 43.5
-2.3654552 -2.2071137 1.2694516 10.5
-2.7149103 -1.981563 1.2654092 83
-2.606401 -2.050128 1.2693586 75.25
-2.5443177 -2.0881176 1.2684373 63
1.3229246 -2.0790374 1.2882602 42
1.4070394 -2.0093267 1.2283493 65
-2.8644497 -1.8791345 1.3000319 69
-2.8451123 -1.8957719 1.2149127 73
0.90606219 -1.8059077 1.3409426 23
1.0529724 -1.9104435 1.2298416 25
1.4536667 -1.9294598 1.2907175 62.799999
1.5136656 -1.8317214 1.2712988 58.75
5.5013819 -1.8636794 1.3417557 76
5.5882168 -1.7221304 1.3388278 73
5.6537228 -1.6218193 1.287478 69.5
5.7152662 -1.5196309 1.2981033 77
5.7939582 -1.4060674 1.2543454 72.666664
-0.01633646 -1.2187539 1.3047557 34
0.0072687985 -1.2317917 1.315603 30
5.9044266 -1.2307119 1.2301221 74.5
-0.18850656 -1.1096957 1.2744793 25.333334
-0.097157255 -1.1711648 1.2704639 21.75
5.9646215 -1.1291531 1.2491839 69
-0.35625714 -1.0082365 1.2937881 9
-0.29672652 -1.0433624 1.2893704 16
-0.66530108 -0.80960268 1.2681493 24
-0.57263952 -0.86215442 1.225208 34
3.8750999 1.7847155 1.3149245 7
3.8844388 1.821261 1.2896473 3
4.0406876 2.0418115 1.2281331 8
4.1400723 2.2234814 1.2823727 3.5
4.2253394 2.3474553 1.2118711 2
4.3401322 2.6120541 1.2951385 30
4.3822002 2.6913314 1.2954986 40
4.3900785 2.7067621 1.2820014 36
-0.64815438 3.2777827 1.3010876 66
-1.0223174 3.5144279 1.2663461 47
-0.46575636 3.4958935 1.2691157 44.5
-1.2373749 3.6646791 1.3131599 59
-1.1519343 3.6131041 1.2472782 77
-0.39991412 3.6083972 1.3187933 44
3.0655794 3.7078009 1.2910775 75.5
-0.24357206 3.8659487 1.2787195 45.666668
2.7915246 3.8795075 1.3069383 69
2.9335995 3.7967024 1.2678752 72.5
-0.18858567 3.9295008 1.2753792 17
2.4879551 4.077631 1.2527068 76
1.537038 4.685545 1.3017983 79.5
0.72013241 5.2215967 1.3000817 81
0.89278895 5.1054664 1.2696247 92
-4.3937645 6.4794464 1.3127055 30
-3.177124 7.748857 1.3483706 44
-3.1285689 7.6974702 1.2598683 44
-2.7277939 -4.3684149 1.4655961 11
4.2420373 -3.8246779 1.4484918 93
4.5178494 -3.3878407 1.420326 92
4.6852055 -3.1219015 1.4945385 93
4.7678285 -2.9989479 1.3818337 90
4.8433161 -2.8846414 1.4292724 88
5.0943098 -2.6808367 1.4258156 14
-2.5132043 -2.1051824 1.3948838 71
-2.7455449 -1.9579191 1.3948656 64
-2.613935 -2.0420239 1.4236126 70.333336
1.1405616 -1.9517452 1.4307919 26
1.2343001 -2.0041091 1.4704194 24.666666
1.3947743 -2.0115685 1.4218228 63.42857
5.3918056 -2.0202491 1.4641773 77
5.4320884 -1.9643394 1.4161493 78
-2.8982406 -1.855191 1.4268601 41.5
-2.7843444 -1.9319173 1.3986596 75.333336
1.0010045 -1.8592068 1.406846 22
1.0777751 -1.9114325 1.4403036 25
1.4622326 -1.8935487 1.4051613 56.5
0.86921155 -1.7723274 1.4146957 20.5
5.554945 -1.7761019 1.374707 78
0.24582799 -1.3697792 1.4700235 35
0.30062431 -1.4128828 1.461645 23
-0.029640187 -1.2109294 1.4373376 29
0.058585335 -1.2602755 1.4491506 27.333334
0.1818736 -1.3373364 1.4486637 22
-0.22990716 -1.0796994 1.3967882 25.571428
-0.1021902 -1.1611757 1.4092693 30.333334
-0.4763898 -0.92577887 1.4489734 28
-0.36593461 -0.99835545 1.4382735 19.333334
6.0316982 -0.99565679 1.489202 61
-0.71120507 -0.77336186 1.3799107 19
-0.57909489 -0.87482864 1.41587 3
5.7952247 -0.82827014 1.3914254 13
5.8331165 -0.68972319 1.3727064 66
5.9156561 -0.56080973 1.3589852 63
5.9891262 -0.42548701 1.3702673 38
4.0349674 2.0734444 1.4529575 2
4.0682106 2.1223884 1.4456145 2
4.2574568 2.4018576 1.3916118 1
4.31845 2.5753481 1.4626446 16.5
4.3615332 2.6777143 1.3719385 33
-0.63122791 3.2828264 1.4162681 38.25
-0.54738832 3.3655114 1.3678668 42
-0.43962714 3.5508039 1.3983957 43.333332
-0.32287687 3.7423396 1.3582149 45
-0.24407977 3.8720491 1.3872448 53
2.8177567 3.8729353 1.4146533 76
2.9343886 3.8001051 1.4009113 74
-0.22289237 3.9160128 1.4388995 46
2.5402503 4.0362329 1.3502785 70
2.6467059 3.9888544 1.4390826 74
2.2864659 4.2163577 1.4498612 78
1.6423473 4.6145673 1.3678224 77
1.7272552 4.5730195 1.4120849 55.666668
1.5831409 4.6718559 1.4859723 87
0.68271965 5.2471685 1.4070823 83
0.55379337 5.324007 1.3879044 82
0.65501773 5.2711005 1.3772222 95
0.3451882 5.5080786 1.4229295 92
0.46403471 5.4187374 1.4217026 92.5
-4.3637409 6.5262833 1.4820809 23
-4.2987809 6.6246777 1.4369326 25
-4.0322123 7.0415993 1.4499176 22
-4.0290694 7.0686255 1.4037576 27
-2.8520598 7.0908418 1.4893818 40
-2.3054721 7.0809059 1.4569813 16
-3.3391104 7.4249578 1.4096469 25
-3.0515807 7.5645456 1.4192226 17
-3.3916795 7.8310533 1.4589916 24
-3.2848427 7.8138223 1.4162818 46
5.2415485 12.134331 1.3962178 1
-2.6163902 -4.4319534 1.5590039 84
-2.7214491 -4.3442521 1.5892527 5
-2.6550906 -4.3411727 1.6100541 67
4.3567538 -3.6238346 1.617292 78
-2.2956254 -3.4717309 1.5560362 4
4.5328655 -3.3587041 1.5727067 93
4.6113214 -3.2269454 1.5390173 94
4.7040052 -3.0991812 1.6201485 87
4.8544397 -2.8667006 1.5772483 82
4.8756404 -2.8312838 1.6243786 70
5.0849862 -2.7002654 1.5141755 13
5.1049652 -2.6369696 1.5620642 8
-1.935729 -2.4846747 1.6336316 80
-2.2191734 -2.3063045 1.5671587 44
-2.0734138 -2.3939352 1.5983852 68
-2.4768586 -2.1435728 1.5397272 17.5
-2.355233 -2.2071812 1.5865006 40.666668
-2.7001474 -1.9802884 1.5326315 79
-2.6970596 -1.985025 1.649598 77
1.3396219 -2.072443 1.5753161 52.666668
1.4048324 -1.9896506 1.5295178 62
-2.9126816 -1.8500388 1.5745419 41.5
-2.792207 -1.9194336 1.5230749 83
1.0821692 -1.9136668 1.5330452 23.666666
5.5713835 -1.7361201 1.6101916 73
5.6311774 -1.6304471 1.6210448 67
0.21926267 -1.3583982 1.5008134 23
5.7525444 -1.4425406 1.5593884 68.5
0.085492924 -1.2698177 1.5831575 25.799999
0.17677577 -1.3278409 1.5201344 33
5.8754344 -1.2521968 1.5175098 64
-0.22591011 -1.078261 1.5477575 22.666666
-0.060077325 -1.1818682 1.5611132 25.333334
5.9500594 -1.1350847 1.5158098 70
-0.50403672 -0.90875554 1.5830555 20.5
-0.38737586 -0.9769727 1.5649416 24.5
-0.68242753 -0.7983855 1.5760918 19.5
-0.53869927 -0.88451374 1.5492656 33
4.2775598 2.4321167 1.646583 3
4.4228249 2.7722852 1.5616657 34
4.2803459 2.9804704 1.6295332 7
4.4119473 2.9066515 1.6361101 22
3.8811066 3.2451537 1.5907356 80
3.9250157 3.2161591 1.5912747 80.5
-0.83646011 3.4112442 1.5906324 69
-0.69940603 3.3188457 1.5032254 65
-0.59332049 3.3164985 1.5657442 45
2.928865 3.4269946 1.6232752 9
2.81532 3.5745263 1.6272322 9
-3.8271484 3.7482648 1.6444179 57
-1.2774241 3.6831684 1.5361044 61
-0.42147842 3.6121655 1.5544676 46
-4.5578318 3.8580749 1.6458486 41
-4.3409181 3.8169048 1.6474653 44
-1.3551248 3.8827596 1.5320472 16
2.2142603 3.8826847 1.5887839 42
2.9180772 3.8145115 1.615623 59
-4.7955027 4.0490522 1.6451024 39
-3.8004277 3.9046018 1.641256 41
-0.2211443 3.9377337 1.5405437 43
2.1358809 3.9259596 1.6211108 77
2.5338058 4.019093 1.630932 38
2.6442802 3.9915936 1.5523793 76.666664
2.7675326 3.9066722 1.5114518 78
-3.9829285 4.0786695 1.6397952 34
-3.5393677 4.0509686 1.6436142 59
-3.3254135 4.146019 1.6465958 59
2.346679 4.1737356 1.5318506 73
2.4544625 4.1135612 1.6026208 72.5
-4.2317085 4.2097988 1.644192 42
-4.1634145 4.244678 1.6338643 46
-3.3777223 4.2715263 1.638837 54
-2.8353045 4.2310481 1.6424435 48
-4.5215707 4.4607453 1.6370717 39
-4.3873296 4.439394 1.6232668 38
-3.8653543 4.3634019 1.6372303 35
-3.4323003 4.3950686 1.6349493 51
-3.2761283 4.3618383 1.6377426 51
1.3155096 4.4419527 1.6081536 82
-4.6365328 4.5169773 1.6268302 30
-3.9730368 4.5700135 1.6339487 43
-3.8943889 4.5600429 1.6266302 45
-3.5313389 4.5646381 1.638178 21
-2.5670183 4.532618 1.6445092 41
1.2326802 4.5189166 1.5641795 47
1.4356284 4.6061349 1.6068051 21
1.6427824 4.6311355 1.5296419 90
-4.8815637 4.7394133 1.618631 33
-4.053721 4.7058735 1.627413 40
-3.5556118 4.6866765 1.6324011 29
-3.030863 4.6923356 1.6375474 40
1.4626977 4.7215734 1.5855389 44.5
1.5308932 4.6854405 1.5708259 66
-4.2780747 4.912014 1.6145102 38.333332
-3.3850775 4.8743362 1.6236866 25.5
-2.7617226 4.8233051 1.6212591 32
-2.3034022 4.823679 1.6355594 40
1.2719777 4.8594561 1.530996 83
1.3539127 4.8088541 1.5535698 78
-3.8705223 5.0359979 1.6068763 29
-3.7410088 4.9797878 1.6310631 36
-3.2786655 5.0319371 1.6247181 23
0.36700892 5.0641584 1.5388168 55
-4.6157651 5.2141685 1.6095282 33
-4.4528632 5.1784377 1.5990999 32
-3.454149 5.1036673 1.6239487 36
-2.4759853 5.1644731 1.6281317 34
-2.0455406 5.1397982 1.6350027 44
0.13334101 5.2133865 1.5670327 83.5
0.24009557 5.1331892 1.5329846 64
0.36144894 5.2439933 1.5655636 13
-4.7215714 5.2873783 1.5987643 33
-4.015337 5.326623 1.6055083 30.5
-3.5349908 5.3357768 1.6105967 28.5
-3.0068958 5.3940115 1.6148177 19
0.024986397 5.282784 1.5948067 85
0.64711195 5.2598057 1.5147384 80
-4.9189968 5.4784584 1.5596168 2
-4.1617284 5.4690928 1.6143305 32
-2.6717939 5.529088 1.6011311 27
-2.1892951 5.4841719 1.6152915 35
0.44759279 5.4277415 1.5625021 85
-4.147068 5.5517511 1.5876389 31
-3.4127932 5.6004605 1.6008513 28
-2.4488187 5.5931668 1.6381689 26
-4.4079609 5.7501698 1.5931544 33
-4.3163452 5.7921281 1.5821807 33
-3.8041401 5.8068681 1.6034753 31
-3.4230821 5.7440734 1.5907449 19
-3.2523506 5.7934818 1.5920491 28
-2.3367395 5.7699389 1.6304281 26.5
-3.891279 5.8623219 1.5796794 31
-3.4508374 5.9165053 1.5928018 30
-2.3041971 5.9361296 1.6158814 28.5
-1.9091719 5.8519979 1.6138753 37
-4.5846491 6.0326476 1.5514734 11.5
-3.5027671 6.1081085 1.5867996 22
-4.116941 6.2657146 1.5728374 24.5
-3.5458577 6.279747 1.5755854 23
-2.9817731 6.2577887 1.5888841 31
-2.0453203 6.2836037 1.5914613 30
-4.8995342 6.3168902 1.5958205 7
-4.2850981 6.4453206 1.5758587 20
-2.5684495 6.4125485 1.5860177 22
-5.143692 6.5960217 1.5575769 28
-4.2484174 6.5358019 1.5460473 20
-3.46457 6.5948548 1.5660998 23
-2.3740952 6.5329881 1.6130191 19
-2.2644484 6.6376424 1.6049393 31
-2.1502109 6.6475058 1.5544164 53
-3.9097893 6.8696218 1.5432978 21
-3.8905239 6.8613954 1.5740098 24
-3.4491484 6.7531204 1.5557882 21
-3.2301469 6.7500134 1.5579629 20
-3.4573503 6.9481692 1.5611535 23
-3.4770548 7.1435089 1.5501004 22
-3.5519331 7.4045792 1.5435934 26
4.4190588 -3.5220547 1.6955744 90
4.5542703 -3.3229535 1.7541009 86
4.7115426 -3.0751979 1.724936 84
4.8258219 -2.8895643 1.6629227 84
-1.8024125 -2.5574932 1.6697291 79
-1.7740871 -2.5755429 1.7279686 76
5.0710053 -2.6829665 1.756467 13
-1.9758631 -2.4448512 1.7920281 79
-1.8927777 -2.5007918 1.7456626 79
-2.2631769 -2.2685502 1.7268881 77
-2.1135917 -2.3611681 1.7547253 79
-2.4250684 -2.1559782 1.6797988 75
-2.6413426 -2.0118001 1.6751667 72
-2.5396845 -2.0768163 1.720029 71.333336
1.3253825 -2.0685556 1.6672012 38
5.4264131 -1.9664289 1.6752712 72
-2.932132 -1.8300482 1.7096882 49.333332
5.4780097 -1.8638445 1.6908098 75
-0.0044406829 -1.2073511 1.7134668 26
0.023801249 -1.2316211 1.6996697 23
-0.18407284 -1.0979494 1.7066997 17.333334
-0.065474048 -1.1746438 1.7236365 19.5
-0.47067499 -0.92243624 1.6994995 25
-0.35474357 -0.99361372 1.7048223 16.5
-0.65202856 -0.82203263 1.6908544 18.5
-0.55298603 -0.87293386 1.7123879 25
5.7785993 -0.73722351 1.6931509 61
5.9310646 -0.49732894 1.6934751 54.5
-3.2951593 0.22655733 1.7735461 85
-3.0944662 0.23919718 1.7816795 79
-2.8890119 0.25307465 1.7815689 29.5
-2.7535448 0.25290623 1.7893468 36
-2.6077051 0.25707036 1.7902396 80
-3.7177944 0.39598006 1.7641116 63
-3.4803777 0.39130443 1.7707765 85
-3.3857944 0.3669703 1.7715511 90.5
-3.2033021 0.38021442 1.7760795 8
-3.0600159 0.4212333 1.7717638 42.5
-2.7815514 0.32118016 1.7767988 31
-2.657737 0.37813169 1.7818438 36
-2.4550564 0.36760861 1.7836429 78
-2.3514335 0.43365413 1.7839204 79
-2.1525893 0.40452325 1.7960532 54
-2.0684676 0.40573531 1.7961944 50
-1.9353474 0.39235675 1.7933861 44
-4.1264095 0.57405913 1.7616421 41.5
-3.9734375 0.55165321 1.7679855 19
-3.871628 0.59520465 1.7605346 77
-3.7064409 0.57418406 1.7650591 95
-3.4704635 0.59895581 1.7673084 87
-3.2995265 0.47744411 1.7667412 50
-3.1244078 0.51586068 1.7758747 85
-2.8913076 0.49046499 1.7742174 71
-2.7734509 0.51141739 1.779125 61
-2.6313941 0.50619751 1.7808543 41
-2.4467175 0.58147317 1.7730812 78
-2.2646151 0.48974693 1.7891551 74.5
-2.1759853 0.5062896 1.7889355 89
-2.0768306 0.58650959 1.7929624 86
-1.8872555 0.51901525 1.7917171 85.5
-1.7435679 0.54393923 1.7950993 89.333336
-1.593075 0.58975905 1.7994124 83
-1.2973936 0.48475716 1.7981448 68
-3.8393822 0.6038546 1.7596883 93
-3.6655738 0.64509505 1.7627068 97.333336
-3.5121124 0.6624465 1.7568351 81
-3.371556 0.66303772 1.7626344 80.666664
-3.2132936 0.62876987 1.7626556 82
-3.0764489 0.66882777 1.7667646 77.5
-2.8947167 0.73341525 1.7708627 69
-2.764667 0.71197337 1.7741588 68
-2.6326516 0.68178636 1.7750723 54
-2.3024459 0.66533363 1.7782086 83.5
-2.1787972 0.67505038 1.7849206 82
-1.8357631 0.63576549 1.7895647 88
-1.6994818 0.70995188 1.7922615 91
-1.6170931 0.69972795 1.7982037 85
-1.4399788 0.65466607 1.7990166 95
-1.3056381 0.72729504 1.7991341 94
-1.1228807 0.69609177 1.7976629 78
-1.0265635 0.73140377 1.7998506 75
-4.4365754 0.88469583 1.733971 67
-4.2749424 0.8446312 1.7417184 74
-4.131927 0.89112997 1.744143 78.5
-3.9779723 0.854325 1.7524215 81
-3.8780718 0.89734316 1.751755 81
-3.7243626 0.85970521 1.7597719 92
-3.4975631 0.88697785 1.7565058 84.666664
-3.3676424 0.89563388 1.7529043 70
-3.2306426 0.88727009 1.7546169 79
-3.1100478 0.81589067 1.7634517 86.5
-2.7787521 0.76738143 1.7694787 79
-2.6237969 0.84332246 1.7723039 81
-2.4389982 0.80171555 1.7666475 33
-2.3256209 0.84131837 1.7660438 64
-2.1805007 0.8534236 1.7763609 82
-2.0776787 0.77134752 1.7848419 85
-1.8611577 0.78586721 1.7813022 86.5
-1.7189641 0.82773423 1.791051 86
-1.6355004 0.85623193 1.7936618 87.5
-1.4141023 0.8085736 1.7936995 89
-1.2800214 0.86831683 1.7987262 86
-0.79786074 0.89746916 1.7990478 66
-3.6859114 0.93180496 1.753914 85.666664
-3.5204129 0.99898899 1.7540482 95
-3.3091271 0.99722767 1.754054 85
-3.092535 0.98112094 1.7552627 82
-2.8901274 0.98276901 1.7638463 75
-2.7682726 0.97424972 1.7651347 72.5
-2.654995 0.96550918 1.7659247 79.5
-2.4250946 1.0271916 1.7608255 55
-2.1627228 0.94473362 1.7729796 84.666664
-2.0747588 0.96224582 1.7752923 79
-1.8846469 0.95208633 1.7746378 81
-1.737977 0.98073536 1.7809196 83.333336
-1.5972004 0.95062107 1.7895749 88.5
-1.4315394 0.9511078 1.7923049 77
-1.2878213 0.99193215 1.7941689 84.666664
-1.1118664 0.98461437 1.799678 92
-0.95727795 0.99208462 1.7990671 88
-0.67154539 0.97536922 1.7960339 77.5
-0.5808059 0.98582935 1.7974365 66.5
-0.3726393 0.98404211 1.7992393 67
-3.9972086 1.1707069 1.7419635 77
-3.6972983 1.1786424 1.7475047 77.666664
-3.5178368 1.1639683 1.7609794 63
-3.3789287 1.1772764 1.743641 70
-3.246542 1.1547822 1.7452871 71
-3.1214597 1.1321806 1.7503444 78
-2.7611103 1.1979241 1.7596658 73
-2.6501889 1.1382525 1.7631956 73.5
-2.3126771 1.0569035 1.7659796 33
-2.2007751 1.0902158 1.7670614 50.666668
-2.080734 1.1292033 1.7683084 82.5
-1.8523395 1.1451025 1.7655464 87
-1.6909244 1.1325291 1.7750151 81
-1.5853106 1.0992121 1.7818712 81
-1.3915423 1.1154592 1.7853471 81
-1.2363309 1.1242849 1.7906851 84
-1.1101508 1.1701986 1.7902995 77
-1.0096141 1.1214 1.7979764 84
-0.71949428 1.1531448 1.7982262 85
-4.1566133 1.2228059 1.735073 73.5
-3.9112062 1.209896 1.7393099 69
-3.8275175 1.2578835 1.7404182 78
-3.5368333 1.246895 1.7471843 82
-3.3038766 1.2662472 1.7404212 86
-3.0884418 1.2431867 1.7454163 87.5
-2.8753161 1.2360609 1.7510915 75
-2.7539425 1.2341214 1.7523631 79
-2.6067564 1.2306497 1.7537168 83
-2.4064965 1.2618234 1.7551976 81
-2.2858787 1.2736747 1.756029 62
-2.1609807 1.2857245 1.7616001 38
-2.0629423 1.2858523 1.7601959 42
-1.8162106 1.348375 1.7644948 77
-1.660342 1.3058972 1.7722155 94
-1.5738436 1.2651951 1.7777793 86
-1.2955574 1.289254 1.7796274 84
-1.1255423 1.2732409 1.7890557 80.833336
-0.95318085 1.2643526 1.7922443 78
-0.81304431 1.270524 1.7972206 74.333336
-0.65686953 1.2794753 1.7963434 77
-0.53030717 1.2677244 1.7986008 80
-0.41465324 1.3258076 1.7983744 77.5
-3.7573242 1.4626681 1.7413558 91
-3.6825302 1.4910928 1.742592 72
-3.5248203 1.448964 1.7416481 82.5
-3.3981249 1.4778833 1.7409195 74
-3.2577114 1.4353408 1.7324392 76
-3.1398084 1.3995801 1.7390021 77
-2.8844762 1.4988816 1.7349466 82
-2.747848 1.4702878 1.749328 76
-2.633558 1.4097853 1.7542825 79
-2.1459861 1.4952686 1.7554554 58
-2.0614982 1.4354249 1.7596165 34
-1.7183108 1.3637193 1.7687784 79
-1.5607538 1.4048054 1.7708859 82.5
-1.2856954 1.4571099 1.7735602 82
-1.1383191 1.4396211 1.7821145 75.25
-1.0334888 1.4254107 1.7864375 74.666664
-0.84345043 1.4037631 1.790687 72
-0.68426925 1.4051918 1.7959024 73.333336
-0.54845482 1.4371047 1.7938205 74.25
-0.37216395 1.4493786 1.7973081 70.25
-0.24426034 1.4793761 1.796209 74
-4.4963508 1.6096617 1.710632 68
-4.3400722 1.5497802 1.7250756 71
-4.1820641 1.5705085 1.7240975 39.5
-3.9568126 1.5224962 1.7305833 75.666664
-3.7744966 1.6412387 1.7250696 77
-3.7335589 1.5077896 1.7345339 74
-3.5408649 1.5562315 1.7366995 76
-3.3073945 1.5521919 1.733905 86
-3.080987 1.5164113 1.7354237 78.5
-2.8388221 1.5068921 1.7501498 81
-2.6233771 1.6092821 1.7488633 82
-2.3184471 1.5031617 1.7495444 75.5
-2.1479609 1.5448306 1.7523278 68.5
-2.040904 1.5939161 1.753322 33
-1.7185183 1.5556116 1.7576107 74.5
-1.5664599 1.5555886 1.7693051 79.25
-1.4790156 1.5990407 1.7697394 75
-1.2195582 1.6353818 1.7673265 78
-1.0860084 1.598914 1.7749435 75
-0.99446213 1.5886717 1.7776526 73
-0.8134473 1.5582446 1.7825319 68
-0.6822893 1.5380627 1.7868649 72.333336
-0.54290843 1.5908499 1.7880588 68.166664
-0.37089756 1.5460378 1.793867 70.333336
-0.22931845 1.5807382 1.792123 72.875
-0.094503485 1.5626491 1.7957602 71.333336
-3.7729084 1.7881274 1.7294186 84
-3.5513895 1.7585056 1.7323335 80.5
-3.4097638 1.7925383 1.7316791 67
-3.2247772 1.7148511 1.7314955 79
-3.1040373 1.7953043 1.7307161 92
-2.8671548 1.7763798 1.7260083 75
-2.7571018 1.7512436 1.7375113 83.333336
-2.6236019 1.6868198 1.7420868 78
-2.3490074 1.7627887 1.745171 71
-2.1631002 1.7271384 1.7445174 72.5
-2.0524523 1.7056545 1.7498449 66
-1.7115437 1.7708293 1.7491337 71
-1.5668311 1.7362221 1.759106 76
-1.4541814 1.7328066 1.7624357 75.5
-1.053907 1.7959937 1.7650954 56
-0.95543981 1.7464093 1.7726611 71.75
-0.88989651 1.7376322 1.7695843 65
-0.68822694 1.6885216 1.7753377 65
-0.52147686 1.7375956 1.7806933 70.75
-0.39869273 1.7292567 1.7829453 68.25
-0.22505541 1.7017479 1.7847649 71.833336
-0.083633743 1.7288109 1.7875975 68.85714
0.04724003 1.7226582 1.7896525 65
-4.3603492 1.92799 1.7068192 71
-4.2146215 1.9430428 1.7136 70
-3.9808483 1.8688917 1.7166282 75.333336
-3.7605569 1.8365495 1.7209333 69
-3.7117374 1.8121611 1.7310926 80
-3.5384274 1.8801706 1.7227119 79
-3.3140531 1.8580852 1.7284909 89
-3.0417471 1.8159561 1.7213155 81
-2.6493392 1.9149945 1.7370793 81.5
-2.1338871 1.8246362 1.7457732 76
-2.0413539 1.9007425 1.7455508 71.333336
-1.9498681 1.9145957 1.746262 76
-1.442988 1.8971844 1.7539105 73.333336
-1.1429461 1.8199295 1.7627665 65
-0.95922315 1.8486083 1.7736201 65.5
-0.8593778 1.9097604 1.771768 61.666668
-0.63241345 1.8543019 1.7635368 71
-0.52702099 1.8379883 1.7749574 68
-0.38528019 1.8846248 1.7760442 63.400002
-0.18122879 1.8794684 1.7809794 66.5
-0.060333095 1.8595171 1.7824901 71.199997
0.059554696 1.8770543 1.7862918 65.85714
0.15098573 1.9155319 1.7853309 66
-4.5409045 2.009387 1.7007784 67
-3.7793887 1.9909389 1.7084147 79
-3.5469766 2.0556335 1.7267579 81
-3.2463713 2.032753 1.7224547 74.5
-2.7859437 2.04427 1.7247791 77.5
-2.6859312 2.0099692 1.7215549 79
-2.5371411 1.9576892 1.7299591 88
-2.3031626 2.0271482 1.7329792 68
-2.1789393 1.9921943 1.7383715 71
-2.0471611 2.0584254 1.7436434 69.333336
-1.5956469 1.9837229 1.744186 49.5
-1.3976064 2.0564933 1.7504915 71.5
-1.0537015 2.0110376 1.7580372 61
-0.94192505 1.9759419 1.7621864 65
-0.82126927 2.0448315 1.7650914 61.333332
-0.73378778 2.0571465 1.7641178 61
-0.49301472 1.9902179 1.7685041 60.5
-0.33989325 2.017153 1.7726698 62
-0.26810274 2.0435793 1.772844 60
-0.064350657 2.0060563 1.7797114 66.5
0.077099651 2.0222485 1.7810558 67.333336
0.21794169 2.0365865 1.7795085 64.714287
0.36828834 2.0835936 1.7815179 62
-4.0694771 2.231426 1.7068552 71
-3.9862311 2.2391474 1.7072304 76
-3.7873073 2.1620486 1.7081442 73.5
-3.6752582 2.1414032 1.7147368 72.5
-3.5400062 2.184813 1.7098559 69
-3.3618422 2.1527176 1.7169927 74.5
-3.0700779 2.1208401 1.7218784 84.5
-2.8132577 2.1047618 1.7481204 26
-2.6228893 2.1731231 1.7308654 76
-2.5120225 2.236603 1.7278811 82
-2.0067217 2.1907015 1.7374989 71
-1.8974513 2.1432354 1.7377032 76
-1.5702749 2.2437689 1.7427858 33
-1.4102911 2.1612086 1.7437931 69
-1.297398 2.1038594 1.7512859 71
-0.9506737 2.2024438 1.7470692 60
-0.81366873 2.1511641 1.7588136 59
-0.63924259 2.220263 1.7539009 57
-0.37709814 2.1452861 1.7640631 57
-0.20251139 2.173738 1.7714627 61.400002
0.055524003 2.1718559 1.7743932 65
0.21332963 2.1601629 1.7770979 64.800003
0.3561846 2.1861444 1.7770422 61.799999
0.50377542 2.2157643 1.7832915 66
-4.3929272 2.3359103 1.6903239 72
-4.2402768 2.3374369 1.6960397 69.5
-3.9881055 2.2650578 1.7015845 67
-3.7927725 2.3695071 1.6958276 78
-3.5356452 2.2713594 1.7081691 73
-3.2141042 2.3364229 1.7109646 64
-2.7689729 2.3638291 1.7207745 67.5
-2.6611652 2.2784467 1.7206361 78
-2.1863894 2.2823746 1.7253958 69
-1.9986639 2.3278115 1.7337937 72.333336
-1.8403623 2.394197 1.7356089 78
-1.3034431 2.3245437 1.7433164 66.800003
-0.76360774 2.3510666 1.7507001 58
-0.69862908 2.3127563 1.7553279 56
-0.2470251 2.3033795 1.7606896 55.5
-0.087736182 2.3181145 1.7690219 62.166668
0.20343794 2.2971842 1.7714828 60
0.35638103 2.2900922 1.7768567 63
0.49642882 2.336118 1.7787453 62.57143
0.65788317 2.3719378 1.7758056 59.666668
-4.5707793 2.4292994 1.6808957 61
-3.8297696 2.5254722 1.7098204 119
-3.6468227 2.4954526 1.698593 64
-3.5629675 2.4060543 1.7128695 70
-3.3473384 2.4756072 1.705161 66
-3.0509932 2.4497986 1.7074134 74
-2.7737656 2.4184666 1.7297302 72
-2.6253285 2.5031683 1.7287396 76
-2.4678106 2.5217445 1.7112285 81
-2.0064213 2.496882 1.7235355 74.5
-1.9489257 2.5047197 1.7246245 76
-1.432209 2.4659016 1.7377255 32.5
-1.2705359 2.459352 1.7355448 63
-1.1290379 2.5265286 1.7397875 60
-0.83472198 2.4125779 1.7460059 61
-0.63025725 2.5095856 1.7514751 54.5
-0.56916994 2.465337 1.7554607 58
-0.053085007 2.465703 1.7666422 61.25
0.073673509 2.481714 1.7691083 62.666668
0.36784923 2.429286 1.7744807 63
0.53782892 2.4428537 1.7763785 59.333332
0.65782112 2.4876027 1.7741566 58
0.83511919 2.4997644 1.782221 43.666668
4.3198133 2.4883339 1.6532127 1
-4.0891953 2.6612692 1.7060609 101.5
-4.0466294 2.6946762 1.7013327 92
-3.8263555 2.5768695 1.7104621 96
-3.5493283 2.614346 1.7023139 35.5
-2.6581414 2.631911 1.7189907 69.666664
-2.1846743 2.6148994 1.7130758 72
-1.9594233 2.6456313 1.7211128 70
-1.9051681 2.6517842 1.7174891 69
-1.76912 2.6533868 1.7243024 77
-1.2386636 2.6121469 1.7304182 43
-1.1890863 2.6635957 1.723749 32
-0.70092577 2.6251752 1.7396084 58
-0.51862776 2.6273904 1.7502804 57
-0.41603273 2.5932522 1.7535671 55
0.10317463 2.6197398 1.7620064 60.400002
0.22656071 2.647244 1.7634916 59.666668
0.54605079 2.5527291 1.7729234 59
0.71697885 2.5937562 1.7683759 55.5
0.82706708 2.646646 1.7659423 60
0.96521968 2.610131 1.7751884 47.75
1.1252688 2.6441715 1.7732339 52.333332
4.1770182 2.6440942 1.7110599 35
-4.418396 2.7728939 1.6669985 61
-4.2688179 2.766418 1.6771553 65
-3.8370404 2.8086264 1.699169 87
-3.5887609 2.7952733 1.7011644 68
-3.3290486 2.7942054 1.6921078 57
-3.2400498 2.708667 1.6988019 60
-3.0837409 2.7708459 1.698877 69
-2.7643685 2.7505093 1.7095045 64
-2.4290698 2.8470271 1.7056648 76
-1.9867243 2.8443143 1.7112712 81
-1.8863909 2.7555289 1.71955 78.5
-1.3657494 2.7503459 1.7178196 60
-1.1245164 2.7989581 1.7209865 32
-1.024129 2.7549899 1.7309016 69
-0.47765684 2.7523379 1.7432393 55.5
-0.42443395 2.7951818 1.7457498 59.5
-0.28120625 2.790911 1.7484218 56
0.24867737 2.7811172 1.7576071 56.666668
0.36235097 2.800945 1.7573445 63
0.89370996 2.7080739 1.7647156 55
0.99559045 2.764689 1.774448 60
1.1317772 2.8421516 1.774889 51.5
1.2596947 2.7704792 1.7734379 53.25
1.4026585 2.7464988 1.7760233 46
1.6030502 2.8335211 1.7808456 48
3.9557934 2.7631664 1.7360424 72.5
-4.6579866 2.9211535 1.6821917 33
-3.8268571 2.9392633 1.6824867 64
-3.6899469 2.9070604 1.6811749 64
-3.5435042 2.9815288 1.6867722 65
-3.4226744 2.8827219 1.6893798 60
-3.2993054 2.9063003 1.6875869 62
-2.978874 2.8518419 1.6904975 69
-2.6110346 2.9274819 1.7094632 66.333336
-2.1176188 2.9592838 1.7123693 75
-1.8727854 2.9400675 1.7166213 73.666664
-1.6880109 2.9389944 1.7162651 65
-1.1275769 2.9029374 1.7232889 29.25
-0.90497363 2.9988952 1.7206892 69
-0.54900348 2.8504305 1.734279 60
-0.32560718 2.9387617 1.7370062 60.75
-0.29225978 2.9811623 1.7408332 66
-0.12838134 2.9928873 1.738062 67
0.42190102 2.9003503 1.7521625 57.333332
0.54213631 2.9312425 1.7564512 63
1.0428931 2.8757119 1.7679487 56
1.1375504 2.8817799 1.7711803 54
1.2861923 2.9468346 1.769313 53
1.4211651 2.9333766 1.7702399 48.333332
1.5019006 2.8588269 1.7624544 42
1.7646825 2.9897921 1.7703565 46
1.849063 2.9126327 1.7831856 48.5
2.1367934 2.9478707 1.7910527 42
3.7643459 2.8917298 1.7815009 81.5
-4.0889769 3.0825868 1.6666906 64.5
-4.04318 3.1190412 1.6624151 63
-3.8624823 3.0111587 1.671676 66
-3.5385857 3.0621221 1.6784714 65
-3.2706897 3.1298406 1.6875497 62
-2.7509561 3.1079261 1.6877145 69
-2.6529665 3.0454123 1.710445 60
-1.8282769 3.1058335 1.7146574 74
-1.7914302 3.0536113 1.7084798 65
-1.2400628 3.0375535 1.7097868 60
-1.0058881 3.1119649 1.7152305 30.25
-0.3754589 3.0854044 1.7279853 57
-0.20909609 3.1014795 1.7344397 59
-0.14370479 3.0982237 1.7295395 59
0.44808495 3.0218585 1.7456154 56
0.55900013 3.0769434 1.7503099 51.5
0.6584093 3.0806262 1.753322 56.75
0.77603287 3.090519 1.7504128 53
1.2897228 3.0609591 1.7670537 50
1.4301391 3.0276232 1.7718177 49
1.5849428 3.0802987 1.7727098 46
1.6957933 3.07024 1.7761747 51.333332
1.9482253 3.1421642 1.7804991 53
2.0661201 3.0624347 1.7784147 46.5
2.3817832 3.1047719 1.7935086 18
4.0325923 3.1128194 1.6641811 69
4.1410522 3.0246146 1.6758145 31
-4.3761735 3.2681057 1.6777674 29
-4.267662 3.2456903 1.651492 29
-3.8104939 3.2307863 1.660904 58
-3.6053588 3.2197132 1.6800317 63
-3.3489354 3.2296364 1.6794206 61
-3.0771539 3.1660771 1.688413 70
-2.9441333 3.2659121 1.6787964 65
-2.6448236 3.2020774 1.7073569 59.5
-2.3785558 3.1995678 1.6950761 69
-1.8532207 3.1968226 1.7105919 59.5
-1.5980235 3.2620597 1.7139784 63
-0.99233454 3.2470472 1.7141389 38.5
-0.76812029 3.2623692 1.7091426 70
-0.15655832 3.2087619 1.725123 57
-0.12390776 3.2454519 1.7323817 60.5
0.044160347 3.2168176 1.7317532 61
0.68034607 3.1980467 1.7432483 52
0.86734384 3.2489719 1.7486364 50.333332
0.98030889 3.2922535 1.7534724 52.5
1.5865831 3.2106767 1.7632505 49.5
1.7496681 3.2022595 1.77177 48.5
1.901337 3.2158442 1.7789084 48
1.9921064 3.2031164 1.7773438 49
2.2042041 3.2654939 1.7817012 45
2.3125434 3.2487745 1.7802593 42.5
2.685868 3.1679525 1.7961799 40
3.0709472 3.2518613 1.7579849 34
3.9524837 3.1689429 1.7545288 39
-4.7201409 3.4482715 1.6639723 48
-4.5080276 3.3007119 1.6695083 43
-3.8686576 3.4105155 1.6645263 62
-3.7438343 3.3744318 1.6646339 61
-3.537807 3.4395506 1.6700794 63
-3.4329159 3.3304284 1.6772169 59
-3.2990801 3.3373687 1.6772128 63
-2.6010935 3.3555758 1.6985973 56
-2.5331972 3.3526621 1.6835216 65
-2.0255411 3.3202174 1.7011894 55
-1.7549543 3.3585558 1.7057947 57.666668
-1.0976253 3.3625891 1.7107471 71
-0.90275878 3.3484778 1.7116498 71
-0.84524941 3.4181073 1.6894488 78.666664
-0.17802987 3.3352301 1.7226065 60
-0.056797091 3.3394377 1.7283176 54
0.031296831 3.3741798 1.7345239 56.5
0.79564005 3.3127098 1.7510244 51.5
0.94028586 3.3864019 1.7478322 54
1.0777535 3.3742452 1.7489899 48
1.9034412 3.3328793 1.7633013 51
2.0500598 3.3480933 1.7704489 46.5
2.229697 3.3580799 1.7766584 46
2.3407099 3.3478739 1.7711128 45
2.5221834 3.3608334 1.7892303 21
2.6939731 3.3238704 1.7788929 26
2.9010303 3.4011962 1.7460785 57.666668
3.033947 3.3450651 1.7132751 57
-3.9116797 3.5006361 1.6536239 59
-3.5362561 3.5220952 1.6608216 66
-3.2940481 3.5989883 1.6661791 59
-2.7063289 3.5313811 1.6788574 67
-2.6223884 3.5156205 1.6973695 61.5
-2.3181887 3.5924988 1.683832 57
-1.7464743 3.5348427 1.6988939 55.333332
0.071330883 3.5095634 1.7298174 56.333332
0.25481662 3.5317101 1.7285572 55.5
1.0364239 3.581547 1.7502011 52
1.1331372 3.5009375 1.7506477 48.333332
1.2395597 3.5189221 1.7555565 55
1.3566619 3.5721312 1.7483701 51
1.8917243 3.4516783 1.7624189 49
2.242626 3.5031593 1.7662953 43
2.3477709 3.5258634 1.7684952 46
2.4222193 3.4605405 1.7729677 39
2.5652375 3.4792473 1.7791699 24
2.7812917 3.4951127 1.7531959 64.5
3.2220511 3.5845048 1.719391 12
-4.2038789 3.6307843 1.6721002 30
-4.1338229 3.6407552 1.661759 24.5
-3.6396825 3.714674 1.6645952 60
-3.3568788 3.7051549 1.656376 63
-3.0662935 3.6063845 1.6745108 64
-2.8984296 3.723253 1.6630501 53
-2.578294 3.7092011 1.6938542 63
-1.9157883 3.7187221 1.6890811 56
-1.6717602 3.6885166 1.6955508 60
-1.4849195 3.6015861 1.7000536 57
0.049948256 3.6040602 1.7212151 58
0.2272892 3.6816921 1.7252731 51
0.31592643 3.7262034 1.731223 56
0.47330803 3.7308247 1.7272567 58
1.4498661 3.6866369 1.7537564 51.5
1.5359529 3.6888773 1.7562162 40
2.2563179 3.6583939 1.7609624 47
2.5267954 3.6802928 1.6558546 69
2.624095 3.618758 1.733592 71
3.0381274 3.7205498 1.6990157 37
-4.4395394 3.8191745 1.6581517 43
-3.4320307 3.8252683 1.6572808 53
-3.2818205 3.8046436 1.6534272 65
-2.5648036 3.8174541 1.6869916 61
-2.4734285 3.7826064 1.6722065 60
-1.6941528 3.781065 1.6928381 55
-1.6041508 3.8275113 1.6872021 54.5
0.30988443 3.8901215 1.7188038 58
0.51357144 3.8670542 1.7180117 52
1.3815138 3.8296041 1.74775 49
1.5506842 3.7581484 1.7528538 52
1.7296039 3.8154559 1.7524633 47
1.8203256 3.8520191 1.7625149 50
-3.9469326 3.9795477 1.6594032 32
-3.532675 3.958602 1.6535639 60
-2.5871975 3.9868286 1.6745911 57.666668
-2.2458096 4.0377221 1.6708301 53
-1.6724769 3.961586 1.6866435 55
-1.581659 3.9948149 1.6867086 54
0.36590081 3.9522295 1.7201931 52.5
0.54389739 4.0041556 1.7255011 55.666668
0.73748046 4.0169663 1.7221946 54
1.8996983 3.9287996 1.7459486 49
2.0528266 3.9665263 1.7009864 71
2.1359978 3.9228377 1.6810881 77.5
-3.0428066 4.0958881 1.6517621 56
-1.7837641 4.1669579 1.6761695 57
-1.5405648 4.1239896 1.6899146 31
0.60967278 4.1955619 1.7165831 58
0.80459124 4.1682248 1.7167336 27
2.4642637 4.0852728 1.6866035 38.5
-3.6891253 4.297317 1.6514806 23
-2.5210471 4.2692547 1.6645937 51
-2.394115 4.2608924 1.6522301 48
-1.5839658 4.2586226 1.6775783 48
0.66322553 4.3314886 1.7155699 51.5
0.84891945 4.3224425 1.7225313 53.333332
1.042011 4.3264313 1.7144588 51
-2.4883804 4.4532604 1.6669003 44
-1.5118487 4.385911 1.6691029 54
1.1326107 4.4763761 1.7050575 63
-2.4847143 4.5904579 1.6674296 45
-2.152679 4.53545 1.6507968 48
0.98989272 4.5646753 1.6856177 65.5
1.1608071 4.5429749 1.6657876 80.333336
-1.619666 4.6600561 1.6553701 55
0.045400362 4.663857 1.6813205 34
0.94948167 4.6814098 1.6643728 77
-2.4985347 4.8328552 1.6534878 31
-0.0511452 4.9377608 1.6723908 47
0.074715212 4.8977847 1.6722423 54
-2.4561579 4.9740691 1.6555222 32
0.05566914 5.004427 1.6757373 58
0.34428364 5.0783215 1.6501611 92
-2.4159658 5.1012654 1.6594852 32
-2.3849635 5.2299733 1.6526197 35
0.11271079 5.1642137 1.6703948 69
4.1977129 -3.8562012 1.8328282 90
4.2372456 -3.8069055 1.8701485 89
4.3090096 -3.6770873 1.9030029 83
4.3992991 -3.5537341 1.8543825 86.5
4.5650625 -3.2889097 1.8300335 83.5
4.6798797 -3.1154687 1.8338302 88
4.7999768 -2.9237723 1.8222362 79
4.848249 -2.8559554 1.854092 82
5.036201 -2.755861 1.8539382 0
-1.9793885 -2.4413495 1.8708577 76
-1.9039464 -2.4914584 1.8525301 84
4.4119473 -2.477371 1.8638567 1
-2.11935 -2.2843053 1.8782068 72
-2.0750413 -2.3692739 1.8725129 82
-2.4517012 -2.1251652 1.8538939 82
-2.2859123 -2.2187047 1.8680319 81
-2.0280778 -2.2009065 1.8758093 61.333332
-2.6301713 -2.0204711 1.8269551 57.5
-2.3479776 -1.9592475 1.8636061 65
-2.1641479 -2.0642323 1.8672243 65
-2.02789 -1.9865223 1.8708655 56
-1.8973134 -2.0975754 1.8745023 62
-1.6695354 -2.0279763 1.8749415 69
-2.8639152 -1.8667827 1.8244649 71
-2.7451954 -1.9450922 1.8246241 79
-2.6338258 -1.8567473 1.8642899 66
-2.5191398 -1.8615941 1.8597761 6
-2.1719396 -1.8667434 1.8604896 55
-2.0217419 -1.8961043 1.8672205 57.5
-1.8228161 -1.9483843 1.8784629 30
-1.7469136 -1.8165667 1.8749701 27
5.4266634 -1.9363259 1.936469 62
-2.785064 -1.7267085 1.8539871 44.666668
-2.6937711 -1.7531513 1.8506061 62
-2.1796374 -1.7148094 1.8590512 43.666668
-2.0694106 -1.7457421 1.867184 55
-1.890741 -1.7191714 1.8692769 65
-1.6736704 -1.6927372 1.8746594 35
-1.5422252 -1.6813456 1.8713984 68.666664
-1.3691853 -1.7543333 1.8783828 27
5.5707874 -1.7174668 1.8924872 62
-2.0653861 -1.5603104 1.8564707 57
-1.8099303 -1.606245 1.8658313 66
-1.7318031 -1.5003074 1.8655418 65
-1.6474824 -1.6474808 1.8698446 37
-1.4476404 -1.5562092 1.8724056 69
-1.278342 -1.6035981 1.8789027 29.5
-2.091424 -1.3812699 1.8552581 8
-1.9071401 -1.4507468 1.8579895 57.5
-1.7076162 -1.4434882 1.860268 71
-1.5768679 -1.4547604 1.8678305 64.75
-1.3778815 -1.4616814 1.8660222 79
-1.259153 -1.387597 1.8654014 78
-1.1271002 -1.4033663 1.8761925 25.25
5.7045178 -1.4915346 1.8851073 60.5
-2.00667 -1.2900608 1.859676 5
-1.9197183 -1.212008 1.8561529 7
-1.7481581 -1.280633 1.8582131 66.333336
-1.6135799 -1.3018576 1.8588345 71.5
-1.4124445 -1.2577968 1.8688269 48.5
-1.2438618 -1.2601333 1.8706489 78.333336
-1.1126204 -1.2381727 1.874102 60.333332
-0.99404347 -1.2051026 1.8728303 9
5.8528438 -1.2632179 1.853146 62
-1.8200356 -1.0968146 1.8498389 70
-1.7043487 -1.100826 1.8501998 71.5
-1.6015346 -1.1525065 1.8583233 70
-1.4652991 -1.0896416 1.8609512 55
-1.2742617 -1.0962597 1.8644418 77.75
-1.1132981 -1.0786349 1.8662744 79
-0.21817541 -1.0787897 1.8400108 16
-0.10106127 -1.1314709 1.8703153 42.5
-1.8748744 -0.96017611 1.8424762 77
-1.7108647 -0.93380213 1.8468004 67.333336
-1.585964 -0.96716511 1.8509185 71
-1.3999995 -0.94513917 1.8556304 78
-1.2770437 -0.9240762 1.8619186 79.5
-1.1627496 -0.93186826 1.8619761 83
-0.94249296 -1.0022248 1.866166 64.333336
-0.87407893 -1.0035759 1.8578848 0
-0.46601379 -0.92442602 1.8381118 37
-0.37837422 -0.9390561 1.8525813 41
-0.23327926 -0.99896276 1.8703949 41.799999
5.9948735 -1.0291065 1.841422 64
6.0031796 -1.0233593 1.8169743 63
-2.0000646 -0.83522213 1.8404979 7
-1.8817132 -0.83051383 1.8429289 41
-1.6707215 -0.81455851 1.8513368 13
-1.515411 -0.75092798 1.8491043 61
-1.4063179 -0.81447661 1.8537637 76.5
-1.2716995 -0.78436804 1.8585768 81.5
-1.1129508 -0.7629832 1.8528426 57.5
-0.98648143 -0.83650351 1.8633584 66.5
-0.87562615 -0.82249641 1.8584934 11
-0.65296012 -0.80572921 1.82895 52.666668
-0.52985168 -0.83771598 1.856956 63.888889
-0.38740271 -0.80478001 1.8688797 64.75
-0.27637491 -0.84283829 1.8704878 52.333332
-3.3455284 -0.61989844 1.809986 15
-1.4069465 -0.67528772 1.849861 75.5
-1.2775356 -0.64363241 1.8520927 86.333336
-1.1372859 -0.63107741 1.8513917 69
-0.9346773 -0.65034395 1.8438662 49
-0.82627875 -0.67392915 1.8515679 55.166668
-0.66614276 -0.67395437 1.8536386 81.300003
-0.53027385 -0.68286639 1.8615006 77.833336
-0.38000178 -0.66932559 1.8653034 66.599998
-2.9645362 -0.50930959 1.8079318 1
-2.1612463 -0.50464684 1.8244007 69
-2.0587306 -0.46995321 1.8235072 73
-1.3999356 -0.47632852 1.8432134 88
-1.2843944 -0.50137663 1.8495029 65.25
-1.0872258 -0.49228969 1.8413682 16
-0.9660542 -0.51412058 1.8472383 56
-0.81890339 -0.50804073 1.8469924 83.428574
-0.6837374 -0.53050697 1.8491099 79.85714
-0.54825687 -0.52105117 1.85436 79
-0.41632846 -0.52597833 1.8535881 78.5
-2.2565403 -0.38576728 1.8213243 75
-2.168191 -0.31738776 1.8106022 80.5
-1.979151 -0.44990471 1.8281699 76
-1.8804154 -0.35401073 1.8236339 76
-1.4195855 -0.33190501 1.8402313 81
-1.3151109 -0.36241192 1.84154 35
-1.1147684 -0.36957395 1.8370073 36.5
-0.95171922 -0.38517979 1.8426063 74.5
-0.81090128 -0.36569124 1.8419237 81.285713
-0.67973053 -0.36805555 1.8468636 77.555557
-0.50993824 -0.38057998 1.8493437 76.800003
-0.43082973 -0.44802982 1.8545824 71
-2.2591393 -0.25907043 1.8073028 1
-2.0450268 -0.28626114 1.8218985 73
-1.8553506 -0.21393467 1.8200277 0
-1.7819663 -0.27367362 1.8257831 76
-1.5330977 -0.29932946 1.8394016 59
-1.4283637 -0.23464592 1.8319669 28.333334
-1.3026789 -0.22269689 1.8277606 37
-1.136595 -0.24418637 1.8341501 79.75
-0.95726466 -0.22948685 1.8358206 78.75
-0.81890374 -0.21461277 1.8372927 77.14286
-0.66631418 -0.21944618 1.8415138 80.428574
-0.51671654 -0.242346 1.8463364 79.199997
-1.8623133 -0.045116268 1.8153597 77
-1.7558196 -0.062503062 1.8211429 48
-1.5388305 -0.076204017 1.8252898 50
-1.3915013 -0.065170832 1.8294458 94.333336
-1.2639594 -0.098156966 1.8244292 80.666664
-1.1168777 -0.067867175 1.828414 80.833336
-0.97715569 -0.076282784 1.8287135 79.166664
-0.82632238 -0.071967334 1.8342214 78.333336
-0.68155628 -0.074109048 1.8366932 77.800003
-0.52663362 -0.06734629 1.838514 77.5
-1.8566744 0.064606577 1.8324432 52.5
-1.7175405 0.089183278 1.8278086 53
-1.5812377 0.053342428 1.824699 86.666664
-1.3913093 0.075272925 1.8158545 83
-1.2764117 0.060334105 1.819447 78.25
-1.1256092 0.090334222 1.8216234 81.25
-0.9687072 0.069860406 1.8244867 79.5
-0.82469672 0.06889645 1.8282284 79.416664
-0.67191309 0.089981511 1.8316873 81.400002
-0.53441077 0.078979574 1.8307028 80.666664
-1.7465889 0.23075518 1.8103642 67.5
-1.5871105 0.20547651 1.8178655 85.666664
-1.3920668 0.21774602 1.8158017 83.333336
-1.2616276 0.22624145 1.8118612 75.5
-1.1360582 0.23226261 1.8151487 78
-0.95532191 0.22117621 1.8176705 79
-0.81770635 0.23796657 1.8210975 78.375
-0.67753893 0.22828329 1.8261621 80.428574
-0.54458702 0.22712868 1.8280483 69.75
-1.6742239 0.38303614 1.8084332 73.5
-1.5536547 0.37486112 1.8085419 89.5
-1.3849598 0.36006799 1.8115034 87.666664
-1.2651097 0.38247931 1.8054591 74.333336
-1.1181165 0.37851971 1.8100108 77.25
-0.95302469 0.38214251 1.8121674 65.25
-0.83122438 0.36555138 1.8145088 76.85714
-0.68565989 0.3850438 1.834901 57
-0.57112163 0.35810187 1.8780025 35
-1.6665316 0.53829694 1.8039345 85.5
-1.5036985 0.47046939 1.8051771 91
-1.3852773 0.5278421 1.8043181 94
-1.2820449 0.54179984 1.8070287 88.666664
-1.1291996 0.51082426 1.804983 75.666664
-0.96893233 0.51901162 1.8111187 72.199997
-0.83555585 0.52369189 1.8125238 75
-0.66445601 0.53206897 1.819466 68.63636
-0.54947186 0.50302202 1.9328583 150.66667
-1.2681249 0.66100025 1.8078758 95.25
-1.1095216 0.6181885 1.8098751 81
-0.9672907 0.6573624 1.8064809 74.666664
-0.82125527 0.6746999 1.8081001 75.714287
-0.66718328 0.67561692 1.8074371 72
-0.53002429 0.68783939 1.8233536 70.428574
-1.263415 0.79011315 1.804791 90.333336
-1.1464345 0.81605679 1.803853 94.333336
-0.95552999 0.8325609 1.8056217 83.199997
-0.82765406 0.80299121 1.804805 70.14286
-0.67271924 0.83137536 1.8052163 75.222221
-0.53424424 0.82855529 1.8060707 74.199997
-0.42056814 0.84643275 1.8058406 75.5
-1.2359715 0.9161002 1.8039719 91
-1.159966 0.90854681 1.8047198 93
-0.91675055 1.0299103 1.8076118 86
-0.81299633 0.98646611 1.8053533 91.333336
-0.71027201 0.95614052 1.8026527 79.333336
-0.51288158 0.96631193 1.8060025 71.333336
-0.44719136 1.0455134 1.8019217 69
-1.1420426 1.0924355 1.8240134 39.666668
-0.91245371 1.1268467 1.8009609 82
-0.8378709 1.1258999 1.8027598 85.333336
-0.69322902 1.11435 1.80553 83.833336
-0.53048557 1.1207672 1.8058342 85.714287
-0.38790965 1.1275353 1.8081439 79
-0.28816646 1.1878095 1.8097643 81
-0.77716857 1.2198052 1.8020235 71
-0.67150831 1.2782155 1.803352 80
-0.51101279 1.2362264 1.803318 79.599998
-0.37345079 1.2791421 1.8048967 73.599998
-0.23543862 1.2919127 1.8101751 66
-0.48214528 1.3763249 1.8005478 72.5
-0.3444207 1.3718811 1.8009318 75
-0.25261992 1.4049447 1.8017765 69.599998
2.418638 3.0054088 1.8069133 15
2.6832256 3.0178356 1.8015279 44
2.975522 3.0337536 1.8106042 41
2.60742 3.3658812 1.8034457 17
4.1131639 -3.8598967 2.0865836 3
4.2537689 -3.7834816 1.9865183 92
4.0951967 -3.6181865 2.0455749 26
4.2273684 -3.7452509 2.0536621 36
4.119029 -3.5928411 2.0728056 32
4.4236498 -3.5166798 1.983101 84
4.1019578 -3.3290248 2.0773516 31
4.245419 -3.3742421 2.0501103 31
4.5151496 -3.3240337 2.0470176 68
3.6431952 -3.2581019 2.0633373 31.5
3.7572653 -3.2814534 2.039463 31
4.5595508 -3.2993767 1.9544026 80
3.5091977 -3.045701 2.0279031 32
3.678467 -3.0252075 2.0698485 31
3.9318268 -3.1056216 2.0454214 32
4.1171808 -3.0704215 2.0797236 31
4.3646288 -3.1316905 2.0492604 30
4.6078033 -3.1055849 2.0957727 43
4.6828036 -3.0955563 1.9720089 86
3.0724993 -2.9208183 2.0184236 30.5
3.2624161 -2.9544306 2.0516181 34
3.3233931 -2.8748405 2.0116239 32
3.6701369 -2.8866405 2.0159147 29
4.046185 -2.8886476 2.0273631 30
4.4315386 -2.8646092 2.0330875 31
4.7956262 -2.9241612 1.9590341 75
2.8974223 -2.7447581 2.0003719 37
3.0050824 -2.7422457 2.034163 39
3.2006183 -2.750303 2.0106905 36
3.3325891 -2.7680979 2.0404692 31
3.4995589 -2.7271776 2.0106008 29
3.6866183 -2.7823215 2.0492845 29
4.072886 -2.7881796 2.0647671 30
4.4563408 -2.758523 2.0671136 29
4.8349733 -2.8171756 2.03949 44
2.8004243 -2.5617669 2.0180969 45
3.0859284 -2.5708256 2.0329745 36
3.3718078 -2.5565341 2.038868 31
3.8161275 -2.6934903 2.0179009 29
4.1458645 -2.6444187 2.0292959 14
4.45439 -2.5611131 2.0278547 23
5.08144 -2.6618457 1.9737536 13
5.1375256 -2.5650015 2.0128195 3
3.6585097 -2.5233202 2.040869 30
3.9618175 -2.4773664 2.0472066 28
4.2867627 -2.4233644 2.0620842 21
4.7859874 -2.4680033 2.0386815 1
4.5912857 -2.3365366 2.0619249 1
5.4152408 -1.9224674 2.0248342 60
5.5602469 -1.7110492 1.9660059 69
-0.52710515 0.39075574 1.9547192 152
-0.50683612 0.58104199 1.9904286 150
