# .PCD v0.7 - Point Cloud Data file format
VERSION 0.7
FIELDS x y z intensity
SIZE 4 4 4 4
TYPE F F F F
COUNT 1 1 1 1
WIDTH 1733
HEIGHT 1
VIEWPOINT 0 0 0 1 0 0 0
POINTS 1733
DATA ascii
1.0385616 -5.9552073 -0.19403754 14
1.422955 -3.6878431 -0.16642208 40
1.6445379 -3.6944804 -0.18770543 36
-0.50550765 -3.4902568 -0.18604217 91.5
-0.41772595 -3.4865005 -0.18746246 11
0.14408584 -3.4599233 -0.195962 5
-0.21141474 -3.3689387 -0.17504504 20
-0.11272867 -3.3832896 -0.16450432 23
1.8868725 -3.4043741 -0.17638168 46
1.8714556 -3.2501183 -0.18730849 45
1.8520448 -3.0727847 -0.16729216 42
1.8351393 -2.7973959 -0.17499639 40
1.8173051 -2.5551233 -0.18151204 39
1.8008792 -2.346699 -0.17762013 53
1.7733858 -1.8661987 -0.16056071 72
1.767682 -1.700045 -0.17360994 71
-0.34810621 -1.5819409 -0.19791454 15.5
1.7460752 -1.4057326 -0.16572498 76
-0.53182608 -1.2007838 -0.15135376 14
-0.49655592 -1.1923814 -0.17647229 11.5
-0.37632734 -1.1751361 -0.16684076 12.5
-0.25707665 -1.1873636 -0.1744103 15.666667
-0.44989297 -0.94459021 -0.19688669 0
1.0243256 -0.9821915 -0.15151978 6
-0.54144549 -0.80469608 -0.18874839 1
-0.24822131 -0.79220462 -0.16937663 13
-0.60758251 -0.70685011 -0.15079126 0
-0.56176674 -0.7255888 -0.16810445 0.66666669
1.1862584 -0.68627232 -0.17599216 68.199997
1.2263476 -0.60703993 -0.17233698 52
1.2622534 -0.56550008 -0.17455849 56
1.4506161 -0.49050581 -0.17152584 20
1.5573111 -0.45178828 -0.19470935 150
1.6669941 -0.38147402 -0.16190612 75
1.6574503 -0.23660405 -0.17854653 78.666664
1.646315 -0.08739379 -0.16391848 77
1.6504204 -0.060020145 -0.17944863 79
1.6397007 0.076153755 -0.1814346 79
1.6287408 0.22652298 -0.18444678 75.5
1.6222922 0.37983894 -0.17774518 40.25
1.613627 0.56312907 -0.19439584 12.5
1.605087 0.67419285 -0.17905629 12.5
-0.76995468 0.88189459 -0.16678812 12.333333
-0.66857916 0.88788998 -0.17580386 15.428572
-0.53390872 0.89779902 -0.16941082 17
1.5973768 0.83127165 -0.18307638 12.5
-0.55553049 0.90350896 -0.18853106 18
1.5828414 0.9876374 -0.17248648 12
-0.1608009 1.1280286 -0.19822048 13
0.061890643 1.0521804 -0.19015177 9
-0.019017059 1.2243063 -0.18172595 38.5
0.16048552 1.4189377 -0.15894346 14
-0.23280513 1.7767296 -0.18193851 24.333334
0.035571706 1.7805654 -0.18951999 14
-0.29218352 1.8051947 -0.15370439 38
0.46183801 2.7904212 -0.18600278 48
0.68875837 2.9385324 -0.15596326 12
0.86418879 3.0757422 -0.1764755 40
3.4454124 3.2083931 -0.16852748 80
1.3316181 3.530067 -0.18567178 104
3.4231319 3.5552869 -0.18965389 79
3.3952577 3.9788384 -0.18394907 82
3.3783648 4.1891766 -0.19658588 84
3.359997 4.3675327 -0.18671417 87
2.0971513 -8.8467331 -0.0059060501 54
0.73163193 -6.0014482 -0.11736379 25
0.99541098 -5.9758692 -0.037829254 32
1.3539615 -4.0241289 -0.11514706 7
1.9191957 -3.9329612 -0.019406175 41
1.905478 -3.7904875 -0.024394786 42
-0.54991347 -3.7070758 -0.14449731 36
1.4094007 -3.7273159 -0.049226347 35
1.9019418 -3.6688621 -0.038386051 45
1.8990879 -3.5724969 -0.063457198 42
1.8616953 -3.1724865 -0.02467913 39
1.8398519 -2.8786244 -0.051580016 40
1.8231068 -2.6293566 -0.06508816 38
1.7956278 -2.1262 -0.021161053 61.5
1.7838503 -2.0531249 -0.050799303 59.5
1.775445 -1.8951648 -0.085334964 67.75
1.7625898 -1.7432588 -0.089503072 63.666668
1.750689 -1.5717237 -0.091711707 66
1.7381687 -1.2904691 -0.075934552 78
-0.50203985 -1.1553251 -0.12778763 6.4285712
-0.37281358 -1.1267344 -0.12390801 6
-0.27636653 -1.1422575 -0.13006869 6.75
-0.48105305 -0.93428946 -0.12556975 3
-0.3681277 -0.94535416 -0.12443465 4.1999998
-0.28635505 -0.90411311 -0.12675899 3
1.2314556 -0.91238934 -0.036864433 12
-0.82394439 -0.77759391 -0.011973073 0.16666667
-0.6523177 -0.78791934 -0.057433166 1.7
-0.53880966 -0.78919786 -0.080734491 3.72
-0.38544273 -0.82619238 -0.11115798 5
-0.26979184 -0.80953962 -0.11989028 7
1.1750532 -0.80577189 -0.058806241 40.666668
1.2481979 -0.85581291 -0.11647573 29
-0.67827088 -0.69301701 -0.1055163 0
1.1734438 -0.67881417 -0.088790812 44.5
1.2003649 -0.61748022 -0.032825354 35
1.1938944 -0.54262894 -0.029877121 16.666666
1.2746819 -0.5481391 -0.099208489 31.799999
1.4292655 -0.50056887 -0.081370778 18
1.610965 -0.56167805 -0.032771204 150
1.6550014 -0.46522489 -0.059079532 97
1.4672022 -0.44886625 -0.095793553 27
1.556392 -0.44832075 -0.14713347 150
1.6693313 -0.38411993 -0.052624978 79.25
1.6595163 -0.23819806 -0.081261203 76.14286
1.6479912 -0.054779235 -0.097962193 77.5
1.6533369 -0.10402065 -0.070980586 79.333336
1.6436679 0.075821951 -0.056983668 72.888885
1.6333905 0.22870477 -0.079295084 74.666664
1.6284231 0.38223305 -0.060689457 31.285715
1.6179459 0.53272861 -0.085591018 12
1.6072956 0.67153305 -0.069803528 13
-0.83068609 0.87334424 -0.076294951 10.56
-0.6796121 0.88465005 -0.08639735 13.925926
-0.55510151 0.8954199 -0.10138999 15.4
1.6011527 0.83643436 -0.079704158 12.8
-0.56979692 0.90377724 -0.023647491 17
1.5916176 0.96927279 -0.089989685 13
-0.18490312 1.1317022 -0.11824844 9.8000002
0.049287584 1.0996723 -0.073509537 5
0.20166995 1.1576512 -0.028519874 6
1.547318 1.0811318 -0.089681782 6.5
-0.033390999 1.2500362 -0.072093271 9
0.00083036424 1.2365268 -0.057707939 8
-0.20662357 1.3620856 -0.11697576 6
0.076431766 1.4187187 -0.0089349793 10
-0.19563478 1.5362345 -0.02439565 2
-0.31147468 1.6553905 -0.010516708 0
-0.23654161 1.6603829 -0.082407512 27.5
-0.0084915338 1.7809116 -0.0029712664 25
0.0087607028 1.7755779 -0.036068622 5
3.5118475 2.3349776 -0.047222499 53
-0.36630586 2.4761221 -0.044289116 22
-0.28780875 2.4058597 -0.048100356 18
3.4929264 2.4722419 -0.10240931 109
-0.44335496 2.6399035 -0.077970393 14
1.4646058 2.6837769 -0.057114456 4
0.86700696 2.8246562 -0.058596406 24
3.4792631 2.779376 -0.0014193404 98
0.53813732 2.8906324 -0.0180983 25
0.87760741 2.9984963 -0.08673466 51
1.4551789 2.9780917 -0.14439552 1
3.4675863 2.9070535 -0.12954006 98
0.61967915 3.0106294 -0.051032279 1
0.77808064 3.0580332 -0.11466581 35
3.4506321 3.2177918 -0.020991838 80
1.4224216 3.3205192 -0.01508591 1
1.4088924 3.4847279 -0.092007183 68.5
3.4219518 3.5564885 -0.041237298 82
3.3972886 3.9540398 -0.03860927 77
3.3814516 4.2697682 -0.095065124 89
3.3625884 4.4665313 -0.056295905 84
3.3132939 4.6209426 -0.033820633 2
2.1128349 -6.8564386 0.0039525284 1
0.7000044 -5.9912443 0.050162967 32
0.9464516 -5.9889665 0.10983565 26
1.3734097 -4.2251883 0.14106399 13
1.3725501 -4.1476264 0.015630359 19
1.9067678 -4.112937 0.13915271 40
1.5357103 -3.7506461 0.089607768 11
1.5852674 -3.7095926 0.096787564 16
1.8860824 -3.5211949 0.010676975 38
1.8678203 -3.2565293 0.10629838 39
1.8473094 -2.9546721 0.071011536 41
1.8175168 -2.4354007 0.1099722 53
1.7935369 -2.2648089 0.088751309 43
1.8093138 -2.3676755 0.077049308 50.666668
1.7929838 -2.1328912 0.047039531 52.5
1.7789426 -1.9589995 0.096012823 48
1.7685297 -1.8272048 0.1105129 60
1.7596458 -1.6114252 0.076673627 70
-0.38363883 -1.4023931 0.1093198 0
1.7485548 -1.4110336 0.08962173 75.25
1.7360423 -1.2659893 0.060906768 81.800003
1.0896459 -0.95499748 0.11274122 18.5
-0.91547412 -0.77319324 0.094859496 0
-0.82149667 -0.77533603 0.072261304 0.34615386
-0.67530823 -0.77276319 0.057385758 1.2083334
-0.54334736 -0.76599795 0.081878558 1.6190476
1.1486439 -0.80894166 0.10644668 18.799999
-0.86931247 -0.72385508 0.13324636 0
-0.60473549 -0.74822229 0.14800769 0
-0.46978202 -0.73763895 0.035143849 0
1.1578581 -0.68197244 0.068015099 25.700001
1.2108561 -0.65417868 0.081648983 27.4
1.1867751 -0.53682685 0.075085364 23.333334
1.2833823 -0.51877582 0.10201968 32.42857
1.3732595 -0.49072567 0.075188093 74
1.6025448 -0.51355702 0.022464197 150
1.6636128 -0.46900508 0.096341036 93
1.3151828 -0.44848096 0.055250045 48
1.4392109 -0.4246285 0.059938844 151
1.6681216 -0.37618691 0.092073135 76.14286
1.6583693 -0.22730017 0.075017653 76.714287
-1.0616908 -0.018668294 0.12691873 1.25
-1.0266509 -0.031538181 0.065072782 0
1.6474155 -0.049189996 0.083828278 72.666664
1.6531422 -0.084685922 0.050540846 76.599998
-1.0538129 0.097647063 0.1202079 0
-1.025245 0.088664614 0.079778381 0
1.6424406 0.067026369 0.054777093 69.25
-0.97842044 0.20444509 0.10457742 0
-0.87183911 0.28898403 0.12847148 0
1.6333176 0.22634396 0.073010482 70.285713
1.6287504 0.38060856 0.072102159 15
1.6169174 0.52668583 0.080981366 12.153846
1.6109899 0.67970151 0.072312251 11.666667
-0.86716259 0.88347536 0.0077812327 4.25
-0.72433186 0.88519925 0.0078703417 4.3333335
-0.50974166 0.8871578 0.0050200177 9
1.6024277 0.82769126 0.0944658 12.4
-0.53287089 0.90251094 0.017789477 0
1.5919859 0.9809978 0.075875156 12.5
-0.17646421 1.1358877 0.061889429 8.166667
-0.073178507 1.0913008 0.10191818 5.6666665
0.082458429 1.0919728 0.088691793 4.5555553
0.25304437 1.1512552 0.091943897 5.5
-0.19853485 1.2771974 0.072373994 7
-0.045883242 1.2802603 0.088481233 37.200001
0.024853166 1.2744427 0.056436308 56.5
0.22337742 1.21766 0.082510702 13
-0.036425132 1.4106869 0.03297111 1
0.1056003 1.4205599 0.051168513 4.5
-0.23118418 1.7395545 0.02691748 49.333332
-0.196944 1.8191308 0.12729691 23
0.0049960436 1.8109429 0.1246131 5
-0.27073547 1.9813932 0.1371029 45
3.5205863 2.3682725 0.10728886 7
3.4965692 2.4922709 0.1027697 99
1.4777114 2.6741712 0.13292259 4
3.4904532 2.6264415 0.048655014 98.5
0.25097132 2.7570248 0.047661446 2.5
1.4675298 2.7424409 0.036914222 4
0.48602426 2.9542542 0.14897913 1
1.4468063 2.9407046 0.063117631 1.6666666
1.4339806 3.0820324 0.1321497 1
3.4568479 3.095161 0.11646237 90
-0.44300559 3.3944781 0.12948579 150
1.2501187 3.5041132 0.090386964 120.5
3.4198556 3.5404823 0.10152688 81
3.3995757 3.9372787 0.10734656 75
3.372858 4.4232531 0.071348459 82
0.65351737 -6.003221 0.19621009 4
1.0296966 -5.9876218 0.16130286 23
1.419499 -3.9972715 0.253822 45.5
1.9189467 -4.0482621 0.23391747 27
1.4485109 -3.8034451 0.24193478 28
1.4830948 -3.7424192 0.22803575 12
1.8855326 -3.6034122 0.1611774 41
1.8792329 -3.3402398 0.23628914 43
1.8366134 -2.7269495 0.23886439 40.5
1.8309313 -2.6387155 0.20113802 41.5
1.8163931 -2.5487449 0.24206161 36
1.8024924 -2.3514619 0.22542906 36
1.7894642 -2.1761303 0.21186256 37
1.7821617 -2.0242689 0.21259254 39
1.7664381 -1.744702 0.26319897 59.666668
1.7553368 -1.5712212 0.19856185 64
1.7517257 -1.4457803 0.18798795 66.5
1.7373371 -1.259129 0.17285544 69
1.7283823 -1.1879921 0.26006103 133
0.99063301 -0.9077211 0.26122311 23.666666
1.0902182 -0.96952039 0.21884055 9.6000004
-0.81353968 -0.75945526 0.15892829 0
-0.62089455 -0.75209862 0.15960222 0
1.0299368 -0.7871539 0.24723239 30.666666
1.117568 -0.82876027 0.20709941 21.428572
-0.80547148 -0.7265749 0.15777467 0
-0.67855704 -0.72762632 0.16447906 0.2
-0.58714372 -0.72479296 0.16914034 0
1.1290532 -0.69344246 0.22478271 24.5
1.2158662 -0.6522842 0.21775544 36.666668
-0.76806188 -0.59394056 0.2904622 0
-0.70504642 -0.59012222 0.2611376 0
1.1635816 -0.54931146 0.20200165 22.4
1.2561175 -0.51090407 0.237598 41.75
1.4310908 -0.46658835 0.21369335 79.25
1.5828674 -0.46861756 0.17105466 150
1.6741805 -0.46849352 0.19338241 71.5
1.667043 -0.37924483 0.23646167 75.25
1.6569051 -0.21479641 0.21903692 73.85714
-1.2639585 -0.10372107 0.22674689 0
-1.1177881 -0.061426103 0.19310772 3.2222223
-1.0495368 -0.0020097923 0.15864718 5
1.6475426 -0.056459386 0.20377788 71.199997
1.6541266 -0.13657644 0.19617844 75
-1.202967 0.018873967 0.26413846 0
-1.1657938 0.082892895 0.24841794 0.46153846
1.6408813 0.065141387 0.20870884 65.85714
-1.208913 0.21071303 0.27679569 0
-1.1743493 0.16306116 0.26532373 0
1.6320791 0.22083835 0.24600755 65.571426
1.6224766 0.36431015 0.20263609 32.400002
1.6185335 0.51842821 0.20831892 12.6
1.6080599 0.67237258 0.20172663 13.555555
1.5988863 0.83065718 0.21852575 13.111111
0.074129939 1.0300903 0.23590618 2.5
1.5905862 0.98332256 0.22599199 13.666667
-0.18496479 1.1103249 0.26023549 7.75
-0.085639268 1.1123428 0.21202108 4.5555553
0.053721812 1.118908 0.18606676 4.6666665
0.19010524 1.1128235 0.24751215 13.75
1.5604579 1.0730697 0.25620356 1.5
-0.19114684 1.2347322 0.187668 7.5
-0.040237714 1.3233551 0.23675555 4
0.061179429 1.2526566 0.22328791 5.25
0.18539067 1.2049652 0.17455506 17
-0.24242862 1.4267861 0.20681423 5
-0.050697286 1.4837027 0.15606391 7
-0.22447395 1.711162 0.24557513 24
-0.28084847 1.9431325 0.17389947 40
-0.2827498 2.2019556 0.28700209 28
-0.36808249 2.4279265 0.24542475 30.5
3.5063336 2.4040065 0.27374303 86
3.4922571 2.634201 0.21694952 85.5
3.4814053 2.7881424 0.19471246 93
-0.3745451 2.9380348 0.23351347 113
1.4512072 2.9688547 0.28363121 4
3.4719436 2.9381886 0.16345391 85.5
1.4498755 3.0534308 0.23294139 11
1.4269226 3.2115545 0.1814546 1
3.4453924 3.2649364 0.27861714 92
-0.46550232 3.3848667 0.23531953 119
1.4283872 3.3601618 0.23270044 9.5
3.4260931 3.4246826 0.25423324 88
1.0558828 3.4814897 0.22559965 150
1.413038 3.4817555 0.29608119 77
3.4061048 3.9074581 0.24656796 87
3.3738508 4.353797 0.28339738 83
2.0957444 -6.7707138 0.30931652 1
0.63476592 -6.0166216 0.35268089 14
0.81590515 -6.011013 0.40558434 24
0.96189409 -6.000782 0.42179012 14
1.5045836 -3.7838581 0.35374212 20
1.9059772 -3.7827809 0.4387269 37
1.7001243 -3.737489 0.32593244 44
1.900681 -3.7057695 0.30284846 40
1.8610764 -3.0878963 0.40324098 41.5
1.8457803 -2.9267337 0.3828063 41
1.8224518 -2.6304436 0.38389194 36
1.8067062 -2.4205132 0.34874672 38
1.7912009 -2.2364612 0.3302899 30
1.7724802 -1.9724532 0.44123811 39
1.7786391 -1.9206607 0.39691967 49.799999
1.7572849 -1.7203183 0.34737092 54.5
1.7482533 -1.5505641 0.34296733 55
1.1153616 -0.93959951 0.38784224 75.14286
1.1530818 -0.84053457 0.37855694 49.375
-0.64239091 -0.70609343 0.37103197 0.54545456
-0.57296479 -0.71160877 0.36848485 0.25
1.1543669 -0.68248373 0.34668255 60.666668
-0.80552149 -0.5855062 0.30730495 0
1.2313673 -0.5561316 0.32890797 39
1.3976758 -0.46546859 0.33813512 97
1.6620669 -0.46999615 0.3949424 74
1.6655153 -0.36502293 0.35866857 75
1.6579403 -0.24411826 0.34140769 68.666664
-1.268603 -0.081853859 0.38735738 2.0833333
1.648067 -0.049821317 0.31653059 76
1.6513784 -0.12936457 0.32878911 73
-1.2061028 0.065136842 0.39261073 0
-1.1825277 0.10043257 0.36711359 0
1.6429795 0.068307012 0.30471393 68.5
-1.2241008 0.22839537 0.42043847 1.2
-1.1786593 0.15080188 0.43925679 0
-1.2486484 0.32136452 0.41860732 7.4000001
1.6315476 0.39953566 0.30844167 13.333333
1.6233395 0.53097457 0.32472757 13.333333
1.612105 0.6558488 0.35267735 15.666667
1.6022817 0.82910651 0.37024227 12.166667
-0.30103615 1.0122961 0.40813273 5
0.07445319 0.96439451 0.37847501 2
1.5865486 0.96855193 0.38343871 12
-0.20709543 1.1334909 0.36087415 6.1428571
0.056029126 1.0873888 0.33580872 3
0.16571586 1.1526144 0.31947309 4.5
-0.24551757 1.2707187 0.41292024 17
-0.070346236 1.2571405 0.3613975 10.75
0.061545447 1.311247 0.35520047 34.25
-0.3766216 1.4078591 0.42454004 19
-0.80659354 1.6222914 0.42486542 35
-0.31586364 1.5795957 0.41194412 35
-0.22532046 1.6147708 0.39412889 6
-0.78504813 1.7685133 0.41733021 43
-0.35640627 1.7574661 0.39878002 54
-0.25726932 1.6973492 0.33636835 27
-0.81591612 1.9385693 0.42753994 2
-0.26067799 1.8103806 0.35692012 1
-0.28896788 2.3681288 0.38519698 21
-0.40343013 2.446372 0.37303886 21.5
3.5042784 2.4362488 0.4445532 95
-0.49751166 2.6351738 0.40087688 5
3.4936976 2.6760817 0.37897348 87
1.4643674 2.8280287 0.3817367 3
1.4451991 2.8819983 0.33195102 4
3.4782391 2.9395461 0.32570168 81
0.96289986 3.0593033 0.33488238 32.5
3.4551616 3.098501 0.30230963 85
3.4533715 3.2610364 0.37262931 84
1.4238037 3.4326456 0.42994374 44
3.4242046 3.4268396 0.42843884 87
1.24682 3.4685004 0.35989374 150
1.356899 3.5267854 0.34440511 91
3.4166443 3.6077189 0.42264974 81
3.4067223 3.7904413 0.41706002 82
3.3790557 4.2966681 0.41418278 89
2.0384951 -9.4282532 0.49023879 3
2.1006508 -6.9201903 0.51524305 1
1.5642569 -3.9771955 0.52192765 24
1.7093265 -3.8272874 0.46121812 42
1.8854848 -3.3499498 0.56234276 42
1.8387771 -2.9394045 0.57121223 37
1.8249762 -2.69662 0.51045823 39
1.8136804 -2.4854422 0.47123939 39
1.7941685 -2.1637719 0.52992439 44.799999
1.7760541 -2.0313179 0.5810619 41
1.7694933 -1.8906271 0.5674814 42
1.7626696 -1.7627722 0.56903917 50
1.7515817 -1.5892999 0.54907316 57
1.1486146 -0.9325887 0.48633981 42.799999
1.1009754 -0.85376519 0.47677898 117
-1.2872186 -0.084200971 0.50733215 4.75
-1.2167349 0.037504178 0.48784667 0
-1.1870949 0.075446278 0.45607299 0
-1.231264 0.2403243 0.49824038 1
-1.2497265 0.33851504 0.48596212 14
-0.21658459 1.0208905 0.5208891 1.75
0.054110765 1.0338333 0.52215189 2.6666667
1.5849026 1.0087582 0.46934462 9.5
-0.36927408 1.1428204 0.50743866 28
-0.23150387 1.1120474 0.51210088 5.75
-0.11664477 1.1011356 0.52708995 27
0.096028998 1.0995426 0.551925 5.625
0.22677465 1.1704257 0.52519393 16.6
-0.33729011 1.2415171 0.49954963 11
-0.24083024 1.2582892 0.50310862 15
-0.046028864 1.257324 0.51781517 31
0.055127047 1.2926686 0.4886508 19.200001
0.22378851 1.204258 0.5336464 20
-0.82663864 1.594398 0.49587262 73.5
-0.74895531 1.5327762 0.50794369 25
-0.85795295 1.6774544 0.45976907 57
-0.70014191 1.7381756 0.49897239 23
-0.91993606 1.87519 0.51274914 25
-0.80768538 1.8760681 0.46520773 7
-0.72669065 1.8202734 0.46707016 10
-0.41706365 2.4464045 0.48521134 123
3.5053232 2.5223458 0.57204694 83
1.4828992 2.6695929 0.49153805 0
3.4973633 2.6944811 0.54926342 83
1.4679277 2.7358081 0.53573054 2.5
3.4728472 2.955375 0.49960107 73
1.4371736 3.1239908 0.54112029 1
1.425716 3.2147484 0.50827801 1
3.4572616 3.2637551 0.47701883 78
-0.49403036 3.3743219 0.46988171 131
1.4385675 3.3423162 0.47368842 5
3.4318852 3.6190557 0.52648342 82.5
3.412991 3.7980499 0.58295232 76
3.4029653 3.9900327 0.59473002 81
0.46303666 -6.0255208 0.62490439 3
0.61817855 -6.0178127 0.6460737 32
0.75423795 -6.0200715 0.65726411 24
1.9471927 -4.3379302 0.69496608 28
1.8949217 -3.5279117 0.61114645 37.5
1.8631983 -3.2323961 0.64587581 43
1.846899 -3.0121284 0.70409584 44
1.828356 -2.7537637 0.63360393 41
1.8179147 -2.4259319 0.68948436 43.5
1.7951574 -2.2501733 0.74296319 40
1.8154364 -2.3799853 0.64157981 48
1.7788987 -2.0784421 0.70407391 37
1.776099 -1.9355011 0.68916416 45
1.765474 -1.7482479 0.71225923 49
1.7540121 -1.5799183 0.67280817 50
1.7438869 -1.4528171 0.73624349 52
-1.2376288 0.10073338 0.68328869 7
-1.1909887 0.092517659 0.68714213 7
-1.2407457 0.21004592 0.65855408 7.75
-0.15962015 1.0123765 0.72215879 19
0.037518512 1.0227981 0.6634661 9.75
-0.33954486 1.1933416 0.63885558 4
-0.25248417 1.1714344 0.68824005 1
-0.059088733 1.1347561 0.71288371 40.25
0.070867337 1.1219777 0.68750852 26.666666
0.19044328 1.1361923 0.69337934 15.888889
-0.38653392 1.2909977 0.61184692 7
-0.06596151 1.2805314 0.6017015 7
0.026595782 1.2136343 0.65631032 33
-0.82466358 1.6008031 0.68883526 68.5
-0.69244355 1.5995905 0.64984965 15
-0.94587731 1.7382225 0.62643468 10
-0.73068875 1.6548735 0.69614959 90
3.530082 2.3417132 0.60611582 3
3.5124679 2.5173345 0.74819195 77
1.4852673 2.6702483 0.60135472 3
3.5059648 2.5964041 0.72718322 92
1.4651358 2.8202024 0.60078698 4
3.4923635 2.8067946 0.71190822 80
1.4502994 2.929178 0.65123188 0
3.4737842 2.9558163 0.6638844 79
1.444787 3.0308368 0.70990503 0.5
3.4483109 3.2514305 0.63785768 73
1.2969675 3.5093596 0.63572907 90
1.3895621 3.5014172 0.71983904 80
3.4334965 3.6014524 0.64492166 74
3.4152026 4.0156636 0.71007359 85.5
3.3864167 4.1795692 0.6072191 85
2.1127207 -6.7626362 0.87513769 1
0.42368919 -6.0533867 0.8940556 3
0.78148669 -6.0201168 0.81285453 25
1.943023 -4.1490774 0.89348614 32
1.9312177 -3.9941981 0.86259961 32
1.9184818 -3.8465614 0.82437718 36
1.9076517 -3.7439084 0.78600085 41
1.8727529 -3.3186779 0.80587399 43
1.858058 -3.0796635 0.83476734 46
1.8362896 -2.7358024 0.88064945 45
1.8291134 -2.6498611 0.83051986 47.333332
1.8060658 -2.4332845 0.78353798 41
1.7948365 -2.2915137 0.86527491 34
1.783854 -2.1194265 0.82539248 38
1.7760181 -1.9202205 0.85078144 44.75
1.7607669 -1.7155023 0.83746129 47.333332
1.7499933 -1.5681616 0.82830095 50
1.7428513 -1.4854755 0.8364538 50
-1.2832304 -0.027094102 0.81753874 0
-1.3153595 0.016390227 0.82371163 3.5
-1.1445637 0.056570861 0.84230137 1.1428572
-1.1423489 0.17919478 0.84265161 3.5
-0.22385429 0.83342099 0.79923081 0
-0.32418698 0.96853113 0.88149583 3.25
-0.21757886 0.98413283 0.85656399 13.266666
-0.073200151 0.9973222 0.84053284 31.428572
-0.34898457 1.1973987 0.87579751 13
-0.20544726 1.0631539 0.8096326 38.5
-0.069533952 1.1179122 0.80629843 40.266666
0.048442107 1.0890551 0.78899759 22.833334
-0.3188636 1.2585717 0.87161297 32
-0.27403384 1.3032894 0.86084419 45.5
-0.017754901 1.2195446 0.81035674 28.5
-0.23888166 1.3504744 0.86425304 2
-0.82588464 1.5330756 0.77953225 7.5
-0.81454802 1.6723732 0.80084497 8
3.525352 2.3417058 0.88336766 41
-0.46422398 2.4239764 0.78975499 19
3.511472 2.4584103 0.79911518 86
1.4731266 2.7894609 0.87441659 1
3.492075 2.7802763 0.87961864 77
1.4606386 2.9013114 0.81403112 0.5
3.4814231 2.8617628 0.86671698 84
3.4643073 3.0953975 0.86918807 78
3.4563413 3.2385945 0.79755366 78
3.4325738 3.576231 0.80139053 72
3.4169858 3.9743583 0.84190488 79
3.3902059 4.1978998 0.76387739 83
3.3740001 4.3967404 0.79456961 83
3.3393133 4.5782247 0.8225528 24
0.76090652 -6.0155668 0.96189487 15
1.8917449 -3.663594 0.92128336 39
1.8783123 -3.3875115 0.94253552 43
1.8506914 -2.9270778 1.0289026 49
1.8225608 -2.6996381 1.0020252 43
1.8119636 -2.4878633 0.93113077 43
1.8046734 -2.3351362 0.98840427 39
1.795867 -2.1316955 1.0010895 44
1.7714572 -1.8818498 0.97901851 43.333332
1.7593037 -1.7252083 0.9865244 43
1.7539272 -1.6226654 0.99730206 43.75
1.742382 -1.4736395 0.96647376 48.333332
-0.32455623 1.0198654 0.94754529 41
-0.19445878 1.0344802 0.90384603 6
-0.049952928 1.1355817 0.93938291 34
-0.3875533 1.2510638 0.96403462 16
-0.17804547 1.2623861 0.90157425 3
-0.055204559 1.2094561 0.90749633 85
3.515214 2.4620705 0.98136181 81
3.5098686 2.5796392 0.98697346 81.666664
3.4979618 2.7206745 0.92604768 86
3.4670925 3.0998969 1.0303911 74.5
-3.4078813 3.2098174 0.98359907 22
1.4445729 3.2853098 1.0431468 0
1.3460767 3.5018678 1.0467284 63
3.4380295 3.5399811 0.95088828 84
3.4185779 3.9289691 0.99073136 78
3.3772974 4.4299989 0.92314589 70.5
3.3157341 4.5803676 0.96074498 5
2.1130917 -6.7679248 1.1738787 2
0.72810024 -6.0257163 1.0945303 15
2.0837641 -5.8068204 1.1420074 1
1.9730384 -4.6291852 1.1975013 27
1.9661741 -4.4337072 1.1437659 27
1.9506319 -4.283535 1.0918164 33
1.898294 -3.7439916 1.086412 40
1.8885562 -3.4550488 1.0773491 45
1.8628871 -3.0557218 1.0961479 46.5
1.827275 -2.74928 1.1500835 40
1.8146272 -2.5603566 1.1707081 45
1.8135612 -2.529052 1.0545949 44
1.8121834 -2.3360021 1.1681035 40
1.7976308 -2.1498203 1.0587695 43
1.7831355 -2.0340521 1.1442081 40.333332
1.7706587 -1.8524044 1.1066148 43.5
1.76473 -1.7741528 1.1318383 43
1.7538323 -1.6091182 1.1079812 43.5
3.5137584 2.4897625 1.1173698 79
3.4975765 2.6694605 1.1429565 74
3.4897659 2.8013217 1.0886325 75.333336
1.4544419 2.9636991 1.0873458 0
3.4848001 2.9291306 1.1253693 74.5
1.444469 3.0580678 1.0747211 0
3.4672036 3.0101066 1.1946503 71
-3.3635511 3.2142138 1.0863678 21
-3.2796173 3.2117033 1.1243633 21
1.4557219 3.1852281 1.0648284 0
-0.55022717 3.3565445 1.1333082 43
3.4470069 3.4103534 1.0573341 76
1.2599258 3.4928336 1.0702028 66.5
3.4244301 3.8723798 1.1291976 80
3.3906598 4.3719773 1.0709175 77
2.1607695 -7.2792549 1.2797431 1
2.0292301 -5.7783523 1.2863806 17
1.9954224 -4.873044 1.2556911 21
1.9323595 -4.1941652 1.271729 33
1.9060833 -3.8195708 1.2315344 40
1.8878033 -3.3086927 1.3105515 47
1.879652 -3.2471788 1.2689073 47
1.8496308 -3.0117159 1.2662815 45
1.8327498 -2.7912405 1.2763953 42
1.8110123 -2.3705688 1.2301614 39
1.7951951 -2.2451239 1.2513236 38
1.7835419 -1.9938354 1.2947564 38.5
1.7755598 -1.9241791 1.2436606 41.666668
1.7609992 -1.7527612 1.2416534 43
3.5194793 2.3735321 1.2503467 77
3.5206268 2.4236147 1.268779 75
3.4946005 2.7289267 1.2475958 73.333336
1.4609914 2.8753688 1.3241336 5
3.4828064 2.9447856 1.2736895 78
3.4726682 3.1032073 1.2691059 72.5
-3.8217707 3.1911328 1.2762058 17
-3.7298231 3.1888125 1.3135252 18
-3.3083739 3.2149887 1.2068455 20
-3.2298481 3.2133219 1.2654878 20.75
3.4572248 3.2764709 1.2378012 72
1.4385811 3.4134357 1.3378034 37
3.4486654 3.3965697 1.2125355 74.5
1.4123441 3.4971004 1.318112 63
3.4334602 3.7517104 1.2768567 78
3.3943949 4.2611537 1.2700865 71
-4.3466449 6.4530153 1.3224151 4
2.1725957 -7.8332186 1.3758794 1
2.0942962 -6.7171583 1.4472905 2
2.0027416 -4.9545479 1.4870639 23
1.9402523 -4.2773199 1.4480237 27
1.9168882 -3.8929999 1.3722622 41
1.8920958 -3.5122867 1.3949906 41
1.8867691 -3.399693 1.3513701 47
1.8540196 -3.056385 1.4184128 44
1.8380213 -2.8272216 1.3948855 45
1.8291569 -2.5967171 1.4162788 44
1.8098857 -2.4571657 1.4835099 41
1.7947 -2.2535 1.4269395 35
1.7910976 -2.1398041 1.4269433 39.75
1.7876579 -2.0843856 1.4363153 38.5
1.7795659 -1.9167202 1.4039664 38
3.5227993 2.3388462 1.4271059 72
3.5091488 2.4657633 1.4621859 73
3.4999633 2.6281078 1.3829489 72.5
3.4758241 2.9810956 1.3981638 72.333336
-4.3040152 3.1375313 1.476675 26
3.4720695 3.1370933 1.3574296 75
-3.6635537 3.1871023 1.4305099 18.5
-3.3459053 3.2139325 1.4662365 16
-3.1865005 3.2152758 1.4269141 20
3.460681 3.2656312 1.3953288 73.5
-1.9594799 3.3999674 1.4592934 1
3.4496546 3.4106317 1.4336799 73
3.4562423 3.3825047 1.4791639 76
3.4395697 3.5855083 1.4325184 77
3.4352844 3.6681621 1.4131444 74
3.4296167 3.7634494 1.433497 77
-4.7673855 6.1048102 1.398464 79
2.2353258 -8.6457624 1.5051017 5
1.8291006 -7.6424451 1.6312946 6
1.9360352 -7.4916472 1.6102624 25
0.34428036 -6.0566273 1.5986971 0
2.0215116 -5.4401746 1.6409672 32
2.0217235 -5.178031 1.562937 23
1.9410138 -4.3443141 1.5959297 28
1.9147834 -3.6798756 1.6034718 44.5
1.8792644 -3.3659911 1.5866104 45
1.8599222 -3.1002057 1.5464504 44
1.8493612 -2.8059609 1.612664 49
1.8129213 -2.4624505 1.607914 38
1.7976447 -2.2744813 1.5948342 34
1.8037066 -2.3398685 1.6017977 44
1.7973039 -2.1626503 1.5190266 38
1.7874104 -2.0860019 1.5802552 38
-3.7917407 -1.9106421 1.5484686 29
3.4859788 2.5422728 1.5270513 53
1.4858738 2.6558142 1.6386329 43
2.0882964 2.6739945 1.5382859 7
2.2428145 2.6348579 1.5381644 43
2.3311615 2.6909285 1.5316466 36
2.4802399 2.6440887 1.534113 39
2.7233102 2.6404479 1.5295589 38
2.9097514 2.6558046 1.5270838 34
3.1211457 2.6711109 1.5309048 32
3.2154057 2.5808184 1.51983 37
3.3855464 2.6237133 1.5280453 33
1.4928638 2.7312615 1.6070635 1
2.2776704 2.778748 1.5333111 37
2.5301464 2.8134086 1.5288874 38
2.5819507 2.7648485 1.5290983 35.5
2.8106942 2.8372128 1.5202528 34
3.4820304 2.8488715 1.5130831 80
2.2792773 2.9077184 1.526685 31.5
2.5780091 2.9777603 1.5150788 29.5
2.8713367 2.8597932 1.5263792 37
3.1334522 2.8700707 1.5269041 33
3.1877534 2.8768871 1.5283049 34
3.4553123 2.8736441 1.5261443 44
-4.2347574 3.1382346 1.5971558 16
-4.1584811 3.1365135 1.5611535 28
1.4615158 3.0918171 1.6279322 14
2.2751119 3.06322 1.5350294 31.666666
2.5721314 3.115232 1.518741 37
2.9254346 3.0587752 1.5191092 30
3.2732408 3.0999808 1.5202585 27
3.3245378 3.1461763 1.5207409 27
-3.6272402 3.1891758 1.5516157 16.5
-3.5708477 3.1877823 1.5378487 18
-3.3403096 3.1917353 1.5789282 20.5
-3.2478888 3.2072685 1.5587136 20
1.4664109 3.1998672 1.6284393 11
2.2900591 3.2523255 1.5392494 8
2.543648 3.1556118 1.5444244 34
2.6835804 3.2166433 1.522019 35
2.9081697 3.2279563 1.5346501 30
3.1852288 3.2549493 1.5435673 27
3.4609923 3.2196672 1.5094156 83
-0.97886497 3.3239477 1.6002126 15
2.4447041 3.3921213 1.5407526 24
2.6210907 3.3628187 1.5467919 35.5
2.9414785 3.3912802 1.5381162 29
3.0997334 3.3525403 1.5262729 27
3.3475685 3.3921285 1.5317608 27.5
2.8058286 3.4955683 1.5330229 30.5
3.022258 3.4867072 1.549493 29
3.236645 3.5363348 1.5335875 28
3.4305432 3.5804493 1.5501878 55
2.689945 3.6154277 1.5314957 36
2.7779801 3.639868 1.5486469 28
3.1754072 3.655777 1.5252833 28
3.1238801 3.78473 1.5270369 28
3.2203784 3.7945228 1.5462763 28
2.9239028 3.9294667 1.5540497 29
3.4130545 4.1117859 1.5306427 80
3.3697174 4.6028552 1.5657777 24
-4.6981497 6.0993791 1.5571051 71.5
-4.5699062 6.1001816 1.5909905 74.5
1.7513351 -8.0552139 1.7052466 0
1.3929663 -6.999033 1.7407361 2
1.7276196 -6.8268957 1.7656502 15
2.1013935 -6.8349881 1.6719319 2
1.897779 -6.3798752 1.6886097 22
0.0020787239 -6.0316319 1.6794647 6
-0.24623656 -5.9715595 1.7100567 33
1.0923835 -5.8503981 1.7167743 8
1.3434978 -5.7580152 1.709505 32
-1.275144 -5.6354208 1.6729428 3
-1.0591807 -5.5714083 1.676772 35
-0.54368818 -5.5700655 1.722298 32
-0.2938098 -5.682971 1.7064525 33
-0.047578443 -5.5888238 1.6645983 24
1.9523442 -5.5722327 1.6601483 15
-0.87458396 -5.5156422 1.6830715 36
-0.34581724 -5.4706593 1.715479 34
0.12100179 -5.5379167 1.6790036 12
0.98778874 -5.5052376 1.7264994 14
1.2272786 -5.4717941 1.714353 25
-0.55730361 -5.3163538 1.7262527 35
-0.59310985 -5.1061683 1.7251431 43
0.64615393 -5.2346444 1.7336348 1
0.89006144 -5.2219696 1.7209972 29
1.4513071 -5.1708903 1.6845132 31
1.5585713 -5.1118741 1.6899029 32
-1.1077157 -4.9554071 1.6997269 4
-0.38695088 -5.0461626 1.6761674 42
-0.21688636 -5.0013108 1.6851553 26
-0.057520349 -4.9758296 1.6970688 9
0.57974464 -4.9652977 1.7351354 10
0.81070882 -5.011529 1.7267467 36
1.7052283 -5.0529938 1.6942263 30.5
-0.80218691 -4.9397416 1.7314078 38
-0.63460457 -4.9294114 1.7234186 46
1.9746389 -4.8375449 1.7187783 33
-0.8095668 -4.7557631 1.7373563 42
0.51384574 -4.7571368 1.7301298 12
1.0128549 -4.7735958 1.6939067 25
1.125604 -4.7194138 1.6984416 31
1.2332662 -4.6707544 1.6964706 40
-0.83938479 -4.5913496 1.732432 46
-0.67036378 -4.5926995 1.6963483 50
-0.50042558 -4.5559635 1.7010449 39
-0.33890674 -4.5301218 1.7049016 15
0.45607919 -4.5904737 1.7305053 23
1.322993 -4.6493626 1.7029191 43
1.8120418 -4.5685239 1.7435664 36
-4.0517173 -4.423831 1.7276162 35
-0.87725657 -4.4594626 1.7307121 3
0.22199665 -4.4256597 1.7398452 5
0.63861912 -4.4231601 1.7060674 50
0.82041323 -4.3669066 1.7143984 49.5
1.5205435 -4.4619789 1.7465273 44
1.9324703 -4.3871303 1.7258402 54
0.15474536 -4.2200832 1.7352668 9
0.96854919 -4.3191862 1.7178479 49
1.3988026 -4.2285013 1.7557863 46
1.6692435 -4.3326077 1.742314 35
-0.90778017 -4.1623764 1.701959 57
-0.73801571 -4.1407127 1.7038924 50
-0.57852829 -4.1274085 1.7079774 21
-0.44108316 -4.1054745 1.7130867 1
-0.034544397 -4.1079082 1.7516605 0
0.38056025 -4.076211 1.7151569 44
1.1283994 -4.0964999 1.7569846 47
1.5545561 -4.1428652 1.7436773 50
-3.7621901 -3.9060566 1.7486435 51
-0.067938626 -3.9888732 1.7451063 5
0.56291372 -4.027092 1.7175602 55
0.65982533 -4.0044303 1.7241377 56
1.0423166 -3.905849 1.7567867 55
1.2958742 -4.0420594 1.7510844 53
1.8856506 -3.9540546 1.7199322 54
-4.0960217 -3.8842301 1.7471939 72
-3.543611 -3.7547741 1.7511154 52
-0.78482503 -3.7887957 1.7218562 28
-0.64826208 -3.8030169 1.7428738 5
-0.103471 -3.8999288 1.7474457 7
0.035611402 -3.7954979 1.7230138 12
0.16895758 -3.7716391 1.7255167 46
0.7963472 -3.7671072 1.7634679 53
0.96772021 -3.7608166 1.7504085 52
1.2130157 -3.8943 1.750105 58
1.5185999 -3.7603595 1.7273246 55
1.9211214 -3.863698 1.6920415 51
-3.8248382 -3.6724768 1.7497584 61
-3.5226028 -3.6627948 1.749051 58
-0.29789701 -3.6730127 1.7569526 1
0.29258835 -3.7461884 1.7257787 56
0.39249611 -3.718529 1.7278494 60
0.73627692 -3.6150341 1.7581738 49
0.90965515 -3.655432 1.7527539 57
1.5949336 -3.7228227 1.7296449 43
1.6989958 -3.6998739 1.7336653 54.5
-3.5033255 -3.4671071 1.7570537 62
-0.32995039 -3.595983 1.7506331 1
-0.20974706 -3.5137916 1.729724 1
-0.071198791 -3.5046935 1.7344035 29
0.056959938 -3.4900506 1.7358891 55
0.16242374 -3.4721165 1.7408489 65
0.51484495 -3.4695659 1.7667323 53
0.68575573 -3.5131989 1.7571331 52
1.1888199 -3.5685208 1.7339345 57
1.3093525 -3.5101418 1.7329351 52
1.4120673 -3.4911239 1.7403492 54
-4.1334467 -3.3954148 1.761084 61
-3.7932885 -3.4249601 1.7588814 62
-3.5863786 -3.3023059 1.7645139 59
-3.3785887 -3.3932707 1.7697827 61
-0.51197016 -3.3560507 1.7645491 0.5
0.47728109 -3.3628156 1.7678767 54
0.6421904 -3.4369144 1.7590677 54
0.89330214 -3.3806086 1.7405652 55
0.98527986 -3.3445959 1.7414221 52
1.0719974 -3.3196862 1.7449528 56
1.7019572 -3.4340515 1.7656864 54
1.8761778 -3.3991253 1.7351152 52
-3.9019086 -3.2025883 1.7582668 57
-3.837271 -3.2285984 1.7648171 58
-3.5685802 -3.2224407 1.7608551 61
-3.2815773 -3.254565 1.7625467 62
-0.64481747 -3.1521316 1.7705735 0
-0.21739158 -3.2484994 1.7403347 31.5
-0.041346747 -3.2330451 1.7447826 64
0.27432227 -3.1961658 1.7682821 58
0.42015114 -3.2510061 1.7592115 43.5
0.67491817 -3.1709037 1.7409379 57
1.1356084 -3.2986157 1.7454284 60
1.3725089 -3.2126122 1.7691923 49
1.5797504 -3.2610996 1.771232 43
1.7237692 -3.2174878 1.7592782 53.5
-3.5481732 -3.05672 1.774393 63
-3.3041368 -3.1091981 1.77607 61
-3.2408619 -3.0619683 1.7694291 62
-3.0484881 -3.0287924 1.7692899 56
-2.9841588 -3.0891182 1.7594017 58
-0.68549401 -3.0866485 1.7673835 2.5
-0.47108442 -3.0240414 1.7527612 11
-0.3365435 -3.019356 1.7471572 37
-0.22159751 -3.0200014 1.7553304 70
0.21907854 -3.0672796 1.7647747 61
0.38430256 -3.0015109 1.743678 67
0.85302049 -3.1210046 1.7450607 60
1.0887575 -3.0080187 1.7720209 56
1.2858551 -3.0782621 1.7746576 55
1.4411244 -3.0779457 1.764065 52.5
1.8642318 -3.1332905 1.6618305 45
-4.1577835 -2.9420714 1.7670447 58
-3.8276231 -2.9950917 1.7698654 61
-3.6343353 -2.9001498 1.7811228 59
-3.366482 -2.9232116 1.7733387 62
-3.2002945 -2.9382877 1.7685331 62
-3.0771132 -2.9051807 1.7744695 62
-0.80239439 -2.9006116 1.7832369 5.6666665
0.048585113 -2.9069889 1.7746196 64
0.54218763 -2.9663377 1.7452353 60.5
0.66936541 -2.9390016 1.7522441 70
1.0248276 -2.8982193 1.7716607 60
1.152385 -2.8933165 1.761762 57
1.2088026 -2.9675689 1.7612218 50
1.6122822 -2.8887329 1.7577751 50.5
1.709555 -2.8768039 1.7603718 53
1.8507528 -2.9296207 1.7175559 42.5
-3.9346368 -2.7766757 1.7657958 65
-3.8865318 -2.8165448 1.7782315 63
-3.6168621 -2.8272433 1.7736386 62
-3.3345022 -2.7342002 1.7857934 58
-3.046576 -2.7285857 1.7675945 63
-2.9637818 -2.7634482 1.7810572 48
-2.8299589 -2.8120215 1.7740376 53.5
-2.5919285 -2.8080714 1.7712811 56
-2.3804376 -2.7470422 1.7700194 36
-2.1005244 -2.7003608 1.7404357 14
-0.85684544 -2.8390315 1.7801012 5
-0.63749766 -2.7986805 1.757578 10
-0.50155377 -2.8147614 1.7592033 32
-0.38174495 -2.8153741 1.761942 59
-0.1158463 -2.7191868 1.7865847 60.5
0.00015099048 -2.8457434 1.7761766 63
0.22957897 -2.8274174 1.7573749 60.5
0.39211541 -2.7966523 1.756826 43
0.47434217 -2.776921 1.7586905 65
0.81812102 -2.7724299 1.7742053 59
0.94961363 -2.7938061 1.7651465 45
1.3206954 -2.792841 1.7522279 53
1.4297069 -2.7567861 1.7572856 54.333332
1.8511651 -2.8306222 1.6528248 43
-3.8606732 -2.6012132 1.7804257 59
-3.5708854 -2.6663821 1.7785732 58
-3.3752959 -2.6453562 1.7771444 57
-3.2570021 -2.6340523 1.7835323 45
-3.11285 -2.6178865 1.781222 47.5
-2.4889264 -2.6491618 1.7652802 39.5
-2.3094196 -2.6335826 1.7720739 22.5
-0.94763345 -2.637929 1.783959 13.25
-0.78887349 -2.5902021 1.7681309 12
-0.64910424 -2.6156299 1.768829 35
-0.5265044 -2.6231823 1.7701463 59
-0.1724893 -2.6589844 1.7776104 63
-0.083908178 -2.6718202 1.7740715 60.5
0.097935483 -2.652662 1.7636999 60
0.25490946 -2.631659 1.7653269 67.5
0.59327328 -2.5756843 1.779322 58
0.6741538 -2.6401982 1.7751966 59.5
0.80849349 -2.6332026 1.7658156 61.5
0.93518561 -2.5565088 1.7644867 54
1.1128724 -2.674191 1.7559208 58.5
1.2284045 -2.6355755 1.7616905 60
1.5938147 -2.606451 1.7902321 52
1.7468632 -2.5900083 1.7316337 10
-4.1980023 -2.5345204 1.7803417 59
-3.9307001 -2.4313011 1.788452 47
-3.6594603 -2.4854186 1.7833266 50.5
-3.3715246 -2.5169888 1.7802202 53
-3.065258 -2.4217615 1.7902133 19.5
-2.8825839 -2.4901304 1.786441 28
-2.6567838 -2.5046906 1.779817 32
-2.4035592 -2.4051583 1.7848796 1
-2.3738203 -2.5240705 1.7855493 0
-2.2187941 -2.46945 1.7854017 0
-1.0739007 -2.4030535 1.7871999 3
-1.0338342 -2.4284885 1.7892324 32
-0.78099048 -2.418663 1.77241 40
-0.65592122 -2.4395216 1.7762285 66
-0.32717276 -2.4889686 1.7852198 67
-0.25979963 -2.5060496 1.7854789 66.75
-0.072596595 -2.4937716 1.7715174 66
0.092954114 -2.4824424 1.7730023 71.5
0.41081747 -2.4328115 1.7844224 61.666668
0.54797554 -2.5312872 1.7757833 58.5
0.69680536 -2.4615123 1.7663815 54.5
0.83834541 -2.4099586 1.7719857 63
1.0036812 -2.5333242 1.7690371 60
1.0508856 -2.521785 1.7732865 60
1.4005165 -2.4484315 1.7913568 56
1.5550282 -2.4561293 1.7918991 44.5
1.6889558 -2.4546201 1.7657247 38
1.8128988 -2.4703338 1.7473125 49
-3.9771883 -2.3912375 1.777696 51
-3.6066685 -2.3166945 1.7892669 20
-3.3654225 -2.3613701 1.7860595 34.5
-3.168185 -2.3478105 1.7990133 7
-2.5949771 -2.3322139 1.7799226 0
-1.0885565 -2.3607697 1.7746158 3
-0.92068458 -2.3836863 1.7710294 26
-0.77158654 -2.2600269 1.7787374 68
-0.46746388 -2.3101292 1.7808484 66
-0.40202531 -2.3201478 1.7855773 59.75
-0.22774602 -2.335511 1.7756497 69
-0.054436237 -2.3309584 1.7738045 69.5
0.2339095 -2.2777765 1.7826284 70.75
0.35914612 -2.397809 1.7794574 41
0.51191545 -2.3492365 1.770908 63
0.66834307 -2.2983007 1.7759768 66.5
1.1416398 -2.3589826 1.7960707 62
1.2661759 -2.3033354 1.7923224 57.42857
1.4427782 -2.3424675 1.7860199 49.75
1.559662 -2.3536654 1.7880625 50.333332
1.7250185 -2.3349702 1.7642636 48.666668
1.8096908 -2.3561833 1.6958141 40.333332
-3.764986 -2.1545913 1.7117826 37
-0.89988154 -2.2326798 1.7764786 51
-0.54798597 -2.1508603 1.7901144 66.5
-0.36726791 -2.1788037 1.7783505 68
-0.24146068 -2.1946025 1.7830497 69
-0.13397299 -2.1852684 1.7778813 77
0.096035145 -2.1391048 1.7856894 71.400002
0.2633191 -2.1739044 1.7724366 67
0.38858187 -2.2182486 1.7715358 63
0.51003361 -2.1810684 1.772441 67
0.8650834 -2.1557319 1.7942572 64.333336
0.97776186 -2.2011557 1.7936425 61
1.1052793 -2.1824584 1.7950237 58.400002
1.249496 -2.1505458 1.7943126 55.666668
1.4243618 -2.2000744 1.7947518 48.333332
1.5935653 -2.2297773 1.7874063 51
1.7718127 -2.2463512 1.7871763 56
-1.9504423 -2.0098231 1.7952713 23
-0.8766194 -2.0856907 1.7782167 69
-0.67073601 -1.9902639 1.7910653 67.666664
-0.49446318 -2.0295808 1.7855257 68
-0.36616218 -2.0504081 1.7865506 69
-0.25284851 -2.0537345 1.7866338 82
-0.039273761 -2.0090556 1.7911285 70.599998
0.094540223 -1.995423 1.783065 64
0.23665583 -1.9646859 1.7820185 71
0.36757186 -2.0730231 1.777881 68
0.55788982 -1.9763983 1.7930633 66.75
0.70960724 -2.0601616 1.7906208 62.25
0.80912805 -2.0210171 1.7939156 67
0.98042887 -2.0553491 1.7962569 58.333332
1.0628265 -2.061327 1.7950498 55
-3.7813935 -1.9007486 1.65282 8
-2.5489936 -1.8746533 1.7716435 0
-1.7534159 -1.8023039 1.7799917 51
-0.81324887 -1.8293114 1.7931439 83
-0.69731092 -1.841626 1.7891445 75
-0.47854438 -1.9040239 1.7834154 74
-0.36161312 -1.9142921 1.7815791 86
-0.17861807 -1.8880677 1.7872378 83.666664
-0.092071176 -1.8686571 1.7872506 78
0.071453348 -1.8669673 1.7838832 74
0.22337759 -1.8213439 1.7878367 78.666664
0.41670415 -1.8888791 1.7949802 67.25
0.54768181 -1.8365542 1.7975645 71.333336
0.68209773 -1.9181703 1.7940545 73.333336
0.78013235 -1.9092469 1.7969735 59.5
-2.8220389 -1.6983091 1.7994515 0
-2.6568518 -1.7999792 1.772153 1
-2.4491541 -1.7253059 1.7874842 30.333334
-2.2403004 -1.7799131 1.7850589 29
-2.0126982 -1.7673774 1.7853855 40
-1.8928926 -1.6915181 1.7878591 52
-1.6846864 -1.6814488 1.7866052 68
-1.3941427 -1.7638564 1.7898978 74
-1.1891853 -1.7104981 1.7859854 71
-0.90722585 -1.6762735 1.7976648 82
-0.85512865 -1.6734371 1.7922236 75
-0.71306956 -1.7274357 1.7855707 73
-0.53092617 -1.7384378 1.7885965 81
-0.37531847 -1.7186806 1.7942711 85.5
-0.24293217 -1.7538252 1.7916572 82.25
-0.094023764 -1.7046053 1.7891555 71
0.078810796 -1.7267057 1.7891749 78
0.20794976 -1.6868978 1.7953864 73
0.39799652 -1.7414991 1.7983991 73.333336
0.51999944 -1.7266113 1.7976083 77
-2.9484019 -1.6304317 1.7947024 8
-2.7359166 -1.5569999 1.79819 15
-2.6019325 -1.6206623 1.7934577 12
-2.4668691 -1.5348421 1.7999414 24
-2.3004761 -1.5642526 1.7903379 26
-2.0130074 -1.577248 1.7946105 26
-1.8815132 -1.6215811 1.791559 39
-1.7558813 -1.5059258 1.7986091 26
-1.4376086 -1.597212 1.7965761 59.5
-1.3105084 -1.6006885 1.7890491 65.333336
-1.1359646 -1.6075571 1.7852522 70
-0.94430304 -1.5315205 1.7953385 34
-0.78445482 -1.5433426 1.7950368 56.5
-0.65493572 -1.5852289 1.7928025 74.5
-0.49341661 -1.5169612 1.7962238 54
-0.37752801 -1.5868051 1.7918158 73.5
-0.25372881 -1.5943087 1.7887565 79
-0.0917174 -1.5601068 1.7960259 82.5
0.042780381 -1.6354682 1.7985495 77
0.16972159 -1.562956 1.7979299 73
0.33650458 -1.6223859 1.7987856 79
-3.4967732 -1.3855257 1.7991446 11
-3.423578 -1.4721993 1.7979635 15
-3.2515888 -1.466543 1.7935866 22
-2.8585663 -1.4468483 1.795688 54
-2.7621486 -1.4905366 1.7873689 38
-2.6059804 -1.4270267 1.7978264 51
-2.4619443 -1.4720145 1.7869259 54
-2.1182783 -1.3990961 1.7930418 58
-2.0206118 -1.4079392 1.7983884 50
-1.8906444 -1.4132681 1.7930731 65
-1.5432422 -1.3901969 1.7935176 58.5
-1.4047104 -1.4668537 1.796028 35
-1.2769971 -1.4267014 1.7982376 55
-0.21741061 -1.4418308 1.7973429 32
0.072513804 -1.4745024 1.79957 79
-3.0654933 -1.3471227 1.795014 59
-2.1385195 -1.3371069 1.7999347 65
-2.0334554 -1.3056866 1.7978655 63
-1.4722941 -1.2941895 1.7969221 74
-0.55502164 -1.1154933 1.7978486 62
-0.48937085 -1.0474813 1.798319 64
1.4860274 2.6412961 1.6799396 43
1.4733708 2.7864447 1.7484694 40.75
-4.8816967 3.0945334 1.7902476 10
-4.1646729 3.1424413 1.7381772 27
-4.0448089 3.1531694 1.7465993 11
-3.7802956 3.186857 1.7469795 17
-3.5730965 3.2028747 1.701878 17
-3.3594265 3.1991284 1.6826221 16
-3.1945632 3.219866 1.6830338 1
1.4529294 3.1762459 1.7240051 44
-1.9342992 3.3313735 1.7128533 0
-4.6026635 6.1023927 1.7291288 75.333336
-3.4855721 -2.2741196 1.8061761 7
1.100385 -2.2936771 1.8023707 51
-3.7173724 -2.1507697 1.8052605 7.5
-3.4396319 -2.2066858 1.8067786 6
-0.52146125 -2.1461334 1.8008376 62
0.78012186 -2.116209 1.8001903 68
0.92069274 -2.1898413 1.8021814 60
1.2750782 -2.1542561 1.8011261 48
-0.63403594 -1.9728482 1.8022906 70
0.61505485 -1.9884479 1.8010762 69.5
0.94913226 -2.0375037 1.8141103 43.666668
1.097821 -2.0702863 1.8020033 57
-0.77246583 -1.8224237 1.8001047 74
-0.13155915 -1.858736 1.8010515 81
0.47846588 -1.8810116 1.8040257 69
0.64448386 -1.8221169 1.8007579 68
0.78661221 -1.9019499 1.8008491 61
-0.82296544 -1.6544042 1.8035039 78
-0.71770191 -1.7986354 1.8007909 82
-0.23603709 -1.7197181 1.8032807 74
0.22564672 -1.6772261 1.8039393 79
0.34537753 -1.7567863 1.8026252 51.166668
0.51458216 -1.7371155 1.8020606 67.5
-3.0993407 -1.5437934 1.8006765 9
-2.0869546 -1.5564207 1.8024603 29
-0.96780396 -1.5229216 1.805315 40.5
-0.84893298 -1.5729175 1.8075762 57.5
-0.50021267 -1.5263636 1.8050691 67.5
-0.35469207 -1.6101366 1.8039926 80
-0.012662816 -1.5646923 1.8041352 74.5
0.1010986 -1.5652853 1.8044097 77.199997
0.22363679 -1.5747433 1.805673 70.400002
0.39210153 -1.5975422 1.803162 76.666664
-3.6859806 -1.3671962 1.8008438 16
-3.3251703 -1.4484699 1.8061835 35
-3.2669325 -1.3966517 1.8003567 39
-2.9755743 -1.3755263 1.8030959 69
-2.6424389 -1.3657165 1.8009068 61
-2.3617523 -1.359538 1.8027133 61
-1.9346477 -1.4696214 1.8070801 25
-1.4426599 -1.4443926 1.8058003 30.333334
-1.0675472 -1.3744179 1.801299 55
-1.003314 -1.3699154 1.8069581 51.333332
-0.86773139 -1.436289 1.8054236 35.666668
-0.66195434 -1.4200058 1.8069165 38
-0.52982998 -1.3942835 1.8069206 35.75
-0.39343163 -1.4631109 1.8079934 38.666668
-0.21226275 -1.406692 1.8086439 39.333332
-0.068422012 -1.4157912 1.807812 46.42857
0.062360793 -1.4178193 1.8075507 81.400002
0.19795196 -1.4536821 1.8083912 83.333336
-3.9787767 -1.2381166 1.8005472 19
-3.7978747 -1.2125232 1.8125209 45
-3.5035801 -1.2928593 1.8105074 57
-3.2901506 -1.2270952 1.8012105 58
-3.1277876 -1.2799898 1.8058888 62
-2.9104006 -1.213918 1.8059667 71
-2.8024955 -1.2712551 1.802528 61.5
-2.5914862 -1.2387528 1.8071238 62
-2.5117412 -1.2830333 1.8061167 64
-1.9856462 -1.2450289 1.8071442 64.333336
-1.8150654 -1.3271377 1.8017048 63
-1.5802217 -1.2488124 1.8047509 73.5
-1.4501406 -1.264956 1.8103323 70
-1.2795298 -1.3190585 1.8057493 79
-1.1076589 -1.2284709 1.8102293 80.333336
-0.95994103 -1.276561 1.8101487 77
-0.78039855 -1.2974563 1.8027292 84
-0.66643459 -1.2780962 1.8068045 88
-0.53948152 -1.2647704 1.8088616 80.428574
-0.36756164 -1.2713635 1.8067236 67
-0.23414028 -1.2696892 1.8107014 54.142857
-0.073058575 -1.2788055 1.8103747 63
0.053950548 -1.2802291 1.8099847 80
0.15869765 -1.3480459 1.8066953 101
-4.329596 -1.0949759 1.8032104 25
-4.0893879 -1.0680099 1.8138286 58
-3.8091044 -1.1676042 1.8111745 47
-3.7257688 -1.0807965 1.8121165 68
-3.56036 -1.0783627 1.8147734 86
-3.3280752 -1.1593093 1.8100845 77
-3.2983685 -1.1625212 1.8038369 68
-3.1177821 -1.09918 1.8073305 72
-2.9966583 -1.129321 1.8092388 72
-2.7641068 -1.1033818 1.8058596 61
-2.6933076 -1.1305104 1.8089985 61
-2.4709821 -1.1237841 1.8135422 65
-2.1609905 -1.1673633 1.8082355 60
-2.0476089 -1.095392 1.8114823 60
-1.8727384 -1.154213 1.8088683 69
-1.6692421 -1.064646 1.8118953 74
-1.5714669 -1.1315672 1.8110797 68.5
-1.4769058 -1.0967278 1.8098409 70
-1.3398021 -1.1731191 1.8080946 78
-1.1471292 -1.0812631 1.8153723 84
-0.98874664 -1.1200007 1.8138685 82.599998
-0.81336945 -1.1365255 1.8140354 98.333336
-0.65959644 -1.1364214 1.8132046 90.875
-0.51343644 -1.1041451 1.8040346 59.5
-0.37046811 -1.1324309 1.8139104 73
-0.2273131 -1.123778 1.8108826 59.333332
-0.096929327 -1.1264679 1.8103437 63
0.014218074 -1.1774241 1.8161186 78
-4.1214681 -1.0206476 1.8088042 59
-4.0242519 -0.93397492 1.8134364 74
-3.8362975 -0.9171226 1.8219117 78
-3.5253022 -0.99924755 1.8154902 94
-3.3526306 -0.94048029 1.8138417 75.5
-3.1566427 -1.0242152 1.8117408 73
-2.9099298 -0.9856528 1.8107941 72
-2.7405388 -0.91875505 1.8131899 61
-2.599937 -1.0264168 1.8126421 67
-2.4645736 -0.95382518 1.8175317 75
-2.1900129 -0.94896132 1.8129721 64
-2.042305 -1.0448442 1.8163348 65
-1.9188967 -0.97905821 1.8062996 80
-1.6670519 -1.0155295 1.8124303 73
-1.5737183 -0.94446021 1.8185444 74.199997
-1.3938967 -1.0287815 1.810249 74
-1.2442908 -0.93591022 1.8198179 86
-1.1231984 -0.95869893 1.8188837 88.5
-0.99439704 -0.96350223 1.8131493 98.5
-0.8136009 -0.96375883 1.812108 87.800003
-0.68738389 -0.98001689 1.8119866 81.125
-0.5276165 -0.96812809 1.8133507 63.875
-0.37561601 -0.9895522 1.8099136 51.285713
-0.21719681 -0.98061097 1.8115644 43.42857
-0.10574332 -1.0034254 1.8102621 39
-4.3817072 -0.76514328 1.8167764 74
-4.1353059 -0.75200212 1.8222569 82
-3.8074443 -0.8360098 1.8202552 81.5
-3.6142857 -0.76898181 1.8259434 91
-3.5635834 -0.78178072 1.8178878 82.5
-3.3455484 -0.8927269 1.8164542 74
-3.1726828 -0.81363463 1.8161463 77.5
-3.0154452 -0.82310832 1.8221639 73
-2.8724096 -0.81543541 1.8155984 71
-2.7375338 -0.89819139 1.8141266 57
-2.6398492 -0.80988914 1.8208283 70
-2.52314 -0.81430811 1.815505 70.5
-2.2733114 -0.76653242 1.8157593 70
-2.1456137 -0.82082748 1.8203487 68.5
-2.0209932 -0.85781479 1.8196331 69.333336
-1.7057872 -0.82877415 1.8168269 70.666664
-1.5950434 -0.7902813 1.8201913 70.5
-1.4455501 -0.88744444 1.8169011 79
-1.2564288 -0.78294778 1.8222191 85.75
-1.1303999 -0.83585638 1.8200436 93.5
-0.95931149 -0.79906511 1.8155661 86
-0.81185418 -0.8290081 1.8117845 81.571426
-0.67819309 -0.8137328 1.8136302 79.25
-0.53878629 -0.81959921 1.8139081 70
-0.36527562 -0.82775944 1.8147335 57.333332
-0.24984193 -0.81910944 1.8117771 52.333332
-4.127275 -0.66876602 1.8273627 58.5
-3.8748035 -0.62475973 1.8291129 80
-3.5241616 -0.67587596 1.8215111 95
-3.3842044 -0.65836406 1.8222647 79.25
-3.2053299 -0.60767871 1.8213097 82
-3.0419612 -0.65708554 1.8244623 70
-2.9098725 -0.74418455 1.8209175 70
-2.7746933 -0.67944384 1.8191503 65.5
-2.6101103 -0.63964391 1.8192477 73.5
-2.2751355 -0.71733725 1.8139476 70
-2.1372397 -0.68651152 1.8204581 78.333336
-2.0372279 -0.68098313 1.8256642 77.5
-1.7369021 -0.67374474 1.8254036 71.666664
-1.5926076 -0.62504494 1.8258194 71
-1.4896721 -0.74396706 1.818715 69
-1.2971261 -0.6397413 1.8241683 90.5
-1.1550978 -0.68543512 1.8166538 69.666664
-0.97873747 -0.67677182 1.8142267 75.75
-0.82856077 -0.67254788 1.8157116 82.714287
-0.6685403 -0.67030537 1.8161602 81.333336
-0.53374279 -0.6760112 1.8136891 79.285713
-0.40409318 -0.65280557 1.8157164 73
-0.28393784 -0.67549014 1.8106486 65
-3.8499584 -0.55025554 1.8294215 85.5
-3.6379368 -0.50559855 1.8294243 7
-3.5974805 -0.47824296 1.8295072 7
-3.2098973 -0.52844077 1.8237389 87
-3.0475364 -0.52644759 1.827943 75
-2.9363048 -0.53879613 1.8309914 51
-2.8037429 -0.46268493 1.8256868 68
-2.6277099 -0.52178848 1.8245533 74
-2.5486023 -0.55411524 1.8242005 71
-2.3148599 -0.5376066 1.8252369 72.5
-2.1816964 -0.52305061 1.8241899 75.25
-2.0668788 -0.50668603 1.8311043 73.5
-1.8044074 -0.52085602 1.8374741 46.5
-1.7096324 -0.51523256 1.8386717 56.666668
-1.6068773 -0.47492668 1.8298918 77
-1.3726165 -0.49490702 1.8295556 88
-1.2559848 -0.50195849 1.8261011 83.5
-1.1367904 -0.54728055 1.8179306 72.25
-0.95200604 -0.53239197 1.8162515 79
-0.806822 -0.52205265 1.8161333 81.599998
-0.68609917 -0.52668405 1.8166777 83.14286
-0.53256047 -0.52697551 1.8184429 79.85714
-0.38136253 -0.55302286 1.8218095 74.75
-4.42558 -0.43598011 1.8227638 73
-4.2086039 -0.38653105 1.8286425 70
-4.1443501 -0.38121748 1.8289303 83
-3.425633 -0.43336806 1.8319758 4
-3.0597119 -0.4257364 1.8291973 79
-2.9530599 -0.33529192 1.8343607 8
-2.7624006 -0.41881001 1.832026 71.5
-2.6424403 -0.35790414 1.8282858 70
-2.3162305 -0.32956398 1.8311867 72
-2.2057064 -0.35705549 1.8268965 79
-2.0913234 -0.33360019 1.8333566 80
-1.8267541 -0.34437233 1.8305795 79
-1.7161627 -0.34080842 1.8319491 77.75
-1.6128227 -0.33362377 1.8347051 84.5
-1.4017864 -0.34704 1.8322637 93
-1.2835954 -0.36677825 1.827317 89.5
-1.1702837 -0.37985435 1.8232561 75
-0.98433447 -0.38069287 1.8194368 80.25
-0.83031428 -0.38243026 1.8215959 81.199997
-0.68331206 -0.36757249 1.8249391 74
-0.51562631 -0.38630801 1.8302126 58.25
-0.38677856 -0.40004256 1.8227688 76
-2.5936751 -0.26479736 1.8310925 78
-2.2642548 -0.20851275 1.8304142 72
-2.1365449 -0.246049 1.8321908 82.5
-1.8469313 -0.20418087 1.8320786 85
-1.725063 -0.19458638 1.8350533 81.333336
-1.6329367 -0.18684657 1.8380009 84.5
-1.4249504 -0.19900541 1.8341537 103
-1.2729062 -0.22988896 1.829843 85.333336
-1.1322756 -0.24176547 1.8291148 79.5
-0.94791079 -0.23507687 1.8206136 80.25
-0.80575615 -0.22893545 1.8257536 77.5
-0.66294992 -0.21937995 1.8284479 75.85714
-0.53615755 -0.21323307 1.8301433 74.833336
-0.42712462 -0.2427178 1.826582 73
-2.326232 -0.099136494 1.8348577 75.75
-2.1720252 -0.1228539 1.8375329 80.333336
-1.8639362 -0.083344012 1.8426085 52
-1.7329807 -0.067928828 1.8392249 83.5
-1.642571 -0.060316615 1.841873 82
-1.402874 -0.066100076 1.8376739 101.25
-1.2572533 -0.07767839 1.8295467 73.800003
-1.0986325 -0.12559862 1.8275598 83
-0.97240025 -0.086153738 1.8251753 80
-0.81982255 -0.083403386 1.8255556 80
-0.70263892 -0.071342126 1.8294384 77
-0.52978331 -0.070844106 1.8322512 77.166664
-2.3652136 0.07798066 1.8418468 52.666668
-2.2341549 0.060399842 1.8465329 7
-1.7087196 0.095175453 1.8428168 79.333336
-1.6467632 0.085765295 1.8447763 86
-1.4138614 0.079366162 1.8400079 99.75
-1.2570755 0.083778724 1.8328407 75.800003
-1.1168951 0.070591956 1.8326434 84.5
-0.97169685 0.070115983 1.8268106 82.599998
-0.84360516 0.073543005 1.8299465 77.444443
-0.68237603 0.074459381 1.8322881 77.375
-0.52764535 0.063440487 1.8305378 80
-1.6977644 0.23156178 1.8522846 35.666668
-1.4246924 0.22916828 1.8535519 79.75
-1.2708696 0.23101602 1.8378584 81.25
-1.1221989 0.26917443 1.8377856 79
-0.99161732 0.22574833 1.8323476 83.400002
-0.83869982 0.22715592 1.8307133 79.75
-0.69033051 0.21765423 1.8329558 76.555557
-0.5288837 0.23680824 1.8349996 79.666664
-2.2074325 0.44161493 1.847258 79
-1.8187233 0.40356696 1.8755344 65
-1.6905854 0.34521821 1.8646857 52
-1.4227581 0.37916893 1.8546144 76
-1.2581921 0.38055092 1.8410254 81.199997
-1.1148432 0.40235373 1.8347753 77
-0.97819722 0.37749261 1.8377094 76.800003
-0.82551342 0.36886257 1.8332146 75
-0.67967486 0.37304026 1.8355074 74.599998
-0.51578039 0.38532025 1.835425 77
-2.4032254 0.52443594 1.8411494 73
-2.3051932 0.50348586 1.8494272 79.333336
-2.1054206 0.50103784 1.8412844 95
-1.8484337 0.55548656 1.852446 68.5
-1.7437176 0.47793272 1.8730842 56.333332
-1.6413441 0.53544116 1.8698455 49
-1.4008087 0.51147205 1.850125 81
-1.2898836 0.5171966 1.8497361 93.666664
-1.1479566 0.55676383 1.8430556 82.5
-0.96877539 0.51858568 1.8405814 74.5
-0.82176799 0.51618981 1.8383874 73.375
-0.67281151 0.50878179 1.8365278 70.599998
-0.54376513 0.52049714 1.8340302 79
-0.44974056 0.54431003 1.8316489 82
-2.4103057 0.74750477 1.8494095 75
-2.3202825 0.67235386 1.8582768 78
-2.1772344 0.64390141 1.8545161 80.333336
-1.8437128 0.71157533 1.8479027 85.5
-1.7423713 0.66685033 1.8539317 66.5
-1.6174423 0.68312216 1.8536803 78
-1.4128442 0.66903865 1.8614105 92.400002
-1.2952734 0.68277454 1.8521283 86
-1.1322367 0.69148469 1.8537056 88.5
-0.97459203 0.66567755 1.8468318 81.333336
-0.81232798 0.67964947 1.8440096 76.5
-0.66429383 0.67772084 1.8392961 73.555557
-0.5430162 0.65796036 1.8376583 75.199997
-0.43140295 0.68945807 1.8384666 76.333336
-2.2993412 0.82990623 1.8571906 75
-2.216188 0.82284486 1.8581321 77.5
-2.0946574 0.8695848 1.8567325 78
-1.8680191 0.83322132 1.8507212 85.5
-1.722237 0.81288147 1.8547349 84.666664
-1.5977238 0.83776569 1.8539766 86
-1.3820097 0.85798287 1.8564912 88.5
-1.26747 0.80742407 1.8553609 88
-1.1083064 0.8269341 1.8567938 87.5
-0.95762241 0.82312375 1.854699 91.25
-0.82537943 0.8569591 1.8569549 89.666664
-0.67408502 0.83473736 1.8402628 71.625
-0.53000611 0.82967049 1.8393823 59
-0.39951825 0.8345117 1.8397388 56.333332
-3.5588551 1.0010858 1.8582469 6
-3.3310459 0.96821499 1.8634814 28.5
-2.6299241 0.98753393 1.8597735 81
-2.4231935 0.96767724 1.8622605 74.5
-2.3272953 0.96116209 1.8598706 69
-2.2190866 1.0314848 1.8657216 79.5
-1.8431371 0.95318359 1.8636196 83
-1.7247446 0.97637677 1.8568546 80
-1.5750184 0.99667567 1.8570853 75
-1.39213 0.9732753 1.8546386 89
-1.2774146 0.95868695 1.8571012 85.400002
-1.1233294 0.96408921 1.8572994 79
-0.95891255 0.98547548 1.863849 87
-0.81445593 0.97824228 1.8560945 82.25
-0.66438973 0.98270255 1.8535144 88.800003
-0.54997283 0.95872897 1.8502073 60.5
-0.38176385 0.99449158 1.8492864 46.200001
-2.3367991 1.115768 1.8751504 81
-2.0787168 1.0599705 1.8592283 83
-1.8309494 1.1311773 1.8657573 76
-1.7237654 1.1386563 1.8649647 81.5
-1.5946434 1.1472279 1.8576111 80
-1.3824384 1.0880916 1.8641025 91
-1.2650859 1.1284366 1.8624841 85.75
-1.1391301 1.0898623 1.8611835 76.5
-0.94736958 1.1460587 1.8680439 80.5
-0.8351348 1.1110063 1.8630128 80.666664
-0.66211671 1.111905 1.8558038 81.400002
-0.52993852 1.1146007 1.8560396 39.375
-0.38369268 1.1250076 1.8516241 57.5
-0.27346045 1.1628664 1.8571477 71.5
-3.0658553 1.2056415 1.8484453 4
-2.9208541 1.2345655 1.8722751 3
-2.7928338 1.2076118 1.863466 65.5
-2.6268189 1.2181427 1.8651882 80
-2.4185736 1.2097987 1.8700309 82
-2.284559 1.2700371 1.8739427 79
-2.1706567 1.2465903 1.8614103 76
-2.0599396 1.2575676 1.8630978 75
-1.8056823 1.288156 1.8565012 81
-1.7425472 1.2921758 1.8671683 76.333336
-1.5579486 1.3194821 1.8544902 85
-1.2884398 1.2378273 1.8608521 84
-1.1255459 1.2695919 1.8619413 76
-0.94262642 1.2612876 1.8681387 87
-0.80442685 1.2689106 1.8631076 74.75
-0.65205067 1.2710088 1.8552271 77
-0.55562443 1.218709 1.8353673 0
-0.36554238 1.2619768 1.8533002 63.75
-0.2387488 1.2880791 1.8573651 60
-2.4255099 1.4527371 1.8864757 73
-2.318697 1.4556613 1.8754878 72.5
-2.1538184 1.4722053 1.8721434 80
-2.0341723 1.4636066 1.8656532 72
-1.8489491 1.4243987 1.9105479 24
-1.7079692 1.4072642 1.8742268 78
-1.282084 1.3907729 1.862975 85
-1.1624422 1.4039663 1.8639249 77
-1.0047194 1.3793422 1.8626307 67
-0.81941485 1.422874 1.8702055 81
-0.71202534 1.4046998 1.860177 71
-0.36148599 1.4387689 1.8583105 72.25
-0.2037811 1.4038295 1.8561503 65.800003
-0.10926332 1.4732261 1.8610731 68
-2.3283801 1.6064231 1.8874975 72.5
-1.7286558 1.548647 1.8712623 75.400002
-1.5696166 1.5062515 1.8633684 70
-1.4737511 1.5056012 1.8667489 72
-1.2279977 1.5738611 1.866218 75.666664
-1.1418085 1.5702013 1.8701771 74.666664
-0.99842399 1.5341728 1.8638899 69.5
-0.81824476 1.5632039 1.8685907 76
-0.68389106 1.5647879 1.8613974 36.25
-0.3668859 1.5768634 1.8589749 70.833336
-0.25179279 1.5858302 1.8571898 69
-0.094978839 1.558231 1.8569349 63.5
-2.909461 1.7817435 1.8870239 42
-2.7605996 1.7480583 1.8722287 79
-2.6094282 1.7150809 1.8742486 82
-2.4052603 1.7166572 1.890257 72
-2.3116972 1.7398049 1.8792881 70.5
-2.179894 1.7120359 1.8725425 69.5
-2.0102766 1.6866848 1.8779656 77
-1.7085266 1.7209555 1.875805 78
-1.569777 1.7102311 1.8657906 67.5
-1.4251827 1.6861998 1.8662974 74
-1.1196911 1.7322853 1.8715023 65
-0.98174006 1.7098436 1.8703996 63
-0.89161074 1.675832 1.8615483 70
-0.74237561 1.7265625 1.8781084 63
-0.16913523 1.726864 1.8565141 40
-3.0459428 1.911124 1.9059232 42
-2.966475 1.8402007 1.898815 38
-2.315496 1.8756185 1.8939422 72.5
-2.0287695 1.9303105 1.8776201 69.5
-1.6997626 1.8814855 1.8859551 73
-1.6017916 1.8697578 1.8767087 74.5
-1.4177938 1.8932016 1.8696886 69
-1.1220044 1.8530895 1.8758922 66
-0.97683829 1.9052243 1.8733374 57.666668
-0.8245039 1.8399737 1.8701891 60
-0.45326281 1.810863 1.8576709 1
-3.1387658 1.9784195 1.9086229 35
-2.9192517 2.0913072 1.9056464 74
-2.7505281 2.0421979 1.8771454 73
-2.5975187 1.9913414 1.8824505 77
-2.322505 2.0138075 1.889506 74.666664
-2.2059424 1.9867922 1.8788944 64
-1.6653209 1.9852037 1.8808843 68.5
-1.6084273 2.0450907 1.8895584 68
-1.3085942 2.0849321 1.877045 39
-1.0880849 1.9862098 1.8743973 63.5
-1.0255321 2.0236731 1.87577 68
-0.82272506 2.0576713 1.8730546 55
-0.7476685 2.0056903 1.8724021 60
-3.2174425 2.181536 1.8832074 72
-3.0772603 2.2101996 1.896013 68.5
-2.9533243 2.1403868 1.8954154 75
-2.2960954 2.1651068 1.9012902 69
-2.043905 2.2114799 1.8830847 72
-1.927042 2.1567278 1.8831302 68
-1.6862162 2.1015763 1.889516 74
-1.5978429 2.1829607 1.8805319 65.5
-1.4395676 2.1387393 1.8633299 41.5
-0.98447645 2.1804767 1.8824408 60
-0.89558011 2.1067636 1.8712968 56
-3.6843975 2.3763034 1.8871261 67
-3.4316185 2.2653975 1.8771759 64
-3.1731901 2.361732 1.9426788 19
-2.7454107 2.3682187 1.8918756 71
-2.5766547 2.2821066 1.885444 74
-2.3191643 2.3137846 1.8930814 68
-2.2030995 2.2956724 1.8930624 71.5
-1.5961514 2.3085845 1.8941714 69
-1.2777511 2.3280559 1.8795798 53.5
-0.92598808 2.3489418 1.8890611 51
-0.84777468 2.3503234 1.8802274 56
-0.73093182 2.2658055 1.8953372 7
-3.2381074 2.5440135 1.893957 64
-3.105262 2.5469735 1.8924831 61
-2.9449232 2.4683387 1.9002739 65.333336
-2.2694781 2.4814315 1.9099892 62.5
-1.9915806 2.4954188 1.8895663 58
-1.8715298 2.4147372 1.8830327 61
-1.5308546 2.4759619 1.8905629 58.666668
-1.407596 2.4191871 1.8784879 55
-1.1480628 2.5255408 1.881759 55
-0.91134614 2.4563105 1.891096 59
-0.84984642 2.4815788 1.891379 3
-3.7838099 2.5842533 1.8976091 65
-3.5299883 2.6451817 1.9053508 63
-3.058012 2.623183 1.9190048 61
-2.5596094 2.6088328 1.8985132 69
-2.3139369 2.6471765 1.9222995 66
-2.1942372 2.6304276 1.9003145 71.333336
-1.8097457 2.6982806 1.8894621 67
-1.5367149 2.6384685 1.8981467 71
-1.4996952 2.5934887 1.8997821 63
-1.2697489 2.642293 1.8818089 54
0.85083616 2.578589 1.8707293 25.5
0.98554909 2.6405952 1.8717852 25
1.0892297 2.6990325 1.8678058 36
-4.0842772 2.7503905 1.8987391 67.5
-4.0275941 2.7734802 1.9071892 63
-3.848887 2.8079684 1.9186291 61
-3.7185431 2.7593398 1.905798 61.5
-3.1357212 2.7201469 1.9227074 63
-2.9361029 2.8319244 1.9131008 59
-2.7256942 2.7170801 1.8997806 67
-2.2382579 2.7850566 1.9264592 66
-1.9259355 2.7981987 1.8925499 68
-1.4451867 2.766803 1.8963451 55.333332
-1.0482408 2.769731 1.8856322 59
1.1340104 2.7147624 1.8697252 44.666668
1.259163 2.8097951 1.8728658 49.333332
1.4036963 2.829428 1.8818849 53
-4.3962646 2.9246197 1.9024779 54
-4.2453227 2.8820162 1.9056555 63
-4.0108385 2.9312191 1.9068937 58.5
-3.2625499 2.9504116 1.9096822 64
-3.0579858 2.948715 1.9148663 60.5
-2.5320714 2.9652076 1.9081935 62
-2.2449498 2.895056 1.9316174 62
-2.0441895 2.9040129 1.8966342 72
-1.433372 2.9243569 1.9057103 57
-1.1592288 2.9142289 1.8844955 58.5
1.4453819 2.916276 1.8645438 51
-4.4926128 3.0062349 1.9127332 41
-4.0758123 3.1498311 1.8675069 1
-3.8477476 3.0354505 1.9085039 60
-3.6953993 3.112376 1.9086385 30
-3.4806509 3.087007 1.8940908 47
-3.0978749 3.0966649 1.9340198 43
-2.6963906 3.096544 1.904821 61
-2.2650998 3.015533 1.9365278 63
-2.1911852 3.0266819 1.9150798 63.5
-1.8515545 3.1397126 1.9033617 58
-1.7421621 3.0183773 1.9045063 64
-1.3879944 3.0289843 1.9052233 56
-0.96609867 3.0919349 1.8892671 61
1.2882457 3.1266069 1.8960181 52
1.4587139 3.1103413 1.8026568 45
-4.0565419 3.1664898 1.829065 18
-4.0114307 3.1739814 1.8489348 18
-3.7803297 3.1854644 1.8511401 17
-3.6663449 3.1900029 1.8466278 16
-3.1405416 3.2375774 1.8125852 2
-2.8393977 3.2028022 1.8750321 0
-2.1814084 3.2029426 1.9227302 2
-1.9559256 3.2512257 1.8924559 18
-1.0638947 3.2779949 1.8958555 69
1.3054637 3.2629621 1.8779298 51
1.4442433 3.2395148 1.8290322 46.5
-3.0626483 3.4133525 1.9295447 61.5
-2.5201271 3.399085 1.9427704 14
-2.1912122 3.4026523 1.9388219 2
1.4070536 3.3565669 1.8866324 55.25
-3.0670943 3.5109386 1.9459263 61
-2.6629798 3.5294175 1.9152285 64
-1.7591071 3.5124087 1.9117631 52
-1.8689188 3.6778686 1.9156786 54
-2.4415407 3.792202 1.9183329 59
-2.0470679 3.7922287 1.8667659 1
-2.030062 3.9817898 1.8995231 3
-2.0238385 4.1892586 1.9477681 3
-1.8720319 4.3582373 1.9292799 53
-2.1271505 5.3421268 1.8524567 3
-4.5577526 6.1014247 1.8688841 75
-3.1423056 3.6642828 1.9658309 57
-2.9402962 3.8624156 2.0027494 56
-3.1551054 3.9752388 2.0628588 59
-3.4293761 4.0941496 2.0314951 61
-3.1789668 4.1159983 2.0448036 56.5
-2.7161379 4.192687 2.023243 45
-3.1953504 4.247036 2.0709617 54
-3.6969748 4.3512764 2.0294781 48
-3.2399216 4.398459 2.0774281 53
-2.922009 4.461977 2.0368452 38
-3.180464 4.6048794 2.079705 48
-2.0613427 4.5466571 1.9865631 11
-4.0175834 4.6736717 2.042398 40
-3.4531293 4.7279773 2.0475054 38
-3.1686091 4.7572336 2.0613999 40
-1.9897593 4.6714916 1.979411 45
-3.1874585 4.909164 2.0914068 37
-4.4034963 5.0513663 2.0500968 33
-4.2836337 5.092597 2.0558171 33
-3.7404115 5.064168 2.050523 36
-3.2153158 5.0792975 2.0971425 36
-4.1378741 5.2309718 2.0885205 33
-4.6507053 5.4623399 2.055321 35
-4.2226295 5.4053512 2.0865939 33
-4.0786834 5.4707017 2.0645857 32
-3.4795036 5.486918 2.0673456 28
-4.3255892 5.6020827 2.0964975 34
-4.8605528 5.7085443 2.0712237 38
-4.79849 5.7010703 2.0824804 37
-5.130878 5.9625626 2.0859601 40
-5.0524759 5.995152 2.090111 55
-4.5208764 5.9945903 2.086524 39
-3.7808313 5.9124465 2.070148 21
-5.1556487 6.041285 2.0266473 45.5
-4.4387798 6.0409622 2.0881398 40
-4.2409177 6.1360874 2.0845442 5
-5.4012532 6.3364 1.9852821 44
-4.4666266 5.8311057 2.1043687 35
