# .PCD v0.7 - Point Cloud Data file format
VERSION 0.7
FIELDS x y z intensity
SIZE 4 4 4 4
TYPE F F F F
COUNT 1 1 1 1
WIDTH 242
HEIGHT 1
VIEWPOINT 0 0 0 1 0 0 0
POINTS 242
DATA ascii
2.0235808 -8.7551088 -0.94758189 16
2.2207267 -8.6896439 -0.96159798 2
1.644302 -6.4462819 -0.97989565 1
0.78973538 -5.937057 -0.94234717 15
0.93056351 -5.9168096 -0.96916997 7.5
0.64520812 -5.8132167 -0.9752053 0
0.95039588 -5.4532471 -0.98623985 1
0.60289043 -5.2860942 -0.97599578 1
1.0924445 -5.327105 -0.95968068 1
0.69479871 -4.8900104 -0.95657277 1
1.6557602 -4.9128814 -0.97723496 3
0.86406177 -4.6529379 -0.96217865 9
1.171896 -4.7355475 -0.94845045 9
0.79938179 -4.5771184 -0.96720403 8
0.50082266 -4.4476972 -0.94444686 7.6666665
0.73781329 -4.2195067 -0.93639541 8
1.399115 -4.3112144 -0.96379244 2
0.79810387 -4.1575365 -0.95192063 8
1.4201539 -4.1309462 -0.94271731 1
1.592726 -3.9726546 -0.92940086 1
0.51646399 -3.8001227 -0.92219943 5.5
0.73563343 -3.8892517 -0.921826 2
1.3688323 -3.7748704 -0.94771063 1
1.7199082 -3.7548211 -0.92816383 8
0.55498397 -3.7258844 -0.9286502 5
0.76229292 -3.6942964 -0.93290603 5
0.84326273 -3.5846119 -0.91220808 5
0.59306407 -3.4267054 -0.91194302 12
0.71246153 -3.3561914 -0.92840075 4
1.2638708 -3.3748851 -0.93196243 7
0.50312412 -3.2176001 -0.90857273 5
0.70050019 -3.2455645 -0.91958195 4
1.1933198 -3.2257879 -0.93612081 8
0.41948617 -3.1436584 -0.90266109 4
0.65385741 -3.1159487 -0.90428299 4
1.0325722 -3.1311941 -0.90457463 8
1.1750684 -3.0313201 -0.92779958 7
1.1292139 -2.9747162 -0.90353972 7
1.1228248 -2.7862146 -0.91422051 6
1.3912194 -2.7710538 -0.90392476 7
1.5341644 -2.7025721 -0.90291655 5
1.838382 -2.6601236 -0.921489 1
1.040555 -2.5084198 -0.90609372 8
1.7867293 -2.4439006 -0.91839778 7
1.6767882 -2.2470136 -0.90695727 4
1.6402491 -2.072298 -0.90807408 6
3.4733932 2.8642657 -0.90906721 18
3.3979013 4.027257 -0.90880257 18
3.375546 4.3982425 -0.98162323 19
3.3580999 4.5711989 -0.94353527 16.5
2.1881874 -8.5000839 -0.76397091 13
0.71634632 -5.9637923 -0.80322844 30
0.8494218 -5.9683976 -0.87927061 25
0.90695935 -5.9572239 -0.77877349 30
1.7293067 -3.8568015 -0.79644573 2
1.8883092 -3.4887226 -0.75269252 48
1.8805325 -3.3847344 -0.8034634 53
1.8673227 -3.2531972 -0.80304784 50
0.39948487 -3.0642116 -0.89603782 4
1.8596077 -3.1336706 -0.81507725 53
1.2534987 -2.8501837 -0.89942169 7
0.44808286 -2.7765899 -0.89062726 5
0.49723178 -2.8269615 -0.89325422 4.5
0.60683078 -2.8012807 -0.88928813 0
0.53847396 -2.6201348 -0.88833266 2
0.67954963 -2.6291046 -0.89203823 3
1.8125458 -2.6493168 -0.79228181 18
0.47938913 -2.5176749 -0.89098734 3
0.84733272 -2.4782591 -0.88464665 8
1.7141278 -2.4502299 -0.89300853 6
1.8096235 -2.4226449 -0.75700182 56
1.7736902 -1.9572434 -0.77580231 34
1.7781556 -1.8871258 -0.88048494 0
1.9509871 1.4810473 -0.80092931 5
1.8024588 1.5562472 -0.8125692 2
2.0932245 1.7968261 -0.78974426 4
2.3830876 1.7956375 -0.79151016 4
1.8820894 1.8459747 -0.78905922 3
1.326756 2.0461264 -0.78419739 7
1.7768821 2.0144196 -0.7956022 5.5
1.8157194 1.9722967 -0.79038501 3
0.46732873 2.1887238 -0.77688652 7
0.88841504 2.1797867 -0.78720421 7
0.93761176 2.2198608 -0.78370893 7
1.2209587 2.2271373 -0.78100204 7
2.3168833 2.228734 -0.77868873 0
0.58991021 2.3842092 -0.77165514 7
0.89831918 2.3627701 -0.78610462 7
0.900639 2.2807038 -0.78935421 6
1.9567332 2.3894515 -0.78336591 0
2.1007314 2.3077407 -0.777466 0
0.92120844 2.5143816 -0.78440732 7
1.1309166 2.471864 -0.77643341 8
1.4656047 2.5142076 -0.77344733 10
1.9543267 2.4852748 -0.77969873 0
0.73307675 2.6065435 -0.76995343 7
0.95474106 2.6818233 -0.77731395 9
1.899254 2.5884469 -0.78319407 0
1.0525849 2.8322251 -0.7690773 10
1.3743689 2.8029253 -0.76891643 7
0.99036938 2.8593047 -0.77915376 10
1.0023556 3.0795846 -0.7742101 9
1.2969234 3.1954019 -0.75883263 5
3.4488454 3.2005112 -0.82799971 2
-0.43606713 3.409364 -0.75967455 7.6666665
3.4156764 3.5744371 -0.87348038 19
1.9779372 -9.0156517 -0.66824448 34
2.1173537 -8.8000917 -0.72175545 55
0.83753687 -5.96208 -0.61974525 32
1.1076241 -5.9027948 -0.6939162 1
2.0383635 -5.8088188 -0.74322611 12
1.942066 -4.2189107 -0.61113143 45
1.9333918 -4.0543137 -0.63718873 23
1.3275673 -3.9989836 -0.74984884 0
1.9251633 -3.9560652 -0.6677922 29
1.9059889 -3.7748487 -0.71658242 49
1.8984923 -3.6219077 -0.72624224 47
1.8802178 -3.4049447 -0.74081141 51
1.8495162 -3.0397127 -0.70571029 47
1.8325555 -2.7498689 -0.67781198 50
1.8187563 -2.5038571 -0.64493811 59
1.7957807 -2.2146168 -0.71623737 63
1.772837 -1.8701572 -0.60487318 68
1.7673858 -1.711284 -0.63791966 72.666664
1.7547989 -1.5450081 -0.6547817 72
1.7485981 -1.4151764 -0.7078113 76.333336
1.740853 -1.3227898 -0.70073581 82
1.6985595 -0.853504 -0.65983808 75
1.5837812 0.90241951 -0.60143626 13
3.5071223 2.346678 -0.69827873 6
3.49172 2.4753032 -0.66560644 94
3.4773881 2.6607914 -0.62992537 103
0.78981942 2.820838 -0.67175269 38.5
3.4723885 2.7921343 -0.67798597 97
-0.35635811 2.9984145 -0.62346399 1
-0.3728323 3.0458751 -0.60107732 19
1.4267235 3.1972809 -0.63122028 1
3.3969414 3.9551051 -0.62507945 86
3.3570087 4.4468312 -0.63326275 54
2.2288439 -8.7978611 -0.49070215 53
0.83161712 -5.9726176 -0.5040732 28
1.0444698 -5.9595923 -0.53643811 23
2.0412941 -5.9496899 -0.56520212 2
1.9127617 -4.022893 -0.45424145 40
1.5844035 -3.7895427 -0.56452727 86
1.4605112 -3.684972 -0.45130932 47
0.18688576 -3.4682536 -0.5758732 1
1.8872985 -3.5399289 -0.52790278 45
-0.14158325 -3.3704884 -0.49527448 66
0.20578523 -3.4343784 -0.54585528 3
-0.10877112 -3.2811375 -0.49885356 2.5
1.8639178 -3.2113616 -0.45643458 48
1.8565347 -3.1271765 -0.58042043 49
1.8352771 -2.8243742 -0.55847818 52
1.7999985 -2.2817199 -0.47461775 59
1.7944149 -2.1700048 -0.51927066 67
1.8006213 -2.2409551 -0.48509952 56
1.7833806 -2.0285494 -0.53782791 63.333332
1.7729924 -1.9344127 -0.53041685 74.5
1.764058 -1.7616283 -0.53764445 71
1.7541184 -1.593527 -0.52603906 68
1.745008 -1.4075183 -0.58360028 71
1.7405009 -1.3200504 -0.53809416 75
1.2496449 -0.89771038 -0.52652824 31
1.1877571 -0.62760937 -0.46659723 71
1.6942406 -0.69049251 -0.54392999 78
1.2414143 -0.57167637 -0.47204226 83
1.6837596 -0.55874407 -0.53753847 80.333336
1.503592 -0.43010131 -0.4832719 127
1.6650261 -0.38192675 -0.52906418 49.625
1.6577387 -0.21585204 -0.5172413 77.428574
1.645925 -0.064002663 -0.50553358 80.25
1.6529797 -0.12977976 -0.4820458 84
1.6386251 0.065688446 -0.5164631 83.400002
1.6294807 0.20961256 -0.51240188 85.400002
1.6209403 0.37491041 -0.5203349 37.285713
1.605172 0.54148757 -0.53537595 15
1.6030099 0.68456918 -0.52888036 14
1.5953157 0.8196649 -0.51897734 13.285714
1.5831989 0.9659251 -0.51544207 13.2
1.5783116 1.0538077 -0.55617166 13.5
-0.35728714 1.7933185 -0.55363452 15
-0.31927437 1.8115337 -0.50563002 8
3.4977336 2.3976083 -0.54742825 108
3.4897604 2.5306277 -0.55182278 101
-0.41453737 2.6537399 -0.45261937 11
1.4659126 2.7557774 -0.55151403 4
3.4837685 2.7700126 -0.5326466 112
-0.20317505 2.8930805 -0.56092793 21.666666
-0.12221947 2.8915436 -0.52916372 1
0.62118351 2.9609692 -0.55232906 150
1.4591328 2.9099598 -0.48350415 4
3.4705238 2.8662491 -0.51381207 102
0.78610855 3.035675 -0.48145476 168
1.4373488 3.1052384 -0.46234488 2.5
3.4493878 3.1455741 -0.58487219 100
3.4629195 3.0076027 -0.55012512 100
3.4538367 3.1771185 -0.46772876 90
-0.50785977 3.4067521 -0.55009758 94.5
-0.39440295 3.3512452 -0.59585619 150
0.69013405 3.3140259 -0.53551286 151
3.4359469 3.3688717 -0.45137063 94
0.87308329 3.499104 -0.55604374 114
1.272122 3.5203092 -0.58691537 90
1.359103 3.5418863 -0.52926409 119
3.4162786 3.5156145 -0.47443864 96
3.3693404 4.391644 -0.49759454 92
1.344821 -3.9613724 -0.42678764 12
1.4070307 -3.9107776 -0.42325532 70
1.4702544 -3.8583467 -0.43110952 110
1.5039034 -3.7110567 -0.42370349 43
0.18080194 -3.4635909 -0.44929743 1
-0.19352794 -3.3762844 -0.42813972 12.333333
1.8196454 -2.4873574 -0.42395011 63
1.8055408 -2.3787389 -0.42521927 55
1.7904582 -2.1890218 -0.40221232 58
1.761728 -1.6778595 -0.42444807 69
-0.21360724 -1.5167907 -0.42299494 2
1.0411464 -0.99910074 -0.43430102 20
1.2336452 -0.80222249 -0.41680932 37.25
1.1811981 -0.65101653 -0.42209235 63.5
1.6864614 -0.60362637 -0.43948463 79
1.1974181 -0.54515773 -0.4383401 9
1.2120463 -0.55953497 -0.42619753 9
1.6766504 -0.54727048 -0.44979396 79
1.5049101 -0.44095689 -0.44579175 150
1.6680796 -0.35824382 -0.43010652 81.5
1.6093851 0.53525484 -0.44769871 15
1.6021883 0.64956683 -0.42994332 15
1.5969863 0.76804656 -0.4089275 13
1.5824531 0.97813857 -0.42680234 12
0.0063622715 1.2140279 -0.4158155 16
-0.043911356 1.4745018 -0.4247151 2
-0.22773264 1.7159323 -0.41168004 44
-0.31391069 2.3722851 -0.42148241 37.5
3.4725194 2.8476758 -0.4275094 94
-0.37306672 2.9500554 -0.44617748 17
3.460746 3.0561855 -0.41866174 92
1.4287572 3.2440157 -0.41618338 1
3.4439142 3.2143226 -0.42876107 90
0.63888907 3.4757614 -0.40563449 118
1.0278293 3.5063236 -0.44828975 108
