# .PCD v0.7 - Point Cloud Data file format
VERSION 0.7
FIELDS x y z intensity
SIZE 4 4 4 4
TYPE F F F F
COUNT 1 1 1 1
WIDTH 1729
HEIGHT 1
VIEWPOINT 0 0 0 1 0 0 0
POINTS 1729
DATA ascii
3.8953011 -3.4292266 -0.16723943 38
3.9472435 -3.3524721 -0.18313968 35
2.4255719 -3.1157928 -0.17583762 63
1.0677069 -2.9614515 -0.18025438 59
2.3592477 -2.8181117 -0.16406775 3
2.0729647 -2.3426993 -0.16943803 5
0.24522358 -1.3882198 -0.16943246 19.5
0.3159036 -1.4303821 -0.16793275 13
0.10068603 -1.2879204 -0.1597764 7
2.7130401 -1.3177508 -0.18706228 136
-0.19197717 -1.0678866 -0.18230696 9.8000002
-0.13202386 -1.1224353 -0.17978585 7.3333335
2.7738326 -1.1583135 -0.16321076 29
3.1968658 -1.0989838 -0.19662859 31
-0.39602455 -0.92458779 -0.17910556 15.285714
-0.25249103 -1.0268399 -0.1636568 13
-0.60476476 -0.77094072 -0.16491625 16
-0.52182883 -0.83441871 -0.1711026 14.444445
-0.43824017 -0.89153713 -0.16862652 14
2.7908869 -0.8010428 -0.17726794 29
2.463423 -0.56372821 -0.15207653 30
2.1902328 -0.3760069 -0.19090912 37.5
1.922612 -0.20167196 -0.15925901 39
1.7299078 -0.06200023 -0.18031946 47
0.36924991 0.12305995 -0.17557581 4
1.4610271 0.13269126 -0.18164691 45
1.578691 0.053106267 -0.1860501 46
1.3614701 0.20279537 -0.18120363 54
0.1379358 0.43138137 -0.18899071 5
0.22344635 0.38178065 -0.17379141 9
0.36287993 0.34915304 -0.17439416 4.875
0.4629249 0.34122247 -0.15740894 1
1.0353185 0.4350149 -0.15733606 13
1.1131909 0.3837218 -0.18674213 19.200001
0.13215126 0.50529325 -0.17017148 7.7272725
0.1599379 0.46765792 -0.18972205 5
0.95247775 0.49994269 -0.18080807 11
0.19028731 0.79348356 -0.17996244 4.5
0.2599951 0.98339099 -0.15024036 13
-0.014433388 1.1846256 -0.16268723 15.5
0.042319585 1.1450092 -0.1782943 15.142858
-0.19856322 1.3104203 -0.18434326 13.25
-0.29214737 1.3787743 -0.1751934 13
-0.54283756 1.5497999 -0.16512929 5.125
-0.78094518 1.7182468 -0.16548517 3.2
-0.9214654 1.8116093 -0.1853127 3
3.7287605 -3.6638055 -0.021333402 36
3.7645457 -3.6033134 -0.061304186 33
3.7824469 -3.5686965 -0.11224273 34.5
1.1233612 -2.8760355 -0.10662947 43
1.168337 -2.8270721 -0.10426944 63.333332
1.237245 -2.744925 -0.12257396 54.5
1.3410021 -2.4031799 -0.0073155807 10
1.894302 -2.4633663 -0.069753654 55
2.2364926 -2.4515791 -0.14630172 7
1.4228853 -2.3097551 -0.011580949 21
1.7866106 -2.2774522 -0.050155673 23
2.003665 -2.2818465 -0.10598374 7
2.1069858 -2.3519461 -0.11935566 7
1.4274642 -2.246079 -0.12168584 2
1.5759449 -2.1860974 -0.029855629 38.5
1.7607439 -2.1121325 -0.079881914 9
1.9158595 -2.2174938 -0.10189734 6
0.11123335 -1.4127455 -0.026685391 39
0.2404016 -1.388679 -0.12634537 16.799999
2.8484759 -1.4773306 -0.12466703 33
-0.0023874817 -1.2228369 -0.079081245 4
0.072282873 -1.2641631 -0.10824022 5.1666665
0.16655304 -1.337958 -0.1072624 6.6666665
2.691812 -1.3313531 -0.051600222 84.5
2.7598584 -1.2664255 -0.11101335 81
-0.18686728 -1.0881679 -0.1428875 9
-0.044451017 -1.1691947 -0.090271123 1
2.816153 -1.1729245 -0.059878744 39
3.2300181 -1.113342 -0.072934292 28
3.3154838 -1.1878277 -0.14767146 29
-0.80356717 -0.90911031 -0.029044334 0
-0.35206512 -0.95561534 -0.10842088 12.466666
-0.26091525 -1.0198275 -0.12599663 11.25
-0.81980073 -0.89997619 -0.011772339 0
-0.63264269 -0.7807855 -0.1152875 11.6
-0.53342503 -0.82511884 -0.12150865 14.583333
-0.43997341 -0.88473845 -0.093979754 18
2.8167982 -0.82343429 -0.082686104 29.5
-0.63533241 -0.74955291 -0.1245947 12
2.3526359 -0.49803165 -0.053261343 34
2.4376597 -0.56469476 -0.097278632 28
2.1397262 -0.34532389 -0.063211299 38
1.9195342 -0.19426446 -0.092233427 38.333332
1.6336477 -0.00045373241 -0.062839903 43
1.7472878 -0.075014621 -0.05970379 39.200001
1.8047798 -0.1064804 -0.0041272389 37
0.35457265 0.12279651 -0.12662753 4
1.549742 0.06779176 -0.088131018 44.375
0.35930544 0.29729789 -0.090088822 2
1.3017399 0.24655958 -0.059506215 48.75
1.3866959 0.1860768 -0.067880854 48.285713
0.1421811 0.4325372 -0.086185165 4.7777777
0.19915541 0.38691667 -0.11498785 8.2619047
0.35954544 0.35077015 -0.1092656 4.318182
0.48936981 0.35601211 -0.13019849 1
1.0352473 0.43881261 -0.10202195 11
1.1167324 0.37792593 -0.059971433 18.133333
1.2009566 0.31758073 -0.14613883 19
0.092092998 0.50232106 -0.064966105 5.265625
0.7555818 0.47209549 -0.012057905 3
0.96225625 0.48993835 -0.0599894 11.4
0.11424759 0.61954677 -0.10106003 3
0.16111605 0.6427089 -0.065045856 2.5
0.18777367 0.78196126 -0.042181127 5.1428571
0.21143724 1.0148715 -0.10016044 13.666667
-0.030840468 1.1903298 -0.1196398 14.5
0.094157837 1.0995952 -0.04918405 14.083333
0.16458072 1.0596128 -0.083764769 14
-0.19515754 1.3118173 -0.06369625 12.333333
-0.095474668 1.2423221 -0.068953119 13.416667
-0.3678835 1.429859 -0.072936259 6.3076925
-0.28687289 1.373134 -0.10981761 13
-0.62452894 1.6121258 -0.089525677 4.25
-0.5133546 1.532384 -0.059173595 6
-0.87842882 1.7804482 -0.10324953 3
-0.71573085 1.6687502 -0.053587954 3.1666667
-0.9335922 1.8200278 -0.07484781 2
7.4247909 -4.5473356 0.036909278 35
1.3600087 -3.5632184 0.08210256 0
6.2842612 -3.2835524 0.14049268 0
1.2619791 -3.1091573 0.014186586 44
4.167603 -3.0138206 0.04168972 19
2.0507131 -2.6597509 0.073342972 6
1.373242 -2.3130753 0.099719442 9.333333
1.3259239 -2.2408786 0.067629598 3
1.4489336 -2.2394261 0.055690058 18
1.5087577 -2.2047813 0.011752005 10
-0.46879196 -1.5347049 0.1240925 2
-0.0033679188 -1.5871197 0.062166926 2
0.049315237 -1.5585899 0.049174696 13.2
-0.40387812 -1.4444278 0.080634475 2.3333333
-0.022927929 -1.4858075 0.057990547 1
-1.1124215 -1.2806746 0.11165193 7.5
-0.32921067 -1.3149142 0.12915057 1
-0.28865245 -1.2458307 0.11147758 1
-0.082202151 -1.2962351 0.039441172 3
2.6614437 -1.2942748 0.0039019538 61
2.7372301 -1.2034457 0.067707084 44
-1.0781691 -1.1680865 0.14908588 1
-0.97382051 -1.1003844 0.11346787 3
3.3245549 -1.1971917 0.055355426 26
-0.81641442 -0.90653962 0.035889611 0
3.0569055 -0.99768072 0.12178754 29
-0.80649793 -0.88636512 0.070270233 0
2.7483652 -0.78665477 0.032662746 26
2.6765513 -0.72870594 0.073303074 27
2.7038467 -0.74233842 0.13348979 29
2.3760326 -0.51851201 0.074843585 28.333334
2.405333 -0.53361928 0.14509189 31
2.178268 -0.37551817 0.081199944 34.333332
-1.1425471 -0.18005329 0.11668304 2.5
1.9151626 -0.19920564 0.097422451 36.25
1.9760908 -0.23386937 0.058488067 36
-1.1069529 -0.092939213 0.11276715 4.75
1.7311108 -0.06745711 0.083004899 42
1.8167953 -0.11427422 0.07938882 40
-1.099687 0.056977939 0.095086463 0
-1.0372367 0.12915522 0.049093064 0
1.4571371 0.13438304 0.010217205 44
1.5676856 0.049368009 0.065518297 42.25
-1.0180728 0.16749659 0.10178478 0
1.3110007 0.23200907 0.085673638 48.166668
1.4152408 0.15663806 0.083082199 41
1.0203881 0.44689742 0.064580195 9.5
1.1101792 0.37741703 0.062797919 21.1
0.055879317 0.51649779 0.019577419 4.3157897
0.95993531 0.48451781 0.049289159 9.25
0.076223359 0.66947371 0.071437456 8.636364
0.22093914 1.0024382 0.083418146 10.769231
-0.0122445 1.1849461 0.10195524 11.333333
0.046313569 1.1431019 0.052268896 12.384615
0.16791061 1.0564712 0.12914996 11
-0.21558516 1.3222978 0.053209741 11.5
-0.060782786 1.2172006 0.12013296 12
-0.32528478 1.3959982 0.11421482 9.1999998
-0.29133734 1.3734419 0.082433127 11.5
-0.53807616 1.5476561 0.066857435 6.25
-0.83869809 1.7543874 0.048955426 2.8333333
-0.71408558 1.6711842 0.083293736 6
-0.96514261 1.8188205 0.1121752 3
-0.89547056 1.8027399 0.11460274 3
-2.4725227 5.3758726 0.13550603 68
7.0174155 -4.0800438 0.18156308 87
3.9919932 -3.2679975 0.2031191 36
4.0864477 -3.1430469 0.28605711 36
1.2475315 -2.4280598 0.19366783 4.6666665
1.3039714 -2.367651 0.18070674 15.666667
-0.93411165 -1.8787605 0.28225964 1
2.8098848 -1.4532959 0.23228845 24.5
2.6326301 -1.2827984 0.22196615 27
2.7161629 -1.2484533 0.20196372 7
2.9934313 -1.2346674 0.20305389 65
-1.0706573 -1.1927552 0.17060095 3
-0.99501765 -1.0905581 0.17414168 2
3.0303645 -1.1808796 0.18224943 53
3.1789389 -1.0956023 0.15252858 27
-1.0789863 -0.93978781 0.25473869 1
-1.0011812 -1.010443 0.22304893 1
3.0704057 -1.011456 0.24475366 29
-1.0332103 -0.88166344 0.29611436 3
2.4940424 -0.60851973 0.18764436 28
2.6459818 -0.70729303 0.23169142 29
2.7094889 -0.74462622 0.23367923 30
2.33461 -0.49012774 0.25904846 33
2.4102516 -0.54711741 0.27932382 27
2.1449323 -0.35379735 0.21245414 35.5
-1.2432314 -0.2212619 0.23491947 1.6666666
-1.1422914 -0.18309559 0.15868028 0
1.9220855 -0.20647521 0.20390689 32
2.0005283 -0.25861609 0.24693032 35.333332
-1.2626535 -0.054936409 0.25776243 0
1.6334045 -0.0025837417 0.19711387 44
1.7208056 -0.062680937 0.22099519 36.166668
1.8057628 -0.12105606 0.20313138 35
-1.2905228 0.056837969 0.26116109 0.2
1.4779357 0.11084559 0.24095243 37.5
1.5459414 0.061920296 0.22354861 38.400002
-1.29758 0.16886842 0.27855307 2
1.3177392 0.22278079 0.2351675 41.5
1.3941834 0.1683313 0.21236847 39
1.0429553 0.41790533 0.17252177 51
1.0874863 0.38405284 0.17432421 52
0.074406624 0.7234019 0.21658866 5.1111112
0.088998891 0.76296932 0.22696806 5.5
0.15565179 0.77417344 0.22458851 5
0.19657689 0.99923456 0.25393695 10.2
0.08783301 1.1093155 0.22863524 11
0.16485256 1.0574367 0.1892615 11
-0.19211265 1.3050507 0.26108807 8.4285717
-0.10233251 1.2428713 0.20633802 10.6
-0.37610245 1.4346313 0.21201381 6.2222223
-0.66933304 1.6296059 0.20225421 3.4000001
-0.47916397 1.5063925 0.23863347 6
-0.81819236 1.7404777 0.25954175 3.75
-0.71508682 1.6694005 0.22803047 3
-2.4268451 5.3296413 0.25825137 59.5
-2.3705392 5.2929149 0.21392235 63
7.2522497 -4.7746243 0.44416523 87
7.1671715 -4.2358532 0.40622902 64
3.8224494 -3.5213938 0.37840104 38
3.9099457 -3.3743122 0.44412786 30
6.3519716 -3.3266082 0.37354955 0
4.120501 -3.0778804 0.37948838 30.5
2.2493205 -2.5509412 0.41520345 1
2.8756764 -1.5854237 0.363415 93
2.8678379 -1.491344 0.42789271 67
3.5551572 -1.3645277 0.41009319 29
2.7945557 -1.2593986 0.37726438 28.25
3.2674956 -1.2647688 0.34129161 38
-1.1035658 -1.080431 0.36801103 0
2.8463051 -1.0858598 0.44307965 37
2.9051044 -1.0931226 0.39003852 49.666668
-1.1127907 -1.0249445 0.31166857 0
-0.96736312 -0.97851509 0.37089974 1.7777778
-0.88277453 -0.96444869 0.34577543 2
2.9914339 -0.95303798 0.35403687 27
3.0581481 -0.99261141 0.39627197 27
-0.9885602 -0.8901816 0.37832442 2.6666667
2.7741652 -0.80874217 0.35594964 28
2.6316423 -0.69810027 0.38597536 28.666666
2.3384333 -0.50005227 0.33646822 30
-1.3147165 -0.30846992 0.341555 1
2.0774221 -0.30951801 0.4108679 33.5
2.1745944 -0.37857121 0.3565937 32.5
-1.3107959 -0.22153223 0.37479249 5.4166665
1.8786294 -0.17409083 0.35799551 34
2.0238001 -0.26742816 0.39567941 37
-1.2686431 -0.089146793 0.36691859 0
1.7139821 -0.059797123 0.38742214 37
-1.3795037 0.12331913 0.40768385 3.8333333
-1.3103119 0.04600779 0.35898909 0
1.5998211 0.022520829 0.3386831 39.5
-1.3557107 0.15398049 0.31613392 5
-1.3435576 0.1742036 0.34119058 6.5
-1.8641497 0.86672735 0.44508439 25
-2.0173597 0.94689864 0.4397819 27
-1.9384156 0.92439413 0.43520921 18
0.20675278 1.0023259 0.33804977 9.545455
-0.015883749 1.1748893 0.38169831 9.8000002
0.073503911 1.1122075 0.37464252 9.7692308
0.15558557 1.054161 0.37335947 9.5
-0.22957182 1.3317585 0.36192131 11
-0.078998096 1.2192008 0.38576058 10.666667
-0.45427445 1.4868675 0.30019706 7
-0.33467624 1.4013923 0.3912929 23.666666
-0.26341313 1.3536239 0.38847944 29.5
-0.54479778 1.5518053 0.36735666 5.9000001
-0.83907121 1.7484481 0.35548392 6
-0.71369463 1.6691846 0.41640115 3
-0.92526579 1.8085488 0.42958325 2
-2.437125 5.3379874 0.34640208 64.333336
-2.3624482 5.2968359 0.36994326 34.5
-3.0699298 5.7972827 0.40957075 39
7.2015438 -4.2582664 0.58486784 61
3.6528163 -3.7743912 0.56894678 10
3.9230382 -3.3765647 0.53927886 45
4.0131164 -3.2451828 0.51095551 39
4.0843277 -3.1514544 0.54651737 37
4.0794392 -3.12798 0.55632919 36.666668
2.7872524 -1.3958733 0.53336567 31
2.855298 -1.4393715 0.53220564 72.5
2.8054521 -1.2418525 0.48656875 75
2.7924814 -1.1555831 0.51135266 68.5
3.0521722 -1.0038915 0.58020389 27
2.9009426 -0.89711696 0.55672491 28
2.5097625 -0.61660922 0.58929062 28
2.6443884 -0.71396232 0.53796417 26
2.3338823 -0.49685079 0.46974415 28.5
2.4247749 -0.55424875 0.5244922 28
2.207268 -0.40156683 0.4818331 33
2.2597198 -0.44124451 0.53167385 28
-1.2929966 -0.21572253 0.5018242 4
2.0094061 -0.25857395 0.52554333 33
-1.355427 -0.032492824 0.57572126 6
-1.3111129 -0.070702761 0.52634025 1.75
1.8257976 -0.1373276 0.45068502 32
-1.392532 0.12700205 0.55013537 24
-1.3355815 0.064530641 0.50193006 1.25
-1.3717028 0.16670434 0.49640203 18
-2.1028569 0.85018307 0.52881372 76
-1.9828324 0.80060434 0.52165973 67.333336
0.17091258 1.0300505 0.46933502 5
-0.0010205091 1.1571542 0.58740032 11
0.084517837 1.1005433 0.53570479 7.9444447
0.15200578 1.0553383 0.49012902 5
-0.19817874 1.2978499 0.54973769 15.75
-0.09291783 1.2318441 0.51479393 14.875
-0.37382641 1.4317603 0.51407266 21.333334
-0.29717207 1.3722367 0.46182281 54
-0.65605718 1.624536 0.52521557 3
-0.55883539 1.5609872 0.52510691 4
-0.84722131 1.7551463 0.57212603 3
-0.70251751 1.6579242 0.51050925 3
-2.3224823 5.2630792 0.54317778 4
-2.9417279 5.6953874 0.53271246 37
-3.0259466 5.7607121 0.51944226 38
-2.9539545 5.7088733 0.55026644 36.666668
7.2311277 -4.8162155 0.64691699 81
7.3826332 -4.5820971 0.60142511 98
7.2407775 -4.2775121 0.72390532 63
7.0226889 -4.1423097 0.72154117 27
3.7389443 -3.6069221 0.61302185 29
3.8097007 -3.5355992 0.67964834 34
3.9250064 -3.3636274 0.68366575 36.75
-2.1689854 -1.2233479 0.66919464 36.5
2.8507149 -1.3054334 0.66833651 12
-2.177876 -1.175397 0.74582922 21
2.916285 -0.90944904 0.63664222 29
2.751549 -0.78577089 0.73409766 21
2.4929454 -0.60628206 0.65281081 24
2.6787016 -0.74060732 0.6037969 27
2.3317368 -0.49265173 0.71900749 26
2.4350979 -0.55669492 0.72644711 28
2.1776099 -0.38066545 0.61208642 27
-1.3634536 -0.11673704 0.65779018 3
-1.2967583 -0.064805463 0.68354291 9.8999996
-2.1625257 0.26203969 0.74465203 2
-1.9142603 0.73851639 0.69414598 67.333336
-2.1579249 0.89951009 0.69546139 44
-2.0064914 0.87621242 0.67453355 51.666668
-1.9039009 0.76044971 0.73775387 118
-2.1703203 0.93339181 0.68524373 94
-2.0412154 0.94018579 0.69182408 21.5
-0.031310026 1.1814219 0.68311459 37.166668
0.046130057 1.1262634 0.6636709 18.9
-0.21030752 1.3093436 0.66259879 44.285713
-0.11521373 1.2359632 0.67426765 28.75
-0.46530658 1.4953355 0.70824075 3
-0.36994278 1.4239067 0.67543906 25
-0.63396382 1.6067146 0.7283538 3
-0.50098711 1.5162441 0.63916111 3
-0.81494534 1.7265965 0.68201149 2.25
-0.72515309 1.6711571 0.62229013 3
-1.0096804 1.824387 0.69262195 0
-3.0102837 3.170603 0.7082386 104
-2.2748334 5.2326393 0.70161736 3
-2.4638219 5.3629336 0.63006401 54
-2.6019764 5.4531279 0.71370065 38
-2.5258405 5.403264 0.67649746 45
-2.9055853 5.6788263 0.74091971 36
-2.9867694 5.7250571 0.6632154 32
2.56393 -5.2901702 0.81270361 11
2.7306185 -5.0492768 0.75200748 22
7.2218604 -4.8082829 0.80888522 75
7.1459036 -4.1936069 0.8214103 57
-2.2816939 -4.0269985 0.86067951 76
3.6024334 -3.8174851 0.86297631 29
3.69361 -3.6943362 0.82933176 29
3.7529685 -3.6097176 0.82765973 32
3.772711 -3.5666952 0.82054293 33
4.1532779 -2.9738014 0.87971592 3
-2.1809177 -1.2689564 0.84088957 7.4000001
3.3448086 -1.2097055 0.80612099 22.5
3.474427 -1.3034885 0.81782269 22
-2.2972565 -1.1452992 0.82803679 4
-2.2065957 -1.1638329 0.82577926 13.5
3.0383511 -0.99313164 0.77581972 25
2.7771249 -0.80714911 0.80774987 25
2.6310201 -0.69769192 0.86075151 26
-1.3089575 -0.19843175 0.78931189 1.75
-1.2620444 -0.077810451 0.79473126 8
-1.3141928 0.0070490269 0.79733264 6.5
-1.9964311 0.39449272 0.80639035 59
-1.8661238 0.3520821 0.78297538 18.333334
-1.9767085 0.52490032 0.84007388 1.5
-1.9031076 0.48452529 0.78910393 10.5
-1.8935393 0.68126607 0.89075661 7
-1.8581839 0.77297807 0.78067648 16
-2.0293908 0.90618259 0.78314888 14
-0.034484833 1.1808256 0.82146627 53.5
0.0070236749 1.1521126 0.78060502 38
-0.21135667 1.3082362 0.80537021 48
-0.090410642 1.221014 0.8532697 50.875
-0.37582594 1.4246134 0.86436307 19
-0.28508657 1.3617058 0.8093304 42.5
-0.6029132 1.5905066 0.77790427 2
-0.53478658 1.5411263 0.79662269 2.4000001
-0.8375935 1.7405845 0.81405383 2
-0.74360114 1.6724014 0.89793408 2
-0.9436723 1.813651 0.85281444 2
-3.0120161 2.4084635 0.79811835 118
-3.1758468 2.9384599 0.82380545 106
-3.148459 2.9794853 0.8796072 104
-2.9856648 3.2205791 0.82315063 91.75
-2.6882827 5.5103536 0.7577014 33
-2.8653142 5.6496139 0.86799622 13
-3.7524674 6.2706833 0.88306439 45
-3.6488938 6.190464 0.84723735 45.5
-3.826194 6.3283725 0.75274062 36
2.5350413 -5.3480687 1.0158484 14
2.6045358 -5.2543778 0.97035682 23
2.6581264 -5.1846051 0.97164357 24
2.7071843 -5.1143408 0.93471122 23
2.6993487 -5.0996933 0.95516312 23
2.7324226 -5.0423398 0.92852676 23
7.2190609 -4.8051324 0.93177354 75
7.2389021 -4.7797232 1.0102974 81
3.2899661 -4.2578235 0.99209619 22
-2.2267175 -4.0626249 1.0098534 77.5
3.4104278 -4.0810184 0.99715173 28
-2.3110163 -4.013979 0.96523261 43.5
3.4429843 -4.0376401 1.0451034 28
3.5322802 -3.9190316 1.0070652 28
3.5850534 -3.8434448 0.97678101 29
3.6028504 -3.8248622 0.92428386 30
6.9210439 -3.7544847 1.0457966 0
3.6281037 -3.7443602 1.0330536 6
4.1790519 -2.9639528 1.0374395 1
3.5021787 -1.3178713 1.0204353 17.5
3.119348 -1.0526772 0.95777124 20.5
3.0276301 -0.98140872 0.98114175 22
2.8451381 -0.85015279 1.020255 21
-1.9892159 0.57607269 0.95403421 10.5
-1.9497716 0.57350743 0.95812845 11
-0.19407178 1.2895966 0.94906801 39.5
-0.10673793 1.2319463 0.97504997 45.666668
-0.46628231 1.4821861 1.0107447 2
-0.35774875 1.4074258 0.99039197 34.166668
-0.2925556 1.3577405 1.0402081 38
-0.64188093 1.6071628 0.95523608 2
-0.51263052 1.5146159 0.97683918 2
-0.71481907 1.6560507 0.92837572 2
-3.5103519 2.4779444 1.0497464 99
-3.315681 2.7487187 0.99348354 106
-3.1604187 2.9711766 0.97761476 101
-3.1454365 2.9713323 0.93487537 107
-3.130008 3.0201757 1.0184771 103.66666
-2.9724679 3.2456117 0.95480382 89
-2.8610458 3.4065795 1.039549 0
-2.8191912 5.6006546 0.99373925 32
-3.0942235 5.8009081 0.99636871 28
-3.6749427 6.2093959 0.97358274 41.333332
2.3477581 -5.6016302 1.1051319 23
2.5153444 -5.3683715 1.1886064 22
2.6752477 -5.1531835 1.1056551 25
-1.2898488 -4.6347194 1.1445823 1
-1.8309807 -4.353724 1.178637 67
-1.8509098 -4.340425 1.1652153 75
-2.2155638 -4.0744581 1.1375854 82
3.4067817 -4.0863209 1.1443011 29
-2.4071529 -3.9538238 1.1824019 7
-2.3456142 -3.9930568 1.1272407 6.5
4.0336838 -3.1992359 1.1220529 39.5
4.1128669 -3.083513 1.148371 31
3.5611916 -1.3639865 1.1544937 13
3.5074623 -1.3134712 1.1678143 17
-0.20120992 1.2933332 1.1127738 40.272728
-0.12174751 1.2363286 1.091675 41.75
-0.40721494 1.4395161 1.1407288 12.4
-0.64583945 1.6058176 1.1518333 2
-0.55676371 1.5401512 1.1750727 2
-0.82639086 1.7308912 1.1311187 2
-0.72623068 1.6667361 1.1040978 2
-0.94253731 1.8134718 1.0875934 0
-3.671736 2.238899 1.1583999 113
-3.479147 2.5176067 1.1389806 99
-3.3174129 2.7404561 1.073102 111
-3.2914469 2.7950945 1.1430906 99
-3.1191561 3.0392046 1.1304395 102.33334
-3.0348873 3.1719065 1.1354115 99
-2.9453404 3.278841 1.1098726 1
-2.8034196 5.6010666 1.0807239 35
-3.2440729 5.8974733 1.1130128 38
-3.650641 6.1877604 1.0818896 34.5
-3.5976439 6.1587586 1.1213458 42
2.3438988 -5.5984144 1.2546544 24.5
2.4325595 -5.4609222 1.2080266 25
3.1081736 -4.5046482 1.2324249 21
-2.0045204 -4.2302113 1.2644292 75
-1.9077857 -4.2966557 1.2300955 74
3.2540085 -4.2989931 1.2777576 28
-2.1760068 -4.1092229 1.2721233 82.5
-2.0753975 -4.1802917 1.3303347 78
3.4830801 -3.9690475 1.2067674 28
3.8796656 -3.41014 1.2927685 35
3.9550889 -3.2937145 1.3112837 33
4.0541387 -3.154665 1.2957209 151
3.5814552 -1.3736792 1.2748625 17
3.4326422 -1.2597393 1.2938069 13
3.1806359 -1.0901096 1.2292831 16
-2.3068419 0.36143395 1.3424945 25
-2.238909 0.31409988 1.3394747 28
-0.21910174 1.3063657 1.2642286 39.900002
-0.48611671 1.4753629 1.2171292 1
-0.33330458 1.3816189 1.2163565 33
-0.2877039 1.3526264 1.2678832 44
-0.80875099 1.7145127 1.2478684 5
-1.3909343 2.1269422 1.2765108 0
-3.6479294 2.289356 1.2904449 103.5
-3.4957416 2.5016625 1.209043 102
-3.4597585 2.5609219 1.2498292 98.5
-3.4107232 2.6369901 1.3185661 100.5
-3.2771127 2.8140173 1.2574984 97
-3.2025027 2.9325471 1.2546802 98.5
-3.1123059 3.0523107 1.2358689 100
-3.040091 3.1717052 1.2476733 82.5
-2.956126 3.2216921 1.2402219 8
-2.4851458 5.3774552 1.2771151 48
-2.3617158 5.2930689 1.2221581 4
-2.621675 5.4564719 1.3391882 41
-2.7523317 5.5644031 1.2380981 40
-3.5284154 6.1013942 1.2650977 40
2.1203332 -5.9032707 1.4547155 21.5
2.2054651 -5.7774329 1.4789501 26
2.3016183 -5.6543198 1.4600588 23
2.4746618 -5.4296455 1.3535258 26
2.926007 -4.7605538 1.4963788 30
3.0846601 -4.5305986 1.4709976 13.5
7.4037824 -4.540823 1.4243478 83
3.118773 -4.4800363 1.4539034 23
3.1962845 -4.3655186 1.4062343 30
-1.8936435 -4.3067904 1.4140079 71.5
-2.1971223 -4.0948234 1.3979964 79.5
3.3302166 -4.1913023 1.3927697 29
-2.3442028 -3.9924388 1.4454126 48
7.0738945 -3.9026256 1.3882927 18
3.6941733 -3.6585841 1.4409328 31
3.8097589 -3.5105162 1.4940656 31
3.9135201 -3.3596592 1.4430603 34
4.0529747 -3.1513679 1.3848778 150
4.0960464 -3.0935259 1.437717 81.333336
4.1340165 -1.7708912 1.4807725 15
-2.1733396 0.25976124 1.463412 23
-2.6644704 0.60722977 1.4660792 18
-0.21165092 1.295664 1.3951902 37.333332
-0.34540921 1.3964885 1.432559 28
-0.28971574 1.3610939 1.458058 36.666668
-3.8004103 2.06707 1.4264207 102
-3.6199334 2.3371031 1.4374999 98.666664
-3.5492942 2.4449277 1.4549651 68
-3.4681368 2.5522058 1.3513073 104
-3.4300756 2.6054351 1.430246 101
-3.3521106 2.7272904 1.4640821 96.666664
-3.27492 2.8239677 1.3592945 102
-3.2163842 2.9191303 1.4200903 97.333336
-3.1504216 3.0012331 1.3727475 93
-3.090585 3.0953233 1.3680493 100
-1.8884162 3.1132407 1.4118792 43
-1.8623052 3.1985364 1.4175873 51
-1.9860705 3.3556399 1.4179369 49
-1.8323996 3.3795629 1.4208055 45.5
-2.1229389 3.5638976 1.4209396 46
-1.8400618 3.545378 1.4104853 47
-1.7954643 3.5826969 1.4226836 51
-1.7709832 3.694037 1.40667 25
-2.5640066 3.862992 1.416561 45
-2.2790353 3.7908752 1.4169592 35
-1.9080025 3.7840676 1.4112457 51
-2.0370333 4.0267339 1.4085654 42
-2.6425834 4.1257 1.3966324 39.5
-2.6313734 4.2953682 1.3960562 37
-2.200228 4.3295674 1.4102156 40
-2.639606 4.4180818 1.3915154 38
-2.5434353 4.4390745 1.4107884 34
-2.7325146 4.7464209 1.3902357 28
-2.6471 4.7126498 1.378925 29
-2.6191857 4.8379292 1.3779347 27
-2.5976038 4.9640727 1.3819554 26
-2.9775648 5.1622233 1.3894552 24
-2.5997484 5.1253147 1.3870316 23
-2.5074024 5.12327 1.3983624 24
-2.6968763 5.5005832 1.3705763 38
-3.5279241 5.5556746 1.3588998 27
-3.2840779 5.6664748 1.3789265 19
-3.5813832 5.7354255 1.3532192 18
-3.6595888 5.9534278 1.3607424 21
-3.423249 5.9754038 1.3882663 31
-3.7667725 6.2040124 1.3608789 24
2.0850585 -5.9482412 1.6125839 17
2.2595382 -5.7159681 1.6252333 27
3.0483415 -4.5817266 1.5613189 23.333334
3.1676962 -4.4114919 1.5920089 32
-2.1423943 -4.1322889 1.5577254 79.5
7.0090237 -4.0594177 1.5023575 73
-2.3390431 -3.9973581 1.5226316 43
7.087862 -3.8793187 1.6127597 9
3.7610464 -3.5657923 1.5589385 31
3.9168713 -3.347749 1.5434498 31.666666
4.0122371 -3.2127564 1.6245719 33
6.1048927 -3.171505 1.6018318 0
4.6209044 -2.1190107 1.5107083 13
4.1287241 -1.7589322 1.5706549 16.5
3.9838054 -1.6470777 1.6265982 16
3.6297998 -1.4013858 1.5144385 14
-2.4451551 0.41945928 1.6197926 22
-2.3855464 0.39732355 1.6459867 22
-2.5994873 0.5176962 1.5438975 23
-2.7499399 0.64003855 1.5896353 21.5
-0.26752257 1.3343312 1.5564699 35
-0.38229325 1.4236841 1.5877291 31.25
-0.65711033 1.6481047 1.6375877 0
-0.79090899 1.7132673 1.6408302 2
-0.71605134 1.6640712 1.6305596 19
-1.0727816 1.9261568 1.6409887 2
-1.0027714 1.9218233 1.6212987 0
-3.8111534 2.0755398 1.5947748 115
-3.7756681 2.1133382 1.5461659 107
-3.7220235 2.1978819 1.5742334 102
-1.5027132 2.2498295 1.6072688 6
-3.610522 2.3658824 1.6102023 109
-3.5841041 2.3871899 1.5353012 99
-1.7014152 2.348552 1.6417884 29
-1.5753533 2.2841008 1.6284411 18.5
-3.5224941 2.4910166 1.5924343 98
-1.8580737 2.4639277 1.6432484 32.5
-3.4103484 2.64112 1.6220118 96
-2.1397121 2.6844473 1.6150836 1
-3.3590217 2.7248485 1.5555849 102
-3.2939713 2.8096526 1.638002 87
-3.1237733 3.0509958 1.5154951 87
-2.9909575 3.2475808 1.6060483 90
-2.9320116 3.3367105 1.5309155 0
2.0589952 -5.9909225 1.7755274 20
2.1166298 -5.8916335 1.7397982 27
-3.8357422 -5.3119845 1.7834986 41
-4.1112456 -5.2144165 1.7474366 97
-4.0256414 -5.0886145 1.7729005 31
2.737473 -5.0211678 1.7879449 26
-3.697479 -4.8735766 1.796348 28
2.8705063 -4.8358927 1.7330239 28.5
-3.5686486 -4.6717353 1.7868518 35
2.9228132 -4.7442908 1.7146727 31
-4.180491 -4.6008887 1.7756068 37
-3.8447311 -4.6166835 1.7779511 35
7.3823662 -4.5543923 1.7216634 82
-4.0399594 -4.4257088 1.7669507 38
-3.6810365 -4.4053607 1.7776707 35
-3.3687098 -4.4063568 1.7839259 41
-3.7332363 -4.2557373 1.789023 41
-3.5173261 -4.3493991 1.7946137 38
-3.4043455 -4.2741446 1.7966758 44
-1.9410262 -4.273387 1.663438 76
-3.5898764 -4.088541 1.7861081 43
-3.3607583 -4.1495228 1.7937244 49
-2.1885412 -4.0787549 1.7973901 75
-4.1907883 -3.9998083 1.7698509 45
-3.8637936 -4.032352 1.776997 45
-2.413307 -3.9334891 1.6709181 7
-2.3663602 -3.9734488 1.7298175 83
-4.0581203 -3.8530574 1.7632092 53
-3.7056234 -3.8530726 1.7718474 56
-3.5480943 -3.8073428 1.7905914 52
-3.3746405 -3.8821979 1.7846791 46.5
-3.1371968 -3.8817377 1.7848777 53
-2.9648135 -3.7606626 1.7921115 41
-2.8424199 -3.8679059 1.7948576 4
3.5399055 -3.8819954 1.6623548 31
3.6197677 -3.7654972 1.7394209 13
7.0707011 -3.8312829 1.785072 1
-3.7707486 -3.7230577 1.7849106 57
-3.4069023 -3.6833215 1.7849281 53
-3.1493111 -3.7395 1.7957014 49
3.648272 -3.7122242 1.6843725 30
-4.2090449 -3.4771242 1.7694408 93
-3.8787975 -3.516562 1.7737919 53
-3.5989466 -3.5715218 1.7792257 53
-3.2141213 -3.5102952 1.7936984 44
3.7641821 -3.5538549 1.6954964 30
-4.0817146 -3.3520122 1.7616767 91
-3.7310126 -3.3678553 1.7687236 58
-3.5759714 -3.3312278 1.7871023 59
-3.4067013 -3.4112525 1.7834289 60.5
-3.1973033 -3.3695674 1.7934896 56.5
3.8730462 -3.405031 1.7714823 28
-3.7971613 -3.2399652 1.7766258 57
-3.4995315 -3.2776768 1.7836996 58
-3.3915005 -3.1914721 1.7901675 59
6.1606803 -3.2270715 1.7363886 1
-3.8934231 -3.0578532 1.7697474 32
-3.6268179 -3.1313229 1.7830611 62
-3.226475 -3.057694 1.7922806 59
-2.9671936 -3.0235217 1.7933747 51
4.1071739 -3.0745118 1.6994838 31
-4.2086473 -2.9908137 1.757136 56
-4.0933552 -2.891268 1.7548994 57
-3.7653563 -2.9413159 1.7704812 61
-3.6137664 -2.9145834 1.7904576 58
-3.511538 -2.927855 1.7826532 62.5
-3.4028304 -2.9985962 1.7903978 58
-3.2573271 -2.8986118 1.7889925 60
-3.1085742 -2.936341 1.7927643 60
-2.9971368 -2.9371734 1.792549 56
-3.8464806 -2.8228838 1.7822911 60
-3.6416233 -2.724679 1.7794467 58
-3.4087319 -2.7938871 1.7896827 59
-2.8862367 -2.7445419 1.7916392 51
-2.7934909 -2.8363178 1.7987493 51
-3.920042 -2.6476803 1.7719857 57
-3.4933236 -2.6010091 1.7700442 64
-3.4209864 -2.6111336 1.7856449 55
-3.2192781 -2.6412814 1.7885422 56.666668
-3.031734 -2.6214538 1.7895079 59.5
-2.8219841 -2.6311054 1.7979339 61
-1.9529396 -2.5877852 1.7996091 46
-3.7965651 -2.5484018 1.7720481 65
-3.6283889 -2.5170338 1.7806541 56
-3.572006 -2.4673719 1.7743672 63
-3.4186771 -2.4270945 1.7839664 65
-3.296257 -2.5271807 1.7812146 62
-2.9272361 -2.4092853 1.7920517 57
-2.8053455 -2.5107288 1.7944506 55
-2.336972 -2.417551 1.7924851 43
-3.4421191 -2.2588308 1.7833847 57
-3.2632096 -2.3285062 1.7816443 64.5
-3.075211 -2.2893043 1.7849104 60.5
-2.8747106 -2.3241713 1.7971421 67
-2.640903 -2.2829254 1.7937285 65
-2.4340701 -2.3523865 1.7926487 50.5
-4.2632618 -2.1756203 1.7591623 65
-3.3662884 -2.2095766 1.7986771 37
-3.2087579 -2.2257483 1.7822224 54
-2.8518493 -2.1835694 1.7966937 43
-2.8463356 -2.206203 1.7890784 56
-4.1428566 -2.0939424 1.7530733 66
-3.369031 -2.0488906 1.7799771 60
-3.2804289 -2.028832 1.7920645 44
-3.1228659 -1.9863341 1.7873375 43
-2.9385743 -2.0651739 1.7902535 43
-2.7046933 -2.0011799 1.7966229 34
-2.5075862 -2.0815783 1.7982688 17.5
-1.8185543 -1.9869505 1.7891303 0
-4.302352 -1.8090631 1.7653531 26
-3.9602466 -1.9099836 1.7680074 60
-3.8414938 -1.8350954 1.7634565 63
-3.6862111 -1.8271906 1.7805132 39
-3.5097752 -1.9309881 1.775607 54
-3.3805497 -1.8737335 1.7801422 52
-3.2630024 -1.9142067 1.7861882 34
-2.9046173 -1.9082747 1.7901393 32
-1.7745328 -1.8375893 1.7999469 26
-4.1725683 -1.7340003 1.7553846 28
-3.9336703 -1.7097903 1.7692982 37
-3.6819687 -1.7373399 1.7791835 37.5
-3.4663539 -1.7896969 1.7885426 23
-3.350301 -1.7209922 1.7883204 11
-3.1982937 -1.686277 1.7953447 1
-3.6033406 -1.6292131 1.7787784 11
-3.4333436 -1.5796268 1.7882415 0
-2.3788099 -1.5151787 1.7986461 30
-1.9883438 -1.5471505 1.7934215 45.5
-1.8690934 -1.6257958 1.7974566 40
-4.2710648 -1.4237933 1.7631555 6.5
-2.8965888 -1.3559381 1.7774652 15
-2.4928706 -1.4195992 1.7857982 26.333334
-2.1576748 -1.4335879 1.7890748 34
-1.9071152 -1.4302438 1.7987876 63
-3.489409 -1.2105095 1.7763277 0
-3.0272224 -1.2536073 1.7737486 19.5
-2.833549 -1.2101847 1.7789944 31
-2.6518469 -1.3137355 1.7784148 31
-2.4958417 -1.2306223 1.79926 35
-2.3522718 -1.3006464 1.787003 53.5
-2.209604 -1.2204028 1.7882565 52
-2.0257998 -1.3104877 1.7938951 63.333332
-3.5206318 -1.0511553 1.775324 2
-3.3359678 -1.1599934 1.7649077 18
-3.2037323 -1.1394328 1.7623526 26.5
-3.0120988 -1.0734334 1.7709011 51
-2.9171367 -1.1136565 1.7799484 65
-2.7173123 -1.0887136 1.7966059 47.5
-2.4275086 -1.0743741 1.7940284 33
-2.3552823 -1.0907601 1.7868093 41
-2.116837 -1.138945 1.7872404 60
-2.0340474 -1.1302967 1.792611 61
-1.9014736 -1.069041 1.7932948 75
-1.7180694 -1.1231877 1.7974353 70
-3.4607046 -0.99412078 1.7578903 2
-3.3491874 -0.97248864 1.774411 26.5
-3.0579953 -1.0078704 1.7724214 75.5
-2.8731191 -0.96757352 1.7779149 65
-2.6263306 -0.92102408 1.7913178 45
-2.521656 -1.0078564 1.7947582 42
-2.2552433 -1.011026 1.7861103 44
-2.1380241 -0.94046855 1.7838386 67
-2.0013323 -1.0155609 1.7951844 53
-1.805936 -0.96670067 1.7946914 73
-1.7251964 -0.91401136 1.7918979 73
-3.2558179 -0.88739491 1.7754681 5
-3.0790176 -0.7934252 1.775236 36
-2.9364011 -0.87932521 1.7820781 69
-2.7371161 -0.85083258 1.7781211 65
-2.620415 -0.79611486 1.7835864 50
-2.4851897 -0.82564831 1.7816195 55.5
-2.3359871 -0.83469248 1.775412 58.5
-2.2035713 -0.75499386 1.7853712 67
-2.0453041 -0.8451879 1.788918 73.333336
-1.8881958 -0.83570945 1.7923088 72.5
-1.6534499 -0.87638116 1.7988688 76
-2.9142094 -0.72996974 1.7819072 5
-2.7798824 -0.6565932 1.7781183 6
-2.6431653 -0.69490612 1.7787677 68
-2.439055 -0.6564188 1.7796398 66
-2.3200963 -0.60053813 1.7730404 76
-2.1246951 -0.68690044 1.7880311 73
-1.9874082 -0.69457227 1.7925813 72.5
-1.7349039 -0.73054391 1.7985857 71
-2.605844 -0.58433169 1.7802907 39.5
-2.472266 -0.46594167 1.7852513 69
-2.1906531 -0.54675001 1.7820739 76
-2.009253 -0.52056426 1.7927189 76
-1.846168 -0.58533466 1.7937492 73.5
-1.7297481 -0.55490518 1.7929691 72
-2.5725844 -0.37187088 1.7798899 67
-2.4514196 -0.43625179 1.7751871 67
-2.353327 -0.40159988 1.7755255 69
-2.1251352 -0.42681399 1.785355 76
-1.9883893 -0.37791592 1.7939926 76
-1.8755913 -0.40878451 1.7911382 76
-1.7629393 -0.3948662 1.795216 80
-1.8967264 -0.23252773 1.7857859 73
-1.7539279 -0.23793641 1.7963188 83
-1.3569034 -0.26930633 1.7994303 82
-1.8430878 -0.066077575 1.7871826 84.5
-1.7444618 -0.088933513 1.7998587 79
-1.368685 -0.041483015 1.7986954 82
-2.6013098 0.038133107 1.778896 74
-2.4925447 0.11573778 1.7782754 82
-2.1759577 0.12926304 1.7886409 0
-1.9850991 0.12261567 1.7852014 82
-1.8583956 0.10098685 1.786301 87
-1.7722813 0.070837438 1.7944934 78
-1.3856912 0.054648556 1.7977645 81.5
-1.3115301 0.057280295 1.796666 76
-1.1378698 0.083471715 1.7972902 83.333336
-2.1984289 0.23106289 1.7044803 10
-2.0416188 0.24323225 1.7794052 60.5
-1.870666 0.27128077 1.7864417 82
-1.7573557 0.21092451 1.792666 81
-1.4076672 0.24263409 1.7929226 84.25
-1.3189416 0.21237125 1.794108 74
-1.1274967 0.25402313 1.7980794 81
-0.98248702 0.22731234 1.7979076 80.5
-2.3216553 0.40183103 1.7616034 62.5
-2.1789455 0.31735352 1.7833816 87
-2.019418 0.38148633 1.7828943 83.333336
-1.8438838 0.42478168 1.7827529 89
-1.7640876 0.37569657 1.7950979 83
-1.5242842 0.31511009 1.7990807 91
-1.4538819 0.43035495 1.7998863 71
-1.2698423 0.40296865 1.7954204 73.5
-1.1140846 0.37892723 1.7967581 78.666664
-0.94892383 0.37524071 1.7988423 71
-0.76258957 0.39749953 1.7990211 74
-2.4971924 0.50718296 1.7788821 83
-2.3406587 0.58099449 1.7809194 69
-2.1791837 0.50881869 1.7824348 81
-2.0280914 0.53114474 1.7818804 87.5
-1.8745354 0.53130013 1.7818605 68
-1.7597915 0.54216367 1.7894993 89.666664
-1.619717 0.54718643 1.7927693 91
-1.4181962 0.55446863 1.7970331 94
-1.1203047 0.51215345 1.7955108 72
-0.97521102 0.52858007 1.7975006 73.5
-0.83918774 0.5205164 1.7985473 76.25
-0.70643669 0.59229535 1.7966503 70
-2.7575033 0.66412985 1.697446 21
-2.6524692 0.64304042 1.7511717 50.5
-2.4830866 0.6593501 1.7707902 76.333336
-2.2744503 0.65108716 1.7799934 86
-2.1750433 0.70448232 1.7817446 77
-2.0142629 0.68639261 1.7861085 38.666668
-1.9018232 0.64493579 1.7809125 37
-1.7444656 0.68407655 1.7872465 63.5
-1.5496088 0.64977497 1.7959765 79
-1.4058496 0.70687395 1.7932295 80
-1.33334 0.60816801 1.7998198 88
-1.1266121 0.65456015 1.794861 74.5
-0.96297359 0.65297586 1.7970464 72.5
-0.8002162 0.67391133 1.7971469 70.666664
-0.67948937 0.64099807 1.7984045 65
-2.8764381 0.83084798 1.7646362 74
-2.7421985 0.8650279 1.7698077 79
-2.6159871 0.88970262 1.7745794 83
-2.4794946 0.85868669 1.7663124 78.5
-2.3184826 0.80977458 1.7726902 63.666668
-1.9784266 0.79101652 1.7819806 33
-1.8935614 0.82818097 1.7749414 35
-1.7445313 0.82722527 1.784184 40.666668
-1.5510633 0.80685997 1.7906623 83.5
-1.4196482 0.84081364 1.7904773 84
-1.2967317 0.7741245 1.7993386 87.5
-1.0991116 0.82341218 1.7989172 94
-1.0440242 0.75728995 1.7977165 81.5
-0.81784403 0.8343792 1.7989643 76.5
-0.68627608 0.84885085 1.795939 73
-2.8629274 0.92163771 1.7621204 75
-2.4806042 0.91168827 1.7692209 71
-2.3511791 0.99502456 1.7689574 32
-2.1620018 0.90260655 1.7766353 31
-2.0141001 0.95316875 1.7835906 31
-1.8561249 0.99007082 1.7757181 32.5
-1.699652 0.97333312 1.7860589 33.5
-1.5613122 1.0221416 1.789483 32
-1.4766421 0.93234295 1.790718 84.5
-1.3079785 0.93454587 1.7947807 74
-1.0643026 0.96540707 1.7972864 97
-0.96109521 0.99577558 1.7985528 88.5
-0.77721477 0.95446134 1.7936362 74.5
-0.72612941 0.9748556 1.7954801 73
-0.58830905 1.0473071 1.79875 67
-2.8819597 1.1284093 1.7582135 80.5
-2.7377551 1.1056097 1.7644433 73
-2.607115 1.1167697 1.7711056 32
-2.4772825 1.1031429 1.768815 31.666666
-2.2891312 1.1343017 1.7691736 32.5
-2.1443214 1.1091026 1.7740289 28
-2.0427861 1.1285834 1.7765886 29
-1.8964828 1.1267052 1.7751461 31.666666
-1.7479653 1.1065333 1.7754095 31
-1.5752393 1.1775506 1.7864583 30.5
-1.4227194 1.0802234 1.7863058 85
-1.2774949 1.0903459 1.7910496 84.75
-0.98023582 1.1428133 1.7971891 83
-2.9800789 1.2049537 1.755237 33
-2.4465411 1.324985 1.7654979 32
-2.380475 1.2484572 1.7659158 31
-2.1772718 1.3159153 1.7711781 31
-2.0166397 1.3286011 1.7739018 29
-1.8880588 1.2779832 1.7696918 31.333334
-1.7500538 1.316986 1.77426 31.333334
-1.5772336 1.3435142 1.7731339 30
-1.407532 1.2554243 1.7857505 33
-1.2864904 1.24868 1.7861589 82.25
-1.1593207 1.2353708 1.7926897 73
-0.97436523 1.2517254 1.7979158 73
-0.87758553 1.2797297 1.7978553 81.5
-3.0113492 1.4469112 1.7611989 37
-2.9238942 1.4211273 1.7511063 35.666668
-2.7336919 1.3595431 1.7646717 31
-2.5942538 1.3518425 1.7656382 30
-2.5007837 1.359651 1.7637826 34
-2.3518474 1.4525316 1.7624665 30.5
-1.8450243 1.4574854 1.7636832 30.5
-1.7499331 1.4682816 1.7680203 29
-1.4432585 1.3612812 1.7866317 30
-1.2602171 1.4315972 1.7809174 51.400002
-1.1089449 1.3912736 1.7911035 70
-0.95460111 1.3907551 1.7963551 58.333332
-0.82918954 1.4701511 1.7963783 72
-0.4555766 1.4752035 1.6590856 39
-0.3844007 1.428512 1.7155305 37.285713
-0.29480213 1.3576486 1.7544912 37
-3.1895156 1.5715966 1.7467805 32
-3.0847199 1.5268399 1.7493323 36
-2.8767679 1.6453986 1.7575225 37
-2.7159107 1.6208812 1.7557989 32
-2.5779476 1.5981623 1.760904 32
-2.4482539 1.5820528 1.7621107 31.666666
-2.2050724 1.5470779 1.767177 31
-2.0383751 1.5411036 1.7697113 29
-1.8801967 1.5316623 1.7753087 31
-1.7803972 1.5947477 1.7631681 30
-1.5839937 1.5351448 1.7762371 29
-1.3991044 1.5321438 1.7859392 27
-1.251756 1.5768101 1.7763802 51
-1.1610613 1.5661829 1.7789766 78.5
-1.0062327 1.5423942 1.7925034 72
-0.80521208 1.5913799 1.7958484 76.5
-0.67830461 1.6407561 1.7286419 37
-3.2024231 1.769498 1.7516991 35
-3.0075102 1.7184068 1.754021 35
-2.9621854 1.7357285 1.7418401 34.5
-2.3459377 1.7023213 1.7589993 31.5
-2.004854 1.7717988 1.7729044 27.5
-1.833261 1.7281522 1.7681977 31
-1.7312944 1.7297165 1.7645733 28
-1.5801876 1.7484794 1.7773374 28
-1.4377919 1.7274721 1.7812397 49
-1.2865343 1.6841677 1.7816224 68.5
-1.146982 1.7390827 1.7821649 69.25
-0.97956306 1.7141373 1.7889489 65
-0.83747149 1.7067263 1.7597835 48.75
-3.9419699 1.8848848 1.6850544 102
-3.7772169 1.9209265 1.7345797 66
-3.6089168 1.8591172 1.728624 72
-3.4734685 1.8142968 1.7407278 35
-3.4167445 1.8306383 1.7547969 37
-3.1904428 1.8877188 1.7433213 35
-3.0923193 1.8296807 1.7459251 34
-2.8571019 1.9408691 1.7466265 31
-2.7022409 1.9032098 1.7552093 33
-2.5600107 1.8607041 1.7600597 33
-2.4291043 1.8438416 1.7625273 32.666668
-2.3229311 1.9288193 1.7596701 32
-2.1755116 1.8025804 1.7706515 33
-1.7227039 1.890834 1.7654577 48
-1.2591654 1.8835007 1.7813729 70.666664
-1.1277075 1.9080222 1.719308 37.5
-0.99893832 1.8619504 1.6909573 17.5
-3.5339317 2.0454364 1.7484564 75
-3.219389 2.0933025 1.756622 32
-3.0237162 2.0535154 1.7524021 32.5
-2.951865 2.0144415 1.745653 32
-2.3741205 2.0625563 1.7575039 32.333332
-2.1348159 2.0717757 1.7723335 33
-2.0138016 2.0322797 1.7713872 29
-1.8592931 1.9810781 1.7817773 34
-1.7371807 1.9869457 1.7657045 65
-1.514871 1.9694061 1.7780417 70
-1.2618765 2.0477829 1.6940094 2.5
-1.1202431 1.9538938 1.766606 57
-3.7616749 2.1375825 1.7024972 104.5
-3.7043903 2.2069628 1.6874824 98.333336
-3.5192182 2.158416 1.7349066 71
-3.4273889 2.1734898 1.75007 73
-3.1982753 2.2357774 1.7471944 38
-3.10203 2.1595516 1.7459828 32
-2.6870301 2.208734 1.7569727 33
-2.4776652 2.158525 1.7548224 32
-2.3129251 2.2163868 1.7594842 31
-1.8520645 2.2368352 1.7700108 49
-1.7205429 2.1643488 1.7661977 61
-1.629665 2.1286314 1.7311004 110
-1.4151146 2.1584668 1.736477 30
-3.6630309 2.257158 1.7391096 102
-3.0269017 2.3447709 1.7630619 33
-2.9195104 2.3181725 1.7530953 32
-2.3476067 2.3375688 1.7597134 53
-2.01899 2.3239136 1.7677796 62
-1.6173413 2.2715123 1.7238082 56
-3.5413775 2.4525936 1.720673 98.5
-3.4404564 2.5473068 1.7460345 86
-3.2230878 2.4375682 1.7520813 67
-3.0759678 2.4778194 1.7446333 44.5
-2.6696472 2.5475984 1.7647902 28
-2.5096636 2.4478207 1.7598697 41
-2.343425 2.4734104 1.7551451 66.333336
-3.1946206 2.6071572 1.7440358 64
-3.0204115 2.6906168 1.7580513 61
-2.8400824 2.6425207 1.7599577 32
-2.3217661 2.6603937 1.7651179 75.5
-3.2334111 2.8237031 1.7550408 81
-3.0264449 2.7704568 1.7413131 58.5
-2.4772649 2.7844856 1.7633268 77
-2.3175182 2.7709451 1.7476661 60
-3.1111903 2.9147222 1.7420882 60
-2.6323373 2.9044142 1.7605282 63
-3.1720607 3.0000803 1.7305635 100
-3.0487778 3.109525 1.7184248 78.666664
-2.804965 3.0272222 1.7541984 67
-3.0204096 3.2235861 1.6894397 89
-1.2564186 -6.8550205 1.8512036 27
-1.4740103 -6.6806407 1.8512028 31
-1.0628883 -6.6704736 1.8395599 22
2.0071635 -6.6571026 1.9255512 22
-1.2395366 -6.5238981 1.8523726 30
-0.99820822 -6.4575806 1.8478035 20
-2.25246 -6.1910934 1.8535348 31
-1.3042331 -6.1963801 1.8580178 14
1.3978369 -6.014545 1.9132708 28
1.7808795 -6.1091366 1.9019383 18
-1.9795725 -5.9455924 1.8268758 29
-1.7131439 -5.8556433 1.836352 33
-1.4887075 -5.9530444 1.8470665 27
-1.3470826 -5.8828459 1.8340853 27
1.3778974 -5.8638263 1.8979765 27
1.5249325 -5.9302144 1.9180011 27
1.7095991 -5.8688865 1.9288696 28.5
1.9900496 -5.9193354 1.8891915 28
-1.4719263 -5.7927861 1.8438309 35
-1.2612098 -5.7311506 1.8512841 24
1.6096419 -5.7245364 1.8911628 26
-1.4879662 -5.6535869 1.8395871 33
-0.35596049 -5.5749044 1.8640994 12
-1.5231535 -5.4124093 1.8304909 34
-0.72966397 -5.455739 1.8444353 33
-0.5370189 -5.4093008 1.857803 14
0.90002459 -5.4623432 1.8978208 32
1.2385585 -5.4731736 1.8861517 32
1.4689022 -5.4101295 1.8804137 32
-0.37421268 -5.2986655 1.8536826 4
1.0338252 -5.3952599 1.9016355 34
1.1651313 -5.3448062 1.9065403 33
1.2729692 -5.3200197 1.9165047 35
-1.9093554 -5.1869226 1.829851 34
-1.6694448 -5.1703143 1.8349522 40.5
-1.5747352 -5.2271471 1.828833 38
-1.4719099 -5.1029854 1.8462902 42
-0.41353023 -5.1056547 1.8541695 1
0.89025623 -5.2332215 1.8867711 32
1.1280594 -5.1928272 1.8779522 33
-1.670506 -4.9882503 1.832038 37
-0.63618374 -4.9510155 1.8572448 18
0.80589491 -4.9531708 1.8790926 37
1.0348314 -4.9713516 1.875928 40
-1.0054429 -4.8932056 1.8373197 40
-0.81338143 -4.8571963 1.8444496 25
-0.63348532 -4.8383131 1.8552393 4
-0.45581809 -4.9270468 1.8467878 0
0.47914046 -4.9456043 1.8694259 27
0.62997061 -4.9478316 1.8988787 19
0.81562871 -4.8708878 1.8973856 33.5
2.3200388 -4.8856406 1.9205083 31
2.5380991 -4.9463015 1.9212784 26
2.6432402 -4.9068913 1.9256288 29.333334
2.7557864 -4.8952069 1.9184309 12
2.8546512 -4.8420148 1.8840133 18
-1.7045302 -4.7912154 1.817782 38
-0.64574909 -4.7562375 1.8547188 9
0.49544013 -4.6840553 1.8653425 45
0.72949594 -4.7378082 1.8695618 18
7.2716985 -4.7155914 1.8621868 80
-1.8197942 -4.5730629 1.8211687 48
-1.7553134 -4.635076 1.8114744 47
-1.6394935 -4.54948 1.830253 52
-0.67612541 -4.5929971 1.8445262 9
0.13361464 -4.5447078 1.8705717 43
0.27972233 -4.5017591 1.8726245 46
0.65729022 -4.5453453 1.8554312 50
2.0333948 -4.6411991 1.9105698 37
2.1504412 -4.5969801 1.9281397 24
2.3226397 -4.5856686 1.9164944 35.5
2.6466339 -4.596662 1.9137543 35
3.0093319 -4.6497922 1.815745 26
7.4043188 -4.5241179 1.943453 77
-1.8113315 -4.4058218 1.8156215 50
-1.2352313 -4.4062448 1.8325959 52
-1.0460267 -4.3851776 1.8375651 37
-0.86614859 -4.4032221 1.8508984 12.5
-0.71356905 -4.4621468 1.8394519 4
0.43159318 -4.4794025 1.8716978 49
0.53064084 -4.4411063 1.883339 51
1.7991951 -4.4613814 1.9061619 40
-1.8598403 -4.2784405 1.8166562 59
-0.86907339 -4.278141 1.849039 14
0.17878903 -4.2485838 1.8646299 47
0.36815822 -4.2639637 1.8554899 53.5
1.589332 -4.3464112 1.8969411 46
1.7232648 -4.2819347 1.8983923 45.5
1.8737187 -4.2657375 1.8998246 47
2.1882174 -4.3353047 1.909053 46
-1.9822743 -4.1039958 1.8189222 61
-1.9217801 -4.1206961 1.8210913 54.5
-1.7858899 -4.0948725 1.8295552 56
-0.93358892 -4.056931 1.8373781 9
-0.89682525 -4.1597328 1.8435026 10
-0.16268684 -4.1585197 1.8597275 28
-0.012628901 -4.1392965 1.8675226 53
0.13796642 -4.1029482 1.8636214 54.5
0.24492754 -4.0924401 1.8771683 54
1.2063346 -4.0776863 1.890222 16
1.3727468 -4.0927372 1.8957828 48
1.643805 -4.1973042 1.9026905 45
1.7774389 -4.0729871 1.8941294 49
3.3738935 -4.093821 1.8982469 2
-3.204113 -4.0093102 1.8010775 44
-1.9371723 -3.9353681 1.81542 56
-1.4280643 -3.9700739 1.8252636 57
-1.2417972 -3.9671125 1.830568 47
-1.0661403 -3.9734643 1.8393146 18
-1.0486439 -3.9617057 1.8429478 18
0.10892825 -3.9677918 1.8481151 51
1.3076953 -4.0405636 1.8953661 23
1.4342701 -3.9918506 1.894996 43
1.5190935 -3.9935684 1.8906204 48
2.8704607 -3.900321 1.9219002 38
3.4755168 -3.9341664 1.8939147 13
-1.9870782 -3.8232253 1.8111562 53
-1.0688283 -3.8122144 1.8397009 12
-0.41691768 -3.8177772 1.8568379 13
-0.26474929 -3.8065958 1.8601962 47
-0.068864904 -3.8087456 1.8628401 52.666668
0.071640089 -3.8849039 1.8514458 57
0.86259109 -3.7971618 1.8693193 57
0.99078679 -3.7599206 1.876439 52.5
1.2577852 -3.8733084 1.8837277 24
1.4236014 -3.8436918 1.889057 16
3.0428021 -3.8155422 1.9270101 34.5
3.2590761 -3.7889991 1.9215459 30
3.3668058 -3.8593316 1.9264848 30
3.6100028 -3.759738 1.8624438 8.666667
-2.632302 -3.7357204 1.8031443 1
-2.5495608 -3.6592872 1.8020152 3
-2.3195982 -3.6752417 1.8120788 55
-2.1022589 -3.6814945 1.8141555 22
-2.0324547 -3.67309 1.8123773 21.5
-1.9084071 -3.6825385 1.8221532 53
-1.2372559 -3.6155167 1.8341919 23
-1.1038122 -3.6616693 1.8435906 6
-0.11845755 -3.6979017 1.849431 50.5
0.94520396 -3.6178851 1.8869582 50
1.1295596 -3.7221203 1.8763951 53.333332
2.3894126 -3.6570947 1.9097704 45
2.6157739 -3.6449876 1.9150778 43
2.8285427 -3.6844294 1.9120308 35
2.9200001 -3.7174916 1.9167658 35
3.1832836 -3.6654792 1.9199771 35
-2.8053873 -3.5380278 1.8053843 3
-2.0328808 -3.5004985 1.8024236 48
-1.5910065 -3.5778346 1.819327 57
-1.4101224 -3.596029 1.8266162 47
-1.2080253 -3.5297017 1.8403807 9.5
-0.63593191 -3.4920988 1.8458973 10
-0.48240116 -3.499784 1.8528367 39
-0.3216964 -3.5072114 1.8553789 52
-0.18995497 -3.5372171 1.8520533 55
0.56613797 -3.5549142 1.8631881 55
0.70095789 -3.5141573 1.8811917 51.5
0.85102302 -3.506633 1.8823222 51
1.1004962 -3.5977085 1.8665148 58
2.2401032 -3.4659262 1.9061843 47
2.4901447 -3.5723724 1.9071251 43.333332
2.5736794 -3.5937436 1.9121951 41
2.7649398 -3.538733 1.9215175 12
3.2918694 -3.5053067 1.9203027 36
3.6962802 -3.5651357 1.9095596 5
-2.1842918 -3.3185177 1.8050581 30
-2.0534987 -3.3642449 1.8091601 54.5
-1.2634829 -3.3870275 1.8326721 9.5
-0.34558579 -3.3694007 1.8432139 55
0.36746547 -3.3186169 1.8639441 52
0.66032416 -3.3473201 1.8696064 51
0.83361858 -3.4262509 1.8837169 53
1.7330682 -3.3066308 1.8841003 19
2.0206344 -3.431833 1.8947802 48.5
2.1588101 -3.4175329 1.8993568 50.666668
2.3559327 -3.3689115 1.8979701 49
2.8844395 -3.4002988 1.9050847 39
-2.093224 -3.225302 1.8124152 53
-1.7331034 -3.2258325 1.8154637 26
-1.5514551 -3.2521231 1.8179802 43
-1.3845193 -3.2867496 1.8287591 20
-1.3387142 -3.1852102 1.833856 6
-0.82372379 -3.1795816 1.8281015 5
-0.67216837 -3.2081912 1.8407716 35
-0.50955188 -3.2047832 1.8417845 52
-0.39930642 -3.2178056 1.8507501 63
0.52161163 -3.2249348 1.8624755 57.666668
0.62157989 -3.2639918 1.8677672 58
1.4264084 -3.1638699 1.8739504 54
1.6152663 -3.2044475 1.8830518 52
1.7916083 -3.2760806 1.8842601 19
1.8587605 -3.2616718 1.8927689 30.666666
2.0054705 -3.2174499 1.8859714 49
2.1894631 -3.1910193 1.8923796 47
2.5231078 -3.2997751 1.8997768 47
3.5379641 -3.2383492 1.9301144 33
3.9556563 -3.2685957 1.8842067 20
-2.1315887 -3.145474 1.8112122 40
-1.3748677 -3.0825918 1.8191503 5
-0.52911425 -3.0942886 1.8349036 56
0.071747765 -3.096581 1.8499819 61
0.19976629 -3.0846715 1.8539025 60
0.37549219 -3.0549369 1.8556887 60
1.152209 -3.0310624 1.8723472 60
1.3080946 -3.0070486 1.8754512 54
1.4909443 -3.1271882 1.872502 49
1.5549978 -3.0924938 1.8798369 50
1.6894389 -3.0669544 1.8730208 49
1.8809059 -3.0750403 1.8808855 19
3.0657389 -3.1125002 1.9165813 40
3.5674188 -3.0165701 1.9267904 30
4.0156674 -3.0663004 1.9293822 20
4.530283 -3.1147103 1.9434077 3
-1.8479844 -2.889065 1.8038505 56
-1.6734947 -2.9345496 1.8093463 38
-1.5118572 -2.9872711 1.8242575 5
-0.9900319 -2.9100108 1.8249396 0
-0.83597761 -2.9387221 1.8302113 31
-0.66859275 -2.9155886 1.834836 54.333332
-0.56213647 -2.9712319 1.843027 65
-0.068021372 -2.8826542 1.8476593 59.5
0.12041219 -2.8739638 1.8502799 63
0.21842097 -2.9024031 1.857627 65.333336
0.89677674 -2.8810372 1.8595866 65
0.98182017 -2.8506446 1.8645321 54
1.2717389 -2.9480708 1.871507 52.5
1.4130355 -2.9314055 1.869963 55
1.6007658 -2.9619372 1.8734928 52
2.2857113 -2.8563833 1.8965777 45
2.656368 -2.9898062 1.9098564 44
2.7738771 -2.8666229 1.9109083 39
3.1503985 -2.945636 1.9178895 36
3.8803842 -2.8637917 1.9431807 33
-1.6266395 -2.7162607 1.8239988 4
-0.98410136 -2.703424 1.8327421 30
-0.83655578 -2.7295258 1.8313242 48
-0.70392728 -2.8022633 1.8323847 58
0.03744505 -2.7364583 1.8597473 65
0.16410647 -2.8333426 1.84769 62
0.6684522 -2.7410657 1.8563777 65
0.76055056 -2.7105427 1.8592674 55
1.0120034 -2.770299 1.8665049 55
1.1098484 -2.7881877 1.8647496 58.5
1.3437328 -2.8452103 1.8658761 53
1.9558227 -2.7209289 1.8831528 50
2.4277222 -2.775398 1.9011248 46
2.8684537 -2.7293649 1.9025329 40
3.0616057 -2.7481768 1.9247378 28
3.207655 -2.7670867 1.9079581 39
3.4293962 -2.7771077 1.9229938 37
3.5732071 -2.7937727 1.9154242 33
3.8735926 -2.8140209 1.9383138 35
3.9761364 -2.8095279 1.9276563 31
4.2802219 -2.796869 1.9021906 0.33333334
-2.5788114 -2.593538 1.8003317 56
-1.7843066 -2.6504078 1.8083597 31
-1.1335514 -2.6506686 1.8187121 4
-0.82081282 -2.6255801 1.8299888 52.75
-0.31863117 -2.6810839 1.8426105 57
-0.18250769 -2.6879804 1.845842 61
-0.029667109 -2.6678607 1.8477751 63.666668
0.035717826 -2.687191 1.8547945 63.5
0.5093745 -2.5881715 1.8568023 59
0.65169185 -2.5502603 1.8612891 60
0.82890743 -2.6305151 1.8625239 60.5
0.91971743 -2.662401 1.8621312 60
1.6699361 -2.5940106 1.8777548 51
1.8275416 -2.5721662 1.8771838 42
2.1206162 -2.6841497 1.8958858 18
2.3196211 -2.6012917 1.8940483 40
2.616483 -2.5978708 1.9002223 43.75
2.7088864 -2.6740785 1.9163767 43
2.9232638 -2.5830939 1.9117262 42
3.0340705 -2.6918828 1.9154042 40
3.2418623 -2.6004248 1.9199184 39
3.5170388 -2.5552025 1.9210434 34.5
3.6024735 -2.6437516 1.9327236 32
3.8621719 -2.5532835 1.9304751 30
4.0096669 -2.6553926 1.9490548 30
4.3802023 -2.6107042 1.9339453 0
-2.2650526 -2.4465058 1.8019125 45.5
-1.1114756 -2.4656441 1.8234838 11
-0.93212938 -2.446089 1.827716 55
-0.8325454 -2.530247 1.8300785 59
-0.48199895 -2.4838476 1.8397328 60
-0.34361044 -2.5026386 1.8444451 57
-0.19069214 -2.4928839 1.8459014 64.333336
-0.12455899 -2.511054 1.8512524 65.333336
0.26729548 -2.4547293 1.8482062 66
0.37487298 -2.4337745 1.8513595 56
0.5231483 -2.4217463 1.8590529 60.5
0.68824565 -2.5122197 1.8618462 60.25
1.4112437 -2.4631929 1.8673865 60
1.5738971 -2.473928 1.8719777 49
1.7296886 -2.4693949 1.8667332 45
1.8591669 -2.4287193 1.8788511 49.5
2.0414147 -2.4788296 1.8875482 47.25
2.1808317 -2.4450102 1.8883816 47.666668
2.3478262 -2.5196607 1.8969835 48.333332
2.4799054 -2.4452002 1.9001079 43
2.6978292 -2.4093676 1.8992339 40
2.7929058 -2.4909472 1.9066398 41.5
2.9808102 -2.4000478 1.9135915 41
3.1144967 -2.5178044 1.9190103 39.5
3.4024556 -2.4886894 1.9203175 25
3.7314751 -2.4618278 1.925614 29
3.8708823 -2.5303781 1.9220794 29
4.0943642 -2.4259129 1.9414634 30
4.2509198 -2.5172682 1.9399397 25
-2.2719855 -2.2740383 1.807644 18
-2.0491464 -2.3130186 1.8030273 26
-1.8913596 -2.3997881 1.8219594 7
-1.2569524 -2.3999155 1.8064948 1
-1.0785862 -2.2945206 1.81873 26
-0.96228868 -2.3653131 1.820803 58.666668
-0.62623942 -2.2872272 1.8297552 63
-0.4878346 -2.3130646 1.8324229 58
-0.33587894 -2.3168755 1.836671 67.666664
-0.26795202 -2.3249142 1.8428785 67.333336
0.093096241 -2.3064919 1.8393403 63
0.20805116 -2.2962408 1.8466052 60
0.373981 -2.2816024 1.8540064 64.333336
0.5365628 -2.3957124 1.8576889 60
1.1380502 -2.2772136 1.8674747 57
1.2735527 -2.3381569 1.8721418 44.5
1.4617069 -2.3171213 1.8649241 56
1.5464004 -2.3084633 1.8739218 53
1.7332863 -2.3405669 1.8772286 48.666668
1.9075507 -2.3140726 1.8782995 46
1.96805 -2.3603418 1.8845705 45.5
2.1694059 -2.3437233 1.8885068 43.5
2.3667574 -2.3268924 1.8884817 40
2.6287923 -2.3475759 1.893844 45
2.9117365 -2.3605072 1.903597 43
3.2470226 -2.3703742 1.9231848 17.5
3.5210927 -2.3209314 1.9152976 26
3.8321636 -2.2990782 1.9202634 28
4.1839285 -2.2523463 1.9356743 29
4.4671717 -2.3695385 1.9241191 17
-2.414093 -2.1513457 1.8050617 8
-2.3328805 -2.1813555 1.8060958 16
-1.377175 -2.1893914 1.8212205 28
-1.2252413 -2.2444057 1.8184689 33
-1.0719023 -2.1679878 1.8201238 31.666666
-1.0199316 -2.1986387 1.8247393 25
-0.75591481 -2.1000803 1.8241113 62
-0.61691493 -2.1388373 1.829336 58
-0.47778875 -2.1596437 1.8335589 69
-0.40643367 -2.1510968 1.8386432 65.25
-0.063401371 -2.1675682 1.8398989 67
0.055386018 -2.1612945 1.8437794 61
0.22061048 -2.1471543 1.8481985 66.666664
0.85986781 -2.1263907 1.8634928 62
0.9520064 -2.1881692 1.8666657 58.666668
1.1175296 -2.1799669 1.8680836 54.833332
1.3095766 -2.1875768 1.8721434 52.75
1.4053669 -2.1842117 1.8722757 53.5
1.5617483 -2.1771841 1.868453 51.5
1.6613467 -2.2015984 1.8671046 49
1.8273537 -2.201544 1.8725818 45
2.0460613 -2.2245178 1.879614 47
2.2730525 -2.2367926 1.8878819 33
2.5121524 -2.241075 1.8976279 43
2.747654 -2.2237887 1.8997473 41
2.9914427 -2.1958058 1.9031037 41
3.2559328 -2.1622403 1.9162394 20
3.8199112 -2.235945 1.9219013 31
4.1372676 -2.1604662 1.942124 20
4.5405116 -2.1793087 1.946236 13
4.6738749 -2.2037759 1.8903357 1
-1.7222729 -2.0691891 1.812138 4
-1.4715197 -1.9616801 1.8098112 41
-1.2663187 -2.0086331 1.8147764 56
-1.1408143 -2.007195 1.8183982 61.799999
-0.73079371 -1.9653094 1.8204042 56
-0.54542965 -1.9905304 1.8310204 66.166664
-0.20700628 -2.0215025 1.8310446 67
-0.083321214 -2.0240791 1.8369361 67
0.082677029 -2.0168025 1.8433895 72.333336
0.56496793 -1.9756635 1.853024 62
0.68711716 -2.0292437 1.8585169 62.400002
0.82103205 -1.9970917 1.8601196 59
0.96765286 -2.0150917 1.8676447 60.666668
1.1101583 -2.0463622 1.8678339 55.75
1.2566285 -2.0965862 1.8688301 53.5
3.4983611 -2.0994191 1.9131535 32
3.7618663 -2.030678 1.9203445 31
4.3920546 -2.0357561 1.9317867 13
-1.8220791 -1.8193833 1.8046018 16
-1.7433136 -1.8733711 1.8136193 28
-1.415145 -1.8346399 1.8114687 66
-1.2408657 -1.8588707 1.8192796 67.5
-1.1782057 -1.8031549 1.8180448 64
-0.85452884 -1.8648267 1.8242347 25
-0.67625666 -1.8348525 1.8300515 32.75
-0.57485038 -1.8843207 1.8311568 69
-0.33658054 -1.8828436 1.8314449 76
-0.20869978 -1.8953325 1.8363281 72
-0.053596307 -1.8946291 1.8436272 74.199997
0.014880282 -1.8911512 1.8459903 75
0.27823299 -1.8185487 1.845749 70
0.41453937 -1.9249439 1.8870313 22
0.50502831 -1.8726082 1.8762736 39.833332
0.66732836 -1.883147 1.8579371 66.400002
0.79805142 -1.8821551 1.8615295 60.333332
4.0200577 -1.9423828 1.9246 27
4.2038264 -1.8077381 1.8918084 18
-1.916911 -1.7899554 1.8204707 16
-1.7905974 -1.6540612 1.8054043 57
-1.5589619 -1.7524781 1.8091129 60
-1.3572839 -1.726567 1.8131026 67
-1.2550994 -1.7932242 1.8135992 68.333336
-0.9745335 -1.7455382 1.8155257 76
-0.78543967 -1.6867968 1.8210033 68.333336
-0.66805744 -1.7319636 1.8276348 42
-0.45430273 -1.7381465 1.8207177 84
-0.32175609 -1.721383 1.8311738 82
-0.19146851 -1.7483015 1.8331318 77.25
-0.11998896 -1.7513232 1.8382252 76.333336
0.127775 -1.7115051 1.8392884 79
0.21808374 -1.6940386 1.8459044 72.400002
0.35410473 -1.7426966 1.852089 69.625
0.51726526 -1.7201246 1.8566774 68.599998
0.66900682 -1.7881169 1.8597218 67
-1.8660948 -1.6117971 1.8024912 56
-1.6347914 -1.5479546 1.8061808 62
-1.4331017 -1.5983995 1.8071384 70
-1.2843474 -1.617539 1.8106467 78.5
-1.0678254 -1.5791155 1.8188409 68
-0.92894745 -1.6439872 1.8194326 67
-0.85599083 -1.535188 1.8243114 78.25
-0.72567391 -1.6226538 1.8282095 57.5
-0.54129183 -1.5566392 1.8288794 32
-0.37652031 -1.5683274 1.8285223 80
-0.25662798 -1.6070459 1.8345429 77.25
-0.065844938 -1.5401392 1.8375916 82.75
0.081245907 -1.576023 1.8427426 78
0.23012428 -1.5682611 1.8462753 73.666664
0.37451202 -1.5806283 1.8517838 76.5
-1.9539794 -1.3898153 1.8029927 59
-1.8357403 -1.4524722 1.8051897 58
-1.7021171 -1.3511001 1.8054184 66
-1.5684135 -1.4575093 1.8116246 64
-1.426312 -1.4266247 1.8086493 70.5
-1.3220936 -1.4467905 1.8127182 76
-1.1486034 -1.4125524 1.815565 78
-0.96682549 -1.4217199 1.8217061 75
-0.82701701 -1.4451772 1.828505 80.333336
-0.63230026 -1.4245297 1.8268436 75.5
-0.48625621 -1.4267964 1.8294078 33.333332
-0.37229085 -1.415202 1.8352861 43
-0.19234686 -1.404518 1.8359551 78.333336
-0.074658364 -1.413187 1.8415943 72.166664
0.070950642 -1.4365537 1.8446531 76.571426
0.20665896 -1.4352248 1.8485875 81.5
-2.5580547 -1.2284396 1.8082637 41
-1.9038303 -1.2462966 1.8051556 63
-1.5645989 -1.244898 1.8031545 68.333336
-1.4080477 -1.2823927 1.810003 69.5
-1.2202652 -1.2486054 1.8138727 78
-1.0865817 -1.3346424 1.815061 80
-0.97826773 -1.2371558 1.823903 79
-0.85411006 -1.2973127 1.8293886 80.666664
-0.67765075 -1.2830087 1.8270406 86.25
-0.51196146 -1.2660625 1.8295968 80
-0.37437528 -1.2639281 1.8385012 32.400002
-0.22773409 -1.2775621 1.8348225 56.714287
-0.07652726 -1.2862184 1.8423268 68.599998
0.063519083 -1.2975662 1.8455492 74.75
-2.6054392 -1.1549096 1.8041853 50
-1.5366734 -1.0957096 1.8047681 70
-1.4441389 -1.1276135 1.8110555 73.333336
-1.2843866 -1.089376 1.8147699 73
-1.1028113 -1.1354071 1.8213331 80.75
-0.99150783 -1.0852761 1.8287425 83.666664
-0.79836351 -1.0962604 1.8252429 90.333336
-0.6542291 -1.1293218 1.8295646 87.5
-0.54052222 -1.1250498 1.8306842 80
-0.37840852 -1.1152989 1.828681 47
-0.20910004 -1.1334746 1.8328923 18.428572
-0.068821855 -1.1478627 1.8417388 65.5
-2.598248 -1.0138875 1.8031176 44
-1.578801 -0.97354972 1.8048474 73.75
-1.4647362 -0.96144211 1.8126482 71.5
-1.2760038 -0.98306179 1.8137811 76
-1.1230057 -0.97410464 1.8209149 87.25
-0.99805194 -0.94344276 1.8232464 88.666664
-0.81510878 -0.98783708 1.817284 87.5
-0.6787563 -0.96676272 1.8222824 74.666664
-0.53191996 -0.9747076 1.8211789 60.625
-0.36689788 -0.9827323 1.8231981 46.57143
-0.24584366 -0.96954244 1.8292255 27.666666
-0.14371866 -0.98677343 1.8371342 14
-1.6654674 -0.75380296 1.8067287 72
-1.566707 -0.80946821 1.8081427 71.666664
-1.4307548 -0.79317003 1.8145276 77.5
-1.2456667 -0.86135399 1.8184632 85
-1.1376995 -0.8382228 1.8199899 90.5
-0.98440713 -0.78546268 1.8158092 81.666664
-0.83199382 -0.8526299 1.8130839 82.25
-0.67108649 -0.82358795 1.8194512 76.875
-0.52298135 -0.81916976 1.8219043 66.833336
-0.38740197 -0.82112527 1.8221501 58.75
-0.24861723 -0.82061726 1.827993 51
-1.576399 -0.65696329 1.8082246 72.75
-1.4287846 -0.61833102 1.8150967 77
-1.2576127 -0.71794248 1.828642 52.5
-1.1211389 -0.69793177 1.8250705 51.666668
-0.97231066 -0.66139525 1.8119676 82
-0.80985981 -0.66582161 1.8135115 84.111115
-0.67557216 -0.68123132 1.8154931 81
-0.54676539 -0.67521995 1.820111 81.85714
-0.41980585 -0.668612 1.8188589 73.400002
-0.29390413 -0.7380833 1.819738 55
-1.6710366 -0.5314725 1.8037105 75
-1.5528246 -0.50916815 1.810761 72.5
-1.4207742 -0.45708275 1.8101282 81.5
-1.2736305 -0.54915512 1.8061469 69.199997
-1.1306584 -0.55829585 1.8097644 71
-0.95725727 -0.50091785 1.8079777 80
-0.80479825 -0.51377052 1.8131058 82.599998
-0.67462605 -0.53174984 1.8151517 80.333336
-0.51640069 -0.54575598 1.8195547 77.800003
-0.38813397 -0.54278636 1.8242017 73
-1.6992911 -0.37372532 1.8025149 78.666664
-1.5727991 -0.36210829 1.8114916 85.5
-1.4469581 -0.30729321 1.808525 89.5
-1.2797874 -0.37471715 1.804854 74.5
-1.1382563 -0.39903277 1.8135706 73.75
-0.9873848 -0.38348007 1.806893 79.5
-0.81774163 -0.3602182 1.8117298 78.083336
-0.67706382 -0.39508647 1.815196 76.875
-0.54626632 -0.37059498 1.8200046 74.333336
-0.43441159 -0.42505333 1.8208874 73
-1.7559696 -0.25565431 1.8020219 80
-1.5578071 -0.19459505 1.8064972 92.666664
-1.3901832 -0.17011826 1.803525 89.5
-1.2693664 -0.21419664 1.8066351 78.25
-1.1142954 -0.23883493 1.806163 78.333336
-0.96134943 -0.21371599 1.8091798 78.625
-0.83669126 -0.23771048 1.8124348 77.5
-0.67644668 -0.22664097 1.8161305 73.555557
-0.55673516 -0.22492529 1.8188009 71.166664
-1.7331398 -0.11932981 1.8008549 83
-1.5937188 -0.071917698 1.8044835 85
-1.4098527 -0.071934678 1.8025234 92.5
-1.280128 -0.057522476 1.8036488 80
-1.1059121 -0.084303848 1.8049983 81.166664
-0.9434427 -0.055529356 1.808823 82.375
-0.81810063 -0.068112537 1.8118509 69.07692
-0.67754257 -0.083221734 1.8152767 72.5
-0.55183601 -0.072659276 1.8163218 77.666664
-1.7049572 0.0063780635 1.8018149 90
-1.5719713 0.04845592 1.8045191 90
-1.4510614 0.13022077 1.8008314 94
-1.2788882 0.078681953 1.804118 81.5
-1.1334724 0.073899701 1.8074813 79
-0.9450776 0.086345464 1.8079687 68.777779
-0.82472962 0.079476669 1.810711 76.5
-0.66702479 0.072815381 1.8129003 78.888885
-0.54892337 0.084536612 1.8120064 87
-1.5757599 0.19726445 1.8051811 90.666664
-1.2410893 0.18203691 1.8021482 82
-1.1425486 0.21909924 1.8056139 76
-0.94428009 0.22756568 1.8072201 81
-0.82325131 0.2322243 1.8074474 78.625
-0.6771639 0.23066667 1.8091899 76.25
-0.55846798 0.24785939 1.8094265 68.5
-1.5955015 0.36202216 1.8014804 86
-1.3961092 0.38114181 1.8028239 68
-1.2863162 0.31779939 1.8034502 55.5
-1.1535305 0.38484007 1.8077186 78
-0.9714275 0.36336756 1.8047726 79.14286
-0.82635504 0.37713674 1.8066522 76.833336
-0.66693407 0.3814356 1.8099499 61.625
-0.55926031 0.37396556 1.815508 56
-1.5366324 0.47260541 1.8045335 58.5
-1.3966327 0.45003775 1.8050133 95
-1.2872509 0.51401466 1.802132 91
-1.0893213 0.49660286 1.8052803 80
-0.93424463 0.49499294 1.8011665 79.666664
-0.82596219 0.52587569 1.8044873 77.5
-0.67214787 0.51835865 1.8058382 76.800003
-0.56288916 0.51074988 1.8124871 57.666668
-1.3836347 0.60029376 1.8030478 99
-1.2905731 0.65083939 1.8005933 88
-1.0894713 0.68480861 1.8048211 88
-0.94843107 0.69997823 1.8005078 69
-0.8204214 0.67056376 1.8024704 75.75
-0.66131586 0.68605256 1.8043491 72.5
-0.544765 0.66868776 1.8043571 76.75
-1.3635298 0.75205749 1.8013543 78
-1.1294665 0.84767115 1.8035239 90
-0.97272855 0.85587102 1.8089823 71.599998
-0.80921888 0.82905525 1.8030603 76
-0.69112444 0.80411386 1.803854 74.833336
-0.53833789 0.84823436 1.809563 71
-1.0995679 0.9770577 1.8015504 85.5
-0.94704348 0.96869779 1.8061357 89
-0.84166086 0.99777263 1.809067 83.75
-0.65750104 0.96469176 1.8066075 79.5
-0.52008021 0.97589684 1.808218 65
-0.43745226 1.0194123 1.8057371 58
-1.1135368 1.1034565 1.8023223 76
-0.95148879 1.12859 1.804029 81
-0.84022909 1.1571882 1.8098903 81.5
-0.67699778 1.1158255 1.8116757 81.25
-0.52838087 1.1295174 1.8137553 56.599998
-0.41218653 1.1369551 1.8214127 66.333336
-1.0719934 1.2457489 1.8023478 56
-0.81900477 1.3006713 1.8082123 69.333336
-0.64382619 1.2639723 1.8134905 70.571426
-0.50838399 1.2629112 1.812363 77.75
-0.36574602 1.3038379 1.8148794 75
-0.79227543 1.4277314 1.8019401 71.666664
-0.67782068 1.4121681 1.8102994 67
-0.51525986 1.431689 1.8124096 74.14286
-0.42831632 1.3871473 1.8128252 74.333336
-0.81887436 1.5306494 1.8020083 73
-0.69121927 1.5875053 1.8040648 73.666664
-0.57243174 1.5217372 1.8092755 74
-1.4383194 1.9775183 1.8176912 28
0.78237981 2.675951 1.8048362 0
6.916862 -4.7126079 2.0649121 3
6.5688715 -4.4604201 2.0731666 19
7.3138742 -4.45259 2.0167484 35
7.0115309 -4.2567863 1.9899012 16
6.2515111 -4.1927567 2.0839081 22
6.2585015 -4.011353 2.0817335 25
6.6738434 -3.9976351 2.0131342 19
6.6819921 -3.850491 1.993035 22
5.5813603 -3.6883996 2.0613413 31
6.086864 -3.5891573 1.9718465 24
5.3611169 -3.2913799 2.068418 30
5.7636189 -3.1613994 1.9896482 1
5.1048517 -3.0400009 2.0631928 28
5.0237637 -2.9342494 2.0182316 30
4.8831849 -2.7913203 1.9578263 28
5.4542713 -2.8070028 1.9824709 1
4.8459301 -2.5804257 1.9528686 30
4.7403812 -2.5184031 1.9635559 12
4.9669013 -2.3518453 1.9623278 1
