# .PCD v0.7 - Point Cloud Data file format
VERSION 0.7
FIELDS x y z intensity
SIZE 4 4 4 4
TYPE F F F F
COUNT 1 1 1 1
WIDTH 1491
HEIGHT 1
VIEWPOINT 0 0 0 1 0 0 0
POINTS 1491
DATA ascii
1.5618343 -2.369231 -0.19818778 133
1.582903 -2.2094715 -0.19574541 55
1.6142653 -2.0770977 -0.19185106 70
1.6759241 -1.9895858 -0.17648296 50
4.3446527 -1.7619863 -0.17241651 40
2.144141 -1.5663724 -0.17370503 88
1.6240858 -1.4813752 -0.17005111 5
-0.020355809 -1.0642612 -0.15014032 8
0.079815619 -1.0700207 -0.17332408 3.5
0.18905608 -1.1090174 -0.18188125 7.6666665
7.521347 -1.1174251 -0.16778584 82
-0.51087457 -0.92595738 -0.17299877 16.666666
-0.39604825 -0.95599592 -0.17630416 17.818182
-0.22605464 -0.9984889 -0.17263347 14.5
-0.081228077 -1.0327018 -0.17657171 14
7.5543838 -1.0175068 -0.15410516 39
2.7170622 -0.27072144 -0.19929221 1
2.4957862 0.052106183 -0.16678132 25
2.8842385 0.23408604 -0.15871765 26
2.1516337 0.41632998 -0.16956492 36
2.4657857 0.33732158 -0.17225698 28.5
-0.51695091 0.58172917 -0.16915387 2.3333333
-0.37482214 0.5320791 -0.16761488 7.5999999
-0.24482837 0.56792217 -0.16929659 9
1.4469515 0.58054137 -0.18075323 39.5
1.6284205 0.54001492 -0.18183771 37
1.6558546 0.52852964 -0.1712199 39
1.8753252 0.47777671 -0.16648301 37
-0.63402939 0.67322153 -0.17562602 3
-0.56367511 0.62239623 -0.17726128 7.5
0.83619326 0.73674154 -0.18487243 9.666667
0.98370957 0.69577789 -0.17360945 36.666668
1.1425014 0.65544939 -0.17749505 47.5
1.290953 0.62369031 -0.1804065 43.5
0.25493437 0.88205338 -0.16708267 11.25
0.38065147 0.84792948 -0.18405604 11.666667
0.55806816 0.8141858 -0.16770351 11.333333
0.66621828 0.78625697 -0.17443006 10.571428
0.76737064 0.75872391 -0.185983 9
-0.017077345 0.95977181 -0.17063326 15
0.084673889 0.93610907 -0.16780815 22.5
0.1757632 0.91488361 -0.18312639 16.25
2.0027828 -3.0066092 -0.019022828 0
2.0413384 -2.8141439 -0.029890662 0
1.7987432 -2.3390479 -0.063768454 33
1.6471093 -1.9718646 -0.090044595 19
1.6694299 -1.9770715 -0.11664224 56
4.2815638 -2.0142157 -0.075317778 37
1.6273426 -1.663509 -0.079398133 17
7.9902124 -1.6819487 -0.037932757 7
1.6189026 -1.5550219 -0.057331298 2
2.0023367 -1.5645212 -0.062634863 7
8.0250635 -1.5584222 -0.044162963 7
1.6864337 -1.4373169 -0.055178225 13
2.1560552 -1.4858299 -0.12682498 76
4.4239364 -1.4580976 -0.022957897 38
-0.30788356 -1.2084017 -0.0013850975 0
0.17247258 -1.2018021 -0.02091909 1
1.8343253 -1.2298366 -0.10630233 19
1.9876568 -1.238107 -0.10530571 15
2.3576274 -1.3496517 -0.12236822 9
4.4592919 -1.2694504 -0.085101672 39
-0.031450722 -1.0586363 -0.11292351 9
0.10272024 -1.0870942 -0.13399448 7.6666665
0.28536737 -1.129777 -0.11210658 7.5
4.4588099 -1.1862411 -0.10327426 19
-0.61636722 -0.90302485 -0.10440599 13
-0.52691001 -0.92232543 -0.12080462 16.549999
-0.36255214 -0.96345925 -0.11456717 15.545455
-0.25419956 -0.9926526 -0.12599561 14
-0.091252647 -1.0294287 -0.10930153 10.4
-0.65401751 -0.88979703 -0.10022687 14.166667
2.4341602 -0.15893047 -0.027981227 37
2.6323919 -0.26995748 -0.076123632 65.666664
2.4318581 -0.092687406 -0.076983087 63.5
2.5746179 -0.093188405 -0.074308202 48.5
2.5007608 0.032788556 -0.077073693 56
2.8208675 0.24801728 -0.0042451965 27
2.9824288 0.212194 -0.12192447 28
3.0313635 0.1948795 -0.021190736 25
-0.48074967 0.42467389 -0.02817749 3.8
-0.42560944 0.43881872 -0.047316376 4.1666665
-0.21627229 0.34388271 -0.0068658637 1.5
2.0232995 0.43875924 -0.084309824 29
2.2035582 0.40228009 -0.098139308 33.666668
2.3675556 0.35566872 -0.053462449 27
2.5490301 0.31384948 -0.091902502 29
2.5780761 0.30893821 -0.051211763 28
-0.6683796 0.57243294 -0.045350913 8.5
-0.52953506 0.56486654 -0.077669442 4.0588236
-0.36602381 0.51591545 -0.08716315 6.4545455
-0.24943808 0.55175894 -0.071846135 6.625
1.4503771 0.58369112 -0.057432294 42.75
1.5543388 0.55645347 -0.088146955 42
1.7027326 0.5174042 -0.069404475 38.75
1.9135256 0.46909079 -0.077759176 35.333332
-0.63189572 0.61456978 -0.095877409 7.1111112
-0.57760549 0.63496047 -0.12047681 6.6666665
0.84989285 0.73222637 -0.063557871 9.454545
0.98284215 0.69925946 -0.066575341 22.299999
1.1176701 0.66434491 -0.059848323 46.666668
1.2623583 0.63053572 -0.062676445 48.125
1.3594681 0.60635155 -0.079185814 43
0.2351082 0.87811518 -0.049863547 13
0.37231961 0.84887356 -0.081290223 10.941176
0.520473 0.81908369 -0.082960904 10.588235
0.67132366 0.77984327 -0.067901872 9.8461542
0.76356667 0.7564258 -0.040469535 9.333333
-0.011028397 0.93131596 -0.052028157 11
0.07161209 0.93540019 -0.083755992 13.3125
0.18981424 0.91080368 -0.079196759 13.428572
-1.0557059 1.1991332 -0.054856632 10
-0.94276685 1.17443 -0.044573758 9
-0.87007952 1.1525972 -0.05636004 13
1.9813156 -3.0558395 0.11135908 0
1.3766378 -2.7109444 0.05698755 6
2.0849605 -2.7389047 0.11223065 5
2.0939403 -2.6914284 0.087896638 1
2.1882329 -2.5569184 0.0088335974 40.5
1.4088198 -2.5154526 0.028627211 4
1.8033123 -2.3448617 0.0071425391 24
4.2510705 -2.1348364 0.12277251 33
4.3258171 -1.8467975 0.12568083 36.5
1.5678611 -1.7427851 0.057485085 6.3333335
2.3768454 -1.7129228 0.03426021 7
4.3547983 -1.7173438 0.066247545 37
-0.062265951 -1.5039569 0.050137307 22
1.5859689 -1.6219652 0.1389268 15
2.372896 -1.6260227 0.069291629 4.6666665
2.5195496 -1.5268757 0.089237146 10
4.3964286 -1.5454875 0.0080059422 36
-1.052529 -1.4836339 0.13627797 2
-1.0355593 -1.3858808 0.14466858 2
-0.063361011 -1.4275273 0.052688625 3.5
0.0095752599 -1.3733864 0.052576985 3
1.6072575 -1.4467556 0.1072564 10.4
1.676113 -1.40705 0.041037511 9
2.5751023 -1.4377604 0.09113124 5.5
4.4156051 -1.4670854 0.11420511 37
-0.31516537 -1.2393466 0.13731557 2
-0.17775828 -1.2821819 0.054636363 2.3333333
-0.12711202 -1.2611936 0.050357297 2
0.17576091 -1.229148 0.023906345 6
1.6755308 -1.3440759 0.088146411 0
4.4736943 -1.2137955 0.056944527 25.5
-0.94030529 -1.1260139 0.080221444 0
-0.10119633 -1.1663057 0.034737196 1
7.5307183 -1.0822754 0.096411325 72.5
-0.99944079 -0.16225518 0.1284425 4.75
2.6781173 -0.2490007 0.030209774 20
-0.9868567 -0.075693592 0.092459165 1.25
2.4520063 -0.090691842 0.082133539 40.666668
-0.99353409 0.023897042 0.084694512 0
2.6839941 0.022383852 0.11468741 87
2.6007869 0.29953966 0.064085983 26
2.8843219 0.16478449 0.11141985 84
3.0817313 0.18469019 0.0038010729 26
-0.47822365 0.39378896 0.061132591 2.8333333
-0.37532738 0.39925727 0.10652743 3.1875
-0.26736113 0.39331225 0.089122206 2.6363637
2.0164461 0.44582796 0.097032286 29.5
2.2015915 0.40101385 0.042516377 30.333334
2.2998028 0.37741804 0.10791101 28.5
2.5306096 0.31689021 0.13428158 25
2.5516148 0.3126511 0.083569936 24
-0.64116687 0.57819813 0.056991488 7.0833335
-0.56024897 0.54882091 0.044591773 6.2857141
-0.3492845 0.48666894 0.074273549 4.3428574
-0.26843739 0.51221633 0.059586581 5.4285712
1.4275044 0.58769137 0.065289222 40.166668
1.5877959 0.54595143 0.073895149 37.42857
1.7563407 0.50653428 0.061889496 37
1.8662108 0.47913268 0.079415947 33.25
1.9826157 0.45206279 0.043760624 31
0.84084684 0.73421133 0.0685656 9
0.96876734 0.70324188 0.061433256 22.363636
1.1224728 0.66410279 0.079926811 44.636364
1.2805346 0.62525105 0.076492898 43.166668
0.13654839 0.89603591 0.053325083 11
0.2511588 0.88594878 0.08315815 9.5714283
0.38223282 0.85313749 0.081123292 9
0.52850437 0.81594485 0.081046522 8.652174
0.67229712 0.77844822 0.065190651 8.7619047
0.78022051 0.75194299 0.069663323 9
-0.020282898 0.94633323 0.077875219 10.5
0.073214926 0.92486233 0.069214769 11.210526
0.16566305 0.90852946 0.061985996 10
-1.0516416 1.1932801 0.048766728 10
-0.9852469 1.1834317 0.024034092 8.5
-1.3609023 1.2727587 0.083435528 55.5
-1.3267096 1.2644094 0.10736214 53.5
-1.139993 1.2240162 0.091915756 9.333333
-1.0212823 1.2006601 0.093144827 8
4.2586212 -2.1359866 0.2182793 28
-0.52172852 -2.0754046 0.27252728 44
4.268744 -2.0090411 0.22918873 25
2.3793685 -1.8137726 0.29932266 0
4.3259816 -1.8559638 0.22976798 32
2.429904 -1.7030616 0.22731401 4.6666665
4.3473082 -1.7266355 0.22605664 34
-0.39631507 -1.5751449 0.16712075 0
1.5929633 -1.5558931 0.22890081 11.833333
2.4769514 -1.5840489 0.23313096 5.1999998
8.0186062 -1.61535 0.2277365 71
1.6065265 -1.4531561 0.20937508 3
1.652933 -1.392241 0.17491537 2
2.5738716 -1.4263066 0.20221646 3.6666667
4.4161124 -1.4712191 0.19438016 32
-1.1477604 -1.214358 0.26607585 0
-1.0400804 -1.2521704 0.29161042 1
-0.32437441 -1.2214247 0.15004957 1
4.4805241 -1.2143788 0.16887021 23
-1.1047213 -1.1993487 0.24823254 1
4.4638867 -1.1774147 0.25560036 12.5
2.7448916 -0.30954212 0.22402179 39.5
2.915863 -0.37193045 0.27969509 15
-1.1218219 -0.24006236 0.23583303 0
-1.0339239 -0.15430051 0.18805963 0
2.4542518 -0.18030205 0.15985566 24
2.720186 -0.28868929 0.2260534 33.666668
-1.1762828 -0.067191973 0.25838459 0
2.4717407 -0.07913927 0.2152922 18.571428
2.554322 -0.041798003 0.22511169 16
-1.2336004 0.065784633 0.27248612 0
-1.1298635 0.066125587 0.21524875 2.3571429
2.61936 0.085626788 0.24816133 43
2.7317238 0.12122215 0.16751635 31
-0.40810731 0.29370436 0.23762555 4
2.6616933 0.28809559 0.23939222 24.5
2.7080421 0.27926481 0.1938231 26
3.057229 0.1892838 0.22215177 24
-0.60289025 0.41964 0.19576126 2
-0.51212305 0.4051801 0.2328461 5.125
-0.38649359 0.3611109 0.1975863 4.2444444
2.0299826 0.44297236 0.22112353 30.75
2.1236002 0.4228735 0.22248474 30
2.3391545 0.36741528 0.21106486 26
2.4054368 0.34920865 0.24246019 21
-0.63191384 0.53754324 0.20622009 8.916667
-0.50974792 0.48699945 0.2018711 6.625
-0.36955401 0.46868709 0.18369067 4
1.4433204 0.58114159 0.21154638 37
1.6071194 0.54191387 0.222709 36
1.7539185 0.50798994 0.20696883 34.666668
1.8902183 0.47451726 0.20279318 31
-0.63393807 0.60871118 0.22823887 11.333333
-0.59240729 0.60559171 0.19090497 10
-0.24544112 0.6721285 0.2658976 0
0.9995904 0.69188654 0.18644884 45
1.1303531 0.66007382 0.20772916 44.333332
1.2907052 0.61983633 0.2053995 38.5
0.24344568 0.88481337 0.23788205 8.3999996
0.36558509 0.85391927 0.19842546 7.9523811
0.50560218 0.81766534 0.17226684 7.625
0.63505596 0.7870872 0.15947998 8
-0.15435052 0.98588973 0.27452365 10.5
-0.0033904195 0.92675215 0.2351222 11
0.086948104 0.92409563 0.22974487 9.0952377
0.18025446 0.90468019 0.19965315 9
-1.7713889 1.344311 0.26771444 2
-1.531091 1.3126646 0.2005097 5
-1.4384079 1.2896695 0.25137249 19.333334
-1.2683158 1.2503972 0.19395341 46.555557
-1.1381832 1.2248555 0.19700116 9.5
-1.7317531 1.3520774 0.29677367 2
1.3014709 -2.6579609 0.32767132 2.6666667
1.4137487 -2.6833334 0.33830655 3
-0.51663339 -2.1451035 0.32091409 16
4.2693553 -2.1183014 0.30397427 26
-0.56823683 -2.0800037 0.31587821 2.5
4.2925215 -1.9799521 0.37872979 32.5
4.364862 -1.6869715 0.36870673 32.333332
1.6137379 -1.514707 0.33471525 17
2.5146062 -1.5079001 0.33863914 0
8.0210276 -1.6283395 0.44467098 71
4.4292488 -1.4281825 0.32435119 32
-1.1196743 -1.2599969 0.35162523 3.8333333
-1.0474839 -1.2465307 0.33008945 2
-1.1145688 -1.1280639 0.35032037 3.3333333
-1.0297904 -1.1361742 0.40513268 3.5
4.4561191 -1.1362674 0.42296451 1.5
7.5337272 -1.0845094 0.34120202 60
-1.2358705 -0.21627769 0.40459198 2.625
-1.188746 -0.25916514 0.30832165 0
2.4885051 -0.18151952 0.30306399 15
2.7527313 -0.29488629 0.37983435 26
-1.2068615 -0.062996499 0.40411687 0
-1.1800367 -0.070913874 0.35975882 0
2.4996586 -0.099209413 0.36881694 23.4
2.5868168 -0.020959342 0.34461594 56
-1.2190211 0.067723669 0.38917336 0
-1.1812118 0.011041385 0.40829206 0
2.5290239 0.031513847 0.41594559 63.5
2.6454046 0.11383299 0.3443082 43.5
2.6126575 0.2312457 0.42539087 65.75
2.7947595 0.25678387 0.35684302 24.666666
3.1214955 0.15810089 0.31254584 25
-0.52777702 0.42520747 0.40406725 8.166667
2.0498743 0.44004714 0.40235639 27
2.2879629 0.38061866 0.34006625 25
2.4373145 0.34720927 0.31040567 25
-0.51962531 0.47419122 0.44490385 7
1.5877432 0.54709268 0.30481696 36
1.7541316 0.50507748 0.34539664 34
1.8189287 0.48903191 0.33660394 31
1.9512661 0.45755804 0.39665961 22
-0.25920001 0.69562668 0.30768842 0
0.18902089 0.8934986 0.33104548 7.6666665
-0.11071774 0.96602529 0.3785513 11.125
0.081544176 0.92198908 0.37672812 8.3548384
0.16907717 0.90241653 0.31448629 8.666667
-1.6803977 1.3420842 0.38619575 4.4000001
-1.5453069 1.3151585 0.38571692 5
-1.4326743 1.2895322 0.36964706 16
-1.2765665 1.2560349 0.39061564 53.599998
-1.1998175 1.2365915 0.36512303 11
-1.7444571 1.3617575 0.34568936 3.75
4.3109717 -1.9200361 0.48933721 32.5
4.389905 -1.5750014 0.5769335 32.5
8.0388403 -1.5651799 0.51891369 69
-1.9097493 -1.3924963 0.57478344 47
4.4369678 -1.3797591 0.50772119 32.5
4.4597464 -1.3081491 0.4930622 33
7.5333409 -1.1026593 0.54178447 58
-1.2357959 -0.21892889 0.50466603 3.5
2.5842016 -0.22619551 0.47102696 10.5
-1.2329478 -0.046943724 0.52639651 0
-1.1873924 -0.097229101 0.46563745 0
-1.2466867 0.094078951 0.51504052 2.4000001
-0.4832508 0.41947132 0.53314054 4
2.1897972 0.40145096 0.46396989 23
2.3084989 0.37729725 0.47898424 23
2.4833803 0.33486328 0.55190557 25
2.6280689 0.30152145 0.57985878 24
-0.50501883 0.45433587 0.45583874 7
-0.18640438 0.98530746 0.49603119 7.5
-0.062897921 0.95618165 0.51156503 7
0.031064112 0.93363249 0.48488319 8
-1.6881201 1.3396714 0.54368007 2
-1.6445599 1.3339589 0.53132701 2
-1.4282241 1.2862444 0.54469943 10.666667
-1.2778921 1.2533414 0.4624607 48.5
-1.1507788 1.2161365 0.53734547 20.25
-2.0002379 1.4106739 0.49446097 2
-1.8996624 1.3879626 0.54409868 2
-1.7740548 1.3653057 0.54860067 2
3.7420223 -4.2728705 0.6770525 22
3.7910211 -4.029747 0.6886369 21
4.248498 -2.1365373 0.61368358 30
4.3297582 -1.8318167 0.70014554 32.333332
4.3864632 -1.6368319 0.63448226 33
8.0328789 -1.6060814 0.66525209 71
4.4389548 -1.3971349 0.71674359 29
-2.0051177 -1.2524236 0.68355942 41.666668
4.4755254 -1.2222191 0.67078412 31
4.4757347 -1.1597813 0.6374985 8
7.5389228 -1.0632328 0.65081596 64
7.5467353 -1.0217961 0.72135401 39
-1.2438606 -0.059952099 0.68412507 6
-1.1901958 -0.067109838 0.68574893 7
2.6481605 -0.035065219 0.61884671 9.5
-1.2605758 0.019859618 0.68658996 11
2.6428275 0.0596513 0.60300875 99
2.8285344 0.24849987 0.65979493 22
3.0133455 0.20714274 0.70832765 19
-1.0578632 1.1934831 0.67293894 10
-1.6608549 1.3277987 0.73871183 0
-1.5488839 1.3109754 0.62944871 2
-1.3608856 1.2703979 0.63575161 43
-1.2798237 1.2522224 0.69892514 45.75
-1.1350452 1.2152684 0.63709861 45.666668
-1.9647974 1.3980733 0.73256516 0
-1.8827679 1.381475 0.63707018 0
-1.7164973 1.352654 0.72312987 0
4.0586052 -3.0286591 0.8630656 18
4.1124868 -2.7536373 0.78479332 16.5
4.1280985 -2.6258619 0.87774205 30
4.2179098 -2.2663982 0.86943161 27
4.2585888 -2.1058142 0.86100459 16
4.2803001 -2.049516 0.79726595 22
4.36025 -1.6899637 0.86181939 30
4.385181 -1.6295016 0.80512452 30
8.0457201 -1.5425698 0.82627726 69
-1.9944537 -1.3766509 0.83223355 2
4.4270926 -1.4144607 0.83906728 29.666666
-1.9872364 -1.2611033 0.81919408 11.5
-1.9403274 -1.2513521 0.83251375 18.5
4.4553809 -1.2770271 0.82612789 33
8.0977821 -1.3476862 0.82257605 85
-2.0057917 -1.1816818 0.84751588 8.666667
4.4709678 -1.1522168 0.81469601 5
-1.2903031 -0.16457269 0.81192553 2
-1.2161614 -0.082150646 0.76184279 4.5
-1.147572 -0.055771511 0.8635217 1.2
-1.268859 0.032431476 0.79133672 15
-1.1707251 0.0029201258 0.8290236 0
3.2660835 0.14174663 0.8034519 19
-1.5759962 1.310781 0.78553283 1
-1.4500703 1.285418 0.85424662 10.333333
-1.2727128 1.2456923 0.80577266 41.25
-1.8782322 1.3852162 0.80219811 0
-1.7477264 1.357155 0.80241555 0.33333334
3.6520348 -4.6493673 0.94455791 24
3.7149889 -4.3832135 0.92914593 15
3.7742069 -4.1382208 0.91764283 22
3.8459346 -3.9265332 0.93506086 9
3.8723166 -3.8611329 0.96682948 4.6666665
4.0345221 -3.0422165 0.96238065 3
4.0638404 -3.017328 0.91327369 19
4.074461 -2.8807902 1.0353881 29
4.1640058 -2.4963386 0.9946543 28
4.2078934 -2.3221326 0.98830706 30
4.2689667 -2.0890379 1.0153332 11
4.3170867 -1.8706751 0.97268963 28.333334
4.3480196 -1.7429402 1.0410218 31
7.9818029 -1.7876524 0.94337082 70
4.3872123 -1.5828253 0.97228199 30
8.0456228 -1.5288054 0.90315092 72
4.4441214 -1.3612182 0.93501925 29
4.4597425 -1.2758236 1.0280585 24.5
7.5279589 -1.1252151 1.0433183 51.5
-1.5228056 1.3042462 0.96817625 2
-1.4363341 1.2786907 1.0035766 14.333333
-1.3100277 1.2544409 1.0295136 41
-1.1736093 1.2352765 1.0229862 3
-2.0265975 1.4169959 0.99522591 0
-1.8768307 1.3794746 0.99985266 0
-0.95000088 -4.5450554 1.1926821 14
-0.70978767 -4.6019373 1.1310294 77
3.7040884 -4.4892344 1.1601874 23
3.7614548 -4.2305202 1.1429117 23
3.783798 -4.1624494 1.1452034 23
3.8572991 -3.8682117 1.0528678 12
4.1075325 -2.7300503 1.1324077 29
4.1478295 -2.5810351 1.1493599 32
4.1499462 -2.5477695 1.1414422 30
4.2097187 -2.3189096 1.140083 28
4.2483745 -2.1562848 1.1073954 27
4.2764997 -2.0148926 1.1533461 19.5
4.3208604 -1.8587042 1.1061759 28
4.3342638 -1.79348 1.1459374 26
4.3872423 -1.5728714 1.1418164 26.5
4.4315615 -1.3928831 1.1033703 28.5
4.4647322 -1.2790819 1.1407456 31
-2.6744363 0.51761675 1.1884137 0
-1.5865248 1.3132923 1.0638725 0
-1.255223 1.2470868 1.1486596 33.5
-1.1619089 1.2283286 1.1567104 2
-1.7520967 1.3509036 1.1835411 0
6.1488166 -8.723712 1.2975438 37
6.7017131 -8.7036648 1.3185266 19
3.1812775 -6.5481195 1.3387834 20
-1.1246066 -4.5018101 1.2471324 75.5
-0.99740016 -4.532661 1.281065 80
-0.83482993 -4.5684776 1.3379453 84
-1.3032496 -4.4630923 1.2213203 86
-1.1528786 -4.4955182 1.3088053 74
3.778692 -4.2133932 1.2513484 23
3.7754571 -4.1834664 1.2201449 23
3.8451326 -3.8444943 1.3184781 18.5
4.0168443 -3.1404772 1.2088863 29
4.0660572 -2.9792085 1.2891018 12
4.0932455 -2.8114147 1.3214329 32
4.1612301 -2.5575242 1.2847204 29
4.1913562 -2.3890295 1.2527213 28
4.2207532 -2.2950437 1.2567893 27
4.2351785 -2.2005873 1.315694 27
4.2846098 -2.0428727 1.2475697 18.333334
4.3230495 -1.8582222 1.321252 27
4.3292694 -1.7941254 1.3015314 26
4.3690886 -1.6831013 1.307639 26
8.0092049 -1.6683221 1.2639165 68
4.3732114 -1.6422479 1.2110118 27
8.043829 -1.5719193 1.2358763 71
4.4145408 -1.4394814 1.2966893 26.333334
4.4737172 -1.2150762 1.2605903 48
7.5302753 -1.0977197 1.2888355 62
-1.3388103 1.256251 1.2272319 25
-1.1575862 1.2169431 1.3451465 26
-1.03307 1.2007729 1.3109715 40
-2.2463923 1.4640138 1.3119373 4
-1.795815 1.3595039 1.2574068 0
6.5345645 -8.7917595 1.3654653 46
6.6359143 -8.7771835 1.3606129 46
3.2107105 -6.5601315 1.4926355 18
3.2428045 -6.4037189 1.4734921 19
3.285511 -6.2801838 1.4475297 18
3.3016167 -6.1649995 1.4037603 20
3.6967483 -4.5509686 1.4315975 24.5
-1.3712442 -4.4515738 1.4338117 0
-1.2551299 -4.4706111 1.4306687 74.666664
3.7110622 -4.4952288 1.3555403 24
3.8978283 -3.5970879 1.3703804 26
3.9564402 -3.4067917 1.3999933 30
4.0031004 -3.2224474 1.4552708 27
4.1116066 -2.7998481 1.4452022 30
4.133842 -2.6243126 1.4139316 29
4.1741638 -2.4848893 1.4481083 28
4.2239819 -2.2823396 1.3746352 27.5
4.2359571 -2.2379537 1.368482 26
4.2762337 -2.0424604 1.4375865 18
4.3134999 -1.8837783 1.403548 25
4.3729844 -1.6277089 1.4280457 25.5
8.0370054 -1.5892853 1.4758698 71
8.0880804 -1.3537999 1.3934809 73
4.4703321 -1.1993076 1.4732097 127
7.5318131 -1.0877384 1.3666484 63
-1.073691 1.196491 1.4730707 30
-0.98292285 1.1794097 1.4470525 3
-1.2479209 1.2412629 1.3725345 34
-1.0596018 1.2053536 1.4133132 37
-3.1809649 2.2185445 1.476181 4
-3.4281461 2.337002 1.4774718 68
-3.6932764 2.5089302 1.4831691 35
-3.4728429 2.4361382 1.4823636 5
-4.059196 2.6472981 1.4897093 57
-3.9235785 2.6743264 1.4976416 53
-3.7642691 2.5590608 1.4826784 58
-4.1198192 2.7491562 1.4887362 53
-4.4330616 2.8857129 1.4906681 42
5.7479887 -8.5759354 1.5755705 40
5.9032559 -8.6108122 1.5713484 38
6.0273471 -8.650672 1.5301776 39
5.340982 -8.5126209 1.5372006 35
5.5956116 -8.5367289 1.5542235 37
3.0636089 -7.0762792 1.5274435 18
3.1550677 -6.608747 1.5487101 12
-0.71525609 -4.6077876 1.6485575 76
-1.0934747 -4.4968529 1.5129684 83
3.7830455 -4.1332726 1.6208552 24
3.8364804 -3.8973849 1.613688 2
3.8872674 -3.6775827 1.6105517 28
3.9408634 -3.4746146 1.6388267 23
4.0427294 -3.0659342 1.5205932 28.5
4.059278 -3.0459359 1.6223909 20
4.0909762 -2.8718195 1.6011701 29
4.1153512 -2.7586296 1.5752349 28
4.1705022 -2.4949389 1.5312747 28
4.224123 -2.2951217 1.611701 24
4.2271185 -2.2271841 1.5688176 26
4.2730303 -2.0709414 1.5688875 8
4.3293085 -1.8362062 1.531985 25.5
7.9845266 -1.7662145 1.515615 72
4.3832793 -1.6026151 1.6122323 24
8.039607 -1.5659071 1.5677372 69.5
4.4265652 -1.4260907 1.5828145 25
4.458951 -1.257728 1.5511795 26
7.5342245 -1.0802953 1.6183875 54
-1.2718072 1.2593313 1.6120877 36.5
-1.0962039 1.2147849 1.5345585 41
-4.4398932 2.0673587 1.586219 3
-2.1733415 -6.6714005 1.6800948 69
3.1665299 -6.6823964 1.7737397 1
-2.9985061 -6.4540963 1.7066339 47
-3.2392724 -6.3993921 1.7200803 33
-2.7556424 -6.4354405 1.7157584 34
-2.2568302 -6.3784618 1.6770214 30
-2.1936855 -6.3497076 1.7244247 67
-2.8544626 -6.2375059 1.6871346 34
-2.4197631 -6.2871904 1.7171692 54
-2.3300581 -6.2981443 1.7679483 92
-3.3428152 -6.0544782 1.7646471 94
-3.2482443 -6.0820436 1.7648054 93
-3.0219171 -6.1357055 1.7261001 90
-0.4443666 -5.49756 1.7957314 29
-0.5579952 -5.0032215 1.7682086 26
-0.56078577 -4.75352 1.7414278 36.5
-0.59899187 -4.6325407 1.7650007 66
3.978786 -3.3154168 1.735761 24.5
4.0145307 -3.1013992 1.7927788 12
4.064414 -3.0293674 1.706622 15
2.0485086 -2.8565342 1.7995731 48
4.0387907 -2.9857841 1.7597312 6
4.1110682 -2.7589538 1.7381769 2
4.1330509 -2.6736598 1.6657875 29
4.1732526 -2.4867547 1.7449385 22.333334
4.2433605 -2.2744029 1.7598218 18
4.2908459 -2.0270257 1.7351079 9.5
4.3144112 -1.8307782 1.7964476 10
4.3574004 -1.8143089 1.7068955 20
4.3782411 -1.6443129 1.711409 20
7.7332249 -1.2317288 1.6885842 23
7.5373144 -1.0368264 1.7261256 63
-1.0261284 1.1851561 1.6699318 25
-0.68714201 1.1115384 1.7940186 2
-1.5816301 1.3282499 1.7440785 28
-1.4528079 1.2929509 1.6778508 28
-1.237581 1.2558911 1.7253615 38
-1.1405218 1.2236071 1.7127039 32.5
-2.2669673 1.4928678 1.7946543 48
-2.1891313 1.4766806 1.7015449 29
-1.668389 1.3653555 1.7085587 1
-2.6528544 1.576207 1.7869333 33
-2.4843729 1.5390508 1.7634875 31
-2.2282043 1.5027473 1.7076329 9
-4.5168591 1.7567129 1.716942 56.5
-4.4028401 2.061981 1.7427264 9
-4.071804 1.9762086 1.7507082 8
-4.4317436 2.1436386 1.7269882 4.5
2.9563909 -7.0120182 1.828849 20
3.066483 -6.8104 1.807363 11.5
4.9652853 -6.8763309 1.828051 21
2.7972598 -6.7451878 1.8108724 23
2.3495021 -6.5512023 1.8122503 23
-1.9426562 -6.3796039 1.8080856 98
1.9222496 -6.3345175 1.8251556 5
2.2272723 -6.3735852 1.8301207 23
-2.81726 -6.1643977 1.8300947 93
-2.4733734 -6.2195578 1.8333591 47
0.065286294 -6.1984153 1.8180295 27
2.3367269 -6.2971849 1.83737 31
2.4495473 -6.2448444 1.8401302 20
2.5518184 -6.2417727 1.8458811 31
3.9369204 -6.1823387 1.8446444 26
-3.0686581 -6.1205983 1.8049823 96
-0.079429954 -6.1480918 1.8008519 4
0.10208343 -6.0579028 1.8072735 36
2.1310315 -6.1164126 1.8158792 30
4.2356896 -6.0762115 1.8400687 22
-3.2264099 -5.9527507 1.8515249 33
-3.0508006 -5.9858351 1.8554066 34
-2.7050614 -5.8652577 1.8546165 29
-2.574146 -5.9976206 1.8329057 30
-2.4773023 -5.9238205 1.8427223 29
0.0038969635 -5.8755531 1.8110126 34
0.27565974 -5.9841046 1.8100027 36
0.41956913 -5.9341173 1.8193713 28
1.6378735 -5.851923 1.8419582 18
1.732173 -5.9043875 1.8172644 14
-4.0841703 -5.8111205 1.8384465 48
-3.0853393 -5.7775455 1.8403209 30
-2.4032109 -5.7835765 1.8539211 27
-2.1502151 -5.7337518 1.8607274 28
1.7441475 -5.7489266 1.8369716 26
-3.2220886 -5.6093726 1.8392521 29
-2.5195401 -5.6637139 1.8397199 33
-0.05544934 -5.6106515 1.8056525 3
1.5808358 -5.5669417 1.814294 6
1.8597648 -5.6974635 1.840397 27
1.9583354 -5.6834164 1.8479367 28
3.0942216 -5.5564656 1.8399001 30
-3.8953247 -5.5356803 1.8373793 32
-3.1825507 -5.423871 1.8390554 35
-2.9170725 -5.42627 1.849141 28
-2.6019571 -5.4440117 1.8326627 34
-1.9153161 -5.4780626 1.8308743 34
-1.6640805 -5.4045405 1.8355983 34
3.7017567 -5.4759803 1.8283604 24
-2.7119415 -5.2776508 1.8334557 36
-0.090828389 -5.3924332 1.8122734 44
0.054620724 -5.343472 1.8183883 47
1.1251199 -5.3218737 1.8257755 6
1.2478361 -5.2591052 1.8313287 29
3.973119 -5.3842926 1.833737 7
-3.1427097 -5.223062 1.8445209 28
-2.8150685 -5.1412206 1.8454462 35
-2.5580776 -5.1568079 1.8387369 35
-2.5315824 -5.1021309 1.8515702 35
-1.6158432 -5.2144794 1.8328029 35
1.4130807 -5.1877127 1.8335856 33.5
3.8252041 -5.2355938 1.8470895 18.5
3.9239867 -5.2368455 1.8320485 2
-4.094718 -5.0338078 1.8267676 29
-3.7661088 -5.0564203 1.8344463 34
-3.1114948 -5.0137529 1.8340803 35
-2.613961 -4.9625397 1.8369037 36
-2.2826545 -5.0585623 1.8553873 40
-1.6534672 -5.0065012 1.8239876 37
-0.37567884 -5.0786653 1.8130678 43
2.4285936 -5.0358734 1.8358167 32
2.7322421 -5.0594759 1.833398 33
3.0302587 -5.0647602 1.8257738 33
3.1704929 -4.9663343 1.8461293 27
3.3472669 -5.0101199 1.8437613 28
-3.932997 -4.8284807 1.8359355 29
-2.1007614 -4.8761697 1.8348554 45
-1.8546535 -4.8268886 1.8381585 44
-1.7358968 -4.8255734 1.8283532 42
-0.39183465 -4.8679395 1.8065509 47
0.57704848 -4.8547282 1.8244056 4
0.83849114 -4.8475637 1.8354119 1
3.2293928 -4.9410639 1.8448199 33
-3.6760948 -4.6875882 1.83016 36
-3.5549943 -4.7691607 1.8337227 35
-3.4493809 -4.7739882 1.8299822 35
-2.9755688 -4.7572927 1.8443853 79
-2.7653365 -4.7275105 1.8317434 43.5
-1.6223423 -4.7595801 1.8255316 49
-1.4259695 -4.7161918 1.8282596 53
0.96013433 -4.7979956 1.8351914 25
1.0577066 -4.7630725 1.8376626 44
2.1820092 -4.6606221 1.8335358 40
2.4700024 -4.7037287 1.8243212 36
2.6508236 -4.6795168 1.8422469 33.5
2.7840149 -4.6923451 1.8395782 35.333332
-3.2870831 -4.5285378 1.8493389 51
-2.9274716 -4.5648856 1.8556024 4
-2.632834 -4.5241566 1.8433058 51
-1.7719651 -4.6143155 1.826681 40
-0.80046117 -4.5706205 1.816811 68
-0.64510494 -4.5936356 1.8123122 67
1.9003854 -4.614006 1.8455962 20
-4.1482935 -4.423059 1.8405958 25
-3.7982755 -4.4210148 1.8345615 36
-3.5142977 -4.46594 1.8396283 36
-3.1552446 -4.4116139 1.8446149 63
-2.6954596 -4.376792 1.8373817 29
-2.3921037 -4.488534 1.8511153 51
-1.8191175 -4.4676108 1.8243576 44
-0.99858421 -4.4904795 1.8072354 70
-0.8122403 -4.4380207 1.814558 54.5
-0.64600056 -4.4347181 1.8114954 57
-0.49842998 -4.4076533 1.8185552 58
0.24840553 -4.4084454 1.8358651 15
0.71444374 -4.3957076 1.8392853 21
1.9950449 -4.3781352 1.8220872 34
2.1769087 -4.4293647 1.845156 39.5
2.3070099 -4.4116845 1.8416764 41.666668
-3.9549639 -4.2039628 1.8261195 22
-3.6103547 -4.2007232 1.8398761 45
-3.5043194 -4.2006297 1.8363608 43
-2.249156 -4.3391862 1.8320996 51
-2.0140054 -4.3172565 1.8377701 51
-1.8857293 -4.3048286 1.8308847 48.5
-1.7862264 -4.2790408 1.828318 57
-1.5954572 -4.2587686 1.8345743 50
-0.8358348 -4.281229 1.8136283 54
0.2145126 -4.2381611 1.8341507 8
1.4458985 -4.2052755 1.8326527 49
1.7127035 -4.2858343 1.8229314 44
3.5125818 -4.2527862 1.819234 34
-3.7344995 -4.1215005 1.8344406 45
-3.3160598 -4.0613112 1.850262 47
-1.9075522 -4.1197281 1.8291312 54
-1.2135301 -4.0680728 1.8106834 56
-1.0162539 -4.0905352 1.8217905 20.5
-0.8734833 -4.1722784 1.812874 58
0.042923193 -4.1720695 1.8420755 9
0.17173521 -4.0948358 1.822215 1
1.5869552 -4.0804024 1.8190638 52
1.7472633 -4.1639853 1.8352309 48.5
1.8823189 -4.1312389 1.8322587 24.666666
3.6497598 -4.0882869 1.8216239 32
-3.5434978 -3.9175642 1.838648 50
-3.2989652 -3.9586248 1.8373936 49
-2.4913378 -4.0070291 1.852574 53
-1.9602742 -4.0005169 1.8288964 56
-1.003369 -3.9872937 1.8206624 19
-0.85944313 -4.0344191 1.8092119 55
-0.71273112 -4.026279 1.8200935 59
-0.027733464 -3.9964566 1.8346757 22
0.13338773 -4.003736 1.829013 0
1.3340807 -3.972434 1.8356425 52
1.457608 -3.922797 1.8334218 55
2.9461396 -3.9949503 1.8263718 34
-4.1658769 -3.8483055 1.8330396 50
-3.8189778 -3.86237 1.8288003 37
-3.3328226 -3.7661312 1.831993 48
-3.1768737 -3.868932 1.8404738 25
-2.3813739 -3.8764999 1.8360897 60
-2.1482902 -3.86976 1.8379623 58
-2.0094428 -3.8459535 1.8298302 56.5
-1.9300239 -3.8637295 1.8349451 57
-1.7372813 -3.8475087 1.8366627 56
-1.0681516 -3.7930732 1.8119026 54
-1.0298799 -3.8749566 1.8115262 22
-0.22572517 -3.8347664 1.8374239 25
-0.068561822 -3.8272598 1.837604 8
1.0792221 -3.8706725 1.834067 54
1.2406358 -3.8215935 1.8252145 52
1.5387046 -3.8739467 1.8398015 55.5
3.1159887 -3.886487 1.8278018 33
3.2576919 -3.7512136 1.8165091 32
3.7525766 -3.8994129 1.8106362 31
-4.0142226 -3.6955459 1.8406504 33
-3.7710485 -3.6014674 1.8265361 38
-3.6483397 -3.6839008 1.8359236 56
-3.5400193 -3.6824679 1.8316001 52
-3.3372614 -3.6897309 1.8333892 51
-2.0178621 -3.67817 1.8268269 54
-1.3970796 -3.688684 1.8143753 59
-1.215313 -3.6877098 1.8132535 53
-1.1661961 -3.6571031 1.8251311 49.5
-1.0439055 -3.6811738 1.8088709 59
-0.89792734 -3.6859944 1.8220266 25
-0.25846875 -3.640727 1.8363246 27
-0.1130058 -3.6991634 1.8287932 7
1.0033565 -3.7185347 1.8372775 54.5
1.1523825 -3.6812887 1.8349251 54
1.260262 -3.643512 1.844577 55
2.4550745 -3.7434254 1.8269509 47
2.6392632 -3.677283 1.8237046 40
3.8158171 -3.6846631 1.8118941 23
-3.3471293 -3.521723 1.8387276 52.5
-3.0718682 -3.5597806 1.8416876 54
-2.2609174 -3.4636409 1.8338817 58
-2.1487746 -3.494344 1.8260063 59
-2.0633087 -3.5281005 1.8294091 53
-1.8621104 -3.483645 1.840052 53
-1.240389 -3.4623737 1.8192612 53
-1.199465 -3.5280724 1.8184401 52
-0.45764339 -3.5342684 1.8389674 44
-0.30895996 -3.5455709 1.850756 7
-0.28482074 -3.5067282 1.8301599 13.5
0.70777231 -3.5169818 1.8433665 55
0.82199335 -3.5121462 1.8355289 52
0.93454951 -3.571527 1.8232492 50
2.0280681 -3.4989882 1.8198422 20
2.22932 -3.4835825 1.8250247 48
2.8064513 -3.5904827 1.811849 39
2.950388 -3.4758017 1.8101379 40
3.37256 -3.5932605 1.8168093 33
-3.8613505 -3.390475 1.837283 23
-3.5653026 -3.4320719 1.8334576 62
-3.3744774 -3.3191063 1.8368016 59
-3.2005436 -3.4004099 1.8388828 56
-2.9438791 -3.3251522 1.8319041 53
-2.0802493 -3.3869059 1.8323005 54
-1.5535167 -3.3388975 1.8160287 55
-1.3758481 -3.3579428 1.8172683 56
-1.2530913 -3.3547001 1.8204879 56.5
-1.0566157 -3.3719759 1.8205341 60
-0.45419949 -3.3140733 1.8335329 27
-0.32766956 -3.4117985 1.8253239 11
0.69108248 -3.3899236 1.8279701 51
0.94754118 -3.4356272 1.8421704 51.5
2.4200842 -3.4481869 1.8187479 48
2.5874882 -3.3770685 1.8173748 49
3.5904408 -3.3110738 1.8343745 32
3.6922407 -3.3741152 1.815282 33
-3.8352542 -3.1616805 1.8379575 25
-3.6748059 -3.2157662 1.827705 40
-3.5823276 -3.2308421 1.8333169 59
-3.3847141 -3.2542596 1.8355261 62
-3.1182747 -3.2230225 1.8397121 58.333332
-2.8737614 -3.1671369 1.8385562 59
-2.800894 -3.1511173 1.8582505 14
-2.1426497 -3.242538 1.8227544 53
-1.3274083 -3.2373874 1.8234076 56
-0.65834302 -3.2352307 1.8282367 45
-0.48640367 -3.2254734 1.8288237 14
0.44225121 -3.2994359 1.8412858 59
0.5090782 -3.2561643 1.8377661 56
0.67553908 -3.2455528 1.8353599 58
1.6647456 -3.2782648 1.8183423 52
1.8568377 -3.2788944 1.8115216 51
2.0432453 -3.2680054 1.800325 36
2.2403667 -3.2556696 1.81187 33
2.8485048 -3.1546605 1.8199466 48
3.1109152 -3.1770084 1.8308092 38
3.241333 -3.2620811 1.8150002 40
3.5405922 -3.222945 1.8120998 30
3.8446314 -3.1663642 1.8108538 31
-3.5905881 -3.0017393 1.8315362 61
-3.394547 -3.0966477 1.8422444 60
-2.8742318 -3.0276954 1.834308 52
-2.579864 -3.0642042 1.8312517 58
-2.2526879 -3.1246383 1.8223728 55
-2.1539333 -3.0748658 1.8318458 55
-1.9694328 -3.1463118 1.8386225 63
-1.6882954 -3.0151365 1.8155988 61
-1.5134639 -3.0473092 1.8157183 55
-1.400497 -3.0775356 1.8193386 56
-1.3446779 -3.069792 1.8120469 63
-1.194719 -3.0814121 1.8156267 58
-0.6193583 -3.0117912 1.825189 16
-0.51725638 -3.148869 1.8244742 13
0.23880801 -3.0622025 1.8331417 60
0.39700496 -3.0760436 1.8288562 63
0.52274781 -3.0244472 1.8382894 63
1.4070626 -3.0364928 1.8188543 50
1.5454017 -3.1087215 1.8155488 47
1.6959955 -3.0837867 1.8151026 45.5
1.9249887 -3.1311843 1.806362 56
2.482754 -3.0304592 1.8149461 47
2.6720691 -3.0279589 1.8221778 45.5
2.7338753 -3.0504193 1.8175323 46.5
2.9951673 -3.0517352 1.8135577 41
3.0935767 -3.1186318 1.813432 39
3.2012756 -3.0153868 1.8342522 35
3.3913047 -3.0992203 1.8081771 33.5
3.6858339 -3.0862536 1.8230096 30.5
-3.875263 -2.9393404 1.8267106 58
-3.418061 -2.8858948 1.837948 59
-3.1847298 -2.9134281 1.8389821 60
-3.0012109 -2.9345613 1.8305677 52
-2.2682672 -2.8688085 1.8270816 53
-2.1986532 -2.9448469 1.8302861 55
-1.4483008 -2.925591 1.8183422 56
-0.83580559 -2.9781034 1.8333164 19
-0.66269529 -2.9500475 1.8269771 6.5
-0.0069283424 -2.8834469 1.8341705 60
0.12063698 -2.8752215 1.8369602 61
0.22506955 -2.9105263 1.829273 64.25
1.0810164 -2.8795063 1.8176669 56
1.2459776 -2.916821 1.8317288 33
1.3941283 -2.9139669 1.8202668 52
2.0077968 -2.8773074 1.8034462 54
2.1276925 -2.8820422 1.8055838 42.5
2.3347328 -2.9361436 1.8156132 39.666668
2.4190392 -2.969105 1.8114578 49
2.8166251 -2.9260654 1.8338789 41
3.6339936 -2.8702943 1.8239793 31
4.0207329 -2.8652892 1.8245558 17
-3.6806409 -2.8244386 1.8397113 25
-3.4813509 -2.726954 1.8420259 65
-3.1960971 -2.7690439 1.8423256 59
-2.9419179 -2.8114665 1.841957 59
-2.7611785 -2.7952478 1.8393688 58
-2.6655707 -2.7169588 1.8346459 56
-2.4502735 -2.7669067 1.8364516 59
-2.3018904 -2.8069973 1.8326092 59
-2.0650773 -2.8415112 1.8398544 72
-1.8053811 -2.7138307 1.8146871 61
-1.5533834 -2.7744989 1.8162546 62.666668
-1.4677093 -2.7996118 1.8140157 61
-1.3180043 -2.822525 1.8175157 67
-0.99372554 -2.7334535 1.8374368 37
-0.79277945 -2.7490509 1.8338404 3.6666667
0.044565264 -2.7514768 1.8288236 59.75
0.3297075 -2.8440459 1.8387085 67
0.84411353 -2.700484 1.820448 65
0.99729645 -2.7466621 1.8171331 55
1.1489481 -2.7810206 1.8103563 61
1.4729683 -2.7340987 1.8193401 46
1.7676262 -2.8133681 1.823844 47
1.8559229 -2.7879829 1.8166924 47
1.9925539 -2.7705202 1.8260866 51
2.1455393 -2.7220855 1.8246497 45
2.465513 -2.8285949 1.8305007 47
2.5928609 -2.7329345 1.8238906 46
2.9201148 -2.7968235 1.8288575 40
3.0431552 -2.7217371 1.8274149 43
3.2155232 -2.7899194 1.8315152 32
3.4132349 -2.7795467 1.8217639 39
3.5691133 -2.8011515 1.8345879 37
3.826843 -2.8291118 1.8201092 33
-3.3800826 -2.6826308 1.8394364 62
-3.2512753 -2.6193841 1.8417953 57
-3.0561941 -2.5778461 1.8312265 52
-2.9184618 -2.6675012 1.8315712 54
-2.2625003 -2.6170964 1.8222915 57
-2.1782606 -2.6202521 1.8308982 58.5
-1.5806715 -2.6078601 1.8193336 59.5
-1.4297557 -2.5858865 1.8235415 39
-0.81557548 -2.6832087 1.8232923 2
-0.19477367 -2.6919324 1.8355662 41
-0.089606017 -2.6166923 1.8342462 61
0.058291744 -2.6895719 1.8395091 65
0.15711521 -2.672137 1.8397342 68
0.78372419 -2.6027157 1.8197129 59
0.93144125 -2.6629496 1.8114022 63
1.277639 -2.5933981 1.8082234 58
1.379848 -2.558526 1.8121914 61
1.5761102 -2.6882257 1.819572 50
1.7174003 -2.6563067 1.8412162 47
1.8623581 -2.618932 1.8243476 45
2.0165801 -2.5906315 1.8177201 45
2.3438911 -2.6193964 1.8260192 18
2.4468069 -2.5804558 1.8299356 48.5
2.6933115 -2.6258125 1.8218662 44.5
2.8012013 -2.663147 1.8364395 43
2.9389031 -2.6025801 1.8273386 42.5
3.2552736 -2.6048124 1.8319079 39.333332
3.5656695 -2.6200392 1.8253714 34
3.6114478 -2.6107805 1.8322659 35.5
3.9634144 -2.6087058 1.8289822 30
-4.2553849 -2.4762499 1.8304244 56
-3.2238064 -2.4844334 1.8371282 59.666668
-3.003684 -2.482574 1.8452388 65
-2.8093812 -2.4709661 1.8397325 54
-2.4724188 -2.4610605 1.8221499 59.5
-2.3302951 -2.5242791 1.8225957 56
-1.9117835 -2.4380543 1.8189818 67
-1.7434902 -2.4993968 1.8210765 65
-1.6155469 -2.431164 1.8269439 33
-1.1332718 -2.5012591 1.8425022 10
-0.3641839 -2.5000882 1.8325504 38
-0.19433549 -2.5240746 1.8310436 61.5
-0.11773544 -2.5306113 1.8327162 61.5
0.0025163114 -2.5078347 1.8393198 63
0.56021261 -2.4336143 1.8148295 60.5
0.65704471 -2.5166299 1.8200115 61
0.7824977 -2.4335535 1.8152841 58
0.98912019 -2.5267189 1.805679 65
1.1194266 -2.4663036 1.8114251 61
1.407572 -2.4557936 1.8219901 56
1.5682662 -2.4725437 1.8193913 51
1.7258346 -2.4715133 1.8150625 51
1.9157453 -2.4852476 1.8140088 48
2.0994868 -2.4739857 1.8182431 49
2.1825459 -2.4730446 1.8186451 46.666668
2.3121481 -2.4475572 1.8297666 17.5
2.4917071 -2.4397423 1.8178059 44
2.590816 -2.4990735 1.8272891 46
2.7668843 -2.460078 1.8169066 44
2.9186785 -2.5315306 1.8379534 42
3.0595365 -2.4690683 1.8183881 42
3.3712804 -2.4656277 1.8211538 35
3.6862252 -2.439079 1.8178252 33
-4.1117845 -2.3774364 1.8383356 62
-3.9196892 -2.3567715 1.8369843 64
-2.9632549 -2.3402379 1.8337666 56
-2.7342942 -2.3885574 1.8339669 65
-2.4041963 -2.2516844 1.816553 49
-2.2910058 -2.3498015 1.8183205 51.5
-2.2168756 -2.2858167 1.8322865 70
-1.6973807 -2.3416383 1.8243879 32
-1.5316981 -2.3609304 1.8299249 29
-0.51455677 -2.3108728 1.8260537 18
-0.34390718 -2.3485579 1.8268988 62.5
-0.25866973 -2.3682063 1.8284856 65.5
-0.1377914 -2.3472333 1.8372422 71
0.4031857 -2.3171089 1.8204699 64.666664
0.52041841 -2.351294 1.8249047 64
0.67660695 -2.2948666 1.8198584 58
0.80992657 -2.3295441 1.8196133 58.5
0.97828454 -2.321954 1.8233585 61
1.1465989 -2.2888293 1.8260629 56
1.2703428 -2.3456204 1.8206536 57.666668
1.4728903 -2.3679347 1.8111309 57
1.5752015 -2.2730813 1.8151013 56.400002
1.7522287 -2.3146937 1.809566 49
1.8709483 -2.3487251 1.8175133 49.5
2.0068846 -2.3448927 1.8155773 44.25
2.1963458 -2.3453217 1.8202772 45.5
2.3588531 -2.2529726 1.8271457 16
2.4497602 -2.3712451 1.8251729 30
2.6397078 -2.317626 1.8237408 41.5
2.7324741 -2.3772705 1.830772 43
2.9431555 -2.3622332 1.8136793 42
3.0226214 -2.3919594 1.8355316 40
3.2254591 -2.3377194 1.8203522 41
3.3159409 -2.385639 1.8319823 39
3.4995039 -2.2889481 1.8197595 37
3.632015 -2.368556 1.8334509 32
3.9831891 -2.3604493 1.8212651 29
-3.9559376 -2.1807957 1.8398355 64
-3.0781765 -2.2071207 1.835714 59.5
-2.8697789 -2.1088502 1.8293048 48
-2.8271973 -2.2239206 1.8443278 75
-2.5860982 -2.1569312 1.8273948 62
-2.5016789 -2.1861372 1.8173033 49
-2.351685 -2.1668258 1.822526 50.5
-2.0052714 -2.1748772 1.8229266 37
-1.8398138 -2.2493494 1.8239011 33
-0.65077686 -2.1363492 1.8273574 33
-0.51304632 -2.1688075 1.8326691 26
-0.40085524 -2.1916955 1.823209 64.599998
-0.2642841 -2.1923654 1.8327066 67
0.25202179 -2.1719868 1.8179934 66.400002
0.4052794 -2.2129917 1.8141283 67
0.54440176 -2.1659131 1.815619 62
0.65396595 -2.1269255 1.8220905 72
0.8216297 -2.1852951 1.8262995 66
0.94510561 -2.1843262 1.8262414 57.666668
1.1360412 -2.1629767 1.820437 56.25
1.2844824 -2.1505485 1.8226709 56
1.3936447 -2.1720362 1.824002 54.400002
1.5464454 -2.1797726 1.8215891 53
1.7236576 -2.204565 1.817529 49.5
1.9097385 -2.2155001 1.8198715 45
2.1264632 -2.2363861 1.8203055 47
2.8288689 -2.2362962 1.825884 41
3.084228 -2.2153015 1.8308572 42
3.341783 -2.1771979 1.8331615 29
3.6041803 -2.1247435 1.8348926 32
3.7846835 -2.2262373 1.8229693 33
4.0599189 -2.1393602 1.8199776 28
4.2385893 -2.2439969 1.8030258 10
-4.2905531 -2.0894034 1.8314928 63
-4.1360121 -1.9956746 1.8325223 65
-3.9628453 -1.9954358 1.8367881 65
-3.7980516 -2.0802009 1.8357276 69
-3.6939914 -2.0946357 1.8371898 55
-3.568084 -2.009881 1.8398808 67
-3.4296851 -2.0097125 1.8383843 64
-3.2970836 -1.9646065 1.8442189 54
-2.9972999 -2.0295773 1.831539 43
-2.7874601 -2.0725324 1.8244952 63
-2.4780269 -1.9875824 1.8377923 25
-2.3395119 -2.0510974 1.8350003 29.5
-1.1232437 -2.0397825 1.8234931 1.5
-1.0280796 -2.0172229 1.8272749 9
-0.77352732 -1.9671243 1.8328394 57
-0.63263237 -2.0017672 1.8280438 64
-0.52002615 -2.0309572 1.8273329 27.200001
-0.37872708 -2.0451484 1.8304244 72
0.105965 -2.0405591 1.8169107 70.400002
0.19549237 -1.9643204 1.8122605 64
0.38987499 -2.0600805 1.8170022 61.5
0.54868644 -2.0104611 1.8205527 65
0.66794389 -2.0212309 1.8261566 62.25
0.78505975 -2.0479765 1.8232907 61.25
0.99055415 -2.0299275 1.8270397 60.333332
1.1076283 -2.0395031 1.8281884 64
1.2095795 -2.0696518 1.8342375 54
3.8630645 -2.0526135 1.8326107 31
4.1323352 -1.9675956 1.8346671 27
-3.97981 -1.8276404 1.8347985 62
-3.6804469 -1.9250851 1.8336469 59
-3.5193944 -1.8565826 1.8375589 56.5
-3.3295557 -1.8471817 1.8365272 50
-3.2190795 -1.9293292 1.8371753 52
-3.0951338 -1.8710322 1.835555 52
-2.8847671 -1.8827202 1.8346435 40
-2.627388 -1.9119328 1.8407496 21.5
-1.2580156 -1.8586532 1.8229933 24
-1.157449 -1.8627108 1.8245949 30.333334
-0.65591264 -1.8668531 1.8242605 74.199997
-0.53853798 -1.8815625 1.8334267 45.5
-0.17965633 -1.8265194 1.8179954 75
-0.035393905 -1.9145849 1.8183151 72.25
0.037506681 -1.8853854 1.8209248 68
0.24004193 -1.8616304 1.8136166 75
0.380981 -1.8654044 1.8225981 68.199997
0.51795948 -1.8885076 1.8230402 69.400002
0.68938696 -1.8583885 1.8228003 65
0.82635707 -1.9002855 1.8245623 64.285713
0.90262347 -1.9137541 1.8329436 63
7.6724119 -1.8433903 1.8403798 10
-4.3333549 -1.7248479 1.8363489 69
-4.007638 -1.6521479 1.8387736 62
-3.8356106 -1.7444924 1.8365005 66
-3.6679645 -1.7220759 1.837824 57.5
-3.4730713 -1.715041 1.8503922 17
-3.3329115 -1.7257726 1.8440083 38.5
-3.2106454 -1.6560088 1.8460644 10
-3.0378935 -1.7450874 1.8363458 15
-2.8975191 -1.7401366 1.8443701 25.5
-1.8691783 -1.6947256 1.822083 0
-1.3780981 -1.6929739 1.8245538 42.5
-1.2666475 -1.7102579 1.8248614 53.75
-1.1979352 -1.6880473 1.8324558 68
-0.83472091 -1.7392511 1.8290592 72.333336
-0.70726109 -1.7124742 1.8264951 75.75
-0.57716066 -1.7661381 1.8295304 75
-0.23864803 -1.6955187 1.8140625 82.5
-0.10724741 -1.7751999 1.8182477 74.5
0.097885564 -1.723788 1.8180332 76
0.22911417 -1.7091136 1.8242594 73.333336
0.39777991 -1.7324342 1.8239559 71.333336
0.54818296 -1.7476581 1.824385 69.400002
0.61940062 -1.7370294 1.8254246 75.5
-4.1741967 -1.6419276 1.8349415 67
-3.7156615 -1.6112714 1.8369797 45
-3.5589328 -1.5549088 1.8426615 21.5
-3.3282721 -1.633859 1.8450068 26
-3.1619289 -1.6040539 1.8513433 10
-1.8525019 -1.5232619 1.8199172 29.333334
-1.5319916 -1.6321622 1.8265177 31
-1.4689988 -1.5360893 1.8311197 57
-1.3089035 -1.5402312 1.8281801 70.75
-0.95268989 -1.5813626 1.8299954 69.5
-0.80873454 -1.5688596 1.8288342 80.400002
-0.70361388 -1.5695096 1.8332062 81.5
-0.3556945 -1.5680816 1.8224494 44.599998
-0.2228816 -1.5657929 1.8183807 72.400002
-0.040395103 -1.5529804 1.8232175 78.75
0.093755193 -1.5925331 1.8218325 79.14286
0.21726339 -1.5757604 1.8227637 75
0.35487133 -1.5747437 1.8229725 74
0.48596349 -1.6353741 1.8279296 70.5
7.8760595 -1.6449131 1.8496591 25
7.9766164 -1.5317271 1.8310205 38.5
-4.3539014 -1.3646517 1.8275815 52
-4.0125303 -1.4957725 1.8354245 50
-3.8263602 -1.4392325 1.842877 22.5
-3.4029274 -1.4950109 1.8526114 11
-2.4184322 -1.3753477 1.819204 4
-1.9840266 -1.4413129 1.814188 29.666666
-1.8881726 -1.3523865 1.8216523 61
-1.5702133 -1.3946459 1.8272223 68.5
-1.407461 -1.4750246 1.8205342 77
-1.3360999 -1.3690498 1.8301462 85
-1.0644864 -1.4650872 1.8297035 81
-0.9570322 -1.4148129 1.829114 77.333336
-0.84537762 -1.4079092 1.8325642 78.5
-0.5256477 -1.4039373 1.8201891 76
-0.39881957 -1.4158827 1.8272671 30
-0.20688249 -1.4056244 1.8201941 79
-0.084241182 -1.4114133 1.823226 71.166664
0.058339246 -1.4418974 1.8254442 74.428574
0.23762569 -1.4400151 1.8261493 78.800003
6.8453741 -1.4751365 1.9282776 24.5
7.7508621 -1.4200989 1.89143 31
-4.2165828 -1.301324 1.8395759 37
-4.0665069 -1.3263344 1.8494872 13
-3.7674966 -1.3159708 1.8506495 1
-2.6156402 -1.2353289 1.8214542 15
-2.5000048 -1.3081069 1.8134335 9
-2.2629263 -1.2166765 1.8192586 45
-2.1152065 -1.3368671 1.8170258 31
-2.0438936 -1.2410316 1.8209985 61.333332
-1.9074914 -1.3153284 1.8173239 64.5
-1.6695664 -1.2450558 1.8264905 79
-1.509465 -1.3080077 1.8216058 70
-1.4111378 -1.298147 1.8265355 71.800003
-1.1092825 -1.2714794 1.8322037 78
-0.97065872 -1.289077 1.8315839 83.25
-0.88680208 -1.2484089 1.8341255 74
-0.65740049 -1.2331469 1.82874 84
-0.53311586 -1.2814238 1.8246721 84.400002
-0.38262686 -1.2669241 1.8287648 44
-0.22384487 -1.2824094 1.8262399 50.142857
-0.059430633 -1.2788719 1.829192 65.714287
0.084096119 -1.2809745 1.8268595 71.75
0.20045389 -1.3487236 1.825179 94
5.9055915 -1.2795542 1.9253842 20
7.1905384 -1.2065914 1.9351059 24
7.2214561 -1.2132602 1.925804 19
-4.0638733 -1.1805531 1.8451575 0
-2.9651825 -1.0547808 1.8304237 26
-2.766556 -1.1354804 1.8247836 16
-2.4999895 -1.1287241 1.8267361 42.666668
-2.1712832 -1.1314483 1.8229212 57
-2.0401714 -1.076687 1.8233274 62.333332
-1.9333398 -1.1581624 1.8254689 60.5
-1.7255179 -1.0576677 1.8252634 73
-1.5494251 -1.1469085 1.8280756 71.75
-1.434444 -1.1364944 1.8324908 72
-1.2105445 -1.1473936 1.8338422 76
-1.120532 -1.1177996 1.8316215 77
-0.98482835 -1.1366079 1.8344591 82.400002
-0.6604414 -1.1003294 1.8273451 91.800003
-0.52195317 -1.1582456 1.8264475 82.75
-0.36884621 -1.1275656 1.8232516 33.714287
-0.22372422 -1.1382309 1.8224943 35.5
-0.076149151 -1.1236099 1.8239065 59.599998
0.046451699 -1.1768504 1.8331367 65
5.9537077 -1.1190171 1.9441191 27
-3.0753119 -0.9425143 1.825578 32
-2.982631 -0.97970635 1.8304878 15
-2.7778449 -0.90802968 1.8205224 60
-2.6231542 -0.98438817 1.8255919 53.333332
-2.47648 -0.94557863 1.8263367 68
-2.3121638 -0.99713004 1.8213788 61
-2.1775846 -0.96568155 1.8203927 63
-1.989694 -0.95773774 1.8275843 67
-1.5817599 -0.96652156 1.8305018 74.199997
-1.4682389 -1.0093774 1.8314114 69.5
-1.2815009 -1.0023578 1.8599275 23
-1.1286278 -0.98046911 1.8339322 83.400002
-1.0086302 -0.98789072 1.8341541 83.333336
-0.78880399 -0.97779924 1.8266789 91.666664
-0.65840542 -0.94060391 1.8196398 79.599998
-0.51007187 -0.97328711 1.8208109 68.875
-0.37559003 -0.98957771 1.8187046 41.714287
-0.22092101 -0.98134047 1.8204397 23.142857
-0.11260672 -0.95587128 1.8146429 41
6.12393 -1.0493017 1.924966 21
-2.9843409 -0.8164143 1.8295203 71
-2.7790508 -0.84134185 1.8314807 62
-2.6310897 -0.82133186 1.8231649 67
-2.3549976 -0.77935117 1.8243095 63
-2.1558912 -0.83674234 1.8225784 72
-2.0372791 -0.81976604 1.8239502 67.666664
-1.7141309 -0.83269644 1.8283973 68.666664
-1.5721899 -0.80851638 1.8278934 74
-1.4799055 -0.8565228 1.8340608 76
-1.2598883 -0.8318674 1.8339318 80.333336
-1.1204662 -0.81132114 1.8324665 90
-1.0378261 -0.85836267 1.8343158 90.5
-0.83325356 -0.83533502 1.8196539 80
-0.67185742 -0.81893224 1.8228513 79
-0.53725368 -0.83150578 1.8199338 75.14286
-0.38639158 -0.82149124 1.8193363 60.625
-0.24266225 -0.81934714 1.8196113 37.25
5.8788495 -0.85190243 1.8372825 27
7.1792808 -0.87148583 1.8296076 1
-2.5978298 -0.68948519 1.8291315 37
-2.4911034 -0.7352019 1.8206264 68
-2.2549269 -0.72403663 1.8218445 71
-2.1736212 -0.65183282 1.8229071 73
-2.04052 -0.6580503 1.8228103 74.333336
-1.8173988 -0.69115031 1.8284134 76
-1.7038193 -0.64184517 1.8311477 69
-1.5740054 -0.66885394 1.8328147 68.25
-1.366148 -0.68200266 1.8361458 82
-1.2512964 -0.67105561 1.8324527 84.333336
-1.1250749 -0.69658631 1.8312517 90
-0.92451078 -0.67910004 1.8241339 79.666664
-0.81202149 -0.67725533 1.8213948 82.166664
-0.6683802 -0.6641584 1.8206317 80
-0.53360045 -0.67167127 1.8186791 79.125
-0.38737544 -0.68493223 1.8193115 73.166664
-0.27587593 -0.67251462 1.8188072 65
6.1462283 -0.62499028 1.8605663 1
-2.4946535 -0.52951097 1.8059622 1
-2.3357902 -0.5427053 1.819556 74
-2.1577599 -0.47949502 1.822579 78
-2.0732455 -0.55039877 1.8234566 73
-1.8538846 -0.51106048 1.8319131 83
-1.7194443 -0.480995 1.8300431 76.25
-1.5831828 -0.52028984 1.8339728 73.666664
-1.4032512 -0.52778196 1.8372706 74
-1.2711296 -0.54440981 1.830049 81.25
-1.1399118 -0.51945555 1.8256044 71.199997
-0.97638088 -0.5208326 1.8204012 78.5
-0.81990528 -0.52132815 1.8194145 83.333336
-0.69208604 -0.5322051 1.8207334 79.666664
-0.52767617 -0.50821346 1.8211212 83.666664
-0.38690221 -0.55336189 1.8204588 74.599998
-2.4163842 -0.35117939 1.8236605 70
-2.2860594 -0.36238813 1.8204099 73.5
-2.102793 -0.37028766 1.8326513 18
-2.0193551 -0.42855671 1.828355 80
-1.8845215 -0.33049911 1.8353428 19
-1.7163942 -0.32507572 1.8300089 80.5
-1.5846866 -0.39350682 1.8328968 79.5
-1.3927422 -0.3718994 1.8364298 91
-1.2675699 -0.37991878 1.8275244 87.800003
-1.1629988 -0.35793996 1.8263103 70.5
-0.96719813 -0.3952806 1.8182319 80.5
-0.8060264 -0.39201984 1.8198171 80.666664
-0.68415761 -0.36342457 1.824 67.111115
-0.52391177 -0.38063923 1.8258003 69.625
-0.38778353 -0.39643252 1.8250524 66
-1.7267888 -0.19847399 1.8290166 82.75
-1.6003513 -0.24416031 1.8318217 87.5
-1.394852 -0.24336781 1.8301152 95.333336
-1.2567623 -0.21935488 1.8243183 67.5
-1.1043404 -0.18780851 1.8244348 78.5
-0.98759896 -0.23785812 1.8193346 79.833336
-0.82294667 -0.23027699 1.8227677 76.46154
-0.67865342 -0.22167106 1.8242525 77.666664
-0.54273421 -0.21739118 1.8269739 75.400002
-0.43224114 -0.23816042 1.8227065 79
-1.711158 -0.018007845 1.8280292 80
-1.6106719 -0.095515728 1.8298111 84.5
-1.4131905 -0.095915534 1.8293575 100.33334
-1.2715238 -0.070874274 1.8258442 82.800003
-1.0936546 -0.066722132 1.8213481 85
-0.94607425 -0.055747356 1.81998 79.5
-0.81422734 -0.068753347 1.8221283 79.333336
-0.67640352 -0.081790186 1.8238049 78.599998
-0.53923267 -0.074879013 1.825241 77.428574
-1.8059617 0.057082433 1.8262252 79
-1.7008859 0.1193736 1.8281788 80.333336
-1.58183 0.028116558 1.8311194 89
-1.4264323 0.051770478 1.8305072 95.666664
-1.289654 0.07574413 1.8235693 81
-1.1246835 0.095867753 1.8195887 69
-0.94733036 0.075027004 1.8179951 68.400002
-0.82357407 0.07027594 1.8206465 76.300003
-0.67413622 0.066909514 1.8245646 79.199997
-0.55133277 0.066595793 1.8224198 81.833336
-2.4726708 0.29335412 1.8255857 2
-2.3344758 0.25316048 1.8217597 58.666668
-2.1956267 0.23611514 1.8226696 80.666664
-2.0525811 0.25392655 1.8289334 58
-1.8645738 0.2128675 1.8267503 83.666664
-1.7228757 0.22843885 1.8254234 83
-1.5851847 0.17232616 1.8333358 77
-1.4314047 0.20194834 1.8279595 96.666664
-1.2968652 0.21099162 1.8251492 83
-1.1162682 0.24567658 1.8258376 53
-0.95935762 0.21416907 1.8250465 59.799999
-0.83661199 0.2182053 1.8211632 69.888885
-0.66902566 0.23295866 1.8247857 79.444443
-0.54871809 0.23091802 1.8270525 75.800003
-2.3272343 0.41349125 1.8191091 33
-2.1910903 0.39780918 1.8227046 83.5
-2.0488153 0.42638484 1.824931 87
-1.8656635 0.39083588 1.8217782 82.666664
-1.7264194 0.34309992 1.8222915 85.666664
-1.5783323 0.31577232 1.825575 74
-1.4318018 0.3537575 1.8283826 92
-1.2856909 0.3666043 1.8244435 84.400002
-1.1107645 0.37218547 1.8214217 51
-0.97717649 0.37590659 1.8266253 52.333332
-0.82201308 0.37671432 1.8202327 62.81818
-0.66139072 0.3845205 1.8216151 80.333336
-0.53147125 0.3734841 1.8218836 77
-2.8184419 0.58871967 1.8175966 29
-2.5566936 0.46759176 1.8174795 31
-2.4752805 0.51300609 1.8197528 31
-2.3580129 0.48202902 1.8238087 32.5
-2.185605 0.51228613 1.8221993 84
-1.847842 0.55536592 1.8224442 88.5
-1.7352293 0.46569163 1.8236748 88
-1.6109741 0.50321507 1.8263863 82.5
-1.426146 0.5078494 1.8291984 88.333336
-1.2927846 0.5209232 1.8269488 91.75
-1.0999937 0.49940988 1.8191851 61.666668
-0.97091156 0.54170424 1.8234185 76.333336
-0.83481491 0.52995521 1.8222554 73.199997
-0.66541708 0.51623428 1.8220297 75.400002
-0.55042392 0.51633316 1.82288 77.714287
-2.6237149 0.65361989 1.8183635 30.5
-2.4799366 0.73904896 1.8220268 31
-2.3304873 0.66163766 1.8200099 33
-2.1774561 0.70699084 1.8162283 65
-2.0398276 0.60012585 1.8199307 89
-1.849999 0.72750473 1.8188053 82
-1.755241 0.64775443 1.8224286 90.333336
-1.6006725 0.65776634 1.8275473 84.5
-1.4122162 0.66380727 1.8263315 85.666664
-1.2832459 0.66452831 1.8297005 88.5
-1.0857505 0.63117188 1.8246812 79.666664
-0.95630497 0.66575563 1.825184 73.333336
-0.80669546 0.67187655 1.8262041 76
-0.68820333 0.67464828 1.825635 76
-0.53215092 0.66929585 1.8269917 69.599998
-0.44988966 0.72896314 1.8375438 43
-3.0756559 0.81224728 1.8138083 1.6666666
-2.9472814 0.79266787 1.8188061 33.5
-2.8243763 0.80136979 1.8198773 32
-2.6281762 0.87386662 1.8202676 32
-2.3150961 0.85793799 1.8198756 32.333332
-2.2252371 0.89163357 1.8193456 33
-2.0360892 0.78194124 1.8259 81
-1.8564734 0.77424008 1.8188585 72.5
-1.748366 0.82276368 1.8198093 87
-1.5844426 0.81410229 1.8260443 83.5
-1.3935727 0.82375771 1.8273782 89.333336
-1.2934252 0.79864341 1.8297006 84
-1.1124713 0.81492198 1.836822 77.5
-0.97457278 0.81204319 1.8337609 84.400002
-0.82843763 0.82798862 1.8281673 66.666664
-0.6995337 0.80791277 1.828741 42
-0.53277117 0.82009494 1.8277508 68.400002
-0.42786261 0.82043785 1.8274697 80
-2.4383149 0.95100987 1.8197879 31.5
-2.1190426 0.92493516 1.8155712 86
-2.017204 0.96083128 1.8188213 74
-1.8712671 0.94626868 1.8228354 80
-1.7475293 0.9935047 1.818733 77.75
-1.562007 0.97379482 1.8233615 83.5
-1.3557281 0.98447955 1.8306674 64
-1.2910415 0.94562447 1.8284544 80.5
-1.1087148 1.0043722 1.8314056 83.5
-0.95836467 0.96322083 1.8358902 89
-0.81554031 0.96292055 1.8368832 89.75
-0.72046912 0.97993815 1.8290285 53
-0.49052566 0.95270079 1.8266256 32.5
-0.40091747 0.91109461 1.812004 51
-2.6249042 1.1014333 1.8179977 30.5
-2.4028049 1.1639743 1.8248221 78
-2.3202944 1.079639 1.8229336 36
-2.1607296 1.1165226 1.8182542 74
-2.0005143 1.1502771 1.8196477 88
-1.8518256 1.1451429 1.8237257 80.5
-1.7147282 1.1647829 1.8158673 85
-1.5012879 1.0682869 1.8227659 80
-1.3989019 1.0521928 1.8227469 97
-1.2728804 1.112661 1.8251619 86
-1.1221451 1.132167 1.8273817 80
-0.95849597 1.1187365 1.8314226 63
-0.81037807 1.0825212 1.824254 62.5
-0.69596034 1.0746903 1.8331016 93
-3.1116679 1.3294816 1.8222402 78
-2.9434605 1.3077624 1.816762 77.666664
-2.8392541 1.3450143 1.8170244 78
-2.6338062 1.3468419 1.8303229 67.5
-2.4734879 1.2156824 1.8261365 77
-2.3210089 1.3134289 1.8265074 82.666664
-2.2027111 1.3316383 1.8232061 79
-2.0359068 1.3431354 1.8214768 78
-1.7851378 1.2766167 1.8219266 84.5
-1.5674272 1.2084397 1.8207968 82
-1.4146309 1.2248967 1.8199856 89.5
-1.2596984 1.2419264 1.8163368 65.5
-3.3195415 1.3513207 1.8289248 41
-3.1682577 1.394383 1.8205224 73
-3.0572832 1.3545142 1.819616 81
-2.4616382 1.4692849 1.8273588 77
-2.3960528 1.4053681 1.8251034 74
-1.8462074 1.3863635 1.8205055 84
-1.7205603 1.3569376 1.8180822 77
-3.8748004 1.6125059 1.8322865 79
-3.6099231 1.5640589 1.8307072 69
-3.4675584 1.6227759 1.827763 71
-3.0572171 1.6218705 1.8134938 54
-2.9460053 1.5707418 1.822122 47.5
-2.8292913 1.6168723 1.8091923 51
-1.7738444 1.5256772 1.824226 0
-4.4789109 1.7968653 1.8260995 92
-4.336781 1.7891835 1.8353842 70
-4.144587 1.716684 1.835505 63.666668
-3.9747572 1.7587026 1.8305653 69
-3.8323612 1.7077669 1.8299812 72.75
-3.6210318 1.6672994 1.8253139 66
-3.5529144 1.6970114 1.8255543 77
-3.3371105 1.652896 1.828447 92
-3.1760204 1.7044159 1.8216656 75
-3.075896 1.6529503 1.8242732 81
-4.3945341 2.1937861 1.8278404 1
-4.2635155 2.1414402 1.8397013 1
-4.1648812 2.1326463 1.8417324 0
7.5477719 -1.7323365 1.9568669 30
