# .PCD v0.7 - Point Cloud Data file format
VERSION 0.7
FIELDS x y z intensity
SIZE 4 4 4 4
TYPE F F F F
COUNT 1 1 1 1
WIDTH 223
HEIGHT 1
VIEWPOINT 0 0 0 1 0 0 0
POINTS 223
DATA ascii
1.2186702 2.3326893 -0.90309024 5
1.4657789 2.6278386 -0.90786469 4
1.9791424 2.6775024 -0.91058439 8
2.6271446 2.9801366 -0.90551567 1
2.4169114 3.1493649 -0.90463591 0
3.696805 3.4490802 -0.90446812 9
1.6856667 -1.3753293 -0.75439221 10
2.184231 -0.97192359 -0.7553854 5
2.3256531 0.46073404 -0.82474273 5
2.688019 0.62593931 -0.82105958 9
2.8406413 0.65874791 -0.8262769 9
3.4491608 0.67656726 -0.8251937 0
2.4327269 0.80463731 -0.83294272 5
2.1886685 1.2057781 -0.85484338 5
2.4124749 1.2549578 -0.85362053 4
2.636898 1.2943559 -0.84409261 7
2.0240376 1.4393281 -0.86217481 6
2.3775623 1.526801 -0.86295307 5
2.6025877 1.5810241 -0.86153507 4
2.837647 1.6296757 -0.85549957 11
2.9416876 1.5420543 -0.86340892 8
2.2225769 1.7810061 -0.87340623 5
3.075953 1.6563848 -0.85049677 10
3.1827898 1.7326216 -0.77892315 38
1.8335202 1.9200135 -0.88423169 10
2.0089233 1.8376315 -0.87964189 9
2.6490307 1.9494532 -0.87393469 4
3.0675924 1.9028462 -0.83239186 12
1.7182648 2.0788515 -0.89583611 9
2.9328313 1.9943455 -0.85973179 11
0.6512481 2.1451921 -0.75652504 72
1.6447319 2.2402887 -0.88733506 9
2.4751768 2.2172689 -0.88194686 5
2.9427643 2.1569154 -0.78016025 36
1.0457029 2.3799348 -0.80665326 12
1.6599264 2.3498137 -0.88867319 9
2.2568235 2.3066428 -0.89090961 8
2.8533201 2.2845275 -0.81915176 29
1.63976 2.5021834 -0.89467299 10
1.663396 2.4408135 -0.89604175 9
2.0952556 2.4495587 -0.89976966 8
2.8913064 2.4188175 -0.86059862 2
2.8209171 2.808768 -0.89128214 3
3.9055493 3.471827 -0.89975339 5
4.1056428 3.4763494 -0.8923769 1
4.9875889 4.472086 -0.80250508 31
4.8493934 4.60602 -0.88341522 4
3.1635182 -3.9812665 -0.60222286 1
3.5263388 -3.9000711 -0.6183629 3
3.1004441 -3.7514732 -0.63468719 2
1.8770778 -3.6143177 -0.63397521 6
2.51055 -3.6769416 -0.64946496 8
2.7800601 -3.6924407 -0.64077395 8
3.0675924 -3.6770399 -0.63299972 1
1.5354505 -3.3382168 -0.65829545 6
2.9177167 -3.4453218 -0.63730067 7
1.5539553 -3.1736982 -0.67273736 5
2.7310715 -3.1753829 -0.64831346 7
1.3627124 -3.0205777 -0.69050944 5
1.453568 -2.9020069 -0.68160832 7
1.5105745 -2.9463246 -0.69735521 7
1.6650656 -2.8886709 -0.69580197 7
2.4899323 -2.8670621 -0.66798598 7
2.836149 -2.8699732 -0.67428327 7
1.3702387 -2.7111113 -0.70137924 7
2.2338731 -2.7068572 -0.6935305 5
2.4983158 -2.7606316 -0.68824369 7
2.5518265 -2.7725501 -0.67727041 6
1.3596818 -2.5994751 -0.70354211 9
1.9947762 -2.6633413 -0.6999827 5
2.4397769 -2.6153991 -0.68376046 6
1.3114799 -2.4354103 -0.705823 9
2.2758117 -2.4084232 -0.690642 5
0.99816674 -2.317311 -0.70836204 3
1.1660299 -2.3376925 -0.72108364 9
1.2663355 -2.2742581 -0.7186358 8.5
1.4418799 -2.2775464 -0.72320908 8
1.2323693 -2.1912127 -0.72479618 7
2.0742624 -2.176276 -0.70406085 5
2.1820583 -2.165345 -0.71346653 4.5
2.4294546 -2.235992 -0.71220183 4
0.80794066 -2.0069582 -0.7345022 4
1.1668884 -1.9628742 -0.7298339 11
1.2109307 -2.0901031 -0.72771358 9
1.6827505 -2.039197 -0.72798526 8
1.8706899 -2.0642376 -0.72000033 6
2.1378663 -2.0697172 -0.71402103 6
0.9861052 -1.9032824 -0.74338543 5
1.1301996 -1.8301922 -0.74034834 4.6666665
1.2867106 -1.8502702 -0.73996228 8
1.9858646 -1.9012487 -0.71994764 4
1.8568726 -1.6885527 -0.73296088 8.333333
2.0324528 -1.7864332 -0.73046535 6
2.121316 -1.7686492 -0.73215079 4
1.4839199 -1.6225162 -0.74767125 8
1.7098801 -1.5839431 -0.73883641 9.5
1.7520692 -1.3575717 -0.74882585 8
1.8821856 -1.4421464 -0.74509382 9
2.0452602 -1.290574 -0.63687921 75
2.8670328 -1.2000998 -0.65248823 60
2.2771144 -1.1434194 -0.63212061 46
2.7972095 -1.0929202 -0.6973983 43
1.7805579 -0.98015893 -0.64896131 2
2.7811532 -1.046308 -0.61410439 57
1.9361864 -0.83543766 -0.63427407 5.5
2.170944 -0.019453498 -0.66057509 58
2.0766342 0.12605864 -0.65230149 54
2.1399412 0.039158031 -0.71201324 87.5
1.9715147 0.26128268 -0.63900226 50
2.2173514 0.19208108 -0.73458588 3
1.9867954 0.32279038 -0.69954157 51
1.8371255 0.59021288 -0.664608 98
2.4558406 0.67072487 -0.68680155 6
1.697379 0.82192397 -0.65110046 7
1.8052447 0.88557374 -0.62906557 5
3.725168 0.86959052 -0.74136436 36
3.2752602 1.5989953 -0.70663196 39
-0.011679011 1.7553258 -0.61090231 65
0.96724105 1.7021791 -0.6538772 22.666666
3.1594164 1.7993733 -0.65177894 39
0.096899554 1.8149484 -0.60676557 72
0.23711485 1.8924781 -0.64411521 67
0.68312275 1.946323 -0.60028368 151
3.063184 1.9441357 -0.71652341 39
0.37602627 1.98036 -0.63409859 72
0.4987874 2.0496132 -0.68038726 71
0.71918815 2.1856551 -0.72009325 72
0.75199634 2.165931 -0.67194134 150
0.99055105 2.2054763 -0.72293317 150
2.9413841 2.1498263 -0.64648241 39
2.8052001 2.3172042 -0.70086503 8
1.3174491 2.5289009 -0.71191031 23
2.8819537 3.5067379 -0.60173577 13
3.2049263 3.6975412 -0.62491333 10
3.5944171 3.9313462 -0.65367043 11
3.9981763 4.1341805 -0.69815838 1
3.7807834 -4.8943639 -0.55805236 1
3.954478 -4.8341293 -0.4815262 53
1.3075473 -3.0174932 -0.56464744 0.5
2.6916795 -2.4458535 -0.45024863 28
0.84753704 -2.3287666 -0.54041332 93
2.7875385 -2.2264946 -0.56108069 75
2.8934608 -2.1695397 -0.50107843 83
2.1743159 -1.5694392 -0.59018737 36
2.0877414 -1.4221021 -0.48002958 51
2.1018133 -1.4420849 -0.52730596 39
2.0625563 -1.2928858 -0.47849345 64.5
2.12131 -1.2373427 -0.55235189 78
2.8689075 -1.2277936 -0.59173328 44
2.145843 -1.1267285 -0.49485162 3
2.2974901 -1.1361048 -0.57369095 75
1.9104548 -0.90116304 -0.49879679 8
2.7548006 -0.9973762 -0.56717545 65
1.8961859 -0.87228066 -0.47709802 2
1.5997669 -0.61269176 -0.53611714 5.5
1.5524751 -0.51440644 -0.53548253 57
1.4713963 -0.36777297 -0.50404269 62
1.5408342 -0.17885685 -0.49653891 40
2.0104074 0.35424522 -0.57940972 53
1.8759897 0.59724844 -0.54535681 73
1.5137702 0.72841656 -0.48141626 8
1.8867891 0.61783046 -0.50026327 79
1.7250266 0.85585499 -0.45092759 6
-0.32856119 1.5703171 -0.49673772 50
-0.22905284 1.6281402 -0.50517082 79.454544
0.66534567 1.5968308 -0.55156869 19.5
-0.17147267 1.6584551 -0.5528698 69.5
-0.09058477 1.7079057 -0.54490036 69.222221
0.026342295 1.7777491 -0.54610306 67
0.68646491 1.7360225 -0.50782138 137
0.87014532 1.7545495 -0.4762041 41.5
0.95380574 1.6667155 -0.56398255 2
3.2169399 1.7065941 -0.53077614 43.5
0.1022535 1.8265253 -0.50152767 68.75
0.21844833 1.8934339 -0.54161435 69.5
0.68790567 1.8133492 -0.52448571 77
3.1239002 1.8496832 -0.52193934 44
0.383257 1.9903898 -0.48560098 70
0.56118768 2.0902438 -0.57393593 39
0.71023268 1.9660586 -0.50860482 155
3.0258918 2.013087 -0.52658039 41.5
0.67368561 2.1805558 -0.5058428 41.5
0.76439434 2.2292318 -0.49498186 74
2.9237583 2.1886621 -0.52233386 38
0.82590252 2.2631536 -0.53354132 68
2.3798621 3.1869216 -0.4648245 7
2.677212 3.3898902 -0.48911023 0
2.9687805 3.5505521 -0.52707171 10
4.0798211 4.1988916 -0.59023833 0
4.9633212 4.4836831 -0.59346145 48
5.5100341 4.4487171 -0.54005694 48
3.6096303 -5.0367589 -0.44574389 71
2.9101462 -2.1567826 -0.43922019 92
0.69632131 -1.9123116 -0.41618612 3
2.2073102 -1.6149791 -0.4153758 37
0.38749555 -1.4740458 -0.4314878 0
2.1028216 -1.450713 -0.43214649 53
0.14464475 -1.3183973 -0.43158534 55
0.24172351 -1.2879632 -0.41368032 16.5
1.981101 -1.2287194 -0.41058213 120
1.7184322 -1.0960079 -0.40358117 10
1.9037247 -1.1799909 -0.43865445 7
1.6393948 -0.91549015 -0.43764883 1.5
1.428499 -0.30059803 -0.43818554 55
1.5011625 -0.42874655 -0.41954574 51
1.5106199 -0.19793722 -0.40571299 44
1.1637783 -0.076411508 -0.40321317 51
1.9165862 0.5841797 -0.44765589 13
-0.35655433 1.5578802 -0.42083043 44.142857
0.63702542 1.6301959 -0.42153388 55
-0.076739609 1.7206392 -0.4357177 68.5
0.033351626 1.7942622 -0.42669192 72
0.89715236 1.7360891 -0.4075191 29
3.2297711 1.6676152 -0.42076299 40
0.20218927 1.8867774 -0.41778094 71.5
3.0695283 1.9474131 -0.42267284 43
0.54675424 2.0916476 -0.40894371 65
0.59537429 2.1201098 -0.4462159 61
0.65640873 2.1703672 -0.43703184 82
0.78616256 2.2450743 -0.40892386 64
2.2294436 3.1221719 -0.42505461 20
3.1824119 3.3445983 -0.40033847 1
2.9920166 3.5706875 -0.40561682 10
