# .PCD v0.7 - Point Cloud Data file format
VERSION 0.7
FIELDS x y z intensity
SIZE 4 4 4 4
TYPE F F F F
COUNT 1 1 1 1
WIDTH 1536
HEIGHT 1
VIEWPOINT 0 0 0 1 0 0 0
POINTS 1536
DATA ascii
-0.30474076 -9.3104763 -0.1873568 150
-0.46591142 -1.5346588 -0.18497524 15.5
-0.44836512 -1.5564694 -0.17688662 16
-0.26336765 -1.5682163 -0.18525784 16
-0.60989434 -1.141766 -0.15979984 14
-0.50357211 -1.1455202 -0.17277589 14.4
-0.36078027 -1.1388173 -0.17655475 19.272728
-0.27103764 -1.1379648 -0.19112983 24.5
-0.23256865 -1.0067508 -0.16457121 1
-0.19738753 -0.77242899 -0.17396143 10.428572
-0.10357526 -0.76341438 -0.18129967 11.166667
0.064865671 -0.75989091 -0.1814243 10
1.3308876 -0.77495211 -0.15161756 24
-0.072930202 -0.74877644 -0.18089266 4
0.36014333 -0.67297041 -0.17123236 0.25
0.47532558 -0.6724872 -0.18179029 0
1.8572142 -0.73166752 -0.19441962 2
4.6950884 -0.44082808 -0.18057601 77
4.697741 -0.15382291 -0.1554563 83
4.7035608 0.13051291 -0.17812382 84
4.6996789 0.41517842 -0.19024982 113
-0.71654499 0.59828436 -0.15189438 0
0.21909191 0.57706028 -0.15887818 0
0.33530796 0.59323257 -0.17752273 0
1.4257449 0.57533896 -0.17713922 1.5
-0.70827425 0.63207585 -0.1758278 0.72727275
-0.47969887 0.73951954 -0.17326719 13.636364
-0.39465922 0.73722261 -0.18800065 14
-0.21887122 0.73811358 -0.1755283 14
-0.13604134 0.7431978 -0.1747818 14.5
0.087386958 0.65628994 -0.17425653 0.2
0.18492597 0.62395221 -0.17978425 0
0.32277036 0.60207742 -0.16161565 0
0.70594352 0.73583162 -0.17652304 7
0.7876088 0.73548031 -0.17576456 8.666667
0.97685492 0.73594809 -0.17163834 23.25
1.2910181 0.63628227 -0.17886698 1
1.4424086 0.60792094 -0.19932958 3
2.184226 0.72513855 -0.16051218 17
2.4812908 0.64993584 -0.15916966 4
4.6900582 0.70194227 -0.19070242 25
-0.582048 0.83241105 -0.19217296 0
-0.12281121 0.7754699 -0.19230713 15
0.10064818 0.77429134 -0.16317314 0
0.68360502 0.79540396 -0.17668189 10
-0.77741832 1.1224653 -0.17593293 13.166667
-0.67802989 1.0855126 -0.17349713 8.5
-0.034090105 1.0950879 -0.16755147 16.5
0.0079380991 1.0957251 -0.16598052 12
0.2121463 1.0827861 -0.17078777 14
1.746382 1.0720837 -0.15735808 100
-0.80899584 1.4820794 -0.17398 16
-0.93899965 1.5263252 -0.18518513 80
-0.82853752 1.5339782 -0.19624703 31.25
0.3422108 1.5520496 -0.18541023 88.5
-0.95787662 1.9505105 -0.1925558 11
0.2771436 1.9999586 -0.18280129 22.5
-0.63421875 -1.1056536 -0.10996914 6.75
-0.55306917 -1.1388861 -0.11801397 10.75
-0.39598626 -1.1315234 -0.12258059 12.75
0.41192228 -1.1145914 -0.13249697 11
0.71693403 -1.1066384 -0.11951978 58
-0.64010084 -0.94956344 -0.078786016 3.2857144
-0.50653279 -0.95984721 -0.10931454 2.8333333
-0.43932876 -0.97156543 -0.11083287 4
-0.26409253 -1.0152761 -0.12114358 3
-0.11019506 -0.97102416 -0.024219844 8
0.44355166 -0.90509301 -0.11935566 1
0.5113678 -0.9412775 -0.11926703 0.80000001
0.62673753 -1.0076287 -0.11842567 1
2.0881021 -0.93474132 -0.088680275 13
2.156877 -0.98876429 -0.12122766 87
-0.80984151 -0.88384932 -0.006531355 11
-0.65301883 -0.81898552 -0.084161788 7.9411764
-0.52402014 -0.81937855 -0.079715289 7.5714288
-0.36480147 -0.83180171 -0.073436305 10.285714
-0.24103059 -0.80515134 -0.091696635 10.388889
-0.072233126 -0.76331431 -0.1276979 9.75
0.078941584 -0.75890279 -0.11703739 9.75
0.20258163 -0.76352292 -0.11238042 4.5
0.35049504 -0.82624328 -0.11329161 2.25
0.97717643 -0.77091843 -0.094430059 6
1.149004 -0.77041864 -0.10917111 18
1.3351512 -0.75309879 -0.082046337 10
1.3934994 -0.7729075 -0.10708237 15
1.6935652 -0.77349764 -0.098884977 33
2.5930367 -0.77516848 -0.10095326 28.666666
3.3786411 -0.75471413 -0.11993717 37.5
-0.7090075 -0.74764705 -0.097748853 14.5
-0.54280108 -0.74963057 -0.10014892 12.5
0.2686435 -0.74391043 -0.1006294 9
0.37938753 -0.6599378 -0.047045507 0.07692308
0.53935724 -0.68434203 -0.066977978 0
0.63837475 -0.66551697 -0.048580438 0
0.77984673 -0.67872912 -0.053714905 2
1.1064086 -0.74270868 -0.081169672 9
1.5962225 -0.7283051 -0.067945726 4.5
1.783608 -0.69682235 -0.045911375 3
1.8997998 -0.72621685 -0.10367753 4
1.975579 -0.71338552 -0.04010934 4
3.1687248 -0.74158502 -0.044874314 18
4.7036924 -0.72669101 -0.10305521 16.5
0.49371308 -0.59389681 -0.11145476 0
4.6883769 -0.49780104 -0.015172665 67
4.6518087 -0.43350273 -0.12108306 53
4.6899858 -0.22316641 -0.045296345 49
4.6946697 0.069117583 -0.040104456 81.5
4.6966496 0.3420155 -0.051637016 77
-0.9388907 0.52892751 -0.059796188 0
-0.82386076 0.55060941 -0.083496794 0
-0.70500791 0.58970225 -0.044710495 0
0.24025941 0.58532417 -0.12068789 0
0.31293118 0.58477902 -0.12421604 0
1.6021807 0.55344164 -0.089574821 3
1.6731927 0.57209229 -0.045499865 1
-0.91615492 0.63071752 -0.016042029 1
-0.82456738 0.63423091 -0.054934368 2.8181818
-0.69857931 0.65475404 -0.087196238 2.8235295
-0.5393213 0.73549575 -0.11363982 12
-0.35245416 0.73169762 -0.11685577 10.75
-0.21807636 0.73635775 -0.11873489 13.416667
-0.083196469 0.73475939 -0.10702236 6.7142859
0.078365833 0.67696005 -0.067146815 1.7368422
0.22139558 0.67748433 -0.07417728 0.27272728
0.38110512 0.67078435 -0.015978578 0
0.47937384 0.6662569 -0.055256885 0
0.69419616 0.72977763 -0.10042245 5.6666665
0.83643574 0.73427075 -0.12718531 6
0.9937309 0.73481238 -0.11941174 8
1.1715151 0.73055214 -0.099643953 23
1.2615389 0.65887189 -0.10130977 6
1.4051353 0.6564821 -0.05679372 5.5
1.5529108 0.62329179 -0.044530798 4
2.4017601 0.71747482 -0.079262204 6
2.7911949 0.64868307 -0.047547597 3.5
4.6924615 0.61833698 -0.053071104 66
-0.69323319 0.80952001 -0.10521852 1.8333334
-0.55985236 0.77786344 -0.11185764 4
-0.3680492 0.834023 -0.04610664 2.5
-0.015005786 0.77419108 -0.11272218 4.5
0.07448449 0.84201211 -0.10783089 3
0.68577886 0.78474045 -0.12654006 10.25
1.5685923 0.82813209 -0.11251707 5
3.9839618 0.75971007 -0.092197545 16
4.2252388 0.82253361 -0.061146472 1
-0.80853903 1.0377089 -0.10547633 1
-0.70282567 0.96475464 -0.10908097 1.4285715
-0.047227234 0.93226904 -0.10504407 3
0.14829446 0.95906281 -0.10616303 2
0.19412059 1.0104624 -0.10556031 2
1.5002387 0.91744047 -0.095366426 9
1.8460228 1.0323054 -0.10331928 96.5
-0.81775624 1.1226968 -0.13192697 11.666667
-0.70374411 1.1031352 -0.12340864 7.1666665
0.081671953 1.0848335 -0.12077957 11.666667
1.114192 3.3162875 -0.14125447 3
-0.10073284 -1.3356705 0.14475912 1.5
0.11934857 -1.2884172 0.10622843 9
0.25152406 -1.2517147 0.13531879 11
0.37122643 -1.2344633 0.10125394 2.8
0.53138047 -1.2474214 0.12021329 2.25
0.65037036 -1.2479148 0.1120958 2
2.5750406 -1.116299 0.11206197 70
-0.79742777 -0.90423477 0.023729425 8
-0.70147538 -0.90171194 0.042071607 7
-0.90268689 -0.8749103 0.040484156 5
-0.80234021 -0.87872094 0.016734922 13
-0.67527968 -0.88929737 0.022401061 9.2857141
-0.52191138 -0.88132507 0.027840944 10.25
-0.36155021 -0.87789726 0.01889688 7.75
-0.23995017 -0.88604718 0.010161315 6.6666665
2.5821235 -0.77705121 0.085342526 17.666666
2.7324834 -0.76658154 0.063568152 22.5
4.7252746 -0.78023213 0.029363984 3
0.39704642 -0.64261794 0.084748231 0
0.52557182 -0.64696872 0.093005508 0
0.67689186 -0.66423494 0.082619563 0.2857143
0.76683116 -0.66831034 0.098349743 0.33333334
1.6017561 -0.6760115 0.090726741 1
1.7275574 -0.67901576 0.035252698 3
1.8249953 -0.67430568 0.097274989 3
2.0339599 -0.68547451 0.073585592 3.5
3.1327477 -0.74243641 0.047597434 17
3.1644754 -0.73977107 0.14541686 16
3.7407148 -0.58251554 0.015208746 1
4.6870389 -0.44547296 0.048114028 26
-1.0309619 -0.15621747 0.12558967 2
4.6781197 -0.22263509 0.05946926 46.5
-1.0110091 -0.09060517 0.10468861 0
-0.97546935 0.024887724 0.048979744 0
4.8515501 0.28762296 0.14589792 10
4.9908929 0.27251977 0.11511158 18
-0.95957059 0.53649664 0.055804357 0
-0.84231973 0.54218 0.054136455 0.36363637
-0.70601308 0.54664797 0.13356565 0
1.4595429 0.59806615 0.13755083 4
1.597651 0.59252971 0.10289235 4
1.6821766 0.56949204 0.094067469 2
4.9241915 0.55337512 0.12704779 34.5
-1.1017756 0.62493885 0.074592605 0.5
-0.9974606 0.63163161 0.045544479 1.6363636
-0.81330073 0.61899269 0.048605267 2.4666667
-0.74518162 0.61687034 0.035828266 2.6666667
0.089995392 0.64700145 0.091726422 0.37142858
0.22277792 0.65286523 0.085204206 0.14634146
0.36634395 0.65477371 0.068660565 0
0.48260072 0.65201646 0.059235487 0
1.279305 0.64264667 0.064960085 4.5
1.4306772 0.62139308 0.082400158 4.4000001
1.5223885 0.61716259 0.048859514 4.5
2.4297965 0.60398394 0.088966124 2
2.6640041 0.62202454 0.056836482 4
2.9167147 0.61328566 0.082216285 0
4.5551767 0.77024412 0.099896513 12.5
-0.20421398 0.96721226 0.012317394 8
-0.81835181 1.3347558 0.12929487 0
-0.3096711 1.3427427 0.14740497 7
0.048788171 1.3295364 0.1336894 28
0.30367315 1.3253615 0.12582254 0
2.2054493 1.2035681 0.10829025 23
0.18164577 1.3501037 0.14053768 2
-0.30902249 -9.5040836 0.15903926 90
-0.27249119 -9.5102148 0.16135263 31
2.5793238 -1.4406163 0.25345817 61.333332
0.1261964 -1.3013591 0.23986363 6
0.19947125 -1.2522403 0.20198008 6.7142859
0.34136763 -1.220188 0.1807832 1.3333334
0.52636611 -1.2351054 0.22980604 1
0.68061864 -1.2360396 0.27300549 2.1111112
0.81540632 -1.2433974 0.23459551 1.8
2.5793536 -1.2625011 0.18615209 66.333336
-1.4414221 -1.1540999 0.28265014 34
0.16495197 -1.1886765 0.24664587 1
2.5717163 -1.1218418 0.23048137 69.666664
-1.5227374 -0.92029643 0.29257572 47
4.9603181 -1.0330133 0.1822499 73
2.7626262 -0.76686776 0.28547841 23
3.0702405 -0.75569582 0.22640777 21
3.3336761 -0.75304413 0.20048076 14
4.9727731 -0.84030491 0.20138472 27
1.7891779 -0.72517014 0.24114525 4
1.8474281 -0.69852167 0.22621374 3
1.7971442 -0.5953849 0.17720938 3
-1.1852489 -0.16518548 0.26679134 0
4.713994 -0.2297297 0.18928325 8
-1.1357207 -0.070852064 0.24537639 0
-1.1525236 0.032686081 0.25856701 0
-0.96337128 0.5561173 0.17709802 0.90909094
-0.80767506 0.56186527 0.19065785 0.66666669
-0.71638215 0.5534206 0.1515407 0
1.3209034 0.58933896 0.16188991 0
1.42774 0.56437987 0.19156064 1.3333334
1.6349691 0.55566585 0.1574747 1
2.6707599 0.530586 0.22186762 0
-1.0961202 0.60792518 0.16801672 0.66666669
0.080103233 0.64374369 0.16849065 0
1.3233539 0.69613296 0.21171673 3
1.3871876 0.65877557 0.24132676 3.6666667
2.5200105 0.67606109 0.18522501 1.5
2.5708296 0.66756976 0.2241661 4
3.8697989 0.64998955 0.1922971 1
4.9703298 0.96878433 0.25809425 19
2.3293548 1.1865377 0.1790612 15
-0.9048481 1.3405333 0.16693056 2
-0.82348406 1.3371983 0.16948393 2.5
0.035292517 1.3257567 0.1574657 0
0.21170391 1.3285004 0.16017571 1.5
1.6245623 1.3209165 0.16793948 2
1.8498287 1.3214115 0.15626764 2
2.163656 1.2707027 0.19126616 41.333332
2.3365383 1.2078398 0.1600346 29
4.7258654 1.3401017 0.17839468 22
4.8572259 1.2433736 0.2781617 18
-0.62684357 1.3888967 0.22716507 69
-0.52829915 1.4041066 0.19506347 12.166667
-0.39004302 1.4245757 0.20482033 3.6666667
2.1787982 1.3942232 0.19591194 27
2.2698088 1.5032201 0.27528423 4
2.5714896 -1.5680768 0.31446636 62
2.5729389 -1.4696672 0.41679397 62
-1.3973217 -1.2184756 0.35386062 11
0.37663156 -1.2102805 0.35251665 3
0.51636463 -1.2226725 0.32796708 2.7142856
0.66386026 -1.2359214 0.34869683 2
0.81388152 -1.2394335 0.34326261 1
2.5776327 -1.2985097 0.35420397 68.333336
-1.4040706 -1.1182315 0.38005447 47.599998
2.5722756 -1.1451327 0.39224657 69.666664
-1.5480971 -0.93539524 0.38946846 48.5
-1.4510286 -0.99907398 0.38276374 54
-1.3440859 -0.90630335 0.39810872 5.5
4.9714761 -1.033111 0.37752044 80
-1.6572914 -0.87456995 0.36283213 21
-1.5255585 -0.77012968 0.35066536 18.5
-1.4073914 -0.8346867 0.37682828 17.333334
2.570123 -0.82145715 0.40254521 53.333332
2.945483 -0.7590394 0.40346935 19.666666
3.0777199 -0.76075041 0.4235658 17
4.9466567 -0.78280377 0.36605209 57
4.9800553 -0.80254591 0.33394173 16.5
-1.510186 -0.71780008 0.40214735 1
-1.4860767 -0.71723032 0.40169039 9.333333
1.684181 -0.70549875 0.31090423 3
1.8138958 -0.64292574 0.3060236 2
4.9482255 -0.56088805 0.31842101 3
4.9582338 -0.54406422 0.35926455 47
4.9507422 -0.31442681 0.3612228 70
-1.2338611 -0.24887863 0.3923122 4
-1.1794525 -0.16513009 0.38467404 0
4.9830918 -0.29631403 0.3036415 18
-1.1518918 -0.080216937 0.36833519 0
5.0457597 -0.032110691 0.32196105 44.5
-1.214818 0.11435979 0.34078896 0.33333334
-1.1648972 0.046262015 0.38417652 0
-1.2224855 0.15450534 0.37262493 9
-1.192873 0.16181676 0.3963882 7.6666665
4.9803243 0.25138736 0.32023263 18
4.9418993 0.3445715 0.43884069 74
-0.91836542 0.58037591 0.34165198 1
-0.85028583 0.55844843 0.339551 1
2.6460016 0.59792316 0.30723047 0
4.9657702 0.53674018 0.31709319 18
1.4401803 0.63909042 0.31448534 3.5
4.9358873 0.62036282 0.4364711 74
4.9334188 0.8986159 0.44944274 75
4.9540129 0.75094277 0.31564122 9
4.7699666 1.2388074 0.3570646 12
-0.72985339 1.3803979 0.325192 1
0.157005 2.0944784 0.38849759 1
2.5786846 -1.4220208 0.52907783 61.333332
2.5754724 -1.2753211 0.55706853 60.666668
-1.4153756 -1.1185138 0.50106078 51
2.5763404 -1.1211479 0.52154702 63
-1.6776601 -0.92401892 0.59146589 13.333333
-1.5793099 -0.97228837 0.58863091 45
-1.450657 -1.0266994 0.5054087 45
2.5853093 -0.91827464 0.59133029 7
-1.5683854 -0.87675887 0.50661021 81
-1.4279923 -0.88899767 0.46383396 129
2.5734978 -0.78573132 0.52200198 23
2.7669969 -0.76597613 0.53396451 22
2.9657297 -0.75285816 0.46167159 19
4.9640903 -0.87909269 0.46629053 80
4.9559455 -0.74285537 0.57708997 74
4.9529495 -0.4703536 0.5225693 74
4.9524713 -0.38614666 0.58182055 75
-1.216379 -0.24127769 0.49380088 5
4.9470716 -0.19843489 0.4803291 74
-1.15817 -0.092400588 0.52434015 3.5
4.945838 -0.12192436 0.55124736 75
-1.2197803 0.12408461 0.45870727 7
-1.1583366 0.12588884 0.58139896 6
4.9364033 0.10798505 0.49228042 74
4.9415164 0.20244715 0.58946693 78
4.93856 0.40951362 0.52858585 76
4.9410658 0.47739753 0.58459097 80
4.9284558 0.6762414 0.53537136 76
4.9319677 0.75432694 0.59433538 79
4.9383903 0.95122677 0.55882084 11
2.5679255 -1.5577345 0.68008906 33.5
2.5752683 -1.4304478 0.69776893 54.400002
2.5793312 -1.2696793 0.63038164 58
-1.5474672 -1.0519294 0.70108366 6
-1.4587502 -1.087201 0.60388082 13
2.5742102 -1.1452279 0.66479313 54.5
-1.5573387 -0.96648544 0.67057514 20.833334
-1.4819145 -0.98261964 0.72004139 28
2.5757105 -0.98946691 0.69143838 58.333332
4.9594593 -0.96923 0.66396183 75
2.5755892 -0.82311702 0.65629387 39.5
2.718394 -0.76613218 0.66985905 21
3.0583837 -0.75604439 0.6187523 16
4.9649549 -0.65105873 0.68813783 77
4.9600492 -0.45435065 0.74068499 72
4.954772 -0.37704968 0.66542292 77.5
-1.1193382 -0.1696506 0.68145645 4
4.9484138 -0.19965303 0.69803262 72
-1.153221 -0.083761998 0.64327723 5.75
-1.0448458 -0.10928465 0.73874032 2
4.9468684 -0.069985762 0.61001563 78
4.9502602 -0.13992099 0.64659464 78
-1.2035835 0.037646502 0.6036604 1
4.9423575 0.09195435 0.64506817 75.5
4.9361672 0.34418187 0.67015153 73.666664
4.9267673 0.56549811 0.64296246 74
4.9347177 0.67723972 0.62052429 80
4.9328079 0.82890773 0.6501708 74
4.9276972 1.0357722 0.61971009 67
4.9235077 1.0929958 0.66678739 65
4.9395347 1.3703365 0.70015717 76
4.9380813 -2.9934638 0.84839821 5
2.5738616 -1.5755664 0.79996479 16.5
2.5695775 -1.4640936 0.85636073 52.666668
2.5705853 -1.3063018 0.79223561 52.5
2.5705082 -1.1667404 0.8132844 43.5
-1.5649316 -0.98045933 0.78688991 5
-1.4855965 -0.95511878 0.78587031 5
2.5708959 -0.99303603 0.8286255 56.333332
4.9706125 -0.95204812 0.85175472 77.333336
2.5757623 -0.83786714 0.81357151 61.5
2.7274225 -0.7666983 0.82398498 18
2.864615 -0.76213491 0.88087261 17
3.0856414 -0.75642759 0.75551164 16
4.962687 -0.89240277 0.7624836 81
3.3071828 -0.74289006 0.81139541 9
4.9630508 -0.69538862 0.81444728 73
4.9627724 -0.42854124 0.79697442 72
-1.1050906 -0.2161635 0.76840442 0
-1.0222682 -0.20423001 0.79113197 0
4.9482775 -0.2255004 0.82358247 73
-1.0758327 -0.058071606 0.77836257 1.75
-1.0268108 -0.085578762 0.80254704 0.2857143
4.9345551 -0.017274048 0.86073327 73.5
4.9393907 0.07267949 0.75033772 73
4.9349399 0.23893626 0.85661 74.333336
4.9344172 0.51029348 0.82571244 75
4.9300141 0.73912609 0.86598825 78.5
4.9305301 0.7870425 0.80140764 75
4.9300504 1.0007962 0.87333298 63
4.9340072 1.2880492 0.87553781 80.666664
-2.9820518 1.7941992 0.88842607 79
4.9430385 2.419246 0.89206588 87
-0.062860832 3.2794518 0.81340456 2
0.39615202 3.2909288 0.86402702 33
4.9457927 -2.9652567 0.93135238 4
2.5664828 -1.6075284 0.94872415 0
2.5708671 -1.4604249 0.98292565 47
2.5701435 -1.2667029 0.96496457 43
2.5713181 -1.0969124 0.92355376 51
-2.9624195 -0.94842917 1.0412986 71
4.9525137 -0.77760112 0.99348158 75.5
-2.9657545 -0.72012347 1.0361286 19
3.2782133 -0.74459612 0.98769915 10
4.9581633 -0.68498147 1.041891 77
4.9578414 -0.50300699 0.95367533 71.666664
4.9631057 -0.43522063 1.0189145 76
4.9443216 -0.26613536 0.90595067 74
4.9512472 -0.21221779 0.96786654 73.5
4.9388199 0.022326007 0.94379914 76.5
4.9345016 0.26697174 0.9825263 75
4.934577 0.49919972 0.9916141 82
4.933784 0.73050821 1.0096256 78
4.9478555 0.96879524 1.041628 55
-2.9803524 1.3325243 1.0431919 30.5
4.9429712 1.2745949 0.93737459 79
-2.976553 1.5554037 0.98013663 89.25
-2.9765682 1.798643 0.94461811 79
-2.9815741 1.8710468 1.0025531 78
-2.977931 2.0975218 0.92034101 7
4.9455528 2.4991031 1.0129235 89.5
4.942337 2.5591309 0.97021246 87
4.93294 2.737123 1.0092361 70
4.9536047 3.0798593 0.97136235 90
-0.9290449 3.2863314 1.0367987 41
-0.69905555 3.2852905 1.0437601 37
-0.20930696 3.2831275 0.96634483 16.5
-0.069553562 3.2735214 0.95567113 36.5
0.017692935 3.2928832 1.0424491 39
0.2116604 3.2970147 0.95244557 36
0.36262497 3.2954669 0.96214509 37
0.80072021 3.2994015 0.99683952 23
4.7238255 3.2785816 0.97395045 25
0.70515686 3.3034875 0.94774282 38
0.89851862 3.3014152 1.044269 40
1.0880635 3.3009028 0.94605279 42
3.9799442 3.3272853 0.97599328 13
4.3773341 3.3364778 0.98043478 13
-2.964155 -3.6589606 1.164233 1
-2.9644547 -3.5711954 1.066718 1
-2.9612515 -3.1694193 1.1573548 1
-2.955384 -3.0903454 1.0631359 2
4.9359179 -3.0038254 1.1546766 5
2.5669756 -1.5774012 1.103758 25.5
-2.9694488 -1.4305174 1.1359074 76
2.5707958 -1.4457462 1.1114519 49
-2.9699407 -1.2154914 1.1201017 81
2.5704355 -1.339411 1.0718318 44
-2.9701927 -1.1620995 1.1314393 76.666664
-2.9672554 -0.94550085 1.131636 57.5
4.9638109 -0.97986126 1.0808513 76.25
-2.9654226 -0.89156002 1.1683457 22
-2.9717107 -0.73830527 1.102544 4
4.9478521 -0.40108779 1.1691005 72
4.9428215 -0.20939262 1.1247703 73
4.9390326 -0.12468739 1.1411244 73
4.9312019 0.067632325 1.1084661 72
4.9312744 0.26129186 1.0792638 73
4.9255762 0.34236011 1.1131012 72
4.933054 0.5396111 1.0979831 73
4.9419169 0.74290973 1.085427 75
4.936193 0.81944746 1.1379502 76
4.9324541 0.98695904 1.1027335 77
13.140924 1.0065433 1.1175336 1
4.9272304 1.0573407 1.1634158 78
-2.9766579 1.3209231 1.10966 39
4.9391537 1.2221806 1.1069403 79
-2.979188 1.3739824 1.1410514 87
4.9306598 1.469255 1.1514655 81.5
-2.9781997 1.6148043 1.1094497 84.666664
-2.9829984 1.6849054 1.1994245 86
-2.9764774 1.8882288 1.1399871 83
-2.9803967 1.9618647 1.1708645 80
4.937921 2.4569113 1.1552149 85
4.9302201 2.6782506 1.1792676 75
4.9524045 2.7829483 1.1501286 74
4.9544897 2.8884947 1.1171415 82
4.9569898 3.0901258 1.156369 85
-1.1501176 3.2709088 1.1273699 29.5
-0.97760093 3.278461 1.1011288 37.5
-0.68915009 3.2867162 1.1281726 44
-0.39292395 3.2777739 1.122479 46.5
-0.22777534 3.2843895 1.1233159 40.333332
0.012697455 3.2879546 1.150399 37
0.18439043 3.2922122 1.0900173 36
0.54902029 3.2971127 1.0950818 36.5
0.64485615 3.293298 1.1293346 35
1.2538896 3.2948298 1.0670286 2
4.6917977 3.2706752 1.0500998 30
0.71586603 3.3064902 1.1521244 41
1.0416532 3.3056829 1.1668011 36
1.1559858 3.3021915 1.1658173 36
1.2549284 3.3095417 1.1151087 19
4.22931 3.3138313 1.066082 15.5
-2.9439793 -3.3903248 1.2050941 1
-2.9562006 -3.0950513 1.2128484 0
-2.9575422 -2.965328 1.2094371 25
4.9265804 -2.9375055 1.2921829 4
-2.9686859 -1.3790606 1.2736182 72
-2.9676971 -1.3168521 1.3139241 53
-2.9681709 -1.1087009 1.2772422 36
-2.9800189 -0.91556036 1.2345537 4
4.9580359 -0.91950911 1.280764 74
-2.9669528 -0.86291176 1.2761458 9
4.9554486 -0.82980126 1.267258 76
4.9549861 -0.68108004 1.2169312 76
4.9594865 -0.59352946 1.2165879 75
4.9310284 1.3043885 1.2039691 79
-2.9817343 1.4159269 1.2561045 89
-2.9790606 1.5766051 1.2778316 83
4.9399915 1.5599834 1.2609262 24
-2.978529 1.6858879 1.2822531 61.666668
-2.9757948 1.8316081 1.328019 1
-2.9734583 1.9703923 1.280093 82.5
4.9417286 2.4187593 1.2295917 88
4.9393601 2.7505386 1.3001928 68
4.9619541 3.0804343 1.3045185 78.5
-1.1389558 3.2885714 1.250352 21
-0.88856542 3.2908549 1.2504151 40
-0.6186223 3.2733023 1.3049196 40
-0.5038709 3.2719967 1.2628769 38.5
-0.39227548 3.2865024 1.2783177 43.5
-0.1710237 3.2924809 1.2942762 34.5
0.0070274891 3.2911325 1.2631259 41
0.36902457 3.2968898 1.2355957 36.5
0.49951467 3.296715 1.2566869 38
0.80811816 3.2963638 1.3287468 10
4.6707754 3.2576761 1.2325314 34
4.9426908 3.235754 1.2121615 75
4.9554982 3.2264099 1.3135918 83
0.83169991 3.3016543 1.2669142 34
0.96601248 3.3012669 1.2747056 37
1.1085415 3.3069084 1.2148255 37
1.2650901 3.3173273 1.3140181 34
4.049994 3.3105032 1.2292256 14
4.2554312 3.3096042 1.2699281 13
4.5075774 3.3031528 1.2265837 14
-0.9226023 -3.7438114 1.4520265 1
-2.9692926 -3.0066648 1.485579 56
4.9406648 -2.9143748 1.4988835 2
-2.9647157 -1.6700791 1.4882226 69
-2.9640276 -1.5218272 1.4694147 44.25
-2.9683313 -1.3836694 1.4694889 66
-2.9695258 -1.2916393 1.4196718 29
-2.9740727 -1.1184801 1.456347 22
-2.9632871 -1.0447472 1.4102485 9
4.9407744 -0.63379639 1.4975114 66
4.9401712 -0.58899385 1.4849534 67
4.9365292 -0.39582789 1.4505529 65
4.9343662 -0.18100077 1.4193833 65.5
4.9295778 0.033377036 1.3963027 64.5
4.927093 0.24706525 1.3835845 64.5
4.9294648 0.43929708 1.4068695 65
4.9244447 0.48678291 1.3540915 66
4.9302568 0.68184131 1.3868814 64.5
4.9266338 0.87158996 1.4327499 66
4.9382925 0.93602788 1.3738219 41
4.9327478 1.1303976 1.4288062 68.5
-2.9802647 1.3280991 1.3593986 83
4.9248476 1.317955 1.4982827 69
-2.9773471 1.4011555 1.4192456 86
4.9344811 1.4031038 1.4282788 79
-2.9860008 1.572311 1.4490626 79.5
-2.9807456 1.6510099 1.4792163 88
-2.9850929 1.8845071 1.4468139 5.6666665
4.9249077 2.4744382 1.4311739 78
4.9366364 2.71176 1.3790106 73
4.9565253 3.0813031 1.4471829 75.5
-1.5536526 3.2600472 1.4841447 39
-1.4303129 3.2789853 1.4224023 32
-1.1037021 3.2908328 1.3813993 6
-0.80968302 3.2714431 1.4941878 40
-0.6928646 3.2730906 1.4337466 38
-0.58890355 3.2831688 1.4343917 43
-0.35864878 3.2950878 1.4481188 37
0.22323187 3.2921503 1.3839613 36.333332
0.39304283 3.2954631 1.4371641 40
0.61936086 3.2963874 1.4461827 36
4.6481204 3.2791603 1.3894833 15
4.7217169 3.2497873 1.420085 34.5
-0.16326134 3.3134074 1.421478 10
0.63120449 3.3041801 1.379791 38
0.77005339 3.307487 1.4245919 10.5
1.1039788 3.310688 1.4629796 33.5
1.3258134 3.3011761 1.3621833 1
4.0928731 3.3046908 1.3823694 15
4.2622662 3.3044593 1.3867047 14
4.5408998 3.3016207 1.3581556 5
-2.9499414 -4.1018629 1.5181597 53
-2.9681892 -4.0360894 1.5513139 52
-2.962491 -3.7818048 1.601753 57
-2.966269 -3.6132176 1.5212406 56
-2.9669318 -3.5379968 1.516891 51
-2.9611502 -3.2356555 1.552247 54
-2.9582951 -3.1315832 1.5508964 49
-2.9584074 -1.7282404 1.6032462 51
-2.9630466 -1.5984838 1.6173313 46
-2.9646573 -1.456691 1.5894158 25
-2.9694216 -1.2773368 1.5803702 17
4.9634809 -1.0273708 1.6098223 68
4.9382105 -0.82805431 1.5398788 65.5
-2.9854221 1.3218806 1.5390451 33
-2.9727364 1.4378653 1.6198484 90
-2.978575 1.5828098 1.5480796 86
4.9223733 1.548898 1.5469307 72
-2.9739337 1.7065997 1.6134042 80
-2.9864438 1.8618783 1.5296887 83
-2.9877989 2.0063746 1.6172136 6
4.9267974 2.6184821 1.5632761 76.5
4.9278383 2.7587712 1.543967 67
4.9449158 2.9105148 1.6405576 79
4.9607563 3.0450335 1.5346971 79
-1.7263384 3.2625935 1.6182399 41
-1.6373613 3.2750545 1.5682749 38
-1.3186187 3.286252 1.5677534 40
-0.92251319 3.2647059 1.6381303 40
-0.81637311 3.2681463 1.5671306 41
-0.54829907 3.2853107 1.606847 39.5
-0.33722952 3.2931988 1.5684384 41
-0.021115948 3.2900429 1.5541512 36
0.055727627 3.2921124 1.5688113 38.333332
0.20778717 3.2970223 1.5690271 41
0.42903849 3.2933462 1.6059215 37
0.60173965 3.2973874 1.5110575 37
1.0153959 3.2980287 1.6359586 33
4.7343941 3.2522178 1.592011 34.5
0.58832544 3.3047311 1.5848231 37
0.88478202 3.3086936 1.5826806 33
0.95549923 3.3126907 1.6120034 32
1.2384189 3.3073487 1.5487574 16.5
4.3174677 3.3099279 1.5421501 13.5
0.8890807 -5.3053498 1.7927192 1
0.57589334 -5.0355082 1.7949048 28
0.51176322 -4.8172045 1.790032 24
0.28073639 -4.7781358 1.7994114 47
0.45573133 -4.6534615 1.7953945 18
-2.2441921 -4.5845723 1.7985691 18
-0.86483568 -4.62534 1.7855552 45
0.024894964 -4.6281781 1.7307531 50
-2.9712842 -4.3852572 1.6626588 46
-2.7811544 -4.4062657 1.7956651 51
-2.5113714 -4.3839235 1.7967454 18
-1.9377695 -4.4677286 1.7608348 17
-1.7122812 -4.4453945 1.7651433 17
-1.5030847 -4.429112 1.7690779 16
-1.315322 -4.3871169 1.7676634 50
-0.89612991 -4.4702911 1.7750608 26
0.19626062 -4.4032712 1.7934693 45
1.6793301 -4.3750005 1.7842773 24
-2.9548936 -4.2371879 1.6956381 52
-0.70617807 -4.343482 1.7316045 55
-0.53432029 -4.3081102 1.7321869 54
-0.37390116 -4.2824359 1.7342654 56
-0.23704363 -4.2501411 1.7387608 53
0.15440042 -4.2723317 1.7926341 47
1.1409945 -4.2648644 1.7669431 10
-2.9534464 -4.1159248 1.7497867 52
-2.3139853 -4.1286502 1.798748 20.5
-1.0973557 -4.0599747 1.7817708 29
0.49594533 -4.1099381 1.7758778 15
1.3126326 -4.0952582 1.7963151 55
1.5654467 -4.1840796 1.7887808 42
-2.869132 -3.9077497 1.7969126 53
-2.6061044 -3.9043052 1.7953891 49
-2.0919526 -4.0087156 1.7691776 16
-1.8704631 -3.9996271 1.7693433 20
-1.6639555 -3.9955065 1.7694696 20
-1.4824268 -3.9890103 1.7789432 21
-1.2095988 -3.9920449 1.797901 51
-0.76385707 -3.9472349 1.7399052 56
-0.60171616 -3.9304664 1.7400807 52
-0.46246088 -3.9120383 1.747142 55
-0.0863612 -3.9860277 1.7952393 54
1.2291824 -3.9435544 1.7978212 57
-2.965241 -3.8142371 1.794732 59
-1.2241545 -3.8266549 1.7930739 50.5
0.19774415 -3.8023129 1.7683886 40
0.33160871 -3.7815683 1.7762083 12
0.98897654 -3.8205719 1.7961222 52
-2.9632201 -3.6352053 1.6968389 55
-2.4395819 -3.6129348 1.7974292 52
-2.005393 -3.6015019 1.7738448 59
-1.8036194 -3.6147008 1.7739369 60
-1.6229511 -3.6192565 1.7807914 56
-1.2737223 -3.6988373 1.7926348 57
-1.1330451 -3.6178603 1.7484087 54
-0.95983893 -3.6114433 1.7445446 57
-0.79838806 -3.6117327 1.7457739 55
-0.65704381 -3.6051917 1.7531689 58
-0.32678607 -3.623836 1.7920653 53
-0.29712141 -3.6950424 1.7932178 47
0.75853139 -3.6771719 1.7992901 48
0.92682129 -3.7003314 1.7952353 59
-2.9554908 -3.5068603 1.7495877 59
-2.6936536 -3.4869876 1.7993904 56
-2.5346012 -3.5221498 1.7981006 60
-2.219125 -3.587059 1.7716504 62
-1.3528769 -3.4965358 1.7968751 47
-1.3468027 -3.5843935 1.7979072 51
-0.058886413 -3.5362959 1.7738761 51
0.077433124 -3.5145016 1.7742625 24
0.2096367 -3.5207477 1.7925657 1
0.68059731 -3.5150082 1.7928227 50
-2.9641078 -3.3275824 1.7749456 61
-2.4304678 -3.3052723 1.7996057 52
-1.4032922 -3.3882985 1.7948152 52
-1.1337434 -3.3144195 1.7548045 61
-0.96987629 -3.3185725 1.7499985 56
-0.82766199 -3.3209908 1.7560135 56
-0.52230513 -3.3448083 1.7964076 54
-2.9598641 -3.1510768 1.7090214 57
-2.3327804 -3.2106662 1.7779552 57
-2.1220164 -3.243315 1.7790645 60
-1.9258274 -3.2738907 1.7796458 58
-1.7471985 -3.289582 1.7857791 60
-1.4728755 -3.1543331 1.7959367 47
-1.3051622 -3.2967081 1.754331 56
-0.28577664 -3.2686849 1.7708517 61
-0.078988798 -3.2698116 1.7819929 24.5
-2.9574094 -3.0405841 1.7143409 53
-1.5276899 -3.0612843 1.7913328 49
-1.2838268 -3.0259917 1.7589422 53
-1.122408 -3.052346 1.7577759 58
-0.97746921 -3.0606103 1.7599889 58
-0.67931604 -3.0978882 1.7959555 60
-0.48617706 -3.034585 1.7774945 58
-0.34269145 -3.0364277 1.7780997 46
-0.20739213 -3.0386786 1.7825555 21
0.20634599 -3.0473137 1.7873083 28
-2.4342685 -2.8716085 1.7886466 58
-2.2294071 -2.9196403 1.7880253 62
-2.0338106 -2.9602432 1.7846159 66
-1.8566365 -2.9880402 1.7908765 73
-1.5608041 -2.9012461 1.7999827 52
-1.4511465 -2.990999 1.7553138 62
0.043334436 -2.8908231 1.7953473 10
-1.9490016 -2.7024317 1.789589 64
-1.6609062 -2.7409408 1.7906269 62
-1.5907751 -2.7849817 1.7848649 57.666668
-1.4168861 -2.7636223 1.765494 59
-1.2580216 -2.8041284 1.7662796 62
-1.1111459 -2.8203201 1.7654613 62
-0.8460052 -2.8342044 1.7972265 60
-0.6645087 -2.8142669 1.7865955 51
-0.51875967 -2.8260019 1.7862688 34
-0.37982458 -2.8380661 1.7901245 21
-2.3140867 -2.6065137 1.7869655 57
-2.1226251 -2.6603909 1.7830178 60
-1.6654699 -2.5627027 1.7990729 62
-1.3778563 -2.5680251 1.7728094 46
-1.2307552 -2.5982049 1.7745143 39
-0.82326996 -2.5979455 1.7910038 34
-0.67575145 -2.6225688 1.7925333 28
-0.15328629 -2.6785107 1.7958351 4
-0.12841217 -2.6957223 1.797706 5
-2.5149417 -2.5432122 1.7881354 58
-2.0360343 -2.4435737 1.7941643 63
-1.7217345 -2.4804277 1.7851073 63.333332
-1.5380149 -2.5225878 1.7761608 34
-0.30763003 -2.4968939 1.7940172 3
-2.3938565 -2.320478 1.7919213 62
-2.2122772 -2.3947229 1.7936593 64
-1.6425194 -2.2875986 1.7827972 29
-1.483847 -2.3431389 1.7760316 28
-1.3397065 -2.3865016 1.781207 28
-0.96490628 -2.3926489 1.7995824 12
-2.5866885 -2.2375939 1.791021 64
-2.2814665 -2.1300437 1.7905272 53
-2.114888 -2.2002373 1.798957 48
-1.8260484 -2.2166815 1.7884196 42.5
-0.57234728 -2.1604016 1.7994598 9
-2.4682503 -2.0518279 1.7989868 49
-2.9604235 -1.8551428 1.7481191 51.5
-0.96976626 -1.8035045 1.7967042 21
-1.2434658 -1.6909159 1.7968963 11
-1.0769622 -1.7015979 1.7933414 30.5
-2.9661837 -1.5392532 1.7486748 23
-1.8063028 -1.5278127 1.7843465 3
-1.6692171 -1.6166435 1.7908055 0
-1.3850697 -1.609947 1.7963194 11
-1.3210692 -1.5143369 1.7914871 44
-1.1565771 -1.552454 1.7954328 55
-1.954272 -1.4099185 1.7957245 4
-1.7357113 -1.4415282 1.7965378 33
-1.4301355 -1.3904213 1.7995582 57
-2.0550702 -1.2949855 1.791599 16.25
-1.8720459 -1.3446392 1.7940222 36
-1.7919427 -1.2668196 1.7960392 56
-2.1480694 -1.0992686 1.7953204 53
-1.844541 -1.0981048 1.7962373 71
-2.0175343 -1.0064244 1.7959063 70.5
-2.1933556 -0.89288032 1.7988485 67
-2.2307441 -0.68702561 1.7999452 70
-2.9802556 0.42227829 1.6772939 4.5
-2.9701037 1.2797617 1.788184 82
-2.9730909 1.4889973 1.6542307 81
-2.9741113 1.5612341 1.7927004 84
-2.9784617 1.7914385 1.6575087 73
4.5916867 2.3882322 1.7272204 33
4.9214149 2.2854767 1.7644171 25
0.85950369 2.5223296 1.7728146 8
0.96419376 2.5015361 1.786791 6
4.9155607 2.4310215 1.6844763 74
1.0035572 2.6322467 1.7956823 27
4.5886235 2.825917 1.7707409 73
4.926475 2.7248352 1.7939645 24
4.9517102 2.9521146 1.7639576 76
4.5900016 3.0399818 1.766951 69
4.9505305 3.0654855 1.6814533 81
-1.8381422 3.2573524 1.7329654 41
-1.5714855 3.2875583 1.7328405 36.5
-1.2845358 3.29456 1.6627988 44
-1.0515631 3.2661655 1.7869364 21
-0.99546206 3.2699518 1.7116187 43
-0.7820431 3.293438 1.7097385 42
-0.51267242 3.2966225 1.7390033 43
-0.18441997 3.2934842 1.7667571 23.5
-0.092705213 3.2896209 1.6893815 29.5
0.039689165 3.288409 1.7720736 33
0.25102741 3.2927229 1.7456386 34
0.42376691 3.2968802 1.7194923 36
4.5458279 3.2919564 1.7859057 12
4.7106566 3.2196062 1.7310187 26
4.9380603 3.2274578 1.7869471 72
0.7116558 3.3140984 1.7366675 34
0.81145024 3.3117876 1.7555695 18.5
0.90797347 3.3081708 1.7671496 35
1.0897936 3.3122048 1.666087 34
1.2506872 3.3023913 1.7965535 1
4.0028887 3.3157334 1.7379025 6
4.1187901 3.3016596 1.7694317 13
4.3985977 3.3222141 1.7114846 13
4.5032911 -4.9568768 1.8112997 24
0.24229242 -4.5739784 1.8016084 45
-2.9536011 -4.364572 1.8013793 58
-2.2996435 -4.4076943 1.8003777 18.5
3.8584621 -4.4075484 1.8112975 0
-2.2423704 -4.3387022 1.8055443 17
-0.014177131 -4.3156776 1.8021599 46
-0.037300605 -4.1571798 1.8003863 53
1.155012 -4.178823 1.8018578 48
-2.441416 -3.965199 1.8008741 17
-2.3774385 -3.9028285 1.803739 21
-0.2591103 -3.9098744 1.8035175 51
1.0647331 -3.9752929 1.8030185 56
-2.3164477 -3.8419943 1.8061479 16
-0.27254239 -3.7912357 1.8009199 49
0.81957692 -3.8354418 1.8013045 40
-2.3630295 -3.72528 1.8022777 21
-2.4647872 -3.4918644 1.802678 57
-0.46818382 -3.5136747 1.806 51.5
0.53549629 -3.5295835 1.8012358 21
1.2750071 -3.5101097 1.8195902 56
1.3545256 -3.4620249 1.8167156 52
1.759387 -3.5314133 1.8152004 47
1.9547269 -3.5242105 1.8121523 48
2.1499381 -3.5130138 1.8090111 50
2.327167 -3.4643128 1.8082834 47
2.6765475 -3.5813498 1.8038458 15
-2.3732917 -3.4000635 1.8005668 41
-0.49475417 -3.4049475 1.8019313 53
0.48151901 -3.392272 1.8139663 36
0.97250623 -3.3214352 1.8107361 54
1.4489818 -3.3846223 1.8181472 51.666668
1.628096 -3.3443289 1.8210355 42
1.8167179 -3.3505626 1.8085989 49
2.0026014 -3.3366094 1.8075582 53
-2.5205948 -3.2171209 1.8020231 52
-1.4645301 -3.2270226 1.8008288 52
-0.63998467 -3.2006574 1.8036616 56
0.27291894 -3.1936493 1.8195218 13
0.36496457 -3.2924523 1.821632 29
1.107805 -3.2703238 1.815871 53
1.2728418 -3.1986828 1.8219328 49.5
1.5171739 -3.1900644 1.8075093 46
1.7057583 -3.2070484 1.8061324 56
2.6662784 -3.1849799 1.8251113 47
-2.7696016 -3.1063478 1.8018414 58
-2.6253891 -3.1371551 1.8046061 58
-2.4922252 -3.0836883 1.8107028 53
0.24175139 -3.1316178 1.8161021 19
0.70219892 -3.1397831 1.8075999 54
0.84930432 -3.0947037 1.8126528 55
0.96438092 -3.0582809 1.8166109 57
1.1355197 -3.0940638 1.8162402 55
1.2505181 -3.0374491 1.8100072 54
1.4377799 -3.0824707 1.8094729 51
2.1804523 -3.0047743 1.8248554 50
2.2940478 -3.0333526 1.8219141 51.5
2.5129664 -3.0836952 1.8198823 46
2.6268673 -3.0685639 1.825431 40.5
-2.5895357 -2.8574553 1.8040816 56
-2.4984102 -2.9455585 1.8069617 52
-0.79689473 -2.9040091 1.8051486 57.333332
0.058103379 -2.9405167 1.8048239 6
0.51473695 -2.9530528 1.8083119 51.5
0.70552415 -2.9017243 1.8133609 59.5
0.88041002 -2.8872395 1.8104802 60
1.0058889 -2.8793173 1.804581 52
1.1250627 -2.9564652 1.8079712 53.5
1.8853626 -2.892947 1.819342 48.666668
1.9956172 -2.9258566 1.82367 48.5
2.1875916 -2.9846265 1.8174444 50.5
2.3254762 -2.9315724 1.826507 48
-2.7705421 -2.7727418 1.8078362 58.5
-2.616982 -2.7994046 1.8095816 47
-0.09891779 -2.7506328 1.8071578 2
0.24418588 -2.8056076 1.8124806 18
0.35693848 -2.7758393 1.8089699 52
0.50524294 -2.7450652 1.8147907 63
0.66070122 -2.7011366 1.812013 67
0.80992436 -2.7619741 1.8073684 59
0.96201223 -2.8206544 1.8055724 62
1.3373578 -2.7358308 1.8083011 54
1.3936431 -2.7062211 1.8099493 51
1.6099945 -2.7878046 1.8187194 52.333332
1.7271724 -2.7756712 1.8209695 49.333332
2.013073 -2.8148525 1.8195447 30
2.1630487 -2.766608 1.8168882 46
2.4524217 -2.8402059 1.8185109 45
4.516571 -2.7073979 1.840499 31
-2.5565124 -2.615154 1.8128988 57
-2.4829972 -2.6916087 1.815766 56
-1.6432955 -2.606128 1.8000861 67
-0.94004208 -2.6458192 1.8082753 41
-0.53655809 -2.6535525 1.8029763 7
0.22373182 -2.6123323 1.8134723 45.5
0.36979264 -2.5876355 1.8209692 62
0.57910359 -2.5792456 1.8088208 58
0.62823159 -2.6380327 1.8163606 60
0.75341958 -2.6883416 1.8025597 65
1.1336168 -2.6255178 1.8105727 54
1.2730609 -2.5773559 1.8151335 57.333332
1.4762812 -2.6585705 1.8164749 51
1.6442378 -2.5937653 1.8099428 47
1.850824 -2.6354027 1.8169229 46.5
2.0465901 -2.643466 1.8208698 50
2.2271092 -2.6278002 1.8271195 48
2.2743633 -2.6626229 1.8247449 48.5
-2.7691896 -2.453429 1.8116156 57
-2.6715789 -2.5156398 1.8145713 47.5
-1.0634648 -2.4055195 1.8087848 24
-1.0271454 -2.4363639 1.8147292 25.5
-0.81789511 -2.4352741 1.8046001 5
-0.26262012 -2.5290673 1.8032579 2.6666667
-0.0060863076 -2.4580412 1.807067 24
0.11237173 -2.4567552 1.8167533 64
0.20860626 -2.4387434 1.8180655 69
0.4159528 -2.4562166 1.8107442 59.666668
0.468261 -2.5290926 1.8173279 64
0.68132538 -2.4395111 1.8137091 61
0.82404613 -2.4749744 1.8147752 54.5
0.99034083 -2.4953594 1.8159306 54
1.0888934 -2.4549475 1.8207769 57.5
1.2362804 -2.4453864 1.8134316 51.5
1.3937477 -2.4784079 1.8114734 52
1.5775828 -2.5169873 1.8111655 52
1.6953931 -2.4176297 1.8292348 35.75
1.8608408 -2.4230518 1.8157481 45
1.9969034 -2.5059984 1.8259486 49.333332
2.123615 -2.4972551 1.8229815 43.333332
4.003119 -2.4351528 1.8309158 28
-2.5992146 -2.3015399 1.8109833 47
-2.5194244 -2.3764977 1.8145601 50
-1.7508088 -2.3022687 1.8023545 52.666668
-1.1032736 -2.3965111 1.8129863 24
-0.41112995 -2.3429804 1.8098288 5.5
-0.16312626 -2.3088403 1.8110088 19
-0.03998347 -2.3064501 1.8130797 46
0.06123988 -2.2922134 1.8127033 67
0.26374301 -2.3249731 1.8101811 63.25
0.53870988 -2.3178256 1.8196508 45
0.66184133 -2.2661278 1.8186289 60
0.8663246 -2.3294599 1.8204317 60
0.9734087 -2.3129559 1.8161411 59
1.1431385 -2.3359845 1.8153988 57.666668
1.3062552 -2.2542968 1.8197891 54
1.4346992 -2.3010316 1.8156687 55.200001
1.5631447 -2.3345358 1.8198189 40
1.7238308 -2.3300188 1.8313341 35
1.9382467 -2.3126147 1.8189994 46
2.0074499 -2.3860571 1.8197049 42
2.1595566 -2.3371186 1.8228005 44
3.6044328 -2.3360102 1.8265704 34
-2.7213318 -2.2140055 1.811832 55.5
-1.1375227 -2.2070875 1.8135195 0
-0.51898658 -2.1579401 1.8060721 18
-0.30479565 -2.1589367 1.8113896 23
-0.17850624 -2.1614387 1.8106076 44
-0.070234329 -2.1567857 1.8134423 67
0.11531299 -2.1826649 1.8108244 64.75
0.36587867 -2.1987817 1.8125428 63
0.53372979 -2.1409438 1.8149346 67
0.69847882 -2.167625 1.8178937 62.799999
0.83199978 -2.1959438 1.8170785 60.666668
1.026994 -2.1766844 1.8072697 56.5
1.1291989 -2.1449788 1.8177468 57.400002
1.2688688 -2.2140226 1.8187535 53.400002
1.3748823 -2.2167132 1.8165575 50
1.529865 -2.2437401 1.8154141 55
3.6222014 -2.2142949 1.8353642 33
-2.5545819 -2.0894001 1.8173062 36
-2.1914101 -1.9721682 1.808607 26
-1.8743596 -2.0276792 1.8106459 27.333334
-1.7804687 -2.0970194 1.8099159 31
-0.64068985 -1.9908373 1.8079396 33.75
-0.5703361 -1.9874593 1.8101202 3
-0.3689568 -2.0175509 1.8123536 43
-0.19044319 -2.0238168 1.8132886 77
-0.028399207 -2.0459878 1.8108519 72
0.046983059 -1.9931554 1.8123345 68.333336
0.20788413 -2.0824928 1.8093795 66
0.38113117 -2.008317 1.8160348 68.333336
0.53315794 -2.0275712 1.8155295 62.799999
0.68443376 -2.00108 1.8095751 59.666668
0.83918375 -2.0118892 1.81668 62.166668
0.96267211 -2.064945 1.8193333 63.400002
1.0546653 -2.0908642 1.8242799 52
-2.3565407 -1.8935186 1.8026241 22
-0.78940213 -1.8454359 1.8093323 48
-0.71212488 -1.8249083 1.809732 58
-0.55024797 -1.8704618 1.815828 41
-0.41883248 -1.8874983 1.8110238 70
-0.25834581 -1.8772893 1.8087355 78.666664
-0.10206547 -1.881512 1.8112999 74.599998
0.096886203 -1.8307556 1.8121043 73
0.2355924 -1.8516821 1.8142105 73
0.37922791 -1.8813279 1.8169718 65.5
0.54203027 -1.8662243 1.8158984 65
0.662772 -1.8748726 1.8179568 64.166664
0.76242954 -1.9161836 1.8185147 61
-2.8428288 -1.6815095 1.8177019 26
-0.81801862 -1.6716564 1.8108658 71
-0.65641695 -1.7229294 1.8110989 59
-0.50734288 -1.7045542 1.8152673 77.5
-0.38537192 -1.7038206 1.8105464 77.666664
-0.23627581 -1.7596941 1.811559 78
-0.052325841 -1.7096701 1.8130469 77.333336
0.10512327 -1.7252853 1.8123899 75.5
0.20762083 -1.7146015 1.813215 74.199997
0.3725633 -1.7205162 1.8144834 70.599998
0.50785303 -1.7437459 1.817503 72
-1.4069415 -1.6032363 1.8102366 18.333334
-1.326717 -1.6185157 1.8154775 23
-0.93970263 -1.5277537 1.8084943 75
-0.83987999 -1.5437537 1.8154501 72.666664
-0.61770064 -1.6267365 1.8154348 79
-0.53507835 -1.5431604 1.8103232 77.5
-0.36429629 -1.5722722 1.8164448 78
-0.22628456 -1.5692842 1.8135903 77
-0.082491226 -1.5639957 1.8144228 73.571426
0.076684557 -1.5809447 1.8137573 75.714287
0.23318602 -1.5579934 1.8140422 77.166664
0.35782465 -1.6194516 1.814711 73.666664
-1.5260134 -1.4090985 1.8108348 25
-1.4179167 -1.430109 1.8096892 59.666668
-1.2629584 -1.442922 1.801921 69
-1.1996554 -1.3702898 1.8056101 48
-0.98625338 -1.377558 1.8152999 33.75
-0.8242662 -1.4386635 1.8193984 44.666668
-0.68026805 -1.4572506 1.8210759 54
-0.51426584 -1.4145271 1.8203868 41
-0.35590893 -1.4186158 1.8212142 41
-0.19226274 -1.4176346 1.8184388 36.599998
-0.066124789 -1.4241146 1.8200976 41.42857
0.055690277 -1.4306266 1.8201227 35.200001
0.17798485 -1.4505498 1.8187571 43
-1.9404392 -1.2315308 1.8051277 34
-1.5459005 -1.2422501 1.8087863 54.333332
-1.4439118 -1.2635965 1.8151578 75
-1.2962 -1.2582843 1.8054159 75.5
-1.080673 -1.2350413 1.814031 79.5
-0.967834 -1.2749341 1.8155825 56.25
-0.8566246 -1.2438148 1.8201483 78
-0.65931416 -1.2896287 1.8174448 61.5
-0.51163471 -1.2483056 1.8201238 73.75
-0.35974371 -1.2562832 1.8199624 58.5
-0.21310239 -1.2868346 1.820009 48.142857
-0.062354248 -1.2686074 1.8171743 51.400002
0.072495453 -1.3096681 1.8199716 45.666668
-2.6487048 -1.0991244 1.8209833 17
-2.4042654 -1.1145033 1.8064922 8
-2.1524901 -1.094811 1.8048276 34
-2.0339835 -1.1723874 1.8041003 32.5
-1.9310402 -1.1653098 1.8000268 57
-1.5570585 -1.0823078 1.8124903 68.666664
-1.4400855 -1.1424599 1.8116455 72
-1.3211732 -1.0891817 1.8116418 77
-1.1332365 -1.0902475 1.821493 81
-0.98569572 -1.1267326 1.8210049 80.800003
-0.81338137 -1.107892 1.824592 88.666664
-0.68913084 -1.1273366 1.8215593 92.166664
-0.52876681 -1.1138288 1.8139127 70.333336
-0.37179533 -1.1136677 1.8149561 58.666668
-0.23518461 -1.1425003 1.8157201 56.625
-0.085318297 -1.1179783 1.8137703 55.5
-2.883508 -0.9030906 1.8119487 33
-2.8000133 -0.9642601 1.8136894 16.5
-2.5638032 -0.99049002 1.8107964 20
-2.4503427 -0.91519499 1.8103248 49
-2.1083343 -0.94855392 1.8079153 60
-2.0041997 -1.024349 1.8124912 63.5
-1.8949627 -0.93208283 1.8008748 70
-1.5931931 -0.96505439 1.8152874 58.200001
-1.4376761 -0.95740253 1.8124141 71.666664
-1.222248 -0.94597268 1.8246638 83
-1.1227109 -0.96790987 1.8245178 87.25
-0.97798938 -0.95757419 1.8254519 92
-0.81124163 -0.96580148 1.8250957 99.666664
-0.68329614 -0.96939671 1.8162563 68
-0.51597857 -0.96814471 1.8147922 66.777779
-0.35858768 -0.98213786 1.8122894 50.857143
-0.22999425 -0.952627 1.8127835 45.799999
-0.14443503 -0.98786151 1.8156122 39
-2.7508931 -0.81152856 1.8175449 16
-2.6363649 -0.82793891 1.8190747 50.5
-2.152669 -0.83019704 1.81363 55.333332
-2.0265863 -0.8247568 1.8101009 65.666664
-1.9421306 -0.76586944 1.8070594 70
-1.6777693 -0.87603855 1.8113533 76
-1.5564905 -0.80492717 1.8154205 64.333336
-1.4587729 -0.8230381 1.8124748 76.5
-1.2525046 -0.79979527 1.8264076 80.5
-1.1362894 -0.81518161 1.825784 89.199997
-0.94987386 -0.82204354 1.8211854 87.25
-0.80434299 -0.83241808 1.8180281 78.5
-0.66376841 -0.83304662 1.8212128 77.428574
-0.53897625 -0.81078476 1.8170652 72.714287
-0.39839202 -0.83228981 1.8163697 60.42857
-0.26975781 -0.82496488 1.816018 53
-2.4952676 -0.71782887 1.8158654 72
-2.1871748 -0.66770959 1.8077518 75.5
-2.0527208 -0.64292312 1.8114214 75
-1.705541 -0.71890557 1.8149639 68
-1.5905511 -0.6750921 1.8198366 57.599998
-1.4646294 -0.67240995 1.817921 74
-1.2545156 -0.65023482 1.8229679 83.25
-1.1178524 -0.67256457 1.8218131 76.75
-0.9847753 -0.66653651 1.8215491 77
-0.84014112 -0.67633796 1.8193359 79
-0.67597038 -0.6701135 1.8185153 79.727272
-0.53079277 -0.67928058 1.8168207 78.333336
-0.38155872 -0.68417454 1.816645 70.599998
-0.28010964 -0.73884839 1.819641 58
-2.2633693 -0.484083 1.8108205 66.5
-2.1735415 -0.50984919 1.8112953 72
-2.0036988 -0.55013537 1.8116523 72
-1.7015185 -0.55377203 1.8163303 68.75
-1.5659621 -0.50085527 1.8185949 71.5
-1.2893014 -0.50985718 1.8248689 86.75
-1.1368774 -0.51379216 1.8207117 71
-0.95691532 -0.51193196 1.8202978 79.5
-0.79750592 -0.52972811 1.8201187 84.714287
-0.681831 -0.50502151 1.8198369 81.14286
-0.51958972 -0.53159034 1.8224013 79.555557
-0.38083419 -0.55337256 1.8202173 74.333336
-2.1301897 -0.4187791 1.8141737 57.666668
-1.5751476 -0.37064305 1.8235694 69.666664
-1.3567185 -0.36259526 1.8259561 92
-1.2533737 -0.38501486 1.8206021 79
-1.1472229 -0.38298991 1.8224139 75.666664
-0.98949122 -0.357894 1.8188325 77.25
-0.80713087 -0.37938508 1.834592 54
-0.676301 -0.3680943 1.8306733 64
-0.51981336 -0.37110266 1.827044 76.166664
-0.41295701 -0.37870198 1.8256389 75.5
-2.2917209 -0.28175259 1.816183 10
-1.6043401 -0.24344979 1.8240533 40
-1.37885 -0.21696055 1.8263084 100.5
-1.2589182 -0.24786727 1.8215946 81.5
-1.1301306 -0.22699535 1.8220446 74.5
-0.99460077 -0.24882638 1.8203911 76.333336
-0.82335997 -0.22211473 1.8232765 75.416664
-0.65799415 -0.23374698 1.8270044 78.400002
-0.53113931 -0.21558765 1.8286747 71.199997
-0.44252843 -0.25880414 1.8248721 73
-1.5901958 -0.074006259 1.8278899 86
-1.3938048 -0.070426799 1.8258259 99.5
-1.2672766 -0.095401689 1.8187821 77
-1.1220962 -0.069722958 1.8229936 80.666664
-0.94877863 -0.079153739 1.8242002 79.166664
-0.81194866 -0.075826652 1.8252312 75.199997
-0.67971587 -0.087947704 1.8269422 76.25
-0.55062479 -0.076885484 1.828764 76.125
-2.2556276 0.11472306 1.8242091 77
-2.1359773 0.092138268 1.818531 66
-2.0397081 0.014617077 1.8112794 64
-1.8224337 0.12395622 1.825857 83
-1.7217121 0.081976652 1.826444 81.333336
-1.5998791 0.070471808 1.828077 82
-1.4045193 0.075720519 1.8285493 97
-1.2877705 0.050653636 1.825909 90.75
-1.1332864 0.088489532 1.8222893 78.25
-0.96730578 0.075582027 1.8245733 80.800003
-0.83001488 0.073332645 1.8249147 77.599998
-0.67945784 0.069087297 1.829465 78
-0.55314243 0.076488666 1.8278857 81.833336
-2.1673424 0.25897235 1.8207172 82
-2.0459058 0.18577592 1.8209316 79
-1.8216684 0.2267943 1.8264238 83
-1.7112747 0.22401592 1.826593 79.5
-1.604635 0.21705469 1.8269055 80
-1.4074963 0.22464699 1.8287452 99
-1.2730602 0.20943709 1.8235103 82.833336
-1.1133256 0.20844372 1.8238115 77.666664
-0.95453227 0.22492242 1.8219321 77.800003
-0.83345008 0.22169694 1.8257613 77.555557
-0.67468995 0.20711508 1.8295892 79.800003
-0.56497085 0.22954491 1.8320773 81.599998
-2.2690539 0.31172559 1.8275546 80
-2.1869035 0.42439282 1.8287277 66
-2.0404413 0.3579784 1.8209571 92
-1.8144701 0.33122262 1.8246175 73
-1.712093 0.38668564 1.827914 82.25
-1.6059794 0.36584896 1.8276697 73.5
-1.4030173 0.37533209 1.8278036 91
-1.2794057 0.3710539 1.8238025 84.5
-1.106239 0.3771354 1.8247013 76.400002
-0.95557272 0.35385194 1.8233571 77.25
-0.8145647 0.37619418 1.8251287 73.727272
-0.6835075 0.37163398 1.829019 76.166664
-0.55153376 0.35784805 1.8296093 80.166664
-2.7224987 0.59905702 1.8338939 78
-2.3140984 0.53381699 1.8237481 78.333336
-2.1817613 0.4769994 1.8391844 58.5
-2.0326071 0.53229296 1.8229543 81
-1.817506 0.49301177 1.8258629 84
-1.6903025 0.54039508 1.8273586 82.333336
-1.6032925 0.50726104 1.8301952 69.5
-1.3915437 0.52764082 1.8266386 90.5
-1.2651813 0.52360827 1.8264983 84.800003
-1.1006775 0.53786671 1.8301383 82
-0.98465633 0.52648544 1.824283 76.400002
-0.81488317 0.53092647 1.8375309 51.81818
-0.66288418 0.52393556 1.8275877 74.666664
-0.53800249 0.51961088 1.8287823 75.125
-2.2760766 0.71847045 1.8276395 75
-2.1786346 0.64217478 1.8264766 81
-2.0118864 0.70563436 1.8134741 96
-1.820506 0.65700126 1.829018 85
-1.7217993 0.68531036 1.8281488 81.199997
-1.5838792 0.65967762 1.8257782 69.5
-1.3761171 0.6823802 1.8293638 91
-1.253081 0.66519952 1.828604 89.400002
-1.0795712 0.66576076 1.8289256 83.5
-0.95365524 0.68102467 1.8230928 71.599998
-0.82931948 0.67128474 1.8276289 73
-0.68067932 0.66279358 1.8286961 73.333336
-0.53768599 0.69358158 1.8306353 74.400002
-0.42759365 0.69818312 1.8255756 81
-2.3357644 0.76347333 1.8287717 45
-2.1753025 0.84119421 1.8266423 80.5
-2.002636 0.88920212 1.823619 76
-1.8068897 0.8407591 1.8301538 85
-1.7178415 0.84716702 1.8304182 84.25
-1.5625501 0.8153106 1.8253806 78
-1.3645588 0.83634657 1.8281869 82
-1.2670447 0.82401371 1.8302596 87
-1.129019 0.79386193 1.8309153 89.5
-0.98637432 0.82080525 1.8288084 88.666664
-0.81628096 0.81742799 1.8259161 74.125
-0.67982316 0.82436258 1.8277357 69.666664
-0.52025765 0.83153927 1.8304056 71.14286
-0.38954732 0.83938652 1.8298968 76
-2.3053644 0.96662647 1.8265589 56.333332
-2.183465 1.0254056 1.8289887 75
-2.0884905 1.0491329 1.8242198 82
-1.7327181 0.97265142 1.827942 79.333336
-1.6139551 0.97928584 1.8304125 78
-1.4891372 0.99241799 1.8260075 82
-1.2698991 0.99104708 1.8282793 85.800003
-1.1287895 0.9247424 1.8344698 80.666664
-0.95177472 0.97939384 1.8291639 86.25
-0.81851828 0.97161931 1.8330748 84.800003
-0.66055626 0.99153948 1.8362108 85
-0.53263563 0.95006657 1.8295609 70
-0.38433719 0.98377407 1.8335594 74
-2.7505829 1.1993912 1.834572 73
-2.267988 1.1541715 1.8363227 68
-2.2207336 1.0938301 1.8366061 82
-1.9824464 1.0768687 1.8268141 77
-1.7126545 1.1018218 1.8284611 82
-1.6110061 1.1380825 1.8304726 65.666664
-1.4571654 1.1514046 1.8277148 79
-1.2716728 1.1352774 1.8281926 85.666664
-1.1403282 1.1326096 1.8319395 79.599998
-0.94135267 1.1275287 1.8318199 77.333336
-0.8048209 1.1170708 1.8318431 78.75
-0.66714001 1.1068426 1.8372821 84.25
-0.52098572 1.0959915 1.8378379 79.5
-0.40118009 1.1537741 1.8370472 77.599998
-0.27726549 1.1371555 1.8332478 79
-2.9095097 1.3087091 1.8292774 84.666664
-2.7666736 1.2659414 1.8346834 75.5
-2.3134074 1.2202121 1.8348536 78
-2.1869276 1.2672914 1.8337733 74
-2.0112004 1.26123 1.8269211 74
-1.7099906 1.2558041 1.8318096 78.666664
-1.5602862 1.2899129 1.8196481 78.5
-1.4154921 1.3094813 1.822292 81
-1.2262599 1.2993011 1.8250459 83.666664
-1.1332678 1.2970657 1.829203 76.666664
-0.97144574 1.2947245 1.8319126 74.666664
-0.81576872 1.2713866 1.8285346 71.75
-0.6867069 1.2589419 1.8329117 72.199997
-0.53937346 1.2598265 1.8368843 73.571426
-0.3852919 1.282671 1.8340987 71.333336
-0.25927636 1.2779665 1.8365481 72
-2.7690403 1.4597944 1.8369681 83
-2.2826335 1.4393576 1.841657 76
-2.1614494 1.4728916 1.83758 74.5
-2.0356135 1.4678838 1.8261243 82
-1.9240683 1.4667059 1.8276793 80
-1.694995 1.4203616 1.8349552 77.333336
-1.6047988 1.4452714 1.8392752 69.666664
-1.4223927 1.4794834 1.8269621 75.5
-1.2015963 1.4963109 1.8294359 39
-1.1274904 1.4317018 1.8299532 52.333332
-0.96334469 1.4941235 1.8344408 31
-0.79883599 1.4360888 1.8301667 48
-0.64944255 1.4191746 1.8301347 47.5
-0.49400264 1.4256096 1.8372189 44.400002
-0.36256987 1.4202712 1.8353751 50.714287
-0.21221943 1.4142956 1.8371451 42.5
-0.10472225 1.4653324 1.8411008 26
-2.9091976 1.5886806 1.8328 83.666664
-2.7658479 1.5236981 1.8347955 75
-2.2047961 1.5550544 1.8455638 3
-1.669102 1.6025109 1.8445789 73.5
-1.5853877 1.5852169 1.8471659 73
-1.0933014 1.5426346 1.8318059 37.25
-0.85288954 1.6375636 1.8354406 61.5
-0.67059934 1.5657243 1.8350586 36
-0.51047814 1.6312542 1.8316668 63
-0.36691824 1.5699347 1.8382896 41.833332
-0.23345654 1.5614587 1.8414012 36.166668
-0.10224331 1.5748351 1.8416526 40.25
-2.7788744 1.7335702 1.8360115 77
-2.6916323 1.7938975 1.8394152 62
-1.5842795 1.7065952 1.8370569 67.25
-1.4228603 1.6727623 1.8349055 70
-1.3243549 1.6574064 1.8323394 68
-1.0827937 1.6999195 1.8331578 66
-0.99080169 1.7135196 1.833709 64
-0.65207815 1.732857 1.8347634 64
-0.54142654 1.7008588 1.8316183 65.5
-0.33996001 1.7169358 1.8411597 64.333336
-0.2115386 1.7090822 1.8388649 68.199997
-0.077593155 1.71324 1.8386502 68.166664
0.054753911 1.7488341 1.8396257 71
-2.9503577 1.8968383 1.8275183 84.333336
-2.8407018 1.8210431 1.8331707 82
-1.5743951 1.8765163 1.8497214 43
-1.4070532 1.880764 1.8333496 65.5
-1.2672005 1.843202 1.8373507 64
-1.0690423 1.8613276 1.8381325 66
-0.96333122 1.8629251 1.8372113 61.333332
-0.82388914 1.8156618 1.8405052 56
-0.66185617 1.9357144 1.8436266 63
-0.50682992 1.8662392 1.8370432 62
-0.4444145 1.8093137 1.840428 60
-0.24764723 1.8509722 1.8463889 61.333332
-0.083013386 1.8615025 1.8443099 67
0.063715674 1.8826456 1.8448395 65.599998
0.19076706 1.9148003 1.844985 65
-2.7981236 2.0397584 1.8444086 6
-1.533926 2.0235615 1.8586669 59.5
-1.2461851 2.0576687 1.8407313 65.5
-0.95583075 2.0032473 1.8396022 60
-0.85479969 2.0523438 1.8394518 54
-0.73895663 1.9823161 1.8397952 59
-0.57367271 2.0964577 1.8423425 57
-0.39681041 2.0129857 1.8364526 58.5
-0.1843223 2.0311654 1.8411614 59
-0.060922999 2.0052967 1.8448168 63.400002
0.085995995 2.0335765 1.8448412 64.400002
0.234201 2.0318749 1.8426927 62.200001
0.34035575 2.0840025 1.8465422 62
-2.9853833 2.1973674 1.8132747 1
-2.8382232 2.128077 1.8371989 3.5
-1.7958984 2.1304431 1.8359271 69
-1.5707556 2.105931 1.8585917 68
-1.4637765 2.1671669 1.848915 64.25
-1.1224916 2.2397299 1.8430251 60
-0.90122223 2.1513512 1.8431412 59
-0.85638046 2.1594453 1.838817 55
-0.67572141 2.1869166 1.842029 53.5
-0.32519224 2.1898351 1.8360373 59.5
-0.26297489 2.1685529 1.8378655 56.75
-0.068238452 2.1823115 1.8478037 59
0.11681543 2.1803646 1.8472787 64
0.21810524 2.1746137 1.8452224 63.333332
0.39410257 2.1767201 1.8450018 63.200001
0.51372743 2.2172849 1.8504866 60
-1.7355592 2.3770976 1.8365132 72
-1.4736959 2.3227277 1.8633466 61.5
-1.2535896 2.3261683 1.8427243 53
-0.8138569 2.3055727 1.8427334 56.599998
-0.50346684 2.3054476 1.8455414 52
-0.19113474 2.3547559 1.8399692 61
-0.11899909 2.2976527 1.8452934 55.5
0.062381338 2.332912 1.8503929 65
0.25714153 2.3166792 1.8515886 62.25
0.38415265 2.3489661 1.8491026 58
0.52794874 2.2961831 1.848334 62.25
0.65477145 2.3626173 1.8495696 55.75
-1.845682 2.444278 1.8325175 72
-1.4137472 2.4384661 1.8564388 58
-1.1149994 2.5271285 1.8438379 58
-1.0351924 2.4583881 1.8480223 58
-0.78651553 2.4893281 1.8735365 15
-0.69474608 2.499629 1.857591 37
-0.59127808 2.4174273 1.8478819 49
-0.38547769 2.4927411 1.8494414 53.5
-0.081131369 2.4829562 1.837793 50
0.030828249 2.4593923 1.84843 57
0.20701529 2.4848573 1.8500134 62
0.35747266 2.5479133 1.8486942 59
0.52027059 2.4929097 1.8654306 41.200001
0.67010379 2.4702561 1.8488253 51
0.81816095 2.5013473 1.8463424 51.333332
0.94609767 2.540096 1.8489741 53
-1.6624309 2.6379883 1.8332919 73
-1.3922505 2.5861034 1.8632874 61.5
-1.3164353 2.6720276 1.8502696 59.5
-1.1962738 2.6019681 1.8450068 50
-0.93323904 2.6843457 1.8483657 58
-0.66552752 2.6228654 1.8457681 53
-0.45704591 2.6155827 1.8460101 46
-0.23391132 2.6364172 1.8486108 55
-0.037781525 2.5632036 1.8422672 64
0.044901162 2.6358595 1.8401295 56
0.19697657 2.6206424 1.8503608 57.5
0.36715633 2.639302 1.8482133 63
0.67230731 2.6302786 1.8492408 57
0.79395908 2.6333709 1.8298477 45.5
0.97746241 2.6265869 1.8295176 28.5
1.1138487 2.6485834 1.8521241 35.5
1.2064468 2.6719136 1.8547505 44
4.58848 2.6459978 1.8361017 74
-1.8852485 2.8265715 1.8352391 65
-1.7752265 2.7343111 1.8368047 69
-1.3215663 2.7794738 1.8662351 67
-1.0053196 2.7723482 1.8456498 57
-0.60505283 2.7204583 1.8473798 53
-0.53613287 2.7514954 1.846071 54.5
-0.304598 2.8243394 1.8453919 57
-0.27015638 2.73646 1.8514117 56
-0.090178654 2.8318844 1.8468808 63
0.12238732 2.7407579 1.8379543 59.5
0.21121845 2.8206911 1.8365111 58
0.37968847 2.7762661 1.8451993 55.5
0.53192174 2.7518675 1.8459544 60.5
0.86051905 2.8066864 1.8482862 51
0.98192209 2.7731428 1.8463875 42.666668
1.124671 2.7467031 1.8384197 33
1.2534366 2.8096082 1.8503883 46
1.3877957 2.7554049 1.8559715 46.5
4.3975868 2.8029799 1.8744978 32
-2.0164511 2.933511 1.8414768 72
-1.5862814 2.9363205 1.8431224 57
-1.2833139 2.9108608 1.86927 56.666668
-1.1194986 2.9067047 1.8422784 60
-0.81449026 2.9206583 1.843779 67
-0.50012398 2.9145298 1.8463449 58.666668
-0.34961611 2.9240489 1.8453859 59
-0.11147328 2.9423831 1.8494257 57
0.29917771 2.894063 1.8378152 64
0.30517745 2.9796095 1.8378876 55
0.58455884 2.9443512 1.8487827 51
0.72386897 2.9210134 1.848632 57
1.1386981 2.9554393 1.8563585 48
1.27531 2.9072564 1.8601109 26.5
3.8288972 2.9627199 1.8768116 33
4.1166306 2.894496 1.875986 32
-2.0352666 3.052706 1.8781902 58
-1.6947037 3.056761 1.8464569 70
-1.2135118 3.0818295 1.8726715 55
-0.94091177 3.1403039 1.8431841 54
-0.87911004 3.0330069 1.8460087 63
-0.37997928 3.0878391 1.8493371 58
-0.1319907 3.0488396 1.8493134 56
0.073264286 3.0471151 1.8509713 55
0.40181619 3.0228825 1.8400502 51.5
0.49631828 3.0710306 1.8409356 57
0.79008478 3.0578921 1.8507825 50
0.94041371 3.1020777 1.8544657 56
1.0594312 3.0015037 1.8570029 56
4.5263395 3.086004 1.8797611 27
-1.9885324 3.2131207 1.8548466 28.333334
-1.8539996 3.2194922 1.8318933 29.5
-1.4844004 3.2378633 1.8357018 24
-1.1666561 3.2190635 1.8671323 33.333332
-1.0149162 3.2553015 1.8416895 20
-0.70279497 3.2302053 1.8339846 32.5
-0.33684456 3.197742 1.8472636 48
-0.19958869 3.2156904 1.8390077 31.5
0.06538783 3.2163963 1.8462726 31.5
0.25893396 3.2679043 1.8493592 11
0.55263019 3.231163 1.8423512 29.5
0.68153548 3.2454753 1.8455756 28
0.83330697 3.1695435 1.855821 51
1.0292118 3.2271426 1.8538083 44
1.1070087 3.2645216 1.8413348 5
4.0418644 3.2573075 1.8550233 13
4.2000256 3.1708434 1.8791524 30
4.4316821 3.2384751 1.8621534 17
