# .PCD v0.7 - Point Cloud Data file format
VERSION 0.7
FIELDS x y z intensity
SIZE 4 4 4 4
TYPE F F F F
COUNT 1 1 1 1
WIDTH 124
HEIGHT 1
VIEWPOINT 0 0 0 1 0 0 0
POINTS 124
DATA ascii
1.0320731 -6.8262954 -0.77753836 1
0.49274665 -5.3359442 -0.80782247 1
0.61822629 -5.1120143 -0.80293739 1
0.40389699 -5.0343375 -0.81458849 0
0.48652923 -4.7200112 -0.80374038 3
0.48777407 -4.1555805 -0.80257839 7
0.602458 -4.0520277 -0.75444192 49
0.4555974 -3.943692 -0.79851037 6
0.4739694 -3.8318837 -0.81141442 7
0.41346067 -3.6090689 -0.8086834 1
0.44984603 -3.5878282 -0.80231768 4
0.5470292 -3.5831373 -0.80236506 5
0.47207081 -3.44051 -0.80687726 5
0.37935868 -3.0810187 -0.80126148 4
0.26062495 -2.9269452 -0.80403578 4
0.41783261 -2.8995326 -0.79571486 8
0.46764725 -2.9302528 -0.80703217 3
0.4139564 -2.7763321 -0.80288231 8
0.36368135 -2.6632664 -0.79999626 6.5
0.34216437 -2.4199147 -0.80180579 8.5
0.26422334 -2.2793906 -0.80173147 10
0.66368634 -2.2555881 -0.79386383 0
0.8374036 -2.0794346 -0.78248554 2
2.2145157 -0.088614792 -0.76022303 4
2.2019024 0.054268874 -0.76124686 4
2.4858654 0.091530748 -0.75341684 11
2.5771856 0.0024840052 -0.75526768 8
2.1987021 0.21828476 -0.76294583 9
2.4217188 0.26015168 -0.75234234 9
2.551657 0.1792099 -0.75324017 9
2.2008209 0.38455886 -0.75978655 9
2.4031227 0.4308013 -0.75368214 9
2.559361 0.35858509 -0.75055671 9
2.1798682 0.56821322 -0.76019222 11.5
2.3937869 0.60376716 -0.75143605 9
2.1648934 0.75912428 -0.76187903 9
2.2990043 0.75585115 -0.75519472 11
2.4198873 0.79355484 -0.75064987 7
2.0551765 0.95968491 -0.76525736 12
2.2014873 0.95235837 -0.75360727 7
2.1254971 1.1644299 -0.76342893 10
2.2462308 1.2639743 -0.76154763 5
2.3448238 1.2099049 -0.7564429 4
1.3634083 -8.7191429 -0.7056362 1
0.69364679 -6.0093422 -0.73875356 10
1.7640586 -0.62289345 -0.61523205 81
1.8251753 -0.48012841 -0.64413303 17
2.0125113 -0.37855119 -0.65669936 6.4000001
2.0217638 -0.25506213 -0.68864805 2
2.1002533 -0.25981086 -0.72750127 4
2.3396902 -0.21505386 -0.6748594 12
2.5349848 -0.090640411 -0.7103194 27.5
2.9920967 -0.053202424 -0.73817712 5
2.9505272 0.11099331 -0.73792064 7.5
2.8167946 0.26295441 -0.73953003 7
2.7668643 0.44483572 -0.74192232 7
3.0224609 0.33977956 -0.73525822 5
2.6032088 0.54963887 -0.74822164 8
3.1044939 0.55254292 -0.73379034 5
2.7129335 0.62474692 -0.73939627 6
2.6863389 0.75947738 -0.74494869 7
2.731936 0.82332414 -0.74045777 5
3.2063026 0.78280658 -0.72877091 1
1.5930349 1.0083945 -0.61651778 43
1.6932533 1.0102056 -0.6010173 10
2.122489 0.9833706 -0.6435082 0
2.3730059 0.96965581 -0.74767733 5
2.4806333 1.0062172 -0.74872649 4
2.801507 1.0229876 -0.74114126 6
2.0493538 1.1253526 -0.61926997 3
2.5607204 1.1133225 -0.68233788 6
3.4372454 1.0663037 -0.73123342 6
2.4778268 1.2471333 -0.68965316 36.5
2.5583701 1.2434316 -0.74185443 4
1.3349458 1.4901316 -0.65999943 84
3.6770017 1.3883352 -0.72318077 13
1.2403255 1.5988011 -0.66554034 65.5
1.8183184 -9.2488546 -0.4976193 61
0.68037635 -6.0037293 -0.57414532 11
0.54424524 -4.0180702 -0.5241397 1
2.2065451 -1.0779665 -0.58630872 11
1.7750192 -0.84012735 -0.5052886 58.5
1.4323385 -0.63185388 -0.53928411 3
1.6265038 -0.73323864 -0.57745492 28
1.766209 -0.68818784 -0.54789692 72
1.7474549 -0.55209643 -0.55015409 57.5
1.8801028 -0.47123134 -0.56494284 22
1.9629872 -0.45613775 -0.59144145 20
1.9669423 -0.35164192 -0.56774855 3
2.4385457 -0.30496857 -0.4536981 35
2.4352095 -0.26716104 -0.45823076 22
2.5102572 -0.1189924 -0.47716308 97
4.2370954 0.085680723 -0.53884524 80.666664
4.1986332 0.4115296 -0.58204508 79
4.2104359 0.33518732 -0.528772 86.5
4.1709762 0.57767296 -0.46564195 94
4.1698418 0.66338432 -0.5820266 85.5
4.1481638 0.84554958 -0.45798126 101
1.3135653 0.99314892 -0.52811873 50.75
1.4299723 0.98956794 -0.55826449 37.333332
1.6023569 1.0134958 -0.51824009 28
1.6954194 1.0236886 -0.59796858 22
4.134274 0.94235253 -0.56500673 101.5
1.2671063 1.0512913 -0.54692823 13
2.4816487 1.1472225 -0.57790715 90
4.1037426 1.1932374 -0.55086535 100
2.4603322 1.3261129 -0.54217583 94
3.6623929 1.3365452 -0.49674448 88
4.1005559 1.2532064 -0.52246678 128
3.6213295 1.380877 -0.46429911 41
1.2411619 1.5772235 -0.57595611 73
0.77280682 -6.0785971 -0.4338243 26
1.1881362 -0.59817594 -0.40701976 47
2.1621637 -0.43174925 -0.41725665 56
2.2708111 -0.4125582 -0.4297004 21
4.2425089 0.040617179 -0.44363186 96
4.2122364 0.30512893 -0.44724602 99
4.178185 0.56774193 -0.44137016 96
4.1491394 0.83189088 -0.42576587 106
1.2913311 0.99237078 -0.40194812 13
1.5281075 1.0034755 -0.44417194 32
2.2815144 1.0394241 -0.41253012 8
4.1163979 1.1134953 -0.44007087 103
3.6127734 1.2337768 -0.40291682 35
