# .PCD v0.7 - Point Cloud Data file format
VERSION 0.7
FIELDS x y z intensity
SIZE 4 4 4 4
TYPE F F F F
COUNT 1 1 1 1
WIDTH 1572
HEIGHT 1
VIEWPOINT 0 0 0 1 0 0 0
POINTS 1572
DATA ascii
5.0194459 -1.3858861 -0.16282023 83
5.0208549 -1.3307459 -0.17600892 92
-0.17512271 -0.60510075 -0.18999359 11
-0.038779344 -0.61082542 -0.168413 9.4285717
0.019919217 -0.61748099 -0.18452549 9.8000002
0.23563018 -0.63464606 -0.1607216 7.5
0.3607935 -0.64463407 -0.1655174 8.1428576
0.51049882 -0.65796727 -0.17185751 7
0.69186878 -0.66720498 -0.17498857 6
0.848239 -0.67862988 -0.18029337 5.6666665
1.016609 -0.68844002 -0.18296696 4
1.0670955 -0.6929152 -0.17885666 21
1.2923486 -0.71100819 -0.18756992 22.5
1.5825163 -0.72976351 -0.18431269 36
-0.48799863 -0.56983769 -0.17230237 9.2857141
-0.38764825 -0.57682824 -0.17230161 9.1111107
-0.2348976 -0.59485555 -0.17577977 9
-0.029246379 -0.59954333 -0.17142326 11
3.5565839 -0.38812611 -0.17955923 0.5
4.5446658 -0.205466 -0.17162949 20
-0.68152404 1.0407248 -0.17844376 13.888889
-0.52154195 1.0376339 -0.18025589 15.857142
-0.35131013 1.0258877 -0.1683042 21.833334
-0.29299852 1.0224915 -0.17189468 23
-0.05117251 1.0059665 -0.17482787 17.875
0.02150641 0.99816477 -0.19890672 18
0.25697774 0.97183961 -0.17397422 12.25
0.33880207 0.97232312 -0.16698648 12.666667
-0.78929555 1.0507187 -0.16839875 16
5.2194629 1.0794502 -0.19335474 88
1.9023311 1.3516356 -0.18440998 26
5.2432694 1.426816 -0.16731942 93
5.2601953 1.6946118 -0.19046459 86
1.9580818 2.0389555 -0.19714668 26.5
1.9568648 2.201072 -0.19971131 22
1.9928408 2.5638909 -0.16151056 14
4.982554 -1.6888986 -0.098627277 42
5.0007057 -1.6254373 -0.090642877 92
5.0165858 -1.383332 -0.039399896 90
5.0344796 -1.0871292 -0.083107539 90
5.0576239 -0.83242822 -0.077521585 45
-0.21514153 -0.60819763 -0.077284954 9.166667
-0.076789133 -0.6061725 -0.098333962 9.454545
0.043446887 -0.61184484 -0.072904021 8.8000002
0.2166723 -0.62615263 -0.10699949 8
0.36620829 -0.64415586 -0.088165477 6.4000001
0.53890675 -0.65773004 -0.070161201 6.5
0.67392421 -0.66974139 -0.083428107 5.6666665
0.85460109 -0.6821568 -0.061238356 4.5
0.98177034 -0.6902703 -0.03722224 4
1.1577044 -0.70312929 -0.065807141 12
1.4004153 -0.72204149 -0.09854541 15
1.5052955 -0.72595084 -0.027589237 18
1.7047775 -0.69739932 -0.075580291 4.5
-0.76694465 -0.54517645 -0.035801418 10.2
-0.6782915 -0.55263484 -0.052183527 10.619047
-0.52722317 -0.56468707 -0.066599503 9.8000002
-0.3899031 -0.57484847 -0.076893754 9.166667
-0.24976341 -0.58806354 -0.077803433 9.5
-0.10804014 -0.58900642 -0.044287924 9.2222223
0.071708098 -0.59164447 -0.098341517 3.5
3.4945121 -0.39082903 -0.032279316 150
3.6330895 -0.18443093 -0.057468478 13
5.0567174 -0.23248655 -0.14898783 57
1.7698314 0.13239737 -0.020115202 5
1.8680662 0.12084134 -0.088045724 3
1.7731158 0.212854 -0.079347 4.5999999
1.8718253 0.30870536 -0.077692114 9.5
-0.81274432 1.0488307 -0.10101271 4
-0.62893677 1.0381896 -0.11247467 9.8571424
-0.53301948 1.0360045 -0.12567078 12.666667
-0.38411599 1.0277903 -0.12317466 17.375
-0.17938949 1.0089873 -0.10352834 16
-0.10993442 1.0112193 -0.12952322 17.444445
0.11292547 0.97833633 -0.093198471 10
0.21088985 0.97809762 -0.12042546 12.5
5.2091799 0.96381438 -0.063774638 88
-0.78148711 1.0542516 -0.11821203 8.8000002
-0.7136569 1.0526608 -0.12451795 8.666667
1.8737421 1.1525165 -0.028872078 2
1.8947233 1.2759604 -0.090565942 16
5.2307377 1.2781212 -0.037049003 89
1.9052383 1.4278455 -0.055072639 25.333334
1.9109824 1.542922 -0.077812202 22.5
5.254622 1.5371549 -0.026855296 95
1.9277421 1.7297575 -0.098399729 23
5.2742386 1.788075 -0.12537947 96
3.6131892 1.9213343 -0.071012743 2
1.9464643 1.9554062 -0.057423923 23
5.0453143 2.0630302 -0.079336293 38
5.2881136 2.040086 -0.12779334 88
1.9619052 2.2326186 -0.131754 7
4.9555688 2.2450099 -0.068121023 86
1.9852021 2.3783438 -0.11608625 16
4.980608 2.3940215 -0.010760461 90
1.9930559 2.5262165 -0.078176208 16.666666
2.0015459 2.6608398 -0.060842671 14
2.0001676 2.8145299 -0.0021956014 13
2.0185995 2.9142931 -0.089505427 13
5.0065551 -1.4992077 0.13265079 86
4.8811283 -1.149933 0.029208267 30
-0.090204924 -0.75823402 0.12014311 2
0.19930001 -0.76467448 0.12980002 0
1.3128368 -0.88496131 0.14751458 150
1.4033724 -0.82612091 0.11647563 68
1.6738091 -0.79191589 0.094372317 64
-0.33107767 -0.64540774 0.053857561 11
-0.15359271 -0.61315471 0.027377659 4
0.13791661 -0.74965531 0.14895594 5
0.25836816 -0.62124765 0.0057919277 6.5
0.41024798 -0.63037843 0.011761422 5
0.54351342 -0.6408335 0.0045588864 5
0.72410136 -0.65408278 0.012793655 3
0.85130042 -0.66347277 0.0036863042 4
1.0851352 -0.70162863 0.02337485 84
1.3783497 -0.74203181 0.047842082 151
1.6914874 -0.72546047 0.10911137 8
-0.97779244 -0.48029283 0.089563519 0
-0.46991169 -0.57955432 0.01389053 9
-0.33886841 -0.58712041 0.014245796 9.5
-0.11314495 -0.59182727 0.0063680513 7.5
3.4211435 -0.59293056 0.0054623736 6
-1.0002271 -0.37405154 0.096549533 0
-1.0635293 -0.28545552 0.10370817 0
-0.94875306 -0.1919301 0.10243031 3
-0.71573228 -0.17653555 0.021967748 1.5
4.2556891 -0.22214603 0.14521593 4
-0.9511627 -0.13847148 0.09713915 2.8
-0.79622048 -0.087830402 0.030567721 1.3333334
1.7593923 0.1434844 0.039430436 8
1.8878233 0.11131746 0.08531069 8
2.0109811 0.13331948 0.068251602 2
1.7678366 0.21157821 0.072348118 3.1666667
1.8788809 0.31686968 0.083277844 3.5
1.882252 1.1813344 0.12742883 4
-0.83894712 1.2731729 0.047317717 1.2
1.8923153 1.2804651 0.058553692 9.333333
-0.83129114 1.3968768 0.050881874 3
-0.3359015 1.4537282 0.1317265 11.666667
-0.24146636 1.4457585 0.097396843 16.9
1.9013354 1.4299051 0.052931774 23.333334
-0.83004969 1.5307794 0.060721967 2
-0.17952973 1.5957041 0.10214815 152.5
1.9140414 1.5787431 0.082980096 24
1.9257988 1.7315514 0.087681256 23
5.2616944 1.6699035 0.033084657 89
1.9427031 1.9263138 0.11288953 22.5
3.4425752 1.8470656 0.043644454 0
5.2713752 1.8522455 0.031079048 100
1.9465284 1.9530232 0.034795877 23
5.0314236 2.0747728 0.080329977 33
5.2864156 2.0231113 0.081729881 91
1.9674616 2.202733 0.093485385 21.5
4.9581566 2.2422867 0.11708986 87
2.0137079 2.8402622 0.033123996 14
4.9879265 2.7689626 0.078999303 48
2.0176735 2.9293551 0.040107857 13.5
2.0252314 3.0414019 0.10047346 14
0.82308954 -1.0528888 0.26636976 11
0.98921353 -1.068399 0.29513574 41
1.1415448 -1.0826108 0.28645247 40
5.0213747 -1.1359516 0.22305155 78
-0.75234175 -0.94704074 0.29298931 10
-0.64977461 -0.95134264 0.2892445 9.333333
-0.5918417 -0.94895345 0.27504987 10.333333
-0.32417816 -0.95797426 0.27025345 10.8
-0.19326317 -0.90622604 0.29974848 3
-0.043962944 -0.99327034 0.28670993 9.333333
0.043306362 -1.004648 0.27603593 10
0.5492422 -1.04334 0.28358275 7
0.71558279 -1.0471129 0.28266215 37
1.374525 -0.95480192 0.25465736 44.599998
-0.75223482 -0.85764664 0.19780624 11
-0.17789645 -0.89542997 0.24712849 0
-0.001712966 -0.84636122 0.16062212 9
0.085022397 -0.75887376 0.22208078 5.7777777
0.18057702 -0.75461864 0.18182194 1
1.4272131 -0.84915578 0.2443046 50
1.567664 -0.86376798 0.19627789 41
1.6742624 -0.80773205 0.23755482 71.571426
0.10572682 -0.73518461 0.23191635 5.4444447
0.17648177 -0.74166411 0.19621551 3.8333333
1.694717 -0.70696443 0.22749551 3.6666667
-0.99566638 -0.50052309 0.21782821 1.2222222
5.0799747 -0.53972262 0.28021806 84
-0.98787957 -0.36028588 0.18459448 0.60869563
-0.87883079 -0.3749375 0.17300278 5
-1.0641923 -0.27929765 0.20253372 0
-1.0234959 -0.26706159 0.1801596 0
5.0623522 -0.10727573 0.27743596 19
1.7592812 0.13940866 0.23813951 2
1.8599437 0.094998755 0.1889258 5.75
1.9601452 0.1221675 0.15888709 5
5.205327 0.025694815 0.20429444 18
1.7624578 0.21394426 0.19506569 2
1.8194385 0.29099128 0.21913111 2
1.874842 0.31455699 0.21174163 5.3333335
5.1946082 0.91040039 0.15685707 81
1.8497455 1.1790762 0.28451368 0
5.219748 1.1257733 0.27696204 89
-0.78204972 1.3062608 0.23809683 1
1.8913852 1.302642 0.21692909 13.666667
5.2238388 1.2234071 0.16759121 82
-0.9192434 1.4577607 0.24959421 1
-0.80255646 1.4265243 0.20558356 1.3333334
-0.35546151 1.4274849 0.19014896 10.142858
-0.18474883 1.424489 0.29082179 19
1.9032604 1.4638025 0.23662794 20.5
-0.77986228 1.6278237 0.24637347 1
1.9002962 1.5041776 0.25681061 22
5.2471418 1.5466497 0.19192344 85
1.9318683 1.7189405 0.23946524 24
1.9373152 1.9147866 0.21285149 21.5
5.2792654 1.8848207 0.23107576 90
-0.11216272 2.0199459 0.2156232 0
1.9477684 2.009908 0.20062447 25
1.9509108 2.0011222 0.2909742 21
4.9624505 2.0997932 0.24673063 57
-0.032073345 2.1381235 0.23242643 18.5
1.9539838 2.1388438 0.24055754 22.333334
4.9718652 2.3639362 0.15414345 92
1.9837002 2.4727283 0.2180998 21
4.9871402 2.6939607 0.24549919 67
2.0327284 3.1868355 0.16682059 15
5.0013928 -1.4340385 0.31158054 81
0.82287943 -1.0551063 0.34753034 34.125
0.98050404 -1.0657018 0.36767015 36.166668
1.1286436 -1.0765876 0.36600339 37.166668
1.2495377 -1.0871226 0.33359075 40.333332
1.3701289 -1.0940708 0.37783259 41.200001
5.0251393 -1.0961552 0.40983546 82
-0.77414703 -0.93572086 0.39176002 11.333333
-0.68521267 -0.94796294 0.3693203 9.583333
-0.49842331 -0.95928973 0.39494273 8.909091
-0.39973578 -0.9667511 0.34884527 9.583333
-0.21023533 -0.97798312 0.40804046 9
-0.087395333 -0.98942423 0.34242767 9.1428576
0.12636267 -0.99615532 0.44181097 8
0.17272075 -0.91974086 0.43715966 8
0.5423106 -1.0318421 0.36119604 19.200001
0.66842067 -1.0420599 0.35877186 38.400002
1.3684078 -0.97122955 0.3680447 44.666668
5.0427499 -0.98102468 0.44083458 63
0.10540695 -0.77316177 0.43263045 6
1.4128273 -0.84827673 0.37365106 31.4
1.5682952 -0.83314908 0.34576815 15.5
1.6743813 -0.79324305 0.36329085 62.5
5.0548568 -0.81901157 0.34014964 39
-1.0037338 -0.61804891 0.35297284 1
-0.15675944 -0.70303923 0.40878904 3
-0.08464852 -0.72637504 0.40275985 3
1.6949444 -0.69931763 0.35838225 1.5
5.0737309 -0.69322157 0.37441403 87
-1.0572742 -0.56579024 0.41496158 0
-0.99011326 -0.55396336 0.33295622 2
-1.0541017 -0.30814844 0.39081419 0
-1.0121627 -0.38619319 0.41710767 0
5.1000571 -0.40212744 0.32352686 88
-1.1051762 -0.25514391 0.42091677 1
5.0954928 -0.29926318 0.43783218 85
5.109323 -0.2408071 0.42170888 84
-1.6973076 -0.10727354 0.39519286 10
-1.5369681 -0.092568882 0.3892931 15
-1.6955466 0.085564218 0.4030641 78.333336
-1.5726836 0.075636789 0.40682426 15.4
1.8644214 0.10890783 0.38718325 4
1.7604765 0.22547011 0.36078653 0
1.8554025 0.31394431 0.4060021 2
5.2022367 0.96851629 0.38131249 88
5.2182417 1.094975 0.33887833 92
-0.27199915 1.3436446 0.34301305 15
1.8860334 1.3132826 0.38470748 20.833334
5.2225838 1.2868508 0.40957713 91
-0.22191462 1.3844045 0.35869503 11
1.8997272 1.4386722 0.38882074 21.5
5.2451391 1.4289352 0.33293089 91.5
-0.14139733 1.5357074 0.35536414 8
1.9126135 1.5850824 0.39700857 21.333334
1.9176848 1.685225 0.34156442 23
5.2692184 1.7584487 0.37319002 95
1.9399906 1.8679858 0.40441725 20.5
5.0648584 2.0646315 0.4118194 33
5.252244 2.038018 0.40978032 70
1.9561583 2.2087576 0.33447376 11.666667
1.9694433 2.3756649 0.38267931 14
4.9641705 2.2514985 0.41846365 94
0.5820154 2.4734607 0.43710643 3
0.65977454 2.5122471 0.40509519 3.25
1.9766133 2.4657888 0.38796121 20
4.9595079 2.4342494 0.30887276 51
0.64170909 2.6563685 0.41329193 3
1.9878728 2.6481535 0.44575024 20
1.993876 2.7670112 0.36653891 17.5
4.9789295 -1.6544479 0.58954775 80
5.0080543 -1.3752306 0.4942196 79
5.0221019 -1.2697687 0.52214116 85
0.87597787 -1.0525652 0.535734 34.400002
0.97571182 -1.0607862 0.53685218 34.857143
1.1075279 -1.0696784 0.53594148 37.285713
1.2623302 -1.084854 0.53475767 36.166668
1.4456908 -1.0985644 0.5326699 24.799999
-0.79687399 -0.92833978 0.49169335 9
-0.64844513 -0.93991548 0.54341292 8.25
-0.55019528 -0.9486444 0.50732458 5.8888888
-0.35057601 -0.96120584 0.55104029 8.1999998
-0.25055608 -0.97178787 0.4886134 8.545455
-0.046506278 -0.96761477 0.58532488 13.6
0.077380404 -0.98856753 0.52368307 7.8947368
0.20084992 -0.97548944 0.51884794 5.1999998
0.5697673 -1.0265568 0.55708408 34.42857
0.67749125 -1.037634 0.54379362 38.615383
0.80182958 -1.0460268 0.53681469 39.111111
1.4282408 -0.99986833 0.47802776 3
-0.19961564 -0.77836025 0.52044708 4.3333335
-0.032343734 -0.81136036 0.56809729 5
0.060796469 -0.8110745 0.51118326 4.5
0.20116164 -0.85078359 0.47994173 0
1.4400328 -0.87259924 0.52088386 3.2
1.6237777 -0.86247325 0.57014918 3
1.6726173 -0.7997486 0.50072062 54.5
5.0493908 -0.8214764 0.53944445 61
-0.19089006 -0.70345235 0.50824451 3
-0.089282013 -0.74003834 0.52025831 5.1999998
1.6822886 -0.72005785 0.52811682 11.5
5.0526824 -0.73607212 0.58493489 68
-1.0156776 -0.52378303 0.52989626 3.8333333
5.0781879 -0.51868045 0.49797192 84
-1.0352888 -0.36713585 0.51456904 0
-1.7293344 -0.20463608 0.51160848 43.166668
-1.1185157 -0.24163219 0.51797915 1.7142857
5.0958052 -0.18485765 0.50044292 77
-1.7392093 -0.017014006 0.46585524 11
-1.6482427 -0.049114607 0.52172697 2
-1.7089622 0.032435317 0.45420164 36
2.0228324 0.14188932 0.46497524 4
5.2224221 0.098030575 0.4921819 12
5.1937475 0.94009942 0.54344678 83
1.8842406 1.2715871 0.52621627 11
5.2181387 1.2662145 0.51728684 85
1.8935728 1.4286454 0.53660005 20.799999
1.9080656 1.6029065 0.54968613 20.6
5.2464647 1.5808301 0.56456977 87
5.2599454 1.617715 0.45833641 93
1.9186016 1.7070382 0.51732737 20.799999
1.9297928 1.828837 0.54041171 18.333334
1.9432319 1.9987228 0.5735029 19
1.952556 2.077451 0.51929963 19
5.2803106 1.9563295 0.52173722 97
4.9496698 2.1590967 0.54595965 90
4.9688873 2.3675327 0.48530501 90
1.9843042 2.5190742 0.5063917 17
1.9882187 2.6657684 0.53269267 17
4.9791036 2.5968244 0.48313028 16
-2.572628 2.8093209 0.53808868 66
1.9960918 2.8012085 0.57471579 16
4.9947643 2.7343221 0.59633338 89
-2.5704544 2.8703358 0.58396989 72
2.0241797 3.0921366 0.5899266 15
-2.5538609 3.2428515 0.53073156 58.333332
2.033833 3.1713784 0.51913863 16
-2.9465876 5.1321678 0.54256451 88
4.9908428 -1.5566162 0.61684215 87
5.0084095 -1.4022985 0.70821238 87
5.0117931 -1.3125927 0.71042746 85
0.87027556 -1.0500157 0.63406861 30
0.98408347 -1.0577267 0.63986498 32.333332
1.1193004 -1.0669266 0.65324783 34
1.2813106 -1.0798374 0.65736985 32
1.4592123 -1.0960315 0.65046948 33.75
5.0306511 -1.0959828 0.61417162 86
-0.78388739 -0.92482424 0.70039594 8.75
-0.69603521 -0.93241024 0.67344028 8.4444447
-0.49351305 -0.94565481 0.69397151 8
-0.39732224 -0.95394021 0.67112219 8
-0.23133449 -0.95711881 0.69491857 7.5
-0.064668462 -0.98103672 0.6431973 5
0.18322714 -0.98099226 0.68594718 23.5
0.58179456 -1.0254852 0.66517025 45
0.66988593 -1.0338144 0.64291948 39
0.80225611 -1.0430532 0.65998167 36
1.4510055 -0.96533114 0.6311692 3.25
5.0355482 -1.0102315 0.64786053 80
-0.10098747 -0.80126506 0.68509054 1.3333334
0.07333114 -0.8791129 0.6251027 5.1999998
1.6639928 -0.80809528 0.62549734 50
-1.0042974 -0.52521801 0.60578001 5
5.0770245 -0.49027354 0.71621388 79.5
-1.0927888 -0.35332966 0.65751493 6.5
-1.0124009 -0.34975582 0.7071476 5.5999999
5.0948296 -0.39378154 0.72807771 85
-1.0971422 -0.29196119 0.73231781 5
5.1060948 -0.20105411 0.67589039 73.333336
-1.7373209 -0.058862854 0.66898209 30.833334
-1.7063551 0.014260579 0.73548549 23.5
5.2127771 0.082031414 0.6821968 9.5
5.2040596 1.0048134 0.65242136 89
5.2052145 1.1093061 0.7175737 86.5
1.8807039 1.2939913 0.64167202 22
5.22019 1.2650847 0.65634507 84
1.8912063 1.4019291 0.69997615 22.5
5.2325335 1.4020946 0.74529457 87
1.9010423 1.5442472 0.66293615 20.5
5.2383246 1.5247681 0.66198659 88
5.252852 1.6319537 0.74331701 90
1.9171438 1.7556787 0.69549936 19.5
1.9308306 1.8862051 0.64560539 19
5.2694907 1.8756746 0.67302102 89.5
1.9438868 2.0347798 0.70044798 16
5.0395622 2.0769434 0.74042618 30
1.9554363 2.2126622 0.6988284 10
4.9485087 2.1034777 0.64332104 81
1.9684012 2.3122151 0.69468844 0
4.962451 2.4632225 0.68867415 74
-2.7805448 2.7100806 0.68950468 72.5
1.9993026 2.8261886 0.64985859 14
-2.572773 2.8992848 0.69099885 67.400002
2.0048289 2.9537094 0.67855358 14.333333
2.0146399 3.0179591 0.66279602 15
-2.5527649 3.2633419 0.64259958 55
-2.5558836 3.3302619 0.69129992 54.666668
-2.5491116 3.301888 0.60025305 55
1.4881542 4.0879326 0.73440057 2.5
-3.3606086 5.0937586 0.72481543 70
-2.9189901 5.1282759 0.68579626 79.75
4.9866881 -1.5798407 0.80004793 43
1.4609863 -1.0897597 0.76476872 32
-0.80938053 -0.91440672 0.80975485 18
-0.64841342 -0.93097764 0.85418767 20.200001
-0.52994931 -0.94483292 0.82619393 12.857142
-0.33344984 -0.95873094 0.85163474 8.5
-0.23700806 -0.96697783 0.85228539 11.777778
0.16649693 -0.98770392 0.80588412 15
5.0407476 -0.9843995 0.843153 81.5
-0.12982298 -0.88896191 0.82275689 1
5.0555029 -0.75689566 0.76743042 78.5
5.0691624 -0.67048514 0.78364241 84.5
-1.0524085 -0.47058162 0.81389713 0
-0.96170902 -0.48562437 0.79025739 2
-0.97478878 -0.40438443 0.77449882 2.5999999
-1.6802579 -0.15837638 0.84423566 1
-1.0765904 -0.279755 0.81533611 3
-1.0059924 -0.28578493 0.79371792 2.3333333
5.0975442 -0.19806662 0.87967467 78
-1.6661199 -0.060210794 0.78535509 21.333334
-1.6279238 -0.075922914 0.85247725 8.666667
-1.7074671 0.037693515 0.83857465 3.25
5.1872768 0.86038995 0.82621229 50
5.20789 1.140294 0.84384692 82
5.2242928 1.4205296 0.82327223 84
1.9012109 1.5813898 0.79641372 16.666666
1.9140892 1.7392933 0.82011914 14
5.2584944 1.7167013 0.81813151 89
1.9287691 1.9024826 0.82875508 12.666667
1.9411091 2.0063741 0.795183 16.333334
5.2772713 2.0091646 0.8662383 90.666664
1.9461422 2.1382723 0.8789835 12
1.95042 2.17382 0.79958785 13
4.9484935 2.1573436 0.83246183 88
1.9448422 2.2576671 0.84385848 2.5
4.9605532 2.3610055 0.80606532 88
1.9682 2.4935112 0.82717484 17.25
-3.2130222 2.7538595 0.88948274 62
-2.7329853 2.7074966 0.79795253 70.25
-2.6372166 2.7195437 0.85610789 73
4.987545 2.7756989 0.84908187 45
-2.5746295 2.9562266 0.81740421 66.666664
-2.5621483 3.1449063 0.84289306 64.5
2.0269601 3.1487055 0.75748479 15
2.0239179 3.2427988 0.81764048 9.5
-2.5531499 3.3578274 0.81117469 51.666668
2.0462978 3.3928046 0.87442982 1
-2.5392022 3.5158026 0.8839978 12
2.0527043 3.5318241 0.77898026 4.5
1.531006 4.0220652 0.76027048 32
1.4036965 4.0970936 0.77581859 30.5
-0.98750103 4.9477124 0.89830482 5
-0.83238423 4.9294538 0.87946868 6.5
-0.67084992 4.9113584 0.84148502 7
-3.3485882 5.0947475 0.82673931 65
-3.3054841 5.1018338 0.83521318 64
-2.8884068 5.1261616 0.80491412 78
-2.7290158 5.119379 0.83693492 4.5
4.9854498 -1.5501488 1.0104637 81.333336
5.007751 -1.2797076 0.91405702 81.666664
5.0197563 -1.1758207 0.95150018 85
-0.79078662 -0.91352761 0.97896689 34.5
-0.64927238 -0.92448443 0.9997412 36.714287
-0.5127939 -0.93648261 0.94541788 35.200001
-0.37339255 -0.94757718 0.99939936 29.428572
-0.26959124 -0.95762098 0.97108299 12.5
-0.1328375 -0.96517849 1.0256588 43
5.0354328 -0.97269952 1.0363994 79
5.0470567 -0.78245598 1.03069 81
5.0596275 -0.72159088 0.98219275 81
5.0756326 -0.49487504 0.97026551 80
5.0981755 -0.25347674 0.94936103 81
5.2104282 -0.0048391786 0.92292213 1
5.2006702 0.0084879519 0.95454687 5.5
5.1983128 1.0235124 0.97043025 83
5.2051554 1.090101 0.93964487 85
5.2096081 1.2847912 1.0082047 74
5.2245398 1.3786154 0.97879905 85.5
5.2507915 1.7025093 0.96745056 87.5
1.9293846 1.8802495 0.96302605 13.5
1.9371414 2.0661011 0.98132747 12
5.2689929 2.0367713 0.97819936 86
1.9465321 2.16728 0.93903881 12.5
4.9434385 2.2010126 0.93643117 85
4.9534612 2.2398646 0.90059042 92
1.9405658 2.2641597 0.91083121 1
1.9585611 2.3650236 0.97303432 9
1.9661287 2.4751942 0.98530561 16.666666
4.9663086 2.4938974 0.96983165 86
1.9753473 2.6567326 0.99758089 15
4.9769869 2.6346741 0.96231902 89
-3.1702857 2.7531178 1.0463552 60
-3.1251574 2.7468379 0.96178061 58
-2.8979707 2.7343347 1.0474032 71
-2.7025702 2.7039447 0.91529036 70
-2.612638 2.7416692 0.96003169 72.800003
1.9857607 2.7924194 1.011108 14.333333
-2.5754478 2.9879923 0.93418884 66
-2.5718145 3.1349871 0.93131441 64.5
2.0315008 3.2766593 0.91807139 11
-2.5552573 3.3656697 1.0355273 55
2.0293164 3.3471022 0.90136814 0
-2.5516512 3.4519422 1.0158154 52
2.0469325 3.529736 0.97445595 7
-0.94825757 4.93364 0.93900418 83
1.3109336 4.8037381 0.96109831 18
-3.3272605 5.0990825 0.91764188 56
-3.2913022 5.0970082 0.94978613 60
-1.2569287 4.9652343 0.97625101 39.5
-1.1052821 4.9542685 0.91371298 6
-3.3159349 5.1004438 0.93811393 59
-3.0563383 5.1419201 1.0103726 78.5
-2.8419461 5.1272402 0.95223033 77
-2.8496962 -2.8447351 1.0915072 78.5
4.987802 -1.5056403 1.1490605 70
4.9997783 -1.449508 1.0543653 84
5.009285 -1.2499555 1.1307625 81.666664
-0.76521415 -0.91526484 1.1288663 36
-0.68579865 -0.91952425 1.1511478 38
-0.50975341 -0.93703866 1.1335026 37.666668
-0.38058427 -0.94268012 1.1223776 39.545456
-0.21562846 -0.95324218 1.1213821 39.400002
-0.085574694 -0.96143961 1.0828314 13.333333
5.0228233 -1.0325909 1.1314321 80
5.0462532 -0.7701425 1.0885576 81
5.0762558 -0.38809484 1.1883183 80
5.0924449 -0.20307596 1.1404061 79
5.0931659 -0.095488377 1.1637331 70
5.2157545 0.15244408 1.174569 13
5.1944323 0.97194302 1.1227679 82.5
5.2139077 1.3045188 1.0928273 76
5.2311773 1.5677943 1.0900031 82.5
5.250154 1.6788715 1.0559977 89
5.2481055 1.8284272 1.11842 79
5.2612486 1.8769091 1.1693711 87
1.9390368 1.9975947 1.0543031 11
5.0264416 2.0829933 1.1581472 24
5.1896744 2.0835402 1.1721913 25
5.2723579 1.9851655 1.1083052 92.5
1.9435583 2.1877546 1.1286877 9.666667
4.9411564 2.1583443 1.1040903 86.5
1.9620677 2.3849444 1.0973296 14.5
4.9471884 2.2622852 1.1838195 89
1.9581752 2.4935112 1.0848416 18
4.9619398 2.50104 1.1248462 85
1.9716048 2.6270921 1.1202737 14
-3.0417078 2.7412899 1.1100342 50.400002
-2.8749352 2.733144 1.1297741 68
-2.7264338 2.7184358 1.16449 66
-2.6040413 2.7083604 1.1024528 5
1.9854419 2.793786 1.1507437 15
-2.5834534 2.9482145 1.0643142 67
1.9940052 2.9420888 1.1971493 14
-2.5760746 3.052192 1.0595373 70
-2.550715 3.4315112 1.1779921 50
2.0608387 3.6739743 1.0888795 5.3333335
2.0748563 3.8152707 1.1435423 8
2.084971 3.9488771 1.0848076 7
2.1052659 4.1084161 1.0500969 7
1.0206888 4.7819743 1.1511476 80
1.1268524 4.79952 1.1925319 75
1.2977955 4.7933211 1.1619698 82
1.3580678 4.7917809 1.0767198 12
-1.0803678 4.9452147 1.0837557 86
-0.95104146 4.933547 1.056082 92
-1.5949793 4.9950399 1.1388795 85
-1.4020072 4.9697242 1.1619043 82
-1.2671554 4.9706621 1.1508498 77.5
-1.1788309 4.9597707 1.1150547 78
-3.2782471 5.1016569 1.0640237 53.5
-3.1092868 5.1165576 1.1076366 78.5
-2.8079348 5.1229458 1.1258297 67
-3.2088103 -2.813205 1.2842917 74
-2.9590559 -2.8334932 1.2897584 70.5
4.97679 -1.5519074 1.2827585 82
4.9929032 -1.4609475 1.2172863 80
5.0016184 -1.2802348 1.2500955 81
5.0157876 -1.0638695 1.3487802 77
-0.79282951 -0.90528983 1.3111836 31.333334
-0.65921593 -0.91922259 1.3203199 34.333332
-0.51535594 -0.93051553 1.2653157 30.125
-0.36838937 -0.93925554 1.2836102 29.799999
-0.23324947 -0.94748133 1.2570498 12.2
5.0381026 -0.90130562 1.2993673 82
5.0452909 -0.82316583 1.2878528 79
5.0547228 -0.6558429 1.280961 82
5.0632443 -0.5811767 1.235229 80
5.0716276 -0.40323302 1.2759622 79
5.0978122 -0.16491622 1.2408913 79
5.1999903 1.127048 1.2151012 82.5
5.2203336 1.3960896 1.2549379 82.5
5.2368479 1.6302657 1.315092 84
5.2398367 1.7158167 1.3021154 84
1.95948 2.3740416 1.2922049 14
4.9460006 2.3441606 1.2014585 82
1.9568225 2.4843614 1.2842796 17.5
4.9543495 2.5059187 1.250113 81.5
1.9683545 2.6118655 1.2753586 15
4.9804969 2.6694539 1.2947214 82
-3.3270907 2.7727551 1.3045723 60
-3.0144312 2.7357183 1.2438735 46
-2.9051359 2.7319229 1.2778611 66
-2.622786 2.7734957 1.3009644 61
1.9814157 2.7722225 1.2934464 14
4.9812021 2.7947438 1.332673 34.5
-2.5839756 2.8597636 1.2993523 65
2.0030713 2.9593396 1.3052111 11.5
-2.5826778 3.0528426 1.271799 56.5
2.00963 3.0786402 1.2534871 11.5
-2.5617874 3.2245309 1.3174042 59
2.0201821 3.1643188 1.2054489 12
-2.5542278 3.5073307 1.3219945 45
-2.5360839 3.5132525 1.322723 14
2.069643 3.9736881 1.2399487 3
2.0881448 4.161396 1.3439814 2.5
1.0074835 4.7838073 1.3156525 76
1.0505029 4.7772408 1.2213414 83
1.316222 4.7928243 1.2667007 86
1.1775582 4.8059883 1.3199402 80
1.2305856 4.8063426 1.2398409 82
-1.57578 4.9923687 1.274287 85
-1.3947185 4.980824 1.318671 89
-1.2420894 4.9639387 1.2875339 90
-3.4964662 5.1495075 1.2857213 52.5
-3.2340448 5.1079516 1.213872 50
-2.7686226 5.1238661 1.3252959 76
-2.5640078 5.1173401 1.3382703 2
-3.6203136 -2.7788825 1.48514 65
-3.3239267 -2.7980738 1.4728538 66
-3.0692849 -2.8209572 1.4253933 67.5
4.9720626 -1.533397 1.3516213 84
4.9996419 -1.3631039 1.453604 72
5.0019326 -1.3081735 1.4273832 78
5.0112247 -1.1232426 1.4135759 80
-0.78725743 -0.90387994 1.4846456 31.5
-0.65564775 -0.91513205 1.435336 22.666666
-0.51506817 -0.92514628 1.4219128 21.333334
-0.37836471 -0.93694127 1.3847336 13.5
5.0350227 -0.87924302 1.3867482 79
5.0699954 -0.37603536 1.4781468 70
5.0946794 -0.15124215 1.4564289 69
5.1828671 0.9955709 1.4806077 70
5.2562771 1.9148575 1.3798289 85
4.9788008 2.09319 1.3655216 23
5.2667985 2.0041931 1.3769636 86
4.930057 2.1544604 1.3533465 82
4.9423542 2.3604081 1.4397793 83
4.9546633 2.4476712 1.4551526 85
1.9667182 2.5858386 1.4213207 15
-3.4120347 2.7762001 1.3988634 13
-3.2735584 2.7686462 1.4301844 59
-3.1363966 2.7605035 1.4340061 57
-2.8199623 2.7337704 1.4656806 59
-2.5993807 2.7643666 1.4075078 47.75
1.9801431 2.7272086 1.4626474 15
1.9903419 2.8796015 1.4951322 14.5
-2.5792327 3.1284456 1.3741429 52
2.0074592 3.0701013 1.4319098 13.5
-2.5792048 3.1557071 1.483596 63
2.016696 3.2660615 1.4352731 12
2.0923152 4.1433482 1.4468361 1
2.0986776 4.308423 1.440732 1
2.074353 4.4137068 1.3949224 11
2.1333373 4.3866792 1.4868873 1
2.0681636 4.5679493 1.3687865 36
0.96632087 4.7908297 1.4298444 79.75
-0.65133989 4.9210672 1.4350691 81.5
0.7343449 4.8108044 1.4906703 76
0.79083019 4.8056936 1.3789898 77
-1.5812333 5.0012112 1.3992262 83
-1.49042 4.9866953 1.3580914 77
-3.5302367 5.1507215 1.3806239 40
-3.2154851 5.1218939 1.401446 46.5
-2.7350056 5.1253424 1.4497898 73
-2.6464758 5.1224966 1.3799919 4
-2.6421938 -2.8539708 1.5652959 63.5
-2.4743655 -2.8626897 1.5832062 75
-2.2605824 -2.8777058 1.5924168 79
-2.0353079 -2.891459 1.606442 80
-1.9167997 -2.9070914 1.5909739 41
-3.6323028 -2.7770166 1.5294324 66
-3.4755073 -2.7887819 1.6228393 65
-3.330291 -2.7990284 1.5336382 65
-3.1948767 -2.8056645 1.5722849 67.5
-3.0627255 -2.8213196 1.529815 65
-2.9532559 -2.8289952 1.5569801 62.5
-2.7982559 -2.844703 1.5492898 52
4.9705334 -1.5785804 1.5669926 76
4.9948645 -1.354157 1.5456102 81
5.0149217 -1.0547824 1.6081444 68
-0.77842367 -0.90399063 1.5824399 12
-0.66422212 -0.91259319 1.5596361 22.5
-0.51590884 -0.92712963 1.5519576 12.5
-0.43141904 -0.9222638 1.5560665 2
5.0367489 -0.82721573 1.5551211 70
5.0520906 -0.60009992 1.5109367 70
5.0581465 -0.52339858 1.6044291 70
5.0730214 -0.30486733 1.5634744 70
5.1032128 -0.08705911 1.5378542 83
5.2080121 0.13654481 1.5460352 13
5.1759167 1.0542231 1.5212792 76
5.2019157 1.2695711 1.5340382 70.5
5.2192254 1.4854074 1.5599669 72
5.2240958 1.5563108 1.5931091 75
5.243731 1.7410731 1.6196878 74
5.2498312 1.8218322 1.648177 80
4.9170299 2.1305301 1.6352054 65
1.9694901 2.6228254 1.5041155 15
4.9641685 2.6638043 1.5511807 77
-3.3632555 2.7744143 1.636269 59
-3.0476308 2.7518144 1.5313798 46
-2.9172268 2.7400799 1.6075063 59.5
-2.8351836 2.7343462 1.5282073 65
1.9793146 2.7526822 1.5071768 15
4.9717746 2.7501068 1.5738504 80
1.9950273 2.871315 1.6380073 12
2.0061705 3.0797398 1.5469837 12.5
2.0106988 3.2754295 1.5347288 7.5
2.0373583 3.4482596 1.5179237 1
1.8936143 4.4305277 1.6259755 1
2.0693386 4.4512434 1.5492815 19
-0.90670866 4.6273885 1.594741 62
-0.83871883 4.6278324 1.5748724 35
-0.62346095 4.6073065 1.5961714 4
0.39047319 4.5163865 1.6345044 70
0.47411674 4.5144811 1.649845 77
-2.9436102 4.7839217 1.6113917 72
1.8632619 4.7468724 1.6165682 7
-2.9205806 4.9027934 1.5899855 21
-1.8511533 4.8846402 1.6074612 10
-0.96335554 4.9327669 1.5989562 56
-0.75038636 4.902451 1.6499583 26
-0.64657742 4.9222813 1.6200502 46.5
0.52317053 4.8361506 1.5849057 78
0.69519126 4.8167806 1.5905614 78
0.78953964 4.8172216 1.6030653 87
-2.6796103 5.099535 1.6106004 63
-1.8223989 5.0238848 1.625193 20
-1.7284031 5.022594 1.5736444 87
-1.5493886 5.0084262 1.5395414 97
-3.1864507 5.1320596 1.6097956 23
-2.9396486 5.1438723 1.6015372 72.5
-2.6056297 -2.8527825 1.6858341 67
-2.3422704 -2.8733344 1.7977289 70
-2.146116 -2.8854389 1.7926804 84
-2.0397828 -2.890275 1.727991 70
-3.7733519 -2.7675297 1.7911683 4
-3.451093 -2.7906458 1.6964434 59
-3.4035687 -2.7934999 1.7825991 63
-3.1854129 -2.8107212 1.7175149 61.5
-3.0768085 -2.8182378 1.7711768 59
-2.925667 -2.82429 1.7908553 64
-2.7641027 -2.8368223 1.7633144 60
4.9716172 -1.5197251 1.7486745 68
4.9942541 -1.2859075 1.6724354 70
4.9984698 -1.1745144 1.7771648 70
-0.65893245 -0.90899491 1.7618065 6
-0.55652565 -0.91835439 1.6796499 6
5.0177226 -0.95673591 1.7089142 69
-0.77775824 -0.89709061 1.7078177 9
5.0379872 -0.73951679 1.6518275 70
-3.4141045 -0.37912273 1.7980157 21
-3.5907805 0.13041162 1.799558 93
-3.5036857 0.20717131 1.7974005 87
-3.2563999 0.25637013 1.7951452 83.333336
-3.6099496 0.39987013 1.7947196 94
-3.4926581 0.43971905 1.7898017 83
-2.9654198 0.34094176 1.7970649 35
-2.8278413 0.42833358 1.7976977 76
-3.8708949 0.46116289 1.7968311 88
-3.6481566 0.48411143 1.7964066 93
-3.4894624 0.48928133 1.7903227 87
-3.3141389 0.51022542 1.7920805 88
-3.2560005 0.5141902 1.7888513 78.5
-3.1128964 0.53937024 1.7969459 55
-2.9133911 0.54704797 1.7966465 54.5
-4.5469885 0.71263981 1.7850472 70
-4.4301262 0.72278494 1.7791749 70
-4.2045746 0.73334128 1.7868453 76
-4.1410561 0.6860466 1.7857871 77
-3.9187717 0.74585897 1.7877872 80
-3.8760967 0.65540689 1.7919601 81
-3.6382041 0.67725396 1.7962676 93
-3.5137024 0.72311252 1.7848524 80
-3.4055481 0.6976527 1.7921218 88
-2.8372715 0.67235786 1.7957567 0
-3.8772099 0.76132208 1.7880367 91
-3.6755784 0.76593685 1.7925631 83.666664
-3.5174611 0.76153272 1.7847112 85
-3.3293664 0.75968176 1.7853978 65
-3.2225869 0.80980057 1.7846347 27
-3.1241987 0.79212701 1.7932798 8.5
-2.5781546 0.75376576 1.7944177 14
-4.175446 0.95442218 1.7744983 39
-3.899235 0.96170872 1.7852482 19
-3.0789747 1.0398476 1.7876182 11.5
-2.9378619 1.0287275 1.7882013 25.5
-2.7686517 0.93540877 1.7895387 39.5
-2.5689497 0.95281655 1.7983624 83
-2.4512079 0.9997583 1.7983919 84
-2.3610537 1.0488926 1.7960685 80
-2.1734369 0.95107418 1.7986392 79
-3.249898 1.0976189 1.7948877 10
-3.1100397 1.0689143 1.7844971 27
-2.8286901 1.1756141 1.7782923 73
-2.6246793 1.1934329 1.7886611 74
-2.4531147 1.1241513 1.794633 78
-2.2076356 1.1508623 1.7945181 76
-2.0466774 1.1850518 1.7942909 80
-4.2309508 1.3060305 1.7772075 9
-3.934999 1.2837715 1.7831668 17
-3.6685483 1.2562339 1.7794453 38
-3.5702901 1.3374071 1.7762347 75.5
-3.4009073 1.2912929 1.7812986 74.666664
-3.092041 1.3157481 1.7764684 66
-2.9500091 1.2806423 1.7858397 38
-2.5700145 1.2056664 1.7977957 80
-2.4280434 1.2719387 1.7923827 83.5
-2.3682694 1.274868 1.7958807 74
-1.8622702 1.2754065 1.7981864 77.666664
-1.6517379 1.2484783 1.7976424 83
-1.5528411 1.268468 1.7966348 75
-4.5757189 1.4468215 1.7686139 49.5
-4.2511253 1.4153817 1.7758839 54
-3.9687817 1.3873152 1.7750891 60
-3.7549458 1.3720111 1.7723838 61
-3.7338238 1.3583179 1.7848896 58.5
-3.2337196 1.3806095 1.7746822 74
-2.8164635 1.4420129 1.7685086 77
-2.6780787 1.4443877 1.7792655 74
-2.494334 1.4263031 1.7878745 73
-2.1781793 1.3739489 1.7855994 79
-2.0163662 1.3903179 1.7889382 75.5
-1.8513004 1.4345371 1.7947946 82
-1.5600455 1.4489405 1.7972571 83
-1.4163798 1.4553159 1.79887 79
-3.9501882 1.6161088 1.7689327 73
-3.6922615 1.5695662 1.7738723 81
-3.4615355 1.5783403 1.7791724 80.5
-3.3518732 1.6194715 1.7766711 85
-3.0997078 1.6009334 1.770763 74.333336
-2.958015 1.5449928 1.7801117 37.5
-2.4359598 1.610606 1.7847075 73
-2.3660431 1.5088494 1.7882341 78
-2.1459808 1.61137 1.7813245 75
-2.0333004 1.6097949 1.7847654 76
-1.863502 1.5964477 1.7899101 78.25
-1.7817848 1.5391296 1.7948905 77
-1.5544226 1.645768 1.7925149 78
-1.4107602 1.6376768 1.7955862 71
-1.2879351 1.6049041 1.7965537 80.666664
-1.0775169 1.576208 1.7947923 69
-4.2871299 1.746987 1.7682233 71
-4.0066562 1.7345837 1.7686167 73
-3.7746947 1.6868535 1.7728877 75.333336
-3.624088 1.6677905 1.7725943 76
-3.5665939 1.6528977 1.768957 69
-3.2427599 1.6906072 1.7747985 79
-2.8056359 1.7255806 1.7644943 72
-2.6600523 1.7081212 1.7730991 79
-2.521374 1.6971378 1.7803938 74.5
-2.3744745 1.7111044 1.7827184 72.5
-1.8391769 1.7497592 1.7883211 73.5
-1.7657645 1.7777991 1.7875853 76
-1.2515227 1.7565165 1.7962135 73.333336
-1.199344 1.7974763 1.7975928 71
-0.95804298 1.7386422 1.7970477 61
-4.6796064 1.8454965 1.7560846 58
-4.5541763 1.8334535 1.7560879 68
-3.7149045 1.9018975 1.7666112 84
-3.4862833 1.8935859 1.7699884 70
-3.35287 1.9364315 1.7668523 80
-3.1542287 1.880375 1.7728232 86
-3.0413444 1.886645 1.7634789 74
-2.9628704 1.8263927 1.7721422 38
-2.4658065 1.9271877 1.7743382 77.5
-2.3803918 1.8726826 1.7794397 80
-2.1052439 1.8601205 1.7780539 62
-1.9911395 1.8435826 1.7814888 71
-1.8853432 1.8197064 1.7845999 76
-1.7726924 1.8973694 1.7871904 73.5
-1.4418691 1.8470029 1.7897998 67
-1.3038676 1.8151393 1.7924949 75
-1.1696951 1.8900466 1.7926865 70
-0.91388702 1.9266516 1.7923383 60
-0.83048934 1.8912601 1.7949344 57
-0.28137454 1.8472521 1.7995876 75
-4.3072309 2.063616 1.7581309 72
-4.0792928 2.0905864 1.7637478 76
-3.9861023 1.9781008 1.7636155 64
-3.8150339 2.0370209 1.7650441 70.333336
-3.6538672 2.0058563 1.7612182 79
-3.5808854 1.9984962 1.7610918 77
-3.2401445 2.0167432 1.7692159 66
-3.1386716 1.9554476 1.7725407 73
-2.7870603 2.0263748 1.7582313 64
-2.631546 1.9841262 1.7632748 80
-2.4877706 1.9858027 1.7747461 82
-2.3470318 2.0261858 1.7721404 79
-1.8592705 2.0591233 1.7826867 71.333336
-1.7232904 2.0354235 1.7860398 72.666664
-1.4113398 2.0686438 1.7787257 48
-1.2524532 2.009676 1.7890042 64.666664
-1.1330638 2.0182312 1.7900015 66.666664
-0.6698063 2.0495644 1.7950264 59.666668
-0.56882185 2.0147958 1.7978071 59.5
-0.36810136 2.038439 1.7988402 66
-0.091791034 2.0433886 1.7939001 49
5.2247286 2.0797257 1.6984717 40
5.2632475 2.0058334 1.6889061 77
-4.3780904 2.1781404 1.7562762 69
-4.3098164 2.1790216 1.7583507 69
-4.0524187 2.1026189 1.7601234 70
-4.0204167 2.1348059 1.7626182 69
-3.4952445 2.1729228 1.768196 79
-3.1026959 2.2050591 1.7624271 70
-2.975502 2.1363802 1.7718138 48.5
-2.4357584 2.2096758 1.768663 78
-2.3513708 2.139102 1.7717748 73.5
-2.0530386 2.122262 1.7727941 67
-1.6868324 2.2221887 1.7786814 68
-1.0948547 2.1747279 1.7890199 63.400002
-0.81432807 2.1152852 1.7946466 59
-0.62758809 2.2362661 1.7888356 55
-0.51133281 2.1721451 1.796828 56.599998
-0.21988581 2.1466923 1.7949417 59.5
4.9325395 2.2304912 1.6609138 76
-4.7382021 2.2766755 1.7450815 63
-4.6054955 2.2559502 1.7461785 63
-4.0251336 2.3705051 1.7566792 69
-3.8616397 2.3947058 1.7668649 70
-3.7136331 2.3177657 1.7534627 70
-3.5698361 2.3390739 1.755512 68.5
-3.3519514 2.2774799 1.7568654 75
-3.2342217 2.3659227 1.7616287 62
-3.1363232 2.2885613 1.7624167 70
-2.763701 2.3524661 1.7546264 59
-2.6055801 2.2852778 1.7594732 72
-2.4516721 2.2817256 1.7689928 71
-2.3316374 2.3185649 1.7653192 70
-1.988592 2.3998067 1.7649506 79
-1.8765489 2.348264 1.7717038 67
-1.7241632 2.3094964 1.7775793 70.333336
-1.2809942 2.2844596 1.7853276 59
-1.0058893 2.335 1.7899499 57.333332
-0.69876122 2.3003042 1.7885095 58
-0.45764634 2.3518491 1.7923101 54
-0.40025464 2.2976692 1.7951952 54.666668
-0.086326934 2.2944229 1.794147 52
0.16211854 2.3444383 1.797109 63
4.9393525 2.399277 1.7282826 76
-4.344902 2.486304 1.7435845 70
-4.1148844 2.4990683 1.7502333 67
-4.0407729 2.5411563 1.750203 69
-3.8672774 2.4386616 1.7565049 66
-3.5135798 2.5333641 1.7590436 68
-3.0701137 2.510998 1.7556114 64.5
-2.9462824 2.4397788 1.7637404 44
-2.4243169 2.5233045 1.7612039 76
-2.3366823 2.4544337 1.7659775 72
-1.6700422 2.5130951 1.7705008 72.333336
-1.6092511 2.5031624 1.7777596 65.5
-1.0988797 2.4540393 1.7839593 55.5
-0.97324878 2.4581282 1.7834082 58.333332
-0.53743559 2.4625359 1.790503 53.5
-0.33873412 2.4693201 1.7939514 56
-0.28204313 2.4833148 1.7917252 57
0.053608727 2.4952319 1.7990054 31
0.24093598 2.4835334 1.7968154 59.75
0.31295675 2.502749 1.7988664 61
4.9577637 2.5164478 1.7560924 77
-4.3963079 2.6084294 1.7444868 66.5
-3.7734969 2.6568098 1.7523783 67
-3.5946963 2.6996763 1.7496547 62
-3.3527923 2.6505618 1.7485489 68
-3.0941496 2.6060152 1.7502577 64.5
-2.5735078 2.6159811 1.7599901 70
-2.4058218 2.5988698 1.7620491 61
-2.3126278 2.6432562 1.762153 61
-1.7985703 2.6212924 1.7628206 74
-1.5930705 2.6254811 1.7680098 72
-1.2218643 2.5520833 1.7809664 58
-0.93162566 2.6379833 1.7805128 60.5
-0.88018036 2.6066687 1.780633 56.666668
-0.3941808 2.6593854 1.7877588 49.5
-0.20015034 2.6132963 1.7906297 55
0.2232333 2.6398447 1.7902416 59
0.40769848 2.613766 1.7971634 58.666668
0.50611663 2.6750026 1.7981091 58
0.86493069 2.6184323 1.7993301 53
-4.8104835 2.7515206 1.7355684 61
-4.6655111 2.7172213 1.7361375 65
-4.0568886 2.7944574 1.7442096 66
-3.9175534 2.818229 1.7470379 64.5
-3.6688476 2.78479 1.7430837 65
-3.2202654 2.7423861 1.7516416 68
-2.8927212 2.7372184 1.6885669 62.5
-2.7332475 2.7048092 1.7498401 76
-2.3275754 2.7995467 1.7630502 69
-2.2418029 2.7503693 1.7671431 82
-1.9154568 2.7039735 1.7642988 76
-1.563904 2.7869325 1.7654963 70
-1.0971897 2.7949626 1.7659098 63
-1.0204294 2.7192445 1.7737113 57
-0.79123861 2.7953091 1.7743913 58.333332
-0.20303196 2.7646644 1.7852907 56
-0.075014085 2.7774038 1.7858979 48.75
0.40866295 2.7485499 1.7934318 55.5
0.58124441 2.7783763 1.7934089 59
0.68016738 2.8311505 1.7967174 56.25
-4.4027433 2.9580495 1.7345456 63
-4.1342478 2.9570143 1.7359277 65
-3.8853896 2.8844597 1.7411066 62
-2.5912957 2.9581838 1.6561607 55
-2.525398 2.9678342 1.7513849 69
-2.3691001 2.9037509 1.7606608 68.5
-1.7137961 2.9259081 1.7620076 70
-1.5105439 2.9273882 1.7604929 67
-0.83291584 2.9014356 1.7685522 65
-0.73078972 2.9316115 1.7662026 59
-0.25055495 2.9040737 1.7777256 59
-0.025922988 2.8789797 1.7776345 47.5
0.06928058 2.9484458 1.7821125 29.5
0.62262249 2.9474888 1.7910405 53
0.80749965 2.9226856 1.794592 54.666668
0.93483371 2.978291 1.7983314 50
1.9934332 2.8925731 1.7185067 12
-4.5061574 3.0983095 1.7367891 57
-4.4276085 3.0864863 1.7341062 59
-3.8063698 3.0948215 1.7421945 29
-2.2820537 3.0581317 1.7560749 64.5
-2.1851454 3.079577 1.7604119 76
-1.8259393 3.0316913 1.7603818 66
-1.5177227 3.1326878 1.7616955 62
-1.4560744 3.0623195 1.7616224 63
-0.95975918 3.0811324 1.7709647 68
-0.65955174 3.0840731 1.7689898 62
-0.051360663 3.0617058 1.7729567 59.5
0.12864225 3.05124 1.7781091 27.666666
0.19404066 3.1069732 1.777508 42
0.82942909 3.0413551 1.794655 52.666668
0.94305241 3.0503323 1.7933326 53
2.0001345 3.0206285 1.7189072 13.5
-4.8988237 3.2849174 1.725881 53
-4.7570753 3.2469187 1.7351137 33
-4.1025829 3.2741241 1.7350408 62
-3.9558475 3.2590389 1.7357217 20
-2.2966261 3.2093959 1.7497647 67
-1.6087208 3.2491052 1.7546238 57
-1.4385467 3.2093735 1.7583952 60
-0.73765057 3.2524028 1.7707075 67
-0.53451294 3.2621305 1.763899 62
0.2251274 3.207073 1.7782677 42.5
0.32970661 3.2155268 1.7775227 55
1.040508 3.1640031 1.7956568 50
1.1101502 3.2108374 1.7970488 49
1.2179164 3.2541764 1.7937843 47
2.0020676 3.2078629 1.759244 6.6666665
-4.2545028 3.4427004 1.7301563 57
-2.5653093 3.4051604 1.6711444 61
-2.4672079 3.3540995 1.7428192 66
-2.2845147 3.3261192 1.7504722 66
-2.1798058 3.4216728 1.7503561 60.5
-1.7168424 3.3851368 1.7546276 54
-1.3747082 3.3719597 1.7577361 54
-1.3179168 3.3216031 1.7605036 71
-0.79517204 3.3710313 1.764933 71
-0.49691406 3.4023547 1.7663432 62.5
0.22774148 3.3369312 1.782227 41
0.38966942 3.3520496 1.7823268 52.666668
0.515311 3.4098747 1.7854315 51
1.3227177 3.3739226 1.7956601 52.5
1.4135973 3.3873229 1.7952597 51.75
2.0095239 3.320226 1.7648519 7
-4.4627128 3.4851923 1.7222697 55
-4.2410083 3.4619656 1.7235774 57
-2.2233021 3.5165658 1.7445112 55
-1.3792064 3.4898527 1.7530713 53.5
-1.3367023 3.4826584 1.7552706 56
-0.52655602 3.4948721 1.7632743 57.5
-0.36889499 3.5487771 1.7666866 59.5
0.38876525 3.5229368 1.7751688 52.5
0.55672568 3.5426552 1.7802895 51.666668
1.7421644 3.5828104 1.7957982 52
2.077831 3.5375829 1.6707889 4
-4.5450425 3.6357851 1.7223886 49
-2.2506776 3.6051915 1.741629 56
-2.2093213 3.6300828 1.7470218 57
-1.4848167 3.6112766 1.7513882 57
-1.2677474 3.6808143 1.7451183 54.5
-1.1914893 3.6628084 1.7577137 61
-0.60492373 3.6891098 1.7613803 56
-0.34205684 3.658762 1.7642679 54.5
-0.27144223 3.6971505 1.7650231 56
0.64343768 3.6385028 1.7789193 49.333332
0.77520716 3.6645021 1.7826763 55
1.6712664 3.6625309 1.7993518 51
2.0753255 3.6885831 1.7508417 8
-5.008625 3.8967547 1.7171506 29
-4.816236 3.8108482 1.7109836 37
-2.4009619 3.7948945 1.7391127 56
-2.2013903 3.8088243 1.744285 60
-2.0336127 3.8524668 1.7450277 57
-1.5871316 3.7784417 1.7491008 60
-1.2614343 3.8199241 1.74586 56
-1.1917474 3.85636 1.7498378 61
-0.35727131 3.8604257 1.7606591 54
-0.25607049 3.8442512 1.7569983 30.5
-0.12371552 3.8793681 1.7734343 4
0.67620021 3.8413413 1.7761513 56
0.87148434 3.8545828 1.7742627 53.5
1.000193 3.8735223 1.7848872 55.5
2.0170515 3.7564738 1.7904981 13
-2.5699642 3.9956234 1.7275409 52
-2.1573384 3.9803095 1.7370209 57
-1.2858986 3.9798398 1.7473686 55.5
-1.0422596 4.04495 1.7549144 59
-0.38059086 4.0295768 1.7566403 60
0.82000238 3.9222684 1.7784027 52
0.9223339 3.9541068 1.7802836 53
1.0670704 3.9563503 1.7791699 54
-2.8629067 4.0869303 1.7250222 54
-2.1493025 4.0824046 1.7396402 53.5
-1.1203916 4.1106224 1.7459954 56.5
0.99066454 4.1054125 1.7791339 50
1.1525623 4.0810657 1.7753378 53
1.3134401 4.1342025 1.7832355 51.5
-2.3135734 4.2843008 1.728969 48
-2.108978 4.2358351 1.7409507 50
-1.9296473 4.3032832 1.7303413 25
-1.4278115 4.2109413 1.742268 57
-1.1015234 4.2487845 1.7502066 60
-1.0203555 4.2806883 1.7495021 64
0.11420712 4.2583709 1.7607443 22.5
1.1505646 4.2704248 1.7731503 49
1.2304609 4.2079067 1.7733692 52.5
1.3861367 4.235384 1.7748753 51
-3.077384 4.4933481 1.7158803 50
-2.1254158 4.3780341 1.725521 24
-1.1180589 4.4412832 1.7381428 59
-0.86028111 4.4611645 1.7451872 63
0.21336682 4.3688731 1.7582916 21
1.3457601 4.3678122 1.7763983 52
1.4758236 4.3923836 1.7170144 62.5
1.6002734 4.4176998 1.7215692 78.5
1.7235862 4.3960657 1.7181492 69.333336
1.9654911 4.3901639 1.6687897 84
-3.0955517 4.6290717 1.7183579 51
-2.4866152 4.5460434 1.7199625 36
-1.2243252 4.6340108 1.7047385 93
-0.97847646 4.5172024 1.7276911 61
-0.86069781 4.6113281 1.7038831 89.666664
0.29411751 4.5311856 1.6697549 75
0.37777224 4.5139031 1.6950198 83
1.9051418 4.5038757 1.6541735 13
2.061269 4.6190839 1.6602424 42
-3.1263163 4.7681885 1.7120179 68
-2.8419108 4.6792412 1.7227467 47
-2.1600916 4.7283406 1.6687175 55
-1.7601534 4.6762252 1.6524426 89
1.9445424 4.7151322 1.6743919 12
2.0693662 4.6705589 1.6651579 41
0.46173251 4.8219576 1.6698536 37
0.66495699 4.8043098 1.6713866 38
-1.9180059 4.9914865 1.6569015 10
-2.291178 -2.874753 1.8456982 75
-2.1778455 -2.8812368 1.800614 78
-3.6249218 -2.7743781 1.8328567 67.5
-3.3005526 -2.794199 1.8076624 63
-3.1331942 -2.8114295 1.8493065 62
-2.8268051 -2.7876043 1.8483683 62
-2.5622663 -2.8496108 1.8100208 64
-2.2791724 -2.7139106 1.8779426 63.5
-2.2166841 -2.8056707 1.8839928 59
-1.8913925 -2.7007363 1.8792299 67
-3.4948709 -2.6961315 1.8719074 61
-3.335393 -2.596839 1.8708011 59.5
-3.1679585 -2.5624084 1.8680748 60
-3.0638173 -2.5623515 1.8621331 53
-2.9373484 -2.6309562 1.8696715 62
-2.6982262 -2.5940835 1.8685316 57
-2.4479957 -2.623095 1.8725188 57.5
-2.3244684 -2.6616311 1.8767015 65
-2.0662842 -2.6381409 1.8735021 68
-3.6189194 -2.5333805 1.864648 3
-3.4872673 -2.5186143 1.8667492 3
-3.4296901 -2.5036159 1.8666941 52
-3.2024708 -2.4681876 1.8569363 53
-2.9050264 -2.4761841 1.8734072 53
-2.3146248 -2.4343016 1.8704368 60
-1.9813915 -2.4149632 1.8714548 65
-1.8160418 -2.4818604 1.8750871 67
-1.6879756 -2.4367664 1.8734273 59
-2.9740095 -2.3029685 1.8635598 58.5
-2.7617738 -2.2805676 1.866104 68
-2.5555854 -2.3483734 1.863361 66
-2.463717 -2.2778757 1.8565561 63
-2.3786342 -2.3437986 1.859398 58
-2.1521542 -2.339287 1.8648933 64
-1.7107095 -2.2700191 1.8746362 61.5
-1.6495199 -2.2879109 1.8787009 60
-3.2060931 -2.2284493 1.8599995 4
-3.0986068 -2.221488 1.8532223 58
-2.9703257 -2.1951654 1.8576821 64
-2.422868 -2.1249685 1.8571876 65
-2.3241644 -2.1508324 1.8530904 48
-2.0609515 -2.1489086 1.8651434 60
-1.8994856 -2.2259247 1.8681382 62
-1.7501893 -2.2014601 1.8694067 61.5
-3.00897 -1.9994147 1.8588339 4
-2.8918242 -2.091048 1.8592278 5
-2.6157427 -2.0678124 1.860386 4
-2.4391854 -2.0627141 1.8575228 5
-2.2273247 -2.0620742 1.8600353 62
-1.9669496 -1.9778705 1.8527416 49
-1.8172297 -2.0469871 1.8615304 45
-1.7519313 -2.012465 1.8687531 62
-1.546151 -2.0097442 1.8720292 64
-2.340847 -1.9209954 1.858143 4
-2.1326873 -1.8995855 1.8617924 62
-1.8743675 -1.8907794 1.8625917 65
-1.7681491 -1.8132211 1.8668381 67
-1.4852148 -1.8743005 1.8703152 70
-2.2879519 -1.7946752 1.850077 4
-2.1977806 -1.6620771 1.8595515 4
-2.041539 -1.7593194 1.859681 68
-1.8639759 -1.7503592 1.8580867 65.333336
-1.5963235 -1.7279339 1.8642278 68
-1.4215604 -1.7559073 1.8653024 76
-1.3141832 -1.6950212 1.8608816 63
-2.1053329 -1.5446775 1.8612298 4
-1.9738188 -1.5653417 1.8588932 39.5
-1.8640542 -1.5674747 1.8577396 61
-1.7035252 -1.5714439 1.85879 66
-1.4090669 -1.5631061 1.8637496 70
-1.297678 -1.5258374 1.8688536 67.5
4.9567075 -1.6171657 1.9443156 33
-2.0154943 -1.4333599 1.86246 3
-1.8829943 -1.3821871 1.8599008 35
-1.7671409 -1.3639282 1.8527077 62
-1.5970948 -1.4338424 1.8609706 55.5
-1.4003747 -1.4156027 1.8635138 58.5
-1.2189554 -1.386694 1.8599607 78
4.9717999 -1.3934088 1.8523821 67
-1.6928409 -1.284041 1.8569244 63
-1.6169617 -1.2133927 1.8523022 66
-1.4629884 -1.3279715 1.854441 75
-1.3103648 -1.2833915 1.8605571 75.5
-1.1232765 -1.2814848 1.8633965 78.5
-1.04831 -1.2322731 1.8596195 81
-1.8240091 -1.1641685 1.8498229 66
-1.744011 -1.0972859 1.8498734 69
-1.5402876 -1.1533861 1.8516895 72.5
-1.4242638 -1.1784042 1.8557873 74
-1.2834233 -1.1039553 1.8564575 76
-1.1122661 -1.0827435 1.8588947 79.333336
-1.0215416 -1.1132919 1.8627595 74.666664
-4.3899908 -0.97114009 1.81574 67
-4.3044677 -0.93160248 1.8154081 73
-4.0132198 -0.94076455 1.819487 73
-1.8943651 -0.98884892 1.8468107 71.5
-1.7331723 -0.98083043 1.8537931 42
-1.5586524 -0.99946368 1.8534167 66.5
-1.4391661 -1.0193868 1.852933 75.5
-1.2394159 -0.98286569 1.8585402 79.5
-1.1325508 -0.93912411 1.8604326 80.666664
-0.96302193 -0.95052791 1.8601507 62.5
-0.63092619 -0.90489811 1.8672622 2
-0.17339966 -0.94519383 1.8470646 11
-4.0759239 -0.81311077 1.8197187 69
-4.0011559 -0.77742368 1.8203911 76
-3.7976263 -0.78063703 1.8226037 68.5
-1.4022149 -0.88938004 1.854472 72
-1.2637032 -0.82490349 1.8545359 73.333336
-1.1331043 -0.80050069 1.8559871 39.666668
-1.0017562 -0.81845784 1.8548852 32
-0.8313449 -0.83662432 1.8476037 16.666666
-0.51972371 -0.78713053 1.8513732 3
-0.36323315 -0.84226167 1.8543427 18
-0.24688727 -0.82568032 1.8578438 43.5
-2.023267 -0.60746419 1.8344966 72
-1.366836 -0.69863707 1.851369 52
-1.2528325 -0.66929656 1.8511257 16
-0.96638429 -0.65963817 1.8489034 14
-0.79371321 -0.63513029 1.8501295 13.25
-0.6765967 -0.65832984 1.8467388 20.5
-0.51657289 -0.65666842 1.8531263 58.666668
-0.38275537 -0.69430107 1.8575475 62
-2.2031236 -0.48466802 1.8314587 34.5
-2.0341983 -0.51242828 1.8298391 72.5
-1.4046032 -0.54930484 1.8521422 6
-0.96672142 -0.49681967 1.8437246 33.75
-0.83184242 -0.52829844 1.8434683 40.375
-0.68015522 -0.51498318 1.8464222 72.875
-0.51907647 -0.51527566 1.8486093 80.333336
-0.3985323 -0.50184417 1.8501655 72
-3.5688953 -0.401039 1.8153254 50
-3.3582933 -0.30226547 1.8112785 78
-2.9531441 -0.35348392 1.8455157 32
-2.3333867 -0.33361194 1.8232886 75
-2.1828971 -0.33473766 1.8266574 72.5
-1.9976311 -0.37903973 1.831854 73
-1.8532629 -0.37821776 1.8345249 74.5
-1.7061342 -0.35026333 1.8398682 35.333332
-1.5477693 -0.40421143 1.8500093 8
-1.1191506 -0.3828575 1.8381331 22
-0.97425783 -0.38782388 1.8381321 50.400002
-0.82147288 -0.37895545 1.8405427 76.181816
-0.6790728 -0.38050127 1.8427935 81
-0.53562301 -0.35673562 1.8477315 79.166664
-0.44024783 -0.38310966 1.85264 77
-3.5424342 -0.28345978 1.8244191 0
-3.3958952 -0.28839585 1.8003651 46
-2.5680561 -0.2873314 1.8177522 66
-2.4859257 -0.17101423 1.8163527 47.666668
-2.1706424 -0.22676007 1.8207706 75.5
-2.0192266 -0.23125476 1.8234342 75.5
-1.8785566 -0.20768408 1.8345358 48
-1.7700796 -0.21547686 1.8419427 14
-1.3825295 -0.26086047 1.8436729 5
-1.2986202 -0.25940707 1.8325729 23.333334
-1.1368762 -0.22269964 1.8356614 68.875
-0.97529393 -0.24275586 1.8354242 72.599998
-0.82700127 -0.2208306 1.8382578 78
-0.66154546 -0.21721308 1.8424325 79.666664
-0.54568464 -0.23583242 1.8485118 76.5
-2.3106456 -0.13258335 1.8179644 78
-2.2231295 -0.084468506 1.8152293 75
-2.0180409 -0.082027353 1.8248453 37.666668
-1.8941371 -0.03662147 1.8277192 3.5
-1.5517261 -0.088394448 1.842008 8
-1.406161 -0.10503536 1.828413 50.666668
-1.2860572 -0.065113269 1.8326471 85.199997
-1.1164186 -0.088028863 1.8319544 82.400002
-0.96757632 -0.07533025 1.8324565 80.5
-0.82320851 -0.074353099 1.8335326 80.555557
-0.67987621 -0.081988886 1.8377808 82.125
-0.54222661 -0.077016003 1.8372296 74.5
-2.5732608 0.083563484 1.8139864 67.5
-2.3300099 0.055859078 1.8112093 47
-2.1911345 0.060944851 1.8158001 36
-1.6808616 0.10903006 1.8268615 48
-1.5590551 0.066120438 1.8325235 62.25
-1.4043515 0.058764499 1.8310264 81.75
-1.238547 0.12283208 1.8446521 47.333332
-1.1091536 0.070833273 1.8389255 65
-0.98705941 0.07455761 1.8952051 121.66666
-0.83109152 0.065567583 1.8293474 80.199997
-0.67456996 0.078392759 1.8341501 81
-0.54826641 0.06212626 1.8361182 80
-3.6409941 0.20354858 1.8041625 85.5
-3.3785074 0.19037835 1.8012487 92
-3.1291072 0.2864213 1.8014151 60
-2.7576199 0.22933483 1.8026552 74.5
-2.5670543 0.26462388 1.8091272 76
-2.4776607 0.2320686 1.8114637 69.5
-2.3885674 0.25377703 1.8503224 31.5
-1.8510804 0.2769646 1.8231882 37
-1.7215488 0.22649603 1.8254888 65
-1.568676 0.23632593 1.8328987 84.666664
-1.4115715 0.20216736 1.8280302 85.75
-1.2527263 0.26070574 1.881296 103.33334
-1.1295332 0.23461565 1.9281906 148.25
-0.97870636 0.18890035 1.8477663 29.333334
-0.82729846 0.21983905 1.8274599 78.785713
-0.67587954 0.23468752 1.8336118 80
-0.56296861 0.21056399 1.8334799 84
-3.3963656 0.44198546 1.8000797 91
-3.0792015 0.30088422 1.8069695 33
-2.9497161 0.31207979 1.8011371 43
-2.8383644 0.32319835 1.8078021 82
-2.5835955 0.33029476 1.8040162 55
-2.0028665 0.35148501 1.8212847 24
-1.8884923 0.37462825 1.8215353 49
-1.7203664 0.39173192 1.8248447 83
-1.5625018 0.38689139 1.8284025 80
-1.4152764 0.34823868 1.8286687 87
-1.2459458 0.39734435 1.8790458 83.666664
-1.1364988 0.37083775 1.924984 137.75
-1.0039877 0.36173463 1.9353973 150
-0.8284384 0.37546211 1.8259332 83
-0.68938482 0.37418941 1.8283994 80.199997
-0.55634749 0.3800641 1.8307048 78.5
-3.6514986 0.49089709 1.804727 102
-2.9767625 0.56991047 1.8008803 28
-2.705683 0.49014619 1.80239 27
-2.5793443 0.49057022 1.8121217 1
-2.4867702 0.47674 1.8092028 3
-2.1949148 0.54505783 1.8068644 41
-2.0333786 0.50904983 1.8340616 34
-1.8893703 0.52222794 1.8163906 78.666664
-1.7095215 0.55844498 1.8177722 84.5
-1.5507203 0.53762096 1.8233005 82
-1.4106882 0.4956871 1.8235836 86
-1.2373435 0.50776404 1.8450799 67.5
-1.1144398 0.53015167 1.8374759 83.666664
-0.97905946 0.52093887 1.856986 97.5
-0.81565613 0.52984077 1.8202629 74.666664
-0.67535275 0.52232492 1.8236845 78.714287
-0.54425365 0.53629464 1.8275291 77.666664
-2.4177387 0.66454756 1.8058552 8
-2.3508456 0.63437366 1.8126584 20
-2.2391055 0.71947187 1.8039361 81
-2.0054066 0.68426394 1.8087673 87.666664
-1.9153016 0.66795886 1.8126572 81
-1.7397832 0.70074469 1.813156 88
-1.5570333 0.68321115 1.8197812 89
-1.4378742 0.66564327 1.8205156 86.5
-1.2935851 0.65416622 1.8189266 87
-1.1201568 0.6783253 1.8200939 86
-0.97166693 0.66892058 1.8191626 76
-0.81960678 0.69748366 1.8199091 76.599998
-0.69013 0.67759132 1.8211104 76.333336
-0.53066015 0.68295789 1.8246406 81.25
-2.4422073 0.83584416 1.8013213 76.5
-2.3569729 0.83811194 1.8045801 77
-2.1364105 0.77139986 1.8021876 82
-2.0384736 0.81425494 1.8039073 85
-1.8993375 0.83484507 1.8112731 84.5
-1.7185202 0.87870133 1.8093311 90
-1.5728408 0.81446838 1.8156413 87.666664
-1.4230855 0.81915653 1.819068 88
-1.2704587 0.80084229 1.8185819 86
-1.0969772 0.81281185 1.8238778 93
-0.97896063 0.81596088 1.822381 83.800003
-0.80452126 0.82306892 1.8162758 75.199997
-0.6724205 0.80765086 1.8225532 70
-0.50717586 0.84244084 1.8256017 74
-2.5818372 0.97812068 1.8015875 83
-2.4915478 0.91777277 1.8011862 77
-2.007874 0.9691537 1.8060971 80
-1.8740627 0.99934483 1.8060285 83.666664
-1.5793445 0.9420042 1.8120627 85.5
-1.421471 0.96651572 1.812284 86.666664
-1.3130505 0.96684599 1.8176256 81
-1.1283852 0.98213011 1.8207159 84.666664
-0.97087616 0.96118164 1.8245171 85.666664
-0.81472069 0.96654701 1.8164568 79
-0.67108577 0.96909755 1.8202157 77.63636
-0.5520215 0.98668605 1.8240652 79.333336
-0.43236095 0.97152317 1.8230153 65
-1.9689225 1.136765 1.8025881 83
-1.8680186 1.1071398 1.8051851 77
-1.6899406 1.0619171 1.8042032 85
-1.5484639 1.1088395 1.8082625 77.5
-1.4165968 1.1109204 1.8136312 85
-1.2822874 1.1263888 1.8140639 88.5
-1.1072735 1.1190515 1.8172944 79
-0.97707784 1.1020087 1.820246 80.599998
-0.82256639 1.179054 1.8216312 77.75
-0.66716099 1.129186 1.8235449 83.85714
-0.54427582 1.1148448 1.822714 79.428574
-0.38698754 1.1335677 1.827903 78.800003
-1.8985751 1.2799593 1.8017539 81.5
-1.4081864 1.2853639 1.8041574 79.75
-1.2756604 1.2769667 1.8095304 85
-1.1059986 1.2601233 1.8118933 70
-0.97499102 1.257256 1.8193291 75
-0.84677058 1.3045852 1.8162929 75.333336
-0.67980707 1.2777117 1.8205816 70.5
-0.54511666 1.2835921 1.822246 73.875
-0.39300293 1.2812568 1.8251003 70.800003
-0.28797159 1.3042787 1.8244938 62
-1.3963349 1.4079903 1.8011402 87
-1.3109958 1.4391544 1.8010231 81.5
-1.0984259 1.4124868 1.8066212 73
-0.9385488 1.3993565 1.8136429 73.333336
-0.810296 1.4391717 1.8145118 70
-0.64697117 1.4317384 1.8165622 69
-0.51103747 1.4059194 1.8181608 70.428574
-0.37680033 1.44445 1.819734 67.666664
-0.23899937 1.43467 1.8218597 66.75
-1.2824192 1.5096358 1.8037455 78.5
-0.94470263 1.5597506 1.8057874 71.5
-0.82895839 1.5475441 1.807449 72.75
-0.69484103 1.6189209 1.8076948 68.5
-0.52972549 1.5598383 1.813291 70.25
-0.40700921 1.5783002 1.8144534 69.428574
-0.22482459 1.5825762 1.8151137 70.5
-0.1124035 1.6084194 1.8151972 47.5
-1.1989107 1.6985416 1.8015753 72
-0.80315608 1.6993061 1.8012632 68.333336
-0.70327252 1.7331024 1.8044786 66.666664
-0.5201723 1.7075015 1.8054261 69.666664
-0.33907562 1.7024046 1.8096033 70.599998
-0.24206112 1.741819 1.8086209 69.666664
-0.059464898 1.7387666 1.816859 24.25
-0.75649655 1.8566698 1.8032669 60
-0.68039644 1.8594224 1.8023468 65.5
-0.48182127 1.8942732 1.8049837 64
-0.39690298 1.8196772 1.8037097 68
-0.23386593 1.8858652 1.8064057 67.599998
-0.11249833 1.8569973 1.8052655 56.5
0.046249315 1.8774633 1.8122567 34.166668
-0.61745232 1.987655 1.803733 62
-0.56665087 1.9807212 1.8039044 62
-0.31201732 1.9709618 1.8015801 55
-0.16717701 2.0313327 1.8023084 71
-0.087706156 1.9954262 1.8068558 53
0.0831936 2.0029089 1.8049707 52
0.22082584 2.0502241 1.8069587 64.333336
-0.034227632 2.1499684 1.8053267 27
0.095379226 2.1773798 1.8033268 37.25
0.2598691 2.173243 1.8058544 62.5
0.35451442 2.1956167 1.8058268 62.5
-0.40151137 2.3421054 1.8026828 61
0.092010573 2.3041303 1.8033563 28.75
0.2423588 2.3298817 1.8018523 65
0.41524088 2.3329546 1.8087114 61
0.5096308 2.3425412 1.8087019 57.599998
0.073282048 2.4091234 1.8029455 27
0.20744236 2.4021368 1.8031577 58
0.36605009 2.5391507 1.8022164 56.5
0.57686532 2.4746437 1.8072509 58
0.65852672 2.4682148 1.8079787 53.333332
0.53624374 2.6868241 1.8006643 60
0.73668844 2.5585928 1.8113374 47
0.8022089 2.5862122 1.8044062 55.200001
0.93149018 2.6443024 1.8073282 52.666668
4.9646702 2.6837995 1.8384515 74
1.0051596 2.7299156 1.8047793 51.25
1.1337135 2.767477 1.8082167 50.799999
1.3251531 2.844234 1.8122364 44
1.3857791 2.8313179 1.8147637 48
4.9656296 2.808943 1.8614837 14
0.99673158 2.981725 1.8037504 51
1.2455771 2.8799996 1.8057363 49.25
1.3958998 2.9144578 1.8148427 49.5
1.5914469 2.9359946 1.819454 47
1.8639469 2.9889624 1.8254253 46
1.1720138 3.1384027 1.807109 45
1.2275324 3.1123619 1.8101743 51
1.4604994 3.0427024 1.8082764 48
1.5451717 3.0058737 1.8090624 45
1.7492155 3.0940397 1.8107406 49
1.8730879 3.0805957 1.8187646 43.666668
1.4528602 3.2625957 1.8115838 50.5
1.7329324 3.1977267 1.8058289 49
1.7269289 3.3974104 1.8141997 50
1.5839195 3.4765348 1.8004519 51
1.6894569 3.5484316 1.8041106 50.5
2.0230134 3.591449 1.8146735 0
1.8992705 3.6312912 1.8038415 49
2.0201187 3.7081275 1.8048666 15
2.0409994 3.903636 1.8027779 8
-2.6331549 0.03470299 1.9785368 11.5
-1.0177873 0.28859836 1.9561394 150
-1.1105734 0.41276678 1.9506212 150
