# .PCD v0.7 - Point Cloud Data file format
VERSION 0.7
FIELDS x y z intensity roll pitch yaw time
SIZE 4 4 4 4 4 4 4 8
TYPE F F F F F F F F
COUNT 1 1 1 1 1 1 1 1
WIDTH 105
HEIGHT 1
VIEWPOINT 0 0 0 1 0 0 0
POINTS 105
DATA ascii
-0.28662854 0.0025340405 -0.38875979 0 0.00036634831 -0.010516866 -0.00084959326 1.7801207e+09
0.22043297 0.017201684 -0.42617819 1 -0.02621617 0.030259907 0.12188793 1.7801207e+09
0.7366007 0.17907038 -0.46687388 2 0.016477484 0.043020908 0.60353535 1.7801207e+09
1.0609373 0.61275333 -0.49776387 3 0.03285782 0.035269666 1.0818185 1.7801207e+09
1.2793752 1.0684536 -0.52100194 4 0.027067659 0.02709154 1.008589 1.7801207e+09
1.5524795 1.4921211 -0.54229134 5 -0.0042890599 0.050839547 0.590648 1.7801207e+09
1.9984746 1.7147543 -0.5593006 6 0.036897961 0.013153928 0.091705479 1.7801207e+09
2.4399431 1.6527125 -0.57283211 7 -0.031005178 0.018400673 -0.428507 1.7801207e+09
2.8640728 1.3508958 -0.58890164 8 -0.012847708 0.01923844 -0.9039191 1.7801207e+09
3.1124933 0.89900386 -0.58412367 9 -0.026471328 -0.0061463788 -1.3946307 1.7801207e+09
3.2032773 0.37029132 -0.57241607 10 -0.018918844 -0.024199584 -1.4569441 1.7801207e+09
3.2334828 -0.14847684 -0.55791456 11 -0.037784971 0.0076983967 -1.5676417 1.7801207e+09
3.2392287 -0.66314018 -0.54105157 12 -0.030476687 -0.020518089 -1.5706923 1.7801207e+09
3.2386208 -1.1997972 -0.52943814 13 -0.048268266 -0.026440198 -1.673752 1.7801207e+09
3.0959888 -1.7052642 -0.49200836 14 0.016820829 -0.046349391 -2.2074213 1.7801207e+09
2.751533 -2.1226408 -0.45385337 15 -0.0074985195 -0.051918183 -2.5620167 1.7801207e+09
2.4174886 -2.273118 -0.41803962 16 0.036370564 -0.068943925 -3.0633137 1.7801207e+09
1.8937788 -2.2895153 -0.40856668 17 0.02680132 -0.053238451 -2.6581359 1.7801207e+09
1.8067298 -2.295336 -0.39290106 18 0.0081690894 -0.029398931 -2.1463463 1.7801207e+09
1.6628103 -2.7956934 -0.37883434 19 -0.032154217 -0.056970965 -1.8717992 1.7801207e+09
1.6904061 -3.2219756 -0.34581947 20 -0.073588833 -0.020286793 -1.3496357 1.7801207e+09
1.7624134 -3.4986866 -0.35685003 21 -0.038642757 0.0061700461 -0.78673053 1.7801207e+09
1.9426719 -3.638257 -0.37647387 22 -0.02244908 0.068063132 -0.22279093 1.7801207e+09
2.1509869 -3.6533594 -0.37780058 23 0.02861356 0.090695046 0.36252207 1.7801207e+09
2.3971198 -3.4557643 -0.41066641 24 0.058118097 0.054466873 0.86464286 1.7801207e+09
2.6680553 -3.0043938 -0.4340387 25 0.067186378 0.027395083 1.2589436 1.7801207e+09
2.7763052 -2.5120595 -0.46476766 26 0.067552514 0.0060801511 1.3154696 1.7801207e+09
2.9090571 -1.9888593 -0.4785122 27 0.027915211 0.045927394 1.3248821 1.7801207e+09
3.0507667 -1.498526 -0.51229733 28 0.047846541 0.045452617 1.0936501 1.7801207e+09
3.306052 -1.0337582 -0.53579116 29 0.045136429 0.073263161 0.83932626 1.7801207e+09
3.6708193 -0.643637 -0.55672771 30 0.0054029711 0.053846445 0.54614305 1.7801207e+09
3.9209578 -0.53084356 -0.55161709 31 -0.035602022 0.026315659 -0.014714329 1.7801207e+09
4.0908566 -0.52487606 -0.57220173 32 -0.018716587 -0.0050788666 -0.51459581 1.7801207e+09
4.2374625 -0.63043302 -0.58040565 33 -0.017032543 -0.0068340739 -1.0282878 1.7801207e+09
4.3184719 -0.82976055 -0.58085001 34 -0.021973191 -0.014056469 -1.5496558 1.7801207e+09
4.3279185 -1.334687 -0.58415699 35 -0.029070156 -0.053395916 -1.6335052 1.7801207e+09
4.2573166 -1.8651161 -0.56262982 36 -0.055840708 -0.054821439 -1.5427381 1.7801207e+09
4.3153691 -2.3875234 -0.53556579 37 -0.051716577 -0.0355745 -1.4464077 1.7801207e+09
4.3816581 -2.8832345 -0.52107948 38 -0.051951002 -0.020083778 -1.2962025 1.7801207e+09
4.6445947 -3.3478811 -0.50727504 39 -0.051427674 0.0082080523 -1.2292809 1.7801207e+09
4.8781853 -3.8084776 -0.5013079 40 -0.070891686 -0.00028926437 -0.80559999 1.7801207e+09
5.0977755 -3.9597893 -0.51568568 41 -0.033914987 0.038334075 -0.30592024 1.7801207e+09
5.1044598 -3.9740694 -0.50490505 42 -0.023772685 0.1076235 0.21881208 1.7801207e+09
5.3199368 -3.8792198 -0.53358352 43 0.013662349 0.12362135 0.73087204 1.7801207e+09
5.3883462 -3.8284824 -0.52774829 44 0.051682185 0.090354472 1.2438053 1.7801207e+09
5.4453912 -3.6873434 -0.53114551 45 0.060338981 0.058603588 1.8095607 1.7801207e+09
5.1845555 -3.2280457 -0.56095088 46 0.099652871 -0.03129568 2.1547451 1.7801207e+09
4.9154482 -2.7794068 -0.55210185 47 0.066543177 0.026539121 2.002671 1.7801207e+09
4.6713991 -2.3145299 -0.55914998 48 0.058257144 -0.0053253714 2.0231626 1.7801207e+09
4.3821115 -1.8610672 -0.56583244 49 0.071300007 -0.006182299 1.9890277 1.7801207e+09
4.1781464 -1.3938903 -0.57416517 50 0.063636146 0.021617215 1.8679338 1.7801207e+09
4.1612644 -0.88915151 -0.56752777 51 0.038377319 0.040336292 1.3905562 1.7801207e+09
4.2042642 -0.6073994 -0.58285153 52 0.034828894 0.050038349 0.84239489 1.7801207e+09
4.2743745 -0.51453263 -0.57021058 53 -0.058422204 0.064816736 0.32735831 1.7801207e+09
4.7720709 -0.37805831 -0.61084491 54 0.012995712 0.042109054 -0.07494618 1.7801207e+09
5.2828336 -0.45787528 -0.63120639 55 -0.032780085 0.029004455 -0.28851214 1.7801207e+09
5.7853069 -0.61191428 -0.65525752 56 -0.018785579 0.0078400914 -0.41941339 1.7801207e+09
6.281455 -0.75528514 -0.67137247 57 -0.012272472 0.028372282 0.00096722512 1.7801207e+09
6.4820943 -0.6845836 -0.70957506 58 -0.017382376 0.071956307 0.53706723 1.7801207e+09
6.529326 -0.74626493 -0.69733208 59 0.047997605 0.10722296 1.078131 1.7801207e+09
6.6120253 -0.65258574 -0.68509412 60 0.040388867 0.044746526 1.6263183 1.7801207e+09
6.5715656 -0.55228388 -0.71225864 61 0.053980663 0.018140256 2.2897611 1.7801207e+09
6.2315021 -0.32123253 -0.71637917 62 0.07572934 -0.049767379 2.7894235 1.7801207e+09
6.0592842 -0.24736889 -0.70307356 63 0.029472595 -0.077993549 -2.9564204 1.7801207e+09
5.577898 -0.38341564 -0.66640311 64 0.037766032 -0.06185437 -2.9792249 1.7801207e+09
5.0877848 -0.52496403 -0.64862508 65 0.015579701 -0.03887172 -2.9682117 1.7801207e+09
4.5966029 -0.66366893 -0.60291761 66 0.026751654 -0.029667731 -3.1410234 1.7801207e+09
4.099627 -0.548783 -0.57734877 67 0.086587861 -0.014772525 2.8316662 1.7801207e+09
3.6040311 -0.33722025 -0.57966381 68 0.046314448 0.012078892 2.4054487 1.7801207e+09
3.3524361 0.06091287 -0.58608449 69 0.088677354 0.026730709 1.8859322 1.7801207e+09
3.2280526 0.59774756 -0.59355062 70 0.035530083 0.049223054 1.5093627 1.7801207e+09
3.3456287 1.1293662 -0.59889108 71 0.063156843 0.023639616 1.2395597 1.7801207e+09
3.594594 1.5677128 -0.6142481 72 0.024527049 0.061095908 0.72871614 1.7801207e+09
3.9947054 1.8812454 -0.64047641 73 0.020609882 0.038745165 0.22987488 1.7801207e+09
4.523335 1.9216995 -0.67418182 74 -0.007495922 0.056095246 0.056263011 1.7801208e+09
5.0576868 1.9017575 -0.69365937 75 -0.0091778776 0.043489944 -0.075365201 1.7801208e+09
5.5821762 1.9352958 -0.72745353 76 -0.027475951 0.036227807 -0.082934976 1.7801208e+09
6.1126537 1.910998 -0.73639375 77 -0.018981934 0.04420257 0.11973924 1.7801208e+09
6.4352059 1.9687121 -0.76901871 78 0.038738225 0.092862986 0.67514211 1.7801208e+09
6.3861241 1.9519923 -0.79030532 79 -0.034508299 0.18558596 1.1965015 1.7801208e+09
6.4560666 2.0117283 -0.77854174 80 0.097592823 0.14764571 1.7098663 1.7801208e+09
6.3062572 2.5442836 -0.76539433 81 0.058191981 0.0038181487 2.2237766 1.7801208e+09
6.0241499 2.809232 -0.77132928 82 0.055083264 -0.020949945 2.7422752 1.7801208e+09
5.7321506 2.7403991 -0.76591098 83 0.020027282 -0.045961764 -3.0051825 1.7801208e+09
5.2279534 2.5730889 -0.74328333 84 0.03188888 -0.052831728 -2.8095248 1.7801208e+09
4.7369366 2.3963726 -0.70949936 85 0.017573372 -0.050624471 -2.8062742 1.7801208e+09
4.2493758 2.2008197 -0.68938631 86 0.047642857 -0.044343617 -2.9806845 1.7801208e+09
3.71648 2.15992 -0.65845138 87 0.025901875 -0.023908792 -3.0590761 1.7801208e+09
3.2061658 2.0735979 -0.62062657 88 0.034684841 -0.035296213 -3.033428 1.7801208e+09
2.7120533 1.973485 -0.60327619 89 0.02012573 -0.029683618 -3.0228069 1.7801208e+09
2.1959915 1.8365833 -0.58423603 90 0.0079677217 -0.046259556 -3.1136372 1.7801208e+09
1.69267 1.8701067 -0.55490696 91 0.065649956 -0.021305155 2.7518973 1.7801208e+09
1.2587332 2.1330614 -0.54599661 92 0.058133431 0.017231768 2.2909675 1.7801208e+09
0.9300403 2.558027 -0.54515779 93 0.05143737 0.013356481 1.9099241 1.7801208e+09
0.86088449 3.089267 -0.54928249 94 0.056767602 0.056987643 1.4550226 1.7801208e+09
0.95718378 3.621284 -0.56819856 95 0.063610107 0.066629231 1.1291434 1.7801208e+09
1.1607481 4.08006 -0.59079659 96 0.012876209 0.052307926 0.92963111 1.7801208e+09
1.5519713 4.4502535 -0.6150701 97 0.01343314 0.047293562 0.42794216 1.7801208e+09
2.0359783 4.5953622 -0.65026426 98 -0.04033285 0.050650265 0.088878736 1.7801208e+09
2.539274 4.5782146 -0.66993153 99 -0.031833269 0.065261461 -0.027295748 1.7801208e+09
3.0627909 4.6405773 -0.70671207 100 -0.012808111 0.033183645 0.031236203 1.7801208e+09
3.5623302 4.6734414 -0.73165494 101 -0.043986741 0.0511491 0.03486051 1.7801208e+09
4.1186032 4.7058654 -0.73916405 102 -0.011304312 0.060840122 0.024070527 1.7801208e+09
4.6634016 4.7310777 -0.77159196 103 -0.053081922 0.048352882 -0.012517117 1.7801208e+09
5.1858602 4.7399549 -0.77647334 104 -0.032838639 0.060740542 -0.097300351 1.7801208e+09
